<?xml version="1.0" standalone="no"?>
<!DOCTYPE svg PUBLIC "-//W3C//DTD SVG 20010904//EN"
 "http://www.w3.org/TR/2001/REC-SVG-20010904/DTD/svg10.dtd">
<svg version="1.0" xmlns="http://www.w3.org/2000/svg"
 width="200.000000pt" height="200.000000pt" viewBox="0 0 200.000000 200.000000"
 preserveAspectRatio="xMidYMid meet">
<metadata>
Created by potrace 1.16, written by Peter Selinger 2001-2019
</metadata>
<g transform="translate(0.000000,200.000000) scale(0.100000,-0.100000)"
fill="#000000" stroke="none">
<path d="M0 1967 c0 -18 6 -39 13 -46 10 -11 10 -13 0 -7 -10 6 -13 -41 -13
-219 0 -178 3 -225 13 -219 10 6 10 4 0 -7 -9 -9 -13 -49 -13 -124 l0 -112 50
-27 c28 -15 50 -30 50 -32 0 -3 -21 6 -46 20 -26 14 -48 26 -50 26 -2 0 -4
-99 -4 -221 0 -206 1 -221 18 -215 16 6 16 5 0 -8 -15 -11 -18 -30 -18 -123 0
-73 4 -113 13 -122 9 -11 9 -13 0 -7 -10 6 -13 -41 -13 -219 0 -178 3 -225 12
-219 11 6 11 4 0 -7 -6 -7 -12 -28 -12 -46 l0 -33 194 0 c146 0 196 3 199 13
4 9 6 9 6 0 1 -10 88 -13 401 -13 l400 0 0 34 c0 31 -5 37 -55 66 -30 17 -55
34 -55 36 0 3 25 -9 55 -26 l56 -32 100 57 100 57 -3 119 c-2 65 1 119 5 119
4 0 51 25 103 56 l94 55 0 109 c0 60 3 111 8 113 4 3 6 -40 4 -95 -2 -55 0
-107 4 -117 13 -30 12 -39 -6 -34 -10 3 -57 -18 -109 -49 l-91 -53 0 -111 c0
-109 0 -111 26 -122 14 -7 22 -17 19 -23 -5 -7 -15 -5 -30 5 -22 15 -28 13
-119 -40 -91 -53 -96 -58 -96 -90 l0 -34 385 0 385 0 1 28 1 27 8 -30 c7 -26
8 -24 9 19 1 36 -4 52 -16 62 -17 13 -17 14 0 8 16 -6 17 8 17 191 0 183 -1
197 -17 191 -16 -5 -16 -4 -3 6 12 11 15 43 15 171 0 86 -2 157 -5 157 -4 0
-15 7 -26 16 -18 15 -18 15 3 5 12 -6 24 -11 27 -11 4 0 6 262 5 583 -1 320
-5 571 -9 557 -8 -24 -8 -24 -9 -2 l-1 22 -386 0 -385 0 3 -37 c3 -35 7 -40
96 -91 l93 -53 95 55 c52 31 100 56 107 56 7 0 -35 -28 -93 -63 l-105 -62
-102 58 c-89 51 -105 57 -125 47 l-23 -11 23 19 c17 13 23 26 20 48 l-3 29
-394 3 c-309 2 -396 -1 -403 -10 -6 -10 -8 -10 -8 0 0 9 -46 12 -195 12 l-195
0 0 -33z m1627 -27 c11 -27 11 -40 2 -34 -5 3 -7 9 -4 14 3 5 1 11 -5 15 -5 3
-10 16 -9 28 0 14 2 17 6 7 2 -8 7 -22 10 -30z m-1216 -17 c9 -11 10 -14 2
-10 -7 5 -27 1 -45 -8 -27 -13 -29 -13 -13 -1 11 8 25 20 30 25 6 6 11 10 11
11 1 0 8 -8 15 -17z m415 -9 c18 -14 18 -15 -3 -4 -18 8 -30 7 -53 -5 -38 -19
-40 -11 -2 9 34 19 34 19 58 0z m1144 11 c0 -2 -10 -9 -22 -15 -22 -11 -22
-10 -4 4 21 17 26 19 26 11z m-1900 -41 c0 -2 -9 0 -20 6 -11 6 -20 13 -20 16
0 2 9 0 20 -6 11 -6 20 -13 20 -16z m420 -10 c0 -2 -13 2 -30 11 -16 9 -30 18
-30 21 0 2 14 -2 30 -11 17 -9 30 -18 30 -21z m1195 27 c3 -5 2 -12 -3 -15 -5
-3 -9 1 -9 9 0 17 3 19 12 6z m-795 -27 c0 -2 -9 0 -20 6 -11 6 -20 13 -20 16
0 2 9 0 20 -6 11 -6 20 -13 20 -16z m260 21 c0 -2 -13 -11 -30 -20 -38 -19
-40 -11 -2 9 31 17 32 18 32 11z m-820 -10 c0 -2 -13 -11 -30 -20 -38 -19 -40
-11 -2 9 31 17 32 18 32 11z m395 -4 c-16 -14 -105 -63 -105 -58 0 5 101 66
110 67 2 0 0 -4 -5 -9z m982 -6 c0 -8 -4 -12 -9 -9 -5 3 -6 10 -3 15 9 13 12
11 12 -6z m49 -29 c1 -9 -2 -14 -7 -10 -5 3 -6 10 -3 16 5 7 2 9 -8 6 -8 -4
-15 0 -15 8 0 19 30 1 33 -20z m-1616 -2 c0 -2 -9 0 -20 6 -11 6 -20 13 -20
16 0 2 9 0 20 -6 11 -6 20 -13 20 -16z m420 -10 c0 -2 -13 2 -30 11 -16 9 -30
18 -30 21 0 2 14 -2 30 -11 17 -9 30 -18 30 -21z m400 0 c0 -2 -9 0 -20 6 -11
6 -20 13 -20 16 0 2 9 0 20 -6 11 -6 20 -13 20 -16z m120 21 c0 -2 -13 -11
-30 -20 -38 -19 -40 -11 -2 9 31 17 32 18 32 11z m756 -10 c-11 -8 -27 -15
-35 -15 -9 1 -2 7 14 15 39 18 44 18 21 0z m-1576 1 c0 -2 -15 -13 -33 -24
-33 -19 -34 -19 -58 0 l-24 19 26 -12 c21 -9 32 -8 55 5 32 17 34 18 34 12z
m341 -34 c-7 -2 -18 1 -23 6 -8 8 -4 9 13 5 13 -4 18 -8 10 -11z m400 0 c-7
-2 -18 1 -23 6 -8 8 -4 9 13 5 13 -4 18 -8 10 -11z m809 -117 c0 -63 -3 -116
-7 -118 -5 -3 -8 50 -8 118 0 68 3 121 8 118 4 -2 7 -55 7 -118z m-1613 13
c-2 -18 -4 -6 -4 27 0 33 2 48 4 33 2 -15 2 -42 0 -60z m400 40 c-3 -7 -5 -2
-5 12 0 14 2 19 5 13 2 -7 2 -19 0 -25z m-400 -125 c-3 -10 -5 -4 -5 12 0 17
2 24 5 18 2 -7 2 -21 0 -30z m131 -119 c4 -4 -24 10 -62 31 l-70 38 -50 -28
c-60 -33 -57 -26 5 14 l44 27 63 -37 c35 -20 66 -41 70 -45z m332 40 c0 -3
-14 3 -31 11 -17 9 -38 14 -46 10 -13 -4 -14 -3 -4 9 11 13 17 12 47 -6 19
-11 34 -22 34 -24z m380 16 c22 -11 40 -23 40 -25 0 -5 -79 32 -89 41 -11 10
14 2 49 -16z m466 -37 l99 -58 -6 -95 -5 -95 -2 92 -2 92 -94 56 -94 55 -96
-56 -96 -56 -2 -116 -2 -117 -3 115 c-3 105 -6 117 -26 133 l-22 18 23 -11
c21 -10 35 -5 120 44 53 31 100 56 103 56 3 0 51 -26 105 -57z m354 31 c0 -2
-9 0 -20 6 -11 6 -20 13 -20 16 0 2 9 0 20 -6 11 -6 20 -13 20 -16z m-880 11
c0 -2 -13 -11 -30 -20 -38 -19 -40 -11 -2 9 31 17 32 18 32 11z m-420 -10 c0
-2 -10 -9 -22 -15 -22 -11 -22 -10 -4 4 21 17 26 19 26 11z m1250 1 c0 -2 -7
-7 -16 -10 -8 -3 -12 -2 -9 4 6 10 25 14 25 6z m50 -32 c0 -2 -9 0 -20 6 -11
6 -20 13 -20 16 0 2 9 0 20 -6 11 -6 20 -13 20 -16z m-1130 -20 c0 -2 -13 2
-30 11 -16 9 -30 18 -30 21 0 2 14 -2 30 -11 17 -9 30 -18 30 -21z m994 24
c-5 -8 -2 -9 9 -5 24 9 21 0 -4 -14 -15 -8 -19 -8 -15 0 9 14 0 14 -25 1 -10
-6 -19 -8 -19 -6 0 5 49 34 58 36 2 0 0 -5 -4 -12z m-814 -3 c0 -2 -13 -11
-30 -20 -38 -19 -40 -11 -2 9 31 17 32 18 32 11z m240 -31 c0 -2 -13 2 -30 11
-16 9 -30 18 -30 21 0 2 14 -2 30 -11 17 -9 30 -18 30 -21z m-1060 21 c0 -2
-13 -11 -30 -20 -38 -19 -40 -11 -2 9 31 17 32 18 32 11z m400 1 c0 -6 -87
-56 -97 -56 -4 0 15 14 42 30 53 31 55 32 55 26z m1420 -22 c0 -2 -9 0 -20 6
-11 6 -20 13 -20 16 0 2 9 0 20 -6 11 -6 20 -13 20 -16z m-1530 -20 c0 -2 -9
0 -20 6 -11 6 -20 13 -20 16 0 2 9 0 20 -6 11 -6 20 -13 20 -16z m440 6 c11 6
20 8 20 6 0 -3 -9 -10 -20 -16 -15 -8 -27 -7 -50 5 -16 9 -30 18 -30 21 0 2
14 -2 30 -11 23 -12 35 -13 50 -5z m860 5 c0 -2 -10 -9 -22 -15 -22 -11 -22
-10 -4 4 21 17 26 19 26 11z m305 -36 c13 -20 0 -15 -25 9 -23 22 -23 24 -3
13 12 -6 25 -16 28 -22z m-1588 -96 c-2 -16 -4 -5 -4 22 0 28 2 40 4 28 2 -13
2 -35 0 -50z m1590 5 c-2 -13 -4 -3 -4 22 0 25 2 35 4 23 2 -13 2 -33 0 -45z
m-1547 -147 c22 -12 40 -25 40 -28 0 -3 -19 6 -42 20 l-42 25 -36 -22 c-66
-42 -150 -87 -150 -82 0 2 40 28 90 56 l90 52 2 46 2 47 3 -46 c4 -42 8 -48
43 -68z m1547 47 c-2 -13 -4 -5 -4 17 -1 22 1 32 4 23 2 -10 2 -28 0 -40z
m-387 -8 c0 -12 -12 -25 -32 -35 -29 -14 -31 -14 -14 0 11 8 23 15 28 15 4 0
8 9 8 20 0 11 2 20 5 20 3 0 5 -9 5 -20z m-672 -89 l73 -42 -3 -121 -3 -120
-99 -57 -99 -57 -98 58 c-87 53 -101 58 -121 47 l-23 -11 21 20 c20 19 22 31
21 123 0 89 -3 104 -21 121 l-21 20 23 -11 c20 -11 34 -5 120 47 l97 59 30
-17 c17 -10 63 -36 103 -59z m294 40 c4 -3 -6 -6 -22 -6 -15 0 -26 4 -22 9 3
5 -2 6 -12 3 -10 -4 -15 -3 -11 3 6 10 53 4 67 -9z m718 14 c0 -2 -13 -11 -30
-20 -38 -19 -40 -11 -2 9 31 17 32 18 32 11z m-630 -41 c0 -2 -9 0 -20 6 -11
6 -20 13 -20 16 0 2 9 0 20 -6 11 -6 20 -13 20 -16z m220 21 c0 -2 -10 -9 -22
-15 -22 -11 -22 -10 -4 4 21 17 26 19 26 11z m210 -21 c0 -2 -9 0 -20 6 -11 6
-20 13 -20 16 0 2 9 0 20 -6 11 -6 20 -13 20 -16z m-620 11 c0 -2 -10 -9 -22
-15 -22 -11 -22 -10 -4 4 21 17 26 19 26 11z m40 0 c0 -2 -10 -9 -22 -15 -22
-11 -22 -10 -4 4 21 17 26 19 26 11z m430 0 c0 -2 -10 -9 -22 -15 -22 -11 -22
-10 -4 4 21 17 26 19 26 11z m-290 -31 c0 -2 -9 0 -20 6 -11 6 -20 13 -20 16
0 2 9 0 20 -6 11 -6 20 -13 20 -16z m570 21 c0 -2 -10 -9 -22 -15 -22 -11 -22
-10 -4 4 21 17 26 19 26 11z m-1720 -31 c0 -2 -9 0 -20 6 -11 6 -20 13 -20 16
0 2 9 0 20 -6 11 -6 20 -13 20 -16z m400 0 c0 -2 -9 0 -20 6 -11 6 -20 13 -20
16 0 2 9 0 20 -6 11 -6 20 -13 20 -16z m1140 0 c0 -2 -9 0 -20 6 -11 6 -20 13
-20 16 0 2 9 0 20 -6 11 -6 20 -13 20 -16z m300 21 c0 -2 -10 -9 -22 -15 -22
-11 -22 -10 -4 4 21 17 26 19 26 11z m-610 -31 c0 -2 -9 0 -20 6 -11 6 -20 13
-20 16 0 2 9 0 20 -6 11 -6 20 -13 20 -16z m415 8 c-3 -3 -11 0 -18 7 -9 10
-8 11 6 5 10 -3 15 -9 12 -12z m-705 3 c0 -2 -10 -9 -22 -15 -22 -11 -22 -10
-4 4 21 17 26 19 26 11z m430 0 c0 -2 -10 -9 -22 -15 -22 -11 -22 -10 -4 4 21
17 26 19 26 11z m-1318 -142 l3 -118 63 -36 c35 -20 66 -40 70 -44 10 -10 -55
23 -101 52 -30 19 -42 21 -60 13 -20 -10 -20 -10 -4 3 26 21 26 233 0 254 -16
13 -16 13 4 3 21 -10 23 -18 25 -127z m1168 111 c0 -2 -9 0 -20 6 -11 6 -20
13 -20 16 0 2 9 0 20 -6 11 -6 20 -13 20 -16z m570 21 c0 -2 -10 -9 -22 -15
-22 -11 -22 -10 -4 4 21 17 26 19 26 11z m-495 -134 c0 -60 -3 -107 -7 -104
-15 9 -9 213 6 213 1 0 1 -49 1 -109z m445 104 c0 -2 -10 -9 -22 -15 -22 -11
-22 -10 -4 4 21 17 26 19 26 11z m-503 -97 c-2 -18 -4 -4 -4 32 0 36 2 50 4
33 2 -18 2 -48 0 -65z m470 10 c-3 -8 -6 -5 -6 6 -1 11 2 17 5 13 3 -3 4 -12
1 -19z m-840 -85 c-3 -10 -5 -2 -5 17 0 19 2 27 5 18 2 -10 2 -26 0 -35z m370
5 c-3 -7 -5 -2 -5 12 0 14 2 19 5 13 2 -7 2 -19 0 -25z m475 -13 c3 -13 1 -22
-3 -19 -9 5 -13 44 -5 44 2 0 6 -11 8 -25z m78 -61 c0 -2 -13 2 -30 11 -16 9
-30 18 -30 21 0 2 14 -2 30 -11 17 -9 30 -18 30 -21z m-574 10 c-1 -9 -10 -20
-18 -25 -21 -12 -18 18 3 32 18 11 18 12 15 -7z m-276 -19 c0 -2 -7 -1 -17 2
-11 5 -14 3 -8 -6 6 -10 3 -11 -14 -2 -25 14 -28 23 -4 14 11 -5 14 -3 8 6 -6
10 -3 11 14 2 11 -7 21 -14 21 -16z m710 11 c0 -2 -7 -7 -16 -10 -8 -3 -12 -2
-9 4 6 10 25 14 25 6z m-1650 -11 c0 -2 -13 -11 -30 -20 -38 -19 -40 -11 -2 9
31 17 32 18 32 11z m400 0 c0 -2 -10 -9 -22 -15 -22 -11 -22 -10 -4 4 21 17
26 19 26 11z m940 -21 c0 -2 -9 0 -20 6 -11 6 -20 13 -20 16 0 2 9 0 20 -6 11
-6 20 -13 20 -16z m200 21 c0 -2 -10 -9 -22 -15 -22 -11 -22 -10 -4 4 21 17
26 19 26 11z m180 -21 c0 -2 -9 0 -20 6 -11 6 -20 13 -20 16 0 2 9 0 20 -6 11
-6 20 -13 20 -16z m-576 4 c-5 -8 -2 -9 9 -5 24 9 21 0 -4 -14 -17 -9 -20 -8
-14 2 6 9 3 11 -11 6 -18 -7 -18 -7 0 8 24 18 30 19 20 3z m446 -3 c0 -2 -10
-9 -22 -15 -22 -11 -22 -10 -4 4 21 17 26 19 26 11z m-1660 -20 c0 -2 -10 -9
-22 -15 -22 -11 -22 -10 -4 4 21 17 26 19 26 11z m400 0 c0 -2 -10 -9 -22 -15
-22 -11 -22 -10 -4 4 21 17 26 19 26 11z m1460 -21 c0 -2 -9 0 -20 6 -11 6
-20 13 -20 16 0 2 9 0 20 -6 11 -6 20 -13 20 -16z m-718 2 c-3 -5 3 -6 14 -3
14 5 12 2 -6 -13 -29 -23 -36 -24 -47 -7 -15 24 -10 32 17 32 16 0 26 -4 22
-9z m-808 -12 c20 5 20 4 2 -9 -16 -12 -22 -12 -42 2 -30 19 -32 28 -3 12 12
-6 31 -8 43 -5z m1176 -10 c0 -2 -9 0 -20 6 -11 6 -20 13 -20 16 0 2 9 0 20
-6 11 -6 20 -13 20 -16z m80 21 c0 -2 -10 -9 -22 -15 -22 -11 -22 -10 -4 4 21
17 26 19 26 11z m320 -31 c0 -2 -9 0 -20 6 -11 6 -20 13 -20 16 0 2 9 0 20 -6
11 -6 20 -13 20 -16z m-1593 -66 c-3 -8 -6 -5 -6 6 -1 11 2 17 5 13 3 -3 4
-12 1 -19z m0 -110 c-3 -7 -5 -2 -5 12 0 14 2 19 5 13 2 -7 2 -19 0 -25z m27
-61 c21 -17 21 -17 -6 -6 -18 8 -28 19 -27 33 0 14 2 16 6 6 3 -8 15 -23 27
-33z m402 -3 c18 -14 18 -15 -3 -4 -18 8 -30 7 -53 -5 -38 -19 -40 -11 -2 9
34 19 34 19 58 0z m400 0 c18 -14 18 -15 -3 -4 -18 8 -30 7 -53 -5 -38 -19
-40 -11 -2 9 34 19 34 19 58 0z m763 12 c-2 -2 -15 -9 -29 -15 -24 -11 -24
-11 -6 3 16 13 49 24 35 12z m-1609 -10 c0 -2 -37 -25 -82 -52 -46 -26 -88
-53 -94 -60 -8 -10 -13 -9 -21 6 -10 15 -9 17 5 14 9 -3 55 18 102 45 89 53
90 53 90 47z m-290 -42 c0 -2 -13 2 -30 11 -16 9 -30 18 -30 21 0 2 14 -2 30
-11 17 -9 30 -18 30 -21z m1584 14 c-5 -7 -2 -9 8 -6 8 4 15 0 15 -7 0 -11 -6
-11 -29 1 -30 16 -38 27 -11 17 12 -5 14 -3 8 7 -5 9 -4 11 4 6 6 -4 8 -12 5
-18z m-1184 -14 c0 -2 -9 0 -20 6 -11 6 -20 13 -20 16 0 2 9 0 20 -6 11 -6 20
-13 20 -16z m420 -10 c0 -2 -13 2 -30 11 -16 9 -30 18 -30 21 0 2 14 -2 30
-11 17 -9 30 -18 30 -21z m1020 31 c0 -2 -10 -9 -22 -15 -22 -11 -22 -10 -4 4
21 17 26 19 26 11z m-1200 -10 c0 -2 -13 -11 -30 -20 -38 -19 -40 -11 -2 9 31
17 32 18 32 11z m400 0 c0 -2 -10 -9 -22 -15 -22 -11 -22 -10 -4 4 21 17 26
19 26 11z m180 -21 c0 -2 -9 0 -20 6 -11 6 -20 13 -20 16 0 2 9 0 20 -6 11 -6
20 -13 20 -16z m414 -6 c-5 -7 -2 -9 8 -6 8 4 15 0 15 -8 0 -19 -30 -1 -33 20
-1 9 2 14 7 10 5 -3 6 -10 3 -16z m-1564 -24 c0 -2 -13 2 -30 11 -16 9 -30 18
-30 21 0 2 14 -2 30 -11 17 -9 30 -18 30 -21z m1780 31 c0 -2 -10 -9 -22 -15
-22 -11 -22 -10 -4 4 21 17 26 19 26 11z m-1380 -31 c0 -2 -9 0 -20 6 -11 6
-20 13 -20 16 0 2 9 0 20 -6 11 -6 20 -13 20 -16z m482 6 c22 12 38 19 35 14
-3 -5 -21 -18 -41 -28 -35 -19 -37 -19 -72 0 -20 10 -38 23 -41 28 -3 5 13 -2
35 -14 l42 -24 42 24z m818 15 c0 -2 -10 -9 -22 -15 -22 -11 -22 -10 -4 4 21
17 26 19 26 11z m-1200 -10 c0 -2 -10 -9 -22 -15 -22 -11 -22 -10 -4 4 21 17
26 19 26 11z m720 -21 c0 -2 -9 0 -20 6 -11 6 -20 13 -20 16 0 2 9 0 20 -6 11
-6 20 -13 20 -16z m424 -1 c-5 -2 -8 -29 -7 -60 3 -72 -4 -58 -9 18 -4 48 -2
56 11 51 8 -3 11 -7 5 -9z m-1200 -15 c-3 -5 -12 -4 -20 3 -19 16 -18 18 6 12
11 -3 17 -9 14 -15z m1266 18 c0 -2 -12 -11 -27 -20 l-28 -17 24 20 c23 21 31
25 31 17z m-1673 -83 c-3 -10 -5 -4 -5 12 0 17 2 24 5 18 2 -7 2 -21 0 -30z
m1630 -5 c-3 -7 -5 -2 -5 12 0 14 2 19 5 13 2 -7 2 -19 0 -25z m-1630 -60 c-3
-7 -5 -2 -5 12 0 14 2 19 5 13 2 -7 2 -19 0 -25z m1600 -40 c-2 -13 -4 -5 -4
17 -1 22 1 32 4 23 2 -10 2 -28 0 -40z m35 -20 c2 -20 0 -34 -4 -32 -4 3 -8
24 -7 47 1 47 6 41 11 -15z m-1635 20 c-3 -8 -6 -5 -6 6 -1 11 2 17 5 13 3 -3
4 -12 1 -19z m66 -92 c26 -15 47 -29 47 -32 0 -2 -25 10 -55 27 -30 17 -62 29
-70 25 -12 -4 -13 -2 -3 14 9 14 14 16 22 6 6 -7 32 -25 59 -40z m1537 44 c0
-5 -10 -15 -22 -21 l-23 -12 20 21 c23 24 25 25 25 12z m-1120 -56 c0 -2 -18
5 -41 16 -23 12 -48 19 -56 15 -13 -4 -13 -3 -4 9 10 12 18 10 56 -11 25 -14
45 -27 45 -29z m364 25 c39 -23 50 -37 14 -18 -13 7 -34 18 -48 26 -14 7 -20
13 -13 13 6 0 28 -9 47 -21z m846 -5 c0 -2 -9 0 -20 6 -11 6 -20 13 -20 16 0
2 9 0 20 -6 11 -6 20 -13 20 -16z m-910 11 c0 -2 -13 -11 -30 -20 -38 -19 -40
-11 -2 9 31 17 32 18 32 11z m-420 -10 c0 -2 -10 -9 -22 -15 -22 -11 -22 -10
-4 4 21 17 26 19 26 11z m1190 0 c0 -2 -10 -9 -22 -15 -22 -11 -22 -10 -4 4
21 17 26 19 26 11z m90 -21 c0 -2 -9 0 -20 6 -11 6 -20 13 -20 16 0 2 9 0 20
-6 11 -6 20 -13 20 -16z m-1700 11 c0 -2 -10 -9 -22 -15 -22 -11 -22 -10 -4 4
21 17 26 19 26 11z m1385 -35 c-4 -6 -18 -4 -36 5 -16 9 -27 20 -24 25 4 6 18
4 36 -5 16 -9 27 -20 24 -25z m245 25 c0 -2 -10 -9 -22 -15 -22 -11 -22 -10
-4 4 21 17 26 19 26 11z m190 -21 c0 -2 -9 0 -20 6 -11 6 -20 13 -20 16 0 2 9
0 20 -6 11 -6 20 -13 20 -16z m-1230 -10 c0 -2 -9 0 -20 6 -11 6 -20 13 -20
16 0 2 9 0 20 -6 11 -6 20 -13 20 -16z m970 21 c0 -2 -10 -9 -22 -15 -22 -11
-22 -10 -4 4 21 17 26 19 26 11z m-1610 -10 c0 -2 -13 -11 -30 -20 -38 -19
-40 -11 -2 9 31 17 32 18 32 11z m400 0 c0 -2 -13 -11 -30 -20 -38 -19 -40
-11 -2 9 31 17 32 18 32 11z m400 0 c0 -2 -13 -11 -30 -20 -38 -19 -40 -11 -2
9 31 17 32 18 32 11z m1020 -21 c0 -2 -9 0 -20 6 -11 6 -20 13 -20 16 0 2 9 0
20 -6 11 -6 20 -13 20 -16z m-1530 -20 c0 -2 -13 2 -30 11 -16 9 -30 18 -30
21 0 2 14 -2 30 -11 17 -9 30 -18 30 -21z m1200 6 c0 -6 10 -6 26 0 16 7 23 7
19 0 -3 -6 -12 -10 -19 -10 -9 0 -12 -10 -10 -27 2 -18 1 -21 -3 -8 -7 25 -49
65 -59 56 -4 -3 -4 0 0 7 8 13 46 -1 46 -18z m-767 -4 c9 5 9 4 1 -5 -9 -10
-18 -9 -43 3 -17 9 -31 19 -31 22 0 2 14 -3 30 -11 17 -9 36 -13 43 -9z m-401
-8 c-5 -7 -12 -22 -15 -33 -4 -16 -5 -14 -6 7 -1 22 7 33 28 37 2 1 -1 -5 -7
-11z m1215 -30 c-3 -8 -6 -5 -6 6 -1 11 2 17 5 13 3 -3 4 -12 1 -19z"/>
<path d="M705 1167 l-90 -53 0 -114 0 -114 92 -54 92 -54 96 57 95 56 0 109 0
109 -94 55 c-52 31 -96 56 -98 56 -2 0 -43 -24 -93 -53z"/>
<path d="M1188 778 c9 -9 15 -9 24 0 9 9 7 12 -12 12 -19 0 -21 -3 -12 -12z"/>
</g>
</svg>
