<?xml version="1.0" standalone="no"?>
<!DOCTYPE svg PUBLIC "-//W3C//DTD SVG 20010904//EN"
 "http://www.w3.org/TR/2001/REC-SVG-20010904/DTD/svg10.dtd">
<svg version="1.0" xmlns="http://www.w3.org/2000/svg"
 width="200.000000pt" height="200.000000pt" viewBox="0 0 200.000000 200.000000"
 preserveAspectRatio="xMidYMid meet">
<metadata>
Created by potrace 1.16, written by Peter Selinger 2001-2019
</metadata>
<g transform="translate(0.000000,200.000000) scale(0.100000,-0.100000)"
fill="#000000" stroke="none">
<path d="M0 1886 l0 -114 35 -21 c30 -17 35 -26 35 -56 0 -30 -5 -39 -35 -56
l-35 -21 0 -259 0 -258 40 -23 c47 -27 51 -36 44 -91 -5 -37 -12 -46 -45 -65
l-39 -23 0 -262 0 -263 28 -21 c39 -29 40 -67 2 -95 l-30 -22 0 -118 0 -118
34 0 c23 0 36 5 38 15 2 9 30 31 63 50 l61 34 62 -35 c34 -19 62 -42 62 -50 0
-10 14 -14 54 -14 52 0 55 1 58 27 2 22 18 36 84 76 l81 48 82 -48 c71 -41 81
-51 81 -75 0 -21 5 -28 20 -28 20 0 25 13 21 56 -1 21 60 64 93 64 11 0 15 5
10 13 -4 6 -4 9 1 5 4 -4 14 0 21 10 10 12 13 13 14 3 0 -8 11 -2 27 15 17 18
28 24 31 16 2 -7 8 -10 13 -6 5 3 9 0 9 -7 0 -7 3 -9 6 -6 4 4 20 -3 35 -14
16 -11 29 -18 29 -15 0 3 16 -6 36 -19 26 -18 47 -24 70 -21 37 4 42 -1 19
-18 -11 -8 -14 -20 -9 -44 l6 -32 183 0 183 0 7 30 c4 19 2 36 -5 45 -15 18
-172 110 -183 107 -5 -1 -5 3 -1 9 5 9 2 10 -12 6 -15 -6 -14 -3 4 11 21 17
23 26 24 116 l1 98 31 19 c17 11 37 17 44 14 7 -3 10 -1 7 5 -7 11 29 32 39
23 3 -3 6 -1 6 6 0 7 4 10 9 7 5 -3 12 1 15 10 4 9 9 14 12 11 4 -3 13 0 21 8
9 10 14 41 15 103 1 101 -6 134 -28 125 -11 -4 -14 -27 -14 -103 l0 -99 -81
-45 c-45 -25 -86 -46 -93 -46 -6 0 -24 9 -41 21 -16 11 -51 31 -78 45 l-47 24
0 99 0 99 35 22 c32 20 34 23 19 34 -15 11 -15 13 -1 19 9 3 18 0 21 -9 4 -11
10 -12 30 -3 16 7 22 17 19 26 -5 12 -10 11 -24 -8 -15 -20 -17 -21 -15 -5 4
27 33 40 44 20 5 -9 14 -14 21 -10 16 10 14 26 -5 26 -13 0 -13 3 -1 20 21 30
13 230 -11 248 -53 40 -160 91 -180 85 -16 -4 -22 -1 -22 11 0 15 -3 14 -22
-3 -11 -11 -26 -18 -31 -14 -6 4 -7 1 -2 -7 6 -10 4 -12 -8 -7 -11 4 -17 1
-17 -8 0 -9 6 -12 18 -9 14 5 15 4 2 -5 -19 -14 -43 -14 -35 -1 3 6 2 10 -4
10 -5 0 -13 -5 -16 -10 -4 -6 -10 -8 -15 -5 -4 3 -10 -2 -14 -10 -4 -11 1 -15
17 -15 18 0 19 -2 7 -10 -21 -14 -40 -12 -40 3 0 6 -38 35 -85 62 l-85 50 -1
53 c-1 65 -1 106 0 132 1 13 27 35 86 69 l84 50 86 -50 85 -50 0 -109 c0 -104
10 -145 24 -97 4 12 7 69 8 125 1 77 5 105 15 109 7 3 13 9 13 14 0 5 -8 4
-18 -2 -15 -10 -27 -7 -65 16 -26 15 -47 31 -47 37 0 5 -4 7 -9 4 -5 -3 -20 3
-34 14 -14 11 -30 20 -35 20 -6 0 -9 46 -8 114 l1 115 30 14 c17 8 33 14 37
13 4 0 13 7 20 16 7 9 20 18 28 20 8 2 23 11 34 21 11 9 25 17 32 17 19 0 104
-51 104 -63 0 -5 3 -7 7 -4 3 4 20 -2 37 -12 40 -25 42 -25 66 -1 12 12 26 17
37 13 15 -6 15 -7 -3 -13 -10 -4 -22 -6 -26 -3 -5 2 -8 -2 -9 -9 -2 -38 0
-230 3 -233 9 -9 181 -105 188 -105 4 0 13 7 20 15 7 8 16 13 20 10 5 -3 10 0
12 5 2 6 12 12 21 14 10 1 22 8 26 15 5 7 11 12 15 12 25 -4 36 0 30 11 -5 8
-2 9 12 4 10 -4 15 -4 11 0 -4 4 -2 13 3 19 14 17 18 210 5 227 -12 15 -40 34
-71 47 -11 5 -37 20 -57 34 -22 15 -45 23 -57 20 -11 -3 -20 0 -20 6 0 6 7 8
17 4 11 -4 14 -3 9 5 -4 7 -1 15 8 18 12 4 13 11 6 24 -5 9 -6 20 -3 24 3 3
-3 6 -15 6 -18 0 -22 -6 -22 -30 0 -26 -8 -34 -77 -75 -43 -25 -85 -45 -93
-45 -8 0 -50 20 -93 45 -69 41 -77 49 -77 75 0 28 -2 30 -40 30 -33 0 -40 -3
-40 -20 0 -13 -21 -31 -69 -60 -38 -22 -75 -40 -82 -40 -7 0 -43 18 -81 40
-47 28 -68 47 -68 60 0 18 -7 20 -70 20 -53 0 -70 -3 -70 -14 0 -8 -25 -28
-55 -45 l-56 -32 -51 28 c-28 15 -56 36 -62 45 -9 15 -26 18 -103 18 -83 0
-98 -3 -142 -27 l-48 -27 -41 27 c-33 21 -53 27 -97 27 l-55 0 0 -114z m1554
-1 c-10 -7 -27 -10 -38 -8 -17 4 -18 3 -6 -6 8 -6 12 -11 8 -11 -3 0 -13 -3
-22 -6 -24 -9 -20 21 4 32 11 5 32 10 46 10 22 2 23 1 8 -11z m-673 -58 c80
-47 74 -33 71 -169 l-2 -56 -71 -41 c-39 -23 -76 -41 -82 -40 -7 0 -43 19 -82
43 l-70 42 0 89 0 89 70 42 c39 24 75 43 82 43 6 1 44 -18 84 -42z m-418 -37
l47 -30 0 -68 0 -67 -56 -30 -55 -30 -57 32 -57 31 -3 65 -3 65 53 31 c29 17
60 31 68 31 8 0 36 -14 63 -30z m210 -324 l68 -38 -3 -81 -3 -80 -60 -38 c-33
-21 -66 -38 -73 -38 -7 -1 -42 16 -77 37 l-65 37 0 81 0 82 68 40 c37 23 69
40 72 39 3 -1 36 -19 73 -41z m-422 -33 l49 -26 0 -58 0 -57 -51 -31 -50 -32
-55 31 -54 31 0 55 c0 54 0 54 48 84 26 16 51 30 56 30 4 0 30 -12 57 -27z
m554 -223 c-3 -5 0 -7 8 -5 7 3 24 -5 38 -17 14 -13 29 -23 34 -23 6 0 34 -13
63 -28 43 -23 52 -32 53 -55 0 -33 0 -215 0 -221 -1 -2 -7 2 -15 8 -11 9 -22
7 -49 -8 -19 -11 -38 -17 -41 -14 -3 4 -6 2 -6 -4 0 -5 -17 -18 -37 -29 -21
-10 -41 -23 -45 -28 -3 -5 -28 4 -55 21 -26 16 -69 42 -94 56 l-46 26 -1 103
c-1 57 2 110 8 118 5 8 10 11 10 6 0 -6 7 -1 15 10 13 17 14 18 15 1 0 -10 -7
-20 -15 -23 -12 -5 -15 -26 -15 -104 l0 -99 50 -27 c28 -15 50 -32 50 -37 0
-6 3 -7 6 -4 9 9 46 -12 39 -23 -10 -16 40 5 118 49 l77 45 0 98 0 98 -40 20
c-22 11 -40 26 -40 32 0 6 -3 8 -6 5 -4 -4 -24 3 -45 15 -42 24 -46 23 -126
-27 -30 -18 -43 -22 -43 -12 0 7 18 23 40 36 22 12 40 20 40 17 0 -3 9 3 20
14 20 20 46 28 35 10z m345 -14 c0 -2 -7 -7 -16 -10 -8 -3 -12 -2 -9 4 6 10
25 14 25 6z m-676 -73 l66 -38 0 -85 0 -85 -66 -37 c-36 -21 -71 -38 -77 -38
-6 0 -41 18 -78 40 l-67 40 2 79 c0 44 4 83 9 87 13 14 122 73 133 74 7 0 42
-17 78 -37z m595 -292 c-1 -14 -2 -14 -6 1 -2 10 -10 15 -19 11 -14 -5 -19 8
-7 20 10 10 33 -13 32 -32z m33 2 c2 -5 25 -19 52 -32 46 -22 50 -23 75 -8 27
16 67 8 41 -8 -6 -4 -14 -4 -17 -1 -3 3 -17 -1 -32 -8 -28 -13 -61 -11 -61 5
0 6 -5 7 -12 3 -7 -5 -8 -3 -3 6 6 10 4 12 -8 7 -9 -3 -23 0 -31 8 -7 8 -16
12 -18 10 -3 -3 -5 2 -5 10 0 16 13 21 19 8z m-33 -54 l71 -41 1 -54 c0 -30 1
-68 2 -84 1 -27 -6 -35 -67 -70 -38 -22 -72 -40 -77 -40 -11 0 -133 71 -140
83 -4 5 -6 43 -5 85 l1 77 70 42 c39 23 71 43 72 43 1 0 33 -18 72 -41z m-411
-29 l52 -30 0 -68 0 -67 -56 -32 -56 -33 -56 33 -57 33 -3 60 c-1 32 1 64 5
69 10 14 95 64 108 65 6 0 34 -14 63 -30z m-412 -31 c31 -19 34 -25 34 -68 0
-44 -2 -47 -43 -70 l-43 -24 -42 27 c-39 24 -42 29 -42 70 0 39 4 47 33 64 42
26 62 27 103 1z m1036 -267 l83 -48 3 -97 3 -96 -31 -16 c-18 -9 -28 -21 -24
-27 4 -6 3 -8 -3 -5 -6 4 -34 -6 -63 -22 l-52 -29 -82 47 -81 47 -3 96 -3 97
83 49 c46 28 84 51 85 51 1 1 39 -21 85 -47z m-417 -29 l65 -38 0 -80 0 -80
-65 -38 -65 -38 -65 38 -65 38 0 80 0 81 63 36 c34 21 63 37 65 38 2 0 32 -17
67 -37z m-368 -105 c2 -63 -2 -71 -52 -98 l-46 -25 -47 25 -47 25 0 59 0 60
45 27 45 27 50 -29 c47 -26 50 -30 52 -71z m883 -143 c0 -12 -19 -12 -23 0 -4
9 -1 12 9 8 7 -3 14 -7 14 -8z m-68 -40 c-35 -25 -71 -35 -78 -23 -4 7 -3 8 4
4 7 -4 12 -2 12 5 0 7 3 10 6 6 4 -3 12 -1 19 6 6 7 22 13 35 14 23 2 23 2 2
-12z"/>
<path d="M730 1812 l-65 -37 -3 -80 -2 -80 62 -35 c35 -19 68 -36 73 -37 6 -2
39 14 74 35 l65 37 3 77 4 77 -69 40 c-37 23 -70 41 -73 41 -2 0 -33 -17 -69
-38z"/>
<path d="M350 1781 l-45 -27 0 -59 0 -59 46 -27 46 -27 52 30 52 30 -3 55 c-3
55 -3 56 -53 83 l-50 28 -45 -27z"/>
<path d="M537 1453 l-57 -35 0 -72 0 -72 58 -33 57 -33 63 33 63 34 -3 73 -3
73 -60 34 -60 34 -58 -36z"/>
<path d="M148 1419 c-37 -19 -38 -22 -38 -72 0 -51 1 -52 44 -75 l44 -24 41
24 c39 22 41 25 41 75 0 48 -2 52 -36 72 -43 25 -49 25 -96 0z"/>
<path d="M330 1107 l-55 -33 0 -74 0 -74 55 -32 c30 -18 60 -33 67 -34 6 0 36
15 67 33 l56 32 0 75 0 75 -59 33 c-32 17 -62 32 -67 32 -5 0 -34 -15 -64 -33z"/>
<path d="M935 762 l-60 -37 -3 -72 -3 -72 66 -36 65 -37 64 36 65 36 -3 53
c-2 28 -4 62 -5 73 -1 15 -20 33 -62 58 -33 20 -61 36 -62 35 -1 0 -29 -17
-62 -37z"/>
<path d="M543 734 c-43 -25 -43 -26 -43 -82 l0 -57 49 -28 49 -27 49 28 c48
28 48 28 49 85 l2 57 -45 25 c-56 31 -58 31 -110 -1z"/>
<path d="M163 713 c-30 -15 -33 -21 -33 -60 0 -40 3 -45 35 -60 33 -16 38 -16
63 -1 22 13 28 25 30 60 3 45 -1 50 -58 75 -3 1 -20 -6 -37 -14z"/>
<path d="M1118 428 l-68 -40 0 -83 0 -82 71 -42 c40 -22 76 -41 81 -41 5 0 40
19 78 42 l70 41 0 83 0 83 -69 41 c-38 22 -75 40 -83 39 -7 0 -43 -19 -80 -41z"/>
<path d="M738 404 l-58 -36 0 -64 0 -64 58 -32 c31 -18 63 -31 70 -30 8 2 36
17 63 34 l50 30 -2 59 c-1 32 -5 62 -8 67 -5 8 -108 73 -114 72 -1 0 -28 -17
-59 -36z"/>
<path d="M358 378 c-33 -19 -37 -25 -40 -70 -3 -48 -2 -49 39 -74 l43 -25 40
26 c38 24 40 28 40 73 0 51 4 47 -80 89 -3 1 -21 -7 -42 -19z"/>
<path d="M141 1997 c47 -34 56 -36 85 -16 l29 19 -59 0 c-33 0 -57 -1 -55 -3z"/>
<path d="M500 1992 c0 -4 21 -20 47 -36 l48 -29 52 29 c29 16 53 32 53 36 0 4
-45 8 -100 8 -55 0 -100 -3 -100 -8z"/>
<path d="M872 1983 c3 -16 102 -82 125 -83 22 0 133 71 133 85 0 12 -23 15
-131 15 -117 0 -130 -2 -127 -17z"/>
<path d="M1252 1974 c2 -21 18 -34 78 -66 l75 -41 73 43 c58 33 72 46 72 66
l0 24 -151 0 -150 0 3 -26z"/>
<path d="M1632 1968 c3 -29 12 -37 83 -79 l80 -46 65 35 c100 54 120 70 120
98 l0 24 -176 0 -175 0 3 -32z"/>
<path d="M1895 1862 l-79 -48 -3 -103 c-2 -78 1 -109 13 -125 8 -11 17 -20 19
-18 12 6 26 1 20 -8 -3 -5 -3 -10 2 -11 31 -3 48 -10 55 -24 5 -8 13 -13 19
-10 5 4 9 1 9 -5 0 -6 5 -8 10 -5 6 3 10 2 10 -3 0 -5 7 -9 15 -9 13 0 15 30
15 209 0 160 -3 208 -12 208 -7 -1 -49 -22 -93 -48z"/>
<path d="M1165 1870 c-16 -11 -31 -18 -33 -15 -2 2 -12 -4 -21 -13 -10 -9 -32
-25 -49 -34 l-32 -17 0 -95 c0 -83 2 -97 20 -109 11 -8 17 -17 12 -22 -4 -5
-1 -5 5 -1 16 9 56 -17 45 -29 -4 -5 -1 -5 6 -1 7 4 28 -2 47 -14 l35 -21 85
50 c47 27 85 45 85 40 0 -13 -41 -48 -56 -49 -6 0 -11 -7 -11 -14 0 -18 32 -4
45 20 8 15 10 15 15 0 4 -11 0 -19 -11 -23 -9 -3 -30 -15 -46 -26 l-28 -20 7
22 c3 12 2 21 -4 21 -13 0 -43 -31 -36 -38 3 -3 12 3 21 14 15 18 15 17 1 -6
-8 -14 -22 -24 -31 -24 -9 1 -13 -2 -10 -7 3 -5 2 -9 -3 -9 -4 0 -6 -46 -3
-102 l5 -102 80 -48 c44 -26 87 -47 95 -47 8 0 51 22 95 47 l80 47 0 104 0
103 -85 49 c-47 26 -92 47 -100 46 -11 -2 -15 19 -16 112 -2 62 -5 119 -8 126
-4 10 -159 107 -168 104 -2 0 -16 -9 -33 -19z"/>
<path d="M0 1695 c0 -59 1 -60 31 -45 26 15 26 75 0 90 -30 15 -31 14 -31 -45z"/>
<path d="M1785 1547 c-16 -5 -42 -18 -56 -28 -14 -10 -29 -16 -32 -13 -2 3
-17 -6 -32 -20 -16 -15 -34 -26 -42 -26 -11 0 -13 -22 -11 -112 2 -84 6 -112
16 -111 6 2 12 -2 12 -9 0 -6 3 -8 7 -5 3 4 12 -1 20 -11 8 -9 12 -11 8 -5 -4
9 -1 11 9 7 9 -3 13 -10 10 -15 -3 -5 2 -6 10 -3 9 3 19 -3 26 -16 6 -11 16
-20 23 -19 23 3 38 -1 33 -9 -10 -17 45 -4 60 14 8 10 12 13 9 6 -6 -11 -3
-12 14 -3 11 7 21 16 21 22 0 6 5 7 10 4 6 -3 10 -1 10 5 0 6 5 8 10 5 6 -3
13 1 16 10 4 9 13 14 21 11 8 -3 12 -2 9 3 -3 5 0 14 8 20 24 20 10 231 -14
216 -5 -3 -21 6 -36 20 -14 13 -31 22 -37 18 -6 -3 -7 -1 -3 5 6 11 -6 16 -26
13 -5 0 -8 4 -8 11 0 6 -3 8 -7 5 -3 -4 -11 -1 -17 7 -8 11 -18 11 -41 3z"/>
<path d="M918 1478 l-68 -40 0 -91 1 -92 72 -42 72 -41 65 35 c97 52 93 45 91
165 l-1 66 -71 41 c-39 23 -76 41 -82 40 -7 0 -42 -19 -79 -41z"/>
<path d="M1556 1222 c-4 -7 -4 -12 1 -12 4 0 -17 -16 -47 -35 -30 -19 -61 -33
-68 -30 -7 3 -11 1 -8 -4 3 -5 -1 -14 -9 -21 -12 -10 -15 -36 -12 -136 2 -84
0 -124 -7 -125 -6 0 -2 -4 9 -8 11 -5 25 -4 32 1 7 5 14 5 18 -2 3 -5 1 -10
-5 -10 -6 0 -8 -5 -5 -10 5 -8 11 -8 19 -1 8 7 21 4 41 -9 17 -11 25 -20 20
-20 -6 0 -21 7 -33 16 -12 8 -22 11 -22 7 0 -5 23 -21 51 -37 28 -15 48 -22
44 -17 -4 7 3 10 17 9 31 -2 197 98 208 125 8 21 9 21 10 2 l1 -20 9 20 c8 18
9 17 9 -7 1 -23 12 -34 70 -68 39 -22 77 -43 85 -46 14 -5 16 18 16 204 0 130
-4 213 -10 217 -5 3 -10 1 -10 -6 0 -7 -3 -9 -7 -6 -3 4 -12 -1 -20 -11 -10
-11 -12 -12 -8 -2 5 12 4 12 -7 -1 -7 -9 -18 -14 -24 -12 -6 2 -23 -9 -39 -24
-16 -15 -25 -21 -20 -13 8 13 7 13 -8 1 -9 -7 -17 -22 -17 -33 0 -10 -6 -21
-13 -24 -19 -7 -17 -114 2 -114 11 0 9 -4 -4 -14 -11 -8 -23 -12 -28 -9 -11 6
-4 103 8 103 5 0 4 5 -3 12 -7 7 -12 22 -12 35 0 13 -5 23 -11 23 -5 0 -7 5
-4 10 6 9 -8 14 -20 8 -2 -2 -11 6 -19 17 -9 11 -16 16 -16 12 0 -5 -7 -1 -16
7 -8 9 -20 14 -25 11 -5 -4 -9 -2 -9 4 0 6 -10 15 -21 22 -17 9 -20 8 -14 -3
3 -7 0 -5 -9 6 -8 10 -22 16 -30 13 -8 -3 -16 -1 -19 6 -2 8 -5 8 -11 -1z
m271 -229 c-3 -10 -5 -4 -5 12 0 17 2 24 5 18 2 -7 2 -21 0 -30z"/>
<path d="M1500 1190 c-9 -6 -10 -10 -3 -10 6 0 15 5 18 10 8 12 4 12 -15 0z"/>
<path d="M0 1000 l0 -82 33 19 c28 17 32 24 32 63 0 39 -4 46 -32 63 l-33 19
0 -82z"/>
<path d="M1713 799 l-83 -50 0 -99 0 -98 86 -50 c86 -49 87 -49 118 -33 17 9
33 19 36 22 3 4 27 19 55 33 l50 27 1 99 0 100 -88 50 c-48 27 -89 50 -90 49
-2 0 -40 -23 -85 -50z"/>
<path d="M1326 784 l-76 -44 0 -88 0 -87 76 -43 76 -43 74 42 c73 42 74 43 75
83 0 23 1 60 2 84 3 50 -3 56 -90 105 l-62 35 -75 -44z"/>
<path d="M1614 528 c-11 -18 11 -29 31 -15 17 13 17 14 -4 20 -11 3 -24 1 -27
-5z"/>
<path d="M1973 509 c-6 -6 -17 -11 -25 -12 -7 -2 -27 -12 -43 -23 -17 -12 -40
-25 -52 -28 -13 -4 -23 -12 -23 -17 0 -6 -4 -7 -10 -4 -13 8 -13 -205 0 -225
5 -8 10 -11 10 -7 0 5 7 1 16 -7 8 -9 19 -14 24 -11 5 3 10 1 12 -4 5 -14 100
-71 109 -65 11 7 12 414 1 414 -4 0 -13 -5 -19 -11z"/>
<path d="M1650 500 c0 -5 7 -10 15 -10 8 0 15 -5 15 -11 0 -5 3 -8 8 -5 4 2
26 -9 49 -24 50 -34 67 -24 20 11 -18 13 -33 22 -35 21 -1 -1 -15 4 -32 13
-34 18 -40 18 -40 5z"/>
<path d="M1513 453 l-83 -47 0 -100 0 -101 84 -47 c46 -27 86 -48 89 -48 10 0
162 93 169 103 3 6 5 51 5 101 l-2 90 -80 48 c-44 26 -84 47 -90 47 -5 1 -47
-20 -92 -46z"/>
<path d="M0 305 c0 -25 4 -45 8 -45 31 0 45 73 16 84 -24 9 -24 9 -24 -39z"/>
<path d="M1711 135 c-90 -54 -88 -51 -96 -97 l-7 -38 186 0 186 0 1 28 1 27 8
-30 8 -30 1 28 c1 26 -31 71 -43 59 -3 -3 -6 0 -6 7 0 7 -4 10 -8 7 -5 -3 -19
4 -30 15 -12 11 -22 16 -22 12 0 -4 -7 2 -16 13 -8 10 -12 12 -8 4 7 -13 5
-13 -12 0 -19 15 -62 40 -66 39 -2 0 -36 -20 -77 -44z"/>
<path d="M981 156 c-19 -22 -111 -67 -123 -60 -7 5 -8 3 -3 -6 6 -10 4 -12 -9
-7 -9 4 -14 3 -11 -2 3 -5 1 -12 -5 -16 -5 -3 -10 -19 -10 -36 l0 -29 180 0
180 0 0 26 c0 26 -33 66 -61 72 -7 2 -39 18 -70 37 -45 26 -60 31 -68 21z"/>
<path d="M518 79 c-47 -27 -68 -46 -68 -60 0 -18 8 -19 145 -19 144 0 145 0
145 23 0 17 -16 31 -65 60 -35 20 -70 37 -77 37 -7 0 -43 -18 -80 -41z"/>
<path d="M143 49 c-29 -17 -53 -35 -53 -40 0 -5 47 -9 105 -9 58 0 105 4 105
9 0 7 -93 72 -103 71 -1 0 -26 -14 -54 -31z"/>
</g>
</svg>
