<?xml version="1.0" standalone="no"?>
<!DOCTYPE svg PUBLIC "-//W3C//DTD SVG 20010904//EN"
 "http://www.w3.org/TR/2001/REC-SVG-20010904/DTD/svg10.dtd">
<svg version="1.0" xmlns="http://www.w3.org/2000/svg"
 width="200.000000pt" height="200.000000pt" viewBox="0 0 200.000000 200.000000"
 preserveAspectRatio="xMidYMid meet">
<metadata>
Created by potrace 1.16, written by Peter Selinger 2001-2019
</metadata>
<g transform="translate(0.000000,200.000000) scale(0.100000,-0.100000)"
fill="#000000" stroke="none">
<path d="M0 1895 l0 -104 40 -23 c38 -22 40 -25 40 -74 0 -48 -2 -51 -40 -73
l-40 -22 0 -238 0 -237 50 -29 c50 -30 54 -38 53 -100 -1 -58 -4 -62 -53 -89
l-50 -27 0 -247 0 -247 35 -19 c31 -17 35 -23 35 -61 0 -38 -4 -44 -35 -61
l-35 -19 0 -112 0 -113 29 0 c23 0 30 5 33 22 2 16 23 33 71 60 l68 37 70 -43
c39 -24 70 -47 70 -50 -3 -23 3 -27 37 -24 20 2 37 8 37 15 0 23 16 27 22 5 5
-22 8 -22 177 -22 116 0 166 3 156 10 -13 8 -13 11 -1 19 8 5 11 16 8 24 -6
16 13 36 49 56 18 8 25 7 35 -7 12 -15 12 -16 -2 -5 -13 11 -18 9 -28 -13 -9
-21 -14 -24 -26 -14 -13 11 -15 6 -15 -29 l0 -41 190 0 c169 0 190 2 199 17
10 17 10 17 11 1 0 -17 26 -18 405 -18 l405 0 -2 29 c-1 17 -7 27 -14 24 -6
-2 -14 6 -17 18 -4 15 -11 20 -22 15 -9 -3 -13 -2 -10 4 3 5 -3 14 -14 19 -26
14 -34 14 -25 -1 4 -7 3 -8 -5 -4 -6 4 -9 11 -6 16 7 12 -53 45 -82 46 -36 2
-177 -87 -181 -114 -3 -22 -4 -22 -33 7 -26 27 -197 131 -213 131 -4 0 -4 -4
-1 -10 4 -6 -1 -7 -11 -3 -11 4 -15 2 -11 -4 4 -6 -1 -10 -11 -9 -9 0 -16 -4
-15 -11 2 -8 -4 -10 -14 -6 -12 5 -14 3 -8 -7 5 -8 4 -11 -2 -7 -15 9 -91 -35
-86 -49 5 -14 -38 -27 -50 -15 -10 10 2 41 15 41 5 0 28 13 51 28 63 42 78 50
125 72 52 24 47 23 64 7 7 -7 50 -34 96 -60 l83 -48 82 47 c45 26 85 51 88 57
4 5 7 50 8 100 1 49 4 94 8 100 3 6 1 7 -5 3 -7 -4 -12 -3 -12 3 0 6 -10 15
-21 22 -17 9 -20 8 -14 -2 5 -8 4 -10 -3 -5 -18 11 -14 24 9 37 14 7 19 7 15
0 -4 -6 3 -13 16 -16 17 -4 50 9 121 51 l98 57 -2 89 -2 88 -90 55 -91 54 -55
-30 c-31 -17 -76 -44 -100 -61 -40 -27 -47 -28 -75 -17 -17 7 -42 22 -55 33
-13 12 -21 15 -16 8 6 -11 3 -12 -14 -3 -11 7 -21 16 -21 22 0 12 -47 31 -82
33 -14 0 -25 -1 -22 -3 5 -5 -57 -51 -70 -51 -5 0 -18 -8 -28 -17 -10 -9 -28
-18 -38 -20 -27 -4 -26 24 0 32 11 4 17 11 14 17 -4 7 -2 8 4 4 14 -8 55 18
45 28 -4 4 1 4 11 0 13 -5 17 -4 12 4 -5 8 -1 10 10 5 12 -4 15 -3 10 6 -4 6
-4 11 1 10 20 -3 34 2 28 11 -3 5 5 15 19 21 20 9 29 9 41 -1 8 -7 12 -17 8
-23 -4 -6 0 -8 11 -4 10 4 15 3 11 -3 -6 -9 8 -14 28 -11 5 1 6 -3 3 -8 -7
-11 22 -23 36 -14 7 3 8 1 4 -5 -9 -15 48 -44 71 -35 29 11 180 101 196 117 9
9 13 26 10 43 -3 20 -2 24 5 14 6 -8 9 -25 7 -38 -2 -20 10 -31 82 -73 46 -28
88 -50 93 -50 6 0 10 77 10 198 l0 199 -25 23 c-19 18 -22 26 -13 37 6 8 17
12 23 9 9 -3 13 19 14 80 2 78 0 87 -21 104 -13 11 -19 19 -14 20 5 0 3 7 -4
15 -10 12 -16 13 -28 3 -11 -9 -13 -9 -9 -1 4 6 0 19 -9 28 -13 12 -19 13 -30
4 -12 -9 -13 -9 -8 4 3 9 -2 19 -13 25 -21 12 -94 12 -87 0 3 -4 -1 -6 -8 -3
-16 6 -143 -66 -143 -82 0 -6 -3 -15 -7 -19 -11 -11 -10 -148 1 -177 8 -20 6
-29 -8 -41 -35 -32 -58 -3 -37 45 4 9 6 53 4 99 l-3 83 -45 33 c-25 18 -49 33
-55 34 -5 0 -21 9 -35 20 -34 27 -55 25 -110 -9 -27 -16 -69 -39 -94 -51 l-46
-20 0 -90 c0 -76 2 -90 16 -90 11 0 15 -6 11 -20 -5 -20 24 -46 37 -33 3 3 6
1 6 -7 0 -10 4 -10 18 1 14 11 13 10 -2 -9 -20 -23 -32 -30 -21 -12 3 6 -3 10
-14 10 -12 0 -21 5 -21 11 0 7 -10 9 -25 7 -14 -3 -28 -1 -32 5 -4 6 -1 7 7 2
9 -5 11 -4 6 3 -5 9 -13 9 -27 2 -20 -11 -26 -30 -8 -30 5 0 7 5 3 12 -5 7 -3
8 5 3 9 -5 10 -10 2 -18 -8 -8 -14 -8 -23 1 -15 15 -52 -4 -44 -23 3 -9 -1
-12 -15 -10 -11 2 -27 1 -36 -2 -14 -6 -14 -8 3 -20 10 -7 14 -13 8 -13 -5 0
-17 7 -27 14 -21 16 -20 17 86 76 67 39 77 47 77 72 0 15 -4 28 -10 28 -14 0
-13 97 1 102 7 2 7 12 -2 31 -12 27 -29 37 -29 17 0 -5 -4 -10 -10 -10 -5 0
-10 9 -10 20 0 24 8 25 37 5 20 -14 25 -12 70 18 26 17 70 43 96 57 l48 25 -2
119 c-1 115 -1 119 25 142 14 14 28 23 30 22 3 -2 14 5 25 14 11 9 22 14 25
11 3 -4 6 -1 6 6 0 7 4 10 9 7 5 -4 11 -1 13 4 2 6 12 12 21 14 23 3 37 24 37
54 0 22 -1 22 -160 22 l-160 0 0 -24 c0 -14 5 -28 10 -31 13 -8 13 -25 -1 -25
-5 0 -8 4 -4 9 3 5 1 12 -5 16 -5 3 -10 17 -10 31 0 21 -5 24 -35 24 -31 0
-35 -3 -35 -25 0 -15 -7 -28 -17 -32 -10 -4 -37 -20 -60 -36 -24 -15 -47 -26
-52 -22 -6 3 -14 -2 -19 -11 -8 -14 -13 -14 -33 -4 -13 7 -26 16 -29 19 -3 3
-27 18 -55 33 -37 20 -51 33 -53 52 -3 24 -7 26 -58 26 -40 0 -54 -4 -54 -15
0 -14 -110 -85 -132 -85 -22 0 -121 64 -125 81 -5 17 -16 19 -94 19 -49 0 -89
-3 -89 -7 0 -5 -22 -20 -48 -35 l-49 -27 -52 34 c-40 27 -63 35 -97 35 l-44 0
0 -105z m1220 31 c0 -3 -4 -8 -10 -11 -5 -3 -10 -1 -10 4 0 6 5 11 10 11 6 0
10 -2 10 -4z m140 -46 c12 -9 11 -10 -6 -8 -12 2 -32 -6 -45 -17 -19 -16 -21
-16 -10 -2 13 16 12 18 -12 13 -21 -4 -25 -1 -20 12 6 14 4 15 -8 5 -12 -10
-15 -8 -16 10 -1 12 1 17 5 12 7 -10 14 -12 56 -21 18 -3 18 -3 0 18 l-19 21
30 -16 c17 -9 37 -21 45 -27z m-200 9 c0 -11 -4 -18 -10 -14 -5 3 -7 12 -3 20
7 21 13 19 13 -6z m65 1 c3 -6 -1 -7 -9 -4 -18 7 -21 14 -7 14 6 0 13 -4 16
-10z m-420 -11 c-6 -9 24 -21 35 -14 5 3 14 -4 20 -15 6 -11 16 -20 23 -18 22
4 57 -13 57 -27 0 -8 6 -12 14 -9 11 4 14 -15 15 -103 1 -76 -2 -103 -9 -93
-8 13 -11 12 -16 -6 -6 -23 -50 -49 -59 -35 -2 5 2 14 10 21 12 10 15 10 16
-1 0 -11 2 -10 6 1 4 8 12 20 20 25 9 7 14 35 15 87 1 74 0 78 -30 106 -17 16
-33 27 -36 25 -3 -3 -23 5 -45 18 -33 18 -45 20 -64 12 -19 -9 -24 -8 -24 3 0
7 4 11 8 9 4 -3 9 1 12 8 3 8 12 14 21 14 8 0 13 -4 11 -8z m314 -22 c9 4 13
3 10 -1 -13 -14 -46 -14 -46 0 0 9 4 11 10 5 5 -5 17 -7 26 -4z m232 -1 c5 3
9 0 9 -6 0 -15 -23 -7 -26 8 -1 7 0 8 3 2 2 -5 9 -8 14 -4z m-619 -21 c0 -5
-13 -17 -31 -27 -17 -10 -31 -13 -31 -7 0 6 -5 7 -12 3 -7 -4 -8 -3 -4 4 4 6
14 8 24 5 9 -3 14 -3 10 2 -4 4 0 14 10 21 19 15 33 14 34 -1z m-263 -30 l61
-36 0 -73 c0 -81 2 -79 -78 -122 l-54 -28 -64 34 -65 35 3 79 3 80 55 32 c30
18 60 33 67 34 7 0 39 -16 72 -35z m567 15 c-1 -22 -21 -28 -21 -7 -1 9 12 26
21 27 1 0 1 -9 0 -20z m-384 -34 c7 5 8 2 2 -7 -5 -8 -7 -22 -6 -31 2 -10 -1
-18 -6 -18 -5 0 -9 17 -9 38 -1 20 1 31 4 24 2 -6 10 -9 15 -6z m365 -78 c-3
-7 -5 -2 -5 12 0 14 2 19 5 13 2 -7 2 -19 0 -25z m-367 -18 c0 -16 -5 -30 -10
-30 -6 0 -9 14 -8 30 1 17 6 30 10 30 4 0 8 -13 8 -30z m367 -62 c-3 -7 -5 -2
-5 12 0 14 2 19 5 13 2 -7 2 -19 0 -25z m-372 12 c-6 -10 41 -60 56 -60 5 0 9
-8 8 -17 0 -11 -3 -13 -6 -5 -2 6 -10 9 -15 6 -7 -5 -8 -2 -4 5 6 8 2 11 -10
9 -12 -2 -18 2 -16 11 2 8 -3 11 -11 8 -10 -4 -14 3 -14 24 0 16 4 29 9 29 5
0 6 -4 3 -10z m157 -110 c9 0 19 -4 23 -9 5 -9 -14 -7 -50 3 -28 8 -50 22 -52
33 -2 8 9 5 30 -7 17 -11 40 -20 49 -20z m244 31 c-9 -14 20 -21 35 -8 11 10
11 9 1 -4 -13 -17 -7 -29 16 -29 9 0 12 6 7 18 -5 13 -4 14 6 5 10 -10 9 -15
-1 -27 -7 -9 -10 -22 -7 -30 5 -13 2 -13 -18 -4 -28 13 -34 30 -7 22 14 -5 14
-3 -2 10 -22 18 -41 21 -31 6 4 -6 -2 -7 -16 -1 -13 4 -25 13 -27 19 -2 8 3
10 14 5 11 -4 15 -3 11 4 -4 6 -1 14 5 16 19 8 20 8 14 -2z m-171 -10 c8 -14
-10 -22 -30 -15 -13 5 -14 8 -3 15 17 11 26 11 33 0z m102 -5 c-16 -12 -16
-15 -3 -18 12 -2 10 -6 -7 -14 -19 -8 -23 -7 -24 7 -1 9 8 21 20 27 30 15 35
14 14 -2z m-355 -38 c2 -6 11 -12 19 -13 21 -4 89 -46 89 -56 0 -14 -9 -11
-71 27 l-59 36 -67 -39 c-56 -32 -67 -43 -68 -65 0 -47 -20 -51 -23 -5 l-2 42
72 42 c76 43 104 51 110 31z m298 -17 c0 -4 -11 -13 -25 -19 -20 -9 -23 -9
-18 3 3 8 10 12 16 8 6 -4 8 0 4 10 -4 11 -2 14 9 10 7 -3 14 -8 14 -12z
m-664 -42 l55 -31 -3 -71 -3 -71 -45 -27 c-25 -15 -52 -28 -60 -28 -8 -1 -39
13 -67 29 l-53 30 0 68 0 67 53 32 c28 17 55 32 60 32 4 1 32 -13 63 -30z
m583 7 c11 -14 6 -15 -27 -7 -4 1 8 21 12 21 2 0 9 -6 15 -14z m-91 -105 c1
-91 -11 -123 -39 -105 -7 4 -9 3 -6 -4 4 -6 -17 -23 -48 -41 -59 -34 -70 -37
-59 -19 4 6 3 8 -4 4 -6 -3 -27 5 -48 19 -20 14 -43 25 -50 25 -8 0 -14 4 -14
9 0 5 -9 11 -20 14 -16 4 -20 14 -20 46 0 23 4 41 9 41 13 0 20 -25 15 -54 -3
-19 0 -26 11 -26 8 0 37 -13 63 -30 27 -16 55 -30 62 -30 7 0 39 16 71 36 l59
35 0 78 c0 66 4 91 15 91 1 0 3 -40 3 -89z m92 54 c0 -18 -17 -28 -25 -15 -3
5 0 10 7 11 10 0 10 2 1 6 -7 2 -13 9 -13 14 0 4 7 6 15 3 8 -4 15 -12 15 -19z
m0 -85 c0 -21 -15 -27 -25 -10 -7 12 2 30 16 30 5 0 9 -9 9 -20z m30 -112 c28
-16 50 -23 50 -18 0 6 5 10 11 10 6 0 9 -7 5 -15 -3 -9 3 -19 16 -26 17 -9 23
-9 26 0 3 8 9 5 19 -8 11 -16 14 -53 14 -151 0 -71 -3 -134 -6 -140 -4 -6 -13
-7 -22 -2 -12 7 -15 33 -15 146 0 126 -1 137 -20 147 -14 7 -23 7 -33 -1 -10
-8 -15 -8 -21 1 -4 7 -3 9 4 5 6 -3 13 -2 16 3 9 14 -20 21 -35 8 -11 -10 -11
-9 -1 4 10 14 9 18 -4 23 -9 3 -24 1 -33 -6 -15 -12 -15 -11 -1 6 14 18 13 19
-3 13 -11 -4 -16 -3 -12 3 3 6 0 13 -8 16 -10 3 -13 13 -9 27 6 21 7 21 10 2
2 -12 23 -31 52 -47z m0 19 c0 -4 -9 -3 -20 3 -11 6 -20 15 -20 20 0 6 9 5 20
-2 11 -7 20 -16 20 -21z m684 -16 c17 -19 17 -19 -7 -17 -17 2 -24 -1 -20 -9
8 -22 -14 -25 -32 -5 -10 11 -14 21 -9 21 5 1 14 2 19 4 6 1 16 3 23 3 7 1 10
7 7 12 -10 17 1 11 19 -9z m-797 -6 c0 -8 -4 -12 -9 -9 -5 3 -6 10 -3 15 9 13
12 11 12 -6z m888 5 c4 -6 1 -9 -7 -8 -7 2 -12 -3 -10 -10 1 -8 -2 -11 -8 -7
-8 5 -7 11 1 21 14 17 16 17 24 4z m250 -9 c-3 -5 -1 -12 5 -16 5 -3 10 -2 10
3 0 5 6 9 13 9 6 0 21 4 32 9 17 7 18 6 5 -8 -8 -9 -18 -14 -22 -11 -5 2 -8
-1 -8 -6 0 -6 -4 -10 -9 -8 -15 4 -72 -44 -65 -55 4 -7 3 -8 -4 -4 -7 4 -12 2
-12 -4 0 -6 -5 -8 -10 -5 -6 4 -10 3 -9 -2 5 -29 -2 -33 -31 -18 -21 11 -28
20 -23 33 14 39 31 47 61 29 7 -5 12 -4 12 2 0 6 3 10 8 10 28 -5 34 1 21 19
-13 16 -13 16 5 2 18 -14 19 -13 14 2 -4 9 -4 19 -1 22 10 9 15 7 8 -3z m-562
-29 c-6 -15 -5 -16 13 -2 17 14 18 14 6 -1 -10 -14 -10 -18 2 -22 7 -3 18 -1
23 4 14 14 63 -7 63 -26 0 -9 -6 -18 -14 -21 -8 -3 -12 -13 -10 -22 5 -15 4
-15 -6 1 -15 23 -28 21 -33 -5 -3 -16 -4 -14 -4 7 1 35 -10 58 -24 50 -5 -4
-9 -1 -9 5 0 6 -5 8 -12 4 -7 -5 -8 -3 -3 6 6 10 4 12 -9 7 -10 -4 -15 -3 -11
3 6 10 -9 15 -30 10 -5 -1 -6 2 -2 6 12 12 37 14 37 3 0 -6 5 -7 10 -4 6 4 7
11 4 17 -4 7 -2 8 4 4 6 -4 8 -14 5 -24z m352 8 c-16 -18 -13 -22 13 -19 4 1
6 5 5 10 -4 12 20 7 29 -6 4 -5 2 -15 -4 -22 -8 -9 -7 -13 2 -13 8 0 11 -3 7
-6 -3 -3 -11 -3 -17 1 -8 5 -8 11 1 21 7 9 8 14 1 14 -6 0 -14 -4 -17 -10 -4
-6 -17 -4 -36 5 -29 16 -40 29 -16 19 8 -3 20 2 27 11 7 8 15 15 18 15 3 0 -3
-9 -13 -20z m-1265 -8 c8 -2 19 -10 23 -18 5 -8 12 -12 18 -9 5 4 9 1 9 -5 0
-6 5 -8 10 -5 6 3 10 1 10 -5 0 -6 4 -9 8 -6 5 3 20 -3 34 -12 25 -16 26 -21
25 -112 l0 -95 -51 -32 c-51 -33 -76 -41 -76 -24 0 12 29 23 41 15 5 -3 9 1 9
8 0 7 14 21 30 30 25 14 30 24 31 55 1 21 1 41 1 44 -1 3 -2 26 -3 52 -2 25
-6 44 -10 41 -5 -3 -38 13 -74 35 -65 40 -66 40 -85 21 -25 -25 -98 -62 -109
-56 -4 3 -7 -5 -6 -19 2 -16 -1 -22 -10 -19 -28 11 -6 49 34 57 16 3 37 14 46
24 26 26 69 51 75 44 3 -3 12 -7 20 -9z m544 10 c3 -5 -1 -9 -9 -9 -8 0 -12 4
-9 9 3 4 7 8 9 8 2 0 6 -4 9 -8z m510 -29 c-25 -18 -33 -16 -31 6 1 12 6 17
16 13 10 -4 12 -1 6 9 -7 12 -6 12 9 0 17 -14 17 -15 0 -28z m-808 -5 c5 -7 3
-8 -6 -3 -10 6 -12 4 -6 -11 5 -14 4 -16 -5 -7 -6 6 -8 16 -5 22 9 14 13 14
22 -1z m44 6 c0 -8 -19 -13 -24 -6 -3 5 1 9 9 9 8 0 15 -2 15 -3z m-74 -36 c5
4 6 3 1 -2 -10 -13 -47 -18 -47 -8 0 16 13 22 25 12 7 -5 16 -6 21 -2z m-21
-68 c-3 -5 -11 -10 -16 -10 -6 0 -7 5 -4 10 3 6 11 10 16 10 6 0 7 -4 4 -10z
m1202 -10 c-5 -31 -17 -36 -17 -7 0 15 4 27 10 27 5 0 9 -9 7 -20z m-1561 -58
c-2 -45 2 -61 17 -77 11 -11 16 -13 12 -5 -8 13 -7 13 8 1 10 -7 32 -21 50
-31 17 -10 33 -26 35 -36 3 -18 2 -18 -12 -1 -8 10 -22 20 -31 21 -9 1 -20 7
-23 13 -4 5 -19 13 -34 17 -16 3 -28 13 -28 21 0 8 -3 15 -7 15 -5 0 -9 29 -9
64 -1 49 1 63 11 60 9 -4 12 -23 11 -62z m1164 39 c0 -11 -4 -23 -10 -26 -6
-4 -10 5 -10 19 0 14 5 26 10 26 6 0 10 -9 10 -19z m-808 -3 c-8 -8 -9 -15 -1
-25 9 -10 8 -13 -5 -13 -19 0 -22 36 -3 43 20 9 22 8 9 -5z m1165 -30 c-3 -7
-5 -2 -5 12 0 14 2 19 5 13 2 -7 2 -19 0 -25z m-400 -20 c-3 -7 -5 -2 -5 12 0
14 2 19 5 13 2 -7 2 -19 0 -25z m43 -27 c0 -10 -6 -21 -13 -24 -10 -4 -13 2
-9 19 5 28 22 32 22 5z m-805 -2 c11 -17 -1 -21 -15 -4 -8 9 -8 15 -2 15 6 0
14 -5 17 -11z m1162 -21 c-3 -8 -6 -5 -6 6 -1 11 2 17 5 13 3 -3 4 -12 1 -19z
m-400 -10 c-3 -8 -6 -5 -6 6 -1 11 2 17 5 13 3 -3 4 -12 1 -19z m-765 -22 c7
4 8 2 4 -5 -10 -15 -26 -4 -25 17 1 15 2 15 6 -1 2 -9 9 -14 15 -11z m-192
-50 c0 -8 -7 -16 -15 -20 -16 -6 -16 14 0 26 14 10 15 10 15 -6z m330 -11 c0
-1 -6 -7 -13 -13 -10 -8 -13 -6 -13 7 0 11 6 17 13 14 7 -3 13 -6 13 -8z m340
11 c0 -2 -8 -10 -17 -17 -16 -13 -17 -12 -4 4 13 16 21 21 21 13z m-219 -23
c13 -16 12 -17 -3 -4 -10 7 -18 15 -18 17 0 8 8 3 21 -13z m195 -18 c61 -37
80 -43 68 -22 -4 6 -3 8 1 4 13 -11 15 -31 18 -129 l2 -86 -68 -41 c-38 -23
-73 -39 -78 -36 -5 4 -9 2 -9 -4 0 -10 -110 49 -141 76 -13 11 -16 32 -15 100
l1 86 33 18 c17 10 32 15 32 11 0 -4 5 1 11 11 6 9 14 15 20 12 5 -4 9 -2 9 3
0 8 35 30 51 31 4 1 33 -15 65 -34z m-233 10 c-3 -9 -8 -14 -10 -11 -3 3 -2 9
2 15 9 16 15 13 8 -4z m-119 -75 c11 -11 9 -140 -3 -154 -5 -6 -33 -24 -63
-40 l-53 -28 -62 36 -63 37 0 72 0 73 63 36 62 36 55 -30 c30 -17 59 -34 64
-38z m-468 4 c43 -26 44 -27 44 -80 0 -52 -1 -55 -41 -80 -45 -28 -64 -27
-116 6 -31 18 -33 23 -33 75 l0 55 48 24 c26 14 48 25 50 26 2 0 23 -12 48
-26z m1356 -18 c7 4 8 2 4 -5 -4 -6 -11 -9 -16 -6 -13 8 -24 -39 -18 -73 3
-15 2 -38 -2 -52 -5 -16 -8 9 -9 68 -1 85 0 92 15 78 8 -9 20 -13 26 -10z
m-362 -78 c0 -21 -3 -29 -10 -22 -5 5 -7 19 -4 32 9 31 14 27 14 -10z m378
-24 c-1 -33 -4 -49 -8 -38 -7 18 -2 94 6 94 2 0 3 -25 2 -56z m-381 -36 c-2
-7 3 -18 10 -23 12 -9 10 -11 -6 -11 -20 0 -29 25 -14 39 10 11 15 8 10 -5z
m409 -52 c26 -16 53 -29 60 -29 8 0 14 -4 14 -9 0 -5 5 -6 10 -3 18 11 11 -1
-12 -21 -12 -10 -18 -14 -15 -7 5 7 -2 14 -15 19 -13 4 -23 5 -24 3 0 -2 -8 4
-18 14 -10 9 -22 14 -28 11 -6 -4 -8 -2 -5 3 4 6 -2 13 -12 16 -12 3 -18 12
-16 28 3 32 6 37 11 19 3 -8 25 -28 50 -44z m-104 12 c-7 -7 -12 -20 -12 -29
0 -10 -4 -20 -9 -24 -13 -7 -9 48 4 57 16 12 30 9 17 -4z m18 -18 c0 -5 -4
-10 -10 -10 -5 0 -10 5 -10 10 0 6 5 10 10 10 6 0 10 -4 10 -10z m-75 -10 c-3
-5 -1 -10 4 -10 6 0 11 -5 11 -12 0 -6 -3 -8 -7 -5 -3 4 -12 2 -18 -3 -7 -6
-20 -7 -29 -4 -14 6 -13 9 11 25 34 21 36 22 28 9z m-300 -9 c-3 -5 9 -9 27
-8 20 1 33 -3 33 -10 0 -6 3 -15 8 -19 4 -4 7 -2 7 4 0 7 7 9 17 5 15 -6 15
-7 -2 -13 -11 -4 -31 0 -47 9 -23 14 -31 14 -49 3 -17 -11 -20 -11 -13 0 5 7
9 16 10 21 3 15 4 17 10 17 3 0 3 -4 -1 -9z m175 -10 c0 -6 -5 -13 -12 -17 -7
-5 -8 -3 -3 6 6 10 4 12 -8 7 -10 -3 -17 -2 -17 3 0 6 9 10 20 10 11 0 20 -4
20 -9z m181 -14 c-10 -9 -11 -8 -5 6 3 10 9 15 12 12 3 -3 0 -11 -7 -18z
m-101 -22 c19 12 19 -14 0 -38 -11 -14 -20 -33 -21 -44 0 -16 -1 -16 -8 2 -5
11 -4 22 0 23 5 2 7 8 3 13 -3 5 -2 8 3 7 4 -2 8 2 8 7 0 6 -4 10 -10 10 -5 1
-18 6 -29 11 -14 9 -16 13 -5 19 7 5 14 4 17 -3 6 -19 22 -14 16 6 -5 16 -5
16 6 -1 6 -9 15 -15 20 -12z m-559 -25 l66 -39 2 -85 c2 -74 -1 -86 -17 -95
-11 -6 -22 -7 -26 -4 -3 3 -6 2 -6 -4 0 -6 -20 -23 -45 -38 -52 -30 -61 -29
-145 21 l-58 34 1 85 2 85 65 40 c36 21 71 39 79 40 8 0 45 -18 82 -40z m233
4 c-38 -23 -54 -23 -54 -1 0 7 4 6 10 -3 9 -13 14 -8 12 11 -1 4 8 4 20 1 16
-4 20 -2 15 10 -4 12 -1 14 15 10 18 -4 16 -8 -18 -28z m213 0 c-4 10 -3 15 3
11 6 -3 10 -13 10 -21 0 -8 5 -14 12 -14 6 0 9 -3 6 -6 -8 -7 -64 22 -74 38
-5 7 5 5 20 -6 26 -16 28 -17 23 -2z m-869 -35 l53 -30 -3 -65 -3 -66 -55 -30
-55 -31 -52 32 -53 33 0 66 0 67 48 26 c26 15 52 27 57 28 6 0 34 -13 63 -30z
m592 27 c0 -2 -8 -10 -17 -17 -16 -13 -17 -12 -4 4 13 16 21 21 21 13z m-16
-75 c-4 -17 -9 -30 -11 -27 -3 2 -2 19 2 36 4 17 9 30 11 27 2 -2 1 -18 -2
-36z m342 -47 c1 -41 -2 -77 -7 -80 -5 -3 -9 34 -9 82 0 48 3 84 8 80 4 -4 8
-41 8 -82z m-336 -114 c4 0 6 10 2 22 -5 21 -5 21 14 2 16 -16 17 -20 5 -25
-12 -5 -12 -7 2 -12 9 -3 24 -4 32 -1 10 4 15 0 15 -12 0 -16 2 -17 11 -4 9
13 10 13 6 -2 -6 -18 15 -31 29 -18 5 5 16 3 25 -3 14 -10 11 -14 -18 -28 -25
-13 -31 -13 -22 -3 14 17 -2 19 -19 2 -9 -9 -13 -7 -18 5 -3 9 -11 14 -18 10
-7 -4 -7 -2 1 8 11 13 6 19 -26 37 -22 12 -46 20 -54 16 -8 -3 -18 -1 -21 4
-3 5 2 9 12 8 14 -1 18 10 22 59 l4 60 4 -62 c1 -35 7 -63 12 -63z m-59 -17
c13 -16 12 -17 -3 -4 -10 7 -18 15 -18 17 0 8 8 3 21 -13z m-20 -10 c13 -17
13 -17 -5 -3 -18 14 -19 13 -14 -2 6 -15 3 -16 -32 -8 -4 0 30 30 36 30 1 0 8
-8 15 -17z m-367 -4 c-4 -7 0 -9 13 -5 10 3 27 0 37 -7 17 -12 17 -14 2 -20
-11 -4 -16 -1 -16 11 0 10 -3 13 -8 7 -9 -12 -44 -16 -36 -4 3 5 -1 9 -8 9 -9
0 -9 3 2 10 20 13 23 12 14 -1z m107 -54 c5 4 6 -1 3 -9 -3 -8 -12 -12 -19
-10 -8 3 -11 13 -8 22 4 10 8 12 11 4 2 -7 8 -10 13 -7z m-161 1 c0 -2 -7 -7
-16 -10 -8 -3 -12 -2 -9 4 6 10 25 14 25 6z m-44 -21 c-2 -5 -9 -9 -15 -7 -6
1 -11 -4 -11 -10 0 -9 -3 -8 -9 2 -6 8 -8 17 -5 21 7 12 45 6 40 -6z m248 -10
c5 0 10 -8 12 -17 2 -16 0 -16 -22 -1 -13 8 -24 20 -24 25 0 5 6 6 13 1 6 -4
16 -8 21 -8z m-300 -3 c3 -5 -1 -9 -9 -9 -8 0 -12 4 -9 9 3 4 7 8 9 8 2 0 6
-4 9 -8z m776 -16 c0 -3 -4 -8 -10 -11 -5 -3 -10 -1 -10 4 0 6 5 11 10 11 6 0
10 -2 10 -4z"/>
<path d="M342 1789 l-53 -30 3 -66 3 -67 50 -29 50 -30 55 30 55 30 3 65 3 66
-54 31 c-30 17 -56 31 -58 31 -2 0 -28 -14 -57 -31z"/>
<path d="M147 1432 l-48 -27 3 -60 3 -60 47 -25 46 -24 48 26 c48 26 48 26 47
77 -1 28 -1 55 -2 60 -1 7 -87 62 -95 61 0 0 -23 -13 -49 -28z"/>
<path d="M928 766 c-32 -18 -61 -35 -64 -39 -11 -10 -4 -152 7 -155 5 -2 7 -8
4 -13 -4 -5 1 -6 9 -3 8 3 23 -3 34 -14 11 -11 22 -18 25 -16 2 2 10 -2 17
-11 16 -19 44 -19 75 1 13 9 30 12 36 8 8 -4 9 -3 5 4 -4 6 6 18 24 27 16 8
30 22 30 31 0 8 5 12 10 9 6 -3 10 -1 10 4 0 6 -5 11 -11 11 -6 0 -10 15 -8
33 6 85 3 90 -60 125 -32 17 -65 32 -72 32 -8 0 -40 -15 -71 -34z"/>
<path d="M537 743 l-48 -27 3 -64 3 -65 52 -29 53 -30 52 30 53 31 0 62 0 63
-45 27 c-56 34 -64 35 -123 2z"/>
<path d="M153 718 c-30 -18 -33 -25 -33 -66 0 -44 3 -48 39 -68 l38 -21 36 21
c34 20 37 24 37 69 0 43 -3 49 -32 67 -40 24 -44 24 -85 -2z"/>
<path d="M731 412 l-61 -36 0 -71 0 -70 65 -38 65 -38 64 37 c70 41 76 54 68
144 -3 31 -10 44 -26 50 -29 12 -77 46 -72 51 2 2 -6 5 -19 5 -12 1 -50 -14
-84 -34z"/>
<path d="M346 382 c-37 -25 -40 -31 -40 -77 -1 -47 1 -50 43 -79 l45 -30 45
26 c45 25 46 26 49 81 l3 56 -44 25 c-24 14 -48 26 -53 26 -5 -1 -27 -13 -48
-28z"/>
<path d="M1106 125 c4 -8 10 -12 15 -9 11 6 2 24 -11 24 -5 0 -7 -7 -4 -15z"/>
<path d="M155 1976 l39 -24 38 19 c21 11 38 22 38 24 0 3 -35 5 -77 5 l-78 0
40 -24z"/>
<path d="M492 1988 c3 -7 27 -26 54 -42 l49 -29 55 31 c83 46 77 52 -50 52
-84 0 -111 -3 -108 -12z"/>
<path d="M858 1975 c-3 -13 -2 -22 3 -20 10 7 119 -57 113 -66 -6 -11 38 2 63
19 12 7 28 10 34 6 8 -5 9 -3 4 6 -6 10 -4 12 9 7 10 -4 15 -3 11 3 -7 11 31
33 44 26 4 -3 6 6 3 19 l-4 25 -138 0 -138 0 -4 -25z"/>
<path d="M1568 1974 c-4 -29 -2 -31 14 -20 14 8 22 8 36 -1 48 -33 173 -103
184 -103 7 0 49 22 93 48 65 39 81 53 83 75 l3 27 -195 0 c-180 0 -196 -1
-197 -17 0 -15 -2 -15 -8 2 -7 17 -9 16 -13 -11z"/>
<path d="M1567 1915 c-9 -7 -13 -16 -9 -20 4 -5 1 -5 -5 -1 -16 9 -74 -24 -66
-37 3 -6 1 -7 -5 -3 -15 9 -54 -12 -47 -24 4 -6 -1 -7 -11 -3 -11 4 -15 3 -11
-5 4 -6 0 -12 -9 -14 -13 -2 -16 -21 -17 -110 -1 -58 1 -104 5 -102 4 3 31
-11 60 -29 105 -67 157 -90 173 -77 8 7 12 16 9 21 -3 5 1 6 9 4 19 -8 103 42
127 75 17 23 20 44 20 122 l0 94 -103 60 c-86 51 -107 59 -120 49z"/>
<path d="M1910 1863 c-102 -57 -100 -53 -100 -155 0 -81 2 -92 23 -110 12 -11
16 -16 8 -12 -10 5 -12 3 -7 -5 5 -7 15 -10 23 -6 13 4 13 3 4 -9 -9 -10 -8
-15 3 -19 7 -3 18 -1 24 5 14 14 33 1 26 -17 -4 -8 1 -18 10 -21 9 -3 14 -9
11 -13 -6 -10 27 -7 44 4 10 6 12 4 6 -5 -5 -9 -4 -11 3 -6 18 11 17 406 0
406 -7 0 -42 -17 -78 -37z"/>
<path d="M0 1695 l0 -77 33 19 c27 16 32 25 32 58 0 33 -5 42 -32 58 l-33 19
0 -77z"/>
<path d="M1890 1539 c0 -5 5 -7 10 -4 6 3 10 8 10 11 0 2 -4 4 -10 4 -5 0 -10
-5 -10 -11z"/>
<path d="M0 1000 l0 -101 42 23 c42 23 43 24 43 77 0 52 -1 53 -42 78 l-43 25
0 -102z"/>
<path d="M1950 519 c0 -5 -6 -7 -12 -3 -10 6 -10 4 0 -8 10 -13 10 -17 -3 -22
-9 -3 -13 -2 -10 3 3 5 1 12 -5 16 -5 3 -10 1 -10 -4 0 -35 -27 -53 -55 -38
-18 9 -19 9 -6 -7 12 -14 12 -16 -4 -10 -14 6 -16 4 -10 -7 7 -12 6 -12 -7 -1
-14 11 -16 2 -17 -92 -1 -57 1 -115 4 -128 7 -24 160 -122 176 -112 5 3 9 97
9 209 0 176 -2 204 -16 209 -23 9 -34 7 -34 -5z m-80 -335 c0 -2 -9 0 -20 6
-11 6 -20 13 -20 16 0 2 9 0 20 -6 11 -6 20 -13 20 -16z"/>
<path d="M1880 481 c0 -7 -5 -9 -12 -5 -7 5 -8 3 -3 -5 5 -9 10 -10 18 -2 6 6
8 14 4 18 -4 3 -7 1 -7 -6z"/>
<path d="M0 305 l0 -65 25 16 c18 12 25 25 25 49 0 24 -7 37 -25 49 l-25 16 0
-65z"/>
<path d="M811 91 c-8 -5 -9 -11 -3 -15 5 -3 12 1 16 9 6 17 6 18 -13 6z"/>
<path d="M133 59 c-85 -49 -73 -59 67 -59 74 0 120 4 120 10 0 12 -104 80
-122 80 -7 0 -37 -14 -65 -31z"/>
</g>
</svg>
