<?xml version="1.0" standalone="no"?>
<!DOCTYPE svg PUBLIC "-//W3C//DTD SVG 20010904//EN"
 "http://www.w3.org/TR/2001/REC-SVG-20010904/DTD/svg10.dtd">
<svg version="1.0" xmlns="http://www.w3.org/2000/svg"
 width="200.000000pt" height="200.000000pt" viewBox="0 0 200.000000 200.000000"
 preserveAspectRatio="xMidYMid meet">
<metadata>
Created by potrace 1.16, written by Peter Selinger 2001-2019
</metadata>
<g transform="translate(0.000000,200.000000) scale(0.100000,-0.100000)"
fill="#000000" stroke="none">
<path d="M0 1862 c0 -103 3 -142 13 -145 10 -4 10 -6 0 -6 -7 -1 -13 -7 -13
-15 0 -8 6 -17 13 -19 10 -4 10 -6 0 -6 -10 -1 -13 -71 -13 -315 0 -266 2
-315 15 -326 19 -16 19 -44 0 -60 -13 -11 -15 -59 -15 -321 0 -227 3 -315 12
-329 10 -15 10 -22 0 -32 -8 -8 -12 -54 -12 -150 l0 -137 127 0 127 0 -29 19
c-26 17 -30 17 -52 3 -13 -9 -26 -13 -29 -10 -3 3 7 12 23 21 27 14 32 13 72
-10 37 -21 56 -24 137 -24 76 0 94 3 94 15 0 8 28 31 63 51 l62 36 62 -33 c40
-22 63 -40 63 -51 0 -15 9 -18 54 -18 52 0 55 1 58 27 2 23 17 36 85 75 l82
47 81 -46 c44 -25 81 -49 81 -54 1 -5 3 -13 4 -19 1 -5 3 -14 4 -20 0 -5 8
-10 16 -10 10 0 15 10 15 34 0 33 4 37 96 90 52 31 99 56 104 56 5 0 48 -23
96 -51 l88 -51 36 21 c19 12 70 40 112 64 l78 42 0 102 c0 116 -8 105 123 177
l67 38 0 116 0 117 -100 58 -100 58 -94 -56 c-52 -30 -99 -55 -104 -55 -12 0
-181 96 -202 115 -13 12 -28 7 -100 -35 -47 -27 -91 -50 -99 -50 -7 0 -53 23
-102 51 l-89 51 0 108 0 108 90 51 c49 28 96 51 102 51 7 0 51 -22 97 -49 56
-33 88 -46 95 -39 6 5 57 36 114 69 l102 60 -1 62 c-1 34 -1 82 0 107 l1 45
95 53 c52 30 95 58 95 63 0 14 -1 13 -101 -46 -51 -30 -95 -55 -98 -55 -4 1
-46 25 -96 54 l-90 52 -2 107 -2 107 95 56 95 56 94 -55 c52 -31 97 -52 100
-47 3 4 50 34 105 66 95 55 100 60 100 91 0 23 -5 33 -15 33 -10 0 -15 -10
-15 -29 0 -25 -9 -34 -80 -75 -44 -25 -83 -46 -87 -46 -4 0 -44 21 -90 48 -72
41 -83 51 -83 75 0 25 -3 27 -40 27 -33 0 -40 -4 -40 -19 0 -13 -23 -32 -69
-60 -38 -22 -74 -41 -79 -41 -6 0 -40 17 -76 38 -50 28 -66 42 -66 60 0 21 -4
22 -69 22 -49 0 -70 -4 -74 -14 -3 -7 -31 -28 -61 -46 l-56 -31 -56 31 c-30
18 -58 39 -61 46 -4 11 -28 14 -99 14 -83 0 -99 -3 -134 -25 -22 -14 -44 -25
-50 -25 -17 0 -73 31 -67 37 3 3 19 -3 35 -12 27 -16 31 -16 60 -1 18 9 32 19
32 21 0 3 -383 1 -465 -3 -5 0 -52 2 -102 5 l-93 4 0 -139z m1285 -36 l70 -42
0 -89 0 -88 -70 -43 c-38 -24 -75 -44 -82 -44 -6 0 -43 18 -81 40 -78 45 -80
50 -78 164 l1 59 70 43 c39 23 77 42 85 42 8 0 47 -18 85 -42z m-426 -31 l61
-36 0 -64 0 -64 -60 -36 -60 -36 -57 34 -58 33 0 69 0 69 55 32 c30 18 56 33
57 34 1 0 29 -16 62 -35z m-425 -36 c32 -19 36 -25 36 -64 0 -39 -4 -45 -36
-64 -32 -19 -38 -20 -63 -7 -40 21 -50 37 -47 75 2 26 11 40 36 58 19 13 35
23 37 23 1 0 18 -9 37 -21z m1056 -265 l80 -46 0 -101 0 -102 -86 -48 -85 -48
-82 49 -82 48 -3 101 -3 101 78 45 c43 25 84 45 91 46 7 1 49 -20 92 -45z
m-421 -25 l71 -41 0 -82 0 -82 -72 -38 -73 -38 -67 38 -68 39 0 82 0 82 68 40
c37 22 68 40 69 41 1 0 33 -18 72 -41z m-371 -121 l3 -63 -53 -29 -53 -28 -50
29 c-50 29 -50 30 -53 85 -3 60 0 65 67 104 l36 21 50 -28 50 -28 3 -63z
m-467 55 c24 -14 29 -24 29 -55 0 -32 -5 -41 -32 -58 -32 -19 -33 -19 -63 0
-23 15 -31 27 -33 57 -2 32 1 40 25 55 36 21 40 21 74 1z m644 -277 l70 -42 0
-84 0 -84 -72 -43 -73 -43 -72 43 -73 43 0 84 0 83 70 43 c39 24 72 43 75 43
3 0 37 -19 75 -43z m-385 -126 l0 -57 -48 -26 -47 -26 -48 30 c-46 28 -47 30
-47 79 0 49 1 51 47 79 l48 30 47 -26 48 -26 0 -57z m1478 -347 l3 -99 -85
-48 -85 -47 -83 48 -83 49 -3 95 -3 96 87 50 87 50 81 -47 81 -48 3 -99z
m-428 -2 l0 -86 -70 -38 -70 -38 -68 38 -67 39 -3 86 -3 86 72 40 71 39 69
-40 69 -40 0 -86z m-480 100 l45 -27 3 -70 3 -69 -56 -33 -55 -33 -57 34 -58
34 0 64 0 64 50 32 c27 18 57 33 65 32 8 0 35 -13 60 -28z m-420 -26 c38 -24
40 -28 40 -75 0 -50 -1 -51 -44 -72 l-45 -21 -40 26 c-38 25 -41 31 -41 72 0
41 3 46 43 69 23 14 43 26 45 26 1 0 20 -11 42 -25z m-412 -31 c33 -23 30 -69
-7 -88 -27 -14 -31 -14 -55 5 -32 25 -34 61 -3 82 28 20 38 20 65 1z m1465
-250 l77 -45 0 -93 0 -94 -78 -46 c-43 -25 -85 -46 -93 -45 -8 0 -45 19 -84
43 l-70 42 0 99 0 99 70 42 c39 24 77 43 85 43 8 0 50 -20 93 -45z m-430 -20
c34 -20 65 -41 69 -48 4 -6 7 -42 6 -79 l-2 -68 -68 -40 -68 -40 -65 38 -65
38 0 80 0 80 63 37 c34 20 63 37 65 38 2 0 31 -16 65 -36z m-403 -39 c41 -26
41 -26 38 -82 -3 -56 -3 -57 -51 -85 l-49 -29 -46 29 c-46 28 -47 30 -50 85
l-3 56 48 31 c53 33 53 33 113 -5z m-405 -79 c0 -30 -5 -41 -26 -53 -23 -14
-31 -14 -58 -3 -28 11 -31 17 -31 54 0 34 5 44 28 57 25 15 29 15 57 0 25 -14
30 -23 30 -55z"/>
<path d="M1128 1818 l-68 -40 0 -83 0 -82 70 -41 70 -41 70 41 70 40 0 83 0
83 -71 41 c-39 23 -71 41 -72 40 -1 -1 -32 -19 -69 -41z"/>
<path d="M742 1783 l-43 -26 3 -64 3 -64 47 -27 46 -26 49 26 48 27 3 64 3 65
-47 26 c-57 32 -58 32 -112 -1z"/>
<path d="M360 1745 c-22 -11 -25 -19 -22 -52 3 -30 10 -42 32 -55 26 -15 30
-15 59 3 25 15 31 25 31 53 0 25 -7 39 -22 50 -27 19 -45 20 -78 1z"/>
<path d="M1318 1482 l-78 -47 0 -87 0 -88 33 -20 c17 -11 55 -32 82 -46 l50
-27 75 45 75 44 3 91 3 91 -78 44 c-43 23 -80 44 -83 44 -3 1 -40 -19 -82 -44z"/>
<path d="M928 1453 l-58 -35 0 -72 0 -71 66 -37 65 -37 62 37 62 37 1 73 2 72
-62 35 c-35 19 -67 35 -72 34 -5 0 -35 -17 -66 -36z"/>
<path d="M548 1426 c-37 -20 -38 -23 -38 -77 0 -56 0 -57 43 -82 l42 -25 48
25 c47 26 47 26 47 79 0 52 -1 54 -43 79 -51 29 -51 29 -99 1z"/>
<path d="M168 1394 c-22 -11 -28 -22 -28 -48 0 -28 5 -36 31 -46 24 -10 35
-10 55 0 34 19 34 71 -1 94 -29 19 -23 19 -57 0z"/>
<path d="M733 1114 l-63 -35 0 -79 0 -79 65 -36 65 -37 65 37 65 36 0 79 0 79
-63 36 c-35 19 -66 35 -68 35 -2 0 -32 -16 -66 -36z"/>
<path d="M352 1069 c-31 -20 -33 -25 -30 -71 3 -46 6 -52 40 -71 l37 -22 38
22 c35 20 38 26 41 71 3 47 1 50 -33 71 -45 26 -52 26 -93 0z"/>
<path d="M1723 786 l-73 -41 0 -91 0 -91 71 -42 c40 -22 77 -41 83 -41 6 0 43
20 81 43 l70 42 1 88 1 87 -78 45 c-43 25 -79 45 -81 44 -2 -1 -36 -20 -75
-43z"/>
<path d="M1332 764 l-63 -36 3 -76 3 -76 55 -32 c30 -18 62 -33 70 -33 8 0 40
15 70 33 l55 32 3 76 3 76 -65 36 c-35 20 -66 36 -68 36 -1 -1 -31 -17 -66
-36z"/>
<path d="M947 742 l-48 -27 3 -63 3 -63 47 -27 46 -26 49 26 48 27 3 63 2 63
-50 28 c-27 15 -51 27 -53 27 -1 0 -24 -13 -50 -28z"/>
<path d="M559 715 c-33 -18 -41 -38 -33 -80 4 -24 14 -36 41 -49 33 -16 36
-16 69 5 30 18 34 26 34 63 0 35 -4 44 -29 59 -35 20 -48 21 -82 2z"/>
<path d="M168 686 c-25 -19 -22 -51 6 -69 21 -14 26 -14 45 -1 26 19 27 60 2
74 -25 13 -32 12 -53 -4z"/>
<path d="M1525 436 l-70 -42 -3 -86 c-3 -96 -8 -88 88 -141 l65 -35 72 41 73
42 0 90 0 90 -75 43 c-41 23 -76 42 -77 41 -2 0 -34 -20 -73 -43z"/>
<path d="M1133 407 l-53 -32 0 -71 0 -70 63 -33 62 -33 58 33 57 33 0 71 0 71
-56 32 c-31 18 -61 32 -67 31 -7 0 -36 -15 -64 -32z"/>
<path d="M748 377 c-36 -21 -38 -25 -38 -72 0 -48 2 -51 40 -72 49 -29 52 -29
100 2 37 24 40 28 40 73 0 44 -2 48 -40 70 -48 27 -55 27 -102 -1z"/>
<path d="M368 349 c-12 -6 -18 -22 -18 -45 0 -27 5 -37 25 -46 37 -17 75 6 75
45 0 46 -42 70 -82 46z"/>
<path d="M900 1991 c0 -5 22 -23 49 -39 l48 -30 52 29 c28 16 51 34 51 39 0 6
-41 10 -100 10 -55 0 -100 -4 -100 -9z"/>
<path d="M1270 1983 c0 -12 24 -32 65 -55 l65 -37 65 37 c41 23 65 43 65 55 0
15 -13 17 -130 17 -117 0 -130 -2 -130 -17z"/>
<path d="M1650 1975 c0 -20 14 -32 76 -69 l77 -44 78 46 c62 36 79 51 79 69 0
23 0 23 -155 23 l-155 0 0 -25z"/>
<path d="M1898 1857 l-88 -51 0 -111 0 -111 89 -52 c49 -29 92 -52 95 -52 3 0
6 97 6 215 0 118 -3 215 -7 215 -5 -1 -47 -24 -95 -53z"/>
<path d="M1513 1842 l-83 -47 0 -101 0 -100 85 -48 c47 -26 88 -46 93 -44 57
24 162 93 163 106 1 21 1 151 0 173 -1 14 -150 110 -170 109 -3 0 -43 -22 -88
-48z"/>
<path d="M1791 1694 c0 -11 3 -14 6 -6 3 7 2 16 -1 19 -3 4 -6 -2 -5 -13z"/>
<path d="M1705 1501 l-80 -48 -3 -104 -3 -104 91 -53 90 -53 88 49 87 49 3
109 2 109 -84 48 c-46 26 -90 47 -97 47 -8 -1 -50 -22 -94 -49z"/>
<path d="M1496 1167 l-89 -52 -1 -113 -2 -114 92 -54 c51 -30 98 -54 106 -54
7 0 52 23 101 51 l87 51 0 118 0 118 -87 51 c-49 28 -95 51 -103 51 -8 -1 -55
-24 -104 -53z"/>
<path d="M1898 1168 l-88 -51 0 -104 c0 -57 4 -113 10 -123 8 -16 157 -110
173 -110 4 0 7 99 7 220 0 121 -3 220 -7 220 -5 0 -47 -24 -95 -52z"/>
<path d="M1115 1151 l-80 -48 0 -103 0 -103 83 -49 82 -49 83 48 82 49 3 104
2 105 -81 45 c-44 25 -84 46 -87 47 -4 1 -43 -19 -87 -46z"/>
<path d="M0 1000 c0 -18 4 -29 10 -25 13 8 13 42 0 50 -6 4 -10 -7 -10 -25z"/>
<path d="M1908 453 l-78 -46 0 -103 0 -103 77 -43 c43 -24 81 -44 85 -46 5 -2
8 84 8 192 0 108 -3 196 -7 195 -5 0 -43 -21 -85 -46z"/>
<path d="M1 304 c0 -11 3 -14 6 -6 3 7 2 16 -1 19 -3 4 -6 -2 -5 -13z"/>
<path d="M1695 125 c-85 -49 -90 -55 -93 -89 l-3 -36 195 0 196 0 0 39 c0 38
-1 39 -90 90 -49 28 -96 51 -102 50 -7 0 -53 -24 -103 -54z"/>
<path d="M1303 112 c-77 -44 -83 -49 -83 -79 l0 -33 180 0 180 0 0 33 c0 30
-6 35 -84 80 -46 26 -90 47 -97 47 -8 0 -51 -22 -96 -48z"/>
<path d="M923 89 c-59 -33 -73 -45 -73 -65 l0 -24 150 0 c150 0 150 0 150 23
0 18 -16 32 -74 65 -40 23 -75 42 -77 42 -2 0 -37 -19 -76 -41z"/>
<path d="M543 56 c-81 -47 -72 -56 57 -56 66 0 110 4 110 10 0 5 -17 20 -37
33 -74 47 -74 46 -130 13z"/>
</g>
</svg>
