<?xml version="1.0" standalone="no"?>
<!DOCTYPE svg PUBLIC "-//W3C//DTD SVG 20010904//EN"
 "http://www.w3.org/TR/2001/REC-SVG-20010904/DTD/svg10.dtd">
<svg version="1.0" xmlns="http://www.w3.org/2000/svg"
 width="200.000000pt" height="200.000000pt" viewBox="0 0 200.000000 200.000000"
 preserveAspectRatio="xMidYMid meet">
<metadata>
Created by potrace 1.16, written by Peter Selinger 2001-2019
</metadata>
<g transform="translate(0.000000,200.000000) scale(0.100000,-0.100000)"
fill="#000000" stroke="none">
<path d="M0 1967 c0 -18 6 -39 13 -46 10 -11 10 -13 0 -7 -10 6 -13 -41 -13
-219 0 -178 3 -225 13 -219 10 6 10 4 0 -7 -9 -9 -13 -49 -13 -124 l0 -112 50
-27 c28 -15 50 -30 50 -32 0 -3 -21 6 -46 20 -26 14 -48 26 -50 26 -2 0 -4
-99 -4 -221 0 -206 1 -221 18 -215 16 6 16 5 0 -8 -15 -11 -18 -30 -18 -123 0
-73 4 -113 13 -122 9 -11 9 -13 0 -7 -10 6 -13 -41 -13 -219 0 -178 3 -225 12
-219 11 6 11 4 0 -7 -6 -7 -12 -28 -12 -46 l0 -33 194 0 c146 0 196 3 199 13
4 9 6 9 6 0 1 -10 128 -13 601 -13 l600 0 0 34 c0 23 -7 39 -22 50 l-23 17 22
-11 c17 -8 31 -7 55 5 29 14 31 14 14 0 -11 -8 -23 -15 -28 -15 -4 0 -8 -18
-8 -40 l0 -40 196 0 195 0 -3 36 c-3 34 -8 39 -98 91 -94 54 -95 55 -127 39
-41 -20 -44 -12 -3 9 l30 16 0 114 0 114 -30 16 c-41 21 -38 29 4 9 l33 -16
97 56 96 57 0 111 c0 94 -3 113 -18 124 -16 13 -16 14 1 8 16 -6 17 9 17 216
0 207 -1 222 -17 216 -17 -6 -17 -5 0 8 15 12 17 28 15 126 l-3 112 -95 55
c-94 54 -95 55 -127 39 -41 -20 -44 -12 -3 9 30 16 30 16 32 113 l2 97 5 -99
6 -100 45 -26 c25 -14 66 -38 93 -53 l47 -28 0 226 c0 178 -3 225 -12 219 -10
-6 -10 -4 0 7 6 7 12 28 12 46 l0 33 -799 0 c-630 0 -800 -3 -804 -12 -4 -10
-6 -10 -6 0 -1 9 -47 12 -196 12 l-195 0 0 -33z m411 -44 c9 -11 10 -14 2 -10
-7 5 -27 1 -45 -8 -27 -13 -29 -13 -13 -1 11 8 25 20 30 25 6 6 11 10 11 11 1
0 8 -8 15 -17z m415 -9 c18 -14 18 -15 -3 -4 -18 8 -30 7 -53 -5 -38 -19 -40
-11 -2 9 34 19 34 19 58 0z m400 0 c18 -14 18 -15 -3 -4 -17 8 -29 8 -45 0
-22 -11 -22 -10 -4 4 11 9 23 16 26 16 3 0 15 -7 26 -16z m404 1 c17 -9 30
-18 30 -21 0 -2 -14 2 -30 11 -23 12 -35 13 -53 5 -21 -11 -21 -10 -3 4 24 19
21 19 56 1z m-1560 -31 c0 -2 -9 0 -20 6 -11 6 -20 13 -20 16 0 2 9 0 20 -6
11 -6 20 -13 20 -16z m420 -10 c0 -2 -13 2 -30 11 -16 9 -30 18 -30 21 0 2 14
-2 30 -11 17 -9 30 -18 30 -21z m1480 31 c0 -2 -13 -11 -30 -20 -38 -19 -40
-11 -2 9 31 17 32 18 32 11z m-1080 -31 c0 -2 -9 0 -20 6 -11 6 -20 13 -20 16
0 2 9 0 20 -6 11 -6 20 -13 20 -16z m260 21 c0 -2 -13 -11 -30 -20 -38 -19
-40 -11 -2 9 31 17 32 18 32 11z m160 -31 c0 -2 -13 2 -30 11 -16 9 -30 18
-30 21 0 2 14 -2 30 -11 17 -9 30 -18 30 -21z m240 31 c0 -2 -10 -9 -22 -15
-22 -11 -22 -10 -4 4 21 17 26 19 26 11z m-1220 -10 c0 -2 -13 -11 -30 -20
-38 -19 -40 -11 -2 9 31 17 32 18 32 11z m400 0 c0 -2 -13 -11 -30 -20 -38
-19 -40 -11 -2 9 31 17 32 18 32 11z m1000 -31 c0 -2 -13 2 -30 11 -16 9 -30
18 -30 21 0 2 14 -2 30 -11 17 -9 30 -18 30 -21z m-1590 -10 c0 -2 -9 0 -20 6
-11 6 -20 13 -20 16 0 2 9 0 20 -6 11 -6 20 -13 20 -16z m420 -10 c0 -2 -13 2
-30 11 -16 9 -30 18 -30 21 0 2 14 -2 30 -11 17 -9 30 -18 30 -21z m940 31 c0
-2 -13 -11 -30 -20 -38 -19 -40 -11 -2 9 31 17 32 18 32 11z m400 1 c0 -2 -20
-16 -45 -30 -25 -15 -45 -35 -46 -44 0 -14 -2 -14 -8 2 -6 16 1 24 43 47 56
31 56 31 56 25z m-940 -32 c0 -2 -9 0 -20 6 -11 6 -20 13 -20 16 0 2 9 0 20
-6 11 -6 20 -13 20 -16z m120 21 c0 -2 -13 -11 -30 -20 -38 -19 -40 -11 -2 9
31 17 32 18 32 11z m300 -31 c0 -2 -13 2 -30 11 -16 9 -30 18 -30 21 0 2 14
-2 30 -11 17 -9 30 -18 30 -21z m-1120 22 c0 -2 -15 -13 -33 -24 -33 -19 -34
-19 -58 0 l-24 19 26 -12 c21 -9 32 -8 55 5 32 17 34 18 34 12z m400 -1 c0 -2
-10 -9 -22 -15 -22 -11 -22 -10 -4 4 21 17 26 19 26 11z m1120 -21 c0 -2 -9 0
-20 6 -11 6 -20 13 -20 16 0 2 9 0 20 -6 11 -6 20 -13 20 -16z m-1179 -12 c-7
-2 -18 1 -23 6 -8 8 -4 9 13 5 13 -4 18 -8 10 -11z m400 0 c-7 -2 -18 1 -23 6
-8 8 -4 9 13 5 13 -4 18 -8 10 -11z m419 3 c-7 -8 -17 -12 -23 -8 -6 4 -3 9 9
14 27 11 28 11 14 -6z m-1223 -107 c-2 -18 -4 -6 -4 27 0 33 2 48 4 33 2 -15
2 -42 0 -60z m400 40 c-3 -7 -5 -2 -5 12 0 14 2 19 5 13 2 -7 2 -19 0 -25z
m-400 -125 c-3 -10 -5 -4 -5 12 0 17 2 24 5 18 2 -7 2 -21 0 -30z m113 -110
c0 -2 -25 10 -57 28 l-56 32 -51 -28 c-60 -33 -57 -26 5 14 l44 27 57 -34 c32
-19 58 -36 58 -39z m350 31 c0 -3 -14 3 -31 11 -17 9 -38 14 -46 10 -13 -4
-14 -3 -4 9 11 13 17 12 47 -6 19 -11 34 -22 34 -24z m759 32 c10 -12 8 -13
-8 -9 -12 3 -18 9 -15 14 7 12 10 11 23 -5z m-379 -16 c22 -11 40 -23 40 -25
0 -5 -79 32 -89 41 -11 10 14 2 49 -16z m-60 5 c0 -2 -13 -11 -30 -20 -38 -19
-40 -11 -2 9 31 17 32 18 32 11z m400 0 c0 -2 -13 -11 -30 -20 -38 -19 -40
-11 -2 9 31 17 32 18 32 11z m-820 -10 c0 -2 -10 -9 -22 -15 -22 -11 -22 -10
-4 4 21 17 26 19 26 11z m920 -21 c0 -2 -9 0 -20 6 -11 6 -20 13 -20 16 0 2 9
0 20 -6 11 -6 20 -13 20 -16z m-750 -30 c0 -2 -13 2 -30 11 -16 9 -30 18 -30
21 0 2 14 -2 30 -11 17 -9 30 -18 30 -21z m1000 31 c0 -2 -10 -9 -22 -15 -22
-11 -22 -10 -4 4 21 17 26 19 26 11z m-820 -10 c0 -2 -13 -11 -30 -20 -38 -19
-40 -11 -2 9 31 17 32 18 32 11z m240 -31 c0 -2 -13 2 -30 11 -16 9 -30 18
-30 21 0 2 14 -2 30 -11 17 -9 30 -18 30 -21z m160 31 c0 -2 -10 -9 -22 -15
-22 -11 -22 -10 -4 4 21 17 26 19 26 11z m240 -31 c0 -2 -13 2 -30 11 -16 9
-30 18 -30 21 0 2 14 -2 30 -11 17 -9 30 -18 30 -21z m-1460 21 c0 -2 -13 -11
-30 -20 -38 -19 -40 -11 -2 9 31 17 32 18 32 11z m400 1 c0 -6 -87 -56 -97
-56 -4 0 15 14 42 30 53 31 55 32 55 26z m-110 -42 c0 -2 -9 0 -20 6 -11 6
-20 13 -20 16 0 2 9 0 20 -6 11 -6 20 -13 20 -16z m400 0 c0 -2 -9 0 -20 6
-11 6 -20 13 -20 16 0 2 9 0 20 -6 11 -6 20 -13 20 -16z m880 21 c0 -2 -10 -9
-22 -15 -22 -11 -22 -10 -4 4 21 17 26 19 26 11z m-834 -20 c-11 -8 -25 -15
-30 -15 -6 1 0 7 14 15 32 19 40 18 16 0z m397 5 c21 11 21 10 3 -4 -11 -9
-23 -16 -26 -16 -3 0 -15 7 -26 16 -18 14 -18 15 4 4 16 -8 28 -8 45 0z m385
-59 l-1 -46 -4 40 c-3 26 -12 46 -26 58 -22 18 -22 18 6 6 24 -11 27 -17 25
-58z m-1190 -198 c16 -13 15 -14 -2 -5 -14 7 -28 4 -53 -10 -18 -11 -33 -17
-33 -14 0 3 14 12 30 21 30 15 30 16 32 113 l2 97 3 -94 c3 -74 7 -97 21 -108z
m1212 -4 c109 -62 164 -97 168 -107 2 -6 -41 15 -95 48 l-98 59 -55 -32 c-105
-59 -132 -79 -138 -100 -6 -22 -6 -22 -12 2 -4 17 -32 39 -98 77 -52 30 -97
54 -102 54 -5 0 -49 -24 -99 -52 l-91 -53 0 -115 0 -115 91 -52 c50 -29 95
-53 100 -53 6 0 52 25 104 55 51 30 97 55 102 55 5 0 51 -24 103 -54 l93 -53
91 53 91 53 6 58 6 58 1 -56 c1 -30 8 -61 15 -68 8 -10 9 -12 0 -7 -11 6 -187
-87 -199 -105 -6 -10 -93 37 -111 61 -7 8 -13 11 -13 7 0 -4 -20 4 -44 18
l-45 26 -102 -60 c-63 -36 -107 -57 -114 -51 -35 29 -189 109 -198 103 -9 -5
-9 -3 0 8 16 19 15 219 0 238 -9 11 -9 13 0 8 7 -4 56 19 114 53 67 40 105 57
113 51 6 -5 51 -32 100 -60 l88 -51 99 57 99 57 2 65 2 66 5 -69 c4 -46 11
-72 21 -77z m-800 -3 c0 -2 -9 -2 -19 1 -10 3 -30 0 -42 -7 -24 -11 -24 -11 1
9 18 14 29 17 42 10 10 -5 18 -11 18 -13z m-330 -42 c0 -2 -13 2 -30 11 -16 9
-30 18 -30 21 0 2 14 -2 30 -11 17 -9 30 -18 30 -21z m400 0 c0 -2 -9 0 -20 6
-11 6 -20 13 -20 16 0 2 9 0 20 -6 11 -6 20 -13 20 -16z m1040 21 c0 -2 -10
-9 -22 -15 -22 -11 -22 -10 -4 4 21 17 26 19 26 11z m-1633 -18 c-123 -80
-111 -75 -132 -54 -20 19 -20 20 2 8 19 -9 31 -6 80 24 54 32 91 49 50 22z
m413 8 c0 -2 -10 -9 -22 -15 -22 -11 -22 -10 -4 4 21 17 26 19 26 11z m1250 0
c0 -2 -10 -9 -22 -15 -22 -11 -22 -10 -4 4 21 17 26 19 26 11z m-1820 -41 c0
-2 -9 0 -20 6 -11 6 -20 13 -20 16 0 2 9 0 20 -6 11 -6 20 -13 20 -16z m400 0
c0 -2 -9 0 -20 6 -11 6 -20 13 -20 16 0 2 9 0 20 -6 11 -6 20 -13 20 -16z
m420 -10 c0 -2 -13 2 -30 11 -16 9 -30 18 -30 21 0 2 14 -2 30 -11 17 -9 30
-18 30 -21z m920 31 c0 -2 -10 -9 -22 -15 -22 -11 -22 -10 -4 4 21 17 26 19
26 11z m-1220 -9 c0 -2 -16 -14 -36 -26 -29 -16 -39 -18 -48 -9 -8 9 -8 10 1
5 6 -3 27 3 45 14 35 21 38 22 38 16z m1230 -11 c0 -2 -10 -9 -22 -15 -22 -11
-22 -10 -4 4 21 17 26 19 26 11z m-58 -37 c-7 -7 -13 -47 -14 -97 l-2 -86 -3
83 c-4 77 5 112 25 112 3 0 1 -5 -6 -12z m-45 -60 c-3 -7 -5 -2 -5 12 0 14 2
19 5 13 2 -7 2 -19 0 -25z m-1600 -40 c-2 -13 -4 -3 -4 22 0 25 2 35 4 23 2
-13 2 -33 0 -45z m1210 -55 c-2 -16 -4 -3 -4 27 0 30 2 43 4 28 2 -16 2 -40 0
-55z m-1210 -15 c-3 -8 -6 -5 -6 6 -1 11 2 17 5 13 3 -3 4 -12 1 -19z m1644
-45 c13 -16 12 -17 -3 -4 -17 13 -22 21 -14 21 2 0 10 -8 17 -17z m-1641 -3
c0 -5 -10 -15 -22 -21 l-23 -12 20 21 c23 24 25 25 25 12z m434 -21 c20 -12
36 -23 36 -26 0 -3 -16 4 -36 16 -28 17 -40 19 -57 10 -21 -10 -21 -10 -3 5
24 19 18 20 60 -5z m-364 -25 c0 -2 -13 2 -30 11 -16 9 -30 18 -30 21 0 2 14
-2 30 -11 17 -9 30 -18 30 -21z m1650 0 c0 -2 -13 2 -30 11 -16 9 -30 18 -30
21 0 2 14 -2 30 -11 17 -9 30 -18 30 -21z m-950 21 c0 -2 -13 -11 -30 -20 -38
-19 -40 -11 -2 9 31 17 32 18 32 11z m-820 -10 c0 -2 -13 -11 -30 -20 -38 -19
-40 -11 -2 9 31 17 32 18 32 11z m395 -4 c-16 -14 -105 -63 -105 -58 0 5 101
66 110 67 2 0 0 -4 -5 -9z m1345 -17 c0 -2 -9 0 -20 6 -11 6 -20 13 -20 16 0
2 9 0 20 -6 11 -6 20 -13 20 -16z m-1570 -20 c0 -2 -9 0 -20 6 -11 6 -20 13
-20 16 0 2 9 0 20 -6 11 -6 20 -13 20 -16z m420 -10 c0 -2 -13 2 -30 11 -16 9
-30 18 -30 21 0 2 14 -2 30 -11 17 -9 30 -18 30 -21z m1230 10 c0 -2 -9 0 -20
6 -11 6 -20 13 -20 16 0 2 9 0 20 -6 11 -6 20 -13 20 -16z m-1070 11 c0 -2
-13 -11 -30 -20 -38 -19 -40 -11 -2 9 31 17 32 18 32 11z m-820 -10 c0 -2 -10
-9 -22 -15 -22 -11 -22 -10 -4 4 21 17 26 19 26 11z m336 -33 c18 9 18 9 1 -6
-17 -13 -22 -12 -53 6 -19 11 -34 22 -34 25 0 3 15 -4 33 -15 25 -14 39 -17
53 -10z m400 0 c18 9 18 9 0 -6 -16 -13 -21 -13 -42 1 -13 8 -24 18 -24 20 0
3 10 -2 23 -10 17 -11 29 -12 43 -5z m-419 -84 c-3 -8 -6 -5 -6 6 -1 11 2 17
5 13 3 -3 4 -12 1 -19z m0 -110 c-3 -7 -5 -2 -5 12 0 14 2 19 5 13 2 -7 2 -19
0 -25z m27 -61 c21 -17 21 -17 -6 -6 -18 8 -28 19 -27 33 0 14 2 16 6 6 3 -8
15 -23 27 -33z m402 -3 c18 -14 18 -15 -3 -4 -18 8 -30 7 -53 -5 -38 -19 -40
-11 -2 9 34 19 34 19 58 0z m400 0 c18 -14 18 -15 -4 -4 -19 9 -31 6 -77 -20
-30 -17 -55 -29 -55 -27 0 6 101 66 111 67 3 0 14 -7 25 -16z m383 12 c-2 -2
-15 -9 -29 -15 -24 -11 -24 -11 -6 3 16 13 49 24 35 12z m-1229 -10 c0 -3 -40
-28 -90 -57 -89 -51 -90 -52 -92 -93 l-1 -41 -4 40 c-3 22 -9 45 -14 52 -7 8
-5 10 8 7 10 -3 55 17 103 45 90 53 90 53 90 47z m1280 -22 c0 -2 -9 0 -20 6
-11 6 -20 13 -20 16 0 2 9 0 20 -6 11 -6 20 -13 20 -16z m-1570 -20 c0 -2 -13
2 -30 11 -16 9 -30 18 -30 21 0 2 14 -2 30 -11 17 -9 30 -18 30 -21z m400 0
c0 -2 -9 0 -20 6 -11 6 -20 13 -20 16 0 2 9 0 20 -6 11 -6 20 -13 20 -16z
m420 -10 c0 -2 -13 2 -30 11 -16 9 -30 18 -30 21 0 2 14 -2 30 -11 17 -9 30
-18 30 -21z m640 31 c0 -2 -13 -11 -30 -20 -38 -19 -40 -11 -2 9 31 17 32 18
32 11z m-820 -10 c0 -2 -10 -9 -22 -15 -22 -11 -22 -10 -4 4 21 17 26 19 26
11z m580 -21 c0 -2 -9 0 -20 6 -11 6 -20 13 -20 16 0 2 9 0 20 -6 11 -6 20
-13 20 -16z m420 -10 c0 -2 -9 0 -20 6 -11 6 -20 13 -20 16 0 2 9 0 20 -6 11
-6 20 -13 20 -16z m-1570 -20 c0 -2 -13 2 -30 11 -16 9 -30 18 -30 21 0 2 14
-2 30 -11 17 -9 30 -18 30 -21z m400 0 c0 -2 -13 2 -30 11 -16 9 -30 18 -30
21 0 2 14 -2 30 -11 17 -9 30 -18 30 -21z m440 -22 c-8 -3 -80 37 -80 44 0 2
20 -6 44 -18 24 -13 40 -24 36 -26z m480 43 c0 -2 -10 -9 -22 -15 -22 -11 -22
-10 -4 4 21 17 26 19 26 11z m-820 -10 c0 -2 -10 -9 -22 -15 -22 -11 -22 -10
-4 4 21 17 26 19 26 11z m400 0 c0 -2 -10 -9 -22 -15 -22 -11 -22 -10 -4 4 21
17 26 19 26 11z m320 -21 c0 -2 -9 0 -20 6 -11 6 -20 13 -20 16 0 2 9 0 20 -6
11 -6 20 -13 20 -16z m-776 -16 c-3 -5 -12 -4 -20 3 -19 16 -18 18 6 12 11 -3
17 -9 14 -15z m816 7 c-7 -8 -17 -12 -23 -8 -6 4 -3 9 9 14 27 11 28 11 14 -6z
m-1223 -137 c-3 -7 -5 -2 -5 12 0 14 2 19 5 13 2 -7 2 -19 0 -25z m0 -40 c-3
-8 -6 -5 -6 6 -1 11 2 17 5 13 3 -3 4 -12 1 -19z m110 -118 c57 -32 97 -49
105 -44 10 6 10 5 2 -7 -7 -8 -14 -23 -17 -34 -4 -17 -5 -16 -6 5 -1 21 -18
34 -97 79 -87 49 -97 53 -122 41 l-27 -12 25 24 c18 17 28 20 35 12 6 -6 51
-35 102 -64z m1111 58 c11 -14 10 -16 -7 -11 -12 3 -17 11 -14 19 3 8 6 14 7
12 1 -2 7 -11 14 -20z m-814 3 c3 -5 -3 -11 -15 -14 -16 -4 -18 -3 -8 9 13 16
16 17 23 5z m381 -17 c-72 -38 -90 -46 -82 -38 14 15 82 52 97 53 8 0 2 -6
-15 -15z m-325 -20 c0 -2 -9 0 -20 6 -11 6 -20 13 -20 16 0 2 9 0 20 -6 11 -6
20 -13 20 -16z m420 -10 c0 -2 -13 2 -30 11 -16 9 -30 18 -30 21 0 2 14 -2 30
-11 17 -9 30 -18 30 -21z m300 31 c0 -2 -13 -11 -30 -20 -38 -19 -40 -11 -2 9
31 17 32 18 32 11z m-820 -10 c0 -2 -10 -9 -22 -15 -22 -11 -22 -10 -4 4 21
17 26 19 26 11z m920 -21 c0 -2 -9 0 -20 6 -11 6 -20 13 -20 16 0 2 9 0 20 -6
11 -6 20 -13 20 -16z m-1340 11 c0 -2 -10 -9 -22 -15 -22 -11 -22 -10 -4 4 21
17 26 19 26 11z m1590 -10 c0 -2 -13 -11 -30 -20 -38 -19 -40 -11 -2 9 31 17
32 18 32 11z m-1000 -31 c0 -2 -9 0 -20 6 -11 6 -20 13 -20 16 0 2 9 0 20 -6
11 -6 20 -13 20 -16z m420 -10 c0 -2 -13 2 -30 11 -16 9 -30 18 -30 21 0 2 14
-2 30 -11 17 -9 30 -18 30 -21z m160 31 c0 -2 -13 -11 -30 -20 -38 -19 -40
-11 -2 9 31 17 32 18 32 11z m-1220 -10 c0 -2 -13 -11 -30 -20 -38 -19 -40
-11 -2 9 31 17 32 18 32 11z m400 0 c0 -2 -13 -11 -30 -20 -38 -19 -40 -11 -2
9 31 17 32 18 32 11z m400 0 c0 -2 -10 -9 -22 -15 -22 -11 -22 -10 -4 4 21 17
26 19 26 11z m660 -21 c0 -2 -9 0 -20 6 -11 6 -20 13 -20 16 0 2 9 0 20 -6 11
-6 20 -13 20 -16z m-730 -14 c11 6 20 8 20 6 0 -3 -9 -10 -20 -16 -15 -8 -27
-7 -50 5 -16 9 -30 18 -30 21 0 2 14 -2 30 -11 23 -12 35 -13 50 -5z m403 0
c21 11 21 10 3 -4 -11 -9 -23 -16 -26 -16 -3 0 -15 7 -26 16 -18 14 -18 15 4
4 16 -8 28 -8 45 0z"/>
<path d="M1905 475 l-90 -53 0 -116 0 -117 93 -54 92 -54 0 224 c0 124 -1 225
-2 224 -2 0 -43 -25 -93 -54z"/>
</g>
</svg>
