<?xml version="1.0" standalone="no"?>
<!DOCTYPE svg PUBLIC "-//W3C//DTD SVG 20010904//EN"
 "http://www.w3.org/TR/2001/REC-SVG-20010904/DTD/svg10.dtd">
<svg version="1.0" xmlns="http://www.w3.org/2000/svg"
 width="200.000000pt" height="200.000000pt" viewBox="0 0 200.000000 200.000000"
 preserveAspectRatio="xMidYMid meet">
<metadata>
Created by potrace 1.16, written by Peter Selinger 2001-2019
</metadata>
<g transform="translate(0.000000,200.000000) scale(0.100000,-0.100000)"
fill="#000000" stroke="none">
<path d="M0 1000 l0 -1000 255 0 255 0 43 27 42 26 47 -26 c42 -24 59 -27 138
-27 72 0 90 3 90 15 0 13 110 85 130 85 20 0 130 -73 130 -87 0 -11 12 -13 53
-11 48 3 52 5 52 27 0 20 15 33 83 72 l83 48 82 -48 c71 -41 82 -51 82 -74 -1
-21 4 -27 22 -27 18 0 22 6 25 37 3 35 8 40 96 91 l92 54 58 -32 c31 -18 76
-44 100 -57 l42 -25 0 25 c0 21 -14 33 -80 71 l-80 47 0 94 0 95 80 46 81 47
-3 135 -3 135 -95 57 -95 56 0 124 0 124 95 56 95 56 3 124 2 125 -90 50 -90
50 0 110 0 110 90 50 90 50 0 48 c0 44 -2 47 -25 47 -18 0 -25 -5 -25 -19 0
-13 -22 -32 -72 -61 -71 -41 -73 -41 -105 -26 -69 33 -113 66 -113 86 0 18 -7
20 -68 20 -53 0 -69 -4 -78 -18 -6 -9 -34 -30 -63 -45 l-51 -28 -56 31 c-30
18 -58 39 -61 46 -6 17 -198 20 -208 4 -3 -6 -23 -19 -43 -29 l-36 -18 -47 29
-48 29 -143 -5 c-79 -2 -150 -4 -158 -4 -8 0 -147 2 -307 4 l-293 5 0 -1001z
m1685 826 l70 -43 0 -89 0 -89 -74 -44 -75 -45 -75 41 -76 41 -3 94 -3 94 73
42 c40 23 78 42 83 42 6 0 42 -20 80 -44z m-425 -29 l55 -33 0 -69 0 -69 -57
-34 -58 -34 -57 34 -58 34 0 69 0 69 55 32 c30 18 57 33 60 34 3 0 30 -15 60
-33z m-427 -33 c40 -21 47 -31 47 -69 0 -38 -7 -48 -47 -69 -31 -16 -35 -15
-73 4 -38 19 -40 23 -40 65 0 41 3 46 38 64 45 25 37 24 75 5z m-419 -40 c24
-9 20 -51 -5 -59 -12 -4 -26 -2 -31 3 -8 8 -4 9 10 5 30 -7 42 25 17 43 -20
15 -16 18 9 8z m1476 -231 l81 -48 -3 -99 -3 -99 -82 -49 -81 -48 -86 51 -86
50 0 97 0 97 83 47 c45 27 85 48 89 48 4 0 43 -21 88 -47z m-421 -24 l71 -41
0 -81 0 -82 -66 -37 c-36 -21 -71 -38 -78 -37 -6 0 -38 17 -71 38 l-60 38 -3
80 -3 81 68 40 c37 22 69 41 70 41 1 1 33 -17 72 -40z m-419 -28 c39 -23 45
-32 46 -62 2 -32 1 -32 -3 -3 -3 25 -14 36 -50 57 l-46 25 -49 -30 c-47 -29
-48 -30 -48 -81 0 -51 1 -53 45 -80 25 -15 49 -27 53 -27 5 0 29 13 55 30 26
16 47 26 47 22 0 -10 -88 -62 -103 -61 -7 0 -32 13 -57 28 -44 27 -45 28 -48
87 l-3 59 53 32 c29 18 55 32 58 32 3 0 25 -13 50 -28z m-409 -42 c22 -15 29
-28 29 -54 0 -27 -6 -37 -35 -55 -35 -22 -36 -22 -68 -3 -26 16 -33 26 -35 58
-2 35 1 42 25 57 36 23 49 22 84 -3z m-421 -34 c19 -22 8 -25 -12 -3 -10 10
-14 18 -9 18 5 0 14 -7 21 -15z m877 -47 c-3 -8 -6 -5 -6 6 -1 11 2 17 5 13 3
-3 4 -12 1 -19z m604 -159 l89 -51 0 -108 0 -108 -89 -51 c-48 -28 -93 -51
-98 -51 -15 0 -172 90 -180 103 -13 22 -9 208 5 219 27 23 158 97 171 97 7 1
54 -22 102 -50z m-425 -31 l74 -43 0 -85 0 -85 -76 -43 -75 -43 -72 43 -72 43
0 85 0 85 70 42 c39 23 72 43 74 43 2 0 37 -19 77 -42z m-422 -48 l47 -30 -3
-52 c-3 -50 -5 -53 -50 -81 l-47 -29 -50 28 -51 27 0 57 0 57 48 26 c26 15 49
27 53 27 3 0 26 -14 53 -30z m-414 -75 c0 -13 -8 -29 -17 -36 -15 -11 -16 -11
-5 1 30 34 -3 79 -43 59 -19 -10 -19 -10 -2 5 26 20 67 2 67 -29z m-40 -51 c0
-2 -9 0 -20 6 -11 6 -20 13 -20 16 0 2 9 0 20 -6 11 -6 20 -13 20 -16z m1476
-180 l65 -36 -3 -86 -3 -87 -67 -38 -67 -39 -70 42 -71 41 0 83 0 82 63 36
c34 20 68 36 75 37 8 1 43 -15 78 -35z m-421 -19 c24 -14 49 -33 57 -42 7 -9
-14 1 -47 22 l-60 39 -60 -33 c-64 -35 -62 -24 2 15 49 29 56 29 108 -1z
m-415 -27 c22 -13 40 -26 40 -31 0 -4 -18 4 -39 19 l-39 26 -41 -24 c-40 -22
-41 -25 -39 -67 3 -38 7 -46 39 -64 37 -21 37 -21 73 -2 20 11 36 26 36 33 0
7 5 10 12 6 7 -5 2 -15 -18 -31 -46 -37 -69 -39 -114 -9 -37 24 -40 30 -40 71
0 41 3 46 43 69 23 14 43 26 45 26 2 0 21 -10 42 -22z m-407 -32 c26 -20 22
-70 -8 -90 -59 -38 -120 48 -63 88 27 19 47 20 71 2z m666 -23 c0 -25 -1 -26
-9 -8 -12 27 -12 35 0 35 6 0 10 -12 9 -27z m217 -35 l-1 -52 -58 -33 -57 -34
-55 33 c-30 18 -55 36 -55 40 0 4 24 -8 54 -27 l54 -35 45 26 c56 31 65 41 65
79 0 41 1 55 6 55 2 0 3 -23 2 -52z m-1324 30 c-16 -16 -15 -28 2 -28 8 0 17
8 19 18 4 16 5 16 6 -1 1 -21 -26 -34 -41 -19 -8 8 -8 15 2 27 7 8 15 15 18
15 3 0 1 -5 -6 -12z m898 -19 c0 -5 -4 -9 -10 -9 -5 0 -10 7 -10 16 0 8 5 12
10 9 6 -3 10 -10 10 -16z m207 -31 c-3 -8 -6 -5 -6 6 -1 11 2 17 5 13 3 -3 4
-12 1 -19z m373 -196 l65 -38 3 -76 3 -77 -70 -40 -69 -41 -66 38 -66 37 0 80
0 80 63 37 c34 20 64 36 67 37 3 0 34 -16 70 -37z m-419 -29 l49 -28 0 -60 0
-60 -50 -28 -50 -28 -48 29 c-46 28 -47 30 -50 85 l-3 57 47 30 c27 16 50 30
52 30 2 0 26 -12 53 -27z m-420 -30 c16 -10 29 -21 29 -25 0 -5 -13 1 -29 13
-28 21 -31 21 -55 5 -14 -9 -29 -16 -33 -16 -7 0 48 40 55 40 2 0 17 -8 33
-17z m-403 -60 c-2 -9 -9 -18 -16 -19 -7 -1 -8 0 -2 3 15 7 12 30 -5 37 -18 6
-31 -17 -19 -35 4 -8 3 -9 -4 -5 -15 9 -15 29 0 44 15 15 50 -4 46 -25z m432
-25 c0 -7 -14 -21 -31 -31 -30 -17 -32 -17 -63 3 -17 11 -27 20 -23 20 4 0 18
-7 32 -16 22 -14 26 -14 49 1 14 10 26 21 26 26 0 5 2 9 5 9 3 0 5 -6 5 -12z"/>
<path d="M1528 1819 l-68 -40 0 -84 0 -84 70 -41 70 -41 75 41 75 41 0 83 0
82 -74 42 c-40 23 -75 42 -77 42 -2 -1 -34 -19 -71 -41z"/>
<path d="M1143 1787 l-53 -31 0 -61 0 -61 56 -32 55 -32 55 31 54 31 0 62 0
61 -54 33 c-30 17 -56 32 -58 31 -1 0 -27 -15 -55 -32z"/>
<path d="M762 1750 c-29 -18 -33 -25 -30 -57 2 -30 10 -41 36 -56 31 -18 33
-18 65 0 25 15 33 26 35 56 3 32 -1 39 -30 57 -18 11 -35 20 -38 20 -3 0 -20
-9 -38 -20z"/>
<path d="M1717 1483 l-78 -46 3 -91 3 -90 70 -42 c39 -24 76 -43 82 -43 7 -1
47 18 88 41 l75 42 0 93 0 92 -69 41 c-39 22 -76 42 -83 45 -7 2 -48 -17 -91
-42z"/>
<path d="M1330 1456 l-55 -32 -3 -76 -3 -76 66 -36 65 -37 65 37 66 36 -3 76
-3 76 -55 32 c-30 18 -62 33 -70 33 -8 0 -40 -15 -70 -33z"/>
<path d="M562 1394 c-15 -10 -22 -25 -22 -49 0 -28 6 -37 30 -50 28 -15 33
-14 60 2 40 23 42 73 5 97 -30 20 -45 20 -73 0z"/>
<path d="M1513 1152 l-83 -47 0 -105 0 -105 84 -47 c46 -27 86 -48 89 -48 3 0
44 23 91 51 l86 50 0 99 0 99 -86 50 c-47 28 -89 51 -92 51 -4 0 -44 -22 -89
-48z"/>
<path d="M1129 1119 l-66 -40 -1 -78 -2 -78 70 -41 70 -40 70 40 70 41 0 77 0
78 -67 39 c-38 21 -70 39 -73 39 -3 1 -35 -16 -71 -37z"/>
<path d="M753 1074 c-41 -24 -43 -27 -43 -74 0 -48 1 -50 45 -75 l44 -26 46
26 c43 26 45 28 45 75 0 46 -2 49 -44 74 -25 14 -46 26 -48 26 -2 0 -22 -12
-45 -26z"/>
<path d="M1733 764 l-63 -35 0 -77 1 -77 65 -37 66 -37 64 36 64 37 0 77 0 78
-59 35 c-32 20 -63 36 -67 36 -5 0 -37 -16 -71 -36z"/>
<path d="M568 689 c-26 -15 -22 -56 6 -74 20 -14 28 -14 45 -3 12 7 21 23 21
38 0 44 -33 62 -72 39z"/>
<path d="M1542 414 l-62 -35 0 -74 0 -73 62 -35 62 -35 60 38 61 37 3 65 c3
73 5 69 -88 126 l-36 21 -62 -35z"/>
<path d="M1153 384 c-42 -25 -43 -27 -43 -79 0 -53 0 -53 46 -79 l46 -26 44
26 c43 25 44 27 44 79 0 52 -1 54 -44 79 -25 14 -46 26 -48 26 -2 -1 -22 -12
-45 -26z"/>
<path d="M945 1984 c35 -26 63 -27 97 -5 l33 21 -75 0 c-69 -1 -73 -2 -55 -16z"/>
<path d="M1290 1991 c0 -5 25 -23 55 -40 l55 -31 55 31 c30 17 55 35 55 40 0
5 -49 9 -110 9 -60 0 -110 -4 -110 -9z"/>
<path d="M1670 1982 c0 -11 23 -31 66 -56 l66 -37 66 38 c102 58 93 67 -65 71
-123 2 -133 1 -133 -16z"/>
<path d="M1913 1843 l-83 -47 0 -101 0 -100 81 -48 c45 -26 84 -46 86 -44 2 2
2 90 1 195 l-3 191 -82 -46z"/>
<path d="M1898 1167 l-88 -52 0 -115 0 -115 87 -50 c47 -27 90 -51 95 -53 4
-2 8 96 8 217 0 122 -3 221 -7 220 -5 0 -47 -24 -95 -52z"/>
<path d="M1923 437 l-73 -42 3 -90 2 -89 73 -43 72 -43 0 175 c0 96 -1 175 -2
174 -2 0 -36 -19 -75 -42z"/>
<path d="M1712 117 c-86 -49 -92 -54 -92 -84 l0 -33 180 0 c149 0 180 2 180
14 0 8 3 21 6 29 5 14 -5 21 -151 108 l-31 18 -92 -52z"/>
<path d="M1318 88 c-54 -32 -68 -45 -68 -64 l0 -24 150 0 150 0 0 25 c0 19
-13 32 -69 65 -38 22 -75 40 -83 40 -7 -1 -43 -19 -80 -42z"/>
<path d="M940 58 c-85 -52 -79 -58 60 -58 92 0 121 3 118 12 -4 11 -105 78
-118 78 -3 0 -30 -15 -60 -32z"/>
<path d="M560 20 l-35 -19 68 -1 c37 0 67 2 67 5 0 4 -56 35 -62 35 -2 -1 -19
-9 -38 -20z"/>
</g>
</svg>
