<?xml version="1.0" standalone="no"?>
<!DOCTYPE svg PUBLIC "-//W3C//DTD SVG 20010904//EN"
 "http://www.w3.org/TR/2001/REC-SVG-20010904/DTD/svg10.dtd">
<svg version="1.0" xmlns="http://www.w3.org/2000/svg"
 width="200.000000pt" height="200.000000pt" viewBox="0 0 200.000000 200.000000"
 preserveAspectRatio="xMidYMid meet">
<metadata>
Created by potrace 1.16, written by Peter Selinger 2001-2019
</metadata>
<g transform="translate(0.000000,200.000000) scale(0.100000,-0.100000)"
fill="#000000" stroke="none">
<path d="M0 1967 c0 -18 6 -39 13 -46 10 -11 10 -13 0 -7 -10 6 -13 -41 -13
-219 0 -178 3 -225 13 -219 10 6 10 4 0 -7 -9 -9 -13 -49 -13 -124 l0 -112 50
-27 c28 -15 50 -30 50 -32 0 -3 -21 6 -46 20 -26 14 -48 26 -50 26 -2 0 -4
-99 -4 -221 0 -206 1 -221 18 -215 16 6 16 5 0 -8 -15 -11 -18 -30 -18 -123 0
-73 4 -113 13 -122 9 -11 9 -13 0 -7 -10 6 -13 -41 -13 -219 0 -178 3 -225 12
-219 11 6 11 4 0 -7 -6 -7 -12 -28 -12 -46 l0 -33 194 0 c146 0 196 3 199 13
4 9 6 9 6 0 1 -10 88 -13 401 -13 l400 0 0 34 c0 23 -7 39 -22 50 l-23 17 23
-11 c20 -10 37 -4 123 46 l100 57 -3 118 c-2 66 0 119 4 119 4 0 50 25 102 56
l96 56 0 110 c0 93 -3 113 -17 125 -17 13 -17 14 2 5 14 -7 28 -6 50 4 27 14
28 14 11 -1 -11 -8 -24 -15 -28 -15 -5 0 -7 -52 -6 -116 l3 -116 93 -54 c52
-30 99 -51 104 -48 7 4 8 2 4 -4 -11 -18 -17 -16 -119 43 l-95 56 -96 -57 -96
-56 0 -113 0 -113 96 -56 c52 -31 99 -54 104 -51 13 8 18 -8 9 -30 -5 -13 -8
-15 -8 -5 -1 8 -48 41 -106 73 l-104 58 -95 -53 c-94 -52 -96 -54 -96 -90 l0
-38 395 0 395 0 -1 266 c0 239 -2 265 -16 260 -14 -6 -14 -4 -2 10 18 22 22
212 5 233 -8 11 -8 13 2 7 9 -6 12 36 12 193 0 111 -3 201 -6 201 -3 0 -15 -5
-27 -11 -21 -10 -21 -10 -3 5 11 9 23 16 27 16 4 0 8 167 8 370 l1 370 -57
-32 c-32 -17 -75 -42 -96 -55 l-38 -24 2 -124 c1 -121 4 -131 32 -126 5 1 6
-3 2 -9 -4 -7 -12 -7 -25 0 -23 13 -56 -2 -167 -72 l-41 -27 -105 60 c-104 60
-105 60 -136 45 -42 -22 -39 -13 4 13 19 11 37 16 39 12 3 -5 47 -32 97 -61
88 -51 93 -52 118 -38 14 8 59 34 99 57 l73 42 -3 116 -3 115 -94 55 c-83 48
-98 53 -120 44 l-26 -11 23 16 c15 12 22 27 22 50 l0 34 -599 0 c-470 0 -600
-3 -604 -12 -4 -10 -6 -10 -6 0 -1 9 -47 12 -196 12 l-195 0 0 -33z m410 -42
c11 -13 10 -14 -4 -9 -9 3 -16 10 -16 15 0 13 6 11 20 -6z m416 -11 c18 -14
18 -15 -3 -4 -18 8 -30 7 -53 -5 -38 -19 -40 -11 -2 9 34 19 34 19 58 0z m404
1 c17 -9 30 -18 30 -21 0 -2 -14 2 -30 11 -23 12 -35 13 -53 5 -21 -11 -21
-10 -3 4 24 19 21 19 56 1z m-850 0 c0 -2 -10 -9 -22 -15 -22 -11 -22 -10 -4
4 21 17 26 19 26 11z m-310 -31 c0 -2 -9 0 -20 6 -11 6 -20 13 -20 16 0 2 9 0
20 -6 11 -6 20 -13 20 -16z m420 -10 c0 -2 -13 2 -30 11 -16 9 -30 18 -30 21
0 2 14 -2 30 -11 17 -9 30 -18 30 -21z m400 0 c0 -2 -9 0 -20 6 -11 6 -20 13
-20 16 0 2 9 0 20 -6 11 -6 20 -13 20 -16z m260 21 c0 -2 -13 -11 -30 -20 -38
-19 -40 -11 -2 9 31 17 32 18 32 11z m400 1 c0 -3 -26 -19 -57 -37 -32 -18
-65 -38 -75 -46 -11 -10 -18 -11 -23 -4 -3 6 -2 11 4 11 5 0 40 18 78 40 72
42 73 42 73 36z m-1220 -11 c0 -2 -13 -11 -30 -20 -38 -19 -40 -11 -2 9 31 17
32 18 32 11z m400 0 c0 -2 -10 -9 -22 -15 -22 -11 -22 -10 -4 4 21 17 26 19
26 11z m580 -21 c0 -2 -9 0 -20 6 -11 6 -20 13 -20 16 0 2 9 0 20 -6 11 -6 20
-13 20 -16z m-1170 -20 c0 -2 -9 0 -20 6 -11 6 -20 13 -20 16 0 2 9 0 20 -6
11 -6 20 -13 20 -16z m420 -10 c0 -2 -13 2 -30 11 -16 9 -30 18 -30 21 0 2 14
-2 30 -11 17 -9 30 -18 30 -21z m120 22 c0 -8 -71 -46 -85 -46 -8 0 -16 4 -19
9 -4 5 2 7 12 4 11 -2 34 5 53 16 36 22 39 23 39 17z m280 -22 c0 -2 -9 0 -20
6 -11 6 -20 13 -20 16 0 2 9 0 20 -6 11 -6 20 -13 20 -16z m120 22 c0 -8 -71
-46 -85 -46 -8 0 -16 4 -19 9 -4 5 2 7 12 4 11 -2 34 5 53 16 36 22 39 23 39
17z m-820 -10 c0 -2 -15 -13 -33 -24 -33 -19 -34 -19 -58 0 l-24 19 26 -12
c21 -9 32 -8 55 5 32 17 34 18 34 12z m1120 -22 c0 -2 -9 0 -20 6 -11 6 -20
13 -20 16 0 2 9 0 20 -6 11 -6 20 -13 20 -16z m-1183 -116 c-2 -18 -4 -6 -4
27 0 33 2 48 4 33 2 -15 2 -42 0 -60z m400 40 c-3 -7 -5 -2 -5 12 0 14 2 19 5
13 2 -7 2 -19 0 -25z m-400 -125 c-3 -10 -5 -4 -5 12 0 17 2 24 5 18 2 -7 2
-21 0 -30z m113 -110 c0 -2 -25 10 -57 28 l-56 32 -51 -28 c-60 -33 -57 -26 5
14 l44 27 57 -34 c32 -19 58 -36 58 -39z m350 31 c0 -3 -14 3 -31 11 -17 9
-38 14 -46 10 -13 -4 -14 -3 -4 9 11 13 17 12 47 -6 19 -11 34 -22 34 -24z
m380 16 c22 -11 40 -23 40 -25 0 -5 -79 32 -89 41 -11 10 14 2 49 -16z m-60 5
c0 -2 -13 -11 -30 -20 -38 -19 -40 -11 -2 9 31 17 32 18 32 11z m-420 -10 c0
-2 -10 -9 -22 -15 -22 -11 -22 -10 -4 4 21 17 26 19 26 11z m1340 -36 c0 -6 5
-7 12 -3 7 4 8 3 4 -4 -8 -14 -46 2 -46 19 0 6 -5 7 -12 3 -7 -4 -8 -3 -4 4 8
14 46 -2 46 -19z m-1170 -15 c0 -2 -13 2 -30 11 -16 9 -30 18 -30 21 0 2 14
-2 30 -11 17 -9 30 -18 30 -21z m600 32 c0 -2 -26 -19 -57 -36 -32 -18 -60
-36 -63 -41 -3 -4 -17 1 -30 12 -23 19 -23 19 -2 9 19 -9 32 -6 85 24 65 38
67 38 67 32z m-420 -11 c0 -2 -13 -11 -30 -20 -38 -19 -40 -11 -2 9 31 17 32
18 32 11z m240 -31 c0 -2 -13 2 -30 11 -16 9 -30 18 -30 21 0 2 14 -2 30 -11
17 -9 30 -18 30 -21z m-1060 21 c0 -2 -13 -11 -30 -20 -38 -19 -40 -11 -2 9
31 17 32 18 32 11z m400 1 c0 -6 -87 -56 -97 -56 -4 0 15 14 42 30 53 31 55
32 55 26z m-110 -42 c0 -2 -9 0 -20 6 -11 6 -20 13 -20 16 0 2 9 0 20 -6 11
-6 20 -13 20 -16z m440 6 c11 6 20 8 20 6 0 -3 -9 -10 -20 -16 -15 -8 -27 -7
-50 5 -16 9 -30 18 -30 21 0 2 14 -2 30 -11 23 -12 35 -13 50 -5z m1144 -1
c-3 -5 -10 -7 -15 -3 -5 3 -7 10 -3 15 3 5 10 7 15 3 5 -3 7 -10 3 -15z m23
-14 c0 -8 -4 -12 -9 -9 -5 3 -6 10 -3 15 9 13 12 11 12 -6z m-1590 -112 c-2
-16 -4 -5 -4 22 0 28 2 40 4 28 2 -13 2 -35 0 -50z m1220 35 c-3 -7 -5 -2 -5
12 0 14 2 19 5 13 2 -7 2 -19 0 -25z m3 -43 c0 -14 -2 -25 -4 -25 -2 0 -6 11
-8 25 -3 14 -1 25 3 25 5 0 9 -11 9 -25z m-413 -17 c-3 -7 -5 -2 -5 12 0 14 2
19 5 13 2 -7 2 -19 0 -25z m-789 -106 c16 -12 15 -12 -2 -4 -14 7 -28 4 -53
-10 -18 -11 -33 -17 -33 -14 0 3 14 12 30 21 26 14 30 21 32 63 l1 47 4 -44
c3 -26 11 -51 21 -59z m794 23 c2 -22 -1 -30 -12 -30 -8 0 -23 -8 -33 -18 -10
-10 -22 -15 -27 -12 -6 4 -10 1 -10 -6 0 -7 -3 -10 -6 -6 -3 3 -14 -3 -25 -14
-11 -11 -24 -17 -29 -14 -6 4 -10 1 -10 -4 0 -6 -4 -10 -9 -8 -5 1 -16 -6 -23
-15 -12 -16 -21 -13 -120 43 l-108 61 -95 -53 c-107 -61 -103 -53 -97 -209 l3
-75 87 -50 c48 -28 92 -51 97 -53 6 -1 57 25 115 58 103 59 105 59 121 40 9
-10 20 -16 24 -12 5 4 5 1 0 -7 -7 -12 -10 -12 -19 1 -17 23 -44 15 -145 -44
l-93 -56 -100 59 c-84 50 -103 57 -121 48 -20 -9 -20 -9 -4 4 15 12 17 32 18
126 0 61 -3 116 -7 122 -4 7 -3 9 3 6 5 -3 55 20 111 52 l100 58 101 -59 101
-59 45 26 c25 15 45 24 45 21 0 -3 9 3 20 14 12 12 25 18 30 15 6 -4 10 -1 10
6 0 7 3 9 6 6 9 -9 44 38 44 59 0 27 8 13 12 -21z m417 -8 c12 -15 12 -17 -3
-11 -9 3 -16 13 -16 22 0 8 1 13 3 11 1 -2 9 -12 16 -22z m-34 -7 c-3 -5 -16
-15 -28 -21 -19 -9 -19 -8 3 10 28 23 34 26 25 11z m395 5 c0 -2 -13 -11 -30
-20 -38 -19 -40 -11 -2 9 31 17 32 18 32 11z m-755 -25 c-6 -9 8 -14 28 -11 5
1 6 -3 2 -9 -4 -7 -12 -7 -26 0 -17 9 -19 30 -3 30 3 0 2 -4 -1 -10z m-735
-36 c0 -2 -13 2 -30 11 -16 9 -30 18 -30 21 0 2 14 -2 30 -11 17 -9 30 -18 30
-21z m1090 21 c0 -2 -10 -9 -22 -15 -22 -11 -22 -10 -4 4 21 17 26 19 26 11z
m-1283 -18 c-123 -80 -111 -75 -132 -54 -20 19 -20 20 2 8 19 -9 31 -6 80 24
54 32 91 49 50 22z m1363 -13 c0 -2 -9 0 -20 6 -11 6 -20 13 -20 16 0 2 9 0
20 -6 11 -6 20 -13 20 -16z m90 -10 c0 -2 -13 2 -30 11 -16 9 -30 18 -30 21 0
2 14 -2 30 -11 17 -9 30 -18 30 -21z m140 31 c0 -2 -10 -9 -22 -15 -22 -11
-22 -10 -4 4 21 17 26 19 26 11z m-567 -28 c4 3 7 1 7 -6 0 -7 5 -9 10 -6 6 3
13 -1 16 -9 3 -9 9 -14 13 -11 4 2 8 -3 8 -12 0 -12 -5 -11 -19 7 -10 12 -18
19 -18 16 0 -4 -14 1 -30 9 -18 9 -28 21 -24 27 5 7 11 6 19 -5 7 -9 15 -14
18 -10z m-1183 -13 c0 -2 -9 0 -20 6 -11 6 -20 13 -20 16 0 2 9 0 20 -6 11 -6
20 -13 20 -16z m400 0 c0 -2 -9 0 -20 6 -11 6 -20 13 -20 16 0 2 9 0 20 -6 11
-6 20 -13 20 -16z m990 21 c0 -2 -13 -11 -30 -20 -38 -19 -40 -11 -2 9 31 17
32 18 32 11z m200 -41 c0 -2 -13 2 -30 11 -16 9 -30 18 -30 21 0 2 14 -2 30
-11 17 -9 30 -18 30 -21z m110 31 c0 -2 -10 -9 -22 -15 -22 -11 -22 -10 -4 4
21 17 26 19 26 11z m-55 -23 c-3 -3 -11 0 -18 7 -9 10 -8 11 6 5 10 -3 15 -9
12 -12z m125 3 c0 -2 -10 -9 -22 -15 -22 -11 -22 -10 -4 4 21 17 26 19 26 11z
m-467 -22 c-21 -14 -23 -23 -23 -113 0 -81 3 -100 18 -111 15 -13 15 -13 -3
-3 -18 10 -20 23 -23 110 -3 91 -1 100 19 117 12 9 24 17 28 16 3 0 -4 -7 -16
-16z m409 -15 c-7 -7 -13 -35 -14 -62 l-2 -51 -3 48 c-4 43 8 77 25 77 3 0 1
-5 -6 -12z m-85 -30 c-3 -7 -5 -2 -5 12 0 14 2 19 5 13 2 -7 2 -19 0 -25z
m-780 -10 c-3 -7 -5 -2 -5 12 0 14 2 19 5 13 2 -7 2 -19 0 -25z m-800 -50 c-2
-13 -4 -3 -4 22 0 25 2 35 4 23 2 -13 2 -33 0 -45z m1580 -60 c-3 -7 -5 -2 -5
12 0 14 2 19 5 13 2 -7 2 -19 0 -25z m86 -48 c10 -13 10 -13 -5 -1 -12 9 -17
26 -16 50 l1 36 4 -35 c3 -19 10 -42 16 -50z m-1666 38 c-3 -8 -6 -5 -6 6 -1
11 2 17 5 13 3 -3 4 -12 1 -19z m3 -48 c0 -5 -10 -15 -22 -21 l-23 -12 20 21
c23 24 25 25 25 12z m1740 -36 c0 -2 -13 2 -30 11 -16 9 -30 18 -30 21 0 2 14
-2 30 -11 17 -9 30 -18 30 -21z m-1670 -10 c0 -2 -13 2 -30 11 -16 9 -30 18
-30 21 0 2 14 -2 30 -11 17 -9 30 -18 30 -21z m1086 17 c-10 -11 -32 -25 -49
-32 -18 -7 -34 -16 -37 -20 -3 -4 -12 -9 -20 -11 -8 -2 -22 -12 -32 -23 -18
-20 -18 -20 -37 2 -10 12 -21 19 -25 16 -3 -4 -6 -1 -6 5 0 17 20 15 26 -2 7
-18 17 -14 114 41 85 49 90 50 66 24z m384 14 c0 -2 -13 -11 -30 -20 -38 -19
-40 -11 -2 9 31 17 32 18 32 11z m84 -4 c4 -5 -3 -7 -14 -4 -23 6 -26 13 -6
13 8 0 17 -4 20 -9z m-304 -27 c0 -2 -9 0 -20 6 -11 6 -20 13 -20 16 0 2 9 0
20 -6 11 -6 20 -13 20 -16z m-1370 11 c0 -2 -13 -11 -30 -20 -38 -19 -40 -11
-2 9 31 17 32 18 32 11z m395 -4 c-16 -14 -105 -63 -105 -58 0 5 101 66 110
67 2 0 0 -4 -5 -9z m565 -22 c0 -6 4 -8 9 -5 5 3 12 -1 15 -9 4 -11 -4 -10
-33 7 -22 12 -37 26 -35 30 7 10 44 -10 44 -23z m790 -5 c0 -2 -13 2 -30 11
-16 9 -30 18 -30 21 0 2 14 -2 30 -11 17 -9 30 -18 30 -21z m90 0 c0 -2 -9 0
-20 6 -11 6 -20 13 -20 16 0 2 9 0 20 -6 11 -6 20 -13 20 -16z m-1670 -10 c0
-2 -9 0 -20 6 -11 6 -20 13 -20 16 0 2 9 0 20 -6 11 -6 20 -13 20 -16z m1350
21 c0 -2 -10 -9 -22 -15 -22 -11 -22 -10 -4 4 21 17 26 19 26 11z m-130 -31
c0 -2 -9 0 -20 6 -11 6 -20 13 -20 16 0 2 9 0 20 -6 11 -6 20 -13 20 -16z
m-1460 11 c0 -2 -10 -9 -22 -15 -22 -11 -22 -10 -4 4 21 17 26 19 26 11z m290
-31 c0 -2 -9 0 -20 6 -11 6 -20 13 -20 16 0 2 9 0 20 -6 11 -6 20 -13 20 -16z
m1600 0 c0 -2 -9 0 -20 6 -11 6 -20 13 -20 16 0 2 9 0 20 -6 11 -6 20 -13 20
-16z m-1554 -9 c-10 -8 -24 -11 -30 -8 -6 4 0 10 14 14 36 10 37 10 16 -6z
m-19 -77 c-3 -8 -6 -5 -6 6 -1 11 2 17 5 13 3 -3 4 -12 1 -19z m0 -110 c-3 -7
-5 -2 -5 12 0 14 2 19 5 13 2 -7 2 -19 0 -25z m27 -61 c21 -17 21 -17 -6 -6
-18 8 -28 19 -27 33 0 14 2 16 6 6 3 -8 15 -23 27 -33z m402 -3 c18 -14 18
-15 -3 -4 -18 8 -30 7 -53 -5 -38 -19 -40 -11 -2 9 34 19 34 19 58 0z m400 0
c18 -14 18 -15 -4 -4 -20 10 -35 4 -119 -44 -52 -31 -100 -56 -107 -56 -6 0 5
8 24 19 19 10 67 37 105 60 39 22 73 41 76 41 3 0 14 -7 25 -16z m-846 2 c0
-2 -37 -25 -82 -52 -46 -26 -88 -53 -94 -60 -8 -10 -13 -9 -21 6 -10 15 -9 17
5 14 9 -3 55 18 102 45 89 53 90 53 90 47z m-290 -42 c0 -2 -13 2 -30 11 -16
9 -30 18 -30 21 0 2 14 -2 30 -11 17 -9 30 -18 30 -21z m400 0 c0 -2 -9 0 -20
6 -11 6 -20 13 -20 16 0 2 9 0 20 -6 11 -6 20 -13 20 -16z m420 -10 c0 -2 -13
2 -30 11 -16 9 -30 18 -30 21 0 2 14 -2 30 -11 17 -9 30 -18 30 -21z m1024 24
c-5 -8 -2 -9 9 -5 23 9 21 0 -2 -13 -16 -8 -19 -7 -16 8 5 23 4 22 11 22 3 0
2 -5 -2 -12z m-1204 -3 c0 -2 -13 -11 -30 -20 -38 -19 -40 -11 -2 9 31 17 32
18 32 11z m580 -21 c0 -2 -9 0 -20 6 -11 6 -20 13 -20 16 0 2 9 0 20 -6 11 -6
20 -13 20 -16z m-1150 -30 c0 -2 -13 2 -30 11 -16 9 -30 18 -30 21 0 2 14 -2
30 -11 17 -9 30 -18 30 -21z m400 0 c0 -2 -13 2 -30 11 -16 9 -30 18 -30 21 0
2 14 -2 30 -11 17 -9 30 -18 30 -21z m1326 20 c-1 -9 -10 -20 -18 -25 -21 -12
-18 18 3 32 18 11 18 12 15 -7z m-906 -30 c0 -2 -13 2 -30 11 -16 9 -30 18
-30 21 0 2 14 -2 30 -11 17 -9 30 -18 30 -21z m400 0 c0 -2 -13 2 -30 11 -16
9 -30 18 -30 21 0 2 14 -2 30 -11 17 -9 30 -18 30 -21z m-720 22 c0 -2 -15
-13 -34 -24 -30 -18 -36 -19 -47 -6 -10 12 -9 13 4 8 8 -3 28 1 44 10 31 17
33 18 33 12z m1167 -51 c-7 -13 -14 -20 -15 -14 -2 5 2 16 8 24 18 21 20 18 7
-10z m-1630 -52 c-3 -10 -5 -4 -5 12 0 17 2 24 5 18 2 -7 2 -21 0 -30z m1620
-30 c-3 -10 -5 -2 -5 17 0 19 2 27 5 18 2 -10 2 -26 0 -35z m-1620 -35 c-3 -7
-5 -2 -5 12 0 14 2 19 5 13 2 -7 2 -19 0 -25z m1620 -20 c-3 -7 -5 -2 -5 12 0
14 2 19 5 13 2 -7 2 -19 0 -25z m-1620 -20 c-3 -8 -6 -5 -6 6 -1 11 2 17 5 13
3 -3 4 -12 1 -19z m110 -118 c57 -32 97 -49 105 -44 10 6 10 5 2 -7 -7 -8 -14
-23 -17 -34 -4 -17 -5 -16 -6 5 -1 21 -18 34 -96 79 -52 29 -102 51 -110 47
-12 -4 -13 -2 -3 14 9 15 14 16 22 6 6 -7 52 -37 103 -66z m297 61 c3 -5 -3
-11 -15 -14 -16 -4 -18 -3 -8 9 13 16 16 17 23 5z m1231 -1 c3 -6 -1 -7 -9 -4
-18 7 -21 14 -7 14 6 0 13 -4 16 -10z m-849 -15 c-36 -19 -45 -19 -20 0 10 8
26 14 34 15 8 0 2 -7 -14 -15z m834 -6 l25 -21 -27 16 c-32 19 -42 20 -32 4 4
-7 3 -8 -5 -4 -11 7 -6 26 7 26 4 0 18 -10 32 -21z m-1160 -15 c0 -2 -9 0 -20
6 -11 6 -20 13 -20 16 0 2 9 0 20 -6 11 -6 20 -13 20 -16z m420 -10 c0 -2 -13
2 -30 11 -16 9 -30 18 -30 21 0 2 14 -2 30 -11 17 -9 30 -18 30 -21z m810 10
c0 -2 -9 0 -20 6 -11 6 -20 13 -20 16 0 2 9 0 20 -6 11 -6 20 -13 20 -16z
m-1330 11 c0 -2 -10 -9 -22 -15 -22 -11 -22 -10 -4 4 21 17 26 19 26 11z
m1195 -21 c-10 -7 -22 -11 -28 -7 -6 3 -3 11 8 19 10 7 22 11 28 7 6 -3 3 -11
-8 -19z m-1615 11 c0 -2 -10 -9 -22 -15 -22 -11 -22 -10 -4 4 21 17 26 19 26
11z m800 0 c0 -2 -10 -9 -22 -15 -22 -11 -22 -10 -4 4 21 17 26 19 26 11z
m-210 -41 c0 -2 -9 0 -20 6 -11 6 -20 13 -20 16 0 2 9 0 20 -6 11 -6 20 -13
20 -16z m420 -10 c0 -2 -13 2 -30 11 -16 9 -30 18 -30 21 0 2 14 -2 30 -11 17
-9 30 -18 30 -21z m805 -17 c16 -15 -48 20 -70 38 -11 9 -2 7 20 -6 22 -12 45
-26 50 -32z m5 27 c0 -2 -9 0 -20 6 -11 6 -20 13 -20 16 0 2 9 0 20 -6 11 -6
20 -13 20 -16z m-1870 11 c0 -2 -13 -11 -30 -20 -38 -19 -40 -11 -2 9 31 17
32 18 32 11z m400 0 c0 -2 -13 -11 -30 -20 -38 -19 -40 -11 -2 9 31 17 32 18
32 11z m400 0 c0 -2 -13 -11 -30 -20 -38 -19 -40 -11 -2 9 31 17 32 18 32 11z
m805 -4 c3 -5 2 -12 -3 -15 -5 -3 -9 1 -9 9 0 17 3 19 12 6z m-28 -15 c0 -8
-6 -12 -15 -8 -11 4 -13 1 -7 -8 6 -9 4 -11 -5 -5 -10 6 -9 11 5 22 23 16 22
16 22 -1z m-854 -20 c9 5 9 4 1 -5 -9 -10 -18 -9 -43 3 -17 9 -31 19 -31 22 0
2 14 -3 30 -11 17 -9 36 -13 43 -9z"/>
<path d="M1610 1967 c0 -30 6 -36 96 -88 l96 -56 87 50 c107 62 111 66 104
100 l-5 27 -189 0 -189 0 0 -33z"/>
</g>
</svg>
