<?xml version="1.0" standalone="no"?>
<!DOCTYPE svg PUBLIC "-//W3C//DTD SVG 20010904//EN"
 "http://www.w3.org/TR/2001/REC-SVG-20010904/DTD/svg10.dtd">
<svg version="1.0" xmlns="http://www.w3.org/2000/svg"
 width="200.000000pt" height="200.000000pt" viewBox="0 0 200.000000 200.000000"
 preserveAspectRatio="xMidYMid meet">
<metadata>
Created by potrace 1.16, written by Peter Selinger 2001-2019
</metadata>
<g transform="translate(0.000000,200.000000) scale(0.100000,-0.100000)"
fill="#000000" stroke="none">
<path d="M4 1754 c1 -222 3 -247 19 -255 9 -6 17 -15 17 -22 0 -7 -4 -6 -10 3
-7 12 -12 12 -22 2 -9 -9 -9 -12 0 -12 8 0 9 -7 1 -27 -7 -19 -6 -28 2 -33 8
-6 8 -9 0 -14 -14 -9 -14 -63 0 -72 8 -4 7 -9 -2 -16 -11 -8 -11 -11 -1 -15
10 -4 10 -8 2 -18 -9 -10 -6 -19 9 -34 12 -12 21 -27 21 -33 0 -9 -3 -8 -10 2
-5 8 -13 11 -17 6 -13 -12 -12 -428 1 -445 8 -11 8 -13 -1 -8 -9 6 -12 -80
-12 -378 l0 -385 85 1 c79 1 84 3 85 23 0 21 0 21 9 -1 9 -22 9 -22 282 -22
197 0 275 4 281 12 6 9 10 9 14 0 6 -17 93 -17 93 0 0 9 2 9 8 -1 6 -9 41 -12
131 -11 114 1 122 2 118 19 -3 10 1 21 8 24 17 6 27 -18 12 -33 -7 -7 111 -10
431 -10 l442 0 0 33 c0 17 -5 37 -12 44 -8 8 -8 12 -1 12 12 0 16 178 4 198
-4 7 -3 36 2 64 7 35 7 60 -1 80 -5 15 -7 28 -2 28 11 0 10 510 -1 532 -5 9
-5 19 -1 22 12 7 13 526 1 526 -6 0 -6 7 1 19 11 22 14 90 4 115 -6 15 -8 15
-21 -1 -8 -10 -6 -2 6 17 16 29 20 52 19 128 0 58 -5 92 -11 92 -7 0 -7 4 1
12 7 7 12 27 12 45 l0 34 -137 -2 c-124 -1 -139 -3 -155 -21 -16 -19 -44 -17
-32 3 3 5 9 7 14 4 5 -3 11 -1 14 4 9 13 -135 13 -151 -1 -7 -5 -11 -14 -8
-17 2 -4 -1 -8 -8 -8 -7 0 -23 -3 -35 -7 -23 -8 -24 -8 -5 11 10 11 23 18 29
16 7 -3 15 1 19 7 5 7 -44 10 -170 10 l-176 -2 3 -31 c2 -22 8 -31 18 -29 12
3 13 1 3 -9 -7 -7 -14 -22 -14 -33 -1 -17 -2 -18 -6 -3 -2 9 -9 17 -14 17 -11
0 -51 -20 -59 -29 -3 -3 -25 -17 -50 -30 -25 -13 -53 -32 -62 -42 -13 -15 -18
-17 -25 -7 -10 17 -163 105 -189 110 -23 4 -34 17 -27 34 3 9 12 6 29 -9 14
-12 62 -43 106 -69 91 -53 84 -54 198 14 69 41 75 47 78 80 l3 36 -166 1
c-112 1 -164 -2 -160 -9 3 -5 13 -10 21 -10 8 0 14 -5 14 -11 0 -6 -7 -9 -15
-5 -8 3 -15 1 -15 -4 0 -6 -5 -10 -10 -10 -6 0 -10 6 -9 13 4 35 0 36 -161 36
-119 0 -160 -3 -160 -12 0 -9 -2 -9 -8 -1 -5 9 -82 12 -263 12 l-256 1 1 -245z
m31 226 c3 -5 -1 -10 -9 -10 -9 0 -16 5 -16 10 0 6 4 10 9 10 6 0 13 -4 16
-10z m205 0 c0 -5 -2 -10 -4 -10 -3 0 -8 5 -11 10 -3 6 -1 10 4 10 6 0 11 -4
11 -10z m106 -17 c-2 -2 -11 0 -20 3 -14 5 -15 9 -5 15 12 7 34 -10 25 -18z
m384 7 c0 -13 -5 -18 -14 -14 -8 3 -12 12 -9 20 8 21 23 17 23 -6z m419 -13
c0 -8 -2 -9 -5 -1 -3 7 -14 10 -25 7 -15 -4 -18 -2 -13 11 5 12 10 13 25 5 10
-5 19 -15 18 -22z m140 19 c9 -10 8 -15 -4 -20 -10 -4 -15 1 -15 14 0 24 4 25
19 6z m657 -8 c10 -13 12 -18 5 -11 -7 6 -20 9 -27 6 -8 -3 -14 1 -14 11 0 22
14 20 36 -6z m-1859 -7 c0 -10 -7 -17 -13 -14 -7 2 -23 -1 -36 -8 -29 -15 -17
-2 19 22 16 10 29 18 30 18 1 1 1 -8 0 -18z m403 9 c0 -5 -4 -10 -9 -10 -6 0
-13 5 -16 10 -3 6 1 10 9 10 9 0 16 -4 16 -10z m-50 -40 c0 -16 -5 -30 -11
-30 -5 0 -8 4 -4 9 3 5 1 12 -5 16 -5 3 -10 1 -10 -6 0 -7 -2 -10 -5 -7 -9 8
6 38 16 32 5 -3 9 0 9 5 0 6 2 11 5 11 3 0 5 -13 5 -30z m1140 10 c0 -5 -2
-10 -4 -10 -3 0 -8 5 -11 10 -3 6 -1 10 4 10 6 0 11 -4 11 -10z m-1235 -9 c-3
-6 2 -14 10 -19 13 -7 11 -10 -12 -20 -25 -11 -26 -11 -10 2 16 12 16 14 2 20
-17 6 -12 26 6 26 6 0 8 -4 4 -9z m1273 -9 c2 -7 -5 -12 -17 -12 -14 0 -19 5
-14 15 6 17 25 15 31 -3z m-1001 -17 c0 -17 -13 -20 -21 -6 -4 5 0 12 6 14 7
3 13 6 14 6 0 1 1 -6 1 -14z m800 0 c0 -6 -8 -12 -17 -12 -9 -1 -17 4 -17 11
0 6 8 12 17 12 9 0 17 -5 17 -11z m400 -2 c0 -18 -23 -17 -30 1 -4 10 0 14 12
13 10 0 18 -7 18 -14z m-1087 -9 c0 -8 -5 -12 -10 -9 -6 4 -8 11 -5 16 9 14
15 11 15 -7z m280 6 c0 -5 -2 -10 -4 -10 -3 0 -8 5 -11 10 -3 6 -1 10 4 10 6
0 11 -4 11 -10z m-820 -10 c0 -5 -2 -10 -4 -10 -3 0 -8 5 -11 10 -3 6 -1 10 4
10 6 0 11 -4 11 -10z m220 0 c0 -5 -5 -10 -11 -10 -5 0 -7 5 -4 10 3 6 8 10
11 10 2 0 4 -4 4 -10z m557 -22 c-3 -7 -5 -2 -5 12 0 14 2 19 5 13 2 -7 2 -19
0 -25z m973 17 c-7 -8 -18 -15 -24 -15 -6 0 -2 7 8 15 25 19 32 19 16 0z
m-1780 -10 c0 -2 -6 -5 -13 -8 -8 -3 -14 1 -14 8 0 7 6 11 14 8 7 -3 13 -6 13
-8z m1370 5 c0 -5 -5 -10 -11 -10 -5 0 -7 5 -4 10 3 6 8 10 11 10 2 0 4 -4 4
-10z m160 0 c0 -5 -4 -10 -10 -10 -5 0 -10 5 -10 10 0 6 5 10 10 10 6 0 10 -4
10 -10z m-1625 -23 c-11 -6 -21 -5 -28 3 -9 8 -7 9 7 4 13 -5 17 -4 12 4 -5 8
-2 10 10 5 15 -6 15 -7 -1 -16z m175 8 c0 -6 -8 -11 -18 -11 -10 0 -19 5 -19
11 0 6 9 11 19 11 10 0 18 -5 18 -11z m140 11 c0 -3 -4 -8 -10 -11 -5 -3 -10
-1 -10 4 0 6 5 11 10 11 6 0 10 -2 10 -4z m149 -22 c-15 -18 -22 -13 -13 10 3
9 10 13 16 10 5 -3 4 -12 -3 -20z m145 8 c2 -4 -4 -8 -14 -8 -10 0 -16 4 -14
8 3 4 9 8 14 8 5 0 11 -4 14 -8z m137 -5 c-6 -8 -7 -18 -3 -22 4 -5 -1 -5 -11
-2 -10 4 -21 7 -25 7 -9 0 32 29 42 30 5 0 3 -6 -3 -13z m684 3 c-3 -5 -12
-10 -18 -10 -7 0 -6 4 3 10 19 12 23 12 15 0z m405 5 c0 -2 -10 -9 -22 -15
-22 -11 -22 -10 -4 4 21 17 26 19 26 11z m-278 -23 c-7 -2 -10 -8 -6 -13 3 -5
-2 -9 -10 -9 -18 0 -19 2 -10 24 3 9 12 12 22 9 10 -4 12 -8 4 -11z m-1499
-17 c-7 -21 -13 -19 -13 6 0 11 4 18 10 14 5 -3 7 -12 3 -20z m148 -5 c5 0 9
-4 9 -10 0 -5 -7 -10 -15 -10 -8 0 -15 7 -15 15 0 8 -6 15 -12 15 -9 0 -8 4 2
10 11 7 16 5 18 -5 2 -8 8 -15 13 -15z m946 15 c0 -18 -19 -15 -25 3 -2 7 3
12 11 12 7 0 14 -7 14 -15z m-601 -20 c0 -17 -6 -25 -17 -25 -15 0 -15 4 -6
25 15 32 23 32 23 0z m1213 2 c-14 -13 -27 -18 -31 -12 -4 5 5 15 20 21 38 17
38 17 11 -9z m-412 -8 c-5 -9 -16 -16 -23 -16 -8 0 -12 3 -9 5 3 3 0 11 -5 17
-7 9 -3 12 18 11 24 -1 27 -4 19 -17z m-932 1 c3 -6 -1 -7 -9 -4 -18 7 -21 14
-7 14 6 0 13 -4 16 -10z m-263 -30 c-13 -10 -29 -17 -37 -13 -21 8 -7 25 15
18 10 -3 21 -1 25 5 3 5 9 10 13 10 4 -1 -3 -9 -16 -20z m310 7 c15 -12 15
-14 -5 -26 -17 -10 -19 -11 -10 -1 10 11 9 16 -5 26 -9 8 -12 13 -7 13 6 0 18
-5 27 -12z m154 -12 c0 -14 -4 -25 -8 -25 -4 0 -8 7 -8 16 0 14 -3 14 -15 4
-8 -7 -15 -8 -15 -3 0 6 10 15 23 21 12 6 22 11 23 11 0 1 0 -10 0 -24z m-276
5 c0 -5 -5 -10 -11 -10 -5 0 -7 5 -4 10 3 6 8 10 11 10 2 0 4 -4 4 -10z m509
-4 c16 -9 19 -14 10 -18 -8 -2 -22 4 -31 14 -21 21 -13 23 21 4z m408 -6 c1
-11 -2 -20 -8 -20 -5 0 -9 5 -9 11 0 7 -5 8 -13 3 -7 -5 -4 -1 6 9 24 21 22
21 24 -3z m-237 -3 c0 -7 -9 -13 -19 -13 -15 0 -17 3 -9 13 6 7 14 13 19 13 5
0 9 -6 9 -13z m404 -8 c-8 -14 -24 -10 -24 6 0 9 6 12 15 9 8 -4 12 -10 9 -15z
m244 2 c3 -8 -3 -12 -14 -9 -23 4 -31 27 -8 24 10 -2 20 -8 22 -15z m153 6
c-1 -12 -15 -9 -19 4 -3 6 1 10 8 8 6 -3 11 -8 11 -12z m-1521 -13 c0 -8 -5
-12 -10 -9 -6 4 -8 11 -5 16 9 14 15 11 15 -7z m-105 -4 c3 -5 2 -10 -4 -10
-5 0 -13 5 -16 10 -3 6 -2 10 4 10 5 0 13 -4 16 -10z m345 -4 c0 -3 -4 -8 -10
-11 -5 -3 -10 -1 -10 4 0 6 5 11 10 11 6 0 10 -2 10 -4z m191 -15 c-10 -7 -8
-12 10 -25 13 -9 18 -17 11 -17 -32 -4 -37 -3 -37 11 0 9 -8 14 -20 12 -15 -2
-12 2 10 16 17 11 32 17 35 15 2 -2 -2 -8 -9 -12z m-391 -1 c0 -5 -2 -10 -4
-10 -3 0 -8 5 -11 10 -3 6 -1 10 4 10 6 0 11 -4 11 -10z m793 -14 c11 4 15 0
13 -13 -2 -10 -8 -18 -14 -17 -30 3 -35 4 -29 11 4 3 1 13 -6 22 -10 14 -10
14 4 3 9 -7 23 -10 32 -6z m435 -7 c-11 -6 -15 -16 -11 -26 4 -11 3 -14 -5 -9
-7 4 -12 2 -12 -5 0 -7 -6 -5 -13 6 -10 12 -16 14 -21 7 -4 -7 -12 -12 -18
-12 -16 0 33 37 57 43 33 8 41 7 23 -4z m-1243 -19 c8 7 15 8 15 3 0 -8 -41
-33 -53 -33 -2 0 -3 9 -3 19 0 15 3 17 13 9 9 -7 17 -7 28 2z m-185 -30 c0 -4
-8 -10 -18 -12 -12 -3 -18 1 -18 12 0 11 6 15 18 12 10 -2 18 -8 18 -12z m395
10 c3 -5 1 -10 -4 -10 -6 0 -11 5 -11 10 0 6 2 10 4 10 3 0 8 -4 11 -10z m400
0 c3 -5 1 -10 -4 -10 -6 0 -11 5 -11 10 0 6 2 10 4 10 3 0 8 -4 11 -10z m245
0 c0 -5 -7 -7 -15 -4 -8 4 -15 8 -15 10 0 2 7 4 15 4 8 0 15 -4 15 -10z m160
0 c0 -5 -5 -10 -11 -10 -5 0 -7 5 -4 10 3 6 8 10 11 10 2 0 4 -4 4 -10z m-750
-24 c0 -2 -9 -6 -20 -9 -11 -3 -18 -1 -14 4 5 9 34 13 34 5z m273 -22 c-4 -10
-10 -11 -24 -3 -10 5 -19 12 -19 15 0 3 5 2 10 -1 6 -3 10 -2 10 4 0 6 6 8 14
5 8 -3 12 -12 9 -20z m152 16 c-3 -5 -1 -10 6 -10 10 0 10 -3 0 -12 -11 -11
-14 -10 -18 0 -3 6 -10 10 -16 6 -7 -3 -3 2 7 10 23 18 30 20 21 6z m-385 -15
c0 -2 -7 -5 -15 -9 -9 -3 -15 0 -15 9 0 9 6 12 15 9 8 -4 15 -7 15 -9z m628 0
c-2 -5 -8 -10 -15 -11 -6 -1 -9 4 -6 12 6 16 27 15 21 -1z m163 0 c1 -17 -18
-17 -25 0 -4 11 -1 15 10 13 8 -2 15 -7 15 -13z m240 2 c-1 -12 -15 -9 -19 4
-3 6 1 10 8 8 6 -3 11 -8 11 -12z m163 -8 c-3 -5 -10 -7 -15 -3 -5 3 -7 10 -3
15 3 5 10 7 15 3 5 -3 7 -10 3 -15z m-1614 -4 c0 -2 -7 -5 -15 -9 -9 -3 -15 0
-15 9 0 9 6 12 15 9 8 -4 15 -7 15 -9z m325 -15 c0 -16 -3 -30 -6 -30 -4 0 -9
14 -11 30 -3 17 0 30 6 30 6 0 11 -13 11 -30z m-480 10 c-3 -5 -11 -10 -16
-10 -6 0 -7 5 -4 10 3 6 11 10 16 10 6 0 7 -4 4 -10z m1735 1 c0 -5 -7 -12
-16 -15 -14 -5 -15 -4 -4 9 14 17 20 19 20 6z m-1335 -11 c3 -5 1 -10 -4 -10
-6 0 -11 5 -11 10 0 6 2 10 4 10 3 0 8 -4 11 -10z m453 -2 c-2 -8 7 -13 23
-13 14 0 26 -4 26 -10 0 -5 -13 -10 -28 -10 -15 0 -25 3 -23 7 2 4 0 9 -6 13
-6 4 -8 11 -5 16 9 13 15 11 13 -3z m431 -15 l22 -18 -28 0 c-21 0 -29 5 -29
18 0 9 3 17 7 17 4 0 17 -8 28 -17z m409 -4 c9 -14 8 -16 -8 -12 -22 6 -34 30
-15 30 7 0 17 -8 23 -18z m-1611 -21 c-3 -8 -6 -5 -6 6 -1 11 2 17 5 13 3 -3
4 -12 1 -19z m171 0 c10 -10 15 -10 22 2 7 12 9 11 8 -5 -2 -27 -54 -31 -54
-3 0 21 7 23 24 6z m202 8 c0 -2 -7 -7 -16 -10 -8 -3 -12 -2 -9 4 6 10 25 14
25 6z m80 -22 c0 -2 -9 0 -20 6 -11 6 -20 13 -20 16 0 2 9 0 20 -6 11 -6 20
-13 20 -16z m146 11 c-25 -19 -41 -19 -24 0 7 8 20 14 28 14 11 0 10 -3 -4
-14z m408 0 c-5 -12 -10 -13 -20 -4 -19 15 -18 19 6 19 13 0 18 -5 14 -15z
m401 -2 c-2 -10 -4 -24 -4 -32 -1 -20 -7 -11 -15 22 -5 20 -3 27 8 27 8 0 13
-7 11 -17z m-1481 -9 c8 -21 8 -24 -5 -24 -5 0 -7 5 -4 10 3 6 1 10 -4 10 -6
0 -11 5 -11 10 0 16 17 12 24 -6z m129 -12 c-18 -5 -27 3 -18 17 4 7 10 7 20
-2 11 -10 11 -13 -2 -15z m272 8 c-3 -5 -12 -10 -18 -10 -7 0 -6 4 3 10 19 12
23 12 15 0z m1365 -16 c0 -2 -9 0 -20 6 -11 6 -20 13 -20 16 0 2 9 0 20 -6 11
-6 20 -13 20 -16z m-970 12 c0 -2 -7 -7 -16 -10 -8 -3 -12 -2 -9 4 6 10 25 14
25 6z m165 -6 c3 -6 -1 -7 -9 -4 -18 7 -21 14 -7 14 6 0 13 -4 16 -10z m400 0
c3 -6 -1 -7 -9 -4 -18 7 -21 14 -7 14 6 0 13 -4 16 -10z m312 -12 c-3 -8 -6
-5 -6 6 -1 11 2 17 5 13 3 -3 4 -12 1 -19z m-600 -10 c-3 -8 -6 -5 -6 6 -1 11
2 17 5 13 3 -3 4 -12 1 -19z m-1009 3 c16 12 16 12 0 -6 -18 -19 -18 -19 -35
0 -17 18 -17 18 0 6 14 -11 20 -11 35 0z m132 2 c0 -13 61 -44 72 -37 6 4 8
-2 6 -12 -2 -10 -11 -20 -21 -22 -12 -2 -15 1 -11 12 4 12 0 16 -16 16 -11 0
-18 5 -15 10 3 6 -3 10 -14 10 -21 0 -35 13 -24 24 9 8 23 8 23 -1z m140 -14
c0 -14 -17 -10 -23 5 -4 10 -1 13 9 9 7 -3 14 -9 14 -14z m260 11 c0 -5 -4
-10 -10 -10 -5 0 -10 5 -10 10 0 6 5 10 10 10 6 0 10 -4 10 -10z m800 0 c0 -5
-2 -10 -4 -10 -3 0 -8 5 -11 10 -3 6 -1 10 4 10 6 0 11 -4 11 -10z m155 0 c3
-5 1 -10 -4 -10 -6 0 -11 5 -11 10 0 6 2 10 4 10 3 0 8 -4 11 -10z m245 0 c0
-5 -2 -10 -4 -10 -3 0 -8 5 -11 10 -3 6 -1 10 4 10 6 0 11 -4 11 -10z m-1350
-10 c0 -5 -2 -10 -4 -10 -3 0 -8 5 -11 10 -3 6 -1 10 4 10 6 0 11 -4 11 -10z
m30 -16 c0 -8 -5 -12 -10 -9 -6 4 -8 11 -5 16 9 14 15 11 15 -7z m407 1 c0 -8
-8 -15 -18 -15 -12 0 -16 5 -13 15 4 8 12 15 18 15 7 0 13 -7 13 -15z m400 0
c0 -8 -6 -15 -13 -15 -6 0 -14 7 -18 15 -3 10 1 15 13 15 10 0 18 -7 18 -15z
m393 6 c0 -6 -4 -13 -10 -16 -5 -3 -10 1 -10 9 0 9 5 16 10 16 6 0 10 -4 10
-9z m-1230 -21 c0 -5 -5 -10 -11 -10 -5 0 -7 5 -4 10 3 6 8 10 11 10 2 0 4 -4
4 -10z m230 -10 c0 -5 -9 -8 -19 -7 -10 0 -17 7 -14 13 5 13 33 8 33 -6z m410
11 c0 -14 -18 -23 -31 -15 -8 4 -7 9 2 15 18 11 29 11 29 0z m398 -8 c-14 -17
-25 -16 -32 2 -4 11 1 14 19 13 18 -2 21 -5 13 -15z m-1562 -26 c20 7 18 1 -6
-20 -19 -16 -20 -16 -19 16 1 17 3 24 6 15 2 -10 10 -15 19 -11z m239 3 c-3
-5 -12 -10 -18 -10 -7 0 -6 4 3 10 19 12 23 12 15 0z m195 -29 c0 -4 -9 -7
-19 -8 -17 -1 -19 2 -12 36 1 6 31 -21 31 -28z m-165 10 c3 -5 1 -12 -5 -16
-5 -3 -10 1 -10 9 0 18 6 21 15 7z m76 -65 c-4 -19 -5 -19 -11 -2 -3 10 -4 33
-1 50 l5 31 6 -30 c3 -16 4 -39 1 -49z m324 65 c3 -5 1 -12 -4 -15 -5 -3 -11
1 -15 9 -6 16 9 21 19 6z m165 -7 c0 -8 -4 -12 -10 -9 -5 3 -10 10 -10 16 0 5
5 9 10 9 6 0 10 -7 10 -16z m240 8 c0 -13 -12 -22 -22 -16 -10 6 -1 24 13 24
5 0 9 -4 9 -8z m169 -6 c10 -12 9 -14 -5 -12 -10 2 -20 8 -22 14 -5 17 13 15
27 -2z m235 5 c3 -5 0 -11 -8 -14 -8 -3 -17 1 -20 9 -6 15 19 20 28 5z m179
-24 c-3 -5 -9 -3 -14 4 -5 8 -9 10 -9 6 0 -5 -5 -5 -10 -2 -6 4 -8 10 -5 15 4
6 14 5 25 -2 10 -7 16 -16 13 -21z m219 18 c0 -5 -5 -11 -11 -13 -6 -2 -11 4
-11 13 0 9 5 15 11 13 6 -2 11 -8 11 -13z m-1792 -31 c0 -8 -5 -12 -10 -9 -6
4 -8 11 -5 16 9 14 15 11 15 -7z m1210 0 c0 -2 -7 -4 -15 -4 -8 0 -15 4 -15
10 0 5 7 7 15 4 8 -4 15 -8 15 -10z m470 -14 c4 0 6 -9 3 -20 -7 -25 -35 -23
-39 3 -1 9 2 15 7 11 5 -3 10 5 10 18 1 17 3 18 6 6 2 -10 8 -18 13 -18z
m-1262 -5 c-3 -3 -9 2 -12 12 -6 14 -5 15 5 6 7 -7 10 -15 7 -18z m848 9 c-4
-11 -2 -15 8 -11 10 4 13 1 10 -8 -4 -9 4 -19 20 -26 14 -7 26 -16 26 -21 0
-10 -36 7 -45 22 -4 6 -11 8 -16 5 -18 -12 -28 5 -17 30 12 28 24 35 14 9z
m-1231 -4 c-3 -5 -11 -10 -16 -10 -6 0 -7 5 -4 10 3 6 11 10 16 10 6 0 7 -4 4
-10z m424 -6 c10 7 13 0 10 -21 -1 -5 -6 -7 -12 -5 -5 2 -14 -3 -18 -10 -6 -8
-9 0 -9 22 0 24 3 31 9 21 5 -7 14 -10 20 -7z m376 6 c7 -11 33 -9 54 4 9 6 8
-2 -5 -23 l-19 -32 -19 23 c-10 13 -23 22 -27 21 -5 -2 -9 2 -9 7 0 13 17 13
25 0z m635 0 c0 -5 -2 -10 -4 -10 -3 0 -8 5 -11 10 -3 6 -1 10 4 10 6 0 11 -4
11 -10z m-1470 -20 c0 -5 -5 -10 -11 -10 -5 0 -7 5 -4 10 3 6 8 10 11 10 2 0
4 -4 4 -10z m73 -5 c0 -6 -7 -11 -16 -13 -12 -3 -15 1 -11 13 7 17 25 17 27 0z
m186 -52 c-1 -37 -1 -37 -8 -8 -7 28 -5 45 5 45 2 0 3 -17 3 -37z m416 27 c3
-6 -1 -7 -9 -4 -18 7 -21 14 -7 14 6 0 13 -4 16 -10z m790 0 c-3 -5 -12 -10
-18 -10 -7 0 -6 4 3 10 19 12 23 12 15 0z m-665 -10 c0 -5 -5 -10 -11 -10 -5
0 -7 5 -4 10 3 6 8 10 11 10 2 0 4 -4 4 -10z m935 0 c3 -5 1 -10 -4 -10 -6 0
-11 5 -11 10 0 6 2 10 4 10 3 0 8 -4 11 -10z m-1815 -5 c0 -2 -7 -8 -15 -15
-12 -10 -15 -10 -15 2 0 8 7 15 15 15 8 0 15 -1 15 -2z m1058 -18 c6 3 12 -3
12 -12 0 -12 -4 -14 -19 -6 -10 6 -21 18 -25 28 -5 16 -5 16 6 2 7 -9 19 -14
26 -12z m279 1 c-3 -8 -6 -5 -6 6 -1 11 2 17 5 13 3 -3 4 -12 1 -19z m-1072
-9 c-10 -15 -25 -10 -19 6 4 8 10 12 15 9 5 -3 7 -10 4 -15z m185 -13 c0 0
-11 -1 -25 -1 -17 0 -25 5 -25 18 0 16 2 16 25 1 14 -9 25 -17 25 -18z m219 5
c-3 -6 -10 -7 -18 -2 -7 5 -10 14 -6 21 9 14 29 -2 24 -19z m988 18 c-9 -6
-15 -15 -11 -21 4 -6 -2 -6 -15 1 -24 13 -29 26 -6 17 8 -3 15 -1 15 4 0 6 8
10 18 10 16 -1 16 -1 -1 -11z m-823 -8 c3 -5 -1 -12 -10 -15 -27 -10 -35 -7
-22 9 15 17 25 19 32 6z m400 0 c3 -5 -1 -11 -9 -15 -9 -3 -15 0 -15 9 0 16
16 20 24 6z m240 -6 c-4 -8 -10 -12 -15 -9 -14 8 -10 24 6 24 9 0 12 -6 9 -15z
m401 5 c-3 -5 -10 -10 -16 -10 -5 0 -9 5 -9 10 0 6 7 10 16 10 8 0 12 -4 9
-10z m-1885 -24 c0 -3 -4 -8 -10 -11 -5 -3 -10 -1 -10 4 0 6 5 11 10 11 6 0
10 -2 10 -4z m355 -23 c-1 -10 -8 -17 -14 -15 -7 1 -22 -3 -34 -9 -20 -11 -20
-10 3 14 29 31 50 35 45 10z m408 4 c2 -6 -2 -18 -9 -25 -9 -8 -14 -9 -14 -2
0 7 -7 7 -22 -1 -22 -12 -22 -11 2 14 28 30 36 33 43 14z m414 6 c-9 -2 -15
-8 -12 -13 3 -4 -6 -10 -20 -12 -21 -4 -23 -3 -14 13 6 12 20 19 37 18 17 -1
21 -3 9 -6z m386 -7 c4 -9 -3 -16 -19 -19 -18 -3 -22 -1 -14 8 5 6 7 15 3 18
-3 4 1 7 9 7 9 0 18 -6 21 -14z m-606 -16 c1 -11 -2 -20 -8 -20 -10 0 -12 23
-2 33 9 9 9 10 10 -13z m-797 -10 c0 -5 -5 -10 -11 -10 -5 0 -7 5 -4 10 3 6 8
10 11 10 2 0 4 -4 4 -10z m400 0 c0 -5 -4 -10 -10 -10 -5 0 -10 5 -10 10 0 6
5 10 10 10 6 0 10 -4 10 -10z m800 0 c0 -5 -4 -10 -10 -10 -5 0 -10 5 -10 10
0 6 5 10 10 10 6 0 10 -4 10 -10z m400 0 c0 -5 -4 -10 -10 -10 -5 0 -10 5 -10
10 0 6 5 10 10 10 6 0 10 -4 10 -10z m-1680 -35 c5 3 10 2 10 -3 0 -5 12 -17
26 -27 24 -15 27 -15 65 4 45 24 49 25 49 12 0 -5 -11 -12 -24 -15 -14 -3 -32
-13 -40 -22 -15 -14 -19 -13 -45 5 -31 22 -47 26 -54 14 -2 -5 -2 -3 -1 4 2 7
-13 22 -32 33 -18 12 -34 24 -34 27 0 2 16 -5 35 -17 19 -12 39 -19 45 -15z
m350 11 c0 -10 -30 0 -34 11 -4 11 -1 11 14 3 11 -6 20 -12 20 -14z m-147 0
c4 -10 1 -13 -9 -9 -15 6 -19 23 -5 23 5 0 11 -7 14 -14z m402 4 c-3 -5 -12
-10 -18 -10 -7 0 -6 4 3 10 19 12 23 12 15 0z m155 -5 c11 -13 10 -14 -4 -9
-9 3 -16 10 -16 15 0 13 6 11 20 -6z m250 10 c0 -2 -10 -9 -22 -15 -22 -11
-22 -10 -4 4 21 17 26 19 26 11z m145 -13 c-3 -3 -11 0 -18 7 -9 10 -8 11 6 5
10 -3 15 -9 12 -12z m-878 -31 c-1 -13 -8 -18 -24 -17 -22 1 -22 2 -6 14 10 7
17 18 15 23 -1 6 2 8 7 5 5 -4 9 -15 8 -25z m123 9 c0 -5 -2 -10 -4 -10 -3 0
-8 5 -11 10 -3 6 -1 10 4 10 6 0 11 -4 11 -10z m160 6 c0 -3 -4 -8 -10 -11 -5
-3 -10 -1 -10 4 0 6 5 11 10 11 6 0 10 -2 10 -4z m240 -6 c0 -5 -2 -10 -4 -10
-3 0 -8 5 -11 10 -3 6 -1 10 4 10 6 0 11 -4 11 -10z m160 6 c0 -3 -4 -8 -10
-11 -5 -3 -10 -1 -10 4 0 6 5 11 10 11 6 0 10 -2 10 -4z m245 -6 c3 -5 2 -10
-4 -10 -5 0 -13 5 -16 10 -3 6 -2 10 4 10 5 0 13 -4 16 -10z m395 0 c0 -5 -2
-10 -4 -10 -3 0 -8 5 -11 10 -3 6 -1 10 4 10 6 0 11 -4 11 -10z m160 0 c0 -5
-2 -10 -4 -10 -3 0 -8 5 -11 10 -3 6 -1 10 4 10 6 0 11 -4 11 -10z m-1080 -20
c0 -5 -4 -10 -10 -10 -5 0 -10 5 -10 10 0 6 5 10 10 10 6 0 10 -4 10 -10z
m400 0 c0 -5 -4 -10 -10 -10 -5 0 -10 5 -10 10 0 6 5 10 10 10 6 0 10 -4 10
-10z m405 0 c-3 -5 -10 -10 -16 -10 -5 0 -9 5 -9 10 0 6 7 10 16 10 8 0 12 -4
9 -10z m-1035 -10 c0 -5 -2 -10 -4 -10 -3 0 -8 5 -11 10 -3 6 -1 10 4 10 6 0
11 -4 11 -10z m-515 -18 c-3 -3 -11 0 -18 7 -9 10 -8 11 6 5 10 -3 15 -9 12
-12z m550 8 c-3 -5 -11 -10 -16 -10 -6 0 -7 5 -4 10 3 6 11 10 16 10 6 0 7 -4
4 -10z m405 0 c0 -5 -6 -10 -14 -10 -8 0 -18 5 -21 10 -3 6 3 10 14 10 12 0
21 -4 21 -10z m398 -2 c-3 -7 -11 -13 -18 -13 -7 0 -15 6 -17 13 -3 7 4 12 17
12 13 0 20 -5 18 -12z m402 3 c0 -18 -18 -21 -30 -6 -10 13 -9 15 9 15 11 0
21 -4 21 -9z m-1535 -41 c-3 -5 -11 -10 -16 -10 -6 0 -7 5 -4 10 3 6 11 10 16
10 6 0 7 -4 4 -10z m1453 -11 c11 -14 9 -16 -13 -11 -21 3 -23 7 -14 18 7 8
12 13 13 12 1 -2 7 -10 14 -19z m-1213 1 c3 -5 1 -10 -4 -10 -6 0 -11 5 -11
10 0 6 2 10 4 10 3 0 8 -4 11 -10z m80 0 c3 -5 1 -10 -4 -10 -6 0 -11 5 -11
10 0 6 2 10 4 10 3 0 8 -4 11 -10z m85 0 c0 -5 -4 -10 -10 -10 -5 0 -10 5 -10
10 0 6 5 10 10 10 6 0 10 -4 10 -10z m238 1 c10 -6 10 -10 -3 -21 -8 -7 -15
-10 -15 -7 0 3 -3 12 -6 21 -7 17 3 20 24 7z m168 -11 c0 -21 -11 -26 -21 -10
-4 6 -12 8 -18 4 -7 -3 -3 2 7 10 26 21 32 20 32 -4z m234 11 c0 -17 -18 -21
-24 -6 -3 9 0 15 9 15 8 0 15 -4 15 -9z m164 -6 c-4 -8 -10 -12 -15 -9 -14 8
-10 24 6 24 9 0 12 -6 9 -15z m413 -1 c17 -17 17 -29 0 -15 -8 6 -16 9 -19 6
-3 -3 -10 1 -16 8 -9 11 -8 14 6 14 9 0 22 -6 29 -13z m-1252 -14 c-3 -5 -12
-10 -18 -10 -7 0 -6 4 3 10 19 12 23 12 15 0z m645 0 c0 -5 -2 -10 -4 -10 -3
0 -8 5 -11 10 -3 6 -1 10 4 10 6 0 11 -4 11 -10z m-1096 -15 c3 -8 1 -15 -4
-15 -6 0 -10 7 -10 15 0 8 2 15 4 15 2 0 6 -7 10 -15z m214 -2 c-9 -10 -13
-24 -11 -31 4 -11 2 -11 -15 -1 -23 15 -20 26 12 39 30 12 31 12 14 -7z m267
-11 c-3 -3 -11 0 -18 7 -9 10 -8 11 6 5 10 -3 15 -9 12 -12z m1285 -4 c0 -6
-6 -5 -15 2 -8 7 -15 14 -15 16 0 2 7 1 15 -2 8 -4 15 -11 15 -16z m-748 -17
c-13 -23 -20 -27 -33 -20 -12 6 -19 5 -22 -4 -3 -6 -4 -2 -4 9 1 15 6 20 16
16 9 -3 12 -1 7 6 -4 6 4 12 21 15 16 2 29 5 30 6 1 0 -5 -12 -15 -28z m-408
7 c-5 -7 -2 -9 8 -6 8 4 15 0 15 -8 0 -7 -4 -11 -8 -9 -4 3 -14 2 -23 -1 -13
-5 -14 -9 -5 -20 15 -18 -1 -17 -25 1 -10 8 -23 12 -27 9 -5 -3 -9 -3 -9 0 0
3 10 10 21 17 15 8 19 8 15 0 -4 -6 -3 -11 2 -11 16 0 22 13 11 27 -9 10 -7
13 10 13 14 0 20 -4 15 -12z m806 -9 c0 -14 -5 -19 -17 -17 -26 5 -29 38 -4
38 15 0 21 -6 21 -21z m-1210 -39 c0 -5 -4 -10 -10 -10 -5 0 -10 5 -10 10 0 6
5 10 10 10 6 0 10 -4 10 -10z m1140 6 c0 -2 -7 -7 -16 -10 -8 -3 -12 -2 -9 4
6 10 25 14 25 6z m-945 -16 c3 -5 1 -10 -4 -10 -6 0 -11 5 -11 10 0 6 2 10 4
10 3 0 8 -4 11 -10z m1315 0 c0 -5 -5 -10 -11 -10 -5 0 -7 5 -4 10 3 6 8 10
11 10 2 0 4 -4 4 -10z m-1545 -10 c-3 -5 -12 -10 -18 -10 -7 0 -6 4 3 10 19
12 23 12 15 0z m185 -22 c0 -4 -11 -2 -25 4 -14 6 -25 15 -25 19 0 4 11 2 25
-4 14 -7 25 -15 25 -19z m125 15 c-1 -10 3 -24 9 -32 9 -12 7 -12 -14 -1 -14
8 -28 13 -32 12 -5 -1 -8 3 -8 9 0 6 9 8 20 4 11 -4 20 -3 19 2 -2 12 0 23 5
23 2 0 3 -8 1 -17z m239 11 c9 -3 13 -10 10 -15 -8 -14 -21 -11 -28 6 -6 17
-4 18 18 9z m170 -9 c-4 -8 -12 -15 -20 -15 -17 0 -18 17 -1 23 22 9 27 7 21
-8z m253 -1 c0 -7 -7 -10 -15 -6 -10 3 -13 1 -8 -6 4 -6 -1 -10 -13 -9 -14 1
-16 5 -9 17 12 18 45 21 45 4z m142 -13 c-15 -5 -22 6 -14 19 6 9 10 9 16 -1
5 -8 4 -15 -2 -18z m118 7 c-3 -8 -6 -5 -6 6 -1 11 2 17 5 13 3 -3 4 -12 1
-19z m131 3 c-7 -11 -16 -17 -20 -15 -14 9 -9 22 10 27 9 3 18 5 20 6 1 0 -3
-8 -10 -18z m157 -9 c-8 -8 -25 10 -19 20 4 6 9 5 15 -3 4 -7 6 -15 4 -17z
m-1490 -10 c-8 -8 -25 10 -19 20 4 6 9 5 15 -3 4 -7 6 -15 4 -17z m-187 3 c3
-3 -4 -5 -16 -5 -11 0 -23 4 -27 9 -6 10 33 6 43 -4z m1562 -15 c0 -5 -2 -10
-4 -10 -3 0 -8 5 -11 10 -3 6 -1 10 4 10 6 0 11 -4 11 -10z m-1494 -19 c0 -16
-3 -17 -14 -9 -12 10 -7 19 13 28 1 0 1 -9 1 -19z m324 15 c0 -3 -4 -8 -10
-11 -5 -3 -10 -1 -10 4 0 6 5 11 10 11 6 0 10 -2 10 -4z m400 -5 c0 -16 180
-113 200 -108 17 4 18 3 5 -17 -16 -24 -19 -212 -4 -221 13 -9 11 -26 -3 -23
-16 3 -78 -22 -78 -31 0 -4 -15 -13 -34 -19 -19 -7 -49 -26 -66 -42 -31 -29
-32 -29 -48 -11 -21 23 -160 102 -183 104 -13 1 -14 5 -6 18 9 15 12 16 22 3
6 -8 20 -20 32 -27 110 -62 149 -82 161 -79 7 2 51 26 98 53 l84 50 -1 107 c0
60 -3 113 -7 118 -9 12 -167 104 -180 104 -15 0 -173 -91 -193 -111 -20 -20
-31 -23 -42 -12 -9 9 12 33 30 33 8 0 47 19 86 43 40 23 80 45 90 49 9 4 17
12 17 18 0 5 5 10 10 10 6 0 10 -4 10 -9z m408 -9 c2 -6 -6 -10 -16 -9 -12 1
-18 6 -15 14 6 16 25 13 31 -5z m400 0 c2 -7 -5 -12 -17 -12 -14 0 -19 5 -14
15 6 17 25 15 31 -3z m-1333 -12 c3 -6 -1 -7 -9 -4 -18 7 -21 14 -7 14 6 0 13
-4 16 -10z m132 -12 c-3 -8 -6 -5 -6 6 -1 11 2 17 5 13 3 -3 4 -12 1 -19z
m598 -16 c-1 -1 -10 0 -19 4 -13 5 -14 9 -4 21 10 13 13 13 19 -4 3 -10 5 -19
4 -21z m-404 15 c-6 -8 -7 -18 -3 -22 4 -5 -1 -5 -11 -2 -10 4 -21 7 -25 7 -9
0 32 29 42 30 5 0 3 -6 -3 -13z m804 3 c3 -5 -1 -10 -9 -10 -9 0 -16 5 -16 10
0 6 4 10 9 10 6 0 13 -4 16 -10z m-1548 -17 c-4 -3 -1 -13 6 -21 11 -13 9 -14
-10 -1 -16 9 -19 16 -10 21 15 9 23 10 14 1z m58 -3 c3 -5 1 -10 -4 -10 -6 0
-11 5 -11 10 0 6 2 10 4 10 3 0 8 -4 11 -10z m175 -16 c0 -2 -9 0 -20 6 -11 6
-20 13 -20 16 0 2 9 0 20 -6 11 -6 20 -13 20 -16z m110 11 c-10 -13 -9 -19 6
-36 23 -25 27 -49 8 -49 -8 0 -14 5 -14 10 0 6 -6 10 -13 10 -9 0 -11 12 -9
40 3 27 9 40 19 40 13 0 13 -3 3 -15z m124 -1 c4 -10 1 -14 -6 -12 -15 5 -23
28 -10 28 5 0 13 -7 16 -16z m145 -5 c-22 -13 -31 -11 -17 5 7 8 17 12 22 9 4
-3 2 -9 -5 -14z m651 11 c0 -5 -5 -10 -11 -10 -5 0 -7 5 -4 10 3 6 8 10 11 10
2 0 4 -4 4 -10z m400 0 c0 -5 -5 -10 -11 -10 -5 0 -7 5 -4 10 3 6 8 10 11 10
2 0 4 -4 4 -10z m154 1 c3 -5 -1 -11 -9 -14 -9 -4 -12 -1 -8 9 6 16 10 17 17
5z m-1624 -16 c0 -2 -7 -8 -15 -15 -12 -10 -15 -10 -15 2 0 8 7 15 15 15 8 0
15 -1 15 -2z m1265 -13 c-3 -3 -11 0 -18 7 -9 10 -8 11 6 5 10 -3 15 -9 12
-12z m160 0 c-3 -3 -11 0 -18 7 -9 10 -8 11 6 5 10 -3 15 -9 12 -12z m-952
-12 c3 -11 2 -20 -3 -20 -12 0 -31 26 -23 33 11 12 21 7 26 -13z m237 10 c0
-5 -2 -10 -4 -10 -3 0 -8 5 -11 10 -3 6 -1 10 4 10 6 0 11 -4 11 -10z m-350
-21 c0 -18 -2 -20 -15 -9 -13 11 -13 15 -3 21 18 12 18 12 18 -12z m780 11
c13 -9 13 -11 0 -20 -22 -14 -26 -12 -26 10 0 22 4 24 26 10z m424 -5 c-4 -8
-12 -15 -20 -15 -20 0 -17 18 4 23 9 3 18 5 19 6 1 0 0 -6 -3 -14z m-1614 1
c0 -3 -4 -8 -10 -11 -5 -3 -10 -1 -10 4 0 6 5 11 10 11 6 0 10 -2 10 -4z m800
-6 c0 -5 -4 -10 -10 -10 -5 0 -10 5 -10 10 0 6 5 10 10 10 6 0 10 -4 10 -10z
m-765 -20 c3 -5 1 -10 -4 -10 -6 0 -11 5 -11 10 0 6 2 10 4 10 3 0 8 -4 11
-10z m725 0 c0 -5 -5 -10 -11 -10 -5 0 -7 5 -4 10 3 6 8 10 11 10 2 0 4 -4 4
-10z m644 -5 c-4 -8 -10 -15 -15 -15 -5 0 -9 7 -9 15 0 8 7 15 15 15 9 0 12
-6 9 -15z m-1246 -9 c-2 -1 -10 -7 -18 -13 -13 -10 -16 -8 -16 6 0 13 6 17 19
13 10 -2 16 -5 15 -6z m-318 0 c0 -3 -4 -8 -10 -11 -5 -3 -10 -1 -10 4 0 6 5
11 10 11 6 0 10 -2 10 -4z m490 0 c0 -3 -4 -8 -10 -11 -5 -3 -10 -1 -10 4 0 6
5 11 10 11 6 0 10 -2 10 -4z m1105 -6 c3 -5 2 -10 -4 -10 -5 0 -13 5 -16 10
-3 6 -2 10 4 10 5 0 13 -4 16 -10z m335 0 c0 -5 -8 -10 -17 -10 -15 0 -16 2
-3 10 19 12 20 12 20 0z m-1116 -22 c-4 -7 2 -8 17 -3 27 8 24 3 -6 -13 -18
-9 -21 -7 -23 14 -1 15 2 23 8 19 6 -4 7 -11 4 -17z m437 8 c12 6 12 5 0 -9
-19 -23 -31 -21 -31 6 0 16 3 18 9 8 5 -8 14 -10 22 -5z m-1216 -5 c3 -5 1
-12 -4 -15 -5 -3 -11 1 -15 9 -6 16 9 21 19 6z m654 -14 c11 -16 10 -17 -8 -8
-26 14 -34 14 -25 -1 4 -7 3 -9 -1 -5 -5 4 -10 13 -11 20 -3 20 32 15 45 -6z
m391 6 c0 -6 -4 -15 -10 -18 -5 -3 -10 -1 -10 5 0 6 -4 9 -8 6 -5 -3 -9 0 -9
7 0 7 9 13 19 13 10 0 18 -6 18 -13z m399 -12 c-15 -5 -22 6 -14 19 6 9 10 9
16 -1 5 -8 4 -15 -2 -18z m165 8 c-8 -14 -24 -10 -24 6 0 9 6 12 15 9 8 -4 12
-10 9 -15z m239 7 c3 -8 -2 -16 -14 -19 -16 -4 -17 -2 -8 14 12 23 15 23 22 5z
m-1555 -15 c-13 -21 -45 -24 -45 -4 0 6 4 10 9 7 4 -3 16 0 25 5 24 14 25 14
11 -8z m65 3 c9 -4 17 -11 17 -16 0 -5 -4 -7 -9 -3 -5 3 -12 1 -16 -5 -3 -5
-12 -10 -18 -10 -7 0 -6 4 3 10 13 8 12 11 -5 25 -11 9 -13 14 -5 11 8 -3 23
-9 33 -12z m54 10 c-3 -3 -12 -4 -19 -1 -8 3 -5 6 6 6 11 1 17 -2 13 -5z m995
-26 c-7 -7 -12 -8 -12 -2 0 14 12 26 19 19 2 -3 -1 -11 -7 -17z m316 -60 c-19
-11 -27 -10 -23 5 1 6 6 28 11 47 l8 35 8 -39 c6 -29 5 -42 -4 -48z m-1273 62
c3 -5 1 -10 -4 -10 -6 0 -11 5 -11 10 0 6 2 10 4 10 3 0 8 -4 11 -10z m1205
-10 c0 -5 -2 -10 -4 -10 -3 0 -8 5 -11 10 -3 6 -1 10 4 10 6 0 11 -4 11 -10z
m-770 -15 c0 -8 -4 -15 -9 -15 -13 0 -22 16 -14 24 11 11 23 6 23 -9z m-347
-15 c-6 -24 -16 -25 -34 -3 -8 10 -9 14 -2 10 6 -4 14 -3 18 3 11 18 23 11 18
-10z m413 8 c5 -7 3 -8 -6 -3 -10 6 -12 4 -7 -9 4 -10 3 -15 -3 -11 -6 3 -10
1 -10 -6 0 -10 -2 -10 -12 0 -11 10 -9 15 6 27 24 17 23 17 32 2z m370 -2 c21
-16 19 -20 -12 -30 -19 -6 -22 -3 -20 19 1 29 5 30 32 11z m-1361 -14 c-3 -3
-11 0 -18 7 -9 10 -8 11 6 5 10 -3 15 -9 12 -12z m165 8 c0 -5 -4 -10 -10 -10
-5 0 -10 5 -10 10 0 6 5 10 10 10 6 0 10 -4 10 -10z m320 0 c0 -5 -2 -10 -4
-10 -3 0 -8 5 -11 10 -3 6 -1 10 4 10 6 0 11 -4 11 -10z m-285 -20 c3 -5 1
-10 -4 -10 -6 0 -11 5 -11 10 0 6 2 10 4 10 3 0 8 -4 11 -10z m330 -10 c3 -5
2 -10 -4 -10 -5 0 -13 5 -16 10 -3 6 -2 10 4 10 5 0 13 -4 16 -10z m400 0 c-3
-5 -11 -10 -16 -10 -6 0 -7 5 -4 10 3 6 11 10 16 10 6 0 7 -4 4 -10z m-442
-20 c-3 -12 -8 -19 -11 -16 -5 6 5 36 12 36 2 0 2 -9 -1 -20z m267 10 c-20
-13 -33 -13 -25 0 3 6 14 10 23 10 15 0 15 -2 2 -10z m-360 -31 c22 -12 43
-26 46 -31 4 -6 -3 -5 -15 1 -25 14 -42 7 -34 -14 3 -9 -1 -15 -11 -15 -9 0
-16 8 -16 21 0 11 4 18 9 14 5 -3 12 -1 16 4 3 6 -7 17 -22 25 -15 8 -25 15
-21 16 4 0 26 -9 48 -21z m887 15 c-3 -3 -12 -4 -19 -1 -8 3 -5 6 6 6 11 1 17
-2 13 -5z m619 -13 c-10 -10 -26 -21 -36 -24 -16 -4 -17 -2 -8 13 7 10 17 16
24 13 6 -2 15 0 19 6 3 6 9 11 12 11 3 0 -2 -9 -11 -19z m-1776 5 c0 -11 -19
-15 -25 -6 -3 5 1 10 9 10 9 0 16 -2 16 -4z m184 -21 c-24 -18 -31 -19 -31 -1
0 8 6 12 13 9 6 -2 15 1 19 7 4 6 10 9 13 6 3 -4 -3 -13 -14 -21z m396 1 c0
-10 -30 0 -34 11 -4 11 -1 11 14 3 11 -6 20 -12 20 -14z m151 -2 c10 -12 8
-13 -14 -5 -21 8 -27 7 -30 -7 -3 -9 -4 -5 -4 9 1 20 5 25 19 21 9 -2 23 -11
29 -18z m218 0 c-34 -19 -42 -17 -21 4 9 10 23 16 31 14 9 -4 6 -9 -10 -18z
m174 7 c-4 -3 -11 -10 -15 -15 -5 -5 -8 0 -8 12 0 15 4 20 16 15 9 -3 12 -9 7
-12z m231 13 c18 -7 12 -24 -10 -24 -8 0 -14 7 -14 15 0 17 2 18 24 9z m174
-6 c-6 -18 -25 -21 -31 -5 -3 8 3 13 15 14 10 1 18 -3 16 -9z m-1622 -37 c12
9 13 9 9 -3 -7 -18 79 -73 97 -62 7 4 8 3 4 -4 -4 -7 -2 -12 5 -12 7 0 10 -3
6 -6 -3 -4 -43 14 -88 40 -45 25 -87 46 -93 46 -6 0 -5 4 3 9 9 6 19 4 29 -5
11 -11 17 -12 28 -3z m709 1 c-3 -3 -11 0 -18 7 -9 10 -8 11 6 5 10 -3 15 -9
12 -12z m-435 -6 c0 -3 -4 -8 -10 -11 -5 -3 -10 -1 -10 4 0 6 5 11 10 11 6 0
10 -2 10 -4z m380 -6 c0 -5 -2 -10 -4 -10 -3 0 -8 5 -11 10 -3 6 -1 10 4 10 6
0 11 -4 11 -10z m547 -12 c-3 -8 -6 -5 -6 6 -1 11 2 17 5 13 3 -3 4 -12 1 -19z
m349 0 c10 -13 12 -18 5 -11 -7 6 -20 9 -27 6 -8 -3 -14 1 -14 11 0 22 14 20
36 -6z m-1321 -8 c-3 -5 -12 -10 -18 -10 -7 0 -6 4 3 10 19 12 23 12 15 0z
m125 -11 c0 -5 -7 -9 -15 -9 -8 0 -15 7 -15 15 0 9 6 12 15 9 8 -4 15 -10 15
-15z m335 11 c3 -6 -1 -7 -9 -4 -18 7 -21 14 -7 14 6 0 13 -4 16 -10z m645 -1
c0 -4 -6 -9 -13 -12 -8 -3 -14 0 -14 7 0 7 6 13 14 13 7 0 13 -4 13 -8z m400
-9 c-6 -11 -15 -18 -20 -15 -13 8 0 35 16 35 12 0 12 -4 4 -20z m-1076 -5 c3
-8 1 -15 -4 -15 -6 0 -10 7 -10 15 0 8 2 15 4 15 2 0 6 -7 10 -15z m275 -2 c0
-11 -3 -13 -6 -5 -2 6 -10 9 -15 6 -7 -4 -8 -2 -4 4 11 18 26 14 25 -5z m266
-11 c-3 -3 -11 0 -18 7 -9 10 -8 11 6 5 10 -3 15 -9 12 -12z m-905 -2 c8 -5
11 -10 5 -10 -5 0 -17 5 -25 10 -8 5 -10 10 -5 10 6 0 17 -5 25 -10z m1160 0
c0 -5 -5 -10 -11 -10 -5 0 -7 5 -4 10 3 6 8 10 11 10 2 0 4 -4 4 -10z m171 -7
c13 -15 12 -15 -8 -4 -24 12 -29 21 -14 21 5 0 15 -7 22 -17z m-1629 -23 c26
-16 52 -30 56 -30 9 -1 59 -39 50 -40 -4 0 -34 16 -67 36 -39 23 -67 34 -78
30 -10 -4 -14 -4 -10 0 4 4 2 13 -4 21 -18 21 0 15 53 -17z m168 20 c0 -5 -5
-10 -11 -10 -5 0 -7 5 -4 10 3 6 8 10 11 10 2 0 4 -4 4 -10z m90 -9 c0 -10 -6
-21 -14 -24 -11 -4 -11 -1 -2 19 13 29 16 30 16 5z m213 1 c-10 -7 -17 -17
-16 -21 1 -3 -6 -7 -16 -7 -10 0 -18 6 -18 12 0 7 6 10 14 7 7 -3 13 1 13 9 0
7 9 14 21 14 19 0 19 -1 2 -14z m97 -1 c27 -16 29 -19 13 -25 -9 -4 -14 -4
-10 0 4 4 -5 16 -20 26 -37 24 -22 23 17 -1z m139 -5 c9 -10 8 -15 -4 -20 -10
-4 -15 1 -15 14 0 24 4 25 19 6z m716 4 c-3 -5 -12 -10 -18 -10 -7 0 -6 4 3
10 19 12 23 12 15 0z m400 0 c-3 -5 -12 -10 -18 -10 -7 0 -6 4 3 10 19 12 23
12 15 0z m-696 -16 c5 3 11 0 14 -8 4 -10 -2 -13 -18 -12 -13 0 -21 3 -19 5 2
2 -2 11 -9 20 -10 14 -10 14 5 3 9 -8 21 -11 27 -8z m-583 -23 c0 -23 -4 -29
-18 -28 -17 1 -18 3 -3 13 9 6 15 16 14 20 -2 12 0 24 4 24 2 0 3 -13 3 -29z
m998 12 c3 -7 -1 -13 -8 -13 -8 0 -16 6 -19 13 -3 8 1 14 9 14 7 0 15 -6 18
-14z m-191 -19 c-20 -20 -28 -23 -34 -12 -5 7 -9 18 -9 23 0 6 4 4 8 -2 6 -10
12 -10 28 2 31 23 35 17 7 -11z m-1155 7 c11 -7 10 -9 -3 -14 -10 -5 -14 -3
-9 4 4 7 1 10 -7 7 -8 -3 -13 -12 -11 -20 2 -15 -36 -33 -47 -23 -2 3 1 5 7 5
7 0 12 7 12 15 0 7 8 19 18 24 21 13 24 13 40 2z m212 -2 c0 -3 -9 -9 -19 -12
-13 -3 -18 0 -15 7 5 13 34 18 34 5z m1340 -4 c-14 -17 -30 -20 -30 -6 0 5 8
12 18 14 9 3 19 5 21 6 2 0 -2 -6 -9 -14z m-1130 -40 c0 -2 -7 -1 -17 2 -9 4
-14 2 -10 -3 3 -5 -3 -10 -14 -10 -18 0 -18 2 -5 12 9 6 12 15 8 19 -4 4 3 2
16 -4 12 -6 22 -14 22 -16z m210 15 c0 -5 -5 -10 -11 -10 -5 0 -7 5 -4 10 3 6
8 10 11 10 2 0 4 -4 4 -10z m870 0 c0 -5 -8 -10 -17 -10 -15 0 -16 2 -3 10 19
12 20 12 20 0z m-1440 -10 c0 -5 -2 -10 -4 -10 -3 0 -8 5 -11 10 -3 6 -1 10 4
10 6 0 11 -4 11 -10z m995 0 c-3 -5 -1 -10 6 -10 10 0 10 -3 1 -12 -10 -10
-15 -10 -22 2 -6 9 -5 17 3 22 16 10 19 10 12 -2z m166 -15 c0 -6 -7 -12 -17
-13 -10 -3 -14 0 -10 7 4 6 2 11 -3 11 -6 0 -11 4 -11 10 0 5 9 6 21 2 11 -5
20 -12 20 -17z m-1341 11 c0 -3 -4 -8 -10 -11 -5 -3 -10 -1 -10 4 0 6 5 11 10
11 6 0 10 -2 10 -4z m797 -11 c0 -6 -8 -11 -17 -11 -9 0 -17 5 -17 11 0 6 8
11 17 11 9 0 17 -5 17 -11z m147 0 c3 -9 0 -15 -9 -15 -16 0 -27 14 -18 24 10
10 21 7 27 -9z m635 -14 c-15 -5 -22 6 -14 19 6 9 10 9 16 -1 5 -8 4 -15 -2
-18z m159 13 c-1 -5 -9 -9 -16 -10 -10 -2 -11 1 -1 12 12 14 24 13 17 -2z
m-1275 -16 c-6 -11 -31 -10 -37 1 -3 5 5 8 18 7 13 0 22 -4 19 -8z m-538 -16
c-3 -3 -11 0 -18 7 -9 10 -8 11 6 5 10 -3 15 -9 12 -12z m260 -10 c-8 -8 -25
10 -19 20 4 6 9 5 15 -3 4 -7 6 -15 4 -17z m475 18 c0 -5 -5 -10 -11 -10 -5 0
-7 5 -4 10 3 6 8 10 11 10 2 0 4 -4 4 -10z m1117 4 c-3 -3 -12 -4 -19 -1 -8 3
-5 6 6 6 11 1 17 -2 13 -5z m-1153 -12 c2 -4 1 -14 -5 -22 -5 -8 -9 -13 -10
-10 0 3 -2 13 -4 23 -3 17 10 24 19 9z m801 -12 c3 -5 1 -10 -4 -10 -6 0 -11
5 -11 10 0 6 2 10 4 10 3 0 8 -4 11 -10z m29 -2 c-5 -7 -2 -9 9 -5 13 5 14 2
5 -24 -9 -27 -11 -28 -23 -12 -12 16 -4 53 11 53 3 0 2 -5 -2 -12z m216 8 c0
-3 -4 -8 -10 -11 -5 -3 -10 -1 -10 4 0 6 5 11 10 11 6 0 10 -2 10 -4z m-1370
-10 c0 -2 -7 -7 -16 -10 -8 -3 -12 -2 -9 4 6 10 25 14 25 6z m763 -14 c5 -8 6
-16 2 -20 -7 -8 -37 10 -42 25 -5 15 30 11 40 -5z m-1047 -19 c-6 -6 -36 9
-36 18 0 5 9 4 20 -3 10 -7 18 -14 16 -15z m651 2 c-15 -16 -28 -10 -21 10 3
7 12 11 19 8 11 -4 12 -8 2 -18z m-377 -22 c0 -1 -11 2 -25 9 -13 6 -22 15
-19 19 4 7 44 -19 44 -28z m-209 14 c-6 -8 -8 -16 -6 -19 3 -3 -6 -3 -21 0
l-27 5 24 13 c31 17 44 17 30 1z m373 -5 c3 -5 -1 -9 -9 -9 -8 0 -12 4 -9 9 3
4 7 8 9 8 2 0 6 -4 9 -8z m176 4 c0 -3 -4 -8 -10 -11 -5 -3 -10 -1 -10 4 0 6
5 11 10 11 6 0 10 -2 10 -4z m230 -6 c0 -5 -7 -10 -16 -10 -8 0 -12 5 -9 10 3
6 10 10 16 10 5 0 9 -4 9 -10z m805 0 c3 -5 1 -10 -4 -10 -6 0 -11 5 -11 10 0
6 2 10 4 10 3 0 8 -4 11 -10z m-1149 -17 c-1 -13 6 -18 22 -17 29 1 28 -2 -9
-20 -27 -14 -30 -14 -18 0 10 13 9 16 -10 21 -20 5 -20 6 -4 19 10 7 19 14 19
14 1 0 1 -8 0 -17z m-521 -2 c3 -5 1 -12 -5 -16 -5 -3 -10 1 -10 9 0 18 6 21
15 7z m450 -19 c29 -16 2 -15 -30 2 -17 9 -22 16 -13 18 7 3 15 2 18 -2 3 -4
14 -12 25 -18z m337 0 c-7 -2 -10 -8 -7 -12 3 -5 -4 -8 -15 -7 -18 1 -19 3 -6
13 9 6 13 14 9 18 -4 4 1 4 12 0 11 -5 14 -9 7 -12z m152 6 c-5 -8 -1 -9 12
-5 18 7 18 6 -1 -8 -12 -10 -21 -12 -23 -5 -2 5 -9 8 -15 4 -7 -3 -3 2 7 10
23 19 30 20 20 4z m237 -1 c14 4 18 1 14 -9 -9 -22 -41 -17 -42 7 -1 11 1 15
3 9 3 -7 14 -10 25 -7z m578 -3 c4 3 8 -1 8 -8 0 -8 -6 -13 -13 -12 -20 3 -27
13 -18 27 6 10 9 10 12 1 2 -7 7 -10 11 -8z m-1372 -8 c0 -8 -6 -12 -15 -9
-11 5 -11 7 0 14 7 5 13 9 14 9 0 0 1 -6 1 -14z m964 -1 c1 -17 -18 -17 -25 0
-4 11 -1 15 10 13 8 -2 15 -7 15 -13z m249 5 c0 -16 -17 -20 -34 -7 -15 11
-15 13 8 15 14 1 26 -2 26 -8z m-1625 -10 c-3 -5 -14 -10 -23 -9 -14 0 -13 2
3 9 27 11 27 11 20 0z m174 7 c-2 -1 -13 -9 -24 -17 -19 -14 -19 -14 -6 3 7 9
18 17 24 17 6 0 8 -1 6 -3z m41 -27 c0 -5 -2 -10 -4 -10 -3 0 -8 5 -11 10 -3
6 -1 10 4 10 6 0 11 -4 11 -10z m-187 -33 c-4 -20 -3 -21 10 -5 8 10 17 15 20
11 7 -6 -22 -32 -35 -33 -5 0 -8 14 -8 31 0 16 4 28 9 25 5 -3 7 -16 4 -29z
m93 18 c-1 -8 -6 -18 -11 -22 -4 -4 -5 -2 0 6 6 10 2 12 -16 7 -24 -7 -24 -7
1 8 14 9 26 15 27 16 1 0 0 -7 -1 -15z m771 8 c-4 -3 0 -11 8 -17 13 -9 10
-11 -13 -11 -25 0 -28 2 -18 18 6 9 15 17 20 17 5 0 6 -3 3 -7z m410 -13 c9
-12 7 -15 -17 -15 -27 0 -27 1 -13 18 9 9 17 16 17 15 1 -2 7 -10 13 -18z
m402 -3 c12 -15 12 -17 -2 -11 -12 4 -15 0 -11 -18 4 -23 4 -23 -6 1 -9 20 -6
64 3 50 1 -2 9 -12 16 -22z m-1173 -19 c19 -11 34 -22 34 -25 0 -3 -16 5 -36
16 -20 12 -44 21 -53 20 -26 -2 -33 0 -26 11 8 13 35 5 81 -22z m-236 -4 c0
-8 -5 -12 -10 -9 -6 4 -8 11 -5 16 9 14 15 11 15 -7z m400 0 c0 -8 -5 -12 -10
-9 -6 4 -8 11 -5 16 9 14 15 11 15 -7z m400 6 c0 -5 -4 -10 -9 -10 -6 0 -13 5
-16 10 -3 6 1 10 9 10 9 0 16 -4 16 -10z m405 -7 c-2 -10 -4 -20 -4 -23 -2 -7
-21 23 -21 33 0 4 6 7 14 7 8 0 13 -8 11 -17z m-1418 -14 c-9 -6 -15 -14 -12
-20 7 -11 -8 -12 -19 -2 -4 4 3 15 16 24 12 10 25 15 28 13 3 -3 -3 -10 -13
-15z m330 6 c0 -18 -24 -28 -33 -13 -4 6 -3 8 3 5 6 -4 13 0 17 8 7 19 13 19
13 0z m253 1 c0 -3 -4 -8 -10 -11 -5 -3 -10 -1 -10 4 0 6 5 11 10 11 6 0 10
-2 10 -4z m-730 -29 c0 -2 -8 -3 -18 -3 -10 0 -19 6 -19 13 0 8 6 9 19 2 10
-5 18 -11 18 -12z m884 15 c2 -4 -4 -8 -14 -8 -10 0 -16 4 -14 8 3 4 9 8 14 8
5 0 11 -4 14 -8z m561 -2 c3 -6 -1 -7 -9 -4 -18 7 -21 14 -7 14 6 0 13 -4 16
-10z m400 0 c3 -6 -1 -7 -9 -4 -18 7 -21 14 -7 14 6 0 13 -4 16 -10z m-1564
-23 c-13 -13 -26 -3 -16 12 3 6 11 8 17 5 6 -4 6 -10 -1 -17z m149 8 c0 -9 -6
-12 -16 -8 -13 5 -13 7 -2 14 17 11 18 11 18 -6z m278 -21 c18 -13 39 -21 46
-18 8 3 16 -2 19 -10 5 -12 2 -13 -16 -7 -37 14 -107 53 -113 62 -8 13 26 -2
64 -27z m-151 6 c-1 -11 -2 -20 -3 -20 -1 0 -9 3 -18 6 -12 5 -13 9 -3 20 17
19 26 17 24 -6z m283 15 c0 -2 -10 -10 -22 -16 -21 -11 -22 -11 -9 4 13 16 31
23 31 12z m640 -5 c0 -5 -2 -10 -4 -10 -3 0 -8 5 -11 10 -3 6 -1 10 4 10 6 0
11 -4 11 -10z m160 0 c0 -5 -4 -10 -10 -10 -5 0 -10 5 -10 10 0 6 5 10 10 10
6 0 10 -4 10 -10z m240 0 c0 -5 -2 -10 -4 -10 -3 0 -8 5 -11 10 -3 6 -1 10 4
10 6 0 11 -4 11 -10z m-920 -20 c0 -5 -4 -10 -10 -10 -5 0 -10 5 -10 10 0 6 5
10 10 10 6 0 10 -4 10 -10z m407 -5 c0 -8 -6 -15 -13 -15 -6 0 -14 7 -18 15
-3 10 1 15 13 15 10 0 18 -7 18 -15z m403 11 c0 -2 -7 -9 -15 -16 -12 -10 -15
-10 -15 4 0 9 7 16 15 16 8 0 15 -2 15 -4z m-1400 -27 c0 -5 -4 -9 -10 -9 -5
0 -10 7 -10 16 0 8 5 12 10 9 6 -3 10 -10 10 -16z m-345 -17 c-8 -8 -25 10
-19 20 4 6 9 5 15 -3 4 -7 6 -15 4 -17z m200 18 c3 -6 -1 -7 -9 -4 -18 7 -21
14 -7 14 6 0 13 -4 16 -10z m945 -1 c0 -5 -5 -9 -11 -9 -5 0 -7 -4 -4 -10 3
-5 1 -10 -4 -10 -6 0 -11 2 -11 4 0 2 -2 11 -5 18 -4 9 2 14 15 15 11 1 20 -2
20 -8z m391 -4 c0 -6 -10 -11 -21 -11 -16 -1 -18 1 -9 13 13 15 31 14 30 -2z
m-1401 -25 c0 -5 -5 -10 -11 -10 -5 0 -7 5 -4 10 3 6 8 10 11 10 2 0 4 -4 4
-10z m277 -5 c0 -17 -13 -20 -21 -6 -4 5 0 12 6 14 7 3 13 6 14 6 0 1 1 -6 1
-14z m213 5 c0 -5 -5 -10 -11 -10 -5 0 -7 5 -4 10 3 6 8 10 11 10 2 0 4 -4 4
-10z m835 -20 c3 -4 -1 -10 -8 -13 -8 -3 -18 3 -25 13 -9 15 -8 17 9 13 11 -3
21 -9 24 -13z m-810 0 c3 -5 1 -10 -4 -10 -6 0 -11 5 -11 10 0 6 2 10 4 10 3
0 8 -4 11 -10z m170 0 c-3 -5 -10 -10 -16 -10 -5 0 -9 5 -9 10 0 6 7 10 16 10
8 0 12 -4 9 -10z m399 -5 c-8 -19 -24 -19 -24 0 0 8 7 15 15 15 9 0 12 -6 9
-15z m404 4 c-2 -6 -8 -11 -13 -10 -5 0 -11 4 -13 10 -2 6 4 11 13 11 9 0 15
-5 13 -11z m236 2 c3 -5 -1 -11 -9 -15 -9 -3 -15 0 -15 9 0 16 16 20 24 6z"/>
<path d="M775 760 c-3 -6 1 -7 9 -4 18 7 21 14 7 14 -6 0 -13 -4 -16 -10z"/>
<path d="M405 780 c3 -5 11 -10 16 -10 6 0 7 5 4 10 -3 6 -11 10 -16 10 -6 0
-7 -4 -4 -10z"/>
</g>
</svg>
