<?xml version="1.0" standalone="no"?>
<!DOCTYPE svg PUBLIC "-//W3C//DTD SVG 20010904//EN"
 "http://www.w3.org/TR/2001/REC-SVG-20010904/DTD/svg10.dtd">
<svg version="1.0" xmlns="http://www.w3.org/2000/svg"
 width="200.000000pt" height="200.000000pt" viewBox="0 0 200.000000 200.000000"
 preserveAspectRatio="xMidYMid meet">
<metadata>
Created by potrace 1.16, written by Peter Selinger 2001-2019
</metadata>
<g transform="translate(0.000000,200.000000) scale(0.100000,-0.100000)"
fill="#000000" stroke="none">
<path d="M2 1965 c1 -19 6 -31 10 -29 4 3 8 -2 8 -10 0 -9 -5 -16 -10 -16 -7
0 -10 -91 -10 -260 1 -221 3 -260 15 -260 8 0 15 -5 15 -11 0 -6 -7 -9 -15 -5
-13 5 -15 -31 -15 -288 0 -161 3 -296 7 -300 4 -4 6 -40 5 -81 -2 -55 1 -75
10 -75 9 0 10 -3 2 -8 -15 -9 -16 -73 -2 -90 9 -10 8 -12 -3 -10 -9 2 -15 -7
-17 -24 -3 -21 3 -30 27 -43 17 -8 31 -18 31 -21 0 -2 -13 2 -30 11 l-30 16 0
-157 0 -156 26 17 c14 9 28 14 31 12 3 -3 -9 -13 -26 -22 -33 -17 -42 -49 -16
-59 8 -3 14 -16 14 -28 l-2 -23 -4 23 c-6 33 -23 27 -23 -9 0 -24 4 -30 15
-25 8 3 15 1 15 -4 0 -6 -7 -10 -15 -10 -8 0 -15 -5 -15 -10 0 -7 67 -10 196
-9 l196 1 -4 29 c-3 17 -1 32 4 35 4 3 8 -11 8 -30 l0 -35 121 0 c78 -1 118 2
114 9 -3 5 -2 10 4 10 5 0 13 -4 16 -10 9 -15 278 -13 294 3 11 10 13 9 7 -1
-6 -9 39 -11 211 -10 164 2 217 6 216 15 -2 7 4 10 13 6 13 -5 13 -7 2 -15
-13 -9 162 -6 214 4 15 3 25 1 22 -4 -3 -5 28 -8 73 -6 54 2 77 7 76 15 -2 7
4 10 13 6 13 -5 13 -7 2 -14 -7 -5 26 -9 82 -9 52 0 100 4 107 8 16 10 17 592
0 592 -8 0 -8 3 1 9 19 12 12 87 -8 83 -12 -2 -12 0 2 11 12 10 16 29 17 75 0
35 -4 60 -8 58 -4 -3 -8 1 -8 9 0 8 4 12 9 9 13 -8 9 81 -4 95 -10 11 -10 13
0 7 9 -5 12 6 12 44 0 38 -3 49 -12 44 -10 -6 -10 -5 -1 7 7 9 12 55 12 123 1
92 -2 111 -17 123 -16 12 -16 13 1 7 15 -5 17 0 17 40 0 50 -7 54 -48 30 l-27
-16 25 21 c14 11 30 21 37 21 17 0 16 582 0 592 -7 4 -55 8 -107 8 -65 0 -90
-3 -80 -10 9 -6 10 -10 3 -10 -6 0 -15 4 -18 10 -9 15 -115 13 -115 -2 0 -9
-3 -9 -9 1 -6 9 -16 11 -27 6 -30 -12 -64 -14 -64 -4 0 5 -42 9 -92 9 -64 0
-88 -3 -78 -10 9 -6 10 -10 3 -10 -6 0 -15 5 -18 10 -9 14 -132 12 -173 -2
-28 -10 -36 -10 -39 0 -6 16 -144 17 -161 0 -9 -9 -15 -9 -24 0 -7 7 -42 12
-85 12 -68 0 -73 -1 -73 -22 l0 -21 -18 20 c-17 21 -18 21 -41 2 -13 -11 -26
-17 -29 -14 -3 3 3 12 14 20 17 13 -27 14 -369 14 l-388 -1 3 -33z m593 15
c-3 -5 -12 -10 -18 -10 -7 0 -6 4 3 10 19 12 23 12 15 0z m-160 -10 c3 -5 2
-10 -4 -10 -5 0 -13 5 -16 10 -3 6 -2 10 4 10 5 0 13 -4 16 -10z m830 0 c3 -5
2 -10 -4 -10 -5 0 -13 5 -16 10 -3 6 -2 10 4 10 5 0 13 -4 16 -10z m272 -12
c-3 -8 -6 -5 -6 6 -1 11 2 17 5 13 3 -3 4 -12 1 -19z m-1187 2 c0 -5 -15 -17
-32 -25 -28 -13 -30 -13 -13 -1 11 8 25 20 30 25 13 13 15 13 15 1z m1105 0
c3 -5 1 -10 -4 -10 -6 0 -11 5 -11 10 0 6 2 10 4 10 3 0 8 -4 11 -10z m495 6
c0 -3 -4 -8 -10 -11 -5 -3 -10 -1 -10 4 0 6 5 11 10 11 6 0 10 -2 10 -4z
m-1030 -31 c0 -2 -6 -5 -13 -8 -8 -3 -14 1 -14 8 0 7 6 11 14 8 7 -3 13 -6 13
-8z m417 3 c0 -7 -11 -13 -24 -13 -21 0 -22 1 -6 13 9 6 20 12 23 12 4 0 7 -6
7 -12z m173 -14 c0 -2 -9 0 -20 6 -11 6 -20 13 -20 16 0 2 9 0 20 -6 11 -6 20
-13 20 -16z m397 13 c0 -7 -9 -13 -19 -13 -18 0 -18 1 -2 13 10 7 18 13 19 13
1 0 2 -6 2 -13z m-1224 -13 c-6 -17 -17 -18 -31 -1 -8 9 -4 12 13 13 16 1 22
-2 18 -12z m422 6 c3 -6 -1 -7 -9 -4 -18 7 -21 14 -7 14 6 0 13 -4 16 -10z
m625 6 c0 -2 -9 -6 -20 -9 -11 -3 -18 -1 -14 4 5 9 34 13 34 5z m-1590 -32 c0
-2 -9 0 -20 6 -11 6 -20 13 -20 16 0 2 9 0 20 -6 11 -6 20 -13 20 -16z m348
10 c-12 -7 -23 -21 -23 -31 0 -13 -8 -18 -26 -18 -14 -1 -26 5 -26 11 0 7 6
10 13 7 12 -4 38 30 29 39 -3 3 9 5 26 5 30 0 31 0 7 -13z m582 11 c0 -2 -10
-10 -22 -16 -21 -11 -22 -11 -9 4 13 16 31 23 31 12z m190 -27 c0 -13 -13 -9
-40 12 l-25 20 33 -12 c17 -7 32 -16 32 -20z m322 12 c-18 -11 -30 -25 -27
-30 3 -5 -1 -7 -9 -4 -20 8 -78 -27 -71 -43 3 -9 -2 -12 -19 -7 -14 3 -27 0
-35 -9 -10 -13 -17 -12 -53 8 -23 13 -46 21 -51 18 -6 -3 -7 -1 -3 5 4 7 3 12
-1 12 -5 0 -18 7 -29 16 -10 9 12 -1 50 -21 61 -33 71 -36 92 -24 16 8 23 18
19 28 -5 12 -3 13 5 4 16 -15 80 22 80 45 0 11 3 13 8 5 5 -8 13 -8 32 2 39
22 49 17 12 -5z m173 10 c3 -5 1 -10 -4 -10 -6 0 -11 5 -11 10 0 6 2 10 4 10
3 0 8 -4 11 -10z m-1490 -16 c-34 -27 -75 -45 -75 -34 0 5 7 10 15 10 8 0 15
4 15 8 0 5 12 13 28 19 38 15 40 15 17 -3z m120 7 c3 -6 -3 -9 -14 -8 -11 0
-17 5 -15 9 7 11 22 10 29 -1z m770 1 c-8 -9 16 -42 30 -42 8 0 15 -4 15 -10
0 -14 -21 -8 -44 12 -14 13 -23 15 -32 7 -8 -7 -14 -7 -19 1 -4 6 -1 9 7 8 7
-2 12 5 12 14 -1 10 5 16 17 15 10 -1 16 -3 14 -5z m305 4 c0 -2 -7 -7 -16
-10 -8 -3 -12 -2 -9 4 6 10 25 14 25 6z m213 -16 c3 -11 1 -18 -3 -15 -5 3
-11 1 -15 -5 -3 -5 -11 -10 -16 -10 -6 0 -3 7 5 16 9 8 16 20 16 25 0 16 7 10
13 -11z m272 10 c4 -6 10 -8 15 -5 4 3 6 -4 3 -14 -3 -12 -11 -17 -19 -14 -8
3 -12 8 -10 11 3 3 1 11 -5 19 -8 9 -8 13 -1 13 6 0 14 -5 17 -10z m-1863 -22
c-12 -12 -35 -1 -27 12 3 5 13 6 21 3 10 -4 12 -9 6 -15z m636 10 c8 -8 15 -8
27 2 8 7 15 8 15 2 0 -16 -31 -23 -46 -11 -11 9 -19 8 -32 -5 -10 -9 -23 -16
-28 -16 -9 0 36 39 47 40 3 0 10 -5 17 -12z m156 4 c2 -4 -4 -9 -15 -9 -11 -1
-17 2 -14 8 7 11 22 12 29 1z m930 -21 c-2 -3 -12 3 -22 13 -16 17 -16 18 5 5
12 -7 20 -15 17 -18z m-784 -4 c0 -2 -8 -3 -18 -3 -10 0 -19 6 -19 13 0 8 6 9
19 2 10 -5 18 -11 18 -12z m385 5 c-3 -3 -11 0 -18 7 -9 10 -8 11 6 5 10 -3
15 -9 12 -12z m-615 4 c0 -2 -7 -7 -16 -10 -8 -3 -12 -2 -9 4 6 10 25 14 25 6z
m120 -17 c0 -5 -4 -9 -10 -9 -5 0 -10 7 -10 16 0 8 5 12 10 9 6 -3 10 -10 10
-16z m-595 1 c3 -5 -1 -10 -9 -10 -9 0 -16 -6 -16 -12 0 -9 -3 -8 -10 2 -6 9
-5 17 3 22 16 10 25 10 32 -2z m253 -6 c-20 -10 -28 -23 -29 -42 -1 -18 -3
-21 -6 -9 -3 10 -1 26 3 35 4 9 7 19 6 22 0 3 12 6 26 7 l27 1 -27 -14z m510
3 c-12 -9 -14 -17 -7 -30 7 -11 6 -17 0 -17 -6 0 -14 8 -20 18 -7 13 -5 20 12
29 29 16 36 16 15 0z m-448 -11 c-7 -7 -13 -7 -20 0 -6 6 -3 10 10 10 13 0 16
-4 10 -10z m1120 -15 c-14 -26 -26 -27 -26 -2 0 11 4 18 7 15 4 -2 11 1 14 7
12 19 17 1 5 -20z m134 20 c20 10 20 9 2 -5 -10 -8 -15 -19 -12 -24 3 -6 -2
-8 -12 -5 -10 2 -18 13 -18 23 0 12 4 16 10 10 6 -6 17 -5 30 1z m-1700 -17
c3 -8 0 -16 -6 -20 -7 -5 -8 -2 -3 6 6 10 4 12 -8 7 -16 -6 -32 5 -22 15 10 9
34 4 39 -8z m499 4 c3 -10 9 -10 26 0 11 6 24 12 28 12 5 0 0 -5 -10 -11 -18
-10 -18 -11 0 -25 10 -7 13 -14 6 -14 -6 0 -15 5 -19 11 -3 6 -15 8 -26 6 -11
-3 -17 -3 -14 0 3 4 1 12 -5 20 -8 8 -8 13 -1 13 6 0 12 -6 15 -12z m269 0
c-9 -9 -15 -9 -24 0 -9 9 -7 12 12 12 19 0 21 -3 12 -12z m658 8 c0 -2 -7 -7
-16 -10 -8 -3 -12 -2 -9 4 6 10 25 14 25 6z m-1358 -13 c-6 -2 -9 -10 -6 -15
4 -7 2 -8 -5 -4 -13 9 -5 26 12 25 9 0 8 -2 -1 -6z m608 -3 c0 -5 -4 -10 -10
-10 -5 0 -10 5 -10 10 0 6 5 10 10 10 6 0 10 -4 10 -10z m300 5 c0 -2 -10 -9
-22 -15 -22 -11 -22 -10 -4 4 21 17 26 19 26 11z m-790 -9 c0 -2 -7 -7 -16
-10 -8 -3 -12 -2 -9 4 6 10 25 14 25 6z m628 -14 c2 -7 -2 -10 -12 -6 -9 3
-16 11 -16 16 0 13 23 5 28 -10z m-777 -29 c2 -115 -3 -219 -12 -229 -5 -6 -5
-14 -1 -18 4 -4 3 -6 -3 -5 -10 3 -96 -38 -105 -50 -8 -12 -81 -43 -87 -38 -2
3 5 8 16 12 28 8 27 34 -1 44 -22 8 -21 9 10 25 19 10 30 21 26 28 -4 7 -3 8
5 4 6 -4 28 2 47 13 19 12 41 21 47 21 7 0 -14 -16 -46 -35 -32 -19 -62 -35
-68 -35 -13 0 -11 -16 4 -28 17 -14 100 25 93 43 -3 8 4 10 18 8 31 -6 54 22
38 48 -7 10 -8 19 -3 19 6 0 9 43 8 105 -1 58 1 105 6 105 4 0 7 -17 8 -37z
m1066 22 c0 -5 -10 -11 -22 -11 -12 -1 -22 4 -22 11 0 7 10 12 22 11 12 0 22
-5 22 -11z m373 5 c0 -5 -2 -10 -4 -10 -3 0 -8 5 -11 10 -3 6 -1 10 4 10 6 0
11 -4 11 -10z m170 6 c0 -2 -6 -9 -14 -15 -11 -9 -16 -9 -22 0 -4 7 -3 9 4 5
6 -3 13 -2 17 4 6 10 15 14 15 6z m-720 -10 c0 -2 -7 -7 -16 -10 -8 -3 -12 -2
-9 4 6 10 25 14 25 6z m594 -10 c-3 -9 -12 -12 -22 -9 -15 6 -9 11 25 22 1 1
0 -5 -3 -13z m-1548 -21 c-2 -7 1 -18 7 -25 9 -9 6 -9 -13 0 -14 8 -20 15 -13
17 7 3 9 11 6 20 -4 11 -3 14 6 9 7 -5 10 -14 7 -21z m1369 15 c3 -6 -1 -7 -9
-4 -18 7 -21 14 -7 14 6 0 13 -4 16 -10z m405 2 c0 -5 -7 -9 -15 -9 -8 0 -12
4 -9 9 3 4 9 8 15 8 5 0 9 -4 9 -8z m-1630 -6 c0 -3 -4 -8 -10 -11 -5 -3 -10
-1 -10 4 0 6 5 11 10 11 6 0 10 -2 10 -4z m304 -17 c-6 -11 -24 -2 -24 11 0 5
7 7 15 4 8 -4 12 -10 9 -15z m341 11 c3 -5 2 -10 -4 -10 -5 0 -13 5 -16 10 -3
6 -2 10 4 10 5 0 13 -4 16 -10z m125 0 c0 -5 -5 -10 -11 -10 -5 0 -7 5 -4 10
3 6 8 10 11 10 2 0 4 -4 4 -10z m90 -10 c0 -5 -2 -10 -4 -10 -3 0 -8 5 -11 10
-3 6 -1 10 4 10 6 0 11 -4 11 -10z m195 -19 c-6 -5 -25 10 -25 20 0 5 6 4 14
-3 8 -7 12 -15 11 -17z m205 19 c0 -5 -2 -10 -4 -10 -3 0 -8 5 -11 10 -3 6 -1
10 4 10 6 0 11 -4 11 -10z m405 0 c3 -5 2 -10 -4 -10 -5 0 -13 5 -16 10 -3 6
-2 10 4 10 5 0 13 -4 16 -10z m-90 -10 c-3 -5 -11 -10 -16 -10 -6 0 -7 5 -4
10 3 6 11 10 16 10 6 0 7 -4 4 -10z m-443 -20 c-13 -10 -30 -16 -38 -13 -12 4
-13 8 -3 13 7 5 18 6 25 3 6 -2 15 0 19 6 3 6 9 11 13 11 4 -1 -3 -9 -16 -20z
m-828 -5 c3 -9 0 -15 -9 -15 -9 0 -12 6 -9 15 4 8 7 15 9 15 2 0 5 -7 9 -15z
m251 5 c3 -5 1 -10 -4 -10 -6 0 -11 5 -11 10 0 6 2 10 4 10 3 0 8 -4 11 -10z
m305 0 c0 -5 -5 -10 -11 -10 -5 0 -7 5 -4 10 3 6 8 10 11 10 2 0 4 -4 4 -10z
m710 -33 c0 -4 -10 -2 -22 5 -23 13 -27 14 -63 18 -20 1 -20 1 0 9 20 8 84
-16 85 -32z m-305 24 c3 -6 -4 -15 -15 -21 -19 -10 -20 -10 -8 9 15 24 15 24
23 12z m-1011 -16 c11 -8 15 -15 10 -15 -6 0 -19 7 -30 15 -10 8 -14 14 -9 14
6 0 19 -6 29 -14z m108 3 c-9 -9 -7 -15 6 -25 12 -10 7 -9 -15 2 -18 8 -33 18
-33 21 0 3 4 3 8 0 4 -2 14 -1 22 5 21 12 26 11 12 -3z m1098 -3 c0 -2 -7 -5
-15 -9 -9 -3 -15 0 -15 9 0 9 6 12 15 9 8 -4 15 -7 15 -9z m-817 -15 c-4 -16
-9 -18 -24 -9 -23 12 -25 21 -4 13 8 -4 15 -1 15 5 0 6 4 11 9 11 5 0 7 -9 4
-20z m146 4 c6 4 11 5 11 2 0 -3 -13 -12 -29 -20 -29 -15 -29 -15 -18 9 7 13
15 19 18 13 4 -6 12 -7 18 -4z m386 6 c3 -5 1 -10 -4 -10 -6 0 -11 5 -11 10 0
6 2 10 4 10 3 0 8 -4 11 -10z m185 0 c0 -5 -2 -10 -4 -10 -3 0 -8 5 -11 10 -3
6 -1 10 4 10 6 0 11 -4 11 -10z m-1060 -20 c0 -5 -4 -10 -10 -10 -5 0 -10 5
-10 10 0 6 5 10 10 10 6 0 10 -4 10 -10z m710 -4 c-7 -7 -13 -7 -20 0 -6 6 -3
10 10 10 13 0 16 -4 10 -10z m405 4 c-3 -5 -12 -10 -18 -10 -7 0 -6 4 3 10 19
12 23 12 15 0z m210 0 c-3 -5 -12 -10 -19 -10 -8 0 -19 -7 -26 -15 -7 -8 -17
-15 -23 -15 -15 0 2 16 38 34 35 19 38 19 30 6z m-1765 -25 c-7 -9 -15 -13
-17 -11 -7 7 7 26 19 26 6 0 6 -6 -2 -15z m1320 11 c0 -3 -4 -8 -10 -11 -5 -3
-10 -1 -10 4 0 6 5 11 10 11 6 0 10 -2 10 -4z m-610 -10 c0 -2 -7 -7 -16 -10
-8 -3 -12 -2 -9 4 6 10 25 14 25 6z m395 -6 c-3 -5 -11 -10 -16 -10 -6 0 -7 5
-4 10 3 6 11 10 16 10 6 0 7 -4 4 -10z m505 -16 c0 -2 -9 0 -20 6 -11 6 -20
13 -20 16 0 2 9 0 20 -6 11 -6 20 -13 20 -16z m187 4 c-3 -8 -6 -5 -6 6 -1 11
2 17 5 13 3 -3 4 -12 1 -19z m-1497 -3 c-7 -9 -15 -13 -19 -10 -3 3 1 10 9 15
21 14 24 12 10 -5z m280 5 c0 -5 -2 -10 -4 -10 -3 0 -8 5 -11 10 -3 6 -1 10 4
10 6 0 11 -4 11 -10z m274 -6 c4 -10 1 -14 -6 -12 -15 5 -23 28 -10 28 5 0 13
-7 16 -16z m-719 -4 c3 -5 2 -10 -4 -10 -5 0 -13 5 -16 10 -3 6 -2 10 4 10 5
0 13 -4 16 -10z m1112 -5 c1 -11 -17 -8 -30 4 -4 4 0 7 10 6 10 0 19 -5 20
-10z m430 0 c0 -6 -10 -10 -21 -9 -12 1 -25 3 -31 3 -5 1 -5 5 2 9 18 11 50 9
50 -3z m-1217 -11 c0 -2 -9 -4 -21 -4 -11 0 -18 4 -14 10 5 8 35 3 35 -6z
m1260 -19 c11 -13 10 -14 -4 -9 -9 3 -16 10 -16 15 0 13 6 11 20 -6z m-1330 1
c0 -3 -4 -8 -10 -11 -5 -3 -10 -1 -10 4 0 6 5 11 10 11 6 0 10 -2 10 -4z m115
-6 c3 -5 2 -10 -4 -10 -5 0 -13 5 -16 10 -3 6 -2 10 4 10 5 0 13 -4 16 -10z
m505 6 c0 -2 -7 -7 -16 -10 -8 -3 -12 -2 -9 4 6 10 25 14 25 6z m390 -6 c0 -5
-5 -10 -11 -10 -5 0 -7 5 -4 10 3 6 8 10 11 10 2 0 4 -4 4 -10z m405 0 c-3 -5
-11 -10 -16 -10 -6 0 -7 5 -4 10 3 6 11 10 16 10 6 0 7 -4 4 -10z m-1582 -7
c3 -5 -5 -8 -18 -8 -13 0 -21 3 -18 8 2 4 10 7 18 7 8 0 16 -3 18 -7z m481 -8
c11 -8 15 -15 10 -15 -6 0 -19 7 -30 15 -10 8 -14 14 -9 14 6 0 19 -6 29 -14z
m-159 -13 c-3 -3 -11 0 -18 7 -9 10 -8 11 6 5 10 -3 15 -9 12 -12z m835 -8 c0
-2 -9 0 -20 6 -11 6 -20 13 -20 16 0 2 9 0 20 -6 11 -6 20 -13 20 -16z m400 2
c0 -2 -9 -2 -20 1 -11 3 -20 9 -20 15 0 5 9 4 20 -2 11 -6 20 -12 20 -14z
m-806 5 c4 -5 -3 -7 -14 -4 -23 6 -26 13 -6 13 8 0 17 -4 20 -9z m-567 -16 c0
-8 -4 -12 -9 -9 -5 3 -6 10 -3 15 9 13 12 11 12 -6z m93 -16 c3 -4 21 -15 40
-25 19 -11 47 -28 62 -38 16 -10 35 -15 44 -12 14 5 15 4 5 -8 -15 -18 -10
-62 6 -59 6 1 13 -4 16 -11 4 -10 0 -12 -14 -9 -18 5 -20 1 -17 -38 2 -29 7
-43 16 -42 6 2 12 -2 12 -7 0 -5 -7 -10 -15 -10 -10 0 -15 -10 -15 -29 0 -19
-8 -34 -25 -45 -17 -11 -22 -21 -18 -34 6 -14 4 -15 -9 -4 -13 10 -22 9 -52
-9 -20 -11 -33 -25 -30 -30 3 -5 -2 -6 -10 -3 -8 3 -25 -1 -36 -9 -19 -13 -25
-13 -53 1 -17 10 -37 23 -45 30 -7 7 -18 10 -23 7 -5 -4 -9 -2 -9 2 0 14 -59
45 -72 37 -7 -4 -8 -3 -4 4 4 7 2 12 -3 12 -6 0 -11 5 -11 11 0 7 10 5 25 -5
14 -9 31 -14 37 -10 6 4 8 3 4 -4 -3 -6 3 -14 16 -18 12 -3 28 -13 36 -21 8
-8 21 -12 29 -9 8 3 11 2 8 -4 -3 -5 4 -14 16 -21 24 -12 69 2 69 21 0 6 4 9
9 5 11 -6 81 33 81 46 0 5 3 8 8 7 4 -1 17 1 30 6 16 5 22 15 22 38 0 24 -3
29 -17 24 -17 -6 -17 -5 0 8 11 9 17 27 17 56 0 36 -3 41 -17 36 -17 -6 -17
-5 0 8 25 20 22 61 -8 80 -14 9 -25 12 -25 6 0 -6 -12 1 -27 16 -14 14 -41 32
-58 40 -17 7 -38 20 -45 29 -12 15 -11 15 16 3 16 -7 31 -15 34 -19z m-367 4
c-3 -10 -10 -23 -14 -29 -5 -6 -5 -15 -1 -19 4 -5 1 -4 -7 0 -11 6 -13 4 -8
-9 6 -14 3 -17 -9 -12 -8 3 -20 6 -25 6 -5 0 -9 4 -9 10 0 5 7 7 15 4 9 -4 15
0 15 10 0 9 3 15 8 15 19 -3 25 2 12 11 -13 9 -13 11 0 20 22 15 30 12 23 -7z
m168 0 c13 -15 12 -15 -8 -4 -24 12 -29 21 -14 21 5 0 15 -7 22 -17z m609 -2
c-5 -11 -15 -23 -21 -26 -13 -9 -8 27 6 37 18 14 26 8 15 -11z m287 -12 c2
-17 -1 -18 -13 -9 -17 15 -19 41 -1 34 7 -2 13 -14 14 -25z m113 12 c-5 -11
-15 -23 -21 -26 -13 -9 -8 27 6 37 18 14 26 8 15 -11z m274 13 c9 -3 16 -15
16 -26 0 -16 -3 -18 -13 -9 -8 6 -18 7 -23 3 -4 -4 -3 0 4 10 10 13 10 17 0
21 -7 3 -10 6 -6 6 3 1 13 -2 22 -5z m126 -14 c-6 -11 -20 -24 -33 -30 -19 -9
-20 -9 -6 2 8 7 18 21 22 31 3 9 11 17 17 17 8 0 8 -6 0 -20z m-1326 -5 c3 -8
1 -15 -4 -15 -6 0 -10 7 -10 15 0 8 2 15 4 15 2 0 6 -7 10 -15z m409 -2 c-3
-7 -11 -13 -19 -13 -7 0 -11 6 -8 13 3 8 11 14 18 14 8 0 12 -6 9 -14z m257
-3 c0 -5 -5 -10 -11 -10 -5 0 -7 5 -4 10 3 6 8 10 11 10 2 0 4 -4 4 -10z m395
0 c3 -5 1 -10 -4 -10 -6 0 -11 5 -11 10 0 6 2 10 4 10 3 0 8 -4 11 -10z
m-1096 -9 c9 -6 10 -11 2 -15 -6 -4 -11 -2 -11 4 0 6 -4 8 -10 5 -5 -3 -10 -1
-10 4 0 13 10 14 29 2z m295 1 c2 -4 -4 -8 -14 -8 -10 0 -16 4 -14 8 3 4 9 8
14 8 5 0 11 -4 14 -8z m766 -17 c-6 -8 -8 -20 -4 -26 5 -8 3 -9 -6 -4 -7 4
-16 2 -21 -6 -7 -11 -9 -9 -9 7 0 12 10 26 23 32 30 14 31 14 17 -3z m-1198
-2 c-6 -3 -10 -8 -8 -12 3 -4 -1 -8 -9 -8 -26 0 -23 22 4 23 14 1 20 -1 13 -3z
m776 -19 c-11 -23 -13 -24 -19 -7 -5 16 2 24 28 32 2 1 -3 -11 -9 -25z m125
-5 c-6 -22 -6 -22 -21 8 -10 18 -9 20 7 16 13 -3 17 -11 14 -24z m397 9 c0 -6
8 -17 18 -24 16 -12 15 -13 -4 -8 -12 3 -26 16 -32 29 -9 20 -9 23 3 18 8 -3
15 -10 15 -15z m150 -1 c0 -2 -8 -3 -18 -3 -10 0 -19 6 -19 13 0 8 6 9 19 2
10 -5 18 -11 18 -12z m146 3 c0 -10 -2 -17 -5 -15 -2 3 -10 0 -18 -6 -10 -9
-13 -7 -13 9 0 18 10 28 30 31 3 1 6 -8 6 -19z m-1109 -6 c2 -6 -3 -11 -10
-11 -8 0 -14 6 -14 14 0 15 19 12 24 -3z m158 6 c3 -6 -1 -7 -9 -4 -18 7 -21
14 -7 14 6 0 13 -4 16 -10z m395 6 c0 -2 -7 -7 -16 -10 -8 -3 -12 -2 -9 4 6
10 25 14 25 6z m-958 -15 c11 6 18 4 21 -6 4 -9 1 -12 -9 -8 -8 3 -20 0 -27
-5 -9 -8 -16 -6 -25 9 -12 18 -11 19 5 10 11 -5 25 -6 35 0z m603 -11 c3 -5 1
-10 -4 -10 -6 0 -11 5 -11 10 0 6 2 10 4 10 3 0 8 -4 11 -10z m291 -12 c-18
-10 -18 -11 5 -29 13 -10 19 -19 13 -19 -6 0 -17 7 -24 15 -7 8 -18 15 -26 15
-7 0 -15 4 -18 9 -4 5 2 7 12 4 10 -2 24 3 32 12 7 8 16 13 19 9 3 -3 -3 -10
-13 -16z m509 4 c-3 -3 -11 0 -18 7 -9 10 -8 11 6 5 10 -3 15 -9 12 -12z
m-1510 -2 c3 -6 -1 -7 -9 -4 -18 7 -21 14 -7 14 6 0 13 -4 16 -10z m342 -4 c0
-6 -10 -11 -22 -11 -28 0 -28 20 0 21 12 1 22 -3 22 -10z m778 4 c3 -6 -1 -7
-9 -4 -18 7 -21 14 -7 14 6 0 13 -4 16 -10z m140 -8 c-3 -3 -11 0 -18 7 -9 10
-8 11 6 5 10 -3 15 -9 12 -12z m-1435 -18 c0 -2 -9 0 -20 6 -11 6 -20 13 -20
16 0 2 9 0 20 -6 11 -6 20 -13 20 -16z m340 18 c0 -5 -7 -9 -15 -9 -8 0 -12 4
-9 9 3 4 9 8 15 8 5 0 9 -4 9 -8z m595 -2 c-3 -5 -12 -10 -18 -10 -7 0 -6 4 3
10 19 12 23 12 15 0z m402 3 c-4 -3 -1 -13 6 -22 10 -14 10 -14 -5 -3 -9 8
-23 11 -30 7 -7 -4 -4 1 6 9 19 16 36 22 23 9z m228 -3 c-3 -5 -12 -10 -18
-10 -7 0 -6 4 3 10 19 12 23 12 15 0z m175 -13 c0 -2 -8 -3 -18 -3 -10 0 -19
6 -19 13 0 8 6 9 19 2 10 -5 18 -11 18 -12z m-773 -19 c-3 -7 -5 -2 -5 12 0
14 2 19 5 13 2 -7 2 -19 0 -25z m-192 12 c3 -5 1 -10 -4 -10 -6 0 -11 5 -11
10 0 6 2 10 4 10 3 0 8 -4 11 -10z m322 -12 c-3 -8 -6 -5 -6 6 -1 11 2 17 5
13 3 -3 4 -12 1 -19z m-212 2 c-3 -5 -11 -10 -16 -10 -6 0 -7 5 -4 10 3 6 11
10 16 10 6 0 7 -4 4 -10z m615 -5 c0 -8 -4 -15 -10 -15 -5 0 -7 7 -4 15 4 8 8
15 10 15 2 0 4 -7 4 -15z m95 5 c3 -5 2 -10 -4 -10 -5 0 -13 5 -16 10 -3 6 -2
10 4 10 5 0 13 -4 16 -10z m185 -5 c11 -13 10 -14 -4 -9 -9 3 -16 10 -16 15 0
13 6 11 20 -6z m-1510 1 c0 -3 -4 -8 -10 -11 -5 -3 -10 -1 -10 4 0 6 5 11 10
11 6 0 10 -2 10 -4z m155 -6 c-3 -5 -12 -10 -18 -10 -7 0 -6 4 3 10 19 12 23
12 15 0z m265 0 c0 -5 -5 -10 -11 -10 -5 0 -7 5 -4 10 3 6 8 10 11 10 2 0 4
-4 4 -10z m-797 -25 c-7 -21 -13 -19 -13 6 0 11 4 18 10 14 5 -3 7 -12 3 -20z
m373 -13 c-8 -7 -46 19 -41 28 3 5 14 2 25 -7 11 -9 18 -19 16 -21z m984 12
c0 -2 -9 0 -20 6 -11 6 -20 13 -20 16 0 2 9 0 20 -6 11 -6 20 -13 20 -16z
m385 8 c-3 -3 -11 0 -18 7 -9 10 -8 11 6 5 10 -3 15 -9 12 -12z m-791 0 c2 -4
-4 -8 -14 -8 -10 0 -16 4 -14 8 3 4 9 8 14 8 5 0 11 -4 14 -8z m205 -1 c9 -6
2 -10 -24 -13 -32 -4 -35 -3 -19 9 21 15 24 16 43 4z m405 -8 c-9 -6 -22 -9
-30 -6 -21 8 -7 21 21 19 22 -1 23 -3 9 -13z m-1334 -19 c0 -2 -9 0 -20 6 -11
6 -20 13 -20 16 0 2 9 0 20 -6 11 -6 20 -13 20 -16z m1070 6 c0 -5 -5 -10 -11
-10 -5 0 -7 5 -4 10 3 6 8 10 11 10 2 0 4 -4 4 -10z m185 1 c3 -5 1 -12 -5
-16 -5 -3 -10 1 -10 9 0 18 6 21 15 7z m310 -9 c-3 -3 -11 0 -18 7 -9 10 -8
11 6 5 10 -3 15 -9 12 -12z m-1105 4 c0 -3 -4 -8 -10 -11 -5 -3 -10 -1 -10 4
0 6 5 11 10 11 6 0 10 -2 10 -4z m395 -6 c-3 -5 -11 -10 -16 -10 -6 0 -7 5 -4
10 3 6 11 10 16 10 6 0 7 -4 4 -10z m125 0 c0 -5 -2 -10 -4 -10 -3 0 -8 5 -11
10 -3 6 -1 10 4 10 6 0 11 -4 11 -10z m405 0 c3 -5 1 -10 -4 -10 -6 0 -11 5
-11 10 0 6 2 10 4 10 3 0 8 -4 11 -10z m-1615 -10 c0 -5 -2 -10 -4 -10 -3 0
-8 5 -11 10 -3 6 -1 10 4 10 6 0 11 -4 11 -10z m285 -18 c-6 -7 -34 11 -29 19
3 5 11 3 19 -4 7 -6 12 -13 10 -15z m570 8 c-3 -5 -12 -10 -18 -10 -7 0 -6 4
3 10 19 12 23 12 15 0z m190 -8 c-3 -3 -11 0 -18 7 -9 10 -8 11 6 5 10 -3 15
-9 12 -12z m409 6 c-3 -4 2 -8 10 -8 9 0 16 -5 16 -10 0 -6 -13 -4 -30 5 -35
18 -37 21 -11 21 11 0 17 -4 15 -8z m-204 -2 c0 -2 -7 -7 -16 -10 -8 -3 -12
-2 -9 4 6 10 25 14 25 6z m413 -3 c3 -5 -5 -8 -18 -8 -13 0 -21 3 -18 8 2 4
10 7 18 7 8 0 16 -3 18 -7z m-1466 -25 c-3 -8 -6 -5 -6 6 -1 11 2 17 5 13 3
-3 4 -12 1 -19z m423 17 c0 -2 -14 -12 -31 -21 -17 -8 -28 -11 -24 -4 4 6 17
15 29 20 27 11 26 11 26 5z m57 -17 c-3 -8 -6 -5 -6 6 -1 11 2 17 5 13 3 -3 4
-12 1 -19z m214 5 c13 -15 12 -15 -8 -4 -24 12 -29 21 -14 21 5 0 15 -7 22
-17z m189 7 c0 -5 -2 -10 -4 -10 -3 0 -8 5 -11 10 -3 6 -1 10 4 10 6 0 11 -4
11 -10z m-730 -22 c0 -16 -3 -19 -11 -11 -6 6 -8 16 -5 22 11 17 16 13 16 -11z
m455 12 c-3 -5 -11 -10 -16 -10 -6 0 -7 5 -4 10 3 6 11 10 16 10 6 0 7 -4 4
-10z m402 -22 c-3 -7 -5 -2 -5 12 0 14 2 19 5 13 2 -7 2 -19 0 -25z m93 22 c0
-5 -2 -10 -4 -10 -3 0 -8 5 -11 10 -3 6 -1 10 4 10 6 0 11 -4 11 -10z m400 0
c0 -5 -2 -10 -4 -10 -3 0 -8 5 -11 10 -3 6 -1 10 4 10 6 0 11 -4 11 -10z m100
0 c0 -5 -5 -10 -11 -10 -5 0 -7 5 -4 10 3 6 8 10 11 10 2 0 4 -4 4 -10z m95 0
c3 -6 -1 -7 -9 -4 -18 7 -21 14 -7 14 6 0 13 -4 16 -10z m-735 -20 c8 -5 11
-10 5 -11 -62 -6 -67 -5 -49 8 21 15 24 16 44 3z m400 0 c8 -5 11 -10 5 -11
-62 -6 -67 -5 -49 8 21 15 24 16 44 3z m-1185 -10 c3 -5 1 -10 -4 -10 -6 0
-11 5 -11 10 0 6 2 10 4 10 3 0 8 -4 11 -10z m175 0 c0 -5 -2 -10 -4 -10 -3 0
-8 5 -11 10 -3 6 -1 10 4 10 6 0 11 -4 11 -10z m400 0 c0 -5 -2 -10 -4 -10 -3
0 -8 5 -11 10 -3 6 -1 10 4 10 6 0 11 -4 11 -10z m804 2 c3 -5 -1 -9 -9 -9 -8
0 -15 4 -15 9 0 4 4 8 9 8 6 0 12 -4 15 -8z m131 -11 c3 -5 2 -12 -3 -15 -5
-3 -9 1 -9 9 0 17 3 19 12 6z m-1600 -11 c-3 -5 -12 -10 -18 -10 -7 0 -6 4 3
10 19 12 23 12 15 0z m400 0 c-3 -5 -11 -10 -16 -10 -6 0 -7 5 -4 10 3 6 11
10 16 10 6 0 7 -4 4 -10z m530 0 c3 -5 2 -10 -4 -10 -5 0 -13 5 -16 10 -3 6
-2 10 4 10 5 0 13 -4 16 -10z m275 6 c0 -3 -4 -8 -10 -11 -5 -3 -10 -1 -10 4
0 6 5 11 10 11 6 0 10 -2 10 -4z m125 -6 c3 -5 2 -10 -4 -10 -5 0 -13 5 -16
10 -3 6 -2 10 4 10 5 0 13 -4 16 -10z m-1610 -10 c3 -5 2 -10 -4 -10 -5 0 -13
5 -16 10 -3 6 -2 10 4 10 5 0 13 -4 16 -10z m890 0 c-3 -5 -11 -10 -16 -10 -6
0 -7 5 -4 10 3 6 11 10 16 10 6 0 7 -4 4 -10z m510 0 c3 -5 2 -10 -4 -10 -5 0
-13 5 -16 10 -3 6 -2 10 4 10 5 0 13 -4 16 -10z m395 0 c0 -5 -2 -10 -4 -10
-3 0 -8 5 -11 10 -3 6 -1 10 4 10 6 0 11 -4 11 -10z m-1345 -9 c3 -5 1 -12 -5
-16 -5 -3 -10 1 -10 9 0 18 6 21 15 7z m-410 -19 c-3 -3 -11 0 -18 7 -9 10 -8
11 6 5 10 -3 15 -9 12 -12z m185 -8 c0 -3 -5 -2 -11 2 -6 3 -15 0 -20 -7 -6
-10 -9 -8 -9 9 0 20 3 21 20 12 11 -6 20 -13 20 -16z m80 21 c0 -2 -10 -9 -22
-15 -22 -11 -22 -10 -4 4 21 17 26 19 26 11z m330 -3 c0 -5 -7 -9 -15 -9 -8 0
-15 4 -15 9 0 4 7 8 15 8 8 0 15 -4 15 -8z m400 0 c0 -5 -7 -9 -15 -9 -8 0
-12 4 -9 9 3 4 9 8 15 8 5 0 9 -4 9 -8z m230 0 c0 -5 -7 -9 -15 -9 -8 0 -15 4
-15 9 0 4 7 8 15 8 8 0 15 -4 15 -8z m170 0 c0 -5 -7 -9 -15 -9 -8 0 -12 4 -9
9 3 4 9 8 15 8 5 0 9 -4 9 -8z m230 -2 c0 -5 -2 -10 -4 -10 -3 0 -8 5 -11 10
-3 6 -1 10 4 10 6 0 11 -4 11 -10z m-1662 -31 c-6 -4 -7 -12 -3 -19 5 -9 4
-11 -3 -6 -7 4 -12 1 -12 -7 0 -11 -7 -13 -22 -9 -19 5 -20 7 -5 10 10 2 20
16 24 32 4 23 8 26 18 17 8 -8 9 -14 3 -18z m877 21 c3 -5 1 -10 -4 -10 -6 0
-11 5 -11 10 0 6 2 10 4 10 3 0 8 -4 11 -10z m-285 -4 c0 -3 -4 -8 -10 -11 -5
-3 -10 -1 -10 4 0 6 5 11 10 11 6 0 10 -2 10 -4z m497 -39 c2 -15 -1 -16 -13
-7 -8 7 -14 21 -14 32 0 15 3 16 13 7 7 -7 14 -21 14 -32z m603 33 c0 -5 -2
-10 -4 -10 -3 0 -8 5 -11 10 -3 6 -1 10 4 10 6 0 11 -4 11 -10z m-1440 -11 c0
-6 7 -8 16 -5 9 4 14 1 12 -6 -2 -6 -12 -12 -21 -14 -9 -1 -15 2 -11 7 3 5 0
9 -5 9 -6 0 -11 5 -11 10 0 6 5 10 10 10 6 0 10 -5 10 -11z m547 -4 c0 -8 -6
-15 -14 -15 -14 0 -17 12 -6 23 11 11 20 8 20 -8z m405 -3 c4 -12 -1 -18 -13
-19 -19 -2 -22 16 -4 29 13 10 12 11 17 -10z m285 -15 c2 -15 0 -18 -6 -8 -5
7 -13 11 -19 7 -6 -4 -8 2 -5 13 6 25 28 17 30 -12z m112 12 c-5 -10 -15 -19
-21 -19 -6 0 -8 3 -5 7 4 3 3 11 -2 17 -6 7 -1 11 15 12 20 2 22 -1 13 -17z
m291 -10 c0 -16 -3 -17 -13 -7 -8 7 -14 18 -14 24 0 7 6 10 14 7 7 -3 13 -14
13 -24z m-1755 0 c-4 -6 3 -13 15 -16 14 -4 18 -8 10 -13 -16 -10 -50 22 -36
32 15 11 18 10 11 -3z m405 1 c0 -5 -2 -10 -4 -10 -3 0 -8 5 -11 10 -3 6 -1
10 4 10 6 0 11 -4 11 -10z m804 2 c3 -5 -1 -9 -9 -9 -8 0 -15 4 -15 9 0 4 4 8
9 8 6 0 12 -4 15 -8z m-1144 -6 c0 -3 -4 -8 -10 -11 -5 -3 -10 -1 -10 4 0 6 5
11 10 11 6 0 10 -2 10 -4z m-105 -24 c-3 -3 -11 0 -18 7 -9 10 -8 11 6 5 10
-3 15 -9 12 -12z m185 3 c0 -2 -10 -10 -22 -16 -21 -11 -22 -11 -9 4 13 16 31
23 31 12z m720 -29 c0 -16 -2 -18 -9 -7 -5 8 -14 10 -22 5 -11 -6 -12 -5 -2 8
7 8 10 18 6 22 -4 4 0 4 10 0 9 -3 17 -16 17 -28z m135 16 c-3 -3 -11 0 -18 7
-9 10 -8 11 6 5 10 -3 15 -9 12 -12z m152 11 c-4 -3 -3 -11 3 -17 6 -8 3 -12
-11 -12 -21 0 -26 21 -6 29 18 8 21 8 14 0z m113 -19 c0 -8 6 -14 13 -15 9 0
9 -2 0 -6 -14 -5 -36 14 -40 34 -2 7 4 10 12 7 8 -4 15 -12 15 -20z m150 19
c0 -1 -8 -7 -18 -12 -13 -7 -19 -6 -19 2 0 7 9 13 19 13 10 0 18 -1 18 -3z
m137 -6 c0 -7 -7 -19 -14 -26 -12 -11 -14 -10 -11 5 2 15 15 32 24 34 0 0 1
-6 1 -13z m120 -7 c-6 -8 -12 -17 -13 -18 -1 -2 -7 5 -13 16 -9 17 -7 20 13
18 20 -1 22 -4 13 -16z m-1737 -8 c0 -12 -3 -12 -15 -2 -8 7 -15 13 -15 15 0
1 7 2 15 2 8 0 15 -7 15 -15z m130 8 c0 -5 -7 -10 -16 -10 -8 0 -12 5 -9 10 3
6 10 10 16 10 5 0 9 -4 9 -10z m680 0 c0 -5 -7 -10 -16 -10 -8 0 -12 5 -9 10
3 6 10 10 16 10 5 0 9 -4 9 -10z m-489 -17 c13 -15 12 -15 -8 -4 -24 12 -29
21 -14 21 5 0 15 -7 22 -17z m-157 -1 c2 -4 -4 -8 -14 -8 -10 0 -16 4 -14 8 3
4 9 8 14 8 5 0 11 -4 14 -8z m573 -17 c1 0 -8 -7 -20 -14 -20 -13 -21 -13 -8
2 9 11 10 17 2 17 -6 0 -11 5 -11 11 0 8 6 7 18 -2 9 -7 18 -14 19 -14z m283
15 c0 -5 -5 -10 -11 -10 -5 0 -7 5 -4 10 3 6 8 10 11 10 2 0 4 -4 4 -10z m95
0 c3 -6 -1 -7 -9 -4 -18 7 -21 14 -7 14 6 0 13 -4 16 -10z m400 0 c3 -6 -1 -7
-9 -4 -18 7 -21 14 -7 14 6 0 13 -4 16 -10z m315 6 c0 -3 -4 -8 -10 -11 -5 -3
-10 -1 -10 4 0 6 5 11 10 11 6 0 10 -2 10 -4z m-960 -20 c-7 -7 -13 -7 -20 0
-6 6 -3 10 10 10 13 0 16 -4 10 -10z m701 1 c-6 -8 -7 -17 -3 -22 4 -4 -3 -2
-15 4 -25 13 -31 24 -9 15 8 -3 17 -1 21 5 3 6 9 11 12 11 3 0 0 -6 -6 -13z
m-1509 -124 l-1 -108 95 -54 c52 -29 97 -58 101 -64 6 -10 -36 12 -124 65 -18
11 -33 17 -33 13 0 -3 -7 1 -16 9 -8 9 -21 16 -27 16 -8 0 -11 19 -10 57 1 33
-3 63 -10 72 -10 12 -9 13 1 7 11 -7 13 4 10 53 -2 38 0 57 5 52 6 -6 10 -58
9 -118z m1735 113 c0 -8 -6 -12 -15 -9 -11 5 -11 7 0 14 7 5 13 9 14 9 0 0 1
-6 1 -14z m-817 0 c0 -2 -7 -7 -16 -10 -8 -3 -12 -2 -9 4 6 10 25 14 25 6z
m185 -6 c3 -6 -1 -7 -9 -4 -18 7 -21 14 -7 14 6 0 13 -4 16 -10z m230 0 c3 -6
-1 -7 -9 -4 -18 7 -21 14 -7 14 6 0 13 -4 16 -10z m-1161 -12 c-3 -4 -9 -8
-15 -8 -5 0 -9 4 -9 8 0 5 7 9 15 9 8 0 12 -4 9 -9z m166 2 c0 -5 -2 -10 -4
-10 -3 0 -8 5 -11 10 -3 6 -1 10 4 10 6 0 11 -4 11 -10z m135 0 c-3 -5 -11
-10 -16 -10 -6 0 -7 5 -4 10 3 6 11 10 16 10 6 0 7 -4 4 -10z m80 -8 c-3 -3
-11 0 -18 7 -9 10 -8 11 6 5 10 -3 15 -9 12 -12z m400 0 c-3 -3 -11 0 -18 7
-9 10 -8 11 6 5 10 -3 15 -9 12 -12z m510 8 c-3 -5 -12 -10 -18 -10 -7 0 -6 4
3 10 19 12 23 12 15 0z m-1604 -17 c13 -15 12 -15 -8 -4 -24 12 -29 21 -14 21
5 0 15 -7 22 -17z m879 7 c0 -5 -2 -10 -4 -10 -3 0 -8 5 -11 10 -3 6 -1 10 4
10 6 0 11 -4 11 -10z m140 6 c0 -3 -4 -8 -10 -11 -5 -3 -10 -1 -10 4 0 6 5 11
10 11 6 0 10 -2 10 -4z m180 0 c0 -3 -4 -8 -10 -11 -5 -3 -10 -1 -10 4 0 6 5
11 10 11 6 0 10 -2 10 -4z m91 -13 c13 -15 12 -15 -8 -4 -24 12 -29 21 -14 21
5 0 15 -7 22 -17z m129 13 c0 -3 -4 -8 -10 -11 -5 -3 -10 -1 -10 4 0 6 5 11
10 11 6 0 10 -2 10 -4z m265 -6 c3 -5 2 -10 -4 -10 -5 0 -13 5 -16 10 -3 6 -2
10 4 10 5 0 13 -4 16 -10z m-1405 -10 c0 -5 -5 -10 -11 -10 -5 0 -7 5 -4 10 3
6 8 10 11 10 2 0 4 -4 4 -10z m460 -4 c0 -2 -7 -7 -16 -10 -8 -3 -12 -2 -9 4
6 10 25 14 25 6z m410 -10 c-7 -7 -13 -7 -20 0 -6 6 -3 10 10 10 13 0 16 -4
10 -10z m611 0 c5 3 9 1 9 -4 0 -18 -28 -21 -47 -6 -10 9 -13 13 -6 10 6 -4
15 -1 19 6 6 9 9 9 12 0 2 -7 8 -10 13 -6z m-397 -8 c-3 -4 -15 -8 -27 -8 -15
0 -18 3 -9 8 17 11 43 11 36 0z m-969 -8 c3 -5 1 -10 -4 -10 -6 0 -11 5 -11
10 0 6 2 10 4 10 3 0 8 -4 11 -10z m300 0 c-3 -5 -12 -10 -18 -10 -7 0 -6 4 3
10 19 12 23 12 15 0z m259 -5 c3 -9 0 -15 -9 -15 -8 0 -15 7 -15 15 0 8 4 15
9 15 5 0 11 -7 15 -15z m-874 -5 c0 -5 -2 -10 -4 -10 -3 0 -8 5 -11 10 -3 6
-1 10 4 10 6 0 11 -4 11 -10z m715 0 c3 -5 2 -10 -4 -10 -5 0 -13 5 -16 10 -3
6 -2 10 4 10 5 0 13 -4 16 -10z m305 0 c0 -5 -5 -10 -11 -10 -5 0 -7 5 -4 10
3 6 8 10 11 10 2 0 4 -4 4 -10z m400 0 c0 -5 -5 -10 -11 -10 -5 0 -7 5 -4 10
3 6 8 10 11 10 2 0 4 -4 4 -10z m95 0 c3 -6 -1 -7 -9 -4 -18 7 -21 14 -7 14 6
0 13 -4 16 -10z m315 6 c0 -3 -4 -8 -10 -11 -5 -3 -10 -1 -10 4 0 6 5 11 10
11 6 0 10 -2 10 -4z m-225 -16 c-3 -5 -11 -10 -16 -10 -6 0 -7 5 -4 10 3 6 11
10 16 10 6 0 7 -4 4 -10z m130 0 c3 -5 1 -10 -4 -10 -6 0 -11 5 -11 10 0 6 2
10 4 10 3 0 8 -4 11 -10z m55 -4 c0 -2 -6 -9 -14 -15 -11 -9 -16 -9 -22 0 -4
7 -3 9 4 5 6 -3 13 -2 17 4 6 10 15 14 15 6z m-977 -44 c8 -11 6 -11 -16 -1
-20 9 -23 14 -14 24 9 10 13 10 16 2 2 -7 8 -18 14 -25z m362 28 c-3 -5 -12
-10 -18 -10 -7 0 -6 4 3 10 19 12 23 12 15 0z m195 -4 c-7 -7 -13 -7 -20 0 -6
6 -3 10 10 10 13 0 16 -4 10 -10z m200 4 c0 -5 -4 -10 -10 -10 -5 0 -10 5 -10
10 0 6 5 10 10 10 6 0 10 -4 10 -10z m-1142 -16 c5 3 9 -1 9 -8 0 -8 -6 -12
-13 -9 -6 2 -15 0 -19 -6 -3 -6 -12 -11 -18 -11 -7 0 -3 7 7 15 11 8 14 15 8
15 -7 0 -12 5 -12 11 0 8 4 8 15 -1 8 -6 18 -9 23 -6z m50 4 c10 -10 17 -10
35 1 20 13 21 13 8 -2 -9 -11 -10 -17 -2 -17 6 0 11 -4 11 -10 0 -5 -15 -1
-34 9 -19 11 -37 17 -40 14 -3 -4 -6 -1 -6 5 0 15 13 15 28 0z m460 -9 c-20
-13 -28 -11 -22 5 3 8 12 12 21 9 12 -5 12 -7 1 -14z m273 -6 c13 -15 12 -15
-8 -4 -24 12 -29 21 -14 21 5 0 15 -7 22 -17z m129 13 c0 -3 -4 -8 -10 -11 -5
-3 -10 -1 -10 4 0 6 5 11 10 11 6 0 10 -2 10 -4z m265 -6 c3 -5 2 -10 -4 -10
-5 0 -13 5 -16 10 -3 6 -2 10 4 10 5 0 13 -4 16 -10z m-480 -10 c-3 -5 -11
-10 -16 -10 -6 0 -7 5 -4 10 3 6 11 10 16 10 6 0 7 -4 4 -10z m556 -23 c-5 -5
-18 -7 -28 -3 -14 6 -15 9 -4 16 19 11 46 1 32 -13z m-956 3 c-3 -5 -12 -10
-18 -10 -7 0 -6 4 3 10 19 12 23 12 15 0z m290 -8 c-3 -3 -11 0 -18 7 -9 10
-8 11 6 5 10 -3 15 -9 12 -12z m269 6 c-3 -4 -14 -8 -25 -8 -11 0 -18 4 -14 9
3 6 14 9 25 8 10 -1 16 -5 14 -9z m-414 -8 c0 -5 -4 -10 -10 -10 -5 0 -10 5
-10 10 0 6 5 10 10 10 6 0 10 -4 10 -10z m185 -10 c-3 -5 -12 -10 -18 -10 -7
0 -6 4 3 10 19 12 23 12 15 0z m155 -4 c0 -3 -4 -8 -10 -11 -5 -3 -10 -1 -10
4 0 6 5 11 10 11 6 0 10 -2 10 -4z m131 -13 c13 -15 12 -15 -8 -4 -24 12 -29
21 -14 21 5 0 15 -7 22 -17z m264 7 c-3 -5 -11 -10 -16 -10 -6 0 -7 5 -4 10 3
6 11 10 16 10 6 0 7 -4 4 -10z m-1285 -4 c0 -3 -4 -8 -10 -11 -5 -3 -10 -1
-10 4 0 6 5 11 10 11 6 0 10 -2 10 -4z m145 -6 c3 -5 1 -10 -4 -10 -6 0 -11 5
-11 10 0 6 2 10 4 10 3 0 8 -4 11 -10z m158 -4 c17 -13 16 -14 -3 -19 -12 -3
-18 -1 -14 5 4 6 0 14 -7 19 -8 5 -9 9 -4 9 6 -1 18 -7 28 -14z m177 -12 c0
-8 -5 -12 -10 -9 -6 4 -8 11 -5 16 9 14 15 11 15 -7z m135 6 c3 -5 2 -10 -4
-10 -5 0 -13 5 -16 10 -3 6 -2 10 4 10 5 0 13 -4 16 -10z m635 5 c0 -2 -9 -9
-20 -15 -12 -6 -20 -7 -20 -1 0 5 8 12 18 14 9 3 18 5 20 6 1 0 2 -1 2 -4z
m227 -9 c0 -8 -6 -12 -15 -9 -11 5 -11 7 0 14 7 5 13 9 14 9 0 0 1 -6 1 -14z
m-664 -9 c4 3 7 2 7 -4 0 -6 -8 -13 -18 -15 -12 -4 -18 1 -19 14 -2 15 1 17
11 9 7 -6 16 -8 19 -4z m252 3 c3 -6 -1 -7 -9 -4 -18 7 -21 14 -7 14 6 0 13
-4 16 -10z m-528 -15 c0 -8 -4 -12 -9 -9 -5 3 -6 10 -3 15 9 13 12 11 12 -6z
m109 3 c4 -6 3 -8 -4 -4 -5 3 -19 -6 -30 -21 -11 -16 -23 -25 -27 -21 -4 4 5
18 20 32 32 30 32 30 41 14z m319 -4 c13 -9 28 -13 34 -10 5 3 11 -1 14 -9 3
-7 20 -21 37 -30 26 -14 34 -14 48 -3 15 12 16 11 4 -4 -12 -15 -10 -19 16
-32 16 -8 33 -12 36 -8 4 3 4 -1 1 -10 -6 -16 -9 -15 -35 4 -15 11 -33 17 -39
14 -6 -4 -11 -1 -11 7 0 16 -67 50 -82 41 -7 -4 -8 -2 -4 4 4 6 -5 17 -21 25
-24 13 -30 13 -50 0 -13 -8 -20 -20 -16 -26 3 -6 1 -7 -6 -3 -6 4 -28 -2 -49
-15 -79 -47 -103 -59 -97 -49 4 6 31 25 62 43 30 18 71 42 91 53 21 12 38 22
40 23 1 1 14 -6 27 -15z m-1378 -16 c-3 -8 -6 -5 -6 6 -1 11 2 17 5 13 3 -3 4
-12 1 -19z m290 -10 c-3 -7 -5 -2 -5 12 0 14 2 19 5 13 2 -7 2 -19 0 -25z
m1318 22 c-3 -5 -12 -10 -18 -10 -7 0 -6 4 3 10 19 12 23 12 15 0z m310 0 c3
-5 1 -10 -4 -10 -6 0 -11 5 -11 10 0 6 2 10 4 10 3 0 8 -4 11 -10z m-1282 -15
c14 4 28 2 31 -4 5 -7 1 -8 -9 -4 -10 3 -20 1 -24 -6 -6 -9 -13 -7 -27 6 -11
10 -15 14 -8 10 7 -4 23 -5 37 -2z m1077 -1 c-6 -6 -7 -14 -3 -18 4 -4 0 -4
-10 0 -23 9 -22 30 2 30 14 0 17 -4 11 -12z m117 -4 c8 -12 5 -15 -14 -16 -13
-1 -22 1 -19 4 3 3 2 10 -4 16 -6 8 -3 12 9 12 11 0 23 -7 28 -16z m-1727 -5
c11 -13 10 -14 -4 -9 -9 3 -16 10 -16 15 0 13 6 11 20 -6z m710 11 c0 -3 -4
-8 -10 -11 -5 -3 -10 -1 -10 4 0 6 5 11 10 11 6 0 10 -2 10 -4z m89 -10 c9
-11 7 -15 -9 -19 -11 -3 -23 0 -27 5 -3 7 -1 8 5 4 7 -4 12 -1 12 8 0 20 4 20
19 2z m211 4 c0 -5 -2 -10 -4 -10 -3 0 -8 5 -11 10 -3 6 -1 10 4 10 6 0 11 -4
11 -10z m450 -4 c0 -2 -7 -7 -16 -10 -8 -3 -12 -2 -9 4 6 10 25 14 25 6z
m-1019 -27 c12 -12 15 -19 8 -15 -8 3 -22 9 -31 12 -10 4 -18 10 -18 15 0 16
19 10 41 -12z m44 11 c3 -5 1 -10 -4 -10 -6 0 -11 5 -11 10 0 6 2 10 4 10 3 0
8 -4 11 -10z m122 -21 c-1 -21 -12 -25 -22 -9 -3 6 -1 10 6 10 8 0 8 4 -1 15
-11 13 -10 14 3 9 9 -3 15 -14 14 -25z m73 27 c0 -2 -7 -7 -16 -10 -8 -3 -12
-2 -9 4 6 10 25 14 25 6z m370 -4 c0 -5 -7 -9 -15 -9 -8 0 -15 4 -15 9 0 4 7
8 15 8 8 0 15 -4 15 -8z m-990 -6 c0 -5 -147 -89 -165 -94 -14 -5 77 54 122
78 40 21 43 22 43 16z m268 -43 c14 -12 14 -13 0 -13 -9 0 -19 -6 -22 -12 -4
-7 -4 -3 -2 8 2 13 -4 27 -15 35 -14 9 -15 15 -6 21 7 4 15 0 21 -10 4 -9 16
-23 24 -29z m425 22 c-7 -21 -13 -19 -13 6 0 11 4 18 10 14 5 -3 7 -12 3 -20z
m1054 5 c-1 -11 -8 -22 -16 -25 -9 -3 -12 -3 -8 1 4 4 2 13 -5 21 -8 11 -7 12
6 7 9 -3 16 -1 16 5 0 6 2 11 4 11 3 0 4 -9 3 -20z m-1900 -10 c10 -13 8 -16
-6 -16 -13 0 -17 6 -13 19 2 10 5 16 6 15 1 -2 7 -10 13 -18z m30 14 c-3 -3
-12 -4 -19 -1 -8 3 -5 6 6 6 11 1 17 -2 13 -5z m588 -4 c3 -6 -1 -7 -9 -4 -18
7 -21 14 -7 14 6 0 13 -4 16 -10z m330 0 c3 -5 1 -10 -4 -10 -6 0 -11 5 -11
10 0 6 2 10 4 10 3 0 8 -4 11 -10z m151 -7 c-2 -9 -8 -19 -14 -21 -16 -5 -15
25 1 31 6 3 13 6 14 6 1 1 0 -7 -1 -16z m514 -9 c0 -7 -6 -11 -13 -8 -8 3 -14
11 -14 18 0 8 6 12 14 9 7 -3 13 -11 13 -19z m145 16 c-3 -5 -12 -10 -18 -10
-7 0 -6 4 3 10 19 12 23 12 15 0z m-1581 -16 c3 -8 2 -12 -4 -9 -6 3 -10 10
-10 16 0 14 7 11 14 -7z m595 -30 c-15 -18 -16 -18 -21 11 -4 21 -3 23 14 14
15 -8 17 -13 7 -25z m41 26 c0 -5 -4 -10 -9 -10 -6 0 -13 5 -16 10 -3 6 1 10
9 10 9 0 16 -4 16 -10z m-562 -29 c1 -22 0 -24 -11 -10 -6 9 -17 14 -23 12 -6
-2 -11 2 -11 9 0 7 10 14 22 14 16 1 21 -5 23 -25z m752 19 c0 -5 -2 -10 -4
-10 -3 0 -8 5 -11 10 -3 6 -1 10 4 10 6 0 11 -4 11 -10z m-368 -14 c3 2 8 -2
11 -10 4 -10 1 -13 -8 -10 -7 3 -24 0 -37 -6 -21 -10 -22 -10 -4 4 11 9 15 20
10 28 -6 10 -5 11 8 1 8 -7 17 -10 20 -7z m217 0 c9 -11 8 -15 -5 -20 -8 -3
-17 -6 -18 -6 -1 0 -2 9 -2 20 0 23 9 26 25 6z m272 -3 c13 -16 12 -17 -3 -4
-10 7 -18 15 -18 17 0 8 8 3 21 -13z m-657 -5 c-3 -4 -9 -8 -15 -8 -5 0 -9 4
-9 8 0 5 7 9 15 9 8 0 12 -4 9 -9z m576 2 c0 -5 -5 -10 -11 -10 -5 0 -7 5 -4
10 3 6 8 10 11 10 2 0 4 -4 4 -10z m233 -2 c3 -8 -4 -13 -19 -13 -22 0 -23 1
-7 13 9 6 18 12 19 12 1 0 4 -6 7 -12z m162 -6 c-3 -3 -11 0 -18 7 -9 10 -8
11 6 5 10 -3 15 -9 12 -12z m235 6 c0 -4 -4 -8 -9 -8 -6 0 -12 4 -15 8 -3 5 1
9 9 9 8 0 15 -4 15 -9z m170 2 c0 -5 -5 -10 -11 -10 -5 0 -7 5 -4 10 3 6 8 10
11 10 2 0 4 -4 4 -10z m-1553 -51 c-4 -22 -4 -21 -6 4 -1 19 -5 26 -13 21 -7
-5 -8 -3 -3 5 11 19 27 -3 22 -30z m713 31 c0 -5 -5 -10 -11 -10 -5 0 -7 5 -4
10 3 6 8 10 11 10 2 0 4 -4 4 -10z m84 -5 c3 -8 1 -15 -4 -15 -6 0 -10 7 -10
15 0 8 2 15 4 15 2 0 6 -7 10 -15z m326 11 c0 -2 -7 -7 -16 -10 -8 -3 -12 -2
-9 4 6 10 25 14 25 6z m395 -6 c-3 -5 -11 -10 -16 -10 -6 0 -7 5 -4 10 3 6 11
10 16 10 6 0 7 -4 4 -10z m-1681 -29 c-2 -3 -12 3 -22 13 -16 17 -16 18 5 5
12 -7 20 -15 17 -18z m273 -3 c-3 -7 -5 -2 -5 12 0 14 2 19 5 13 2 -7 2 -19 0
-25z m1088 22 c3 -5 1 -10 -4 -10 -6 0 -11 5 -11 10 0 6 2 10 4 10 3 0 8 -4
11 -10z m130 0 c-3 -5 -11 -10 -16 -10 -6 0 -7 5 -4 10 3 6 11 10 16 10 6 0 7
-4 4 -10z m270 0 c3 -5 1 -10 -4 -10 -6 0 -11 5 -11 10 0 6 2 10 4 10 3 0 8
-4 11 -10z m-1165 -26 c0 -2 -9 0 -20 6 -11 6 -20 13 -20 16 0 2 9 0 20 -6 11
-6 20 -13 20 -16z m480 22 c0 -3 -4 -8 -10 -11 -5 -3 -10 -1 -10 4 0 6 5 11
10 11 6 0 10 -2 10 -4z m-820 -10 c0 -3 -4 -8 -10 -11 -5 -3 -10 -1 -10 4 0 6
5 11 10 11 6 0 10 -2 10 -4z m165 -14 c-3 -3 -11 0 -18 7 -9 10 -8 11 6 5 10
-3 15 -9 12 -12z m219 -44 c-1 -35 3 -69 9 -75 6 -9 6 -13 -3 -13 -7 0 -10 -8
-7 -20 3 -11 1 -18 -4 -14 -5 3 -9 16 -9 30 0 13 -6 24 -12 24 -9 0 -8 3 2 10
16 10 16 67 0 84 -6 6 -2 15 8 22 9 8 17 14 17 14 0 0 0 -28 -1 -62z m406 43
c0 -13 -58 -11 -63 2 -3 9 4 12 29 9 19 -2 34 -7 34 -11z m175 9 c3 -5 1 -10
-4 -10 -6 0 -11 5 -11 10 0 6 2 10 4 10 3 0 8 -4 11 -10z m238 -14 c15 -10 27
-21 27 -23 0 -3 -10 1 -23 10 -12 8 -35 13 -49 12 -15 -2 -29 2 -31 9 -7 19
43 13 76 -8z m162 14 c3 -5 1 -10 -4 -10 -6 0 -11 5 -11 10 0 6 2 10 4 10 3 0
8 -4 11 -10z m-734 -37 c13 -15 12 -15 -8 -4 -24 12 -29 21 -14 21 5 0 15 -7
22 -17z m794 7 c3 -5 2 -10 -4 -10 -5 0 -13 5 -16 10 -3 6 -2 10 4 10 5 0 13
-4 16 -10z m90 0 c-3 -5 -12 -10 -18 -10 -7 0 -6 4 3 10 19 12 23 12 15 0z
m-1175 -5 c0 -2 -10 -10 -22 -16 -21 -11 -22 -11 -9 4 13 16 31 23 31 12z
m943 -17 c-2 -5 -10 -8 -18 -8 -8 0 -16 3 -18 8 -3 4 5 7 18 7 13 0 21 -3 18
-7z m-819 -12 c-3 -8 -12 -12 -21 -9 -12 5 -12 7 -1 14 20 13 28 11 22 -5z
m606 10 c0 -2 -7 -7 -16 -10 -8 -3 -12 -2 -9 4 6 10 25 14 25 6z m404 -4 c2
-4 -4 -8 -14 -8 -10 0 -16 4 -14 8 3 4 9 8 14 8 5 0 11 -4 14 -8z m-1514 -6
c0 -2 -7 -6 -15 -10 -8 -3 -15 -1 -15 4 0 6 7 10 15 10 8 0 15 -2 15 -4z m330
0 c0 -2 -7 -7 -16 -10 -8 -3 -12 -2 -9 4 6 10 25 14 25 6z m605 -6 c3 -5 1
-10 -4 -10 -6 0 -11 5 -11 10 0 6 2 10 4 10 3 0 8 -4 11 -10z m-875 -18 c0 -7
-4 -11 -9 -7 -5 3 -12 1 -16 -5 -3 -5 -11 -10 -17 -10 -7 0 -7 4 1 13 6 8 9
16 6 18 -2 3 5 5 15 5 11 0 20 -6 20 -14z m685 8 c3 -5 1 -10 -4 -10 -6 0 -11
5 -11 10 0 6 2 10 4 10 3 0 8 -4 11 -10z m400 0 c3 -5 1 -10 -4 -10 -6 0 -11
5 -11 10 0 6 2 10 4 10 3 0 8 -4 11 -10z m121 -5 c-11 -8 -24 -15 -29 -15 -5
0 -3 -8 4 -17 12 -16 12 -17 -1 -7 -8 7 -27 11 -42 9 -15 -2 -29 2 -31 9 -3 8
5 11 28 10 18 -2 41 3 51 11 11 8 24 14 29 14 6 0 1 -6 -9 -14z m89 5 c3 -5 2
-10 -4 -10 -5 0 -13 5 -16 10 -3 6 -2 10 4 10 5 0 13 -4 16 -10z m115 6 c0 -2
-8 -10 -17 -17 -16 -13 -17 -12 -4 4 13 16 21 21 21 13z m75 -6 c3 -5 1 -10
-4 -10 -6 0 -11 5 -11 10 0 6 2 10 4 10 3 0 8 -4 11 -10z m-1565 -18 c18 -14
19 -19 7 -19 -9 0 -19 7 -21 14 -3 8 -10 11 -16 8 -5 -3 -10 -1 -10 4 0 16 15
13 40 -7z m300 8 c0 -5 -5 -10 -11 -10 -5 0 -7 5 -4 10 3 6 8 10 11 10 2 0 4
-4 4 -10z m91 -7 c13 -15 12 -15 -8 -4 -24 12 -29 21 -14 21 5 0 15 -7 22 -17z
m489 13 c0 -3 -4 -8 -10 -11 -5 -3 -10 -1 -10 4 0 6 5 11 10 11 6 0 10 -2 10
-4z m200 0 c0 -2 -7 -7 -16 -10 -8 -3 -12 -2 -9 4 6 10 25 14 25 6z m-563 -28
c-3 -8 -6 -5 -6 6 -1 11 2 17 5 13 3 -3 4 -12 1 -19z m329 9 c3 -3 -4 -8 -16
-12 -14 -4 -28 -2 -36 7 -13 12 -10 14 16 12 18 -1 34 -4 36 -7z m584 -12 c0
-2 -6 -5 -13 -8 -8 -3 -14 1 -14 8 0 7 6 11 14 8 7 -3 13 -6 13 -8z m-400 1
c0 -2 -7 -7 -16 -10 -8 -3 -12 -2 -9 4 6 10 25 14 25 6z m-420 -10 c0 -2 -7
-7 -16 -10 -8 -3 -12 -2 -9 4 6 10 25 14 25 6z m547 -18 c-3 -8 -6 -5 -6 6 -1
11 2 17 5 13 3 -3 4 -12 1 -19z m-772 2 c-3 -5 -11 -10 -16 -10 -6 0 -7 5 -4
10 3 6 11 10 16 10 6 0 7 -4 4 -10z m690 0 c3 -5 2 -10 -4 -10 -5 0 -13 5 -16
10 -3 6 -2 10 4 10 5 0 13 -4 16 -10z m310 0 c-3 -5 -12 -10 -18 -10 -7 0 -6
4 3 10 19 12 23 12 15 0z m185 6 c0 -3 -4 -8 -10 -11 -5 -3 -10 -1 -10 4 0 6
5 11 10 11 6 0 10 -2 10 -4z m-1832 -45 c122 -69 132 -76 132 -83 0 -4 -21 6
-47 22 -26 17 -53 28 -60 26 -7 -3 -12 -1 -10 4 1 6 -20 24 -48 40 -27 16 -46
30 -42 30 4 0 38 -17 75 -39z m275 27 c-6 -7 -9 -21 -8 -30 2 -10 -2 -15 -10
-12 -16 7 -13 33 6 45 20 12 23 11 12 -3z m190 0 c-2 -5 -10 -8 -18 -8 -8 0
-16 3 -18 8 -3 4 5 7 18 7 13 0 21 -3 18 -7z m758 -1 c-6 -8 -8 -16 -5 -19 3
-3 -6 -5 -20 -4 -32 1 -32 2 2 20 34 19 37 19 23 3z m166 -11 c0 -8 -6 -12
-15 -9 -11 5 -11 7 0 14 7 5 13 9 14 9 0 0 1 -6 1 -14z m253 -21 c0 -10 -16
-4 -40 16 l-25 20 33 -16 c17 -8 32 -18 32 -20z m150 9 c0 -2 -9 0 -20 6 -11
6 -20 13 -20 16 0 2 9 0 20 -6 11 -6 20 -13 20 -16z m-1443 5 c12 -12 26 -21
91 -56 22 -13 44 -28 48 -34 4 -8 0 -8 -15 0 -12 7 -26 9 -31 6 -6 -4 -9 -2
-8 5 2 6 -19 23 -47 38 -60 33 -83 52 -63 52 8 0 19 -5 25 -11z m293 7 c0 -2
-7 -7 -16 -10 -8 -3 -12 -2 -9 4 6 10 25 14 25 6z m148 -13 c-13 -16 -15 -16
-21 1 -4 10 0 14 13 13 14 -1 16 -4 8 -14z m182 10 c0 -1 -14 -10 -30 -18 -29
-15 -30 -15 -19 2 9 15 49 28 49 16z m189 -45 c13 -10 30 -18 37 -18 7 0 19
-6 26 -13 32 -33 58 -39 85 -22 21 14 23 19 12 27 -10 7 -8 8 8 3 29 -8 86 21
79 41 -3 8 -1 14 4 14 6 0 10 -5 10 -10 0 -6 13 -4 30 5 42 22 51 18 12 -5
-18 -11 -30 -25 -27 -30 3 -5 -1 -7 -9 -4 -22 8 -79 -24 -72 -42 4 -11 0 -13
-18 -8 -14 3 -27 0 -35 -9 -10 -13 -17 -12 -53 8 -23 13 -46 21 -51 18 -6 -3
-7 -2 -4 4 3 5 -24 25 -59 44 -36 19 -68 37 -71 42 -6 11 67 -24 96 -45z m581
33 c0 -5 -7 -12 -16 -15 -14 -5 -15 -4 -4 9 14 17 20 19 20 6z m-1182 -26 c2
-23 0 -24 -18 -15 -11 6 -26 8 -32 4 -7 -4 -8 -3 -4 5 4 6 16 9 27 6 11 -4 19
-3 18 2 -2 10 0 23 4 23 1 0 4 -11 5 -25z m37 15 c-3 -5 -12 -10 -18 -10 -7 0
-6 4 3 10 19 12 23 12 15 0z m150 -8 c-3 -3 -11 0 -18 7 -9 10 -8 11 6 5 10
-3 15 -9 12 -12z m1080 8 c4 -6 10 -8 15 -5 4 3 6 -4 3 -14 -3 -12 -11 -17
-19 -14 -8 3 -12 8 -10 11 3 3 1 11 -5 19 -8 9 -8 13 -1 13 6 0 14 -5 17 -10z
m-803 -22 c-6 -6 -16 -7 -22 -3 -9 6 -9 9 1 16 17 10 34 0 21 -13z m532 5 c4
-10 4 -14 0 -11 -4 4 -15 3 -26 -3 -17 -9 -18 -8 -6 10 16 26 24 26 32 4z
m-1141 -69 c64 -37 52 -43 -14 -7 -58 31 -63 34 -99 64 -26 21 -13 14 113 -57z
m250 64 c16 -12 15 -13 -6 -13 -13 0 -24 6 -24 13 0 6 3 12 7 12 3 0 14 -6 23
-12z m77 -10 c0 -6 -6 -5 -15 2 -8 7 -15 14 -15 16 0 2 7 1 15 -2 8 -4 15 -11
15 -16z m42 -2 c4 -19 1 -22 -14 -18 -10 2 -20 -2 -24 -12 -3 -9 -10 -16 -15
-16 -18 0 -9 17 16 30 14 7 25 19 25 27 0 21 7 15 12 -11z m518 17 c0 -1 -8
-7 -18 -12 -13 -7 -19 -6 -19 2 0 7 9 13 19 13 10 0 18 -1 18 -3z m390 -8 c0
-2 -6 -5 -13 -8 -8 -3 -14 1 -14 8 0 7 6 11 14 8 7 -3 13 -6 13 -8z m-1700
-27 c0 -12 -3 -18 -7 -14 -11 10 -12 36 -2 36 5 0 9 -10 9 -22z m1095 12 c-3
-5 -12 -10 -18 -10 -7 0 -6 4 3 10 19 12 23 12 15 0z m665 -13 c3 1 6 -7 6
-18 0 -22 1 -21 -20 -13 -9 3 -13 10 -10 16 3 5 -2 16 -12 24 -17 14 -17 14 6
2 14 -7 27 -12 30 -11z m-1166 -26 c-2 -2 -10 -1 -19 3 -13 5 -14 8 -3 20 11
12 14 12 19 -3 4 -9 5 -18 3 -20z m263 22 c0 -7 -5 -9 -10 -6 -5 3 -13 -1 -18
-8 -6 -10 -8 -8 -7 6 2 22 35 30 35 8z m93 -4 c0 -16 -4 -19 -21 -14 -16 5
-19 4 -14 -5 5 -8 4 -11 -3 -6 -6 4 -9 13 -6 21 4 8 10 13 14 10 5 -3 11 -1
15 5 10 16 15 12 15 -11z m-720 7 c0 -3 -4 -8 -10 -11 -5 -3 -10 -1 -10 4 0 6
5 11 10 11 6 0 10 -2 10 -4z m1274 -4 c2 -4 -4 -8 -14 -8 -10 0 -16 4 -14 8 3
4 9 8 14 8 5 0 11 -4 14 -8z m136 -7 c-7 -9 -15 -13 -17 -11 -7 7 7 26 19 26
6 0 6 -6 -2 -15z m-1375 -5 c-3 -5 -12 -10 -18 -10 -7 0 -6 4 3 10 19 12 23
12 15 0z m-184 -13 c-6 -8 -8 -17 -4 -20 3 -4 1 -7 -5 -7 -20 0 -23 19 -5 29
24 14 27 13 14 -2z m1076 -5 l23 -17 -24 0 c-13 0 -22 2 -20 4 2 2 -1 10 -7
18 -16 19 2 16 28 -5z m293 9 c0 -5 -7 -12 -16 -15 -14 -5 -15 -4 -4 9 14 17
20 19 20 6z m397 -13 c-3 -8 -6 -5 -6 6 -1 11 2 17 5 13 3 -3 4 -12 1 -19z
m-840 -1 c0 -7 -9 -13 -19 -13 -18 0 -18 1 -2 13 10 7 18 13 19 13 1 0 2 -6 2
-13z m548 3 c3 -5 2 -10 -4 -10 -5 0 -13 5 -16 10 -3 6 -2 10 4 10 5 0 13 -4
16 -10z m-1038 -25 c-4 -8 -13 -15 -22 -15 -13 0 -12 3 2 20 19 22 29 19 20
-5z m1183 15 c0 -5 -2 -10 -4 -10 -3 0 -8 5 -11 10 -3 6 -1 10 4 10 6 0 11 -4
11 -10z m-1560 -10 c0 -5 -5 -10 -11 -10 -5 0 -7 5 -4 10 3 6 8 10 11 10 2 0
4 -4 4 -10z m525 -8 c-3 -3 -11 0 -18 7 -9 10 -8 11 6 5 10 -3 15 -9 12 -12z
m745 14 c0 -2 -7 -7 -16 -10 -8 -3 -12 -2 -9 4 6 10 25 14 25 6z m-516 -57
c-9 -16 -22 -10 -19 9 2 9 4 24 5 32 1 9 5 6 11 -8 5 -13 7 -28 3 -33z m56 42
c0 -5 -7 -12 -16 -15 -14 -5 -15 -4 -4 9 14 17 20 19 20 6z m-915 -19 c-3 -3
-11 0 -18 7 -9 10 -8 11 6 5 10 -3 15 -9 12 -12z m1195 8 c0 -5 -2 -10 -4 -10
-3 0 -8 5 -11 10 -3 6 -1 10 4 10 6 0 11 -4 11 -10z m550 5 c0 -2 -10 -9 -22
-15 -22 -11 -22 -10 -4 4 21 17 26 19 26 11z m75 -5 c3 -5 2 -10 -4 -10 -5 0
-13 5 -16 10 -3 6 -2 10 4 10 5 0 13 -4 16 -10z m-1715 -8 c0 -7 -21 -20 -82
-50 -3 -2 -4 6 -1 18 4 13 11 19 20 16 8 -3 24 1 36 9 25 17 27 18 27 7z
m1367 -16 c0 -8 -6 -12 -15 -9 -11 5 -11 7 0 14 7 5 13 9 14 9 0 0 1 -6 1 -14z
m-989 -14 c5 -15 -14 -16 -23 -2 -4 6 -11 7 -17 4 -6 -4 -8 -2 -5 4 9 13 40 9
45 -6z m787 8 c3 -5 -3 -10 -15 -10 -12 0 -18 5 -15 10 3 6 10 10 15 10 5 0
12 -4 15 -10z m422 -5 c0 -6 -10 -10 -21 -9 -12 1 -25 3 -31 3 -5 1 -5 5 2 9
18 11 50 9 50 -3z m-697 -5 c0 -5 -5 -10 -11 -10 -5 0 -7 5 -4 10 3 6 8 10 11
10 2 0 4 -4 4 -10z m-890 -21 c0 -4 -7 -6 -15 -3 -8 4 -15 10 -15 15 0 4 7 6
15 3 8 -4 15 -10 15 -15z m329 -1 c11 -17 10 -18 -7 -9 -11 6 -22 7 -26 4 -3
-3 -6 0 -6 9 0 21 25 18 39 -4z m86 12 c-3 -5 -12 -10 -18 -10 -7 0 -6 4 3 10
19 12 23 12 15 0z m590 0 c3 -5 1 -10 -4 -10 -6 0 -11 5 -11 10 0 6 2 10 4 10
3 0 8 -4 11 -10z m310 0 c-3 -5 -11 -10 -16 -10 -6 0 -7 5 -4 10 3 6 11 10 16
10 6 0 7 -4 4 -10z m392 -12 c-3 -8 -6 -5 -6 6 -1 11 2 17 5 13 3 -3 4 -12 1
-19z m-1012 -26 c-5 -6 -35 11 -35 20 0 5 5 6 10 3 6 -3 10 0 11 7 0 7 4 4 8
-7 5 -11 7 -21 6 -23z m53 8 c-3 -16 -1 -30 4 -30 4 0 8 -7 8 -15 0 -8 -6 -15
-13 -15 -8 0 -13 9 -11 23 1 12 3 32 3 45 1 12 4 22 7 22 4 0 4 -13 2 -30z
m62 20 c0 -5 -2 -10 -4 -10 -3 0 -8 5 -11 10 -3 6 -1 10 4 10 6 0 11 -4 11
-10z m290 6 c0 -3 -4 -8 -10 -11 -5 -3 -10 -1 -10 4 0 6 5 11 10 11 6 0 10 -2
10 -4z m315 -6 c3 -5 2 -10 -4 -10 -5 0 -13 5 -16 10 -3 6 -2 10 4 10 5 0 13
-4 16 -10z m78 -5 c-3 -9 -8 -14 -10 -11 -3 3 -2 9 2 15 9 16 15 13 8 -4z
m132 5 c3 -5 1 -10 -4 -10 -6 0 -11 5 -11 10 0 6 2 10 4 10 3 0 8 -4 11 -10z
m-1730 -10 c-3 -5 -12 -10 -18 -10 -7 0 -6 4 3 10 19 12 23 12 15 0z m480 0
c-3 -5 -11 -10 -16 -10 -6 0 -7 5 -4 10 3 6 11 10 16 10 6 0 7 -4 4 -10z m690
-10 c-3 -5 -12 -10 -18 -10 -7 0 -6 4 3 10 19 12 23 12 15 0z m402 -7 c0 -8
-6 -9 -19 -2 -10 5 -18 11 -18 12 0 2 8 3 18 3 10 0 19 -6 19 -13z m-662 -3
c-3 -5 -12 -10 -18 -10 -7 0 -6 4 3 10 19 12 23 12 15 0z m855 3 c-8 -3 -23
-12 -32 -21 -10 -8 -18 -12 -18 -7 0 12 33 34 50 34 13 -1 13 -1 0 -6z m-1717
-55 c-10 -20 -19 -5 -14 25 4 31 5 31 11 7 4 -14 5 -28 3 -32z m287 48 c0 -3
-4 -8 -10 -11 -5 -3 -10 -1 -10 4 0 6 5 11 10 11 6 0 10 -2 10 -4z m860 -6 c0
-5 -2 -10 -4 -10 -3 0 -8 5 -11 10 -3 6 -1 10 4 10 6 0 11 -4 11 -10z m140 6
c0 -3 -4 -8 -10 -11 -5 -3 -10 -1 -10 4 0 6 5 11 10 11 6 0 10 -2 10 -4z m185
-16 c-3 -5 -11 -10 -16 -10 -6 0 -7 5 -4 10 3 6 11 10 16 10 6 0 7 -4 4 -10z
m-1029 -37 c-8 -8 -36 5 -36 17 0 7 6 7 21 0 11 -7 18 -14 15 -17z m788 15
c-3 -4 -14 -8 -25 -8 -11 0 -18 4 -14 9 3 6 14 9 25 8 10 -1 16 -5 14 -9z
m413 -3 c0 -6 -10 -10 -21 -9 -12 1 -25 3 -31 3 -5 1 -5 5 2 9 18 11 50 9 50
-3z m-627 -5 c0 -5 -5 -10 -11 -10 -5 0 -7 5 -4 10 3 6 8 10 11 10 2 0 4 -4 4
-10z m-954 -28 c-4 -3 -14 2 -24 12 -16 18 -16 18 6 6 13 -6 21 -14 18 -18z
m-96 13 c0 -2 -10 -9 -22 -15 -22 -11 -22 -10 -4 4 21 17 26 19 26 11z m700
-21 c0 -2 -9 0 -20 6 -11 6 -20 13 -20 16 0 2 9 0 20 -6 11 -6 20 -13 20 -16z
m90 22 c0 -3 -4 -8 -10 -11 -5 -3 -10 -1 -10 4 0 6 5 11 10 11 6 0 10 -2 10
-4z m115 -6 c3 -6 -1 -7 -9 -4 -18 7 -21 14 -7 14 6 0 13 -4 16 -10z m285 6
c0 -3 -4 -8 -10 -11 -5 -3 -10 -1 -10 4 0 6 5 11 10 11 6 0 10 -2 10 -4z m120
-6 c0 -5 -2 -10 -4 -10 -3 0 -8 5 -11 10 -3 6 -1 10 4 10 6 0 11 -4 11 -10z
m405 0 c3 -5 1 -10 -4 -10 -6 0 -11 5 -11 10 0 6 2 10 4 10 3 0 8 -4 11 -10z
m-1167 -21 c10 -14 10 -18 -3 -23 -11 -4 -15 1 -15 21 0 14 1 24 3 22 1 -2 8
-11 15 -20z m284 -11 c-8 -8 -9 -4 -5 13 4 13 8 18 11 10 2 -7 -1 -18 -6 -23z
m568 22 c0 -5 -5 -10 -11 -10 -5 0 -7 5 -4 10 3 6 8 10 11 10 2 0 4 -4 4 -10z
m400 0 c0 -5 -5 -10 -11 -10 -5 0 -7 5 -4 10 3 6 8 10 11 10 2 0 4 -4 4 -10z
m-1630 -35 c0 -2 -9 -1 -20 2 -11 3 -20 0 -20 -6 0 -6 -5 -11 -11 -11 -8 0 -8
4 0 13 8 10 7 17 -2 26 -6 6 3 5 21 -4 17 -9 32 -18 32 -20z m807 16 c-1 -12
-7 -17 -19 -13 -10 2 -18 9 -18 14 0 5 4 7 9 3 5 -3 12 -1 16 5 9 15 14 12 12
-9z m676 -1 c3 -12 0 -20 -8 -20 -8 0 -11 8 -8 20 3 11 7 20 8 20 1 0 5 -9 8
-20z m-1703 5 c0 -2 -10 -9 -22 -15 -22 -11 -22 -10 -4 4 21 17 26 19 26 11z
m145 -5 c3 -5 2 -10 -4 -10 -5 0 -13 5 -16 10 -3 6 -2 10 4 10 5 0 13 -4 16
-10z m245 3 c0 -1 -9 -7 -19 -12 -14 -8 -20 -7 -24 3 -4 10 2 13 19 12 13 0
24 -2 24 -3z m130 -24 c0 -4 -7 -10 -16 -13 -8 -3 -12 -2 -9 4 3 6 1 10 -5 10
-7 0 -6 5 2 14 12 13 27 5 28 -15z m670 15 c0 -2 -7 -4 -15 -4 -8 0 -15 4 -15
10 0 5 7 7 15 4 8 -4 15 -8 15 -10z m400 4 c0 -4 -4 -8 -9 -8 -6 0 -12 4 -15
8 -3 5 1 9 9 9 8 0 15 -4 15 -9z m230 -4 c0 -2 -7 -4 -15 -4 -8 0 -15 4 -15
10 0 5 7 7 15 4 8 -4 15 -8 15 -10z m-1743 -1 c-4 -3 -3 -11 3 -17 6 -8 3 -12
-9 -12 -16 0 -19 10 -12 34 1 1 6 2 13 2 6 0 8 -3 5 -7z m1223 -3 c0 -5 -5
-10 -11 -10 -5 0 -7 5 -4 10 3 6 8 10 11 10 2 0 4 -4 4 -10z m-882 -12 c-2 -7
5 -12 15 -10 9 2 17 -2 17 -9 0 -6 7 -9 15 -5 28 10 15 -3 -17 -19 -18 -8 -26
-10 -16 -3 15 11 14 13 -9 25 -14 7 -30 10 -37 7 -6 -3 -2 2 8 10 24 19 27 20
24 4z m497 2 c3 -6 -1 -7 -9 -4 -18 7 -21 14 -7 14 6 0 13 -4 16 -10z m530 0
c3 -6 -1 -7 -9 -4 -18 7 -21 14 -7 14 6 0 13 -4 16 -10z m-876 -7 c-3 -20 2
-34 11 -28 6 3 10 1 10 -4 0 -16 -20 -13 -26 3 -3 8 -12 12 -20 9 -8 -3 -14 0
-14 5 0 6 8 13 18 15 9 3 18 5 20 6 1 0 1 -2 1 -6z m283 -5 c-6 -6 -8 -17 -5
-25 5 -13 3 -13 -14 -3 -27 17 -25 38 4 38 16 0 21 -4 15 -10z m383 4 c6 -4
12 -16 13 -26 3 -16 1 -18 -11 -8 -7 6 -16 10 -18 7 -3 -2 -5 5 -5 15 0 21 5
24 21 12z m131 -12 c0 -10 -2 -17 -5 -15 -2 3 -10 0 -18 -6 -16 -14 -17 -5 -3
22 14 25 26 24 26 -1z m268 14 c9 -3 16 -16 16 -28 0 -16 -2 -18 -9 -7 -5 7
-13 11 -18 8 -5 -3 -9 3 -9 14 0 22 -1 21 20 13z m126 -13 c-5 -11 -14 -22
-19 -25 -12 -8 -8 27 4 36 18 14 26 8 15 -11z m-1610 4 c0 -2 -15 -12 -32 -20
l-33 -16 25 20 c24 20 40 26 40 16z m809 -9 c10 -12 8 -13 -8 -9 -12 3 -21 9
-21 14 0 14 16 11 29 -5z m-946 -10 c7 4 4 -2 -6 -12 -15 -16 -19 -17 -27 -4
-6 9 -5 17 3 22 7 4 14 3 15 -2 2 -6 9 -7 15 -4z m260 -12 c-22 -16 -33 -18
-33 -4 0 6 6 9 13 8 6 -2 11 2 10 9 -2 7 4 10 12 6 13 -5 13 -7 -2 -19z m77 6
c-33 -26 -49 -26 -19 0 13 10 29 19 34 19 6 1 -1 -8 -15 -19z m755 10 c-3 -5
-11 -10 -16 -10 -6 0 -7 5 -4 10 3 6 11 10 16 10 6 0 7 -4 4 -10z m-333 -22
c-7 -7 -12 -21 -12 -32 0 -17 -2 -18 -10 -6 -8 12 -13 13 -30 2 -26 -16 -26
-8 0 18 12 12 25 18 30 15 5 -3 11 -1 15 5 3 5 9 10 13 10 3 0 1 -5 -6 -12z
m125 5 c-4 -3 -1 -13 6 -21 11 -13 9 -14 -10 -1 -16 9 -19 16 -10 21 15 9 23
10 14 1z m-520 -10 c-4 -3 -2 -12 4 -20 8 -8 8 -13 1 -13 -6 0 -12 5 -14 11
-3 9 -10 9 -26 0 -12 -6 -22 -9 -22 -7 0 3 12 12 28 20 30 17 39 20 29 9z
m663 -14 c0 -17 -17 -17 -27 1 -10 15 -9 17 8 13 10 -3 19 -9 19 -14z m123
-10 c7 -27 -14 -19 -24 9 -6 16 -5 20 6 16 7 -3 15 -14 18 -25z m137 16 c0 -2
-6 -5 -13 -8 -8 -3 -14 1 -14 8 0 7 6 11 14 8 7 -3 13 -6 13 -8z m153 -5 c3
-12 1 -18 -5 -14 -6 4 -14 0 -19 -7 -7 -11 -9 -9 -9 8 0 12 6 24 13 26 6 3 13
6 13 6 1 1 4 -8 7 -19z m110 -11 c-6 -22 -6 -22 -21 8 -10 18 -9 20 7 16 13
-3 17 -11 14 -24z m167 -5 c0 -2 -9 0 -20 6 -11 6 -24 9 -29 6 -4 -3 -8 1 -8
9 0 12 5 12 29 -1 15 -8 28 -17 28 -20z m123 15 c3 -12 3 -18 0 -15 -4 3 -13
0 -20 -6 -12 -10 -14 -8 -11 8 2 15 15 33 24 34 1 0 4 -9 7 -21z m-1803 -4 c0
-2 -6 -5 -13 -8 -8 -3 -14 1 -14 8 0 7 6 11 14 8 7 -3 13 -6 13 -8z m510 8 c0
-1 -14 -8 -31 -17 -22 -11 -28 -12 -20 -2 6 7 9 15 7 17 -2 2 7 4 20 4 13 0
24 -1 24 -2z m80 -3 c0 -5 -4 -10 -9 -10 -6 0 -13 5 -16 10 -3 6 1 10 9 10 9
0 16 -4 16 -10z m-410 -32 c0 -6 -6 -5 -15 2 -8 7 -15 14 -15 16 0 2 7 1 15
-2 8 -4 15 -11 15 -16z m721 9 c15 -11 14 -14 -8 -24 -20 -9 -22 -9 -14 1 7 9
7 16 -1 24 -16 16 3 15 23 -1z m394 -5 c-3 -3 -11 0 -18 7 -9 10 -8 11 6 5 10
-3 15 -9 12 -12z m-1345 -7 c-7 -9 -15 -13 -17 -11 -7 7 7 26 19 26 6 0 6 -6
-2 -15z m360 11 c0 -3 -4 -8 -10 -11 -5 -3 -10 -1 -10 4 0 6 5 11 10 11 6 0
10 -2 10 -4z m450 -22 c0 -2 -9 0 -20 6 -11 6 -20 13 -20 16 0 2 9 0 20 -6 11
-6 20 -13 20 -16z m285 8 c-3 -3 -11 0 -18 7 -9 10 -8 11 6 5 10 -3 15 -9 12
-12z m-656 -30 c-11 -8 -23 -11 -26 -8 -3 3 2 8 11 12 14 5 14 9 4 22 -12 13
-11 14 9 2 22 -14 22 -14 2 -28z m1186 29 c-3 -6 4 -15 16 -21 11 -7 18 -14
15 -17 -3 -3 -17 4 -31 15 -17 14 -21 22 -13 25 19 8 20 8 13 -2z m172 -4 c0
-7 -9 -13 -19 -13 -18 0 -18 1 -2 13 10 7 18 13 19 13 1 0 2 -6 2 -13z m-580
-3 c-3 -3 -12 -4 -19 -1 -8 3 -5 6 6 6 11 1 17 -2 13 -5z m-1072 -14 c3 -5 1
-10 -4 -10 -6 0 -11 5 -11 10 0 6 2 10 4 10 3 0 8 -4 11 -10z m490 0 c3 -5 2
-10 -4 -10 -5 0 -13 5 -16 10 -3 6 -2 10 4 10 5 0 13 -4 16 -10z m220 -11 c4
-6 14 -8 22 -5 8 3 11 1 8 -4 -8 -14 -18 -13 -41 5 -10 8 -14 15 -7 15 6 0 15
-5 18 -11z m302 -11 c-3 -8 -6 -5 -6 6 -1 11 2 17 5 13 3 -3 4 -12 1 -19z m93
12 c0 -5 -2 -10 -4 -10 -3 0 -8 5 -11 10 -3 6 -1 10 4 10 6 0 11 -4 11 -10z
m95 0 c-3 -5 -11 -10 -16 -10 -6 0 -7 5 -4 10 3 6 11 10 16 10 6 0 7 -4 4 -10z
m85 -5 c0 -8 -2 -15 -4 -15 -2 0 -6 7 -10 15 -3 8 -1 15 4 15 6 0 10 -7 10
-15z m411 -2 c13 -15 12 -15 -8 -4 -24 12 -29 21 -14 21 5 0 15 -7 22 -17z
m-1146 -13 c3 -5 1 -10 -4 -10 -6 0 -11 5 -11 10 0 6 2 10 4 10 3 0 8 -4 11
-10z"/>
</g>
</svg>
