<?xml version="1.0" standalone="no"?>
<!DOCTYPE svg PUBLIC "-//W3C//DTD SVG 20010904//EN"
 "http://www.w3.org/TR/2001/REC-SVG-20010904/DTD/svg10.dtd">
<svg version="1.0" xmlns="http://www.w3.org/2000/svg"
 width="200.000000pt" height="200.000000pt" viewBox="0 0 200.000000 200.000000"
 preserveAspectRatio="xMidYMid meet">
<metadata>
Created by potrace 1.16, written by Peter Selinger 2001-2019
</metadata>
<g transform="translate(0.000000,200.000000) scale(0.100000,-0.100000)"
fill="#000000" stroke="none">
<path d="M0 1965 c0 -30 5 -39 35 -56 19 -12 35 -23 35 -26 0 -3 -16 4 -35 16
l-35 20 0 -225 c0 -177 3 -224 13 -218 10 6 10 4 0 -7 -9 -9 -13 -49 -13 -125
l0 -112 100 -57 c55 -31 100 -61 100 -67 0 -7 -4 -7 -12 0 -7 6 -52 33 -101
61 l-87 50 0 -219 0 -219 96 55 c53 31 98 54 100 51 3 -3 -40 -31 -96 -63
l-100 -58 0 -383 0 -383 195 0 195 0 0 40 c0 22 -4 40 -8 40 -5 0 -17 7 -28
15 -17 14 -15 14 13 0 33 -15 33 -15 130 40 l98 56 -1 120 c-1 65 2 119 6 119
4 0 51 25 104 56 l96 56 0 106 c0 86 -3 109 -17 125 -18 19 -17 19 5 6 21 -13
22 -21 22 -124 0 -60 5 -117 10 -125 5 -8 10 -12 10 -7 0 4 14 0 30 -8 18 -9
28 -21 24 -27 -5 -7 -11 -6 -19 5 -7 9 -15 14 -18 10 -4 -3 -7 -2 -7 4 0 5 -6
10 -12 10 -7 0 -17 2 -23 4 -5 2 -52 -20 -102 -49 l-93 -54 0 -113 0 -113 45
-26 c25 -15 45 -31 45 -36 0 -5 -23 4 -50 20 l-51 30 -92 -53 c-88 -50 -92
-55 -95 -90 l-3 -37 190 0 191 0 0 34 c0 28 -6 38 -41 60 -52 35 -46 42 11 13
44 -22 45 -24 42 -65 l-3 -42 190 0 c172 0 190 2 194 17 4 17 5 17 6 1 1 -11
9 -18 20 -18 11 0 22 8 24 18 4 16 5 16 6 0 1 -16 28 -18 381 -18 l380 0 0
434 0 434 -22 16 -23 17 23 -11 22 -11 0 121 0 121 -22 -11 -23 -11 23 17 22
16 0 370 c0 292 -3 368 -12 362 -10 -6 -10 -4 0 7 7 7 12 38 12 71 0 55 -1 58
-25 58 -18 0 -25 -5 -25 -19 0 -10 -8 -25 -17 -32 -15 -11 -16 -11 -5 1 6 8
12 22 12 32 0 17 -21 18 -374 18 l-374 0 -4 -40 c-2 -22 1 -41 6 -43 6 -2 2
-6 -8 -10 -11 -5 -15 -3 -10 5 5 8 1 9 -12 5 -18 -7 -18 -6 -1 7 10 7 17 27
17 45 l0 31 -189 0 c-189 0 -190 0 -194 -22 l-4 -23 -2 23 -1 22 -195 0 -195
0 0 -34 c0 -33 4 -37 92 -88 51 -29 96 -55 100 -56 8 -3 154 77 187 102 20 16
42 16 48 0 3 -8 10 -11 16 -7 6 3 7 1 3 -5 -5 -9 -13 -9 -27 -1 -16 8 -38 0
-124 -50 -58 -33 -107 -56 -110 -51 -3 4 -48 32 -100 62 -94 52 -95 54 -95 91
l0 37 -195 0 -195 0 0 -35z m817 -7 c-3 -7 -5 -2 -5 12 0 14 2 19 5 13 2 -7 2
-19 0 -25z m453 -34 c0 -2 -9 0 -20 6 -11 6 -20 13 -20 16 0 2 9 0 20 -6 11
-6 20 -13 20 -16z m300 21 c0 -2 -10 -9 -22 -15 -22 -11 -22 -10 -4 4 21 17
26 19 26 11z m150 -21 c0 -2 -9 0 -20 6 -11 6 -20 13 -20 16 0 2 9 0 20 -6 11
-6 20 -13 20 -16z m170 1 c0 -2 -10 -9 -22 -15 -22 -11 -22 -10 -4 4 21 17 26
19 26 11z m-1510 -10 c0 -2 -10 -9 -22 -15 -22 -11 -22 -10 -4 4 21 17 26 19
26 11z m1140 0 c0 -2 -13 -11 -30 -20 -38 -19 -40 -11 -2 9 31 17 32 18 32 11z
m-620 -36 c0 -6 5 -7 12 -3 7 4 8 3 4 -4 -5 -9 -15 -8 -37 3 -16 9 -27 20 -24
25 7 12 45 -6 45 -21z m440 5 c0 -2 -9 0 -20 6 -11 6 -20 13 -20 16 0 2 9 0
20 -6 11 -6 20 -13 20 -16z m-226 4 c-5 -8 -2 -9 9 -5 24 9 21 0 -4 -14 -17
-9 -20 -8 -14 2 6 9 3 11 -11 6 -18 -7 -18 -7 0 8 24 18 30 19 20 3z m476 7
c0 -2 -10 -9 -22 -15 -22 -11 -22 -10 -4 4 21 17 26 19 26 11z m-1260 -10 c0
-2 -13 -11 -30 -20 -38 -19 -40 -11 -2 9 31 17 32 18 32 11z m970 -21 c0 -2
-9 0 -20 6 -11 6 -20 13 -20 16 0 2 9 0 20 -6 11 -6 20 -13 20 -16z m90 -10
c0 -2 -9 0 -20 6 -11 6 -20 13 -20 16 0 2 9 0 20 -6 11 -6 20 -13 20 -16z m60
21 c0 -2 -10 -9 -22 -15 -22 -11 -22 -10 -4 4 21 17 26 19 26 11z m240 -21 c0
-2 -9 0 -20 6 -11 6 -20 13 -20 16 0 2 9 0 20 -6 11 -6 20 -13 20 -16z m-1550
-10 c0 -2 -9 0 -20 6 -11 6 -20 13 -20 16 0 2 9 0 20 -6 11 -6 20 -13 20 -16z
m794 14 c-5 -8 -2 -9 9 -5 17 6 31 -5 20 -16 -9 -9 -44 13 -38 24 4 5 8 9 11
9 3 0 2 -5 -2 -12z m586 -3 c0 -2 -10 -9 -22 -15 -22 -11 -22 -10 -4 4 21 17
26 19 26 11z m450 0 c0 -2 -10 -9 -22 -15 -22 -11 -22 -10 -4 4 21 17 26 19
26 11z m-1710 -10 c0 -2 -13 -11 -30 -20 -29 -15 -30 -17 -32 -98 l-2 -82 -3
80 c-3 68 -7 83 -26 98 l-22 18 26 -12 c21 -9 32 -8 55 5 33 17 34 18 34 11z
m780 1 c0 -2 -7 -7 -16 -10 -8 -3 -12 -2 -9 4 6 10 25 14 25 6z m330 -22 c0
-2 -9 0 -20 6 -11 6 -20 13 -20 16 0 2 9 0 20 -6 11 -6 20 -13 20 -16z m370 0
c0 -2 -9 0 -20 6 -11 6 -20 13 -20 16 0 2 9 0 20 -6 11 -6 20 -13 20 -16z
m-725 -129 c0 -74 -4 -122 -10 -122 -6 0 -10 48 -10 122 0 74 4 122 10 122 6
0 10 -48 10 -122z m435 121 c0 -2 -8 -10 -17 -17 -16 -13 -17 -12 -4 4 13 16
21 21 21 13z m450 -1 c0 -2 -10 -9 -22 -15 -22 -11 -22 -10 -4 4 21 17 26 19
26 11z m-473 -87 c-3 -7 -5 -2 -5 12 0 14 2 19 5 13 2 -7 2 -19 0 -25z m360
-15 c-3 -10 -5 -4 -5 12 0 17 2 24 5 18 2 -7 2 -21 0 -30z m0 -100 c-3 -10 -5
-4 -5 12 0 17 2 24 5 18 2 -7 2 -21 0 -30z m-1521 -69 c35 -20 64 -38 64 -41
0 -2 -30 12 -66 32 -58 32 -70 36 -93 26 -26 -11 -26 -11 -3 5 14 10 23 28 24
48 l1 31 4 -32 c4 -28 13 -38 69 -69z m1581 64 c-3 -8 -6 -5 -6 6 -1 11 2 17
5 13 3 -3 4 -12 1 -19z m53 -34 c0 -2 -9 0 -20 6 -11 6 -20 13 -20 16 0 2 9 0
20 -6 11 -6 20 -13 20 -16z m-505 6 c-3 -6 -21 -17 -38 -26 -36 -19 -31 -9 10
17 34 21 36 22 28 9z m-693 -55 c77 -44 101 -54 116 -46 14 7 19 6 19 -3 0 -7
-7 -13 -16 -12 -12 1 -17 -11 -20 -44 l-5 -45 -5 44 c-6 43 -7 44 -99 97 l-94
54 -89 -51 c-49 -29 -92 -56 -96 -62 -8 -12 -7 -212 0 -224 3 -5 -2 -9 -11 -9
-15 0 -17 13 -14 121 l3 120 97 57 c53 31 101 57 106 57 6 1 54 -24 108 -54z
m368 19 c0 -2 -9 0 -20 6 -11 6 -20 13 -20 16 0 2 9 0 20 -6 11 -6 20 -13 20
-16z m900 -10 c0 -2 -13 2 -30 11 -16 9 -30 18 -30 21 0 2 14 -2 30 -11 17 -9
30 -18 30 -21z m-1013 11 c0 -8 -4 -12 -9 -9 -5 3 -6 10 -3 15 9 13 12 11 12
-6z m563 -11 c0 -2 -9 0 -20 6 -11 6 -20 13 -20 16 0 2 9 0 20 -6 11 -6 20
-13 20 -16z m-1380 11 c0 -2 -10 -9 -22 -15 -22 -11 -22 -10 -4 4 21 17 26 19
26 11z m920 -21 c0 -2 -9 0 -20 6 -11 6 -20 13 -20 16 0 2 9 0 20 -6 11 -6 20
-13 20 -16z m630 11 c0 -2 -13 -11 -30 -20 -38 -19 -40 -11 -2 9 31 17 32 18
32 11z m-550 -31 c0 -2 -9 0 -20 6 -11 6 -20 13 -20 16 0 2 9 0 20 -6 11 -6
20 -13 20 -16z m240 21 c0 -2 -10 -9 -22 -15 -22 -11 -22 -10 -4 4 21 17 26
19 26 11z m-494 -21 c-3 -21 -33 -39 -33 -20 0 8 7 12 14 9 8 -3 13 -2 12 3
-2 13 0 24 5 24 2 0 3 -7 2 -16z m704 -10 c0 -2 -9 0 -20 6 -11 6 -20 13 -20
16 0 2 9 0 20 -6 11 -6 20 -13 20 -16z m-1520 11 c0 -2 -10 -9 -22 -15 -22
-11 -22 -10 -4 4 21 17 26 19 26 11z m1060 -21 c0 -2 -9 0 -20 6 -11 6 -20 13
-20 16 0 2 9 0 20 -6 11 -6 20 -13 20 -16z m694 17 c4 -5 -3 -7 -14 -4 -23 6
-26 13 -6 13 8 0 17 -4 20 -9z m-1444 -27 c0 -2 -9 0 -20 6 -11 6 -20 13 -20
16 0 2 9 0 20 -6 11 -6 20 -13 20 -16z m819 0 c14 -12 -19 -1 -35 12 -18 14
-18 14 6 3 14 -6 27 -13 29 -15z m51 21 c0 -2 -10 -9 -22 -15 -22 -11 -22 -10
-4 4 21 17 26 19 26 11z m80 0 c0 -2 -10 -9 -22 -15 -22 -11 -22 -10 -4 4 21
17 26 19 26 11z m180 -21 c0 -2 -9 0 -20 6 -11 6 -20 13 -20 16 0 2 9 0 20 -6
11 -6 20 -13 20 -16z m270 21 c0 -2 -13 -11 -30 -20 -38 -19 -40 -11 -2 9 31
17 32 18 32 11z m-517 -42 c-21 -14 -23 -23 -23 -106 0 -73 3 -92 18 -104 15
-13 15 -13 -5 -3 -21 10 -23 17 -23 105 0 86 2 95 22 109 12 9 25 16 28 15 3
0 -5 -7 -17 -16z m307 -104 c0 -92 -1 -99 -22 -109 -21 -10 -21 -10 -5 3 14
12 17 31 17 104 0 58 -4 93 -12 102 -11 10 -10 11 5 6 15 -6 17 -21 17 -106z
m140 107 c0 -2 -12 -11 -27 -20 l-28 -17 24 20 c23 21 31 25 31 17z m-888
-148 c2 -42 0 -74 -4 -71 -5 2 -7 52 -6 111 1 110 6 95 10 -40z m365 120 c-3
-8 -6 -5 -6 6 -1 11 2 17 5 13 3 -3 4 -12 1 -19z m763 -8 c0 -6 -9 -2 -20 7
-11 10 -20 19 -20 21 0 1 9 -2 20 -8 11 -6 20 -15 20 -20z m-763 -42 c-3 -7
-5 -2 -5 12 0 14 2 19 5 13 2 -7 2 -19 0 -25z m760 -40 c-2 -13 -4 -3 -4 22 0
25 2 35 4 23 2 -13 2 -33 0 -45z m-1150 -5 c-3 -10 -5 -4 -5 12 0 17 2 24 5
18 2 -7 2 -21 0 -30z m390 -60 c-3 -10 -5 -2 -5 17 0 19 2 27 5 18 2 -10 2
-26 0 -35z m-387 -3 c0 -31 -5 -42 -22 -50 -21 -10 -21 -10 -5 3 10 9 17 28
17 51 0 20 2 36 5 36 3 0 5 -18 5 -40z m1136 -6 c-9 -8 -11 -9 -6 -2 6 7 11
21 11 33 1 18 2 18 6 1 3 -10 -2 -25 -11 -32z m-46 -29 c0 -2 -10 -9 -22 -15
-22 -11 -22 -10 -4 4 21 17 26 19 26 11z m-1010 -31 c0 -2 -9 0 -20 6 -11 6
-20 13 -20 16 0 2 9 0 20 -6 11 -6 20 -13 20 -16z m440 0 c0 -2 -9 0 -20 6
-11 6 -20 13 -20 16 0 2 9 0 20 -6 11 -6 20 -13 20 -16z m450 0 c0 -2 -9 0
-20 6 -11 6 -20 13 -20 16 0 2 9 0 20 -6 11 -6 20 -13 20 -16z m-1404 0 c-1
-9 -10 -20 -18 -25 -21 -12 -18 18 3 32 18 11 18 12 15 -7z m364 -9 c0 -2 -10
-9 -22 -15 -22 -11 -22 -10 -4 4 21 17 26 19 26 11z m96 -11 c18 -14 18 -14
-6 -3 -31 14 -36 19 -24 19 6 0 19 -7 30 -16z m644 11 c0 -2 -13 -11 -30 -20
-38 -19 -40 -11 -2 9 31 17 32 18 32 11z m340 -9 c-7 -7 -13 -7 -20 0 -6 6 -3
10 10 10 13 0 16 -4 10 -10z m-420 -22 c0 -2 -9 0 -20 6 -11 6 -20 13 -20 16
0 2 9 0 20 -6 11 -6 20 -13 20 -16z m-1094 0 c-1 -9 -10 -20 -18 -25 -21 -12
-18 18 3 32 18 11 18 12 15 -7z m204 -10 c0 -2 -9 0 -20 6 -11 6 -20 13 -20
16 0 2 9 0 20 -6 11 -6 20 -13 20 -16z m40 0 c0 -2 -9 0 -20 6 -11 6 -20 13
-20 16 0 2 9 0 20 -6 11 -6 20 -13 20 -16z m530 21 c0 -2 -10 -9 -22 -15 -22
-11 -22 -10 -4 4 21 17 26 19 26 11z m160 -10 c17 -9 30 -18 30 -21 0 -2 -14
2 -30 11 -23 12 -35 13 -53 5 -21 -11 -21 -10 -3 4 24 19 21 19 56 1z m-320
-31 c0 -2 -13 2 -30 11 -16 9 -30 18 -30 21 0 2 14 -2 30 -11 17 -9 30 -18 30
-21z m55 26 c3 -6 -1 -7 -9 -4 -18 7 -21 14 -7 14 6 0 13 -4 16 -10z m-255
-15 c0 -2 -10 -9 -22 -15 -22 -11 -22 -10 -4 4 21 17 26 19 26 11z m440 0 c0
-2 -13 -11 -30 -20 -38 -19 -40 -11 -2 9 31 17 32 18 32 11z m440 0 c0 -2 -10
-9 -22 -15 -22 -11 -22 -10 -4 4 21 17 26 19 26 11z m-1367 -62 c-6 -80 -13
-91 -11 -18 1 54 4 75 12 75 1 0 1 -26 -1 -57z m378 39 c-7 -2 -18 1 -23 6 -8
8 -4 9 13 5 13 -4 18 -8 10 -11z m709 -8 c0 -2 -9 0 -20 6 -11 6 -20 13 -20
16 0 2 9 0 20 -6 11 -6 20 -13 20 -16z m-344 -15 c3 -6 -5 -3 -20 6 -14 10
-26 19 -26 22 0 7 39 -17 46 -28z m574 17 c0 -2 -16 -13 -35 -25 -19 -11 -35
-18 -35 -16 0 5 61 45 68 45 1 0 2 -2 2 -4z m-465 -16 c-3 -5 -12 -10 -18 -10
-7 0 -6 4 3 10 19 12 23 12 15 0z m283 -68 l-2 -57 -3 54 c-3 36 -10 59 -21
68 -15 12 -14 13 6 3 19 -9 22 -18 20 -68z m-771 31 c-3 -10 -5 -4 -5 12 0 17
2 24 5 18 2 -7 2 -21 0 -30z m1152 -11 c-2 -26 -2 -26 -6 -2 -3 13 -12 30 -21
38 -15 11 -14 12 6 2 15 -7 22 -19 21 -38z m-1112 16 c-3 -8 -6 -5 -6 6 -1 11
2 17 5 13 3 -3 4 -12 1 -19z m1303 17 c0 -2 -10 -9 -22 -15 -22 -11 -22 -10
-4 4 21 17 26 19 26 11z m-1733 -72 c-3 -10 -5 -4 -5 12 0 17 2 24 5 18 2 -7
2 -21 0 -30z m1700 15 c-3 -8 -6 -5 -6 6 -1 11 2 17 5 13 3 -3 4 -12 1 -19z
m-850 -30 c-3 -8 -6 -5 -6 6 -1 11 2 17 5 13 3 -3 4 -12 1 -19z m690 -10 c-3
-7 -5 -2 -5 12 0 14 2 19 5 13 2 -7 2 -19 0 -25z m-1520 -25 c-3 -10 -5 -4 -5
12 0 17 2 24 5 18 2 -7 2 -21 0 -30z m370 5 c-3 -8 -6 -5 -6 6 -1 11 2 17 5
13 3 -3 4 -12 1 -19z m766 -59 c-5 -5 -7 7 -4 29 5 34 6 35 9 8 2 -16 0 -32
-5 -37z m387 31 c0 -10 -10 -24 -22 -30 -21 -10 -21 -10 -5 3 9 8 17 22 17 31
0 9 2 16 5 16 3 0 5 -9 5 -20z m-1507 -52 c6 -3 12 -13 13 -22 2 -12 -2 -14
-15 -7 -11 6 -17 23 -18 48 0 24 1 29 4 13 3 -14 10 -28 16 -32z m1697 26 c0
-2 -9 0 -20 6 -11 6 -20 13 -20 16 0 2 9 0 20 -6 11 -6 20 -13 20 -16z m-855
-14 c3 -6 -1 -7 -9 -4 -18 7 -21 14 -7 14 6 0 13 -4 16 -10z m-420 -10 c3 -6
-1 -7 -9 -4 -18 7 -21 14 -7 14 6 0 13 -4 16 -10z m1035 5 c0 -2 -10 -9 -22
-15 -22 -11 -22 -10 -4 4 21 17 26 19 26 11z m-1123 -20 c0 -8 -4 -12 -9 -9
-5 3 -6 10 -3 15 9 13 12 11 12 -6z m563 -11 c0 -2 -9 0 -20 6 -11 6 -20 13
-20 16 0 2 9 0 20 -6 11 -6 20 -13 20 -16z m180 21 c0 -2 -10 -9 -22 -15 -22
-11 -22 -10 -4 4 21 17 26 19 26 11z m-640 -41 c0 -2 -13 2 -30 11 -16 9 -30
18 -30 21 0 2 14 -2 30 -11 17 -9 30 -18 30 -21z m346 24 c4 -7 3 -8 -4 -4 -6
4 -22 2 -34 -4 -22 -11 -22 -10 -4 4 24 19 32 20 42 4z m574 -14 c0 -2 -9 0
-20 6 -11 6 -20 13 -20 16 0 2 9 0 20 -6 11 -6 20 -13 20 -16z m-1045 7 c3 -6
-3 -14 -13 -20 -14 -7 -19 -6 -19 4 0 7 7 11 15 7 10 -3 13 -1 8 6 -4 7 -5 12
-2 12 3 0 7 -4 11 -9z m365 4 c0 -2 -13 -11 -30 -20 -38 -19 -40 -11 -2 9 31
17 32 18 32 11z m-614 -31 c1 -9 0 -13 -4 -10 -3 4 -7 14 -8 22 -1 9 0 13 4
10 3 -4 7 -14 8 -22z m1118 18 c2 -4 -4 -8 -14 -8 -10 0 -16 4 -14 8 3 4 9 8
14 8 5 0 11 -4 14 -8z m-917 -16 c0 -8 -6 -12 -15 -8 -10 3 -13 1 -8 -6 3 -6
2 -13 -3 -16 -5 -4 -8 1 -7 10 2 12 21 32 32 34 0 0 1 -6 1 -14z m448 5 c-16
-14 -105 -63 -105 -58 0 5 101 66 110 67 2 0 0 -4 -5 -9z m145 -17 c0 -2 -9 0
-20 6 -11 6 -20 13 -20 16 0 2 9 0 20 -6 11 -6 20 -13 20 -16z m133 16 c21 11
21 10 3 -4 -11 -9 -23 -16 -26 -16 -3 0 -15 7 -26 16 -18 14 -18 15 4 4 16 -8
28 -8 45 0z m-503 -26 c0 -2 -9 0 -20 6 -11 6 -20 13 -20 16 0 2 9 0 20 -6 11
-6 20 -13 20 -16z m60 0 c0 -2 -9 0 -20 6 -11 6 -20 13 -20 16 0 2 9 0 20 -6
11 -6 20 -13 20 -16z m46 1 c-11 -8 -25 -15 -30 -15 -6 1 0 7 14 15 32 19 40
18 16 0z m983 11 c-2 -2 -15 -9 -29 -15 -24 -11 -24 -11 -6 3 16 13 49 24 35
12z m-487 -18 c-6 -6 -28 -21 -49 -32 -31 -18 -39 -28 -44 -61 l-6 -40 -2 36
c-1 39 7 49 68 86 42 25 49 27 33 11z m-955 -13 c0 -8 -4 -12 -9 -9 -5 3 -6
10 -3 15 9 13 12 11 12 -6z m59 -1 c-1 -8 -7 -19 -14 -22 -6 -4 -12 -28 -14
-52 l-3 -45 -5 52 c-3 28 -3 51 0 51 17 -1 30 3 29 10 -2 11 1 22 5 22 2 0 3
-7 2 -16z m329 -2 c-3 -3 -11 0 -18 7 -9 10 -8 11 6 5 10 -3 15 -9 12 -12z
m1170 -35 c16 -15 -48 20 -70 38 -11 9 -2 7 20 -6 22 -12 45 -26 50 -32z
m-385 17 c0 -2 -9 0 -20 6 -11 6 -20 13 -20 16 0 2 9 0 20 -6 11 -6 20 -13 20
-16z m-341 -28 c-3 -3 -11 5 -18 17 -13 21 -12 21 5 5 10 -10 16 -20 13 -22z
m374 -197 c-4 -5 -6 42 -3 104 l5 112 3 -104 c1 -57 -1 -108 -5 -112z m97 196
c-7 -9 -15 -13 -19 -10 -3 3 1 10 9 15 21 14 24 12 10 -5z m288 -20 c-3 -3 -9
2 -12 12 -6 14 -5 15 5 6 7 -7 10 -15 7 -18z m-1 -57 c-3 -7 -5 -2 -5 12 0 14
2 19 5 13 2 -7 2 -19 0 -25z m-725 -80 c2 -25 0 -44 -4 -41 -5 2 -7 32 -7 66
2 65 6 55 11 -25z m-809 -61 c22 -18 22 -18 -5 -6 -26 11 -28 16 -26 63 l1 51
4 -45 c3 -31 11 -50 26 -63z m1534 56 c-3 -10 -5 -4 -5 12 0 17 2 24 5 18 2
-7 2 -21 0 -30z m-267 -39 c0 -2 -9 0 -20 6 -11 6 -20 13 -20 16 0 2 9 0 20
-6 11 -6 20 -13 20 -16z m230 1 c0 -2 -13 -11 -30 -20 -38 -19 -40 -11 -2 9
31 17 32 18 32 11z m-730 -9 c0 -2 -7 -7 -16 -10 -8 -3 -12 -2 -9 4 6 10 25
14 25 6z m100 -22 c0 -2 -9 0 -20 6 -11 6 -20 13 -20 16 0 2 9 0 20 -6 11 -6
20 -13 20 -16z m255 17 c-16 -14 -105 -63 -105 -58 0 5 101 66 110 67 2 0 0
-4 -5 -9z m-1165 -6 c0 -2 -10 -9 -22 -15 -22 -11 -22 -10 -4 4 21 17 26 19
26 11z m-310 -31 c0 -2 -9 0 -20 6 -11 6 -20 13 -20 16 0 2 9 0 20 -6 11 -6
20 -13 20 -16z m1146 14 c4 -7 3 -8 -4 -4 -6 4 -22 2 -34 -4 -22 -11 -22 -10
-4 4 24 19 32 20 42 4z m-726 -24 c0 -2 -9 0 -20 6 -11 6 -20 13 -20 16 0 2 9
0 20 -6 11 -6 20 -13 20 -16z m640 21 c0 -2 -10 -9 -22 -15 -22 -11 -22 -10
-4 4 21 17 26 19 26 11z m-800 -9 c0 -2 -29 -21 -65 -41 -58 -32 -65 -40 -66
-68 l-2 -32 -4 30 c-2 17 -14 38 -26 48 l-22 18 26 -12 c24 -10 35 -7 90 25
68 38 69 38 69 32z m944 -17 c20 -12 36 -23 36 -25 0 -5 -44 18 -70 35 -27 19
-2 11 34 -10z m86 -5 c0 -2 -9 0 -20 6 -11 6 -20 13 -20 16 0 2 9 0 20 -6 11
-6 20 -13 20 -16z m435 8 c-3 -3 -11 0 -18 7 -9 10 -8 11 6 5 10 -3 15 -9 12
-12z m-855 -23 c0 -6 5 -7 12 -3 7 5 8 3 3 -6 -6 -10 -11 -10 -20 3 -7 9 -15
14 -18 10 -4 -3 -7 -1 -7 6 0 7 -5 9 -12 5 -7 -4 -8 -3 -4 4 8 14 46 -2 46
-19z m210 26 c0 -2 -10 -9 -22 -15 -22 -11 -22 -10 -4 4 21 17 26 19 26 11z
m-1010 -31 c0 -2 -9 0 -20 6 -11 6 -20 13 -20 16 0 2 9 0 20 -6 11 -6 20 -13
20 -16z m420 -10 c0 -2 -13 2 -30 11 -16 9 -30 18 -30 21 0 2 14 -2 30 -11 17
-9 30 -18 30 -21z m520 31 c0 -2 -10 -9 -22 -15 -22 -11 -22 -10 -4 4 21 17
26 19 26 11z m590 -21 c0 -2 -9 0 -20 6 -11 6 -20 13 -20 16 0 2 9 0 20 -6 11
-6 20 -13 20 -16z m-269 -2 c-7 -2 -18 1 -23 6 -8 8 -4 9 13 5 13 -4 18 -8 10
-11z m139 3 c0 -2 -10 -9 -22 -15 -22 -11 -22 -10 -4 4 21 17 26 19 26 11z
m-535 -22 c-6 -2 -9 -50 -7 -119 2 -64 0 -120 -5 -125 -4 -4 -7 46 -5 112 3
100 1 120 -12 125 -24 9 -9 23 16 16 12 -3 18 -7 13 -9z m965 12 c0 -2 -10 -9
-22 -15 -22 -11 -22 -10 -4 4 21 17 26 19 26 11z m-230 -31 c0 -2 -9 0 -20 6
-11 6 -20 13 -20 16 0 2 9 0 20 -6 11 -6 20 -13 20 -16z m-275 -4 c-3 -5 -12
-10 -18 -10 -7 0 -6 4 3 10 19 12 23 12 15 0z m303 -96 l-3 -79 -5 87 c-3 48
-1 83 3 79 4 -4 7 -43 5 -87z m-381 54 c-3 -7 -5 -2 -5 12 0 14 2 19 5 13 2
-7 2 -19 0 -25z m480 -111 c-2 -23 -3 -2 -3 48 0 50 1 68 3 42 2 -26 2 -67 0
-90z m-1670 11 c-2 -18 -4 -6 -4 27 0 33 2 48 4 33 2 -15 2 -42 0 -60z m1190
-20 c-2 -13 -4 -5 -4 17 -1 22 1 32 4 23 2 -10 2 -28 0 -40z m-1191 -67 c-6
-2 -20 -8 -31 -13 -16 -7 -16 -5 3 8 12 9 22 24 23 33 0 12 2 11 8 -4 5 -12 4
-21 -3 -24z m1724 13 c0 -2 -9 0 -20 6 -11 6 -20 13 -20 16 0 2 9 0 20 -6 11
-6 20 -13 20 -16z m-180 1 c0 -2 -10 -9 -22 -15 -22 -11 -22 -10 -4 4 21 17
26 19 26 11z m-380 -10 c0 -2 -13 -11 -30 -20 -38 -19 -40 -11 -2 9 31 17 32
18 32 11z m630 -31 c0 -2 -13 2 -30 11 -16 9 -30 18 -30 21 0 2 14 -2 30 -11
17 -9 30 -18 30 -21z m-1730 0 c0 -2 -9 0 -20 6 -11 6 -20 13 -20 16 0 2 9 0
20 -6 11 -6 20 -13 20 -16z m690 11 c0 -2 -10 -9 -22 -15 -22 -11 -22 -10 -4
4 21 17 26 19 26 11z m-810 -10 c0 -2 -10 -9 -22 -15 -22 -11 -22 -10 -4 4 21
17 26 19 26 11z m920 -21 c0 -2 -9 0 -20 6 -11 6 -20 13 -20 16 0 2 9 0 20 -6
11 -6 20 -13 20 -16z m-730 -20 c0 -2 -13 2 -30 11 -16 9 -30 18 -30 21 0 2
14 -2 30 -11 17 -9 30 -18 30 -21z m820 10 c0 -2 -9 0 -20 6 -11 6 -20 13 -20
16 0 2 9 0 20 -6 11 -6 20 -13 20 -16z m140 21 c0 -2 -10 -9 -22 -15 -22 -11
-22 -10 -4 4 21 17 26 19 26 11z m124 -3 c2 -4 -4 -8 -14 -8 -10 0 -16 4 -14
8 3 4 9 8 14 8 5 0 11 -4 14 -8z m-1324 -17 c0 -2 -13 -11 -30 -20 -38 -19
-40 -11 -2 9 31 17 32 18 32 11z m790 0 c0 -2 -10 -9 -22 -15 -22 -11 -22 -10
-4 4 21 17 26 19 26 11z m30 -10 c0 -2 -10 -9 -22 -15 -22 -11 -22 -10 -4 4
21 17 26 19 26 11z m600 -31 c0 -2 -13 2 -30 11 -16 9 -30 18 -30 21 0 2 14
-2 30 -11 17 -9 30 -18 30 -21z m-300 12 c-7 -7 -13 -7 -20 0 -6 6 -3 10 10
10 13 0 16 -4 10 -10z m570 9 c0 -2 -10 -9 -22 -15 -22 -11 -22 -10 -4 4 21
17 26 19 26 11z m100 -31 c0 -2 -9 0 -20 6 -11 6 -20 13 -20 16 0 2 9 0 20 -6
11 -6 20 -13 20 -16z m-700 -10 c0 -2 -9 0 -20 6 -11 6 -20 13 -20 16 0 2 9 0
20 -6 11 -6 20 -13 20 -16z m-340 12 c0 -2 -8 -10 -17 -17 -16 -13 -17 -12 -4
4 13 16 21 21 21 13z m727 -42 c2 -13 1 -14 -3 -4 -4 8 -16 23 -28 34 l-21 18
25 -14 c14 -9 26 -24 27 -34z m163 42 c0 -2 -16 -13 -35 -25 -19 -11 -35 -18
-35 -16 0 5 61 45 68 45 1 0 2 -2 2 -4z m185 -24 c-3 -3 -11 0 -18 7 -9 10 -8
11 6 5 10 -3 15 -9 12 -12z"/>
</g>
</svg>
