<?xml version="1.0" standalone="no"?>
<!DOCTYPE svg PUBLIC "-//W3C//DTD SVG 20010904//EN"
 "http://www.w3.org/TR/2001/REC-SVG-20010904/DTD/svg10.dtd">
<svg version="1.0" xmlns="http://www.w3.org/2000/svg"
 width="200.000000pt" height="200.000000pt" viewBox="0 0 200.000000 200.000000"
 preserveAspectRatio="xMidYMid meet">
<metadata>
Created by potrace 1.16, written by Peter Selinger 2001-2019
</metadata>
<g transform="translate(0.000000,200.000000) scale(0.100000,-0.100000)"
fill="#000000" stroke="none">
<path d="M0 1967 c0 -18 6 -39 13 -46 10 -11 10 -13 0 -7 -10 6 -13 -41 -13
-219 0 -178 3 -225 13 -219 10 6 10 4 0 -7 -9 -9 -13 -49 -13 -124 l0 -112 50
-27 c28 -15 50 -30 50 -32 0 -3 -21 6 -46 20 -26 14 -48 26 -50 26 -2 0 -4
-99 -4 -221 0 -206 1 -221 18 -215 16 6 16 5 0 -8 -15 -11 -18 -30 -18 -123 0
-73 4 -113 13 -122 9 -11 9 -13 0 -7 -10 6 -13 -41 -13 -219 0 -178 3 -225 12
-219 11 6 11 4 0 -7 -6 -7 -12 -28 -12 -46 l0 -33 194 0 c146 0 196 3 199 13
4 9 6 9 6 0 1 -10 128 -13 601 -13 585 0 600 0 600 19 0 11 2 25 5 33 3 8 -21
27 -67 53 -39 22 -88 49 -107 60 l-36 20 0 123 c0 67 3 122 7 122 4 0 50 25
102 56 l96 56 0 110 c0 93 -3 113 -17 125 -17 13 -16 13 2 4 13 -6 27 -6 40 0
19 10 19 9 3 -4 -15 -12 -18 -32 -18 -125 l0 -111 95 -56 c52 -31 99 -54 104
-51 5 3 10 -49 10 -120 1 -69 -2 -124 -6 -121 -4 3 -8 54 -8 114 l1 108 -103
58 -103 58 -95 -56 -96 -57 3 -115 3 -115 93 -54 c73 -42 97 -52 111 -44 10 5
21 6 25 3 3 -3 6 -1 6 5 0 18 37 34 46 20 4 -7 4 -10 0 -6 -4 3 -16 -2 -27
-13 -11 -11 -23 -17 -28 -15 -10 7 -31 -38 -31 -65 0 -19 7 -19 193 -17 l192
3 2 39 c2 27 -3 43 -15 53 -16 12 -16 13 0 7 17 -6 18 14 18 322 -1 243 -4
332 -13 343 -9 12 -9 13 1 7 8 -5 12 0 12 14 0 13 -13 28 -35 41 -19 12 -35
23 -35 26 0 3 16 -4 35 -16 l35 -20 0 180 c0 134 -3 178 -12 173 -7 -5 -8 -3
-2 7 10 16 12 279 2 279 -3 0 -45 23 -93 50 -48 28 -92 50 -98 49 -7 0 -50
-24 -97 -52 l-85 -52 0 -112 c0 -61 -3 -109 -7 -106 -5 2 -8 53 -8 113 l0 108
-96 56 c-53 31 -101 56 -106 56 -5 0 -6 5 -3 11 5 7 12 6 23 -4 10 -7 55 -35
101 -62 80 -46 84 -47 110 -33 14 8 59 34 99 57 l72 42 0 113 0 114 -97 57
c-85 50 -100 55 -122 46 l-26 -11 23 16 c15 12 22 27 22 50 l0 34 -599 0
c-470 0 -600 -3 -604 -12 -4 -10 -6 -10 -6 0 -1 9 -47 12 -196 12 l-195 0 0
-33z m411 -44 c9 -11 10 -14 2 -10 -7 5 -27 1 -45 -8 -27 -13 -29 -13 -13 -1
11 8 25 20 30 25 6 6 11 10 11 11 1 0 8 -8 15 -17z m415 -9 c18 -14 18 -15 -3
-4 -18 8 -30 7 -53 -5 -38 -19 -40 -11 -2 9 34 19 34 19 58 0z m400 0 c18 -14
18 -15 -3 -4 -17 8 -29 8 -45 0 -22 -11 -22 -10 -4 4 11 9 23 16 26 16 3 0 15
-7 26 -16z m-1156 -30 c0 -2 -9 0 -20 6 -11 6 -20 13 -20 16 0 2 9 0 20 -6 11
-6 20 -13 20 -16z m420 -10 c0 -2 -13 2 -30 11 -16 9 -30 18 -30 21 0 2 14 -2
30 -11 17 -9 30 -18 30 -21z m400 0 c0 -2 -9 0 -20 6 -11 6 -20 13 -20 16 0 2
9 0 20 -6 11 -6 20 -13 20 -16z m260 21 c0 -2 -13 -11 -30 -20 -38 -19 -40
-11 -2 9 31 17 32 18 32 11z m400 0 c0 -2 -10 -9 -22 -15 -22 -11 -22 -10 -4
4 21 17 26 19 26 11z m-1220 -10 c0 -2 -13 -11 -30 -20 -38 -19 -40 -11 -2 9
31 17 32 18 32 11z m400 0 c0 -2 -10 -9 -22 -15 -22 -11 -22 -10 -4 4 21 17
26 19 26 11z m580 -21 c0 -2 -9 0 -20 6 -11 6 -20 13 -20 16 0 2 9 0 20 -6 11
-6 20 -13 20 -16z m-1170 -20 c0 -2 -9 0 -20 6 -11 6 -20 13 -20 16 0 2 9 0
20 -6 11 -6 20 -13 20 -16z m420 -10 c0 -2 -13 2 -30 11 -16 9 -30 18 -30 21
0 2 14 -2 30 -11 17 -9 30 -18 30 -21z m940 31 c0 -2 -13 -11 -30 -20 -38 -19
-40 -11 -2 9 31 17 32 18 32 11z m-820 -10 c0 -2 -13 -11 -30 -20 -38 -19 -40
-11 -2 9 31 17 32 18 32 11z m280 -21 c0 -2 -9 0 -20 6 -11 6 -20 13 -20 16 0
2 9 0 20 -6 11 -6 20 -13 20 -16z m120 22 c0 -8 -71 -46 -85 -46 -8 0 -16 4
-19 9 -4 5 2 7 12 4 11 -2 34 5 53 16 36 22 39 23 39 17z m300 -32 c0 -2 -13
2 -30 11 -16 9 -30 18 -30 21 0 2 14 -2 30 -11 17 -9 30 -18 30 -21z m-1120
22 c0 -2 -15 -13 -33 -24 -33 -19 -34 -19 -58 0 l-24 19 26 -12 c21 -9 32 -8
55 5 32 17 34 18 34 12z m341 -34 c-7 -2 -18 1 -23 6 -8 8 -4 9 13 5 13 -4 18
-8 10 -11z m809 -2 c0 -5 -2 -10 -4 -10 -3 0 -8 5 -11 10 -3 6 -1 10 4 10 6 0
11 -4 11 -10z m-1213 -102 c-2 -18 -4 -6 -4 27 0 33 2 48 4 33 2 -15 2 -42 0
-60z m400 40 c-3 -7 -5 -2 -5 12 0 14 2 19 5 13 2 -7 2 -19 0 -25z m-400 -125
c-3 -10 -5 -4 -5 12 0 17 2 24 5 18 2 -7 2 -21 0 -30z m113 -110 c0 -2 -25 10
-57 28 l-56 32 -51 -28 c-60 -33 -57 -26 5 14 l44 27 57 -34 c32 -19 58 -36
58 -39z m350 31 c0 -3 -14 3 -31 11 -17 9 -38 14 -46 10 -13 -4 -14 -3 -4 9
11 13 17 12 47 -6 19 -11 34 -22 34 -24z m380 16 c22 -11 40 -23 40 -25 0 -5
-79 32 -89 41 -11 10 14 2 49 -16z m-60 5 c0 -2 -13 -11 -30 -20 -38 -19 -40
-11 -2 9 31 17 32 18 32 11z m400 0 c0 -2 -10 -9 -22 -15 -22 -11 -22 -10 -4
4 21 17 26 19 26 11z m-820 -10 c0 -2 -10 -9 -22 -15 -22 -11 -22 -10 -4 4 21
17 26 19 26 11z m170 -51 c0 -2 -13 2 -30 11 -16 9 -30 18 -30 21 0 2 14 -2
30 -11 17 -9 30 -18 30 -21z m600 31 c0 -2 -13 -11 -30 -20 -38 -19 -40 -11
-2 9 31 17 32 18 32 11z m-420 -10 c0 -2 -13 -11 -30 -20 -38 -19 -40 -11 -2
9 31 17 32 18 32 11z m240 -31 c0 -2 -13 2 -30 11 -16 9 -30 18 -30 21 0 2 14
-2 30 -11 17 -9 30 -18 30 -21z m-1060 21 c0 -2 -13 -11 -30 -20 -38 -19 -40
-11 -2 9 31 17 32 18 32 11z m400 1 c0 -6 -87 -56 -97 -56 -4 0 15 14 42 30
53 31 55 32 55 26z m-110 -42 c0 -2 -9 0 -20 6 -11 6 -20 13 -20 16 0 2 9 0
20 -6 11 -6 20 -13 20 -16z m440 6 c11 6 20 8 20 6 0 -3 -9 -10 -20 -16 -15
-8 -27 -7 -50 5 -16 9 -30 18 -30 21 0 2 14 -2 30 -11 23 -12 35 -13 50 -5z
m440 15 c0 -2 -10 -9 -22 -15 -22 -11 -22 -10 -4 4 21 17 26 19 26 11z m-51
-31 c14 -12 -19 -1 -35 12 -18 14 -18 14 6 3 14 -6 27 -13 29 -15z m-812 -111
c-2 -16 -4 -5 -4 22 0 28 2 40 4 28 2 -13 2 -35 0 -50z m21 -131 c16 -12 15
-12 -2 -4 -14 7 -28 4 -53 -10 -18 -11 -33 -17 -33 -14 0 3 14 12 30 21 26 14
30 21 32 63 l1 47 4 -44 c3 -26 11 -51 21 -59z m484 -46 c92 -54 128 -67 128
-46 0 5 33 27 73 49 39 22 78 45 85 51 10 9 17 9 30 -3 9 -7 52 -34 95 -57 42
-24 77 -48 77 -52 0 -12 -3 -11 -93 42 -47 28 -90 50 -97 50 -7 0 -50 -22 -97
-50 -47 -27 -90 -50 -96 -50 -7 0 -54 25 -106 55 -51 30 -97 55 -101 55 -5 0
-49 -24 -99 -52 l-91 -53 0 -115 0 -115 91 -52 c50 -29 94 -53 99 -53 5 0 51
25 103 55 51 30 99 55 105 55 5 0 42 -19 82 -42 39 -24 80 -48 91 -54 17 -10
34 -3 111 43 50 29 95 52 101 50 6 -2 -27 -25 -74 -51 -46 -27 -92 -55 -101
-64 -16 -13 -20 -13 -35 0 -10 8 -55 36 -99 62 l-82 47 -102 -59 -103 -59 -99
58 c-84 50 -103 57 -121 48 -21 -10 -21 -10 -3 5 16 13 20 30 21 108 1 51 -2
105 -6 121 -4 15 -4 25 1 22 4 -3 52 21 107 53 54 33 100 58 103 57 3 -1 48
-28 102 -59z m1088 59 c0 -2 -10 -9 -22 -15 -22 -11 -22 -10 -4 4 21 17 26 19
26 11z m-400 -10 c0 -2 -10 -9 -22 -15 -22 -11 -22 -10 -4 4 21 17 26 19 26
11z m80 -21 c0 -2 -9 0 -20 6 -11 6 -20 13 -20 16 0 2 9 0 20 -6 11 -6 20 -13
20 -16z m-1170 -30 c0 -2 -13 2 -30 11 -16 9 -30 18 -30 21 0 2 14 -2 30 -11
17 -9 30 -18 30 -21z m1140 10 c0 -2 -9 0 -20 6 -11 6 -20 13 -20 16 0 2 9 0
20 -6 11 -6 20 -13 20 -16z m300 21 c0 -2 -10 -9 -22 -15 -22 -11 -22 -10 -4
4 21 17 26 19 26 11z m-400 -10 c0 -2 -10 -9 -22 -15 -22 -11 -22 -10 -4 4 21
17 26 19 26 11z m50 0 c0 -2 -10 -9 -22 -15 -22 -11 -22 -10 -4 4 21 17 26 19
26 11z m-1283 -18 c-123 -80 -111 -75 -132 -54 -20 19 -20 20 2 8 19 -9 31 -6
80 24 54 32 91 49 50 22z m1433 -13 c0 -2 -9 0 -20 6 -11 6 -20 13 -20 16 0 2
9 0 20 -6 11 -6 20 -13 20 -16z m-50 -10 c0 -2 -9 0 -20 6 -11 6 -20 13 -20
16 0 2 9 0 20 -6 11 -6 20 -13 20 -16z m-1540 -10 c0 -2 -9 0 -20 6 -11 6 -20
13 -20 16 0 2 9 0 20 -6 11 -6 20 -13 20 -16z m400 0 c0 -2 -9 0 -20 6 -11 6
-20 13 -20 16 0 2 9 0 20 -6 11 -6 20 -13 20 -16z m940 21 c0 -2 -13 -11 -30
-20 -38 -19 -40 -11 -2 9 31 17 32 18 32 11z m380 0 c0 -2 -10 -9 -22 -15 -22
-11 -22 -10 -4 4 21 17 26 19 26 11z m100 0 c0 -2 -10 -9 -22 -15 -22 -11 -22
-10 -4 4 21 17 26 19 26 11z m-450 -10 c0 -2 -10 -9 -22 -15 -22 -11 -22 -10
-4 4 21 17 26 19 26 11z m240 -41 c0 -2 -9 0 -20 6 -11 6 -20 13 -20 16 0 2 9
0 20 -6 11 -6 20 -13 20 -16z m140 11 c0 -2 -10 -9 -22 -15 -22 -11 -22 -10
-4 4 21 17 26 19 26 11z m-458 -17 c-5 -7 -12 -24 -15 -38 l-4 -25 -2 26 c0
14 4 30 11 37 16 16 23 15 10 0z m405 -100 c-2 -18 -4 -4 -4 32 0 36 2 50 4
33 2 -18 2 -48 0 -65z m-1650 0 c-2 -13 -4 -3 -4 22 0 25 2 35 4 23 2 -13 2
-33 0 -45z m813 48 c0 -3 -4 -8 -10 -11 -5 -3 -10 -1 -10 4 0 6 5 11 10 11 6
0 10 -2 10 -4z m417 -48 c-3 -8 -6 -5 -6 6 -1 11 2 17 5 13 3 -3 4 -12 1 -19z
m16 -118 c11 -13 10 -13 -5 -1 -13 10 -18 26 -16 60 l1 46 4 -45 c3 -24 10
-51 16 -60z m-1246 48 c-3 -8 -6 -5 -6 6 -1 11 2 17 5 13 3 -3 4 -12 1 -19z
m1650 -30 c-3 -7 -5 -2 -5 12 0 14 2 19 5 13 2 -7 2 -19 0 -25z m-1647 -18 c0
-5 -10 -15 -22 -21 l-23 -12 20 21 c23 24 25 25 25 12z m1720 -26 c0 -2 -13 2
-30 11 -16 9 -30 18 -30 21 0 2 14 -2 30 -11 17 -9 30 -18 30 -21z m-160 21
c0 -2 -10 -9 -22 -15 -22 -11 -22 -10 -4 4 21 17 26 19 26 11z m-1490 -41 c0
-2 -13 2 -30 11 -16 9 -30 18 -30 21 0 2 14 -2 30 -11 17 -9 30 -18 30 -21z
m1200 0 c0 -2 -9 0 -20 6 -11 6 -20 13 -20 16 0 2 9 0 20 -6 11 -6 20 -13 20
-16z m-1320 11 c0 -2 -13 -11 -30 -20 -38 -19 -40 -11 -2 9 31 17 32 18 32 11z
m395 -4 c-16 -14 -105 -63 -105 -58 0 5 101 66 110 67 2 0 0 -4 -5 -9z m1145
-6 c0 -2 -10 -9 -22 -15 -22 -11 -22 -10 -4 4 21 17 26 19 26 11z m210 -21 c0
-2 -9 0 -20 6 -11 6 -20 13 -20 16 0 2 9 0 20 -6 11 -6 20 -13 20 -16z m-1580
-10 c0 -2 -9 0 -20 6 -11 6 -20 13 -20 16 0 2 9 0 20 -6 11 -6 20 -13 20 -16z
m1250 0 c0 -2 -9 0 -20 6 -11 6 -20 13 -20 16 0 2 9 0 20 -6 11 -6 20 -13 20
-16z m-1490 1 c0 -2 -10 -9 -22 -15 -22 -11 -22 -10 -4 4 21 17 26 19 26 11z
m1560 0 c0 -2 -10 -9 -22 -15 -22 -11 -22 -10 -4 4 21 17 26 19 26 11z m-1224
-33 c18 9 18 9 1 -6 -17 -13 -22 -12 -53 6 -19 11 -34 22 -34 25 0 3 15 -4 33
-15 25 -14 39 -17 53 -10z m1554 2 c0 -2 -9 0 -20 6 -11 6 -20 13 -20 16 0 2
9 0 20 -6 11 -6 20 -13 20 -16z m-1573 -86 c-3 -8 -6 -5 -6 6 -1 11 2 17 5 13
3 -3 4 -12 1 -19z m0 -110 c-3 -7 -5 -2 -5 12 0 14 2 19 5 13 2 -7 2 -19 0
-25z m27 -61 c21 -17 21 -17 -6 -6 -18 8 -28 19 -27 33 0 14 2 16 6 6 3 -8 15
-23 27 -33z m402 -3 c18 -14 18 -15 -3 -4 -18 8 -30 7 -53 -5 -38 -19 -40 -11
-2 9 34 19 34 19 58 0z m400 0 c18 -14 18 -15 -4 -4 -20 10 -35 4 -119 -44
-52 -31 -99 -56 -104 -56 -11 0 -79 41 -79 47 0 3 16 -4 36 -16 19 -12 39 -21
43 -21 5 0 51 25 102 55 52 30 97 55 100 55 3 0 14 -7 25 -16z m-846 2 c0 -2
-37 -25 -82 -52 -46 -26 -88 -53 -94 -60 -8 -10 -13 -9 -21 6 -10 15 -9 17 5
14 9 -3 55 18 102 45 89 53 90 53 90 47z m1605 -16 c-3 -5 -13 -6 -22 -3 -12
5 -14 3 -8 -7 6 -9 4 -11 -5 -5 -10 6 -9 11 5 21 19 14 39 9 30 -6z m-1895
-26 c0 -2 -13 2 -30 11 -16 9 -30 18 -30 21 0 2 14 -2 30 -11 17 -9 30 -18 30
-21z m400 0 c0 -2 -9 0 -20 6 -11 6 -20 13 -20 16 0 2 9 0 20 -6 11 -6 20 -13
20 -16z m420 -10 c0 -2 -13 2 -30 11 -16 9 -30 18 -30 21 0 2 14 -2 30 -11 17
-9 30 -18 30 -21z m-180 21 c0 -2 -13 -11 -30 -20 -38 -19 -40 -11 -2 9 31 17
32 18 32 11z m580 -21 c0 -2 -9 0 -20 6 -11 6 -20 13 -20 16 0 2 9 0 20 -6 11
-6 20 -13 20 -16z m616 0 c-10 -7 -25 -10 -34 -7 -10 4 -13 2 -8 -5 5 -8 1
-10 -10 -5 -11 4 -15 3 -10 -5 3 -6 2 -13 -3 -16 -5 -4 -8 1 -7 10 3 20 45 44
65 36 10 -4 12 -1 6 8 -6 9 -4 11 5 5 10 -6 9 -11 -4 -21z m-1766 -30 c0 -2
-13 2 -30 11 -16 9 -30 18 -30 21 0 2 14 -2 30 -11 17 -9 30 -18 30 -21z m400
0 c0 -2 -13 2 -30 11 -16 9 -30 18 -30 21 0 2 14 -2 30 -11 17 -9 30 -18 30
-21z m820 -10 c0 -2 -13 2 -30 11 -16 9 -30 18 -30 21 0 2 14 -2 30 -11 17 -9
30 -18 30 -21z m-720 22 c0 -2 -15 -13 -34 -24 -30 -18 -36 -19 -47 -6 -10 12
-9 13 4 8 8 -3 28 1 44 10 31 17 33 18 33 12z m-463 -103 c-3 -10 -5 -4 -5 12
0 17 2 24 5 18 2 -7 2 -21 0 -30z m0 -65 c-3 -7 -5 -2 -5 12 0 14 2 19 5 13 2
-7 2 -19 0 -25z m0 -40 c-3 -8 -6 -5 -6 6 -1 11 2 17 5 13 3 -3 4 -12 1 -19z
m110 -118 c57 -32 97 -49 105 -44 10 6 10 5 2 -7 -7 -8 -14 -23 -17 -34 -4
-17 -5 -16 -6 5 -1 21 -18 34 -96 79 -52 29 -102 51 -110 47 -12 -4 -13 -2 -3
14 9 15 14 16 22 6 6 -7 52 -37 103 -66z m297 61 c3 -5 -3 -11 -15 -14 -16 -4
-18 -3 -8 9 13 16 16 17 23 5z m382 -16 c-36 -19 -45 -19 -20 0 10 8 26 14 34
15 8 0 2 -7 -14 -15z m803 -11 c-13 -7 -27 -10 -31 -8 -5 3 -8 1 -8 -5 0 -17
-38 -33 -46 -19 -4 7 -3 8 4 4 7 -4 12 -3 12 3 0 13 55 42 64 34 3 -4 6 -1 6
6 0 7 5 9 11 5 8 -4 3 -11 -12 -20z m-1129 -10 c0 -2 -9 0 -20 6 -11 6 -20 13
-20 16 0 2 9 0 20 -6 11 -6 20 -13 20 -16z m420 -10 c0 -2 -13 2 -30 11 -16 9
-30 18 -30 21 0 2 14 -2 30 -11 17 -9 30 -18 30 -21z m295 27 c-16 -14 -105
-63 -105 -58 0 5 101 66 110 67 2 0 0 -4 -5 -9z m-815 -6 c0 -2 -10 -9 -22
-15 -22 -11 -22 -10 -4 4 21 17 26 19 26 11z m-420 -10 c0 -2 -10 -9 -22 -15
-22 -11 -22 -10 -4 4 21 17 26 19 26 11z m800 0 c0 -2 -10 -9 -22 -15 -22 -11
-22 -10 -4 4 21 17 26 19 26 11z m1000 -31 c0 -2 -9 0 -20 6 -11 6 -20 13 -20
16 0 2 9 0 20 -6 11 -6 20 -13 20 -16z m-1095 -19 c25 15 45 25 45 22 0 -3
-20 -17 -45 -32 l-46 -26 -54 31 c-30 17 -55 34 -55 36 0 3 25 -9 55 -26 l54
-31 46 26z m305 -1 c0 -2 -13 2 -30 11 -16 9 -30 18 -30 21 0 2 14 -2 30 -11
17 -9 30 -18 30 -21z m780 0 c0 -2 -13 2 -30 11 -16 9 -30 18 -30 21 0 2 14
-2 30 -11 17 -9 30 -18 30 -21z m-1840 21 c0 -2 -13 -11 -30 -20 -38 -19 -40
-11 -2 9 31 17 32 18 32 11z m400 0 c0 -2 -13 -11 -30 -20 -38 -19 -40 -11 -2
9 31 17 32 18 32 11z m770 -20 c0 -2 -14 -11 -30 -20 -23 -12 -35 -13 -50 -5
-11 6 -20 13 -20 16 0 2 9 0 20 -6 15 -8 27 -7 47 4 32 17 33 18 33 11z m720
-31 c0 -2 -9 0 -20 6 -11 6 -20 13 -20 16 0 2 9 0 20 -6 11 -6 20 -13 20 -16z"/>
<path d="M1610 1966 c0 -32 4 -36 97 -89 l96 -54 86 49 c98 56 110 68 103 103
l-4 25 -189 0 -189 0 0 -34z"/>
<path d="M1905 1866 l-90 -51 0 -120 0 -119 90 -53 90 -52 3 115 c1 63 1 164
0 224 l-3 108 -90 -52z"/>
</g>
</svg>
