<?xml version="1.0" standalone="no"?>
<!DOCTYPE svg PUBLIC "-//W3C//DTD SVG 20010904//EN"
 "http://www.w3.org/TR/2001/REC-SVG-20010904/DTD/svg10.dtd">
<svg version="1.0" xmlns="http://www.w3.org/2000/svg"
 width="200.000000pt" height="200.000000pt" viewBox="0 0 200.000000 200.000000"
 preserveAspectRatio="xMidYMid meet">
<metadata>
Created by potrace 1.16, written by Peter Selinger 2001-2019
</metadata>
<g transform="translate(0.000000,200.000000) scale(0.100000,-0.100000)"
fill="#000000" stroke="none">
<path d="M0 1967 c0 -18 6 -39 13 -46 10 -11 10 -13 0 -7 -10 6 -13 -41 -13
-219 0 -178 3 -225 13 -219 9 6 9 5 0 -7 -10 -12 -13 -126 -13 -472 l0 -456
45 -27 c25 -14 45 -28 45 -31 0 -3 -20 7 -45 21 l-45 27 0 -226 c0 -178 3
-225 12 -219 11 6 11 4 0 -7 -6 -7 -12 -28 -12 -46 l0 -33 195 0 195 0 0 38
c-1 36 -3 38 -85 85 -47 27 -85 51 -85 54 0 3 17 -5 38 -17 107 -64 142 -81
154 -74 10 5 11 4 1 -7 -7 -7 -13 -28 -13 -46 l0 -33 200 0 200 0 0 35 c0 28
-5 37 -30 50 -16 9 -30 18 -30 21 0 2 14 -3 30 -11 30 -16 32 -15 131 41 l100
57 -3 118 c-2 66 0 119 4 119 3 0 42 20 85 45 43 25 85 49 93 54 11 6 17 33
21 97 l5 89 2 -81 c1 -48 7 -85 15 -93 10 -10 8 -11 -7 -5 -13 5 -17 4 -12 -4
4 -7 3 -12 -2 -12 -6 0 -51 -23 -100 -52 l-91 -52 -3 -118 c-2 -76 1 -117 7
-114 15 5 46 -14 40 -25 -4 -5 -17 -4 -32 5 -25 12 -32 10 -117 -39 -86 -50
-91 -55 -94 -89 l-3 -36 595 0 596 0 0 58 c0 33 -5 64 -12 71 -10 11 -10 13 0
7 9 -6 12 31 12 169 l0 176 -22 -11 -23 -11 22 17 c22 16 23 21 23 194 0 173
-1 178 -22 194 l-23 17 23 -11 22 -11 0 141 0 141 -22 -11 -23 -11 23 17 c21
16 22 22 22 184 0 162 -1 168 -22 184 l-23 17 23 -11 22 -11 0 196 0 196 -22
-11 -23 -11 23 17 c18 13 22 26 22 65 0 37 -4 49 -15 49 -9 0 -15 -9 -15 -24
0 -13 -8 -30 -17 -37 -15 -11 -16 -11 -5 1 6 8 12 24 12 37 l0 23 -185 0 -185
0 0 -29 c0 -16 -8 -35 -17 -42 -15 -11 -16 -11 -5 1 6 8 12 27 12 42 l0 28
-180 0 -180 0 0 -28 c0 -15 6 -34 13 -42 10 -12 9 -12 -5 -1 -10 7 -18 26 -18
42 l0 29 -201 0 -200 0 3 -37 c3 -35 7 -40 96 -90 l92 -54 95 56 c81 48 95 60
96 83 l2 27 4 -25 c3 -14 10 -31 16 -39 9 -12 9 -13 -1 -7 -8 5 -49 -14 -109
-48 -52 -31 -99 -56 -104 -56 -4 0 -51 25 -103 56 l-95 55 -33 -16 c-28 -14
-30 -14 -14 0 11 8 23 15 28 15 4 0 8 18 8 40 l0 40 -194 0 c-146 0 -196 -3
-199 -12 -4 -10 -6 -10 -6 0 -1 9 -47 12 -196 12 l-195 0 0 -33z m1680 -43 c0
-2 -9 0 -20 6 -11 6 -20 13 -20 16 0 2 9 0 20 -6 11 -6 20 -13 20 -16z m-1190
-51 c0 -3 -20 7 -45 21 -43 26 -46 26 -77 11 -27 -13 -30 -13 -13 -1 11 8 24
19 30 24 8 7 105 -43 105 -55z m820 12 c0 -2 -7 -1 -17 2 -12 5 -14 3 -8 -7 5
-9 4 -11 -4 -6 -6 4 -8 12 -5 18 5 7 2 9 -8 6 -8 -4 -15 0 -15 7 0 11 6 11 29
-1 15 -8 28 -17 28 -19z m240 30 c0 -2 -10 -9 -22 -15 -22 -11 -22 -10 -4 4
21 17 26 19 26 11z m360 0 c0 -2 -10 -9 -22 -15 -22 -11 -22 -10 -4 4 21 17
26 19 26 11z m-1820 -41 c0 -2 -13 2 -30 11 -16 9 -30 18 -30 21 0 2 14 -2 30
-11 17 -9 30 -18 30 -21z m1490 31 c0 -2 -10 -9 -22 -15 -22 -11 -22 -10 -4 4
21 17 26 19 26 11z m170 -21 c0 -2 -9 0 -20 6 -11 6 -20 13 -20 16 0 2 9 0 20
-6 11 -6 20 -13 20 -16z m-70 -10 c0 -2 -9 0 -20 6 -11 6 -20 13 -20 16 0 2 9
0 20 -6 11 -6 20 -13 20 -16z m-1350 11 c0 -2 -13 -11 -30 -20 -38 -19 -40
-11 -2 9 31 17 32 18 32 11z m395 -4 c-16 -14 -105 -63 -105 -58 0 5 101 66
110 67 2 0 0 -4 -5 -9z m755 -6 c0 -2 -10 -9 -22 -15 -22 -11 -22 -10 -4 4 21
17 26 19 26 11z m329 -21 c14 -12 -19 -1 -35 12 -18 14 -18 14 6 3 14 -6 27
-13 29 -15z m-1669 -10 c0 -2 -9 0 -20 6 -11 6 -20 13 -20 16 0 2 9 0 20 -6
11 -6 20 -13 20 -16z m400 0 c0 -2 -9 0 -20 6 -11 6 -20 13 -20 16 0 2 9 0 20
-6 11 -6 20 -13 20 -16z m816 1 c2 -12 -2 -12 -17 -5 -23 13 -25 22 -2 13 12
-5 14 -3 8 8 -5 8 -4 11 0 6 5 -4 10 -14 11 -22z m594 20 c0 -2 -13 -11 -30
-20 -38 -19 -40 -11 -2 9 31 17 32 18 32 11z m-1690 -19 c0 -2 -15 -13 -33
-24 -33 -19 -34 -19 -58 0 l-24 19 26 -12 c21 -9 32 -8 55 5 32 17 34 18 34
12z m341 -34 c-7 -2 -18 1 -23 6 -8 8 -4 9 13 5 13 -4 18 -8 10 -11z m1265 3
c-11 -8 -25 -15 -30 -15 -6 1 0 7 14 15 32 19 40 18 16 0z m-456 -120 c0 -63
-3 -116 -7 -118 -5 -3 -8 50 -8 118 0 68 3 121 8 118 4 -2 7 -55 7 -118z m388
100 c-3 -3 -9 2 -12 12 -6 14 -5 15 5 6 7 -7 10 -15 7 -18z m-1601 -87 c-2
-18 -4 -6 -4 27 0 33 2 48 4 33 2 -15 2 -42 0 -60z m1630 30 c-2 -13 -4 -5 -4
17 -1 22 1 32 4 23 2 -10 2 -28 0 -40z m-1230 10 c-3 -7 -5 -2 -5 12 0 14 2
19 5 13 2 -7 2 -19 0 -25z m1200 -30 c-2 -13 -4 -3 -4 22 0 25 2 35 4 23 2
-13 2 -33 0 -45z m-4 -139 c-4 -4 -6 20 -3 54 l5 62 3 -54 c2 -30 0 -58 -5
-62z m-1596 44 c-3 -10 -5 -4 -5 12 0 17 2 24 5 18 2 -7 2 -21 0 -30z m1651
-41 c15 -11 14 -12 -5 -2 -16 7 -23 19 -22 38 2 26 2 26 6 2 3 -13 12 -30 21
-38z m-1520 -78 c4 -4 -24 10 -62 31 l-70 38 -50 -28 c-60 -33 -57 -26 5 14
l44 27 63 -37 c35 -20 66 -41 70 -45z m332 40 c0 -3 -14 3 -31 11 -17 9 -38
14 -46 10 -13 -4 -14 -3 -4 9 11 13 17 12 47 -6 19 -11 34 -22 34 -24z m441
-20 c85 -48 101 -54 121 -44 l23 11 -22 -18 c-20 -16 -23 -29 -26 -128 l-3
-110 -2 111 -2 112 -95 55 -96 56 -92 -53 -92 -54 -3 -114 -3 -115 -42 -23
c-45 -25 -45 -18 0 10 27 16 28 18 29 129 l2 112 -29 15 c-16 8 -29 17 -29 20
0 2 14 -3 30 -11 30 -16 32 -15 128 39 53 31 99 55 101 56 3 0 49 -25 102 -56z
m359 30 c0 -2 -9 0 -20 6 -11 6 -20 13 -20 16 0 2 9 0 20 -6 11 -6 20 -13 20
-16z m-80 11 c0 -2 -10 -9 -22 -15 -22 -11 -22 -10 -4 4 21 17 26 19 26 11z
m-820 -10 c0 -2 -13 -11 -30 -20 -38 -19 -40 -11 -2 9 31 17 32 18 32 11z
m866 -11 c18 -14 18 -15 -4 -4 -12 6 -28 8 -34 4 -7 -4 -8 -3 -4 4 10 16 18
15 42 -4z m324 11 c0 -2 -10 -9 -22 -15 -22 -11 -22 -10 -4 4 21 17 26 19 26
11z m180 -21 c0 -2 -9 0 -20 6 -11 6 -20 13 -20 16 0 2 9 0 20 -6 11 -6 20
-13 20 -16z m-420 -10 c0 -2 -9 0 -20 6 -11 6 -20 13 -20 16 0 2 9 0 20 -6 11
-6 20 -13 20 -16z m-780 -20 c0 -2 -13 2 -30 11 -16 9 -30 18 -30 21 0 2 14
-2 30 -11 17 -9 30 -18 30 -21z m620 21 c0 -2 -10 -9 -22 -15 -22 -11 -22 -10
-4 4 21 17 26 19 26 11z m140 -21 c0 -2 -9 0 -20 6 -11 6 -20 13 -20 16 0 2 9
0 20 -6 11 -6 20 -13 20 -16z m210 21 c0 -2 -13 -11 -30 -20 -38 -19 -40 -11
-2 9 31 17 32 18 32 11z m100 1 c0 -2 -7 -7 -16 -10 -8 -3 -12 -2 -9 4 6 10
25 14 25 6z m50 -22 c0 -2 -9 0 -20 6 -11 6 -20 13 -20 16 0 2 9 0 20 -6 11
-6 20 -13 20 -16z m-1760 11 c0 -2 -13 -11 -30 -20 -38 -19 -40 -11 -2 9 31
17 32 18 32 11z m380 -9 c0 -6 -66 -46 -76 -46 -5 0 9 11 31 25 43 26 45 27
45 21z m-90 -32 c0 -2 -9 0 -20 6 -11 6 -20 13 -20 16 0 2 9 0 20 -6 11 -6 20
-13 20 -16z m920 21 c0 -2 -10 -9 -22 -15 -22 -11 -22 -10 -4 4 21 17 26 19
26 11z m280 -41 c0 -2 -13 2 -30 11 -16 9 -30 18 -30 21 0 2 14 -2 30 -11 17
-9 30 -18 30 -21z m45 26 c-3 -5 -14 -10 -23 -9 -14 0 -13 2 3 9 27 11 27 11
20 0z m295 -16 c0 -2 -9 0 -20 6 -11 6 -20 13 -20 16 0 2 9 0 20 -6 11 -6 20
-13 20 -16z m-675 -4 c-3 -5 -12 -10 -18 -10 -7 0 -6 4 3 10 19 12 23 12 15 0z
m417 -12 c-7 -7 -13 -30 -14 -52 l-1 -41 -4 38 c-4 34 9 67 25 67 3 0 1 -5 -6
-12z m293 -6 c-3 -3 -11 0 -18 7 -9 10 -8 11 6 5 10 -3 15 -9 12 -12z m-1558
-89 c-2 -16 -4 -5 -4 22 0 28 2 40 4 28 2 -13 2 -35 0 -50z m1250 -80 c-2 -16
-4 -3 -4 27 0 30 2 43 4 28 2 -16 2 -40 0 -55z m-1146 -98 c55 -31 98 -59 95
-62 -3 -3 -49 20 -102 51 l-97 56 -91 -53 -91 -53 0 -114 0 -114 91 -53 92
-54 96 57 c53 31 99 54 102 51 3 -3 -40 -31 -95 -62 -77 -44 -101 -62 -102
-79 -1 -19 -2 -19 -8 3 -3 13 -13 28 -21 32 -8 5 -50 29 -93 54 -76 44 -78 45
-110 30 -27 -14 -29 -14 -13 -1 10 8 22 17 27 18 4 2 9 54 10 117 l1 113 -51
30 c-28 16 -51 32 -51 35 0 2 25 -10 55 -27 l54 -31 78 46 c43 25 85 49 93 54
9 5 17 28 20 57 l4 49 4 -47 3 -46 100 -57z m1074 65 c-3 -5 -16 -15 -28 -21
-19 -9 -19 -8 3 10 28 23 34 26 25 11z m355 -5 c0 -2 -13 -11 -30 -20 -38 -19
-40 -11 -2 9 31 17 32 18 32 11z m-1070 -31 c0 -2 -9 0 -20 6 -11 6 -20 13
-20 16 0 2 9 0 20 -6 11 -6 20 -13 20 -16z m430 0 c0 -2 -9 0 -20 6 -11 6 -20
13 -20 16 0 2 9 0 20 -6 11 -6 20 -13 20 -16z m440 0 c0 -2 -9 0 -20 6 -11 6
-20 13 -20 16 0 2 9 0 20 -6 11 -6 20 -13 20 -16z m-1650 -20 c0 -2 -13 2 -30
11 -16 9 -30 18 -30 21 0 2 14 -2 30 -11 17 -9 30 -18 30 -21z m780 -10 c0 -2
-9 0 -20 6 -11 6 -20 13 -20 16 0 2 9 0 20 -6 11 -6 20 -13 20 -16z m50 0 c0
-2 -9 0 -20 6 -11 6 -20 13 -20 16 0 2 9 0 20 -6 11 -6 20 -13 20 -16z m450
-10 c0 -2 -13 2 -30 11 -16 9 -30 18 -30 21 0 2 14 -2 30 -11 17 -9 30 -18 30
-21z m140 31 c0 -2 -10 -9 -22 -15 -22 -11 -22 -10 -4 4 21 17 26 19 26 11z
m360 0 c0 -2 -10 -9 -22 -15 -22 -11 -22 -10 -4 4 21 17 26 19 26 11z m-1146
-17 c-5 -8 -2 -9 9 -5 24 9 21 0 -4 -14 -17 -9 -20 -8 -14 2 6 9 3 11 -11 6
-18 -7 -18 -7 0 8 24 18 30 19 20 3z m476 7 c0 -2 -10 -9 -22 -15 -22 -11 -22
-10 -4 4 21 17 26 19 26 11z m60 -21 c0 -2 -9 0 -20 6 -11 6 -20 13 -20 16 0
2 9 0 20 -6 11 -6 20 -13 20 -16z m559 0 c14 -12 -19 -1 -35 12 -18 14 -18 14
6 3 14 -6 27 -13 29 -15z m-209 2 c0 -2 -7 -7 -16 -10 -8 -3 -12 -2 -9 4 6 10
25 14 25 6z m70 -32 c0 -2 -13 2 -30 11 -16 9 -30 18 -30 21 0 2 14 -2 30 -11
17 -9 30 -18 30 -21z m-720 -10 c0 -2 -13 2 -30 11 -16 9 -30 18 -30 21 0 2
14 -2 30 -11 17 -9 30 -18 30 -21z m30 10 c0 -2 -9 0 -20 6 -11 6 -20 13 -20
16 0 2 9 0 20 -6 11 -6 20 -13 20 -16z m160 21 c0 -2 -13 -11 -30 -20 -38 -19
-40 -11 -2 9 31 17 32 18 32 11z m160 -16 c17 -13 18 -17 5 -10 -33 17 -51 31
-40 31 6 0 21 -10 35 -21z m123 9 c-2 -5 -13 -8 -23 -8 -10 0 -21 3 -23 8 -3
4 8 7 23 7 15 0 26 -3 23 -7z m-397 -13 c-11 -8 -25 -15 -30 -15 -6 1 0 7 14
15 32 19 40 18 16 0z m514 1 c0 -2 -17 -15 -37 -27 -21 -13 -41 -28 -45 -33
-5 -8 -8 -7 -8 0 0 7 19 24 43 38 46 27 47 28 47 22z m205 -46 c3 -5 -10 -1
-29 11 -20 12 -36 23 -36 25 0 7 58 -25 65 -36z m-1113 18 c-5 -7 -12 -22 -15
-33 -5 -20 -5 -20 -6 1 0 11 4 25 11 32 16 16 23 15 10 0z m426 -2 c-12 -8
-18 -31 -21 -72 l-3 -59 -2 62 c-2 50 1 64 16 72 24 14 30 13 10 -3z m311 -29
c-1 -20 -2 -20 -6 -2 -3 11 -13 25 -22 33 -14 11 -13 12 7 2 14 -7 22 -19 21
-33z m561 28 c0 -2 -10 -9 -22 -15 -22 -11 -22 -10 -4 4 21 17 26 19 26 11z
m-53 -77 c-2 -13 -4 -5 -4 17 -1 22 1 32 4 23 2 -10 2 -28 0 -40z m-420 0 c-3
-7 -5 -2 -5 12 0 14 2 19 5 13 2 -7 2 -19 0 -25z m-840 -20 c-3 -7 -5 -2 -5
12 0 14 2 19 5 13 2 -7 2 -19 0 -25z m750 -40 c-2 -13 -4 -5 -4 17 -1 22 1 32
4 23 2 -10 2 -28 0 -40z m-750 -10 c-3 -7 -5 -2 -5 12 0 14 2 19 5 13 2 -7 2
-19 0 -25z m840 -5 c-3 -10 -5 -4 -5 12 0 17 2 24 5 18 2 -7 2 -21 0 -30z
m-399 -61 c15 -11 14 -12 -5 -2 -18 8 -23 18 -21 48 l1 37 4 -34 c3 -19 12
-41 21 -49z m819 41 c-3 -10 -5 -4 -5 12 0 17 2 24 5 18 2 -7 2 -21 0 -30z
m-507 -18 c0 -8 -10 -19 -22 -25 -21 -10 -21 -10 -5 3 9 8 17 19 17 26 0 6 2
11 5 11 3 0 5 -7 5 -15z m-741 -18 c12 -15 12 -17 -3 -11 -9 3 -16 13 -16 22
0 8 1 13 3 11 1 -2 9 -12 16 -22z m1301 -3 c0 -2 -9 0 -20 6 -11 6 -20 13 -20
16 0 2 9 0 20 -6 11 -6 20 -13 20 -16z m-424 -5 c19 -11 34 -23 34 -26 0 -4
-62 30 -79 44 -16 12 18 -1 45 -18z m214 6 c0 -2 -10 -9 -22 -15 -22 -11 -22
-10 -4 4 21 17 26 19 26 11z m-1030 -41 c0 -2 -9 0 -20 6 -11 6 -20 13 -20 16
0 2 9 0 20 -6 11 -6 20 -13 20 -16z m254 14 c-5 -8 -2 -9 9 -5 24 9 21 0 -4
-14 -17 -9 -20 -8 -14 2 6 9 3 11 -11 6 -18 -7 -18 -7 0 8 24 18 30 19 20 3z
m126 -24 c0 -2 -13 2 -30 11 -16 9 -30 18 -30 21 0 2 14 -2 30 -11 17 -9 30
-18 30 -21z m250 31 c0 -2 -10 -9 -22 -15 -22 -11 -22 -10 -4 4 21 17 26 19
26 11z m-1190 -30 c0 -2 -10 -9 -22 -15 -22 -11 -22 -10 -4 4 21 17 26 19 26
11z m1140 0 c0 -2 -13 -11 -30 -20 -38 -19 -40 -11 -2 9 31 17 32 18 32 11z
m325 -13 c-3 -3 -11 0 -18 7 -9 10 -8 11 6 5 10 -3 15 -9 12 -12z m-875 -18
c0 -2 -9 0 -20 6 -11 6 -20 13 -20 16 0 2 9 0 20 -6 11 -6 20 -13 20 -16z
m155 16 c-8 -13 1 -13 26 0 10 6 19 8 19 6 0 -3 -14 -13 -31 -22 -21 -10 -29
-11 -23 -3 5 9 2 11 -12 6 -18 -7 -18 -7 0 8 23 17 30 19 21 5z m245 -16 c0
-2 -9 0 -20 6 -11 6 -20 13 -20 16 0 2 9 0 20 -6 11 -6 20 -13 20 -16z m70 0
c0 -2 -9 0 -20 6 -11 6 -20 13 -20 16 0 2 9 0 20 -6 11 -6 20 -13 20 -16z
m150 21 c0 -2 -10 -9 -22 -15 -22 -11 -22 -10 -4 4 21 17 26 19 26 11z m160
-21 c0 -2 -9 0 -20 6 -11 6 -20 13 -20 16 0 2 9 0 20 -6 11 -6 20 -13 20 -16z
m400 -20 c0 -2 -13 2 -30 11 -16 9 -30 18 -30 21 0 2 14 -2 30 -11 17 -9 30
-18 30 -21z m-1820 21 c0 -2 -13 -11 -30 -20 -38 -19 -40 -11 -2 9 31 17 32
18 32 11z m1115 -45 c4 -6 11 -7 17 -4 7 4 8 2 4 -4 -4 -7 -19 -3 -44 14 -49
34 -54 40 -15 20 17 -9 35 -20 38 -26z m95 35 c0 -2 -13 -11 -30 -20 -38 -19
-40 -11 -2 9 31 17 32 18 32 11z m280 -31 c0 -2 -9 0 -20 6 -11 6 -20 13 -20
16 0 2 9 0 20 -6 11 -6 20 -13 20 -16z m140 21 c0 -2 -10 -9 -22 -15 -22 -11
-22 -10 -4 4 21 17 26 19 26 11z m-893 -22 c-14 -14 -19 -15 -29 -4 -11 10
-10 11 3 6 10 -4 20 -2 24 4 3 6 9 11 13 11 3 0 -1 -8 -11 -17z m1158 -23 c3
-5 -10 -1 -29 11 -20 12 -36 23 -36 25 0 7 58 -25 65 -36z m-338 -52 c-2 -13
-4 -3 -4 22 0 25 2 35 4 23 2 -13 2 -33 0 -45z m-1240 0 c-3 -8 -6 -5 -6 6 -1
11 2 17 5 13 3 -3 4 -12 1 -19z m0 -110 c-3 -7 -5 -2 -5 12 0 14 2 19 5 13 2
-7 2 -19 0 -25z m400 0 c-3 -8 -6 -5 -6 6 -1 11 2 17 5 13 3 -3 4 -12 1 -19z
m-373 -61 c21 -17 21 -17 -6 -6 -18 8 -28 19 -27 33 0 14 2 16 6 6 3 -8 15
-23 27 -33z m1541 23 c-3 -5 -16 -15 -28 -21 -19 -9 -19 -8 3 10 28 23 34 26
25 11z m-1139 -26 c18 -14 18 -15 -3 -4 -18 8 -30 7 -53 -5 -38 -19 -40 -11
-2 9 34 19 34 19 58 0z m874 -10 c0 -2 -9 0 -20 6 -11 6 -20 13 -20 16 0 2 9
0 20 -6 11 -6 20 -13 20 -16z m-1320 11 c0 -2 -10 -9 -22 -15 -22 -11 -22 -10
-4 4 21 17 26 19 26 11z m900 -20 c0 -2 -7 -1 -17 2 -12 5 -14 3 -8 -8 5 -8 4
-11 0 -6 -5 4 -10 14 -11 22 -2 12 2 12 17 5 10 -6 19 -13 19 -15z m280 20 c0
-2 -10 -9 -22 -15 -22 -11 -22 -10 -4 4 21 17 26 19 26 11z m-1070 -41 c0 -2
-9 0 -20 6 -11 6 -20 13 -20 16 0 2 9 0 20 -6 11 -6 20 -13 20 -16z m420 -10
c0 -2 -13 2 -30 11 -16 9 -30 18 -30 21 0 2 14 -2 30 -11 17 -9 30 -18 30 -21z
m690 32 c0 -2 -7 -7 -16 -10 -8 -3 -12 -2 -9 4 6 10 25 14 25 6z m50 -22 c0
-2 -9 0 -20 6 -11 6 -20 13 -20 16 0 2 9 0 20 -6 11 -6 20 -13 20 -16z m240
21 c0 -2 -10 -9 -22 -15 -22 -11 -22 -10 -4 4 21 17 26 19 26 11z m-1560 -9
c0 -3 -26 -19 -57 -37 -32 -17 -63 -38 -69 -45 -8 -10 -12 -9 -21 6 -10 15 -9
17 5 14 9 -2 44 11 77 31 64 37 65 37 65 31z m400 -1 c0 -2 -13 -11 -30 -20
-38 -19 -40 -11 -2 9 31 17 32 18 32 11z m780 0 c0 -2 -13 -11 -30 -20 -38
-19 -40 -11 -2 9 31 17 32 18 32 11z m260 -21 c0 -2 -9 0 -20 6 -11 6 -20 13
-20 16 0 2 9 0 20 -6 11 -6 20 -13 20 -16z m-420 -9 c0 -2 -7 -1 -17 2 -11 5
-14 3 -8 -6 6 -10 3 -11 -14 -2 -25 14 -28 23 -4 14 11 -5 14 -3 8 6 -6 10 -3
11 14 2 11 -7 21 -14 21 -16z m-1190 -21 c0 -2 -13 2 -30 11 -16 9 -30 18 -30
21 0 2 14 -2 30 -11 17 -9 30 -18 30 -21z m1380 31 c0 -2 -10 -9 -22 -15 -22
-11 -22 -10 -4 4 21 17 26 19 26 11z m180 -31 c0 -2 -13 2 -30 11 -16 9 -30
18 -30 21 0 2 14 -2 30 -11 17 -9 30 -18 30 -21z m-1160 0 c0 -2 -9 0 -20 6
-11 6 -20 13 -20 16 0 2 9 0 20 -6 11 -6 20 -13 20 -16z m420 -10 c0 -2 -13 2
-30 11 -16 9 -30 18 -30 21 0 2 14 -2 30 -11 17 -9 30 -18 30 -21z m-320 21
c0 -2 -10 -9 -22 -15 -22 -11 -22 -10 -4 4 21 17 26 19 26 11z m1290 0 c0 -2
-13 -11 -30 -20 -38 -19 -40 -11 -2 9 31 17 32 18 32 11z m-542 -20 c-8 -6
-13 -30 -12 -65 l1 -55 -4 49 c-3 31 -11 55 -21 63 -16 12 -15 12 2 6 11 -4
17 -2 13 3 -3 5 3 10 14 10 16 0 17 -3 7 -11z m82 10 c0 -2 -10 -9 -22 -15
-22 -11 -22 -10 -4 4 21 17 26 19 26 11z m-886 -27 c-3 -5 -12 -4 -20 3 -19
16 -18 18 6 12 11 -3 17 -9 14 -15z m1176 -10 c0 -5 -11 -1 -25 8 -14 9 -25
18 -25 20 0 2 11 -2 25 -8 14 -6 25 -15 25 -20z m-349 -20 c-3 -21 -6 -26 -9
-15 -3 17 3 47 11 47 2 0 1 -15 -2 -32z m444 22 c-3 -5 -12 -10 -18 -10 -7 0
-6 4 3 10 19 12 23 12 15 0z m-1678 -57 c-3 -10 -5 -4 -5 12 0 17 2 24 5 18 2
-7 2 -21 0 -30z m1650 -105 c-2 -24 -4 -5 -4 42 0 47 2 66 4 43 2 -24 2 -62 0
-85z m-420 5 c-2 -21 -4 -6 -4 32 0 39 2 55 4 38 2 -18 2 -50 0 -70z m-1230
35 c-3 -7 -5 -2 -5 12 0 14 2 19 5 13 2 -7 2 -19 0 -25z m1200 -10 c-3 -7 -5
-2 -5 12 0 14 2 19 5 13 2 -7 2 -19 0 -25z m-1200 -30 c-3 -8 -6 -5 -6 6 -1
11 2 17 5 13 3 -3 4 -12 1 -19z m1196 -59 c-5 -5 -6 11 -3 34 4 41 5 41 8 8 2
-18 0 -37 -5 -42z m-1196 -8 c-7 -2 -21 -8 -32 -14 -16 -8 -15 -4 5 14 15 15
28 20 32 14 4 -5 2 -12 -5 -14z m1583 21 c0 -5 -12 -14 -27 -21 l-28 -12 25
21 c29 22 30 23 30 12z m120 -18 c0 -2 -9 0 -20 6 -11 6 -20 13 -20 16 0 2 9
0 20 -6 11 -6 20 -13 20 -16z m-1240 -30 c0 -3 -14 3 -31 11 -17 9 -38 14 -46
10 -13 -4 -14 -3 -4 9 11 13 17 12 47 -6 19 -11 34 -22 34 -24z m830 10 c0 -2
-9 0 -20 6 -11 6 -20 13 -20 16 0 2 9 0 20 -6 11 -6 20 -13 20 -16z m-120 12
c0 -2 -7 -7 -16 -10 -8 -3 -12 -2 -9 4 6 10 25 14 25 6z m580 -22 c0 -2 -9 0
-20 6 -11 6 -20 13 -20 16 0 2 9 0 20 -6 11 -6 20 -13 20 -16z m-1810 1 c0 -2
-10 -9 -22 -15 -22 -11 -22 -10 -4 4 21 17 26 19 26 11z m400 0 c0 -2 -10 -9
-22 -15 -22 -11 -22 -10 -4 4 21 17 26 19 26 11z m565 -26 c-4 -5 -14 -5 -26
1 -11 6 -17 15 -14 21 4 5 14 5 26 -1 11 -6 17 -15 14 -21z m225 26 c0 -2 -10
-9 -22 -15 -22 -11 -22 -10 -4 4 21 17 26 19 26 11z m40 -10 c0 -2 -13 -11
-30 -20 -38 -19 -40 -11 -2 9 31 17 32 18 32 11z m120 -31 c0 -2 -13 2 -30 11
-16 9 -30 18 -30 21 0 2 14 -2 30 -11 17 -9 30 -18 30 -21z m106 -11 c-4 -4
-76 37 -76 44 0 2 18 -6 40 -18 22 -12 38 -24 36 -26z m-866 11 c0 -2 -9 0
-20 6 -11 6 -20 13 -20 16 0 2 9 0 20 -6 11 -6 20 -13 20 -16z m940 21 c0 -2
-13 -11 -30 -20 -38 -19 -40 -11 -2 9 31 17 32 18 32 11z m154 -4 c4 -5 -3 -7
-14 -4 -23 6 -26 13 -6 13 8 0 17 -4 20 -9z m-1734 -6 c0 -2 -13 -11 -30 -20
-38 -19 -40 -11 -2 9 31 17 32 18 32 11z m400 0 c0 -2 -13 -11 -30 -20 -38
-19 -40 -11 -2 9 31 17 32 18 32 11z m634 -7 c-5 -7 -2 -9 8 -6 8 4 15 0 15
-7 0 -10 -5 -11 -19 -4 -16 9 -17 29 -2 29 3 0 2 -5 -2 -12z m656 7 c0 -2 -10
-9 -22 -15 -22 -11 -22 -10 -4 4 21 17 26 19 26 11z m-605 -24 c3 -5 2 -12 -3
-15 -5 -3 -9 1 -9 9 0 17 3 19 12 6z m125 4 c0 -2 -10 -9 -22 -15 -22 -11 -22
-10 -4 4 21 17 26 19 26 11z m240 -21 c0 -2 -9 0 -20 6 -11 6 -20 13 -20 16 0
2 9 0 20 -6 11 -6 20 -13 20 -16z m360 0 c0 -2 -9 0 -20 6 -11 6 -20 13 -20
16 0 2 9 0 20 -6 11 -6 20 -13 20 -16z m-696 0 c-6 -2 -9 -19 -8 -37 l3 -32
-8 30 c-8 34 -5 45 12 44 8 0 8 -2 1 -5z m506 1 c0 -2 -10 -9 -22 -15 -22 -11
-22 -10 -4 4 21 17 26 19 26 11z m-468 -17 c-5 -7 -12 -22 -15 -33 -4 -16 -5
-14 -6 7 -1 22 7 33 28 37 2 1 -1 -5 -7 -11z m713 -16 c-3 -3 -11 0 -18 7 -9
10 -8 11 6 5 10 -3 15 -9 12 -12z m-302 -12 c-3 -12 -8 -19 -11 -16 -5 6 5 36
12 36 2 0 2 -9 -1 -20z"/>
</g>
</svg>
