<?xml version="1.0" standalone="no"?>
<!DOCTYPE svg PUBLIC "-//W3C//DTD SVG 20010904//EN"
 "http://www.w3.org/TR/2001/REC-SVG-20010904/DTD/svg10.dtd">
<svg version="1.0" xmlns="http://www.w3.org/2000/svg"
 width="200.000000pt" height="200.000000pt" viewBox="0 0 200.000000 200.000000"
 preserveAspectRatio="xMidYMid meet">
<metadata>
Created by potrace 1.16, written by Peter Selinger 2001-2019
</metadata>
<g transform="translate(0.000000,200.000000) scale(0.100000,-0.100000)"
fill="#000000" stroke="none">
<path d="M13 1989 c9 -6 15 -15 11 -21 -4 -6 -10 -5 -15 3 -5 8 -9 -91 -9
-233 0 -216 2 -247 15 -242 9 4 15 0 15 -10 0 -10 -6 -13 -15 -10 -13 5 -15
-13 -15 -129 0 -99 3 -137 13 -140 10 -4 10 -6 0 -6 -10 -1 -13 -72 -13 -322
0 -186 4 -318 9 -315 5 3 11 -1 14 -9 4 -9 1 -12 -9 -8 -10 3 -14 -2 -14 -18
0 -23 31 -46 130 -97 14 -7 36 -22 50 -33 21 -17 17 -16 -20 4 -25 13 -69 38
-98 56 -29 17 -55 31 -57 31 -8 0 -4 -409 4 -414 5 -3 20 5 35 19 14 13 26 19
26 13 0 -6 10 -3 23 8 l22 18 -21 -22 c-11 -13 -36 -30 -55 -40 -25 -13 -34
-24 -34 -42 l0 -25 185 -3 c166 -3 186 -1 197 14 12 17 13 17 13 1 0 -16 43
-17 600 -16 367 0 598 4 595 10 -4 5 1 9 10 9 9 0 14 -4 10 -10 -3 -5 69 -9
190 -9 l195 0 -1 109 c-1 61 -4 108 -8 105 -4 -2 -8 2 -8 10 0 8 4 12 9 9 4
-3 8 29 8 71 0 58 -3 74 -12 69 -10 -6 -10 -5 -1 7 16 20 16 152 0 142 -8 -5
-8 -2 0 9 17 20 16 287 -1 307 -8 11 -8 13 1 8 8 -5 11 34 12 153 0 122 -3
159 -12 153 -9 -5 -9 -3 0 8 17 21 18 286 1 307 -8 10 -9 13 -1 9 16 -10 16
122 0 142 -9 12 -9 13 1 7 9 -5 12 11 12 69 0 42 -4 74 -8 71 -5 -3 -9 1 -9 9
0 8 4 12 8 9 4 -2 8 45 8 105 l1 110 -195 0 -195 0 -6 -24 c-3 -14 -4 -31 -1
-38 3 -9 -17 -26 -56 -47 -34 -18 -64 -36 -67 -40 -3 -4 -20 -14 -39 -23 -29
-14 -40 -15 -68 -5 -18 7 -33 15 -33 19 0 4 -9 11 -21 14 -29 9 -120 67 -115
73 3 2 20 -5 39 -17 19 -11 37 -18 40 -14 4 3 7 2 7 -3 0 -15 59 -46 72 -38 7
4 8 3 4 -4 -11 -18 30 -35 55 -22 17 10 18 14 7 28 -11 15 -11 15 3 5 13 -11
22 -10 48 3 17 8 31 20 31 25 0 6 3 8 8 6 4 -2 21 3 37 13 23 13 31 25 33 53
l3 36 -121 0 c-91 0 -119 -3 -114 -12 5 -9 3 -9 -7 1 -15 14 -143 17 -134 3 3
-5 1 -12 -5 -16 -5 -3 -10 2 -10 11 0 16 -1 16 -15 -2 -12 -15 -14 -15 -9 -2
5 16 -9 17 -174 17 -164 0 -181 -2 -180 -17 3 -32 -12 -72 -27 -72 -8 0 -15
-4 -15 -10 0 -5 -7 -10 -15 -10 -8 0 -23 -8 -34 -19 -10 -10 -30 -21 -44 -25
-14 -3 -32 -12 -39 -19 -7 -7 -21 -16 -30 -20 -15 -5 -16 -4 -6 13 7 10 14 17
16 15 7 -7 62 25 62 35 0 6 4 9 8 8 5 -2 32 10 60 25 48 26 52 31 50 62 l-2
33 -183 1 -183 1 0 -30 c0 -17 -4 -30 -10 -30 -5 0 -7 13 -3 30 5 26 3 30 -16
30 -15 0 -22 -6 -20 -17 3 -34 -1 -53 -11 -53 -7 0 -8 13 -5 34 l7 34 -194 1
c-139 1 -188 -2 -175 -10z m318 -36 c-12 -20 -14 -14 -5 12 4 9 9 14 11 11 3
-2 0 -13 -6 -23z m444 17 c-3 -5 -11 -10 -16 -10 -6 0 -7 5 -4 10 3 6 11 10
16 10 6 0 7 -4 4 -10z m470 0 c3 -5 1 -10 -4 -10 -6 0 -11 5 -11 10 0 6 2 10
4 10 3 0 8 -4 11 -10z m310 -11 c-10 -15 -25 -10 -19 6 4 8 10 12 15 9 5 -3 7
-10 4 -15z m115 -5 c0 -2 -9 0 -20 6 -11 6 -20 13 -20 16 0 2 9 0 20 -6 11 -6
20 -13 20 -16z m-1503 -39 c10 3 14 3 10 -1 -4 -4 1 -16 10 -27 17 -18 17 -18
-12 -6 -17 8 -32 16 -35 20 -3 3 -24 16 -47 29 -24 13 -43 27 -43 32 0 4 23
-6 50 -23 31 -19 57 -28 67 -24z m843 45 c0 -5 -4 -10 -10 -10 -5 0 -10 5 -10
10 0 6 5 10 10 10 6 0 10 -4 10 -10z m145 0 c-3 -5 -11 -10 -16 -10 -6 0 -7 5
-4 10 3 6 11 10 16 10 6 0 7 -4 4 -10z m260 0 c3 -6 -1 -7 -9 -4 -18 7 -21 14
-7 14 6 0 13 -4 16 -10z m395 6 c0 -3 -4 -8 -10 -11 -5 -3 -10 -1 -10 4 0 6 5
11 10 11 6 0 10 -2 10 -4z m145 -6 c-3 -5 -11 -10 -16 -10 -6 0 -7 5 -4 10 3
6 11 10 16 10 6 0 7 -4 4 -10z m-1370 -20 c3 -6 -1 -7 -9 -4 -18 7 -21 14 -7
14 6 0 13 -4 16 -10z m-230 -9 c3 -5 2 -12 -3 -15 -5 -3 -9 1 -9 9 0 17 3 19
12 6z m161 -17 c7 3 13 1 11 -4 -1 -5 7 -16 18 -25 11 -9 -2 -4 -30 10 -27 15
-54 32 -60 38 -5 6 3 3 18 -7 16 -10 35 -15 43 -12z m189 9 c-2 -10 -4 -20 -4
-23 -1 -3 -5 2 -10 10 -10 15 -6 30 9 30 4 0 7 -8 5 -17z m-378 -25 c-3 -7 -5
-2 -5 12 0 14 2 19 5 13 2 -7 2 -19 0 -25z m753 20 c0 -4 -4 -8 -9 -8 -6 0
-12 4 -15 8 -3 5 1 9 9 9 8 0 15 -4 15 -9z m260 2 c0 -5 -5 -10 -11 -10 -5 0
-7 5 -4 10 3 6 8 10 11 10 2 0 4 -4 4 -10z m145 0 c3 -5 -1 -10 -9 -10 -9 0
-16 5 -16 10 0 6 4 10 9 10 6 0 13 -4 16 -10z m255 0 c0 -5 -4 -10 -10 -10 -5
0 -10 5 -10 10 0 6 5 10 10 10 6 0 10 -4 10 -10z m150 0 c0 -5 -7 -10 -15 -10
-8 0 -15 5 -15 10 0 6 7 10 15 10 8 0 15 -4 15 -10z m-1460 -19 c0 -3 26 -19
58 -36 31 -16 59 -33 62 -36 3 -3 14 -11 25 -18 18 -11 18 -11 -5 -5 -14 4
-36 15 -49 25 -13 11 -28 19 -33 19 -5 0 -22 10 -38 21 -16 12 -35 19 -42 16
-8 -3 -14 2 -15 13 -1 13 4 16 18 13 10 -3 19 -8 19 -12z m732 5 c7 4 8 2 4
-4 -3 -6 2 -15 11 -21 10 -6 14 -10 8 -10 -17 0 -45 25 -44 40 0 10 2 11 6 1
2 -6 10 -9 15 -6z m-493 -5 c11 -7 11 -10 0 -17 -7 -4 -14 -3 -17 4 -2 7 -8
10 -13 6 -5 -3 -9 0 -9 5 0 13 20 14 39 2z m238 -6 c0 -5 -10 -11 -22 -11 -12
-1 -22 4 -22 11 0 7 10 12 22 11 12 0 22 -5 22 -11z m747 6 c3 -5 -1 -11 -9
-14 -9 -4 -12 -1 -8 9 6 16 10 17 17 5z m316 3 c0 -2 -15 -11 -32 -20 -33 -16
-33 -16 -13 3 17 17 45 27 45 17z m-842 -22 c2 -7 -1 -12 -8 -12 -6 0 -9 4 -6
9 4 5 1 12 -4 14 -6 3 -5 4 2 3 6 -1 14 -8 16 -14z m-1006 -10 c-7 -2 -9 -8
-6 -14 4 -6 -2 -5 -15 1 -25 14 -28 23 -4 14 11 -4 14 -3 9 5 -5 8 -1 10 10 5
11 -4 13 -8 6 -11z m895 4 c0 -8 -6 -12 -15 -9 -11 5 -11 7 0 14 7 5 13 9 14
9 0 0 1 -6 1 -14z m398 4 c-3 -5 -12 -10 -18 -10 -7 0 -6 4 3 10 19 12 23 12
15 0z m-1049 -16 c18 -14 18 -15 -4 -4 -12 6 -28 8 -34 4 -7 -4 -8 -3 -4 4 10
16 18 15 42 -4z m484 1 c0 -11 -29 -11 -33 -1 -4 10 1 12 14 9 10 -3 19 -7 19
-8z m281 -15 c22 12 23 12 10 -4 -13 -15 -13 -19 0 -27 9 -5 10 -9 2 -9 -6 0
-15 5 -18 11 -4 6 -14 8 -22 5 -8 -3 -11 -1 -8 4 3 6 -1 13 -9 16 -9 3 -16 13
-16 21 0 11 5 9 18 -7 16 -20 21 -21 43 -10z m484 20 c-3 -5 -12 -10 -18 -10
-7 0 -6 4 3 10 19 12 23 12 15 0z m108 -3 c4 3 7 1 7 -5 0 -17 -16 -15 -31 6
-12 15 -12 16 2 5 9 -7 19 -10 22 -6z m-1482 -14 c13 -15 12 -15 -7 -5 -12 6
-25 8 -29 4 -5 -4 -5 -1 -1 6 10 16 21 15 37 -5z m359 7 c8 -5 12 -11 9 -14
-3 -3 -14 1 -25 9 -21 16 -8 20 16 5z m457 -11 c2 -16 -1 -18 -11 -10 -7 6
-15 10 -17 8 -2 -1 2 4 10 11 8 6 15 12 16 12 0 0 1 -9 2 -21z m-993 3 c3 -5
-1 -9 -9 -9 -8 0 -12 4 -9 9 3 4 7 8 9 8 2 0 6 -4 9 -8z m816 -13 c0 -6 -4 -7
-10 -4 -5 3 -10 11 -10 16 0 6 5 7 10 4 6 -3 10 -11 10 -16z m78 7 c-7 -8 -17
-12 -22 -9 -4 3 -2 9 5 14 22 13 31 11 17 -5z m319 -6 c-1 -13 -6 -19 -15 -15
-7 3 -16 5 -20 5 -5 0 29 29 35 30 1 0 1 -9 0 -20z m488 10 c-3 -5 -12 -10
-18 -10 -7 0 -6 4 3 10 19 12 23 12 15 0z m105 -5 c-7 -8 -18 -15 -24 -15 -6
0 -2 7 8 15 25 19 32 19 16 0z m-1660 -10 c0 -1 -11 -5 -25 -7 -20 -4 -23 -2
-14 8 8 10 39 10 39 -1z m-105 -4 c3 -5 1 -12 -5 -16 -5 -3 -10 1 -10 9 0 18
6 21 15 7z m682 -5 c0 -8 -6 -12 -15 -9 -11 5 -11 7 0 14 7 5 13 9 14 9 0 0 1
-6 1 -14z m751 -16 c-2 -6 -8 -6 -18 0 -13 9 -13 11 0 20 15 10 25 0 18 -20z
m142 10 c0 -5 -2 -10 -4 -10 -3 0 -8 5 -11 10 -3 6 -1 10 4 10 6 0 11 -4 11
-10z m140 -5 c-7 -8 -17 -12 -23 -8 -6 4 -3 9 9 14 27 11 28 11 14 -6z m120
-3 c0 -12 -3 -12 -15 -2 -8 7 -15 13 -15 15 0 1 7 2 15 2 8 0 15 -7 15 -15z
m-1801 -15 c0 -9 -2 -8 -6 1 -2 6 -10 9 -15 6 -7 -4 -8 -2 -4 5 9 13 26 5 25
-12z m59 -2 c-3 -3 -9 2 -12 12 -6 14 -5 15 5 6 7 -7 10 -15 7 -18z m757 5 c3
-5 2 -10 -4 -10 -5 0 -13 5 -16 10 -3 6 -2 10 4 10 5 0 13 -4 16 -10z m48 -10
c7 -26 -7 -34 -24 -13 -10 12 -10 14 -1 9 7 -4 12 -1 12 8 0 22 7 20 13 -4z
m57 10 c0 -5 -5 -10 -11 -10 -5 0 -7 5 -4 10 3 6 8 10 11 10 2 0 4 -4 4 -10z
m137 -4 c0 -8 -6 -12 -15 -9 -11 5 -11 7 0 14 7 5 13 9 14 9 0 0 1 -6 1 -14z
m-1027 -6 c0 -5 -2 -10 -4 -10 -3 0 -8 5 -11 10 -3 6 -1 10 4 10 6 0 11 -4 11
-10z m540 0 c0 -5 -5 -10 -11 -10 -5 0 -7 5 -4 10 3 6 8 10 11 10 2 0 4 -4 4
-10z m-504 -25 c-14 -14 -16 -14 -16 -2 0 9 6 17 13 20 19 7 21 -1 3 -18z
m1259 15 c-3 -5 -11 -10 -16 -10 -6 0 -7 5 -4 10 3 6 11 10 16 10 6 0 7 -4 4
-10z m145 -6 c0 -2 -7 -4 -15 -4 -8 0 -15 4 -15 10 0 5 7 7 15 4 8 -4 15 -8
15 -10z m140 6 c0 -5 -2 -10 -4 -10 -3 0 -8 5 -11 10 -3 6 -1 10 4 10 6 0 11
-4 11 -10z m120 0 c0 -5 -5 -10 -11 -10 -5 0 -7 5 -4 10 3 6 8 10 11 10 2 0 4
-4 4 -10z m-1320 -16 c0 -8 -5 -12 -10 -9 -6 4 -8 11 -5 16 9 14 15 11 15 -7z
m325 6 c3 -5 2 -10 -4 -10 -5 0 -13 5 -16 10 -3 6 -2 10 4 10 5 0 13 -4 16
-10z m275 6 c0 -2 -7 -7 -16 -10 -8 -3 -12 -2 -9 4 6 10 25 14 25 6z m-510
-26 c0 -5 -5 -10 -11 -10 -5 0 -7 5 -4 10 3 6 8 10 11 10 2 0 4 -4 4 -10z
m1170 -10 c0 -11 -4 -20 -9 -20 -5 0 -7 9 -4 20 3 11 7 20 9 20 2 0 4 -9 4
-20z m127 -2 c-3 -8 -6 -5 -6 6 -1 11 2 17 5 13 3 -3 4 -12 1 -19z m-1343 3
c11 -4 15 -10 9 -14 -5 -3 -19 0 -29 8 -20 15 -11 18 20 6z m816 -11 c0 -5 -5
-10 -11 -10 -5 0 -7 5 -4 10 3 6 8 10 11 10 2 0 4 -4 4 -10z m-463 -32 c-3 -7
-5 -2 -5 12 0 14 2 19 5 13 2 -7 2 -19 0 -25z m113 13 c0 -14 -5 -18 -20 -14
-11 3 -20 10 -20 15 0 6 7 8 15 4 8 -3 15 -1 15 4 0 6 2 10 5 10 3 0 5 -9 5
-19z m-80 -1 c0 -5 -4 -10 -10 -10 -5 0 -10 5 -10 10 0 6 5 10 10 10 6 0 10
-4 10 -10z m-370 -4 c0 -2 -9 -6 -20 -9 -11 -3 -18 -1 -14 4 5 9 34 13 34 5z
m750 -5 c0 -5 -9 -11 -19 -14 -14 -3 -18 -1 -14 9 6 15 33 19 33 5z m110 -1
c0 -5 -4 -10 -10 -10 -5 0 -10 5 -10 10 0 6 5 10 10 10 6 0 10 -4 10 -10z
m285 -18 c-8 -8 -25 10 -19 20 4 6 9 5 15 -3 4 -7 6 -15 4 -17z m110 19 c3 -6
-5 -15 -17 -22 -20 -11 -21 -10 -11 3 7 8 10 18 6 21 -3 4 -1 7 5 7 6 0 13 -4
17 -9z m-1225 -11 c0 -5 -2 -10 -4 -10 -3 0 -8 5 -11 10 -3 6 -1 10 4 10 6 0
11 -4 11 -10z m370 6 c0 -3 -4 -8 -10 -11 -5 -3 -10 -1 -10 4 0 6 5 11 10 11
6 0 10 -2 10 -4z m-846 -17 c-3 -6 -1 -15 6 -19 9 -6 6 -11 -11 -21 -21 -11
-22 -10 -12 3 7 8 10 18 7 21 -6 6 3 27 12 27 3 0 2 -5 -2 -11z m396 7 c0 -3
-4 -8 -10 -11 -5 -3 -10 -1 -10 4 0 6 5 11 10 11 6 0 10 -2 10 -4z m986 -44
c-4 -3 -14 2 -24 12 -16 18 -16 18 6 6 13 -6 21 -14 18 -18z m264 8 c0 -11 -2
-20 -4 -20 -2 0 -6 9 -9 20 -3 11 -1 20 4 20 5 0 9 -9 9 -20z m-935 0 c-3 -5
-11 -10 -16 -10 -6 0 -7 5 -4 10 3 6 11 10 16 10 6 0 7 -4 4 -10z m-395 -10
c0 -5 -5 -10 -11 -10 -5 0 -7 5 -4 10 3 6 8 10 11 10 2 0 4 -4 4 -10z m530 0
c0 -5 -4 -10 -10 -10 -5 0 -10 5 -10 10 0 6 5 10 10 10 6 0 10 -4 10 -10z
m400 2 c0 -5 -7 -9 -15 -9 -8 0 -12 4 -9 9 3 4 9 8 15 8 5 0 9 -4 9 -8z m-800
-16 c0 -2 -9 -6 -20 -9 -11 -3 -18 -1 -14 4 5 9 34 13 34 5z m-500 -10 c0 -3
-4 -8 -10 -11 -5 -3 -10 -1 -10 4 0 6 5 11 10 11 6 0 10 -2 10 -4z m530 -6 c0
-5 -2 -10 -4 -10 -3 0 -8 5 -11 10 -3 6 -1 10 4 10 6 0 11 -4 11 -10z m310 0
c0 -5 -8 -10 -17 -10 -15 0 -16 2 -3 10 19 12 20 12 20 0z m107 -12 c-3 -8 -6
-5 -6 6 -1 11 2 17 5 13 3 -3 4 -12 1 -19z m157 14 c2 -4 -4 -8 -14 -8 -10 0
-16 4 -14 8 3 4 9 8 14 8 5 0 11 -4 14 -8z m396 4 c0 -2 -7 -7 -16 -10 -8 -3
-12 -2 -9 4 6 10 25 14 25 6z m140 -6 c0 -5 -5 -10 -11 -10 -5 0 -7 5 -4 10 3
6 8 10 11 10 2 0 4 -4 4 -10z m-1200 -9 c0 -5 -7 -12 -16 -15 -14 -5 -15 -4
-4 9 14 17 20 19 20 6z m245 -1 c3 -6 -1 -7 -9 -4 -18 7 -21 14 -7 14 6 0 13
-4 16 -10z m-604 -23 c-10 -9 -11 -8 -5 6 3 10 9 15 12 12 3 -3 0 -11 -7 -18z
m108 -29 c8 -2 21 -9 30 -16 9 -7 32 -23 51 -35 31 -20 35 -28 38 -72 2 -31 9
-53 20 -62 16 -12 16 -13 0 -7 -13 4 -18 1 -18 -11 0 -9 -4 -14 -9 -11 -5 3
-8 35 -7 71 l2 65 -69 41 c-39 22 -77 37 -84 35 -8 -3 -11 -1 -8 4 3 5 -3 15
-15 22 -11 7 -20 16 -20 21 0 4 17 -4 38 -17 20 -14 43 -26 51 -28z m-109 2
c6 0 8 -5 5 -11 -8 -13 -35 19 -34 41 0 8 4 5 9 -7 5 -13 14 -23 20 -23z m814
31 c3 -5 -3 -11 -15 -14 -16 -4 -18 -3 -8 9 13 16 16 17 23 5z m806 -1 c0 -5
-5 -10 -11 -10 -5 0 -7 5 -4 10 3 6 8 10 11 10 2 0 4 -4 4 -10z m130 -3 c0 -8
-7 -14 -15 -14 -11 0 -12 4 -4 14 6 7 13 13 15 13 2 0 4 -6 4 -13z m-1565 -7
c3 -6 -1 -7 -9 -4 -18 7 -21 14 -7 14 6 0 13 -4 16 -10z m175 0 c0 -5 -5 -10
-11 -10 -5 0 -7 5 -4 10 3 6 8 10 11 10 2 0 4 -4 4 -10z m180 -13 c0 -2 -8 -3
-18 -4 -10 -1 -19 5 -19 12 0 10 5 11 19 4 10 -5 18 -11 18 -12z m146 4 c0
-12 -6 -17 -18 -13 -23 6 -23 19 0 25 9 3 17 5 17 6 1 0 1 -7 1 -18z m264 9
c0 -5 -7 -10 -15 -10 -8 0 -15 5 -15 10 0 6 7 10 15 10 8 0 15 -4 15 -10z
m140 0 c0 -5 -4 -10 -10 -10 -5 0 -10 5 -10 10 0 6 5 10 10 10 6 0 10 -4 10
-10z m260 2 c0 -5 -7 -9 -15 -9 -8 0 -12 4 -9 9 3 4 9 8 15 8 5 0 9 -4 9 -8z
m140 -2 c0 -5 -4 -10 -10 -10 -5 0 -10 5 -10 10 0 6 5 10 10 10 6 0 10 -4 10
-10z m-1190 -5 c0 -2 -10 -10 -22 -16 -21 -11 -22 -11 -9 4 13 16 31 23 31 12z
m153 -1 c11 -11 -3 -24 -18 -18 -8 4 -12 10 -9 15 6 11 18 12 27 3z m829 -22
c11 -13 8 -12 -19 2 -18 9 -33 18 -33 20 0 9 41 -8 52 -22z m299 15 c-6 -8 -9
-16 -7 -18 2 -2 -7 -5 -20 -5 -13 -1 -24 2 -24 8 0 5 4 7 9 4 4 -3 17 1 27 9
24 18 30 19 15 2z m-831 -17 c-14 -11 -29 -20 -35 -20 -5 0 1 9 15 20 14 11
30 20 35 20 6 0 -1 -9 -15 -20z m120 11 c0 -5 -7 -11 -14 -14 -10 -4 -13 -1
-9 9 6 15 23 19 23 5z m808 -4 c8 -10 6 -13 -7 -13 -10 0 -18 6 -18 13 0 7 4
13 7 13 4 0 12 -6 18 -13z m-1754 -21 c-6 -15 -28 -16 -41 -1 -4 4 -3 5 3 2 7
-4 15 0 18 9 3 8 10 13 15 9 6 -3 8 -12 5 -19z m456 20 c0 -2 -7 -6 -15 -10
-8 -3 -15 -1 -15 4 0 6 7 10 15 10 8 0 15 -2 15 -4z m110 -11 c0 -8 -4 -15
-10 -15 -5 0 -10 7 -10 15 0 8 5 15 10 15 6 0 10 -7 10 -15z m-240 1 c0 -2 -7
-7 -16 -10 -8 -3 -12 -2 -9 4 6 10 25 14 25 6z m37 -10 c-8 -21 4 -28 22 -13
14 10 14 10 3 -5 -10 -13 -10 -17 0 -21 7 -3 8 -6 2 -6 -6 -1 -20 7 -32 17
-16 14 -18 22 -10 30 16 16 21 15 15 -2z m205 -22 c-12 -8 -20 -19 -17 -24 3
-4 -4 -6 -15 -3 -11 3 -20 10 -20 15 0 5 4 6 10 3 5 -3 20 3 32 14 12 12 24
18 27 16 2 -3 -5 -12 -17 -21z m118 16 c0 -5 -7 -10 -16 -10 -8 0 -12 5 -9 10
3 6 10 10 16 10 5 0 9 -4 9 -10z m217 -4 c0 -8 -6 -12 -15 -9 -11 5 -11 7 0
14 7 5 13 9 14 9 0 0 1 -6 1 -14z m113 -8 c0 -5 -9 -4 -20 2 -11 6 -20 12 -20
14 0 2 9 2 20 -1 11 -3 20 -9 20 -15z m-245 3 c-7 -13 32 -34 50 -27 9 3 12 0
8 -10 -3 -8 -8 -12 -11 -10 -3 3 -11 1 -19 -6 -7 -6 -16 -8 -20 -4 -3 3 -1 6
5 6 18 0 14 14 -7 27 -17 10 -27 9 -60 -11 -23 -12 -39 -26 -36 -29 3 -4 2 -5
-1 -3 -13 9 -7 17 36 45 47 31 65 38 55 22z m529 1 c2 -4 -4 -8 -14 -8 -10 0
-16 4 -14 8 3 4 9 8 14 8 5 0 11 -4 14 -8z m156 -28 c0 -2 -13 2 -30 11 -16 9
-30 18 -30 21 0 2 14 -2 30 -11 17 -9 30 -18 30 -21z m245 26 c3 -6 -1 -7 -9
-4 -18 7 -21 14 -7 14 6 0 13 -4 16 -10z m153 2 c15 11 15 11 5 -3 -7 -9 -9
-19 -5 -24 4 -4 -8 0 -25 9 -18 9 -33 19 -33 22 0 2 9 0 21 -6 15 -9 24 -8 37
2z m-1828 -6 c0 -2 -7 -7 -16 -10 -8 -3 -12 -2 -9 4 6 10 25 14 25 6z m617
-16 c-1 -20 -9 -25 -20 -13 -4 3 -2 12 4 20 15 18 18 17 16 -7z m898 11 c3 -6
-5 -15 -17 -21 -21 -10 -21 -10 -6 3 10 8 15 17 11 20 -3 4 -4 7 0 7 3 0 8 -4
12 -9z m-1490 -11 c-3 -5 -12 -10 -18 -10 -7 0 -6 4 3 10 19 12 23 12 15 0z
m130 0 c3 -5 2 -10 -4 -10 -5 0 -13 5 -16 10 -3 6 -2 10 4 10 5 0 13 -4 16
-10z m914 -26 c14 -12 -19 -1 -35 12 -18 14 -18 14 6 3 14 -6 27 -13 29 -15z
m-124 6 c3 -5 -1 -10 -9 -10 -9 0 -16 5 -16 10 0 6 4 10 9 10 6 0 13 -4 16
-10z m255 0 c0 -5 -4 -10 -10 -10 -5 0 -10 5 -10 10 0 6 5 10 10 10 6 0 10 -4
10 -10z m150 0 c0 -5 -7 -10 -15 -10 -8 0 -15 5 -15 10 0 6 7 10 15 10 8 0 15
-4 15 -10z m57 -12 c-3 -8 -6 -5 -6 6 -1 11 2 17 5 13 3 -3 4 -12 1 -19z m193
12 c0 -5 -7 -10 -16 -10 -8 0 -12 5 -9 10 3 6 10 10 16 10 5 0 9 -4 9 -10z
m150 5 c0 -2 -15 -12 -32 -21 l-33 -16 20 20 c18 19 45 29 45 17z m-1849 -29
c-4 -6 -9 -50 -10 -99 l-1 -87 33 -20 c17 -11 52 -30 77 -42 25 -13 48 -27 51
-32 4 -5 13 -5 20 -1 8 5 11 4 6 -1 -12 -13 -65 -11 -60 2 2 6 -11 17 -29 25
-18 7 -46 22 -61 33 -23 17 -30 18 -37 7 -12 -21 -16 16 -12 130 3 75 6 96 17
96 9 0 11 -5 6 -11z m324 -32 c0 -22 5 -38 11 -37 6 1 11 -4 11 -12 0 -8 -5
-13 -11 -12 -6 1 -11 -13 -11 -30 -1 -18 3 -33 8 -33 4 0 5 -6 0 -12 -13 -21
-15 -59 -3 -73 8 -10 5 -13 -14 -11 -16 0 -21 5 -16 12 11 13 15 228 5 244 -5
8 -3 11 6 8 9 -3 14 -20 14 -44z m215 32 c-7 -7 -13 -7 -20 0 -6 6 -3 10 10
10 13 0 16 -4 10 -10z m175 -16 c3 -5 2 -10 -4 -10 -5 0 -13 5 -16 10 -3 6 -2
10 4 10 5 0 13 -4 16 -10z m255 -1 c0 -3 -9 -9 -19 -12 -13 -3 -18 0 -15 7 5
13 34 18 34 5z m145 2 c3 -5 1 -12 -4 -15 -5 -3 -11 1 -15 9 -6 16 9 21 19 6z
m115 5 c0 -3 -4 -8 -10 -11 -5 -3 -10 -1 -10 4 0 6 5 11 10 11 6 0 10 -2 10
-4z m135 -14 c-3 -3 -11 0 -18 7 -9 10 -8 11 6 5 10 -3 15 -9 12 -12z m145 8
c0 -5 -2 -10 -4 -10 -3 0 -8 5 -11 10 -3 6 -1 10 4 10 6 0 11 -4 11 -10z m265
0 c-3 -5 -12 -10 -18 -10 -7 0 -6 4 3 10 19 12 23 12 15 0z m140 0 c3 -5 2
-10 -4 -10 -5 0 -13 5 -16 10 -3 6 -2 10 4 10 5 0 13 -4 16 -10z m-1160 -10
c-3 -5 -2 -10 2 -10 5 0 9 -9 9 -20 0 -11 -6 -20 -13 -20 -7 0 -11 11 -9 28 4
32 4 32 12 32 3 0 2 -4 -1 -10z m50 0 c-3 -5 -11 -10 -16 -10 -6 0 -7 5 -4 10
3 6 11 10 16 10 6 0 7 -4 4 -10z m-550 -10 c3 -5 1 -10 -4 -10 -6 0 -11 5 -11
10 0 6 2 10 4 10 3 0 8 -4 11 -10z m185 -15 c0 -8 -4 -15 -10 -15 -5 0 -7 7
-4 15 4 8 8 15 10 15 2 0 4 -7 4 -15z m733 -5 c-3 -11 -11 -20 -17 -20 -6 0
-12 9 -12 20 0 12 7 20 17 20 12 0 16 -6 12 -20z m400 0 c-3 -11 -9 -20 -13
-20 -5 0 -6 9 -3 20 3 11 9 20 13 20 5 0 6 -9 3 -20z m267 -6 c0 -2 -9 0 -20
6 -11 6 -20 13 -20 16 0 2 9 0 20 -6 11 -6 20 -13 20 -16z m-805 6 c3 -5 2
-10 -4 -10 -5 0 -13 5 -16 10 -3 6 -2 10 4 10 5 0 13 -4 16 -10z m265 0 c0 -5
-5 -10 -11 -10 -5 0 -7 5 -4 10 3 6 8 10 11 10 2 0 4 -4 4 -10z m400 0 c0 -5
-5 -10 -11 -10 -5 0 -7 5 -4 10 3 6 8 10 11 10 2 0 4 -4 4 -10z m-877 -33 c4
3 7 2 7 -4 0 -9 -21 -23 -34 -23 -1 0 -2 9 -2 19 0 14 4 17 12 11 6 -6 14 -7
17 -3z m397 1 c0 -5 6 -6 13 -2 8 5 7 2 -2 -9 -8 -10 -14 -16 -15 -15 -1 2 -7
10 -14 19 -9 13 -9 16 3 16 8 0 15 -4 15 -9z m-510 -8 c0 -5 -4 -10 -10 -10
-5 0 -10 5 -10 10 0 6 5 10 10 10 6 0 10 -4 10 -10z m400 -6 c0 -8 -5 -12 -10
-9 -6 4 -8 11 -5 16 9 14 15 11 15 -7z m400 0 c0 -8 -5 -12 -10 -9 -6 4 -8 11
-5 16 9 14 15 11 15 -7z m115 -5 c-10 -15 -25 -10 -19 6 4 8 10 12 15 9 5 -3
7 -10 4 -15z m295 16 c0 -2 -8 -9 -18 -14 -14 -7 -19 -6 -19 3 0 6 9 13 19 13
10 1 18 0 18 -2z m-1480 -15 c0 -5 -2 -10 -4 -10 -3 0 -8 5 -11 10 -3 6 -1 10
4 10 6 0 11 -4 11 -10z m-180 -14 c0 -3 -4 -8 -10 -11 -5 -3 -10 -1 -10 4 0 6
5 11 10 11 6 0 10 -2 10 -4z m510 -12 c-6 -6 -7 -13 -4 -16 2 -3 -2 -8 -9 -11
-10 -4 -14 2 -14 18 0 17 5 23 18 22 12 -1 15 -5 9 -13z m-380 -94 c5 0 21 -5
35 -10 23 -9 25 -13 15 -25 -16 -19 -31 -20 -24 -1 3 8 -6 18 -24 25 -22 9
-28 18 -27 35 2 13 -1 29 -5 36 -4 7 -3 18 3 25 9 10 13 1 15 -36 2 -27 7 -49
12 -49z m260 96 c0 -2 -7 -7 -16 -10 -8 -3 -12 -2 -9 4 6 10 25 14 25 6z m400
0 c0 -2 -7 -7 -16 -10 -8 -3 -12 -2 -9 4 6 10 25 14 25 6z m390 -6 c0 -5 -5
-10 -11 -10 -5 0 -7 5 -4 10 3 6 8 10 11 10 2 0 4 -4 4 -10z m405 0 c-3 -5
-11 -10 -16 -10 -6 0 -7 5 -4 10 3 6 11 10 16 10 6 0 7 -4 4 -10z m-628 -57
c-3 -10 -5 -4 -5 12 0 17 2 24 5 18 2 -7 2 -21 0 -30z m-640 13 c0 -8 -6 -12
-15 -9 -11 5 -11 7 0 14 7 5 13 9 14 9 0 0 1 -6 1 -14z m233 4 c0 -5 -2 -10
-4 -10 -3 0 -8 5 -11 10 -3 6 -1 10 4 10 6 0 11 -4 11 -10z m160 -4 c-7 -7
-13 -7 -20 0 -6 6 -3 10 10 10 13 0 16 -4 10 -10z m405 4 c-3 -5 -12 -10 -18
-10 -7 0 -6 4 3 10 19 12 23 12 15 0z m250 0 c3 -5 1 -10 -4 -10 -6 0 -11 5
-11 10 0 6 2 10 4 10 3 0 8 -4 11 -10z m150 0 c-3 -5 -12 -10 -18 -10 -7 0 -6
4 3 10 19 12 23 12 15 0z m-1070 -10 c-3 -5 -11 -10 -16 -10 -6 0 -7 5 -4 10
3 6 11 10 16 10 6 0 7 -4 4 -10z m55 0 c0 -5 -5 -10 -11 -10 -5 0 -7 5 -4 10
3 6 8 10 11 10 2 0 4 -4 4 -10z m-495 -77 c9 4 11 -1 8 -14 -7 -25 -23 -24
-30 2 -4 12 -11 18 -20 15 -8 -3 -12 -2 -8 3 3 5 -1 11 -7 14 -8 2 -9 8 -4 13
5 5 11 4 13 -3 3 -7 9 -13 14 -13 6 0 9 6 8 13 -1 6 0 19 1 27 2 8 5 -2 7 -23
3 -27 8 -37 18 -34z m1584 51 c4 3 8 0 8 -7 0 -7 -8 -13 -18 -13 -10 0 -16 2
-14 5 3 2 -3 10 -13 18 -15 13 -15 13 6 3 12 -6 26 -9 31 -6z m-1344 -4 c-3
-5 -12 -10 -18 -10 -7 0 -6 4 3 10 19 12 23 12 15 0z m127 -5 c0 -5 -5 -11
-10 -13 -5 -1 -9 4 -9 13 0 9 4 14 9 13 5 -2 10 -8 10 -13z m128 11 c0 -3 -4
-8 -10 -11 -5 -3 -10 -1 -10 4 0 6 5 11 10 11 6 0 10 -2 10 -4z m147 -11 c0
-15 -35 -13 -41 1 -3 7 4 11 18 10 12 0 23 -6 23 -11z m125 0 c0 -5 -5 -11
-10 -13 -5 -1 -9 4 -9 13 0 9 4 14 9 13 5 -2 10 -8 10 -13z m428 8 c0 -1 -15
-10 -32 -19 -27 -14 -31 -14 -21 -2 7 8 10 17 7 20 -3 3 6 5 20 4 14 0 26 -2
26 -3z m121 -10 c11 -15 11 -16 -1 -6 -9 9 -19 9 -34 2 -20 -10 -20 -10 -2 5
24 19 21 20 37 -1z m122 -17 c-4 -6 -8 -5 -11 2 -2 7 -9 9 -15 5 -7 -4 -6 1 2
11 11 13 16 14 22 4 4 -6 5 -17 2 -22z m-568 8 c-31 -24 -78 -47 -70 -35 6 10
74 50 85 50 3 0 -4 -7 -15 -15z m165 8 c0 -5 -7 -9 -15 -9 -8 0 -12 4 -9 9 3
4 9 8 15 8 5 0 9 -4 9 -8z m-601 -32 c-21 -14 -32 1 -12 15 12 9 19 10 22 3 2
-6 -3 -14 -10 -18z m106 20 c3 -5 1 -10 -4 -10 -6 0 -11 5 -11 10 0 6 2 10 4
10 3 0 8 -4 11 -10z m419 -6 c23 -9 20 -23 -4 -17 -11 3 -20 9 -20 14 0 11 3
11 24 3z m296 -3 c0 -11 -31 -24 -39 -16 -3 3 1 10 9 15 19 12 30 12 30 1z
m120 -12 c0 -4 -7 -6 -15 -3 -8 4 -15 10 -15 15 0 4 7 6 15 3 8 -4 15 -10 15
-15z m266 -1 c-10 -6 -20 -7 -24 -3 -9 8 20 25 31 18 5 -3 2 -10 -7 -15z
m-1873 -3 c-3 -9 -8 -14 -10 -11 -3 3 -2 9 2 15 9 16 15 13 8 -4z m807 5 c0
-5 -2 -10 -4 -10 -3 0 -8 5 -11 10 -3 6 -1 10 4 10 6 0 11 -4 11 -10z m-258
-17 c15 -14 23 -15 38 -6 15 10 19 9 22 -5 4 -14 -2 -17 -28 -18 -18 0 -31 3
-28 7 2 4 -6 15 -18 23 -12 9 -18 16 -14 16 5 0 18 -8 28 -17z m182 6 c-7 -12
-41 -16 -41 -5 0 6 10 11 23 11 12 0 20 -3 18 -6z m211 1 c3 -6 -1 -7 -9 -4
-18 7 -21 14 -7 14 6 0 13 -4 16 -10z m400 0 c3 -6 -1 -7 -9 -4 -18 7 -21 14
-7 14 6 0 13 -4 16 -10z m400 0 c3 -6 -1 -7 -9 -4 -18 7 -21 14 -7 14 6 0 13
-4 16 -10z m-1261 -31 c-6 -11 -44 8 -44 21 0 6 10 5 25 -2 13 -6 22 -15 19
-19z m361 21 c3 -5 1 -10 -4 -10 -6 0 -11 5 -11 10 0 6 2 10 4 10 3 0 8 -4 11
-10z m302 -4 c0 -8 -6 -12 -15 -9 -11 5 -11 7 0 14 7 5 13 9 14 9 0 0 1 -6 1
-14z m388 -4 c-3 -3 -11 0 -18 7 -9 10 -8 11 6 5 10 -3 15 -9 12 -12z m-1160
-2 c3 -6 -1 -7 -9 -4 -18 7 -21 14 -7 14 6 0 13 -4 16 -10z m642 -5 c0 -8 -4
-12 -8 -9 -5 3 -19 0 -31 -6 -21 -10 -21 -10 2 9 30 25 37 26 37 6z m248 5 c4
-6 10 -8 15 -5 4 3 11 -2 14 -10 5 -13 2 -13 -24 0 -30 16 -38 25 -21 25 6 0
13 -5 16 -10z m152 -3 c0 -15 -32 -16 -44 -2 -5 4 -3 6 2 2 6 -3 17 -2 25 4 8
5 15 9 16 9 0 0 1 -6 1 -13z m265 -1 c3 2 8 -2 12 -11 5 -13 2 -14 -14 -5 -11
6 -25 8 -30 5 -6 -3 -7 1 -4 10 5 11 10 13 19 5 6 -5 14 -7 17 -4z m138 9 c0
-2 -9 -9 -19 -15 -14 -7 -22 -7 -27 2 -4 6 -3 8 4 4 6 -3 13 -2 17 4 6 10 25
14 25 5z m-930 -11 c0 -8 -19 -13 -24 -6 -3 5 1 9 9 9 8 0 15 -2 15 -3z m-485
-14 c3 -5 1 -10 -4 -10 -6 0 -11 5 -11 10 0 6 2 10 4 10 3 0 8 -4 11 -10z
m261 -9 c0 -15 -3 -17 -18 -7 -17 10 -17 11 0 18 9 3 17 7 17 7 1 1 1 -7 1
-18z m141 3 c0 -17 -8 -18 -30 -1 -16 11 -15 12 6 13 14 1 24 -4 24 -12z
m-637 -9 c0 -8 -4 -15 -9 -15 -13 0 -22 16 -14 24 11 11 23 6 23 -9z m350 5
c0 -5 -7 -7 -15 -4 -8 4 -15 8 -15 10 0 2 7 4 15 4 8 0 15 -4 15 -10z m950 -6
c0 -8 -5 -12 -10 -9 -6 4 -8 11 -5 16 9 14 15 11 15 -7z m140 -5 c0 -14 -17
-10 -23 5 -4 10 -1 13 9 9 7 -3 14 -9 14 -14z m260 8 c0 -8 -7 -14 -15 -14
-11 0 -12 4 -4 14 6 7 13 13 15 13 2 0 4 -6 4 -13z m-930 -11 c-7 -7 -13 -7
-20 0 -6 6 -3 10 10 10 13 0 16 -4 10 -10z m130 4 c0 -5 -2 -10 -4 -10 -3 0
-8 5 -11 10 -3 6 -1 10 4 10 6 0 11 -4 11 -10z m140 0 c0 -5 -4 -10 -10 -10
-5 0 -10 5 -10 10 0 6 5 10 10 10 6 0 10 -4 10 -10z m-615 -21 c-10 -15 -25
-10 -19 6 4 8 10 12 15 9 5 -3 7 -10 4 -15z m-455 7 c0 -11 -19 -15 -25 -6 -3
5 1 10 9 10 9 0 16 -2 16 -4z m110 -10 c0 -3 -4 -8 -10 -11 -5 -3 -10 -1 -10
4 0 6 5 11 10 11 6 0 10 -2 10 -4z m630 -18 c0 -6 -6 -5 -15 2 -8 7 -15 14
-15 16 0 2 7 1 15 -2 8 -4 15 -11 15 -16z m120 7 c-7 -9 -15 -13 -19 -10 -3 3
1 10 9 15 21 14 24 12 10 -5z m400 0 c-7 -9 -15 -13 -19 -10 -3 3 1 10 9 15
21 14 24 12 10 -5z m-260 -5 c0 -5 -2 -10 -4 -10 -3 0 -8 5 -11 10 -3 6 -1 10
4 10 6 0 11 -4 11 -10z m145 0 c3 -5 2 -10 -4 -10 -5 0 -13 5 -16 10 -3 6 -2
10 4 10 5 0 13 -4 16 -10z m255 0 c0 -5 -2 -10 -4 -10 -3 0 -8 5 -11 10 -3 6
-1 10 4 10 6 0 11 -4 11 -10z m145 0 c3 -5 1 -10 -4 -10 -6 0 -11 5 -11 10 0
6 2 10 4 10 3 0 8 -4 11 -10z m110 0 c-3 -5 -11 -10 -16 -10 -6 0 -7 5 -4 10
3 6 11 10 16 10 6 0 7 -4 4 -10z m-1255 -4 c0 -11 -19 -15 -25 -6 -3 5 1 10 9
10 9 0 16 -2 16 -4z m-135 -16 c3 -5 1 -10 -4 -10 -6 0 -11 5 -11 10 0 6 2 10
4 10 3 0 8 -4 11 -10z m265 6 c0 -3 -4 -8 -10 -11 -5 -3 -10 -1 -10 4 0 6 5
11 10 11 6 0 10 -2 10 -4z m-495 -16 c-3 -5 -11 -10 -16 -10 -6 0 -7 5 -4 10
3 6 11 10 16 10 6 0 7 -4 4 -10z m1165 0 c0 -5 -2 -10 -4 -10 -3 0 -8 5 -11
10 -3 6 -1 10 4 10 6 0 11 -4 11 -10z m400 -10 c0 -11 -2 -20 -4 -20 -2 0 -6
9 -9 20 -3 11 -1 20 4 20 5 0 9 -9 9 -20z m-1616 1 c11 -4 15 -10 10 -13 -5
-4 -18 0 -29 8 -20 15 -12 17 19 5z m470 -23 c-10 -16 -22 -7 -17 13 4 15 8
17 14 8 4 -7 5 -17 3 -21z m876 22 c0 -5 -5 -10 -11 -10 -5 0 -7 5 -4 10 3 6
8 10 11 10 2 0 4 -4 4 -10z m400 0 c0 -5 -5 -10 -11 -10 -5 0 -7 5 -4 10 3 6
8 10 11 10 2 0 4 -4 4 -10z m-530 -20 c0 -5 -2 -10 -4 -10 -3 0 -8 5 -11 10
-3 6 -1 10 4 10 6 0 11 -4 11 -10z m-780 -15 c0 -2 -9 -9 -20 -15 -12 -6 -20
-7 -20 -1 0 5 8 12 18 14 9 3 18 5 20 6 1 0 2 -1 2 -4z m320 -5 c0 -5 -2 -10
-4 -10 -3 0 -8 5 -11 10 -3 6 -1 10 4 10 6 0 11 -4 11 -10z m55 0 c3 -5 1 -10
-4 -10 -6 0 -11 5 -11 10 0 6 2 10 4 10 3 0 8 -4 11 -10z m65 6 c0 -3 -4 -8
-10 -11 -5 -3 -10 -1 -10 4 0 6 5 11 10 11 6 0 10 -2 10 -4z m297 -11 c0 -6
-6 -12 -14 -12 -7 0 -13 6 -13 12 0 6 6 12 13 12 8 0 14 -6 14 -12z m107 -1
c3 -7 -4 -11 -18 -10 -12 0 -23 6 -23 11 0 15 35 13 41 -1z m276 6 c0 -5 -4
-10 -10 -10 -5 0 -10 5 -10 10 0 6 5 10 10 10 6 0 10 -4 10 -10z m125 0 c3 -5
-1 -10 -9 -10 -9 0 -16 5 -16 10 0 6 4 10 9 10 6 0 13 -4 16 -10z m-1638 -32
c-3 -8 -6 -5 -6 6 -1 11 2 17 5 13 3 -3 4 -12 1 -19z m713 2 c0 -5 -5 -10 -11
-10 -5 0 -7 5 -4 10 3 6 8 10 11 10 2 0 4 -4 4 -10z m60 0 c0 -5 -5 -10 -11
-10 -5 0 -7 5 -4 10 3 6 8 10 11 10 2 0 4 -4 4 -10z m395 -8 c-3 -3 -11 0 -18
7 -9 10 -8 11 6 5 10 -3 15 -9 12 -12z m405 -2 c0 -11 -4 -20 -9 -20 -5 0 -7
9 -4 20 3 11 7 20 9 20 2 0 4 -9 4 -20z m-1205 0 c3 -5 -1 -10 -10 -10 -9 0
-13 5 -10 10 3 6 8 10 10 10 2 0 7 -4 10 -10z m1075 0 c0 -5 -5 -10 -11 -10
-5 0 -7 5 -4 10 3 6 8 10 11 10 2 0 4 -4 4 -10z m260 0 c0 -5 -2 -10 -4 -10
-3 0 -8 5 -11 10 -3 6 -1 10 4 10 6 0 11 -4 11 -10z m-400 -10 c0 -5 -2 -10
-4 -10 -3 0 -8 5 -11 10 -3 6 -1 10 4 10 6 0 11 -4 11 -10z m-125 -10 c3 -5 1
-10 -4 -10 -6 0 -11 5 -11 10 0 6 2 10 4 10 3 0 8 -4 11 -10z m-750 -10 c3 -5
1 -10 -4 -10 -6 0 -11 5 -11 10 0 6 2 10 4 10 3 0 8 -4 11 -10z m355 -16 c0
-2 -9 -4 -21 -4 -11 0 -18 4 -14 10 5 8 35 3 35 -6z m120 6 c0 -5 -2 -10 -4
-10 -3 0 -8 5 -11 10 -3 6 -1 10 4 10 6 0 11 -4 11 -10z m460 -5 c0 -2 -6 -5
-13 -8 -8 -3 -14 1 -14 8 0 7 6 11 14 8 7 -3 13 -6 13 -8z m265 5 c3 -5 2 -10
-4 -10 -5 0 -13 5 -16 10 -3 6 -2 10 4 10 5 0 13 -4 16 -10z m-1670 -10 c-27
-12 -43 -12 -25 0 8 5 22 9 30 9 10 0 8 -3 -5 -9z m1152 -12 c-3 -8 -6 -5 -6
6 -1 11 2 17 5 13 3 -3 4 -12 1 -19z m-1107 2 c0 -5 -2 -10 -4 -10 -3 0 -8 5
-11 10 -3 6 -1 10 4 10 6 0 11 -4 11 -10z m950 -4 c-7 -7 -13 -7 -20 0 -6 6
-3 10 10 10 13 0 16 -4 10 -10z m-1044 -11 c-1 -8 -5 -17 -8 -21 -5 -4 -4 16
1 34 3 9 9 -1 7 -13z m577 -40 c17 5 18 4 8 -4 -12 -8 -9 -13 17 -28 18 -10
32 -21 32 -25 0 -5 7 -8 15 -8 8 0 15 -5 15 -11 0 -5 4 -8 9 -5 5 4 7 -4 3
-16 -5 -21 -6 -21 -13 -2 -3 11 -25 29 -48 39 -22 11 -41 26 -41 33 0 7 -4 10
-10 7 -5 -3 -20 1 -33 10 -13 8 -27 12 -32 8 -4 -5 -5 -3 -2 3 4 7 -5 17 -22
23 -25 11 -34 9 -82 -20 -30 -17 -56 -34 -59 -38 -10 -13 -90 -44 -97 -38 -3
4 1 7 10 7 9 0 17 5 17 10 0 6 6 10 13 10 6 1 48 22 92 49 l80 48 53 -29 c35
-19 60 -27 75 -23z m227 45 c0 -5 -5 -10 -11 -10 -5 0 -7 5 -4 10 3 6 8 10 11
10 2 0 4 -4 4 -10z m115 0 c3 -5 1 -10 -4 -10 -6 0 -11 5 -11 10 0 6 2 10 4
10 3 0 8 -4 11 -10z m483 -10 c-6 -8 -18 -16 -29 -16 -17 0 -17 1 -1 16 23 22
44 22 30 0z m-534 2 c2 -4 -4 -8 -14 -8 -10 0 -16 4 -14 8 3 4 9 8 14 8 5 0
11 -4 14 -8z m455 -33 c39 -23 78 -39 86 -35 9 3 12 0 9 -8 -7 -19 40 -38 57
-23 7 7 6 3 -3 -8 -12 -14 -16 -38 -15 -82 1 -35 5 -63 9 -63 4 0 2 -14 -4
-30 -5 -17 -8 -39 -5 -49 3 -13 -3 -22 -20 -30 -14 -7 -21 -16 -17 -23 4 -6 3
-8 -3 -5 -10 6 -42 -8 -130 -58 -24 -13 -43 -20 -43 -15 0 13 -33 21 -40 9 -5
-7 -9 -3 -12 9 -3 10 -19 27 -37 36 -17 9 -44 23 -61 32 -28 15 -48 34 -35 34
4 0 38 -18 76 -41 38 -22 74 -37 81 -33 7 4 8 3 4 -4 -3 -6 3 -16 14 -22 24
-13 65 4 54 22 -4 6 -3 8 3 5 6 -4 25 0 42 9 28 14 30 18 19 32 -11 15 -11 15
3 4 14 -11 23 -10 50 6 l34 19 3 114 3 114 -65 38 c-36 20 -70 37 -76 37 -5 0
-10 4 -10 10 0 16 -49 23 -65 10 -8 -6 -29 -19 -47 -29 -18 -9 -55 -30 -83
-46 -27 -15 -45 -22 -38 -15 9 10 98 65 190 119 1 1 33 -17 72 -40z m215 26
c-4 -8 -10 -12 -15 -9 -11 6 -2 24 11 24 5 0 7 -7 4 -15z m256 -3 c0 -12 -3
-12 -15 -2 -8 7 -15 13 -15 15 0 1 7 2 15 2 8 0 15 -7 15 -15z m-1823 -7 c0
-8 -4 -12 -9 -9 -5 3 -6 10 -3 15 9 13 12 11 12 -6z m115 -3 c-7 -2 -10 -8 -6
-13 3 -5 -2 -9 -10 -9 -9 0 -16 5 -16 10 0 6 5 10 11 10 5 0 7 4 4 10 -4 6 1
7 11 3 11 -4 13 -8 6 -11z m553 8 c-3 -5 -12 -10 -18 -10 -7 0 -6 4 3 10 19
12 23 12 15 0z m351 -9 c0 -12 -6 -17 -18 -13 -18 4 -18 5 -1 18 10 7 18 14
18 14 1 0 1 -8 1 -19z m141 5 c-13 -10 -15 -15 -5 -19 7 -2 11 -7 8 -10 -3 -3
-16 3 -30 14 -14 11 -18 17 -9 13 10 -3 20 -1 24 5 3 6 12 11 18 11 7 0 4 -7
-6 -14z m-224 -22 c-8 -20 -22 -17 -20 5 0 10 7 17 13 14 7 -3 10 -11 7 -19z
m697 6 c-29 -23 -40 -25 -40 -8 0 6 3 8 6 5 4 -3 16 0 28 8 30 22 35 18 6 -5z
m-1667 3 c-20 -8 -15 -39 9 -55 19 -13 20 -15 4 -21 -11 -5 -15 -3 -10 5 5 7
2 9 -7 6 -10 -4 -15 3 -16 21 -3 35 4 51 19 50 10 0 10 -2 1 -6z m887 -8 c0
-12 -19 -12 -23 0 -4 9 -1 12 9 8 7 -3 14 -7 14 -8z m916 -13 c-4 -3 -14 2
-24 12 -16 18 -16 18 6 6 13 -6 21 -14 18 -18z m-1716 7 c0 -5 5 -7 10 -4 6 3
10 2 10 -3 0 -5 15 -15 33 -23 17 -7 34 -16 37 -19 3 -3 22 -16 43 -29 34 -21
37 -27 37 -66 0 -36 4 -45 22 -51 38 -12 49 -29 27 -42 -24 -15 -36 -15 -21 0
8 8 9 15 1 25 -19 22 -31 14 -27 -19 3 -30 -2 -35 -57 -70 -55 -34 -115 -62
-115 -53 0 1 18 12 40 24 22 11 57 32 79 45 l40 25 -1 76 0 76 -37 22 c-20 12
-46 28 -56 35 -11 6 -35 20 -52 29 -32 16 -43 33 -23 33 6 0 10 -5 10 -11z
m672 -3 c10 6 11 4 0 -7 -10 -11 -15 -10 -30 6 -15 17 -15 18 0 6 9 -7 23 -9
30 -5z m245 -6 c-1 -20 -9 -25 -20 -13 -4 3 -2 12 4 20 15 18 18 17 16 -7z
m-752 -28 c-3 -3 -11 0 -18 7 -8 6 -21 10 -28 8 -8 -2 -11 -2 -6 0 4 3 4 9 1
15 -4 6 7 3 24 -8 17 -10 29 -20 27 -22z m35 24 c-7 -7 -13 -7 -20 0 -6 6 -3
10 10 10 13 0 16 -4 10 -10z m223 2 c3 -10 7 -10 20 1 10 7 17 9 17 3 0 -5 -7
-12 -15 -16 -18 -6 -45 2 -45 15 0 14 18 11 23 -3z m1017 8 c0 -2 -7 -6 -15
-10 -8 -3 -15 -1 -15 4 0 6 7 10 15 10 8 0 15 -2 15 -4z m-605 -24 c-3 -3 -11
0 -18 7 -9 10 -8 11 6 5 10 -3 15 -9 12 -12z m190 8 c-3 -5 -12 -10 -18 -10
-7 0 -6 4 3 10 19 12 23 12 15 0z m-310 -14 c12 -12 11 -15 -6 -19 -12 -3 -18
-3 -15 0 3 4 1 12 -5 20 -16 18 8 18 26 -1z m272 -23 c0 -7 -5 -12 -11 -10 -6
3 -10 10 -8 17 2 8 -5 9 -19 5 -19 -6 -20 -5 -8 7 16 17 46 5 46 -19z m497 8
c-2 -3 -12 3 -22 13 -16 17 -16 18 5 5 12 -7 20 -15 17 -18z m296 19 c8 -5 12
-12 9 -15 -8 -8 -39 5 -39 16 0 11 11 11 30 -1z m-1436 -22 c-5 -7 -1 -9 13
-6 11 3 20 0 20 -6 0 -6 -10 -11 -23 -11 -12 0 -20 4 -16 9 3 5 -3 6 -14 3
-18 -7 -18 -7 0 8 24 18 30 19 20 3z m191 2 c-3 -5 0 -10 7 -11 10 0 10 -2 0
-6 -6 -2 -9 -10 -6 -15 4 -7 2 -8 -5 -4 -6 4 -9 12 -6 17 8 12 -2 12 -24 0
-13 -7 -18 -6 -18 4 0 7 6 11 13 8 6 -2 15 0 19 6 3 6 11 11 16 11 6 0 7 -4 4
-10z m374 -3 c13 5 14 3 3 -8 -10 -11 -15 -10 -27 4 -8 9 -10 13 -4 8 6 -5 19
-7 28 -4z m-934 -6 c-3 -5 5 -17 17 -25 12 -9 19 -16 14 -16 -4 0 -19 9 -32
19 -17 13 -20 21 -12 24 19 8 20 8 13 -2z m200 -9 c-3 -3 -11 0 -18 7 -9 10
-8 11 6 5 10 -3 15 -9 12 -12z m1002 4 c0 -8 -6 -12 -15 -9 -11 5 -11 7 0 14
7 5 13 9 14 9 0 0 1 -6 1 -14z m136 2 c16 -12 15 -13 -6 -14 -14 -1 -24 4 -24
12 0 17 8 18 30 2z m264 -3 c0 -16 -25 -15 -31 1 -3 8 2 12 13 11 10 0 18 -6
18 -12z m150 0 c0 -6 -8 -11 -17 -11 -9 0 -17 5 -17 11 0 6 8 11 17 11 9 0 17
-5 17 -11z m-953 -4 c4 -5 -3 -7 -14 -4 -23 6 -26 13 -6 13 8 0 17 -4 20 -9z
m-503 -118 c-2 -64 -6 -98 -10 -83 -13 46 -4 190 12 190 1 0 0 -48 -2 -107z
m-361 93 c0 -2 -8 -10 -17 -17 -16 -13 -17 -12 -4 4 13 16 21 21 21 13z m703
-115 c10 -12 9 -13 -2 -7 -11 7 -13 1 -9 -28 4 -34 1 -39 -26 -52 -30 -14 -30
-14 -8 2 15 12 22 27 22 51 0 22 -4 32 -11 27 -7 -4 -7 1 1 15 6 12 11 37 10
54 -1 18 -1 39 1 47 1 8 4 -10 6 -40 3 -30 10 -61 16 -69z m92 109 c-3 -5 -11
-10 -16 -10 -6 0 -7 5 -4 10 3 6 11 10 16 10 6 0 7 -4 4 -10z m930 -8 c-3 -3
-11 0 -18 7 -9 10 -8 11 6 5 10 -3 15 -9 12 -12z m-1788 -14 c-3 -8 -6 -5 -6
6 -1 11 2 17 5 13 3 -3 4 -12 1 -19z m593 18 c0 -2 -7 -7 -16 -10 -8 -3 -12
-2 -9 4 6 10 25 14 25 6z m400 0 c0 -2 -7 -7 -16 -10 -8 -3 -12 -2 -9 4 6 10
25 14 25 6z m405 -6 c3 -6 -1 -7 -9 -4 -18 7 -21 14 -7 14 6 0 13 -4 16 -10z
m-1019 -27 c-7 -7 -26 7 -26 19 0 6 6 6 15 -2 9 -7 13 -15 11 -17z m844 16 c0
-13 -53 -20 -64 -8 -8 8 -5 9 13 4 13 -4 21 -3 18 2 -3 5 3 9 14 9 10 0 19 -3
19 -7z m-418 -35 c-3 -24 0 -39 9 -45 11 -7 11 -9 1 -9 -14 0 -15 -62 -3 -85
3 -6 -1 -3 -10 6 -10 10 -15 32 -13 58 1 25 -2 41 -10 41 -7 0 -6 3 2 9 8 4
13 17 12 27 -3 26 -1 34 8 34 4 0 6 -16 4 -36z m263 6 c3 -5 2 -10 -4 -10 -5
0 -13 5 -16 10 -3 6 -2 10 4 10 5 0 13 -4 16 -10z m400 0 c3 -5 2 -10 -4 -10
-5 0 -13 5 -16 10 -3 6 -2 10 4 10 5 0 13 -4 16 -10z m400 0 c3 -5 2 -10 -4
-10 -5 0 -13 5 -16 10 -3 6 -2 10 4 10 5 0 13 -4 16 -10z m-1815 -4 c0 -3 -4
-8 -10 -11 -5 -3 -10 -1 -10 4 0 6 5 11 10 11 6 0 10 -2 10 -4z m1240 -11 c-7
-9 -15 -13 -19 -10 -3 3 1 10 9 15 21 14 24 12 10 -5z m-1285 -4 c3 -5 1 -12
-5 -16 -5 -3 -10 1 -10 9 0 18 6 21 15 7z m362 -13 c-3 -8 -6 -5 -6 6 -1 11 2
17 5 13 3 -3 4 -12 1 -19z m1293 -15 c0 -3 -3 -3 -6 0 -4 3 -16 1 -28 -5 -18
-10 -19 -9 -9 4 7 8 9 18 5 23 -4 4 3 2 16 -4 12 -6 22 -15 22 -18z m-520 7
c0 -5 -4 -10 -10 -10 -5 0 -10 5 -10 10 0 6 5 10 10 10 6 0 10 -4 10 -10z
m110 0 c0 -5 -4 -10 -10 -10 -5 0 -10 5 -10 10 0 6 5 10 10 10 6 0 10 -4 10
-10z m280 2 c0 -5 -7 -9 -15 -9 -8 0 -12 4 -9 9 3 4 9 8 15 8 5 0 9 -4 9 -8z
m400 -4 c0 -6 -3 -8 -7 -5 -3 4 -13 1 -22 -6 -14 -11 -14 -10 -2 6 15 20 31
22 31 5z m-645 -18 c3 -5 2 -10 -4 -10 -5 0 -13 5 -16 10 -3 6 -2 10 4 10 5 0
13 -4 16 -10z m-430 -10 c3 -5 2 -10 -4 -10 -5 0 -13 5 -16 10 -3 6 -2 10 4
10 5 0 13 -4 16 -10z m215 -5 c-7 -9 -15 -13 -19 -10 -3 3 1 10 9 15 21 14 24
12 10 -5z m123 -5 c-3 -11 -7 -20 -9 -20 -2 0 -4 9 -4 20 0 11 4 20 9 20 5 0
7 -9 4 -20z m517 10 c0 -5 -2 -10 -4 -10 -3 0 -8 5 -11 10 -3 6 -1 10 4 10 6
0 11 -4 11 -10z m217 -47 c-3 -10 -5 -4 -5 12 0 17 2 24 5 18 2 -7 2 -21 0
-30z m-703 9 c2 -4 1 -14 -3 -21 -6 -9 -10 -7 -14 8 -5 20 7 29 17 13z m-84
-6 c0 -3 -4 -8 -10 -11 -5 -3 -10 -1 -10 4 0 6 5 11 10 11 6 0 10 -2 10 -4z
m250 -6 c0 -5 -4 -10 -10 -10 -5 0 -10 5 -10 10 0 6 5 10 10 10 6 0 10 -4 10
-10z m405 0 c3 -6 -1 -7 -9 -4 -18 7 -21 14 -7 14 6 0 13 -4 16 -10z m-820
-20 c3 -6 -1 -7 -9 -4 -18 7 -21 14 -7 14 6 0 13 -4 16 -10z m-120 -23 c0 -7
10 -12 22 -12 11 0 25 -4 30 -9 4 -5 3 -6 -4 -2 -7 4 -35 -5 -64 -19 -28 -15
-48 -22 -45 -17 3 5 20 15 37 22 25 11 28 15 15 22 -8 5 -13 15 -9 24 6 16 18
10 18 -9z m435 12 c0 -6 8 -8 18 -5 14 5 14 4 -2 -9 -11 -8 -25 -15 -30 -14
-6 0 -5 3 2 6 10 4 10 8 1 19 -8 10 -8 14 0 14 6 0 11 -5 11 -11z m-874 -21
c1 -10 -3 -15 -10 -12 -15 6 -17 36 -3 31 6 -2 11 -10 13 -19z m364 2 c-6 -11
-16 -20 -23 -20 -7 0 -23 -9 -35 -20 -12 -11 -27 -20 -35 -20 -7 0 -18 -5 -23
-10 -6 -6 -27 -19 -47 -29 -29 -15 -37 -16 -37 -5 0 8 3 13 8 12 17 -5 53 15
48 27 -3 8 2 11 12 9 9 -2 44 14 77 35 33 22 61 40 63 40 1 1 -2 -8 -8 -19z
m680 10 c0 -5 -4 -10 -10 -10 -5 0 -10 5 -10 10 0 6 5 10 10 10 6 0 10 -4 10
-10z m260 0 c0 -5 -4 -10 -10 -10 -5 0 -10 5 -10 10 0 6 5 10 10 10 6 0 10 -4
10 -10z m145 0 c3 -5 -1 -10 -9 -10 -9 0 -16 5 -16 10 0 6 4 10 9 10 6 0 13
-4 16 -10z m-1555 -20 c-6 -11 -12 -20 -14 -20 -2 0 -2 9 1 20 3 11 9 20 15
20 5 0 4 -9 -2 -20z m380 15 c0 -2 -15 -12 -32 -20 l-33 -16 25 20 c24 20 40
26 40 16z m369 -19 c16 -9 19 -14 10 -18 -8 -2 -22 4 -31 14 -21 21 -13 23 21
4z m575 5 c3 -5 -1 -11 -9 -14 -9 -4 -12 -1 -8 9 6 16 10 17 17 5z m313 -6 c0
-8 -4 -12 -8 -9 -5 3 -23 -2 -41 -11 -23 -11 -28 -12 -16 -2 10 8 14 18 10 22
-4 5 -1 5 5 1 7 -4 21 -2 30 3 10 6 18 11 19 11 0 0 1 -7 1 -15z m-1422 -5 c3
-6 -1 -7 -9 -4 -18 7 -21 14 -7 14 6 0 13 -4 16 -10z m615 6 c0 -2 -7 -7 -16
-10 -8 -3 -12 -2 -9 4 6 10 25 14 25 6z m-755 -16 c4 -6 1 -9 -7 -8 -7 2 -12
-2 -11 -9 2 -7 -3 -10 -11 -7 -7 3 -40 -11 -74 -30 -33 -20 -65 -36 -70 -36
-6 0 -13 -10 -15 -22 -3 -15 -4 -12 -4 8 1 18 6 30 12 28 5 -2 44 16 85 40 84
49 86 50 95 36z m102 -16 c0 -19 -20 -12 -23 8 -1 10 3 15 10 12 7 -3 13 -12
13 -20z m688 16 c-3 -5 -12 -10 -18 -10 -7 0 -6 4 3 10 19 12 23 12 15 0z
m222 -7 c0 -8 -6 -9 -19 -2 -10 5 -18 11 -18 12 0 2 8 3 18 3 10 0 19 -6 19
-13z m393 3 c-7 -7 -13 -7 -20 0 -6 6 -3 10 10 10 13 0 16 -4 10 -10z m-1170
-6 c0 -5 -4 -10 -9 -10 -5 0 -18 -3 -28 -6 -16 -6 -16 -5 2 9 23 19 35 21 35
7z m466 -5 c-19 -14 -11 -21 17 -16 4 1 2 -8 -5 -19 -13 -20 -13 -20 -20 1 -5
13 -14 19 -23 15 -25 -9 -17 2 13 18 35 19 42 19 18 1z m509 5 c-3 -5 -12 -10
-18 -10 -7 0 -6 4 3 10 19 12 23 12 15 0z m-633 -7 c-6 -2 -10 -9 -7 -14 4 -5
-1 -6 -10 -2 -13 5 -14 7 -3 14 7 5 18 8 23 8 6 0 4 -3 -3 -6z m53 -13 c-3 -5
-1 -10 5 -10 6 0 8 -4 5 -10 -4 -6 -11 -5 -19 3 -10 9 -11 14 -2 19 15 10 18
10 11 -2z m241 -9 c0 -12 -6 -17 -18 -13 -23 6 -23 19 0 25 9 3 17 5 17 6 1 0
1 -7 1 -18z m454 15 c0 -2 -7 -7 -16 -10 -8 -3 -12 -2 -9 4 6 10 25 14 25 6z
m30 -11 c-7 -9 -15 -13 -19 -10 -3 3 1 10 9 15 21 14 24 12 10 -5z m125 2 c3
-4 2 -5 -1 -2 -4 2 -14 0 -24 -5 -12 -6 -17 -5 -17 4 0 13 32 15 42 3z m-1313
-93 c-4 -90 -14 -110 -14 -27 -1 29 -7 56 -17 68 -15 19 -15 19 2 5 18 -13 18
-12 14 17 -3 21 -1 30 6 27 8 -3 11 -32 9 -90z m-352 72 c-7 -7 -14 -6 -21 1
-9 9 -7 12 9 10 14 -1 18 -5 12 -11z m560 2 c0 -4 -4 -8 -9 -8 -6 0 -12 4 -15
8 -3 5 1 9 9 9 8 0 15 -4 15 -9z m904 -1 c-3 -8 -11 -14 -19 -14 -11 0 -12 4
-4 14 6 7 15 13 20 13 5 0 6 -6 3 -13z m-731 -17 c3 -11 1 -20 -4 -20 -5 0 -9
9 -9 20 0 11 2 20 4 20 2 0 6 -9 9 -20z m582 10 c3 -5 2 -10 -4 -10 -5 0 -13
5 -16 10 -3 6 -2 10 4 10 5 0 13 -4 16 -10z m283 -8 c-8 -10 -14 -10 -27 0 -9
7 -17 13 -19 14 -1 1 11 1 27 0 22 -1 27 -4 19 -14z m122 8 c0 -5 -5 -10 -11
-10 -5 0 -7 5 -4 10 3 6 8 10 11 10 2 0 4 -4 4 -10z m-755 -28 c-3 -3 -11 0
-18 7 -9 10 -8 11 6 5 10 -3 15 -9 12 -12z m-680 -2 c3 -5 2 -10 -4 -10 -5 0
-13 5 -16 10 -3 6 -2 10 4 10 5 0 13 -4 16 -10z m535 -12 c0 -18 -2 -20 -9 -8
-6 8 -7 18 -5 22 9 14 14 9 14 -14z m-365 -9 c-10 -15 -25 -10 -19 6 4 8 10
12 15 9 5 -3 7 -10 4 -15z m325 11 c13 -8 13 -10 -2 -10 -9 0 -20 5 -23 10 -8
13 5 13 25 0z m-385 -20 c-3 -5 -2 -10 2 -10 5 0 9 -9 9 -20 0 -22 -7 -25 -23
-9 -12 12 -6 49 9 49 5 0 6 -4 3 -10z m492 -22 c-3 -7 -5 -2 -5 12 0 14 2 19
5 13 2 -7 2 -19 0 -25z m303 1 c0 -28 -15 -23 -16 6 -1 14 2 22 7 19 5 -3 9
-14 9 -25z m400 -5 c0 -14 -4 -23 -9 -20 -5 3 -7 15 -4 26 7 28 13 25 13 -6z
m-530 6 c0 -5 -2 -10 -4 -10 -3 0 -8 5 -11 10 -3 6 -1 10 4 10 6 0 11 -4 11
-10z m255 0 c-3 -5 -11 -10 -16 -10 -6 0 -7 5 -4 10 3 6 11 10 16 10 6 0 7 -4
4 -10z m145 -12 c0 -6 -6 -5 -15 2 -8 7 -15 14 -15 16 0 2 7 1 15 -2 8 -4 15
-11 15 -16z m-708 -6 c9 4 14 -1 15 -14 2 -15 -1 -17 -12 -8 -9 7 -15 8 -20 0
-3 -5 -11 -10 -18 -10 -8 0 -8 3 0 11 6 6 9 19 6 28 -4 13 -3 13 5 2 6 -8 16
-12 24 -9z m74 -7 c3 -17 -12 -20 -21 -5 -3 6 -1 10 5 10 6 0 8 6 4 13 -4 6
-3 8 1 4 5 -4 10 -14 11 -22z m313 -17 c1 -5 -3 -8 -9 -8 -5 0 -10 12 -9 28 0
24 1 25 9 7 5 -11 9 -23 9 -27z m-1159 12 c0 -5 -7 -10 -15 -10 -8 0 -15 -5
-15 -12 0 -6 -3 -8 -7 -4 -5 4 1 14 11 22 23 17 26 17 26 4z m1554 -14 c-6
-16 -31 -17 -31 0 0 7 4 11 9 8 4 -3 8 0 8 6 0 6 4 9 10 5 5 -3 7 -11 4 -19z
m-1507 -12 c-7 -7 -37 7 -37 17 0 6 9 5 21 -1 11 -7 19 -14 16 -16z m1223 16
c0 -5 -7 -10 -15 -10 -8 0 -15 5 -15 10 0 6 7 10 15 10 8 0 15 -4 15 -10z
m392 -5 c0 -5 -5 -11 -10 -13 -5 -1 -9 4 -9 13 0 9 4 14 9 13 5 -2 10 -8 10
-13z m-1187 -5 c3 -5 1 -10 -4 -10 -6 0 -11 5 -11 10 0 6 2 10 4 10 3 0 8 -4
11 -10z m-165 -15 c-7 -8 -18 -15 -24 -15 -6 0 -2 7 8 15 25 19 32 19 16 0z
m112 -40 c2 -33 -1 -51 -6 -45 -13 13 -20 100 -8 100 6 0 12 -25 14 -55z m415
33 c-3 -8 -6 -5 -6 6 -1 11 2 17 5 13 3 -3 4 -12 1 -19z m-902 2 c-3 -5 -11
-10 -16 -10 -6 0 -7 5 -4 10 3 6 11 10 16 10 6 0 7 -4 4 -10z m980 0 c3 -5 2
-10 -4 -10 -5 0 -13 5 -16 10 -3 6 -2 10 4 10 5 0 13 -4 16 -10z m295 0 c0 -5
-2 -10 -4 -10 -3 0 -8 5 -11 10 -3 6 -1 10 4 10 6 0 11 -4 11 -10z m-525 -10
c-3 -5 -11 -10 -16 -10 -6 0 -7 5 -4 10 3 6 11 10 16 10 6 0 7 -4 4 -10z m395
2 c0 -5 -12 -14 -27 -21 l-28 -12 25 21 c29 22 30 23 30 12z m255 -2 c3 -5 1
-10 -4 -10 -6 0 -11 5 -11 10 0 6 2 10 4 10 3 0 8 -4 11 -10z m275 -10 c0 -11
-2 -20 -4 -20 -2 0 -6 9 -9 20 -3 11 -1 20 4 20 5 0 9 -9 9 -20z m127 -2 c-3
-8 -6 -5 -6 6 -1 11 2 17 5 13 3 -3 4 -12 1 -19z m-1367 -24 c0 -30 -2 -34
-14 -25 -11 9 -11 17 -2 36 6 14 12 25 14 25 1 0 2 -16 2 -36z m777 14 c-3 -8
-6 -5 -6 6 -1 11 2 17 5 13 3 -3 4 -12 1 -19z m-337 4 c0 -5 -7 -9 -15 -9 -8
0 -15 4 -15 9 0 4 7 8 15 8 8 0 15 -4 15 -8z m27 -29 c-3 -10 -5 -4 -5 12 0
17 2 24 5 18 2 -7 2 -21 0 -30z m378 27 c3 -5 -1 -10 -9 -10 -9 0 -16 5 -16
10 0 6 4 10 9 10 6 0 13 -4 16 -10z m-1087 -80 c40 -23 80 -39 88 -36 9 3 12
1 9 -4 -8 -12 -52 -13 -59 -2 -7 12 -163 102 -176 102 -6 0 -8 5 -5 10 4 7 18
4 38 -9 18 -11 65 -38 105 -61z m342 48 c0 -18 -2 -20 -9 -8 -6 8 -7 18 -5 22
9 14 14 9 14 -14z m147 5 c0 -8 -6 -9 -19 -2 -10 5 -18 11 -18 12 0 2 8 3 18
3 10 0 19 -6 19 -13z m130 -5 c-3 -8 -6 -5 -6 6 -1 11 2 17 5 13 3 -3 4 -12 1
-19z m510 0 c-3 -8 -6 -5 -6 6 -1 11 2 17 5 13 3 -3 4 -12 1 -19z m-242 2 c3
-6 -1 -7 -9 -4 -18 7 -21 14 -7 14 6 0 13 -4 16 -10z m399 2 c2 -4 -4 -8 -14
-8 -10 0 -16 4 -14 8 3 4 9 8 14 8 5 0 11 -4 14 -8z m-1224 -6 c0 -2 -7 -7
-16 -10 -8 -3 -12 -2 -9 4 6 10 25 14 25 6z m-254 -23 c-2 -9 -8 -19 -15 -21
-10 -3 -10 0 -2 17 14 25 20 27 17 4z m385 -45 c8 2 21 9 29 17 8 7 26 16 40
19 21 6 22 5 7 -4 -9 -6 -14 -16 -11 -22 4 -6 2 -8 -4 -4 -15 9 -62 -14 -62
-31 0 -8 -5 -11 -10 -8 -6 4 -34 -7 -64 -24 l-54 -31 -93 55 c-52 30 -97 55
-100 55 -3 0 -15 -9 -27 -21 -12 -11 -26 -18 -31 -14 -5 3 -12 -1 -14 -7 -4
-10 -6 -10 -6 0 -1 7 10 17 22 21 13 5 30 16 38 24 13 12 27 7 113 -44 l99
-57 48 30 c54 33 59 42 28 58 -15 9 -24 8 -37 -2 -15 -11 -15 -11 -5 3 7 9 9
19 5 24 -4 4 8 0 26 -9 31 -16 32 -16 33 6 1 18 3 17 8 -7 5 -19 12 -29 22
-27z m222 40 c-2 -5 -10 -8 -18 -8 -8 0 -16 3 -18 8 -3 4 5 7 18 7 13 0 21 -3
18 -7z m287 -2 c0 5 5 1 11 -8 5 -10 15 -18 20 -18 6 0 26 -11 46 -25 20 -13
40 -22 45 -19 4 3 8 1 8 -3 0 -5 9 -14 20 -21 18 -11 32 -5 121 48 107 64 109
65 109 50 0 -5 -6 -10 -14 -10 -8 0 -21 -6 -28 -13 -7 -8 -30 -22 -51 -32 -20
-9 -34 -22 -30 -28 3 -6 1 -7 -6 -3 -6 4 -27 -2 -45 -14 l-35 -21 -53 28 c-29
15 -54 31 -56 36 -2 4 -8 7 -13 7 -14 0 -79 44 -79 54 0 5 7 3 15 -4 8 -7 15
-9 15 -4z m98 -4 c-10 -2 -18 -8 -18 -13 0 -5 -4 -9 -9 -9 -5 0 -7 8 -4 19 3
14 11 17 26 13 18 -5 19 -7 5 -10z m556 -3 c-8 -13 -21 -11 -27 5 -4 10 0 12
14 9 10 -3 16 -9 13 -14z m135 7 c10 -12 8 -13 -8 -9 -12 3 -18 9 -15 14 7 12
10 11 23 -5z m121 1 c0 -8 -7 -14 -15 -14 -11 0 -12 4 -4 14 6 7 13 13 15 13
2 0 4 -6 4 -13z m-1055 -7 c3 -5 2 -10 -4 -10 -5 0 -13 5 -16 10 -3 6 -2 10 4
10 5 0 13 -4 16 -10z m75 -22 c0 -5 -4 -8 -10 -8 -5 0 -10 10 -10 23 0 18 2
19 10 7 5 -8 10 -18 10 -22z m320 22 c0 -5 -4 -10 -10 -10 -5 0 -10 5 -10 10
0 6 5 10 10 10 6 0 10 -4 10 -10z m260 0 c0 -5 -7 -10 -16 -10 -8 0 -12 5 -9
10 3 6 10 10 16 10 5 0 9 -4 9 -10z m-851 -19 c18 -14 21 -20 11 -26 -9 -5
-11 -4 -6 4 6 8 1 10 -16 6 -19 -5 -24 -2 -24 14 0 25 4 26 35 2z m241 -9 c0
-12 -3 -12 -15 -2 -8 7 -15 13 -15 15 0 1 7 2 15 2 8 0 15 -7 15 -15z m530 9
c0 -5 -7 -11 -14 -14 -10 -4 -13 -1 -9 9 6 15 23 19 23 5z m298 -3 c8 -10 4
-13 -14 -14 -13 -1 -24 2 -24 8 0 5 5 6 10 3 6 -3 10 -1 10 4 0 14 5 14 18 -1z
m107 2 c4 -6 11 -7 17 -4 7 4 8 2 4 -4 -5 -9 -13 -9 -27 -2 -10 6 -19 13 -19
15 0 9 19 5 25 -5z m-1825 -20 c12 -8 11 -10 -7 -10 -13 0 -23 5 -23 10 0 13
11 13 30 0z m770 0 c0 -5 -5 -10 -11 -10 -5 0 -7 5 -4 10 3 6 8 10 11 10 2 0
4 -4 4 -10z m400 6 c0 -3 -4 -8 -10 -11 -5 -3 -10 -1 -10 4 0 6 5 11 10 11 6
0 10 -2 10 -4z m400 -6 c0 -5 -4 -10 -10 -10 -5 0 -10 5 -10 10 0 6 5 10 10
10 6 0 10 -4 10 -10z m-970 -10 c0 -5 -4 -10 -10 -10 -5 0 -10 5 -10 10 0 6 5
10 10 10 6 0 10 -4 10 -10z m1180 -16 c0 -2 -9 0 -20 6 -11 6 -20 13 -20 16 0
2 9 0 20 -6 11 -6 20 -13 20 -16z m-1050 1 c0 -2 -6 -5 -13 -8 -8 -3 -14 1
-14 8 0 7 6 11 14 8 7 -3 13 -6 13 -8z m90 -11 c0 -2 -9 0 -20 6 -11 6 -20 13
-20 16 0 2 9 0 20 -6 11 -6 20 -13 20 -16z m554 18 c2 -4 -4 -8 -14 -8 -10 0
-16 4 -14 8 3 4 9 8 14 8 5 0 11 -4 14 -8z m121 -2 c4 -6 11 -8 16 -5 12 8 11
-6 -1 -25 -8 -12 -10 -12 -10 -1 0 8 -8 20 -17 27 -10 7 -13 14 -6 14 6 0 15
-5 18 -10z m435 -26 c0 -2 -9 0 -20 6 -11 6 -24 9 -29 6 -4 -3 -8 1 -8 9 0 12
5 12 29 -1 15 -8 28 -17 28 -20z m-1295 16 c3 -5 2 -10 -4 -10 -5 0 -13 5 -16
10 -3 6 -2 10 4 10 5 0 13 -4 16 -10z m401 -9 c0 -12 -6 -17 -18 -13 -10 2
-21 8 -24 13 -3 5 1 6 9 3 8 -3 18 -1 22 5 9 15 11 14 11 -8z m-149 -6 c0 -6
-8 -11 -17 -11 -9 0 -17 5 -17 11 0 6 8 11 17 11 9 0 17 -5 17 -11z m-352 -5
c3 -6 -1 -7 -9 -4 -18 7 -21 14 -7 14 6 0 13 -4 16 -10z m240 0 c3 -6 -1 -7
-9 -4 -18 7 -21 14 -7 14 6 0 13 -4 16 -10z m525 -5 c0 -9 -6 -12 -16 -8 -13
5 -13 7 -2 14 17 11 18 11 18 -6z m140 -6 c0 -14 -17 -10 -23 5 -4 10 -1 13 9
9 7 -3 14 -9 14 -14z m410 0 c0 -14 -27 -10 -33 5 -4 10 0 12 14 9 10 -3 19
-9 19 -14z m-285 -7 c-3 -3 -11 0 -18 7 -9 10 -8 11 6 5 10 -3 15 -9 12 -12z
m135 8 c0 -5 -4 -10 -10 -10 -5 0 -10 5 -10 10 0 6 5 10 10 10 6 0 10 -4 10
-10z m-995 -11 c11 -16 1 -19 -13 -3 -7 8 -8 14 -3 14 5 0 13 -5 16 -11z m250
-19 c3 -6 -1 -7 -9 -4 -18 7 -21 14 -7 14 6 0 13 -4 16 -10z m152 -12 c-3 -8
-6 -5 -6 6 -1 11 2 17 5 13 3 -3 4 -12 1 -19z m405 -16 c-4 -13 -7 -12 -12 4
-4 10 -5 23 -2 28 7 13 21 -16 14 -32z m401 23 c4 -8 2 -17 -3 -20 -6 -4 -10
3 -10 14 0 25 6 27 13 6z m-543 -5 c0 -5 -2 -10 -4 -10 -3 0 -8 5 -11 10 -3 6
-1 10 4 10 6 0 11 -4 11 -10z m-735 -10 c3 -5 2 -10 -4 -10 -5 0 -13 5 -16 10
-3 6 -2 10 4 10 5 0 13 -4 16 -10z"/>
</g>
</svg>
