<?xml version="1.0" standalone="no"?>
<!DOCTYPE svg PUBLIC "-//W3C//DTD SVG 20010904//EN"
 "http://www.w3.org/TR/2001/REC-SVG-20010904/DTD/svg10.dtd">
<svg version="1.0" xmlns="http://www.w3.org/2000/svg"
 width="200.000000pt" height="200.000000pt" viewBox="0 0 200.000000 200.000000"
 preserveAspectRatio="xMidYMid meet">
<metadata>
Created by potrace 1.16, written by Peter Selinger 2001-2019
</metadata>
<g transform="translate(0.000000,200.000000) scale(0.100000,-0.100000)"
fill="#000000" stroke="none">
<path d="M0 1866 c0 -106 3 -136 15 -146 8 -7 15 -18 15 -25 0 -7 -7 -18 -15
-25 -13 -11 -15 -60 -15 -329 0 -233 3 -320 12 -329 9 -9 9 -15 0 -24 -18 -18
-17 -654 1 -661 9 -4 9 -6 0 -6 -17 -1 -17 -28 0 -34 9 -4 9 -6 0 -6 -10 -1
-13 -36 -13 -141 l0 -140 281 0 c184 0 287 4 301 11 14 8 23 8 31 0 13 -13
284 -15 289 -2 2 4 23 20 47 35 38 25 46 26 72 15 16 -6 32 -16 35 -20 3 -5
-10 -2 -29 7 -33 16 -35 15 -75 -10 -23 -14 -42 -28 -42 -31 0 -3 41 -5 91 -5
81 0 90 2 79 15 -11 13 -10 14 4 9 9 -3 16 -10 16 -15 0 -5 36 -9 79 -9 74 0
80 1 83 22 2 15 24 34 71 61 l67 39 68 -39 c46 -27 68 -46 70 -61 3 -19 10
-22 47 -22 33 0 45 4 48 18 4 16 5 16 6 0 1 -16 16 -18 166 -18 l165 0 0 28
c0 24 -11 33 -85 75 l-85 48 -72 -42 c-40 -24 -82 -50 -93 -58 -18 -15 -19
-15 -6 1 7 10 49 38 92 63 l80 46 87 -49 c78 -44 87 -53 90 -81 6 -59 22 -31
22 39 l0 69 -70 41 -70 41 0 84 0 84 70 42 70 41 0 152 0 151 -95 55 -95 54 0
116 0 116 95 54 95 54 0 140 0 141 -80 45 -80 45 0 100 0 100 80 45 80 45 0
58 0 57 -35 0 c-24 0 -35 -5 -35 -14 0 -8 -28 -31 -62 -52 l-62 -38 -63 34
c-34 19 -65 42 -69 52 -5 15 -17 18 -90 18 -46 0 -84 -3 -84 -7 0 -5 -22 -21
-50 -36 l-50 -28 -45 26 c-25 15 -48 31 -51 36 -3 5 -59 9 -124 9 -94 0 -125
-4 -149 -17 -30 -17 -32 -17 -62 0 -28 15 -71 17 -500 17 l-469 0 0 -134z
m1732 -100 c12 -17 -1 -21 -15 -4 -6 9 -35 30 -63 46 -46 27 -53 28 -77 15
-15 -7 -27 -11 -27 -9 0 3 12 12 27 19 25 13 31 12 87 -21 34 -19 64 -40 68
-46z m-192 39 c0 -2 -14 -12 -30 -20 -31 -16 -31 -16 -28 -91 l3 -75 60 -33
60 -34 63 38 c34 22 62 36 62 32 0 -4 -28 -23 -63 -43 -69 -41 -66 -41 -159
18 l-38 23 0 75 c0 74 0 76 33 95 35 21 37 22 37 15z m-295 -28 c22 -12 41
-30 41 -40 2 -13 1 -13 -3 -2 -2 8 -22 24 -44 36 l-40 20 -39 -22 c-38 -22
-40 -25 -40 -74 0 -49 1 -52 40 -74 l40 -22 45 25 c25 14 43 21 40 15 -4 -5
-24 -18 -46 -30 l-40 -20 -45 26 c-43 26 -44 27 -44 80 0 53 1 54 43 79 23 14
44 26 47 26 3 0 23 -11 45 -23z m-420 -39 c19 -9 25 -19 25 -44 0 -21 -6 -34
-17 -39 -15 -5 -16 -4 -5 6 21 22 14 57 -15 73 -33 18 -25 21 12 4z m-55 -12
c-18 -22 -8 -59 20 -73 14 -7 18 -13 10 -13 -53 1 -72 89 -21 99 2 1 -2 -6 -9
-13z m967 -58 c-3 -7 -5 -2 -5 12 0 14 2 19 5 13 2 -7 2 -19 0 -25z m139 -189
l74 -40 0 -92 0 -92 -69 -37 c-38 -21 -74 -38 -81 -38 -6 0 -43 18 -81 40
l-69 41 0 87 0 87 73 42 c39 24 74 43 76 43 2 0 37 -18 77 -41z m-412 -31 l57
-33 -3 -69 -3 -70 -57 -33 -58 -34 -57 34 -58 33 -3 70 -3 69 53 32 c29 17 58
32 65 32 6 1 37 -14 67 -31z m-423 -28 c40 -21 40 -21 37 -72 -3 -47 -6 -54
-35 -71 -18 -10 -33 -16 -33 -13 0 3 14 12 30 21 27 14 30 20 30 63 0 45 -2
49 -35 65 -33 16 -37 16 -70 0 -19 -9 -36 -25 -38 -37 -4 -20 -4 -20 -6 1 -1
16 9 28 37 42 46 25 36 25 83 1z m-460 -39 c-28 -22 -25 -51 9 -68 14 -7 19
-13 12 -13 -50 0 -70 56 -30 84 31 22 38 20 9 -3z m59 -31 c0 -16 -4 -31 -9
-34 -4 -3 -6 6 -3 19 2 14 -1 32 -8 40 -11 13 -10 14 4 9 9 -4 16 -17 16 -34z
m320 -65 c16 -8 31 -19 34 -24 4 -5 -12 0 -34 12 -31 17 -40 28 -39 47 2 24 2
24 6 2 2 -12 17 -29 33 -37z m725 -143 l80 -48 0 -94 0 -94 -81 -48 -82 -48
-81 47 -81 48 0 95 0 95 78 47 c42 25 79 46 82 47 3 0 41 -21 85 -47z m-449
-27 c17 -13 16 -13 -11 -3 -26 9 -36 7 -80 -19 l-50 -29 0 -64 0 -63 49 -30
c43 -27 52 -29 80 -19 28 10 29 10 12 -3 -28 -21 -39 -19 -101 16 l-55 31 0
67 0 67 53 31 c60 36 76 39 103 18z m84 -115 c0 -68 0 -70 -32 -85 -29 -14
-31 -14 -14 0 11 8 23 15 28 15 4 0 8 29 8 64 0 58 -3 66 -27 86 l-28 21 33
-16 c32 -15 32 -17 32 -85z m-475 44 l30 -26 -33 22 c-18 12 -42 20 -53 17
-10 -3 -17 -1 -13 4 10 16 38 9 69 -17z m-93 -6 c-5 -7 -12 -22 -15 -33 -5
-20 -5 -20 -6 1 0 11 4 25 11 32 16 16 23 15 10 0z m-347 -38 c3 -5 1 -10 -4
-10 -6 0 -11 5 -11 10 0 6 2 10 4 10 3 0 8 -4 11 -10z m346 -37 c13 -16 12
-17 -3 -4 -10 7 -18 15 -18 17 0 8 8 3 21 -13z m89 -13 c-27 -21 -55 -26 -64
-11 -4 5 3 7 13 4 11 -3 30 2 43 11 32 23 38 20 8 -4z m1030 -193 l55 -33 3
-71 3 -72 -65 -36 -65 -36 -58 33 c-58 34 -58 34 -59 84 l-1 49 4 -47 c4 -45
6 -48 59 -78 53 -30 55 -30 87 -14 83 43 88 50 85 121 l-3 65 -57 31 -57 32
-55 -30 c-31 -16 -57 -37 -60 -45 -3 -12 -4 -12 -5 2 -1 16 90 76 119 77 8 1
40 -14 70 -32z m-416 -23 l47 -26 -3 -56 c-3 -54 -4 -56 -50 -84 l-46 -29 -49
29 c-36 21 -48 35 -49 53 -1 17 0 18 3 4 2 -12 24 -33 48 -47 l44 -27 46 25
c44 25 45 27 45 75 0 46 -2 50 -37 72 -21 13 -45 26 -53 30 -8 3 -10 6 -4 6 6
1 33 -11 58 -25z m-74 12 c0 -2 -15 -13 -34 -24 -19 -11 -36 -30 -39 -41 -4
-20 -5 -20 -3 1 1 22 76 85 76 64z m-346 -37 c30 -17 36 -27 36 -54 0 -26 -7
-39 -29 -54 -31 -22 -56 -27 -65 -12 -4 5 3 7 13 4 32 -8 71 25 71 61 0 24 -7
35 -31 49 -29 16 -32 16 -60 0 -22 -13 -29 -25 -29 -48 0 -17 6 -37 13 -44 10
-10 9 -11 -5 -6 -13 5 -18 18 -18 45 0 32 5 41 33 59 17 11 33 21 34 21 1 0
18 -9 37 -21z m-441 -29 c-27 -11 -30 -37 -5 -57 15 -13 15 -13 -5 -3 -37 17
-24 71 17 69 9 0 6 -4 -7 -9z m1073 -281 l54 -30 0 -64 c0 -63 -1 -65 -32 -80
-29 -14 -31 -14 -14 0 11 8 23 15 28 15 4 0 8 28 8 63 l0 62 -51 28 c-28 16
-59 27 -70 24 -10 -3 -17 -1 -13 4 9 16 35 10 90 -22z m-106 6 c0 -2 -13 -11
-30 -20 -29 -15 -30 -19 -30 -79 l0 -64 48 -27 c40 -23 51 -25 77 -16 27 10
28 9 11 -4 -27 -20 -44 -18 -96 14 l-45 27 -3 67 c-3 66 -3 67 30 87 36 21 38
22 38 15z m-312 -35 c31 -19 33 -24 30 -66 -3 -42 -7 -48 -40 -68 l-38 -21
-37 21 c-34 20 -38 27 -41 67 -3 41 0 46 30 66 41 26 55 26 96 1z m-420 -32
c14 -14 16 -54 4 -62 -5 -3 -6 8 -4 24 5 36 -20 50 -52 30 -19 -12 -20 -12 -7
3 16 20 42 22 59 5z m-29 -77 c-6 -2 -18 4 -27 13 -15 15 -15 15 10 4 15 -7
23 -15 17 -17z"/>
<path d="M1728 1469 l-68 -40 0 -82 0 -83 65 -37 c35 -20 69 -37 75 -37 7 0
41 16 76 36 l65 36 -3 86 -3 87 -65 37 c-36 21 -67 38 -70 38 -3 -1 -35 -19
-72 -41z"/>
<path d="M1340 1441 l-45 -27 -3 -65 -3 -64 55 -33 55 -33 56 32 55 31 0 63 0
63 -50 31 c-28 17 -56 31 -63 30 -6 0 -32 -13 -57 -28z"/>
<path d="M1527 1135 l-77 -45 0 -89 c0 -99 -5 -92 90 -144 l65 -35 78 45 77
45 0 88 0 88 -57 32 c-32 18 -67 39 -78 46 -19 12 -29 9 -98 -31z"/>
<path d="M1158 362 c-23 -14 -28 -24 -28 -58 0 -36 4 -43 35 -60 34 -18 36
-18 70 0 32 17 35 23 35 62 0 38 -4 45 -30 59 -37 19 -48 19 -82 -3z"/>
<path d="M978 1988 c16 -8 28 -8 45 0 19 9 17 11 -23 11 -40 0 -42 -2 -22 -11z"/>
<path d="M1310 1996 c0 -2 20 -16 45 -31 l46 -26 44 26 c25 14 45 28 45 30 0
3 -40 5 -90 5 -49 0 -90 -2 -90 -4z"/>
<path d="M1680 1990 c0 -11 81 -66 110 -75 21 -7 130 54 130 72 0 10 -29 13
-120 13 -75 0 -120 -4 -120 -10z"/>
<path d="M1918 1828 l-68 -40 0 -93 0 -93 71 -41 c39 -23 73 -41 75 -41 2 0 4
79 4 175 0 96 -3 175 -7 174 -5 0 -38 -19 -75 -41z"/>
<path d="M0 1695 c0 -15 4 -24 10 -20 5 3 10 12 10 20 0 8 -4 17 -10 20 -6 4
-10 -5 -10 -20z"/>
<path d="M1903 1159 l-83 -50 0 -109 0 -109 85 -51 c47 -27 88 -50 90 -50 3 0
5 94 5 210 0 116 -3 210 -7 209 -5 0 -45 -23 -90 -50z"/>
<path d="M1933 422 l-63 -37 0 -80 0 -81 63 -36 62 -36 3 80 c2 43 2 112 0
153 l-3 73 -62 -36z"/>
<path d="M1333 72 c-40 -23 -63 -43 -63 -54 0 -16 12 -18 130 -18 118 0 130 2
130 18 0 11 -23 31 -63 55 -35 20 -66 37 -68 37 -2 -1 -32 -17 -66 -38z"/>
</g>
</svg>
