<?xml version="1.0" standalone="no"?>
<!DOCTYPE svg PUBLIC "-//W3C//DTD SVG 20010904//EN"
 "http://www.w3.org/TR/2001/REC-SVG-20010904/DTD/svg10.dtd">
<svg version="1.0" xmlns="http://www.w3.org/2000/svg"
 width="200.000000pt" height="200.000000pt" viewBox="0 0 200.000000 200.000000"
 preserveAspectRatio="xMidYMid meet">
<metadata>
Created by potrace 1.16, written by Peter Selinger 2001-2019
</metadata>
<g transform="translate(0.000000,200.000000) scale(0.100000,-0.100000)"
fill="#000000" stroke="none">
<path d="M0 999 l0 -1000 93 4 c50 3 97 5 102 5 6 0 76 -2 158 -5 90 -2 147 0
147 6 0 5 21 21 47 37 l47 27 53 -29 c29 -15 53 -32 53 -36 0 -4 36 -8 79 -8
75 0 80 1 83 22 2 16 23 34 70 61 l67 39 68 -39 c47 -27 69 -46 71 -61 3 -18
10 -22 43 -22 37 0 39 2 39 30 0 26 9 34 85 80 47 27 90 50 94 50 5 0 47 -22
93 -48 74 -43 83 -51 86 -80 5 -45 22 -40 22 7 0 39 0 39 99 95 54 31 102 56
105 56 3 0 40 -21 83 -46 113 -67 113 -67 113 -52 0 7 -38 35 -85 62 l-85 48
0 103 0 103 85 48 85 49 -2 129 -3 128 -102 59 -101 59 -95 -56 -95 -55 -99
58 -98 59 -3 110 c-2 81 1 114 10 122 7 5 53 33 102 61 l89 52 94 -56 95 -55
104 61 105 61 -3 116 -3 116 -90 52 -90 52 0 117 0 117 90 52 c89 51 90 52 93
94 3 37 1 42 -17 42 -14 0 -21 -6 -21 -20 0 -14 -20 -33 -62 -60 -91 -58 -96
-58 -177 -10 -56 34 -71 47 -71 66 0 23 -3 24 -59 24 -48 0 -60 -3 -63 -18 -5
-18 -106 -82 -129 -82 -21 0 -129 71 -129 86 0 11 -18 14 -84 14 -47 0 -88 -4
-91 -10 -3 -5 -26 -21 -50 -36 l-44 -26 -51 29 c-27 15 -50 31 -50 36 0 4 -54
7 -121 7 -97 0 -127 -3 -150 -17 -28 -17 -31 -17 -60 0 -27 15 -62 17 -300 17
l-269 0 0 -1001z m1686 844 l83 -48 1 -100 0 -100 -84 -48 -84 -47 -83 48 -84
48 0 99 0 99 80 47 c44 26 82 48 84 48 2 1 41 -20 87 -46z m-421 -30 l65 -37
0 -81 0 -81 -64 -37 -65 -37 -65 38 -66 37 0 80 0 80 63 37 c34 20 63 37 65
37 2 1 32 -16 67 -36z m-418 -38 c42 -25 43 -27 43 -80 0 -54 0 -54 -45 -80
l-45 -27 -42 24 -43 23 0 60 c0 59 0 60 40 82 22 12 42 23 44 23 2 0 24 -11
48 -25z m-419 -41 c12 -8 22 -26 22 -39 0 -23 -33 -55 -55 -55 -5 1 2 8 18 16
33 18 37 58 7 74 -42 23 -82 -34 -47 -69 10 -10 9 -11 -5 -6 -28 11 -24 69 5
83 30 14 29 14 55 -4z m1468 -231 l84 -48 -2 -109 -3 -109 -87 -49 -86 -49
-91 52 -92 52 3 105 3 105 80 48 c44 27 86 48 94 49 7 0 51 -21 97 -47z m-417
-24 l71 -41 0 -91 -1 -92 -74 -43 -75 -42 -75 42 -74 43 -1 91 0 92 68 40 c37
22 72 40 79 41 6 1 43 -17 82 -40z m-413 -31 l55 -33 -3 -69 -3 -70 -58 -34
-58 -34 -57 34 -57 34 -3 71 -3 71 53 30 c29 17 59 31 66 31 8 1 38 -14 68
-31z m-425 -30 c37 -20 39 -24 39 -69 0 -45 -2 -49 -41 -72 l-41 -24 -39 21
c-26 14 -39 28 -38 41 0 19 1 19 9 -1 4 -11 23 -27 40 -34 28 -12 36 -11 66 5
30 16 34 23 34 61 0 37 -4 45 -34 63 -33 21 -35 21 -70 4 -21 -10 -36 -24 -36
-34 0 -10 -4 -20 -9 -23 -5 -4 -6 5 -3 19 6 23 53 62 76 64 4 1 26 -9 47 -21z
m-403 -72 c3 -20 -3 -29 -22 -38 -22 -9 -29 -8 -46 7 -26 24 -25 50 2 69 19
13 25 14 43 2 11 -7 21 -25 23 -40z m1047 -204 l80 -48 0 -94 0 -94 -82 -49
-81 -48 -81 46 c-48 27 -81 54 -82 63 -2 24 -2 69 0 129 l1 51 78 46 c42 25
79 45 82 45 3 1 41 -21 85 -47z m-419 -43 l55 -31 -3 -70 -3 -69 -57 -32 -58
-32 -57 32 -58 32 -3 69 -3 70 53 30 c29 17 59 31 66 31 7 1 37 -13 68 -30z
m-436 -44 c26 -13 30 -21 30 -55 0 -34 -4 -42 -30 -55 -38 -20 -40 -19 -75 10
l-30 25 36 -20 c31 -17 41 -19 63 -9 21 10 26 19 26 49 0 32 -4 39 -29 50 -24
10 -33 9 -55 -5 -14 -10 -27 -27 -27 -39 -1 -19 -2 -19 -6 -1 -4 13 4 26 23
42 34 27 36 27 74 8z m1443 -267 c40 -23 75 -45 78 -50 3 -5 5 -46 4 -91 l-2
-82 -69 -42 c-38 -23 -73 -43 -78 -43 -6 0 -43 19 -83 42 l-74 42 3 90 3 90
70 42 c39 23 71 43 73 43 2 1 36 -18 75 -41z m-408 -26 l60 -37 3 -71 3 -71
-63 -38 -63 -38 -65 35 -65 36 0 73 0 72 60 38 c33 21 62 38 65 38 3 0 32 -17
65 -37z m-411 -28 l47 -26 -3 -56 c-3 -55 -4 -56 -51 -84 l-49 -29 -46 29
c-46 28 -47 30 -50 84 l-3 55 43 26 c54 33 55 33 112 1z m-421 -23 c15 -8 27
-18 27 -23 0 -5 -13 0 -30 12 -29 21 -31 21 -60 3 -40 -23 -42 -73 -4 -98 25
-16 29 -16 60 -1 43 20 45 12 2 -10 -30 -15 -34 -15 -65 1 -29 16 -33 23 -33
57 0 33 5 41 33 58 17 11 34 19 37 17 3 -1 17 -9 33 -16z m-419 -27 c9 -3 16
-13 16 -22 0 -13 -2 -13 -14 3 -17 24 -46 13 -47 -17 -1 -18 -2 -19 -6 -5 -5
18 12 47 27 47 5 0 15 -3 24 -6z m16 -49 c0 -2 -9 -9 -19 -15 -14 -7 -22 -7
-27 2 -4 6 -3 8 2 5 6 -3 16 -2 24 4 17 10 20 11 20 4z m1451 -205 l69 -41 0
-84 0 -84 -72 -42 -72 -42 -73 39 c-40 21 -75 46 -77 54 -8 29 -1 163 9 167 6
2 35 18 65 37 30 19 61 35 68 35 8 1 45 -17 83 -39z m-414 -31 l54 -31 -3 -65
-3 -65 -57 -31 -57 -32 -55 30 -56 30 0 70 0 70 48 27 c26 15 53 28 61 28 7 0
38 -14 68 -31z m-420 -30 c31 -20 34 -25 31 -66 -3 -40 -7 -46 -41 -66 l-38
-22 -37 22 c-33 18 -37 26 -40 66 -3 41 0 46 30 66 41 26 52 26 95 0z m-426
-29 c26 -14 25 -56 -2 -70 -11 -7 -23 -9 -26 -7 -2 3 5 8 16 12 28 9 28 51 1
60 -12 4 -28 1 -38 -7 -15 -12 -16 -11 -3 5 16 20 25 21 52 7z"/>
<path d="M1518 1828 l-68 -40 0 -93 0 -93 71 -41 c39 -23 76 -41 81 -41 6 0
44 19 84 43 l74 42 0 91 0 90 -74 42 c-40 23 -80 42 -87 41 -8 0 -44 -19 -81
-41z"/>
<path d="M1132 1798 l-53 -30 3 -75 3 -74 58 -32 58 -32 57 32 57 31 3 75 3
75 -55 31 c-31 17 -61 31 -68 30 -7 0 -37 -14 -66 -31z"/>
<path d="M758 1767 c-36 -21 -38 -25 -38 -73 0 -48 2 -51 40 -73 l39 -22 41
23 c38 22 40 25 40 73 0 48 -2 51 -40 73 -21 12 -40 22 -42 22 -2 -1 -20 -11
-40 -23z"/>
<path d="M1715 1492 l-80 -48 -3 -96 -3 -96 87 -50 87 -50 81 48 81 48 3 99 3
99 -84 47 c-46 26 -86 47 -88 47 -2 -1 -40 -22 -84 -48z"/>
<path d="M1328 1469 l-68 -40 0 -82 0 -83 65 -37 c35 -20 69 -37 75 -37 6 0
40 17 75 38 l65 37 0 82 0 82 -69 41 c-38 22 -71 40 -73 40 -2 -1 -33 -19 -70
-41z"/>
<path d="M943 1440 l-53 -30 0 -63 0 -63 54 -31 54 -31 56 32 56 31 0 62 0 63
-52 30 c-29 16 -55 30 -58 30 -3 0 -29 -14 -57 -30z"/>
<path d="M177 1379 c-37 -21 -8 -77 33 -64 13 4 20 15 20 30 0 29 -28 47 -53
34z"/>
<path d="M1118 1129 l-68 -40 0 -89 0 -89 69 -41 c38 -22 75 -40 83 -40 7 0
42 17 78 38 l65 38 3 91 3 92 -69 40 c-37 23 -75 41 -83 41 -8 -1 -44 -19 -81
-41z"/>
<path d="M740 1091 l-45 -27 0 -64 0 -64 50 -29 50 -30 55 30 55 30 3 61 3 61
-53 30 c-29 17 -57 31 -63 30 -5 0 -30 -13 -55 -28z"/>
<path d="M1723 772 l-63 -37 0 -81 0 -82 70 -41 71 -42 67 38 67 39 3 85 3 84
-65 38 c-36 20 -71 37 -78 36 -7 0 -41 -17 -75 -37z"/>
<path d="M1339 751 c-25 -16 -48 -35 -51 -43 -2 -7 -2 -39 0 -70 l4 -57 54
-31 55 -31 57 34 57 33 2 65 2 65 -54 32 c-29 18 -59 32 -67 32 -7 0 -34 -13
-59 -29z"/>
<path d="M948 724 c-35 -23 -38 -28 -38 -73 0 -48 1 -50 44 -74 l44 -24 46 25
47 26 -3 50 c-3 47 -6 52 -43 73 -49 28 -51 28 -97 -3z"/>
<path d="M1533 422 l-63 -36 0 -81 0 -81 66 -38 66 -37 66 38 67 38 0 80 0 79
-65 38 c-36 21 -67 37 -70 37 -3 0 -33 -16 -67 -37z"/>
<path d="M1142 393 l-43 -25 3 -65 3 -64 48 -27 49 -26 46 26 c51 29 60 50 54
120 -4 32 -10 41 -47 63 -52 30 -58 30 -113 -2z"/>
<path d="M758 362 c-23 -14 -28 -24 -28 -57 0 -36 4 -43 35 -59 34 -19 36 -19
70 0 31 16 35 23 35 59 0 34 -5 43 -31 58 -38 21 -47 21 -81 -1z"/>
<path d="M570 1990 c20 -13 47 -13 55 0 4 6 -9 10 -32 10 -28 0 -34 -3 -23
-10z"/>
<path d="M910 1996 c0 -2 20 -16 45 -30 l45 -27 45 27 c25 14 45 28 45 30 0 2
-40 4 -90 4 -49 0 -90 -2 -90 -4z"/>
<path d="M1282 1988 c3 -7 30 -28 61 -46 l56 -34 61 33 c90 50 81 59 -61 59
-92 0 -120 -3 -117 -12z"/>
<path d="M1660 1980 c0 -20 22 -37 105 -81 l40 -21 65 38 c72 42 81 51 73 71
-4 10 -37 13 -144 13 -133 0 -139 -1 -139 -20z"/>
<path d="M1902 1849 l-83 -50 3 -107 3 -106 83 -48 c46 -26 86 -48 88 -48 2 0
4 92 4 205 0 113 -3 205 -7 204 -5 0 -45 -23 -91 -50z"/>
<path d="M1898 1167 l-88 -52 0 -115 0 -115 90 -53 c49 -28 92 -52 95 -52 3 0
5 99 5 220 0 121 -3 220 -7 219 -5 0 -47 -23 -95 -52z"/>
<path d="M1503 1159 l-83 -50 0 -109 0 -109 68 -40 c121 -70 107 -70 210 -11
l92 52 0 108 0 108 -90 51 c-49 28 -96 51 -102 50 -7 0 -50 -23 -95 -50z"/>
<path d="M1918 444 l-78 -45 0 -93 0 -94 78 -45 77 -45 3 95 c1 52 1 134 0
183 l-3 89 -77 -45z"/>
<path d="M1707 123 c-93 -53 -97 -57 -97 -89 l0 -34 191 0 190 0 -3 36 c-3 34
-8 39 -94 89 l-91 52 -96 -54z"/>
<path d="M1315 101 c-64 -38 -81 -53 -83 -74 l-3 -27 171 0 171 0 -3 27 c-2
22 -18 36 -83 75 -44 26 -82 47 -85 47 -3 0 -41 -21 -85 -48z"/>
<path d="M933 72 c-40 -23 -63 -43 -63 -54 0 -16 12 -18 130 -18 118 0 130 2
130 18 0 14 -84 71 -130 89 -3 1 -33 -15 -67 -35z"/>
<path d="M558 40 c-63 -34 -56 -40 41 -40 50 0 91 2 91 4 0 4 -86 56 -92 56
-2 -1 -20 -10 -40 -20z"/>
</g>
</svg>
