<?xml version="1.0" standalone="no"?>
<!DOCTYPE svg PUBLIC "-//W3C//DTD SVG 20010904//EN"
 "http://www.w3.org/TR/2001/REC-SVG-20010904/DTD/svg10.dtd">
<svg version="1.0" xmlns="http://www.w3.org/2000/svg"
 width="200.000000pt" height="200.000000pt" viewBox="0 0 200.000000 200.000000"
 preserveAspectRatio="xMidYMid meet">
<metadata>
Created by potrace 1.16, written by Peter Selinger 2001-2019
</metadata>
<g transform="translate(0.000000,200.000000) scale(0.100000,-0.100000)"
fill="#000000" stroke="none">
<path d="M0 1395 c1 -469 4 -604 13 -598 9 5 8 2 -1 -9 -9 -12 -12 -106 -12
-402 l1 -386 175 0 176 0 -4 30 c-3 16 -1 30 4 30 4 0 8 -13 8 -30 0 -17 5
-30 10 -30 14 0 7 89 -7 98 -7 5 -7 11 3 20 8 7 14 10 14 7 0 -3 6 -1 13 5 6
7 41 28 77 49 43 24 67 45 71 61 6 20 7 18 6 -12 0 -20 -5 -35 -9 -32 -12 7
-49 -16 -43 -26 4 -6 -1 -7 -11 -3 -13 5 -15 3 -9 -7 5 -9 4 -11 -3 -6 -15 9
-54 -12 -47 -24 3 -6 -1 -7 -9 -4 -9 3 -16 1 -16 -5 0 -6 -7 -11 -16 -11 -8 0
-12 -5 -9 -11 4 -6 13 -8 21 -5 8 3 13 2 13 -2 -1 -4 0 -11 1 -17 1 -5 1 -25
0 -42 l-2 -33 161 0 c158 0 160 0 164 23 l4 22 2 -22 c1 -21 6 -23 50 -23 43
0 50 3 54 23 l4 22 2 -22 1 -23 376 0 c247 0 373 3 369 10 -3 6 -2 10 4 10 5
0 18 3 28 6 16 5 16 4 -1 -10 -18 -15 -5 -16 163 -16 159 0 182 2 177 15 -3 8
-1 15 4 15 6 0 10 -7 10 -16 0 -8 4 -13 9 -10 11 7 9 127 -3 145 -6 10 -6 12
2 7 9 -5 12 33 12 148 0 114 -3 156 -12 159 -9 4 -10 8 -3 14 6 4 12 18 12 31
2 22 0 21 -60 -13 -34 -20 -77 -43 -94 -52 l-33 -17 0 -118 c0 -72 4 -118 10
-118 6 0 10 -5 10 -11 0 -5 -5 -7 -11 -4 -14 9 -70 -15 -63 -26 3 -5 10 -7 15
-4 5 4 9 1 9 -4 0 -14 -27 -14 -32 0 -2 5 -35 -8 -75 -31 l-71 -42 -44 26
c-111 64 -152 86 -157 80 -3 -3 1 -9 9 -15 10 -6 4 -7 -20 -3 -32 5 -33 4 -17
-9 16 -13 16 -15 2 -21 -9 -3 -13 -2 -10 3 16 27 -23 16 -89 -24 l-76 -46
-100 61 c-90 54 -133 69 -114 38 4 -7 2 -8 -5 -4 -11 7 -123 -50 -129 -66 -2
-4 -10 -8 -18 -8 -8 0 -14 -4 -14 -10 0 -19 -35 -9 -90 25 -30 19 -72 44 -93
55 -77 42 -94 70 -57 90 14 7 20 7 20 0 0 -5 -7 -10 -15 -10 -8 0 -15 -7 -15
-16 0 -10 5 -14 16 -10 8 3 12 2 9 -4 -3 -5 41 -36 97 -69 57 -33 105 -56 106
-51 2 6 10 10 18 10 8 0 14 5 14 10 0 7 -6 7 -19 0 -25 -13 -41 -13 -41 0 0 6
8 10 17 10 14 0 14 3 5 12 -10 10 -15 10 -22 -2 -8 -12 -13 -13 -27 -3 -10 7
-44 27 -75 45 -32 18 -58 36 -58 40 0 4 31 -11 70 -33 38 -23 75 -39 80 -37 6
2 -17 20 -52 40 -35 20 -72 44 -83 53 -21 17 -4 9 103 -54 29 -17 58 -28 64
-25 6 4 8 2 5 -3 -4 -6 2 -13 13 -16 11 -3 18 -1 15 3 -3 5 0 12 6 16 8 5 9 3
4 -6 -5 -8 -3 -11 6 -8 8 3 13 10 12 16 -2 6 4 9 12 6 18 -7 47 14 39 27 -3 5
3 6 12 2 12 -4 15 -3 10 5 -4 8 -2 10 7 6 8 -3 18 0 23 7 4 7 3 10 -2 7 -5 -4
-9 38 -9 97 0 78 3 101 13 98 8 -4 12 -29 12 -80 0 -67 2 -74 16 -63 12 11 18
10 32 -4 16 -17 16 -18 -4 -12 -23 7 -67 -25 -46 -32 6 -2 8 -11 5 -20 -6 -15
-5 -15 10 -4 14 12 19 12 31 0 7 -8 40 -28 72 -44 33 -16 62 -33 65 -38 4 -5
13 -6 20 -4 7 2 -22 23 -64 46 -41 23 -79 46 -82 52 -3 5 -16 10 -28 10 -16 0
-18 3 -9 12 9 9 16 8 29 -4 35 -30 185 -108 196 -101 6 4 4 11 -7 18 -15 11
-15 13 -1 19 9 3 13 2 10 -3 -17 -29 76 -5 97 24 5 6 8 6 8 -2 0 -6 -22 -24
-50 -39 -27 -15 -47 -30 -44 -35 2 -4 29 7 59 24 42 25 53 36 49 50 -4 13 0
20 15 24 19 5 21 14 23 129 2 68 7 124 11 123 11 -1 136 69 174 98 18 13 33
19 33 14 0 -6 -37 -32 -81 -58 -45 -26 -76 -49 -70 -51 6 -2 45 16 86 40 l74
43 1 88 c0 48 3 87 8 87 4 0 6 -38 6 -85 -1 -47 3 -88 7 -91 8 -4 14 26 10 49
-1 4 8 3 19 -3 23 -12 27 -22 5 -14 -11 5 -15 -1 -15 -19 0 -19 11 -31 44 -51
45 -26 72 -34 62 -17 -4 5 2 7 13 4 10 -3 22 0 25 6 9 14 26 14 26 0 0 -5 -5
-7 -10 -4 -6 3 -13 -1 -16 -9 -3 -9 -10 -13 -15 -10 -5 3 -9 0 -9 -6 0 -8 9
-10 24 -6 14 3 28 1 31 -4 7 -12 25 -4 25 11 0 6 -4 7 -10 4 -5 -3 -10 -1 -10
4 0 14 13 14 26 1 6 -6 25 0 54 17 24 15 39 28 32 31 -14 4 -6 22 9 22 6 0 7
-5 3 -11 -4 -7 -1 -10 6 -7 7 2 14 12 16 22 1 10 6 21 10 24 4 4 4 -1 1 -10
-4 -10 -2 -18 3 -18 11 0 12 3 14 129 l1 93 -69 40 c-37 22 -71 36 -75 32 -3
-5 -13 -10 -21 -12 -11 -2 -9 2 4 13 18 14 18 15 -8 25 -29 11 -80 -5 -58 -19
7 -4 3 -12 -11 -20 -20 -13 -21 -13 -8 2 23 29 -5 20 -74 -24 -36 -22 -63 -44
-61 -48 3 -4 1 -13 -5 -21 -7 -12 -9 -10 -9 9 0 13 -8 30 -17 37 -22 16 -33
17 -33 4 0 -5 6 -10 14 -10 12 0 26 -20 26 -36 0 -2 -21 11 -47 30 -56 40
-113 69 -113 59 0 -4 -6 1 -12 10 -12 15 -20 13 -93 -29 -97 -55 -116 -71 -96
-83 10 -6 10 -10 1 -16 -8 -5 -11 -33 -9 -85 3 -54 -1 -83 -10 -94 -11 -13
-11 -19 0 -33 13 -15 12 -15 -6 -3 -19 11 -31 6 -108 -36 -72 -41 -85 -52 -81
-69 6 -19 5 -19 -8 -2 -7 10 -23 23 -35 30 -133 74 -174 99 -169 104 3 3 37
-13 76 -37 40 -23 74 -39 77 -36 3 3 -8 13 -25 23 -17 10 -51 30 -76 45 -35
21 -46 33 -45 50 2 20 2 21 6 3 2 -12 32 -37 77 -62 70 -41 104 -53 92 -34 -3
5 0 8 7 7 6 0 47 19 90 43 l77 45 0 70 c0 51 -4 74 -17 88 -16 18 -16 18 1 12
16 -6 17 -5 4 15 -11 18 -11 23 0 30 15 9 10 14 -45 44 -35 19 -47 22 -38 7 4
-6 -1 -7 -12 -3 -16 6 -17 5 -3 -13 11 -15 11 -16 0 -6 -15 13 -44 17 -36 4 2
-4 -4 -8 -14 -8 -11 0 -17 2 -14 5 2 3 -10 11 -27 18 -28 12 -35 10 -99 -25
-58 -31 -71 -35 -82 -23 -10 11 -10 12 0 7 10 -6 136 54 152 73 3 3 19 14 37
24 l32 18 101 -61 101 -61 82 47 c45 26 85 52 89 58 4 6 8 7 8 2 0 -6 5 -5 11
1 7 7 36 -5 97 -42 48 -29 96 -55 107 -59 14 -4 45 8 99 40 43 25 75 48 72 51
-3 3 -12 0 -21 -7 -9 -7 -18 -10 -21 -7 -3 3 8 13 25 22 20 10 31 12 31 4 0
-6 6 -9 14 -6 7 3 24 -2 36 -10 19 -13 24 -13 31 -2 8 13 13 6 10 -14 -1 -8
59 -47 73 -47 5 0 2 7 -5 17 -13 15 -12 15 8 2 14 -8 18 -16 11 -20 -7 -4 -2
-11 12 -19 12 -6 24 -9 28 -6 3 3 0 6 -6 6 -7 0 -12 5 -12 11 0 5 5 7 10 4 17
-11 11 17 -7 31 -17 13 -17 14 0 8 16 -6 17 13 16 337 -2 232 -6 349 -13 358
-8 11 -8 13 2 7 10 -6 13 29 11 182 l-2 189 -23 -11 c-26 -12 -34 -32 -9 -22
8 3 15 2 15 -3 0 -5 -9 -11 -20 -14 -11 -3 -18 -1 -14 4 12 20 -24 7 -82 -30
-60 -38 -61 -38 -85 -20 -13 10 -27 19 -31 19 -4 0 -31 14 -59 31 -38 24 -53
29 -59 20 -9 -16 -21 -16 -31 0 -6 11 -17 8 -51 -10 -24 -13 -60 -32 -80 -43
-21 -11 -38 -24 -38 -30 0 -5 -5 -6 -10 -3 -5 3 -10 1 -10 -4 -1 -6 -1 -56 -1
-111 0 -55 0 -104 1 -109 0 -5 12 -14 28 -20 15 -6 47 -24 72 -40 47 -31 104
-45 67 -17 -16 12 -16 14 -2 20 9 3 14 9 11 14 -2 4 4 8 14 8 10 0 17 -4 14
-8 -2 -4 4 -11 13 -17 10 -6 13 -11 8 -11 -6 0 -16 5 -23 12 -9 9 -15 9 -24 0
-9 -9 -7 -13 6 -18 14 -5 15 -9 5 -15 -22 -13 -2 -21 23 -9 21 10 21 10 6 -3
-10 -8 -18 -24 -18 -36 0 -12 -4 -20 -10 -16 -5 3 -7 12 -4 19 7 20 -135 100
-152 85 -10 -8 -19 -7 -34 4 -15 11 -18 16 -8 20 7 2 10 7 7 11 -9 10 -60 -15
-53 -26 3 -4 10 -6 15 -3 5 4 9 1 9 -4 0 -15 -27 -14 -32 0 -2 7 -32 -6 -72
-30 -56 -35 -70 -40 -83 -29 -13 10 -15 9 -11 -7 2 -12 10 -19 21 -17 9 2 17
-2 17 -8 0 -17 -29 -11 -60 12 -35 26 -40 43 -7 28 22 -11 22 -11 2 5 -27 22
-134 85 -145 85 -14 0 -15 14 -12 132 l3 113 39 18 c21 10 65 35 99 57 l61 40
65 -40 c36 -22 68 -40 71 -40 3 0 18 -9 33 -19 l27 -19 84 49 c47 27 93 52
103 55 13 5 17 16 16 48 -2 41 -2 41 -8 8 -5 -28 -16 -40 -63 -68 -32 -18 -58
-30 -58 -25 0 4 16 16 35 27 19 10 35 22 35 26 0 5 6 8 14 8 17 0 25 18 18 43
-4 15 -21 17 -178 17 -109 0 -174 -4 -174 -10 0 -5 6 -10 13 -10 8 0 8 -3 -2
-9 -22 -14 -4 -31 76 -71 37 -19 70 -38 71 -42 5 -11 42 -10 42 1 0 5 9 11 20
14 11 3 20 1 20 -5 0 -5 -9 -12 -20 -15 -11 -3 -20 -9 -20 -14 0 -19 -32 -7
-109 41 -44 28 -85 50 -91 50 -5 0 -10 5 -10 11 0 8 -4 8 -12 1 -7 -5 -29 -19
-48 -30 -19 -10 -51 -29 -71 -41 -31 -18 -38 -19 -42 -7 -4 10 -1 13 9 9 17
-6 46 15 38 28 -3 5 3 6 12 2 12 -4 15 -3 10 5 -5 8 -2 10 9 6 10 -4 15 -2 13
7 -2 9 4 13 16 11 12 -2 16 1 10 9 -5 9 -2 10 9 6 14 -5 17 0 16 26 -1 23 -3
26 -6 10 -2 -13 -8 -23 -13 -23 -4 0 -6 9 -3 20 5 19 0 20 -181 20 -159 0
-186 -2 -186 -15 0 -8 7 -15 15 -15 8 0 15 -9 15 -19 0 -13 20 -31 66 -56 36
-20 68 -35 71 -32 2 3 -25 23 -61 43 -36 21 -66 45 -66 53 0 13 2 13 13 -1 6
-8 40 -32 75 -53 47 -28 67 -34 75 -26 6 6 15 11 21 11 5 0 1 -7 -10 -15 -19
-15 -19 -16 1 -13 11 2 21 -4 23 -14 2 -11 -4 -18 -20 -20 -23 -3 -23 -5 -24
-130 -1 -71 2 -128 7 -128 5 0 9 -4 9 -10 0 -5 -4 -10 -9 -10 -5 0 -45 -21
-90 -46 -55 -31 -81 -51 -81 -63 0 -10 -9 -21 -20 -24 -16 -4 -20 0 -20 18 0
13 -4 26 -9 29 -5 3 -9 -50 -9 -124 1 -143 14 -189 17 -57 2 90 11 121 11 39
0 -29 4 -52 9 -52 5 0 9 16 9 36 0 19 3 38 6 41 3 4 6 -24 6 -61 0 -51 3 -65
13 -60 9 6 8 3 -1 -8 -8 -9 -19 -15 -27 -12 -7 3 -16 1 -20 -5 -3 -6 -1 -11 6
-11 7 0 9 -3 6 -6 -10 -10 -58 26 -51 38 4 6 1 9 -7 6 -8 -3 -14 -10 -14 -15
0 -6 -4 -15 -9 -20 -5 -5 -6 -3 -2 5 9 16 1 15 -35 -4 -27 -13 -29 -17 -17
-32 12 -15 11 -16 -4 -4 -24 19 -44 5 -24 -17 9 -10 13 -20 10 -24 -4 -3 -14
3 -23 14 -15 19 -16 12 -13 -108 3 -136 10 -180 22 -128 l6 30 5 -37 c5 -37 4
-37 -17 -23 -12 8 -24 11 -28 8 -3 -3 3 -11 13 -17 11 -6 53 -30 95 -53 41
-24 78 -48 82 -55 12 -18 11 -59 -1 -55 -5 2 -10 12 -10 23 0 10 -4 25 -8 32
-13 19 -86 54 -99 46 -7 -4 -8 -3 -4 4 7 12 -69 56 -83 48 -4 -3 -8 1 -8 9 0
8 6 16 14 19 16 6 19 211 3 221 -6 4 -10 -31 -10 -99 0 -58 -3 -107 -8 -109
-4 -3 -6 45 -4 106 l2 112 -99 59 c-55 33 -99 64 -98 69 1 5 -4 12 -12 15 -9
3 -11 0 -6 -8 5 -9 4 -11 -3 -6 -15 9 -55 -18 -44 -29 4 -5 1 -5 -5 -1 -16 9
-96 -37 -86 -49 5 -4 2 -5 -4 -1 -7 4 -13 2 -13 -3 0 -6 -7 -11 -15 -11 -8 0
-15 -7 -15 -16 0 -8 -4 -12 -10 -9 -12 8 8 42 30 49 8 3 47 26 85 51 39 24 76
45 83 45 10 0 13 22 10 100 -2 54 0 96 4 92 4 -4 8 -52 9 -107 1 -55 4 -105 6
-112 6 -15 202 -128 209 -120 3 3 -3 10 -13 16 -10 5 -32 18 -49 28 -17 10
-54 31 -82 47 -29 16 -50 31 -48 34 3 2 44 -18 93 -46 48 -28 90 -48 93 -46 3
3 -3 11 -12 17 -48 34 -50 36 -16 18 l37 -20 75 42 76 42 0 101 0 100 -82 47
c-46 26 -78 47 -73 47 6 0 41 -18 79 -40 73 -43 76 -44 76 -32 0 4 -34 27 -75
50 -62 34 -79 40 -95 32 -14 -8 -20 -8 -20 0 0 6 -6 8 -12 4 -8 -5 -7 0 2 11
14 17 13 18 -5 12 -19 -7 -19 -6 -2 7 25 20 25 202 0 222 -16 12 -16 13 -1 8
11 -4 18 1 23 15 7 23 20 27 30 11 4 -6 1 -9 -7 -8 -10 2 -14 -27 -16 -134 -1
-85 1 -138 7 -138 6 0 9 51 8 130 -1 72 1 130 6 130 4 0 7 -55 7 -123 l0 -123
91 -52 c98 -56 99 -57 99 -42 0 6 -4 10 -8 10 -5 0 -47 22 -93 50 -46 27 -79
50 -73 50 7 0 43 -18 80 -40 38 -22 74 -40 81 -40 6 0 13 -5 15 -11 2 -6 41
11 91 41 l88 51 -3 106 -3 105 -65 38 c-36 21 -80 51 -98 65 -28 24 -32 32
-26 61 l6 33 -391 1 -391 0 0 -605z m106 559 c1 -9 -1 -13 -4 -9 -4 4 -7 10
-7 13 0 4 -4 14 -9 22 -7 12 -6 13 4 3 8 -7 15 -20 16 -29z m1441 4 c-3 -7 -5
-2 -5 12 0 14 2 19 5 13 2 -7 2 -19 0 -25z m-1226 9 c-6 -8 -8 -16 -5 -19 3
-3 1 -9 -4 -12 -6 -3 -9 0 -8 6 2 16 15 38 23 38 3 0 0 -6 -6 -13z m-231 -33
c0 -2 -9 0 -20 6 -11 6 -20 13 -20 16 0 2 9 0 20 -6 11 -6 20 -13 20 -16z
m340 1 c14 -19 14 -19 -2 -6 -10 7 -18 18 -18 24 0 6 1 8 3 6 1 -2 9 -13 17
-24z m327 6 c0 -11 -5 -17 -9 -15 -12 7 -49 -16 -43 -26 4 -6 -1 -7 -11 -3
-13 5 -15 3 -9 -7 5 -9 4 -11 -3 -6 -6 4 -21 2 -32 -4 -16 -9 -19 -15 -10 -25
8 -9 8 -15 0 -20 -6 -4 -9 -1 -8 7 2 7 -5 12 -14 12 -32 -3 -18 10 60 57 42
26 78 47 79 48 1 0 1 -8 0 -18z m-581 -35 c0 -14 -3 -23 -7 -20 -6 3 -6 22 0
42 3 10 7 -2 7 -22z m344 -2 c0 -2 -9 0 -20 6 -11 6 -20 13 -20 16 0 2 9 0 20
-6 11 -6 20 -13 20 -16z m95 -14 c-3 -5 -12 -10 -18 -10 -7 0 -6 4 3 10 19 12
23 12 15 0z m170 0 c-3 -5 -12 -10 -18 -10 -7 0 -6 4 3 10 19 12 23 12 15 0z
m625 -11 c0 -14 -16 -11 -29 5 -10 12 -8 13 8 9 12 -3 21 -9 21 -14z m-865
-17 c-3 -3 -11 0 -18 7 -9 10 -8 11 6 5 10 -3 15 -9 12 -12z m1050 8 c3 -6 -1
-7 -9 -4 -18 7 -21 14 -7 14 6 0 13 -4 16 -10z m-1255 -14 c0 -2 -7 -7 -16
-10 -8 -3 -12 -2 -9 4 6 10 25 14 25 6z m210 -22 c0 -2 -9 0 -20 6 -11 6 -20
13 -20 16 0 2 9 0 20 -6 11 -6 20 -13 20 -16z m1375 16 c-3 -5 -12 -10 -18
-10 -7 0 -6 4 3 10 19 12 23 12 15 0z m-175 -36 c0 -2 -9 0 -20 6 -11 6 -20
13 -20 16 0 2 9 0 20 -6 11 -6 20 -13 20 -16z m-1706 -6 c-5 -7 -2 -9 8 -6 8
4 15 0 15 -8 0 -19 -30 -1 -33 20 -1 9 2 14 7 10 5 -3 6 -10 3 -16z m626 17
c0 -2 -10 -9 -22 -15 -22 -11 -22 -10 -4 4 21 17 26 19 26 11z m1204 -10 c-4
-8 -10 -12 -15 -9 -11 6 -2 24 11 24 5 0 7 -7 4 -15z m-1632 -17 c-5 -7 -12
-22 -15 -33 -5 -20 -5 -20 -6 1 0 11 4 25 11 32 16 16 23 15 10 0z m1551 -2
c9 -7 17 -18 17 -25 0 -15 17 -14 23 2 4 9 6 9 6 0 1 -7 -8 -17 -19 -23 -17
-9 -20 -8 -20 8 0 11 -10 27 -22 35 -13 9 -18 16 -13 16 6 0 18 -6 28 -13z
m-1644 -50 l-2 -31 -4 30 c-3 17 -10 37 -16 45 -10 13 -10 13 6 1 10 -8 16
-25 16 -45z m1291 40 c0 -3 -4 -8 -10 -11 -5 -3 -10 -1 -10 4 0 6 5 11 10 11
6 0 10 -2 10 -4z m329 -15 c13 -10 20 -20 15 -23 -5 -2 -20 6 -33 19 -29 27
-16 30 18 4z m101 9 c0 -5 -5 -10 -11 -10 -5 0 -7 5 -4 10 3 6 8 10 11 10 2 0
4 -4 4 -10z m-1623 -52 c-3 -8 -6 -5 -6 6 -1 11 2 17 5 13 3 -3 4 -12 1 -19z
m-20 -20 c-3 -8 -6 -5 -6 6 -1 11 2 17 5 13 3 -3 4 -12 1 -19z m1569 -54 c8 3
14 1 14 -4 0 -6 -6 -10 -14 -10 -8 0 -17 -6 -19 -12 -3 -7 -5 7 -5 32 1 29 2
35 5 17 3 -20 9 -27 19 -23z m-369 14 c-3 -8 -6 -5 -6 6 -1 11 2 17 5 13 3 -3
4 -12 1 -19z m-1280 -20 c-3 -8 -6 -5 -6 6 -1 11 2 17 5 13 3 -3 4 -12 1 -19z
m1693 -18 c0 -5 -2 -10 -4 -10 -3 0 -8 5 -11 10 -3 6 -1 10 4 10 6 0 11 -4 11
-10z m-1710 -12 c0 -5 5 -6 10 -3 17 10 11 -2 -7 -16 -10 -7 -15 -9 -11 -5 4
5 0 14 -8 21 -15 11 -15 12 0 12 9 0 16 -4 16 -9z m1340 -10 c0 -6 -6 -5 -15
2 -8 7 -15 14 -15 16 0 2 7 1 15 -2 8 -4 15 -11 15 -16z m280 13 c0 -5 -7 -12
-16 -15 -14 -5 -15 -4 -4 9 14 17 20 19 20 6z m81 -16 c5 4 9 1 9 -5 0 -7 -7
-9 -16 -6 -9 3 -20 6 -25 6 -4 0 -6 7 -2 16 5 15 7 15 15 0 5 -9 13 -14 19
-11z m57 -73 c9 -7 -2 -3 -25 9 -24 12 -41 25 -38 27 2 3 12 -1 21 -9 14 -11
16 -10 14 6 -1 11 -1 31 1 45 1 14 4 6 6 -19 3 -26 12 -51 21 -59z m-933 68
c-3 -5 -11 -10 -16 -10 -6 0 -7 5 -4 10 3 6 11 10 16 10 6 0 7 -4 4 -10z m809
-15 c-10 -8 -23 -14 -29 -14 -5 -1 1 8 15 19 14 10 27 17 29 14 3 -2 -4 -11
-15 -19z m-299 -5 c3 -5 2 -10 -4 -10 -5 0 -13 5 -16 10 -3 6 -2 10 4 10 5 0
13 -4 16 -10z m335 -11 c-12 -8 -12 -12 -2 -16 10 -4 8 -9 -8 -20 -16 -11 -24
-12 -35 -3 -8 6 -20 8 -27 4 -10 -5 -10 -4 -1 6 10 11 15 11 27 1 16 -14 40
-6 30 10 -3 5 -10 7 -15 4 -5 -3 -6 1 -3 9 3 9 10 14 14 11 5 -3 12 0 15 6 4
5 10 8 13 4 4 -3 0 -11 -8 -16z m-1278 -31 c-9 -9 -12 -9 -12 0 0 7 -4 12 -10
12 -5 0 -7 -8 -4 -17 5 -15 4 -16 -5 -3 -8 11 -7 18 6 28 21 15 43 -2 25 -20z
m1198 27 c0 -2 -10 -9 -22 -15 -22 -11 -22 -10 -4 4 21 17 26 19 26 11z m200
-21 c0 -2 -9 0 -20 6 -11 6 -20 13 -20 16 0 2 9 0 20 -6 11 -6 20 -13 20 -16z
m-890 2 c0 -8 -8 -13 -17 -12 -10 0 -17 -4 -16 -11 2 -7 -4 -10 -12 -7 -12 5
-10 10 8 25 27 22 37 24 37 5z m794 -32 c-35 -18 -37 -18 -16 4 9 10 23 17 30
14 8 -3 3 -10 -14 -18z m-134 -4 c-29 -23 -40 -25 -40 -8 0 6 3 8 6 5 4 -3 16
0 28 8 30 22 35 18 6 -5z m297 3 c0 -8 -6 -9 -19 -2 -10 5 -18 11 -18 12 0 2
8 3 18 3 10 0 19 -6 19 -13z m-1511 -8 c-3 -23 -12 -26 -13 -5 -1 11 2 20 7
20 4 0 7 -7 6 -15z m-38 -11 c-7 -7 -24 -15 -38 -18 l-25 -7 23 14 c12 7 20
15 18 18 -3 3 4 5 14 5 16 0 17 -3 8 -12z m-343 -4 c-3 -5 -12 -10 -18 -10 -7
0 -6 4 3 10 19 12 23 12 15 0z m1765 -16 c0 -2 -9 0 -20 6 -11 6 -20 13 -20
16 0 2 9 0 20 -6 11 -6 20 -13 20 -16z m130 6 c0 -5 -4 -10 -9 -10 -6 0 -13 5
-16 10 -3 6 1 10 9 10 9 0 16 -4 16 -10z m-445 -10 c3 -5 2 -10 -4 -10 -5 0
-13 5 -16 10 -3 6 -2 10 4 10 5 0 13 -4 16 -10z m116 -13 c-10 -9 -11 -8 -5 6
3 10 9 15 12 12 3 -3 0 -11 -7 -18z m284 13 c3 -5 2 -10 -4 -10 -5 0 -13 5
-16 10 -3 6 -2 10 4 10 5 0 13 -4 16 -10z m-693 -22 c-4 -16 -2 -19 9 -13 12
8 12 6 0 -8 -19 -24 -27 -21 -25 11 3 34 2 32 13 32 5 0 7 -10 3 -22z m328 -3
c0 -8 -2 -15 -4 -15 -2 0 -6 7 -10 15 -3 8 -1 15 4 15 6 0 10 -7 10 -15z m52
-7 c-7 -7 -12 -8 -12 -2 0 6 3 14 7 17 3 4 9 5 12 2 2 -3 -1 -11 -7 -17z m348
12 c0 -5 -2 -10 -4 -10 -3 0 -8 5 -11 10 -3 6 -1 10 4 10 6 0 11 -4 11 -10z
m-1880 -5 c0 -2 -10 -9 -22 -15 -22 -11 -22 -10 -4 4 21 17 26 19 26 11z
m1846 -23 c-4 -3 -14 2 -24 12 -16 18 -16 18 6 6 13 -6 21 -14 18 -18z m-401
8 c3 -5 2 -10 -4 -10 -5 0 -13 5 -16 10 -3 6 -2 10 4 10 5 0 13 -4 16 -10z
m125 2 c0 -5 -12 -14 -27 -21 l-28 -12 25 21 c29 22 30 23 30 12z m-1233 -64
c-2 -13 -4 -5 -4 17 -1 22 1 32 4 23 2 -10 2 -28 0 -40z m771 42 c14 0 12 -4
-6 -18 -16 -12 -21 -24 -17 -37 6 -18 6 -18 -5 -2 -6 9 -8 22 -5 28 4 5 1 17
-7 26 -11 15 -11 16 5 10 10 -4 26 -7 35 -7z m-391 -42 c-3 -7 -5 -2 -5 12 0
14 2 19 5 13 2 -7 2 -19 0 -25z m793 22 c0 -5 -2 -10 -4 -10 -3 0 -8 5 -11 10
-3 6 -1 10 4 10 6 0 11 -4 11 -10z m367 -22 c-3 -8 -6 -5 -6 6 -1 11 2 17 5
13 3 -3 4 -12 1 -19z m-730 -20 c-3 -7 -5 -2 -5 12 0 14 2 19 5 13 2 -7 2 -19
0 -25z m360 -15 c-3 -10 -5 -4 -5 12 0 17 2 24 5 18 2 -7 2 -21 0 -30z m-392
18 c3 -5 1 -12 -5 -16 -5 -3 -10 1 -10 9 0 18 6 21 15 7z m-778 -73 c-3 -7 -5
-2 -5 12 0 14 2 19 5 13 2 -7 2 -19 0 -25z m783 22 c0 -5 -3 -10 -7 -10 -5 0
-19 -3 -33 -6 -24 -5 -24 -5 -6 10 22 18 46 21 46 6z m406 -5 c18 -15 18 -15
-7 -9 -16 3 -39 -1 -58 -10 -41 -21 -40 -14 2 13 39 25 38 25 63 6z m-366 -19
c14 -18 14 -19 -8 -7 -12 7 -20 17 -16 22 3 6 7 9 8 7 1 -2 8 -12 16 -22z
m704 -1 c-10 -8 -23 -14 -29 -14 -5 -1 1 8 15 19 14 10 27 17 29 14 3 -2 -4
-11 -15 -19z m-1549 -5 c3 -5 1 -10 -4 -10 -6 0 -11 5 -11 10 0 6 2 10 4 10 3
0 8 -4 11 -10z m1255 0 c0 -5 -2 -10 -4 -10 -3 0 -8 5 -11 10 -3 6 -1 10 4 10
6 0 11 -4 11 -10z m-450 -11 c0 -6 -7 -9 -14 -6 -16 6 -32 -26 -21 -43 3 -5 1
-10 -4 -10 -6 0 -12 5 -12 10 -1 6 -2 16 -3 23 -1 6 2 18 7 25 12 15 47 16 47
1z m390 1 c0 -5 -4 -10 -9 -10 -5 0 -18 -3 -28 -6 -16 -5 -16 -4 1 10 23 18
36 20 36 6z m375 1 c3 -5 1 -12 -5 -16 -5 -3 -10 1 -10 9 0 18 6 21 15 7z
m-350 -11 c3 -5 1 -10 -4 -10 -6 0 -11 5 -11 10 0 6 2 10 4 10 3 0 8 -4 11
-10z m-385 -10 c0 -5 -2 -10 -4 -10 -3 0 -8 5 -11 10 -3 6 -1 10 4 10 6 0 11
-4 11 -10z m-385 -9 c3 -5 2 -12 -3 -15 -5 -3 -9 1 -9 9 0 17 3 19 12 6z m282
-11 c-3 -11 -1 -20 4 -20 5 0 9 -4 9 -10 0 -18 -22 -10 -27 10 -3 11 -10 17
-17 14 -6 -3 -2 2 8 10 26 21 29 20 23 -4z m103 -12 c0 -12 -13 -9 -32 6 -26
19 -22 26 7 13 14 -7 25 -15 25 -19z m387 11 c31 -20 33 -22 16 -35 -21 -16
-33 -18 -33 -5 0 5 8 11 17 13 14 2 12 6 -8 20 -25 16 -28 15 -90 -22 -35 -21
-81 -48 -102 -59 l-39 -22 -34 22 c-19 12 -33 24 -30 26 3 3 18 -5 35 -16 30
-21 31 -21 58 -4 22 14 24 19 10 21 -21 4 -23 19 -2 19 8 0 15 -4 15 -9 0 -16
21 -8 83 32 34 22 64 40 66 40 2 0 19 -9 38 -21z m38 11 c3 -5 2 -10 -4 -10
-5 0 -13 5 -16 10 -3 6 -2 10 4 10 5 0 13 -4 16 -10z m-1155 -26 c0 -2 -9 0
-20 6 -11 6 -20 13 -20 16 0 2 9 0 20 -6 11 -6 20 -13 20 -16z m435 8 c-3 -3
-11 0 -18 7 -9 10 -8 11 6 5 10 -3 15 -9 12 -12z m330 8 c3 -6 -1 -7 -9 -4
-18 7 -21 14 -7 14 6 0 13 -4 16 -10z m700 0 c3 -5 1 -10 -4 -10 -6 0 -11 5
-11 10 0 6 2 10 4 10 3 0 8 -4 11 -10z m-888 -24 c0 -9 -6 -12 -16 -8 -14 5
-14 4 -1 -14 11 -15 11 -16 0 -6 -21 19 -32 14 -18 -8 17 -27 4 -36 -20 -12
-19 19 -19 20 17 41 20 11 36 21 37 21 0 0 1 -6 1 -14z m508 4 c3 -5 1 -10 -4
-10 -6 0 -11 5 -11 10 0 6 2 10 4 10 3 0 8 -4 11 -10z m366 -15 c5 4 9 1 9 -4
0 -14 -13 -14 -27 0 -8 8 -17 8 -34 -1 -23 -11 -23 -11 1 9 21 17 26 18 33 5
5 -8 12 -12 18 -9z m-1351 11 c0 -2 -7 -7 -16 -10 -8 -3 -12 -2 -9 4 6 10 25
14 25 6z m254 -4 c3 -5 -1 -9 -9 -9 -8 0 -12 4 -9 9 3 4 7 8 9 8 2 0 6 -4 9
-8z m61 -1 c3 -5 2 -12 -3 -15 -5 -3 -9 1 -9 9 0 17 3 19 12 6z m75 -5 c-7 -7
-13 -7 -20 0 -6 6 -3 10 10 10 13 0 16 -4 10 -10z m220 4 c0 -5 -7 -10 -15
-10 -8 0 -15 5 -15 10 0 6 7 10 15 10 8 0 15 -4 15 -10z m180 -4 c-7 -7 -13
-7 -20 0 -6 6 -3 10 10 10 13 0 16 -4 10 -10z m405 4 c-3 -5 -12 -10 -18 -10
-7 0 -6 4 3 10 19 12 23 12 15 0z m-1104 -17 c13 -16 12 -17 -3 -4 -10 7 -18
15 -18 17 0 8 8 3 21 -13z m609 -9 c0 -2 -9 0 -20 6 -11 6 -20 13 -20 16 0 2
9 0 20 -6 11 -6 20 -13 20 -16z m260 16 c0 -5 -4 -10 -10 -10 -5 0 -10 5 -10
10 0 6 5 10 10 10 6 0 10 -4 10 -10z m-1240 -5 c0 -2 -10 -9 -22 -15 -22 -11
-22 -10 -4 4 21 17 26 19 26 11z m640 -6 c0 -4 -7 -9 -15 -13 -8 -3 -15 -10
-15 -16 0 -7 8 -5 21 4 21 15 48 11 61 -8 12 -18 -3 -26 -19 -10 -15 15 -18
15 -29 -1 -10 -14 -15 -14 -33 -3 -23 14 -26 29 -11 44 12 12 40 14 40 3z
m210 7 c0 -3 -4 -8 -10 -11 -5 -3 -10 -1 -10 4 0 6 5 11 10 11 6 0 10 -2 10
-4z m190 -8 c0 -4 -4 -8 -9 -8 -6 0 -12 4 -15 8 -3 5 1 9 9 9 8 0 15 -4 15 -9z
m395 -6 c-3 -3 -11 0 -18 7 -9 10 -8 11 6 5 10 -3 15 -9 12 -12z m83 0 c8 -7
11 -16 7 -20 -4 -4 -10 -1 -12 6 -5 14 -33 17 -33 3 0 -5 6 -11 12 -13 8 -3 3
-10 -12 -18 -23 -12 -24 -12 -11 3 12 15 11 17 -3 17 -9 0 -16 5 -16 10 0 6 7
10 15 10 8 0 15 5 15 10 0 13 21 9 38 -8z m-248 -2 c0 -5 -4 -10 -10 -10 -5 0
-10 5 -10 10 0 6 5 10 10 10 6 0 10 -4 10 -10z m-205 -10 c3 -5 1 -10 -4 -10
-6 0 -11 5 -11 10 0 6 2 10 4 10 3 0 8 -4 11 -10z m365 -10 c14 -11 21 -20 15
-20 -5 0 -21 9 -35 20 -14 11 -20 20 -15 20 6 0 21 -9 35 -20z m-1480 5 c0 -2
-13 -11 -30 -20 -38 -19 -40 -11 -2 9 31 17 32 18 32 11z m1060 -31 c0 -2 -9
0 -20 6 -11 6 -20 13 -20 16 0 2 9 0 20 -6 11 -6 20 -13 20 -16z m400 0 c0 -2
-9 0 -20 6 -11 6 -20 13 -20 16 0 2 9 0 20 -6 11 -6 20 -13 20 -16z m-280 6
c0 -5 -5 -10 -11 -10 -5 0 -7 5 -4 10 3 6 8 10 11 10 2 0 4 -4 4 -10z m404
-17 c0 -15 -6 -29 -12 -31 -6 -2 -8 6 -5 20 5 19 3 21 -8 11 -7 -7 -18 -13
-23 -13 -11 0 33 39 44 40 3 0 5 -12 4 -27z m-864 7 c0 -5 -4 -10 -10 -10 -5
0 -10 5 -10 10 0 6 5 10 10 10 6 0 10 -4 10 -10z m-818 -147 c2 -44 0 -79 -4
-76 -5 2 -7 55 -6 116 1 116 6 101 10 -40z m753 137 c3 -5 1 -10 -4 -10 -6 0
-11 5 -11 10 0 6 2 10 4 10 3 0 8 -4 11 -10z m125 0 c0 -5 -5 -10 -11 -10 -5
0 -7 5 -4 10 3 6 8 10 11 10 2 0 4 -4 4 -10z m310 0 c0 -5 -2 -10 -4 -10 -3 0
-8 5 -11 10 -3 6 -1 10 4 10 6 0 11 -4 11 -10z m400 0 c0 -5 -2 -10 -4 -10 -3
0 -8 5 -11 10 -3 6 -1 10 4 10 6 0 11 -4 11 -10z m-370 -10 c0 -5 -5 -10 -11
-10 -5 0 -7 5 -4 10 3 6 8 10 11 10 2 0 4 -4 4 -10z m60 -5 c0 -8 -4 -15 -10
-15 -5 0 -7 7 -4 15 4 8 8 15 10 15 2 0 4 -7 4 -15z m340 -1 c0 -8 -5 -12 -10
-9 -6 4 -8 11 -5 16 9 14 15 11 15 -7z m-1173 -16 c-3 -8 -6 -5 -6 6 -1 11 2
17 5 13 3 -3 4 -12 1 -19z m389 7 c-23 -17 -36 -19 -36 -6 0 5 8 12 18 14 32
9 37 6 18 -8z m754 -11 c0 -8 -5 -12 -10 -9 -6 4 -8 11 -5 16 9 14 15 11 15
-7z m-400 -4 c0 -5 -2 -10 -4 -10 -3 0 -8 5 -11 10 -3 6 -1 10 4 10 6 0 11 -4
11 -10z m30 -10 c0 -5 -2 -10 -4 -10 -3 0 -8 5 -11 10 -3 6 -1 10 4 10 6 0 11
-4 11 -10z m400 0 c0 -5 -5 -10 -11 -10 -5 0 -7 5 -4 10 3 6 8 10 11 10 2 0 4
-4 4 -10z m-1173 -47 c-3 -10 -5 -4 -5 12 0 17 2 24 5 18 2 -7 2 -21 0 -30z
m830 15 c-3 -8 -6 -5 -6 6 -1 11 2 17 5 13 3 -3 4 -12 1 -19z m-90 -30 c-3 -7
-5 -2 -5 12 0 14 2 19 5 13 2 -7 2 -19 0 -25z m430 10 c-3 -8 -6 -5 -6 6 -1
11 2 17 5 13 3 -3 4 -12 1 -19z m-30 -40 c-3 -8 -6 -5 -6 6 -1 11 2 17 5 13 3
-3 4 -12 1 -19z m33 -14 c0 -8 -5 -12 -10 -9 -6 4 -8 11 -5 16 9 14 15 11 15
-7z m-30 -14 c0 -5 -5 -10 -11 -10 -5 0 -7 5 -4 10 3 6 8 10 11 10 2 0 4 -4 4
-10z m92 -34 c-7 -13 -21 16 -14 32 4 13 7 12 12 -4 4 -10 5 -23 2 -28z m-462
24 c0 -5 -2 -10 -4 -10 -3 0 -8 5 -11 10 -3 6 -1 10 4 10 6 0 11 -4 11 -10z
m-30 -10 c0 -5 -5 -10 -11 -10 -5 0 -7 5 -4 10 3 6 8 10 11 10 2 0 4 -4 4 -10z
m430 0 c0 -5 -5 -10 -11 -10 -5 0 -7 5 -4 10 3 6 8 10 11 10 2 0 4 -4 4 -10z
m-460 -14 c0 -3 -4 -8 -10 -11 -5 -3 -10 -1 -10 4 0 6 5 11 10 11 6 0 10 -2
10 -4z m129 -9 c8 -10 7 -14 -4 -14 -8 0 -16 6 -19 14 -3 7 -2 13 3 13 5 0 14
-6 20 -13z m366 3 c3 -5 2 -10 -4 -10 -5 0 -13 5 -16 10 -3 6 -2 10 4 10 5 0
13 -4 16 -10z m-1675 -16 c0 -8 -5 -12 -10 -9 -6 4 -8 11 -5 16 9 14 15 11 15
-7z m375 -4 c-3 -5 -11 -10 -16 -10 -6 0 -7 5 -4 10 3 6 11 10 16 10 6 0 7 -4
4 -10z m1270 -20 c3 -5 -1 -10 -9 -10 -9 0 -16 5 -16 10 0 6 4 10 9 10 6 0 13
-4 16 -10z m-1610 -10 c3 -6 -1 -7 -9 -4 -18 7 -21 14 -7 14 6 0 13 -4 16 -10z
m360 0 c3 -5 13 -6 22 -3 10 4 14 2 10 -4 -4 -7 24 -29 68 -55 41 -23 75 -46
75 -50 0 -4 -28 10 -62 32 -35 22 -71 40 -81 40 -10 0 -15 5 -12 10 11 17 -4
11 -73 -28 -73 -43 -121 -63 -90 -39 10 8 14 18 10 23 -4 5 -3 6 2 2 17 -14
29 -9 17 6 -9 11 -9 16 0 22 7 4 9 3 5 -4 -14 -23 16 -22 59 4 37 21 43 29 34
40 -8 9 -8 14 -1 14 6 0 13 -4 17 -10z m1031 -21 c3 -6 16 -8 28 -5 21 5 21 5
1 -10 -12 -9 -21 -11 -23 -4 -2 5 -10 10 -18 10 -8 0 -14 5 -14 10 0 13 17 13
26 -1z m-1411 -9 c-3 -5 0 -10 7 -11 10 0 10 -2 0 -6 -6 -2 -10 -9 -7 -13 3
-5 1 -11 -3 -14 -5 -3 -8 7 -6 22 2 32 2 32 10 32 3 0 2 -4 -1 -10z m775 4 c0
-2 -9 -8 -19 -13 -14 -8 -20 -7 -24 2 -3 7 5 13 19 13 13 1 24 0 24 -2z m123
-9 c-3 -9 -8 -14 -10 -11 -3 3 -2 9 2 15 9 16 15 13 8 -4z m327 11 c0 -2 -7
-7 -16 -10 -8 -3 -12 -2 -9 4 6 10 25 14 25 6z m406 -8 c4 -7 3 -8 -5 -4 -6 4
-20 2 -29 -6 -15 -12 -16 -11 -3 5 16 20 27 22 37 5z m-691 -38 c3 -6 -1 -7
-9 -4 -18 7 -21 14 -7 14 6 0 13 -4 16 -10z m839 -5 c11 -8 18 -17 15 -19 -2
-3 -15 4 -29 14 -14 11 -20 20 -15 19 6 0 19 -6 29 -14z m-1044 0 c0 -2 -10
-9 -22 -15 -22 -11 -22 -10 -4 4 21 17 26 19 26 11z m-635 -14 c3 -5 2 -12 -3
-15 -5 -3 -9 1 -9 9 0 17 3 19 12 6z m549 2 c-5 -5 -12 -12 -16 -18 -4 -6 -8
-2 -8 8 0 9 7 17 17 17 9 0 12 -3 7 -7z m-527 -35 c2 -17 0 -19 -7 -8 -5 8 -6
18 -4 22 8 12 10 10 11 -14z m450 0 c-3 -8 -6 -5 -6 6 -1 11 2 17 5 13 3 -3 4
-12 1 -19z m798 12 c3 -5 2 -10 -4 -10 -5 0 -13 5 -16 10 -3 6 -2 10 4 10 5 0
13 -4 16 -10z m395 0 c0 -5 -2 -10 -4 -10 -3 0 -8 5 -11 10 -3 6 -1 10 4 10 6
0 11 -4 11 -10z m-1100 -4 c0 -3 -4 -8 -10 -11 -5 -3 -10 -1 -10 4 0 6 5 11
10 11 6 0 10 -2 10 -4z m798 -10 c-7 -8 -15 -12 -17 -11 -5 6 10 25 20 25 5 0
4 -6 -3 -14z m-58 -24 c0 -15 -2 -15 -10 -2 -13 20 -13 33 0 25 6 -3 10 -14
10 -23z m390 18 c0 -5 -2 -10 -4 -10 -3 0 -8 5 -11 10 -3 6 -1 10 4 10 6 0 11
-4 11 -10z m-1193 -82 c-2 -13 -4 -5 -4 17 -1 22 1 32 4 23 2 -10 2 -28 0 -40z
m30 0 c-3 -7 -5 -2 -5 12 0 14 2 19 5 13 2 -7 2 -19 0 -25z m1160 10 c-3 -8
-6 -5 -6 6 -1 11 2 17 5 13 3 -3 4 -12 1 -19z m-1240 -25 c-3 -10 -5 -4 -5 12
0 17 2 24 5 18 2 -7 2 -21 0 -30z m810 5 c-3 -8 -6 -5 -6 6 -1 11 2 17 5 13 3
-3 4 -12 1 -19z m425 -30 c-8 -8 -9 -4 -5 13 4 13 8 18 11 10 2 -7 -1 -18 -6
-23z m-391 -1 c-10 -9 -11 -8 -5 6 3 10 9 15 12 12 3 -3 0 -11 -7 -18z m-1284
-12 c0 -8 -4 -12 -9 -9 -5 3 -6 10 -3 15 9 13 12 11 12 -6z m495 -10 c3 -14 1
-28 -5 -32 -6 -3 -7 -1 -3 5 4 7 3 12 -2 12 -6 0 -8 9 -5 20 7 26 10 25 15 -5z
m-52 10 c0 -2 -10 -9 -22 -15 -22 -11 -22 -10 -4 4 21 17 26 19 26 11z m815
-5 c-3 -5 -11 -10 -16 -10 -6 0 -7 5 -4 10 3 6 11 10 16 10 6 0 7 -4 4 -10z
m390 0 c-3 -5 -11 -10 -16 -10 -6 0 -7 5 -4 10 3 6 11 10 16 10 6 0 7 -4 4
-10z m-1670 -9 c3 -5 2 -12 -3 -15 -5 -3 -9 1 -9 9 0 17 3 19 12 6z m1005 -27
c0 -2 -9 0 -20 6 -11 6 -20 13 -20 16 0 2 9 0 20 -6 11 -6 20 -13 20 -16z
m-1106 -5 c-3 -5 -10 -7 -15 -3 -5 3 -7 10 -3 15 3 5 10 7 15 3 5 -3 7 -10 3
-15z m496 6 c0 -2 -10 -9 -22 -15 -22 -11 -22 -10 -4 4 21 17 26 19 26 11z
m95 -4 c3 -5 2 -12 -3 -15 -5 -3 -9 1 -9 9 0 17 3 19 12 6z m495 -15 c0 -2 -8
-10 -17 -17 -16 -13 -17 -12 -4 4 13 16 21 21 21 13z m180 -10 c0 -2 -7 -7
-16 -10 -8 -3 -12 -2 -9 4 6 10 25 14 25 6z m-92 -17 c-2 -6 3 -14 11 -17 8
-2 11 0 8 5 -3 5 3 9 14 9 16 0 15 -3 -8 -21 -19 -16 -25 -28 -21 -43 4 -12 3
-22 -1 -22 -16 0 -19 12 -11 41 5 17 5 31 -1 35 -5 3 -7 10 -4 15 8 13 16 11
13 -2z m-933 -19 c3 -6 -1 -7 -9 -4 -18 7 -21 14 -7 14 6 0 13 -4 16 -10z
m901 -12 c-2 -14 -8 -18 -28 -18 -6 0 -3 7 8 15 23 18 23 18 20 3z m-996 -3
c0 -2 -10 -9 -22 -15 -22 -11 -22 -10 -4 4 21 17 26 19 26 11z m305 -4 c3 -5
2 -12 -3 -15 -5 -3 -9 1 -9 9 0 17 3 19 12 6z m-140 -21 c4 -6 -1 -7 -11 -3
-13 5 -15 3 -9 -7 5 -9 4 -11 -4 -6 -6 4 -9 12 -6 17 8 12 22 12 30 -1z m1395
6 c0 -2 -7 -7 -16 -10 -8 -3 -12 -2 -9 4 6 10 25 14 25 6z m-1800 -32 c0 -3
-5 -2 -10 1 -6 4 -19 1 -28 -7 -15 -11 -15 -11 -5 3 7 9 9 19 5 24 -4 4 3 2
16 -4 12 -6 22 -14 22 -17z m1760 12 c0 -3 -4 -8 -10 -11 -5 -3 -10 -1 -10 4
0 6 5 11 10 11 6 0 10 -2 10 -4z m-1299 -23 c13 -16 12 -17 -3 -4 -17 13 -22
21 -14 21 2 0 10 -8 17 -17z m-438 -39 c-4 -12 -8 -13 -14 -3 -9 15 -2 32 11
24 5 -3 6 -13 3 -21z m1737 22 c0 -3 -4 -8 -10 -11 -5 -3 -10 -1 -10 4 0 6 5
11 10 11 6 0 10 -2 10 -4z m-1735 -65 c3 -5 2 -12 -3 -15 -5 -3 -9 1 -9 9 0
17 3 19 12 6z m422 -13 c-3 -8 -6 -5 -6 6 -1 11 2 17 5 13 3 -3 4 -12 1 -19z
m1343 -74 c0 -2 -11 2 -25 8 -14 6 -25 15 -25 20 0 5 11 1 25 -8 14 -9 25 -18
25 -20z m-1760 20 c0 -8 -19 -13 -24 -6 -3 5 1 9 9 9 8 0 15 -2 15 -3z m1244
-19 c-4 -8 -8 -15 -10 -15 -2 0 -4 7 -4 15 0 8 4 15 10 15 5 0 7 -7 4 -15z
m-1305 -19 c9 -11 9 -16 -1 -22 -7 -4 -10 -4 -6 1 4 4 3 14 -3 22 -6 7 -9 13
-6 13 2 0 10 -6 16 -14z m1786 4 c3 -5 1 -10 -4 -10 -6 0 -11 5 -11 10 0 6 2
10 4 10 3 0 8 -4 11 -10z m-1570 -20 c3 -6 -1 -7 -9 -4 -18 7 -21 14 -7 14 6
0 13 -4 16 -10z m1545 -30 c0 -5 -5 -10 -11 -10 -5 0 -7 5 -4 10 3 6 8 10 11
10 2 0 4 -4 4 -10z m70 -11 l25 -20 -32 16 c-18 8 -33 18 -33 20 0 10 16 4 40
-16z m-40 -9 c0 -5 -4 -10 -10 -10 -5 0 -10 5 -10 10 0 6 5 10 10 10 6 0 10
-4 10 -10z m140 -14 c-7 -7 -13 -7 -20 0 -6 6 -3 10 10 10 13 0 16 -4 10 -10z
m-170 -8 c0 -6 -3 -8 -7 -5 -3 4 -13 1 -22 -6 -14 -11 -14 -10 -2 6 15 20 31
22 31 5z m140 -8 c0 -5 -2 -10 -4 -10 -3 0 -8 5 -11 10 -3 6 -1 10 4 10 6 0
11 -4 11 -10z m-1655 -20 c3 -6 -1 -7 -9 -4 -18 7 -21 14 -7 14 6 0 13 -4 16
-10z m1695 0 c0 -5 -4 -10 -9 -10 -6 0 -13 5 -16 10 -3 6 1 10 9 10 9 0 16 -4
16 -10z m-1630 -10 c0 -5 -2 -10 -4 -10 -3 0 -8 5 -11 10 -3 6 -1 10 4 10 6 0
11 -4 11 -10z m1315 0 c-3 -5 -11 -10 -16 -10 -6 0 -7 5 -4 10 3 6 11 10 16
10 6 0 7 -4 4 -10z m270 -1 c11 -17 -1 -21 -15 -4 -8 9 -8 15 -2 15 6 0 14 -5
17 -11z m-800 -9 c3 -5 2 -10 -4 -10 -5 0 -13 5 -16 10 -3 6 -2 10 4 10 5 0
13 -4 16 -10z m109 -15 c-10 -8 -23 -14 -29 -14 -5 -1 1 8 15 19 14 10 27 17
29 14 3 -2 -4 -11 -15 -19z m340 0 c11 -8 15 -15 10 -15 -6 0 -19 7 -30 15
-10 8 -14 14 -9 14 6 0 19 -6 29 -14z m46 11 c0 -3 -4 -8 -10 -11 -5 -3 -10
-1 -10 4 0 6 5 11 10 11 6 0 10 -2 10 -4z m340 -6 c0 -5 -2 -10 -4 -10 -3 0
-8 5 -11 10 -3 6 -1 10 4 10 6 0 11 -4 11 -10z m-310 -21 c0 -11 -4 -18 -10
-14 -5 3 -7 12 -3 20 7 21 13 19 13 -6z m-90 -21 c0 -5 -11 -1 -25 8 -32 21
-32 27 0 12 14 -6 25 -15 25 -20z"/>
<path d="M1197 1985 c-4 -8 -2 -17 3 -20 6 -4 10 3 10 14 0 25 -6 27 -13 6z"/>
<path d="M1619 1993 c-9 -62 -11 -60 70 -107 76 -45 128 -63 86 -30 -22 17
-16 16 28 -6 25 -12 32 -11 70 10 23 13 49 29 58 36 8 8 21 14 28 14 7 0 11 6
8 15 -4 8 -2 17 3 20 6 4 10 1 10 -4 0 -6 4 -11 8 -11 4 0 6 17 3 38 -3 20 -6
29 -9 20 -2 -10 -7 -18 -12 -18 -5 0 -7 7 -4 15 5 13 -18 15 -170 15 -97 0
-177 -3 -177 -7z m26 -13 c3 -5 1 -10 -4 -10 -6 0 -11 5 -11 10 0 6 2 10 4 10
3 0 8 -4 11 -10z m300 -20 c-3 -5 -12 -10 -18 -10 -7 0 -6 4 3 10 19 12 23 12
15 0z m-300 -20 c3 -5 1 -10 -4 -10 -6 0 -11 5 -11 10 0 6 2 10 4 10 3 0 8 -4
11 -10z m300 -20 c-3 -5 -11 -10 -16 -10 -6 0 -7 5 -4 10 3 6 11 10 16 10 6 0
7 -4 4 -10z m-35 -15 c0 -2 -10 -9 -22 -15 -22 -11 -22 -10 -4 4 21 17 26 19
26 11z m-64 -31 c9 3 12 1 9 -4 -9 -15 -28 -12 -55 11 l-25 21 28 -17 c16 -9
35 -14 43 -11z"/>
<path d="M792 1938 c2 -16 27 -36 88 -71 47 -27 86 -44 88 -38 2 6 11 11 20
11 13 0 13 3 4 12 -10 10 -15 10 -21 -1 -10 -16 -10 -16 -94 34 -43 25 -67 46
-67 57 0 10 -5 18 -11 18 -6 0 -9 -10 -7 -22z"/>
<path d="M1600 1910 c0 -5 7 -10 16 -10 8 0 12 5 9 10 -3 6 -10 10 -16 10 -5
0 -9 -4 -9 -10z"/>
<path d="M1190 1901 c0 -6 -6 -11 -13 -11 -7 0 -47 -20 -90 -45 l-77 -45 0
-105 c0 -68 4 -106 12 -111 7 -5 9 -1 6 13 -3 12 -2 27 3 34 7 11 9 9 10 -6 1
-11 2 -29 3 -39 0 -12 21 -30 54 -48 49 -26 80 -30 67 -7 -3 5 1 6 10 3 14 -6
14 -8 -2 -19 -17 -13 -16 -14 9 -24 30 -11 63 2 164 66 l44 28 0 110 0 110
-87 50 c-94 54 -113 62 -113 46z m60 -47 c0 -2 -9 0 -20 6 -11 6 -20 13 -20
16 0 2 9 0 20 -6 11 -6 20 -13 20 -16z m130 -74 c0 -5 -2 -10 -4 -10 -3 0 -8
5 -11 10 -3 6 -1 10 4 10 6 0 11 -4 11 -10z m-35 -170 c-3 -5 -11 -10 -16 -10
-6 0 -7 5 -4 10 3 6 11 10 16 10 6 0 7 -4 4 -10z m19 -25 c-10 -8 -23 -14 -29
-14 -5 -1 1 8 15 19 14 10 27 17 29 14 3 -2 -4 -11 -15 -19z m-129 -75 c-3 -5
-14 -10 -23 -9 -14 0 -13 2 3 9 27 11 27 11 20 0z"/>
<path d="M1790 1830 c0 -5 5 -10 10 -10 6 0 10 5 10 10 0 6 -4 10 -10 10 -5 0
-10 -4 -10 -10z"/>
<path d="M890 1530 c-35 -21 -72 -44 -82 -52 -19 -13 -25 -48 -8 -48 6 0 10 8
10 18 0 11 23 31 63 54 34 20 71 43 82 52 36 28 1 15 -65 -24z"/>
<path d="M1415 1550 c-8 -13 15 -24 27 -12 6 6 4 11 -6 15 -8 3 -18 2 -21 -3z"/>
<path d="M790 1245 c0 -8 5 -15 10 -15 6 0 10 7 10 15 0 8 -4 15 -10 15 -5 0
-10 -7 -10 -15z"/>
<path d="M980 870 c0 -5 -7 -10 -15 -10 -8 0 -15 -5 -15 -11 0 -5 4 -8 9 -4 5
3 16 -1 24 -9 12 -13 20 -13 41 -3 26 12 35 27 15 27 -6 0 -19 -5 -29 -10 -13
-7 -21 -7 -25 0 -3 5 3 10 15 10 12 0 18 5 15 10 -3 6 -13 10 -21 10 -8 0 -14
-4 -14 -10z"/>
<path d="M1385 871 c-6 -5 -41 -26 -80 -46 -38 -21 -78 -45 -88 -53 -16 -14
-19 -14 -27 -2 -5 8 -12 11 -16 7 -11 -11 28 -36 40 -25 19 15 179 108 187
108 4 0 35 -16 69 -36 33 -20 63 -34 66 -31 7 7 -56 47 -73 47 -7 0 -13 4 -13
9 0 5 -8 11 -17 15 -10 3 -23 8 -28 11 -6 3 -15 1 -20 -4z"/>
<path d="M1171 740 c-1 -8 8 -21 19 -28 17 -10 20 -10 20 3 0 8 -6 15 -14 15
-8 0 -17 6 -19 13 -4 8 -6 7 -6 -3z"/>
<path d="M1171 640 c0 -46 3 -70 8 -61 5 7 14 10 20 7 8 -5 11 10 11 48 0 42
-4 56 -14 56 -8 0 -17 6 -19 13 -3 6 -6 -22 -6 -63z m16 -27 c-3 -10 -5 -4 -5
12 0 17 2 24 5 18 2 -7 2 -21 0 -30z"/>
<path d="M1096 514 c-103 -58 -133 -80 -122 -92 4 -3 11 0 17 8 6 10 11 12 17
4 7 -12 32 -3 106 39 64 36 53 50 -11 16 -32 -18 -64 -36 -71 -42 -7 -5 -15
-8 -18 -5 -4 5 60 48 72 48 3 0 22 11 42 25 38 26 58 32 47 15 -3 -5 1 -10 9
-10 10 0 13 6 9 17 -5 12 -2 15 10 10 11 -4 14 -2 10 9 -3 7 -8 14 -12 14 -3
0 -51 -25 -105 -56z"/>
<path d="M1584 515 c-15 -12 -16 -16 -6 -23 11 -7 10 -10 -3 -15 -9 -4 -13 -3
-10 2 14 24 -17 17 -70 -15 -45 -27 -60 -32 -66 -22 -7 10 -12 10 -25 -4 -14
-13 -17 -39 -18 -136 -1 -66 2 -118 6 -116 5 3 8 59 8 125 0 65 4 119 9 119 5
0 7 -10 3 -22 -5 -21 -4 -22 12 -9 9 8 19 11 22 8 3 -3 -4 -10 -15 -17 -20
-10 -21 -18 -20 -106 l3 -94 65 -37 c36 -20 80 -44 97 -54 29 -16 32 -16 55 2
17 13 19 19 9 19 -9 0 -21 -5 -27 -11 -8 -8 -17 -7 -33 4 -18 12 -19 15 -5 21
9 3 13 10 10 16 -3 6 1 7 10 4 14 -6 14 -8 -1 -19 -12 -9 -14 -14 -5 -19 6 -4
18 -2 26 4 8 6 23 9 34 5 14 -4 40 7 83 34 l63 40 -3 98 c-2 70 -7 100 -17
106 -8 4 -12 14 -9 22 4 10 0 15 -11 15 -10 0 -14 -5 -9 -12 4 -8 3 -10 -2 -5
-5 5 -9 14 -9 20 0 19 -88 65 -115 60 -18 -3 -21 -2 -11 5 7 5 9 12 4 15 -6 4
-19 0 -29 -8z m172 -133 c-4 -3 -14 2 -24 12 -16 18 -16 18 6 6 13 -6 21 -14
18 -18z m21 -169 c-3 -10 -5 -2 -5 17 0 19 2 27 5 18 2 -10 2 -26 0 -35z
m-332 27 c3 -5 1 -10 -4 -10 -6 0 -11 5 -11 10 0 6 2 10 4 10 3 0 8 -4 11 -10z
m310 -10 c-3 -5 -11 -10 -16 -10 -6 0 -7 5 -4 10 3 6 11 10 16 10 6 0 7 -4 4
-10z m0 -40 c-3 -5 -11 -10 -16 -10 -6 0 -7 5 -4 10 3 6 11 10 16 10 6 0 7 -4
4 -10z"/>
<path d="M1786 434 c-8 -21 -8 -24 5 -24 5 0 7 5 4 10 -3 6 -1 10 4 10 6 0 11
5 11 10 0 16 -17 12 -24 -6z"/>
<path d="M1357 183 c-4 -3 -7 -11 -7 -17 0 -6 5 -5 12 2 6 6 9 14 7 17 -3 3
-9 2 -12 -2z"/>
<path d="M893 149 c-29 -17 -53 -35 -53 -40 0 -10 84 34 110 58 25 22 -2 14
-57 -18z"/>
<path d="M1180 90 c0 -5 9 -10 20 -10 11 0 20 5 20 10 0 6 -9 10 -20 10 -11 0
-20 -4 -20 -10z"/>
<path d="M393 40 c0 -25 2 -35 4 -22 2 12 2 32 0 45 -2 12 -4 2 -4 -23z"/>
</g>
</svg>
