<?xml version="1.0" standalone="no"?>
<!DOCTYPE svg PUBLIC "-//W3C//DTD SVG 20010904//EN"
 "http://www.w3.org/TR/2001/REC-SVG-20010904/DTD/svg10.dtd">
<svg version="1.0" xmlns="http://www.w3.org/2000/svg"
 width="200.000000pt" height="200.000000pt" viewBox="0 0 200.000000 200.000000"
 preserveAspectRatio="xMidYMid meet">
<metadata>
Created by potrace 1.16, written by Peter Selinger 2001-2019
</metadata>
<g transform="translate(0.000000,200.000000) scale(0.100000,-0.100000)"
fill="#000000" stroke="none">
<path d="M2 1676 c-1 -232 3 -325 11 -335 8 -10 8 -13 1 -8 -17 10 -18 -202
-1 -222 9 -12 9 -13 -1 -7 -17 10 -15 -492 2 -513 8 -11 8 -13 -1 -8 -17 11
-17 -321 0 -342 9 -11 9 -13 0 -8 -8 5 -11 -24 -11 -112 l0 -119 106 -1 c64
-1 102 2 94 7 -11 8 -11 10 2 15 9 4 15 1 13 -6 -1 -9 48 -13 198 -15 115 -1
194 2 187 7 -11 7 -11 9 2 14 9 4 15 1 13 -6 -1 -9 48 -13 198 -14 114 -2 194
1 187 6 -11 7 -11 9 2 14 9 4 15 1 13 -6 -1 -9 48 -13 198 -15 185 -2 198 -1
180 14 -18 15 -18 15 8 0 23 -14 55 -16 205 -14 132 2 176 6 175 15 -2 7 4 10
13 6 13 -5 13 -7 2 -15 -8 -5 30 -8 93 -7 l107 1 0 264 c1 201 -2 263 -11 258
-8 -5 -8 -3 0 7 17 17 17 51 0 68 -8 9 -8 12 0 7 16 -9 17 262 0 283 -8 10 -8
13 0 8 8 -5 11 14 12 70 1 59 -3 81 -17 97 -15 19 -15 19 0 8 16 -13 17 -2 17
155 -1 111 -5 173 -12 182 -9 12 -9 13 1 7 10 -6 12 17 11 103 -1 81 -4 109
-12 104 -9 -5 -9 -3 0 8 8 10 12 69 11 191 l0 177 -241 0 c-179 0 -243 -3
-249 -12 -6 -9 -8 -9 -8 1 0 8 -18 12 -57 12 -49 0 -54 -2 -39 -13 16 -12 16
-13 -3 -13 -11 0 -19 5 -18 11 1 6 -67 11 -198 12 -134 2 -195 0 -185 -7 8 -5
10 -10 5 -10 -6 0 -16 5 -21 10 -16 16 -370 9 -367 -7 2 -7 -4 -10 -13 -6 -13
5 -13 7 -2 14 7 5 -74 8 -184 8 -110 0 -200 -5 -203 -10 -4 -5 -12 -9 -18 -9
-8 0 -8 3 1 9 9 5 -7 9 -42 10 -39 1 -56 -3 -56 -12 0 -8 -3 -9 -8 -1 -4 6
-26 11 -49 11 l-41 1 0 -322z m412 306 c3 -5 -1 -9 -9 -9 -8 0 -15 4 -15 9 0
4 4 8 9 8 6 0 12 -4 15 -8z m296 4 c0 -3 -4 -8 -10 -11 -5 -3 -10 -1 -10 4 0
6 5 11 10 11 6 0 10 -2 10 -4z m100 0 c0 -3 -4 -8 -10 -11 -5 -3 -10 -1 -10 4
0 6 5 11 10 11 6 0 10 -2 10 -4z m295 -6 c-3 -5 -11 -10 -16 -10 -6 0 -7 5 -4
10 3 6 11 10 16 10 6 0 7 -4 4 -10z m105 0 c0 -5 -4 -10 -10 -10 -5 0 -10 5
-10 10 0 6 5 10 10 10 6 0 10 -4 10 -10z m405 0 c3 -5 2 -10 -4 -10 -5 0 -13
5 -16 10 -3 6 -2 10 4 10 5 0 13 -4 16 -10z m195 6 c0 -2 -7 -7 -16 -10 -8 -3
-12 -2 -9 4 6 10 25 14 25 6z m-1550 -31 c11 -13 10 -14 -4 -9 -9 3 -16 10
-16 15 0 13 6 11 20 -6z m399 2 c8 -10 7 -14 -4 -14 -8 0 -15 6 -15 14 0 7 2
13 4 13 2 0 9 -6 15 -13z m296 3 c3 -5 1 -10 -4 -10 -6 0 -11 5 -11 10 0 6 2
10 4 10 3 0 8 -4 11 -10z m109 -2 c-3 -4 -9 -8 -15 -8 -5 0 -9 4 -9 8 0 5 7 9
15 9 8 0 12 -4 9 -9z m296 2 c0 -5 -5 -10 -11 -10 -5 0 -7 5 -4 10 3 6 8 10
11 10 2 0 4 -4 4 -10z m105 0 c-3 -5 -12 -10 -18 -10 -7 0 -6 4 3 10 19 12 23
12 15 0z m390 -8 c-3 -3 -11 0 -18 7 -9 10 -8 11 6 5 10 -3 15 -9 12 -12z
m-1690 -2 c3 -6 -1 -7 -9 -4 -18 7 -21 14 -7 14 6 0 13 -4 16 -10z m395 6 c0
-3 -4 -8 -10 -11 -5 -3 -10 -1 -10 4 0 6 5 11 10 11 6 0 10 -2 10 -4z m-345
-26 c-3 -5 -12 -10 -18 -10 -7 0 -6 4 3 10 19 12 23 12 15 0z m96 -7 c13 -15
12 -15 -8 -4 -24 12 -29 21 -14 21 5 0 15 -7 22 -17z m299 3 c-7 -7 -13 -7
-20 0 -6 6 -3 10 10 10 13 0 16 -4 10 -10z m95 4 c3 -5 2 -10 -4 -10 -5 0 -13
5 -16 10 -3 6 -2 10 4 10 5 0 13 -4 16 -10z m615 5 c0 -2 -10 -10 -22 -16 -21
-11 -22 -11 -9 4 13 16 31 23 31 12z m390 -5 c0 -5 -5 -10 -11 -10 -5 0 -7 5
-4 10 3 6 8 10 11 10 2 0 4 -4 4 -10z m-895 -10 c3 -6 -1 -7 -9 -4 -18 7 -21
14 -7 14 6 0 13 -4 16 -10z m-260 -9 c3 -5 2 -12 -3 -15 -5 -3 -9 1 -9 9 0 17
3 19 12 6z m-492 -15 c4 -10 1 -13 -9 -9 -7 3 -14 9 -14 14 0 14 17 10 23 -5z
m297 4 c0 -5 -4 -10 -10 -10 -5 0 -10 5 -10 10 0 6 5 10 10 10 6 0 10 -4 10
-10z m103 -4 c4 -10 1 -13 -9 -9 -7 3 -14 9 -14 14 0 14 17 10 23 -5z m192 4
c3 -5 1 -10 -4 -10 -6 0 -11 5 -11 10 0 6 2 10 4 10 3 0 8 -4 11 -10z m105 0
c0 -5 -4 -10 -9 -10 -6 0 -13 5 -16 10 -3 6 1 10 9 10 9 0 16 -4 16 -10z m95
0 c3 -5 1 -10 -4 -10 -6 0 -11 5 -11 10 0 6 2 10 4 10 3 0 8 -4 11 -10z m307
-2 c-9 -9 -15 -9 -24 0 -9 9 -7 12 12 12 19 0 21 -3 12 -12z m98 2 c0 -5 -4
-10 -10 -10 -5 0 -10 5 -10 10 0 6 5 10 10 10 6 0 10 -4 10 -10z m100 0 c0 -5
-5 -10 -11 -10 -5 0 -7 5 -4 10 3 6 8 10 11 10 2 0 4 -4 4 -10z m95 0 c3 -5 1
-10 -4 -10 -6 0 -11 5 -11 10 0 6 2 10 4 10 3 0 8 -4 11 -10z m105 3 c0 -11
-61 -45 -68 -38 -3 3 -3 6 -1 8 8 5 64 35 67 36 1 1 2 -2 2 -6z m100 -3 c0 -5
-4 -10 -10 -10 -5 0 -10 5 -10 10 0 6 5 10 10 10 6 0 10 -4 10 -10z m100 0 c0
-5 -5 -10 -11 -10 -5 0 -7 5 -4 10 3 6 8 10 11 10 2 0 4 -4 4 -10z m200 0 c0
-5 -5 -10 -11 -10 -5 0 -7 5 -4 10 3 6 8 10 11 10 2 0 4 -4 4 -10z m-840 -25
c-14 -17 -30 -20 -30 -6 0 5 8 12 18 14 9 3 19 5 21 6 2 0 -2 -6 -9 -14z
m-992 -15 c27 -12 44 -30 28 -30 -8 0 -76 42 -76 47 0 2 3 3 8 1 4 -3 22 -11
40 -18z m182 10 c0 -5 -4 -10 -10 -10 -5 0 -10 5 -10 10 0 6 5 10 10 10 6 0
10 -4 10 -10z m195 0 c3 -5 2 -10 -4 -10 -5 0 -13 5 -16 10 -3 6 -2 10 4 10 5
0 13 -4 16 -10z m205 0 c0 -5 -4 -10 -10 -10 -5 0 -10 5 -10 10 0 6 5 10 10
10 6 0 10 -4 10 -10z m200 0 c0 -5 -4 -10 -9 -10 -6 0 -13 5 -16 10 -3 6 1 10
9 10 9 0 16 -4 16 -10z m400 0 c0 -5 -4 -10 -10 -10 -5 0 -10 5 -10 10 0 6 5
10 10 10 6 0 10 -4 10 -10z m400 0 c0 -5 -4 -10 -10 -10 -5 0 -10 5 -10 10 0
6 5 10 10 10 6 0 10 -4 10 -10z m205 0 c-3 -5 -10 -10 -16 -10 -5 0 -9 5 -9
10 0 6 7 10 16 10 8 0 12 -4 9 -10z m-1855 -24 c0 -3 -4 -8 -10 -11 -5 -3 -10
-1 -10 4 0 6 5 11 10 11 6 0 10 -2 10 -4z m200 -6 c0 -5 -4 -10 -10 -10 -5 0
-10 5 -10 10 0 6 5 10 10 10 6 0 10 -4 10 -10z m95 0 c3 -5 1 -10 -4 -10 -6 0
-11 5 -11 10 0 6 2 10 4 10 3 0 8 -4 11 -10z m205 0 c0 -5 -4 -10 -10 -10 -5
0 -10 5 -10 10 0 6 5 10 10 10 6 0 10 -4 10 -10z m100 1 c0 -5 -9 -11 -21 -14
-16 -4 -18 -3 -8 9 13 16 29 19 29 5z m300 -1 c0 -5 -4 -10 -10 -10 -5 0 -10
5 -10 10 0 6 5 10 10 10 6 0 10 -4 10 -10z m100 0 c0 -5 -4 -10 -10 -10 -5 0
-10 5 -10 10 0 6 5 10 10 10 6 0 10 -4 10 -10z m300 0 c0 -5 -4 -10 -10 -10
-5 0 -10 5 -10 10 0 6 5 10 10 10 6 0 10 -4 10 -10z m100 0 c0 -5 -4 -10 -10
-10 -5 0 -10 5 -10 10 0 6 5 10 10 10 6 0 10 -4 10 -10z m300 0 c0 -5 -4 -10
-10 -10 -5 0 -10 5 -10 10 0 6 5 10 10 10 6 0 10 -4 10 -10z m100 0 c0 -5 -4
-10 -10 -10 -5 0 -10 5 -10 10 0 6 5 10 10 10 6 0 10 -4 10 -10z m100 0 c0 -5
-2 -10 -4 -10 -3 0 -8 5 -11 10 -3 6 -1 10 4 10 6 0 11 -4 11 -10z m-1850 -24
c0 -3 -4 -8 -10 -11 -5 -3 -10 -1 -10 4 0 6 5 11 10 11 6 0 10 -2 10 -4z m195
-6 c3 -5 1 -10 -4 -10 -6 0 -11 5 -11 10 0 6 2 10 4 10 3 0 8 -4 11 -10z m505
0 c0 -5 -2 -10 -4 -10 -3 0 -8 5 -11 10 -3 6 -1 10 4 10 6 0 11 -4 11 -10z
m400 6 c0 -3 -4 -8 -10 -11 -5 -3 -10 -1 -10 4 0 6 5 11 10 11 6 0 10 -2 10
-4z m400 0 c0 -3 -4 -8 -10 -11 -5 -3 -10 -1 -10 4 0 6 5 11 10 11 6 0 10 -2
10 -4z m100 -6 c0 -5 -5 -10 -11 -10 -5 0 -7 5 -4 10 3 6 8 10 11 10 2 0 4 -4
4 -10z m100 0 c0 -5 -2 -10 -4 -10 -3 0 -8 5 -11 10 -3 6 -1 10 4 10 6 0 11
-4 11 -10z m100 0 c0 -5 -2 -10 -4 -10 -3 0 -8 5 -11 10 -3 6 -1 10 4 10 6 0
11 -4 11 -10z m-1850 -30 c0 -5 -4 -10 -10 -10 -5 0 -10 5 -10 10 0 6 5 10 10
10 6 0 10 -4 10 -10z m300 0 c0 -5 -4 -10 -10 -10 -5 0 -10 5 -10 10 0 6 5 10
10 10 6 0 10 -4 10 -10z m100 0 c0 -5 -4 -10 -10 -10 -5 0 -10 5 -10 10 0 6 5
10 10 10 6 0 10 -4 10 -10z m300 0 c0 -5 -4 -10 -10 -10 -5 0 -10 5 -10 10 0
6 5 10 10 10 6 0 10 -4 10 -10z m100 0 c0 -5 -4 -10 -10 -10 -5 0 -10 5 -10
10 0 6 5 10 10 10 6 0 10 -4 10 -10z m300 0 c0 -5 -4 -10 -10 -10 -5 0 -10 5
-10 10 0 6 5 10 10 10 6 0 10 -4 10 -10z m100 0 c0 -5 -7 -10 -16 -10 -8 0
-12 5 -9 10 3 6 10 10 16 10 5 0 9 -4 9 -10z m300 0 c0 -5 -4 -10 -10 -10 -5
0 -10 5 -10 10 0 6 5 10 10 10 6 0 10 -4 10 -10z m100 1 c0 -5 -9 -11 -21 -14
-16 -4 -18 -3 -8 9 13 16 29 19 29 5z m300 -1 c0 -5 -2 -10 -4 -10 -3 0 -8 5
-11 10 -3 6 -1 10 4 10 6 0 11 -4 11 -10z m-1240 -15 c0 -2 -10 -9 -22 -15
-22 -11 -22 -10 -4 4 21 17 26 19 26 11z m-615 -15 c3 -5 1 -10 -4 -10 -6 0
-11 5 -11 10 0 6 2 10 4 10 3 0 8 -4 11 -10z m105 0 c0 -5 -4 -10 -9 -10 -6 0
-13 5 -16 10 -3 6 1 10 9 10 9 0 16 -4 16 -10z m200 6 c0 -2 -7 -7 -16 -10 -8
-3 -12 -2 -9 4 6 10 25 14 25 6z m200 -6 c0 -5 -4 -10 -10 -10 -5 0 -10 5 -10
10 0 6 5 10 10 10 6 0 10 -4 10 -10z m400 0 c0 -5 -4 -10 -10 -10 -5 0 -10 5
-10 10 0 6 5 10 10 10 6 0 10 -4 10 -10z m100 6 c0 -3 -4 -8 -10 -11 -5 -3
-10 -1 -10 4 0 6 5 11 10 11 6 0 10 -2 10 -4z m200 -6 c0 -5 -2 -10 -4 -10 -3
0 -8 5 -11 10 -3 6 -1 10 4 10 6 0 11 -4 11 -10z m105 0 c3 -5 2 -10 -4 -10
-5 0 -13 5 -16 10 -3 6 -2 10 4 10 5 0 13 -4 16 -10z m300 0 c3 -5 2 -10 -4
-10 -5 0 -13 5 -16 10 -3 6 -2 10 4 10 5 0 13 -4 16 -10z m95 0 c0 -5 -2 -10
-4 -10 -3 0 -8 5 -11 10 -3 6 -1 10 4 10 6 0 11 -4 11 -10z m100 0 c0 -5 -5
-10 -11 -10 -5 0 -7 5 -4 10 3 6 8 10 11 10 2 0 4 -4 4 -10z m-1750 -25 c0 -1
-8 -5 -18 -7 -11 -3 -19 0 -19 7 0 7 8 10 19 7 10 -2 18 -6 18 -7z m407 1 c0
-8 -6 -12 -15 -9 -11 5 -11 7 0 14 7 5 13 9 14 9 0 0 1 -6 1 -14z m503 -9 c0
-2 -8 -3 -18 -3 -10 0 -19 6 -19 13 0 8 6 9 19 2 10 -5 18 -11 18 -12z m400
-3 c0 -2 -9 0 -20 6 -11 6 -20 13 -20 16 0 2 9 0 20 -6 11 -6 20 -13 20 -16z
m388 12 c-2 -1 -12 -8 -23 -16 -18 -14 -19 -13 -8 1 7 9 10 19 6 23 -4 4 1 4
10 0 10 -3 17 -7 15 -8z m-1593 -6 c3 -6 -1 -7 -9 -4 -18 7 -21 14 -7 14 6 0
13 -4 16 -10z m95 6 c0 -3 -4 -8 -10 -11 -5 -3 -10 -1 -10 4 0 6 5 11 10 11 6
0 10 -2 10 -4z m300 0 c0 -2 -7 -7 -16 -10 -8 -3 -12 -2 -9 4 6 10 25 14 25 6z
m200 -6 c0 -5 -2 -10 -4 -10 -3 0 -8 5 -11 10 -3 6 -1 10 4 10 6 0 11 -4 11
-10z m105 0 c3 -6 -1 -7 -9 -4 -18 7 -21 14 -7 14 6 0 13 -4 16 -10z m400 0
c3 -6 -1 -7 -9 -4 -18 7 -21 14 -7 14 6 0 13 -4 16 -10z m295 0 c0 -5 -2 -10
-4 -10 -3 0 -8 5 -11 10 -3 6 -1 10 4 10 6 0 11 -4 11 -10z m100 6 c0 -2 -7
-7 -16 -10 -8 -3 -12 -2 -9 4 6 10 25 14 25 6z m-1043 -30 c0 -8 -6 -12 -15
-9 -11 5 -11 7 0 14 7 5 13 9 14 9 0 0 1 -6 1 -14z m198 -14 c-8 -8 -25 10
-19 20 4 6 9 5 15 -3 4 -7 6 -15 4 -17z m400 18 c-3 -5 -11 -10 -16 -10 -6 0
-7 5 -4 10 3 6 11 10 16 10 6 0 7 -4 4 -10z m195 -5 c0 -2 -6 -5 -13 -8 -8 -3
-14 1 -14 8 0 7 6 11 14 8 7 -3 13 -6 13 -8z m300 3 c0 -4 -4 -8 -9 -8 -6 0
-12 4 -15 8 -3 5 1 9 9 9 8 0 15 -4 15 -9z m100 2 c0 -5 -5 -10 -11 -10 -5 0
-7 5 -4 10 3 6 8 10 11 10 2 0 4 -4 4 -10z m-1805 -10 c3 -6 -1 -7 -9 -4 -18
7 -21 14 -7 14 6 0 13 -4 16 -10z m205 6 c0 -3 -4 -8 -10 -11 -5 -3 -10 -1
-10 4 0 6 5 11 10 11 6 0 10 -2 10 -4z m200 0 c0 -3 -4 -8 -10 -11 -5 -3 -10
-1 -10 4 0 6 5 11 10 11 6 0 10 -2 10 -4z m600 0 c0 -2 -7 -7 -16 -10 -8 -3
-12 -2 -9 4 6 10 25 14 25 6z m300 -4 c0 -5 -7 -9 -15 -9 -8 0 -12 4 -9 9 3 4
9 8 15 8 5 0 9 -4 9 -8z m300 -2 c0 -5 -2 -10 -4 -10 -3 0 -8 5 -11 10 -3 6
-1 10 4 10 6 0 11 -4 11 -10z m-1655 -9 c3 -5 2 -12 -3 -15 -5 -3 -9 1 -9 9 0
17 3 19 12 6z m216 -4 c-6 -8 -8 -17 -4 -21 4 -4 0 -4 -10 0 -17 6 -17 7 0 20
23 17 28 18 14 1z m1583 -16 c-2 -3 -12 3 -22 13 -16 17 -16 18 5 5 12 -7 20
-15 17 -18z m-1687 5 c0 -8 -6 -12 -15 -9 -11 5 -11 7 0 14 7 5 13 9 14 9 0 0
1 -6 1 -14z m400 0 c0 -8 -6 -12 -15 -9 -11 5 -11 7 0 14 7 5 13 9 14 9 0 0 1
-6 1 -14z m98 4 c-3 -5 -12 -10 -18 -10 -7 0 -6 4 3 10 19 12 23 12 15 0z
m300 0 c-3 -5 -12 -10 -18 -10 -7 0 -6 4 3 10 19 12 23 12 15 0z m90 -8 c-3
-3 -11 0 -18 7 -9 10 -8 11 6 5 10 -3 15 -9 12 -12z m210 8 c-3 -5 -12 -10
-18 -10 -7 0 -6 4 3 10 19 12 23 12 15 0z m95 -4 c-7 -7 -13 -7 -20 0 -6 6 -3
10 10 10 13 0 16 -4 10 -10z m95 -4 c-3 -3 -11 0 -18 7 -9 10 -8 11 6 5 10 -3
15 -9 12 -12z m205 8 c0 -5 -5 -10 -11 -10 -5 0 -7 5 -4 10 3 6 8 10 11 10 2
0 4 -4 4 -10z m105 0 c-3 -5 -12 -10 -18 -10 -7 0 -6 4 3 10 19 12 23 12 15 0z
m190 0 c3 -6 -1 -7 -9 -4 -18 7 -21 14 -7 14 6 0 13 -4 16 -10z m-1750 -30 c3
-5 1 -10 -4 -10 -6 0 -11 5 -11 10 0 6 2 10 4 10 3 0 8 -4 11 -10z m400 0 c3
-5 1 -10 -4 -10 -6 0 -11 5 -11 10 0 6 2 10 4 10 3 0 8 -4 11 -10z m100 0 c3
-5 1 -10 -4 -10 -6 0 -11 5 -11 10 0 6 2 10 4 10 3 0 8 -4 11 -10z m100 -8
c-3 -3 -11 0 -18 7 -9 10 -8 11 6 5 10 -3 15 -9 12 -12z m205 8 c0 -5 -5 -10
-11 -10 -5 0 -7 5 -4 10 3 6 8 10 11 10 2 0 4 -4 4 -10z m95 -8 c-3 -3 -11 0
-18 7 -9 10 -8 11 6 5 10 -3 15 -9 12 -12z m100 0 c-3 -3 -11 0 -18 7 -9 10
-8 11 6 5 10 -3 15 -9 12 -12z m110 8 c-3 -5 -11 -10 -16 -10 -6 0 -7 5 -4 10
3 6 11 10 16 10 6 0 7 -4 4 -10z m95 0 c0 -5 -5 -10 -11 -10 -5 0 -7 5 -4 10
3 6 8 10 11 10 2 0 4 -4 4 -10z m195 -8 c-3 -3 -11 0 -18 7 -9 10 -8 11 6 5
10 -3 15 -9 12 -12z m105 8 c0 -5 -5 -10 -11 -10 -5 0 -7 5 -4 10 3 6 8 10 11
10 2 0 4 -4 4 -10z m100 -6 c0 -8 -5 -12 -10 -9 -6 4 -8 11 -5 16 9 14 15 11
15 -7z m-1755 -24 c3 -5 1 -10 -4 -10 -6 0 -11 5 -11 10 0 6 2 10 4 10 3 0 8
-4 11 -10z m305 0 c0 -5 -4 -10 -10 -10 -5 0 -10 5 -10 10 0 6 5 10 10 10 6 0
10 -4 10 -10z m100 0 c0 -5 -4 -10 -10 -10 -5 0 -10 5 -10 10 0 6 5 10 10 10
6 0 10 -4 10 -10z m300 0 c0 -5 -4 -10 -10 -10 -5 0 -10 5 -10 10 0 6 5 10 10
10 6 0 10 -4 10 -10z m100 0 c0 -5 -4 -10 -10 -10 -5 0 -10 5 -10 10 0 6 5 10
10 10 6 0 10 -4 10 -10z m300 0 c0 -5 -4 -10 -10 -10 -5 0 -10 5 -10 10 0 6 5
10 10 10 6 0 10 -4 10 -10z m100 0 c0 -5 -4 -10 -10 -10 -5 0 -10 5 -10 10 0
6 5 10 10 10 6 0 10 -4 10 -10z m300 0 c0 -5 -5 -10 -11 -10 -5 0 -7 5 -4 10
3 6 8 10 11 10 2 0 4 -4 4 -10z m100 0 c0 -5 -5 -10 -11 -10 -5 0 -7 5 -4 10
3 6 8 10 11 10 2 0 4 -4 4 -10z m300 0 c0 -5 -5 -10 -11 -10 -5 0 -7 5 -4 10
3 6 8 10 11 10 2 0 4 -4 4 -10z m-1849 -37 c13 -15 12 -15 -8 -4 -24 12 -29
21 -14 21 5 0 15 -7 22 -17z m394 7 c3 -5 1 -10 -4 -10 -6 0 -11 5 -11 10 0 6
2 10 4 10 3 0 8 -4 11 -10z m1405 0 c0 -5 -5 -10 -11 -10 -5 0 -7 5 -4 10 3 6
8 10 11 10 2 0 4 -4 4 -10z m-1650 -31 c0 -14 -16 -11 -29 5 -10 12 -8 13 8 9
12 -3 21 -9 21 -14z m-205 1 c3 -5 1 -10 -4 -10 -6 0 -11 5 -11 10 0 6 2 10 4
10 3 0 8 -4 11 -10z m105 1 c0 -5 -9 -11 -21 -14 -16 -4 -18 -3 -8 9 13 16 29
19 29 5z m200 5 c0 -3 -4 -8 -10 -11 -5 -3 -10 -1 -10 4 0 6 5 11 10 11 6 0
10 -2 10 -4z m95 -6 c3 -5 1 -10 -4 -10 -6 0 -11 5 -11 10 0 6 2 10 4 10 3 0
8 -4 11 -10z m105 0 c0 -5 -4 -10 -10 -10 -5 0 -10 5 -10 10 0 6 5 10 10 10 6
0 10 -4 10 -10z m100 0 c0 -5 -4 -10 -10 -10 -5 0 -10 5 -10 10 0 6 5 10 10
10 6 0 10 -4 10 -10z m300 0 c0 -5 -4 -10 -10 -10 -5 0 -10 5 -10 10 0 6 5 10
10 10 6 0 10 -4 10 -10z m100 0 c0 -5 -4 -10 -10 -10 -5 0 -10 5 -10 10 0 6 5
10 10 10 6 0 10 -4 10 -10z m300 0 c0 -5 -4 -10 -10 -10 -5 0 -10 5 -10 10 0
6 5 10 10 10 6 0 10 -4 10 -10z m100 0 c0 -5 -4 -10 -10 -10 -5 0 -10 5 -10
10 0 6 5 10 10 10 6 0 10 -4 10 -10z m100 0 c0 -5 -5 -10 -11 -10 -5 0 -7 5
-4 10 3 6 8 10 11 10 2 0 4 -4 4 -10z m200 0 c0 -5 -4 -10 -10 -10 -5 0 -10 5
-10 10 0 6 5 10 10 10 6 0 10 -4 10 -10z m100 0 c0 -5 -4 -10 -10 -10 -5 0
-10 5 -10 10 0 6 5 10 10 10 6 0 10 -4 10 -10z m100 0 c0 -5 -5 -10 -11 -10
-5 0 -7 5 -4 10 3 6 8 10 11 10 2 0 4 -4 4 -10z m-1855 -30 c-3 -5 -11 -10
-16 -10 -6 0 -7 5 -4 10 3 6 11 10 16 10 6 0 7 -4 4 -10z m205 0 c0 -5 -4 -10
-10 -10 -5 0 -10 5 -10 10 0 6 5 10 10 10 6 0 10 -4 10 -10z m200 0 c0 -5 -7
-10 -16 -10 -8 0 -12 5 -9 10 3 6 10 10 16 10 5 0 9 -4 9 -10z m200 0 c0 -5
-4 -10 -10 -10 -5 0 -10 5 -10 10 0 6 5 10 10 10 6 0 10 -4 10 -10z m200 1 c0
-5 -9 -11 -21 -14 -16 -4 -18 -3 -8 9 13 16 29 19 29 5z m200 -1 c0 -5 -4 -10
-10 -10 -5 0 -10 5 -10 10 0 6 5 10 10 10 6 0 10 -4 10 -10z m200 0 c0 -5 -4
-10 -10 -10 -5 0 -10 5 -10 10 0 6 5 10 10 10 6 0 10 -4 10 -10z m200 0 c0 -5
-4 -10 -10 -10 -5 0 -10 5 -10 10 0 6 5 10 10 10 6 0 10 -4 10 -10z m200 0 c0
-5 -4 -10 -10 -10 -5 0 -10 5 -10 10 0 6 5 10 10 10 6 0 10 -4 10 -10z m205 0
c3 -5 -1 -10 -9 -10 -9 0 -16 5 -16 10 0 6 4 10 9 10 6 0 13 -4 16 -10z m51
-38 c-4 -3 -14 2 -24 12 -16 18 -16 18 6 6 13 -6 21 -14 18 -18z m-1906 8 c0
-5 -4 -10 -10 -10 -5 0 -10 5 -10 10 0 6 5 10 10 10 6 0 10 -4 10 -10z m300 0
c0 -5 -4 -10 -10 -10 -5 0 -10 5 -10 10 0 6 5 10 10 10 6 0 10 -4 10 -10z
m100 6 c0 -3 -4 -8 -10 -11 -5 -3 -10 -1 -10 4 0 6 5 11 10 11 6 0 10 -2 10
-4z m200 0 c0 -3 -4 -8 -10 -11 -5 -3 -10 -1 -10 4 0 6 5 11 10 11 6 0 10 -2
10 -4z m109 -10 c10 -12 8 -13 -8 -9 -12 3 -21 9 -21 14 0 14 16 11 29 -5z
m91 4 c0 -5 -4 -10 -10 -10 -5 0 -10 5 -10 10 0 6 5 10 10 10 6 0 10 -4 10
-10z m200 6 c0 -3 -4 -8 -10 -11 -5 -3 -10 -1 -10 4 0 6 5 11 10 11 6 0 10 -2
10 -4z m100 -6 c0 -5 -4 -10 -10 -10 -5 0 -10 5 -10 10 0 6 5 10 10 10 6 0 10
-4 10 -10z m100 0 c0 -5 -4 -10 -10 -10 -5 0 -10 5 -10 10 0 6 5 10 10 10 6 0
10 -4 10 -10z m100 0 c0 -5 -2 -10 -4 -10 -3 0 -8 5 -11 10 -3 6 -1 10 4 10 6
0 11 -4 11 -10z m200 0 c0 -5 -2 -10 -4 -10 -3 0 -8 5 -11 10 -3 6 -1 10 4 10
6 0 11 -4 11 -10z m100 0 c0 -5 -4 -10 -10 -10 -5 0 -10 5 -10 10 0 6 5 10 10
10 6 0 10 -4 10 -10z m100 0 c0 -5 -2 -10 -4 -10 -3 0 -8 5 -11 10 -3 6 -1 10
4 10 6 0 11 -4 11 -10z m-1345 -20 c-3 -5 -12 -10 -18 -10 -7 0 -6 4 3 10 19
12 23 12 15 0z m400 0 c-3 -5 -12 -10 -18 -10 -7 0 -6 4 3 10 19 12 23 12 15
0z m205 0 c-8 -5 -19 -10 -25 -10 -5 0 -3 5 5 10 8 5 20 10 25 10 6 0 3 -5 -5
-10z m696 -18 c-4 -3 -14 2 -24 12 -16 18 -16 18 6 6 13 -6 21 -14 18 -18z
m-1619 -4 c-3 -8 -6 -5 -6 6 -1 11 2 17 5 13 3 -3 4 -12 1 -19z m213 18 c0 -3
-4 -8 -10 -11 -5 -3 -10 -1 -10 4 0 6 5 11 10 11 6 0 10 -2 10 -4z m305 -6 c3
-6 -1 -7 -9 -4 -18 7 -21 14 -7 14 6 0 13 -4 16 -10z m95 6 c0 -3 -4 -8 -10
-11 -5 -3 -10 -1 -10 4 0 6 5 11 10 11 6 0 10 -2 10 -4z m605 -14 c-3 -3 -11
0 -18 7 -9 10 -8 11 6 5 10 -3 15 -9 12 -12z m95 14 c0 -2 -7 -7 -16 -10 -8
-3 -12 -2 -9 4 6 10 25 14 25 6z m405 -6 c3 -6 -1 -7 -9 -4 -18 7 -21 14 -7
14 6 0 13 -4 16 -10z m90 0 c-3 -5 -12 -10 -18 -10 -7 0 -6 4 3 10 19 12 23
12 15 0z m-1246 -23 c8 -10 7 -14 -4 -14 -8 0 -15 6 -15 14 0 7 2 13 4 13 2 0
9 -6 15 -13z m701 -9 c0 -6 -6 -5 -15 2 -8 7 -15 14 -15 16 0 2 7 1 15 -2 8
-4 15 -11 15 -16z m-1196 4 c3 -5 -1 -9 -9 -9 -8 0 -15 4 -15 9 0 4 4 8 9 8 6
0 12 -4 15 -8z m101 -2 c3 -6 -1 -7 -9 -4 -18 7 -21 14 -7 14 6 0 13 -4 16
-10z m295 6 c0 -3 -4 -8 -10 -11 -5 -3 -10 -1 -10 4 0 6 5 11 10 11 6 0 10 -2
10 -4z m400 0 c0 -2 -7 -7 -16 -10 -8 -3 -12 -2 -9 4 6 10 25 14 25 6z m95 -6
c-3 -5 -11 -10 -16 -10 -6 0 -7 5 -4 10 3 6 11 10 16 10 6 0 7 -4 4 -10z m405
6 c0 -3 -4 -8 -10 -11 -5 -3 -10 -1 -10 4 0 6 5 11 10 11 6 0 10 -2 10 -4z
m-1363 -38 c-3 -8 -6 -5 -6 6 -1 11 2 17 5 13 3 -3 4 -12 1 -19z m208 12 c3
-5 1 -10 -4 -10 -6 0 -11 5 -11 10 0 6 2 10 4 10 3 0 8 -4 11 -10z m109 -2
c-3 -4 -9 -8 -15 -8 -5 0 -9 4 -9 8 0 5 7 9 15 9 8 0 12 -4 9 -9z m206 -14 c0
-2 -9 0 -20 6 -11 6 -20 13 -20 16 0 2 9 0 20 -6 11 -6 20 -13 20 -16z m195
16 c-3 -5 -12 -10 -18 -10 -7 0 -6 4 3 10 19 12 23 12 15 0z m100 0 c-3 -5
-12 -10 -18 -10 -7 0 -6 4 3 10 19 12 23 12 15 0z m90 -8 c-3 -3 -11 0 -18 7
-9 10 -8 11 6 5 10 -3 15 -9 12 -12z m100 0 c-3 -3 -11 0 -18 7 -9 10 -8 11 6
5 10 -3 15 -9 12 -12z m100 8 c3 -5 1 -10 -4 -10 -6 0 -11 5 -11 10 0 6 2 10
4 10 3 0 8 -4 11 -10z m105 0 c0 -5 -5 -10 -11 -10 -5 0 -7 5 -4 10 3 6 8 10
11 10 2 0 4 -4 4 -10z m100 -5 c0 -2 -6 -5 -13 -8 -8 -3 -14 1 -14 8 0 7 6 11
14 8 7 -3 13 -6 13 -8z m-1195 -5 c3 -6 -1 -7 -9 -4 -18 7 -21 14 -7 14 6 0
13 -4 16 -10z m500 0 c3 -6 -1 -7 -9 -4 -18 7 -21 14 -7 14 6 0 13 -4 16 -10z
m895 6 c0 -2 -7 -7 -16 -10 -8 -3 -12 -2 -9 4 6 10 25 14 25 6z m-955 -26 c3
-5 1 -10 -4 -10 -6 0 -11 5 -11 10 0 6 2 10 4 10 3 0 8 -4 11 -10z m110 0 c-3
-5 -12 -10 -18 -10 -7 0 -6 4 3 10 19 12 23 12 15 0z m90 -8 c-3 -3 -11 0 -18
7 -9 10 -8 11 6 5 10 -3 15 -9 12 -12z m200 8 c3 -5 1 -10 -4 -10 -6 0 -11 5
-11 10 0 6 2 10 4 10 3 0 8 -4 11 -10z m110 0 c-3 -5 -12 -10 -18 -10 -7 0 -6
4 3 10 19 12 23 12 15 0z m90 -8 c-3 -3 -11 0 -18 7 -9 10 -8 11 6 5 10 -3 15
-9 12 -12z m310 8 c-3 -5 -12 -10 -18 -10 -7 0 -6 4 3 10 19 12 23 12 15 0z
m195 0 c0 -5 -5 -10 -11 -10 -5 0 -7 5 -4 10 3 6 8 10 11 10 2 0 4 -4 4 -10z
m-1695 -10 c3 -6 -1 -7 -9 -4 -18 7 -21 14 -7 14 6 0 13 -4 16 -10z m400 0 c3
-6 -1 -7 -9 -4 -18 7 -21 14 -7 14 6 0 13 -4 16 -10z m1195 6 c0 -2 -7 -7 -16
-10 -8 -3 -12 -2 -9 4 6 10 25 14 25 6z m-740 -21 c-14 -17 -30 -20 -30 -4 0
5 4 8 9 4 5 -3 12 -1 16 5 3 5 9 10 12 10 3 0 0 -7 -7 -15z m-815 -4 c3 -5 1
-12 -5 -16 -5 -3 -10 1 -10 9 0 18 6 21 15 7z m205 -6 c11 -13 10 -14 -4 -9
-9 3 -16 10 -16 15 0 13 6 11 20 -6z m95 5 c3 -5 1 -10 -4 -10 -6 0 -11 5 -11
10 0 6 2 10 4 10 3 0 8 -4 11 -10z m100 0 c3 -5 1 -10 -4 -10 -6 0 -11 5 -11
10 0 6 2 10 4 10 3 0 8 -4 11 -10z m205 0 c0 -5 -4 -10 -10 -10 -5 0 -10 5
-10 10 0 6 5 10 10 10 6 0 10 -4 10 -10z m95 0 c3 -5 1 -10 -4 -10 -6 0 -11 5
-11 10 0 6 2 10 4 10 3 0 8 -4 11 -10z m305 0 c0 -5 -4 -10 -9 -10 -6 0 -13 5
-16 10 -3 6 1 10 9 10 9 0 16 -4 16 -10z m100 0 c0 -5 -4 -10 -10 -10 -5 0
-10 5 -10 10 0 6 5 10 10 10 6 0 10 -4 10 -10z m100 0 c0 -5 -4 -10 -10 -10
-5 0 -10 5 -10 10 0 6 5 10 10 10 6 0 10 -4 10 -10z m200 0 c0 -5 -4 -10 -10
-10 -5 0 -10 5 -10 10 0 6 5 10 10 10 6 0 10 -4 10 -10z m100 0 c0 -5 -5 -10
-11 -10 -5 0 -7 5 -4 10 3 6 8 10 11 10 2 0 4 -4 4 -10z m100 0 c0 -5 -4 -10
-10 -10 -5 0 -10 5 -10 10 0 6 5 10 10 10 6 0 10 -4 10 -10z m200 0 c0 -5 -5
-10 -11 -10 -5 0 -7 5 -4 10 3 6 8 10 11 10 2 0 4 -4 4 -10z m-1755 -30 c3 -5
1 -10 -4 -10 -6 0 -11 5 -11 10 0 6 2 10 4 10 3 0 8 -4 11 -10z m600 -8 c-3
-3 -11 0 -18 7 -9 10 -8 11 6 5 10 -3 15 -9 12 -12z m100 0 c-3 -3 -11 0 -18
7 -9 10 -8 11 6 5 10 -3 15 -9 12 -12z m810 8 c-3 -5 -12 -10 -18 -10 -7 0 -6
4 3 10 19 12 23 12 15 0z m195 0 c0 -5 -5 -10 -11 -10 -5 0 -7 5 -4 10 3 6 8
10 11 10 2 0 4 -4 4 -10z m-1755 -30 c3 -5 1 -10 -4 -10 -6 0 -11 5 -11 10 0
6 2 10 4 10 3 0 8 -4 11 -10z m105 0 c0 -5 -2 -10 -4 -10 -3 0 -8 5 -11 10 -3
6 -1 10 4 10 6 0 11 -4 11 -10z m100 6 c0 -3 -4 -8 -10 -11 -5 -3 -10 -1 -10
4 0 6 5 11 10 11 6 0 10 -2 10 -4z m100 -6 c0 -5 -4 -10 -10 -10 -5 0 -10 5
-10 10 0 6 5 10 10 10 6 0 10 -4 10 -10z m95 0 c3 -5 1 -10 -4 -10 -6 0 -11 5
-11 10 0 6 2 10 4 10 3 0 8 -4 11 -10z m105 0 c0 -5 -5 -10 -11 -10 -5 0 -7 5
-4 10 3 6 8 10 11 10 2 0 4 -4 4 -10z m200 0 c0 -5 -4 -10 -10 -10 -5 0 -10 5
-10 10 0 6 5 10 10 10 6 0 10 -4 10 -10z m200 0 c0 -5 -5 -10 -11 -10 -5 0 -7
5 -4 10 3 6 8 10 11 10 2 0 4 -4 4 -10z m200 0 c0 -5 -4 -10 -10 -10 -5 0 -10
5 -10 10 0 6 5 10 10 10 6 0 10 -4 10 -10z m200 0 c0 -5 -4 -10 -10 -10 -5 0
-10 5 -10 10 0 6 5 10 10 10 6 0 10 -4 10 -10z m100 0 c0 -5 -5 -10 -11 -10
-5 0 -7 5 -4 10 3 6 8 10 11 10 2 0 4 -4 4 -10z m100 0 c0 -5 -4 -10 -10 -10
-5 0 -10 5 -10 10 0 6 5 10 10 10 6 0 10 -4 10 -10z m200 0 c0 -5 -2 -10 -4
-10 -3 0 -8 5 -11 10 -3 6 -1 10 4 10 6 0 11 -4 11 -10z m100 0 c0 -5 -5 -10
-11 -10 -5 0 -7 5 -4 10 3 6 8 10 11 10 2 0 4 -4 4 -10z m-1750 -30 c0 -5 -4
-10 -9 -10 -6 0 -13 5 -16 10 -3 6 1 10 9 10 9 0 16 -4 16 -10z m100 0 c0 -5
-4 -10 -10 -10 -5 0 -10 5 -10 10 0 6 5 10 10 10 6 0 10 -4 10 -10z m300 0 c0
-5 -4 -10 -10 -10 -5 0 -10 5 -10 10 0 6 5 10 10 10 6 0 10 -4 10 -10z m100 0
c0 -5 -4 -10 -10 -10 -5 0 -10 5 -10 10 0 6 5 10 10 10 6 0 10 -4 10 -10z
m300 0 c0 -5 -4 -10 -10 -10 -5 0 -10 5 -10 10 0 6 5 10 10 10 6 0 10 -4 10
-10z m100 0 c0 -5 -4 -10 -10 -10 -5 0 -10 5 -10 10 0 6 5 10 10 10 6 0 10 -4
10 -10z m300 0 c0 -5 -4 -10 -10 -10 -5 0 -10 5 -10 10 0 6 5 10 10 10 6 0 10
-4 10 -10z m100 0 c0 -5 -4 -10 -10 -10 -5 0 -10 5 -10 10 0 6 5 10 10 10 6 0
10 -4 10 -10z m300 0 c0 -5 -4 -10 -10 -10 -5 0 -10 5 -10 10 0 6 5 10 10 10
6 0 10 -4 10 -10z m100 0 c0 -5 -4 -10 -10 -10 -5 0 -10 5 -10 10 0 6 5 10 10
10 6 0 10 -4 10 -10z m-1555 -30 c3 -5 1 -10 -4 -10 -6 0 -11 5 -11 10 0 6 2
10 4 10 3 0 8 -4 11 -10z m99 2 c3 -5 -1 -9 -9 -9 -8 0 -12 4 -9 9 3 4 7 8 9
8 2 0 6 -4 9 -8z m106 4 c0 -3 -4 -8 -10 -11 -5 -3 -10 -1 -10 4 0 6 5 11 10
11 6 0 10 -2 10 -4z m320 -22 c0 -2 -9 0 -20 6 -11 6 -20 13 -20 16 0 2 9 0
20 -6 11 -6 20 -13 20 -16z m80 22 c0 -3 -4 -8 -10 -11 -5 -3 -10 -1 -10 4 0
6 5 11 10 11 6 0 10 -2 10 -4z m600 -6 c0 -5 -2 -10 -4 -10 -3 0 -8 5 -11 10
-3 6 -1 10 4 10 6 0 11 -4 11 -10z m104 2 c3 -5 -1 -9 -9 -9 -8 0 -12 4 -9 9
3 4 7 8 9 8 2 0 6 -4 9 -8z m296 -2 c0 -5 -2 -10 -4 -10 -3 0 -8 5 -11 10 -3
6 -1 10 4 10 6 0 11 -4 11 -10z m-1856 -32 c-3 -5 -12 -4 -20 3 -19 16 -18 18
6 12 11 -3 17 -9 14 -15z m101 2 c-3 -5 -11 -10 -16 -10 -6 0 -7 5 -4 10 3 6
11 10 16 10 6 0 7 -4 4 -10z m200 0 c-3 -5 -11 -10 -16 -10 -6 0 -7 5 -4 10 3
6 11 10 16 10 6 0 7 -4 4 -10z m105 0 c0 -5 -4 -10 -10 -10 -5 0 -10 5 -10 10
0 6 5 10 10 10 6 0 10 -4 10 -10z m100 5 c0 -2 -10 -10 -22 -16 -21 -11 -22
-11 -9 4 13 16 31 23 31 12z m200 -4 c0 -5 -9 -11 -21 -14 -16 -4 -18 -3 -8 9
13 16 29 19 29 5z m100 -1 c0 -5 -4 -10 -10 -10 -5 0 -10 5 -10 10 0 6 5 10
10 10 6 0 10 -4 10 -10z m95 0 c-3 -5 -11 -10 -16 -10 -6 0 -7 5 -4 10 3 6 11
10 16 10 6 0 7 -4 4 -10z m205 1 c0 -5 -11 -12 -25 -15 -14 -4 -25 -11 -25
-16 0 -6 -4 -10 -10 -10 -18 0 -10 15 18 32 32 19 42 21 42 9z m105 -1 c3 -5
-1 -10 -9 -10 -9 0 -16 5 -16 10 0 6 4 10 9 10 6 0 13 -4 16 -10z m200 0 c3
-5 2 -10 -4 -10 -5 0 -13 5 -16 10 -3 6 -2 10 4 10 5 0 13 -4 16 -10z m95 0
c0 -5 -7 -10 -16 -10 -8 0 -12 5 -9 10 3 6 10 10 16 10 5 0 9 -4 9 -10z m105
0 c3 -5 2 -10 -4 -10 -5 0 -13 5 -16 10 -3 6 -2 10 4 10 5 0 13 -4 16 -10z
m195 0 c0 -5 -2 -10 -4 -10 -3 0 -8 5 -11 10 -3 6 -1 10 4 10 6 0 11 -4 11
-10z m100 -2 c0 -6 -3 -8 -7 -5 -3 4 -13 1 -22 -6 -14 -11 -14 -10 -2 6 15 20
31 22 31 5z m-1843 -15 c-4 -3 -2 -12 4 -19 8 -9 5 -11 -10 -7 -24 6 -27 19
-8 26 18 8 21 8 14 0z m193 -8 c-7 -9 -15 -13 -19 -10 -3 3 1 10 9 15 21 14
24 12 10 -5z m1204 2 c-3 -8 -12 -14 -21 -14 -13 0 -13 2 3 14 10 7 19 13 21
13 1 0 0 -6 -3 -13z m196 -9 c0 -6 -6 -5 -15 2 -8 7 -15 14 -15 16 0 2 7 1 15
-2 8 -4 15 -11 15 -16z m200 2 c0 -4 -9 -10 -21 -13 -15 -4 -18 -2 -10 7 6 7
8 16 4 20 -4 4 0 4 10 0 9 -3 17 -10 17 -14z m-1395 0 c3 -6 -1 -7 -9 -4 -18
7 -21 14 -7 14 6 0 13 -4 16 -10z m195 6 c0 -2 -7 -7 -16 -10 -8 -3 -12 -2 -9
4 6 10 25 14 25 6z m205 -6 c3 -5 2 -10 -4 -10 -5 0 -13 5 -16 10 -3 6 -2 10
4 10 5 0 13 -4 16 -10z m395 0 c0 -5 -2 -10 -4 -10 -3 0 -8 5 -11 10 -3 6 -1
10 4 10 6 0 11 -4 11 -10z m-1040 -15 c0 -2 -7 -8 -15 -15 -12 -10 -15 -10
-15 2 0 8 7 15 15 15 8 0 15 -1 15 -2z m290 -10 c11 -13 10 -14 -4 -9 -9 3
-16 10 -16 15 0 13 6 11 20 -6z m305 5 c-3 -5 -12 -10 -18 -10 -7 0 -6 4 3 10
19 12 23 12 15 0z m102 -3 c0 -7 -9 -13 -19 -13 -18 0 -18 1 -2 13 10 7 18 13
19 13 1 0 2 -6 2 -13z m100 0 c0 -7 -10 -14 -21 -14 -21 -2 -21 -2 -2 13 24
17 23 17 23 1z m293 -2 c0 -2 -6 -5 -13 -8 -8 -3 -14 1 -14 8 0 7 6 11 14 8 7
-3 13 -6 13 -8z m400 0 c0 -2 -6 -5 -13 -8 -8 -3 -14 1 -14 8 0 7 6 11 14 8 7
-3 13 -6 13 -8z m-1096 -3 c3 -5 -1 -9 -9 -9 -8 0 -15 4 -15 9 0 4 4 8 9 8 6
0 12 -4 15 -8z m96 -2 c0 -5 -2 -10 -4 -10 -3 0 -8 5 -11 10 -3 6 -1 10 4 10
6 0 11 -4 11 -10z m500 6 c0 -2 -7 -7 -16 -10 -8 -3 -12 -2 -9 4 6 10 25 14
25 6z m200 -6 c0 -5 -4 -10 -10 -10 -5 0 -10 5 -10 10 0 6 5 10 10 10 6 0 10
-4 10 -10z m200 6 c0 -2 -7 -7 -16 -10 -8 -3 -12 -2 -9 4 6 10 25 14 25 6z
m-1240 -42 c0 -2 -9 0 -20 6 -11 6 -20 13 -20 16 0 2 9 0 20 -6 11 -6 20 -13
20 -16z m99 23 c-2 -1 -13 -9 -24 -17 -19 -14 -19 -14 -6 3 7 9 18 17 24 17 6
0 8 -1 6 -3z m186 -7 c3 -5 1 -10 -4 -10 -6 0 -11 5 -11 10 0 6 2 10 4 10 3 0
8 -4 11 -10z m110 0 c-3 -5 -12 -10 -18 -10 -7 0 -6 4 3 10 19 12 23 12 15 0z
m100 0 c-3 -5 -11 -10 -16 -10 -6 0 -7 5 -4 10 3 6 11 10 16 10 6 0 7 -4 4
-10z m305 5 c0 -2 -10 -9 -22 -15 -22 -11 -22 -10 -4 4 21 17 26 19 26 11z
m95 -5 c-3 -5 -11 -10 -16 -10 -6 0 -7 5 -4 10 3 6 11 10 16 10 6 0 7 -4 4
-10z m-1245 -25 c-14 -17 -30 -20 -30 -4 0 5 4 8 9 4 5 -3 12 -1 16 5 3 5 9
10 12 10 3 0 0 -7 -7 -15z m295 -5 c-3 -5 -10 -10 -16 -10 -5 0 -9 5 -9 10 0
6 7 10 16 10 8 0 12 -4 9 -10z m95 -5 c11 -13 10 -14 -4 -9 -9 3 -16 10 -16
15 0 13 6 11 20 -6z m300 3 c0 -4 -4 -8 -9 -8 -6 0 -12 4 -15 8 -3 5 1 9 9 9
8 0 15 -4 15 -9z m400 2 c0 -5 -5 -10 -11 -10 -5 0 -7 5 -4 10 3 6 8 10 11 10
2 0 4 -4 4 -10z m100 0 c0 -5 -5 -10 -11 -10 -5 0 -7 5 -4 10 3 6 8 10 11 10
2 0 4 -4 4 -10z m300 0 c0 -5 -5 -10 -11 -10 -5 0 -7 5 -4 10 3 6 8 10 11 10
2 0 4 -4 4 -10z m100 0 c0 -5 -5 -10 -11 -10 -5 0 -7 5 -4 10 3 6 8 10 11 10
2 0 4 -4 4 -10z m300 0 c0 -5 -5 -10 -11 -10 -5 0 -7 5 -4 10 3 6 8 10 11 10
2 0 4 -4 4 -10z m-1855 -30 c3 -5 1 -10 -4 -10 -6 0 -11 5 -11 10 0 6 2 10 4
10 3 0 8 -4 11 -10z m105 0 c0 -5 -4 -10 -10 -10 -5 0 -10 5 -10 10 0 6 5 10
10 10 6 0 10 -4 10 -10z m400 0 c0 -5 -4 -10 -10 -10 -5 0 -10 5 -10 10 0 6 5
10 10 10 6 0 10 -4 10 -10z m195 -8 c-3 -3 -11 0 -18 7 -9 10 -8 11 6 5 10 -3
15 -9 12 -12z m205 8 c0 -5 -4 -10 -10 -10 -5 0 -10 5 -10 10 0 6 5 10 10 10
6 0 10 -4 10 -10z m400 0 c0 -5 -4 -10 -10 -10 -5 0 -10 5 -10 10 0 6 5 10 10
10 6 0 10 -4 10 -10z m105 0 c-3 -5 -11 -10 -16 -10 -6 0 -7 5 -4 10 3 6 11
10 16 10 6 0 7 -4 4 -10z m295 0 c0 -5 -4 -10 -10 -10 -5 0 -10 5 -10 10 0 6
5 10 10 10 6 0 10 -4 10 -10z m100 0 c0 -5 -5 -10 -11 -10 -5 0 -7 5 -4 10 3
6 8 10 11 10 2 0 4 -4 4 -10z m-1495 -10 c3 -6 -1 -7 -9 -4 -18 7 -21 14 -7
14 6 0 13 -4 16 -10z m-260 -28 c-3 -3 -11 0 -18 7 -9 10 -8 11 6 5 10 -3 15
-9 12 -12z m105 8 c0 -5 -5 -10 -11 -10 -5 0 -7 5 -4 10 3 6 8 10 11 10 2 0 4
-4 4 -10z m100 5 c0 -2 -10 -9 -22 -15 -22 -11 -22 -10 -4 4 21 17 26 19 26
11z m95 -5 c3 -5 2 -10 -4 -10 -5 0 -13 5 -16 10 -3 6 -2 10 4 10 5 0 13 -4
16 -10z m105 0 c0 -5 -5 -10 -11 -10 -5 0 -7 5 -4 10 3 6 8 10 11 10 2 0 4 -4
4 -10z m95 -8 c-3 -3 -11 0 -18 7 -9 10 -8 11 6 5 10 -3 15 -9 12 -12z m200 8
c3 -5 1 -10 -4 -10 -6 0 -11 5 -11 10 0 6 2 10 4 10 3 0 8 -4 11 -10z m500 -8
c-3 -3 -11 0 -18 7 -9 10 -8 11 6 5 10 -3 15 -9 12 -12z m105 8 c0 -5 -5 -10
-11 -10 -5 0 -7 5 -4 10 3 6 8 10 11 10 2 0 4 -4 4 -10z m100 0 c0 -5 -5 -10
-11 -10 -5 0 -7 5 -4 10 3 6 8 10 11 10 2 0 4 -4 4 -10z m205 0 c-3 -5 -12
-10 -18 -10 -7 0 -6 4 3 10 19 12 23 12 15 0z m-1652 -34 c4 -10 1 -13 -9 -9
-8 3 -25 -2 -39 -11 -14 -9 -25 -13 -25 -9 0 8 48 40 61 42 4 1 9 -6 12 -13z
m97 4 c0 -5 -4 -10 -10 -10 -5 0 -10 5 -10 10 0 6 5 10 10 10 6 0 10 -4 10
-10z m100 0 c0 -5 -4 -10 -10 -10 -5 0 -10 5 -10 10 0 6 5 10 10 10 6 0 10 -4
10 -10z m200 0 c0 -5 -4 -10 -10 -10 -5 0 -10 5 -10 10 0 6 5 10 10 10 6 0 10
-4 10 -10z m100 0 c0 -5 -4 -10 -10 -10 -5 0 -10 5 -10 10 0 6 5 10 10 10 6 0
10 -4 10 -10z m100 0 c0 -5 -4 -10 -10 -10 -5 0 -10 5 -10 10 0 6 5 10 10 10
6 0 10 -4 10 -10z m200 0 c0 -5 -4 -10 -10 -10 -5 0 -10 5 -10 10 0 6 5 10 10
10 6 0 10 -4 10 -10z m100 0 c0 -5 -4 -10 -10 -10 -5 0 -10 5 -10 10 0 6 5 10
10 10 6 0 10 -4 10 -10z m100 0 c0 -5 -4 -10 -10 -10 -5 0 -10 5 -10 10 0 6 5
10 10 10 6 0 10 -4 10 -10z m200 0 c0 -5 -4 -10 -10 -10 -5 0 -10 5 -10 10 0
6 5 10 10 10 6 0 10 -4 10 -10z m100 0 c0 -5 -4 -10 -10 -10 -5 0 -10 5 -10
10 0 6 5 10 10 10 6 0 10 -4 10 -10z m100 0 c0 -5 -4 -10 -10 -10 -5 0 -10 5
-10 10 0 6 5 10 10 10 6 0 10 -4 10 -10z m200 0 c0 -5 -4 -10 -10 -10 -5 0
-10 5 -10 10 0 6 5 10 10 10 6 0 10 -4 10 -10z m100 0 c0 -5 -4 -10 -10 -10
-5 0 -10 5 -10 10 0 6 5 10 10 10 6 0 10 -4 10 -10z m100 0 c0 -5 -4 -10 -10
-10 -5 0 -10 5 -10 10 0 6 5 10 10 10 6 0 10 -4 10 -10z m-1650 -25 c0 -11
-29 -11 -33 -1 -4 10 1 12 14 9 10 -3 19 -7 19 -8z m200 1 c0 -3 -4 -8 -10
-11 -5 -3 -10 -1 -10 4 0 6 5 11 10 11 6 0 10 -2 10 -4z m400 0 c0 -3 -4 -8
-10 -11 -5 -3 -10 -1 -10 4 0 6 5 11 10 11 6 0 10 -2 10 -4z m204 -4 c3 -5 -1
-9 -9 -9 -8 0 -15 4 -15 9 0 4 4 8 9 8 6 0 12 -4 15 -8z m-649 -22 c-3 -5 -12
-10 -18 -10 -7 0 -6 4 3 10 19 12 23 12 15 0z m-305 -4 c0 -3 -4 -8 -10 -11
-5 -3 -10 -1 -10 4 0 6 5 11 10 11 6 0 10 -2 10 -4z m100 -6 c0 -5 -4 -10 -9
-10 -6 0 -13 5 -16 10 -3 6 1 10 9 10 9 0 16 -4 16 -10z m300 6 c0 -3 -4 -8
-10 -11 -5 -3 -10 -1 -10 4 0 6 5 11 10 11 6 0 10 -2 10 -4z m100 -6 c0 -5 -4
-10 -10 -10 -5 0 -10 5 -10 10 0 6 5 10 10 10 6 0 10 -4 10 -10z m400 0 c0 -5
-4 -10 -10 -10 -5 0 -10 5 -10 10 0 6 5 10 10 10 6 0 10 -4 10 -10z m295 0
c-3 -5 -12 -10 -18 -10 -7 0 -6 4 3 10 19 12 23 12 15 0z m105 0 c0 -5 -4 -10
-10 -10 -5 0 -10 5 -10 10 0 6 5 10 10 10 6 0 10 -4 10 -10z m200 6 c0 -2 -7
-7 -16 -10 -8 -3 -12 -2 -9 4 6 10 25 14 25 6z m200 -6 c0 -5 -4 -10 -10 -10
-5 0 -10 5 -10 10 0 6 5 10 10 10 6 0 10 -4 10 -10z m105 0 c3 -5 1 -10 -4
-10 -6 0 -11 5 -11 10 0 6 2 10 4 10 3 0 8 -4 11 -10z m-1451 -25 c-4 -8 -14
-15 -23 -15 -14 1 -13 3 3 15 25 19 27 19 20 0z m1496 -1 c0 -8 -5 -12 -10 -9
-6 4 -8 11 -5 16 9 14 15 11 15 -7z m-1905 -4 c-3 -5 -11 -10 -16 -10 -6 0 -7
5 -4 10 3 6 11 10 16 10 6 0 7 -4 4 -10z m305 0 c0 -5 -4 -10 -10 -10 -5 0
-10 5 -10 10 0 6 5 10 10 10 6 0 10 -4 10 -10z m400 6 c0 -3 -4 -8 -10 -11 -5
-3 -10 -1 -10 4 0 6 5 11 10 11 6 0 10 -2 10 -4z m105 -6 c3 -5 -1 -10 -9 -10
-9 0 -16 5 -16 10 0 6 4 10 9 10 6 0 13 -4 16 -10z m295 2 c0 -5 -7 -9 -15 -9
-8 0 -12 4 -9 9 3 4 9 8 15 8 5 0 9 -4 9 -8z m100 4 c0 -3 -4 -8 -10 -11 -5
-3 -10 -1 -10 4 0 6 5 11 10 11 6 0 10 -2 10 -4z m300 -6 c0 -5 -2 -10 -4 -10
-3 0 -8 5 -11 10 -3 6 -1 10 4 10 6 0 11 -4 11 -10z m100 0 c0 -5 -2 -10 -4
-10 -3 0 -8 5 -11 10 -3 6 -1 10 4 10 6 0 11 -4 11 -10z m-440 -36 c0 -2 -9 0
-20 6 -11 6 -20 13 -20 16 0 2 9 0 20 -6 11 -6 20 -13 20 -16z m685 7 c-3 -6
-11 -11 -16 -11 -5 0 -4 6 3 14 14 16 24 13 13 -3z m-995 -1 c0 -5 -2 -10 -4
-10 -3 0 -8 5 -11 10 -3 6 -1 10 4 10 6 0 11 -4 11 -10z m400 0 c0 -5 -2 -10
-4 -10 -3 0 -8 5 -11 10 -3 6 -1 10 4 10 6 0 11 -4 11 -10z m104 2 c2 -4 -4
-8 -14 -8 -10 0 -16 4 -14 8 3 4 9 8 14 8 5 0 11 -4 14 -8z m-1147 -28 c0 -9
-5 -10 -19 -3 -10 5 -18 12 -18 14 0 2 8 3 18 2 10 0 19 -7 19 -13z m693 7 c0
-5 -6 -11 -13 -14 -8 -3 -14 1 -14 9 0 8 6 14 14 14 7 0 13 -4 13 -9z m104 -3
c-3 -4 -9 -8 -15 -8 -5 0 -9 4 -9 8 0 5 7 9 15 9 8 0 12 -4 9 -9z m96 2 c0 -5
-5 -10 -11 -10 -5 0 -7 5 -4 10 3 6 8 10 11 10 2 0 4 -4 4 -10z m205 0 c-3 -5
-12 -10 -18 -10 -7 0 -6 4 3 10 19 12 23 12 15 0z m102 -5 c0 -6 -8 -11 -17
-11 -9 0 -17 5 -17 11 0 6 8 11 17 11 9 0 17 -5 17 -11z m388 -3 c-3 -3 -11 0
-18 7 -9 10 -8 11 6 5 10 -3 15 -9 12 -12z m-1295 4 c0 -3 -4 -8 -10 -11 -5
-3 -10 -1 -10 4 0 6 5 11 10 11 6 0 10 -2 10 -4z m104 -4 c3 -5 -1 -9 -9 -9
-8 0 -15 4 -15 9 0 4 4 8 9 8 6 0 12 -4 15 -8z m201 -2 c3 -6 -1 -7 -9 -4 -18
7 -21 14 -7 14 6 0 13 -4 16 -10z m400 0 c3 -6 -1 -7 -9 -4 -18 7 -21 14 -7
14 6 0 13 -4 16 -10z m495 2 c0 -5 -7 -9 -15 -9 -8 0 -12 4 -9 9 3 4 9 8 15 8
5 0 9 -4 9 -8z m-1639 -15 c-6 -8 -9 -16 -7 -18 2 -2 -7 -4 -20 -4 -30 0 -30
1 4 19 34 19 37 19 23 3z m394 -7 c-3 -5 -11 -10 -16 -10 -6 0 -7 5 -4 10 3 6
11 10 16 10 6 0 7 -4 4 -10z m196 -7 c13 -15 12 -15 -8 -4 -24 12 -29 21 -14
21 5 0 15 -7 22 -17z m204 7 c-3 -5 -12 -10 -18 -10 -7 0 -6 4 3 10 19 12 23
12 15 0z m195 0 c0 -5 -4 -10 -9 -10 -6 0 -13 5 -16 10 -3 6 1 10 9 10 9 0 16
-4 16 -10z m210 5 c0 -2 -8 -9 -18 -14 -14 -7 -19 -6 -19 3 0 6 9 13 19 13 10
1 18 0 18 -2z m190 -5 c0 -5 -5 -10 -11 -10 -5 0 -7 5 -4 10 3 6 8 10 11 10 2
0 4 -4 4 -10z m210 5 c0 -2 -10 -10 -22 -16 -21 -11 -22 -11 -9 4 13 16 31 23
31 12z m190 -7 c0 -4 -4 -8 -9 -8 -6 0 -12 4 -15 8 -3 5 1 9 9 9 8 0 15 -4 15
-9z m-1595 -8 c3 -6 -1 -7 -9 -4 -18 7 -21 14 -7 14 6 0 13 -4 16 -10z m555
-15 c-14 -17 -30 -20 -30 -6 0 5 8 12 18 14 9 3 19 5 21 6 2 0 -2 -6 -9 -14z
m-810 -5 c0 -5 -4 -10 -10 -10 -5 0 -10 5 -10 10 0 6 5 10 10 10 6 0 10 -4 10
-10z m300 -5 c11 -13 10 -14 -4 -9 -9 3 -16 10 -16 15 0 13 6 11 20 -6z m100
5 c0 -5 -4 -10 -10 -10 -5 0 -10 5 -10 10 0 6 5 10 10 10 6 0 10 -4 10 -10z
m95 0 c3 -5 1 -10 -4 -10 -6 0 -11 5 -11 10 0 6 2 10 4 10 3 0 8 -4 11 -10z
m200 0 c3 -5 2 -10 -4 -10 -5 0 -13 5 -16 10 -3 6 -2 10 4 10 5 0 13 -4 16
-10z m200 0 c3 -5 1 -10 -4 -10 -6 0 -11 5 -11 10 0 6 2 10 4 10 3 0 8 -4 11
-10z m115 6 c0 -2 -7 -7 -16 -10 -8 -3 -12 -2 -9 4 6 10 25 14 25 6z m90 -6
c0 -5 -4 -10 -10 -10 -5 0 -10 5 -10 10 0 6 5 10 10 10 6 0 10 -4 10 -10z
m100 0 c0 -5 -4 -10 -9 -10 -6 0 -13 5 -16 10 -3 6 1 10 9 10 9 0 16 -4 16
-10z m205 0 c-3 -5 -11 -10 -16 -10 -6 0 -7 5 -4 10 3 6 11 10 16 10 6 0 7 -4
4 -10z m95 0 c0 -5 -4 -10 -10 -10 -5 0 -10 5 -10 10 0 6 5 10 10 10 6 0 10
-4 10 -10z m100 1 c0 -5 -7 -11 -14 -14 -10 -4 -13 -1 -9 9 6 15 23 19 23 5z
m205 -1 c-3 -5 -11 -10 -16 -10 -6 0 -7 5 -4 10 3 6 11 10 16 10 6 0 7 -4 4
-10z m95 0 c0 -5 -5 -10 -11 -10 -5 0 -7 5 -4 10 3 6 8 10 11 10 2 0 4 -4 4
-10z m-1230 -15 c0 -2 -10 -9 -22 -15 -22 -11 -22 -10 -4 4 21 17 26 19 26 11z
m-630 -15 c0 -5 -2 -10 -4 -10 -3 0 -8 5 -11 10 -3 6 -1 10 4 10 6 0 11 -4 11
-10z m310 4 c0 -8 -19 -13 -24 -6 -3 5 1 9 9 9 8 0 15 -2 15 -3z m95 -4 c3 -5
1 -10 -4 -10 -6 0 -11 5 -11 10 0 6 2 10 4 10 3 0 8 -4 11 -10z m1005 0 c0 -5
-5 -10 -11 -10 -5 0 -7 5 -4 10 3 6 8 10 11 10 2 0 4 -4 4 -10z m104 -2 c-3
-4 -11 -5 -19 -1 -21 7 -19 12 4 10 11 0 18 -5 15 -9z m-1454 -28 c0 -5 -4
-10 -10 -10 -5 0 -10 5 -10 10 0 6 5 10 10 10 6 0 10 -4 10 -10z m100 1 c0 -5
-9 -11 -21 -14 -16 -4 -18 -3 -8 9 13 16 29 19 29 5z m300 -1 c0 -5 -4 -10
-10 -10 -5 0 -10 5 -10 10 0 6 5 10 10 10 6 0 10 -4 10 -10z m100 0 c0 -5 -4
-10 -10 -10 -5 0 -10 5 -10 10 0 6 5 10 10 10 6 0 10 -4 10 -10z m300 0 c0 -5
-4 -10 -10 -10 -5 0 -10 5 -10 10 0 6 5 10 10 10 6 0 10 -4 10 -10z m100 0 c0
-5 -4 -10 -10 -10 -5 0 -10 5 -10 10 0 6 5 10 10 10 6 0 10 -4 10 -10z m300 0
c0 -5 -4 -10 -10 -10 -5 0 -10 5 -10 10 0 6 5 10 10 10 6 0 10 -4 10 -10z
m100 0 c0 -5 -4 -10 -10 -10 -5 0 -10 5 -10 10 0 6 5 10 10 10 6 0 10 -4 10
-10z m300 0 c0 -5 -4 -10 -10 -10 -5 0 -10 5 -10 10 0 6 5 10 10 10 6 0 10 -4
10 -10z m105 0 c3 -5 -1 -10 -9 -10 -9 0 -16 5 -16 10 0 6 4 10 9 10 6 0 13
-4 16 -10z m-1765 -30 c0 -5 -5 -10 -11 -10 -5 0 -7 5 -4 10 3 6 8 10 11 10 2
0 4 -4 4 -10z m110 0 c0 -5 -4 -10 -10 -10 -5 0 -10 5 -10 10 0 6 5 10 10 10
6 0 10 -4 10 -10z m95 0 c3 -5 1 -10 -4 -10 -6 0 -11 5 -11 10 0 6 2 10 4 10
3 0 8 -4 11 -10z m105 0 c0 -5 -4 -10 -10 -10 -5 0 -10 5 -10 10 0 6 5 10 10
10 6 0 10 -4 10 -10z m400 0 c0 -5 -4 -10 -10 -10 -5 0 -10 5 -10 10 0 6 5 10
10 10 6 0 10 -4 10 -10z m100 6 c0 -3 -4 -8 -10 -11 -5 -3 -10 -1 -10 4 0 6 5
11 10 11 6 0 10 -2 10 -4z m300 -6 c0 -5 -4 -10 -10 -10 -5 0 -10 5 -10 10 0
6 5 10 10 10 6 0 10 -4 10 -10z m200 0 c0 -5 -4 -10 -10 -10 -5 0 -10 5 -10
10 0 6 5 10 10 10 6 0 10 -4 10 -10z m200 0 c0 -5 -4 -10 -10 -10 -5 0 -10 5
-10 10 0 6 5 10 10 10 6 0 10 -4 10 -10z m300 0 c0 -5 -2 -10 -4 -10 -3 0 -8
5 -11 10 -3 6 -1 10 4 10 6 0 11 -4 11 -10z m-1750 -24 c0 -3 -4 -8 -10 -11
-5 -3 -10 -1 -10 4 0 6 5 11 10 11 6 0 10 -2 10 -4z m395 -6 c-3 -5 -11 -10
-16 -10 -6 0 -7 5 -4 10 3 6 11 10 16 10 6 0 7 -4 4 -10z m616 -7 c13 -17 13
-17 -6 -3 -11 8 -22 16 -24 17 -2 2 0 3 6 3 6 0 17 -8 24 -17z m289 7 c0 -5
-2 -10 -4 -10 -3 0 -8 5 -11 10 -3 6 -1 10 4 10 6 0 11 -4 11 -10z m405 0 c3
-5 2 -10 -4 -10 -5 0 -13 5 -16 10 -3 6 -2 10 4 10 5 0 13 -4 16 -10z m-355
-31 c0 -14 -17 -10 -23 5 -4 10 -1 13 9 9 7 -3 14 -9 14 -14z m-1389 -6 c12
-16 12 -17 -2 -6 -9 7 -19 10 -22 6 -4 -3 -7 -1 -7 5 0 17 16 15 31 -5z m189
13 c0 -3 -4 -8 -10 -11 -5 -3 -10 -1 -10 4 0 6 5 11 10 11 6 0 10 -2 10 -4z
m100 0 c0 -3 -4 -8 -10 -11 -5 -3 -10 -1 -10 4 0 6 5 11 10 11 6 0 10 -2 10
-4z m95 -6 c-3 -5 -11 -10 -16 -10 -6 0 -7 5 -4 10 3 6 11 10 16 10 6 0 7 -4
4 -10z m205 0 c0 -5 -7 -10 -16 -10 -8 0 -12 5 -9 10 3 6 10 10 16 10 5 0 9
-4 9 -10z m100 0 c0 -5 -4 -10 -10 -10 -5 0 -10 5 -10 10 0 6 5 10 10 10 6 0
10 -4 10 -10z m95 0 c-3 -5 -11 -10 -16 -10 -6 0 -7 5 -4 10 3 6 11 10 16 10
6 0 7 -4 4 -10z m205 0 c0 -5 -4 -10 -10 -10 -5 0 -10 5 -10 10 0 6 5 10 10
10 6 0 10 -4 10 -10z m100 0 c0 -5 -4 -10 -10 -10 -5 0 -10 5 -10 10 0 6 5 10
10 10 6 0 10 -4 10 -10z m95 0 c-3 -5 -11 -10 -16 -10 -6 0 -7 5 -4 10 3 6 11
10 16 10 6 0 7 -4 4 -10z m305 0 c0 -5 -4 -10 -10 -10 -5 0 -10 5 -10 10 0 6
5 10 10 10 6 0 10 -4 10 -10z m100 0 c0 -5 -4 -10 -10 -10 -5 0 -10 5 -10 10
0 6 5 10 10 10 6 0 10 -4 10 -10z m200 0 c0 -5 -2 -10 -4 -10 -3 0 -8 5 -11
10 -3 6 -1 10 4 10 6 0 11 -4 11 -10z m-1845 -20 c-3 -5 -12 -10 -18 -10 -7 0
-6 4 3 10 19 12 23 12 15 0z m305 5 c0 -2 -10 -9 -22 -15 -22 -11 -22 -10 -4
4 21 17 26 19 26 11z m97 -8 c0 -7 -9 -13 -19 -13 -18 0 -18 1 -2 13 10 7 18
13 19 13 1 0 2 -6 2 -13z m593 -2 c-7 -9 -15 -13 -19 -10 -3 3 1 10 9 15 21
14 24 12 10 -5z m300 -7 c0 -6 -6 -5 -15 2 -8 7 -15 14 -15 16 0 2 7 1 15 -2
8 -4 15 -11 15 -16z m195 4 c-3 -3 -11 0 -18 7 -9 10 -8 11 6 5 10 -3 15 -9
12 -12z m-690 -2 c3 -6 -1 -7 -9 -4 -18 7 -21 14 -7 14 6 0 13 -4 16 -10z
m300 0 c3 -6 -1 -7 -9 -4 -18 7 -21 14 -7 14 6 0 13 -4 16 -10z m100 0 c3 -6
-1 -7 -9 -4 -18 7 -21 14 -7 14 6 0 13 -4 16 -10z m195 6 c0 -3 -4 -8 -10 -11
-5 -3 -10 -1 -10 4 0 6 5 11 10 11 6 0 10 -2 10 -4z m199 1 c-2 -1 -13 -9 -24
-17 -19 -14 -19 -14 -6 3 7 9 18 17 24 17 6 0 8 -1 6 -3z m-949 -32 c-7 -9
-15 -13 -19 -10 -3 3 1 10 9 15 21 14 24 12 10 -5z m107 2 c0 -7 -10 -14 -21
-14 -21 -2 -21 -2 -2 13 24 17 23 17 23 1z m188 -5 c-3 -3 -11 0 -18 7 -9 10
-8 11 6 5 10 -3 15 -9 12 -12z m800 0 c-3 -3 -11 0 -18 7 -9 10 -8 11 6 5 10
-3 15 -9 12 -12z m-1395 4 c0 -3 -4 -8 -10 -11 -5 -3 -10 -1 -10 4 0 6 5 11
10 11 6 0 10 -2 10 -4z m700 0 c0 -3 -4 -8 -10 -11 -5 -3 -10 -1 -10 4 0 6 5
11 10 11 6 0 10 -2 10 -4z m100 0 c0 -2 -7 -7 -16 -10 -8 -3 -12 -2 -9 4 6 10
25 14 25 6z m400 0 c0 -2 -7 -7 -16 -10 -8 -3 -12 -2 -9 4 6 10 25 14 25 6z
m-1340 -22 c0 -2 -9 -8 -20 -14 -15 -8 -18 -8 -14 3 4 11 34 21 34 11z m300
-17 c0 -2 -8 -3 -18 -3 -10 0 -19 6 -19 13 0 8 6 9 19 2 10 -5 18 -11 18 -12z
m82 8 c0 -5 -5 -11 -10 -13 -5 -1 -9 4 -9 13 0 9 4 14 9 13 5 -2 10 -8 10 -13z
m403 5 c3 -5 1 -10 -4 -10 -6 0 -11 5 -11 10 0 6 2 10 4 10 3 0 8 -4 11 -10z
m424 -16 c14 -12 -19 -1 -35 12 -18 14 -18 14 6 3 14 -6 27 -13 29 -15z m281
16 c0 -5 -5 -10 -11 -10 -5 0 -7 5 -4 10 3 6 8 10 11 10 2 0 4 -4 4 -10z m100
-5 c0 -2 -6 -5 -13 -8 -8 -3 -14 1 -14 8 0 7 6 11 14 8 7 -3 13 -6 13 -8z
m-1655 -33 c-3 -3 -11 0 -18 7 -9 10 -8 11 6 5 10 -3 15 -9 12 -12z m106 1
c13 -15 12 -15 -8 -4 -24 12 -29 21 -14 21 5 0 15 -7 22 -17z m299 3 c-7 -7
-13 -7 -20 0 -6 6 -3 10 10 10 13 0 16 -4 10 -10z m95 4 c3 -5 2 -10 -4 -10
-5 0 -13 5 -16 10 -3 6 -2 10 4 10 5 0 13 -4 16 -10z m215 6 c0 -2 -7 -7 -16
-10 -8 -3 -12 -2 -9 4 6 10 25 14 25 6z m85 -14 c-3 -3 -11 0 -18 7 -9 10 -8
11 6 5 10 -3 15 -9 12 -12z m100 8 c3 -6 -1 -7 -9 -4 -18 7 -21 14 -7 14 6 0
13 -4 16 -10z m210 0 c-3 -5 -11 -10 -16 -10 -6 0 -7 5 -4 10 3 6 11 10 16 10
6 0 7 -4 4 -10z m400 0 c-3 -5 -11 -10 -16 -10 -6 0 -7 5 -4 10 3 6 11 10 16
10 6 0 7 -4 4 -10z m-1300 -10 c3 -6 -1 -7 -9 -4 -18 7 -21 14 -7 14 6 0 13
-4 16 -10z m1138 -13 c4 3 7 1 7 -5 0 -17 -16 -15 -31 6 -12 15 -12 16 2 5 9
-7 19 -10 22 -6z m-1493 -12 c11 -13 10 -14 -4 -9 -9 3 -16 10 -16 15 0 13 6
11 20 -6z m195 5 c3 -5 1 -10 -4 -10 -6 0 -11 5 -11 10 0 6 2 10 4 10 3 0 8
-4 11 -10z m105 0 c0 -5 -4 -10 -10 -10 -5 0 -10 5 -10 10 0 6 5 10 10 10 6 0
10 -4 10 -10z m100 0 c0 -5 -4 -10 -10 -10 -5 0 -10 5 -10 10 0 6 5 10 10 10
6 0 10 -4 10 -10z m195 0 c3 -5 1 -10 -4 -10 -6 0 -11 5 -11 10 0 6 2 10 4 10
3 0 8 -4 11 -10z m105 0 c0 -5 -4 -10 -10 -10 -5 0 -10 5 -10 10 0 6 5 10 10
10 6 0 10 -4 10 -10z m100 0 c0 -5 -4 -10 -10 -10 -5 0 -10 5 -10 10 0 6 5 10
10 10 6 0 10 -4 10 -10z m195 0 c3 -5 2 -10 -4 -10 -5 0 -13 5 -16 10 -3 6 -2
10 4 10 5 0 13 -4 16 -10z m105 0 c0 -5 -4 -10 -10 -10 -5 0 -10 5 -10 10 0 6
5 10 10 10 6 0 10 -4 10 -10z m100 0 c0 -5 -4 -10 -10 -10 -5 0 -10 5 -10 10
0 6 5 10 10 10 6 0 10 -4 10 -10z m400 0 c0 -5 -4 -10 -10 -10 -5 0 -10 5 -10
10 0 6 5 10 10 10 6 0 10 -4 10 -10z m100 0 c0 -5 -5 -10 -11 -10 -5 0 -7 5
-4 10 3 6 8 10 11 10 2 0 4 -4 4 -10z m200 1 c0 -5 -7 -12 -16 -15 -14 -5 -15
-4 -4 9 14 17 20 19 20 6z m-1855 -31 c3 -5 2 -10 -4 -10 -5 0 -13 5 -16 10
-3 6 -2 10 4 10 5 0 13 -4 16 -10z m205 0 c0 -5 -4 -10 -10 -10 -5 0 -10 5
-10 10 0 6 5 10 10 10 6 0 10 -4 10 -10z m200 0 c0 -5 -4 -10 -9 -10 -6 0 -13
5 -16 10 -3 6 1 10 9 10 9 0 16 -4 16 -10z m200 0 c0 -5 -4 -10 -10 -10 -5 0
-10 5 -10 10 0 6 5 10 10 10 6 0 10 -4 10 -10z m200 0 c0 -5 -4 -10 -10 -10
-5 0 -10 5 -10 10 0 6 5 10 10 10 6 0 10 -4 10 -10z m200 0 c0 -5 -4 -10 -10
-10 -5 0 -10 5 -10 10 0 6 5 10 10 10 6 0 10 -4 10 -10z m200 0 c0 -5 -4 -10
-10 -10 -5 0 -10 5 -10 10 0 6 5 10 10 10 6 0 10 -4 10 -10z m200 0 c0 -5 -4
-10 -10 -10 -5 0 -10 5 -10 10 0 6 5 10 10 10 6 0 10 -4 10 -10z m209 -4 c10
-12 8 -13 -8 -9 -12 3 -21 9 -21 14 0 14 16 11 29 -5z m196 4 c-3 -5 -10 -10
-16 -10 -5 0 -9 5 -9 10 0 6 7 10 16 10 8 0 12 -4 9 -10z m-1755 -31 c0 -14
-16 -11 -29 5 -10 12 -8 13 8 9 12 -3 21 -9 21 -14z m196 -7 c-4 -3 -14 2 -24
12 -16 18 -16 18 6 6 13 -6 21 -14 18 -18z m-96 9 c0 -5 -9 -11 -21 -14 -16
-4 -18 -3 -8 9 13 16 29 19 29 5z m200 5 c0 -3 -4 -8 -10 -11 -5 -3 -10 -1
-10 4 0 6 5 11 10 11 6 0 10 -2 10 -4z m100 -6 c0 -5 -4 -10 -10 -10 -5 0 -10
5 -10 10 0 6 5 10 10 10 6 0 10 -4 10 -10z m100 0 c0 -5 -4 -10 -10 -10 -5 0
-10 5 -10 10 0 6 5 10 10 10 6 0 10 -4 10 -10z m300 0 c0 -5 -4 -10 -10 -10
-5 0 -10 5 -10 10 0 6 5 10 10 10 6 0 10 -4 10 -10z m100 0 c0 -5 -4 -10 -10
-10 -5 0 -10 5 -10 10 0 6 5 10 10 10 6 0 10 -4 10 -10z m300 0 c0 -5 -4 -10
-10 -10 -5 0 -10 5 -10 10 0 6 5 10 10 10 6 0 10 -4 10 -10z m100 0 c0 -5 -4
-10 -10 -10 -5 0 -10 5 -10 10 0 6 5 10 10 10 6 0 10 -4 10 -10z m100 0 c0 -5
-2 -10 -4 -10 -3 0 -8 5 -11 10 -3 6 -1 10 4 10 6 0 11 -4 11 -10z m200 0 c0
-5 -4 -10 -10 -10 -5 0 -10 5 -10 10 0 6 5 10 10 10 6 0 10 -4 10 -10z m100 0
c0 -5 -4 -10 -10 -10 -5 0 -10 5 -10 10 0 6 5 10 10 10 6 0 10 -4 10 -10z
m100 0 c0 -5 -2 -10 -4 -10 -3 0 -8 5 -11 10 -3 6 -1 10 4 10 6 0 11 -4 11
-10z m-1855 -30 c-3 -5 -11 -10 -16 -10 -6 0 -7 5 -4 10 3 6 11 10 16 10 6 0
7 -4 4 -10z m105 6 c0 -3 -4 -8 -10 -11 -5 -3 -10 -1 -10 4 0 6 5 11 10 11 6
0 10 -2 10 -4z m95 -6 c3 -5 1 -10 -4 -10 -6 0 -11 5 -11 10 0 6 2 10 4 10 3
0 8 -4 11 -10z m205 6 c0 -3 -4 -8 -10 -11 -5 -3 -10 -1 -10 4 0 6 5 11 10 11
6 0 10 -2 10 -4z m300 0 c0 -2 -7 -7 -16 -10 -8 -3 -12 -2 -9 4 6 10 25 14 25
6z m500 -1 c0 -2 -10 -9 -22 -15 -22 -11 -22 -10 -4 4 21 17 26 19 26 11z
m300 1 c0 -3 -4 -8 -10 -11 -5 -3 -10 -1 -10 4 0 6 5 11 10 11 6 0 10 -2 10
-4z m100 -6 c0 -5 -5 -10 -11 -10 -5 0 -7 5 -4 10 3 6 8 10 11 10 2 0 4 -4 4
-10z m100 0 c0 -5 -2 -10 -4 -10 -3 0 -8 5 -11 10 -3 6 -1 10 4 10 6 0 11 -4
11 -10z m100 0 c0 -5 -2 -10 -4 -10 -3 0 -8 5 -11 10 -3 6 -1 10 4 10 6 0 11
-4 11 -10z m-1546 -25 c-7 -16 -24 -21 -24 -6 0 8 7 13 27 20 1 1 0 -6 -3 -14z
m-304 1 c0 -3 -4 -8 -10 -11 -5 -3 -10 -1 -10 4 0 6 5 11 10 11 6 0 10 -2 10
-4z m400 -6 c0 -5 -4 -10 -10 -10 -5 0 -10 5 -10 10 0 6 5 10 10 10 6 0 10 -4
10 -10z m300 0 c0 -5 -4 -10 -10 -10 -5 0 -10 5 -10 10 0 6 5 10 10 10 6 0 10
-4 10 -10z m100 0 c0 -5 -4 -10 -10 -10 -5 0 -10 5 -10 10 0 6 5 10 10 10 6 0
10 -4 10 -10z m300 0 c0 -5 -2 -10 -4 -10 -3 0 -8 5 -11 10 -3 6 -1 10 4 10 6
0 11 -4 11 -10z m100 0 c0 -5 -4 -10 -10 -10 -5 0 -10 5 -10 10 0 6 5 10 10
10 6 0 10 -4 10 -10z m305 0 c3 -5 -1 -10 -9 -10 -9 0 -16 5 -16 10 0 6 4 10
9 10 6 0 13 -4 16 -10z m95 0 c0 -5 -4 -10 -10 -10 -5 0 -10 5 -10 10 0 6 5
10 10 10 6 0 10 -4 10 -10z m300 0 c0 -5 -2 -10 -4 -10 -3 0 -8 5 -11 10 -3 6
-1 10 4 10 6 0 11 -4 11 -10z m-1760 -15 c0 -8 -4 -15 -10 -15 -5 0 -7 7 -4
15 4 8 8 15 10 15 2 0 4 -7 4 -15z m210 -15 c0 -5 -2 -10 -4 -10 -3 0 -8 5
-11 10 -3 6 -1 10 4 10 6 0 11 -4 11 -10z m195 0 c-3 -5 -11 -10 -16 -10 -6 0
-7 5 -4 10 3 6 11 10 16 10 6 0 7 -4 4 -10z m105 6 c0 -3 -4 -8 -10 -11 -5 -3
-10 -1 -10 4 0 6 5 11 10 11 6 0 10 -2 10 -4z m300 -6 c0 -5 -2 -10 -4 -10 -3
0 -8 5 -11 10 -3 6 -1 10 4 10 6 0 11 -4 11 -10z m95 0 c-3 -5 -11 -10 -16
-10 -6 0 -7 5 -4 10 3 6 11 10 16 10 6 0 7 -4 4 -10z m110 0 c3 -6 -1 -7 -9
-4 -18 7 -21 14 -7 14 6 0 13 -4 16 -10z m195 0 c0 -5 -2 -10 -4 -10 -3 0 -8
5 -11 10 -3 6 -1 10 4 10 6 0 11 -4 11 -10z m205 0 c3 -6 -1 -7 -9 -4 -18 7
-21 14 -7 14 6 0 13 -4 16 -10z m95 0 c0 -5 -2 -10 -4 -10 -3 0 -8 5 -11 10
-3 6 -1 10 4 10 6 0 11 -4 11 -10z m100 2 c0 -5 -7 -9 -15 -9 -8 0 -12 4 -9 9
3 4 9 8 15 8 5 0 9 -4 9 -8z m-1545 -22 c-3 -5 -12 -10 -18 -10 -7 0 -6 4 3
10 19 12 23 12 15 0z m302 -3 c0 -7 -9 -13 -19 -13 -18 0 -18 1 -2 13 10 7 18
13 19 13 1 0 2 -6 2 -13z m198 3 c-3 -5 -12 -10 -18 -10 -7 0 -6 4 3 10 19 12
23 12 15 0z m202 -4 c0 -8 -6 -12 -15 -9 -11 5 -11 7 0 14 7 5 13 9 14 9 0 0
1 -6 1 -14z m193 4 c0 -5 -5 -10 -11 -10 -5 0 -7 5 -4 10 3 6 8 10 11 10 2 0
4 -4 4 -10z m595 -8 c-3 -3 -11 0 -18 7 -9 10 -8 11 6 5 10 -3 15 -9 12 -12z
m105 3 c0 -2 -6 -5 -13 -8 -8 -3 -14 1 -14 8 0 7 6 11 14 8 7 -3 13 -6 13 -8z
m-1710 1 c0 -2 -7 -7 -16 -10 -8 -3 -12 -2 -9 4 6 10 25 14 25 6z m1115 -6 c3
-6 -1 -7 -9 -4 -18 7 -21 14 -7 14 6 0 13 -4 16 -10z m99 2 c2 -4 -4 -8 -14
-8 -10 0 -16 4 -14 8 3 4 9 8 14 8 5 0 11 -4 14 -8z m95 5 c-2 -1 -13 -9 -24
-17 -19 -14 -19 -14 -6 3 7 9 18 17 24 17 6 0 8 -1 6 -3z m201 -7 c0 -5 -2
-10 -4 -10 -3 0 -8 5 -11 10 -3 6 -1 10 4 10 6 0 11 -4 11 -10z m-1555 -20
c-3 -5 -11 -10 -16 -10 -6 0 -7 5 -4 10 3 6 11 10 16 10 6 0 7 -4 4 -10z m149
-38 c-4 -6 -64 31 -64 40 0 4 15 -3 34 -15 18 -12 32 -24 30 -25z m63 34 c0
-8 -6 -12 -15 -9 -11 5 -11 7 0 14 7 5 13 9 14 9 0 0 1 -6 1 -14z m398 4 c-3
-5 -12 -10 -18 -10 -7 0 -6 4 3 10 19 12 23 12 15 0z m199 -5 c-4 -8 -11 -12
-16 -9 -6 4 -5 10 3 15 19 12 19 11 13 -6z m201 5 c-3 -5 -12 -10 -18 -10 -7
0 -6 4 3 10 19 12 23 12 15 0z m200 0 c-3 -5 -11 -10 -16 -10 -6 0 -7 5 -4 10
3 6 11 10 16 10 6 0 7 -4 4 -10z m195 -12 c0 -6 -6 -5 -15 2 -8 7 -15 14 -15
16 0 2 7 1 15 -2 8 -4 15 -11 15 -16z m204 9 c-3 -8 -12 -14 -21 -14 -13 0
-13 2 3 14 22 16 25 16 18 0z m96 -2 c0 -6 -6 -12 -13 -12 -8 0 -14 6 -14 12
0 6 6 12 14 12 7 0 13 -6 13 -12z m-1195 -5 c3 -5 2 -10 -4 -10 -5 0 -13 5
-16 10 -3 6 -2 10 4 10 5 0 13 -4 16 -10z m1295 2 c0 -5 -7 -9 -15 -9 -8 0
-12 4 -9 9 3 4 9 8 15 8 5 0 9 -4 9 -8z m-1850 -16 c0 -3 -4 -8 -10 -11 -5 -3
-10 -1 -10 4 0 6 5 11 10 11 6 0 10 -2 10 -4z m105 -6 c-3 -5 -12 -10 -18 -10
-7 0 -6 4 3 10 19 12 23 12 15 0z m305 6 c0 -2 -7 -7 -16 -10 -8 -3 -12 -2 -9
4 6 10 25 14 25 6z m190 -10 c-7 -7 -13 -7 -20 0 -6 6 -3 10 10 10 13 0 16 -4
10 -10z m210 10 c0 -2 -7 -7 -16 -10 -8 -3 -12 -2 -9 4 6 10 25 14 25 6z m95
-6 c-3 -5 -12 -10 -18 -10 -7 0 -6 4 3 10 19 12 23 12 15 0z m90 -8 c-3 -3
-11 0 -18 7 -9 10 -8 11 6 5 10 -3 15 -9 12 -12z m205 8 c0 -5 -5 -10 -11 -10
-5 0 -7 5 -4 10 3 6 8 10 11 10 2 0 4 -4 4 -10z m105 0 c-3 -5 -12 -10 -18
-10 -7 0 -6 4 3 10 19 12 23 12 15 0z m90 -8 c-3 -3 -11 0 -18 7 -9 10 -8 11
6 5 10 -3 15 -9 12 -12z m205 8 c0 -5 -5 -10 -11 -10 -5 0 -7 5 -4 10 3 6 8
10 11 10 2 0 4 -4 4 -10z m105 0 c-3 -5 -12 -10 -18 -10 -7 0 -6 4 3 10 19 12
23 12 15 0z m192 -12 c-3 -8 -6 -5 -6 6 -1 11 2 17 5 13 3 -3 4 -12 1 -19z
m-1744 -22 c4 -10 1 -13 -9 -9 -7 3 -14 9 -14 14 0 14 17 10 23 -5z m192 -4
c-3 -3 -11 0 -18 7 -9 10 -8 11 6 5 10 -3 15 -9 12 -12z m115 14 c0 -2 -7 -7
-16 -10 -8 -3 -12 -2 -9 4 6 10 25 14 25 6z m97 -10 c0 -11 -5 -13 -19 -5 -10
5 -18 12 -18 14 0 3 8 5 18 5 10 0 19 -7 19 -14z m188 -4 c-3 -3 -11 0 -18 7
-9 10 -8 11 6 5 10 -3 15 -9 12 -12z m207 6 c-9 -9 -15 -9 -24 0 -9 9 -7 12
12 12 19 0 21 -3 12 -12z m298 2 c0 -5 -5 -10 -11 -10 -5 0 -7 5 -4 10 3 6 8
10 11 10 2 0 4 -4 4 -10z m100 -1 c0 -4 -6 -9 -13 -12 -8 -3 -14 0 -14 7 0 7
6 13 14 13 7 0 13 -4 13 -8z m95 1 c3 -6 -1 -7 -9 -4 -18 7 -21 14 -7 14 6 0
13 -4 16 -10z m105 -5 c0 -2 -6 -5 -13 -8 -8 -3 -14 1 -14 8 0 7 6 11 14 8 7
-3 13 -6 13 -8z m105 5 c-3 -5 -11 -10 -16 -10 -6 0 -7 5 -4 10 3 6 11 10 16
10 6 0 7 -4 4 -10z m95 -6 c0 -8 -4 -12 -10 -9 -5 3 -10 10 -10 16 0 5 5 9 10
9 6 0 10 -7 10 -16z m-1750 -24 c0 -5 -4 -10 -10 -10 -5 0 -10 5 -10 10 0 6 5
10 10 10 6 0 10 -4 10 -10z m300 0 c0 -5 -4 -10 -10 -10 -5 0 -10 5 -10 10 0
6 5 10 10 10 6 0 10 -4 10 -10z m100 0 c0 -5 -4 -10 -10 -10 -5 0 -10 5 -10
10 0 6 5 10 10 10 6 0 10 -4 10 -10z m300 0 c0 -5 -4 -10 -10 -10 -5 0 -10 5
-10 10 0 6 5 10 10 10 6 0 10 -4 10 -10z m100 0 c0 -5 -4 -10 -10 -10 -5 0
-10 5 -10 10 0 6 5 10 10 10 6 0 10 -4 10 -10z m300 0 c0 -5 -4 -10 -10 -10
-5 0 -10 5 -10 10 0 6 5 10 10 10 6 0 10 -4 10 -10z m100 0 c0 -5 -4 -10 -10
-10 -5 0 -10 5 -10 10 0 6 5 10 10 10 6 0 10 -4 10 -10z m300 0 c0 -5 -4 -10
-10 -10 -5 0 -10 5 -10 10 0 6 5 10 10 10 6 0 10 -4 10 -10z m100 0 c0 -5 -4
-10 -10 -10 -5 0 -10 5 -10 10 0 6 5 10 10 10 6 0 10 -4 10 -10z m300 0 c0 -5
-4 -10 -10 -10 -5 0 -10 5 -10 10 0 6 5 10 10 10 6 0 10 -4 10 -10z m-1855
-30 c3 -5 1 -10 -4 -10 -6 0 -11 5 -11 10 0 6 2 10 4 10 3 0 8 -4 11 -10z
m205 6 c0 -3 -4 -8 -10 -11 -5 -3 -10 -1 -10 4 0 6 5 11 10 11 6 0 10 -2 10
-4z m195 -6 c3 -5 1 -10 -4 -10 -6 0 -11 5 -11 10 0 6 2 10 4 10 3 0 8 -4 11
-10z m305 0 c0 -5 -5 -10 -11 -10 -5 0 -7 5 -4 10 3 6 8 10 11 10 2 0 4 -4 4
-10z m800 0 c0 -5 -5 -10 -11 -10 -5 0 -7 5 -4 10 3 6 8 10 11 10 2 0 4 -4 4
-10z m300 0 c0 -5 -5 -10 -11 -10 -5 0 -7 5 -4 10 3 6 8 10 11 10 2 0 4 -4 4
-10z m-1855 -30 c3 -5 1 -10 -4 -10 -6 0 -11 5 -11 10 0 6 2 10 4 10 3 0 8 -4
11 -10z m105 1 c0 -5 -9 -11 -21 -14 -16 -4 -18 -3 -8 9 13 16 29 19 29 5z
m100 -1 c0 -5 -4 -10 -10 -10 -5 0 -10 5 -10 10 0 6 5 10 10 10 6 0 10 -4 10
-10z m100 6 c0 -3 -4 -8 -10 -11 -5 -3 -10 -1 -10 4 0 6 5 11 10 11 6 0 10 -2
10 -4z m95 -6 c3 -5 1 -10 -4 -10 -6 0 -11 5 -11 10 0 6 2 10 4 10 3 0 8 -4
11 -10z m105 0 c0 -5 -4 -10 -10 -10 -5 0 -10 5 -10 10 0 6 5 10 10 10 6 0 10
-4 10 -10z m100 0 c0 -5 -4 -10 -10 -10 -5 0 -10 5 -10 10 0 6 5 10 10 10 6 0
10 -4 10 -10z m300 0 c0 -5 -4 -10 -10 -10 -5 0 -10 5 -10 10 0 6 5 10 10 10
6 0 10 -4 10 -10z m100 0 c0 -5 -4 -10 -10 -10 -5 0 -10 5 -10 10 0 6 5 10 10
10 6 0 10 -4 10 -10z m100 5 c0 -2 -10 -9 -22 -15 -22 -11 -22 -10 -4 4 21 17
26 19 26 11z m200 -5 c0 -5 -4 -10 -10 -10 -5 0 -10 5 -10 10 0 6 5 10 10 10
6 0 10 -4 10 -10z m100 0 c0 -5 -4 -10 -10 -10 -5 0 -10 5 -10 10 0 6 5 10 10
10 6 0 10 -4 10 -10z m300 0 c0 -5 -4 -10 -10 -10 -5 0 -10 5 -10 10 0 6 5 10
10 10 6 0 10 -4 10 -10z m100 0 c0 -5 -4 -10 -10 -10 -5 0 -10 5 -10 10 0 6 5
10 10 10 6 0 10 -4 10 -10z m100 0 c0 -5 -5 -10 -11 -10 -5 0 -7 5 -4 10 3 6
8 10 11 10 2 0 4 -4 4 -10z m-1850 -30 c0 -5 -4 -10 -10 -10 -5 0 -10 5 -10
10 0 6 5 10 10 10 6 0 10 -4 10 -10z m200 0 c0 -5 -7 -10 -16 -10 -8 0 -12 5
-9 10 3 6 10 10 16 10 5 0 9 -4 9 -10z m200 0 c0 -5 -4 -10 -10 -10 -5 0 -10
5 -10 10 0 6 5 10 10 10 6 0 10 -4 10 -10z m200 0 c0 -5 -4 -10 -10 -10 -5 0
-10 5 -10 10 0 6 5 10 10 10 6 0 10 -4 10 -10z m195 0 c-3 -5 -11 -10 -16 -10
-6 0 -7 5 -4 10 3 6 11 10 16 10 6 0 7 -4 4 -10z m214 -4 c10 -12 8 -13 -8 -9
-12 3 -21 9 -21 14 0 14 16 11 29 -5z m191 4 c0 -5 -4 -10 -10 -10 -5 0 -10 5
-10 10 0 6 5 10 10 10 6 0 10 -4 10 -10z m200 0 c0 -5 -4 -10 -10 -10 -5 0
-10 5 -10 10 0 6 5 10 10 10 6 0 10 -4 10 -10z m200 0 c0 -5 -4 -10 -10 -10
-5 0 -10 5 -10 10 0 6 5 10 10 10 6 0 10 -4 10 -10z m200 0 c0 -5 -4 -10 -10
-10 -5 0 -10 5 -10 10 0 6 5 10 10 10 6 0 10 -4 10 -10z m-1846 -25 c-7 -16
-24 -21 -24 -6 0 8 7 13 27 20 1 1 0 -6 -3 -14z m1492 0 c10 -8 15 -14 9 -14
-5 0 -19 6 -29 14 -11 8 -15 15 -10 15 6 0 19 -7 30 -15z m-1196 -5 c0 -5 -7
-10 -16 -10 -8 0 -12 5 -9 10 3 6 10 10 16 10 5 0 9 -4 9 -10z m100 6 c0 -3
-4 -8 -10 -11 -5 -3 -10 -1 -10 4 0 6 5 11 10 11 6 0 10 -2 10 -4z m200 0 c0
-3 -4 -8 -10 -11 -5 -3 -10 -1 -10 4 0 6 5 11 10 11 6 0 10 -2 10 -4z m100 -6
c0 -5 -4 -10 -10 -10 -5 0 -10 5 -10 10 0 6 5 10 10 10 6 0 10 -4 10 -10z
m100 0 c0 -5 -7 -10 -16 -10 -8 0 -12 5 -9 10 3 6 10 10 16 10 5 0 9 -4 9 -10z
m200 6 c0 -3 -4 -8 -10 -11 -5 -3 -10 -1 -10 4 0 6 5 11 10 11 6 0 10 -2 10
-4z m100 -6 c0 -5 -4 -10 -10 -10 -5 0 -10 5 -10 10 0 6 5 10 10 10 6 0 10 -4
10 -10z m100 0 c0 -5 -4 -10 -10 -10 -5 0 -10 5 -10 10 0 6 5 10 10 10 6 0 10
-4 10 -10z m100 0 c0 -5 -2 -10 -4 -10 -3 0 -8 5 -11 10 -3 6 -1 10 4 10 6 0
11 -4 11 -10z m300 1 c0 -5 -9 -11 -21 -14 -16 -4 -18 -3 -8 9 13 16 29 19 29
5z m300 -1 c0 -5 -2 -10 -4 -10 -3 0 -8 5 -11 10 -3 6 -1 10 4 10 6 0 11 -4
11 -10z m-1650 -25 c-7 -9 -15 -13 -19 -10 -3 3 1 10 9 15 21 14 24 12 10 -5z
m400 0 c-7 -8 -18 -15 -24 -15 -6 0 -2 7 8 15 25 19 32 19 16 0z m105 5 c-3
-5 -12 -10 -18 -10 -7 0 -6 4 3 10 19 12 23 12 15 0z m395 -4 c-4 -4 -16 -4
-26 2 -16 9 -14 10 8 9 15 -1 23 -6 18 -11z m395 -4 c-3 -3 -11 0 -18 7 -9 10
-8 11 6 5 10 -3 15 -9 12 -12z m105 -4 c0 -6 -6 -5 -15 2 -8 7 -15 14 -15 16
0 2 7 1 15 -2 8 -4 15 -11 15 -16z m-1607 -13 c-7 -21 -12 -19 -10 4 0 11 5
18 9 15 4 -3 5 -11 1 -19z m107 21 c0 -2 -7 -7 -16 -10 -8 -3 -12 -2 -9 4 6
10 25 14 25 6z m404 -4 c2 -4 -4 -8 -14 -8 -10 0 -16 4 -14 8 3 4 9 8 14 8 5
0 11 -4 14 -8z m701 -2 c3 -6 -1 -7 -9 -4 -18 7 -21 14 -7 14 6 0 13 -4 16
-10z m190 0 c-3 -5 -12 -10 -18 -10 -7 0 -6 4 3 10 19 12 23 12 15 0z m400 0
c-3 -5 -12 -10 -18 -10 -7 0 -6 4 3 10 19 12 23 12 15 0z m-1745 -25 c-7 -9
-15 -13 -19 -10 -3 3 1 10 9 15 21 14 24 12 10 -5z m100 0 c-7 -9 -15 -13 -19
-10 -3 3 1 10 9 15 21 14 24 12 10 -5z m1100 -4 c0 -4 -6 -8 -13 -8 -8 0 -14
6 -14 13 0 7 6 10 14 7 7 -3 13 -8 13 -12z m400 3 c0 -8 -5 -12 -10 -9 -6 4
-8 11 -5 16 9 14 15 11 15 -7z m-1200 2 c0 -3 -4 -8 -10 -11 -5 -3 -10 -1 -10
4 0 6 5 11 10 11 6 0 10 -2 10 -4z m104 -4 c3 -5 -1 -9 -9 -9 -8 0 -15 4 -15
9 0 4 4 8 9 8 6 0 12 -4 15 -8z m296 4 c0 -3 -4 -8 -10 -11 -5 -3 -10 -1 -10
4 0 6 5 11 10 11 6 0 10 -2 10 -4z m105 -6 c3 -6 -1 -7 -9 -4 -18 7 -21 14 -7
14 6 0 13 -4 16 -10z m-660 -20 c3 -5 1 -10 -4 -10 -6 0 -11 5 -11 10 0 6 2
10 4 10 3 0 8 -4 11 -10z m400 0 c3 -5 2 -10 -4 -10 -5 0 -13 5 -16 10 -3 6
-2 10 4 10 5 0 13 -4 16 -10z m105 0 c0 -5 -5 -10 -11 -10 -5 0 -7 5 -4 10 3
6 8 10 11 10 2 0 4 -4 4 -10z m195 0 c3 -5 2 -10 -4 -10 -5 0 -13 5 -16 10 -3
6 -2 10 4 10 5 0 13 -4 16 -10z m205 0 c0 -5 -5 -10 -11 -10 -5 0 -7 5 -4 10
3 6 8 10 11 10 2 0 4 -4 4 -10z"/>
</g>
</svg>
