<?xml version="1.0" standalone="no"?>
<!DOCTYPE svg PUBLIC "-//W3C//DTD SVG 20010904//EN"
 "http://www.w3.org/TR/2001/REC-SVG-20010904/DTD/svg10.dtd">
<svg version="1.0" xmlns="http://www.w3.org/2000/svg"
 width="200.000000pt" height="200.000000pt" viewBox="0 0 200.000000 200.000000"
 preserveAspectRatio="xMidYMid meet">
<metadata>
Created by potrace 1.16, written by Peter Selinger 2001-2019
</metadata>
<g transform="translate(0.000000,200.000000) scale(0.100000,-0.100000)"
fill="#000000" stroke="none">
<path d="M0 1966 c0 -36 15 -49 157 -126 l41 -23 94 55 c88 52 93 56 96 91 l3
37 -195 0 -196 0 0 -34z"/>
<path d="M404 1965 c1 -31 6 -37 38 -50 21 -8 47 -24 58 -35 11 -11 21 -19 23
-19 8 5 46 -14 51 -26 4 -12 1 -12 -19 -3 -14 6 -25 16 -25 21 0 6 -3 7 -6 4
-4 -4 -19 2 -33 12 -14 10 -41 26 -59 35 l-33 17 -100 -56 c-54 -31 -99 -61
-99 -67 0 -7 -6 -5 -12 4 -7 9 -51 39 -98 66 l-85 50 -3 -115 c-1 -63 -1 -163
0 -222 l3 -108 85 48 c47 26 91 58 97 71 9 17 13 19 13 6 0 -20 169 -119 212
-124 20 -3 27 0 22 8 -5 7 -3 8 6 3 10 -6 9 -11 -5 -21 -10 -7 -21 -11 -26 -9
-4 3 -10 -3 -12 -12 -4 -16 -5 -16 -6 -1 -1 9 -40 39 -97 72 l-96 57 -99 -57
-99 -56 0 -456 c0 -344 4 -459 13 -471 9 -12 9 -13 0 -7 -10 6 -13 -41 -13
-220 l0 -226 23 14 c12 8 55 34 95 57 l72 42 0 112 c0 72 -4 117 -11 124 -9 9
-7 11 7 7 11 -3 57 18 113 50 l93 54 2 69 c1 37 -1 91 -4 119 -4 39 -3 51 7
47 9 -3 13 -39 15 -120 l3 -116 90 -52 c50 -29 95 -50 100 -47 6 3 5 -1 -2 -8
-9 -10 -31 -1 -106 44 l-96 56 -93 -54 -93 -54 -5 -88 c-8 -140 -8 -140 95
-200 72 -41 94 -50 110 -42 19 8 19 8 3 -5 -12 -9 -18 -27 -17 -53 1 -34 2
-36 9 -14 8 24 8 24 9 3 l1 -23 369 0 370 0 4 28 4 27 2 -27 1 -27 251 0 c226
0 253 1 268 17 9 10 13 13 9 8 -18 -22 -3 -26 101 -26 96 0 110 2 114 17 4 17
5 17 6 1 1 -14 10 -18 41 -18 l40 0 0 84 c0 75 -2 85 -22 100 l-23 17 23 -11
22 -11 0 831 c0 662 -3 830 -12 824 -10 -6 -10 -4 0 7 7 8 12 41 12 86 l0 73
-369 0 -370 0 -4 -22 -4 -23 -2 23 -1 22 -229 0 c-210 0 -230 -1 -234 -17 -4
-17 -5 -17 -6 0 -1 16 -17 17 -189 17 l-189 0 1 -35z m1326 -22 c0 -7 -39 17
-46 28 -3 6 5 3 20 -6 14 -10 26 -19 26 -22z m180 22 c0 -2 -10 -9 -22 -15
-22 -11 -22 -10 -4 4 21 17 26 19 26 11z m-1065 -25 c3 -6 -1 -7 -9 -4 -18 7
-21 14 -7 14 6 0 13 -4 16 -10z m685 5 c0 -2 -13 -11 -30 -20 -38 -19 -40 -11
-2 9 31 17 32 18 32 11z m-744 -21 c-3 -21 -33 -39 -33 -20 0 8 7 12 14 9 8
-3 13 -2 12 3 -2 13 0 24 5 24 2 0 3 -7 2 -16z m544 -10 c0 -2 -9 0 -20 6 -11
6 -20 13 -20 16 0 2 9 0 20 -6 11 -6 20 -13 20 -16z m-430 -10 c0 -2 -9 0 -20
6 -11 6 -20 13 -20 16 0 2 9 0 20 -6 11 -6 20 -13 20 -16z m240 21 c0 -2 -10
-9 -22 -15 -22 -11 -22 -10 -4 4 21 17 26 19 26 11z m665 -23 c-3 -3 -11 0
-18 7 -9 10 -8 11 6 5 10 -3 15 -9 12 -12z m-579 -8 c18 -14 18 -15 -3 -4 -17
8 -29 8 -45 0 -22 -11 -22 -10 -4 4 11 9 23 16 26 16 3 0 15 -7 26 -16z m154
-10 c0 -2 -9 0 -20 6 -11 6 -20 13 -20 16 0 2 9 0 20 -6 11 -6 20 -13 20 -16z
m80 21 c0 -2 -10 -9 -22 -15 -22 -11 -22 -10 -4 4 21 17 26 19 26 11z m-743
-20 c0 -8 -4 -12 -9 -9 -5 3 -6 10 -3 15 9 13 12 11 12 -6z m233 -11 c0 -2 -9
0 -20 6 -11 6 -20 13 -20 16 0 2 9 0 20 -6 11 -6 20 -13 20 -16z m120 11 c0
-2 -10 -9 -22 -15 -22 -11 -22 -10 -4 4 21 17 26 19 26 11z m-375 -14 c3 -5 2
-12 -3 -15 -5 -3 -9 1 -9 9 0 17 3 19 12 6z m225 -17 c0 -2 -9 0 -20 6 -11 6
-20 13 -20 16 0 2 9 0 20 -6 11 -6 20 -13 20 -16z m230 21 c0 -2 -13 -11 -30
-20 -38 -19 -40 -11 -2 9 31 17 32 18 32 11z m474 -4 c4 -5 -3 -7 -14 -4 -23
6 -26 13 -6 13 8 0 17 -4 20 -9z m-957 -15 c0 -8 -6 -12 -15 -9 -11 5 -11 7 0
14 7 5 13 9 14 9 0 0 1 -6 1 -14z m333 -12 c0 -2 -9 0 -20 6 -11 6 -20 13 -20
16 0 2 9 0 20 -6 11 -6 20 -13 20 -16z m310 0 c0 -2 -9 0 -20 6 -11 6 -20 13
-20 16 0 2 9 0 20 -6 11 -6 20 -13 20 -16z m270 21 c0 -2 -10 -9 -22 -15 -22
-11 -22 -10 -4 4 21 17 26 19 26 11z m-966 -47 c-3 -13 -5 -70 -4 -128 0 -96
2 -106 23 -123 18 -14 19 -16 3 -10 -13 4 -17 3 -12 -5 5 -8 2 -10 -9 -5 -12
4 -13 8 -5 13 9 5 9 9 1 14 -15 10 -33 -3 -25 -16 4 -7 2 -8 -5 -4 -8 5 -8 12
2 27 10 14 13 47 10 121 -2 73 1 104 10 110 9 6 8 8 -3 8 -13 0 -13 1 0 10 20
13 20 13 14 -12z m382 -9 c3 -6 -5 -3 -20 6 -14 10 -26 19 -26 22 0 7 39 -17
46 -28z m84 26 c0 -2 -10 -9 -22 -15 -22 -11 -22 -10 -4 4 21 17 26 19 26 11z
m306 -98 l0 -67 -3 65 c-4 60 -6 66 -33 80 -17 9 -30 18 -30 21 0 3 15 -3 33
-13 31 -18 32 -21 33 -86z m104 79 c0 -2 -12 -11 -27 -20 l-28 -17 24 20 c23
21 31 25 31 17z m260 -22 c0 -2 -9 0 -20 6 -11 6 -20 13 -20 16 0 2 9 0 20 -6
11 -6 20 -13 20 -16z m200 21 c0 -2 -10 -9 -22 -15 -22 -11 -22 -10 -4 4 21
17 26 19 26 11z m-1753 -112 c-2 -16 -4 -5 -4 22 0 28 2 40 4 28 2 -13 2 -35
0 -50z m1250 25 c-3 -8 -6 -5 -6 6 -1 11 2 17 5 13 3 -3 4 -12 1 -19z m-450
-20 c-3 -7 -5 -2 -5 12 0 14 2 19 5 13 2 -7 2 -19 0 -25z m20 0 c-3 -7 -5 -2
-5 12 0 14 2 19 5 13 2 -7 2 -19 0 -25z m750 10 c-3 -8 -6 -5 -6 6 -1 11 2 17
5 13 3 -3 4 -12 1 -19z m110 -55 c-3 -10 -5 -4 -5 12 0 17 2 24 5 18 2 -7 2
-21 0 -30z m-1680 -35 c-3 -7 -5 -2 -5 12 0 14 2 19 5 13 2 -7 2 -19 0 -25z
m820 0 c-3 -7 -5 -2 -5 12 0 14 2 19 5 13 2 -7 2 -19 0 -25z m356 -47 c-10 -9
-12 -10 -5 -1 6 7 13 30 14 50 l1 35 4 -34 c3 -24 -1 -39 -14 -50z m-376 47
c-3 -8 -6 -5 -6 6 -1 11 2 17 5 13 3 -3 4 -12 1 -19z m893 -13 c14 -19 14 -19
-2 -6 -10 7 -18 18 -18 24 0 6 1 8 3 6 1 -2 9 -13 17 -24z m-380 -51 c0 -7
-58 25 -65 36 -3 5 10 1 29 -11 20 -12 36 -23 36 -25z m250 32 c0 -2 -7 -7
-16 -10 -8 -3 -12 -2 -9 4 6 10 25 14 25 6z m-760 -10 c0 -2 -8 -10 -17 -17
-16 -13 -17 -12 -4 4 13 16 21 21 21 13z m80 -32 c0 -2 -13 2 -30 11 -16 9
-30 18 -30 21 0 2 14 -2 30 -11 17 -9 30 -18 30 -21z m270 12 c0 -2 -7 -7 -16
-10 -8 -3 -12 -2 -9 4 6 10 25 14 25 6z m-795 -32 c-19 -14 -39 -9 -30 6 3 5
13 6 22 3 12 -5 14 -3 8 7 -6 9 -4 11 5 5 10 -6 9 -11 -5 -21z m575 -10 c0 -2
-9 0 -20 6 -11 6 -20 13 -20 16 0 2 9 0 20 -6 11 -6 20 -13 20 -16z m180 21
c0 -2 -10 -9 -22 -15 -22 -11 -22 -10 -4 4 21 17 26 19 26 11z m-590 -31 c0
-2 -9 0 -20 6 -11 6 -20 13 -20 16 0 2 9 0 20 -6 11 -6 20 -13 20 -16z m200
21 c0 -2 -10 -9 -22 -15 -22 -11 -22 -10 -4 4 21 17 26 19 26 11z m80 -2 c-8
-3 -24 -10 -35 -15 -20 -9 -20 -9 -1 6 11 9 27 16 35 15 14 0 14 -1 1 -6z
m-495 -29 c-19 -14 -39 -9 -30 6 3 5 13 6 22 3 12 -5 14 -3 8 7 -6 9 -4 11 5
5 10 -6 9 -11 -5 -21z m1120 16 c-3 -5 -14 -10 -23 -9 -14 0 -13 2 3 9 27 11
27 11 20 0z m-545 -26 c0 -2 -9 0 -20 6 -11 6 -20 13 -20 16 0 2 9 0 20 -6 11
-6 20 -13 20 -16z m-314 -18 c2 -14 -1 -14 -27 -1 -31 17 -40 28 -12 18 12 -5
14 -3 8 7 -6 10 -4 10 10 2 10 -5 20 -17 21 -26z m104 29 c0 -2 -13 -11 -30
-20 -38 -19 -40 -11 -2 9 31 17 32 18 32 11z m70 0 c0 -2 -10 -9 -22 -15 -22
-11 -22 -10 -4 4 21 17 26 19 26 11z m286 -10 c-24 -18 -33 -19 -42 -3 -4 7
-3 8 4 4 7 -4 20 -2 29 3 26 15 31 13 9 -4z m164 10 c0 -2 -13 -11 -30 -20
-38 -19 -40 -11 -2 9 31 17 32 18 32 11z m80 -31 c0 -2 -9 0 -20 6 -11 6 -20
13 -20 16 0 2 9 0 20 -6 11 -6 20 -13 20 -16z m-580 1 c0 -2 -13 -11 -30 -20
-38 -19 -40 -11 -2 9 31 17 32 18 32 11z m260 -21 c0 -2 -9 0 -20 6 -11 6 -20
13 -20 16 0 2 9 0 20 -6 11 -6 20 -13 20 -16z m650 22 c0 -2 -7 -7 -16 -10 -8
-3 -12 -2 -9 4 6 10 25 14 25 6z m-280 -32 c0 -2 -9 0 -20 6 -11 6 -20 13 -20
16 0 2 9 0 20 -6 11 -6 20 -13 20 -16z m-733 -41 c-3 -10 -5 -2 -5 17 0 19 2
27 5 18 2 -10 2 -26 0 -35z m380 -35 c-2 -18 -4 -6 -4 27 0 33 2 48 4 33 2
-15 2 -42 0 -60z m573 77 c0 -2 -10 -9 -22 -15 -22 -11 -22 -10 -4 4 21 17 26
19 26 11z m-477 -20 c-3 -9 -8 -14 -10 -11 -3 3 -2 9 2 15 9 16 15 13 8 -4z
m285 -21 c-3 -14 -5 -12 -10 9 -3 19 -2 25 4 19 6 -6 8 -18 6 -28z m372 10 c0
-2 -9 0 -20 6 -11 6 -20 13 -20 16 0 2 9 0 20 -6 11 -6 20 -13 20 -16z m-1523
-46 c-2 -13 -4 -5 -4 17 -1 22 1 32 4 23 2 -10 2 -28 0 -40z m1290 -30 c-2
-18 -4 -6 -4 27 0 33 2 48 4 33 2 -15 2 -42 0 -60z m-850 50 c-3 -8 -6 -5 -6
6 -1 11 2 17 5 13 3 -3 4 -12 1 -19z m710 -45 c-3 -10 -5 -4 -5 12 0 17 2 24
5 18 2 -7 2 -21 0 -30z m370 5 c-3 -7 -5 -2 -5 12 0 14 2 19 5 13 2 -7 2 -19
0 -25z m-1130 -20 c-3 -7 -5 -2 -5 12 0 14 2 19 5 13 2 -7 2 -19 0 -25z m-394
-99 c-4 -4 -6 20 -3 54 l5 62 3 -54 c2 -30 0 -58 -5 -62z m444 79 c-3 -7 -5
-2 -5 12 0 14 2 19 5 13 2 -7 2 -19 0 -25z m330 -10 c-3 -7 -5 -2 -5 12 0 14
2 19 5 13 2 -7 2 -19 0 -25z m90 0 c-3 -8 -6 -5 -6 6 -1 11 2 17 5 13 3 -3 4
-12 1 -19z m-474 -59 c-5 -5 -7 7 -4 29 5 34 6 35 9 8 2 -16 0 -32 -5 -37z
m764 29 c-3 -7 -5 -2 -5 12 0 14 2 19 5 13 2 -7 2 -19 0 -25z m147 16 c3 -8 2
-12 -4 -9 -6 3 -10 10 -10 16 0 14 7 11 14 -7z m-538 -42 c-15 -15 -15 -15 -4
10 7 15 15 23 17 17 2 -6 -4 -18 -13 -27z m754 33 c0 -2 -10 -9 -22 -15 -22
-11 -22 -10 -4 4 21 17 26 19 26 11z m-160 -31 c0 -2 -9 0 -20 6 -11 6 -20 13
-20 16 0 2 9 0 20 -6 11 -6 20 -13 20 -16z m-440 -10 c0 -2 -9 0 -20 6 -11 6
-20 13 -20 16 0 2 9 0 20 -6 11 -6 20 -13 20 -16z m220 21 c0 -2 -13 -11 -30
-20 -38 -19 -40 -11 -2 9 31 17 32 18 32 11z m-1100 -20 c11 -13 10 -14 -4 -9
-9 3 -16 10 -16 15 0 13 6 11 20 -6z m450 -11 c0 -2 -9 0 -20 6 -11 6 -20 13
-20 16 0 2 9 0 20 -6 11 -6 20 -13 20 -16z m980 21 c0 -2 -10 -9 -22 -15 -22
-11 -22 -10 -4 4 21 17 26 19 26 11z m-51 -31 c14 -12 -19 -1 -35 12 -18 14
-18 14 6 3 14 -6 27 -13 29 -15z m-1763 -18 c2 -12 -2 -14 -14 -7 -8 5 -17 16
-18 25 -2 12 2 14 14 7 8 -5 17 -16 18 -25z m1334 -2 c0 -2 -9 0 -20 6 -11 6
-20 13 -20 16 0 2 9 0 20 -6 11 -6 20 -13 20 -16z m-870 -10 c0 -2 -9 0 -20 6
-11 6 -20 13 -20 16 0 2 9 0 20 -6 11 -6 20 -13 20 -16z m200 11 c0 -2 -13
-11 -30 -20 -38 -19 -40 -11 -2 9 31 17 32 18 32 11z m360 0 c0 -2 -10 -9 -22
-15 -22 -11 -22 -10 -4 4 21 17 26 19 26 11z m-954 -39 c2 -14 -1 -14 -27 -1
-31 17 -40 28 -12 18 12 -5 14 -3 8 7 -6 10 -4 10 10 2 10 -5 20 -17 21 -26z
m344 8 c0 -2 -9 0 -20 6 -11 6 -20 13 -20 16 0 2 9 0 20 -6 11 -6 20 -13 20
-16z m-100 11 c0 -2 -13 -11 -30 -20 -38 -19 -40 -11 -2 9 31 17 32 18 32 11z
m652 -9 c7 4 8 3 4 -4 -10 -16 -18 -15 -42 4 -18 14 -18 15 4 4 12 -6 28 -8
34 -4z m-432 -22 c0 -2 -9 0 -20 6 -11 6 -20 13 -20 16 0 2 9 0 20 -6 11 -6
20 -13 20 -16z m280 0 c0 -2 -9 0 -20 6 -11 6 -20 13 -20 16 0 2 9 0 20 -6 11
-6 20 -13 20 -16z m-670 -19 c0 -2 -7 -1 -17 2 -12 5 -14 3 -8 -7 5 -9 4 -11
-4 -6 -6 4 -8 12 -5 18 5 7 2 9 -8 6 -8 -4 -15 0 -15 7 0 11 6 11 29 -1 15 -8
28 -17 28 -19z m70 30 c0 -2 -10 -9 -22 -15 -22 -11 -22 -10 -4 4 21 17 26 19
26 11z m250 -21 c0 -2 -9 0 -20 6 -11 6 -20 13 -20 16 0 2 9 0 20 -6 11 -6 20
-13 20 -16z m116 11 c-11 -8 -25 -15 -30 -15 -6 1 0 7 14 15 32 19 40 18 16 0z
m134 10 c0 -2 -10 -9 -22 -15 -22 -11 -22 -10 -4 4 21 17 26 19 26 11z m454
-3 c2 -4 -4 -8 -14 -8 -10 0 -16 4 -14 8 3 4 9 8 14 8 5 0 11 -4 14 -8z m-961
-41 c-12 -10 -23 -33 -26 -52 l-4 -34 -1 36 c-2 28 3 40 21 52 30 22 37 20 10
-2z m457 15 c0 -2 -16 -13 -35 -25 -19 -11 -35 -18 -35 -16 0 5 61 45 68 45 1
0 2 -2 2 -4z m220 -22 c0 -2 -9 0 -20 6 -11 6 -20 13 -20 16 0 2 9 0 20 -6 11
-6 20 -13 20 -16z m200 11 c0 -2 -10 -9 -22 -15 -22 -11 -22 -10 -4 4 21 17
26 19 26 11z m180 -21 c0 -2 -9 0 -20 6 -11 6 -20 13 -20 16 0 2 9 0 20 -6 11
-6 20 -13 20 -16z m270 22 c0 -2 -7 -7 -16 -10 -8 -3 -12 -2 -9 4 6 10 25 14
25 6z m90 -22 c0 -2 -9 0 -20 6 -11 6 -20 13 -20 16 0 2 9 0 20 -6 11 -6 20
-13 20 -16z m-1483 -21 c-3 -10 -5 -4 -5 12 0 17 2 24 5 18 2 -7 2 -21 0 -30z
m1353 22 c0 -2 -10 -9 -22 -15 -22 -11 -22 -10 -4 4 21 17 26 19 26 11z m-470
-57 c-4 -49 -5 -50 -8 -14 -3 34 2 66 10 66 2 0 1 -24 -2 -52z m268 11 c-3
-20 -5 -19 -9 9 -3 20 -2 29 4 23 5 -5 7 -19 5 -32z m380 -42 l-2 -62 -3 59
c-3 41 -10 64 -21 73 -15 13 -14 13 6 3 20 -10 22 -17 20 -73z m-1071 -4 c-2
-16 -4 -5 -4 22 0 28 2 40 4 28 2 -13 2 -35 0 -50z m310 35 c-3 -8 -6 -5 -6 6
-1 11 2 17 5 13 3 -3 4 -12 1 -19z m960 -40 c-2 -13 -4 -3 -4 22 0 25 2 35 4
23 2 -13 2 -33 0 -45z m-1730 0 c-3 -8 -6 -5 -6 6 -1 11 2 17 5 13 3 -3 4 -12
1 -19z m40 -30 c-2 -13 -4 -5 -4 17 -1 22 1 32 4 23 2 -10 2 -28 0 -40z m1106
-49 c-4 -4 -6 15 -3 44 l5 52 3 -44 c2 -24 0 -47 -5 -52z m154 49 c-3 -8 -6
-5 -6 6 -1 11 2 17 5 13 3 -3 4 -12 1 -19z m-534 -59 c-5 -5 -6 11 -3 34 4 41
5 41 8 8 2 -18 0 -37 -5 -42z m-766 39 c-3 -8 -6 -5 -6 6 -1 11 2 17 5 13 3
-3 4 -12 1 -19z m1730 0 c-3 -8 -6 -5 -6 6 -1 11 2 17 5 13 3 -3 4 -12 1 -19z
m-1244 -52 l22 -18 -25 14 c-14 9 -26 26 -27 39 -1 19 -1 20 4 4 2 -11 15 -28
26 -39z m400 34 c3 -11 1 -18 -4 -14 -5 3 -9 12 -9 20 0 20 7 17 13 -6z m428
3 c13 -16 12 -17 -3 -4 -17 13 -22 21 -14 21 2 0 10 -8 17 -17z m-1269 -18 c3
-13 1 -22 -3 -19 -9 5 -13 44 -5 44 2 0 6 -11 8 -25z m1488 20 c0 -2 -10 -9
-22 -15 -22 -11 -22 -10 -4 4 21 17 26 19 26 11z m250 -21 c0 -2 -9 0 -20 6
-11 6 -20 13 -20 16 0 2 9 0 20 -6 11 -6 20 -13 20 -16z m-1777 -14 c3 -11 2
-22 -2 -24 -4 -3 -8 6 -9 20 -2 29 4 31 11 4z m937 -16 c0 -2 -9 0 -20 6 -11
6 -20 13 -20 16 0 2 9 0 20 -6 11 -6 20 -13 20 -16z m180 21 c0 -2 -10 -9 -22
-15 -22 -11 -22 -10 -4 4 21 17 26 19 26 11z m-740 -9 c0 -2 -7 -7 -16 -10 -8
-3 -12 -2 -9 4 6 10 25 14 25 6z m360 -1 c0 -2 -10 -9 -22 -15 -22 -11 -22
-10 -4 4 21 17 26 19 26 11z m720 0 c0 -2 -10 -9 -22 -15 -22 -11 -22 -10 -4
4 21 17 26 19 26 11z m-1483 -20 c0 -8 -4 -12 -9 -9 -5 3 -6 10 -3 15 9 13 12
11 12 -6z m123 -11 c0 -2 -9 0 -20 6 -11 6 -20 13 -20 16 0 2 9 0 20 -6 11 -6
20 -13 20 -16z m1305 8 c-3 -3 -11 0 -18 7 -9 10 -8 11 6 5 10 -3 15 -9 12
-12z m-1345 -18 c0 -2 -9 0 -20 6 -11 6 -20 13 -20 16 0 2 9 0 20 -6 11 -6 20
-13 20 -16z m363 19 c3 -5 -6 -9 -20 -10 -19 -1 -22 1 -12 8 17 11 26 11 32 2z
m-478 -29 c-19 -14 -39 -9 -30 6 3 5 13 6 22 3 12 -5 14 -3 8 7 -6 9 -4 11 5
5 10 -6 9 -11 -5 -21z m375 21 c0 -2 -10 -9 -22 -15 -22 -11 -22 -10 -4 4 21
17 26 19 26 11z m250 -21 c0 -2 -9 0 -20 6 -11 6 -20 13 -20 16 0 2 9 0 20 -6
11 -6 20 -13 20 -16z m449 0 c14 -12 -19 -1 -35 12 -18 14 -18 14 6 3 14 -6
27 -13 29 -15z m-909 -20 c0 -2 -9 0 -20 6 -11 6 -20 13 -20 16 0 2 9 0 20 -6
11 -6 20 -13 20 -16z m390 0 c0 -2 -9 0 -20 6 -11 6 -20 13 -20 16 0 2 9 0 20
-6 11 -6 20 -13 20 -16z m160 22 c0 -2 -7 -7 -16 -10 -8 -3 -12 -2 -9 4 6 10
25 14 25 6z m130 -1 c0 -2 -10 -9 -22 -15 -22 -11 -22 -10 -4 4 21 17 26 19
26 11z m80 -21 c0 -2 -9 0 -20 6 -11 6 -20 13 -20 16 0 2 9 0 20 -6 11 -6 20
-13 20 -16z m-600 11 c0 -2 -10 -9 -22 -15 -22 -11 -22 -10 -4 4 21 17 26 19
26 11z m-395 -31 c-19 -14 -39 -9 -30 6 3 5 13 6 22 3 12 -5 14 -3 8 7 -6 9
-4 11 5 5 10 -6 9 -11 -5 -21z m1358 19 c3 -5 -8 -8 -23 -8 -15 0 -26 3 -23 8
2 4 13 7 23 7 10 0 21 -3 23 -7z m-293 -39 c0 -2 -13 2 -30 11 -16 9 -30 18
-30 21 0 2 14 -2 30 -11 17 -9 30 -18 30 -21z m-760 0 c0 -2 -9 0 -20 6 -11 6
-20 13 -20 16 0 2 9 0 20 -6 11 -6 20 -13 20 -16z m390 0 c0 -2 -9 0 -20 6
-11 6 -20 13 -20 16 0 2 9 0 20 -6 11 -6 20 -13 20 -16z m600 21 c0 -2 -13
-11 -30 -20 -38 -19 -40 -11 -2 9 31 17 32 18 32 11z m140 -31 c0 -2 -9 0 -20
6 -11 6 -20 13 -20 16 0 2 9 0 20 -6 11 -6 20 -13 20 -16z m280 11 c0 -2 -10
-9 -22 -15 -22 -11 -22 -10 -4 4 21 17 26 19 26 11z m-989 -22 c13 -16 12 -17
-3 -4 -10 7 -18 15 -18 17 0 8 8 3 21 -13z m69 12 c0 -2 -10 -9 -22 -15 -22
-11 -22 -10 -4 4 21 17 26 19 26 11z m318 -122 c-3 -94 -5 -107 -23 -117 -18
-10 -18 -10 -3 3 26 20 26 207 1 228 -16 13 -16 13 5 3 22 -11 23 -15 20 -117z
m702 101 c0 -2 -9 0 -20 6 -11 6 -20 13 -20 16 0 2 9 0 20 -6 11 -6 20 -13 20
-16z m-607 -2 c-18 -14 -23 -29 -26 -87 l-3 -70 -2 72 c-2 64 0 74 20 87 30
21 38 20 11 -2z m283 -13 c3 -6 -5 -3 -20 6 -14 10 -26 19 -26 22 0 7 39 -17
46 -28z m121 -41 c-3 -7 -5 -2 -5 12 0 14 2 19 5 13 2 -7 2 -19 0 -25z m-120
0 c-3 -8 -6 -5 -6 6 -1 11 2 17 5 13 3 -3 4 -12 1 -19z m370 -10 c-3 -8 -6 -5
-6 6 -1 11 2 17 5 13 3 -3 4 -12 1 -19z m-370 -70 c-2 -13 -4 -3 -4 22 0 25 2
35 4 23 2 -13 2 -33 0 -45z m370 0 c-3 -7 -5 -2 -5 12 0 14 2 19 5 13 2 -7 2
-19 0 -25z m-1100 0 c-3 -8 -6 -5 -6 6 -1 11 2 17 5 13 3 -3 4 -12 1 -19z
m876 -52 l22 -18 -25 14 c-14 9 -26 26 -27 39 -1 19 -1 20 4 4 2 -11 15 -28
26 -39z m-906 22 c-3 -8 -6 -5 -6 6 -1 11 2 17 5 13 3 -3 4 -12 1 -19z m450
-20 c-3 -8 -6 -5 -6 6 -1 11 2 17 5 13 3 -3 4 -12 1 -19z m313 7 c0 -8 -10
-19 -22 -25 -21 -10 -21 -10 -5 3 9 8 17 19 17 26 0 6 2 11 5 11 3 0 5 -7 5
-15z m365 5 c-3 -5 -16 -15 -28 -21 -19 -9 -19 -8 3 10 28 23 34 26 25 11z
m-135 -66 c0 -2 -9 0 -20 6 -11 6 -20 13 -20 16 0 2 9 0 20 -6 11 -6 20 -13
20 -16z m-420 -20 c0 -2 -13 2 -30 11 -16 9 -30 18 -30 21 0 2 14 -2 30 -11
17 -9 30 -18 30 -21z m120 31 c0 -2 -10 -9 -22 -15 -22 -11 -22 -10 -4 4 21
17 26 19 26 11z m-1355 -68 c6 -6 -12 2 -40 18 -27 15 -54 32 -60 38 -5 6 13
-2 40 -18 28 -15 55 -32 60 -38z m615 58 c0 -2 -10 -9 -22 -15 -22 -11 -22
-10 -4 4 21 17 26 19 26 11z m170 -21 c0 -2 -9 0 -20 6 -11 6 -20 13 -20 16 0
2 9 0 20 -6 11 -6 20 -13 20 -16z m-140 11 c0 -2 -10 -9 -22 -15 -22 -11 -22
-10 -4 4 21 17 26 19 26 11z m80 -21 c0 -2 -9 0 -20 6 -11 6 -20 13 -20 16 0
2 9 0 20 -6 11 -6 20 -13 20 -16z m366 0 c18 -14 18 -15 -4 -4 -12 6 -28 8
-34 4 -7 -4 -8 -3 -4 4 10 16 18 15 42 -4z m200 1 c-24 -18 -33 -19 -42 -3 -4
7 -3 8 4 4 7 -4 20 -2 29 3 26 15 31 13 9 -4z m-356 0 c0 -2 -13 -11 -30 -20
-38 -19 -40 -11 -2 9 31 17 32 18 32 11z m-80 -31 c0 -2 -9 0 -20 6 -11 6 -20
13 -20 16 0 2 9 0 20 -6 11 -6 20 -13 20 -16z m-280 11 c0 -2 -10 -9 -22 -15
-22 -11 -22 -10 -4 4 21 17 26 19 26 11z m580 -21 c0 -2 -9 0 -20 6 -11 6 -20
13 -20 16 0 2 9 0 20 -6 11 -6 20 -13 20 -16z m334 17 c4 -5 -3 -7 -14 -4 -23
6 -26 13 -6 13 8 0 17 -4 20 -9z m-494 -6 c0 -2 -10 -9 -22 -15 -22 -11 -22
-10 -4 4 21 17 26 19 26 11z m415 -21 c-26 -20 -55 -36 -55 -30 0 5 63 46 70
46 3 -1 -4 -8 -15 -16z m-558 -40 c2 -13 1 -14 -3 -4 -4 8 -16 23 -28 34 l-21
18 25 -14 c14 -9 26 -24 27 -34z m-359 16 c-7 -10 -14 -17 -17 -15 -4 4 18 35
25 35 2 0 -1 -9 -8 -20z m434 2 c-22 -17 -23 -24 -20 -114 2 -53 0 -94 -4 -91
-5 2 -8 46 -8 98 0 86 2 95 22 109 31 22 38 20 10 -2z m304 -48 c2 -38 1 -38
-3 -4 -2 19 -14 43 -26 54 l-22 18 25 -14 c19 -12 25 -24 26 -54z m-769 -66
c-2 -24 -4 -7 -4 37 0 44 2 63 4 43 2 -21 2 -57 0 -80z m1152 64 c-2 -26 -2
-26 -6 -2 -3 13 -12 30 -21 38 -15 11 -14 12 6 2 15 -7 22 -19 21 -38z m-1132
-29 c-3 -10 -5 -2 -5 17 0 19 2 27 5 18 2 -10 2 -26 0 -35z m370 5 c-3 -7 -5
-2 -5 12 0 14 2 19 5 13 2 -7 2 -19 0 -25z m0 -60 c-3 -8 -6 -5 -6 6 -1 11 2
17 5 13 3 -3 4 -12 1 -19z m763 -18 c0 -35 -4 -41 -32 -55 -29 -14 -31 -14
-14 0 11 8 23 15 28 15 4 0 8 18 8 40 0 22 2 40 5 40 3 0 5 -18 5 -40z m137 8
c-3 -7 -5 -2 -5 12 0 14 2 19 5 13 2 -7 2 -19 0 -25z m-1270 -25 c-3 -10 -5
-2 -5 17 0 19 2 27 5 18 2 -10 2 -26 0 -35z m749 -28 c-3 -8 -15 -19 -28 -25
l-23 -11 23 17 c15 11 22 28 23 53 2 31 3 32 6 8 3 -16 2 -35 -1 -42z m-383
-16 c-5 -5 -7 7 -4 29 5 34 6 35 9 8 2 -16 0 -32 -5 -37z m-390 -10 c-5 -5 -7
7 -4 29 5 34 6 35 9 8 2 -16 0 -32 -5 -37z m1337 25 c0 -2 -9 0 -20 6 -11 6
-20 13 -20 16 0 2 9 0 20 -6 11 -6 20 -13 20 -16z m-1280 -33 c12 -12 10 -11
-9 0 -14 9 -27 22 -29 30 -3 11 -2 11 9 -1 8 -8 21 -21 29 -29z m880 3 c0 -2
-9 0 -20 6 -11 6 -20 13 -20 16 0 2 9 0 20 -6 11 -6 20 -13 20 -16z m150 1 c0
-2 -10 -9 -22 -15 -22 -11 -22 -10 -4 4 21 17 26 19 26 11z m-1110 -10 c0 -2
-10 -9 -22 -15 -22 -11 -22 -10 -4 4 21 17 26 19 26 11z m580 -31 c0 -2 -13 2
-30 11 -16 9 -30 18 -30 21 0 2 14 -2 30 -11 17 -9 30 -18 30 -21z m-543 20
c-3 -3 -12 -4 -19 -1 -8 3 -5 6 6 6 11 1 17 -2 13 -5z m38 -22 c-3 -3 -11 0
-18 7 -9 10 -8 11 6 5 10 -3 15 -9 12 -12z m265 13 c0 -2 -10 -9 -22 -15 -22
-11 -22 -10 -4 4 21 17 26 19 26 11z m690 -5 c8 -5 11 -10 5 -10 -5 0 -17 5
-25 10 -8 5 -10 10 -5 10 6 0 17 -5 25 -10z m-1086 -12 c-5 -8 -2 -9 9 -5 24
9 21 0 -4 -14 -15 -8 -19 -8 -15 0 4 6 1 11 -6 11 -9 0 -9 3 2 10 20 13 23 12
14 -2z m546 -24 c0 -2 -9 0 -20 6 -11 6 -20 13 -20 16 0 2 9 0 20 -6 11 -6 20
-13 20 -16z m-280 -10 c0 -2 -9 0 -20 6 -11 6 -20 13 -20 16 0 2 9 0 20 -6 11
-6 20 -13 20 -16z m80 21 c0 -2 -10 -9 -22 -15 -22 -11 -22 -10 -4 4 21 17 26
19 26 11z m100 0 c0 -2 -10 -9 -22 -15 -22 -11 -22 -10 -4 4 21 17 26 19 26
11z m245 -13 c-3 -3 -11 0 -18 7 -9 10 -8 11 6 5 10 -3 15 -9 12 -12z m-455
-28 c0 -2 -13 2 -30 11 -16 9 -30 18 -30 21 0 2 14 -2 30 -11 17 -9 30 -18 30
-21z m649 32 c-2 -2 -15 -9 -29 -15 -24 -11 -24 -11 -6 3 16 13 49 24 35 12z
m51 -22 c0 -2 -9 0 -20 6 -11 6 -20 13 -20 16 0 2 9 0 20 -6 11 -6 20 -13 20
-16z m-980 1 c0 -2 -10 -9 -22 -15 -22 -11 -22 -10 -4 4 21 17 26 19 26 11z
m660 -21 c0 -2 -9 0 -20 6 -11 6 -20 13 -20 16 0 2 9 0 20 -6 11 -6 20 -13 20
-16z m370 -10 c0 -2 -9 0 -20 6 -11 6 -20 13 -20 16 0 2 9 0 20 -6 11 -6 20
-13 20 -16z m300 22 c0 -2 -7 -7 -16 -10 -8 -3 -12 -2 -9 4 6 10 25 14 25 6z
m50 -22 c0 -2 -9 0 -20 6 -11 6 -20 13 -20 16 0 2 9 0 20 -6 11 -6 20 -13 20
-16z m-550 -4 c-14 -11 -29 -20 -35 -20 -5 0 4 9 20 20 38 25 48 25 15 0z
m-463 -37 c-3 -10 -5 -5 -5 12 0 17 2 24 5 18 2 -7 2 -21 0 -30z m1063 11 c0
-2 -9 0 -20 6 -11 6 -20 13 -20 16 0 2 9 0 20 -6 11 -6 20 -13 20 -16z"/>
<path d="M98 124 c-94 -54 -98 -58 -98 -90 l0 -34 196 0 195 0 -3 36 c-3 35
-8 40 -96 90 -51 30 -94 54 -95 54 -1 0 -46 -25 -99 -56z"/>
</g>
</svg>
