<?xml version="1.0" standalone="no"?>
<!DOCTYPE svg PUBLIC "-//W3C//DTD SVG 20010904//EN"
 "http://www.w3.org/TR/2001/REC-SVG-20010904/DTD/svg10.dtd">
<svg version="1.0" xmlns="http://www.w3.org/2000/svg"
 width="200.000000pt" height="200.000000pt" viewBox="0 0 200.000000 200.000000"
 preserveAspectRatio="xMidYMid meet">
<metadata>
Created by potrace 1.16, written by Peter Selinger 2001-2019
</metadata>
<g transform="translate(0.000000,200.000000) scale(0.100000,-0.100000)"
fill="#000000" stroke="none">
<path d="M0 1967 c0 -18 6 -39 13 -46 10 -11 10 -13 0 -7 -10 6 -13 -41 -13
-219 0 -178 3 -225 13 -219 10 6 10 4 0 -7 -9 -9 -13 -49 -13 -124 l0 -111 75
-43 c41 -23 75 -45 75 -47 0 -6 -109 54 -125 68 -5 4 -13 8 -17 8 -4 0 -8 -99
-8 -220 0 -121 2 -220 4 -220 3 0 21 9 40 21 20 12 36 19 36 16 0 -3 -18 -16
-40 -28 l-40 -23 0 -112 0 -113 45 -27 c25 -14 45 -28 45 -31 0 -3 -20 7 -45
21 l-45 27 0 -226 0 -226 45 27 c25 14 45 24 45 21 0 -3 -20 -17 -45 -31 -40
-24 -45 -31 -45 -61 l0 -35 195 0 195 0 0 38 c0 36 -2 38 -96 91 -87 49 -97
53 -122 41 l-27 -12 25 24 c18 17 28 20 35 12 23 -25 195 -115 207 -108 10 5
11 4 1 -7 -7 -7 -13 -28 -13 -46 l0 -33 800 0 800 0 0 33 c0 18 -6 39 -12 46
-10 11 -10 13 0 7 9 -6 12 41 12 219 l0 226 -45 -27 c-25 -14 -45 -24 -45 -21
0 3 20 17 45 31 l45 27 0 113 0 114 -99 56 -100 57 -99 -60 -100 -59 -101 60
c-56 32 -107 56 -114 52 -9 -5 -9 -4 1 7 8 9 12 49 12 121 l0 109 -35 20 c-19
12 -35 23 -35 26 0 3 16 -4 35 -16 l35 -20 101 58 101 58 100 -59 99 -59 100
57 99 56 0 114 0 113 -45 27 c-25 14 -45 28 -45 31 0 3 20 -7 45 -21 l45 -27
0 226 c0 178 -3 225 -12 219 -10 -6 -10 -4 0 7 6 7 12 28 12 46 l0 33 -800 0
-800 0 0 -33 c0 -18 6 -39 13 -46 9 -11 9 -12 0 -7 -7 4 -27 0 -45 -9 -29 -14
-31 -14 -14 0 11 8 23 15 28 15 4 0 8 18 8 40 l0 40 -195 0 -195 0 0 -33z
m1607 -9 c-3 -8 -6 -5 -6 6 -1 11 2 17 5 13 3 -3 4 -12 1 -19z m-783 -41 l21
-18 -23 11 c-20 10 -35 4 -115 -41 -51 -28 -97 -58 -103 -65 -8 -10 -13 -9
-22 6 -10 16 -9 18 3 14 8 -3 58 18 110 47 69 39 95 59 96 74 0 14 2 16 6 5 3
-8 15 -23 27 -33z m402 -3 c18 -14 18 -15 -3 -4 -17 8 -29 8 -45 0 -22 -11
-22 -10 -4 4 11 9 23 16 26 16 3 0 15 -7 26 -16z m404 1 c17 -9 30 -18 30 -21
0 -2 -14 2 -30 11 -23 12 -35 13 -53 5 -21 -11 -21 -10 -3 4 24 19 21 19 56 1z
m-1560 -31 c0 -2 -9 0 -20 6 -11 6 -20 13 -20 16 0 2 9 0 20 -6 11 -6 20 -13
20 -16z m420 -10 c0 -2 -13 2 -30 11 -16 9 -30 18 -30 21 0 2 14 -2 30 -11 17
-9 30 -18 30 -21z m1480 31 c0 -2 -13 -11 -30 -20 -38 -19 -40 -11 -2 9 31 17
32 18 32 11z m-1015 -68 c6 -6 -12 2 -40 18 -27 15 -54 32 -60 38 -5 6 13 -2
40 -18 28 -15 55 -32 60 -38z m195 58 c0 -2 -13 -11 -30 -20 -38 -19 -40 -11
-2 9 31 17 32 18 32 11z m160 -31 c0 -2 -13 2 -30 11 -16 9 -30 18 -30 21 0 2
14 -2 30 -11 17 -9 30 -18 30 -21z m235 27 c-16 -14 -105 -63 -105 -58 0 5
101 66 110 67 2 0 0 -4 -5 -9z m-1215 -6 c0 -2 -13 -11 -30 -20 -38 -19 -40
-11 -2 9 31 17 32 18 32 11z m1445 -58 c6 -6 -12 2 -40 18 -27 15 -54 32 -60
38 -5 6 13 -2 40 -18 28 -15 55 -32 60 -38z m-1635 17 c0 -2 -9 0 -20 6 -11 6
-20 13 -20 16 0 2 9 0 20 -6 11 -6 20 -13 20 -16z m420 -10 c0 -2 -13 2 -30
11 -16 9 -30 18 -30 21 0 2 14 -2 30 -11 17 -9 30 -18 30 -21z m1340 32 c0 -2
-20 -16 -45 -30 l-45 -27 0 -112 c0 -77 4 -117 13 -126 10 -10 9 -11 -5 -6 -9
4 -30 -1 -47 -10 -17 -8 -31 -13 -31 -11 0 3 14 13 30 21 l31 16 -3 117 -3
116 50 28 c55 30 55 30 55 24z m-825 -14 c-6 -5 -26 -19 -46 -30 -31 -19 -38
-20 -48 -8 -10 12 -9 14 7 9 10 -2 34 5 53 16 35 22 50 27 34 13z m305 -28 c0
-2 -13 2 -30 11 -16 9 -30 18 -30 21 0 2 14 -2 30 -11 17 -9 30 -18 30 -21z
m-1120 21 c0 -2 -13 -11 -30 -20 l-30 -16 -2 -102 -2 -102 -3 100 c-3 89 -6
102 -26 118 l-22 18 26 -12 c21 -9 32 -8 55 5 33 17 34 18 34 11z m1160 -30
c-7 -8 -17 -12 -23 -8 -6 4 -3 9 9 14 27 11 28 11 14 -6z m-823 -67 c-3 -7 -5
-2 -5 12 0 14 2 19 5 13 2 -7 2 -19 0 -25z m-125 -237 c40 23 76 44 81 46 4 2
7 2 7 -1 0 -2 -36 -25 -79 -50 -44 -25 -81 -51 -84 -58 -4 -9 -6 -9 -6 2 -1 8
-45 39 -98 69 l-97 54 -50 -28 c-60 -33 -57 -26 5 13 l43 28 102 -59 102 -59
74 43z m258 -7 c0 -3 -29 11 -65 31 -38 22 -72 34 -82 31 -13 -5 -14 -4 -4 8
10 12 22 8 82 -26 38 -22 69 -42 69 -44z m750 29 c3 -3 -16 5 -41 18 -26 13
-45 27 -43 31 4 6 67 -31 84 -49z m-440 27 c22 -11 40 -23 40 -25 0 -3 -19 4
-42 16 l-41 21 -41 -23 c-44 -24 -43 -17 1 12 36 23 37 23 83 -1z m340 5 c0
-2 -13 -11 -30 -20 -38 -19 -40 -11 -2 9 31 17 32 18 32 11z m520 -41 c0 -2
-13 2 -30 11 -16 9 -30 18 -30 21 0 2 14 -2 30 -11 17 -9 30 -18 30 -21z
m-170 11 c0 -2 -13 -11 -30 -20 -38 -19 -40 -11 -2 9 31 17 32 18 32 11z
m-820 -10 c0 -2 -13 -11 -30 -20 -38 -19 -40 -11 -2 9 31 17 32 18 32 11z
m320 -40 c16 8 30 13 30 11 0 -3 -14 -13 -30 -21 -30 -15 -33 -15 -85 15 -30
17 -55 34 -55 36 0 3 25 -9 55 -26 52 -30 55 -30 85 -15z m80 40 c0 -2 -10 -9
-22 -15 -22 -11 -22 -10 -4 4 21 17 26 19 26 11z m240 -31 c0 -2 -13 2 -30 11
-16 9 -30 18 -30 21 0 2 14 -2 30 -11 17 -9 30 -18 30 -21z m-1460 21 c0 -2
-13 -11 -30 -20 -38 -19 -40 -11 -2 9 31 17 32 18 32 11z m730 -35 c11 6 20 8
20 6 0 -3 -9 -10 -20 -16 -15 -8 -27 -7 -50 5 -16 9 -30 18 -30 21 0 2 14 -2
30 -11 23 -12 35 -13 50 -5z m840 15 c0 -2 -14 -11 -30 -20 -23 -12 -35 -13
-50 -5 -11 6 -20 13 -20 16 0 2 9 0 20 -6 15 -8 27 -7 47 4 32 17 33 18 33 11z
m-1242 -272 c16 -13 16 -14 -2 -5 -14 7 -28 4 -53 -10 -18 -11 -33 -17 -33
-14 0 3 14 12 30 21 l30 16 2 102 2 102 3 -99 c3 -79 7 -102 21 -113z m379
155 c-3 -8 -6 -5 -6 6 -1 11 2 17 5 13 3 -3 4 -12 1 -19z m810 -60 c-3 -8 -6
-5 -6 6 -1 11 2 17 5 13 3 -3 4 -12 1 -19z m-810 -20 c-3 -8 -6 -5 -6 6 -1 11
2 17 5 13 3 -3 4 -12 1 -19z m98 -121 c6 -5 -14 3 -43 19 l-53 29 -62 -34
c-73 -40 -70 -32 5 14 l53 33 45 -26 c25 -13 50 -29 55 -35z m335 43 l25 -20
-31 12 c-29 11 -38 8 -129 -46 -72 -42 -101 -54 -109 -46 -8 8 -7 10 4 6 8 -2
58 22 110 54 52 32 97 59 100 59 3 0 16 -8 30 -19z m-703 -59 l72 -41 35 21
c20 12 36 19 36 16 0 -3 -16 -14 -36 -26 l-35 -21 -80 46 c-43 25 -79 48 -79
50 0 3 3 3 8 1 4 -2 39 -23 79 -46z m793 3 c0 -2 -13 2 -30 11 -16 9 -30 18
-30 21 0 2 14 -2 30 -11 17 -9 30 -18 30 -21z m-1005 17 c-16 -14 -105 -63
-105 -58 0 5 101 66 110 67 2 0 0 -4 -5 -9z m655 -47 c0 -2 -13 2 -30 11 -16
9 -30 18 -30 21 0 2 14 -2 30 -11 17 -9 30 -18 30 -21z m-770 -24 c0 -6 -9 -2
-20 7 -11 10 -20 19 -20 21 0 1 9 -2 20 -8 11 -6 20 -15 20 -20z m0 -125 c0
-98 -1 -105 -22 -115 -21 -10 -21 -10 -5 3 14 12 17 31 17 116 0 55 2 101 5
101 3 0 5 -47 5 -105z m397 3 c-3 -8 -6 -5 -6 6 -1 11 2 17 5 13 3 -3 4 -12 1
-19z m37 -119 c20 -12 36 -23 36 -26 0 -3 -16 4 -36 16 l-35 21 -72 -41 c-90
-52 -94 -54 -84 -44 6 7 146 93 154 95 1 0 18 -9 37 -21z m382 9 c4 -7 3 -8
-4 -4 -7 4 -33 -5 -59 -20 -55 -32 -52 -22 4 12 44 27 49 28 59 12z m-746 -34
c0 -2 -13 2 -30 11 -16 9 -30 18 -30 21 0 2 14 -2 30 -11 17 -9 30 -18 30 -21z
m865 -37 c6 -6 -12 2 -40 18 -27 15 -54 32 -60 38 -5 6 13 -2 40 -18 28 -15
55 -32 60 -38z m230 54 c-16 -14 -105 -63 -105 -58 0 5 101 66 110 67 2 0 0
-4 -5 -9z m-1215 -6 c0 -2 -13 -11 -30 -20 -38 -19 -40 -11 -2 9 31 17 32 18
32 11z m170 -41 c0 -2 -9 0 -20 6 -11 6 -20 13 -20 16 0 2 9 0 20 -6 11 -6 20
-13 20 -16z m420 -10 c0 -2 -13 2 -30 11 -16 9 -30 18 -30 21 0 2 14 -2 30
-11 17 -9 30 -18 30 -21z m160 21 c0 -2 -13 -11 -30 -20 -38 -19 -40 -11 -2 9
31 17 32 18 32 11z m-486 -41 c20 5 20 4 3 -9 -16 -12 -23 -11 -53 7 -43 25
-45 34 -3 12 17 -8 41 -13 53 -10z m400 0 c20 5 20 4 2 -9 -16 -12 -22 -12
-42 2 -30 19 -32 28 -3 12 12 -6 31 -8 43 -5z m414 5 l27 12 -25 -21 c-14 -11
-27 -20 -30 -20 -3 0 -16 9 -30 20 l-25 21 28 -12 c21 -10 33 -10 55 0z m-831
-86 c-3 -10 -5 -2 -5 17 0 19 2 27 5 18 2 -10 2 -26 0 -35z m1210 15 c-3 -8
-6 -5 -6 6 -1 11 2 17 5 13 3 -3 4 -12 1 -19z m-1210 -130 c-3 -7 -5 -2 -5 12
0 14 2 19 5 13 2 -7 2 -19 0 -25z m1210 10 c-3 -8 -6 -5 -6 6 -1 11 2 17 5 13
3 -3 4 -12 1 -19z m-810 -10 c-3 -8 -6 -5 -6 6 -1 11 2 17 5 13 3 -3 4 -12 1
-19z m-316 -94 c43 -25 79 -48 79 -51 0 -2 -26 10 -57 28 -32 18 -70 40 -85
49 -17 9 -27 23 -27 35 1 17 2 17 6 2 2 -9 40 -38 84 -63z m1129 48 c0 -5 -12
-14 -27 -21 l-28 -12 25 21 c29 22 30 23 30 12z m-784 -18 c18 -14 18 -15 -3
-4 -18 8 -30 7 -53 -5 -38 -19 -40 -11 -2 9 34 19 34 19 58 0z m400 0 c18 -14
18 -15 -4 -4 -19 9 -31 6 -77 -20 -30 -17 -55 -29 -55 -27 0 6 101 66 111 67
3 0 14 -7 25 -16z m-846 2 c0 -3 -40 -28 -90 -57 -89 -51 -90 -52 -92 -93 l-1
-41 -4 42 c-4 38 -9 45 -49 69 -60 35 -56 42 4 8 l49 -27 89 51 c94 54 94 54
94 48z m1280 -22 c0 -2 -9 0 -20 6 -11 6 -20 13 -20 16 0 2 9 0 20 -6 11 -6
20 -13 20 -16z m-750 -30 c0 -2 -13 2 -30 11 -16 9 -30 18 -30 21 0 2 14 -2
30 -11 17 -9 30 -18 30 -21z m640 31 c0 -2 -13 -11 -30 -20 -38 -19 -40 -11
-2 9 31 17 32 18 32 11z m-820 -10 c0 -2 -10 -9 -22 -15 -22 -11 -22 -10 -4 4
21 17 26 19 26 11z m645 -58 c6 -6 -12 2 -40 18 -27 15 -54 32 -60 38 -5 6 13
-2 40 -18 28 -15 55 -32 60 -38z m355 27 c0 -2 -13 2 -30 11 -16 9 -30 18 -30
21 0 2 14 -2 30 -11 17 -9 30 -18 30 -21z m170 12 c0 -2 -20 -16 -45 -30 l-45
-27 0 -112 c0 -77 4 -117 13 -126 10 -10 9 -11 -5 -6 -27 10 -208 -94 -209
-120 -1 -17 -2 -17 -6 -2 -2 9 -40 38 -84 63 -43 25 -79 48 -79 50 0 3 3 3 8
1 4 -2 40 -23 80 -46 l72 -42 100 57 100 56 0 114 0 113 -30 16 c-41 21 -38
28 4 9 32 -16 35 -16 77 10 46 27 49 28 49 22z m-900 -54 c-8 -3 -80 37 -80
44 0 2 20 -6 44 -18 24 -13 40 -24 36 -26z m80 43 c0 -2 -13 -11 -30 -20 -38
-19 -40 -11 -2 9 31 17 32 18 32 11z m399 1 c-17 -18 -78 -53 -83 -49 -3 3 14
16 37 29 41 23 55 28 46 20z m-819 -10 c0 -2 -15 -13 -34 -24 -30 -18 -36 -19
-47 -6 -10 12 -9 13 4 8 8 -3 28 1 44 10 31 17 33 18 33 12z m-463 -198 c-2
-13 -4 -3 -4 22 0 25 2 35 4 23 2 -13 2 -33 0 -45z m1225 -75 c6 -8 4 -10 -10
-7 -10 3 -35 -4 -55 -16 -20 -12 -37 -20 -37 -17 0 3 18 16 40 28 22 13 40 30
41 38 0 14 1 14 6 1 3 -8 10 -20 15 -27z m-762 -29 c0 -3 -14 3 -31 11 -17 9
-38 14 -46 10 -13 -4 -14 -3 -4 9 11 13 17 12 47 -6 19 -11 34 -22 34 -24z
m415 -7 c6 -6 -8 0 -29 12 -22 12 -48 20 -58 17 -16 -4 -17 -2 -7 10 10 12 17
11 48 -8 20 -11 41 -26 46 -31z m-515 18 c0 -2 -13 -11 -30 -20 -38 -19 -40
-11 -2 9 31 17 32 18 32 11z m395 -4 c-16 -14 -105 -63 -105 -58 0 5 101 66
110 67 2 0 0 -4 -5 -9z m945 -27 c0 -2 -13 2 -30 11 -16 9 -30 18 -30 21 0 2
14 -2 30 -11 17 -9 30 -18 30 -21z m-1760 21 c0 -2 -10 -9 -22 -15 -22 -11
-22 -10 -4 4 21 17 26 19 26 11z m590 -41 c0 -2 -13 2 -30 11 -16 9 -30 18
-30 21 0 2 14 -2 30 -11 17 -9 30 -18 30 -21z m420 -10 c0 -2 -13 2 -30 11
-16 9 -30 18 -30 21 0 2 14 -2 30 -11 17 -9 30 -18 30 -21z m160 31 c0 -2 -13
-11 -30 -20 -38 -19 -40 -11 -2 9 31 17 32 18 32 11z m-820 -10 c0 -2 -13 -11
-30 -20 -38 -19 -40 -11 -2 9 31 17 32 18 32 11z m1480 -31 c0 -2 -13 2 -30
11 -16 9 -30 18 -30 21 0 2 14 -2 30 -11 17 -9 30 -18 30 -21z m-1150 -4 c11
6 20 8 20 6 0 -3 -9 -10 -20 -16 -15 -8 -27 -7 -50 5 -16 9 -30 18 -30 21 0 2
14 -2 30 -11 23 -12 35 -13 50 -5z m403 0 c21 11 21 10 3 -4 -11 -9 -23 -16
-26 -16 -3 0 -15 7 -26 16 -18 14 -18 15 4 4 16 -8 28 -8 45 0z"/>
<path d="M1498 1167 l-88 -51 0 -116 0 -115 91 -52 c50 -29 96 -53 102 -53 7
0 53 24 102 53 l90 53 0 114 0 114 -90 53 c-49 29 -97 52 -105 52 -8 0 -54
-24 -102 -52z"/>
<path d="M1898 1158 l-88 -51 0 -107 0 -108 89 -51 c49 -28 91 -51 95 -51 3 0
6 94 6 210 0 116 -3 210 -7 210 -5 0 -47 -24 -95 -52z"/>
</g>
</svg>
