<?xml version="1.0" standalone="no"?>
<!DOCTYPE svg PUBLIC "-//W3C//DTD SVG 20010904//EN"
 "http://www.w3.org/TR/2001/REC-SVG-20010904/DTD/svg10.dtd">
<svg version="1.0" xmlns="http://www.w3.org/2000/svg"
 width="200.000000pt" height="200.000000pt" viewBox="0 0 200.000000 200.000000"
 preserveAspectRatio="xMidYMid meet">
<metadata>
Created by potrace 1.16, written by Peter Selinger 2001-2019
</metadata>
<g transform="translate(0.000000,200.000000) scale(0.100000,-0.100000)"
fill="#000000" stroke="none">
<path d="M0 1965 c0 -30 5 -39 35 -56 19 -12 35 -23 35 -26 0 -3 -16 4 -35 16
l-35 20 0 -225 0 -225 45 27 c25 14 45 24 45 21 0 -3 -20 -17 -45 -31 l-45
-27 0 -112 0 -112 100 -58 99 -58 3 -117 3 -116 90 -53 c62 -37 98 -52 115
-49 22 4 23 3 7 -9 -15 -11 -31 -5 -119 46 -84 48 -105 56 -122 48 -19 -9 -20
-9 -3 4 14 12 17 32 17 128 l0 114 -87 50 c-48 28 -91 52 -95 53 -5 2 -8 -96
-8 -217 0 -122 2 -221 5 -221 3 0 22 11 43 23 46 30 102 59 102 54 0 -3 -34
-24 -75 -48 l-75 -44 0 -112 0 -112 97 -57 97 -57 61 33 c128 71 133 76 138
122 l4 43 1 -42 c2 -39 6 -44 47 -69 60 -35 58 -42 -2 -9 l-48 27 -95 -56 -95
-57 -6 -92 -5 -92 -2 92 -2 92 -73 42 c-39 23 -82 49 -94 57 l-23 14 0 -227
c0 -180 3 -225 13 -218 21 17 127 75 127 70 0 -3 -31 -23 -70 -46 -65 -39 -70
-44 -70 -76 l0 -35 195 0 195 0 0 38 c0 36 -2 38 -96 91 -86 49 -98 53 -122
42 -27 -12 -27 -11 -5 6 11 10 23 27 26 38 4 19 5 19 6 -1 1 -17 25 -36 100
-78 l99 -57 91 52 c51 29 94 56 97 60 2 4 51 -19 109 -52 l104 -60 83 47 c46
26 90 53 99 61 9 7 19 10 22 7 4 -4 -15 -18 -41 -32 -26 -14 -75 -42 -109 -63
-34 -20 -63 -34 -65 -29 -2 4 -45 31 -96 60 l-93 53 -42 -23 c-142 -77 -157
-90 -157 -126 l0 -34 800 0 800 0 0 35 c0 30 -5 37 -45 61 -25 14 -45 28 -45
31 0 3 20 -7 45 -21 l45 -27 0 226 0 227 -32 -20 c-18 -10 -61 -36 -95 -56
l-63 -37 0 -113 c0 -76 4 -116 13 -125 10 -10 9 -11 -5 -6 -11 5 -42 -7 -83
-30 -36 -20 -65 -34 -65 -31 0 3 29 21 65 41 l65 37 0 113 0 113 -99 57 -100
57 -73 -43 c-90 -52 -95 -54 -86 -44 15 16 167 102 170 96 4 -9 180 -111 191
-111 5 0 51 25 103 56 l94 55 0 112 0 113 -97 56 -98 55 -5 119 -5 118 -90 53
c-49 29 -95 53 -101 53 -6 0 -55 -25 -108 -55 l-96 -54 -70 40 c-38 23 -70 43
-70 46 0 4 105 -52 126 -69 8 -6 49 13 114 50 l103 59 99 -58 99 -59 100 57
99 57 0 113 0 112 -80 47 c-44 25 -80 48 -80 51 0 5 48 -22 128 -69 l32 -20 0
227 0 226 -45 -27 c-25 -14 -45 -24 -45 -21 0 3 20 17 45 31 40 24 45 31 45
61 l0 35 -194 0 c-146 0 -196 -3 -199 -12 -4 -10 -6 -10 -6 0 -1 9 -128 12
-601 12 l-600 0 0 -33 c0 -18 6 -39 13 -46 10 -11 9 -13 -1 -7 -7 4 -40 -8
-77 -29 -36 -20 -65 -34 -65 -31 0 3 27 20 60 38 57 31 60 35 60 71 l0 37
-195 0 -195 0 0 -35z m881 -81 c43 -25 79 -48 79 -50 0 -3 -3 -3 -7 -1 -5 2
-41 23 -81 46 l-72 42 -100 -57 c-55 -31 -100 -60 -100 -65 0 -5 -9 0 -19 10
-10 10 -49 35 -85 56 -36 20 -66 39 -66 42 0 4 39 -16 136 -73 l31 -18 96 55
c69 38 97 60 98 74 1 17 2 17 6 2 2 -9 40 -38 84 -63z m738 36 c4 0 16 -7 27
-15 17 -14 15 -14 -14 0 -32 15 -33 15 -105 -26 -39 -23 -75 -44 -79 -46 -5
-2 -8 -2 -8 1 0 2 36 25 80 50 44 26 81 52 81 59 1 6 3 4 6 -5 2 -10 8 -18 12
-18z m-319 -46 c56 -33 102 -53 113 -50 15 4 16 2 6 -10 -10 -12 -15 -12 -33
-1 -12 8 -58 35 -103 61 l-83 48 -55 -32 c-30 -17 -55 -29 -55 -27 0 6 101 66
110 67 3 0 48 -25 100 -56z m551 -30 c62 34 65 27 4 -8 l-45 -27 0 -112 c0
-77 4 -117 13 -126 10 -10 9 -11 -5 -6 -9 4 -30 -1 -47 -10 -17 -8 -31 -13
-31 -11 0 3 14 12 30 21 l30 16 0 113 0 114 -65 37 c-36 20 -65 38 -65 41 0 3
30 -12 66 -32 l67 -37 48 27z m-1624 -10 c41 20 44 12 3 -9 l-30 -16 -2 -107
-2 -107 -3 108 -4 107 -54 31 c-30 17 -55 33 -55 36 0 3 26 -9 57 -27 55 -31
57 -32 90 -16z m848 18 c-6 -5 -26 -19 -46 -30 -31 -19 -38 -20 -48 -8 -10 12
-9 14 7 9 10 -2 34 5 53 16 35 22 50 27 34 13z m332 -84 c-3 -8 -6 -5 -6 6 -1
11 2 17 5 13 3 -3 4 -12 1 -19z m-810 -20 c-3 -7 -5 -2 -5 12 0 14 2 19 5 13
2 -7 2 -19 0 -25z m810 -40 c-3 -7 -5 -2 -5 12 0 14 2 19 5 13 2 -7 2 -19 0
-25z m0 -100 c-3 -7 -5 -2 -5 12 0 14 2 19 5 13 2 -7 2 -19 0 -25z m-935 -97
c40 23 76 44 81 46 4 2 7 2 7 -1 0 -2 -36 -25 -79 -50 -44 -25 -81 -51 -84
-58 -4 -9 -6 -9 -6 2 -1 8 -45 39 -98 69 l-97 54 -50 -28 c-60 -33 -57 -26 5
13 l43 28 102 -59 102 -59 74 43z m211 25 c26 -15 47 -30 47 -32 0 -3 -29 11
-65 31 -38 22 -72 34 -82 31 -13 -5 -14 -4 -3 9 11 13 16 13 34 2 12 -8 42
-26 69 -41z m434 -20 l83 -48 105 60 c57 34 107 57 110 52 3 -5 34 -25 70 -45
36 -20 65 -38 65 -41 0 -5 -70 33 -131 70 -13 7 -40 -4 -118 -48 l-101 -57
-104 58 c-58 32 -106 62 -106 67 0 4 10 2 23 -6 12 -8 59 -36 104 -62z m-137
49 c0 -2 -15 -12 -32 -20 l-33 -16 25 20 c24 20 40 26 40 16z m750 -29 c0 -3
-26 -19 -57 -37 -32 -18 -60 -36 -63 -40 -3 -4 -17 1 -30 12 -24 19 -24 20 -2
9 20 -10 32 -6 85 24 67 38 67 38 67 32z m-822 -11 c-22 -22 -116 -70 -123
-63 -6 5 -19 16 -30 24 -17 12 -15 12 12 -1 32 -15 35 -14 85 15 51 29 67 36
56 25z m-408 -347 l99 -58 99 59 99 59 81 -47 c44 -25 84 -50 89 -55 8 -10
-97 47 -132 71 -30 20 -44 17 -140 -40 -74 -43 -91 -58 -96 -82 l-7 -30 -1 30
c-1 27 -10 36 -98 87 l-97 56 -35 -22 c-67 -42 -151 -87 -151 -82 0 2 40 28
90 56 l90 52 2 101 2 102 3 -100 4 -100 99 -57z m1107 210 c-3 -8 -6 -5 -6 6
-1 11 2 17 5 13 3 -3 4 -12 1 -19z m-810 -20 c-3 -7 -5 -2 -5 12 0 14 2 19 5
13 2 -7 2 -19 0 -25z m0 -80 c-3 -7 -5 -2 -5 12 0 14 2 19 5 13 2 -7 2 -19 0
-25z m810 0 c-3 -8 -6 -5 -6 6 -1 11 2 17 5 13 3 -3 4 -12 1 -19z m-377 -68
l25 -20 -31 12 c-28 10 -37 7 -105 -32 -91 -53 -96 -55 -87 -45 8 9 160 103
168 104 3 0 16 -8 30 -19z m-220 -104 c-7 -7 -13 -7 -20 0 -6 6 -3 10 10 10
13 0 16 -4 10 -10z m397 -48 c-3 -8 -6 -5 -6 6 -1 11 2 17 5 13 3 -3 4 -12 1
-19z m0 -105 c-3 -10 -5 -4 -5 12 0 17 2 24 5 18 2 -7 2 -21 0 -30z m-810 -45
c-3 -8 -6 -5 -6 6 -1 11 2 17 5 13 3 -3 4 -12 1 -19z m37 -49 c20 -12 36 -23
36 -26 0 -3 -16 4 -36 16 l-35 21 -72 -41 c-90 -52 -94 -54 -84 -44 6 7 146
93 154 95 1 0 18 -9 37 -21z m382 9 c4 -7 3 -8 -4 -4 -11 7 -200 -97 -214
-118 -5 -8 -8 -7 -8 1 0 6 -25 26 -55 43 -30 17 -55 34 -55 36 0 3 24 -8 54
-25 29 -17 60 -31 67 -31 8 1 55 25 104 55 98 59 101 60 111 43z m430 -14 c58
-34 57 -43 -1 -11 l-45 25 -87 -50 c-49 -27 -93 -54 -99 -59 -7 -6 -41 9 -93
40 -45 27 -85 52 -89 56 -7 9 100 -49 133 -72 30 -20 43 -16 140 42 50 29 91
54 93 54 2 1 23 -11 48 -25z m339 7 c-6 -4 -49 -31 -96 -58 l-87 -50 -51 29
c-28 16 -51 32 -51 35 0 3 20 -7 44 -21 25 -14 51 -26 58 -26 7 0 51 23 98 50
84 49 103 58 85 41z m-1388 -188 c-2 -16 -4 -5 -4 22 0 28 2 40 4 28 2 -13 2
-35 0 -50z m1210 5 c-3 -7 -5 -2 -5 12 0 14 2 19 5 13 2 -7 2 -19 0 -25z m0
-60 c-3 -7 -5 -2 -5 12 0 14 2 19 5 13 2 -7 2 -19 0 -25z m0 -60 c-3 -8 -6 -5
-6 6 -1 11 2 17 5 13 3 -3 4 -12 1 -19z m-609 -138 c3 0 50 25 104 56 l98 55
55 -31 c30 -17 55 -34 55 -36 0 -3 -25 9 -55 26 l-55 31 -100 -56 c-55 -31
-103 -55 -108 -53 -4 1 -49 27 -99 56 -92 53 -92 53 -125 37 -27 -13 -29 -13
-13 -1 11 8 24 19 30 24 5 5 50 -15 108 -50 54 -32 101 -58 105 -58z m-268 65
c0 -2 -13 -11 -30 -20 -38 -19 -40 -11 -2 9 31 17 32 18 32 11z m-99 -50 c38
20 33 10 -8 -15 -26 -15 -29 -15 -59 4 -65 43 -68 46 -18 20 50 -25 52 -25 85
-9z m786 -10 c13 4 14 3 3 -10 -11 -13 -17 -13 -49 7 -54 32 -62 43 -13 18 24
-12 51 -19 59 -15z m-820 -122 c-3 -10 -5 -4 -5 12 0 17 2 24 5 18 2 -7 2 -21
0 -30z m810 -15 c-3 -7 -5 -2 -5 12 0 14 2 19 5 13 2 -7 2 -19 0 -25z m0 -70
c-3 -7 -5 -2 -5 12 0 14 2 19 5 13 2 -7 2 -19 0 -25z m-810 0 c-3 -8 -6 -5 -6
6 -1 11 2 17 5 13 3 -3 4 -12 1 -19z m920 -102 c81 -45 84 -46 113 -31 16 9
30 13 30 11 0 -3 -14 -12 -30 -21 -30 -15 -32 -15 -126 40 -52 30 -99 55 -104
55 -4 0 -51 -25 -103 -56 l-96 -56 -91 52 c-49 29 -90 54 -90 57 0 5 29 -10
112 -59 l68 -40 102 60 c85 50 106 58 118 48 8 -7 52 -34 97 -60z m383 8 c0
-2 -13 2 -30 11 -16 9 -30 18 -30 21 0 2 14 -2 30 -11 17 -9 30 -18 30 -21z
m-293 -106 c-3 -7 -5 -2 -5 12 0 14 2 19 5 13 2 -7 2 -19 0 -25z"/>
<path d="M1898 1167 l-88 -51 0 -116 0 -116 87 -50 c48 -27 91 -50 95 -52 4
-2 8 96 8 217 0 122 -3 221 -7 220 -5 0 -47 -24 -95 -52z"/>
</g>
</svg>
