<?xml version="1.0" standalone="no"?>
<!DOCTYPE svg PUBLIC "-//W3C//DTD SVG 20010904//EN"
 "http://www.w3.org/TR/2001/REC-SVG-20010904/DTD/svg10.dtd">
<svg version="1.0" xmlns="http://www.w3.org/2000/svg"
 width="200.000000pt" height="200.000000pt" viewBox="0 0 200.000000 200.000000"
 preserveAspectRatio="xMidYMid meet">
<metadata>
Created by potrace 1.16, written by Peter Selinger 2001-2019
</metadata>
<g transform="translate(0.000000,200.000000) scale(0.100000,-0.100000)"
fill="#000000" stroke="none">
<path d="M0 1989 c0 -6 10 -20 23 -30 20 -19 20 -19 1 -10 -16 8 -21 7 -21 -4
0 -8 5 -11 10 -8 6 4 8 -3 4 -18 -6 -23 -5 -23 9 -5 14 19 14 19 12 -6 -1 -16
-8 -25 -18 -24 -13 1 -15 -24 -15 -189 0 -165 2 -190 15 -189 10 1 17 -8 18
-24 2 -22 0 -24 -10 -11 -7 8 -12 12 -11 10 2 -2 -3 -11 -10 -19 -9 -13 -9
-14 0 -8 8 4 13 2 13 -4 0 -6 4 -8 10 -5 6 3 10 2 10 -4 0 -5 -9 -13 -20 -16
-18 -6 -20 -15 -20 -93 0 -48 4 -82 8 -75 11 18 36 -2 37 -29 0 -15 6 -23 16
-22 9 1 16 -4 16 -10 0 -7 -8 -12 -18 -12 -10 0 -16 4 -13 7 2 4 0 10 -6 14
-5 3 -10 1 -10 -5 0 -6 -4 -9 -9 -6 -17 11 -21 -27 -21 -198 0 -160 1 -174 20
-191 11 -10 21 -15 21 -12 1 4 2 11 3 16 0 5 4 12 8 16 5 6 3 -25 -2 -32 -2
-2 -3 -8 -4 -13 0 -6 -8 -15 -16 -20 -13 -9 -13 -10 0 -10 13 0 13 -1 0 -10
-11 -7 -17 -4 -22 13 -3 12 -6 -22 -7 -75 -1 -88 1 -97 19 -103 11 -3 20 -11
20 -16 0 -6 -4 -8 -9 -5 -5 3 -11 -6 -14 -21 -5 -26 -4 -26 9 -8 13 18 14 18
12 -7 -1 -16 -8 -25 -18 -24 -13 1 -15 -24 -18 -183 -1 -103 2 -189 7 -194 5
-5 19 -3 33 7 24 16 25 16 24 -8 -1 -14 -6 -29 -10 -33 -5 -4 -6 -3 -3 3 5 8
-2 11 -17 10 -13 0 -22 -4 -19 -9 2 -4 0 -7 -6 -7 -5 0 -9 -9 -8 -19 1 -16 5
-18 22 -10 18 9 18 8 -2 -10 -13 -10 -23 -24 -23 -30 0 -17 407 -15 413 2 4 9
6 9 6 0 1 -18 1137 -18 1144 0 4 9 6 9 6 -1 1 -19 431 -16 431 3 0 8 -9 17
-20 20 -17 5 -20 14 -18 45 1 27 6 36 15 33 10 -4 11 -9 2 -19 -6 -7 -9 -21
-6 -31 4 -14 5 -14 6 4 0 12 5 24 11 28 12 8 12 412 0 420 -6 4 -10 15 -10 26
0 13 -5 18 -12 14 -7 -4 -3 2 10 13 20 18 22 29 21 114 -1 62 -4 85 -9 68 -7
-21 -8 -22 -9 -5 -1 17 -3 17 -11 5 -11 -17 -11 -16 -14 22 -2 15 1 25 6 22 4
-3 8 0 8 6 0 6 4 9 9 6 18 -11 22 32 20 216 -1 160 -4 189 -18 200 -14 11 -14
11 -3 -4 8 -10 9 -19 3 -22 -11 -7 -20 5 -26 34 -2 12 3 24 15 30 15 8 19 6
23 -13 2 -12 5 23 5 78 0 64 -2 93 -8 80 -8 -18 -9 -18 -9 5 -1 20 -3 22 -11
10 -8 -11 -10 -1 -8 37 1 38 5 50 15 46 10 -4 11 -9 2 -19 -6 -7 -9 -21 -6
-31 4 -14 5 -14 6 4 0 12 5 24 11 28 12 8 12 412 0 420 -6 4 -10 15 -10 26 0
16 -3 18 -19 10 -17 -10 -18 -9 -7 14 6 13 12 20 14 15 5 -13 32 0 32 16 0 12
-63 14 -379 14 -352 0 -380 -2 -384 -18 -4 -16 -5 -16 -6 1 -1 16 -17 17 -195
17 -146 0 -196 -3 -199 -12 -4 -10 -6 -10 -6 0 -1 18 -391 18 -391 0 0 -10 -3
-9 -9 1 -7 11 -9 11 -14 0 -3 -9 -6 -9 -6 -2 -1 16 -411 19 -411 2z m438 -70
c-1 -29 -5 -36 -17 -31 -14 5 -14 4 -1 -12 12 -16 9 -15 -20 3 -37 22 -55 27
-45 12 3 -5 1 -12 -4 -15 -10 -7 -9 19 1 30 4 3 16 0 28 -6 23 -12 50 1 50 24
0 6 -5 3 -11 -6 -5 -10 -15 -18 -20 -18 -6 0 -7 4 -4 10 3 5 0 7 -9 4 -10 -4
-14 0 -12 12 2 10 11 21 22 25 16 6 16 8 2 8 -9 1 -20 -3 -23 -9 -3 -5 -12
-10 -18 -10 -7 0 -1 9 12 19 20 15 29 17 48 8 19 -9 23 -17 21 -48z m403 30
c13 -11 18 -18 12 -14 -11 5 -19 -19 -14 -47 0 -4 -7 -5 -17 -2 -11 4 -9 -1 8
-16 l25 -22 -28 16 c-15 9 -33 14 -39 10 -7 -5 -8 -3 -3 6 6 10 4 12 -9 7 -11
-5 -15 -3 -10 5 5 7 2 9 -8 6 -22 -9 -17 41 7 58 26 19 49 17 76 -7z m389 11
c15 -8 17 -16 10 -39 -4 -16 -5 -32 -2 -36 4 -3 -2 -3 -12 1 -12 4 -17 4 -13
-2 3 -5 -3 -10 -13 -10 -10 0 -16 5 -13 10 4 5 -1 7 -10 3 -9 -3 -16 -3 -16 1
5 28 -3 52 -13 47 -7 -4 -2 3 11 14 26 23 43 26 71 11z m406 -5 c10 -8 15 -15
10 -15 -5 0 -2 -8 5 -17 7 -10 10 -15 5 -11 -8 7 -45 -23 -40 -32 1 -3 -6 -6
-16 -6 -10 0 -17 3 -14 7 2 4 -3 9 -11 13 -8 3 -15 15 -15 26 0 14 -4 19 -12
15 -7 -4 -2 3 11 14 27 25 50 26 77 6z m294 -30 c0 -2 -10 -9 -22 -15 -22 -11
-22 -10 -4 4 21 17 26 19 26 11z m44 -38 c-8 -5 -12 -12 -9 -17 3 -5 0 -12 -6
-16 -8 -5 -9 -3 -4 6 6 9 4 12 -7 8 -8 -4 -15 -1 -15 7 0 7 7 12 16 11 11 -1
15 6 13 24 -4 24 -3 24 11 5 13 -17 14 -21 1 -28z m-1908 7 c1 -9 0 -13 -4
-10 -3 4 -7 14 -8 22 -1 9 0 13 4 10 3 -4 7 -14 8 -22z m1044 21 c0 -2 -10 -9
-22 -15 -22 -11 -22 -10 -4 4 21 17 26 19 26 11z m-383 -20 c0 -8 -4 -12 -9
-9 -5 3 -6 10 -3 15 9 13 12 11 12 -6z m399 -10 c-1 -13 -4 -27 -7 -30 -5 -4
-4 41 0 53 4 10 8 -2 7 -23z m420 -2 c-1 -7 -6 -16 -11 -20 -4 -5 -5 -2 0 6 6
10 4 13 -7 9 -8 -4 -15 -1 -15 6 0 6 8 12 17 12 10 0 17 -6 16 -13z m-1430
-18 c1 -8 -1 -17 -5 -19 -4 -3 -7 6 -7 19 0 25 8 25 12 0z m590 0 c1 -8 -1
-17 -5 -19 -4 -3 -7 6 -7 19 0 25 8 25 12 0z m1154 20 c0 -2 -10 -9 -22 -15
-22 -11 -22 -10 -4 4 21 17 26 19 26 11z m-1556 -17 c-5 -7 -2 -9 8 -5 17 6
19 -16 3 -30 -4 -5 -5 -2 0 6 6 11 4 13 -7 8 -11 -4 -15 -1 -13 11 5 23 4 22
11 22 3 0 2 -5 -2 -12z m1172 -13 c-1 -13 -4 -27 -7 -30 -5 -4 -4 41 0 53 4
10 8 -2 7 -23z m-1262 3 c-5 -7 -2 -9 7 -6 10 4 15 -2 17 -18 1 -13 2 -27 3
-31 3 -20 -2 -34 -11 -28 -5 3 -10 2 -10 -4 0 -12 -18 -9 -57 12 -33 18 -45
31 -19 21 10 -4 14 0 12 13 -2 12 8 24 28 35 38 21 39 21 30 6z m402 3 c-7
-10 22 -24 34 -16 7 4 7 -17 0 -35 -1 -3 -2 -8 -1 -12 0 -4 -12 -14 -27 -22
-24 -12 -30 -12 -47 0 -30 22 -26 56 10 76 35 20 38 21 31 9z m1054 -17 c0 -2
-9 0 -20 6 -11 6 -20 13 -20 16 0 2 9 0 20 -6 11 -6 20 -13 20 -16z m176 -30
c-1 -13 -9 -29 -19 -36 -11 -9 -17 -32 -20 -78 l-3 -65 -3 70 c-2 50 -5 64
-11 50 -8 -19 -9 -19 -9 1 -1 12 -7 24 -15 27 -8 3 -13 14 -11 24 1 10 -2 24
-8 31 -7 9 -5 11 8 6 13 -5 16 -4 11 4 -5 8 -1 10 10 5 12 -4 15 -3 10 5 -4 8
6 6 27 -4 25 -12 33 -22 33 -40z m-821 33 c52 -31 5 -94 -51 -68 -15 6 -24 15
-20 18 3 3 1 12 -5 19 -8 9 -3 16 18 28 34 18 33 18 58 3z m400 0 c26 -15 26
-52 0 -71 -17 -12 -23 -12 -47 0 -15 8 -27 18 -27 22 1 4 0 9 -1 12 -7 19 -7
39 1 35 5 -4 17 -1 26 4 22 13 24 13 48 -2z m-788 -144 c-2 -16 -4 -5 -4 22 0
28 2 40 4 28 2 -13 2 -35 0 -50z m-400 10 c-3 -10 -5 -2 -5 17 0 19 2 27 5 18
2 -10 2 -26 0 -35z m800 15 c-3 -7 -5 -2 -5 12 0 14 2 19 5 13 2 -7 2 -19 0
-25z m330 10 c-3 -8 -6 -5 -6 6 -1 11 2 17 5 13 3 -3 4 -12 1 -19z m20 -10
c-3 -7 -5 -2 -5 12 0 14 2 19 5 13 2 -7 2 -19 0 -25z m-770 0 c-3 -8 -6 -5 -6
6 -1 11 2 17 5 13 3 -3 4 -12 1 -19z m1150 -10 c-3 -8 -6 -5 -6 6 -1 11 2 17
5 13 3 -3 4 -12 1 -19z m-1570 -45 c-3 -10 -5 -2 -5 17 0 19 2 27 5 18 2 -10
2 -26 0 -35z m770 0 c-3 -10 -5 -2 -5 17 0 19 2 27 5 18 2 -10 2 -26 0 -35z
m70 -20 c-3 -10 -5 -4 -5 12 0 17 2 24 5 18 2 -7 2 -21 0 -30z m-820 -5 c-3
-7 -5 -2 -5 12 0 14 2 19 5 13 2 -7 2 -19 0 -25z m1582 -25 c2 18 45 -25 47
-47 0 -18 -8 -28 -33 -40 -21 -10 -31 -12 -27 -4 5 7 2 9 -7 6 -10 -4 -15 2
-17 18 -1 13 -2 27 -3 31 -3 20 2 34 11 28 6 -4 10 8 11 27 l1 33 8 -30 c4
-16 8 -26 9 -22z m-1157 -18 c0 -34 -4 -52 -16 -60 -8 -7 -12 -15 -8 -20 4 -4
-7 0 -25 9 -36 18 -47 20 -38 7 3 -5 0 -13 -6 -17 -8 -5 -9 -3 -4 6 6 9 4 12
-7 8 -8 -4 -15 -1 -15 7 0 7 7 12 16 11 10 -1 16 7 16 21 0 30 34 54 57 42 15
-8 18 -5 18 17 0 48 11 19 12 -31z m748 12 c26 7 59 -14 55 -34 -1 -10 0 -22
4 -28 10 -17 10 -35 0 -29 -5 3 -6 10 -3 16 5 8 1 9 -12 3 -18 -7 -28 -8 -73
-3 -15 2 -21 22 -11 36 4 4 7 21 10 50 2 22 3 23 7 6 3 -15 10 -20 23 -17z
m-1150 -46 c-4 -16 -5 -32 -2 -36 4 -3 -2 -3 -12 1 -14 5 -17 4 -12 -4 4 -8
-6 -6 -27 4 -39 19 -44 54 -12 78 17 12 23 12 47 0 23 -12 26 -17 18 -43z
m805 12 c-1 -10 0 -22 4 -28 10 -17 10 -35 0 -29 -5 3 -7 10 -4 15 7 11 3 11
-19 3 -9 -3 -13 -10 -10 -16 3 -5 -8 -2 -25 6 -22 12 -36 14 -49 7 -14 -7 -19
-6 -19 4 0 7 7 11 14 8 8 -3 13 -2 12 3 -1 5 0 12 1 17 1 4 3 11 4 17 0 5 10
16 21 24 17 12 23 12 46 0 17 -8 26 -20 24 -31z m-908 -28 c0 -8 -4 -12 -9 -9
-5 3 -6 10 -3 15 9 13 12 11 12 -6z m1739 -10 c1 -8 -1 -17 -5 -19 -4 -3 -7 6
-7 19 0 25 8 25 12 0z m-1761 -4 c3 -5 2 -12 -3 -15 -5 -3 -9 1 -9 9 0 17 3
19 12 6z m1405 -6 c0 -2 -6 -5 -13 -8 -8 -3 -14 1 -14 8 0 7 6 11 14 8 7 -3
13 -6 13 -8z m186 0 c-1 -8 -5 -17 -8 -21 -5 -4 -4 16 1 34 3 9 9 -1 7 -13z
m-1421 -4 c3 -5 2 -12 -3 -15 -5 -3 -9 1 -9 9 0 17 3 19 12 6z m434 -7 c4 3 8
-1 8 -9 0 -10 -5 -11 -19 -4 -10 5 -22 8 -27 5 -4 -3 -8 1 -8 9 0 10 5 11 19
4 10 -5 22 -8 27 -5z m386 -3 c3 -5 2 -12 -3 -15 -5 -3 -9 1 -9 9 0 17 3 19
12 6z m-798 -16 c0 -8 -4 -12 -9 -9 -5 3 -6 10 -3 15 9 13 12 11 12 -6z m107
3 c-5 -7 -2 -9 7 -6 10 4 15 -2 17 -19 l2 -25 -18 22 c-16 20 -21 21 -41 10
-18 -9 -26 -9 -35 1 -8 9 -8 10 1 5 7 -4 25 0 40 8 34 19 36 19 27 4z m399 -2
c-4 -6 1 -6 13 -2 10 4 16 4 12 1 -3 -4 -2 -20 2 -36 8 -26 6 -31 -16 -41 -18
-8 -31 -8 -50 1 -15 6 -24 15 -20 18 3 4 12 1 18 -5 7 -7 19 -12 27 -11 10 0
7 4 -7 10 -13 5 -21 13 -17 19 3 5 0 7 -8 4 -8 -3 -18 0 -23 7 -4 8 -3 10 4 5
11 -6 16 5 13 26 0 4 7 4 16 1 9 -4 14 -2 10 3 -3 5 3 10 13 10 10 0 16 -5 13
-10z m73 -1 c-1 -8 -5 -17 -8 -21 -5 -4 -4 16 1 34 3 9 9 -1 7 -13z m327 1
c-4 -5 0 -7 9 -4 8 4 15 1 15 -6 0 -8 -12 -12 -34 -10 -25 2 -33 -2 -33 -14 0
-10 3 -13 8 -7 9 13 42 16 42 4 0 -6 10 -4 23 2 19 11 20 10 10 -3 -7 -8 -10
-17 -7 -21 10 -9 -37 -29 -56 -24 -12 3 -21 -1 -23 -12 -3 -9 -5 -3 -6 12 -1
20 3 26 12 21 9 -6 9 -5 0 7 -17 21 -13 58 6 51 8 -3 12 -1 8 4 -3 5 3 10 13
10 10 0 16 -5 13 -10z m313 -12 c1 -9 0 -13 -4 -10 -3 4 -7 14 -8 22 -1 9 0
13 4 10 3 -4 7 -14 8 -22z m126 2 c7 5 8 3 2 -7 -5 -8 -9 -22 -9 -32 0 -39
-50 -48 -86 -16 -13 11 -18 18 -11 14 10 -5 18 19 13 47 0 4 7 4 16 1 11 -5
14 -3 9 6 -6 8 3 7 23 -4 17 -9 37 -13 43 -9z m-1586 -1 c-1 -8 -5 -17 -8 -21
-5 -4 -4 16 1 34 3 9 9 -1 7 -13z m624 -11 c0 -2 -9 0 -20 6 -11 6 -20 13 -20
16 0 2 9 0 20 -6 11 -6 20 -13 20 -16z m400 0 c0 -2 -9 0 -20 6 -11 6 -20 13
-20 16 0 2 9 0 20 -6 11 -6 20 -13 20 -16z m857 1 c0 -8 -4 -12 -9 -9 -5 3 -6
10 -3 15 9 13 12 11 12 -6z m-1529 -23 c2 -12 8 -20 13 -17 5 4 8 -13 8 -37
-2 -40 -2 -41 -8 -11 -6 33 -22 34 -34 3 -4 -12 -6 -12 -6 2 -1 10 -10 22 -21
28 -24 13 -22 31 5 47 26 16 39 11 43 -15z m727 -10 c-3 -3 -11 0 -18 7 -9 10
-8 11 6 5 10 -3 15 -9 12 -12z m-308 -64 c-3 -7 -5 -2 -5 12 0 14 2 19 5 13 2
-7 2 -19 0 -25z m330 -55 c-3 -10 -5 -4 -5 12 0 17 2 24 5 18 2 -7 2 -21 0
-30z m-770 -5 c-3 -7 -5 -2 -5 12 0 14 2 19 5 13 2 -7 2 -19 0 -25z m840 0
c-3 -7 -5 -2 -5 12 0 14 2 19 5 13 2 -7 2 -19 0 -25z m730 10 c-3 -8 -6 -5 -6
6 -1 11 2 17 5 13 3 -3 4 -12 1 -19z m-1550 -30 c-3 -7 -5 -2 -5 12 0 14 2 19
5 13 2 -7 2 -19 0 -25z m420 0 c-3 -7 -5 -2 -5 12 0 14 2 19 5 13 2 -7 2 -19
0 -25z m-820 -20 c-3 -7 -5 -2 -5 12 0 14 2 19 5 13 2 -7 2 -19 0 -25z m420
10 c-3 -8 -6 -5 -6 6 -1 11 2 17 5 13 3 -3 4 -12 1 -19z m1170 0 c-3 -8 -6 -5
-6 6 -1 11 2 17 5 13 3 -3 4 -12 1 -19z m-40 -20 c-3 -7 -5 -2 -5 12 0 14 2
19 5 13 2 -7 2 -19 0 -25z m48 -25 c-1 -10 -8 -17 -16 -15 -10 3 -10 0 1 -12
15 -19 0 -21 -20 -3 -12 10 -12 9 -2 -5 14 -17 3 -32 -14 -20 -11 8 -12 47 -1
58 4 4 7 2 7 -4 0 -6 7 -9 16 -5 9 3 12 9 7 12 -4 3 -9 12 -11 19 -2 10 2 10
17 3 11 -6 18 -19 16 -28z m-1204 8 c7 11 9 9 9 -6 0 -17 2 -17 10 -5 11 17
11 16 14 -22 1 -14 -2 -25 -5 -22 -4 2 -9 -1 -11 -8 -2 -6 -20 -12 -40 -12
-33 -2 -35 0 -33 26 1 16 -3 28 -9 28 -6 0 3 9 19 20 27 18 30 18 34 3 2 -13
5 -13 12 -2z m405 7 c4 -7 3 -8 -4 -4 -7 4 -12 3 -12 -2 0 -6 7 -12 15 -16 10
-4 15 1 15 16 0 32 7 18 13 -24 3 -21 1 -35 -4 -32 -5 3 -9 0 -9 -6 0 -6 -5
-8 -10 -5 -8 5 -7 12 2 23 12 15 11 16 -5 3 -15 -12 -20 -12 -30 -1 -9 9 -9
11 0 6 6 -3 14 -2 18 4 3 5 -1 10 -10 10 -9 0 -13 4 -10 10 4 6 -1 7 -11 3
-10 -4 -13 -8 -7 -10 7 -3 10 -10 7 -18 -3 -7 3 -16 15 -20 12 -3 21 -11 21
-16 0 -12 -11 -11 -35 4 -26 15 -26 52 0 71 24 19 32 19 41 4z m404 4 c0 -4
-9 -8 -20 -9 -11 -1 -18 2 -15 8 7 11 35 12 35 1z m50 -39 c0 -1 -7 0 -17 4
-13 5 -15 2 -11 -14 4 -15 -1 -24 -18 -32 -33 -15 -74 4 -69 31 3 15 0 18 -13
14 -14 -5 -13 -3 2 9 21 16 26 15 30 -7 10 -45 36 -57 50 -22 3 8 2 13 -3 9
-5 -3 -11 -2 -14 2 -2 5 -2 2 0 -5 1 -8 -3 -12 -9 -10 -16 6 -18 30 -4 40 6 4
16 2 24 -4 7 -6 12 -7 11 -2 -4 21 2 23 21 7 11 -10 20 -19 20 -20z m400 2 c0
-2 -7 -2 -15 1 -10 4 -13 0 -10 -18 4 -21 3 -21 -9 -6 -7 10 -15 17 -17 15 -2
-1 1 3 8 9 7 6 9 15 5 19 -4 4 3 2 16 -4 12 -6 22 -14 22 -16z m-930 1 c0 -2
-7 -7 -16 -10 -8 -3 -12 -2 -9 4 6 10 25 14 25 6z m-264 -42 c1 -9 0 -13 -4
-10 -3 4 -7 14 -8 22 -1 9 0 13 4 10 3 -4 7 -14 8 -22z m-196 11 c0 -2 -10 -9
-22 -15 -22 -11 -22 -10 -4 4 21 17 26 19 26 11z m834 -7 c-5 -7 -2 -9 8 -6 8
4 15 1 15 -6 0 -6 -8 -12 -17 -12 -11 0 -16 7 -15 16 5 21 4 20 11 20 3 0 2
-5 -2 -12z m516 3 c0 -13 -28 -22 -35 -11 -3 4 1 11 7 13 20 8 28 8 28 -2z
m305 0 c3 -5 2 -12 -3 -15 -5 -3 -9 1 -9 9 0 17 3 19 12 6z m-1219 -27 c1 -9
0 -13 -4 -10 -3 4 -7 14 -8 22 -1 9 0 13 4 10 3 -4 7 -14 8 -22z m181 9 c0 -8
-6 -9 -19 -2 -10 5 -18 11 -18 12 0 2 8 3 18 3 10 0 19 -6 19 -13z m640 2 c0
-8 -4 -12 -9 -9 -5 3 -6 10 -3 15 9 13 12 11 12 -6z m179 -11 c1 -9 0 -13 -4
-10 -3 4 -7 14 -8 22 -1 9 0 13 4 10 3 -4 7 -14 8 -22z m-399 0 c0 -7 -7 -10
-15 -6 -11 4 -13 1 -7 -9 5 -8 4 -11 0 -6 -16 14 -13 33 5 33 9 0 17 -6 17
-12z m113 -5 c-17 -15 -19 -19 -7 -15 11 3 16 2 12 -4 -3 -6 1 -13 10 -16 13
-6 14 -8 3 -15 -7 -5 -17 -9 -23 -9 -5 0 -4 4 4 9 9 6 10 11 2 15 -18 11 -34
-4 -21 -19 8 -10 7 -16 -7 -24 -29 -17 -5 -13 29 5 18 9 27 11 23 4 -4 -7 -21
-18 -38 -25 -37 -15 -57 -2 -57 38 0 19 11 32 43 51 51 31 60 32 27 5z m-1284
-15 c1 -9 0 -13 -4 -10 -3 4 -7 14 -8 22 -1 9 0 13 4 10 3 -4 7 -14 8 -22z
m400 1 c1 -9 -4 -11 -14 -8 -11 5 -13 3 -7 -8 5 -8 4 -11 0 -6 -16 14 -14 36
3 30 11 -5 13 -3 7 8 -5 8 -4 11 0 6 5 -4 10 -14 11 -22z m74 10 c-11 -13 -8
-14 17 -11 19 2 30 -2 30 -10 0 -6 -5 -10 -12 -8 -6 3 -12 -10 -13 -33 -4 -48
-12 -57 -12 -12 0 35 -14 59 -34 59 -6 0 -3 -5 7 -11 9 -5 17 -18 17 -27 0
-13 -4 -11 -16 6 -9 13 -22 21 -28 19 -7 -3 -13 1 -13 8 0 8 7 11 15 7 10 -3
13 -1 8 6 -4 8 -2 10 7 6 8 -3 18 -1 22 5 3 6 9 11 12 11 3 0 0 -7 -7 -15z
m846 0 c-1 -8 -5 -17 -8 -21 -5 -4 -4 16 1 34 3 9 9 -1 7 -13z m420 -10 c1 -8
-1 -17 -5 -19 -4 -3 -7 6 -7 19 0 25 8 25 12 0z m-1655 -3 c14 4 18 -19 8 -52
l-7 -25 -1 27 c-1 15 -5 29 -9 32 -4 2 -6 -11 -4 -30 5 -37 -10 -44 -50 -23
-21 11 -21 12 3 24 13 7 28 11 34 7 5 -3 4 1 -2 10 -7 8 -10 18 -6 22 4 4 -1
4 -11 0 -12 -5 -14 -9 -6 -14 8 -5 8 -9 -3 -13 -7 -3 -19 -2 -26 3 -10 5 -9 9
4 14 9 3 13 10 10 16 -4 6 1 7 11 3 12 -5 15 -3 9 6 -6 10 -3 11 13 2 12 -6
26 -10 33 -9z m779 6 c0 -5 8 -8 18 -6 10 2 16 -2 14 -11 -2 -9 3 -11 15 -7
15 5 15 4 -2 -9 -18 -14 -20 -14 -23 -1 -2 9 -8 16 -13 16 -6 0 -7 -4 -4 -10
4 -6 -1 -7 -12 -4 -17 5 -17 5 0 -9 16 -14 16 -15 1 -21 -9 -4 -14 -9 -11 -12
3 -3 15 -1 26 6 19 9 21 8 20 -12 0 -13 -2 -18 -5 -13 -2 6 -20 10 -39 9 -32
-2 -35 1 -34 25 0 23 1 23 8 6 7 -17 8 -16 13 8 4 20 2 27 -7 24 -6 -3 -12 1
-12 8 0 8 7 11 15 7 9 -3 13 -1 9 5 -3 5 0 10 8 10 8 0 15 -4 15 -9z m780 -3
c5 3 23 -2 40 -11 l29 -18 -27 -18 c-30 -20 -23 -24 11 -6 20 10 21 10 8 -5
-7 -10 -20 -17 -27 -17 -8 0 -14 -10 -15 -22 l0 -23 -9 23 c-5 12 -17 22 -25
22 -13 0 -16 8 -14 33 2 18 -1 39 -6 47 -8 13 -6 13 8 2 9 -8 21 -11 27 -7z
m-844 -21 c1 -9 0 -13 -4 -10 -3 4 -7 14 -8 22 -1 9 0 13 4 10 3 -4 7 -14 8
-22z m400 0 c1 -9 0 -13 -4 -10 -3 4 -7 14 -8 22 -1 9 0 13 4 10 3 -4 7 -14 8
-22z m-751 -35 c-3 -15 0 -19 10 -15 9 3 15 0 15 -9 0 -11 -6 -12 -30 -4 -16
6 -30 15 -30 21 0 5 6 6 13 2 7 -5 6 0 -3 11 -9 11 -10 16 -2 11 7 -4 12 -2
12 4 0 6 4 9 9 5 6 -3 8 -15 6 -26z m1192 -81 c-2 -13 -4 -5 -4 17 -1 22 1 32
4 23 2 -10 2 -28 0 -40z m-820 20 c-3 -8 -6 -5 -6 6 -1 11 2 17 5 13 3 -3 4
-12 1 -19z m-750 -70 c-2 -18 -4 -6 -4 27 0 33 2 48 4 33 2 -15 2 -42 0 -60z
m400 35 c-3 -10 -5 -4 -5 12 0 17 2 24 5 18 2 -7 2 -21 0 -30z m20 5 c-3 -7
-5 -2 -5 12 0 14 2 19 5 13 2 -7 2 -19 0 -25z m400 0 c-3 -7 -5 -2 -5 12 0 14
2 19 5 13 2 -7 2 -19 0 -25z m730 10 c-3 -8 -6 -5 -6 6 -1 11 2 17 5 13 3 -3
4 -12 1 -19z m-360 -20 c-3 -7 -5 -2 -5 12 0 14 2 19 5 13 2 -7 2 -19 0 -25z
m-1210 -30 c-3 -7 -5 -2 -5 12 0 14 2 19 5 13 2 -7 2 -19 0 -25z m1582 -42 c2
18 28 12 58 -13 21 -18 23 -21 6 -14 -27 13 -43 14 -23 1 8 -5 15 -20 16 -35
0 -14 -1 -23 -4 -20 -2 2 -13 0 -23 -5 -12 -7 -19 -6 -22 3 -3 9 -8 8 -22 -3
-15 -12 -17 -12 -10 -1 6 11 4 13 -7 9 -8 -4 -15 -1 -15 7 0 7 6 11 14 8 13
-5 15 7 15 87 l0 35 8 -35 c4 -19 8 -30 9 -24z m-812 22 c-3 -8 -6 -5 -6 6 -1
11 2 17 5 13 3 -3 4 -12 1 -19z m-730 -10 c-3 -8 -6 -5 -6 6 -1 11 2 17 5 13
3 -3 4 -12 1 -19z m1130 0 c-3 -8 -6 -5 -6 6 -1 11 2 17 5 13 3 -3 4 -12 1
-19z m49 -12 c13 -4 24 -11 24 -17 0 -6 -6 -6 -19 1 -11 5 -27 7 -35 4 -23 -9
-20 -39 3 -41 13 -1 18 3 14 13 -3 7 -10 11 -17 7 -8 -4 -8 -3 0 6 9 10 19 8
45 -8 32 -20 46 -46 29 -56 -5 -3 -7 4 -5 15 3 14 0 20 -8 17 -7 -3 -11 -9
-10 -15 2 -7 -4 -9 -14 -5 -11 5 -14 3 -8 -6 6 -10 3 -11 -12 -3 -10 6 -31 9
-45 8 -19 -2 -25 1 -24 12 2 9 8 18 14 20 7 2 12 12 12 23 0 10 5 19 10 19 6
0 11 10 11 23 1 15 3 17 6 5 2 -9 15 -19 29 -22z m-812 -63 c-10 -7 -13 -13
-8 -13 18 0 34 23 34 49 0 13 2 22 4 20 7 -7 14 -68 8 -68 -28 4 -34 -1 -21
-18 13 -16 12 -17 -3 -5 -9 8 -23 10 -29 6 -8 -5 -9 -3 -4 6 6 9 4 12 -7 8 -8
-4 -15 0 -15 8 0 7 4 11 9 8 5 -3 15 0 24 6 11 10 12 16 3 26 -9 11 -8 14 1
14 8 0 11 3 8 6 -4 3 -20 -2 -37 -11 -30 -15 -31 -15 -20 3 6 10 21 19 32 20
12 0 24 7 27 14 3 7 6 -5 8 -27 3 -29 -1 -43 -14 -52z m-384 56 c0 -5 -4 -7
-10 -4 -5 3 -10 -3 -10 -14 0 -14 -5 -19 -16 -14 -13 5 -13 8 -2 15 9 6 5 7
-12 3 -24 -6 -24 -5 -6 9 23 18 56 21 56 5z m820 -6 c0 -10 -5 -11 -19 -3 -28
15 -38 12 -16 -4 18 -13 18 -14 -3 -25 -18 -9 -21 -8 -25 12 -4 18 -4 17 -6
-6 -1 -25 2 -28 22 -22 17 5 19 4 7 -4 -9 -7 -10 -11 -3 -11 6 0 19 10 27 22
14 20 21 18 17 -6 -1 -5 4 -6 12 -3 7 3 14 -1 14 -7 0 -8 -10 -12 -24 -10 -14
1 -41 -7 -61 -18 l-37 -20 25 22 c17 15 19 20 8 16 -10 -3 -17 -1 -15 6 1 6
-4 13 -12 16 -8 2 -11 0 -7 -6 3 -6 1 -14 -5 -18 -8 -5 -9 -3 -4 6 6 10 4 12
-9 7 -11 -5 -15 -3 -10 5 5 8 2 9 -9 5 -24 -9 -21 0 4 14 15 8 19 8 15 0 -8
-13 -4 -14 18 -5 9 3 16 14 16 24 0 21 15 29 53 27 15 -1 27 -7 27 -14z m-796
-42 c3 -34 1 -40 -9 -31 -10 8 -20 8 -36 0 -17 -10 -20 -9 -14 1 6 9 3 11 -9
6 -9 -4 -15 -3 -11 2 3 6 -2 14 -11 19 -24 13 1 26 25 12 16 -8 22 -6 31 7 10
17 10 16 7 -2 -2 -15 -10 -19 -27 -18 -22 2 -23 1 -7 -8 24 -14 47 5 47 39 0
39 9 21 14 -27z m351 20 c3 -5 1 -12 -5 -16 -5 -3 -10 -1 -10 5 0 6 -5 8 -12
4 -7 -4 -8 -3 -4 4 9 14 23 15 31 3z m-469 -36 c-1 -8 -5 -17 -8 -21 -5 -4 -4
16 1 34 3 9 9 -1 7 -13z m399 -4 c3 -5 2 -12 -3 -15 -5 -3 -9 1 -9 9 0 17 3
19 12 6z m1362 -6 c0 -6 -8 -11 -17 -11 -9 0 -17 5 -17 11 0 6 8 11 17 11 9 0
17 -5 17 -11z m-1171 -21 c1 -9 0 -13 -4 -10 -3 4 -7 14 -8 22 -1 9 0 13 4 10
3 -4 7 -14 8 -22z m-239 1 c0 -8 -4 -12 -9 -9 -5 3 -6 10 -3 15 9 13 12 11 12
-6z m1218 6 c3 -5 2 -12 -3 -15 -5 -3 -9 1 -9 9 0 17 3 19 12 6z m-1265 -33
c0 -5 4 -7 9 -4 5 4 8 -2 6 -11 -2 -10 -4 -25 -4 -33 -1 -13 -2 -13 -11 0 -8
12 -10 12 -10 -5 0 -17 -2 -17 -10 -5 -8 13 -10 12 -10 -3 0 -17 -1 -17 -30
-1 -16 10 -26 21 -21 24 4 3 7 13 6 22 -2 9 4 19 12 22 8 3 12 10 8 16 -3 5 6
5 25 -1 16 -6 30 -15 30 -21z m686 6 c1 -9 0 -13 -4 -10 -3 4 -7 14 -8 22 -1
9 0 13 4 10 3 -4 7 -14 8 -22z m180 9 c-1 -7 -6 -16 -11 -20 -4 -5 -5 -2 0 6
6 10 4 13 -7 9 -8 -4 -15 -1 -15 6 0 6 8 12 17 12 10 0 17 -6 16 -13z m240
-17 c1 -9 -2 -14 -7 -10 -5 3 -6 10 -3 16 5 7 2 9 -8 6 -8 -4 -15 0 -15 8 0
19 30 1 33 -20z m-713 9 c8 -8 17 -12 20 -9 3 3 4 -2 2 -13 -2 -10 -4 -25 -4
-33 -1 -12 -3 -12 -10 -2 -6 10 -10 8 -14 -8 -3 -12 -11 -20 -19 -18 -17 6
-16 44 2 40 11 -3 11 0 0 12 -14 18 -1 22 18 6 7 -5 6 -3 -1 5 -16 19 -51 9
-43 -11 3 -8 0 -14 -7 -14 -8 0 -6 -4 3 -10 8 -5 10 -10 4 -10 -5 0 -19 7 -30
15 -14 11 -15 14 -2 9 12 -4 16 -1 14 13 -2 10 6 23 18 30 27 16 32 16 49 -2z
m387 9 c0 -4 -8 -12 -17 -19 -23 -17 -25 -43 -3 -55 29 -15 51 20 29 47 -7 7
-6 14 1 18 5 3 10 1 10 -5 0 -6 4 -9 9 -5 6 3 8 -4 6 -15 -2 -11 1 -20 6 -20
5 0 4 -6 -3 -14 -7 -8 -15 -12 -17 -10 -2 2 -10 -1 -17 -7 -10 -8 -19 -6 -36
5 -29 20 -30 57 -3 73 23 14 35 16 35 7z m410 -4 c8 -5 11 -13 6 -17 -5 -4
-11 -2 -13 5 -3 6 -9 10 -14 6 -5 -3 -9 0 -9 5 0 13 10 14 30 1z m245 0 c3 -6
-1 -7 -9 -4 -18 7 -21 14 -7 14 6 0 13 -4 16 -10z m71 -16 c1 -9 0 -13 -4 -10
-3 4 -7 14 -8 22 -1 9 0 13 4 10 3 -4 7 -14 8 -22z m-359 -5 c-5 -17 -3 -18 9
-8 12 10 17 9 27 -1 9 -9 9 -11 0 -6 -6 3 -15 2 -18 -4 -4 -6 -1 -9 5 -8 7 2
14 -7 16 -19 3 -17 -1 -21 -16 -20 -22 1 -27 13 -8 19 7 3 5 7 -6 11 -11 4
-15 3 -10 -4 4 -7 1 -10 -7 -7 -7 2 -14 16 -14 31 -1 14 2 24 7 21 4 -3 8 0 8
5 0 6 3 11 6 11 4 0 4 -9 1 -21z m90 7 c0 -8 -6 -12 -15 -8 -10 3 -13 1 -8 -6
7 -11 -11 -28 -20 -19 -5 5 31 47 39 47 2 0 4 -6 4 -14z m-453 -14 c2 -4 -4
-9 -15 -9 -11 -1 -17 2 -14 8 7 11 22 12 29 1z m-1 -29 c-7 -2 -19 -2 -25 0
-7 3 -2 5 12 5 14 0 19 -2 13 -5z m-376 -65 c-3 -7 -5 -2 -5 12 0 14 2 19 5
13 2 -7 2 -19 0 -25z m400 -30 c-2 -13 -4 -3 -4 22 0 25 2 35 4 23 2 -13 2
-33 0 -45z m-820 20 c-3 -7 -5 -2 -5 12 0 14 2 19 5 13 2 -7 2 -19 0 -25z
m1150 10 c-3 -8 -6 -5 -6 6 -1 11 2 17 5 13 3 -3 4 -12 1 -19z m70 0 c-3 -8
-6 -5 -6 6 -1 11 2 17 5 13 3 -3 4 -12 1 -19z m-1620 -20 c-3 -7 -5 -2 -5 12
0 14 2 19 5 13 2 -7 2 -19 0 -25z m420 0 c-3 -7 -5 -2 -5 12 0 14 2 19 5 13 2
-7 2 -19 0 -25z m1150 0 c-3 -7 -5 -2 -5 12 0 14 2 19 5 13 2 -7 2 -19 0 -25z
m-420 -20 c-3 -7 -5 -2 -5 12 0 14 2 19 5 13 2 -7 2 -19 0 -25z m-770 -20 c-3
-7 -5 -2 -5 12 0 14 2 19 5 13 2 -7 2 -19 0 -25z m40 -20 c-3 -7 -5 -2 -5 12
0 14 2 19 5 13 2 -7 2 -19 0 -25z m416 -57 c9 -12 9 -13 0 -7 -12 6 -19 -17
-14 -46 0 -4 -7 -4 -16 -1 -9 4 -14 2 -10 -3 3 -5 -3 -10 -13 -10 -10 0 -16 5
-13 10 4 6 -1 6 -13 2 -10 -4 -16 -4 -12 -1 3 4 2 20 -2 36 -7 24 -5 31 12 40
11 6 29 9 39 6 16 -4 19 1 21 31 l1 37 4 -40 c3 -22 10 -46 16 -54z m714 57
c-3 -7 -5 -2 -5 12 0 14 2 19 5 13 2 -7 2 -19 0 -25z m70 0 c-3 -7 -5 -2 -5
12 0 14 2 19 5 13 2 -7 2 -19 0 -25z m-383 -57 c8 -12 8 -13 -1 -7 -12 6 -19
-17 -14 -46 0 -4 -7 -4 -16 -1 -9 4 -14 2 -10 -3 3 -5 -3 -10 -13 -10 -10 0
-16 5 -13 10 4 5 0 7 -8 4 -11 -4 -15 2 -16 21 0 14 1 19 4 9 5 -21 30 -31 50
-20 13 8 13 10 -1 15 -10 4 -15 3 -11 -3 3 -6 2 -10 -4 -10 -14 0 -32 35 -23
44 3 4 -1 4 -11 0 -13 -4 -16 -2 -11 9 3 10 17 14 40 13 24 -1 34 3 35 14 1 9
3 7 6 -5 3 -11 10 -26 17 -34z m-821 32 c3 6 6 2 6 -11 1 -16 -3 -21 -11 -16
-7 4 -10 4 -6 -1 9 -10 -9 -45 -23 -45 -6 0 -7 4 -4 10 4 6 -1 7 -11 3 -15 -5
-15 -7 2 -16 13 -8 22 -5 36 13 l18 22 -2 -25 c-2 -17 -7 -23 -17 -19 -10 4
-12 1 -7 -7 6 -8 -3 -7 -23 4 -17 9 -37 13 -43 9 -7 -5 -8 -3 -2 7 5 8 9 22 9
31 0 25 36 48 57 37 11 -6 18 -5 21 4z m1172 -13 c-18 -6 -17 -7 3 -12 14 -4
20 -2 16 4 -4 6 -1 9 7 6 8 -3 15 -10 15 -16 1 -7 2 -13 4 -14 7 -9 7 -37 -1
-33 -4 3 -23 -1 -40 -10 -17 -9 -28 -12 -25 -7 3 6 -1 12 -9 16 -8 3 -15 15
-15 26 0 12 -4 18 -10 15 -5 -3 -10 -4 -10 0 0 11 64 44 74 38 5 -4 1 -9 -9
-13z m373 -51 c10 -13 10 -18 -1 -22 -8 -3 -14 4 -15 21 -1 14 -1 24 1 21 1
-2 8 -11 15 -20z m-1506 -7 c-7 -2 -10 -8 -7 -12 3 -5 2 -11 -3 -14 -4 -2 -8
6 -8 19 0 16 4 21 15 17 10 -4 11 -7 3 -10z m654 -17 c-1 -13 -6 -28 -10 -32
-5 -5 -6 -2 -1 6 6 10 4 13 -7 9 -8 -4 -15 -1 -15 7 0 7 7 11 14 8 8 -3 13 -2
12 3 -2 12 0 24 4 24 2 0 3 -11 3 -25z m400 10 c-1 -8 -5 -17 -8 -21 -5 -4 -4
16 1 34 3 9 9 -1 7 -13z m399 -4 c3 -5 2 -12 -3 -15 -5 -3 -9 1 -9 9 0 17 3
19 12 6z m-1858 -16 c0 -8 -4 -12 -9 -9 -5 3 -6 10 -3 15 9 13 12 11 12 -6z
m639 -10 c1 -8 -1 -17 -5 -19 -4 -3 -7 6 -7 19 0 25 8 25 12 0z m-546 -10 c0
-2 -7 -1 -17 2 -9 4 -14 2 -10 -3 3 -5 -2 -10 -12 -10 -10 0 -18 6 -18 12 0 7
7 10 15 6 11 -4 13 -1 7 7 -6 10 -3 11 14 2 11 -7 21 -14 21 -16z m147 10 c0
-6 -8 -11 -17 -11 -9 0 -17 5 -17 11 0 6 8 11 17 11 9 0 17 -5 17 -11z m1570
0 c0 -8 -4 -12 -9 -9 -5 3 -6 10 -3 15 9 13 12 11 12 -6z m-1661 -4 c-3 -5 1
-11 9 -15 8 -3 15 -15 15 -26 0 -14 4 -19 12 -14 7 4 8 3 4 -5 -4 -6 -19 -17
-34 -25 -24 -12 -31 -11 -57 5 -16 11 -25 19 -18 19 6 0 10 8 8 18 -1 10 9 23
29 34 36 20 39 21 32 9z m339 -12 c-9 -13 2 -11 37 7 20 10 28 11 22 3 -5 -9
-2 -10 10 -6 11 5 15 3 10 -5 -5 -7 -2 -9 8 -5 14 5 17 -8 8 -33 -1 -3 -2 -8
-1 -12 0 -4 -12 -14 -27 -22 -24 -12 -30 -12 -47 0 -11 8 -21 24 -21 34 -1 11
-2 21 -4 23 -7 9 -6 36 1 31 5 -3 7 -10 4 -15z m890 -9 c3 0 4 4 1 8 -2 4 4 8
14 8 18 0 21 -19 5 -33 -4 -4 -5 -2 0 6 5 9 3 12 -6 9 -8 -3 -14 -14 -14 -26
0 -20 -45 -64 -45 -45 0 4 -5 1 -10 -7 -8 -12 -10 -12 -10 5 0 17 -2 17 -10 5
-8 -13 -10 -13 -11 3 -2 18 -5 35 -9 40 -6 8 -7 36 0 32 13 -8 41 6 34 17 -3
5 8 3 24 -6 17 -9 34 -16 37 -16z m401 -26 c-2 -22 -46 -76 -46 -56 0 5 -11
14 -25 20 -16 8 -23 17 -19 27 4 8 1 22 -6 30 -11 13 -10 14 5 9 13 -5 16 -4
11 4 -5 8 -1 10 10 5 12 -4 15 -3 10 5 -4 8 6 6 27 -4 25 -12 33 -22 33 -40z
m-804 32 c9 0 14 -5 10 -11 -4 -5 -7 -18 -8 -27 -1 -10 -2 -22 -3 -26 0 -4
-16 -8 -33 -9 -25 -2 -28 0 -14 6 19 7 19 8 -2 13 -12 4 -20 3 -18 -1 3 -4 1
-13 -5 -21 -7 -13 -9 -12 -10 3 -1 9 -2 25 -3 35 -1 9 -5 23 -10 31 -6 10 -5
12 2 7 7 -4 20 -2 29 3 10 6 25 8 33 4 8 -3 23 -6 32 -7z m-405 -113 c-3 -10
-5 -4 -5 12 0 17 2 24 5 18 2 -7 2 -21 0 -30z m-400 5 c-3 -8 -6 -5 -6 6 -1
11 2 17 5 13 3 -3 4 -12 1 -19z m-40 -50 c-2 -13 -4 -3 -4 22 0 25 2 35 4 23
2 -13 2 -33 0 -45z m1590 -5 c-2 -16 -4 -5 -4 22 0 28 2 40 4 28 2 -13 2 -35
0 -50z m-1570 25 c-3 -7 -5 -2 -5 12 0 14 2 19 5 13 2 -7 2 -19 0 -25z m750
-15 c-3 -10 -5 -2 -5 17 0 19 2 27 5 18 2 -10 2 -26 0 -35z m470 15 c-3 -8 -6
-5 -6 6 -1 11 2 17 5 13 3 -3 4 -12 1 -19z m-800 -30 c-3 -7 -5 -2 -5 12 0 14
2 19 5 13 2 -7 2 -19 0 -25z m1170 0 c-3 -7 -5 -2 -5 12 0 14 2 19 5 13 2 -7
2 -19 0 -25z m-820 -30 c-3 -8 -6 -5 -6 6 -1 11 2 17 5 13 3 -3 4 -12 1 -19z
m380 -10 c-3 -7 -5 -2 -5 12 0 14 2 19 5 13 2 -7 2 -19 0 -25z m20 0 c-3 -7
-5 -2 -5 12 0 14 2 19 5 13 2 -7 2 -19 0 -25z m-420 0 c-3 -8 -6 -5 -6 6 -1
11 2 17 5 13 3 -3 4 -12 1 -19z m70 0 c-3 -8 -6 -5 -6 6 -1 11 2 17 5 13 3 -3
4 -12 1 -19z m-800 -10 c-3 -8 -6 -5 -6 6 -1 11 2 17 5 13 3 -3 4 -12 1 -19z
m398 -20 c8 -5 11 -17 7 -30 -3 -12 -1 -19 4 -15 6 3 10 -5 10 -18 0 -13 -4
-21 -8 -19 -5 3 -5 10 -2 16 4 6 -1 8 -16 3 -15 -5 -20 -4 -16 4 5 7 1 8 -10
4 -14 -5 -15 -3 -5 15 10 18 9 22 -3 22 -8 0 -18 -5 -22 -12 -7 -11 7 -26 52
-55 11 -7 -2 -3 -27 8 -37 17 -46 26 -45 45 2 24 38 59 50 47 3 -3 7 2 7 13 1
18 2 18 6 -1 3 -11 11 -23 18 -27z m1153 11 c23 12 56 -12 58 -43 1 -31 -37
-51 -67 -36 -11 6 -23 9 -28 6 -4 -3 -8 1 -8 9 0 8 4 12 9 8 6 -3 9 3 8 13 -1
11 -1 33 0 49 2 25 4 26 7 8 3 -18 8 -21 21 -14z m-1550 -50 c-1 -28 -5 -36
-17 -31 -9 3 -12 1 -7 -6 4 -8 -6 -6 -27 4 -25 12 -33 22 -33 40 2 34 34 55
63 41 19 -9 23 -17 21 -48z m1207 11 c0 -10 8 -25 18 -32 18 -13 17 -14 -2
-14 -11 0 -17 4 -15 8 7 11 -4 10 -27 -2 -13 -8 -25 -7 -39 0 -14 7 -26 8 -39
0 -16 -8 -19 -7 -17 7 2 9 9 19 17 21 11 3 11 1 -1 -8 -13 -10 -13 -11 0 -7 8
2 15 14 15 26 0 33 42 54 70 35 11 -8 20 -23 20 -34z m-414 30 c10 -6 18 -14
18 -18 -1 -4 0 -9 1 -12 7 -20 7 -41 -2 -47 -7 -4 -8 -1 -3 7 6 10 4 11 -11 5
-10 -4 -26 -8 -34 -8 -8 0 -24 4 -34 8 -12 5 -17 5 -13 -1 3 -5 -3 -10 -13
-10 -18 0 -21 19 -5 33 4 4 5 2 0 -6 -5 -9 -3 -12 6 -9 8 3 15 14 15 26 1 12
2 26 3 30 2 12 50 13 72 2z m-725 -96 c0 -13 -2 -22 -5 -19 -3 3 -6 17 -7 31
0 13 2 22 5 19 3 -3 6 -17 7 -31z m234 29 c0 -1 -8 -7 -18 -12 -13 -7 -19 -6
-19 2 0 7 9 13 19 13 10 0 18 -1 18 -3z m165 -24 c-3 -14 0 -19 9 -16 7 3 13
-1 13 -9 0 -25 -31 3 -33 30 0 14 3 23 7 20 4 -2 6 -14 4 -25z m1192 16 c0 -6
-8 -11 -17 -11 -9 0 -17 5 -17 11 0 6 8 11 17 11 9 0 17 -5 17 -11z m-771 -31
c0 -13 -2 -22 -5 -19 -3 3 -6 17 -7 31 0 13 2 22 5 19 3 -3 6 -17 7 -31z m160
21 c-1 -8 -5 -17 -8 -21 -5 -4 -4 16 1 34 3 9 9 -1 7 -13z m247 -4 c-14 -11
-15 -34 0 -28 7 3 14 -1 14 -9 0 -25 -31 3 -32 29 -1 18 2 24 12 20 8 -3 11
-9 6 -12z m-1114 -8 c-12 -14 -12 -16 2 -11 12 5 15 -2 16 -36 0 -24 -1 -30
-4 -14 -6 38 -26 52 -53 38 -11 -6 -18 -16 -14 -22 4 -6 1 -9 -7 -6 -7 2 -14
16 -14 31 -1 14 2 24 7 21 4 -3 5 -10 2 -16 -5 -8 -1 -9 10 -5 10 4 20 7 22 7
3 0 2 4 -1 10 -3 5 0 7 8 4 8 -3 18 -1 22 5 3 6 9 11 12 11 3 0 -1 -8 -8 -17z
m45 5 c-5 -7 -2 -9 8 -6 8 4 15 1 15 -6 0 -6 -8 -12 -17 -12 -11 0 -16 7 -15
16 5 21 4 20 11 20 3 0 2 -5 -2 -12z m1242 -3 c-1 -8 -5 -17 -8 -21 -5 -4 -4
16 1 34 3 9 9 -1 7 -13z m-893 -9 c-4 -5 0 -7 8 -4 11 4 16 -3 17 -30 4 -51
-33 -69 -74 -36 -17 14 -17 15 -1 10 12 -4 16 -2 11 5 -4 8 1 9 17 4 16 -4 20
-3 11 3 -11 8 -11 10 2 15 10 4 16 -1 19 -16 4 -22 4 -22 6 -1 1 27 -21 46
-44 38 -11 -5 -13 -9 -5 -14 8 -5 7 -9 -4 -13 -12 -5 -15 0 -14 17 2 16 7 22
17 18 8 -3 12 -1 8 4 -3 5 3 10 13 10 10 0 16 -5 13 -10z m73 -3 c-1 -7 -6
-16 -11 -20 -4 -5 -5 -2 0 6 6 10 4 13 -7 9 -8 -4 -15 -1 -15 6 0 6 8 12 17
12 10 0 17 -6 16 -13z m327 3 c-4 -5 0 -7 8 -4 10 4 15 -2 17 -18 1 -13 2 -27
3 -31 6 -36 -46 -44 -82 -12 -13 11 -18 18 -11 14 10 -5 18 19 13 47 0 4 7 4
16 1 9 -4 14 -2 10 3 -3 5 3 10 13 10 10 0 16 -5 13 -10z m400 0 c-4 -5 1 -7
10 -3 9 3 16 3 16 -1 -4 -22 2 -32 14 -26 9 6 9 5 0 -8 -7 -8 -10 -17 -7 -21
11 -11 -38 -29 -62 -23 -22 6 -24 12 -22 45 1 30 5 38 17 33 8 -3 12 -1 8 4
-3 5 3 10 13 10 10 0 16 -5 13 -10z m333 -22 c1 -9 0 -13 -4 -10 -3 4 -7 14
-8 22 -1 9 0 13 4 10 3 -4 7 -14 8 -22z m-1528 -32 c4 -35 -12 -41 -49 -21
-20 10 -20 11 -2 24 10 8 14 15 8 15 -5 0 -3 5 5 10 23 15 35 6 38 -28z"/>
<path d="M782 1951 c-11 -6 -10 -10 5 -15 17 -7 17 -8 0 -21 -16 -12 -16 -13
-1 -19 18 -7 44 10 44 28 0 6 -5 4 -10 -4 -8 -13 -10 -12 -10 3 0 9 -6 17 -12
17 -9 0 -8 4 2 10 8 5 11 10 5 10 -5 0 -16 -4 -23 -9z"/>
<path d="M1170 1919 c0 -9 7 -19 15 -23 22 -8 45 4 45 23 0 9 -3 12 -8 6 -4
-5 -14 -10 -22 -10 -8 0 -18 5 -22 10 -5 6 -8 3 -8 -6z"/>
<path d="M1571 1934 c-1 -30 23 -49 46 -35 17 10 14 12 -19 15 -7 1 -16 10
-20 21 -6 19 -6 19 -7 -1z"/>
<path d="M174 1833 c-12 -12 -13 -18 -4 -21 9 -3 9 -6 0 -12 -8 -5 -8 -9 3
-13 12 -4 15 0 12 15 -3 12 0 27 6 35 16 19 3 16 -17 -4z"/>
<path d="M580 1840 c-10 -6 -11 -10 -2 -10 6 0 12 -5 12 -11 0 -5 -5 -7 -12
-3 -7 4 -8 3 -4 -4 4 -7 1 -12 -6 -12 -9 0 -9 -3 2 -10 8 -5 22 -9 30 -9 10 0
8 3 -5 9 -18 8 -18 9 -2 9 10 1 16 5 12 10 -3 5 -1 12 5 16 11 7 4 25 -8 25
-4 0 -14 -5 -22 -10z"/>
<path d="M1785 1840 c-4 -6 1 -7 11 -3 12 4 15 3 10 -5 -5 -8 -2 -10 9 -5 13
5 14 7 3 14 -17 11 -26 11 -33 -1z"/>
<path d="M1819 1818 c-8 -27 -5 -36 9 -30 10 4 12 7 4 10 -7 2 -10 8 -6 13 3
5 3 9 0 9 -3 0 -6 -1 -7 -2z"/>
<path d="M985 1841 c-7 -12 12 -24 25 -16 11 7 4 25 -10 25 -5 0 -11 -4 -15
-9z"/>
<path d="M975 1801 c2 -19 33 -27 47 -13 6 6 0 8 -19 6 -22 -3 -24 -2 -9 4 19
8 19 9 -1 14 -15 4 -20 1 -18 -11z"/>
<path d="M1386 1842 c-2 -4 4 -8 14 -8 10 0 16 4 14 8 -3 4 -9 8 -14 8 -5 0
-11 -4 -14 -8z"/>
<path d="M1405 1810 l-20 -9 20 -1 20 -1 -20 -9 c-13 -6 -15 -9 -5 -9 8 0 22
4 30 9 11 7 11 10 2 10 -7 0 -10 5 -7 10 7 11 7 11 -20 0z"/>
<path d="M1815 1600 c3 -6 -2 -10 -12 -11 -14 0 -12 -3 6 -10 13 -5 26 -7 29
-4 3 3 -1 5 -9 5 -11 0 -12 2 -1 9 11 7 10 9 -3 14 -9 4 -13 3 -10 -3z"/>
<path d="M1806 1558 c5 -8 1 -9 -12 -4 -14 5 -16 4 -7 -4 7 -8 17 -9 28 -3 16
9 16 10 1 16 -12 5 -15 3 -10 -5z"/>
<path d="M570 1600 c-11 -7 -11 -10 -2 -10 7 0 10 -5 6 -12 -4 -7 -3 -8 4 -4
7 4 12 2 12 -3 0 -6 -6 -11 -12 -11 -7 0 -5 -5 5 -11 14 -8 22 -8 30 1 9 8 7
9 -7 4 -16 -6 -17 -5 -7 14 10 19 9 22 -6 23 -16 0 -16 1 2 9 13 6 15 9 5 9
-8 0 -22 -4 -30 -9z"/>
<path d="M1405 1600 c19 -8 19 -9 1 -9 -11 -1 -16 -4 -13 -8 4 -3 2 -12 -4
-19 -14 -17 6 -28 28 -15 10 6 12 11 6 11 -7 0 -13 5 -13 11 0 5 5 7 12 3 7
-4 8 -3 4 4 -4 7 -1 12 6 12 9 0 9 3 -2 10 -8 5 -22 9 -30 9 -10 0 -8 -3 5 -9z"/>
<path d="M170 1600 c-13 -9 -13 -10 0 -10 13 0 13 -1 0 -11 -10 -7 -11 -9 -2
-7 8 2 13 8 12 13 -1 5 7 12 17 16 13 6 14 8 3 8 -8 0 -22 -4 -30 -9z"/>
<path d="M221 1584 c0 -11 3 -14 6 -6 3 7 2 16 -1 19 -3 4 -6 -2 -5 -13z"/>
<path d="M182 1561 c-11 -6 -10 -10 4 -15 9 -4 22 -2 28 4 8 8 6 9 -8 4 -13
-5 -17 -4 -12 4 8 14 6 15 -12 3z"/>
<path d="M1006 1558 c5 -8 1 -9 -12 -4 -14 5 -16 4 -7 -4 7 -8 17 -9 28 -3 16
9 16 10 1 16 -12 5 -15 3 -10 -5z"/>
<path d="M782 1491 c-11 -7 -10 -10 3 -15 9 -3 21 -4 26 0 5 3 9 0 9 -7 0 -7
3 -9 6 -6 7 7 -14 37 -25 37 -3 0 -12 -4 -19 -9z"/>
<path d="M1580 1485 c-7 -9 -10 -18 -6 -22 3 -3 6 -1 6 6 0 7 4 10 9 7 5 -4
17 -3 26 0 13 5 14 8 3 15 -18 12 -24 11 -38 -6z"/>
<path d="M1605 1440 c-16 -7 -17 -9 -3 -9 9 -1 20 4 23 9 7 11 7 11 -20 0z"/>
<path d="M378 1438 c5 -5 16 -8 23 -6 8 3 3 7 -10 11 -17 4 -21 3 -13 -5z"/>
<path d="M370 1250 c-13 -9 -13 -10 0 -10 12 0 12 -2 1 -9 -9 -6 -10 -11 -2
-15 6 -4 11 -2 11 4 0 6 4 9 9 5 5 -3 13 -1 16 5 4 6 1 9 -7 8 -7 -2 -12 3
-10 10 2 14 1 15 -18 2z"/>
<path d="M390 1200 c0 -5 5 -10 11 -10 5 0 7 5 4 10 -3 6 -8 10 -11 10 -2 0
-4 -4 -4 -10z"/>
<path d="M1380 1135 c-6 -8 -10 -22 -7 -32 4 -14 5 -14 6 4 0 12 9 27 19 32 9
6 12 11 6 11 -6 0 -17 -7 -24 -15z"/>
<path d="M1779 1133 c-11 -15 -11 -16 1 -5 21 18 32 14 18 -7 -7 -11 -16 -17
-20 -15 -4 3 -8 1 -8 -4 0 -6 7 -12 15 -16 10 -4 15 1 15 14 0 11 3 19 8 19 4
-1 14 -1 22 0 12 1 11 5 -4 16 -25 19 -31 19 -47 -2z"/>
<path d="M1791 905 c0 -12 5 -27 12 -34 10 -11 9 -13 -3 -9 -8 2 -17 15 -21
29 -6 22 -7 22 -8 3 -1 -30 23 -49 46 -35 11 6 13 11 5 11 -7 0 -10 5 -6 12 4
6 3 8 -4 4 -6 -3 -12 3 -15 16 -4 21 -4 21 -6 3z"/>
<path d="M1413 877 c1 -7 -6 -11 -15 -11 -10 1 -15 -2 -12 -7 7 -12 17 -11 38
4 17 12 17 14 3 20 -10 4 -16 2 -14 -6z"/>
<path d="M1340 866 c0 -2 7 -7 16 -10 8 -3 12 -2 9 4 -6 10 -25 14 -25 6z"/>
<path d="M374 785 c-14 -11 -15 -14 -4 -15 12 0 12 -2 2 -9 -11 -7 -11 -9 2
-14 9 -4 15 -1 13 6 -1 7 4 11 12 9 12 -3 12 0 1 12 -15 19 0 21 20 4 12 -11
12 -10 1 5 -16 21 -22 21 -47 2z"/>
<path d="M776 561 c-4 -5 3 -7 14 -4 23 6 26 13 6 13 -8 0 -17 -4 -20 -9z"/>
<path d="M820 529 c0 -5 -4 -8 -9 -5 -5 4 -17 3 -26 0 -15 -6 -15 -8 -2 -16
19 -10 47 0 47 18 0 8 -2 14 -5 14 -3 0 -5 -5 -5 -11z"/>
<path d="M379 568 c-3 -10 -7 -38 -5 -38 1 0 9 9 19 20 14 17 14 20 2 20 -8 0
-15 -1 -16 -2z"/>
<path d="M1570 534 c0 -22 28 -36 47 -25 17 10 14 12 -19 15 -7 1 -16 6 -20
11 -5 6 -8 6 -8 -1z"/>
<path d="M182 451 c-11 -7 -10 -9 3 -14 11 -5 14 -3 9 5 -5 8 -2 9 10 5 10 -4
15 -3 11 3 -7 12 -16 12 -33 1z"/>
<path d="M170 421 c13 -10 13 -11 0 -11 -13 0 -13 -1 0 -10 8 -5 22 -9 30 -9
11 0 10 2 -3 8 -10 4 -18 11 -17 16 1 5 -4 11 -12 13 -9 2 -8 0 2 -7z"/>
<path d="M580 450 c-10 -6 -11 -10 -2 -10 6 0 12 -5 12 -11 0 -5 -5 -7 -12 -3
-7 4 -8 3 -4 -4 4 -7 1 -12 -6 -12 -9 0 -9 -3 2 -10 8 -5 22 -9 30 -9 10 0 8
3 -5 9 -18 8 -18 9 -2 9 15 1 16 4 6 23 -10 18 -9 20 5 15 10 -4 15 -3 11 3
-8 12 -16 12 -35 0z"/>
<path d="M1385 451 c-3 -5 -1 -12 5 -16 6 -4 8 -11 5 -16 -4 -5 2 -9 12 -10
16 0 16 -1 -2 -10 -19 -8 -19 -9 -1 -6 11 1 20 10 22 20 1 9 -2 15 -7 11 -5
-3 -9 0 -9 5 0 6 6 11 13 11 8 0 7 4 -3 10 -19 12 -27 12 -35 1z"/>
<path d="M1785 450 c-4 -6 1 -7 11 -3 12 4 15 3 10 -5 -5 -8 -2 -10 9 -5 13 5
14 7 3 14 -17 11 -26 11 -33 -1z"/>
<path d="M1819 428 c-8 -27 -5 -36 9 -30 10 4 12 7 4 10 -7 2 -10 8 -6 13 3 5
3 9 0 9 -3 0 -6 -1 -7 -2z"/>
<path d="M982 451 c-11 -7 -10 -10 3 -15 20 -7 38 1 30 15 -7 11 -16 11 -33 0z"/>
<path d="M1006 421 c-19 -7 -19 -8 0 -13 13 -3 21 0 21 8 0 8 -1 14 -1 13 -1
0 -10 -4 -20 -8z"/>
<path d="M570 210 c-18 -12 -2 -12 25 0 13 6 15 9 5 9 -8 0 -22 -4 -30 -9z"/>
<path d="M1813 207 c1 -7 -4 -11 -11 -9 -8 1 -11 -2 -6 -9 5 -9 2 -10 -9 -6
-11 4 -14 2 -11 -8 7 -18 28 -25 45 -14 10 6 10 9 2 9 -7 0 -13 4 -13 10 0 5
8 7 18 4 13 -5 14 -4 3 4 -11 8 -11 10 0 14 9 3 8 6 -4 11 -10 4 -16 2 -14 -6z"/>
<path d="M170 210 c-13 -9 -13 -10 0 -10 12 0 12 -2 2 -9 -11 -6 -10 -11 3
-25 19 -18 31 -20 40 -6 4 6 -1 7 -11 3 -14 -5 -15 -3 -5 16 9 17 9 21 -1 19
-7 -2 -12 3 -10 10 2 14 1 15 -18 2z"/>
<path d="M1377 213 c-3 -5 8 -8 23 -8 15 0 26 3 23 8 -2 4 -13 7 -23 7 -10 0
-21 -3 -23 -7z"/>
<path d="M1385 171 c-9 -15 13 -23 32 -11 15 9 14 10 -6 4 -16 -4 -21 -3 -17
5 4 6 5 11 2 11 -3 0 -7 -4 -11 -9z"/>
<path d="M979 218 c-8 -28 -5 -35 14 -30 20 5 20 6 1 14 -15 7 -14 8 8 5 15
-2 25 0 22 4 -5 8 -43 13 -45 7z"/>
<path d="M1017 175 c-4 -8 -11 -15 -17 -15 -6 0 -8 4 -5 10 4 6 -1 7 -11 3
-15 -5 -15 -7 1 -16 12 -6 22 -5 33 7 9 8 13 18 10 21 -3 3 -8 -1 -11 -10z"/>
<path d="M1180 95 c-7 -9 -10 -18 -6 -22 3 -3 6 -2 6 4 0 13 32 12 42 -2 5 -6
8 -3 8 6 0 9 -7 20 -16 23 -21 8 -20 8 -34 -9z"/>
<path d="M1178 48 c5 -5 16 -8 23 -6 8 3 3 7 -10 11 -17 4 -21 3 -13 -5z"/>
<path d="M1582 98 c-7 -7 -12 -17 -12 -22 0 -6 5 -4 10 4 8 13 10 12 10 -2 0
-10 5 -18 11 -18 5 0 7 5 4 10 -3 6 1 13 10 16 13 6 14 8 3 15 -17 12 -22 11
-36 -3z"/>
<path d="M378 48 c5 -5 16 -8 23 -6 8 3 3 7 -10 11 -17 4 -21 3 -13 -5z"/>
<path d="M1992 1940 c0 -14 2 -19 5 -12 2 6 2 18 0 25 -3 6 -5 1 -5 -13z"/>
<path d="M1991 1444 c0 -11 3 -14 6 -6 3 7 2 16 -1 19 -3 4 -6 -2 -5 -13z"/>
<path d="M1 554 c0 -11 3 -14 6 -6 3 7 2 16 -1 19 -3 4 -6 -2 -5 -13z"/>
<path d="M35 110 c-3 -6 1 -7 9 -4 18 7 21 14 7 14 -6 0 -13 -4 -16 -10z"/>
<path d="M1992 60 c0 -14 2 -19 5 -12 2 6 2 18 0 25 -3 6 -5 1 -5 -13z"/>
</g>
</svg>
