<?xml version="1.0" standalone="no"?>
<!DOCTYPE svg PUBLIC "-//W3C//DTD SVG 20010904//EN"
 "http://www.w3.org/TR/2001/REC-SVG-20010904/DTD/svg10.dtd">
<svg version="1.0" xmlns="http://www.w3.org/2000/svg"
 width="200.000000pt" height="200.000000pt" viewBox="0 0 200.000000 200.000000"
 preserveAspectRatio="xMidYMid meet">
<metadata>
Created by potrace 1.16, written by Peter Selinger 2001-2019
</metadata>
<g transform="translate(0.000000,200.000000) scale(0.100000,-0.100000)"
fill="#000000" stroke="none">
<path d="M1 1760 c1 -176 4 -238 13 -233 6 3 6 0 -1 -8 -9 -9 -13 -54 -13
-149 0 -95 4 -140 13 -149 9 -11 9 -13 0 -7 -17 9 -17 -6 0 -23 9 -11 9 -12 0
-7 -10 6 -13 -98 -12 -499 0 -386 3 -504 12 -498 9 5 9 3 1 -8 -7 -8 -11 -47
-10 -94 l1 -80 189 -3 189 -2 -6 40 c-3 22 -1 43 5 46 6 4 5 10 -3 15 -21 13
-32 11 -25 -6 3 -8 2 -15 -3 -15 -15 0 -21 13 -10 26 8 9 -6 21 -56 49 -36 21
-64 40 -61 42 3 3 41 -15 84 -41 43 -25 83 -46 89 -46 6 0 47 21 92 47 79 46
81 49 81 85 0 21 5 38 11 38 6 0 10 -15 8 -32 -3 -54 0 -64 24 -76 12 -6 51
-27 86 -47 35 -20 66 -33 69 -30 7 7 9 5 -86 60 -46 26 -81 49 -79 51 2 3 36
-14 74 -36 75 -43 84 -46 81 -29 -2 6 9 12 25 13 34 2 34 0 0 -18 -25 -13 -26
-15 -9 -22 10 -4 21 -3 25 2 3 5 38 29 77 52 l72 41 1 98 c2 118 11 137 12 27
2 -144 4 -164 13 -164 15 0 7 234 -8 245 -7 6 -57 35 -109 65 -73 41 -94 57
-86 66 6 8 9 55 7 118 -1 57 1 108 5 113 5 4 7 -50 6 -121 l-1 -128 106 -59
c112 -62 116 -64 116 -51 0 5 -38 30 -85 56 -47 26 -95 56 -108 67 -12 10 16
-4 63 -31 86 -51 100 -56 100 -42 0 5 6 9 13 9 6 0 44 19 84 42 l71 42 4 57
c1 31 1 75 -2 96 -5 37 -10 43 -76 82 -43 25 -77 39 -84 34 -9 -6 -7 -11 6
-19 11 -6 14 -11 9 -11 -6 0 -16 5 -22 11 -9 9 -21 6 -50 -11 -21 -13 -53 -32
-70 -42 -18 -11 -33 -16 -33 -11 0 4 27 23 60 41 33 18 60 35 60 38 0 8 -34 0
-43 -11 -5 -6 -7 -4 -4 5 2 8 10 14 16 13 6 -2 12 9 12 25 1 17 3 21 6 9 4
-14 8 -16 19 -6 7 6 11 15 9 20 -6 9 34 34 42 25 9 -9 -8 -27 -19 -20 -7 5 -9
0 -5 -15 4 -16 1 -21 -10 -19 -9 2 -18 -3 -21 -11 -3 -11 0 -12 14 -6 21 9 42
10 63 4 8 -2 20 7 28 21 l13 25 0 -28 c0 -19 4 -26 12 -21 7 4 8 3 4 -4 -4 -6
-13 -9 -21 -5 -30 11 -14 -6 29 -31 47 -27 61 -32 51 -17 -3 5 -1 12 5 16 6 4
8 9 6 13 -2 4 7 7 20 7 22 0 23 -1 7 -13 -14 -10 -17 -31 -17 -129 l-1 -116
-93 -53 c-51 -28 -89 -55 -83 -59 6 -3 31 6 56 20 25 15 45 25 45 22 0 -3 -18
-16 -40 -28 -45 -25 -44 -47 1 -24 16 9 29 13 29 11 0 -3 -13 -12 -30 -21 -29
-15 -30 -18 -30 -88 0 -45 5 -78 13 -86 10 -11 10 -13 0 -7 -9 5 -13 -1 -13
-19 0 -18 4 -24 13 -19 9 6 8 3 -1 -9 -12 -13 -10 -18 7 -29 12 -7 21 -17 21
-22 0 -5 -9 -1 -19 8 -20 18 -58 18 -54 0 1 -6 -8 -10 -20 -9 -16 1 -22 8 -21
23 1 12 -1 22 -3 22 -3 0 -36 -19 -74 -41 -65 -39 -69 -43 -54 -59 11 -12 13
-20 6 -25 -6 -3 -11 1 -11 9 0 10 -9 16 -22 16 -21 -1 -22 -2 -5 -14 10 -8 17
-26 17 -45 l0 -31 586 0 c549 1 585 2 572 18 -12 16 -11 16 13 0 l26 -16 2
230 c1 138 -2 227 -8 224 -5 -3 -12 1 -15 10 -4 9 -13 14 -22 10 -8 -3 -12 -2
-9 4 12 19 -22 10 -68 -20 -26 -16 -52 -30 -57 -30 -6 0 -10 -43 -10 -101 0
-85 3 -104 18 -115 16 -13 16 -14 0 -8 -35 12 -17 -16 27 -42 25 -14 45 -28
45 -31 0 -3 -16 4 -35 16 -34 20 -38 20 -63 5 l-27 -16 25 21 c23 19 23 21 5
20 -11 0 -29 -6 -40 -15 -16 -12 -17 -17 -7 -23 11 -7 11 -9 -2 -14 -9 -4 -15
-3 -15 1 3 21 -5 20 -41 -3 -22 -14 -44 -25 -50 -25 -5 0 -10 -4 -10 -9 0 -5
-10 -11 -22 -14 -21 -6 -41 4 -155 71 -54 32 -80 31 -41 -1 l23 -19 -28 17
c-29 17 -63 14 -52 -6 4 -6 14 -8 24 -4 12 5 13 3 5 -5 -9 -9 -18 -8 -36 4
-14 9 -27 14 -30 11 -3 -3 -4 7 -3 22 0 15 6 28 12 30 6 2 10 -5 9 -16 0 -11
4 -21 9 -21 6 0 11 51 13 129 3 129 3 130 -22 143 -14 7 -51 28 -82 47 -57 33
-58 33 -93 16 -39 -18 -28 -1 11 19 22 11 23 17 26 135 2 76 -1 120 -7 117 -5
-4 -9 -56 -8 -117 l2 -111 -47 -24 c-58 -29 -64 -24 -8 7 l39 22 3 116 3 115
65 37 c36 21 70 41 75 46 6 4 25 16 43 26 32 18 34 18 60 1 15 -10 29 -19 32
-19 3 0 23 -12 45 -26 70 -45 107 -61 117 -51 5 5 -3 15 -22 24 -24 12 -28 17
-16 21 9 4 16 2 16 -4 0 -5 11 -14 24 -20 20 -9 32 -7 72 17 27 15 57 34 66
42 10 8 29 14 42 14 14 0 27 6 29 12 2 6 3 3 1 -7 -1 -10 5 -21 14 -25 9 -3
41 -21 70 -39 29 -19 58 -31 64 -27 7 4 8 3 4 -4 -4 -7 -3 -12 2 -12 16 0 10
54 -7 67 -15 12 -14 12 2 7 16 -6 17 5 17 146 0 118 -3 150 -12 144 -10 -6
-10 -4 -2 7 17 22 18 703 2 693 -10 -6 -11 -4 0 7 16 17 16 42 0 33 -10 -6
-10 -4 0 7 21 22 13 30 -13 13 -22 -15 -23 -18 -10 -28 14 -10 14 -12 -4 -12
-11 0 -17 4 -15 8 12 19 -26 5 -81 -30 l-60 -38 -74 43 c-83 49 -97 54 -93 34
2 -11 -2 -10 -22 3 -14 9 -31 16 -38 16 -10 0 -13 14 -12 50 l2 50 -173 0
-172 0 1 -50 c2 -51 0 -55 -28 -44 -21 8 -21 54 -1 54 9 0 15 9 15 21 0 18 -2
19 -15 9 -10 -9 -15 -9 -15 -1 0 6 -3 11 -7 11 -14 0 -8 -87 7 -105 13 -16 12
-17 -5 -14 -10 2 -22 13 -25 25 -5 19 -8 18 -68 -17 -43 -25 -58 -38 -47 -42
18 -7 20 -33 3 -43 -7 -5 -8 -3 -3 6 5 8 3 11 -6 8 -10 -3 -15 -29 -17 -95 -3
-85 -2 -92 17 -98 12 -3 21 -11 21 -18 0 -8 -3 -8 -12 1 -20 20 -31 14 -24
-13 5 -20 1 -27 -26 -41 -30 -16 -31 -17 -13 -30 10 -8 14 -14 9 -14 -6 0 -15
5 -21 11 -8 8 -29 1 -77 -26 -61 -34 -82 -55 -55 -55 8 0 8 -4 -1 -14 -7 -9
-10 -40 -9 -75 1 -34 -1 -64 -4 -68 -4 -3 -7 -1 -7 5 0 7 -4 12 -10 12 -19 0
-10 -28 11 -33 12 -3 18 -10 15 -16 -3 -5 1 -16 9 -24 20 -20 19 -28 -2 -20
-10 4 -14 2 -10 -4 5 -7 -1 -9 -15 -5 -12 3 -17 7 -10 10 14 4 16 52 2 52 -5
0 -10 -9 -10 -19 0 -14 -20 -31 -70 -58 -39 -21 -68 -43 -66 -50 5 -12 -35
-43 -54 -43 -6 0 -53 25 -105 55 -51 30 -98 55 -104 55 -6 0 -11 5 -11 10 0 6
-5 10 -10 10 -13 0 -174 -92 -178 -103 -2 -4 -8 -4 -14 -1 -5 3 35 31 88 63
54 31 99 62 102 69 2 6 -35 -10 -83 -38 -48 -27 -90 -50 -95 -50 -5 0 -10 -5
-12 -12 -3 -9 -6 -9 -12 0 -4 7 -2 12 4 12 6 0 8 5 4 12 -4 7 -3 8 4 4 14 -9
75 22 67 34 -3 5 0 12 6 16 8 4 9 3 5 -4 -10 -16 -1 -15 35 3 17 9 27 21 23
27 -4 7 -3 8 4 4 6 -4 21 -1 32 6 19 12 21 21 19 110 -1 54 1 98 5 98 4 0 8
-56 8 -125 l2 -125 45 -24 c26 -13 66 -35 91 -48 24 -12 50 -30 56 -38 10 -12
16 -12 39 -2 15 7 25 16 21 19 -3 4 -11 2 -18 -5 -8 -8 -18 -7 -37 7 -14 10
-30 20 -36 22 -5 2 -40 22 -77 44 -59 34 -68 43 -68 68 0 15 4 26 9 23 5 -3 7
-14 4 -25 -4 -14 10 -27 64 -56 148 -83 121 -78 194 -34 35 21 74 43 87 48 12
6 22 15 22 21 0 11 -84 -32 -143 -72 -15 -11 -33 -17 -40 -15 -7 3 -4 8 8 13
53 23 175 100 175 112 0 9 -8 8 -32 -4 -30 -15 -32 -15 -20 -1 8 9 22 19 33
22 16 5 19 16 19 66 0 43 -3 58 -12 53 -6 -4 -8 -3 -5 3 6 10 -59 55 -148 102
-22 11 -33 21 -25 21 8 0 44 -18 80 -39 48 -29 66 -36 68 -25 3 10 8 11 22 4
10 -6 21 -6 24 -2 3 5 -39 34 -92 65 -92 53 -98 55 -120 41 -13 -9 -26 -13
-29 -10 -3 3 2 8 11 12 10 4 17 19 17 43 2 30 3 31 6 9 2 -16 8 -28 13 -28 4
0 47 -23 94 -51 47 -27 91 -47 98 -43 6 4 8 3 4 -4 -9 -15 15 -21 39 -10 19 9
19 9 1 -6 -10 -8 -24 -17 -30 -19 -6 -2 -8 -8 -4 -12 9 -9 138 62 138 77 0 5
-8 8 -17 4 -15 -5 -15 -4 1 7 42 27 61 46 54 53 -4 4 -14 1 -23 -6 -20 -16
-25 -11 -14 15 4 11 8 15 8 8 1 -7 8 -10 16 -7 19 8 22 173 3 192 -9 9 -9 12
-1 12 7 0 15 -4 18 -10 8 -13 25 -13 25 0 0 5 -18 19 -40 30 -22 11 -40 22
-40 25 0 6 30 -6 67 -27 19 -11 34 -15 37 -9 4 5 2 12 -4 16 -5 3 -10 4 -10 1
0 -2 -39 19 -87 48 -60 36 -88 58 -89 72 -1 11 1 13 3 3 4 -15 122 -89 143
-89 5 0 10 -4 10 -10 0 -17 14 -12 89 31 62 36 71 45 71 70 l0 29 -180 0 -180
0 0 -30 c0 -17 5 -30 13 -30 9 0 8 -3 -2 -9 -7 -5 -11 -13 -7 -19 3 -6 1 -14
-5 -18 -7 -4 -9 -3 -5 4 17 27 -17 17 -100 -32 -87 -50 -91 -52 -116 -37 -14
9 -56 33 -93 54 -36 22 -64 41 -62 44 3 3 37 -14 75 -36 71 -41 99 -51 86 -29
-4 7 -3 8 4 4 6 -4 25 0 42 9 31 16 42 32 15 21 -22 -8 -18 2 6 15 15 8 19 8
15 0 -12 -19 8 -12 67 25 94 59 84 65 -113 64 -168 -2 -170 -2 -170 -24 0 -12
6 -28 13 -36 10 -12 9 -12 -5 -1 -10 7 -18 24 -18 37 l0 24 -215 0 -215 0 1
-240z m52 200 c3 -11 1 -18 -4 -14 -5 3 -9 12 -9 20 0 20 7 17 13 -6z m251 8
c-5 -8 -2 -9 9 -5 23 9 21 0 -2 -13 -16 -8 -19 -7 -16 8 5 23 4 22 11 22 3 0
2 -5 -2 -12z m160 -4 c3 -8 2 -12 -4 -9 -6 3 -10 10 -10 16 0 14 7 11 14 -7z
m351 6 c3 -5 1 -10 -4 -10 -6 0 -11 5 -11 10 0 6 2 10 4 10 3 0 8 -4 11 -10z
m-558 -35 c0 -8 -4 -12 -9 -9 -5 3 -6 10 -3 15 9 13 12 11 12 -6z m1293 -14
c-8 -16 -5 -23 15 -39 20 -16 22 -21 9 -26 -8 -3 -12 -2 -9 3 19 32 -53 12
-89 -24 -14 -14 -16 -14 -16 -1 0 8 -8 17 -17 20 -10 4 -29 16 -43 27 -14 11
-19 18 -12 14 7 -4 21 -1 30 7 15 12 16 11 3 -4 -11 -15 -11 -19 3 -24 9 -3
23 -1 30 5 11 9 16 9 22 0 4 -7 3 -9 -4 -5 -6 3 -13 2 -16 -3 -4 -5 -2 -12 3
-15 13 -9 82 34 75 45 -8 13 3 39 16 39 7 0 8 -6 0 -19z m-640 -47 c0 -2 -13
2 -30 11 -16 9 -30 18 -30 21 0 2 14 -2 30 -11 17 -9 30 -18 30 -21z m448 -8
l27 16 -24 -21 c-13 -12 -21 -21 -18 -21 3 0 13 -3 23 -7 11 -4 15 -3 10 5
-11 18 9 23 30 7 18 -14 18 -14 -3 -15 -15 0 -23 -6 -23 -17 -1 -16 -2 -16
-13 -3 -7 8 -34 26 -60 40 -27 14 -54 32 -60 40 -7 7 10 2 36 -13 46 -25 50
-26 75 -11z m-1158 -2 c0 -2 -9 0 -20 6 -11 6 -20 13 -20 16 0 2 9 0 20 -6 11
-6 20 -13 20 -16z m407 20 c-3 -3 -12 -4 -19 -1 -8 3 -5 6 6 6 11 1 17 -2 13
-5z m330 -81 c-3 -10 -5 -4 -5 12 0 17 2 24 5 18 2 -7 2 -21 0 -30z m513 33
c0 -12 -48 -55 -53 -49 -13 12 -7 22 21 37 31 17 32 18 32 12z m295 -15 c3 -5
1 -12 -4 -15 -5 -3 -11 1 -15 9 -6 16 9 21 19 6z m-1175 -16 c19 -23 8 -25
-14 -4 -11 11 -15 19 -9 19 6 0 16 -7 23 -15z m-12 -114 l-2 -96 -3 90 c-3 79
-6 92 -26 108 l-22 18 28 -12 c27 -12 27 -12 25 -108z m782 94 c0 -14 -2 -25
-4 -25 -2 0 -6 11 -8 25 -3 14 -1 25 3 25 5 0 9 -11 9 -25z m140 21 c0 -3 -4
-8 -10 -11 -5 -3 -10 -1 -10 4 0 6 5 11 10 11 6 0 10 -2 10 -4z m365 -6 c-3
-5 -11 -10 -16 -10 -6 0 -7 5 -4 10 3 6 11 10 16 10 6 0 7 -4 4 -10z m-470
-20 c3 -5 1 -10 -4 -10 -6 0 -11 5 -11 10 0 6 2 10 4 10 3 0 8 -4 11 -10z m70
0 c-3 -5 -11 -10 -16 -10 -6 0 -7 5 -4 10 3 6 11 10 16 10 6 0 7 -4 4 -10z
m310 -6 c14 -9 25 -20 25 -26 0 -5 -6 -4 -12 2 -7 6 -22 17 -33 25 -28 20 -10
19 20 -1z m55 6 c0 -5 -2 -10 -4 -10 -3 0 -8 5 -11 10 -3 6 -1 10 4 10 6 0 11
-4 11 -10z m-403 -60 c0 -28 -2 -49 -4 -46 -8 8 -12 96 -4 96 5 0 8 -23 8 -50z
m437 35 c-4 -8 -10 -12 -15 -9 -11 6 -2 24 11 24 5 0 7 -7 4 -15z m-34 -11 c0
-8 -5 -12 -10 -9 -6 4 -8 11 -5 16 9 14 15 11 15 -7z m-1563 -16 c-3 -8 -6 -5
-6 6 -1 11 2 17 5 13 3 -3 4 -12 1 -19z m1090 -20 c-3 -7 -5 -2 -5 12 0 14 2
19 5 13 2 -7 2 -19 0 -25z m-1180 -10 c-3 -8 -6 -5 -6 6 -1 11 2 17 5 13 3 -3
4 -12 1 -19z m420 -10 c-3 -7 -5 -2 -5 12 0 14 2 19 5 13 2 -7 2 -19 0 -25z
m360 -10 c-3 -8 -6 -5 -6 6 -1 11 2 17 5 13 3 -3 4 -12 1 -19z m903 -29 c0
-11 -4 -18 -10 -14 -5 3 -7 12 -3 20 7 21 13 19 13 -6z m-1683 -11 c-3 -8 -6
-5 -6 6 -1 11 2 17 5 13 3 -3 4 -12 1 -19z m1253 12 c0 -5 -4 -10 -10 -10 -5
0 -10 5 -10 10 0 6 5 10 10 10 6 0 10 -4 10 -10z m-30 -10 c0 -5 -5 -10 -11
-10 -5 0 -7 5 -4 10 3 6 8 10 11 10 2 0 4 -4 4 -10z m400 0 c0 -5 -5 -10 -11
-10 -5 0 -7 5 -4 10 3 6 8 10 11 10 2 0 4 -4 4 -10z m-435 -9 c3 -6 -4 -15
-15 -21 -19 -10 -20 -10 -8 9 15 24 15 24 23 12z m130 -11 c3 -5 2 -10 -4 -10
-5 0 -13 5 -16 10 -3 6 -2 10 4 10 5 0 13 -4 16 -10z m266 -22 c-4 -27 -6 -29
-9 -10 -2 14 -8 20 -15 15 -7 -4 -6 1 2 10 21 26 28 20 22 -15z m134 22 c3 -6
-1 -7 -9 -4 -18 7 -21 14 -7 14 6 0 13 -4 16 -10z m-465 -25 c0 -14 -6 -25
-12 -25 -7 0 -22 -7 -32 -15 -20 -15 -20 -15 0 -31 10 -8 13 -13 6 -9 -7 4
-21 1 -30 -7 -15 -12 -16 -11 -3 5 23 29 -8 21 -73 -18 -63 -38 -66 -39 -66
-27 0 4 28 21 61 37 34 17 64 36 66 42 3 7 8 11 12 9 4 -3 20 6 37 20 29 25
29 25 4 19 -24 -6 -24 -5 -6 9 28 22 36 20 36 -9z m406 13 c5 -8 2 -9 -9 -5
-9 3 -19 2 -22 -3 -4 -6 -12 -10 -18 -10 -7 0 -3 7 7 15 24 18 33 19 42 3z
m21 -20 c-3 -7 -5 -2 -5 12 0 14 2 19 5 13 2 -7 2 -19 0 -25z m-402 12 c3 -5
1 -10 -4 -10 -6 0 -11 5 -11 10 0 6 2 10 4 10 3 0 8 -4 11 -10z m-1194 -17
c13 -16 12 -17 -3 -4 -10 7 -18 15 -18 17 0 8 8 3 21 -13z m869 -9 c0 -2 -9 0
-20 6 -11 6 -20 13 -20 16 0 2 9 0 20 -6 11 -6 20 -13 20 -16z m227 4 c-3 -8
-6 -5 -6 6 -1 11 2 17 5 13 3 -3 4 -12 1 -19z m130 0 c-3 -8 -6 -5 -6 6 -1 11
2 17 5 13 3 -3 4 -12 1 -19z m-1253 -15 c11 -13 16 -23 13 -23 -10 0 -37 31
-37 42 0 6 1 9 3 7 1 -2 11 -14 21 -26z m836 2 c0 -8 -9 -19 -19 -25 -25 -13
-42 -13 -18 1 9 5 17 19 17 30 0 11 5 17 10 14 6 -3 10 -13 10 -20z m230 20
c0 -2 -10 -9 -22 -15 -22 -11 -22 -10 -4 4 21 17 26 19 26 11z m530 -5 c0 -5
-5 -10 -11 -10 -5 0 -7 5 -4 10 3 6 8 10 11 10 2 0 4 -4 4 -10z m65 -1 c11
-17 -1 -21 -15 -4 -8 9 -8 15 -2 15 6 0 14 -5 17 -11z m-1312 -36 c-26 -14
-74 -41 -105 -59 -32 -18 -58 -30 -58 -26 1 11 193 121 203 115 4 -3 -13 -16
-40 -30z m-33 22 c0 -2 -10 -9 -22 -15 -22 -11 -22 -10 -4 4 21 17 26 19 26
11z m930 -15 c14 -11 21 -19 15 -18 -5 1 -20 -3 -32 -10 -17 -10 -22 -9 -27 4
-4 10 -12 14 -24 9 -13 -5 -14 -3 -6 5 9 9 17 8 32 -1 27 -17 43 -2 18 17 -11
8 -16 14 -10 14 5 0 20 -9 34 -20z m386 8 c4 -6 3 -8 -4 -4 -6 3 -14 0 -19 -8
-6 -11 -13 -12 -23 -6 -13 8 -12 10 3 10 9 0 17 5 17 10 0 14 17 13 26 -2z
m-1121 -61 c6 -6 -12 2 -40 18 -27 15 -54 32 -60 38 -5 6 13 -2 40 -18 28 -15
55 -32 60 -38z m1029 48 c-4 -10 0 -15 12 -15 16 0 17 -2 4 -10 -10 -6 -16 -6
-18 0 -2 6 -11 10 -20 10 -15 1 -14 3 2 15 25 19 27 19 20 0z m-649 -4 c3 -5
2 -12 -3 -15 -5 -3 -9 1 -9 9 0 17 3 19 12 6z m99 -4 c-3 -8 -11 -14 -19 -14
-21 0 -19 15 3 20 9 3 18 5 19 6 1 0 0 -5 -3 -12z m406 3 c0 -5 -4 -10 -10
-10 -5 0 -10 5 -10 10 0 6 5 10 10 10 6 0 10 -4 10 -10z m265 0 c3 -5 1 -10
-4 -10 -6 0 -11 5 -11 10 0 6 2 10 4 10 3 0 8 -4 11 -10z m-1605 -6 c0 -8 -19
-13 -24 -6 -3 5 1 9 9 9 8 0 15 -2 15 -3z m210 1 c0 -2 -13 -11 -30 -20 -38
-19 -40 -11 -2 9 31 17 32 18 32 11z m410 0 c0 -2 -10 -9 -22 -15 -22 -11 -22
-10 -4 4 21 17 26 19 26 11z m240 -9 c0 -2 -8 -10 -17 -17 -16 -13 -17 -12 -4
4 13 16 21 21 21 13z m419 -7 c10 16 18 15 35 -6 13 -17 15 -17 33 0 21 18 33
22 33 10 0 -15 -53 -34 -64 -23 -17 17 -34 11 -44 -17 -9 -24 -11 -25 -11 -7
-1 12 -11 29 -23 38 -23 16 -22 16 5 4 22 -9 30 -9 36 1z m312 -6 c13 -16 12
-17 -3 -5 -9 8 -23 10 -29 6 -8 -4 -9 -3 -5 4 10 17 21 15 37 -5z m119 7 c0
-5 -7 -10 -15 -10 -8 0 -17 -11 -21 -25 -3 -14 -10 -22 -15 -20 -11 7 1 37 20
52 20 15 31 16 31 3z m-828 -12 c-7 -7 -12 -20 -12 -31 0 -10 -4 -16 -9 -13
-17 11 0 56 22 56 8 0 8 -3 -1 -12z m78 2 c0 -5 -5 -10 -11 -10 -5 0 -7 5 -4
10 3 6 8 10 11 10 2 0 4 -4 4 -10z m180 -4 c0 -2 -7 -7 -16 -10 -8 -3 -12 -2
-9 4 6 10 25 14 25 6z m264 -11 c-4 -8 -10 -13 -14 -10 -5 3 -11 1 -15 -5 -8
-13 -25 -13 -25 1 0 5 4 8 9 5 5 -3 14 1 21 9 16 19 31 19 24 0z m140 7 c3 -5
-1 -9 -9 -9 -8 0 -15 4 -15 9 0 4 4 8 9 8 6 0 12 -4 15 -8z m-1404 -6 c0 -3
-4 -8 -10 -11 -5 -3 -10 -1 -10 4 0 6 5 11 10 11 6 0 10 -2 10 -4z m775 -20
c-14 -21 -14 -24 0 -29 8 -4 23 -4 33 -1 15 5 15 4 -2 -10 -16 -13 -21 -13
-41 0 -13 8 -22 20 -21 27 3 21 17 37 32 37 12 0 12 -3 -1 -24z m409 -1 c11
-8 15 -15 10 -15 -6 0 -19 7 -30 15 -10 8 -14 14 -9 14 6 0 19 -6 29 -14z
m391 5 c3 -5 2 -10 -4 -10 -5 0 -13 5 -16 10 -3 6 -2 10 4 10 5 0 13 -4 16
-10z m-715 -15 c-7 -8 -18 -15 -24 -15 -6 0 -2 7 8 15 25 19 32 19 16 0z m410
0 c-7 -9 -15 -13 -19 -10 -3 3 1 10 9 15 21 14 24 12 10 -5z m-87 -21 c9 -4
17 -10 17 -15 0 -14 -13 -10 -40 12 -14 11 -18 18 -10 15 8 -3 23 -9 33 -12z
m39 -6 c-7 -7 -12 -8 -12 -2 0 6 3 14 7 17 3 4 9 5 12 2 2 -3 -1 -11 -7 -17z
m343 11 c11 -16 1 -19 -13 -3 -7 8 -8 14 -3 14 5 0 13 -5 16 -11z m-1932 -14
c-3 -9 -8 -14 -10 -11 -3 3 -2 9 2 15 9 16 15 13 8 -4z m1096 -12 c0 -25 -1
-25 -8 -8 -5 11 -7 23 -4 28 8 14 13 7 12 -20z m131 2 c-7 -8 -18 -15 -24 -15
-6 0 -2 7 8 15 25 19 32 19 16 0z m410 0 c-7 -8 -18 -15 -24 -15 -6 0 -2 7 8
15 25 19 32 19 16 0z m306 -32 c-3 -3 -12 0 -20 6 -8 7 -20 10 -26 6 -5 -3
-10 1 -10 10 0 14 3 14 31 0 17 -9 28 -19 25 -22z m-776 14 c23 1 24 0 6 -12
-16 -12 -22 -12 -42 2 -28 18 -32 29 -6 17 9 -4 28 -7 42 -7z m421 -10 c-10
-9 -11 -8 -5 6 3 10 9 15 12 12 3 -3 0 -11 -7 -18z m-1224 -69 c-2 -18 -4 -6
-4 27 0 33 2 48 4 33 2 -15 2 -42 0 -60z m1130 50 c-3 -7 -5 -2 -5 12 0 14 2
19 5 13 2 -7 2 -19 0 -25z m64 22 c5 0 9 -4 9 -10 0 -14 -13 -12 -36 6 -17 14
-17 15 -1 10 10 -3 23 -6 28 -6z m-1564 -37 c-3 -10 -5 -4 -5 12 0 17 2 24 5
18 2 -7 2 -21 0 -30z m710 0 c-3 -10 -5 -4 -5 12 0 17 2 24 5 18 2 -7 2 -21 0
-30z m470 -35 c-3 -7 -5 -2 -5 12 0 14 2 19 5 13 2 -7 2 -19 0 -25z m720 10
c-3 -8 -6 -5 -6 6 -1 11 2 17 5 13 3 -3 4 -12 1 -19z m-800 -30 c-3 -7 -5 -2
-5 12 0 14 2 19 5 13 2 -7 2 -19 0 -25z m-800 0 c-3 -8 -6 -5 -6 6 -1 11 2 17
5 13 3 -3 4 -12 1 -19z m893 -14 c0 -4 -7 -3 -16 0 -8 3 -25 1 -37 -5 -22 -12
-22 -12 -3 9 14 17 23 19 37 11 11 -5 19 -12 19 -15z m380 4 c0 -18 -2 -20 -9
-8 -6 8 -7 18 -5 22 9 14 14 9 14 -14z m-1573 -25 c-3 -10 -5 -4 -5 12 0 17 2
24 5 18 2 -7 2 -21 0 -30z m1526 18 c19 9 18 7 -3 -10 -32 -26 -39 -26 -32 1
3 12 7 17 10 10 3 -9 9 -9 25 -1z m82 -1 c3 -5 2 -10 -4 -10 -5 0 -13 5 -16
10 -3 6 -2 10 4 10 5 0 13 -4 16 -10z m335 0 c0 -5 -5 -10 -11 -10 -5 0 -7 5
-4 10 3 6 8 10 11 10 2 0 4 -4 4 -10z m-720 -10 c0 -5 -2 -10 -4 -10 -3 0 -8
5 -11 10 -3 6 -1 10 4 10 6 0 11 -4 11 -10z m-116 -15 c-4 -8 -10 -12 -15 -9
-11 6 -2 24 11 24 5 0 7 -7 4 -15z m801 5 c-3 -5 -11 -10 -16 -10 -6 0 -7 5
-4 10 3 6 11 10 16 10 6 0 7 -4 4 -10z m-1500 -10 c3 -5 1 -10 -4 -10 -6 0
-11 5 -11 10 0 6 2 10 4 10 3 0 8 -4 11 -10z m795 -11 l25 -20 -30 14 c-39 18
-64 12 -58 -14 6 -22 14 -24 30 -8 8 8 13 8 18 0 3 -6 3 -10 -2 -9 -4 1 -19
-4 -32 -11 -14 -8 -21 -9 -17 -2 4 6 2 11 -3 11 -6 0 -10 8 -8 18 7 46 36 54
77 21z m-130 6 c0 -2 -10 -9 -22 -15 -22 -11 -22 -10 -4 4 21 17 26 19 26 11z
m550 -15 c14 -11 21 -20 15 -20 -5 0 -21 9 -35 20 -14 11 -20 20 -15 20 6 0
21 -9 35 -20z m320 10 c0 -5 -5 -10 -11 -10 -5 0 -7 5 -4 10 3 6 8 10 11 10 2
0 4 -4 4 -10z m-1486 -27 c4 -11 1 -11 -14 -3 -24 13 -25 17 -5 17 8 0 16 -6
19 -14z m651 0 c-3 -22 22 -53 44 -54 11 0 12 -2 3 -6 -7 -3 -19 0 -27 7 -8 6
-20 8 -27 4 -7 -4 -10 -4 -6 0 4 5 3 18 -2 31 -8 22 -5 35 11 35 4 0 6 -8 4
-17z m405 13 c0 -3 -4 -8 -10 -11 -5 -3 -10 -1 -10 4 0 6 5 11 10 11 6 0 10
-2 10 -4z m100 -31 c0 -2 -8 -2 -17 -1 -10 0 -17 -4 -16 -10 1 -7 -3 -11 -10
-10 -7 0 -12 -3 -12 -9 0 -5 5 -9 11 -9 6 1 11 -4 11 -10 0 -7 -8 -12 -18 -12
-10 0 -15 4 -13 8 3 5 -2 11 -11 14 -14 6 -14 8 1 19 31 22 -3 26 -40 4 -48
-28 -46 -17 2 12 56 35 65 37 90 21 12 -8 22 -16 22 -17z m294 22 c-3 -8 -11
-14 -19 -14 -11 0 -12 4 -4 14 6 7 15 13 20 13 5 0 6 -6 3 -13z m-1039 -40 c4
5 5 2 1 -4 -5 -10 -11 -10 -26 0 -11 6 -20 16 -20 21 0 5 8 2 18 -7 10 -10 22
-14 27 -10z m359 14 c3 -5 -2 -8 -12 -7 -9 0 -16 -4 -15 -11 2 -7 -4 -10 -12
-6 -13 5 -13 7 2 19 21 16 30 17 37 5z m556 -17 c0 -2 -9 0 -20 6 -11 6 -20
13 -20 16 0 2 9 0 20 -6 11 -6 20 -13 20 -16z m140 21 c0 -2 -10 -9 -22 -15
-22 -11 -22 -10 -4 4 21 17 26 19 26 11z m-1180 -15 c0 -5 -5 -10 -11 -10 -5
0 -7 5 -4 10 3 6 8 10 11 10 2 0 4 -4 4 -10z m236 -1 c3 -6 15 -9 25 -6 12 3
17 1 12 -6 -4 -6 0 -8 10 -4 9 3 19 1 23 -5 4 -7 3 -8 -4 -4 -8 5 -12 -2 -12
-21 l0 -28 -13 24 c-6 13 -15 22 -19 20 -4 -2 -14 5 -23 16 -14 19 -16 19 -28
3 -8 -10 -17 -15 -20 -11 -4 3 -7 -1 -7 -11 0 -11 -4 -14 -12 -10 -8 5 -9 2
-5 -9 8 -22 -7 -22 -24 0 -10 11 -10 14 -1 9 7 -4 12 -1 12 9 0 10 -5 13 -12
9 -7 -4 -8 -3 -4 4 4 6 14 8 23 5 10 -4 14 -2 10 4 -5 7 0 9 12 6 10 -3 22 0
25 6 4 6 11 11 16 11 5 0 12 -5 16 -11z m400 0 c3 -6 15 -9 25 -6 10 3 17 0
16 -7 -1 -6 6 -10 15 -10 26 2 13 -11 -33 -35 -40 -21 -42 -21 -68 -4 -14 10
-29 16 -33 15 -5 -1 -8 3 -8 8 0 15 8 12 40 -10 28 -20 29 -20 60 -1 20 12 28
21 20 26 -6 4 -14 4 -17 1 -3 -3 -11 2 -18 10 -10 14 -15 14 -33 3 -16 -10
-24 -11 -33 -2 -9 9 -7 11 8 7 12 -3 24 -1 27 5 4 6 11 11 16 11 5 0 12 -5 16
-11z m245 -2 c-6 -8 -8 -17 -4 -21 4 -4 0 -4 -10 0 -17 6 -17 7 0 20 23 17 28
18 14 1z m-1071 -11 c0 -9 -7 -12 -20 -9 -30 8 -32 18 -4 21 15 1 24 -4 24
-12z m530 8 c0 -8 -19 -13 -24 -6 -3 5 1 9 9 9 8 0 15 -2 15 -3z m645 -18
c-18 -13 -18 -14 4 -25 13 -7 21 -15 18 -18 -4 -3 -25 5 -56 25 -6 3 32 31 43
32 6 0 1 -6 -9 -14z m85 10 c0 -2 -7 -7 -16 -10 -8 -3 -12 -2 -9 4 6 10 25 14
25 6z m135 -6 c3 -6 -1 -7 -9 -4 -18 7 -21 14 -7 14 6 0 13 -4 16 -10z m-435
-5 c0 -2 -10 -9 -22 -15 -22 -11 -22 -10 -4 4 21 17 26 19 26 11z m330 -10
c-7 -8 -18 -15 -24 -15 -6 0 -2 7 8 15 25 19 32 19 16 0z m-859 -5 c20 -11 25
-35 9 -45 -6 -4 -7 1 -3 11 4 12 3 15 -5 10 -7 -4 -12 -14 -12 -22 0 -17 -5
-17 -30 -4 -21 11 -21 37 1 51 18 11 17 11 40 -1z m801 -3 c20 -16 27 -49 10
-54 -8 -3 -10 1 -5 13 5 14 3 16 -12 11 -15 -6 -16 -5 -6 7 10 11 8 17 -6 25
-10 6 -13 10 -8 10 6 0 17 -5 27 -12z m-1667 -7 c3 -6 -1 -7 -9 -4 -18 7 -21
14 -7 14 6 0 13 -4 16 -10z m1185 -20 c0 -5 -2 -10 -4 -10 -3 0 -8 5 -11 10
-3 6 -1 10 4 10 6 0 11 -4 11 -10z m140 6 c0 -3 -4 -8 -10 -11 -5 -3 -10 -1
-10 4 0 6 5 11 10 11 6 0 10 -2 10 -4z m265 -6 c3 -5 2 -10 -4 -10 -5 0 -13 5
-16 10 -3 6 -2 10 4 10 5 0 13 -4 16 -10z m-1615 -26 c0 -2 -9 0 -20 6 -11 6
-20 13 -20 16 0 2 9 0 20 -6 11 -6 20 -13 20 -16z m31 9 c13 -16 12 -17 -3 -4
-10 7 -18 15 -18 17 0 8 8 3 21 -13z m62 2 c-3 -9 -8 -14 -10 -11 -3 3 -2 9 2
15 9 16 15 13 8 -4z m714 -17 c-3 -8 -6 -5 -6 6 -1 11 2 17 5 13 3 -3 4 -12 1
-19z m141 8 c-7 -8 -15 -12 -17 -11 -5 6 10 25 20 25 5 0 4 -6 -3 -14z m367 4
c-3 -5 -11 -10 -16 -10 -6 0 -7 5 -4 10 3 6 11 10 16 10 6 0 7 -4 4 -10z
m-1250 -113 c-3 -121 -3 -117 -12 -117 -5 0 -7 52 -5 115 2 64 7 113 12 110 5
-3 7 -51 5 -108z m-48 -34 c-2 -27 -3 -5 -3 47 0 52 1 74 3 48 2 -27 2 -69 0
-95z m877 112 c-24 -18 -26 -18 -50 0 -18 14 -17 14 12 9 19 -4 34 -1 39 6 4
6 10 9 13 6 3 -4 -3 -13 -14 -21z m716 15 c0 -5 -2 -10 -4 -10 -3 0 -8 5 -11
10 -3 6 -1 10 4 10 6 0 11 -4 11 -10z m70 0 c0 -5 -2 -10 -4 -10 -3 0 -8 5
-11 10 -3 6 -1 10 4 10 6 0 11 -4 11 -10z m53 -9 c-13 -11 -23 -25 -23 -33 0
-11 -2 -11 -9 1 -6 9 -11 10 -15 2 -4 -6 -12 -9 -17 -5 -6 3 9 16 33 29 53 28
59 29 31 6z m-488 -11 c3 -5 2 -10 -4 -10 -5 0 -13 5 -16 10 -3 6 -2 10 4 10
5 0 13 -4 16 -10z m70 0 c-3 -5 -11 -10 -16 -10 -6 0 -7 5 -4 10 3 6 11 10 16
10 6 0 7 -4 4 -10z m330 -1 c11 -16 1 -19 -13 -3 -7 8 -8 14 -3 14 5 0 13 -5
16 -11z m-365 -19 c0 -5 -2 -10 -4 -10 -3 0 -8 5 -11 10 -3 6 -1 10 4 10 6 0
11 -4 11 -10z m-803 -32 c-3 -7 -5 -2 -5 12 0 14 2 19 5 13 2 -7 2 -19 0 -25z
m460 10 c-3 -8 -6 -5 -6 6 -1 11 2 17 5 13 3 -3 4 -12 1 -19z m770 -80 c-2
-13 -4 -5 -4 17 -1 22 1 32 4 23 2 -10 2 -28 0 -40z m-1190 20 c-3 -8 -6 -5
-6 6 -1 11 2 17 5 13 3 -3 4 -12 1 -19z m1145 -20 c-14 -4 -28 -5 -31 -2 -3 3
5 7 17 11 12 3 22 13 23 22 0 12 2 11 8 -4 7 -16 3 -21 -17 -27z m-725 -10
c-3 -7 -5 -2 -5 12 0 14 2 19 5 13 2 -7 2 -19 0 -25z m356 -2 c25 -19 21 -26
-8 -13 -14 7 -25 15 -25 20 0 11 13 8 33 -7z m-43 -5 c0 -5 -7 -12 -16 -15
-14 -5 -15 -4 -4 9 14 17 20 19 20 6z m495 -2 c11 -17 -1 -21 -15 -4 -8 9 -8
15 -2 15 6 0 14 -5 17 -11z m-1300 -39 c-3 -6 1 -10 9 -10 9 0 16 5 16 11 0 5
5 7 10 4 15 -9 7 -17 -37 -40 -21 -10 -69 -37 -106 -58 -37 -22 -70 -38 -72
-36 -2 3 36 27 85 54 88 50 88 50 84 85 -3 28 -2 31 7 17 5 -9 7 -22 4 -27z
m1235 30 c0 -5 -5 -10 -11 -10 -5 0 -7 5 -4 10 3 6 8 10 11 10 2 0 4 -4 4 -10z
m-1645 -10 c-3 -5 -16 -15 -28 -21 -19 -9 -19 -8 3 10 28 23 34 26 25 11z
m482 -12 c-3 -8 -6 -5 -6 6 -1 11 2 17 5 13 3 -3 4 -12 1 -19z m837 -7 c-2 -3
-12 3 -22 13 -16 17 -16 18 5 5 12 -7 20 -15 17 -18z m296 20 c0 -5 -7 -12
-16 -15 -14 -5 -15 -4 -4 9 14 17 20 19 20 6z m-740 -25 c0 -18 -17 -29 -30
-21 -8 5 -7 11 1 21 15 18 29 18 29 0z m845 -6 c3 -5 2 -10 -4 -10 -5 0 -13 5
-16 10 -3 6 -2 10 4 10 5 0 13 -4 16 -10z m-1350 -10 c-3 -5 -12 -10 -18 -10
-7 0 -6 4 3 10 19 12 23 12 15 0z m115 0 c0 -5 -7 -13 -15 -18 -12 -6 -8 -12
20 -25 37 -17 61 -15 49 5 -4 7 -2 8 5 4 9 -6 9 -11 1 -21 -9 -10 -7 -16 9
-24 24 -13 34 -14 26 -2 -3 5 -2 12 2 14 5 3 9 -7 9 -23 l2 -28 -73 44 c-73
44 -95 52 -95 34 0 -5 5 -10 10 -10 16 0 159 -84 160 -93 0 -5 -19 4 -42 18
-24 15 -66 38 -95 51 -49 24 -54 24 -83 9 -17 -9 -28 -20 -25 -25 4 -6 -1 -7
-11 -3 -13 5 -15 3 -9 -7 5 -9 4 -11 -4 -6 -6 4 -23 0 -36 -8 -14 -9 -25 -13
-25 -9 0 8 107 74 165 103 17 8 32 18 33 22 5 11 22 10 22 -2z m-347 -85 c26
-15 47 -31 47 -36 0 -4 -15 2 -33 14 -18 12 -54 33 -80 47 -26 14 -47 29 -47
33 0 5 15 0 33 -11 17 -11 53 -32 80 -47z m1672 45 c3 -6 -1 -7 -9 -4 -18 7
-21 14 -7 14 6 0 13 -4 16 -10z m-1128 -7 c-4 -3 -1 -13 6 -22 10 -14 10 -14
-5 -3 -9 8 -23 11 -30 7 -7 -4 -4 1 6 9 19 16 36 22 23 9z m-547 -89 c0 -2 -9
0 -20 6 -11 6 -20 13 -20 16 0 2 9 0 20 -6 11 -6 20 -13 20 -16z m-229 -16
c-3 -21 -6 -26 -9 -15 -3 17 3 47 11 47 2 0 1 -15 -2 -32z m340 9 c-10 -9 -11
-8 -5 6 3 10 9 15 12 12 3 -3 0 -11 -7 -18z m-318 -2 c-3 -9 -8 -14 -10 -11
-3 3 -2 9 2 15 9 16 15 13 8 -4z m748 -5 c-22 -19 -41 -26 -41 -15 0 5 51 34
60 34 3 0 -6 -9 -19 -19z m-404 -52 c-3 -8 -6 -5 -6 6 -1 11 2 17 5 13 3 -3 4
-12 1 -19z m-370 -70 c-3 -7 -5 -2 -5 12 0 14 2 19 5 13 2 -7 2 -19 0 -25z
m665 -20 c-6 -6 -7 0 -4 19 5 21 7 23 10 9 2 -10 0 -22 -6 -28z m-290 7 c3
-13 1 -22 -3 -19 -9 5 -13 44 -5 44 2 0 6 -11 8 -25z m401 -5 c3 -11 1 -18 -4
-14 -5 3 -9 12 -9 20 0 20 7 17 13 -6z m-687 -36 c1 -9 0 -13 -4 -10 -3 4 -7
14 -8 22 -1 9 0 13 4 10 3 -4 7 -14 8 -22z m404 -20 c0 -2 -9 0 -20 6 -11 6
-20 13 -20 16 0 2 9 0 20 -6 11 -6 20 -13 20 -16z m41 -22 c-7 -2 -18 1 -23 6
-8 8 -4 9 13 5 13 -4 18 -8 10 -11z m99 3 c0 -2 -10 -9 -22 -15 -22 -11 -22
-10 -4 4 21 17 26 19 26 11z m430 -20 c0 -2 -10 -9 -22 -15 -22 -11 -22 -10
-4 4 21 17 26 19 26 11z m-480 -9 c0 -2 -15 -13 -33 -24 -25 -14 -34 -16 -34
-6 0 7 3 11 6 9 4 -2 17 3 31 11 28 15 30 16 30 10z m40 -11 c0 -2 -10 -9 -22
-15 -22 -11 -22 -10 -4 4 21 17 26 19 26 11z m1185 -25 c-3 -5 -11 -10 -16
-10 -6 0 -7 5 -4 10 3 6 11 10 16 10 6 0 7 -4 4 -10z m-1291 -88 c-7 -67 -12
-63 -16 12 -2 53 -1 63 9 50 7 -9 10 -35 7 -62z m761 68 c3 -5 2 -10 -4 -10
-5 0 -13 5 -16 10 -3 6 -2 10 4 10 5 0 13 -4 16 -10z m495 0 c0 -5 -5 -10 -11
-10 -5 0 -7 5 -4 10 3 6 8 10 11 10 2 0 4 -4 4 -10z m-1734 -25 c-1 -8 -5 -17
-8 -21 -5 -4 -4 16 1 34 3 9 9 -1 7 -13z m1766 -10 c-2 -14 -6 -25 -8 -25 -2
0 -4 11 -4 25 0 14 4 25 9 25 4 0 6 -11 3 -25z m-32 -5 c0 -5 -5 -10 -11 -10
-5 0 -7 5 -4 10 3 6 8 10 11 10 2 0 4 -4 4 -10z m-1593 -72 c-2 -13 -4 -5 -4
17 -1 22 1 32 4 23 2 -10 2 -28 0 -40z m20 30 c-3 -8 -6 -5 -6 6 -1 11 2 17 5
13 3 -3 4 -12 1 -19z m1600 -70 c-3 -8 -6 -5 -6 6 -1 11 2 17 5 13 3 -3 4 -12
1 -19z m-523 -30 c-10 -16 -22 -7 -17 13 4 15 8 17 14 8 4 -7 5 -17 3 -21z
m-706 6 c12 -8 22 -20 22 -26 0 -6 -8 -4 -18 5 -10 10 -21 15 -24 12 -3 -3 -8
1 -11 10 -8 19 3 19 31 -1z m-357 -11 c13 -16 12 -17 -3 -4 -10 7 -18 15 -18
17 0 8 8 3 21 -13z m1594 8 c3 -5 1 -12 -4 -15 -5 -3 -11 1 -15 9 -6 16 9 21
19 6z m-1324 -14 c-19 -19 -145 -87 -160 -86 -12 1 -12 2 3 6 15 4 16 7 5 15
-11 8 -10 9 4 4 20 -7 61 16 50 28 -4 4 1 4 11 0 13 -5 17 -4 13 3 -4 6 1 10
11 9 9 0 16 4 15 11 -2 8 4 10 14 6 9 -4 14 -2 10 3 -3 5 3 10 14 10 10 0 15
-4 10 -9z m149 -22 c0 -12 -19 -12 -23 0 -4 9 -1 12 9 8 7 -3 14 -7 14 -8z
m1181 -12 c13 -15 12 -15 -8 -4 -24 12 -29 21 -14 21 5 0 15 -7 22 -17z m-671
-34 c0 -5 -4 -8 -9 -5 -5 3 -14 -1 -21 -9 -7 -8 -19 -15 -26 -15 -8 0 -14 -4
-14 -10 0 -13 33 -13 47 1 8 8 17 8 32 0 21 -12 29 -41 11 -41 -5 0 -10 6 -10
13 0 7 -9 13 -20 14 -11 1 -20 -4 -20 -13 0 -20 -4 -18 -63 21 -28 19 -46 35
-39 35 7 0 20 -5 30 -11 14 -9 25 -7 52 9 41 24 50 26 50 11z m67 4 c-4 -3 0
-14 8 -23 13 -14 12 -17 -5 -28 -17 -10 -20 -10 -20 3 0 14 -12 19 -32 16 -20
-3 -5 16 20 26 35 14 37 14 29 6z m-366 -20 c13 -16 12 -17 -3 -4 -10 7 -18
15 -18 17 0 8 8 3 21 -13z m950 -10 c13 -16 12 -17 -3 -4 -18 13 -54 8 -44 -7
2 -4 -3 -8 -13 -8 -10 0 -18 6 -18 12 0 7 6 10 13 7 6 -2 15 0 19 6 9 16 31
13 46 -6z m119 6 c0 -5 -4 -8 -9 -4 -6 3 -14 -3 -20 -12 -5 -10 -13 -15 -16
-11 -9 9 16 37 33 38 6 0 12 -5 12 -11z m-1121 -23 c9 -10 9 -16 1 -21 -13 -8
-42 14 -34 26 8 13 20 11 33 -5z m1121 -16 c0 -5 -2 -10 -4 -10 -3 0 -8 5 -11
10 -3 6 -1 10 4 10 6 0 11 -4 11 -10z m-435 -10 c3 -5 2 -10 -4 -10 -5 0 -13
5 -16 10 -3 6 -2 10 4 10 5 0 13 -4 16 -10z m115 -10 c-24 -19 -40 -25 -40
-15 0 5 51 34 60 34 3 0 -6 -8 -20 -19z m280 10 c0 -5 -2 -10 -4 -10 -3 0 -8
5 -11 10 -3 6 -1 10 4 10 6 0 11 -4 11 -10z m-730 -16 c0 -8 -4 -12 -10 -9 -5
3 -10 10 -10 16 0 5 5 9 10 9 6 0 10 -7 10 -16z m49 -15 c-34 -26 -47 -23 -18
4 13 13 28 21 33 19 5 -3 -2 -13 -15 -23z m-904 11 c3 -5 2 -10 -4 -10 -5 0
-13 5 -16 10 -3 6 -2 10 4 10 5 0 13 -4 16 -10z m790 0 c3 -5 2 -10 -4 -10 -5
0 -13 5 -16 10 -3 6 -2 10 4 10 5 0 13 -4 16 -10z m830 -1 c11 -17 -1 -21 -15
-4 -8 9 -8 15 -2 15 6 0 14 -5 17 -11z m-275 -4 c0 -2 -10 -9 -22 -15 -22 -11
-22 -10 -4 4 21 17 26 19 26 11z m-491 -31 c14 -12 -19 -1 -35 12 -18 14 -18
14 6 3 14 -6 27 -13 29 -15z m336 17 c3 -5 1 -12 -4 -15 -5 -3 -11 1 -15 9 -6
16 9 21 19 6z m-1198 -23 c-3 -8 -6 -5 -6 6 -1 11 2 17 5 13 3 -3 4 -12 1 -19z
m1298 2 c-3 -5 -11 -10 -16 -10 -6 0 -7 5 -4 10 3 6 11 10 16 10 6 0 7 -4 4
-10z"/>
<path d="M1591 1221 c-10 -7 -10 -10 -1 -16 6 -4 16 -3 22 3 13 13 -4 23 -21
13z"/>
<path d="M983 1131 c-10 -16 -9 -20 3 -25 9 -3 12 -1 9 4 -3 6 -1 10 4 10 6 0
11 7 11 15 0 21 -13 19 -27 -4z"/>
<path d="M1260 125 c7 -9 15 -13 17 -11 7 7 -7 26 -19 26 -6 0 -6 -6 2 -15z"/>
<path d="M1589 1965 c-6 -40 -4 -53 7 -43 3 3 4 23 2 44 l-3 39 -6 -40z"/>
<path d="M1616 1992 c-8 -14 0 -66 11 -69 6 -2 10 13 10 37 -1 37 -9 51 -21
32z"/>
<path d="M1651 1952 l-1 -47 62 -33 c64 -33 97 -42 66 -18 -15 11 -14 14 15
30 l32 18 -24 -20 c-24 -19 -15 -40 12 -27 6 4 3 -1 -7 -9 -38 -31 -8 -30 43
2 3 1 -3 8 -13 15 -16 12 -16 13 3 13 11 0 17 -4 15 -8 -11 -18 24 -6 76 25
50 30 55 37 58 71 3 36 2 38 -13 22 -21 -20 -32 -21 -15 -1 11 13 -6 15 -147
15 l-160 0 -2 -48z m324 -12 c-3 -5 -12 -10 -18 -10 -7 0 -6 4 3 10 19 12 23
12 15 0z m-35 -15 c0 -8 -4 -15 -10 -15 -5 0 -7 7 -4 15 4 8 8 15 10 15 2 0 4
-7 4 -15z"/>
<path d="M682 1899 c-46 -27 -88 -49 -93 -49 -5 0 -9 -4 -9 -10 0 -5 5 -10 10
-10 15 0 190 103 190 112 0 13 -12 8 -98 -43z"/>
<path d="M1190 1941 c0 -6 5 -13 10 -16 6 -3 10 1 10 9 0 9 -4 16 -10 16 -5 0
-10 -4 -10 -9z"/>
<path d="M1605 1900 c3 -5 10 -10 16 -10 5 0 9 5 9 10 0 6 -7 10 -16 10 -8 0
-12 -4 -9 -10z"/>
<path d="M980 1715 c0 -43 4 -75 10 -75 6 0 10 32 10 75 0 43 -4 75 -10 75 -6
0 -10 -32 -10 -75z"/>
<path d="M983 1610 c4 -14 -2 -25 -19 -36 -34 -23 -30 -37 6 -19 23 12 30 22
30 45 0 17 -5 30 -11 30 -6 0 -9 -9 -6 -20z"/>
<path d="M750 1462 c0 -5 7 -16 16 -23 14 -12 16 -11 13 5 -4 20 -29 35 -29
18z"/>
<path d="M790 1435 c0 -8 5 -15 10 -15 6 0 10 7 10 15 0 8 -4 15 -10 15 -5 0
-10 -7 -10 -15z"/>
<path d="M790 1360 c0 -27 5 -50 10 -50 6 0 10 23 10 50 0 28 -4 50 -10 50 -5
0 -10 -22 -10 -50z"/>
<path d="M1375 866 c-11 -6 -50 -28 -86 -48 l-66 -37 1 -117 1 -117 83 -48 83
-48 57 30 c37 19 49 23 34 10 -12 -11 -28 -21 -35 -24 -6 -2 -9 -8 -5 -12 4
-4 30 7 58 24 28 17 54 31 59 31 6 0 9 56 8 127 -2 106 -5 128 -17 128 -9 0
-14 9 -13 21 2 15 -13 28 -65 54 -81 42 -73 40 -97 26z m37 -18 c-9 -9 -15 -9
-24 0 -9 9 -7 12 12 12 19 0 21 -3 12 -12z m-44 -17 c10 -6 9 -10 -7 -14 -21
-5 -36 5 -24 17 8 8 15 7 31 -3z m110 -9 c12 -7 22 -18 22 -25 0 -7 -4 -6 -10
3 -5 8 -10 11 -10 5 0 -5 -5 -2 -11 7 -5 9 -16 15 -23 12 -8 -3 -17 -1 -20 4
-8 13 24 9 52 -6z m-63 -12 c-3 -5 -12 -10 -18 -10 -7 0 -6 4 3 10 19 12 23
12 15 0z m130 -80 c3 -6 -1 -7 -9 -4 -18 7 -21 14 -7 14 6 0 13 -4 16 -10z
m15 -145 c0 -2 -10 -9 -22 -15 -22 -11 -22 -10 -4 4 21 17 26 19 26 11z m-11
-61 c-6 -8 -18 -14 -27 -14 -13 0 -12 3 4 19 21 21 41 17 23 -5z m-149 -50 c0
-2 -9 0 -20 6 -11 6 -20 13 -20 16 0 2 9 0 20 -6 11 -6 20 -13 20 -16z"/>
<path d="M1706 818 c-74 -44 -89 -58 -92 -80 -1 -16 2 -28 8 -28 7 0 6 -5 -1
-14 -15 -17 -9 -158 7 -164 5 -1 12 3 15 10 2 7 3 5 2 -4 -2 -11 12 -26 40
-43 45 -26 71 -32 60 -15 -4 6 1 7 11 3 11 -4 13 -8 6 -11 -16 -5 -5 -22 14
-22 9 0 12 5 8 12 -4 6 -3 8 4 4 6 -3 28 3 48 15 27 15 34 16 25 5 -20 -23 4
-21 45 5 l33 20 23 -20 c32 -30 37 -26 35 24 -1 25 -3 45 -5 45 -2 0 -13 -5
-25 -10 -22 -10 -22 -10 1 6 12 9 22 23 22 31 0 11 -5 11 -22 3 l-23 -11 22
19 c18 16 22 31 24 92 l2 73 -35 21 c-116 68 -149 86 -156 86 -4 0 -48 -24
-96 -52z m94 22 c-21 -16 -22 -18 -5 -27 15 -9 15 -11 1 -16 -9 -4 -15 -2 -13
3 1 5 -7 16 -18 24 -16 13 -16 15 -3 10 11 -4 20 0 23 8 3 8 13 15 21 15 12 0
10 -5 -6 -17z m45 -18 c-3 -3 -11 0 -18 7 -9 10 -8 11 6 5 10 -3 15 -9 12 -12z
m-95 -7 c0 -2 -10 -9 -22 -15 -22 -11 -22 -10 -4 4 21 17 26 19 26 11z m195
-45 c3 -5 1 -10 -4 -10 -6 0 -11 5 -11 10 0 6 2 10 4 10 3 0 8 -4 11 -10z
m-285 -4 c0 -3 -4 -8 -10 -11 -5 -3 -10 -1 -10 4 0 6 5 11 10 11 6 0 10 -2 10
-4z m320 -16 c0 -5 -2 -10 -4 -10 -3 0 -8 5 -11 10 -3 6 -1 10 4 10 6 0 11 -4
11 -10z m-333 -32 c-3 -8 -6 -5 -6 6 -1 11 2 17 5 13 3 -3 4 -12 1 -19z m298
12 c3 -5 2 -10 -4 -10 -5 0 -13 5 -16 10 -3 6 -2 10 4 10 5 0 13 -4 16 -10z
m-8 -62 c-3 -8 -6 -5 -6 6 -1 11 2 17 5 13 3 -3 4 -12 1 -19z m-287 -80 c0
-18 -2 -20 -9 -8 -6 8 -7 18 -5 22 9 14 14 9 14 -14z m287 -10 c-3 -7 -5 -2
-5 12 0 14 2 19 5 13 2 -7 2 -19 0 -25z m3 -37 c0 -11 -9 -21 -22 -24 -21 -5
-21 -5 -5 7 9 7 17 18 17 25 0 6 2 11 5 11 3 0 5 -8 5 -19z m45 -22 c-4 -5
-13 -9 -22 -9 -13 0 -13 3 -3 15 13 15 35 11 25 -6z m-180 -27 c-3 -3 -11 0
-18 7 -9 10 -8 11 6 5 10 -3 15 -9 12 -12z"/>
<path d="M1568 770 c19 -18 21 -28 16 -90 -3 -44 -1 -70 6 -70 6 0 10 32 10
80 0 68 -3 81 -19 90 -31 16 -37 12 -13 -10z"/>
<path d="M1586 591 c-4 -7 -5 -15 -2 -18 9 -9 19 4 14 18 -4 11 -6 11 -12 0z"/>
<path d="M1586 551 c-4 -7 -5 -15 -2 -18 9 -9 19 4 14 18 -4 11 -6 11 -12 0z"/>
<path d="M1220 522 c0 -5 26 -22 58 -38 31 -17 69 -38 83 -47 20 -14 32 -15
53 -8 34 13 34 25 0 17 -20 -5 -44 4 -104 39 -83 47 -90 50 -90 37z"/>
<path d="M1565 499 c-98 -52 -143 -80 -149 -94 -3 -8 0 -15 6 -15 9 0 9 -3 0
-12 -7 -7 -12 -33 -12 -58 0 -25 5 -51 12 -58 9 -9 9 -12 0 -12 -19 0 -14 -28
7 -35 11 -3 25 -13 33 -23 12 -15 11 -15 -14 1 -33 21 -39 21 -32 2 4 -8 10
-15 15 -15 6 0 22 -8 37 -18 15 -11 51 -33 80 -51 l54 -31 28 20 c15 11 32 20
37 20 5 0 32 16 62 35 29 19 56 35 60 35 4 0 8 14 8 30 0 26 -3 29 -21 25 -20
-6 -20 -5 2 12 21 17 23 25 20 96 -4 76 -4 77 24 90 15 6 28 15 28 19 0 15
-26 8 -49 -13 l-22 -21 -67 40 c-50 30 -70 37 -80 30 -9 -8 -16 -8 -25 1 -9
10 -8 11 6 6 10 -4 17 -2 17 4 0 17 -21 13 -65 -10z m35 -21 c0 -4 -7 -8 -15
-8 -8 0 -15 4 -15 8 0 5 7 9 15 9 8 0 15 -4 15 -9z m146 -56 c-4 -3 -14 2 -24
12 -16 18 -16 18 6 6 13 -6 21 -14 18 -18z m34 -12 c0 -5 -2 -10 -4 -10 -3 0
-8 5 -11 10 -3 6 -1 10 4 10 6 0 11 -4 11 -10z m-320 -4 c0 -3 -4 -8 -10 -11
-5 -3 -10 -1 -10 4 0 6 5 11 10 11 6 0 10 -2 10 -4z m285 -16 c3 -5 2 -10 -4
-10 -5 0 -13 5 -16 10 -3 6 -2 10 4 10 5 0 13 -4 16 -10z m35 -20 c0 -5 -2
-10 -4 -10 -3 0 -8 5 -11 10 -3 6 -1 10 4 10 6 0 11 -4 11 -10z m-325 -130 c3
-5 1 -10 -4 -10 -6 0 -11 5 -11 10 0 6 2 10 4 10 3 0 8 -4 11 -10z m290 -10
c-3 -5 -11 -10 -16 -10 -6 0 -7 5 -4 10 3 6 11 10 16 10 6 0 7 -4 4 -10z m35
-20 c0 -5 -5 -10 -11 -10 -5 0 -7 5 -4 10 3 6 8 10 11 10 2 0 4 -4 4 -10z
m-35 -9 c3 -5 1 -12 -5 -16 -5 -3 -10 1 -10 9 0 18 6 21 15 7z m-135 -45 c0
-3 -4 -8 -10 -11 -5 -3 -10 -1 -10 4 0 6 5 11 10 11 6 0 10 -2 10 -4z m-30
-26 c0 -5 -7 -10 -15 -10 -8 0 -15 5 -15 10 0 6 7 10 15 10 8 0 15 -4 15 -10z
m70 0 c0 -5 -7 -10 -16 -10 -8 0 -12 5 -9 10 3 6 10 10 16 10 5 0 9 -4 9 -10z
m-45 -20 c3 -5 1 -10 -4 -10 -6 0 -11 5 -11 10 0 6 2 10 4 10 3 0 8 -4 11 -10z"/>
<path d="M1380 401 c0 -6 5 -13 10 -16 6 -3 10 1 10 9 0 9 -4 16 -10 16 -5 0
-10 -4 -10 -9z"/>
<path d="M990 335 c0 -37 4 -65 10 -65 6 0 10 28 10 65 0 37 -4 65 -10 65 -6
0 -10 -28 -10 -65z"/>
<path d="M1380 320 c0 -27 5 -50 10 -50 6 0 10 23 10 50 0 28 -4 50 -10 50 -5
0 -10 -22 -10 -50z"/>
<path d="M990 245 c0 -8 5 -15 10 -15 6 0 10 7 10 15 0 8 -4 15 -10 15 -5 0
-10 -7 -10 -15z"/>
<path d="M1387 253 c-8 -15 -6 -73 4 -78 5 -4 9 14 9 39 0 44 -4 55 -13 39z"/>
<path d="M990 205 c0 -8 5 -15 10 -15 6 0 10 7 10 15 0 8 -4 15 -10 15 -5 0
-10 -7 -10 -15z"/>
<path d="M475 136 l-91 -54 4 -41 c5 -50 22 -55 20 -6 -1 19 2 38 5 42 4 3 7
-12 7 -35 l0 -42 185 0 185 0 0 31 c0 24 -4 30 -16 25 -8 -3 -12 -2 -9 3 7 12
-164 113 -181 107 -8 -3 -11 0 -7 10 9 23 -7 17 -102 -40z"/>
</g>
</svg>
