<?xml version="1.0" standalone="no"?>
<!DOCTYPE svg PUBLIC "-//W3C//DTD SVG 20010904//EN"
 "http://www.w3.org/TR/2001/REC-SVG-20010904/DTD/svg10.dtd">
<svg version="1.0" xmlns="http://www.w3.org/2000/svg"
 width="200.000000pt" height="200.000000pt" viewBox="0 0 200.000000 200.000000"
 preserveAspectRatio="xMidYMid meet">
<metadata>
Created by potrace 1.16, written by Peter Selinger 2001-2019
</metadata>
<g transform="translate(0.000000,200.000000) scale(0.100000,-0.100000)"
fill="#000000" stroke="none">
<path d="M0 1965 c0 -33 4 -37 96 -91 l96 -57 34 17 c42 19 45 12 4 -9 l-30
-16 0 -114 0 -114 100 -56 99 -57 98 59 99 59 61 -36 c87 -50 92 -60 8 -15
l-70 38 -97 -58 -98 -57 0 -111 0 -112 100 -57 100 -57 95 56 c91 53 95 57 97
92 1 35 1 35 5 4 5 -38 5 -38 116 -102 l88 -50 99 59 100 59 101 -60 c55 -32
104 -57 108 -55 4 3 5 -9 2 -27 -4 -30 -5 -31 -11 -7 -4 18 -30 39 -95 77 -50
28 -96 52 -103 53 -7 0 -56 -25 -108 -55 l-96 -55 -93 55 c-52 30 -99 55 -106
55 -20 0 -188 -100 -199 -118 -8 -14 -9 -15 -10 -2 0 15 -170 120 -194 120 -6
0 -24 -8 -41 -18 -75 -45 -145 -83 -145 -78 0 2 40 28 90 56 l90 52 0 116 0
117 -97 54 c-91 51 -97 53 -122 39 -14 -8 -59 -34 -98 -57 l-73 -42 0 -112 0
-112 100 -58 99 -58 3 -117 3 -116 90 -53 c50 -29 95 -53 102 -53 6 0 54 25
107 55 l95 55 35 -21 c20 -12 36 -23 36 -26 0 -3 -16 4 -35 16 l-34 20 -101
-57 -100 -57 2 -114 3 -113 95 -55 95 -55 70 37 c85 46 80 37 -7 -14 l-62 -36
-103 60 -102 60 -1 116 0 117 -96 56 -96 56 -99 -58 -99 -57 2 -114 3 -113 95
-55 c107 -62 88 -63 217 12 35 20 63 34 63 31 0 -2 -40 -28 -90 -57 l-90 -51
0 -113 0 -113 100 -57 99 -57 101 60 c55 33 102 56 106 51 3 -5 0 -9 -6 -9 -6
0 -54 -25 -106 -56 -90 -53 -94 -57 -94 -90 l0 -34 195 0 195 0 0 38 c0 36 -2
38 -85 85 -47 27 -85 51 -85 53 0 3 3 3 8 1 4 -2 44 -25 89 -51 l82 -47 83 47
c46 26 91 54 101 62 15 13 19 13 35 0 9 -8 43 -29 74 -47 32 -18 58 -35 58
-37 0 -6 -109 54 -125 68 -16 14 -31 9 -129 -48 -92 -53 -96 -58 -96 -90 l0
-34 600 0 600 0 0 35 c0 30 -5 37 -45 61 -25 14 -45 28 -45 31 0 3 20 -7 45
-21 l45 -27 0 226 0 227 -32 -20 c-18 -10 -61 -36 -95 -56 l-63 -37 0 -113 c0
-76 4 -116 13 -125 10 -10 9 -11 -5 -6 -12 5 -52 -12 -117 -50 l-100 -56 -80
46 c-45 26 -81 49 -81 51 0 3 3 3 8 1 4 -2 40 -23 80 -46 l72 -42 100 57 100
56 0 112 0 112 -99 58 c-89 51 -103 56 -123 45 -22 -11 -22 -11 2 12 14 13 26
20 28 14 3 -10 183 -115 197 -115 3 0 49 25 101 56 l94 55 0 112 0 113 -99 57
-99 56 -96 -56 c-57 -33 -96 -63 -96 -72 -1 -14 -2 -14 -11 1 -5 10 -30 29
-54 44 -62 36 -57 42 5 7 l51 -28 62 34 c34 19 79 45 100 58 l38 24 -3 111 -3
112 -90 53 c-49 29 -96 53 -104 53 -7 0 -39 -15 -70 -34 -70 -42 -101 -58
-101 -52 0 2 26 19 58 36 31 18 72 43 90 57 17 13 32 20 32 14 0 -8 158 -105
186 -113 6 -2 55 22 108 51 l96 55 0 112 0 113 -94 55 c-52 31 -98 56 -101 56
-4 0 -49 -24 -101 -52 -84 -48 -94 -56 -95 -83 -2 -27 -2 -28 -6 -5 -3 14 -14
33 -26 43 l-22 18 23 -11 c19 -9 36 -3 122 46 l100 56 0 112 0 112 -100 58
-99 57 -73 -42 c-40 -23 -76 -44 -80 -46 -5 -2 -8 -2 -8 1 0 2 36 25 79 50 44
25 81 51 84 58 4 9 6 9 6 -2 1 -8 45 -39 98 -69 l97 -54 48 27 c61 34 63 27 3
-8 l-45 -27 0 -114 0 -114 63 -37 c34 -20 77 -46 95 -56 l32 -20 0 227 0 226
-45 -27 c-25 -14 -45 -24 -45 -21 0 3 20 17 45 31 40 24 45 31 45 61 l0 35
-194 0 c-194 0 -195 0 -199 -22 l-4 -23 -2 23 -1 22 -199 0 c-150 0 -201 -3
-204 -12 -4 -10 -6 -10 -6 0 -1 9 -47 12 -196 12 l-195 0 0 -34 c0 -33 4 -37
96 -90 52 -31 99 -56 104 -56 5 0 52 25 104 56 l95 56 101 -57 c62 -36 106
-55 116 -51 13 5 14 3 6 -6 -5 -7 -12 -24 -15 -38 l-4 -25 -2 25 c-1 22 -18
35 -102 83 l-100 58 -101 -59 -100 -59 -99 60 -99 59 -103 -60 c-57 -33 -106
-56 -112 -52 -5 5 -50 31 -99 59 l-88 51 -64 -35 c-35 -20 -64 -34 -64 -31 0
3 27 20 60 38 57 31 60 35 60 71 l0 37 -195 0 -195 0 0 -35z m597 -217 c-3 -7
-5 -2 -5 12 0 14 2 19 5 13 2 -7 2 -19 0 -25z m880 -208 c34 -19 66 -40 70
-44 7 -8 -75 35 -128 67 -12 7 -41 -4 -117 -47 l-101 -58 -99 56 c-54 31 -101
56 -104 56 -3 0 -48 -25 -99 -55 l-94 -54 -6 -73 -5 -73 -2 78 c-1 42 -6 77
-10 77 -5 0 -17 7 -28 15 -17 14 -15 14 13 0 32 -15 34 -15 123 36 50 28 93
55 95 60 3 4 53 -19 110 -53 l105 -60 100 58 100 58 2 85 2 86 5 -90 6 -89 62
-36z m130 -197 c-3 -10 -5 -4 -5 12 0 17 2 24 5 18 2 -7 2 -21 0 -30z m-410 5
c-3 -8 -6 -5 -6 6 -1 11 2 17 5 13 3 -3 4 -12 1 -19z m410 -80 c-3 -8 -6 -5
-6 6 -1 11 2 17 5 13 3 -3 4 -12 1 -19z m-200 -265 c-3 -10 -5 -2 -5 17 0 19
2 27 5 18 2 -10 2 -26 0 -35z m0 -90 c-3 -10 -5 -4 -5 12 0 17 2 24 5 18 2 -7
2 -21 0 -30z m-313 -78 c52 -30 100 -55 106 -55 6 0 54 25 106 55 l96 55 44
-26 c58 -34 57 -43 -1 -10 l-45 25 -88 -51 c-48 -28 -93 -57 -101 -64 -12 -11
-16 -11 -25 1 -6 7 -50 36 -98 64 l-88 50 -87 -50 c-49 -28 -94 -55 -100 -61
-9 -7 -13 -44 -13 -118 l0 -108 100 -57 100 -57 93 52 c50 29 93 56 95 60 2 5
51 -19 108 -53 82 -47 110 -58 122 -51 62 37 132 75 132 70 0 -3 -30 -22 -66
-42 -36 -20 -68 -43 -71 -50 -4 -11 -7 -11 -19 0 -8 8 -54 38 -104 66 l-90 52
-105 -61 c-58 -33 -107 -56 -110 -52 -2 5 -45 32 -94 60 -90 52 -90 52 -123
36 -29 -14 -30 -14 -14 0 11 8 23 15 28 15 4 0 8 54 8 120 l0 119 -30 16 c-16
9 -30 18 -30 21 0 2 13 -2 30 -11 16 -8 35 -15 42 -15 7 1 54 25 103 55 50 30
91 54 92 55 1 0 44 -25 97 -55z m-374 -21 c0 -2 -9 0 -20 6 -11 6 -20 13 -20
16 0 2 9 0 20 -6 11 -6 20 -13 20 -16z m887 -156 c-2 -13 -4 -3 -4 22 0 25 2
35 4 23 2 -13 2 -33 0 -45z m0 -80 c-3 -7 -5 -2 -5 12 0 14 2 19 5 13 2 -7 2
-19 0 -25z m-200 -225 c-3 -10 -5 -4 -5 12 0 17 2 24 5 18 2 -7 2 -21 0 -30z
m0 -60 c1 -36 1 -37 -6 -8 -6 26 -5 45 3 45 1 0 2 -17 3 -37z m-810 -65 c-3
-8 -6 -5 -6 6 -1 11 2 17 5 13 3 -3 4 -12 1 -19z m810 -20 c-2 -7 3 -18 12
-25 14 -10 13 -11 -4 -7 -21 5 -190 -85 -212 -114 -10 -11 -13 -12 -13 -3 0 8
-8 20 -17 28 -16 13 -16 13 5 3 20 -10 34 -5 105 36 101 58 117 71 118 98 0
12 3 15 6 9 2 -7 3 -19 0 -25z m493 -74 c0 -2 -13 2 -30 11 -16 9 -30 18 -30
21 0 2 14 -2 30 -11 17 -9 30 -18 30 -21z m-293 -106 c-3 -8 -6 -5 -6 6 -1 11
2 17 5 13 3 -3 4 -12 1 -19z"/>
<path d="M400 1965 c0 -36 -7 -31 172 -133 25 -15 30 -13 122 39 94 53 96 55
96 92 l0 37 -195 0 -195 0 0 -35z"/>
<path d="M0 1695 l0 -224 93 53 92 54 0 117 0 117 -92 54 -93 53 0 -224z"/>
<path d="M0 1000 l0 -222 67 38 c36 20 79 44 95 53 l28 16 0 115 0 115 -87 50
c-48 28 -91 52 -95 53 -5 2 -8 -96 -8 -218z"/>
<path d="M1898 1167 l-88 -51 0 -116 0 -116 87 -50 c48 -27 91 -50 95 -52 4
-2 8 96 8 217 0 122 -3 221 -7 220 -5 0 -47 -24 -95 -52z"/>
<path d="M0 305 l0 -224 93 54 92 54 0 117 0 116 -92 54 -93 53 0 -224z"/>
<path d="M95 125 c-85 -49 -90 -55 -93 -89 l-3 -36 195 0 196 0 0 38 c0 36 -2
38 -93 90 -52 28 -98 52 -103 51 -5 0 -49 -24 -99 -54z"/>
</g>
</svg>
