<?xml version="1.0" standalone="no"?>
<!DOCTYPE svg PUBLIC "-//W3C//DTD SVG 20010904//EN"
 "http://www.w3.org/TR/2001/REC-SVG-20010904/DTD/svg10.dtd">
<svg version="1.0" xmlns="http://www.w3.org/2000/svg"
 width="200.000000pt" height="200.000000pt" viewBox="0 0 200.000000 200.000000"
 preserveAspectRatio="xMidYMid meet">
<metadata>
Created by potrace 1.16, written by Peter Selinger 2001-2019
</metadata>
<g transform="translate(0.000000,200.000000) scale(0.100000,-0.100000)"
fill="#000000" stroke="none">
<path d="M2 1963 c3 -35 7 -40 97 -91 l94 -54 33 16 c42 20 45 12 4 -9 l-30
-16 -2 -102 -2 -102 -5 103 -6 103 -92 54 -93 54 0 -224 0 -224 88 50 c48 28
91 54 95 58 5 5 55 -18 112 -51 l103 -60 74 43 c40 23 76 44 81 46 4 2 7 2 7
-1 0 -2 -36 -25 -79 -50 -44 -25 -81 -51 -84 -58 -4 -9 -6 -9 -6 2 -1 14 -178
121 -198 119 -4 0 -48 -24 -98 -53 l-90 -53 -3 -114 -3 -115 41 -23 c22 -12
40 -25 40 -28 0 -3 -16 4 -36 16 -19 12 -37 21 -40 21 -2 0 -4 -99 -4 -220 0
-121 2 -220 4 -220 3 0 22 9 43 21 l38 21 -25 -21 c-14 -11 -33 -23 -42 -27
-16 -5 -18 -20 -18 -118 0 -76 4 -116 13 -125 9 -11 9 -13 0 -7 -10 6 -13 -41
-13 -218 l0 -225 48 26 c50 26 35 10 -17 -19 -26 -14 -31 -23 -31 -53 l0 -35
195 0 195 0 0 38 c0 36 -2 38 -97 91 l-96 55 -48 -28 c-62 -34 -65 -27 -4 8
25 15 45 32 45 38 0 7 5 5 13 -4 6 -8 53 -39 104 -68 l92 -52 63 38 c79 47 78
46 78 40 0 -3 -31 -24 -70 -46 -65 -38 -70 -43 -70 -75 l0 -35 800 0 800 0 0
33 c0 18 -6 39 -12 46 -10 11 -10 13 0 7 9 -6 12 41 12 219 l0 226 -45 -27
c-25 -14 -45 -24 -45 -21 0 3 20 17 45 31 l45 27 0 111 c0 94 -3 113 -18 124
-16 13 -16 14 1 8 16 -6 17 9 17 216 0 207 -1 222 -17 216 -17 -6 -17 -5 0 8
14 11 17 30 17 124 l0 111 -45 27 c-25 14 -45 28 -45 31 0 3 20 -7 45 -21 l45
-27 0 226 c0 178 -3 225 -12 219 -10 -6 -10 -4 0 7 6 7 12 28 12 46 l0 33
-800 0 -800 0 0 -34 c0 -33 4 -37 94 -90 52 -31 98 -56 102 -56 4 0 49 24 101
53 67 38 93 57 94 72 0 19 1 19 8 1 6 -17 182 -126 202 -126 4 0 25 10 46 22
47 27 31 9 -19 -21 -20 -12 -39 -18 -42 -13 -3 5 -47 33 -96 61 l-91 52 -90
-51 c-49 -29 -96 -58 -104 -67 -8 -8 -15 -10 -15 -4 0 5 -43 35 -95 66 -95 55
-95 56 -127 40 -29 -14 -31 -14 -14 0 11 8 23 15 28 15 4 0 8 18 8 40 l0 40
-196 0 -195 0 3 -37z m1605 -5 c-3 -8 -6 -5 -6 6 -1 11 2 17 5 13 3 -3 4 -12
1 -19z m-306 -84 c61 -35 105 -54 115 -50 14 5 15 4 4 -9 -11 -13 -16 -14 -34
-2 -12 8 -58 35 -103 61 -71 41 -85 46 -105 36 -22 -11 -22 -10 -4 4 11 9 22
16 24 16 2 0 49 -25 103 -56z m401 -1 l101 -57 48 28 c62 34 65 27 4 -8 l-45
-27 0 -112 c0 -77 4 -117 13 -126 10 -10 9 -11 -6 -5 -11 4 -49 -12 -110 -46
-50 -29 -94 -56 -97 -61 -3 -4 -17 1 -30 12 -23 19 -23 19 -2 9 19 -9 36 -3
122 46 l100 56 0 113 0 113 -100 56 c-86 49 -103 55 -122 46 -22 -11 -22 -10
-4 4 11 9 22 16 24 16 2 0 49 -26 104 -57z m268 32 c0 -2 -13 -11 -30 -20 -38
-19 -40 -11 -2 9 31 17 32 18 32 11z m-820 -10 c0 -2 -13 -11 -30 -20 -38 -19
-40 -11 -2 9 31 17 32 18 32 11z m395 -4 c-16 -14 -105 -63 -105 -58 0 5 101
66 110 67 2 0 0 -4 -5 -9z m-1215 -6 c0 -2 -13 -11 -30 -20 -38 -19 -40 -11
-2 9 31 17 32 18 32 11z m267 -137 c-3 -7 -5 -2 -5 12 0 14 2 19 5 13 2 -7 2
-19 0 -25z m133 -244 c0 -3 -29 11 -65 31 -38 22 -72 34 -82 31 -13 -5 -14 -4
-4 8 10 12 22 8 82 -26 38 -22 69 -42 69 -44z m750 29 c3 -3 -16 5 -41 18 -26
13 -45 27 -43 31 4 6 67 -31 84 -49z m-440 27 c22 -11 40 -23 40 -25 0 -3 -19
4 -42 16 -29 15 -47 19 -57 12 -53 -32 -135 -75 -128 -67 10 11 129 82 140 83
4 1 26 -8 47 -19z m340 6 c0 -3 -40 -28 -90 -56 l-90 -51 -55 31 c-30 17 -55
34 -55 36 0 3 25 -9 55 -26 l55 -32 88 51 c92 53 92 53 92 47z m520 -42 c0 -2
-13 2 -30 11 -16 9 -30 18 -30 21 0 2 14 -2 30 -11 17 -9 30 -18 30 -21z
m-350 -30 c0 -2 -13 2 -30 11 -16 9 -30 18 -30 21 0 2 14 -2 30 -11 17 -9 30
-18 30 -21z m-730 -14 c11 6 20 8 20 6 0 -3 -9 -10 -20 -16 -15 -8 -27 -7 -50
5 -16 9 -30 18 -30 21 0 2 14 -2 30 -11 23 -12 35 -13 50 -5z m-335 -294 c47
-26 85 -50 85 -52 0 -6 -46 18 -116 60 l-57 35 -36 -23 c-67 -42 -151 -88
-151 -82 0 2 40 28 90 56 l90 52 2 101 2 102 3 -100 4 -100 84 -49z m312 192
c-3 -8 -6 -5 -6 6 -1 11 2 17 5 13 3 -3 4 -12 1 -19z m810 -60 c-3 -8 -6 -5
-6 6 -1 11 2 17 5 13 3 -3 4 -12 1 -19z m-810 -20 c-3 -8 -6 -5 -6 6 -1 11 2
17 5 13 3 -3 4 -12 1 -19z m52 -89 c63 -39 68 -51 7 -15 -25 14 -51 26 -58 26
-7 0 -55 -25 -107 -55 -71 -42 -97 -53 -105 -44 -8 9 -8 10 1 5 6 -3 55 21
110 53 54 33 99 60 100 60 1 1 24 -13 52 -30z m381 11 l25 -20 -31 12 c-29 11
-38 8 -105 -32 -89 -52 -96 -55 -87 -45 8 9 160 103 168 104 3 0 16 -8 30 -19z
m643 -59 c40 23 75 44 80 46 4 2 7 2 7 -1 0 -2 -34 -24 -75 -47 l-75 -43 0
-116 0 -116 75 -43 c41 -23 75 -45 75 -47 0 -3 -3 -3 -7 -1 -5 2 -41 23 -80
46 l-73 42 0 114 0 115 -37 23 c-21 13 -66 39 -100 58 l-62 34 -51 -28 c-27
-16 -50 -26 -50 -23 0 2 23 18 51 34 l52 30 99 -59 100 -59 71 41z m-462 -38
c2 1 2 -2 -2 -6 -5 -7 -149 69 -149 79 0 3 33 -14 73 -36 41 -22 76 -39 78
-37z m-1281 31 c0 -2 -9 0 -20 6 -11 6 -20 13 -20 16 0 2 9 0 20 -6 11 -6 20
-13 20 -16z m884 -27 c8 4 8 3 0 -6 -8 -9 -22 -5 -57 15 -26 14 -47 28 -47 31
0 2 21 -7 46 -21 25 -14 51 -23 58 -19z m476 38 c0 -2 -13 -11 -30 -20 -38
-19 -40 -11 -2 9 31 17 32 18 32 11z m-1315 -31 c14 -9 25 -21 25 -28 0 -7 -3
-8 -8 0 -4 5 -18 18 -32 27 -31 22 -18 22 15 1z m22 -249 c-5 -11 -107 -70
-107 -61 0 3 22 17 50 33 l50 28 2 105 2 105 3 -99 c2 -55 2 -105 0 -111z
m400 103 c-3 -8 -6 -5 -6 6 -1 11 2 17 5 13 3 -3 4 -12 1 -19z m37 -119 c20
-12 36 -23 36 -26 0 -3 -16 5 -36 16 l-35 21 -101 -59 -100 -59 -59 35 c-33
20 -59 37 -59 40 0 5 33 -12 81 -43 l36 -22 99 59 c54 32 100 58 101 59 1 0
18 -9 37 -21z m382 9 c4 -6 3 -8 -3 -5 -6 4 -33 -5 -59 -20 -56 -30 -53 -22 3
13 44 27 49 28 59 12z m428 -14 c25 -14 46 -28 46 -31 0 -2 -20 7 -45 21 l-45
25 -88 -51 c-48 -27 -92 -54 -99 -60 -8 -6 -20 -4 -37 7 -34 22 -33 26 2 13
25 -10 38 -5 122 45 52 30 96 56 96 56 1 1 22 -11 48 -25z m-1174 -20 c0 -2
-13 2 -30 11 -16 9 -30 18 -30 21 0 2 14 -2 30 -11 17 -9 30 -18 30 -21z
m1515 27 c-6 -4 -49 -31 -96 -58 l-87 -50 -51 29 c-28 16 -51 32 -51 35 0 3
20 -7 44 -21 25 -14 51 -26 58 -26 7 0 51 23 98 50 84 49 103 58 85 41z m-650
-64 c6 -6 -12 2 -40 18 -27 15 -54 32 -60 38 -5 6 13 -2 40 -18 28 -15 55 -32
60 -38z m-415 7 c0 -2 -9 0 -20 6 -11 6 -20 13 -20 16 0 2 9 0 20 -6 11 -6 20
-13 20 -16z m160 -4 c-24 -19 -40 -25 -40 -15 0 5 51 34 60 34 3 0 -6 -8 -20
-19z m-68 -27 c16 4 17 3 7 -9 -15 -18 -19 -18 -49 7 -24 20 -24 20 -1 9 12
-7 32 -9 43 -7z m-415 -80 c-3 -10 -5 -2 -5 17 0 19 2 27 5 18 2 -10 2 -26 0
-35z m0 -115 c-3 -7 -5 -2 -5 12 0 14 2 19 5 13 2 -7 2 -19 0 -25z m1210 10
c-3 -8 -6 -5 -6 6 -1 11 2 17 5 13 3 -3 4 -12 1 -19z m-810 -10 c-3 -8 -6 -5
-6 6 -1 11 2 17 5 13 3 -3 4 -12 1 -19z m-296 -106 c93 -53 94 -53 126 -38 43
21 42 13 -2 -13 -19 -11 -37 -16 -39 -12 -3 4 -48 32 -101 62 -72 41 -95 59
-94 74 0 20 0 20 9 0 4 -11 50 -44 101 -73z m1208 -2 l93 -54 49 28 c62 34 65
27 4 -8 l-45 -27 0 -112 c0 -77 4 -117 13 -126 10 -10 9 -11 -5 -6 -27 10
-208 -94 -209 -120 -1 -17 -2 -17 -6 -2 -2 9 -40 38 -84 63 -43 25 -79 48 -79
50 0 3 3 3 8 1 4 -2 40 -23 80 -46 l72 -42 100 57 100 56 0 113 0 113 -99 57
-99 56 -59 -32 c-71 -39 -65 -30 8 15 30 17 56 29 59 26 3 -4 47 -31 99 -60z
m-818 9 c49 -28 89 -53 89 -56 0 -5 -29 10 -112 59 -65 38 -67 39 -97 23 -17
-8 -31 -13 -31 -11 0 5 50 35 59 36 2 0 43 -23 92 -51z m411 -5 l99 -57 42 23
c48 27 47 21 -3 -13 l-35 -23 -102 59 c-101 57 -102 58 -132 42 -17 -8 -31
-13 -31 -11 0 5 50 35 58 36 2 0 49 -25 104 -56z m-922 42 c0 -3 -40 -28 -90
-57 -89 -51 -90 -52 -92 -93 l-1 -41 -4 43 c-4 41 -6 43 -84 88 -43 25 -79 48
-79 51 0 2 26 -10 58 -28 31 -18 69 -40 83 -48 24 -14 30 -12 115 37 94 54 94
54 94 48z m350 -31 c0 -2 -10 -9 -22 -15 -22 -11 -22 -10 -4 4 21 17 26 19 26
11z m400 0 c0 -6 -125 -75 -136 -75 -5 0 23 18 61 40 76 43 75 42 75 35z
m-933 -252 c-2 -16 -4 -3 -4 27 0 30 2 43 4 28 2 -16 2 -40 0 -55z m1225 -60
c6 -8 4 -10 -9 -7 -11 3 -58 -18 -115 -51 -82 -48 -100 -55 -117 -45 -12 6
-21 13 -21 16 0 2 9 0 21 -6 17 -10 35 -2 120 46 56 33 99 65 100 73 0 14 1
14 6 1 3 -8 10 -20 15 -27z m-762 -29 c0 -3 -14 3 -31 12 -25 13 -37 14 -58 5
l-26 -12 24 19 c24 19 25 19 58 0 18 -11 33 -22 33 -24z m245 -25 l-106 -59
-65 36 c-35 20 -64 38 -64 41 0 2 29 -12 65 -31 l64 -37 91 52 c50 28 93 55
96 60 3 5 10 7 16 3 5 -3 -38 -33 -97 -65z m175 15 c0 -2 -13 2 -30 11 -16 9
-30 18 -30 21 0 2 14 -2 30 -11 17 -9 30 -18 30 -21z m820 -10 c0 -2 -13 2
-30 11 -16 9 -30 18 -30 21 0 2 14 -2 30 -11 17 -9 30 -18 30 -21z m-750 -30
c0 -2 -13 2 -30 11 -16 9 -30 18 -30 21 0 2 14 -2 30 -11 17 -9 30 -18 30 -21z
m820 -10 c0 -2 -13 2 -30 11 -16 9 -30 18 -30 21 0 2 14 -2 30 -11 17 -9 30
-18 30 -21z"/>
</g>
</svg>
