<?xml version="1.0" standalone="no"?>
<!DOCTYPE svg PUBLIC "-//W3C//DTD SVG 20010904//EN"
 "http://www.w3.org/TR/2001/REC-SVG-20010904/DTD/svg10.dtd">
<svg version="1.0" xmlns="http://www.w3.org/2000/svg"
 width="200.000000pt" height="200.000000pt" viewBox="0 0 200.000000 200.000000"
 preserveAspectRatio="xMidYMid meet">
<metadata>
Created by potrace 1.16, written by Peter Selinger 2001-2019
</metadata>
<g transform="translate(0.000000,200.000000) scale(0.100000,-0.100000)"
fill="#000000" stroke="none">
<path d="M0 1924 c0 -66 2 -73 18 -67 16 6 16 5 -1 -14 -25 -28 -22 -154 3
-145 12 4 12 1 -2 -15 -12 -13 -18 -36 -18 -72 0 -29 4 -50 8 -47 4 2 9 -4 9
-15 1 -11 -2 -17 -8 -14 -5 4 -9 -55 -9 -150 l0 -156 23 5 c12 3 16 3 9 0 -6
-3 -9 -11 -5 -17 4 -6 0 -8 -10 -4 -14 5 -17 0 -17 -25 0 -17 8 -40 18 -51 16
-19 16 -20 0 -14 -16 6 -18 0 -18 -43 0 -43 2 -49 18 -43 15 6 15 4 -2 -16
-15 -16 -17 -24 -8 -33 15 -15 16 -32 2 -23 -6 4 -10 -13 -10 -45 0 -29 4 -49
9 -45 6 3 9 -3 8 -14 0 -11 -5 -17 -9 -15 -4 3 -8 -11 -8 -30 0 -25 4 -34 13
-30 8 3 14 -2 14 -10 0 -8 -6 -12 -14 -9 -10 4 -13 -25 -13 -151 0 -144 1
-155 18 -149 16 6 16 5 0 -14 -24 -27 -24 -109 -1 -136 17 -19 17 -20 0 -14
-15 6 -16 4 -6 -14 8 -15 8 -19 0 -15 -7 5 -11 -10 -11 -48 0 -30 4 -58 10
-61 5 -3 10 -11 10 -16 0 -6 -4 -7 -10 -4 -6 4 -10 -21 -10 -68 l0 -75 35 0
c26 0 33 3 26 11 -11 15 6 31 34 34 19 1 19 1 3 -11 -41 -30 -19 -34 180 -35
139 0 193 3 182 10 -11 8 -12 12 -3 16 7 2 13 12 13 21 0 14 2 14 9 3 5 -7 15
-10 22 -7 8 4 6 1 -3 -7 -10 -8 -18 -19 -18 -24 0 -14 1028 -15 1036 -1 3 5
-2 15 -11 22 -15 11 -15 12 3 12 10 0 24 -6 31 -13 7 -8 8 -13 1 -13 -5 0 -10
-4 -10 -9 0 -12 378 -12 386 0 3 6 -2 16 -12 24 -18 13 -18 13 1 12 11 -1 26
-8 34 -15 12 -12 12 -15 0 -23 -10 -6 -2 -9 24 -9 l37 0 0 75 c0 41 -4 75 -8
75 -5 0 -9 7 -9 15 0 8 4 12 9 9 4 -3 8 19 8 50 0 47 -3 57 -27 76 -16 12 -22
19 -15 15 25 -13 42 16 42 72 0 30 -4 52 -8 49 -5 -3 -9 1 -9 9 0 8 4 15 9 15
4 0 8 16 8 36 0 25 -3 33 -12 28 -10 -6 -10 -5 -1 7 10 12 10 18 0 29 -9 10
-9 11 1 6 9 -6 12 16 12 95 0 85 -3 104 -18 116 -16 14 -16 14 1 9 14 -4 17 1
17 26 0 17 -8 40 -17 51 -16 19 -17 20 -1 14 15 -5 17 6 17 124 0 71 -4 127
-9 124 -5 -3 -8 3 -7 14 0 11 5 17 9 15 4 -3 8 11 8 30 0 29 -3 34 -17 30 -17
-5 -17 -5 0 9 14 12 17 32 17 124 0 73 -4 113 -12 122 -10 11 -10 13 0 7 9 -5
12 4 12 34 0 23 -4 39 -8 36 -5 -3 -9 1 -9 9 0 8 4 12 9 9 15 -9 9 103 -6 115
-15 12 -10 55 5 45 5 -3 9 20 9 51 0 31 -4 54 -8 51 -5 -3 -9 1 -9 9 0 8 4 12
9 9 4 -3 8 31 8 74 l0 80 -35 0 c-26 0 -33 -3 -26 -11 11 -15 -6 -31 -34 -34
-19 -1 -19 -1 -1 12 10 8 15 18 12 24 -9 14 -157 11 -175 -3 -11 -8 -13 -8 -8
0 4 8 -25 11 -100 12 -58 0 -100 -4 -93 -8 17 -11 -6 -34 -35 -37 -19 -1 -19
-1 -1 12 10 8 15 18 12 23 -8 13 -1024 13 -1032 0 -3 -5 2 -16 12 -24 11 -9
13 -12 5 -8 -7 3 -17 0 -22 -7 -7 -11 -9 -10 -9 4 0 9 -4 17 -10 17 -5 0 -10
5 -10 11 0 5 4 7 10 4 5 -3 10 -2 10 3 0 13 -378 13 -386 0 -3 -5 2 -15 12
-23 18 -13 18 -13 -1 -12 -29 3 -52 26 -35 37 8 5 -1 8 -24 8 l-36 0 0 -74z
m353 52 c4 -10 0 -12 -15 -8 -14 3 -19 1 -14 -6 4 -7 3 -12 -2 -12 -16 0 -21
12 -9 26 16 17 33 18 40 0z m397 2 c0 -4 -7 -8 -16 -8 -8 0 -12 -4 -9 -10 3
-5 2 -10 -3 -10 -16 0 -21 12 -9 24 13 14 37 17 37 4z m136 -3 c8 -7 7 -14 -3
-23 -10 -10 -13 -10 -13 3 0 8 -4 15 -10 15 -5 0 -10 4 -10 8 0 12 24 11 36
-3z m264 3 c0 -4 -7 -8 -15 -8 -9 0 -12 -6 -8 -17 6 -15 5 -16 -9 -3 -10 10
-12 18 -4 25 12 14 36 15 36 3z m145 -10 c16 -16 17 -18 2 -13 -10 4 -17 2
-17 -4 0 -6 -5 -11 -12 -11 -9 0 -9 3 0 12 9 9 7 14 -5 23 -12 9 -12 12 -2 12
8 0 23 -9 34 -19z m385 9 c0 -5 9 -7 20 -4 29 8 24 0 -12 -19 -30 -16 -32 -16
-19 -1 12 15 11 17 -3 17 -9 0 -16 4 -16 8 0 5 7 9 15 9 8 0 15 -5 15 -10z
m-1280 -52 c0 -2 -10 -9 -22 -15 -22 -11 -22 -10 -4 4 21 17 26 19 26 11z
m424 -7 c-3 -5 -9 -6 -14 -3 -5 3 -19 1 -30 -5 -15 -8 -18 -8 -14 3 2 7 18 13
34 13 16 0 27 -3 24 -8z m410 -5 c4 -10 1 -11 -14 -3 -26 14 -30 13 -31 -7 0
-11 -3 -13 -6 -5 -2 6 -9 10 -14 7 -5 -4 -6 0 -4 8 7 17 63 18 69 0z m400 0
c5 -11 1 -11 -15 -2 -16 8 -23 8 -29 -1 -5 -9 -9 -8 -13 2 -3 10 3 14 24 14
15 0 31 -6 33 -13z m-1411 0 c-7 -2 -9 -12 -6 -21 5 -14 3 -15 -7 -5 -9 8 -18
9 -25 3 -7 -6 -11 -3 -11 8 0 12 9 17 31 18 16 1 25 -1 18 -3z m401 -15 c5
-21 -5 -23 -22 -6 -9 9 -12 9 -12 0 0 -7 -4 -12 -8 -12 -4 0 -8 8 -8 19 0 24
43 23 50 -1z m402 0 c0 -20 -11 -24 -22 -7 -5 8 -9 8 -14 -1 -5 -8 -9 -6 -12
7 -4 16 0 20 21 20 19 0 27 -6 27 -19z m400 2 c0 -12 -7 -17 -23 -16 -13 0
-23 7 -23 16 0 9 10 16 23 16 16 1 23 -4 23 -16z m398 -7 c-1 -14 -6 -28 -10
-31 -4 -4 -4 1 -1 10 7 19 -8 34 -18 18 -10 -17 -23 -11 -19 8 3 9 15 18 28
18 19 1 23 -3 20 -23z m130 -1 c-16 -16 -44 -26 -44 -16 0 4 52 33 59 34 3 0
-4 -8 -15 -18z m-1464 -18 c0 -2 -9 0 -20 6 -11 6 -20 13 -20 16 0 2 9 0 20
-6 11 -6 20 -13 20 -16z m390 11 c0 -12 -19 -12 -23 0 -4 9 -1 12 9 8 7 -3 14
-7 14 -8z m664 2 c-3 -8 -12 -14 -21 -14 -13 0 -13 2 3 14 10 7 19 13 21 13 1
0 0 -6 -3 -13z m-1459 -7 c3 -6 -1 -7 -9 -4 -18 7 -21 14 -7 14 6 0 13 -4 16
-10z m245 5 c0 -2 -10 -9 -22 -15 -22 -11 -22 -10 -4 4 21 17 26 19 26 11z
m806 -7 c4 -7 4 -10 -1 -6 -4 4 -17 3 -29 -3 -20 -10 -20 -10 -2 5 24 19 23
19 32 4z m148 4 c3 -5 -1 -9 -9 -9 -8 0 -12 4 -9 9 3 4 7 8 9 8 2 0 6 -4 9 -8z
m-1149 -22 c-3 -5 -12 -10 -18 -10 -7 0 -6 4 3 10 19 12 23 12 15 0z m395 -4
c-7 -7 -13 -7 -20 0 -6 6 -3 10 10 10 13 0 16 -4 10 -10z m965 4 c-3 -5 -12
-10 -18 -10 -7 0 -6 4 3 10 19 12 23 12 15 0z m395 -4 c-7 -7 -13 -7 -20 0 -6
6 -3 10 10 10 13 0 16 -4 10 -10z m-1610 -7 c0 -5 -4 -8 -9 -4 -5 3 -12 1 -16
-5 -3 -5 -11 -10 -18 -10 -6 0 -2 7 9 15 23 17 34 19 34 4z m125 1 c11 9 14 7
12 -7 -2 -26 -37 -25 -36 2 0 11 3 14 6 7 4 -10 8 -10 18 -2z m415 -8 c0 -11
-7 -18 -20 -18 -11 0 -20 6 -20 13 0 7 7 10 15 7 8 -4 15 -1 15 5 0 6 2 11 5
11 3 0 5 -8 5 -18z m140 -8 c0 -2 -9 0 -20 6 -11 6 -20 13 -20 16 0 2 9 0 20
-6 11 -6 20 -13 20 -16z m250 16 c8 12 10 12 10 -5 0 -14 -6 -21 -20 -21 -14
0 -20 7 -20 21 0 17 2 17 10 5 9 -13 11 -13 20 0z m117 -12 c-3 -8 -6 -5 -6 6
-1 11 2 17 5 13 3 -3 4 -12 1 -19z m293 4 c0 -11 -7 -18 -18 -18 -10 0 -19 6
-19 12 0 7 6 10 14 7 7 -3 13 0 13 6 0 6 2 11 5 11 3 0 5 -8 5 -18z m120 14
c0 -3 -4 -8 -10 -11 -5 -3 -10 -1 -10 4 0 6 5 11 10 11 6 0 10 -2 10 -4z
m-1085 -16 c-3 -5 -12 -10 -18 -10 -7 0 -6 4 3 10 19 12 23 12 15 0z m-435
-22 c0 -5 -4 -8 -10 -8 -5 0 -11 -8 -11 -17 -1 -17 -2 -17 -6 0 -2 9 -9 17
-14 17 -5 0 -9 4 -9 9 0 5 11 8 25 7 14 0 25 -4 25 -8z m400 0 c0 -5 -5 -8
-11 -8 -6 0 -9 -7 -5 -15 3 -8 1 -15 -4 -15 -6 0 -10 7 -10 15 0 8 -4 15 -10
15 -5 0 -10 4 -10 9 0 5 11 8 25 7 14 0 25 -4 25 -8z m404 0 c-3 -4 -14 -8
-24 -8 -10 0 -21 4 -24 8 -3 5 8 9 24 9 16 0 27 -4 24 -9z m406 0 c0 -11 -47
-11 -54 0 -3 5 8 9 24 9 17 0 30 -4 30 -9z m400 0 c0 -11 -47 -11 -54 0 -3 5
8 9 24 9 17 0 30 -4 30 -9z m-1520 -55 c0 -1 -8 1 -17 4 -12 5 -15 2 -10 -10
7 -19 -1 -21 -23 -7 -12 7 -12 10 -1 10 7 0 11 6 8 14 -9 22 3 26 24 8 10 -9
19 -18 19 -19z m705 27 c3 -5 2 -10 -4 -10 -5 0 -13 5 -16 10 -3 6 -2 10 4 10
5 0 13 -4 16 -10z m400 1 c3 -6 -3 -9 -14 -8 -11 0 -17 5 -15 9 7 11 22 10 29
-1z m400 -1 c3 -5 1 -10 -4 -10 -6 0 -11 5 -11 10 0 6 2 10 4 10 3 0 8 -4 11
-10z m-1688 -15 c-1 -5 4 -9 11 -7 18 3 14 -6 -8 -18 -12 -6 -19 -7 -18 -1 2
5 -5 16 -15 23 -16 12 -15 13 7 13 13 0 24 -4 23 -10z m401 3 c-2 -7 3 -12 10
-10 19 3 14 -6 -9 -19 -13 -7 -19 -7 -15 -1 3 6 1 14 -5 18 -8 4 -7 9 2 15 18
11 19 11 17 -3z m162 -8 c-7 -4 -10 -12 -6 -18 3 -6 -5 -9 -19 -8 -21 1 -23 3
-10 12 8 6 15 16 15 22 0 6 7 9 16 5 11 -4 12 -8 4 -13z m238 11 c-2 -5 5 -16
15 -23 16 -12 15 -13 -7 -13 -13 0 -24 5 -23 10 1 6 -5 9 -13 7 -10 -1 -9 2 4
13 23 17 27 18 24 6z m182 -16 c0 -2 -8 -1 -17 2 -12 5 -15 2 -10 -10 7 -19
-1 -21 -21 -8 -11 7 -10 9 3 15 9 3 13 11 9 17 -4 8 0 8 15 0 11 -7 21 -14 21
-16z m233 -5 c7 0 6 -4 -3 -10 -22 -14 -30 -12 -23 7 5 13 2 15 -13 10 -18 -7
-18 -6 1 8 18 14 20 14 23 1 2 -9 9 -16 15 -16z m167 5 c0 -2 -8 -1 -17 2 -12
5 -15 2 -11 -8 4 -9 -2 -14 -17 -14 -14 0 -21 5 -18 12 3 7 10 11 16 10 7 -1
11 4 9 11 -2 10 2 10 18 2 11 -6 20 -13 20 -15z m220 8 c0 -7 6 -13 13 -13 8
0 7 -4 -3 -10 -22 -14 -30 -12 -23 7 5 12 2 15 -9 11 -8 -3 -15 -1 -15 6 0 6
9 12 19 12 10 0 18 -6 18 -13z m160 -8 c-5 -6 -7 -15 -3 -19 4 -4 0 -4 -10 0
-13 4 -15 10 -7 19 5 6 7 15 3 19 -4 4 0 4 10 0 13 -4 15 -10 7 -19z m-1855
-35 c-3 -5 -12 -10 -18 -10 -7 0 -6 4 3 10 19 12 23 12 15 0z m175 -4 c0 -3
-4 -8 -10 -11 -5 -3 -10 -1 -10 4 0 6 5 11 10 11 6 0 10 -2 10 -4z m204 -8
c-2 -4 4 -11 13 -17 10 -6 12 -11 6 -11 -7 0 -13 -6 -13 -12 0 -7 -11 -14 -24
-14 -18 -1 -23 2 -19 14 5 12 2 14 -13 9 -18 -7 -18 -6 -1 7 9 7 17 17 17 22
0 6 9 10 19 10 11 0 18 -4 15 -8z m408 -6 c-4 -11 -1 -14 10 -10 8 4 15 1 15
-7 0 -7 -6 -11 -14 -8 -7 3 -13 -2 -13 -11 0 -10 -6 -13 -15 -10 -8 4 -15 1
-15 -6 0 -6 -5 -8 -10 -5 -6 4 -8 11 -4 16 3 6 -2 17 -12 25 -18 14 -18 14 0
7 15 -5 18 -3 14 9 -5 11 1 15 22 15 21 0 27 -4 22 -15z m400 0 c-4 -11 -1
-14 10 -10 8 4 15 1 15 -7 0 -8 -7 -11 -15 -7 -11 4 -14 1 -10 -10 5 -11 -1
-15 -22 -15 -21 0 -27 4 -22 15 4 12 1 14 -14 9 -18 -7 -18 -7 0 7 10 8 16 19
12 24 -3 5 8 9 23 9 22 0 28 -4 23 -15z m401 0 c-5 -11 -2 -14 9 -10 8 4 15 1
15 -7 0 -8 -7 -11 -15 -7 -11 4 -14 1 -10 -10 5 -11 -1 -15 -23 -15 -15 0 -26
4 -23 9 4 5 -2 16 -12 24 -17 12 -17 13 -1 8 11 -4 17 -1 17 7 0 8 11 15 24
15 18 1 23 -2 19 -14z m-1425 -48 c-1 -5 -9 -9 -16 -10 -10 -2 -11 1 -1 12 12
14 24 13 17 -2z m1612 6 c0 -5 -5 -10 -11 -10 -5 0 -7 5 -4 10 3 6 8 10 11 10
2 0 4 -4 4 -10z m-1660 -45 c0 -3 -6 -4 -12 -2 -7 1 -12 -3 -11 -9 1 -7 -9
-11 -23 -10 -22 1 -23 2 -7 14 10 7 17 18 15 23 -1 6 6 5 18 -1 11 -6 20 -13
20 -15z m133 8 c-5 -12 -2 -15 10 -10 29 11 19 -2 -15 -19 -32 -16 -32 -16
-18 1 12 15 13 19 1 23 -11 4 -11 6 0 13 21 13 29 11 22 -8z m267 -8 c0 -3 -6
-4 -12 -2 -7 1 -12 -3 -11 -10 2 -7 -4 -10 -12 -6 -11 4 -13 9 -5 18 5 6 6 15
2 20 -4 4 3 2 16 -4 12 -6 22 -14 22 -16z m134 14 c-3 -6 -1 -15 6 -19 8 -5 7
-9 -4 -13 -10 -4 -16 -1 -16 8 0 8 -6 15 -12 15 -9 0 -8 4 2 10 20 13 33 13
24 -1z m252 -11 c-9 -5 -14 -13 -11 -19 3 -5 -1 -6 -10 -2 -12 4 -13 8 -5 13
7 4 10 12 6 18 -4 6 2 8 15 5 19 -5 19 -7 5 -15z m148 10 c-4 -6 -1 -14 6 -18
8 -5 8 -9 -4 -13 -9 -4 -15 -2 -13 3 1 5 -6 15 -16 22 -16 12 -15 13 8 14 14
1 22 -2 19 -8z m254 3 c11 -7 10 -9 -3 -15 -9 -3 -13 -11 -9 -17 4 -8 0 -8
-15 0 -25 14 -28 23 -4 14 12 -5 15 -2 10 10 -7 19 1 21 21 8z m145 -5 c-3 -4
0 -12 7 -16 8 -5 8 -9 -4 -13 -9 -4 -15 -1 -13 6 1 7 -3 11 -10 10 -6 -1 -13
3 -16 10 -3 7 5 12 18 12 13 0 21 -4 18 -9z m257 4 c10 -6 11 -10 3 -10 -7 0
-13 -7 -13 -15 0 -9 -6 -12 -16 -8 -11 4 -12 8 -4 13 7 4 9 13 6 19 -9 14 4
14 24 1z m147 -2 c-1 -4 6 -13 16 -20 16 -12 15 -13 -7 -13 -13 0 -24 5 -23
10 1 6 -3 9 -10 8 -6 -1 -13 3 -16 10 -3 7 5 12 18 12 13 0 23 -3 22 -7z
m-1676 -58 c21 0 7 -15 -16 -16 -14 -1 -25 2 -25 7 0 5 5 9 10 9 6 0 11 8 11
18 1 16 2 16 6 0 2 -10 9 -18 14 -18z m404 20 c-3 -5 -11 -10 -16 -10 -6 0 -7
5 -4 10 3 6 11 10 16 10 6 0 7 -4 4 -10z m395 -4 c-7 -7 -14 -6 -21 1 -9 9 -7
12 9 10 14 -1 18 -5 12 -11z m405 4 c-3 -5 -11 -10 -16 -10 -6 0 -7 5 -4 10 3
6 11 10 16 10 6 0 7 -4 4 -10z m-383 -22 c-14 -14 -62 -20 -62 -8 0 5 15 11
33 13 17 2 34 5 37 5 2 1 -1 -3 -8 -10z m-412 -5 c0 -5 -11 -9 -25 -9 -14 -1
-22 2 -19 7 6 11 44 12 44 2z m607 -17 c-8 -17 -14 -21 -19 -13 -6 9 -11 8
-18 -3 -8 -12 -10 -11 -10 8 0 13 4 20 10 17 5 -3 18 -1 27 4 10 6 19 11 20
11 0 0 -4 -11 -10 -24z m100 -13 c-3 -10 -5 -4 -5 12 0 17 2 24 5 18 2 -7 2
-21 0 -30z m103 28 c0 -6 -4 -13 -10 -16 -5 -3 -10 -1 -10 5 0 7 -8 9 -21 5
-15 -5 -19 -4 -15 4 9 13 56 15 56 2z m400 0 c0 -5 -11 -8 -25 -7 -33 1 -33
16 0 16 14 0 25 -4 25 -9z m-1413 -18 c0 -6 -6 -9 -13 -6 -7 2 -14 -4 -16 -14
-3 -14 -5 -12 -9 8 -5 23 -2 26 16 25 12 0 22 -6 22 -13z m403 -8 c0 -17 -2
-17 -10 -5 -9 13 -11 13 -20 0 -8 -12 -10 -12 -10 5 0 14 6 21 20 21 14 0 20
-7 20 -21z m800 10 c0 -6 -8 -11 -18 -11 -10 0 -19 5 -19 11 0 6 9 11 19 11
10 0 18 -5 18 -11z m-965 -5 c3 -6 -1 -7 -9 -4 -18 7 -21 14 -7 14 6 0 13 -4
16 -10z m-518 -14 c0 -8 -6 -12 -14 -9 -7 3 -10 9 -7 14 8 14 21 11 21 -5z
m138 -4 c-3 -3 -11 0 -18 7 -9 10 -8 11 6 5 10 -3 15 -9 12 -12z m1461 3 c-11
-8 -25 -15 -30 -15 -6 1 0 7 14 15 32 19 40 18 16 0z m164 -11 c0 -2 -9 0 -20
6 -11 6 -20 13 -20 16 0 2 9 0 20 -6 11 -6 20 -13 20 -16z m-1366 8 c2 -4 -4
-8 -14 -8 -10 0 -16 4 -14 8 3 4 9 8 14 8 5 0 11 -4 14 -8z m960 0 c2 -4 -4
-8 -14 -8 -10 0 -16 4 -14 8 3 4 9 8 14 8 5 0 11 -4 14 -8z m-764 -28 c0 -2
-9 0 -20 6 -11 6 -20 13 -20 16 0 2 9 0 20 -6 11 -6 20 -13 20 -16z m-640 10
c0 -2 -9 -8 -20 -14 -15 -8 -18 -8 -14 3 4 11 34 21 34 11z m800 0 c0 -8 -19
-13 -24 -6 -3 5 1 9 9 9 8 0 15 -2 15 -3z m660 -20 c0 -2 -9 0 -20 6 -11 6
-20 13 -20 16 0 2 9 0 20 -6 11 -6 20 -13 20 -16z m400 0 c0 -2 -9 0 -20 6
-11 6 -20 13 -20 16 0 2 9 0 20 -6 11 -6 20 -13 20 -16z m-1745 6 c3 5 11 10
17 10 7 0 7 -4 -1 -13 -6 -8 -9 -16 -7 -18 2 -2 -6 -5 -18 -5 -15 -1 -22 4
-22 17 0 13 4 15 12 8 8 -7 14 -6 19 1z m385 -1 c0 -8 4 -8 14 0 11 9 15 7 18
-7 4 -15 0 -19 -21 -19 -19 0 -27 6 -27 19 0 10 4 18 8 18 4 0 8 -5 8 -11z
m414 0 c11 17 25 13 20 -6 -3 -10 -15 -19 -28 -19 -19 -1 -22 2 -18 18 3 13 7
16 12 8 5 -9 9 -9 14 -1z m406 0 c0 6 4 11 8 11 4 0 8 -8 8 -18 0 -13 -8 -19
-27 -19 -21 0 -25 4 -21 19 3 14 7 16 18 7 10 -8 14 -8 14 0z m385 1 c4 -6 10
-8 15 -5 4 3 11 -2 14 -11 5 -12 2 -15 -10 -10 -8 3 -25 1 -37 -6 -20 -10 -21
-10 -9 5 8 9 11 21 7 27 -3 5 -2 10 4 10 5 0 13 -5 16 -10z m-1383 -24 c6 4 8
3 4 -4 -10 -16 -39 -11 -61 11 -20 19 -20 19 13 3 18 -9 38 -14 44 -10z m1248
19 c0 -2 -14 -12 -31 -21 -25 -12 -34 -13 -43 -3 -8 9 -8 10 1 5 7 -4 25 0 40
8 32 17 33 18 33 11z m-870 -18 c0 -5 7 -6 16 -3 8 3 12 2 9 -3 -7 -13 -43 -9
-49 4 -2 7 2 12 10 12 8 0 14 -5 14 -10z m430 3 c16 8 18 8 14 -4 -6 -17 -50
-14 -67 4 -10 10 -7 10 11 1 16 -8 28 -9 42 -1z m-810 -34 c0 -3 -4 -8 -10
-11 -5 -3 -10 -1 -10 4 0 6 5 11 10 11 6 0 10 -2 10 -4z m91 -12 c8 4 6 1 -5
-8 -10 -8 -15 -19 -11 -25 3 -6 1 -11 -4 -11 -6 0 -11 5 -11 11 0 5 -4 7 -10
4 -5 -3 -10 -1 -10 4 0 6 5 11 10 11 6 0 10 8 10 18 0 13 2 14 9 3 5 -7 15
-10 22 -7z m387 -15 c-6 -4 -8 -11 -4 -17 4 -6 -2 -8 -14 -5 -20 5 -28 23 -10
23 6 0 10 7 10 15 0 13 2 13 14 3 9 -8 10 -15 4 -19z m400 0 c-6 -4 -7 -13 -2
-20 6 -11 5 -12 -8 -2 -8 7 -18 10 -21 6 -4 -3 -7 -1 -7 5 0 7 7 12 15 12 9 0
12 6 8 17 -6 15 -5 16 9 3 10 -9 12 -17 6 -21z m322 27 c0 -2 -7 -7 -16 -10
-8 -3 -12 -2 -9 4 6 10 25 14 25 6z m334 -28 c8 -6 6 -11 -4 -18 -22 -14 -30
-12 -23 7 5 12 2 15 -9 11 -8 -4 -15 -1 -15 7 0 7 6 11 14 8 7 -3 13 1 14 8 0
10 2 10 6 -1 3 -8 11 -18 17 -22z m-1837 6 c0 -7 -7 -9 -15 -6 -11 4 -14 1 -9
-11 7 -19 -4 -22 -20 -6 -8 8 -8 15 -1 23 15 15 45 15 45 0z m218 6 c-3 -5
-11 -10 -16 -10 -6 0 -7 5 -4 10 3 6 11 10 16 10 6 0 7 -4 4 -10z m402 -5 c-1
-5 4 -9 11 -7 20 4 13 -15 -8 -21 -12 -3 -17 -1 -14 5 3 5 -2 15 -11 22 -15
11 -15 12 4 12 11 0 19 -5 18 -11z m400 -5 c1 -11 -2 -22 -8 -25 -5 -3 -6 1
-3 9 3 9 1 16 -6 16 -6 0 -8 5 -5 10 10 16 21 12 22 -10z m393 -24 c-8 -8 -10
-7 -5 7 5 11 2 17 -6 17 -11 0 -11 3 1 10 19 12 28 -16 10 -34z m195 24 c3 -5
-5 -6 -17 -2 -16 4 -20 2 -15 -10 4 -12 1 -14 -14 -11 -21 6 -27 25 -6 21 6
-2 11 2 10 8 -2 13 34 7 42 -6z m-1371 -9 c3 -5 -3 -11 -14 -14 -20 -5 -26 3
-13 16 9 10 21 9 27 -2z m-132 -35 c6 4 8 3 4 -4 -3 -6 2 -15 11 -21 17 -10
17 -10 -1 -11 -15 0 -16 -3 -6 -15 8 -9 9 -15 2 -15 -6 0 -14 5 -17 10 -4 6
-9 9 -13 6 -4 -2 -16 5 -27 16 -17 16 -17 18 -2 13 20 -8 23 5 5 24 -11 11 -9
11 10 2 12 -7 28 -9 34 -5z m203 4 c-3 -5 -12 -10 -18 -10 -7 0 -6 4 3 10 19
12 23 12 15 0z m195 -5 c6 4 9 2 8 -4 -2 -5 6 -17 17 -25 16 -13 17 -15 3 -10
-13 4 -18 1 -18 -11 0 -14 -3 -15 -15 -5 -10 9 -15 9 -15 1 0 -6 -4 -11 -10
-11 -5 0 -7 7 -4 15 4 9 0 15 -7 15 -11 0 -11 2 0 9 13 8 13 12 0 27 -13 16
-12 16 9 5 12 -6 27 -9 32 -6z m410 -9 c0 -5 8 -15 18 -22 16 -13 16 -14 -2
-7 -15 5 -18 3 -13 -10 7 -20 -4 -22 -21 -5 -9 9 -12 9 -12 0 0 -7 -5 -12 -11
-12 -5 0 -7 5 -4 10 4 6 -2 18 -12 28 -10 9 -14 14 -9 10 15 -12 26 -10 26 5
0 7 9 13 20 13 11 0 20 -4 20 -10z m400 -3 c0 -7 6 -13 13 -13 9 0 8 -3 -2 -9
-7 -5 -10 -14 -7 -20 4 -6 2 -11 -3 -11 -6 0 -11 5 -11 12 0 9 -3 9 -12 0 -15
-15 -31 -16 -22 -1 3 6 0 15 -7 20 -10 6 -11 9 -1 9 6 0 12 6 12 13 0 7 9 13
20 13 11 0 20 -6 20 -13z m404 5 c-4 -6 0 -14 7 -19 12 -7 12 -9 0 -9 -8 0
-11 -6 -7 -16 5 -13 4 -14 -7 -6 -10 9 -17 8 -25 0 -9 -9 -12 -8 -12 6 0 12
-5 16 -14 13 -10 -4 -13 -1 -10 8 3 8 11 13 17 12 7 -1 11 3 10 8 -1 6 10 11
23 11 14 1 21 -2 18 -8z m-1019 -48 c3 -5 1 -10 -4 -10 -6 0 -11 5 -11 10 0 6
2 10 4 10 3 0 8 -4 11 -10z m805 0 c0 -5 -5 -10 -11 -10 -5 0 -7 5 -4 10 3 6
8 10 11 10 2 0 4 -4 4 -10z m-393 -6 c-3 -3 -12 -4 -19 -1 -8 3 -5 6 6 6 11 1
17 -2 13 -5z m-1137 -31 c0 -7 6 -13 13 -13 8 0 7 -4 -3 -10 -22 -14 -30 -12
-23 7 5 12 2 15 -9 11 -8 -3 -15 -1 -15 6 0 6 9 12 19 12 10 0 18 -6 18 -13z
m250 -3 c-7 -4 -10 -13 -6 -19 5 -7 1 -9 -9 -5 -11 5 -13 10 -5 19 5 6 7 15 3
19 -4 4 1 4 11 0 13 -5 14 -9 6 -14z m150 2 c0 -9 6 -12 18 -8 14 5 14 4 -2
-9 -26 -20 -37 -19 -29 2 5 12 2 15 -9 11 -8 -3 -15 -1 -15 6 0 6 9 12 19 12
10 0 18 -7 18 -14z m274 9 c-2 -2 2 -11 9 -20 10 -14 10 -14 -5 -3 -18 14 -43
7 -33 -9 3 -5 -1 -6 -10 -3 -11 5 -13 10 -5 19 5 6 7 14 4 17 -3 3 6 5 20 4
13 0 22 -3 20 -5z m126 -8 c0 -7 6 -13 13 -13 8 0 7 -4 -3 -10 -22 -14 -30
-12 -23 7 5 12 2 15 -9 11 -8 -3 -15 -1 -15 6 0 6 9 12 19 12 10 0 18 -6 18
-13z m277 0 c0 -6 -6 -9 -13 -6 -7 2 -14 -3 -16 -12 -3 -15 -5 -15 -23 0 -19
14 -19 15 -1 8 15 -5 18 -3 13 9 -4 12 0 15 17 14 12 0 23 -6 23 -13z m130 10
c-4 -3 -2 -12 3 -18 7 -9 6 -14 -4 -18 -8 -3 -16 2 -19 13 -5 20 0 30 16 30 6
0 7 -3 4 -7z m270 -10 c0 -6 -7 -8 -15 -5 -11 4 -14 1 -9 -11 7 -19 -1 -21
-23 -7 -12 7 -12 10 -1 10 7 0 11 6 8 14 -4 9 2 13 17 12 12 0 23 -6 23 -13z
m131 5 c-2 -7 3 -12 10 -10 20 4 14 -15 -7 -21 -14 -3 -18 -1 -14 9 3 8 0 14
-7 14 -6 0 -8 5 -5 10 9 14 25 12 23 -2z m269 -4 c0 -7 -7 -9 -15 -6 -11 4
-14 1 -9 -11 7 -19 -1 -21 -23 -7 -10 6 -11 10 -2 10 6 0 12 6 12 13 0 7 8 13
18 13 10 0 19 -6 19 -12z m-747 -36 c0 -5 -9 -4 -20 2 -11 6 -20 12 -20 14 0
2 9 2 20 -1 11 -3 20 -9 20 -15z m400 -5 c0 -9 6 -13 14 -10 10 4 13 1 9 -9
-6 -16 -23 -19 -23 -4 0 5 -10 18 -21 29 l-21 20 21 -6 c11 -3 21 -12 21 -20z
m-1205 6 c-4 -6 1 -17 11 -24 11 -8 14 -15 9 -15 -6 0 -16 5 -23 12 -9 9 -12
9 -12 -2 0 -7 -3 -10 -7 -7 -3 4 -13 1 -22 -6 -14 -10 -14 -10 -4 4 7 9 10 19
6 23 -4 4 1 4 12 0 15 -6 17 -4 12 9 -4 11 -1 17 9 17 8 0 12 -5 9 -11z m409
3 c-6 -4 -15 -15 -21 -25 -9 -17 -11 -17 -23 -2 -11 13 -10 14 5 8 14 -5 17
-3 12 10 -5 13 -1 17 16 17 12 0 17 -3 11 -8z m420 -27 c-7 -16 -24 -21 -24
-6 0 8 7 13 27 20 1 1 0 -6 -3 -14z m-1028 -8 c6 2 11 -2 11 -9 0 -7 -11 -14
-24 -14 -14 -1 -22 1 -19 4 3 3 0 12 -7 20 -10 13 -9 14 8 5 11 -6 25 -9 31
-6z m619 3 c3 -5 1 -10 -4 -10 -6 0 -11 5 -11 10 0 6 2 10 4 10 3 0 8 -4 11
-10z m-208 -15 c0 -6 -9 -11 -19 -11 -10 0 -18 5 -18 11 0 6 8 11 18 11 10 0
19 -5 19 -11z m403 -3 c0 -7 -5 -10 -11 -6 -6 3 -15 0 -20 -7 -7 -11 -9 -9 -9
6 0 14 6 21 20 21 11 0 20 -6 20 -14z m400 0 c0 -7 -5 -10 -11 -6 -6 3 -15 0
-20 -7 -6 -10 -8 -8 -7 6 2 23 38 29 38 7z m409 -5 c11 -16 10 -17 -9 -7 -11
6 -24 9 -29 6 -4 -3 -8 0 -8 7 0 19 33 15 46 -6z m-1749 -7 c0 -5 -5 -10 -11
-10 -5 0 -7 5 -4 10 3 6 8 10 11 10 2 0 4 -4 4 -10z m255 0 c-3 -5 -11 -10
-16 -10 -6 0 -7 5 -4 10 3 6 11 10 16 10 6 0 7 -4 4 -10z m145 1 c0 -5 -7 -12
-16 -15 -14 -5 -15 -4 -4 9 14 17 20 19 20 6z m260 4 c0 -2 -10 -10 -22 -16
-21 -11 -22 -11 -9 4 13 16 31 23 31 12z m400 0 c0 -2 -10 -10 -22 -16 -21
-11 -22 -11 -9 4 13 16 31 23 31 12z m140 -5 c0 -5 -2 -10 -4 -10 -3 0 -8 5
-11 10 -3 6 -1 10 4 10 6 0 11 -4 11 -10z m405 0 c3 -5 2 -10 -4 -10 -5 0 -13
5 -16 10 -3 6 -2 10 4 10 5 0 13 -4 16 -10z m260 -10 c3 -6 -1 -7 -9 -4 -18 7
-21 14 -7 14 6 0 13 -4 16 -10z m-380 -18 c-3 -3 -11 0 -18 7 -9 10 -8 11 6 5
10 -3 15 -9 12 -12z m-1435 -2 c0 -5 -2 -10 -4 -10 -3 0 -8 5 -11 10 -3 6 -1
10 4 10 6 0 11 -4 11 -10z m155 0 c-3 -5 -10 -10 -16 -10 -5 0 -9 5 -9 10 0 6
7 10 16 10 8 0 12 -4 9 -10z m405 6 c0 -3 -4 -8 -10 -11 -5 -3 -10 -1 -10 4 0
6 5 11 10 11 6 0 10 -2 10 -4z m251 -13 c13 -15 12 -15 -8 -4 -24 12 -29 21
-14 21 5 0 15 -7 22 -17z m149 13 c0 -3 -4 -8 -10 -11 -5 -3 -10 -1 -10 4 0 6
5 11 10 11 6 0 10 -2 10 -4z m240 -6 c0 -5 -2 -10 -4 -10 -3 0 -8 5 -11 10 -3
6 -1 10 4 10 6 0 11 -4 11 -10z m160 6 c0 -3 -4 -8 -10 -11 -5 -3 -10 -1 -10
4 0 6 5 11 10 11 6 0 10 -2 10 -4z m250 -6 c0 -5 -4 -10 -10 -10 -5 0 -10 5
-10 10 0 6 5 10 10 10 6 0 10 -4 10 -10z m150 6 c0 -3 -4 -8 -10 -11 -5 -3
-10 -1 -10 4 0 6 5 11 10 11 6 0 10 -2 10 -4z m-1472 -31 c1 -14 -1 -16 -7 -6
-5 7 -14 10 -20 7 -6 -4 -11 -1 -11 6 0 22 36 16 38 -7z m402 0 c0 -17 -2 -17
-10 -5 -8 12 -12 13 -19 2 -6 -11 -9 -9 -13 6 -4 16 -1 19 18 18 17 -1 24 -7
24 -21z m400 0 c0 -17 -2 -17 -10 -5 -9 13 -11 13 -20 0 -8 -12 -10 -12 -10 5
0 14 6 21 20 21 14 0 20 -7 20 -21z m402 2 c-3 -12 -7 -16 -10 -9 -3 10 -7 10
-18 1 -11 -9 -14 -8 -14 7 0 13 8 19 24 20 19 1 23 -2 18 -19z m-587 -7 c-36
-24 -36 -24 -61 -4 -18 14 -18 15 4 4 19 -9 28 -8 45 4 12 8 27 15 32 15 6 1
-3 -8 -20 -19z m-825 -3 c12 4 13 3 1 -5 -7 -5 -10 -15 -7 -21 4 -6 2 -11 -3
-11 -6 0 -11 7 -11 16 0 9 -6 14 -13 11 -8 -3 -14 1 -14 8 0 9 6 11 16 6 9 -5
23 -6 31 -4z m389 -14 c7 -14 7 -23 1 -23 -6 0 -10 7 -10 16 0 9 -6 14 -13 11
-8 -3 -14 0 -14 7 0 21 25 14 36 -11z m809 12 c4 6 14 11 22 13 10 1 9 -3 -5
-13 -22 -17 -37 -15 -43 6 -3 11 -2 11 7 -1 7 -9 14 -11 19 -5z m429 2 c0 -7
-9 -13 -19 -13 -18 0 -18 1 -2 13 10 7 18 13 19 13 1 0 2 -6 2 -13z m-1712
-38 c-4 -6 -1 -16 7 -22 7 -7 11 -11 9 -10 -2 1 -13 -3 -25 -9 -19 -10 -20
-10 -7 5 12 15 11 17 -5 17 -17 0 -17 1 2 15 23 17 27 18 19 4z m402 -1 c-2
-7 1 -17 7 -23 6 -5 9 -9 7 -8 -2 1 -13 -3 -25 -9 -17 -8 -19 -8 -9 2 10 11 9
16 -5 27 -9 8 -12 12 -5 9 6 -4 14 -2 18 4 9 14 18 13 12 -2z m153 1 c0 -5 5
-7 10 -4 6 3 10 2 10 -4 0 -5 -6 -12 -12 -14 -10 -4 -9 -8 2 -16 8 -6 11 -11
5 -11 -5 1 -19 7 -29 15 -12 9 -15 15 -7 15 8 0 11 6 7 15 -3 8 -1 15 4 15 6
0 10 -5 10 -11z m249 -6 c-12 -15 -12 -16 8 -11 14 4 20 2 17 -6 -7 -18 -26
-15 -49 7 -11 11 -15 17 -8 13 6 -3 14 -2 18 4 3 5 11 10 17 10 6 0 5 -7 -3
-17z m160 8 c12 -8 12 -11 -1 -25 -9 -8 -18 -12 -22 -9 -3 3 -14 0 -23 -8 -16
-12 -17 -12 -6 2 7 9 10 19 6 23 -4 4 1 4 12 0 15 -6 17 -4 12 9 -7 19 1 21
22 8z m244 -8 c-5 -13 -2 -15 13 -10 18 7 18 7 0 -7 -22 -18 -51 0 -34 22 15
18 28 15 21 -5z m157 2 c10 -12 10 -15 0 -15 -10 0 -10 -3 0 -15 16 -19 1 -19
-24 0 -17 13 -18 15 -3 15 20 0 23 16 5 23 -8 4 -9 6 -2 6 6 1 17 -6 24 -14z
m244 0 c-4 -9 0 -15 7 -15 12 0 11 -2 0 -9 -20 -13 -42 9 -27 26 15 17 27 16
20 -2z m156 0 c10 -12 10 -15 0 -15 -10 0 -10 -3 0 -15 7 -8 8 -15 2 -15 -5 0
-15 6 -21 14 -9 11 -9 15 1 19 10 4 10 8 -2 16 -8 6 -10 11 -4 11 6 0 17 -7
24 -15z m-1598 -14 c-5 -3 -11 -11 -13 -17 -2 -7 -12 -4 -24 8 -16 16 -17 18
-2 13 9 -4 17 -2 17 4 0 6 7 8 16 4 9 -3 11 -9 6 -12z m-95 -43 c-3 -8 -6 -5
-6 6 -1 11 2 17 5 13 3 -3 4 -12 1 -19z m423 8 c0 -2 -7 -6 -15 -10 -8 -3 -15
-1 -15 4 0 6 7 10 15 10 8 0 15 -2 15 -4z m186 -14 c3 4 13 1 21 -7 12 -12 12
-17 1 -27 -30 -29 -71 -8 -54 28 7 15 13 18 18 11 4 -6 10 -8 14 -5z m204 8
c0 -5 -5 -10 -11 -10 -5 0 -7 5 -4 10 3 6 8 10 11 10 2 0 4 -4 4 -10z m223
-22 c7 -4 5 -11 -4 -20 -17 -15 -40 -17 -55 -3 -15 13 4 45 23 38 7 -3 13 1
14 8 0 10 2 10 6 -1 3 -8 11 -18 16 -22z m177 20 c0 -4 -4 -8 -9 -8 -6 0 -12
4 -15 8 -3 5 1 9 9 9 8 0 15 -4 15 -9z m410 8 c0 -3 -4 -8 -10 -11 -5 -3 -10
-1 -10 4 0 6 5 11 10 11 6 0 10 -2 10 -4z m-1406 -18 c-3 -4 0 -8 6 -8 6 0 18
-7 27 -15 14 -14 13 -15 -13 -9 -27 7 -28 6 -14 -12 14 -18 14 -18 -3 -5 -9 8
-20 11 -23 8 -4 -3 -13 0 -21 8 -11 12 -12 17 -2 28 13 14 51 18 43 5z m1212
-7 c8 -10 8 -18 1 -26 -12 -12 -48 -15 -41 -3 3 4 -2 8 -10 8 -9 0 -16 5 -16
10 0 6 7 10 16 10 8 0 13 4 10 9 -9 15 28 7 40 -8z m-1596 -11 c0 -5 -4 -10
-10 -10 -5 0 -10 5 -10 10 0 6 5 10 10 10 6 0 10 -4 10 -10z m1960 0 c0 -5 -7
-10 -15 -10 -8 0 -15 5 -15 10 0 6 7 10 15 10 8 0 15 -4 15 -10z m-1770 -36
c0 -2 -7 -4 -15 -4 -8 0 -15 4 -15 10 0 5 7 7 15 4 8 -4 15 -8 15 -10z m795 6
c3 -5 2 -10 -4 -10 -5 0 -13 5 -16 10 -3 6 -2 10 4 10 5 0 13 -4 16 -10z
m-886 -40 c-7 -5 -8 -13 -3 -21 6 -11 5 -12 -8 -2 -8 7 -17 12 -19 10 -2 -1 1
3 7 8 6 6 9 17 6 25 -5 13 -3 13 12 1 12 -10 14 -16 5 -21z m161 0 c4 -3 2
-11 -6 -18 -10 -9 -14 -10 -14 -1 0 6 -8 18 -17 25 -17 13 -17 14 0 8 10 -4
17 -1 18 7 0 10 2 10 6 -1 3 -8 9 -17 13 -20z m252 16 c3 3 8 -2 11 -9 4 -11
0 -13 -14 -10 -15 4 -18 2 -13 -12 6 -15 5 -16 -15 -3 -17 10 -19 14 -6 16 13
3 14 6 3 19 -11 14 -11 15 8 5 12 -6 24 -9 26 -6z m142 3 c-3 -6 -2 -14 4 -18
6 -4 5 -11 -4 -19 -12 -11 -14 -10 -14 4 0 11 -5 14 -17 10 -11 -4 -8 2 7 14
29 23 34 25 24 9z m806 -4 c-9 -11 -9 -15 -1 -15 7 0 9 -4 6 -10 -3 -5 -11
-10 -16 -10 -6 0 -7 5 -3 12 5 8 0 9 -14 6 -30 -8 -28 -2 6 16 35 19 37 19 22
1z m396 0 c-3 -9 0 -15 9 -15 8 0 15 -5 15 -11 0 -5 -4 -8 -9 -4 -5 3 -12 1
-16 -5 -3 -5 -12 -10 -18 -10 -7 0 -6 4 3 10 13 8 12 11 -5 25 -11 9 -15 14
-8 11 6 -4 14 -2 18 4 10 15 18 12 11 -5z m-926 -19 c0 -2 -10 -2 -22 2 -21 5
-22 4 -9 -11 15 -19 1 -23 -16 -6 -17 17 7 40 30 28 9 -6 17 -11 17 -13z m128
-13 c-14 -18 -29 -16 -22 2 4 9 0 15 -7 15 -12 0 -11 2 0 9 19 12 43 -9 29
-26z m272 12 c0 -2 -8 -1 -17 2 -12 5 -15 2 -10 -10 7 -18 -8 -24 -18 -7 -4 6
-12 7 -18 4 -7 -4 -3 2 8 13 15 15 25 18 38 11 9 -5 17 -11 17 -13z m386 9
c-9 -6 -17 -20 -17 -30 -1 -17 -2 -17 -6 -1 -2 9 -9 17 -14 17 -5 0 -4 6 2 13
7 7 21 13 31 13 17 0 17 -2 4 -12z m-1542 -39 c-9 -22 -41 -38 -41 -20 0 7 6
11 14 8 7 -3 13 2 13 11 0 9 4 16 10 16 5 0 7 -7 4 -15z m1606 -1 c0 -9 6 -14
13 -11 8 3 14 -1 14 -9 0 -7 -4 -11 -8 -8 -4 2 -9 -3 -11 -12 -2 -8 -8 1 -14
20 -6 20 -7 36 -3 36 5 0 9 -7 9 -16z m-1208 -9 c20 2 25 -1 21 -12 -5 -12 -7
-12 -14 -1 -6 8 -12 9 -16 3 -5 -5 -15 -11 -23 -13 -8 -2 -12 0 -8 4 4 4 2 14
-5 23 -10 14 -10 14 3 5 8 -7 27 -11 42 -9z m-379 -10 c-3 -9 -8 -14 -10 -11
-3 3 -2 9 2 15 9 16 15 13 8 -4z m803 -1 c18 -14 18 -15 -5 -4 -13 7 -26 8
-30 4 -3 -5 -13 -10 -21 -12 -10 -1 -9 2 4 13 25 19 28 19 52 -1z m414 -10 c0
-2 -9 0 -20 6 -11 6 -20 13 -20 16 0 2 9 0 20 -6 11 -6 20 -13 20 -16z m-1035
6 c11 9 14 7 12 -7 0 -11 -9 -19 -23 -19 -17 -1 -20 2 -16 19 3 12 7 16 10 9
3 -10 7 -10 17 -2z m404 -2 c6 11 9 9 13 -5 4 -16 0 -20 -22 -20 -22 0 -26 4
-22 20 4 14 7 16 13 5 8 -11 10 -11 18 0z m387 1 c5 -8 9 -8 14 1 5 8 9 6 12
-7 4 -16 0 -20 -21 -20 -19 0 -27 6 -27 19 0 20 11 24 22 7z m194 -1 c0 -6 -3
-8 -7 -5 -3 4 -13 1 -22 -6 -14 -11 -14 -10 -2 6 15 20 31 22 31 5z m222 4 c3
7 7 3 10 -9 5 -17 1 -20 -18 -19 -16 1 -24 7 -24 20 0 15 3 16 14 7 11 -9 15
-9 18 1z m-1329 -39 c-7 -3 -23 5 -35 17 l-23 22 35 -17 c19 -10 30 -20 23
-22z m402 7 c3 -5 2 -10 -4 -10 -5 0 -13 5 -16 10 -3 6 -2 10 4 10 5 0 13 -4
16 -10z m245 0 c0 -5 -5 -10 -11 -10 -5 0 -7 5 -4 10 3 6 8 10 11 10 2 0 4 -4
4 -10z m155 0 c3 -5 1 -10 -4 -10 -6 0 -11 5 -11 10 0 6 2 10 4 10 3 0 8 -4
11 -10z m245 0 c0 -5 -5 -10 -11 -10 -5 0 -7 5 -4 10 3 6 8 10 11 10 2 0 4 -4
4 -10z m155 0 c3 -5 1 -10 -4 -10 -6 0 -11 5 -11 10 0 6 2 10 4 10 3 0 8 -4
11 -10z m250 0 c-3 -5 -11 -10 -16 -10 -6 0 -7 5 -4 10 3 6 11 10 16 10 6 0 7
-4 4 -10z m150 0 c3 -5 1 -10 -4 -10 -6 0 -11 5 -11 10 0 6 2 10 4 10 3 0 8
-4 11 -10z m-1807 -24 c-2 -1 -12 -8 -23 -16 -18 -14 -19 -13 -8 1 7 9 10 19
6 23 -4 4 1 4 10 0 10 -3 17 -7 15 -8z m402 -8 c0 -6 -6 -5 -15 2 -8 7 -15 14
-15 16 0 2 7 1 15 -2 8 -4 15 -11 15 -16z m256 -6 c-4 -3 -14 2 -24 12 -16 18
-16 18 6 6 13 -6 21 -14 18 -18z m554 13 c-7 -8 -18 -15 -24 -15 -6 0 -2 7 8
15 25 19 32 19 16 0z m650 0 c-7 -9 -15 -13 -19 -10 -3 3 1 10 9 15 21 14 24
12 10 -5z m-1731 -11 c4 3 8 0 8 -7 0 -19 -33 -15 -46 6 -11 16 -10 17 9 7 11
-6 24 -9 29 -6z m126 6 c3 -5 2 -10 -4 -10 -5 0 -13 5 -16 10 -3 6 -2 10 4 10
5 0 13 -4 16 -10z m545 0 c0 -5 -5 -10 -11 -10 -5 0 -7 5 -4 10 3 6 8 10 11
10 2 0 4 -4 4 -10z m547 -11 c-6 -10 -15 -15 -20 -12 -5 3 -13 -1 -18 -8 -6
-10 -9 -8 -9 8 0 16 4 21 15 17 8 -4 15 -2 15 3 0 5 6 10 14 10 11 0 12 -4 3
-18z m258 11 c-3 -5 -11 -10 -16 -10 -6 0 -7 5 -4 10 3 6 11 10 16 10 6 0 7
-4 4 -10z m144 -8 c-13 -21 -49 -24 -49 -4 0 7 4 10 10 7 5 -3 18 -1 27 4 24
14 25 14 12 -7z m-1212 -7 c0 -6 -9 -11 -19 -11 -10 0 -18 5 -18 11 0 6 8 11
18 11 10 0 19 -5 19 -11z m403 -3 c0 -7 -5 -10 -11 -6 -6 3 -15 0 -20 -7 -7
-11 -9 -9 -9 6 0 14 6 21 20 21 11 0 20 -6 20 -14z m-616 -13 c4 6 13 11 19
11 7 0 4 -7 -7 -15 -10 -7 -15 -18 -11 -24 3 -6 -1 -11 -9 -11 -10 0 -13 6 -9
17 5 13 2 15 -12 10 -15 -6 -16 -5 -5 8 10 11 15 13 20 4 6 -8 9 -8 14 0z
m410 -31 c6 -5 1 -8 -11 -8 -16 0 -21 4 -17 15 4 8 1 15 -6 15 -6 0 -8 5 -4
11 4 8 10 5 17 -7 6 -11 15 -22 21 -26z m376 33 c0 -5 -7 -12 -16 -15 -14 -5
-15 -4 -4 9 14 17 20 19 20 6z m43 -4 c3 -7 -3 -13 -13 -13 -10 0 -16 6 -13
13 3 7 9 13 13 13 4 0 10 -6 13 -13z m379 4 c2 7 8 6 17 -5 12 -14 12 -16 -3
-10 -11 4 -16 0 -17 -12 -1 -17 -2 -17 -6 -1 -2 9 -9 17 -14 17 -5 0 -9 5 -9
11 0 8 4 8 14 0 11 -9 15 -9 18 0z m-1522 -41 c10 -6 11 -10 3 -10 -7 0 -13
-6 -13 -13 0 -7 -8 -13 -18 -13 -10 0 -19 6 -19 12 0 7 7 9 15 6 11 -4 14 -1
9 11 -7 19 1 21 23 7z m234 -1 c-3 -6 -1 -15 6 -19 8 -5 7 -9 -5 -13 -9 -4
-13 -3 -10 2 3 5 0 13 -6 17 -8 4 -7 9 2 15 19 12 21 11 13 -2z m166 1 c10 -6
11 -10 3 -10 -7 0 -13 -6 -13 -13 0 -7 -8 -13 -18 -13 -10 0 -19 6 -19 12 0 7
7 9 15 6 11 -4 14 -1 9 11 -7 19 1 21 23 7z m241 3 c-11 -4 -9 -9 7 -22 l22
-16 -25 -1 c-13 -1 -23 3 -22 10 1 6 -5 10 -13 8 -10 -1 -9 2 4 13 11 8 25 15
30 14 6 0 5 -3 -3 -6z m159 -13 c-7 -4 -10 -12 -6 -18 3 -6 -4 -9 -17 -8 -13
0 -24 6 -24 13 0 6 6 9 14 6 7 -3 13 2 13 11 0 10 6 13 16 9 11 -4 12 -8 4
-13z m258 -6 c13 5 12 2 -2 -9 -22 -17 -40 -20 -31 -6 3 5 0 13 -6 17 -8 4 -7
9 2 15 9 6 15 3 17 -7 2 -10 10 -13 20 -10z m59 20 c-3 -3 -12 -4 -19 -1 -8 3
-5 6 6 6 11 1 17 -2 13 -5z m83 -19 c-5 -6 -7 -14 -4 -17 3 -3 -5 -5 -19 -4
-13 0 -24 6 -24 13 0 6 6 9 14 6 7 -3 13 2 13 11 0 10 6 13 15 10 11 -5 13
-10 5 -19z m254 -2 c7 3 13 -1 13 -9 0 -7 -4 -11 -8 -8 -5 3 -19 -1 -31 -7
-22 -12 -22 -11 -8 6 12 15 13 19 1 23 -11 4 -11 6 0 13 9 6 15 3 17 -7 2 -9
9 -13 16 -11z m166 6 c0 -5 -6 -8 -12 -6 -7 1 -12 -4 -10 -10 2 -15 -14 -17
-23 -4 -3 5 -1 12 5 16 6 4 8 10 5 15 -3 4 4 6 15 3 11 -3 20 -9 20 -14z m223
4 c-5 -13 -2 -15 13 -10 18 7 18 6 -1 -8 -18 -14 -20 -14 -23 -1 -2 9 -9 16
-15 16 -7 0 -6 4 3 10 22 14 30 12 23 -7z m-510 -60 c-3 -7 1 -13 8 -13 11 0
11 -2 0 -9 -13 -8 -13 -12 0 -27 13 -16 12 -16 -9 -5 -12 6 -27 9 -32 6 -6 -3
-10 1 -10 9 0 9 -6 16 -12 17 -10 0 -10 2 0 6 6 2 12 12 12 20 0 13 3 13 15 3
13 -11 15 -8 16 16 0 25 2 26 8 9 5 -11 6 -26 4 -32z m-1218 7 c3 6 11 10 17
10 6 0 5 -7 -3 -17 -12 -15 -12 -16 8 -11 15 4 20 2 16 -8 -3 -7 -10 -12 -16
-11 -7 1 -11 -2 -10 -8 1 -5 -9 -11 -22 -11 -16 -1 -22 2 -18 12 3 8 -1 14 -8
14 -11 0 -11 2 1 10 13 8 12 12 -5 26 -19 15 -18 15 7 0 17 -10 29 -12 33 -6z
m199 -5 c-4 -8 -7 -15 -9 -15 -2 0 -5 7 -9 15 -3 9 0 15 9 15 9 0 12 -6 9 -15z
m203 3 c2 6 9 12 14 12 6 0 7 -5 3 -11 -3 -6 0 -15 7 -20 10 -6 11 -9 2 -9 -7
0 -13 -6 -13 -12 0 -7 -11 -14 -24 -14 -18 -1 -23 2 -19 14 5 12 2 14 -13 9
-18 -7 -18 -6 -1 7 9 7 17 19 17 27 0 11 2 11 11 -1 8 -11 12 -12 16 -2z m203
8 c0 -3 -4 -8 -10 -11 -5 -3 -10 -1 -10 4 0 6 5 11 10 11 6 0 10 -2 10 -4z
m197 -8 c2 6 9 12 14 12 6 0 7 -5 3 -11 -3 -6 0 -15 7 -20 10 -6 11 -9 2 -9
-7 0 -13 -6 -13 -13 0 -7 -9 -13 -20 -13 -11 0 -20 7 -20 14 0 9 -6 12 -17 8
-17 -6 -17 -5 0 8 9 7 17 19 17 27 0 11 2 11 11 -1 8 -11 12 -12 16 -2z m610
6 c-3 -3 -12 -4 -19 -1 -8 3 -5 6 6 6 11 1 17 -2 13 -5z m176 -23 c-2 -11 2
-21 7 -21 6 0 10 11 10 25 0 17 5 25 18 25 14 0 15 -2 2 -10 -13 -8 -12 -11 5
-25 16 -12 17 -14 3 -9 -21 7 -24 -6 -5 -25 10 -11 8 -11 -11 -2 -12 7 -27 9
-32 6 -6 -4 -9 -1 -8 7 2 7 -2 12 -9 11 -6 -1 -13 4 -16 11 -4 10 1 12 16 8
20 -5 21 -4 7 13 -13 16 -13 18 0 13 8 -3 14 -15 13 -27z m-1379 -39 c3 -5 -1
-9 -9 -9 -8 0 -15 4 -15 9 0 4 4 8 9 8 6 0 12 -4 15 -8z m1196 4 c0 -2 -7 -7
-16 -10 -8 -3 -12 -2 -9 4 6 10 25 14 25 6z m-1516 -48 c8 -6 8 -8 -1 -8 -6 0
-14 -8 -16 -17 -4 -14 -5 -13 -6 4 0 12 -6 25 -12 29 -8 4 -7 9 2 15 9 5 16 4
18 -4 2 -7 9 -15 15 -19z m236 21 c11 -8 12 -12 2 -16 -6 -2 -10 -9 -6 -14 3
-5 1 -9 -5 -9 -16 0 -22 18 -9 23 10 4 9 8 -2 16 -8 6 -10 11 -5 11 6 0 17 -5
25 -11z m169 -26 c14 -10 14 -11 -4 -10 -11 1 -26 8 -34 15 -12 12 -12 15 0
23 9 5 15 4 18 -4 2 -7 11 -17 20 -24z m229 2 c0 -21 -3 -23 -15 -14 -10 9
-11 14 -2 19 6 5 8 13 4 20 -5 8 -4 11 2 7 6 -4 11 -18 11 -32z m171 -2 c14
-10 14 -11 -4 -10 -11 1 -26 8 -34 15 -12 12 -12 15 0 23 9 5 15 4 18 -4 2 -7
11 -17 20 -24z m251 12 c0 -3 -6 -4 -12 -2 -7 1 -12 -3 -11 -10 2 -7 -4 -10
-13 -6 -12 4 -12 8 -4 13 7 4 9 13 5 20 -6 9 -3 9 14 1 11 -7 21 -14 21 -16z
m380 14 c0 -5 5 -7 10 -4 6 3 10 3 10 0 0 -12 -25 -30 -45 -32 -19 -1 -19 -1
-1 12 10 8 15 18 11 24 -3 6 -1 11 4 11 6 0 11 -5 11 -11z m163 4 c-21 -8 -15
-26 7 -20 27 7 25 3 -7 -18 -23 -16 -25 -16 -20 -1 4 10 1 16 -8 16 -8 0 -15
5 -15 11 0 5 4 8 9 4 5 -3 12 -1 16 5 3 5 12 10 18 9 9 0 9 -2 0 -6z m246 -2
c12 -8 12 -11 0 -23 -8 -7 -23 -14 -34 -15 -19 -1 -19 -1 -1 12 10 8 15 18 11
24 -8 13 5 14 24 2z m-649 -19 c19 -17 19 -18 0 -18 -10 0 -16 4 -14 8 3 4 -2
8 -10 8 -9 0 -16 5 -16 10 0 16 19 12 40 -8z m127 -34 c-3 -7 -5 -2 -5 12 0
14 2 19 5 13 2 -7 2 -19 0 -25z m-1012 12 c3 -5 1 -10 -4 -10 -6 0 -11 5 -11
10 0 6 2 10 4 10 3 0 8 -4 11 -10z m1522 -32 c-3 -8 -6 -5 -6 6 -1 11 2 17 5
13 3 -3 4 -12 1 -19z m-1533 -3 c-4 -8 -10 -12 -15 -9 -14 8 -10 24 6 24 9 0
12 -6 9 -15z m440 -2 c4 -11 1 -11 -14 -3 -15 8 -28 7 -52 -6 -33 -16 -33 -16
-13 3 23 22 72 26 79 6z m391 5 c3 -3 -8 -5 -25 -5 -16 0 -30 4 -30 8 0 8 47
5 55 -3z m401 -1 c4 -3 -6 -5 -20 -3 -14 1 -29 5 -32 9 -3 3 6 4 20 3 15 -2
29 -6 32 -9z m-1412 -6 c-2 -2 1 -10 7 -18 8 -9 8 -13 1 -13 -6 0 -14 5 -17
10 -5 7 -11 8 -19 1 -8 -7 -12 -5 -12 8 0 13 7 18 22 17 12 0 20 -3 18 -5z
m408 -13 c-3 -14 -8 -16 -17 -8 -9 8 -14 7 -17 -2 -3 -7 -7 -4 -10 8 -4 17 -1
21 22 21 22 0 26 -4 22 -19z m404 0 c0 -21 -12 -24 -20 -5 -5 10 -7 10 -12 0
-8 -19 -20 -16 -20 5 0 13 8 19 26 19 18 0 26 -6 26 -19z m396 -1 c-3 -13 -7
-15 -12 -7 -5 9 -9 9 -14 1 -11 -17 -22 -13 -22 7 0 13 8 19 27 19 21 0 25 -4
21 -20z m404 2 c0 -13 -4 -15 -12 -8 -8 7 -14 6 -19 -1 -3 -5 -11 -10 -17 -10
-7 0 -7 4 1 13 6 8 9 16 7 18 -2 2 6 5 18 5 15 1 22 -4 22 -17z m-949 -11 c-3
-8 -6 -5 -6 6 -1 11 2 17 5 13 3 -3 4 -12 1 -19z m-787 -14 c0 -2 -9 0 -20 6
-11 6 -20 13 -20 16 0 2 9 0 20 -6 11 -6 20 -13 20 -16z m400 0 c0 -2 -9 0
-20 6 -11 6 -20 13 -20 16 0 2 9 0 20 -6 11 -6 20 -13 20 -16z m1054 13 c-3
-8 -12 -14 -21 -14 -13 0 -13 2 3 14 10 7 19 13 21 13 1 0 0 -6 -3 -13z m406
8 c0 -2 -10 -9 -22 -15 -22 -11 -22 -10 -4 4 21 17 26 19 26 11z m-1820 -47
c0 -6 -6 -5 -15 2 -8 7 -15 14 -15 16 0 2 7 1 15 -2 8 -4 15 -11 15 -16z m395
4 c-3 -3 -11 0 -18 7 -9 10 -8 11 6 5 10 -3 15 -9 12 -12z m681 -8 c8 3 14 0
14 -7 0 -7 -9 -13 -20 -13 -15 0 -20 7 -19 26 1 18 3 20 6 7 3 -11 11 -16 19
-13z m684 12 c-7 -7 -13 -7 -20 0 -6 6 -3 10 10 10 13 0 16 -4 10 -10z m-1611
-18 c-1 -18 -2 -19 -6 -5 -2 9 -9 14 -15 11 -7 -4 -8 -2 -4 4 12 20 26 13 25
-10z m127 13 c11 9 14 8 14 -7 0 -13 -8 -19 -24 -20 -19 -1 -23 2 -18 19 3 12
7 16 10 9 3 -10 7 -10 18 -1z m271 -23 c-3 -7 -5 -2 -5 12 0 14 2 19 5 13 2
-7 2 -19 0 -25z m133 22 c8 12 10 12 10 -5 0 -14 -6 -21 -20 -21 -14 0 -20 7
-20 21 0 17 2 17 10 5 9 -13 11 -13 20 0z m802 -4 c3 2 8 -2 11 -9 4 -10 -1
-14 -17 -13 -14 0 -23 8 -23 19 -2 14 1 16 11 8 7 -6 15 -8 18 -5z m151 -6
c19 -11 42 -18 51 -14 9 3 16 1 16 -5 0 -19 -40 -12 -78 14 -44 30 -37 33 11
5z m-1108 0 c-3 -5 -12 -10 -18 -10 -7 0 -6 4 3 10 19 12 23 12 15 0z m-435
-22 c0 -5 -4 -8 -10 -8 -5 0 -11 -8 -11 -17 -1 -17 -2 -17 -6 0 -2 9 -9 17
-14 17 -5 0 -9 4 -9 9 0 5 11 8 25 7 14 0 25 -4 25 -8z m400 0 c0 -5 -11 -8
-25 -8 -14 0 -25 4 -25 9 0 5 11 8 25 7 14 0 25 -4 25 -8z m404 0 c-3 -4 -16
-8 -30 -8 -13 0 -24 4 -24 8 0 5 13 9 30 9 16 0 27 -4 24 -9z m366 2 c0 -5 -4
-10 -10 -10 -5 0 -10 5 -10 10 0 6 5 10 10 10 6 0 10 -4 10 -10z m40 0 c0 -5
-7 -10 -16 -10 -8 0 -12 5 -9 10 3 6 10 10 16 10 5 0 9 -4 9 -10z m-1120 -55
c0 -2 -7 -2 -15 1 -9 4 -15 0 -15 -10 0 -10 -6 -13 -16 -9 -12 4 -13 8 -3 14
10 6 10 11 -2 25 -13 16 -12 16 19 0 17 -9 32 -19 32 -21z m704 27 c2 -4 -4
-8 -14 -8 -10 0 -16 4 -14 8 3 4 9 8 14 8 5 0 11 -4 14 -8z m400 0 c2 -4 -4
-8 -14 -8 -10 0 -16 4 -14 8 3 4 9 8 14 8 5 0 11 -4 14 -8z m-1287 -16 c-1 -6
4 -10 11 -8 18 3 14 -6 -8 -18 -12 -6 -19 -7 -18 -1 2 5 -5 16 -15 23 -16 12
-15 13 7 14 14 1 24 -3 23 -10z m400 7 c-4 -3 -2 -12 3 -18 8 -9 6 -14 -5 -19
-9 -3 -13 -2 -10 3 3 5 0 13 -6 17 -8 4 -7 9 2 15 17 10 25 12 16 2z m183 -18
c0 -2 -8 -1 -17 2 -12 5 -15 2 -10 -10 7 -19 -1 -21 -23 -7 -10 6 -11 10 -2
10 6 0 12 7 12 15 0 13 4 14 20 5 11 -6 20 -13 20 -15z m218 13 c-2 -7 2 -12
9 -11 6 1 13 -3 16 -10 3 -7 -4 -12 -18 -12 -14 0 -21 5 -18 13 3 6 -1 12 -8
12 -11 0 -11 3 1 10 19 13 20 12 18 -2z m162 -8 c-7 -4 -10 -12 -6 -18 3 -6
-5 -9 -19 -8 -21 1 -23 3 -10 12 8 6 15 16 15 22 0 6 7 9 16 5 11 -4 12 -8 4
-13z m251 -5 c5 4 9 1 9 -4 0 -6 -2 -11 -4 -11 -2 0 -12 -3 -20 -6 -12 -5 -15
-2 -9 12 5 14 3 16 -13 11 -18 -7 -18 -6 1 8 18 15 20 15 23 0 2 -8 8 -13 13
-10z m149 5 c-7 -4 -10 -12 -7 -16 3 -5 -5 -9 -18 -9 -13 0 -21 5 -18 12 3 7
10 11 16 10 7 -1 11 3 10 10 -2 7 4 10 13 6 12 -4 12 -8 4 -13z m257 -15 c10
-8 8 -10 -11 -11 -18 -1 -23 2 -19 14 5 12 2 14 -13 9 -18 -7 -18 -6 1 8 15
12 21 13 24 3 2 -7 10 -17 18 -23z m143 10 c-5 -6 -6 -15 -2 -20 4 -4 -3 -2
-15 4 -25 13 -30 22 -10 19 6 -2 11 2 10 9 -2 7 4 10 12 6 11 -4 13 -9 5 -18z
m-1680 -39 c0 -3 -4 -8 -10 -11 -5 -3 -10 -1 -10 4 0 6 5 11 10 11 6 0 10 -2
10 -4z m67 -28 c-3 -7 -5 -2 -5 12 0 14 2 19 5 13 2 -7 2 -19 0 -25z m143 18
c0 -5 8 -15 18 -22 16 -13 16 -14 0 -8 -12 4 -18 1 -18 -8 0 -7 -9 -14 -20
-14 -11 0 -20 4 -20 10 0 5 -8 15 -17 22 -17 13 -17 14 1 7 15 -5 18 -3 13 9
-4 12 1 15 19 14 13 0 24 -5 24 -10z m404 2 c-4 -5 2 -16 12 -24 18 -14 18
-14 0 -7 -15 5 -18 3 -14 -9 5 -11 -1 -15 -22 -15 -21 0 -27 4 -22 15 4 11 1
14 -10 10 -8 -4 -15 -1 -15 7 0 8 7 11 15 7 11 -4 14 -1 10 10 -5 11 1 15 23
15 15 0 26 -4 23 -9z m398 -6 c-4 -11 -1 -14 10 -10 8 4 15 1 15 -7 0 -8 -7
-11 -15 -7 -11 4 -14 1 -10 -10 5 -11 -1 -15 -22 -15 -21 0 -27 4 -22 15 4 11
1 14 -10 10 -8 -4 -15 -1 -15 7 0 8 7 11 15 7 11 -4 14 -1 10 10 -5 11 1 15
22 15 21 0 27 -4 22 -15z m188 8 c0 -5 -2 -10 -4 -10 -3 0 -8 5 -11 10 -3 6
-1 10 4 10 6 0 11 -4 11 -10z m212 -8 c-4 -11 -1 -14 10 -10 8 4 15 1 15 -7 0
-8 -7 -11 -15 -7 -11 4 -14 1 -10 -10 5 -11 -1 -15 -23 -15 -15 0 -26 4 -23 9
4 5 -2 16 -12 24 -18 14 -18 14 0 7 15 -5 18 -3 14 9 -5 11 1 15 22 15 21 0
27 -4 22 -15z m188 8 c0 -5 -2 -10 -4 -10 -3 0 -8 5 -11 10 -3 6 -1 10 4 10 6
0 11 -4 11 -10z m-1605 -50 c3 -5 1 -10 -4 -10 -6 0 -11 5 -11 10 0 6 2 10 4
10 3 0 8 -4 11 -10z m1785 -4 c0 -2 -7 -7 -16 -10 -8 -3 -12 -2 -9 4 6 10 25
14 25 6z m-1840 -41 c0 -3 -6 -4 -12 -2 -7 1 -12 -4 -10 -10 2 -15 -7 -16 -26
-4 -11 7 -10 9 3 15 9 3 13 11 9 17 -4 8 0 8 15 0 11 -7 21 -14 21 -16z m134
10 c-4 -9 0 -15 7 -15 11 0 11 -3 -1 -10 -22 -14 -30 -12 -24 5 4 9 0 15 -7
15 -11 0 -11 3 1 10 22 14 30 12 24 -5z m269 -2 c-3 -7 -10 -11 -16 -10 -7 1
-11 -3 -10 -10 2 -7 -4 -10 -12 -6 -11 4 -13 9 -5 18 5 6 8 14 6 16 -2 2 6 4
19 4 13 0 21 -5 18 -12z m130 0 c-5 -13 -2 -15 13 -10 18 7 18 6 -1 -8 -18
-14 -20 -14 -23 -1 -4 18 -18 21 -27 6 -3 -5 -12 -10 -18 -10 -7 0 2 9 18 20
37 24 46 25 38 3z m247 -8 c-5 -6 -6 -15 -2 -20 4 -4 -3 -2 -15 4 -27 14 -31
23 -6 14 12 -5 15 -2 10 10 -4 11 -2 14 9 10 10 -4 12 -9 4 -18z m153 7 c-5
-11 -2 -14 10 -9 24 9 21 0 -3 -13 -12 -6 -19 -7 -18 -1 2 5 -5 16 -15 23 -16
12 -15 13 7 14 18 1 23 -2 19 -14z m257 8 c10 -6 11 -10 3 -10 -7 0 -13 -7
-13 -15 0 -9 -6 -12 -16 -8 -11 4 -12 8 -4 13 7 4 9 13 6 19 -9 14 4 14 24 1z
m144 1 c-2 -2 1 -10 6 -16 8 -9 6 -14 -5 -18 -8 -4 -14 -1 -12 6 1 7 -3 11
-10 10 -6 -1 -13 3 -16 10 -3 7 5 12 18 12 13 0 21 -2 19 -4z m263 -8 c10 -10
14 -15 9 -10 -15 11 -24 8 -28 -9 -3 -13 -5 -13 -23 1 -19 14 -19 15 -1 8 15
-5 18 -3 13 10 -8 22 6 22 30 0z m140 10 c-4 -3 -2 -12 3 -18 8 -9 6 -14 -5
-18 -8 -4 -14 -1 -12 6 1 7 -5 11 -13 9 -10 -1 -9 2 4 13 20 15 35 21 23 8z
m-1663 -76 l21 -18 -22 10 c-12 6 -29 8 -37 5 -9 -3 -16 -1 -16 5 0 6 5 11 10
11 6 0 10 8 11 18 0 13 2 14 6 2 4 -8 16 -23 27 -33z m786 33 c0 -5 -4 -10
-10 -10 -5 0 -10 5 -10 10 0 6 5 10 10 10 6 0 10 -4 10 -10z m403 -6 c-3 -8 0
-14 6 -14 6 0 11 -4 11 -8 0 -5 -14 -9 -31 -9 -27 0 -29 2 -16 12 10 7 13 15
7 21 -6 6 -3 10 10 11 13 1 17 -3 13 -13z m408 -14 c5 0 9 -4 9 -9 0 -5 -11
-8 -25 -7 -23 1 -37 16 -15 16 6 0 11 8 11 18 1 16 2 16 6 0 2 -10 9 -18 14
-18z m-796 -9 c2 -4 -9 -8 -25 -8 -16 0 -31 5 -34 12 -4 12 51 8 59 -4z m-394
-8 c13 -15 12 -15 -8 -5 -12 7 -29 9 -37 6 -9 -3 -16 -1 -16 5 0 17 46 13 61
-6z m-214 -10 c0 -7 -4 -10 -8 -7 -5 3 -19 -1 -31 -7 -20 -11 -21 -10 -11 3 7
8 10 17 7 20 -3 3 5 5 19 4 13 0 24 -6 24 -13z m403 2 c0 -15 -38 -13 -44 1
-3 7 5 11 20 10 13 0 24 -6 24 -11z m400 0 c0 -6 -9 -11 -20 -11 -11 0 -20 5
-20 11 0 6 9 11 20 11 11 0 20 -5 20 -11z m403 -1 c-3 -8 -10 -11 -15 -8 -6 4
-14 0 -19 -7 -6 -10 -8 -9 -7 6 1 13 10 20 24 21 15 1 21 -3 17 -12z m127 -9
c-7 -8 -17 -15 -23 -15 -6 0 -2 7 9 15 25 19 30 19 14 0z m-1475 -13 c-3 -3
-11 0 -18 7 -9 10 -8 11 6 5 10 -3 15 -9 12 -12z m258 5 c3 -7 -3 -13 -14 -13
-13 0 -15 3 -7 13 6 7 12 13 13 13 2 0 5 -6 8 -13z m1367 -10 c0 -2 -8 -3 -18
-3 -10 0 -19 6 -19 13 0 8 6 9 19 2 10 -5 18 -11 18 -12z m-1766 5 c2 -4 -4
-8 -14 -8 -10 0 -16 4 -14 8 3 4 9 8 14 8 5 0 11 -4 14 -8z m1361 -2 c3 -6 -1
-7 -9 -4 -18 7 -21 14 -7 14 6 0 13 -4 16 -10z m-1165 -26 c0 -2 -9 0 -20 6
-11 6 -20 13 -20 16 0 2 9 0 20 -6 11 -6 20 -13 20 -16z m1092 -38 c-2 -4 -8
-3 -12 4 -4 7 -13 9 -19 6 -7 -4 -11 1 -11 13 0 14 5 19 15 15 10 -4 15 0 16
12 1 11 5 6 8 -11 4 -16 5 -34 3 -39z m-1347 44 c3 -5 1 -10 -4 -10 -6 0 -11
5 -11 10 0 6 2 10 4 10 3 0 8 -4 11 -10z m409 -5 c-3 -6 -11 -12 -18 -12 -8 0
-12 6 -10 12 3 6 11 12 18 12 8 0 12 -6 10 -12z m400 3 c-3 -4 -9 -8 -15 -8
-5 0 -9 4 -9 8 0 5 7 9 15 9 8 0 12 -4 9 -9z m666 -14 c0 -2 -9 0 -20 6 -11 6
-20 13 -20 16 0 2 9 0 20 -6 11 -6 20 -13 20 -16z m400 0 c0 -2 -9 0 -20 6
-11 6 -20 13 -20 16 0 2 9 0 20 -6 11 -6 20 -13 20 -16z m-1745 6 c3 5 11 10
17 10 7 0 7 -4 -1 -13 -6 -8 -9 -16 -7 -18 2 -2 -6 -4 -18 -4 -14 0 -22 6 -22
17 0 12 4 14 12 7 8 -7 14 -6 19 1z m400 0 c9 8 14 6 17 -8 4 -15 0 -19 -22
-19 -23 0 -26 4 -22 21 3 12 7 15 10 8 3 -9 8 -10 17 -2z m415 -12 c0 -11 -5
-15 -15 -12 -10 4 -15 0 -15 -12 0 -15 -2 -16 -9 -5 -5 7 -7 21 -4 30 6 23 43
22 43 -1z m776 11 c5 -8 9 -8 14 1 5 8 9 5 12 -8 4 -16 1 -19 -17 -18 -13 0
-21 3 -19 5 2 2 -1 10 -7 18 -8 9 -8 13 -1 13 6 0 14 -5 18 -11z m-552 -17
c-22 -21 -71 -24 -78 -5 -4 11 -1 11 14 3 15 -8 27 -7 47 4 37 20 40 20 17 -2z
m-410 -5 c-5 -15 -64 -19 -64 -5 0 5 8 7 18 4 9 -3 24 -1 32 4 20 13 20 12 14
-3z m693 -9 c-3 -8 -6 -5 -6 6 -1 11 2 17 5 13 3 -3 4 -12 1 -19z m93 12 c15
8 18 8 14 -3 -6 -17 -62 -17 -68 0 -4 11 -1 11 14 3 14 -8 26 -8 40 0z m307
-12 c-3 -8 -6 -5 -6 6 -1 11 2 17 5 13 3 -3 4 -12 1 -19z m-1896 -5 c13 -16
12 -17 -3 -4 -10 7 -18 15 -18 17 0 8 8 3 21 -13z m379 3 c-4 -4 -16 -4 -26 2
-16 9 -14 10 8 9 15 -1 23 -6 18 -11z m10 -26 c8 -5 11 -10 5 -10 -5 0 -17 5
-25 10 -8 5 -10 10 -5 10 6 0 17 -5 25 -10z m306 -6 c-5 -13 -2 -15 13 -11 14
3 18 1 14 -9 -5 -15 -21 -14 -39 1 -8 7 -8 13 0 22 15 17 19 16 12 -3z m-401
-5 c-4 -5 1 -9 9 -9 9 0 16 -4 16 -8 0 -14 -24 -10 -42 8 -16 15 -16 16 3 17
11 1 17 -2 14 -8z m562 -13 c-10 -12 -37 -18 -37 -9 0 11 27 30 37 26 9 -4 9
-8 0 -17z m237 12 c-3 -4 2 -8 10 -8 9 0 16 -4 16 -8 0 -14 -24 -10 -42 8 -16
15 -16 16 2 16 10 0 16 -4 14 -8z m168 -8 c-20 -20 -39 -21 -46 -4 -3 8 2 10
16 6 12 -3 19 -1 15 4 -3 5 3 10 13 10 18 0 18 -1 2 -16z m401 14 c8 -9 -18
-34 -35 -34 -9 1 -7 5 4 14 10 7 15 16 11 19 -3 4 -2 7 4 7 5 0 12 -3 16 -6z"/>
<path d="M390 1694 c0 -8 5 -12 10 -9 6 4 8 11 5 16 -9 14 -15 11 -15 -7z"/>
<path d="M790 1700 c0 -5 5 -10 11 -10 5 0 7 5 4 10 -3 6 -8 10 -11 10 -2 0
-4 -4 -4 -10z"/>
<path d="M1196 1701 c-4 -7 -5 -15 -2 -18 9 -9 19 4 14 18 -4 11 -6 11 -12 0z"/>
<path d="M1595 1701 c-3 -5 -1 -12 5 -16 5 -3 10 1 10 9 0 18 -6 21 -15 7z"/>
<path d="M190 1350 c0 -5 5 -10 11 -10 5 0 7 5 4 10 -3 6 -8 10 -11 10 -2 0
-4 -4 -4 -10z"/>
<path d="M590 1350 c0 -5 5 -10 10 -10 6 0 10 5 10 10 0 6 -4 10 -10 10 -5 0
-10 -4 -10 -10z"/>
<path d="M990 1350 c0 -5 5 -10 10 -10 6 0 10 5 10 10 0 6 -4 10 -10 10 -5 0
-10 -4 -10 -10z"/>
<path d="M1390 1350 c0 -5 5 -10 10 -10 6 0 10 5 10 10 0 6 -4 10 -10 10 -5 0
-10 -4 -10 -10z"/>
<path d="M1790 1350 c0 -5 5 -10 10 -10 6 0 10 5 10 10 0 6 -4 10 -10 10 -5 0
-10 -4 -10 -10z"/>
<path d="M790 1000 c0 -5 5 -10 10 -10 6 0 10 5 10 10 0 6 -4 10 -10 10 -5 0
-10 -4 -10 -10z"/>
<path d="M1190 1000 c0 -5 5 -10 10 -10 6 0 10 5 10 10 0 6 -4 10 -10 10 -5 0
-10 -4 -10 -10z"/>
<path d="M390 1000 c0 -5 5 -10 10 -10 6 0 10 5 10 10 0 6 -4 10 -10 10 -5 0
-10 -4 -10 -10z"/>
<path d="M1590 1000 c0 -5 5 -10 10 -10 6 0 10 5 10 10 0 6 -4 10 -10 10 -5 0
-10 -4 -10 -10z"/>
<path d="M1390 650 c0 -5 5 -10 10 -10 6 0 10 5 10 10 0 6 -4 10 -10 10 -5 0
-10 -4 -10 -10z"/>
<path d="M190 650 c0 -5 5 -10 10 -10 6 0 10 5 10 10 0 6 -4 10 -10 10 -5 0
-10 -4 -10 -10z"/>
<path d="M590 650 c0 -5 5 -10 10 -10 6 0 10 5 10 10 0 6 -4 10 -10 10 -5 0
-10 -4 -10 -10z"/>
<path d="M990 650 c0 -5 5 -10 10 -10 6 0 10 5 10 10 0 6 -4 10 -10 10 -5 0
-10 -4 -10 -10z"/>
<path d="M390 304 c0 -8 5 -12 10 -9 6 4 8 11 5 16 -9 14 -15 11 -15 -7z"/>
<path d="M790 304 c0 -8 5 -12 10 -9 6 3 10 10 10 16 0 5 -4 9 -10 9 -5 0 -10
-7 -10 -16z"/>
<path d="M1190 310 c0 -5 5 -10 10 -10 6 0 10 5 10 10 0 6 -4 10 -10 10 -5 0
-10 -4 -10 -10z"/>
<path d="M1595 310 c-3 -5 -1 -10 4 -10 6 0 11 5 11 10 0 6 -2 10 -4 10 -3 0
-8 -4 -11 -10z"/>
</g>
</svg>
