<?xml version="1.0" standalone="no"?>
<!DOCTYPE svg PUBLIC "-//W3C//DTD SVG 20010904//EN"
 "http://www.w3.org/TR/2001/REC-SVG-20010904/DTD/svg10.dtd">
<svg version="1.0" xmlns="http://www.w3.org/2000/svg"
 width="200.000000pt" height="200.000000pt" viewBox="0 0 200.000000 200.000000"
 preserveAspectRatio="xMidYMid meet">
<metadata>
Created by potrace 1.16, written by Peter Selinger 2001-2019
</metadata>
<g transform="translate(0.000000,200.000000) scale(0.100000,-0.100000)"
fill="#000000" stroke="none">
<path d="M0 1967 c0 -18 6 -39 13 -46 10 -11 10 -13 0 -7 -10 6 -13 -64 -13
-336 l0 -344 100 -58 c56 -32 99 -60 97 -62 -2 -3 -46 20 -98 51 l-94 55 -3
-110 c-1 -61 -1 -159 0 -220 l3 -110 94 55 c52 31 96 54 98 51 2 -2 -41 -30
-97 -62 l-100 -58 0 -111 c0 -75 4 -115 13 -124 9 -11 9 -13 0 -7 -10 6 -13
-49 -13 -258 l0 -266 195 0 195 0 0 40 c0 22 -4 40 -8 40 -5 0 -17 7 -28 15
-17 14 -15 14 13 0 32 -15 35 -14 88 16 30 17 55 29 55 26 0 -3 -25 -20 -55
-37 -50 -29 -55 -35 -55 -66 l0 -34 389 0 390 0 4 22 4 23 2 -22 1 -23 405 0
405 0 0 63 c0 37 -5 69 -12 76 -10 11 -10 13 0 7 9 -6 12 29 12 159 0 130 -3
165 -12 159 -10 -6 -10 -4 -1 7 18 19 18 379 1 398 -10 11 -10 13 0 7 9 -6 12
22 12 124 l0 131 -22 -11 -23 -11 23 17 c21 16 22 21 22 193 0 128 -3 181 -12
190 -10 11 -10 13 0 7 9 -6 12 33 12 179 0 146 -3 185 -12 179 -10 -6 -10 -4
0 7 6 7 12 37 12 66 0 46 -3 53 -20 53 -15 0 -20 -7 -20 -24 0 -14 -4 -27 -8
-30 -5 -3 -6 8 -4 25 l4 29 -185 0 c-139 0 -187 -3 -190 -12 -4 -10 -6 -10 -6
0 -1 9 -42 12 -171 12 l-170 0 0 -30 c0 -23 7 -33 30 -45 17 -9 30 -18 30 -21
0 -3 -15 3 -32 13 -25 14 -34 27 -36 51 -3 32 -16 42 -25 20 -4 -10 -6 -10 -6
0 -1 9 -46 12 -191 12 l-190 0 0 -34 c0 -32 5 -37 94 -89 l94 -55 97 56 c52
30 98 52 101 49 3 -2 -36 -28 -85 -57 -50 -28 -93 -55 -96 -60 -3 -5 -52 18
-109 51 -104 60 -104 60 -135 44 -17 -8 -31 -13 -31 -11 0 3 13 12 28 20 22
12 28 22 29 50 l1 36 -199 0 -199 0 0 -33 c0 -18 6 -39 13 -46 10 -10 9 -11
-5 -6 -13 5 -18 18 -18 46 l0 39 -195 0 -195 0 0 -33z m1577 -21 c-3 -8 -16
-20 -29 -26 l-23 -11 23 17 c12 9 22 23 22 32 0 8 3 13 6 9 4 -3 4 -13 1 -21z
m123 -22 c0 -2 -9 0 -20 6 -11 6 -20 13 -20 16 0 2 9 0 20 -6 11 -6 20 -13 20
-16z m210 1 c0 -2 -10 -9 -22 -15 -22 -11 -22 -10 -4 4 21 17 26 19 26 11z
m-1530 -10 c0 -2 -10 -9 -22 -15 -22 -11 -22 -10 -4 4 21 17 26 19 26 11z
m855 -5 c3 -6 -1 -7 -9 -4 -18 7 -21 14 -7 14 6 0 13 -4 16 -10z m535 -26 c0
-2 -13 2 -30 11 -16 9 -30 18 -30 21 0 2 14 -2 30 -11 17 -9 30 -18 30 -21z
m-1700 0 c0 -2 -9 0 -20 6 -11 6 -20 13 -20 16 0 2 9 0 20 -6 11 -6 20 -13 20
-16z m1530 22 c0 -2 -7 -7 -16 -10 -8 -3 -12 -2 -9 4 6 10 25 14 25 6z m70
-32 c0 -2 -13 2 -30 11 -16 9 -30 18 -30 21 0 2 14 -2 30 -11 17 -9 30 -18 30
-21z m-1180 0 c0 -2 -9 0 -20 6 -11 6 -20 13 -20 16 0 2 9 0 20 -6 11 -6 20
-13 20 -16z m800 0 c0 -2 -9 0 -20 6 -11 6 -20 13 -20 16 0 2 9 0 20 -6 11 -6
20 -13 20 -16z m50 0 c0 -2 -9 0 -20 6 -11 6 -20 13 -20 16 0 2 9 0 20 -6 11
-6 20 -13 20 -16z m160 21 c0 -2 -10 -9 -22 -15 -22 -11 -22 -10 -4 4 21 17
26 19 26 11z m-1170 -10 c0 -2 -13 -11 -30 -20 -38 -19 -40 -11 -2 9 31 17 32
18 32 11z m400 1 c0 -2 -31 -22 -69 -44 -57 -33 -72 -38 -81 -27 -9 11 -7 12
7 9 10 -2 45 11 78 31 64 37 65 37 65 31z m1110 -1 c0 -2 -10 -9 -22 -15 -22
-11 -22 -10 -4 4 21 17 26 19 26 11z m-1700 -41 c0 -2 -13 2 -30 11 -16 9 -30
18 -30 21 0 2 14 -2 30 -11 17 -9 30 -18 30 -21z m1400 31 c0 -2 -10 -9 -22
-15 -22 -11 -22 -10 -4 4 21 17 26 19 26 11z m-1000 -31 c0 -2 -9 0 -20 6 -11
6 -20 13 -20 16 0 2 9 0 20 -6 11 -6 20 -13 20 -16z m1180 0 c0 -2 -9 0 -20 6
-11 6 -20 13 -20 16 0 2 9 0 20 -6 11 -6 20 -13 20 -16z m-360 -10 c0 -2 -9 0
-20 6 -11 6 -20 13 -20 16 0 2 9 0 20 -6 11 -6 20 -13 20 -16z m63 14 c-2 -5
-13 -8 -23 -8 -10 0 -21 3 -23 8 -3 4 8 7 23 7 15 0 26 -3 23 -7z m527 7 c0
-2 -10 -9 -22 -15 -22 -11 -22 -10 -4 4 21 17 26 19 26 11z m-1690 -10 c0 -2
-13 -11 -30 -20 -29 -15 -30 -17 -32 -98 l-2 -82 -3 80 c-3 68 -7 83 -26 98
l-22 18 26 -12 c21 -9 32 -8 55 5 33 17 34 18 34 11z m1230 0 c0 -2 -10 -9
-22 -15 -22 -11 -22 -10 -4 4 21 17 26 19 26 11z m300 -41 c0 -2 -9 0 -20 6
-11 6 -20 13 -20 16 0 2 9 0 20 -6 11 -6 20 -13 20 -16z m74 -2 c-12 -9 -24
-24 -27 -32 -4 -12 -6 -12 -6 2 -1 9 9 24 21 32 30 21 38 20 12 -2z m-447
-164 c-2 -35 -3 -9 -3 57 0 66 1 94 3 63 2 -32 2 -86 0 -120z m446 -52 l22
-18 -25 14 c-23 14 -25 21 -26 89 l-1 74 4 -70 c3 -57 8 -73 26 -89z m-853 92
c0 -18 -2 -20 -9 -8 -6 8 -7 18 -5 22 9 14 14 9 14 -14z m-779 -113 c16 -9 29
-18 29 -21 0 -2 -14 3 -31 11 -17 9 -38 14 -47 10 -14 -5 -15 -4 -4 6 6 7 13
27 14 44 l1 30 4 -33 c3 -23 12 -36 34 -47z m779 10 c0 -8 -4 -15 -9 -15 -5 0
-48 -22 -96 -50 -48 -27 -91 -50 -95 -50 -5 0 -7 -8 -4 -17 3 -13 2 -12 -6 2
-6 11 -54 44 -107 74 l-95 53 -41 -22 c-22 -13 -37 -19 -34 -14 3 5 21 17 41
28 l35 19 100 -57 99 -57 49 25 c26 14 73 41 103 60 30 19 56 35 58 35 1 1 2
-6 2 -14z m780 10 c0 -2 -10 -9 -22 -15 -22 -11 -22 -10 -4 4 21 17 26 19 26
11z m-320 -31 c0 -2 -9 0 -20 6 -11 6 -20 13 -20 16 0 2 9 0 20 -6 11 -6 20
-13 20 -16z m-370 -35 c0 -6 4 -8 8 -5 5 3 18 -3 29 -14 12 -10 24 -16 27 -13
3 4 6 1 6 -4 0 -12 39 -11 58 1 7 4 12 5 12 2 0 -3 -12 -12 -27 -20 -25 -13
-30 -12 -58 7 -16 12 -32 25 -33 29 -2 5 -8 6 -12 3 -5 -3 -18 3 -29 14 -11
11 -22 17 -25 14 -3 -4 -6 -1 -6 5 0 7 -5 11 -11 10 -6 -2 -14 3 -16 10 -4 9
8 7 36 -7 23 -12 41 -26 41 -32z m830 25 c0 -2 -9 0 -20 6 -11 6 -20 13 -20
16 0 2 9 0 20 -6 11 -6 20 -13 20 -16z m-1770 11 c0 -2 -13 -11 -30 -20 -38
-19 -40 -11 -2 9 31 17 32 18 32 11z m1270 -20 c17 -9 30 -18 30 -21 0 -2 -14
2 -30 11 -23 12 -35 13 -53 5 -21 -11 -21 -10 -3 4 24 19 21 19 56 1z m290 10
c0 -2 -10 -9 -22 -15 -22 -11 -22 -10 -4 4 21 17 26 19 26 11z m-1390 -41 c0
-2 -13 2 -30 11 -16 9 -30 18 -30 21 0 2 14 -2 30 -11 17 -9 30 -18 30 -21z
m1210 10 c0 -2 -9 0 -20 6 -11 6 -20 13 -20 16 0 2 9 0 20 -6 11 -6 20 -13 20
-16z m-1030 11 c0 -2 -13 -11 -30 -20 -38 -19 -40 -11 -2 9 31 17 32 18 32 11z
m1340 -31 c0 -2 -9 0 -20 6 -11 6 -20 13 -20 16 0 2 9 0 20 -6 11 -6 20 -13
20 -16z m-1780 11 c0 -2 -10 -9 -22 -15 -22 -11 -22 -10 -4 4 21 17 26 19 26
11z m1260 0 c0 -2 -10 -9 -22 -15 -22 -11 -22 -10 -4 4 21 17 26 19 26 11z
m180 -21 c0 -2 -9 0 -20 6 -11 6 -20 13 -20 16 0 2 9 0 20 -6 11 -6 20 -13 20
-16z m89 0 c14 -12 -19 -1 -35 12 -18 14 -18 14 6 3 14 -6 27 -13 29 -15z m51
21 c0 -2 -10 -9 -22 -15 -22 -11 -22 -10 -4 4 21 17 26 19 26 11z m-1270 -31
c0 -2 -9 0 -20 6 -11 6 -20 13 -20 16 0 2 9 0 20 -6 11 -6 20 -13 20 -16z
m1380 21 c0 -2 -10 -9 -22 -15 -22 -11 -22 -10 -4 4 21 17 26 19 26 11z
m-1337 -23 c-20 -15 -22 -27 -25 -133 -2 -90 0 -115 9 -112 7 3 16 -2 19 -11
3 -9 10 -13 15 -11 4 3 17 -3 28 -14 11 -11 22 -17 25 -14 3 4 6 1 6 -6 0 -7
4 -10 10 -6 5 3 18 -3 30 -15 11 -11 22 -20 25 -19 15 2 28 -8 24 -20 -3 -8
-13 -5 -32 13 -15 14 -27 23 -27 20 0 -2 -13 2 -30 11 -16 9 -30 20 -30 26 0
6 -4 7 -10 4 -5 -3 -10 -1 -10 5 0 6 -4 9 -9 5 -5 -3 -13 0 -16 5 -7 11 -56
10 -65 -1 -6 -8 -139 -89 -145 -89 -3 0 -5 4 -5 8 0 11 56 43 64 35 3 -3 6 -2
6 4 0 6 25 25 55 42 l55 31 0 119 c0 112 1 118 23 129 32 15 35 14 10 -6z
m857 3 c0 -2 -10 -9 -22 -15 -22 -11 -22 -10 -4 4 21 17 26 19 26 11z m280
-21 c0 -2 -9 0 -20 6 -11 6 -20 13 -20 16 0 2 9 0 20 -6 11 -6 20 -13 20 -16z
m130 1 c0 -2 -10 -9 -22 -15 -22 -11 -22 -10 -4 4 21 17 26 19 26 11z m261
-22 c13 -16 12 -17 -3 -4 -10 7 -18 15 -18 17 0 8 8 3 21 -13z m-374 -40 c-3
-10 -5 -4 -5 12 0 17 2 24 5 18 2 -7 2 -21 0 -30z m-769 -29 c-3 -27 -4 -26
-9 8 -3 22 -1 34 4 29 5 -5 7 -21 5 -37z m1149 9 c-3 -10 -5 -4 -5 12 0 17 2
24 5 18 2 -7 2 -21 0 -30z m-730 -40 c-3 -10 -5 -4 -5 12 0 17 2 24 5 18 2 -7
2 -21 0 -30z m350 -5 c-3 -8 -6 -5 -6 6 -1 11 2 17 5 13 3 -3 4 -12 1 -19z
m380 -20 c-3 -8 -6 -5 -6 6 -1 11 2 17 5 13 3 -3 4 -12 1 -19z m-1147 -27 c0
-28 6 -43 23 -56 22 -16 21 -16 -4 -1 -20 11 -29 12 -40 3 -10 -10 -11 -9 -2
3 6 8 9 32 7 53 -3 21 0 37 6 37 5 0 10 -17 10 -39z m767 -13 c-3 -7 -5 -2 -5
12 0 14 2 19 5 13 2 -7 2 -19 0 -25z m94 -15 c13 -16 12 -17 -3 -4 -17 13 -22
21 -14 21 2 0 10 -8 17 -17z m-430 -10 c13 -16 12 -17 -3 -4 -10 7 -18 15 -18
17 0 8 8 3 21 -13z m329 2 c0 -2 -10 -9 -22 -15 -22 -11 -22 -10 -4 4 21 17
26 19 26 11z m-400 -20 c0 -2 -10 -9 -22 -15 -22 -11 -22 -10 -4 4 21 17 26
19 26 11z m580 -21 c0 -2 -9 0 -20 6 -11 6 -20 13 -20 16 0 2 9 0 20 -6 11 -6
20 -13 20 -16z m130 11 c-7 -8 -17 -15 -23 -15 -6 0 -2 7 9 15 25 19 30 19 14
0z m-1110 0 c0 -2 -13 -11 -30 -20 -38 -19 -40 -11 -2 9 31 17 32 18 32 11z
m570 -31 c0 -2 -9 0 -20 6 -11 6 -20 13 -20 16 0 2 9 0 20 -6 11 -6 20 -13 20
-16z m-490 -10 c0 -2 -9 0 -20 6 -11 6 -20 13 -20 16 0 2 9 0 20 -6 11 -6 20
-13 20 -16z m70 0 c0 -2 -9 0 -20 6 -11 6 -20 13 -20 16 0 2 9 0 20 -6 11 -6
20 -13 20 -16z m889 0 c14 -12 -19 -1 -35 12 -18 14 -18 14 6 3 14 -6 27 -13
29 -15z m-1039 11 c0 -2 -10 -9 -22 -15 -22 -11 -22 -10 -4 4 21 17 26 19 26
11z m330 0 c0 -2 -10 -9 -22 -15 -22 -11 -22 -10 -4 4 21 17 26 19 26 11z
m114 -3 c2 -4 -4 -8 -14 -8 -10 0 -16 4 -14 8 3 4 9 8 14 8 5 0 11 -4 14 -8z
m-514 -7 c0 -2 -10 -9 -22 -15 -22 -11 -22 -10 -4 4 21 17 26 19 26 11z m690
-21 c0 -2 -9 0 -20 6 -11 6 -20 13 -20 16 0 2 9 0 20 -6 11 -6 20 -13 20 -16z
m46 11 c-11 -8 -25 -15 -30 -15 -6 1 0 7 14 15 32 19 40 18 16 0z m-266 0 c0
-2 -10 -9 -22 -15 -22 -11 -22 -10 -4 4 21 17 26 19 26 11z m85 -13 c-3 -3
-11 0 -18 7 -9 10 -8 11 6 5 10 -3 15 -9 12 -12z m-535 3 c0 -2 -13 -11 -30
-20 -38 -19 -40 -11 -2 9 31 17 32 18 32 11z m950 -31 c0 -2 -9 0 -20 6 -11 6
-20 13 -20 16 0 2 9 0 20 -6 11 -6 20 -13 20 -16z m-590 -14 c-14 -11 -29 -20
-35 -20 -5 0 4 9 20 20 38 25 48 25 15 0z m-438 -3 c-6 -6 -12 -28 -15 -47
l-4 -35 -1 36 c-1 19 3 40 10 47 16 16 23 15 10 -1z m336 -105 c-3 -93 -5
-106 -23 -116 -18 -10 -18 -10 -3 3 15 11 18 30 18 110 0 64 -4 101 -12 110
-11 10 -9 11 5 5 16 -6 17 -18 15 -112z m382 92 c0 -2 -9 0 -20 6 -11 6 -20
13 -20 16 0 2 9 0 20 -6 11 -6 20 -13 20 -16z m385 -15 c13 -20 0 -15 -25 9
-23 22 -23 24 -3 13 12 -6 25 -16 28 -22z m-260 11 c-3 -5 -12 -10 -18 -10 -7
0 -6 4 3 10 19 12 23 12 15 0z m-1281 -77 c1 -32 -1 -71 -4 -88 -3 -16 -7 12
-8 64 0 51 1 91 5 88 3 -3 6 -32 7 -64z m1686 0 l-5 -68 -3 54 c-3 47 1 81 10
81 2 0 1 -30 -2 -67z m-1303 -10 c-2 -16 -4 -5 -4 22 0 28 2 40 4 28 2 -13 2
-35 0 -50z m40 -35 c-3 -7 -5 -2 -5 12 0 14 2 19 5 13 2 -7 2 -19 0 -25z
m1119 -43 c-3 -8 -15 -19 -28 -25 l-23 -11 23 17 c15 11 22 28 23 53 2 31 3
32 6 8 3 -16 2 -35 -1 -42z m-1154 -15 c4 -29 1 -33 -61 -68 -36 -20 -69 -36
-73 -34 -5 1 -8 -2 -8 -6 0 -5 -11 -14 -25 -20 -21 -10 -25 -19 -27 -59 l-2
-48 -3 47 c-3 40 -9 50 -34 65 -16 9 -29 22 -29 27 0 5 -3 6 -6 3 -9 -8 -44
11 -44 24 0 5 28 -6 63 -25 55 -31 65 -34 78 -21 8 7 20 15 28 17 8 2 23 11
33 21 10 10 23 15 28 12 6 -4 10 -1 10 5 0 6 4 9 9 6 5 -3 11 1 15 9 3 8 12
15 21 15 10 0 15 10 15 30 0 39 6 39 12 0z m35 -2 c-3 -7 -5 -2 -5 12 0 14 2
19 5 13 2 -7 2 -19 0 -25z m1303 -5 c0 -7 -39 17 -46 28 -3 6 5 3 20 -6 14
-10 26 -19 26 -22z m-410 -19 c0 -2 -9 0 -20 6 -11 6 -20 13 -20 16 0 2 9 0
20 -6 11 -6 20 -13 20 -16z m-420 -10 c0 -2 -9 0 -20 6 -11 6 -20 13 -20 16 0
2 9 0 20 -6 11 -6 20 -13 20 -16z m865 8 c-3 -3 -11 0 -18 7 -9 10 -8 11 6 5
10 -3 15 -9 12 -12z m-1727 -8 c5 -9 13 -15 18 -14 5 1 10 -4 12 -12 2 -9 0
-8 -7 2 -6 8 -11 11 -11 7 0 -11 -40 12 -40 23 0 16 18 12 28 -6z m412 -20 c0
-2 -9 0 -20 6 -11 6 -20 13 -20 16 0 2 9 0 20 -6 11 -6 20 -13 20 -16z m50 0
c0 -2 -9 0 -20 6 -11 6 -20 13 -20 16 0 2 9 0 20 -6 11 -6 20 -13 20 -16z
m310 22 c0 -2 -9 -6 -20 -9 -11 -3 -18 -1 -14 4 5 9 34 13 34 5z m-90 -11 c0
-2 -10 -9 -22 -15 -22 -11 -22 -10 -4 4 21 17 26 19 26 11z m250 -31 c0 -2
-13 2 -30 11 -16 9 -30 18 -30 21 0 2 14 -2 30 -11 17 -9 30 -18 30 -21z m120
31 c0 -2 -10 -9 -22 -15 -22 -11 -22 -10 -4 4 21 17 26 19 26 11z m-210 -31
c0 -2 -9 0 -20 6 -11 6 -20 13 -20 16 0 2 9 0 20 -6 11 -6 20 -13 20 -16z
m-140 11 c0 -2 -10 -9 -22 -15 -22 -11 -22 -10 -4 4 21 17 26 19 26 11z m530
-21 c0 -2 -9 0 -20 6 -11 6 -20 13 -20 16 0 2 9 0 20 -6 11 -6 20 -13 20 -16z
m-750 -10 c0 -2 -9 0 -20 6 -11 6 -20 13 -20 16 0 2 9 0 20 -6 11 -6 20 -13
20 -16z m50 0 c0 -2 -9 0 -20 6 -11 6 -20 13 -20 16 0 2 9 0 20 -6 11 -6 20
-13 20 -16z m80 11 c0 -2 -10 -9 -22 -15 -22 -11 -22 -10 -4 4 21 17 26 19 26
11z m300 -31 c0 -2 -9 0 -20 6 -11 6 -20 13 -20 16 0 2 9 0 20 -6 11 -6 20
-13 20 -16z m170 21 c0 -2 -13 -11 -30 -20 -38 -19 -40 -11 -2 9 31 17 32 18
32 11z m560 -21 c0 -2 -9 0 -20 6 -11 6 -20 13 -20 16 0 2 9 0 20 -6 11 -6 20
-13 20 -16z m-340 -10 c0 -2 -9 0 -20 6 -11 6 -20 13 -20 16 0 2 9 0 20 -6 11
-6 20 -13 20 -16z m-732 -10 c4 2 7 -50 7 -117 l0 -121 90 -52 c50 -29 95 -52
100 -50 6 2 11 -10 12 -28 1 -29 1 -29 -7 -6 -4 14 -8 21 -9 16 -1 -5 -9 -2
-18 6 -10 8 -55 36 -100 62 l-83 47 -82 -47 c-46 -26 -91 -54 -101 -62 -16
-14 -19 -14 -35 2 -16 16 -16 17 0 11 12 -5 51 12 113 46 l95 54 0 116 c0 109
-1 118 -22 134 -22 16 -22 16 5 0 15 -9 31 -14 35 -11z m922 21 c0 -2 -10 -9
-22 -15 -22 -11 -22 -10 -4 4 21 17 26 19 26 11z m-485 -25 c-3 -5 -12 -10
-18 -10 -7 0 -6 4 3 10 19 12 23 12 15 0z m343 -48 l-1 -37 -4 34 c-3 19 -12
41 -21 49 -15 11 -14 12 6 2 17 -8 22 -18 20 -48z m379 -34 c-2 -13 -4 -5 -4
17 -1 22 1 32 4 23 2 -10 2 -28 0 -40z m-750 -20 c-3 -8 -6 -5 -6 6 -1 11 2
17 5 13 3 -3 4 -12 1 -19z m370 -25 c-3 -10 -5 -4 -5 12 0 17 2 24 5 18 2 -7
2 -21 0 -30z m-1175 -111 c8 -9 7 -11 -6 -6 -12 5 -16 18 -14 53 l1 46 4 -40
c3 -22 9 -46 15 -53z m785 51 c-3 -10 -5 -4 -5 12 0 17 2 24 5 18 2 -7 2 -21
0 -30z m390 5 c-3 -7 -5 -2 -5 12 0 14 2 19 5 13 2 -7 2 -19 0 -25z m380 -10
c-3 -7 -5 -2 -5 12 0 14 2 19 5 13 2 -7 2 -19 0 -25z m-382 -27 c-3 -6 -16
-16 -28 -22 -20 -11 -20 -9 3 13 25 24 38 29 25 9z m-388 -13 c-3 -8 -6 -5 -6
6 -1 11 2 17 5 13 3 -3 4 -12 1 -19z m468 12 c3 -6 -1 -7 -9 -4 -18 7 -21 14
-7 14 6 0 13 -4 16 -10z m-405 -26 c0 -2 -9 0 -20 6 -11 6 -20 13 -20 16 0 2
9 0 20 -6 11 -6 20 -13 20 -16z m460 -10 c0 -2 -9 0 -20 6 -11 6 -20 13 -20
16 0 2 9 0 20 -6 11 -6 20 -13 20 -16z m200 21 c0 -2 -10 -9 -22 -15 -22 -11
-22 -10 -4 4 21 17 26 19 26 11z m-1540 -10 c0 -2 -10 -9 -22 -15 -22 -11 -22
-10 -4 4 21 17 26 19 26 11z m805 -4 c3 -5 2 -12 -3 -15 -5 -3 -9 1 -9 9 0 17
3 19 12 6z m-1095 -37 c0 -2 -13 2 -30 11 -16 9 -30 18 -30 21 0 2 14 -2 30
-11 17 -9 30 -18 30 -21z m1160 10 c0 -2 -9 0 -20 6 -11 6 -20 13 -20 16 0 2
9 0 20 -6 11 -6 20 -13 20 -16z m80 -10 c0 -2 -13 2 -30 11 -16 9 -30 18 -30
21 0 2 14 -2 30 -11 17 -9 30 -18 30 -21z m200 31 c0 -2 -10 -9 -22 -15 -22
-11 -22 -10 -4 4 21 17 26 19 26 11z m-1040 -31 c0 -2 -9 0 -20 6 -11 6 -20
13 -20 16 0 2 9 0 20 -6 11 -6 20 -13 20 -16z m1380 21 c0 -2 -10 -9 -22 -15
-22 -11 -22 -10 -4 4 21 17 26 19 26 11z m-1540 -10 c0 -2 -13 -11 -30 -20
-38 -19 -40 -11 -2 9 31 17 32 18 32 11z m786 -10 c-1 -8 -5 -17 -8 -21 -5 -4
-4 16 1 34 3 9 9 -1 7 -13z m474 10 c0 -2 -10 -9 -22 -15 -22 -11 -22 -10 -4
4 21 17 26 19 26 11z m80 -31 c0 -2 -9 0 -20 6 -11 6 -20 13 -20 16 0 2 9 0
20 -6 11 -6 20 -13 20 -16z m-1530 -10 c0 -2 -9 0 -20 6 -11 6 -20 13 -20 16
0 2 9 0 20 -6 11 -6 20 -13 20 -16z m947 12 c0 -8 -6 -12 -15 -8 -10 3 -13 1
-8 -6 3 -6 -2 -16 -13 -21 -15 -9 -19 -8 -17 5 2 13 26 33 52 44 0 0 1 -6 1
-14z m293 -12 c0 -2 -9 0 -20 6 -11 6 -20 13 -20 16 0 2 9 0 20 -6 11 -6 20
-13 20 -16z m80 21 c0 -2 -10 -9 -22 -15 -22 -11 -22 -10 -4 4 21 17 26 19 26
11z m-900 -31 c0 -2 -9 0 -20 6 -11 6 -20 13 -20 16 0 2 9 0 20 -6 11 -6 20
-13 20 -16z m825 -27 c16 -15 -48 20 -70 38 -11 9 -2 7 20 -6 22 -12 45 -26
50 -32z m155 48 c0 -2 -10 -9 -22 -15 -22 -11 -22 -10 -4 4 21 17 26 19 26 11z
m425 -15 c-3 -5 -12 -10 -18 -10 -7 0 -6 4 3 10 19 12 23 12 15 0z m-1735 -12
c-8 -7 -20 -18 -26 -25 -7 -9 -13 -7 -22 7 -10 16 -9 18 3 14 7 -3 22 -1 32 5
25 14 30 14 13 -1z m1510 -14 c0 -2 -9 0 -20 6 -11 6 -20 13 -20 16 0 2 9 0
20 -6 11 -6 20 -13 20 -16z m-270 1 c0 -2 -10 -9 -22 -15 -22 -11 -22 -10 -4
4 21 17 26 19 26 11z m402 -27 c-7 -7 -12 -44 -12 -94 0 -66 3 -84 18 -95 15
-13 15 -13 -3 -3 -17 10 -20 23 -23 94 -3 74 6 110 26 110 3 0 1 -5 -6 -12z
m-1271 -64 c0 -31 -3 -59 -6 -62 -3 -3 -5 25 -5 63 0 38 3 66 6 62 3 -3 6 -31
5 -63z m1176 24 c-3 -7 -5 -2 -5 12 0 14 2 19 5 13 2 -7 2 -19 0 -25z m-1580
-85 c-2 -21 -4 -4 -4 37 0 41 2 58 4 38 2 -21 2 -55 0 -75z m1580 -20 c-3 -10
-5 -4 -5 12 0 17 2 24 5 18 2 -7 2 -21 0 -30z m-1171 -25 c-1 -31 4 -36 97
-92 54 -32 96 -60 94 -62 -2 -3 -48 21 -101 52 l-97 57 -40 -22 c-48 -28 -52
-21 -4 8 30 17 35 26 35 56 0 19 4 35 9 35 5 0 8 -15 7 -32z m411 -5 c-3 -10
-5 -4 -5 12 0 17 2 24 5 18 2 -7 2 -21 0 -30z m-821 -42 c-6 -2 -20 -8 -31
-13 -16 -7 -16 -5 3 8 12 9 22 24 23 33 0 12 2 11 8 -4 5 -12 4 -21 -3 -24z
m1584 35 c0 -2 -8 -10 -17 -17 -16 -13 -17 -12 -4 4 13 16 21 21 21 13z m-290
-42 c0 -2 -13 2 -30 11 -16 9 -30 18 -30 21 0 2 14 -2 30 -11 17 -9 30 -18 30
-21z m-100 21 c0 -2 -10 -9 -22 -15 -22 -11 -22 -10 -4 4 21 17 26 19 26 11z
m-381 -18 c8 -11 6 -13 -12 -11 -30 3 -29 3 -22 14 8 14 20 13 34 -3z m61 -13
c0 -2 -9 0 -20 6 -11 6 -20 13 -20 16 0 2 9 0 20 -6 11 -6 20 -13 20 -16z
m-810 -10 c0 -2 -9 0 -20 6 -11 6 -20 13 -20 16 0 2 9 0 20 -6 11 -6 20 -13
20 -16z m-120 1 c0 -2 -10 -9 -22 -15 -22 -11 -22 -10 -4 4 21 17 26 19 26 11z
m806 -7 c4 -6 3 -8 -3 -5 -6 4 -13 0 -17 -8 -3 -9 -12 -12 -22 -8 -13 5 -15 3
-9 -7 5 -9 4 -11 -3 -6 -7 4 -12 2 -12 -5 0 -7 -3 -9 -7 -6 -3 4 -11 -1 -18
-10 -9 -13 -14 -13 -20 -3 -5 9 -4 11 3 6 7 -4 12 -3 12 3 0 5 19 21 43 35 49
30 44 29 53 14z m374 7 c0 -2 -10 -9 -22 -15 -22 -11 -22 -10 -4 4 21 17 26
19 26 11z m94 -3 c2 -4 -4 -8 -14 -8 -10 0 -16 4 -14 8 3 4 9 8 14 8 5 0 11
-4 14 -8z m-1084 -38 c0 -2 -13 2 -30 11 -16 9 -30 18 -30 21 0 2 14 -2 30
-11 17 -9 30 -18 30 -21z m760 10 c0 -2 -9 0 -20 6 -11 6 -20 13 -20 16 0 2 9
0 20 -6 11 -6 20 -13 20 -16z m580 21 c0 -2 -10 -9 -22 -15 -22 -11 -22 -10
-4 4 21 17 26 19 26 11z m-80 -31 c0 -2 -9 0 -20 6 -11 6 -20 13 -20 16 0 2 9
0 20 -6 11 -6 20 -13 20 -16z m-1500 11 c0 -2 -13 -11 -30 -20 -38 -19 -40
-11 -2 9 31 17 32 18 32 11z m1400 -21 c0 -2 -9 0 -20 6 -11 6 -20 13 -20 16
0 2 9 0 20 -6 11 -6 20 -13 20 -16z m334 17 c4 -5 -3 -7 -14 -4 -23 6 -26 13
-6 13 8 0 17 -4 20 -9z m-634 -27 c0 -2 -9 0 -20 6 -11 6 -20 13 -20 16 0 2 9
0 20 -6 11 -6 20 -13 20 -16z m590 21 c0 -2 -10 -9 -22 -15 -22 -11 -22 -10
-4 4 21 17 26 19 26 11z m100 -31 c0 -2 -9 0 -20 6 -11 6 -20 13 -20 16 0 2 9
0 20 -6 11 -6 20 -13 20 -16z m-580 12 c0 -2 -16 -13 -35 -25 -19 -11 -35 -18
-35 -16 0 5 61 45 68 45 1 0 2 -2 2 -4z m-475 -15 c3 -5 2 -12 -3 -15 -5 -3
-9 1 -9 9 0 17 3 19 12 6z m356 -8 c13 -17 13 -17 -6 -3 -11 8 -22 16 -24 17
-2 2 0 3 6 3 6 0 17 -8 24 -17z m385 -14 c3 -6 -5 -3 -20 6 -14 10 -26 19 -26
22 0 7 39 -17 46 -28z m91 -41 c-3 -7 -5 -2 -5 12 0 14 2 19 5 13 2 -7 2 -19
0 -25z"/>
</g>
</svg>
