<?xml version="1.0" standalone="no"?>
<!DOCTYPE svg PUBLIC "-//W3C//DTD SVG 20010904//EN"
 "http://www.w3.org/TR/2001/REC-SVG-20010904/DTD/svg10.dtd">
<svg version="1.0" xmlns="http://www.w3.org/2000/svg"
 width="200.000000pt" height="200.000000pt" viewBox="0 0 200.000000 200.000000"
 preserveAspectRatio="xMidYMid meet">
<metadata>
Created by potrace 1.16, written by Peter Selinger 2001-2019
</metadata>
<g transform="translate(0.000000,200.000000) scale(0.100000,-0.100000)"
fill="#000000" stroke="none">
<path d="M0 1983 c0 -9 5 -11 13 -7 9 6 9 5 0 -7 -7 -8 -11 -56 -11 -122 -1
-107 -1 -107 21 -96 l22 11 -21 -20 c-20 -19 -22 -31 -22 -164 0 -95 4 -148
11 -157 9 -12 9 -13 0 -7 -17 9 -16 -133 0 -153 9 -12 9 -13 0 -7 -10 5 -13
-9 -13 -60 0 -58 2 -65 15 -54 9 7 18 10 21 7 3 -3 -4 -10 -15 -17 -30 -15
-30 -85 0 -100 11 -7 18 -14 15 -17 -3 -3 -12 0 -21 7 -13 11 -15 8 -15 -20 0
-28 2 -31 15 -20 9 7 18 10 21 7 3 -3 -3 -10 -14 -16 -19 -10 -20 -21 -20
-201 0 -141 3 -188 11 -183 9 5 9 3 0 -8 -8 -10 -11 -97 -11 -295 l0 -282 76
0 c50 -1 79 3 84 11 6 9 8 9 8 0 0 -15 36 -17 45 -3 3 6 11 10 16 10 6 0 8 -4
5 -9 -4 -5 63 -9 156 -9 113 0 165 3 170 11 6 9 8 9 8 0 0 -15 36 -17 45 -3 3
6 11 10 16 10 6 0 7 -4 4 -10 -4 -6 9 -10 30 -10 29 0 36 3 32 15 -4 8 -2 17
3 20 9 5 14 -6 12 -25 0 -3 58 -7 129 -8 93 -1 128 1 123 9 -4 8 0 8 15 0 16
-9 26 -9 42 0 13 6 19 7 15 1 -4 -7 51 -10 164 -10 113 0 168 3 164 10 -4 6 2
5 15 -1 16 -9 26 -9 42 0 13 6 19 7 15 1 -4 -7 51 -10 164 -10 101 0 168 3
165 9 -4 5 -1 9 4 9 6 0 11 -4 11 -10 0 -14 33 -13 48 2 9 9 12 9 12 0 0 -8
25 -11 80 -10 62 0 80 4 80 15 0 9 -5 11 -12 7 -10 -6 -10 -5 -1 7 16 20 16
528 -1 548 -8 11 -8 13 1 8 9 -6 12 45 12 218 -1 218 -2 226 -22 240 -12 8
-17 15 -11 15 5 0 15 -5 21 -11 8 -8 11 58 11 255 0 255 -1 267 -20 277 -11 6
-17 13 -14 16 3 3 12 1 20 -6 12 -10 14 17 14 197 l0 209 -79 1 c-46 1 -79 -3
-79 -8 0 -6 -9 -5 -20 2 -15 10 -22 10 -32 0 -14 -14 -32 -16 -23 -3 3 6 -64
9 -165 9 -128 0 -168 -2 -163 -11 4 -7 -1 -6 -10 2 -14 11 -23 12 -43 2 -14
-6 -23 -7 -20 -2 4 6 -62 9 -164 9 -113 0 -168 -3 -164 -10 4 -6 -2 -5 -15 1
-16 9 -26 9 -42 0 -13 -7 -19 -7 -15 -1 4 7 -50 10 -164 10 -93 0 -168 -4
-165 -8 3 -5 -9 -3 -25 3 -25 10 -33 9 -40 -3 -6 -9 -10 -10 -10 -3 0 8 -46
11 -165 12 -102 0 -163 -4 -160 -9 9 -14 -9 -12 -23 2 -10 10 -17 10 -32 0
-11 -7 -20 -8 -20 -2 0 5 -34 9 -80 8 -62 0 -80 -4 -80 -15z m310 -3 c0 -5 -5
-10 -11 -10 -5 0 -7 5 -4 10 3 6 8 10 11 10 2 0 4 -4 4 -10z m405 0 c-3 -5
-11 -10 -16 -10 -6 0 -7 5 -4 10 3 6 11 10 16 10 6 0 7 -4 4 -10z m185 0 c0
-5 -2 -10 -4 -10 -3 0 -8 5 -11 10 -3 6 -1 10 4 10 6 0 11 -4 11 -10z m220 6
c0 -3 -4 -8 -10 -11 -5 -3 -10 -1 -10 4 0 6 5 11 10 11 6 0 10 -2 10 -4z m185
-6 c3 -5 2 -10 -4 -10 -5 0 -13 5 -16 10 -3 6 -2 10 4 10 5 0 13 -4 16 -10z
m215 6 c0 -3 -4 -8 -10 -11 -5 -3 -10 -1 -10 4 0 6 5 11 10 11 6 0 10 -2 10
-4z m185 -6 c3 -5 2 -10 -4 -10 -5 0 -13 5 -16 10 -3 6 -2 10 4 10 5 0 13 -4
16 -10z m215 6 c0 -3 -4 -8 -10 -11 -5 -3 -10 -1 -10 4 0 6 5 11 10 11 6 0 10
-2 10 -4z m-1245 -24 c-3 -3 -11 0 -18 7 -9 10 -8 11 6 5 10 -3 15 -9 12 -12z
m-265 4 c0 -3 -4 -8 -10 -11 -5 -3 -10 -1 -10 4 0 6 5 11 10 11 6 0 10 -2 10
-4z m400 -1 c0 -2 -10 -10 -22 -16 -21 -11 -22 -11 -9 4 13 16 31 23 31 12z
m130 -5 c0 -5 -7 -7 -15 -4 -8 4 -15 8 -15 10 0 2 7 4 15 4 8 0 15 -4 15 -10z
m275 0 c3 -5 -1 -10 -9 -10 -9 0 -16 5 -16 10 0 6 4 10 9 10 6 0 13 -4 16 -10z
m275 6 c0 -2 -7 -7 -16 -10 -8 -3 -12 -2 -9 4 6 10 25 14 25 6z m120 -5 c0 -5
-9 -11 -21 -14 -16 -4 -18 -3 -8 9 13 16 29 19 29 5z m130 5 c0 -2 -7 -7 -16
-10 -8 -3 -12 -2 -9 4 6 10 25 14 25 6z m180 -21 c11 -13 10 -14 -4 -9 -9 3
-16 10 -16 15 0 13 6 11 20 -6z m-1750 -5 c0 -5 -2 -10 -4 -10 -3 0 -8 5 -11
10 -3 6 -1 10 4 10 6 0 11 -4 11 -10z m405 0 c3 -5 2 -10 -4 -10 -5 0 -13 5
-16 10 -3 6 -2 10 4 10 5 0 13 -4 16 -10z m400 0 c3 -5 2 -10 -4 -10 -5 0 -13
5 -16 10 -3 6 -2 10 4 10 5 0 13 -4 16 -10z m70 0 c-3 -5 -11 -10 -16 -10 -6
0 -7 5 -4 10 3 6 11 10 16 10 6 0 7 -4 4 -10z m330 0 c3 -6 -1 -7 -9 -4 -18 7
-21 14 -7 14 6 0 13 -4 16 -10z m65 0 c0 -5 -5 -10 -11 -10 -5 0 -7 5 -4 10 3
6 8 10 11 10 2 0 4 -4 4 -10z m335 0 c3 -6 -1 -7 -9 -4 -18 7 -21 14 -7 14 6
0 13 -4 16 -10z m-1385 -25 c-14 -17 -30 -20 -30 -5 0 6 7 10 15 10 8 0 15 5
15 12 0 6 3 8 6 5 4 -4 1 -13 -6 -22z m-180 5 c0 -5 -5 -10 -11 -10 -5 0 -7 5
-4 10 3 6 8 10 11 10 2 0 4 -4 4 -10z m629 -6 c2 -2 2 -7 -2 -10 -3 -3 -16 2
-29 11 l-23 17 25 -7 c14 -4 27 -9 29 -11z m566 6 c3 -5 1 -10 -4 -10 -6 0
-11 5 -11 10 0 6 2 10 4 10 3 0 8 -4 11 -10z m410 0 c-3 -5 -12 -10 -18 -10
-7 0 -6 4 3 10 19 12 23 12 15 0z m-1775 -10 c0 -5 -4 -10 -10 -10 -5 0 -10 5
-10 10 0 6 5 10 10 10 6 0 10 -4 10 -10z m400 0 c0 -5 -4 -10 -10 -10 -5 0
-10 5 -10 10 0 6 5 10 10 10 6 0 10 -4 10 -10z m340 0 c0 -5 -4 -10 -9 -10 -6
0 -13 5 -16 10 -3 6 1 10 9 10 9 0 16 -4 16 -10z m400 0 c0 -5 -4 -10 -9 -10
-6 0 -13 5 -16 10 -3 6 1 10 9 10 9 0 16 -4 16 -10z m60 0 c0 -5 -4 -10 -10
-10 -5 0 -10 5 -10 10 0 6 5 10 10 10 6 0 10 -4 10 -10z m340 0 c0 -5 -4 -10
-10 -10 -5 0 -10 5 -10 10 0 6 5 10 10 10 6 0 10 -4 10 -10z m65 0 c-3 -5 -10
-10 -16 -10 -5 0 -9 5 -9 10 0 6 7 10 16 10 8 0 12 -4 9 -10z m335 0 c0 -5 -5
-10 -11 -10 -5 0 -7 5 -4 10 3 6 8 10 11 10 2 0 4 -4 4 -10z m-1805 -10 c-3
-5 -11 -10 -16 -10 -6 0 -7 5 -4 10 3 6 11 10 16 10 6 0 7 -4 4 -10z m60 0 c3
-5 1 -10 -4 -10 -6 0 -11 5 -11 10 0 6 2 10 4 10 3 0 8 -4 11 -10z m340 0 c-3
-5 -11 -10 -16 -10 -6 0 -7 5 -4 10 3 6 11 10 16 10 6 0 7 -4 4 -10z m400 0
c-3 -5 -12 -10 -18 -10 -7 0 -6 4 3 10 19 12 23 12 15 0z m85 -16 c0 -2 -9 0
-20 6 -11 6 -20 13 -20 16 0 2 9 0 20 -6 11 -6 20 -13 20 -16z m380 16 c0 -5
-2 -10 -4 -10 -3 0 -8 5 -11 10 -3 6 -1 10 4 10 6 0 11 -4 11 -10z m400 0 c0
-5 -2 -10 -4 -10 -3 0 -8 5 -11 10 -3 6 -1 10 4 10 6 0 11 -4 11 -10z m-521
-26 c4 3 8 -1 8 -9 0 -11 -9 -9 -39 6 -21 11 -38 22 -38 24 0 3 14 -2 30 -10
17 -9 34 -14 39 -11z m226 18 c-22 -19 -88 -55 -81 -44 4 7 24 21 44 32 41 21
51 24 37 12z m-1221 -15 c-2 -7 -15 -13 -27 -14 -21 -2 -21 -1 3 12 31 18 30
18 24 2z m199 -11 c-10 -14 -20 -19 -22 -13 -2 7 -9 16 -15 20 -6 5 -1 6 11 2
12 -3 24 -1 28 5 3 5 8 10 11 10 3 0 -3 -11 -13 -24z m193 9 c-11 -8 -25 -15
-30 -15 -6 1 0 7 14 15 32 19 40 18 16 0z m203 -1 c4 3 8 -1 8 -8 0 -19 -19
-16 -42 7 -20 20 -20 20 3 8 12 -7 26 -10 31 -7z m195 -2 c-16 -16 -44 -26
-44 -16 0 4 52 33 59 34 3 0 -4 -8 -15 -18z m616 -17 c0 -10 -16 -4 -40 16
l-25 20 33 -16 c17 -8 32 -18 32 -20z m178 11 c-7 -8 -15 -12 -17 -11 -5 6 10
25 20 25 5 0 4 -6 -3 -14z m-1475 -31 c-3 -9 -8 -14 -10 -11 -3 3 -2 9 2 15 9
16 15 13 8 -4z m412 5 c-3 -5 -12 -10 -18 -10 -7 0 -6 4 3 10 19 12 23 12 15
0z m205 -5 c-14 -17 -30 -20 -30 -6 0 5 8 12 18 14 9 3 19 5 21 6 2 0 -2 -6
-9 -14z m125 5 c3 -5 2 -10 -4 -10 -5 0 -13 5 -16 10 -3 6 -2 10 4 10 5 0 13
-4 16 -10z m65 0 c0 -5 -5 -10 -11 -10 -5 0 -7 5 -4 10 3 6 8 10 11 10 2 0 4
-4 4 -10z m140 -11 c0 -14 -16 -11 -29 5 -10 12 -8 13 8 9 12 -3 21 -9 21 -14z
m58 11 c12 0 13 -3 5 -11 -8 -8 -17 -7 -35 6 -16 12 -18 16 -5 11 10 -3 26 -6
35 -6z m142 -12 c0 -6 -6 -5 -15 2 -8 7 -15 14 -15 16 0 2 7 1 15 -2 8 -4 15
-11 15 -16z m210 7 c-14 -17 -30 -20 -30 -6 0 5 8 12 18 14 9 3 19 5 21 6 2 0
-2 -6 -9 -14z m-1615 -5 c3 -5 -1 -10 -9 -10 -9 0 -16 5 -16 10 0 6 4 10 9 10
6 0 13 -4 16 -10z m65 0 c0 -5 -4 -10 -10 -10 -5 0 -10 5 -10 10 0 6 5 10 10
10 6 0 10 -4 10 -10z m340 0 c0 -5 8 -10 17 -10 9 0 14 -3 10 -6 -8 -8 -47 5
-47 17 0 5 5 9 10 9 6 0 10 -4 10 -10z m60 0 c0 -5 -4 -10 -10 -10 -5 0 -10 5
-10 10 0 6 5 10 10 10 6 0 10 -4 10 -10z m340 0 c0 -5 -4 -10 -10 -10 -5 0
-10 5 -10 10 0 6 5 10 10 10 6 0 10 -4 10 -10z m865 0 c-3 -5 -10 -10 -16 -10
-5 0 -9 5 -9 10 0 6 7 10 16 10 8 0 12 -4 9 -10z m-1440 -18 c-3 -3 -11 0 -18
7 -9 10 -8 11 6 5 10 -3 15 -9 12 -12z m400 0 c-3 -3 -11 0 -18 7 -9 10 -8 11
6 5 10 -3 15 -9 12 -12z m-595 4 c0 -3 -4 -8 -10 -11 -5 -3 -10 -1 -10 4 0 6
5 11 10 11 6 0 10 -2 10 -4z m1600 -6 c0 -5 -2 -10 -4 -10 -3 0 -8 5 -11 10
-3 6 -1 10 4 10 6 0 11 -4 11 -10z m-1775 -10 c3 -5 1 -10 -4 -10 -6 0 -11 5
-11 10 0 6 2 10 4 10 3 0 8 -4 11 -10z m340 0 c-3 -5 -11 -10 -16 -10 -6 0 -7
5 -4 10 3 6 11 10 16 10 6 0 7 -4 4 -10z m405 6 c0 -3 -4 -8 -10 -11 -5 -3
-10 -1 -10 4 0 6 5 11 10 11 6 0 10 -2 10 -4z m860 -6 c0 -5 -2 -10 -4 -10 -3
0 -8 5 -11 10 -3 6 -1 10 4 10 6 0 11 -4 11 -10z m340 0 c0 -5 -5 -10 -11 -10
-5 0 -7 5 -4 10 3 6 8 10 11 10 2 0 4 -4 4 -10z m-1870 -10 c0 -5 -5 -10 -11
-10 -5 0 -7 5 -4 10 3 6 8 10 11 10 2 0 4 -4 4 -10z m112 -2 c-9 -9 -9 -15 1
-27 10 -14 10 -14 -4 -4 -9 7 -19 10 -22 6 -4 -3 -7 1 -7 11 0 9 4 15 9 11 5
-3 12 -1 16 5 3 5 9 10 13 10 3 0 1 -5 -6 -12z m90 -1 c15 -12 15 -14 -4 -26
-11 -7 -22 -10 -25 -7 -3 3 2 8 11 12 15 6 15 7 -1 20 -10 7 -13 13 -8 13 6 0
18 -5 27 -12z m388 3 c0 -5 -2 -10 -4 -10 -3 0 -8 5 -11 10 -3 6 -1 10 4 10 6
0 11 -4 11 -10z m850 -25 c0 -3 -7 -2 -16 2 -11 4 -22 -1 -30 -12 -13 -17 -14
-17 -14 -2 0 9 6 17 13 18 10 0 10 2 0 6 -7 2 -13 8 -13 13 0 5 14 2 30 -6 17
-9 30 -17 30 -19z m156 20 c-11 -8 -24 -15 -30 -15 -5 0 -1 7 10 15 10 8 24
14 29 14 6 0 1 -6 -9 -14z m199 5 c3 -5 1 -10 -4 -10 -6 0 -11 5 -11 10 0 6 2
10 4 10 3 0 8 -4 11 -10z m-1815 -23 c0 -2 -8 -3 -18 -3 -10 0 -19 6 -19 13 0
8 6 9 19 2 10 -5 18 -11 18 -12z m390 8 c0 -2 -6 -5 -13 -8 -8 -3 -14 1 -14 8
0 7 6 11 14 8 7 -3 13 -6 13 -8z m395 -3 c-3 -3 -11 0 -18 7 -9 10 -8 11 6 5
10 -3 15 -9 12 -12z m119 12 c16 -6 12 -24 -5 -24 -6 0 -8 4 -5 9 4 5 0 12 -6
14 -7 3 -10 6 -6 6 3 1 13 -2 22 -5z m426 -19 c0 -2 -8 -3 -18 -2 -10 0 -19 7
-19 13 0 9 5 10 19 3 10 -5 18 -12 18 -14z m390 10 c0 -6 -6 -12 -13 -12 -8 0
-14 6 -14 12 0 6 6 12 14 12 7 0 13 -6 13 -12z m-1204 -4 c-3 -5 -16 -11 -28
-14 -22 -6 -22 -5 -4 8 22 17 40 20 32 6z m108 -5 c-10 -8 -21 -12 -24 -10 -5
6 21 24 34 24 6 0 1 -6 -10 -14z m400 0 c-10 -8 -21 -12 -24 -10 -5 6 21 24
34 24 6 0 1 -6 -10 -14z m173 8 c-3 -3 -12 -4 -19 -1 -8 3 -5 6 6 6 11 1 17
-2 13 -5z m-912 -24 c3 -5 2 -10 -4 -10 -5 0 -13 5 -16 10 -3 6 -2 10 4 10 5
0 13 -4 16 -10z m400 0 c3 -5 2 -10 -4 -10 -5 0 -13 5 -16 10 -3 6 -2 10 4 10
5 0 13 -4 16 -10z m-222 -14 c4 -10 1 -13 -8 -9 -8 3 -12 9 -9 14 7 12 11 11
17 -5z m1347 -19 c0 -3 -11 0 -24 6 -15 7 -20 14 -14 18 10 6 38 -12 38 -24z
m-1490 15 c0 -5 -7 -9 -15 -9 -8 0 -12 4 -9 9 3 4 9 8 15 8 5 0 9 -4 9 -8z
m-110 -12 c0 -5 -2 -10 -4 -10 -3 0 -8 5 -11 10 -3 6 -1 10 4 10 6 0 11 -4 11
-10z m620 5 c0 -2 -10 -10 -22 -16 -21 -11 -22 -11 -9 4 13 16 31 23 31 12z
m185 -5 c3 -5 2 -10 -4 -10 -5 0 -13 5 -16 10 -3 6 -2 10 4 10 5 0 13 -4 16
-10z m210 0 c-3 -5 -11 -10 -16 -10 -6 0 -7 5 -4 10 3 6 11 10 16 10 6 0 7 -4
4 -10z m185 0 c0 -5 -2 -10 -4 -10 -3 0 -8 5 -11 10 -3 6 -1 10 4 10 6 0 11
-4 11 -10z m-1032 -25 c-2 -1 -14 -7 -28 -14 -20 -9 -22 -9 -8 1 15 11 15 13
0 25 -14 11 -13 11 11 2 15 -7 26 -13 25 -14z m312 21 c0 -3 -4 -8 -10 -11 -5
-3 -10 -1 -10 4 0 6 5 11 10 11 6 0 10 -2 10 -4z m60 -6 c0 -5 -2 -10 -4 -10
-3 0 -8 5 -11 10 -3 6 -1 10 4 10 6 0 11 -4 11 -10z m414 -5 c11 -8 15 -15 10
-15 -6 0 -19 7 -30 15 -10 8 -14 14 -9 14 6 0 19 -6 29 -14z m312 0 c-11 -8
-25 -15 -30 -15 -6 1 0 7 14 15 32 19 40 18 16 0z m107 -2 c8 3 14 -1 14 -8 0
-10 -7 -10 -29 -3 -15 6 -28 15 -28 20 0 6 6 5 15 -2 8 -7 21 -10 28 -7z
m-1466 0 c-4 -3 -2 -12 5 -20 8 -11 7 -12 -6 -7 -18 7 -22 34 -4 34 6 0 8 -3
5 -7z m143 -8 c0 -1 -8 -5 -18 -7 -11 -3 -19 0 -19 7 0 7 8 10 19 7 10 -2 18
-6 18 -7z m-275 -5 c3 -6 -1 -7 -9 -4 -18 7 -21 14 -7 14 6 0 13 -4 16 -10z
m1891 -6 c18 -14 18 -14 -6 -3 -31 14 -36 19 -24 19 6 0 19 -7 30 -16z m-1191
-4 c3 -5 1 -10 -4 -10 -6 0 -11 5 -11 10 0 6 2 10 4 10 3 0 8 -4 11 -10z m65
0 c0 -5 -5 -10 -11 -10 -5 0 -7 5 -4 10 3 6 8 10 11 10 2 0 4 -4 4 -10z m400
0 c0 -5 -5 -10 -11 -10 -5 0 -7 5 -4 10 3 6 8 10 11 10 2 0 4 -4 4 -10z m-725
-10 c3 -5 2 -10 -4 -10 -5 0 -13 5 -16 10 -3 6 -2 10 4 10 5 0 13 -4 16 -10z
m400 0 c3 -5 2 -10 -4 -10 -5 0 -13 5 -16 10 -3 6 -2 10 4 10 5 0 13 -4 16
-10z m185 0 c0 -5 -5 -10 -11 -10 -5 0 -7 5 -4 10 3 6 8 10 11 10 2 0 4 -4 4
-10z m215 0 c3 -5 1 -10 -4 -10 -6 0 -11 5 -11 10 0 6 2 10 4 10 3 0 8 -4 11
-10z m190 0 c-3 -5 -11 -10 -16 -10 -6 0 -7 5 -4 10 3 6 11 10 16 10 6 0 7 -4
4 -10z m400 0 c-3 -5 -11 -10 -16 -10 -6 0 -7 5 -4 10 3 6 11 10 16 10 6 0 7
-4 4 -10z m-1750 -10 c-3 -5 -14 -10 -23 -9 -14 0 -13 2 3 9 27 11 27 11 20 0z
m255 0 c0 -5 -5 -10 -11 -10 -5 0 -7 5 -4 10 3 6 8 10 11 10 2 0 4 -4 4 -10z
m-140 -4 c0 -2 -7 -7 -16 -10 -8 -3 -12 -2 -9 4 6 10 25 14 25 6z m680 0 c0
-2 -7 -7 -16 -10 -8 -3 -12 -2 -9 4 6 10 25 14 25 6z m524 -4 c3 -5 -1 -9 -9
-9 -8 0 -15 4 -15 9 0 4 4 8 9 8 6 0 12 -4 15 -8z m396 4 c0 -3 -4 -8 -10 -11
-5 -3 -10 -1 -10 4 0 6 5 11 10 11 6 0 10 -2 10 -4z m-1835 -16 c3 -5 1 -10
-4 -10 -6 0 -11 5 -11 10 0 6 2 10 4 10 3 0 8 -4 11 -10z m340 0 c-3 -5 -11
-10 -16 -10 -6 0 -7 5 -4 10 3 6 11 10 16 10 6 0 7 -4 4 -10z m800 0 c-3 -5
-12 -10 -18 -10 -7 0 -6 4 3 10 19 12 23 12 15 0z m65 0 c0 -5 -2 -10 -4 -10
-3 0 -8 5 -11 10 -3 6 -1 10 4 10 6 0 11 -4 11 -10z m410 -5 c11 -13 10 -14
-4 -9 -9 3 -16 10 -16 15 0 13 6 11 20 -6z m254 -1 c3 -8 2 -12 -4 -9 -6 3
-10 10 -10 16 0 14 7 11 14 -7z m-1604 -4 c0 -5 -2 -10 -4 -10 -3 0 -8 5 -11
10 -3 6 -1 10 4 10 6 0 11 -4 11 -10z m412 -3 c15 -12 15 -14 -4 -26 -11 -7
-22 -10 -25 -7 -3 3 2 8 11 12 15 6 15 7 -1 20 -10 7 -13 13 -8 13 6 0 18 -5
27 -12z m418 -11 c8 -3 5 -4 -7 -2 -14 2 -23 -2 -26 -13 -3 -9 -5 -3 -6 13 -1
21 2 26 12 19 6 -6 19 -13 27 -17z m375 14 c3 -5 1 -10 -4 -10 -6 0 -11 5 -11
10 0 6 2 10 4 10 3 0 8 -4 11 -10z m202 -4 c-18 -14 -18 -15 0 -25 10 -6 15
-11 10 -11 -4 0 -16 5 -26 12 -18 11 -18 13 -3 25 9 7 22 12 27 12 6 0 2 -6
-8 -13z m-1491 -18 c12 -14 13 -18 3 -10 -9 6 -19 9 -22 5 -4 -3 -7 1 -7 10 0
22 3 21 26 -5z m664 7 c0 -2 -6 -5 -13 -8 -8 -3 -14 1 -14 8 0 7 6 11 14 8 7
-3 13 -6 13 -8z m130 -1 c0 -8 -4 -12 -10 -9 -5 3 -10 10 -10 16 0 5 5 9 10 9
6 0 10 -7 10 -16z m400 0 c0 -8 -5 -12 -10 -9 -6 4 -8 11 -5 16 9 14 15 11 15
-7z m137 2 c0 -8 -6 -12 -15 -9 -11 5 -11 7 0 14 7 5 13 9 14 9 0 0 1 -6 1
-14z m263 4 c0 -5 -5 -10 -11 -10 -5 0 -7 5 -4 10 3 6 8 10 11 10 2 0 4 -4 4
-10z m135 0 c-3 -5 -12 -10 -18 -10 -7 0 -6 4 3 10 19 12 23 12 15 0z m-1865
-4 c0 -2 -7 -7 -16 -10 -8 -3 -12 -2 -9 4 6 10 25 14 25 6z m535 -6 c3 -6 -1
-7 -9 -4 -18 7 -21 14 -7 14 6 0 13 -4 16 -10z m675 6 c0 -2 -9 -6 -20 -9 -11
-3 -18 -1 -14 4 5 9 34 13 34 5z m-990 -16 c0 -5 -5 -10 -11 -10 -5 0 -7 5 -4
10 3 6 8 10 11 10 2 0 4 -4 4 -10z m1210 6 c0 -3 -4 -8 -10 -11 -5 -3 -10 -1
-10 4 0 6 5 11 10 11 6 0 10 -2 10 -4z m400 0 c0 -3 -4 -8 -10 -11 -5 -3 -10
-1 -10 4 0 6 5 11 10 11 6 0 10 -2 10 -4z m-1870 -10 c0 -3 -4 -8 -10 -11 -5
-3 -10 -1 -10 4 0 6 5 11 10 11 6 0 10 -2 10 -4z m330 -6 c0 -5 -2 -10 -4 -10
-3 0 -8 5 -11 10 -3 6 -1 10 4 10 6 0 11 -4 11 -10z m405 0 c3 -5 1 -10 -4
-10 -6 0 -11 5 -11 10 0 6 2 10 4 10 3 0 8 -4 11 -10z m865 0 c0 -5 -5 -10
-11 -10 -5 0 -7 5 -4 10 3 6 8 10 11 10 2 0 4 -4 4 -10z m-1435 -10 c3 -5 1
-10 -4 -10 -6 0 -11 5 -11 10 0 6 2 10 4 10 3 0 8 -4 11 -10z m1605 0 c0 -5
-5 -10 -11 -10 -5 0 -7 5 -4 10 3 6 8 10 11 10 2 0 4 -4 4 -10z m-1400 -8 c0
-5 -7 -9 -15 -9 -8 0 -12 4 -9 9 3 4 9 8 15 8 5 0 9 -4 9 -8z m-230 -12 c0 -5
-7 -10 -16 -10 -8 0 -12 5 -9 10 3 6 10 10 16 10 5 0 9 -4 9 -10z m60 0 c0 -5
-4 -10 -10 -10 -5 0 -10 5 -10 10 0 6 5 10 10 10 6 0 10 -4 10 -10z m340 0 c0
-5 -4 -10 -10 -10 -5 0 -10 5 -10 10 0 6 5 10 10 10 6 0 10 -4 10 -10z m60 0
c0 -5 -4 -10 -10 -10 -5 0 -10 5 -10 10 0 6 5 10 10 10 6 0 10 -4 10 -10z
m340 0 c0 -5 -4 -10 -10 -10 -5 0 -10 5 -10 10 0 6 5 10 10 10 6 0 10 -4 10
-10z m60 0 c0 -5 -4 -10 -10 -10 -5 0 -10 5 -10 10 0 6 5 10 10 10 6 0 10 -4
10 -10z m340 0 c0 -5 -4 -10 -10 -10 -5 0 -10 5 -10 10 0 6 5 10 10 10 6 0 10
-4 10 -10z m60 0 c0 -5 -4 -10 -10 -10 -5 0 -10 5 -10 10 0 6 5 10 10 10 6 0
10 -4 10 -10z m340 0 c0 -5 -4 -10 -10 -10 -5 0 -10 5 -10 10 0 6 5 10 10 10
6 0 10 -4 10 -10z m65 0 c3 -5 -1 -10 -9 -10 -9 0 -16 5 -16 10 0 6 4 10 9 10
6 0 13 -4 16 -10z m-1075 -10 c0 -5 -5 -10 -11 -10 -5 0 -7 5 -4 10 3 6 8 10
11 10 2 0 4 -4 4 -10z m70 0 c0 -5 -2 -10 -4 -10 -3 0 -8 5 -11 10 -3 6 -1 10
4 10 6 0 11 -4 11 -10z m400 0 c0 -5 -2 -10 -4 -10 -3 0 -8 5 -11 10 -3 6 -1
10 4 10 6 0 11 -4 11 -10z m340 6 c0 -3 -4 -8 -10 -11 -5 -3 -10 -1 -10 4 0 6
5 11 10 11 6 0 10 -2 10 -4z m-640 -17 c-25 -17 -76 -42 -68 -34 13 14 62 44
73 44 6 0 3 -4 -5 -10z m535 1 c4 -6 9 -8 13 -6 4 2 14 -3 22 -12 13 -14 12
-15 -4 -9 -10 4 -26 2 -35 -5 -14 -11 -14 -11 -3 4 11 14 10 18 -5 27 -10 6
-13 11 -6 11 6 0 15 -5 18 -10z m-950 -8 c-3 -3 1 -12 8 -21 10 -14 10 -14 -4
-3 -9 7 -25 9 -35 5 -16 -6 -17 -5 -4 8 8 9 20 16 27 16 7 0 11 -3 8 -5z m182
-8 c9 -9 7 -11 -11 -10 -12 0 -23 6 -23 12 0 14 20 14 34 -2z m423 -20 c0 -2
-13 2 -30 11 -16 9 -30 18 -30 21 0 2 14 -2 30 -11 17 -9 30 -18 30 -21z m197
21 c0 -8 -4 -12 -8 -9 -5 3 -18 0 -29 -6 -11 -6 -20 -8 -20 -6 0 4 31 24 56
36 0 0 1 -7 1 -15z m400 0 c0 -8 -4 -12 -8 -9 -5 3 -18 0 -29 -6 -11 -6 -20
-8 -20 -6 0 4 31 24 56 36 0 0 1 -7 1 -15z m188 -14 c-6 -5 -25 10 -25 20 0 5
6 4 14 -3 8 -7 12 -15 11 -17z m-1599 3 c18 -14 18 -14 -6 -3 -31 14 -36 19
-24 19 6 0 19 -7 30 -16z m-146 -24 c0 -5 -2 -10 -4 -10 -3 0 -8 5 -11 10 -3
6 -1 10 4 10 6 0 11 -4 11 -10z m405 0 c3 -5 2 -10 -4 -10 -5 0 -13 5 -16 10
-3 6 -2 10 4 10 5 0 13 -4 16 -10z m400 0 c3 -5 1 -10 -4 -10 -6 0 -11 5 -11
10 0 6 2 10 4 10 3 0 8 -4 11 -10z m465 0 c0 -5 -5 -10 -11 -10 -5 0 -7 5 -4
10 3 6 8 10 11 10 2 0 4 -4 4 -10z m384 -15 c-21 -16 -34 -19 -34 -7 0 8 42
30 49 25 3 -2 -4 -10 -15 -18z m-1784 5 c0 -5 -7 -10 -16 -10 -8 0 -12 5 -9
10 3 6 10 10 16 10 5 0 9 -4 9 -10z m340 0 c0 -5 -4 -10 -10 -10 -5 0 -10 5
-10 10 0 6 5 10 10 10 6 0 10 -4 10 -10z m60 0 c0 -5 -4 -10 -10 -10 -5 0 -10
5 -10 10 0 6 5 10 10 10 6 0 10 -4 10 -10z m340 0 c0 -5 -4 -10 -10 -10 -5 0
-10 5 -10 10 0 6 5 10 10 10 6 0 10 -4 10 -10z m60 0 c0 -5 -4 -10 -10 -10 -5
0 -10 5 -10 10 0 6 5 10 10 10 6 0 10 -4 10 -10z m340 0 c0 -5 -4 -10 -10 -10
-5 0 -10 5 -10 10 0 6 5 10 10 10 6 0 10 -4 10 -10z m60 0 c0 -5 -4 -10 -10
-10 -5 0 -10 5 -10 10 0 6 5 10 10 10 6 0 10 -4 10 -10z m340 0 c0 -5 -4 -10
-10 -10 -5 0 -10 5 -10 10 0 6 5 10 10 10 6 0 10 -4 10 -10z m60 0 c0 -5 -4
-10 -10 -10 -5 0 -10 5 -10 10 0 6 5 10 10 10 6 0 10 -4 10 -10z m340 0 c0 -5
-4 -10 -10 -10 -5 0 -10 5 -10 10 0 6 5 10 10 10 6 0 10 -4 10 -10z m-1770 -8
c0 -5 -7 -9 -15 -9 -8 0 -12 4 -9 9 3 4 9 8 15 8 5 0 9 -4 9 -8z m400 -2 c0
-5 -2 -10 -4 -10 -3 0 -8 5 -11 10 -3 6 -1 10 4 10 6 0 11 -4 11 -10z m800 0
c0 -5 -4 -10 -10 -10 -5 0 -10 5 -10 10 0 6 5 10 10 10 6 0 10 -4 10 -10z
m-1000 -4 c0 -3 -4 -8 -10 -11 -5 -3 -10 -1 -10 4 0 6 5 11 10 11 6 0 10 -2
10 -4z m-240 -16 c0 -5 -5 -10 -11 -10 -5 0 -7 5 -4 10 3 6 8 10 11 10 2 0 4
-4 4 -10z m405 0 c-3 -5 -11 -10 -16 -10 -6 0 -7 5 -4 10 3 6 11 10 16 10 6 0
7 -4 4 -10z m400 0 c-3 -5 -11 -10 -16 -10 -6 0 -7 5 -4 10 3 6 11 10 16 10 6
0 7 -4 4 -10z m465 0 c0 -5 -2 -10 -4 -10 -3 0 -8 5 -11 10 -3 6 -1 10 4 10 6
0 11 -4 11 -10z m405 0 c3 -5 1 -10 -4 -10 -6 0 -11 5 -11 10 0 6 2 10 4 10 3
0 8 -4 11 -10z m-1560 -20 c-3 -5 -12 -10 -18 -10 -7 0 -6 4 3 10 19 12 23 12
15 0z m129 -5 c4 -13 2 -14 -14 -5 -23 13 -26 20 -6 20 8 0 16 -7 20 -15z
m106 -5 c-24 -19 -40 -25 -40 -15 0 5 51 34 60 34 3 0 -6 -8 -20 -19z m285 10
c3 -5 1 -10 -4 -10 -6 0 -11 5 -11 10 0 6 2 10 4 10 3 0 8 -4 11 -10z m410 0
c-3 -5 -10 -10 -16 -10 -5 0 -9 5 -9 10 0 6 7 10 16 10 8 0 12 -4 9 -10z m135
-16 c0 -2 -9 0 -20 6 -11 6 -20 13 -20 16 0 2 9 0 20 -6 11 -6 20 -13 20 -16z
m170 -9 c0 -10 -16 -4 -40 16 l-25 20 33 -16 c17 -8 32 -18 32 -20z m90 25 c0
-5 -4 -10 -10 -10 -5 0 -10 5 -10 10 0 6 5 10 10 10 6 0 10 -4 10 -10z m130
-4 c-7 -7 -13 -7 -20 0 -6 6 -3 10 10 10 13 0 16 -4 10 -10z m145 -4 c-3 -3
-11 0 -18 7 -9 10 -8 11 6 5 10 -3 15 -9 12 -12z m-1205 4 c0 -2 -7 -7 -16
-10 -8 -3 -12 -2 -9 4 6 10 25 14 25 6z m264 -5 c4 -5 -3 -7 -14 -4 -23 6 -26
13 -6 13 8 0 17 -4 20 -9z m162 -6 c10 -8 14 -15 7 -15 -6 0 -15 5 -19 11 -3
6 -15 9 -25 6 -11 -3 -17 -1 -13 4 8 13 28 11 50 -6z m199 -6 c-10 -15 -25
-10 -19 6 4 8 10 12 15 9 5 -3 7 -10 4 -15z m-995 1 c0 -5 -2 -10 -4 -10 -3 0
-8 5 -11 10 -3 6 -1 10 4 10 6 0 11 -4 11 -10z m264 -5 c3 -8 1 -15 -4 -15 -6
0 -10 7 -10 15 0 8 2 15 4 15 2 0 6 -7 10 -15z m141 5 c3 -5 2 -10 -4 -10 -5
0 -13 5 -16 10 -3 6 -2 10 4 10 5 0 13 -4 16 -10z m185 0 c0 -5 -5 -10 -11
-10 -5 0 -7 5 -4 10 3 6 8 10 11 10 2 0 4 -4 4 -10z m810 6 c0 -3 -4 -8 -10
-11 -5 -3 -10 -1 -10 4 0 6 5 11 10 11 6 0 10 -2 10 -4z m-1535 -16 c3 -5 1
-10 -4 -10 -6 0 -11 5 -11 10 0 6 2 10 4 10 3 0 8 -4 11 -10z m65 6 c0 -3 -4
-8 -10 -11 -5 -3 -10 -1 -10 4 0 6 5 11 10 11 6 0 10 -2 10 -4z m400 0 c0 -3
-4 -8 -10 -11 -5 -3 -10 -1 -10 4 0 6 5 11 10 11 6 0 10 -2 10 -4z m800 -6 c0
-5 -5 -10 -11 -10 -5 0 -7 5 -4 10 3 6 8 10 11 10 2 0 4 -4 4 -10z m-690 -10
c0 -5 -4 -10 -10 -10 -5 0 -10 5 -10 10 0 6 5 10 10 10 6 0 10 -4 10 -10z
m120 6 c0 -3 -4 -8 -10 -11 -5 -3 -10 -1 -10 4 0 6 5 11 10 11 6 0 10 -2 10
-4z m140 -11 c0 -2 -6 -5 -13 -8 -8 -3 -14 1 -14 8 0 7 6 11 14 8 7 -3 13 -6
13 -8z m140 5 c0 -5 -2 -10 -4 -10 -3 0 -8 5 -11 10 -3 6 -1 10 4 10 6 0 11
-4 11 -10z m400 0 c0 -5 -2 -10 -4 -10 -3 0 -8 5 -11 10 -3 6 -1 10 4 10 6 0
11 -4 11 -10z m130 6 c0 -2 -7 -7 -16 -10 -8 -3 -12 -2 -9 4 6 10 25 14 25 6z
m270 -6 c0 -5 -2 -10 -4 -10 -3 0 -8 5 -11 10 -3 6 -1 10 4 10 6 0 11 -4 11
-10z m-556 -15 c-10 -8 -23 -14 -29 -14 -5 0 -1 6 9 14 11 8 24 15 30 15 5 0
1 -7 -10 -15z m400 0 c-10 -8 -23 -14 -29 -14 -5 0 -1 6 9 14 11 8 24 15 30
15 5 0 1 -7 -10 -15z m-1694 -5 c0 -5 -2 -10 -4 -10 -3 0 -8 5 -11 10 -3 6 -1
10 4 10 6 0 11 -4 11 -10z m135 0 c3 -5 1 -10 -4 -10 -6 0 -11 5 -11 10 0 6 2
10 4 10 3 0 8 -4 11 -10z m265 0 c0 -5 -2 -10 -4 -10 -3 0 -8 5 -11 10 -3 6
-1 10 4 10 6 0 11 -4 11 -10z m135 0 c3 -5 1 -10 -4 -10 -6 0 -11 5 -11 10 0
6 2 10 4 10 3 0 8 -4 11 -10z m265 0 c0 -5 -2 -10 -4 -10 -3 0 -8 5 -11 10 -3
6 -1 10 4 10 6 0 11 -4 11 -10z m220 6 c0 -3 -4 -8 -10 -11 -5 -3 -10 -1 -10
4 0 6 5 11 10 11 6 0 10 -2 10 -4z m400 0 c0 -3 -4 -8 -10 -11 -5 -3 -10 -1
-10 4 0 6 5 11 10 11 6 0 10 -2 10 -4z m395 -6 c-3 -5 -11 -10 -16 -10 -6 0
-7 5 -4 10 3 6 11 10 16 10 6 0 7 -4 4 -10z m-1512 -20 c3 -11 1 -20 -4 -20
-5 0 -9 9 -9 20 0 11 2 20 4 20 2 0 6 -9 9 -20z m412 10 c-3 -5 -12 -10 -18
-10 -7 0 -6 4 3 10 19 12 23 12 15 0z m390 0 c3 -5 1 -10 -4 -10 -6 0 -11 5
-11 10 0 6 2 10 4 10 3 0 8 -4 11 -10z m408 -10 c-3 -11 -9 -20 -15 -20 -5 0
-4 9 2 20 6 11 12 20 14 20 2 0 2 -9 -1 -20z m-1338 0 c-3 -5 -12 -10 -18 -10
-7 0 -6 4 3 10 19 12 23 12 15 0z m1070 -8 c-3 -3 -11 0 -18 7 -9 10 -8 11 6
5 10 -3 15 -9 12 -12z m138 4 c4 -10 0 -12 -15 -8 -15 4 -17 7 -6 13 17 11 15
11 21 -5z m262 -4 c-3 -3 -11 0 -18 7 -9 10 -8 11 6 5 10 -3 15 -9 12 -12z
m-1605 4 c0 -2 -7 -7 -16 -10 -8 -3 -12 -2 -9 4 6 10 25 14 25 6z m426 -11
c10 -8 15 -14 9 -14 -5 0 -19 6 -29 14 -11 8 -15 15 -10 15 6 0 19 -7 30 -15z
m1319 5 c3 -6 -1 -7 -9 -4 -18 7 -21 14 -7 14 6 0 13 -4 16 -10z m-1710 -10
c3 -5 2 -10 -4 -10 -5 0 -13 5 -16 10 -3 6 -2 10 4 10 5 0 13 -4 16 -10z m800
0 c3 -5 1 -10 -4 -10 -6 0 -11 5 -11 10 0 6 2 10 4 10 3 0 8 -4 11 -10z m325
-5 c0 -8 -4 -15 -10 -15 -5 0 -7 7 -4 15 4 8 8 15 10 15 2 0 4 -7 4 -15z m75
5 c3 -5 1 -10 -4 -10 -6 0 -11 5 -11 10 0 6 2 10 4 10 3 0 8 -4 11 -10z m132
-12 c-3 -8 -6 -5 -6 6 -1 11 2 17 5 13 3 -3 4 -12 1 -19z m338 12 c-3 -5 -11
-10 -16 -10 -6 0 -7 5 -4 10 3 6 11 10 16 10 6 0 7 -4 4 -10z m-1535 -10 c0
-5 -2 -10 -4 -10 -3 0 -8 5 -11 10 -3 6 -1 10 4 10 6 0 11 -4 11 -10z m590 0
c0 -5 -5 -10 -11 -10 -5 0 -7 5 -4 10 3 6 8 10 11 10 2 0 4 -4 4 -10z m215 0
c3 -5 1 -10 -4 -10 -6 0 -11 5 -11 10 0 6 2 10 4 10 3 0 8 -4 11 -10z m-905
-8 c0 -5 -7 -9 -15 -9 -8 0 -12 4 -9 9 3 4 9 8 15 8 5 0 9 -4 9 -8z m547 -5
c0 -7 -9 -13 -19 -13 -23 0 -24 13 0 19 9 3 17 5 18 6 0 0 1 -5 1 -12z m253 3
c0 -5 -4 -10 -10 -10 -5 0 -10 5 -10 10 0 6 5 10 10 10 6 0 10 -4 10 -10z
m145 0 c-3 -5 -12 -10 -18 -10 -7 0 -6 4 3 10 19 12 23 12 15 0z m255 0 c0 -5
-2 -10 -4 -10 -3 0 -8 5 -11 10 -3 6 -1 10 4 10 6 0 11 -4 11 -10z m261 -8
c-7 -2 -18 1 -23 6 -8 8 -4 9 13 5 13 -4 18 -8 10 -11z m139 8 c0 -5 -4 -10
-10 -10 -5 0 -10 5 -10 10 0 6 5 10 10 10 6 0 10 -4 10 -10z m-1340 -4 c0 -2
-7 -7 -16 -10 -8 -3 -12 -2 -9 4 6 10 25 14 25 6z m800 0 c0 -2 -7 -7 -16 -10
-8 -3 -12 -2 -9 4 6 10 25 14 25 6z m285 -6 c3 -6 -1 -7 -9 -4 -18 7 -21 14
-7 14 6 0 13 -4 16 -10z m-1460 -10 c3 -5 1 -10 -4 -10 -6 0 -11 5 -11 10 0 6
2 10 4 10 3 0 8 -4 11 -10z m75 0 c0 -5 -5 -10 -11 -10 -5 0 -7 5 -4 10 3 6 8
10 11 10 2 0 4 -4 4 -10z m328 -15 c-3 -3 -9 2 -12 12 -6 14 -5 15 5 6 7 -7
10 -15 7 -18z m77 15 c-3 -5 -11 -10 -16 -10 -6 0 -7 5 -4 10 3 6 11 10 16 10
6 0 7 -4 4 -10z m132 -12 c-3 -8 -6 -5 -6 6 -1 11 2 17 5 13 3 -3 4 -12 1 -19z
m273 18 c0 -3 -4 -8 -10 -11 -5 -3 -10 -1 -10 4 0 6 5 11 10 11 6 0 10 -2 10
-4z m60 -6 c0 -5 -2 -10 -4 -10 -3 0 -8 5 -11 10 -3 6 -1 10 4 10 6 0 11 -4
11 -10z m67 -12 c-3 -8 -6 -5 -6 6 -1 11 2 17 5 13 3 -3 4 -12 1 -19z m268 12
c-3 -5 -12 -10 -18 -10 -7 0 -6 4 3 10 19 12 23 12 15 0z m65 0 c0 -5 -2 -10
-4 -10 -3 0 -8 5 -11 10 -3 6 -1 10 4 10 6 0 11 -4 11 -10z m405 0 c3 -5 1
-10 -4 -10 -6 0 -11 5 -11 10 0 6 2 10 4 10 3 0 8 -4 11 -10z m-1720 -20 c3
-5 1 -10 -4 -10 -6 0 -11 5 -11 10 0 6 2 10 4 10 3 0 8 -4 11 -10z m160 0 c-3
-5 -12 -10 -18 -10 -7 0 -6 4 3 10 19 12 23 12 15 0z m125 0 c0 -5 -4 -10 -10
-10 -5 0 -10 5 -10 10 0 6 5 10 10 10 6 0 10 -4 10 -10z m133 -4 c4 -10 0 -12
-15 -8 -15 4 -17 7 -6 13 17 11 15 11 21 -5z m267 4 c0 -5 -4 -10 -10 -10 -5
0 -10 5 -10 10 0 6 5 10 10 10 6 0 10 -4 10 -10z m104 -16 c-36 -19 -41 -18
-18 5 10 10 25 16 32 13 8 -3 3 -10 -14 -18z m298 14 c-9 -9 -15 -9 -24 0 -9
9 -7 12 12 12 19 0 21 -3 12 -12z m398 2 c0 -5 -4 -10 -10 -10 -5 0 -10 5 -10
10 0 6 5 10 10 10 6 0 10 -4 10 -10z m310 -26 c0 -2 -13 2 -30 11 -16 9 -30
18 -30 21 0 2 14 -2 30 -11 17 -9 30 -18 30 -21z m-830 22 c0 -2 -9 -6 -20 -9
-11 -3 -18 -1 -14 4 5 9 34 13 34 5z m-780 -16 c0 -5 -2 -10 -4 -10 -3 0 -8 5
-11 10 -3 6 -1 10 4 10 6 0 11 -4 11 -10z m257 -12 c-3 -8 -6 -5 -6 6 -1 11 2
17 5 13 3 -3 4 -12 1 -19z m154 5 c13 -15 12 -15 -8 -4 -24 12 -29 21 -14 21
5 0 15 -7 22 -17z m253 1 c3 -8 2 -12 -4 -9 -6 3 -10 10 -10 16 0 14 7 11 14
-7z m141 6 c3 -5 1 -10 -4 -10 -6 0 -11 5 -11 10 0 6 2 10 4 10 3 0 8 -4 11
-10z m185 0 c0 -5 -5 -10 -11 -10 -5 0 -7 5 -4 10 3 6 8 10 11 10 2 0 4 -4 4
-10z m215 0 c3 -5 1 -10 -4 -10 -6 0 -11 5 -11 10 0 6 2 10 4 10 3 0 8 -4 11
-10z m195 6 c0 -3 -4 -8 -10 -11 -5 -3 -10 -1 -10 4 0 6 5 11 10 11 6 0 10 -2
10 -4z m-1484 -21 c-11 -8 -24 -15 -30 -15 -5 0 -1 7 10 15 10 8 24 14 29 14
6 0 1 -6 -9 -14z m414 11 c0 -3 -4 -8 -10 -11 -5 -3 -10 -1 -10 4 0 6 5 11 10
11 6 0 10 -2 10 -4z m800 -6 c0 -5 -5 -10 -11 -10 -5 0 -7 5 -4 10 3 6 8 10
11 10 2 0 4 -4 4 -10z m340 0 c0 -5 -2 -10 -4 -10 -3 0 -8 5 -11 10 -3 6 -1
10 4 10 6 0 11 -4 11 -10z m-1374 -12 c4 -6 3 -8 -3 -5 -6 4 -16 0 -23 -8 -16
-19 -26 -19 -33 -1 -4 9 0 12 13 9 10 -3 21 0 24 6 9 14 13 14 22 -1z m382 -8
c-7 -11 -20 -20 -28 -20 -10 0 -7 7 10 20 31 25 33 25 18 0z m852 -12 c0 -14
-18 -8 -24 8 -3 8 -11 12 -17 8 -8 -4 -9 -3 -5 4 5 9 12 8 26 -1 11 -6 20 -15
20 -19z m-1014 7 c10 -8 15 -14 9 -14 -5 0 -19 6 -29 14 -11 8 -15 15 -10 15
6 0 19 -7 30 -15z m224 -10 c0 -12 -29 -3 -34 10 -4 13 -2 14 14 5 11 -6 20
-13 20 -15z m390 4 c0 -5 -6 -9 -13 -9 -8 0 -14 6 -14 14 0 8 6 12 14 9 7 -3
13 -9 13 -14z m154 6 c-10 -8 -23 -14 -29 -14 -5 0 -1 6 9 14 11 8 24 15 30
15 5 0 1 -7 -10 -15z m400 0 c-10 -8 -23 -14 -29 -14 -5 0 -1 6 9 14 11 8 24
15 30 15 5 0 1 -7 -10 -15z m186 -6 c0 -5 -6 -9 -13 -9 -8 0 -14 6 -14 14 0 8
6 12 14 9 7 -3 13 -9 13 -14z m-1940 1 c0 -5 -4 -10 -10 -10 -5 0 -10 5 -10
10 0 6 5 10 10 10 6 0 10 -4 10 -10z m127 -12 c-3 -8 -6 -5 -6 6 -1 11 2 17 5
13 3 -3 4 -12 1 -19z m277 14 c3 -5 -1 -9 -9 -9 -8 0 -15 4 -15 9 0 4 4 8 9 8
6 0 12 -4 15 -8z m741 -2 c3 -5 -3 -10 -15 -10 -12 0 -18 5 -15 10 3 6 10 10
15 10 5 0 12 -4 15 -10z m400 0 c3 -5 -1 -10 -10 -10 -8 0 -41 -14 -73 -31
-50 -27 -51 -25 -7 8 17 12 69 41 77 42 4 1 10 -3 13 -9z m-1076 -39 c10 -7 7
-9 -12 -8 -14 1 -23 4 -21 6 2 2 -2 11 -9 19 -10 13 -9 14 8 4 11 -6 26 -16
34 -21z m1412 9 c-22 -19 -41 -26 -41 -15 0 5 51 34 60 34 3 0 -6 -9 -19 -19z
m-1826 0 c4 -6 10 -8 15 -5 4 3 11 -2 14 -10 5 -13 2 -13 -24 0 -30 16 -38 25
-21 25 6 0 13 -5 16 -10z m210 -9 c-8 -14 -25 -14 -25 0 0 5 5 7 10 4 6 -3 10
-1 10 6 0 7 3 10 6 6 3 -3 3 -10 -1 -16z m415 10 c0 -11 -31 -24 -39 -16 -3 3
1 10 9 15 19 12 30 12 30 1z m180 -2 c0 -5 5 -7 10 -4 6 3 10 2 10 -3 0 -6
-11 -9 -24 -8 -14 0 -22 6 -19 14 6 15 23 16 23 1z m209 -10 c-19 -12 -29 -11
-29 2 0 5 5 7 10 4 6 -3 10 -1 10 5 0 6 5 8 11 4 8 -4 7 -9 -2 -15z m211 1 c0
-4 -11 -7 -24 -6 -13 0 -22 6 -19 12 5 13 43 7 43 -6z m400 1 c0 -3 -11 -6
-24 -6 -18 0 -22 3 -14 12 9 11 38 7 38 -6z m-1537 -24 c7 3 9 3 5 -2 -4 -4
-3 -14 3 -21 8 -9 5 -11 -10 -7 -11 3 -26 12 -33 21 -10 12 -10 14 0 8 7 -4
12 -2 13 6 0 10 2 10 6 0 2 -6 10 -9 16 -5z m67 -2 c0 -2 -7 -8 -15 -15 -12
-10 -15 -10 -15 2 0 8 7 15 15 15 8 0 15 -1 15 -2z m125 -5 c3 -5 1 -10 -4
-10 -6 0 -11 5 -11 10 0 6 2 10 4 10 3 0 8 -4 11 -10z m212 3 c-4 -3 -1 -13 6
-22 10 -14 10 -14 -4 -4 -9 7 -19 10 -22 6 -4 -3 -7 -1 -7 5 0 5 6 13 13 15
18 8 21 8 14 0z m57 -8 c-4 -8 -14 -15 -23 -15 -14 1 -13 3 3 15 25 19 27 19
20 0z m131 5 c3 -5 1 -10 -4 -10 -6 0 -11 5 -11 10 0 6 2 10 4 10 3 0 8 -4 11
-10z m210 1 c-8 -15 15 -25 28 -12 13 13 27 14 27 2 0 -13 -42 -21 -55 -11 -7
6 -15 7 -18 3 -4 -3 -7 -1 -7 5 0 5 6 13 13 15 18 8 19 8 12 -2z m402 -5 c0
-8 -6 -12 -15 -9 -11 5 -11 7 0 14 7 5 13 9 14 9 0 0 1 -6 1 -14z m53 -6 c0
-4 -9 -10 -21 -13 -15 -4 -18 -2 -10 7 6 7 8 16 4 20 -4 4 0 4 10 0 9 -3 17
-10 17 -14z m420 14 c0 -2 -14 -9 -31 -18 -22 -11 -28 -12 -20 -2 6 7 9 15 6
17 -2 3 7 5 20 5 14 0 25 -1 25 -2z m-75 -14 c3 -6 -1 -7 -9 -4 -18 7 -21 14
-7 14 6 0 13 -4 16 -10z m-1012 -25 c-3 -9 -8 -14 -10 -11 -3 3 -2 9 2 15 9
16 15 13 8 -4z m407 6 c0 -5 -7 -12 -16 -15 -14 -5 -15 -4 -4 9 14 17 20 19
20 6z m400 -1 c0 -5 -5 -10 -11 -10 -5 0 -7 5 -4 10 3 6 8 10 11 10 2 0 4 -4
4 -10z m-1465 -10 c-3 -5 -11 -10 -16 -10 -6 0 -7 5 -4 10 3 6 11 10 16 10 6
0 7 -4 4 -10z m405 6 c0 -3 -4 -8 -10 -11 -5 -3 -10 -1 -10 4 0 6 5 11 10 11
6 0 10 -2 10 -4z m400 0 c0 -3 -4 -8 -10 -11 -5 -3 -10 -1 -10 4 0 6 5 11 10
11 6 0 10 -2 10 -4z m400 0 c0 -3 -4 -8 -10 -11 -5 -3 -10 -1 -10 4 0 6 5 11
10 11 6 0 10 -2 10 -4z m177 -18 c-3 -8 -6 -5 -6 6 -1 11 2 17 5 13 3 -3 4
-12 1 -19z m403 12 c0 -5 -2 -10 -4 -10 -3 0 -8 5 -11 10 -3 6 -1 10 4 10 6 0
11 -4 11 -10z m80 6 c0 -2 -7 -7 -16 -10 -8 -3 -12 -2 -9 4 6 10 25 14 25 6z
m-1770 -26 c0 -5 -4 -10 -10 -10 -5 0 -10 5 -10 10 0 6 5 10 10 10 6 0 10 -4
10 -10z m115 0 c3 -5 1 -10 -4 -10 -6 0 -11 5 -11 10 0 6 2 10 4 10 3 0 8 -4
11 -10z m155 0 c0 -5 -2 -10 -4 -10 -3 0 -8 5 -11 10 -3 6 -1 10 4 10 6 0 11
-4 11 -10z m130 0 c0 -5 -4 -10 -10 -10 -5 0 -10 5 -10 10 0 6 5 10 10 10 6 0
10 -4 10 -10z m120 0 c0 -5 -4 -10 -10 -10 -5 0 -10 5 -10 10 0 6 5 10 10 10
6 0 10 -4 10 -10z m150 0 c0 -5 -5 -10 -11 -10 -5 0 -7 5 -4 10 3 6 8 10 11
10 2 0 4 -4 4 -10z m130 0 c0 -5 -4 -10 -10 -10 -5 0 -10 5 -10 10 0 6 5 10
10 10 6 0 10 -4 10 -10z m120 0 c0 -5 -4 -10 -10 -10 -5 0 -10 5 -10 10 0 6 5
10 10 10 6 0 10 -4 10 -10z m160 0 c0 -5 -7 -10 -15 -10 -8 0 -15 5 -15 10 0
6 7 10 15 10 8 0 15 -4 15 -10z m120 0 c0 -5 -4 -10 -10 -10 -5 0 -10 5 -10
10 0 6 5 10 10 10 6 0 10 -4 10 -10z m275 0 c-3 -5 -12 -10 -18 -10 -7 0 -6 4
3 10 19 12 23 12 15 0z m125 0 c0 -5 -4 -10 -10 -10 -5 0 -10 5 -10 10 0 6 5
10 10 10 6 0 10 -4 10 -10z m125 0 c3 -5 1 -10 -4 -10 -6 0 -11 5 -11 10 0 6
2 10 4 10 3 0 8 -4 11 -10z m-1811 -25 c11 -8 15 -15 10 -15 -6 0 -19 7 -30
15 -10 8 -14 14 -9 14 6 0 19 -6 29 -14z m308 -7 c-7 -7 -12 -8 -12 -2 0 14
12 26 19 19 2 -3 -1 -11 -7 -17z m83 12 c3 -5 2 -10 -4 -10 -5 0 -13 5 -16 10
-3 6 -2 10 4 10 5 0 13 -4 16 -10z m400 0 c3 -5 1 -10 -4 -10 -6 0 -11 5 -11
10 0 6 2 10 4 10 3 0 8 -4 11 -10z m585 0 c0 -5 -5 -10 -11 -10 -5 0 -7 5 -4
10 3 6 8 10 11 10 2 0 4 -4 4 -10z m405 0 c-3 -5 -11 -10 -16 -10 -6 0 -7 5
-4 10 3 6 11 10 16 10 6 0 7 -4 4 -10z m-1350 -10 c-3 -5 -12 -10 -18 -10 -7
0 -6 4 3 10 19 12 23 12 15 0z m625 0 c0 -5 -2 -10 -4 -10 -3 0 -8 5 -11 10
-3 6 -1 10 4 10 6 0 11 -4 11 -10z m300 -13 c0 -2 -8 -3 -18 -3 -10 0 -19 6
-19 13 0 8 6 9 19 2 10 -5 18 -11 18 -12z m100 13 c0 -5 -2 -10 -4 -10 -3 0
-8 5 -11 10 -3 6 -1 10 4 10 6 0 11 -4 11 -10z m-896 -15 c10 -7 16 -17 15
-22 -2 -4 -14 2 -26 15 -25 24 -18 29 11 7z m671 5 c3 -6 -1 -7 -9 -4 -18 7
-21 14 -7 14 6 0 13 -4 16 -10z m260 0 c-3 -5 -12 -10 -18 -10 -7 0 -6 4 3 10
19 12 23 12 15 0z m140 0 c3 -6 -1 -7 -9 -4 -18 7 -21 14 -7 14 6 0 13 -4 16
-10z m-842 -15 c-3 -9 -8 -14 -10 -11 -3 3 -2 9 2 15 9 16 15 13 8 -4z m984
-7 c-3 -8 -6 -5 -6 6 -1 11 2 17 5 13 3 -3 4 -12 1 -19z m-1597 2 c0 -5 -2
-10 -4 -10 -3 0 -8 5 -11 10 -3 6 -1 10 4 10 6 0 11 -4 11 -10z m80 6 c0 -3
-4 -8 -10 -11 -5 -3 -10 -1 -10 4 0 6 5 11 10 11 6 0 10 -2 10 -4z m55 -6 c3
-5 1 -10 -4 -10 -6 0 -11 5 -11 10 0 6 2 10 4 10 3 0 8 -4 11 -10z m-229 -20
c0 -11 -6 -20 -12 -20 -7 0 -10 8 -7 20 3 11 8 20 12 20 4 0 7 -9 7 -20z m405
11 c-7 -5 -10 -14 -7 -20 4 -6 2 -11 -3 -11 -6 0 -11 9 -11 20 0 12 7 20 18
20 13 0 14 -2 3 -9z m396 -13 c2 -18 0 -20 -7 -8 -12 18 -13 30 -2 30 4 0 9
-10 9 -22z m408 12 c-3 -5 -12 -7 -20 -3 -21 7 -19 13 6 13 11 0 18 -4 14 -10z
m398 -10 c4 -16 0 -20 -16 -19 -12 0 -16 3 -9 6 6 2 12 11 12 19 0 20 7 17 13
-6z m-1468 0 c3 -5 -1 -10 -9 -10 -9 0 -16 5 -16 10 0 6 4 10 9 10 6 0 13 -4
16 -10z m525 0 c0 -5 -2 -10 -4 -10 -3 0 -8 5 -11 10 -3 6 -1 10 4 10 6 0 11
-4 11 -10z m410 6 c0 -11 -19 -15 -25 -6 -3 5 1 10 9 10 9 0 16 -2 16 -4z
m270 -6 c0 -5 -2 -10 -4 -10 -3 0 -8 5 -11 10 -3 6 -1 10 4 10 6 0 11 -4 11
-10z m395 0 c3 -5 1 -10 -4 -10 -6 0 -11 5 -11 10 0 6 2 10 4 10 3 0 8 -4 11
-10z m-448 -32 c-3 -7 -5 -2 -5 12 0 14 2 19 5 13 2 -7 2 -19 0 -25z m-1390 0
c-3 -8 -6 -5 -6 6 -1 11 2 17 5 13 3 -3 4 -12 1 -19z m183 2 c-29 -22 -36 -24
-45 -10 -3 5 0 7 8 4 8 -3 20 2 27 11 7 8 18 15 24 15 6 0 0 -9 -14 -20z m85
10 c3 -5 1 -10 -4 -10 -6 0 -11 5 -11 10 0 6 2 10 4 10 3 0 8 -4 11 -10z m65
6 c0 -3 -4 -8 -10 -11 -5 -3 -10 -1 -10 4 0 6 5 11 10 11 6 0 10 -2 10 -4z
m1154 -11 c11 -8 15 -15 10 -15 -6 0 -19 7 -30 15 -10 8 -14 14 -9 14 6 0 19
-6 29 -14z m46 5 c0 -5 -5 -10 -11 -10 -5 0 -7 5 -4 10 3 6 8 10 11 10 2 0 4
-4 4 -10z m340 0 c0 -5 -2 -10 -4 -10 -3 0 -8 5 -11 10 -3 6 -1 10 4 10 6 0
11 -4 11 -10z m-1305 -20 c-3 -5 -12 -10 -18 -10 -7 0 -6 4 3 10 19 12 23 12
15 0z m682 -4 c0 -8 -6 -12 -15 -9 -11 5 -11 7 0 14 7 5 13 9 14 9 0 0 1 -6 1
-14z m118 4 c-3 -5 -12 -10 -18 -10 -7 0 -6 4 3 10 19 12 23 12 15 0z m280 0
c-3 -5 -12 -10 -18 -10 -7 0 -6 4 3 10 19 12 23 12 15 0z m-1631 -15 c-10 -8
-23 -14 -29 -14 -5 0 -1 6 9 14 11 8 24 15 30 15 5 0 1 -7 -10 -15z m243 -7
c-3 -8 -6 -5 -6 6 -1 11 2 17 5 13 3 -3 4 -12 1 -19z m405 0 c-7 -7 -12 -8
-12 -2 0 14 12 26 19 19 2 -3 -1 -11 -7 -17z m408 12 c0 -5 -5 -10 -11 -10 -5
0 -7 5 -4 10 3 6 8 10 11 10 2 0 4 -4 4 -10z m400 0 c0 -5 -5 -10 -11 -10 -5
0 -7 5 -4 10 3 6 8 10 11 10 2 0 4 -4 4 -10z m-1065 -10 c-3 -5 -11 -10 -16
-10 -6 0 -7 5 -4 10 3 6 11 10 16 10 6 0 7 -4 4 -10z m330 0 c3 -6 -1 -7 -9
-4 -18 7 -21 14 -7 14 6 0 13 -4 16 -10z m75 6 c0 -3 -4 -8 -10 -11 -5 -3 -10
-1 -10 4 0 6 5 11 10 11 6 0 10 -2 10 -4z m180 -6 c0 -5 -2 -10 -4 -10 -3 0
-8 5 -11 10 -3 6 -1 10 4 10 6 0 11 -4 11 -10z m400 0 c0 -5 -2 -10 -4 -10 -3
0 -8 5 -11 10 -3 6 -1 10 4 10 6 0 11 -4 11 -10z m440 -22 c0 -4 -11 -2 -25 4
-14 6 -25 15 -25 19 0 4 11 2 25 -4 14 -7 25 -15 25 -19z m-250 -4 c0 -2 -9 0
-20 6 -11 6 -20 13 -20 16 0 2 9 0 20 -6 11 -6 20 -13 20 -16z m-1610 6 c0 -5
-4 -10 -10 -10 -5 0 -10 5 -10 10 0 6 5 10 10 10 6 0 10 -4 10 -10z m130 0 c0
-5 -4 -10 -10 -10 -5 0 -10 5 -10 10 0 6 5 10 10 10 6 0 10 -4 10 -10z m115 0
c3 -5 1 -10 -4 -10 -6 0 -11 5 -11 10 0 6 2 10 4 10 3 0 8 -4 11 -10z m285 0
c0 -5 -4 -10 -10 -10 -5 0 -10 5 -10 10 0 6 5 10 10 10 6 0 10 -4 10 -10z
m120 0 c0 -5 -4 -10 -10 -10 -5 0 -10 5 -10 10 0 6 5 10 10 10 6 0 10 -4 10
-10z m150 6 c0 -3 -4 -8 -10 -11 -5 -3 -10 -1 -10 4 0 6 5 11 10 11 6 0 10 -2
10 -4z m130 -6 c0 -5 -4 -10 -10 -10 -5 0 -10 5 -10 10 0 6 5 10 10 10 6 0 10
-4 10 -10z m130 0 c0 -5 -4 -10 -10 -10 -5 0 -10 5 -10 10 0 6 5 10 10 10 6 0
10 -4 10 -10z m150 0 c0 -5 -4 -10 -9 -10 -6 0 -13 5 -16 10 -3 6 1 10 9 10 9
0 16 -4 16 -10z m120 0 c0 -5 -4 -10 -10 -10 -5 0 -10 5 -10 10 0 6 5 10 10
10 6 0 10 -4 10 -10z m125 0 c3 -6 -1 -7 -9 -4 -18 7 -21 14 -7 14 6 0 13 -4
16 -10z m275 0 c0 -5 -4 -10 -10 -10 -5 0 -10 5 -10 10 0 6 5 10 10 10 6 0 10
-4 10 -10z m-1695 -20 c3 -5 2 -10 -4 -10 -5 0 -13 5 -16 10 -3 6 -2 10 4 10
5 0 13 -4 16 -10z m185 5 c0 -2 -10 -9 -22 -15 -22 -11 -22 -10 -4 4 21 17 26
19 26 11z m215 -5 c3 -5 1 -10 -4 -10 -6 0 -11 5 -11 10 0 6 2 10 4 10 3 0 8
-4 11 -10z m585 0 c0 -5 -5 -10 -11 -10 -5 0 -7 5 -4 10 3 6 8 10 11 10 2 0 4
-4 4 -10z m215 0 c3 -5 1 -10 -4 -10 -6 0 -11 5 -11 10 0 6 2 10 4 10 3 0 8
-4 11 -10z m185 0 c0 -5 -5 -10 -11 -10 -5 0 -7 5 -4 10 3 6 8 10 11 10 2 0 4
-4 4 -10z m410 6 c0 -3 -4 -8 -10 -11 -5 -3 -10 -1 -10 4 0 6 5 11 10 11 6 0
10 -2 10 -4z m-1125 -17 c4 -6 14 -8 24 -4 12 5 13 3 4 -6 -9 -9 -17 -8 -34 5
-13 9 -18 16 -12 16 7 0 15 -5 18 -11z m400 0 c4 -6 14 -8 22 -5 8 3 11 1 8
-4 -8 -14 -18 -13 -41 5 -10 8 -14 15 -7 15 6 0 15 -5 18 -11z m-994 -12 c-6
-8 -9 -16 -6 -18 2 -3 -6 -5 -20 -5 -27 0 -23 13 9 26 29 12 30 12 17 -3z
m249 -22 c0 -10 -16 -4 -40 16 l-25 20 33 -16 c17 -8 32 -18 32 -20z m186 20
c10 -8 14 -15 9 -15 -6 0 -16 5 -22 11 -12 12 -37 3 -29 -10 3 -4 -1 -8 -9 -8
-8 0 -15 7 -15 14 0 8 4 12 9 8 5 -3 12 -1 16 5 8 14 18 13 41 -5z m412 2 c17
-1 15 -5 -8 -17 -16 -8 -20 -8 -18 2 2 7 -4 13 -12 13 -8 0 -14 -5 -13 -12 2
-7 -4 -10 -12 -7 -8 4 -15 10 -15 16 0 5 4 7 9 3 5 -3 13 0 16 6 4 5 14 7 24
3 9 -3 22 -7 29 -7z m377 3 c4 -6 11 -8 16 -5 5 4 9 2 9 -3 0 -6 -7 -12 -15
-16 -8 -3 -14 0 -12 7 1 7 -5 12 -13 12 -8 0 -14 -5 -13 -12 2 -8 -4 -10 -14
-6 -14 6 -14 8 3 20 21 16 31 16 39 3z m200 0 c-3 -5 -12 -10 -18 -10 -7 0 -6
4 3 10 19 12 23 12 15 0z m215 -7 c0 6 24 -9 86 -51 17 -11 17 -12 -5 -6 -14
4 -34 15 -45 26 -12 10 -29 17 -39 14 -11 -2 -16 -2 -13 1 3 4 0 13 -7 22 -11
14 -10 14 6 2 9 -7 17 -11 17 -8z m-1580 -14 l25 -20 -32 16 c-18 8 -33 18
-33 20 0 10 16 4 40 -16z m1530 9 c0 -4 -4 -8 -9 -8 -6 0 -12 4 -15 8 -3 5 1
9 9 9 8 0 15 -4 15 -9z m-1745 -8 c3 -5 2 -10 -4 -10 -5 0 -13 5 -16 10 -3 6
-2 10 4 10 5 0 13 -4 16 -10z m345 6 c0 -3 -4 -8 -10 -11 -5 -3 -10 -1 -10 4
0 6 5 11 10 11 6 0 10 -2 10 -4z m400 0 c0 -3 -4 -8 -10 -11 -5 -3 -10 -1 -10
4 0 6 5 11 10 11 6 0 10 -2 10 -4z m460 -6 c0 -5 -2 -10 -4 -10 -3 0 -8 5 -11
10 -3 6 -1 10 4 10 6 0 11 -4 11 -10z m740 0 c0 -5 -5 -10 -11 -10 -5 0 -7 5
-4 10 3 6 8 10 11 10 2 0 4 -4 4 -10z m-1855 -20 c-9 -15 -45 -32 -45 -22 0 5
10 14 23 20 29 14 29 14 22 2z m385 -10 c-8 -6 -24 -15 -35 -21 -16 -8 -15 -6
4 10 13 12 28 21 35 21 6 0 4 -5 -4 -10z m213 -7 c-6 -15 -6 -15 -27 -7 -24 9
-19 22 8 20 14 0 22 -6 19 -13z m197 6 c0 -5 -3 -8 -7 -7 -5 1 -19 -4 -33 -12
-22 -12 -24 -12 -13 2 7 8 11 17 9 19 -2 2 7 5 20 5 13 1 24 -2 24 -7z m184 5
c9 -3 14 -10 11 -15 -7 -10 -35 0 -35 12 0 11 3 11 24 3z m216 -5 c0 -5 -4 -8
-9 -5 -5 4 -11 0 -14 -6 -2 -7 -8 -9 -13 -5 -5 4 -2 12 6 17 20 13 30 12 30
-1z m201 -9 l24 -19 -32 12 c-18 6 -33 15 -33 19 0 14 17 9 41 -12z m199 9 c0
-13 -29 -17 -38 -6 -8 9 -4 12 14 12 13 0 24 -3 24 -6z m-1405 -9 c3 -5 1 -10
-4 -10 -6 0 -11 5 -11 10 0 6 2 10 4 10 3 0 8 -4 11 -10z m-265 -25 c-14 -17
-30 -20 -30 -6 0 5 8 12 18 14 9 3 19 5 21 6 2 0 -2 -6 -9 -14z m524 -1 c3 -8
2 -12 -4 -9 -6 3 -10 10 -10 16 0 14 7 11 14 -7z m800 0 c3 -8 2 -12 -4 -9 -6
3 -10 10 -10 16 0 14 7 11 14 -7z m266 -3 c0 -3 -10 -12 -22 -20 -20 -13 -22
-12 -11 1 9 11 10 17 1 26 -8 8 -5 9 11 5 11 -3 21 -8 21 -12z m-1400 5 c0 -3
-4 -8 -10 -11 -5 -3 -10 -1 -10 4 0 6 5 11 10 11 6 0 10 -2 10 -4z m174 -11
c9 9 22 15 29 12 6 -2 -2 -11 -20 -20 -20 -11 -34 -13 -38 -7 -4 6 -11 8 -16
5 -5 -4 -9 2 -9 11 0 16 1 16 19 0 17 -16 20 -16 35 -1z m226 11 c0 -3 -4 -8
-10 -11 -5 -3 -10 -1 -10 4 0 6 5 11 10 11 6 0 10 -2 10 -4z m146 -18 l19 -21
-27 18 c-29 18 -34 25 -20 25 5 0 17 -10 28 -22z m64 17 c0 -2 -8 -9 -18 -14
-14 -8 -19 -6 -19 5 0 7 9 14 19 14 10 0 18 -2 18 -5z m137 -6 c8 -8 17 -8 32
0 12 7 21 9 21 7 0 -3 -9 -10 -20 -16 -16 -8 -26 -7 -42 5 -13 8 -18 15 -12
15 5 0 15 -5 21 -11z m197 -4 c4 -13 2 -14 -14 -5 -23 13 -26 20 -6 20 8 0 16
-7 20 -15z m56 3 c0 -4 -4 -8 -9 -8 -6 0 -12 4 -15 8 -3 5 1 9 9 9 8 0 15 -4
15 -9z m340 2 c0 -5 -4 -10 -9 -10 -6 0 -13 5 -16 10 -3 6 1 10 9 10 9 0 16
-4 16 -10z m200 0 c0 -5 -2 -10 -4 -10 -3 0 -8 5 -11 10 -3 6 -1 10 4 10 6 0
11 -4 11 -10z m210 5 c0 -2 -8 -9 -18 -14 -14 -8 -19 -6 -19 5 0 7 9 14 19 14
10 0 18 -2 18 -5z m-662 -66 c-6 -4 -18 -1 -27 7 -9 7 -25 21 -36 29 -11 9 1
5 26 -7 26 -13 42 -26 37 -29z m466 36 c-10 -8 -23 -14 -29 -14 -5 0 -1 6 9
14 11 8 24 15 30 15 5 0 1 -7 -10 -15z m-1614 0 c0 -2 -10 -10 -22 -16 -21
-11 -22 -11 -9 4 13 16 31 23 31 12z m55 -5 c3 -5 1 -10 -4 -10 -6 0 -11 5
-11 10 0 6 2 10 4 10 3 0 8 -4 11 -10z m345 6 c0 -3 -4 -8 -10 -11 -5 -3 -10
-1 -10 4 0 6 5 11 10 11 6 0 10 -2 10 -4z m55 -6 c3 -5 1 -10 -4 -10 -6 0 -11
5 -11 10 0 6 2 10 4 10 3 0 8 -4 11 -10z m80 -11 c-10 -15 -25 -10 -19 6 4 8
10 12 15 9 5 -3 7 -10 4 -15z m725 11 c0 -5 -2 -10 -4 -10 -3 0 -8 5 -11 10
-3 6 -1 10 4 10 6 0 11 -4 11 -10z m400 0 c0 -5 -2 -10 -4 -10 -3 0 -8 5 -11
10 -3 6 -1 10 4 10 6 0 11 -4 11 -10z m-1530 -10 c0 -5 -5 -10 -11 -10 -5 0
-7 5 -4 10 3 6 8 10 11 10 2 0 4 -4 4 -10z m190 0 c0 -5 -2 -10 -4 -10 -3 0
-8 5 -11 10 -3 6 -1 10 4 10 6 0 11 -4 11 -10z m406 -1 c3 -6 15 -9 25 -6 11
3 17 1 13 -4 -3 -5 -11 -9 -18 -9 -16 0 -55 29 -39 30 6 0 15 -5 19 -11z m214
7 c0 -3 -4 -8 -10 -11 -5 -3 -10 -1 -10 4 0 6 5 11 10 11 6 0 10 -2 10 -4z
m400 -1 c0 -2 -15 -12 -32 -20 l-33 -16 25 20 c24 20 40 26 40 16z m185 -5 c3
-5 2 -10 -4 -10 -5 0 -13 5 -16 10 -3 6 -2 10 4 10 5 0 13 -4 16 -10z m-615
-26 c0 -2 -9 0 -20 6 -11 6 -20 13 -20 16 0 2 9 0 20 -6 11 -6 20 -13 20 -16z
m-955 6 c3 -6 -1 -7 -9 -4 -18 7 -21 14 -7 14 6 0 13 -4 16 -10z m275 0 c0 -5
-7 -10 -16 -10 -8 0 -12 5 -9 10 3 6 10 10 16 10 5 0 9 -4 9 -10z m400 2 c0
-4 -14 -13 -31 -19 -17 -7 -28 -17 -24 -22 3 -7 0 -8 -10 -5 -8 4 -22 1 -30
-6 -9 -7 -15 -8 -15 -2 0 5 12 15 28 20 15 6 36 17 47 26 22 17 35 20 35 8z
m400 -2 c0 -5 -4 -10 -10 -10 -5 0 -10 5 -10 10 0 6 5 10 10 10 6 0 10 -4 10
-10z m400 0 c0 -5 -4 -10 -10 -10 -5 0 -10 5 -10 10 0 6 5 10 10 10 6 0 10 -4
10 -10z m-1124 -26 c-11 -8 -25 -14 -30 -13 -6 0 -1 5 12 11 12 6 22 16 22 21
0 6 3 7 7 3 5 -4 -1 -14 -11 -22z m814 11 c0 -8 -4 -15 -10 -15 -5 0 -7 7 -4
15 4 8 8 15 10 15 2 0 4 -7 4 -15z m-325 -5 c3 -5 1 -10 -4 -10 -6 0 -11 5
-11 10 0 6 2 10 4 10 3 0 8 -4 11 -10z m70 0 c-3 -5 -11 -10 -16 -10 -6 0 -7
5 -4 10 3 6 11 10 16 10 6 0 7 -4 4 -10z m395 0 c0 -5 -5 -10 -11 -10 -5 0 -7
5 -4 10 3 6 8 10 11 10 2 0 4 -4 4 -10z m250 -5 c-9 -10 -9 -15 -1 -15 6 0 11
-8 11 -17 0 -15 -1 -15 -14 2 -9 12 -19 16 -32 11 -23 -9 -12 3 18 20 31 16
32 16 18 -1z m155 5 c-3 -5 -11 -10 -16 -10 -6 0 -7 5 -4 10 3 6 11 10 16 10
6 0 7 -4 4 -10z m-975 -15 c0 -2 -6 -5 -13 -8 -8 -3 -14 1 -14 8 0 7 6 11 14
8 7 -3 13 -6 13 -8z m285 5 c-3 -5 -12 -10 -18 -10 -7 0 -6 4 3 10 19 12 23
12 15 0z m-945 -10 c0 -5 -5 -10 -11 -10 -5 0 -7 5 -4 10 3 6 8 10 11 10 2 0
4 -4 4 -10z m144 1 c4 -5 -3 -7 -14 -4 -23 6 -26 13 -6 13 8 0 17 -4 20 -9z
m251 -1 c3 -5 1 -10 -4 -10 -6 0 -11 5 -11 10 0 6 2 10 4 10 3 0 8 -4 11 -10z
m405 0 c0 -5 -5 -10 -11 -10 -5 0 -7 5 -4 10 3 6 8 10 11 10 2 0 4 -4 4 -10z
m395 0 c3 -5 1 -10 -4 -10 -6 0 -11 5 -11 10 0 6 2 10 4 10 3 0 8 -4 11 -10z
m-1238 -22 c-3 -8 -6 -5 -6 6 -1 11 2 17 5 13 3 -3 4 -12 1 -19z m143 13 c0
-5 -7 -12 -16 -15 -14 -5 -15 -4 -4 9 14 17 20 19 20 6z m590 -1 c0 -5 -2 -10
-4 -10 -3 0 -8 5 -11 10 -3 6 -1 10 4 10 6 0 11 -4 11 -10z m220 6 c0 -3 -4
-8 -10 -11 -5 -3 -10 -1 -10 4 0 6 5 11 10 11 6 0 10 -2 10 -4z m400 0 c0 -3
-4 -8 -10 -11 -5 -3 -10 -1 -10 4 0 6 5 11 10 11 6 0 10 -2 10 -4z m-940 -10
c0 -3 -4 -8 -10 -11 -5 -3 -10 -1 -10 4 0 6 5 11 10 11 6 0 10 -2 10 -4z m400
0 c0 -3 -4 -8 -10 -11 -5 -3 -10 -1 -10 4 0 6 5 11 10 11 6 0 10 -2 10 -4z
m466 -7 c3 -6 15 -9 25 -6 24 6 24 1 2 -11 -13 -7 -23 -4 -37 9 -11 11 -14 19
-8 19 6 0 14 -5 18 -11z m417 -5 c9 -4 17 -10 17 -15 0 -5 -13 -3 -30 6 -28
15 -44 33 -17 21 6 -3 20 -9 30 -12z m-1728 -12 c-3 -3 -11 0 -18 7 -9 10 -8
11 6 5 10 -3 15 -9 12 -12z m268 -2 c-3 -11 -7 -20 -9 -20 -2 0 -4 9 -4 20 0
11 4 20 9 20 5 0 7 -9 4 -20z m1207 6 c0 -8 -7 -17 -16 -20 -13 -5 -14 -4 -6
7 7 8 9 17 5 20 -3 4 -1 7 5 7 7 0 12 -6 12 -14z m-935 -6 c3 -6 -1 -7 -9 -4
-18 7 -21 14 -7 14 6 0 13 -4 16 -10z m275 6 c0 -2 -7 -7 -16 -10 -8 -3 -12
-2 -9 4 6 10 25 14 25 6z m125 -6 c3 -6 -1 -7 -9 -4 -18 7 -21 14 -7 14 6 0
13 -4 16 -10z m275 6 c0 -2 -7 -7 -16 -10 -8 -3 -12 -2 -9 4 6 10 25 14 25 6z
m400 0 c0 -2 -7 -7 -16 -10 -8 -3 -12 -2 -9 4 6 10 25 14 25 6z m-1529 -35
c-10 -6 -9 -10 5 -15 9 -3 14 -9 11 -12 -3 -3 -14 0 -25 7 -19 12 -19 14 -4
25 9 7 19 10 22 8 2 -3 -1 -9 -9 -13z m89 9 c0 -5 -2 -10 -4 -10 -3 0 -8 5
-11 10 -3 6 -1 10 4 10 6 0 11 -4 11 -10z m316 -5 c-11 -8 -24 -15 -30 -15 -5
0 -1 7 10 15 10 8 24 14 29 14 6 0 1 -6 -9 -14z m89 5 c3 -5 1 -10 -4 -10 -6
0 -11 5 -11 10 0 6 2 10 4 10 3 0 8 -4 11 -10z m400 0 c3 -5 1 -10 -4 -10 -6
0 -11 5 -11 10 0 6 2 10 4 10 3 0 8 -4 11 -10z m265 0 c0 -5 -2 -10 -4 -10 -3
0 -8 5 -11 10 -3 6 -1 10 4 10 6 0 11 -4 11 -10z m135 0 c3 -5 1 -10 -4 -10
-6 0 -11 5 -11 10 0 6 2 10 4 10 3 0 8 -4 11 -10z m185 0 c0 -5 -5 -10 -11
-10 -5 0 -7 5 -4 10 3 6 8 10 11 10 2 0 4 -4 4 -10z m85 -1 c4 -6 14 -8 22 -5
8 3 11 1 8 -4 -8 -14 -18 -13 -41 5 -10 8 -14 15 -7 15 6 0 15 -5 18 -11z
m130 -7 c-3 -3 -11 0 -18 7 -9 10 -8 11 6 5 10 -3 15 -9 12 -12z m-910 -10
c-3 -3 -11 0 -18 7 -9 10 -8 11 6 5 10 -3 15 -9 12 -12z m415 13 c0 -2 -13
-11 -30 -20 -38 -19 -40 -11 -2 9 31 17 32 18 32 11z m-670 -15 c0 -5 -5 -10
-11 -10 -5 0 -7 5 -4 10 3 6 8 10 11 10 2 0 4 -4 4 -10z m115 0 c3 -5 1 -10
-4 -10 -6 0 -11 5 -11 10 0 6 2 10 4 10 3 0 8 -4 11 -10z m400 0 c3 -5 1 -10
-4 -10 -6 0 -11 5 -11 10 0 6 2 10 4 10 3 0 8 -4 11 -10z m285 0 c0 -5 -5 -10
-11 -10 -5 0 -7 5 -4 10 3 6 8 10 11 10 2 0 4 -4 4 -10z m-1370 -4 c0 -3 -4
-8 -10 -11 -5 -3 -10 -1 -10 4 0 6 5 11 10 11 6 0 10 -2 10 -4z m400 0 c0 -3
-4 -8 -10 -11 -5 -3 -10 -1 -10 4 0 6 5 11 10 11 6 0 10 -2 10 -4z m860 -6 c0
-5 -2 -10 -4 -10 -3 0 -8 5 -11 10 -3 6 -1 10 4 10 6 0 11 -4 11 -10z m400 0
c0 -5 -2 -10 -4 -10 -3 0 -8 5 -11 10 -3 6 -1 10 4 10 6 0 11 -4 11 -10z
m-1530 -10 c0 -5 -5 -10 -11 -10 -5 0 -7 5 -4 10 3 6 8 10 11 10 2 0 4 -4 4
-10z m190 0 c0 -5 -2 -10 -4 -10 -3 0 -8 5 -11 10 -3 6 -1 10 4 10 6 0 11 -4
11 -10z m210 0 c0 -5 -5 -10 -11 -10 -5 0 -7 5 -4 10 3 6 8 10 11 10 2 0 4 -4
4 -10z m196 -1 c3 -6 15 -9 25 -6 11 3 17 1 13 -4 -3 -5 -11 -9 -18 -9 -16 0
-55 29 -39 30 6 0 15 -5 19 -11z m204 1 c0 -5 -5 -10 -11 -10 -5 0 -7 5 -4 10
3 6 8 10 11 10 2 0 4 -4 4 -10z m190 0 c0 -5 -2 -10 -4 -10 -3 0 -8 5 -11 10
-3 6 -1 10 4 10 6 0 11 -4 11 -10z m220 6 c0 -3 -4 -8 -10 -11 -5 -3 -10 -1
-10 4 0 6 5 11 10 11 6 0 10 -2 10 -4z m185 -6 c3 -5 1 -10 -4 -10 -6 0 -11 5
-11 10 0 6 2 10 4 10 3 0 8 -4 11 -10z m-1030 -18 c-3 -3 -11 0 -18 7 -9 10
-8 11 6 5 10 -3 15 -9 12 -12z m405 3 c0 -12 -19 -12 -23 0 -4 9 -1 12 9 8 7
-3 14 -7 14 -8z m-675 -5 c-3 -5 -11 -10 -16 -10 -6 0 -7 5 -4 10 3 6 11 10
16 10 6 0 7 -4 4 -10z m130 0 c3 -6 -1 -7 -9 -4 -18 7 -21 14 -7 14 6 0 13 -4
16 -10z m275 5 c0 -2 -10 -10 -22 -16 -21 -11 -22 -11 -9 4 13 16 31 23 31 12z
m405 -5 c3 -5 -3 -10 -15 -10 -12 0 -18 5 -15 10 3 6 10 10 15 10 5 0 12 -4
15 -10z m125 6 c0 -2 -7 -7 -16 -10 -8 -3 -12 -2 -9 4 6 10 25 14 25 6z m270
-6 c0 -5 -4 -10 -10 -10 -5 0 -10 5 -10 10 0 6 5 10 10 10 6 0 10 -4 10 -10z
m130 6 c0 -2 -7 -7 -16 -10 -8 -3 -12 -2 -9 4 6 10 25 14 25 6z m150 0 c0 -2
-7 -7 -16 -10 -8 -3 -12 -2 -9 4 6 10 25 14 25 6z m-595 -25 c-3 -6 -11 -11
-16 -11 -5 0 -4 6 3 14 14 16 24 13 13 -3z m-720 -1 c3 -5 1 -10 -4 -10 -6 0
-11 5 -11 10 0 6 2 10 4 10 3 0 8 -4 11 -10z m400 0 c3 -5 2 -10 -4 -10 -5 0
-13 5 -16 10 -3 6 -2 10 4 10 5 0 13 -4 16 -10z m65 0 c0 -5 -5 -10 -11 -10
-5 0 -7 5 -4 10 3 6 8 10 11 10 2 0 4 -4 4 -10z m335 0 c3 -5 1 -10 -4 -10 -6
0 -11 5 -11 10 0 6 2 10 4 10 3 0 8 -4 11 -10z m65 0 c0 -5 -5 -10 -11 -10 -5
0 -7 5 -4 10 3 6 8 10 11 10 2 0 4 -4 4 -10z m410 6 c0 -3 -4 -8 -10 -11 -5
-3 -10 -1 -10 4 0 6 5 11 10 11 6 0 10 -2 10 -4z m-1640 -26 c0 -5 -4 -10 -10
-10 -5 0 -10 5 -10 10 0 6 5 10 10 10 6 0 10 -4 10 -10z m229 -6 c2 -2 2 -7
-2 -10 -3 -3 -16 2 -29 11 l-23 17 25 -7 c14 -4 27 -9 29 -11z m171 6 c0 -5
-4 -10 -10 -10 -5 0 -10 5 -10 10 0 6 5 10 10 10 6 0 10 -4 10 -10z m400 0 c0
-5 -4 -10 -10 -10 -5 0 -10 5 -10 10 0 6 5 10 10 10 6 0 10 -4 10 -10z m400 0
c0 -5 -4 -10 -10 -10 -5 0 -10 5 -10 10 0 6 5 10 10 10 6 0 10 -4 10 -10z
m400 0 c0 -5 -4 -10 -10 -10 -5 0 -10 5 -10 10 0 6 5 10 10 10 6 0 10 -4 10
-10z m-1770 -10 c0 -5 -4 -10 -9 -10 -6 0 -13 5 -16 10 -3 6 1 10 9 10 9 0 16
-4 16 -10z m340 1 c0 -5 -9 -11 -21 -14 -16 -4 -18 -3 -8 9 13 16 29 19 29 5z
m400 -1 c0 -5 -4 -10 -10 -10 -5 0 -10 5 -10 10 0 6 5 10 10 10 6 0 10 -4 10
-10z m60 0 c0 -5 -4 -10 -10 -10 -5 0 -10 5 -10 10 0 6 5 10 10 10 6 0 10 -4
10 -10z m340 0 c0 -5 -4 -10 -10 -10 -5 0 -10 5 -10 10 0 6 5 10 10 10 6 0 10
-4 10 -10z m60 0 c0 -5 -4 -10 -10 -10 -5 0 -10 5 -10 10 0 6 5 10 10 10 6 0
10 -4 10 -10z m340 0 c0 -5 -4 -10 -10 -10 -5 0 -10 5 -10 10 0 6 5 10 10 10
6 0 10 -4 10 -10z m60 0 c0 -5 -2 -10 -4 -10 -2 0 -12 -3 -22 -7 -16 -6 -17
-5 -4 10 17 19 30 22 30 7z m340 0 c0 -5 -4 -10 -10 -10 -5 0 -10 5 -10 10 0
6 5 10 10 10 6 0 10 -4 10 -10z m-1800 -4 c0 -3 -4 -8 -10 -11 -5 -3 -10 -1
-10 4 0 6 5 11 10 11 6 0 10 -2 10 -4z m400 0 c0 -3 -4 -8 -10 -11 -5 -3 -10
-1 -10 4 0 6 5 11 10 11 6 0 10 -2 10 -4z m65 -14 c-3 -3 -11 0 -18 7 -9 10
-8 11 6 5 10 -3 15 -9 12 -12z m335 14 c0 -3 -4 -8 -10 -11 -5 -3 -10 -1 -10
4 0 6 5 11 10 11 6 0 10 -2 10 -4z m460 -6 c0 -5 -2 -10 -4 -10 -3 0 -8 5 -11
10 -3 6 -1 10 4 10 6 0 11 -4 11 -10z m405 0 c3 -5 2 -10 -4 -10 -5 0 -13 5
-16 10 -3 6 -2 10 4 10 5 0 13 -4 16 -10z m-1309 -52 c6 -10 5 -11 -8 -1 -8 7
-17 11 -19 9 -2 -2 -13 6 -24 17 -20 19 -20 19 12 3 17 -9 35 -22 39 -28z
m188 29 c-6 -16 -41 -19 -50 -5 -4 7 -2 8 4 4 7 -4 20 -2 29 3 23 13 23 13 17
-2z m206 -23 c0 -2 -13 2 -30 11 -16 9 -30 18 -30 21 0 2 14 -2 30 -11 17 -9
30 -18 30 -21z m200 31 c0 -2 -13 -11 -30 -20 -38 -19 -40 -11 -2 9 31 17 32
18 32 11z m189 -21 c14 -12 -19 -1 -35 12 -18 14 -18 14 6 3 14 -6 27 -13 29
-15z m208 19 c-4 -3 -1 -13 6 -22 10 -14 10 -14 -5 -3 -12 10 -22 11 -36 3
-14 -7 -19 -7 -19 4 0 8 4 12 9 9 4 -3 16 0 25 5 21 12 29 14 20 4z m181 -10
c7 -7 9 -13 4 -13 -4 0 -16 6 -26 13 -14 10 -15 14 -4 14 7 0 19 -6 26 -14z
m-1398 0 c0 -1 -8 -7 -18 -12 -13 -7 -19 -6 -19 2 0 7 9 13 19 13 10 0 18 -1
18 -3z m1598 -7 c-7 -8 -15 -12 -17 -11 -5 6 10 25 20 25 5 0 4 -6 -3 -14z
m-1458 -20 c0 -2 -7 -7 -16 -10 -8 -3 -12 -2 -9 4 6 10 25 14 25 6z m325 -6
c3 -5 1 -10 -4 -10 -6 0 -11 5 -11 10 0 6 2 10 4 10 3 0 8 -4 11 -10z m70 0
c-3 -5 -11 -10 -16 -10 -6 0 -7 5 -4 10 3 6 11 10 16 10 6 0 7 -4 4 -10z m135
-11 c0 -14 -16 -11 -29 5 -10 12 -8 13 8 9 12 -3 21 -9 21 -14z m195 11 c3 -5
1 -10 -4 -10 -6 0 -11 5 -11 10 0 6 2 10 4 10 3 0 8 -4 11 -10z m65 0 c0 -5
-5 -10 -11 -10 -5 0 -7 5 -4 10 3 6 8 10 11 10 2 0 4 -4 4 -10z m210 -5 c-14
-17 -30 -20 -30 -6 0 5 8 12 18 14 9 3 19 5 21 6 2 0 -2 -6 -9 -14z m125 5 c3
-5 1 -10 -4 -10 -6 0 -11 5 -11 10 0 6 2 10 4 10 3 0 8 -4 11 -10z m-1395 -10
c0 -5 7 -10 16 -10 8 0 13 -4 10 -9 -4 -5 -17 -4 -31 2 -28 13 -33 27 -10 27
8 0 15 -4 15 -10z m60 0 c0 -5 -4 -10 -10 -10 -5 0 -10 5 -10 10 0 6 5 10 10
10 6 0 10 -4 10 -10z m340 0 c0 -5 -4 -10 -10 -10 -5 0 -10 5 -10 10 0 6 5 10
10 10 6 0 10 -4 10 -10z m60 0 c0 -5 -4 -10 -10 -10 -5 0 -10 5 -10 10 0 6 5
10 10 10 6 0 10 -4 10 -10z m400 0 c0 -5 -4 -10 -10 -10 -5 0 -10 5 -10 10 0
6 5 10 10 10 6 0 10 -4 10 -10z m340 0 c0 -5 -4 -10 -10 -10 -5 0 -10 5 -10
10 0 6 5 10 10 10 6 0 10 -4 10 -10z m400 0 c0 -5 -4 -10 -10 -10 -5 0 -10 5
-10 10 0 6 5 10 10 10 6 0 10 -4 10 -10z m60 2 c0 -13 -39 -32 -45 -22 -3 6 1
10 9 10 9 0 16 5 16 10 0 6 5 10 10 10 6 0 10 -3 10 -8z m-1230 -16 c0 -3 -4
-8 -10 -11 -5 -3 -10 -1 -10 4 0 6 5 11 10 11 6 0 10 -2 10 -4z m-235 -16 c-3
-5 -11 -10 -16 -10 -6 0 -7 5 -4 10 3 6 11 10 16 10 6 0 7 -4 4 -10z m405 6
c0 -3 -4 -8 -10 -11 -5 -3 -10 -1 -10 4 0 6 5 11 10 11 6 0 10 -2 10 -4z m348
-26 c12 0 10 -4 -8 -13 -27 -15 -44 -12 -20 3 10 7 11 10 3 10 -7 0 -13 8 -13
18 1 16 1 16 11 0 5 -10 18 -18 27 -18z m117 20 c3 -5 2 -10 -4 -10 -5 0 -13
5 -16 10 -3 6 -2 10 4 10 5 0 13 -4 16 -10z m400 0 c3 -5 1 -10 -4 -10 -6 0
-11 5 -11 10 0 6 2 10 4 10 3 0 8 -4 11 -10z m259 -6 c3 -8 2 -12 -4 -9 -6 3
-10 10 -10 16 0 14 7 11 14 -7z m76 6 c0 -5 -5 -10 -11 -10 -5 0 -7 5 -4 10 3
6 8 10 11 10 2 0 4 -4 4 -10z m-1666 -15 c11 -8 15 -15 10 -15 -6 0 -19 7 -30
15 -10 8 -14 14 -9 14 6 0 19 -6 29 -14z m386 5 c0 -5 -2 -10 -4 -10 -3 0 -8
5 -11 10 -3 6 -1 10 4 10 6 0 11 -4 11 -10z m805 0 c3 -5 1 -10 -4 -10 -6 0
-11 5 -11 10 0 6 2 10 4 10 3 0 8 -4 11 -10z m215 6 c0 -3 -4 -8 -10 -11 -5
-3 -10 -1 -10 4 0 6 5 11 10 11 6 0 10 -2 10 -4z m-1515 -16 c3 -5 1 -10 -4
-10 -6 0 -11 5 -11 10 0 6 2 10 4 10 3 0 8 -4 11 -10z m275 -5 c0 -2 -6 -5
-13 -8 -8 -3 -14 1 -14 8 0 7 6 11 14 8 7 -3 13 -6 13 -8z m395 -3 c-3 -3 -11
0 -18 7 -9 10 -8 11 6 5 10 -3 15 -9 12 -12z m672 4 c0 -8 -6 -12 -15 -9 -11
5 -11 7 0 14 7 5 13 9 14 9 0 0 1 -6 1 -14z m263 1 c0 -8 -7 -14 -15 -14 -11
0 -12 4 -4 14 6 7 13 13 15 13 2 0 4 -6 4 -13z m-1186 -12 c11 -8 15 -15 10
-15 -6 0 -19 7 -30 15 -10 8 -14 14 -9 14 6 0 19 -6 29 -14z m391 5 c3 -6 -1
-7 -9 -4 -18 7 -21 14 -7 14 6 0 13 -4 16 -10z m272 4 c-3 -3 -12 -4 -19 -1
-8 3 -5 6 6 6 11 1 17 -2 13 -5z m123 -4 c0 -5 -2 -10 -4 -10 -3 0 -8 5 -11
10 -3 6 -1 10 4 10 6 0 11 -4 11 -10z m535 0 c3 -6 -1 -7 -9 -4 -18 7 -21 14
-7 14 6 0 13 -4 16 -10z m-1645 -10 c0 -5 -5 -10 -11 -10 -5 0 -7 5 -4 10 3 6
8 10 11 10 2 0 4 -4 4 -10z m1415 0 c3 -5 1 -10 -4 -10 -6 0 -11 5 -11 10 0 6
2 10 4 10 3 0 8 -4 11 -10z m-1340 -10 c3 -5 2 -10 -4 -10 -5 0 -13 5 -16 10
-3 6 -2 10 4 10 5 0 13 -4 16 -10z m400 0 c3 -5 1 -10 -4 -10 -6 0 -11 5 -11
10 0 6 2 10 4 10 3 0 8 -4 11 -10z m400 0 c3 -5 1 -10 -4 -10 -6 0 -11 5 -11
10 0 6 2 10 4 10 3 0 8 -4 11 -10z m65 0 c0 -5 -5 -10 -11 -10 -5 0 -7 5 -4
10 3 6 8 10 11 10 2 0 4 -4 4 -10z m400 0 c0 -5 -5 -10 -11 -10 -5 0 -7 5 -4
10 3 6 8 10 11 10 2 0 4 -4 4 -10z m-1517 -26 c-24 -18 -34 -17 -27 1 4 8 10
12 15 9 5 -3 9 0 9 6 0 6 5 8 11 5 6 -5 4 -12 -8 -21z m1227 14 c0 -4 -4 -8
-9 -8 -6 0 -12 4 -15 8 -3 5 1 9 9 9 8 0 15 -4 15 -9z m515 2 c3 -5 1 -10 -4
-10 -6 0 -11 5 -11 10 0 6 2 10 4 10 3 0 8 -4 11 -10z m-1339 -15 c-36 -19
-47 -19 -22 0 11 8 27 15 35 15 9 0 3 -7 -13 -15z m654 -10 c-19 -14 -39 -25
-44 -25 -13 0 55 49 68 50 6 0 -5 -11 -24 -25z m-850 -15 c8 -5 11 -10 5 -10
-5 0 -21 10 -35 21 -24 20 -5 13 30 -11z m370 20 c0 -5 -2 -10 -4 -10 -3 0 -8
5 -11 10 -3 6 -1 10 4 10 6 0 11 -4 11 -10z m215 0 c-3 -5 -11 -10 -16 -10 -6
0 -7 5 -4 10 3 6 11 10 16 10 6 0 7 -4 4 -10z m185 -5 c0 -8 -2 -15 -4 -15 -2
0 -6 7 -10 15 -3 8 -1 15 4 15 6 0 10 -7 10 -15z m220 11 c0 -3 -4 -8 -10 -11
-5 -3 -10 -1 -10 4 0 6 5 11 10 11 6 0 10 -2 10 -4z m400 0 c0 -3 -4 -8 -10
-11 -5 -3 -10 -1 -10 4 0 6 5 11 10 11 6 0 10 -2 10 -4z m185 -6 c3 -5 2 -10
-4 -10 -5 0 -13 5 -16 10 -3 6 -2 10 4 10 5 0 13 -4 16 -10z m-1690 -10 c-3
-5 -12 -10 -18 -10 -7 0 -6 4 3 10 19 12 23 12 15 0z m625 0 c0 -5 -2 -10 -4
-10 -3 0 -8 5 -11 10 -3 6 -1 10 4 10 6 0 11 -4 11 -10z m400 0 c0 -5 -2 -10
-4 -10 -3 0 -8 5 -11 10 -3 6 -1 10 4 10 6 0 11 -4 11 -10z m-1163 -17 c0 -8
-6 -9 -19 -2 -10 5 -18 11 -18 12 0 2 8 3 18 3 10 0 19 -6 19 -13z m673 3 c0
-2 -9 -6 -20 -9 -11 -3 -18 -1 -14 4 5 9 34 13 34 5z m814 -11 c11 -8 16 -15
10 -15 -5 0 -18 7 -28 15 -11 8 -16 15 -10 15 5 0 18 -7 28 -15z m-1354 1 c0
-2 -9 -6 -20 -9 -11 -3 -18 -1 -14 4 5 9 34 13 34 5z m565 -6 c3 -5 1 -10 -4
-10 -6 0 -11 5 -11 10 0 6 2 10 4 10 3 0 8 -4 11 -10z m65 0 c0 -5 -5 -10 -11
-10 -5 0 -7 5 -4 10 3 6 8 10 11 10 2 0 4 -4 4 -10z m257 -12 c-3 -8 -6 -5 -6
6 -1 11 2 17 5 13 3 -3 4 -12 1 -19z m78 12 c3 -5 1 -10 -4 -10 -6 0 -11 5
-11 10 0 6 2 10 4 10 3 0 8 -4 11 -10z m65 0 c0 -5 -5 -10 -11 -10 -5 0 -7 5
-4 10 3 6 8 10 11 10 2 0 4 -4 4 -10z m260 -5 c0 -8 -4 -15 -10 -15 -5 0 -7 7
-4 15 4 8 8 15 10 15 2 0 4 -7 4 -15z m140 5 c0 -5 -5 -10 -11 -10 -5 0 -7 5
-4 10 3 6 8 10 11 10 2 0 4 -4 4 -10z m80 -16 c0 -2 -9 0 -20 6 -11 6 -20 13
-20 16 0 2 9 0 20 -6 11 -6 20 -13 20 -16z m-1610 6 c0 -5 -2 -10 -4 -10 -3 0
-8 5 -11 10 -3 6 -1 10 4 10 6 0 11 -4 11 -10z m190 0 c0 -5 -5 -10 -11 -10
-5 0 -7 5 -4 10 3 6 8 10 11 10 2 0 4 -4 4 -10z m216 -1 c3 -6 14 -9 24 -6 13
3 17 0 13 -9 -4 -11 -10 -11 -34 2 -29 15 -37 24 -20 24 6 0 13 -5 17 -11z
m184 1 c0 -5 -5 -10 -11 -10 -5 0 -7 5 -4 10 3 6 8 10 11 10 2 0 4 -4 4 -10z
m215 0 c3 -5 2 -10 -4 -10 -5 0 -13 5 -16 10 -3 6 -2 10 4 10 5 0 13 -4 16
-10z m400 0 c3 -5 1 -10 -4 -10 -6 0 -11 5 -11 10 0 6 2 10 4 10 3 0 8 -4 11
-10z m595 6 c0 -3 -4 -8 -10 -11 -5 -3 -10 -1 -10 4 0 6 5 11 10 11 6 0 10 -2
10 -4z m-40 -21 c0 -12 -19 -12 -23 0 -4 9 -1 12 9 8 7 -3 14 -7 14 -8z
m-1725 -5 c3 -6 -1 -7 -9 -4 -18 7 -21 14 -7 14 6 0 13 -4 16 -10z m1610 0 c3
-6 -1 -7 -9 -4 -18 7 -21 14 -7 14 6 0 13 -4 16 -10z m-1380 -10 c-3 -5 -11
-10 -16 -10 -6 0 -7 5 -4 10 3 6 11 10 16 10 6 0 7 -4 4 -10z m400 0 c-3 -5
-11 -10 -16 -10 -6 0 -7 5 -4 10 3 6 11 10 16 10 6 0 7 -4 4 -10z m865 0 c0
-5 -2 -10 -4 -10 -3 0 -8 5 -11 10 -3 6 -1 10 4 10 6 0 11 -4 11 -10z m-1340
-10 c0 -5 -2 -10 -4 -10 -3 0 -8 5 -11 10 -3 6 -1 10 4 10 6 0 11 -4 11 -10z
m207 -27 c-3 -10 -5 -4 -5 12 0 17 2 24 5 18 2 -7 2 -21 0 -30z m-422 17 c-3
-5 -12 -10 -18 -10 -7 0 -6 4 3 10 19 12 23 12 15 0z m133 -10 c12 -19 11 -20
-8 -8 -11 7 -20 16 -20 20 0 15 15 8 28 -12z m117 10 c-3 -5 -12 -10 -18 -10
-7 0 -6 4 3 10 19 12 23 12 15 0z m285 -14 c0 -10 -30 0 -34 11 -4 11 -1 11
14 3 11 -6 20 -12 20 -14z m397 10 c0 -8 -6 -12 -14 -9 -7 3 -10 9 -7 14 8 14
21 11 21 -5z m393 -2 c0 -8 -5 -12 -10 -9 -6 4 -8 11 -5 16 9 14 15 11 15 -7z
m137 2 c0 -8 -6 -12 -15 -9 -11 5 -11 7 0 14 7 5 13 9 14 9 0 0 1 -6 1 -14z
m263 -4 c0 -9 -3 -12 -7 -9 -3 4 -13 1 -22 -6 -14 -10 -14 -10 -4 4 7 9 11 18
8 21 -3 2 2 5 10 5 8 0 15 -7 15 -15z m135 8 c-3 -5 -12 -10 -18 -10 -7 0 -6
4 3 10 19 12 23 12 15 0z m-808 -6 c-3 -3 -12 -4 -19 -1 -8 3 -5 6 6 6 11 1
17 -2 13 -5z m150 0 c-3 -3 -12 -4 -19 -1 -8 3 -5 6 6 6 11 1 17 -2 13 -5z
m-987 -14 c0 -5 -5 -10 -11 -10 -5 0 -7 5 -4 10 3 6 8 10 11 10 2 0 4 -4 4
-10z m400 0 c0 -5 -5 -10 -11 -10 -5 0 -7 5 -4 10 3 6 8 10 11 10 2 0 4 -4 4
-10z m397 -22 c-3 -7 -5 -2 -5 12 0 14 2 19 5 13 2 -7 2 -19 0 -25z m223 17
c11 -13 10 -14 -4 -9 -9 3 -16 10 -16 15 0 13 6 11 20 -6z m183 -6 c-4 -15 -8
-17 -14 -8 -8 14 -3 29 11 29 4 0 6 -9 3 -21z m212 11 c3 -5 1 -10 -4 -10 -6
0 -11 5 -11 10 0 6 2 10 4 10 3 0 8 -4 11 -10z m195 6 c0 -3 -4 -8 -10 -11 -5
-3 -10 -1 -10 4 0 6 5 11 10 11 6 0 10 -2 10 -4z m-1535 -16 c3 -5 1 -10 -4
-10 -6 0 -11 5 -11 10 0 6 2 10 4 10 3 0 8 -4 11 -10z m1265 0 c0 -5 -5 -10
-11 -10 -5 0 -7 5 -4 10 3 6 8 10 11 10 2 0 4 -4 4 -10z m-1440 -18 c-8 -3
-20 -12 -26 -20 -8 -11 -13 -12 -18 -3 -5 7 -6 13 -5 14 2 1 13 7 24 13 11 7
24 9 30 6 5 -3 2 -8 -5 -10z m1639 -21 c-7 -2 -15 1 -17 8 -2 6 -10 11 -18 11
-9 0 -12 4 -9 10 4 6 16 3 32 -7 17 -12 21 -19 12 -22z m-1429 25 c0 -2 -7 -7
-16 -10 -8 -3 -12 -2 -9 4 6 10 25 14 25 6z m497 -18 c-3 -8 -6 -5 -6 6 -1 11
2 17 5 13 3 -3 4 -12 1 -19z m91 15 c-10 -2 -18 -9 -18 -14 0 -5 -8 -9 -17 -9
-16 1 -16 2 1 15 11 8 27 14 35 14 13 -1 12 -2 -1 -6z m-758 -13 c0 -5 -4 -10
-10 -10 -5 0 -10 5 -10 10 0 6 5 10 10 10 6 0 10 -4 10 -10z m340 0 c0 -5 -4
-10 -10 -10 -5 0 -10 5 -10 10 0 6 5 10 10 10 6 0 10 -4 10 -10z m60 0 c0 -5
-4 -10 -9 -10 -5 0 -18 -3 -28 -6 -16 -6 -16 -5 2 9 23 19 35 21 35 7z m400 0
c0 -5 -4 -10 -10 -10 -5 0 -10 5 -10 10 0 6 5 10 10 10 6 0 10 -4 10 -10z
m340 1 c0 -5 -9 -11 -21 -14 -16 -4 -18 -3 -8 9 13 16 29 19 29 5z m60 -1 c0
-5 -4 -10 -10 -10 -5 0 -10 5 -10 10 0 6 5 10 10 10 6 0 10 -4 10 -10z m340 0
c0 -5 -4 -10 -10 -10 -5 0 -10 5 -10 10 0 6 5 10 10 10 6 0 10 -4 10 -10z
m-1010 -10 c0 -5 -5 -10 -11 -10 -5 0 -7 5 -4 10 3 6 8 10 11 10 2 0 4 -4 4
-10z m70 0 c0 -5 -2 -10 -4 -10 -3 0 -8 5 -11 10 -3 6 -1 10 4 10 6 0 11 -4
11 -10z m405 0 c3 -5 2 -10 -4 -10 -5 0 -13 5 -16 10 -3 6 -2 10 4 10 5 0 13
-4 16 -10z m335 6 c0 -2 -7 -7 -16 -10 -8 -3 -12 -2 -9 4 6 10 25 14 25 6z
m-1059 -26 c-29 -24 -35 -25 -52 -2 -13 16 -12 16 4 3 16 -13 20 -13 28 0 5 8
9 10 9 5 0 -6 5 -5 12 2 7 7 14 12 18 12 3 -1 -6 -10 -19 -20z m998 -17 c2 -2
0 -3 -6 -3 -6 0 -21 9 -34 21 l-24 20 30 -17 c17 -10 32 -19 34 -21z m-1207
13 c3 3 8 -2 11 -11 6 -14 4 -14 -23 0 -17 9 -30 18 -30 21 0 2 8 0 19 -5 10
-6 21 -8 23 -5z m418 -20 c0 -1 -7 -3 -15 -3 -8 0 -15 5 -15 10 0 5 -6 7 -13
4 -8 -3 -14 1 -14 8 0 11 6 11 29 -1 15 -8 28 -16 28 -18z m191 17 c9 -11 10
-14 2 -9 -7 4 -23 2 -35 -5 l-23 -12 20 21 c11 11 21 21 21 21 1 1 8 -7 15
-16z m191 3 c3 3 8 -2 12 -11 5 -13 2 -14 -14 -5 -11 6 -24 9 -29 6 -4 -3 -8
1 -8 9 0 10 5 11 17 5 10 -5 20 -7 22 -4z m215 2 c0 -7 -12 -14 -26 -15 l-26
-1 25 14 c14 7 25 13 26 14 0 0 1 -6 1 -12z m400 -3 c0 -8 -4 -12 -8 -9 -5 3
-18 0 -29 -6 -11 -6 -20 -8 -20 -6 0 4 31 24 56 36 0 0 1 -7 1 -15z m188 -14
c-6 -5 -25 10 -25 20 0 5 6 4 14 -3 8 -7 12 -15 11 -17z m-1739 -29 c-4 -3
-14 2 -24 12 -16 18 -16 18 6 6 13 -6 21 -14 18 -18z m1804 -2 c0 -4 -7 -7
-15 -7 -8 0 -13 3 -10 5 3 3 -3 11 -13 19 -15 11 -13 12 11 2 15 -7 27 -15 27
-19z m-1600 -1 c0 -14 -27 -10 -33 5 -4 10 0 12 14 9 10 -3 19 -9 19 -14z
m195 11 c3 -5 1 -10 -4 -10 -6 0 -11 5 -11 10 0 6 2 10 4 10 3 0 8 -4 11 -10z
m400 0 c3 -5 1 -10 -4 -10 -6 0 -11 5 -11 10 0 6 2 10 4 10 3 0 8 -4 11 -10z
m465 0 c0 -5 -5 -10 -11 -10 -5 0 -7 5 -4 10 3 6 8 10 11 10 2 0 4 -4 4 -10z
m405 0 c-3 -5 -11 -10 -16 -10 -6 0 -7 5 -4 10 3 6 11 10 16 10 6 0 7 -4 4
-10z m-1805 -10 c0 -5 -4 -10 -10 -10 -5 0 -10 5 -10 10 0 6 5 10 10 10 6 0
10 -4 10 -10z m400 0 c0 -5 -4 -10 -9 -10 -5 0 -18 -3 -28 -6 -16 -6 -16 -5 2
9 23 19 35 21 35 7z m340 0 c0 -5 -4 -10 -10 -10 -5 0 -10 5 -10 10 0 6 5 10
10 10 6 0 10 -4 10 -10z m60 0 c0 -5 -4 -10 -9 -10 -5 0 -18 -3 -28 -6 -16 -6
-16 -5 2 9 23 19 35 21 35 7z m340 0 c0 -5 -4 -10 -10 -10 -5 0 -10 5 -10 10
0 6 5 10 10 10 6 0 10 -4 10 -10z m60 0 c0 -5 -4 -10 -10 -10 -5 0 -10 5 -10
10 0 6 5 10 10 10 6 0 10 -4 10 -10z m355 -7 c18 -14 18 -15 2 -9 -10 3 -23 6
-28 6 -5 0 -9 5 -9 10 0 14 12 12 35 -7z m45 7 c0 -5 -4 -10 -10 -10 -5 0 -10
5 -10 10 0 6 5 10 10 10 6 0 10 -4 10 -10z m-1430 -11 c0 -5 -4 -8 -9 -5 -5 3
-14 -1 -21 -9 -7 -8 -18 -15 -24 -15 -12 0 34 39 47 40 4 0 7 -5 7 -11z m1600
7 c0 -3 -4 -8 -10 -11 -5 -3 -10 -1 -10 4 0 6 5 11 10 11 6 0 10 -2 10 -4z
m-1715 -26 c3 -5 2 -10 -4 -10 -5 0 -13 5 -16 10 -3 6 -2 10 4 10 5 0 13 -4
16 -10z m480 0 c-3 -5 -11 -10 -16 -10 -6 0 -7 5 -4 10 3 6 11 10 16 10 6 0 7
-4 4 -10z m405 6 c0 -3 -4 -8 -10 -11 -5 -3 -10 -1 -10 4 0 6 5 11 10 11 6 0
10 -2 10 -4z m65 -6 c3 -5 2 -10 -4 -10 -5 0 -13 5 -16 10 -3 6 -2 10 4 10 5
0 13 -4 16 -10z m330 0 c-3 -5 -11 -10 -16 -10 -6 0 -7 5 -4 10 3 6 11 10 16
10 6 0 7 -4 4 -10z m65 0 c0 -5 -2 -10 -4 -10 -3 0 -8 5 -11 10 -3 6 -1 10 4
10 6 0 11 -4 11 -10z m405 0 c3 -5 1 -10 -4 -10 -6 0 -11 5 -11 10 0 6 2 10 4
10 3 0 8 -4 11 -10z m-1039 -28 c-4 -3 -14 2 -24 12 -16 18 -16 18 6 6 13 -6
21 -14 18 -18z m414 13 c-14 -17 -30 -20 -30 -6 0 5 8 12 18 14 9 3 19 5 21 6
2 0 -2 -6 -9 -14z m-1095 -5 c3 -5 1 -10 -4 -10 -6 0 -11 5 -11 10 0 6 2 10 4
10 3 0 8 -4 11 -10z m160 0 c-3 -5 -12 -10 -18 -10 -7 0 -6 4 3 10 19 12 23
12 15 0z m126 -7 c13 -15 12 -15 -8 -4 -24 12 -29 21 -14 21 5 0 15 -7 22 -17z
m114 7 c3 -5 1 -10 -4 -10 -6 0 -11 5 -11 10 0 6 2 10 4 10 3 0 8 -4 11 -10z
m415 -6 c0 -2 -7 -4 -15 -4 -8 0 -15 4 -15 10 0 5 7 7 15 4 8 -4 15 -8 15 -10z
m545 -2 c-3 -3 -11 0 -18 7 -9 10 -8 11 6 5 10 -3 15 -9 12 -12z m130 8 c-3
-5 -11 -10 -16 -10 -6 0 -7 5 -4 10 3 6 11 10 16 10 6 0 7 -4 4 -10z m-509
-15 c25 -19 14 -19 -22 0 -16 8 -22 15 -13 15 8 0 24 -7 35 -15z m-796 -5 c0
-5 -2 -10 -4 -10 -3 0 -8 5 -11 10 -3 6 -1 10 4 10 6 0 11 -4 11 -10z m590 0
c0 -5 -5 -10 -11 -10 -5 0 -7 5 -4 10 3 6 8 10 11 10 2 0 4 -4 4 -10z m410 6
c0 -3 -4 -8 -10 -11 -5 -3 -10 -1 -10 4 0 6 5 11 10 11 6 0 10 -2 10 -4z m205
-6 c3 -5 1 -10 -4 -10 -6 0 -11 5 -11 10 0 6 2 10 4 10 3 0 8 -4 11 -10z m195
6 c0 -3 -4 -8 -10 -11 -5 -3 -10 -1 -10 4 0 6 5 11 10 11 6 0 10 -2 10 -4z"/>
</g>
</svg>
