<?xml version="1.0" standalone="no"?>
<!DOCTYPE svg PUBLIC "-//W3C//DTD SVG 20010904//EN"
 "http://www.w3.org/TR/2001/REC-SVG-20010904/DTD/svg10.dtd">
<svg version="1.0" xmlns="http://www.w3.org/2000/svg"
 width="200.000000pt" height="200.000000pt" viewBox="0 0 200.000000 200.000000"
 preserveAspectRatio="xMidYMid meet">
<metadata>
Created by potrace 1.16, written by Peter Selinger 2001-2019
</metadata>
<g transform="translate(0.000000,200.000000) scale(0.100000,-0.100000)"
fill="#000000" stroke="none">
<path d="M0 1967 c0 -18 6 -39 13 -46 10 -11 10 -13 0 -7 -10 6 -13 -41 -13
-219 0 -178 3 -225 13 -219 10 6 10 4 0 -7 -9 -9 -13 -49 -13 -124 l0 -111 75
-43 c41 -23 75 -45 75 -47 0 -6 -109 54 -125 68 -5 4 -13 8 -17 8 -4 0 -8 -99
-8 -220 0 -121 2 -220 4 -220 3 0 21 9 40 21 20 12 36 19 36 16 0 -3 -18 -16
-40 -28 l-40 -23 0 -112 0 -113 45 -27 c25 -14 45 -28 45 -31 0 -3 -20 7 -45
21 l-45 27 0 -226 0 -226 45 27 c25 14 45 24 45 21 0 -3 -20 -17 -45 -31 -40
-24 -45 -31 -45 -61 l0 -35 195 0 195 0 0 38 c0 36 -2 38 -96 91 -87 49 -97
53 -122 41 l-27 -12 25 24 c18 17 28 20 35 12 23 -25 195 -115 207 -108 10 5
11 4 1 -7 -7 -7 -13 -28 -13 -46 l0 -33 600 0 600 0 0 35 c0 33 -4 37 -80 81
-44 25 -80 48 -80 51 0 2 26 -10 58 -28 31 -18 69 -40 84 -49 23 -12 28 -22
28 -52 l0 -38 196 0 195 0 -3 36 c-3 34 -8 39 -98 91 -94 54 -95 55 -127 39
-41 -20 -44 -12 -3 9 l30 16 0 114 0 114 -30 16 c-41 21 -38 29 4 9 l33 -16
97 56 96 57 0 111 c0 94 -3 113 -18 124 -16 13 -16 14 3 7 18 -6 19 -5 5 12
-9 12 -10 16 -2 11 10 -6 12 34 12 204 -1 193 -3 211 -18 206 -15 -5 -15 -4 1
8 15 12 17 28 15 126 l-3 112 -95 55 c-94 54 -95 55 -127 39 -42 -20 -44 -12
-2 9 l30 16 -3 117 -3 117 53 28 c64 33 69 29 7 -8 l-46 -26 3 -116 3 -117 45
-26 c25 -14 66 -38 93 -53 l47 -28 0 226 c0 178 -3 225 -12 219 -10 -6 -10 -4
0 7 6 7 12 28 12 46 l0 33 -800 0 -800 0 0 -33 c0 -18 6 -39 13 -46 9 -11 9
-12 0 -7 -7 4 -27 0 -45 -9 -29 -14 -31 -14 -14 0 11 8 23 15 28 15 4 0 8 18
8 40 l0 40 -195 0 -195 0 0 -33z m1607 -9 c-3 -8 -6 -5 -6 6 -1 11 2 17 5 13
3 -3 4 -12 1 -19z m-783 -41 l21 -18 -23 11 c-20 10 -35 4 -115 -41 -51 -28
-97 -58 -103 -65 -8 -10 -13 -9 -22 6 -10 16 -9 18 3 14 8 -3 58 18 110 47 69
39 95 59 96 74 0 14 2 16 6 5 3 -8 15 -23 27 -33z m402 -3 c18 -14 18 -15 -3
-4 -17 8 -29 8 -45 0 -22 -11 -22 -10 -4 4 11 9 23 16 26 16 3 0 15 -7 26 -16z
m404 1 c17 -9 30 -18 30 -21 0 -2 -14 2 -30 11 -23 12 -35 13 -53 5 -21 -11
-21 -10 -3 4 24 19 21 19 56 1z m-1560 -31 c0 -2 -9 0 -20 6 -11 6 -20 13 -20
16 0 2 9 0 20 -6 11 -6 20 -13 20 -16z m420 -10 c0 -2 -13 2 -30 11 -16 9 -30
18 -30 21 0 2 14 -2 30 -11 17 -9 30 -18 30 -21z m1480 31 c0 -2 -13 -11 -30
-20 -38 -19 -40 -11 -2 9 31 17 32 18 32 11z m-1015 -68 c6 -6 -12 2 -40 18
-27 15 -54 32 -60 38 -5 6 13 -2 40 -18 28 -15 55 -32 60 -38z m195 58 c0 -2
-13 -11 -30 -20 -38 -19 -40 -11 -2 9 31 17 32 18 32 11z m160 -31 c0 -2 -13
2 -30 11 -16 9 -30 18 -30 21 0 2 14 -2 30 -11 17 -9 30 -18 30 -21z m235 27
c-16 -14 -105 -63 -105 -58 0 5 101 66 110 67 2 0 0 -4 -5 -9z m-1215 -6 c0
-2 -13 -11 -30 -20 -38 -19 -40 -11 -2 9 31 17 32 18 32 11z m1445 -58 c6 -6
-12 2 -40 18 -27 15 -54 32 -60 38 -5 6 13 -2 40 -18 28 -15 55 -32 60 -38z
m-1635 17 c0 -2 -9 0 -20 6 -11 6 -20 13 -20 16 0 2 9 0 20 -6 11 -6 20 -13
20 -16z m420 -10 c0 -2 -13 2 -30 11 -16 9 -30 18 -30 21 0 2 14 -2 30 -11 17
-9 30 -18 30 -21z m515 18 c-6 -5 -26 -19 -46 -30 -31 -19 -38 -20 -48 -8 -10
12 -9 14 7 9 10 -2 34 5 53 16 35 22 50 27 34 13z m305 -28 c0 -2 -13 2 -30
11 -16 9 -30 18 -30 21 0 2 14 -2 30 -11 17 -9 30 -18 30 -21z m-1120 21 c0
-2 -13 -11 -30 -20 l-30 -16 -2 -102 -2 -102 -3 100 c-3 89 -6 102 -26 118
l-22 18 26 -12 c21 -9 32 -8 55 5 33 17 34 18 34 11z m1160 -30 c-7 -8 -17
-12 -23 -8 -6 4 -3 9 9 14 27 11 28 11 14 -6z m-823 -67 c-3 -7 -5 -2 -5 12 0
14 2 19 5 13 2 -7 2 -19 0 -25z m-125 -237 c40 23 76 44 81 46 4 2 7 2 7 -1 0
-2 -36 -25 -79 -50 -44 -25 -81 -51 -84 -58 -4 -9 -6 -9 -6 2 -1 8 -45 39 -98
69 l-97 54 -50 -28 c-60 -33 -57 -26 5 13 l43 28 102 -59 102 -59 74 43z m258
-7 c0 -3 -29 11 -65 31 -38 22 -72 34 -82 31 -13 -5 -14 -4 -4 8 10 12 22 8
82 -26 38 -22 69 -42 69 -44z m750 29 c3 -3 -16 5 -41 18 -26 13 -45 27 -43
31 4 6 67 -31 84 -49z m-378 -8 c96 -55 98 -56 128 -40 16 8 30 13 30 11 0 -3
-14 -13 -30 -21 -30 -16 -32 -15 -131 41 l-100 57 -42 -23 c-23 -13 -39 -19
-35 -15 12 13 62 43 72 44 6 1 54 -24 108 -54z m278 40 c0 -2 -13 -11 -30 -20
-38 -19 -40 -11 -2 9 31 17 32 18 32 11z m350 -30 c0 -2 -13 -11 -30 -20 -38
-19 -40 -11 -2 9 31 17 32 18 32 11z m-820 -10 c0 -2 -13 -11 -30 -20 -38 -19
-40 -11 -2 9 31 17 32 18 32 11z m400 0 c0 -2 -10 -9 -22 -15 -22 -11 -22 -10
-4 4 21 17 26 19 26 11z m240 -31 c0 -2 -13 2 -30 11 -16 9 -30 18 -30 21 0 2
14 -2 30 -11 17 -9 30 -18 30 -21z m-1460 21 c0 -2 -13 -11 -30 -20 -38 -19
-40 -11 -2 9 31 17 32 18 32 11z m730 -35 c11 6 20 8 20 6 0 -3 -9 -10 -20
-16 -15 -8 -27 -7 -50 5 -16 9 -30 18 -30 21 0 2 14 -2 30 -11 23 -12 35 -13
50 -5z m840 15 c0 -2 -10 -9 -22 -15 -22 -11 -22 -10 -4 4 21 17 26 19 26 11z
m-50 -37 c0 -5 -11 -1 -25 8 -14 9 -25 18 -25 20 0 2 11 -2 25 -8 14 -6 25
-15 25 -20z m-1192 -235 c16 -13 16 -14 -2 -5 -14 7 -28 4 -53 -10 -18 -11
-33 -17 -33 -14 0 3 14 12 30 21 l30 16 2 102 2 102 3 -99 c3 -79 7 -102 21
-113z m1189 165 c-3 -8 -6 -5 -6 6 -1 11 2 17 5 13 3 -3 4 -12 1 -19z m-810
-10 c-3 -8 -6 -5 -6 6 -1 11 2 17 5 13 3 -3 4 -12 1 -19z m810 -50 c-3 -8 -6
-5 -6 6 -1 11 2 17 5 13 3 -3 4 -12 1 -19z m-810 -30 c-3 -8 -6 -5 -6 6 -1 11
2 17 5 13 3 -3 4 -12 1 -19z m98 -121 c6 -5 -14 3 -43 19 l-53 29 -62 -34
c-73 -40 -70 -32 5 14 l53 33 45 -26 c25 -13 50 -29 55 -35z m321 54 c5 -5 49
-32 98 -60 l88 -51 101 58 100 59 76 -45 c42 -25 86 -51 99 -59 21 -13 22 -20
22 -126 0 -77 4 -117 13 -126 10 -11 9 -13 -1 -7 -7 5 -53 -17 -111 -52 l-99
-59 -100 59 -100 58 -88 -51 c-49 -28 -94 -55 -101 -61 -8 -6 -24 -2 -50 15
-21 13 -66 40 -100 61 l-63 37 -45 -26 c-25 -15 -45 -25 -45 -22 0 3 20 17 45
31 43 26 44 28 48 84 l3 57 2 -60 2 -61 91 -52 c50 -29 96 -52 101 -52 6 0 52
25 104 56 l95 55 -3 111 -3 111 -90 53 c-49 29 -95 53 -101 53 -7 1 -53 -22
-103 -51 -82 -47 -91 -55 -92 -83 -2 -27 -2 -27 -6 -5 -3 14 -10 31 -15 38 -8
9 -7 11 3 8 8 -3 57 22 109 54 106 65 102 63 116 51z m-689 -70 l72 -41 35 21
c20 12 36 19 36 16 0 -3 -16 -14 -36 -26 l-35 -21 -80 46 c-43 25 -79 48 -79
50 0 3 3 3 8 1 4 -2 39 -23 79 -46z m1433 44 c0 -2 -13 -11 -30 -20 -38 -19
-40 -11 -2 9 31 17 32 18 32 11z m30 -9 c0 -2 -7 -7 -16 -10 -8 -3 -12 -2 -9
4 6 10 25 14 25 6z m-1683 -19 c-123 -80 -111 -75 -132 -54 -20 19 -20 20 2 8
19 -9 31 -6 80 24 54 32 91 49 50 22z m1643 -2 c0 -2 -10 -9 -22 -15 -22 -11
-22 -10 -4 4 21 17 26 19 26 11z m-980 -41 c0 -2 -13 2 -30 11 -16 9 -30 18
-30 21 0 2 14 -2 30 -11 17 -9 30 -18 30 -21z m920 31 c0 -2 -10 -9 -22 -15
-22 -11 -22 -10 -4 4 21 17 26 19 26 11z m10 -20 c0 -2 -13 -11 -30 -20 -38
-19 -40 -11 -2 9 31 17 32 18 32 11z m-73 -72 c-3 -10 -5 -4 -5 12 0 17 2 24
5 18 2 -7 2 -21 0 -30z m-1627 -93 c0 -93 -1 -100 -22 -110 -21 -10 -21 -10
-5 3 14 12 17 31 17 111 0 53 2 96 5 96 3 0 5 -45 5 -100z m806 33 c-11 -11
-19 6 -11 24 8 17 8 17 12 0 3 -10 2 -21 -1 -24z m821 -60 c-2 -21 -4 -6 -4
32 0 39 2 55 4 38 2 -18 2 -50 0 -70z m-1230 35 c-3 -8 -6 -5 -6 6 -1 11 2 17
5 13 3 -3 4 -12 1 -19z m37 -119 c20 -12 36 -23 36 -26 0 -3 -16 4 -36 16
l-35 21 -72 -41 c-90 -52 -94 -54 -84 -44 6 7 146 93 154 95 1 0 18 -9 37 -21z
m1246 -5 c0 -2 -9 0 -20 6 -11 6 -20 13 -20 16 0 2 9 0 20 -6 11 -6 20 -13 20
-16z m-1610 -20 c0 -2 -13 2 -30 11 -16 9 -30 18 -30 21 0 2 14 -2 30 -11 17
-9 30 -18 30 -21z m-120 11 c0 -2 -13 -11 -30 -20 -38 -19 -40 -11 -2 9 31 17
32 18 32 11z m1740 -21 c0 -2 -9 0 -20 6 -11 6 -20 13 -20 16 0 2 9 0 20 -6
11 -6 20 -13 20 -16z m60 -10 c0 -2 -9 0 -20 6 -11 6 -20 13 -20 16 0 2 9 0
20 -6 11 -6 20 -13 20 -16z m-1630 -10 c0 -2 -9 0 -20 6 -11 6 -20 13 -20 16
0 2 9 0 20 -6 11 -6 20 -13 20 -16z m420 -10 c0 -2 -13 2 -30 11 -16 9 -30 18
-30 21 0 2 14 -2 30 -11 17 -9 30 -18 30 -21z m160 21 c0 -2 -13 -11 -30 -20
-38 -19 -40 -11 -2 9 31 17 32 18 32 11z m1060 -31 c0 -2 -13 2 -30 11 -16 9
-30 18 -30 21 0 2 14 -2 30 -11 17 -9 30 -18 30 -21z m-1546 -10 c20 5 20 4 3
-9 -16 -12 -23 -11 -53 7 -43 25 -45 34 -3 12 17 -8 41 -13 53 -10z m400 0
c20 5 20 4 2 -9 -16 -12 -22 -12 -42 2 -30 19 -32 28 -3 12 12 -6 31 -8 43 -5z
m-417 -81 c-3 -10 -5 -2 -5 17 0 19 2 27 5 18 2 -10 2 -26 0 -35z m0 -115 c-3
-7 -5 -2 -5 12 0 14 2 19 5 13 2 -7 2 -19 0 -25z m1210 10 c-3 -8 -6 -5 -6 6
-1 11 2 17 5 13 3 -3 4 -12 1 -19z m-810 -10 c-3 -8 -6 -5 -6 6 -1 11 2 17 5
13 3 -3 4 -12 1 -19z m-373 -61 c21 -17 21 -17 -6 -6 -18 8 -28 19 -27 33 0
14 2 16 6 6 3 -8 15 -23 27 -33z m1186 15 c0 -5 -12 -14 -27 -21 l-28 -12 25
21 c29 22 30 23 30 12z m-784 -18 c18 -14 18 -15 -3 -4 -18 8 -30 7 -53 -5
-38 -19 -40 -11 -2 9 34 19 34 19 58 0z m400 0 c18 -14 18 -15 -4 -4 -19 9
-31 6 -77 -20 -30 -17 -55 -29 -55 -27 0 6 101 66 111 67 3 0 14 -7 25 -16z
m-846 2 c0 -3 -40 -28 -90 -57 -89 -51 -90 -52 -92 -93 l-1 -41 -4 42 c-4 38
-9 45 -49 69 -60 35 -56 42 4 8 l49 -27 89 51 c94 54 94 54 94 48z m1300 -32
c0 -2 -13 2 -30 11 -16 9 -30 18 -30 21 0 2 14 -2 30 -11 17 -9 30 -18 30 -21z
m-1125 -47 c6 -6 -12 2 -40 18 -27 15 -54 32 -60 38 -5 6 13 -2 40 -18 28 -15
55 -32 60 -38z m355 27 c0 -2 -13 2 -30 11 -16 9 -30 18 -30 21 0 2 14 -2 30
-11 17 -9 30 -18 30 -21z m640 31 c0 -2 -13 -11 -30 -20 -38 -19 -40 -11 -2 9
31 17 32 18 32 11z m-820 -10 c0 -2 -10 -9 -22 -15 -22 -11 -22 -10 -4 4 21
17 26 19 26 11z m645 -58 c6 -6 -12 2 -40 18 -27 15 -54 32 -60 38 -5 6 13 -2
40 -18 28 -15 55 -32 60 -38z m355 27 c0 -2 -9 0 -20 6 -11 6 -20 13 -20 16 0
2 9 0 20 -6 11 -6 20 -13 20 -16z m-730 -42 c-8 -3 -80 37 -80 44 0 2 20 -6
44 -18 24 -13 40 -24 36 -26z m479 44 c-17 -18 -78 -53 -83 -49 -3 3 14 16 37
29 41 23 55 28 46 20z m-819 -10 c0 -2 -15 -13 -34 -24 -30 -18 -36 -19 -47
-6 -10 12 -9 13 4 8 8 -3 28 1 44 10 31 17 33 18 33 12z m400 -1 c0 -2 -10 -9
-22 -15 -22 -11 -22 -10 -4 4 21 17 26 19 26 11z m-863 -197 c-2 -13 -4 -3 -4
22 0 25 2 35 4 23 2 -13 2 -33 0 -45z m1225 -75 c6 -8 4 -10 -10 -6 -14 3 -18
11 -14 26 4 15 7 17 10 7 3 -8 9 -20 14 -27z m-762 -29 c0 -3 -14 3 -31 11
-17 9 -38 14 -46 10 -13 -4 -14 -3 -4 9 11 13 17 12 47 -6 19 -11 34 -22 34
-24z m325 20 c-16 -8 -55 -29 -85 -46 -30 -17 -52 -28 -48 -23 15 16 134 84
148 85 8 0 2 -7 -15 -16z m95 -30 c0 -2 -13 2 -30 11 -16 9 -30 18 -30 21 0 2
14 -2 30 -11 17 -9 30 -18 30 -21z m300 31 c0 -2 -13 -11 -30 -20 -38 -19 -40
-11 -2 9 31 17 32 18 32 11z m-820 -10 c0 -2 -13 -11 -30 -20 -38 -19 -40 -11
-2 9 31 17 32 18 32 11z m-420 -10 c0 -2 -10 -9 -22 -15 -22 -11 -22 -10 -4 4
21 17 26 19 26 11z m590 -41 c0 -2 -13 2 -30 11 -16 9 -30 18 -30 21 0 2 14
-2 30 -11 17 -9 30 -18 30 -21z m1000 31 c0 -2 -13 -11 -30 -20 -38 -19 -40
-11 -2 9 31 17 32 18 32 11z m-580 -41 c0 -2 -13 2 -30 11 -16 9 -30 18 -30
21 0 2 14 -2 30 -11 17 -9 30 -18 30 -21z m160 31 c0 -2 -13 -11 -30 -20 -38
-19 -40 -11 -2 9 31 17 32 18 32 11z m-820 -10 c0 -2 -13 -11 -30 -20 -38 -19
-40 -11 -2 9 31 17 32 18 32 11z m330 -35 c11 6 20 8 20 6 0 -3 -9 -10 -20
-16 -15 -8 -27 -7 -50 5 -16 9 -30 18 -30 21 0 2 14 -2 30 -11 23 -12 35 -13
50 -5z m840 15 c0 -2 -10 -9 -22 -15 -22 -11 -22 -10 -4 4 21 17 26 19 26 11z
m-437 -15 c21 11 21 10 3 -4 -11 -9 -23 -16 -26 -16 -3 0 -15 7 -26 16 -18 14
-18 15 4 4 16 -8 28 -8 45 0z"/>
<path d="M1506 1163 l-96 -55 0 -108 0 -107 78 -45 c108 -64 118 -68 128 -59
5 5 29 20 54 33 25 13 62 35 83 47 l38 23 -3 110 -3 110 -91 53 -92 53 -96
-55z"/>
<path d="M1902 474 l-93 -56 3 -115 3 -115 93 -54 92 -53 0 224 c0 124 -1 225
-2 225 -2 -1 -45 -26 -96 -56z"/>
</g>
</svg>
