<?xml version="1.0" standalone="no"?>
<!DOCTYPE svg PUBLIC "-//W3C//DTD SVG 20010904//EN"
 "http://www.w3.org/TR/2001/REC-SVG-20010904/DTD/svg10.dtd">
<svg version="1.0" xmlns="http://www.w3.org/2000/svg"
 width="200.000000pt" height="200.000000pt" viewBox="0 0 200.000000 200.000000"
 preserveAspectRatio="xMidYMid meet">
<metadata>
Created by potrace 1.16, written by Peter Selinger 2001-2019
</metadata>
<g transform="translate(0.000000,200.000000) scale(0.100000,-0.100000)"
fill="#000000" stroke="none">
<path d="M0 1967 c0 -18 6 -39 13 -46 10 -11 10 -13 0 -7 -10 6 -13 -41 -13
-219 0 -178 3 -225 13 -219 10 6 10 4 0 -7 -9 -9 -13 -49 -13 -124 l0 -112 50
-27 c28 -15 50 -30 50 -32 0 -3 -21 6 -46 20 -26 14 -48 26 -50 26 -2 0 -4
-99 -4 -221 0 -206 1 -221 18 -215 16 6 16 5 0 -8 -15 -11 -18 -30 -18 -123 0
-73 4 -113 13 -122 9 -11 9 -13 0 -7 -10 6 -13 -41 -13 -219 0 -178 3 -225 12
-219 11 6 11 4 0 -7 -6 -7 -12 -28 -12 -46 l0 -33 194 0 c146 0 196 3 199 13
4 9 6 9 6 0 1 -10 128 -13 601 -13 l600 0 0 34 c0 23 -7 38 -22 50 l-23 16 25
-11 c22 -9 38 -3 123 46 l97 57 0 114 0 113 -30 16 c-41 21 -38 28 4 9 l34
-17 96 57 96 57 0 111 c0 94 -3 113 -18 124 -16 13 -16 14 1 8 16 -6 17 9 17
221 0 124 -3 224 -7 222 -5 -3 -8 49 -8 116 l0 121 -92 53 -91 53 -96 -56 -96
-56 -2 -117 -2 -116 -3 115 c-3 105 -6 117 -26 133 l-22 18 23 -11 c20 -10 36
-4 123 45 l99 56 0 114 0 113 -99 57 c-86 49 -103 55 -123 45 l-23 -11 23 17
c15 11 22 27 22 50 l0 34 -599 0 c-470 0 -600 -3 -604 -12 -4 -10 -6 -10 -6 0
-1 9 -47 12 -196 12 l-195 0 0 -33z m411 -44 c9 -11 10 -14 2 -10 -7 5 -27 1
-45 -8 -27 -13 -29 -13 -13 -1 11 8 25 20 30 25 6 6 11 10 11 11 1 0 8 -8 15
-17z m415 -9 c18 -14 18 -15 -3 -4 -18 8 -30 7 -53 -5 -38 -19 -40 -11 -2 9
34 19 34 19 58 0z m400 0 c18 -14 18 -15 -3 -4 -17 8 -29 8 -45 0 -22 -11 -22
-10 -4 4 11 9 23 16 26 16 3 0 15 -7 26 -16z m-1156 -30 c0 -2 -9 0 -20 6 -11
6 -20 13 -20 16 0 2 9 0 20 -6 11 -6 20 -13 20 -16z m420 -10 c0 -2 -13 2 -30
11 -16 9 -30 18 -30 21 0 2 14 -2 30 -11 17 -9 30 -18 30 -21z m400 0 c0 -2
-9 0 -20 6 -11 6 -20 13 -20 16 0 2 9 0 20 -6 11 -6 20 -13 20 -16z m260 21
c0 -2 -13 -11 -30 -20 -38 -19 -40 -11 -2 9 31 17 32 18 32 11z m160 -31 c0
-2 -13 2 -30 11 -16 9 -30 18 -30 21 0 2 14 -2 30 -11 17 -9 30 -18 30 -21z
m240 31 c0 -2 -10 -9 -22 -15 -22 -11 -22 -10 -4 4 21 17 26 19 26 11z m-1220
-10 c0 -2 -13 -11 -30 -20 -38 -19 -40 -11 -2 9 31 17 32 18 32 11z m395 -4
c-16 -14 -105 -63 -105 -58 0 5 101 66 110 67 2 0 0 -4 -5 -9z m-585 -37 c0
-2 -9 0 -20 6 -11 6 -20 13 -20 16 0 2 9 0 20 -6 11 -6 20 -13 20 -16z m420
-10 c0 -2 -13 2 -30 11 -16 9 -30 18 -30 21 0 2 14 -2 30 -11 17 -9 30 -18 30
-21z m940 31 c0 -2 -13 -11 -30 -20 -38 -19 -40 -11 -2 9 31 17 32 18 32 11z
m-540 -31 c0 -2 -9 0 -20 6 -11 6 -20 13 -20 16 0 2 9 0 20 -6 11 -6 20 -13
20 -16z m120 21 c0 -2 -13 -11 -30 -20 -38 -19 -40 -11 -2 9 31 17 32 18 32
11z m300 -31 c0 -2 -13 2 -30 11 -16 9 -30 18 -30 21 0 2 14 -2 30 -11 17 -9
30 -18 30 -21z m-1120 22 c0 -2 -15 -13 -33 -24 -33 -19 -34 -19 -58 0 l-24
19 26 -12 c21 -9 32 -8 55 5 32 17 34 18 34 12z m341 -34 c-7 -2 -18 1 -23 6
-8 8 -4 9 13 5 13 -4 18 -8 10 -11z m400 0 c-7 -2 -18 1 -23 6 -8 8 -4 9 13 5
13 -4 18 -8 10 -11z m409 -2 c0 -5 -2 -10 -4 -10 -3 0 -8 5 -11 10 -3 6 -1 10
4 10 6 0 11 -4 11 -10z m-1213 -102 c-2 -18 -4 -6 -4 27 0 33 2 48 4 33 2 -15
2 -42 0 -60z m400 40 c-3 -7 -5 -2 -5 12 0 14 2 19 5 13 2 -7 2 -19 0 -25z
m-400 -125 c-3 -10 -5 -4 -5 12 0 17 2 24 5 18 2 -7 2 -21 0 -30z m113 -110
c0 -2 -25 10 -57 28 l-56 32 -51 -28 c-60 -33 -57 -26 5 14 l44 27 57 -34 c32
-19 58 -36 58 -39z m350 31 c0 -3 -14 3 -31 11 -17 9 -38 14 -46 10 -13 -4
-14 -3 -4 9 11 13 17 12 47 -6 19 -11 34 -22 34 -24z m759 32 c10 -12 8 -13
-8 -9 -12 3 -18 9 -15 14 7 12 10 11 23 -5z m-379 -16 c22 -11 40 -23 40 -25
0 -5 -79 32 -89 41 -11 10 14 2 49 -16z m-60 5 c0 -2 -13 -11 -30 -20 -38 -19
-40 -11 -2 9 31 17 32 18 32 11z m400 0 c0 -2 -13 -11 -30 -20 -38 -19 -40
-11 -2 9 31 17 32 18 32 11z m-820 -10 c0 -2 -10 -9 -22 -15 -22 -11 -22 -10
-4 4 21 17 26 19 26 11z m920 -21 c0 -2 -9 0 -20 6 -11 6 -20 13 -20 16 0 2 9
0 20 -6 11 -6 20 -13 20 -16z m-750 -30 c0 -2 -13 2 -30 11 -16 9 -30 18 -30
21 0 2 14 -2 30 -11 17 -9 30 -18 30 -21z m180 21 c0 -2 -13 -11 -30 -20 -38
-19 -40 -11 -2 9 31 17 32 18 32 11z m240 -31 c0 -2 -13 2 -30 11 -16 9 -30
18 -30 21 0 2 14 -2 30 -11 17 -9 30 -18 30 -21z m160 31 c0 -2 -10 -9 -22
-15 -22 -11 -22 -10 -4 4 21 17 26 19 26 11z m240 -31 c0 -2 -13 2 -30 11 -16
9 -30 18 -30 21 0 2 14 -2 30 -11 17 -9 30 -18 30 -21z m-1460 21 c0 -2 -13
-11 -30 -20 -38 -19 -40 -11 -2 9 31 17 32 18 32 11z m400 1 c0 -6 -87 -56
-97 -56 -4 0 15 14 42 30 53 31 55 32 55 26z m-110 -42 c0 -2 -9 0 -20 6 -11
6 -20 13 -20 16 0 2 9 0 20 -6 11 -6 20 -13 20 -16z m440 6 c11 6 20 8 20 6 0
-3 -9 -10 -20 -16 -15 -8 -27 -7 -50 5 -16 9 -30 18 -30 21 0 2 14 -2 30 -11
23 -12 35 -13 50 -5z m440 15 c0 -2 -14 -11 -30 -20 -23 -12 -35 -13 -50 -5
-11 6 -20 13 -20 16 0 2 9 0 20 -6 15 -8 27 -7 47 4 32 17 33 18 33 11z m-863
-142 c-2 -16 -4 -5 -4 22 0 28 2 40 4 28 2 -13 2 -35 0 -50z m21 -131 c16 -12
15 -12 -2 -4 -14 7 -28 4 -53 -10 -18 -11 -33 -17 -33 -14 0 3 14 12 30 21 26
14 30 21 32 63 l1 47 4 -44 c3 -26 11 -51 21 -59z m412 -6 c0 -2 -9 -2 -19 1
-10 3 -30 0 -42 -7 -24 -11 -24 -11 1 9 18 14 29 17 42 10 10 -5 18 -11 18
-13z m473 -39 l97 -58 0 -119 0 -119 -101 -59 -101 -59 -96 59 c-56 33 -103
56 -112 53 -12 -5 -13 -4 -2 6 8 9 12 48 12 119 0 71 -4 110 -12 119 -9 10 -9
12 -1 7 11 -6 188 88 199 106 7 11 -1 15 117 -55z m283 38 c-1 -8 -5 -17 -8
-21 -5 -4 -4 16 1 34 3 9 9 -1 7 -13z m-1086 -41 c0 -2 -13 2 -30 11 -16 9
-30 18 -30 21 0 2 14 -2 30 -11 17 -9 30 -18 30 -21z m1150 10 c0 -2 -9 0 -20
6 -11 6 -20 13 -20 16 0 2 9 0 20 -6 11 -6 20 -13 20 -16z m300 21 c0 -2 -10
-9 -22 -15 -22 -11 -22 -10 -4 4 21 17 26 19 26 11z m-1210 -10 c0 -2 -13 -11
-30 -20 -38 -19 -40 -11 -2 9 31 17 32 18 32 11z m796 -11 c-1 -9 -10 -20 -18
-25 -21 -12 -18 18 3 32 18 11 18 12 15 -7z m-1229 -7 c-123 -80 -111 -75
-132 -54 -20 19 -20 20 2 8 19 -9 31 -6 80 24 54 32 91 49 50 22z m1663 -2 c0
-2 -10 -9 -22 -15 -22 -11 -22 -10 -4 4 21 17 26 19 26 11z m-1820 -31 c0 -2
-9 0 -20 6 -11 6 -20 13 -20 16 0 2 9 0 20 -6 11 -6 20 -13 20 -16z m400 0 c0
-2 -9 0 -20 6 -11 6 -20 13 -20 16 0 2 9 0 20 -6 11 -6 20 -13 20 -16z m1170
0 c0 -2 -9 0 -20 6 -11 6 -20 13 -20 16 0 2 9 0 20 -6 11 -6 20 -13 20 -16z
m-1050 12 c0 -2 -16 -14 -36 -26 -29 -16 -39 -18 -48 -9 -8 9 -8 10 1 5 6 -3
27 3 45 14 35 21 38 22 38 16z m796 -11 c-1 -8 -6 -18 -11 -22 -4 -5 -5 -2 0
6 6 11 4 13 -11 8 -18 -7 -18 -7 0 8 24 18 25 18 22 0z m314 -11 c0 -2 -9 0
-20 6 -11 6 -20 13 -20 16 0 2 9 0 20 -6 11 -6 20 -13 20 -16z m120 1 c0 -2
-10 -9 -22 -15 -22 -11 -22 -10 -4 4 21 17 26 19 26 11z m-111 -146 c-1 -104
-4 -121 -19 -129 -14 -8 -18 -6 -16 7 2 9 8 19 14 21 8 2 12 38 12 109 0 89
-3 108 -17 120 -16 13 -16 13 5 3 22 -11 23 -15 21 -131z m-1592 19 c-2 -13
-4 -3 -4 22 0 25 2 35 4 23 2 -13 2 -33 0 -45z m1640 30 c-3 -8 -6 -5 -6 6 -1
11 2 17 5 13 3 -3 4 -12 1 -19z m-1640 -100 c-3 -8 -6 -5 -6 6 -1 11 2 17 5
13 3 -3 4 -12 1 -19z m1647 -34 c3 -8 2 -12 -4 -9 -6 3 -10 10 -10 16 0 14 7
11 14 -7z m-1644 -14 c0 -5 -10 -15 -22 -21 l-23 -12 20 21 c23 24 25 25 25
12z m434 -21 c20 -12 36 -23 36 -26 0 -3 -16 4 -36 16 -28 17 -40 19 -57 10
-21 -10 -21 -10 -3 5 24 19 18 20 60 -5z m-364 -25 c0 -2 -13 2 -30 11 -16 9
-30 18 -30 21 0 2 14 -2 30 -11 17 -9 30 -18 30 -21z m1196 11 c2 -12 -2 -12
-17 -5 -23 13 -25 22 -2 13 12 -5 14 -3 8 8 -5 8 -4 11 0 6 5 -4 10 -14 11
-22z m424 -21 c0 -2 -13 2 -30 11 -16 9 -30 18 -30 21 0 2 14 -2 30 -11 17 -9
30 -18 30 -21z m-1740 21 c0 -2 -13 -11 -30 -20 -38 -19 -40 -11 -2 9 31 17
32 18 32 11z m395 -4 c-16 -14 -105 -63 -105 -58 0 5 101 66 110 67 2 0 0 -4
-5 -9z m1171 -7 c-1 -9 -10 -20 -18 -25 -21 -12 -18 18 3 32 18 11 18 12 15
-7z m-180 -28 c2 -12 -2 -14 -14 -7 -8 5 -17 16 -18 25 -2 12 2 14 14 7 8 -5
17 -16 18 -25z m-1216 -2 c0 -2 -9 0 -20 6 -11 6 -20 13 -20 16 0 2 9 0 20 -6
11 -6 20 -13 20 -16z m494 -30 c20 5 20 4 3 -8 -16 -12 -25 -10 -74 20 -76 45
-82 55 -9 15 36 -20 67 -31 80 -27z m86 41 c0 -2 -13 -11 -30 -20 -38 -19 -40
-11 -2 9 31 17 32 18 32 11z m-820 -10 c0 -2 -10 -9 -22 -15 -22 -11 -22 -10
-4 4 21 17 26 19 26 11z m1566 -10 c-1 -8 -5 -17 -8 -21 -5 -4 -4 16 1 34 3 9
9 -1 7 -13z m314 -11 c0 -2 -9 0 -20 6 -11 6 -20 13 -20 16 0 2 9 0 20 -6 11
-6 20 -13 20 -16z m-1544 -12 c18 9 18 9 1 -6 -17 -13 -22 -12 -53 6 -19 11
-34 22 -34 25 0 3 15 -4 33 -15 25 -14 39 -17 53 -10z m1169 7 c-6 -9 9 -13
30 -9 6 1 4 -4 -2 -11 -10 -10 -16 -10 -25 -1 -14 14 -20 44 -7 36 5 -3 7 -10
4 -15z m-1188 -91 c-3 -8 -6 -5 -6 6 -1 11 2 17 5 13 3 -3 4 -12 1 -19z m0
-110 c-3 -7 -5 -2 -5 12 0 14 2 19 5 13 2 -7 2 -19 0 -25z m27 -61 c21 -17 21
-17 -6 -6 -18 8 -28 19 -27 33 0 14 2 16 6 6 3 -8 15 -23 27 -33z m402 -3 c18
-14 18 -15 -3 -4 -18 8 -30 7 -53 -5 -38 -19 -40 -11 -2 9 34 19 34 19 58 0z
m400 0 c18 -14 18 -15 -3 -4 -18 8 -30 7 -53 -5 -38 -19 -40 -11 -2 9 34 19
34 19 58 0z m383 12 c-2 -2 -15 -9 -29 -15 -24 -11 -24 -11 -6 3 16 13 49 24
35 12z m-1229 -10 c0 -2 -37 -25 -82 -52 -46 -26 -88 -53 -94 -60 -8 -10 -13
-9 -21 6 -10 15 -9 17 5 14 9 -3 55 18 102 45 89 53 90 53 90 47z m-290 -42
c0 -2 -13 2 -30 11 -16 9 -30 18 -30 21 0 2 14 -2 30 -11 17 -9 30 -18 30 -21z
m400 0 c0 -2 -9 0 -20 6 -11 6 -20 13 -20 16 0 2 9 0 20 -6 11 -6 20 -13 20
-16z m420 -10 c0 -2 -13 2 -30 11 -16 9 -30 18 -30 21 0 2 14 -2 30 -11 17 -9
30 -18 30 -21z m640 31 c0 -2 -13 -11 -30 -20 -38 -19 -40 -11 -2 9 31 17 32
18 32 11z m-820 -10 c0 -2 -13 -11 -30 -20 -38 -19 -40 -11 -2 9 31 17 32 18
32 11z m400 0 c0 -2 -10 -9 -22 -15 -22 -11 -22 -10 -4 4 21 17 26 19 26 11z
m180 -21 c0 -2 -9 0 -20 6 -11 6 -20 13 -20 16 0 2 9 0 20 -6 11 -6 20 -13 20
-16z m-1150 -30 c0 -2 -13 2 -30 11 -16 9 -30 18 -30 21 0 2 14 -2 30 -11 17
-9 30 -18 30 -21z m400 0 c0 -2 -13 2 -30 11 -16 9 -30 18 -30 21 0 2 14 -2
30 -11 17 -9 30 -18 30 -21z m440 -22 c-8 -3 -80 37 -80 44 0 2 20 -6 44 -18
24 -13 40 -24 36 -26z m80 43 c0 -2 -13 -11 -30 -20 -38 -19 -40 -11 -2 9 31
17 32 18 32 11z m400 0 c0 -2 -10 -9 -22 -15 -22 -11 -22 -10 -4 4 21 17 26
19 26 11z m-820 -10 c0 -2 -10 -9 -22 -15 -22 -11 -22 -10 -4 4 21 17 26 19
26 11z m720 -21 c0 -2 -9 0 -20 6 -11 6 -20 13 -20 16 0 2 9 0 20 -6 11 -6 20
-13 20 -16z m-776 -16 c-3 -5 -12 -4 -20 3 -19 16 -18 18 6 12 11 -3 17 -9 14
-15z m816 7 c-7 -8 -17 -12 -23 -8 -6 4 -3 9 9 14 27 11 28 11 14 -6z m-1223
-72 c-3 -10 -5 -4 -5 12 0 17 2 24 5 18 2 -7 2 -21 0 -30z m0 -65 c-3 -7 -5
-2 -5 12 0 14 2 19 5 13 2 -7 2 -19 0 -25z m0 -40 c-3 -8 -6 -5 -6 6 -1 11 2
17 5 13 3 -3 4 -12 1 -19z m110 -118 c57 -32 97 -49 105 -44 10 6 10 5 2 -7
-7 -8 -14 -23 -17 -34 -4 -17 -5 -16 -6 5 -1 21 -18 34 -96 79 -52 29 -102 51
-110 47 -12 -4 -13 -2 -3 14 9 15 14 16 22 6 6 -7 52 -37 103 -66z m1111 58
c11 -14 10 -16 -7 -11 -12 3 -17 11 -14 19 3 8 6 14 7 12 1 -2 7 -11 14 -20z
m-814 3 c3 -5 -3 -11 -15 -14 -16 -4 -18 -3 -8 9 13 16 16 17 23 5z m400 0 c3
-5 -3 -11 -15 -14 -16 -4 -18 -3 -8 9 13 16 16 17 23 5z m-344 -37 c0 -2 -9 0
-20 6 -11 6 -20 13 -20 16 0 2 9 0 20 -6 11 -6 20 -13 20 -16z m420 -10 c0 -2
-13 2 -30 11 -16 9 -30 18 -30 21 0 2 14 -2 30 -11 17 -9 30 -18 30 -21z m300
31 c0 -2 -13 -11 -30 -20 -38 -19 -40 -11 -2 9 31 17 32 18 32 11z m-820 -10
c0 -2 -10 -9 -22 -15 -22 -11 -22 -10 -4 4 21 17 26 19 26 11z m400 0 c0 -2
-13 -11 -30 -20 -38 -19 -40 -11 -2 9 31 17 32 18 32 11z m520 -21 c0 -2 -9 0
-20 6 -11 6 -20 13 -20 16 0 2 9 0 20 -6 11 -6 20 -13 20 -16z m-1340 11 c0
-2 -10 -9 -22 -15 -22 -11 -22 -10 -4 4 21 17 26 19 26 11z m590 -41 c0 -2 -9
0 -20 6 -11 6 -20 13 -20 16 0 2 9 0 20 -6 11 -6 20 -13 20 -16z m420 -10 c0
-2 -13 2 -30 11 -16 9 -30 18 -30 21 0 2 14 -2 30 -11 17 -9 30 -18 30 -21z
m160 31 c0 -2 -13 -11 -30 -20 -38 -19 -40 -11 -2 9 31 17 32 18 32 11z
m-1220 -10 c0 -2 -13 -11 -30 -20 -38 -19 -40 -11 -2 9 31 17 32 18 32 11z
m400 0 c0 -2 -13 -11 -30 -20 -38 -19 -40 -11 -2 9 31 17 32 18 32 11z m400 0
c0 -2 -10 -9 -22 -15 -22 -11 -22 -10 -4 4 21 17 26 19 26 11z m660 -21 c0 -2
-9 0 -20 6 -11 6 -20 13 -20 16 0 2 9 0 20 -6 11 -6 20 -13 20 -16z m-727 -14
c21 11 21 10 3 -4 -11 -9 -23 -16 -26 -16 -3 0 -15 7 -26 16 -18 14 -18 15 4
4 16 -8 28 -8 45 0z m400 0 c21 11 21 10 3 -4 -11 -9 -23 -16 -26 -16 -3 0
-15 7 -26 16 -18 14 -18 15 4 4 16 -8 28 -8 45 0z"/>
<path d="M1105 1166 l-90 -52 0 -114 0 -114 93 -53 92 -54 93 53 92 53 0 114
0 115 -90 53 c-49 29 -92 53 -95 52 -3 0 -45 -24 -95 -53z"/>
<path d="M1612 1963 c3 -35 7 -40 96 -91 l93 -53 100 56 c95 55 99 59 99 91
l0 34 -196 0 -195 0 3 -37z"/>
<path d="M1902 1863 l-93 -55 3 -116 3 -116 90 -52 90 -52 3 109 c1 59 1 159
0 222 l-3 115 -93 -55z"/>
<path d="M1898 467 l-88 -51 0 -111 0 -111 40 -23 c22 -12 40 -27 40 -32 0 -5
-20 2 -44 16 l-44 26 -96 -57 c-92 -53 -96 -57 -96 -90 l0 -34 190 0 c105 0
190 3 191 8 0 4 2 17 3 30 2 12 -3 27 -11 33 -18 15 -17 30 2 23 13 -5 15 22
15 210 0 119 -3 216 -7 215 -5 0 -47 -24 -95 -52z m62 -368 c0 -5 -13 -2 -30
8 -16 9 -30 21 -30 25 0 5 14 2 30 -7 17 -9 30 -20 30 -26z"/>
</g>
</svg>
