<?xml version="1.0" standalone="no"?>
<!DOCTYPE svg PUBLIC "-//W3C//DTD SVG 20010904//EN"
 "http://www.w3.org/TR/2001/REC-SVG-20010904/DTD/svg10.dtd">
<svg version="1.0" xmlns="http://www.w3.org/2000/svg"
 width="200.000000pt" height="200.000000pt" viewBox="0 0 200.000000 200.000000"
 preserveAspectRatio="xMidYMid meet">
<metadata>
Created by potrace 1.16, written by Peter Selinger 2001-2019
</metadata>
<g transform="translate(0.000000,200.000000) scale(0.100000,-0.100000)"
fill="#000000" stroke="none">
<path d="M0 1992 c0 -4 14 -16 31 -26 17 -10 28 -20 26 -23 -3 -2 -17 3 -31
12 -14 10 -26 13 -26 7 0 -5 7 -12 15 -16 9 -3 12 -12 8 -22 -6 -16 -7 -16
-14 2 -3 10 -7 -93 -7 -231 0 -138 4 -241 8 -230 5 11 9 14 9 6 1 -8 7 -11 17
-7 8 3 13 2 9 -3 -3 -5 0 -11 7 -13 7 -3 -2 -13 -20 -24 l-33 -19 2 -110 c1
-65 6 -116 13 -124 8 -12 8 -13 -2 -7 -11 7 -13 -28 -11 -187 2 -164 5 -194
16 -190 12 5 12 7 1 15 -9 7 -8 8 5 4 10 -3 27 -1 38 4 37 20 18 1 -21 -21
l-40 -23 0 -86 c0 -85 0 -86 31 -104 17 -10 28 -20 26 -23 -3 -2 -17 3 -31 12
-26 17 -26 17 -25 -11 1 -17 3 -22 6 -11 2 9 9 15 14 11 6 -4 4 -15 -5 -28
-11 -18 -15 -63 -16 -209 -1 -180 0 -186 20 -197 12 -6 27 -9 34 -7 11 4 11 0
2 -19 -6 -13 -15 -24 -19 -24 -5 0 -6 4 -2 9 6 10 -24 45 -32 37 -3 -2 3 -16
12 -30 16 -24 16 -26 1 -32 -9 -3 -16 -11 -16 -16 0 -6 12 -3 26 7 14 9 28 14
31 12 2 -3 -9 -13 -26 -23 -17 -10 -31 -22 -31 -26 0 -14 438 -9 444 5 3 9 5
9 5 -1 1 -10 45 -12 195 -12 174 1 195 3 199 18 4 15 5 15 6 0 1 -16 15 -18
150 -18 110 0 151 3 154 13 4 9 6 9 6 0 1 -10 92 -13 421 -13 231 0 420 4 420
8 0 4 -14 16 -31 26 -17 10 -28 20 -26 23 3 2 17 -3 31 -12 29 -19 35 -10 9
12 -16 13 -16 14 -1 9 15 -4 16 18 16 255 l1 260 -26 -16 c-13 -9 -27 -14 -30
-12 -2 3 9 13 26 23 31 18 31 19 31 104 l0 86 -40 23 c-40 22 -58 41 -21 21
25 -13 34 -13 26 0 -3 6 1 7 10 3 12 -4 13 -8 5 -13 -8 -5 -7 -9 3 -13 13 -5
15 23 15 213 0 190 -2 218 -15 213 -10 -4 -11 -8 -3 -13 8 -5 7 -9 -5 -13 -9
-4 -13 -3 -10 3 3 6 0 10 -7 10 -7 0 -1 8 15 18 26 16 27 20 27 102 0 83 -1
86 -28 102 -20 12 -28 24 -27 40 1 13 -1 28 -5 33 -5 6 3 10 20 11 25 1 27 -1
14 -13 -20 -21 -17 -51 6 -63 25 -13 26 -2 3 16 -17 13 -17 14 0 8 12 -4 17
-1 17 11 0 9 -5 13 -11 9 -8 -4 -8 -1 -1 13 14 25 15 410 2 418 -5 3 -21 -1
-34 -10 -25 -16 -25 -16 -13 8 6 14 14 22 17 19 9 -13 40 -10 40 4 0 8 -7 11
-17 8 -17 -5 -17 -5 0 9 26 22 20 31 -9 12 -14 -9 -28 -14 -31 -12 -2 3 9 13
26 23 17 10 31 22 31 26 0 4 -99 8 -219 8 -201 0 -220 -2 -224 -17 -4 -17 -5
-17 -6 0 -1 16 -25 17 -350 17 -270 0 -350 -3 -354 -12 -4 -10 -6 -10 -6 0 -1
9 -92 12 -421 12 -231 0 -420 -4 -420 -8z m438 -30 c13 -9 19 -18 13 -21 -7
-5 -5 -16 4 -34 8 -15 10 -25 4 -22 -5 4 -18 3 -30 0 -17 -6 -18 -9 -7 -23 12
-15 11 -16 -4 -4 -9 8 -23 11 -30 7 -7 -4 -4 0 7 9 37 28 45 37 45 46 0 12
-46 24 -59 15 -7 -4 -11 5 -10 22 0 25 1 26 9 8 5 -11 9 -16 9 -12 1 4 10 3
22 -3 11 -7 23 -9 26 -6 3 3 -6 11 -21 17 -14 7 -26 16 -26 21 0 9 6 7 48 -20z
m387 8 c4 -7 -2 -9 -19 -4 -17 4 -26 2 -26 -6 0 -6 4 -9 9 -6 4 3 16 0 25 -7
14 -10 12 -12 -14 -12 -29 0 -41 20 -23 38 10 11 41 8 48 -3z m398 3 c3 -5 -8
-8 -23 -8 -15 0 -26 3 -23 8 2 4 13 7 23 7 10 0 21 -3 23 -7z m400 0 c3 -5 -8
-8 -24 -9 -15 -1 -26 3 -23 7 6 11 41 12 47 2z m-863 -22 c0 -5 -10 -11 -22
-14 -22 -6 -22 -6 -4 8 23 17 26 18 26 6z m400 -1 c0 -5 -5 -10 -11 -10 -5 0
-7 5 -4 10 3 6 8 10 11 10 2 0 4 -4 4 -10z m88 -58 c-5 -2 -6 -7 -3 -12 3 -4
-5 -6 -17 -2 -12 3 -19 1 -15 -4 3 -5 -3 -10 -13 -10 -10 0 -16 5 -13 10 4 5
-3 7 -15 4 -12 -4 -20 -2 -16 3 3 5 0 9 -6 9 -6 0 -9 4 -6 9 4 5 1 11 -6 13
-8 3 -6 7 5 11 9 3 17 2 17 -4 0 -6 7 -6 20 1 14 8 26 8 40 0 18 -9 20 -7 21
17 1 25 2 24 8 -7 3 -19 3 -37 -1 -38z m333 28 c14 8 27 6 51 -6 18 -10 27
-19 20 -21 -6 -3 -10 -8 -7 -13 3 -4 -5 -6 -17 -2 -12 3 -19 1 -15 -4 3 -5 -3
-10 -13 -10 -10 0 -17 3 -14 7 6 11 -34 21 -48 13 -10 -6 -10 -4 0 8 8 9 13
25 12 35 -4 31 3 40 7 11 4 -24 7 -27 24 -18z m59 30 c0 6 4 9 10 5 5 -3 7
-12 4 -20 -5 -11 -11 -12 -26 -4 -11 6 -30 8 -42 5 -20 -5 -20 -4 -2 9 13 10
24 11 37 4 13 -7 19 -6 19 1z m-410 -7 c0 -5 -13 -8 -29 -8 -16 0 -27 3 -24 8
2 4 15 7 29 7 13 0 24 -3 24 -7z m-836 -25 c-5 -8 -2 -9 10 -5 28 11 8 -11
-26 -29 -16 -9 -27 -11 -24 -6 3 6 0 12 -6 14 -8 3 0 12 17 21 37 20 38 20 29
5z m426 2 c9 -6 17 -5 22 3 5 8 8 7 8 -4 0 -9 10 -24 23 -34 22 -16 22 -16 -3
-2 -21 12 -29 12 -43 2 -9 -6 -15 -14 -12 -16 2 -3 -5 -5 -16 -5 -19 0 -19 1
-3 13 10 7 21 13 26 13 4 0 8 4 8 9 0 5 -15 7 -32 6 -44 -4 -45 -4 -30 -14 11
-7 10 -9 -3 -14 -9 -4 -14 -3 -10 2 3 5 -1 11 -7 13 -8 3 0 12 17 21 36 19 36
19 55 7z m-761 -24 c10 -12 8 -13 -10 -9 -15 4 -20 3 -15 -5 5 -8 2 -10 -8 -6
-12 5 -13 9 -3 20 15 17 22 17 36 0z m661 9 c0 -2 -10 -9 -22 -15 -22 -11 -22
-10 -4 4 21 17 26 19 26 11z m1025 -5 c3 -6 -1 -7 -9 -4 -18 7 -21 14 -7 14 6
0 13 -4 16 -10z m-615 -15 c0 -2 -10 -9 -22 -15 -22 -11 -22 -10 -4 4 21 17
26 19 26 11z m-916 -17 c-5 -8 0 -9 17 -5 l24 6 -24 -20 c-13 -10 -28 -19 -35
-19 -6 0 -4 5 4 11 12 9 13 12 1 16 -11 5 -11 7 0 14 19 12 22 11 13 -3z m436
-8 c-14 -11 -29 -20 -34 -20 -5 0 -7 -3 -4 -6 4 -3 17 0 30 6 22 11 22 11 -2
-10 -17 -15 -19 -20 -7 -16 27 8 20 -9 -8 -22 -21 -10 -32 -9 -55 3 -30 15
-41 30 -18 23 7 -3 18 1 25 8 7 7 18 15 25 17 10 4 9 8 -2 17 -12 9 -11 10 7
5 13 -3 31 -2 40 4 29 17 30 12 3 -9z m348 -1 c-11 -7 -10 -11 2 -19 19 -12
33 -13 26 -1 -3 5 1 14 9 21 13 11 14 10 9 -5 -6 -15 -4 -16 14 -6 12 7 22 9
22 7 0 -3 -14 -13 -31 -21 -17 -9 -29 -19 -26 -22 3 -2 15 1 27 7 15 8 20 8
16 1 -4 -6 -20 -18 -37 -26 -26 -14 -32 -14 -58 0 -17 8 -33 20 -37 26 -5 8
-1 8 14 0 33 -18 39 -12 12 10 l-25 20 32 -15 c42 -21 56 -20 18 1 -24 14 -26
18 -12 21 9 2 15 8 12 13 -3 5 1 6 10 2 13 -5 14 -7 3 -14z m801 0 c-21 -13
-3 -22 19 -10 15 8 21 7 25 -2 4 -10 -6 -12 -36 -11 -26 1 -35 -1 -26 -7 8 -5
22 -6 32 -3 9 3 17 1 17 -5 0 -6 7 -8 15 -5 27 11 16 -5 -15 -21 -27 -14 -30
-14 -30 0 0 8 -5 15 -11 15 -5 0 -8 -4 -5 -9 4 -5 -3 -7 -14 -4 -11 3 -20 9
-20 14 0 5 8 6 18 3 11 -4 9 1 -8 15 -20 17 -21 20 -5 14 18 -6 19 -5 5 13
-14 18 -14 18 3 5 15 -12 21 -9 18 11 0 4 6 5 15 1 12 -5 13 -7 3 -14z m121
16 c0 -2 -13 -11 -30 -20 -38 -19 -40 -11 -2 9 31 17 32 18 32 11z m35 -5 c-3
-5 -12 -10 -18 -10 -7 0 -6 4 3 10 19 12 23 12 15 0z m-1815 -26 c0 -2 -9 0
-20 6 -11 6 -20 13 -20 16 0 2 9 0 20 -6 11 -6 20 -13 20 -16z m1245 16 c3 5
12 10 18 9 9 0 9 -2 0 -6 -19 -7 -16 -21 7 -28 11 -4 18 -11 15 -16 -8 -13
-42 -11 -51 2 -4 8 1 9 17 4 19 -5 17 -2 -8 14 -18 11 -33 24 -33 27 0 4 6 1
14 -5 10 -8 16 -9 21 -1z m315 -16 c0 -2 -9 0 -20 6 -11 6 -20 13 -20 16 0 2
9 0 20 -6 11 -6 20 -13 20 -16z m-1520 7 c0 -5 -7 -11 -14 -14 -10 -4 -13 -1
-9 9 6 15 23 19 23 5z m400 0 c0 -5 -7 -11 -14 -14 -10 -4 -13 -1 -9 9 6 15
23 19 23 5z m590 4 c0 -2 -10 -9 -22 -15 -22 -11 -22 -10 -4 4 21 17 26 19 26
11z m293 -4 c21 9 21 9 4 -5 -21 -16 -51 -11 -40 7 5 8 8 7 11 -1 3 -9 9 -9
25 -1z m-1223 -22 c-16 -14 -19 -19 -7 -15 30 9 19 -9 -13 -21 -26 -10 -30 -9
-30 5 0 12 -2 14 -8 5 -6 -10 -12 -9 -28 3 -16 13 -16 15 -1 10 9 -3 17 -1 17
5 0 6 8 8 18 5 9 -3 28 1 42 9 35 20 39 18 10 -6z m1124 -1 c-3 -5 2 -15 12
-23 16 -11 24 -10 57 7 22 11 36 15 32 9 -3 -6 -19 -18 -35 -26 -23 -12 -34
-13 -54 -4 -25 12 -44 62 -19 52 7 -3 10 -9 7 -15z m-1185 -72 c0 -14 -2 -16
-6 -6 -4 8 -16 22 -27 32 -21 18 -21 18 7 7 18 -8 27 -19 26 -33z m381 22 c0
-6 -6 -5 -15 2 -8 7 -15 14 -15 16 0 2 7 1 15 -2 8 -4 15 -11 15 -16z m905 12
c-3 -6 -19 -17 -34 -25 -24 -12 -31 -12 -47 0 -18 13 -18 14 2 9 12 -3 35 1
50 10 35 18 37 19 29 6z m395 -5 c-7 -9 -15 -13 -19 -10 -3 3 1 10 9 15 21 14
24 12 10 -5z m-849 -12 c10 3 19 2 19 -3 0 -12 -36 -19 -51 -9 -9 5 -16 3 -21
-9 -5 -12 -7 -9 -7 11 -1 25 1 27 20 16 12 -6 30 -9 40 -6z m-781 2 c0 -2 -9
-9 -20 -15 -12 -6 -20 -7 -20 -1 0 5 8 12 18 14 9 3 18 5 20 6 1 0 2 -1 2 -4z
m391 -8 c-13 -13 -51 -16 -51 -4 0 7 13 12 30 12 16 0 26 -3 21 -8z m1209 -5
c0 -7 -4 -11 -9 -8 -5 4 -11 2 -13 -2 -1 -5 -10 -2 -20 7 -15 15 -14 16 13 16
17 0 29 -5 29 -13z m-73 -14 c-3 -8 -6 -5 -6 6 -1 11 2 17 5 13 3 -3 4 -12 1
-19z m-1110 -30 c-3 -7 -5 -2 -5 12 0 14 2 19 5 13 2 -7 2 -19 0 -25z m780 0
c-3 -7 -5 -2 -5 12 0 14 2 19 5 13 2 -7 2 -19 0 -25z m-70 -30 c-3 -7 -5 -2
-5 12 0 14 2 19 5 13 2 -7 2 -19 0 -25z m450 0 c-3 -8 -6 -5 -6 6 -1 11 2 17
5 13 3 -3 4 -12 1 -19z m20 -10 c-3 -8 -6 -5 -6 6 -1 11 2 17 5 13 3 -3 4 -12
1 -19z m-70 -50 c-3 -8 -6 -5 -6 6 -1 11 2 17 5 13 3 -3 4 -12 1 -19z m-1527
-14 c0 -3 -9 -3 -20 1 -10 3 -33 -1 -50 -10 -40 -21 -39 -10 2 15 23 14 36 16
50 9 10 -5 18 -12 18 -15z m400 2 c0 -2 -9 -2 -19 1 -10 3 -28 0 -40 -6 -12
-7 -21 -8 -21 -3 0 16 44 30 63 20 9 -5 17 -10 17 -12z m400 5 c0 -3 -13 -6
-29 -6 -21 0 -27 3 -20 11 10 12 49 8 49 -5z m356 7 c21 10 44 6 44 -9 0 -6
-5 -7 -11 -4 -14 9 -59 -3 -59 -16 0 -6 6 -6 19 1 38 20 68 -17 36 -43 -6 -5
-1 -7 12 -4 12 3 30 -2 40 -10 17 -13 16 -13 -4 -4 -16 8 -22 8 -26 -2 -3 -9
-8 -9 -21 2 -9 8 -20 11 -23 7 -4 -4 -2 -11 5 -15 9 -5 4 -11 -15 -19 -23 -10
-25 -10 -12 0 14 11 14 15 3 26 -8 7 -20 10 -27 7 -6 -4 -1 3 13 15 17 15 19
20 8 16 -15 -4 -18 1 -18 32 0 24 3 32 9 23 6 -9 14 -10 27 -3z m444 -7 c0 -3
-14 -6 -30 -6 -26 0 -28 2 -14 12 15 11 44 8 44 -6z m-870 -10 c0 -5 -7 -12
-16 -15 -14 -5 -15 -4 -4 9 14 17 20 19 20 6z m901 -19 c-6 -2 -8 -9 -4 -15 4
-6 0 -8 -10 -4 -10 3 -17 2 -17 -4 0 -6 -8 -8 -17 -5 -10 3 -25 1 -33 -5 -11
-8 -9 -9 10 -4 19 5 22 4 10 -4 -12 -9 -13 -13 -2 -20 11 -6 10 -10 -4 -15
-10 -4 -15 -4 -12 0 11 10 -20 36 -34 29 -7 -4 -2 3 12 15 17 15 19 20 8 16
-10 -3 -18 -2 -18 3 0 5 9 11 20 14 11 3 18 1 14 -4 -3 -5 0 -9 5 -9 6 0 11 7
11 15 0 12 4 13 19 5 27 -14 31 -13 24 8 -6 15 -5 16 11 2 11 -8 14 -16 7 -18z
m-1650 -12 c6 0 7 6 3 13 -4 7 -3 9 2 4 5 -5 9 -13 9 -17 0 -5 9 -16 20 -25
11 -9 14 -14 7 -10 -14 7 -45 -19 -34 -29 3 -4 -2 -4 -12 0 -14 5 -15 9 -4 15
11 7 10 11 -2 20 -12 8 -9 9 10 4 19 -5 21 -4 10 4 -8 6 -23 8 -32 5 -10 -3
-18 -1 -18 5 0 6 -7 8 -15 5 -26 -10 -16 5 13 20 23 12 27 12 30 0 2 -8 8 -14
13 -14z m36 -2 c-3 -7 -5 -2 -5 12 0 14 2 19 5 13 2 -7 2 -19 0 -25z m403 0
c0 -4 -8 -5 -17 -2 -17 5 -17 5 -1 -8 16 -13 16 -15 -2 -28 -10 -8 -17 -17
-14 -21 2 -4 -9 -2 -26 4 -20 8 -26 15 -19 22 7 7 13 5 19 -5 5 -8 12 -11 17
-7 4 5 1 13 -7 18 -11 8 -9 9 10 4 19 -5 21 -4 10 4 -8 6 -23 8 -32 5 -13 -4
-18 0 -18 14 0 11 6 22 12 24 15 5 68 -13 68 -24z m366 24 c22 -14 12 -39 -17
-39 -16 0 -26 5 -22 10 4 6 0 8 -10 4 -25 -10 -20 8 6 21 27 13 29 13 43 4z
m-456 -21 c0 -5 -7 -12 -16 -15 -14 -5 -15 -4 -4 9 14 17 20 19 20 6z m900 -6
c11 -13 10 -14 -4 -9 -9 3 -16 10 -16 15 0 13 6 11 20 -6z m-710 -31 c0 -2 -9
0 -20 6 -11 6 -20 13 -20 16 0 2 9 0 20 -6 11 -6 20 -13 20 -16z m-570 -5 c0
-14 -17 -10 -23 5 -4 10 -1 13 9 9 7 -3 14 -9 14 -14z m893 2 c10 -11 8 -11
-10 -2 -27 14 -30 4 -5 -16 13 -12 11 -11 -9 0 -15 9 -30 13 -34 9 -4 -4 -19
-7 -35 -7 -19 0 -26 4 -22 14 4 11 1 11 -19 2 -21 -11 -22 -11 -7 2 22 18 123
16 141 -2z m32 1 c-3 -3 -11 0 -18 7 -9 10 -8 11 6 5 10 -3 15 -9 12 -12z
m739 3 c-7 -16 -24 -21 -24 -6 0 8 7 13 27 20 1 1 0 -6 -3 -14z m-1704 0 c0
-2 -10 -9 -22 -15 -22 -11 -22 -10 -4 4 21 17 26 19 26 11z m175 -5 c3 -6 -1
-7 -9 -4 -18 7 -21 14 -7 14 6 0 13 -4 16 -10z m1610 -8 c-3 -3 -11 0 -18 7
-9 10 -8 11 6 5 10 -3 15 -9 12 -12z m-1511 -13 c-6 -10 33 -22 45 -15 5 3 4
-5 -2 -19 -12 -24 -12 -24 -21 -5 -5 11 -12 20 -16 20 -3 0 -14 6 -24 13 -16
12 -16 13 3 13 11 0 18 -3 15 -7z m400 0 c-8 -13 35 -20 56 -9 39 21 19 1 -24
-25 -43 -25 -46 -25 -75 -10 -17 8 -31 18 -31 21 0 3 5 2 11 -2 17 -10 79 -14
79 -4 0 12 -26 19 -48 13 -11 -2 -23 0 -26 5 -4 6 3 8 16 4 12 -3 19 -1 15 4
-3 5 3 10 13 10 10 0 17 -3 14 -7z m343 -16 c-4 11 0 13 15 9 12 -3 19 -1 15
4 -3 5 3 10 13 10 10 0 16 -5 13 -10 -4 -5 3 -7 15 -4 16 4 19 2 15 -10 -4
-10 -2 -13 5 -8 7 4 12 5 12 2 0 -3 -14 -12 -30 -21 -23 -12 -35 -13 -50 -5
-18 10 -20 7 -21 -32 -1 -24 -4 -34 -6 -23 -3 11 -13 25 -22 32 -15 12 -14 13
2 7 31 -11 20 34 -13 51 -16 9 -30 18 -30 21 0 3 16 -4 36 -15 26 -15 35 -17
31 -8z m153 22 c0 -2 -10 -9 -22 -15 -22 -11 -22 -10 -4 4 21 17 26 19 26 11z
m326 -11 c9 3 12 1 9 -4 -3 -6 -1 -10 5 -10 6 0 8 -5 4 -11 -4 -8 -9 -7 -15 2
-6 11 -11 11 -21 1 -9 -9 -9 -12 3 -12 10 -1 10 -3 -3 -11 -12 -7 -24 -6 -38
1 -18 10 -20 8 -20 -22 0 -22 -3 -29 -9 -19 -5 7 -6 22 -3 33 3 14 -3 27 -19
40 -23 19 -23 19 -1 8 26 -12 66 -4 56 12 -4 6 3 5 16 -2 12 -6 28 -9 36 -6z
m-1249 -15 c29 -18 32 -23 21 -37 -11 -14 -10 -15 7 -9 19 7 19 7 1 -8 -10 -8
-22 -12 -27 -10 -4 3 -10 -1 -12 -7 -3 -8 -6 -6 -6 5 -1 9 -6 17 -12 17 -5 0
-7 -6 -3 -12 4 -8 3 -10 -2 -5 -5 5 -9 12 -9 15 0 4 -4 13 -9 20 -6 10 0 9 23
-2 17 -9 31 -12 31 -6 0 5 -6 10 -12 10 -10 0 -9 3 1 9 10 7 10 10 1 16 -7 4
-16 2 -20 -5 -5 -9 -9 -9 -14 -1 -4 6 -1 11 6 11 9 0 9 3 -2 10 -30 20 4 9 37
-11z m-352 1 c5 -8 12 -7 23 1 16 12 16 11 0 -5 -15 -18 -18 -18 -33 -2 -9 9
-12 16 -6 16 5 0 13 -5 16 -10z m655 -26 c0 -2 -9 0 -20 6 -11 6 -20 13 -20
16 0 2 9 0 20 -6 11 -6 20 -13 20 -16z m400 0 c0 -2 -9 0 -20 6 -11 6 -20 13
-20 16 0 2 9 0 20 -6 11 -6 20 -13 20 -16z m573 -6 c-4 -7 -8 -16 -8 -20 0
-18 -15 -18 -15 0 0 17 8 26 28 31 2 1 0 -5 -5 -11z m-849 -14 c20 5 20 4 2
-9 -13 -10 -24 -11 -37 -4 -13 7 -19 6 -19 -1 0 -6 -5 -8 -12 -4 -9 6 -9 9 0
12 7 2 9 8 6 14 -4 5 4 5 16 -2 12 -6 32 -9 44 -6z m33 -36 c-2 -13 -4 -5 -4
17 -1 22 1 32 4 23 2 -10 2 -28 0 -40z m422 36 c6 4 11 5 11 2 0 -3 -9 -10
-20 -16 -17 -9 -20 -8 -20 12 0 17 3 19 9 9 5 -7 14 -10 20 -7z m426 6 c-3 -5
-12 -10 -18 -10 -7 0 -6 4 3 10 19 12 23 12 15 0z m-465 -9 c0 -5 -9 -11 -20
-14 -11 -3 -20 -1 -20 3 0 5 8 11 18 13 9 3 18 5 20 6 1 0 2 -3 2 -8z m400 -2
c0 -14 -29 -17 -44 -6 -14 10 -12 12 14 12 16 0 30 -3 30 -6z m-1170 -3 c0 -3
-4 -8 -10 -11 -5 -3 -10 -1 -10 4 0 6 5 11 10 11 6 0 10 -2 10 -4z m-35 -26
c-3 -5 -14 -10 -23 -10 -15 0 -15 2 -2 10 20 13 33 13 25 0z m405 4 c0 -2 -9
-8 -19 -13 -13 -8 -22 -7 -29 2 -8 9 -3 12 19 13 16 1 29 0 29 -2z m400 -6 c0
-5 -13 -8 -30 -8 -16 0 -30 3 -30 8 0 4 14 7 30 7 17 0 30 -3 30 -7z m400 0
c0 -11 -48 -10 -54 1 -3 4 8 8 24 7 17 -1 30 -4 30 -8z m-1183 -50 c-3 -7 -5
-2 -5 12 0 14 2 19 5 13 2 -7 2 -19 0 -25z m-70 -10 c-3 -8 -6 -5 -6 6 -1 11
2 17 5 13 3 -3 4 -12 1 -19z m1180 0 c-3 -8 -6 -5 -6 6 -1 11 2 17 5 13 3 -3
4 -12 1 -19z m-710 -35 c-3 -10 -5 -4 -5 12 0 17 2 24 5 18 2 -7 2 -21 0 -30z
m1110 5 c-3 -7 -5 -2 -5 12 0 14 2 19 5 13 2 -7 2 -19 0 -25z m-330 -15 c-3
-10 -5 -4 -5 12 0 17 2 24 5 18 2 -7 2 -21 0 -30z m-70 -15 c-3 -8 -6 -5 -6 6
-1 11 2 17 5 13 3 -3 4 -12 1 -19z m-1146 -38 c6 0 7 5 3 11 -5 8 -1 8 14 0
21 -11 37 -51 20 -51 -5 0 -6 -4 -3 -10 3 -5 0 -10 -7 -10 -7 0 -2 -9 12 -20
18 -15 9 -13 -31 7 -44 23 -54 32 -50 48 2 11 6 14 9 7 2 -7 8 -10 13 -7 5 4
6 -1 3 -9 -3 -9 -1 -16 5 -16 6 0 11 4 11 10 0 5 6 7 13 4 7 -2 13 4 14 16 1
11 -3 20 -8 20 -6 0 -7 -4 -4 -10 9 -15 -12 -12 -27 4 -10 10 -19 11 -32 4
-10 -5 -20 -7 -23 -4 -3 3 6 11 21 17 14 7 27 17 27 23 1 6 4 1 6 -11 2 -13 9
-23 14 -23z m439 -1 c0 -5 -11 -3 -25 3 -19 8 -31 8 -51 -1 -36 -16 -43 -6 -8
12 21 11 35 12 56 5 15 -6 28 -14 28 -19z m364 25 c23 -9 20 -23 -3 -17 -10 3
-28 0 -40 -6 -12 -7 -21 -8 -21 -3 0 7 21 21 47 31 1 1 8 -2 17 -5z m443 -30
c-7 -7 -57 18 -57 28 0 5 14 1 31 -7 17 -9 29 -19 26 -21z m-1607 4 c0 -5 -9
-4 -20 2 -11 6 -20 12 -20 14 0 2 9 2 20 -1 11 -3 20 -9 20 -15z m1526 7 c-11
-8 -22 -12 -25 -9 -6 6 19 24 34 24 6 -1 1 -7 -9 -15z m411 -5 c1 -15 -10 -26
-40 -41 -41 -19 -38 -15 18 27 16 12 17 14 3 10 -10 -3 -18 -1 -18 4 0 5 8 11
18 13 9 3 17 5 17 6 1 0 1 -8 2 -19z m-727 -5 c11 -13 10 -14 -4 -9 -9 3 -16
10 -16 15 0 13 6 11 20 -6z m-429 -11 c17 -8 29 -18 26 -20 -3 -3 -20 4 -38
15 -40 25 -31 28 12 5z m399 1 c22 -11 27 -20 22 -33 -6 -16 -7 -16 -10 0 -3
14 -6 15 -16 5 -11 -10 -10 -14 3 -24 14 -12 14 -12 -1 -7 -10 3 -18 1 -18 -5
0 -6 -5 -11 -11 -11 -8 0 -8 5 1 15 15 18 7 19 -22 4 -12 -7 -18 -7 -14 -1 3
6 0 13 -6 16 -7 3 -2 4 12 1 14 -3 19 -2 13 1 -25 11 -15 45 15 53 2 1 16 -6
32 -14z m384 9 c19 -7 21 -40 4 -47 -8 -3 -6 -6 5 -6 11 -1 17 6 17 20 0 11 5
17 10 14 7 -4 6 -13 -1 -26 -8 -16 -17 -19 -37 -14 -22 5 -24 4 -13 -9 9 -11
10 -16 2 -16 -6 0 -11 5 -11 11 0 6 -7 8 -16 5 -8 -3 -12 -2 -9 4 3 6 2 10 -3
10 -24 0 -20 31 6 44 33 18 27 17 46 10z m-823 -19 c5 4 6 -1 3 -9 -3 -9 -2
-16 4 -16 6 0 12 4 14 9 2 5 12 3 22 -5 11 -8 14 -14 7 -14 -7 0 -9 -5 -5 -11
4 -8 0 -8 -15 0 -15 8 -27 9 -40 2 -14 -8 -20 -7 -24 3 -4 10 1 13 16 10 12
-2 16 -2 10 2 -7 3 -13 15 -12 27 0 12 3 16 6 9 2 -6 9 -10 14 -7z m-744 -15
c-1 -11 -5 -20 -10 -20 -4 0 -5 -4 -2 -10 3 -6 -1 -7 -10 -3 -13 5 -14 7 -3
14 10 7 10 9 1 9 -7 0 -13 4 -13 10 0 5 7 6 17 3 11 -4 14 -3 9 5 -4 7 -3 12
3 12 5 0 9 -9 8 -20z m313 10 c0 -5 -5 -10 -11 -10 -5 0 -7 5 -4 10 3 6 8 10
11 10 2 0 4 -4 4 -10z m400 0 c0 -5 -5 -10 -11 -10 -5 0 -7 5 -4 10 3 6 8 10
11 10 2 0 4 -4 4 -10z m400 0 c0 -5 -5 -10 -11 -10 -5 0 -7 5 -4 10 3 6 8 10
11 10 2 0 4 -4 4 -10z m-850 -25 c0 -2 -10 -9 -22 -15 -22 -11 -22 -10 -4 4
21 17 26 19 26 11z m59 -4 c10 -7 7 -9 -12 -8 -14 1 -23 5 -20 10 6 9 15 9 32
-2z m234 -23 c4 1 7 -3 7 -9 0 -6 7 -8 16 -5 10 4 13 2 8 -6 -5 -8 0 -9 15 -5
18 4 20 3 10 -9 -6 -8 -8 -14 -3 -14 16 -1 -41 -40 -58 -40 -9 0 -19 -8 -21
-17 -3 -12 -5 -8 -6 9 -1 22 2 25 22 21 12 -3 -2 9 -30 26 -50 29 -76 54 -34
31 24 -12 34 -13 27 -1 -4 5 4 7 16 4 23 -5 23 -4 -2 17 l-25 21 25 -12 c14
-7 28 -12 33 -11z m297 -4 c0 -2 -9 0 -20 6 -11 6 -20 13 -20 16 0 2 9 0 20
-6 11 -6 20 -13 20 -16z m530 6 c-30 -24 -10 -26 28 -4 l27 16 -25 -22 c-15
-13 -18 -20 -9 -17 14 5 15 2 5 -19 -10 -22 -11 -22 -14 -4 -4 24 -25 26 -43
4 -12 -15 -11 -16 9 -10 18 6 22 4 22 -13 0 -16 -6 -21 -24 -21 -14 0 -27 4
-30 9 -3 4 6 6 19 3 14 -2 25 0 25 6 0 5 -8 9 -17 8 -12 -1 -17 5 -15 17 4 24
-13 21 -25 -5 -6 -14 -12 -18 -16 -11 -4 6 -1 18 7 26 8 8 12 18 8 21 -3 4 2
4 12 0 15 -6 17 -4 11 6 -6 9 -4 12 6 8 8 -3 23 0 34 8 29 21 33 16 5 -6z
m110 15 c0 -2 -10 -9 -22 -15 -22 -11 -22 -10 -4 4 21 17 26 19 26 11z m400 0
c0 -2 -10 -9 -22 -15 -22 -11 -22 -10 -4 4 21 17 26 19 26 11z m-1805 -15 c3
-6 -1 -7 -9 -4 -18 7 -21 14 -7 14 6 0 13 -4 16 -10z m185 5 c0 -2 -10 -9 -22
-15 -22 -11 -22 -10 -4 4 21 17 26 19 26 11z m400 0 c0 -2 -10 -9 -22 -15 -22
-11 -22 -10 -4 4 21 17 26 19 26 11z m298 -4 c15 13 16 12 3 -3 -10 -14 -10
-18 -1 -18 7 0 2 -9 -11 -20 -32 -26 -15 -25 28 1 l35 22 -14 -24 c-7 -13 -20
-30 -28 -37 -13 -11 -12 -12 8 -7 31 9 27 -2 -7 -20 -30 -15 -61 -11 -61 7 0
6 6 5 15 -2 8 -6 20 -8 26 -4 9 5 7 10 -7 15 -16 6 -16 8 -2 8 9 1 20 6 24 13
5 8 2 9 -10 5 -10 -4 -26 -2 -37 3 -14 8 -19 7 -19 -1 0 -7 -3 -9 -7 -5 -5 4
-8 12 -8 16 0 5 -9 16 -20 25 -19 16 -19 16 3 5 12 -6 32 -8 43 -5 17 6 18 9
7 23 -12 15 -11 16 5 3 14 -11 20 -11 35 0z m-863 -31 c3 0 3 4 0 10 -4 6 1 7
11 3 11 -4 13 -8 6 -11 -7 -2 -10 -8 -7 -13 3 -5 14 -3 25 3 17 11 17 13 2 25
-13 10 -14 13 -2 11 15 -3 29 -12 56 -37 14 -13 14 -16 -8 -33 l-23 -19 23 6
c30 9 28 -3 -3 -15 -14 -5 -30 -20 -35 -32 -7 -20 -9 -20 -9 -4 -1 10 7 25 17
32 16 13 16 13 0 14 -10 0 -19 8 -20 18 0 9 -4 -5 -8 -33 l-7 -50 -1 53 c-1
29 -7 52 -13 52 -5 0 -7 -4 -4 -10 3 -6 -1 -7 -10 -3 -12 4 -13 8 -4 13 8 6 2
13 -20 24 -17 9 -31 19 -31 22 0 2 13 -2 30 -11 16 -8 32 -15 35 -15z m271 14
c18 -14 18 -14 -6 -3 -31 14 -36 19 -24 19 6 0 19 -7 30 -16z m1375 -2 c-8 -3
-7 -8 6 -17 10 -7 22 -11 26 -8 5 3 4 9 -3 13 -8 5 -7 9 5 13 9 4 13 3 10 -3
-8 -13 1 -13 28 1 20 9 20 8 -2 -9 -17 -14 -20 -21 -10 -24 9 -3 8 -6 -5 -11
-10 -4 -15 -3 -11 3 3 6 1 10 -4 10 -6 0 -12 -15 -12 -32 -2 -31 -2 -31 -6 -5
-2 15 -9 25 -14 22 -5 -4 -6 2 -2 12 6 16 5 16 -10 4 -15 -12 -17 -12 -11 3 3
9 2 16 -4 16 -24 0 -20 -30 6 -44 20 -12 23 -15 9 -16 -10 0 -15 -5 -12 -10 4
-6 11 -8 16 -5 5 4 9 -3 9 -14 0 -19 -2 -19 -17 -6 -10 8 -27 22 -38 30 -19
16 -19 16 5 10 l25 -6 -23 19 c-22 17 -22 20 -8 34 8 9 12 19 8 22 -3 4 1 4
11 0 10 -3 17 -1 17 6 0 6 5 8 12 4 9 -6 9 -9 -1 -12z m-291 -37 c0 -2 -10 -9
-22 -15 -22 -11 -22 -10 -4 4 21 17 26 19 26 11z m-950 -35 c0 -5 -2 -10 -4
-10 -3 0 -8 5 -11 10 -3 6 -1 10 4 10 6 0 11 -4 11 -10z m91 -22 c-4 -29 -5
-30 -10 -11 -5 17 -10 20 -21 13 -30 -19 -34 -9 -5 10 40 26 42 26 36 -12z
m722 18 c10 -8 28 -12 40 -9 21 4 21 4 3 -8 -14 -9 -24 -9 -37 -1 -13 8 -19 8
-22 -1 -2 -6 -6 -1 -9 11 -7 25 -1 27 25 8z m87 10 c0 -3 -4 -8 -10 -11 -5 -3
-10 -1 -10 4 0 6 5 11 10 11 6 0 10 -2 10 -4z m400 0 c0 -3 -4 -8 -10 -11 -5
-3 -10 -1 -10 4 0 6 5 11 10 11 6 0 10 -2 10 -4z m-33 -58 c-3 -8 -6 -5 -6 6
-1 11 2 17 5 13 3 -3 4 -12 1 -19z m-1580 -30 c-3 -8 -6 -5 -6 6 -1 11 2 17 5
13 3 -3 4 -12 1 -19z m-50 -10 c-3 -8 -6 -5 -6 6 -1 11 2 17 5 13 3 -3 4 -12
1 -19z m1560 -10 c-3 -8 -6 -5 -6 6 -1 11 2 17 5 13 3 -3 4 -12 1 -19z m-1180
-20 c-3 -7 -5 -2 -5 12 0 14 2 19 5 13 2 -7 2 -19 0 -25z m850 0 c-3 -7 -5 -2
-5 12 0 14 2 19 5 13 2 -7 2 -19 0 -25z m400 -15 c-3 -10 -5 -2 -5 17 0 19 2
27 5 18 2 -10 2 -26 0 -35z m-1180 5 c-3 -7 -5 -2 -5 12 0 14 2 19 5 13 2 -7
2 -19 0 -25z m-470 -50 c-2 -13 -4 -3 -4 22 0 25 2 35 4 23 2 -13 2 -33 0 -45z
m1270 40 c-3 -8 -6 -5 -6 6 -1 11 2 17 5 13 3 -3 4 -12 1 -19z m-1250 -10 c-3
-8 -6 -5 -6 6 -1 11 2 17 5 13 3 -3 4 -12 1 -19z m1613 10 c0 -13 -59 -52 -67
-44 -2 2 9 12 26 22 17 10 31 22 31 26 0 4 2 8 5 8 3 0 5 -6 5 -12z m-1207
-38 c22 1 22 1 3 15 -25 19 -13 19 23 1 26 -14 28 -22 22 -67 -1 -3 -17 -13
-37 -22 -19 -10 -33 -13 -29 -7 9 14 -18 12 -35 -2 -12 -11 -12 -10 -1 5 8 10
9 17 3 17 -12 0 -10 26 3 37 4 4 5 2 1 -4 -9 -16 -1 -16 25 -3 13 8 25 7 39 0
17 -9 20 -8 20 10 0 11 -5 20 -11 20 -5 0 -8 -4 -5 -9 3 -4 -8 -8 -24 -7 -27
1 -30 4 -29 31 1 24 3 25 6 8 3 -16 11 -23 26 -23z m427 15 c35 -18 40 -29 9
-20 -12 4 -19 3 -16 -1 3 -5 -8 -9 -23 -9 -15 0 -26 4 -23 9 3 4 -5 5 -18 1
l-24 -6 25 20 c30 25 33 25 70 6z m364 0 c-19 -14 -19 -14 3 -15 12 0 23 6 26
13 3 6 5 3 4 -8 -1 -15 -8 -20 -28 -20 -15 0 -25 3 -22 8 2 4 -1 7 -6 7 -6 0
-11 -9 -11 -20 0 -18 3 -19 20 -10 14 8 26 8 40 0 15 -8 20 -8 20 1 0 7 3 10
6 7 3 -4 4 -8 2 -11 -1 -2 3 -11 11 -21 12 -14 12 -16 -4 -10 -12 5 -16 4 -12
-3 5 -7 -1 -9 -15 -5 -14 3 -19 2 -14 -6 10 -16 0 -15 -29 4 -14 9 -32 14 -40
10 -11 -4 -14 -2 -8 7 4 6 8 22 8 34 1 24 30 52 54 53 11 0 9 -4 -5 -15z
m-1160 -1 c22 -8 20 -25 -1 -18 -13 4 -11 0 5 -13 22 -18 22 -21 8 -34 -27
-25 -41 -34 -56 -37 -10 -1 -8 3 4 13 11 8 24 15 29 15 4 0 5 5 1 11 -4 8 -9
7 -14 -2 -7 -10 -12 -10 -23 0 -9 7 -18 8 -21 2 -3 -5 -1 -11 6 -13 7 -3 5 -7
-6 -11 -10 -4 -15 -3 -11 3 3 6 1 10 -5 10 -6 0 -9 4 -6 9 4 5 1 11 -6 13 -7
3 -5 7 6 11 10 4 15 3 11 -3 -8 -13 1 -13 27 1 11 6 18 7 14 1 -3 -5 6 -9 19
-9 32 0 31 3 -2 21 -21 11 -23 15 -10 16 10 0 15 5 12 10 -7 12 -3 12 19 4z
m1607 -54 c6 0 7 5 3 11 -3 6 8 3 25 -5 17 -9 31 -19 31 -22 0 -2 -9 0 -19 6
-32 17 -38 11 -11 -11 21 -17 22 -19 3 -10 -27 14 -36 14 -28 1 3 -6 -1 -7
-10 -3 -12 4 -13 8 -5 13 7 4 8 10 3 13 -4 3 -17 -1 -28 -9 -10 -8 -13 -14 -6
-14 7 0 9 -5 6 -10 -4 -6 -12 -4 -21 5 -9 8 -19 15 -24 15 -4 0 -10 6 -13 14
-4 9 6 22 26 35 l32 20 7 -22 c5 -19 6 -19 9 8 l2 30 4 -32 c2 -18 9 -33 14
-33z m-1281 40 c0 -5 -5 -10 -11 -10 -5 0 -7 5 -4 10 3 6 8 10 11 10 2 0 4 -4
4 -10z m895 0 c3 -5 1 -10 -4 -10 -6 0 -11 5 -11 10 0 6 2 10 4 10 3 0 8 -4
11 -10z m400 0 c3 -5 1 -10 -4 -10 -6 0 -11 5 -11 10 0 6 2 10 4 10 3 0 8 -4
11 -10z m-1345 -25 c0 -2 -10 -9 -22 -15 -22 -11 -22 -10 -4 4 21 17 26 19 26
11z m471 -5 c13 8 25 7 39 0 15 -8 20 -8 20 1 0 12 15 3 15 -9 0 -4 4 -13 8
-19 6 -9 3 -11 -10 -6 -16 6 -17 5 -3 -12 14 -17 14 -17 -6 -5 -19 11 -27 10
-60 -9 -35 -21 -37 -21 -14 -2 18 14 21 21 10 22 -10 0 -11 2 -2 6 6 2 10 9 7
14 -4 5 -17 2 -30 -7 -24 -15 -24 -15 -12 10 7 14 13 21 15 16 2 -6 11 -6 23
0z m739 6 c0 -2 -7 -7 -16 -10 -8 -3 -12 -2 -9 4 6 10 25 14 25 6z m-1630 -11
c0 -2 -10 -9 -22 -15 -22 -11 -22 -10 -4 4 21 17 26 19 26 11z m230 -61 c0 -2
-9 0 -20 6 -11 6 -20 13 -20 16 0 2 9 0 20 -6 11 -6 20 -13 20 -16z m800 0 c0
-2 -9 0 -20 6 -11 6 -20 13 -20 16 0 2 9 0 20 -6 11 -6 20 -13 20 -16z m600
21 c0 -2 -10 -9 -22 -15 -22 -11 -22 -10 -4 4 21 17 26 19 26 11z m-1344 -33
c-4 -3 -14 2 -24 12 -16 18 -16 18 6 6 13 -6 21 -14 18 -18z m68 12 c-18 -14
-18 -15 6 -9 23 6 23 5 -5 -13 -20 -13 -32 -15 -37 -8 -10 15 -20 2 -12 -18 6
-15 10 -14 43 5 l36 21 -30 -27 c-17 -16 -23 -25 -12 -21 9 3 17 2 17 -3 0 -5
-9 -11 -20 -14 -11 -3 -18 -1 -14 4 3 5 -2 9 -10 9 -8 0 -17 8 -19 18 -3 9 -6
-1 -7 -23 -1 -22 -4 -33 -7 -25 -4 8 -13 21 -22 28 -14 12 -14 13 2 8 12 -4
17 0 17 14 0 11 -5 20 -11 20 -5 0 -7 -6 -3 -12 4 -8 3 -10 -2 -5 -5 5 -9 12
-9 15 0 4 -4 13 -8 20 -7 10 -3 10 17 1 20 -10 30 -8 58 9 39 24 60 28 32 6z
m366 5 c0 -6 7 -8 17 -5 10 4 14 4 11 0 -14 -13 16 -32 37 -22 14 6 12 3 -5
-11 -25 -20 -25 -20 -32 0 -4 10 -13 19 -20 19 -8 0 -9 -3 -3 -8 24 -17 11
-52 -20 -52 -5 1 -2 5 7 11 17 10 14 39 -4 39 -6 0 -7 -7 -4 -16 3 -8 2 -12
-4 -9 -6 3 -10 1 -10 -5 0 -8 -6 -8 -20 0 -16 9 -18 14 -8 35 9 19 14 22 29
15 26 -14 33 -12 19 5 -9 10 -9 15 -1 15 6 0 11 -5 11 -11z m400 1 c0 -5 7
-10 15 -10 17 0 39 -36 26 -44 -5 -3 -11 3 -14 14 -3 11 -11 20 -19 19 -10 0
-10 -2 0 -6 17 -7 15 -40 -4 -47 -8 -3 -24 -1 -35 4 -10 6 -19 7 -19 2 0 -5
10 -13 23 -19 17 -8 28 -7 42 3 27 20 34 17 27 -8 -3 -12 -7 -17 -10 -10 -3 9
-9 9 -23 1 -16 -8 -29 -5 -65 16 -44 26 -63 46 -23 25 16 -9 20 -8 18 2 -2 7
1 23 5 35 6 19 11 21 26 13 27 -14 34 -12 20 5 -9 10 -9 15 -1 15 6 0 11 -4
11 -10z m330 -16 c0 -2 -9 0 -20 6 -11 6 -20 13 -20 16 0 2 9 0 20 -6 11 -6
20 -13 20 -16z m59 10 c-11 -13 -9 -14 13 -9 20 5 29 2 37 -14 7 -13 8 -22 1
-26 -5 -3 -10 3 -10 14 0 14 -6 21 -17 20 -11 0 -13 -3 -5 -6 6 -2 12 -14 11
-26 0 -12 -3 -16 -6 -9 -2 6 -9 10 -14 7 -5 -4 -6 1 -3 9 3 9 2 16 -4 16 -18
0 -21 -29 -4 -39 27 -16 4 -13 -28 4 -19 10 -27 20 -24 30 4 8 10 15 16 15 5
0 6 4 3 10 -3 6 1 7 9 4 9 -3 16 -1 16 5 0 6 5 11 11 11 8 0 7 -5 -2 -16z
m141 -19 c0 -2 -10 -9 -22 -15 -22 -11 -22 -10 -4 4 21 17 26 19 26 11z
m-1690 -25 c0 -5 -5 -10 -11 -10 -5 0 -7 5 -4 10 3 6 8 10 11 10 2 0 4 -4 4
-10z m1940 -16 c0 -4 -7 -4 -15 0 -20 7 -19 -4 3 -20 15 -12 15 -13 -5 -7 -12
3 -28 12 -35 21 -10 12 -10 14 0 8 7 -4 12 -1 12 9 0 13 4 14 20 5 11 -6 20
-13 20 -16z m-1940 -9 c0 -2 -9 -9 -20 -15 -12 -6 -20 -7 -20 -1 0 5 8 12 18
14 9 3 18 5 20 6 1 0 2 -1 2 -4z m710 -5 c0 -5 -2 -10 -4 -10 -3 0 -8 5 -11
10 -3 6 -1 10 4 10 6 0 11 -4 11 -10z m90 2 c0 -12 -49 -34 -60 -27 -5 3 -11
-1 -13 -7 -3 -7 -6 -3 -6 10 -1 19 2 21 17 13 12 -6 23 -5 37 5 22 16 25 17
25 6z m776 -3 c37 17 42 6 6 -13 -24 -12 -34 -13 -56 -3 -14 7 -26 15 -26 19
0 4 11 2 25 -4 19 -8 31 -8 51 1z m-379 -91 c-3 -7 -5 -2 -5 12 0 14 2 19 5
13 2 -7 2 -19 0 -25z m310 -35 c-3 -10 -5 -4 -5 12 0 17 2 24 5 18 2 -7 2 -21
0 -30z m-800 -5 c-3 -7 -5 -2 -5 12 0 14 2 19 5 13 2 -7 2 -19 0 -25z m870 0
c-3 -7 -5 -2 -5 12 0 14 2 19 5 13 2 -7 2 -19 0 -25z m-1238 -13 c5 2 16 -2
26 -9 17 -12 16 -13 -13 -12 -27 1 -32 5 -31 26 1 17 3 19 6 7 2 -9 8 -15 12
-12z m768 3 c-3 -8 -6 -5 -6 6 -1 11 2 17 5 13 3 -3 4 -12 1 -19z m-310 -50
c-2 -13 -4 -3 -4 22 0 25 2 35 4 23 2 -13 2 -33 0 -45z m-23 33 c3 -4 -8 -8
-23 -7 -16 1 -27 4 -24 9 6 10 41 9 47 -2z m399 2 c3 -5 -8 -8 -23 -8 -15 0
-26 3 -23 8 2 4 13 7 23 7 10 0 21 -3 23 -7z m400 0 c3 -5 -8 -8 -24 -9 -15
-1 -26 3 -23 7 6 11 41 12 47 2z m46 -31 c14 -10 13 -11 -4 -5 -18 6 -18 5 -6
-10 12 -15 12 -17 -1 -12 -9 4 -15 19 -15 38 -1 18 2 25 5 17 3 -8 12 -21 21
-28z m-1222 6 c-3 -8 -6 -5 -6 6 -1 11 2 17 5 13 3 -3 4 -12 1 -19z m-90 -7
c1 -11 -5 -22 -14 -25 -14 -6 -14 -4 -2 11 12 15 12 16 -6 10 -20 -7 -20 -7
-1 8 11 8 20 15 21 15 0 0 1 -9 2 -19z m73 -5 c0 -2 -12 -1 -27 1 l-28 4 30
-15 c17 -8 24 -15 17 -15 -7 -1 -10 -6 -6 -12 4 -8 12 -3 20 12 9 17 13 19 14
8 0 -9 10 -24 23 -33 22 -16 22 -16 -4 -5 -21 9 -33 7 -60 -6 -28 -13 -31 -13
-15 -1 11 9 16 19 13 23 -4 4 -13 1 -19 -5 -7 -7 -16 -12 -22 -12 -5 0 -1 7
10 15 10 8 14 15 8 15 -14 0 -14 33 -1 42 10 6 47 -7 47 -16z m325 14 c-8 -13
1 -13 24 0 13 6 24 5 37 -5 18 -13 18 -14 -2 -9 -12 3 -30 1 -40 -4 -14 -7
-23 -6 -31 3 -10 11 -10 15 0 18 18 8 19 8 12 -3z m405 -12 c0 -18 -2 -20 -9
-8 -6 8 -7 18 -5 22 9 14 14 9 14 -14z m54 16 c25 -10 19 -19 -13 -19 -22 0
-27 3 -19 13 12 14 11 14 32 6z m66 -20 c0 -3 -5 -2 -11 2 -6 3 -15 0 -20 -7
-6 -10 -8 -8 -6 8 1 17 5 20 19 12 10 -5 18 -12 18 -15z m280 4 c0 -18 -2 -20
-9 -8 -6 8 -7 18 -5 22 9 14 14 9 14 -14z m70 3 c0 -3 -14 -6 -30 -6 -26 0
-28 2 -14 12 15 11 44 8 44 -6z m360 -1 c0 -5 -5 -10 -11 -10 -5 0 -7 5 -4 10
3 6 8 10 11 10 2 0 4 -4 4 -10z m-1160 -25 c28 -14 40 -27 23 -23 -13 2 -43
-14 -39 -21 3 -4 -4 -7 -14 -7 -10 0 -16 5 -13 10 4 5 -3 7 -15 4 -12 -4 -20
-2 -17 2 3 5 -1 10 -7 12 -8 3 0 12 17 21 37 20 31 20 65 2z m390 5 c13 -9 13
-10 0 -10 -10 0 -7 -7 10 -20 l25 -19 -24 6 c-14 4 -22 2 -18 -3 3 -5 -3 -10
-13 -10 -10 0 -16 5 -13 10 4 5 -3 7 -15 4 -12 -4 -20 -2 -17 2 3 5 -1 10 -7
12 -8 3 0 12 17 21 36 19 36 19 55 7z m400 0 c13 -9 13 -10 0 -10 -10 0 -7 -7
10 -21 25 -21 24 -21 -12 0 l-36 21 -36 -21 c-20 -11 -36 -19 -36 -16 0 6 81
57 90 57 3 0 12 -5 20 -10z m360 -10 c-13 -9 -13 -11 0 -21 12 -8 10 -9 -7 -4
-12 3 -31 1 -43 -5 -11 -6 -20 -9 -20 -6 0 7 64 46 75 46 6 0 3 -5 -5 -10z
m-1922 -12 c8 -10 3 -13 -18 -14 -22 -1 -26 2 -17 12 15 17 22 17 35 2z m1022
8 c0 -2 -7 -7 -16 -10 -8 -3 -12 -2 -9 4 6 10 25 14 25 6z m50 -21 c0 -2 -10
-9 -22 -15 -22 -11 -22 -10 -4 4 21 17 26 19 26 11z m474 -8 c16 -12 16 -13
-3 -13 -11 0 -18 3 -15 7 2 4 -2 10 -8 12 -7 3 -8 6 -2 6 5 1 18 -5 28 -12z
m-1424 -28 c0 -4 -7 -10 -16 -13 -9 -3 -12 -2 -9 5 4 6 -1 17 -11 25 -17 13
-16 13 9 3 15 -7 27 -16 27 -20z m37 25 c-10 -10 22 -36 35 -29 7 4 2 -3 -12
-15 -14 -12 -18 -20 -10 -17 11 3 16 -3 17 -22 0 -15 -1 -19 -4 -8 -3 11 -11
16 -19 13 -7 -3 -13 -2 -13 2 3 17 -2 32 -10 32 -4 0 -6 -12 -3 -26 l5 -26
-32 16 c-30 16 -43 32 -19 24 7 -3 18 1 25 8 7 7 18 15 25 18 10 5 10 7 -1 12
-11 5 -11 8 0 15 16 10 25 12 16 3z m93 1 c0 -2 -10 -9 -22 -15 -22 -11 -22
-10 -4 4 21 17 26 19 26 11z m400 0 c0 -2 -10 -9 -22 -15 -22 -11 -22 -10 -4
4 21 17 26 19 26 11z m298 -30 c4 3 0 11 -8 16 -11 8 -8 8 10 3 14 -4 27 -11
28 -15 2 -5 7 -7 11 -5 11 7 0 -57 -11 -71 -15 -18 -63 -16 -79 4 -13 15 -12
15 9 4 25 -13 72 -7 72 9 0 13 -13 13 -27 -1 -11 -11 -65 10 -78 32 -4 6 7 3
25 -6 19 -10 42 -14 57 -10 40 10 21 30 -30 30 -26 0 -52 6 -59 14 -11 11 -9
12 10 2 26 -14 29 -4 5 16 -10 8 -1 5 21 -6 21 -12 41 -19 44 -16z m385 20
c17 5 19 4 7 -4 -8 -5 -11 -13 -7 -17 4 -4 13 -2 19 4 7 7 17 12 23 12 5 0 1
-7 -9 -15 -11 -8 -14 -15 -7 -15 7 0 9 -4 6 -10 -3 -5 -11 -10 -16 -10 -6 0
-7 5 -4 10 3 6 2 10 -3 10 -12 0 -23 -26 -15 -34 3 -3 23 4 45 15 22 11 37 16
33 10 -14 -23 -65 -42 -84 -31 -14 7 -21 6 -24 -3 -3 -6 -6 -2 -6 10 -1 17 3
21 17 17 11 -4 9 1 -8 16 -24 21 -24 21 -2 10 13 -6 26 -9 30 -6 3 3 1 6 -4 6
-5 0 -20 10 -34 21 -23 19 -23 20 -2 9 12 -6 33 -8 45 -5z m162 5 c-3 -5 -12
-10 -18 -10 -7 0 -6 4 3 10 19 12 23 12 15 0z m244 -11 c-8 -4 -10 -11 -6 -15
4 -4 13 -2 19 4 16 16 25 15 32 -4 5 -14 4 -15 -8 -5 -10 9 -16 9 -21 1 -4 -6
-16 -8 -28 -5 -17 5 -19 4 -7 -4 8 -6 23 -8 33 -5 9 3 17 1 17 -5 0 -6 7 -8
15 -5 27 11 16 -5 -15 -21 -27 -14 -30 -14 -30 0 0 8 -5 15 -11 15 -5 0 -7 -5
-3 -12 5 -7 3 -8 -6 -3 -7 4 -16 2 -21 -6 -6 -10 -9 -8 -9 8 0 17 4 21 18 17
11 -4 9 1 -8 16 -14 12 -19 19 -12 15 14 -7 45 19 34 29 -3 4 2 4 12 0 14 -5
15 -9 5 -15z m-1749 -15 c0 -2 -9 0 -20 6 -11 6 -20 13 -20 16 0 2 9 0 20 -6
11 -6 20 -13 20 -16z m510 -10 c0 -2 -13 2 -30 11 -16 9 -30 18 -30 21 0 2 14
-2 30 -11 17 -9 30 -18 30 -21z m64 20 c9 -8 22 -12 28 -9 7 4 2 -3 -12 -14
-28 -23 -55 -27 -66 -10 -4 7 0 9 12 5 11 -3 26 -1 34 5 12 9 12 10 -3 5 -10
-3 -28 -1 -40 6 -21 11 -21 11 -2 19 29 11 32 11 49 -7z m856 1 c0 -2 -10 -9
-22 -15 -22 -11 -22 -10 -4 4 21 17 26 19 26 11z m-468 -38 c-15 -7 -26 -7
-33 0 -6 6 1 10 23 10 30 0 30 -1 10 -10z m293 -5 c-3 -3 -11 0 -18 7 -9 10
-8 11 6 5 10 -3 15 -9 12 -12z m615 13 c0 -2 -10 -9 -22 -15 -22 -11 -22 -10
-4 4 21 17 26 19 26 11z m-1345 -17 c19 -8 31 -8 50 0 24 11 25 11 24 -26 -2
-30 -3 -32 -6 -10 -4 24 -7 27 -24 18 -14 -8 -27 -7 -49 5 -45 23 -41 34 5 13z
m-362 -32 c16 4 19 3 11 -5 -20 -21 -49 -19 -74 6 l-25 25 33 -17 c19 -9 42
-13 55 -9z m1652 14 c-9 -15 -45 -32 -45 -22 0 5 10 14 23 20 29 14 29 14 22
2z m-433 -20 c-18 -15 -28 -17 -43 -10 -24 14 -24 20 0 13 11 -3 28 0 38 6 28
16 30 12 5 -9z m-818 -7 c-9 -6 -22 -9 -30 -6 -24 9 -16 18 16 18 26 0 28 -2
14 -12z m1195 -27 c-2 -27 -2 -27 -6 -6 -3 13 -12 30 -21 37 -15 10 -14 11 6
6 17 -4 22 -12 21 -37z m18 -18 c-3 -8 -6 -5 -6 6 -1 11 2 17 5 13 3 -3 4 -12
1 -19z m-400 -10 c-3 -8 -6 -5 -6 6 -1 11 2 17 5 13 3 -3 4 -12 1 -19z m-470
-10 c-3 -8 -6 -5 -6 6 -1 11 2 17 5 13 3 -3 4 -12 1 -19z m-780 -20 c-3 -7 -5
-2 -5 12 0 14 2 19 5 13 2 -7 2 -19 0 -25z m470 0 c-3 -7 -5 -2 -5 12 0 14 2
19 5 13 2 -7 2 -19 0 -25z m-400 0 c-3 -8 -6 -5 -6 6 -1 11 2 17 5 13 3 -3 4
-12 1 -19z m1110 -30 c-3 -8 -6 -5 -6 6 -1 11 2 17 5 13 3 -3 4 -12 1 -19z
m470 0 c-3 -8 -6 -5 -6 6 -1 11 2 17 5 13 3 -3 4 -12 1 -19z m-1597 -34 c0 -1
-13 -1 -30 0 -34 1 -35 2 -18 20 10 10 15 10 30 -3 10 -8 18 -16 18 -17z m400
2 c0 -2 -8 -2 -19 1 -10 3 -33 -3 -50 -11 -41 -21 -40 -11 1 14 23 14 36 16
50 9 10 -5 18 -11 18 -13z m400 0 c0 -2 -9 -2 -19 1 -10 3 -28 0 -40 -6 -17
-10 -21 -9 -21 4 0 9 4 14 8 11 4 -2 14 -1 22 4 12 7 50 -3 50 -14z m400 2 c0
-5 -5 -6 -11 -3 -14 9 -59 -3 -59 -16 0 -6 7 -6 20 1 21 11 71 -7 85 -31 4 -6
-10 -2 -32 9 -34 18 -41 18 -58 6 -26 -19 -34 -18 -28 6 9 36 83 60 83 28z
m400 0 c0 -5 -5 -6 -11 -3 -14 9 -59 -3 -59 -16 0 -6 7 -8 16 -5 8 3 13 2 10
-3 -3 -5 3 -11 14 -14 11 -3 20 -1 20 4 0 5 -4 9 -10 9 -5 0 -10 5 -10 10 0 6
13 4 30 -5 30 -15 42 -31 18 -23 -7 3 -18 -1 -25 -8 -7 -7 -18 -14 -25 -17 -7
-2 -10 -7 -6 -11 3 -4 18 0 32 9 23 16 26 16 20 2 -3 -9 -9 -16 -12 -15 -4 1
-17 -3 -30 -10 -12 -7 -22 -9 -21 -5 3 21 -2 24 -18 12 -17 -13 -17 -13 -3 5
14 18 13 19 -5 13 -16 -6 -15 -3 5 14 17 14 19 19 8 15 -15 -4 -18 1 -18 25 0
17 4 28 10 24 5 -3 17 -2 27 3 19 11 43 5 43 -10z m-1183 -10 c-3 -8 -6 -5 -6
6 -1 11 2 17 5 13 3 -3 4 -12 1 -19z m-487 3 c0 -5 -7 -12 -16 -15 -14 -5 -15
-4 -4 9 14 17 20 19 20 6z m1700 -6 c11 -13 10 -14 -4 -9 -9 3 -16 10 -16 15
0 13 6 11 20 -6z m-1662 -20 c-3 -14 -1 -25 3 -25 8 0 13 14 11 31 -1 4 8 4
20 1 15 -4 19 -2 13 7 -6 10 -3 11 14 2 24 -13 28 -23 6 -15 -8 4 -15 1 -15
-5 0 -6 -8 -8 -17 -5 -12 4 -10 -1 7 -16 22 -19 22 -20 3 -11 -31 16 -40 14
-17 -4 18 -13 18 -14 1 -15 -10 0 -15 -4 -12 -10 3 -6 -1 -7 -10 -3 -14 5 -14
8 -3 15 10 8 10 11 0 15 -7 2 -18 10 -25 17 -7 7 -19 11 -27 9 -10 -3 -8 1 4
11 16 13 22 13 28 3 5 -8 8 -7 8 6 0 9 3 17 6 17 4 0 4 -11 2 -25z m462 -13
c13 -13 12 -13 -7 -3 -34 17 -40 13 -13 -10 21 -17 22 -19 3 -10 -31 16 -40
14 -17 -4 19 -14 19 -14 0 -15 -20 0 -20 0 0 -15 18 -14 17 -14 -9 -3 -19 8
-24 14 -15 19 7 4 9 11 5 15 -4 4 -13 2 -19 -4 -16 -16 -25 -15 -32 4 -3 8 -2
12 4 9 14 -8 52 4 45 15 -3 5 1 11 7 13 7 3 3 6 -9 6 -16 1 -21 -3 -17 -14 4
-8 1 -15 -5 -15 -6 0 -11 4 -11 10 0 5 -7 7 -15 4 -25 -10 -17 5 12 20 29 15
63 7 93 -22z m378 18 c43 -26 41 -34 -3 -13 -33 16 -37 16 -70 0 -19 -9 -35
-14 -35 -12 0 6 62 45 70 45 3 0 20 -9 38 -20z m-923 -10 c-3 -5 -12 -10 -18
-10 -7 0 -6 4 3 10 19 12 23 12 15 0z m1405 -16 c0 -2 -9 0 -20 6 -11 6 -20
13 -20 16 0 2 9 0 20 -6 11 -6 20 -13 20 -16z m-494 4 c5 -8 2 -9 -9 -5 -10 3
-24 4 -32 1 -13 -5 -13 -8 1 -21 8 -9 18 -12 22 -9 3 4 0 11 -8 16 -8 6 -10
10 -5 10 6 0 17 -5 25 -10 13 -9 13 -11 0 -20 -16 -10 -53 -3 -58 11 -2 5 -13
4 -25 -2 -28 -15 -15 -1 20 22 33 21 59 24 69 7z m418 -9 c38 -22 50 -37 16
-19 -11 6 -20 7 -20 2 0 -14 -43 -23 -54 -12 -6 6 -15 5 -25 -3 -14 -11 -15
-10 -1 7 14 18 13 19 -5 13 -16 -6 -15 -3 5 13 32 25 41 25 84 -1z m-1264 -20
c0 -14 -17 -10 -23 5 -4 10 -1 13 9 9 7 -3 14 -9 14 -14z m900 -5 c0 -2 -9 0
-20 6 -11 6 -20 13 -20 16 0 2 9 0 20 -6 11 -6 20 -13 20 -16z m820 -10 c0 -2
-9 0 -20 6 -11 6 -20 13 -20 16 0 2 9 0 20 -6 11 -6 20 -13 20 -16z m-1590
-10 c0 -2 -9 0 -20 6 -11 6 -20 13 -20 16 0 2 9 0 20 -6 11 -6 20 -13 20 -16z
m111 12 c-10 -11 -8 -16 8 -21 12 -3 26 -3 33 1 7 4 5 -2 -5 -12 -15 -16 -19
-17 -27 -4 -12 19 -22 8 -14 -14 4 -9 12 -15 18 -13 26 10 13 -31 -15 -47 -16
-9 -29 -13 -29 -8 0 5 12 14 26 21 15 6 24 14 21 17 -3 3 -14 1 -24 -4 -10 -5
-24 -7 -30 -5 -16 6 -17 43 -1 43 9 0 9 3 0 12 -17 17 -30 -3 -26 -38 2 -21 0
-22 -17 -14 -24 13 -25 22 -1 13 15 -6 15 -5 3 10 -9 12 -10 17 -2 17 7 0 9 5
6 10 -3 6 -1 10 5 10 6 0 8 5 3 13 -4 6 4 4 19 -5 29 -19 47 -12 20 9 -15 11
-15 12 -1 7 10 -3 20 -1 24 5 3 6 9 11 12 11 3 0 0 -6 -6 -14z m800 0 c-7 -8
-8 -16 -4 -18 4 -3 2 -3 -4 -2 -17 4 -43 -6 -43 -16 0 -14 65 -4 93 15 15 9
27 15 27 12 0 -4 -20 -18 -44 -32 -37 -21 -49 -24 -65 -15 -18 9 -21 8 -21 -8
0 -26 25 -46 50 -39 11 3 18 1 14 -4 -8 -14 -30 -11 -68 12 -38 22 -47 33 -20
22 14 -5 16 -1 12 20 -3 15 -1 27 4 27 5 0 7 4 4 9 -4 5 4 7 16 3 14 -3 19 -1
14 6 -4 8 -2 10 7 6 8 -3 18 -1 22 5 3 6 9 11 12 11 3 0 0 -6 -6 -14z m-671
-1 c0 -2 -10 -9 -22 -15 -22 -11 -22 -10 -4 4 21 17 26 19 26 11z m264 -7 c-3
-4 6 -10 19 -14 19 -4 23 -10 19 -27 l-5 -21 -10 21 c-5 12 -15 24 -22 27 -19
7 -56 -5 -49 -16 3 -5 12 -7 20 -4 21 8 42 -3 40 -20 -3 -20 -25 -34 -43 -27
-24 9 -14 20 15 16 20 -3 16 1 -18 18 -25 12 -39 23 -32 26 6 3 10 8 7 13 -3
4 5 6 17 2 12 -3 19 -1 15 4 -3 5 3 10 13 10 10 0 16 -4 14 -8z m799 -2 c-4
-5 3 -7 15 -4 12 4 20 2 17 -2 -3 -5 1 -10 7 -13 7 -2 -2 -11 -20 -21 -24 -13
-37 -14 -52 -6 -17 9 -20 8 -20 -9 0 -11 9 -25 19 -31 25 -13 41 -13 41 1 0 5
-4 8 -9 5 -4 -3 -16 0 -25 7 -14 10 -12 12 14 12 24 0 30 -4 30 -22 0 -18 -6
-23 -24 -23 -14 0 -28 5 -31 10 -4 6 -11 8 -16 5 -10 -7 -10 -7 -12 42 -2 26
2 33 21 38 13 3 21 9 18 13 -2 4 4 8 14 8 10 0 16 -5 13 -10z m277 -12 c0 -2
-9 0 -20 6 -11 6 -20 13 -20 16 0 2 9 0 20 -6 11 -6 20 -13 20 -16z m75 -4 c3
6 12 10 18 10 7 0 6 -4 -3 -10 -13 -9 -13 -11 0 -21 13 -9 13 -10 -2 -6 -9 3
-19 1 -22 -6 -2 -7 -5 -5 -5 4 -1 9 -11 24 -23 34 -22 16 -22 16 4 1 17 -10
29 -12 33 -6z m-1205 -57 c0 -21 -3 -24 -9 -14 -5 8 -7 20 -4 28 8 21 13 15
13 -14z m509 11 c6 4 11 5 11 2 0 -3 -9 -10 -20 -16 -17 -9 -20 -8 -20 12 0
17 3 19 9 9 5 -7 14 -10 20 -7z m378 -16 c-3 -7 -5 -2 -5 12 0 14 2 19 5 13 2
-7 2 -19 0 -25z m-417 10 c0 -5 -11 -8 -24 -8 -14 0 -27 3 -29 8 -3 4 8 7 24
7 16 0 29 -3 29 -7z m-405 -28 c-3 -5 -14 -10 -23 -10 -15 0 -15 2 -2 10 20
13 33 13 25 0z"/>
<path d="M1174 1905 c-10 -8 -14 -15 -7 -15 6 0 17 -2 25 -5 7 -3 20 0 28 5
13 9 13 11 0 20 -20 13 -23 13 -46 -5z m36 1 c0 -3 -4 -8 -10 -11 -5 -3 -10
-1 -10 4 0 6 5 11 10 11 6 0 10 -2 10 -4z"/>
<path d="M1580 1910 c-13 -9 -13 -11 0 -20 8 -5 21 -8 28 -5 8 3 19 5 25 5 7
0 3 7 -7 15 -23 18 -26 18 -46 5z"/>
<path d="M365 1900 c-3 -5 -2 -10 4 -10 5 0 13 5 16 10 3 6 2 10 -4 10 -5 0
-13 -4 -16 -10z"/>
<path d="M587 1816 c-6 -16 19 -30 28 -16 4 6 1 10 -5 10 -6 0 -8 5 -5 10 3 6
2 10 -3 10 -6 0 -12 -6 -15 -14z"/>
<path d="M988 1798 c9 -9 15 -9 24 0 9 9 7 12 -12 12 -19 0 -21 -3 -12 -12z"/>
<path d="M1389 1592 c-1 -4 -1 -11 0 -16 1 -5 -4 -13 -11 -17 -7 -5 -8 -9 -3
-9 13 0 43 20 30 20 -5 0 -4 4 3 9 11 7 11 9 -2 14 -9 4 -17 3 -17 -1z"/>
<path d="M588 1583 c6 -2 18 -2 25 0 6 3 1 5 -13 5 -14 0 -19 -2 -12 -5z"/>
<path d="M985 1590 c-3 -5 3 -10 15 -10 12 0 18 5 15 10 -3 6 -10 10 -15 10
-5 0 -12 -4 -15 -10z"/>
<path d="M990 1540 c0 -5 5 -10 10 -10 6 0 10 5 10 10 0 6 -4 10 -10 10 -5 0
-10 -4 -10 -10z"/>
<path d="M1180 1500 c-13 -9 -13 -11 0 -20 8 -5 17 -10 20 -10 3 0 12 5 20 10
13 9 13 11 0 20 -8 5 -17 10 -20 10 -3 0 -12 -5 -20 -10z"/>
<path d="M1580 1500 c-13 -9 -13 -11 0 -20 8 -5 20 -10 25 -10 6 0 3 5 -5 10
-10 6 -11 10 -2 10 6 0 12 5 12 10 0 13 -11 13 -30 0z"/>
<path d="M1186 1242 c-2 -4 0 -14 5 -22 8 -13 10 -13 18 0 10 15 6 30 -9 30
-5 0 -11 -4 -14 -8z"/>
<path d="M1576 1235 c-17 -13 -15 -35 4 -35 14 0 41 31 35 41 -8 12 -17 11
-39 -6z m14 -15 c0 -5 -5 -10 -11 -10 -5 0 -7 5 -4 10 3 6 8 10 11 10 2 0 4
-4 4 -10z"/>
<path d="M575 1151 c-18 -7 -17 -10 14 -25 39 -20 62 -9 36 18 -18 18 -21 18
-50 7z m35 -5 c0 -3 -4 -8 -10 -11 -5 -3 -10 -1 -10 4 0 6 5 11 10 11 6 0 10
-2 10 -4z"/>
<path d="M980 1150 c-8 -5 -11 -12 -8 -16 4 -3 14 1 23 10 18 17 9 21 -15 6z"/>
<path d="M214 1134 c6 -15 4 -15 -11 -3 -15 12 -16 12 -10 -4 4 -10 7 -21 7
-23 0 -3 9 0 20 6 19 10 18 40 -2 40 -6 0 -7 -7 -4 -16z"/>
<path d="M575 867 c-17 -13 -17 -14 4 -20 33 -8 55 2 40 19 -14 17 -20 17 -44
1z"/>
<path d="M985 920 c-3 -5 3 -10 15 -10 12 0 18 5 15 10 -3 6 -10 10 -15 10 -5
0 -12 -4 -15 -10z"/>
<path d="M1380 870 c-13 -9 -13 -11 0 -20 8 -5 21 -8 28 -5 8 3 19 5 25 5 7 0
3 7 -7 15 -23 18 -26 18 -46 5z"/>
<path d="M1778 889 c-17 -10 -14 -39 4 -39 6 0 7 7 4 16 -5 14 -4 15 9 4 16
-13 20 -3 7 17 -5 8 -13 8 -24 2z"/>
<path d="M990 870 c0 -5 6 -10 13 -10 8 0 7 -4 -3 -10 -8 -5 -10 -10 -5 -10 6
0 17 5 25 10 13 9 13 11 0 20 -19 13 -30 13 -30 0z"/>
<path d="M760 783 c0 -10 4 -14 8 -8 4 6 11 13 16 18 5 4 2 7 -7 7 -10 0 -17
-8 -17 -17z"/>
<path d="M1165 789 c-4 -6 -4 -13 -1 -16 3 -4 6 -1 6 5 0 7 5 12 11 12 6 0 9
-7 6 -15 -7 -18 11 -31 25 -17 6 6 4 15 -7 26 -19 19 -31 20 -40 5z"/>
<path d="M1567 793 c-10 -9 -9 -23 2 -23 5 0 11 7 15 15 5 15 -5 20 -17 8z"/>
<path d="M774 515 c-10 -8 -14 -15 -7 -15 6 0 17 -2 25 -5 7 -3 20 0 28 5 13
9 13 11 0 20 -20 13 -23 13 -46 -5z"/>
<path d="M1180 520 c-8 -5 -12 -11 -10 -14 3 -2 14 2 24 10 22 15 10 19 -14 4z"/>
<path d="M1190 500 c0 -5 5 -10 10 -10 6 0 10 5 10 10 0 6 -4 10 -10 10 -5 0
-10 -4 -10 -10z"/>
<path d="M590 460 c0 -5 5 -10 10 -10 6 0 10 5 10 10 0 6 -4 10 -10 10 -5 0
-10 -4 -10 -10z"/>
<path d="M1780 170 c-8 -5 -10 -10 -5 -10 6 0 17 5 25 10 8 5 11 10 5 10 -5 0
-17 -5 -25 -10z"/>
<path d="M1383 173 c-10 -3 -9 -8 2 -20 13 -12 18 -13 31 -2 12 10 12 14 2 20
-14 10 -17 10 -35 2z"/>
<path d="M387 83 c-13 -12 -7 -23 13 -23 13 0 18 5 14 15 -7 16 -17 19 -27 8z"/>
<path d="M1580 110 c-13 -9 -13 -11 0 -20 20 -13 23 -13 46 5 10 8 14 15 7 15
-6 0 -15 -4 -18 -10 -3 -5 -11 -10 -17 -10 -7 0 -6 6 2 15 14 17 3 20 -20 5z"/>
<path d="M10 1440 c-8 -5 -12 -11 -9 -14 3 -3 14 1 25 9 21 16 8 20 -16 5z"/>
<path d="M1 74 c0 -11 3 -14 6 -6 3 7 2 16 -1 19 -3 4 -6 -2 -5 -13z"/>
</g>
</svg>
