<?xml version="1.0" standalone="no"?>
<!DOCTYPE svg PUBLIC "-//W3C//DTD SVG 20010904//EN"
 "http://www.w3.org/TR/2001/REC-SVG-20010904/DTD/svg10.dtd">
<svg version="1.0" xmlns="http://www.w3.org/2000/svg"
 width="200.000000pt" height="200.000000pt" viewBox="0 0 200.000000 200.000000"
 preserveAspectRatio="xMidYMid meet">
<metadata>
Created by potrace 1.16, written by Peter Selinger 2001-2019
</metadata>
<g transform="translate(0.000000,200.000000) scale(0.100000,-0.100000)"
fill="#000000" stroke="none">
<path d="M0 1734 c0 -209 3 -264 13 -258 10 6 10 4 0 -7 -9 -9 -13 -49 -13
-124 l0 -111 100 -58 99 -57 95 56 95 57 4 102 3 101 2 -102 2 -101 68 -37
c119 -66 131 -75 125 -91 -5 -13 -7 -13 -17 1 -6 8 -49 37 -95 64 l-84 48 -56
-32 c-31 -17 -73 -42 -94 -54 l-37 -23 0 -71 c0 -39 -3 -67 -7 -63 -4 4 -8 36
-8 71 0 35 -2 65 -5 68 -3 2 -45 27 -95 55 l-90 52 -3 -110 c-1 -60 -1 -159 0
-219 l3 -109 92 51 c88 49 93 54 100 92 l8 40 5 -39 c5 -36 10 -41 96 -91 l90
-52 85 48 c46 27 89 56 95 64 10 13 12 14 17 1 4 -10 -23 -31 -94 -71 l-99
-57 -2 -62 -1 -61 -6 64 -6 64 -85 48 c-47 27 -86 53 -88 58 -2 5 -50 -18
-108 -52 l-104 -61 0 -383 0 -383 195 0 195 0 0 38 c0 34 4 39 50 65 62 35 66
29 5 -7 -40 -24 -45 -31 -45 -61 l0 -35 201 0 201 0 -4 25 c-3 14 -1 28 4 31
4 3 8 2 7 -3 -1 -4 -1 -18 0 -30 l1 -23 380 0 380 0 0 26 c0 15 -8 33 -17 41
-16 13 -16 13 5 3 15 -7 22 -20 22 -40 l0 -30 210 0 209 0 0 1000 0 1000 -399
0 -399 0 -4 -22 -4 -23 -2 23 c-1 22 -1 22 -191 22 l-190 0 0 -34 c0 -32 4
-37 95 -90 l95 -55 87 51 c49 28 93 56 99 64 8 10 13 8 23 -8 7 -11 8 -17 2
-13 -10 6 -188 -88 -201 -106 -3 -3 -51 20 -107 53 -101 59 -102 59 -132 43
-17 -8 -31 -13 -31 -11 0 3 12 12 27 19 19 11 27 23 30 51 l4 36 -201 0 -200
0 0 -33 c0 -18 6 -39 13 -46 9 -11 9 -12 0 -7 -7 4 -27 0 -45 -9 -29 -14 -31
-14 -14 0 11 8 23 15 28 15 4 0 8 18 8 40 l0 40 -195 0 -195 0 0 -266z m1653
226 c3 -11 1 -18 -4 -14 -5 3 -9 12 -9 20 0 20 7 17 13 -6z m-412 -27 c13 -16
12 -17 -3 -4 -10 7 -18 15 -18 17 0 8 8 3 21 -13z m339 8 c0 -5 -7 -12 -16
-15 -14 -5 -15 -4 -4 9 14 17 20 19 20 6z m350 -6 c0 -2 -10 -9 -22 -15 -22
-11 -22 -10 -4 4 21 17 26 19 26 11z m-200 -31 c0 -2 -9 0 -20 6 -11 6 -20 13
-20 16 0 2 9 0 20 -6 11 -6 20 -13 20 -16z m-1660 -20 c0 -2 -13 2 -30 11 -17
9 -30 18 -30 21 0 2 13 -2 30 -11 17 -9 30 -18 30 -21z m420 -10 c0 -2 -13 2
-30 11 -16 9 -30 18 -30 21 0 2 14 -2 30 -11 17 -9 30 -18 30 -21z m765 18
c-3 -3 -11 0 -18 7 -9 10 -8 11 6 5 10 -3 15 -9 12 -12z m65 -8 c0 -2 -9 0
-20 6 -11 6 -20 13 -20 16 0 2 9 0 20 -6 11 -6 20 -13 20 -16z m270 21 c0 -2
-13 -11 -30 -20 -38 -19 -40 -11 -2 9 31 17 32 18 32 11z m290 0 c0 -2 -10 -9
-22 -15 -22 -11 -22 -10 -4 4 21 17 26 19 26 11z m-210 -31 c0 -2 -9 0 -20 6
-11 6 -20 13 -20 16 0 2 9 0 20 -6 11 -6 20 -13 20 -16z m-1340 11 c0 -2 -13
-11 -30 -20 -38 -19 -40 -11 -2 9 31 17 32 18 32 11z m400 0 c0 -2 -13 -11
-30 -20 -38 -19 -40 -11 -2 9 31 17 32 18 32 11z m1079 -21 c14 -12 -19 -1
-35 12 -18 14 -18 14 6 3 14 -6 27 -13 29 -15z m-1669 -20 c0 -2 -13 2 -30 11
-16 9 -30 18 -30 21 0 2 14 -2 30 -11 17 -9 30 -18 30 -21z m1230 10 c0 -2 -9
0 -20 6 -11 6 -20 13 -20 16 0 2 9 0 20 -6 11 -6 20 -13 20 -16z m100 21 c0
-2 -10 -9 -22 -15 -22 -11 -22 -10 -4 4 21 17 26 19 26 11z m510 0 c0 -2 -10
-9 -22 -15 -22 -11 -22 -10 -4 4 21 17 26 19 26 11z m-1420 -41 c0 -2 -13 2
-30 11 -16 9 -30 18 -30 21 0 2 14 -2 30 -11 17 -9 30 -18 30 -21z m960 31 c0
-2 -10 -9 -22 -15 -22 -11 -22 -10 -4 4 21 17 26 19 26 11z m220 -31 c0 -2 -9
0 -20 6 -11 6 -20 13 -20 16 0 2 9 0 20 -6 11 -6 20 -13 20 -16z m-1480 12 c0
-2 -15 -13 -33 -24 -33 -19 -34 -19 -58 0 l-24 19 26 -12 c21 -9 32 -8 55 5
32 17 34 18 34 12z m400 -1 c0 -2 -10 -9 -22 -15 -22 -11 -22 -10 -4 4 21 17
26 19 26 11z m1250 -10 c0 -2 -10 -9 -22 -15 -22 -11 -22 -10 -4 4 21 17 26
19 26 11z m-1306 -27 c-3 -5 -12 -4 -20 3 -19 16 -18 18 6 12 11 -3 17 -9 14
-15z m825 -1 c-13 -13 -26 -21 -29 -19 -5 4 38 42 48 42 3 0 -6 -10 -19 -23z
m361 -3 c0 -2 -9 0 -20 6 -11 6 -20 13 -20 16 0 2 9 0 20 -6 11 -6 20 -13 20
-16z m-1593 -66 c-2 -13 -4 -5 -4 17 -1 22 1 32 4 23 2 -10 2 -28 0 -40z
m1640 30 c-3 -8 -6 -5 -6 6 -1 11 2 17 5 13 3 -3 4 -12 1 -19z m-424 -11 c3
-8 1 -20 -4 -28 -6 -10 -9 -7 -9 14 0 29 5 35 13 14z m424 -89 c-2 -18 -4 -6
-4 27 0 33 2 48 4 33 2 -15 2 -42 0 -60z m-1640 -10 c-2 -13 -4 -5 -4 17 -1
22 1 32 4 23 2 -10 2 -28 0 -40z m1215 17 c2 -19 0 -35 -4 -35 -4 0 -8 16 -8
35 0 19 2 35 4 35 2 0 6 -16 8 -35z m-1181 -110 c16 -9 29 -18 29 -21 0 -2
-14 3 -31 11 -17 9 -38 14 -47 10 -14 -5 -15 -4 -4 6 6 7 13 24 13 39 2 25 2
25 6 -3 3 -18 15 -32 34 -42z m1623 25 c10 -13 9 -13 -6 -1 -10 7 -18 21 -17
30 0 13 1 14 6 1 3 -8 11 -22 17 -30z m-1250 -9 c3 -5 -3 -11 -15 -14 -16 -4
-18 -3 -8 9 13 16 16 17 23 5z m846 -17 c0 -2 -9 0 -20 6 -11 6 -20 13 -20 16
0 2 9 0 20 -6 11 -6 20 -13 20 -16z m-350 -40 c84 -47 102 -54 119 -44 12 6
21 8 21 6 0 -11 -59 -36 -64 -27 -7 11 -165 101 -178 101 -5 0 -50 -23 -99
-52 l-89 -52 0 -107 c0 -99 2 -108 23 -124 21 -16 21 -16 -5 -1 -17 10 -29 12
-33 6 -7 -11 -65 -43 -65 -36 0 2 16 13 35 25 l35 20 -1 111 -1 110 -29 15
c-16 9 -29 18 -29 21 0 2 14 -3 30 -11 30 -16 32 -15 128 39 53 31 99 55 100
56 2 0 48 -25 102 -56z m680 51 c0 -2 -18 -14 -40 -25 -22 -11 -40 -18 -40
-15 0 2 17 13 38 24 42 23 42 23 42 16z m-1055 -68 c6 -6 -12 2 -40 18 -27 15
-54 32 -60 38 -5 6 13 -2 40 -18 28 -15 55 -32 60 -38z m655 58 c0 -2 -13 -11
-30 -20 -38 -19 -40 -11 -2 9 31 17 32 18 32 11z m-1220 -10 c0 -2 -13 -11
-30 -20 -38 -19 -40 -11 -2 9 31 17 32 18 32 11z m400 0 c0 -2 -13 -11 -30
-20 -38 -19 -40 -11 -2 9 31 17 32 18 32 11z m960 -31 c0 -2 -9 0 -20 6 -11 6
-20 13 -20 16 0 2 9 0 20 -6 11 -6 20 -13 20 -16z m-1145 -47 c6 -6 -12 2 -40
18 -27 15 -54 32 -60 38 -5 6 13 -2 40 -18 28 -15 55 -32 60 -38z m1005 58 c0
-2 -10 -9 -22 -15 -22 -11 -22 -10 -4 4 21 17 26 19 26 11z m-70 -10 c0 -2
-10 -9 -22 -15 -22 -11 -22 -10 -4 4 21 17 26 19 26 11z m170 -21 c0 -2 -9 0
-20 6 -11 6 -20 13 -20 16 0 2 9 0 20 -6 11 -6 20 -13 20 -16z m210 21 c0 -2
-10 -9 -22 -15 -22 -11 -22 -10 -4 4 21 17 26 19 26 11z m-1600 -10 c0 -2 -13
-11 -30 -20 -38 -19 -40 -11 -2 9 31 17 32 18 32 11z m400 0 c0 -2 -10 -9 -22
-15 -22 -11 -22 -10 -4 4 21 17 26 19 26 11z m1100 -31 c0 -2 -13 2 -30 11
-16 9 -30 18 -30 21 0 2 14 -2 30 -11 17 -9 30 -18 30 -21z m200 31 c0 -2 -10
-9 -22 -15 -22 -11 -22 -10 -4 4 21 17 26 19 26 11z m-460 -10 c0 -2 -13 -11
-30 -20 -38 -19 -40 -11 -2 9 31 17 32 18 32 11z m560 -31 c0 -2 -9 0 -20 6
-11 6 -20 13 -20 16 0 2 9 0 20 -6 11 -6 20 -13 20 -16z m-1482 -14 c-7 -11
-15 -15 -17 -9 -2 6 3 15 10 20 20 12 21 11 7 -11z m1312 16 c0 -2 -16 -13
-35 -25 -19 -11 -35 -18 -35 -16 0 5 61 45 68 45 1 0 2 -2 2 -4z m-472 -20
c-15 -11 -18 -29 -18 -108 0 -61 4 -99 13 -108 10 -12 9 -12 -5 -1 -15 11 -18
30 -18 112 0 83 3 100 18 108 24 15 30 13 10 -3z m330 -114 l-2 -107 -3 104
c-3 84 -7 107 -21 118 -15 13 -15 13 6 3 21 -10 22 -16 20 -118z m362 102 c0
-2 -9 0 -20 6 -11 6 -20 13 -20 16 0 2 9 0 20 -6 11 -6 20 -13 20 -16z m13
-185 c-4 -5 -6 36 -3 89 l5 97 3 -89 c1 -49 -1 -93 -5 -97z m-263 -20 c17 -13
18 -17 5 -10 -33 17 -51 31 -40 31 6 0 21 -10 35 -21z m-500 -4 c0 -2 -10 -9
-22 -15 -22 -11 -22 -10 -4 4 21 17 26 19 26 11z m110 -31 c0 -2 -9 0 -20 6
-11 6 -20 13 -20 16 0 2 9 0 20 -6 11 -6 20 -13 20 -16z m600 21 c0 -2 -13
-11 -30 -20 -38 -19 -40 -11 -2 9 31 17 32 18 32 11z m-120 -41 c0 -2 -13 2
-30 11 -16 9 -30 18 -30 21 0 2 14 -2 30 -11 17 -9 30 -18 30 -21z m-964 14
c4 -7 3 -8 -4 -4 -6 4 -22 2 -34 -4 -22 -11 -22 -10 -4 4 24 19 32 20 42 4z
m84 -14 c0 -2 -9 0 -20 6 -11 6 -20 13 -20 16 0 2 9 0 20 -6 11 -6 20 -13 20
-16z m220 11 c0 -2 -10 -9 -22 -15 -22 -11 -22 -10 -4 4 21 17 26 19 26 11z
m-400 -10 c0 -2 -10 -9 -22 -15 -22 -11 -22 -10 -4 4 21 17 26 19 26 11z m489
1 c-2 -2 -15 -9 -29 -15 -24 -11 -24 -11 -6 3 16 13 49 24 35 12z m161 -22 c0
-2 -9 0 -20 6 -11 6 -20 13 -20 16 0 2 9 0 20 -6 11 -6 20 -13 20 -16z m100
21 c0 -2 -10 -9 -22 -15 -22 -11 -22 -10 -4 4 21 17 26 19 26 11z m-720 -10
c0 -2 -10 -9 -22 -15 -22 -11 -22 -10 -4 4 21 17 26 19 26 11z m140 -21 c0 -2
-9 0 -20 6 -11 6 -20 13 -20 16 0 2 9 0 20 -6 11 -6 20 -13 20 -16z m415 -27
c16 -15 -48 20 -70 38 -11 9 -2 7 20 -6 22 -12 45 -26 50 -32z m-335 17 c0 -2
-9 0 -20 6 -11 6 -20 13 -20 16 0 2 9 0 20 -6 11 -6 20 -13 20 -16z m100 21
c0 -2 -13 -11 -30 -20 -38 -19 -40 -11 -2 9 31 17 32 18 32 11z m570 -21 c0
-2 -9 0 -20 6 -11 6 -20 13 -20 16 0 2 9 0 20 -6 11 -6 20 -13 20 -16z m-490
11 c0 -2 -13 -11 -30 -20 -38 -19 -40 -11 -2 9 31 17 32 18 32 11z m-210 -31
c0 -2 -9 0 -20 6 -11 6 -20 13 -20 16 0 2 9 0 20 -6 11 -6 20 -13 20 -16z
m630 21 c0 -2 -13 -11 -30 -20 -38 -19 -40 -11 -2 9 31 17 32 18 32 11z m140
-41 c0 -2 -9 0 -20 6 -11 6 -20 13 -20 16 0 2 9 0 20 -6 11 -6 20 -13 20 -16z
m-630 11 c0 -2 -10 -9 -22 -15 -22 -11 -22 -10 -4 4 21 17 26 19 26 11z m880
0 c0 -2 -10 -9 -22 -15 -22 -11 -22 -10 -4 4 21 17 26 19 26 11z m-1333 -27
c-3 -8 -6 -5 -6 6 -1 11 2 17 5 13 3 -3 4 -12 1 -19z m350 -15 c-3 -10 -5 -4
-5 12 0 17 2 24 5 18 2 -7 2 -21 0 -30z m384 20 c13 -16 12 -17 -3 -4 -17 13
-22 21 -14 21 2 0 10 -8 17 -17z m139 12 c0 -2 -10 -9 -22 -15 -22 -11 -22
-10 -4 4 21 17 26 19 26 11z m405 -25 c-3 -5 -12 -10 -18 -10 -7 0 -6 4 3 10
19 12 23 12 15 0z m-158 -47 c-3 -10 -5 -2 -5 17 0 19 2 27 5 18 2 -10 2 -26
0 -35z m-770 -5 c-3 -8 -6 -5 -6 6 -1 11 2 17 5 13 3 -3 4 -12 1 -19z m390
-55 c-3 -10 -5 -2 -5 17 0 19 2 27 5 18 2 -10 2 -26 0 -35z m-780 15 c-3 -8
-6 -5 -6 6 -1 11 2 17 5 13 3 -3 4 -12 1 -19z m390 -40 c-2 -13 -4 -3 -4 22 0
25 2 35 4 23 2 -13 2 -33 0 -45z m756 -37 c-10 -9 -13 -10 -5 -1 6 7 13 34 14
60 l1 45 4 -44 c3 -33 0 -48 -14 -60z m-1106 57 c-3 -8 -6 -5 -6 6 -1 11 2 17
5 13 3 -3 4 -12 1 -19z m729 -66 c-15 -15 -15 -15 -4 10 7 15 15 23 17 17 2
-6 -4 -18 -13 -27z m-379 -4 c-3 -8 -6 -5 -6 6 -1 11 2 17 5 13 3 -3 4 -12 1
-19z m588 -41 c6 -6 -12 2 -40 18 -27 15 -54 32 -60 38 -5 6 13 -2 40 -18 28
-15 55 -32 60 -38z m-485 27 c0 -2 -9 0 -20 6 -11 6 -20 13 -20 16 0 2 9 0 20
-6 11 -6 20 -13 20 -16z m630 11 c0 -2 -13 -11 -30 -20 -38 -19 -40 -11 -2 9
31 17 32 18 32 11z m-685 -25 c3 -6 -1 -7 -9 -4 -18 7 -21 14 -7 14 6 0 13 -4
16 -10z m285 5 c0 -2 -10 -9 -22 -15 -22 -11 -22 -10 -4 4 21 17 26 19 26 11z
m-640 -31 c0 -2 -9 0 -20 6 -11 6 -20 13 -20 16 0 2 9 0 20 -6 11 -6 20 -13
20 -16z m480 0 c0 -2 -9 0 -20 6 -11 6 -20 13 -20 16 0 2 9 0 20 -6 11 -6 20
-13 20 -16z m250 21 c0 -2 -10 -9 -22 -15 -22 -11 -22 -10 -4 4 21 17 26 19
26 11z m35 -15 c3 -6 -1 -7 -9 -4 -18 7 -21 14 -7 14 6 0 13 -4 16 -10z m-685
-26 c0 -2 -9 0 -20 6 -11 6 -20 13 -20 16 0 2 9 0 20 -6 11 -6 20 -13 20 -16z
m140 21 c0 -2 -13 -11 -30 -20 -38 -19 -40 -11 -2 9 31 17 32 18 32 11z m50 0
c0 -2 -10 -9 -22 -15 -22 -11 -22 -10 -4 4 21 17 26 19 26 11z m160 -21 c0 -2
-9 0 -20 6 -11 6 -20 13 -20 16 0 2 9 0 20 -6 11 -6 20 -13 20 -16z m250 11
c0 -2 -10 -9 -22 -15 -22 -11 -22 -10 -4 4 21 17 26 19 26 11z m449 1 c-2 -2
-15 -9 -29 -15 -24 -11 -24 -11 -6 3 16 13 49 24 35 12z m-594 -24 c-3 -3 -11
0 -18 7 -9 10 -8 11 6 5 10 -3 15 -9 12 -12z m305 -8 c0 -2 -9 0 -20 6 -11 6
-20 13 -20 16 0 2 9 0 20 -6 11 -6 20 -13 20 -16z m360 0 c0 -2 -9 0 -20 6
-11 6 -20 13 -20 16 0 2 9 0 20 -6 11 -6 20 -13 20 -16z m-720 -10 c0 -2 -9 0
-20 6 -11 6 -20 13 -20 16 0 2 9 0 20 -6 11 -6 20 -13 20 -16z m-342 -20 c4 2
5 -35 2 -82 -9 -148 -8 -149 93 -208 81 -47 147 -68 130 -41 -4 6 -1 7 7 2 10
-6 8 -12 -7 -24 -12 -9 -23 -23 -27 -31 -3 -8 -4 -5 -2 8 2 12 0 22 -4 22 -5
0 -52 25 -104 55 l-96 56 -82 -47 c-105 -60 -117 -70 -113 -100 1 -13 -1 -27
-5 -29 -4 -2 -6 6 -5 18 1 12 -4 32 -11 43 -11 19 -11 21 4 18 13 -4 176 79
200 101 2 2 3 54 3 117 0 95 -2 115 -16 123 -38 23 -47 35 -12 16 21 -12 42
-19 45 -17z m62 31 c0 -2 -10 -9 -22 -15 -22 -11 -22 -10 -4 4 21 17 26 19 26
11z m430 0 c0 -2 -13 -11 -30 -20 -38 -19 -40 -11 -2 9 31 17 32 18 32 11z
m440 0 c0 -2 -10 -9 -22 -15 -22 -11 -22 -10 -4 4 21 17 26 19 26 11z m-180
-31 c0 -2 -9 0 -20 6 -11 6 -20 13 -20 16 0 2 9 0 20 -6 11 -6 20 -13 20 -16z
m130 1 c0 -2 -10 -9 -22 -15 -22 -11 -22 -10 -4 4 21 17 26 19 26 11z m-470
-122 l-5 -118 -3 104 c-2 92 1 131 10 131 2 0 1 -53 -2 -117z m368 31 l-3 -69
-5 77 c-3 42 -1 73 3 69 4 -4 7 -39 5 -77z m380 -31 c-3 -90 -4 -96 -28 -110
-25 -15 -25 -15 -2 2 20 16 22 26 22 108 0 73 -3 92 -17 104 -16 13 -16 13 5
3 22 -11 23 -16 20 -107z m-771 65 c-3 -8 -6 -5 -6 6 -1 11 2 17 5 13 3 -3 4
-12 1 -19z m-785 -186 c8 -9 7 -11 -6 -6 -12 4 -16 17 -14 48 1 40 1 40 5 6 3
-19 9 -41 15 -48z m1175 26 c-2 -13 -4 -5 -4 17 -1 22 1 32 4 23 2 -10 2 -28
0 -40z m93 -25 c0 -7 -39 17 -46 28 -3 6 5 3 20 -6 14 -10 26 -19 26 -22z
m-488 4 c-7 -8 -8 -18 -4 -22 4 -5 1 -5 -5 -1 -10 5 -10 11 -1 26 7 11 14 17
17 15 2 -3 -1 -11 -7 -18z m-817 -16 c-14 -13 -132 -76 -122 -66 7 9 118 74
127 75 2 0 0 -4 -5 -9z m915 -17 c0 -2 -9 0 -20 6 -11 6 -20 13 -20 16 0 2 9
0 20 -6 11 -6 20 -13 20 -16z m620 21 c0 -2 -10 -9 -22 -15 -22 -11 -22 -10
-4 4 21 17 26 19 26 11z m-1840 -31 c0 -2 -9 0 -20 6 -11 6 -20 13 -20 16 0 2
9 0 20 -6 11 -6 20 -13 20 -16z m1085 0 c-19 -14 -39 -9 -30 6 3 5 13 6 22 3
12 -5 14 -3 8 7 -6 9 -4 11 5 5 10 -6 9 -11 -5 -21z m650 -32 c-4 -4 -95 48
-95 55 0 2 22 -8 49 -24 28 -15 48 -29 46 -31z m-1315 22 c0 -2 -9 0 -20 6
-11 6 -20 13 -20 16 0 2 9 0 20 -6 11 -6 20 -13 20 -16z m780 0 c0 -2 -9 0
-20 6 -11 6 -20 13 -20 16 0 2 9 0 20 -6 11 -6 20 -13 20 -16z m346 14 c4 -6
3 -8 -3 -5 -6 4 -33 -5 -59 -20 -56 -30 -53 -21 4 13 44 26 49 27 58 12z
m-116 -3 c0 -2 -10 -9 -22 -15 -22 -11 -22 -10 -4 4 21 17 26 19 26 11z m360
0 c0 -2 -10 -9 -22 -15 -22 -11 -22 -10 -4 4 21 17 26 19 26 11z m-1720 -41
c0 -2 -9 0 -20 6 -11 6 -20 13 -20 16 0 2 9 0 20 -6 11 -6 20 -13 20 -16z
m955 6 c-3 -5 -13 -6 -22 -3 -12 5 -14 3 -8 -7 6 -9 4 -11 -5 -5 -10 6 -9 11
5 21 19 14 39 9 30 -6z m-535 -16 c0 -2 -9 0 -20 6 -11 6 -20 13 -20 16 0 2 9
0 20 -6 11 -6 20 -13 20 -16z m780 0 c0 -2 -9 0 -20 6 -11 6 -20 13 -20 16 0
2 9 0 20 -6 11 -6 20 -13 20 -16z m370 0 c0 -2 -9 0 -20 6 -11 6 -20 13 -20
16 0 2 9 0 20 -6 11 -6 20 -13 20 -16z m270 21 c0 -2 -10 -9 -22 -15 -22 -11
-22 -10 -4 4 21 17 26 19 26 11z m-557 -17 c-2 -5 -13 -8 -23 -8 -10 0 -21 3
-23 8 -3 4 8 7 23 7 15 0 26 -3 23 -7z m-1200 -16 c-12 -9 -24 -30 -26 -47
l-4 -30 -2 31 c0 16 -7 36 -13 43 -11 10 -10 11 4 6 9 -4 25 -2 35 4 27 16 31
13 6 -7z m1537 -18 c0 -2 -9 0 -20 6 -11 6 -20 13 -20 16 0 2 9 0 20 -6 11 -6
20 -13 20 -16z m170 21 c0 -2 -10 -9 -22 -15 -22 -11 -22 -10 -4 4 21 17 26
19 26 11z m-153 -137 c-2 -24 -4 -7 -4 37 0 44 2 63 4 43 2 -21 2 -57 0 -80z
m-350 50 c-3 -8 -6 -5 -6 6 -1 11 2 17 5 13 3 -3 4 -12 1 -19z m-420 -10 c-3
-8 -6 -5 -6 6 -1 11 2 17 5 13 3 -3 4 -12 1 -19z m-810 -70 c-2 -18 -4 -6 -4
27 0 33 2 48 4 33 2 -15 2 -42 0 -60z m1660 10 c-3 -7 -5 -2 -5 12 0 14 2 19
5 13 2 -7 2 -19 0 -25z m-850 -40 c-2 -13 -4 -3 -4 22 0 25 2 35 4 23 2 -13 2
-33 0 -45z m-400 20 c-3 -8 -6 -5 -6 6 -1 11 2 17 5 13 3 -3 4 -12 1 -19z
m1170 -45 c-3 -10 -5 -4 -5 12 0 17 2 24 5 18 2 -7 2 -21 0 -30z m96 -1 c7 -9
6 -11 -7 -6 -9 3 -16 16 -15 28 0 14 2 16 6 6 3 -8 10 -21 16 -28z m-1655 -32
c4 0 17 -7 28 -15 16 -13 13 -13 -15 0 -27 13 -39 15 -60 6 -26 -11 -26 -11
-3 5 12 9 22 24 23 33 0 11 3 9 9 -6 5 -13 13 -23 18 -23z m1223 23 c13 -16
12 -17 -3 -4 -17 13 -22 21 -14 21 2 0 10 -8 17 -17z m-827 -12 c3 -5 47 -32
97 -60 l91 -52 44 26 c24 14 44 21 44 16 0 -11 -55 -43 -82 -48 -9 -1 -59 23
-112 53 -60 35 -102 54 -112 50 -14 -5 -15 -4 -4 9 14 17 26 19 34 6z m436
-17 c0 -2 -9 0 -20 6 -11 6 -20 13 -20 16 0 2 9 0 20 -6 11 -6 20 -13 20 -16z
m-64 -9 c-10 -8 -23 -12 -27 -9 -5 3 -9 1 -9 -4 0 -5 -11 -14 -25 -20 -14 -6
-25 -8 -25 -4 0 13 91 65 100 56 3 -3 -4 -12 -14 -19z m534 -11 c0 -2 -9 0
-20 6 -11 6 -20 13 -20 16 0 2 9 0 20 -6 11 -6 20 -13 20 -16z m-960 11 c0 -2
-13 -11 -30 -20 -38 -19 -40 -11 -2 9 31 17 32 18 32 11z m540 -21 c0 -2 -9 0
-20 6 -11 6 -20 13 -20 16 0 2 9 0 20 -6 11 -6 20 -13 20 -16z m880 0 c0 -2
-9 0 -20 6 -11 6 -20 13 -20 16 0 2 9 0 20 -6 11 -6 20 -13 20 -16z m-1840 11
c0 -2 -10 -9 -22 -15 -22 -11 -22 -10 -4 4 21 17 26 19 26 11z m1269 1 c-2 -2
-15 -9 -29 -15 -24 -11 -24 -11 -6 3 16 13 49 24 35 12z m281 -1 c0 -2 -10 -9
-22 -15 -22 -11 -22 -10 -4 4 21 17 26 19 26 11z m-1315 -68 c6 -6 -12 2 -40
18 -27 15 -54 32 -60 38 -5 6 13 -2 40 -18 28 -15 55 -32 60 -38z m1105 27 c0
-2 -13 2 -30 11 -16 9 -30 18 -30 21 0 2 14 -2 30 -11 17 -9 30 -18 30 -21z
m110 0 c0 -2 -13 2 -30 11 -16 9 -30 18 -30 21 0 2 14 -2 30 -11 17 -9 30 -18
30 -21z m-300 21 c0 -2 -10 -9 -22 -15 -22 -11 -22 -10 -4 4 21 17 26 19 26
11z m-1205 -15 c-3 -5 -12 -10 -18 -10 -7 0 -6 4 3 10 19 12 23 12 15 0z
m1085 -16 c0 -2 -9 0 -20 6 -11 6 -20 13 -20 16 0 2 9 0 20 -6 11 -6 20 -13
20 -16z m620 21 c0 -2 -10 -9 -22 -15 -22 -11 -22 -10 -4 4 21 17 26 19 26 11z
m-460 -10 c0 -2 -10 -9 -22 -15 -22 -11 -22 -10 -4 4 21 17 26 19 26 11z m540
-21 c0 -2 -9 0 -20 6 -11 6 -20 13 -20 16 0 2 9 0 20 -6 11 -6 20 -13 20 -16z
m-685 -24 c3 -5 -10 -1 -29 11 -20 12 -36 23 -36 25 0 7 58 -25 65 -36z m555
25 c0 -2 -10 -9 -22 -15 -22 -11 -22 -10 -4 4 21 17 26 19 26 11z m180 -31 c0
-2 -9 0 -20 6 -11 6 -20 13 -20 16 0 2 9 0 20 -6 11 -6 20 -13 20 -16z m-665
6 c-3 -5 -12 -10 -18 -10 -7 0 -6 4 3 10 19 12 23 12 15 0z m435 -5 c0 -2 -10
-9 -22 -15 -22 -11 -22 -10 -4 4 21 17 26 19 26 11z"/>
</g>
</svg>
