<?xml version="1.0" standalone="no"?>
<!DOCTYPE svg PUBLIC "-//W3C//DTD SVG 20010904//EN"
 "http://www.w3.org/TR/2001/REC-SVG-20010904/DTD/svg10.dtd">
<svg version="1.0" xmlns="http://www.w3.org/2000/svg"
 width="200.000000pt" height="200.000000pt" viewBox="0 0 200.000000 200.000000"
 preserveAspectRatio="xMidYMid meet">
<metadata>
Created by potrace 1.16, written by Peter Selinger 2001-2019
</metadata>
<g transform="translate(0.000000,200.000000) scale(0.100000,-0.100000)"
fill="#000000" stroke="none">
<path d="M2 1960 c1 -21 5 -37 8 -35 4 3 13 -2 19 -9 10 -12 8 -13 -8 -9 -19
5 -21 1 -21 -36 0 -31 3 -40 13 -35 9 6 9 4 -1 -8 -14 -18 -15 -151 -1 -142 5
3 7 10 4 15 -3 5 1 6 10 2 12 -4 13 -8 4 -13 -6 -5 -9 -15 -6 -24 4 -9 2 -16
-2 -16 -5 0 -12 6 -14 13 -3 6 -6 -11 -6 -39 -1 -27 5 -56 12 -63 9 -11 9 -13
0 -7 -10 5 -13 -4 -13 -33 0 -35 3 -39 20 -36 11 2 18 0 15 -6 -4 -5 -12 -9
-19 -9 -10 0 -13 -29 -14 -120 0 -98 2 -120 14 -120 8 0 14 -5 14 -11 0 -6 -7
-9 -15 -5 -12 4 -15 -3 -15 -37 0 -24 6 -49 13 -56 9 -11 9 -13 0 -7 -10 5
-13 -5 -13 -39 0 -28 4 -44 10 -40 5 3 10 1 10 -6 0 -6 7 -17 16 -24 15 -11
15 -12 -5 -18 -16 -4 -21 -1 -22 16 -1 18 -2 19 -6 4 -3 -10 1 -25 9 -34 9
-12 9 -15 1 -9 -10 5 -13 -5 -13 -39 0 -25 4 -44 9 -41 5 3 11 -3 14 -14 6
-22 -8 -28 -16 -7 -3 6 -6 -9 -6 -35 -1 -38 2 -46 14 -42 8 4 15 1 15 -5 0 -6
-7 -11 -15 -11 -18 0 -19 -11 -3 -29 10 -11 10 -13 1 -7 -10 6 -13 -16 -12
-98 2 -92 4 -104 19 -101 9 2 17 -3 17 -10 0 -7 -8 -10 -19 -7 -15 4 -18 -2
-18 -37 0 -31 3 -40 13 -35 9 6 9 5 0 -7 -16 -20 -16 -248 0 -268 9 -12 9 -13
-1 -7 -9 5 -12 -3 -12 -33 0 -33 3 -39 18 -36 11 2 19 -3 19 -10 0 -7 -8 -12
-17 -10 -13 3 -17 -5 -18 -36 -2 -38 -1 -39 34 -39 19 0 33 4 30 9 -3 5 1 11
9 15 9 3 12 12 9 23 -4 11 -3 14 3 7 4 -6 15 -14 23 -17 12 -4 11 -6 -2 -6
-10 -1 -18 -7 -18 -15 0 -12 22 -15 111 -15 85 -1 110 2 106 11 -2 7 -13 12
-23 11 -18 -1 -18 -1 0 13 25 18 37 18 30 -1 -4 -9 0 -15 10 -15 9 0 16 -4 16
-10 0 -6 31 -10 73 -10 39 0 66 4 59 8 -8 6 0 14 25 25 33 15 35 15 16 1 -13
-9 -23 -20 -23 -25 0 -4 54 -8 120 -7 66 0 117 5 114 9 -3 5 0 9 5 9 6 0 11
-4 11 -10 0 -6 29 -10 66 -10 36 0 63 4 60 9 -3 5 1 11 9 15 8 3 13 11 11 18
-1 7 -1 10 1 6 3 -5 12 -8 21 -8 15 -1 15 -2 0 -11 -37 -21 -15 -28 92 -28
101 0 136 10 94 26 -13 5 -13 7 -2 14 20 13 28 11 22 -6 -4 -10 0 -15 11 -15
9 0 13 -4 10 -10 -4 -6 18 -10 59 -10 37 0 66 4 66 10 0 6 7 10 16 10 10 0 14
6 11 14 -4 10 0 12 14 9 25 -7 34 -21 12 -19 -9 0 -18 -4 -20 -11 -3 -8 26
-12 106 -12 106 0 130 7 95 27 -14 8 -13 10 5 15 12 3 18 1 15 -4 -3 -5 2 -12
10 -15 9 -3 13 -10 10 -15 -3 -5 24 -9 60 -9 36 0 66 4 66 9 0 5 10 11 22 15
22 5 22 6 3 21 -19 14 -18 15 8 3 23 -9 25 -13 12 -20 -36 -21 -10 -28 95 -27
61 0 110 4 110 9 0 4 -9 14 -21 21 -20 14 -20 14 4 14 14 0 23 -3 20 -8 -2 -4
3 -10 12 -13 13 -6 14 -8 3 -15 -8 -6 2 -9 30 -9 36 0 42 3 42 21 0 11 -9 34
-20 49 l-21 29 21 -4 c17 -3 20 1 20 36 0 22 -4 38 -9 35 -5 -3 -11 3 -14 14
-6 22 8 28 16 8 3 -7 6 9 6 35 1 30 -3 46 -9 42 -5 -3 -10 4 -10 16 0 16 -5
20 -20 16 -11 -3 -18 -1 -14 4 3 5 12 9 20 9 8 0 14 10 14 23 0 18 2 19 10 7
7 -11 10 1 10 40 0 30 -4 50 -8 44 -4 -6 -16 -14 -27 -17 -19 -7 -19 -6 -2 7
9 7 17 19 17 25 0 7 5 9 10 6 6 -4 10 10 10 34 0 34 -3 39 -20 36 -17 -3 -18
-1 -8 15 7 10 15 17 18 15 3 -2 7 41 8 97 2 79 0 98 -10 92 -10 -5 -11 -4 0 7
16 18 15 29 -3 29 -8 0 -15 5 -15 11 0 6 7 9 15 5 12 -4 15 4 14 42 0 26 -3
41 -6 35 -8 -21 -22 -15 -16 7 3 11 9 17 14 14 5 -3 9 16 9 41 0 28 -4 44 -10
40 -5 -3 -10 1 -10 9 0 9 -7 16 -15 16 -8 0 -15 5 -15 10 0 6 7 10 15 10 8 0
15 7 15 16 0 8 5 12 10 9 6 -4 10 12 10 40 0 25 -4 44 -9 41 -5 -3 -11 3 -14
14 -6 22 8 28 16 8 3 -7 6 6 6 30 1 31 -3 42 -14 42 -8 0 -15 5 -15 10 0 6 6
10 14 10 11 0 14 23 15 104 2 101 1 104 -28 135 -16 17 -25 31 -21 31 5 0 12
-4 15 -10 3 -5 13 -10 21 -10 10 0 14 12 14 43 0 27 -3 37 -9 29 -6 -10 -10
-7 -13 13 -4 19 -2 25 8 21 11 -4 14 6 13 42 0 26 -3 41 -6 35 -7 -19 -21 -16
-19 5 0 10 -6 16 -16 16 -10 -1 -15 2 -12 7 3 5 12 9 20 9 8 0 14 10 14 23 0
18 2 19 10 7 7 -11 10 -2 10 33 0 28 -4 46 -9 42 -6 -3 -9 3 -8 14 0 11 5 17
9 15 4 -3 8 33 7 80 l-1 86 -35 0 c-19 0 -32 -4 -29 -9 3 -5 -1 -12 -10 -15
-8 -3 -13 -9 -11 -13 3 -5 -6 -8 -20 -8 -24 0 -24 0 -4 14 12 7 21 17 21 21 0
4 -50 8 -111 9 -82 0 -109 -3 -106 -12 2 -7 13 -11 23 -10 18 1 18 1 0 -13
-22 -16 -40 -19 -32 -5 4 5 3 17 0 26 -5 13 -8 14 -15 3 -7 -10 -9 -10 -9 0 0
8 -21 12 -72 12 -44 0 -68 -4 -60 -9 11 -7 10 -9 -3 -15 -9 -3 -14 -9 -12 -13
3 -5 -6 -8 -20 -8 -24 0 -24 0 -4 14 12 7 21 17 21 21 0 5 -50 9 -111 9 -80 0
-109 -4 -106 -12 2 -7 13 -11 23 -10 18 1 18 1 0 -13 -25 -18 -37 -18 -30 1 4
9 0 15 -10 15 -9 0 -16 5 -16 10 0 6 -27 10 -60 10 -33 0 -60 -4 -60 -10 0 -5
-7 -10 -16 -10 -10 0 -14 -6 -10 -15 6 -17 -2 -19 -22 -6 -11 7 -11 9 2 14 42
16 7 26 -94 26 -101 0 -136 -10 -94 -26 13 -5 13 -7 2 -14 -17 -11 -31 -11
-24 -1 3 5 -4 16 -15 25 -21 19 -129 24 -129 7 0 -5 -7 -10 -16 -10 -10 0 -14
-6 -10 -15 6 -17 -2 -19 -22 -6 -11 7 -11 9 2 14 42 16 7 26 -94 26 -105 0
-129 -7 -94 -27 14 -8 13 -10 -5 -15 -12 -3 -18 -1 -15 4 3 5 -2 12 -10 15 -9
3 -13 10 -10 15 3 5 -29 9 -73 9 -54 0 -73 -3 -63 -10 13 -8 12 -10 -2 -10
-21 0 -23 -11 -5 -29 7 -8 0 -7 -20 3 -37 18 -41 24 -17 22 9 0 19 5 21 12 4
9 -21 12 -106 11 -89 0 -111 -3 -111 -15 0 -8 6 -14 14 -14 8 0 17 -3 19 -7 3
-5 -6 -8 -19 -8 -13 0 -24 6 -24 13 0 6 -5 12 -11 12 -5 0 -7 5 -4 10 4 6 -8
10 -29 10 -35 0 -36 -1 -34 -40z m412 -16 c3 -8 2 -13 -3 -10 -5 3 -11 -1 -15
-9 -3 -8 -11 -15 -17 -15 -8 0 -8 4 1 15 6 8 9 19 5 25 -3 5 0 10 8 10 8 0 18
-7 21 -16z m396 6 c0 -5 -4 -10 -10 -10 -5 0 -10 5 -10 10 0 6 5 10 10 10 6 0
10 -4 10 -10z m400 0 c0 -5 -4 -10 -10 -10 -5 0 -10 5 -10 10 0 6 5 10 10 10
6 0 10 -4 10 -10z m400 0 c0 -5 -4 -10 -10 -10 -5 0 -10 -8 -10 -18 0 -10 -6
-19 -13 -19 -8 0 -14 6 -14 13 0 7 4 11 8 8 4 -2 10 5 14 16 7 20 25 28 25 10z
m-1404 -26 c10 4 15 4 11 0 -4 -4 -1 -14 6 -23 11 -14 10 -14 -5 -2 -14 10
-21 11 -32 2 -11 -9 -13 -6 -13 15 0 16 2 21 7 14 5 -8 15 -10 26 -6z m379 5
c4 -6 13 -8 20 -5 7 2 15 -4 18 -15 4 -17 3 -18 -9 -8 -11 9 -17 9 -29 -1 -10
-9 -15 -9 -15 -1 0 6 5 11 12 11 6 0 3 7 -8 15 -10 8 -14 15 -7 15 6 0 15 -5
18 -11z m445 -4 c-6 -8 -8 -20 -4 -27 6 -10 3 -9 -9 1 -14 11 -20 11 -32 1 -9
-7 -18 -10 -22 -6 -3 3 -1 6 5 6 7 0 12 7 12 16 0 8 4 12 10 9 5 -3 18 -1 27
4 25 14 27 13 13 -4z m355 5 c4 -6 15 -8 26 -5 14 5 17 3 13 -9 -4 -10 -1 -16
7 -16 7 0 9 -3 6 -6 -4 -4 -13 -1 -22 6 -12 10 -18 10 -30 0 -13 -11 -14 -10
-9 5 4 10 1 21 -7 26 -9 6 -10 9 -2 9 6 0 15 -5 18 -10z m-955 -15 c-7 -9 -15
-13 -19 -10 -3 3 1 10 9 15 21 14 24 12 10 -5z m364 3 c-3 -4 -9 -8 -15 -8 -5
0 -9 4 -9 8 0 5 7 9 15 9 8 0 12 -4 9 -9z m36 -3 c11 -13 10 -14 -4 -9 -9 3
-16 10 -16 15 0 13 6 11 20 -6z m393 7 c4 -1 7 -7 7 -13 0 -8 -5 -7 -16 2 -9
7 -18 9 -22 3 -11 -14 -29 -14 -29 0 0 11 27 14 60 8z m414 -6 c0 -6 -8 -12
-17 -12 -9 0 -17 5 -17 11 0 6 8 12 17 12 9 1 17 -4 17 -11z m190 -8 c2 -16
-1 -17 -13 -8 -11 10 -17 10 -28 1 -12 -10 -14 -9 -10 6 7 26 49 26 51 1z
m163 11 c0 -4 -6 -9 -13 -12 -8 -3 -14 0 -14 7 0 7 6 13 14 13 7 0 13 -4 13
-8z m-1100 -45 c0 -2 -9 0 -20 6 -11 6 -20 13 -20 16 0 2 9 0 20 -6 11 -6 20
-13 20 -16z m-800 4 c0 -4 -4 -8 -9 -8 -6 0 -12 4 -15 8 -3 5 1 9 9 9 8 0 15
-4 15 -9z m637 -3 c0 -8 -4 -12 -9 -9 -5 3 -16 0 -24 -7 -8 -6 -17 -9 -20 -6
-4 4 20 21 52 37 0 0 1 -7 1 -15z m593 -17 c0 -5 -11 -1 -25 8 -14 9 -25 18
-25 20 0 2 11 -2 25 -8 14 -6 25 -15 25 -20z m380 17 c0 -2 -6 -5 -13 -8 -8
-3 -14 1 -14 8 0 7 6 11 14 8 7 -3 13 -6 13 -8z m-1374 -7 c4 -7 3 -8 -5 -4
-6 4 -18 2 -26 -4 -9 -8 -15 -8 -15 -2 0 9 15 19 32 21 4 1 10 -4 14 -11z
m799 2 c3 -5 0 -7 -8 -4 -8 3 -18 1 -22 -5 -3 -6 -12 -11 -18 -11 -7 0 -3 7 7
15 23 18 33 19 41 5z m-1005 -10 c0 -5 -2 -10 -4 -10 -3 0 -8 5 -11 10 -3 6
-1 10 4 10 6 0 11 -4 11 -10z m400 0 c0 -5 -2 -10 -4 -10 -3 0 -8 5 -11 10 -3
6 -1 10 4 10 6 0 11 -4 11 -10z m400 0 c0 -5 -2 -10 -4 -10 -3 0 -8 5 -11 10
-3 6 -1 10 4 10 6 0 11 -4 11 -10z m580 5 c0 -2 -10 -10 -22 -16 -21 -11 -22
-11 -9 4 13 16 31 23 31 12z m225 -5 c3 -5 1 -10 -4 -10 -6 0 -11 5 -11 10 0
6 2 10 4 10 3 0 8 -4 11 -10z m175 6 c0 -3 -4 -8 -10 -11 -5 -3 -10 -1 -10 4
0 6 5 11 10 11 6 0 10 -2 10 -4z m-1658 -36 c-23 -22 -32 -25 -32 -12 0 5 10
14 23 20 32 15 33 14 9 -8z m588 5 c-6 -8 -8 -20 -4 -27 6 -10 3 -9 -9 1 -14
11 -20 11 -32 1 -9 -7 -18 -10 -22 -6 -3 3 -1 6 6 6 8 0 11 6 7 16 -4 11 -1
14 12 10 9 -3 24 -1 32 4 21 14 24 12 10 -5z m-406 -17 c5 -20 -10 -25 -17 -5
-4 10 -7 10 -18 0 -18 -17 -34 -17 -20 0 6 8 9 16 7 18 -2 2 6 4 19 4 14 0 26
-7 29 -17z m802 1 c0 -13 -3 -15 -13 -7 -9 7 -17 7 -26 0 -10 -8 -13 -6 -13 7
0 12 8 18 26 18 18 0 26 -6 26 -18z m400 13 c-3 -3 -1 -11 5 -19 14 -17 -2
-17 -20 0 -11 10 -14 10 -18 0 -7 -20 -22 -15 -17 5 3 10 16 18 30 18 14 1 23
-1 20 -4z m-1436 -12 c0 -5 -7 -10 -16 -10 -8 0 -12 5 -9 10 3 6 10 10 16 10
5 0 9 -4 9 -10z m405 0 c3 -5 -1 -10 -9 -10 -9 0 -16 5 -16 10 0 6 4 10 9 10
6 0 13 -4 16 -10z m35 0 c0 -5 -4 -10 -10 -10 -5 0 -10 5 -10 10 0 6 5 10 10
10 6 0 10 -4 10 -10z m400 -2 c0 -4 -13 -8 -30 -8 -16 0 -30 4 -30 8 0 5 14 9
30 9 17 0 30 -4 30 -9z m405 0 c3 -3 -14 -7 -39 -9 -32 -3 -42 -1 -35 7 10 12
63 14 74 2z m355 2 c0 -5 -4 -10 -10 -10 -5 0 -10 5 -10 10 0 6 5 10 10 10 6
0 10 -4 10 -10z m45 0 c3 -5 -1 -10 -9 -10 -9 0 -16 -7 -16 -15 0 -8 -4 -15
-10 -15 -13 0 -13 6 2 30 14 22 24 25 33 10z m-1810 -10 c3 -5 1 -10 -4 -10
-6 0 -11 5 -11 10 0 6 2 10 4 10 3 0 8 -4 11 -10z m185 -20 c0 -5 -4 -10 -9
-10 -6 0 -13 5 -16 10 -3 6 1 10 9 10 9 0 16 -4 16 -10z m400 1 c0 -5 -9 -11
-19 -14 -14 -3 -18 -1 -14 9 6 15 33 19 33 5z m400 -1 c0 -5 -4 -10 -10 -10
-5 0 -10 5 -10 10 0 6 5 10 10 10 6 0 10 -4 10 -10z m400 0 c0 -5 -5 -10 -11
-10 -5 0 -7 5 -4 10 3 6 8 10 11 10 2 0 4 -4 4 -10z m-1294 -17 c0 -10 5 -17
12 -15 20 4 13 -15 -8 -21 -11 -3 -17 -1 -14 4 3 5 -2 12 -10 15 -12 5 -13 9
-3 20 17 18 25 17 23 -3z m197 4 c4 3 7 1 7 -5 0 -7 -7 -12 -15 -12 -18 0 -19
-12 -2 -29 10 -10 6 -10 -17 0 -15 7 -23 15 -17 17 6 2 11 13 11 24 0 16 3 18
13 9 8 -6 17 -8 20 -4z m201 2 c-4 -7 3 -19 15 -28 l21 -16 -24 0 c-13 0 -22
3 -19 8 2 4 -3 10 -12 13 -14 6 -14 8 2 20 22 17 26 17 17 3z m182 -16 c-4 -9
-1 -22 6 -30 10 -12 8 -12 -15 -2 -24 11 -25 13 -10 24 10 7 13 17 8 25 -6 9
-4 11 4 6 7 -5 10 -15 7 -23z m218 12 c-4 -9 1 -18 11 -21 13 -5 14 -9 3 -15
-21 -14 -24 -11 -22 19 2 30 2 32 9 32 2 0 2 -7 -1 -15z m199 2 c4 3 7 1 7 -5
0 -7 -7 -12 -16 -12 -10 0 -14 -6 -10 -15 6 -17 -2 -19 -22 -6 -11 6 -10 10 3
15 11 4 15 12 11 22 -5 13 -4 14 7 6 8 -7 17 -9 20 -5z m203 -4 c-1 -12 6 -17
19 -16 20 1 20 1 1 -13 -25 -18 -37 -18 -30 1 4 9 0 15 -10 15 -9 0 -16 5 -16
11 0 5 4 8 9 4 5 -3 12 -1 16 5 9 15 13 12 11 -7z m204 -4 c0 -5 -7 -9 -16 -9
-10 0 -14 -6 -11 -14 4 -10 0 -12 -14 -9 -18 5 -18 6 -3 18 10 6 14 17 11 23
-5 6 0 8 13 5 11 -3 20 -9 20 -14z m195 12 c-3 -5 1 -16 10 -24 13 -13 13 -16
0 -21 -9 -3 -15 0 -15 9 0 8 -7 15 -15 15 -8 0 -15 5 -15 11 0 5 4 8 9 4 5 -3
12 -1 16 5 3 5 8 10 11 10 3 0 3 -4 -1 -9z m195 -1 c13 -9 13 -12 -3 -21 -9
-6 -15 -14 -12 -19 3 -4 -4 -6 -15 -3 -26 7 -35 21 -12 19 10 0 16 6 16 17 -2
19 4 21 26 7z m-1880 -44 c0 -3 -4 -8 -10 -11 -5 -3 -10 -1 -10 4 0 6 5 11 10
11 6 0 10 -2 10 -4z m384 -7 c12 10 13 8 9 -8 -4 -15 -1 -21 10 -21 9 0 18 -4
21 -9 4 -5 -4 -7 -16 -3 -18 4 -20 2 -16 -16 6 -23 -7 -31 -15 -9 -4 10 -7 10
-18 0 -17 -17 -37 -17 -21 -1 10 10 8 16 -10 30 -21 15 -21 16 -3 15 15 -2 19
3 17 17 -3 17 -2 18 12 7 12 -10 19 -11 30 -2z m374 -1 c8 -8 15 -8 26 1 11 9
14 8 12 -6 -1 -12 5 -17 19 -16 18 1 17 0 -4 -16 -16 -12 -21 -23 -16 -32 8
-12 6 -12 -8 0 -14 11 -20 11 -32 1 -13 -11 -14 -10 -9 4 4 10 0 18 -10 22
-15 6 -15 8 1 20 16 12 16 15 3 24 -8 5 -10 10 -4 10 5 0 15 -5 22 -12z m426
1 c11 9 14 8 12 -6 -1 -12 5 -17 19 -16 18 1 17 0 -4 -16 -16 -12 -21 -23 -16
-32 8 -12 6 -12 -8 0 -13 10 -20 11 -31 2 -11 -9 -14 -8 -12 6 0 11 -5 18 -15
17 -9 -1 -16 4 -16 11 0 7 7 12 16 11 10 -1 15 6 15 17 -2 14 1 15 12 6 11 -9
17 -9 28 0z m398 -1 c7 7 17 12 22 12 6 0 4 -6 -2 -12 -10 -10 -8 -16 10 -30
21 -15 21 -16 3 -15 -14 1 -20 -4 -19 -16 2 -14 -1 -15 -12 -6 -11 9 -17 9
-28 0 -12 -10 -13 -9 -9 7 3 14 11 18 25 14 15 -4 19 -1 16 9 -3 8 -12 13 -21
13 -8 -1 -18 7 -20 18 -5 16 -3 17 9 7 11 -9 18 -9 26 -1z m-1402 -12 c0 -3
-4 -8 -10 -11 -5 -3 -10 -1 -10 4 0 6 5 11 10 11 6 0 10 -2 10 -4z m400 0 c0
-3 -4 -8 -10 -11 -5 -3 -10 -1 -10 4 0 6 5 11 10 11 6 0 10 -2 10 -4z m400 0
c0 -3 -4 -8 -10 -11 -5 -3 -10 -1 -10 4 0 6 5 11 10 11 6 0 10 -2 10 -4z m400
-6 c0 -5 -2 -10 -4 -10 -3 0 -8 5 -11 10 -3 6 -1 10 4 10 6 0 11 -4 11 -10z
m160 -15 c0 -2 -6 -5 -13 -8 -8 -3 -14 1 -14 8 0 7 6 11 14 8 7 -3 13 -6 13
-8z m-1365 -15 c3 -5 -1 -10 -10 -10 -9 0 -13 5 -10 10 3 6 8 10 10 10 2 0 7
-4 10 -10z m400 0 c3 -5 -1 -10 -10 -10 -9 0 -13 5 -10 10 3 6 8 10 10 10 2 0
7 -4 10 -10z m400 0 c3 -5 1 -10 -4 -10 -6 0 -11 5 -11 10 0 6 2 10 4 10 3 0
8 -4 11 -10z m410 0 c3 -6 -4 -10 -17 -10 -18 0 -20 2 -8 10 19 12 18 12 25 0z
m400 0 c3 -5 -1 -10 -10 -10 -9 0 -13 5 -10 10 3 6 8 10 10 10 2 0 7 -4 10
-10z m-1672 -37 c-3 -7 -10 -11 -16 -10 -7 1 -11 -6 -11 -15 1 -10 -2 -18 -7
-18 -5 0 -8 12 -7 28 1 20 7 27 24 27 13 0 20 -5 17 -12z m162 -13 c7 0 15 -6
18 -12 3 -8 -4 -13 -19 -13 -16 0 -24 6 -24 18 0 9 -6 17 -12 17 -9 0 -8 4 2
10 11 7 16 5 18 -5 2 -8 9 -15 17 -15z m219 5 c-10 -6 -14 -17 -10 -23 8 -14
-3 -15 -22 -3 -11 6 -10 10 3 15 9 3 15 12 12 20 -4 10 0 12 14 9 18 -5 18 -6
3 -18z m170 10 c-4 -9 0 -15 10 -15 9 0 16 -5 16 -12 0 -6 -3 -8 -7 -5 -3 4
-12 2 -20 -5 -11 -8 -12 -7 -7 6 4 10 0 18 -11 22 -13 5 -14 9 -3 15 20 13 28
11 22 -6z m230 -10 c-10 -6 -14 -17 -11 -23 5 -6 -1 -8 -14 -5 -21 6 -21 7 -4
19 9 7 14 17 11 22 -4 6 2 8 14 5 19 -5 19 -6 4 -18z m172 8 c0 -10 5 -17 12
-15 20 4 14 -15 -7 -21 -14 -3 -18 -1 -14 9 3 8 -3 17 -12 20 -13 5 -14 9 -3
15 20 13 26 11 24 -8z m232 8 c11 -6 10 -10 -3 -15 -9 -3 -15 -12 -12 -20 4
-10 0 -12 -14 -9 -23 6 -25 23 -3 23 10 0 14 6 10 15 -6 17 2 19 22 6z m166
-6 c-4 -9 0 -15 10 -15 9 0 16 -4 16 -10 0 -5 -2 -10 -4 -10 -2 0 -12 -3 -20
-6 -12 -5 -15 -2 -10 10 4 10 -1 18 -12 23 -16 6 -16 7 2 14 10 4 20 8 21 8 1
1 0 -6 -3 -14z m242 0 c16 -13 16 -14 2 -9 -14 5 -18 1 -18 -16 0 -18 -3 -20
-13 -11 -8 6 -17 8 -20 4 -4 -3 -7 -1 -7 5 0 7 7 12 16 12 10 0 14 6 10 15 -7
19 5 19 30 0z m159 6 c-3 -5 2 -17 11 -25 8 -9 13 -16 11 -16 -3 0 -12 -3 -20
-6 -12 -4 -14 0 -10 17 5 18 3 21 -10 16 -10 -4 -17 -2 -17 3 0 5 8 11 18 13
9 3 18 5 20 6 2 0 1 -3 -3 -8z m-1689 -56 c-3 -9 0 -15 8 -15 8 0 16 -7 19
-15 5 -11 1 -12 -16 -6 -12 4 -28 6 -34 4 -7 -3 -13 0 -13 6 0 6 5 11 10 11 6
0 10 7 10 15 0 8 5 15 11 15 6 0 9 -7 5 -15z m404 5 c0 -5 -4 -10 -10 -10 -5
0 -10 5 -10 10 0 6 5 10 10 10 6 0 10 -4 10 -10z m400 0 c0 -5 -4 -10 -10 -10
-5 0 -10 5 -10 10 0 6 5 10 10 10 6 0 10 -4 10 -10z m400 0 c0 -5 -4 -10 -10
-10 -5 0 -10 5 -10 10 0 6 5 10 10 10 6 0 10 -4 10 -10z m400 0 c0 -5 -4 -10
-10 -10 -5 0 -10 5 -10 10 0 6 5 10 10 10 6 0 10 -4 10 -10z m-1255 -18 c-3
-3 -11 0 -18 7 -9 10 -8 11 6 5 10 -3 15 -9 12 -12z m673 4 c21 13 23 13 8 1
-10 -9 -16 -20 -12 -25 3 -5 -8 -9 -24 -9 -16 0 -27 4 -24 9 4 5 -2 16 -12 25
-15 12 -13 12 9 -1 25 -15 29 -15 55 0z m-1198 0 c0 -3 -4 -8 -10 -11 -5 -3
-10 -1 -10 4 0 6 5 11 10 11 6 0 10 -2 10 -4z m359 -8 c11 -10 14 -10 18 0 7
19 22 14 17 -5 -3 -11 -15 -18 -29 -18 -13 0 -21 2 -19 4 2 2 -1 10 -7 18 -14
17 2 17 20 1z m437 -6 c0 -14 -8 -19 -27 -19 -18 0 -25 5 -22 13 2 7 11 10 18
8 7 -3 16 -1 20 5 9 15 11 14 11 -7z m215 4 c-7 -8 -8 -16 -4 -18 4 -3 1 -2
-7 0 -8 3 -26 5 -39 5 -32 -1 -13 14 24 20 17 2 32 5 34 6 2 0 -2 -5 -8 -13z
m573 3 c11 9 14 6 14 -14 0 -20 -3 -23 -14 -14 -7 6 -17 8 -22 5 -6 -3 -12 3
-15 15 -4 16 -3 18 9 8 10 -9 17 -9 28 0z m-1019 -9 c-3 -5 -10 -10 -16 -10
-5 0 -9 5 -9 10 0 6 7 10 16 10 8 0 12 -4 9 -10z m41 -5 c17 -16 14 -18 -10
-9 -9 3 -16 10 -16 15 0 13 9 11 26 -6z m754 5 c0 -5 -4 -10 -10 -10 -5 0 -10
5 -10 10 0 6 5 10 10 10 6 0 10 -4 10 -10z m40 0 c0 -5 -4 -10 -9 -10 -6 0
-13 5 -16 10 -3 6 1 10 9 10 9 0 16 -4 16 -10z m400 -1 c0 -6 -7 -8 -16 -5 -8
3 -24 1 -34 -4 -16 -8 -18 -8 -14 5 7 17 64 21 64 4z m-870 -13 c0 -2 -18 -15
-40 -30 -22 -14 -40 -23 -40 -18 0 4 17 18 38 30 39 23 42 24 42 18z m-430
-21 c-7 -8 -18 -15 -24 -15 -6 0 -2 7 8 15 25 19 32 19 16 0z m1366 -13 c-4
-3 -14 2 -24 12 -16 18 -16 18 6 6 13 -6 21 -14 18 -18z m-1776 8 c0 -5 -5
-10 -11 -10 -5 0 -7 5 -4 10 3 6 8 10 11 10 2 0 4 -4 4 -10z m175 -1 c4 -6 13
-8 19 -6 7 3 13 -1 13 -8 0 -11 -6 -11 -29 1 -28 15 -36 24 -19 24 6 0 13 -5
16 -11z m400 0 c4 -6 13 -8 19 -6 7 3 13 -1 13 -8 0 -11 -6 -11 -29 1 -28 15
-36 24 -19 24 6 0 13 -5 16 -11z m421 -16 c-6 -6 -36 9 -36 18 0 5 9 4 20 -3
10 -7 18 -14 16 -15z m194 7 c-14 -10 -27 -17 -29 -14 -6 5 31 33 44 33 6 1
-1 -8 -15 -19z m185 10 c3 -5 2 -10 -4 -10 -5 0 -13 5 -16 10 -3 6 -2 10 4 10
5 0 13 -4 16 -10z m225 2 c0 -5 -12 -14 -27 -21 l-28 -12 25 21 c29 22 30 23
30 12z m-1630 -20 c0 -5 -7 -9 -15 -9 -8 0 -12 4 -9 9 3 4 9 8 15 8 5 0 9 -4
9 -8z m120 -27 c5 3 10 -1 10 -9 0 -9 -6 -13 -14 -10 -8 3 -17 1 -21 -5 -3 -6
-11 -11 -18 -11 -8 0 -8 3 0 11 6 6 9 19 5 28 -5 14 -3 14 11 3 9 -8 21 -11
27 -7z m400 0 c5 3 10 -1 10 -9 0 -9 -6 -13 -14 -10 -8 3 -17 1 -21 -5 -3 -6
-11 -11 -18 -11 -8 0 -8 3 0 11 6 6 9 19 5 28 -5 14 -3 14 11 3 9 -8 21 -11
27 -7z m378 3 c9 -9 15 -9 24 0 16 16 33 15 19 -1 -6 -8 -9 -16 -6 -19 3 -2
-8 -5 -25 -5 -16 0 -28 3 -25 5 3 3 0 11 -6 19 -14 16 3 17 19 1z m426 1 c11
9 14 6 14 -14 0 -20 -3 -23 -14 -14 -11 9 -18 8 -29 -1 -9 -7 -18 -10 -22 -6
-3 3 -1 6 6 6 8 0 10 7 5 22 -6 20 -5 21 10 9 12 -10 19 -11 30 -2z m418 -1
c-9 -9 -9 -15 1 -26 10 -13 9 -14 -10 -4 -28 16 -31 15 -36 -5 -3 -11 -5 -7
-6 10 -1 16 3 26 9 22 5 -3 18 -1 27 4 24 14 30 14 15 -1z m-1437 -8 c-8 -13
1 -13 24 -1 13 7 18 6 18 -3 0 -8 -15 -13 -41 -13 -37 -1 -38 0 -21 13 22 17
28 18 20 4z m430 -11 c-8 -13 -42 -11 -51 2 -4 8 0 9 15 4 13 -4 21 -2 21 5 0
6 5 8 10 5 6 -4 8 -11 5 -16z m366 7 c4 -4 17 -3 30 4 23 11 23 10 5 -4 -25
-20 -40 -20 -56 0 -11 12 -11 15 1 12 8 -2 17 -7 20 -12z m422 0 c8 3 18 0 23
-7 5 -8 2 -11 -8 -7 -8 4 -21 2 -29 -3 -10 -6 -10 -9 -1 -9 6 0 12 -4 12 -10
0 -18 -18 -10 -25 10 -4 11 -10 18 -14 16 -4 -3 -8 1 -8 9 0 10 5 11 18 4 10
-5 24 -6 32 -3z m-1503 -49 c11 -4 11 -6 -4 -6 -13 -1 -17 -6 -13 -21 6 -22 0
-25 -23 -10 -13 9 -13 12 2 20 10 6 15 18 12 28 -4 10 -3 13 3 6 4 -6 15 -14
23 -17z m300 13 c0 -5 -4 -10 -10 -10 -5 0 -10 5 -10 10 0 6 5 10 10 10 6 0
10 -4 10 -10z m98 -10 c13 0 13 -2 -3 -13 -10 -8 -15 -19 -11 -25 4 -7 3 -12
-3 -12 -6 0 -10 17 -9 37 1 21 3 32 6 25 2 -6 11 -12 20 -12z m302 10 c0 -5
-4 -10 -10 -10 -5 0 -10 5 -10 10 0 6 5 10 10 10 6 0 10 -4 10 -10z m400 0 c0
-5 -4 -10 -10 -10 -5 0 -10 5 -10 10 0 6 5 10 10 10 6 0 10 -4 10 -10z m-895
-24 c0 -13 -4 -28 -9 -33 -5 -5 -7 -1 -3 10 4 11 1 20 -9 24 -13 5 -13 7 -2
14 20 13 24 11 23 -15z m399 9 c-4 -9 0 -15 10 -15 9 0 16 -4 16 -10 0 -15 -9
-12 -36 9 -17 13 -20 21 -12 24 23 9 28 7 22 -8z m195 -6 c-12 -9 -19 -21 -15
-28 4 -6 2 -11 -3 -11 -6 0 -11 5 -11 11 0 5 -6 7 -12 3 -7 -4 -5 2 5 13 9 11
15 22 13 24 -2 2 7 4 20 4 l24 0 -21 -16z m205 6 c-4 -9 0 -15 10 -15 9 0 16
-5 16 -12 0 -6 -3 -8 -7 -5 -3 4 -12 2 -20 -5 -11 -8 -12 -7 -7 6 4 10 0 18
-11 22 -13 5 -14 9 -3 15 20 13 28 11 22 -6z m202 1 c19 -14 19 -14 -1 -13
-14 1 -20 -4 -19 -16 2 -13 -1 -15 -10 -7 -7 5 -16 7 -19 3 -4 -3 -7 -1 -7 5
0 7 7 12 16 12 10 0 14 6 10 15 -7 19 5 19 30 1z m197 1 c-2 -4 3 -10 11 -13
9 -3 16 -10 16 -16 0 -5 -4 -6 -10 -3 -5 3 -10 1 -10 -4 0 -6 -5 -11 -11 -11
-5 0 -7 5 -3 11 4 7 -3 19 -15 28 l-21 16 24 0 c13 0 22 -3 19 -8z m203 -1
c19 -14 19 -14 -1 -13 -14 1 -20 -4 -19 -16 2 -13 -1 -15 -10 -7 -7 5 -16 7
-19 3 -4 -3 -7 -1 -7 5 0 7 7 12 16 12 10 0 14 6 10 15 -7 19 5 19 30 1z m197
1 c-2 -4 3 -10 12 -13 12 -5 13 -9 4 -20 -14 -17 -33 -19 -23 -3 4 7 -3 19
-15 28 l-21 16 24 0 c13 0 22 -3 19 -8z m-1690 -59 c-4 -12 0 -18 10 -18 9 0
19 -4 22 -10 3 -5 0 -7 -9 -4 -26 10 -42 -7 -21 -23 24 -16 12 -17 -15 0 -17
10 -22 9 -31 -3 -8 -13 -9 -13 -7 2 2 9 -6 24 -17 32 l-20 15 20 -2 c12 -1 20
4 19 13 -1 10 9 15 26 16 22 1 26 -3 23 -18z m387 12 c0 5 5 10 11 10 5 0 7
-5 3 -12 -4 -6 1 -17 11 -25 17 -12 17 -13 2 -13 -9 0 -17 -7 -17 -16 0 -8 -4
-12 -10 -9 -5 3 -20 1 -32 -6 -19 -10 -21 -9 -10 2 10 11 8 17 -10 31 -21 15
-21 16 -3 15 13 -1 20 4 19 15 -1 14 2 16 17 7 13 -6 19 -6 19 1z m410 3 c10
9 11 9 5 -2 -5 -9 -1 -19 11 -29 18 -14 18 -14 -1 -7 -47 17 -58 18 -53 4 3
-8 13 -13 22 -13 9 1 16 -4 16 -12 0 -8 5 -14 12 -14 6 0 8 -3 5 -6 -4 -4 -13
-1 -21 5 -12 10 -20 10 -38 0 -21 -11 -22 -11 -9 4 11 14 11 18 -3 23 -15 6
-15 7 0 19 10 7 14 17 9 24 -6 10 -3 11 12 2 14 -7 24 -7 33 2z m393 -2 c15 9
18 8 12 -2 -5 -7 -1 -17 9 -24 15 -12 15 -13 0 -19 -13 -5 -14 -9 -4 -21 8
-10 9 -15 2 -15 -6 0 -14 5 -17 11 -4 6 -13 8 -21 5 -8 -3 -14 1 -14 10 0 12
-6 15 -22 11 -23 -6 -23 -6 1 12 16 12 21 23 16 32 -6 11 -5 11 5 2 9 -9 19
-9 33 -2z m382 -1 c5 -8 11 -8 20 0 10 8 13 6 11 -7 -1 -12 5 -17 19 -16 l20
2 -20 -15 c-11 -8 -18 -22 -17 -32 3 -13 1 -14 -12 -3 -8 7 -21 9 -27 5 -8 -5
-9 -3 -5 5 5 8 0 14 -13 18 -22 6 -30 25 -8 21 6 -2 11 5 11 15 -2 19 11 23
21 7z m-1385 -14 c0 -3 -4 -8 -10 -11 -5 -3 -10 -1 -10 4 0 6 5 11 10 11 6 0
10 -2 10 -4z m800 -6 c0 -5 -2 -10 -4 -10 -3 0 -8 5 -11 10 -3 6 -1 10 4 10 6
0 11 -4 11 -10z m400 0 c0 -5 -2 -10 -4 -10 -3 0 -8 5 -11 10 -3 6 -1 10 4 10
6 0 11 -4 11 -10z m-1282 -60 c13 0 13 -2 -3 -13 -12 -9 -15 -19 -10 -28 8
-12 6 -12 -8 -1 -9 8 -22 11 -29 7 -7 -4 -4 1 7 10 11 9 19 24 18 33 -1 9 0
11 3 5 3 -7 13 -13 22 -13z m410 4 c5 3 9 -1 9 -8 0 -7 -7 -13 -16 -12 -10 1
-15 -6 -15 -17 2 -14 -1 -15 -12 -6 -7 6 -19 8 -26 4 -7 -4 -4 1 7 10 11 9 18
23 17 33 -3 13 -1 14 12 3 8 -7 19 -10 24 -7z m165 9 c-18 -7 -16 -31 2 -35
12 -2 11 -6 -5 -16 -19 -11 -21 -11 -18 5 2 11 -3 18 -13 17 -9 -1 -16 4 -16
11 0 7 6 11 13 8 6 -2 15 0 19 6 3 6 12 11 18 10 9 0 9 -2 0 -6z m220 -7 c15
-12 15 -14 2 -19 -9 -4 -12 -13 -8 -23 5 -14 3 -14 -15 -3 l-22 14 22 8 c21 7
21 8 2 22 -10 8 -14 14 -9 14 6 0 18 -6 28 -13z m175 0 c-2 -8 6 -22 17 -31
11 -9 14 -14 7 -10 -7 4 -21 1 -30 -7 -15 -11 -16 -11 -4 3 10 14 10 18 -4 23
-9 3 -21 3 -27 0 -7 -3 -1 4 13 15 30 25 32 25 28 7z m398 -1 c-3 -8 1 -18 9
-22 12 -7 10 -11 -8 -22 -20 -13 -21 -13 -8 2 11 14 11 18 -2 23 -9 3 -20 3
-25 0 -5 -3 -9 1 -9 8 0 8 6 12 13 9 6 -2 15 0 19 6 9 16 18 13 11 -4z m-1588
-25 c13 0 13 -2 -4 -15 -25 -19 -40 -19 -24 0 10 12 9 16 -5 21 -13 5 -14 9
-3 15 8 6 14 3 16 -6 2 -8 11 -15 20 -15z m398 -2 c11 -2 9 -6 -7 -16 -19 -12
-21 -12 -16 2 4 10 1 19 -9 23 -13 5 -13 7 -2 14 8 5 14 3 16 -6 2 -7 10 -15
18 -17z m1021 10 c-9 -5 -14 -15 -10 -24 5 -14 3 -14 -16 -2 -17 10 -18 14 -6
16 8 2 15 10 15 17 0 9 6 12 16 8 15 -5 15 -7 1 -15z m399 0 c-14 -8 -15 -13
-5 -24 7 -9 8 -14 1 -14 -6 0 -14 5 -17 10 -4 6 -11 8 -16 5 -5 -4 -9 -2 -9 3
0 5 9 12 21 15 12 3 18 10 14 16 -4 7 0 8 11 4 15 -6 15 -7 0 -15z m-1523 -46
c-9 -16 -30 -34 -47 -40 l-31 -12 25 20 c14 11 29 20 33 20 5 0 6 4 2 9 -4 8
18 29 32 31 1 0 -5 -13 -14 -28z m414 15 c0 -8 -6 -14 -14 -14 -17 0 -17 14 0
20 6 3 12 6 13 6 0 1 1 -5 1 -12z m793 -13 c0 -8 5 -14 10 -14 6 0 10 -4 10
-10 0 -19 -15 -10 -32 19 -13 24 -13 29 -2 24 8 -3 14 -11 14 -19z m-396 8 c2
-4 -4 -9 -15 -9 -11 -1 -17 2 -14 8 7 11 22 12 29 1z m-1009 -22 c10 16 21 12
21 -8 0 -14 -7 -19 -26 -18 -17 1 -26 7 -26 18 0 12 4 14 12 7 8 -7 14 -6 19
1z m402 -2 c7 18 19 14 19 -6 0 -14 -7 -19 -26 -18 -17 1 -26 7 -26 18 0 14 3
15 15 5 11 -9 15 -9 18 1z m400 0 c7 18 19 15 19 -6 0 -13 -8 -19 -26 -19 -18
0 -26 6 -26 18 0 14 3 16 15 6 11 -9 15 -9 18 1z m388 2 c5 -7 11 -8 19 -1 8
7 12 5 12 -7 0 -11 -9 -17 -26 -18 -19 -1 -26 4 -26 18 0 20 11 24 21 8z m398
-2 c3 -10 7 -10 18 -1 12 10 15 9 15 -5 0 -11 -9 -17 -26 -18 -19 -1 -26 4
-26 18 0 20 12 24 19 6z m-1363 -8 c0 -5 -4 -10 -10 -10 -5 0 -10 5 -10 10 0
6 5 10 10 10 6 0 10 -4 10 -10z m360 0 c0 -5 -4 -10 -10 -10 -5 0 -10 5 -10
10 0 6 5 10 10 10 6 0 10 -4 10 -10z m40 0 c0 -5 -4 -10 -10 -10 -5 0 -10 5
-10 10 0 6 5 10 10 10 6 0 10 -4 10 -10z m360 0 c0 -5 -4 -10 -10 -10 -5 0
-10 5 -10 10 0 6 5 10 10 10 6 0 10 -4 10 -10z m40 0 c0 -5 -4 -10 -10 -10 -5
0 -10 5 -10 10 0 6 5 10 10 10 6 0 10 -4 10 -10z m360 0 c0 -5 -4 -10 -10 -10
-5 0 -10 5 -10 10 0 6 5 10 10 10 6 0 10 -4 10 -10z m-830 -14 c0 -2 -7 -7
-16 -10 -8 -3 -12 -2 -9 4 6 10 25 14 25 6z m-250 -36 c8 -5 10 -10 4 -10 -7
0 -22 9 -35 21 -19 16 -20 18 -4 10 11 -6 27 -15 35 -21z m-420 10 c0 -5 -4
-10 -10 -10 -5 0 -10 5 -10 10 0 6 5 10 10 10 6 0 10 -4 10 -10z m230 0 c0 -5
-4 -10 -10 -10 -5 0 -10 5 -10 10 0 6 5 10 10 10 6 0 10 -4 10 -10z m400 0 c0
-5 -5 -10 -11 -10 -5 0 -7 5 -4 10 3 6 8 10 11 10 2 0 4 -4 4 -10z m400 0 c0
-5 -5 -10 -11 -10 -5 0 -7 5 -4 10 3 6 8 10 11 10 2 0 4 -4 4 -10z m175 0 c3
-5 1 -10 -4 -10 -6 0 -11 5 -11 10 0 6 2 10 4 10 3 0 8 -4 11 -10z m215 -10
c-24 -15 -36 -11 -14 4 10 8 21 12 24 10 2 -3 -2 -9 -10 -14z m185 10 c3 -5 1
-10 -4 -10 -6 0 -11 5 -11 10 0 6 2 10 4 10 3 0 8 -4 11 -10z m221 -5 c-11 -8
-24 -15 -30 -15 -5 0 -1 7 10 15 10 8 24 14 29 14 6 0 1 -6 -9 -14z m-1791
-15 c3 -6 -1 -7 -9 -4 -18 7 -21 14 -7 14 6 0 13 -4 16 -10z m1345 -4 c0 -3
-19 -16 -42 -30 -24 -14 -37 -26 -30 -26 6 0 12 -4 12 -8 0 -5 -6 -9 -14 -9
-7 0 -13 7 -11 16 1 8 -8 23 -19 33 -20 17 -20 18 -1 11 11 -3 23 -11 28 -17
5 -8 9 -8 15 -1 4 6 18 16 32 22 30 14 30 14 30 9z m-1440 -10 c0 -3 -4 -8
-10 -11 -5 -3 -10 -1 -10 4 0 6 5 11 10 11 6 0 10 -2 10 -4z m377 -8 c7 19 22
14 17 -5 -7 -25 -50 -24 -51 0 -2 16 0 17 14 5 13 -10 17 -10 20 0z m234 -1
c-6 -8 -8 -17 -4 -21 4 -4 0 -4 -10 0 -22 8 -22 21 1 27 9 3 19 5 21 6 2 0 -2
-5 -8 -12z m172 1 c10 8 13 6 13 -7 0 -12 -8 -18 -26 -18 -18 0 -26 6 -26 18
0 13 3 15 13 7 9 -7 17 -7 26 0z m412 2 c-4 -6 -1 -18 7 -27 12 -15 11 -15 -9
-5 -12 7 -29 9 -37 6 -12 -5 -15 -2 -10 9 3 9 12 13 19 11 7 -3 16 -1 20 5 3
6 8 11 11 11 3 0 2 -5 -1 -10z m368 -2 c3 -10 7 -10 18 -1 12 10 15 9 15 -5 0
-11 -9 -17 -26 -18 -19 -1 -26 4 -26 18 0 20 12 24 19 6z m-1398 -18 c4 -12
11 -17 18 -13 7 4 5 -1 -3 -12 -15 -18 -15 -18 -19 1 -2 10 -11 24 -20 31 -15
11 -15 12 1 13 9 0 20 -9 23 -20z m38 6 c4 -10 1 -13 -9 -9 -7 3 -14 9 -14 14
0 14 17 10 23 -5z m361 -1 c4 -13 2 -14 -14 -5 -23 13 -26 20 -6 20 8 0 16 -7
20 -15z m400 3 c5 -10 7 -10 12 0 3 6 13 12 22 12 16 -1 16 -2 1 -13 -9 -7
-15 -20 -13 -29 1 -13 -4 -18 -19 -18 -22 1 -22 1 -3 15 11 8 15 15 10 15 -6
0 -19 7 -30 15 -16 12 -17 14 -2 15 9 0 19 -6 22 -12z m796 3 c0 -5 -6 -11
-13 -14 -8 -3 -14 1 -14 9 0 8 6 14 14 14 7 0 13 -4 13 -9z m40 0 c0 -5 -7
-11 -14 -14 -10 -4 -13 -1 -9 9 6 15 23 19 23 5z m-1215 -31 c-3 -5 -12 -10
-18 -10 -7 0 -6 4 3 10 19 12 23 12 15 0z m1195 -9 c0 -4 -6 -8 -13 -8 -8 0
-14 6 -14 13 0 7 6 10 14 7 7 -3 13 -8 13 -12z m-1498 -8 c8 3 15 -1 15 -8 0
-7 -8 -10 -20 -7 -17 4 -19 1 -15 -16 7 -26 2 -28 -17 -8 -12 12 -12 15 0 20
9 3 12 12 9 23 -5 14 -4 15 4 4 6 -8 16 -11 24 -8z m211 10 c-18 -7 -16 -31 2
-35 12 -2 11 -6 -6 -16 -19 -12 -21 -12 -16 2 4 10 1 19 -8 23 -13 5 -13 7 2
19 10 7 23 13 28 13 6 0 4 -3 -2 -6z m393 -8 c-11 -8 -15 -15 -10 -15 6 0 19
-7 30 -16 10 -8 13 -13 6 -9 -7 4 -21 1 -30 -7 -15 -12 -16 -11 -4 4 11 14 10
17 -8 23 -20 6 -21 7 -3 21 10 7 23 13 28 13 6 0 1 -6 -9 -14z m203 -1 c4 3 8
-1 8 -8 0 -7 -7 -13 -16 -12 -10 1 -15 -6 -15 -17 2 -14 -1 -15 -12 -6 -7 6
-19 8 -26 4 -7 -4 -3 2 10 12 18 15 20 21 10 32 -11 11 -9 12 10 2 12 -7 26
-10 31 -7z m191 -4 c-8 -6 -10 -10 -4 -10 5 0 19 -7 30 -16 10 -8 13 -13 6 -9
-7 4 -19 2 -26 -4 -11 -9 -14 -8 -12 6 0 11 -5 18 -15 17 -9 -1 -16 4 -16 11
0 7 6 11 13 8 6 -2 15 1 19 7 4 6 10 9 13 5 4 -3 0 -10 -8 -15z m185 9 c4 -6
13 -8 19 -6 7 3 13 -1 13 -8 0 -7 -6 -11 -13 -8 -18 7 -29 -18 -13 -28 8 -5
10 -9 4 -9 -5 1 -18 7 -28 14 -16 12 -16 14 -1 20 13 5 14 9 4 21 -8 10 -9 15
-2 15 6 0 14 -5 17 -11z m227 -1 c-10 -10 -8 -16 10 -31 13 -10 17 -16 10 -12
-7 4 -19 2 -27 -5 -11 -9 -12 -7 -8 11 5 18 3 21 -14 17 -12 -3 -20 0 -20 7 0
7 8 10 19 7 10 -2 18 1 18 7 0 6 5 11 12 11 9 0 9 -3 0 -12z m-1594 -28 c13 0
13 -2 -4 -15 -25 -19 -40 -19 -24 0 10 12 9 16 -5 21 -13 5 -14 9 -3 15 8 6
14 3 16 -6 2 -8 11 -15 20 -15z m581 9 c-15 -11 -19 -21 -14 -30 8 -12 6 -12
-8 -1 -9 8 -22 11 -29 7 -7 -4 -4 1 7 10 11 9 19 19 18 23 -1 4 10 7 23 7 l24
0 -21 -16z m1198 -1 c-9 -5 -14 -15 -10 -24 5 -14 3 -14 -16 -2 -17 10 -18 14
-6 16 8 2 15 10 15 17 0 9 6 12 16 8 15 -5 15 -7 1 -15z m-1075 -30 c-16 -16
-15 -28 3 -28 8 0 15 -4 15 -10 0 -5 -6 -9 -12 -7 -7 1 -12 -5 -12 -14 1 -11
-7 -16 -27 -16 -15 0 -26 4 -23 9 4 5 -2 16 -12 23 -18 14 -18 14 0 15 12 0
16 5 12 16 -4 11 -1 14 12 10 9 -3 24 -1 32 4 21 13 26 12 12 -2z m-412 -12
c0 -5 8 -15 18 -22 16 -13 16 -13 0 -14 -10 0 -18 -6 -18 -12 0 -7 -11 -13
-23 -13 -15 0 -24 6 -23 15 1 8 -5 14 -11 13 -19 -4 -16 14 3 21 8 3 13 9 11
13 -3 5 6 8 19 8 13 0 24 -4 24 -9z m803 -3 c-3 -7 2 -13 11 -13 9 0 16 -4 16
-10 0 -5 -6 -9 -12 -7 -7 1 -12 -5 -12 -14 1 -11 -7 -16 -27 -16 -15 0 -26 4
-23 9 4 5 -2 16 -12 23 -18 14 -18 14 0 15 11 0 16 5 13 13 -3 9 4 14 23 14
19 0 26 -5 23 -14z m400 0 c-3 -7 2 -13 11 -13 9 0 16 -4 16 -10 0 -5 -7 -10
-16 -10 -9 0 -14 -6 -11 -12 3 -8 -4 -13 -19 -13 -13 0 -24 6 -24 13 0 6 -8
12 -17 12 -14 0 -13 3 6 16 16 12 19 19 11 24 -6 4 2 7 18 6 19 -1 28 -5 25
-13z m-1408 -43 c3 -6 -1 -7 -9 -4 -18 7 -21 14 -7 14 6 0 13 -4 16 -10z m77
-32 c-4 -17 -2 -20 15 -16 11 3 20 0 20 -6 0 -6 -10 -11 -23 -11 -12 0 -20 3
-18 7 3 4 -4 11 -13 17 -10 6 -12 11 -5 11 6 0 12 7 12 16 0 8 4 13 9 10 5 -3
7 -16 3 -28z m-173 -10 c-11 -4 -18 -12 -14 -18 4 -6 -1 -7 -11 -3 -14 5 -15
7 -1 15 9 5 14 15 10 24 -5 14 -3 14 15 3 l22 -14 -21 -7z m406 4 c-17 -4 -21
-32 -3 -32 6 0 9 -3 5 -6 -3 -3 -15 1 -27 9 -17 12 -18 16 -6 20 10 4 13 13 9
23 -5 14 -3 14 16 2 17 -10 18 -14 6 -16z m171 11 c0 -11 6 -18 15 -17 9 1 16
-5 16 -12 0 -7 -4 -11 -9 -8 -5 3 -16 0 -25 -8 -15 -11 -16 -11 -10 5 4 11 1
20 -8 24 -13 5 -13 7 2 19 10 7 19 14 19 14 1 0 1 -8 0 -17z m224 -17 c-19 -8
-19 -10 -2 -22 9 -7 13 -13 7 -13 -5 -1 -21 8 -35 18 -22 17 -22 19 -5 18 13
-1 20 4 19 15 -1 14 2 15 17 5 19 -12 19 -12 -1 -21z m176 17 c0 -11 6 -18 15
-17 9 1 16 -5 16 -12 0 -7 -4 -11 -8 -8 -5 3 -19 0 -31 -7 -19 -10 -21 -9 -10
2 10 11 8 17 -10 31 -13 11 -16 16 -7 12 10 -3 20 -1 24 5 9 16 13 13 11 -6z
m244 2 c5 3 10 4 10 1 0 -3 -9 -10 -19 -15 -15 -9 -20 -7 -24 10 -4 16 -3 18
8 9 8 -7 19 -9 25 -5z m158 -2 c-2 -11 3 -18 13 -17 9 1 16 -5 16 -12 0 -7 -4
-11 -8 -8 -5 3 -19 -1 -31 -7 -21 -11 -22 -11 -9 4 11 14 11 18 -3 23 -15 6
-15 8 1 20 23 17 24 17 21 -3z m242 2 c5 3 10 4 10 1 0 -3 -9 -10 -19 -15 -15
-9 -20 -7 -24 10 -4 16 -3 18 8 9 8 -7 19 -9 25 -5z m156 0 c-23 -18 -33 -19
-41 -5 -3 5 0 7 8 4 8 -3 18 -1 22 5 3 6 12 11 18 11 7 0 3 -7 -7 -15z m-570
-52 c-3 -3 -12 0 -20 6 -8 7 -19 10 -24 7 -5 -3 -9 1 -9 9 0 12 5 11 30 -1 16
-9 26 -18 23 -21z m374 22 c0 -2 -6 -5 -13 -8 -8 -3 -14 1 -14 8 0 7 6 11 14
8 7 -3 13 -6 13 -8z m220 0 c0 -2 -7 -5 -15 -9 -9 -3 -15 0 -15 9 0 9 6 12 15
9 8 -4 15 -7 15 -9z m-1715 -15 c3 -5 1 -10 -4 -10 -6 0 -11 5 -11 10 0 6 2
10 4 10 3 0 8 -4 11 -10z m410 -11 c-3 -16 0 -19 13 -14 9 3 13 3 9 -1 -4 -4
-2 -13 4 -20 8 -9 5 -11 -10 -7 -12 3 -21 9 -21 14 0 5 -5 9 -11 9 -5 0 -7 -4
-4 -10 3 -5 -3 -10 -14 -10 -28 0 -26 6 7 24 15 8 21 15 15 16 -18 0 -16 20 1
20 10 0 13 -7 11 -21z m395 9 c0 -4 -6 -8 -12 -8 -7 0 -5 -5 5 -11 9 -5 22 -7
29 -3 6 4 8 3 4 -4 -3 -6 2 -16 11 -22 15 -9 14 -10 -7 -4 -14 4 -29 12 -33
18 -6 8 -10 8 -14 -1 -2 -7 -12 -13 -21 -13 -16 1 -16 2 -1 13 9 7 15 19 14
28 -2 9 4 16 11 16 8 0 14 -4 14 -9z m401 -1 c-7 -7 -14 -8 -21 -1 -6 6 -2 10
12 11 16 2 18 -1 9 -10z m399 -5 c0 -8 8 -21 18 -28 16 -12 16 -13 0 -14 -9 0
-20 9 -23 20 -4 11 -10 18 -14 16 -4 -3 -8 1 -8 8 0 7 6 13 14 13 7 0 13 -7
13 -15z m-1380 -17 c-6 -8 -9 -19 -5 -25 3 -5 2 -10 -4 -10 -5 0 -11 6 -14 13
-3 9 -7 9 -18 0 -12 -10 -15 -8 -15 6 0 11 6 17 13 14 6 -3 20 0 30 6 25 14
28 14 13 -4z m-202 -13 c-8 -9 -14 -9 -24 -1 -10 8 -14 8 -14 0 0 -6 -8 -11
-17 -11 -16 1 -16 2 -2 13 22 17 71 16 57 -1z m598 -3 c0 -13 -3 -15 -13 -7
-9 7 -17 7 -26 0 -10 -8 -13 -6 -13 7 0 12 8 18 26 18 18 0 26 -6 26 -18z
m400 0 c0 -13 -3 -15 -13 -7 -9 7 -17 7 -26 0 -10 -8 -13 -6 -13 7 0 12 8 18
26 18 18 0 26 -6 26 -18z m214 -4 c0 -12 -29 -3 -34 10 -4 13 -2 14 14 5 11
-6 20 -13 20 -15z m186 3 c0 -14 -3 -15 -15 -5 -11 9 -15 9 -18 0 -7 -20 -22
-15 -17 5 7 23 50 23 50 0z m164 -1 c0 -6 -3 -7 -7 -4 -3 4 -13 1 -22 -6 -14
-10 -14 -10 -4 4 7 9 10 19 6 23 -4 4 0 4 10 0 9 -3 17 -11 17 -17z m-400 3
c0 -5 -7 -10 -16 -10 -8 0 -12 5 -9 10 3 6 10 10 16 10 5 0 9 -4 9 -10z
m-1280 -40 c-24 -19 -40 -25 -40 -15 0 5 51 34 60 34 3 0 -6 -8 -20 -19z m415
0 c3 -5 0 -7 -8 -4 -8 3 -18 0 -22 -5 -3 -6 -11 -8 -18 -4 -7 4 -4 9 9 14 27
11 32 10 39 -1z m979 4 c9 -3 16 -11 16 -16 0 -6 -6 -5 -15 2 -8 6 -20 8 -26
4 -8 -4 -9 -3 -5 4 8 14 9 14 30 6z m412 -9 c10 -8 15 -14 9 -14 -5 0 -19 6
-29 14 -11 8 -15 15 -10 15 6 0 19 -7 30 -15z m-1596 -5 c0 -5 -4 -10 -10 -10
-5 0 -10 5 -10 10 0 6 5 10 10 10 6 0 10 -4 10 -10z m400 0 c0 -5 -2 -10 -4
-10 -3 0 -8 5 -11 10 -3 6 -1 10 4 10 6 0 11 -4 11 -10z m180 6 c0 -3 -4 -8
-10 -11 -5 -3 -10 -1 -10 4 0 6 5 11 10 11 6 0 10 -2 10 -4z m231 -13 c13 -15
12 -15 -8 -4 -24 12 -29 21 -14 21 5 0 15 -7 22 -17z m169 13 c0 -3 -4 -8 -10
-11 -5 -3 -10 -1 -10 4 0 6 5 11 10 11 6 0 10 -2 10 -4z m400 0 c0 -3 -4 -8
-10 -11 -5 -3 -10 -1 -10 4 0 6 5 11 10 11 6 0 10 -2 10 -4z m-1474 -48 c0
-20 -11 -24 -21 -8 -5 7 -11 8 -19 1 -8 -7 -12 -5 -12 7 0 11 9 17 26 18 19 1
26 -4 26 -18z m400 0 c0 -20 -11 -24 -21 -8 -5 7 -11 8 -19 1 -8 -7 -12 -5
-12 7 0 11 9 17 26 18 19 1 26 -4 26 -18z m400 0 c0 -10 -4 -18 -8 -18 -4 0
-8 5 -8 10 0 7 -6 7 -18 1 -14 -7 -18 -6 -18 7 0 11 9 17 26 18 19 1 26 -4 26
-18z m364 2 c0 -11 -4 -20 -8 -20 -4 0 -8 9 -8 20 0 11 4 20 8 20 4 0 8 -9 8
-20z m36 1 c0 -11 -5 -17 -13 -14 -17 6 -17 20 0 26 6 3 12 6 12 6 1 1 1 -7 1
-18z m400 -3 c0 -12 -4 -14 -12 -7 -8 7 -14 6 -19 -1 -10 -16 -21 -12 -21 8 0
14 7 19 26 18 17 -1 26 -7 26 -18z m-1436 0 c0 -9 3 -9 12 0 15 15 28 16 28 2
0 -5 -7 -10 -15 -10 -18 0 -19 -11 -2 -29 10 -11 8 -11 -11 -2 -12 7 -20 16
-17 22 4 5 1 9 -4 9 -6 0 -11 5 -11 10 0 6 5 10 10 10 6 0 10 -5 10 -12z m409
-14 c9 -20 9 -25 -1 -21 -7 2 -12 10 -10 16 1 6 -2 11 -8 11 -5 0 -10 5 -10
10 0 19 17 10 29 -16z m31 16 c0 -5 -4 -10 -10 -10 -5 0 -10 5 -10 10 0 6 5
10 10 10 6 0 10 -4 10 -10z m360 0 c0 -5 -4 -10 -10 -10 -5 0 -10 5 -10 10 0
6 5 10 10 10 6 0 10 -4 10 -10z m40 0 c0 -5 -4 -10 -10 -10 -5 0 -10 5 -10 10
0 6 5 10 10 10 6 0 10 -4 10 -10z m360 0 c0 -5 -4 -10 -10 -10 -5 0 -10 5 -10
10 0 6 5 10 10 10 6 0 10 -4 10 -10z m40 0 c0 -5 -4 -10 -10 -10 -5 0 -9 -5
-7 -11 1 -6 -4 -14 -11 -16 -10 -4 -10 1 -1 21 12 26 29 35 29 16z m-425 -30
c3 -5 2 -10 -4 -10 -5 0 -13 5 -16 10 -3 6 -2 10 4 10 5 0 13 -4 16 -10z
m-1095 -20 c24 -19 24 -19 3 -13 -17 4 -23 1 -23 -10 0 -8 5 -17 12 -19 7 -3
5 -7 -6 -11 -9 -4 -15 -3 -11 2 3 6 -3 14 -12 20 -12 7 -13 10 -4 11 8 0 11 7
8 20 -6 25 1 25 33 0z m206 3 c0 -11 6 -17 16 -17 10 1 15 -2 12 -7 -3 -5 -11
-9 -19 -9 -7 0 -15 -3 -18 -7 -2 -5 -2 -2 -1 5 2 7 -3 15 -11 18 -11 5 -12 9
-2 20 17 18 25 17 23 -3z m214 -18 c0 -2 -9 -1 -20 2 -14 4 -20 0 -20 -11 0
-10 -5 -13 -16 -9 -15 5 -15 7 -1 15 10 5 14 15 10 25 -5 13 -3 13 20 -2 15
-9 27 -19 27 -20z m186 18 c0 -11 6 -18 15 -17 9 1 16 -4 16 -11 0 -10 -8 -9
-33 3 -30 14 -32 17 -16 28 9 8 18 14 18 14 1 0 1 -8 0 -17z m189 -11 c-18 -4
-19 -14 -2 -31 10 -10 7 -10 -16 0 -22 10 -25 14 -13 21 9 5 13 15 9 24 -5 14
-3 14 16 2 17 -10 18 -14 6 -16z m209 13 c-4 -8 1 -17 10 -21 15 -6 15 -8 -1
-20 -10 -7 -22 -13 -28 -13 -5 0 -1 6 10 15 19 14 19 15 -3 21 -21 5 -21 6 -5
19 23 17 24 17 17 -1z m191 -18 c-9 -4 -13 -12 -10 -17 3 -4 -4 -6 -15 -3 -19
5 -19 6 -4 18 10 7 14 17 9 24 -5 9 -2 9 14 -1 17 -10 18 -14 6 -21z m211 18
c-3 -9 1 -18 10 -22 12 -4 11 -8 -6 -20 -12 -8 -24 -12 -27 -9 -4 3 -1 6 5 6
7 0 12 7 12 15 0 8 -8 15 -17 15 -15 0 -14 2 3 15 24 18 27 18 20 0z m189 -18
c-8 -4 -11 -15 -8 -24 5 -13 3 -13 -20 2 -32 20 -33 23 -9 21 10 0 17 6 16 16
-1 14 2 15 17 5 15 -10 16 -13 4 -20z m211 18 c-3 -8 2 -18 11 -23 14 -8 14
-10 -1 -15 -10 -4 -16 -1 -16 8 0 8 -8 16 -17 16 -17 1 -17 2 0 6 9 2 17 9 17
14 0 5 3 9 6 9 3 0 4 -7 0 -15z m-1706 -50 c5 3 10 -1 10 -11 0 -11 6 -15 20
-11 11 3 18 1 14 -4 -3 -5 -12 -9 -21 -9 -10 0 -14 -6 -10 -20 5 -21 -7 -28
-18 -10 -5 8 -12 7 -23 -2 -13 -11 -15 -10 -9 4 4 11 0 21 -10 26 -14 8 -14
10 1 15 10 4 13 12 9 24 -6 16 -5 16 10 5 9 -8 21 -11 27 -7z m400 0 c5 3 10
-1 10 -9 0 -9 8 -16 17 -16 15 0 15 -1 -2 -13 -10 -8 -15 -19 -11 -25 4 -7 3
-12 -3 -12 -5 0 -13 5 -16 10 -5 8 -12 7 -23 -2 -13 -11 -14 -11 -7 1 5 9 2
18 -9 26 -14 11 -15 13 -1 18 9 4 12 13 8 24 -6 16 -5 16 10 5 9 -8 21 -11 27
-7z m100 5 c0 -5 -5 -10 -11 -10 -5 0 -7 5 -4 10 3 6 8 10 11 10 2 0 4 -4 4
-10z m304 -4 c12 4 15 2 11 -9 -4 -8 -12 -14 -18 -13 -7 0 -12 -3 -12 -9 0
-11 10 -11 40 0 19 7 19 7 1 -7 -13 -10 -16 -20 -11 -29 7 -11 5 -11 -10 1
-14 11 -19 12 -22 3 -3 -7 -9 -13 -14 -13 -6 0 -7 5 -3 12 4 6 -1 17 -10 23
-15 12 -15 13 0 19 14 5 14 9 3 23 -13 15 -12 15 8 5 12 -7 29 -9 37 -6z m418
2 c-10 -10 -8 -16 10 -30 21 -15 21 -16 3 -15 -14 1 -20 -4 -18 -17 1 -13 -2
-15 -9 -8 -8 8 -17 8 -29 1 -15 -7 -17 -6 -13 6 4 9 -1 18 -12 22 -15 6 -15 7
5 15 12 4 20 12 16 18 -3 5 0 7 8 4 8 -3 18 -1 22 5 3 6 11 11 18 11 8 0 7 -4
-1 -12z m394 -3 c-3 -9 1 -18 9 -22 14 -5 13 -7 -1 -18 -11 -8 -14 -17 -9 -26
7 -12 6 -12 -7 -1 -11 9 -18 10 -23 2 -3 -5 -11 -10 -16 -10 -6 0 -7 5 -3 11
4 7 -3 19 -16 29 l-22 17 23 -1 c14 -1 23 4 22 11 -2 7 3 10 11 7 8 -3 17 -1
21 5 10 16 18 13 11 -4z m-1424 -29 c4 -18 0 -26 -15 -30 -15 -4 -17 -2 -8 7
6 6 11 19 11 29 0 26 7 22 12 -6z m403 14 c3 -5 1 -10 -4 -10 -6 0 -11 5 -11
10 0 6 2 10 4 10 3 0 8 -4 11 -10z m400 -8 c-3 -3 -11 0 -18 7 -9 10 -8 11 6
5 10 -3 15 -9 12 -12z m412 -28 c-3 -3 -12 -4 -19 -1 -8 3 -5 6 6 6 11 1 17
-2 13 -5z m-1523 -25 c-4 -7 3 -19 15 -28 l21 -16 -25 0 c-14 0 -25 6 -25 13
0 6 -5 12 -11 12 -8 0 -8 5 1 15 14 17 35 20 24 4z m231 -17 c-10 -2 -14 -10
-11 -18 6 -16 -2 -18 -22 -5 -11 6 -10 10 3 15 10 3 15 12 11 21 -4 12 -2 13
15 2 17 -10 17 -13 4 -15z m169 16 c-4 -6 0 -17 10 -23 15 -12 15 -13 -4 -18
-11 -3 -17 -1 -14 4 3 5 -2 12 -11 15 -12 5 -13 9 -4 20 14 17 33 19 23 2z
m231 -16 c-10 -2 -14 -10 -11 -18 6 -16 -2 -18 -22 -5 -11 6 -10 10 3 15 10 3
15 12 11 21 -4 12 -2 13 15 2 17 -10 17 -13 4 -15z m169 16 c-4 -6 0 -17 10
-23 15 -12 15 -13 -4 -18 -11 -3 -18 -2 -15 3 3 4 -2 13 -11 20 -12 11 -12 15
-2 21 19 12 30 11 22 -3z m246 -9 c0 -5 -7 -9 -16 -9 -10 0 -14 -6 -10 -15 6
-17 -2 -19 -22 -6 -11 6 -10 10 3 15 9 3 15 12 12 20 -4 10 0 12 14 9 10 -3
19 -9 19 -14z m154 6 c-4 -9 1 -18 11 -21 13 -5 14 -9 3 -15 -20 -13 -28 -11
-22 6 4 10 0 15 -12 15 -17 0 -16 1 2 15 24 18 25 18 18 0z m235 1 c9 -11 8
-15 -4 -20 -9 -3 -13 -10 -10 -16 3 -6 -1 -7 -10 -4 -12 5 -13 10 -4 20 6 7 8
18 4 24 -9 15 11 12 24 -4z m167 -3 c0 -11 6 -17 16 -17 23 2 14 -12 -11 -19
-14 -3 -18 -1 -14 9 3 8 -1 14 -11 14 -9 0 -16 5 -16 11 0 5 4 8 9 4 5 -3 12
-1 16 5 9 15 13 12 11 -7z m234 7 c13 -9 13 -12 -3 -21 -9 -6 -15 -14 -12 -19
3 -4 -5 -5 -17 -2 -20 5 -20 7 -5 10 13 3 17 10 14 23 -6 21 1 24 23 9z
m-1508 -69 c13 -24 13 -29 2 -24 -8 3 -14 11 -14 19 0 8 -4 14 -10 14 -5 0
-10 5 -10 10 0 19 15 10 32 -19z m396 4 c7 -15 8 -27 2 -30 -6 -4 -10 -1 -10
4 0 6 -5 11 -11 11 -5 0 -7 -5 -3 -11 4 -8 0 -8 -15 0 -21 12 -28 22 -13 20
18 -3 46 3 35 8 -15 5 -18 23 -5 23 5 0 14 -11 20 -25z m392 15 c0 -5 -4 -10
-10 -10 -5 0 -10 5 -10 10 0 6 5 10 10 10 6 0 10 -4 10 -10z m397 -4 c-16 -12
-16 -14 -1 -20 9 -3 21 -3 26 1 7 3 8 1 4 -6 -4 -6 -16 -9 -27 -6 -10 4 -19 2
-19 -3 0 -5 -6 -9 -13 -9 -8 0 -14 6 -14 13 0 7 4 11 8 8 4 -2 10 5 14 16 3
11 14 20 23 20 15 -1 15 -2 -1 -14z m-1403 -23 c10 4 16 1 16 -8 0 -8 -6 -12
-14 -9 -8 3 -17 1 -21 -5 -3 -6 -11 -11 -18 -11 -8 0 -8 3 0 11 6 6 9 19 6 28
-4 13 -3 13 5 2 6 -8 17 -11 26 -8z m400 0 c10 4 16 1 16 -8 0 -8 5 -15 12
-15 6 0 8 -3 5 -6 -4 -4 -14 -1 -22 6 -12 10 -19 10 -27 2 -7 -7 -16 -12 -22
-12 -6 0 -5 5 1 11 6 6 9 19 6 28 -4 13 -3 13 5 2 6 -8 17 -11 26 -8z m381 6
c4 -6 13 -8 21 -5 8 3 14 -1 14 -9 0 -8 5 -15 12 -15 6 0 8 -3 5 -6 -4 -4 -13
-1 -22 6 -12 10 -18 10 -30 0 -9 -7 -18 -10 -22 -7 -3 4 2 9 11 13 15 6 15 7
-1 20 -10 7 -13 14 -6 14 6 0 15 -5 18 -11z m403 -1 c9 -9 15 -9 24 0 7 7 17
12 22 12 6 0 5 -5 -2 -12 -8 -8 -9 -15 -1 -25 14 -16 -3 -17 -19 -1 -9 9 -15
9 -24 0 -7 -7 -16 -12 -22 -12 -5 0 -1 6 9 14 18 13 18 13 -1 24 -10 6 -14 12
-8 12 5 0 15 -5 22 -12z m-991 -14 c0 -7 -6 -10 -14 -7 -7 3 -13 8 -13 12 0 4
6 8 13 8 8 0 14 -6 14 -13z m824 10 c5 -3 6 -10 3 -16 -4 -7 -9 -6 -14 2 -5 9
-13 9 -27 2 -15 -8 -20 -8 -20 1 0 13 42 21 58 11z m605 -2 c-3 -3 -1 -11 5
-19 14 -16 -2 -18 -18 -2 -13 13 -36 3 -28 -12 3 -5 -1 -6 -11 -2 -15 5 -15 7
0 15 9 5 15 12 12 16 -2 4 7 8 21 8 13 1 22 -1 19 -4z m-1099 -46 c0 -8 -6
-12 -13 -9 -6 2 -15 0 -19 -6 -3 -6 -12 -11 -18 -11 -7 0 -1 9 13 20 30 23 37
25 37 6z m193 -18 c0 -5 -9 -3 -20 4 -11 7 -20 16 -20 20 0 5 9 3 20 -4 11 -7
20 -16 20 -20z m184 7 c-10 -8 -23 -14 -29 -14 -5 -1 1 8 15 19 14 10 27 17
29 14 3 -2 -4 -11 -15 -19z m222 -12 c-6 -6 -46 20 -46 30 0 4 11 0 25 -9 14
-9 24 -19 21 -21z m384 17 c14 -11 21 -20 15 -20 -5 0 -21 9 -35 20 -14 11
-20 20 -15 20 6 0 21 -9 35 -20z m-1385 0 c3 -6 -1 -7 -9 -4 -18 7 -21 14 -7
14 6 0 13 -4 16 -10z m-205 -10 c0 -5 -4 -10 -10 -10 -5 0 -10 5 -10 10 0 6 5
10 10 10 6 0 10 -4 10 -10z m170 0 c0 -5 -5 -10 -11 -10 -5 0 -7 5 -4 10 3 6
8 10 11 10 2 0 4 -4 4 -10z m230 0 c0 -5 -2 -10 -4 -10 -3 0 -8 5 -11 10 -3 6
-1 10 4 10 6 0 11 -4 11 -10z m979 7 c-2 -1 -13 -9 -24 -17 -19 -14 -19 -14
-6 3 7 9 18 17 24 17 6 0 8 -1 6 -3z m401 -7 c0 -5 -4 -10 -10 -10 -5 0 -10 5
-10 10 0 6 5 10 10 10 6 0 10 -4 10 -10z m-1070 -25 c-6 -8 -8 -20 -4 -27 6
-10 3 -9 -9 1 -14 11 -20 11 -32 1 -9 -7 -18 -10 -22 -6 -3 3 -1 6 6 6 8 0 11
6 7 16 -4 11 -1 14 12 10 9 -3 24 -1 32 4 21 14 24 12 10 -5z m385 5 c10 8 13
6 11 -14 -1 -19 -4 -22 -14 -14 -9 8 -16 8 -24 0 -7 -7 -17 -12 -22 -12 -6 0
-5 4 3 9 13 8 13 12 0 27 -13 16 -12 16 9 5 17 -9 27 -9 37 -1z m400 0 c11 9
14 7 12 -9 -1 -14 -6 -20 -15 -16 -8 3 -22 0 -30 -7 -13 -11 -14 -11 -8 0 4 7
2 20 -6 29 -12 15 -11 15 10 4 18 -9 27 -10 37 -1z m-1381 -15 c-4 -8 -12 -15
-20 -15 -8 0 -11 -6 -8 -15 4 -10 0 -15 -11 -15 -11 0 -15 5 -11 15 3 9 0 15
-10 15 -8 0 -12 5 -9 11 4 6 12 8 19 6 6 -2 20 -1 31 4 11 4 21 8 22 8 1 1 0
-6 -3 -14z m190 -8 c4 -15 2 -16 -10 -6 -11 9 -18 9 -26 1 -17 -17 -33 -15
-19 1 6 8 9 16 7 18 -2 2 6 4 19 4 15 0 26 -7 29 -18z m166 3 c0 -5 -7 -10
-16 -10 -8 0 -12 5 -9 10 3 6 10 10 16 10 5 0 9 -4 9 -10z m40 0 c0 -5 -7 -10
-16 -10 -8 0 -12 5 -9 10 3 6 10 10 16 10 5 0 9 -4 9 -10z m400 -2 c0 -4 -13
-8 -30 -8 -16 0 -30 4 -30 8 0 5 14 9 30 9 17 0 30 -4 30 -9z m400 0 c0 -4
-13 -8 -30 -8 -16 0 -30 4 -30 8 0 5 14 9 30 9 17 0 30 -4 30 -9z m400 0 c0
-4 -13 -8 -30 -8 -16 0 -30 4 -30 8 0 5 14 9 30 9 17 0 30 -4 30 -9z m-1805
-8 c3 -5 1 -10 -4 -10 -6 0 -11 5 -11 10 0 6 2 10 4 10 3 0 8 -4 11 -10z m585
-20 c0 -5 -4 -10 -10 -10 -5 0 -10 5 -10 10 0 6 5 10 10 10 6 0 10 -4 10 -10z
m400 0 c0 -5 -4 -10 -10 -10 -5 0 -10 5 -10 10 0 6 5 10 10 10 6 0 10 -4 10
-10z m400 0 c0 -5 -4 -10 -10 -10 -5 0 -10 5 -10 10 0 6 5 10 10 10 6 0 10 -4
10 -10z m400 0 c0 -5 -4 -10 -10 -10 -5 0 -10 5 -10 10 0 6 5 10 10 10 6 0 10
-4 10 -10z m-1695 -10 c-4 -6 -2 -17 4 -24 9 -10 8 -15 -4 -20 -9 -3 -13 -2
-10 4 3 6 -1 13 -9 16 -9 3 -16 10 -16 16 0 5 5 6 10 3 6 -3 10 -1 10 4 0 6 5
11 11 11 5 0 7 -5 4 -10z m205 -11 c0 -5 -7 -9 -15 -9 -8 0 -15 -7 -15 -15 0
-9 -6 -12 -15 -9 -13 5 -13 8 0 21 9 8 13 18 10 23 -3 4 4 6 15 3 11 -3 20 -9
20 -14z m194 9 c-4 -6 0 -17 10 -23 15 -12 15 -13 -3 -18 -11 -3 -20 -2 -19 2
2 19 -3 31 -12 26 -5 -3 -10 -2 -10 4 0 5 6 12 13 14 21 9 28 7 21 -5z m189
-13 c-15 -11 -15 -15 -3 -29 12 -16 11 -16 -13 -5 -24 11 -25 13 -10 24 9 7
13 17 10 23 -5 6 0 8 13 5 19 -5 19 -6 3 -18z m211 10 c-4 -9 1 -18 11 -21 13
-5 14 -9 3 -15 -20 -13 -28 -11 -22 6 4 10 0 15 -12 15 -18 1 -18 1 0 15 25
19 27 19 20 0z m206 -6 c0 -5 -6 -8 -12 -6 -7 1 -12 -6 -12 -15 2 -22 -6 -23
-32 -4 -19 14 -19 14 1 13 13 -1 20 4 19 14 -1 11 5 15 17 12 11 -3 19 -9 19
-14z m194 6 c-4 -9 1 -18 11 -21 13 -5 14 -9 3 -15 -20 -13 -28 -11 -22 6 4 9
0 15 -10 15 -22 0 -20 17 2 23 9 3 18 5 19 6 1 0 0 -6 -3 -14z m206 -6 c0 -5
-7 -9 -16 -9 -10 0 -14 -6 -11 -14 4 -10 0 -12 -14 -9 -18 5 -18 6 -3 18 10 6
14 17 11 23 -5 6 0 8 13 5 11 -3 20 -9 20 -14z m199 14 c-4 -25 3 -35 19 -29
14 5 14 4 -2 -9 -25 -19 -37 -19 -30 0 4 10 0 15 -12 15 -18 1 -18 1 0 15 22
17 26 18 25 8z m185 1 c9 -3 16 -10 16 -16 0 -5 -4 -6 -10 -3 -9 5 -14 -7 -12
-26 1 -4 -8 -5 -19 -2 -18 5 -18 6 -3 18 10 6 14 17 10 23 -8 14 -4 15 18 6z
m-1874 -48 c0 -3 -4 -8 -10 -11 -5 -3 -10 -1 -10 4 0 6 5 11 10 11 6 0 10 -2
10 -4z m358 -8 c8 -8 15 -8 26 1 12 10 13 9 9 -10 -5 -18 -3 -21 14 -17 12 3
20 0 20 -7 0 -7 -8 -10 -20 -7 -17 4 -19 1 -15 -16 6 -23 -7 -31 -15 -9 -4 10
-7 10 -18 0 -17 -17 -37 -17 -21 -1 10 10 8 16 -10 31 -13 10 -17 16 -10 12
20 -10 35 4 21 21 -14 17 2 19 19 2z m429 3 c14 12 16 12 8 0 -5 -9 0 -20 16
-32 21 -16 22 -17 4 -16 -14 1 -20 -4 -19 -16 2 -14 -1 -15 -12 -6 -11 9 -18
9 -26 1 -7 -7 -17 -12 -22 -12 -6 0 -4 5 4 10 13 9 11 13 -10 29 -22 17 -22
19 -5 18 14 -1 20 4 19 16 -2 14 1 15 12 6 11 -9 18 -8 31 2z m400 0 c14 12
16 12 8 0 -5 -9 -2 -18 9 -26 14 -11 15 -13 1 -18 -9 -4 -12 -13 -8 -24 6 -16
5 -16 -10 -4 -14 11 -20 11 -34 0 -16 -13 -17 -12 -5 2 10 14 10 18 -4 23 -9
3 -21 3 -27 0 -7 -3 -1 3 12 14 16 13 21 24 16 33 -8 12 -6 12 8 0 14 -11 20
-11 34 0z m376 -3 c3 -10 8 -9 22 2 14 11 17 12 10 1 -5 -9 0 -20 16 -32 21
-16 22 -17 4 -16 -11 1 -25 8 -31 16 -6 8 -16 11 -21 8 -6 -4 -13 2 -16 13 -6
22 9 28 16 8z m-1531 -20 c-9 -9 -9 -15 1 -27 11 -14 10 -14 -5 -2 -10 7 -24
11 -31 8 -8 -3 -14 1 -14 8 0 7 8 10 18 8 9 -3 20 0 23 6 4 6 10 11 14 11 3 0
1 -5 -6 -12z m148 8 c0 -3 -4 -8 -10 -11 -5 -3 -10 -1 -10 4 0 6 5 11 10 11 6
0 10 -2 10 -4z m397 -2 c-3 -3 -12 -4 -19 -1 -8 3 -5 6 6 6 11 1 17 -2 13 -5z
m400 0 c-3 -3 -12 -4 -19 -1 -8 3 -5 6 6 6 11 1 17 -2 13 -5z m403 -4 c0 -5
-7 -7 -15 -4 -8 4 -15 8 -15 10 0 2 7 4 15 4 8 0 15 -4 15 -10z m160 -14 c0
-2 -7 -7 -16 -10 -8 -3 -12 -2 -9 4 6 10 25 14 25 6z m-1370 -16 c0 -5 -5 -10
-11 -10 -5 0 -7 5 -4 10 3 6 8 10 11 10 2 0 4 -4 4 -10z m405 0 c3 -5 -1 -10
-10 -10 -9 0 -13 5 -10 10 3 6 8 10 10 10 2 0 7 -4 10 -10z m410 0 c3 -5 -1
-10 -9 -10 -9 0 -16 5 -16 10 0 6 4 10 9 10 6 0 13 -4 16 -10z m620 -28 c-3
-3 -11 1 -19 7 -8 7 -20 10 -26 6 -5 -3 -10 1 -10 10 0 15 3 14 30 -1 16 -10
27 -20 25 -22z m-1610 8 c3 -5 1 -10 -4 -10 -6 0 -11 5 -11 10 0 6 2 10 4 10
3 0 8 -4 11 -10z m1475 -5 c-10 -12 -9 -16 4 -21 22 -8 20 -21 -3 -27 -14 -3
-18 -1 -14 9 3 8 -2 17 -12 20 -14 6 -13 8 7 19 31 17 32 17 18 0z m-1376 -20
c-10 -6 -14 -17 -10 -23 9 -15 -4 -15 -24 -2 -13 9 -13 12 3 21 9 6 15 14 12
19 -3 4 4 6 15 3 19 -5 19 -6 4 -18z m184 -5 c15 -1 14 -3 -2 -15 -25 -19 -42
-19 -27 -1 14 17 -1 31 -21 21 -7 -4 -4 1 7 10 18 14 20 14 23 1 2 -9 11 -16
20 -16z m216 5 c-10 -6 -14 -17 -11 -23 5 -6 0 -8 -13 -5 -11 3 -20 10 -20 15
0 5 5 6 10 3 9 -5 14 7 12 26 -1 4 8 5 19 2 18 -5 18 -6 3 -18z m171 14 c-4
-6 -1 -16 7 -22 7 -7 11 -11 9 -10 -2 2 -10 -2 -17 -7 -9 -8 -12 -6 -10 7 1
12 -5 17 -19 16 -20 -1 -20 -1 -1 13 23 17 40 19 31 3z m233 2 c11 -6 10 -10
-3 -15 -9 -3 -15 -12 -12 -20 4 -10 0 -12 -14 -9 -23 6 -25 23 -3 23 10 0 14
6 10 15 -6 17 2 19 22 6z m166 -6 c-4 -9 0 -15 10 -15 22 0 20 -17 -3 -23 -12
-3 -18 1 -17 12 1 10 -6 15 -19 14 -20 -1 -20 -1 -1 13 25 18 37 18 30 -1z
m234 6 c11 -6 10 -10 -3 -15 -9 -3 -15 -12 -12 -20 4 -10 0 -12 -14 -9 -23 6
-25 23 -3 23 10 0 14 6 10 15 -6 17 2 19 22 6z m399 -13 c-10 -5 -14 -15 -10
-26 6 -14 4 -15 -9 -5 -8 7 -18 10 -21 6 -4 -3 -7 -1 -7 5 0 7 7 12 15 12 8 0
15 7 15 15 0 9 6 12 16 8 15 -5 15 -7 1 -15z m168 13 c-3 -6 3 -14 12 -20 16
-9 16 -12 3 -21 -21 -14 -30 -12 -24 5 4 9 -1 18 -12 22 -16 6 -16 7 2 14 26
10 26 10 19 0z m-1685 -49 c0 -5 -6 -17 -14 -28 -12 -15 -17 -17 -27 -6 -11
10 -10 12 4 12 9 0 16 3 16 8 -3 14 1 22 11 22 6 0 10 -4 10 -8z m400 -2 c0
-5 -4 -10 -10 -10 -5 0 -10 5 -10 10 0 6 5 10 10 10 6 0 10 -4 10 -10z m400 0
c0 -5 -4 -10 -10 -10 -5 0 -10 5 -10 10 0 6 5 10 10 10 6 0 10 -4 10 -10z
m400 0 c0 -5 -4 -10 -10 -10 -5 0 -10 5 -10 10 0 6 5 10 10 10 6 0 10 -4 10
-10z m403 -9 c-2 -6 2 -11 7 -11 6 0 10 -5 10 -11 0 -18 -23 -4 -32 20 -6 16
-5 21 5 18 6 -2 11 -10 10 -16z m-1783 -5 c0 -3 -4 -8 -10 -11 -5 -3 -10 -1
-10 4 0 6 5 11 10 11 6 0 10 -2 10 -4z m359 -8 c11 -10 14 -10 18 0 7 19 22
14 17 -5 -3 -11 -15 -18 -29 -18 -13 0 -21 2 -19 4 2 2 -1 10 -7 18 -14 17 2
17 20 1z m418 0 c3 6 10 12 16 12 8 0 8 -3 -1 -12 -9 -9 -7 -15 6 -25 15 -13
14 -13 -6 -3 -13 6 -29 9 -36 7 -6 -3 -12 3 -12 14 0 14 3 16 15 6 11 -9 15
-9 18 1z m402 -4 c5 3 11 0 14 -7 3 -9 -4 -14 -22 -14 -19 0 -27 5 -27 18 0
13 4 15 13 8 7 -6 16 -8 22 -5z m403 4 c16 16 33 15 19 -1 -6 -8 -9 -16 -7
-18 2 -2 -8 -4 -24 -5 -22 -1 -26 3 -22 18 4 15 7 17 13 6 6 -10 11 -10 21 0z
m-1379 -12 c4 -10 1 -13 -9 -9 -7 3 -14 9 -14 14 0 14 17 10 23 -5z m357 4 c0
-5 -4 -10 -10 -10 -5 0 -10 5 -10 10 0 6 5 10 10 10 6 0 10 -4 10 -10z m53
-11 l22 -21 -32 16 c-34 17 -41 26 -23 26 6 0 21 -10 33 -21z m347 11 c0 -5
-4 -10 -10 -10 -5 0 -10 5 -10 10 0 6 5 10 10 10 6 0 10 -4 10 -10z m40 0 c0
-5 -4 -10 -9 -10 -6 0 -13 5 -16 10 -3 6 1 10 9 10 9 0 16 -4 16 -10z m400 2
c0 -5 -13 -9 -30 -9 -16 0 -30 4 -30 9 0 4 14 8 30 8 17 0 30 -4 30 -8z m360
-1 c0 -5 -7 -11 -14 -14 -10 -4 -13 -1 -9 9 6 15 23 19 23 5z m-860 -36 c-7
-8 -18 -15 -24 -15 -6 0 -2 7 8 15 25 19 32 19 16 0z m-810 -5 c0 -5 -5 -10
-11 -10 -5 0 -7 5 -4 10 3 6 8 10 11 10 2 0 4 -4 4 -10z m198 -6 c5 3 9 -1 9
-8 0 -11 -5 -12 -24 -3 -12 5 -23 15 -23 20 0 5 7 4 15 -3 8 -6 18 -9 23 -6z
m202 6 c0 -5 -5 -10 -11 -10 -5 0 -7 5 -4 10 3 6 8 10 11 10 2 0 4 -4 4 -10z
m175 -1 c4 -6 13 -8 19 -6 7 3 13 -1 13 -8 0 -11 -6 -11 -29 1 -28 15 -36 24
-19 24 6 0 13 -5 16 -11z m427 -3 c10 5 10 4 2 -5 -12 -13 -44 -5 -44 11 0 6
6 5 15 -2 8 -6 20 -8 27 -4z m194 -1 c-23 -18 -33 -19 -41 -5 -3 5 0 7 8 4 8
-3 18 -1 22 5 3 6 12 11 18 11 7 0 3 -7 -7 -15z m179 5 c3 -5 2 -10 -4 -10 -5
0 -13 5 -16 10 -3 6 -2 10 4 10 5 0 13 -4 16 -10z m225 2 c0 -5 -10 -14 -23
-19 -18 -9 -24 -8 -24 2 0 7 6 11 13 8 6 -2 15 0 19 6 7 13 15 14 15 3z m175
-2 c3 -5 1 -10 -4 -10 -6 0 -11 5 -11 10 0 6 2 10 4 10 3 0 8 -4 11 -10z
m-1710 -41 c4 -6 13 -8 21 -5 8 3 14 -1 14 -9 0 -9 -6 -12 -16 -8 -9 3 -20 0
-26 -8 -8 -11 -9 -11 -5 2 3 9 0 22 -6 28 -8 8 -8 11 0 11 7 0 15 -5 18 -11z
m400 0 c4 -6 13 -8 21 -5 8 3 14 -1 14 -9 0 -8 -6 -12 -14 -9 -8 3 -17 1 -21
-5 -3 -6 -11 -11 -17 -11 -7 0 -7 4 1 13 8 10 7 17 -1 25 -9 9 -9 12 -1 12 7
0 15 -5 18 -11z m400 0 c4 -6 13 -8 20 -5 7 2 16 -2 19 -11 5 -11 2 -14 -10
-9 -9 4 -24 1 -32 -6 -13 -11 -15 -10 -9 6 5 12 3 23 -5 28 -9 5 -10 8 -1 8 6
0 15 -5 18 -11z m430 1 c9 7 18 10 22 6 3 -3 1 -6 -6 -6 -8 0 -11 -6 -7 -16 5
-12 2 -15 -10 -10 -8 3 -25 1 -37 -5 -20 -9 -20 -9 -5 4 14 11 15 16 5 27 -10
12 -9 12 6 1 14 -11 20 -11 32 -1z m399 0 c12 9 15 8 13 -7 0 -12 -9 -18 -23
-18 -12 0 -20 2 -18 4 2 2 -2 11 -9 20 -11 14 -10 14 6 2 13 -10 20 -11 31 -1z
m-1417 -14 c0 -8 -6 -12 -15 -9 -11 5 -11 7 0 14 7 5 13 9 14 9 0 0 1 -6 1
-14z m40 -2 c0 -7 -6 -10 -14 -7 -7 3 -13 8 -13 12 0 4 6 8 13 8 8 0 14 -6 14
-13z m400 2 c0 -8 -6 -12 -15 -8 -9 3 -13 1 -9 -4 8 -14 -10 -40 -20 -30 -4 5
-2 11 6 14 10 3 7 9 -10 19 -19 11 -20 13 -4 9 11 -3 27 -1 35 4 8 5 15 10 16
10 0 0 1 -6 1 -14z m354 0 c4 -4 15 -3 26 2 15 9 20 8 20 -4 0 -8 -5 -14 -11
-13 -6 1 -18 1 -26 0 -13 -1 -13 -2 0 -11 8 -5 11 -13 6 -17 -8 -8 -21 11 -14
21 2 3 -6 12 -17 21 -13 10 -15 14 -5 13 8 -2 18 -7 21 -12z m399 -1 c0 -6 -6
-12 -13 -12 -8 0 -14 6 -14 12 0 6 6 12 14 12 7 0 13 -6 13 -12z m50 10 c0 -2
-10 -9 -22 -15 -22 -11 -22 -10 -4 4 21 17 26 19 26 11z m-1226 -40 c-4 -8
-14 -15 -23 -15 -14 1 -13 3 3 15 25 19 27 19 20 0z m1201 -5 c3 -5 -1 -10 -9
-10 -9 0 -16 5 -16 10 0 6 4 10 9 10 6 0 13 -4 16 -10z m-901 -13 c-2 -7 -14
-13 -25 -13 -19 0 -19 1 -3 13 10 7 21 13 26 13 4 0 5 -6 2 -13z"/>
<path d="M380 1700 c-12 -8 -12 -10 2 -15 20 -8 41 2 33 16 -8 11 -16 11 -35
-1z"/>
<path d="M782 1701 c-11 -7 -10 -10 3 -15 20 -7 38 1 30 15 -7 11 -16 11 -33
0z"/>
<path d="M1182 1701 c-11 -7 -10 -10 3 -15 20 -7 38 1 30 15 -7 11 -16 11 -33
0z"/>
<path d="M182 1348 c5 -15 28 -18 29 -3 0 6 -7 12 -17 13 -10 3 -15 -1 -12
-10z"/>
<path d="M576 1351 c-7 -11 22 -23 35 -15 5 3 7 10 4 15 -8 12 -32 12 -39 0z"/>
<path d="M1385 1351 c-3 -5 -1 -12 4 -15 13 -8 42 4 35 15 -7 12 -31 12 -39 0z"/>
<path d="M1785 1351 c-3 -5 -1 -12 5 -16 12 -7 30 2 30 16 0 12 -27 12 -35 0z"/>
<path d="M784 1009 c-10 -17 13 -36 27 -22 12 12 4 33 -11 33 -5 0 -12 -5 -16
-11z"/>
<path d="M385 1010 c-7 -12 2 -30 16 -30 5 0 9 9 9 20 0 21 -15 27 -25 10z"/>
<path d="M1184 1009 c-10 -17 13 -36 27 -22 12 12 4 33 -11 33 -5 0 -12 -5
-16 -11z"/>
<path d="M1590 1000 c0 -13 5 -20 13 -17 6 2 12 10 12 17 0 7 -6 15 -12 18 -8
2 -13 -5 -13 -18z"/>
<path d="M185 659 c-10 -15 1 -23 20 -15 9 3 13 10 10 16 -8 13 -22 13 -30 -1z"/>
<path d="M585 659 c-10 -15 1 -23 20 -15 9 3 13 10 10 16 -8 13 -22 13 -30 -1z"/>
<path d="M1385 660 c-8 -13 20 -24 36 -15 8 6 7 10 -2 16 -18 11 -26 11 -34
-1z"/>
<path d="M1785 660 c-8 -13 20 -24 36 -15 8 6 7 10 -2 16 -18 11 -26 11 -34
-1z"/>
<path d="M380 305 c0 -10 7 -15 18 -13 21 4 19 22 -2 26 -10 2 -16 -3 -16 -13z"/>
<path d="M782 311 c-11 -7 -10 -10 3 -15 20 -7 38 1 30 15 -7 11 -16 11 -33 0z"/>
<path d="M1182 311 c-11 -7 -10 -10 3 -15 20 -7 38 1 30 15 -7 11 -16 11 -33
0z"/>
<path d="M1985 1701 c-3 -5 -1 -12 5 -16 5 -3 10 1 10 9 0 18 -6 21 -15 7z"/>
<path d="M1987 1005 c-4 -8 -2 -17 3 -20 6 -4 10 3 10 14 0 25 -6 27 -13 6z"/>
<path d="M1985 311 c-3 -5 -1 -12 5 -16 5 -3 10 1 10 9 0 18 -6 21 -15 7z"/>
</g>
</svg>
