<?xml version="1.0" standalone="no"?>
<!DOCTYPE svg PUBLIC "-//W3C//DTD SVG 20010904//EN"
 "http://www.w3.org/TR/2001/REC-SVG-20010904/DTD/svg10.dtd">
<svg version="1.0" xmlns="http://www.w3.org/2000/svg"
 width="200.000000pt" height="200.000000pt" viewBox="0 0 200.000000 200.000000"
 preserveAspectRatio="xMidYMid meet">
<metadata>
Created by potrace 1.16, written by Peter Selinger 2001-2019
</metadata>
<g transform="translate(0.000000,200.000000) scale(0.100000,-0.100000)"
fill="#000000" stroke="none">
<path d="M16 1985 c16 -13 16 -14 2 -9 -22 7 -24 -14 -3 -22 8 -4 15 -11 15
-16 0 -6 -5 -6 -14 1 -12 10 -14 -39 -15 -330 -1 -313 1 -343 17 -356 16 -12
16 -13 0 -7 -10 3 -18 3 -18 -1 0 -4 8 -14 18 -22 13 -11 14 -14 2 -10 -18 5
-21 -28 -6 -52 6 -10 6 -12 -2 -7 -9 5 -12 -35 -12 -154 0 -119 3 -159 12
-154 8 5 8 3 2 -7 -15 -24 -12 -57 6 -52 12 4 11 2 -2 -10 -16 -12 -17 -46
-17 -386 1 -340 3 -372 18 -367 12 4 11 2 -3 -9 -18 -13 0 -15 177 -15 108 0
197 4 197 9 0 5 9 11 20 14 11 3 20 1 20 -3 0 -5 -8 -11 -18 -13 -9 -3 72 -5
181 -6 125 -1 197 3 197 9 0 6 6 10 14 10 8 0 17 6 19 13 3 6 6 2 6 -10 1 -23
2 -23 155 -23 114 0 156 3 159 13 4 9 6 9 6 0 1 -7 13 -13 29 -13 l27 0 -30
16 c-32 16 -54 34 -42 34 4 0 19 -7 32 -16 16 -10 35 -14 52 -10 27 6 27 6 9
-9 -18 -14 -4 -15 146 -15 124 0 168 3 171 13 4 9 6 9 6 0 1 -19 19 -16 24 4
4 17 5 17 6 1 0 -10 6 -18 12 -18 5 0 7 5 4 10 -3 6 -1 10 4 10 6 0 11 -5 11
-10 0 -7 68 -10 194 -10 l193 1 1 412 c0 294 -3 416 -12 426 -8 12 -8 13 2 7
9 -6 12 28 12 154 0 119 -3 159 -12 154 -7 -5 -8 -3 -2 7 5 8 10 31 11 53 2
30 0 37 -12 32 -8 -3 -15 -1 -15 4 0 6 7 10 15 10 13 0 16 17 14 115 -1 80 -5
118 -14 125 -9 7 -15 7 -19 1 -4 -5 2 -14 11 -20 10 -6 14 -10 8 -10 -5 -1
-21 9 -35 20 -14 11 -19 18 -11 14 7 -4 17 -2 21 6 7 10 11 10 24 0 13 -11 15
14 14 228 0 144 -4 241 -10 241 -5 0 -8 -10 -6 -22 2 -11 -2 -23 -9 -25 -17
-6 -4 39 15 55 13 10 -22 12 -183 12 -183 0 -197 -1 -179 -16 17 -14 17 -15 1
-10 -10 3 -23 6 -28 6 -6 0 -7 5 -4 10 4 7 -53 10 -164 10 -126 0 -171 -3
-174 -12 -4 -10 -6 -10 -6 0 -1 13 -37 17 -43 5 -4 -11 -70 -45 -75 -40 -2 3
11 14 29 26 l33 21 -182 -1 c-181 -1 -183 -1 -183 -22 0 -17 -2 -19 -9 -8 -6
9 -18 12 -37 7 -27 -6 -28 -5 -10 9 18 14 0 15 -180 14 -109 -1 -191 -3 -181
-6 9 -2 17 -8 17 -13 0 -5 -6 -7 -14 -4 -24 9 -16 -44 10 -60 21 -15 23 -14
27 7 4 21 4 21 6 -2 0 -13 9 -30 19 -38 9 -8 0 -6 -20 6 -37 20 -66 12 -31 -8
10 -6 14 -10 8 -10 -5 0 -18 6 -28 13 -14 11 -15 15 -5 20 10 5 10 7 0 12 -6
3 -12 19 -12 35 0 22 -4 27 -17 23 -15 -5 -15 -3 1 10 18 15 4 16 -179 16
-179 0 -197 -2 -179 -15z m1219 -5 c3 -5 1 -10 -4 -10 -6 0 -11 5 -11 10 0 6
2 10 4 10 3 0 8 -4 11 -10z m-1175 -25 c0 -8 -2 -15 -4 -15 -2 0 -6 7 -10 15
-3 8 -1 15 4 15 6 0 10 -7 10 -15z m290 5 c0 -5 -5 -10 -11 -10 -5 0 -7 5 -4
10 3 6 8 10 11 10 2 0 4 -4 4 -10z m121 -7 c13 -15 12 -15 -8 -4 -24 12 -29
21 -14 21 5 0 15 -7 22 -17z m279 7 c0 -5 -5 -10 -11 -10 -5 0 -7 5 -4 10 3 6
8 10 11 10 2 0 4 -4 4 -10z m115 0 c3 -5 2 -10 -4 -10 -5 0 -13 5 -16 10 -3 6
-2 10 4 10 5 0 13 -4 16 -10z m400 0 c3 -5 1 -10 -4 -10 -6 0 -11 5 -11 10 0
6 2 10 4 10 3 0 8 -4 11 -10z m295 5 c0 -2 -10 -10 -22 -16 -21 -11 -22 -11
-9 4 13 16 31 23 31 12z m105 -5 c3 -5 1 -10 -4 -10 -6 0 -11 5 -11 10 0 6 2
10 4 10 3 0 8 -4 11 -10z m295 6 c0 -3 -4 -8 -10 -11 -5 -3 -10 -1 -10 4 0 6
5 11 10 11 6 0 10 -2 10 -4z m-780 -21 c0 -8 -4 -15 -10 -15 -5 0 -7 7 -4 15
4 8 8 15 10 15 2 0 4 -7 4 -15z m54 0 c3 -8 1 -15 -4 -15 -6 0 -10 7 -10 15 0
8 2 15 4 15 2 0 6 -7 10 -15z m400 -1 c3 -8 2 -12 -4 -9 -6 3 -10 10 -10 16 0
14 7 11 14 -7z m-1199 -4 c3 -5 1 -10 -4 -10 -6 0 -11 5 -11 10 0 6 2 10 4 10
3 0 8 -4 11 -10z m400 0 c3 -5 1 -10 -4 -10 -6 0 -11 5 -11 10 0 6 2 10 4 10
3 0 8 -4 11 -10z m745 0 c0 -5 -5 -10 -11 -10 -5 0 -7 5 -4 10 3 6 8 10 11 10
2 0 4 -4 4 -10z m-835 -19 c-3 -6 -11 -11 -16 -11 -5 0 -4 6 3 14 14 16 24 13
13 -3z m111 -28 c-3 -3 -12 -1 -19 5 -9 8 -17 8 -24 1 -6 -6 -19 -6 -33 -1
l-24 9 23 12 c18 10 27 10 47 -4 23 -15 24 -14 25 7 l2 23 4 -23 c3 -13 2 -26
-1 -29z m307 16 c8 6 19 5 31 -5 11 -8 15 -14 9 -14 -7 0 -14 4 -18 9 -3 5
-27 -2 -53 -16 -26 -13 -38 -18 -28 -9 10 8 24 18 30 21 8 3 7 7 -1 11 -10 4
-10 8 0 19 10 11 13 9 15 -7 3 -13 7 -16 15 -9z m87 -25 c-7 -7 -18 -14 -24
-14 -6 0 -5 4 3 9 13 8 13 12 0 28 -13 16 -13 17 4 4 15 -12 17 -11 18 10 l2
24 4 -23 c3 -13 -1 -30 -7 -38z m297 34 c-3 -8 -6 -5 -6 6 -1 11 2 17 5 13 3
-3 4 -12 1 -19z m123 7 c11 -13 10 -14 -4 -9 -9 3 -16 10 -16 15 0 13 6 11 20
-6z m-1325 -5 c-3 -5 -11 -10 -16 -10 -6 0 -7 5 -4 10 3 6 11 10 16 10 6 0 7
-4 4 -10z m1276 -2 c8 -7 12 -12 10 -11 -2 2 -10 -2 -18 -9 -10 -8 -17 -8 -24
-1 -7 7 -25 3 -57 -15 -60 -32 -48 -18 15 19 56 33 55 33 74 17z m329 3 c0 -5
-10 -11 -22 -14 -22 -6 -22 -6 -4 8 23 17 26 18 26 6z m-1900 -22 l25 -20 -25
12 c-14 7 -28 12 -32 11 -5 -1 -8 3 -8 8 0 15 12 12 40 -11z m329 9 c-32 -20
-89 -47 -89 -44 0 8 84 55 89 51 2 -3 2 -6 0 -7z m1611 4 c0 -4 -15 -13 -32
-20 l-33 -12 25 20 c27 21 40 25 40 12z m-1773 -29 c-14 -14 -19 -15 -29 -4
-11 10 -10 11 3 6 10 -4 20 -2 24 4 3 6 9 11 13 11 3 0 -1 -8 -11 -17z m556 4
c4 3 7 1 7 -5 0 -7 7 -12 15 -12 8 0 15 -4 15 -10 0 -18 -20 -11 -48 17 -15
15 -20 21 -11 15 9 -7 19 -9 22 -5z m-155 -7 c-2 -5 1 -10 5 -10 12 1 40 -30
34 -36 -3 -4 -16 3 -28 15 -13 12 -28 21 -33 21 -6 0 -4 5 4 10 19 12 21 12
18 0z m112 5 c0 -2 -10 -9 -22 -15 -22 -11 -22 -10 -4 4 21 17 26 19 26 11z
m284 -6 c-9 -15 17 -20 34 -8 16 12 16 12 0 -6 -14 -15 -19 -16 -33 -5 -12 10
-19 10 -27 2 -7 -7 -17 -12 -22 -12 -6 0 -3 5 7 11 9 6 15 13 13 17 -3 4 4 8
14 8 10 0 17 -4 14 -7z m396 -3 c-7 -7 -13 -7 -20 0 -6 6 -3 10 10 10 13 0 16
-4 10 -10z m225 4 c3 -5 1 -10 -4 -10 -6 0 -11 5 -11 10 0 6 2 10 4 10 3 0 8
-4 11 -10z m185 4 c0 -1 -18 -13 -40 -28 -22 -14 -40 -24 -40 -20 0 7 27 34
37 37 4 1 7 4 6 7 -1 3 7 6 18 6 10 0 19 -1 19 -2z m-1783 -10 c-3 -3 -12 -4
-19 -1 -8 3 -5 6 6 6 11 1 17 -2 13 -5z m1413 -9 c-7 -8 -17 -15 -23 -15 -6 0
-2 7 9 15 25 19 30 19 14 0z m404 0 c-23 -17 -34 -19 -34 -4 0 5 4 8 9 4 5 -3
12 -1 16 5 3 5 11 10 18 10 6 0 2 -7 -9 -15z m125 11 c-2 -2 -15 -9 -29 -15
-24 -11 -24 -11 -6 3 16 13 49 24 35 12z m-1799 -18 c0 -4 8 -8 17 -8 15 0 14
-2 -3 -15 -10 -8 -23 -14 -29 -15 -5 0 -3 5 5 10 13 8 12 11 -4 23 -16 12 -16
14 -2 14 9 0 16 -4 16 -9z m230 4 c0 -5 -7 -9 -15 -9 -8 0 -12 4 -9 9 3 4 9 8
15 8 5 0 9 -4 9 -8z m165 -10 c-3 -3 -11 0 -18 7 -9 10 -8 11 6 5 10 -3 15 -9
12 -12z m385 -17 c0 -10 -16 -4 -40 16 l-25 20 33 -16 c17 -8 32 -18 32 -20z
m249 32 c-2 -1 -13 -9 -24 -17 -19 -14 -19 -14 -6 3 7 9 18 17 24 17 6 0 8 -1
6 -3z m401 -7 c0 -5 -4 -10 -10 -10 -5 0 -10 5 -10 10 0 6 5 10 10 10 6 0 10
-4 10 -10z m-1360 -10 c8 -5 12 -10 10 -12 -28 -18 -70 -35 -70 -29 0 4 12 13
27 20 22 10 24 14 12 22 -7 5 -9 9 -4 9 6 0 17 -4 25 -10z m80 5 c0 -2 -10 -9
-22 -15 -22 -11 -22 -10 -4 4 21 17 26 19 26 11z m226 -23 c-4 -3 -14 2 -24
12 -16 18 -16 18 6 6 13 -6 21 -14 18 -18z m514 13 c-7 -8 -18 -15 -24 -15 -6
0 -2 7 8 15 25 19 32 19 16 0z m295 -1 c-9 -9 -19 -13 -23 -10 -3 4 0 11 8 16
24 15 33 11 15 -6z m105 1 c-7 -8 -18 -15 -24 -15 -6 0 -2 7 8 15 25 19 32 19
16 0z m406 6 c-3 -5 -21 -18 -39 -29 -26 -15 -37 -17 -49 -8 -13 10 -13 13 -1
24 11 11 17 11 28 2 11 -9 19 -8 37 4 26 18 32 20 24 7z m-1726 -11 c0 -5 -2
-10 -4 -10 -3 0 -8 5 -11 10 -3 6 -1 10 4 10 6 0 11 -4 11 -10z m471 -11 c11
-12 15 -27 11 -37 -6 -14 -7 -13 -10 5 -2 15 -8 20 -20 17 -13 -5 -14 -4 -3 4
8 6 10 12 3 16 -6 4 -15 -2 -21 -11 -6 -10 -11 -13 -11 -7 0 10 20 34 28 34 3
0 13 -9 23 -21z m395 7 c19 -19 18 -21 -8 -23 -16 -2 -19 0 -9 6 9 6 10 11 2
15 -11 7 -16 0 -24 -39 -4 -16 -5 -15 -6 6 0 14 4 30 11 37 15 15 16 15 34 -2z
m629 4 c3 -6 -1 -7 -9 -4 -18 7 -21 14 -7 14 6 0 13 -4 16 -10z m-695 -32 c0
-6 -6 -5 -15 2 -8 7 -15 14 -15 16 0 2 7 1 15 -2 8 -4 15 -11 15 -16z m120 7
c-7 -9 -15 -13 -19 -10 -3 3 1 10 9 15 21 14 24 12 10 -5z m286 -13 c-4 -3
-14 2 -24 12 -16 18 -16 18 6 6 13 -6 21 -14 18 -18z m38 22 c9 -3 16 -11 16
-16 0 -6 -6 -6 -14 1 -12 10 -15 8 -19 -11 -4 -20 -4 -20 -6 5 -1 29 0 30 23
21z m46 -26 c0 -19 -16 -5 -17 14 -2 18 0 20 7 8 5 -8 10 -18 10 -22z m-1276
7 c11 -8 18 -17 15 -19 -2 -3 -15 4 -29 14 -14 11 -20 20 -15 19 6 0 19 -6 29
-14z m96 5 c0 -5 -5 -10 -11 -10 -5 0 -7 5 -4 10 3 6 8 10 11 10 2 0 4 -4 4
-10z m304 -5 c11 -8 18 -17 15 -19 -2 -3 -15 4 -29 14 -14 11 -20 20 -15 19 6
0 19 -6 29 -14z m906 11 c0 -3 -4 -8 -10 -11 -5 -3 -10 -1 -10 4 0 6 5 11 10
11 6 0 10 -2 10 -4z m285 -6 c3 -5 1 -10 -4 -10 -6 0 -11 5 -11 10 0 6 2 10 4
10 3 0 8 -4 11 -10z m95 -10 c-14 -10 -27 -16 -30 -13 -6 6 30 33 44 33 6 0 0
-9 -14 -20z m-1623 -12 c-3 -8 -6 -5 -6 6 -1 11 2 17 5 13 3 -3 4 -12 1 -19z
m1550 0 c-3 -8 -6 -5 -6 6 -1 11 2 17 5 13 3 -3 4 -12 1 -19z m-1227 -14 c0
-2 -9 0 -20 6 -11 6 -20 13 -20 16 0 2 9 0 20 -6 11 -6 20 -13 20 -16z m482 8
c3 -9 1 -26 -3 -37 -6 -15 -8 -11 -8 18 -1 40 4 48 11 19z m-887 -2 c3 -5 2
-10 -4 -10 -5 0 -13 5 -16 10 -3 6 -2 10 4 10 5 0 13 -4 16 -10z m65 6 c0 -3
-4 -8 -10 -11 -5 -3 -10 -1 -10 4 0 6 5 11 10 11 6 0 10 -2 10 -4z m40 -16
c-14 -11 -29 -20 -35 -20 -5 0 1 9 15 20 14 11 30 20 35 20 6 0 -1 -9 -15 -20z
m360 16 c0 -3 -4 -8 -10 -11 -5 -3 -10 -1 -10 4 0 6 5 11 10 11 6 0 10 -2 10
-4z m54 -11 c-4 -8 -8 -15 -10 -15 -2 0 -4 7 -4 15 0 8 4 15 10 15 5 0 7 -7 4
-15z m286 -10 c0 -14 -2 -25 -4 -25 -2 0 -6 11 -8 25 -3 14 -1 25 3 25 5 0 9
-11 9 -25z m60 21 c0 -3 -4 -8 -10 -11 -5 -3 -10 -1 -10 4 0 6 5 11 10 11 6 0
10 -2 10 -4z m60 0 c0 -3 -4 -8 -10 -11 -5 -3 -10 -1 -10 4 0 6 5 11 10 11 6
0 10 -2 10 -4z m280 -11 c0 -8 -2 -15 -4 -15 -2 0 -6 7 -10 15 -3 8 -1 15 4
15 6 0 10 -7 10 -15z m460 5 c0 -5 -2 -10 -4 -10 -3 0 -8 5 -11 10 -3 6 -1 10
4 10 6 0 11 -4 11 -10z m-1230 -20 c0 -5 -2 -10 -4 -10 -3 0 -8 5 -11 10 -3 6
-1 10 4 10 6 0 11 -4 11 -10z m40 -10 c-19 -12 -30 -12 -30 -1 0 10 31 20 40
14 2 -2 -2 -8 -10 -13z m360 10 c0 -5 -2 -10 -4 -10 -3 0 -8 5 -11 10 -3 6 -1
10 4 10 6 0 11 -4 11 -10z m405 0 c4 -6 11 -8 16 -5 5 4 9 1 9 -5 0 -7 -6 -10
-14 -7 -10 4 -16 -2 -18 -21 -3 -23 -4 -22 -9 11 -5 35 3 48 16 27z m55 6 c0
-3 -4 -8 -10 -11 -5 -3 -10 -1 -10 4 0 6 5 11 10 11 6 0 10 -2 10 -4z m345 -6
c4 -6 11 -8 16 -5 5 4 9 -4 9 -17 0 -15 -3 -19 -8 -10 -5 6 -17 19 -28 27 -10
8 -14 15 -7 15 6 0 15 -5 18 -10z m-775 -10 c0 -5 -4 -10 -10 -10 -5 0 -10 5
-10 10 0 6 5 10 10 10 6 0 10 -4 10 -10z m737 -22 c-3 -7 -5 -2 -5 12 0 14 2
19 5 13 2 -7 2 -19 0 -25z m-1550 -40 c-3 -7 -5 -2 -5 12 0 14 2 19 5 13 2 -7
2 -19 0 -25z m780 -15 c-3 -10 -5 -4 -5 12 0 17 2 24 5 18 2 -7 2 -21 0 -30z
m419 -26 c8 3 14 0 14 -7 0 -6 -4 -9 -9 -5 -5 3 -12 1 -16 -5 -13 -21 -21 -9
-16 23 4 25 6 27 9 10 2 -14 8 -20 18 -16z m381 11 c-3 -8 -6 -5 -6 6 -1 11 2
17 5 13 3 -3 4 -12 1 -19z m-1580 -20 c-3 -7 -5 -2 -5 12 0 14 2 19 5 13 2 -7
2 -19 0 -25z m835 7 c3 -14 1 -25 -3 -25 -5 0 -9 11 -9 25 0 14 2 25 4 25 2 0
6 -11 8 -25z m-395 -16 c19 -12 32 -23 30 -25 -5 -5 -76 30 -77 39 0 12 10 8
47 -14z m373 11 c0 -5 -2 -10 -4 -10 -3 0 -8 5 -11 10 -3 6 -1 10 4 10 6 0 11
-4 11 -10z m800 -2 c0 -6 -3 -8 -6 -5 -4 4 -20 -3 -36 -14 -16 -12 -31 -19
-34 -16 -5 5 56 47 69 47 4 0 7 -5 7 -12z m-1580 -8 c0 -5 -2 -10 -4 -10 -3 0
-8 5 -11 10 -3 6 -1 10 4 10 6 0 11 -4 11 -10z m350 0 c0 -5 -5 -10 -11 -10
-5 0 -7 5 -4 10 3 6 8 10 11 10 2 0 4 -4 4 -10z m400 0 c0 -5 -5 -10 -11 -10
-5 0 -7 5 -4 10 3 6 8 10 11 10 2 0 4 -4 4 -10z m370 -10 c0 -11 -4 -20 -9
-20 -5 0 -7 9 -4 20 3 11 7 20 9 20 2 0 4 -9 4 -20z m85 10 c3 -5 1 -10 -4
-10 -6 0 -11 5 -11 10 0 6 2 10 4 10 3 0 8 -4 11 -10z m400 0 c3 -5 1 -10 -4
-10 -6 0 -11 5 -11 10 0 6 2 10 4 10 3 0 8 -4 11 -10z m-1570 -28 c-8 -8 -25
10 -19 20 4 6 9 5 15 -3 4 -7 6 -15 4 -17z m-115 14 c0 -3 -4 -8 -10 -11 -5
-3 -10 -1 -10 4 0 6 5 11 10 11 6 0 10 -2 10 -4z m55 -6 c3 -5 1 -10 -4 -10
-6 0 -11 5 -11 10 0 6 2 10 4 10 3 0 8 -4 11 -10z m345 5 c0 -2 -10 -9 -22
-15 -22 -11 -22 -10 -4 4 21 17 26 19 26 11z m24 -26 c-21 -10 -39 -17 -41
-15 -7 6 61 45 69 39 5 -2 -8 -13 -28 -24z m376 21 c0 -5 -5 -10 -11 -10 -5 0
-7 5 -4 10 3 6 8 10 11 10 2 0 4 -4 4 -10z m115 0 c3 -5 1 -10 -4 -10 -6 0
-11 5 -11 10 0 6 2 10 4 10 3 0 8 -4 11 -10z m345 0 c0 -5 -5 -10 -11 -10 -5
0 -7 5 -4 10 3 6 8 10 11 10 2 0 4 -4 4 -10z m400 0 c0 -5 -5 -10 -11 -10 -5
0 -7 5 -4 10 3 6 8 10 11 10 2 0 4 -4 4 -10z m-1630 -10 c0 -5 -5 -10 -11 -10
-5 0 -7 5 -4 10 3 6 8 10 11 10 2 0 4 -4 4 -10z m466 -10 c8 0 14 -5 14 -11 0
-5 -5 -7 -11 -3 -6 3 -15 1 -19 -6 -6 -10 -12 -10 -26 0 -16 10 -16 11 -1 6
12 -4 17 0 18 17 0 12 3 16 6 10 2 -7 11 -13 19 -13z m331 -17 c-3 -10 -5 -4
-5 12 0 17 2 24 5 18 2 -7 2 -21 0 -30z m55 8 c4 -27 3 -29 -16 -19 -28 14
-35 23 -13 15 12 -5 17 -1 17 13 0 30 7 24 12 -9z m808 8 c0 -6 -4 -7 -10 -4
-5 3 -10 11 -10 16 0 6 5 7 10 4 6 -3 10 -11 10 -16z m-444 -8 c8 7 14 7 14 1
0 -8 -22 -22 -36 -22 -2 0 -3 10 -3 23 1 17 2 18 6 4 4 -14 8 -16 19 -6z m76
-9 c12 -14 10 -14 -10 -3 -21 11 -26 10 -39 -8 -8 -12 -18 -21 -24 -21 -5 0 0
9 11 20 12 12 18 25 15 29 -9 15 34 0 47 -17z m324 9 c8 6 14 7 14 2 0 -5 -12
-16 -27 -23 -17 -7 -23 -14 -15 -17 7 -3 24 3 38 12 23 15 27 15 50 0 13 -8
24 -18 24 -21 0 -4 -12 1 -26 11 -21 13 -28 14 -42 3 -9 -7 -19 -14 -21 -15
-3 -2 4 -10 15 -19 10 -8 13 -13 6 -9 -7 4 -21 1 -30 -7 -15 -12 -16 -11 -3 5
7 9 11 17 7 17 -13 0 -21 4 -33 16 -16 16 -16 25 -1 22 7 -2 15 8 17 22 3 19
5 21 9 7 3 -14 7 -16 18 -6z m-1646 -1 c0 -5 -5 -10 -11 -10 -5 0 -7 5 -4 10
3 6 8 10 11 10 2 0 4 -4 4 -10z m98 -12 c-4 12 -2 22 3 22 5 0 9 -9 9 -21 0
-25 -26 -54 -35 -39 -3 5 0 10 7 10 8 1 5 7 -7 16 -12 9 -30 13 -45 9 -24 -6
-24 -6 -5 8 18 14 23 13 49 -6 l29 -21 -5 22z m702 13 c0 -5 -7 -12 -16 -15
-14 -5 -15 -4 -4 9 14 17 20 19 20 6z m121 -8 c10 -11 10 -14 2 -9 -7 4 -13 3
-13 -1 0 -5 6 -15 13 -22 10 -10 9 -11 -5 -6 -10 4 -18 17 -18 31 0 28 3 30
21 7z m289 13 c0 -3 -4 -8 -10 -11 -5 -3 -10 -1 -10 4 0 6 5 11 10 11 6 0 10
-2 10 -4z m400 0 c0 -3 -4 -8 -10 -11 -5 -3 -10 -1 -10 4 0 6 5 11 10 11 6 0
10 -2 10 -4z m105 -6 c3 -5 1 -10 -4 -10 -6 0 -11 5 -11 10 0 6 2 10 4 10 3 0
8 -4 11 -10z m-1684 -37 c13 2 18 2 12 0 -7 -3 -13 -8 -13 -12 0 -4 -7 -8 -15
-8 -8 0 -15 5 -15 10 0 5 -7 6 -16 3 -14 -6 -15 -4 -4 9 9 11 15 12 20 5 4 -6
18 -9 31 -7z m374 7 c-3 -5 1 -10 9 -10 27 0 18 -15 -16 -28 -28 -10 -30 -9
-15 2 22 17 22 30 1 22 -14 -5 -15 -4 -4 9 14 17 35 21 25 5z m91 -16 c-9 -9
-20 -14 -23 -10 -4 3 2 13 13 20 25 18 31 12 10 -10z m154 -4 c8 -5 11 -10 5
-10 -5 0 -21 10 -35 21 -24 20 -5 13 30 -11z m160 26 c0 -3 -4 -8 -10 -11 -5
-3 -10 -1 -10 4 0 6 5 11 10 11 6 0 10 -2 10 -4z m407 -11 c8 -9 12 -19 9 -23
-4 -3 -11 0 -16 7 -5 8 -15 11 -25 7 -15 -5 -16 -4 -5 9 16 19 18 19 37 0z
m104 -2 c13 -15 12 -15 -8 -4 -24 12 -29 21 -14 21 5 0 15 -7 22 -17z m-1068
-6 c4 3 7 1 7 -5 0 -7 -7 -12 -15 -12 -8 0 -15 -4 -15 -10 0 -5 -3 -9 -7 -9
-22 4 -25 -3 -7 -17 18 -14 18 -14 -5 -3 l-25 12 23 18 c14 11 20 23 15 31 -6
10 -5 11 8 1 8 -7 18 -10 21 -6z m-93 -23 c0 -2 -9 0 -20 6 -11 6 -20 13 -20
16 0 2 9 0 20 -6 11 -6 20 -13 20 -16z m400 0 c0 -2 -9 0 -20 6 -11 6 -20 13
-20 16 0 2 9 0 20 -6 11 -6 20 -13 20 -16z m270 16 c0 -5 -4 -10 -10 -10 -5 0
-10 5 -10 10 0 6 5 10 10 10 6 0 10 -4 10 -10z m60 0 c0 -5 -4 -10 -10 -10 -5
0 -10 5 -10 10 0 6 5 10 10 10 6 0 10 -4 10 -10z m165 0 c3 -5 1 -10 -4 -10
-6 0 -11 5 -11 10 0 6 2 10 4 10 3 0 8 -4 11 -10z m235 0 c0 -5 -4 -10 -10
-10 -5 0 -10 5 -10 10 0 6 5 10 10 10 6 0 10 -4 10 -10z m165 0 c3 -5 1 -10
-4 -10 -6 0 -11 5 -11 10 0 6 2 10 4 10 3 0 8 -4 11 -10z m239 2 c3 -5 -1 -9
-9 -9 -8 0 -15 4 -15 9 0 4 4 8 9 8 6 0 12 -4 15 -8z m-1064 -24 c0 -5 -9 -4
-20 2 -11 6 -20 12 -20 14 0 2 9 2 20 -1 11 -3 20 -9 20 -15z m350 -4 c0 -2
-9 0 -20 6 -11 6 -20 13 -20 16 0 2 9 0 20 -6 11 -6 20 -13 20 -16z m580 21
c0 -2 -10 -9 -22 -15 -22 -11 -22 -10 -4 4 21 17 26 19 26 11z m205 -5 c3 -6
-1 -7 -9 -4 -18 7 -21 14 -7 14 6 0 13 -4 16 -10z m-1875 -4 c0 -2 -7 -6 -15
-10 -8 -3 -15 -1 -15 4 0 6 7 10 15 10 8 0 15 -2 15 -4z m174 -4 c2 -4 -4 -8
-14 -8 -10 0 -16 4 -14 8 3 4 9 8 14 8 5 0 11 -4 14 -8z m228 -3 c3 -9 10 -9
28 0 22 11 23 11 8 -2 -10 -8 -18 -23 -19 -33 0 -17 -1 -17 -9 2 -11 27 -27
38 -35 24 -3 -5 -11 -10 -18 -10 -6 0 -2 7 9 15 23 18 31 18 36 4z m173 1 c3
-6 -1 -7 -9 -4 -18 7 -21 14 -7 14 6 0 13 -4 16 -10z m227 -1 c3 -9 11 -8 28
1 l25 13 -20 -21 c-11 -11 -24 -19 -30 -18 -5 0 -10 -7 -10 -16 0 -9 -4 -20
-8 -24 -4 -4 -7 0 -7 9 0 11 -6 15 -17 11 -15 -5 -15 -4 -3 5 8 5 11 13 7 17
-3 4 -13 2 -20 -4 -10 -9 -18 -8 -33 4 -18 15 -18 15 2 5 15 -7 24 -7 32 1 8
8 15 8 25 0 18 -15 30 -3 16 15 -8 8 -8 13 -1 13 6 0 12 -5 14 -11z m172 3 c2
-4 -4 -8 -14 -8 -10 0 -16 4 -14 8 3 4 9 8 14 8 5 0 11 -4 14 -8z m166 -4 c0
-6 -3 -8 -7 -5 -3 4 -13 1 -22 -6 -14 -11 -14 -10 -2 6 15 20 31 22 31 5z m46
-3 c-11 -8 -24 -15 -30 -15 -5 0 -1 7 10 15 10 8 24 14 29 14 6 0 1 -6 -9 -14z
m184 11 c0 -2 -7 -7 -16 -10 -8 -3 -12 -2 -9 4 6 10 25 14 25 6z m179 -23 c8
8 14 8 22 0 13 -13 42 -6 33 8 -3 5 -10 7 -15 4 -5 -4 -9 -1 -9 4 0 15 15 14
29 -3 10 -12 8 -17 -7 -25 -13 -7 -22 -7 -30 1 -7 7 -15 8 -19 4 -4 -4 -1 -11
7 -16 8 -6 11 -10 7 -10 -11 0 -97 50 -97 57 0 3 15 -4 34 -15 25 -15 37 -17
45 -9z m156 17 c-3 -5 -12 -10 -18 -10 -7 0 -6 4 3 10 19 12 23 12 15 0z
m-1695 -20 c-14 -11 -29 -20 -35 -20 -5 0 3 9 20 20 38 25 48 25 15 0z m1080
-16 c0 -2 -9 0 -20 6 -11 6 -20 13 -20 16 0 2 9 0 20 -6 11 -6 20 -13 20 -16z
m127 -11 c-3 -10 -5 -4 -5 12 0 17 2 24 5 18 2 -7 2 -21 0 -30z m-34 17 c21
11 21 10 3 -4 -11 -9 -23 -16 -26 -16 -3 0 -15 7 -26 16 -18 14 -18 15 4 4 16
-8 28 -8 45 0z m-1179 -25 c-10 -8 -23 -14 -29 -14 -5 -1 1 8 15 19 14 10 27
17 29 14 3 -2 -4 -11 -15 -19z m301 14 c11 -17 -1 -21 -15 -4 -8 9 -8 15 -2
15 6 0 14 -5 17 -11z m73 0 c-10 -5 -18 -15 -18 -21 0 -9 3 -9 12 0 7 7 17 12
23 12 11 -1 -25 -30 -37 -30 -13 0 -9 38 5 43 22 9 32 7 15 -4z m332 -11 c0
-6 -6 -5 -15 2 -8 7 -15 14 -15 16 0 2 7 1 15 -2 8 -4 15 -11 15 -16z m416
-35 c8 -3 14 -11 14 -18 0 -9 -8 -6 -23 7 -18 16 -22 28 -18 47 l6 26 3 -28
c2 -16 10 -31 18 -34z m381 35 c-3 -8 -6 -5 -6 6 -1 11 2 17 5 13 3 -3 4 -12
1 -19z m124 8 c-11 -13 -51 -29 -51 -20 0 3 51 33 59 34 2 0 -2 -6 -8 -14z
m276 -8 c-3 -8 -6 -5 -6 6 -1 11 2 17 5 13 3 -3 4 -12 1 -19z m-1167 -8 c0 -5
-2 -10 -4 -10 -3 0 -8 5 -11 10 -3 6 -1 10 4 10 6 0 11 -4 11 -10z m400 0 c0
-5 -2 -10 -4 -10 -3 0 -8 5 -11 10 -3 6 -1 10 4 10 6 0 11 -4 11 -10z m54 -5
c-4 -8 -8 -15 -10 -15 -2 0 -4 7 -4 15 0 8 4 15 10 15 5 0 7 -7 4 -15z m346 5
c0 -5 -2 -10 -4 -10 -3 0 -8 5 -11 10 -3 6 -1 10 4 10 6 0 11 -4 11 -10z m405
0 c3 -5 1 -10 -4 -10 -6 0 -11 5 -11 10 0 6 2 10 4 10 3 0 8 -4 11 -10z
m-1925 -27 c0 -21 -3 -24 -9 -14 -5 8 -7 20 -4 28 8 21 13 15 13 -14z m400 7
c0 -5 -5 -10 -11 -10 -5 0 -7 5 -4 10 3 6 8 10 11 10 2 0 4 -4 4 -10z m290 0
c0 -5 -2 -10 -4 -10 -3 0 -8 5 -11 10 -3 6 -1 10 4 10 6 0 11 -4 11 -10z m115
0 c-3 -5 -11 -10 -16 -10 -6 0 -7 5 -4 10 3 6 11 10 16 10 6 0 7 -4 4 -10z
m405 6 c0 -9 -71 -48 -77 -42 -4 3 -4 7 -2 9 49 29 79 42 79 33z m285 -5 c3
-5 1 -12 -4 -15 -5 -3 -11 1 -15 9 -6 16 9 21 19 6z m115 5 c0 -3 -4 -8 -10
-11 -5 -3 -10 -1 -10 4 0 6 5 11 10 11 6 0 10 -2 10 -4z m284 -4 c2 -4 1 -14
-3 -21 -6 -9 -10 -7 -14 8 -5 20 7 29 17 13z m-1933 -25 c-10 -9 -11 -8 -5 6
3 10 9 15 12 12 3 -3 0 -11 -7 -18z m409 8 c0 -8 -7 -15 -15 -15 -11 0 -15
-12 -15 -50 0 -40 4 -51 21 -60 11 -7 19 -14 16 -17 -3 -2 -14 2 -26 9 -17 10
-21 23 -21 62 0 35 -5 53 -17 62 -16 13 -14 13 15 9 18 -3 32 -1 32 5 0 5 2
10 5 10 3 0 5 -7 5 -15z m1554 0 c3 -8 1 -15 -4 -15 -6 0 -10 7 -10 15 0 8 2
15 4 15 2 0 6 -7 10 -15z m-1194 -5 c8 -5 12 -11 9 -14 -3 -3 -14 1 -25 9 -21
16 -8 20 16 5z m40 -12 c0 -18 -2 -20 -9 -8 -6 8 -7 18 -5 22 9 14 14 9 14
-14z m780 1 c0 -5 -6 -6 -14 -3 -9 4 -16 -3 -19 -18 -3 -18 -5 -16 -6 9 -1 26
2 30 19 26 11 -3 20 -9 20 -14z m30 17 c0 -3 -4 -8 -10 -11 -5 -3 -10 -1 -10
4 0 6 5 11 10 11 6 0 10 -2 10 -4z m-1183 -38 c-3 -8 -6 -5 -6 6 -1 11 2 17 5
13 3 -3 4 -12 1 -19z m1520 -25 c-3 -10 -5 -4 -5 12 0 17 2 24 5 18 2 -7 2
-21 0 -30z m-800 -20 c-3 -10 -5 -2 -5 17 0 19 2 27 5 18 2 -10 2 -26 0 -35z
m-350 0 c-3 -10 -5 -4 -5 12 0 17 2 24 5 18 2 -7 2 -21 0 -30z m430 15 c-3 -8
-6 -5 -6 6 -1 11 2 17 5 13 3 -3 4 -12 1 -19z m-1230 -10 c-3 -8 -6 -5 -6 6
-1 11 2 17 5 13 3 -3 4 -12 1 -19z m1553 -33 c0 -19 -4 -35 -8 -35 -4 0 -6 16
-4 35 2 19 6 35 8 35 2 0 4 -16 4 -35z m-746 -20 c3 -8 1 -15 -4 -15 -6 0 -10
7 -10 15 0 8 2 15 4 15 2 0 6 -7 10 -15z m399 -21 c-2 -7 5 -18 17 -24 12 -6
20 -14 17 -16 -2 -3 -18 3 -36 13 -30 18 -32 17 -71 -5 -22 -12 -40 -20 -40
-17 0 11 80 56 89 50 7 -4 11 3 11 17 0 17 2 20 9 9 5 -8 7 -20 4 -27z m24 4
c-3 -7 -5 -2 -5 12 0 14 2 19 5 13 2 -7 2 -19 0 -25z m377 16 c3 -8 2 -12 -4
-9 -6 3 -10 10 -10 16 0 14 7 11 14 -7z m351 -5 c-10 -15 -25 -10 -19 6 4 8
10 12 15 9 5 -3 7 -10 4 -15z m-1950 1 c3 -5 2 -10 -4 -10 -5 0 -13 5 -16 10
-3 6 -2 10 4 10 5 0 13 -4 16 -10z m1145 0 c0 -5 -5 -10 -11 -10 -5 0 -7 5 -4
10 3 6 8 10 11 10 2 0 4 -4 4 -10z m477 -12 c-3 -8 -6 -5 -6 6 -1 11 2 17 5
13 3 -3 4 -12 1 -19z m-1592 -8 c3 -5 1 -10 -4 -10 -6 0 -11 5 -11 10 0 6 2
10 4 10 3 0 8 -4 11 -10z m280 0 c-3 -5 -11 -10 -16 -10 -6 0 -7 5 -4 10 3 6
11 10 16 10 6 0 7 -4 4 -10z m85 -12 c0 -5 -5 -6 -11 -2 -6 3 -15 0 -20 -7 -6
-10 -9 -10 -9 -2 0 7 -7 10 -17 7 -17 -5 -17 -5 0 9 18 15 57 12 57 -5z m315
12 c-3 -5 -11 -10 -16 -10 -6 0 -7 5 -4 10 3 6 11 10 16 10 6 0 7 -4 4 -10z
m29 -21 c-21 -10 -39 -17 -41 -15 -7 6 61 45 69 39 5 -2 -8 -13 -28 -24z m881
-3 c27 -21 17 -20 -27 3 -21 10 -35 21 -31 24 6 7 27 -3 58 -27z m295 24 c0
-5 -5 -10 -11 -10 -5 0 -7 5 -4 10 3 6 8 10 11 10 2 0 4 -4 4 -10z m-1115 -10
c3 -5 1 -10 -4 -10 -6 0 -11 5 -11 10 0 6 2 10 4 10 3 0 8 -4 11 -10z m763
-37 c8 -7 13 -16 9 -19 -11 -11 -37 24 -36 48 1 20 2 21 6 3 3 -11 12 -26 21
-32z m-478 33 c0 -2 -7 -7 -16 -10 -8 -3 -12 -2 -9 4 6 10 25 14 25 6z m-1060
-16 c0 -5 -2 -10 -4 -10 -3 0 -8 5 -11 10 -3 6 -1 10 4 10 6 0 11 -4 11 -10z
m405 0 c3 -5 2 -10 -4 -10 -5 0 -13 5 -16 10 -3 6 -2 10 4 10 5 0 13 -4 16
-10z m365 -11 c0 -12 -13 -11 -25 0 -6 6 -17 4 -29 -5 -20 -14 -20 -14 0 -29
25 -19 26 -19 52 5 21 19 23 20 47 4 29 -19 33 -29 6 -14 -24 12 -44 13 -37 1
3 -5 -2 -8 -12 -7 -9 0 -16 -5 -14 -13 2 -9 -7 -7 -30 7 -18 11 -39 21 -47 24
-22 6 48 46 70 41 11 -3 19 -9 19 -14z m35 11 c3 -5 1 -10 -4 -10 -6 0 -11 5
-11 10 0 6 2 10 4 10 3 0 8 -4 11 -10z m695 5 c0 -2 -10 -10 -22 -16 -21 -11
-22 -11 -9 4 13 16 31 23 31 12z m95 -29 c11 -8 16 -15 10 -16 -5 0 -23 12
-40 26 -31 26 -6 18 30 -10z m305 29 c0 -2 -10 -10 -22 -16 -21 -11 -22 -11
-9 4 13 16 31 23 31 12z m-1596 -30 c-10 -8 -23 -14 -29 -14 -5 -1 1 8 15 19
14 10 27 17 29 14 3 -2 -4 -11 -15 -19z m66 19 c0 -3 -7 -12 -15 -21 -20 -19
-32 -10 -14 11 14 15 29 21 29 10z m800 -3 c0 -4 -13 -8 -30 -7 -39 1 -39 16
0 16 17 0 30 -4 30 -9z m755 -1 c3 -5 1 -10 -4 -10 -6 0 -11 5 -11 10 0 6 2
10 4 10 3 0 8 -4 11 -10z m-1080 -18 c-3 -3 -11 0 -18 7 -9 10 -8 11 6 5 10
-3 15 -9 12 -12z m-836 -6 c10 -12 8 -13 -11 -8 -21 5 -22 4 -8 -14 14 -17 14
-18 -2 -6 -9 8 -22 11 -28 7 -5 -3 -10 -1 -10 4 0 6 7 11 15 11 8 0 15 5 15
10 0 15 16 12 29 -4z m411 -7 c23 -19 23 -20 2 -9 -12 6 -32 8 -44 4 -18 -5
-19 -4 -7 9 18 21 19 21 49 -4z m330 11 c0 -5 -4 -10 -10 -10 -5 0 -10 5 -10
10 0 6 5 10 10 10 6 0 10 -4 10 -10z m353 -2 c4 -10 7 -10 18 0 15 14 29 16
29 4 0 -4 -14 -13 -30 -19 -21 -8 -28 -8 -24 -1 5 7 -1 9 -15 5 -18 -4 -20 -3
-10 9 14 17 26 18 32 2z m108 -5 c13 -15 12 -15 -8 -4 -24 12 -29 21 -14 21 5
0 15 -7 22 -17z m289 9 c0 -4 12 -14 26 -23 21 -13 23 -17 10 -22 -9 -4 -15
-1 -13 6 1 7 -6 11 -15 11 -10 -1 -15 3 -11 9 4 6 -2 8 -16 4 -18 -4 -20 -3
-10 9 12 15 29 19 29 6z m406 -7 c17 -16 14 -18 -10 -9 -9 3 -16 10 -16 15 0
13 9 11 26 -6z m-1772 -20 c-28 -20 2 -28 31 -9 20 13 25 14 23 3 -2 -8 3 -13
10 -11 19 3 14 -4 -14 -23 -15 -9 -29 -13 -33 -8 -3 5 -17 17 -31 26 -13 9
-18 17 -11 17 7 0 11 6 8 14 -4 10 0 12 14 9 18 -5 18 -6 3 -18z m126 10 c0
-2 -10 -9 -22 -15 -22 -11 -22 -10 -4 4 21 17 26 19 26 11z m60 1 c0 -2 -7 -7
-16 -10 -8 -3 -12 -2 -9 4 6 10 25 14 25 6z m215 -9 c-28 -21 0 -31 32 -11
l28 16 -25 -21 c-26 -21 -13 -29 21 -11 32 18 21 3 -16 -20 -28 -17 -38 -19
-55 -10 -12 7 -19 14 -16 18 4 3 12 0 18 -6 14 -14 28 -16 28 -4 0 16 -41 33
-54 23 -9 -8 -18 -6 -32 5 -18 15 -18 15 1 5 16 -7 27 -5 45 10 14 10 29 19
34 19 6 0 2 -6 -9 -13z m650 3 c3 -6 -1 -7 -9 -4 -18 7 -21 14 -7 14 6 0 13
-4 16 -10z m400 0 c3 -6 -1 -7 -9 -4 -18 7 -21 14 -7 14 6 0 13 -4 16 -10z
m225 6 c0 -3 -18 -15 -40 -27 -22 -13 -40 -26 -40 -31 0 -13 -13 -9 -40 12
l-25 21 27 -12 c22 -10 32 -8 70 15 46 27 48 28 48 22z m-854 -25 c10 8 18 9
27 0 8 -6 17 -8 20 -4 4 3 7 4 7 0 0 -3 -16 -15 -35 -27 l-35 -22 -35 22 c-46
29 -45 38 1 11 20 -12 39 -19 43 -16 3 4 -1 10 -9 15 -8 5 -24 16 -35 25 -19
16 -18 16 8 0 22 -13 31 -14 43 -4z m94 15 c0 -2 -7 -7 -16 -10 -8 -3 -12 -2
-9 4 6 10 25 14 25 6z m306 -15 c8 6 17 10 19 7 3 -3 -6 -11 -20 -18 -14 -7
-25 -17 -25 -22 0 -12 5 -10 44 13 46 27 47 17 1 -11 l-35 -22 -35 22 c-36 22
-44 32 -22 28 6 -2 11 3 9 11 -2 11 3 10 23 -3 21 -14 29 -15 41 -5z m359 1
c-3 -3 -11 0 -18 7 -9 10 -8 11 6 5 10 -3 15 -9 12 -12z m-1360 -2 c3 -6 -1
-7 -9 -4 -18 7 -21 14 -7 14 6 0 13 -4 16 -10z m1475 5 c0 -2 -10 -9 -22 -15
-22 -11 -22 -10 -4 4 21 17 26 19 26 11z m-1740 -51 c0 -2 -13 2 -30 11 -16 9
-30 18 -30 21 0 2 14 -2 30 -11 17 -9 30 -18 30 -21z m400 0 c0 -2 -13 2 -30
11 -16 9 -30 18 -30 21 0 2 14 -2 30 -11 17 -9 30 -18 30 -21z m-370 16 c0 -5
-2 -10 -4 -10 -3 0 -8 5 -11 10 -3 6 -1 10 4 10 6 0 11 -4 11 -10z m770 -16
c0 -11 -5 -10 -20 3 -11 10 -20 18 -20 19 0 1 9 0 20 -3 11 -3 20 -12 20 -19z
m400 4 c0 -5 -9 -4 -20 2 -11 6 -20 12 -20 14 0 2 9 2 20 -1 11 -3 20 -9 20
-15z m490 17 c0 -2 -10 -10 -22 -16 -21 -11 -22 -11 -9 4 13 16 31 23 31 12z
m50 0 c0 -2 -10 -9 -22 -15 -22 -11 -22 -10 -4 4 21 17 26 19 26 11z m-1640
-25 c-14 -11 -29 -20 -35 -20 -5 0 1 9 15 20 14 11 30 20 35 20 6 0 -1 -9 -15
-20z m420 16 c0 -3 -4 -8 -10 -11 -5 -3 -10 -1 -10 4 0 6 5 11 10 11 6 0 10
-2 10 -4z m400 0 c0 -3 -4 -8 -10 -11 -5 -3 -10 -1 -10 4 0 6 5 11 10 11 6 0
10 -2 10 -4z m680 -6 c0 -5 -2 -10 -4 -10 -3 0 -8 5 -11 10 -3 6 -1 10 4 10 6
0 11 -4 11 -10z m-1553 -32 c-3 -7 -5 -2 -5 12 0 14 2 19 5 13 2 -7 2 -19 0
-25z m383 12 c0 -5 -2 -10 -4 -10 -3 0 -8 5 -11 10 -3 6 -1 10 4 10 6 0 11 -4
11 -10z m46 -5 c-11 -8 -24 -15 -30 -15 -5 0 -1 7 10 15 10 8 24 14 29 14 6 0
1 -6 -9 -14z m354 5 c0 -5 -2 -10 -4 -10 -3 0 -8 5 -11 10 -3 6 -1 10 4 10 6
0 11 -4 11 -10z m60 6 c0 -3 -4 -8 -10 -11 -5 -3 -10 -1 -10 4 0 6 5 11 10 11
6 0 10 -2 10 -4z m340 -6 c0 -5 -2 -10 -4 -10 -3 0 -8 5 -11 10 -3 6 -1 10 4
10 6 0 11 -4 11 -10z m60 6 c0 -3 -4 -8 -10 -11 -5 -3 -10 -1 -10 4 0 6 5 11
10 11 6 0 10 -2 10 -4z m345 -6 c4 -6 11 -8 16 -5 5 4 9 1 9 -4 0 -15 -13 -14
-36 4 -10 8 -14 15 -7 15 6 0 15 -5 18 -10z m-1525 -15 c0 -8 -4 -15 -10 -15
-5 0 -7 7 -4 15 4 8 8 15 10 15 2 0 4 -7 4 -15z m696 -13 c-4 -3 -14 2 -24 12
-16 18 -16 18 6 6 13 -6 21 -14 18 -18z m114 13 c-7 -9 -15 -13 -19 -10 -3 3
1 10 9 15 21 14 24 12 10 -5z m340 5 c0 -5 -5 -10 -11 -10 -5 0 -7 5 -4 10 3
6 8 10 11 10 2 0 4 -4 4 -10z m60 -5 c-7 -9 -15 -13 -19 -10 -3 3 1 10 9 15
21 14 24 12 10 -5z m410 11 c0 -3 -13 -14 -30 -26 -16 -12 -30 -17 -30 -11 0
6 12 17 28 25 31 17 32 18 32 12z m-1716 -21 c11 -8 18 -17 15 -19 -2 -3 -15
4 -29 14 -14 11 -20 20 -15 19 6 0 19 -6 29 -14z m400 0 c11 -8 18 -17 15 -19
-2 -3 -15 4 -29 14 -14 11 -20 20 -15 19 6 0 19 -6 29 -14z m95 -22 c-1 -37
-1 -37 -8 -8 -7 28 -5 45 5 45 2 0 3 -17 3 -37z m696 27 c3 -5 1 -10 -4 -10
-6 0 -11 5 -11 10 0 6 2 10 4 10 3 0 8 -4 11 -10z m400 0 c3 -5 1 -10 -4 -10
-6 0 -11 5 -11 10 0 6 2 10 4 10 3 0 8 -4 11 -10z m-1128 -37 c-3 -10 -5 -4
-5 12 0 17 2 24 5 18 2 -7 2 -21 0 -30z m373 15 c10 -3 8 -6 -8 -10 -18 -5
-22 -2 -22 15 0 13 3 17 8 11 4 -6 14 -13 22 -16z m27 -30 c-2 -13 -4 -5 -4
17 -1 22 1 32 4 23 2 -10 2 -28 0 -40z m350 -10 c-2 -13 -4 -3 -4 22 0 25 2
35 4 23 2 -13 2 -33 0 -45z m63 52 c0 -5 -5 -10 -11 -10 -5 0 -7 5 -4 10 3 6
8 10 11 10 2 0 4 -4 4 -10z m-1230 -14 c0 -3 -4 -8 -10 -11 -5 -3 -10 -1 -10
4 0 6 5 11 10 11 6 0 10 -2 10 -4z m1200 -6 c0 -5 -2 -10 -4 -10 -3 0 -8 5
-11 10 -3 6 -1 10 4 10 6 0 11 -4 11 -10z m400 -25 c0 -19 -2 -35 -4 -35 -2 0
-6 16 -8 35 -2 19 0 35 4 35 4 0 8 -16 8 -35z m-833 -27 c-3 -7 -5 -2 -5 12 0
14 2 19 5 13 2 -7 2 -19 0 -25z m-775 -18 c2 -22 0 -40 -4 -40 -5 0 -8 18 -8
40 0 22 2 40 4 40 2 0 6 -18 8 -40z m425 -27 c-2 -16 -4 -5 -4 22 0 28 2 40 4
28 2 -13 2 -35 0 -50z m400 15 c-3 -8 -6 -5 -6 6 -1 11 2 17 5 13 3 -3 4 -12
1 -19z m-370 -20 c-3 -7 -5 -2 -5 12 0 14 2 19 5 13 2 -7 2 -19 0 -25z m320
-5 c-3 -10 -5 -4 -5 12 0 17 2 24 5 18 2 -7 2 -21 0 -30z m419 -26 c8 3 14 0
14 -7 0 -6 -4 -9 -9 -5 -5 3 -12 1 -16 -5 -14 -22 -20 -8 -15 38 4 45 5 46 8
10 2 -27 7 -35 18 -31z m400 0 c8 3 14 -1 14 -8 0 -7 -3 -9 -6 -6 -4 4 -20 -3
-36 -14 -16 -12 -32 -19 -34 -16 -3 3 4 10 15 17 16 8 21 21 23 53 l1 42 4
-37 c3 -27 8 -35 19 -31z m14 37 c0 -14 -4 -23 -9 -20 -5 3 -7 15 -4 26 7 28
13 25 13 -6z m-1216 -14 c-10 -4 -21 -6 -24 -3 -8 7 24 22 34 16 5 -4 1 -10
-10 -13z m816 10 c0 -5 -5 -10 -11 -10 -5 0 -7 5 -4 10 3 6 8 10 11 10 2 0 4
-4 4 -10z m-1246 -25 c-10 -8 -23 -14 -29 -14 -5 -1 1 8 15 19 14 10 27 17 29
14 3 -2 -4 -11 -15 -19z m863 3 c-3 -8 -6 -5 -6 6 -1 11 2 17 5 13 3 -3 4 -12
1 -19z m-767 -10 c0 -18 -2 -20 -9 -8 -6 8 -7 18 -5 22 9 14 14 9 14 -14z
m1596 7 c10 -8 15 -14 9 -14 -5 0 -19 6 -29 14 -11 8 -15 15 -10 15 6 0 19 -7
30 -15z m-1659 -17 c-3 -8 -6 -5 -6 6 -1 11 2 17 5 13 3 -3 4 -12 1 -19z m358
12 c-3 -5 -11 -10 -16 -10 -6 0 -7 5 -4 10 3 6 11 10 16 10 6 0 7 -4 4 -10z
m107 -20 c3 -16 1 -30 -4 -30 -4 0 -8 14 -8 30 0 17 2 30 4 30 2 0 6 -13 8
-30z m288 22 c0 -5 -12 -14 -27 -21 l-28 -12 25 21 c29 22 30 23 30 12z m121
-9 c13 -15 12 -15 -8 -4 -24 12 -29 21 -14 21 5 0 15 -7 22 -17z m289 13 c0
-3 -4 -8 -10 -11 -5 -3 -10 -1 -10 4 0 6 5 11 10 11 6 0 10 -2 10 -4z m110
-11 c11 -13 10 -14 -4 -9 -9 3 -16 10 -16 15 0 13 6 11 20 -6z m290 11 c0 -3
-4 -8 -10 -11 -5 -3 -10 -1 -10 4 0 6 5 11 10 11 6 0 10 -2 10 -4z m-1127 -39
c-3 -6 5 -18 18 -29 14 -10 17 -17 9 -16 -8 2 -14 -3 -12 -10 2 -10 -6 -9 -28
4 -21 13 -26 20 -17 26 9 6 8 11 -3 19 -13 9 -12 10 3 5 13 -4 17 0 17 17 0
17 2 19 9 7 6 -8 7 -18 4 -23z m365 19 c-10 -7 -18 -20 -18 -28 0 -8 -12 -20
-27 -27 l-28 -12 24 19 c13 11 21 24 17 30 -3 6 2 15 11 21 26 15 41 13 21 -3z
m-768 -6 c0 -5 -2 -10 -4 -10 -3 0 -8 5 -11 10 -3 6 -1 10 4 10 6 0 11 -4 11
-10z m350 0 c0 -5 -5 -10 -11 -10 -5 0 -7 5 -4 10 3 6 8 10 11 10 2 0 4 -4 4
-10z m455 0 c3 -5 1 -10 -4 -10 -6 0 -11 5 -11 10 0 6 2 10 4 10 3 0 8 -4 11
-10z m400 0 c3 -5 1 -10 -4 -10 -6 0 -11 5 -11 10 0 6 2 10 4 10 3 0 8 -4 11
-10z m-485 -15 c0 -8 -4 -15 -10 -15 -5 0 -7 7 -4 15 4 8 8 15 10 15 2 0 4 -7
4 -15z m-800 0 c0 -2 -15 -12 -32 -20 l-33 -16 25 20 c24 20 40 26 40 16z m40
-10 c-7 -8 -18 -15 -24 -15 -6 0 -2 7 8 15 25 19 32 19 16 0z m75 5 c3 -5 2
-10 -4 -10 -5 0 -13 5 -16 10 -3 6 -2 10 4 10 5 0 13 -4 16 -10z m771 -11 c19
-11 34 -23 34 -26 0 -4 -3 -3 -7 0 -3 4 -12 2 -20 -4 -9 -9 -17 -8 -28 1 -8 6
-20 8 -26 4 -9 -5 -7 -11 6 -21 11 -7 14 -13 8 -13 -7 0 -15 5 -18 11 -4 6
-14 8 -24 5 -16 -6 7 15 39 35 13 8 13 10 0 19 -29 19 3 10 36 -11z m29 11 c3
-5 1 -10 -4 -10 -6 0 -11 5 -11 10 0 6 2 10 4 10 3 0 8 -4 11 -10z m285 0 c0
-5 -5 -10 -11 -10 -5 0 -7 5 -4 10 3 6 8 10 11 10 2 0 4 -4 4 -10z m76 -5 c10
-8 14 -15 9 -15 -6 0 -16 5 -23 12 -6 6 -15 8 -19 4 -4 -4 -1 -12 7 -17 12 -8
10 -9 -7 -4 -12 3 -31 1 -43 -5 -32 -17 -23 -4 13 19 39 25 38 25 63 6z m410
-13 c-4 -3 -14 2 -24 12 -16 18 -16 18 6 6 13 -6 21 -14 18 -18z m54 2 c0 -2
-9 0 -20 6 -11 6 -20 13 -20 16 0 2 9 0 20 -6 11 -6 20 -13 20 -16z m-1640 -4
c14 -11 18 -19 10 -18 -8 2 -14 -2 -13 -9 2 -7 -4 -10 -13 -6 -12 5 -13 7 -3
14 8 4 10 11 6 15 -10 11 -59 -14 -52 -26 4 -6 9 -8 13 -6 4 2 12 -2 19 -9 8
-9 5 -12 -17 -11 -15 1 -26 5 -23 10 3 4 0 11 -6 15 -7 5 -2 12 14 21 14 7 25
17 25 22 0 13 13 9 40 -12z m330 10 c0 -5 -5 -10 -11 -10 -5 0 -7 5 -4 10 3 6
8 10 11 10 2 0 4 -4 4 -10z m165 0 c3 -6 -1 -7 -9 -4 -18 7 -21 14 -7 14 6 0
13 -4 16 -10z m1050 -3 c11 -12 8 -17 -18 -31 l-32 -18 25 21 c27 22 13 28
-23 10 -19 -9 -18 -7 3 10 30 25 28 24 45 8z m-1430 -15 c-3 -3 -11 0 -18 7
-9 10 -8 11 6 5 10 -3 15 -9 12 -12z m240 -41 c-3 -2 -11 2 -19 8 -8 7 -21 9
-28 5 -7 -4 -10 -4 -6 1 4 4 2 15 -5 23 -6 9 5 5 25 -9 20 -13 35 -26 33 -28z
m885 23 c0 -2 -8 0 -18 5 -13 7 -24 4 -42 -10 -28 -21 -40 -24 -40 -8 0 5 4 8
8 5 4 -2 19 4 32 14 18 13 29 16 42 9 10 -5 18 -12 18 -15z m400 0 c0 -2 -9 0
-20 6 -11 6 -20 13 -20 16 0 2 9 0 20 -6 11 -6 20 -13 20 -16z m-1475 6 c-3
-5 -12 -10 -18 -10 -7 0 -6 4 3 10 19 12 23 12 15 0z m400 1 c-10 -16 15 -23
33 -9 15 12 16 11 3 -4 -12 -16 -11 -18 5 -18 13 0 15 -3 7 -11 -8 -8 -17 -6
-34 10 -13 11 -28 21 -33 21 -6 0 -4 5 4 10 19 12 23 12 15 1z m428 -15 c9 5
9 4 0 -6 -10 -11 -15 -11 -28 0 -12 10 -18 10 -30 0 -11 -9 -19 -10 -26 -3 -8
8 -6 11 7 10 12 -1 18 4 16 12 -2 11 3 10 23 -3 14 -9 31 -14 38 -10z m302 6
c-3 -3 -11 0 -18 7 -9 10 -8 11 6 5 10 -3 15 -9 12 -12z m43 -10 c-13 -9 -26
-21 -30 -26 -5 -7 -13 -5 -25 7 -16 16 -16 17 -1 12 20 -8 61 12 53 25 -3 6 1
7 10 4 13 -6 12 -9 -7 -22z m-1139 1 c-13 -15 -11 -16 10 -10 22 5 23 5 9 -10
-14 -13 -18 -13 -31 -2 -12 12 -12 15 2 26 22 17 26 16 10 -4z m271 -9 c0 -2
-9 0 -20 6 -11 6 -20 13 -20 16 0 2 9 0 20 -6 11 -6 20 -13 20 -16z m600 22
c0 -7 -72 -47 -77 -42 -3 2 12 14 34 25 42 22 43 23 43 17z m60 0 c0 -2 -7 -7
-16 -10 -8 -3 -12 -2 -9 4 6 10 25 14 25 6z m451 -5 c-7 -5 -11 -13 -7 -19 4
-6 -2 -8 -14 -5 -11 3 -20 10 -20 15 0 5 4 7 9 3 5 -3 12 -1 16 5 3 5 12 10
18 10 8 0 7 -3 -2 -9z m-1413 -38 c10 -10 9 -14 -6 -22 -13 -7 -26 -4 -50 11
-18 11 -31 23 -28 26 3 3 12 -1 21 -8 9 -7 18 -10 22 -6 4 3 -2 13 -13 21 -17
14 -16 14 11 3 17 -7 36 -18 43 -25z m357 19 c-3 -3 -11 0 -18 7 -9 10 -8 11
6 5 10 -3 15 -9 12 -12z m415 -12 c5 8 12 11 16 7 4 -4 0 -13 -8 -20 -9 -6
-18 -21 -21 -32 -4 -19 -5 -19 -6 2 -1 13 -15 30 -36 43 -48 30 -44 36 6 8 34
-19 42 -20 49 -8z m300 4 c0 -2 -9 0 -20 6 -11 6 -20 13 -20 16 0 2 9 0 20 -6
11 -6 20 -13 20 -16z m155 16 c-3 -5 -12 -10 -18 -10 -7 0 -6 4 3 10 19 12 23
12 15 0z m245 -16 c0 -2 -9 0 -20 6 -11 6 -20 13 -20 16 0 2 9 0 20 -6 11 -6
20 -13 20 -16z m-1825 -3 c-12 -12 -16 -12 -29 1 -13 13 -11 15 14 14 25 -1
27 -3 15 -15z m235 -7 c0 -2 -9 0 -20 6 -11 6 -20 13 -20 16 0 2 9 0 20 -6 11
-6 20 -13 20 -16z m1664 8 c-13 -13 -17 -13 -29 -1 -12 12 -10 14 15 15 25 1
27 -1 14 -14z m-1194 -12 c18 -13 31 -16 35 -10 8 12 25 13 25 1 0 -18 -39
-18 -69 1 -17 11 -31 22 -31 24 0 8 13 3 40 -16z m40 10 c0 -5 -4 -10 -10 -10
-5 0 -10 5 -10 10 0 6 5 10 10 10 6 0 10 -4 10 -10z m800 0 c0 -5 -5 -10 -11
-10 -5 0 -7 -5 -4 -10 4 -6 18 -2 36 11 17 12 32 19 35 16 3 -2 -10 -14 -28
-25 -24 -15 -36 -18 -45 -10 -7 6 -13 7 -13 3 0 -5 -3 -6 -6 -2 -7 6 16 36 29
37 4 0 7 -4 7 -10z m-1050 -5 c0 -2 -10 -9 -22 -15 -22 -11 -22 -10 -4 4 21
17 26 19 26 11z m670 -15 c0 -5 -7 -10 -16 -10 -8 0 -12 5 -9 10 3 6 10 10 16
10 5 0 9 -4 9 -10z m326 -18 c-4 -3 -14 2 -24 12 -16 18 -16 18 6 6 13 -6 21
-14 18 -18z m427 8 c-3 -11 -7 -20 -9 -20 -2 0 -4 9 -4 20 0 11 4 20 9 20 5 0
7 -9 4 -20z m-1923 0 c0 -5 -5 -10 -11 -10 -5 0 -7 5 -4 10 3 6 8 10 11 10 2
0 4 -4 4 -10z m405 0 c-3 -5 -11 -10 -16 -10 -6 0 -7 5 -4 10 3 6 11 10 16 10
6 0 7 -4 4 -10z m299 -5 c11 -8 18 -17 15 -19 -2 -3 -15 4 -29 14 -14 11 -20
20 -15 19 6 0 19 -6 29 -14z m101 5 c-3 -5 -11 -10 -16 -10 -6 0 -7 5 -4 10 3
6 11 10 16 10 6 0 7 -4 4 -10z m285 0 c0 -5 -2 -10 -4 -10 -3 0 -8 5 -11 10
-3 6 -1 10 4 10 6 0 11 -4 11 -10z m112 -17 c-4 -19 -7 -22 -10 -11 -3 16 -6
16 -26 3 -12 -8 -25 -12 -29 -9 -5 6 45 39 64 43 3 0 4 -11 1 -26z m408 23 c0
-3 -4 -8 -10 -11 -5 -3 -10 -1 -10 4 0 6 5 11 10 11 6 0 10 -2 10 -4z m285 -6
c3 -5 1 -10 -4 -10 -6 0 -11 5 -11 10 0 6 2 10 4 10 3 0 8 -4 11 -10z m-1045
-5 c0 -2 -10 -9 -22 -15 -22 -11 -22 -10 -4 4 21 17 26 19 26 11z m-880 -15
c0 -5 -5 -10 -11 -10 -5 0 -7 5 -4 10 3 6 8 10 11 10 2 0 4 -4 4 -10z m350 0
c0 -5 -2 -10 -4 -10 -3 0 -8 5 -11 10 -3 6 -1 10 4 10 6 0 11 -4 11 -10z m50
1 c0 -5 -9 -11 -20 -14 -11 -3 -20 -1 -20 3 0 5 8 11 18 13 9 3 18 5 20 6 1 0
2 -3 2 -8z m400 0 c0 -5 -9 -11 -20 -14 -11 -3 -20 -1 -20 3 0 5 8 11 18 13 9
3 18 5 20 6 1 0 2 -3 2 -8z m810 5 c0 -3 -4 -8 -10 -11 -5 -3 -10 -1 -10 4 0
6 5 11 10 11 6 0 10 -2 10 -4z m-1295 -16 c3 -5 2 -10 -4 -10 -5 0 -13 5 -16
10 -3 6 -2 10 4 10 5 0 13 -4 16 -10z m112 -12 c-3 -8 -6 -5 -6 6 -1 11 2 17
5 13 3 -3 4 -12 1 -19z m288 12 c3 -5 2 -10 -4 -10 -5 0 -13 5 -16 10 -3 6 -2
10 4 10 5 0 13 -4 16 -10z m112 -27 c-3 -10 -5 -4 -5 12 0 17 2 24 5 18 2 -7
2 -21 0 -30z m309 17 c8 0 14 -5 14 -10 0 -7 -6 -7 -20 0 -11 6 -20 16 -19 23
0 9 2 9 6 0 2 -7 11 -13 19 -13z m444 10 c0 -5 -2 -10 -4 -10 -3 0 -8 5 -11
10 -3 6 -1 10 4 10 6 0 11 -4 11 -10z m60 -5 c-7 -9 -15 -13 -19 -10 -3 3 1
10 9 15 21 14 24 12 10 -5z m277 -7 c-3 -8 -6 -5 -6 6 -1 11 2 17 5 13 3 -3 4
-12 1 -19z m-1912 -8 c-3 -5 -11 -10 -16 -10 -6 0 -7 5 -4 10 3 6 11 10 16 10
6 0 7 -4 4 -10z m805 6 c0 -3 -4 -8 -10 -11 -5 -3 -10 -1 -10 4 0 6 5 11 10
11 6 0 10 -2 10 -4z m400 0 c0 -3 -4 -8 -10 -11 -5 -3 -10 -1 -10 4 0 6 5 11
10 11 6 0 10 -2 10 -4z m340 -11 c0 -8 -2 -15 -4 -15 -2 0 -6 7 -10 15 -3 8
-1 15 4 15 6 0 10 -7 10 -15z m405 6 c3 -5 1 -12 -4 -15 -5 -3 -11 1 -15 9 -6
16 9 21 19 6z m-1580 -11 c3 -5 1 -10 -4 -10 -6 0 -11 5 -11 10 0 6 2 10 4 10
3 0 8 -4 11 -10z m52 -22 c-3 -8 -6 -5 -6 6 -1 11 2 17 5 13 3 -3 4 -12 1 -19z
m-60 -50 c-3 -7 -5 -2 -5 12 0 14 2 19 5 13 2 -7 2 -19 0 -25z m1198 -34 c7 2
21 -1 30 -8 15 -11 13 -13 -19 -12 -35 1 -36 2 -34 41 1 38 1 38 5 7 3 -23 9
-32 18 -28z m-368 24 c-3 -8 -6 -5 -6 6 -1 11 2 17 5 13 3 -3 4 -12 1 -19z
m-797 -15 c0 -25 -4 -28 -36 -29 -32 -1 -34 1 -19 12 9 7 23 10 31 7 9 -3 14
2 14 16 0 12 2 21 5 21 3 0 5 -12 5 -27z m400 -12 c0 -14 -5 -18 -20 -14 -11
3 -20 9 -20 14 0 5 7 6 15 3 8 -4 15 -1 15 5 0 6 2 11 5 11 3 0 5 -9 5 -19z
m408 -16 c-8 -8 -48 8 -42 16 3 5 14 4 25 -2 12 -6 19 -12 17 -14z m-1208 5
c0 -5 -2 -10 -4 -10 -3 0 -8 5 -11 10 -3 6 -1 10 4 10 6 0 11 -4 11 -10z m750
0 c0 -5 -5 -10 -11 -10 -5 0 -7 5 -4 10 3 6 8 10 11 10 2 0 4 -4 4 -10z m370
-10 c0 -11 -4 -20 -9 -20 -5 0 -7 9 -4 20 3 11 7 20 9 20 2 0 4 -9 4 -20z m30
10 c0 -5 -5 -10 -11 -10 -5 0 -7 5 -4 10 3 6 8 10 11 10 2 0 4 -4 4 -10z m803
-5 c-3 -9 -8 -14 -10 -11 -3 3 -2 9 2 15 9 16 15 13 8 -4z m-719 -10 c3 -8 1
-15 -4 -15 -6 0 -10 7 -10 15 0 8 2 15 4 15 2 0 6 -7 10 -15z m286 1 c0 -8 -7
-16 -15 -20 -12 -4 -13 -2 -2 14 14 24 17 25 17 6z m-1490 -6 c0 -5 -2 -10 -4
-10 -3 0 -8 5 -11 10 -3 6 -1 10 4 10 6 0 11 -4 11 -10z m376 -28 c-3 -3 -12
0 -19 6 -8 7 -17 9 -20 5 -4 -3 -7 1 -7 11 0 15 2 15 25 0 14 -9 23 -19 21
-22z m35 21 c13 -15 12 -15 -8 -4 -24 12 -29 21 -14 21 5 0 15 -7 22 -17z
m279 7 c0 -5 -5 -10 -11 -10 -5 0 -7 5 -4 10 3 6 8 10 11 10 2 0 4 -4 4 -10z
m55 0 c3 -5 1 -10 -4 -10 -6 0 -11 5 -11 10 0 6 2 10 4 10 3 0 8 -4 11 -10z
m66 -7 c13 -15 12 -15 -8 -4 -24 12 -29 21 -14 21 5 0 15 -7 22 -17z m794 7
c3 -5 1 -10 -4 -10 -6 0 -11 5 -11 10 0 6 2 10 4 10 3 0 8 -4 11 -10z m295 6
c0 -3 -4 -8 -10 -11 -5 -3 -10 -1 -10 4 0 6 5 11 10 11 6 0 10 -2 10 -4z
m-1925 -34 c-8 -8 -25 10 -19 20 4 6 9 5 15 -3 4 -7 6 -15 4 -17z m799 13 c3
-8 1 -15 -4 -15 -6 0 -10 7 -10 15 0 8 2 15 4 15 2 0 6 -7 10 -15z m-474 -15
c-27 -21 -45 -26 -35 -9 6 9 41 27 55 28 3 0 -6 -8 -20 -19z m420 10 c0 -5 -5
-10 -11 -10 -5 0 -7 5 -4 10 3 6 8 10 11 10 2 0 4 -4 4 -10z m400 0 c0 -5 -5
-10 -11 -10 -5 0 -7 5 -4 10 3 6 8 10 11 10 2 0 4 -4 4 -10z m55 0 c3 -5 1
-10 -4 -10 -6 0 -11 5 -11 10 0 6 2 10 4 10 3 0 8 -4 11 -10z m358 -14 c7 2
19 -1 27 -8 9 -7 13 -12 11 -11 -2 1 -17 -7 -33 -18 l-29 -21 -19 22 c-11 13
-16 29 -12 38 5 14 7 12 13 -8 4 -14 8 -20 10 -15 2 9 3 15 9 40 1 6 4 2 7 -7
2 -9 10 -15 16 -12z m78 -2 c17 -20 -2 -17 -31 6 -24 18 -24 19 -3 14 12 -4
28 -12 34 -20z m319 22 c0 -3 -4 -8 -10 -11 -5 -3 -10 -1 -10 4 0 6 5 11 10
11 6 0 10 -2 10 -4z m-843 -43 c-3 -10 -5 -4 -5 12 0 17 2 24 5 18 2 -7 2 -21
0 -30z m110 0 c-3 -10 -5 -4 -5 12 0 17 2 24 5 18 2 -7 2 -21 0 -30z m707 5
c9 14 26 16 26 2 0 -5 -3 -9 -7 -8 -5 1 -17 -3 -29 -9 -19 -11 -20 -10 -15 20
4 31 5 31 11 7 4 -17 8 -21 14 -12z m-1536 6 c20 -14 22 -14 23 3 1 16 2 15 6
-2 3 -11 13 -25 22 -33 14 -11 12 -11 -8 -2 -13 7 -26 8 -30 3 -3 -4 -19 -14
-36 -21 -28 -12 -29 -11 -10 4 15 12 17 18 6 21 -11 5 -11 7 0 14 12 8 11 11
-1 19 -8 5 -10 10 -5 10 6 0 21 -7 33 -16z m306 1 c-10 -8 -23 -15 -28 -15 -6
0 -1 7 10 15 10 8 23 15 28 15 6 0 1 -7 -10 -15z m92 0 c12 -8 24 -12 26 -9 3
3 8 -2 12 -11 5 -13 -2 -12 -32 6 -46 28 -47 29 -36 29 5 0 19 -7 30 -15z
m400 -1 c10 -8 14 -13 7 -10 -19 10 -25 -12 -6 -23 10 -6 13 -11 8 -11 -6 0
-16 5 -23 12 -9 9 -15 9 -24 0 -15 -15 -28 -16 -28 -2 0 6 4 9 9 8 5 -2 9 2 9
7 0 6 -5 9 -11 7 -7 -1 -3 5 7 13 25 19 28 19 52 -1z m-1172 -15 c39 -23 50
-37 14 -18 -16 9 -23 9 -26 0 -5 -14 -32 -15 -32 0 0 5 4 8 9 4 5 -3 12 -1 16
4 3 5 -3 14 -12 20 -10 6 -15 11 -11 11 4 0 23 -9 42 -21z m301 -9 c4 -6 11
-8 16 -5 5 4 9 1 9 -4 0 -14 -17 -14 -25 0 -4 6 -14 8 -22 5 -8 -3 -11 -1 -8
4 8 13 22 13 30 0z m385 0 c-35 -24 -54 -31 -30 -11 14 11 30 21 35 21 6 0 3
-5 -5 -10z m86 -5 c10 -8 15 -14 9 -14 -5 0 -19 6 -29 14 -11 8 -15 15 -10 15
6 0 19 -7 30 -15z m99 5 c3 -6 -1 -7 -9 -4 -18 7 -21 14 -7 14 6 0 13 -4 16
-10z m725 -5 c-14 -17 -30 -20 -30 -6 0 5 8 12 18 14 9 3 19 5 21 6 2 0 -2 -6
-9 -14z m-1420 -20 c0 4 7 0 15 -9 16 -15 21 -31 7 -22 -4 2 -18 -4 -32 -14
-23 -17 -24 -17 -72 12 -60 37 -64 49 -4 14 52 -30 56 -31 82 -10 18 15 18 15
-11 9 -22 -4 -26 -3 -15 4 13 9 12 12 -5 27 -19 15 -18 15 8 0 15 -9 27 -14
27 -11z m380 11 c-7 -7 -13 -7 -20 0 -6 6 -3 10 10 10 13 0 16 -4 10 -10z
m170 4 c0 -5 -5 -10 -11 -10 -5 0 -7 5 -4 10 3 6 8 10 11 10 2 0 4 -4 4 -10z
m234 -2 c-3 -4 2 -8 10 -8 9 0 16 -4 16 -10 0 -15 -12 -12 -38 8 -21 17 -22
18 -3 18 11 0 17 -4 15 -8z m116 7 c0 -2 -10 -9 -22 -15 -22 -11 -22 -10 -4 4
21 17 26 19 26 11z m200 -31 c0 -2 -13 2 -30 11 -16 9 -30 18 -30 21 0 2 14
-2 30 -11 17 -9 30 -18 30 -21z m90 30 c0 -1 -18 -13 -40 -28 -40 -26 -52 -27
-26 0 8 8 20 14 26 14 6 0 9 4 6 8 -2 4 4 8 15 8 10 0 19 -1 19 -2z m290 -20
c0 -2 -9 0 -20 6 -11 6 -20 13 -20 16 0 2 9 0 20 -6 11 -6 20 -13 20 -16z m90
6 c-14 -11 -29 -20 -34 -20 -6 0 -4 -6 2 -12 9 -9 15 -10 20 -2 4 6 18 14 32
18 17 5 21 4 11 -2 -8 -6 -10 -15 -5 -23 6 -12 5 -12 -8 -1 -11 9 -18 10 -23
2 -3 -5 -1 -10 4 -10 6 0 11 -19 11 -42 0 -47 -11 -46 -12 1 -1 20 -8 36 -19
41 -25 14 -32 12 -25 -5 3 -8 1 -15 -4 -15 -15 0 -12 40 5 56 8 9 15 13 15 9
0 -3 10 1 22 9 32 23 38 19 8 -4z m185 10 c-3 -5 -12 -10 -18 -10 -7 0 -6 4 3
10 19 12 23 12 15 0z m-1805 -20 c0 -5 -4 -10 -9 -10 -6 0 -13 5 -16 10 -3 6
1 10 9 10 9 0 16 -4 16 -10z m400 0 c0 -5 -4 -10 -9 -10 -6 0 -13 5 -16 10 -3
6 1 10 9 10 9 0 16 -4 16 -10z m79 -23 c-48 -26 -69 -34 -69 -27 0 6 5 10 11
10 8 0 8 5 -1 15 -8 9 -8 15 -2 15 6 0 12 -6 15 -12 4 -10 7 -10 18 0 10 9 10
12 0 12 -7 0 -9 5 -6 10 4 6 12 4 22 -5 8 -9 14 -17 12 -18z m151 23 c0 -5 -2
-10 -4 -10 -3 0 -8 5 -11 10 -3 6 -1 10 4 10 6 0 11 -4 11 -10z m170 0 c0 -5
-5 -10 -11 -10 -5 0 -7 5 -4 10 3 6 8 10 11 10 2 0 4 -4 4 -10z m165 0 c-3 -5
-12 -10 -18 -10 -7 0 -6 4 3 10 19 12 23 12 15 0z m76 -7 c13 -15 12 -15 -8
-4 -24 12 -29 21 -14 21 5 0 15 -7 22 -17z m69 -9 c0 -2 -9 0 -20 6 -11 6 -20
13 -20 16 0 2 9 0 20 -6 11 -6 20 -13 20 -16z m155 16 c-3 -5 -10 -10 -16 -10
-5 0 -9 5 -9 10 0 6 7 10 16 10 8 0 12 -4 9 -10z m-875 -30 c8 -5 10 -10 4
-10 -7 0 -22 9 -35 21 -19 16 -20 18 -4 10 11 -6 27 -15 35 -21z m386 2 c-4
-3 -14 2 -24 12 -16 18 -16 18 6 6 13 -6 21 -14 18 -18z m114 13 c-7 -9 -15
-13 -19 -10 -3 3 1 10 9 15 21 14 24 12 10 -5z m400 0 c-7 -8 -18 -15 -24 -15
-6 0 -2 7 8 15 25 19 32 19 16 0z m400 0 c-7 -8 -18 -15 -24 -15 -6 0 -2 7 8
15 25 19 32 19 16 0z m-1560 0 c0 -2 -10 -9 -22 -15 -22 -11 -22 -10 -4 4 21
17 26 19 26 11z m1111 -12 c13 -17 13 -17 -6 -3 -11 8 -22 16 -24 17 -2 2 0 3
6 3 6 0 17 -8 24 -17z m-541 -19 c0 -2 -9 0 -20 6 -11 6 -20 13 -20 16 0 2 9
0 20 -6 11 -6 20 -13 20 -16z m76 -12 c-4 -3 -14 2 -24 12 -16 18 -16 18 6 6
13 -6 21 -14 18 -18z m60 16 c-9 -5 -23 -5 -32 0 -12 6 -7 9 16 9 23 0 28 -3
16 -9z m54 -3 c-7 -8 -18 -15 -24 -15 -6 0 -2 7 8 15 25 19 32 19 16 0z m286
-13 c-4 -3 -14 2 -24 12 -16 18 -16 18 6 6 13 -6 21 -14 18 -18z m44 18 c8 -5
11 -10 5 -10 -5 0 -17 5 -25 10 -8 5 -10 10 -5 10 6 0 17 -5 25 -10z m140 5
c0 -2 -10 -9 -22 -15 -22 -11 -22 -10 -4 4 21 17 26 19 26 11z m-1390 -15 c0
-5 -2 -10 -4 -10 -3 0 -8 5 -11 10 -3 6 -1 10 4 10 6 0 11 -4 11 -10z m110 0
c0 -5 -5 -10 -11 -10 -5 0 -7 5 -4 10 3 6 8 10 11 10 2 0 4 -4 4 -10z m304 -5
c11 -8 18 -17 15 -19 -2 -3 -15 4 -29 14 -14 11 -20 20 -15 19 6 0 19 -6 29
-14z m99 -5 c3 -11 1 -23 -4 -26 -5 -3 -9 6 -9 20 0 31 6 34 13 6z m803 11
c-3 -5 -16 -11 -28 -14 -22 -6 -22 -5 -4 8 22 17 40 20 32 6z m384 -11 c-14
-10 -27 -16 -30 -13 -6 6 30 33 44 33 6 0 0 -9 -14 -20z m-1670 -11 c0 -6 -4
-7 -10 -4 -5 3 -10 11 -10 16 0 6 5 7 10 4 6 -3 10 -11 10 -16z m447 -1 c-3
-8 -6 -5 -6 6 -1 11 2 17 5 13 3 -3 4 -12 1 -19z m83 18 c0 -2 -7 -7 -16 -10
-8 -3 -12 -2 -9 4 6 10 25 14 25 6z m267 -18 c-3 -8 -6 -5 -6 6 -1 11 2 17 5
13 3 -3 4 -12 1 -19z m50 0 c-3 -8 -6 -5 -6 6 -1 11 2 17 5 13 3 -3 4 -12 1
-19z m369 2 c8 0 14 -4 14 -9 0 -5 -9 -7 -20 -4 -11 3 -20 13 -19 22 0 10 2
11 6 4 2 -7 11 -13 19 -13z m-846 -12 c0 -5 -9 -4 -20 2 -11 6 -20 12 -20 14
0 2 9 2 20 -1 11 -3 20 -9 20 -15z m-405 2 c3 -5 2 -10 -4 -10 -5 0 -13 5 -16
10 -3 6 -2 10 4 10 5 0 13 -4 16 -10z m65 6 c0 -3 -4 -8 -10 -11 -5 -3 -10 -1
-10 4 0 6 5 11 10 11 6 0 10 -2 10 -4z m55 -6 c-3 -5 -11 -10 -16 -10 -6 0 -7
5 -4 10 3 6 11 10 16 10 6 0 7 -4 4 -10z m685 0 c0 -5 -2 -10 -4 -10 -3 0 -8
5 -11 10 -3 6 -1 10 4 10 6 0 11 -4 11 -10z m400 -20 c0 -16 -2 -30 -4 -30 -2
0 -6 14 -8 30 -3 17 -1 30 4 30 4 0 8 -13 8 -30z m400 20 c0 -5 -2 -10 -4 -10
-3 0 -8 5 -11 10 -3 6 -1 10 4 10 6 0 11 -4 11 -10z m-1570 -20 c0 -5 -2 -10
-4 -10 -3 0 -8 5 -11 10 -3 6 -1 10 4 10 6 0 11 -4 11 -10z m50 -12 c0 -18 -2
-20 -9 -8 -6 8 -7 18 -5 22 9 14 14 9 14 -14z m350 12 c0 -5 -2 -10 -4 -10 -3
0 -8 5 -11 10 -3 6 -1 10 4 10 6 0 11 -4 11 -10z m56 1 c-8 -12 -46 -21 -46
-11 0 5 8 11 18 13 29 8 33 7 28 -2z m344 -1 c0 -5 -2 -10 -4 -10 -3 0 -8 5
-11 10 -3 6 -1 10 4 10 6 0 11 -4 11 -10z m46 -5 c-23 -17 -36 -19 -36 -6 0 5
8 12 18 14 32 9 37 6 18 -8z m359 5 c4 -7 13 -6 26 1 12 6 23 8 26 6 7 -8 -36
-29 -46 -22 -5 3 -11 0 -13 -7 -3 -7 -7 -2 -10 10 -6 22 6 31 17 12z m398 3
c3 -5 1 -17 -3 -28 -6 -17 -7 -16 -12 8 -5 25 5 37 15 20z m57 3 c0 -3 -4 -8
-10 -11 -5 -3 -10 -1 -10 4 0 6 5 11 10 11 6 0 10 -2 10 -4z m-1213 -63 c-3
-10 -5 -4 -5 12 0 17 2 24 5 18 2 -7 2 -21 0 -30z m1120 -5 c-3 -7 -5 -2 -5
12 0 14 2 19 5 13 2 -7 2 -19 0 -25z m-1550 -15 c-3 -10 -5 -4 -5 12 0 17 2
24 5 18 2 -7 2 -21 0 -30z m780 -5 c-3 -7 -5 -2 -5 12 0 14 2 19 5 13 2 -7 2
-19 0 -25z m-320 0 c-3 -8 -6 -5 -6 6 -1 11 2 17 5 13 3 -3 4 -12 1 -19z m370
-10 c-3 -7 -5 -2 -5 12 0 14 2 19 5 13 2 -7 2 -19 0 -25z m-400 -10 c-3 -8 -6
-5 -6 6 -1 11 2 17 5 13 3 -3 4 -12 1 -19z m720 -10 c-3 -8 -6 -5 -6 6 -1 11
2 17 5 13 3 -3 4 -12 1 -19z m49 -1 c8 3 14 0 14 -7 0 -6 -4 -9 -9 -5 -5 3
-12 1 -16 -5 -12 -20 -22 -10 -17 18 4 18 7 21 10 10 2 -10 9 -15 18 -11z
m-1199 -9 c-3 -8 -6 -5 -6 6 -1 11 2 17 5 13 3 -3 4 -12 1 -19z m429 -3 c10
-8 14 -15 7 -15 -6 0 -15 5 -18 10 -4 6 -11 8 -16 5 -5 -4 -9 -1 -9 4 0 15 13
14 36 -4z m400 0 c10 -8 14 -15 8 -15 -5 0 -19 7 -30 15 -10 8 -14 15 -8 15 5
0 19 -7 30 -15z m784 4 c0 -6 -4 -8 -9 -4 -5 3 -12 1 -16 -5 -9 -15 -25 -12
-19 3 5 15 44 20 44 6z m-1575 -9 c3 -5 2 -10 -4 -10 -5 0 -13 5 -16 10 -3 6
-2 10 4 10 5 0 13 -4 16 -10z m345 0 c0 -5 -5 -10 -11 -10 -5 0 -7 5 -4 10 3
6 8 10 11 10 2 0 4 -4 4 -10z m400 0 c0 -5 -5 -10 -11 -10 -5 0 -7 5 -4 10 3
6 8 10 11 10 2 0 4 -4 4 -10z m455 0 c3 -5 1 -10 -4 -10 -6 0 -11 5 -11 10 0
6 2 10 4 10 3 0 8 -4 11 -10z m-485 -13 c0 -7 -15 -18 -32 -25 -30 -10 -31
-10 -13 3 11 8 25 19 30 24 13 13 15 13 15 -2z m400 -1 c0 -7 -9 -16 -21 -19
-21 -6 -21 -5 -3 13 23 23 24 23 24 6z m-1150 -14 c-8 -3 -30 -13 -47 -24 -45
-27 -42 -15 4 16 20 14 41 22 47 19 6 -4 4 -8 -4 -11z m65 8 c3 -5 1 -10 -4
-10 -6 0 -11 5 -11 10 0 6 2 10 4 10 3 0 8 -4 11 -10z m329 -11 c-31 -12 -40
-9 -20 6 10 8 24 11 29 8 6 -4 2 -10 -9 -14z m71 11 c3 -5 1 -10 -4 -10 -6 0
-11 5 -11 10 0 6 2 10 4 10 3 0 8 -4 11 -10z m398 -20 c-3 -11 -9 -18 -13 -15
-5 3 -6 14 -3 25 3 11 9 18 13 15 5 -3 6 -14 3 -25z m347 20 c0 -5 -5 -10 -11
-10 -5 0 -7 5 -4 10 3 6 8 10 11 10 2 0 4 -4 4 -10z m80 -16 c0 -2 -9 0 -20 6
-11 6 -20 13 -20 16 0 2 9 0 20 -6 11 -6 20 -13 20 -16z m260 16 c0 -5 -5 -10
-11 -10 -5 0 -7 5 -4 10 3 6 8 10 11 10 2 0 4 -4 4 -10z m105 -25 c20 -16 19
-16 -5 -10 -27 7 -27 6 35 -41 11 -8 3 -6 -18 5 -37 20 -38 20 -69 1 -27 -16
-33 -17 -46 -4 -8 8 -11 18 -7 22 4 4 10 1 12 -5 5 -15 33 -17 33 -3 0 6 -4
10 -10 10 -5 0 -9 10 -9 23 1 17 2 18 6 4 4 -14 8 -16 19 -6 9 7 14 8 14 1 0
-6 -5 -12 -12 -14 -9 -3 -9 -6 -1 -11 7 -5 17 1 23 13 10 18 8 22 -9 27 -11 3
-18 9 -15 14 6 10 26 1 59 -26z m26 18 c13 -15 12 -15 -8 -4 -24 12 -29 21
-14 21 5 0 15 -7 22 -17z m-1654 -15 c-3 -8 -6 -5 -6 6 -1 11 2 17 5 13 3 -3
4 -12 1 -19z m419 -28 c8 0 14 -4 14 -10 0 -14 -13 -13 -29 3 -11 10 -14 10
-18 0 -3 -7 -9 -13 -15 -13 -6 0 -6 6 2 15 9 10 9 15 1 15 -6 0 -11 5 -11 11
0 8 5 8 15 -1 13 -10 15 -9 16 11 2 21 2 21 6 -3 2 -16 11 -28 19 -28z m331
13 c-3 -10 -5 -4 -5 12 0 17 2 24 5 18 2 -7 2 -21 0 -30z m50 -10 c-3 -3 -14
0 -24 7 -16 10 -16 11 0 6 12 -4 17 1 18 17 2 21 2 21 6 -1 3 -13 2 -26 0 -29z
m369 18 c8 7 14 7 14 1 0 -8 -22 -22 -36 -22 -2 0 -3 12 -3 28 2 24 2 24 6 4
4 -19 7 -21 19 -11z m49 9 c8 0 17 -5 21 -12 5 -8 2 -9 -11 -4 -10 4 -21 2
-25 -5 -4 -6 -7 2 -7 17 0 16 2 23 4 17 3 -7 11 -13 18 -13z m-1225 -28 c-15
-5 -12 -22 4 -22 16 0 29 27 20 41 -3 5 0 9 5 9 16 0 13 -39 -3 -55 -11 -11
-18 -10 -46 6 -23 15 -36 17 -43 10 -8 -8 -6 -11 6 -11 9 0 17 -4 17 -8 0 -5
-7 -9 -15 -9 -8 0 -15 5 -15 10 0 5 -7 7 -15 3 -23 -8 -18 2 10 20 19 13 28
14 39 5 10 -8 16 -9 21 -1 3 5 1 10 -4 10 -6 0 -11 5 -11 10 0 6 8 5 20 -2 11
-7 16 -14 10 -16z m330 19 c0 -5 -7 -12 -16 -15 -14 -5 -15 -4 -4 9 14 17 20
19 20 6z m110 -1 c0 -5 -2 -10 -4 -10 -3 0 -8 5 -11 10 -3 6 -1 10 4 10 6 0
11 -4 11 -10z m295 0 c-3 -5 -11 -10 -16 -10 -6 0 -7 5 -4 10 3 6 11 10 16 10
6 0 7 -4 4 -10z m805 6 c0 -3 -4 -8 -10 -11 -5 -3 -10 -1 -10 4 0 6 5 11 10
11 6 0 10 -2 10 -4z m-1650 -30 c0 -2 -7 -7 -16 -10 -8 -3 -12 -2 -9 4 6 10
25 14 25 6z m450 -1 c0 -2 -10 -10 -22 -16 -21 -11 -22 -11 -9 4 13 16 31 23
31 12z m170 -21 c0 -2 -9 0 -20 6 -11 6 -20 13 -20 16 0 2 9 0 20 -6 11 -6 20
-13 20 -16z m230 21 c0 -2 -10 -10 -22 -16 -21 -11 -22 -11 -9 4 13 16 31 23
31 12z m50 -5 c0 -5 -4 -10 -10 -10 -5 0 -10 5 -10 10 0 6 5 10 10 10 6 0 10
-4 10 -10z m61 -7 c13 -15 12 -15 -8 -4 -24 12 -29 21 -14 21 5 0 15 -7 22
-17z m295 3 c20 -21 17 -28 -6 -14 -11 7 -20 16 -20 20 0 12 10 9 26 -6z m44
4 c0 -5 -5 -10 -11 -10 -5 0 -7 5 -4 10 3 6 8 10 11 10 2 0 4 -4 4 -10z m60
-5 c11 -13 10 -14 -4 -9 -9 3 -16 10 -16 15 0 13 6 11 20 -6z m-660 -16 c0
-14 -16 -11 -29 5 -10 12 -8 13 8 9 12 -3 21 -9 21 -14z m340 -5 c0 -2 -9 0
-20 6 -11 6 -20 13 -20 16 0 2 9 0 20 -6 11 -6 20 -13 20 -16z m70 11 c-7 -8
-18 -15 -24 -15 -6 0 -2 7 8 15 25 19 32 19 16 0z m70 10 c0 -2 -10 -9 -22
-15 -22 -11 -22 -10 -4 4 21 17 26 19 26 11z m-880 -14 c0 -4 -14 -12 -31 -18
-19 -8 -28 -16 -24 -23 6 -9 2 -9 -14 -1 -23 13 -29 23 -8 15 7 -2 22 4 32 14
19 18 45 25 45 13z m170 1 c0 -5 -7 -9 -15 -9 -8 0 -12 4 -9 9 3 4 9 8 15 8 5
0 9 -4 9 -8z m60 -2 c0 -5 -4 -10 -10 -10 -5 0 -10 5 -10 10 0 6 5 10 10 10 6
0 10 -4 10 -10z m340 0 c0 -5 -4 -10 -10 -10 -5 0 -10 5 -10 10 0 6 5 10 10
10 6 0 10 -4 10 -10z m464 2 c3 -5 -1 -9 -9 -9 -8 0 -15 4 -15 9 0 10 17 10
24 0z m171 -2 c-3 -5 -10 -10 -16 -10 -5 0 -9 5 -9 10 0 6 7 10 16 10 8 0 12
-4 9 -10z m225 6 c0 -3 -4 -8 -10 -11 -5 -3 -10 -1 -10 4 0 6 5 11 10 11 6 0
10 -2 10 -4z m150 -32 c0 -2 -13 2 -30 11 -16 9 -30 18 -30 21 0 2 14 -2 30
-11 17 -9 30 -18 30 -21z m-1945 16 c-3 -5 -14 -10 -23 -9 -14 0 -13 2 3 9 27
11 27 11 20 0z m1485 -16 c0 -2 -9 0 -20 6 -11 6 -20 13 -20 16 0 2 9 0 20 -6
11 -6 20 -13 20 -16z m160 6 c-14 -11 -29 -20 -35 -20 -5 0 4 9 20 20 38 25
48 25 15 0z m-1476 2 c2 -4 -4 -8 -14 -8 -10 0 -16 4 -14 8 7 10 21 10 28 0z
m226 -3 c0 -6 6 -9 13 -6 10 4 12 -3 8 -27 -4 -25 -6 -27 -9 -9 -3 22 -4 22
-28 7 -13 -9 -24 -21 -24 -27 0 -7 4 -7 12 1 7 7 17 12 23 12 11 -1 -25 -30
-37 -30 -13 0 -9 38 5 44 9 5 9 7 -1 12 -10 5 -9 9 5 20 22 16 33 18 33 3z
m190 -10 c17 -13 18 -17 5 -10 -33 17 -51 31 -40 31 6 0 21 -10 35 -21z m150
11 c0 -5 -2 -10 -4 -10 -3 0 -8 5 -11 10 -3 6 -1 10 4 10 6 0 11 -4 11 -10z
m47 -1 c-35 -20 -6 -28 31 -8 20 12 29 14 20 6 -10 -8 -19 -25 -19 -38 -2 -24
-2 -24 -6 -1 -4 21 -6 21 -26 7 -12 -8 -26 -15 -32 -15 -5 0 -3 4 5 10 8 5 11
12 7 16 -3 4 -13 1 -21 -5 -11 -9 -16 -9 -22 0 -4 7 -3 9 2 6 5 -3 21 3 34 14
14 10 30 19 35 18 6 0 2 -4 -8 -10z m187 3 c2 -4 -4 -8 -14 -8 -10 0 -16 4
-14 8 3 4 9 8 14 8 5 0 11 -4 14 -8z m186 -12 c15 -11 29 -18 31 -17 2 1 -2
-4 -10 -11 -19 -16 -21 -15 -56 8 -16 11 -25 20 -18 20 6 0 15 -5 18 -10 4 -6
11 -7 17 -4 7 5 4 12 -7 21 -11 7 -15 13 -11 13 4 0 20 -9 36 -20z m214 12 c2
-4 -4 -8 -14 -8 -10 0 -16 4 -14 8 3 4 9 8 14 8 5 0 11 -4 14 -8z m400 0 c2
-4 -4 -8 -14 -8 -10 0 -16 4 -14 8 3 4 9 8 14 8 5 0 11 -4 14 -8z m169 -24 c4
1 7 -3 7 -8 0 -14 -4 -13 -44 11 -45 26 -47 36 -3 12 17 -9 35 -16 40 -15z
m-1933 2 c-29 -23 -40 -25 -40 -8 0 6 3 8 6 5 4 -3 16 0 28 8 30 22 35 18 6
-5z m455 0 c-3 -5 -12 -10 -18 -10 -7 0 -6 4 3 10 19 12 23 12 15 0z m242 -10
c-2 -24 -6 -24 -32 -4 -20 16 -20 16 3 9 13 -4 22 -2 22 4 0 6 2 11 4 11 3 0
4 -9 3 -20z m544 10 c23 11 23 10 4 -4 -11 -8 -25 -20 -31 -25 -8 -7 -11 -2
-11 16 0 15 2 20 7 13 6 -9 13 -9 31 0z m164 -8 c-3 -3 -11 0 -18 7 -9 10 -8
11 6 5 10 -3 15 -9 12 -12z m110 8 c5 -8 11 -7 21 1 10 8 18 9 27 0 8 -6 16
-10 18 -8 2 1 -2 -4 -11 -11 -8 -7 -20 -10 -27 -8 -19 8 -16 -12 5 -23 15 -9
14 -10 -5 -8 -22 1 -28 10 -23 32 1 5 -7 15 -16 22 -10 7 -13 13 -7 13 7 0 15
-5 18 -10z m-205 -4 c0 -2 -7 -7 -16 -10 -8 -3 -12 -2 -9 4 6 10 25 14 25 6z
m190 -18 c0 -5 -9 -4 -20 2 -11 6 -20 12 -20 14 0 2 9 2 20 -1 11 -3 20 -9 20
-15z m-1190 -9 l25 -20 -32 16 c-18 8 -33 18 -33 20 0 10 16 4 40 -16z m180
17 c0 -2 -7 -7 -16 -10 -8 -3 -12 -2 -9 4 6 10 25 14 25 6z m607 -18 c-3 -8
-6 -5 -6 6 -1 11 2 17 5 13 3 -3 4 -12 1 -19z m521 9 c-7 -7 -22 -16 -33 -20
-16 -6 -15 -3 5 13 28 22 49 27 28 7z m-1633 -17 c-3 -5 -11 -10 -16 -10 -6 0
-7 5 -4 10 3 6 11 10 16 10 6 0 7 -4 4 -10z m805 6 c0 -3 -4 -8 -10 -11 -5 -3
-10 -1 -10 4 0 6 5 11 10 11 6 0 10 -2 10 -4z m340 -6 c0 -5 -2 -10 -4 -10 -3
0 -8 5 -11 10 -3 6 -1 10 4 10 6 0 11 -4 11 -10z m60 6 c0 -3 -4 -8 -10 -11
-5 -3 -10 -1 -10 4 0 6 5 11 10 11 6 0 10 -2 10 -4z m743 -3 c3 -5 1 -17 -3
-28 -6 -17 -7 -16 -12 8 -5 25 5 37 15 20z m-1923 -23 c0 -5 -5 -10 -11 -10
-5 0 -7 5 -4 10 3 6 8 10 11 10 2 0 4 -4 4 -10z m320 -22 c0 -5 -11 -1 -25 8
-14 9 -25 18 -25 20 0 2 11 -2 25 -8 14 -6 25 -15 25 -20z m80 22 c0 -5 -5
-10 -11 -10 -5 0 -7 5 -4 10 3 6 8 10 11 10 2 0 4 -4 4 -10z m304 -5 c11 -8
18 -17 15 -19 -2 -3 -15 4 -29 14 -14 11 -20 20 -15 19 6 0 19 -6 29 -14z
m101 5 c-3 -5 -11 -10 -16 -10 -6 0 -7 5 -4 10 3 6 11 10 16 10 6 0 7 -4 4
-10z m405 6 c0 -3 -4 -8 -10 -11 -5 -3 -10 -1 -10 4 0 6 5 11 10 11 6 0 10 -2
10 -4z m285 -6 c3 -5 2 -10 -4 -10 -5 0 -13 5 -16 10 -3 6 -2 10 4 10 5 0 13
-4 16 -10z m115 6 c0 -3 -4 -8 -10 -11 -5 -3 -10 -1 -10 4 0 6 5 11 10 11 6 0
10 -2 10 -4z m285 -5 c3 -5 1 -12 -5 -16 -5 -3 -10 1 -10 9 0 18 6 21 15 7z
m-315 -15 c0 -3 -4 -8 -10 -11 -5 -3 -10 -1 -10 4 0 6 5 11 10 11 6 0 10 -2
10 -4z"/>
<path d="M790 1910 c0 -5 5 -10 10 -10 6 0 10 5 10 10 0 6 -4 10 -10 10 -5 0
-10 -4 -10 -10z"/>
<path d="M1590 1910 c0 -5 5 -10 10 -10 6 0 10 5 10 10 0 6 -4 10 -10 10 -5 0
-10 -4 -10 -10z"/>
<path d="M1795 1830 c-3 -5 1 -10 10 -10 9 0 13 5 10 10 -3 6 -8 10 -10 10 -2
0 -7 -4 -10 -10z"/>
<path d="M215 1150 c-3 -5 1 -10 9 -10 9 0 16 5 16 10 0 6 -4 10 -9 10 -6 0
-13 -4 -16 -10z"/>
<path d="M1015 1150 c-3 -5 1 -10 9 -10 9 0 16 5 16 10 0 6 -4 10 -9 10 -6 0
-13 -4 -16 -10z"/>
<path d="M1360 1150 c0 -5 7 -10 16 -10 8 0 12 5 9 10 -3 6 -10 10 -16 10 -5
0 -9 -4 -9 -10z"/>
<path d="M615 850 c3 -5 10 -10 16 -10 5 0 9 5 9 10 0 6 -7 10 -16 10 -8 0
-12 -4 -9 -10z"/>
<path d="M1015 850 c3 -5 10 -10 16 -10 5 0 9 5 9 10 0 6 -7 10 -16 10 -8 0
-12 -4 -9 -10z"/>
<path d="M385 780 c4 -6 11 -8 16 -5 14 9 11 15 -7 15 -8 0 -12 -5 -9 -10z"/>
<path d="M1590 520 c0 -5 -3 -9 -7 -7 -5 1 -9 -1 -10 -5 -4 -10 -1 -11 20 -3
18 8 24 25 7 25 -5 0 -10 -4 -10 -10z"/>
<path d="M416 511 c-4 -5 -2 -12 3 -15 5 -4 12 -2 15 3 4 5 2 12 -3 15 -5 4
-12 2 -15 -3z"/>
<path d="M1190 520 c0 -5 5 -10 10 -10 6 0 10 5 10 10 0 6 -4 10 -10 10 -5 0
-10 -4 -10 -10z"/>
<path d="M416 111 c-4 -5 -2 -12 3 -15 5 -4 12 -2 15 3 4 5 2 12 -3 15 -5 4
-12 2 -15 -3z"/>
<path d="M1190 90 c0 -5 5 -10 10 -10 6 0 10 5 10 10 0 6 -4 10 -10 10 -5 0
-10 -4 -10 -10z"/>
<path d="M1590 90 c0 -5 5 -10 10 -10 6 0 10 5 10 10 0 6 -4 10 -10 10 -5 0
-10 -4 -10 -10z"/>
</g>
</svg>
