<?xml version="1.0" standalone="no"?>
<!DOCTYPE svg PUBLIC "-//W3C//DTD SVG 20010904//EN"
 "http://www.w3.org/TR/2001/REC-SVG-20010904/DTD/svg10.dtd">
<svg version="1.0" xmlns="http://www.w3.org/2000/svg"
 width="200.000000pt" height="200.000000pt" viewBox="0 0 200.000000 200.000000"
 preserveAspectRatio="xMidYMid meet">
<metadata>
Created by potrace 1.16, written by Peter Selinger 2001-2019
</metadata>
<g transform="translate(0.000000,200.000000) scale(0.100000,-0.100000)"
fill="#000000" stroke="none">
<path d="M0 1967 c0 -18 6 -39 13 -46 10 -11 10 -13 0 -7 -10 6 -13 -41 -13
-219 0 -178 3 -225 13 -219 10 6 10 4 0 -7 -9 -9 -13 -49 -13 -124 l0 -112 50
-27 c28 -15 50 -30 50 -32 0 -3 -21 6 -46 20 -26 14 -48 26 -50 26 -2 0 -4
-99 -4 -221 0 -206 1 -221 18 -215 16 6 16 5 0 -8 -15 -11 -18 -30 -18 -123 0
-73 4 -113 13 -122 9 -11 9 -13 0 -7 -10 6 -13 -41 -13 -219 0 -178 3 -225 12
-219 11 6 11 4 0 -7 -6 -7 -12 -28 -12 -46 l0 -33 194 0 c146 0 196 3 199 13
4 9 6 9 6 0 1 -10 88 -13 401 -13 l400 0 0 34 c0 31 -5 37 -55 66 -30 17 -55
34 -55 36 0 3 25 -9 55 -26 l55 -31 100 57 101 57 -3 118 c-2 66 1 119 5 119
5 0 51 25 103 55 l94 56 0 111 c0 93 -3 113 -17 125 -16 13 -16 13 5 3 12 -6
28 -8 35 -4 9 5 9 4 0 -7 -9 -9 -13 -48 -13 -119 0 -58 -4 -110 -8 -116 -4 -6
-49 -35 -99 -64 l-93 -54 0 -112 0 -113 50 -27 c28 -15 50 -31 50 -36 0 -4 3
-7 8 -6 13 4 85 -39 76 -44 -5 -3 -50 18 -101 48 l-91 54 -94 -54 c-88 -51
-93 -56 -96 -90 l-3 -36 385 0 386 0 0 29 c0 16 -8 35 -18 42 -15 13 -15 13 3
3 11 -6 23 -27 27 -45 4 -19 5 136 3 344 -3 292 -7 382 -17 395 -12 15 -11 16
5 3 16 -13 17 -2 17 193 0 163 -3 206 -12 200 -10 -6 -10 -5 -1 8 10 11 13
112 13 421 l-1 407 -189 0 c-188 0 -189 0 -193 -22 l-4 -23 -2 23 -1 22 -200
0 -200 0 0 -37 c0 -37 2 -39 96 -91 l95 -54 100 57 c55 32 102 56 104 53 2 -2
-39 -28 -91 -57 -51 -29 -96 -57 -99 -61 -3 -5 -52 18 -110 51 -91 53 -107 59
-127 49 l-23 -11 23 19 c17 13 23 26 20 48 l-3 29 -394 3 c-309 2 -396 -1
-403 -10 -6 -10 -8 -10 -8 0 0 9 -46 12 -195 12 l-195 0 0 -33z m1982 -39 c-8
-8 -9 -4 -5 13 4 13 8 18 11 10 2 -7 -1 -18 -6 -23z m-1572 -3 c11 -13 10 -14
-4 -9 -9 3 -16 10 -16 15 0 13 6 11 20 -6z m416 -11 c18 -14 18 -15 -3 -4 -18
8 -30 7 -53 -5 -38 -19 -40 -11 -2 9 34 19 34 19 58 0z m844 -9 c0 -2 -5 -7
-12 -11 -7 -5 -8 -3 -3 6 6 10 4 12 -8 7 -17 -6 -31 5 -20 16 5 6 43 -10 43
-18z m-1290 10 c0 -2 -10 -9 -22 -15 -22 -11 -22 -10 -4 4 21 17 26 19 26 11z
m-310 -31 c0 -2 -9 0 -20 6 -11 6 -20 13 -20 16 0 2 9 0 20 -6 11 -6 20 -13
20 -16z m420 -10 c0 -2 -13 2 -30 11 -16 9 -30 18 -30 21 0 2 14 -2 30 -11 17
-9 30 -18 30 -21z m1450 31 c0 -2 -13 -11 -30 -20 -38 -19 -40 -11 -2 9 31 17
32 18 32 11z m-1050 -31 c0 -2 -9 0 -20 6 -11 6 -20 13 -20 16 0 2 9 0 20 -6
11 -6 20 -13 20 -16z m260 21 c0 -2 -13 -11 -30 -20 -38 -19 -40 -11 -2 9 31
17 32 18 32 11z m-820 -10 c0 -2 -13 -11 -30 -20 -38 -19 -40 -11 -2 9 31 17
32 18 32 11z m400 0 c0 -2 -13 -11 -30 -20 -38 -19 -40 -11 -2 9 31 17 32 18
32 11z m984 -16 c-3 -5 -10 -7 -15 -3 -5 3 -7 10 -3 15 3 5 10 7 15 3 5 -3 7
-10 3 -15z m-1574 -25 c0 -2 -9 0 -20 6 -11 6 -20 13 -20 16 0 2 9 0 20 -6 11
-6 20 -13 20 -16z m420 -10 c0 -2 -13 2 -30 11 -16 9 -30 18 -30 21 0 2 14 -2
30 -11 17 -9 30 -18 30 -21z m400 0 c0 -2 -9 0 -20 6 -11 6 -20 13 -20 16 0 2
9 0 20 -6 11 -6 20 -13 20 -16z m120 21 c0 -2 -13 -11 -30 -20 -38 -19 -40
-11 -2 9 31 17 32 18 32 11z m770 0 c0 -2 -10 -9 -22 -15 -22 -11 -22 -10 -4
4 21 17 26 19 26 11z m40 0 c0 -2 -10 -9 -22 -15 -22 -11 -22 -10 -4 4 21 17
26 19 26 11z m-1630 -9 c0 -2 -15 -13 -33 -24 -33 -19 -34 -19 -58 0 l-24 19
26 -12 c21 -9 32 -8 55 5 32 17 34 18 34 12z m400 -1 c0 -2 -10 -9 -22 -15
-22 -11 -22 -10 -4 4 21 17 26 19 26 11z m1140 -10 c0 -2 -6 -5 -13 -8 -8 -3
-14 1 -14 8 0 7 6 11 14 8 7 -3 13 -6 13 -8z m-1199 -23 c-7 -2 -18 1 -23 6
-8 8 -4 9 13 5 13 -4 18 -8 10 -11z m400 0 c-7 -2 -18 1 -23 6 -8 8 -4 9 13 5
13 -4 18 -8 10 -11z m826 4 c-16 -12 -18 -28 -15 -128 2 -72 -1 -115 -7 -115
-6 0 -10 48 -10 123 0 67 2 121 5 119 3 -2 12 0 20 6 23 14 27 10 7 -5z
m-1630 -108 c-2 -18 -4 -6 -4 27 0 33 2 48 4 33 2 -15 2 -42 0 -60z m400 40
c-3 -7 -5 -2 -5 12 0 14 2 19 5 13 2 -7 2 -19 0 -25z m-400 -125 c-3 -10 -5
-4 -5 12 0 17 2 24 5 18 2 -7 2 -21 0 -30z m113 -110 c0 -2 -25 10 -57 28
l-56 32 -51 -28 c-60 -33 -57 -26 5 14 l44 27 57 -34 c32 -19 58 -36 58 -39z
m350 31 c0 -3 -14 3 -31 11 -17 9 -38 14 -46 10 -13 -4 -14 -3 -4 9 11 13 17
12 47 -6 19 -11 34 -22 34 -24z m380 16 c22 -11 40 -23 40 -25 0 -5 -79 32
-89 41 -11 10 14 2 49 -16z m472 -40 c56 -33 97 -60 90 -60 -7 0 -55 25 -107
55 l-93 55 -94 -54 -93 -54 -3 -112 c-2 -98 0 -114 15 -127 16 -13 16 -13 -5
-3 -23 11 -46 5 -37 -10 3 -5 -3 -13 -13 -19 -14 -7 -19 -6 -19 4 0 7 7 11 15
7 9 -3 13 -1 9 5 -4 6 0 16 8 23 12 10 15 37 15 120 0 100 -2 109 -22 124
l-23 17 23 -11 c20 -10 36 -4 120 44 53 31 100 56 104 56 3 0 53 -27 110 -60z
m-532 45 c0 -2 -13 -11 -30 -20 -38 -19 -40 -11 -2 9 31 17 32 18 32 11z
m-420 -10 c0 -2 -10 -9 -22 -15 -22 -11 -22 -10 -4 4 21 17 26 19 26 11z m170
-51 c0 -2 -13 2 -30 11 -16 9 -30 18 -30 21 0 2 14 -2 30 -11 17 -9 30 -18 30
-21z m1150 10 c0 -2 -9 0 -20 6 -11 6 -20 13 -20 16 0 2 9 0 20 -6 11 -6 20
-13 20 -16z m-970 11 c0 -2 -13 -11 -30 -20 -38 -19 -40 -11 -2 9 31 17 32 18
32 11z m240 -31 c0 -2 -13 2 -30 11 -16 9 -30 18 -30 21 0 2 14 -2 30 -11 17
-9 30 -18 30 -21z m556 21 c-1 -8 -6 -18 -11 -22 -4 -5 -5 -2 0 6 6 11 4 13
-11 8 -18 -7 -18 -7 0 8 24 18 25 18 22 0z m-1616 0 c0 -2 -13 -11 -30 -20
-38 -19 -40 -11 -2 9 31 17 32 18 32 11z m400 1 c0 -6 -87 -56 -97 -56 -4 0
15 14 42 30 53 31 55 32 55 26z m-110 -42 c0 -2 -9 0 -20 6 -11 6 -20 13 -20
16 0 2 9 0 20 -6 11 -6 20 -13 20 -16z m440 6 c11 6 20 8 20 6 0 -3 -9 -10
-20 -16 -15 -8 -27 -7 -50 5 -16 9 -30 18 -30 21 0 2 14 -2 30 -11 23 -12 35
-13 50 -5z m836 4 c-1 -9 -10 -20 -18 -25 -21 -12 -18 18 3 32 18 11 18 12 15
-7z m294 -10 c0 -2 -9 0 -20 6 -11 6 -20 13 -20 16 0 2 9 0 20 -6 11 -6 20
-13 20 -16z m39 -53 c-2 -34 -2 -34 -6 -6 -3 17 -10 36 -15 43 -8 9 -7 11 6 6
11 -4 16 -17 15 -43z m-1592 -68 c-2 -16 -4 -5 -4 22 0 28 2 40 4 28 2 -13 2
-35 0 -50z m1200 10 c-3 -10 -5 -4 -5 12 0 17 2 24 5 18 2 -7 2 -21 0 -30z
m390 -15 c-3 -7 -5 -2 -5 12 0 14 2 19 5 13 2 -7 2 -19 0 -25z m-390 -60 c-2
-13 -4 -5 -4 17 -1 22 1 32 4 23 2 -10 2 -28 0 -40z m386 -49 c-4 -4 -6 15 -3
44 l5 52 3 -44 c2 -24 0 -47 -5 -52z m-1565 -17 c16 -12 15 -12 -2 -4 -14 7
-28 4 -53 -10 -18 -11 -33 -17 -33 -14 0 3 14 12 30 21 26 14 30 21 32 63 l1
47 4 -44 c3 -26 11 -51 21 -59z m510 -61 l73 -42 -3 -121 -3 -120 -99 -57 -99
-58 -98 59 c-86 51 -101 58 -121 48 l-23 -11 21 18 c18 16 20 29 19 125 0 94
-3 109 -20 123 -19 16 -19 16 3 5 19 -9 35 -3 120 48 l97 59 30 -17 c17 -10
63 -36 103 -59z m672 74 c0 -2 -10 -9 -22 -15 -22 -11 -22 -10 -4 4 21 17 26
19 26 11z m45 -5 c3 -6 -1 -7 -9 -4 -18 7 -21 14 -7 14 6 0 13 -4 16 -10z
m-1165 -46 c0 -2 -9 0 -20 6 -11 6 -20 13 -20 16 0 2 9 0 20 -6 11 -6 20 -13
20 -16z m770 0 c0 -2 -9 0 -20 6 -11 6 -20 13 -20 16 0 2 9 0 20 -6 11 -6 20
-13 20 -16z m470 0 c0 -2 -9 0 -20 6 -11 6 -20 13 -20 16 0 2 9 0 20 -6 11 -6
20 -13 20 -16z m-80 -10 c0 -2 -9 0 -20 6 -11 6 -20 13 -20 16 0 2 9 0 20 -6
11 -6 20 -13 20 -16z m-1320 11 c0 -2 -10 -9 -22 -15 -22 -11 -22 -10 -4 4 21
17 26 19 26 11z m797 -8 c0 -7 -9 -13 -19 -13 -18 0 -18 1 -2 13 10 7 18 13
19 13 1 0 2 -6 2 -13z m453 -2 c0 -2 -10 -9 -22 -15 -22 -11 -22 -10 -4 4 21
17 26 19 26 11z m200 -21 c0 -2 -9 0 -20 6 -11 6 -20 13 -20 16 0 2 9 0 20 -6
11 -6 20 -13 20 -16z m-1620 -10 c0 -2 -9 0 -20 6 -11 6 -20 13 -20 16 0 2 9
0 20 -6 11 -6 20 -13 20 -16z m400 0 c0 -2 -9 0 -20 6 -11 6 -20 13 -20 16 0
2 9 0 20 -6 11 -6 20 -13 20 -16z m770 0 c0 -2 -9 0 -20 6 -11 6 -20 13 -20
16 0 2 9 0 20 -6 11 -6 20 -13 20 -16z m160 21 c0 -2 -10 -9 -22 -15 -22 -11
-22 -10 -4 4 21 17 26 19 26 11z m-1210 -10 c0 -2 -17 -13 -39 -24 -35 -18
-40 -19 -57 -5 -18 15 -18 15 1 6 15 -7 29 -5 55 9 40 21 40 21 40 14z m797
-9 c0 -8 -6 -12 -15 -8 -10 3 -13 1 -8 -6 3 -6 2 -13 -3 -16 -5 -4 -8 1 -7 10
2 12 21 32 32 34 0 0 1 -6 1 -14z m643 -12 c0 -2 -9 0 -20 6 -11 6 -20 13 -20
16 0 2 9 0 20 -6 11 -6 20 -13 20 -16z m260 21 c0 -2 -10 -9 -22 -15 -22 -11
-22 -10 -4 4 21 17 26 19 26 11z m-50 -30 c0 -2 -10 -9 -22 -15 -22 -11 -22
-10 -4 4 21 17 26 19 26 11z m-533 -47 c-3 -7 -5 -2 -5 12 0 14 2 19 5 13 2
-7 2 -19 0 -25z m55 5 c-3 -16 -7 -22 -10 -15 -4 13 4 42 11 42 2 0 2 -12 -1
-27z m-1245 -150 c-2 -32 -3 -6 -3 57 0 63 1 89 3 58 2 -32 2 -84 0 -115z
m820 135 c-3 -7 -5 -2 -5 12 0 14 2 19 5 13 2 -7 2 -19 0 -25z m370 -45 c-3
-10 -5 -4 -5 12 0 17 2 24 5 18 2 -7 2 -21 0 -30z m50 -5 c-3 -8 -6 -5 -6 6
-1 11 2 17 5 13 3 -3 4 -12 1 -19z m-50 -100 c-2 -18 -4 -6 -4 27 0 33 2 48 4
33 2 -15 2 -42 0 -60z m-370 0 c-2 -13 -4 -3 -4 22 0 25 2 35 4 23 2 -13 2
-33 0 -45z m760 30 c-3 -7 -5 -2 -5 12 0 14 2 19 5 13 2 -7 2 -19 0 -25z
m-340 -25 c-3 -10 -5 -4 -5 12 0 17 2 24 5 18 2 -7 2 -21 0 -30z m483 -49 c0
-2 -9 0 -20 6 -11 6 -20 13 -20 16 0 2 9 0 20 -6 11 -6 20 -13 20 -16z m-854
-18 c2 -12 -2 -14 -14 -7 -8 5 -17 16 -18 25 -2 12 2 14 14 7 8 -5 17 -16 18
-25z m300 19 c-1 -8 -5 -17 -8 -21 -5 -4 -4 16 1 34 3 9 9 -1 7 -13z m134 -11
c0 -2 -9 0 -20 6 -11 6 -20 13 -20 16 0 2 9 0 20 -6 11 -6 20 -13 20 -16z
m-1139 -70 c26 -16 40 -19 55 -12 18 9 18 9 1 -5 -17 -14 -26 -10 -105 35 -48
28 -91 55 -97 61 -11 11 85 -41 146 -79z m1109 50 c0 -2 -9 0 -20 6 -11 6 -20
13 -20 16 0 2 9 0 20 -6 11 -6 20 -13 20 -16z m240 21 c0 -2 -10 -9 -22 -15
-22 -11 -22 -10 -4 4 21 17 26 19 26 11z m-1560 -10 c0 -2 -13 -11 -30 -20
-38 -19 -40 -11 -2 9 31 17 32 18 32 11z m970 -20 c0 -2 -5 -7 -12 -11 -7 -5
-8 -3 -3 6 6 9 4 12 -7 8 -8 -4 -15 0 -15 7 0 10 5 11 19 4 10 -5 18 -12 18
-14z m197 11 c0 -8 -6 -12 -15 -8 -10 3 -13 1 -8 -6 3 -6 2 -13 -3 -16 -5 -4
-8 1 -7 10 2 12 21 32 32 34 0 0 1 -6 1 -14z m573 -22 c0 -2 -9 0 -20 6 -11 6
-20 13 -20 16 0 2 9 0 20 -6 11 -6 20 -13 20 -16z m-1390 1 c0 -2 -13 -11 -30
-20 -38 -19 -40 -11 -2 9 31 17 32 18 32 11z m1040 -21 c0 -2 -9 0 -20 6 -11
6 -20 13 -20 16 0 2 9 0 20 -6 11 -6 20 -13 20 -16z m180 21 c0 -2 -10 -9 -22
-15 -22 -11 -22 -10 -4 4 21 17 26 19 26 11z m-1640 -10 c0 -2 -10 -9 -22 -15
-22 -11 -22 -10 -4 4 21 17 26 19 26 11z m1105 -26 c-4 -5 -1 -9 4 -9 18 0 26
5 24 12 -2 4 6 12 16 18 28 14 21 -16 -8 -36 -17 -12 -25 -13 -36 -4 -8 7 -12
17 -8 23 4 6 0 8 -9 5 -8 -4 -15 0 -15 7 0 10 5 11 19 4 10 -6 16 -14 13 -20z
m425 17 c-7 -7 -13 -7 -20 0 -6 6 -3 10 10 10 13 0 16 -4 10 -10z m-1213 -108
c-3 -8 -6 -5 -6 6 -1 11 2 17 5 13 3 -3 4 -12 1 -19z m0 -110 c-3 -7 -5 -2 -5
12 0 14 2 19 5 13 2 -7 2 -19 0 -25z m27 -61 c21 -17 21 -17 -6 -6 -18 8 -28
19 -27 33 0 14 2 16 6 6 3 -8 15 -23 27 -33z m402 -3 c18 -14 18 -15 -3 -4
-18 8 -30 7 -53 -5 -38 -19 -40 -11 -2 9 34 19 34 19 58 0z m400 0 c18 -14 18
-15 -4 -4 -19 9 -31 6 -77 -20 -30 -17 -55 -29 -55 -27 0 6 101 66 111 67 3 0
14 -7 25 -16z m429 -15 c-4 -5 -14 -5 -26 1 -11 6 -17 15 -14 21 4 5 14 5 26
-1 11 -6 17 -15 14 -21z m335 27 c0 -2 -7 -7 -16 -10 -8 -3 -12 -2 -9 4 6 10
25 14 25 6z m-1610 -10 c0 -2 -37 -25 -82 -52 -46 -26 -88 -53 -94 -60 -8 -10
-13 -9 -21 6 -10 15 -9 17 5 14 9 -3 55 18 102 45 89 53 90 53 90 47z m-290
-42 c0 -2 -13 2 -30 11 -16 9 -30 18 -30 21 0 2 14 -2 30 -11 17 -9 30 -18 30
-21z m1860 31 c0 -2 -10 -9 -22 -15 -22 -11 -22 -10 -4 4 21 17 26 19 26 11z
m-1460 -31 c0 -2 -9 0 -20 6 -11 6 -20 13 -20 16 0 2 9 0 20 -6 11 -6 20 -13
20 -16z m420 -10 c0 -2 -13 2 -30 11 -16 9 -30 18 -30 21 0 2 14 -2 30 -11 17
-9 30 -18 30 -21z m820 1 c0 -2 -5 -7 -12 -11 -7 -5 -8 -3 -3 6 6 10 4 12 -9
7 -10 -4 -19 -1 -22 8 -4 8 -11 12 -17 8 -6 -3 -7 -1 -3 5 5 9 15 8 37 -3 16
-9 29 -17 29 -20z m-1000 20 c0 -2 -13 -11 -30 -20 -38 -19 -40 -11 -2 9 31
17 32 18 32 11z m580 -21 c0 -2 -9 0 -20 6 -11 6 -20 13 -20 16 0 2 9 0 20 -6
11 -6 20 -13 20 -16z m-1150 -30 c0 -2 -13 2 -30 11 -16 9 -30 18 -30 21 0 2
14 -2 30 -11 17 -9 30 -18 30 -21z m1720 31 c0 -2 -10 -9 -22 -15 -22 -11 -22
-10 -4 4 21 17 26 19 26 11z m-1320 -31 c0 -2 -9 0 -20 6 -11 6 -20 13 -20 16
0 2 9 0 20 -6 11 -6 20 -13 20 -16z m420 -10 c0 -2 -13 2 -30 11 -16 9 -30 18
-30 21 0 2 14 -2 30 -11 17 -9 30 -18 30 -21z m100 32 c0 -7 -71 -46 -83 -46
-6 0 8 11 33 25 49 27 50 27 50 21z m700 -20 c0 -3 -40 -1 -48 3 -2 0 0 6 3
11 5 9 45 -3 45 -14z m140 19 c0 -2 -10 -9 -22 -15 -22 -11 -22 -10 -4 4 21
17 26 19 26 11z m-1260 -10 c0 -2 -10 -9 -22 -15 -22 -11 -22 -10 -4 4 21 17
26 19 26 11z m720 -21 c0 -2 -9 0 -20 6 -11 6 -20 13 -20 16 0 2 9 0 20 -6 11
-6 20 -13 20 -16z m-776 -16 c-3 -5 -12 -4 -20 3 -19 16 -18 18 6 12 11 -3 17
-9 14 -15z m1200 16 c-6 -3 -10 -17 -8 -32 4 -27 4 -27 -5 -2 -9 28 -5 40 12
39 8 0 8 -2 1 -5z m33 -29 c-7 -13 -14 -20 -15 -14 -2 5 2 16 8 24 18 21 20
18 7 -10z m-1640 -52 c-3 -10 -5 -4 -5 12 0 17 2 24 5 18 2 -7 2 -21 0 -30z
m1600 -60 c-3 -10 -5 -4 -5 12 0 17 2 24 5 18 2 -7 2 -21 0 -30z m-1600 -5
c-3 -7 -5 -2 -5 12 0 14 2 19 5 13 2 -7 2 -19 0 -25z m0 -40 c-3 -8 -6 -5 -6
6 -1 11 2 17 5 13 3 -3 4 -12 1 -19z m1596 -59 c-6 -6 -7 3 -4 23 4 28 6 29 9
9 2 -13 0 -27 -5 -32z m-1530 -33 c26 -15 47 -29 47 -32 0 -2 -25 10 -55 27
-30 17 -62 29 -70 25 -12 -4 -13 -2 -3 14 9 14 14 16 22 6 6 -7 32 -25 59 -40z
m1578 37 c13 -16 12 -17 -3 -4 -17 13 -22 21 -14 21 2 0 10 -8 17 -17z m-1237
-2 c3 -5 -3 -11 -15 -14 -16 -4 -18 -3 -8 9 13 16 16 17 23 5z m386 -14 c-14
-8 -36 -19 -50 -27 -31 -16 -20 -3 17 21 16 10 35 18 43 18 8 1 4 -5 -10 -12z
m-310 -33 c0 -2 -13 2 -30 11 -16 9 -30 18 -30 21 0 2 14 -2 30 -11 17 -9 30
-18 30 -21z m400 0 c0 -2 -13 2 -30 11 -16 9 -30 18 -30 21 0 2 14 -2 30 -11
17 -9 30 -18 30 -21z m-520 21 c0 -2 -10 -9 -22 -15 -22 -11 -22 -10 -4 4 21
17 26 19 26 11z m1249 1 c-2 -2 -15 -9 -29 -15 -24 -11 -24 -11 -6 3 16 13 49
24 35 12z m-1669 -11 c0 -2 -10 -9 -22 -15 -22 -11 -22 -10 -4 4 21 17 26 19
26 11z m590 -41 c0 -2 -9 0 -20 6 -11 6 -20 13 -20 16 0 2 9 0 20 -6 11 -6 20
-13 20 -16z m180 21 c0 -2 -18 -14 -40 -25 -22 -11 -40 -18 -40 -15 0 2 17 13
38 24 42 23 42 23 42 16z m-820 -10 c0 -2 -13 -11 -30 -20 -38 -19 -40 -11 -2
9 31 17 32 18 32 11z m400 0 c0 -2 -10 -9 -22 -15 -22 -11 -22 -10 -4 4 21 17
26 19 26 11z m1500 -21 c0 -2 -9 0 -20 6 -11 6 -20 13 -20 16 0 2 9 0 20 -6
11 -6 20 -13 20 -16z m-1610 -20 c0 -2 -13 2 -30 11 -16 9 -30 18 -30 21 0 2
14 -2 30 -11 17 -9 30 -18 30 -21z m1550 10 c0 -2 -9 0 -20 6 -11 6 -20 13
-20 16 0 2 9 0 20 -6 11 -6 20 -13 20 -16z m-1117 -8 c9 5 9 4 1 -5 -9 -10
-18 -9 -43 3 -17 9 -31 19 -31 22 0 2 14 -3 30 -11 17 -9 36 -13 43 -9z m837
19 c0 -2 -10 -9 -22 -15 -22 -11 -22 -10 -4 4 21 17 26 19 26 11z m-1238 -27
c-5 -7 -12 -22 -15 -33 -4 -16 -5 -14 -6 7 -1 22 7 33 28 37 2 1 -1 -5 -7 -11z
m1185 -50 c-3 -8 -6 -5 -6 6 -1 11 2 17 5 13 3 -3 4 -12 1 -19z"/>
<path d="M705 1167 l-90 -53 0 -114 0 -114 92 -53 92 -54 93 53 93 54 0 114 0
114 -90 52 c-49 29 -92 53 -95 53 -3 1 -45 -23 -95 -52z"/>
</g>
</svg>
