<?xml version="1.0" standalone="no"?>
<!DOCTYPE svg PUBLIC "-//W3C//DTD SVG 20010904//EN"
 "http://www.w3.org/TR/2001/REC-SVG-20010904/DTD/svg10.dtd">
<svg version="1.0" xmlns="http://www.w3.org/2000/svg"
 width="200.000000pt" height="200.000000pt" viewBox="0 0 200.000000 200.000000"
 preserveAspectRatio="xMidYMid meet">
<metadata>
Created by potrace 1.16, written by Peter Selinger 2001-2019
</metadata>
<g transform="translate(0.000000,200.000000) scale(0.100000,-0.100000)"
fill="#000000" stroke="none">
<path d="M0 1855 c0 -90 4 -145 10 -145 6 0 10 -8 10 -17 0 -15 -2 -16 -10 -3
-6 10 -10 -228 -10 -674 0 -461 4 -693 11 -702 7 -8 7 -14 -1 -19 -6 -4 -10
-61 -10 -151 l0 -144 265 0 c220 0 272 3 298 15 29 14 30 14 13 0 -19 -14 -18
-15 20 -15 36 1 38 2 20 15 -11 8 -15 15 -10 15 6 0 19 -7 30 -15 27 -20 239
-21 251 -1 4 7 31 28 59 45 l52 31 56 -32 c30 -18 56 -39 56 -45 0 -9 21 -13
70 -13 67 0 70 1 70 24 0 20 14 32 71 65 39 23 75 41 81 41 5 0 41 -18 79 -40
56 -33 69 -46 69 -65 0 -22 5 -25 35 -25 33 0 35 2 35 34 0 32 5 36 90 86 l90
52 68 -38 c106 -58 120 -71 125 -107 2 -17 5 -2 5 35 l2 66 -75 44 -75 43 0
91 0 90 75 43 75 42 0 144 0 143 -100 57 -100 56 0 119 0 118 100 57 100 57 0
132 0 131 -83 46 -82 46 -3 106 -3 105 85 49 85 48 1 53 c0 51 -1 52 -29 52
-20 0 -30 -6 -34 -19 -2 -10 -33 -36 -68 -56 l-64 -38 -65 35 c-44 24 -66 42
-68 57 -3 19 -10 21 -83 21 -43 0 -79 -4 -79 -9 0 -5 -25 -24 -55 -41 l-55
-31 -55 31 c-30 17 -55 36 -55 41 0 5 -47 9 -106 9 -91 0 -110 -3 -144 -22
l-40 -23 -42 22 c-43 23 -46 23 -500 23 l-458 0 0 -145z m1665 -30 c35 -20 68
-42 75 -49 6 -9 10 -39 7 -78 l-3 -63 -2 67 -2 67 -69 41 -68 41 -66 -38 -67
-38 0 -80 0 -80 67 -38 67 -38 73 45 c40 24 73 41 73 37 0 -4 -33 -27 -74 -50
l-75 -43 -70 42 -71 41 0 84 0 84 68 40 c37 22 69 40 70 41 2 0 32 -16 67 -35z
m-402 -45 c47 -29 47 -30 47 -85 0 -55 0 -56 -47 -85 -26 -17 -54 -30 -63 -30
-16 0 -110 55 -110 65 0 3 22 -9 49 -25 26 -17 54 -30 60 -30 7 0 33 12 57 26
l45 26 -3 55 c-3 53 -4 55 -50 81 l-47 27 -38 -20 c-21 -11 -45 -28 -55 -37
-10 -10 -18 -14 -18 -8 0 13 90 70 111 70 8 0 36 -13 62 -30z m-463 -14 c0 -3
-13 -14 -30 -26 -16 -12 -30 -18 -30 -13 0 4 12 15 28 25 32 19 32 19 32 14z
m60 -71 c0 -36 -4 -43 -27 -53 -28 -12 -28 -12 -5 4 15 11 22 27 22 49 0 22
-7 38 -22 49 -23 16 -23 16 5 4 23 -10 27 -17 27 -53z m237 -7 c-3 -7 -5 -2
-5 12 0 14 2 19 5 13 2 -7 2 -19 0 -25z m-680 0 c-3 -8 -6 -5 -6 6 -1 11 2 17
5 13 3 -3 4 -12 1 -19z m383 -63 c0 -2 -13 4 -30 13 -16 9 -30 21 -30 25 0 5
14 -1 30 -13 17 -12 30 -23 30 -25z m1085 -139 l70 -42 3 -96 3 -96 -73 -42
c-40 -24 -77 -43 -83 -43 -5 0 -45 19 -87 43 l-78 44 0 93 0 92 78 45 c42 25
82 45 87 45 6 0 42 -19 80 -43z m-415 -29 l55 -33 3 -76 3 -76 -66 -36 -65
-37 -65 37 -66 36 3 76 3 76 55 32 c30 18 62 33 70 34 8 0 40 -15 70 -33z
m-420 -29 c39 -23 40 -24 40 -80 l0 -56 -45 -27 -46 -26 -44 26 c-25 14 -45
28 -45 31 0 3 20 -7 44 -21 l45 -26 40 23 c39 22 41 25 41 75 0 48 -2 52 -36
72 -45 27 -51 26 -97 -4 -20 -14 -37 -22 -37 -18 0 10 71 52 88 53 7 0 31 -10
52 -22z m-419 -39 l24 -20 -30 17 c-39 24 -40 24 -28 24 6 0 21 -9 34 -21z
m-63 -3 c-26 -19 -23 -61 5 -79 20 -13 26 -13 50 -1 15 8 27 12 27 10 0 -3
-12 -12 -27 -19 -23 -12 -30 -12 -55 2 -21 12 -28 23 -28 48 0 20 7 36 18 42
24 15 30 13 10 -3z m-362 -28 c4 -7 3 -8 -4 -4 -7 4 -12 3 -12 -3 0 -5 6 -12
13 -14 7 -3 5 -6 -5 -6 -18 -1 -24 19 -11 32 9 9 11 9 19 -5z m1488 -209 l87
-51 -3 -101 -3 -101 -84 -48 c-46 -26 -86 -48 -89 -48 -2 0 -42 21 -88 47
l-83 48 -3 98 c-2 55 -1 102 2 106 6 9 162 101 172 101 3 0 45 -23 92 -51z
m-425 -35 l61 -36 0 -79 0 -78 -65 -36 -65 -37 -65 37 -65 36 0 79 0 79 63 35
c34 20 65 36 69 36 4 0 34 -16 67 -36z m-429 -44 c39 -20 40 -22 40 -70 0 -49
-1 -51 -43 -71 l-43 -21 -37 22 c-35 21 -37 25 -37 71 0 45 2 50 33 64 28 14
30 14 13 0 -11 -8 -23 -15 -28 -15 -4 0 -8 -22 -8 -48 0 -46 2 -49 36 -65 34
-17 38 -17 68 1 26 15 31 25 34 63 3 44 2 45 -40 66 -24 12 -39 22 -35 22 4 1
26 -8 47 -19z m-426 -49 c3 -5 -2 -8 -12 -7 -9 0 -17 -6 -17 -14 0 -9 8 -14
19 -13 13 1 15 -2 7 -10 -8 -8 -16 -7 -28 5 -13 14 -14 20 -3 32 14 18 26 20
34 7z m1455 -253 c31 -17 59 -36 63 -42 4 -6 6 -42 5 -81 l-2 -70 -67 -38 -66
-38 -67 38 -66 38 3 79 3 80 55 32 c30 18 61 33 69 34 7 0 39 -14 70 -32z
m-409 -27 c44 -27 45 -28 48 -87 l3 -59 -56 -33 -55 -33 -38 22 c-61 36 -72
50 -71 83 l2 31 6 -34 c5 -28 15 -40 54 -63 l47 -27 48 27 c46 28 47 29 50 84
l3 56 -47 26 c-25 14 -50 26 -55 26 -15 0 -98 -54 -103 -67 -2 -8 -3 -6 -2 4
1 18 81 71 106 71 8 0 35 -12 60 -27z m-417 -26 c25 -18 37 -33 36 -48 l-1
-22 -6 23 c-4 12 -22 31 -40 42 l-34 21 -34 -21 c-29 -18 -34 -27 -34 -59 0
-30 5 -40 29 -54 38 -23 48 -22 87 8 19 14 31 20 29 13 -3 -8 -22 -22 -41 -33
-36 -19 -36 -19 -73 2 -33 19 -36 25 -36 64 0 38 4 46 34 66 19 13 37 23 40
23 4 0 23 -11 44 -25z m-455 -27 c-34 -12 -38 -52 -7 -68 28 -16 52 5 47 41
-3 16 -1 26 4 23 17 -10 8 -59 -13 -72 -17 -11 -25 -11 -45 3 -42 27 -24 86
26 84 8 0 3 -5 -12 -11z m-381 -44 c-9 -9 -28 6 -21 18 4 6 10 6 17 -1 6 -6 8
-13 4 -17z m1506 -263 c14 -12 17 -27 15 -80 l-3 -66 -60 -36 -60 -37 -60 33
-60 33 -3 75 -3 75 62 35 63 36 45 -26 c25 -15 54 -33 64 -42z m-469 3 c46
-26 46 -26 46 -79 0 -53 -1 -54 -44 -78 l-44 -24 -46 25 c-46 25 -46 26 -46
78 0 51 1 53 43 77 23 14 43 25 43 26 1 1 22 -11 48 -25z m-454 -29 c0 -2 -10
-9 -22 -15 -22 -11 -22 -10 -4 4 21 17 26 19 26 11z m46 -11 c18 -14 18 -14
-6 -3 -31 14 -36 19 -24 19 6 0 19 -7 30 -16z m-435 -44 c6 0 7 5 3 12 -4 7
-3 8 5 4 14 -9 5 -26 -15 -26 -8 0 -14 8 -13 18 0 10 3 12 6 5 2 -7 9 -13 14
-13z m446 -2 c-3 -8 -6 -5 -6 6 -1 11 2 17 5 13 3 -3 4 -12 1 -19z m-19 -29
c25 10 26 10 8 -4 -11 -8 -27 -15 -36 -15 -9 0 -25 7 -36 15 -18 14 -17 14 9
4 21 -9 33 -9 55 0z"/>
<path d="M1723 1477 l-73 -42 0 -86 0 -87 69 -41 c38 -22 75 -41 83 -41 7 0
42 17 78 38 l65 38 3 90 3 90 -74 42 c-41 23 -76 42 -78 41 -2 0 -37 -19 -76
-42z"/>
<path d="M1332 1447 l-53 -32 3 -69 3 -70 58 -34 58 -34 57 34 57 34 3 69 3
70 -55 33 c-30 17 -60 32 -68 32 -7 -1 -37 -15 -66 -33z"/>
<path d="M1518 1144 l-78 -46 0 -98 0 -98 81 -47 81 -46 84 48 84 48 0 95 0
95 -83 48 c-46 26 -85 47 -88 47 -2 -1 -39 -21 -81 -46z"/>
<path d="M1138 1107 l-58 -32 0 -75 0 -75 60 -33 60 -33 60 33 60 33 0 75 0
75 -59 33 c-32 17 -60 32 -62 32 -2 -1 -30 -15 -61 -33z"/>
<path d="M1733 757 l-53 -31 0 -72 0 -73 60 -36 60 -36 63 35 64 36 -1 72 -1
72 -55 32 c-30 18 -62 33 -70 33 -8 -1 -39 -15 -67 -32z"/>
<path d="M1547 406 l-57 -31 0 -67 0 -68 48 -30 c26 -16 53 -30 61 -30 7 0 38
14 67 31 l54 30 0 64 0 63 -58 34 -59 35 -56 -31z"/>
<path d="M1157 374 c-36 -24 -38 -27 -35 -72 3 -42 6 -48 41 -68 l39 -21 39
21 c37 20 39 23 39 72 0 48 -2 51 -37 69 -21 11 -40 20 -43 22 -3 1 -22 -9
-43 -23z"/>
<path d="M960 1985 c32 -18 52 -19 76 0 17 13 14 14 -41 14 -57 0 -59 0 -35
-14z"/>
<path d="M1304 1991 c3 -5 26 -21 51 -36 l45 -26 50 28 c28 15 50 31 50 36 0
4 -45 7 -101 7 -57 0 -98 -4 -95 -9z"/>
<path d="M1680 1983 c0 -12 23 -30 61 -51 l60 -33 64 36 c99 55 90 65 -60 65
-112 0 -125 -2 -125 -17z"/>
<path d="M1915 1836 l-70 -42 -3 -99 -2 -100 72 -40 c40 -22 76 -41 80 -43 5
-2 8 80 8 182 0 102 -3 186 -7 185 -5 0 -39 -19 -78 -43z"/>
<path d="M1905 1166 l-90 -52 -3 -111 -3 -112 93 -55 93 -54 3 109 c1 60 1
158 0 218 l-3 109 -90 -52z"/>
<path d="M1928 429 l-68 -40 0 -84 0 -84 68 -40 67 -39 3 78 c1 44 1 117 0
164 l-3 84 -67 -39z"/>
<path d="M1715 111 c-70 -42 -80 -51 -83 -79 l-3 -32 175 0 176 0 0 29 c0 25
-10 34 -89 80 -49 28 -90 51 -92 51 -2 -1 -40 -22 -84 -49z"/>
<path d="M1328 82 c-52 -29 -68 -42 -68 -59 0 -23 1 -23 140 -23 139 0 140 0
140 23 0 17 -15 30 -63 57 -34 19 -66 36 -72 37 -5 2 -40 -14 -77 -35z"/>
<path d="M957 55 c-86 -50 -83 -55 37 -55 122 0 129 7 50 50 l-49 27 -38 -22z"/>
</g>
</svg>
