<?xml version="1.0" standalone="no"?>
<!DOCTYPE svg PUBLIC "-//W3C//DTD SVG 20010904//EN"
 "http://www.w3.org/TR/2001/REC-SVG-20010904/DTD/svg10.dtd">
<svg version="1.0" xmlns="http://www.w3.org/2000/svg"
 width="200.000000pt" height="200.000000pt" viewBox="0 0 200.000000 200.000000"
 preserveAspectRatio="xMidYMid meet">
<metadata>
Created by potrace 1.16, written by Peter Selinger 2001-2019
</metadata>
<g transform="translate(0.000000,200.000000) scale(0.100000,-0.100000)"
fill="#000000" stroke="none">
<path d="M0 1984 c0 -8 5 -12 10 -9 6 3 10 1 10 -4 0 -6 -4 -11 -10 -11 -6 0
-10 -49 -10 -127 l0 -128 92 -53 c51 -29 94 -48 96 -43 2 6 8 11 13 11 4 0 5
-7 2 -17 -4 -10 -2 -14 4 -10 7 5 9 -1 6 -14 -5 -18 -8 -20 -17 -8 -16 22 -82
60 -89 52 -4 -3 -7 -2 -7 4 0 5 -23 22 -50 37 l-50 27 1 -346 c0 -303 2 -345
15 -334 8 6 17 9 20 6 3 -3 -3 -10 -14 -16 -18 -10 -20 -22 -21 -132 -1 -88 1
-119 10 -114 6 4 9 18 6 31 -5 26 0 29 22 15 12 -8 12 -12 2 -25 -11 -13 -11
-19 0 -33 13 -16 12 -17 -3 -4 -16 12 -18 11 -18 -3 0 -10 -4 -14 -10 -11 -6
4 -10 -7 -10 -25 0 -18 4 -29 10 -25 5 3 10 1 10 -4 0 -6 -4 -11 -10 -11 -5 0
-10 -9 -10 -20 0 -11 5 -20 10 -20 6 0 10 -5 10 -11 0 -5 -4 -7 -10 -4 -5 3
-10 -3 -10 -15 0 -14 4 -19 13 -14 10 6 10 4 0 -7 -20 -20 -15 -45 10 -58 21
-11 21 -11 1 -6 -21 6 -22 3 -22 -80 0 -62 3 -83 11 -79 8 5 8 2 -1 -7 -8 -9
-12 -59 -12 -176 0 -149 6 -184 25 -153 3 6 14 10 23 10 15 0 15 -2 2 -10 -10
-7 23 -10 101 -10 92 0 119 3 129 15 7 8 17 15 23 15 5 0 25 9 44 21 29 18 32
23 21 37 -11 13 -10 15 4 9 11 -4 18 0 21 11 3 12 5 10 6 -6 1 -15 5 -21 13
-16 7 4 8 3 4 -5 -4 -6 -28 -22 -54 -36 -26 -13 -53 -28 -61 -34 -19 -13 408
-12 433 1 13 7 16 7 12 -1 -5 -7 53 -10 184 -10 175 1 190 2 178 17 -11 14
-10 14 12 -1 33 -23 127 -23 160 0 21 15 23 15 12 1 -12 -15 15 -16 310 -16
195 0 330 4 342 10 13 7 16 7 12 -1 -5 -7 2 -11 18 -11 l24 0 0 210 c0 183 -2
212 -16 227 -16 16 -16 16 1 10 16 -6 17 0 16 53 -1 33 -5 57 -9 55 -4 -2 -7
2 -7 10 0 8 4 12 9 9 5 -3 8 40 7 95 -1 93 -3 101 -21 101 -11 0 -16 5 -13 11
4 6 13 8 21 5 21 -8 18 163 -3 187 -9 9 -13 20 -10 24 4 3 7 1 7 -5 0 -7 4
-12 9 -12 4 0 9 54 9 120 1 101 -1 118 -13 114 -8 -4 -15 -1 -15 5 0 6 6 10
13 9 9 -2 13 23 15 96 3 83 0 101 -15 119 -16 19 -16 20 0 8 16 -12 17 -9 17
47 0 44 -5 65 -17 78 -16 16 -16 17 -1 12 15 -6 16 10 17 178 0 142 -3 183
-12 178 -9 -5 -9 -3 1 7 22 23 15 49 -14 49 -16 0 -23 -4 -18 -11 4 -8 1 -8
-12 -1 -12 6 -143 10 -342 10 -292 0 -321 -2 -310 -16 11 -13 10 -13 -12 1
-21 14 -59 16 -252 16 l-227 -1 1 -32 c1 -42 -6 -53 -49 -71 -32 -13 -34 -17
-22 -33 13 -15 12 -16 -2 -4 -14 10 -23 9 -53 -9 -20 -11 -34 -24 -32 -27 2
-4 -10 -8 -27 -8 -17 -1 -33 -6 -35 -13 -2 -6 -8 -11 -14 -11 -7 0 -7 4 0 13
8 10 -5 22 -59 55 -39 23 -75 42 -80 42 -6 0 -18 7 -27 16 -15 15 -14 16 7 9
13 -4 52 -25 87 -47 42 -27 71 -38 85 -35 16 4 19 2 15 -10 -8 -21 9 -13 111
48 77 47 83 53 83 83 l0 33 -95 2 c-70 1 -95 -2 -95 -11 0 -8 -3 -9 -8 -3 -9
13 -127 20 -119 8 3 -5 -3 -9 -13 -9 -10 0 -16 4 -14 8 7 11 -266 4 -290 -7
-14 -6 -17 -5 -12 3 12 19 -66 15 -94 -5 -24 -16 -24 -16 -11 0 12 15 11 17
-13 17 -17 0 -26 -5 -26 -16z m320 2 c0 -3 -4 -8 -10 -11 -5 -3 -10 -1 -10 4
0 6 5 11 10 11 6 0 10 -2 10 -4z m400 0 c0 -3 -4 -8 -10 -11 -5 -3 -10 -1 -10
4 0 6 5 11 10 11 6 0 10 -2 10 -4z m175 -6 c3 -5 1 -10 -4 -10 -6 0 -11 5 -11
10 0 6 2 10 4 10 3 0 8 -4 11 -10z m819 -5 c11 -8 15 -15 10 -15 -6 0 -19 7
-30 15 -10 8 -14 14 -9 14 6 0 19 -6 29 -14z m-1599 -13 c-3 -3 -11 0 -18 7
-9 10 -8 11 6 5 10 -3 15 -9 12 -12z m822 4 c0 -8 -6 -12 -15 -9 -11 5 -11 7
0 14 7 5 13 9 14 9 0 0 1 -6 1 -14z m948 -4 c-3 -3 -11 0 -18 7 -9 10 -8 11 6
5 10 -3 15 -9 12 -12z m-1465 -17 c12 -18 12 -19 -3 -7 -20 17 -37 8 -37 -19
0 -24 -13 -25 -31 -2 -8 9 -9 14 -3 10 14 -8 38 18 30 32 -4 5 2 9 13 8 10 0
24 -10 31 -22z m286 10 c10 -8 15 -14 9 -14 -5 0 -19 6 -29 14 -11 8 -15 15
-10 15 6 0 19 -7 30 -15z m504 5 c0 -5 -4 -10 -10 -10 -5 0 -10 5 -10 10 0 6
5 10 10 10 6 0 10 -4 10 -10z m280 6 c0 -2 -7 -7 -16 -10 -8 -3 -12 -2 -9 4 6
10 25 14 25 6z m120 -5 c0 -5 -7 -12 -16 -15 -14 -5 -15 -4 -4 9 14 17 20 19
20 6z m-1295 -11 c3 -5 1 -10 -4 -10 -6 0 -11 5 -11 10 0 6 2 10 4 10 3 0 8
-4 11 -10z m800 0 c3 -5 1 -10 -4 -10 -6 0 -11 5 -11 10 0 6 2 10 4 10 3 0 8
-4 11 -10z m585 0 c0 -5 -5 -10 -11 -10 -5 0 -7 5 -4 10 3 6 8 10 11 10 2 0 4
-4 4 -10z m-1494 -37 c-6 -6 -36 9 -36 18 0 5 9 4 20 -3 10 -7 18 -14 16 -15z
m782 15 c8 -8 15 -8 24 0 10 8 13 5 14 -13 l2 -23 -34 20 c-19 11 -34 22 -34
24 0 8 16 4 28 -8z m418 -15 c-6 -6 -36 9 -36 18 0 5 9 4 20 -3 10 -7 18 -14
16 -15z m34 23 c0 -3 -4 -8 -10 -11 -5 -3 -10 -1 -10 4 0 6 5 11 10 11 6 0 10
-2 10 -4z m400 0 c0 -3 -4 -8 -10 -11 -5 -3 -10 -1 -10 4 0 6 5 11 10 11 6 0
10 -2 10 -4z m-1794 -22 c-3 -9 -6 -18 -6 -20 0 -3 -6 1 -14 8 -10 9 -11 15
-2 20 19 13 28 9 22 -8z m559 6 c3 -5 2 -10 -4 -10 -5 0 -13 5 -16 10 -3 6 -2
10 4 10 5 0 13 -4 16 -10z m591 -5 c-16 -17 -36 -20 -36 -6 0 8 17 16 43 20 5
0 2 -6 -7 -14z m399 -1 c-9 -9 -19 -13 -23 -10 -3 4 0 11 8 16 24 15 33 11 15
-6z m-755 -4 c0 -5 -4 -10 -9 -10 -6 0 -13 5 -16 10 -3 6 1 10 9 10 9 0 16 -4
16 -10z m400 0 c0 -5 -4 -10 -10 -10 -5 0 -10 5 -10 10 0 6 5 10 10 10 6 0 10
-4 10 -10z m400 0 c0 -5 -4 -10 -10 -10 -5 0 -10 5 -10 10 0 6 5 10 10 10 6 0
10 -4 10 -10z m350 0 c0 -5 -4 -10 -10 -10 -5 0 -10 5 -10 10 0 6 5 10 10 10
6 0 10 -4 10 -10z m-210 -10 c0 -5 -5 -10 -11 -10 -5 0 -7 5 -4 10 3 6 8 10
11 10 2 0 4 -4 4 -10z m-1620 -10 c0 -5 -5 -10 -11 -10 -5 0 -7 5 -4 10 3 6 8
10 11 10 2 0 4 -4 4 -10z m1170 -36 c0 -2 -13 2 -30 11 -16 9 -30 18 -30 21 0
2 14 -2 30 -11 17 -9 30 -18 30 -21z m390 4 c0 -5 -11 -1 -25 8 -14 9 -25 18
-25 20 0 2 11 -2 25 -8 14 -6 25 -15 25 -20z m-1596 7 c-6 -16 -24 -21 -24 -7
0 11 11 22 21 22 5 0 6 -7 3 -15z m203 1 c5 -5 2 -6 -5 -2 -7 4 -18 3 -25 -2
-8 -7 -16 -6 -24 3 -9 10 -6 12 17 11 16 -1 32 -5 37 -10z m792 10 c-2 -2 -15
-9 -29 -15 -24 -11 -24 -11 -6 3 16 13 49 24 35 12z m400 0 c-2 -2 -15 -9 -29
-15 -24 -11 -24 -11 -6 3 16 13 49 24 35 12z m-1089 -16 c0 -5 -5 -10 -11 -10
-5 0 -7 5 -4 10 3 6 8 10 11 10 2 0 4 -4 4 -10z m495 0 c3 -5 2 -10 -4 -10 -5
0 -13 5 -16 10 -3 6 -2 10 4 10 5 0 13 -4 16 -10z m975 -2 c0 -6 -3 -8 -7 -5
-3 4 -13 1 -22 -6 -14 -11 -14 -10 -2 6 15 20 31 22 31 5z m-1731 -22 c1 13
48 6 57 -8 3 -5 -5 -6 -20 -2 -16 4 -26 2 -26 -5 0 -8 -5 -8 -19 1 -11 7 -17
18 -13 27 4 12 7 11 13 -5 4 -10 8 -14 8 -8z m231 -9 c0 -2 -8 -3 -18 -3 -10
0 -19 6 -19 13 0 8 6 9 19 2 10 -5 18 -11 18 -12z m426 8 c-11 -8 -24 -15 -30
-15 -5 0 -1 7 10 15 10 8 24 14 29 14 6 0 1 -6 -9 -14z m751 -7 c-3 -8 -6 -5
-6 6 -1 11 2 17 5 13 3 -3 4 -12 1 -19z m-597 1 c0 -4 -6 -9 -13 -12 -8 -3
-14 0 -14 7 0 7 6 13 14 13 7 0 13 -4 13 -8z m67 -4 c0 -5 -13 -11 -29 -12
-22 -2 -26 0 -16 10 14 15 45 17 45 2z m337 -6 c-3 -5 -10 -7 -15 -3 -5 3 -7
10 -3 15 3 5 10 7 15 3 5 -3 7 -10 3 -15z m63 6 c0 -6 -6 -12 -14 -12 -7 0
-13 6 -13 12 0 6 6 12 13 12 8 0 14 -6 14 -12z m353 5 c-12 -8 -12 -10 -1 -10
8 0 12 -2 9 -5 -3 -3 -13 -2 -22 1 -14 5 -15 9 -4 15 7 5 18 9 23 9 6 0 3 -5
-5 -10z m44 -2 c-3 -4 -9 -8 -15 -8 -5 0 -9 4 -9 8 0 5 7 9 15 9 8 0 12 -4 9
-9z m-634 -8 c0 -5 -5 -10 -11 -10 -5 0 -7 5 -4 10 3 6 8 10 11 10 2 0 4 -4 4
-10z m400 0 c0 -5 -4 -10 -10 -10 -5 0 -10 5 -10 10 0 6 5 10 10 10 6 0 10 -4
10 -10z m-1495 -21 c-6 -30 -7 -30 -35 -8 -21 17 -22 19 -3 10 29 -15 33 -14
27 4 -4 8 -1 15 4 15 6 0 9 -10 7 -21z m315 11 c0 -5 -2 -10 -4 -10 -3 0 -8 5
-11 10 -3 6 -1 10 4 10 6 0 11 -4 11 -10z m-233 -22 c-3 -8 -6 -5 -6 6 -1 11
2 17 5 13 3 -3 4 -12 1 -19z m98 3 c3 -5 1 -12 -4 -15 -5 -3 -11 1 -15 9 -6
16 9 21 19 6z m225 5 c0 -3 -4 -8 -10 -11 -5 -3 -10 -1 -10 4 0 6 5 11 10 11
6 0 10 -2 10 -4z m197 -21 c1 0 -8 -7 -20 -14 -19 -13 -20 -12 -10 1 10 11 10
17 0 28 -10 11 -8 11 8 0 11 -8 21 -15 22 -15z m293 10 c0 -9 -6 -12 -16 -8
-13 5 -13 7 -2 14 17 11 18 11 18 -6z m720 11 c0 -2 -7 -7 -16 -10 -8 -3 -12
-2 -9 4 6 10 25 14 25 6z m-1240 -21 c0 -2 -6 -5 -13 -8 -8 -3 -14 1 -14 8 0
7 6 11 14 8 7 -3 13 -6 13 -8z m920 5 c0 -5 -4 -10 -10 -10 -5 0 -10 5 -10 10
0 6 5 10 10 10 6 0 10 -4 10 -10z m400 0 c0 -5 -4 -10 -10 -10 -5 0 -10 5 -10
10 0 6 5 10 10 10 6 0 10 -4 10 -10z m-920 -4 c0 -2 -7 -7 -16 -10 -8 -3 -12
-2 -9 4 6 10 25 14 25 6z m-635 -24 c-3 -3 -11 0 -18 7 -9 10 -8 11 6 5 10 -3
15 -9 12 -12z m265 8 c0 -5 -4 -10 -10 -10 -5 0 -10 5 -10 10 0 6 5 10 10 10
6 0 10 -4 10 -10z m422 -5 c7 4 4 -1 -6 -9 -11 -9 -25 -16 -30 -16 -6 0 -4 5
4 10 10 6 11 10 3 10 -7 0 -13 5 -13 11 0 8 4 8 15 -1 8 -6 20 -9 27 -5z m148
-5 c-24 -15 -36 -11 -14 4 10 8 21 12 24 10 2 -3 -2 -9 -10 -14z m400 0 c-24
-15 -36 -11 -14 4 10 8 21 12 24 10 2 -3 -2 -9 -10 -14z m-158 2 c15 -6 13 -9
-8 -19 -21 -10 -24 -10 -14 2 8 10 8 14 -2 18 -7 3 -8 5 -3 6 6 0 18 -3 27 -7z
m-912 -22 c-10 -7 -11 -10 -2 -10 6 0 12 -4 12 -8 0 -5 -7 -9 -15 -9 -8 0 -12
4 -9 9 3 4 0 8 -7 8 -7 0 -4 6 7 14 10 8 21 12 24 10 2 -3 -2 -9 -10 -14z
m250 16 c0 -2 -7 -7 -16 -10 -8 -3 -12 -2 -9 4 6 10 25 14 25 6z m110 -6 c0
-5 -2 -10 -4 -10 -3 0 -8 5 -11 10 -3 6 -1 10 4 10 6 0 11 -4 11 -10z m60 6
c0 -3 -4 -8 -10 -11 -5 -3 -10 -1 -10 4 0 6 5 11 10 11 6 0 10 -2 10 -4z m340
-6 c0 -5 -2 -10 -4 -10 -3 0 -8 5 -11 10 -3 6 -1 10 4 10 6 0 11 -4 11 -10z
m60 6 c0 -3 -4 -8 -10 -11 -5 -3 -10 -1 -10 4 0 6 5 11 10 11 6 0 10 -2 10 -4z
m640 0 c0 -2 -7 -7 -16 -10 -8 -3 -12 -2 -9 4 6 10 25 14 25 6z m-1680 -16 c0
-5 -2 -10 -4 -10 -3 0 -8 5 -11 10 -3 6 -1 10 4 10 6 0 11 -4 11 -10z m105 -8
c-3 -3 -11 0 -18 7 -9 10 -8 11 6 5 10 -3 15 -9 12 -12z m1289 -6 c-10 -8 -21
-12 -24 -10 -5 6 21 24 34 24 6 0 1 -6 -10 -14z m-1226 -5 c15 13 16 12 4 -3
-10 -13 -10 -17 0 -20 7 -3 5 -7 -7 -12 -11 -4 -16 -4 -13 0 4 3 -1 14 -10 23
-10 9 -12 12 -5 7 8 -5 20 -3 31 5z m404 -8 c-9 -4 -6 -11 9 -24 12 -10 19
-19 16 -19 -3 0 -13 -3 -21 -6 -12 -5 -15 -2 -10 10 4 10 0 18 -10 22 -15 6
-15 8 1 19 10 8 20 11 23 8 3 -3 -1 -8 -8 -10z m86 -9 c1 -1 -5 -4 -16 -6 -12
-4 -18 1 -19 14 -2 17 0 18 15 7 9 -8 18 -14 20 -15z m312 6 c-10 -7 -11 -10
-2 -10 6 0 12 -5 12 -10 0 -6 -8 -5 -19 2 -18 11 -18 13 -3 24 9 7 19 10 22 8
2 -3 -2 -9 -10 -14z m72 -16 c-9 -7 -19 -10 -22 -8 -2 3 2 9 10 14 10 7 11 10
3 10 -7 0 -13 5 -13 10 0 6 8 5 19 -2 18 -11 18 -13 3 -24z m415 11 c1 0 -8
-7 -20 -14 -19 -13 -20 -12 -10 1 10 11 10 17 0 28 -10 11 -8 11 8 0 11 -8 21
-15 22 -15z m333 21 c0 -3 -4 -8 -10 -11 -5 -3 -10 -1 -10 4 0 6 5 11 10 11 6
0 10 -2 10 -4z m-435 -24 c-3 -3 -11 0 -18 7 -9 10 -8 11 6 5 10 -3 15 -9 12
-12z m-1358 -49 c-3 -10 -5 -2 -5 17 0 19 2 27 5 18 2 -10 2 -26 0 -35z m813
43 c0 -3 -4 -8 -10 -11 -5 -3 -10 -1 -10 4 0 6 5 11 10 11 6 0 10 -2 10 -4z
m400 -4 c0 -5 -7 -9 -15 -9 -8 0 -12 4 -9 9 3 4 9 8 15 8 5 0 9 -4 9 -8z m575
-2 c3 -5 1 -10 -4 -10 -6 0 -11 5 -11 10 0 6 2 10 4 10 3 0 8 -4 11 -10z
m-1685 -14 c0 -3 -4 -8 -10 -11 -5 -3 -10 -1 -10 4 0 6 5 11 10 11 6 0 10 -2
10 -4z m242 -11 c7 4 3 -2 -9 -12 -11 -10 -23 -27 -26 -38 -4 -15 -5 -13 -6 8
0 15 4 27 12 28 10 0 10 2 0 6 -7 2 -13 9 -13 15 0 6 6 6 15 -2 8 -6 20 -9 27
-5z m158 10 c0 -2 -13 -11 -30 -20 -38 -19 -40 -11 -2 9 31 17 32 18 32 11z
m526 -10 c10 -8 15 -14 9 -14 -5 0 -19 6 -29 14 -11 8 -15 15 -10 15 6 0 19
-7 30 -15z m111 -14 c-7 -2 -19 -9 -27 -15 -13 -9 -13 -9 -3 5 10 12 10 18 1
27 -9 9 -4 8 15 0 14 -7 21 -15 14 -17z m400 0 c-7 -2 -19 -9 -27 -15 -13 -9
-13 -9 -3 5 10 12 10 18 1 27 -9 9 -4 8 15 0 14 -7 21 -15 14 -17z m-907 9 c0
-5 -2 -10 -4 -10 -3 0 -8 5 -11 10 -3 6 -1 10 4 10 6 0 11 -4 11 -10z m350 0
c0 -5 -5 -10 -11 -10 -5 0 -7 5 -4 10 3 6 8 10 11 10 2 0 4 -4 4 -10z m400 0
c0 -5 -5 -10 -11 -10 -5 0 -7 5 -4 10 3 6 8 10 11 10 2 0 4 -4 4 -10z m295 -8
c-3 -3 -11 0 -18 7 -9 10 -8 11 6 5 10 -3 15 -9 12 -12z m-1572 -9 c-4 -10
-10 -10 -26 -1 -31 15 -31 15 1 14 19 -1 28 -5 25 -13z m621 3 c-10 -8 -21
-12 -24 -10 -5 6 21 24 34 24 6 0 1 -6 -10 -14z m560 8 c9 -3 16 -16 15 -28 0
-14 -2 -16 -6 -6 -3 8 -12 21 -21 28 -17 13 -13 15 12 6z m-764 -27 c0 -6 -3
-7 -7 -4 -3 4 -11 3 -17 -3 -8 -6 -12 -3 -12 9 0 12 6 17 18 13 10 -2 18 -9
18 -15z m380 13 c0 -5 -2 -10 -4 -10 -3 0 -8 5 -11 10 -3 6 -1 10 4 10 6 0 11
-4 11 -10z m-610 -10 c0 -5 -4 -10 -10 -10 -5 0 -10 5 -10 10 0 6 5 10 10 10
6 0 10 -4 10 -10z m395 -8 c-3 -3 -11 0 -18 7 -9 10 -8 11 6 5 10 -3 15 -9 12
-12z m650 8 c-3 -5 -12 -10 -18 -10 -7 0 -6 4 3 10 19 12 23 12 15 0z m-925
-10 c0 -5 -4 -10 -10 -10 -5 0 -10 5 -10 10 0 6 5 10 10 10 6 0 10 -4 10 -10z
m400 0 c0 -5 -4 -10 -10 -10 -5 0 -10 5 -10 10 0 6 5 10 10 10 6 0 10 -4 10
-10z m400 0 c0 -5 -4 -10 -10 -10 -5 0 -10 5 -10 10 0 6 5 10 10 10 6 0 10 -4
10 -10z m280 6 c0 -2 -7 -7 -16 -10 -8 -3 -12 -2 -9 4 6 10 25 14 25 6z m120
-6 c0 -5 -4 -10 -10 -10 -5 0 -10 5 -10 10 0 6 5 10 10 10 6 0 10 -4 10 -10z
m-90 -10 c0 -5 -2 -10 -4 -10 -3 0 -8 5 -11 10 -3 6 -1 10 4 10 6 0 11 -4 11
-10z m-1310 -30 c0 -5 -5 -10 -11 -10 -5 0 -7 5 -4 10 3 6 8 10 11 10 2 0 4
-4 4 -10z m220 -8 c0 -11 -3 -12 -14 -3 -11 10 -20 10 -36 1 -12 -6 -24 -9
-28 -6 -3 3 0 6 7 6 7 0 10 4 7 9 -3 5 10 8 29 8 23 -1 35 -6 35 -15z m180 8
c0 -5 -4 -10 -10 -10 -5 0 -10 5 -10 10 0 6 5 10 10 10 6 0 10 -4 10 -10z
m170 -12 c0 -6 -6 -5 -15 2 -8 7 -15 14 -15 16 0 2 7 1 15 -2 8 -4 15 -11 15
-16z m44 13 c11 -4 15 -10 10 -13 -5 -4 -18 0 -29 8 -20 15 -12 17 19 5z m186
-1 c0 -5 -5 -10 -11 -10 -5 0 -7 5 -4 10 3 6 8 10 11 10 2 0 4 -4 4 -10z m174
-12 c-3 -5 -12 -4 -20 3 -19 16 -18 18 6 12 11 -3 17 -9 14 -15z m68 -7 c11
-14 11 -14 -3 -4 -9 7 -18 11 -21 8 -3 -3 -11 1 -17 9 -10 12 -9 14 8 9 11 -3
26 -13 33 -22z m153 19 c3 -5 1 -10 -4 -10 -6 0 -11 5 -11 10 0 6 2 10 4 10 3
0 8 -4 11 -10z m-1425 -4 c0 -3 -4 -8 -10 -11 -5 -3 -10 -1 -10 4 0 6 5 11 10
11 6 0 10 -2 10 -4z m1610 0 c0 -3 -4 -8 -10 -11 -5 -3 -10 -1 -10 4 0 6 5 11
10 11 6 0 10 -2 10 -4z m54 -4 c3 -5 -1 -9 -9 -9 -8 0 -15 4 -15 9 0 4 4 8 9
8 6 0 12 -4 15 -8z m-904 -23 c-25 -17 -76 -42 -68 -34 13 14 62 44 73 44 6 0
3 -4 -5 -10z m951 -5 c2 2 9 -2 16 -9 9 -10 7 -13 -12 -11 -13 0 -21 3 -19 5
2 2 -2 11 -9 20 -10 14 -10 14 4 4 9 -7 18 -11 20 -9z m-1575 -21 c-6 -6 -36
9 -36 18 0 5 9 4 20 -3 10 -7 18 -14 16 -15z m200 12 c-11 -8 -25 -15 -30 -15
-6 1 0 7 14 15 32 19 40 18 16 0z m214 -21 c0 -2 -13 2 -30 11 -16 9 -30 18
-30 21 0 2 14 -2 30 -11 17 -9 30 -18 30 -21z m400 0 c0 -2 -9 0 -20 6 -11 6
-24 9 -29 6 -4 -3 -8 1 -8 9 0 12 5 12 29 -1 15 -8 28 -17 28 -20z m370 23 c0
-5 7 -6 16 -3 8 3 12 2 9 -4 -8 -13 -18 -13 -39 3 -16 12 -16 14 -2 14 9 0 16
-5 16 -10z m216 -2 c-11 -8 -25 -15 -30 -15 -6 1 0 7 14 15 32 19 40 18 16 0z
m-406 -5 c-8 -5 -19 -10 -25 -10 -5 0 -3 5 5 10 8 5 20 10 25 10 6 0 3 -5 -5
-10z m-1235 -10 c3 -5 1 -10 -4 -10 -6 0 -11 5 -11 10 0 6 2 10 4 10 3 0 8 -4
11 -10z m565 -14 c0 -3 -4 -8 -10 -11 -5 -3 -10 -1 -10 4 0 6 5 11 10 11 6 0
10 -2 10 -4z m740 -6 c0 -5 -2 -10 -4 -10 -3 0 -8 5 -11 10 -3 6 -1 10 4 10 6
0 11 -4 11 -10z m425 -11 c20 -12 34 -23 32 -26 -5 -4 -77 36 -77 43 0 7 9 4
45 -17z m45 17 c0 -2 -7 -7 -16 -10 -8 -3 -12 -2 -9 4 6 10 25 14 25 6z
m-1640 -23 c0 -9 -3 -13 -6 -10 -4 3 -16 2 -28 -4 -17 -8 -16 -6 4 10 30 25
30 25 30 4z m170 7 c0 -5 -4 -10 -10 -10 -5 0 -10 5 -10 10 0 6 5 10 10 10 6
0 10 -4 10 -10z m50 0 c0 -5 -4 -10 -10 -10 -5 0 -10 5 -10 10 0 6 5 10 10 10
6 0 10 -4 10 -10z m350 0 c0 -5 -4 -10 -10 -10 -5 0 -10 5 -10 10 0 6 5 10 10
10 6 0 10 -4 10 -10z m60 0 c0 -5 -4 -10 -9 -10 -5 0 -17 -3 -27 -7 -16 -6
-17 -5 -4 10 17 18 40 22 40 7z m355 -7 c18 -14 18 -15 2 -9 -10 3 -23 6 -28
6 -5 0 -9 5 -9 10 0 14 12 12 35 -7z m45 7 c0 -5 -4 -10 -9 -10 -6 0 -13 5
-16 10 -3 6 1 10 9 10 9 0 16 -4 16 -10z m370 -21 c0 -4 -11 -2 -24 4 -13 7
-22 15 -20 19 5 8 44 -13 44 -23z m30 21 c0 -5 -4 -10 -10 -10 -5 0 -10 5 -10
10 0 6 5 10 10 10 6 0 10 -4 10 -10z m350 0 c0 -5 -4 -10 -10 -10 -5 0 -10 5
-10 10 0 6 5 10 10 10 6 0 10 -4 10 -10z m-981 -3 c-2 -1 -13 -9 -24 -17 -19
-14 -19 -14 -6 3 7 9 18 17 24 17 6 0 8 -1 6 -3z m-606 -27 c3 -11 1 -23 -4
-26 -5 -3 -9 6 -9 20 0 31 6 34 13 6z m177 10 c0 -5 -5 -10 -11 -10 -5 0 -7 5
-4 10 3 6 8 10 11 10 2 0 4 -4 4 -10z m855 0 c3 -5 1 -10 -4 -10 -6 0 -11 5
-11 10 0 6 2 10 4 10 3 0 8 -4 11 -10z m-1339 -19 c19 -15 21 -20 9 -25 -8 -3
-14 -1 -12 4 1 5 -7 16 -18 24 -11 8 -16 16 -12 16 5 0 20 -9 33 -19z m206 -9
c-10 -3 -5 -10 15 -23 38 -26 19 -24 -23 2 -35 21 -45 32 -20 23 8 -3 17 0 21
6 4 6 10 8 14 4 3 -4 0 -9 -7 -12z m388 -7 c0 -2 -6 -5 -13 -8 -8 -3 -14 1
-14 8 0 7 6 11 14 8 7 -3 13 -6 13 -8z m120 11 c0 -3 -4 -8 -10 -11 -5 -3 -10
-1 -10 4 0 6 5 11 10 11 6 0 10 -2 10 -4z m405 -6 c3 -5 -3 -10 -15 -10 -12 0
-18 5 -15 10 3 6 10 10 15 10 5 0 12 -4 15 -10z m395 0 c0 -5 -4 -10 -10 -10
-5 0 -10 5 -10 10 0 6 5 10 10 10 6 0 10 -4 10 -10z m280 -5 c0 -2 -6 -5 -13
-8 -8 -3 -14 1 -14 8 0 7 6 11 14 8 7 -3 13 -6 13 -8z m-955 -5 c3 -6 -1 -7
-9 -4 -18 7 -21 14 -7 14 6 0 13 -4 16 -10z m400 0 c3 -6 -1 -7 -9 -4 -18 7
-21 14 -7 14 6 0 13 -4 16 -10z m155 6 c0 -2 -7 -7 -16 -10 -8 -3 -12 -2 -9 4
6 10 25 14 25 6z m245 -6 c3 -6 -1 -7 -9 -4 -18 7 -21 14 -7 14 6 0 13 -4 16
-10z m-1013 -36 c-9 -7 -19 -10 -22 -8 -2 3 2 9 10 14 10 7 11 10 3 10 -7 0
-13 5 -13 10 0 6 8 5 19 -2 18 -11 18 -13 3 -24z m415 11 c1 0 -8 -7 -20 -14
-20 -13 -21 -13 -8 2 9 11 10 17 2 17 -6 0 -11 5 -11 11 0 8 6 7 18 -2 9 -7
18 -14 19 -14z m155 8 c-10 -4 -10 -8 0 -21 12 -14 11 -14 -9 -2 -20 13 -20
15 -5 26 9 7 19 10 22 7 3 -3 -1 -8 -8 -10z m398 -3 c-24 -15 -36 -11 -14 4
10 8 21 12 24 10 2 -3 -2 -9 -10 -14z m-1610 -5 c0 -9 -6 -12 -16 -8 -13 5
-13 7 -2 14 17 11 18 11 18 -6z m1877 1 c0 -8 -6 -12 -15 -9 -11 5 -11 7 0 14
7 5 13 9 14 9 0 0 1 -6 1 -14z m-1777 -6 c0 -5 -2 -10 -4 -10 -3 0 -8 5 -11
10 -3 6 -1 10 4 10 6 0 11 -4 11 -10z m290 6 c0 -2 -7 -7 -16 -10 -8 -3 -12
-2 -9 4 6 10 25 14 25 6z m110 -6 c0 -5 -2 -10 -4 -10 -3 0 -8 5 -11 10 -3 6
-1 10 4 10 6 0 11 -4 11 -10z m860 6 c0 -3 -4 -8 -10 -11 -5 -3 -10 -1 -10 4
0 6 5 11 10 11 6 0 10 -2 10 -4z m400 0 c0 -3 -4 -8 -10 -11 -5 -3 -10 -1 -10
4 0 6 5 11 10 11 6 0 10 -2 10 -4z m-1630 -22 c0 -8 -5 -12 -10 -9 -6 4 -8 11
-5 16 9 14 15 11 15 -7z m360 -19 c-9 -10 -9 -15 -1 -15 6 0 11 -5 11 -10 0
-6 -8 -5 -19 2 -18 11 -18 13 -3 25 23 17 27 16 12 -2z m250 11 c0 -2 -7 -6
-15 -10 -8 -3 -15 -1 -15 4 0 6 7 10 15 10 8 0 15 -2 15 -4z m150 -11 c-9 -10
-9 -15 -1 -15 6 0 11 -5 11 -10 0 -6 -8 -5 -19 2 -18 11 -18 13 -3 25 23 17
27 16 12 -2z m235 5 c3 -5 1 -10 -4 -10 -6 0 -11 5 -11 10 0 6 2 10 4 10 3 0
8 -4 11 -10z m405 0 c0 -5 -2 -10 -4 -10 -3 0 -8 5 -11 10 -3 6 -1 10 4 10 6
0 11 -4 11 -10z m-255 -18 c-3 -3 -11 0 -18 7 -9 10 -8 11 6 5 10 -3 15 -9 12
-12z m89 -6 c-10 -8 -21 -12 -24 -10 -5 6 21 24 34 24 6 0 1 -6 -10 -14z
m-1264 -6 c0 -5 -2 -10 -4 -10 -3 0 -8 5 -11 10 -3 6 -1 10 4 10 6 0 11 -4 11
-10z m440 -10 c-10 -7 -11 -10 -2 -10 6 0 12 -5 12 -10 0 -6 -8 -5 -19 2 -18
11 -18 13 -3 24 9 7 19 10 22 8 2 -3 -2 -9 -10 -14z m1220 16 c0 -3 -4 -8 -10
-11 -5 -3 -10 -1 -10 4 0 6 5 11 10 11 6 0 10 -2 10 -4z m-1630 -22 c0 -8 -5
-12 -10 -9 -6 4 -8 11 -5 16 9 14 15 11 15 -7z m1305 6 c3 -5 2 -10 -4 -10 -5
0 -13 5 -16 10 -3 6 -2 10 4 10 5 0 13 -4 16 -10z m-1437 -30 c-2 -6 -8 -6
-18 0 -13 9 -13 11 0 20 15 10 25 0 18 -20z m1716 15 c-10 -8 -23 -14 -29 -14
-5 0 -1 6 9 14 11 8 24 15 30 15 5 0 1 -7 -10 -15z m-1619 -5 c-3 -5 -12 -10
-18 -10 -7 0 -6 4 3 10 19 12 23 12 15 0z m565 0 c0 -5 -4 -10 -10 -10 -5 0
-10 5 -10 10 0 6 5 10 10 10 6 0 10 -4 10 -10z m295 0 c3 -5 1 -10 -4 -10 -6
0 -11 5 -11 10 0 6 2 10 4 10 3 0 8 -4 11 -10z m80 -26 c-10 -20 -15 -23 -15
-11 0 16 21 49 28 42 1 -1 -4 -15 -13 -31z m320 26 c3 -5 1 -10 -4 -10 -6 0
-11 5 -11 10 0 6 2 10 4 10 3 0 8 -4 11 -10z m115 0 c0 -5 -4 -10 -10 -10 -5
0 -10 5 -10 10 0 6 5 10 10 10 6 0 10 -4 10 -10z m125 0 c3 -5 1 -10 -4 -10
-6 0 -11 5 -11 10 0 6 2 10 4 10 3 0 8 -4 11 -10z m170 -8 c-3 -3 -11 0 -18 7
-9 10 -8 11 6 5 10 -3 15 -9 12 -12z m-1538 -39 c-3 -10 -5 -4 -5 12 0 17 2
24 5 18 2 -7 2 -21 0 -30z m1213 33 c0 -3 -4 -8 -10 -11 -5 -3 -10 -1 -10 4 0
6 5 11 10 11 6 0 10 -2 10 -4z m390 -6 c-13 -9 -13 -11 0 -21 13 -9 12 -10 -3
-5 -10 3 -24 6 -30 6 -7 0 -3 7 7 15 11 8 25 15 30 15 6 0 4 -5 -4 -10z
m-1380 -7 c0 -9 -52 -35 -58 -29 -2 3 9 11 25 20 33 18 33 18 33 9z m160 -3
c0 -5 -2 -10 -4 -10 -3 0 -8 5 -11 10 -3 6 -1 10 4 10 6 0 11 -4 11 -10z m400
0 c0 -5 -5 -10 -11 -10 -5 0 -7 5 -4 10 3 6 8 10 11 10 2 0 4 -4 4 -10z m240
0 c0 -5 -4 -10 -10 -10 -5 0 -10 5 -10 10 0 6 5 10 10 10 6 0 10 -4 10 -10z
m400 0 c0 -5 -4 -10 -10 -10 -5 0 -10 5 -10 10 0 6 5 10 10 10 6 0 10 -4 10
-10z m-1320 -10 c0 -5 -4 -10 -10 -10 -5 0 -10 5 -10 10 0 6 5 10 10 10 6 0
10 -4 10 -10z m400 0 c0 -5 -4 -10 -10 -10 -5 0 -10 5 -10 10 0 6 5 10 10 10
6 0 10 -4 10 -10z m400 0 c0 -5 -4 -10 -10 -10 -5 0 -10 5 -10 10 0 6 5 10 10
10 6 0 10 -4 10 -10z m400 0 c0 -5 -4 -10 -10 -10 -5 0 -10 5 -10 10 0 6 5 10
10 10 6 0 10 -4 10 -10z m-1435 -20 c3 -6 -1 -7 -9 -4 -18 7 -21 14 -7 14 6 0
13 -4 16 -10z m865 6 c0 -3 -4 -8 -10 -11 -5 -3 -10 -1 -10 4 0 6 5 11 10 11
6 0 10 -2 10 -4z m766 -23 c-6 -6 -36 9 -36 18 0 5 9 4 20 -3 10 -7 18 -14 16
-15z m-1596 1 c0 -8 -5 -12 -10 -9 -6 4 -8 11 -5 16 9 14 15 11 15 -7z m213 3
c4 3 7 2 7 -4 0 -6 -7 -13 -15 -17 -8 -3 -14 -2 -14 2 3 19 -2 23 -16 12 -8
-6 -20 -8 -27 -4 -9 6 -5 10 12 14 14 4 30 3 36 -2 6 -4 14 -5 17 -1z m350 0
c4 3 7 2 7 -4 0 -6 -8 -14 -17 -17 -10 -4 -14 -4 -10 0 4 4 1 14 -6 23 -10 14
-10 14 4 4 9 -7 19 -10 22 -6z m50 -2 c12 0 3 -19 -11 -22 -8 -1 -11 1 -8 4 3
4 0 13 -7 21 -10 13 -9 14 3 7 8 -6 18 -10 23 -10z m-788 -5 c-3 -5 -11 -10
-16 -10 -6 0 -7 5 -4 10 3 6 11 10 16 10 6 0 7 -4 4 -10z m586 -7 c13 -17 13
-17 -6 -3 -11 8 -22 16 -24 17 -2 2 0 3 6 3 6 0 17 -8 24 -17z m577 0 c16 -16
16 -16 -1 -10 -10 4 -23 7 -28 7 -6 0 -7 5 -4 10 9 14 14 13 33 -7z m37 7 c3
-5 1 -10 -4 -10 -6 0 -11 5 -11 10 0 6 2 10 4 10 3 0 8 -4 11 -10z m355 1 c0
-5 -9 -11 -21 -14 -16 -4 -18 -3 -8 9 13 16 29 19 29 5z m54 -3 c-3 -4 -9 -8
-15 -8 -5 0 -9 4 -9 8 0 5 7 9 15 9 8 0 12 -4 9 -9z m-1464 -8 c0 -5 -5 -10
-11 -10 -5 0 -7 5 -4 10 3 6 8 10 11 10 2 0 4 -4 4 -10z m400 0 c0 -5 -5 -10
-11 -10 -5 0 -7 5 -4 10 3 6 8 10 11 10 2 0 4 -4 4 -10z m855 0 c3 -5 1 -10
-4 -10 -6 0 -11 5 -11 10 0 6 2 10 4 10 3 0 8 -4 11 -10z m400 0 c3 -5 1 -10
-4 -10 -6 0 -11 5 -11 10 0 6 2 10 4 10 3 0 8 -4 11 -10z m120 -10 c-3 -5 -12
-10 -18 -10 -7 0 -6 4 3 10 19 12 23 12 15 0z m-1635 -20 c0 -5 -4 -10 -10
-10 -5 0 -10 5 -10 10 0 6 5 10 10 10 6 0 10 -4 10 -10z m196 -17 c-6 -6 -36
9 -36 18 0 5 9 4 20 -3 10 -7 18 -14 16 -15z m204 17 c0 -5 -4 -10 -10 -10 -5
0 -10 5 -10 10 0 6 5 10 10 10 6 0 10 -4 10 -10z m196 -17 c-6 -6 -36 9 -36
18 0 5 9 4 20 -3 10 -7 18 -14 16 -15z m111 5 c-3 -8 -6 -5 -6 6 -1 11 2 17 5
13 3 -3 4 -12 1 -19z m93 12 c0 -5 -2 -10 -4 -10 -2 0 -12 -3 -22 -7 -16 -6
-17 -5 -4 10 17 19 30 22 30 7z m175 0 c3 -5 1 -10 -4 -10 -6 0 -11 5 -11 10
0 6 2 10 4 10 3 0 8 -4 11 -10z m215 -10 c-20 -13 -30 -12 -30 1 0 5 4 8 9 4
5 -3 13 0 16 6 4 5 10 8 13 4 4 -3 0 -10 -8 -15z m190 10 c0 -5 -5 -10 -11
-10 -5 0 -7 5 -4 10 3 6 8 10 11 10 2 0 4 -4 4 -10z m210 -10 c-20 -13 -30
-12 -30 1 0 5 4 8 9 4 5 -3 13 0 16 6 4 5 10 8 13 4 4 -3 0 -10 -8 -15z
m-1786 -7 c4 -11 1 -11 -14 -3 -24 13 -25 17 -5 17 8 0 16 -6 19 -14z m1661
-19 c9 3 12 0 8 -10 -7 -19 -13 -18 -43 7 -24 19 -24 20 -2 9 13 -6 30 -9 37
-6z m-982 -13 c15 -8 27 -18 27 -22 0 -5 -16 1 -35 12 -19 12 -35 23 -35 26 0
2 3 3 8 1 4 -2 19 -10 35 -17z m437 15 c0 -3 -4 -8 -10 -11 -5 -3 -10 -1 -10
4 0 6 5 11 10 11 6 0 10 -2 10 -4z m352 -9 c15 -12 15 -14 -4 -26 -11 -7 -22
-10 -25 -7 -3 3 2 8 11 12 15 6 15 7 -1 20 -10 7 -13 13 -8 13 6 0 18 -5 27
-12z m393 3 c3 -5 1 -10 -4 -10 -6 0 -11 5 -11 10 0 6 2 10 4 10 3 0 8 -4 11
-10z m-1777 -12 c11 3 12 0 3 -16 -6 -10 -7 -23 -3 -27 4 -5 -1 -5 -11 -2 -10
4 -22 7 -25 7 -4 0 0 5 8 10 13 8 12 11 -5 25 -20 16 -20 16 0 7 11 -5 26 -7
33 -4z m389 -3 c0 -6 -8 -11 -17 -11 -9 0 -17 6 -17 12 0 7 8 12 17 11 9 0 17
-6 17 -12z m33 -1 c0 -8 -5 -12 -10 -9 -6 4 -8 11 -5 16 9 14 15 11 15 -7z
m350 6 c0 -5 -4 -10 -10 -10 -5 0 -10 5 -10 10 0 6 5 10 10 10 6 0 10 -4 10
-10z m60 0 c0 -5 -4 -10 -10 -10 -5 0 -10 5 -10 10 0 6 5 10 10 10 6 0 10 -4
10 -10z m345 0 c3 -5 2 -10 -4 -10 -5 0 -13 5 -16 10 -3 6 -2 10 4 10 5 0 13
-4 16 -10z m55 1 c0 -5 -9 -11 -21 -14 -16 -4 -18 -3 -8 9 13 16 29 19 29 5z
m400 -1 c0 -5 -4 -10 -10 -10 -5 0 -10 5 -10 10 0 6 5 10 10 10 6 0 10 -4 10
-10z m-1420 -10 c8 -5 12 -11 10 -14 -3 -2 -14 2 -24 10 -22 15 -10 19 14 4z
m-390 -10 c0 -5 -2 -10 -4 -10 -3 0 -8 5 -11 10 -3 6 -1 10 4 10 6 0 11 -4 11
-10z m1205 0 c3 -5 1 -10 -4 -10 -6 0 -11 5 -11 10 0 6 2 10 4 10 3 0 8 -4 11
-10z m755 6 c0 -3 -4 -8 -10 -11 -5 -3 -10 -1 -10 4 0 6 5 11 10 11 6 0 10 -2
10 -4z m-670 -20 c0 -3 -4 -8 -10 -11 -5 -3 -10 -1 -10 4 0 6 5 11 10 11 6 0
10 -2 10 -4z m100 -1 c0 -2 -10 -10 -22 -16 -21 -11 -22 -11 -9 4 13 16 31 23
31 12z m80 -5 c0 -5 -2 -10 -4 -10 -3 0 -8 5 -11 10 -3 6 -1 10 4 10 6 0 11
-4 11 -10z m310 -9 c0 -4 -6 -8 -13 -8 -8 0 -14 6 -14 13 0 7 6 10 14 7 7 -3
13 -8 13 -12z m-1274 -27 c8 3 12 2 9 -4 -9 -15 -19 -12 -44 9 -15 13 -18 20
-9 23 7 3 16 -4 21 -15 4 -12 13 -17 23 -13z m171 28 c9 -5 6 -12 -10 -21 -20
-13 -21 -13 -9 1 10 13 10 17 0 21 -7 3 -8 6 -3 6 6 0 15 -3 22 -7z m-592 -31
c-2 -5 -14 -11 -26 -14 -21 -6 -21 -5 -3 12 18 18 40 18 29 2z m185 9 c0 -5
-4 -10 -9 -10 -5 0 -18 -3 -28 -6 -16 -6 -16 -5 2 9 23 19 35 21 35 7z m642
-5 c7 4 2 -2 -12 -13 -14 -12 -27 -18 -30 -15 -3 3 1 8 8 10 10 4 10 8 0 21
-12 15 -11 16 4 4 9 -8 23 -11 30 -7z m418 -20 c0 -3 -7 -2 -15 1 -8 4 -22 1
-30 -6 -9 -7 -18 -10 -22 -7 -3 4 2 9 11 13 13 5 14 10 5 20 -8 10 -3 10 20
-2 17 -9 31 -17 31 -19z m374 20 c11 -8 15 -15 10 -15 -6 0 -19 7 -30 15 -10
8 -14 14 -9 14 6 0 19 -6 29 -14z m163 -22 c-3 -10 -5 -4 -5 12 0 17 2 24 5
18 2 -7 2 -21 0 -30z m-832 17 c3 -5 1 -10 -4 -10 -6 0 -11 5 -11 10 0 6 2 10
4 10 3 0 8 -4 11 -10z m435 -22 c0 -5 -11 -1 -25 8 -14 9 -25 18 -25 20 0 2
11 -2 25 -8 14 -6 25 -15 25 -20z m-990 2 c0 -5 -5 -10 -11 -10 -5 0 -7 5 -4
10 3 6 8 10 11 10 2 0 4 -4 4 -10z m190 0 c0 -5 -2 -10 -4 -10 -3 0 -8 5 -11
10 -3 6 -1 10 4 10 6 0 11 -4 11 -10z m110 3 c0 -1 -9 -7 -20 -13 -15 -8 -20
-8 -20 3 0 7 9 13 20 13 11 0 20 -1 20 -3z m290 -3 c0 -5 -2 -10 -4 -10 -3 0
-8 5 -11 10 -3 6 -1 10 4 10 6 0 11 -4 11 -10z m110 0 c0 -5 -2 -10 -4 -10 -3
0 -8 5 -11 10 -3 6 -1 10 4 10 6 0 11 -4 11 -10z m400 0 c0 -5 -2 -10 -4 -10
-3 0 -8 5 -11 10 -3 6 -1 10 4 10 6 0 11 -4 11 -10z m-1400 -14 c0 -3 -4 -8
-10 -11 -5 -3 -10 -1 -10 4 0 6 5 11 10 11 6 0 10 -2 10 -4z m170 -6 c0 -5 -6
-10 -12 -11 -10 0 -10 -2 0 -6 6 -2 12 -9 12 -15 0 -6 -6 -6 -15 2 -8 6 -20 8
-27 4 -7 -4 -4 2 7 14 22 23 35 27 35 12z m1030 0 c0 -5 -2 -10 -4 -10 -3 0
-8 5 -11 10 -3 6 -1 10 4 10 6 0 11 -4 11 -10z m400 -10 c0 -11 -4 -20 -8 -20
-4 0 -8 9 -8 20 0 11 4 20 8 20 4 0 8 -9 8 -20z m-968 -9 c-5 -3 -12 -15 -15
-26 -3 -12 -5 -7 -4 11 1 23 5 30 15 27 8 -4 10 -8 4 -12z m318 9 c0 -5 -4
-10 -10 -10 -5 0 -10 5 -10 10 0 6 5 10 10 10 6 0 10 -4 10 -10z m400 6 c0 -3
-4 -8 -10 -11 -5 -3 -10 -1 -10 4 0 6 5 11 10 11 6 0 10 -2 10 -4z m89 -17
c-22 -13 -31 -11 -17 5 7 8 17 12 22 9 4 -3 2 -9 -5 -14z m-1219 -5 c0 -8 -5
-12 -10 -9 -6 4 -8 11 -5 16 9 14 15 11 15 -7z m747 -6 c-3 -8 -6 -5 -6 6 -1
11 2 17 5 13 3 -3 4 -12 1 -19z m-477 -8 c0 -5 -5 -10 -11 -10 -5 0 -7 5 -4
10 3 6 8 10 11 10 2 0 4 -4 4 -10z m110 0 c0 -5 -4 -10 -10 -10 -5 0 -10 5
-10 10 0 6 5 10 10 10 6 0 10 -4 10 -10z m286 -5 c-11 -8 -24 -15 -30 -15 -5
0 -1 7 10 15 10 8 24 14 29 14 6 0 1 -6 -9 -14z m242 -11 c2 -1 -7 -8 -20 -15
-21 -11 -22 -11 -9 4 9 11 10 17 2 17 -6 0 -11 5 -11 11 0 8 6 7 18 -2 9 -7
19 -14 20 -15z m158 11 c-11 -8 -24 -15 -30 -15 -5 0 -1 7 10 15 10 8 24 14
29 14 6 0 1 -6 -9 -14z m114 5 c0 -5 -4 -10 -10 -10 -5 0 -10 5 -10 10 0 6 5
10 10 10 6 0 10 -4 10 -10z m286 -5 c-11 -8 -24 -15 -30 -15 -5 0 -1 7 10 15
10 8 24 14 29 14 6 0 1 -6 -9 -14z m-958 -21 c1 -1 -5 -4 -16 -6 -12 -4 -18 1
-19 14 -2 17 0 18 15 7 9 -8 18 -14 20 -15z m812 6 c0 -5 -2 -10 -4 -10 -3 0
-8 5 -11 10 -3 6 -1 10 4 10 6 0 11 -4 11 -10z m-30 -10 c0 -5 -5 -10 -11 -10
-5 0 -7 5 -4 10 3 6 8 10 11 10 2 0 4 -4 4 -10z m-1685 -10 c3 -5 2 -10 -4
-10 -5 0 -13 5 -16 10 -3 6 -2 10 4 10 5 0 13 -4 16 -10z m475 -9 c0 -15 -5
-18 -22 -13 -19 5 -20 7 -5 10 9 2 17 8 17 13 0 5 2 9 5 9 3 0 5 -9 5 -19z
m208 -7 c1 -1 -5 -4 -15 -6 -13 -4 -19 0 -19 13 0 14 3 16 16 6 8 -6 16 -12
18 -13z m296 1 c-4 -8 -12 -15 -20 -15 -20 0 -17 18 4 23 9 3 18 5 19 6 1 0 0
-6 -3 -14z m100 0 c-10 -8 -23 -14 -29 -14 -5 0 -1 6 9 14 11 8 24 15 30 15 5
0 1 -7 -10 -15z m192 0 c10 -8 15 -14 9 -14 -5 0 -19 6 -29 14 -11 8 -15 15
-10 15 6 0 19 -7 30 -15z m104 -7 c0 -6 -6 -5 -15 2 -8 7 -15 14 -15 16 0 2 7
1 15 -2 8 -4 15 -11 15 -16z m103 4 c-10 -10 -20 -14 -22 -9 -2 5 3 13 10 18
24 15 30 10 12 -9z m297 1 c0 -9 -3 -13 -7 -10 -3 4 -13 1 -22 -5 -10 -8 -9
-4 3 10 23 26 26 27 26 5z m-1704 -8 c-11 -8 -24 -15 -30 -15 -5 0 -1 7 10 15
10 8 24 14 29 14 6 0 1 -6 -9 -14z m194 5 c0 -5 -4 -10 -10 -10 -5 0 -10 5
-10 10 0 6 5 10 10 10 6 0 10 -4 10 -10z m620 -5 c11 -13 10 -14 -4 -9 -9 3
-16 10 -16 15 0 13 6 11 20 -6z m795 5 c3 -5 1 -10 -4 -10 -6 0 -11 5 -11 10
0 6 2 10 4 10 3 0 8 -4 11 -10z m-1135 -22 c0 -5 4 -7 9 -3 6 3 32 -8 59 -25
27 -16 54 -30 61 -30 6 0 11 -4 11 -8 0 -5 18 -17 40 -27 22 -10 40 -25 41
-34 0 -9 1 -63 0 -120 0 -94 2 -104 20 -108 10 -3 19 -9 19 -14 0 -13 -28 -11
-32 1 -2 6 -21 2 -46 -10 -38 -19 -42 -23 -30 -38 11 -15 11 -16 -3 -4 -14 11
-25 8 -70 -17 -54 -30 -54 -30 -55 -80 0 -28 -4 -54 -7 -58 -4 -3 -7 19 -7 51
0 41 -3 55 -12 50 -6 -4 -8 -3 -5 3 3 5 -33 32 -81 60 -75 44 -88 49 -94 35
-5 -14 -7 -12 -7 6 -1 12 -5 22 -11 22 -5 0 -7 -7 -4 -15 4 -8 1 -15 -5 -15
-6 0 -11 5 -11 11 0 5 -6 7 -12 3 -7 -4 2 7 20 25 35 33 53 42 31 15 -10 -13
-10 -17 2 -25 8 -5 22 -7 32 -5 9 2 15 0 12 -4 -9 -14 114 -83 136 -77 15 4
19 2 15 -9 -8 -20 4 -17 46 11 20 14 39 25 42 25 3 0 28 14 56 31 l50 31 0
112 0 113 -52 28 c-29 15 -64 36 -78 45 -33 23 -75 36 -66 21 5 -7 1 -9 -9 -5
-8 4 -27 -2 -43 -12 -15 -10 -40 -25 -57 -34 -16 -9 -42 -24 -57 -34 -17 -11
-28 -14 -28 -7 0 6 8 15 18 19 32 13 137 76 144 86 4 6 2 16 -4 23 -8 10 -7
12 6 7 9 -3 16 -10 16 -16z m250 2 c0 -5 -5 -10 -11 -10 -5 0 -7 5 -4 10 3 6
8 10 11 10 2 0 4 -4 4 -10z m350 0 c0 -5 -2 -10 -4 -10 -3 0 -8 5 -11 10 -3 6
-1 10 4 10 6 0 11 -4 11 -10z m60 6 c0 -3 -4 -8 -10 -11 -5 -3 -10 -1 -10 4 0
6 5 11 10 11 6 0 10 -2 10 -4z m352 -9 c15 -12 15 -14 -4 -26 -11 -7 -22 -10
-25 -7 -3 3 2 8 11 12 15 6 15 7 -1 20 -10 7 -13 13 -8 13 6 0 18 -5 27 -12z
m48 9 c0 -3 -4 -8 -10 -11 -5 -3 -10 -1 -10 4 0 6 5 11 10 11 6 0 10 -2 10 -4z
m-1525 -16 c3 -5 1 -10 -4 -10 -6 0 -11 5 -11 10 0 6 2 10 4 10 3 0 8 -4 11
-10z m84 3 c-3 -20 3 -23 24 -12 20 11 21 11 8 -4 -15 -18 -56 -23 -66 -8 -3
6 3 14 12 20 22 13 23 13 22 4z m578 -25 c-3 -7 -5 -2 -5 12 0 14 2 19 5 13 2
-7 2 -19 0 -25z m257 13 l29 -19 -27 1 c-14 1 -26 7 -26 14 0 6 -6 14 -12 16
-7 3 -8 6 -3 6 6 1 23 -8 39 -18z m410 -7 c4 -11 2 -12 -14 -4 -27 14 -34 29
-11 23 11 -3 22 -11 25 -19z m-464 6 c0 -5 -4 -10 -10 -10 -5 0 -10 5 -10 10
0 6 5 10 10 10 6 0 10 -4 10 -10z m405 0 c-3 -5 -11 -10 -16 -10 -6 0 -7 5 -4
10 3 6 11 10 16 10 6 0 7 -4 4 -10z m405 0 c0 -5 -4 -10 -9 -10 -6 0 -13 5
-16 10 -3 6 1 10 9 10 9 0 16 -4 16 -10z m50 0 c0 -5 -4 -10 -10 -10 -5 0 -10
5 -10 10 0 6 5 10 10 10 6 0 10 -4 10 -10z m-1691 -14 c9 -11 9 -16 -1 -22 -7
-4 -10 -4 -6 1 4 4 3 14 -3 22 -6 7 -9 13 -6 13 2 0 10 -6 16 -14z m236 4 c3
-5 2 -10 -4 -10 -5 0 -13 5 -16 10 -3 6 -2 10 4 10 5 0 13 -4 16 -10z m795 0
c0 -5 -5 -10 -11 -10 -5 0 -7 5 -4 10 3 6 8 10 11 10 2 0 4 -4 4 -10z m55 0
c3 -5 1 -10 -4 -10 -6 0 -11 5 -11 10 0 6 2 10 4 10 3 0 8 -4 11 -10z m400 0
c3 -5 1 -10 -4 -10 -6 0 -11 5 -11 10 0 6 2 10 4 10 3 0 8 -4 11 -10z m355 6
c0 -3 -4 -8 -10 -11 -5 -3 -10 -1 -10 4 0 6 5 11 10 11 6 0 10 -2 10 -4z
m-1865 -35 c3 -6 -3 -9 -14 -8 -11 0 -17 5 -15 9 7 11 22 10 29 -1z m162 -4
c0 -8 -6 -14 -14 -14 -17 0 -17 14 0 20 6 3 12 6 13 6 0 1 1 -5 1 -12z m623 3
c-40 -27 -50 -31 -44 -15 3 8 10 13 14 10 5 -3 11 -1 15 5 3 5 12 10 18 10 7
0 6 -4 -3 -10z m194 4 c9 -3 16 -11 16 -16 0 -7 -5 -6 -13 1 -8 6 -17 8 -20 4
-4 -3 -7 -1 -7 5 0 14 2 14 24 6z m400 0 c9 -3 16 -11 16 -16 0 -7 -5 -6 -13
1 -8 6 -17 8 -20 4 -4 -3 -7 -1 -7 5 0 14 2 14 24 6z m412 -9 c10 -8 15 -14 9
-14 -5 0 -19 6 -29 14 -11 8 -15 15 -10 15 6 0 19 -7 30 -15z m-1595 -8 c-6
-8 -7 -18 -3 -22 4 -5 1 -5 -6 -1 -10 6 -10 11 -1 22 6 8 14 14 16 14 3 0 0
-6 -6 -13z m979 9 c0 -3 -4 -8 -10 -11 -5 -3 -10 -1 -10 4 0 6 5 11 10 11 6 0
10 -2 10 -4z m400 -6 c0 -5 -4 -10 -10 -10 -5 0 -10 5 -10 10 0 6 5 10 10 10
6 0 10 -4 10 -10z m-1092 -44 c-1 -2 -14 -8 -28 -15 -20 -9 -21 -9 -9 1 15 10
15 13 -5 30 -21 19 -21 19 12 3 19 -9 32 -18 30 -19z m-400 -2 c1 -1 -5 -4
-16 -6 -12 -4 -18 1 -19 14 -2 17 0 18 15 7 9 -8 18 -14 20 -15z m177 -11 c0
-10 6 -17 13 -15 6 1 12 -2 12 -8 0 -5 -2 -10 -4 -10 -2 0 -12 -3 -20 -6 -12
-4 -15 -2 -11 9 4 8 0 21 -7 28 -21 23 -22 42 -1 30 10 -5 18 -18 18 -28z
m453 19 c-8 -10 -14 -10 -27 0 -9 7 -17 13 -19 14 -1 1 11 1 27 0 22 -1 27 -4
19 -14z m175 6 c10 8 13 6 13 -9 0 -10 -1 -19 -3 -19 -12 0 -53 25 -53 33 0 5
7 4 15 -3 11 -9 19 -9 28 -2z m167 -11 c0 -6 -3 -7 -7 -4 -3 4 -13 1 -22 -6
-14 -10 -14 -10 -4 4 7 9 10 19 6 23 -4 4 0 4 10 0 9 -3 17 -11 17 -17z m60 8
c-7 -9 -15 -13 -19 -10 -3 3 1 10 9 15 21 14 24 12 10 -5z m368 11 c-2 -1 -10
-7 -19 -14 -13 -10 -19 -10 -27 0 -8 10 -3 13 19 14 16 1 28 1 27 0z m232 0
c0 -3 -4 -8 -10 -11 -5 -3 -10 -1 -10 4 0 6 5 11 10 11 6 0 10 -2 10 -4z
m-200 -10 c0 -3 -4 -8 -10 -11 -5 -3 -10 -1 -10 4 0 6 5 11 10 11 6 0 10 -2
10 -4z m-1320 -36 c0 -5 -5 -10 -11 -10 -5 0 -7 5 -4 10 3 6 8 10 11 10 2 0 4
-4 4 -10z m410 6 c0 -2 -7 -7 -16 -10 -8 -3 -12 -2 -9 4 6 10 25 14 25 6z
m165 -6 c3 -5 1 -10 -4 -10 -6 0 -11 5 -11 10 0 6 2 10 4 10 3 0 8 -4 11 -10z
m802 -12 c-3 -8 -6 -5 -6 6 -1 11 2 17 5 13 3 -3 4 -12 1 -19z m213 2 c-24
-15 -36 -11 -14 4 10 8 21 12 24 10 2 -3 -2 -9 -10 -14z m-700 0 c0 -5 -4 -10
-10 -10 -5 0 -10 5 -10 10 0 6 5 10 10 10 6 0 10 -4 10 -10z m400 0 c0 -5 -4
-10 -10 -10 -5 0 -10 5 -10 10 0 6 5 10 10 10 6 0 10 -4 10 -10z m-680 -10 c0
-5 -2 -10 -4 -10 -3 0 -8 5 -11 10 -3 6 -1 10 4 10 6 0 11 -4 11 -10z m160 0
c0 -5 -4 -10 -10 -10 -5 0 -10 5 -10 10 0 6 5 10 10 10 6 0 10 -4 10 -10z
m240 6 c0 -3 -4 -8 -10 -11 -5 -3 -10 -1 -10 4 0 6 5 11 10 11 6 0 10 -2 10
-4z m400 0 c0 -3 -4 -8 -10 -11 -5 -3 -10 -1 -10 4 0 6 5 11 10 11 6 0 10 -2
10 -4z m-1624 -15 c-6 -9 -46 -22 -46 -15 0 3 10 9 23 14 29 11 29 11 23 1z
m1409 -1 c3 -5 1 -10 -4 -10 -6 0 -11 5 -11 10 0 6 2 10 4 10 3 0 8 -4 11 -10z
m-1191 -6 c21 -8 20 -21 -2 -26 -12 -4 -18 1 -18 13 0 22 -1 21 20 13z m566
-13 c0 -14 -5 -18 -20 -14 -11 3 -17 9 -14 14 3 5 10 7 15 4 5 -4 9 -1 9 4 0
6 2 11 5 11 3 0 5 -9 5 -19z m-410 -1 c0 -5 -7 -10 -15 -10 -8 0 -15 5 -15 10
0 6 7 10 15 10 8 0 15 -4 15 -10z m269 -4 c10 -12 8 -13 -8 -9 -12 3 -21 9
-21 14 0 14 16 11 29 -5z m281 -1 c-6 -8 -9 -19 -5 -25 4 -7 -1 -6 -14 2 l-21
13 23 12 c29 16 32 16 17 -2z m95 -5 c-10 -11 -21 -18 -23 -15 -3 3 3 12 14
20 27 20 30 18 9 -5z m155 16 c0 -3 -4 -8 -10 -11 -5 -3 -10 -1 -10 4 0 6 5
11 10 11 6 0 10 -2 10 -4z m270 -6 c0 -5 -4 -10 -10 -10 -5 0 -10 5 -10 10 0
6 5 10 10 10 6 0 10 -4 10 -10z m125 0 c3 -5 1 -10 -4 -10 -6 0 -11 5 -11 10
0 6 2 10 4 10 3 0 8 -4 11 -10z m-1080 -27 c-11 -7 -23 -13 -28 -13 -5 0 -3
-7 4 -17 13 -15 12 -15 -8 -3 -21 14 -21 14 -2 28 11 7 17 17 14 22 -3 4 5 6
16 3 21 -6 21 -7 4 -20z m-440 6 c4 -6 13 -8 19 -6 7 3 13 -1 13 -8 0 -7 -6
-11 -14 -8 -7 3 -13 0 -13 -6 0 -6 -5 -11 -11 -11 -6 0 -9 6 -6 14 3 7 0 19
-6 25 -8 8 -8 11 0 11 7 0 15 -5 18 -11z m1360 1 c-3 -5 -11 -10 -16 -10 -6 0
-7 5 -4 10 3 6 11 10 16 10 6 0 7 -4 4 -10z m311 -5 c10 -8 15 -14 9 -14 -5 0
-19 6 -29 14 -11 8 -15 15 -10 15 6 0 19 -7 30 -15z m94 11 c0 -2 -7 -7 -16
-10 -8 -3 -12 -2 -9 4 6 10 25 14 25 6z m-1520 -16 c13 -8 13 -10 -2 -10 -9 0
-20 5 -23 10 -8 13 5 13 25 0z m1056 -17 c-6 -6 -36 9 -36 18 0 5 9 4 20 -3
10 -7 18 -14 16 -15z m419 7 c-3 -5 -12 -10 -18 -10 -7 0 -6 4 3 10 19 12 23
12 15 0z m-905 -10 c8 -5 12 -11 10 -14 -3 -2 -14 2 -24 10 -22 15 -10 19 14
4z m95 0 c3 -6 -1 -7 -9 -4 -18 7 -21 14 -7 14 6 0 13 -4 16 -10z m-825 -4 c0
-2 -15 -13 -34 -24 -33 -19 -35 -19 -33 -2 0 10 7 16 13 13 7 -3 21 0 31 6 20
12 23 13 23 7z m975 -6 c3 -5 -1 -10 -10 -10 -9 0 -13 5 -10 10 3 6 8 10 10
10 2 0 7 -4 10 -10z m395 0 c0 -5 -5 -10 -11 -10 -5 0 -7 5 -4 10 3 6 8 10 11
10 2 0 4 -4 4 -10z m196 -17 c-6 -6 -36 9 -36 18 0 5 9 4 20 -3 10 -7 18 -14
16 -15z m-1411 7 c-27 -12 -43 -12 -25 0 8 5 22 9 30 9 10 0 8 -3 -5 -9z m631
-9 c0 -15 -3 -17 -18 -8 -13 8 -14 13 -5 19 18 12 23 10 23 -11z m-432 -6
c-10 -8 -23 -14 -29 -14 -5 0 -1 6 9 14 11 8 24 15 30 15 5 0 1 -7 -10 -15z
m528 -21 c-9 -7 -19 -10 -22 -8 -2 3 2 9 10 14 10 7 11 10 3 10 -7 0 -13 5
-13 10 0 6 8 5 19 -2 18 -11 18 -13 3 -24z m170 24 c-9 -9 -9 -15 1 -26 10
-13 9 -14 -10 -2 -20 13 -20 15 -5 27 21 16 30 17 14 1z m398 -8 c-10 -7 -11
-10 -2 -10 6 0 12 -5 12 -10 0 -6 -8 -5 -19 2 -18 11 -18 13 -3 24 9 7 19 10
22 8 2 -3 -2 -9 -10 -14z m-1214 -18 c-4 -3 -14 2 -24 12 -16 18 -16 18 6 6
13 -6 21 -14 18 -18z m959 18 c3 -5 1 -10 -4 -10 -6 0 -11 5 -11 10 0 6 2 10
4 10 3 0 8 -4 11 -10z m120 0 c-3 -5 -12 -10 -18 -10 -7 0 -6 4 3 10 19 12 23
12 15 0z m222 -12 c-3 -8 -6 -5 -6 6 -1 11 2 17 5 13 3 -3 4 -12 1 -19z m63 7
c11 -13 10 -14 -4 -9 -9 3 -16 10 -16 15 0 13 6 11 20 -6z m-1770 -2 c0 -1 -9
-7 -20 -13 -15 -8 -20 -8 -20 3 0 7 9 13 20 13 11 0 20 -1 20 -3z m90 -3 c0
-5 -5 -10 -11 -10 -5 0 -7 5 -4 10 3 6 8 10 11 10 2 0 4 -4 4 -10z m164 -16
c3 -8 0 -11 -9 -8 -7 3 -24 0 -37 -7 -23 -12 -23 -12 -3 8 23 23 42 25 49 7z
m211 -4 c-3 -5 -12 -10 -18 -10 -7 0 -6 4 3 10 19 12 23 12 15 0z m150 -8 c-3
-3 -11 0 -18 7 -9 10 -8 11 6 5 10 -3 15 -9 12 -12z m252 4 c0 -8 -6 -12 -15
-9 -11 5 -11 7 0 14 7 5 13 9 14 9 0 0 1 -6 1 -14z m153 -1 c0 -2 -6 -5 -13
-8 -8 -3 -14 1 -14 8 0 7 6 11 14 8 7 -3 13 -6 13 -8z m245 5 c-3 -5 -12 -10
-18 -10 -7 0 -6 4 3 10 19 12 23 12 15 0z m155 -5 c0 -2 -6 -5 -13 -8 -8 -3
-14 1 -14 8 0 7 6 11 14 8 7 -3 13 -6 13 -8z m-280 -5 c0 -5 -4 -10 -10 -10
-5 0 -10 5 -10 10 0 6 5 10 10 10 6 0 10 -4 10 -10z m400 0 c0 -5 -4 -10 -10
-10 -5 0 -10 5 -10 10 0 6 5 10 10 10 6 0 10 -4 10 -10z m125 0 c3 -6 -1 -7
-9 -4 -18 7 -21 14 -7 14 6 0 13 -4 16 -10z m155 6 c0 -2 -7 -7 -16 -10 -8 -3
-12 -2 -9 4 6 10 25 14 25 6z m-1775 -16 c3 -6 -1 -7 -9 -4 -18 7 -21 14 -7
14 6 0 13 -4 16 -10z m600 0 c3 -5 1 -10 -4 -10 -6 0 -11 5 -11 10 0 6 2 10 4
10 3 0 8 -4 11 -10z m985 0 c0 -5 -5 -10 -11 -10 -5 0 -7 5 -4 10 3 6 8 10 11
10 2 0 4 -4 4 -10z m-323 -22 c-3 -8 -6 -5 -6 6 -1 11 2 17 5 13 3 -3 4 -12 1
-19z m-1327 -9 c0 -14 -16 -11 -29 5 -10 12 -8 13 8 9 12 -3 21 -9 21 -14z
m976 1 c0 -13 -5 -19 -14 -15 -7 3 -16 5 -20 5 -3 0 3 7 14 15 10 8 19 15 19
15 1 0 1 -9 1 -20z m754 -5 c0 -14 -4 -25 -9 -25 -4 0 -6 11 -3 25 2 14 6 25
8 25 2 0 4 -11 4 -25z m46 10 c-11 -8 -24 -15 -30 -15 -5 0 -1 7 10 15 10 8
24 14 29 14 6 0 1 -6 -9 -14z m-1226 -5 c8 -5 11 -10 5 -10 -5 0 -17 5 -25 10
-8 5 -10 10 -5 10 6 0 17 -5 25 -10z m596 -5 c-16 -17 -36 -20 -36 -6 0 8 17
16 43 20 5 0 2 -6 -7 -14z m412 11 c-2 -1 -10 -7 -19 -14 -13 -10 -19 -10 -27
0 -8 10 -3 13 19 14 16 1 28 1 27 0z m-1408 -11 c0 -2 -7 -8 -15 -15 -12 -10
-15 -10 -15 2 0 8 7 15 15 15 8 0 15 -1 15 -2z m1040 -5 c0 -5 -4 -10 -10 -10
-5 0 -10 5 -10 10 0 6 5 10 10 10 6 0 10 -4 10 -10z m400 0 c0 -5 -4 -10 -10
-10 -5 0 -10 5 -10 10 0 6 5 10 10 10 6 0 10 -4 10 -10z m350 0 c0 -5 -4 -10
-10 -10 -5 0 -10 5 -10 10 0 6 5 10 10 10 6 0 10 -4 10 -10z m-452 -24 c-10
-7 -16 -15 -13 -17 2 -3 -6 -5 -20 -4 -13 0 -27 4 -32 9 -4 5 -3 6 4 2 7 -4
25 0 40 8 35 19 44 20 21 2z m-218 -28 c0 -5 -11 -1 -25 8 -14 9 -25 18 -25
20 0 2 11 -2 25 -8 14 -6 25 -15 25 -20z m400 0 c0 -5 -11 -1 -25 8 -14 9 -25
18 -25 20 0 2 11 -2 25 -8 14 -6 25 -15 25 -20z m-597 15 c3 -5 -6 -9 -20 -10
-19 -1 -22 1 -12 8 17 11 26 11 32 2z m777 -15 c0 -6 -6 -5 -15 2 -8 7 -15 14
-15 16 0 2 7 1 15 -2 8 -4 15 -11 15 -16z m-1631 3 c7 -5 9 -11 5 -14 -5 -3
-15 1 -22 9 -14 16 -5 18 17 5z m656 -1 c3 -6 -1 -7 -9 -4 -18 7 -21 14 -7 14
6 0 13 -4 16 -10z m-717 -22 c40 -11 42 -20 2 -11 -34 6 -41 -11 -12 -34 9 -8
-2 -4 -25 9 -24 13 -43 27 -43 32 0 5 7 3 15 -4 9 -7 19 -10 23 -6 4 4 -2 15
-13 23 -20 16 -20 16 0 8 11 -4 35 -11 53 -17z m192 -3 c0 -6 -8 -11 -18 -11
-10 0 -19 6 -19 12 0 7 9 12 19 11 10 -1 18 -6 18 -12z m430 5 c0 -5 -5 -10
-11 -10 -5 0 -7 5 -4 10 3 6 8 10 11 10 2 0 4 -4 4 -10z m150 -10 c0 -4 -8
-11 -17 -14 -10 -4 -14 -4 -10 0 4 4 2 13 -4 20 -8 9 -5 11 10 7 12 -3 21 -9
21 -13z m470 5 c-14 -17 -30 -20 -30 -4 0 5 4 8 9 4 5 -3 12 -1 16 5 3 5 9 10
12 10 3 0 0 -7 -7 -15z m-665 -21 c-19 -19 -24 -18 -18 5 3 12 11 17 19 14 11
-4 11 -7 -1 -19z m265 3 c0 -2 -9 -3 -20 -3 -11 0 -20 6 -20 13 0 11 5 11 20
3 11 -6 20 -12 20 -13z m358 -3 c1 -1 -11 -1 -27 0 -22 1 -27 4 -19 14 8 10
14 10 27 0 9 -7 17 -13 19 -14z m399 -1 c-7 -6 -46 10 -41 18 3 5 14 3 24 -3
11 -7 18 -13 17 -15z m31 10 c-13 -16 -15 -16 -21 1 -4 10 0 14 13 13 14 -1
16 -4 8 -14z m-628 -3 c0 -5 -2 -10 -4 -10 -3 0 -8 5 -11 10 -3 6 -1 10 4 10
6 0 11 -4 11 -10z m400 0 c0 -5 -2 -10 -4 -10 -3 0 -8 5 -11 10 -3 6 -1 10 4
10 6 0 11 -4 11 -10z m-1495 -29 c3 -19 2 -20 -18 -10 -29 15 -37 24 -14 16
12 -4 17 -1 17 10 0 22 10 11 15 -16z m187 4 c7 4 2 -2 -11 -13 -13 -10 -21
-24 -17 -31 5 -7 1 -9 -8 -5 -20 8 -20 23 -1 30 13 5 13 9 3 23 -12 14 -11 14
4 3 9 -8 23 -11 30 -7z m1195 -7 c-3 -8 -6 -5 -6 6 -1 11 2 17 5 13 3 -3 4
-12 1 -19z m-977 8 c0 -3 -4 -8 -10 -11 -5 -3 -10 -1 -10 4 0 6 5 11 10 11 6
0 10 -2 10 -4z m182 -32 c-9 -7 -19 -10 -22 -7 -3 3 1 8 8 10 10 4 10 8 0 21
-12 14 -11 14 9 2 20 -13 20 -15 5 -26z m305 23 c0 -7 -9 -13 -19 -13 -18 0
-18 1 -2 13 10 7 18 13 19 13 1 0 2 -6 2 -13z m-499 -22 c2 -1 -5 -6 -15 -9
-9 -4 -14 -4 -10 0 4 4 -1 13 -11 21 -15 12 -14 13 8 2 14 -6 26 -13 28 -14z
m629 10 c0 -8 -4 -12 -8 -9 -5 2 -17 -1 -28 -8 -16 -10 -18 -15 -8 -27 10 -12
9 -12 -10 0 -23 14 -23 14 15 36 20 13 37 23 38 23 0 0 1 -7 1 -15z m273 5 c0
-5 -4 -10 -10 -10 -5 0 -10 5 -10 10 0 6 5 10 10 10 6 0 10 -4 10 -10z m400 0
c0 -5 -4 -10 -10 -10 -5 0 -10 5 -10 10 0 6 5 10 10 10 6 0 10 -4 10 -10z
m-275 -10 c3 -6 -1 -7 -9 -4 -18 7 -21 14 -7 14 6 0 13 -4 16 -10z m-605 -22
c11 -3 9 -6 -6 -10 -15 -4 -20 0 -22 16 0 11 2 16 6 10 4 -6 14 -13 22 -16z
m407 -7 c-7 -2 -19 -9 -27 -15 -13 -10 -13 -9 -1 7 9 11 10 17 2 17 -6 0 -11
4 -11 9 0 5 11 4 25 -2 13 -7 19 -14 12 -16z m153 9 c-24 -15 -36 -11 -14 4
10 8 21 12 24 10 2 -3 -2 -9 -10 -14z m265 0 c-3 -5 -12 -10 -18 -10 -7 0 -6
4 3 10 19 12 23 12 15 0z m-1555 -10 c13 -8 13 -10 -2 -10 -9 0 -20 5 -23 10
-8 13 5 13 25 0z m180 0 c0 -5 -2 -10 -4 -10 -3 0 -8 5 -11 10 -3 6 -1 10 4
10 6 0 11 -4 11 -10z m435 0 c10 9 15 9 15 1 0 -6 -5 -11 -12 -11 -6 0 -1 -8
11 -19 18 -16 19 -20 5 -25 -22 -9 -24 -8 -18 9 4 9 -3 19 -20 26 -14 7 -26
17 -26 22 0 5 7 4 15 -3 12 -10 18 -10 30 0z m373 -2 c8 -8 15 -8 27 2 8 7 18
10 21 7 3 -3 -4 -10 -15 -17 -19 -10 -61 0 -61 15 0 9 16 5 28 -7z m404 -24
c-9 -7 -19 -10 -22 -7 -3 3 1 8 8 10 10 4 10 8 0 21 -12 14 -11 14 9 2 20 -13
20 -15 5 -26z m48 32 c0 -3 -4 -8 -10 -11 -5 -3 -10 -1 -10 4 0 6 5 11 10 11
6 0 10 -2 10 -4z m345 -6 c3 -5 1 -10 -4 -10 -6 0 -11 5 -11 10 0 6 2 10 4 10
3 0 8 -4 11 -10z m-1557 -16 c5 3 9 -1 9 -9 0 -10 -5 -11 -18 -4 -15 8 -18 4
-22 -28 -3 -34 -4 -33 -5 11 -2 41 0 47 13 36 8 -6 18 -9 23 -6z m267 6 c3 -5
1 -10 -4 -10 -6 0 -11 5 -11 10 0 6 2 10 4 10 3 0 8 -4 11 -10z m-318 -30 c2
-20 -8 -26 -20 -13 -4 3 -2 12 4 20 15 17 14 17 16 -7z m793 0 c-10 -7 -11
-10 -2 -10 6 0 12 -5 12 -10 0 -6 -8 -5 -19 2 -18 11 -18 13 -3 24 9 7 19 10
22 8 2 -3 -2 -9 -10 -14z m72 -16 c-9 -7 -19 -10 -22 -8 -2 3 2 9 10 14 10 7
11 10 3 10 -7 0 -13 5 -13 10 0 6 8 5 19 -2 18 -11 18 -13 3 -24z m168 26 c0
-5 -5 -10 -11 -10 -5 0 -7 5 -4 10 3 6 8 10 11 10 2 0 4 -4 4 -10z m232 -26
c-9 -7 -19 -10 -22 -7 -3 3 1 8 8 10 10 4 10 8 0 21 -12 14 -11 14 9 2 20 -13
20 -15 5 -26z m168 24 c0 -4 -4 -8 -9 -8 -6 0 -12 4 -15 8 -3 5 1 9 9 9 8 0
15 -4 15 -9z m180 8 c0 -3 -4 -8 -10 -11 -5 -3 -10 -1 -10 4 0 6 5 11 10 11 6
0 10 -2 10 -4z m-1210 -36 c13 -11 20 -20 17 -20 -3 0 -13 -3 -23 -7 -13 -5
-15 -3 -9 7 5 8 1 18 -10 27 -11 7 -14 13 -8 13 5 0 20 -9 33 -20z m802 2 c27
-18 27 -18 7 -31 -12 -7 -23 -10 -26 -7 -3 3 2 8 11 12 15 6 13 9 -11 25 -15
11 -23 19 -18 19 6 0 22 -8 37 -18z m-1387 -2 c-3 -5 -11 -10 -16 -10 -6 0 -7
5 -4 10 3 6 11 10 16 10 6 0 7 -4 4 -10z m407 -15 c-2 -14 -6 -25 -8 -25 -2 0
-4 11 -4 25 0 14 4 25 9 25 4 0 6 -11 3 -25z m1383 15 c3 -5 1 -10 -4 -10 -6
0 -11 5 -11 10 0 6 2 10 4 10 3 0 8 -4 11 -10z m-1857 -29 c7 -4 4 -11 -8 -19
-17 -10 -19 -8 -18 19 1 17 4 25 8 18 4 -6 12 -14 18 -18z m572 15 c0 -3 -4
-8 -10 -11 -5 -3 -10 -1 -10 4 0 6 5 11 10 11 6 0 10 -2 10 -4z m242 -11 c7 4
2 -2 -12 -13 -14 -12 -27 -18 -30 -15 -3 3 1 8 8 10 10 4 10 8 0 21 -12 15
-11 16 4 4 9 -8 23 -11 30 -7z m380 -21 c-9 -7 -19 -10 -22 -7 -3 3 1 8 8 10
10 4 10 8 0 21 -12 14 -11 14 9 2 20 -13 20 -15 5 -26z m575 -1 c-3 -10 -5 -4
-5 12 0 17 2 24 5 18 2 -7 2 -21 0 -30z m-1621 18 c-4 -5 -1 -11 6 -13 7 -3 5
-7 -6 -11 -10 -4 -15 -3 -11 3 3 6 1 10 -5 10 -6 0 -8 5 -5 10 3 6 11 10 16
10 6 0 8 -4 5 -9z m559 -1 c3 -5 2 -10 -4 -10 -5 0 -13 5 -16 10 -3 6 -2 10 4
10 5 0 13 -4 16 -10z m400 0 c3 -5 1 -10 -4 -10 -6 0 -11 5 -11 10 0 6 2 10 4
10 3 0 8 -4 11 -10z m518 -4 c4 -10 1 -13 -8 -9 -8 3 -12 9 -9 14 7 12 11 11
17 -5z m237 10 c0 -3 -4 -8 -10 -11 -5 -3 -10 -1 -10 4 0 6 5 11 10 11 6 0 10
-2 10 -4z m-885 -26 c38 -25 30 -25 -20 0 -22 11 -33 20 -25 20 8 0 29 -9 45
-20z m385 10 c8 -5 12 -11 10 -14 -3 -2 -14 2 -24 10 -22 15 -10 19 14 4z
m-976 -39 c-2 -2 -11 2 -19 9 -13 11 -13 15 -3 21 8 5 15 2 19 -9 4 -9 5 -19
3 -21z m204 25 c-2 -1 -10 -7 -18 -13 -13 -10 -16 -8 -16 6 0 13 6 17 19 13
10 -2 16 -5 15 -6z m-514 -12 c20 -20 20 -28 0 -20 -11 4 -18 -1 -21 -14 -3
-11 -10 -20 -15 -20 -6 0 -7 8 -3 18 5 9 8 25 9 35 0 21 10 22 30 1z m406 -5
c0 -5 -4 -9 -10 -9 -5 0 -10 7 -10 16 0 8 5 12 10 9 6 -3 10 -10 10 -16z m400
1 c0 -5 -4 -10 -10 -10 -5 0 -10 5 -10 10 0 6 5 10 10 10 6 0 10 -4 10 -10z
m400 0 c0 -5 -4 -10 -10 -10 -5 0 -10 5 -10 10 0 6 5 10 10 10 6 0 10 -4 10
-10z m400 0 c0 -5 -4 -10 -10 -10 -5 0 -10 5 -10 10 0 6 5 10 10 10 6 0 10 -4
10 -10z m-160 -14 c0 -2 -7 -7 -16 -10 -8 -3 -12 -2 -9 4 6 10 25 14 25 6z
m-1357 -66 c31 -17 57 -34 57 -37 0 -8 -125 61 -145 81 -20 20 -20 20 5 4 14
-8 51 -30 83 -48z m303 42 c-3 -5 -16 -12 -28 -15 l-23 -6 24 20 c23 19 39 20
27 1z m581 -14 c-3 -7 -5 -2 -5 12 0 14 2 19 5 13 2 -7 2 -19 0 -25z m633 24
c0 -4 -9 -13 -20 -20 -17 -10 -20 -10 -20 4 0 8 4 13 9 9 5 -3 12 -1 16 5 7
12 15 13 15 2z m-1400 -12 c0 -5 -4 -10 -10 -10 -5 0 -10 5 -10 10 0 6 5 10
10 10 6 0 10 -4 10 -10z m220 -6 c0 -8 -5 -12 -10 -9 -6 4 -8 11 -5 16 9 14
15 11 15 -7z m189 2 c10 -12 8 -13 -8 -9 -12 3 -21 9 -21 14 0 14 16 11 29 -5z
m221 -2 c7 -7 2 -10 -14 -10 -14 0 -23 3 -20 7 2 4 -2 10 -8 13 -7 2 -3 4 10
2 12 -1 27 -7 32 -12z m362 9 c-6 -3 -10 -8 -7 -13 3 -5 -3 -7 -12 -5 -10 1
-25 -3 -33 -9 -13 -9 -13 -9 -3 5 7 9 11 18 9 20 -2 2 10 4 27 5 18 1 26 -1
19 -3z m38 -8 c-7 -9 -15 -13 -19 -10 -3 3 1 10 9 15 21 14 24 12 10 -5z m170
11 c0 -3 -4 -8 -10 -11 -5 -3 -10 -1 -10 4 0 6 5 11 10 11 6 0 10 -2 10 -4z
m-630 -18 c0 -6 -3 -8 -7 -5 -3 4 -13 1 -22 -6 -14 -11 -14 -10 -2 6 15 20 31
22 31 5z m864 4 c3 -5 -1 -9 -9 -9 -8 0 -15 4 -15 9 0 4 4 8 9 8 6 0 12 -4 15
-8z m-1724 -32 c9 -16 8 -18 -5 -14 -8 4 -15 12 -15 20 0 20 7 17 20 -6z m410
5 c-14 -17 -30 -20 -30 -6 0 5 8 12 18 14 9 3 19 5 21 6 2 0 -2 -6 -9 -14z
m180 -15 c8 -5 10 -10 4 -10 -7 0 -22 9 -35 21 -19 16 -20 18 -4 10 11 -6 27
-15 35 -21z m-620 -2 c0 -5 -9 -4 -20 2 -11 6 -20 12 -20 14 0 2 9 2 20 -1 11
-3 20 -9 20 -15z m826 7 c-24 -18 -33 -19 -42 -3 -4 7 -3 8 4 4 7 -4 20 -2 29
3 26 15 31 13 9 -4z m612 6 c16 12 16 12 1 -4 -16 -18 -49 -14 -49 5 0 6 6 5
15 -2 12 -10 18 -10 33 1z m177 -1 c9 7 15 8 15 2 0 -19 -33 -23 -49 -5 -15
16 -15 16 2 4 14 -11 20 -11 32 -1z m-589 -16 c18 -14 18 -14 -6 -3 -31 14
-36 19 -24 19 6 0 19 -7 30 -16z m194 6 c-8 -5 -19 -10 -25 -10 -5 0 -3 5 5
10 8 5 20 10 25 10 6 0 3 -5 -5 -10z m-840 -15 c0 -2 -10 -9 -22 -15 -22 -11
-22 -10 -4 4 21 17 26 19 26 11z m-270 -12 c0 -1 -8 -7 -18 -12 -14 -7 -19 -6
-19 4 0 7 9 13 19 12 10 -1 18 -2 18 -4z m1194 -8 c11 -8 15 -15 10 -15 -6 0
-19 7 -30 15 -10 8 -14 14 -9 14 6 0 19 -6 29 -14z m443 -32 c-6 -5 -67 30
-67 39 0 4 16 -2 35 -14 20 -11 34 -22 32 -25z m-1049 25 c8 -8 15 -8 27 2 8
7 18 10 21 7 3 -3 -4 -10 -15 -17 -19 -10 -61 0 -61 15 0 9 16 5 28 -7z m405
0 c4 -10 7 -10 18 0 15 14 29 16 29 3 0 -5 -9 -11 -20 -14 -24 -6 -60 2 -60
14 0 14 28 11 33 -3z m403 -3 c20 -19 4 -20 -22 0 -12 9 -14 14 -6 15 7 0 20
-7 28 -15z m44 5 c0 -5 -4 -10 -10 -10 -5 0 -10 5 -10 10 0 6 5 10 10 10 6 0
10 -4 10 -10z m350 0 c0 -5 -4 -10 -9 -10 -6 0 -13 5 -16 10 -3 6 1 10 9 10 9
0 16 -4 16 -10z m-1364 -15 c10 -8 15 -14 9 -14 -5 0 -19 6 -29 14 -11 8 -15
15 -10 15 6 0 19 -7 30 -15z m-396 -5 c0 -5 -2 -10 -4 -10 -3 0 -8 5 -11 10
-3 6 -1 10 4 10 6 0 11 -4 11 -10z m805 0 c3 -5 1 -10 -4 -10 -6 0 -11 5 -11
10 0 6 2 10 4 10 3 0 8 -4 11 -10z m400 0 c3 -5 1 -10 -4 -10 -6 0 -11 5 -11
10 0 6 2 10 4 10 3 0 8 -4 11 -10z m-1335 -25 c-7 -9 -15 -13 -19 -10 -3 3 1
10 9 15 21 14 24 12 10 -5z m817 -10 c1 0 -8 -7 -20 -14 -19 -13 -20 -12 -10
1 10 11 10 17 0 28 -10 11 -8 11 8 0 11 -8 21 -15 22 -15z m203 21 c0 -3 -4
-8 -10 -11 -5 -3 -10 -1 -10 4 0 6 5 11 10 11 6 0 10 -2 10 -4z m580 -6 c0 -5
-2 -10 -4 -10 -3 0 -8 5 -11 10 -3 6 -1 10 4 10 6 0 11 -4 11 -10z m212 -2
c-8 -8 -8 -15 -1 -24 8 -9 1 -9 -20 2 -35 18 -40 24 -12 17 10 -3 22 0 25 6 4
6 10 11 14 11 3 0 1 -5 -6 -12z m-1198 -21 c2 -9 0 -17 -5 -17 -5 0 -9 5 -9
10 0 6 -6 10 -14 10 -8 0 -17 3 -19 8 -3 4 5 7 18 7 14 0 26 -7 29 -18z m371
5 c-3 -3 -11 0 -18 7 -9 10 -8 11 6 5 10 -3 15 -9 12 -12z m130 9 c3 -6 -3 -9
-14 -8 -11 0 -17 5 -15 9 7 11 22 10 29 -1z m395 -1 c0 -5 -4 -10 -10 -10 -5
0 -10 5 -10 10 0 6 5 10 10 10 6 0 10 -4 10 -10z m104 -15 c-10 -8 -23 -14
-29 -14 -5 0 -1 6 9 14 11 8 24 15 30 15 5 0 1 -7 -10 -15z m-1214 -5 c0 -5
-7 -10 -16 -10 -8 0 -12 5 -9 10 3 6 10 10 16 10 5 0 9 -4 9 -10z"/>
</g>
</svg>
