<?xml version="1.0" standalone="no"?>
<!DOCTYPE svg PUBLIC "-//W3C//DTD SVG 20010904//EN"
 "http://www.w3.org/TR/2001/REC-SVG-20010904/DTD/svg10.dtd">
<svg version="1.0" xmlns="http://www.w3.org/2000/svg"
 width="200.000000pt" height="200.000000pt" viewBox="0 0 200.000000 200.000000"
 preserveAspectRatio="xMidYMid meet">
<metadata>
Created by potrace 1.16, written by Peter Selinger 2001-2019
</metadata>
<g transform="translate(0.000000,200.000000) scale(0.100000,-0.100000)"
fill="#000000" stroke="none">
<path d="M0 1883 l0 -118 30 -17 c25 -14 30 -24 30 -53 0 -29 -5 -39 -30 -53
l-30 -17 0 -267 0 -267 40 -22 c38 -21 40 -25 40 -69 0 -44 -2 -48 -40 -69
l-40 -22 0 -273 0 -273 25 -13 c35 -19 35 -71 0 -90 -25 -13 -25 -15 -25 -137
l0 -123 40 0 c25 0 40 5 40 13 0 6 26 27 58 45 l57 34 54 -29 c29 -15 56 -36
58 -45 4 -15 17 -18 69 -18 61 0 63 1 66 27 2 21 18 35 76 70 41 24 76 43 79
43 4 0 42 -21 85 -46 63 -37 78 -51 78 -70 0 -17 6 -24 19 -24 22 0 32 20 24
48 -4 16 12 30 91 76 52 31 99 56 105 56 5 0 47 -22 93 -49 l83 -49 50 27 c28
15 56 26 64 23 8 -3 11 0 7 6 -4 6 7 18 24 27 16 8 30 12 30 8 0 -4 7 2 15 13
8 10 15 15 15 11 0 -5 7 -2 15 7 11 11 15 39 15 113 l0 98 88 50 c48 27 96 49
107 49 12 -1 40 -13 63 -28 23 -14 44 -26 48 -26 3 0 19 -9 36 -21 16 -12 32
-18 36 -15 7 8 -37 50 -56 54 -7 1 -37 16 -67 33 l-54 30 -3 105 c-3 98 -1
107 20 132 13 15 20 21 17 14 -6 -11 -3 -12 14 -3 11 7 21 16 21 21 0 6 3 9 8
9 18 -3 35 2 29 8 -4 3 9 16 30 27 l36 21 2 102 c3 114 -6 141 -50 162 -17 8
-32 18 -33 23 -2 4 -8 6 -13 2 -5 -3 -9 0 -9 5 0 6 -7 11 -15 11 -8 0 -15 5
-15 11 0 5 -4 7 -10 4 -5 -3 -10 -1 -10 5 0 6 -4 8 -10 5 -5 -3 -10 -1 -10 4
0 6 -5 11 -10 11 -15 0 -173 -91 -182 -104 -4 -6 -8 -59 -8 -118 0 -110 4
-122 48 -147 9 -5 14 -13 10 -17 -4 -4 -15 -1 -24 7 -24 20 -75 18 -96 -3 -10
-10 -24 -15 -34 -11 -11 4 -15 2 -11 -4 4 -6 0 -13 -8 -17 -28 -10 -15 15 16
32 68 37 68 37 70 159 3 116 -3 136 -42 148 -11 4 -16 11 -13 17 4 7 2 8 -5 4
-12 -8 -78 28 -97 52 -9 13 -15 12 -39 -4 -28 -18 -29 -18 -22 -1 4 10 7 21 7
23 0 2 7 4 15 4 16 0 19 27 17 147 -2 73 0 76 102 132 41 22 78 45 81 51 11
18 33 11 121 -40 48 -27 88 -50 89 -50 3 0 178 101 184 107 3 2 5 51 5 109 1
100 0 106 -24 127 -14 13 -40 29 -57 36 -18 7 -45 25 -59 40 -15 14 -24 19
-19 11 6 -12 5 -13 -5 -3 -8 8 -13 29 -12 53 2 34 0 40 -18 40 -15 0 -20 -6
-20 -28 0 -25 -10 -34 -85 -76 l-85 -48 -85 49 c-74 42 -85 51 -85 76 0 25 -3
27 -45 27 -38 0 -45 -3 -45 -20 0 -13 -21 -32 -70 -61 l-69 -41 -68 39 c-47
27 -69 46 -71 61 -3 20 -9 22 -75 22 -58 0 -74 -3 -83 -17 -7 -10 -33 -29 -58
-43 l-47 -25 -54 30 c-30 16 -55 35 -55 42 0 10 -26 13 -104 13 -92 0 -109 -3
-147 -25 l-44 -24 -42 24 c-31 19 -56 25 -97 25 l-56 0 0 -117z m1594 38 c8
-12 -102 -74 -115 -65 -6 3 3 15 21 26 18 10 34 17 37 14 3 -2 13 4 24 15 22
22 26 23 33 10z m-311 -59 c88 -52 122 -67 112 -52 -6 9 44 40 66 40 9 0 9 -4
-1 -14 -6 -8 -17 -13 -24 -10 -19 7 -26 -28 -26 -136 l0 -95 -106 -57 -105
-56 -57 32 c-31 18 -73 43 -93 54 l-35 22 0 106 1 106 90 53 c50 29 91 54 93
54 2 1 40 -21 85 -47z m-335 -170 l-3 -86 -73 -42 -74 -42 -74 42 -74 41 2 90
3 90 73 42 74 41 74 -45 75 -45 -3 -86z m-490 94 l52 -29 0 -61 0 -61 -55 -33
-55 -33 -55 31 -55 31 0 64 0 63 53 31 c28 17 54 30 57 28 3 -1 29 -15 58 -31z
m628 -293 l84 -47 0 -97 0 -97 -86 -50 -85 -50 -82 47 -82 47 -3 101 -3 101
83 46 c46 25 84 45 86 46 2 0 41 -21 88 -47z m-420 -29 l64 -36 0 -81 0 -82
-68 -36 -67 -37 -68 41 -68 41 3 75 3 76 60 37 c33 20 64 37 68 37 5 1 38 -15
73 -35z m-378 -118 l-3 -61 -46 -24 -46 -25 -47 28 -46 27 0 57 0 57 47 27 48
27 48 -27 48 -26 -3 -60z m862 -139 c0 -11 -61 -51 -74 -48 -3 0 -15 -8 -26
-19 -11 -11 -27 -20 -36 -20 -9 0 -12 -5 -8 -12 4 -7 3 -8 -4 -4 -7 4 -12 3
-12 -3 0 -5 5 -13 10 -16 6 -3 10 -14 10 -23 0 -15 -2 -15 -10 -2 -7 11 -10 5
-10 -23 0 -23 4 -36 10 -32 6 3 10 -4 10 -17 0 -18 -2 -20 -10 -8 -6 9 -10 10
-10 3 0 -6 5 -15 10 -18 6 -3 10 -16 9 -28 -1 -20 -2 -20 -9 3 -7 22 -8 21 -9
-12 -1 -21 -4 -38 -9 -38 -4 0 -45 -22 -92 -50 -47 -27 -87 -50 -90 -50 -3 0
-46 24 -94 53 l-88 52 -2 107 c-1 106 -1 107 26 120 14 7 56 30 92 51 l66 39
90 -53 91 -52 20 22 c11 12 24 19 28 16 5 -2 16 4 26 15 10 11 24 20 32 20 7
0 22 9 33 20 23 23 30 25 30 7z m-618 -162 c3 -68 -2 -120 -15 -131 -7 -6 -37
-25 -67 -42 l-55 -30 -67 40 -68 40 0 78 0 78 68 40 67 39 67 -36 c65 -35 68
-37 70 -76z m474 -150 c-3 -9 0 -15 9 -15 8 0 15 -7 15 -15 0 -13 -4 -14 -20
-5 -11 6 -20 12 -20 15 0 9 13 35 17 35 3 0 3 -7 -1 -15z m103 -65 c7 0 14 -7
17 -15 4 -8 10 -12 15 -9 5 3 11 -1 14 -8 7 -17 53 -17 83 0 13 8 26 11 30 8
3 -3 0 -6 -7 -6 -7 0 -10 -4 -7 -8 3 -5 -9 -17 -26 -27 -19 -11 -28 -13 -23
-5 6 10 4 12 -8 7 -10 -4 -17 -1 -17 5 0 6 -3 9 -6 5 -11 -10 -65 23 -58 35 4
6 3 8 -4 5 -14 -9 -43 3 -36 15 3 5 -2 8 -12 6 -11 -2 -20 4 -22 16 -4 18 -2
17 26 -3 17 -11 35 -21 41 -21z m345 -15 c49 -27 72 -33 42 -10 -27 20 -16 39
12 19 18 -12 20 -19 12 -29 -9 -10 -7 -16 9 -24 26 -15 31 -14 31 5 0 8 -4 12
-10 9 -5 -3 -10 -1 -10 4 0 16 11 13 43 -8 28 -18 24 -37 -5 -26 -10 4 -12
-15 -10 -97 l2 -103 -85 -48 -85 -47 -73 41 c-39 22 -76 45 -82 50 -5 5 -10
52 -12 103 l-3 94 78 46 c42 25 82 45 89 46 7 0 32 -11 57 -25z m-379 -43 l60
-37 3 -82 3 -81 -71 -41 c-65 -37 -73 -39 -93 -27 -12 8 -42 25 -67 39 l-45
25 -3 83 -2 84 62 37 c35 20 70 37 78 37 8 0 42 -17 75 -37z m-417 -26 l52
-29 0 -63 0 -62 -50 -31 c-28 -17 -55 -31 -60 -31 -6 0 -32 12 -60 28 l-50 27
0 67 0 66 53 31 c28 17 54 30 57 28 3 -1 29 -15 58 -31z m-418 -28 c28 -19 34
-30 36 -65 2 -40 0 -44 -38 -67 l-41 -25 -39 22 c-35 21 -38 25 -38 69 0 41 3
48 33 67 40 26 47 26 87 -1z m1040 -271 l75 -43 0 -99 0 -100 -78 -43 -78 -44
-77 44 -77 45 -3 96 -3 96 78 46 c43 25 80 45 83 45 3 0 39 -19 80 -43z m-411
-33 l61 -36 0 -73 0 -73 -61 -36 c-33 -20 -64 -36 -69 -36 -5 0 -36 16 -70 36
l-61 37 3 75 3 76 55 32 c30 18 60 33 67 34 6 0 39 -16 72 -36z m-422 -29 c42
-25 43 -27 43 -79 0 -53 -1 -54 -45 -80 l-45 -27 -38 20 c-57 29 -62 40 -54
123 2 16 65 66 86 67 5 1 29 -10 53 -24z"/>
<path d="M1108 1834 l-78 -46 0 -93 0 -94 40 -24 c22 -13 37 -27 33 -32 -5 -4
-2 -5 5 -1 7 4 27 -2 46 -13 18 -12 39 -21 46 -21 7 0 49 21 92 46 l78 46 0
93 0 93 -78 46 c-43 25 -85 46 -93 46 -8 -1 -49 -21 -91 -46z"/>
<path d="M733 1812 l-63 -37 0 -81 0 -80 65 -36 65 -37 65 37 65 37 0 80 0 80
-63 35 c-34 19 -64 36 -67 37 -3 0 -33 -15 -67 -35z"/>
<path d="M342 1772 c-42 -27 -43 -27 -40 -80 3 -52 4 -54 50 -79 l47 -26 45
27 c46 27 46 27 46 80 0 53 -1 54 -44 80 -25 14 -48 26 -53 25 -4 0 -27 -13
-51 -27z"/>
<path d="M923 1478 l-73 -42 0 -88 0 -87 69 -41 c38 -22 75 -40 81 -40 6 0 43
18 81 40 l69 41 0 87 0 87 -75 43 c-41 23 -76 42 -77 42 -2 0 -36 -19 -75 -42z"/>
<path d="M532 1447 l-53 -32 3 -69 3 -70 57 -33 57 -33 61 36 61 37 -3 65 -3
66 -55 33 c-30 18 -59 33 -65 33 -5 -1 -34 -15 -63 -33z"/>
<path d="M147 1414 c-36 -23 -38 -28 -35 -70 3 -40 7 -47 43 -68 l40 -24 43
25 c40 24 42 27 42 72 0 43 -3 47 -40 69 -47 27 -46 27 -93 -4z"/>
<path d="M714 1142 l-81 -47 1 -94 1 -94 64 -38 c34 -22 67 -39 71 -39 4 0 13
-7 20 -15 10 -13 14 -13 27 0 7 8 43 31 79 51 53 29 64 40 65 62 1 15 2 59 3
97 l1 70 -83 48 c-45 26 -83 47 -85 46 -1 0 -38 -21 -83 -47z"/>
<path d="M340 1106 l-55 -32 0 -74 0 -74 55 -32 55 -33 60 34 60 33 3 70 3 71
-61 35 c-34 20 -62 36 -63 36 -1 -1 -27 -16 -57 -34z"/>
<path d="M1322 779 l-73 -40 3 -87 3 -86 73 -43 73 -43 74 43 74 42 1 87 0 87
-69 41 c-38 22 -73 40 -78 40 -4 0 -41 -18 -81 -41z"/>
<path d="M932 757 l-53 -32 3 -74 3 -75 57 -33 57 -33 60 36 61 36 0 72 0 71
-56 33 c-31 17 -61 32 -67 32 -7 -1 -36 -15 -65 -33z"/>
<path d="M547 733 l-48 -27 3 -54 c3 -54 4 -55 50 -81 l47 -26 45 25 46 25 0
57 c0 57 0 57 -43 83 -24 14 -46 25 -48 25 -2 0 -26 -12 -52 -27z"/>
<path d="M163 708 c-28 -17 -33 -26 -33 -57 0 -31 5 -39 34 -55 33 -18 35 -18
66 0 27 17 31 23 28 57 -2 30 -9 42 -33 56 -29 18 -31 18 -62 -1z"/>
<path d="M1128 429 l-68 -40 0 -84 0 -84 70 -41 70 -41 65 36 c36 20 68 42 72
48 4 7 8 46 9 88 l1 77 -74 41 c-40 23 -74 41 -76 41 -1 0 -32 -18 -69 -41z"/>
<path d="M738 400 l-48 -30 0 -68 0 -67 50 -27 c28 -16 55 -28 62 -28 6 0 33
14 60 31 l49 32 -3 65 -3 66 -45 27 c-25 15 -52 28 -60 28 -8 0 -36 -13 -62
-29z"/>
<path d="M353 369 c-29 -18 -33 -26 -33 -64 0 -39 4 -46 36 -66 l36 -22 44 21
c42 21 44 24 44 66 0 40 -3 46 -36 65 -43 26 -51 26 -91 0z"/>
<path d="M164 1985 c24 -18 34 -18 66 0 24 14 23 14 -30 14 -51 0 -53 -1 -36
-14z"/>
<path d="M504 1991 c3 -5 26 -21 50 -35 l45 -26 45 27 c25 15 46 31 46 35 0 5
-43 8 -96 8 -54 0 -93 -4 -90 -9z"/>
<path d="M870 1986 c0 -8 29 -31 65 -51 l65 -36 60 33 c37 21 60 39 60 51 0
15 -13 17 -125 17 -101 0 -125 -3 -125 -14z"/>
<path d="M1250 1978 c0 -18 17 -33 75 -66 l75 -44 75 43 c59 34 75 48 75 66 0
23 0 23 -150 23 -149 0 -150 0 -150 -22z"/>
<path d="M1630 1971 c0 -27 8 -35 81 -75 45 -25 86 -46 92 -46 7 0 149 77 174
94 1 0 -1 13 -4 29 l-5 27 -169 0 -169 0 0 -29z"/>
<path d="M1992 1980 c0 -14 2 -19 5 -12 2 6 2 18 0 25 -3 6 -5 1 -5 -13z"/>
<path d="M1935 1888 c-27 -17 -68 -43 -90 -57 l-39 -26 3 -100 c1 -55 8 -106
14 -113 6 -7 31 -25 56 -40 25 -14 48 -29 51 -32 5 -6 58 -30 65 -30 3 0 5 97
5 215 0 118 -3 215 -7 214 -5 0 -30 -15 -58 -31z"/>
<path d="M0 1695 c0 -57 0 -57 22 -42 15 9 23 25 23 42 0 17 -8 33 -22 43 -23
14 -23 14 -23 -43z"/>
<path d="M1375 1538 c-10 -10 -26 -16 -34 -13 -9 3 -12 3 -8 -1 10 -10 -52
-46 -65 -38 -7 4 -8 2 -4 -4 4 -7 -3 -14 -19 -18 -25 -6 -25 -7 -25 -113 l1
-106 83 -47 c46 -27 88 -48 94 -48 6 0 48 22 94 48 l83 48 3 101 3 100 -93 55
c-91 53 -94 53 -113 36z"/>
<path d="M1703 1508 c-48 -28 -89 -52 -91 -53 -6 -5 -3 -192 3 -208 4 -8 24
-22 45 -31 21 -8 41 -20 45 -26 3 -6 11 -8 16 -5 5 4 9 1 9 -4 0 -6 6 -11 14
-11 8 0 16 -5 18 -11 5 -15 57 -19 71 -5 7 6 19 12 27 14 8 2 19 10 23 18 5 8
12 12 18 9 5 -4 9 -1 9 5 0 6 5 8 10 5 6 -3 10 -1 10 5 0 6 11 15 25 20 14 5
26 15 26 22 6 66 2 190 -6 200 -13 16 -38 32 -95 61 -25 12 -48 26 -52 31 -14
20 -39 12 -125 -36z"/>
<path d="M1970 1197 c-14 -6 -27 -14 -30 -17 -3 -3 -18 -12 -35 -20 -34 -17
-48 -27 -75 -54 -19 -19 -28 -42 -12 -32 9 5 8 -41 -1 -51 -12 -11 -8 -45 4
-37 8 4 8 0 0 -15 -7 -11 -9 -21 -5 -21 3 0 1 -7 -6 -15 -10 -12 -9 -15 4 -15
13 0 16 -5 11 -19 -3 -12 0 -25 10 -33 9 -7 22 -19 30 -25 7 -7 21 -13 29 -13
9 0 16 -5 16 -12 0 -6 3 -8 6 -5 4 3 18 -3 32 -13 51 -41 52 -38 52 195 0 118
-1 215 -2 214 -2 0 -14 -6 -28 -12z"/>
<path d="M0 1000 c0 -38 3 -70 8 -70 4 0 18 7 30 16 16 11 22 25 22 54 0 29
-6 43 -22 54 -12 9 -26 16 -30 16 -5 0 -8 -31 -8 -70z"/>
<path d="M1713 799 l-83 -50 0 -97 0 -97 81 -48 c85 -49 107 -55 127 -35 7 7
12 9 12 5 0 -3 12 5 26 18 15 14 32 25 38 25 6 0 22 9 35 19 23 17 24 25 23
100 -1 53 2 80 8 76 6 -4 6 2 0 17 -9 18 -145 106 -178 115 -4 1 -44 -21 -89
-48z"/>
<path d="M1965 504 c-11 -8 -25 -12 -32 -10 -7 3 -12 2 -12 -2 3 -19 -2 -25
-11 -12 -8 12 -10 12 -10 -5 0 -14 -3 -16 -9 -7 -6 10 -11 9 -22 -4 -12 -15
-12 -17 0 -9 10 6 12 4 7 -4 -4 -7 -13 -10 -19 -8 -7 2 -20 -7 -30 -20 -16
-20 -18 -38 -15 -130 2 -83 6 -107 16 -105 24 5 113 -50 107 -66 -5 -13 -3
-13 12 -1 14 12 16 12 8 0 -6 -11 -4 -13 8 -8 10 3 17 2 17 -3 0 -6 5 -10 10
-10 6 0 10 77 10 210 0 116 -3 210 -7 210 -5 0 -17 -7 -28 -16z"/>
<path d="M1513 452 l-82 -47 0 -100 0 -100 85 -48 c47 -27 90 -46 97 -43 11 6
99 57 141 82 16 10 19 25 19 106 1 73 -2 98 -14 109 -14 13 -152 89 -160 89
-2 0 -41 -22 -86 -48z"/>
<path d="M0 305 c0 -43 1 -45 20 -35 26 14 26 56 0 70 -19 10 -20 8 -20 -35z"/>
<path d="M1374 181 c3 -4 -4 -13 -16 -20 -16 -10 -19 -10 -12 1 4 7 -5 0 -20
-15 -15 -16 -33 -26 -41 -23 -8 3 -17 0 -21 -6 -4 -7 -3 -8 4 -4 7 4 12 5 12
2 0 -3 -17 -14 -37 -23 -32 -16 -38 -23 -40 -55 l-3 -38 195 0 196 0 -5 41
c-2 22 -6 42 -8 43 -2 2 -39 23 -83 47 -78 43 -130 64 -121 50z"/>
<path d="M1710 139 c-92 -55 -100 -64 -100 -104 l0 -35 185 0 c176 0 185 1
185 19 0 11 6 21 12 23 16 6 -34 52 -74 70 -26 12 -32 21 -29 41 1 4 -8 3 -19
-3 -18 -10 -24 -7 -21 12 0 4 -7 7 -17 7 -9 -1 -26 2 -37 4 -12 4 -44 -9 -85
-34z"/>
<path d="M908 109 c-79 -45 -88 -53 -88 -80 l0 -29 175 0 175 0 0 33 c-1 30
-6 35 -82 77 -44 25 -83 46 -87 47 -3 1 -45 -21 -93 -48z"/>
<path d="M530 85 c-72 -44 -80 -52 -74 -70 5 -12 31 -15 145 -15 131 0 139 1
139 20 0 13 -21 32 -68 60 -38 22 -72 40 -78 39 -5 0 -34 -16 -64 -34z"/>
<path d="M143 44 c-24 -14 -43 -29 -43 -35 0 -5 44 -9 100 -9 55 0 100 3 100
8 0 8 -93 62 -106 62 -5 0 -28 -12 -51 -26z"/>
</g>
</svg>
