<?xml version="1.0" standalone="no"?>
<!DOCTYPE svg PUBLIC "-//W3C//DTD SVG 20010904//EN"
 "http://www.w3.org/TR/2001/REC-SVG-20010904/DTD/svg10.dtd">
<svg version="1.0" xmlns="http://www.w3.org/2000/svg"
 width="200.000000pt" height="200.000000pt" viewBox="0 0 200.000000 200.000000"
 preserveAspectRatio="xMidYMid meet">
<metadata>
Created by potrace 1.16, written by Peter Selinger 2001-2019
</metadata>
<g transform="translate(0.000000,200.000000) scale(0.100000,-0.100000)"
fill="#000000" stroke="none">
<path d="M0 1931 c0 -60 3 -71 22 -85 l23 -17 -22 11 -23 11 0 -156 0 -156 23
11 22 11 -23 -17 c-22 -16 -22 -20 -22 -225 0 -115 4 -209 8 -209 5 0 17 -7
28 -16 18 -15 18 -15 -3 -5 -12 6 -24 11 -27 11 -3 0 -6 -45 -6 -100 0 -55 3
-100 6 -100 3 0 15 5 27 11 21 10 21 10 3 -5 -11 -9 -23 -16 -28 -16 -4 0 -8
-98 -8 -219 0 -215 0 -219 23 -235 l22 -17 -23 11 -22 11 0 -136 0 -136 23 11
22 11 -23 -17 c-20 -15 -22 -25 -22 -95 l0 -79 148 0 c153 1 150 0 95 38 -10
7 -4 6 14 -3 17 -8 35 -19 38 -25 4 -6 55 -10 123 -10 98 0 122 3 149 19 28
18 33 18 50 5 17 -14 17 -15 -2 -5 -14 6 -26 5 -39 -5 -16 -12 85 -14 702 -14
l722 0 0 134 c0 106 -3 136 -15 146 -19 16 -19 34 0 50 13 11 15 58 15 315 0
302 0 303 -22 319 l-23 17 23 -11 c21 -10 22 -9 22 30 0 39 -1 40 -22 30 l-23
-11 23 17 c22 16 22 17 22 317 0 274 -2 301 -17 313 -17 13 -17 14 0 8 13 -5
17 -1 17 21 0 22 -4 26 -17 21 -17 -6 -17 -5 0 8 15 11 17 31 17 145 l0 131
-666 0 c-465 0 -672 -3 -686 -11 -15 -8 -19 -8 -14 0 5 7 -8 11 -41 11 l-48
-1 28 -15 c15 -8 33 -12 40 -8 9 5 9 4 0 -6 -9 -10 -19 -9 -48 9 -31 18 -52
21 -151 21 -63 0 -114 -4 -114 -9 0 -10 -91 -64 -97 -58 -2 2 17 15 42 28 25
13 45 27 45 31 0 5 -43 8 -96 8 -85 0 -95 -2 -84 -15 11 -13 10 -14 -4 -9 -9
3 -16 10 -16 15 0 5 -20 9 -45 9 l-45 0 0 -69z m170 13 c0 -2 -9 0 -20 6 -11
6 -20 13 -20 16 0 2 9 0 20 -6 11 -6 20 -13 20 -16z m-80 -140 c0 -2 -9 0 -20
6 -11 6 -20 13 -20 16 0 2 9 0 20 -6 11 -6 20 -13 20 -16z m300 11 c0 -2 -13
-11 -30 -20 -38 -19 -40 -11 -2 9 31 17 32 18 32 11z m70 -24 l45 -27 0 -69
c0 -67 -1 -69 -32 -88 -18 -10 -33 -16 -33 -13 0 3 14 12 30 21 29 15 30 18
30 80 0 64 0 65 -37 84 -49 26 -71 41 -58 40 6 0 30 -13 55 -28z m-321 -39
c-2 -26 -2 -26 -6 -2 -3 13 -12 30 -21 38 -15 11 -14 12 6 2 15 -7 22 -19 21
-38z m169 15 c-9 -7 -18 -26 -21 -42 l-4 -30 -2 32 c0 21 5 35 17 42 24 14 30
13 10 -2z m528 -2 c18 -14 17 -14 -9 -3 -23 9 -34 8 -62 -5 -32 -15 -35 -20
-35 -62 0 -42 3 -47 35 -62 34 -16 38 -16 71 2 34 18 36 21 32 67 -2 26 1 43
5 39 5 -5 7 -27 5 -51 -3 -37 -8 -45 -40 -64 l-38 -21 -37 20 c-35 18 -38 24
-41 67 -3 44 -1 49 30 68 40 24 58 25 84 5z m395 -42 c13 -15 12 -15 -8 -2
-20 12 -26 12 -45 0 -21 -13 -22 -13 -9 2 7 10 21 17 31 17 10 0 24 -7 31 -17z
m-1094 -45 c-3 -7 -5 -2 -5 12 0 14 2 19 5 13 2 -7 2 -19 0 -25z m1086 -9 c20
13 21 13 8 -2 -7 -10 -21 -17 -31 -17 -10 0 -24 7 -31 17 -13 15 -12 15 9 2
19 -12 25 -12 45 0z m-1090 -60 c-6 -6 -7 3 -4 23 4 28 6 29 9 9 2 -13 0 -27
-5 -32z m182 11 c3 -6 -1 -7 -9 -4 -18 7 -21 14 -7 14 6 0 13 -4 16 -10z
m-205 -25 c0 -2 -13 -11 -30 -20 -38 -19 -40 -11 -2 9 31 17 32 18 32 11z
m280 -21 c0 -2 -9 0 -20 6 -11 6 -20 13 -20 16 0 2 9 0 20 -6 11 -6 20 -13 20
-16z m35 6 c-3 -5 -12 -10 -18 -10 -7 0 -6 4 3 10 19 12 23 12 15 0z m-195
-135 c17 -9 30 -18 30 -21 0 -2 -14 3 -31 11 -17 9 -37 14 -45 11 -9 -3 -12
-1 -9 4 9 14 21 13 55 -5z m-90 -20 c0 -2 -10 -9 -22 -15 -22 -11 -22 -10 -4
4 21 17 26 19 26 11z m530 -76 c0 -21 -3 -40 -8 -43 -4 -2 -6 13 -4 34 4 35 1
41 -29 59 -18 11 -37 17 -42 14 -6 -3 -7 -1 -3 6 5 8 18 5 47 -11 35 -19 39
-26 39 -59z m-370 -5 c0 -45 -3 -55 -22 -64 -21 -10 -21 -10 -5 3 20 17 24
105 5 127 -11 12 -10 12 5 1 12 -10 17 -28 17 -67z m258 52 c-21 -16 -24 -76
-5 -95 10 -10 9 -11 -5 -6 -13 5 -18 18 -18 51 0 30 5 46 18 53 24 15 30 13
10 -3z m458 -18 c4 -6 3 -8 -4 -5 -30 20 -56 -25 -29 -52 10 -10 9 -11 -5 -6
-34 13 -14 73 24 75 4 0 10 -5 14 -12z m776 -7 c-23 -14 -10 -46 18 -44 22 2
23 1 7 -8 -13 -8 -22 -7 -33 1 -23 20 -17 60 10 60 6 0 5 -4 -2 -9z m-762 -46
c-7 -8 -18 -15 -24 -15 -6 0 -3 5 7 11 9 5 18 20 18 32 1 18 2 18 6 4 3 -10
-1 -24 -7 -32z m-809 -69 c16 8 29 12 29 10 0 -3 -12 -12 -27 -20 -26 -13 -32
-12 -75 12 -27 15 -48 30 -48 34 0 4 21 -6 46 -22 44 -28 48 -28 75 -14z m405
29 c-23 -17 -42 -19 -51 -5 -3 5 0 7 9 4 8 -3 23 -1 33 5 26 15 31 13 9 -4z
m-183 -221 c35 -23 38 -29 35 -66 -2 -28 -9 -44 -23 -52 -18 -10 -18 -10 -3 3
12 9 18 27 18 51 0 33 -5 41 -35 60 -32 20 -36 20 -65 5 -37 -19 -40 -11 -2 9
35 20 31 20 75 -10z m-344 -27 c-1 -20 -2 -20 -6 -2 -3 11 -13 25 -22 33 -14
11 -13 12 7 2 14 -7 22 -19 21 -33z m726 11 c14 -6 25 -15 25 -20 0 -5 -11 -1
-24 7 -19 13 -29 14 -45 6 -30 -16 -40 -12 -11 4 31 18 24 17 55 3z m-467
-106 l27 -24 -32 16 c-31 16 -33 19 -31 69 l1 52 4 -45 c3 -34 10 -51 31 -68z
m867 58 c0 -18 -6 -26 -23 -28 -24 -4 -38 18 -28 44 3 9 15 14 28 12 17 -2 23
-10 23 -28z m-1125 -25 c0 -26 -6 -37 -22 -45 -21 -10 -21 -10 -5 3 9 8 17 28
17 46 0 17 2 31 5 31 3 0 5 -16 5 -35z m750 -3 c0 -5 -11 -14 -25 -20 -39 -18
-44 -14 -10 7 36 23 35 23 35 13z m-75 -12 c3 -6 -1 -7 -9 -4 -18 7 -21 14 -7
14 6 0 13 -4 16 -10z m-360 -40 c-3 -5 -12 -10 -18 -10 -7 0 -6 4 3 10 19 12
23 12 15 0z m-120 -203 c6 -5 -15 4 -45 21 -43 24 -59 28 -75 21 -20 -10 -20
-10 -1 5 18 15 23 14 65 -10 25 -15 51 -31 56 -37z m-145 28 c0 -2 -13 -11
-30 -20 -38 -19 -40 -11 -2 9 31 17 32 18 32 11z m450 -9 c0 -2 -16 -13 -35
-25 -31 -18 -35 -25 -35 -61 0 -38 3 -42 43 -60 23 -11 35 -20 27 -20 -8 0
-30 9 -47 20 -29 17 -33 25 -33 63 0 39 3 45 38 65 40 23 42 24 42 18z m70
-42 c0 -2 -9 0 -20 6 -11 6 -20 13 -20 16 0 2 9 0 20 -6 11 -6 20 -13 20 -16z
m-573 -26 c-3 -7 -5 -2 -5 12 0 14 2 19 5 13 2 -7 2 -19 0 -25z m210 0 c-3 -7
-5 -2 -5 12 0 14 2 19 5 13 2 -7 2 -19 0 -25z m708 22 c3 -5 0 -8 -7 -5 -21 8
-40 -11 -36 -36 2 -18 9 -24 28 -24 19 0 26 7 32 30 l7 30 -2 -29 c-4 -56 -67
-61 -75 -6 -5 33 38 65 53 40z m812 -26 c8 -22 -18 -46 -37 -33 -12 8 -12 9 5
7 12 -2 21 4 23 16 3 15 0 18 -17 13 -12 -3 -19 -1 -15 4 9 15 34 10 41 -7z
m-1730 -36 c-3 -8 -6 -5 -6 6 -1 11 2 17 5 13 3 -3 4 -12 1 -19z m573 -16 c0
-5 -12 -14 -27 -21 l-28 -12 25 21 c29 22 30 23 30 12z m-517 -52 c33 -19 43
-21 65 -11 25 11 26 10 8 -4 -11 -8 -25 -15 -30 -15 -19 1 -106 60 -106 72 0
7 5 6 13 -4 6 -8 29 -25 50 -38z m146 26 c-2 -2 -15 -9 -29 -15 -24 -11 -24
-11 -6 3 16 13 49 24 35 12z m-184 -206 c3 -5 -10 -1 -29 11 -20 12 -36 23
-36 25 0 7 58 -25 65 -36z m319 19 c20 -12 36 -23 36 -26 0 -3 -16 4 -36 16
-28 17 -40 19 -57 10 -21 -10 -21 -10 -3 5 24 19 18 20 60 -5z m-101 -26 c-19
-13 -23 -25 -23 -67 0 -29 6 -58 13 -66 10 -12 9 -12 -5 -1 -14 10 -18 28 -18
71 0 49 3 58 23 68 32 15 36 13 10 -5z m506 -10 c26 -15 31 -24 31 -55 0 -29
-6 -41 -29 -57 -31 -22 -56 -27 -65 -12 -4 5 3 7 13 4 10 -3 31 3 45 13 22 14
26 23 24 52 -2 28 -10 38 -38 53 -19 11 -29 19 -23 19 6 0 25 -8 42 -17z
m-339 -58 c0 -30 -3 -56 -7 -58 -5 -3 -8 23 -8 58 0 35 3 61 8 58 4 -2 7 -28
7 -58z m252 43 c-16 -16 -15 -71 1 -87 10 -10 9 -11 -5 -6 -22 9 -26 90 -5 98
20 9 22 8 9 -5z m463 -8 c3 -5 0 -7 -8 -4 -8 3 -20 -2 -27 -11 -12 -14 -12
-20 0 -38 12 -20 12 -21 -3 -8 -21 17 -21 30 0 53 18 20 29 23 38 8z m25 -34
c0 -14 -8 -27 -17 -31 -15 -5 -16 -4 -5 6 6 7 12 21 12 31 0 10 2 18 5 18 3 0
5 -11 5 -24z m-1125 -76 c-3 -6 -21 -17 -38 -26 -36 -19 -31 -9 10 17 34 21
36 22 28 9z m297 -24 c7 4 8 3 4 -4 -10 -16 -18 -15 -42 4 -18 14 -18 15 4 4
12 -6 28 -8 34 -4z m-199 -143 c3 -5 -5 -8 -18 -8 -13 0 -21 3 -18 8 2 4 10 7
18 7 8 0 16 -3 18 -7z m-53 -18 c0 -2 -13 -11 -30 -20 -38 -19 -40 -11 -2 9
31 17 32 18 32 11z"/>
<path d="M1180 1000 c0 -13 7 -20 20 -20 13 0 20 7 20 20 0 13 -7 20 -20 20
-13 0 -20 -7 -20 -20z"/>
<path d="M1983 314 c-3 -8 -1 -20 6 -27 8 -8 11 -4 11 16 0 30 -7 35 -17 11z"/>
</g>
</svg>
