<?xml version="1.0" standalone="no"?>
<!DOCTYPE svg PUBLIC "-//W3C//DTD SVG 20010904//EN"
 "http://www.w3.org/TR/2001/REC-SVG-20010904/DTD/svg10.dtd">
<svg version="1.0" xmlns="http://www.w3.org/2000/svg"
 width="200.000000pt" height="200.000000pt" viewBox="0 0 200.000000 200.000000"
 preserveAspectRatio="xMidYMid meet">
<metadata>
Created by potrace 1.16, written by Peter Selinger 2001-2019
</metadata>
<g transform="translate(0.000000,200.000000) scale(0.100000,-0.100000)"
fill="#000000" stroke="none">
<path d="M1 1928 l2 -76 26 15 c25 14 25 14 6 -2 -11 -9 -19 -21 -17 -26 1 -6
-2 -8 -8 -4 -7 4 -10 -42 -10 -138 0 -116 3 -147 15 -157 8 -7 22 -10 30 -6 9
3 14 2 11 -3 -3 -5 -15 -11 -26 -14 -11 -3 -18 -1 -15 3 3 5 2 11 -3 14 -4 2
-9 -47 -10 -110 -1 -90 1 -114 12 -114 7 0 20 -7 27 -17 13 -15 12 -15 -8 -5
-12 7 -24 12 -26 12 -3 0 -5 -188 -5 -417 0 -301 3 -422 11 -432 9 -12 9 -13
0 -7 -10 6 -13 -25 -13 -139 0 -114 3 -145 13 -139 10 6 10 4 0 -7 -15 -16
-17 -43 -3 -34 6 4 8 11 5 16 -3 5 1 6 10 3 8 -4 23 0 32 7 15 13 15 12 3 -8
-8 -12 -18 -19 -22 -16 -21 12 -38 -21 -38 -74 0 -52 1 -53 21 -42 15 8 19 8
15 0 -5 -8 41 -11 159 -11 108 0 164 3 160 10 -8 13 1 13 25 -2 16 -10 24 -10
41 0 12 8 18 9 14 3 -4 -8 44 -11 159 -11 105 0 166 4 166 10 0 6 8 5 20 -2
16 -10 24 -10 41 0 12 8 18 9 14 3 -4 -8 44 -11 159 -11 105 0 166 4 166 10 0
6 8 5 20 -2 16 -10 26 -8 62 11 39 20 41 21 18 2 l-25 -21 163 0 c102 0 162 4
162 10 0 6 8 5 20 -2 16 -10 24 -10 40 0 24 15 33 15 25 2 -4 -7 52 -10 160
-10 108 0 164 3 160 10 -9 14 8 13 23 -2 9 -9 11 6 10 64 -2 70 -4 75 -20 65
-12 -8 -21 -8 -28 -1 -8 8 -4 10 12 10 14 -1 22 4 20 12 -1 8 2 11 8 7 7 -4
10 43 10 140 0 97 -3 144 -10 140 -6 -4 -9 -1 -8 7 2 8 -6 13 -18 12 -15 0
-20 4 -17 13 5 11 9 11 28 -1 l23 -15 0 170 c0 139 -3 168 -13 159 -10 -9 -20
-7 -39 5 -14 10 -26 20 -26 22 0 3 12 -2 26 -12 52 -34 53 -28 52 368 0 252
-4 366 -12 376 -8 11 -8 13 2 7 9 -6 12 24 12 137 0 153 -7 178 -47 163 -15
-6 -16 -5 -5 6 9 9 17 10 30 1 16 -10 18 -5 20 63 1 75 -3 84 -27 62 -11 -10
-13 -10 -7 0 6 9 -29 12 -161 12 l-168 0 25 -21 c23 -19 21 -18 -18 2 -37 20
-46 21 -64 10 -11 -7 -17 -8 -13 -2 4 8 -45 11 -162 11 l-168 0 25 -21 c23
-19 21 -18 -18 2 -36 19 -46 21 -62 11 -12 -7 -20 -8 -20 -2 0 6 -61 10 -166
10 -115 0 -163 -3 -159 -11 4 -6 -2 -5 -14 3 -17 10 -25 10 -41 0 -12 -7 -20
-8 -20 -2 0 6 -61 10 -166 10 -115 0 -163 -3 -159 -11 4 -6 -2 -5 -13 2 -17
11 -26 10 -56 -6 -19 -11 -37 -26 -40 -35 -2 -9 -4 -6 -5 8 -1 13 5 22 13 22
8 0 18 5 21 10 4 7 -52 10 -160 10 -108 0 -164 -3 -160 -10 9 -14 -9 -12 -23
2 -10 10 -12 -4 -11 -64z m74 34 c-8 -8 -25 10 -19 20 4 6 9 5 15 -3 4 -7 6
-15 4 -17z m400 8 c3 -5 2 -10 -4 -10 -5 0 -13 5 -16 10 -3 6 -2 10 4 10 5 0
13 -4 16 -10z m400 0 c3 -5 2 -10 -4 -10 -5 0 -13 5 -16 10 -3 6 -2 10 4 10 5
0 13 -4 16 -10z m670 0 c-3 -5 -11 -10 -16 -10 -6 0 -7 5 -4 10 3 6 11 10 16
10 6 0 7 -4 4 -10z m400 0 c-3 -5 -11 -10 -16 -10 -6 0 -7 5 -4 10 3 6 11 10
16 10 6 0 7 -4 4 -10z m-1578 -32 c-3 -7 -5 -2 -5 12 0 14 2 19 5 13 2 -7 2
-19 0 -25z m33 22 c0 -5 -5 -10 -11 -10 -5 0 -7 5 -4 10 3 6 8 10 11 10 2 0 4
-4 4 -10z m421 0 c10 -6 19 -16 19 -22 0 -9 -3 -9 -12 0 -7 7 -20 12 -31 12
-10 0 -15 5 -12 10 8 13 12 12 36 0z m400 0 c10 -6 19 -16 19 -22 0 -9 -3 -9
-12 0 -7 7 -20 12 -31 12 -10 0 -15 5 -12 10 8 13 12 12 36 0z m389 0 c0 -5
-4 -10 -10 -10 -5 0 -10 5 -10 10 0 6 5 10 10 10 6 0 10 -4 10 -10z m27 -12
c-3 -8 -6 -5 -6 6 -1 11 2 17 5 13 3 -3 4 -12 1 -19z m-1596 -5 c13 -15 12
-15 -8 -4 -24 12 -29 21 -14 21 5 0 15 -7 22 -17z m400 0 c13 -15 12 -15 -8
-4 -24 12 -29 21 -14 21 5 0 15 -7 22 -17z m346 -19 c8 3 24 1 35 -5 l20 -11
-21 -14 c-30 -21 -61 0 -60 41 1 25 3 26 6 7 3 -16 9 -22 20 -18z m1193 21
c-7 -8 -18 -15 -24 -15 -6 0 -2 7 8 15 25 19 32 19 16 0z m-400 1 c0 -3 -4 -8
-10 -11 -5 -3 -10 -1 -10 4 0 6 5 11 10 11 6 0 10 -2 10 -4z m-1080 -44 c0 -1
-9 2 -20 8 -11 6 -20 15 -20 20 0 6 9 2 20 -7 11 -10 20 -19 20 -21z m240 23
c-7 -8 -18 -15 -24 -15 -6 0 -2 7 8 15 25 19 32 19 16 0z m400 0 c-7 -8 -18
-15 -24 -15 -6 0 -2 7 8 15 25 19 32 19 16 0z m540 -7 c0 -6 -6 -5 -15 2 -8 7
-15 14 -15 16 0 2 7 1 15 -2 8 -4 15 -11 15 -16z m-1613 -25 c-3 -10 -5 -4 -5
12 0 17 2 24 5 18 2 -7 2 -21 0 -30z m359 22 c10 -8 15 -14 9 -14 -5 0 -19 6
-29 14 -11 8 -15 15 -10 15 6 0 19 -7 30 -15z m459 5 c3 -5 2 -10 -4 -10 -5 0
-13 5 -16 10 -3 6 -2 10 4 10 5 0 13 -4 16 -10z m309 -5 c-10 -8 -23 -14 -29
-14 -5 0 -1 6 9 14 11 8 24 15 30 15 5 0 1 -7 -10 -15z m91 5 c3 -5 2 -10 -4
-10 -5 0 -13 5 -16 10 -3 6 -2 10 4 10 5 0 13 -4 16 -10z m312 -1 c-17 -10
-17 -12 -1 -23 16 -12 16 -13 0 -19 -10 -4 -15 -3 -11 3 3 6 -1 13 -11 17 -16
6 -15 7 2 20 10 7 23 13 28 13 6 0 3 -5 -7 -11z m343 6 c0 -2 -10 -9 -22 -15
-22 -11 -22 -10 -4 4 21 17 26 19 26 11z m-1905 -15 c3 -5 2 -10 -4 -10 -5 0
-13 5 -16 10 -3 6 -2 10 4 10 5 0 13 -4 16 -10z m349 -6 c3 -8 10 -12 16 -9 5
3 10 1 10 -4 0 -14 -13 -14 -28 1 -9 9 -21 6 -54 -12 -49 -26 -48 -22 2 14 42
29 46 30 54 10z m856 6 c0 -5 -4 -10 -10 -10 -5 0 -10 5 -10 10 0 6 5 10 10
10 6 0 10 -4 10 -10z m416 -9 c20 -16 21 -20 8 -25 -8 -3 -12 -10 -9 -16 3 -6
-1 -7 -10 -4 -14 6 -14 8 2 20 17 13 17 14 -4 20 -13 3 -23 10 -23 15 0 14 9
11 36 -10z m334 14 c0 -2 -19 -14 -42 -26 -43 -21 -40 -8 4 16 25 14 38 18 38
10z m-170 -31 c0 -2 -9 0 -20 6 -11 6 -20 13 -20 16 0 2 9 0 20 -6 11 -6 20
-13 20 -16z m-1610 12 c0 -2 -7 -7 -16 -10 -8 -3 -12 -2 -9 4 6 10 25 14 25 6z
m271 -13 c13 -15 12 -15 -8 -4 -24 12 -29 21 -14 21 5 0 15 -7 22 -17z m129
13 c0 -2 -7 -7 -16 -10 -8 -3 -12 -2 -9 4 6 10 25 14 25 6z m140 -1 c0 -2 -13
-11 -30 -20 -38 -19 -40 -11 -2 9 31 17 32 18 32 11z m160 -31 c0 -2 -11 2
-25 8 -14 6 -25 15 -25 20 0 5 11 1 25 -8 14 -9 25 -18 25 -20z m105 26 c3 -6
-1 -7 -9 -4 -18 7 -21 14 -7 14 6 0 13 -4 16 -10z m133 -2 c-2 -7 5 -12 15
-12 22 2 22 -3 -3 -16 -16 -8 -20 -8 -18 2 2 7 -5 12 -15 12 -14 -2 -15 1 -6
12 14 17 30 18 27 2z m127 2 c3 -5 2 -10 -4 -10 -5 0 -13 5 -16 10 -3 6 -2 10
4 10 5 0 13 -4 16 -10z m139 2 c2 -4 -4 -8 -14 -8 -10 0 -16 4 -14 8 3 4 9 8
14 8 5 0 11 -4 14 -8z m136 3 c0 -2 -10 -10 -22 -16 -21 -11 -22 -11 -9 4 13
16 31 23 31 12z m-1380 -25 c0 -5 -4 -10 -10 -10 -5 0 -10 5 -10 10 0 6 5 10
10 10 6 0 10 -4 10 -10z m80 0 c0 -5 -7 -10 -15 -10 -8 0 -15 5 -15 10 0 6 7
10 15 10 8 0 15 -4 15 -10z m127 -4 c0 -8 -6 -12 -15 -9 -11 5 -11 7 0 14 7 5
13 9 14 9 0 0 1 -6 1 -14z m83 -12 c0 -2 -9 0 -20 6 -11 6 -20 13 -20 16 0 2
9 0 20 -6 11 -6 20 -13 20 -16z m110 16 c0 -5 -2 -10 -4 -10 -3 0 -8 5 -11 10
-3 6 -1 10 4 10 6 0 11 -4 11 -10z m80 0 c0 -5 -7 -10 -16 -10 -8 0 -12 5 -9
10 3 6 10 10 16 10 5 0 9 -4 9 -10z m130 5 c0 -2 -10 -9 -22 -15 -22 -11 -22
-10 -4 4 21 17 26 19 26 11z m190 -5 c0 -5 -4 -10 -10 -10 -5 0 -10 5 -10 10
0 6 5 10 10 10 6 0 10 -4 10 -10z m80 0 c0 -5 -2 -10 -4 -10 -3 0 -8 5 -11 10
-3 6 -1 10 4 10 6 0 11 -4 11 -10z m325 0 c3 -5 -1 -10 -9 -10 -9 0 -16 5 -16
10 0 6 4 10 9 10 6 0 13 -4 16 -10z m75 0 c0 -5 -4 -10 -10 -10 -5 0 -10 5
-10 10 0 6 5 10 10 10 6 0 10 -4 10 -10z m330 2 c0 -5 -7 -9 -15 -9 -8 0 -15
4 -15 9 0 4 7 8 15 8 8 0 15 -4 15 -8z m70 -2 c0 -5 -4 -10 -10 -10 -5 0 -10
5 -10 10 0 6 5 10 10 10 6 0 10 -4 10 -10z m-995 -10 c3 -6 -1 -7 -9 -4 -18 7
-21 14 -7 14 6 0 13 -4 16 -10z m400 0 c3 -6 -1 -7 -9 -4 -18 7 -21 14 -7 14
6 0 13 -4 16 -10z m315 6 c0 -2 -7 -7 -16 -10 -8 -3 -12 -2 -9 4 6 10 25 14
25 6z m182 -18 c16 -7 28 -16 28 -21 0 -8 -42 12 -70 34 -13 10 -13 10 0 6 8
-3 27 -11 42 -19z m-1612 2 c0 -5 -4 -10 -10 -10 -5 0 -10 5 -10 10 0 6 5 10
10 10 6 0 10 -4 10 -10z m70 -2 c0 -4 -4 -8 -9 -8 -6 0 -12 4 -15 8 -3 5 1 9
9 9 8 0 15 -4 15 -9z m70 7 c0 -2 -13 -11 -30 -20 -16 -9 -30 -12 -30 -8 0 5
10 13 23 19 25 13 37 16 37 9z m140 0 c0 -2 -10 -9 -22 -15 -22 -11 -22 -10
-4 4 21 17 26 19 26 11z m130 -10 c7 -8 16 -12 21 -9 5 3 9 0 9 -5 0 -6 -3
-11 -7 -11 -13 1 -59 40 -47 40 6 0 17 -7 24 -15z m60 5 c0 -5 -5 -10 -11 -10
-5 0 -7 5 -4 10 3 6 8 10 11 10 2 0 4 -4 4 -10z m70 6 c0 -3 -4 -8 -10 -11 -5
-3 -10 -1 -10 4 0 6 5 11 10 11 6 0 10 -2 10 -4z m140 -19 c0 -2 -8 -3 -18 -3
-10 0 -19 6 -19 13 0 8 6 9 19 2 10 -5 18 -11 18 -12z m130 8 c7 -8 16 -12 21
-9 5 3 9 0 9 -5 0 -6 8 -11 18 -12 10 0 12 -3 5 -6 -12 -4 -83 33 -83 43 0 10
18 3 30 -11z m65 5 c-3 -5 -12 -10 -18 -10 -7 0 -6 4 3 10 19 12 23 12 15 0z
m45 -10 c-27 -21 -40 -25 -40 -12 0 8 38 29 55 31 6 0 -1 -8 -15 -19z m160 13
c0 -1 -8 -7 -18 -12 -13 -7 -19 -6 -19 2 0 7 9 13 19 13 10 0 18 -1 18 -3z
m120 -3 c0 -5 -2 -10 -4 -10 -3 0 -8 5 -11 10 -3 6 -1 10 4 10 6 0 11 -4 11
-10z m75 0 c-3 -5 -12 -10 -18 -10 -7 0 -6 4 3 10 19 12 23 12 15 0z m65 0 c0
-5 -4 -10 -10 -10 -5 0 -10 5 -10 10 0 6 5 10 10 10 6 0 10 -4 10 -10z m137
-3 c0 -7 -9 -13 -19 -13 -18 0 -18 1 -2 13 10 7 18 13 19 13 1 0 2 -6 2 -13z
m198 3 c-3 -5 -12 -10 -18 -10 -7 0 -6 4 3 10 19 12 23 12 15 0z m65 0 c0 -5
-4 -10 -10 -10 -5 0 -10 5 -10 10 0 6 5 10 10 10 6 0 10 -4 10 -10z m-1370
-26 c0 -2 -9 0 -20 6 -11 6 -20 13 -20 16 0 2 9 0 20 -6 11 -6 20 -13 20 -16z
m-330 4 c0 -4 6 -8 14 -8 9 0 12 -7 9 -21 -5 -19 -4 -20 18 -10 23 12 23 11 5
-3 -26 -21 -36 -20 -36 3 0 10 -10 25 -22 33 -18 12 -19 15 -5 15 9 0 17 -4
17 -9z m465 2 c-3 -5 -10 -10 -16 -10 -5 0 -9 5 -9 10 0 6 7 10 16 10 8 0 12
-4 9 -10z m735 0 c0 -5 -4 -10 -9 -10 -6 0 -13 5 -16 10 -3 6 1 10 9 10 9 0
16 -4 16 -10z m63 -7 c-3 -7 -9 -10 -14 -7 -14 8 -11 21 5 21 8 0 12 -6 9 -14z
m387 -2 c-13 -11 -29 -17 -35 -13 -6 4 -2 8 8 10 9 2 17 8 17 13 0 5 8 9 18 9
14 0 12 -4 -8 -19z m-1550 -6 c-7 -8 -18 -15 -24 -15 -6 0 -2 7 8 15 25 19 32
19 16 0z m-100 -30 c0 -10 -16 -4 -40 16 l-25 20 33 -16 c17 -8 32 -18 32 -20z
m365 17 c-3 -3 -11 0 -18 7 -9 10 -8 11 6 5 10 -3 15 -9 12 -12z m65 14 c0 -3
-4 -8 -10 -11 -5 -3 -10 -1 -10 4 0 6 5 11 10 11 6 0 10 -2 10 -4z m65 -6 c-3
-5 -11 -10 -16 -10 -6 0 -7 5 -4 10 3 6 11 10 16 10 6 0 7 -4 4 -10z m400 0
c-3 -5 -11 -10 -16 -10 -6 0 -7 5 -4 10 3 6 11 10 16 10 6 0 7 -4 4 -10z m270
0 c3 -5 2 -10 -4 -10 -5 0 -13 5 -16 10 -3 6 -2 10 4 10 5 0 13 -4 16 -10z
m65 0 c0 -5 -2 -10 -4 -10 -3 0 -8 5 -11 10 -3 6 -1 10 4 10 6 0 11 -4 11 -10z
m335 0 c3 -5 2 -10 -4 -10 -5 0 -13 5 -16 10 -3 6 -2 10 4 10 5 0 13 -4 16
-10z m-769 -28 c-4 -3 -14 2 -24 12 -16 18 -16 18 6 6 13 -6 21 -14 18 -18z
m874 13 c-7 -8 -10 -21 -7 -30 4 -8 2 -17 -2 -20 -5 -2 -11 7 -14 20 -3 17 1
29 12 35 23 13 25 12 11 -5z m-1275 -30 c0 -14 -3 -24 -8 -22 -5 1 -8 6 -8 10
1 4 1 17 1 29 0 29 13 14 15 -17z m62 23 c0 -7 -12 -14 -26 -15 l-26 -1 25 14
c14 7 25 13 26 14 0 0 1 -6 1 -12z m268 -6 c-3 -3 -11 0 -18 7 -9 10 -8 11 6
5 10 -3 15 -9 12 -12z m132 3 c0 -8 -4 -12 -9 -9 -5 3 -6 10 -3 15 9 13 12 11
12 -6z m403 5 c0 -5 -5 -10 -11 -10 -5 0 -7 5 -4 10 3 6 8 10 11 10 2 0 4 -4
4 -10z m-30 -10 c0 -5 -5 -10 -11 -10 -5 0 -7 5 -4 10 3 6 8 10 11 10 2 0 4
-4 4 -10z m400 0 c0 -5 -5 -10 -11 -10 -5 0 -7 5 -4 10 3 6 8 10 11 10 2 0 4
-4 4 -10z m-1675 -10 c3 -5 2 -10 -4 -10 -5 0 -13 5 -16 10 -3 6 -2 10 4 10 5
0 13 -4 16 -10z m140 0 c-3 -5 -12 -10 -18 -10 -7 0 -6 4 3 10 19 12 23 12 15
0z m260 0 c3 -5 1 -10 -4 -10 -6 0 -11 5 -11 10 0 6 2 10 4 10 3 0 8 -4 11
-10z m945 0 c0 -5 -5 -10 -11 -10 -5 0 -7 5 -4 10 3 6 8 10 11 10 2 0 4 -4 4
-10z m260 0 c0 -5 -2 -10 -4 -10 -3 0 -8 5 -11 10 -3 6 -1 10 4 10 6 0 11 -4
11 -10z m139 -17 c0 -25 -1 -25 -8 -8 -5 11 -7 23 -4 28 8 14 13 7 12 -20z
m-436 -8 c-7 -21 -13 -19 -13 6 0 11 4 18 10 14 5 -3 7 -12 3 -20z m-1273 -15
c0 -16 -2 -30 -4 -30 -2 0 -6 14 -8 30 -3 17 -1 30 4 30 4 0 8 -13 8 -30z
m475 20 c-3 -5 -11 -10 -16 -10 -6 0 -7 5 -4 10 3 6 11 10 16 10 6 0 7 -4 4
-10z m330 0 c3 -5 2 -10 -4 -10 -5 0 -13 5 -16 10 -3 6 -2 10 4 10 5 0 13 -4
16 -10z m70 0 c-3 -5 -11 -10 -16 -10 -6 0 -7 5 -4 10 3 6 11 10 16 10 6 0 7
-4 4 -10z m348 -6 c9 -4 17 -10 17 -15 0 -14 -13 -10 -40 12 -14 11 -18 18
-10 15 8 -3 23 -9 33 -12z m382 6 c3 -6 -1 -7 -9 -4 -18 7 -21 14 -7 14 6 0
13 -4 16 -10z m-1565 -14 c0 -11 -19 -15 -25 -6 -3 5 1 10 9 10 9 0 16 -2 16
-4z m400 0 c0 -3 -4 -8 -10 -11 -5 -3 -10 -1 -10 4 0 6 5 11 10 11 6 0 10 -2
10 -4z m400 0 c0 -3 -4 -8 -10 -11 -5 -3 -10 -1 -10 4 0 6 5 11 10 11 6 0 10
-2 10 -4z m800 -11 c0 -8 -2 -15 -4 -15 -2 0 -6 7 -10 15 -3 8 -1 15 4 15 6 0
10 -7 10 -15z m32 -57 c2 -21 0 -38 -4 -38 -4 0 -8 21 -7 48 1 52 6 48 11 -10z
m-1275 5 c-3 -10 -5 -4 -5 12 0 17 2 24 5 18 2 -7 2 -21 0 -30z m1243 2 c0
-14 -4 -25 -9 -25 -4 0 -6 11 -3 25 2 14 6 25 8 25 2 0 4 -11 4 -25z m-373 -7
c-3 -8 -6 -5 -6 6 -1 11 2 17 5 13 3 -3 4 -12 1 -19z m-1232 -8 c3 -5 -1 -10
-10 -10 -9 0 -13 5 -10 10 3 6 8 10 10 10 2 0 7 -4 10 -10z m400 0 c3 -5 1
-10 -4 -10 -6 0 -11 5 -11 10 0 6 2 10 4 10 3 0 8 -4 11 -10z m380 -16 c-38
-20 -45 -17 -15 5 13 11 28 17 33 14 5 -3 -4 -11 -18 -19z m425 16 c0 -5 -5
-10 -11 -10 -5 0 -7 5 -4 10 3 6 8 10 11 10 2 0 4 -4 4 -10z m-1240 -20 c0 -5
-5 -10 -11 -10 -5 0 -7 5 -4 10 3 6 8 10 11 10 2 0 4 -4 4 -10z m400 0 c0 -5
-5 -10 -11 -10 -5 0 -7 5 -4 10 3 6 8 10 11 10 2 0 4 -4 4 -10z m90 -11 l25
-20 -32 16 c-18 8 -33 18 -33 20 0 10 16 4 40 -16z m380 11 c0 -5 -2 -10 -4
-10 -3 0 -8 5 -11 10 -3 6 -1 10 4 10 6 0 11 -4 11 -10z m335 0 c-3 -5 -11
-10 -16 -10 -6 0 -7 5 -4 10 3 6 11 10 16 10 6 0 7 -4 4 -10z m70 0 c3 -5 2
-10 -4 -10 -5 0 -13 5 -16 10 -3 6 -2 10 4 10 5 0 13 -4 16 -10z m330 0 c-3
-5 -11 -10 -16 -10 -6 0 -7 5 -4 10 3 6 11 10 16 10 6 0 7 -4 4 -10z m-1640
-9 c3 -6 -4 -15 -15 -21 -19 -10 -20 -10 -8 9 15 24 15 24 23 12z m1755 -15
c14 -18 14 -19 -8 -7 -12 7 -20 17 -16 22 3 6 7 9 8 7 1 -2 8 -12 16 -22z
m-1615 4 c3 -5 2 -10 -4 -10 -5 0 -13 5 -16 10 -3 6 -2 10 4 10 5 0 13 -4 16
-10z m265 6 c0 -3 -4 -8 -10 -11 -5 -3 -10 -1 -10 4 0 6 5 11 10 11 6 0 10 -2
10 -4z m1200 -6 c0 -5 -5 -10 -11 -10 -5 0 -7 5 -4 10 3 6 8 10 11 10 2 0 4
-4 4 -10z m-1575 -27 c-11 -7 -23 -13 -28 -13 -5 0 -6 -11 -3 -25 4 -14 2 -25
-4 -25 -5 0 -10 10 -10 21 0 24 40 68 54 61 5 -3 1 -11 -9 -19z m61 12 c10 -8
14 -15 7 -15 -6 0 -15 5 -18 10 -4 6 -11 8 -16 5 -5 -4 -9 -1 -9 4 0 15 13 14
36 -4z m400 -1 c18 -14 18 -14 -6 -3 -31 14 -36 19 -24 19 6 0 19 -7 30 -16z
m414 0 c0 -8 -5 -12 -10 -9 -6 4 -8 11 -5 16 9 14 15 11 15 -7z m370 6 c0 -5
-2 -10 -4 -10 -3 0 -8 5 -11 10 -3 6 -1 10 4 10 6 0 11 -4 11 -10z m384 -5
c-10 -8 -23 -14 -29 -14 -5 0 -1 6 9 14 11 8 24 15 30 15 5 0 1 -7 -10 -15z
m46 -7 c0 -18 -2 -20 -9 -8 -6 8 -7 18 -5 22 9 14 14 9 14 -14z m-1266 -3 c-4
-8 -8 -15 -10 -15 -2 0 -4 7 -4 15 0 8 4 15 10 15 5 0 7 -7 4 -15z m406 11 c0
-3 -4 -8 -10 -11 -5 -3 -10 -1 -10 4 0 6 5 11 10 11 6 0 10 -2 10 -4z m460 -6
c0 -5 -2 -10 -4 -10 -3 0 -8 5 -11 10 -3 6 -1 10 4 10 6 0 11 -4 11 -10z m370
-15 c0 -8 -4 -15 -10 -15 -5 0 -7 7 -4 15 4 8 8 15 10 15 2 0 4 -7 4 -15z m67
-17 c-3 -7 -5 -2 -5 12 0 14 2 19 5 13 2 -7 2 -19 0 -25z m-1679 4 c-22 -4
-24 -22 -3 -22 8 0 15 -5 15 -10 0 -7 -8 -6 -22 2 -13 7 -27 11 -33 10 -5 -1
1 6 15 17 13 11 29 17 35 13 6 -4 2 -8 -7 -10z m82 3 c11 -13 10 -14 -4 -9 -9
3 -16 10 -16 15 0 13 6 11 20 -6z m270 11 c0 -2 -7 -7 -16 -10 -8 -3 -12 -2
-9 4 6 10 25 14 25 6z m48 -14 c-10 -2 -18 -7 -18 -12 0 -4 -8 -10 -17 -14
-10 -3 -24 -9 -30 -12 -7 -3 -13 -1 -13 5 0 6 6 11 13 11 6 0 23 9 37 19 13
11 29 17 35 13 6 -4 2 -8 -7 -10z m77 8 c3 -5 2 -10 -4 -10 -5 0 -13 5 -16 10
-3 6 -2 10 4 10 5 0 13 -4 16 -10z m275 6 c0 -2 -7 -7 -16 -10 -8 -3 -12 -2
-9 4 6 10 25 14 25 6z m125 -7 c11 -17 -1 -21 -15 -4 -8 9 -8 15 -2 15 6 0 14
-5 17 -11z m275 6 c0 -2 -10 -10 -22 -16 -21 -11 -22 -11 -9 4 13 16 31 23 31
12z m125 -5 c3 -5 2 -10 -4 -10 -5 0 -13 5 -16 10 -3 6 -2 10 4 10 5 0 13 -4
16 -10z m275 5 c0 -2 -10 -10 -22 -16 -21 -11 -22 -11 -9 4 13 16 31 23 31 12z
m-1472 -51 c-6 -6 -58 20 -58 29 0 4 14 0 31 -8 17 -9 29 -18 27 -21z m400 0
c-6 -6 -58 20 -58 29 0 4 14 0 31 -8 17 -9 29 -18 27 -21z m302 27 c0 -5 -8
-11 -17 -15 -10 -3 -25 -9 -33 -12 -8 -3 -4 4 10 15 27 22 40 26 40 12z m65
-1 c3 -5 -1 -10 -9 -10 -9 0 -16 5 -16 10 0 6 4 10 9 10 6 0 13 -4 16 -10z
m335 1 c0 -5 -8 -11 -17 -15 -10 -3 -25 -9 -33 -12 -8 -3 -4 4 10 15 27 22 40
26 40 12z m65 -1 c3 -5 -1 -10 -9 -10 -9 0 -16 5 -16 10 0 6 4 10 9 10 6 0 13
-4 16 -10z m335 0 c0 -5 -5 -10 -11 -10 -5 0 -7 5 -4 10 3 6 8 10 11 10 2 0 4
-4 4 -10z m65 0 c3 -5 -1 -10 -9 -10 -9 0 -16 5 -16 10 0 6 4 10 9 10 6 0 13
-4 16 -10z m-1428 -14 c0 -8 -6 -12 -15 -9 -11 5 -11 7 0 14 7 5 13 9 14 9 0
0 1 -6 1 -14z m393 -1 c0 -2 -6 -5 -13 -8 -8 -3 -14 1 -14 8 0 7 6 11 14 8 7
-3 13 -6 13 -8z m407 0 c0 -6 -8 -11 -17 -11 -9 0 -17 5 -17 11 0 6 8 11 17
11 9 0 17 -5 17 -11z m400 0 c0 -6 -8 -11 -17 -11 -9 0 -17 5 -17 11 0 6 8 11
17 11 9 0 17 -5 17 -11z m-1007 -3 c0 -5 -7 -9 -15 -9 -8 0 -12 4 -9 9 3 4 9
8 15 8 5 0 9 -4 9 -8z m400 -2 c0 -5 -2 -10 -4 -10 -3 0 -8 5 -11 10 -3 6 -1
10 4 10 6 0 11 -4 11 -10z m65 0 c3 -5 1 -10 -4 -10 -6 0 -11 5 -11 10 0 6 2
10 4 10 3 0 8 -4 11 -10z m335 0 c0 -5 -2 -10 -4 -10 -3 0 -8 5 -11 10 -3 6
-1 10 4 10 6 0 11 -4 11 -10z m65 0 c3 -5 1 -10 -4 -10 -6 0 -11 5 -11 10 0 6
2 10 4 10 3 0 8 -4 11 -10z m265 0 c0 -5 -5 -10 -11 -10 -5 0 -7 5 -4 10 3 6
8 10 11 10 2 0 4 -4 4 -10z m74 2 c3 -5 -1 -9 -9 -9 -8 0 -15 4 -15 9 0 4 4 8
9 8 6 0 12 -4 15 -8z m66 -2 c0 -5 -4 -10 -10 -10 -5 0 -10 5 -10 10 0 6 5 10
10 10 6 0 10 -4 10 -10z m-1420 -5 c0 -2 -10 -9 -22 -15 -22 -11 -22 -10 -4 4
21 17 26 19 26 11z m400 0 c0 -2 -10 -9 -22 -15 -22 -11 -22 -10 -4 4 21 17
26 19 26 11z m320 -21 c0 -2 -9 0 -20 6 -11 6 -20 13 -20 16 0 2 9 0 20 -6 11
-6 20 -13 20 -16z m400 0 c0 -2 -9 0 -20 6 -11 6 -20 13 -20 16 0 2 9 0 20 -6
11 -6 20 -13 20 -16z m410 19 c0 -1 -9 -7 -19 -12 -14 -8 -20 -7 -24 2 -3 7 5
12 19 12 13 0 24 -1 24 -2z m-1820 -13 c0 -5 -5 -10 -11 -10 -5 0 -7 5 -4 10
3 6 8 10 11 10 2 0 4 -4 4 -10z m80 1 c0 -14 -54 -31 -64 -20 -8 7 -6 8 6 4
11 -5 20 -2 23 7 6 14 35 21 35 9z m96 0 c12 10 17 10 27 0 9 -10 8 -11 -4 -6
-10 4 -20 1 -24 -5 -4 -7 2 -14 14 -17 12 -3 21 -9 21 -14 0 -13 -6 -11 -47
17 -46 31 -56 41 -25 25 18 -10 26 -10 38 0z m308 -6 c4 -13 2 -14 -14 -5 -23
13 -26 20 -6 20 8 0 16 -7 20 -15z m120 6 c3 -5 -2 -8 -12 -7 -9 0 -16 -5 -14
-11 2 -14 -10 -17 -21 -6 -4 3 1 12 11 19 20 16 29 17 36 5z m116 -11 c-24
-19 -40 -25 -40 -15 0 5 51 34 60 34 3 0 -6 -8 -20 -19z m85 10 c-3 -5 -10
-10 -16 -10 -5 0 -9 5 -9 10 0 6 7 10 16 10 8 0 12 -4 9 -10z m75 0 c0 -5 -4
-10 -10 -10 -5 0 -10 5 -10 10 0 6 5 10 10 10 6 0 10 -4 10 -10z m207 -1 c8
-8 17 -8 34 1 23 11 23 11 -1 -9 -29 -24 -41 -26 -37 -8 1 6 -6 11 -15 11 -10
-1 -15 2 -12 7 7 12 18 11 31 -2z m123 5 c0 -8 -19 -13 -24 -6 -3 5 1 9 9 9 8
0 15 -2 15 -3z m70 -4 c0 -5 -5 -10 -11 -10 -5 0 -7 5 -4 10 3 6 8 10 11 10 2
0 4 -4 4 -10z m207 -1 c8 -8 17 -8 34 1 23 11 23 11 -1 -9 -29 -24 -41 -26
-37 -8 1 6 -6 11 -15 11 -10 -1 -15 2 -12 7 7 12 18 11 31 -2z m123 1 c0 -5
-7 -10 -15 -10 -8 0 -15 5 -15 10 0 6 7 10 15 10 8 0 15 -4 15 -10z m70 0 c0
-5 -5 -10 -11 -10 -5 0 -7 5 -4 10 3 6 8 10 11 10 2 0 4 -4 4 -10z m-1370 -15
c-7 -8 -18 -15 -24 -15 -6 0 -2 7 8 15 25 19 32 19 16 0z m666 -13 c-4 -3 -14
2 -24 12 -16 18 -16 18 6 6 13 -6 21 -14 18 -18z m400 0 c-4 -3 -14 2 -24 12
-16 18 -16 18 6 6 13 -6 21 -14 18 -18z m400 0 c-4 -3 -14 2 -24 12 -16 18
-16 18 6 6 13 -6 21 -14 18 -18z m-1876 2 c0 -8 -5 -12 -10 -9 -6 4 -18 1 -26
-6 -8 -6 -17 -9 -20 -6 -3 3 7 12 23 21 35 19 33 19 33 0z m340 6 c0 -5 -4
-10 -10 -10 -5 0 -10 5 -10 10 0 6 5 10 10 10 6 0 10 -4 10 -10z m200 -4 c-7
-7 -13 -7 -20 0 -6 6 -3 10 10 10 13 0 16 -4 10 -10z m200 4 c0 -5 -2 -10 -4
-10 -3 0 -8 5 -11 10 -3 6 -1 10 4 10 6 0 11 -4 11 -10z m207 -7 c0 -8 -6 -9
-19 -2 -10 5 -18 11 -18 12 0 2 8 3 18 3 10 0 19 -6 19 -13z m193 7 c0 -5 -2
-10 -4 -10 -3 0 -8 5 -11 10 -3 6 -1 10 4 10 6 0 11 -4 11 -10z m210 3 c0 -1
-15 -10 -32 -18 -24 -11 -28 -12 -16 -2 10 8 16 16 13 18 -2 3 5 5 15 5 11 0
20 -1 20 -3z m190 -3 c0 -5 -4 -10 -10 -10 -5 0 -10 5 -10 10 0 6 5 10 10 10
6 0 10 -4 10 -10z m205 0 c-3 -5 -12 -10 -18 -10 -7 0 -6 4 3 10 19 12 23 12
15 0z m-1389 -25 c-11 -8 -24 -15 -30 -15 -5 0 -1 7 10 15 10 8 24 14 29 14 6
0 1 -6 -9 -14z m354 5 c0 -5 -4 -10 -10 -10 -5 0 -10 5 -10 10 0 6 5 10 10 10
6 0 10 -4 10 -10z m46 -5 c-11 -8 -24 -15 -30 -15 -5 0 -1 7 10 15 10 8 24 14
29 14 6 0 1 -6 -9 -14z m362 3 c8 -8 15 -8 27 2 8 7 18 10 22 6 11 -11 -6 -19
-37 -19 -19 0 -30 -5 -30 -14 0 -8 -4 -12 -9 -9 -10 7 -3 46 8 46 4 0 12 -5
19 -12z m406 -3 c11 -8 15 -15 10 -15 -6 0 -19 7 -30 15 -10 8 -14 14 -9 14 6
0 19 -6 29 -14z m46 5 c0 -5 -4 -10 -10 -10 -5 0 -10 5 -10 10 0 6 5 10 10 10
6 0 10 -4 10 -10z m345 0 c3 -5 2 -10 -4 -10 -5 0 -13 5 -16 10 -3 6 -2 10 4
10 5 0 13 -4 16 -10z m-1613 -57 c2 -17 1 -40 -3 -50 -6 -15 -8 -14 -9 7 -1
14 -1 35 -1 47 2 14 -5 24 -18 28 -12 3 -21 10 -21 15 0 4 11 3 24 -3 17 -8
26 -22 28 -44z m101 42 c-3 -9 -8 -14 -10 -11 -3 3 -2 9 2 15 9 16 15 13 8 -4z
m268 -2 c13 -15 12 -15 -8 -4 -24 12 -29 21 -14 21 5 0 15 -7 22 -17z m137 3
c-7 -8 -15 -12 -17 -11 -5 6 10 25 20 25 5 0 4 -6 -3 -14z m257 4 c3 -5 2 -10
-4 -10 -5 0 -13 5 -16 10 -3 6 -2 10 4 10 5 0 13 -4 16 -10z m145 1 c0 -5 -7
-12 -16 -15 -14 -5 -15 -4 -4 9 14 17 20 19 20 6z m255 -1 c3 -5 2 -10 -4 -10
-5 0 -13 5 -16 10 -3 6 -2 10 4 10 5 0 13 -4 16 -10z m155 5 c0 -2 -10 -10
-22 -16 -21 -11 -22 -11 -9 4 13 16 31 23 31 12z m245 -5 c3 -6 -1 -7 -9 -4
-18 7 -21 14 -7 14 6 0 13 -4 16 -10z m-1895 -25 c-7 -8 -18 -15 -24 -15 -6 0
-2 7 8 15 25 19 32 19 16 0z m400 0 c-7 -9 -15 -13 -19 -10 -3 3 1 10 9 15 21
14 24 12 10 -5z m327 -17 c-3 -7 -5 -2 -5 12 0 14 2 19 5 13 2 -7 2 -19 0 -25z
m65 10 c-7 -7 -12 -8 -12 -2 0 14 12 26 19 19 2 -3 -1 -11 -7 -17z m805 -10
c-3 -7 -5 -2 -5 12 0 14 2 19 5 13 2 -7 2 -19 0 -25z m-397 17 c0 -11 -42 -25
-53 -18 -8 5 -2 10 18 14 17 4 31 7 33 8 1 0 2 -1 2 -4z m356 -10 c10 -8 15
-14 9 -14 -5 0 -19 6 -29 14 -11 8 -15 15 -10 15 6 0 19 -7 30 -15z m389 5 c3
-5 2 -10 -4 -10 -5 0 -13 5 -16 10 -3 6 -2 10 4 10 5 0 13 -4 16 -10z m-1175
-10 c0 -5 -4 -10 -9 -10 -6 0 -13 5 -16 10 -3 6 1 10 9 10 9 0 16 -4 16 -10z
m-735 -10 c-3 -5 -11 -10 -16 -10 -6 0 -7 5 -4 10 3 6 11 10 16 10 6 0 7 -4 4
-10z m260 0 c3 -5 1 -10 -4 -10 -6 0 -11 5 -11 10 0 6 2 10 4 10 3 0 8 -4 11
-10z m140 0 c-3 -5 -11 -10 -16 -10 -6 0 -7 5 -4 10 3 6 11 10 16 10 6 0 7 -4
4 -10z m305 -25 c0 -10 -16 -4 -40 16 l-25 20 33 -16 c17 -8 32 -18 32 -20z
m100 31 c0 -3 -4 -8 -10 -11 -5 -3 -10 -1 -10 4 0 6 5 11 10 11 6 0 10 -2 10
-4z m380 -16 c-24 -19 -40 -25 -40 -15 0 5 51 34 60 34 3 0 -6 -8 -20 -19z
m285 10 c3 -5 2 -10 -4 -10 -5 0 -13 5 -16 10 -3 6 -2 10 4 10 5 0 13 -4 16
-10z m135 1 c0 -5 -9 -11 -20 -14 -16 -4 -20 -14 -21 -54 -1 -26 0 -52 1 -58
1 -5 -2 -7 -5 -3 -4 4 -8 31 -8 59 0 44 4 54 24 65 29 16 29 16 29 5z m265 -1
c3 -5 2 -10 -4 -10 -5 0 -13 5 -16 10 -3 6 -2 10 4 10 5 0 13 -4 16 -10z
m-1105 -20 c0 -5 -5 -10 -11 -10 -5 0 -7 5 -4 10 3 6 8 10 11 10 2 0 4 -4 4
-10z m335 0 c3 -5 1 -10 -4 -10 -6 0 -11 5 -11 10 0 6 2 10 4 10 3 0 8 -4 11
-10z m-770 -10 c3 -5 1 -10 -4 -10 -6 0 -11 5 -11 10 0 6 2 10 4 10 3 0 8 -4
11 -10z m405 -4 c0 -3 -4 -8 -10 -11 -5 -3 -10 -1 -10 4 0 6 5 11 10 11 6 0
10 -2 10 -4z m357 -28 c-3 -8 -6 -5 -6 6 -1 11 2 17 5 13 3 -3 4 -12 1 -19z
m-400 -10 c-3 -8 -6 -5 -6 6 -1 11 2 17 5 13 3 -3 4 -12 1 -19z m-332 -53 c18
-12 16 -12 -16 -2 -22 7 -35 16 -32 24 3 8 9 9 16 2 7 -5 21 -16 32 -24z m-68
-7 c-3 -7 -5 -2 -5 12 0 14 2 19 5 13 2 -7 2 -19 0 -25z m417 7 c-10 -8 -23
-14 -29 -14 -5 -1 1 8 15 19 14 10 27 17 29 14 3 -2 -4 -11 -15 -19z m389 -12
c-8 -21 -22 -5 -16 18 4 15 8 17 13 8 5 -7 6 -18 3 -26z m37 27 c0 -5 -5 -10
-11 -10 -5 0 -7 5 -4 10 3 6 8 10 11 10 2 0 4 -4 4 -10z m27 -11 c2 -16 -1
-19 -9 -11 -5 5 -7 15 -4 21 10 15 12 14 13 -10z m373 14 c0 -9 -52 -35 -58
-29 -2 3 9 11 25 20 33 18 33 18 33 9z m-764 -30 c-7 -7 -26 7 -26 19 0 6 6 6
15 -2 9 -7 13 -15 11 -17z m1134 12 c-7 -8 -18 -15 -24 -15 -6 0 -2 7 8 15 25
19 32 19 16 0z m-1641 -22 c-6 -7 -15 -13 -20 -13 -5 0 -6 6 -3 13 3 8 11 14
19 14 11 0 12 -4 4 -14z m-239 -16 c0 -2 -9 -3 -20 -3 -11 0 -20 6 -20 13 0
11 5 11 20 3 11 -6 20 -12 20 -13z m305 14 c3 -5 1 -12 -5 -16 -5 -3 -10 1
-10 9 0 18 6 21 15 7z m75 -1 c0 -5 -2 -10 -4 -10 -3 0 -8 5 -11 10 -3 6 -1
10 4 10 6 0 11 -4 11 -10z m255 0 c-3 -5 -11 -10 -16 -10 -6 0 -7 5 -4 10 3 6
11 10 16 10 6 0 7 -4 4 -10z m150 -8 c-3 -3 -11 0 -18 7 -9 10 -8 11 6 5 10
-3 15 -9 12 -12z m250 8 c-3 -5 -11 -10 -16 -10 -6 0 -7 5 -4 10 3 6 11 10 16
10 6 0 7 -4 4 -10z m150 0 c3 -5 2 -10 -4 -10 -5 0 -13 5 -16 10 -3 6 -2 10 4
10 5 0 13 -4 16 -10z m395 0 c0 -5 -2 -10 -4 -10 -3 0 -8 5 -11 10 -3 6 -1 10
4 10 6 0 11 -4 11 -10z m-905 -10 c3 -5 -8 -16 -25 -25 -17 -9 -30 -11 -30 -5
0 5 7 10 15 10 9 0 18 7 21 15 7 17 11 19 19 5z m-401 -15 c-4 -8 -10 -12 -15
-9 -11 6 -2 24 11 24 5 0 7 -7 4 -15z m486 -6 l25 -20 -32 16 c-18 8 -33 18
-33 20 0 10 16 4 40 -16z m320 16 c0 -2 -15 -12 -32 -20 l-33 -16 25 20 c24
20 40 26 40 16z m65 -5 c3 -5 2 -10 -4 -10 -5 0 -13 5 -16 10 -3 6 -2 10 4 10
5 0 13 -4 16 -10z m335 6 c0 -3 -4 -8 -10 -11 -5 -3 -10 -1 -10 4 0 6 5 11 10
11 6 0 10 -2 10 -4z m65 -6 c3 -5 2 -10 -4 -10 -5 0 -13 5 -16 10 -3 6 -2 10
4 10 5 0 13 -4 16 -10z m-1575 -20 c0 -5 -2 -10 -4 -10 -3 0 -8 5 -11 10 -3 6
-1 10 4 10 6 0 11 -4 11 -10z m270 6 c0 -3 -4 -8 -10 -11 -5 -3 -10 -1 -10 4
0 6 5 11 10 11 6 0 10 -2 10 -4z m65 -6 c4 -6 3 -10 -2 -9 -12 4 -63 -23 -63
-33 0 -4 -3 -7 -7 -6 -5 1 -19 -4 -33 -11 -42 -23 -12 2 43 36 29 17 53 32 54
32 1 1 5 -4 8 -9z m70 0 c3 -5 2 -10 -4 -10 -5 0 -13 5 -16 10 -3 6 -2 10 4
10 5 0 13 -4 16 -10z m320 0 c-3 -5 -16 -15 -28 -21 -19 -9 -19 -8 3 10 28 23
34 26 25 11z m455 -24 c0 -2 -8 -3 -17 -2 -10 0 -17 -4 -16 -9 1 -6 -7 -11
-17 -11 -10 0 -18 5 -17 11 1 5 -7 9 -18 8 -17 -1 -17 0 5 17 22 16 27 17 52
4 15 -8 28 -16 28 -18z m300 30 c0 -2 -7 -7 -16 -10 -8 -3 -12 -2 -9 4 6 10
25 14 25 6z m100 -31 c0 -2 -8 -2 -17 -1 -10 0 -17 -4 -16 -9 1 -6 -7 -11 -17
-11 -10 0 -17 4 -14 7 9 15 -18 20 -34 6 -17 -14 -52 -30 -52 -23 0 3 23 18
52 34 48 28 53 29 75 15 13 -8 23 -17 23 -18z m30 25 c0 -5 -2 -10 -4 -10 -3
0 -8 5 -11 10 -3 6 -1 10 4 10 6 0 11 -4 11 -10z m265 0 c-3 -5 -11 -10 -16
-10 -6 0 -7 5 -4 10 3 6 11 10 16 10 6 0 7 -4 4 -10z m-1500 -20 c3 -6 -1 -7
-9 -4 -18 7 -21 14 -7 14 6 0 13 -4 16 -10z m176 -3 c-6 -8 -7 -17 -3 -22 4
-4 -3 -2 -15 4 -25 13 -31 24 -9 15 8 -3 17 -1 21 5 3 6 9 11 12 11 3 0 0 -6
-6 -13z m224 3 c3 -5 0 -7 -8 -4 -8 3 -18 0 -22 -6 -4 -7 2 -14 14 -17 24 -6
28 -20 6 -20 -8 0 -17 7 -20 15 -3 8 -12 12 -23 8 -10 -4 -7 2 8 14 28 22 36
24 45 10z m1139 1 c3 -5 -2 -8 -11 -7 -9 0 -18 -5 -21 -13 -3 -10 1 -12 16 -9
14 4 19 2 16 -6 -7 -17 -32 -16 -38 1 -3 8 -12 11 -18 8 -7 -4 -2 3 12 14 28
23 36 25 44 12z m-1774 -11 c0 -5 -5 -10 -11 -10 -5 0 -7 5 -4 10 3 6 8 10 11
10 2 0 4 -4 4 -10z m810 3 c0 -1 -19 -12 -41 -24 l-42 -21 32 -19 c38 -23 65
-14 32 10 -21 16 -21 17 -2 17 11 0 17 -4 15 -8 -3 -5 2 -11 10 -14 9 -3 16
-11 16 -17 0 -6 -3 -7 -7 -4 -3 4 -12 2 -19 -4 -9 -8 -25 -3 -58 16 -51 30
-54 33 -28 31 9 0 16 5 14 12 -1 8 2 11 7 8 11 -7 42 4 37 13 -3 4 4 7 15 7
10 0 19 -1 19 -3z m395 -3 c-3 -5 -12 -10 -18 -10 -7 0 -6 4 3 10 19 12 23 12
15 0z m400 0 c-3 -5 -12 -10 -18 -10 -7 0 -6 4 3 10 19 12 23 12 15 0z m-1739
-12 c4 -7 3 -8 -5 -4 -6 4 -14 1 -17 -7 -6 -17 -31 -18 -38 -1 -3 7 2 10 14 7
10 -3 21 0 24 6 9 14 13 14 22 -1z m342 0 c10 -10 17 -10 32 0 14 8 21 9 26 0
4 -7 3 -8 -5 -4 -6 4 -14 0 -17 -9 -6 -14 -9 -14 -30 0 -14 9 -30 13 -36 9 -7
-4 -8 -3 -4 4 9 15 19 15 34 0z m322 4 c0 -4 -15 -14 -32 -22 -18 -7 -37 -15
-43 -18 -5 -2 6 7 25 21 37 27 50 32 50 19z m400 -1 c0 -5 -9 -11 -21 -14 -16
-4 -18 -3 -8 9 13 16 29 19 29 5z m151 -8 c13 -15 12 -15 -8 -4 -24 12 -29 21
-14 21 5 0 15 -7 22 -17z m400 0 c12 -16 12 -17 -2 -6 -9 7 -19 10 -22 6 -4
-3 -7 -1 -7 5 0 17 16 15 31 -5z m127 -34 c23 -14 35 -46 21 -55 -5 -3 -9 5
-9 17 0 19 -2 20 -17 8 -16 -13 -17 -12 -5 3 9 11 10 18 2 23 -13 8 -32 -4
-25 -16 10 -15 -12 -10 -25 6 -11 13 -10 14 3 10 8 -4 18 -2 22 4 3 6 -5 15
-18 20 -14 6 -28 15 -32 21 -6 10 31 -9 83 -41z m-1641 27 c0 -8 -6 -12 -15
-9 -11 5 -11 7 0 14 7 5 13 9 14 9 0 0 1 -6 1 -14z m80 7 c-4 -3 -1 -13 6 -22
11 -14 10 -14 -5 -2 -20 15 -53 7 -43 -10 4 -6 14 -8 22 -4 13 4 14 3 3 -10
-13 -16 -35 -21 -25 -6 11 19 -17 23 -36 5 -10 -9 -19 -13 -19 -8 0 9 23 26
70 51 27 14 37 17 27 6z m306 -11 c-10 -7 -17 -18 -15 -23 1 -6 -6 -5 -18 1
-25 13 -25 18 -2 16 9 0 16 4 15 9 -1 6 7 11 18 11 19 0 20 -1 2 -14z m92 8
c-3 -5 -12 -10 -18 -10 -7 0 -6 4 3 10 19 12 23 12 15 0z m403 -2 c-2 -7 5
-12 16 -11 12 1 15 -2 8 -9 -7 -7 -17 -6 -32 5 -20 14 -18 18 8 26 1 1 1 -5 0
-11z m307 -6 c-3 -3 -11 0 -18 7 -9 10 -8 11 6 5 10 -3 15 -9 12 -12z m92 3
c-1 -5 6 -9 16 -9 22 2 22 -3 -3 -16 -12 -6 -19 -7 -18 -1 2 5 -5 16 -15 23
-18 13 -17 14 2 14 11 0 19 -5 18 -11z m403 8 c0 -1 -8 -7 -18 -12 -13 -7 -19
-6 -19 2 0 7 9 13 19 13 10 0 18 -1 18 -3z m-1710 -37 c0 -10 -28 0 -45 17
-20 19 -20 19 13 3 17 -9 32 -18 32 -20z m220 30 c0 -2 -7 -7 -16 -10 -8 -3
-12 -2 -9 4 6 10 25 14 25 6z m399 1 c-2 -1 -13 -9 -24 -17 -19 -14 -19 -14
-6 3 7 9 18 17 24 17 6 0 8 -1 6 -3z m407 -9 c4 -7 3 -8 -5 -4 -6 4 -20 2 -29
-6 -15 -12 -16 -11 -3 5 16 20 27 22 37 5z m74 8 c0 -2 -7 -7 -16 -10 -8 -3
-12 -2 -9 4 6 10 25 14 25 6z m319 1 c-2 -1 -13 -9 -24 -17 -19 -14 -19 -14
-6 3 7 9 18 17 24 17 6 0 8 -1 6 -3z m81 -5 c0 -5 -7 -9 -15 -9 -8 0 -12 4 -9
9 3 4 9 8 15 8 5 0 9 -4 9 -8z m-1032 -14 c-2 -7 5 -12 15 -12 23 2 22 -1 -9
-21 -18 -12 -29 -13 -38 -6 -7 6 -16 8 -19 4 -4 -3 -7 -2 -7 3 0 5 12 17 28
26 33 21 33 21 30 6z m822 -32 c0 -5 -3 -6 -7 -3 -3 4 -12 2 -19 -4 -9 -7 -19
-7 -35 2 -20 10 -20 12 -5 21 9 5 13 14 10 20 -4 6 7 3 25 -8 17 -10 31 -23
31 -28z m300 22 c0 -6 -6 -5 -15 2 -8 7 -15 14 -15 16 0 2 7 1 15 -2 8 -4 15
-11 15 -16z m144 9 c-3 -8 -12 -14 -21 -14 -13 0 -13 2 3 14 10 7 19 13 21 13
1 0 0 -6 -3 -13z m-1474 -7 c0 -5 -4 -10 -9 -10 -6 0 -13 5 -16 10 -3 6 1 10
9 10 9 0 16 -4 16 -10z m400 0 c0 -5 -4 -10 -10 -10 -5 0 -10 5 -10 10 0 6 5
10 10 10 6 0 10 -4 10 -10z m400 0 c0 -5 -4 -10 -10 -10 -5 0 -10 5 -10 10 0
6 5 10 10 10 6 0 10 -4 10 -10z m400 0 c0 -5 -4 -10 -10 -10 -5 0 -10 5 -10
10 0 6 5 10 10 10 6 0 10 -4 10 -10z m-270 -36 c0 -2 -9 0 -20 6 -11 6 -20 13
-20 16 0 2 9 0 20 -6 11 -6 20 -13 20 -16z m-1205 6 c3 -5 2 -10 -4 -10 -5 0
-13 5 -16 10 -3 6 -2 10 4 10 5 0 13 -4 16 -10z m400 0 c3 -5 2 -10 -4 -10 -5
0 -13 5 -16 10 -3 6 -2 10 4 10 5 0 13 -4 16 -10z m945 0 c0 -5 -5 -10 -11
-10 -5 0 -7 5 -4 10 3 6 8 10 11 10 2 0 4 -4 4 -10z m405 0 c-3 -5 -11 -10
-16 -10 -6 0 -7 5 -4 10 3 6 11 10 16 10 6 0 7 -4 4 -10z m-1718 -42 c-3 -7
-5 -2 -5 12 0 14 2 19 5 13 2 -7 2 -19 0 -25z m78 22 c-3 -5 -11 -10 -16 -10
-6 0 -7 5 -4 10 3 6 11 10 16 10 6 0 7 -4 4 -10z m400 0 c-3 -5 -11 -10 -16
-10 -6 0 -7 5 -4 10 3 6 11 10 16 10 6 0 7 -4 4 -10z m330 0 c3 -5 2 -10 -4
-10 -5 0 -13 5 -16 10 -3 6 -2 10 4 10 5 0 13 -4 16 -10z m70 0 c-3 -5 -11
-10 -16 -10 -6 0 -7 5 -4 10 3 6 11 10 16 10 6 0 7 -4 4 -10z m335 -2 c16 -10
24 -10 40 0 26 16 31 15 24 -3 -4 -8 -10 -13 -14 -10 -5 3 -11 1 -15 -5 -6 -9
-65 14 -65 25 0 8 9 6 30 -7z m395 2 c3 -5 2 -10 -4 -10 -5 0 -13 5 -16 10 -3
6 -2 10 4 10 5 0 13 -4 16 -10z m-1648 -37 c-3 -10 -5 -4 -5 12 0 17 2 24 5
18 2 -7 2 -21 0 -30z m83 23 c0 -11 -19 -15 -25 -6 -3 5 1 10 9 10 9 0 16 -2
16 -4z m70 -11 c-7 -8 -18 -15 -24 -15 -6 0 -2 7 8 15 25 19 32 19 16 0z m247
-7 c-3 -8 -6 -5 -6 6 -1 11 2 17 5 13 3 -3 4 -12 1 -19z m83 18 c0 -11 -19
-15 -25 -6 -3 5 1 10 9 10 9 0 16 -2 16 -4z m70 -5 c0 -5 -7 -12 -16 -15 -14
-5 -15 -4 -4 9 14 17 20 19 20 6z m330 5 c0 -3 -4 -8 -10 -11 -5 -3 -10 -1
-10 4 0 6 5 11 10 11 6 0 10 -2 10 -4z m80 -1 c0 -2 -10 -10 -22 -16 -21 -11
-22 -11 -9 4 13 16 31 23 31 12z m256 -23 c-4 -3 -14 2 -24 12 -16 18 -16 18
6 6 13 -6 21 -14 18 -18z m391 6 c-3 -8 -6 -5 -6 6 -1 11 2 17 5 13 3 -3 4
-12 1 -19z m83 18 c0 -11 -19 -15 -25 -6 -3 5 1 10 9 10 9 0 16 -2 16 -4z
m-875 -24 c-3 -3 -11 0 -18 7 -9 10 -8 11 6 5 10 -3 15 -9 12 -12z m535 14 c0
-2 -7 -7 -16 -10 -8 -3 -12 -2 -9 4 6 10 25 14 25 6z m360 -16 c0 -11 -4 -20
-9 -20 -5 0 -7 9 -4 20 3 11 7 20 9 20 2 0 4 -9 4 -20z m-814 -16 c-23 -16
-36 -18 -36 -4 0 6 9 10 20 10 11 0 20 5 20 12 0 6 3 8 7 4 5 -4 -1 -14 -11
-22z m-853 -9 c-7 -21 -13 -19 -13 6 0 11 4 18 10 14 5 -3 7 -12 3 -20z m53
10 c-23 -18 -36 -19 -36 -4 0 5 4 8 9 4 5 -3 12 -1 16 5 3 5 12 10 18 10 7 0
3 -7 -7 -15z m349 5 c3 -5 1 -10 -4 -10 -6 0 -11 5 -11 10 0 6 2 10 4 10 3 0
8 -4 11 -10z m51 -5 c-23 -18 -36 -19 -36 -4 0 5 4 8 9 4 5 -3 12 -1 16 5 3 5
12 10 18 10 7 0 3 -7 -7 -15z m814 5 c0 -5 -5 -10 -11 -10 -5 0 -7 5 -4 10 3
6 8 10 11 10 2 0 4 -4 4 -10z m345 0 c4 -6 11 -8 16 -5 5 4 9 1 9 -4 0 -15
-13 -14 -36 4 -10 8 -14 15 -7 15 6 0 15 -5 18 -10z m-348 -62 c-3 -7 -5 -2
-5 12 0 14 2 19 5 13 2 -7 2 -19 0 -25z m-1265 -38 c-1 -29 -3 -55 -6 -58 -3
-3 -6 23 -6 58 0 35 3 61 6 57 3 -3 6 -29 6 -57z m1665 28 c-3 -7 -5 -2 -5 12
0 14 2 19 5 13 2 -7 2 -19 0 -25z m-1710 0 c-3 -8 -6 -5 -6 6 -1 11 2 17 5 13
3 -3 4 -12 1 -19z m445 -3 c3 -14 1 -28 -3 -31 -5 -3 -9 9 -9 25 0 38 6 40 12
6z m1254 -15 c8 0 14 -8 14 -17 0 -11 -3 -14 -8 -7 -11 16 -41 24 -47 14 -4
-6 -11 -10 -17 -10 -6 0 0 10 13 23 16 15 25 18 27 10 2 -7 10 -13 18 -13z
m-1216 6 c0 -3 -4 -8 -10 -11 -5 -3 -10 -1 -10 4 0 6 5 11 10 11 6 0 10 -2 10
-4z m400 -6 c0 -5 -4 -10 -10 -10 -5 0 -10 5 -10 10 0 6 5 10 10 10 6 0 10 -4
10 -10z m430 -6 c0 -8 -5 -12 -10 -9 -6 4 -8 11 -5 16 9 14 15 11 15 -7z
m-1205 -4 c3 -5 2 -10 -4 -10 -5 0 -13 5 -16 10 -3 6 -2 10 4 10 5 0 13 -4 16
-10z m445 -26 c0 -10 -20 -3 -41 16 l-24 20 33 -16 c17 -8 32 -17 32 -20z
m300 32 c0 -3 -4 -8 -10 -11 -5 -3 -10 -1 -10 4 0 6 5 11 10 11 6 0 10 -2 10
-4z m60 -6 c0 -5 -2 -10 -4 -10 -3 0 -8 5 -11 10 -3 6 -1 10 4 10 6 0 11 -4
11 -10z m837 -32 c-3 -7 -5 -2 -5 12 0 14 2 19 5 13 2 -7 2 -19 0 -25z m-1750
0 c-3 -8 -6 -5 -6 6 -1 11 2 17 5 13 3 -3 4 -12 1 -19z m411 8 c-7 -8 -15 -12
-17 -11 -5 6 10 25 20 25 5 0 4 -6 -3 -14z m542 -8 c0 -6 -6 -5 -15 2 -8 7
-15 14 -15 16 0 2 7 1 15 -2 8 -4 15 -11 15 -16z m260 12 c0 -5 -5 -10 -11
-10 -5 0 -7 5 -4 10 3 6 8 10 11 10 2 0 4 -4 4 -10z m135 -8 c-3 -3 -11 0 -18
7 -9 10 -8 11 6 5 10 -3 15 -9 12 -12z m-1270 -2 c3 -5 -1 -10 -10 -10 -9 0
-13 5 -10 10 3 6 8 10 10 10 2 0 7 -4 10 -10z m380 -16 c-38 -20 -45 -17 -15
5 13 11 28 17 33 14 5 -3 -4 -11 -18 -19z m462 -10 c-3 -3 -14 1 -26 8 -17 10
-25 10 -41 0 -31 -19 -38 -14 -10 7 22 18 27 18 53 4 16 -8 27 -17 24 -19z
m399 -1 c-2 -2 -13 2 -25 9 -17 11 -25 11 -42 0 -12 -7 -23 -11 -26 -8 -3 2 8
11 23 19 25 13 31 13 51 0 13 -9 22 -18 19 -20z m369 27 c3 -5 -1 -10 -10 -10
-9 0 -13 5 -10 10 3 6 8 10 10 10 2 0 7 -4 10 -10z m28 -39 c-5 -18 -19 -29
-92 -68 -33 -18 -39 -19 -22 -5 16 13 20 21 12 26 -6 4 -11 12 -11 19 0 6 6 2
14 -8 14 -19 53 -14 41 6 -4 6 -14 8 -22 4 -13 -4 -14 -3 -3 10 13 16 35 21
25 6 -7 -13 12 -24 26 -15 8 4 8 9 0 17 -6 6 -11 15 -11 21 0 5 7 1 15 -10 14
-18 14 -18 15 11 0 21 3 26 9 16 5 -7 7 -21 4 -30z m-1603 19 c0 -5 -2 -10 -4
-10 -3 0 -8 5 -11 10 -3 6 -1 10 4 10 6 0 11 -4 11 -10z m405 0 c3 -5 2 -10
-4 -10 -5 0 -13 5 -16 10 -3 6 -2 10 4 10 5 0 13 -4 16 -10z m1130 0 c-3 -5
-11 -10 -16 -10 -6 0 -7 5 -4 10 3 6 11 10 16 10 6 0 7 -4 4 -10z m-1643 -32
c-3 -14 -2 -19 6 -14 7 4 12 5 12 2 0 -3 -15 -13 -32 -21 -24 -12 -28 -12 -15
-2 9 8 17 24 17 36 0 11 4 21 9 21 5 0 7 -10 3 -22z m98 2 c14 -11 18 -18 9
-14 -27 9 -32 -15 -6 -25 14 -6 29 -16 33 -23 6 -9 3 -9 -10 1 -15 13 -21 12
-49 -3 l-32 -18 24 20 24 19 -32 19 c-17 10 -31 22 -31 27 0 4 4 6 9 2 5 -3
12 -1 16 5 9 14 16 12 45 -10z m45 10 c3 -5 1 -10 -4 -10 -6 0 -11 5 -11 10 0
6 2 10 4 10 3 0 8 -4 11 -10z m260 0 c-3 -5 -11 -10 -16 -10 -6 0 -7 5 -4 10
3 6 11 10 16 10 6 0 7 -4 4 -10z m95 -9 c22 -17 22 -19 5 -18 -12 1 -19 -3
-17 -11 2 -10 -6 -8 -28 4 -40 25 -38 34 10 43 3 0 16 -8 30 -18z m310 15 c0
-3 -4 -8 -10 -11 -5 -3 -10 -1 -10 4 0 6 5 11 10 11 6 0 10 -2 10 -4z m104
-22 c51 -28 55 -32 29 -30 -10 0 -17 -4 -16 -11 2 -7 -4 -10 -12 -6 -14 5 -13
7 1 18 16 11 16 12 -1 19 -10 3 -23 2 -30 -4 -10 -8 -19 -8 -33 1 -19 12 -19
14 -4 26 9 7 18 13 18 13 1 0 22 -12 48 -26z m371 16 c4 -6 11 -8 16 -5 5 4 9
2 9 -3 0 -6 -7 -13 -16 -16 -8 -3 -13 -9 -10 -14 2 -4 -4 -8 -14 -8 -10 0 -17
4 -14 7 7 12 -13 20 -32 12 -16 -6 -16 -7 0 -18 15 -11 15 -13 1 -19 -9 -3
-13 -2 -10 3 8 15 -15 25 -28 12 -6 -6 -16 -11 -21 -11 -12 0 94 69 106 70 4
0 10 -5 13 -10z m65 0 c0 -5 -2 -10 -4 -10 -3 0 -8 5 -11 10 -3 6 -1 10 4 10
6 0 11 -4 11 -10z m405 0 c3 -5 2 -10 -4 -10 -5 0 -13 5 -16 10 -3 6 -2 10 4
10 5 0 13 -4 16 -10z m-1475 -31 c0 -14 -16 -11 -29 5 -10 12 -8 13 8 9 12 -3
21 -9 21 -14z m138 -1 c-2 -7 4 -12 13 -12 9 1 16 -4 16 -10 0 -7 -8 -12 -18
-12 -10 0 -15 4 -13 8 3 5 -2 11 -11 14 -13 6 -14 8 -3 15 17 11 18 11 16 -3z
m262 2 c0 -5 -4 -10 -10 -10 -5 0 -10 5 -10 10 0 6 5 10 10 10 6 0 10 -4 10
-10z m138 1 c-2 -5 5 -16 15 -23 18 -13 17 -14 -2 -14 -11 0 -19 5 -18 11 1 5
-7 9 -18 8 -20 -1 -20 -1 -1 13 23 16 27 17 24 5z m262 -1 c0 -5 -4 -10 -10
-10 -5 0 -10 5 -10 10 0 6 5 10 10 10 6 0 10 -4 10 -10z m280 -14 c0 -2 -8 -3
-17 -2 -10 0 -17 -4 -16 -9 1 -6 -7 -11 -18 -11 -19 0 -20 1 -2 14 10 7 17 18
15 23 -1 6 6 5 18 -1 11 -6 20 -12 20 -14z m120 14 c0 -5 -4 -10 -10 -10 -5 0
-10 5 -10 10 0 6 5 10 10 10 6 0 10 -4 10 -10z m274 -7 c4 -11 1 -11 -14 -3
-24 13 -25 17 -5 17 8 0 16 -6 19 -14z m-1176 -13 c17 -8 32 -18 32 -22 0 -13
-10 -9 -41 13 -27 19 -56 18 -44 -2 3 -5 -1 -6 -10 -3 -14 6 -14 8 2 20 10 7
20 12 23 10 3 -1 20 -9 38 -16z m456 -9 c-2 -3 -12 3 -22 13 -16 17 -16 18 5
5 12 -7 20 -15 17 -18z m-1092 -5 c7 4 8 2 4 -5 -6 -9 -11 -9 -22 0 -7 6 -22
8 -31 5 -15 -5 -15 -4 2 9 17 14 20 14 28 0 4 -9 13 -12 19 -9z m105 10 c0 -8
-6 -12 -15 -9 -11 5 -11 7 0 14 7 5 13 9 14 9 0 0 1 -6 1 -14z m163 -18 c0
-13 -13 -9 -40 12 l-25 20 33 -12 c17 -7 32 -16 32 -20z m110 21 c0 -3 -9 -9
-21 -12 -12 -3 -18 -10 -14 -17 4 -6 14 -9 22 -6 8 3 11 1 8 -4 -9 -14 -17
-12 -45 10 -15 12 -18 18 -8 14 11 -4 20 0 23 8 6 15 35 21 35 7z m325 1 c-3
-5 -11 -10 -16 -10 -6 0 -7 5 -4 10 3 6 11 10 16 10 6 0 7 -4 4 -10z m75 -1
c0 -4 8 -9 18 -11 9 -2 13 -6 7 -10 -6 -4 -21 1 -34 11 -17 13 -19 18 -7 18 9
0 16 -4 16 -8z m395 -7 c-3 -3 -11 0 -18 7 -9 10 -8 11 6 5 10 -3 15 -9 12
-12z m400 0 c-3 -3 -11 0 -18 7 -9 10 -8 11 6 5 10 -3 15 -9 12 -12z m55 -2
c-27 -21 -40 -25 -40 -12 0 5 12 13 28 19 39 16 40 15 12 -7z m160 -3 c0 -2
-8 -3 -18 -3 -10 0 -19 6 -19 13 0 8 6 9 19 2 10 -5 18 -11 18 -12z m120 11
c0 -4 -7 -8 -15 -8 -8 0 -15 4 -15 8 0 5 7 9 15 9 8 0 15 -4 15 -9z m-840 -19
c0 -14 -16 -11 -29 5 -10 12 -8 13 8 9 12 -3 21 -9 21 -14z m412 -6 c16 -14
43 -9 34 6 -3 3 4 7 15 7 19 0 19 -1 -2 -17 -19 -14 -19 -17 -5 -22 10 -4 19
-1 22 7 3 7 11 13 18 13 8 0 12 -6 9 -14 -3 -7 -9 -11 -13 -8 -5 3 -12 1 -15
-5 -6 -10 -82 26 -110 52 -16 15 28 -3 47 -19z m-735 2 c-1 -5 6 -9 16 -9 24
2 21 -3 -12 -21 -19 -9 -32 -11 -36 -5 -4 6 -10 8 -15 5 -4 -3 -11 2 -14 11
-6 15 -4 15 16 2 32 -21 58 -11 29 11 -21 16 -21 17 -2 17 11 0 19 -5 18 -11z
m382 -6 c-17 -12 -19 -18 -8 -21 8 -3 12 -8 9 -11 -3 -3 -16 3 -30 13 -22 16
-22 18 -5 17 11 -1 19 3 18 8 -1 6 7 11 18 11 19 0 19 -1 -2 -17z m81 11 c0
-5 -5 -10 -11 -10 -5 0 -7 5 -4 10 3 6 8 10 11 10 2 0 4 -4 4 -10z m-670 -4
c0 -2 -7 -7 -16 -10 -8 -3 -12 -2 -9 4 6 10 25 14 25 6z m405 -6 c3 -5 0 -7
-8 -4 -8 3 -18 1 -22 -5 -3 -6 -11 -11 -18 -11 -6 0 -2 7 9 15 23 17 31 18 39
5z m395 5 c0 -2 -10 -10 -22 -16 -21 -11 -22 -11 -9 4 13 16 31 23 31 12z
m405 -5 c3 -6 -1 -7 -9 -4 -18 7 -21 14 -7 14 6 0 13 -4 16 -10z m-565 -5 c0
-2 -10 -9 -22 -15 -22 -11 -22 -10 -4 4 21 17 26 19 26 11z m-1175 -26 c-10
-15 -25 -10 -19 6 4 8 10 12 15 9 5 -3 7 -10 4 -15z m310 11 c4 -6 10 -8 13
-6 4 2 7 -8 6 -22 -3 -39 -6 -40 -13 -7 -4 17 -12 29 -19 28 -7 -2 -12 2 -12
7 0 13 17 13 25 0z m-50 -10 c3 -5 1 -10 -4 -10 -6 0 -11 5 -11 10 0 6 2 10 4
10 3 0 8 -4 11 -10z m145 5 c0 -2 -15 -12 -32 -20 l-33 -16 25 20 c24 20 40
26 40 16z m255 -5 c3 -5 1 -10 -4 -10 -6 0 -11 5 -11 10 0 6 2 10 4 10 3 0 8
-4 11 -10z m810 0 c3 -5 2 -10 -4 -10 -5 0 -13 5 -16 10 -3 6 -2 10 4 10 5 0
13 -4 16 -10z m400 0 c3 -5 2 -10 -4 -10 -5 0 -13 5 -16 10 -3 6 -2 10 4 10 5
0 13 -4 16 -10z m-1912 -25 c-3 -9 -8 -14 -10 -11 -3 3 -2 9 2 15 9 16 15 13
8 -4z m342 5 c3 -5 2 -10 -4 -10 -5 0 -13 5 -16 10 -3 6 -2 10 4 10 5 0 13 -4
16 -10z m400 0 c3 -5 2 -10 -4 -10 -5 0 -13 5 -16 10 -3 6 -2 10 4 10 5 0 13
-4 16 -10z m65 0 c0 -5 -5 -10 -11 -10 -5 0 -7 5 -4 10 3 6 8 10 11 10 2 0 4
-4 4 -10z m335 0 c3 -5 2 -10 -4 -10 -5 0 -13 5 -16 10 -3 6 -2 10 4 10 5 0
13 -4 16 -10z m70 0 c-3 -5 -11 -10 -16 -10 -6 0 -7 5 -4 10 3 6 11 10 16 10
6 0 7 -4 4 -10z m330 0 c3 -5 1 -10 -4 -10 -6 0 -11 5 -11 10 0 6 2 10 4 10 3
0 8 -4 11 -10z m65 -47 l-4 -58 -6 50 c-6 51 -4 65 8 65 4 0 5 -26 2 -57z
m300 25 c0 -5 -9 -4 -20 2 -11 6 -20 12 -20 14 0 2 9 2 20 -1 11 -3 20 -9 20
-15z m-1860 8 c0 -3 -4 -8 -10 -11 -5 -3 -10 -1 -10 4 0 6 5 11 10 11 6 0 10
-2 10 -4z m250 -6 c0 -5 -2 -10 -4 -10 -3 0 -8 5 -11 10 -3 6 -1 10 4 10 6 0
11 -4 11 -10z m143 -5 c-3 -9 -8 -14 -10 -11 -3 3 -2 9 2 15 9 16 15 13 8 -4z
m262 5 c3 -5 2 -10 -4 -10 -5 0 -13 5 -16 10 -3 6 -2 10 4 10 5 0 13 -4 16
-10z m155 6 c0 -2 -7 -7 -16 -10 -8 -3 -12 -2 -9 4 6 10 25 14 25 6z m245 -6
c3 -5 2 -10 -4 -10 -5 0 -13 5 -16 10 -3 6 -2 10 4 10 5 0 13 -4 16 -10z m150
0 c-3 -5 -11 -10 -16 -10 -6 0 -7 5 -4 10 3 6 11 10 16 10 6 0 7 -4 4 -10z
m400 0 c-3 -5 -11 -10 -16 -10 -6 0 -7 5 -4 10 3 6 11 10 16 10 6 0 7 -4 4
-10z m-1318 -52 c-2 -13 -4 -5 -4 17 -1 22 1 32 4 23 2 -10 2 -28 0 -40z m400
30 c-3 -8 -6 -5 -6 6 -1 11 2 17 5 13 3 -3 4 -12 1 -19z m478 13 c3 -5 2 -12
-3 -15 -5 -3 -9 1 -9 9 0 17 3 19 12 6z m-1205 -16 c-7 -8 -17 -15 -22 -15 -6
0 -5 7 2 15 7 8 17 15 22 15 6 0 5 -7 -2 -15z m405 5 c-3 -5 -11 -10 -16 -10
-6 0 -7 5 -4 10 3 6 11 10 16 10 6 0 7 -4 4 -10z m379 -15 c-23 -17 -31 -18
-39 -5 -3 6 3 10 14 10 11 0 23 5 26 11 4 6 10 8 13 5 3 -4 -3 -13 -14 -21z
m346 15 c0 -5 -2 -10 -4 -10 -3 0 -8 5 -11 10 -3 6 -1 10 4 10 6 0 11 -4 11
-10z m400 0 c0 -5 -2 -10 -4 -10 -3 0 -8 5 -11 10 -3 6 -1 10 4 10 6 0 11 -4
11 -10z m411 -7 c13 -15 12 -15 -8 -4 -24 12 -29 21 -14 21 5 0 15 -7 22 -17z
m-1581 -18 c0 -8 -2 -15 -4 -15 -2 0 -6 7 -10 15 -3 8 -1 15 4 15 6 0 10 -7
10 -15z m812 3 c-9 -9 -15 -9 -24 0 -9 9 -7 12 12 12 19 0 21 -3 12 -12z m398
2 c0 -5 -4 -10 -9 -10 -6 0 -13 5 -16 10 -3 6 1 10 9 10 9 0 16 -4 16 -10z
m-843 -22 c-3 -8 -6 -5 -6 6 -1 11 2 17 5 13 3 -3 4 -12 1 -19z m-700 -20 c-3
-8 -6 -5 -6 6 -1 11 2 17 5 13 3 -3 4 -12 1 -19z m306 -50 c-10 -18 -20 -6
-15 19 5 24 6 25 12 8 4 -11 6 -23 3 -27z m31 27 c3 -8 1 -15 -4 -15 -6 0 -10
7 -10 15 0 8 2 15 4 15 2 0 6 -7 10 -15z m368 -33 c-2 -7 -7 -11 -10 -8 -2 3
-14 1 -26 -5 -19 -9 -19 -8 2 7 12 9 22 26 23 38 0 20 1 20 8 1 5 -11 6 -26 3
-33z m401 23 c4 -8 2 -17 -3 -20 -6 -4 -10 3 -10 14 0 25 6 27 13 6z m437 5
c0 -5 -5 -10 -11 -10 -5 0 -7 5 -4 10 3 6 8 10 11 10 2 0 4 -4 4 -10z m-1575
-20 c3 -5 1 -10 -4 -10 -6 0 -11 5 -11 10 0 6 2 10 4 10 3 0 8 -4 11 -10z
m805 0 c0 -5 -2 -10 -4 -10 -3 0 -8 5 -11 10 -3 6 -1 10 4 10 6 0 11 -4 11
-10z m420 -11 l25 -20 -32 16 c-18 8 -33 18 -33 20 0 10 16 4 40 -16z m320 17
c0 -3 -4 -8 -10 -11 -5 -3 -10 -1 -10 4 0 6 5 11 10 11 6 0 10 -2 10 -4z m61
-17 c-2 -8 -3 -22 -3 -33 2 -31 -10 -9 -12 23 -1 19 2 30 8 27 6 -2 9 -10 7
-17z m-1560 -16 c13 -15 12 -15 -8 -4 -24 12 -29 21 -14 21 5 0 15 -7 22 -17z
m246 -15 c-3 -7 -5 -2 -5 12 0 14 2 19 5 13 2 -7 2 -19 0 -25z m148 22 c3 -5
2 -10 -4 -10 -5 0 -13 5 -16 10 -3 6 -2 10 4 10 5 0 13 -4 16 -10z m400 0 c3
-5 2 -10 -4 -10 -5 0 -13 5 -16 10 -3 6 -2 10 4 10 5 0 13 -4 16 -10z m275 6
c0 -2 -7 -7 -16 -10 -8 -3 -12 -2 -9 4 6 10 25 14 25 6z m395 -6 c-3 -5 -11
-10 -16 -10 -6 0 -7 5 -4 10 3 6 11 10 16 10 6 0 7 -4 4 -10z m400 0 c-3 -5
-11 -10 -16 -10 -6 0 -7 5 -4 10 3 6 11 10 16 10 6 0 7 -4 4 -10z m-1572 -36
c5 -27 3 -33 -16 -38 -16 -4 -19 -8 -10 -17 8 -8 18 -6 37 6 14 10 26 13 26 9
0 -5 -12 -14 -26 -21 -20 -9 -30 -9 -45 0 -10 6 -19 16 -19 21 0 5 3 6 7 3 12
-13 33 16 33 46 0 37 5 33 13 -9z m58 15 l24 -20 -25 13 c-14 7 -28 11 -32 10
-5 -1 -8 3 -8 8 0 16 16 12 41 -11z m390 11 c10 -6 19 -15 19 -21 0 -6 -7 -4
-15 5 -9 8 -23 12 -32 9 -11 -4 -14 -3 -9 5 9 15 12 15 37 2z m404 -4 c18 -13
18 -14 -8 -9 -15 3 -27 9 -27 14 0 13 13 11 35 -5z m-1184 -13 c13 -15 12 -15
-8 -4 -24 12 -29 21 -14 21 5 0 15 -7 22 -17z m757 -45 c7 1 12 -2 12 -8 0
-13 -11 -12 -32 4 -10 7 -18 26 -17 42 0 29 0 29 13 -6 6 -19 17 -34 24 -32z
m782 47 c-7 -9 -15 -13 -17 -11 -7 7 7 26 19 26 6 0 6 -6 -2 -15z m400 0 c-7
-8 -17 -15 -22 -15 -6 0 -5 7 2 15 7 8 17 15 22 15 6 0 5 -7 -2 -15z m-1913
-17 c-3 -8 -6 -5 -6 6 -1 11 2 17 5 13 3 -3 4 -12 1 -19z m673 -3 c-7 -8 -18
-15 -24 -15 -6 0 -2 7 8 15 25 19 32 19 16 0z m140 0 c7 -8 8 -15 2 -15 -5 0
-15 7 -22 15 -7 8 -8 15 -2 15 5 0 15 -7 22 -15z m260 0 c-7 -8 -18 -15 -24
-15 -6 0 -2 7 8 15 25 19 32 19 16 0z m535 -3 c-3 -3 -11 0 -18 7 -9 10 -8 11
6 5 10 -3 15 -9 12 -12z m-1345 -2 c0 -5 -5 -10 -11 -10 -5 0 -7 5 -4 10 3 6
8 10 11 10 2 0 4 -4 4 -10z m96 -5 c10 -8 15 -14 9 -14 -5 0 -19 6 -29 14 -11
8 -15 15 -10 15 6 0 19 -7 30 -15z m59 -3 c-3 -3 -11 0 -18 7 -9 10 -8 11 6 5
10 -3 15 -9 12 -12z m341 3 c10 -8 15 -14 9 -14 -5 0 -19 6 -29 14 -11 8 -15
15 -10 15 6 0 19 -7 30 -15z m413 -1 c5 -5 -30 -33 -41 -34 -5 0 -8 5 -8 11 0
5 4 8 9 4 5 -3 12 -1 16 4 3 5 -3 15 -12 21 -15 9 -14 10 7 4 14 -3 27 -8 29
-10z m46 6 c3 -5 2 -10 -4 -10 -5 0 -13 5 -16 10 -3 6 -2 10 4 10 5 0 13 -4
16 -10z m250 0 c-3 -5 -11 -10 -16 -10 -6 0 -7 5 -4 10 3 6 11 10 16 10 6 0 7
-4 4 -10z m59 -5 c-10 -8 -23 -14 -29 -14 -5 0 -1 6 9 14 11 8 24 15 30 15 5
0 1 -7 -10 -15z m-1559 -5 c3 -5 2 -10 -4 -10 -5 0 -13 5 -16 10 -3 6 -2 10 4
10 5 0 13 -4 16 -10z m1145 0 c0 -5 -4 -10 -10 -10 -5 0 -10 5 -10 10 0 6 5
10 10 10 6 0 10 -4 10 -10z m460 0 c0 -5 -4 -10 -10 -10 -5 0 -10 5 -10 10 0
6 5 10 10 10 6 0 10 -4 10 -10z m345 0 c-3 -5 -11 -10 -16 -10 -6 0 -7 5 -4
10 3 6 11 10 16 10 6 0 7 -4 4 -10z m-1915 -20 c0 -5 -5 -10 -11 -10 -6 0 -9
-6 -6 -12 3 -8 -4 -13 -18 -13 -14 0 -21 5 -18 12 3 7 9 10 14 7 5 -3 12 2 15
10 7 18 24 22 24 6z m163 -6 c20 -8 23 -24 3 -24 -8 0 -17 7 -20 16 -4 9 -13
14 -22 10 -9 -3 -12 -2 -9 5 4 5 12 8 18 5 7 -4 20 -9 30 -12z m248 -1 c13
-15 12 -15 -8 -4 -24 12 -29 21 -14 21 5 0 15 -7 22 -17z m133 9 c2 -4 -4 -8
-14 -8 -10 0 -16 4 -14 8 3 4 9 8 14 8 5 0 11 -4 14 -8z m131 -1 c-3 -6 3 -14
12 -20 10 -6 14 -10 8 -10 -16 0 -45 25 -38 32 10 11 25 8 18 -2z m135 -6 c11
-13 10 -14 -4 -9 -9 3 -16 10 -16 15 0 13 6 11 20 -6z m134 7 c2 -4 -4 -8 -14
-8 -10 0 -16 4 -14 8 3 4 9 8 14 8 5 0 11 -4 14 -8z m134 -4 c-2 -7 5 -12 16
-11 13 1 15 -2 7 -10 -7 -7 -15 -7 -25 2 -8 7 -21 9 -28 5 -10 -6 -9 -3 1 9
16 20 32 22 29 5z m142 -9 l25 -20 -32 16 c-18 8 -33 18 -33 20 0 10 16 4 40
-16z m125 11 c3 -6 -1 -7 -9 -4 -9 4 -18 -1 -22 -10 -3 -9 -12 -16 -20 -16
-21 0 -17 14 9 26 30 15 35 16 42 4z m135 5 c0 -2 -10 -10 -22 -16 -21 -11
-22 -11 -9 4 13 16 31 23 31 12z m60 -5 c0 -5 -4 -10 -10 -10 -5 0 -10 5 -10
10 0 6 5 10 10 10 6 0 10 -4 10 -10z m80 -11 c24 -19 24 -20 2 -9 -18 9 -27 8
-38 -1 -11 -9 -18 -9 -25 -2 -8 8 -6 11 7 10 11 -1 18 4 17 11 -4 17 8 15 37
-9z m125 11 c3 -6 -1 -7 -9 -4 -18 7 -21 14 -7 14 6 0 13 -4 16 -10z m135 5
c0 -2 -10 -10 -22 -16 -21 -11 -22 -11 -9 4 13 16 31 23 31 12z m-1780 -25 c0
-5 -4 -10 -10 -10 -5 0 -10 5 -10 10 0 6 5 10 10 10 6 0 10 -4 10 -10z m400 0
c0 -5 -4 -10 -10 -10 -5 0 -10 5 -10 10 0 6 5 10 10 10 6 0 10 -4 10 -10z m80
2 c0 -5 -7 -9 -15 -9 -8 0 -12 4 -9 9 3 4 9 8 15 8 5 0 9 -4 9 -8z m40 -12
c-24 -19 -40 -25 -40 -15 0 5 51 34 60 34 3 0 -6 -8 -20 -19z m280 10 c0 -5
-4 -10 -10 -10 -5 0 -10 5 -10 10 0 6 5 10 10 10 6 0 10 -4 10 -10z m80 -1 c0
-5 -4 -8 -9 -5 -5 3 -14 -1 -21 -9 -7 -8 -17 -15 -22 -15 -11 0 33 39 45 40 4
0 7 -5 7 -11z m210 -15 c0 -2 -9 0 -20 6 -11 6 -20 13 -20 16 0 2 9 0 20 -6
11 -6 20 -13 20 -16z m190 18 c0 -5 -7 -9 -15 -9 -8 0 -12 4 -9 9 3 4 9 8 15
8 5 0 9 -4 9 -8z m125 -2 c-3 -5 -12 -10 -18 -10 -7 0 -6 4 3 10 19 12 23 12
15 0z m199 2 c3 -5 -1 -9 -9 -9 -8 0 -15 4 -15 9 0 4 4 8 9 8 6 0 12 -4 15 -8z
m76 4 c0 -3 -4 -8 -10 -11 -5 -3 -10 -1 -10 4 0 6 5 11 10 11 6 0 10 -2 10 -4z
m-1710 -27 c0 -14 -16 -11 -29 5 -10 12 -8 13 8 9 12 -3 21 -9 21 -14z m314
13 c3 -5 -5 -8 -17 -8 -12 1 -21 -4 -20 -11 2 -7 -4 -10 -12 -6 -13 5 -13 7 2
19 21 15 40 18 47 6z m401 -2 c3 -6 -1 -7 -9 -4 -18 7 -21 14 -7 14 6 0 13 -4
16 -10z m-645 -12 c0 -4 -4 -8 -9 -8 -6 0 -12 4 -15 8 -3 5 1 9 9 9 8 0 15 -4
15 -9z m70 7 c0 -2 -13 -11 -30 -20 -16 -9 -30 -12 -30 -8 0 5 10 13 23 19 25
13 37 16 37 9z m260 -5 c0 -5 -4 -10 -10 -10 -5 0 -10 5 -10 10 0 6 5 10 10
10 6 0 10 -4 10 -10z m70 -2 c0 -4 -4 -8 -9 -8 -6 0 -12 4 -15 8 -3 5 1 9 9 9
8 0 15 -4 15 -9z m207 -2 c0 -8 -6 -12 -15 -9 -11 5 -11 7 0 14 7 5 13 9 14 9
0 0 1 -6 1 -14z m123 4 c0 -5 -2 -10 -4 -10 -3 0 -8 5 -11 10 -3 6 -1 10 4 10
6 0 11 -4 11 -10z m120 -10 c-27 -21 -40 -25 -40 -12 0 8 38 29 55 31 6 0 -1
-8 -15 -19z m157 5 c0 -6 -8 -11 -17 -11 -9 0 -17 5 -17 11 0 6 8 11 17 11 9
0 17 -5 17 -11z m128 5 c3 -5 2 -10 -4 -10 -5 0 -13 5 -16 10 -3 6 -2 10 4 10
5 0 13 -4 16 -10z m65 0 c0 -5 -5 -10 -11 -10 -5 0 -7 5 -4 10 3 6 8 10 11 10
2 0 4 -4 4 -10z m50 -10 c-27 -21 -40 -25 -40 -12 0 8 38 29 55 31 6 0 -1 -8
-15 -19z m160 13 c0 -1 -8 -7 -18 -12 -13 -7 -19 -6 -19 2 0 7 9 13 19 13 10
0 18 -1 18 -3z m143 -9 c9 -4 17 -10 17 -15 0 -5 -13 -3 -30 6 -28 15 -44 33
-17 21 6 -3 20 -9 30 -12z m42 6 c3 -5 1 -10 -4 -10 -6 0 -11 5 -11 10 0 6 2
10 4 10 3 0 8 -4 11 -10z m75 0 c0 -5 -4 -10 -10 -10 -5 0 -10 5 -10 10 0 6 5
10 10 10 6 0 10 -4 10 -10z m-1700 -19 c0 -17 -18 -21 -24 -6 -3 9 0 15 9 15
8 0 15 -4 15 -9z m400 0 c0 -17 -18 -21 -24 -6 -3 9 0 15 9 15 8 0 15 -4 15
-9z m60 -1 c0 -5 -4 -10 -10 -10 -5 0 -10 5 -10 10 0 6 5 10 10 10 6 0 10 -4
10 -10z m340 0 c0 -5 -4 -10 -9 -10 -6 0 -13 5 -16 10 -3 6 1 10 9 10 9 0 16
-4 16 -10z m400 0 c0 -5 -4 -10 -10 -10 -5 0 -10 5 -10 10 0 6 5 10 10 10 6 0
10 -4 10 -10z m450 -9 c-13 -11 -29 -17 -35 -13 -6 4 -2 8 8 10 9 2 17 8 17
13 0 5 8 9 18 9 14 0 12 -4 -8 -19z m-1550 -6 c-7 -9 -15 -13 -19 -10 -3 3 1
10 9 15 21 14 24 12 10 -5z m410 10 c0 -2 -10 -10 -22 -16 -21 -11 -22 -11 -9
4 13 16 31 23 31 12z m390 -4 c0 -5 -7 -12 -16 -15 -14 -5 -15 -4 -4 9 14 17
20 19 20 6z m797 -13 c-3 -8 -6 -5 -6 6 -1 11 2 17 5 13 3 -3 4 -12 1 -19z
m-1667 8 c0 -3 -4 -8 -10 -11 -5 -3 -10 -1 -10 4 0 6 5 11 10 11 6 0 10 -2 10
-4z m335 -14 c-3 -3 -11 0 -18 7 -9 10 -8 11 6 5 10 -3 15 -9 12 -12z m65 14
c0 -3 -4 -8 -10 -11 -5 -3 -10 -1 -10 4 0 6 5 11 10 11 6 0 10 -2 10 -4z m335
-6 c3 -5 2 -10 -4 -10 -5 0 -13 5 -16 10 -3 6 -2 10 4 10 5 0 13 -4 16 -10z
m400 0 c3 -5 2 -10 -4 -10 -5 0 -13 5 -16 10 -3 6 -2 10 4 10 5 0 13 -4 16
-10z m65 0 c0 -5 -2 -10 -4 -10 -3 0 -8 5 -11 10 -3 6 -1 10 4 10 6 0 11 -4
11 -10z m335 0 c3 -5 2 -10 -4 -10 -5 0 -13 5 -16 10 -3 6 -2 10 4 10 5 0 13
-4 16 -10z m-1571 -31 c-3 -6 -7 -9 -8 -7 -1 2 -8 12 -16 22 -14 18 -14 19 8
7 12 -7 20 -17 16 -22z m151 21 c-3 -5 -12 -10 -18 -10 -7 0 -6 4 3 10 19 12
23 12 15 0z m1523 -10 c-7 -11 -15 -15 -17 -9 -2 6 3 15 10 20 20 12 21 11 7
-11z m-1608 6 c0 -3 -4 -8 -10 -11 -5 -3 -10 -1 -10 4 0 6 5 11 10 11 6 0 10
-2 10 -4z m333 -27 c-4 -15 0 -22 16 -26 11 -3 18 -9 15 -15 -3 -5 -12 -4 -20
3 -11 9 -14 8 -15 -7 -1 -14 -3 -12 -8 6 -8 29 -2 72 9 65 5 -3 6 -14 3 -26z
m467 19 c0 -7 -12 -14 -27 -15 l-28 -1 25 14 c31 17 30 17 30 2z m400 2 c0 -5
-5 -10 -11 -10 -5 0 -7 5 -4 10 3 6 8 10 11 10 2 0 4 -4 4 -10z m364 -3 c3 3
6 1 6 -5 0 -16 -12 -15 -36 4 -18 15 -18 15 2 5 12 -6 24 -7 28 -4z m-1601
-22 c-7 -21 -13 -19 -13 6 0 11 4 18 10 14 5 -3 7 -12 3 -20z m1207 15 c0 -5
-5 -10 -11 -10 -5 0 -7 5 -4 10 3 6 8 10 11 10 2 0 4 -4 4 -10z m-1275 -10 c3
-5 2 -10 -4 -10 -5 0 -13 5 -16 10 -3 6 -2 10 4 10 5 0 13 -4 16 -10z m145 6
c0 -3 -4 -8 -10 -11 -5 -3 -10 -1 -10 4 0 6 5 11 10 11 6 0 10 -2 10 -4z m400
0 c0 -3 -4 -8 -10 -11 -5 -3 -10 -1 -10 4 0 6 5 11 10 11 6 0 10 -2 10 -4z
m1200 -6 c0 -5 -5 -10 -11 -10 -5 0 -7 5 -4 10 3 6 8 10 11 10 2 0 4 -4 4 -10z
m-435 -21 c-10 -15 -25 -10 -19 6 4 8 10 12 15 9 5 -3 7 -10 4 -15z m-1275 -4
c0 -8 -2 -15 -4 -15 -2 0 -6 7 -10 15 -3 8 -1 15 4 15 6 0 10 -7 10 -15z m470
5 c0 -5 -5 -10 -11 -10 -5 0 -7 5 -4 10 3 6 8 10 11 10 2 0 4 -4 4 -10z m335
0 c3 -5 2 -10 -4 -10 -5 0 -13 5 -16 10 -3 6 -2 10 4 10 5 0 13 -4 16 -10z
m70 0 c-3 -5 -11 -10 -16 -10 -6 0 -7 5 -4 10 3 6 11 10 16 10 6 0 7 -4 4 -10z
m330 0 c3 -5 2 -10 -4 -10 -5 0 -13 5 -16 10 -3 6 -2 10 4 10 5 0 13 -4 16
-10z m400 0 c3 -5 2 -10 -4 -10 -5 0 -13 5 -16 10 -3 6 -2 10 4 10 5 0 13 -4
16 -10z m67 -15 c-2 -14 -6 -25 -8 -25 -2 0 -4 11 -4 25 0 14 4 25 9 25 4 0 6
-11 3 -25z m-1632 1 c0 -11 -19 -15 -25 -6 -3 5 1 10 9 10 9 0 16 -2 16 -4z
m800 0 c0 -3 -4 -8 -10 -11 -5 -3 -10 -1 -10 4 0 6 5 11 10 11 6 0 10 -2 10
-4z m810 0 c0 -11 -19 -15 -25 -6 -3 5 1 10 9 10 9 0 16 -2 16 -4z m-383 -58
c-2 -13 -4 -5 -4 17 -1 22 1 32 4 23 2 -10 2 -28 0 -40z m-400 10 c-3 -7 -5
-2 -5 12 0 14 2 19 5 13 2 -7 2 -19 0 -25z m-870 -45 c-3 -10 -5 -4 -5 12 0
17 2 24 5 18 2 -7 2 -21 0 -30z m37 22 c3 -9 0 -15 -9 -15 -9 0 -12 6 -9 15 4
8 7 15 9 15 2 0 5 -7 9 -15z m1637 -55 c-5 -24 -5 -24 -11 5 -3 17 -4 39 -1
50 4 18 5 17 11 -5 3 -14 4 -36 1 -50z m-1257 49 c4 6 12 9 17 5 6 -3 -2 -12
-16 -20 -35 -18 -34 -18 -28 7 4 14 8 17 13 9 6 -9 9 -9 14 -1z m401 -15 c-38
-20 -45 -17 -15 5 13 11 28 17 33 14 5 -3 -4 -11 -18 -19z m825 19 c0 -9 -52
-35 -58 -29 -2 3 9 11 25 20 33 18 33 18 33 9z m-1170 -23 c0 -5 -2 -10 -4
-10 -3 0 -8 5 -11 10 -3 6 -1 10 4 10 6 0 11 -4 11 -10z m400 0 c0 -5 -2 -10
-4 -10 -3 0 -8 5 -11 10 -3 6 -1 10 4 10 6 0 11 -4 11 -10z m335 0 c-3 -5 -11
-10 -16 -10 -6 0 -7 5 -4 10 3 6 11 10 16 10 6 0 7 -4 4 -10z m66 -3 c-1 -4
-1 -17 -1 -29 0 -12 -3 -18 -7 -15 -10 10 -10 58 0 54 5 -1 8 -6 8 -10z
m-1306 -6 c3 -5 1 -12 -5 -16 -5 -3 -10 1 -10 9 0 18 6 21 15 7z m1697 -62
c16 -13 17 -16 4 -16 -9 0 -16 4 -16 9 0 4 -6 8 -13 8 -8 0 -12 11 -11 28 4
44 7 49 11 17 2 -16 14 -37 25 -46z m-1557 51 c3 -5 1 -10 -4 -10 -6 0 -11 5
-11 10 0 6 2 10 4 10 3 0 8 -4 11 -10z m260 0 c-3 -5 -11 -10 -16 -10 -6 0 -7
5 -4 10 3 6 11 10 16 10 6 0 7 -4 4 -10z m405 6 c0 -3 -4 -8 -10 -11 -5 -3
-10 -1 -10 4 0 6 5 11 10 11 6 0 10 -2 10 -4z m540 -11 c0 -8 -2 -15 -4 -15
-2 0 -6 7 -10 15 -3 8 -1 15 4 15 6 0 10 -7 10 -15z m405 5 c3 -5 2 -10 -4
-10 -5 0 -13 5 -16 10 -3 6 -2 10 4 10 5 0 13 -4 16 -10z m-1659 -15 c10 -8
14 -15 7 -15 -6 0 -15 5 -18 10 -4 6 -11 8 -16 5 -5 -4 -9 -1 -9 4 0 15 13 14
36 -4z m349 5 c3 -5 -9 -17 -27 -26 l-33 -17 25 26 c30 30 28 29 35 17z m461
1 c-3 -4 6 -13 21 -20 14 -6 23 -14 20 -17 -8 -9 -58 27 -51 37 3 5 7 9 10 9
3 0 3 -4 0 -9z m373 5 c-2 -2 -15 -9 -29 -15 -24 -11 -24 -11 -6 3 16 13 49
24 35 12z m-1239 -19 c0 -8 -7 -14 -15 -14 -11 0 -12 4 -4 14 6 7 13 13 15 13
2 0 4 -6 4 -13z m468 -12 c-3 -3 -9 2 -12 12 -6 14 -5 15 5 6 7 -7 10 -15 7
-18z m342 21 c0 -3 -4 -8 -10 -11 -5 -3 -10 -1 -10 4 0 6 5 11 10 11 6 0 10
-2 10 -4z m-853 -38 c-3 -8 -6 -5 -6 6 -1 11 2 17 5 13 3 -3 4 -12 1 -19z m73
4 c-8 -3 -18 -10 -22 -16 -4 -6 -10 -7 -14 -3 -10 10 28 37 40 29 6 -3 3 -8
-4 -10z m70 8 c0 -5 -2 -10 -4 -10 -3 0 -8 5 -11 10 -3 6 -1 10 4 10 6 0 11
-4 11 -10z m411 -7 c13 -15 12 -15 -8 -4 -24 12 -29 21 -14 21 5 0 15 -7 22
-17z m669 12 c0 -2 -10 -10 -22 -16 -21 -11 -22 -11 -9 4 13 16 31 23 31 12z
m60 -5 c0 -5 -5 -10 -11 -10 -5 0 -7 5 -4 10 3 6 8 10 11 10 2 0 4 -4 4 -10z
m340 5 c0 -2 -10 -10 -22 -16 -21 -11 -22 -11 -9 4 13 16 31 23 31 12z m130
-12 c0 -10 -4 -14 -8 -8 -4 6 -11 13 -16 18 -5 4 -2 7 7 7 10 0 17 -8 17 -17z
m-1282 0 c-10 -2 -18 -8 -18 -12 0 -4 -6 -8 -14 -8 -26 0 -6 23 22 24 15 0 19
-1 10 -4z m-363 -13 c3 -5 1 -10 -4 -10 -6 0 -11 5 -11 10 0 6 2 10 4 10 3 0
8 -4 11 -10z m405 0 c0 -5 -4 -10 -10 -10 -5 0 -10 5 -10 10 0 6 5 10 10 10 6
0 10 -4 10 -10z m340 1 c0 -5 -8 -11 -17 -15 -10 -3 -29 -10 -43 -16 -28 -13
-21 -4 17 21 32 20 43 23 43 10z m60 -1 c0 -5 -4 -10 -10 -10 -5 0 -10 5 -10
10 0 6 5 10 10 10 6 0 10 -4 10 -10z m340 0 c0 -5 -7 -10 -16 -10 -8 0 -12 5
-9 10 3 6 10 10 16 10 5 0 9 -4 9 -10z m65 0 c3 -5 -1 -10 -9 -10 -9 0 -16 5
-16 10 0 6 4 10 9 10 6 0 13 -4 16 -10z m335 3 c0 -9 -52 -35 -58 -29 -2 3 9
11 25 20 33 18 33 18 33 9z m-1363 -18 c0 -6 -8 -11 -17 -11 -9 0 -17 5 -17
11 0 6 8 11 17 11 9 0 17 -5 17 -11z m400 0 c0 -6 -8 -11 -17 -11 -9 0 -17 5
-17 11 0 6 8 11 17 11 9 0 17 -5 17 -11z m400 -2 c0 -8 -6 -9 -19 -2 -10 5
-18 11 -18 12 0 2 8 3 18 3 10 0 19 -6 19 -13z m393 2 c0 -2 -6 -5 -13 -8 -8
-3 -14 1 -14 8 0 7 6 11 14 8 7 -3 13 -6 13 -8z m-1470 -4 c0 -5 -9 -11 -21
-14 -16 -4 -18 -3 -8 9 13 16 29 19 29 5z m70 5 c0 -2 -7 -7 -16 -10 -8 -3
-12 -2 -9 4 6 10 25 14 25 6z m65 -6 c3 -5 2 -10 -4 -10 -5 0 -13 5 -16 10 -3
6 -2 10 4 10 5 0 13 -4 16 -10z m265 0 c0 -5 -4 -10 -10 -10 -5 0 -10 5 -10
10 0 6 5 10 10 10 6 0 10 -4 10 -10z m135 0 c3 -5 2 -10 -4 -10 -5 0 -13 5
-16 10 -3 6 -2 10 4 10 5 0 13 -4 16 -10z m335 6 c0 -2 -7 -7 -16 -10 -8 -3
-12 -2 -9 4 6 10 25 14 25 6z m65 -6 c3 -5 2 -10 -4 -10 -5 0 -13 5 -16 10 -3
6 -2 10 4 10 5 0 13 -4 16 -10z m265 0 c0 -5 -5 -10 -11 -10 -5 0 -7 5 -4 10
3 6 8 10 11 10 2 0 4 -4 4 -10z m135 0 c3 -5 1 -10 -4 -10 -6 0 -11 5 -11 10
0 6 2 10 4 10 3 0 8 -4 11 -10z m340 0 c3 -6 -1 -7 -9 -4 -18 7 -21 14 -7 14
6 0 13 -4 16 -10z m74 -4 c10 -12 9 -13 -7 -9 -11 2 -23 0 -26 -6 -9 -14 -26
-14 -26 0 0 5 5 7 10 4 6 -3 13 1 16 9 8 20 18 20 33 2z m-1434 -6 c-3 -5 -12
-10 -18 -10 -7 0 -6 4 3 10 19 12 23 12 15 0z m325 -15 c0 -2 -6 -2 -14 1 -8
3 -17 0 -21 -6 -4 -7 2 -14 14 -17 12 -3 21 -9 21 -14 0 -14 -13 -10 -39 10
-21 16 -21 19 -7 24 10 4 14 12 10 18 -4 8 0 8 15 0 11 -7 21 -14 21 -16z m80
20 c0 -2 -10 -9 -22 -15 -22 -11 -22 -10 -4 4 21 17 26 19 26 11z m320 -19 c0
-2 -8 -3 -17 -2 -10 0 -17 -5 -15 -12 2 -10 -2 -10 -18 -2 -25 13 -25 18 -2
16 9 0 16 5 14 12 -2 10 2 10 18 2 11 -6 20 -12 20 -14z m385 6 c-3 -3 -11 0
-18 7 -9 10 -8 11 6 5 10 -3 15 -9 12 -12z m90 8 c-3 -6 1 -13 9 -16 9 -3 13
-10 10 -15 -8 -13 -24 -11 -21 4 1 7 -7 11 -18 10 -20 -1 -20 -1 -1 13 23 17
30 18 21 4z m-1485 -10 c0 -5 -5 -10 -11 -10 -5 0 -7 5 -4 10 3 6 8 10 11 10
2 0 4 -4 4 -10z m80 0 c0 -5 -7 -10 -16 -10 -8 0 -12 5 -9 10 3 6 10 10 16 10
5 0 9 -4 9 -10z m125 0 c3 -5 0 -7 -8 -4 -8 3 -18 1 -22 -5 -9 -16 24 -26 38
-12 14 14 27 14 27 0 0 -5 -4 -8 -9 -4 -6 3 -14 -2 -20 -12 -9 -17 -10 -17
-30 1 -12 11 -21 15 -21 11 0 -5 -3 -5 -7 -2 -3 4 2 14 13 22 23 17 31 18 39
5z m195 0 c0 -5 -5 -10 -11 -10 -5 0 -7 5 -4 10 3 6 8 10 11 10 2 0 4 -4 4
-10z m80 0 c0 -5 -7 -10 -15 -10 -8 0 -15 5 -15 10 0 6 7 10 15 10 8 0 15 -4
15 -10z m330 -5 c7 -9 20 -13 29 -10 11 4 13 3 5 -4 -11 -12 -64 7 -64 22 0
12 17 8 30 -8z m70 3 c0 -4 -4 -8 -9 -8 -6 0 -12 4 -15 8 -3 5 1 9 9 9 8 0 15
-4 15 -9z m205 1 c4 -6 14 -8 22 -4 13 4 14 3 3 -10 -15 -18 -31 -20 -27 -2 1
6 -6 11 -15 11 -10 -1 -15 2 -12 7 7 12 21 11 29 -2z m125 1 c0 -5 -7 -10 -15
-10 -8 0 -15 5 -15 10 0 6 7 10 15 10 8 0 15 -4 15 -10z m70 0 c0 -5 -4 -10
-10 -10 -5 0 -10 5 -10 10 0 6 5 10 10 10 6 0 10 -4 10 -10z m325 0 c-3 -5
-10 -10 -16 -10 -5 0 -9 5 -9 10 0 6 7 10 16 10 8 0 12 -4 9 -10z m-1295 -15
c-7 -8 -18 -15 -24 -15 -6 0 -2 7 8 15 25 19 32 19 16 0z m400 0 c-7 -9 -15
-13 -19 -10 -3 3 1 10 9 15 21 14 24 12 10 -5z m666 -13 c-4 -3 -14 2 -24 12
-16 18 -16 18 6 6 13 -6 21 -14 18 -18z m442 -18 c-6 -6 -66 25 -74 37 -3 6
13 1 36 -11 23 -12 40 -23 38 -26z m-1918 26 c0 -5 -5 -10 -11 -10 -5 0 -7 5
-4 10 3 6 8 10 11 10 2 0 4 -4 4 -10z m150 -16 c0 -2 -9 0 -20 6 -11 6 -20 13
-20 16 0 2 9 0 20 -6 11 -6 20 -13 20 -16z m390 16 c0 -5 -5 -10 -11 -10 -5 0
-7 5 -4 10 3 6 8 10 11 10 2 0 4 -4 4 -10z m200 0 c0 -5 -2 -10 -4 -10 -3 0
-8 5 -11 10 -3 6 -1 10 4 10 6 0 11 -4 11 -10z m610 5 c0 -2 -10 -9 -22 -15
-22 -11 -22 -10 -4 4 21 17 26 19 26 11z m204 -10 c11 -8 16 -18 12 -22 -4 -4
-12 0 -17 10 -6 9 -14 15 -20 12 -5 -4 -9 -1 -9 4 0 15 11 13 34 -4z m191 5
c-3 -5 -12 -10 -18 -10 -7 0 -6 4 3 10 19 12 23 12 15 0z m-1780 -20 c-3 -5
-11 -10 -16 -10 -6 0 -7 5 -4 10 3 6 11 10 16 10 6 0 7 -4 4 -10z m391 -5
c-11 -8 -24 -15 -30 -15 -5 0 -1 7 10 15 10 8 24 14 29 14 6 0 1 -6 -9 -14z
m400 0 c-11 -8 -24 -15 -30 -15 -5 0 -1 7 10 15 10 8 24 14 29 14 6 0 1 -6 -9
-14z m369 -2 c18 -14 18 -15 2 -9 -10 3 -23 6 -28 6 -5 0 -9 5 -9 10 0 14 12
12 35 -7z m45 1 c0 -8 -4 -12 -10 -9 -5 3 -10 10 -10 16 0 5 5 9 10 9 6 0 10
-7 10 -16z m354 1 c11 -8 15 -15 10 -15 -6 0 -19 7 -30 15 -10 8 -14 14 -9 14
6 0 19 -6 29 -14z m-1264 -5 c0 -5 -2 -10 -4 -10 -3 0 -8 5 -11 10 -3 6 -1 10
4 10 6 0 11 -4 11 -10z m405 0 c3 -5 2 -10 -4 -10 -5 0 -13 5 -16 10 -3 6 -2
10 4 10 5 0 13 -4 16 -10z m150 0 c-3 -5 -11 -10 -16 -10 -6 0 -7 5 -4 10 3 6
11 10 16 10 6 0 7 -4 4 -10z m256 -7 c13 -15 12 -15 -8 -4 -24 12 -29 21 -14
21 5 0 15 -7 22 -17z m139 8 c0 -5 -7 -12 -16 -15 -14 -5 -15 -4 -4 9 14 17
20 19 20 6z m255 -1 c3 -5 2 -10 -4 -10 -5 0 -13 5 -16 10 -3 6 -2 10 4 10 5
0 13 -4 16 -10z m145 1 c0 -5 -7 -12 -16 -15 -14 -5 -15 -4 -4 9 14 17 20 19
20 6z m258 -16 c-3 -3 -9 2 -12 12 -6 14 -5 15 5 6 7 -7 10 -15 7 -18z m-1898
-10 c-7 -9 -15 -13 -19 -10 -3 3 1 10 9 15 21 14 24 12 10 -5z m327 -17 c-3
-7 -5 -2 -5 12 0 14 2 19 5 13 2 -7 2 -19 0 -25z m433 -2 c0 -4 -6 -3 -13 3
-8 6 -17 8 -20 4 -4 -3 -7 1 -7 10 0 15 3 15 20 5 11 -7 20 -17 20 -22z m40
19 c-7 -8 -17 -15 -22 -15 -6 0 -5 7 2 15 7 8 17 15 22 15 6 0 5 -7 -2 -15z
m370 -17 c0 -12 -13 -9 -32 6 -26 19 -22 26 7 13 14 -7 25 -15 25 -19z m365
22 c3 -5 15 -10 26 -10 11 0 17 -4 14 -10 -6 -9 -65 14 -65 25 0 9 19 5 25 -5z
m62 -12 c-3 -8 -6 -5 -6 6 -1 11 2 17 5 13 3 -3 4 -12 1 -19z m343 0 c0 -6 -6
-5 -15 2 -8 7 -15 14 -15 16 0 2 7 1 15 -2 8 -4 15 -11 15 -16z m-1545 2 c-3
-5 -11 -10 -16 -10 -6 0 -7 5 -4 10 3 6 11 10 16 10 6 0 7 -4 4 -10z m55 -10
c-24 -19 -40 -25 -40 -15 0 5 51 34 60 34 3 0 -6 -8 -20 -19z m-415 -11 c-10
-15 -25 -10 -19 6 4 8 10 12 15 9 5 -3 7 -10 4 -15z m259 6 c3 -8 1 -15 -4
-15 -6 0 -10 7 -10 15 0 8 2 15 4 15 2 0 6 -7 10 -15z m66 5 c0 -5 -2 -10 -4
-10 -3 0 -8 5 -11 10 -3 6 -1 10 4 10 6 0 11 -4 11 -10z m345 -19 c-6 -5 -25
10 -25 20 0 5 6 4 14 -3 8 -7 12 -15 11 -17z m1201 1 c-4 -3 -14 2 -24 12 -16
18 -16 18 6 6 13 -6 21 -14 18 -18z m-1071 8 c-3 -5 -11 -10 -16 -10 -6 0 -7
5 -4 10 3 6 11 10 16 10 6 0 7 -4 4 -10z m270 0 c3 -5 2 -10 -4 -10 -5 0 -13
5 -16 10 -3 6 -2 10 4 10 5 0 13 -4 16 -10z m400 0 c3 -5 2 -10 -4 -10 -5 0
-13 5 -16 10 -3 6 -2 10 4 10 5 0 13 -4 16 -10z"/>
<path d="M787 1914 c-11 -11 3 -24 18 -18 8 4 12 10 9 15 -6 11 -18 12 -27 3z"/>
<path d="M1185 1220 c-8 -13 15 -24 27 -12 6 6 4 11 -6 15 -8 3 -18 2 -21 -3z"/>
<path d="M1591 1221 c-10 -7 -10 -10 -1 -16 6 -4 16 -3 22 3 13 13 -4 23 -21
13z"/>
<path d="M585 1141 c-7 -12 12 -24 25 -16 11 7 4 25 -10 25 -5 0 -11 -4 -15
-9z"/>
<path d="M1385 1141 c-7 -12 12 -24 25 -16 11 7 4 25 -10 25 -5 0 -11 -4 -15
-9z"/>
<path d="M185 871 c-7 -12 12 -24 25 -16 11 7 4 25 -10 25 -5 0 -11 -4 -15 -9z"/>
<path d="M585 871 c-7 -12 12 -24 25 -16 11 7 4 25 -10 25 -5 0 -11 -4 -15 -9z"/>
<path d="M985 871 c-7 -12 12 -24 25 -16 11 7 4 25 -10 25 -5 0 -11 -4 -15 -9z"/>
<path d="M1385 871 c-7 -12 12 -24 25 -16 11 7 4 25 -10 25 -5 0 -11 -4 -15
-9z"/>
</g>
</svg>
