<?xml version="1.0" standalone="no"?>
<!DOCTYPE svg PUBLIC "-//W3C//DTD SVG 20010904//EN"
 "http://www.w3.org/TR/2001/REC-SVG-20010904/DTD/svg10.dtd">
<svg version="1.0" xmlns="http://www.w3.org/2000/svg"
 width="200.000000pt" height="200.000000pt" viewBox="0 0 200.000000 200.000000"
 preserveAspectRatio="xMidYMid meet">
<metadata>
Created by potrace 1.16, written by Peter Selinger 2001-2019
</metadata>
<g transform="translate(0.000000,200.000000) scale(0.100000,-0.100000)"
fill="#000000" stroke="none">
<path d="M1 1863 c-1 -100 2 -139 11 -145 10 -6 10 -8 1 -8 -10 0 -13 -30 -13
-115 0 -63 3 -115 6 -115 4 0 29 14 56 30 26 17 51 30 55 30 3 0 21 11 38 25
l33 24 1 112 c2 103 0 111 -16 105 -15 -6 -15 -5 2 12 14 13 23 15 31 8 8 -7
9 -15 3 -22 -5 -7 -8 -60 -7 -118 l2 -107 78 -45 c43 -24 78 -47 78 -50 0 -3
-15 3 -32 14 -123 74 -126 75 -155 59 -36 -18 -99 -53 -140 -79 l-33 -20 1
-106 c1 -63 6 -111 13 -117 15 -14 60 -42 127 -81 l56 -31 81 46 c121 71 114
59 110 175 -2 56 -8 110 -13 120 -7 16 -5 18 8 13 9 -3 17 -3 17 1 0 4 8 8 19
8 11 0 17 -6 14 -13 -3 -7 -10 -11 -16 -10 -9 1 -12 -31 -13 -108 -2 -125 -6
-141 -39 -149 -13 -3 -30 -12 -37 -19 -8 -6 -39 -25 -71 -42 -57 -29 -66 -38
-47 -50 12 -7 4 -25 -11 -25 -5 0 -9 10 -9 23 0 18 -16 32 -77 68 -109 62
-113 63 -113 34 0 -14 5 -25 11 -25 8 0 7 -6 -2 -17 -11 -13 -11 -17 -1 -20 6
-3 12 -9 12 -14 0 -6 -4 -7 -10 -4 -6 4 -10 -11 -10 -39 0 -39 3 -45 18 -39
14 5 13 3 -3 -10 -16 -13 -18 -19 -9 -34 8 -13 8 -23 0 -36 -8 -12 -7 -22 2
-38 8 -12 9 -18 3 -14 -7 4 -11 -7 -11 -30 0 -26 3 -34 13 -29 9 6 9 5 0 -7
-17 -21 -13 -58 6 -51 9 3 12 1 7 -6 -4 -7 -4 -12 1 -12 4 0 7 -48 5 -106 -2
-66 1 -109 7 -113 6 -4 3 -11 -7 -17 -16 -10 -17 -2 -17 112 1 68 -3 124 -7
124 -13 0 -7 -424 6 -432 8 -6 7 -8 -1 -8 -9 0 -12 -42 -12 -165 l0 -165 177
1 c115 0 172 3 162 9 -9 6 -10 10 -3 10 6 0 14 -4 18 -9 8 -14 305 -13 322 0
9 8 13 8 13 0 0 -7 32 -11 98 -11 66 0 92 3 82 10 -11 7 -11 10 -2 10 7 0 10
5 6 11 -4 7 -1 10 7 7 8 -3 13 -12 11 -22 -2 -14 8 -16 76 -16 48 0 83 5 91
13 11 9 13 9 7 0 -5 -9 1 -13 18 -13 28 0 33 9 15 27 -7 7 -6 12 6 17 9 3 14
2 11 -3 -12 -19 44 -41 106 -41 38 0 58 4 50 9 -11 7 -10 9 3 15 9 3 14 10 11
15 -3 5 3 7 15 4 18 -5 19 -7 5 -15 -37 -20 -11 -28 95 -28 84 0 110 3 106 13
-2 6 -11 11 -18 9 -8 -1 -5 5 6 13 15 12 21 13 24 3 9 -26 38 -37 100 -38 59
0 63 1 45 15 -18 13 -18 14 5 8 19 -5 23 -3 18 9 -4 12 -1 14 15 10 18 -4 18
-6 4 -14 -33 -18 -4 -26 99 -27 85 -1 105 2 105 13 0 8 -5 16 -12 18 -7 3 -6
7 5 11 10 4 17 2 17 -5 0 -16 32 -37 58 -38 17 0 22 6 22 26 0 17 -4 23 -12
18 -10 -5 -10 -4 -1 6 9 10 7 17 -10 31 l-22 18 23 -6 c20 -5 22 -2 22 36 0
23 -4 40 -8 37 -4 -2 -9 5 -9 17 -2 17 0 19 7 7 7 -11 10 0 10 37 0 44 -4 54
-26 70 -23 17 -24 19 -5 19 12 0 21 -5 21 -10 0 -5 3 -6 6 -3 4 4 1 14 -7 24
-9 11 -10 14 -1 9 9 -5 12 6 12 44 0 28 -4 49 -8 46 -5 -3 -9 1 -9 9 0 8 4 12
9 9 4 -3 8 13 8 35 0 22 -6 42 -12 45 -10 5 -10 7 0 12 10 5 10 9 0 22 -11 13
-11 14 0 8 10 -6 13 14 11 98 -1 58 -5 106 -10 106 -5 0 -9 5 -9 11 0 5 5 7
10 4 6 -4 10 12 10 42 0 35 -3 44 -10 33 -8 -12 -10 -10 -10 8 0 13 4 20 10
17 6 -4 10 12 10 40 0 28 -4 44 -10 40 -5 -3 -10 -2 -10 4 0 5 5 13 10 16 6 3
10 12 9 18 0 9 -2 9 -6 0 -6 -16 -33 -17 -33 -2 0 5 5 7 12 3 8 -5 9 0 5 15
-4 17 -2 21 9 17 11 -4 14 5 14 40 0 28 -4 43 -10 39 -5 -3 -10 3 -10 15 0 12
5 18 10 15 6 -4 10 10 10 34 0 34 -3 39 -17 35 -16 -5 -16 -4 -2 8 13 10 16
35 17 123 0 72 -4 113 -11 118 -9 6 -9 10 1 14 7 2 12 22 12 44 0 22 -4 38 -8
35 -4 -2 -9 5 -9 17 -2 17 0 19 7 7 7 -11 10 1 10 38 0 35 -4 51 -11 47 -6 -4
-5 2 2 13 11 17 10 24 -2 38 -9 11 -9 15 -1 10 9 -5 12 6 12 46 0 37 -3 49
-10 38 -7 -12 -9 -10 -7 7 0 12 5 19 9 17 17 -11 8 69 -9 83 -15 12 -15 14 -2
10 12 -4 16 3 17 34 l2 39 -43 0 c-31 0 -38 -3 -27 -10 12 -7 12 -10 1 -10 -7
0 -11 -6 -7 -15 6 -17 -2 -19 -24 -5 -10 6 -11 10 -2 10 6 0 12 7 12 15 0 9
-10 15 -26 15 -17 0 -23 -4 -18 -12 6 -10 5 -10 -7 -1 -17 14 -156 16 -164 3
-3 -5 2 -13 11 -18 14 -8 14 -10 -4 -14 -16 -4 -19 -2 -15 10 5 12 1 14 -18 9
-23 -6 -23 -5 -5 8 18 14 14 15 -42 15 -62 0 -118 -22 -106 -41 3 -5 -2 -6
-11 -3 -12 5 -13 10 -6 17 23 23 7 27 -99 26 -105 -1 -129 -7 -94 -27 14 -8
14 -10 -5 -15 -12 -3 -19 0 -18 7 1 6 -7 10 -18 9 l-20 -2 20 15 c18 13 12 15
-63 13 -70 -1 -80 -4 -65 -15 17 -12 17 -12 -2 -11 -11 1 -19 -3 -18 -10 2 -7
-4 -10 -13 -6 -11 4 -12 9 -5 16 6 6 11 14 11 18 0 12 -218 10 -225 -1 -3 -5
-11 -10 -16 -10 -6 0 -8 4 -5 8 2 4 -11 9 -30 10 -33 3 -35 1 -34 -25 3 -48 1
-52 -40 -73 -25 -13 -38 -25 -34 -32 4 -6 3 -8 -4 -5 -11 8 -92 -32 -92 -45 0
-11 -57 -10 -64 1 -11 18 -146 92 -156 86 -5 -3 -10 2 -10 12 0 14 -2 15 -9 4
-6 -9 -14 -11 -26 -4 -12 7 -14 13 -6 17 6 4 11 2 11 -5 0 -7 3 -9 6 -6 4 4 2
13 -5 21 -10 11 -7 14 14 12 14 0 25 -5 25 -9 0 -17 37 -42 137 -94 51 -26 53
-27 85 -10 138 72 158 88 158 129 0 26 -3 28 -37 28 -28 0 -34 -3 -23 -10 13
-8 12 -10 -4 -10 -11 0 -16 -5 -13 -14 4 -10 0 -12 -14 -9 -10 3 -19 9 -19 14
0 5 3 8 8 7 4 -2 9 2 12 7 8 16 -139 19 -158 3 -12 -10 -14 -10 -8 0 5 9 -4
12 -36 12 -27 0 -38 -3 -30 -9 11 -7 11 -9 -2 -14 -9 -4 -15 -1 -13 6 3 15
-309 22 -318 7 -3 -6 -11 -10 -16 -10 -6 0 -8 4 -5 9 3 5 -10 9 -30 9 -25 0
-33 -3 -23 -9 8 -5 9 -9 4 -9 -6 0 -17 6 -24 13 -10 10 -12 8 -11 -8 4 -40 0
-61 -9 -47 -4 7 -6 24 -3 38 2 13 0 24 -6 24 -6 0 -10 -52 -11 -137z m329 117
c0 -5 -4 -10 -9 -10 -6 0 -13 5 -16 10 -3 6 1 10 9 10 9 0 16 -4 16 -10z
m-235 -10 c-3 -5 -12 -10 -18 -10 -7 0 -6 4 3 10 19 12 23 12 15 0z m420 0
c-3 -5 -12 -10 -18 -10 -7 0 -6 4 3 10 19 12 23 12 15 0z m385 -13 c-14 -8
-27 -12 -30 -10 -7 6 23 23 40 23 8 0 4 -6 -10 -13z m705 -15 c-3 -3 -11 0
-18 7 -9 10 -8 11 6 5 10 -3 15 -9 12 -12z m-1135 4 c0 -3 -4 -8 -10 -11 -5
-3 -10 -1 -10 4 0 6 5 11 10 11 6 0 10 -2 10 -4z m737 -2 c-3 -4 4 -15 16 -26
l22 -19 -22 11 c-17 8 -29 8 -44 -1 -21 -11 -21 -11 -3 15 11 14 23 26 28 26
5 0 7 -3 3 -6z m-594 -19 c6 4 1 -3 -13 -14 -28 -23 -48 -28 -31 -8 8 10 7 17
-2 26 -10 11 -8 11 11 2 12 -7 28 -9 35 -6z m217 -10 c11 -13 10 -14 -4 -9 -9
3 -16 10 -16 15 0 13 6 11 20 -6z m180 -7 c0 -5 -4 -7 -9 -4 -5 4 -12 0 -14
-6 -3 -7 -6 -3 -6 9 -1 16 3 21 14 17 8 -4 15 -10 15 -16z m412 0 c-4 -15 -7
-17 -13 -6 -7 11 -11 10 -19 -2 -7 -12 -9 -11 -8 5 1 13 10 20 24 21 17 1 20
-3 16 -18z m212 7 c4 -12 2 -14 -11 -6 -11 5 -26 5 -41 0 -22 -8 -23 -8 -12 6
16 19 56 19 64 0z m189 -1 c-3 -8 -10 -11 -15 -8 -6 4 -14 0 -19 -7 -7 -11 -9
-9 -9 6 0 14 7 20 24 21 17 1 23 -2 19 -12z m-1793 -4 c0 -5 -5 -10 -11 -10
-5 0 -7 5 -4 10 3 6 8 10 11 10 2 0 4 -4 4 -10z m170 0 c0 -5 -4 -10 -10 -10
-5 0 -10 5 -10 10 0 6 5 10 10 10 6 0 10 -4 10 -10z m675 -28 c-3 -3 -11 0
-18 7 -9 10 -8 11 6 5 10 -3 15 -9 12 -12z m-545 4 c0 -2 -7 -7 -16 -10 -8 -3
-12 -2 -9 4 6 10 25 14 25 6z m990 -28 c0 -5 -9 -3 -20 4 -11 7 -20 16 -20 20
0 5 9 3 20 -4 11 -7 20 -16 20 -20z m410 -3 c0 -10 -16 -4 -40 16 l-25 20 33
-16 c17 -8 32 -18 32 -20z m-1584 13 c4 -7 3 -8 -4 -4 -7 4 -12 1 -12 -7 0 -8
-6 -17 -14 -20 -15 -6 -16 9 -3 31 10 15 24 16 33 0z m123 9 c-2 -1 -13 -9
-24 -17 -19 -14 -19 -14 -6 3 7 9 18 17 24 17 6 0 8 -1 6 -3z m835 -11 c-10
-8 -21 -12 -24 -10 -5 6 21 24 34 24 6 0 1 -6 -10 -14z m-184 -6 c0 -5 -2 -10
-4 -10 -3 0 -8 5 -11 10 -3 6 -1 10 4 10 6 0 11 -4 11 -10z m580 6 c0 -3 -4
-8 -10 -11 -5 -3 -10 -1 -10 4 0 6 5 11 10 11 6 0 10 -2 10 -4z m400 -1 c0 -2
-10 -10 -22 -16 -21 -11 -22 -11 -9 4 13 16 31 23 31 12z m-1496 -27 c25 -24
5 -24 -24 0 -15 12 -18 19 -9 19 8 0 23 -9 33 -19z m1225 -6 c-13 -20 -46 -24
-46 -5 0 7 4 10 9 7 4 -3 16 0 25 5 24 14 25 14 12 -7z m-829 -2 c0 -5 -4 -10
-10 -10 -5 0 -10 5 -10 10 0 6 5 10 10 10 6 0 10 -4 10 -10z m420 -5 c0 -6 -9
-11 -20 -11 -11 0 -20 5 -20 11 0 6 9 11 20 11 11 0 20 -5 20 -11z m-190 -5
c0 -5 -7 -10 -16 -10 -10 0 -14 -6 -10 -15 7 -19 1 -19 -18 1 -9 8 -14 20 -11
25 8 12 55 12 55 -1z m400 -2 c0 -4 -4 -8 -10 -8 -5 0 -10 -7 -10 -15 0 -8 -5
-15 -11 -15 -6 0 -9 6 -6 13 2 6 -3 17 -11 23 -12 8 -8 11 17 11 17 0 31 -4
31 -9z m400 4 c0 -5 -14 -9 -30 -10 -17 0 -28 4 -25 9 8 11 55 12 55 1z m-20
-34 c0 -18 -2 -20 -9 -8 -6 8 -7 18 -5 22 9 14 14 9 14 -14z m-1687 -14 c-23
-17 -39 -18 -24 -1 6 8 8 16 5 20 -3 3 4 3 15 0 20 -5 20 -6 4 -19z m163 2 c0
-14 -4 -22 -8 -20 -5 3 -6 10 -3 15 8 12 -2 11 -26 -1 -10 -6 -19 -8 -19 -6 0
3 12 12 28 20 15 8 27 15 28 16 0 0 0 -11 0 -24z m231 5 c-1 -16 -4 -18 -21
-9 -22 12 -23 11 21 27 1 1 1 -8 0 -18z m178 0 c3 -5 1 -12 -4 -15 -5 -3 -11
1 -15 9 -6 16 9 21 19 6z m228 3 c-7 -3 -10 -11 -7 -18 3 -8 -2 -16 -11 -20
-9 -3 -13 -2 -10 4 3 6 1 10 -6 10 -7 0 -4 7 7 15 10 8 24 14 29 14 6 0 5 -3
-2 -5z m176 -24 c-6 -5 -8 -13 -4 -20 5 -8 4 -11 -2 -7 -6 4 -10 18 -10 32 0
21 2 23 14 14 10 -9 11 -14 2 -19z m232 0 c5 0 9 -4 9 -8 0 -15 -25 -9 -45 11
-11 11 -15 17 -8 13 6 -3 15 -1 20 6 5 10 8 8 11 -4 2 -10 8 -18 13 -18z m182
17 c4 3 7 1 7 -5 0 -7 -7 -12 -16 -12 -10 0 -14 -6 -11 -14 4 -10 0 -12 -14
-9 -23 6 -25 23 -3 23 11 0 14 5 10 16 -5 13 -4 14 7 6 8 -7 17 -9 20 -5z
m207 -17 c0 -16 -4 -30 -10 -30 -5 0 -7 7 -4 15 4 8 1 15 -5 15 -8 0 -8 4 1
15 18 19 18 19 18 -15z m186 2 c-9 -2 -12 -10 -9 -19 5 -13 3 -14 -18 -2 -21
11 -22 14 -6 17 11 2 16 9 13 18 -4 11 -2 12 15 1 15 -9 16 -13 5 -15z m-1236
-7 c0 -2 -6 -5 -13 -8 -8 -3 -14 1 -14 8 0 7 6 11 14 8 7 -3 13 -6 13 -8z
m-258 -48 c-4 -27 -6 -29 -13 -12 -4 11 -8 15 -8 8 -1 -7 -7 -10 -15 -7 -8 3
-12 12 -9 20 3 9 12 13 19 10 9 -4 14 2 14 17 0 15 3 18 8 9 5 -7 6 -27 4 -45z
m1211 24 c21 12 21 11 7 -6 -12 -15 -13 -19 -1 -23 11 -4 11 -6 0 -12 -10 -7
-10 -12 2 -26 13 -16 12 -16 -9 -5 -12 6 -27 9 -32 6 -6 -3 -10 1 -10 9 0 9
-6 16 -12 16 -9 0 -9 3 1 9 13 8 13 12 0 27 -13 16 -12 16 9 5 17 -9 27 -9 45
0z m-801 -16 c4 -5 4 -13 1 -18 -3 -5 -9 -3 -14 4 -6 10 -11 11 -20 2 -8 -8
-6 -13 10 -18 12 -3 21 -11 21 -17 0 -7 -4 -7 -13 1 -8 6 -16 9 -19 6 -3 -3
-11 1 -18 10 -10 12 -10 15 0 15 7 0 10 7 6 15 -4 10 1 14 17 12 12 -1 25 -6
29 -12z m402 3 c-4 -6 0 -14 7 -19 10 -6 11 -9 2 -9 -7 0 -13 -6 -13 -13 0 -7
-9 -13 -20 -13 -11 0 -20 6 -20 13 0 7 -6 13 -12 14 -10 0 -10 2 0 6 6 2 12
10 12 16 0 7 11 13 25 13 14 1 22 -2 19 -8z m766 -23 c0 -6 -8 -11 -18 -11
-10 0 -19 5 -19 11 0 6 9 11 19 11 10 0 18 -5 18 -11z m-180 -15 c0 -5 -5 -10
-11 -10 -5 0 -7 5 -4 10 3 6 8 10 11 10 2 0 4 -4 4 -10z m-803 -6 c-3 -3 -12
-4 -19 -1 -8 3 -5 6 6 6 11 1 17 -2 13 -5z m-716 -28 c-6 -7 -7 -16 -3 -21 4
-4 -3 -2 -16 4 -22 12 -23 13 -5 26 21 16 39 9 24 -9z m-134 0 c0 -8 -6 -12
-15 -9 -11 5 -11 7 0 14 7 5 13 9 14 9 0 0 1 -6 1 -14z m540 -6 c2 -22 1 -23
-21 -14 -12 5 -13 9 -3 20 17 19 22 17 24 -6z m236 7 c4 3 7 1 7 -5 0 -7 -7
-12 -16 -12 -11 0 -14 -5 -10 -16 5 -13 4 -14 -7 -6 -8 7 -17 9 -20 5 -4 -3
-7 -1 -7 5 0 7 7 12 16 12 11 0 14 5 10 16 -5 13 -4 14 7 6 8 -7 17 -9 20 -5z
m161 -2 c-4 -9 0 -15 10 -15 9 0 16 -5 16 -12 0 -6 -3 -8 -7 -5 -3 4 -13 1
-21 -6 -13 -10 -14 -9 -10 3 3 8 -2 21 -11 28 -9 8 -11 11 -4 8 6 -4 14 -2 18
4 9 15 15 12 9 -5z m400 1 c-3 -8 1 -16 11 -18 13 -2 13 -5 -4 -15 -17 -11
-19 -10 -15 2 4 9 0 15 -10 15 -9 0 -16 5 -16 11 0 5 4 8 9 4 5 -3 12 -1 16 5
9 15 15 12 9 -4z m232 -1 c9 -8 11 -15 5 -15 -6 0 -11 -7 -11 -16 0 -14 -3
-14 -15 -4 -12 10 -13 15 -4 20 6 4 8 13 5 19 -10 16 3 14 20 -4z m168 0 c-4
-9 0 -15 10 -15 9 0 16 -5 16 -11 0 -5 -4 -8 -9 -4 -5 3 -12 1 -16 -5 -3 -5
-12 -10 -18 -10 -7 0 -6 4 3 10 13 8 12 11 -5 25 -11 9 -15 14 -8 11 6 -4 14
-2 18 4 9 15 15 12 9 -5z m-1365 -11 c-5 -7 -18 -14 -29 -17 -16 -4 -17 -2 -7
13 6 10 19 18 28 17 13 -1 15 -5 8 -13z m811 4 c0 -4 -4 -8 -10 -8 -5 0 -10
-7 -10 -16 0 -13 -3 -14 -13 -5 -8 6 -16 10 -18 8 -2 -1 3 5 11 14 16 17 40
21 40 7z m-1227 -22 c4 -10 0 -12 -15 -8 -15 4 -17 7 -6 13 17 11 15 11 21 -5z
m491 -18 c-3 -4 -1 -8 4 -8 6 0 12 -6 15 -14 4 -9 -3 -13 -22 -12 -22 1 -27 5
-23 20 4 14 2 17 -8 11 -8 -5 -11 -4 -7 1 3 5 15 10 26 10 11 0 17 -4 15 -8z
m406 2 c0 -5 -4 -10 -10 -10 -5 0 -10 5 -10 10 0 6 5 10 10 10 6 0 10 -4 10
-10z m400 0 c0 -5 -5 -10 -11 -10 -5 0 -7 5 -4 10 3 6 8 10 11 10 2 0 4 -4 4
-10z m400 -6 c0 -8 -5 -12 -10 -9 -6 4 -8 11 -5 16 9 14 15 11 15 -7z m-577
-11 c-7 -2 -13 -10 -13 -17 0 -6 -9 -12 -20 -12 -11 0 -20 6 -20 13 0 7 6 10
14 7 8 -3 17 -1 21 5 3 6 12 11 18 10 9 0 9 -2 0 -6z m-819 -17 c-6 -16 -41
-17 -41 -2 0 8 10 14 23 14 13 0 21 -5 18 -12z m404 -11 c1 -13 -1 -16 -7 -7
-4 7 -15 10 -24 6 -12 -4 -16 -2 -12 8 8 21 41 17 43 -7z m212 16 c0 -5 -13
-9 -30 -9 -16 1 -30 5 -30 10 0 4 14 8 30 8 17 0 30 -4 30 -9z m400 1 c0 -5
-13 -9 -30 -9 -16 0 -30 4 -30 9 0 4 14 8 30 8 17 0 30 -4 30 -8z m190 -7 c0
-6 -9 -11 -20 -11 -11 0 -20 5 -20 11 0 6 9 11 20 11 11 0 20 -5 20 -11z m180
5 c0 -5 -7 -10 -15 -10 -8 0 -15 5 -15 10 0 6 7 10 15 10 8 0 15 -4 15 -10z
m30 0 c0 -5 -4 -10 -10 -10 -5 0 -10 5 -10 10 0 6 5 10 10 10 6 0 10 -4 10
-10z m70 -45 c0 -10 -16 -4 -40 16 l-25 20 33 -16 c17 -8 32 -18 32 -20z
m-1370 10 c-7 -8 -18 -15 -24 -15 -6 0 -2 7 8 15 25 19 32 19 16 0z m200 -31
c0 -2 -11 2 -25 8 -14 6 -25 15 -25 20 0 5 11 1 25 -8 14 -9 25 -18 25 -20z
m190 26 c0 -5 -5 -10 -11 -10 -5 0 -7 5 -4 10 3 6 8 10 11 10 2 0 4 -4 4 -10z
m575 0 c3 -5 1 -10 -4 -10 -6 0 -11 5 -11 10 0 6 2 10 4 10 3 0 8 -4 11 -10z
m235 6 c0 -3 -4 -8 -10 -11 -5 -3 -10 -1 -10 4 0 6 5 11 10 11 6 0 10 -2 10
-4z m-1240 -26 c0 -5 -2 -10 -4 -10 -3 0 -8 5 -11 10 -3 6 -1 10 4 10 6 0 11
-4 11 -10z m635 0 c3 -5 2 -10 -4 -10 -5 0 -13 5 -16 10 -3 6 -2 10 4 10 5 0
13 -4 16 -10z m575 6 c0 -3 -4 -8 -10 -11 -5 -3 -10 -1 -10 4 0 6 5 11 10 11
6 0 10 -2 10 -4z m-1500 -31 c0 -1 -7 -8 -15 -15 -13 -10 -15 -9 -15 8 0 15 5
20 15 16 8 -4 15 -7 15 -9z m811 6 c7 11 9 10 9 -6 0 -27 -37 -28 -44 -2 -4
15 -2 16 11 6 12 -10 16 -10 24 2z m397 -7 c5 3 12 0 15 -8 4 -10 -2 -13 -19
-12 -17 1 -24 7 -24 21 0 15 2 17 9 6 5 -7 13 -11 19 -7z m400 0 c5 3 12 0 15
-8 4 -9 -2 -13 -17 -12 -14 1 -23 8 -24 21 -1 15 1 16 7 6 5 -7 13 -11 19 -7z
m-1191 -7 c0 -7 -11 -13 -23 -13 -14 -1 -21 3 -18 10 6 16 41 18 41 3z m179
-15 c-4 -3 -14 2 -24 12 -16 18 -16 18 6 6 13 -6 21 -14 18 -18z m34 13 c-7
-9 -15 -13 -19 -10 -3 3 1 10 9 15 21 14 24 12 10 -5z m393 6 c20 11 21 11 8
-4 -7 -10 -21 -17 -31 -17 -10 0 -24 7 -31 17 -13 15 -12 15 9 4 17 -9 27 -9
45 0z m411 -6 c-7 -17 -54 -21 -54 -4 0 6 6 9 13 6 8 -3 20 -1 28 4 19 12 19
11 13 -6z m-1564 -37 c0 -6 -6 -5 -15 2 -8 7 -15 14 -15 16 0 2 7 1 15 -2 8
-4 15 -11 15 -16z m1135 2 c-3 -5 -11 -10 -16 -10 -6 0 -7 5 -4 10 3 6 11 10
16 10 6 0 7 -4 4 -10z m405 6 c0 -2 -7 -7 -16 -10 -8 -3 -12 -2 -9 4 6 10 25
14 25 6z m-1296 -21 c-4 -9 0 -15 7 -15 11 0 11 -3 -1 -10 -22 -14 -30 -12
-24 5 4 9 0 15 -7 16 -11 0 6 11 28 18 1 1 0 -6 -3 -14z m186 5 c10 -6 11 -10
3 -10 -7 0 -13 -7 -13 -15 0 -9 -6 -12 -16 -8 -11 4 -12 8 -4 13 7 4 9 13 6
19 -9 14 4 14 24 1z m214 -4 c-3 -8 1 -16 11 -18 13 -3 13 -5 -3 -15 -16 -10
-19 -9 -18 5 0 9 -5 16 -11 15 -20 -4 -15 15 5 20 9 3 18 5 19 6 1 0 0 -5 -3
-13z m185 -12 c-6 -7 -7 -19 -3 -26 6 -10 4 -10 -9 0 -9 8 -22 11 -29 7 -7 -4
-5 0 5 8 9 8 17 19 17 25 0 6 7 9 15 6 12 -5 13 -10 4 -20z m219 14 c-2 -7 4
-12 13 -12 9 1 16 -4 16 -11 0 -17 -29 -13 -44 5 -9 11 -9 17 0 22 16 10 17
10 15 -4z m202 -13 c0 -3 -6 -4 -12 -2 -8 1 -12 -6 -10 -16 3 -16 0 -16 -17
-5 -17 11 -18 14 -6 21 9 4 13 13 9 19 -4 6 2 6 15 -1 11 -7 21 -14 21 -16z
m205 14 c-4 -6 1 -16 11 -24 18 -13 18 -13 -1 -12 -11 1 -24 8 -28 15 -5 7
-14 10 -20 6 -7 -3 -3 2 7 10 23 18 40 21 31 5z m195 -10 c0 -5 -6 -8 -12 -6
-8 1 -12 -6 -10 -17 3 -17 2 -18 -13 -6 -11 9 -13 15 -4 20 6 4 9 12 5 18 -4
6 2 8 14 5 11 -3 20 -9 20 -14z m211 -9 c5 0 4 -6 -3 -14 -10 -11 -14 -10 -23
8 -8 15 -8 23 -1 28 6 4 12 1 14 -7 2 -8 8 -15 13 -15z m-1824 14 c-3 -3 -12
-4 -19 -1 -8 3 -5 6 6 6 11 1 17 -2 13 -5z m-37 -14 c0 -5 -4 -10 -10 -10 -5
0 -10 5 -10 10 0 6 5 10 10 10 6 0 10 -4 10 -10z m132 -41 c18 -12 25 -18 15
-15 -27 9 -41 -4 -22 -18 15 -10 14 -12 -4 -12 -11 0 -17 4 -15 8 3 4 0 8 -7
8 -8 0 -9 4 0 13 8 10 7 17 -1 25 -19 19 -2 14 34 -9z m832 -21 c8 -5 7 -8 -3
-8 -7 0 -11 -6 -8 -14 4 -10 -2 -13 -19 -12 -13 0 -24 7 -24 14 0 6 -6 12 -12
13 -10 0 -10 2 0 6 6 2 12 11 12 19 0 8 6 11 15 8 9 -4 15 0 16 7 1 8 4 5 6
-6 3 -11 10 -23 17 -27z m-420 20 c-2 -4 3 -11 12 -16 15 -8 15 -10 -1 -15 -9
-4 -14 -10 -12 -14 3 -5 -5 -9 -18 -9 -16 -1 -22 2 -18 12 3 8 0 14 -6 14 -8
0 -8 5 0 18 6 10 19 18 29 18 10 0 17 -4 14 -8z m815 -10 c8 -13 8 -18 0 -18
-6 0 -9 -6 -6 -13 4 -10 -4 -14 -24 -14 -15 0 -25 5 -22 10 3 5 -1 13 -8 18
-10 6 -11 9 -1 9 6 0 12 6 12 13 0 19 36 15 49 -5z m394 4 c5 -7 12 -10 18 -7
5 4 9 1 9 -4 0 -6 -7 -11 -16 -11 -9 0 -14 -6 -11 -12 3 -9 -6 -13 -24 -14
-16 -1 -26 3 -22 9 3 5 -1 13 -8 18 -10 6 -11 9 -1 9 6 0 12 6 12 14 0 17 32
16 43 -2z m-613 -26 c0 -3 -4 -8 -10 -11 -5 -3 -10 -1 -10 4 0 6 5 11 10 11 6
0 10 -2 10 -4z m-1146 -32 c16 -6 12 -24 -5 -24 -6 0 -8 4 -5 9 4 5 0 12 -6
14 -7 3 -10 6 -6 6 3 1 13 -2 22 -5z m259 -20 c-16 -12 -16 -15 -3 -24 8 -5
11 -10 5 -10 -5 0 -21 9 -35 19 -22 17 -22 19 -5 18 11 -1 19 3 18 9 -1 7 6
10 18 7 18 -5 19 -6 2 -19z m171 11 c-4 -8 -1 -15 6 -15 7 0 6 -5 -4 -15 -20
-20 -25 -19 -19 5 3 13 0 20 -8 20 -11 0 -11 2 1 10 22 14 30 12 24 -5z m232
-7 c-14 -8 -15 -12 -4 -25 11 -14 9 -14 -19 1 -38 19 -42 27 -11 18 16 -4 20
-2 15 10 -4 12 -1 14 15 10 18 -4 19 -6 4 -14z m168 11 c-3 -6 -2 -14 4 -18 6
-4 4 -12 -6 -21 -14 -13 -15 -12 -9 3 4 12 1 20 -9 24 -13 5 -13 7 -2 14 19
12 30 11 22 -2z m232 -11 c-9 -5 -14 -12 -12 -16 3 -4 -4 -8 -14 -8 -11 0 -22
6 -24 12 -3 8 3 10 16 6 16 -4 20 -2 15 10 -4 12 -1 14 15 10 18 -4 18 -6 4
-14z m168 7 c-4 -10 0 -15 12 -15 17 0 16 -1 -2 -15 -25 -19 -40 -19 -24 0 10
12 9 16 -6 22 -16 6 -16 7 2 14 10 4 20 8 21 8 1 1 0 -6 -3 -14z m234 6 c11
-7 10 -9 -3 -15 -9 -3 -14 -9 -11 -14 2 -4 -4 -8 -15 -8 -19 0 -19 1 -4 12 9
7 14 17 10 23 -7 13 5 14 23 2z m165 -8 c-5 -13 -2 -15 18 -10 l24 6 -25 -19
c-29 -23 -48 -26 -31 -6 9 11 9 16 0 21 -8 6 -7 10 2 16 19 12 19 11 12 -8z
m237 7 c10 -6 11 -10 3 -10 -7 0 -14 -12 -14 -27 -1 -19 -3 -22 -6 -10 -3 12
-11 16 -21 13 -14 -5 -13 -3 2 8 10 8 15 19 11 25 -8 14 5 14 25 1z m-1124
-56 c-5 -13 -2 -15 14 -11 18 4 19 3 9 -9 -8 -10 -15 -11 -24 -4 -9 8 -14 7
-17 -1 -2 -7 -8 -6 -17 5 -12 14 -12 16 3 10 11 -4 16 -1 16 10 0 9 5 16 11
16 6 0 8 -7 5 -16z m404 10 c0 -12 -21 -44 -29 -44 -5 0 -11 7 -14 14 -4 10
-1 13 9 9 8 -3 14 1 14 11 0 9 5 16 10 16 6 0 10 -3 10 -6z m400 -4 c0 -5 -4
-10 -10 -10 -5 0 -10 5 -10 10 0 6 5 10 10 10 6 0 10 -4 10 -10z m-1413 -42
c-18 -12 -23 -10 -23 11 0 15 3 17 18 8 13 -8 14 -13 5 -19z m233 17 c-7 -8
-17 -12 -23 -8 -6 4 -3 9 9 14 27 11 28 11 14 -6z m176 6 c10 8 13 6 11 -8 -1
-25 -43 -27 -43 -2 0 12 4 15 10 9 6 -6 14 -6 22 1z m403 -2 c6 9 10 8 13 -6
4 -16 0 -20 -21 -20 -19 0 -27 6 -27 18 0 14 3 15 14 7 10 -9 15 -9 21 1z
m399 -5 c5 3 12 0 15 -7 3 -9 -4 -14 -23 -14 -22 0 -26 4 -22 20 3 13 7 15 12
7 4 -7 12 -10 18 -6z m400 0 c5 3 12 0 15 -8 4 -10 -2 -13 -19 -12 -17 1 -24
7 -24 21 0 15 2 17 9 6 5 -7 13 -11 19 -7z m-578 2 c0 -3 -4 -8 -10 -11 -5 -3
-10 -1 -10 4 0 6 5 11 10 11 6 0 10 -2 10 -4z m365 -6 c-3 -5 -11 -10 -16 -10
-6 0 -7 5 -4 10 3 6 11 10 16 10 6 0 7 -4 4 -10z m35 0 c0 -5 -4 -10 -10 -10
-5 0 -10 5 -10 10 0 6 5 10 10 10 6 0 10 -4 10 -10z m-1135 -41 c4 -6 14 -8
24 -4 12 5 13 3 4 -6 -9 -9 -17 -8 -34 5 -13 9 -18 16 -12 16 7 0 15 -5 18
-11z m1419 -4 c-10 -8 -23 -15 -28 -15 -6 0 -1 7 10 15 10 8 23 15 28 15 6 0
1 -7 -10 -15z m-179 -15 c3 -6 -1 -7 -9 -4 -18 7 -21 14 -7 14 6 0 13 -4 16
-10z m-1318 -33 c2 -15 -1 -16 -12 -7 -9 7 -15 8 -20 0 -3 -5 -12 -10 -18 -10
-8 0 -7 3 2 9 7 5 11 13 8 17 -3 5 5 9 17 9 14 0 23 -7 23 -18z m379 12 c5 -8
9 -8 14 1 5 8 9 6 12 -7 4 -16 0 -20 -21 -20 -19 0 -27 6 -27 19 0 20 11 24
22 7z m416 3 c3 7 7 4 10 -8 4 -17 1 -21 -22 -21 -22 0 -26 4 -22 19 3 14 8
16 17 8 9 -8 14 -7 17 2z m171 -5 c4 3 7 -1 7 -11 0 -15 2 -15 23 -1 20 13 24
13 24 0 0 -8 -4 -12 -8 -9 -4 2 -13 -4 -18 -13 -11 -17 -11 -17 -22 0 -5 9
-16 14 -22 11 -7 -4 -9 -4 -5 1 4 4 2 15 -5 24 -10 14 -10 14 4 4 9 -7 19 -10
22 -6z m210 1 c3 -10 7 -10 18 -1 12 10 15 8 15 -6 0 -12 -8 -18 -26 -18 -18
0 -26 6 -26 19 0 21 12 24 19 6z m220 -14 c6 1 9 1 5 -1 -5 -3 -8 -11 -8 -19
0 -8 -4 -14 -10 -14 -5 0 -6 7 -3 17 4 11 3 14 -5 9 -8 -5 -12 1 -12 16 1 20
2 21 11 6 5 -9 15 -16 22 -14z m-828 -2 c-3 -3 -11 0 -18 7 -9 10 -8 11 6 5
10 -3 15 -9 12 -12z m45 3 c11 -13 10 -14 -4 -9 -11 4 -16 1 -16 -10 0 -9 -4
-16 -10 -16 -13 0 -13 6 2 30 15 24 13 23 28 5z m-417 -16 c-3 -10 -14 -16
-27 -15 -18 1 -21 4 -13 16 13 22 45 21 40 -1z m1105 -26 c-2 -11 3 -18 13
-17 9 1 16 -4 16 -10 0 -7 -9 -12 -19 -12 -10 0 -18 6 -18 13 0 7 -5 13 -10
13 -6 0 -5 6 2 15 17 19 19 18 16 -2z m-1605 -7 c4 -10 0 -12 -15 -8 -15 4
-17 7 -6 13 17 11 15 11 21 -5z m802 4 c-3 -6 1 -13 10 -16 13 -6 14 -8 3 -15
-20 -13 -28 -11 -22 6 4 9 0 15 -7 15 -11 0 -11 3 1 10 19 12 23 12 15 0z
m185 -15 c-5 -6 -7 -14 -4 -17 3 -3 -6 -5 -21 -4 -23 1 -24 2 -8 14 10 7 17
17 16 22 -2 5 4 7 12 3 11 -4 13 -9 5 -18z m218 13 c-2 -8 6 -12 17 -11 20 1
20 1 1 -13 -25 -18 -37 -18 -30 1 4 9 0 15 -7 15 -11 0 -11 3 1 10 19 13 20
12 18 -2z m182 -13 c-5 -6 -7 -14 -4 -17 3 -3 -6 -5 -21 -4 -23 1 -24 2 -8 14
10 7 17 17 16 22 -2 5 4 7 12 3 11 -4 13 -9 5 -18z m408 16 c11 -7 10 -9 -3
-15 -9 -3 -14 -9 -12 -13 3 -5 -5 -8 -18 -8 -13 0 -21 3 -18 8 2 4 11 7 20 7
9 0 13 6 9 15 -6 17 2 19 22 6z m-1620 -31 c0 -17 -4 -28 -9 -24 -5 3 -6 10
-3 16 4 6 -2 8 -17 4 l-24 -6 23 11 c12 7 22 16 22 21 0 4 2 8 3 8 2 0 4 -14
5 -30z m236 13 c3 -7 1 -13 -4 -13 -6 0 -13 -1 -17 -2 -3 -2 -7 4 -8 13 -3 19
22 21 29 2z m183 1 c0 -7 -4 -11 -9 -8 -4 3 -8 1 -8 -5 0 -6 -7 -8 -15 -5 -11
4 -11 9 -2 18 15 16 34 16 34 0z m110 -46 c-3 -8 -6 -5 -6 6 -1 11 2 17 5 13
3 -3 4 -12 1 -19z m413 -8 c4 0 3 -11 -3 -24 -8 -17 -14 -21 -19 -13 -6 9 -11
8 -18 -3 -8 -13 -10 -13 -10 2 0 9 -6 18 -12 20 -10 4 -9 8 2 20 8 8 21 13 28
10 6 -2 13 2 13 10 1 7 3 5 6 -4 2 -10 8 -18 13 -18z m386 21 c14 11 16 11 10
0 -5 -8 -3 -17 5 -22 12 -8 12 -10 0 -18 -8 -5 -10 -14 -5 -22 6 -11 4 -11
-10 0 -15 13 -19 13 -27 0 -7 -12 -9 -11 -9 3 0 9 -6 19 -12 22 -10 5 -10 7 0
12 6 3 12 13 12 22 0 14 2 15 9 3 8 -13 12 -13 27 0z m-1192 -26 c-4 -8 -10
-12 -15 -9 -11 6 -2 24 11 24 5 0 7 -7 4 -15z m373 1 c-4 -9 0 -12 13 -9 15 4
18 1 13 -17 -4 -15 -8 -18 -13 -10 -4 7 -12 10 -18 6 -11 -7 -25 21 -16 35 9
14 27 10 21 -5z m-394 -20 c9 -7 17 -22 16 -32 0 -15 -2 -14 -10 6 -8 18 -12
21 -18 11 -6 -9 -11 -10 -15 -2 -4 6 -13 8 -19 4 -7 -4 -6 0 2 10 16 20 21 20
44 3z m297 -31 c-7 -9 -15 -13 -19 -10 -3 3 1 10 9 15 21 14 24 12 10 -5z
m399 -1 c-10 -12 -10 -17 0 -23 10 -6 9 -10 -4 -14 -9 -4 -14 -3 -10 3 3 6 -1
13 -11 17 -14 5 -13 8 7 19 31 17 34 17 18 -2z m630 -12 c-5 -2 -9 -10 -9 -18
0 -8 -6 -11 -17 -7 -11 4 -12 8 -5 11 7 2 12 12 12 23 0 16 2 18 14 7 8 -7 10
-14 5 -16z m-1524 8 c3 -5 1 -10 -4 -10 -6 0 -11 5 -11 10 0 6 2 10 4 10 3 0
8 -4 11 -10z m1125 0 c10 -6 11 -10 3 -10 -7 0 -13 -7 -13 -15 0 -9 -6 -12
-16 -8 -11 4 -12 8 -4 13 7 4 9 13 6 19 -9 14 4 14 24 1z m163 -7 c-5 -12 -2
-15 9 -10 9 3 18 0 21 -6 3 -7 -5 -12 -18 -12 -13 0 -23 5 -22 10 1 6 -7 9
-18 8 -20 -1 -20 -1 -1 13 26 19 37 18 29 -3z m404 7 c-1 -5 6 -15 16 -22 16
-12 15 -13 -7 -13 -13 0 -24 3 -23 7 1 4 -6 13 -16 20 -16 12 -15 13 7 14 14
1 24 -2 23 -6z m-980 -19 c0 -10 -10 -16 -24 -16 -19 0 -21 2 -8 11 8 6 13 13
10 16 -3 2 1 5 9 5 8 0 14 -7 13 -16z m-635 -3 c5 13 7 10 7 -11 1 -27 1 -27
-28 -12 -17 8 -32 19 -36 25 -3 5 7 3 22 -5 25 -13 29 -13 35 3z m-144 -24 c1
-1 -5 -4 -15 -6 -13 -4 -19 0 -19 13 0 14 3 16 16 6 8 -6 16 -12 18 -13z m379
7 c-1 -15 -4 -17 -19 -8 -13 8 -14 13 -5 19 19 12 26 9 24 -11z m183 9 c0 -5
-4 -10 -10 -10 -5 0 -10 5 -10 10 0 6 5 10 10 10 6 0 10 -4 10 -10z m-90 -14
c0 -3 -4 -8 -10 -11 -5 -3 -10 -1 -10 4 0 6 5 11 10 11 6 0 10 -2 10 -4z m398
-8 c-2 -7 4 -12 13 -12 9 1 16 -4 16 -10 0 -6 -17 -11 -37 -12 -24 0 -37 4
-37 13 0 7 2 11 5 8 2 -2 11 2 19 10 18 18 24 19 21 3z m417 -16 l19 -27 -24
16 c-24 16 -38 39 -23 39 4 0 17 -13 28 -28z m399 2 c18 -26 18 -26 -1 -15
-14 7 -23 7 -31 -1 -7 -7 -12 -8 -12 -4 0 5 -8 2 -17 -5 -15 -11 -15 -10 1 8
10 13 23 20 29 16 6 -4 8 0 4 10 -10 25 5 20 27 -9z m-1737 -8 c0 -8 -6 -12
-15 -9 -11 5 -11 7 0 14 7 5 13 9 14 9 0 0 1 -6 1 -14z m126 7 c3 -5 -1 -14
-9 -21 -10 -9 -14 -9 -14 -1 0 6 -7 9 -17 5 -15 -5 -15 -4 1 9 22 17 33 19 39
8z m456 -38 c31 -17 68 -39 84 -49 15 -10 27 -15 27 -10 0 5 7 -2 16 -14 11
-16 12 -27 5 -39 -6 -11 -11 -13 -12 -5 -1 6 -2 18 -3 25 -1 6 -8 11 -15 9 -7
-1 -10 1 -7 6 2 4 -16 19 -42 32 -26 14 -49 27 -52 30 -3 3 -18 14 -34 24 -27
17 -30 17 -67 0 -22 -9 -39 -20 -39 -24 0 -3 -15 -12 -34 -18 -19 -7 -49 -26
-66 -42 -36 -34 -45 -37 -36 -14 3 8 2 12 -4 9 -6 -3 -10 -16 -11 -28 0 -21
-1 -21 -9 -2 -4 11 -4 24 1 29 5 5 1 15 -9 23 -15 13 -15 13 5 3 24 -11 73 -4
73 11 0 5 8 9 18 10 23 1 107 54 105 66 -3 17 47 2 106 -32z m147 30 c-11 -8
-14 -15 -8 -15 7 0 12 -5 12 -11 0 -8 -4 -8 -15 1 -8 6 -20 9 -27 5 -7 -4 -2
3 12 14 14 11 30 21 35 20 6 0 1 -6 -9 -14z m410 -6 c0 -11 -4 -19 -8 -19 -4
0 -8 5 -8 12 0 9 -3 9 -12 0 -17 -17 -27 -15 -22 6 7 24 50 25 50 1z m167 7
c-6 -23 -9 -24 -20 -7 -10 16 -9 19 5 17 9 -2 16 -6 15 -10z m233 -8 c0 -11
-4 -14 -10 -8 -6 6 -14 6 -22 0 -8 -8 -13 -5 -16 8 -4 15 0 19 21 19 19 0 27
-6 27 -19z m-1201 2 c-3 -5 -11 -10 -16 -10 -6 0 -7 5 -4 10 3 6 11 10 16 10
6 0 7 -4 4 -10z m-291 -35 c3 -8 2 -16 -2 -19 -8 -5 -26 14 -29 32 -4 16 24 4
31 -13z m256 9 c0 -8 -5 -12 -10 -9 -6 4 -8 11 -5 16 9 14 15 11 15 -7z m1120
-14 c8 -5 12 -11 10 -14 -3 -2 -14 2 -24 10 -22 15 -10 19 14 4z m-1240 -10
c0 -5 -4 -10 -10 -10 -5 0 -10 5 -10 10 0 6 5 10 10 10 6 0 10 -4 10 -10z
m155 0 c3 -5 1 -10 -4 -10 -6 0 -11 5 -11 10 0 6 2 10 4 10 3 0 8 -4 11 -10z
m695 0 c0 -5 -2 -10 -4 -10 -3 0 -8 5 -11 10 -3 6 -1 10 4 10 6 0 11 -4 11
-10z m810 -2 c0 -4 -4 -8 -9 -8 -6 0 -12 4 -15 8 -3 5 1 9 9 9 8 0 15 -4 15
-9z m-1603 -18 c-1 -21 -10 -18 -13 5 -1 8 2 15 6 15 5 0 8 -9 7 -20z m260
-31 c-12 -9 -24 -15 -27 -13 -2 3 2 9 10 14 11 7 9 13 -11 30 l-24 20 37 -16
37 -17 -22 -18z m407 25 c21 -8 20 -21 -2 -26 -12 -4 -18 1 -18 13 0 22 -1 21
20 13z m429 -10 c-3 -8 -10 -11 -15 -8 -6 4 -14 0 -19 -7 -7 -11 -9 -9 -9 6 0
14 7 20 24 21 17 1 23 -2 19 -12z m403 -5 c0 -14 -3 -15 -14 -7 -10 9 -16 8
-23 -3 -7 -11 -9 -10 -9 6 0 14 7 20 23 21 16 1 23 -4 23 -17z m-1621 1 c-3
-5 -11 -10 -16 -10 -6 0 -7 5 -4 10 3 6 11 10 16 10 6 0 7 -4 4 -10z m620 0
c3 -5 1 -10 -4 -10 -6 0 -11 5 -11 10 0 6 2 10 4 10 3 0 8 -4 11 -10z m385
-32 c0 -14 -15 -8 -27 11 -15 24 -3 38 14 15 7 -10 13 -21 13 -26z m20 32 c0
-5 -4 -10 -10 -10 -5 0 -10 5 -10 10 0 6 5 10 10 10 6 0 10 -4 10 -10z m370 0
c0 -5 -4 -10 -10 -10 -5 0 -10 5 -10 10 0 6 5 10 10 10 6 0 10 -4 10 -10z m30
0 c0 -5 -4 -10 -10 -10 -5 0 -10 -7 -10 -15 0 -8 -4 -15 -10 -15 -13 0 -13 6
2 30 14 21 28 26 28 10z m-1174 -45 c-3 -9 1 -18 10 -22 13 -5 13 -7 2 -14
-20 -13 -23 -11 -23 21 -1 17 3 30 8 30 5 0 6 -7 3 -15z m849 -5 c8 0 16 -4
19 -9 4 -5 -4 -7 -16 -3 -17 4 -20 2 -15 -11 7 -19 -1 -21 -21 -8 -11 7 -11 9
2 14 9 4 14 12 12 19 -1 7 -1 10 1 6 3 -5 11 -8 18 -8z m211 5 c-3 -9 1 -18
10 -22 13 -5 13 -7 2 -14 -20 -13 -28 -11 -22 6 4 8 1 15 -5 15 -8 0 -8 4 1
15 17 19 22 19 14 0z m179 4 c4 -6 14 -8 24 -5 11 4 10 2 -4 -10 -11 -8 -19
-19 -18 -24 2 -5 -4 -7 -12 -3 -11 4 -12 9 -5 17 6 9 6 16 -2 24 -9 9 -9 12
-1 12 7 0 15 -5 18 -11z m236 -30 c5 -3 -3 -11 -17 -18 -25 -11 -26 -10 -14 4
11 13 10 18 -6 30 -16 13 -17 14 -1 9 10 -4 17 -1 18 7 1 8 4 5 6 -6 3 -11 9
-23 14 -26z m-1604 24 c-4 -3 0 -14 9 -24 15 -16 14 -17 -5 -12 -12 3 -21 10
-21 15 0 5 -6 6 -12 3 -7 -4 -4 1 6 9 20 16 36 22 23 9z m388 -2 c-3 -6 2 -14
11 -19 14 -8 14 -10 -4 -14 -16 -4 -19 -2 -15 10 5 12 1 14 -18 9 -23 -6 -23
-5 -5 8 22 17 40 20 31 6z m400 0 c-3 -6 2 -14 11 -19 14 -8 14 -10 -4 -14
-16 -4 -19 -2 -15 10 5 12 1 14 -18 9 -23 -6 -23 -5 -5 8 22 17 40 20 31 6z
m-221 -16 c-10 -8 -23 -14 -29 -14 -5 0 -1 6 9 14 11 8 24 15 30 15 5 0 1 -7
-10 -15z m-817 -11 c-3 -3 -12 -4 -19 -1 -8 3 -5 6 6 6 11 1 17 -2 13 -5z
m724 -74 c0 -87 -5 -102 -33 -116 -13 -6 -55 -29 -95 -52 -39 -22 -75 -37 -79
-33 -4 3 -4 0 0 -6 4 -7 7 -52 7 -100 1 -92 6 -126 18 -119 4 3 7 -4 7 -14 0
-15 -6 -18 -21 -14 -12 3 -35 -4 -55 -18 -19 -13 -43 -27 -52 -30 -28 -11 -98
-58 -98 -66 0 -4 16 -16 35 -26 19 -11 33 -21 30 -24 -2 -3 -16 3 -30 12 -14
9 -30 14 -35 11 -6 -3 -10 3 -10 15 0 25 -115 103 -142 96 -10 -2 -16 -1 -15
3 4 12 -44 53 -57 48 -9 -4 -11 4 -8 26 5 29 6 30 13 9 5 -12 11 -22 14 -22 4
0 4 4 0 9 -3 5 -1 12 5 16 6 3 10 -4 10 -18 0 -20 14 -33 69 -66 38 -22 73
-41 77 -41 4 0 15 -6 23 -14 14 -13 26 -9 98 33 45 26 88 53 96 59 18 15 24
216 7 227 -6 3 -8 11 -5 16 3 5 -1 6 -9 3 -9 -3 -13 -11 -9 -18 3 -6 2 -7 -2
-3 -12 10 -15 38 -4 31 5 -3 9 0 9 6 0 8 6 8 20 0 22 -12 52 -6 72 13 7 7 35
22 61 35 33 15 47 27 43 37 -3 9 0 12 9 9 15 -6 27 24 25 64 -4 49 0 105 6
100 3 -4 5 -38 5 -78z m-693 45 c-3 -3 -9 2 -12 12 -6 14 -5 15 5 6 7 -7 10
-15 7 -18z m272 5 c0 -5 -2 -10 -4 -10 -3 0 -8 5 -11 10 -3 6 -1 10 4 10 6 0
11 -4 11 -10z m216 -17 c-6 -6 -36 9 -36 18 0 5 9 4 20 -3 10 -7 18 -14 16
-15z m404 17 c13 -9 13 -11 0 -20 -12 -8 -13 -12 -2 -19 11 -7 11 -9 -2 -14
-10 -4 -16 -1 -16 9 0 11 -6 14 -17 10 -16 -5 -16 -4 1 8 10 8 15 19 11 25 -8
14 5 14 25 1z m424 -2 c-4 -5 2 -16 12 -24 17 -12 17 -13 2 -8 -12 4 -18 1
-18 -8 0 -7 -9 -14 -20 -14 -11 0 -20 7 -20 14 0 9 -6 12 -17 8 -16 -5 -16 -4
1 8 10 8 16 19 12 24 -3 5 8 9 24 9 16 0 27 -4 24 -9z m399 -5 c-3 -7 0 -13 6
-13 8 0 8 -5 -1 -19 -6 -10 -17 -17 -24 -14 -7 2 -14 -4 -17 -14 -3 -11 -5 -8
-6 11 -1 22 -5 27 -18 22 -17 -6 -17 -5 0 8 9 7 17 17 17 22 0 5 11 9 24 9 15
0 22 -5 19 -12z m-1696 -25 c-3 -7 -5 -2 -5 12 0 14 2 19 5 13 2 -7 2 -19 0
-25z m293 28 c0 -3 -4 -8 -10 -11 -5 -3 -10 -1 -10 4 0 6 5 11 10 11 6 0 10
-2 10 -4z m785 -6 c3 -5 1 -10 -4 -10 -6 0 -11 5 -11 10 0 6 2 10 4 10 3 0 8
-4 11 -10z m-1005 -15 c-7 -8 -8 -15 -3 -15 5 0 10 -6 10 -14 0 -16 -31 -10
-48 10 -9 11 -7 14 10 14 11 0 21 5 21 10 0 6 5 10 11 10 8 0 8 -5 -1 -15z
m387 -6 c8 -8 17 -8 34 1 21 10 22 10 7 -3 -10 -8 -15 -17 -11 -21 4 -4 0 -4
-9 -1 -8 3 -23 -1 -32 -10 -9 -9 -16 -13 -16 -8 0 5 5 14 12 21 9 9 9 12 0 12
-7 0 -12 5 -12 10 0 13 13 13 27 -1z m536 -43 c16 -12 16 -14 2 -20 -9 -3 -13
-11 -9 -17 4 -8 0 -8 -15 0 -11 7 -21 14 -21 17 0 3 4 3 9 -1 5 -3 13 0 17 6
3 6 0 15 -7 20 -8 5 -9 9 -4 9 6 -1 18 -7 28 -14z m806 -14 c-5 -2 -9 -10 -9
-18 0 -7 -6 -11 -14 -8 -10 4 -11 10 -3 28 8 17 14 20 23 12 7 -6 8 -12 3 -14z
m-1464 7 c4 -6 17 -14 29 -19 16 -7 17 -9 4 -9 -9 -1 -20 4 -23 9 -4 6 -10 8
-15 5 -4 -3 -10 2 -14 10 -6 17 9 21 19 4z m415 1 c0 -5 -5 -10 -11 -10 -5 0
-7 5 -4 10 3 6 8 10 11 10 2 0 4 -4 4 -10z m415 1 c-3 -6 2 -14 11 -19 14 -8
14 -10 -5 -15 -12 -3 -18 -1 -15 4 3 5 -2 12 -11 15 -13 6 -14 8 -3 15 18 12
31 11 23 0z m231 -13 c-9 -5 -14 -13 -11 -19 3 -5 -1 -6 -9 -3 -12 5 -13 10
-4 24 6 10 18 16 26 13 12 -5 11 -8 -2 -15z m169 13 c-3 -6 2 -14 11 -19 14
-8 14 -10 -4 -14 -16 -4 -19 -2 -15 10 5 12 1 14 -18 9 -23 -6 -23 -5 -5 8 22
17 40 20 31 6z m-974 -14 c-6 -8 -8 -16 -5 -20 3 -3 -3 -3 -14 0 -17 4 -18 8
-9 19 16 18 44 19 28 1z m-407 -12 c-10 -8 -23 -14 -29 -14 -5 0 -1 6 9 14 11
8 24 15 30 15 5 0 1 -7 -10 -15z m606 11 c0 -2 -11 -11 -25 -20 -14 -9 -25
-13 -25 -8 0 5 10 14 23 20 27 13 27 13 27 8z m-851 -15 c7 -5 9 -11 5 -14 -5
-3 -15 1 -22 9 -14 16 -5 18 17 5z m261 -17 c0 -8 -4 -12 -10 -9 -5 3 -10 10
-10 16 0 5 5 9 10 9 6 0 10 -7 10 -16z m90 12 c0 -3 -4 -8 -10 -11 -5 -3 -10
-1 -10 4 0 6 5 11 10 11 6 0 10 -2 10 -4z m785 -6 c3 -5 1 -10 -4 -10 -6 0
-11 5 -11 10 0 6 2 10 4 10 3 0 8 -4 11 -10z m-819 -12 c4 -7 3 -8 -4 -4 -7 4
-12 2 -12 -3 0 -6 -8 -11 -17 -11 -16 1 -16 2 1 15 24 18 23 18 32 3z m79 2
c-3 -5 -11 -10 -16 -10 -6 0 -7 5 -4 10 3 6 11 10 16 10 6 0 7 -4 4 -10z
m1140 0 c-3 -5 0 -10 8 -10 8 0 18 -7 21 -15 4 -12 2 -14 -11 -6 -10 5 -26 5
-40 0 -24 -9 -24 -9 -6 16 17 23 41 36 28 15z m-1017 -42 c-7 -4 -17 -8 -23
-8 -5 0 -4 4 4 9 9 6 10 11 2 15 -6 4 -11 12 -11 18 0 6 9 3 20 -7 16 -14 17
-20 8 -27z m432 5 c0 -3 -3 -3 -6 0 -4 3 -16 2 -27 -4 -14 -8 -18 -8 -12 0 4
7 1 19 -7 28 -12 14 -9 14 20 -1 17 -9 32 -19 32 -23z m408 18 c-6 -10 -17
-17 -24 -14 -7 2 -14 -4 -17 -14 -3 -12 -5 -8 -6 10 -1 16 3 26 9 22 5 -3 18
-1 27 4 24 14 25 14 11 -8z m385 5 c13 5 16 2 11 -10 -3 -9 -11 -13 -16 -10
-6 4 -14 0 -19 -7 -6 -10 -9 -5 -9 16 0 19 3 25 8 17 5 -7 16 -10 25 -6z
m-1683 -11 c0 -8 -2 -15 -4 -15 -2 0 -6 7 -10 15 -3 8 -1 15 4 15 6 0 10 -7
10 -15z m296 8 c-3 -4 -22 -12 -42 -19 -29 -10 -33 -10 -24 1 10 12 27 18 64
24 5 0 6 -2 2 -6z m404 -8 c0 -2 -7 -5 -15 -9 -9 -3 -15 0 -15 9 0 9 6 12 15
9 8 -4 15 -7 15 -9z m401 -2 c13 -15 12 -15 -5 -6 -13 7 -28 8 -44 2 -22 -8
-23 -8 -12 6 16 20 44 19 61 -2z m-768 -16 c3 -7 -3 -13 -14 -13 -13 0 -15 3
-7 13 6 7 12 13 13 13 2 0 5 -6 8 -13z m-323 -17 c9 -6 10 -10 3 -10 -6 0 -14
-9 -18 -19 -4 -12 -12 -18 -21 -14 -12 5 -12 7 2 18 9 6 14 17 10 23 -9 14 4
15 24 2z m65 0 c3 -5 1 -10 -4 -10 -6 0 -11 5 -11 10 0 6 2 10 4 10 3 0 8 -4
11 -10z m130 0 c3 -5 1 -10 -4 -10 -6 0 -11 5 -11 10 0 6 2 10 4 10 3 0 8 -4
11 -10z m769 -14 c-10 -8 -21 -12 -23 -10 -3 2 4 11 15 18 10 8 21 12 23 10 3
-2 -4 -11 -15 -18z m591 14 c3 -5 2 -10 -4 -10 -5 0 -13 5 -16 10 -3 6 -2 10
4 10 5 0 13 -4 16 -10z m239 -2 c-3 -4 -9 -8 -15 -8 -5 0 -9 4 -9 8 0 5 7 9
15 9 8 0 12 -4 9 -9z m-1412 -20 c-9 -9 -15 -9 -24 0 -9 9 -7 12 12 12 19 0
21 -3 12 -12z m398 2 c0 -5 -2 -10 -4 -10 -3 0 -8 5 -11 10 -3 6 -1 10 4 10 6
0 11 -4 11 -10z m405 0 c3 -5 2 -10 -4 -10 -5 0 -13 5 -16 10 -3 6 -2 10 4 10
5 0 13 -4 16 -10z m175 6 c0 -3 -4 -8 -10 -11 -5 -3 -10 -1 -10 4 0 6 5 11 10
11 6 0 10 -2 10 -4z m230 0 c0 -3 -4 -8 -10 -11 -5 -3 -10 -1 -10 4 0 6 5 11
10 11 6 0 10 -2 10 -4z m170 0 c0 -3 -4 -8 -10 -11 -5 -3 -10 -1 -10 4 0 6 5
11 10 11 6 0 10 -2 10 -4z m-1510 -16 c0 -5 -7 -10 -15 -10 -8 0 -15 5 -15 10
0 6 7 10 15 10 8 0 15 -4 15 -10z m-185 -9 c-3 -6 2 -14 11 -19 15 -8 15 -10
0 -15 -10 -4 -15 -3 -11 3 3 6 1 10 -4 10 -6 0 -11 7 -11 15 0 8 5 15 11 15 5
0 8 -4 4 -9z m59 -6 c-4 -8 -8 -15 -10 -15 -2 0 -4 7 -4 15 0 8 4 15 10 15 5
0 7 -7 4 -15z m550 -7 c2 -10 0 -18 -5 -18 -5 0 -9 4 -9 10 0 5 -6 7 -14 4 -7
-3 -16 1 -18 8 -4 8 3 13 18 13 13 0 25 -7 28 -17z m805 12 c20 10 21 10 9 -9
-6 -11 -16 -17 -21 -14 -5 3 -13 0 -17 -7 -5 -7 -7 -2 -7 15 0 16 3 22 7 15 6
-9 13 -9 29 0z m-399 -15 c0 -6 -9 -11 -20 -11 -11 0 -20 5 -20 11 0 6 9 11
20 11 11 0 20 -5 20 -11z m-1140 -5 c0 -5 -2 -10 -4 -10 -3 0 -8 5 -11 10 -3
6 -1 10 4 10 6 0 11 -4 11 -10z m936 -5 c-11 -8 -15 -19 -10 -27 6 -10 5 -11
-8 -1 -8 7 -17 11 -19 8 -3 -2 -5 5 -6 15 -1 16 5 20 30 20 30 -1 31 -2 13
-15z m414 3 c0 -4 -4 -8 -10 -8 -5 0 -10 -7 -10 -15 0 -8 -7 -15 -16 -15 -14
0 -14 3 -4 16 11 12 11 15 0 12 -7 -2 -14 2 -17 9 -3 7 7 11 26 11 17 -1 31
-5 31 -10z m365 2 c3 -5 -1 -10 -9 -10 -9 0 -16 5 -16 10 0 6 4 10 9 10 6 0
13 -4 16 -10z m35 0 c0 -5 -4 -10 -10 -10 -5 0 -10 5 -10 10 0 6 5 10 10 10 6
0 10 -4 10 -10z m-1650 -26 c0 -2 -9 0 -20 6 -11 6 -20 13 -20 16 0 2 9 0 20
-6 11 -6 20 -13 20 -16z m86 -16 c-19 -13 -24 -9 -19 11 4 16 8 17 18 8 9 -9
10 -14 1 -19z m256 7 c-4 -21 -7 -23 -25 -14 -20 11 -20 12 4 25 13 7 25 13
25 14 1 0 -1 -11 -4 -25z m-397 6 c3 -5 1 -12 -5 -16 -5 -3 -10 1 -10 9 0 18
6 21 15 7z m1685 -6 c0 -8 -2 -15 -4 -15 -2 0 -6 7 -10 15 -3 8 -1 15 4 15 6
0 10 -7 10 -15z m-1120 -15 c-7 -4 -9 -13 -6 -19 8 -13 -3 -14 -22 -2 -11 7
-10 9 3 15 9 3 13 10 10 16 -4 6 1 7 10 3 12 -4 13 -8 5 -13z m226 -18 c-4 -3
-14 2 -24 13 -9 10 -12 15 -5 11 6 -3 15 -1 20 6 5 10 8 8 11 -5 2 -10 1 -21
-2 -25z m179 28 c4 -6 12 -8 18 -4 7 3 4 -1 -7 -10 -10 -8 -15 -20 -10 -27 5
-8 3 -10 -5 -5 -7 5 -10 14 -7 21 2 7 -1 18 -7 24 -8 8 -8 11 0 11 7 0 15 -5
18 -10z m225 -5 c-10 -12 -10 -15 4 -15 9 0 16 -4 16 -10 0 -12 -19 -9 -36 5
-13 11 0 35 18 35 6 0 5 -7 -2 -15z m185 -13 c-10 -2 -14 -10 -11 -19 5 -12 4
-13 -7 -5 -8 7 -17 9 -20 5 -4 -3 -7 -1 -7 5 0 7 7 12 16 12 10 0 14 6 10 15
-4 12 -2 13 15 2 17 -10 17 -13 4 -15z m215 13 c-10 -12 -9 -15 6 -15 12 0 15
-3 8 -8 -6 -4 -14 -14 -17 -22 -4 -10 -6 -8 -6 8 -1 12 -6 22 -12 22 -8 0 -8
5 1 15 7 8 17 15 22 15 6 0 5 -7 -2 -15z m185 -13 c-10 -2 -14 -10 -11 -19 5
-12 4 -13 -7 -5 -8 7 -17 9 -20 5 -4 -3 -7 -1 -7 5 0 7 7 12 16 12 10 0 14 6
10 15 -4 12 -2 13 15 2 17 -10 17 -13 4 -15z m-1725 -2 c0 -5 -2 -10 -4 -10
-3 0 -8 5 -11 10 -3 6 -1 10 4 10 6 0 11 -4 11 -10z m30 -10 c0 -5 -5 -10 -11
-10 -5 0 -7 5 -4 10 3 6 8 10 11 10 2 0 4 -4 4 -10z m210 -45 c0 -2 -7 -1 -17
2 -10 4 -14 2 -9 -5 4 -7 -1 -10 -13 -9 -15 1 -20 8 -19 23 2 21 4 22 30 8 15
-8 28 -17 28 -19z m809 19 c-10 -13 -10 -17 2 -25 11 -7 11 -9 0 -9 -7 0 -11
-6 -8 -13 4 -10 -4 -14 -24 -14 -15 0 -25 5 -22 10 3 5 -1 13 -8 18 -10 6 -11
9 -1 9 6 0 12 7 12 16 0 8 4 12 10 9 5 -3 18 -1 27 4 25 14 27 13 12 -5z m386
2 c13 6 16 4 10 -5 -4 -8 -2 -17 6 -22 12 -7 12 -9 0 -9 -7 0 -11 -6 -8 -14 4
-10 -2 -13 -19 -12 -13 0 -24 7 -24 14 0 6 -6 12 -12 13 -10 0 -10 2 0 6 6 2
12 14 12 26 0 15 3 18 8 9 5 -8 16 -10 27 -6z m-799 -12 c-3 -18 -16 -31 -16
-15 0 7 -5 9 -10 6 -6 -4 -8 -10 -5 -15 3 -4 -1 -10 -8 -13 -8 -3 -14 1 -14 9
0 8 5 14 10 14 5 0 7 6 4 14 -4 9 2 14 18 14 13 0 22 -6 21 -14z m604 2 c0
-11 -19 -15 -25 -6 -3 5 1 10 9 10 9 0 16 -2 16 -4z m390 -6 c0 -5 -2 -10 -4
-10 -3 0 -8 5 -11 10 -3 6 -1 10 4 10 6 0 11 -4 11 -10z m0 -30 c0 -5 -5 -10
-11 -10 -5 0 -7 5 -4 10 3 6 8 10 11 10 2 0 4 -4 4 -10z m-1625 -10 c-3 -5
-11 -10 -16 -10 -6 0 -7 5 -4 10 3 6 11 10 16 10 6 0 7 -4 4 -10z m-41 -32
c-10 -16 -33 -8 -31 11 1 15 4 17 18 8 10 -6 15 -15 13 -19z m126 12 c13 -9
13 -11 0 -20 -21 -14 -26 -12 -27 10 -2 22 5 25 27 10z m250 -16 c0 -8 -4 -14
-9 -14 -6 0 -9 9 -8 19 1 22 17 18 17 -5z m168 -12 c-9 -10 -13 -10 -19 0 -4
7 -3 18 3 26 9 10 13 10 19 0 4 -7 3 -18 -3 -26z m243 21 c2 1 -1 -2 -7 -8 -6
-5 -9 -17 -6 -25 4 -12 3 -13 -10 -3 -8 7 -18 10 -21 6 -4 -3 -7 -1 -7 5 0 7
7 12 16 12 11 0 14 5 10 16 -5 13 -4 14 7 6 8 -7 16 -11 18 -9z m162 0 c-5
-13 -2 -15 18 -10 l24 6 -25 -19 c-30 -23 -48 -26 -30 -5 10 12 10 15 -4 15
-9 0 -16 5 -16 11 0 5 4 8 9 4 5 -3 12 -1 16 5 10 16 15 12 8 -7z m225 -13
c-1 -22 -4 -27 -13 -20 -6 5 -14 9 -16 7 -2 -1 2 3 9 10 8 6 11 16 7 22 -3 6
-2 11 4 11 5 0 9 -13 9 -30z m176 15 c-4 -10 0 -15 12 -15 16 0 15 -2 -4 -16
-13 -9 -26 -13 -29 -10 -4 3 -1 6 5 6 7 0 12 5 12 10 0 6 -7 10 -15 10 -21 0
-19 18 3 23 9 3 18 5 19 6 1 0 0 -6 -3 -14z m246 -6 c0 -5 -5 -9 -11 -9 -6 0
-9 -7 -5 -15 3 -8 1 -15 -4 -15 -6 0 -10 5 -10 11 0 6 -8 8 -17 5 -16 -5 -16
-4 1 8 10 8 15 19 12 24 -3 6 2 8 14 5 11 -3 20 -9 20 -14z m157 7 c-3 -8 1
-16 9 -18 12 -2 11 -5 -4 -14 -16 -10 -18 -8 -16 15 2 30 2 31 10 31 3 0 4 -6
1 -14z m-887 -46 c0 -5 -4 -10 -10 -10 -5 0 -10 5 -10 10 0 6 5 10 10 10 6 0
10 -4 10 -10z m400 -5 c0 -8 5 -15 10 -15 6 0 10 -4 10 -8 0 -5 -13 -9 -30 -9
-16 0 -30 4 -30 9 0 4 7 8 15 8 9 0 12 6 9 15 -4 8 -1 15 5 15 6 0 11 -7 11
-15z m400 -1 c0 -8 -5 -12 -10 -9 -6 4 -8 11 -5 16 9 14 15 11 15 -7z m-1418
-18 c16 -12 16 -14 -9 -25 -22 -10 -25 -10 -15 2 9 10 9 16 0 25 -16 16 3 15
24 -2z m817 -2 c6 4 11 1 11 -6 0 -8 -9 -14 -20 -14 -14 0 -20 7 -20 21 0 15
2 17 9 6 5 -7 14 -10 20 -7z m405 6 c9 7 19 10 23 6 3 -3 1 -6 -5 -6 -7 0 -12
-6 -12 -13 0 -7 -9 -13 -20 -13 -14 0 -20 7 -20 21 0 16 2 17 9 6 8 -12 12
-13 25 -1z m-800 -16 c3 -8 -3 -12 -15 -11 -10 1 -19 6 -19 12 0 16 28 15 34
-1z m216 7 c0 -5 -13 -9 -30 -9 -16 1 -30 5 -30 10 0 4 14 8 30 8 17 0 30 -4
30 -9z m770 -1 c0 -5 -7 -10 -15 -10 -8 0 -15 5 -15 10 0 6 7 10 15 10 8 0 15
-4 15 -10z m30 0 c0 -5 -4 -10 -10 -10 -5 0 -10 5 -10 10 0 6 5 10 10 10 6 0
10 -4 10 -10z m-1695 -30 c-3 -5 -12 -10 -18 -10 -7 0 -6 4 3 10 19 12 23 12
15 0z m560 -11 c4 -6 14 -8 24 -4 12 5 13 3 4 -6 -9 -9 -17 -8 -34 5 -13 9
-18 16 -12 16 7 0 15 -5 18 -11z m230 1 c-3 -5 -11 -10 -16 -10 -6 0 -7 5 -4
10 3 6 11 10 16 10 6 0 7 -4 4 -10z m205 -26 c0 -2 -11 2 -25 8 -14 6 -25 15
-25 20 0 5 11 1 25 -8 14 -9 25 -18 25 -20z m195 26 c-3 -5 -11 -10 -16 -10
-6 0 -7 5 -4 10 3 6 11 10 16 10 6 0 7 -4 4 -10z m170 0 c3 -5 1 -10 -4 -10
-6 0 -11 5 -11 10 0 6 2 10 4 10 3 0 8 -4 11 -10z m235 6 c0 -3 -4 -8 -10 -11
-5 -3 -10 -1 -10 4 0 6 5 11 10 11 6 0 10 -2 10 -4z m165 -6 c3 -5 1 -10 -4
-10 -6 0 -11 5 -11 10 0 6 2 10 4 10 3 0 8 -4 11 -10z m-1815 -10 c8 -5 11
-10 5 -10 -5 0 -17 5 -25 10 -8 5 -10 10 -5 10 6 0 17 -5 25 -10z m110 -20 c0
-5 -7 -10 -16 -10 -8 0 -12 5 -9 10 3 6 10 10 16 10 5 0 9 -4 9 -10z m430 -33
c0 -5 -6 -5 -13 2 -8 6 -16 8 -19 5 -3 -2 -8 2 -11 10 -5 13 -2 13 18 4 14 -6
25 -16 25 -21z m787 16 c5 3 15 -3 21 -14 12 -19 11 -19 -8 -9 -11 6 -25 8
-30 5 -6 -3 -10 4 -10 17 0 17 3 19 9 9 5 -7 13 -11 18 -8z m216 -1 c20 10 21
10 8 -5 -17 -22 -45 -22 -62 0 -10 11 -10 14 -1 9 7 -4 12 -2 12 6 0 8 5 6 11
-5 8 -14 14 -15 32 -5z m185 2 c5 3 12 0 15 -8 4 -9 -2 -13 -17 -12 -14 1 -23
8 -24 21 -1 15 1 16 7 6 5 -7 13 -11 19 -7z m-788 -9 c0 -5 -11 -11 -24 -11
-15 -1 -23 3 -20 10 6 14 44 16 44 1z m206 8 c17 9 18 9 5 -6 -17 -21 -45 -22
-61 -2 -11 14 -10 14 12 6 16 -6 31 -5 44 2z m-402 -18 c3 -10 0 -12 -11 -8
-11 4 -14 2 -9 -5 8 -13 5 -15 -18 -6 -8 3 -13 11 -10 18 6 17 41 17 48 1z
m-517 -22 c-4 -3 -1 -13 6 -21 11 -13 9 -14 -10 -1 -16 9 -19 16 -10 21 15 9
23 10 14 1z m1303 3 c0 -2 -7 -7 -16 -10 -8 -3 -12 -2 -9 4 6 10 25 14 25 6z
m-1555 -24 c-3 -3 -11 0 -18 7 -9 10 -8 11 6 5 10 -3 15 -9 12 -12z m666 -15
c-13 -13 -26 -3 -16 12 3 6 11 8 17 5 6 -4 6 -10 -1 -17z"/>
<path d="M1590 1695 c0 -9 5 -15 11 -13 6 2 11 8 11 13 0 5 -5 11 -11 13 -6 2
-11 -4 -11 -13z"/>
<path d="M1190 1695 c0 -8 5 -15 10 -15 6 0 10 7 10 15 0 8 -4 15 -10 15 -5 0
-10 -7 -10 -15z"/>
<path d="M990 1345 c0 -8 5 -15 10 -15 6 0 10 7 10 15 0 8 -4 15 -10 15 -5 0
-10 -7 -10 -15z"/>
<path d="M587 1354 c-11 -11 3 -24 18 -18 8 4 12 10 9 15 -6 11 -18 12 -27 3z"/>
<path d="M1390 1345 c0 -8 5 -15 10 -15 6 0 10 7 10 15 0 8 -4 15 -10 15 -5 0
-10 -7 -10 -15z"/>
<path d="M1792 1351 c4 -13 18 -16 19 -4 0 4 -5 9 -11 12 -7 2 -11 -2 -8 -8z"/>
<path d="M1190 1000 c0 -5 5 -10 10 -10 6 0 10 5 10 10 0 6 -4 10 -10 10 -5 0
-10 -4 -10 -10z"/>
<path d="M1590 1000 c0 -5 5 -10 10 -10 6 0 10 5 10 10 0 6 -4 10 -10 10 -5 0
-10 -4 -10 -10z"/>
<path d="M1390 655 c0 -9 5 -15 11 -13 6 2 11 8 11 13 0 5 -5 11 -11 13 -6 2
-11 -4 -11 -13z"/>
<path d="M1790 655 c0 -9 5 -15 11 -13 6 2 11 8 11 13 0 5 -5 11 -11 13 -6 2
-11 -4 -11 -13z"/>
<path d="M1190 305 c0 -8 5 -15 10 -15 6 0 10 7 10 15 0 8 -4 15 -10 15 -5 0
-10 -7 -10 -15z"/>
<path d="M1590 305 c0 -9 5 -15 11 -13 6 2 11 8 11 13 0 5 -5 11 -11 13 -6 2
-11 -4 -11 -13z"/>
</g>
</svg>
