<?xml version="1.0" standalone="no"?>
<!DOCTYPE svg PUBLIC "-//W3C//DTD SVG 20010904//EN"
 "http://www.w3.org/TR/2001/REC-SVG-20010904/DTD/svg10.dtd">
<svg version="1.0" xmlns="http://www.w3.org/2000/svg"
 width="200.000000pt" height="200.000000pt" viewBox="0 0 200.000000 200.000000"
 preserveAspectRatio="xMidYMid meet">
<metadata>
Created by potrace 1.16, written by Peter Selinger 2001-2019
</metadata>
<g transform="translate(0.000000,200.000000) scale(0.100000,-0.100000)"
fill="#000000" stroke="none">
<path d="M0 1967 c0 -18 6 -39 13 -46 10 -11 10 -13 0 -7 -10 6 -13 -41 -13
-219 0 -178 3 -225 13 -219 10 6 10 4 0 -7 -9 -9 -13 -49 -13 -124 l0 -112 50
-27 c28 -15 50 -30 50 -32 0 -3 -21 6 -46 20 -26 14 -48 26 -50 26 -2 0 -4
-99 -4 -221 0 -206 1 -221 18 -215 16 6 16 5 0 -8 -15 -11 -18 -30 -18 -123 0
-73 4 -113 13 -122 9 -11 9 -13 0 -7 -10 6 -13 -41 -13 -219 0 -178 3 -225 12
-219 11 6 11 4 0 -7 -6 -7 -12 -28 -12 -46 l0 -33 194 0 c146 0 196 3 199 13
4 9 6 9 6 0 1 -10 128 -13 601 -13 l600 0 0 34 c0 23 -7 39 -22 50 l-23 17 23
-11 c20 -10 37 -4 123 45 l99 57 0 114 0 113 -30 16 c-41 21 -38 29 4 9 l33
-16 97 56 96 57 0 111 c0 94 -3 113 -18 124 -15 13 -15 13 0 8 16 -5 17 19 17
334 l1 340 -99 57 -100 56 -93 -53 -93 -54 -2 -123 c-1 -89 -5 -126 -14 -132
-7 -4 -17 -5 -21 -3 -12 8 1 24 15 18 9 -3 11 24 9 113 -3 107 -5 120 -25 136
l-22 18 23 -11 c20 -10 36 -4 123 45 l99 56 2 97 2 97 5 -99 6 -98 90 -53 90
-53 3 114 c1 63 1 164 0 224 l-3 108 -92 -54 c-58 -34 -93 -61 -94 -72 0 -14
-2 -14 -8 3 -6 16 -1 23 28 38 20 11 66 37 104 59 62 36 67 41 67 73 l0 35
-194 0 c-194 0 -195 0 -199 -22 l-4 -23 -2 23 -1 22 -599 0 c-470 0 -600 -3
-604 -12 -4 -10 -6 -10 -6 0 -1 9 -47 12 -196 12 l-195 0 0 -33z m1610 -30 c0
-8 -12 -19 -27 -26 l-28 -13 25 25 c30 30 30 30 30 14z m-1199 -14 c9 -11 10
-14 2 -10 -7 5 -27 1 -45 -8 -27 -13 -29 -13 -13 -1 11 8 25 20 30 25 6 6 11
10 11 11 1 0 8 -8 15 -17z m415 -9 c18 -14 18 -15 -3 -4 -18 8 -30 7 -53 -5
-38 -19 -40 -11 -2 9 34 19 34 19 58 0z m400 0 c18 -14 18 -15 -3 -4 -17 8
-29 8 -45 0 -22 -11 -22 -10 -4 4 11 9 23 16 26 16 3 0 15 -7 26 -16z m434
-20 c0 -2 -9 0 -20 6 -11 6 -20 13 -20 16 0 2 9 0 20 -6 11 -6 20 -13 20 -16z
m-1590 -10 c0 -2 -9 0 -20 6 -11 6 -20 13 -20 16 0 2 9 0 20 -6 11 -6 20 -13
20 -16z m420 -10 c0 -2 -13 2 -30 11 -16 9 -30 18 -30 21 0 2 14 -2 30 -11 17
-9 30 -18 30 -21z m400 0 c0 -2 -9 0 -20 6 -11 6 -20 13 -20 16 0 2 9 0 20 -6
11 -6 20 -13 20 -16z m260 21 c0 -2 -13 -11 -30 -20 -38 -19 -40 -11 -2 9 31
17 32 18 32 11z m160 -31 c0 -2 -13 2 -30 11 -16 9 -30 18 -30 21 0 2 14 -2
30 -11 17 -9 30 -18 30 -21z m240 31 c0 -2 -10 -9 -22 -15 -22 -11 -22 -10 -4
4 21 17 26 19 26 11z m-1220 -10 c0 -2 -13 -11 -30 -20 -38 -19 -40 -11 -2 9
31 17 32 18 32 11z m400 0 c0 -2 -13 -11 -30 -20 -38 -19 -40 -11 -2 9 31 17
32 18 32 11z m1000 -31 c0 -2 -13 2 -30 11 -16 9 -30 18 -30 21 0 2 14 -2 30
-11 17 -9 30 -18 30 -21z m-1590 -10 c0 -2 -9 0 -20 6 -11 6 -20 13 -20 16 0
2 9 0 20 -6 11 -6 20 -13 20 -16z m420 -10 c0 -2 -13 2 -30 11 -16 9 -30 18
-30 21 0 2 14 -2 30 -11 17 -9 30 -18 30 -21z m940 31 c0 -2 -13 -11 -30 -20
-38 -19 -40 -11 -2 9 31 17 32 18 32 11z m-540 -31 c0 -2 -9 0 -20 6 -11 6
-20 13 -20 16 0 2 9 0 20 -6 11 -6 20 -13 20 -16z m120 21 c0 -2 -13 -11 -30
-20 -38 -19 -40 -11 -2 9 31 17 32 18 32 11z m300 -31 c0 -2 -13 2 -30 11 -16
9 -30 18 -30 21 0 2 14 -2 30 -11 17 -9 30 -18 30 -21z m-1120 22 c0 -2 -15
-13 -33 -24 -33 -19 -34 -19 -58 0 l-24 19 26 -12 c21 -9 32 -8 55 5 32 17 34
18 34 12z m400 -1 c0 -2 -10 -9 -22 -15 -22 -11 -22 -10 -4 4 21 17 26 19 26
11z m1120 -21 c0 -2 -9 0 -20 6 -11 6 -20 13 -20 16 0 2 9 0 20 -6 11 -6 20
-13 20 -16z m-1179 -12 c-7 -2 -18 1 -23 6 -8 8 -4 9 13 5 13 -4 18 -8 10 -11z
m400 0 c-7 -2 -18 1 -23 6 -8 8 -4 9 13 5 13 -4 18 -8 10 -11z m419 3 c-7 -8
-17 -12 -23 -8 -6 4 -3 9 9 14 27 11 28 11 14 -6z m-1223 -107 c-2 -18 -4 -6
-4 27 0 33 2 48 4 33 2 -15 2 -42 0 -60z m400 40 c-3 -7 -5 -2 -5 12 0 14 2
19 5 13 2 -7 2 -19 0 -25z m-400 -125 c-3 -10 -5 -4 -5 12 0 17 2 24 5 18 2
-7 2 -21 0 -30z m113 -110 c0 -2 -25 10 -57 28 l-56 32 -51 -28 c-60 -33 -57
-26 5 14 l44 27 57 -34 c32 -19 58 -36 58 -39z m350 31 c0 -3 -14 3 -31 11
-17 9 -38 14 -46 10 -13 -4 -14 -3 -4 9 11 13 17 12 47 -6 19 -11 34 -22 34
-24z m759 32 c10 -12 8 -13 -8 -9 -12 3 -18 9 -15 14 7 12 10 11 23 -5z m-379
-16 c22 -11 40 -23 40 -25 0 -5 -79 32 -89 41 -11 10 14 2 49 -16z m-60 5 c0
-2 -13 -11 -30 -20 -38 -19 -40 -11 -2 9 31 17 32 18 32 11z m400 0 c0 -2 -13
-11 -30 -20 -38 -19 -40 -11 -2 9 31 17 32 18 32 11z m-820 -10 c0 -2 -10 -9
-22 -15 -22 -11 -22 -10 -4 4 21 17 26 19 26 11z m920 -21 c0 -2 -9 0 -20 6
-11 6 -20 13 -20 16 0 2 9 0 20 -6 11 -6 20 -13 20 -16z m-750 -30 c0 -2 -13
2 -30 11 -16 9 -30 18 -30 21 0 2 14 -2 30 -11 17 -9 30 -18 30 -21z m180 21
c0 -2 -13 -11 -30 -20 -38 -19 -40 -11 -2 9 31 17 32 18 32 11z m240 -31 c0
-2 -13 2 -30 11 -16 9 -30 18 -30 21 0 2 14 -2 30 -11 17 -9 30 -18 30 -21z
m160 31 c0 -2 -10 -9 -22 -15 -22 -11 -22 -10 -4 4 21 17 26 19 26 11z m240
-31 c0 -2 -13 2 -30 11 -16 9 -30 18 -30 21 0 2 14 -2 30 -11 17 -9 30 -18 30
-21z m-1460 21 c0 -2 -13 -11 -30 -20 -38 -19 -40 -11 -2 9 31 17 32 18 32 11z
m400 1 c0 -6 -87 -56 -97 -56 -4 0 15 14 42 30 53 31 55 32 55 26z m-110 -42
c0 -2 -9 0 -20 6 -11 6 -20 13 -20 16 0 2 9 0 20 -6 11 -6 20 -13 20 -16z
m400 0 c0 -2 -9 0 -20 6 -11 6 -20 13 -20 16 0 2 9 0 20 -6 11 -6 20 -13 20
-16z m480 21 c0 -2 -14 -11 -30 -20 -23 -12 -35 -13 -50 -5 -11 6 -20 13 -20
16 0 2 9 0 20 -6 15 -8 27 -7 47 4 32 17 33 18 33 11z m-434 -20 c-11 -8 -25
-15 -30 -15 -6 1 0 7 14 15 32 19 40 18 16 0z m-429 -122 c-2 -16 -4 -5 -4 22
0 28 2 40 4 28 2 -13 2 -35 0 -50z m21 -131 c16 -12 15 -12 -2 -4 -14 7 -28 4
-53 -10 -18 -11 -33 -17 -33 -14 0 3 14 12 30 21 26 14 30 21 32 63 l1 47 4
-44 c3 -26 11 -51 21 -59z m412 -6 c0 -2 -9 -2 -19 1 -10 3 -30 0 -42 -7 -24
-11 -24 -11 1 9 18 14 29 17 42 10 10 -5 18 -11 18 -13z m386 15 c18 -18 185
-111 195 -108 6 1 10 -46 10 -123 0 -97 -3 -125 -13 -125 -14 0 -134 -65 -181
-97 -19 -14 -31 -17 -40 -10 -7 6 -52 33 -100 61 l-89 51 -44 -26 c-24 -14
-44 -24 -44 -21 0 3 20 17 45 31 l45 27 0 107 c0 73 -4 112 -12 121 -8 9 -9
12 -1 7 10 -5 172 80 198 105 5 5 12 9 15 9 3 0 10 -4 16 -9z m774 -6 c0 -2
-13 -11 -30 -20 -38 -19 -40 -11 -2 9 31 17 32 18 32 11z m-353 -20 c0 -8 -4
-12 -9 -9 -5 3 -6 10 -3 15 9 13 12 11 12 -6z m-1137 -31 c0 -2 -13 2 -30 11
-16 9 -30 18 -30 21 0 2 14 -2 30 -11 17 -9 30 -18 30 -21z m1165 27 c3 -5 2
-12 -3 -15 -5 -3 -9 1 -9 9 0 17 3 19 12 6z m-765 -27 c0 -2 -9 0 -20 6 -11 6
-20 13 -20 16 0 2 9 0 20 -6 11 -6 20 -13 20 -16z m644 5 c-3 -5 -10 -7 -15
-3 -5 3 -7 10 -3 15 3 5 10 7 15 3 5 -3 7 -10 3 -15z m-1237 -2 c-123 -80
-111 -75 -132 -54 -20 19 -20 20 2 8 19 -9 31 -6 80 24 54 32 91 49 50 22z
m413 8 c0 -2 -10 -9 -22 -15 -22 -11 -22 -10 -4 4 21 17 26 19 26 11z m964 -7
c-5 -7 -2 -9 8 -6 8 4 15 0 15 -7 0 -10 -5 -11 -19 -4 -16 9 -17 29 -2 29 3 0
2 -5 -2 -12z m236 7 c0 -2 -10 -9 -22 -15 -22 -11 -22 -10 -4 4 21 17 26 19
26 11z m60 0 c0 -2 -10 -9 -22 -15 -22 -11 -22 -10 -4 4 21 17 26 19 26 11z
m-1830 -41 c0 -2 -9 0 -20 6 -11 6 -20 13 -20 16 0 2 9 0 20 -6 11 -6 20 -13
20 -16z m400 0 c0 -2 -9 0 -20 6 -11 6 -20 13 -20 16 0 2 9 0 20 -6 11 -6 20
-13 20 -16z m420 -10 c0 -2 -13 2 -30 11 -16 9 -30 18 -30 21 0 2 14 -2 30
-11 17 -9 30 -18 30 -21z m765 27 c3 -5 2 -12 -3 -15 -5 -3 -9 1 -9 9 0 17 3
19 12 6z m-1065 -5 c0 -2 -16 -14 -36 -26 -29 -16 -39 -18 -48 -9 -8 9 -8 10
1 5 6 -3 27 3 45 14 35 21 38 22 38 16z m804 -17 c-3 -5 -10 -7 -15 -3 -5 3
-7 10 -3 15 3 5 10 7 15 3 5 -3 7 -10 3 -15z m280 -1 c-5 -8 -2 -9 12 -4 10 4
15 4 11 0 -4 -4 -1 -14 6 -22 9 -11 5 -11 -15 2 -23 15 -30 36 -12 36 3 0 2
-5 -2 -12z m96 7 c0 -2 -10 -9 -22 -15 -22 -11 -22 -10 -4 4 21 17 26 19 26
11z m60 0 c0 -2 -10 -9 -22 -15 -22 -11 -22 -10 -4 4 21 17 26 19 26 11z m-55
-35 c-3 -5 -12 -10 -18 -10 -7 0 -6 4 3 10 19 12 23 12 15 0z m-1658 -102 c-2
-13 -4 -3 -4 22 0 25 2 35 4 23 2 -13 2 -33 0 -45z m0 -70 c-3 -8 -6 -5 -6 6
-1 11 2 17 5 13 3 -3 4 -12 1 -19z m3 -48 c0 -5 -10 -15 -22 -21 l-23 -12 20
21 c23 24 25 25 25 12z m1590 -6 c0 -8 -4 -13 -9 -10 -5 3 -12 -1 -15 -10 -3
-8 -11 -12 -17 -8 -8 5 -4 13 12 25 29 23 29 23 29 3z m-1156 -15 c20 -12 36
-23 36 -26 0 -3 -16 4 -36 16 -28 17 -40 19 -57 10 -21 -10 -21 -10 -3 5 24
19 18 20 60 -5z m-364 -25 c0 -2 -13 2 -30 11 -16 9 -30 18 -30 21 0 2 14 -2
30 -11 17 -9 30 -18 30 -21z m1640 10 c0 -2 -9 0 -20 6 -11 6 -20 13 -20 16 0
2 9 0 20 -6 11 -6 20 -13 20 -16z m-436 -5 c-3 -5 -10 -7 -15 -3 -5 3 -7 10
-3 15 3 5 10 7 15 3 5 -3 7 -10 3 -15z m-1324 6 c0 -2 -13 -11 -30 -20 -38
-19 -40 -11 -2 9 31 17 32 18 32 11z m395 -4 c-16 -14 -105 -63 -105 -58 0 5
101 66 110 67 2 0 0 -4 -5 -9z m1345 -17 c0 -2 -9 0 -20 6 -11 6 -20 13 -20
16 0 2 9 0 20 -6 11 -6 20 -13 20 -16z m-174 4 c4 -6 3 -8 -3 -5 -6 4 -14 0
-17 -9 -3 -8 -11 -12 -17 -8 -9 5 -6 11 6 21 23 16 22 16 31 1z m-1396 -24 c0
-2 -9 0 -20 6 -11 6 -20 13 -20 16 0 2 9 0 20 -6 11 -6 20 -13 20 -16z m420
-10 c0 -2 -13 2 -30 11 -16 9 -30 18 -30 21 0 2 14 -2 30 -11 17 -9 30 -18 30
-21z m774 24 c-5 -8 -2 -9 9 -5 17 6 31 -5 20 -16 -9 -9 -44 13 -38 24 4 5 8
9 11 9 3 0 2 -5 -2 -12z m-614 -3 c0 -2 -13 -11 -30 -20 -38 -19 -40 -11 -2 9
31 17 32 18 32 11z m-820 -10 c0 -2 -10 -9 -22 -15 -22 -11 -22 -10 -4 4 21
17 26 19 26 11z m336 -33 c18 9 18 9 1 -6 -17 -13 -22 -12 -53 6 -19 11 -34
22 -34 25 0 3 15 -4 33 -15 25 -14 39 -17 53 -10z m1228 7 c-3 -5 -10 -7 -15
-3 -5 3 -7 10 -3 15 3 5 10 7 15 3 5 -3 7 -10 3 -15z m-828 -7 c18 9 18 9 0
-6 -16 -13 -21 -13 -42 1 -13 8 -24 18 -24 20 0 3 10 -2 23 -10 17 -11 29 -12
43 -5z m799 -13 c-4 -5 -14 -5 -26 1 -11 6 -17 15 -14 21 4 5 14 5 26 -1 11
-6 17 -15 14 -21z m-1218 -71 c-3 -8 -6 -5 -6 6 -1 11 2 17 5 13 3 -3 4 -12 1
-19z m0 -110 c-3 -7 -5 -2 -5 12 0 14 2 19 5 13 2 -7 2 -19 0 -25z m27 -61
c21 -17 21 -17 -6 -6 -18 8 -28 19 -27 33 0 14 2 16 6 6 3 -8 15 -23 27 -33z
m402 -3 c18 -14 18 -15 -3 -4 -18 8 -30 7 -53 -5 -38 -19 -40 -11 -2 9 34 19
34 19 58 0z m400 0 c18 -14 18 -15 -3 -4 -18 8 -30 7 -53 -5 -38 -19 -40 -11
-2 9 34 19 34 19 58 0z m383 12 c-2 -2 -15 -9 -29 -15 -24 -11 -24 -11 -6 3
16 13 49 24 35 12z m-1229 -10 c0 -2 -37 -25 -82 -52 -46 -26 -88 -53 -94 -60
-8 -10 -13 -9 -21 6 -10 15 -9 17 5 14 9 -3 55 18 102 45 89 53 90 53 90 47z
m1280 -22 c0 -2 -9 0 -20 6 -11 6 -20 13 -20 16 0 2 9 0 20 -6 11 -6 20 -13
20 -16z m-1570 -20 c0 -2 -13 2 -30 11 -16 9 -30 18 -30 21 0 2 14 -2 30 -11
17 -9 30 -18 30 -21z m400 0 c0 -2 -9 0 -20 6 -11 6 -20 13 -20 16 0 2 9 0 20
-6 11 -6 20 -13 20 -16z m420 -10 c0 -2 -13 2 -30 11 -16 9 -30 18 -30 21 0 2
14 -2 30 -11 17 -9 30 -18 30 -21z m640 31 c0 -2 -13 -11 -30 -20 -38 -19 -40
-11 -2 9 31 17 32 18 32 11z m-820 -10 c0 -2 -10 -9 -22 -15 -22 -11 -22 -10
-4 4 21 17 26 19 26 11z m395 -4 c-16 -14 -105 -63 -105 -58 0 5 101 66 110
67 2 0 0 -4 -5 -9z m185 -17 c0 -2 -9 0 -20 6 -11 6 -20 13 -20 16 0 2 9 0 20
-6 11 -6 20 -13 20 -16z m400 0 c0 -2 -9 0 -20 6 -11 6 -20 13 -20 16 0 2 9 0
20 -6 11 -6 20 -13 20 -16z m-1550 -30 c0 -2 -13 2 -30 11 -16 9 -30 18 -30
21 0 2 14 -2 30 -11 17 -9 30 -18 30 -21z m400 0 c0 -2 -13 2 -30 11 -16 9
-30 18 -30 21 0 2 14 -2 30 -11 17 -9 30 -18 30 -21z m440 -22 c-8 -3 -80 37
-80 44 0 2 20 -6 44 -18 24 -13 40 -24 36 -26z m480 43 c0 -2 -10 -9 -22 -15
-22 -11 -22 -10 -4 4 21 17 26 19 26 11z m-820 -10 c0 -2 -10 -9 -22 -15 -22
-11 -22 -10 -4 4 21 17 26 19 26 11z m720 -21 c0 -2 -9 0 -20 6 -11 6 -20 13
-20 16 0 2 9 0 20 -6 11 -6 20 -13 20 -16z m-776 -16 c-3 -5 -12 -4 -20 3 -19
16 -18 18 6 12 11 -3 17 -9 14 -15z m816 7 c-7 -8 -17 -12 -23 -8 -6 4 -3 9 9
14 27 11 28 11 14 -6z m-1223 -72 c-3 -10 -5 -4 -5 12 0 17 2 24 5 18 2 -7 2
-21 0 -30z m0 -65 c-3 -7 -5 -2 -5 12 0 14 2 19 5 13 2 -7 2 -19 0 -25z m0
-40 c-3 -8 -6 -5 -6 6 -1 11 2 17 5 13 3 -3 4 -12 1 -19z m110 -118 c57 -32
97 -49 105 -44 10 6 10 5 2 -7 -7 -8 -14 -23 -17 -34 -4 -17 -5 -16 -6 5 -1
21 -18 34 -96 79 -52 29 -102 51 -110 47 -12 -4 -13 -2 -3 14 9 15 14 16 22 6
6 -7 52 -37 103 -66z m1111 58 c11 -14 10 -16 -7 -11 -12 3 -17 11 -14 19 3 8
6 14 7 12 1 -2 7 -11 14 -20z m-814 3 c3 -5 -3 -11 -15 -14 -16 -4 -18 -3 -8
9 13 16 16 17 23 5z m381 -17 c-72 -38 -90 -46 -82 -38 14 15 82 52 97 53 8 0
2 -6 -15 -15z m-325 -20 c0 -2 -9 0 -20 6 -11 6 -20 13 -20 16 0 2 9 0 20 -6
11 -6 20 -13 20 -16z m420 -10 c0 -2 -13 2 -30 11 -16 9 -30 18 -30 21 0 2 14
-2 30 -11 17 -9 30 -18 30 -21z m300 31 c0 -2 -13 -11 -30 -20 -38 -19 -40
-11 -2 9 31 17 32 18 32 11z m-820 -10 c0 -2 -10 -9 -22 -15 -22 -11 -22 -10
-4 4 21 17 26 19 26 11z m920 -21 c0 -2 -9 0 -20 6 -11 6 -20 13 -20 16 0 2 9
0 20 -6 11 -6 20 -13 20 -16z m-1340 11 c0 -2 -10 -9 -22 -15 -22 -11 -22 -10
-4 4 21 17 26 19 26 11z m590 -41 c0 -2 -9 0 -20 6 -11 6 -20 13 -20 16 0 2 9
0 20 -6 11 -6 20 -13 20 -16z m420 -10 c0 -2 -13 2 -30 11 -16 9 -30 18 -30
21 0 2 14 -2 30 -11 17 -9 30 -18 30 -21z m160 31 c0 -2 -13 -11 -30 -20 -38
-19 -40 -11 -2 9 31 17 32 18 32 11z m-1220 -10 c0 -2 -13 -11 -30 -20 -38
-19 -40 -11 -2 9 31 17 32 18 32 11z m400 0 c0 -2 -13 -11 -30 -20 -38 -19
-40 -11 -2 9 31 17 32 18 32 11z m400 0 c0 -2 -10 -9 -22 -15 -22 -11 -22 -10
-4 4 21 17 26 19 26 11z m660 -21 c0 -2 -9 0 -20 6 -11 6 -20 13 -20 16 0 2 9
0 20 -6 11 -6 20 -13 20 -16z m-730 -14 c11 6 20 8 20 6 0 -3 -9 -10 -20 -16
-15 -8 -27 -7 -50 5 -16 9 -30 18 -30 21 0 2 14 -2 30 -11 23 -12 35 -13 50
-5z m403 0 c21 11 21 10 3 -4 -11 -9 -23 -16 -26 -16 -3 0 -15 7 -26 16 -18
14 -18 15 4 4 16 -8 28 -8 45 0z"/>
<path d="M1103 1167 l-93 -52 0 -115 0 -115 96 -53 95 -54 99 57 c55 31 103
54 107 52 4 -3 8 48 8 113 0 65 -3 116 -7 113 -5 -2 -52 21 -106 51 -54 31
-100 56 -103 56 -2 -1 -46 -24 -96 -53z m294 -109 c-3 -7 -5 -2 -5 12 0 14 2
19 5 13 2 -7 2 -19 0 -25z m0 -70 c-3 -7 -5 -2 -5 12 0 14 2 19 5 13 2 -7 2
-19 0 -25z m0 -80 c-3 -8 -6 -5 -6 6 -1 11 2 17 5 13 3 -3 4 -12 1 -19z"/>
<path d="M1898 468 l-88 -51 0 -113 0 -112 89 -51 c48 -28 91 -51 95 -51 3 0
6 97 6 215 0 118 -3 215 -7 215 -5 0 -47 -24 -95 -52z"/>
<path d="M1703 124 c-89 -52 -93 -56 -93 -89 l0 -35 195 0 195 0 0 34 c0 32
-4 37 -96 90 -53 31 -99 56 -103 56 -3 -1 -48 -25 -98 -56z"/>
</g>
</svg>
