<?xml version="1.0" standalone="no"?>
<!DOCTYPE svg PUBLIC "-//W3C//DTD SVG 20010904//EN"
 "http://www.w3.org/TR/2001/REC-SVG-20010904/DTD/svg10.dtd">
<svg version="1.0" xmlns="http://www.w3.org/2000/svg"
 width="200.000000pt" height="200.000000pt" viewBox="0 0 200.000000 200.000000"
 preserveAspectRatio="xMidYMid meet">
<metadata>
Created by potrace 1.16, written by Peter Selinger 2001-2019
</metadata>
<g transform="translate(0.000000,200.000000) scale(0.100000,-0.100000)"
fill="#000000" stroke="none">
<path d="M0 1979 c0 -13 4 -18 12 -13 10 6 10 5 1 -7 -7 -9 -12 -59 -12 -135
l-1 -120 87 -50 c49 -27 92 -51 96 -52 4 -2 6 45 5 105 -3 101 -4 108 -23 106
-19 -1 -19 -1 -3 11 10 7 15 16 11 20 -4 3 8 1 25 -5 35 -12 45 -24 10 -14
-18 6 -20 4 -14 -11 4 -11 8 -69 9 -130 l2 -112 -30 -10 c-30 -11 -30 -11 -9
7 l22 18 -36 19 c-20 10 -40 18 -44 17 -4 -2 -8 1 -8 5 0 5 -22 21 -50 36
l-49 27 0 -465 c-1 -360 2 -465 12 -469 9 -4 9 -7 0 -18 -15 -16 -18 -73 -3
-64 5 3 10 2 10 -4 0 -5 -5 -11 -11 -13 -6 -2 -9 -22 -7 -48 3 -40 4 -42 19
-28 9 9 21 13 28 9 8 -6 2 -12 -18 -21 -35 -14 -41 -43 -14 -60 17 -11 17 -11
1 -6 -16 5 -18 -3 -18 -80 0 -65 3 -83 12 -78 10 6 10 4 0 -8 -9 -11 -12 -59
-11 -175 l1 -160 150 -1 c127 -1 149 1 144 13 -7 20 6 26 21 10 10 -11 10 -15
0 -18 -7 -3 81 -5 195 -6 147 -1 208 2 208 10 0 8 4 8 13 1 8 -7 83 -10 202
-10 180 0 188 1 168 17 l-21 18 22 13 c19 12 20 12 8 -2 -11 -14 -9 -19 10
-32 27 -19 144 -23 132 -4 -4 7 -3 8 5 4 6 -4 20 -2 29 6 15 11 16 11 4 -3
-12 -16 2 -17 178 -17 124 0 188 3 184 10 -4 6 0 6 13 0 11 -6 86 -10 176 -10
149 0 157 1 157 20 0 12 -4 17 -12 12 -10 -6 -10 -4 0 7 17 18 17 130 -1 123
-8 -3 -13 3 -13 15 0 15 4 17 13 10 9 -8 12 17 12 116 1 102 -2 125 -12 117
-10 -8 -13 -6 -13 9 0 12 5 18 13 15 10 -4 13 7 13 42 0 30 -3 42 -9 33 -5 -8
-11 -9 -15 -3 -3 5 1 12 9 16 8 3 15 10 15 16 0 6 -4 9 -8 6 -5 -3 -9 1 -9 9
0 8 4 12 9 9 5 -3 8 40 7 95 -1 79 -4 101 -15 101 -8 0 -14 5 -14 11 0 6 7 9
15 5 12 -4 15 4 15 41 0 42 -1 44 -17 32 -16 -12 -17 -12 -6 2 10 12 10 18 0
29 -10 12 -9 12 5 1 17 -13 18 -9 17 57 -1 60 -4 70 -18 66 -13 -5 -13 -4 2 6
12 8 17 24 17 57 0 37 -3 44 -12 35 -7 -7 -17 -12 -22 -12 -6 0 -3 5 7 11 15
9 16 13 5 27 -12 15 -11 16 5 3 16 -12 17 -10 17 32 0 36 -3 45 -14 41 -8 -3
-17 -1 -21 5 -3 7 2 11 13 11 19 0 20 8 21 165 1 152 -1 164 -17 159 -16 -5
-16 -5 0 5 14 10 17 30 17 132 1 109 -1 120 -16 115 -16 -6 -16 -5 0 12 14 15
17 36 16 99 l-1 80 -156 1 c-88 0 -165 -4 -175 -10 -14 -7 -17 -7 -13 1 9 14
-204 14 -221 -1 -9 -7 -13 -7 -13 0 0 5 -31 10 -71 11 -67 1 -71 0 -58 -17 13
-15 12 -16 -3 -4 -9 8 -23 10 -29 6 -8 -4 -9 -3 -5 4 12 19 -105 15 -132 -4
-19 -13 -21 -18 -10 -32 12 -14 11 -14 -8 -2 l-22 13 22 18 c20 17 17 17 -96
17 -115 0 -137 -6 -101 -27 10 -6 13 -11 7 -11 -6 0 -21 9 -34 20 -13 11 -36
20 -51 20 -26 0 -28 -3 -27 -33 1 -44 -6 -54 -49 -72 -32 -13 -34 -17 -22 -33
12 -15 12 -16 -2 -5 -13 10 -28 6 -85 -23 -39 -20 -70 -31 -72 -24 -2 5 -9 7
-14 4 -6 -4 -8 -2 -5 3 7 11 -104 83 -128 83 -7 0 -15 6 -18 13 -3 9 -7 9 -19
-1 -11 -9 -18 -10 -23 -2 -3 6 -12 8 -18 4 -7 -3 -1 3 12 14 13 10 21 24 17
30 -4 6 2 8 14 5 21 -5 29 -25 9 -20 -6 1 -13 -3 -15 -8 -3 -6 10 -10 30 -10
19 1 33 -2 30 -6 -6 -11 112 -79 137 -79 11 0 17 -4 14 -10 -3 -5 -3 -10 0
-10 11 0 100 54 103 62 2 4 10 8 19 8 23 0 73 59 73 86 0 19 -5 24 -26 24 -16
0 -23 -4 -18 -12 4 -7 3 -8 -5 -4 -6 4 -20 2 -29 -6 -15 -12 -16 -11 -3 4 12
17 6 18 -105 17 -66 -1 -124 -5 -131 -10 -7 -7 -14 -6 -18 1 -10 16 -107 12
-133 -5 -20 -14 -21 -14 -16 0 5 13 -5 15 -68 15 -45 0 -79 -5 -87 -12 -11
-10 -13 -10 -7 0 5 9 -4 12 -34 12 -29 0 -39 -4 -34 -12 4 -7 3 -8 -5 -4 -6 4
-20 2 -29 -6 -15 -12 -16 -11 -3 5 12 15 11 17 -13 17 -20 0 -26 -5 -26 -21z
m1512 -1 c-9 -9 -9 -15 1 -26 10 -13 9 -14 -10 -2 -20 13 -20 15 -5 27 21 16
30 17 14 1z m188 2 c0 -5 -2 -10 -4 -10 -3 0 -8 5 -11 10 -3 6 -1 10 4 10 6 0
11 -4 11 -10z m211 -4 c-9 -11 -8 -15 5 -20 9 -4 14 -9 11 -12 -3 -3 -14 0
-25 7 -19 12 -19 14 -4 26 22 16 27 16 13 -1z m-1784 -10 c0 -8 -6 -12 -15 -9
-11 5 -11 7 0 14 7 5 13 9 14 9 0 0 1 -6 1 -14z m388 -4 c-3 -3 -11 0 -18 7
-9 10 -8 11 6 5 10 -3 15 -9 12 -12z m822 4 c0 -8 -6 -12 -15 -9 -11 5 -11 7
0 14 7 5 13 9 14 9 0 0 1 -6 1 -14z m-1047 0 c0 -2 -7 -7 -16 -10 -8 -3 -12
-2 -9 4 6 10 25 14 25 6z m915 -14 c-3 -3 -11 0 -18 7 -9 10 -8 11 6 5 10 -3
15 -9 12 -12z m405 3 c0 -2 -6 -5 -13 -8 -8 -3 -14 1 -14 8 0 7 6 11 14 8 7
-3 13 -6 13 -8z m-895 -5 c3 -5 1 -10 -4 -10 -6 0 -11 5 -11 10 0 6 2 10 4 10
3 0 8 -4 11 -10z m-676 -46 c-13 -16 -23 -19 -14 -4 3 6 2 10 -3 10 -5 0 -9 7
-9 14 0 12 5 13 19 5 15 -8 17 -13 7 -25z m569 10 c1 0 -10 -6 -25 -13 -21 -9
-25 -10 -16 -1 6 7 9 20 5 29 -5 14 -4 14 14 1 10 -8 20 -15 22 -16z m377 15
c4 -6 13 -8 21 -5 8 3 14 -1 14 -10 0 -13 -4 -13 -30 1 -30 16 -38 25 -21 25
6 0 13 -5 16 -11z m421 -16 c-6 -6 -36 9 -36 18 0 5 9 4 20 -3 10 -7 18 -14
16 -15z m34 23 c0 -3 -4 -8 -10 -11 -5 -3 -10 -1 -10 4 0 6 5 11 10 11 6 0 10
-2 10 -4z m352 -32 c-9 -7 -19 -10 -22 -7 -3 3 1 8 8 10 10 4 10 8 0 21 -12
14 -11 14 9 2 20 -13 20 -15 5 -26z m48 32 c0 -3 -4 -8 -10 -11 -5 -3 -10 -1
-10 4 0 6 5 11 10 11 6 0 10 -2 10 -4z m-1646 -27 c-8 -14 -21 -11 -21 5 0 8
6 12 14 9 7 -3 10 -9 7 -14z m1045 5 c12 -11 -11 -15 -24 -4 -12 10 -18 10
-30 0 -9 -8 -15 -8 -15 -2 0 19 50 23 69 6z m392 6 c6 0 7 -5 4 -10 -5 -8 -12
-7 -22 1 -12 10 -16 10 -23 -1 -5 -8 -12 -11 -17 -7 -10 11 18 28 35 22 8 -3
18 -5 23 -5z m-801 -10 c0 -5 -2 -10 -4 -10 -3 0 -8 5 -11 10 -3 6 -1 10 4 10
6 0 11 -4 11 -10z m1160 0 c0 -5 -7 -10 -16 -10 -8 0 -12 5 -9 10 3 6 10 10
16 10 5 0 9 -4 9 -10z m-555 -10 c3 -5 1 -10 -4 -10 -6 0 -11 5 -11 10 0 6 2
10 4 10 3 0 8 -4 11 -10z m400 0 c3 -5 1 -10 -4 -10 -6 0 -11 5 -11 10 0 6 2
10 4 10 3 0 8 -4 11 -10z m-945 -20 c0 -5 -4 -10 -10 -10 -5 0 -10 5 -10 10 0
6 5 10 10 10 6 0 10 -4 10 -10z m830 -22 c0 -5 -11 -1 -25 8 -14 9 -25 18 -25
20 0 2 11 -2 25 -8 14 -6 25 -15 25 -20z m-1596 7 c-6 -16 -24 -21 -24 -7 0
11 11 22 21 22 5 0 6 -7 3 -15z m164 -3 c2 -7 -1 -12 -8 -12 -6 0 -9 4 -6 9 4
5 1 12 -4 14 -6 3 -5 4 2 3 6 -1 14 -8 16 -14z m47 0 c-3 -3 -11 0 -18 7 -9
10 -8 11 6 5 10 -3 15 -9 12 -12z m769 4 c-10 -8 -21 -12 -24 -10 -5 6 21 24
34 24 6 0 1 -6 -10 -14z m212 -1 c10 -8 14 -15 7 -15 -6 0 -15 5 -18 11 -4 6
-14 8 -22 5 -8 -3 -11 -1 -8 4 8 14 18 13 41 -5z m203 12 c-2 -2 -17 -11 -34
-21 l-30 -17 24 20 c13 12 28 21 34 21 6 0 8 -1 6 -3z m376 -15 c-3 -3 -11 0
-18 7 -9 10 -8 11 6 5 10 -3 15 -9 12 -12z m-1742 -17 c-7 -21 -13 -19 -13 6
0 11 4 18 10 14 5 -3 7 -12 3 -20z m772 15 c3 -5 2 -10 -4 -10 -5 0 -13 5 -16
10 -3 6 -2 10 4 10 5 0 13 -4 16 -10z m-531 -22 c-3 -4 -9 -8 -15 -8 -5 0 -9
4 -9 8 0 5 7 9 15 9 8 0 12 -4 9 -9z m436 2 c0 -5 -5 -10 -11 -10 -5 0 -7 5
-4 10 3 6 8 10 11 10 2 0 4 -4 4 -10z m366 -10 c8 0 14 -5 14 -10 0 -7 -6 -7
-20 0 -11 6 -20 16 -19 23 0 9 2 9 6 0 2 -7 11 -13 19 -13z m-396 -5 c0 -2 -6
-5 -13 -8 -8 -3 -14 1 -14 8 0 7 6 11 14 8 7 -3 13 -6 13 -8z m194 3 c-3 -4 0
-8 5 -8 6 0 11 5 11 11 0 5 5 7 10 4 16 -10 0 -27 -21 -22 -10 3 -19 1 -21 -4
-2 -5 -8 -1 -14 9 -10 15 -8 18 12 18 12 0 20 -4 18 -8z m401 2 c-8 -13 -3
-13 32 1 23 8 26 8 15 -3 -7 -7 -26 -13 -42 -14 -30 -1 -40 10 -17 19 18 8 19
8 12 -3z m443 -7 c-8 -10 -14 -10 -25 -2 -7 7 -16 9 -20 5 -3 -3 -1 -6 5 -6 7
0 12 -5 12 -10 0 -6 -8 -5 -20 2 -23 15 -10 26 30 24 22 0 26 -4 18 -13z
m-228 2 c0 -2 -10 -10 -22 -16 -21 -11 -22 -11 -9 4 13 16 31 23 31 12z m-383
-37 c-3 -7 -5 -2 -5 12 0 14 2 19 5 13 2 -7 2 -19 0 -25z m400 0 c-3 -7 -5 -2
-5 12 0 14 2 19 5 13 2 -7 2 -19 0 -25z m-1514 8 c14 2 16 0 7 -11 -9 -11 -16
-12 -30 -3 -10 7 -16 16 -13 21 3 5 8 5 12 -1 3 -5 14 -8 24 -6z m182 -5 c3
-5 1 -12 -5 -16 -5 -3 -10 1 -10 9 0 18 6 21 15 7z m710 -1 c-3 -5 -12 -10
-18 -10 -7 0 -6 4 3 10 19 12 23 12 15 0z m320 0 c-3 -5 -11 -10 -16 -10 -6 0
-7 5 -4 10 3 6 11 10 16 10 6 0 7 -4 4 -10z m385 -10 c-24 -15 -36 -11 -14 4
10 8 21 12 24 10 2 -3 -2 -9 -10 -14z m-1203 -17 c-3 -3 -11 -2 -17 2 -9 6 -9
10 1 16 14 8 27 -7 16 -18z m220 12 c0 -5 -10 -11 -22 -11 -12 -1 -22 4 -22
11 0 7 10 12 22 11 12 0 22 -5 22 -11z m380 7 c9 -6 7 -12 -7 -22 -15 -11 -17
-17 -7 -29 10 -12 9 -12 -10 -1 -19 12 -20 15 -6 25 9 7 13 17 9 23 -8 14 3
15 21 4z m303 0 c0 -5 -7 -9 -15 -9 -8 0 -12 4 -9 9 3 4 9 8 15 8 5 0 9 -4 9
-8z m110 -10 c-8 -3 -21 -11 -28 -19 -7 -7 -19 -13 -25 -13 -6 0 -1 7 11 16
12 8 20 19 17 24 -3 4 5 6 17 2 16 -4 18 -7 8 -10z m290 10 c0 -5 -7 -9 -15
-9 -8 0 -12 4 -9 9 3 4 9 8 15 8 5 0 9 -4 9 -8z m-1550 -22 c0 -5 -2 -10 -4
-10 -3 0 -8 5 -11 10 -3 6 -1 10 4 10 6 0 11 -4 11 -10z m659 -4 c9 -10 8 -15
-2 -19 -8 -3 -13 3 -14 14 -2 23 1 24 16 5z m418 -11 c1 0 -8 -7 -20 -14 -19
-13 -20 -12 -10 1 10 11 10 17 0 28 -10 11 -8 11 8 0 11 -8 21 -15 22 -15z
m-672 -3 c-3 -3 -11 0 -18 7 -9 10 -8 11 6 5 10 -3 15 -9 12 -12z m-370 -2 c3
-5 1 -10 -4 -10 -6 0 -11 5 -11 10 0 6 2 10 4 10 3 0 8 -4 11 -10z m136 -9
c-6 -10 -7 -22 -3 -26 4 -4 -3 -3 -15 4 -30 15 -33 14 -33 -9 0 -20 -14 -27
-24 -11 -3 5 1 14 9 21 8 7 13 16 10 20 -3 5 3 6 14 3 10 -3 22 0 25 6 13 20
27 12 17 -8z m367 -2 c8 -3 6 -8 -7 -16 -16 -10 -18 -9 -18 14 0 14 2 21 6 16
3 -6 12 -12 19 -14z m1092 11 c8 -5 12 -11 10 -14 -3 -2 -14 2 -24 10 -22 15
-10 19 14 4z m-293 -8 c9 -5 6 -12 -10 -21 -20 -13 -21 -13 -9 1 10 13 10 17
0 21 -7 3 -8 6 -3 6 6 0 15 -3 22 -7z m-383 -8 c9 -3 16 -11 16 -16 0 -6 -6
-5 -15 2 -12 10 -18 10 -30 0 -9 -8 -15 -8 -15 -2 0 6 6 13 13 15 6 3 13 6 14
6 1 1 8 -2 17 -5z m456 -40 c0 -2 -11 2 -25 8 -14 6 -25 15 -25 20 0 5 11 1
25 -8 14 -9 25 -18 25 -20z m-832 5 c-20 -13 -28 -11 -22 5 3 8 12 12 21 9 12
-5 12 -7 1 -14z m317 3 c-3 -3 -11 0 -18 7 -9 10 -8 11 6 5 10 -3 15 -9 12
-12z m405 3 c0 -2 -6 -5 -13 -8 -8 -3 -14 1 -14 8 0 7 6 11 14 8 7 -3 13 -6
13 -8z m-782 -9 c21 -11 22 -14 8 -25 -13 -11 -16 -11 -16 2 0 9 -8 21 -17 26
-26 15 -2 13 25 -3z m1182 10 c0 -2 -7 -7 -16 -10 -8 -3 -12 -2 -9 4 6 10 25
14 25 6z m-745 -16 c9 7 15 8 15 2 0 -5 -7 -12 -15 -16 -19 -7 -45 3 -45 16 0
6 6 5 15 -2 12 -10 18 -10 30 0z m377 -26 c-9 -7 -19 -10 -22 -7 -3 3 1 8 8
10 10 4 10 8 0 21 -12 14 -11 14 9 2 20 -13 20 -15 5 -26z m-1296 -8 c0 -22
-3 -23 -20 -14 -27 14 -35 23 -14 15 9 -3 19 0 22 9 8 21 12 17 12 -10z m139
6 c-3 -3 -11 0 -18 7 -9 10 -8 11 6 5 10 -3 15 -9 12 -12z m95 -1 c22 -17 22
-19 5 -18 -13 1 -20 -4 -19 -15 1 -14 -2 -15 -17 -5 -19 12 -19 12 1 21 19 8
19 10 2 22 -9 7 -12 13 -7 13 6 1 21 -8 35 -18z m160 4 c-10 -12 -9 -16 9 -23
l21 -7 -22 -14 c-18 -11 -20 -11 -15 3 4 10 1 19 -8 23 -13 5 -13 7 2 19 24
18 28 17 13 -1z m232 -21 c-9 -7 -19 -10 -22 -8 -2 3 2 9 10 14 10 7 11 10 3
10 -7 0 -13 5 -13 10 0 6 8 5 19 -2 18 -11 18 -13 3 -24z m168 21 c-9 -10 -9
-15 -1 -15 6 0 11 -5 11 -10 0 -6 -8 -5 -19 2 -18 11 -18 13 -3 25 23 17 27
16 12 -2z m247 -10 c1 0 -8 -7 -20 -14 -19 -13 -20 -12 -10 1 10 11 10 17 0
28 -10 11 -8 11 8 0 11 -8 21 -15 22 -15z m153 5 c-10 -7 -11 -10 -2 -10 6 0
12 -5 12 -10 0 -6 -8 -5 -19 2 -18 11 -18 13 -3 24 9 7 19 10 22 8 2 -3 -2 -9
-10 -14z m420 16 c0 -3 -4 -8 -10 -11 -5 -3 -10 -1 -10 4 0 6 5 11 10 11 6 0
10 -2 10 -4z m-1075 -16 c3 -5 1 -10 -4 -10 -6 0 -11 5 -11 10 0 6 2 10 4 10
3 0 8 -4 11 -10z m1040 -8 c-3 -3 -11 0 -18 7 -9 10 -8 11 6 5 10 -3 15 -9 12
-12z m115 14 c0 -3 -4 -8 -10 -11 -5 -3 -10 -1 -10 4 0 6 5 11 10 11 6 0 10
-2 10 -4z m-279 -30 c-9 -11 -9 -15 1 -19 7 -2 -1 -4 -19 -3 -34 1 -34 3 -1
22 31 16 32 16 19 0z m-1094 -20 c0 -8 -6 -12 -15 -9 -11 5 -11 7 0 14 7 5 13
9 14 9 0 0 1 -6 1 -14z m393 4 c0 -5 -4 -10 -9 -10 -6 0 -13 5 -16 10 -3 6 1
10 9 10 9 0 16 -4 16 -10z m400 1 c0 -5 -7 -12 -16 -15 -14 -5 -15 -4 -4 9 14
17 20 19 20 6z m400 0 c0 -5 -7 -12 -16 -15 -14 -5 -15 -4 -4 9 14 17 20 19
20 6z m-485 -19 c-3 -3 -11 0 -18 7 -9 10 -8 11 6 5 10 -3 15 -9 12 -12z
m-931 -22 c6 0 18 6 26 13 12 10 12 9 2 -5 -10 -13 -10 -17 0 -21 7 -2 -1 -4
-18 -3 -25 1 -30 5 -31 26 0 15 1 18 4 8 2 -10 10 -18 17 -18z m1463 -19 c10
-6 14 -10 8 -10 -19 0 -45 26 -44 45 0 17 1 16 9 -3 5 -12 17 -26 27 -32z
m-1057 17 c11 -3 9 -6 -6 -10 -15 -4 -20 0 -22 16 0 11 2 16 6 10 4 -6 14 -13
22 -16z m406 -6 c-4 -3 -14 2 -24 12 -16 18 -16 18 6 6 13 -6 21 -14 18 -18z
m239 -2 c11 -13 13 -20 5 -14 -8 6 -23 10 -33 9 -9 -2 -14 1 -11 7 4 6 -2 8
-17 4 -20 -6 -21 -5 -6 4 9 6 22 8 27 5 6 -3 10 -1 10 6 0 7 1 10 3 8 1 -2 11
-15 22 -29z m159 1 c-2 -3 -12 3 -22 13 -16 17 -16 18 5 5 12 -7 20 -15 17
-18z m196 9 c-24 -15 -36 -11 -14 4 10 8 21 12 24 10 2 -3 -2 -9 -10 -14z
m-1170 -1 c0 -6 -9 -9 -20 -6 -12 3 -24 -1 -30 -11 -8 -15 -9 -15 -10 3 0 16
7 21 30 23 17 1 30 -3 30 -9z m393 2 c13 -2 7 -18 -8 -18 -8 0 -12 4 -9 9 3 4
0 8 -6 8 -6 0 -13 -7 -17 -16 -4 -12 -8 -13 -14 -3 -14 23 1 29 54 20z m-102
-41 c-13 -11 -28 -20 -35 -20 -6 0 3 9 19 19 39 25 46 25 16 1z m-801 0 c0 -5
-4 -10 -10 -10 -5 0 -10 5 -10 10 0 6 5 10 10 10 6 0 10 -4 10 -10z m407 -4
c0 -8 -6 -12 -15 -9 -11 5 -11 7 0 14 7 5 13 9 14 9 0 0 1 -6 1 -14z m195 0
c10 5 10 4 2 -5 -12 -13 -44 -5 -44 11 0 6 6 5 15 -2 8 -6 20 -8 27 -4z m397
-12 c14 -12 -19 -1 -35 12 -18 14 -18 14 6 3 14 -6 27 -13 29 -15z m201 18 c0
-5 -12 -14 -27 -21 l-28 -12 25 21 c29 22 30 23 30 12z m390 -12 c-24 -15 -36
-11 -14 4 10 8 21 12 24 10 2 -3 -2 -9 -10 -14z m190 10 c0 -5 -5 -10 -11 -10
-5 0 -7 5 -4 10 3 6 8 10 11 10 2 0 4 -4 4 -10z m-391 -9 c10 -7 7 -9 -12 -8
-14 1 -23 5 -20 10 6 9 15 9 32 -2z m-1419 -6 c0 -2 -10 -9 -22 -15 -22 -11
-22 -10 -4 4 21 17 26 19 26 11z m235 -5 c3 -6 -1 -7 -9 -4 -18 7 -21 14 -7
14 6 0 13 -4 16 -10z m48 -23 c4 3 7 -5 6 -18 0 -13 -3 -18 -6 -11 -2 6 -10 9
-16 5 -7 -3 -9 -3 -5 2 4 4 2 15 -5 24 -10 14 -10 14 4 4 9 -7 19 -10 22 -6z
m255 -1 c-14 -10 -15 -15 -5 -26 10 -12 9 -12 -5 -1 -15 11 -21 11 -33 1 -8
-7 -15 -8 -15 -3 0 5 15 17 33 26 39 19 48 21 25 3z m808 -34 c-3 -3 -12 1
-21 8 -12 10 -18 10 -30 0 -10 -9 -15 -9 -15 -1 0 6 6 11 13 12 10 0 10 2 0 6
-7 2 -13 9 -13 13 0 5 16 0 35 -12 20 -11 34 -23 31 -26z m356 35 c15 -12 15
-14 -3 -25 -11 -7 -19 -8 -19 -2 0 5 5 10 12 10 6 0 3 7 -8 15 -10 8 -14 14
-9 14 6 0 18 -5 27 -12z m48 9 c0 -3 -4 -8 -10 -11 -5 -3 -10 -1 -10 4 0 6 5
11 10 11 6 0 10 -2 10 -4z m-1805 -16 c-3 -5 -12 -10 -18 -10 -7 0 -6 4 3 10
19 12 23 12 15 0z m179 -5 c-4 -8 -11 -12 -16 -9 -6 4 -5 10 3 15 19 12 19 11
13 -6z m205 -6 c-22 -13 -31 -11 -17 5 7 8 17 12 22 9 4 -3 2 -9 -5 -14z m370
9 c11 -10 14 -10 18 0 5 14 23 17 23 3 0 -5 -6 -11 -14 -14 -18 -7 -56 3 -56
14 0 13 14 11 29 -3z m399 0 c8 -8 15 -8 27 2 8 7 15 8 15 2 0 -16 -30 -23
-51 -12 -10 6 -19 13 -19 15 0 9 16 5 28 -7z m408 -3 c17 -16 14 -18 -10 -9
-9 3 -16 10 -16 15 0 13 9 11 26 -6z m47 1 c4 -10 1 -13 -9 -9 -15 6 -19 23
-5 23 5 0 11 -7 14 -14z m347 2 c0 -4 -4 -8 -9 -8 -6 0 -12 4 -15 8 -3 5 1 9
9 9 8 0 15 -4 15 -9z m-976 -4 c9 -3 16 -11 16 -16 0 -6 -6 -5 -15 2 -12 10
-18 10 -30 0 -9 -8 -15 -8 -15 -2 0 6 6 13 13 15 6 3 13 6 14 6 1 1 8 -2 17
-5z m-834 -14 c0 -5 -5 -10 -11 -10 -5 0 -7 5 -4 10 3 6 8 10 11 10 2 0 4 -4
4 -10z m1655 0 c3 -5 1 -10 -4 -10 -6 0 -11 5 -11 10 0 6 2 10 4 10 3 0 8 -4
11 -10z m-1029 -28 c-4 -3 -14 2 -24 12 -16 18 -16 18 6 6 13 -6 21 -14 18
-18z m-396 8 c0 -5 -4 -10 -10 -10 -5 0 -10 5 -10 10 0 6 5 10 10 10 6 0 10
-4 10 -10z m92 -3 c15 -12 15 -14 -5 -26 -17 -10 -19 -11 -10 -1 10 11 9 16
-5 26 -9 8 -12 13 -7 13 6 0 18 -5 27 -12z m713 3 c-3 -5 -12 -10 -18 -10 -7
0 -6 4 3 10 19 12 23 12 15 0z m296 -3 c-12 -16 4 -37 29 -37 9 0 5 -6 -10
-13 -26 -14 -44 -12 -21 3 11 6 10 11 -7 21 -19 12 -19 14 -4 26 22 16 27 16
13 0z m401 -4 c-10 -4 -10 -8 0 -21 12 -14 11 -14 -9 -2 -20 13 -20 15 -5 26
9 7 19 10 22 7 3 -3 -1 -8 -8 -10z m-1797 -11 c-3 -3 -11 0 -18 7 -9 10 -8 11
6 5 10 -3 15 -9 12 -12z m570 0 c-3 -3 -11 0 -18 7 -9 10 -8 11 6 5 10 -3 15
-9 12 -12z m420 9 c-3 -5 3 -16 14 -23 19 -14 19 -14 0 -26 -11 -7 -19 -8 -19
-2 0 5 6 10 13 10 6 1 2 9 -11 19 -15 13 -18 21 -10 24 19 8 20 8 13 -2z m230
-1 c-3 -5 -12 -10 -18 -10 -7 0 -6 4 3 10 19 12 23 12 15 0z m406 -17 c13 -16
12 -17 -3 -5 -14 12 -21 11 -40 -2 -12 -9 -17 -16 -10 -16 6 0 12 -5 12 -10 0
-6 -8 -5 -20 2 -18 12 -18 13 8 30 33 22 36 22 53 1z m-1405 -20 c-6 -6 -36 9
-36 18 0 5 9 4 20 -3 10 -7 18 -14 16 -15z m386 -9 c-9 -7 -19 -10 -22 -8 -2
3 2 9 10 14 10 7 11 10 3 10 -7 0 -13 5 -13 10 0 6 8 5 19 -2 18 -11 18 -13 3
-24z m169 22 c-9 -11 -8 -15 5 -20 9 -4 14 -9 11 -12 -3 -3 -14 0 -25 7 -19
12 -19 14 -4 26 22 16 27 16 13 -1z m399 -1 c-9 -10 -9 -15 -1 -15 6 0 11 -5
11 -10 0 -6 -8 -5 -19 2 -18 11 -18 13 -3 25 23 17 27 16 12 -2z m-1210 -8 c0
-7 -9 -13 -21 -13 -19 0 -19 1 -3 13 10 7 19 13 21 13 2 0 3 -6 3 -13z m1355
4 c3 -5 1 -12 -5 -16 -5 -3 -10 1 -10 9 0 18 6 21 15 7z m-1255 -11 c0 -5 -2
-10 -4 -10 -3 0 -8 5 -11 10 -3 6 -1 10 4 10 6 0 11 -4 11 -10z m400 0 c0 -5
-2 -10 -4 -10 -3 0 -8 5 -11 10 -3 6 -1 10 4 10 6 0 11 -4 11 -10z m435 0 c10
9 15 9 15 1 0 -6 -6 -11 -12 -12 -10 0 -10 -2 0 -6 6 -2 12 -9 12 -15 0 -6 -6
-6 -15 2 -12 10 -18 10 -30 0 -10 -9 -15 -9 -15 -1 0 6 6 11 13 12 10 0 10 2
0 6 -7 2 -13 9 -13 15 0 6 6 6 15 -2 12 -10 18 -10 30 0z m380 -23 c-26 -14
-18 -40 10 -35 20 4 25 1 25 -16 0 -17 -2 -18 -10 -6 -5 8 -10 11 -10 7 0 -4
-9 -3 -20 3 -22 12 -28 50 -7 51 10 0 10 2 0 6 -7 2 -13 9 -13 14 0 5 9 4 20
-3 16 -11 17 -14 5 -21z m394 -5 c-11 -7 -17 -17 -14 -22 3 -4 -5 -6 -17 -2
-16 4 -18 7 -8 10 20 7 44 32 31 32 -6 0 -11 5 -11 10 0 6 8 5 19 -2 19 -12
19 -12 0 -26z m51 34 c0 -3 -4 -8 -10 -11 -5 -3 -10 -1 -10 4 0 6 5 11 10 11
6 0 10 -2 10 -4z m-1623 -22 c0 -7 -6 -10 -14 -7 -7 3 -13 8 -13 12 0 4 6 8
13 8 8 0 14 -6 14 -13z m90 -6 c-3 -8 -6 -5 -6 6 -1 11 2 17 5 13 3 -3 4 -12
1 -19z m198 4 c-3 -3 -11 0 -18 7 -9 10 -8 11 6 5 10 -3 15 -9 12 -12z m115
-2 c8 -5 12 -11 10 -14 -3 -2 -14 2 -24 10 -22 15 -10 19 14 4z m-450 -15 c-9
-10 -9 -15 -1 -15 6 0 11 -9 11 -20 0 -11 -4 -20 -10 -20 -5 0 -7 7 -4 15 4 8
-1 17 -10 21 -15 6 -15 8 1 20 24 18 28 17 13 -1z m1040 5 c0 -5 -2 -10 -4
-10 -3 0 -8 5 -11 10 -3 6 -1 10 4 10 6 0 11 -4 11 -10z m410 6 c0 -11 -19
-15 -25 -6 -3 5 1 10 9 10 9 0 16 -2 16 -4z m-1406 -41 c-7 -16 -24 -21 -24
-6 0 8 7 13 27 20 1 1 0 -6 -3 -14z m406 0 c-14 -17 -30 -20 -30 -6 0 5 8 12
18 14 9 3 19 5 21 6 2 0 -2 -6 -9 -14z m1210 -5 c0 -18 -3 -19 -22 -9 -22 12
-22 12 -3 20 11 4 21 8 23 8 1 1 2 -8 2 -19z m-820 0 c0 -5 -4 -10 -10 -10 -5
0 -10 5 -10 10 0 6 5 10 10 10 6 0 10 -4 10 -10z m-517 -16 c-4 -10 2 -17 17
-21 15 -4 18 -8 9 -13 -7 -5 -18 -2 -26 5 -15 16 -18 45 -3 45 5 0 7 -7 3 -16z
m1031 -17 c-19 -7 -22 -12 -14 -22 9 -11 7 -12 -9 -8 -27 7 -27 20 0 28 15 5
18 10 9 20 -10 12 -7 12 14 2 l25 -12 -25 -8z m166 18 c-7 -8 -17 -15 -23 -15
-6 0 -2 7 9 15 25 19 30 19 14 0z m230 5 c0 -5 -2 -10 -4 -10 -3 0 -8 5 -11
10 -3 6 -1 10 4 10 6 0 11 -4 11 -10z m-1840 -15 c0 -9 -6 -12 -16 -8 -13 5
-13 7 -2 14 17 11 18 11 18 -6z m385 5 c3 -5 1 -10 -4 -10 -6 0 -11 5 -11 10
0 6 2 10 4 10 3 0 8 -4 11 -10z m660 -13 c-10 -8 -15 -19 -11 -25 8 -14 4 -15
-18 -6 -9 3 -16 11 -16 17 0 6 3 8 6 4 4 -3 13 0 21 8 8 8 19 15 26 15 6 0 3
-6 -8 -13z m-818 -29 c-3 -7 -5 -2 -5 12 0 14 2 19 5 13 2 -7 2 -19 0 -25z
m416 -6 c7 -9 6 -11 -7 -6 -9 3 -16 16 -15 28 0 14 2 16 6 6 3 -8 10 -21 16
-28z m177 18 c0 -11 -4 -20 -8 -20 -4 0 -8 9 -8 20 0 11 4 20 8 20 4 0 8 -9 8
-20z m800 1 c0 -10 -6 -21 -14 -24 -11 -4 -11 -1 -2 19 13 29 16 30 16 5z
m216 -1 c0 -12 -4 -16 -9 -11 -5 5 -6 14 -3 20 10 15 12 14 12 -9z m-1226 6
c0 -3 -4 -8 -10 -11 -5 -3 -10 -1 -10 4 0 6 5 11 10 11 6 0 10 -2 10 -4z m640
-6 c0 -5 -2 -10 -4 -10 -3 0 -8 5 -11 10 -3 6 -1 10 4 10 6 0 11 -4 11 -10z
m-920 -10 c0 -5 -4 -10 -10 -10 -5 0 -10 5 -10 10 0 6 5 10 10 10 6 0 10 -4
10 -10z m400 0 c0 -5 -4 -10 -10 -10 -5 0 -10 5 -10 10 0 6 5 10 10 10 6 0 10
-4 10 -10z m400 0 c0 -5 -4 -10 -10 -10 -5 0 -10 5 -10 10 0 6 5 10 10 10 6 0
10 -4 10 -10z m400 0 c0 -5 -4 -10 -10 -10 -5 0 -10 5 -10 10 0 6 5 10 10 10
6 0 10 -4 10 -10z m182 -23 c15 -12 15 -14 -5 -26 -17 -10 -19 -11 -10 -1 10
11 9 16 -5 26 -9 8 -12 13 -7 13 6 0 18 -5 27 -12z m-1362 -18 c0 -12 -17 -11
-25 1 -4 6 -16 4 -31 -6 -22 -15 -24 -15 -18 -1 9 24 74 29 74 6z m150 2 c0
-10 -6 -21 -14 -24 -11 -4 -11 -1 -2 19 13 29 16 30 16 5z m216 2 c0 -12 -8
-18 -24 -18 l-23 0 22 18 c11 9 22 17 23 17 1 0 2 -8 2 -17z m631 -15 c-3 -7
-5 -2 -5 12 0 14 2 19 5 13 2 -7 2 -19 0 -25z m217 6 c4 -11 2 -12 -14 -4 -27
14 -34 29 -11 23 11 -3 22 -11 25 -19z m-1614 6 c0 -5 -4 -10 -10 -10 -5 0
-10 5 -10 10 0 6 5 10 10 10 6 0 10 -4 10 -10z m180 0 c0 -5 -4 -10 -10 -10
-5 0 -10 5 -10 10 0 6 5 10 10 10 6 0 10 -4 10 -10z m411 -7 c13 -17 13 -17
-6 -3 -11 8 -22 16 -24 17 -2 2 0 3 6 3 6 0 17 -8 24 -17z m209 7 c0 -5 -4
-10 -10 -10 -5 0 -10 5 -10 10 0 6 5 10 10 10 6 0 10 -4 10 -10z m180 6 c0 -3
-4 -8 -10 -11 -5 -3 -10 -1 -10 4 0 6 5 11 10 11 6 0 10 -2 10 -4z m182 -8
c-9 -9 -15 -9 -24 0 -9 9 -7 12 12 12 19 0 21 -3 12 -12z m42 3 c3 -5 -3 -11
-13 -14 -14 -3 -18 -1 -14 9 6 16 19 18 27 5z m175 6 c-2 -1 -13 -9 -24 -17
-19 -14 -19 -14 -6 3 7 9 18 17 24 17 6 0 8 -1 6 -3z m181 -7 c0 -5 -4 -10
-10 -10 -5 0 -10 5 -10 10 0 6 5 10 10 10 6 0 10 -4 10 -10z m-1410 -9 c0 -5
-7 -12 -16 -15 -14 -5 -15 -4 -4 9 14 17 20 19 20 6z m140 -31 c0 -5 -4 -10
-10 -10 -5 0 -10 5 -10 10 0 6 5 10 10 10 6 0 10 -4 10 -10z m196 -17 c-6 -6
-36 9 -36 18 0 5 9 4 20 -3 10 -7 18 -14 16 -15z m204 17 c0 -5 -4 -10 -10
-10 -5 0 -10 5 -10 10 0 6 5 10 10 10 6 0 10 -4 10 -10z m196 -17 c-6 -6 -36
9 -36 18 0 5 9 4 20 -3 10 -7 18 -14 16 -15z m194 7 c-24 -15 -36 -11 -14 4
10 8 21 12 24 10 2 -3 -2 -9 -10 -14z m185 10 c3 -5 1 -10 -4 -10 -6 0 -11 5
-11 10 0 6 2 10 4 10 3 0 8 -4 11 -10z m215 -10 c-24 -15 -36 -11 -14 4 10 8
21 12 24 10 2 -3 -2 -9 -10 -14z m190 10 c0 -5 -4 -10 -10 -10 -5 0 -10 5 -10
10 0 6 5 10 10 10 6 0 10 -4 10 -10z m210 -10 c-24 -15 -36 -11 -14 4 10 8 21
12 24 10 2 -3 -2 -9 -10 -14z m-1790 0 c0 -5 -5 -10 -11 -10 -5 0 -7 5 -4 10
3 6 8 10 11 10 2 0 4 -4 4 -10z m-80 -4 c0 -2 -7 -7 -16 -10 -8 -3 -12 -2 -9
4 6 10 25 14 25 6z m380 -31 c-9 -10 -9 -15 -1 -15 6 0 11 -5 11 -10 0 -6 -8
-5 -19 2 -18 11 -18 13 -3 25 23 17 27 16 12 -2z m400 -5 c-24 -15 -36 -11
-14 4 10 8 21 12 24 10 2 -3 -2 -9 -10 -14z m386 -7 c-6 -6 -36 9 -36 18 0 5
9 4 20 -3 10 -7 18 -14 16 -15z m409 17 c9 7 18 11 21 8 3 -3 -11 -15 -31 -26
-19 -12 -35 -17 -35 -12 0 6 5 10 11 10 8 0 7 6 -2 18 -13 15 -12 16 4 3 14
-11 20 -11 32 -1z m-1435 -10 c0 -5 -2 -10 -4 -10 -3 0 -8 5 -11 10 -3 6 -1
10 4 10 6 0 11 -4 11 -10z m37 -4 c-10 -8 -15 -20 -11 -30 7 -18 4 -19 -20
-10 -9 3 -16 11 -16 17 0 6 3 8 6 5 3 -4 14 2 25 13 10 10 22 19 27 19 4 0 -1
-7 -11 -14z m368 4 c4 -7 13 -7 26 0 14 8 19 7 19 -3 0 -9 -9 -13 -25 -12 -14
2 -25 -1 -25 -6 0 -5 7 -9 15 -9 8 0 15 -4 15 -10 0 -15 -16 -12 -30 5 -7 8
-17 12 -24 8 -7 -4 -6 -1 1 9 7 8 10 18 6 21 -3 4 -1 7 5 7 6 0 14 -5 17 -10z
m408 -2 c4 -10 8 -10 15 1 5 7 16 11 23 9 10 -3 8 -8 -7 -16 -22 -12 -64 -6
-64 9 0 14 28 11 33 -3z m400 0 c4 -10 7 -10 18 0 15 14 29 16 29 3 0 -11 -38
-21 -56 -14 -8 3 -14 9 -14 14 0 14 18 11 23 -3z m397 2 c0 -5 -4 -10 -10 -10
-5 0 -10 5 -10 10 0 6 5 10 10 10 6 0 10 -4 10 -10z m50 0 c0 -5 -4 -10 -10
-10 -5 0 -10 5 -10 10 0 6 5 10 10 10 6 0 10 -4 10 -10z m-660 -20 c0 -5 -5
-10 -11 -10 -5 0 -7 5 -4 10 3 6 8 10 11 10 2 0 4 -4 4 -10z m55 0 c3 -5 1
-10 -4 -10 -6 0 -11 5 -11 10 0 6 2 10 4 10 3 0 8 -4 11 -10z m-225 -20 c0 -5
-4 -10 -10 -10 -5 0 -10 5 -10 10 0 6 5 10 10 10 6 0 10 -4 10 -10z m130 -23
c0 -1 -11 -2 -24 -2 -13 0 -22 2 -20 4 2 2 -1 10 -7 17 -8 10 -2 9 20 -2 17
-9 31 -16 31 -17z m172 21 c-9 -9 -9 -15 1 -27 11 -14 10 -14 -5 -2 -10 7 -26
10 -35 7 -22 -9 -10 3 19 20 30 16 35 17 20 2z m98 2 c0 -5 -4 -10 -10 -10 -5
0 -10 5 -10 10 0 6 5 10 10 10 6 0 10 -4 10 -10z m90 0 c0 -5 -2 -10 -4 -10
-3 0 -8 5 -11 10 -3 6 -1 10 4 10 6 0 11 -4 11 -10z m210 -5 c-9 -10 -9 -15
-1 -15 6 0 11 -5 11 -10 0 -6 -8 -5 -19 2 -18 11 -18 13 -3 25 23 17 27 16 12
-2z m100 5 c0 -5 -4 -10 -10 -10 -5 0 -10 5 -10 10 0 6 5 10 10 10 6 0 10 -4
10 -10z m90 0 c0 -5 -2 -10 -4 -10 -3 0 -8 5 -11 10 -3 6 -1 10 4 10 6 0 11
-4 11 -10z m-1386 -12 c-4 -6 1 -17 11 -25 11 -7 14 -13 8 -13 -5 0 -20 9 -32
19 -20 18 -21 20 -4 24 10 3 19 5 21 6 2 0 0 -4 -4 -11z m182 -16 c-14 -14
-13 -17 2 -29 15 -11 13 -12 -10 -2 -23 10 -25 13 -12 26 8 8 12 19 9 24 -4 5
1 6 10 3 15 -6 15 -8 1 -22z m839 8 c3 -6 -1 -7 -9 -4 -18 7 -21 14 -7 14 6 0
13 -4 16 -10z m400 0 c3 -6 -1 -7 -9 -4 -18 7 -21 14 -7 14 6 0 13 -4 16 -10z
m-1811 -9 c6 -9 -71 -47 -79 -39 -3 3 8 11 25 18 16 7 30 16 30 21 0 12 17 12
24 0z m173 -11 c1 -11 -2 -20 -8 -20 -5 0 -9 4 -9 10 0 5 -7 7 -15 4 -8 -4
-15 -1 -15 4 0 9 11 14 40 21 3 0 6 -8 7 -19z m653 5 c-7 -8 -17 -15 -23 -15
-6 0 -2 7 9 15 25 19 30 19 14 0z m115 -5 c3 -5 1 -10 -4 -10 -6 0 -11 5 -11
10 0 6 2 10 4 10 3 0 8 -4 11 -10z m415 0 c0 -5 -5 -10 -11 -10 -5 0 -7 5 -4
10 3 6 8 10 11 10 2 0 4 -4 4 -10z m124 -29 c-2 -3 -12 3 -22 13 -16 17 -16
18 5 5 12 -7 20 -15 17 -18z m36 25 c0 -3 -4 -8 -10 -11 -5 -3 -10 -1 -10 4 0
6 5 11 10 11 6 0 10 -2 10 -4z m-840 -21 c0 -2 -7 -5 -15 -9 -9 -3 -15 0 -15
9 0 9 6 12 15 9 8 -4 15 -7 15 -9z m-778 -27 c-7 -7 -12 -8 -12 -2 0 14 12 26
19 19 2 -3 -1 -11 -7 -17z m1211 -3 c-7 -21 -13 -19 -13 6 0 11 4 18 10 14 5
-3 7 -12 3 -20z m577 15 c0 -5 -2 -10 -4 -10 -3 0 -8 5 -11 10 -3 6 -1 10 4
10 6 0 11 -4 11 -10z m-1430 -15 c0 -9 -6 -12 -15 -9 -8 4 -12 10 -9 15 8 14
24 10 24 -6z m380 5 c0 -5 -2 -10 -4 -10 -3 0 -8 5 -11 10 -3 6 -1 10 4 10 6
0 11 -4 11 -10z m97 -7 c0 -7 -4 -10 -8 -8 -4 3 -14 2 -23 -1 -14 -5 -14 -9
-4 -22 12 -14 11 -14 -9 -1 -19 11 -20 15 -8 22 9 4 13 12 10 17 -3 4 6 7 18
6 13 0 24 -6 24 -13z m303 7 c0 -5 -4 -10 -10 -10 -5 0 -10 5 -10 10 0 6 5 10
10 10 6 0 10 -4 10 -10z m814 -5 c11 -8 16 -15 10 -15 -5 0 -18 7 -28 15 -11
8 -16 15 -10 15 5 0 18 -7 28 -15z m-1547 -7 c-2 -7 3 -22 12 -32 16 -19 16
-19 -17 0 -30 17 -31 20 -15 31 21 16 26 16 20 1z m178 -8 c3 -5 1 -10 -4 -10
-6 0 -11 5 -11 10 0 6 2 10 4 10 3 0 8 -4 11 -10z m995 0 c8 -5 11 -10 5 -10
-5 0 -17 5 -25 10 -8 5 -10 10 -5 10 6 0 17 -5 25 -10z m-1395 -20 c3 -5 -1
-10 -10 -10 -9 0 -13 5 -10 10 3 6 8 10 10 10 2 0 7 -4 10 -10z m175 0 c0 -5
-5 -10 -11 -10 -5 0 -7 5 -4 10 3 6 8 10 11 10 2 0 4 -4 4 -10z m711 1 c-10
-7 -9 -11 7 -23 l21 -14 -22 -14 c-19 -12 -21 -11 -9 2 10 12 9 18 -2 28 -9 6
-20 9 -26 5 -5 -3 -10 -2 -10 4 0 5 8 12 18 14 29 8 38 7 23 -2z m236 1 c9 -6
8 -11 -5 -19 -15 -9 -18 -7 -18 8 0 21 5 23 23 11z m427 -7 c-4 -8 -11 -12
-16 -9 -6 4 -5 10 3 15 19 12 19 11 13 -6z m-1454 1 c0 -3 -4 -8 -10 -11 -5
-3 -10 -1 -10 4 0 6 5 11 10 11 6 0 10 -2 10 -4z m630 -11 c0 -2 -6 -5 -13 -8
-8 -3 -14 1 -14 8 0 7 6 11 14 8 7 -3 13 -6 13 -8z m782 -12 c-10 -4 -10 -8 0
-21 12 -14 11 -14 -9 -2 -20 13 -20 15 -5 26 9 7 19 10 22 7 3 -3 -1 -8 -8
-10z m-1682 -14 c0 -6 -4 -7 -10 -4 -5 3 -10 11 -10 16 0 6 5 7 10 4 6 -3 10
-11 10 -16z m487 1 c2 -22 -4 -24 -26 -11 -11 7 -10 11 5 20 11 6 19 11 19 11
1 0 1 -9 2 -20z m203 -4 c0 -2 -8 -6 -18 -8 -12 -4 -18 1 -18 13 0 14 4 15 18
8 10 -5 18 -11 18 -13z m165 6 c-3 -3 -11 0 -18 7 -9 10 -8 11 6 5 10 -3 15
-9 12 -12z m400 0 c-3 -3 -11 0 -18 7 -9 10 -8 11 6 5 10 -3 15 -9 12 -12z
m-1162 -16 c4 -10 1 -13 -9 -9 -7 3 -14 9 -14 14 0 14 17 10 23 -5z m177 4 c0
-5 -4 -10 -10 -10 -5 0 -10 5 -10 10 0 6 5 10 10 10 6 0 10 -4 10 -10z m615 0
c3 -5 1 -10 -4 -10 -6 0 -11 5 -11 10 0 6 2 10 4 10 3 0 8 -4 11 -10z m91 2
c-6 -11 4 -24 34 -46 l25 -18 -25 7 c-14 4 -29 13 -33 19 -6 8 -10 8 -14 -1
-6 -17 -30 -16 -36 1 -4 9 0 12 13 9 10 -3 21 0 24 6 4 6 1 11 -6 11 -9 0 -9
3 2 10 18 12 23 12 16 2z m404 -2 c0 -5 -4 -10 -10 -10 -5 0 -10 5 -10 10 0 6
5 10 10 10 6 0 10 -4 10 -10z m90 0 c0 -5 -5 -10 -11 -10 -5 0 -7 5 -4 10 3 6
8 10 11 10 2 0 4 -4 4 -10z m310 0 c0 -5 -4 -10 -10 -10 -5 0 -10 5 -10 10 0
6 5 10 10 10 6 0 10 -4 10 -10z m90 0 c0 -5 -5 -10 -11 -10 -5 0 -7 5 -4 10 3
6 8 10 11 10 2 0 4 -4 4 -10z m-1706 -35 c-4 -17 -10 -23 -16 -17 -6 6 -6 18
2 32 15 28 23 20 14 -15z m-104 21 c0 -2 -7 -7 -16 -10 -8 -3 -12 -2 -9 4 6
10 25 14 25 6z m514 -14 c11 -2 36 -15 55 -28 20 -13 41 -24 48 -24 7 0 13 -4
13 -9 0 -5 16 -15 35 -22 19 -7 38 -22 42 -33 9 -30 10 -208 0 -229 -4 -9 -24
-24 -43 -32 -23 -9 -33 -19 -28 -26 4 -7 3 -9 -4 -5 -6 3 -34 -7 -64 -23 l-53
-30 -2 -95 c-2 -83 0 -99 16 -115 21 -21 12 -47 -14 -37 -9 3 -25 1 -36 -5
-18 -9 -19 -8 -7 10 6 11 16 17 20 15 4 -3 8 48 8 112 0 65 -3 114 -7 111 -3
-4 -12 1 -19 11 -6 9 -34 28 -61 42 -26 14 -50 27 -53 30 -7 7 -49 30 -55 30
-2 0 -2 -7 1 -15 8 -20 2 -19 -24 3 l-21 19 29 21 c35 27 55 29 21 3 l-24 -18
27 -7 c15 -4 32 -4 38 0 6 4 8 3 4 -4 -7 -11 102 -82 127 -82 8 0 17 -5 19
-11 2 -7 18 -3 41 11 20 12 34 27 30 33 -3 6 -1 7 5 3 15 -9 94 32 87 45 -4 5
-3 9 2 8 26 -4 29 8 31 116 2 95 0 115 -12 115 -8 0 -16 4 -18 8 -3 9 -151 92
-162 92 -4 0 -11 -10 -16 -22 -7 -20 -9 -20 -9 -4 -1 13 -4 16 -13 8 -7 -5
-31 -20 -53 -32 -22 -12 -55 -31 -72 -42 -19 -11 -33 -15 -33 -8 0 6 8 14 18
18 57 24 152 86 152 100 0 10 3 13 8 7 4 -5 16 -12 26 -13z m226 8 c0 -5 -5
-10 -11 -10 -5 0 -7 5 -4 10 3 6 8 10 11 10 2 0 4 -4 4 -10z m358 -2 c8 -8 15
-8 27 2 8 7 15 9 15 4 0 -5 -14 -17 -30 -26 -17 -9 -30 -13 -30 -8 0 6 5 10
12 10 6 0 3 7 -8 15 -10 8 -14 15 -8 15 5 0 15 -5 22 -12z m417 -9 c20 -12 34
-24 31 -27 -3 -3 -12 1 -21 8 -12 10 -18 10 -32 -1 -15 -11 -16 -11 -6 1 10
11 9 16 -5 26 -27 21 -7 16 33 -7z m-805 -11 c0 -5 -4 -7 -9 -4 -5 4 -12 0
-14 -6 -3 -7 -6 -3 -6 9 -1 16 3 21 14 17 8 -4 15 -10 15 -16z m640 1 c0 -14
-27 -10 -33 5 -4 10 0 12 14 9 10 -3 19 -9 19 -14z m400 0 c0 -14 -27 -10 -33
5 -4 10 0 12 14 9 10 -3 19 -9 19 -14z m-450 1 c0 -5 -4 -10 -10 -10 -5 0 -10
5 -10 10 0 6 5 10 10 10 6 0 10 -4 10 -10z m400 0 c0 -5 -4 -10 -10 -10 -5 0
-10 5 -10 10 0 6 5 10 10 10 6 0 10 -4 10 -10z m-1645 -18 c-3 -3 -11 0 -18 7
-9 10 -8 11 6 5 10 -3 15 -9 12 -12z m252 2 c0 -7 -6 -10 -14 -7 -7 3 -13 8
-13 12 0 4 6 8 13 8 8 0 14 -6 14 -13z m838 6 c3 -5 1 -10 -4 -10 -6 0 -11 5
-11 10 0 6 2 10 4 10 3 0 8 -4 11 -10z m-400 -10 c3 -5 1 -10 -4 -10 -6 0 -11
5 -11 10 0 6 2 10 4 10 3 0 8 -4 11 -10z m1085 -32 c0 -5 -11 -1 -25 8 -14 9
-25 18 -25 20 0 2 11 -2 25 -8 14 -6 25 -15 25 -20z m-1770 -1 c0 -16 -2 -16
-23 -2 -13 8 -27 12 -32 8 -4 -5 -5 -3 -2 3 11 19 57 12 57 -9z m137 9 c0 -8
-6 -12 -15 -9 -11 5 -11 7 0 14 7 5 13 9 14 9 0 0 1 -6 1 -14z m623 4 c-35
-24 -54 -31 -30 -11 14 11 30 21 35 21 6 0 3 -5 -5 -10z m200 0 c8 -5 12 -11
10 -14 -3 -2 -14 2 -24 10 -22 15 -10 19 14 4z m400 0 c8 -5 12 -11 9 -14 -3
-3 -14 1 -25 9 -21 16 -8 20 16 5z m-1189 -13 c-6 -8 -7 -18 -3 -22 4 -5 1 -5
-6 -1 -10 6 -10 11 -1 22 6 8 14 14 16 14 3 0 0 -6 -6 -13z m979 9 c0 -3 -4
-8 -10 -11 -5 -3 -10 -1 -10 4 0 6 5 11 10 11 6 0 10 -2 10 -4z m395 -6 c3 -5
1 -10 -4 -10 -6 0 -11 5 -11 10 0 6 2 10 4 10 3 0 8 -4 11 -10z m-1651 -52
c-10 -15 -27 -3 -29 20 -2 21 -1 21 16 6 10 -9 16 -21 13 -26z m553 16 c10 -9
9 -13 -4 -18 -9 -4 -16 -5 -17 -4 -1 2 -7 13 -13 25 -11 20 -11 21 5 16 9 -4
23 -12 29 -19z m-389 -10 c1 -1 -5 -4 -15 -6 -13 -4 -19 0 -19 13 0 14 3 16
16 6 8 -6 16 -12 18 -13z m622 5 c0 -14 -17 -10 -23 5 -4 10 -1 13 9 9 7 -3
14 -9 14 -14z m179 10 c6 9 10 7 14 -8 3 -12 4 -21 2 -21 -14 0 -55 25 -55 33
0 5 7 4 16 -4 12 -10 17 -10 23 0z m175 -10 c-8 -13 -21 -11 -27 5 -4 10 0 12
14 9 10 -3 16 -9 13 -14z m54 4 c-6 -7 -14 -13 -18 -13 -4 0 -10 6 -13 13 -3
7 4 12 18 12 18 0 21 -3 13 -12z m189 -15 c-3 -7 -5 -2 -5 12 0 14 2 19 5 13
2 -7 2 -19 0 -25z m207 10 c-3 -5 -12 -4 -20 3 -19 16 -18 18 6 12 11 -3 17
-9 14 -15z m199 11 c-6 -6 -9 -19 -6 -28 4 -12 3 -13 -5 -2 -6 8 -19 11 -33 7
-19 -4 -18 -3 4 6 15 7 27 15 27 20 0 4 5 8 12 8 9 0 9 -3 1 -11z m-1448 -19
c-5 -14 -2 -20 9 -20 23 0 20 -17 -4 -23 -11 -3 -17 -1 -14 4 3 6 0 16 -6 24
-12 15 -6 35 11 35 6 0 7 -9 4 -20z m1020 10 c3 -5 1 -10 -4 -10 -6 0 -11 5
-11 10 0 6 2 10 4 10 3 0 8 -4 11 -10z m185 0 c0 -5 -4 -10 -10 -10 -5 0 -10
5 -10 10 0 6 5 10 10 10 6 0 10 -4 10 -10z m-1435 -30 c-3 -5 -11 -10 -16 -10
-6 0 -7 5 -4 10 3 6 11 10 16 10 6 0 7 -4 4 -10z m157 -12 c-10 -10 -8 -15 8
-23 19 -10 19 -11 -1 -23 -15 -10 -19 -10 -14 -1 5 7 -2 19 -16 31 -13 10 -17
16 -8 12 10 -3 20 -1 24 5 3 6 9 11 13 11 3 0 1 -5 -6 -12z m799 -1 c-6 -8 -7
-18 -3 -22 4 -5 2 -5 -5 -1 -14 8 -6 36 9 36 7 0 6 -5 -1 -13z m99 3 c0 -5 -4
-10 -10 -10 -5 0 -10 5 -10 10 0 6 5 10 10 10 6 0 10 -4 10 -10z m400 0 c0 -5
-4 -10 -10 -10 -5 0 -10 5 -10 10 0 6 5 10 10 10 6 0 10 -4 10 -10z m-1095
-18 c-3 -3 -11 0 -18 7 -9 10 -8 11 6 5 10 -3 15 -9 12 -12z m415 6 c0 -4 -7
-8 -15 -8 -8 0 -15 4 -15 8 0 5 7 9 15 9 8 0 15 -4 15 -9z m400 2 c0 -5 -5
-10 -11 -10 -5 0 -7 5 -4 10 3 6 8 10 11 10 2 0 4 -4 4 -10z m400 0 c0 -5 -5
-10 -11 -10 -5 0 -7 5 -4 10 3 6 8 10 11 10 2 0 4 -4 4 -10z m-215 -10 c3 -5
1 -10 -4 -10 -6 0 -11 5 -11 10 0 6 2 10 4 10 3 0 8 -4 11 -10z m-1425 -10 c0
-5 -7 -10 -16 -10 -8 0 -12 5 -9 10 3 6 10 10 16 10 5 0 9 -4 9 -10z m390 -5
c-14 -17 -30 -20 -30 -6 0 5 8 12 18 14 9 3 19 5 21 6 2 0 -2 -6 -9 -14z m410
-7 c0 -17 -3 -19 -9 -9 -5 7 -15 10 -22 7 -8 -4 -5 0 5 8 25 20 26 20 26 -6z
m402 15 c-10 -4 -10 -8 0 -21 12 -14 11 -14 -9 -1 -16 9 -19 16 -10 21 7 4 17
7 22 7 6 0 4 -3 -3 -6z m262 -8 c-4 -8 -11 -12 -16 -9 -6 4 -5 10 3 15 19 12
19 11 13 -6z m-808 -7 c4 -7 3 -8 -5 -4 -6 4 -20 2 -29 -6 -15 -12 -16 -11 -3
5 16 20 27 22 37 5z m944 2 c8 -5 12 -11 10 -14 -3 -2 -14 2 -24 10 -22 15
-10 19 14 4z m-1101 -13 c6 -8 8 -17 4 -20 -11 -12 -21 -7 -26 13 -6 23 5 26
22 7z m388 -19 c-3 -7 -5 -2 -5 12 0 14 2 19 5 13 2 -7 2 -19 0 -25z m47 -7
c-2 -2 -11 2 -19 9 -13 11 -13 15 -3 21 8 5 15 2 19 -9 4 -9 5 -19 3 -21z
m390 23 c23 -9 20 -23 -4 -17 -11 3 -20 9 -20 14 0 11 3 11 24 3z m400 0 c23
-9 20 -23 -4 -17 -11 3 -20 9 -20 14 0 11 3 11 24 3z m-1639 -14 c14 12 16 12
15 -1 -5 -29 0 -38 18 -33 14 5 14 3 -2 -10 -26 -21 -36 -20 -31 4 4 23 -5 26
-23 8 -9 -9 -12 -5 -12 18 0 21 3 25 9 15 8 -13 12 -13 26 -1z m225 0 c13 -8
13 -10 -2 -10 -9 0 -20 5 -23 10 -8 13 5 13 25 0z m665 -10 c-3 -5 -12 -10
-18 -10 -7 0 -6 4 3 10 19 12 23 12 15 0z m710 1 c-3 -5 3 -16 14 -23 19 -14
19 -14 -2 -27 -16 -10 -19 -10 -10 -1 13 14 -5 39 -29 41 -7 0 -4 4 7 9 27 11
27 11 20 1z m-1125 -11 c0 -5 -2 -10 -4 -10 -3 0 -8 5 -11 10 -3 6 -1 10 4 10
6 0 11 -4 11 -10z m816 -2 c4 -7 3 -8 -5 -4 -6 4 -18 2 -26 -4 -9 -8 -15 -8
-15 -2 0 9 15 19 32 21 4 1 10 -4 14 -11z m399 2 c3 -6 -1 -7 -9 -4 -18 7 -21
14 -7 14 6 0 13 -4 16 -10z m-1257 -16 c5 3 9 -1 9 -9 0 -8 -4 -12 -9 -9 -5 3
-15 1 -22 -5 -11 -9 -13 -6 -13 14 0 20 2 23 13 14 7 -6 17 -8 22 -5z m403 7
c7 11 9 9 9 -8 0 -20 -2 -21 -25 -11 -14 6 -25 16 -25 21 0 5 7 4 16 -4 13
-10 17 -10 25 2z m194 -1 c3 -5 1 -10 -4 -10 -6 0 -11 5 -11 10 0 6 2 10 4 10
3 0 8 -4 11 -10z m187 -27 c-9 -7 -21 -12 -27 -12 -5 0 -1 6 9 14 11 8 14 15
8 15 -7 0 -12 5 -12 10 0 6 8 5 19 -2 18 -11 18 -13 3 -25z m218 27 c0 -5 -5
-10 -11 -10 -5 0 -7 5 -4 10 3 6 8 10 11 10 2 0 4 -4 4 -10z m-1200 -4 c0 -2
-9 -6 -20 -9 -11 -3 -18 -1 -14 4 5 9 34 13 34 5z m709 -44 c-11 -7 -17 -16
-15 -20 2 -4 -6 -7 -19 -7 -13 0 -21 3 -18 8 2 4 10 7 17 7 23 0 37 25 23 39
-9 11 -7 11 10 0 21 -13 21 -13 2 -27z m400 0 c-17 -12 -18 -16 -7 -30 12 -14
11 -14 -9 -2 -22 14 -22 14 -2 28 17 12 18 16 7 30 -12 14 -11 14 9 2 22 -14
22 -14 2 -28z m191 34 c0 -3 -4 -8 -10 -11 -5 -3 -10 -1 -10 4 0 6 5 11 10 11
6 0 10 -2 10 -4z m-820 -26 c0 -17 -2 -19 -14 -8 -10 9 -11 15 -2 20 16 11 16
10 16 -12z m90 10 c0 -5 -5 -10 -11 -10 -5 0 -7 5 -4 10 3 6 8 10 11 10 2 0 4
-4 4 -10z m312 3 c-10 -4 -10 -8 0 -21 12 -14 11 -14 -9 -1 -16 9 -19 16 -10
21 7 4 17 7 22 7 6 0 4 -3 -3 -6z m143 -3 c3 -5 1 -10 -4 -10 -6 0 -11 5 -11
10 0 6 2 10 4 10 3 0 8 -4 11 -10z m-965 -10 c0 -5 -4 -10 -10 -10 -5 0 -10 5
-10 10 0 6 5 10 10 10 6 0 10 -4 10 -10z m1228 -6 c12 -8 26 -13 30 -10 5 3 9
-1 9 -9 0 -12 -7 -11 -34 5 -19 11 -39 17 -45 14 -7 -4 -8 -2 -4 4 9 16 17 15
44 -4z m-1380 -18 c-2 -20 -5 -22 -20 -12 -17 10 -17 12 -1 24 22 16 23 16 21
-12z m1592 4 c-10 -7 -11 -10 -2 -10 6 0 12 -5 12 -10 0 -6 -8 -5 -19 2 -18
11 -18 13 -3 24 9 7 19 10 22 8 2 -3 -2 -9 -10 -14z m-1225 -8 c-3 -3 -11 0
-18 7 -9 10 -8 11 6 5 10 -3 15 -9 12 -12z m652 4 c0 -8 -6 -12 -15 -9 -11 5
-11 7 0 14 7 5 13 9 14 9 0 0 1 -6 1 -14z m-813 -4 c2 -4 -4 -8 -14 -8 -10 0
-16 4 -14 8 3 4 9 8 14 8 5 0 11 -4 14 -8z m1081 -10 c-3 -3 -11 0 -18 7 -9
10 -8 11 6 5 10 -3 15 -9 12 -12z m-1505 4 c0 -2 -7 -7 -16 -10 -8 -3 -12 -2
-9 4 6 10 25 14 25 6z m800 0 c0 -3 -4 -8 -10 -11 -5 -3 -10 -1 -10 4 0 6 5
11 10 11 6 0 10 -2 10 -4z m933 -10 c4 -9 -7 -22 -29 -35 -19 -11 -34 -16 -34
-11 0 6 5 10 11 10 8 0 7 6 -2 18 -13 15 -12 16 3 4 19 -15 38 -8 38 14 0 18
6 18 13 0z m-1683 -17 c0 -11 -4 -18 -10 -14 -5 3 -7 12 -3 20 7 21 13 19 13
-6z m330 17 c0 -3 -4 -8 -10 -11 -5 -3 -10 -1 -10 4 0 6 5 11 10 11 6 0 10 -2
10 -4z m505 -17 c4 -6 13 -8 21 -5 8 3 14 -1 14 -10 0 -13 -4 -13 -30 1 -30
16 -38 25 -21 25 6 0 13 -5 16 -11z m435 -9 c-24 -15 -36 -11 -14 4 10 8 21
12 24 10 2 -3 -2 -9 -10 -14z m-1370 6 c0 -3 -4 -8 -10 -11 -5 -3 -10 -1 -10
4 0 6 5 11 10 11 6 0 10 -2 10 -4z m570 -2 c0 -1 -11 -9 -24 -18 -23 -15 -25
-14 -23 3 1 13 8 18 24 17 13 0 23 -2 23 -2z m205 -3 c3 -5 1 -12 -5 -16 -5
-3 -10 1 -10 9 0 18 6 21 15 7z m413 -9 c-8 -9 -14 -10 -25 0 -11 9 -16 9 -23
-2 -5 -8 -12 -11 -17 -7 -11 12 14 24 47 23 21 -1 26 -4 18 -14z m396 -4 c-3
-5 -12 -4 -20 3 -19 16 -18 18 6 12 11 -3 17 -9 14 -15z m-44 2 c0 -5 -7 -10
-16 -10 -8 0 -12 5 -9 10 3 6 10 10 16 10 5 0 9 -4 9 -10z m-1400 -8 c0 -5 -7
-9 -15 -9 -8 0 -12 4 -9 9 3 4 9 8 15 8 5 0 9 -4 9 -8z m135 -2 c-3 -5 -11
-10 -16 -10 -6 0 -7 5 -4 10 3 6 11 10 16 10 6 0 7 -4 4 -10z m655 0 c0 -5 -5
-10 -11 -10 -5 0 -7 5 -4 10 3 6 8 10 11 10 2 0 4 -4 4 -10z m-826 -49 c-1 -1
-12 4 -24 12 -20 14 -20 15 -3 19 15 3 37 -20 27 -31z m751 22 c18 -14 18 -15
2 -9 -10 3 -23 6 -28 6 -5 0 -9 5 -9 10 0 14 12 12 35 -7z m222 2 c0 -8 -4
-12 -8 -9 -5 3 -18 0 -29 -6 -11 -6 -20 -8 -20 -6 0 4 31 24 56 36 0 0 1 -7 1
-15z m593 -18 c0 -5 -7 -4 -15 3 -8 6 -18 9 -23 6 -5 -3 -9 1 -9 8 0 11 5 12
24 3 13 -5 23 -15 23 -20z m-410 13 c8 -5 11 -10 5 -10 -5 0 -17 5 -25 10 -8
5 -10 10 -5 10 6 0 17 -5 25 -10z m200 0 c-8 -5 -19 -10 -25 -10 -5 0 -3 5 5
10 8 5 20 10 25 10 6 0 3 -5 -5 -10z m390 -12 c0 -6 -6 -5 -15 2 -8 7 -15 14
-15 16 0 2 7 1 15 -2 8 -4 15 -11 15 -16z m-1640 8 c0 -2 -7 -7 -16 -10 -8 -3
-12 -2 -9 4 6 10 25 14 25 6z m-133 -24 c9 -6 8 -11 -5 -19 -15 -9 -18 -7 -18
8 0 21 5 23 23 11z m109 -24 c4 -5 -3 -5 -16 2 -12 6 -29 9 -38 5 -13 -5 -11
-10 13 -25 17 -11 26 -20 20 -20 -5 0 -23 8 -38 19 -23 15 -26 19 -12 25 9 3
14 10 10 16 -3 5 6 5 25 -1 16 -6 33 -15 36 -21z m158 16 c3 -8 2 -13 -3 -9
-5 3 -12 -1 -14 -7 -3 -7 -6 -3 -6 10 -1 25 14 30 23 6z m1025 -16 c-12 -5
-28 -4 -36 1 -13 7 -13 9 2 15 9 3 21 4 26 0 5 -3 9 1 9 8 0 9 3 9 10 -2 7
-11 4 -17 -11 -22z m424 19 c7 4 6 -1 -2 -10 -7 -9 -17 -14 -22 -11 -5 3 -9 0
-9 -5 0 -7 -7 -7 -20 1 -11 7 -20 17 -20 22 0 4 7 2 16 -5 15 -12 18 -11 28 4
6 9 12 13 14 7 2 -6 9 -7 15 -3z m-1043 -12 c0 -2 -7 -5 -15 -9 -9 -3 -15 0
-15 9 0 9 6 12 15 9 8 -4 15 -7 15 -9z m185 3 c4 -3 2 -9 -3 -12 -5 -3 -15 1
-21 8 -10 11 -9 14 3 12 9 -1 18 -5 21 -8z m34 -3 c-9 -38 -13 -45 -25 -45
-18 0 -18 8 1 27 8 8 12 19 9 25 -4 6 -1 9 5 7 7 -3 11 -9 10 -14z m-749 -26
c0 -6 8 -9 18 -7 11 3 19 0 19 -7 0 -7 -8 -10 -19 -7 -13 3 -18 -1 -18 -17 0
-18 -2 -20 -14 -9 -12 11 -12 14 1 21 11 7 12 12 2 23 -8 10 -8 14 0 14 6 0
11 -5 11 -11z m274 3 c3 -5 -1 -9 -9 -9 -8 0 -12 4 -9 9 3 4 7 8 9 8 2 0 6 -4
9 -8z m-419 -12 c-3 -5 -11 -10 -16 -10 -6 0 -7 5 -4 10 3 6 11 10 16 10 6 0
7 -4 4 -10z m565 -1 c0 -6 9 -9 20 -6 11 3 18 1 14 -4 -3 -5 -11 -9 -19 -9 -7
0 -15 -3 -18 -7 -2 -5 -3 -3 -1 3 1 6 -3 17 -9 23 -8 8 -8 11 1 11 7 0 12 -5
12 -11z m730 -12 c0 -2 -8 -3 -18 -3 -10 0 -19 6 -19 13 0 8 6 9 19 2 10 -5
18 -11 18 -12z m292 6 c-10 -4 -10 -8 0 -21 12 -15 11 -16 -4 -4 -9 8 -23 11
-30 7 -7 -4 -2 2 12 13 14 12 27 18 30 15 3 -3 -1 -8 -8 -10z m-1199 -13 c4
-17 2 -18 -15 -9 -17 9 -18 13 -7 20 8 5 15 9 15 9 1 0 4 -9 7 -20z m1021 5
c-4 -8 -11 -12 -16 -9 -6 4 -5 10 3 15 19 12 19 11 13 -6z m276 5 c0 -5 -2
-10 -4 -10 -3 0 -8 5 -11 10 -3 6 -1 10 4 10 6 0 11 -4 11 -10z m-880 -22 c11
-3 8 -8 -10 -18 -14 -7 -22 -9 -17 -5 4 5 -1 17 -10 28 -17 19 -17 20 2 10 11
-6 27 -12 35 -15z m382 4 l27 -18 -22 -13 c-20 -13 -21 -13 -9 2 11 13 9 18
-15 31 -15 8 -23 15 -18 16 6 0 22 -8 37 -18z m-220 -4 c-9 -9 -9 -15 1 -26
10 -13 9 -14 -10 -2 -20 13 -20 15 -5 27 21 16 30 17 14 1z m398 -8 c-10 -7
-11 -10 -2 -10 6 0 12 -5 12 -10 0 -6 -8 -5 -19 2 -18 11 -18 13 -3 24 9 7 19
10 22 8 2 -3 -2 -9 -10 -14z m410 -23 c0 -5 -7 -4 -15 3 -8 6 -18 9 -23 6 -5
-3 -9 1 -9 8 0 11 5 12 24 3 13 -5 23 -15 23 -20z m-1705 13 c3 -6 -1 -7 -9
-4 -18 7 -21 14 -7 14 6 0 13 -4 16 -10z m209 -35 c-10 -6 -14 -17 -10 -24 6
-8 1 -8 -18 1 -26 11 -35 28 -16 28 6 0 10 9 10 20 0 20 1 20 25 4 23 -15 24
-18 9 -29z m776 35 c0 -5 -2 -10 -4 -10 -3 0 -8 5 -11 10 -3 6 -1 10 4 10 6 0
11 -4 11 -10z m428 -14 c-2 -1 -12 -8 -23 -16 -16 -11 -17 -11 -8 0 10 11 9
16 -5 27 -15 11 -13 12 11 2 15 -7 26 -13 25 -13z m382 -1 c0 -8 -5 -17 -10
-20 -8 -5 -7 -11 0 -20 10 -12 7 -12 -14 -2 -23 11 -24 12 -5 19 22 8 24 19 7
37 -11 10 -10 11 5 6 9 -4 17 -13 17 -20z m-1169 6 c-11 -7 -10 -10 3 -18 16
-9 16 -11 1 -23 -13 -11 -15 -10 -9 4 4 10 0 18 -11 22 -13 5 -14 9 -3 15 7 5
18 9 23 9 6 0 4 -4 -4 -9z m373 -15 c-10 -8 -21 -12 -24 -10 -5 6 21 24 34 24
6 0 1 -6 -10 -14z m216 -6 c0 -5 -5 -10 -11 -10 -5 0 -7 5 -4 10 3 6 8 10 11
10 2 0 4 -4 4 -10z m260 -26 c0 -2 -11 2 -25 8 -14 6 -25 15 -25 20 0 5 11 1
25 -8 14 -9 25 -18 25 -20z m-1636 10 c3 -8 2 -12 -4 -9 -6 3 -10 10 -10 16 0
14 7 11 14 -7z m726 1 c0 -2 -6 -5 -13 -8 -8 -3 -14 1 -14 8 0 7 6 11 14 8 7
-3 13 -6 13 -8z m507 1 c0 -8 -6 -12 -15 -9 -11 5 -11 7 0 14 7 5 13 9 14 9 0
0 1 -6 1 -14z m-1072 -16 c-3 -5 -11 -10 -16 -10 -6 0 -7 5 -4 10 3 6 11 10
16 10 6 0 7 -4 4 -10z m605 -5 c0 -2 -7 -5 -15 -9 -9 -3 -15 0 -15 9 0 9 6 12
15 9 8 -4 15 -7 15 -9z m815 5 c9 7 15 8 15 2 0 -19 -33 -23 -49 -5 -15 16
-15 16 2 4 14 -11 20 -11 32 -1z m-1478 -27 c5 3 10 -4 10 -16 2 -15 0 -18 -6
-8 -6 10 -13 10 -28 3 -17 -9 -19 -8 -17 11 1 12 3 24 3 26 1 2 8 -2 16 -9 8
-6 18 -9 22 -7z m384 -23 c-9 -9 -22 -14 -30 -12 -9 4 -6 9 10 18 13 7 18 13
12 14 -7 0 -13 5 -13 10 0 6 7 6 19 -1 17 -11 17 -13 2 -29z m304 30 c3 -5 1
-10 -4 -10 -6 0 -11 5 -11 10 0 6 2 10 4 10 3 0 8 -4 11 -10z m97 -3 c15 -12
15 -14 -3 -25 -11 -7 -19 -8 -19 -2 0 5 6 10 13 10 7 0 4 7 -7 15 -11 8 -16
15 -10 15 5 0 17 -6 26 -13z m170 1 c-9 -9 -9 -15 1 -26 10 -13 9 -14 -10 -2
-20 13 -20 15 -5 27 21 16 30 17 14 1z m227 -26 c-19 -13 -19 -15 -2 -28 16
-12 14 -12 -14 -2 -18 7 -33 16 -33 21 0 4 5 5 10 2 6 -3 17 0 24 8 11 11 12
17 3 27 -9 9 -6 9 10 -1 22 -13 22 -13 2 -27z m171 18 c-10 -7 -11 -10 -2 -10
6 0 12 -5 12 -10 0 -6 -8 -5 -19 2 -18 11 -18 13 -3 24 9 7 19 10 22 8 2 -3
-2 -9 -10 -14z m226 -21 c-14 -13 -16 -18 -7 -19 8 0 12 -2 9 -5 -3 -3 -13 -3
-22 1 -15 6 -15 8 4 21 18 12 19 17 8 31 -12 14 -11 14 8 2 l22 -13 -22 -18z
m-1028 19 c-2 -8 7 -13 20 -12 28 1 28 0 -5 -21 -24 -16 -26 -16 -20 -1 4 10
1 19 -9 23 -13 5 -13 7 -2 14 17 11 18 11 16 -3z m1302 8 c0 -3 -4 -8 -10 -11
-5 -3 -10 -1 -10 4 0 6 5 11 10 11 6 0 10 -2 10 -4z m-1700 -15 c0 -5 -7 -11
-15 -15 -8 -3 -15 -1 -15 5 0 6 -5 7 -12 3 -7 -4 -8 -3 -4 4 8 14 46 16 46 3z
m-86 -26 c5 0 11 -6 14 -12 2 -8 -5 -13 -17 -13 -13 0 -21 -7 -22 -17 -1 -10
-5 -4 -8 12 -9 35 -4 48 12 38 7 -4 16 -8 21 -8z m1326 5 c0 -5 -5 -10 -11
-10 -5 0 -7 5 -4 10 3 6 8 10 11 10 2 0 4 -4 4 -10z m-516 -12 c-3 -4 -9 -8
-15 -8 -5 0 -9 4 -9 8 0 5 7 9 15 9 8 0 12 -4 9 -9z m396 0 c0 -4 -4 -8 -9 -8
-6 0 -12 4 -15 8 -3 5 1 9 9 9 8 0 15 -4 15 -9z m405 2 c-3 -5 -11 -10 -16
-10 -6 0 -7 5 -4 10 3 6 11 10 16 10 6 0 7 -4 4 -10z m-1416 -51 c-21 -13 -25
-11 -26 11 -2 17 1 19 19 9 17 -9 18 -13 7 -20z m427 11 c0 -13 -5 -19 -14
-15 -7 3 -16 5 -20 5 -3 0 3 7 14 15 10 8 19 15 19 15 1 0 1 -9 1 -20z m394 5
c-14 -17 -30 -20 -30 -4 0 5 4 8 9 4 5 -3 12 -1 16 5 3 5 9 10 12 10 3 0 0 -7
-7 -15z m220 -9 c10 -13 10 -17 3 -12 -8 4 -13 2 -13 -6 0 -8 -5 -6 -11 5 -5
9 -7 22 -4 28 4 6 8 9 9 7 1 -2 8 -12 16 -22z m402 9 c3 3 5 -2 5 -9 0 -11 -5
-12 -18 -5 -26 13 -48 12 -29 -2 12 -9 12 -10 -3 -5 -10 3 -21 6 -25 6 -3 0 3
6 13 14 13 9 25 11 36 5 9 -4 18 -6 21 -4z m-1584 -24 c104 -61 144 -81 152
-76 4 3 3 -6 -3 -19 -9 -19 -15 -22 -29 -15 -9 5 -15 15 -12 22 3 8 -27 31
-81 60 -75 42 -96 57 -80 57 2 0 26 -13 53 -29z m772 17 c0 -5 -10 -6 -21 -3
-14 5 -19 3 -15 -3 3 -6 -2 -9 -11 -7 -10 1 -25 -3 -33 -9 -10 -7 -9 -3 2 10
18 20 78 29 78 12z m364 0 c-3 -4 0 -8 7 -8 7 0 10 -2 7 -5 -7 -7 -38 5 -38
14 0 4 7 8 15 8 8 0 12 -4 9 -9z m-167 -30 c-3 -8 -6 -5 -6 6 -1 11 2 17 5 13
3 -3 4 -12 1 -19z m-1107 -9 c0 -5 -4 -9 -8 -9 -5 0 -9 7 -9 15 0 8 4 12 9 9
4 -3 8 -9 8 -15z m411 7 c-16 -19 -50 -27 -58 -13 -3 7 -3 9 1 5 4 -3 19 0 34
8 34 17 37 17 23 0z m991 -10 c7 4 8 3 4 -4 -10 -17 -21 -15 -47 9 l-24 21 28
-16 c15 -9 33 -14 39 -10z m-1432 -12 c0 -2 -9 0 -20 6 -11 6 -20 13 -20 16 0
2 9 0 20 -6 11 -6 20 -13 20 -16z m620 5 l25 -20 -32 16 c-18 8 -33 18 -33 20
0 10 16 4 40 -16z m206 6 c-24 -18 -33 -19 -42 -3 -4 7 -3 8 4 4 7 -4 20 -2
29 3 26 15 31 13 9 -4z m179 4 c4 -6 13 -8 19 -6 7 3 13 -1 13 -8 0 -11 -6
-11 -29 1 -28 15 -36 24 -19 24 6 0 13 -5 16 -11z m221 -4 c-11 -8 -25 -15
-30 -15 -6 1 0 7 14 15 32 19 40 18 16 0z m404 7 c0 -5 -10 -14 -23 -19 -18
-9 -24 -8 -24 2 0 7 6 11 13 8 6 -2 15 0 19 6 7 13 15 14 15 3z m180 -2 c0 -5
-5 -10 -11 -10 -5 0 -7 5 -4 10 3 6 8 10 11 10 2 0 4 -4 4 -10z m-1430 -25 c0
-2 -10 -9 -22 -15 -22 -11 -22 -10 -4 4 21 17 26 19 26 11z m-285 -15 c3 -5 2
-10 -4 -10 -5 0 -13 5 -16 10 -3 6 -2 10 4 10 5 0 13 -4 16 -10z m398 -2 c3
-10 9 -10 28 1 18 10 21 10 12 0 -10 -10 -10 -16 0 -27 11 -13 9 -14 -11 -1
-20 12 -24 12 -33 -1 -9 -13 -10 -13 -6 1 3 9 0 22 -6 28 -8 8 -8 11 0 11 6 0
13 -6 16 -12z m432 2 c9 7 18 10 21 7 3 -3 -3 -10 -14 -16 -22 -12 -52 -5 -52
11 0 6 6 5 15 -2 12 -10 18 -10 30 0z m365 0 c0 -5 -2 -10 -4 -10 -3 0 -8 5
-11 10 -3 6 -1 10 4 10 6 0 11 -4 11 -10z m60 6 c0 -3 -4 -8 -10 -11 -5 -3
-10 -1 -10 4 0 6 5 11 10 11 6 0 10 -2 10 -4z m352 -32 c-9 -7 -19 -10 -22 -8
-2 3 2 9 10 14 10 7 11 10 3 10 -7 0 -13 5 -13 10 0 6 8 5 19 -2 18 -11 18
-13 3 -24z m-1004 13 c8 -10 7 -13 -7 -14 -10 -1 -18 5 -18 13 0 17 11 18 25
1z m49 -1 c0 -8 -6 -12 -15 -9 -11 5 -11 7 0 14 7 5 13 9 14 9 0 0 1 -6 1 -14z
m356 2 c3 -10 7 -10 20 1 10 7 17 9 17 3 0 -5 -7 -12 -15 -16 -18 -6 -45 2
-45 15 0 14 18 11 23 -3z m397 2 c0 -5 -4 -10 -9 -10 -6 0 -13 5 -16 10 -3 6
1 10 9 10 9 0 16 -4 16 -10z m48 -2 c8 -10 5 -13 -13 -13 -18 0 -21 3 -13 13
6 6 12 12 13 12 1 0 7 -6 13 -12z m352 2 c0 -5 -4 -10 -9 -10 -6 0 -13 5 -16
10 -3 6 1 10 9 10 9 0 16 -4 16 -10z m-596 -14 c-10 -8 -21 -12 -24 -10 -5 6
21 24 34 24 6 0 1 -6 -10 -14z m-1159 -6 c3 -6 -1 -7 -9 -4 -18 7 -21 14 -7
14 6 0 13 -4 16 -10z m578 -24 c4 -10 1 -13 -9 -9 -15 6 -19 23 -5 23 5 0 11
-7 14 -14z m397 5 c0 -5 -7 -12 -16 -15 -14 -5 -15 -4 -4 9 14 17 20 19 20 6z
m302 -3 c-9 -9 -9 -15 1 -26 10 -13 9 -14 -10 -2 -20 13 -20 15 -5 27 21 16
30 17 14 1z m98 2 c0 -5 -5 -10 -11 -10 -5 0 -7 5 -4 10 3 6 8 10 11 10 2 0 4
-4 4 -10z m302 -7 c-10 -4 -10 -8 0 -21 12 -14 11 -14 -9 -2 -20 13 -20 15 -5
26 9 7 19 10 22 7 3 -3 -1 -8 -8 -10z m-1199 -14 c-4 -14 -8 -17 -13 -9 -4 7
-14 9 -21 6 -8 -4 -5 0 5 8 27 22 35 20 29 -5z m205 7 c-2 -1 -10 -7 -18 -13
-13 -10 -16 -8 -16 6 0 13 6 17 19 13 10 -2 16 -5 15 -6z m-858 -11 c0 -11
-29 -11 -33 -1 -4 10 1 12 14 9 10 -3 19 -7 19 -8z m1675 5 c3 -6 -1 -7 -9 -4
-18 7 -21 14 -7 14 6 0 13 -4 16 -10z m-1245 -10 c0 -5 -5 -10 -11 -10 -5 0
-7 5 -4 10 3 6 8 10 11 10 2 0 4 -4 4 -10z"/>
<path d="M600 200 c0 -5 5 -10 11 -10 5 0 7 5 4 10 -3 6 -8 10 -11 10 -2 0 -4
-4 -4 -10z"/>
</g>
</svg>
