<?xml version="1.0" standalone="no"?>
<!DOCTYPE svg PUBLIC "-//W3C//DTD SVG 20010904//EN"
 "http://www.w3.org/TR/2001/REC-SVG-20010904/DTD/svg10.dtd">
<svg version="1.0" xmlns="http://www.w3.org/2000/svg"
 width="200.000000pt" height="200.000000pt" viewBox="0 0 200.000000 200.000000"
 preserveAspectRatio="xMidYMid meet">
<metadata>
Created by potrace 1.16, written by Peter Selinger 2001-2019
</metadata>
<g transform="translate(0.000000,200.000000) scale(0.100000,-0.100000)"
fill="#000000" stroke="none">
<path d="M0 1000 l0 -999 255 -1 c140 0 255 3 255 8 0 4 20 18 44 30 l44 24
40 -21 c22 -11 43 -25 47 -31 3 -5 44 -10 89 -10 73 0 84 2 89 19 4 17 116 91
137 91 5 0 36 -16 69 -35 42 -25 61 -42 61 -55 0 -17 7 -20 50 -20 49 0 50 1
50 29 0 26 9 34 78 75 43 25 85 46 93 46 8 0 49 -21 91 -46 70 -40 78 -48 78
-74 0 -46 28 -39 32 7 3 37 7 40 101 95 l99 56 95 -55 c52 -30 98 -52 101 -48
13 12 -15 37 -88 78 l-75 43 0 99 0 99 80 46 80 46 3 131 3 131 -96 57 c-52
30 -101 58 -108 61 -8 3 -53 -18 -101 -46 -48 -27 -90 -50 -94 -50 -3 0 -47
24 -99 53 l-93 52 0 115 0 115 94 53 c52 28 96 52 99 52 3 0 45 -23 93 -50 48
-28 93 -49 101 -46 7 3 56 31 108 61 l95 56 0 119 0 118 -95 54 -95 53 0 107
c0 122 -8 110 123 182 67 38 67 38 67 82 0 40 -2 44 -25 44 -19 0 -25 -5 -25
-23 0 -18 -16 -32 -75 -66 l-75 -42 -73 43 c-49 30 -73 51 -75 66 -3 20 -9 22
-68 22 -49 0 -64 -3 -64 -14 0 -8 -27 -31 -59 -50 l-59 -36 -61 35 c-34 20
-61 42 -61 50 0 12 -19 15 -95 15 -52 0 -95 -3 -95 -8 0 -4 -21 -18 -46 -31
l-46 -25 -44 24 c-24 14 -44 28 -44 32 0 5 -59 8 -130 8 -95 0 -139 -4 -159
-15 -25 -12 -31 -12 -47 0 -15 12 -72 14 -296 15 l-278 0 0 -1000z m1675 840
c38 -21 72 -43 77 -48 5 -5 10 -49 11 -97 2 -66 -2 -89 -13 -99 -37 -31 -144
-86 -157 -82 -8 3 -45 24 -84 46 l-69 41 0 93 0 94 78 46 c42 25 80 46 83 46
4 0 37 -18 74 -40z m-409 -36 l64 -36 0 -72 0 -72 -65 -38 -64 -37 -48 27
c-80 46 -83 50 -83 119 0 46 4 66 17 76 15 13 104 67 111 68 2 1 33 -15 68
-35z m-426 -34 c22 -11 40 -26 40 -32 0 -7 -7 -5 -17 4 -43 37 -61 40 -103 17
-37 -21 -40 -26 -40 -66 0 -40 3 -44 41 -63 40 -21 41 -21 72 -2 20 11 34 29
38 48 l7 29 1 -33 c1 -29 -4 -35 -42 -53 l-44 -21 -42 26 c-41 26 -42 28 -39
74 3 43 6 48 43 69 22 13 41 23 43 23 1 0 21 -9 42 -20z m-419 -40 c28 -16 25
-58 -6 -72 -22 -10 -28 -9 -43 7 -16 18 -16 18 0 6 25 -18 58 -5 58 24 0 29
-34 42 -58 23 -15 -12 -16 -11 -3 5 16 20 25 21 52 7z m1471 -231 l89 -51 -3
-101 -3 -102 -80 -47 c-44 -27 -85 -48 -91 -48 -6 0 -48 21 -93 46 l-82 47 3
105 3 105 80 48 c44 27 82 48 84 49 2 0 44 -23 93 -51z m-412 -27 l65 -38 3
-85 3 -85 -75 -43 -75 -43 -76 43 -76 43 3 85 3 85 65 38 c36 21 72 38 80 38
8 0 44 -17 80 -38z m-372 -126 l-3 -69 -52 -29 -53 -30 -52 30 -53 29 -3 69
-2 69 52 31 53 31 58 -31 58 -31 -3 -69z m-473 67 c33 -16 35 -20 35 -64 0
-43 -3 -49 -36 -68 l-35 -21 -39 23 c-36 20 -40 26 -40 64 0 35 4 44 33 62 39
25 38 25 82 4z m-447 -37 c-25 -18 -22 -45 5 -56 12 -5 17 -9 10 -9 -42 -3
-61 48 -25 68 24 15 30 13 10 -3z m1094 -242 l78 -46 0 -88 0 -88 -79 -47 -80
-46 -80 46 -81 47 0 88 0 88 78 46 c42 25 79 46 81 46 2 0 40 -21 83 -46z
m-422 -43 l45 -27 0 -64 0 -64 -45 -27 c-25 -15 -52 -28 -60 -28 -8 0 -36 13
-62 29 l-48 30 0 60 0 60 48 30 c26 16 54 29 62 29 8 0 35 -13 60 -28z m-432
-47 c53 -37 7 -119 -52 -93 -14 7 -26 16 -26 21 0 5 11 1 24 -7 34 -23 66 -5
66 35 0 44 -34 59 -71 31 -16 -12 -29 -17 -29 -12 0 9 46 39 60 41 3 0 16 -7
28 -16z m1451 -265 l72 -41 -3 -86 -3 -86 -72 -42 -71 -42 -76 44 -76 44 0 79
c0 62 4 81 18 93 19 17 123 78 134 78 3 0 38 -18 77 -41z m-417 -21 l59 -33
-3 -73 -3 -74 -57 -31 -57 -32 -58 32 -58 32 0 72 0 73 55 33 c30 18 57 33 59
33 2 0 30 -15 63 -32z m-417 -25 l46 -28 -3 -55 c-3 -53 -4 -55 -45 -78 l-43
-23 -42 23 c-42 23 -43 25 -46 80 l-3 56 43 25 c24 14 44 25 45 26 1 1 23 -11
48 -26z m-414 -30 c42 -25 41 -76 -2 -102 -29 -18 -33 -18 -60 -2 -23 13 -29
23 -29 52 0 27 6 41 23 52 28 20 33 20 68 0z m-425 -25 c4 -7 4 -10 -1 -6 -4
4 -15 2 -24 -5 -14 -11 -14 -10 -2 6 16 20 18 21 27 5z m14 -43 c-7 -8 -18
-15 -24 -15 -6 0 -3 5 7 11 9 5 17 18 18 27 0 11 2 12 6 4 3 -7 -1 -19 -7 -27z
m1520 -330 l0 -83 -69 -40 -68 -39 -72 40 -71 41 0 81 0 81 71 41 71 41 69
-40 69 -40 0 -83z m-485 94 l55 -31 0 -63 0 -63 -54 -31 -55 -31 -55 32 -56
32 0 61 0 60 53 32 c28 18 53 32 55 33 1 0 27 -14 57 -31z m-421 -30 c33 -19
36 -25 36 -65 0 -40 -3 -45 -37 -62 -36 -19 -37 -19 -70 0 -29 18 -33 25 -33
63 0 38 4 46 33 63 17 11 33 21 34 21 1 1 18 -8 37 -20z m-442 -40 c-15 -5
-22 -16 -20 -26 4 -22 37 -30 50 -11 8 10 9 10 5 -2 -5 -20 -47 -19 -60 2 -13
20 6 48 32 47 10 0 8 -3 -7 -10z"/>
<path d="M1525 1826 l-70 -43 0 -88 0 -88 74 -44 73 -43 74 42 74 43 0 90 0
90 -75 43 c-41 23 -76 42 -77 41 -2 0 -34 -20 -73 -43z"/>
<path d="M1141 1795 l-54 -34 0 -66 c1 -36 2 -67 4 -69 2 -1 28 -17 56 -34
l53 -32 60 36 60 35 0 64 0 64 -61 36 c-33 19 -61 35 -62 34 -1 0 -26 -16 -56
-34z"/>
<path d="M1713 1487 l-73 -42 0 -97 0 -96 80 -46 c43 -25 81 -46 84 -46 8 0
130 73 149 88 14 12 17 32 17 103 l0 88 -77 45 c-43 25 -85 45 -93 45 -8 0
-48 -19 -87 -42z"/>
<path d="M1330 1462 l-65 -37 -2 -77 -1 -77 70 -41 70 -40 69 41 70 42 -3 76
-3 76 -60 37 c-33 20 -65 37 -70 37 -6 1 -39 -16 -75 -37z"/>
<path d="M943 1434 l-43 -26 0 -62 0 -61 50 -28 50 -28 48 29 c47 29 47 29 50
89 l3 61 -45 26 c-54 32 -60 32 -113 0z"/>
<path d="M558 1402 c-22 -14 -28 -24 -28 -54 0 -31 5 -40 34 -57 33 -21 35
-21 65 -4 27 16 31 23 31 60 0 37 -4 44 -30 58 -35 18 -37 18 -72 -3z"/>
<path d="M1126 1126 l-70 -42 0 -84 -1 -83 73 -43 72 -43 73 42 72 43 0 84 0
84 -70 42 c-38 24 -72 42 -75 42 -3 0 -36 -19 -74 -42z"/>
<path d="M743 1082 c-42 -26 -43 -28 -43 -83 l0 -56 50 -27 50 -27 50 28 50
28 0 56 0 56 -49 26 c-27 15 -53 27 -57 26 -5 0 -28 -13 -51 -27z"/>
<path d="M1733 772 c-60 -36 -61 -37 -67 -87 -10 -91 1 -115 74 -154 l65 -34
68 39 68 39 -3 79 -3 80 -65 38 c-36 21 -67 37 -70 37 -3 -1 -33 -17 -67 -37z"/>
<path d="M1343 747 l-53 -31 0 -62 0 -62 50 -31 c28 -17 56 -31 63 -30 6 0 32
13 57 28 l45 27 3 66 3 66 -55 31 c-31 17 -57 31 -58 30 -2 0 -27 -15 -55 -32z"/>
<path d="M953 720 c-30 -18 -33 -24 -33 -68 0 -46 2 -49 40 -71 l39 -22 41 23
c38 22 40 26 40 70 0 42 -3 48 -34 67 -41 26 -53 26 -93 1z"/>
<path d="M568 696 c-26 -19 -23 -70 5 -89 55 -36 109 49 55 87 -27 19 -38 19
-60 2z"/>
<path d="M1528 414 l-58 -35 0 -73 0 -74 61 -36 c33 -20 66 -36 72 -36 7 1 37
16 67 34 l55 32 0 79 0 79 -55 33 c-30 18 -62 33 -70 32 -8 0 -41 -16 -72 -35z"/>
<path d="M1151 389 l-52 -30 3 -56 c3 -55 3 -56 51 -82 l47 -26 48 26 47 26 0
58 0 59 -46 27 -47 27 -51 -29z"/>
<path d="M768 361 c-23 -13 -28 -23 -28 -57 0 -37 3 -43 31 -55 48 -19 83 3
87 57 3 37 0 41 -30 55 -30 14 -36 14 -60 0z"/>
<path d="M570 1996 c0 -10 28 -13 41 -5 10 6 7 9 -13 9 -16 0 -28 -2 -28 -4z"/>
<path d="M920 1995 c0 -2 18 -14 40 -25 l40 -20 40 20 c22 11 40 23 40 25 0 3
-36 5 -80 5 -44 0 -80 -2 -80 -5z"/>
<path d="M1290 1988 c0 -7 25 -26 55 -43 l56 -30 54 30 c84 45 74 55 -55 55
-81 0 -110 -3 -110 -12z"/>
<path d="M1660 1982 c0 -12 25 -32 71 -59 l72 -40 68 39 c48 27 69 46 69 59 0
18 -9 19 -140 19 -128 0 -140 -2 -140 -18z"/>
<path d="M1922 1854 c-41 -23 -79 -47 -85 -53 -17 -17 -17 -199 0 -213 8 -6
46 -30 86 -53 l72 -43 3 105 c1 57 1 148 0 201 l-3 98 -73 -42z"/>
<path d="M1898 1167 l-88 -51 0 -116 0 -116 87 -50 c48 -27 91 -50 95 -52 4
-2 8 96 8 217 0 122 -3 221 -7 220 -5 0 -47 -24 -95 -52z"/>
<path d="M1508 1157 l-88 -52 0 -105 0 -105 91 -52 90 -53 89 51 90 51 0 107
0 107 -89 52 c-49 29 -91 52 -93 51 -2 0 -42 -24 -90 -52z"/>
<path d="M1916 437 l-69 -42 0 -55 c1 -136 -5 -124 74 -169 39 -23 73 -41 75
-41 2 0 4 79 4 175 0 96 -3 175 -7 175 -5 0 -39 -20 -77 -43z"/>
<path d="M1705 117 c-81 -48 -90 -56 -90 -82 l0 -30 188 -3 187 -2 0 33 c0 31
-5 36 -91 85 -50 29 -94 52 -98 52 -4 0 -47 -24 -96 -53z"/>
<path d="M1317 95 c-63 -37 -77 -50 -77 -70 l0 -25 161 0 160 0 -3 27 c-2 23
-17 35 -78 70 -41 24 -77 43 -80 43 -3 0 -40 -20 -83 -45z"/>
<path d="M935 65 c-90 -51 -82 -60 63 -63 112 -2 123 -1 120 14 -2 14 -100 83
-118 83 -3 0 -32 -15 -65 -34z"/>
<path d="M557 31 c-45 -30 -43 -31 44 -31 l84 0 -40 25 c-47 29 -51 29 -88 6z"/>
</g>
</svg>
