<?xml version="1.0" standalone="no"?>
<!DOCTYPE svg PUBLIC "-//W3C//DTD SVG 20010904//EN"
 "http://www.w3.org/TR/2001/REC-SVG-20010904/DTD/svg10.dtd">
<svg version="1.0" xmlns="http://www.w3.org/2000/svg"
 width="200.000000pt" height="200.000000pt" viewBox="0 0 200.000000 200.000000"
 preserveAspectRatio="xMidYMid meet">
<metadata>
Created by potrace 1.16, written by Peter Selinger 2001-2019
</metadata>
<g transform="translate(0.000000,200.000000) scale(0.100000,-0.100000)"
fill="#000000" stroke="none">
<path d="M17 1974 c-4 -25 23 -64 45 -64 5 0 6 -5 2 -12 -4 -6 -3 -8 4 -5 12
8 44 -2 38 -12 -3 -4 19 -15 47 -25 l52 -18 76 41 c62 33 78 39 87 28 9 -10
-1 -20 -44 -45 -30 -17 -52 -27 -49 -22 3 6 1 10 -4 10 -6 0 -11 -6 -11 -14 0
-8 -9 -18 -20 -21 -24 -8 -21 3 -26 -116 -3 -82 0 -99 14 -111 28 -23 157 -98
170 -98 6 0 26 9 44 20 39 24 67 27 49 7 -6 -8 -9 -16 -6 -19 3 -3 -11 -13
-30 -24 -41 -22 -44 -30 -43 -139 1 -76 13 -119 30 -109 4 3 8 0 8 -7 0 -7 3
-9 7 -6 3 4 20 -4 37 -17 17 -13 41 -26 54 -30 12 -4 20 -11 18 -15 -12 -19
43 -6 98 23 107 57 116 65 116 101 0 18 6 36 13 38 10 4 10 6 0 6 -8 1 -13 15
-13 35 0 19 6 37 13 39 10 4 10 6 0 6 -7 1 -13 13 -13 29 0 23 -9 32 -56 57
-31 17 -60 37 -64 46 -7 11 -21 15 -52 13 -59 -4 -68 -6 -68 -15 0 -5 -9 -13
-19 -18 -16 -9 -19 -7 -17 14 1 17 12 31 39 45 20 12 37 27 37 33 1 7 1 52 1
101 1 104 6 97 -128 166 -89 46 -100 55 -83 65 5 3 10 19 10 36 l0 29 -179 0
-179 0 -5 -26z"/>
<path d="M410 1976 c0 -14 7 -31 15 -39 8 -8 12 -17 10 -21 -3 -3 -2 -4 1 -1
11 7 78 -32 91 -53 13 -21 78 -29 100 -11 7 7 13 8 13 4 0 -3 12 3 26 14 15
12 33 21 40 21 8 0 14 3 14 8 0 4 14 15 30 24 23 13 30 24 30 48 l0 30 -185 0
-185 0 0 -24z"/>
<path d="M800 1989 c0 -5 5 -9 10 -9 6 0 10 -11 10 -24 0 -17 9 -27 30 -36 16
-7 40 -22 53 -34 14 -11 28 -22 33 -23 5 -1 23 -8 40 -14 28 -11 36 -9 87 20
32 18 57 30 57 27 0 -4 14 6 30 21 20 18 30 36 30 55 l0 29 -190 -1 c-108 -1
-190 -6 -190 -11z"/>
<path d="M1220 1971 c0 -33 15 -46 118 -102 l62 -34 70 38 c39 21 70 35 70 32
0 -3 11 5 24 19 16 18 22 34 18 51 l-4 25 -179 0 -179 0 0 -29z"/>
<path d="M1620 1973 c0 -36 7 -44 53 -65 40 -19 47 -33 20 -40 -23 -6 -45 1
-37 13 3 5 -2 9 -11 9 -9 0 -14 4 -10 9 3 6 -8 5 -27 -1 -18 -5 -39 -10 -45
-11 -7 0 -13 -3 -13 -7 0 -3 -14 -14 -31 -24 l-31 -18 6 23 c6 23 6 23 -6 -1
-14 -28 -39 -50 -50 -44 -11 7 -17 -27 -20 -125 -2 -89 -1 -94 22 -113 14 -10
33 -26 43 -34 9 -7 24 -14 33 -14 9 0 12 -5 8 -11 -4 -7 -1 -10 7 -7 8 3 27
-2 42 -11 26 -15 30 -15 69 8 22 12 38 18 34 13 -3 -6 0 -13 6 -16 9 -4 8 -9
-6 -18 -59 -41 -57 -37 -57 -143 1 -78 4 -101 16 -108 8 -4 25 -18 37 -30 11
-12 18 -15 14 -7 -5 9 -2 8 7 -2 8 -10 21 -18 29 -18 9 0 27 -9 41 -20 27 -22
52 -26 62 -10 3 6 15 10 26 10 10 0 19 4 19 10 0 5 14 16 30 25 17 9 30 14 30
11 0 -2 16 10 35 27 19 17 35 40 35 51 0 17 -2 18 -10 6 -8 -12 -10 -9 -10 13
0 16 4 26 10 22 14 -9 13 75 -2 107 -7 14 -34 37 -60 52 -26 15 -48 31 -48 37
0 5 -3 8 -7 7 -5 -2 -23 4 -42 11 -27 12 -37 12 -53 2 -11 -7 -22 -10 -25 -7
-4 3 -11 -1 -17 -9 -17 -21 -38 -22 -41 -2 -2 11 -1 17 2 14 2 -3 13 2 23 11
10 9 29 25 43 34 22 15 24 23 22 90 0 40 2 80 7 89 8 19 -19 47 -69 73 -18 9
-33 19 -33 22 0 3 4 3 9 0 5 -3 12 1 15 9 6 17 31 9 59 -19 12 -13 21 -11 65
9 28 13 53 21 56 17 3 -3 6 0 6 6 0 6 18 21 40 33 34 19 40 28 40 56 l0 33
-180 0 -180 0 0 -27z"/>
<path d="M1992 1975 c0 -16 2 -22 5 -12 2 9 2 23 0 30 -3 6 -5 -1 -5 -18z"/>
<path d="M762 1890 c-5 -8 -27 -24 -48 -35 -22 -11 -53 -30 -70 -42 l-31 -23
2 -97 c2 -107 -6 -94 93 -158 28 -18 52 -31 52 -28 0 3 6 0 14 -6 15 -12 67
-11 60 1 -5 7 10 12 29 9 4 0 7 3 7 9 0 5 7 7 15 4 9 -4 15 0 15 9 0 15 36 34
55 28 6 -1 7 1 3 5 -4 4 -1 12 8 18 12 10 16 33 16 111 l0 100 -41 26 c-22 14
-38 29 -36 33 3 3 2 4 -1 1 -9 -6 -86 34 -80 43 2 4 -9 7 -24 7 -16 0 -33 -7
-38 -15z"/>
<path d="M0 1695 c0 -113 3 -204 8 -202 4 2 44 26 89 52 l83 47 0 101 c0 56
-5 109 -10 117 -5 8 -10 11 -10 7 0 -5 -15 0 -32 11 -18 11 -54 32 -80 47
l-48 27 0 -207z"/>
<path d="M1145 1875 c-28 -15 -44 -19 -52 -12 -10 7 -13 4 -13 -11 0 -18 -9
-26 -35 -31 -20 -4 -26 -32 -27 -116 0 -47 -5 -88 -10 -91 -15 -9 32 -41 166
-112 38 -20 38 -20 59 -1 22 20 30 23 59 20 12 -2 16 3 12 12 -3 9 6 19 25 27
49 20 54 32 52 133 -1 121 -2 125 -18 131 -8 3 -11 1 -8 -4 3 -5 -28 11 -70
35 -41 25 -81 45 -88 44 -7 -1 -30 -11 -52 -24z"/>
<path d="M1953 1876 c-23 -13 -44 -21 -47 -18 -3 3 -6 1 -6 -4 0 -6 -18 -20
-40 -33 l-40 -22 0 -105 c0 -84 3 -106 15 -110 8 -4 12 -11 8 -17 -3 -5 -1 -7
5 -3 6 3 17 -1 25 -9 9 -8 22 -15 30 -15 8 0 20 -6 26 -14 7 -8 25 -19 42 -25
l29 -10 0 205 c0 112 -1 204 -2 204 -2 0 -22 -11 -45 -24z"/>
<path d="M1277 1879 c7 -7 15 -10 18 -7 3 3 -2 9 -12 12 -14 6 -15 5 -6 -5z"/>
<path d="M995 1690 c-3 -5 -1 -10 4 -10 6 0 11 5 11 10 0 6 -2 10 -4 10 -3 0
-8 -4 -11 -10z"/>
<path d="M192 1550 c-18 -4 -41 -14 -50 -22 -9 -8 -41 -28 -70 -43 -60 -32
-62 -37 -59 -152 2 -74 4 -83 29 -107 16 -14 28 -22 28 -18 1 4 10 -4 21 -17
11 -13 22 -21 26 -18 3 4 23 -3 44 -15 l37 -21 52 32 c28 17 55 29 61 26 5 -4
9 -2 9 4 0 5 14 18 30 28 l31 18 -3 104 -3 105 -60 35 c-33 19 -67 42 -75 52
-11 12 -23 15 -48 9z"/>
<path d="M970 1541 c-8 -6 -18 -7 -22 -5 -4 3 -8 1 -8 -5 0 -6 -10 -15 -21
-22 -15 -7 -19 -8 -15 0 4 7 1 9 -8 5 -9 -3 -14 -10 -13 -14 1 -5 -14 -19 -33
-32 l-35 -24 -1 -84 c0 -87 11 -144 27 -134 5 3 9 0 9 -7 0 -7 3 -9 7 -6 3 4
20 -3 37 -16 17 -12 47 -30 67 -40 34 -17 39 -18 66 -3 17 8 33 12 37 9 3 -4
6 -1 6 6 0 7 5 9 10 6 6 -3 10 -2 10 3 0 5 21 23 46 40 l47 30 0 97 c0 96 -1
97 -32 125 -17 16 -31 27 -31 24 0 -2 -24 9 -53 26 -57 32 -73 35 -97 21z"/>
<path d="M1370 1541 c-8 -6 -18 -7 -22 -5 -4 3 -8 1 -8 -5 0 -10 -56 -47 -80
-53 -8 -2 -21 -12 -29 -22 -13 -17 -15 -42 -12 -187 1 -20 13 -33 54 -59 28
-19 70 -42 92 -53 37 -17 42 -17 66 -3 14 9 29 12 33 8 4 -4 15 2 24 14 9 11
35 31 57 46 l40 25 -2 104 c-1 63 -6 105 -12 107 -6 2 -8 9 -4 15 3 7 3 9 -1
5 -4 -4 -41 11 -81 33 -77 41 -91 45 -115 30z"/>
<path d="M105 1530 c3 -5 11 -10 16 -10 6 0 7 5 4 10 -3 6 -11 10 -16 10 -6 0
-7 -4 -4 -10z"/>
<path d="M0 1005 c0 -113 4 -205 8 -205 4 0 13 5 20 12 7 7 12 9 12 4 0 -4 12
2 26 13 14 11 33 17 42 14 9 -3 14 -2 10 2 -5 5 8 19 27 32 l36 24 -3 102 -3
101 -32 22 c-18 12 -29 25 -25 29 4 5 1 5 -6 1 -7 -4 -34 6 -62 23 l-50 31 0
-205z"/>
<path d="M755 1185 c-22 -14 -48 -25 -58 -25 -10 0 -16 -4 -13 -9 3 -5 -8 -14
-25 -21 -46 -19 -47 -23 -41 -197 2 -39 5 -44 42 -63 22 -11 40 -25 40 -31 0
-6 4 -8 8 -5 5 3 25 -5 46 -18 35 -21 103 -26 91 -7 -2 4 27 25 65 46 l68 39
4 51 c2 27 1 75 -2 105 l-5 55 -85 52 c-47 29 -87 53 -90 52 -3 0 -23 -11 -45
-24z"/>
<path d="M1176 1195 c-10 -8 -23 -12 -27 -9 -5 3 -9 1 -9 -4 0 -11 -100 -66
-100 -55 0 4 -5 0 -11 -10 -11 -18 -15 -209 -6 -225 3 -4 26 -18 51 -31 25
-12 46 -27 46 -33 0 -6 3 -8 7 -5 3 4 21 -2 39 -14 l33 -20 52 28 c29 15 59
34 67 41 7 6 17 12 21 12 4 0 16 8 27 19 17 15 20 29 18 82 -1 35 -3 80 -3
100 -1 33 -5 38 -76 78 -42 24 -78 47 -81 52 -8 13 -26 10 -48 -6z"/>
<path d="M1565 1188 c-16 -10 -56 -32 -87 -49 l-58 -29 0 -104 c0 -118 -4
-111 105 -172 65 -36 122 -54 110 -34 -3 4 23 24 57 44 96 54 92 50 93 104 1
26 5 54 9 61 4 6 3 18 -4 25 -6 8 -8 25 -5 38 5 18 -1 29 -22 48 -15 13 -29
23 -31 21 -5 -5 -102 49 -102 57 0 15 -36 9 -65 -10z"/>
<path d="M355 1186 c-33 -19 -84 -46 -92 -48 -5 -2 -17 -11 -29 -21 -19 -16
-21 -27 -19 -115 1 -53 3 -100 4 -103 1 -9 178 -109 191 -109 5 0 10 4 10 9 0
10 29 22 43 18 5 -1 13 5 18 15 6 10 17 14 31 11 16 -3 19 -2 10 4 -9 7 -5 13
15 24 16 8 31 18 35 24 11 15 10 215 -1 215 -5 0 -16 6 -23 13 -24 22 -135 77
-154 76 -11 -1 -28 -6 -39 -13z"/>
<path d="M1904 1153 l-79 -48 -3 -102 -3 -102 41 -26 c22 -14 40 -30 40 -36 0
-5 6 -9 13 -7 6 1 26 -6 44 -15 18 -9 34 -17 38 -17 3 0 5 90 5 200 0 110 -4
200 -8 200 -5 0 -44 -21 -88 -47z"/>
<path d="M147 835 c-20 -14 -42 -23 -49 -19 -6 4 -8 3 -4 -4 5 -9 -32 -29 -43
-23 -2 2 -11 -9 -21 -24 -14 -21 -17 -46 -16 -120 1 -52 4 -95 6 -98 27 -21
144 -88 163 -93 18 -4 42 3 79 23 29 15 55 30 58 33 3 3 17 13 33 23 27 17 27
19 27 122 l0 105 -37 19 c-21 10 -46 28 -57 40 -10 11 -23 18 -27 15 -5 -3
-19 2 -31 10 -30 21 -37 20 -81 -9z"/>
<path d="M525 820 c-33 -21 -62 -36 -64 -34 -2 1 -12 -6 -23 -16 -18 -16 -21
-34 -24 -114 -3 -76 0 -98 12 -111 9 -8 20 -15 25 -15 6 0 7 -6 3 -12 -4 -7
-4 -10 1 -6 4 4 37 -9 72 -28 51 -29 69 -34 91 -28 15 4 32 8 39 9 6 0 15 4
20 9 5 5 2 6 -6 1 -9 -5 -12 -4 -7 3 4 6 14 8 23 5 10 -4 14 -2 10 4 -4 7 9
19 33 30 21 10 42 24 44 31 8 19 9 194 1 214 -3 9 -17 19 -29 22 -13 3 -49 21
-81 41 -33 19 -64 35 -69 34 -6 0 -38 -18 -71 -39z"/>
<path d="M966 845 c-10 -8 -23 -12 -27 -9 -5 3 -9 1 -9 -5 0 -6 -13 -17 -30
-26 -16 -9 -30 -13 -30 -11 0 3 -12 -6 -26 -19 -16 -15 -26 -35 -26 -55 -1
-17 -4 -33 -8 -35 -4 -3 -5 -17 -3 -32 3 -16 7 -44 8 -63 2 -19 4 -38 4 -42 1
-4 10 -10 21 -13 11 -4 18 -11 15 -16 -4 -5 3 -9 14 -9 11 0 26 -7 35 -15 8
-8 19 -15 24 -15 6 0 12 -6 15 -14 4 -9 20 -13 49 -11 32 1 61 13 115 48 l71
47 4 57 c1 32 1 80 -2 107 l-5 49 -85 48 c-47 27 -89 49 -95 49 -5 -1 -19 -7
-29 -15z"/>
<path d="M1331 824 c-30 -18 -59 -31 -64 -27 -6 3 -7 2 -4 -4 4 -6 -5 -15 -18
-21 -14 -7 -25 -20 -25 -29 -1 -10 -2 -56 -3 -102 -3 -93 -11 -81 91 -147 78
-50 93 -51 156 -16 29 17 57 28 61 24 5 -4 5 -2 2 4 -4 7 6 17 23 24 17 7 30
15 31 19 1 12 2 167 0 188 -1 16 -23 35 -87 72 -47 28 -91 51 -97 50 -7 -1
-36 -16 -66 -35z"/>
<path d="M1768 847 c-14 -7 -36 -21 -47 -31 -12 -11 -24 -17 -27 -13 -3 3 -14
-3 -25 -14 -11 -11 -24 -17 -28 -14 -14 8 -21 -22 -21 -95 0 -45 -4 -70 -12
-73 -10 -4 -10 -6 0 -6 6 -1 12 -12 12 -25 0 -14 9 -31 20 -39 11 -8 17 -17
13 -20 -3 -4 5 -7 19 -7 30 0 82 -45 72 -62 -4 -7 -3 -8 5 -4 6 4 8 13 4 19
-4 7 4 4 18 -5 25 -16 28 -15 88 18 34 19 68 31 74 28 7 -4 9 -4 5 1 -4 4 7
19 23 32 17 15 28 32 25 40 -3 8 -1 11 4 8 6 -4 10 24 10 74 0 45 -4 81 -8 81
-5 0 -14 11 -20 25 -6 14 -20 25 -29 25 -20 0 -104 49 -88 50 14 2 -27 19 -45
18 -8 0 -27 -5 -42 -11z m219 -189 c-3 -8 -6 -5 -6 6 -1 11 2 17 5 13 3 -3 4
-12 1 -19z"/>
<path d="M65 810 c3 -5 8 -10 11 -10 2 0 4 5 4 10 0 6 -5 10 -11 10 -5 0 -7
-4 -4 -10z"/>
<path d="M5 507 c-3 -7 -4 -101 -3 -210 l3 -197 88 51 87 51 0 101 c0 98 -7
130 -26 128 -5 -1 -16 5 -24 12 -8 7 -19 14 -25 15 -34 8 -45 15 -39 24 4 7 2
8 -4 4 -6 -4 -21 3 -32 14 -15 15 -22 17 -25 7z"/>
<path d="M763 507 c1 -5 -29 -29 -67 -51 -38 -23 -72 -50 -76 -61 -4 -11 -6
-58 -6 -105 1 -83 2 -85 33 -106 18 -12 29 -25 25 -29 -4 -4 0 -5 8 -4 8 2 36
-8 62 -24 26 -15 51 -27 57 -27 6 0 32 13 58 29 43 27 81 32 66 8 -4 -6 -1 -7
6 -2 9 5 10 10 2 18 -7 7 -2 16 19 29 17 10 30 25 31 33 0 8 1 51 1 95 0 44
-1 84 -1 89 -1 5 -36 31 -78 57 -78 47 -144 71 -140 51z"/>
<path d="M362 494 c-13 -9 -26 -14 -28 -11 -3 3 -16 -6 -29 -19 -13 -13 -30
-24 -38 -24 -8 0 -22 -9 -33 -21 -35 -39 -27 -239 10 -239 6 0 38 -16 71 -36
91 -55 99 -57 130 -28 14 13 33 24 42 24 9 0 26 12 39 26 13 14 28 23 33 20
16 -10 21 23 21 125 0 98 0 98 -29 113 -16 9 -31 22 -35 31 -3 9 -10 14 -16
10 -5 -3 -27 6 -49 20 -47 29 -59 31 -89 9z"/>
<path d="M1105 462 l-80 -49 -5 -103 -5 -104 50 -31 c125 -79 131 -82 163 -63
16 10 32 15 36 11 3 -3 6 -1 6 5 0 7 8 12 18 12 9 0 28 12 41 25 13 14 29 25
37 25 16 0 16 0 18 124 l1 90 -62 39 c-35 22 -63 42 -63 46 0 4 -6 8 -12 9 -7
1 -24 4 -38 7 -18 3 -47 -8 -105 -43z"/>
<path d="M1505 461 l-80 -47 -3 -106 -3 -106 40 -23 c39 -22 56 -43 46 -59 -3
-4 -27 4 -55 19 l-50 26 -40 -23 c-22 -13 -46 -20 -53 -16 -6 4 -9 4 -5 -1 11
-12 -29 -38 -45 -29 -6 4 -9 4 -5 -1 5 -5 -1 -14 -12 -22 -12 -9 -20 -26 -20
-44 l0 -29 180 0 180 0 0 33 c0 25 -6 36 -30 49 -19 11 -30 25 -30 39 l0 21
36 -21 c19 -12 41 -21 48 -21 23 0 38 -26 23 -39 -8 -6 -12 -22 -9 -36 l4 -25
179 0 c179 0 179 0 180 23 0 21 1 21 9 2 9 -20 9 -20 9 0 1 11 -9 27 -20 35
-12 8 -27 20 -33 26 -7 6 -22 15 -34 18 -12 4 -20 11 -18 15 3 4 -4 13 -16 20
-11 7 -17 8 -14 2 4 -6 -12 -2 -36 9 -23 10 -45 15 -48 10 -3 -4 -34 -25 -69
-44 -50 -29 -67 -34 -77 -25 -16 13 -14 15 70 63 27 16 46 23 42 17 -4 -6 -5
-11 -2 -11 14 0 45 70 44 100 0 19 3 50 6 68 5 21 3 32 -4 32 -6 0 -9 8 -6 18
4 11 -1 25 -11 34 -29 25 -160 98 -175 97 -7 0 -49 -22 -93 -48z"/>
<path d="M1964 494 c-12 -8 -32 -17 -45 -19 -13 -3 -25 -9 -27 -15 -2 -5 -19
-19 -38 -30 l-34 -22 0 -103 0 -104 63 -37 c34 -20 65 -41 69 -48 4 -6 8 -7 8
-3 0 4 9 3 20 -3 20 -11 20 -8 20 195 0 113 -3 205 -7 204 -5 0 -18 -7 -29
-15z"/>
<path d="M139 151 c-1 -3 -1 -10 0 -14 1 -4 -7 -10 -16 -14 -36 -13 -128 -76
-117 -80 7 -2 10 -13 7 -23 -5 -19 1 -20 181 -20 l186 0 0 28 c0 29 -40 74
-69 79 -8 1 -18 8 -22 15 -5 7 -9 9 -9 3 0 -5 -6 -3 -13 5 -7 8 -19 17 -27 19
-26 7 -100 9 -101 2z"/>
<path d="M505 113 c-44 -25 -81 -47 -82 -48 -2 -1 -6 -16 -9 -33 l-6 -32 186
0 186 0 0 28 c0 24 -19 71 -20 48 0 -5 -8 -2 -17 7 -23 20 -131 77 -147 77 -6
0 -47 -21 -91 -47z"/>
<path d="M943 134 c-24 -14 -43 -22 -43 -19 0 3 -9 -3 -21 -14 -12 -11 -28
-17 -37 -14 -10 4 -13 2 -8 -5 4 -7 3 -12 -2 -12 -6 0 -12 -16 -14 -35 l-4
-35 183 0 183 0 0 34 c0 28 -5 36 -30 46 -16 7 -41 23 -55 36 -14 13 -25 21
-25 18 0 -2 -13 2 -30 11 -39 20 -48 19 -97 -11z"/>
</g>
</svg>
