<?xml version="1.0" standalone="no"?>
<!DOCTYPE svg PUBLIC "-//W3C//DTD SVG 20010904//EN"
 "http://www.w3.org/TR/2001/REC-SVG-20010904/DTD/svg10.dtd">
<svg version="1.0" xmlns="http://www.w3.org/2000/svg"
 width="200.000000pt" height="200.000000pt" viewBox="0 0 200.000000 200.000000"
 preserveAspectRatio="xMidYMid meet">
<metadata>
Created by potrace 1.16, written by Peter Selinger 2001-2019
</metadata>
<g transform="translate(0.000000,200.000000) scale(0.100000,-0.100000)"
fill="#000000" stroke="none">
<path d="M0 1970 c0 -16 2 -30 5 -30 3 0 26 13 53 30 l47 30 -52 0 c-52 0 -53
0 -53 -30z"/>
<path d="M76 1966 c-32 -19 -62 -40 -67 -48 -13 -20 -11 -81 2 -72 8 5 8 1 0
-14 -13 -24 -15 -125 -2 -120 5 2 45 23 89 48 51 28 80 50 77 58 -3 7 0 10 5
7 6 -4 10 27 10 84 l0 91 -27 0 c-16 0 -54 -16 -87 -34z m4 -86 c0 -5 -2 -10
-4 -10 -3 0 -8 5 -11 10 -3 6 -1 10 4 10 6 0 11 -4 11 -10z m60 -36 c0 -2 -9
0 -20 6 -11 6 -20 13 -20 16 0 2 9 0 20 -6 11 -6 20 -13 20 -16z"/>
<path d="M200 1953 c0 -29 4 -42 11 -37 8 5 8 1 0 -14 -21 -39 -13 -79 18
-101 16 -12 31 -21 34 -21 3 0 29 -16 58 -35 30 -19 57 -35 61 -35 3 0 9 12
11 28 l4 27 2 -27 c1 -34 4 -34 58 -2 25 14 41 30 37 36 -4 6 -3 8 4 4 16 -10
84 26 77 42 -2 7 -1 10 4 7 6 -3 10 33 10 85 0 89 0 90 -24 90 -34 0 -76 -21
-68 -34 3 -6 3 -8 -2 -4 -4 4 -25 -2 -46 -13 -41 -20 -55 -49 -47 -97 3 -15 2
-40 -2 -57 -6 -21 -8 -8 -9 47 -1 70 -3 78 -27 97 -15 12 -32 21 -39 21 -7 0
-18 7 -25 15 -11 13 -9 15 13 13 14 -1 23 -6 21 -10 -5 -8 48 -38 68 -38 7 0
33 13 57 29 l44 29 -152 0 -151 0 0 -45z m130 -72 c0 -5 -9 -11 -21 -14 -16
-4 -18 -3 -8 9 13 16 29 19 29 5z m155 -1 c3 -5 2 -10 -4 -10 -5 0 -13 5 -16
10 -3 6 -2 10 4 10 5 0 13 -4 16 -10z m40 -28 c-3 -3 -11 0 -18 7 -9 10 -8 11
6 5 10 -3 15 -9 12 -12z"/>
<path d="M602 1910 c0 -87 1 -91 28 -110 16 -11 31 -20 34 -20 3 0 30 -16 60
-35 30 -19 58 -35 61 -35 3 0 5 47 5 104 0 101 -1 105 -26 125 -15 12 -32 21
-38 21 -6 0 -22 9 -36 20 -14 11 -39 20 -57 20 l-31 0 0 -90z m128 -30 c0 -5
-4 -10 -10 -10 -5 0 -10 5 -10 10 0 6 5 10 10 10 6 0 10 -4 10 -10z"/>
<path d="M711 1985 c87 -50 86 -50 125 -32 19 10 33 21 30 25 -2 4 7 9 20 10
33 2 22 -14 -20 -32 -58 -24 -63 -35 -64 -145 -1 -56 1 -101 5 -101 19 0 93
53 87 62 -4 7 -2 8 4 4 12 -7 72 20 84 38 4 6 8 50 8 97 l0 87 -152 0 c-134 1
-149 -1 -127 -13z m175 -113 c-4 -3 -14 2 -24 12 -16 18 -16 18 6 6 13 -6 21
-14 18 -18z m39 -20 c-3 -3 -11 0 -18 7 -9 10 -8 11 6 5 10 -3 15 -9 12 -12z"/>
<path d="M1003 1908 l1 -91 38 -24 c21 -14 44 -23 53 -20 8 4 14 1 12 -5 -1
-7 19 -23 45 -37 l46 -25 51 24 c55 25 58 29 39 50 -11 12 -10 12 3 2 18 -13
40 -8 79 18 36 24 60 32 54 17 -5 -15 60 -52 75 -42 7 3 10 1 9 -6 -3 -11 65
-58 84 -59 4 0 7 45 7 100 -1 57 -5 100 -11 100 -5 0 -6 4 -3 10 3 5 -11 18
-32 27 -42 20 -71 43 -53 43 6 0 28 -11 48 -25 45 -31 60 -31 104 -1 19 13 41
26 49 28 8 3 -147 6 -343 6 l-357 0 2 -90z m145 57 c20 -14 44 -25 52 -25 8 0
32 11 52 25 20 14 42 25 48 25 21 0 0 -18 -45 -40 l-45 -22 -2 -86 c0 -48 -3
-72 -5 -54 -2 17 -9 32 -16 32 -8 0 -8 3 1 12 18 18 15 74 -5 94 -10 9 -32 23
-49 30 -18 8 -35 18 -39 24 -11 18 15 11 53 -15z m260 -57 c0 -46 -3 -68 -5
-50 -2 17 -9 32 -14 32 -6 0 -6 7 1 19 5 11 10 33 10 50 0 17 2 31 5 31 3 0 4
-37 3 -82z m-278 -28 c0 -5 -5 -10 -11 -10 -5 0 -7 5 -4 10 3 6 8 10 11 10 2
0 4 -4 4 -10z m203 -14 c9 5 9 4 1 -5 -7 -8 -17 -8 -37 1 -15 7 -27 17 -27 22
0 4 11 1 25 -8 14 -9 31 -14 38 -10z m197 14 c0 -5 -5 -10 -11 -10 -5 0 -7 5
-4 10 3 6 8 10 11 10 2 0 4 -4 4 -10z m-440 -24 c-7 -7 -13 -7 -20 0 -6 6 -3
10 10 10 13 0 16 -4 10 -10z m405 4 c-3 -5 -12 -10 -18 -10 -7 0 -6 4 3 10 19
12 23 12 15 0z m-288 -132 c-3 -8 -6 -5 -6 6 -1 11 2 17 5 13 3 -3 4 -12 1
-19z"/>
<path d="M1710 1980 c-14 -11 -29 -20 -33 -20 -5 0 -22 -9 -38 -21 -29 -20
-29 -21 -29 -125 0 -57 2 -104 5 -104 3 0 31 16 61 35 30 19 57 35 60 35 3 0
19 9 35 21 31 22 39 62 19 100 -7 13 -7 19 -1 19 6 0 10 18 8 40 -2 37 -4 40
-32 40 -16 0 -41 -9 -55 -20z m-11 -104 c10 -12 8 -13 -8 -9 -12 3 -21 9 -21
14 0 14 16 11 29 -5z"/>
<path d="M1810 1909 c0 -57 4 -88 10 -84 5 3 7 0 5 -7 -7 -17 59 -53 76 -43 7
5 10 4 5 -3 -6 -9 68 -62 87 -62 4 0 6 45 6 101 -1 89 -3 102 -22 120 -12 11
-32 22 -44 25 -13 4 -23 9 -23 13 0 12 -48 31 -75 31 -25 0 -25 -1 -25 -91z
m140 -19 c-24 -19 -40 -25 -40 -15 0 5 51 34 60 34 3 0 -6 -8 -20 -19z m-50
-25 c0 -2 -10 -9 -22 -15 -22 -11 -22 -10 -4 4 21 17 26 19 26 11z"/>
<path d="M1942 1970 c54 -37 58 -37 58 -1 0 28 -1 29 -51 29 l-50 1 43 -29z"/>
<path d="M155 1779 c-16 -11 -56 -34 -89 -50 -32 -17 -55 -34 -50 -38 5 -5 34
-22 65 -39 32 -17 69 -38 84 -48 25 -16 28 -16 58 0 84 44 149 84 149 91 0 5
-22 21 -48 35 -27 15 -65 36 -84 48 -43 27 -48 27 -85 1z m65 -53 c0 -2 -7 -6
-15 -10 -8 -3 -15 -1 -15 4 0 6 7 10 15 10 8 0 15 -2 15 -4z m-20 -56 c0 -5
-5 -10 -11 -10 -5 0 -7 5 -4 10 3 6 8 10 11 10 2 0 4 -4 4 -10z"/>
<path d="M560 1782 c-14 -9 -27 -19 -30 -22 -3 -3 -31 -18 -63 -34 -64 -32
-65 -29 23 -78 25 -14 59 -34 77 -44 30 -18 32 -18 67 1 20 11 36 22 36 25 0
3 15 11 33 18 17 7 43 21 56 31 l24 18 -45 27 c-25 14 -52 26 -61 26 -10 0
-17 4 -17 10 0 10 -52 40 -67 39 -4 0 -19 -8 -33 -17z"/>
<path d="M960 1782 c-14 -9 -27 -19 -30 -22 -3 -3 -27 -16 -54 -30 -27 -14
-49 -29 -49 -35 1 -10 158 -105 174 -105 16 0 69 37 62 43 -3 4 2 7 12 7 10 0
38 12 63 26 l45 27 -24 18 c-13 10 -37 24 -54 31 -16 6 -32 14 -35 18 -12 13
-60 40 -72 39 -7 0 -24 -8 -38 -17z m50 -62 c0 -5 -4 -10 -10 -10 -5 0 -10 5
-10 10 0 6 5 10 10 10 6 0 10 -4 10 -10z m5 -58 c-3 -3 -11 0 -18 7 -9 10 -8
11 6 5 10 -3 15 -9 12 -12z"/>
<path d="M1360 1782 c-14 -9 -27 -19 -30 -22 -3 -3 -27 -16 -53 -30 -26 -14
-49 -29 -49 -35 -1 -5 21 -21 48 -35 27 -14 51 -28 54 -31 3 -3 19 -14 37 -24
31 -18 33 -18 67 0 19 10 32 23 29 28 -3 6 -2 7 3 4 12 -7 109 44 109 58 0 14
-97 65 -110 58 -5 -4 -7 -3 -3 2 9 9 -45 45 -65 44 -6 0 -23 -8 -37 -17z m50
-62 c0 -5 -5 -10 -11 -10 -5 0 -7 5 -4 10 3 6 8 10 11 10 2 0 4 -4 4 -10z"/>
<path d="M1765 1783 c-16 -9 -32 -19 -35 -22 -3 -3 -28 -18 -55 -32 -28 -14
-49 -30 -49 -35 1 -4 23 -20 50 -34 27 -14 51 -28 54 -31 3 -3 20 -14 38 -25
32 -19 33 -19 65 0 18 11 60 35 95 54 l62 36 -27 16 c-16 9 -56 33 -90 53 -69
42 -68 42 -108 20z m50 -113 c3 -5 1 -10 -4 -10 -6 0 -11 5 -11 10 0 6 2 10 4
10 3 0 8 -4 11 -10z"/>
<path d="M1 1581 c1 -57 5 -101 11 -101 5 0 7 -4 4 -9 -3 -5 18 -22 46 -39 29
-16 70 -40 91 -52 l37 -22 0 107 c0 70 -3 104 -10 100 -6 -4 -9 -1 -8 6 2 8
-10 20 -27 29 -16 9 -49 28 -73 43 -74 48 -72 51 -71 -62z m139 -36 c0 -2 -10
-9 -22 -15 -22 -11 -22 -10 -4 4 21 17 26 19 26 11z m-50 -30 c0 -2 -10 -10
-22 -16 -21 -11 -22 -11 -9 4 13 16 31 23 31 12z"/>
<path d="M330 1649 c-25 -16 -61 -37 -80 -46 -19 -9 -38 -21 -41 -26 -7 -9
-11 -217 -5 -217 6 0 110 61 158 93 26 17 27 20 27 122 0 58 -3 105 -7 104 -4
0 -27 -14 -52 -30z m-70 -105 c0 -2 -9 0 -20 6 -11 6 -20 13 -20 16 0 2 9 0
20 -6 11 -6 20 -13 20 -16z m70 -34 c0 -5 -4 -10 -10 -10 -5 0 -10 5 -10 10 0
6 5 10 10 10 6 0 10 -4 10 -10z"/>
<path d="M401 1588 c1 -51 3 -101 6 -110 2 -9 27 -30 56 -46 29 -16 69 -39 89
-52 l37 -22 -1 106 c0 61 -4 103 -9 100 -5 -3 -8 0 -7 7 2 6 -12 21 -30 31
-28 17 -35 18 -50 7 -15 -12 -16 -12 -4 2 11 15 7 20 -32 43 -25 14 -47 26
-50 26 -3 0 -6 -42 -5 -92z m129 -52 c0 -2 -7 -7 -16 -10 -8 -3 -12 -2 -9 4 6
10 25 14 25 6z m-40 -20 c0 -3 -4 -8 -10 -11 -5 -3 -10 -1 -10 4 0 6 5 11 10
11 6 0 10 -2 10 -4z"/>
<path d="M722 1644 c-29 -18 -55 -34 -58 -34 -3 0 -19 -9 -34 -20 -28 -20 -28
-22 -29 -125 0 -58 2 -105 4 -105 7 0 78 41 93 53 8 6 32 20 54 31 23 12 40
24 39 29 0 4 -1 52 -1 107 0 55 -3 100 -7 99 -5 0 -32 -16 -61 -35z m8 -134
c0 -5 -4 -10 -9 -10 -6 0 -13 5 -16 10 -3 6 1 10 9 10 9 0 16 -4 16 -10z"/>
<path d="M801 1588 c1 -51 3 -101 6 -110 2 -9 33 -33 69 -52 36 -20 76 -43 89
-52 l25 -16 -1 106 c0 62 -4 104 -10 101 -5 -3 -6 0 -4 7 4 9 -11 22 -37 36
-24 12 -61 33 -83 47 -22 13 -43 24 -48 25 -4 0 -7 -42 -6 -92z m129 -52 c0
-2 -7 -7 -16 -10 -8 -3 -12 -2 -9 4 6 10 25 14 25 6z m-40 -20 c0 -3 -4 -8
-10 -11 -5 -3 -10 -1 -10 4 0 6 5 11 10 11 6 0 10 -2 10 -4z"/>
<path d="M1095 1627 c-80 -47 -90 -57 -93 -85 -2 -17 2 -40 8 -52 8 -14 8 -20
0 -20 -7 0 -10 -21 -9 -55 1 -30 4 -55 6 -55 10 0 107 60 98 60 -5 1 8 7 30
15 22 8 45 22 52 31 11 15 14 14 34 -5 12 -11 31 -23 41 -27 10 -3 42 -21 71
-40 28 -19 55 -34 59 -34 4 0 9 17 11 38 l4 37 1 -38 2 -39 48 28 c26 15 49
30 52 33 3 3 22 14 43 24 21 9 35 22 32 27 -3 6 -2 10 3 10 5 0 9 45 10 100 0
55 -4 100 -8 100 -4 0 -30 -15 -57 -33 -27 -18 -64 -39 -81 -46 -22 -9 -31
-19 -28 -28 3 -8 1 -11 -4 -8 -6 3 -10 1 -10 -6 0 -8 -5 -6 -13 5 -13 17 -55
45 -139 90 l-47 26 -4 -23 -4 -22 -2 23 c0 12 -4 22 -9 22 -4 0 -48 -24 -97
-53z m116 -102 l-5 -40 -6 36 c-3 20 -4 53 -1 75 l5 39 6 -35 c3 -19 3 -53 1
-75z m-36 47 c-3 -3 -11 0 -18 7 -9 10 -8 11 6 5 10 -3 15 -9 12 -12z m205 -7
c0 -2 -10 -9 -22 -15 -22 -11 -22 -10 -4 4 21 17 26 19 26 11z m-285 -35 c3
-6 -1 -7 -9 -4 -18 7 -21 14 -7 14 6 0 13 -4 16 -10z m312 -59 c-15 -6 -17 5
-10 40 l7 34 6 -35 c3 -19 1 -37 -3 -39z m88 59 c3 -6 -1 -7 -9 -4 -18 7 -21
14 -7 14 6 0 13 -4 16 -10z m-205 -20 c0 -5 -4 -10 -10 -10 -5 0 -10 5 -10 10
0 6 5 10 10 10 6 0 10 -4 10 -10z m240 0 c0 -5 -2 -10 -4 -10 -3 0 -8 5 -11
10 -3 6 -1 10 4 10 6 0 11 -4 11 -10z"/>
<path d="M1609 1648 c-3 -161 6 -199 53 -214 10 -3 42 -21 71 -40 28 -19 54
-34 58 -34 12 0 8 209 -5 219 -6 5 -29 19 -51 31 -22 12 -59 33 -82 47 l-43
25 -1 -34z m91 -133 c-14 -17 -30 -20 -30 -6 0 5 8 12 18 14 9 3 19 5 21 6 2
0 -2 -6 -9 -14z"/>
<path d="M1942 1654 c-23 -14 -40 -29 -38 -33 3 -4 -1 -8 -8 -8 -30 0 -77 -26
-72 -40 3 -8 1 -11 -4 -8 -6 4 -10 -33 -10 -100 l0 -107 48 28 c26 15 49 30
52 33 3 3 22 14 43 24 21 9 35 22 32 27 -3 6 -1 10 4 10 6 0 11 16 11 36 0 23
-4 33 -11 28 -8 -5 -8 -1 0 14 12 23 15 122 4 122 -5 0 -27 -12 -51 -26z m-42
-130 c0 -2 -13 2 -30 11 -16 9 -30 18 -30 21 0 2 14 -2 30 -11 17 -9 30 -18
30 -21z m30 -14 c0 -5 -2 -10 -4 -10 -3 0 -8 5 -11 10 -3 6 -1 10 4 10 6 0 11
-4 11 -10z"/>
<path d="M1 1232 c1 -121 4 -224 7 -229 4 -6 32 -24 63 -40 31 -17 67 -38 80
-47 13 -9 32 -16 43 -16 20 0 176 86 189 104 4 6 7 40 6 76 0 36 0 76 1 90 l2
25 7 -25 c4 -14 6 -53 3 -87 -4 -47 -1 -63 8 -63 15 0 83 40 88 52 2 4 10 8
19 8 8 0 28 9 44 21 29 20 29 21 29 125 0 57 -3 104 -7 104 -5 0 -42 -21 -83
-45 -41 -25 -77 -45 -81 -45 -3 0 -10 -10 -16 -22 -10 -22 -10 -23 -17 -3 -8
26 -62 59 -82 51 -8 -3 -12 -1 -9 4 6 9 -65 60 -85 60 -5 0 -9 -40 -9 -100 1
-57 5 -100 11 -100 5 0 7 -4 4 -9 -3 -4 11 -17 32 -27 20 -10 39 -22 42 -25 3
-4 25 -16 48 -28 24 -12 42 -25 39 -28 -3 -2 -26 7 -51 22 -26 15 -53 24 -62
21 -8 -3 -12 -2 -9 3 7 12 -34 41 -58 41 -10 0 -31 -8 -45 -18 -37 -25 -128
-72 -138 -72 -5 0 11 12 36 27 25 15 47 29 50 32 3 3 23 15 45 26 35 17 40 25
43 57 2 20 -2 47 -8 59 -8 15 -9 19 -1 15 7 -5 11 11 11 48 0 31 -3 56 -8 56
-4 0 -31 -15 -60 -34 -28 -19 -52 -33 -52 -30 0 2 -11 -3 -25 -12 -14 -9 -28
-15 -30 -12 -3 3 6 11 20 18 14 7 25 17 25 22 0 4 7 8 15 8 8 0 36 13 61 29
l47 29 -24 15 c-13 9 -37 21 -54 28 -16 8 -44 24 -61 36 -17 13 -34 23 -37 23
-4 0 -6 -98 -6 -218z m334 -42 c-3 -5 -12 -10 -18 -10 -7 0 -6 4 3 10 19 12
23 12 15 0z m159 -8 c2 -4 -4 -8 -14 -8 -10 0 -16 4 -14 8 3 4 9 8 14 8 5 0
11 -4 14 -8z m-364 -16 c0 -3 -4 -8 -10 -11 -5 -3 -10 -1 -10 4 0 6 5 11 10
11 6 0 10 -2 10 -4z m155 -6 c-3 -5 -11 -10 -16 -10 -6 0 -7 5 -4 10 3 6 11
10 16 10 6 0 7 -4 4 -10z m245 0 c0 -5 -2 -10 -4 -10 -3 0 -8 5 -11 10 -3 6
-1 10 4 10 6 0 11 -4 11 -10z m-320 -134 c0 -3 -4 -8 -10 -11 -5 -3 -10 -1
-10 4 0 6 5 11 10 11 6 0 10 -2 10 -4z m-5 -46 c3 -5 1 -10 -4 -10 -6 0 -11 5
-11 10 0 6 2 10 4 10 3 0 8 -4 11 -10z"/>
<path d="M350 1428 c-19 -12 -55 -32 -80 -46 -25 -13 -48 -27 -52 -31 -4 -4
18 -20 50 -36 31 -17 59 -33 62 -37 3 -4 22 -14 41 -22 31 -13 39 -13 56 -1
11 8 47 28 79 46 78 42 80 45 53 61 -119 72 -149 88 -161 88 -7 0 -29 -10 -48
-22z m60 -52 c0 -3 -4 -8 -10 -11 -5 -3 -10 -1 -10 4 0 6 5 11 10 11 6 0 10
-2 10 -4z"/>
<path d="M748 1428 c-18 -13 -55 -34 -81 -48 -26 -13 -46 -29 -44 -34 2 -5 25
-21 52 -35 28 -14 52 -29 55 -33 3 -4 22 -14 41 -22 33 -14 38 -13 70 6 19 12
56 34 84 48 27 15 50 31 52 36 2 5 -18 20 -44 34 -27 14 -63 35 -82 47 -42 29
-59 29 -103 1z m67 -108 c3 -6 -1 -7 -9 -4 -18 7 -21 14 -7 14 6 0 13 -4 16
-10z"/>
<path d="M1150 1427 c-19 -13 -56 -34 -83 -47 -26 -14 -46 -29 -44 -33 3 -9
96 -65 152 -91 26 -12 33 -12 60 1 16 9 32 19 35 22 3 3 27 18 55 32 27 14 50
30 52 35 3 10 -80 57 -103 57 -7 0 -12 3 -9 5 7 8 -47 42 -65 42 -9 0 -31 -10
-50 -23z"/>
<path d="M1541 1421 c-24 -16 -61 -37 -82 -47 -22 -9 -38 -22 -36 -27 1 -5 25
-21 52 -36 28 -14 67 -37 88 -50 38 -23 39 -23 73 -5 19 10 34 22 34 25 0 4
10 9 23 13 12 3 40 16 61 29 l39 24 -46 27 c-25 15 -55 28 -66 29 -11 0 -18 5
-15 9 5 8 -48 38 -68 38 -7 0 -33 -13 -57 -29z m69 -51 c0 -5 -2 -10 -4 -10
-3 0 -8 5 -11 10 -3 6 -1 10 4 10 6 0 11 -4 11 -10z m0 -44 c0 -2 -7 -7 -16
-10 -8 -3 -12 -2 -9 4 6 10 25 14 25 6z"/>
<path d="M1959 1431 c-13 -10 -44 -28 -69 -41 -76 -38 -76 -40 -26 -72 25 -15
53 -28 61 -28 8 0 15 -4 15 -8 0 -5 12 -14 26 -21 15 -6 24 -14 21 -17 -5 -5
-98 42 -142 72 -11 8 -23 14 -27 14 -11 0 -10 -188 2 -209 5 -10 24 -24 42
-32 18 -7 35 -16 38 -19 3 -4 26 -19 52 -34 l46 -27 0 221 c0 121 -3 220 -7
220 -5 0 -19 -8 -32 -19z m-25 -249 c2 -4 -4 -8 -14 -8 -10 0 -16 4 -14 8 3 4
9 8 14 8 5 0 11 -4 14 -8z m-44 -22 c0 -5 -5 -10 -11 -10 -5 0 -7 5 -4 10 3 6
8 10 11 10 2 0 4 -4 4 -10z"/>
<path d="M601 1230 c1 -57 5 -100 11 -100 5 0 7 -4 4 -9 -3 -5 11 -17 32 -28
57 -29 133 -75 129 -79 -4 -4 -76 33 -127 64 -37 23 -70 28 -86 13 -5 -5 -38
-25 -74 -45 -36 -19 -65 -40 -65 -46 0 -6 29 -27 65 -46 36 -20 69 -40 75 -45
17 -17 48 -9 117 31 39 22 74 40 79 40 19 0 29 44 28 130 0 50 2 94 5 97 7 7
10 -38 7 -124 -1 -43 2 -63 10 -63 15 0 89 42 89 51 0 4 11 10 25 13 55 14 65
37 65 146 0 55 -3 100 -6 100 -6 0 -142 -78 -164 -95 -8 -6 -28 -17 -45 -23
-26 -11 -28 -10 -12 1 9 8 17 17 17 20 0 12 -62 39 -75 33 -8 -3 -12 0 -9 7 4
10 -68 57 -88 57 -4 0 -7 -45 -7 -100z m139 -35 c0 -2 -10 -9 -22 -15 -22 -11
-22 -10 -4 4 21 17 26 19 26 11z m160 -21 c0 -2 -9 0 -20 6 -11 6 -20 13 -20
16 0 2 9 0 20 -6 11 -6 20 -13 20 -16z m-215 -14 c-3 -5 -11 -10 -16 -10 -6 0
-7 5 -4 10 3 6 11 10 16 10 6 0 7 -4 4 -10z m245 0 c0 -5 -2 -10 -4 -10 -3 0
-8 5 -11 10 -3 6 -1 10 4 10 6 0 11 -4 11 -10z"/>
<path d="M1002 1230 c0 -55 5 -100 10 -100 5 0 7 -4 4 -9 -4 -5 13 -19 36 -31
24 -12 63 -34 88 -49 33 -21 52 -26 71 -21 39 11 89 39 89 50 0 6 7 10 15 10
20 0 76 35 68 43 -3 4 1 7 10 7 9 0 28 -11 43 -25 15 -14 35 -25 45 -25 9 0
19 -4 21 -8 4 -11 73 -52 87 -52 7 0 11 21 11 54 0 47 -4 57 -27 76 -20 15
-22 18 -6 11 12 -6 24 -11 27 -11 9 0 7 63 -2 75 -12 17 -170 105 -189 105
-28 0 -104 -44 -99 -57 3 -7 -1 -10 -9 -7 -19 8 -77 -28 -71 -43 6 -14 -17 -7
-54 17 -56 37 -149 90 -158 90 -7 0 -10 -38 -10 -100z m404 -28 c-11 -10 -12
3 -7 63 l6 60 3 -59 c2 -32 1 -61 -2 -64z m-266 -7 c0 -2 -10 -10 -22 -16 -21
-11 -22 -11 -9 4 13 16 31 23 31 12z m160 -18 c0 -2 -8 -3 -18 -3 -10 0 -19 6
-19 13 0 8 6 9 19 2 10 -5 18 -11 18 -12z m237 10 c0 -7 -9 -13 -19 -13 -18 0
-18 1 -2 13 10 7 18 13 19 13 1 0 2 -6 2 -13z m-327 -12 c0 -8 -4 -15 -10 -15
-5 0 -7 7 -4 15 4 8 8 15 10 15 2 0 4 -7 4 -15z m-126 -16 c-8 -14 -21 -11
-21 5 0 8 6 12 14 9 7 -3 10 -9 7 -14z m404 7 c-2 -1 -12 -8 -23 -16 -18 -14
-19 -13 -8 1 7 9 10 19 6 23 -4 4 1 4 10 0 10 -3 17 -7 15 -8z m-158 -6 c0 -5
-2 -10 -4 -10 -3 0 -8 5 -11 10 -3 6 -1 10 4 10 6 0 11 -4 11 -10z m-120 -62
c0 -28 -2 -49 -4 -47 -8 9 -13 99 -5 99 5 0 9 -23 9 -52z"/>
<path d="M1737 1306 c-20 -11 -35 -26 -33 -33 3 -7 -1 -10 -9 -7 -15 6 -45 -8
-69 -32 -23 -22 -22 -446 1 -469 23 -23 53 -37 69 -31 7 3 13 0 11 -6 -2 -10
68 -57 85 -58 4 0 7 45 7 100 -1 57 -5 100 -11 100 -5 0 -7 4 -4 9 3 4 -11 17
-32 27 -20 10 -39 22 -42 25 -3 4 -25 16 -48 28 -24 12 -42 25 -39 27 3 3 41
-15 85 -40 78 -46 109 -54 127 -37 6 5 33 22 60 37 71 39 85 48 85 56 0 12
-94 59 -107 53 -8 -2 -12 -1 -9 4 7 11 -37 41 -60 41 -9 0 -53 -21 -96 -46
-44 -25 -82 -43 -84 -41 -5 5 43 35 123 78 23 12 40 26 37 31 -3 4 -1 8 4 8 6
0 10 43 11 100 0 111 0 111 -62 76z m-92 -96 c3 -6 -1 -7 -9 -4 -18 7 -21 14
-7 14 6 0 13 -4 16 -10z m40 -28 c-3 -3 -11 0 -18 7 -9 10 -8 11 6 5 10 -3 15
-9 12 -12z m51 -30 c-4 -3 -14 2 -24 12 -16 18 -16 18 6 6 13 -6 21 -14 18
-18z m-1 -312 c-3 -5 -11 -10 -16 -10 -6 0 -7 5 -4 10 3 6 11 10 16 10 6 0 7
-4 4 -10z m-45 -25 c0 -2 -6 -5 -13 -8 -8 -3 -14 1 -14 8 0 7 6 11 14 8 7 -3
13 -6 13 -8z"/>
<path d="M955 1084 c-11 -8 -45 -29 -76 -45 -70 -37 -83 -61 -77 -133 3 -31 1
-56 -4 -56 -4 0 -8 32 -8 70 l0 71 -52 -33 c-29 -18 -70 -42 -90 -53 -20 -10
-35 -23 -32 -27 3 -4 1 -8 -4 -8 -6 0 -10 -43 -11 -100 0 -55 3 -100 7 -100
19 0 92 46 88 56 -3 7 3 10 12 8 9 -3 32 5 50 16 26 16 32 26 33 57 l2 38 6
-35 c7 -38 63 -85 93 -77 10 3 15 0 12 -7 -4 -10 19 -25 79 -54 4 -2 7 19 7
47 0 28 3 51 8 51 4 0 5 -22 4 -50 -3 -32 0 -50 7 -50 6 0 53 25 103 55 94 57
108 63 108 44 0 -13 68 -42 80 -34 6 3 7 0 5 -7 -6 -15 72 -58 103 -58 15 0
150 75 179 99 7 6 11 47 12 106 0 113 -9 133 -72 161 -23 10 -56 29 -73 41
-17 13 -39 23 -48 23 -20 0 -159 -75 -182 -97 -11 -12 -15 -34 -13 -82 2 -64
0 -71 -21 -71 -7 0 -7 6 0 19 5 11 10 40 10 64 0 50 -27 85 -83 108 -17 7 -47
24 -66 36 -39 27 -68 29 -96 7z m-85 -119 c22 -14 40 -23 40 -20 0 3 15 -5 33
-19 41 -32 70 -33 109 -5 37 27 121 70 126 65 2 -2 -15 -14 -37 -27 -23 -12
-41 -26 -41 -31 0 -4 -6 -8 -14 -8 -27 0 -77 -35 -82 -58 -4 -12 -4 -36 0 -52
3 -17 1 -30 -4 -30 -6 0 -10 20 -10 45 0 50 -21 80 -65 91 -14 3 -25 9 -25 13
0 4 -18 17 -40 30 -37 20 -48 31 -35 31 3 0 23 -11 45 -25z m438 -20 c89 -50
106 -53 142 -25 14 11 28 20 33 20 4 0 26 12 48 26 23 14 43 23 45 21 3 -3
-12 -15 -33 -28 -21 -13 -39 -27 -41 -31 -2 -4 -12 -8 -21 -8 -20 0 -71 -43
-71 -60 0 -7 -5 -6 -14 2 -8 7 -12 15 -10 17 6 6 -54 41 -71 41 -8 0 -15 4
-15 8 0 5 -18 18 -40 31 -35 20 -48 31 -36 31 2 0 40 -20 84 -45z m-623 -105
c3 -5 1 -10 -4 -10 -6 0 -11 5 -11 10 0 6 2 10 4 10 3 0 8 -4 11 -10z m245 0
c0 -5 -5 -10 -11 -10 -5 0 -7 5 -4 10 3 6 8 10 11 10 2 0 4 -4 4 -10z m155 0
c3 -5 2 -10 -4 -10 -5 0 -13 5 -16 10 -3 6 -2 10 4 10 5 0 13 -4 16 -10z m245
0 c0 -5 -5 -10 -11 -10 -5 0 -7 5 -4 10 3 6 8 10 11 10 2 0 4 -4 4 -10z m155
0 c3 -5 1 -10 -4 -10 -6 0 -11 5 -11 10 0 6 2 10 4 10 3 0 8 -4 11 -10z m-78
-22 c-3 -8 -6 -5 -6 6 -1 11 2 17 5 13 3 -3 4 -12 1 -19z m-667 -14 c0 -2 -9
0 -20 6 -11 6 -20 13 -20 16 0 2 9 0 20 -6 11 -6 20 -13 20 -16z m160 19 c0
-1 -8 -7 -18 -12 -13 -7 -19 -6 -19 2 0 7 9 13 19 13 10 0 18 -1 18 -3z m230
-7 c-7 -7 -13 -7 -20 0 -6 6 -3 10 10 10 13 0 16 -4 10 -10z m77 -18 c-3 -7
-5 -2 -5 12 0 14 2 19 5 13 2 -7 2 -19 0 -25z m93 27 c0 -2 -10 -9 -22 -15
-22 -11 -22 -10 -4 4 21 17 26 19 26 11z m225 -13 c-3 -3 -11 0 -18 7 -9 10
-8 11 6 5 10 -3 15 -9 12 -12z m-115 -54 c0 -49 -5 -47 -13 5 -3 20 -2 37 4
37 5 0 9 -19 9 -42z m-3 -70 c-3 -8 -6 -5 -6 6 -1 11 2 17 5 13 3 -3 4 -12 1
-19z"/>
<path d="M333 956 c-29 -19 -61 -37 -71 -40 -10 -4 -28 -15 -39 -26 -18 -17
-21 -31 -22 -119 0 -66 3 -101 10 -101 6 0 30 13 54 29 24 16 52 32 62 35 11
3 29 15 41 26 18 17 21 31 21 125 1 58 0 105 -2 105 -1 0 -26 -15 -54 -34z
m-48 -116 c3 -5 2 -10 -4 -10 -5 0 -13 5 -16 10 -3 6 -2 10 4 10 5 0 13 -4 16
-10z m45 -24 c-7 -7 -13 -7 -20 0 -6 6 -3 10 10 10 13 0 16 -4 10 -10z"/>
<path d="M1 765 c0 -118 2 -215 4 -215 3 0 23 11 45 25 22 14 42 25 45 25 3 0
24 12 47 26 l41 26 -48 30 c-26 16 -56 28 -66 25 -11 -3 -16 0 -13 7 3 7 -7
18 -21 26 -14 7 -23 15 -21 17 6 6 57 -20 109 -54 27 -18 53 -33 58 -33 14 0
11 114 -3 129 -10 11 -10 13 0 7 8 -5 12 2 12 24 0 44 -14 65 -52 81 -18 7
-35 16 -38 19 -9 11 -77 50 -88 50 -6 0 -10 -75 -11 -215z m129 70 c11 -13 10
-14 -4 -9 -9 3 -16 10 -16 15 0 13 6 11 20 -6z"/>
<path d="M402 881 c0 -54 3 -103 7 -108 6 -9 167 -103 176 -103 3 0 5 45 5
100 0 109 -10 132 -65 146 -14 3 -25 9 -25 13 0 9 -73 51 -88 51 -7 0 -11 -35
-10 -99z m128 -46 c11 -13 10 -14 -4 -9 -9 3 -16 10 -16 15 0 13 6 11 20 -6z"/>
<path d="M1940 959 c-19 -12 -37 -25 -40 -28 -3 -4 -20 -13 -38 -20 -18 -8
-37 -21 -42 -30 -10 -20 -13 -211 -2 -211 4 0 23 10 42 22 62 37 119 68 127
68 13 0 -46 -38 -110 -71 -32 -16 -55 -34 -52 -38 4 -8 137 -86 168 -99 11 -5
7 290 -5 312 -7 13 -7 16 1 12 7 -5 11 11 11 48 0 63 -7 67 -60 35z m-50 -118
c0 -5 -7 -11 -14 -14 -10 -4 -13 -1 -9 9 6 15 23 19 23 5z m35 -29 c-3 -3 -11
0 -18 7 -9 10 -8 11 6 5 10 -3 15 -9 12 -12z"/>
<path d="M365 743 c-16 -9 -32 -19 -35 -22 -3 -3 -31 -19 -62 -36 -32 -16 -54
-32 -50 -36 7 -7 94 -57 149 -86 36 -18 34 -19 142 44 35 21 64 42 64 47 -1 6
-24 22 -53 38 -28 15 -67 37 -85 48 -38 24 -32 23 -70 3z m40 -113 c3 -5 -1
-10 -10 -10 -9 0 -13 5 -10 10 3 6 8 10 10 10 2 0 7 -4 10 -10z"/>
<path d="M770 744 c-19 -8 -37 -18 -40 -22 -3 -4 -27 -19 -55 -34 -27 -14 -51
-30 -52 -35 -4 -12 97 -64 110 -56 6 3 7 1 3 -5 -7 -11 41 -42 65 -42 19 0
179 94 176 104 -2 5 -30 24 -62 42 -33 19 -71 40 -85 48 -22 12 -30 12 -60 0z
m45 -64 c-3 -5 -12 -10 -18 -10 -7 0 -6 4 3 10 19 12 23 12 15 0z m-10 -50 c3
-5 1 -10 -4 -10 -6 0 -11 5 -11 10 0 6 2 10 4 10 3 0 8 -4 11 -10z"/>
<path d="M1175 744 c-56 -26 -149 -81 -152 -90 -2 -5 23 -23 55 -40 31 -17 71
-39 89 -50 30 -18 33 -18 68 -1 22 11 33 22 29 29 -4 6 -3 8 3 5 13 -8 114 44
110 57 -2 5 -25 21 -52 35 -28 14 -52 29 -55 32 -3 3 -19 13 -35 22 -26 13
-34 13 -60 1z"/>
<path d="M1560 738 c-19 -12 -57 -34 -85 -48 -27 -15 -50 -31 -52 -36 -2 -5
23 -23 55 -40 31 -17 71 -39 89 -50 30 -18 33 -18 65 -1 54 28 142 78 150 86
4 3 -18 20 -50 36 -31 17 -71 40 -88 53 -38 27 -41 27 -84 0z m45 -66 c-3 -3
-11 0 -18 7 -9 10 -8 11 6 5 10 -3 15 -9 12 -12z m5 -42 c0 -5 -5 -10 -11 -10
-5 0 -7 5 -4 10 3 6 8 10 11 10 2 0 4 -4 4 -10z"/>
<path d="M140 613 c-25 -15 -47 -29 -50 -32 -3 -3 -23 -15 -45 -26 l-40 -20
-2 -108 c-2 -59 0 -107 3 -107 14 0 94 53 89 59 -2 4 2 8 9 8 30 0 77 27 82
47 2 11 4 63 2 113 l-3 93 -45 -27z m-50 -129 c0 -2 -9 0 -20 6 -11 6 -20 13
-20 16 0 2 9 0 20 -6 11 -6 20 -13 20 -16z m50 -30 c0 -2 -9 0 -20 6 -11 6
-20 13 -20 16 0 2 9 0 20 -6 11 -6 20 -13 20 -16z"/>
<path d="M203 533 l2 -108 85 -52 c47 -28 89 -52 93 -52 5 -1 7 26 6 59 -1 33
0 62 2 64 9 9 -3 86 -12 80 -5 -3 -8 0 -7 7 2 8 -11 20 -28 29 -17 9 -53 30
-81 48 -27 18 -53 32 -56 32 -4 0 -6 -48 -4 -107z m127 -41 c0 -5 -7 -9 -15
-9 -8 0 -12 4 -9 9 3 4 9 8 15 8 5 0 9 -4 9 -8z"/>
<path d="M501 590 c-46 -27 -87 -54 -91 -60 -9 -15 -12 -210 -3 -210 15 0 93
52 89 59 -3 4 1 8 8 8 30 0 77 26 72 40 -3 8 -2 11 4 8 5 -3 9 37 9 100 0 58
-1 105 -2 105 -1 0 -40 -23 -86 -50z m-16 -100 c3 -5 1 -10 -4 -10 -6 0 -11 5
-11 10 0 6 2 10 4 10 3 0 8 -4 11 -10z m40 -28 c-3 -3 -11 0 -18 7 -9 10 -8
11 6 5 10 -3 15 -9 12 -12z"/>
<path d="M602 535 c1 -103 1 -106 28 -125 16 -11 30 -20 33 -20 2 0 31 -16 63
-35 32 -19 65 -35 74 -35 9 0 38 14 66 32 27 18 65 40 85 49 l37 17 1 112 0
111 -37 -22 c-20 -12 -44 -27 -52 -34 -8 -6 -32 -19 -53 -28 -21 -9 -35 -22
-32 -27 3 -6 2 -10 -3 -10 -5 0 -9 -24 -9 -52 0 -93 -3 -141 -8 -136 -4 3 -6
51 -6 107 l0 101 -29 15 c-16 8 -36 15 -45 15 -8 0 -15 4 -15 9 0 8 -81 61
-94 61 -3 0 -5 -47 -4 -105z m128 -44 c0 -5 -9 -11 -21 -14 -16 -4 -18 -3 -8
9 13 16 29 19 29 5z m196 -28 c-5 -5 -56 22 -56 30 0 5 13 0 30 -9 16 -10 28
-19 26 -21z"/>
<path d="M1002 533 c2 -106 2 -106 31 -122 16 -9 52 -31 80 -49 80 -50 85 -50
186 8 89 51 105 67 95 94 -3 8 -1 17 4 20 6 3 9 -7 8 -24 -2 -21 2 -29 10 -26
8 3 11 0 8 -8 -3 -8 10 -19 35 -29 21 -9 42 -21 46 -27 6 -10 78 -50 89 -50 9
0 4 194 -5 211 -5 9 -23 22 -41 30 -18 7 -35 16 -38 19 -3 4 -26 19 -52 34
l-48 28 -1 -24 0 -23 -10 23 -9 24 -37 -23 c-21 -12 -45 -27 -53 -34 -8 -6
-32 -18 -52 -28 -32 -14 -38 -22 -39 -49 l-1 -33 -9 32 c-9 32 -50 63 -84 63
-8 0 -15 4 -15 9 0 8 -81 61 -94 61 -3 0 -5 -48 -4 -107z m411 -18 c-6 -18
-34 -20 -30 -2 3 15 19 27 29 21 4 -3 5 -11 1 -19z m-283 -25 c0 -5 -4 -10
-10 -10 -5 0 -10 5 -10 10 0 6 5 10 10 10 6 0 10 -4 10 -10z m155 0 c3 -5 1
-10 -4 -10 -6 0 -11 5 -11 10 0 6 2 10 4 10 3 0 8 -4 11 -10z m-190 -20 c-3
-5 -12 -10 -18 -10 -7 0 -6 4 3 10 19 12 23 12 15 0z m230 -8 c-3 -3 -11 0
-18 7 -9 10 -8 11 6 5 10 -3 15 -9 12 -12z m175 13 c0 -2 -13 -11 -30 -20 -38
-19 -40 -11 -2 9 31 17 32 18 32 11z m-290 -42 l-1 -38 -13 30 c-9 21 -10 32
-2 37 16 11 16 11 16 -29z m-160 13 c0 -2 -7 -7 -16 -10 -8 -3 -12 -2 -9 4 6
10 25 14 25 6z m160 -81 c0 -14 -4 -25 -9 -25 -4 0 -6 11 -3 25 2 14 6 25 8
25 2 0 4 -11 4 -25z"/>
<path d="M1731 605 c-29 -19 -56 -35 -61 -35 -4 0 -19 -9 -33 -20 -25 -20 -26
-25 -26 -125 l0 -105 47 25 c80 44 124 72 133 86 11 18 12 69 1 69 -5 0 -9 7
-9 15 0 8 4 15 9 15 4 0 8 25 8 55 0 30 -3 55 -8 55 -4 0 -31 -16 -61 -35z
m-32 -119 c10 -12 8 -13 -8 -9 -12 3 -21 9 -21 14 0 14 16 11 29 -5z"/>
<path d="M1810 535 c0 -67 4 -104 10 -100 5 3 7 0 4 -8 -5 -14 42 -40 72 -40
7 0 11 -4 8 -8 -4 -7 74 -59 89 -59 3 0 6 47 6 105 -1 103 -1 105 -29 125 -15
11 -35 20 -44 20 -9 0 -16 3 -16 8 0 4 -23 20 -50 35 l-50 28 0 -106z m120
-45 c0 -5 -5 -10 -11 -10 -5 0 -7 5 -4 10 3 6 8 10 11 10 2 0 4 -4 4 -10z
m-35 -20 c-3 -5 -12 -10 -18 -10 -7 0 -6 4 3 10 19 12 23 12 15 0z"/>
<path d="M145 384 c-20 -13 -38 -24 -41 -24 -3 0 -26 -12 -50 -26 -51 -30 -52
-27 39 -78 26 -14 58 -32 70 -40 26 -17 49 -14 85 10 15 10 49 30 75 45 27 14
49 29 49 34 0 5 -22 21 -48 35 -27 14 -61 34 -75 43 -41 27 -65 28 -104 1z
m65 -48 c0 -3 -4 -8 -10 -11 -5 -3 -10 -1 -10 4 0 6 5 11 10 11 6 0 10 -2 10
-4z"/>
<path d="M565 396 c-11 -7 -42 -26 -70 -41 -89 -50 -86 -47 -67 -61 9 -6 39
-23 65 -38 26 -14 59 -33 73 -43 23 -15 28 -15 60 0 19 9 34 21 34 27 0 5 7
10 17 10 9 0 36 12 61 26 l45 27 -24 18 c-13 10 -37 24 -54 31 -16 6 -32 15
-35 19 -7 8 -67 39 -77 39 -5 0 -17 -6 -28 -14z m45 -60 c0 -3 -4 -8 -10 -11
-5 -3 -10 -1 -10 4 0 6 5 11 10 11 6 0 10 -2 10 -4z m-5 -56 c3 -5 -1 -10 -10
-10 -9 0 -13 5 -10 10 3 6 8 10 10 10 2 0 7 -4 10 -10z"/>
<path d="M955 389 c-16 -10 -25 -19 -20 -19 6 -1 -7 -7 -27 -14 -21 -8 -49
-21 -64 -30 -31 -21 -23 -35 38 -62 24 -10 45 -21 48 -24 3 -3 18 -14 34 -24
27 -17 30 -17 67 -1 21 10 36 22 32 28 -3 6 -2 7 4 4 8 -5 113 48 113 58 0 7
-172 105 -183 104 -7 0 -25 -9 -42 -20z m65 -54 c0 -7 -30 -13 -34 -7 -3 4 4
9 15 9 10 1 19 0 19 -2z m-10 -53 c0 -5 -7 -9 -15 -9 -8 0 -12 4 -9 9 3 4 9 8
15 8 5 0 9 -4 9 -8z"/>
<path d="M1360 392 c-14 -9 -27 -19 -30 -22 -3 -3 -27 -16 -54 -30 -27 -14
-49 -29 -49 -35 0 -5 22 -21 49 -35 27 -14 51 -28 54 -31 3 -3 19 -14 37 -24
31 -18 33 -18 67 0 29 16 33 22 23 35 -10 13 -10 13 3 3 12 -9 25 -6 65 15 27
15 49 31 49 37 -1 11 -161 105 -178 104 -6 0 -22 -8 -36 -17z m50 -110 c0 -5
-7 -9 -15 -9 -8 0 -12 4 -9 9 3 4 9 8 15 8 5 0 9 -4 9 -8z"/>
<path d="M1760 392 c-14 -9 -27 -19 -30 -22 -3 -4 -18 -12 -35 -18 -16 -7 -41
-21 -54 -31 l-23 -18 45 -26 c25 -15 53 -27 61 -27 9 0 16 -5 16 -10 0 -6 16
-18 35 -27 33 -16 35 -16 73 9 21 14 61 37 90 52 29 14 52 28 52 31 0 3 -24
17 -52 31 -29 15 -65 35 -80 46 -38 27 -68 30 -98 10z m60 -56 c0 -3 -4 -8
-10 -11 -5 -3 -10 -1 -10 4 0 6 5 11 10 11 6 0 10 -2 10 -4z m-5 -56 c3 -5 1
-10 -4 -10 -6 0 -11 5 -11 10 0 6 2 10 4 10 3 0 8 -4 11 -10z m-8 -52 c-3 -7
-5 -2 -5 12 0 14 2 19 5 13 2 -7 2 -19 0 -25z"/>
<path d="M2 190 c0 -55 5 -100 10 -100 5 0 7 -4 4 -9 -8 -13 117 -81 148 -81
l26 0 0 91 c0 57 -4 88 -10 84 -5 -3 -7 0 -4 8 5 14 -42 40 -72 40 -7 0 -11 4
-8 8 4 7 -74 59 -89 59 -4 0 -6 -45 -5 -100z m138 -35 c0 -2 -10 -9 -22 -15
-22 -11 -22 -10 -4 4 21 17 26 19 26 11z m-50 -30 c0 -2 -10 -10 -22 -16 -21
-11 -22 -11 -9 4 13 16 31 23 31 12z"/>
<path d="M322 254 c-29 -18 -56 -34 -61 -34 -4 0 -20 -9 -34 -20 -24 -19 -26
-26 -26 -109 l0 -89 194 0 194 0 -1 89 c0 49 -4 86 -9 83 -5 -3 -6 1 -4 8 7
16 -61 52 -77 42 -7 -4 -8 -2 -4 4 6 9 -68 62 -87 62 -4 0 -6 -45 -6 -100 1
-57 5 -100 11 -100 5 0 6 -4 3 -10 -3 -5 11 -18 32 -27 38 -18 71 -43 56 -43
-4 0 -28 11 -52 25 -23 14 -49 25 -57 25 -19 0 -65 -30 -60 -39 3 -4 -6 -8
-19 -9 -18 -1 -23 2 -19 13 4 8 13 15 21 15 8 0 28 9 43 20 29 20 29 22 29
125 0 58 -3 105 -7 104 -4 0 -31 -16 -60 -35z m208 -108 c0 -2 -7 -7 -16 -10
-8 -3 -12 -2 -9 4 6 10 25 14 25 6z m-46 -28 c-3 -5 -12 -4 -20 3 -19 16 -18
18 6 12 11 -3 17 -9 14 -15z m-154 2 c0 -5 -4 -10 -10 -10 -5 0 -10 5 -10 10
0 6 5 10 10 10 6 0 10 -4 10 -10z"/>
<path d="M730 259 c-25 -16 -52 -32 -60 -35 -8 -4 -27 -15 -41 -26 -26 -17
-27 -22 -27 -107 l0 -89 193 0 193 0 0 94 c0 89 -1 94 -25 110 -14 9 -36 17
-48 18 -13 0 -21 4 -19 8 4 6 -75 58 -89 58 -4 0 -6 -45 -5 -100 0 -55 5 -100
10 -100 5 0 7 -4 4 -9 -4 -5 14 -19 39 -31 44 -21 66 -40 46 -40 -6 0 -27 11
-47 25 -20 14 -43 25 -51 25 -21 0 -74 -30 -69 -38 2 -4 -6 -9 -19 -10 -33 -2
-22 24 13 32 43 9 60 29 62 71 1 22 1 45 0 50 -1 6 -1 36 0 68 1 31 -2 57 -7
56 -4 0 -28 -14 -53 -30z m-17 -125 c9 -4 17 -10 17 -15 0 -14 -10 -11 -38 12
-15 12 -20 19 -12 15 8 -3 23 -9 33 -12z m221 8 c2 -4 -4 -8 -14 -8 -10 0 -16
4 -14 8 3 4 9 8 14 8 5 0 11 -4 14 -8z m-44 -16 c0 -3 -4 -8 -10 -11 -5 -3
-10 -1 -10 4 0 6 5 11 10 11 6 0 10 -2 10 -4z"/>
<path d="M1145 266 c-22 -12 -39 -28 -38 -34 2 -6 -4 -9 -12 -5 -9 3 -33 -6
-54 -20 l-39 -26 0 -89 0 -90 354 0 c195 0 352 4 349 8 -3 5 -14 7 -25 5 -12
-2 -18 0 -15 5 6 10 -45 40 -67 40 -7 0 -30 -12 -51 -26 -21 -14 -43 -23 -50
-20 -9 3 -8 5 1 5 7 1 10 6 7 11 -3 6 2 10 12 10 10 0 32 8 49 19 l30 19 2
106 c1 58 -1 106 -5 106 -19 0 -93 -53 -87 -62 5 -7 2 -8 -5 -3 -17 10 -83
-26 -76 -43 2 -7 1 -10 -4 -7 -6 3 -12 -9 -14 -27 l-4 -33 -1 32 c-2 22 -10
38 -31 52 -16 12 -31 21 -34 21 -2 0 -31 16 -63 35 -32 19 -65 35 -73 35 -9 0
-34 -11 -56 -24z m62 -43 c-3 -10 -5 -4 -5 12 0 17 2 24 5 18 2 -7 2 -21 0
-30z m3 -85 c0 -49 -5 -47 -14 5 -4 23 -3 37 4 37 5 0 10 -19 10 -42z m165 32
c-3 -5 -12 -10 -18 -10 -7 0 -6 4 3 10 19 12 23 12 15 0z m125 -36 c0 -2 -9 0
-20 6 -11 6 -20 13 -20 16 0 2 9 0 20 -6 11 -6 20 -13 20 -16z m-405 6 c3 -6
-1 -7 -9 -4 -18 7 -21 14 -7 14 6 0 13 -4 16 -10z m235 6 c0 -2 -7 -7 -16 -10
-8 -3 -12 -2 -9 4 6 10 25 14 25 6z m-200 -26 c0 -5 -2 -10 -4 -10 -3 0 -8 5
-11 10 -3 6 -1 10 4 10 6 0 11 -4 11 -10z m160 6 c0 -3 -4 -8 -10 -11 -5 -3
-10 -1 -10 4 0 6 5 11 10 11 6 0 10 -2 10 -4z m240 -6 c0 -5 -2 -10 -4 -10 -3
0 -8 5 -11 10 -3 6 -1 10 4 10 6 0 11 -4 11 -10z m-117 -34 c-4 -19 -8 -22
-17 -13 -18 16 -15 37 4 37 13 0 16 -6 13 -24z m-203 -5 c0 -5 20 -19 45 -31
44 -21 66 -40 46 -40 -6 0 -27 11 -47 25 -20 14 -44 25 -53 25 -9 0 -33 -11
-53 -25 -37 -25 -64 -33 -53 -15 3 5 26 18 50 29 25 11 45 25 45 30 0 6 5 11
10 11 6 0 10 -4 10 -9z"/>
<path d="M1610 186 c0 -104 0 -105 29 -125 16 -12 33 -21 38 -21 4 0 19 -9 33
-20 14 -11 40 -20 58 -20 31 0 32 1 32 40 0 22 -5 40 -10 40 -7 0 -7 6 0 19
19 37 12 78 -18 98 -49 32 -152 93 -158 93 -2 0 -4 -47 -4 -104z m85 -66 c-3
-5 -10 -10 -16 -10 -5 0 -9 5 -9 10 0 6 7 10 16 10 8 0 12 -4 9 -10z"/>
<path d="M1942 264 c-24 -14 -39 -30 -36 -36 5 -7 2 -8 -5 -3 -17 10 -83 -26
-76 -43 2 -7 0 -10 -5 -7 -6 4 -10 -27 -10 -84 0 -91 0 -91 26 -91 24 0 63 15
74 29 3 3 22 14 43 24 21 9 35 22 32 27 -3 6 -2 10 3 10 6 0 10 43 11 100 0
55 -3 100 -7 100 -4 0 -26 -12 -50 -26z m-42 -130 c0 -2 -9 0 -20 6 -11 6 -20
13 -20 16 0 2 9 0 20 -6 11 -6 20 -13 20 -16z m41 -21 c13 -15 12 -15 -8 -4
-24 12 -29 21 -14 21 5 0 15 -7 22 -17z"/>
<path d="M0 30 c0 -33 24 -41 49 -18 11 11 13 11 7 0 -5 -8 1 -12 19 -12 16 0
24 4 20 11 -4 6 -9 8 -12 5 -3 -3 -19 6 -35 19 -38 33 -48 31 -48 -5z"/>
<path d="M1940 30 l-45 -30 53 0 c51 0 52 0 52 30 0 17 -3 30 -7 30 -5 0 -28
-14 -53 -30z"/>
</g>
</svg>
