<?xml version="1.0" standalone="no"?>
<!DOCTYPE svg PUBLIC "-//W3C//DTD SVG 20010904//EN"
 "http://www.w3.org/TR/2001/REC-SVG-20010904/DTD/svg10.dtd">
<svg version="1.0" xmlns="http://www.w3.org/2000/svg"
 width="200.000000pt" height="200.000000pt" viewBox="0 0 200.000000 200.000000"
 preserveAspectRatio="xMidYMid meet">
<metadata>
Created by potrace 1.16, written by Peter Selinger 2001-2019
</metadata>
<g transform="translate(0.000000,200.000000) scale(0.100000,-0.100000)"
fill="#000000" stroke="none">
<path d="M0 1735 l0 -266 45 27 c25 14 45 24 45 21 0 -3 -20 -17 -45 -31 l-45
-27 0 -112 0 -113 30 -17 c33 -20 43 -44 10 -27 -11 6 -20 15 -20 21 0 6 -5 7
-10 4 -6 -4 -10 -89 -10 -223 0 -144 4 -212 10 -202 5 8 10 11 10 5 0 -6 3 -6
8 1 12 17 161 103 166 95 3 -3 -40 -33 -95 -65 l-99 -59 0 -112 c0 -75 4 -115
13 -124 9 -11 9 -13 0 -7 -10 6 -13 -41 -13 -219 l0 -227 33 20 c17 10 60 36
94 56 l63 37 0 114 c0 105 -1 114 -22 129 -23 16 -23 16 4 5 24 -11 37 -6 123
42 l95 54 -2 120 c-3 108 -1 121 14 121 10 0 14 -4 9 -11 -5 -5 -8 -58 -9
-117 l0 -107 99 -56 c54 -31 99 -61 99 -66 0 -6 -12 -2 -27 9 -16 11 -61 38
-101 61 l-74 41 -99 -56 -99 -56 0 -112 0 -111 101 -59 c55 -32 98 -60 96 -62
-2 -2 -47 21 -100 51 -52 30 -98 55 -102 55 -3 0 -49 -25 -101 -56 -90 -53
-94 -57 -94 -90 l0 -34 389 0 c302 0 390 3 394 13 4 8 6 9 6 0 1 -9 61 -12
231 -13 l230 -1 0 25 c0 19 9 30 33 41 28 14 30 14 13 0 -11 -8 -23 -15 -28
-15 -4 0 -8 -11 -8 -25 l0 -25 330 0 c282 0 330 2 330 15 0 7 -8 19 -17 25
-12 8 -13 10 -3 7 8 -2 19 -13 25 -25 7 -16 18 -22 42 -22 l33 0 0 79 c0 70
-2 80 -22 95 l-23 17 23 -11 22 -11 0 136 c0 106 -3 135 -12 129 -10 -6 -10
-4 -1 7 10 9 13 70 13 227 0 193 -2 216 -18 228 -16 13 -16 14 1 8 15 -6 17 3
17 96 0 93 -2 102 -17 96 -17 -6 -17 -5 0 8 15 12 17 35 17 218 0 149 -3 208
-12 217 -10 11 -10 13 0 7 9 -6 12 27 12 149 0 122 -3 155 -12 149 -10 -6 -10
-4 0 7 7 8 12 40 12 81 l0 68 -160 0 c-164 0 -181 -5 -147 -39 10 -10 9 -11
-5 -6 -10 4 -18 16 -18 26 0 18 -11 19 -209 19 -158 0 -211 -3 -214 -12 -4
-10 -6 -10 -6 0 -1 6 -14 12 -30 12 -23 0 -31 -5 -34 -22 l-4 -23 -2 23 -1 22
-381 0 -380 0 3 -35 c3 -34 9 -39 93 -89 l90 -53 98 55 c54 30 100 53 102 50
2 -2 -37 -28 -88 -58 -50 -29 -97 -61 -104 -69 -11 -14 -12 -14 -13 -1 0 8
-44 39 -100 70 l-101 55 3 38 4 37 -198 0 -198 0 0 -265z m853 191 l22 -18
-25 14 c-14 9 -26 26 -27 39 -1 19 -1 20 4 4 2 -11 15 -28 26 -39z m707 39 c0
-8 -10 -19 -22 -25 -21 -10 -21 -10 -5 3 9 8 17 19 17 26 0 6 2 11 5 11 3 0 5
-7 5 -15z m350 -10 c0 -2 -10 -9 -22 -15 -22 -11 -22 -10 -4 4 21 17 26 19 26
11z m-735 -15 c-3 -5 -16 -15 -28 -21 -19 -9 -19 -8 3 10 28 23 34 26 25 11z
m100 0 c3 -6 -1 -7 -9 -4 -18 7 -21 14 -7 14 6 0 13 -4 16 -10z m75 -46 c0 -2
-13 2 -30 11 -16 9 -30 18 -30 21 0 2 14 -2 30 -11 17 -9 30 -18 30 -21z m160
31 c0 -2 -10 -9 -22 -15 -22 -11 -22 -10 -4 4 21 17 26 19 26 11z m-1130 -10
c0 -2 -10 -9 -22 -15 -22 -11 -22 -10 -4 4 21 17 26 19 26 11z m1460 0 c0 -2
-10 -9 -22 -15 -22 -11 -22 -10 -4 4 21 17 26 19 26 11z m-1770 -31 c0 -2 -9
0 -20 6 -11 6 -20 13 -20 16 0 2 9 0 20 -6 11 -6 20 -13 20 -16z m850 0 c0 -2
-9 0 -20 6 -11 6 -20 13 -20 16 0 2 9 0 20 -6 11 -6 20 -13 20 -16z m270 21
c0 -2 -10 -9 -22 -15 -22 -11 -22 -10 -4 4 21 17 26 19 26 11z m60 -21 c0 -2
-9 0 -20 6 -11 6 -20 13 -20 16 0 2 9 0 20 -6 11 -6 20 -13 20 -16z m-360 -10
c0 -2 -9 0 -20 6 -11 6 -20 13 -20 16 0 2 9 0 20 -6 11 -6 20 -13 20 -16z
m210 21 c0 -2 -10 -9 -22 -15 -22 -11 -22 -10 -4 4 21 17 26 19 26 11z m-770
-10 c0 -2 -13 -11 -30 -20 -38 -19 -40 -11 -2 9 31 17 32 18 32 11z m1093 -5
c21 11 21 10 3 -4 -11 -9 -23 -16 -26 -16 -3 0 -15 7 -26 16 -18 14 -18 15 4
4 16 -8 28 -8 45 0z m186 6 c-2 -2 -15 -9 -29 -15 -24 -11 -24 -11 -6 3 16 13
49 24 35 12z m-1469 -42 c0 -2 -13 2 -30 11 -16 9 -30 18 -30 21 0 2 14 -2 30
-11 17 -9 30 -18 30 -21z m1000 31 c0 -2 -13 -11 -30 -20 -38 -19 -40 -11 -2
9 31 17 32 18 32 11z m180 -31 c0 -2 -13 2 -30 11 -16 9 -30 18 -30 21 0 2 14
-2 30 -11 17 -9 30 -18 30 -21z m360 0 c0 -2 -13 2 -30 11 -16 9 -30 18 -30
21 0 2 14 -2 30 -11 17 -9 30 -18 30 -21z m-740 0 c0 -2 -9 0 -20 6 -11 6 -20
13 -20 16 0 2 9 0 20 -6 11 -6 20 -13 20 -16z m50 0 c0 -2 -9 0 -20 6 -11 6
-20 13 -20 16 0 2 9 0 20 -6 11 -6 20 -13 20 -16z m-730 2 c0 -2 -15 -13 -34
-24 -30 -18 -36 -19 -47 -6 -10 12 -9 13 4 8 8 -3 28 1 44 10 31 17 33 18 33
12z m1270 -1 c0 -2 -10 -9 -22 -15 -22 -11 -22 -10 -4 4 21 17 26 19 26 11z
m-475 -20 c-11 -8 -26 -19 -32 -25 -8 -7 -13 -7 -13 -1 0 6 12 17 28 25 34 19
43 20 17 1z m335 -21 c0 -2 -9 0 -20 6 -11 6 -20 13 -20 16 0 2 9 0 20 -6 11
-6 20 -13 20 -16z m62 -6 c-6 -7 -12 -26 -15 -43 l-4 -30 -2 31 c0 16 4 35 11
42 16 16 23 15 10 0z m423 -102 c0 -52 -3 -92 -7 -89 -15 9 -9 183 6 183 1 0
1 -42 1 -94z m-1678 17 c-2 -16 -4 -5 -4 22 0 28 2 40 4 28 2 -13 2 -35 0 -50z
m400 35 c-3 -8 -6 -5 -6 6 -1 11 2 17 5 13 3 -3 4 -12 1 -19z m420 -28 c-1
-11 -5 -20 -9 -20 -4 0 -8 9 -8 20 0 11 4 20 9 20 6 0 9 -9 8 -20z m-420 -32
c-3 -8 -6 -5 -6 6 -1 11 2 17 5 13 3 -3 4 -12 1 -19z m-400 -30 c-3 -8 -6 -5
-6 6 -1 11 2 17 5 13 3 -3 4 -12 1 -19z m820 -18 c-1 -11 -4 -20 -8 -20 -4 0
-9 9 -12 20 -3 13 0 20 8 20 8 0 13 -9 12 -20z m436 -50 c10 -13 10 -13 -5 -1
-11 8 -17 25 -17 45 l2 31 4 -30 c3 -16 10 -37 16 -45z m-1153 -66 l99 -56
103 58 c63 36 103 53 106 46 2 -7 8 -10 12 -7 5 3 18 -3 29 -14 11 -11 22 -17
25 -14 3 4 6 1 6 -6 0 -7 4 -10 10 -6 5 3 18 -3 29 -14 11 -11 23 -16 27 -13
4 4 4 2 0 -5 -4 -8 -19 -4 -51 14 -25 13 -45 29 -45 34 0 5 -3 8 -7 7 -5 -1
-18 1 -30 6 -17 5 -44 -5 -113 -45 l-90 -53 0 -107 c0 -99 2 -108 23 -124 22
-16 21 -16 -4 -1 -20 11 -29 12 -39 3 -10 -10 -10 -8 -2 9 6 11 10 66 9 121
l-1 101 -100 58 -99 57 -49 -27 c-61 -34 -64 -27 -3 8 35 21 45 33 46 54 l2
27 4 -27 c4 -23 21 -37 103 -84z m297 74 c-3 -8 -6 -5 -6 6 -1 11 2 17 5 13 3
-3 4 -12 1 -19z m793 -13 c0 -2 -10 -9 -22 -15 -22 -11 -22 -10 -4 4 21 17 26
19 26 11z m360 0 c0 -2 -13 -11 -30 -20 -38 -19 -40 -11 -2 9 31 17 32 18 32
11z m200 -21 c0 -2 -9 0 -20 6 -11 6 -20 13 -20 16 0 2 9 0 20 -6 11 -6 20
-13 20 -16z m-950 12 c0 -2 -7 -7 -16 -10 -8 -3 -12 -2 -9 4 6 10 25 14 25 6z
m510 -22 c0 -2 -9 0 -20 6 -11 6 -20 13 -20 16 0 2 9 0 20 -6 11 -6 20 -13 20
-16z m-484 -20 c18 -14 18 -14 -6 -3 -31 14 -36 19 -24 19 6 0 19 -7 30 -16z
m94 -10 c0 -2 -9 0 -20 6 -11 6 -20 13 -20 16 0 2 9 0 20 -6 11 -6 20 -13 20
-16z m200 21 c0 -2 -10 -9 -22 -15 -22 -11 -22 -10 -4 4 21 17 26 19 26 11z
m360 0 c0 -2 -13 -11 -30 -20 -38 -19 -40 -11 -2 9 31 17 32 18 32 11z m-700
-10 c0 -2 -10 -9 -22 -15 -22 -11 -22 -10 -4 4 21 17 26 19 26 11z m600 -21
c0 -2 -9 0 -20 6 -11 6 -20 13 -20 16 0 2 9 0 20 -6 11 -6 20 -13 20 -16z
m-675 6 c-3 -5 -12 -10 -18 -10 -7 0 -6 4 3 10 19 12 23 12 15 0z m285 -36 c0
-2 -13 2 -30 11 -16 9 -30 18 -30 21 0 2 14 -2 30 -11 17 -9 30 -18 30 -21z
m260 10 c0 -2 -9 0 -20 6 -11 6 -20 13 -20 16 0 2 9 0 20 -6 11 -6 20 -13 20
-16z m-580 11 c0 -2 -10 -9 -22 -15 -22 -11 -22 -10 -4 4 21 17 26 19 26 11z
m240 -21 c0 -2 -9 0 -20 6 -11 6 -20 13 -20 16 0 2 9 0 20 -6 11 -6 20 -13 20
-16z m140 21 c0 -2 -10 -9 -22 -15 -22 -11 -22 -10 -4 4 21 17 26 19 26 11z
m-456 -47 c-5 -7 -11 -6 -19 5 -7 9 -16 13 -20 9 -5 -4 -5 -1 -1 6 5 9 12 9
27 2 11 -6 16 -16 13 -22z m1056 6 c0 -2 -9 0 -20 6 -11 6 -20 13 -20 16 0 2
9 0 20 -6 11 -6 20 -13 20 -16z m-1002 -7 c-9 -7 -18 -29 -21 -48 l-4 -34 -1
37 c-2 26 3 40 16 47 24 14 30 13 10 -2z m892 -2 c0 -2 -10 -9 -22 -15 -22
-11 -22 -10 -4 4 21 17 26 19 26 11z m-563 -37 c-3 -8 -6 -5 -6 6 -1 11 2 17
5 13 3 -3 4 -12 1 -19z m751 -54 l-3 -49 -5 57 c-3 31 -1 53 3 49 5 -5 7 -30
5 -57z m-751 -16 c-3 -8 -6 -5 -6 6 -1 11 2 17 5 13 3 -3 4 -12 1 -19z m-350
-20 c-3 -7 -5 -2 -5 12 0 14 2 19 5 13 2 -7 2 -19 0 -25z m850 -35 c-3 -10 -5
-2 -5 17 0 19 2 27 5 18 2 -10 2 -26 0 -35z m-500 5 c-3 -7 -5 -2 -5 12 0 14
2 19 5 13 2 -7 2 -19 0 -25z m-334 -58 c10 -13 10 -13 -5 -1 -11 8 -17 25 -17
45 l2 31 4 -30 c3 -16 10 -37 16 -45z m1084 38 c-3 -8 -6 -5 -6 6 -1 11 2 17
5 13 3 -3 4 -12 1 -19z m-177 -44 c0 -2 -13 2 -30 11 -16 9 -30 18 -30 21 0 2
14 -2 30 -11 17 -9 30 -18 30 -21z m-575 16 c-3 -5 -16 -15 -28 -21 -19 -9
-19 -8 3 10 28 23 34 26 25 11z m100 0 c3 -6 -1 -7 -9 -4 -18 7 -21 14 -7 14
6 0 13 -4 16 -10z m265 -1 c-25 -17 -76 -42 -68 -34 13 14 62 44 73 44 6 0 3
-4 -5 -10z m-190 -45 c0 -2 -13 2 -30 11 -16 9 -30 18 -30 21 0 2 14 -2 30
-11 17 -9 30 -18 30 -21z m-580 21 c0 -2 -10 -9 -22 -15 -22 -11 -22 -10 -4 4
21 17 26 19 26 11z m150 -31 c0 -2 -13 2 -30 11 -16 9 -30 18 -30 21 0 2 14
-2 30 -11 17 -9 30 -18 30 -21z m906 21 c-24 -18 -33 -19 -42 -3 -4 7 -3 8 4
4 7 -4 20 -2 29 3 26 15 31 13 9 -4z m-1456 0 c0 -2 -10 -9 -22 -15 -22 -11
-22 -10 -4 4 21 17 26 19 26 11z m750 0 c0 -2 -13 -11 -30 -20 -38 -19 -40
-11 -2 9 31 17 32 18 32 11z m-620 -31 c0 -2 -9 0 -20 6 -11 6 -20 13 -20 16
0 2 9 0 20 -6 11 -6 20 -13 20 -16z m-50 -10 c0 -2 -9 0 -20 6 -11 6 -20 13
-20 16 0 2 9 0 20 -6 11 -6 20 -13 20 -16z m-336 -5 c49 -29 46 -44 -4 -19
-22 11 -40 25 -40 30 0 14 4 13 44 -11z m586 16 c0 -2 -10 -9 -22 -15 -22 -11
-22 -10 -4 4 21 17 26 19 26 11z m290 -31 c0 -2 -13 2 -30 11 -16 9 -30 18
-30 21 0 2 14 -2 30 -11 17 -9 30 -18 30 -21z m415 18 c-3 -3 -11 0 -18 7 -9
10 -8 11 6 5 10 -3 15 -9 12 -12z m-1105 3 c0 -2 -13 -11 -30 -20 -38 -19 -40
-11 -2 9 31 17 32 18 32 11z m50 0 c0 -2 -10 -9 -22 -15 -22 -11 -22 -10 -4 4
21 17 26 19 26 11z m700 0 c0 -2 -10 -9 -22 -15 -22 -11 -22 -10 -4 4 21 17
26 19 26 11z m-480 -31 c0 -2 -9 0 -20 6 -11 6 -20 13 -20 16 0 2 9 0 20 -6
11 -6 20 -13 20 -16z m-50 -10 c0 -2 -9 0 -20 6 -11 6 -20 13 -20 16 0 2 9 0
20 -6 11 -6 20 -13 20 -16z m230 21 c0 -2 -10 -9 -22 -15 -22 -11 -22 -10 -4
4 21 17 26 19 26 11z m140 -21 c0 -2 -9 0 -20 6 -11 6 -20 13 -20 16 0 2 9 0
20 -6 11 -6 20 -13 20 -16z m-265 6 c-3 -5 -12 -10 -18 -10 -7 0 -6 4 3 10 19
12 23 12 15 0z m545 5 c0 -2 -10 -9 -22 -15 -22 -11 -22 -10 -4 4 21 17 26 19
26 11z m-991 -21 c4 3 8 -5 8 -16 2 -20 1 -20 -12 -2 -8 11 -14 24 -14 29 0 6
3 4 6 -3 2 -6 8 -10 12 -8z m46 6 c-3 -5 -12 -10 -18 -10 -7 0 -6 4 3 10 19
12 23 12 15 0z m1384 6 c-10 -9 -69 -36 -69 -32 0 7 52 35 64 36 5 0 7 -2 5
-4z m-649 -42 c0 -2 -13 2 -30 11 -16 9 -30 18 -30 21 0 2 14 -2 30 -11 17 -9
30 -18 30 -21z m-280 21 c0 -2 -10 -9 -22 -15 -22 -11 -22 -10 -4 4 21 17 26
19 26 11z m440 1 c0 -2 -16 -13 -35 -25 -19 -11 -35 -18 -35 -16 0 5 61 45 68
45 1 0 2 -2 2 -4z m225 -36 c3 -5 -10 -1 -29 11 -20 12 -36 23 -36 25 0 7 58
-25 65 -36z m335 14 c0 -2 -9 0 -20 6 -11 6 -20 13 -20 16 0 2 9 0 20 -6 11
-6 20 -13 20 -16z m-1103 -137 c-2 -23 -3 -1 -3 48 0 50 1 68 3 42 2 -26 2
-67 0 -90z m923 118 c-7 -9 -15 -13 -19 -10 -3 3 1 10 9 15 21 14 24 12 10 -5z
m-1313 -47 c-2 -13 -4 -5 -4 17 -1 22 1 32 4 23 2 -10 2 -28 0 -40z m1541 21
c-3 -8 -7 -3 -11 10 -4 17 -3 21 5 13 5 -5 8 -16 6 -23z m200 18 c-9 -7 -18
-29 -21 -48 l-4 -34 -1 37 c-2 26 3 40 16 47 24 14 30 13 10 -2z m-1701 -39
c-3 -8 -6 -5 -6 6 -1 11 2 17 5 13 3 -3 4 -12 1 -19z m1260 -50 c-3 -7 -5 -2
-5 12 0 14 2 19 5 13 2 -7 2 -19 0 -25z m-1300 -45 c-2 -16 -4 -5 -4 22 0 28
2 40 4 28 2 -13 2 -35 0 -50z m1540 45 c-3 -8 -6 -5 -6 6 -1 11 2 17 5 13 3
-3 4 -12 1 -19z m202 -46 c14 -11 13 -12 -6 -2 -15 7 -23 19 -22 33 1 20 2 20
6 2 3 -11 13 -25 22 -33z m-207 -4 c-8 -8 -9 -4 -5 13 4 13 8 18 11 10 2 -7
-1 -18 -6 -23z m-182 -28 c8 -5 11 -10 5 -10 -5 0 -21 10 -35 21 -24 20 -5 13
30 -11z m160 15 c0 -2 -13 -11 -30 -20 -38 -19 -40 -11 -2 9 31 17 32 18 32
11z m-1120 -9 c0 -2 -8 -10 -17 -17 -16 -13 -17 -12 -4 4 13 16 21 21 21 13z
m100 -22 c0 -2 -9 0 -20 6 -11 6 -20 13 -20 16 0 2 9 0 20 -6 11 -6 20 -13 20
-16z m440 0 c0 -2 -9 0 -20 6 -11 6 -20 13 -20 16 0 2 9 0 20 -6 11 -6 20 -13
20 -16z m170 1 c0 -2 -13 -11 -30 -20 -38 -19 -40 -11 -2 9 31 17 32 18 32 11z
m-1040 -31 c0 -2 -9 0 -20 6 -11 6 -20 13 -20 16 0 2 9 0 20 -6 11 -6 20 -13
20 -16z m360 22 c0 -2 -9 -6 -20 -9 -11 -3 -18 -1 -14 4 5 9 34 13 34 5z m580
-32 c0 -2 -13 2 -30 11 -16 9 -30 18 -30 21 0 2 14 -2 30 -11 17 -9 30 -18 30
-21z m435 26 c-3 -5 -14 -10 -23 -9 -14 0 -13 2 3 9 27 11 27 11 20 0z m-1105
-5 c0 -2 -13 -11 -30 -20 -38 -19 -40 -11 -2 9 31 17 32 18 32 11z m230 -21
c0 -2 -9 0 -20 6 -11 6 -20 13 -20 16 0 2 9 0 20 -6 11 -6 20 -13 20 -16z
m120 11 c0 -2 -10 -9 -22 -15 -22 -11 -22 -10 -4 4 21 17 26 19 26 11z m-550
-41 c0 -2 -13 2 -30 11 -16 9 -30 18 -30 21 0 2 14 -2 30 -11 17 -9 30 -18 30
-21z m30 10 c0 -2 -9 0 -20 6 -11 6 -20 13 -20 16 0 2 9 0 20 -6 11 -6 20 -13
20 -16z m620 21 c0 -2 -13 -11 -30 -20 -38 -19 -40 -11 -2 9 31 17 32 18 32
11z m100 -21 c0 -2 -9 0 -20 6 -11 6 -20 13 -20 16 0 2 9 0 20 -6 11 -6 20
-13 20 -16z m-270 -10 c0 -2 -9 0 -20 6 -11 6 -20 13 -20 16 0 2 9 0 20 -6 11
-6 20 -13 20 -16z m-350 11 c0 -2 -10 -9 -22 -15 -22 -11 -22 -10 -4 4 21 17
26 19 26 11z m300 -31 c0 -2 -9 0 -20 6 -11 6 -20 13 -20 16 0 2 9 0 20 -6 11
-6 20 -13 20 -16z m730 0 c0 -2 -9 0 -20 6 -11 6 -20 13 -20 16 0 2 9 0 20 -6
11 -6 20 -13 20 -16z m-1110 -10 c0 -2 -9 0 -20 6 -11 6 -20 13 -20 16 0 2 9
0 20 -6 11 -6 20 -13 20 -16z m100 21 c0 -2 -10 -9 -22 -15 -22 -11 -22 -10
-4 4 21 17 26 19 26 11z m1339 1 c-10 -9 -69 -36 -69 -32 0 7 52 35 64 36 5 0
7 -2 5 -4z m71 -42 c0 -2 -13 2 -30 11 -16 9 -30 18 -30 21 0 2 14 -2 30 -11
17 -9 30 -18 30 -21z m-570 21 c0 -2 -10 -9 -22 -15 -22 -11 -22 -10 -4 4 21
17 26 19 26 11z m-512 -30 c-3 -3 -9 2 -12 12 -6 14 -5 15 5 6 7 -7 10 -15 7
-18z m377 7 c-3 -3 -11 0 -18 7 -9 10 -8 11 6 5 10 -3 15 -9 12 -12z m375 -8
c0 -2 -9 0 -20 6 -11 6 -20 13 -20 16 0 2 9 0 20 -6 11 -6 20 -13 20 -16z
m143 -12 c-11 -9 -23 -26 -26 -37 -4 -18 -5 -18 -6 2 0 12 9 29 21 37 30 21
38 20 11 -2z m-506 -14 c-3 -8 -6 -5 -6 6 -1 11 2 17 5 13 3 -3 4 -12 1 -19z
m744 5 c13 -16 12 -17 -3 -4 -17 13 -22 21 -14 21 2 0 10 -8 17 -17z m-1114
-60 c-3 -10 -5 -4 -5 12 0 17 2 24 5 18 2 -7 2 -21 0 -30z m-20 -45 c-2 -13
-4 -3 -4 22 0 25 2 35 4 23 2 -13 2 -33 0 -45z m770 40 c-3 -8 -6 -5 -6 6 -1
11 2 17 5 13 3 -3 4 -12 1 -19z m370 -25 c-3 -10 -5 -4 -5 12 0 17 2 24 5 18
2 -7 2 -21 0 -30z m-270 -5 c-3 -7 -5 -2 -5 12 0 14 2 19 5 13 2 -7 2 -19 0
-25z m-850 -25 c-3 -10 -5 -4 -5 12 0 17 2 24 5 18 2 -7 2 -21 0 -30z m881
-52 c15 -13 20 -20 12 -16 -31 16 -50 39 -49 59 1 20 2 20 6 1 2 -11 16 -31
31 -44z m-511 17 c-3 -8 -6 -5 -6 6 -1 11 2 17 5 13 3 -3 4 -12 1 -19z m-393
-36 c-4 -9 -6 -21 -5 -25 1 -5 -4 -5 -10 -2 -8 5 -8 10 0 18 6 6 11 20 12 32
0 11 3 14 6 7 3 -7 1 -20 -3 -30z m23 16 c-3 -8 -6 -5 -6 6 -1 11 2 17 5 13 3
-3 4 -12 1 -19z m744 -1 c-10 -9 -11 -8 -5 6 3 10 9 15 12 12 3 -3 0 -11 -7
-18z m379 18 c0 -2 -10 -9 -22 -15 -22 -11 -22 -10 -4 4 21 17 26 19 26 11z
m-640 -51 c0 -2 -9 0 -20 6 -11 6 -20 13 -20 16 0 2 9 0 20 -6 11 -6 20 -13
20 -16z m240 21 c0 -2 -10 -9 -22 -15 -22 -11 -22 -10 -4 4 21 17 26 19 26 11z
m350 0 c0 -2 -13 -11 -30 -20 -38 -19 -40 -11 -2 9 31 17 32 18 32 11z m-1000
-41 c0 -2 -9 0 -20 6 -11 6 -20 13 -20 16 0 2 9 0 20 -6 11 -6 20 -13 20 -16z
m260 21 c0 -2 -13 -11 -30 -20 -38 -19 -40 -11 -2 9 31 17 32 18 32 11z m649
-21 c14 -12 -19 -1 -35 12 -18 14 -18 14 6 3 14 -6 27 -13 29 -15z m-1709 -20
c0 -2 -13 2 -30 11 -16 9 -30 18 -30 21 0 2 14 -2 30 -11 17 -9 30 -18 30 -21z
m675 27 c3 -5 2 -12 -3 -15 -5 -3 -9 1 -9 9 0 17 3 19 12 6z m85 -17 c0 -2 -9
0 -20 6 -11 6 -20 13 -20 16 0 2 9 0 20 -6 11 -6 20 -13 20 -16z m-113 2 c0
-8 -6 -12 -15 -8 -11 4 -13 1 -7 -8 6 -9 4 -11 -5 -5 -10 6 -9 11 5 22 23 16
22 16 22 -1z m653 -22 c0 -2 -13 2 -30 11 -16 9 -30 18 -30 21 0 2 14 -2 30
-11 17 -9 30 -18 30 -21z m-430 -10 c0 -2 -9 0 -20 6 -11 6 -20 13 -20 16 0 2
9 0 20 -6 11 -6 20 -13 20 -16z m310 0 c0 -2 -9 0 -20 6 -11 6 -20 13 -20 16
0 2 9 0 20 -6 11 -6 20 -13 20 -16z m-1130 -10 c0 -2 -9 0 -20 6 -11 6 -20 13
-20 16 0 2 9 0 20 -6 11 -6 20 -13 20 -16z m555 17 c3 -5 2 -12 -3 -15 -5 -3
-9 1 -9 9 0 17 3 19 12 6z m225 -17 c0 -2 -9 0 -20 6 -11 6 -20 13 -20 16 0 2
9 0 20 -6 11 -6 20 -13 20 -16z m140 21 c0 -2 -10 -9 -22 -15 -22 -11 -22 -10
-4 4 21 17 26 19 26 11z m549 1 c-2 -2 -15 -9 -29 -15 -24 -11 -24 -11 -6 3
16 13 49 24 35 12z m-942 -20 c0 -8 -6 -12 -15 -8 -11 4 -13 1 -7 -8 6 -9 4
-11 -5 -5 -10 6 -9 11 5 22 23 16 22 16 22 -1z m993 -12 c0 -2 -9 0 -20 6 -11
6 -20 13 -20 16 0 2 9 0 20 -6 11 -6 20 -13 20 -16z m-705 -12 c-3 -3 -11 0
-18 7 -9 10 -8 11 6 5 10 -3 15 -9 12 -12z m-330 -1 c3 -5 2 -12 -3 -15 -5 -3
-9 1 -9 9 0 17 3 19 12 6z m1105 -27 c0 -2 -9 0 -20 6 -11 6 -20 13 -20 16 0
2 9 0 20 -6 11 -6 20 -13 20 -16z m-359 -1 c13 -16 12 -17 -3 -4 -17 13 -22
21 -14 21 2 0 10 -8 17 -17z m579 12 c0 -2 -10 -9 -22 -15 -22 -11 -22 -10 -4
4 21 17 26 19 26 11z m-483 -30 c-9 -19 -13 -21 -15 -9 -3 13 12 33 25 34 0 0
-4 -11 -10 -25z m-480 -7 c-3 -8 -6 -5 -6 6 -1 11 2 17 5 13 3 -3 4 -12 1 -19z
m-380 -23 c0 -8 -4 -12 -9 -9 -5 3 -6 10 -3 15 9 13 12 11 12 -6z m770 -27
c-3 -8 -6 -5 -6 6 -1 11 2 17 5 13 3 -3 4 -12 1 -19z m80 -25 c-3 -10 -5 -4
-5 12 0 17 2 24 5 18 2 -7 2 -21 0 -30z m-860 -35 c-3 -7 -5 -2 -5 12 0 14 2
19 5 13 2 -7 2 -19 0 -25z m390 -15 c-3 -10 -5 -2 -5 17 0 19 2 27 5 18 2 -10
2 -26 0 -35z m485 -41 c8 -9 7 -11 -6 -6 -11 4 -16 17 -15 43 2 34 2 34 6 6 3
-16 10 -36 15 -43z m-874 -9 c-2 -10 3 -24 12 -31 13 -11 12 -12 -7 -3 -15 8
-20 17 -16 31 7 25 16 27 11 3z m1352 -9 c0 -2 -9 0 -20 6 -11 6 -20 13 -20
16 0 2 9 0 20 -6 11 -6 20 -13 20 -16z m-960 6 c0 -5 -10 -15 -22 -21 l-23
-12 20 21 c23 24 25 25 25 12z m-340 -26 c0 -2 -9 0 -20 6 -11 6 -20 13 -20
16 0 2 9 0 20 -6 11 -6 20 -13 20 -16z m1060 21 c0 -2 -10 -9 -22 -15 -22 -11
-22 -10 -4 4 21 17 26 19 26 11z m-160 -31 c0 -2 -9 0 -20 6 -11 6 -20 13 -20
16 0 2 9 0 20 -6 11 -6 20 -13 20 -16z m-976 -5 c-3 -5 -10 -7 -15 -3 -5 3 -7
10 -3 15 3 5 10 7 15 3 5 -3 7 -10 3 -15z m546 -5 c0 -2 -9 0 -20 6 -11 6 -20
13 -20 16 0 2 9 0 20 -6 11 -6 20 -13 20 -16z m195 18 c-18 -15 -85 -54 -85
-48 0 3 19 16 43 30 43 26 59 33 42 18z m345 -7 c0 -2 -10 -9 -22 -15 -22 -11
-22 -10 -4 4 21 17 26 19 26 11z m-1114 -17 c4 -7 3 -8 -4 -4 -7 4 -12 3 -12
-3 0 -15 -38 -33 -45 -22 -3 6 7 17 22 25 34 19 30 18 39 4z m144 -24 c0 -2
-13 2 -30 11 -16 9 -30 18 -30 21 0 2 14 -2 30 -11 17 -9 30 -18 30 -21z m30
10 c0 -2 -9 0 -20 6 -11 6 -20 13 -20 16 0 2 9 0 20 -6 11 -6 20 -13 20 -16z
m280 21 c0 -2 -13 -11 -30 -20 -38 -19 -40 -11 -2 9 31 17 32 18 32 11z m609
-21 c14 -12 -19 -1 -35 12 -18 14 -18 14 6 3 14 -6 27 -13 29 -15z m-719 2 c0
-2 -7 -7 -16 -10 -8 -3 -12 -2 -9 4 6 10 25 14 25 6z m200 -32 c0 -2 -13 2
-30 11 -16 9 -30 18 -30 21 0 2 14 -2 30 -11 17 -9 30 -18 30 -21z m86 20 c18
-14 18 -14 -6 -3 -31 14 -36 19 -24 19 6 0 19 -7 30 -16z m247 -1 c3 -5 -8 -8
-23 -8 -15 0 -26 3 -23 8 2 4 13 7 23 7 10 0 21 -3 23 -7z m-947 -15 c4 -7 3
-8 -4 -4 -7 4 -12 3 -12 -3 0 -18 -38 -33 -46 -19 -4 7 -4 10 0 6 4 -3 16 2
27 13 22 22 25 23 35 7z m264 -14 c0 -2 -9 0 -20 6 -11 6 -20 13 -20 16 0 2 9
0 20 -6 11 -6 20 -13 20 -16z m50 0 c0 -2 -9 0 -20 6 -11 6 -20 13 -20 16 0 2
9 0 20 -6 11 -6 20 -13 20 -16z m60 21 c0 -2 -10 -9 -22 -15 -22 -11 -22 -10
-4 4 21 17 26 19 26 11z m80 0 c0 -2 -10 -9 -22 -15 -22 -11 -22 -10 -4 4 21
17 26 19 26 11z m430 -10 c0 -2 -10 -9 -22 -15 -22 -11 -22 -10 -4 4 21 17 26
19 26 11z m-195 -45 c3 -5 -10 -1 -29 11 -20 12 -36 23 -36 25 0 7 58 -25 65
-36z m659 31 c4 -5 -3 -7 -14 -4 -23 6 -26 13 -6 13 8 0 17 -4 20 -9z m-964
-16 c0 -2 -10 -9 -22 -15 -22 -11 -22 -10 -4 4 21 17 26 19 26 11z m-453 -37
c-3 -8 -6 -5 -6 6 -1 11 2 17 5 13 3 -3 4 -12 1 -19z m1303 7 c0 -2 -10 -9
-22 -15 -22 -11 -22 -10 -4 4 21 17 26 19 26 11z"/>
</g>
</svg>
