<?xml version="1.0" standalone="no"?>
<!DOCTYPE svg PUBLIC "-//W3C//DTD SVG 20010904//EN"
 "http://www.w3.org/TR/2001/REC-SVG-20010904/DTD/svg10.dtd">
<svg version="1.0" xmlns="http://www.w3.org/2000/svg"
 width="200.000000pt" height="200.000000pt" viewBox="0 0 200.000000 200.000000"
 preserveAspectRatio="xMidYMid meet">
<metadata>
Created by potrace 1.16, written by Peter Selinger 2001-2019
</metadata>
<g transform="translate(0.000000,200.000000) scale(0.100000,-0.100000)"
fill="#000000" stroke="none">
<path d="M0 1967 c0 -18 6 -39 13 -46 10 -11 10 -13 0 -7 -10 6 -13 -41 -13
-219 0 -178 3 -225 13 -219 10 6 10 4 0 -7 -9 -9 -13 -49 -13 -122 0 -93 3
-112 18 -123 16 -13 16 -14 0 -8 -17 6 -18 -14 -18 -332 0 -251 4 -342 13
-353 9 -12 9 -13 0 -7 -10 6 -13 -49 -13 -258 l0 -266 194 0 c146 0 196 3 199
13 4 9 6 9 6 0 1 -10 168 -13 801 -13 l800 0 0 33 c0 18 -6 39 -12 46 -10 11
-10 13 0 7 9 -6 12 41 12 219 0 178 -3 225 -12 219 -10 -6 -10 -5 -1 7 10 12
13 125 13 469 0 344 -3 457 -13 469 -9 12 -9 13 1 7 9 -6 12 41 12 219 0 178
-3 225 -12 219 -10 -6 -10 -4 0 7 6 7 12 28 12 46 l0 33 -799 0 c-630 0 -800
-3 -804 -12 -4 -10 -6 -10 -6 0 -1 9 -47 12 -196 12 l-195 0 0 -33z m410 -42
c11 -13 10 -14 -4 -9 -9 3 -16 10 -16 15 0 13 6 11 20 -6z m416 -11 c18 -14
18 -15 -3 -4 -17 8 -29 8 -45 0 -22 -11 -22 -10 -4 4 11 9 23 16 26 16 3 0 15
-7 26 -16z m400 0 c18 -14 18 -15 -3 -4 -17 8 -29 8 -45 0 -22 -11 -22 -10 -4
4 11 9 23 16 26 16 3 0 15 -7 26 -16z m383 12 c-2 -2 -15 -9 -29 -15 -24 -11
-24 -11 -6 3 16 13 49 24 35 12z m-1229 -11 c0 -2 -10 -9 -22 -15 -22 -11 -22
-10 -4 4 21 17 26 19 26 11z m1280 -21 c0 -2 -9 0 -20 6 -11 6 -20 13 -20 16
0 2 9 0 20 -6 11 -6 20 -13 20 -16z m-1590 -10 c0 -2 -9 0 -20 6 -11 6 -20 13
-20 16 0 2 9 0 20 -6 11 -6 20 -13 20 -16z m420 -10 c0 -2 -13 2 -30 11 -16 9
-30 18 -30 21 0 2 14 -2 30 -11 17 -9 30 -18 30 -21z m1480 31 c0 -2 -13 -11
-30 -20 -38 -19 -40 -11 -2 9 31 17 32 18 32 11z m-1080 -31 c0 -2 -9 0 -20 6
-11 6 -20 13 -20 16 0 2 9 0 20 -6 11 -6 20 -13 20 -16z m260 21 c0 -2 -13
-11 -30 -20 -38 -19 -40 -11 -2 9 31 17 32 18 32 11z m400 0 c0 -2 -10 -9 -22
-15 -22 -11 -22 -10 -4 4 21 17 26 19 26 11z m-1220 -10 c0 -2 -13 -11 -30
-20 -38 -19 -40 -11 -2 9 31 17 32 18 32 11z m400 0 c0 -2 -10 -9 -22 -15 -22
-11 -22 -10 -4 4 21 17 26 19 26 11z m580 -21 c0 -2 -9 0 -20 6 -11 6 -20 13
-20 16 0 2 9 0 20 -6 11 -6 20 -13 20 -16z m400 0 c0 -2 -9 0 -20 6 -11 6 -20
13 -20 16 0 2 9 0 20 -6 11 -6 20 -13 20 -16z m-1570 -20 c0 -2 -9 0 -20 6
-11 6 -20 13 -20 16 0 2 9 0 20 -6 11 -6 20 -13 20 -16z m400 0 c0 -2 -9 0
-20 6 -11 6 -20 13 -20 16 0 2 9 0 20 -6 11 -6 20 -13 20 -16z m1360 21 c0 -2
-10 -9 -22 -15 -22 -11 -22 -10 -4 4 21 17 26 19 26 11z m-940 -31 c0 -2 -9 0
-20 6 -11 6 -20 13 -20 16 0 2 9 0 20 -6 11 -6 20 -13 20 -16z m120 21 c0 -2
-13 -11 -30 -20 -38 -19 -40 -11 -2 9 31 17 32 18 32 11z m400 0 c0 -2 -10 -9
-22 -15 -22 -11 -22 -10 -4 4 21 17 26 19 26 11z m-1220 -9 c0 -2 -15 -13 -34
-24 -30 -18 -36 -19 -47 -6 -10 12 -9 13 4 8 8 -3 28 1 44 10 31 17 33 18 33
12z m400 -1 c0 -2 -10 -9 -22 -15 -22 -11 -22 -10 -4 4 21 17 26 19 26 11z
m720 -21 c0 -2 -9 0 -20 6 -11 6 -20 13 -20 16 0 2 9 0 20 -6 11 -6 20 -13 20
-16z m400 0 c0 -2 -9 0 -20 6 -11 6 -20 13 -20 16 0 2 9 0 20 -6 11 -6 20 -13
20 -16z m-1179 -12 c-7 -2 -18 1 -23 6 -8 8 -4 9 13 5 13 -4 18 -8 10 -11z
m400 0 c-7 -2 -18 1 -23 6 -8 8 -4 9 13 5 13 -4 18 -8 10 -11z m419 3 c-7 -8
-17 -12 -23 -8 -6 4 -3 9 9 14 27 11 28 11 14 -6z m397 -10 c-10 -20 -13 -22
-18 -7 -4 11 0 20 10 24 9 4 17 7 18 7 0 1 -4 -10 -10 -24z m-1620 -97 c-2
-18 -4 -6 -4 27 0 33 2 48 4 33 2 -15 2 -42 0 -60z m1610 30 c-3 -7 -5 -2 -5
12 0 14 2 19 5 13 2 -7 2 -19 0 -25z m0 -50 c-3 -7 -5 -2 -5 12 0 14 2 19 5
13 2 -7 2 -19 0 -25z m15 -116 c8 -9 7 -11 -5 -7 -8 4 -29 -1 -46 -10 -17 -8
-31 -13 -31 -11 0 3 14 12 30 21 26 14 30 21 32 63 l1 47 4 -45 c3 -24 9 -50
15 -58z m-1625 46 c-3 -7 -5 -2 -5 12 0 14 2 19 5 13 2 -7 2 -19 0 -25z m113
-105 c0 -2 -25 10 -55 27 -32 18 -63 29 -72 26 -13 -5 -14 -4 -4 8 10 12 21 9
72 -21 32 -19 59 -37 59 -40z m294 68 c3 -5 -3 -11 -15 -14 -16 -4 -18 -3 -8
9 13 16 16 17 23 5z m806 -1 c0 -5 -5 -10 -11 -10 -5 0 -7 5 -4 10 3 6 8 10
11 10 2 0 4 -4 4 -10z m-750 -36 c0 -2 -9 0 -20 6 -11 6 -20 13 -20 16 0 2 9
0 20 -6 11 -6 20 -13 20 -16z m420 -10 c0 -2 -13 2 -30 11 -16 9 -30 18 -30
21 0 2 14 -2 30 -11 17 -9 30 -18 30 -21z m300 31 c0 -2 -10 -9 -22 -15 -22
-11 -22 -10 -4 4 21 17 26 19 26 11z m-1220 -10 c0 -2 -10 -9 -22 -15 -22 -11
-22 -10 -4 4 21 17 26 19 26 11z m400 0 c0 -2 -10 -9 -22 -15 -22 -11 -22 -10
-4 4 21 17 26 19 26 11z m400 0 c0 -2 -10 -9 -22 -15 -22 -11 -22 -10 -4 4 21
17 26 19 26 11z m520 -21 c0 -2 -9 0 -20 6 -11 6 -20 13 -20 16 0 2 9 0 20 -6
11 -6 20 -13 20 -16z m420 -10 c0 -2 -13 2 -30 11 -16 9 -30 18 -30 21 0 2 14
-2 30 -11 17 -9 30 -18 30 -21z m-1170 -20 c0 -2 -13 2 -30 11 -16 9 -30 18
-30 21 0 2 14 -2 30 -11 17 -9 30 -18 30 -21z m1000 31 c0 -2 -13 -11 -30 -20
-38 -19 -40 -11 -2 9 31 17 32 18 32 11z m-820 -10 c0 -2 -13 -11 -30 -20 -38
-19 -40 -11 -2 9 31 17 32 18 32 11z m220 -21 c0 -2 -9 0 -20 6 -11 6 -20 13
-20 16 0 2 9 0 20 -6 11 -6 20 -13 20 -16z m180 21 c0 -2 -10 -9 -22 -15 -22
-11 -22 -10 -4 4 21 17 26 19 26 11z m-820 -10 c0 -2 -10 -9 -22 -15 -22 -11
-22 -10 -4 4 21 17 26 19 26 11z m1060 -21 c0 -2 -9 0 -20 6 -11 6 -20 13 -20
16 0 2 9 0 20 -6 11 -6 20 -13 20 -16z m400 0 c0 -2 -9 0 -20 6 -11 6 -20 13
-20 16 0 2 9 0 20 -6 11 -6 20 -13 20 -16z m-1880 11 c0 -2 -10 -9 -22 -15
-22 -11 -22 -10 -4 4 21 17 26 19 26 11z m310 -31 c0 -2 -9 0 -20 6 -11 6 -20
13 -20 16 0 2 9 0 20 -6 11 -6 20 -13 20 -16z m400 0 c0 -2 -9 0 -20 6 -11 6
-20 13 -20 16 0 2 9 0 20 -6 11 -6 20 -13 20 -16z m880 21 c0 -2 -10 -9 -22
-15 -22 -11 -22 -10 -4 4 21 17 26 19 26 11z m-834 -20 c-11 -8 -25 -15 -30
-15 -6 1 0 7 14 15 32 19 40 18 16 0z m397 5 c21 11 21 10 3 -4 -11 -9 -23
-16 -26 -16 -3 0 -15 7 -26 16 -18 14 -18 15 4 4 16 -8 28 -8 45 0z m386 -16
c14 -12 -19 -1 -35 12 -18 14 -18 14 6 3 14 -6 27 -13 29 -15z m-1194 6 c-3
-5 -12 -10 -18 -10 -7 0 -6 4 3 10 19 12 23 12 15 0z m-18 -122 c-2 -13 -4 -3
-4 22 0 25 2 35 4 23 2 -13 2 -33 0 -45z m0 -85 c-3 -10 -5 -4 -5 12 0 17 2
24 5 18 2 -7 2 -21 0 -30z m33 -49 c0 -3 -7 -1 -17 4 -11 7 -27 3 -52 -11 -41
-23 -36 -13 6 13 19 12 34 14 46 8 9 -5 17 -11 17 -14z m400 2 c0 -2 -9 -2
-19 1 -10 3 -30 0 -42 -7 -24 -11 -24 -11 1 9 18 14 29 17 42 10 10 -5 18 -11
18 -13z m400 3 l25 -21 -25 15 c-23 13 -29 13 -55 0 l-30 -14 25 20 c31 25 29
25 60 0z m582 -96 c8 1 11 -13 9 -43 -4 -57 -11 -66 -11 -14 -1 39 -1 39 -103
97 l-102 59 -60 -33 c-33 -18 -77 -43 -97 -56 l-38 -23 0 -110 0 -110 38 -23
c20 -13 64 -39 97 -57 l60 -32 76 45 c120 71 136 78 136 62 0 -8 -4 -12 -8 -9
-4 2 -52 -22 -107 -54 l-99 -59 -102 59 c-56 32 -107 56 -114 52 -9 -5 -8 -3
1 7 8 9 12 48 12 119 0 71 -4 110 -12 119 -10 11 -10 12 -1 7 7 -4 58 20 114
52 l101 60 99 -59 c55 -32 104 -58 111 -56z m-1712 51 c0 -2 -13 2 -30 11 -16
9 -30 18 -30 21 0 2 14 -2 30 -11 17 -9 30 -18 30 -21z m400 0 c0 -2 -13 2
-30 11 -16 9 -30 18 -30 21 0 2 14 -2 30 -11 17 -9 30 -18 30 -21z m400 0 c0
-2 -9 0 -20 6 -11 6 -20 13 -20 16 0 2 9 0 20 -6 11 -6 20 -13 20 -16z m240
21 c0 -2 -10 -9 -22 -15 -22 -11 -22 -10 -4 4 21 17 26 19 26 11z m180 -31 c0
-2 -13 2 -30 11 -16 9 -30 18 -30 21 0 2 14 -2 30 -11 17 -9 30 -18 30 -21z
m617 21 c0 -8 -4 -12 -9 -9 -5 3 -6 10 -3 15 9 13 12 11 12 -6z m-1622 -4
c-16 -14 -105 -63 -105 -58 0 5 101 66 110 67 2 0 0 -4 -5 -9z m405 4 c0 -2
-10 -9 -22 -15 -22 -11 -22 -10 -4 4 21 17 26 19 26 11z m-570 -41 c0 -2 -9 0
-20 6 -11 6 -20 13 -20 16 0 2 9 0 20 -6 11 -6 20 -13 20 -16z m820 -10 c0 -2
-13 2 -30 11 -16 9 -30 18 -30 21 0 2 14 -2 30 -11 17 -9 30 -18 30 -21z
m-300 22 c0 -2 -16 -14 -36 -26 -29 -16 -39 -18 -48 -9 -8 9 -8 10 1 5 6 -3
27 3 45 14 35 21 38 22 38 16z m400 -1 c0 -2 -10 -9 -22 -15 -22 -11 -22 -10
-4 4 21 17 26 19 26 11z m300 -21 c0 -2 -9 0 -20 6 -11 6 -20 13 -20 16 0 2 9
0 20 -6 11 -6 20 -13 20 -16z m-1170 -24 c0 -6 -9 -2 -20 7 -11 10 -20 19 -20
21 0 1 9 -2 20 -8 11 -6 20 -15 20 -20z m810 6 c-7 -7 -13 -7 -20 0 -6 6 -3
10 10 10 13 0 16 -4 10 -10z m-813 -78 c-3 -7 -5 -2 -5 12 0 14 2 19 5 13 2
-7 2 -19 0 -25z m1620 -95 c-2 -16 -4 -3 -4 27 0 30 2 43 4 28 2 -16 2 -40 0
-55z m-1620 -5 c-3 -8 -6 -5 -6 6 -1 11 2 17 5 13 3 -3 4 -12 1 -19z m437 -69
c20 -12 36 -23 36 -26 0 -3 -16 4 -36 16 -28 17 -40 19 -57 10 -21 -10 -21
-10 -3 5 24 19 18 20 60 -5z m380 13 c2 -4 -4 -8 -14 -8 -10 0 -16 4 -14 8 3
4 9 8 14 8 5 0 11 -4 14 -8z m-764 -28 c0 -2 -9 0 -20 6 -11 6 -20 13 -20 16
0 2 9 0 20 -6 11 -6 20 -13 20 -16z m720 11 c0 -2 -10 -9 -22 -15 -22 -11 -22
-10 -4 4 21 17 26 19 26 11z m100 -21 c0 -2 -9 0 -20 6 -11 6 -20 13 -20 16 0
2 9 0 20 -6 11 -6 20 -13 20 -16z m300 21 c0 -2 -10 -9 -22 -15 -22 -11 -22
-10 -4 4 21 17 26 19 26 11z m497 -10 c0 -8 -4 -12 -9 -9 -5 3 -6 10 -3 15 9
13 12 11 12 -6z m-1717 0 c0 -2 -10 -9 -22 -15 -22 -11 -22 -10 -4 4 21 17 26
19 26 11z m395 -4 c-16 -14 -105 -63 -105 -58 0 5 101 66 110 67 2 0 0 -4 -5
-9z m1350 0 c3 -5 2 -12 -3 -15 -5 -3 -9 1 -9 9 0 17 3 19 12 6z m-1575 -37
c0 -2 -9 0 -20 6 -11 6 -20 13 -20 16 0 2 9 0 20 -6 11 -6 20 -13 20 -16z
m420 -10 c0 -2 -13 2 -30 11 -16 9 -30 18 -30 21 0 2 14 -2 30 -11 17 -9 30
-18 30 -21z m400 0 c0 -2 -13 2 -30 11 -16 9 -30 18 -30 21 0 2 14 -2 30 -11
17 -9 30 -18 30 -21z m180 31 c0 -2 -13 -11 -30 -20 -38 -19 -40 -11 -2 9 31
17 32 18 32 11z m-420 -10 c0 -2 -13 -11 -30 -20 -38 -19 -40 -11 -2 9 31 17
32 18 32 11z m-820 -10 c0 -2 -10 -9 -22 -15 -22 -11 -22 -10 -4 4 21 17 26
19 26 11z m290 -31 c0 -2 -9 0 -20 6 -11 6 -20 13 -20 16 0 2 9 0 20 -6 11 -6
20 -13 20 -16z m446 -2 c18 9 18 9 0 -6 -16 -13 -21 -13 -42 1 -13 8 -24 18
-24 20 0 3 10 -2 23 -10 17 -11 29 -12 43 -5z m414 5 l25 15 -25 -21 c-31 -25
-29 -25 -60 0 l-25 20 30 -14 c26 -13 32 -13 55 0z m-800 -2 c0 -2 -9 -9 -19
-15 -14 -7 -22 -7 -27 2 -4 6 -3 8 2 5 6 -3 16 -2 24 4 17 10 20 11 20 4z
m-33 -87 c-3 -8 -6 -5 -6 6 -1 11 2 17 5 13 3 -3 4 -12 1 -19z m0 -110 c-3 -7
-5 -2 -5 12 0 14 2 19 5 13 2 -7 2 -19 0 -25z m16 -56 c7 -9 6 -11 -7 -6 -9 3
-16 16 -15 28 0 14 2 16 6 6 3 -8 10 -21 16 -28z m413 -8 c18 -14 18 -15 -3
-4 -18 8 -30 7 -53 -5 -38 -19 -40 -11 -2 9 34 19 34 19 58 0z m400 0 c18 -14
18 -15 -3 -4 -17 8 -29 8 -45 0 -22 -11 -22 -10 -4 4 24 20 28 20 52 0z m383
12 c-2 -2 -15 -9 -29 -15 -24 -11 -24 -11 -6 3 16 13 49 24 35 12z m-1229 -10
c0 -6 -122 -77 -126 -73 -3 2 116 76 124 77 1 0 2 -2 2 -4z m1280 -22 c0 -2
-9 0 -20 6 -11 6 -20 13 -20 16 0 2 9 0 20 -6 11 -6 20 -13 20 -16z m-1570
-20 c0 -2 -13 2 -30 11 -16 9 -30 18 -30 21 0 2 14 -2 30 -11 17 -9 30 -18 30
-21z m400 0 c0 -2 -9 0 -20 6 -11 6 -20 13 -20 16 0 2 9 0 20 -6 11 -6 20 -13
20 -16z m660 21 c0 -2 -13 -11 -30 -20 -38 -19 -40 -11 -2 9 31 17 32 18 32
11z m400 0 c0 -2 -13 -11 -30 -20 -38 -19 -40 -11 -2 9 31 17 32 18 32 11z
m400 0 c0 -2 -10 -9 -22 -15 -22 -11 -22 -10 -4 4 21 17 26 19 26 11z m-1220
-10 c0 -2 -10 -9 -22 -15 -22 -11 -22 -10 -4 4 21 17 26 19 26 11z m180 -21
c0 -2 -9 0 -20 6 -11 6 -20 13 -20 16 0 2 9 0 20 -6 11 -6 20 -13 20 -16z
m400 0 c0 -2 -9 0 -20 6 -11 6 -20 13 -20 16 0 2 9 0 20 -6 11 -6 20 -13 20
-16z m420 -10 c0 -2 -13 2 -30 11 -16 9 -30 18 -30 21 0 2 14 -2 30 -11 17 -9
30 -18 30 -21z m-1570 -20 c0 -2 -13 2 -30 11 -16 9 -30 18 -30 21 0 2 14 -2
30 -11 17 -9 30 -18 30 -21z m400 0 c0 -2 -13 2 -30 11 -16 9 -30 18 -30 21 0
2 14 -2 30 -11 17 -9 30 -18 30 -21z m400 0 c0 -2 -9 0 -20 6 -11 6 -20 13
-20 16 0 2 9 0 20 -6 11 -6 20 -13 20 -16z m120 21 c0 -2 -13 -11 -30 -20 -38
-19 -40 -11 -2 9 31 17 32 18 32 11z m400 0 c0 -2 -10 -9 -22 -15 -22 -11 -22
-10 -4 4 21 17 26 19 26 11z m400 0 c0 -2 -10 -9 -22 -15 -22 -11 -22 -10 -4
4 21 17 26 19 26 11z m-1220 -10 c0 -2 -10 -9 -22 -15 -22 -11 -22 -10 -4 4
21 17 26 19 26 11z m1120 -21 c0 -2 -9 0 -20 6 -11 6 -20 13 -20 16 0 2 9 0
20 -6 11 -6 20 -13 20 -16z m-1550 4 c-8 -7 -20 -18 -26 -25 -7 -9 -13 -7 -22
7 -10 16 -9 18 3 14 7 -3 22 -1 32 5 25 14 30 14 13 -1z m374 -20 c-3 -5 -12
-4 -20 3 -19 16 -18 18 6 12 11 -3 17 -9 14 -15z m397 4 c-7 -2 -18 1 -23 6
-8 8 -4 9 13 5 13 -4 18 -8 10 -11z m419 3 c-7 -8 -17 -12 -23 -8 -6 4 -3 9 9
14 27 11 28 11 14 -6z m402 3 c-7 -7 -13 -23 -13 -37 -1 -24 -2 -24 -8 4 -5
22 -3 32 9 37 23 10 25 9 12 -4z m-1625 -80 c-3 -7 -5 -2 -5 12 0 14 2 19 5
13 2 -7 2 -19 0 -25z m1610 -20 c-3 -7 -5 -2 -5 12 0 14 2 19 5 13 2 -7 2 -19
0 -25z m-1610 -40 c-3 -8 -6 -5 -6 6 -1 11 2 17 5 13 3 -3 4 -12 1 -19z m1624
-104 c7 -9 5 -11 -8 -8 -16 4 -17 13 -13 72 l5 67 3 -60 c2 -32 8 -65 13 -71z
m-1548 -33 c31 -18 57 -35 57 -37 0 -3 -29 11 -65 31 -36 21 -72 34 -80 31
-12 -4 -13 -2 -3 14 9 15 14 16 22 6 6 -7 37 -28 69 -45z m331 40 c3 -5 -3
-11 -15 -14 -16 -4 -18 -3 -8 9 13 16 16 17 23 5z m806 -1 c0 -5 -5 -10 -11
-10 -5 0 -7 5 -4 10 3 6 8 10 11 10 2 0 4 -4 4 -10z m-400 -4 c0 -2 -9 -6 -20
-9 -11 -3 -18 -1 -14 4 5 9 34 13 34 5z m-350 -32 c0 -2 -9 0 -20 6 -11 6 -20
13 -20 16 0 2 9 0 20 -6 11 -6 20 -13 20 -16z m720 21 c0 -2 -13 -11 -30 -20
-38 -19 -40 -11 -2 9 31 17 32 18 32 11z m400 0 c0 -2 -10 -9 -22 -15 -22 -11
-22 -10 -4 4 21 17 26 19 26 11z m-820 -10 c0 -2 -10 -9 -22 -15 -22 -11 -22
-10 -4 4 21 17 26 19 26 11z m120 -21 c0 -2 -9 0 -20 6 -11 6 -20 13 -20 16 0
2 9 0 20 -6 11 -6 20 -13 20 -16z m400 0 c0 -2 -9 0 -20 6 -11 6 -20 13 -20
16 0 2 9 0 20 -6 11 -6 20 -13 20 -16z m420 -10 c0 -2 -13 2 -30 11 -16 9 -30
18 -30 21 0 2 14 -2 30 -11 17 -9 30 -18 30 -21z m-1760 21 c0 -2 -10 -9 -22
-15 -22 -11 -22 -10 -4 4 21 17 26 19 26 11z m400 0 c0 -2 -10 -9 -22 -15 -22
-11 -22 -10 -4 4 21 17 26 19 26 11z m1190 -10 c0 -2 -10 -9 -22 -15 -22 -11
-22 -10 -4 4 21 17 26 19 26 11z m-1000 -31 c0 -2 -9 0 -20 6 -11 6 -20 13
-20 16 0 2 9 0 20 -6 11 -6 20 -13 20 -16z m420 -10 c0 -2 -13 2 -30 11 -16 9
-30 18 -30 21 0 2 14 -2 30 -11 17 -9 30 -18 30 -21z m160 31 c0 -2 -13 -11
-30 -20 -38 -19 -40 -11 -2 9 31 17 32 18 32 11z m-1220 -10 c0 -2 -13 -11
-30 -20 -38 -19 -40 -11 -2 9 31 17 32 18 32 11z m400 0 c0 -2 -10 -9 -22 -15
-22 -11 -22 -10 -4 4 21 17 26 19 26 11z m400 0 c0 -2 -10 -9 -22 -15 -22 -11
-22 -10 -4 4 21 17 26 19 26 11z m660 -21 c0 -2 -9 0 -20 6 -11 6 -20 13 -20
16 0 2 9 0 20 -6 11 -6 20 -13 20 -16z m420 -10 c0 -2 -13 2 -30 11 -16 9 -30
18 -30 21 0 2 14 -2 30 -11 17 -9 30 -18 30 -21z m-1557 -7 c9 5 9 3 1 -8 -7
-8 -14 -23 -17 -34 -4 -15 -5 -13 -6 8 0 15 -5 27 -9 27 -5 0 -17 7 -28 15
-17 14 -15 14 14 0 18 -9 38 -13 45 -8z m407 3 c11 6 20 8 20 6 0 -3 -9 -10
-20 -16 -15 -8 -27 -7 -50 5 -16 9 -30 18 -30 21 0 2 14 -2 30 -11 23 -12 35
-13 50 -5z m840 15 c0 -2 -14 -12 -31 -21 -25 -12 -34 -13 -43 -3 -8 9 -8 10
1 5 7 -4 25 0 40 8 32 17 33 18 33 11z m-437 -15 c21 11 21 10 3 -4 -11 -9
-23 -16 -26 -16 -3 0 -15 7 -26 16 -18 14 -18 15 4 4 16 -8 28 -8 45 0z"/>
</g>
</svg>
