<?xml version="1.0" standalone="no"?>
<!DOCTYPE svg PUBLIC "-//W3C//DTD SVG 20010904//EN"
 "http://www.w3.org/TR/2001/REC-SVG-20010904/DTD/svg10.dtd">
<svg version="1.0" xmlns="http://www.w3.org/2000/svg"
 width="200.000000pt" height="200.000000pt" viewBox="0 0 200.000000 200.000000"
 preserveAspectRatio="xMidYMid meet">
<metadata>
Created by potrace 1.16, written by Peter Selinger 2001-2019
</metadata>
<g transform="translate(0.000000,200.000000) scale(0.100000,-0.100000)"
fill="#000000" stroke="none">
<path d="M0 1967 c0 -18 6 -39 13 -46 10 -11 10 -13 0 -7 -10 6 -13 -41 -13
-219 0 -178 3 -225 13 -219 10 6 10 4 0 -7 -9 -9 -13 -49 -13 -124 l0 -112 50
-27 c28 -15 50 -30 50 -32 0 -3 -21 6 -46 20 -26 14 -48 26 -50 26 -2 0 -4
-99 -4 -221 0 -206 1 -221 18 -215 16 6 16 5 0 -8 -15 -11 -18 -30 -18 -123 0
-73 4 -113 13 -122 9 -11 9 -13 0 -7 -10 6 -13 -41 -13 -219 0 -178 3 -225 12
-219 11 6 11 4 0 -7 -6 -7 -12 -28 -12 -46 l0 -33 194 0 c146 0 196 3 199 13
4 9 6 9 6 0 1 -10 128 -13 601 -13 l600 0 0 34 c0 23 -7 38 -22 50 l-23 16 25
-11 c22 -9 38 -3 123 46 l97 57 0 114 0 113 -30 16 c-41 21 -38 29 4 9 l33
-16 94 54 94 54 3 113 c2 99 0 115 -15 127 -17 13 -17 14 0 8 16 -6 17 8 17
196 0 188 -1 202 -17 196 -17 -6 -17 -5 0 8 9 7 17 21 17 30 0 14 -4 15 -22 6
-21 -10 -21 -10 -5 3 14 12 17 32 17 125 l0 111 -87 52 c-49 29 -93 52 -99 52
-6 0 -52 -23 -102 -52 l-92 -53 -2 -116 -2 -117 -3 115 c-3 105 -6 117 -26
133 l-22 18 25 -11 c23 -10 37 -4 123 45 l97 57 0 113 0 113 -99 57 c-86 49
-103 55 -123 45 l-23 -11 23 17 c15 11 22 27 22 50 l0 34 -599 0 c-470 0 -600
-3 -604 -12 -4 -10 -6 -10 -6 0 -1 9 -47 12 -196 12 l-195 0 0 -33z m411 -44
c9 -11 10 -14 2 -10 -7 5 -27 1 -45 -8 -27 -13 -29 -13 -13 -1 11 8 25 20 30
25 6 6 11 10 11 11 1 0 8 -8 15 -17z m415 -9 c18 -14 18 -15 -3 -4 -18 8 -30
7 -53 -5 -38 -19 -40 -11 -2 9 34 19 34 19 58 0z m400 0 c18 -14 18 -15 -3 -4
-17 8 -29 8 -45 0 -22 -11 -22 -10 -4 4 11 9 23 16 26 16 3 0 15 -7 26 -16z
m-1156 -30 c0 -2 -9 0 -20 6 -11 6 -20 13 -20 16 0 2 9 0 20 -6 11 -6 20 -13
20 -16z m420 -10 c0 -2 -13 2 -30 11 -16 9 -30 18 -30 21 0 2 14 -2 30 -11 17
-9 30 -18 30 -21z m400 0 c0 -2 -9 0 -20 6 -11 6 -20 13 -20 16 0 2 9 0 20 -6
11 -6 20 -13 20 -16z m260 21 c0 -2 -13 -11 -30 -20 -38 -19 -40 -11 -2 9 31
17 32 18 32 11z m160 -31 c0 -2 -13 2 -30 11 -16 9 -30 18 -30 21 0 2 14 -2
30 -11 17 -9 30 -18 30 -21z m240 31 c0 -2 -10 -9 -22 -15 -22 -11 -22 -10 -4
4 21 17 26 19 26 11z m-1220 -10 c0 -2 -13 -11 -30 -20 -38 -19 -40 -11 -2 9
31 17 32 18 32 11z m400 0 c0 -2 -10 -9 -22 -15 -22 -11 -22 -10 -4 4 21 17
26 19 26 11z m-590 -41 c0 -2 -9 0 -20 6 -11 6 -20 13 -20 16 0 2 9 0 20 -6
11 -6 20 -13 20 -16z m420 -10 c0 -2 -13 2 -30 11 -16 9 -30 18 -30 21 0 2 14
-2 30 -11 17 -9 30 -18 30 -21z m940 31 c0 -2 -13 -11 -30 -20 -38 -19 -40
-11 -2 9 31 17 32 18 32 11z m-540 -31 c0 -2 -9 0 -20 6 -11 6 -20 13 -20 16
0 2 9 0 20 -6 11 -6 20 -13 20 -16z m120 21 c0 -2 -13 -11 -30 -20 -38 -19
-40 -11 -2 9 31 17 32 18 32 11z m300 -31 c0 -2 -13 2 -30 11 -16 9 -30 18
-30 21 0 2 14 -2 30 -11 17 -9 30 -18 30 -21z m-1120 22 c0 -2 -15 -13 -33
-24 -33 -19 -34 -19 -58 0 l-24 19 26 -12 c21 -9 32 -8 55 5 32 17 34 18 34
12z m400 -1 c0 -2 -10 -9 -22 -15 -22 -11 -22 -10 -4 4 21 17 26 19 26 11z
m-59 -33 c-7 -2 -18 1 -23 6 -8 8 -4 9 13 5 13 -4 18 -8 10 -11z m400 0 c-7
-2 -18 1 -23 6 -8 8 -4 9 13 5 13 -4 18 -8 10 -11z m409 -2 c0 -5 -2 -10 -4
-10 -3 0 -8 5 -11 10 -3 6 -1 10 4 10 6 0 11 -4 11 -10z m-1213 -102 c-2 -18
-4 -6 -4 27 0 33 2 48 4 33 2 -15 2 -42 0 -60z m400 40 c-3 -7 -5 -2 -5 12 0
14 2 19 5 13 2 -7 2 -19 0 -25z m-400 -125 c-3 -10 -5 -4 -5 12 0 17 2 24 5
18 2 -7 2 -21 0 -30z m113 -110 c0 -2 -25 10 -57 28 l-56 32 -51 -28 c-60 -33
-57 -26 5 14 l44 27 57 -34 c32 -19 58 -36 58 -39z m350 31 c0 -3 -14 3 -31
11 -17 9 -38 14 -46 10 -13 -4 -14 -3 -4 9 11 13 17 12 47 -6 19 -11 34 -22
34 -24z m759 32 c10 -12 8 -13 -8 -9 -12 3 -18 9 -15 14 7 12 10 11 23 -5z
m-379 -16 c22 -11 40 -23 40 -25 0 -5 -79 32 -89 41 -11 10 14 2 49 -16z m-60
5 c0 -2 -13 -11 -30 -20 -38 -19 -40 -11 -2 9 31 17 32 18 32 11z m400 0 c0
-2 -13 -11 -30 -20 -38 -19 -40 -11 -2 9 31 17 32 18 32 11z m-820 -10 c0 -2
-10 -9 -22 -15 -22 -11 -22 -10 -4 4 21 17 26 19 26 11z m920 -21 c0 -2 -9 0
-20 6 -11 6 -20 13 -20 16 0 2 9 0 20 -6 11 -6 20 -13 20 -16z m-750 -30 c0
-2 -13 2 -30 11 -16 9 -30 18 -30 21 0 2 14 -2 30 -11 17 -9 30 -18 30 -21z
m180 21 c0 -2 -13 -11 -30 -20 -38 -19 -40 -11 -2 9 31 17 32 18 32 11z m240
-31 c0 -2 -13 2 -30 11 -16 9 -30 18 -30 21 0 2 14 -2 30 -11 17 -9 30 -18 30
-21z m160 31 c0 -2 -10 -9 -22 -15 -22 -11 -22 -10 -4 4 21 17 26 19 26 11z
m240 -31 c0 -2 -13 2 -30 11 -16 9 -30 18 -30 21 0 2 14 -2 30 -11 17 -9 30
-18 30 -21z m-1460 21 c0 -2 -13 -11 -30 -20 -38 -19 -40 -11 -2 9 31 17 32
18 32 11z m400 1 c0 -6 -87 -56 -97 -56 -4 0 15 14 42 30 53 31 55 32 55 26z
m-110 -42 c0 -2 -9 0 -20 6 -11 6 -20 13 -20 16 0 2 9 0 20 -6 11 -6 20 -13
20 -16z m440 6 c11 6 20 8 20 6 0 -3 -9 -10 -20 -16 -15 -8 -27 -7 -50 5 -16
9 -30 18 -30 21 0 2 14 -2 30 -11 23 -12 35 -13 50 -5z m440 15 c0 -2 -14 -11
-30 -20 -23 -12 -35 -13 -50 -5 -11 6 -20 13 -20 16 0 2 9 0 20 -6 15 -8 27
-7 47 4 32 17 33 18 33 11z m-863 -142 c-2 -16 -4 -5 -4 22 0 28 2 40 4 28 2
-13 2 -35 0 -50z m21 -131 c16 -12 15 -12 -2 -4 -14 7 -28 4 -53 -10 -18 -11
-33 -17 -33 -14 0 3 14 12 30 21 26 14 30 21 32 63 l1 47 4 -44 c3 -26 11 -51
21 -59z m412 -6 c0 -2 -9 -2 -20 1 -12 3 -54 -15 -116 -51 -71 -42 -100 -54
-108 -46 -8 8 -7 10 4 6 8 -2 58 21 110 53 71 44 99 56 113 49 9 -5 17 -10 17
-12z m384 15 c12 -19 188 -111 199 -104 7 4 6 0 -2 -10 -12 -15 -16 -16 -30
-3 -9 7 -53 35 -99 60 l-83 47 -94 -56 -95 -56 0 -109 0 -109 95 -56 95 -56
92 54 93 53 6 49 6 50 1 -52 2 -52 -72 -42 c-40 -22 -86 -50 -101 -61 -25 -17
-30 -18 -45 -5 -9 8 -54 35 -100 61 -69 39 -86 45 -105 36 l-22 -11 23 17 c20
15 22 24 22 123 0 72 -4 111 -12 120 -9 10 -10 12 -1 7 11 -6 187 87 199 105
3 5 9 9 14 9 5 0 11 -4 14 -9z m446 -27 c0 -2 -9 0 -20 6 -11 6 -20 13 -20 16
0 2 9 0 20 -6 11 -6 20 -13 20 -16z m-1160 -30 c0 -2 -13 2 -30 11 -16 9 -30
18 -30 21 0 2 14 -2 30 -11 17 -9 30 -18 30 -21z m1124 27 c4 -5 -3 -7 -14 -4
-23 6 -26 13 -6 13 8 0 17 -4 20 -9z m-724 -27 c0 -2 -9 0 -20 6 -11 6 -20 13
-20 16 0 2 9 0 20 -6 11 -6 20 -13 20 -16z m640 21 c0 -2 -10 -9 -22 -15 -22
-11 -22 -10 -4 4 21 17 26 19 26 11z m390 0 c0 -2 -10 -9 -22 -15 -22 -11 -22
-10 -4 4 21 17 26 19 26 11z m-1623 -18 c-123 -80 -111 -75 -132 -54 -20 19
-20 20 2 8 19 -9 31 -6 80 24 54 32 91 49 50 22z m1423 -13 c0 -2 -9 0 -20 6
-11 6 -20 13 -20 16 0 2 9 0 20 -6 11 -6 20 -13 20 -16z m-30 -10 c0 -2 -9 0
-20 6 -11 6 -20 13 -20 16 0 2 9 0 20 -6 11 -6 20 -13 20 -16z m-1550 -10 c0
-2 -9 0 -20 6 -11 6 -20 13 -20 16 0 2 9 0 20 -6 11 -6 20 -13 20 -16z m400 0
c0 -2 -9 0 -20 6 -11 6 -20 13 -20 16 0 2 9 0 20 -6 11 -6 20 -13 20 -16z
m420 -10 c0 -2 -13 2 -30 11 -16 9 -30 18 -30 21 0 2 14 -2 30 -11 17 -9 30
-18 30 -21z m910 31 c0 -2 -10 -9 -22 -15 -22 -11 -22 -10 -4 4 21 17 26 19
26 11z m-410 -10 c0 -2 -10 -9 -22 -15 -22 -11 -22 -10 -4 4 21 17 26 19 26
11z m470 0 c0 -2 -10 -9 -22 -15 -22 -11 -22 -10 -4 4 21 17 26 19 26 11z
m-131 -31 c14 -12 -19 -1 -35 12 -18 14 -18 14 6 3 14 -6 27 -13 29 -15z m-39
-10 c0 -2 -9 0 -20 6 -11 6 -20 13 -20 16 0 2 9 0 20 -6 11 -6 20 -13 20 -16z
m120 11 c0 -2 -10 -9 -22 -15 -22 -11 -22 -10 -4 4 21 17 26 19 26 11z m-450
-9 c0 -2 -8 -10 -17 -17 -16 -13 -17 -12 -4 4 13 16 21 21 21 13z m-43 -93
c-2 -16 -4 -5 -4 22 0 28 2 40 4 28 2 -13 2 -35 0 -50z m390 -85 c-2 -29 -3
-6 -3 52 0 58 1 81 3 53 2 -29 2 -77 0 -105z m-1590 70 c-2 -13 -4 -3 -4 22 0
25 2 35 4 23 2 -13 2 -33 0 -45z m1640 20 c-3 -7 -5 -2 -5 12 0 14 2 19 5 13
2 -7 2 -19 0 -25z m-1240 -40 c-3 -7 -5 -2 -5 12 0 14 2 19 5 13 2 -7 2 -19 0
-25z m1240 -40 c-2 -13 -4 -3 -4 22 0 25 2 35 4 23 2 -13 2 -33 0 -45z m-1640
-10 c-3 -8 -6 -5 -6 6 -1 11 2 17 5 13 3 -3 4 -12 1 -19z m3 -48 c0 -5 -10
-15 -22 -21 l-23 -12 20 21 c23 24 25 25 25 12z m495 -56 c67 -40 102 -55 118
-51 20 6 21 5 4 -8 -16 -12 -30 -6 -118 46 -85 51 -103 58 -122 49 -21 -11
-21 -11 -3 4 11 9 21 16 22 16 2 0 46 -25 99 -56z m1069 44 c-5 -8 -2 -9 9 -5
24 9 21 0 -4 -14 -17 -9 -20 -8 -14 2 6 9 3 11 -11 6 -18 -7 -18 -7 0 8 24 18
30 19 20 3z m-1494 -34 c0 -2 -13 2 -30 11 -16 9 -30 18 -30 21 0 2 14 -2 30
-11 17 -9 30 -18 30 -21z m1200 0 c0 -2 -9 0 -20 6 -11 6 -20 13 -20 16 0 2 9
0 20 -6 11 -6 20 -13 20 -16z m420 -10 c0 -2 -13 2 -30 11 -16 9 -30 18 -30
21 0 2 14 -2 30 -11 17 -9 30 -18 30 -21z m-1740 21 c0 -2 -13 -11 -30 -20
-38 -19 -40 -11 -2 9 31 17 32 18 32 11z m395 -4 c-16 -14 -105 -63 -105 -58
0 5 101 66 110 67 2 0 0 -4 -5 -9z m405 4 c0 -2 -10 -9 -22 -15 -22 -11 -22
-10 -4 4 21 17 26 19 26 11z m744 -17 c-5 -8 -2 -9 9 -5 24 9 21 0 -4 -14 -17
-9 -20 -8 -14 2 6 9 3 11 -11 6 -18 -7 -18 -7 0 8 24 18 30 19 20 3z m-1374
-24 c0 -2 -9 0 -20 6 -11 6 -20 13 -20 16 0 2 9 0 20 -6 11 -6 20 -13 20 -16z
m580 11 c0 -2 -13 -11 -30 -20 -38 -19 -40 -11 -2 9 31 17 32 18 32 11z m640
-21 c0 -2 -9 0 -20 6 -11 6 -20 13 -20 16 0 2 9 0 20 -6 11 -6 20 -13 20 -16z
m420 -10 c0 -2 -13 2 -30 11 -16 9 -30 18 -30 21 0 2 14 -2 30 -11 17 -9 30
-18 30 -21z m-1880 21 c0 -2 -10 -9 -22 -15 -22 -11 -22 -10 -4 4 21 17 26 19
26 11z m1566 -11 c-1 -9 -10 -20 -19 -26 -13 -7 -17 -26 -19 -86 l-2 -77 -3
70 c-3 47 -9 76 -21 89 -16 18 -16 18 5 7 14 -7 24 -8 28 -1 3 5 -2 10 -12 10
-12 1 -8 5 12 15 17 7 31 14 32 14 1 1 0 -6 -1 -15z m-1230 -22 c18 9 18 9 1
-6 -17 -13 -22 -12 -53 6 -19 11 -34 22 -34 25 0 3 15 -4 33 -15 25 -14 39
-17 53 -10z m-19 -84 c-3 -8 -6 -5 -6 6 -1 11 2 17 5 13 3 -3 4 -12 1 -19z m0
-110 c-3 -7 -5 -2 -5 12 0 14 2 19 5 13 2 -7 2 -19 0 -25z m1210 -20 c-3 -7
-5 -2 -5 12 0 14 2 19 5 13 2 -7 2 -19 0 -25z m-1183 -41 c21 -17 21 -17 -6
-6 -18 8 -28 19 -27 33 0 14 2 16 6 6 3 -8 15 -23 27 -33z m1186 15 c0 -5 -12
-14 -27 -21 l-28 -12 25 21 c29 22 30 23 30 12z m-784 -18 c18 -14 18 -15 -3
-4 -18 8 -30 7 -53 -5 -38 -19 -40 -11 -2 9 34 19 34 19 58 0z m400 0 c18 -14
18 -15 -3 -4 -18 8 -30 7 -53 -5 -38 -19 -40 -11 -2 9 34 19 34 19 58 0z
m-846 2 c0 -2 -37 -25 -82 -52 -46 -26 -88 -53 -94 -60 -8 -10 -13 -9 -21 6
-10 15 -9 17 5 14 9 -3 55 18 102 45 89 53 90 53 90 47z m1280 -22 c0 -2 -9 0
-20 6 -11 6 -20 13 -20 16 0 2 9 0 20 -6 11 -6 20 -13 20 -16z m-1570 -20 c0
-2 -13 2 -30 11 -16 9 -30 18 -30 21 0 2 14 -2 30 -11 17 -9 30 -18 30 -21z
m400 0 c0 -2 -9 0 -20 6 -11 6 -20 13 -20 16 0 2 9 0 20 -6 11 -6 20 -13 20
-16z m420 -10 c0 -2 -13 2 -30 11 -16 9 -30 18 -30 21 0 2 14 -2 30 -11 17 -9
30 -18 30 -21z m640 31 c0 -2 -13 -11 -30 -20 -38 -19 -40 -11 -2 9 31 17 32
18 32 11z m-820 -10 c0 -2 -13 -11 -30 -20 -38 -19 -40 -11 -2 9 31 17 32 18
32 11z m400 0 c0 -2 -10 -9 -22 -15 -22 -11 -22 -10 -4 4 21 17 26 19 26 11z
m180 -21 c0 -2 -9 0 -20 6 -11 6 -20 13 -20 16 0 2 9 0 20 -6 11 -6 20 -13 20
-16z m420 -10 c0 -2 -13 2 -30 11 -16 9 -30 18 -30 21 0 2 14 -2 30 -11 17 -9
30 -18 30 -21z m-1570 -20 c0 -2 -13 2 -30 11 -16 9 -30 18 -30 21 0 2 14 -2
30 -11 17 -9 30 -18 30 -21z m400 0 c0 -2 -13 2 -30 11 -16 9 -30 18 -30 21 0
2 14 -2 30 -11 17 -9 30 -18 30 -21z m440 -22 c-8 -3 -80 37 -80 44 0 2 20 -6
44 -18 24 -13 40 -24 36 -26z m80 43 c0 -2 -13 -11 -30 -20 -38 -19 -40 -11
-2 9 31 17 32 18 32 11z m400 0 c0 -2 -10 -9 -22 -15 -22 -11 -22 -10 -4 4 21
17 26 19 26 11z m-820 -10 c0 -2 -10 -9 -22 -15 -22 -11 -22 -10 -4 4 21 17
26 19 26 11z m720 -21 c0 -2 -9 0 -20 6 -11 6 -20 13 -20 16 0 2 9 0 20 -6 11
-6 20 -13 20 -16z m-776 -16 c-3 -5 -12 -4 -20 3 -19 16 -18 18 6 12 11 -3 17
-9 14 -15z m816 7 c-7 -8 -17 -12 -23 -8 -6 4 -3 9 9 14 27 11 28 11 14 -6z
m-1223 -72 c-3 -10 -5 -4 -5 12 0 17 2 24 5 18 2 -7 2 -21 0 -30z m0 -65 c-3
-7 -5 -2 -5 12 0 14 2 19 5 13 2 -7 2 -19 0 -25z m0 -40 c-3 -8 -6 -5 -6 6 -1
11 2 17 5 13 3 -3 4 -12 1 -19z m110 -118 c57 -32 97 -49 105 -44 10 6 10 5 2
-7 -7 -8 -14 -23 -17 -34 -4 -17 -5 -16 -6 5 -1 21 -18 34 -97 79 -87 49 -97
53 -122 41 l-27 -12 25 24 c18 17 28 20 35 12 6 -6 51 -35 102 -64z m1111 58
c11 -14 10 -16 -7 -11 -12 3 -17 11 -14 19 3 8 6 14 7 12 1 -2 7 -11 14 -20z
m-758 -34 c0 -3 -14 3 -31 11 -17 9 -38 14 -46 10 -13 -4 -14 -3 -4 9 11 13
17 12 47 -6 19 -11 34 -22 34 -24z m344 37 c3 -5 -3 -11 -15 -14 -16 -4 -18
-3 -8 9 13 16 16 17 23 5z m76 -47 c0 -2 -13 2 -30 11 -16 9 -30 18 -30 21 0
2 14 -2 30 -11 17 -9 30 -18 30 -21z m300 31 c0 -2 -13 -11 -30 -20 -38 -19
-40 -11 -2 9 31 17 32 18 32 11z m-820 -10 c0 -2 -10 -9 -22 -15 -22 -11 -22
-10 -4 4 21 17 26 19 26 11z m940 -31 c0 -2 -13 2 -30 11 -16 9 -30 18 -30 21
0 2 14 -2 30 -11 17 -9 30 -18 30 -21z m-1360 21 c0 -2 -10 -9 -22 -15 -22
-11 -22 -10 -4 4 21 17 26 19 26 11z m800 0 c0 -2 -10 -9 -22 -15 -22 -11 -22
-10 -4 4 21 17 26 19 26 11z m-210 -41 c0 -2 -9 0 -20 6 -11 6 -20 13 -20 16
0 2 9 0 20 -6 11 -6 20 -13 20 -16z m420 -10 c0 -2 -13 2 -30 11 -16 9 -30 18
-30 21 0 2 14 -2 30 -11 17 -9 30 -18 30 -21z m160 31 c0 -2 -13 -11 -30 -20
-38 -19 -40 -11 -2 9 31 17 32 18 32 11z m-1220 -10 c0 -2 -13 -11 -30 -20
-38 -19 -40 -11 -2 9 31 17 32 18 32 11z m400 0 c0 -2 -13 -11 -30 -20 -38
-19 -40 -11 -2 9 31 17 32 18 32 11z m400 0 c0 -2 -10 -9 -22 -15 -22 -11 -22
-10 -4 4 21 17 26 19 26 11z m660 -21 c0 -2 -9 0 -20 6 -11 6 -20 13 -20 16 0
2 9 0 20 -6 11 -6 20 -13 20 -16z m-727 -14 c21 11 21 10 3 -4 -11 -9 -23 -16
-26 -16 -3 0 -15 7 -26 16 -18 14 -18 15 4 4 16 -8 28 -8 45 0z m400 0 c21 11
21 10 3 -4 -11 -9 -23 -16 -26 -16 -3 0 -15 7 -26 16 -18 14 -18 15 4 4 16 -8
28 -8 45 0z"/>
<path d="M1610 1966 c0 -33 4 -37 95 -91 l95 -56 98 55 c92 53 97 57 99 91 l3
35 -195 0 -195 0 0 -34z"/>
<path d="M1902 1863 l-93 -55 3 -116 3 -116 90 -52 90 -53 3 109 c1 60 1 160
0 223 l-3 115 -93 -55z"/>
<path d="M1898 467 l-88 -52 0 -110 c0 -60 -4 -115 -8 -121 -4 -6 -49 -34 -99
-63 -89 -50 -93 -54 -93 -87 l0 -34 189 0 c142 0 190 3 193 13 9 23 10 507 1
506 -4 0 -47 -24 -95 -52z m-44 -308 c-3 -5 -10 -7 -15 -3 -5 3 -7 10 -3 15 3
5 10 7 15 3 5 -3 7 -10 3 -15z m70 -41 c-5 -7 -11 -6 -19 5 -7 9 -16 13 -20 9
-5 -4 -5 -1 -1 6 5 9 12 9 27 2 11 -6 16 -16 13 -22z m56 -30 c10 -21 10 -21
-3 -6 -8 10 -18 14 -22 10 -5 -4 -5 -1 -1 6 10 17 14 15 26 -10z"/>
</g>
</svg>
