<?xml version="1.0" standalone="no"?>
<!DOCTYPE svg PUBLIC "-//W3C//DTD SVG 20010904//EN"
 "http://www.w3.org/TR/2001/REC-SVG-20010904/DTD/svg10.dtd">
<svg version="1.0" xmlns="http://www.w3.org/2000/svg"
 width="200.000000pt" height="200.000000pt" viewBox="0 0 200.000000 200.000000"
 preserveAspectRatio="xMidYMid meet">
<metadata>
Created by potrace 1.16, written by Peter Selinger 2001-2019
</metadata>
<g transform="translate(0.000000,200.000000) scale(0.100000,-0.100000)"
fill="#000000" stroke="none">
<path d="M0 1866 c0 -106 3 -136 15 -146 8 -7 15 -20 15 -30 0 -10 -7 -20 -15
-24 -13 -5 -15 -49 -15 -315 0 -301 1 -310 20 -316 28 -9 28 -61 0 -70 -19 -6
-20 -15 -20 -320 0 -241 3 -314 13 -318 9 -4 9 -6 0 -6 -17 -1 -17 -28 0 -34
9 -4 9 -6 0 -6 -10 -1 -13 -36 -13 -140 l0 -140 133 0 132 0 -33 21 c-33 20
-35 21 -64 4 -16 -10 -32 -16 -35 -13 -6 6 50 37 67 37 6 0 28 -11 50 -25 35
-22 51 -25 130 -25 79 0 90 2 90 18 0 10 24 31 63 54 l62 37 60 -34 c33 -18
64 -42 70 -54 8 -17 19 -21 57 -21 46 0 48 1 48 28 0 24 10 34 81 75 44 26 84
47 88 47 5 0 45 -21 90 -47 70 -42 81 -51 81 -75 0 -44 28 -36 32 9 3 36 7 40
101 95 l97 57 88 -51 c48 -28 92 -51 97 -51 6 0 54 25 108 56 54 32 103 57
108 57 5 0 9 49 9 109 l0 109 95 54 95 53 0 115 0 115 -48 27 c-26 15 -70 41
-98 57 l-51 30 -101 -58 -100 -58 -111 64 -111 65 -90 -52 -90 -52 -93 54 -92
53 0 115 0 115 93 53 92 54 90 -52 90 -51 110 63 109 63 3 109 3 110 85 48
c47 27 90 54 95 60 12 13 -20 -3 -107 -53 -36 -22 -71 -39 -77 -39 -5 0 -50
24 -100 53 l-91 52 0 110 0 110 88 50 c48 28 93 51 99 53 7 2 51 -19 98 -47
l86 -51 109 63 c104 59 110 64 110 95 0 22 -5 32 -15 32 -11 0 -14 -7 -10 -23
7 -28 -1 -36 -100 -92 l-74 -43 -86 50 c-76 44 -85 53 -85 79 0 27 -3 29 -39
29 -33 0 -40 -4 -43 -22 -2 -15 -25 -35 -75 -65 l-73 -43 -72 43 c-51 30 -74
50 -76 65 -3 20 -9 22 -67 22 -51 0 -64 -3 -68 -17 -2 -10 -30 -31 -61 -48
l-56 -29 -56 29 c-31 17 -59 38 -61 48 -5 14 -18 17 -94 17 -80 0 -93 -3 -140
-31 l-52 -30 -49 30 c-48 30 -52 31 -178 31 -77 0 -139 -5 -155 -12 -19 -9
-28 -9 -37 0 -7 7 -45 12 -95 12 l-83 0 0 -134z m1280 -32 l80 -47 0 -92 0
-93 -79 -46 -79 -46 -81 46 -81 46 0 93 0 93 78 45 c42 25 78 45 80 46 1 1 38
-20 82 -45z m-416 -36 l56 -32 0 -71 0 -70 -54 -33 c-30 -17 -59 -32 -65 -32
-6 0 -36 14 -66 31 l-55 31 0 72 0 71 53 32 c28 18 57 32 64 33 6 0 36 -14 67
-32z m-419 -39 c34 -20 36 -24 33 -66 -3 -39 -7 -47 -41 -66 l-38 -22 -37 22
c-33 18 -37 26 -40 66 -3 41 0 46 30 66 41 26 48 26 93 0z m1035 -254 c43 -25
83 -52 89 -59 8 -9 11 -48 9 -107 l-3 -93 -83 -48 c-46 -26 -87 -48 -92 -48
-22 0 -170 94 -171 109 -3 79 2 186 10 194 8 8 148 93 159 96 2 1 38 -19 82
-44z m-407 -32 l66 -38 1 -87 0 -86 -71 -41 -71 -41 -69 41 c-49 30 -69 47
-70 63 -4 72 0 151 7 154 5 1 34 18 64 37 30 18 60 34 66 34 6 1 41 -16 77
-36z m-417 -34 l54 -30 0 -60 c0 -57 -1 -59 -37 -82 -77 -48 -74 -48 -131 -14
l-53 32 3 64 3 65 45 27 c25 15 49 28 54 28 5 1 33 -13 62 -30z m-403 -47 c9
-9 17 -29 17 -48 0 -26 -7 -36 -36 -54 -35 -22 -36 -22 -70 -4 -30 17 -34 23
-34 60 0 36 4 45 32 62 34 22 51 18 91 -16z m626 -263 l71 -41 0 -88 0 -88
-69 -41 c-38 -22 -75 -41 -81 -41 -6 0 -43 19 -81 41 l-69 41 0 88 0 88 68 40
c37 23 72 41 79 42 6 0 43 -18 82 -41z m-425 -45 l47 -26 -3 -60 -3 -59 -49
-27 -48 -27 -47 26 -46 26 -3 61 -3 60 43 26 c53 32 55 32 112 0z m1432 -281
l84 -48 0 -102 0 -101 -80 -46 c-43 -25 -84 -46 -89 -46 -5 0 -46 21 -91 47
l-81 48 3 99 3 100 80 47 c44 26 82 48 84 48 2 1 41 -20 87 -46z m-410 -25
l74 -42 0 -83 0 -82 -68 -41 c-38 -22 -74 -40 -81 -40 -7 0 -44 18 -82 41
l-70 40 3 82 3 82 70 42 c38 24 71 43 73 43 3 0 38 -19 78 -42z m-417 -23 l61
-36 0 -65 0 -64 -55 -35 c-30 -19 -58 -35 -64 -35 -5 0 -35 15 -65 32 l-57 33
3 69 3 70 55 32 c30 18 56 33 57 34 1 0 29 -16 62 -35z m-414 -28 c36 -20 40
-27 43 -65 4 -50 -7 -66 -57 -92 -36 -18 -37 -18 -79 7 -40 24 -42 27 -42 74
0 45 3 50 37 74 46 30 48 30 98 2z m-395 -74 c0 -23 -7 -37 -24 -48 -22 -15
-27 -15 -55 0 -42 21 -44 72 -3 96 24 15 30 15 55 0 21 -12 27 -23 27 -48z
m1436 -200 l84 -48 0 -100 -1 -100 -84 -48 -84 -48 -86 51 -86 51 3 97 3 96
80 47 c44 26 82 48 84 48 2 1 41 -20 87 -46z m-411 -30 l65 -38 0 -80 0 -80
-66 -37 c-36 -21 -71 -38 -78 -37 -6 0 -38 17 -71 38 l-60 38 0 79 0 79 60 37
c33 20 66 37 73 37 7 1 42 -16 77 -36z m-421 -29 l46 -26 0 -63 0 -63 -52 -27
-53 -27 -49 28 c-53 31 -51 27 -47 133 1 18 72 70 97 71 6 0 32 -12 58 -26z
m-424 -29 c26 -14 30 -21 30 -58 0 -37 -4 -45 -30 -61 -30 -17 -32 -17 -63 1
-25 15 -33 26 -35 56 -3 32 1 39 30 57 39 24 32 23 68 5z"/>
<path d="M1130 1822 l-65 -38 0 -89 0 -89 67 -39 68 -39 75 42 75 41 0 83 0
82 -73 42 c-40 23 -75 42 -78 42 -2 0 -33 -17 -69 -38z"/>
<path d="M743 1788 l-53 -30 0 -63 0 -63 55 -31 56 -32 54 33 55 33 0 61 0 61
-52 29 c-29 16 -55 30 -58 31 -3 1 -29 -12 -57 -29z"/>
<path d="M363 1753 c-29 -15 -33 -21 -33 -58 0 -36 4 -43 34 -59 31 -16 36
-17 64 -2 40 21 45 30 38 72 -5 24 -15 38 -36 49 -16 8 -30 15 -32 14 -2 0
-18 -8 -35 -16z"/>
<path d="M1318 1484 l-78 -45 0 -92 0 -92 81 -46 81 -47 79 46 79 47 0 92 0
93 -77 45 c-43 25 -80 45 -83 45 -3 0 -40 -21 -82 -46z"/>
<path d="M928 1457 l-58 -32 0 -77 0 -77 65 -36 64 -36 66 36 66 37 -3 76 -3
76 -55 33 c-30 18 -62 33 -70 33 -8 -1 -41 -15 -72 -33z"/>
<path d="M550 1431 c-44 -26 -45 -29 -48 -82 l-3 -54 48 -29 48 -29 45 25 c45
25 45 26 48 84 l3 59 -48 26 -48 26 -45 -26z"/>
<path d="M163 1398 c-18 -9 -23 -20 -23 -49 0 -33 5 -41 30 -54 29 -15 32 -15
60 5 41 30 42 74 0 95 -33 17 -37 17 -67 3z"/>
<path d="M728 1118 l-68 -40 0 -78 0 -78 70 -41 70 -40 70 40 70 41 0 78 0 78
-71 41 c-39 23 -71 41 -72 40 -1 0 -32 -19 -69 -41z"/>
<path d="M353 1074 c-41 -24 -43 -27 -43 -74 0 -48 1 -50 45 -75 l44 -26 46
26 c43 26 45 28 45 75 0 46 -2 49 -44 74 -25 14 -46 26 -48 26 -2 0 -22 -12
-45 -26z"/>
<path d="M1723 788 l-73 -42 0 -93 0 -93 76 -44 75 -44 80 45 80 46 -3 90 -3
91 -70 42 c-38 24 -74 43 -80 43 -5 0 -43 -18 -82 -41z"/>
<path d="M1328 764 l-58 -35 0 -78 0 -77 66 -37 66 -37 64 37 64 37 0 77 0 78
-59 35 c-32 20 -65 36 -72 35 -8 0 -40 -16 -71 -35z"/>
<path d="M940 741 c-44 -27 -45 -28 -48 -87 l-3 -59 56 -32 55 -32 48 28 47
27 3 65 3 65 -49 27 c-28 15 -54 27 -58 26 -5 0 -29 -13 -54 -28z"/>
<path d="M557 718 c-36 -21 -38 -25 -35 -68 3 -40 7 -47 40 -65 36 -19 36 -19
72 0 33 18 36 23 36 66 0 43 -3 49 -36 68 -19 12 -36 21 -37 21 -1 0 -19 -10
-40 -22z"/>
<path d="M168 689 c-28 -16 -23 -63 7 -77 34 -16 65 3 65 38 0 44 -33 62 -72
39z"/>
<path d="M1523 438 l-73 -42 0 -91 0 -90 74 -43 c40 -23 76 -42 79 -42 3 0 38
19 79 43 l73 44 0 88 0 88 -73 44 c-41 24 -77 43 -80 43 -4 0 -40 -19 -79 -42z"/>
<path d="M1138 413 l-58 -35 0 -73 0 -73 60 -35 60 -36 60 35 c33 19 60 38 61
42 1 11 1 115 0 129 -1 9 -116 86 -124 82 -1 0 -28 -17 -59 -36z"/>
<path d="M753 384 c-42 -25 -43 -27 -43 -79 0 -52 1 -53 45 -79 l45 -27 45 27
c44 26 45 27 45 79 0 52 -1 54 -44 79 -25 14 -46 26 -48 26 -2 -1 -22 -12 -45
-26z"/>
<path d="M368 352 c-40 -24 -39 -71 2 -95 28 -17 31 -17 55 -1 35 23 35 75 0
98 -29 19 -24 19 -57 -2z"/>
<path d="M188 1993 c7 -3 16 -2 19 1 4 3 -2 6 -13 5 -11 0 -14 -3 -6 -6z"/>
<path d="M530 1996 c0 -2 15 -13 34 -24 l34 -20 38 24 39 23 -72 1 c-40 0 -73
-2 -73 -4z"/>
<path d="M890 1991 c0 -5 24 -24 54 -41 l55 -31 55 32 c31 17 56 35 56 40 0 5
-49 9 -110 9 -61 0 -110 -4 -110 -9z"/>
<path d="M1270 1981 c0 -13 20 -31 65 -56 l65 -36 65 36 c45 25 65 43 65 56 0
18 -9 19 -130 19 -121 0 -130 -1 -130 -19z"/>
<path d="M1640 1976 c0 -19 15 -32 81 -70 l82 -46 76 44 c61 35 77 49 79 70
l3 26 -160 0 -161 0 0 -24z"/>
<path d="M1897 1859 l-88 -51 3 -115 3 -116 85 -48 c47 -27 88 -49 93 -49 4 0
7 97 7 215 0 118 -3 215 -7 215 -5 0 -48 -23 -96 -51z"/>
<path d="M1508 1844 l-78 -46 0 -103 0 -103 86 -50 86 -49 89 50 89 51 0 101
0 100 -84 48 c-46 26 -90 47 -97 47 -8 -1 -49 -21 -91 -46z"/>
<path d="M0 1695 c0 -15 4 -24 10 -20 5 3 10 12 10 20 0 8 -4 17 -10 20 -6 4
-10 -5 -10 -20z"/>
<path d="M1712 1507 l-92 -52 0 -107 0 -106 89 -51 c48 -28 91 -51 94 -51 3 0
46 24 94 53 l88 52 -1 80 c-1 44 -2 92 -3 107 -1 22 -13 33 -68 64 -38 20 -77
43 -88 50 -18 12 -31 7 -113 -39z"/>
<path d="M1503 1171 l-98 -57 -3 -112 -3 -111 38 -24 c21 -13 67 -40 103 -60
l65 -35 93 55 93 55 -3 120 -3 120 -92 53 -91 53 -99 -57z"/>
<path d="M1905 1172 l-80 -48 -3 -124 -2 -125 84 -47 c46 -27 86 -48 90 -48 3
0 6 99 6 220 0 121 -3 220 -7 220 -5 -1 -44 -22 -88 -48z"/>
<path d="M1104 1149 l-82 -49 0 -100 -1 -100 68 -39 c118 -70 106 -69 201 -14
l85 49 0 104 0 104 -83 48 c-46 26 -89 48 -95 47 -7 0 -49 -23 -93 -50z"/>
<path d="M0 1000 c0 -21 4 -30 12 -27 17 5 17 49 1 55 -9 2 -13 -7 -13 -28z"/>
<path d="M1910 457 l-85 -52 3 -100 c1 -55 6 -103 10 -106 4 -4 42 -28 85 -53
l77 -45 0 204 c0 113 -1 205 -2 204 -2 0 -41 -24 -88 -52z"/>
<path d="M1696 126 c-83 -49 -89 -55 -93 -89 l-4 -37 196 0 195 0 0 39 c0 39
-1 40 -89 90 -48 28 -95 51 -102 51 -8 -1 -54 -25 -103 -54z"/>
<path d="M1308 118 c-83 -48 -88 -52 -88 -84 l0 -34 180 0 180 0 0 33 c0 31
-6 36 -89 85 -49 29 -91 52 -93 51 -2 0 -42 -23 -90 -51z"/>
<path d="M915 87 c-48 -29 -71 -49 -73 -65 -3 -22 -3 -22 152 -22 l156 0 0 25
c0 19 -13 32 -69 65 -38 22 -76 40 -83 40 -8 0 -45 -19 -83 -43z"/>
<path d="M538 57 c-87 -48 -78 -57 57 -57 135 0 146 11 61 59 -29 17 -55 31
-57 31 -2 0 -30 -15 -61 -33z"/>
</g>
</svg>
