<?xml version="1.0" standalone="no"?>
<!DOCTYPE svg PUBLIC "-//W3C//DTD SVG 20010904//EN"
 "http://www.w3.org/TR/2001/REC-SVG-20010904/DTD/svg10.dtd">
<svg version="1.0" xmlns="http://www.w3.org/2000/svg"
 width="200.000000pt" height="200.000000pt" viewBox="0 0 200.000000 200.000000"
 preserveAspectRatio="xMidYMid meet">
<metadata>
Created by potrace 1.16, written by Peter Selinger 2001-2019
</metadata>
<g transform="translate(0.000000,200.000000) scale(0.100000,-0.100000)"
fill="#000000" stroke="none">
<path d="M0 1965 c0 -30 5 -39 31 -53 52 -29 67 -45 17 -19 l-48 26 0 -225 c0
-177 3 -224 13 -218 10 6 10 4 0 -7 -9 -9 -13 -49 -13 -124 l0 -111 100 -58
c56 -32 99 -60 97 -63 -2 -2 -47 21 -98 51 l-94 54 -3 -109 c-1 -60 -1 -158 0
-218 l3 -109 90 52 90 52 6 110 5 109 2 -112 2 -111 -100 -58 -100 -59 0 -110
c0 -75 4 -115 13 -124 9 -11 9 -13 0 -7 -10 6 -13 -49 -13 -258 l0 -266 195 0
195 0 0 40 c0 22 -4 40 -8 40 -5 0 -17 7 -28 15 -17 14 -15 14 14 0 32 -15 33
-15 125 38 l92 53 3 113 c2 76 -1 118 -9 127 -10 12 -9 13 5 8 10 -4 51 13
109 46 50 29 93 54 95 56 2 1 5 51 7 111 3 90 1 111 -13 127 -16 18 -16 18 6
5 21 -13 22 -20 22 -126 l0 -112 95 -56 c63 -37 95 -62 94 -73 0 -11 -2 -12
-6 -4 -3 7 -47 37 -98 67 l-93 55 -89 -51 c-48 -27 -93 -56 -98 -64 -6 -7 -10
-39 -9 -71 2 -33 3 -80 3 -106 l1 -47 95 -56 95 -56 1 -42 c0 -33 2 -38 9 -22
7 17 9 17 9 3 1 -16 16 -18 180 -18 134 0 181 3 184 13 4 9 6 9 6 0 1 -7 10
-13 20 -13 15 0 21 8 24 33 l4 32 1 -32 2 -33 159 0 c118 0 161 3 164 13 4 9
6 9 6 0 1 -19 367 -19 374 0 4 9 6 9 6 0 1 -7 12 -13 26 -13 l25 0 0 1000 0
1000 -169 0 c-168 0 -170 0 -174 -22 l-4 -23 -2 23 c-1 18 -7 22 -35 22 -19 0
-37 -6 -39 -12 -4 -10 -6 -10 -6 0 -1 9 -125 12 -586 12 l-585 0 0 -34 c0 -23
7 -38 23 -50 22 -16 22 -16 -5 -4 -24 9 -28 17 -28 50 l0 38 -195 0 -195 0 0
-35z m1227 3 c-3 -8 -6 -5 -6 6 -1 11 2 17 5 13 3 -3 4 -12 1 -19z m-419 -13
c-3 -14 -1 -25 3 -25 5 0 30 -13 56 -29 27 -16 70 -40 97 -54 l48 -26 -1 -120
c-2 -104 0 -121 15 -129 10 -5 19 -17 20 -26 2 -13 -2 -14 -17 -6 -10 6 -18
16 -16 23 1 7 -2 11 -8 10 -6 -1 -9 40 -7 110 1 62 -1 117 -5 123 -5 6 -50 35
-100 64 l-92 52 -105 -60 c-89 -51 -107 -58 -117 -46 -10 12 -9 13 5 8 10 -4
51 13 109 46 50 29 93 54 95 56 3 2 9 28 11 47 1 4 4 7 7 7 4 0 4 -11 2 -25z
m902 -31 c0 -2 -9 0 -20 6 -11 6 -20 13 -20 16 0 2 9 0 20 -6 11 -6 20 -13 20
-16z m-523 1 c0 -8 -4 -12 -9 -9 -5 3 -6 10 -3 15 9 13 12 11 12 -6z m-807
-10 c0 -2 -10 -9 -22 -15 -22 -11 -22 -10 -4 4 21 17 26 19 26 11z m775 -21
c-10 -7 -22 -11 -28 -7 -6 3 -3 11 8 19 10 7 22 11 28 7 6 -3 3 -11 -8 -19z
m115 -10 c0 -2 -9 0 -20 6 -11 6 -20 13 -20 16 0 2 9 0 20 -6 11 -6 20 -13 20
-16z m60 0 c0 -2 -9 0 -20 6 -11 6 -20 13 -20 16 0 2 9 0 20 -6 11 -6 20 -13
20 -16z m180 21 c0 -2 -10 -9 -22 -15 -22 -11 -22 -10 -4 4 21 17 26 19 26 11z
m99 1 c-2 -2 -15 -9 -29 -15 -24 -11 -24 -11 -6 3 16 13 49 24 35 12z m171
-22 c0 -2 -9 0 -20 6 -11 6 -20 13 -20 16 0 2 9 0 20 -6 11 -6 20 -13 20 -16z
m-1225 -47 c6 -6 -12 2 -40 18 -27 15 -54 32 -60 38 -5 6 13 -2 40 -18 28 -15
55 -32 60 -38z m-225 48 c0 -2 -13 -11 -30 -20 -38 -19 -40 -11 -2 9 31 17 32
18 32 11z m786 -7 c4 -6 3 -8 -3 -5 -6 4 -14 0 -17 -9 -3 -8 -11 -12 -17 -8
-9 5 -6 11 6 21 23 16 22 16 31 1z m709 2 c-3 -5 -14 -10 -23 -9 -14 0 -13 2
3 9 27 11 27 11 20 0z m-1685 -36 c0 -2 -9 0 -20 6 -11 6 -20 13 -20 16 0 2 9
0 20 -6 11 -6 20 -13 20 -16z m1200 0 c0 -2 -9 0 -20 6 -11 6 -20 13 -20 16 0
2 9 0 20 -6 11 -6 20 -13 20 -16z m83 16 c21 11 21 10 3 -4 -11 -9 -23 -16
-26 -16 -3 0 -15 7 -26 16 -18 14 -18 15 4 4 16 -8 28 -8 45 0z m107 5 c0 -2
-10 -9 -22 -15 -22 -11 -22 -10 -4 4 21 17 26 19 26 11z m200 -31 c0 -2 -9 0
-20 6 -11 6 -20 13 -20 16 0 2 9 0 20 -6 11 -6 20 -13 20 -16z m230 21 c0 -2
-13 -11 -30 -20 -38 -19 -40 -11 -2 9 31 17 32 18 32 11z m-1700 -10 c0 -2
-13 -11 -30 -20 -29 -15 -30 -17 -32 -98 l-2 -82 -3 80 c-3 68 -7 83 -26 98
l-22 18 26 -12 c21 -9 32 -8 55 5 33 17 34 18 34 11z m784 -3 c3 -5 -1 -9 -9
-9 -8 0 -12 4 -9 9 3 4 7 8 9 8 2 0 6 -4 9 -8z m436 -7 c0 -2 -13 -11 -30 -20
-38 -19 -40 -11 -2 9 31 17 32 18 32 11z m308 -139 l-2 -111 -3 104 c-2 58 -9
111 -15 118 -8 11 -7 12 6 7 14 -5 16 -22 14 -118z m-371 52 c-3 -7 -5 -2 -5
12 0 14 2 19 5 13 2 -7 2 -19 0 -25z m-1151 -204 c35 -20 64 -38 64 -41 0 -2
-30 12 -66 32 -58 32 -70 36 -93 26 -26 -11 -26 -11 -3 5 14 10 23 28 24 48
l1 31 4 -32 c4 -28 13 -38 69 -69z m1194 19 c0 -7 -39 17 -46 28 -3 6 5 3 20
-6 14 -10 26 -19 26 -22z m-759 -39 c54 -31 102 -53 107 -50 5 3 9 -1 9 -9 0
-8 -4 -12 -9 -9 -4 3 -9 -10 -9 -28 l-2 -33 -6 35 c-5 31 -15 39 -99 88 l-93
53 -100 -56 -99 -56 0 -108 c0 -72 4 -111 13 -120 10 -10 8 -11 -7 -5 -15 6
-17 4 -11 -6 5 -7 4 -11 -1 -8 -5 4 -8 62 -6 130 l3 123 97 57 c53 31 101 57
106 57 5 1 54 -24 107 -55z m274 20 c-10 -7 -22 -11 -28 -7 -6 3 -3 11 8 19
10 7 22 11 28 7 6 -3 3 -11 -8 -19z m-835 1 c0 -2 -10 -9 -22 -15 -22 -11 -22
-10 -4 4 21 17 26 19 26 11z m977 -39 c0 -11 -5 -13 -19 -5 -10 6 -15 15 -12
21 5 7 2 9 -8 6 -8 -4 -15 0 -15 7 0 12 5 11 27 0 15 -8 27 -21 27 -29z m223
39 c0 -2 -10 -9 -22 -15 -22 -11 -22 -10 -4 4 21 17 26 19 26 11z m190 -21 c0
-2 -9 0 -20 6 -11 6 -20 13 -20 16 0 2 9 0 20 -6 11 -6 20 -13 20 -16z m-140
11 c0 -2 -10 -9 -22 -15 -22 -11 -22 -10 -4 4 21 17 26 19 26 11z m-474 -17
c4 -6 3 -8 -3 -5 -6 4 -14 0 -17 -9 -3 -8 -11 -12 -17 -8 -9 5 -6 11 6 21 23
16 22 16 31 1z m-826 -3 c0 -2 -13 -11 -30 -20 -38 -19 -40 -11 -2 9 31 17 32
18 32 11z m1750 -21 c0 -2 -9 0 -20 6 -11 6 -20 13 -20 16 0 2 9 0 20 -6 11
-6 20 -13 20 -16z m-570 11 c0 -2 -10 -9 -22 -15 -22 -11 -22 -10 -4 4 21 17
26 19 26 11z m70 0 c0 -2 -10 -9 -22 -15 -22 -11 -22 -10 -4 4 21 17 26 19 26
11z m269 -21 c14 -12 -19 -1 -35 12 -18 14 -18 14 6 3 14 -6 27 -13 29 -15z
m-1229 -10 c0 -2 -9 0 -20 6 -11 6 -20 13 -20 16 0 2 9 0 20 -6 11 -6 20 -13
20 -16z m785 17 c3 -5 2 -12 -3 -15 -5 -3 -9 1 -9 9 0 17 3 19 12 6z m605 4
c0 -2 -10 -9 -22 -15 -22 -11 -22 -10 -4 4 21 17 26 19 26 11z m-925 -14 c3
-5 2 -12 -3 -15 -5 -3 -9 1 -9 9 0 17 3 19 12 6z m361 -16 c-8 -7 -17 -32 -19
-61 -4 -45 -4 -44 -4 11 0 53 3 61 19 61 17 0 17 -2 4 -11z m473 -28 c-13 -13
-26 -21 -29 -19 -5 4 38 42 48 42 3 0 -6 -10 -19 -23z m-442 -69 c-3 -8 -6 -5
-6 6 -1 11 2 17 5 13 3 -3 4 -12 1 -19z m-440 -35 c-3 -10 -5 -2 -5 17 0 19 2
27 5 18 2 -10 2 -26 0 -35z m20 -5 c-3 -7 -5 -2 -5 12 0 14 2 19 5 13 2 -7 2
-19 0 -25z m840 -5 c-3 -10 -5 -4 -5 12 0 17 2 24 5 18 2 -7 2 -21 0 -30z
m-420 5 c-3 -8 -6 -5 -6 6 -1 11 2 17 5 13 3 -3 4 -12 1 -19z m-51 -83 c-3 -8
-15 -19 -28 -25 l-23 -11 23 17 c17 13 22 27 24 68 l1 51 4 -44 c3 -24 2 -49
-1 -56z m764 30 c0 -8 -10 -19 -22 -25 -21 -10 -21 -10 -5 3 9 8 17 19 17 26
0 6 2 11 5 11 3 0 5 -7 5 -15z m-1153 -17 c-3 -8 -6 -5 -6 6 -1 11 2 17 5 13
3 -3 4 -12 1 -19z m473 -27 c12 -12 10 -11 -9 0 -14 9 -27 22 -29 30 -3 11 -2
11 9 -1 8 -8 21 -21 29 -29z m300 15 c0 -2 -7 -7 -16 -10 -8 -3 -12 -2 -9 4 6
10 25 14 25 6z m-735 -16 c3 -6 -1 -7 -9 -4 -18 7 -21 14 -7 14 6 0 13 -4 16
-10z m1065 5 c0 -2 -10 -9 -22 -15 -22 -11 -22 -10 -4 4 21 17 26 19 26 11z
m-140 -31 c0 -2 -9 0 -20 6 -11 6 -20 13 -20 16 0 2 9 0 20 -6 11 -6 20 -13
20 -16z m-1385 -4 c-3 -5 -13 -6 -22 -3 -11 4 -14 2 -9 -5 7 -12 -47 -46 -57
-35 -11 11 3 22 20 16 11 -4 14 -3 9 5 -5 8 -1 10 10 5 11 -4 15 -3 10 5 -3 6
1 15 11 21 19 10 37 5 28 -9z m70 11 c3 -5 2 -12 -3 -15 -5 -3 -9 1 -9 9 0 17
3 19 12 6z m465 -27 c0 -2 -13 2 -30 11 -16 9 -30 18 -30 21 0 2 14 -2 30 -11
17 -9 30 -18 30 -21z m-160 21 c0 -2 -10 -9 -22 -15 -22 -11 -22 -10 -4 4 21
17 26 19 26 11z m380 0 c0 -2 -10 -9 -22 -15 -22 -11 -22 -10 -4 4 21 17 26
19 26 11z m720 0 c0 -2 -10 -9 -22 -15 -22 -11 -22 -10 -4 4 21 17 26 19 26
11z m-1383 -20 c0 -8 -4 -12 -9 -9 -5 3 -6 10 -3 15 9 13 12 11 12 -6z m343
11 c0 -2 -9 -6 -20 -9 -11 -3 -18 -1 -14 4 5 9 34 13 34 5z m985 -14 c-3 -3
-11 0 -18 7 -9 10 -8 11 6 5 10 -3 15 -9 12 -12z m-335 3 c0 -2 -10 -9 -22
-15 -22 -11 -22 -10 -4 4 21 17 26 19 26 11z m-946 -27 c-5 -7 -2 -9 8 -6 8 4
15 0 15 -8 0 -19 -30 -1 -33 20 -1 9 2 14 7 10 5 -3 6 -10 3 -16z m366 -4 c0
-2 -9 0 -20 6 -11 6 -20 13 -20 16 0 2 9 0 20 -6 11 -6 20 -13 20 -16z m-200
11 c0 -2 -10 -9 -22 -15 -22 -11 -22 -10 -4 4 21 17 26 19 26 11z m380 0 c0
-2 -10 -9 -22 -15 -22 -11 -22 -10 -4 4 21 17 26 19 26 11z m185 -5 c3 -6 -1
-7 -9 -4 -18 7 -21 14 -7 14 6 0 13 -4 16 -10z m-971 -9 c3 -5 -9 -18 -27 -29
-25 -14 -34 -16 -34 -6 0 7 4 11 8 9 4 -3 9 2 13 10 3 9 12 12 22 8 12 -4 15
-3 10 5 -4 7 -5 12 -2 12 3 0 7 -4 10 -9z m456 5 c0 -2 -7 -7 -16 -10 -8 -3
-12 -2 -9 4 6 10 25 14 25 6z m879 0 c-2 -2 -15 -9 -29 -15 -24 -11 -24 -11
-6 3 16 13 49 24 35 12z m-1044 -15 c3 -5 2 -12 -3 -15 -5 -3 -9 1 -9 9 0 17
3 19 12 6z m60 -11 c-3 -5 -12 -10 -18 -10 -7 0 -6 4 3 10 19 12 23 12 15 0z
m325 -16 c0 -2 -9 0 -20 6 -11 6 -20 13 -20 16 0 2 9 0 20 -6 11 -6 20 -13 20
-16z m730 0 c0 -2 -9 0 -20 6 -11 6 -20 13 -20 16 0 2 9 0 20 -6 11 -6 20 -13
20 -16z m-1093 -61 l0 -78 -6 70 c-6 64 -5 85 3 85 2 0 3 -35 3 -77z m503 62
c0 -2 -10 -9 -22 -15 -22 -11 -22 -10 -4 4 21 17 26 19 26 11z m-455 -114 c0
-60 -3 -107 -7 -104 -15 9 -9 213 6 213 1 0 1 -49 1 -109z m343 58 c-3 -33 -4
-33 -8 8 -3 23 -2 39 3 34 5 -5 7 -24 5 -42z m381 17 c0 -14 -2 -16 -6 -6 -3
8 -10 21 -16 28 -7 9 -6 11 7 6 9 -3 16 -16 15 -28z m380 8 c14 -12 -19 -1
-35 12 -18 14 -18 14 6 3 14 -6 27 -13 29 -15z m201 11 c0 -2 -10 -9 -22 -15
-22 -11 -22 -10 -4 4 21 17 26 19 26 11z m-469 -47 c-4 -35 -6 -38 -9 -15 -3
26 3 57 10 57 2 0 1 -19 -1 -42z m-424 -20 c-2 -13 -4 -5 -4 17 -1 22 1 32 4
23 2 -10 2 -28 0 -40z m310 -10 c-3 -7 -5 -2 -5 12 0 14 2 19 5 13 2 -7 2 -19
0 -25z m-380 -60 c-2 -13 -4 -3 -4 22 0 25 2 35 4 23 2 -13 2 -33 0 -45z m86
-58 c11 -13 10 -13 -5 -1 -13 10 -18 26 -16 60 l1 46 4 -45 c3 -24 10 -51 16
-60z m409 48 c2 -20 0 -34 -4 -32 -4 3 -8 24 -7 47 1 47 6 41 11 -15z m-883
-27 c-2 -28 -6 -48 -11 -45 -4 3 -8 0 -8 -6 0 -6 -5 -8 -11 -4 -8 5 -6 10 5
16 10 6 16 22 16 48 0 22 2 40 5 40 4 0 5 -22 4 -49z m768 27 c-3 -8 -6 -5 -6
6 -1 11 2 17 5 13 3 -3 4 -12 1 -19z m554 -25 c13 -16 12 -17 -3 -4 -17 13
-22 21 -14 21 2 0 10 -8 17 -17z m-556 -13 c-3 -5 -16 -15 -28 -21 -19 -9 -19
-8 3 10 28 23 34 26 25 11z m195 -36 c0 -2 -13 2 -30 11 -16 9 -30 18 -30 21
0 2 14 -2 30 -11 17 -9 30 -18 30 -21z m-1326 4 c-5 -7 -2 -9 8 -6 8 4 15 0
15 -8 0 -19 -30 -1 -33 20 -1 9 2 14 7 10 5 -3 6 -10 3 -16z m1766 -4 c0 -2
-9 0 -20 6 -11 6 -20 13 -20 16 0 2 9 0 20 -6 11 -6 20 -13 20 -16z m-1340
-20 c0 -2 -9 0 -20 6 -11 6 -20 13 -20 16 0 2 9 0 20 -6 11 -6 20 -13 20 -16z
m510 -10 c0 -2 -13 2 -30 11 -16 9 -30 18 -30 21 0 2 14 -2 30 -11 17 -9 30
-18 30 -21z m140 31 c0 -2 -10 -9 -22 -15 -22 -11 -22 -10 -4 4 21 17 26 19
26 11z m-765 -31 c-10 -7 -22 -11 -28 -7 -6 3 -3 11 8 19 10 7 22 11 28 7 6
-3 3 -11 -8 -19z m445 21 c0 -2 -10 -9 -22 -15 -22 -11 -22 -10 -4 4 21 17 26
19 26 11z m80 -21 c0 -2 -9 0 -20 6 -11 6 -20 13 -20 16 0 2 9 0 20 -6 11 -6
20 -13 20 -16z m-743 -19 c0 -10 -5 -11 -19 -4 -10 5 -18 14 -18 20 0 6 -5 7
-12 3 -7 -4 -8 -3 -4 4 9 15 53 -4 53 -23z m423 9 c0 -2 -9 0 -20 6 -11 6 -20
13 -20 16 0 2 9 0 20 -6 11 -6 20 -13 20 -16z m-244 -6 c4 -6 3 -8 -3 -5 -6 4
-14 0 -17 -9 -3 -8 -11 -12 -17 -8 -9 5 -6 11 6 21 23 16 22 16 31 1z m224
-14 c0 -2 -9 0 -20 6 -11 6 -20 13 -20 16 0 2 9 0 20 -6 11 -6 20 -13 20 -16z
m481 8 c-7 -2 -18 1 -23 6 -8 8 -4 9 13 5 13 -4 18 -8 10 -11z m-291 3 c0 -2
-10 -9 -22 -15 -22 -11 -22 -10 -4 4 21 17 26 19 26 11z m880 0 c0 -2 -10 -9
-22 -15 -22 -11 -22 -10 -4 4 21 17 26 19 26 11z m-989 -23 c-7 -2 -18 1 -23
6 -8 8 -4 9 13 5 13 -4 18 -8 10 -11z m1069 -8 c0 -2 -9 0 -20 6 -11 6 -20 13
-20 16 0 2 9 0 20 -6 11 -6 20 -13 20 -16z m-1496 -5 c-3 -5 -10 -7 -15 -3 -5
3 -7 10 -3 15 3 5 10 7 15 3 5 -3 7 -10 3 -15z m381 3 c-3 -3 -11 0 -18 7 -9
10 -8 11 6 5 10 -3 15 -9 12 -12z m795 -18 c0 -2 -13 2 -30 11 -16 9 -30 18
-30 21 0 2 14 -2 30 -11 17 -9 30 -18 30 -21z m-260 21 c0 -2 -10 -9 -22 -15
-22 -11 -22 -10 -4 4 21 17 26 19 26 11z m-890 -67 l-4 -53 -6 50 c-6 52 -4
68 8 61 4 -2 5 -28 2 -58z m1540 26 c0 -2 -9 0 -20 6 -11 6 -20 13 -20 16 0 2
9 0 20 -6 11 -6 20 -13 20 -16z m-282 -14 c-7 -10 -14 -17 -17 -15 -4 4 18 35
25 35 2 0 -1 -9 -8 -20z m-461 -52 c-2 -13 -4 -3 -4 22 0 25 2 35 4 23 2 -13
2 -33 0 -45z m-4 -149 c-4 -4 -6 22 -3 59 l5 67 3 -59 c2 -32 -1 -63 -5 -67z
m-747 -25 c61 -36 56 -42 -6 -7 l-50 28 2 50 2 50 3 -47 c4 -44 7 -50 49 -74z
m1206 72 c2 -19 0 -32 -4 -30 -8 5 -12 64 -4 64 2 0 6 -15 8 -34z m303 -25
c-3 -6 -16 -16 -28 -22 -20 -11 -20 -9 3 13 25 24 38 29 25 9z m-710 -21 c3
-6 -1 -7 -9 -4 -18 7 -21 14 -7 14 6 0 13 -4 16 -10z m485 -26 c0 -2 -9 0 -20
6 -11 6 -20 13 -20 16 0 2 9 0 20 -6 11 -6 20 -13 20 -16z m-1350 11 c0 -2
-10 -9 -22 -15 -22 -11 -22 -10 -4 4 21 17 26 19 26 11z m790 0 c0 -2 -10 -9
-22 -15 -22 -11 -22 -10 -4 4 21 17 26 19 26 11z m-1100 -31 c0 -2 -9 0 -20 6
-11 6 -20 13 -20 16 0 2 9 0 20 -6 11 -6 20 -13 20 -16z m1110 11 c0 -2 -10
-9 -22 -15 -22 -11 -22 -10 -4 4 21 17 26 19 26 11z m-850 -9 c0 -2 -29 -21
-65 -41 -58 -32 -65 -40 -66 -68 l-2 -32 -4 30 c-2 17 -14 38 -26 48 l-22 18
26 -12 c24 -10 35 -7 90 25 68 38 69 38 69 32z m790 -1 c0 -2 -10 -9 -22 -15
-22 -11 -22 -10 -4 4 21 17 26 19 26 11z m160 -21 c0 -2 -9 0 -20 6 -11 6 -20
13 -20 16 0 2 9 0 20 -6 11 -6 20 -13 20 -16z m529 0 c14 -12 -19 -1 -35 12
-18 14 -18 14 6 3 14 -6 27 -13 29 -15z m-229 11 c0 -2 -10 -9 -22 -15 -22
-11 -22 -10 -4 4 21 17 26 19 26 11z m-1440 -31 c0 -2 -9 0 -20 6 -11 6 -20
13 -20 16 0 2 9 0 20 -6 11 -6 20 -13 20 -16z m420 -10 c0 -2 -13 2 -30 11
-16 9 -30 18 -30 21 0 2 14 -2 30 -11 17 -9 30 -18 30 -21z m790 -10 c0 -2 -9
0 -20 6 -11 6 -20 13 -20 16 0 2 9 0 20 -6 11 -6 20 -13 20 -16z m180 21 c0
-2 -10 -9 -22 -15 -22 -11 -22 -10 -4 4 21 17 26 19 26 11z m430 -10 c0 -2
-10 -9 -22 -15 -22 -11 -22 -10 -4 4 21 17 26 19 26 11z m-210 -31 c0 -2 -9 0
-20 6 -11 6 -20 13 -20 16 0 2 9 0 20 -6 11 -6 20 -13 20 -16z m-723 -9 c-7
-13 -14 -20 -15 -14 -2 5 2 16 8 24 18 21 20 18 7 -10z m360 -107 c-2 -24 -4
-5 -4 42 0 47 2 66 4 43 2 -24 2 -62 0 -85z m65 110 c-8 -8 -12 -46 -12 -104
0 -83 2 -93 23 -109 22 -17 22 -17 -3 -2 -23 13 -25 20 -28 107 -3 84 5 120
26 120 3 0 1 -5 -6 -12z m-1255 -140 c-2 -18 -4 -6 -4 27 0 33 2 48 4 33 2
-15 2 -42 0 -60z m1179 -74 c-9 -8 -11 -9 -6 -2 6 7 11 21 11 33 1 18 2 18 6
1 3 -10 -2 -25 -11 -32z m-384 -6 c-6 -6 -7 0 -4 19 5 21 7 23 10 9 2 -10 0
-22 -6 -28z m42 2 c10 -13 9 -13 -6 -1 -10 7 -18 21 -17 30 0 13 1 14 6 1 3
-8 11 -22 17 -30z m847 23 c13 -16 12 -17 -3 -4 -17 13 -22 21 -14 21 2 0 10
-8 17 -17z m-1685 -32 c-6 -2 -20 -8 -31 -13 -16 -7 -16 -5 3 8 12 9 22 24 23
33 0 12 2 11 8 -4 5 -12 4 -21 -3 -24z m1574 25 c0 -2 -7 -7 -16 -10 -8 -3
-12 -2 -9 4 6 10 25 14 25 6z m190 -42 c0 -2 -9 0 -20 6 -11 6 -20 13 -20 16
0 2 9 0 20 -6 11 -6 20 -13 20 -16z m-1700 -10 c0 -2 -9 0 -20 6 -11 6 -20 13
-20 16 0 2 9 0 20 -6 11 -6 20 -13 20 -16z m1090 21 c0 -2 -13 -11 -30 -20
-38 -19 -40 -11 -2 9 31 17 32 18 32 11z m-360 -12 c0 -1 -8 -7 -18 -12 -13
-7 -19 -6 -19 2 0 7 9 13 19 13 10 0 18 -1 18 -3z m-850 -8 c0 -2 -10 -9 -22
-15 -22 -11 -22 -10 -4 4 21 17 26 19 26 11z m190 -41 c0 -2 -13 2 -30 11 -16
9 -30 18 -30 21 0 2 14 -2 30 -11 17 -9 30 -18 30 -21z m1093 29 c3 -5 -8 -8
-23 -8 -15 0 -26 3 -23 8 2 4 13 7 23 7 10 0 21 -3 23 -7z m237 2 c0 -2 -10
-9 -22 -15 -22 -11 -22 -10 -4 4 21 17 26 19 26 11z m-540 -41 c0 -2 -13 2
-30 11 -16 9 -30 18 -30 21 0 2 14 -2 30 -11 17 -9 30 -18 30 -21z m60 0 c0
-2 -13 2 -30 11 -16 9 -30 18 -30 21 0 2 14 -2 30 -11 17 -9 30 -18 30 -21z
m-1090 21 c0 -2 -13 -11 -30 -20 -38 -19 -40 -11 -2 9 31 17 32 18 32 11z
m1410 -31 c0 -2 -9 0 -20 6 -11 6 -20 13 -20 16 0 2 9 0 20 -6 11 -6 20 -13
20 -16z m-654 1 c-1 -8 -6 -18 -11 -22 -4 -5 -5 -2 0 6 6 11 4 13 -11 8 -18
-7 -18 -7 0 8 24 18 25 18 22 0z m924 10 c0 -2 -10 -9 -22 -15 -22 -11 -22
-10 -4 4 21 17 26 19 26 11z m100 -21 c0 -2 -9 0 -20 6 -11 6 -20 13 -20 16 0
2 9 0 20 -6 11 -6 20 -13 20 -16z m-320 -20 c0 -2 -9 0 -20 6 -11 6 -20 13
-20 16 0 2 9 0 20 -6 11 -6 20 -13 20 -16z m170 11 c0 -2 -10 -9 -22 -15 -22
-11 -22 -10 -4 4 21 17 26 19 26 11z m-533 -37 c-3 -7 -5 -2 -5 12 0 14 2 19
5 13 2 -7 2 -19 0 -25z m754 5 c13 -16 12 -17 -3 -4 -17 13 -22 21 -14 21 2 0
10 -8 17 -17z"/>
<path d="M500 125 c-91 -52 -95 -56 -96 -90 l-1 -35 194 0 194 0 -3 37 c-3 35
-8 40 -93 90 -49 29 -92 53 -95 53 -3 -1 -48 -25 -100 -55z"/>
</g>
</svg>
