<?xml version="1.0" standalone="no"?>
<!DOCTYPE svg PUBLIC "-//W3C//DTD SVG 20010904//EN"
 "http://www.w3.org/TR/2001/REC-SVG-20010904/DTD/svg10.dtd">
<svg version="1.0" xmlns="http://www.w3.org/2000/svg"
 width="200.000000pt" height="200.000000pt" viewBox="0 0 200.000000 200.000000"
 preserveAspectRatio="xMidYMid meet">
<metadata>
Created by potrace 1.16, written by Peter Selinger 2001-2019
</metadata>
<g transform="translate(0.000000,200.000000) scale(0.100000,-0.100000)"
fill="#000000" stroke="none">
<path d="M0 1967 c0 -18 6 -39 13 -46 10 -11 10 -13 0 -7 -10 6 -13 -41 -13
-219 0 -178 3 -225 13 -219 10 6 10 4 0 -7 -9 -9 -13 -49 -13 -122 0 -93 3
-112 18 -123 16 -13 16 -14 0 -8 -17 6 -18 -14 -18 -332 0 -251 4 -342 13
-353 9 -12 9 -13 0 -7 -10 6 -13 -49 -13 -258 l0 -266 194 0 c146 0 196 3 199
13 4 9 6 9 6 0 1 -10 88 -13 401 -13 l400 0 0 33 c0 18 -6 39 -12 46 -10 11
-10 12 -1 7 8 -4 56 17 113 50 l101 56 -3 117 -3 116 35 19 c19 10 65 36 103
58 l67 39 0 113 c0 99 2 115 18 121 14 5 15 4 5 -6 -9 -9 -13 -48 -13 -121 0
-106 1 -109 25 -120 14 -6 25 -15 25 -20 0 -5 4 -6 10 -3 5 3 10 1 10 -5 0 -6
4 -9 8 -6 10 6 59 -31 51 -38 -3 -3 -15 3 -27 14 -12 12 -22 18 -22 14 0 -3
-19 5 -43 19 l-42 25 -98 -55 -97 -55 0 -113 0 -113 90 -52 c79 -45 113 -70
96 -70 -3 0 -34 18 -69 39 -132 81 -114 79 -222 16 -91 -54 -95 -58 -95 -91
l0 -34 395 0 395 0 0 256 c0 201 -3 254 -12 248 -10 -6 -10 -4 -1 7 16 16 17
33 1 23 -7 -5 -8 -3 -3 6 13 21 14 273 1 289 -8 11 -8 13 2 7 9 -6 12 30 12
164 0 134 -3 170 -12 164 -10 -6 -10 -5 -1 8 10 11 13 112 13 421 l-1 407
-189 0 -189 0 -4 -27 -4 -28 -2 28 -1 27 -199 0 -200 0 -4 -32 -4 -33 -1 33
-2 32 -399 0 c-310 0 -400 -3 -404 -12 -4 -10 -6 -10 -6 0 -1 9 -47 12 -196
12 l-195 0 0 -33z m410 -42 c11 -13 10 -14 -4 -9 -9 3 -16 10 -16 15 0 13 6
11 20 -6z m1235 -7 c5 4 5 1 0 -7 -7 -12 -10 -12 -19 2 -10 13 -24 8 -105 -38
-51 -29 -97 -57 -103 -63 -7 -7 -33 3 -79 30 -38 22 -69 42 -69 44 0 3 29 -11
65 -31 l65 -37 108 61 c90 51 109 58 118 46 6 -8 15 -11 19 -7z m-819 -4 c18
-14 18 -15 -3 -4 -17 8 -29 8 -45 0 -22 -11 -22 -10 -4 4 11 9 23 16 26 16 3
0 15 -7 26 -16z m404 1 c17 -9 30 -18 30 -21 0 -2 -14 2 -30 11 -23 12 -35 13
-53 5 -21 -11 -21 -10 -3 4 24 19 21 19 56 1z m-850 0 c0 -2 -10 -9 -22 -15
-22 -11 -22 -10 -4 4 21 17 26 19 26 11z m-310 -31 c0 -2 -9 0 -20 6 -11 6
-20 13 -20 16 0 2 9 0 20 -6 11 -6 20 -13 20 -16z m420 -10 c0 -2 -13 2 -30
11 -16 9 -30 18 -30 21 0 2 14 -2 30 -11 17 -9 30 -18 30 -21z m1189 13 c0 -9
-2 -8 -6 1 -2 6 -10 9 -15 6 -7 -4 -8 -2 -4 5 9 13 26 5 25 -12z m257 8 c-1
-8 -5 -17 -8 -21 -5 -4 -4 16 1 34 3 9 9 -1 7 -13z m-1046 -21 c0 -2 -9 0 -20
6 -11 6 -20 13 -20 16 0 2 9 0 20 -6 11 -6 20 -13 20 -16z m260 21 c0 -2 -13
-11 -30 -20 -38 -19 -40 -11 -2 9 31 17 32 18 32 11z m-820 -10 c0 -2 -13 -11
-30 -20 -38 -19 -40 -11 -2 9 31 17 32 18 32 11z m400 0 c0 -2 -13 -11 -30
-20 -38 -19 -40 -11 -2 9 31 17 32 18 32 11z m982 -9 c7 4 8 2 4 -5 -9 -13
-26 -5 -25 12 0 9 2 8 6 -1 2 -6 10 -9 15 -6z m-1572 -32 c0 -2 -9 0 -20 6
-11 6 -20 13 -20 16 0 2 9 0 20 -6 11 -6 20 -13 20 -16z m400 0 c0 -2 -9 0
-20 6 -11 6 -20 13 -20 16 0 2 9 0 20 -6 11 -6 20 -13 20 -16z m1230 2 c0 -1
-7 -3 -15 -3 -8 0 -15 4 -15 9 0 5 -5 6 -12 2 -7 -4 -8 -3 -4 4 5 9 13 9 27 2
10 -6 19 -12 19 -14z m-810 -12 c0 -2 -9 0 -20 6 -11 6 -20 13 -20 16 0 2 9 0
20 -6 11 -6 20 -13 20 -16z m120 21 c0 -2 -13 -11 -30 -20 -38 -19 -40 -11 -2
9 31 17 32 18 32 11z m-820 -10 c0 -2 -10 -9 -22 -15 -22 -11 -22 -10 -4 4 21
17 26 19 26 11z m400 0 c0 -2 -10 -9 -22 -15 -22 -11 -22 -10 -4 4 21 17 26
19 26 11z m-456 -37 c-3 -5 -12 -4 -20 3 -19 16 -18 18 6 12 11 -3 17 -9 14
-15z m397 4 c-7 -2 -18 1 -23 6 -8 8 -4 9 13 5 13 -4 18 -8 10 -11z m400 0
c-7 -2 -18 1 -23 6 -8 8 -4 9 13 5 13 -4 18 -8 10 -11z m814 -117 c0 -74 -4
-122 -10 -122 -6 0 -10 48 -10 122 0 74 4 122 10 122 6 0 10 -48 10 -122z
m-1618 13 c-2 -18 -4 -6 -4 27 0 33 2 48 4 33 2 -15 2 -42 0 -60z m0 -90 c-3
-7 -5 -2 -5 12 0 14 2 19 5 13 2 -7 2 -19 0 -25z m113 -105 c0 -2 -25 10 -55
27 -32 18 -63 29 -72 26 -13 -5 -14 -4 -4 8 10 12 21 9 72 -21 32 -19 59 -37
59 -40z m294 68 c3 -5 -3 -11 -15 -14 -16 -4 -18 -3 -8 9 13 16 16 17 23 5z
m920 -68 c50 -29 85 -53 78 -53 -8 0 -56 25 -107 56 l-94 56 -96 -57 -96 -56
3 -118 c3 -100 1 -118 -12 -117 -8 1 -14 -5 -12 -12 1 -8 -2 -11 -8 -7 -8 5
-6 13 4 24 12 14 16 41 16 123 0 98 -2 107 -22 122 l-23 17 23 -12 c21 -9 37
-3 125 49 78 45 105 56 116 48 8 -6 55 -34 105 -63z m-864 31 c0 -2 -9 0 -20
6 -11 6 -20 13 -20 16 0 2 9 0 20 -6 11 -6 20 -13 20 -16z m420 -10 c0 -2 -13
2 -30 11 -16 9 -30 18 -30 21 0 2 14 -2 30 -11 17 -9 30 -18 30 -21z m-920 21
c0 -2 -10 -9 -22 -15 -22 -11 -22 -10 -4 4 21 17 26 19 26 11z m400 0 c0 -2
-10 -9 -22 -15 -22 -11 -22 -10 -4 4 21 17 26 19 26 11z m400 0 c0 -2 -10 -9
-22 -15 -22 -11 -22 -10 -4 4 21 17 26 19 26 11z m796 -11 c-3 -21 -33 -39
-33 -20 0 8 7 12 14 9 8 -3 13 -2 12 3 -2 13 0 24 5 24 2 0 3 -7 2 -16z m68 7
c4 -5 -3 -7 -14 -4 -23 6 -26 13 -6 13 8 0 17 -4 20 -9z m-1094 -47 c0 -2 -13
2 -30 11 -16 9 -30 18 -30 21 0 2 14 -2 30 -11 17 -9 30 -18 30 -21z m180 21
c0 -2 -13 -11 -30 -20 -38 -19 -40 -11 -2 9 31 17 32 18 32 11z m220 -21 c0
-2 -9 0 -20 6 -11 6 -20 13 -20 16 0 2 9 0 20 -6 11 -6 20 -13 20 -16z m-640
11 c0 -2 -10 -9 -22 -15 -22 -11 -22 -10 -4 4 21 17 26 19 26 11z m-420 -10
c0 -2 -10 -9 -22 -15 -22 -11 -22 -10 -4 4 21 17 26 19 26 11z m1615 -4 c3 -5
2 -12 -3 -15 -5 -3 -9 1 -9 9 0 17 3 19 12 6z m-1305 -27 c0 -2 -9 0 -20 6
-11 6 -20 13 -20 16 0 2 9 0 20 -6 11 -6 20 -13 20 -16z m440 6 c11 6 20 8 20
6 0 -3 -9 -10 -20 -16 -15 -8 -27 -7 -50 5 -16 9 -30 18 -30 21 0 2 14 -2 30
-11 23 -12 35 -13 50 -5z m816 -5 c-1 -8 -5 -17 -8 -21 -5 -4 -4 16 1 34 3 9
9 -1 7 -13z m-1221 -5 c-3 -5 -12 -10 -18 -10 -7 0 -6 4 3 10 19 12 23 12 15
0z m1572 -42 c-3 -7 -5 -2 -5 12 0 14 2 19 5 13 2 -7 2 -19 0 -25z m-1590 -80
c-2 -13 -4 -3 -4 22 0 25 2 35 4 23 2 -13 2 -33 0 -45z m1220 40 c-3 -8 -6 -5
-6 6 -1 11 2 17 5 13 3 -3 4 -12 1 -19z m-20 -70 c-3 -8 -6 -5 -6 6 -1 11 2
17 5 13 3 -3 4 -12 1 -19z m20 -10 c-3 -7 -5 -2 -5 12 0 14 2 19 5 13 2 -7 2
-19 0 -25z m370 -10 c-3 -7 -5 -2 -5 12 0 14 2 19 5 13 2 -7 2 -19 0 -25z
m-1590 -35 c-3 -10 -5 -4 -5 12 0 17 2 24 5 18 2 -7 2 -21 0 -30z m1227 -19
c3 -8 2 -12 -4 -9 -6 3 -10 10 -10 16 0 14 7 11 14 -7z m-1219 -14 c4 -6 3 -9
-2 -8 -4 1 -24 -6 -43 -16 -39 -21 -35 -12 7 15 16 10 29 18 30 18 1 1 5 -4 8
-9z m523 -69 l72 -42 -2 -92 -2 -92 -5 89 -6 90 -92 54 -92 53 -95 -53 -96
-53 0 -115 0 -115 95 -53 94 -52 95 52 c62 35 96 60 99 73 3 15 4 14 3 -4 -1
-19 -20 -35 -101 -81 -57 -33 -104 -55 -110 -50 -5 5 -50 31 -98 59 -75 43
-92 49 -110 40 l-22 -10 22 18 c20 17 21 26 20 125 -2 94 -4 109 -22 123 -20
16 -20 16 2 5 19 -9 36 -2 120 48 l98 59 30 -17 c17 -10 63 -36 103 -59z
m-828 13 c0 -2 -13 2 -30 11 -16 9 -30 18 -30 21 0 2 14 -2 30 -11 17 -9 30
-18 30 -21z m380 10 c0 -2 -9 0 -20 6 -11 6 -20 13 -20 16 0 2 9 0 20 -6 11
-6 20 -13 20 -16z m685 17 c3 -5 2 -12 -3 -15 -5 -3 -9 1 -9 9 0 17 3 19 12 6z
m125 -16 c0 -2 -7 -1 -17 2 -12 5 -14 3 -8 -8 5 -8 4 -11 0 -6 -5 4 -10 14
-11 22 -2 12 2 12 17 5 10 -6 19 -13 19 -15z m620 10 c0 -2 -10 -9 -22 -15
-22 -11 -22 -10 -4 4 21 17 26 19 26 11z m-1590 -10 c0 -2 -10 -9 -22 -15 -22
-11 -22 -10 -4 4 21 17 26 19 26 11z m797 -9 c0 -8 -6 -12 -15 -8 -10 3 -13 1
-8 -6 3 -6 2 -13 -3 -16 -5 -4 -8 1 -7 10 2 12 21 32 32 34 0 0 1 -6 1 -14z
m383 -1 c0 -2 -10 -9 -22 -15 -22 -11 -22 -10 -4 4 21 17 26 19 26 11z m-1350
-31 c0 -2 -9 0 -20 6 -11 6 -20 13 -20 16 0 2 9 0 20 -6 11 -6 20 -13 20 -16z
m400 0 c0 -2 -9 0 -20 6 -11 6 -20 13 -20 16 0 2 9 0 20 -6 11 -6 20 -13 20
-16z m517 2 c0 -8 -6 -12 -15 -9 -11 5 -11 7 0 14 7 5 13 9 14 9 0 0 1 -6 1
-14z m273 -12 c0 -2 -9 0 -20 6 -11 6 -20 13 -20 16 0 2 9 0 20 -6 11 -6 20
-13 20 -16z m-1090 11 c0 -2 -10 -9 -22 -15 -22 -11 -22 -10 -4 4 21 17 26 19
26 11z m1480 -21 c0 -2 -9 0 -20 6 -11 6 -20 13 -20 16 0 2 9 0 20 -6 11 -6
20 -13 20 -16z m75 8 c-3 -3 -11 0 -18 7 -9 10 -8 11 6 5 10 -3 15 -9 12 -12z
m145 13 c0 -2 -10 -9 -22 -15 -22 -11 -22 -10 -4 4 21 17 26 19 26 11z m-1750
-35 c0 -6 -9 -2 -20 7 -11 10 -20 19 -20 21 0 1 9 -2 20 -8 11 -6 20 -15 20
-20z m1225 20 c-3 -5 -14 -10 -23 -9 -14 0 -13 2 3 9 27 11 27 11 20 0z m-403
-35 c-6 -34 -13 -32 -10 4 1 16 5 28 9 26 3 -3 4 -16 1 -30z m366 -56 l-3 -64
-5 72 c-3 40 -1 68 3 64 4 -4 7 -37 5 -72z m72 77 c0 -2 -8 -10 -17 -17 -16
-13 -17 -12 -4 4 13 16 21 21 21 13z m-1263 -78 c-3 -7 -5 -2 -5 12 0 14 2 19
5 13 2 -7 2 -19 0 -25z m1580 10 c-3 -8 -6 -5 -6 6 -1 11 2 17 5 13 3 -3 4
-12 1 -19z m-760 -30 c-3 -8 -6 -5 -6 6 -1 11 2 17 5 13 3 -3 4 -12 1 -19z
m760 -50 c-3 -7 -5 -2 -5 12 0 14 2 19 5 13 2 -7 2 -19 0 -25z m-760 -35 c-3
-10 -5 -4 -5 12 0 17 2 24 5 18 2 -7 2 -21 0 -30z m-820 5 c-3 -8 -6 -5 -6 6
-1 11 2 17 5 13 3 -3 4 -12 1 -19z m1190 -10 c-3 -7 -5 -2 -5 12 0 14 2 19 5
13 2 -7 2 -19 0 -25z m393 -23 c0 -2 -10 -9 -22 -15 -22 -11 -22 -10 -4 4 21
17 26 19 26 11z m95 -5 c3 -6 -1 -7 -9 -4 -18 7 -21 14 -7 14 6 0 13 -4 16
-10z m-1675 -10 c0 -5 -10 -15 -22 -21 l-23 -12 20 21 c23 24 25 25 25 12z
m1187 -4 c0 -8 -6 -12 -15 -8 -10 3 -13 1 -8 -6 3 -6 2 -13 -3 -16 -5 -4 -8 1
-7 10 2 12 21 32 32 34 0 0 1 -6 1 -14z m-1072 -69 c6 -6 -12 2 -40 18 -27 15
-54 32 -60 38 -5 6 13 -2 40 -18 28 -15 55 -32 60 -38z m729 51 c-5 -7 -2 -9
8 -6 8 4 15 0 15 -7 0 -10 -5 -11 -19 -4 -16 9 -17 29 -2 29 3 0 2 -5 -2 -12z
m766 8 c0 -2 -7 -7 -16 -10 -8 -3 -12 -2 -9 4 6 10 25 14 25 6z m140 -22 c0
-2 -9 0 -20 6 -11 6 -20 13 -20 16 0 2 9 0 20 -6 11 -6 20 -13 20 -16z m-613
1 c0 -8 -4 -12 -9 -9 -5 3 -6 10 -3 15 9 13 12 11 12 -6z m133 -11 c0 -2 -9 0
-20 6 -11 6 -20 13 -20 16 0 2 9 0 20 -6 11 -6 20 -13 20 -16z m-1320 11 c0
-2 -10 -9 -22 -15 -22 -11 -22 -10 -4 4 21 17 26 19 26 11z m400 0 c0 -2 -10
-9 -22 -15 -22 -11 -22 -10 -4 4 21 17 26 19 26 11z m1305 -5 c3 -6 -1 -7 -9
-4 -18 7 -21 14 -7 14 6 0 13 -4 16 -10z m-738 -25 c0 -8 -4 -12 -9 -9 -5 3
-6 10 -3 15 9 13 12 11 12 -6z m178 6 c3 -5 2 -12 -3 -15 -5 -3 -9 1 -9 9 0
17 3 19 12 6z m635 -27 c0 -2 -13 2 -30 11 -16 9 -30 18 -30 21 0 2 14 -2 30
-11 17 -9 30 -18 30 -21z m-663 12 c0 -8 -6 -12 -15 -8 -11 4 -13 1 -7 -8 6
-9 4 -11 -5 -5 -10 6 -9 11 5 22 23 16 22 16 22 -1z m-1187 -1 c0 -2 -10 -9
-22 -15 -22 -11 -22 -10 -4 4 21 17 26 19 26 11z m400 0 c0 -2 -10 -9 -22 -15
-22 -11 -22 -10 -4 4 21 17 26 19 26 11z m685 -4 c3 -5 2 -12 -3 -15 -5 -3 -9
1 -9 9 0 17 3 19 12 6z m440 -9 c-3 -3 -11 0 -18 7 -9 10 -8 11 6 5 10 -3 15
-9 12 -12z m-1202 -24 c5 1 6 -2 2 -7 -3 -6 -20 -2 -40 10 -44 26 -46 35 -2
12 17 -9 36 -16 40 -15z m1277 27 c0 -2 -10 -9 -22 -15 -22 -11 -22 -10 -4 4
21 17 26 19 26 11z m-455 -14 c3 -5 2 -12 -3 -15 -5 -3 -9 1 -9 9 0 17 3 19
12 6z m365 -17 c0 -2 -9 0 -20 6 -11 6 -20 13 -20 16 0 2 9 0 20 -6 11 -6 20
-13 20 -16z m390 0 c0 -2 -9 0 -20 6 -11 6 -20 13 -20 16 0 2 9 0 20 -6 11 -6
20 -13 20 -16z m-1583 -76 c-3 -8 -6 -5 -6 6 -1 11 2 17 5 13 3 -3 4 -12 1
-19z m0 -110 c-3 -7 -5 -2 -5 12 0 14 2 19 5 13 2 -7 2 -19 0 -25z m16 -56 c7
-9 6 -11 -7 -6 -9 3 -16 16 -15 28 0 14 2 16 6 6 3 -8 10 -21 16 -28z m413 -8
c18 -14 18 -15 -3 -4 -18 8 -30 7 -53 -5 -38 -19 -40 -11 -2 9 34 19 34 19 58
0z m400 0 c18 -14 18 -15 -3 -4 -17 8 -29 8 -45 0 -22 -11 -22 -10 -4 4 24 20
28 20 52 0z m-846 2 c0 -2 -37 -25 -82 -52 -46 -26 -88 -53 -94 -60 -8 -10
-13 -9 -21 6 -10 15 -9 17 5 14 9 -3 55 18 102 45 89 53 90 53 90 47z m1590
-1 c0 -2 -10 -9 -22 -15 -22 -11 -22 -10 -4 4 21 17 26 19 26 11z m-1880 -41
c0 -2 -13 2 -30 11 -16 9 -30 18 -30 21 0 2 14 -2 30 -11 17 -9 30 -18 30 -21z
m400 0 c0 -2 -9 0 -20 6 -11 6 -20 13 -20 16 0 2 9 0 20 -6 11 -6 20 -13 20
-16z m240 11 c0 -2 -13 -11 -30 -20 -38 -19 -40 -11 -2 9 31 17 32 18 32 11z
m180 -21 c0 -2 -9 0 -20 6 -11 6 -20 13 -20 16 0 2 9 0 20 -6 11 -6 20 -13 20
-16z m220 21 c0 -2 -10 -9 -22 -15 -22 -11 -22 -10 -4 4 21 17 26 19 26 11z
m180 -21 c0 -2 -9 0 -20 6 -11 6 -20 13 -20 16 0 2 9 0 20 -6 11 -6 20 -13 20
-16z m590 11 c0 -2 -10 -9 -22 -15 -22 -11 -22 -10 -4 4 21 17 26 19 26 11z
m50 0 c0 -2 -10 -9 -22 -15 -22 -11 -22 -10 -4 4 21 17 26 19 26 11z m-1790
-41 c0 -2 -13 2 -30 11 -16 9 -30 18 -30 21 0 2 14 -2 30 -11 17 -9 30 -18 30
-21z m400 0 c0 -2 -9 0 -20 6 -11 6 -20 13 -20 16 0 2 9 0 20 -6 11 -6 20 -13
20 -16z m400 0 c0 -2 -9 0 -20 6 -11 6 -20 13 -20 16 0 2 9 0 20 -6 11 -6 20
-13 20 -16z m120 21 c0 -2 -13 -11 -30 -20 -38 -19 -40 -11 -2 9 31 17 32 18
32 11z m300 -31 c0 -2 -13 2 -30 11 -16 9 -30 18 -30 21 0 2 14 -2 30 -11 17
-9 30 -18 30 -21z m-720 21 c0 -2 -10 -9 -22 -15 -22 -11 -22 -10 -4 4 21 17
26 19 26 11z m1163 -9 c15 8 27 12 27 10 0 -3 -13 -12 -30 -21 -24 -13 -33
-13 -50 -3 -11 7 -20 17 -20 22 0 4 10 2 23 -7 20 -13 26 -13 50 -1z m-1219
-28 c-3 -5 -12 -4 -20 3 -19 16 -18 18 6 12 11 -3 17 -9 14 -15z m397 4 c-7
-2 -18 1 -23 6 -8 8 -4 9 13 5 13 -4 18 -8 10 -11z m-804 -74 c-3 -7 -5 -2 -5
12 0 14 2 19 5 13 2 -7 2 -19 0 -25z m44 -178 c21 -11 39 -23 39 -25 0 -3 -18
4 -41 15 -23 12 -47 19 -55 16 -11 -4 -12 -2 -1 14 6 11 13 16 15 10 2 -6 21
-20 43 -30z m363 21 c3 -5 -3 -11 -15 -14 -16 -4 -18 -3 -8 9 13 16 16 17 23
5z m1191 -1 c-3 -5 -16 -15 -28 -21 -19 -9 -19 -8 3 10 28 23 34 26 25 11z
m-805 -13 c-14 -8 -36 -19 -50 -27 -31 -16 -20 -3 17 21 16 10 35 18 43 18 8
1 4 -5 -10 -12z m-330 -23 c0 -2 -9 0 -20 6 -11 6 -20 13 -20 16 0 2 9 0 20
-6 11 -6 20 -13 20 -16z m420 -10 c0 -2 -13 2 -30 11 -16 9 -30 18 -30 21 0 2
14 -2 30 -11 17 -9 30 -18 30 -21z m-525 16 c-3 -5 -12 -10 -18 -10 -7 0 -6 4
3 10 19 12 23 12 15 0z m-415 -5 c0 -2 -10 -9 -22 -15 -22 -11 -22 -10 -4 4
21 17 26 19 26 11z m1640 0 c0 -2 -10 -9 -22 -15 -22 -11 -22 -10 -4 4 21 17
26 19 26 11z m100 -31 c0 -2 -9 0 -20 6 -11 6 -20 13 -20 16 0 2 9 0 20 -6 11
-6 20 -13 20 -16z m-1550 -10 c0 -2 -9 0 -20 6 -11 6 -20 13 -20 16 0 2 9 0
20 -6 11 -6 20 -13 20 -16z m400 0 c0 -2 -9 0 -20 6 -11 6 -20 13 -20 16 0 2
9 0 20 -6 11 -6 20 -13 20 -16z m436 -21 c-4 -4 -76 37 -76 44 0 2 18 -6 40
-18 22 -12 38 -24 36 -26z m804 21 c0 -2 -9 0 -20 6 -11 6 -20 13 -20 16 0 2
9 0 20 -6 11 -6 20 -13 20 -16z m-1880 11 c0 -2 -13 -11 -30 -20 -38 -19 -40
-11 -2 9 31 17 32 18 32 11z m400 0 c0 -2 -10 -9 -22 -15 -22 -11 -22 -10 -4
4 21 17 26 19 26 11z m400 0 c0 -2 -10 -9 -22 -15 -22 -11 -22 -10 -4 4 21 17
26 19 26 11z m820 -10 c0 -2 -10 -9 -22 -15 -22 -11 -22 -10 -4 4 21 17 26 19
26 11z m-1297 -28 c9 5 9 3 1 -8 -7 -8 -14 -23 -17 -34 -4 -15 -5 -13 -6 8 0
15 -5 27 -9 27 -5 0 -17 7 -28 15 -17 14 -15 14 14 0 18 -9 38 -13 45 -8z
m407 3 c11 6 20 8 20 6 0 -3 -9 -10 -20 -16 -15 -8 -27 -7 -50 5 -16 9 -30 18
-30 21 0 2 14 -2 30 -11 23 -12 35 -13 50 -5z m830 15 c0 -2 -10 -9 -22 -15
-22 -11 -22 -10 -4 4 21 17 26 19 26 11z m340 -54 c0 -12 -2 -12 -12 2 -7 9
-22 24 -33 32 -15 12 -11 12 13 -1 17 -10 32 -25 32 -33z m-330 34 c0 -2 -10
-9 -22 -15 -22 -11 -22 -10 -4 4 21 17 26 19 26 11z"/>
</g>
</svg>
