<?xml version="1.0" standalone="no"?>
<!DOCTYPE svg PUBLIC "-//W3C//DTD SVG 20010904//EN"
 "http://www.w3.org/TR/2001/REC-SVG-20010904/DTD/svg10.dtd">
<svg version="1.0" xmlns="http://www.w3.org/2000/svg"
 width="200.000000pt" height="200.000000pt" viewBox="0 0 200.000000 200.000000"
 preserveAspectRatio="xMidYMid meet">
<metadata>
Created by potrace 1.16, written by Peter Selinger 2001-2019
</metadata>
<g transform="translate(0.000000,200.000000) scale(0.100000,-0.100000)"
fill="#000000" stroke="none">
<path d="M0 1869 c0 -114 2 -134 18 -145 16 -13 16 -14 -1 -8 -13 5 -17 1 -17
-21 0 -22 4 -26 18 -21 16 6 16 5 -1 -8 -15 -12 -17 -39 -17 -311 l0 -297 25
-20 c32 -25 32 -51 0 -76 l-25 -20 0 -300 c0 -254 2 -301 15 -312 8 -7 15 -18
15 -25 0 -7 -7 -18 -15 -25 -12 -10 -15 -40 -15 -146 l0 -134 49 0 c39 0 60 7
94 30 25 17 48 30 52 30 4 0 30 -14 57 -30 43 -27 57 -30 128 -30 69 0 80 2
80 18 0 10 26 32 67 56 l68 40 65 -36 c44 -24 66 -42 68 -57 3 -18 10 -21 52
-21 46 0 48 1 44 24 -5 28 8 40 103 95 l71 41 84 -48 c74 -43 83 -51 86 -80 5
-48 32 -42 32 7 0 39 0 39 100 96 l100 57 90 -51 c49 -28 95 -51 100 -51 6 0
58 27 115 61 l104 61 3 106 3 106 90 52 90 52 3 113 2 114 -91 53 c-51 28 -98
52 -106 52 -8 0 -56 -25 -108 -55 l-93 -55 -110 64 -110 63 -83 -48 c-46 -27
-91 -49 -99 -49 -8 0 -55 24 -105 53 l-90 53 0 114 0 115 90 52 c50 29 97 52
105 52 8 0 53 -22 100 -49 l85 -49 35 21 c48 29 64 46 18 20 l-38 -21 -90 52
-90 52 0 102 0 102 86 50 c47 28 90 51 95 51 4 0 47 -23 94 -50 l85 -51 0
-101 c0 -84 -3 -103 -17 -115 -16 -13 -15 -13 7 0 24 14 25 18 25 128 l0 113
-90 52 -90 52 -3 115 -3 115 96 56 96 56 92 -53 92 -53 105 61 c95 56 105 64
108 93 2 18 -1 32 -7 32 -6 0 -11 -13 -11 -29 0 -27 -9 -35 -89 -81 l-90 -51
-85 48 c-80 45 -86 50 -86 81 0 31 -2 32 -40 32 -36 0 -40 -3 -40 -24 0 -20
-14 -32 -75 -66 l-76 -42 -74 43 c-60 34 -75 47 -75 66 0 22 -4 23 -64 23 -53
0 -64 -3 -68 -18 -3 -10 -31 -33 -62 -51 l-57 -32 -56 32 c-31 18 -58 40 -60
50 -5 17 -16 19 -94 19 -81 0 -91 -2 -132 -30 -25 -16 -50 -30 -57 -30 -15 0
-84 41 -88 52 -2 4 -65 8 -140 8 -104 -1 -142 -4 -156 -15 -17 -13 -22 -13
-42 0 -16 10 -49 15 -99 15 l-75 0 0 -131z m1282 -31 c40 -23 74 -42 76 -44 5
-3 5 -194 1 -198 -22 -16 -154 -86 -162 -85 -7 0 -43 19 -82 43 l-70 42 0 99
0 99 70 42 c39 24 75 43 82 43 6 1 44 -18 85 -41z m-434 -25 c79 -45 82 -49
82 -118 0 -69 -4 -74 -82 -119 l-47 -27 -66 36 -65 37 0 72 0 72 63 37 c34 20
63 37 65 37 2 0 24 -12 50 -27z m-408 -45 c38 -22 40 -25 40 -73 0 -48 -2 -51
-40 -73 l-41 -23 -42 23 c-39 22 -42 27 -45 70 -3 45 -2 47 40 72 24 14 44 26
46 26 2 0 21 -10 42 -22z m632 -291 l73 -44 0 -87 0 -88 -75 -40 -75 -41 -73
43 -73 42 3 86 3 86 70 42 c39 24 71 43 72 43 1 1 34 -18 75 -42z m-362 -129
l0 -67 -56 -32 -56 -32 -41 23 c-72 39 -77 47 -77 111 l0 58 58 34 57 34 57
-31 58 -31 0 -67z m-474 61 c30 -18 34 -26 34 -63 0 -39 -3 -44 -38 -64 l-38
-21 -37 25 c-32 21 -37 30 -37 63 0 33 5 42 33 60 40 26 42 26 83 0z m646
-275 l78 -46 0 -88 0 -88 -80 -47 -81 -47 -77 45 -77 44 -3 91 -3 91 78 45
c43 25 80 46 82 46 2 0 40 -21 83 -46z m-432 -41 l48 -27 4 -60 c3 -66 0 -71
-63 -105 l-44 -23 -50 29 -50 29 0 64 0 64 45 27 c25 15 49 28 54 28 4 1 30
-11 56 -26z m1442 -291 l83 -48 3 -100 3 -99 -90 -52 -90 -53 -85 51 -86 50 0
103 0 102 83 47 c45 25 85 46 89 47 3 0 44 -22 90 -48z m-411 -22 l69 -41 0
-87 0 -87 -75 -43 -75 -42 -75 42 -74 43 -1 86 0 87 68 40 c37 23 73 41 80 42
8 0 45 -18 83 -40z m-420 -22 l59 -33 0 -71 0 -72 -60 -35 -60 -36 -60 35 -60
35 0 72 0 73 53 31 c28 17 56 32 61 32 5 1 35 -14 67 -31z m-371 -104 c0 -52
-1 -54 -45 -80 l-46 -26 -44 23 -45 24 0 56 c0 56 0 57 43 82 l42 25 48 -25
c47 -26 47 -26 47 -79z m-458 45 c61 -44 9 -129 -61 -99 -27 11 -31 17 -31 51
0 32 5 41 28 53 34 19 29 20 64 -5z m1458 -245 c59 -35 80 -52 81 -68 0 -11 1
-57 2 -101 l1 -79 -44 -26 c-25 -14 -64 -37 -86 -49 l-42 -23 -86 48 -86 48 0
101 0 101 83 47 c45 26 85 47 90 47 4 0 43 -21 87 -46z m-419 -24 l69 -41 0
-84 0 -83 -70 -41 -70 -40 -70 40 -70 41 0 83 0 83 68 40 c37 22 68 41 70 41
2 1 35 -17 73 -39z m-415 -32 l54 -33 0 -60 0 -61 -56 -32 -56 -32 -54 32 -54
33 0 61 0 62 53 30 c28 17 54 31 55 31 2 1 28 -14 58 -31z m-386 -93 c0 -36
-4 -42 -35 -59 -34 -18 -37 -19 -70 -3 -32 15 -35 20 -35 61 0 39 4 46 33 64
32 19 32 19 70 -1 33 -19 37 -25 37 -62z"/>
<path d="M1118 1819 l-68 -40 0 -84 0 -84 69 -41 c38 -22 75 -40 82 -40 7 0
43 18 81 40 l68 41 0 84 0 84 -68 41 c-38 22 -75 40 -83 40 -8 -1 -44 -19 -81
-41z"/>
<path d="M740 1791 l-45 -27 0 -69 0 -69 45 -27 c56 -34 64 -34 120 0 l45 27
3 66 3 66 -51 31 c-28 17 -56 31 -63 30 -6 0 -32 -13 -57 -28z"/>
<path d="M363 1758 c-29 -17 -33 -25 -33 -63 0 -38 4 -45 34 -63 l33 -20 37
21 c32 19 36 25 36 62 0 37 -4 43 -37 62 -38 20 -38 20 -70 1z"/>
<path d="M932 1464 l-63 -36 3 -81 3 -81 55 -32 c30 -18 62 -33 70 -33 8 0 40
15 70 33 l55 32 3 80 3 79 -65 38 c-36 20 -66 37 -68 37 -2 -1 -31 -17 -66
-36z"/>
<path d="M547 1433 l-48 -27 3 -60 c3 -59 3 -60 49 -87 l46 -27 52 30 51 30 0
54 c0 52 -1 55 -41 79 -58 37 -59 37 -112 8z"/>
<path d="M161 1399 c-25 -15 -31 -25 -31 -52 0 -28 6 -37 33 -52 31 -16 35
-16 65 -1 27 14 32 22 32 54 0 34 -4 40 -34 54 -31 15 -35 15 -65 -3z"/>
<path d="M723 1122 l-63 -37 0 -85 0 -85 67 -38 c36 -21 71 -36 77 -35 6 2 39
19 73 38 l63 35 0 85 -1 85 -66 38 c-36 20 -71 37 -77 36 -6 0 -39 -17 -73
-37z"/>
<path d="M355 1084 c-30 -17 -42 -32 -47 -56 -11 -57 0 -85 47 -111 l43 -24
46 26 c46 26 46 26 46 81 l0 55 -48 26 -47 26 -40 -23z"/>
<path d="M1715 786 l-70 -42 -3 -90 -3 -91 81 -47 81 -47 80 46 79 47 0 91 0
92 -75 43 c-41 23 -80 42 -87 41 -7 0 -44 -19 -83 -43z"/>
<path d="M1333 771 l-62 -36 -1 -82 0 -82 65 -36 65 -37 64 36 c62 35 65 38
69 79 13 112 13 112 -64 156 -39 23 -71 41 -72 40 -1 -1 -30 -17 -64 -38z"/>
<path d="M938 742 l-48 -27 0 -62 0 -62 55 -31 55 -31 55 31 55 31 0 60 0 59
-47 30 c-27 16 -55 30 -63 30 -8 -1 -36 -13 -62 -28z"/>
<path d="M553 719 c-30 -19 -33 -26 -33 -67 0 -44 3 -48 38 -69 l38 -21 40 22
c35 19 39 26 42 67 3 43 1 46 -36 67 -48 27 -49 27 -89 1z"/>
<path d="M173 697 c-34 -15 -32 -73 2 -89 19 -8 29 -8 47 4 52 34 7 111 -49
85z"/>
<path d="M1520 440 c-73 -44 -78 -54 -72 -167 l4 -62 70 -41 c38 -22 74 -40
79 -40 5 0 43 19 84 42 l75 43 0 90 0 90 -74 43 c-40 23 -79 42 -87 41 -8 0
-43 -18 -79 -39z"/>
<path d="M1133 414 l-63 -36 0 -72 0 -72 65 -38 64 -37 66 36 65 37 0 73 0 74
-63 36 c-35 19 -66 35 -68 35 -2 -1 -32 -17 -66 -36z"/>
<path d="M748 387 c-34 -20 -38 -27 -44 -75 -7 -58 -5 -61 62 -97 32 -17 34
-17 76 6 42 24 43 25 46 81 3 57 3 57 -37 83 -48 29 -54 30 -103 2z"/>
<path d="M363 353 c-33 -23 -31 -75 3 -98 25 -16 29 -16 60 -1 29 13 34 21 34
51 0 28 -5 37 -30 50 -35 18 -39 18 -67 -2z"/>
<path d="M188 1993 c7 -3 16 -2 19 1 4 3 -2 6 -13 5 -11 0 -14 -3 -6 -6z"/>
<path d="M530 1989 c58 -39 66 -40 112 -14 l43 25 -85 0 c-61 0 -81 -3 -70
-11z"/>
<path d="M892 1988 c3 -7 27 -26 54 -42 l49 -29 54 30 c86 46 79 53 -49 53
-84 0 -111 -3 -108 -12z"/>
<path d="M1262 1983 c3 -18 112 -91 136 -92 26 -2 142 73 142 91 0 16 -12 18
-141 18 -128 0 -140 -2 -137 -17z"/>
<path d="M1642 1974 c2 -21 19 -35 81 -72 l79 -45 41 23 c99 55 117 70 117 95
l0 25 -161 0 -160 0 3 -26z"/>
<path d="M1905 1864 l-90 -52 -3 -115 -3 -115 91 -52 c50 -29 93 -50 96 -48 2
3 3 102 2 220 l-3 214 -90 -52z"/>
<path d="M1524 1857 c-107 -63 -101 -54 -102 -165 l-1 -98 90 -52 90 -53 89
51 90 52 0 103 0 103 -89 51 c-48 28 -90 51 -92 50 -2 0 -36 -20 -75 -42z"/>
<path d="M1707 1508 l-88 -51 3 -110 3 -111 83 -48 c46 -26 88 -48 94 -48 6 0
51 23 100 51 l89 51 -3 106 -3 106 -90 53 c-49 29 -92 53 -95 52 -3 0 -45 -23
-93 -51z"/>
<path d="M1313 1486 l-73 -41 0 -97 0 -96 81 -47 80 -46 80 46 79 47 0 96 0
97 -76 43 c-42 23 -82 42 -88 41 -6 -1 -44 -20 -83 -43z"/>
<path d="M1504 1172 l-99 -57 0 -115 0 -114 98 -58 99 -58 94 55 94 56 0 119
0 119 -62 37 c-35 20 -77 45 -94 55 l-30 18 -100 -57z"/>
<path d="M1508 1204 c-38 -20 -36 -28 2 -9 17 9 30 18 30 20 0 7 -1 6 -32 -11z"/>
<path d="M1905 1172 l-80 -48 -3 -124 -2 -125 90 -52 90 -51 0 224 c0 123 -3
224 -7 224 -5 -1 -44 -22 -88 -48z"/>
<path d="M1111 1156 l-91 -51 0 -105 0 -105 91 -52 90 -51 89 52 90 51 0 105
0 105 -89 51 -89 51 -91 -51z"/>
<path d="M0 1000 c0 -38 2 -40 20 -30 11 6 20 19 20 30 0 11 -9 24 -20 30 -18
10 -20 8 -20 -30z"/>
<path d="M1908 458 l-88 -50 0 -103 0 -103 88 -50 87 -49 3 98 c1 54 1 145 0
202 l-3 104 -87 -49z"/>
<path d="M0 305 c0 -15 4 -24 10 -20 13 8 13 32 0 40 -6 4 -10 -5 -10 -20z"/>
<path d="M1704 131 c-95 -55 -99 -58 -102 -94 l-3 -37 196 0 196 0 -3 40 c-3
40 -5 42 -94 94 l-91 54 -99 -57z"/>
<path d="M1315 124 c-89 -51 -105 -67 -105 -101 l0 -23 184 0 184 0 5 27 c3
16 3 31 1 34 -5 8 -151 95 -174 104 -8 3 -51 -16 -95 -41z"/>
<path d="M918 94 c-64 -37 -78 -49 -78 -69 l0 -25 160 0 160 0 0 24 c0 20 -15
33 -80 70 -43 25 -80 46 -82 46 -2 0 -38 -21 -80 -46z"/>
<path d="M538 63 c-90 -53 -80 -63 63 -63 142 0 151 10 54 64 l-60 33 -57 -34z"/>
<path d="M155 24 l-40 -24 80 0 c82 0 84 2 25 34 -23 13 -30 12 -65 -10z"/>
</g>
</svg>
