<?xml version="1.0" standalone="no"?>
<!DOCTYPE svg PUBLIC "-//W3C//DTD SVG 20010904//EN"
 "http://www.w3.org/TR/2001/REC-SVG-20010904/DTD/svg10.dtd">
<svg version="1.0" xmlns="http://www.w3.org/2000/svg"
 width="200.000000pt" height="200.000000pt" viewBox="0 0 200.000000 200.000000"
 preserveAspectRatio="xMidYMid meet">
<metadata>
Created by potrace 1.16, written by Peter Selinger 2001-2019
</metadata>
<g transform="translate(0.000000,200.000000) scale(0.100000,-0.100000)"
fill="#000000" stroke="none">
<path d="M1 1765 l-2 -235 53 31 c29 17 60 37 68 44 8 7 20 10 27 8 18 -7 22
8 24 110 1 69 6 100 16 108 7 7 16 9 20 5 3 -3 1 -6 -6 -6 -8 0 -11 -7 -7 -15
3 -8 1 -15 -5 -15 -6 0 -9 -42 -8 -110 1 -60 6 -110 11 -110 5 0 6 -5 2 -12
-5 -8 -2 -9 9 -5 24 9 21 0 -4 -14 -15 -8 -19 -8 -15 0 4 6 2 11 -4 11 -6 0
-8 5 -5 10 3 6 2 10 -4 10 -6 0 -8 7 -4 16 5 15 -71 -21 -146 -68 -27 -16 -29
-60 -4 -52 17 5 17 5 0 -6 -15 -10 -17 -27 -16 -138 1 -104 4 -128 17 -139 16
-12 16 -13 0 -7 -17 6 -18 -14 -18 -323 l1 -329 98 -57 99 -57 73 43 74 44 3
77 c2 65 0 81 -15 93 -17 14 -17 14 0 9 23 -7 23 40 0 68 -14 16 -14 18 -2 8
9 -6 19 -9 22 -5 9 8 9 0 9 -130 -1 -105 1 -114 24 -99 16 10 16 102 1 121 -9
12 -9 13 1 7 16 -10 16 45 0 63 -10 11 -10 13 0 7 8 -5 12 1 12 18 0 17 -7 27
-22 32 -13 4 -25 10 -28 14 -14 19 -153 91 -167 86 -13 -5 -14 -4 -3 9 11 13
16 13 34 2 102 -65 146 -88 157 -81 8 4 10 3 5 -5 -11 -17 22 -25 47 -13 12 7
45 25 72 42 28 17 60 35 73 40 16 7 23 17 22 33 -5 52 1 220 6 214 4 -3 6 -57
6 -119 0 -106 4 -127 30 -128 4 0 9 12 11 28 3 23 4 21 6 -9 1 -27 7 -38 25
-47 19 -8 26 -8 30 1 3 8 5 6 5 -3 1 -8 22 -28 47 -43 26 -15 44 -30 41 -33
-3 -4 -16 1 -29 10 -12 9 -26 16 -30 16 -15 0 -8 -29 9 -39 10 -5 16 -12 13
-15 -3 -2 -27 9 -53 25 -26 16 -53 27 -59 23 -6 -4 -8 -3 -5 3 11 18 -48 37
-72 23 -12 -6 -19 -15 -16 -20 3 -6 0 -7 -7 -5 -7 3 -35 -8 -62 -25 -27 -17
-50 -29 -53 -26 -2 2 16 16 42 31 33 20 43 31 36 38 -8 8 -24 5 -56 -11 l-44
-21 0 -118 c0 -94 -3 -120 -16 -129 -8 -6 -15 -14 -15 -17 0 -3 29 -23 66 -43
63 -35 89 -39 66 -11 -14 16 -6 28 12 21 8 -3 11 -15 8 -30 -3 -17 2 -30 14
-40 17 -14 17 -15 2 -10 -16 5 -18 -3 -18 -71 0 -42 -3 -73 -7 -70 -3 4 -5 40
-4 80 l2 74 -61 37 c-34 20 -66 33 -72 30 -7 -4 -8 -2 -4 5 18 29 -30 18 -102
-23 -43 -25 -82 -46 -87 -46 -4 0 -46 23 -94 52 -47 28 -89 53 -93 55 -3 2 -7
-73 -8 -167 0 -93 3 -170 8 -170 4 0 12 4 17 8 22 19 109 65 98 51 -6 -8 -37
-27 -67 -44 -31 -16 -56 -36 -56 -44 0 -8 6 -11 17 -7 16 5 16 5 2 -6 -14 -12
-14 -15 3 -32 22 -24 23 -32 2 -40 -13 -5 -14 -3 -6 6 7 9 6 17 -4 26 -12 11
-14 4 -14 -42 l0 -55 209 -1 c162 0 210 2 214 12 4 11 6 11 6 0 1 -10 46 -12
205 -12 183 1 205 3 209 18 4 16 5 16 6 0 1 -16 25 -18 321 -17 203 0 319 3
315 9 -4 6 -2 10 4 10 5 0 12 -4 15 -9 9 -14 186 -13 204 1 12 10 14 10 8 0
-5 -9 14 -12 84 -12 58 0 89 4 85 10 -3 5 -2 10 4 10 5 0 13 -4 16 -10 3 -5
26 -10 51 -10 43 0 44 1 44 33 0 18 -6 39 -12 46 -8 8 -8 11 -2 8 9 -5 12 53
12 217 0 192 -2 224 -15 219 -8 -3 -12 -11 -10 -17 3 -6 -6 -11 -18 -11 -28 0
-23 10 16 30 27 14 29 20 29 71 0 41 -3 55 -12 52 -7 -3 -22 3 -32 13 -11 11
-14 19 -8 19 6 0 14 -4 17 -10 3 -5 13 -10 21 -10 10 0 14 14 14 54 l0 53 -46
24 c-34 18 -48 21 -51 11 -3 -6 -9 -10 -13 -7 -5 3 -7 12 -4 20 6 14 -30 40
-45 31 -4 -3 -8 1 -8 9 0 12 5 11 30 -1 16 -9 35 -13 43 -10 8 3 12 1 9 -4 -5
-8 64 -60 80 -60 3 0 5 9 5 21 0 11 -4 18 -8 15 -5 -3 -9 1 -9 9 0 8 4 12 9 9
4 -3 8 9 8 26 0 17 -4 29 -8 26 -5 -3 -9 1 -9 9 0 8 4 12 9 9 4 -3 8 40 8 96
0 56 -4 99 -8 96 -5 -3 -9 1 -9 9 0 8 4 12 9 9 4 -3 8 9 8 26 0 17 -4 29 -8
26 -5 -3 -9 1 -9 9 0 8 4 12 8 10 4 -3 7 18 7 45 1 36 -3 49 -11 44 -8 -5 -8
-3 1 7 17 19 15 59 -3 59 -8 0 -15 4 -15 10 0 5 7 7 15 4 12 -5 15 4 15 48 0
30 -6 60 -12 67 -8 9 -9 12 -1 7 8 -4 11 60 11 258 l0 264 -44 0 c-24 0 -46
-4 -50 -9 -3 -5 -10 -9 -15 -9 -6 0 -7 4 -4 10 4 6 -45 10 -140 9 -125 -1
-144 -3 -134 -15 9 -11 9 -14 -1 -14 -8 0 -11 -9 -8 -24 4 -20 -2 -27 -38 -46
-53 -26 -60 -36 -37 -49 16 -9 16 -12 3 -21 -21 -14 -30 -12 -24 4 10 27 -16
27 -60 1 l-44 -26 -54 29 c-29 16 -69 38 -88 50 -19 12 -40 20 -46 18 -6 -2
-11 2 -11 10 0 21 11 18 82 -26 36 -22 68 -40 72 -40 3 0 14 -7 23 -15 19 -18
54 -9 46 11 -3 8 0 11 9 8 7 -3 24 0 36 7 l23 12 -23 18 c-28 23 -19 25 13 4
21 -14 25 -14 47 3 13 10 32 21 42 25 12 4 17 17 17 42 0 34 -1 35 -39 35 -22
0 -43 -4 -46 -10 -3 -5 -11 -10 -16 -10 -6 0 -7 5 -4 10 4 6 -31 10 -99 10
-74 0 -106 -4 -109 -12 -4 -10 -6 -10 -6 0 -1 16 -143 17 -173 1 -15 -8 -19
-8 -14 0 5 8 -23 11 -94 11 -78 0 -100 -3 -94 -12 6 -10 4 -10 -7 0 -7 6 -35
12 -61 12 -32 0 -48 -4 -48 -12 0 -10 -2 -10 -8 -1 -5 8 -59 11 -182 10 l-175
-2 -3 -35 c-2 -21 -12 -42 -25 -53 l-22 -18 25 6 c21 5 22 4 7 -5 -10 -7 -23
-8 -32 -2 -13 7 -12 10 8 21 18 10 24 22 25 52 2 42 -9 50 -30 22 -7 -10 -17
-18 -23 -18 -5 0 -42 -19 -82 -42 -76 -46 -83 -48 -83 -33 0 6 3 9 8 8 10 -4
162 84 162 94 0 4 -78 8 -174 8 l-173 0 -2 -235z m454 215 c3 -5 2 -10 -4 -10
-5 0 -13 5 -16 10 -3 6 -2 10 4 10 5 0 13 -4 16 -10z m782 -16 c-7 -7 -37 7
-37 17 0 6 9 5 21 -1 11 -7 19 -14 16 -16z m-437 -1 c0 -9 -3 -14 -6 -10 -3 3
-17 2 -30 -3 -18 -7 -22 -6 -17 5 3 8 8 13 12 11 4 -3 13 -1 21 5 20 12 20 12
20 -8z m390 12 c0 -2 -10 -9 -22 -15 -22 -11 -22 -10 -4 4 21 17 26 19 26 11z
m-339 -25 l24 -21 -32 16 c-32 15 -42 25 -24 25 5 0 19 -9 32 -20z m706 -2
c-3 -8 -6 -5 -6 6 -1 11 2 17 5 13 3 -3 4 -12 1 -19z m113 -4 c0 -2 -9 0 -20
6 -11 6 -20 13 -20 16 0 2 9 0 20 -6 11 -6 20 -13 20 -16z m105 8 c-3 -3 -11
0 -18 7 -9 10 -8 11 6 5 10 -3 15 -9 12 -12z m-351 -7 c-10 -8 -23 -15 -28
-15 -6 0 -1 7 10 15 10 8 23 15 28 15 6 0 1 -7 -10 -15z m-1060 -27 c-9 -15
-22 -8 -19 10 2 9 4 19 4 22 1 3 5 -2 10 -10 6 -8 7 -18 5 -22z m101 22 c3 -6
-1 -7 -9 -4 -18 7 -21 14 -7 14 6 0 13 -4 16 -10z m819 2 c2 -4 1 -14 -3 -21
-6 -9 -10 -7 -14 8 -5 20 7 29 17 13z m531 -2 c-3 -5 -12 -10 -18 -10 -7 0 -6
4 3 10 19 12 23 12 15 0z m-1085 -10 c0 -5 -5 -10 -11 -10 -5 0 -7 5 -4 10 3
6 8 10 11 10 2 0 4 -4 4 -10z m61 -12 c6 -13 8 -20 4 -16 -8 8 -117 -49 -123
-64 -2 -4 -12 2 -22 14 -16 20 -22 21 -39 11 -16 -10 -22 -10 -27 0 -4 6 -4 9
1 5 4 -4 13 -4 19 1 21 16 46 21 43 8 -3 -17 55 -11 68 6 6 8 20 17 33 21 12
4 22 14 22 22 0 20 8 17 21 -8z m214 12 c3 -6 -1 -7 -9 -4 -18 7 -21 14 -7 14
6 0 13 -4 16 -10z m115 5 c0 -2 -10 -10 -22 -16 -21 -11 -22 -11 -9 4 13 16
31 23 31 12z m60 1 c0 -2 -7 -7 -16 -10 -8 -3 -12 -2 -9 4 6 10 25 14 25 6z
m340 -1 c0 -2 -10 -9 -22 -15 -22 -11 -22 -10 -4 4 21 17 26 19 26 11z m185
-5 c3 -5 2 -10 -4 -10 -5 0 -13 5 -16 10 -3 6 -2 10 4 10 5 0 13 -4 16 -10z
m-858 -14 c-3 -7 -1 -18 5 -24 6 -6 6 -12 -3 -17 -8 -6 -10 -4 -4 5 6 9 2 10
-16 5 -22 -7 -22 -7 -6 9 9 10 17 22 17 27 0 5 3 9 6 9 3 0 4 -6 1 -14z m1058
4 c-3 -5 -11 -10 -16 -10 -6 0 -7 5 -4 10 3 6 11 10 16 10 6 0 7 -4 4 -10z
m-1316 -17 c10 -12 8 -13 -15 -7 -19 5 -25 4 -20 -4 5 -8 1 -10 -10 -5 -13 5
-16 2 -12 -9 4 -10 0 -14 -15 -13 -12 1 -20 6 -18 11 1 5 6 8 11 7 4 -1 16 6
26 16 23 21 36 22 53 4z m351 -5 c-40 -26 -51 -38 -44 -53 3 -5 -1 -2 -9 7 -8
10 -16 17 -18 15 -2 -1 -3 0 -1 3 2 3 9 5 15 5 7 1 11 6 10 13 -2 6 4 9 12 6
8 -4 15 -1 15 4 0 10 19 18 45 21 6 0 -6 -9 -25 -21z m820 -1 c0 -2 -8 -3 -18
-3 -10 0 -19 6 -19 13 0 8 6 9 19 2 10 -5 18 -11 18 -12z m-1725 4 c3 -5 2
-12 -3 -15 -5 -3 -9 1 -9 9 0 17 3 19 12 6z m1035 4 c0 -2 -13 -11 -30 -20
-38 -19 -40 -11 -2 9 31 17 32 18 32 11z m30 -15 c-13 -8 -12 -10 3 -10 11 0
15 -4 11 -12 -5 -8 -2 -9 9 -5 29 11 19 -2 -15 -19 -28 -15 -31 -15 -20 -1 11
13 11 18 -1 29 -12 11 -12 14 2 25 9 6 18 9 21 7 2 -3 -2 -9 -10 -14z m74 14
c9 -3 13 -11 10 -16 -4 -6 -10 -5 -14 3 -7 10 -12 10 -27 -2 -16 -13 -17 -13
-4 4 15 19 14 19 35 11z m176 2 c0 -2 -7 -7 -16 -10 -8 -3 -12 -2 -9 4 6 10
25 14 25 6z m304 -4 c2 -4 -4 -8 -14 -8 -10 0 -16 4 -14 8 3 4 9 8 14 8 5 0
11 -4 14 -8z m222 -4 c4 -7 4 -10 -1 -6 -4 4 -17 2 -29 -4 -19 -10 -20 -10 -7
5 16 20 27 21 37 5z m97 -2 c4 -10 1 -13 -8 -10 -7 3 -24 0 -36 -7 l-23 -12
21 -17 c22 -17 22 -17 -20 -39 -39 -21 -40 -21 -17 -2 14 11 29 21 34 21 6 0
1 6 -9 14 -21 15 -30 47 -11 40 6 -2 20 2 31 10 25 19 32 19 38 2z m-373 -21
c0 -2 -6 -5 -13 -8 -8 -3 -14 1 -14 8 0 7 6 11 14 8 7 -3 13 -6 13 -8z m106
-12 c-10 -10 -19 5 -10 18 6 11 8 11 12 0 2 -7 1 -15 -2 -18z m-1536 1 c0 -8
-4 -12 -10 -9 -15 9 -30 -4 -24 -20 4 -8 11 -12 17 -8 6 3 7 1 3 -5 -5 -9 -13
-9 -28 -1 -20 11 -20 11 3 35 26 28 39 31 39 8z m621 3 c-6 -8 -7 -17 -3 -22
4 -4 -3 -2 -15 4 -25 13 -31 24 -9 15 8 -3 17 -1 21 5 3 6 9 11 12 11 3 0 0
-6 -6 -13z m201 -5 c-10 -3 -10 -7 0 -20 12 -14 11 -14 -10 -1 -12 8 -18 15
-12 17 6 2 8 8 5 13 -4 5 2 6 11 2 12 -4 14 -8 6 -11z m262 3 c-7 -16 -24 -21
-24 -6 0 8 7 13 27 20 1 1 0 -6 -3 -14z m156 1 c-7 -7 -13 -7 -20 0 -6 6 -3
10 10 10 13 0 16 -4 10 -10z m-371 -13 c-12 -15 -12 -16 4 -10 24 9 21 0 -4
-14 -15 -8 -19 -8 -15 0 4 6 2 11 -5 11 -7 0 -4 7 7 15 25 19 29 19 13 -2z
m-467 -15 c-12 -12 -35 -1 -27 12 3 5 13 6 21 3 10 -4 12 -9 6 -15z m1298 7
c-7 -8 -17 -15 -23 -15 -6 0 -2 7 9 15 25 19 30 19 14 0z m-1364 -19 c1 -9 -2
-16 -8 -14 -6 2 -12 12 -14 22 -1 9 2 16 8 14 6 -2 12 -12 14 -22z m794 -6 c0
-6 -9 -2 -20 7 -11 10 -20 19 -20 21 0 1 9 -2 20 -8 11 -6 20 -15 20 -20z
m474 13 c4 -11 1 -11 -14 -3 -24 13 -25 17 -5 17 8 0 16 -6 19 -14z m-1136 -7
c-10 -7 -18 -19 -19 -27 0 -8 -4 -5 -8 6 -6 14 -4 22 8 27 27 11 37 8 19 -6z
m92 9 c0 -2 -10 -9 -22 -15 -22 -11 -22 -10 -4 4 21 17 26 19 26 11z m234 -3
c2 -4 1 -14 -5 -22 -5 -8 -9 -13 -10 -10 0 3 -2 13 -4 23 -3 17 10 24 19 9z
m233 -6 c0 -8 -6 -12 -15 -9 -11 5 -11 7 0 14 7 5 13 9 14 9 0 0 1 -6 1 -14z
m-962 -5 c-6 -6 -8 -59 -5 -125 5 -110 4 -115 -12 -94 -10 14 -13 25 -6 29 5
4 9 44 8 95 -2 108 -3 104 12 104 8 0 8 -3 3 -9z m1465 -6 c0 -8 -2 -15 -4
-15 -2 0 -6 7 -10 15 -3 8 -1 15 4 15 6 0 10 -7 10 -15z m120 0 c-7 -8 -17
-12 -23 -8 -6 4 -3 9 9 14 27 11 28 11 14 -6z m-1249 -30 c5 4 9 -4 8 -17 0
-13 -3 -17 -6 -10 -2 6 -9 10 -14 6 -5 -3 -8 10 -8 28 1 24 3 27 6 10 2 -12 9
-20 14 -17z m433 -24 c-2 -34 2 -59 9 -63 9 -6 9 -8 0 -8 -7 0 -11 -20 -11
-55 1 -54 1 -55 45 -80 25 -14 49 -22 54 -19 5 3 9 1 9 -4 0 -16 89 -64 103
-56 9 5 9 4 0 -7 -16 -17 -17 -49 -1 -49 9 0 9 -3 0 -12 -14 -14 -16 -45 -2
-53 5 -3 22 2 37 12 15 10 24 12 19 5 -4 -6 -21 -19 -37 -27 -27 -15 -29 -19
-26 -66 2 -45 0 -53 -20 -62 -12 -5 -20 -14 -17 -19 3 -5 2 -7 -3 -6 -20 5
-54 -15 -49 -29 5 -11 2 -13 -10 -9 -8 3 -35 -5 -60 -19 l-44 -25 -36 20 c-19
11 -46 27 -59 36 -13 9 -30 12 -36 8 -8 -4 -9 -3 -5 4 4 7 -7 18 -28 29 -20 9
-36 21 -36 25 0 8 29 -7 149 -79 42 -25 57 -30 68 -22 18 15 -3 42 -26 34 -13
-5 -13 -4 -4 6 10 10 17 9 33 -6 18 -16 23 -17 45 -5 14 8 24 19 21 26 -3 7 2
10 13 7 10 -2 34 5 54 17 35 21 37 24 37 76 0 36 -4 54 -12 54 -10 0 -10 2 -1
8 8 5 12 28 10 62 -2 52 -4 55 -42 77 -47 27 -49 27 -68 9 -9 -9 -19 -11 -28
-5 -11 7 -11 9 3 9 9 0 20 5 23 11 9 13 -26 40 -43 34 -7 -3 -11 -1 -8 4 3 5
-1 12 -10 15 -23 9 -31 8 -46 -6 -14 -13 -50 -35 -105 -63 -18 -10 -33 -25
-34 -34 0 -10 -2 -11 -6 -3 -2 6 -9 10 -14 7 -5 -4 -6 1 -3 9 3 9 9 16 13 16
4 0 33 15 65 33 32 17 68 38 82 45 13 7 24 22 24 33 0 13 -4 18 -12 13 -10 -6
-10 -4 0 7 6 7 12 26 12 42 0 20 -4 26 -12 21 -9 -6 -9 -3 1 9 9 11 12 35 9
70 -3 35 0 54 7 54 7 0 10 -20 9 -56z m466 39 c-24 -19 -40 -25 -40 -15 0 5
51 34 60 34 3 0 -6 -8 -20 -19z m130 6 c-7 -7 -13 -7 -20 0 -6 6 -3 10 10 10
13 0 16 -4 10 -10z m-920 0 c0 -3 -4 -8 -10 -11 -5 -3 -10 -1 -10 4 0 6 5 11
10 11 6 0 10 -2 10 -4z m-540 -27 c0 -6 -4 -7 -10 -4 -5 3 -10 11 -10 16 0 6
5 7 10 4 6 -3 10 -11 10 -16z m755 11 c3 -5 2 -10 -4 -10 -5 0 -13 5 -16 10
-3 6 -2 10 4 10 5 0 13 -4 16 -10z m470 0 c3 -5 2 -10 -4 -10 -5 0 -13 5 -16
10 -3 6 -2 10 4 10 5 0 13 -4 16 -10z m400 -10 c3 -5 2 -10 -4 -10 -5 0 -13 5
-16 10 -3 6 -2 10 4 10 5 0 13 -4 16 -10z m-1147 -30 c0 -16 -4 -30 -9 -30
-10 0 -12 43 -2 53 10 10 10 10 11 -23z m793 17 c-7 -7 -14 -8 -21 -1 -6 6 -2
10 12 11 16 2 18 -1 9 -10z m129 8 c0 -2 -10 -9 -22 -15 -22 -11 -22 -10 -4 4
21 17 26 19 26 11z m-240 -15 c0 -5 -2 -10 -4 -10 -3 0 -8 5 -11 10 -3 6 -1
10 4 10 6 0 11 -4 11 -10z m510 -2 c0 -4 -4 -8 -9 -8 -6 0 -12 4 -15 8 -3 5 1
9 9 9 8 0 15 -4 15 -9z m-850 -8 c0 -5 -2 -10 -4 -10 -3 0 -8 5 -11 10 -3 6
-1 10 4 10 6 0 11 -4 11 -10z m90 1 c0 -5 -7 -12 -16 -15 -14 -5 -15 -4 -4 9
14 17 20 19 20 6z m875 -1 c-3 -5 -11 -10 -16 -10 -6 0 -7 5 -4 10 3 6 11 10
16 10 6 0 7 -4 4 -10z m-565 -32 c0 -6 -6 -5 -15 2 -8 7 -15 14 -15 16 0 2 7
1 15 -2 8 -4 15 -11 15 -16z m110 17 c0 -2 -10 -10 -22 -16 -21 -11 -22 -11
-9 4 13 16 31 23 31 12z m-50 -36 c0 -14 -26 -11 -39 5 -9 11 -6 12 14 8 14
-2 25 -8 25 -13z m345 10 c4 -5 14 -8 23 -6 17 3 72 -19 72 -29 0 -3 -5 -2
-11 2 -24 14 -71 13 -97 -2 -26 -15 -26 -15 -4 2 21 16 21 17 5 30 -10 7 -13
14 -6 14 6 0 15 -5 18 -11z m-1188 -21 c-3 -8 -6 -5 -6 6 -1 11 2 17 5 13 3
-3 4 -12 1 -19z m470 -3 c0 -8 -4 -12 -9 -9 -5 3 -6 10 -3 15 9 13 12 11 12
-6z m318 -5 c-3 -5 -11 -10 -16 -10 -6 0 -7 5 -4 10 3 6 11 10 16 10 6 0 7 -4
4 -10z m90 0 c3 -5 1 -10 -4 -10 -6 0 -11 5 -11 10 0 6 2 10 4 10 3 0 8 -4 11
-10z m-835 -10 c0 -5 -4 -10 -9 -10 -6 0 -13 5 -16 10 -3 6 1 10 9 10 9 0 16
-4 16 -10z m340 5 c0 -2 -10 -10 -22 -16 -21 -11 -22 -11 -9 4 13 16 31 23 31
12z m-391 -27 c-8 -7 -23 -14 -34 -16 -15 -2 -13 2 10 17 31 21 47 21 24 -1z
m547 -16 c-4 -3 -14 2 -24 12 -16 18 -16 18 6 6 13 -6 21 -14 18 -18z m175 5
c-10 -9 -11 -8 -5 6 3 10 9 15 12 12 3 -3 0 -11 -7 -18z m-381 9 c0 -2 -7 -7
-16 -10 -8 -3 -12 -2 -9 4 6 10 25 14 25 6z m610 -6 c0 -5 -2 -10 -4 -10 -3 0
-8 5 -11 10 -3 6 -1 10 4 10 6 0 11 -4 11 -10z m400 -5 c0 -8 -2 -15 -4 -15
-2 0 -6 7 -10 15 -3 8 -1 15 4 15 6 0 10 -7 10 -15z m-1298 -19 c3 -13 0 -33
-6 -45 -10 -19 -12 -16 -13 24 -2 47 11 62 19 21z m63 14 c3 -5 2 -10 -4 -10
-5 0 -13 5 -16 10 -3 6 -2 10 4 10 5 0 13 -4 16 -10z m725 0 c0 -5 -2 -10 -4
-10 -3 0 -8 5 -11 10 -3 6 -1 10 4 10 6 0 11 -4 11 -10z m-45 -20 c-3 -5 -11
-10 -16 -10 -6 0 -7 5 -4 10 3 6 11 10 16 10 6 0 7 -4 4 -10z m90 0 c3 -5 2
-10 -4 -10 -5 0 -13 5 -16 10 -3 6 -2 10 4 10 5 0 13 -4 16 -10z m310 0 c-3
-5 -11 -10 -16 -10 -6 0 -7 5 -4 10 3 6 11 10 16 10 6 0 7 -4 4 -10z m90 0 c3
-6 -1 -7 -9 -4 -18 7 -21 14 -7 14 6 0 13 -4 16 -10z m-1281 -17 c-11 -10 -47
-33 -79 -50 -33 -18 -59 -36 -58 -41 3 -14 -51 -7 -84 11 -18 10 -33 20 -33
23 0 3 4 2 10 -1 5 -3 20 -1 32 5 20 10 21 9 6 -3 -15 -12 -15 -14 3 -25 23
-15 32 -15 24 -2 -3 5 0 7 8 4 12 -4 136 61 161 86 5 5 14 10 20 10 5 0 1 -8
-10 -17z m386 13 c0 -2 -7 -7 -16 -10 -8 -3 -12 -2 -9 4 6 10 25 14 25 6z
m245 -24 c-3 -3 -11 0 -18 7 -9 10 -8 11 6 5 10 -3 15 -9 12 -12z m405 8 c0
-5 -5 -10 -11 -10 -5 0 -7 5 -4 10 3 6 8 10 11 10 2 0 4 -4 4 -10z m-810 -7
c0 -1 -9 -7 -19 -12 -14 -8 -20 -7 -24 2 -3 7 5 12 19 12 13 0 24 -1 24 -2z
m120 2 c0 -2 -10 -9 -22 -15 -22 -11 -22 -10 -4 4 21 17 26 19 26 11z m490 -5
c0 -5 -5 -10 -11 -10 -5 0 -7 5 -4 10 3 6 8 10 11 10 2 0 4 -4 4 -10z m409 -4
c10 -12 8 -13 -8 -9 -12 3 -18 9 -15 14 7 12 10 11 23 -5z m-1677 -9 c-14 -16
1 -42 18 -32 9 6 11 4 5 -5 -6 -9 -4 -12 7 -8 8 4 15 0 15 -7 0 -10 -5 -11
-19 -4 -10 5 -24 7 -30 3 -7 -4 -8 -3 -4 4 4 7 2 12 -4 12 -6 0 -8 5 -5 10 3
6 0 10 -7 10 -8 1 -6 6 6 15 24 18 32 19 18 2z m973 3 c3 -5 2 -10 -4 -10 -5
0 -13 5 -16 10 -3 6 -2 10 4 10 5 0 13 -4 16 -10z m405 0 c0 -5 -2 -10 -4 -10
-3 0 -8 5 -11 10 -3 6 -1 10 4 10 6 0 11 -4 11 -10z m180 0 c0 -5 -5 -10 -11
-10 -5 0 -7 5 -4 10 3 6 8 10 11 10 2 0 4 -4 4 -10z m71 -5 c5 4 6 0 3 -8 -8
-23 -32 -16 -26 7 3 11 7 15 10 8 2 -7 8 -10 13 -7z m163 0 c11 -8 15 -15 10
-15 -6 0 -19 7 -30 15 -10 8 -14 14 -9 14 6 0 19 -6 29 -14z m-779 -5 c-3 -5
-12 -10 -18 -10 -7 0 -6 4 3 10 19 12 23 12 15 0z m515 -5 c0 -2 -6 -5 -13 -8
-8 -3 -14 1 -14 8 0 7 6 11 14 8 7 -3 13 -6 13 -8z m-1090 -10 c0 -2 -6 -5
-13 -8 -8 -3 -14 1 -14 8 0 7 6 11 14 8 7 -3 13 -6 13 -8z m785 5 c3 -5 -1
-10 -10 -10 -9 0 -13 5 -10 10 3 6 8 10 10 10 2 0 7 -4 10 -10z m106 -7 c13
-15 12 -15 -8 -4 -24 12 -29 21 -14 21 5 0 15 -7 22 -17z m84 7 c3 -6 -1 -7
-9 -4 -18 7 -21 14 -7 14 6 0 13 -4 16 -10z m319 -5 c16 -12 22 -12 35 -2 12
10 14 9 8 -5 -7 -20 25 -43 48 -34 9 3 12 0 8 -10 -7 -18 -8 -18 -38 2 -13 9
-29 13 -35 9 -5 -3 -10 1 -10 9 0 9 -11 18 -25 22 -14 3 -25 10 -25 15 0 13
12 11 34 -6z m-1609 -4 c3 -5 2 -12 -3 -15 -5 -3 -9 1 -9 9 0 17 3 19 12 6z
m424 -3 c11 -10 14 -10 18 0 3 6 10 12 16 12 8 0 8 -3 -1 -12 -9 -9 -7 -15 6
-25 12 -10 9 -10 -13 1 -42 21 -62 36 -49 36 5 0 16 -6 23 -12z m171 -11 c0
-1 -11 -2 -24 -2 -14 0 -22 5 -19 12 4 9 10 10 24 2 10 -5 19 -11 19 -12z
m657 9 c-3 -7 -1 -18 4 -23 5 -5 1 -9 -10 -9 -19 0 -22 11 -8 34 11 16 20 15
14 -2z m204 -1 c11 6 11 5 2 -5 -6 -7 -9 -20 -5 -29 5 -14 4 -14 -11 -2 -9 7
-17 23 -17 35 0 16 2 18 9 7 5 -8 14 -10 22 -6z m-1641 0 c0 -2 -10 -9 -22
-15 -22 -11 -22 -10 -4 4 21 17 26 19 26 11z m920 -10 c0 -2 -6 -5 -13 -8 -8
-3 -14 1 -14 8 0 7 6 11 14 8 7 -3 13 -6 13 -8z m308 -6 c2 -9 -5 -15 -17 -15
-14 0 -17 4 -11 12 6 6 6 14 2 19 -4 4 0 6 8 3 8 -3 16 -11 18 -19z m-774 -2
c-3 -8 -11 -14 -19 -14 -21 0 -19 15 3 20 9 3 18 5 19 6 1 0 0 -5 -3 -12z
m118 6 c-6 -3 -10 -8 -7 -13 3 -4 -4 -6 -15 -3 -32 9 -31 18 3 19 18 1 26 -1
19 -3z m553 -11 c-3 -3 -11 0 -18 7 -9 10 -8 11 6 5 10 -3 15 -9 12 -12z m210
8 c3 -6 -1 -7 -9 -4 -18 7 -21 14 -7 14 6 0 13 -4 16 -10z m195 0 c0 -5 -4
-10 -10 -10 -5 0 -10 5 -10 10 0 6 5 10 10 10 6 0 10 -4 10 -10z m205 0 c3 -6
-1 -7 -9 -4 -18 7 -21 14 -7 14 6 0 13 -4 16 -10z m-1484 -17 c8 -9 9 -14 2
-10 -6 4 -14 1 -16 -5 -3 -8 -6 -6 -6 5 -1 11 -6 15 -13 11 -7 -4 -8 -3 -4 4
10 17 21 15 37 -5z m366 -13 c-1 -15 -5 -16 -19 -9 -23 12 -23 20 0 12 15 -6
15 -5 3 10 -12 15 -12 17 2 11 9 -3 15 -14 14 -24z m87 13 c-10 -7 -23 -13
-28 -12 -6 0 -5 3 2 6 6 2 10 8 8 12 -3 4 4 7 15 7 19 0 19 -1 3 -13z m688 -7
c10 6 11 4 0 -7 -10 -11 -15 -10 -30 6 -15 17 -15 18 0 6 9 -7 23 -9 30 -5z
m-218 -8 c-3 -4 -9 -8 -15 -8 -5 0 -9 4 -9 8 0 5 7 9 15 9 8 0 12 -4 9 -9z
m101 2 c-3 -5 -12 -10 -18 -10 -7 0 -6 4 3 10 19 12 23 12 15 0z m210 0 c3 -5
2 -10 -4 -10 -5 0 -13 5 -16 10 -3 6 -2 10 4 10 5 0 13 -4 16 -10z m95 5 c0
-2 -10 -10 -22 -16 -21 -11 -22 -11 -9 4 13 16 31 23 31 12z m95 -5 c-3 -5
-12 -10 -18 -10 -7 0 -6 4 3 10 19 12 23 12 15 0z m125 4 c0 -2 -9 -8 -20 -14
-15 -8 -18 -8 -14 3 4 11 34 21 34 11z m-1503 -31 c0 -14 -1 -14 -12 1 -7 8
-16 12 -20 8 -5 -4 -5 -2 -1 5 9 16 33 6 33 -14z m203 16 c0 -3 -9 -9 -19 -12
-13 -3 -18 0 -15 7 5 13 34 18 34 5z m733 -14 c-7 -21 -12 -19 -10 4 0 11 5
18 9 15 4 -3 5 -11 1 -19z m-987 -13 c-4 -3 -14 2 -24 12 -16 18 -16 18 6 6
13 -6 21 -14 18 -18z m129 18 c-3 -5 -11 -10 -16 -10 -6 0 -7 5 -4 10 3 6 11
10 16 10 6 0 7 -4 4 -10z m316 -7 c13 -15 12 -15 -8 -4 -24 12 -29 21 -14 21
5 0 15 -7 22 -17z m740 0 c13 -15 12 -15 -8 -4 -24 12 -29 21 -14 21 5 0 15
-7 22 -17z m94 -1 c-3 -3 -11 0 -18 7 -9 10 -8 11 6 5 10 -3 15 -9 12 -12z
m295 8 c0 -5 -2 -10 -4 -10 -3 0 -8 5 -11 10 -3 6 -1 10 4 10 6 0 11 -4 11
-10z m-905 -18 c-3 -3 -11 0 -18 7 -9 10 -8 11 6 5 10 -3 15 -9 12 -12z m825
-8 c0 -2 -9 0 -20 6 -11 6 -20 13 -20 16 0 2 9 0 20 -6 11 -6 20 -13 20 -16z
m-1400 4 c0 -4 -7 -8 -15 -8 -8 0 -15 4 -15 8 0 5 7 9 15 9 8 0 15 -4 15 -9z
m830 -8 c0 -11 -4 -20 -9 -20 -5 0 -7 9 -4 20 3 11 7 20 9 20 2 0 4 -9 4 -20z
m165 10 c3 -6 -1 -7 -9 -4 -18 7 -21 14 -7 14 6 0 13 -4 16 -10z m-655 -10 c0
-5 -2 -10 -4 -10 -3 0 -8 5 -11 10 -3 6 -1 10 4 10 6 0 11 -4 11 -10z m395 -8
c-3 -3 -11 0 -18 7 -9 10 -8 11 6 5 10 -3 15 -9 12 -12z m-830 -2 c3 -5 2 -10
-4 -10 -5 0 -13 5 -16 10 -3 6 -2 10 4 10 5 0 13 -4 16 -10z m507 -20 c-2 -16
-6 -30 -8 -30 -2 0 -4 14 -4 30 0 17 4 30 8 30 5 0 7 -13 4 -30z m725 -2 c-3
-7 -5 -2 -5 12 0 14 2 19 5 13 2 -7 2 -19 0 -25z m103 28 c0 -2 -7 -7 -16 -10
-8 -3 -12 -2 -9 4 6 10 25 14 25 6z m-963 -21 c0 -8 -4 -12 -9 -9 -5 3 -6 10
-3 15 9 13 12 11 12 -6z m113 3 c0 -11 -28 -10 -35 1 -3 6 4 9 15 8 11 -1 20
-5 20 -9z m-439 -15 c13 -15 12 -15 -8 -4 -24 12 -29 21 -14 21 5 0 15 -7 22
-17z m40 -8 c5 4 9 2 9 -4 0 -5 -6 -12 -12 -15 -10 -5 -10 -7 0 -12 6 -3 12
-13 12 -22 0 -14 -2 -15 -9 -3 -7 11 -10 7 -14 -15 -2 -16 -4 0 -4 36 -1 36 1
57 4 47 2 -9 9 -15 14 -12z m39 15 c0 -5 -5 -10 -11 -10 -5 0 -7 5 -4 10 3 6
8 10 11 10 2 0 4 -4 4 -10z m1165 0 c-3 -5 -12 -7 -20 -3 -21 7 -19 13 6 13
11 0 18 -4 14 -10z m284 -17 c0 -25 -1 -25 -8 -8 -5 11 -7 23 -4 28 8 14 13 7
12 -20z m-579 13 c0 -3 -4 -8 -10 -11 -5 -3 -10 -1 -10 4 0 6 5 11 10 11 6 0
10 -2 10 -4z m180 -6 c0 -5 -2 -10 -4 -10 -3 0 -8 5 -11 10 -3 6 -1 10 4 10 6
0 11 -4 11 -10z m-615 -10 c-3 -5 -12 -10 -18 -10 -7 0 -6 4 3 10 19 12 23 12
15 0z m-71 -26 c17 4 22 1 22 -14 0 -11 -4 -20 -8 -20 -4 0 -8 4 -8 9 0 4 -12
6 -26 3 -19 -3 -25 -1 -20 7 4 6 1 11 -7 11 -8 0 -21 7 -28 17 -13 14 -11 14
20 -1 18 -10 43 -15 55 -12z m346 -6 c0 -6 -6 -5 -15 2 -8 7 -15 14 -15 16 0
2 7 1 15 -2 8 -4 15 -11 15 -16z m505 12 c-3 -5 -12 -10 -18 -10 -7 0 -6 4 3
10 19 12 23 12 15 0z m-1296 -36 c-6 -8 -16 -14 -21 -14 -7 0 -6 5 1 13 6 8 8
17 4 21 -4 4 0 4 10 0 14 -5 15 -9 6 -20z m1251 16 c13 -9 13 -10 0 -11 -8 -1
-21 -1 -28 0 -8 1 -20 -3 -28 -10 -8 -6 -17 -9 -20 -6 -3 3 7 12 23 21 34 18
34 18 53 6z m-1170 -20 c0 -5 -2 -10 -4 -10 -3 0 -8 5 -11 10 -3 6 -1 10 4 10
6 0 11 -4 11 -10z m309 -17 c0 -25 -1 -25 -8 -8 -5 11 -7 23 -4 28 8 14 13 7
12 -20z m496 17 c3 -5 1 -10 -4 -10 -6 0 -11 5 -11 10 0 6 2 10 4 10 3 0 8 -4
11 -10z m705 0 c0 -5 -5 -10 -11 -10 -5 0 -7 5 -4 10 3 6 8 10 11 10 2 0 4 -4
4 -10z m-1640 -19 c0 -5 -7 -12 -16 -15 -14 -5 -15 -4 -4 9 14 17 20 19 20 6z
m570 -1 c0 -5 -2 -10 -4 -10 -3 0 -8 5 -11 10 -3 6 -1 10 4 10 6 0 11 -4 11
-10z m220 -10 c-27 -21 -45 -26 -35 -9 6 9 41 27 55 28 3 0 -6 -8 -20 -19z
m-405 0 c-3 -5 -11 -10 -16 -10 -6 0 -7 5 -4 10 3 6 11 10 16 10 6 0 7 -4 4
-10z m605 0 c0 -5 -2 -10 -4 -10 -3 0 -8 5 -11 10 -3 6 -1 10 4 10 6 0 11 -4
11 -10z m190 -5 c0 -8 -7 -15 -16 -15 -14 0 -14 3 -4 15 7 8 14 15 16 15 2 0
4 -7 4 -15z m215 -3 c-3 -3 -11 0 -18 7 -9 10 -8 11 6 5 10 -3 15 -9 12 -12z
m-1670 -2 c3 -5 1 -10 -4 -10 -6 0 -11 5 -11 10 0 6 2 10 4 10 3 0 8 -4 11
-10z m788 -10 c3 -11 1 -20 -4 -20 -5 0 -9 9 -9 20 0 11 2 20 4 20 2 0 6 -9 9
-20z m-413 -1 c0 -5 -4 -7 -10 -4 -5 3 -10 -2 -10 -12 0 -14 -2 -15 -9 -4 -7
11 -14 10 -40 -8 -17 -12 -31 -29 -31 -37 0 -19 6 -18 46 6 20 13 35 17 39 10
3 -5 -1 -10 -10 -10 -9 0 -13 -4 -10 -10 3 -5 0 -8 -7 -5 -7 3 -37 -10 -65
-29 -29 -19 -62 -37 -73 -41 -11 -3 -20 -11 -20 -16 0 -13 -28 -11 -36 4 -4 6
-4 9 1 5 9 -9 65 19 65 32 0 6 3 9 8 8 19 -5 52 15 52 33 0 10 -3 19 -8 19 -9
0 -55 -31 -63 -43 -3 -5 -8 -8 -10 -8 -17 2 -47 -13 -42 -22 4 -6 1 -7 -7 -2
-7 4 -15 2 -20 -4 -5 -9 -10 -8 -19 3 -9 11 -9 16 0 22 8 5 9 3 4 -6 -6 -10
-4 -12 9 -7 10 4 20 7 22 7 3 0 3 4 0 9 -3 5 2 8 12 7 9 0 16 5 14 12 -1 8 2
11 7 7 10 -6 39 8 136 65 53 31 75 37 75 19z m380 1 c-20 -13 -33 -13 -25 0 3
6 14 10 23 10 15 0 15 -2 2 -10z m770 -15 c-7 -8 -18 -15 -24 -15 -6 0 -2 7 8
15 25 19 32 19 16 0z m-1109 -12 c13 -15 12 -15 -8 -4 -24 12 -29 21 -14 21 5
0 15 -7 22 -17z m299 7 c0 -5 -5 -10 -11 -10 -5 0 -7 5 -4 10 3 6 8 10 11 10
2 0 4 -4 4 -10z m493 -15 c-7 -21 -13 -19 -13 6 0 11 4 18 10 14 5 -3 7 -12 3
-20z m711 10 c-4 -8 -10 -12 -15 -9 -11 6 -2 24 11 24 5 0 7 -7 4 -15z m-1354
-17 c0 -5 -9 -4 -20 2 -11 6 -20 12 -20 14 0 2 9 2 20 -1 11 -3 20 -9 20 -15z
m-475 -6 c-3 -3 -11 0 -18 7 -9 10 -8 11 6 5 10 -3 15 -9 12 -12z m755 8 c0
-5 -2 -10 -4 -10 -3 0 -8 5 -11 10 -3 6 -1 10 4 10 6 0 11 -4 11 -10z m124 2
c2 -4 -4 -8 -14 -8 -10 0 -16 4 -14 8 3 4 9 8 14 8 5 0 11 -4 14 -8z m402 -4
c4 -7 3 -8 -5 -4 -6 4 -20 2 -29 -6 -15 -12 -16 -11 -3 5 16 20 27 22 37 5z
m399 2 c3 -6 -1 -7 -9 -4 -18 7 -21 14 -7 14 6 0 13 -4 16 -10z m-1125 -20
c-22 -17 -21 -25 3 -21 4 0 7 -4 7 -10 0 -5 5 -7 12 -3 7 5 8 3 4 -5 -5 -7 0
-18 10 -27 17 -12 17 -13 2 -8 -13 4 -18 1 -19 -12 0 -11 -5 -4 -10 14 -5 18
-18 37 -28 44 -18 11 -18 12 3 29 11 10 26 18 31 18 6 1 -1 -8 -15 -19z m67
-12 c-3 -7 -5 -2 -5 12 0 14 2 19 5 13 2 -7 2 -19 0 -25z m563 17 c7 -9 19
-14 27 -11 8 3 11 1 8 -4 -3 -6 -9 -10 -13 -10 -12 1 -57 40 -46 40 6 0 17 -7
24 -15z m180 5 c0 -5 -5 -10 -11 -10 -5 0 -7 5 -4 10 3 6 8 10 11 10 2 0 4 -4
4 -10z m215 0 c3 -5 2 -10 -4 -10 -5 0 -13 5 -16 10 -3 6 -2 10 4 10 5 0 13
-4 16 -10z m-1550 -10 c3 -5 1 -10 -4 -10 -6 0 -11 5 -11 10 0 6 2 10 4 10 3
0 8 -4 11 -10z m273 -23 c-21 -21 -48 -29 -42 -12 3 8 11 13 17 12 7 -1 11 4
9 11 -1 8 2 11 8 7 5 -3 10 0 11 7 0 10 2 10 6 1 2 -7 -1 -19 -9 -26z m662 29
c0 -3 -4 -8 -10 -11 -5 -3 -10 -1 -10 4 0 6 5 11 10 11 6 0 10 -2 10 -4z
m-155 -24 c-3 -3 -11 0 -18 7 -9 10 -8 11 6 5 10 -3 15 -9 12 -12z m287 -8
c-12 -8 -19 -20 -16 -26 4 -6 -2 -6 -15 1 -23 13 -29 23 -8 15 7 -2 22 4 32
16 10 11 21 18 24 15 2 -3 -5 -12 -17 -21z m438 3 c0 -2 -8 -3 -18 -3 -10 0
-19 6 -19 13 0 8 6 9 19 2 10 -5 18 -11 18 -12z m210 18 c0 -2 -10 -9 -22 -15
-22 -11 -22 -10 -4 4 21 17 26 19 26 11z m95 -5 c-3 -5 -12 -10 -18 -10 -7 0
-6 4 3 10 19 12 23 12 15 0z m-1825 -15 c11 -13 10 -14 -3 -9 -8 3 -24 1 -35
-5 -14 -7 -19 -7 -19 4 0 7 6 11 14 8 7 -3 13 0 13 6 0 16 15 14 30 -4z m405
5 c3 -6 -1 -7 -9 -4 -18 7 -21 14 -7 14 6 0 13 -4 16 -10z m915 6 c0 -2 -7 -7
-16 -10 -8 -3 -12 -2 -9 4 6 10 25 14 25 6z m262 -8 c-13 -6 -21 -17 -18 -24
5 -12 -22 -29 -31 -20 -8 7 45 56 59 55 7 0 3 -5 -10 -11z m196 -6 c15 11 14
10 -1 -8 -9 -11 -14 -24 -10 -28 4 -4 0 -4 -9 -1 -17 7 -30 40 -20 50 3 3 10
-2 15 -10 7 -13 11 -14 25 -3z m-1405 -7 c5 -12 -37 -14 -49 -2 -5 4 0 5 10 1
12 -5 17 -4 13 3 -3 5 0 10 8 10 8 0 16 -5 18 -12z m101 -4 c-10 -10 -23 -16
-28 -13 -5 3 2 11 15 18 33 18 36 17 13 -5z m166 9 c0 -5 -4 -10 -10 -10 -5 0
-10 5 -10 10 0 6 5 10 10 10 6 0 10 -4 10 -10z m526 -10 c0 -10 -2 -17 -5 -15
-2 3 -10 0 -18 -7 -12 -10 -12 -7 -2 15 14 32 25 35 25 7z m187 8 c3 -10 8
-10 23 2 18 14 18 14 1 -6 -9 -11 -14 -23 -11 -27 3 -3 -3 -3 -13 -1 -10 3
-19 14 -19 25 0 21 12 26 19 7z m302 -16 c-3 -3 -11 0 -18 7 -9 10 -8 11 6 5
10 -3 15 -9 12 -12z m-390 -2 c3 -6 -1 -7 -9 -4 -18 7 -21 14 -7 14 6 0 13 -4
16 -10z m-1050 -18 c-3 -3 -11 0 -18 7 -9 10 -8 11 6 5 10 -3 15 -9 12 -12z
m284 11 c-4 -26 2 -43 14 -37 8 5 8 2 -2 -9 -19 -24 -29 -21 -26 8 2 14 -2 25
-8 25 -7 0 -5 5 3 10 18 12 20 12 19 3z m211 -19 c0 -2 -9 0 -20 6 -11 6 -20
13 -20 16 0 2 9 0 20 -6 11 -6 20 -13 20 -16z m-365 6 c3 -5 2 -10 -4 -10 -5
0 -13 5 -16 10 -3 6 -2 10 4 10 5 0 13 -4 16 -10z m90 0 c4 -6 -1 -7 -12 -3
-16 6 -17 5 -3 -12 14 -17 14 -18 -9 -6 -19 10 -21 15 -10 22 18 11 26 11 34
-1z m779 -21 c-3 -6 -7 -9 -8 -7 -1 2 -8 12 -16 22 -14 18 -14 19 8 7 12 -7
20 -17 16 -22z m96 16 c-7 -8 -18 -15 -24 -15 -6 0 -2 7 8 15 25 19 32 19 16
0z m418 11 c-22 -16 -78 -43 -63 -31 11 9 19 19 18 23 -1 4 10 8 23 8 14 1 24
1 22 0z m-728 -17 c0 -5 -4 -8 -9 -4 -5 3 -12 1 -16 -5 -3 -5 -12 -10 -18 -10
-7 0 -3 7 7 15 23 18 36 19 36 4z m120 7 c0 -2 -7 -7 -16 -10 -8 -3 -12 -2 -9
4 6 10 25 14 25 6z m280 -6 c0 -5 -4 -10 -10 -10 -5 0 -10 5 -10 10 0 6 5 10
10 10 6 0 10 -4 10 -10z m120 0 c0 -5 -4 -10 -10 -10 -5 0 -10 5 -10 10 0 6 5
10 10 10 6 0 10 -4 10 -10z m280 0 c0 -5 -4 -10 -10 -10 -5 0 -10 5 -10 10 0
6 5 10 10 10 6 0 10 -4 10 -10z m-1157 -12 c-2 -5 -10 -8 -18 -8 -8 0 -16 3
-18 8 -3 4 5 7 18 7 13 0 21 -3 18 -7z m102 1 c11 -17 -1 -21 -15 -4 -8 9 -8
15 -2 15 6 0 14 -5 17 -11z m-790 -9 c3 -5 2 -10 -4 -10 -5 0 -13 5 -16 10 -3
6 -2 10 4 10 5 0 13 -4 16 -10z m1195 0 c0 -5 -2 -10 -4 -10 -3 0 -8 5 -11 10
-3 6 -1 10 4 10 6 0 11 -4 11 -10z m215 0 c-3 -5 -12 -10 -18 -10 -7 0 -6 4 3
10 19 12 23 12 15 0z m190 0 c3 -5 2 -10 -4 -10 -5 0 -13 5 -16 10 -3 6 -2 10
4 10 5 0 13 -4 16 -10z m-1540 -10 c3 -5 1 -10 -6 -10 -7 0 -4 -7 7 -16 18
-15 18 -15 0 -6 -11 5 -21 17 -22 26 -2 18 11 22 21 6z m415 -16 c0 -2 -9 0
-20 6 -11 6 -20 13 -20 16 0 2 9 0 20 -6 11 -6 20 -13 20 -16z m1030 11 c0 -2
-6 -5 -13 -8 -8 -3 -14 1 -14 8 0 7 6 11 14 8 7 -3 13 -6 13 -8z m-1330 1 c0
-3 -4 -8 -10 -11 -5 -3 -10 -1 -10 4 0 6 5 11 10 11 6 0 10 -2 10 -4z m935 -6
c3 -6 -1 -7 -9 -4 -18 7 -21 14 -7 14 6 0 13 -4 16 -10z m145 -20 c0 -6 -9 -2
-20 7 -11 10 -20 19 -20 21 0 1 9 -2 20 -8 11 -6 20 -15 20 -20z m-640 5 c-7
-8 -18 -15 -24 -15 -6 0 -2 7 8 15 25 19 32 19 16 0z m335 5 c-3 -5 -11 -10
-16 -10 -6 0 -7 5 -4 10 3 6 11 10 16 10 6 0 7 -4 4 -10z m415 6 c0 -2 -7 -7
-16 -10 -8 -3 -12 -2 -9 4 6 10 25 14 25 6z m287 -18 c-3 -8 -6 -5 -6 6 -1 11
2 17 5 13 3 -3 4 -12 1 -19z m108 12 c-3 -5 -11 -10 -16 -10 -6 0 -7 5 -4 10
3 6 11 10 16 10 6 0 7 -4 4 -10z m-1645 -15 c0 -8 -7 -15 -15 -15 -13 0 -14 3
-3 15 16 18 18 18 18 0z m680 -26 c0 -6 -4 -7 -10 -4 -5 3 -10 11 -10 16 0 6
5 7 10 4 6 -3 10 -11 10 -16z m230 17 c0 -2 -7 -7 -16 -10 -8 -3 -12 -2 -9 4
6 10 25 14 25 6z m280 -6 c0 -5 -2 -10 -4 -10 -3 0 -8 5 -11 10 -3 6 -1 10 4
10 6 0 11 -4 11 -10z m400 0 c0 -5 -2 -10 -4 -10 -3 0 -8 5 -11 10 -3 6 -1 10
4 10 6 0 11 -4 11 -10z m-1255 -10 c3 -6 -1 -7 -9 -4 -18 7 -21 14 -7 14 6 0
13 -4 16 -10z m105 6 c0 -3 -4 -8 -10 -11 -5 -3 -10 -1 -10 4 0 6 5 11 10 11
6 0 10 -2 10 -4z m645 -6 c3 -5 2 -10 -4 -10 -5 0 -13 5 -16 10 -3 6 -2 10 4
10 5 0 13 -4 16 -10z m210 0 c-3 -5 -11 -10 -16 -10 -6 0 -7 5 -4 10 3 6 11
10 16 10 6 0 7 -4 4 -10z m190 0 c3 -5 2 -10 -4 -10 -5 0 -13 5 -16 10 -3 6
-2 10 4 10 5 0 13 -4 16 -10z m-345 -36 c0 -2 -9 0 -20 6 -11 6 -20 13 -20 16
0 2 9 0 20 -6 11 -6 20 -13 20 -16z m-395 6 c3 -5 2 -10 -4 -10 -5 0 -13 5
-16 10 -3 6 -2 10 4 10 5 0 13 -4 16 -10z m95 6 c0 -3 -4 -8 -10 -11 -5 -3
-10 -1 -10 4 0 6 5 11 10 11 6 0 10 -2 10 -4z m700 -6 c0 -5 -2 -10 -4 -10 -3
0 -8 5 -11 10 -3 6 -1 10 4 10 6 0 11 -4 11 -10z m105 0 c-3 -5 -11 -10 -16
-10 -6 0 -7 5 -4 10 3 6 11 10 16 10 6 0 7 -4 4 -10z m-35 -20 c0 -5 -6 -10
-12 -13 -18 -5 -48 4 -48 15 0 5 4 7 9 3 5 -3 12 -1 16 4 6 11 35 3 35 -9z
m-815 0 c-3 -5 -12 -10 -18 -10 -7 0 -6 4 3 10 19 12 23 12 15 0z m399 -11
c-3 -5 -14 -5 -25 1 -26 14 -24 18 6 12 14 -2 22 -8 19 -13z m-1197 -21 c-3
-7 -5 -2 -5 12 0 14 2 19 5 13 2 -7 2 -19 0 -25z m430 -10 c-3 -7 -5 -2 -5 12
0 14 2 19 5 13 2 -7 2 -19 0 -25z m1056 -10 c-10 -18 -20 -6 -15 19 5 24 6 25
12 8 4 -11 6 -23 3 -27z m57 32 c0 -5 -5 -10 -11 -10 -5 0 -7 5 -4 10 3 6 8
10 11 10 2 0 4 -4 4 -10z m105 -8 c-3 -3 -11 0 -18 7 -9 10 -8 11 6 5 10 -3
15 -9 12 -12z m-500 -2 c-3 -5 -11 -10 -16 -10 -6 0 -7 5 -4 10 3 6 11 10 16
10 6 0 7 -4 4 -10z m90 0 c3 -5 2 -10 -4 -10 -5 0 -13 5 -16 10 -3 6 -2 10 4
10 5 0 13 -4 16 -10z m-495 -25 c0 -2 -10 -9 -22 -15 -22 -11 -22 -10 -4 4 21
17 26 19 26 11z m95 -5 c3 -5 1 -10 -4 -10 -6 0 -11 5 -11 10 0 6 2 10 4 10 3
0 8 -4 11 -10z m755 0 c0 -5 -5 -10 -11 -10 -5 0 -7 5 -4 10 3 6 8 10 11 10 2
0 4 -4 4 -10z m-510 -10 c0 -5 -4 -10 -10 -10 -5 0 -10 5 -10 10 0 6 5 10 10
10 6 0 10 -4 10 -10z m225 0 c3 -5 2 -10 -4 -10 -5 0 -13 5 -16 10 -3 6 -2 10
4 10 5 0 13 -4 16 -10z m-620 -20 c-3 -5 -12 -10 -18 -10 -7 0 -6 4 3 10 19
12 23 12 15 0z m215 -5 c7 -8 8 -15 2 -15 -5 0 -15 7 -22 15 -7 8 -8 15 -2 15
5 0 15 -7 22 -15z m240 0 c0 -8 -4 -15 -10 -15 -5 0 -7 7 -4 15 4 8 8 15 10
15 2 0 4 -7 4 -15z m511 -2 c13 -15 12 -15 -8 -4 -24 12 -29 21 -14 21 5 0 15
-7 22 -17z m-1311 3 c0 -2 -7 -7 -16 -10 -8 -3 -12 -2 -9 4 6 10 25 14 25 6z
m455 -17 c2 -9 -5 -15 -17 -15 -17 0 -18 2 -3 12 10 8 12 14 5 17 -6 3 -6 5 1
3 7 -1 13 -9 14 -17z m-857 -2 c-15 -10 -15 -12 4 -28 11 -10 33 -21 49 -24
30 -7 40 -25 13 -25 -9 0 -12 -5 -8 -12 4 -6 3 -8 -4 -5 -15 10 -43 -3 -35
-17 3 -6 3 -8 -2 -4 -4 4 -33 -6 -64 -23 -31 -17 -47 -23 -36 -14 11 9 46 31
77 48 32 18 58 34 58 37 0 6 -61 33 -72 32 -3 -1 -5 4 -4 11 3 20 16 37 29 36
7 0 5 -5 -5 -12z m807 -28 c-3 -3 13 -6 34 -6 33 0 39 3 36 19 -3 12 1 18 8
15 7 -2 12 -8 12 -13 0 -5 4 -15 8 -21 6 -9 3 -11 -7 -7 -9 3 -16 1 -16 -5 0
-9 -5 -9 -20 -1 -14 8 -26 8 -40 0 -15 -8 -20 -8 -20 1 0 6 -7 8 -16 5 -10 -4
-13 -2 -7 7 4 6 8 15 9 20 1 4 2 10 3 15 1 4 5 0 10 -8 6 -8 8 -17 6 -21z
m500 -10 c7 -11 45 -12 45 -1 0 4 -6 14 -12 21 -11 10 -8 10 14 0 25 -11 26
-13 10 -25 -20 -14 -21 -13 36 -48 24 -15 48 -23 55 -19 9 5 9 4 0 -8 -7 -8
-11 -35 -10 -59 2 -39 5 -45 22 -43 14 1 21 -4 21 -17 0 -14 -4 -16 -13 -9
-27 23 -47 -23 -21 -49 9 -9 9 -12 -1 -12 -7 0 -11 -9 -9 -22 3 -24 -12 -37
-64 -59 -16 -6 -28 -17 -28 -25 0 -7 -6 -11 -14 -8 -8 3 -24 -4 -35 -15 -12
-12 -23 -21 -26 -20 -20 3 -28 -14 -31 -60 -2 -44 0 -51 14 -46 14 5 14 4 1
-12 -10 -12 -15 -37 -15 -73 l1 -54 -45 -24 c-59 -31 -59 -30 -30 -54 14 -11
19 -17 12 -13 -7 4 -21 1 -30 -7 -15 -11 -16 -11 -4 3 22 29 -15 31 -63 4
l-43 -26 -37 21 c-20 11 -47 28 -61 36 -13 9 -31 14 -39 10 -8 -3 -14 0 -12 6
1 7 -13 19 -31 28 -18 9 -30 19 -26 23 4 4 22 -2 40 -13 24 -16 33 -17 37 -8
3 8 6 6 6 -4 1 -10 8 -18 16 -18 8 0 15 -4 15 -8 0 -12 50 -33 61 -26 5 3 8 0
7 -8 -2 -8 7 -13 22 -13 15 0 24 5 22 13 -1 8 2 11 7 8 11 -7 61 13 61 25 0
10 -30 20 -43 13 -7 -3 -3 1 8 10 11 8 26 20 33 26 8 8 12 8 12 0 0 -6 -7 -13
-15 -16 -14 -6 -13 -8 2 -19 15 -11 22 -10 43 4 14 10 32 20 41 24 13 4 17 19
18 63 0 32 -5 65 -12 73 -10 12 -9 13 1 7 11 -6 12 4 10 49 -4 49 -1 59 14 63
10 2 18 8 18 13 0 5 9 9 19 9 11 0 26 6 33 13 7 7 24 18 38 25 69 35 80 44 80
63 0 13 -4 18 -12 13 -10 -6 -10 -4 0 7 22 24 15 65 -14 78 -15 6 -24 15 -20
18 3 4 12 1 18 -5 19 -19 28 -14 28 16 0 21 -7 32 -26 41 -15 6 -24 15 -20 18
3 4 12 1 18 -5 17 -17 28 -15 28 6 0 21 -75 63 -97 55 -11 -4 -14 -2 -9 5 10
17 -70 65 -95 57 -16 -5 -18 -9 -8 -21 7 -8 19 -12 28 -9 13 5 13 4 4 -6 -10
-10 -17 -9 -32 5 -19 17 -21 17 -50 -3 -16 -12 -34 -21 -40 -21 -6 0 -11 -4
-11 -8 0 -4 -15 -14 -32 -22 -18 -7 -37 -16 -43 -18 -5 -3 -7 -1 -3 3 9 9 -9
35 -24 35 -6 0 -4 -7 3 -17 13 -15 12 -15 -10 -3 -21 11 -22 14 -8 22 11 6 24
4 40 -7 21 -14 25 -13 43 3 10 9 38 26 62 36 23 11 42 24 42 29 0 6 3 7 6 4 4
-3 15 0 26 7 16 12 24 12 48 -1 16 -8 32 -18 35 -24z m245 36 c0 -2 -10 -10
-22 -16 -21 -11 -22 -11 -9 4 13 16 31 23 31 12z m205 -6 c11 -16 1 -19 -13
-3 -7 8 -8 14 -3 14 5 0 13 -5 16 -11z m-1200 -9 c3 -5 2 -10 -4 -10 -5 0 -13
5 -16 10 -3 6 -2 10 4 10 5 0 13 -4 16 -10z m485 -16 c0 -2 -9 0 -20 6 -11 6
-20 13 -20 16 0 2 9 0 20 -6 11 -6 20 -13 20 -16z m100 17 c0 -5 -7 -12 -16
-15 -14 -5 -15 -4 -4 9 14 17 20 19 20 6z m470 -16 c11 -13 10 -14 -4 -9 -9 3
-16 10 -16 15 0 13 6 11 20 -6z m180 5 c0 -5 -4 -10 -10 -10 -5 0 -10 5 -10
10 0 6 5 10 10 10 6 0 10 -4 10 -10z m-1855 -10 c-3 -5 -1 -10 5 -10 6 0 9 -4
5 -9 -3 -5 4 -12 15 -16 21 -7 29 -27 8 -22 -19 4 -45 31 -40 41 3 5 -3 6 -14
3 -18 -7 -18 -7 0 8 23 17 30 19 21 5z m1571 -2 c4 -7 3 -8 -5 -4 -6 4 -20 2
-29 -6 -15 -12 -16 -11 -3 5 16 20 27 22 37 5z m-881 -8 c-3 -5 -12 -10 -18
-10 -7 0 -6 4 3 10 19 12 23 12 15 0z m112 -4 c0 -8 -6 -12 -14 -9 -7 3 -10 9
-7 14 8 14 21 11 21 -5z m223 -11 c-11 -12 -17 -24 -14 -28 3 -3 -4 -3 -17 0
-15 4 -20 3 -15 -5 5 -8 2 -10 -9 -6 -13 5 -10 10 15 25 17 11 29 23 26 27 -2
4 4 8 14 8 19 0 19 -1 0 -21z m115 7 c-3 -3 -11 0 -18 7 -9 10 -8 11 6 5 10
-3 15 -9 12 -12z m465 -7 c7 -9 8 -15 2 -15 -5 0 -12 7 -16 15 -3 8 -4 15 -2
15 2 0 9 -7 16 -15z m123 1 c4 -10 0 -12 -15 -8 -15 4 -17 7 -6 13 17 11 15
11 21 -5z m-218 -6 c-3 -5 -12 -10 -18 -10 -7 0 -6 4 3 10 19 12 23 12 15 0z
m-762 -33 c-3 -5 -9 -4 -13 3 -4 7 -12 10 -17 7 -5 -3 -10 0 -10 7 0 11 5 12
23 4 13 -6 21 -15 17 -21z m100 12 c5 -3 -5 -6 -22 -5 -27 1 -29 3 -14 13 9 7
19 10 22 6 3 -4 10 -11 14 -14z m-653 -9 c14 -11 20 -20 14 -20 -7 0 -22 9
-35 20 -31 25 -12 26 21 0z m1438 -8 c-13 -9 -26 -21 -30 -26 -5 -7 -8 -5 -8
5 0 9 9 19 21 22 12 3 18 10 14 16 -4 7 0 8 10 5 13 -6 12 -9 -7 -22z m-374
10 c2 -4 -4 -8 -14 -8 -10 0 -16 4 -14 8 3 4 9 8 14 8 5 0 11 -4 14 -8z m136
-13 l25 -21 -28 16 c-15 9 -33 14 -39 10 -7 -4 -8 -3 -4 4 10 16 17 15 46 -9z
m160 17 c0 -3 -4 -8 -10 -11 -5 -3 -10 -1 -10 4 0 6 5 11 10 11 6 0 10 -2 10
-4z m219 1 c-2 -1 -13 -9 -24 -17 -19 -14 -19 -14 -6 3 7 9 18 17 24 17 6 0 8
-1 6 -3z m-1799 -32 c0 -2 -6 -5 -13 -8 -8 -3 -14 1 -14 8 0 7 6 11 14 8 7 -3
13 -6 13 -8z m835 5 c-3 -5 -12 -10 -18 -10 -7 0 -6 4 3 10 19 12 23 12 15 0z
m205 0 c0 -5 -2 -10 -4 -10 -3 0 -8 5 -11 10 -3 6 -1 10 4 10 6 0 11 -4 11
-10z m702 -4 c10 6 11 4 0 -7 -10 -11 -15 -10 -30 6 -15 17 -15 18 0 6 9 -7
23 -9 30 -5z m-1202 -8 c0 -4 -4 -8 -9 -8 -6 0 -12 4 -15 8 -3 5 1 9 9 9 8 0
15 -4 15 -9z m240 8 c0 -2 -7 -7 -16 -10 -8 -3 -12 -2 -9 4 6 10 25 14 25 6z
m155 -14 c-3 -3 -11 0 -18 7 -9 10 -8 11 6 5 10 -3 15 -9 12 -12z m170 8 c3
-5 2 -10 -4 -10 -5 0 -13 5 -16 10 -3 6 -2 10 4 10 5 0 13 -4 16 -10z m235 -4
c-7 -7 -13 -7 -20 0 -6 6 -3 10 10 10 13 0 16 -4 10 -10z m-135 -6 c-3 -5 -12
-10 -18 -10 -7 0 -6 4 3 10 19 12 23 12 15 0z m690 -18 c-8 -8 -25 10 -19 20
4 6 9 5 15 -3 4 -7 6 -15 4 -17z m-1644 1 c13 -16 12 -17 -3 -4 -17 13 -22 21
-14 21 2 0 10 -8 17 -17z m539 13 c0 -2 -15 -13 -34 -24 -32 -19 -36 -19 -48
-4 -11 13 -11 15 4 9 10 -3 30 0 45 8 30 16 33 17 33 11z m363 -53 c0 -26 5
-51 11 -55 8 -5 7 -8 -1 -8 -16 0 -17 -42 -2 -57 9 -9 7 -11 -9 -6 -17 4 -20
10 -15 39 6 37 -3 42 -40 23 -18 -9 -20 -9 -10 2 10 10 9 16 -4 31 -16 18 -16
18 3 12 10 -4 22 -12 25 -17 4 -5 12 -6 18 -3 15 10 14 56 -1 57 -10 0 -10 2
0 6 6 2 12 12 12 21 0 8 3 13 6 9 4 -3 7 -28 7 -54z m427 42 c-7 -8 -18 -15
-24 -15 -6 0 -2 7 8 15 25 19 32 19 16 0z m-470 -5 c0 -5 -7 -7 -15 -4 -8 4
-15 8 -15 10 0 2 7 4 15 4 8 0 15 -4 15 -10z m-453 -22 c-3 -8 -6 -5 -6 6 -1
11 2 17 5 13 3 -3 4 -12 1 -19z m-687 2 c0 -5 -5 -10 -11 -10 -5 0 -7 5 -4 10
3 6 8 10 11 10 2 0 4 -4 4 -10z m1857 -37 c-3 -10 -5 -4 -5 12 0 17 2 24 5 18
2 -7 2 -21 0 -30z m-617 12 c0 -2 -10 -9 -22 -15 -22 -11 -22 -10 -4 4 21 17
26 19 26 11z m-520 -15 c0 -5 -2 -10 -4 -10 -3 0 -8 5 -11 10 -3 6 -1 10 4 10
6 0 11 -4 11 -10z m90 2 c0 -5 -11 -14 -25 -20 -14 -6 -25 -18 -25 -26 0 -7
-7 -16 -15 -20 -8 -3 -15 -1 -15 3 0 5 6 11 13 14 9 3 8 8 -3 22 -14 17 -13
18 3 12 11 -4 28 -1 40 8 25 17 27 18 27 7z m-783 -24 c-3 -8 -6 -5 -6 6 -1
11 2 17 5 13 3 -3 4 -12 1 -19z m665 -70 c-10 -23 -17 -2 -13 40 l5 47 6 -40
c3 -22 4 -43 2 -47z m1225 50 c-3 -8 -6 -5 -6 6 -1 11 2 17 5 13 3 -3 4 -12 1
-19z m-1890 -40 c-3 -7 -5 -2 -5 12 0 14 2 19 5 13 2 -7 2 -19 0 -25z m783 6
c0 -2 -9 0 -20 6 -11 6 -20 13 -20 16 0 2 9 0 20 -6 11 -6 20 -13 20 -16z
m260 11 c0 -8 -4 -15 -10 -15 -5 0 -7 7 -4 15 4 8 8 15 10 15 2 0 4 -7 4 -15z
m170 5 c0 -5 -2 -10 -4 -10 -3 0 -8 5 -11 10 -3 6 -1 10 4 10 6 0 11 -4 11
-10z m425 0 c3 -5 2 -10 -4 -10 -5 0 -13 5 -16 10 -3 6 -2 10 4 10 5 0 13 -4
16 -10z m199 -15 c-4 -8 -10 -13 -15 -10 -4 3 -6 12 -3 20 4 8 10 13 15 10 4
-3 6 -12 3 -20z m-404 5 c0 -5 -5 -10 -11 -10 -5 0 -7 5 -4 10 3 6 8 10 11 10
2 0 4 -4 4 -10z m-320 -39 c-5 -11 -15 -23 -22 -27 -7 -4 -8 -3 -4 4 4 7 2 12
-5 12 -7 0 -4 7 7 15 27 20 37 19 24 -4z m777 -3 c-3 -8 -6 -5 -6 6 -1 11 2
17 5 13 3 -3 4 -12 1 -19z m-1434 -42 c26 -15 47 -24 47 -20 0 4 9 -3 20 -16
11 -13 26 -20 34 -17 25 10 29 -11 5 -23 -12 -7 -19 -8 -16 -3 3 5 -34 33 -84
62 -49 29 -89 58 -89 64 0 5 8 3 18 -5 9 -8 38 -27 65 -42z m381 -6 c43 -25
90 -55 105 -67 25 -21 25 -22 8 -40 -18 -17 -18 -17 -12 7 5 21 0 28 -27 44
-185 107 -192 110 -186 79 2 -11 12 -18 25 -17 12 0 21 -4 20 -9 -1 -5 12 -16
28 -26 83 -46 125 -74 121 -78 -3 -3 -40 16 -82 42 -43 26 -85 44 -95 42 -12
-3 -16 0 -12 9 3 8 -5 18 -21 24 -14 5 -26 13 -26 16 0 4 3 4 7 1 3 -4 12 2
20 13 16 23 19 22 127 -40z m-172 -2 c-5 -21 -18 -23 -28 -6 -4 7 -3 8 4 4 8
-5 12 4 13 26 0 26 2 29 8 13 4 -11 6 -28 3 -37z m498 20 c0 -5 -6 -8 -14 -8
-9 0 -12 7 -9 21 4 16 8 17 14 7 5 -7 9 -16 9 -20z m54 1 c-3 -6 -7 -9 -8 -7
-1 2 -8 12 -16 22 -14 18 -14 19 8 7 12 -7 20 -17 16 -22z m116 17 c0 -3 -4
-8 -10 -11 -5 -3 -10 -1 -10 4 0 6 5 11 10 11 6 0 10 -2 10 -4z m305 -6 c3 -5
1 -10 -4 -10 -6 0 -11 5 -11 10 0 6 2 10 4 10 3 0 8 -4 11 -10z m-715 -26 c0
-2 -9 0 -20 6 -11 6 -20 13 -20 16 0 2 9 0 20 -6 11 -6 20 -13 20 -16z m124
-6 c-9 -15 -22 -8 -19 10 2 9 4 19 4 22 1 3 5 -2 10 -10 6 -8 7 -18 5 -22z
m396 28 c0 -2 -7 -7 -16 -10 -8 -3 -12 -2 -9 4 6 10 25 14 25 6z m395 -6 c-3
-5 -11 -10 -16 -10 -6 0 -7 5 -4 10 3 6 11 10 16 10 6 0 7 -4 4 -10z m-257
-13 c8 -10 6 -13 -7 -13 -10 0 -18 6 -18 13 0 17 12 17 25 0z m97 -5 c-3 -3
-11 0 -18 7 -9 10 -8 11 6 5 10 -3 15 -9 12 -12z m-556 -5 c8 -11 6 -13 -12
-11 -30 3 -29 3 -22 14 8 14 20 13 34 -3z m146 3 c3 -5 1 -10 -4 -10 -6 0 -11
5 -11 10 0 6 2 10 4 10 3 0 8 -4 11 -10z m135 -2 c0 -4 -7 -8 -15 -8 -8 0 -15
4 -15 8 0 5 7 9 15 9 8 0 15 -4 15 -9z m405 2 c3 -6 -1 -7 -9 -4 -18 7 -21 14
-7 14 6 0 13 -4 16 -10z m-1668 -6 c-3 -3 -12 -4 -19 -1 -8 3 -5 6 6 6 11 1
17 -2 13 -5z m260 -9 c0 -8 -4 -12 -9 -9 -5 3 -6 10 -3 15 9 13 12 11 12 -6z
m829 -5 c9 0 12 -5 9 -10 -4 -7 -13 -7 -26 0 -15 8 -21 7 -25 -3 -2 -7 -12
-14 -20 -14 -10 0 -5 8 13 23 15 12 30 18 31 13 2 -5 10 -9 18 -9z m618 -12
c-3 -4 4 -13 15 -20 20 -12 20 -12 0 -26 -11 -8 -23 -11 -26 -8 -3 3 2 8 11
12 15 6 15 8 -4 21 -11 8 -20 23 -20 34 0 16 2 18 14 7 8 -7 12 -16 10 -20z
m-781 3 c-5 -19 -33 -19 -33 1 0 5 4 7 9 3 5 -3 12 -1 16 5 10 16 14 12 8 -9z
m477 12 c0 -1 -8 -7 -18 -12 -13 -7 -19 -6 -19 2 0 7 9 13 19 13 10 0 18 -1
18 -3z m96 -8 c-8 -8 -18 -15 -22 -15 -3 0 -1 7 6 15 7 8 17 15 22 15 5 0 3
-7 -6 -15z m106 1 c10 6 11 4 0 -7 -10 -11 -15 -10 -30 6 -15 17 -15 18 0 6 9
-7 23 -9 30 -5z m-1042 -6 c8 -5 12 -11 10 -14 -3 -2 -14 2 -24 10 -22 15 -10
19 14 4z m280 0 c8 -5 11 -10 5 -10 -5 0 -17 5 -25 10 -8 5 -10 10 -5 10 6 0
17 -5 25 -10z m365 0 c-3 -5 -14 -10 -23 -9 -14 0 -13 2 3 9 27 11 27 11 20 0z
m-331 -57 c-1 -26 -5 -48 -10 -50 -8 -3 -9 16 -5 85 1 6 4 12 9 12 4 0 6 -21
6 -47z m279 21 c-6 -16 -16 -11 -19 11 -1 8 4 11 11 8 8 -2 11 -11 8 -19z
m507 11 c-14 -17 -30 -20 -30 -6 0 5 8 12 18 14 9 3 19 5 21 6 2 0 -2 -6 -9
-14z m-325 -5 c3 -6 -1 -7 -9 -4 -18 7 -21 14 -7 14 6 0 13 -4 16 -10z m119 2
c2 -4 -4 -8 -14 -8 -10 0 -16 4 -14 8 3 4 9 8 14 8 5 0 11 -4 14 -8z m110 -9
c4 -11 1 -11 -14 -3 -24 13 -25 17 -5 17 8 0 16 -6 19 -14z m-1181 -10 c-8 -3
-9 -14 -3 -34 7 -22 6 -29 -3 -26 -7 2 -12 12 -13 23 -2 40 -4 45 -16 38 -6
-4 -8 -3 -5 4 4 5 17 8 29 4 12 -3 17 -7 11 -9z m597 5 c0 -4 -7 -8 -15 -8 -8
0 -15 4 -15 8 0 5 7 9 15 9 8 0 15 -4 15 -9z m110 2 c0 -5 -2 -10 -4 -10 -3 0
-8 5 -11 10 -3 6 -1 10 4 10 6 0 11 -4 11 -10z m210 1 c0 -5 -7 -12 -16 -15
-14 -5 -15 -4 -4 9 14 17 20 19 20 6z m190 -11 c0 -5 -2 -10 -4 -10 -3 0 -8 5
-11 10 -3 6 -1 10 4 10 6 0 11 -4 11 -10z m120 -5 c-7 -8 -17 -12 -23 -8 -6 4
-3 9 9 14 27 11 28 11 14 -6z m-1180 -25 c0 -21 -4 -28 -14 -24 -11 4 -11 10
-2 30 14 31 16 30 16 -6z m955 12 c-3 -3 -11 0 -18 7 -9 10 -8 11 6 5 10 -3
15 -9 12 -12z m-679 -29 c-7 -7 -26 7 -26 19 0 6 6 6 15 -2 9 -7 13 -15 11
-17z m534 17 c0 -5 -5 -10 -11 -10 -5 0 -7 5 -4 10 3 6 8 10 11 10 2 0 4 -4 4
-10z m-1288 -66 c-4 -54 -4 -55 21 -49 15 4 28 2 32 -5 5 -8 3 -11 -6 -8 -22
8 -49 -11 -49 -34 0 -12 -3 -19 -6 -16 -10 11 -9 176 1 172 6 -3 8 -29 7 -60z
m1603 56 c3 -5 1 -10 -4 -10 -6 0 -11 5 -11 10 0 6 2 10 4 10 3 0 8 -4 11 -10z
m-465 -20 c0 -5 -2 -10 -4 -10 -3 0 -8 5 -11 10 -3 6 -1 10 4 10 6 0 11 -4 11
-10z m210 0 c0 -5 -5 -10 -11 -10 -5 0 -7 5 -4 10 3 6 8 10 11 10 2 0 4 -4 4
-10z m300 -2 c0 -4 -4 -8 -9 -8 -6 0 -12 4 -15 8 -3 5 1 9 9 9 8 0 15 -4 15
-9z m-820 -22 c0 -2 -9 -2 -20 1 -11 3 -20 9 -20 15 0 5 9 4 20 -2 11 -6 20
-12 20 -14z m710 9 c0 -8 -2 -15 -4 -15 -2 0 -6 7 -10 15 -3 8 -1 15 4 15 6 0
10 -7 10 -15z m220 5 c0 -5 -5 -10 -11 -10 -5 0 -7 5 -4 10 3 6 8 10 11 10 2
0 4 -4 4 -10z m-1328 -87 c0 -45 4 -81 10 -85 6 -3 -7 -12 -30 -19 -23 -7 -42
-15 -42 -19 0 -4 -22 -18 -50 -31 -27 -13 -50 -27 -50 -30 0 -4 -7 -9 -15 -13
-8 -3 -15 -1 -15 4 0 5 26 23 58 41 31 18 59 35 62 39 3 3 17 11 32 17 24 11
26 16 26 70 -1 88 1 117 8 110 4 -3 6 -41 6 -84z m428 72 c-7 -9 -15 -13 -19
-10 -3 3 1 10 9 15 21 14 24 12 10 -5z m57 -22 c-3 -10 -5 -4 -5 12 0 17 2 24
5 18 2 -7 2 -21 0 -30z m370 -5 c-3 -8 -6 -5 -6 6 -1 11 2 17 5 13 3 -3 4 -12
1 -19z m413 12 c0 -13 -52 -38 -67 -33 -6 2 -24 -3 -40 -12 l-28 -17 24 21
c22 19 39 25 67 22 6 -1 17 6 24 14 14 17 20 19 20 5z m-830 -25 c14 -17 3
-20 -19 -6 -9 6 -23 4 -38 -6 -13 -9 -26 -13 -29 -10 -6 6 45 36 62 37 6 0 17
-7 24 -15z m-394 -10 c10 -26 -1 -35 -13 -10 -6 14 -7 25 -2 25 5 0 12 -7 15
-15z m-76 -5 c0 -5 -5 -10 -11 -10 -5 0 -7 5 -4 10 3 6 8 10 11 10 2 0 4 -4 4
-10z m805 0 c-3 -5 -11 -10 -16 -10 -6 0 -7 5 -4 10 3 6 11 10 16 10 6 0 7 -4
4 -10z m85 0 c0 -5 -2 -10 -4 -10 -3 0 -8 5 -11 10 -3 6 -1 10 4 10 6 0 11 -4
11 -10z m-520 -15 c0 -2 -10 -9 -22 -15 -22 -11 -22 -10 -4 4 21 17 26 19 26
11z m155 -5 c3 -5 1 -10 -4 -10 -6 0 -11 5 -11 10 0 6 2 10 4 10 3 0 8 -4 11
-10z m-835 -10 c0 -5 -2 -10 -4 -10 -3 0 -8 5 -11 10 -3 6 -1 10 4 10 6 0 11
-4 11 -10z m1441 -13 c-10 -9 -11 -8 -5 6 3 10 9 15 12 12 3 -3 0 -11 -7 -18z
m116 -9 c-3 -7 -5 -2 -5 12 0 14 2 19 5 13 2 -7 2 -19 0 -25z m-771 -15 c-8
-8 -36 10 -36 25 0 13 3 12 20 -3 11 -10 18 -20 16 -22z m259 27 c-3 -5 -12
-10 -18 -10 -7 0 -6 4 3 10 19 12 23 12 15 0z m625 0 c0 -5 -2 -10 -4 -10 -3
0 -8 5 -11 10 -3 6 -1 10 4 10 6 0 11 -4 11 -10z m-1710 -32 c0 -19 -2 -20
-10 -8 -8 12 -10 12 -11 -5 0 -11 -3 -14 -6 -7 -4 11 13 42 23 42 2 0 4 -10 4
-22z m427 11 c6 -6 8 -23 3 -44 -4 -19 -6 -35 -5 -37 2 -2 -8 -3 -21 -3 -24 0
-24 0 -4 15 20 15 23 42 7 68 -10 15 5 16 20 1z m339 -4 c-11 -8 -25 -15 -30
-15 -6 0 -2 7 8 15 11 8 25 15 30 15 6 0 2 -7 -8 -15z m479 -13 c-8 -8 -25 10
-19 20 4 6 9 5 15 -3 4 -7 6 -15 4 -17z m-910 -2 c-10 -11 -23 -20 -29 -20 -6
0 0 9 14 20 32 25 38 25 15 0z m820 10 c-3 -5 -11 -10 -16 -10 -6 0 -7 5 -4
10 3 6 11 10 16 10 6 0 7 -4 4 -10z m395 1 c0 -5 -7 -12 -16 -15 -14 -5 -15
-4 -4 9 14 17 20 19 20 6z m-674 -29 c-4 -3 -14 2 -24 12 -16 18 -16 18 6 6
13 -6 21 -14 18 -18z m-920 1 c-1 -7 -6 -16 -11 -20 -4 -5 -5 -2 0 6 6 10 4
13 -7 9 -8 -4 -15 -1 -15 6 0 6 8 12 17 12 10 0 17 -6 16 -13z m244 12 c0 -2
-14 -12 -31 -20 -27 -14 -29 -18 -17 -33 12 -15 11 -16 -4 -4 -12 10 -22 11
-37 3 -11 -6 -23 -11 -28 -11 -4 1 9 10 30 21 22 12 35 24 31 31 -4 7 -3 8 4
4 7 -4 20 -2 29 3 21 12 23 13 23 6z m395 -5 c3 -5 1 -10 -4 -10 -6 0 -11 5
-11 10 0 6 2 10 4 10 3 0 8 -4 11 -10z m165 -5 c-9 -11 -9 -15 -1 -15 7 0 9
-5 5 -12 -5 -7 -2 -9 8 -6 8 4 15 1 15 -6 0 -6 -8 -12 -18 -12 -10 0 -15 5
-12 10 4 5 -1 7 -12 2 -15 -5 -16 -4 -5 9 15 18 9 19 -25 3 -29 -13 -31 -21
-10 -38 13 -11 13 -15 3 -21 -20 -13 -28 -11 -22 6 4 9 -1 18 -11 21 -13 5 -5
14 36 40 61 38 66 40 49 19z m240 5 c0 -5 -2 -10 -4 -10 -3 0 -8 5 -11 10 -3
6 -1 10 4 10 6 0 11 -4 11 -10z m300 -20 c0 -6 -9 -2 -20 7 -11 10 -20 19 -20
21 0 1 9 -2 20 -8 11 -6 20 -15 20 -20z m105 20 c3 -5 -1 -10 -9 -10 -9 0 -16
5 -16 10 0 6 4 10 9 10 6 0 13 -4 16 -10z m-1295 -26 c0 -2 -9 0 -20 6 -11 6
-20 13 -20 16 0 2 9 0 20 -6 11 -6 20 -13 20 -16z m180 12 c0 -2 -32 -23 -71
-46 -54 -32 -74 -39 -82 -30 -9 8 -7 9 7 4 15 -6 17 -4 11 6 -5 9 -4 11 3 6 7
-4 12 -2 12 4 0 6 4 9 9 5 5 -3 15 0 23 7 7 7 29 21 48 30 41 19 40 19 40 14z
m1198 -18 c-2 -17 2 -23 16 -21 12 1 15 -2 8 -9 -6 -6 -8 -18 -5 -27 5 -15 4
-15 -11 0 -9 9 -18 25 -19 37 -1 25 -2 25 -26 13 -13 -7 -18 -6 -18 4 0 8 4
12 9 9 4 -3 16 0 25 5 24 14 25 14 21 -11z m126 13 c4 -5 -3 -7 -14 -4 -23 6
-26 13 -6 13 8 0 17 -4 20 -9z m108 -4 c15 -12 15 -14 -3 -25 -11 -7 -17 -17
-14 -21 2 -5 -2 -11 -10 -15 -9 -3 -15 0 -15 8 0 7 -11 19 -25 26 -14 7 -23
15 -21 18 3 2 15 -3 27 -11 16 -12 26 -13 39 -4 17 10 17 12 2 24 -9 7 -12 12
-7 12 6 0 18 -5 27 -12z m-1057 -7 c-3 -5 -12 -10 -18 -10 -7 0 -6 4 3 10 19
12 23 12 15 0z m282 -7 c0 -8 -6 -9 -19 -2 -10 5 -18 11 -18 12 0 2 8 3 18 3
10 0 19 -6 19 -13z m303 -4 c23 -19 23 -19 2 -9 -12 6 -26 9 -31 6 -4 -3 -8 1
-8 9 0 20 7 19 37 -6z m314 8 c-3 -8 -12 -14 -21 -14 -13 0 -13 2 3 14 22 16
25 16 18 0z m-1019 -7 c4 -6 -1 -7 -11 -3 -13 5 -16 2 -11 -9 4 -12 1 -14 -13
-11 -15 4 -18 1 -15 -17 5 -27 -15 -22 -26 8 -6 16 -5 20 7 15 7 -3 14 0 14 5
0 9 15 16 42 21 4 0 10 -3 13 -9z m795 6 c0 -2 -7 -7 -16 -10 -8 -3 -12 -2 -9
4 6 10 25 14 25 6z m-747 -29 c4 3 7 1 7 -6 0 -8 8 -11 20 -8 11 3 18 1 14 -4
-3 -5 -1 -9 5 -9 11 0 9 -26 -4 -37 -4 -4 -5 -2 -1 5 4 6 2 12 -4 12 -6 0 -8
5 -4 11 5 9 -2 10 -22 6 -16 -3 -23 -4 -16 -1 9 4 7 10 -6 22 -10 10 -13 14
-7 10 7 -4 15 -5 18 -1z m610 -1 c3 -6 -6 -11 -18 -11 -12 0 -21 5 -18 11 2 6
10 11 18 11 8 0 16 -5 18 -11z m107 -11 c14 -18 13 -19 -1 -8 -9 7 -19 10 -22
6 -4 -3 -7 -2 -7 4 0 9 12 26 14 21 1 -2 8 -12 16 -23z m300 -1 c0 -3 -5 -2
-10 1 -6 4 -19 1 -28 -7 -15 -11 -15 -11 -5 3 7 9 9 19 5 24 -4 4 3 2 16 -4
12 -6 22 -14 22 -17z m-1243 -1 c0 -8 -6 -9 -19 -2 -10 5 -18 11 -18 12 0 2 8
3 18 3 10 0 19 -6 19 -13z m633 7 c0 -5 -4 -10 -10 -10 -5 0 -10 5 -10 10 0 6
5 10 10 10 6 0 10 -4 10 -10z m400 0 c0 -5 -4 -10 -10 -10 -5 0 -10 5 -10 10
0 6 5 10 10 10 6 0 10 -4 10 -10z m-1309 -17 c13 -15 12 -15 -8 -4 -24 12 -29
21 -14 21 5 0 15 -7 22 -17z m464 -10 c-9 -8 -13 -19 -10 -24 4 -5 1 -9 -5 -9
-8 0 -9 7 -5 18 4 9 8 22 8 29 0 6 6 9 13 6 11 -4 10 -8 -1 -20z m280 17 c3
-6 -1 -7 -9 -4 -18 7 -21 14 -7 14 6 0 13 -4 16 -10z m928 -17 c-3 -7 -9 -13
-13 -13 -4 0 -12 6 -18 13 -8 9 -5 12 13 12 14 0 21 -5 18 -12z m-873 -19 c0
-2 -9 0 -20 6 -11 6 -20 13 -20 16 0 2 9 0 20 -6 11 -6 20 -13 20 -16z m366
14 c4 -7 3 -8 -5 -4 -6 4 -20 2 -29 -6 -15 -12 -16 -11 -3 5 16 20 27 22 37 5z
m99 2 c3 -5 2 -10 -4 -10 -5 0 -13 5 -16 10 -3 6 -2 10 4 10 5 0 13 -4 16 -10z
m95 5 c0 -2 -10 -10 -22 -16 -21 -11 -22 -11 -9 4 13 16 31 23 31 12z m205 -5
c3 -5 1 -10 -4 -10 -6 0 -11 5 -11 10 0 6 2 10 4 10 3 0 8 -4 11 -10z m-1560
-18 c-3 -3 -11 0 -18 7 -9 10 -8 11 6 5 10 -3 15 -9 12 -12z m679 6 c-3 -4 -9
-8 -15 -8 -5 0 -9 4 -9 8 0 5 7 9 15 9 8 0 12 -4 9 -9z m-628 -23 c3 -19 -10
-19 -26 0 -11 13 -10 14 5 9 14 -6 16 -4 10 7 -5 8 -4 11 0 6 5 -4 10 -14 11
-22z m459 15 c-3 -5 -12 -10 -18 -10 -7 0 -6 4 3 10 19 12 23 12 15 0z m685 0
c0 -5 -2 -10 -4 -10 -3 0 -8 5 -11 10 -3 6 -1 10 4 10 6 0 11 -4 11 -10z m105
-8 c-3 -3 -11 0 -18 7 -9 10 -8 11 6 5 10 -3 15 -9 12 -12z m300 8 c3 -5 2
-10 -4 -10 -5 0 -13 5 -16 10 -3 6 -2 10 4 10 5 0 13 -4 16 -10z m-500 -10
c-3 -5 -12 -10 -18 -10 -7 0 -6 4 3 10 19 12 23 12 15 0z m400 -8 c-3 -3 -11
0 -18 7 -9 10 -8 11 6 5 10 -3 15 -9 12 -12z m-1370 -1 c3 -5 1 -12 -5 -16 -5
-3 -10 1 -10 9 0 18 6 21 15 7z m731 -19 c-4 -3 -14 2 -24 12 -16 18 -16 18 6
6 13 -6 21 -14 18 -18z m-356 14 c0 -3 -4 -8 -10 -11 -5 -3 -10 -1 -10 4 0 6
5 11 10 11 6 0 10 -2 10 -4z m110 0 c0 -3 -4 -8 -10 -11 -5 -3 -10 -1 -10 4 0
6 5 11 10 11 6 0 10 -2 10 -4z m335 -6 c-3 -5 -11 -10 -16 -10 -6 0 -7 5 -4
10 3 6 11 10 16 10 6 0 7 -4 4 -10z m415 5 c0 -2 -10 -10 -22 -16 -21 -11 -22
-11 -9 4 13 16 31 23 31 12z m-1269 -23 c-7 -2 -18 1 -23 6 -8 8 -4 9 13 5 13
-4 18 -8 10 -11z m809 -2 c0 -5 -4 -10 -9 -10 -6 0 -13 5 -16 10 -3 6 1 10 9
10 9 0 16 -4 16 -10z m-455 -18 c-3 -3 -11 0 -18 7 -9 10 -8 11 6 5 10 -3 15
-9 12 -12z m865 14 c0 -11 -19 -15 -25 -6 -3 5 1 10 9 10 9 0 16 -2 16 -4z"/>
<path d="M555 849 c-16 -10 -34 -21 -40 -23 -6 -2 -6 -8 1 -15 8 -9 17 -9 37
0 15 7 27 16 27 21 0 14 21 9 51 -13 16 -11 34 -17 40 -13 7 4 9 3 6 -3 -4 -6
5 -15 18 -21 22 -10 25 -9 25 8 0 11 -5 20 -10 20 -6 0 -24 10 -39 21 -17 13
-34 18 -42 14 -7 -5 -10 -4 -6 2 4 6 0 14 -9 17 -21 8 -25 7 -59 -15z"/>
</g>
</svg>
