<?xml version="1.0" standalone="no"?>
<!DOCTYPE svg PUBLIC "-//W3C//DTD SVG 20010904//EN"
 "http://www.w3.org/TR/2001/REC-SVG-20010904/DTD/svg10.dtd">
<svg version="1.0" xmlns="http://www.w3.org/2000/svg"
 width="200.000000pt" height="200.000000pt" viewBox="0 0 200.000000 200.000000"
 preserveAspectRatio="xMidYMid meet">
<metadata>
Created by potrace 1.16, written by Peter Selinger 2001-2019
</metadata>
<g transform="translate(0.000000,200.000000) scale(0.100000,-0.100000)"
fill="#000000" stroke="none">
<path d="M0 1915 c0 -72 3 -88 20 -105 12 -12 26 -18 31 -14 6 4 15 0 20 -7
17 -27 8 -31 -27 -10 -19 12 -37 21 -40 21 -2 0 -4 -47 -4 -105 0 -111 2 -115
50 -81 9 6 6 1 -6 -10 -13 -12 -20 -25 -16 -28 3 -4 -1 -4 -11 0 -16 6 -17
-17 -17 -351 0 -305 2 -356 14 -352 18 7 42 -18 26 -28 -6 -4 -9 -3 -8 2 3 9
-5 13 -23 13 -8 0 -7 -6 2 -17 10 -11 10 -14 2 -9 -10 6 -13 -37 -13 -201 0
-117 5 -215 10 -223 5 -8 10 -11 10 -7 0 11 60 -25 60 -36 0 -4 4 -6 9 -2 6 3
9 -22 9 -60 0 -36 -4 -62 -9 -59 -5 3 -9 0 -9 -6 0 -6 -4 -8 -10 -5 -5 3 -10
2 -10 -2 0 -5 -13 -17 -30 -26 -30 -18 -30 -18 -30 -113 l0 -95 185 1 185 2 0
27 c0 15 -6 33 -12 40 -11 10 -10 11 5 6 11 -5 17 -18 17 -41 l0 -34 195 0
195 0 0 35 c0 19 0 38 -1 41 0 4 5 11 13 15 10 7 9 9 -4 9 -9 0 -19 -8 -21
-18 -2 -9 -3 -6 -1 8 2 22 -7 30 -66 63 -65 35 -102 65 -64 50 13 -5 15 -3 9
7 -5 9 -4 11 4 6 6 -4 9 -11 6 -16 -8 -12 53 -43 67 -34 7 4 8 3 4 -4 -9 -15
46 -42 72 -35 12 3 22 10 22 15 0 5 4 7 9 4 5 -3 15 1 22 10 7 9 29 22 50 30
20 9 42 25 48 37 6 12 9 14 7 5 -5 -15 -3 -16 14 -5 17 10 20 25 22 102 l2 90
3 -88 c2 -48 7 -86 11 -84 4 3 16 -5 27 -16 l20 -20 -23 13 c-13 6 -26 9 -29
7 -8 -9 38 -29 53 -23 10 4 12 2 8 -6 -5 -8 -2 -9 9 -5 9 3 16 2 14 -4 -1 -5
27 -26 62 -46 36 -20 62 -32 58 -26 -4 6 0 14 9 17 8 3 13 2 10 -3 -13 -20 29
-20 65 1 21 12 37 23 35 25 -2 2 -20 -6 -40 -18 -20 -12 -39 -19 -42 -16 -3 3
18 18 48 34 70 37 72 38 64 24 -4 -6 -3 -11 2 -11 5 0 10 55 10 127 1 115 -1
128 -19 141 -10 7 -24 10 -31 6 -7 -5 -8 -3 -3 6 6 10 4 12 -8 7 -10 -4 -16
-2 -14 6 1 7 -6 11 -15 11 -10 -1 -15 3 -11 9 4 6 0 8 -11 4 -11 -4 -15 -3
-11 4 4 6 -1 9 -11 7 -12 -2 -18 2 -16 11 2 9 -3 11 -13 7 -9 -3 -13 -2 -10 4
13 21 -17 8 -101 -41 -59 -35 -89 -48 -95 -40 -5 6 -6 9 -3 6 12 -8 85 35 78
47 -4 7 -3 8 4 4 7 -4 34 5 62 21 l50 28 0 101 c0 102 -5 118 -40 126 -8 2
-18 8 -22 13 -5 6 -8 5 -8 -2 0 -13 39 -39 53 -35 4 1 7 -2 7 -8 0 -15 -5 -13
-91 37 l-81 47 -42 -23 c-114 -64 -147 -81 -158 -81 -13 0 36 34 115 79 32 18
56 35 54 37 -2 3 -39 -16 -82 -41 -42 -25 -79 -44 -81 -42 -2 2 37 27 86 56
50 29 88 56 85 61 -3 5 -1 11 5 15 14 9 13 215 -1 215 -7 0 -9 10 -5 28 6 27
6 27 -7 4 -12 -21 -15 -22 -26 -8 -8 9 -10 16 -5 16 5 0 1 5 -9 11 -9 5 -22 7
-29 3 -7 -5 -8 -3 -3 6 6 10 4 12 -9 7 -10 -4 -15 -3 -11 3 7 12 -32 33 -47
24 -7 -5 -8 -3 -3 6 6 10 4 12 -8 7 -9 -3 -23 0 -30 7 -11 12 -27 6 -98 -35
-46 -27 -83 -53 -81 -59 1 -8 -4 -8 -17 0 -28 14 -38 13 -17 -3 13 -9 16 -22
13 -47 l-4 -35 -1 38 c-1 20 -5 37 -9 37 -5 0 -8 -49 -8 -110 0 -102 8 -140
18 -87 3 15 4 13 2 -5 -2 -28 9 -37 18 -18 4 7 5 7 4 0 -1 -6 -18 -21 -37 -33
-20 -12 -30 -15 -23 -7 7 10 11 62 10 154 l-2 140 -50 29 c-27 16 -66 38 -85
48 -19 11 -29 19 -22 19 7 0 52 -23 102 -51 49 -28 95 -49 102 -46 8 4 7 6 -4
6 -9 1 -20 6 -24 13 -5 7 -3 8 6 3 7 -4 15 -4 19 1 10 15 91 65 91 57 0 -5 4
-3 8 4 4 7 23 19 41 26 l34 15 2 96 1 96 -93 53 c-51 28 -93 56 -93 60 0 5 6
5 13 1 6 -4 28 -17 47 -29 103 -62 133 -77 127 -62 -4 11 0 13 15 9 14 -3 19
-1 14 6 -5 8 -1 10 10 5 13 -5 15 -3 9 7 -5 8 -4 11 2 7 6 -4 13 0 17 8 3 9
12 12 22 8 12 -4 15 -3 10 5 -5 8 -2 10 9 6 10 -4 15 -2 13 6 -2 7 9 14 25 15
15 2 25 0 22 -6 -4 -5 -1 -9 4 -9 15 0 14 13 -1 29 -10 11 -10 13 0 7 9 -6 12
22 12 123 l0 130 -75 42 c-41 24 -75 46 -75 50 0 4 26 -8 57 -27 66 -40 73
-41 68 -14 -2 12 0 18 6 15 5 -4 6 -11 3 -17 -5 -7 -2 -9 8 -6 8 4 15 1 15 -7
0 -7 -7 -11 -16 -8 -11 3 -10 0 3 -11 14 -11 22 -13 27 -5 3 6 9 10 13 10 20
-3 26 0 20 12 -4 6 -4 9 1 5 9 -9 85 31 85 44 0 5 4 7 9 4 5 -3 12 1 15 10 3
8 11 12 16 9 15 -9 40 14 40 36 0 18 -10 19 -164 19 -163 0 -165 0 -169 -22
l-4 -23 -2 22 -1 22 -266 1 c-146 0 -263 -3 -260 -8 2 -4 1 -14 -5 -22 -7 -12
-9 -10 -9 8 0 21 -3 22 -99 22 -56 0 -103 -4 -106 -10 -3 -5 1 -10 9 -10 8 0
17 -4 20 -9 3 -5 -5 -8 -18 -7 -13 0 -24 3 -24 6 2 24 -6 30 -42 30 l-40 0 0
-85z m717 48 c-4 -3 -1 -13 6 -22 11 -14 10 -14 -5 -2 -16 12 -16 31 -1 31 4
0 3 -3 0 -7z m-476 -16 c-6 -8 -7 -18 -3 -22 4 -5 2 -5 -5 -2 -6 4 -18 0 -26
-8 -19 -19 -24 -19 -24 0 0 8 4 12 9 9 4 -3 8 -1 8 3 0 5 10 13 23 19 30 16
31 16 18 1z m469 -23 c0 -8 -19 -13 -24 -6 -3 5 1 9 9 9 8 0 15 -2 15 -3z
m-333 -51 c-4 -3 -1 -13 5 -22 10 -13 10 -14 -2 -3 -21 18 -34 15 -19 -5 13
-17 12 -17 -4 -4 -18 14 -18 16 -1 28 19 14 32 18 21 6z m333 -38 c0 -2 -10
-9 -22 -15 -22 -11 -22 -10 -4 4 21 17 26 19 26 11z m-225 -14 c3 -5 2 -12 -3
-15 -5 -3 -9 1 -9 9 0 17 3 19 12 6z m-196 -15 c9 -11 9 -16 -1 -22 -7 -4 -10
-4 -6 1 4 4 3 14 -3 22 -6 7 -9 13 -6 13 2 0 10 -6 16 -14z m308 -8 c-3 -8 -6
-5 -6 6 -1 11 2 17 5 13 3 -3 4 -12 1 -19z m20 -25 c-3 -10 -5 -4 -5 12 0 17
2 24 5 18 2 -7 2 -21 0 -30z m-90 12 c0 -8 -4 -12 -9 -9 -5 3 -6 10 -3 15 9
13 12 11 12 -6z m37 7 c3 -5 -1 -9 -9 -9 -8 0 -12 4 -9 9 3 4 7 8 9 8 2 0 6
-4 9 -8z m3 -44 c-3 -8 -6 -5 -6 6 -1 11 2 17 5 13 3 -3 4 -12 1 -19z m-447
-35 c0 -7 -4 -13 -9 -13 -5 0 -8 -13 -7 -30 1 -16 -1 -30 -5 -30 -4 0 -7 20
-7 43 0 31 4 44 14 44 8 0 14 -6 14 -14z m417 -25 c-3 -7 -5 -2 -5 12 0 14 2
19 5 13 2 -7 2 -19 0 -25z m30 -30 c-2 -13 -4 -5 -4 17 -1 22 1 32 4 23 2 -10
2 -28 0 -40z m50 5 c-3 -10 -5 -4 -5 12 0 17 2 24 5 18 2 -7 2 -21 0 -30z
m-351 -54 c-4 -25 -2 -30 12 -24 13 5 14 3 5 -6 -15 -15 -32 -4 -28 19 2 9 4
23 4 30 1 6 4 12 7 12 3 0 3 -14 0 -31z m290 -17 c-15 -15 -15 -15 -4 10 7 15
15 23 17 17 2 -6 -4 -18 -13 -27z m-29 13 c0 -8 -4 -12 -9 -9 -5 3 -6 10 -3
15 9 13 12 11 12 -6z m-21 -31 c1 -9 0 -13 -4 -10 -3 4 -7 14 -8 22 -1 9 0 13
4 10 3 -4 7 -14 8 -22z m180 -20 c1 -9 0 -13 -4 -10 -3 4 -7 14 -8 22 -1 9 0
13 4 10 3 -4 7 -14 8 -22z m-299 -19 c0 -8 -4 -12 -9 -9 -5 3 -6 10 -3 15 9
13 12 11 12 -6z m48 -4 c3 -5 2 -12 -3 -15 -5 -3 -9 1 -9 9 0 17 3 19 12 6z
m-209 -36 c-1 -8 -4 -16 -7 -17 -2 -2 -3 -1 -2 1 1 2 -2 12 -8 22 -7 14 -6 17
5 13 8 -3 13 -12 12 -19z m28 -4 c3 -5 -2 -15 -12 -22 -15 -12 -16 -12 -5 2 7
9 10 19 6 22 -3 4 -4 7 0 7 3 0 8 -4 11 -9z m25 -18 c-3 -21 2 -33 13 -27 7 5
8 3 3 -6 -6 -10 -11 -10 -20 3 -7 9 -16 13 -21 9 -4 -4 -2 1 5 11 14 18 22 22
20 10z m-177 -10 c-10 -4 -10 -8 -1 -19 9 -11 8 -15 -5 -20 -9 -3 -16 -14 -17
-23 0 -11 -3 -8 -10 7 -5 13 -13 20 -19 17 -16 -10 -12 1 6 15 8 8 14 9 12 3
-3 -11 1 -13 23 -13 8 0 9 4 0 13 -11 15 -5 28 13 26 6 0 5 -3 -2 -6z m644
-19 c1 -9 0 -13 -4 -10 -3 4 -7 14 -8 22 -1 9 0 13 4 10 3 -4 7 -14 8 -22z
m-425 -7 c-6 -8 -7 -18 -3 -22 4 -5 1 -5 -6 -1 -10 6 -10 11 -1 22 6 8 14 14
16 14 3 0 0 -6 -6 -13z m126 -74 c-3 -10 -5 -4 -5 12 0 17 2 24 5 18 2 -7 2
-21 0 -30z m-367 -35 c-1 -26 -3 -30 -10 -16 -6 9 -7 23 -4 32 9 25 14 19 14
-16z m262 -70 c-5 -5 -14 -2 -23 9 -13 16 -12 17 4 4 15 -12 17 -11 18 15 2
26 2 26 6 5 3 -13 1 -27 -5 -33z m-248 13 c3 -5 -2 -15 -12 -22 -15 -12 -16
-12 -5 2 7 9 10 19 6 22 -3 4 -4 7 0 7 3 0 8 -4 11 -9z m386 -38 c0 -5 -6 -8
-12 -8 -7 0 -13 5 -13 12 0 6 -3 15 -7 19 -5 4 -8 11 -8 16 0 4 9 -1 20 -12
11 -11 20 -23 20 -27z m-212 13 c-10 -7 -14 -17 -10 -21 4 -5 1 -5 -7 0 -12 7
-11 10 4 22 24 17 36 17 13 -1z m-118 -11 c0 -2 -6 -8 -13 -14 -10 -8 -14 -7
-14 2 0 8 6 14 14 14 7 0 13 -1 13 -2z m20 -9 c0 -2 -8 -10 -17 -17 -16 -13
-17 -12 -4 4 13 16 21 21 21 13z m387 -41 c0 -8 -4 -12 -9 -9 -5 3 -6 10 -3
15 9 13 12 11 12 -6z m-533 -51 c3 -8 2 -12 -4 -9 -6 3 -10 10 -10 16 0 14 7
11 14 -7z m46 2 c0 -2 -8 -10 -17 -17 -16 -13 -17 -12 -4 4 13 16 21 21 21 13z
m20 -10 c0 -2 -8 -10 -17 -17 -16 -13 -17 -12 -4 4 13 16 21 21 21 13z m113
-11 c-3 -9 -8 -14 -10 -11 -3 3 -2 9 2 15 9 16 15 13 8 -4z m-63 -20 c0 -2 -5
-7 -12 -11 -7 -4 -8 -3 -4 4 10 16 -6 15 -24 0 -12 -11 -12 -10 -2 3 6 9 8 19
4 24 -4 4 3 2 16 -4 12 -6 22 -14 22 -16z m57 -72 c-3 -10 -5 -4 -5 12 0 17 2
24 5 18 2 -7 2 -21 0 -30z m410 -20 c-3 -10 -5 -4 -5 12 0 17 2 24 5 18 2 -7
2 -21 0 -30z m350 -15 c-3 -8 -6 -5 -6 6 -1 11 2 17 5 13 3 -3 4 -12 1 -19z
m-817 -3 c0 -8 -4 -15 -10 -15 -5 0 -10 7 -10 15 0 8 5 15 10 15 6 0 10 -7 10
-15z m447 -22 c-3 -10 -5 -4 -5 12 0 17 2 24 5 18 2 -7 2 -21 0 -30z m20 -45
c-3 -8 -6 -5 -6 6 -1 11 2 17 5 13 3 -3 4 -12 1 -19z m-457 -4 c0 -8 -19 -13
-24 -6 -3 5 1 9 9 9 8 0 15 -2 15 -3z m807 -46 c-3 -8 -6 -5 -6 6 -1 11 2 17
5 13 3 -3 4 -12 1 -19z m-611 -44 c1 -9 0 -13 -4 -10 -3 4 -7 14 -8 22 -1 9 0
13 4 10 3 -4 7 -14 8 -22z m377 -54 c31 -17 57 -33 57 -33 0 -1 -11 -2 -24 -2
-13 0 -24 4 -23 9 1 5 -4 11 -12 14 -8 2 -11 0 -7 -6 3 -6 2 -13 -3 -17 -6 -3
-8 4 -6 15 3 14 0 20 -8 17 -7 -3 -11 -10 -9 -16 2 -9 -3 -9 -19 -1 -16 9 -18
14 -9 25 9 11 3 18 -28 34 -22 11 -42 18 -44 16 -3 -3 -5 2 -5 10 0 12 9 10
41 -9 23 -13 67 -38 99 -56z m-172 13 c13 -16 12 -17 -3 -4 -10 7 -18 15 -18
17 0 8 8 3 21 -13z m-345 -3 c-4 8 1 5 11 -8 12 -14 25 -21 35 -17 9 4 19 1
24 -6 4 -8 3 -10 -4 -5 -27 16 -10 -11 18 -29 30 -20 38 -39 20 -50 -5 -3 -12
6 -16 20 -7 28 -85 80 -108 72 -10 -4 -12 0 -9 14 5 16 8 17 21 7 13 -11 15
-11 8 2z m295 -27 c13 -16 12 -17 -3 -5 -9 8 -23 10 -29 6 -8 -4 -9 -3 -5 4
10 17 21 15 37 -5z m-377 -4 c-4 -8 1 -9 17 -4 23 7 23 7 4 -8 -11 -8 -23 -13
-27 -11 -5 3 -8 1 -8 -5 0 -5 -9 -9 -19 -8 -11 0 -17 5 -15 9 3 5 9 6 14 3 5
-3 14 4 20 15 6 11 13 20 16 20 3 0 2 -5 -2 -11z m354 -34 c-3 -3 -9 2 -12 12
-6 14 -5 15 5 6 7 -7 10 -15 7 -18z m-343 -140 c36 -19 42 -29 24 -40 -6 -4
-13 3 -16 15 -4 15 -11 20 -24 17 -11 -3 -17 -1 -13 4 3 5 0 9 -5 9 -7 0 -10
24 -9 63 l2 62 3 -55 c4 -52 6 -57 38 -75z m592 103 c-3 -8 -6 -5 -6 6 -1 11
2 17 5 13 3 -3 4 -12 1 -19z m-280 -50 c-2 -13 -4 -5 -4 17 -1 22 1 32 4 23 2
-10 2 -28 0 -40z m370 10 c-3 -8 -6 -5 -6 6 -1 11 2 17 5 13 3 -3 4 -12 1 -19z
m-497 -18 c0 -11 -4 -20 -9 -20 -11 0 -22 26 -14 34 12 12 23 5 23 -14z m420
-41 c0 -3 -6 -6 -14 -6 -8 0 -11 8 -8 20 4 14 7 16 13 5 5 -7 9 -16 9 -19z
m-450 7 c0 -2 -7 -7 -16 -10 -8 -3 -12 -2 -9 4 6 10 25 14 25 6z m467 -18 c-3
-8 -6 -5 -6 6 -1 11 2 17 5 13 3 -3 4 -12 1 -19z m74 -28 c6 0 7 6 3 13 -4 6
-3 8 1 4 5 -4 10 -14 11 -22 2 -12 -2 -12 -17 -5 -11 6 -18 20 -18 33 l2 22 4
-22 c2 -13 9 -23 14 -23z m-127 22 c3 -5 -1 -9 -9 -9 -8 0 -12 4 -9 9 3 4 7 8
9 8 2 0 6 -4 9 -8z m-466 -14 c-2 -6 -15 -18 -29 -26 -23 -13 -23 -13 -5 2 11
9 16 16 12 16 -4 0 -4 5 -1 10 9 14 28 13 23 -2z m273 -1 c-6 -8 -8 -17 -4
-21 4 -4 0 -4 -10 0 -17 6 -17 7 0 20 23 17 28 18 14 1z m170 -14 c13 -16 12
-17 -3 -4 -10 7 -18 15 -18 17 0 8 8 3 21 -13z m-146 -2 c3 -5 2 -12 -3 -15
-5 -3 -9 1 -9 9 0 17 3 19 12 6z m35 -5 c0 -2 -8 -10 -17 -17 -16 -13 -17 -12
-4 4 13 16 21 21 21 13z m16 -15 c-4 -5 -1 -11 6 -13 8 -3 6 -6 -4 -10 -11 -5
-15 -2 -13 10 5 23 4 22 11 22 3 0 3 -4 0 -9z m394 -16 c0 -2 -6 -5 -13 -8 -8
-3 -14 1 -14 8 0 7 6 11 14 8 7 -3 13 -6 13 -8z m-213 -10 c0 -8 -4 -12 -9 -9
-5 3 -6 10 -3 15 9 13 12 11 12 -6z m98 -5 c3 -6 -1 -7 -9 -4 -18 7 -21 14 -7
14 6 0 13 -4 16 -10z m260 0 c-3 -5 -1 -10 6 -10 7 0 10 -3 6 -6 -9 -9 -28 6
-22 17 4 5 8 9 11 9 3 0 2 -4 -1 -10z m-758 -35 c0 -8 -4 -12 -9 -9 -5 3 -6
10 -3 15 9 13 12 11 12 -6z m378 6 c3 -5 2 -12 -3 -15 -5 -3 -9 1 -9 9 0 17 3
19 12 6z m122 -8 c0 -8 -6 -9 -19 -2 -10 5 -18 11 -18 12 0 2 8 3 18 3 10 0
19 -6 19 -13z m28 -2 c3 -5 2 -12 -3 -15 -5 -3 -9 1 -9 9 0 17 3 19 12 6z
m-544 -18 c13 -16 12 -17 -3 -4 -17 13 -22 21 -14 21 2 0 10 -8 17 -17z m56
11 c-3 -3 -12 -4 -19 -1 -8 3 -5 6 6 6 11 1 17 -2 13 -5z m69 -24 c0 -12 -4
-16 -9 -11 -5 5 -6 14 -3 20 10 15 12 14 12 -9z m461 -5 c0 -8 -4 -12 -9 -9
-5 3 -6 10 -3 15 9 13 12 11 12 -6z m113 11 c0 -2 -8 -10 -17 -17 -16 -13 -17
-12 -4 4 13 16 21 21 21 13z m-769 -33 c13 -16 12 -17 -3 -4 -16 12 -18 11
-18 -4 0 -10 -3 -16 -6 -12 -6 6 2 37 9 37 3 0 11 -8 18 -17z m246 2 c0 -8 -4
-12 -9 -9 -5 3 -6 10 -3 15 9 13 12 11 12 -6z m130 -17 c-3 -8 -6 -5 -6 6 -1
11 2 17 5 13 3 -3 4 -12 1 -19z m-20 -30 c-3 -8 -6 -5 -6 6 -1 11 2 17 5 13 3
-3 4 -12 1 -19z m310 -30 c-3 -7 -5 -2 -5 12 0 14 2 19 5 13 2 -7 2 -19 0 -25z
m-425 -3 c3 -14 1 -25 -3 -25 -5 0 -9 11 -9 25 0 14 2 25 4 25 2 0 6 -11 8
-25z m-258 0 c-4 -8 -8 -15 -10 -15 -2 0 -4 7 -4 15 0 8 4 15 10 15 5 0 7 -7
4 -15z m-7 -47 c-3 -8 -6 -5 -6 6 -1 11 2 17 5 13 3 -3 4 -12 1 -19z m380 0
c-3 -8 -6 -5 -6 6 -1 11 2 17 5 13 3 -3 4 -12 1 -19z m-156 -47 c-6 -10 -7
-22 -3 -27 4 -5 -1 -2 -10 5 -18 14 -25 27 -9 17 5 -3 11 1 15 9 3 8 8 15 11
15 3 0 1 -8 -4 -19z m188 5 c9 -11 9 -16 -1 -22 -7 -4 -10 -4 -6 1 4 4 3 14
-3 22 -6 7 -9 13 -6 13 2 0 10 -6 16 -14z m-263 -43 c-2 -3 -16 -6 -30 -7 -20
-3 -24 0 -16 9 6 7 20 11 31 8 11 -3 18 -8 15 -10z m209 7 c3 -6 -1 -7 -9 -4
-18 7 -21 14 -7 14 6 0 13 -4 16 -10z m-425 -24 c0 -2 -7 -7 -16 -10 -8 -3
-12 -2 -9 4 6 10 25 14 25 6z m35 -27 c-3 -14 0 -19 9 -16 7 3 13 -1 13 -9 0
-25 -31 3 -33 30 0 14 3 23 7 20 4 -2 6 -14 4 -25z m305 16 c0 -2 -10 -9 -22
-15 -22 -11 -22 -10 -4 4 21 17 26 19 26 11z m-403 -28 c0 -7 -9 -13 -19 -13
-18 0 -18 1 -2 13 10 7 18 13 19 13 1 0 2 -6 2 -13z m588 -17 c3 -6 -1 -7 -9
-4 -18 7 -21 14 -7 14 6 0 13 -4 16 -10z m-639 -35 c-1 -8 -5 -17 -8 -21 -5
-4 -4 16 1 34 3 9 9 -1 7 -13z m369 5 c-3 -5 -12 -10 -18 -10 -7 0 -6 4 3 10
19 12 23 12 15 0z m-100 -9 c3 -5 2 -12 -3 -15 -5 -3 -9 1 -9 9 0 17 3 19 12
6z"/>
<path d="M665 770 c-3 -5 -2 -10 4 -10 5 0 13 5 16 10 3 6 2 10 -4 10 -5 0
-13 -4 -16 -10z"/>
<path d="M1190 1987 c0 -7 24 -25 53 -41 28 -16 73 -42 99 -58 26 -17 53 -26
59 -22 8 5 9 3 4 -6 -6 -9 -2 -10 15 -5 15 5 20 4 16 -4 -5 -7 -1 -8 9 -4 12
4 13 8 5 13 -7 4 13 21 52 43 55 31 63 39 65 66 l2 32 -189 -1 c-138 -1 -190
-5 -190 -13z m320 -62 c0 -2 -10 -9 -22 -15 -22 -11 -22 -10 -4 4 21 17 26 19
26 11z"/>
<path d="M1622 1965 c0 -19 5 -38 11 -42 6 -4 7 -1 2 7 -5 9 -4 11 4 6 6 -4 8
-12 5 -18 -5 -8 -1 -9 12 -4 10 4 15 4 11 0 -4 -4 1 -13 11 -21 15 -12 14 -13
-13 -8 -16 2 -31 9 -33 15 -2 5 -11 10 -21 10 -9 0 -23 6 -30 13 -11 10 -11 8
-1 -12 11 -21 10 -23 -5 -18 -20 8 -58 -10 -50 -23 4 -6 -1 -7 -11 -3 -12 4
-15 3 -10 -5 5 -8 1 -10 -10 -5 -13 5 -15 3 -9 -7 5 -9 4 -11 -4 -6 -19 12
-41 -13 -42 -48 l-1 -31 -8 30 c-4 17 -8 22 -9 13 0 -10 -5 -18 -11 -18 -6 0
-10 -33 -10 -79 0 -71 2 -80 20 -86 27 -9 25 -24 -2 -19 -13 2 -17 2 -10 -2 6
-3 12 -13 12 -22 0 -15 2 -15 10 -2 9 15 11 13 14 -12 1 -7 9 -12 19 -12 9 1
14 -2 12 -7 -3 -4 3 -13 14 -18 26 -14 34 -14 25 1 -4 7 -3 8 5 4 6 -4 9 -11
6 -16 -10 -16 29 -29 42 -15 6 7 10 14 8 16 -2 2 7 4 20 4 13 0 22 -2 20 -4
-9 -8 26 -32 37 -26 7 4 2 -3 -12 -14 -14 -11 -29 -21 -34 -21 -5 0 -7 -3 -4
-6 4 -3 17 0 30 6 18 9 16 6 -7 -14 -32 -27 -28 -33 8 -15 15 7 13 3 -6 -12
-25 -19 -28 -27 -26 -73 1 -28 7 -54 13 -58 8 -6 7 -10 -1 -16 -9 -6 -3 -14
19 -27 18 -10 27 -20 20 -23 -7 -2 -10 -8 -6 -13 3 -5 0 -9 -6 -9 -6 0 -8 -4
-5 -10 3 -6 -1 -7 -9 -4 -9 3 -16 2 -16 -3 0 -5 -7 -10 -15 -10 -8 0 -15 5
-15 10 0 5 -7 6 -16 3 -9 -4 -13 -2 -8 5 4 7 1 10 -7 7 -8 -3 -13 -11 -11 -17
1 -7 -2 -10 -7 -6 -14 8 -73 -23 -66 -35 3 -5 0 -12 -6 -16 -7 -4 -8 -9 -1
-13 6 -4 4 -12 -6 -21 -14 -13 -15 -12 -9 3 7 20 3 21 -24 7 -15 -8 -19 -7
-19 5 0 8 -5 15 -11 15 -5 0 -8 -4 -5 -9 4 -5 -4 -7 -16 -4 -23 4 -23 4 -3
-12 11 -9 30 -14 43 -12 24 5 31 -8 8 -16 -7 -3 -27 3 -44 13 -24 15 -29 24
-25 41 5 17 3 20 -7 14 -8 -5 -11 -4 -6 3 8 14 -30 36 -46 26 -7 -5 -8 -3 -3
6 6 10 4 12 -9 7 -10 -4 -15 -3 -11 3 6 10 -33 35 -42 26 -3 -3 -14 -1 -24 4
-11 6 -20 6 -23 1 -4 -5 0 -12 6 -15 7 -3 3 -3 -8 -1 -22 6 -97 -31 -90 -44 3
-4 -3 -7 -12 -7 -9 -1 -26 -5 -36 -9 -13 -6 -17 -5 -13 2 4 6 2 13 -4 15 -6 2
1 9 16 16 14 7 23 8 20 2 -9 -14 1 -13 36 5 16 9 27 20 24 25 -3 5 0 12 6 16
8 5 9 3 4 -6 -5 -8 -3 -11 6 -8 8 3 14 11 14 18 0 7 6 15 14 18 9 3 11 0 6 -9
-5 -8 -4 -10 0 -6 15 14 15 39 -1 33 -8 -3 -14 -1 -14 3 0 5 7 11 15 14 22 9
15 156 -8 168 -10 6 -14 16 -10 27 6 15 5 16 -12 2 -10 -8 -16 -10 -12 -4 9
16 -19 38 -38 30 -11 -4 -14 -2 -9 6 5 8 2 9 -9 5 -9 -3 -16 -3 -16 1 4 22 -4
30 -25 28 -14 -2 -30 1 -38 6 -10 7 -8 8 5 4 9 -3 17 -1 17 4 0 11 -11 13 -34
4 -9 -3 -13 -11 -10 -16 4 -6 -3 -5 -16 2 -18 10 -30 6 -81 -24 -33 -20 -65
-36 -70 -36 -5 0 -9 -5 -9 -11 0 -10 61 21 115 58 25 17 32 16 32 -1 0 -8 -6
-12 -15 -8 -10 3 -13 1 -8 -6 5 -8 1 -10 -10 -5 -11 4 -15 3 -10 -5 3 -6 1
-14 -5 -18 -8 -5 -9 -3 -4 6 5 8 3 11 -6 8 -8 -3 -13 -11 -11 -17 1 -7 -2 -10
-8 -6 -5 3 -23 -2 -40 -12 -29 -17 -30 -19 -30 -99 0 -73 2 -82 20 -87 11 -3
20 -12 20 -20 0 -9 24 -29 54 -46 58 -34 71 -38 60 -18 -4 6 -3 8 1 4 11 -10
16 -37 6 -37 -3 0 -15 6 -26 13 -40 28 -115 69 -115 63 0 -13 140 -85 154 -80
9 3 13 10 10 15 -3 5 2 6 11 3 9 -4 14 -9 11 -11 -3 -3 1 -12 9 -20 17 -16 20
-53 6 -53 -6 0 -11 -49 -13 -110 -2 -85 0 -111 10 -115 8 -3 19 -2 24 2 7 3 8
1 4 -5 -8 -14 30 -36 46 -26 7 4 8 3 4 -4 -8 -13 50 -46 65 -37 5 4 8 1 7 -6
-2 -6 3 -14 11 -17 8 -2 11 0 8 5 -3 5 4 8 16 7 12 -1 26 -3 30 -3 5 -1 5 -6
1 -12 -4 -7 2 -7 17 1 33 17 38 24 12 16 -12 -4 -24 -2 -28 4 -4 6 -3 10 2 9
20 -3 34 2 28 11 -4 6 1 7 11 3 12 -4 15 -3 10 5 -5 8 -1 10 10 5 13 -5 15 -3
9 8 -4 8 -5 11 0 7 4 -4 16 -3 27 3 11 6 22 8 25 6 3 -3 -8 -12 -24 -21 -15
-8 -24 -15 -19 -16 5 0 24 10 43 21 19 12 36 19 39 16 3 -2 -25 -21 -62 -42
-42 -24 -62 -40 -54 -45 8 -5 7 -9 -5 -13 -9 -4 -13 -3 -10 3 8 13 5 12 -34
-1 -17 -6 -31 -15 -31 -20 0 -12 6 -11 33 2 21 10 21 10 3 -5 -11 -9 -23 -16
-28 -16 -4 0 -8 -36 -8 -80 0 -44 3 -79 8 -78 4 1 19 -6 34 -16 15 -10 33 -14
39 -10 8 5 9 3 4 -6 -6 -10 -4 -12 9 -7 10 4 15 3 11 -3 -7 -12 32 -33 47 -24
7 5 8 3 3 -6 -6 -9 -4 -12 7 -8 9 4 15 0 15 -8 0 -8 -3 -13 -6 -12 -4 2 -41
23 -84 47 -43 23 -80 41 -82 39 -2 -2 45 -31 106 -65 60 -34 109 -58 109 -52
0 5 -6 9 -12 9 -7 1 4 10 25 21 22 11 36 23 33 26 -3 3 -21 -5 -41 -17 -20
-12 -38 -20 -41 -18 -2 3 37 29 88 58 51 29 96 56 99 61 5 9 4 176 -2 208 -1
7 -17 22 -36 33 -18 11 -30 25 -26 31 3 6 1 7 -5 3 -7 -4 -19 -3 -28 2 -15 8
-15 10 0 15 12 5 15 3 10 -5 -5 -8 -2 -9 9 -5 9 3 20 0 24 -7 5 -6 19 -20 32
-29 19 -13 29 -14 45 -5 19 10 20 10 7 -5 -21 -26 -6 -21 80 25 59 31 79 47
79 62 0 16 2 18 9 7 6 -10 13 -10 28 -2 17 8 32 2 89 -34 123 -80 126 -76 123
168 -2 164 -5 194 -16 190 -11 -4 -11 -8 -3 -13 8 -5 7 -9 -5 -13 -9 -4 -13
-3 -10 3 8 13 -1 13 -28 -1 -19 -9 -20 -8 -5 3 9 7 25 19 35 26 16 11 16 12
-6 6 -16 -4 -21 -3 -17 5 4 6 14 11 22 11 8 0 14 5 14 11 0 6 -7 9 -15 5 -21
-8 -19 1 4 14 17 8 19 7 16 -15 -1 -14 2 -25 6 -25 5 0 9 40 9 89 0 75 -3 90
-17 97 -10 4 -21 7 -25 6 -3 -1 -9 5 -12 13 -7 19 -1 19 29 -1 25 -16 25 -16
25 14 0 22 -4 29 -17 28 -10 0 -21 -5 -24 -9 -3 -5 -9 1 -12 12 -3 12 -1 21 3
21 5 0 17 3 27 6 15 5 15 4 3 -5 -8 -5 -11 -13 -7 -17 4 -4 12 -3 19 4 8 8 8
16 -3 28 -9 12 -10 15 -1 10 9 -6 12 32 12 174 0 118 -3 179 -10 175 -5 -3
-10 -2 -10 4 0 5 5 11 12 13 7 3 5 7 -6 11 -9 4 -15 3 -12 -2 5 -7 -11 -15
-41 -20 -4 -1 -8 6 -9 14 -2 14 0 14 14 3 13 -11 15 -11 9 4 -4 12 0 21 13 28
11 6 20 16 20 22 0 7 -5 6 -15 -2 -9 -7 -18 -10 -21 -7 -3 3 4 10 15 17 12 6
21 17 21 25 0 13 -28 15 -179 15 l-179 0 0 -35z m92 -87 c-5 -8 -2 -9 10 -5
10 4 19 1 22 -8 4 -10 12 -12 31 -4 18 7 33 5 56 -6 38 -19 43 -19 27 0 -11
13 -10 14 3 10 8 -4 18 -1 23 6 5 8 3 10 -6 4 -8 -5 -11 -4 -7 3 7 10 47 5 47
-7 0 -3 -16 -16 -35 -29 l-35 -22 -22 20 c-25 23 -34 25 -41 7 -3 -9 3 -13 17
-13 19 1 21 -5 23 -49 1 -27 -1 -42 -4 -32 -2 9 -12 17 -21 17 -9 0 -28 9 -42
20 -14 11 -20 20 -15 19 6 0 19 -6 29 -14 11 -8 26 -15 33 -15 17 0 17 17 1
17 -19 0 -88 43 -88 55 0 5 -4 7 -9 4 -5 -4 -8 2 -6 11 5 24 4 23 11 23 3 0 2
-5 -2 -12z m-277 -165 c-3 -10 -5 -2 -5 17 0 19 2 27 5 18 2 -10 2 -26 0 -35z
m390 -30 c-3 -10 -5 -4 -5 12 0 17 2 24 5 18 2 -7 2 -21 0 -30z m23 -73 l25
-21 -34 16 c-34 17 -81 13 -81 -6 0 -6 7 -8 16 -5 8 3 12 2 9 -4 -3 -6 -1 -10
4 -10 6 0 11 7 11 15 0 14 4 14 31 0 17 -9 29 -19 26 -22 -3 -2 -16 1 -29 8
-20 11 -22 11 -10 -4 11 -13 10 -16 -7 -22 -23 -7 -28 -21 -9 -27 7 -3 5 -7
-6 -11 -11 -5 -15 -3 -10 5 5 7 0 9 -14 6 -31 -8 -27 -1 11 22 38 24 29 26
-16 4 l-32 -15 25 21 c17 15 19 20 8 16 -14 -4 -18 0 -18 18 0 17 7 26 25 30
14 4 25 11 25 17 0 6 4 6 13 -1 6 -5 23 -19 37 -30z m-6 -65 c-4 -8 -11 -15
-16 -15 -6 0 -5 6 2 15 7 8 14 15 16 15 2 0 1 -7 -2 -15z m56 -21 c0 -2 -9 0
-20 6 -11 6 -20 13 -20 16 0 2 9 0 20 -6 11 -6 20 -13 20 -16z m-190 1 c0 -2
-10 -9 -22 -15 -22 -11 -22 -10 -4 4 21 17 26 19 26 11z m280 -75 c0 -5 -2
-10 -4 -10 -3 0 -8 5 -11 10 -3 6 -1 10 4 10 6 0 11 -4 11 -10z m-33 -112 c-3
-8 -6 -5 -6 6 -1 11 2 17 5 13 3 -3 4 -12 1 -19z m-302 -78 c3 -5 2 -10 -4
-10 -5 0 -13 5 -16 10 -3 6 -2 10 4 10 5 0 13 -4 16 -10z m65 -96 c0 -2 -9 0
-20 6 -11 6 -20 13 -20 16 0 2 9 0 20 -6 11 -6 20 -13 20 -16z m84 -1 c-22
-16 -1 -18 28 -2 15 8 19 8 14 0 -9 -14 -1 -14 27 0 19 9 18 7 -3 -10 -14 -11
-26 -16 -28 -11 -2 6 -8 10 -14 10 -6 0 -8 -6 -5 -14 3 -8 0 -17 -8 -20 -10
-3 -12 0 -8 12 6 15 5 15 -10 3 -15 -12 -17 -12 -11 3 3 9 2 16 -4 16 -23 0
-21 -31 3 -42 14 -6 25 -15 25 -20 0 -9 -22 1 -54 24 -16 13 -17 16 -3 30 9 9
13 19 9 22 -3 4 1 4 11 0 9 -3 17 -2 17 3 0 5 7 10 16 10 14 0 14 -2 -2 -14z
m23 -115 c-2 -13 -4 -3 -4 22 0 25 2 35 4 23 2 -13 2 -33 0 -45z m-22 13 c-7
-6 -55 21 -55 31 0 5 13 1 30 -8 16 -10 27 -20 25 -23z m-448 -13 c-3 -8 -6
-5 -6 6 -1 11 2 17 5 13 3 -3 4 -12 1 -19z m-340 -50 c-3 -7 -5 -2 -5 12 0 14
2 19 5 13 2 -7 2 -19 0 -25z m740 -10 c-3 -8 -6 -5 -6 6 -1 11 2 17 5 13 3 -3
4 -12 1 -19z m-330 -20 c-3 -7 -5 -2 -5 12 0 14 2 19 5 13 2 -7 2 -19 0 -25z
m403 -15 c0 -47 -1 -48 -30 -48 -26 0 -28 2 -14 12 9 7 21 10 25 7 5 -3 9 13
9 35 0 23 2 41 5 41 3 0 5 -21 5 -47z m-813 -35 c-3 -8 -6 -5 -6 6 -1 11 2 17
5 13 3 -3 4 -12 1 -19z m340 -20 c-3 -8 -6 -5 -6 6 -1 11 2 17 5 13 3 -3 4
-12 1 -19z m67 -14 c9 -8 16 -13 16 -9 0 3 5 3 10 0 8 -5 8 -11 0 -20 -8 -9 3
-20 45 -46 30 -18 53 -35 50 -37 -2 -2 -31 12 -65 32 -65 38 -75 42 -65 26 7
-11 -8 -14 -19 -3 -3 4 4 12 16 19 21 12 20 12 -17 9 -53 -4 -63 4 -34 26 30
23 43 23 63 3z"/>
<path d="M1602 1945 c0 -16 2 -22 5 -12 2 9 2 23 0 30 -3 6 -5 -1 -5 -18z"/>
<path d="M1190 1950 c0 -6 4 -9 9 -6 5 3 15 -2 22 -11 12 -14 11 -15 -11 -9
-19 6 -21 5 -10 -3 8 -6 24 -8 35 -6 11 3 14 2 7 -1 -13 -6 -7 -24 9 -24 6 0
7 5 4 10 -10 16 8 11 40 -11 17 -12 22 -18 13 -15 -49 17 -50 16 -13 -8 45
-29 45 -29 63 -17 10 6 -11 22 -70 57 -101 60 -98 58 -98 44z m155 -90 c3 -5
2 -10 -4 -10 -5 0 -13 5 -16 10 -3 6 -2 10 4 10 5 0 13 -4 16 -10z"/>
<path d="M1165 1939 c-4 -6 -14 -8 -22 -5 -8 3 -12 2 -8 -3 3 -5 -29 -28 -71
-51 -41 -23 -73 -44 -70 -47 2 -3 25 7 50 22 61 36 59 26 -3 -12 -36 -23 -52
-28 -60 -20 -8 8 -10 -23 -9 -113 l2 -125 6 115 6 115 5 -110 5 -110 2 106 c2
91 5 108 20 114 14 5 15 4 5 -6 -9 -9 -13 -46 -13 -111 l0 -98 48 -30 c26 -17
75 -44 108 -61 59 -29 63 -30 90 -15 16 8 25 15 21 16 -5 0 -17 -5 -29 -11
-11 -6 -22 -9 -24 -6 -2 2 31 25 75 50 80 47 122 83 60 52 -21 -11 -29 -12
-21 -4 6 7 13 22 13 34 1 16 2 16 6 3 2 -10 10 -15 19 -11 11 4 14 26 14 92
l0 86 -109 65 c-69 41 -107 69 -104 77 6 16 -3 17 -12 2z m-5 -24 c0 -2 -13
-11 -30 -20 -38 -19 -40 -11 -2 9 31 17 32 18 32 11z m197 -137 c-3 -8 -6 -5
-6 6 -1 11 2 17 5 13 3 -3 4 -12 1 -19z"/>
<path d="M1502 1893 c-24 -14 -41 -27 -38 -30 4 -5 96 45 96 53 0 8 -16 2 -58
-23z"/>
<path d="M1360 1831 c0 -9 30 -24 36 -18 2 1 -6 8 -16 15 -11 7 -20 8 -20 3z"/>
<path d="M1030 1561 c14 -11 29 -21 33 -21 5 0 5 -5 1 -12 -4 -6 -3 -8 4 -4 6
3 26 -3 44 -14 34 -21 60 -27 43 -11 -6 5 -41 25 -80 46 -38 20 -59 27 -45 16z"/>
<path d="M1370 1570 c-8 -5 -10 -10 -5 -10 6 0 17 5 25 10 8 5 11 10 5 10 -5
0 -17 -5 -25 -10z"/>
<path d="M1387 1549 c-10 -6 -25 -8 -33 -5 -16 6 -80 -22 -71 -31 3 -2 17 3
31 13 15 9 29 14 32 12 3 -3 -24 -22 -60 -42 -65 -36 -88 -56 -65 -56 8 0 9
-3 0 -14 -17 -21 -12 -138 8 -154 14 -12 14 -13 -3 -7 -20 6 -20 6 0 -16 10
-12 13 -19 5 -14 -10 5 -12 4 -7 -4 11 -18 65 -43 78 -35 7 4 8 3 4 -4 -9 -15
68 -54 90 -45 12 4 15 3 10 -5 -5 -8 -2 -10 9 -5 13 5 14 7 3 14 -7 5 -20 6
-30 3 -9 -2 -19 0 -23 5 -3 7 0 8 9 5 9 -4 16 -1 16 6 0 10 3 10 15 0 8 -7 22
-10 30 -6 11 4 14 2 9 -6 -4 -7 17 2 47 19 30 17 54 36 54 43 0 7 6 15 14 18
8 3 11 0 7 -7 -5 -7 -1 -9 8 -5 9 3 16 1 16 -5 0 -6 -5 -11 -12 -11 -9 0 -9
-3 -1 -11 12 -12 56 -2 48 11 -3 5 1 10 7 12 8 3 4 10 -11 17 -14 8 -21 9 -17
2 9 -14 -4 -14 -24 -1 -10 6 -11 10 -2 10 6 0 12 5 12 10 0 7 -6 7 -20 0 -12
-7 -20 -7 -20 -1 0 5 9 13 20 16 17 5 20 15 20 69 0 36 -5 68 -12 75 -10 11
-10 13 0 7 6 -4 12 -3 12 1 0 5 -6 15 -12 22 -11 11 -10 12 1 6 9 -5 12 -4 7
3 -13 21 -26 13 -26 -15 0 -21 -3 -24 -9 -14 -6 9 -6 22 0 32 8 15 -1 23 -52
52 -63 36 -113 41 -87 9 12 -14 11 -14 -9 -1 l-23 14 23 12 c12 7 18 12 12 12
-5 0 -18 -4 -28 -10z m170 -191 c-3 -8 -6 -5 -6 6 -1 11 2 17 5 13 3 -3 4 -12
1 -19z m57 -143 c-4 -8 -11 -15 -16 -15 -6 0 -5 6 2 15 7 8 14 15 16 15 2 0 1
-7 -2 -15z"/>
<path d="M1581 1496 c-9 -10 -8 -15 4 -20 8 -3 22 -3 30 0 12 5 12 8 0 20 -17
17 -20 17 -34 0z"/>
<path d="M1170 1479 c0 -5 5 -7 10 -4 6 3 10 8 10 11 0 2 -4 4 -10 4 -5 0 -10
-5 -10 -11z"/>
<path d="M1193 1380 c0 -25 2 -35 4 -22 2 12 2 32 0 45 -2 12 -4 2 -4 -23z"/>
<path d="M790 1260 c0 -5 7 -10 16 -10 8 0 12 5 9 10 -3 6 -10 10 -16 10 -5 0
-9 -4 -9 -10z"/>
<path d="M687 1203 c-43 -25 -76 -48 -73 -50 4 -5 93 45 151 84 46 31 -6 8
-78 -34z"/>
<path d="M790 1231 c0 -6 4 -13 10 -16 6 -3 7 1 4 9 -7 18 -14 21 -14 7z"/>
<path d="M1824 859 c-3 -6 -18 -8 -33 -5 l-26 6 24 -13 c15 -9 20 -17 12 -21
-6 -4 -11 -3 -11 2 0 18 -43 21 -72 6 -15 -8 -28 -21 -28 -29 0 -8 -9 -19 -20
-25 -16 -9 -19 -8 -13 6 4 12 3 15 -5 10 -7 -4 -12 -14 -12 -22 0 -8 -4 -12
-10 -9 -5 3 -10 -1 -10 -9 0 -9 -8 -16 -17 -15 -11 0 -13 3 -5 6 6 2 12 10 12
16 0 6 -8 3 -17 -6 -15 -15 -16 -19 -3 -27 8 -5 18 -6 22 -4 4 3 8 0 8 -7 0
-7 -8 -9 -21 -6 -19 5 -20 2 -18 -72 1 -43 -2 -84 -6 -92 -8 -12 -6 -12 8 0
11 8 17 9 17 3 0 -6 -9 -16 -19 -22 -26 -13 -34 -13 -25 1 4 7 -16 -1 -45 -16
-32 -18 -47 -31 -40 -36 8 -4 0 -13 -20 -24 -18 -9 -31 -18 -28 -21 4 -5 97
45 97 53 0 2 -10 1 -22 -2 -16 -5 -13 0 10 14 37 24 55 28 26 6 -29 -22 -8
-18 36 8 39 22 52 50 28 60 -8 4 -7 6 3 6 9 1 23 -7 30 -16 10 -11 10 -14 2
-9 -7 4 -13 3 -13 -2 0 -4 18 -18 40 -31 40 -22 58 -41 21 -21 -25 13 -34 13
-25 -1 4 -8 0 -8 -15 0 -25 14 -28 23 -4 14 11 -4 14 -3 9 5 -11 19 -22 15
-127 -45 l-99 -58 0 -113 c0 -88 3 -112 13 -106 9 6 9 4 -1 -8 -10 -13 -10
-18 -1 -24 7 -4 9 -3 6 3 -4 6 0 14 9 17 8 3 12 2 9 -4 -6 -9 8 -14 28 -11 5
1 5 -4 1 -10 -5 -9 -2 -10 10 -6 10 4 15 3 11 -3 -6 -9 8 -14 28 -11 5 1 6 -3
3 -8 -8 -12 44 -11 68 1 13 7 16 7 12 -1 -6 -10 9 -10 67 -2 5 0 6 5 2 10 -3
5 0 13 6 17 8 5 9 3 4 -6 -5 -8 -3 -11 6 -8 8 3 13 10 12 16 -2 7 4 9 14 5 12
-5 14 -3 8 7 -5 9 -4 11 3 6 8 -5 12 3 12 22 0 21 6 31 20 35 18 5 20 14 20
75 0 65 -2 72 -27 91 -16 11 -23 21 -16 21 6 0 15 -4 18 -10 3 -5 11 -10 17
-10 7 0 7 4 0 13 -14 17 -5 28 43 50 55 26 155 90 155 101 0 5 -7 3 -15 -4 -9
-7 -18 -10 -21 -7 -3 3 4 10 15 17 18 9 21 20 21 82 0 56 -4 74 -17 84 -17 13
-17 14 0 8 9 -3 17 -1 17 5 0 6 -7 11 -15 11 -8 0 -15 3 -15 8 0 4 -29 23 -64
42 -50 26 -62 37 -54 47 6 7 8 13 5 13 -3 0 -9 -5 -13 -11z m-64 -24 c0 -2
-10 -10 -22 -16 -21 -11 -22 -11 -9 4 13 16 31 23 31 12z m-15 -335 c3 -6 -1
-7 -9 -4 -18 7 -21 14 -7 14 6 0 13 -4 16 -10z m-30 -30 c3 0 3 5 -1 11 -4 8
0 8 15 0 25 -14 28 -23 4 -14 -11 5 -14 3 -9 -6 6 -8 -2 -7 -23 3 -17 9 -31
19 -31 22 0 2 9 0 19 -6 11 -5 22 -10 26 -10z m81 -5 c-11 -8 -24 -15 -29 -15
-4 0 -5 -4 -2 -10 3 -5 1 -10 -4 -10 -20 0 -11 19 17 34 35 19 42 19 18 1z
m-39 -157 c-3 -8 -6 -5 -6 6 -1 11 2 17 5 13 3 -3 4 -12 1 -19z"/>
<path d="M1850 845 c0 -2 23 -16 50 -30 62 -31 65 -26 6 9 -44 26 -56 30 -56
21z"/>
<path d="M1015 831 c3 -6 10 -9 15 -6 4 3 11 0 13 -5 3 -6 4 -5 3 2 -1 7 -11
15 -21 16 -11 3 -15 0 -10 -7z"/>
<path d="M1060 813 c0 -7 10 -17 21 -24 16 -8 20 -8 17 1 -2 6 -7 11 -12 10
-5 -1 -13 4 -17 12 -6 9 -9 9 -9 1z"/>
<path d="M1275 800 c-3 -5 -2 -10 4 -10 5 0 13 5 16 10 3 6 2 10 -4 10 -5 0
-13 -4 -16 -10z"/>
<path d="M1976 794 c-9 -24 -7 -27 9 -10 17 17 19 26 6 26 -5 0 -12 -7 -15
-16z"/>
<path d="M1196 771 c-4 -7 -5 -15 -2 -18 9 -9 19 4 14 18 -4 11 -6 11 -12 0z"/>
<path d="M1993 650 c0 -36 2 -50 4 -32 2 17 2 47 0 65 -2 17 -4 3 -4 -33z"/>
<path d="M1890 485 c-30 -19 -51 -35 -47 -35 12 0 96 50 103 61 8 14 4 12 -56
-26z"/>
<path d="M1940 488 c-69 -37 -132 -80 -126 -85 2 -3 15 1 28 8 21 11 22 11 10
-4 -8 -9 -22 -19 -33 -22 -15 -5 -19 -15 -17 -53 l1 -47 7 45 7 45 1 -53 c1
-33 -2 -51 -8 -47 -5 3 -10 -1 -10 -9 0 -9 5 -16 10 -16 16 0 12 -47 -5 -54
-9 -3 -12 -12 -8 -22 5 -14 3 -16 -13 -11 -19 7 -19 7 0 -8 23 -17 14 -20 -15
-5 -14 8 -25 7 -39 -3 -11 -8 -17 -17 -12 -22 4 -5 2 -5 -5 -1 -19 11 -65 -24
-60 -46 3 -10 1 -21 -4 -24 -5 -3 -10 5 -10 18 -1 14 -4 8 -8 -14 l-6 -37 -44
20 c-24 10 -41 22 -38 26 4 3 18 -2 31 -11 29 -18 46 -21 46 -5 0 5 -4 8 -10
4 -5 -3 -18 3 -29 14 -11 11 -23 16 -27 13 -4 -4 -4 3 -1 15 4 20 3 21 -15 12
-13 -7 -18 -7 -14 -1 5 9 -27 27 -44 24 -3 0 -9 6 -13 14 -5 8 -13 12 -18 8
-5 -3 -15 -2 -22 4 -21 16 -49 23 -41 10 5 -8 -4 -9 -32 -5 -22 4 -33 3 -26
-2 11 -7 10 -9 -3 -15 -9 -3 -13 -10 -10 -16 4 -6 -1 -7 -11 -3 -12 4 -15 3
-10 -5 5 -8 1 -10 -10 -5 -12 4 -15 3 -10 -5 5 -8 2 -10 -8 -6 -16 6 -19 -3
-18 -51 1 -18 0 -18 -5 -2 -3 11 -11 16 -20 13 -8 -3 -17 -6 -19 -6 -2 0 -4
-13 -4 -30 l0 -30 174 0 c173 0 175 0 179 23 l4 22 2 -23 1 -23 220 1 c121 1
220 5 220 8 0 4 -14 16 -31 26 -17 10 -28 20 -26 23 3 2 17 -3 31 -12 29 -19
36 -10 9 11 -15 11 -15 13 -2 9 14 -5 16 17 18 211 2 205 1 216 -16 210 -16
-5 -16 -4 1 9 35 27 12 23 -44 -7z m-70 -283 c0 -2 -7 -2 -15 1 -8 4 -15 1
-15 -5 0 -6 6 -11 13 -11 8 0 8 -3 -2 -9 -11 -7 -7 -13 18 -25 17 -9 31 -19
31 -22 0 -2 -13 2 -30 11 -34 17 -44 19 -35 5 3 -6 -1 -7 -9 -4 -13 5 -13 8
-2 19 8 8 11 25 8 41 -4 24 -3 25 17 15 11 -7 21 -14 21 -16z m103 -90 c17 5
19 4 7 -4 -13 -10 -13 -12 0 -22 13 -9 13 -10 -2 -6 -9 3 -19 1 -22 -6 -2 -7
-5 -5 -5 4 -1 9 -11 24 -23 33 l-23 17 23 -11 c12 -6 33 -8 45 -5z"/>
<path d="M1375 328 c0 -70 3 -87 13 -83 8 3 16 5 18 5 2 0 4 33 4 73 0 58 -3
74 -17 83 -17 10 -18 4 -18 -78z m22 -50 c-3 -8 -6 -5 -6 6 -1 11 2 17 5 13 3
-3 4 -12 1 -19z"/>
<path d="M0 304 c0 -46 3 -84 6 -84 4 0 22 9 40 21 30 18 34 26 34 64 0 32 -5
48 -20 58 -11 8 -18 16 -16 18 2 2 -7 5 -20 5 -24 2 -24 0 -24 -82z"/>
<path d="M1386 224 c-11 -8 -16 -14 -10 -14 13 0 39 18 34 24 -3 2 -14 -2 -24
-10z"/>
<path d="M892 168 c-46 -26 -88 -48 -93 -48 -5 0 -9 -4 -9 -10 0 -14 4 -13 44
11 20 12 36 18 36 15 0 -3 -14 -13 -31 -22 -22 -11 -28 -18 -19 -24 8 -5 8
-10 2 -14 -6 -3 -13 0 -15 6 -9 23 -27 -14 -25 -52 l1 -35 6 38 c6 36 7 37 19
16 8 -11 9 -18 3 -14 -7 3 -11 -2 -11 -14 0 -19 8 -19 196 -21 l195 -1 -3 33
c-3 30 -11 38 -83 80 -44 25 -89 54 -100 63 -19 15 -19 15 5 4 23 -11 24 -11
11 4 -7 10 -19 17 -26 17 -8 0 -15 4 -17 8 -1 5 -41 -13 -86 -40z m88 28 c0
-2 -7 -7 -16 -10 -8 -3 -12 -2 -9 4 6 10 25 14 25 6z m-60 -31 c0 -2 -10 -9
-22 -15 -22 -11 -22 -10 -4 4 21 17 26 19 26 11z"/>
<path d="M1760 210 c0 -5 4 -10 9 -10 6 0 13 5 16 10 3 6 -1 10 -9 10 -9 0
-16 -4 -16 -10z"/>
<path d="M1042 170 c2 -6 28 -24 58 -41 33 -19 47 -24 35 -12 -28 26 -98 66
-93 53z"/>
<path d="M1585 110 c-3 -5 1 -10 9 -10 9 0 16 5 16 10 0 6 -4 10 -9 10 -6 0
-13 -4 -16 -10z"/>
<path d="M1217 89 c7 -7 15 -10 18 -7 3 3 -2 9 -12 12 -14 6 -15 5 -6 -5z"/>
</g>
</svg>
