<?xml version="1.0" standalone="no"?>
<!DOCTYPE svg PUBLIC "-//W3C//DTD SVG 20010904//EN"
 "http://www.w3.org/TR/2001/REC-SVG-20010904/DTD/svg10.dtd">
<svg version="1.0" xmlns="http://www.w3.org/2000/svg"
 width="200.000000pt" height="200.000000pt" viewBox="0 0 200.000000 200.000000"
 preserveAspectRatio="xMidYMid meet">
<metadata>
Created by potrace 1.16, written by Peter Selinger 2001-2019
</metadata>
<g transform="translate(0.000000,200.000000) scale(0.100000,-0.100000)"
fill="#000000" stroke="none">
<path d="M1 999 c1 -760 3 -999 12 -996 7 3 11 9 10 15 -2 6 4 9 13 5 11 -4
12 -8 4 -13 -7 -4 107 -8 254 -8 175 0 264 3 260 10 -4 7 0 7 12 0 26 -13 792
-13 800 0 4 6 10 5 15 -3 6 -11 14 -11 39 -2 16 6 28 8 25 3 -3 -4 115 -8 261
-8 155 0 261 4 253 9 -9 6 -10 9 -2 9 6 0 15 -4 18 -10 19 -31 24 12 24 215
-1 199 -3 226 -17 236 -16 10 -16 10 1 5 14 -4 17 1 17 31 0 31 -2 34 -15 23
-9 -7 -18 -10 -21 -7 -3 3 4 10 15 17 18 9 21 20 21 78 0 41 -5 73 -12 81 -9
9 -9 12 -1 7 9 -5 11 59 11 259 0 236 -5 294 -21 253 -4 -10 -6 -10 -6 0 -1 7
6 15 14 18 12 5 14 34 14 161 0 135 -1 153 -14 143 -9 -7 -15 -8 -15 -2 0 5 6
12 14 15 12 5 15 39 15 192 -1 160 -3 184 -15 174 -8 -7 -14 -7 -14 -1 0 5 7
12 15 16 9 3 15 19 15 41 0 34 -12 46 -25 25 -3 -5 -12 -10 -18 -10 -8 0 -7 3
2 9 8 5 -65 9 -179 9 -172 0 -197 -2 -228 -19 -18 -11 -30 -15 -27 -9 4 6 17
15 28 19 13 5 -16 8 -76 9 -68 0 -97 -3 -97 -11 0 -9 -2 -9 -8 -1 -5 8 -195
11 -676 12 -368 0 -664 -3 -658 -7 7 -4 3 -12 -11 -20 -19 -13 -21 -12 -10 1
12 14 8 28 -8 28 -4 0 -8 -450 -8 -1001z m365 979 c4 -7 3 -8 -4 -4 -7 4 -22
0 -34 -8 -12 -9 -17 -16 -10 -16 6 0 12 -5 12 -10 0 -6 -8 -5 -20 2 -18 12
-18 13 8 30 32 21 38 22 48 6z m105 -5 c13 -16 12 -17 -3 -5 -9 8 -23 10 -29
6 -8 -4 -9 -3 -5 4 10 17 21 15 37 -5z m294 7 c3 -6 -1 -7 -9 -4 -18 7 -21 14
-7 14 6 0 13 -4 16 -10z m105 0 c8 -5 12 -11 10 -14 -3 -2 -14 2 -24 10 -22
15 -10 19 14 4z m274 -4 c-10 -8 -21 -12 -24 -10 -5 6 21 24 34 24 6 0 1 -6
-10 -14z m126 4 c8 -5 12 -11 10 -14 -3 -2 -14 2 -24 10 -22 15 -10 19 14 4z
m394 4 c9 -3 16 -11 16 -16 0 -6 -6 -5 -15 2 -8 6 -20 8 -26 4 -8 -4 -9 -3 -5
4 8 14 9 14 30 6z m-944 -24 c-10 -7 -11 -10 -2 -10 6 0 12 -5 12 -10 0 -6 -8
-5 -19 2 -18 11 -18 13 -3 24 9 7 19 10 22 8 2 -3 -2 -9 -10 -14z m-320 0 c0
-5 -2 -10 -4 -10 -3 0 -8 5 -11 10 -3 6 -1 10 4 10 6 0 11 -4 11 -10z m400 0
c0 -5 -2 -10 -4 -10 -3 0 -8 5 -11 10 -3 6 -1 10 4 10 6 0 11 -4 11 -10z m415
0 c-3 -5 -12 -7 -20 -3 -21 7 -19 13 6 13 11 0 18 -4 14 -10z m405 6 c0 -11
-19 -15 -25 -6 -3 5 1 10 9 10 9 0 16 -2 16 -4z m-726 -21 c-10 -8 -23 -14
-29 -14 -5 0 -1 6 9 14 11 8 24 15 30 15 5 0 1 -7 -10 -15z m216 11 c0 -2 -7
-7 -16 -10 -8 -3 -12 -2 -9 4 6 10 25 14 25 6z m584 -10 c-10 -8 -21 -12 -24
-10 -5 6 21 24 34 24 6 0 1 -6 -10 -14z m-414 -6 c0 -5 -5 -10 -11 -10 -5 0
-7 5 -4 10 3 6 8 10 11 10 2 0 4 -4 4 -10z m255 0 c3 -5 1 -10 -4 -10 -6 0
-11 5 -11 10 0 6 2 10 4 10 3 0 8 -4 11 -10z m-1095 -32 c0 -12 -13 -9 -32 6
-26 19 -22 26 7 13 14 -7 25 -15 25 -19z m404 7 c-7 -16 -24 -21 -24 -6 0 8 7
13 27 20 1 1 0 -6 -3 -14z m350 0 c-22 -17 -34 -19 -34 -6 0 5 8 12 18 14 32
9 36 7 16 -8z m-1159 -5 c3 -5 2 -10 -4 -10 -5 0 -13 5 -16 10 -3 6 -2 10 4
10 5 0 13 -4 16 -10z m185 -10 c-10 -7 -11 -10 -2 -10 6 0 12 -5 12 -10 0 -6
-8 -5 -19 2 -18 11 -18 13 -3 24 9 7 19 10 22 8 2 -3 -2 -9 -10 -14z m160 16
c0 -3 -4 -8 -10 -11 -5 -3 -10 -1 -10 4 0 6 5 11 10 11 6 0 10 -2 10 -4z m200
-6 c0 -5 -2 -10 -4 -10 -3 0 -8 5 -11 10 -3 6 -1 10 4 10 6 0 11 -4 11 -10z
m41 -9 c-10 -6 -9 -10 5 -15 9 -3 14 -9 11 -12 -3 -3 -14 0 -25 7 -19 12 -19
14 -4 25 9 7 19 10 22 8 2 -3 -1 -9 -9 -13z m159 10 c0 -5 -8 -11 -17 -15 -10
-3 -25 -9 -33 -12 -8 -4 -4 3 10 14 27 23 40 27 40 13z m200 -1 c0 -5 -2 -10
-4 -10 -3 0 -8 5 -11 10 -3 6 -1 10 4 10 6 0 11 -4 11 -10z m46 -5 c-11 -8
-24 -15 -30 -15 -5 0 -1 7 10 15 10 8 24 14 29 14 6 0 1 -6 -9 -14z m214 5 c0
-5 -4 -10 -10 -10 -5 0 -10 5 -10 10 0 6 5 10 10 10 6 0 10 -4 10 -10z m154
-5 c11 -8 15 -15 10 -15 -6 0 -19 7 -30 15 -10 8 -14 14 -9 14 6 0 19 -6 29
-14z m46 11 c0 -3 -4 -8 -10 -11 -5 -3 -10 -1 -10 4 0 6 5 11 10 11 6 0 10 -2
10 -4z m140 -6 c0 -5 -5 -10 -11 -10 -5 0 -7 5 -4 10 3 6 8 10 11 10 2 0 4 -4
4 -10z m60 0 c0 -5 -2 -10 -4 -10 -3 0 -8 5 -11 10 -3 6 -1 10 4 10 6 0 11 -4
11 -10z m152 -27 c-9 -7 -21 -12 -27 -12 -5 0 -1 6 9 14 11 8 14 15 8 15 -7 0
-12 5 -12 10 0 6 8 5 19 -2 18 -11 18 -13 3 -25z m-1302 -9 c0 -2 -9 0 -20 6
-11 6 -20 13 -20 16 0 2 9 0 20 -6 11 -6 20 -13 20 -16z m400 3 c0 -2 -8 -3
-18 -3 -10 0 -19 6 -19 13 0 8 6 9 19 2 10 -5 18 -11 18 -12z m255 13 c-3 -5
-12 -10 -18 -10 -7 0 -6 4 3 10 19 12 23 12 15 0z m130 -8 c-3 -3 -11 0 -18 7
-9 10 -8 11 6 5 10 -3 15 -9 12 -12z m272 4 c0 -8 -6 -12 -15 -9 -11 5 -11 7
0 14 7 5 13 9 14 9 0 0 1 -6 1 -14z m128 -4 c-3 -3 -11 0 -18 7 -9 10 -8 11 6
5 10 -3 15 -9 12 -12z m272 5 c0 -7 -9 -13 -19 -13 -18 0 -18 1 -2 13 10 7 18
13 19 13 1 0 2 -6 2 -13z m-1867 -1 c0 -2 -7 -7 -16 -10 -8 -3 -12 -2 -9 4 6
10 25 14 25 6z m900 -6 c0 -5 -5 -10 -11 -10 -5 0 -7 5 -4 10 3 6 8 10 11 10
2 0 4 -4 4 -10z m55 0 c3 -5 1 -10 -4 -10 -6 0 -11 5 -11 10 0 6 2 10 4 10 3
0 8 -4 11 -10z m345 0 c0 -5 -5 -10 -11 -10 -5 0 -7 5 -4 10 3 6 8 10 11 10 2
0 4 -4 4 -10z m55 0 c3 -5 1 -10 -4 -10 -6 0 -11 5 -11 10 0 6 2 10 4 10 3 0
8 -4 11 -10z m400 0 c3 -5 1 -10 -4 -10 -6 0 -11 5 -11 10 0 6 2 10 4 10 3 0
8 -4 11 -10z m-1805 -20 c0 -5 -5 -10 -11 -10 -5 0 -7 5 -4 10 3 6 8 10 11 10
2 0 4 -4 4 -10z m345 0 c3 -6 -1 -7 -9 -4 -18 7 -21 14 -7 14 6 0 13 -4 16
-10z m65 6 c0 -3 -4 -8 -10 -11 -5 -3 -10 -1 -10 4 0 6 5 11 10 11 6 0 10 -2
10 -4z m104 -11 c-7 -16 -24 -21 -24 -6 0 8 7 13 27 20 1 1 0 -6 -3 -14z m296
11 c0 -3 -4 -8 -10 -11 -5 -3 -10 -1 -10 4 0 6 5 11 10 11 6 0 10 -2 10 -4z
m410 0 c0 -2 -7 -7 -16 -10 -8 -3 -12 -2 -9 4 6 10 25 14 25 6z m-1115 -16 c3
-5 1 -10 -4 -10 -6 0 -11 5 -11 10 0 6 2 10 4 10 3 0 8 -4 11 -10z m145 5 c0
-2 -10 -10 -22 -16 -21 -11 -22 -11 -9 4 13 16 31 23 31 12z m380 -15 c-28
-22 -40 -25 -40 -9 0 5 4 8 9 5 5 -3 14 1 21 9 7 8 18 15 24 15 6 0 0 -9 -14
-20z m120 0 c0 -11 -4 -20 -9 -20 -5 0 -7 9 -4 20 3 11 7 20 9 20 2 0 4 -9 4
-20z m160 10 c0 -5 -4 -10 -10 -10 -5 0 -10 5 -10 10 0 6 5 10 10 10 6 0 10
-4 10 -10z m122 -6 c-12 -8 -20 -20 -17 -25 3 -5 -1 -6 -9 -3 -13 5 -12 9 7
25 12 10 26 18 32 19 5 0 -1 -7 -13 -16z m278 6 c0 -5 -2 -10 -4 -10 -3 0 -8
5 -11 10 -3 6 -1 10 4 10 6 0 11 -4 11 -10z m140 0 c0 -5 -2 -10 -4 -10 -3 0
-8 5 -11 10 -3 6 -1 10 4 10 6 0 11 -4 11 -10z m260 0 c0 -5 -2 -10 -4 -10 -3
0 -8 5 -11 10 -3 6 -1 10 4 10 6 0 11 -4 11 -10z m-531 -3 c-2 -1 -13 -9 -24
-17 -19 -14 -19 -14 -6 3 7 9 18 17 24 17 6 0 8 -1 6 -3z m417 -12 c10 -8 15
-14 9 -14 -5 0 -19 6 -29 14 -11 8 -15 15 -10 15 6 0 19 -7 30 -15z m-1451 -5
c3 -5 1 -10 -4 -10 -6 0 -11 5 -11 10 0 6 2 10 4 10 3 0 8 -4 11 -10z m205 0
c0 -5 -5 -10 -11 -10 -5 0 -7 5 -4 10 3 6 8 10 11 10 2 0 4 -4 4 -10z m194 1
c3 -5 0 -11 -7 -14 -8 -3 -14 1 -14 9 0 16 13 19 21 5z m406 -2 c0 -4 -6 -9
-13 -12 -8 -3 -14 0 -14 7 0 7 6 13 14 13 7 0 13 -4 13 -8z m400 -1 c0 -4 -4
-8 -9 -8 -6 0 -12 4 -15 8 -3 5 1 9 9 9 8 0 15 -4 15 -9z m67 -2 c0 -8 -6 -12
-15 -9 -11 5 -11 7 0 14 7 5 13 9 14 9 0 0 1 -6 1 -14z m333 2 c0 -4 -4 -8 -9
-8 -6 0 -12 4 -15 8 -3 5 1 9 9 9 8 0 15 -4 15 -9z m45 -12 c-11 -8 -24 -12
-29 -8 -5 3 -1 9 10 13 31 12 39 10 19 -5z m-1615 0 c0 -3 -4 -8 -10 -11 -5
-3 -10 -1 -10 4 0 6 5 11 10 11 6 0 10 -2 10 -4z m1200 -6 c0 -5 -2 -10 -4
-10 -3 0 -8 5 -11 10 -3 6 -1 10 4 10 6 0 11 -4 11 -10z m-1270 -5 c0 -2 -15
-12 -32 -20 l-33 -16 25 20 c24 20 40 26 40 16z m400 1 c0 -3 -4 -8 -10 -11
-5 -3 -10 -1 -10 4 0 6 5 11 10 11 6 0 10 -2 10 -4z m400 0 c0 -3 -4 -8 -10
-11 -5 -3 -10 -1 -10 4 0 6 5 11 10 11 6 0 10 -2 10 -4z m940 -6 c0 -5 -2 -10
-4 -10 -3 0 -8 5 -11 10 -3 6 -1 10 4 10 6 0 11 -4 11 -10z m-175 -18 c-3 -3
-11 0 -18 7 -9 10 -8 11 6 5 10 -3 15 -9 12 -12z m-1500 -2 c3 -5 -1 -10 -10
-10 -9 0 -13 5 -10 10 3 6 8 10 10 10 2 0 7 -4 10 -10z m305 6 c0 -2 -7 -7
-16 -10 -8 -3 -12 -2 -9 4 6 10 25 14 25 6z m205 -6 c3 -6 -1 -7 -9 -4 -18 7
-21 14 -7 14 6 0 13 -4 16 -10z m195 6 c0 -2 -7 -7 -16 -10 -8 -3 -12 -2 -9 4
6 10 25 14 25 6z m175 -16 c-16 -11 -24 -20 -17 -20 6 0 12 -5 12 -10 0 -6 -8
-5 -20 2 -18 12 -18 13 8 30 15 10 32 18 37 18 6 0 -3 -9 -20 -20z m225 16 c0
-2 -7 -7 -16 -10 -8 -3 -12 -2 -9 4 6 10 25 14 25 6z m100 -6 c0 -5 -5 -10
-11 -10 -5 0 -7 5 -4 10 3 6 8 10 11 10 2 0 4 -4 4 -10z m88 -2 c-9 -7 -18
-22 -21 -33 -4 -15 -5 -14 -6 7 -1 24 9 35 33 37 6 1 3 -5 -6 -11z m312 2 c0
-5 -5 -10 -11 -10 -5 0 -7 5 -4 10 3 6 8 10 11 10 2 0 4 -4 4 -10z m105 0 c3
-6 -1 -7 -9 -4 -18 7 -21 14 -7 14 6 0 13 -4 16 -10z m-1635 -10 c0 -5 -5 -10
-11 -10 -5 0 -7 5 -4 10 3 6 8 10 11 10 2 0 4 -4 4 -10z m392 -7 c-10 -4 -10
-8 -1 -19 8 -10 4 -10 -20 2 -35 18 -40 24 -12 17 10 -3 22 0 26 7 4 6 10 8
14 4 3 -4 0 -9 -7 -11z m298 -20 c0 -2 -5 -1 -10 2 -6 4 -17 1 -25 -5 -11 -9
-15 -9 -15 -1 0 6 6 11 13 12 10 0 10 2 0 6 -7 2 -13 9 -13 14 0 5 11 2 25 -7
14 -9 25 -18 25 -21z m787 12 c1 0 -8 -7 -20 -14 -20 -13 -21 -13 -8 2 9 11
10 17 2 17 -6 0 -11 5 -11 11 0 8 6 7 18 -2 9 -7 18 -14 19 -14z m-1512 -3
c-3 -3 -11 0 -18 7 -9 10 -8 11 6 5 10 -3 15 -9 12 -12z m-79 -4 c4 -7 3 -8
-5 -4 -6 4 -18 2 -26 -4 -9 -8 -15 -8 -15 -2 0 9 15 19 32 21 4 1 10 -4 14
-11z m400 0 c4 -7 3 -8 -5 -4 -6 4 -18 2 -26 -4 -9 -8 -15 -8 -15 -2 0 9 15
19 32 21 4 1 10 -4 14 -11z m800 0 c4 -7 3 -8 -5 -4 -6 4 -20 2 -29 -6 -15
-12 -16 -11 -3 5 16 20 27 22 37 5z m94 8 c0 -2 -7 -7 -16 -10 -8 -3 -12 -2
-9 4 6 10 25 14 25 6z m404 -2 c9 -3 16 -11 16 -16 0 -6 -6 -5 -15 2 -8 6 -20
8 -26 4 -8 -4 -9 -3 -5 4 8 14 9 14 30 6z m-1834 -14 c0 -5 -5 -10 -11 -10 -5
0 -7 5 -4 10 3 6 8 10 11 10 2 0 4 -4 4 -10z m390 -10 c-10 -7 -11 -10 -2 -10
6 0 12 -5 12 -10 0 -6 -8 -5 -19 2 -18 11 -18 13 -3 24 9 7 19 10 22 8 2 -3
-2 -9 -10 -14z m400 0 c-8 -6 -10 -10 -5 -10 6 0 21 -10 35 -21 23 -19 22 -19
-17 2 -38 20 -41 24 -25 35 9 7 19 10 22 8 2 -3 -2 -9 -10 -14z m360 10 c0 -5
-2 -10 -4 -10 -3 0 -8 5 -11 10 -3 6 -1 10 4 10 6 0 11 -4 11 -10z m60 6 c0
-3 -4 -8 -10 -11 -5 -3 -10 -1 -10 4 0 6 5 11 10 11 6 0 10 -2 10 -4z m352 -9
c15 -12 15 -14 -3 -25 -11 -7 -19 -8 -19 -2 0 5 5 10 12 10 6 0 3 7 -8 15 -10
8 -14 14 -9 14 6 0 18 -5 27 -12z m48 9 c0 -3 -4 -8 -10 -11 -5 -3 -10 -1 -10
4 0 6 5 11 10 11 6 0 10 -2 10 -4z m345 -6 c3 -5 2 -10 -4 -10 -5 0 -13 5 -16
10 -3 6 -2 10 4 10 5 0 13 -4 16 -10z m-975 -10 c0 -5 -4 -10 -9 -10 -6 0 -13
5 -16 10 -3 6 1 10 9 10 9 0 16 -4 16 -10z m400 -2 c0 -4 -4 -8 -9 -8 -6 0
-12 4 -15 8 -3 5 1 9 9 9 8 0 15 -4 15 -9z m-178 -16 c26 -17 26 -18 8 -30
-12 -7 -20 -8 -20 -2 0 5 6 10 13 10 6 0 -1 9 -18 20 -16 11 -25 20 -20 20 6
0 22 -8 37 -18z m-1202 -2 c0 -5 -2 -10 -4 -10 -3 0 -8 5 -11 10 -3 6 -1 10 4
10 6 0 11 -4 11 -10z m342 -7 c-10 -4 -10 -8 0 -21 12 -14 11 -14 -9 -2 -20
13 -20 15 -5 26 9 7 19 10 22 7 3 -3 -1 -8 -8 -10z m398 -3 c-10 -7 -11 -10
-2 -10 6 0 12 -5 12 -10 0 -6 -8 -5 -19 2 -18 11 -18 13 -3 24 9 7 19 10 22 8
2 -3 -2 -9 -10 -14z m872 -16 c-9 -7 -19 -10 -22 -7 -3 3 1 8 8 10 10 4 10 8
0 21 -12 14 -11 14 9 2 20 -13 20 -15 5 -26z m348 32 c0 -3 -4 -8 -10 -11 -5
-3 -10 -1 -10 4 0 6 5 11 10 11 6 0 10 -2 10 -4z m-1525 -16 c-3 -5 -12 -10
-18 -10 -7 0 -6 4 3 10 19 12 23 12 15 0z m-400 -10 c3 -6 -1 -7 -9 -4 -18 7
-21 14 -7 14 6 0 13 -4 16 -10z m1895 6 c0 -2 -7 -7 -16 -10 -8 -3 -12 -2 -9
4 6 10 25 14 25 6z m-1930 -16 c0 -5 -5 -10 -11 -10 -5 0 -7 5 -4 10 3 6 8 10
11 10 2 0 4 -4 4 -10z m390 -10 c-10 -7 -11 -10 -2 -10 6 0 12 -7 12 -15 0
-12 -3 -12 -18 3 -16 15 -16 18 -2 29 8 6 17 9 20 7 2 -3 -2 -9 -10 -14z m400
0 c-24 -15 -36 -11 -14 4 10 8 21 12 24 10 2 -3 -2 -9 -10 -14z m772 -16 c-9
-7 -19 -10 -22 -8 -2 3 2 9 10 14 10 7 11 10 3 10 -7 0 -13 5 -13 10 0 6 8 5
19 -2 18 -11 18 -13 3 -24z m393 26 c3 -5 1 -10 -4 -10 -6 0 -11 5 -11 10 0 6
2 10 4 10 3 0 8 -4 11 -10z m-759 -25 c10 -8 15 -14 9 -14 -5 0 -19 6 -29 14
-11 8 -15 15 -10 15 6 0 19 -7 30 -15z m189 5 c3 -5 1 -10 -4 -10 -6 0 -11 5
-11 10 0 6 2 10 4 10 3 0 8 -4 11 -10z m400 1 c3 -5 1 -12 -5 -16 -5 -3 -10 1
-10 9 0 18 6 21 15 7z m-1785 -11 c0 -5 -2 -10 -4 -10 -3 0 -8 5 -11 10 -3 6
-1 10 4 10 6 0 11 -4 11 -10z m105 -1 c4 -6 14 -8 22 -5 8 3 11 1 8 -4 -8 -14
-18 -13 -41 5 -10 8 -14 15 -7 15 6 0 15 -5 18 -11z m409 -4 c11 -8 15 -15 10
-15 -6 0 -19 7 -30 15 -10 8 -14 14 -9 14 6 0 19 -6 29 -14z m126 0 c-9 -10
-9 -15 -1 -15 6 0 11 -5 11 -11 0 -8 -5 -8 -15 1 -8 7 -21 10 -29 7 -10 -4
-13 -1 -10 8 3 8 12 11 19 9 7 -3 16 -1 20 5 3 6 9 11 12 11 3 0 0 -7 -7 -15z
m110 5 c0 -5 -5 -10 -11 -10 -5 0 -7 5 -4 10 3 6 8 10 11 10 2 0 4 -4 4 -10z
m55 0 c3 -5 1 -10 -4 -10 -6 0 -11 5 -11 10 0 6 2 10 4 10 3 0 8 -4 11 -10z
m127 -4 c10 5 10 4 2 -5 -12 -13 -44 -5 -44 11 0 6 6 5 15 -2 8 -6 20 -8 27
-4z m218 4 c0 -5 -5 -10 -11 -10 -5 0 -7 5 -4 10 3 6 8 10 11 10 2 0 4 -4 4
-10z m149 -34 c-24 -15 -33 -16 -42 -6 -9 10 -9 11 0 6 7 -4 21 -1 32 6 16 10
18 15 8 27 -10 12 -9 12 10 0 l22 -13 -30 -20z m147 29 c-23 -18 -33 -19 -41
-5 -3 5 0 7 8 4 8 -3 18 -1 22 5 3 6 12 11 18 11 7 0 3 -7 -7 -15z m159 5 c3
-5 1 -10 -4 -10 -6 0 -11 5 -11 10 0 6 2 10 4 10 3 0 8 -4 11 -10z m97 -32
c-15 -10 -31 -18 -37 -18 -5 0 2 8 17 18 22 15 25 21 15 31 -10 11 -8 11 10 0
l22 -13 -27 -18z m258 38 c0 -3 -4 -8 -10 -11 -5 -3 -10 -1 -10 4 0 6 5 11 10
11 6 0 10 -2 10 -4z m-1740 -20 c0 -2 -7 -7 -16 -10 -8 -3 -12 -2 -9 4 6 10
25 14 25 6z m828 -12 c12 -8 28 -12 35 -8 9 5 9 4 0 -6 -9 -10 -18 -9 -45 8
-18 12 -28 22 -23 22 6 0 21 -7 33 -16z m-958 -14 c-10 -7 -11 -10 -2 -10 6 0
12 -5 12 -10 0 -6 -8 -5 -19 2 -18 11 -18 13 -3 24 9 7 19 10 22 8 2 -3 -2 -9
-10 -14z m189 4 c4 3 8 -1 8 -9 0 -12 -5 -12 -29 1 -15 8 -28 17 -28 20 0 2 9
0 20 -6 11 -6 24 -9 29 -6z m221 7 c0 -15 -32 -23 -44 -11 -8 8 -6 9 5 5 10
-4 20 -2 24 4 8 13 15 14 15 2z m1362 -28 c-9 -7 -21 -12 -27 -12 -5 0 -1 6 9
14 11 8 14 15 8 15 -7 0 -12 5 -12 10 0 6 8 5 19 -2 18 -11 18 -13 3 -25z
m-1682 23 c0 -11 -19 -15 -25 -6 -3 5 1 10 9 10 9 0 16 -2 16 -4z m400 0 c0
-11 -19 -15 -25 -6 -3 5 1 10 9 10 9 0 16 -2 16 -4z m107 -10 c0 -8 -6 -12
-15 -9 -11 5 -11 7 0 14 7 5 13 9 14 9 0 0 1 -6 1 -14z m188 -4 c-3 -3 -11 0
-18 7 -9 10 -8 11 6 5 10 -3 15 -9 12 -12z m505 8 c0 -5 -2 -10 -4 -10 -3 0
-8 5 -11 10 -3 6 -1 10 4 10 6 0 11 -4 11 -10z m400 0 c0 -5 -2 -10 -4 -10 -3
0 -8 5 -11 10 -3 6 -1 10 4 10 6 0 11 -4 11 -10z m-1275 -20 c3 -5 1 -10 -4
-10 -6 0 -11 5 -11 10 0 6 2 10 4 10 3 0 8 -4 11 -10z m400 0 c3 -5 1 -10 -4
-10 -6 0 -11 5 -11 10 0 6 2 10 4 10 3 0 8 -4 11 -10z m145 0 c0 -5 -5 -10
-11 -10 -5 0 -7 5 -4 10 3 6 8 10 11 10 2 0 4 -4 4 -10z m400 0 c0 -5 -5 -10
-11 -10 -5 0 -7 5 -4 10 3 6 8 10 11 10 2 0 4 -4 4 -10z m-1250 -32 c0 -5 -9
-3 -20 4 -15 10 -22 10 -32 0 -6 -6 -17 -12 -22 -12 -6 0 0 9 13 19 20 15 28
17 43 8 10 -7 18 -15 18 -19z m1180 22 c0 -5 -5 -10 -11 -10 -5 0 -7 5 -4 10
3 6 8 10 11 10 2 0 4 -4 4 -10z m-435 -18 c-3 -3 -11 0 -18 7 -9 10 -8 11 6 5
10 -3 15 -9 12 -12z m70 9 c-3 -5 4 -16 15 -24 18 -13 19 -15 5 -21 -9 -3 -14
-2 -11 3 7 11 -18 33 -27 24 -4 -3 -7 -1 -7 5 0 5 6 13 13 15 18 8 19 8 12 -2z
m401 0 c-7 -11 18 -33 27 -24 4 3 7 2 7 -4 0 -6 -7 -14 -16 -17 -8 -3 -12 -2
-9 3 3 5 -4 16 -16 24 -15 11 -17 16 -7 20 19 8 20 8 14 -2z m158 -30 c-5 -6
-34 20 -34 30 0 5 8 1 18 -8 10 -10 17 -20 16 -22z m241 29 c-3 -5 -12 -10
-18 -10 -7 0 -6 4 3 10 19 12 23 12 15 0z m-1465 -10 c0 -5 -2 -10 -4 -10 -3
0 -8 5 -11 10 -3 6 -1 10 4 10 6 0 11 -4 11 -10z m195 0 c-3 -5 -11 -10 -16
-10 -6 0 -7 5 -4 10 3 6 11 10 16 10 6 0 7 -4 4 -10z m805 0 c0 -5 -4 -10 -10
-10 -5 0 -10 5 -10 10 0 6 5 10 10 10 6 0 10 -4 10 -10z m-1240 -14 c0 -3 -4
-8 -10 -11 -5 -3 -10 -1 -10 4 0 6 5 11 10 11 6 0 10 -2 10 -4z m134 -5 c3 -5
0 -11 -7 -14 -8 -3 -14 1 -14 9 0 16 13 19 21 5z m266 -6 c11 -13 10 -14 -4
-9 -9 3 -16 10 -16 15 0 13 6 11 20 -6z m405 5 c-3 -5 -12 -10 -18 -10 -7 0
-6 4 3 10 19 12 23 12 15 0z m400 0 c-3 -5 -11 -10 -16 -10 -6 0 -7 5 -4 10 3
6 11 10 16 10 6 0 7 -4 4 -10z m405 5 c0 -2 -10 -10 -22 -16 -21 -11 -22 -11
-9 4 13 16 31 23 31 12z m130 -5 c0 -5 -4 -10 -10 -10 -5 0 -10 5 -10 10 0 6
5 10 10 10 6 0 10 -4 10 -10z m-1845 -10 c3 -5 2 -10 -4 -10 -5 0 -13 5 -16
10 -3 6 -2 10 4 10 5 0 13 -4 16 -10z m340 0 c-3 -5 -12 -10 -18 -10 -7 0 -6
4 3 10 19 12 23 12 15 0z m305 6 c0 -2 -7 -7 -16 -10 -8 -3 -12 -2 -9 4 6 10
25 14 25 6z m-590 -23 c0 -1 -8 -7 -18 -12 -13 -7 -19 -6 -19 2 0 7 9 13 19
13 10 0 18 -1 18 -3z m130 -13 c-10 -7 -11 -10 -2 -10 6 0 12 -5 12 -10 0 -6
-8 -5 -19 2 -18 11 -18 13 -3 24 9 7 19 10 22 8 2 -3 -2 -9 -10 -14z m270 13
c0 -1 -8 -7 -18 -12 -13 -7 -19 -6 -19 2 0 7 9 13 19 13 10 0 18 -1 18 -3z
m136 -8 c-11 -8 -14 -15 -8 -15 7 0 12 -5 12 -10 0 -6 -8 -5 -19 2 -18 11 -18
13 -3 25 9 7 22 12 27 12 6 0 1 -6 -9 -14z m121 1 c0 -8 -6 -12 -15 -9 -11 5
-11 7 0 14 7 5 13 9 14 9 0 0 1 -6 1 -14z m143 7 c0 -1 -8 -7 -18 -12 -13 -7
-19 -6 -19 2 0 7 9 13 19 13 10 0 18 -1 18 -3z m90 -3 c0 -5 -2 -10 -4 -10 -3
0 -8 5 -11 10 -3 6 -1 10 4 10 6 0 11 -4 11 -10z m60 6 c0 -3 -4 -8 -10 -11
-5 -3 -10 -1 -10 4 0 6 5 11 10 11 6 0 10 -2 10 -4z m110 -22 c0 -2 -9 0 -20
6 -11 6 -20 13 -20 16 0 2 9 0 20 -6 11 -6 20 -13 20 -16z m230 16 c0 -5 -2
-10 -4 -10 -3 0 -8 5 -11 10 -3 6 -1 10 4 10 6 0 11 -4 11 -10z m165 0 c-3 -5
-12 -10 -18 -10 -7 0 -6 4 3 10 19 12 23 12 15 0z m235 0 c0 -5 -2 -10 -4 -10
-3 0 -8 5 -11 10 -3 6 -1 10 4 10 6 0 11 -4 11 -10z m160 -4 c-7 -7 -13 -7
-20 0 -6 6 -3 10 10 10 13 0 16 -4 10 -10z m-660 -8 c0 -6 -3 -8 -7 -5 -9 9
-34 -13 -27 -24 3 -5 -2 -6 -12 -2 -14 5 -13 8 7 24 28 22 39 24 39 7z m400 4
c0 -5 -7 -9 -15 -9 -8 0 -12 4 -9 9 3 4 9 8 15 8 5 0 9 -4 9 -8z m-654 -17
c10 -8 15 -14 9 -14 -5 0 -19 6 -29 14 -11 8 -15 15 -10 15 6 0 19 -7 30 -15z
m368 1 c-10 -8 -21 -12 -24 -10 -5 6 21 24 34 24 6 0 1 -6 -10 -14z m400 0
c-10 -8 -21 -12 -24 -10 -5 6 21 24 34 24 6 0 1 -6 -10 -14z m192 -14 c-4 -3
-14 2 -24 12 -16 18 -16 18 6 6 13 -6 21 -14 18 -18z m-1956 8 c0 -5 -5 -10
-11 -10 -5 0 -7 5 -4 10 3 6 8 10 11 10 2 0 4 -4 4 -10z m345 0 c3 -5 1 -10
-4 -10 -6 0 -11 5 -11 10 0 6 2 10 4 10 3 0 8 -4 11 -10z m65 6 c0 -3 -4 -8
-10 -11 -5 -3 -10 -1 -10 4 0 6 5 11 10 11 6 0 10 -2 10 -4z m140 -6 c0 -5 -5
-10 -11 -10 -5 0 -7 5 -4 10 3 6 8 10 11 10 2 0 4 -4 4 -10z m200 1 c0 -5 -7
-11 -14 -14 -10 -4 -13 -1 -9 9 6 15 23 19 23 5z m60 -1 c0 -5 -4 -10 -10 -10
-5 0 -10 5 -10 10 0 6 5 10 10 10 6 0 10 -4 10 -10z m140 0 c0 -5 -5 -10 -11
-10 -5 0 -7 5 -4 10 3 6 8 10 11 10 2 0 4 -4 4 -10z m200 1 c0 -5 -7 -11 -14
-14 -10 -4 -13 -1 -9 9 6 15 23 19 23 5z m255 -1 c3 -5 1 -10 -4 -10 -6 0 -11
5 -11 10 0 6 2 10 4 10 3 0 8 -4 11 -10z m160 -7 c18 -14 18 -15 2 -9 -10 3
-23 6 -28 6 -5 0 -9 5 -9 10 0 14 12 12 35 -7z m45 7 c0 -5 -5 -10 -11 -10 -5
0 -7 5 -4 10 3 6 8 10 11 10 2 0 4 -4 4 -10z m195 0 c3 -5 1 -10 -4 -10 -6 0
-11 5 -11 10 0 6 2 10 4 10 3 0 8 -4 11 -10z m-1513 -37 c-10 -4 -8 -9 7 -20
12 -8 27 -11 34 -7 9 5 9 4 0 -6 -9 -10 -17 -9 -42 6 -27 16 -28 19 -13 30 9
7 19 10 22 7 3 -3 -1 -8 -8 -10z m406 3 c-16 -12 -16 -14 7 -26 14 -7 23 -15
21 -18 -3 -2 -18 4 -35 14 -27 16 -28 19 -13 30 9 8 22 13 27 13 6 0 2 -6 -7
-13z m157 3 c4 -6 13 -8 19 -6 7 3 13 -1 13 -8 0 -11 -6 -11 -29 1 -28 15 -36
24 -19 24 6 0 13 -5 16 -11z m255 7 c0 -3 -4 -8 -10 -11 -5 -3 -10 -1 -10 4 0
6 5 11 10 11 6 0 10 -2 10 -4z m140 -6 c0 -5 -2 -10 -4 -10 -3 0 -8 5 -11 10
-3 6 -1 10 4 10 6 0 11 -4 11 -10z m260 6 c0 -3 -4 -8 -10 -11 -5 -3 -10 -1
-10 4 0 6 5 11 10 11 6 0 10 -2 10 -4z m166 -23 c-6 -6 -36 9 -36 18 0 5 9 4
20 -3 10 -7 18 -14 16 -15z m-1589 3 c0 -8 -6 -12 -15 -9 -11 5 -11 7 0 14 7
5 13 9 14 9 0 0 1 -6 1 -14z m400 0 c0 -8 -6 -12 -15 -9 -11 5 -11 7 0 14 7 5
13 9 14 9 0 0 1 -6 1 -14z m798 4 c-3 -5 -12 -10 -18 -10 -7 0 -6 4 3 10 19
12 23 12 15 0z m190 -8 c-3 -3 -11 0 -18 7 -9 10 -8 11 6 5 10 -3 15 -9 12
-12z m405 3 c0 -2 -6 -5 -13 -8 -8 -3 -14 1 -14 8 0 7 6 11 14 8 7 -3 13 -6
13 -8z m-1505 -5 c3 -5 -1 -10 -10 -10 -9 0 -13 5 -10 10 3 6 8 10 10 10 2 0
7 -4 10 -10z m410 1 c3 -6 -3 -9 -14 -8 -11 0 -17 5 -15 9 7 11 22 10 29 -1z
m295 5 c0 -2 -7 -7 -16 -10 -8 -3 -12 -2 -9 4 6 10 25 14 25 6z m100 -6 c0 -5
-7 -10 -16 -10 -8 0 -12 5 -9 10 3 6 10 10 16 10 5 0 9 -4 9 -10z m400 0 c0
-5 -5 -10 -11 -10 -5 0 -7 5 -4 10 3 6 8 10 11 10 2 0 4 -4 4 -10z m-1138 -12
c-9 -9 -9 -15 1 -26 10 -13 9 -14 -10 -2 -20 13 -20 15 -5 27 21 16 30 17 14
1z m399 -7 c-10 -6 -9 -10 5 -15 9 -3 14 -9 11 -12 -3 -3 -14 0 -25 7 -19 12
-19 14 -4 25 9 7 19 10 22 8 2 -3 -1 -9 -9 -13z m271 -18 c-9 -7 -21 -12 -27
-12 -5 0 -1 6 9 14 11 8 14 15 8 15 -7 0 -12 5 -12 10 0 6 8 5 19 -2 18 -11
18 -13 3 -25z m129 18 c-10 -6 -9 -10 5 -15 9 -3 14 -9 11 -12 -3 -3 -14 0
-25 7 -19 12 -19 14 -4 25 9 7 19 10 22 8 2 -3 -1 -9 -9 -13z m275 -16 c-11
-7 -23 -10 -26 -7 -3 3 1 7 8 9 10 4 10 8 2 18 -10 11 -7 12 13 2 l25 -11 -22
-11z m434 0 c0 -3 -7 -2 -15 1 -8 4 -23 0 -33 -7 -15 -12 -16 -12 -5 2 10 12
10 18 0 28 -6 6 3 5 21 -4 17 -9 32 -18 32 -20z m-1930 10 c0 -2 -6 -5 -13 -8
-8 -3 -14 1 -14 8 0 7 6 11 14 8 7 -3 13 -6 13 -8z m571 -23 c-8 -3 -5 -9 8
-19 12 -8 27 -11 34 -7 9 5 9 4 0 -6 -9 -10 -17 -9 -41 5 -27 16 -28 19 -13
34 9 9 18 12 20 7 2 -6 -1 -12 -8 -14z m1055 13 c10 -8 15 -14 9 -14 -5 0 -19
6 -29 14 -11 8 -15 15 -10 15 6 0 19 -7 30 -15z m-1460 -4 c10 8 14 8 14 0 0
-6 -6 -11 -12 -12 -10 0 -10 -2 0 -6 6 -2 12 -9 12 -13 0 -5 -16 0 -35 11 -37
22 -49 37 -14 19 15 -9 24 -8 35 1z m114 -1 c0 -5 -5 -10 -11 -10 -5 0 -7 5
-4 10 3 6 8 10 11 10 2 0 4 -4 4 -10z m250 0 c0 -5 -2 -10 -4 -10 -3 0 -8 5
-11 10 -3 6 -1 10 4 10 6 0 11 -4 11 -10z m150 0 c0 -5 -5 -10 -11 -10 -5 0
-7 5 -4 10 3 6 8 10 11 10 2 0 4 -4 4 -10z m250 0 c0 -5 -2 -10 -4 -10 -3 0
-8 5 -11 10 -3 6 -1 10 4 10 6 0 11 -4 11 -10z m53 -6 c-4 -10 0 -22 10 -29
14 -10 14 -12 -4 -23 -11 -7 -19 -8 -19 -2 0 5 6 10 13 11 10 0 10 2 0 6 -15
6 -18 53 -3 53 5 0 7 -7 3 -16z m377 -13 c3 -2 -3 -1 -12 2 -12 4 -18 1 -18
-7 0 -18 -30 -30 -43 -17 -6 6 -2 9 9 8 13 -1 20 6 22 21 4 23 10 22 42 -7z
m30 25 c0 -3 -4 -8 -10 -11 -5 -3 -10 -1 -10 4 0 6 5 11 10 11 6 0 10 -2 10
-4z m366 -23 c-6 -6 -36 9 -36 18 0 5 9 4 20 -3 10 -7 18 -14 16 -15z m34 23
c0 -3 -4 -8 -10 -11 -5 -3 -10 -1 -10 4 0 6 5 11 10 11 6 0 10 -2 10 -4z
m-1430 -10 c0 -11 -19 -15 -25 -6 -3 5 1 10 9 10 9 0 16 -2 16 -4z m400 0 c0
-11 -19 -15 -25 -6 -3 5 1 10 9 10 9 0 16 -2 16 -4z m810 0 c0 -11 -19 -15
-25 -6 -3 5 1 10 9 10 9 0 16 -2 16 -4z m-1050 -31 c-9 -10 -9 -15 -1 -15 6 0
11 -5 11 -10 0 -6 -8 -5 -19 2 -18 11 -18 13 -3 25 23 17 27 16 12 -2z m401
-4 c-11 -7 -11 -9 0 -13 8 -3 12 -8 9 -11 -3 -3 -16 3 -30 14 -14 11 -18 17
-9 13 10 -3 20 0 24 6 4 6 10 9 13 5 4 -3 0 -10 -7 -14z m706 -3 c-3 -8 -6 -5
-6 6 -1 11 2 17 5 13 3 -3 4 -12 1 -19z m102 -5 c-1 -16 -3 -21 -6 -11 -3 11
-10 15 -21 11 -13 -4 -12 -2 3 10 26 21 25 21 24 -10z m83 12 c7 4 2 -2 -12
-13 -14 -12 -27 -18 -30 -15 -3 3 1 8 8 10 10 4 10 8 0 21 -12 15 -11 16 4 4
9 -8 23 -11 30 -7z m-392 1 c0 -2 -15 -14 -34 -25 -33 -21 -66 -20 -66 1 0 6
6 6 14 -1 11 -9 21 -7 48 9 35 21 38 22 38 16z m-1267 -35 c15 -8 27 -18 27
-22 0 -5 -16 1 -35 12 -19 12 -35 23 -35 26 0 2 3 3 8 1 4 -2 19 -10 35 -17z
m417 -1 c-24 -15 -36 -11 -14 4 10 8 21 12 24 10 2 -3 -2 -9 -10 -14z m-215 1
c3 -5 1 -12 -5 -16 -5 -3 -10 1 -10 9 0 18 6 21 15 7z m-333 -23 c-7 -7 -12
-8 -12 -2 0 14 12 26 19 19 2 -3 -1 -11 -7 -17z m395 -3 c-23 -22 -33 -18 -12
5 10 11 20 18 23 16 2 -3 -3 -12 -11 -21z m260 -12 c-3 -10 -5 -4 -5 12 0 17
2 24 5 18 2 -7 2 -21 0 -30z m400 15 c-3 -8 -6 -5 -6 6 -1 11 2 17 5 13 3 -3
4 -12 1 -19z m150 0 c-3 -8 -6 -5 -6 6 -1 11 2 17 5 13 3 -3 4 -12 1 -19z
m-957 -33 c-7 -8 -18 -15 -24 -15 -6 0 -3 7 7 14 9 7 18 22 18 32 1 18 2 18 6
1 3 -10 -1 -24 -7 -32z m315 35 c3 -5 1 -10 -4 -10 -6 0 -11 5 -11 10 0 6 2
10 4 10 3 0 8 -4 11 -10z m400 0 c3 -5 1 -10 -4 -10 -6 0 -11 5 -11 10 0 6 2
10 4 10 3 0 8 -4 11 -10z m345 0 c0 -5 -5 -10 -11 -10 -5 0 -7 5 -4 10 3 6 8
10 11 10 2 0 4 -4 4 -10z m290 -10 c-20 -13 -30 -12 -30 1 0 5 4 8 9 4 5 -3
13 0 16 6 4 5 10 8 13 4 4 -3 0 -10 -8 -15z m110 -2 c0 -18 -2 -20 -9 -8 -6 8
-7 18 -5 22 9 14 14 9 14 -14z m174 7 c11 -8 15 -15 9 -15 -6 0 -20 -3 -30 -6
-15 -5 -16 -4 -3 5 13 10 13 12 0 21 -8 5 -10 10 -5 10 6 -1 19 -7 29 -15z
m-1909 -5 c3 -5 1 -10 -4 -10 -6 0 -11 5 -11 10 0 6 2 10 4 10 3 0 8 -4 11
-10z m315 0 c0 -5 -4 -10 -10 -10 -5 0 -10 5 -10 10 0 6 5 10 10 10 6 0 10 -4
10 -10z m400 0 c0 -5 -4 -10 -10 -10 -5 0 -10 5 -10 10 0 6 5 10 10 10 6 0 10
-4 10 -10z m100 1 c0 -5 -9 -11 -19 -14 -14 -3 -18 -1 -14 9 6 15 33 19 33 5z
m295 -1 c3 -5 1 -10 -4 -10 -6 0 -11 5 -11 10 0 6 2 10 4 10 3 0 8 -4 11 -10z
m395 -10 c-14 -10 -26 -17 -28 -15 -7 7 23 34 38 34 10 1 6 -6 -10 -19z m55
-18 c-3 -3 -11 0 -18 7 -9 10 -8 11 6 5 10 -3 15 -9 12 -12z m72 -19 c-3 -10
-5 -4 -5 12 0 17 2 24 5 18 2 -7 2 -21 0 -30z m-1567 17 c0 -5 -5 -10 -11 -10
-5 0 -7 5 -4 10 3 6 8 10 11 10 2 0 4 -4 4 -10z m300 6 c0 -3 -4 -8 -10 -11
-5 -3 -10 -1 -10 4 0 6 5 11 10 11 6 0 10 -2 10 -4z m500 -6 c0 -5 -5 -10 -11
-10 -5 0 -7 5 -4 10 3 6 8 10 11 10 2 0 4 -4 4 -10z m370 -15 c0 -8 -4 -15
-10 -15 -5 0 -7 7 -4 15 4 8 8 15 10 15 2 0 4 -7 4 -15z m630 11 c0 -2 -7 -7
-16 -10 -8 -3 -12 -2 -9 4 6 10 25 14 25 6z m-1835 -16 c-3 -5 -11 -10 -16
-10 -6 0 -7 5 -4 10 3 6 11 10 16 10 6 0 7 -4 4 -10z m252 -12 c-3 -8 -6 -5
-6 6 -1 11 2 17 5 13 3 -3 4 -12 1 -19z m79 0 c4 -6 3 -8 -4 -4 -6 3 -13 2
-17 -4 -3 -5 -11 -10 -18 -10 -6 0 -2 7 9 15 23 18 21 17 30 3z m389 2 c-3 -5
-16 -15 -28 -21 -19 -9 -19 -8 3 10 28 23 34 26 25 11z m847 -4 c10 6 11 4 0
-7 -10 -11 -15 -10 -30 6 -15 17 -15 18 0 6 9 -7 23 -9 30 -5z m-1467 -6 c3
-5 2 -10 -4 -10 -5 0 -13 5 -16 10 -3 6 -2 10 4 10 5 0 13 -4 16 -10z m675
-14 c0 -10 -30 0 -34 11 -4 11 -1 11 14 3 11 -6 20 -12 20 -14z m340 19 c0 -2
-10 -9 -22 -15 -22 -11 -22 -10 -4 4 21 17 26 19 26 11z m46 -11 c18 -14 18
-14 -6 -3 -31 14 -36 19 -24 19 6 0 19 -7 30 -16z m348 1 c-3 -6 -11 -12 -18
-12 -8 0 -12 6 -10 12 3 6 11 12 18 12 8 0 12 -6 10 -12z m-1139 -5 c3 -6 -1
-7 -9 -4 -18 7 -21 14 -7 14 6 0 13 -4 16 -10z m695 -22 c0 -5 -4 -8 -10 -8
-5 0 -10 10 -10 23 0 18 2 19 10 7 5 -8 10 -18 10 -22z m303 -6 c7 -9 6 -11
-7 -6 -9 3 -16 16 -15 28 0 14 2 16 6 6 3 -8 10 -21 16 -28z m-1233 18 c0 -5
-2 -10 -4 -10 -3 0 -8 5 -11 10 -3 6 -1 10 4 10 6 0 11 -4 11 -10z m130 -11
c0 -5 -7 -9 -15 -9 -9 0 -12 6 -9 15 6 15 24 11 24 -6z m270 11 c0 -5 -4 -10
-10 -10 -5 0 -10 5 -10 10 0 6 5 10 10 10 6 0 10 -4 10 -10z m400 0 c0 -5 -2
-10 -4 -10 -3 0 -8 5 -11 10 -3 6 -1 10 4 10 6 0 11 -4 11 -10z m400 0 c0 -5
-4 -10 -10 -10 -5 0 -10 5 -10 10 0 6 5 10 10 10 6 0 10 -4 10 -10z m400 0 c0
-5 -4 -10 -10 -10 -5 0 -10 5 -10 10 0 6 5 10 10 10 6 0 10 -4 10 -10z m140
-5 c-7 -8 -18 -15 -24 -15 -6 0 -2 7 8 15 25 19 32 19 16 0z m-1875 -5 c3 -5
1 -10 -4 -10 -6 0 -11 5 -11 10 0 6 2 10 4 10 3 0 8 -4 11 -10z m400 0 c3 -5
1 -10 -4 -10 -6 0 -11 5 -11 10 0 6 2 10 4 10 3 0 8 -4 11 -10z m105 0 c0 -5
-5 -10 -11 -10 -5 0 -7 5 -4 10 3 6 8 10 11 10 2 0 4 -4 4 -10z m47 -22 c-3
-7 -5 -2 -5 12 0 14 2 19 5 13 2 -7 2 -19 0 -25z m108 22 c-3 -5 -11 -10 -16
-10 -6 0 -7 5 -4 10 3 6 11 10 16 10 6 0 7 -4 4 -10z m145 0 c0 -5 -4 -10 -10
-10 -5 0 -10 5 -10 10 0 6 5 10 10 10 6 0 10 -4 10 -10z m400 1 c0 -5 -7 -11
-14 -14 -10 -4 -13 -1 -9 9 6 15 23 19 23 5z m260 -1 c0 -5 -5 -10 -11 -10 -5
0 -7 5 -4 10 3 6 8 10 11 10 2 0 4 -4 4 -10z m145 0 c3 -5 -1 -10 -9 -10 -9 0
-16 5 -16 10 0 6 4 10 9 10 6 0 13 -4 16 -10z m155 -5 c11 -13 10 -14 -4 -9
-9 3 -16 10 -16 15 0 13 6 11 20 -6z m-1660 1 c0 -3 -4 -8 -10 -11 -5 -3 -10
-1 -10 4 0 6 5 11 10 11 6 0 10 -2 10 -4z m1036 -25 c8 6 17 9 20 6 3 -3 -4
-11 -16 -17 -17 -9 -26 -8 -46 5 -13 8 -24 18 -24 21 0 4 12 -1 26 -11 20 -13
28 -14 40 -4z m-836 -1 c0 -5 -2 -10 -4 -10 -3 0 -8 5 -11 10 -3 6 -1 10 4 10
6 0 11 -4 11 -10z m400 0 c0 -5 -2 -10 -4 -10 -3 0 -8 5 -11 10 -3 6 -1 10 4
10 6 0 11 -4 11 -10z m305 0 c-3 -5 -12 -10 -18 -10 -7 0 -6 4 3 10 19 12 23
12 15 0z m250 -8 c-3 -3 -11 0 -18 7 -9 10 -8 11 6 5 10 -3 15 -9 12 -12z
m155 13 c0 -2 -10 -9 -22 -15 -22 -11 -22 -10 -4 4 21 17 26 19 26 11z m150 1
c0 -7 -72 -47 -77 -43 -2 3 11 14 29 25 33 20 48 26 48 18z m250 -1 c0 -2 -10
-9 -22 -15 -22 -11 -22 -10 -4 4 21 17 26 19 26 11z m-1745 -15 c3 -6 -1 -7
-9 -4 -18 7 -21 14 -7 14 6 0 13 -4 16 -10z m823 -10 c31 -19 34 -19 57 -4 23
15 25 15 19 0 -3 -9 -10 -14 -14 -11 -5 3 -12 1 -15 -5 -7 -11 -45 -4 -55 10
-3 4 -14 12 -25 18 -11 6 -15 12 -10 12 6 0 25 -9 43 -20z m-718 5 c0 -2 -10
-9 -22 -15 -22 -11 -22 -10 -4 4 21 17 26 19 26 11z m170 -5 c8 -5 12 -11 10
-14 -3 -2 -14 2 -24 10 -22 15 -10 19 14 4z m230 6 c0 -2 -11 -11 -25 -20 -23
-15 -28 -15 -47 -1 -13 8 -18 15 -12 15 5 0 15 -5 21 -11 8 -8 17 -7 34 5 24
17 29 19 29 12z m1163 -17 c14 14 27 14 27 -1 0 -6 -3 -8 -7 -5 -3 4 -12 2
-19 -4 -9 -7 -20 -6 -38 6 -14 10 -26 20 -26 22 0 3 12 -2 26 -12 19 -12 29
-14 37 -6z m-1778 1 c3 -5 2 -10 -4 -10 -5 0 -13 5 -16 10 -3 6 -2 10 4 10 5
0 13 -4 16 -10z m800 0 c3 -5 1 -10 -4 -10 -6 0 -11 5 -11 10 0 6 2 10 4 10 3
0 8 -4 11 -10z m345 0 c0 -5 -5 -10 -11 -10 -5 0 -7 5 -4 10 3 6 8 10 11 10 2
0 4 -4 4 -10z m204 2 c3 -5 -1 -9 -9 -9 -8 0 -15 4 -15 9 0 4 4 8 9 8 6 0 12
-4 15 -8z m56 -4 c0 -6 -3 -8 -7 -5 -3 4 -13 1 -22 -6 -14 -11 -14 -10 -2 6
15 20 31 22 31 5z m550 8 c0 -3 -4 -8 -10 -11 -5 -3 -10 -1 -10 4 0 6 5 11 10
11 6 0 10 -2 10 -4z m-1863 -28 c-3 -8 -6 -5 -6 6 -1 11 2 17 5 13 3 -3 4 -12
1 -19z m400 -35 c-3 -10 -5 -2 -5 17 0 19 2 27 5 18 2 -10 2 -26 0 -35z m153
25 c0 -6 -6 -5 -15 2 -8 7 -15 14 -15 16 0 2 7 1 15 -2 8 -4 15 -11 15 -16z
m400 0 c0 -6 -6 -5 -15 2 -8 7 -15 14 -15 16 0 2 7 1 15 -2 8 -4 15 -11 15
-16z m797 0 c-3 -8 -6 -5 -6 6 -1 11 2 17 5 13 3 -3 4 -12 1 -19z m-537 8 c0
-3 -4 -8 -10 -11 -5 -3 -10 -1 -10 4 0 6 5 11 10 11 6 0 10 -2 10 -4z m166
-23 c-6 -6 -36 9 -36 18 0 5 9 4 20 -3 10 -7 18 -14 16 -15z m234 23 c0 -3 -4
-8 -10 -11 -5 -3 -10 -1 -10 4 0 6 5 11 10 11 6 0 10 -2 10 -4z m-1590 -47
c13 -9 13 -10 -2 -5 -10 3 -18 -1 -21 -12 -4 -13 -5 -12 -6 4 0 12 -11 29 -23
38 -22 16 -22 16 7 2 17 -9 37 -20 45 -27z m865 21 c3 -6 -1 -7 -9 -4 -18 7
-21 14 -7 14 6 0 13 -4 16 -10z m295 6 c0 -2 -7 -7 -16 -10 -8 -3 -12 -2 -9 4
6 10 25 14 25 6z m584 -10 c-10 -8 -21 -12 -24 -10 -5 6 21 24 34 24 6 0 1 -6
-10 -14z m-1623 -10 c-9 -11 -8 -15 5 -20 9 -4 15 -9 12 -11 -3 -3 -17 1 -31
8 l-27 14 23 11 c30 14 31 14 18 -2z m409 -29 c0 -5 -7 -4 -15 3 -8 7 -21 10
-29 7 -10 -4 -13 -1 -10 8 5 11 11 11 30 3 13 -6 24 -16 24 -21z m669 12 c-22
-13 -31 -11 -17 5 7 8 17 12 22 9 4 -3 2 -9 -5 -14z m106 3 c-3 -3 -11 0 -18
7 -9 10 -8 11 6 5 10 -3 15 -9 12 -12z m-1251 -7 c3 -8 1 -15 -4 -15 -6 0 -10
7 -10 15 0 8 2 15 4 15 2 0 6 -7 10 -15z m872 0 c10 -8 15 -14 9 -14 -5 0 -19
6 -29 14 -11 8 -15 15 -10 15 6 0 19 -7 30 -15z m408 -1 c3 -8 2 -12 -4 -9 -6
3 -10 10 -10 16 0 14 7 11 14 -7z m501 6 c3 -5 1 -10 -4 -10 -6 0 -11 5 -11
10 0 6 2 10 4 10 3 0 8 -4 11 -10z m-1599 -11 c3 -6 1 -16 -6 -22 -10 -9 -11
-9 -5 2 4 8 2 17 -6 22 -9 6 -10 9 -2 9 6 0 15 -5 19 -11z m544 1 c0 -5 -5
-10 -11 -10 -5 0 -7 5 -4 10 3 6 8 10 11 10 2 0 4 -4 4 -10z m810 6 c0 -3 -4
-8 -10 -11 -5 -3 -10 -1 -10 4 0 6 5 11 10 11 6 0 10 -2 10 -4z m-930 -16 c0
-5 -4 -10 -10 -10 -5 0 -10 5 -10 10 0 6 5 10 10 10 6 0 10 -4 10 -10z m400 0
c0 -5 -4 -10 -10 -10 -5 0 -10 5 -10 10 0 6 5 10 10 10 6 0 10 -4 10 -10z
m400 0 c0 -5 -2 -10 -4 -10 -3 0 -8 5 -11 10 -3 6 -1 10 4 10 6 0 11 -4 11
-10z m-1580 -30 c0 -11 -2 -20 -4 -20 -2 0 -6 9 -9 20 -3 11 -1 20 4 20 5 0 9
-9 9 -20z m320 -2 c0 -6 -6 -5 -15 2 -8 7 -15 14 -15 16 0 2 7 1 15 -2 8 -4
15 -11 15 -16z m1227 -10 c-3 -7 -5 -2 -5 12 0 14 2 19 5 13 2 -7 2 -19 0 -25z
m73 22 c8 -5 11 -10 5 -10 -5 0 -17 5 -25 10 -8 5 -10 10 -5 10 6 0 17 -5 25
-10z m327 -27 c-3 -10 -5 -4 -5 12 0 17 2 24 5 18 2 -7 2 -21 0 -30z m-1917
17 c0 -5 -4 -10 -10 -10 -5 0 -10 5 -10 10 0 6 5 10 10 10 6 0 10 -4 10 -10z
m400 0 c0 -5 -5 -10 -11 -10 -5 0 -7 5 -4 10 3 6 8 10 11 10 2 0 4 -4 4 -10z
m300 2 c0 -5 -7 -9 -15 -9 -8 0 -15 4 -15 9 0 4 7 8 15 8 8 0 15 -4 15 -8z
m100 -2 c0 -5 -4 -10 -10 -10 -5 0 -10 5 -10 10 0 6 5 10 10 10 6 0 10 -4 10
-10z m700 0 c0 -5 -2 -10 -4 -10 -3 0 -8 5 -11 10 -3 6 -1 10 4 10 6 0 11 -4
11 -10z m400 0 c0 -5 -4 -10 -10 -10 -5 0 -10 5 -10 10 0 6 5 10 10 10 6 0 10
-4 10 -10z m-1551 -26 c2 -2 2 -7 -2 -10 -3 -3 -16 2 -29 11 l-23 17 25 -7
c14 -4 27 -9 29 -11z m18 -16 c-3 -7 -5 -2 -5 12 0 14 2 19 5 13 2 -7 2 -19 0
-25z m376 19 c4 3 7 2 7 -4 0 -6 -8 -13 -18 -15 -12 -4 -18 1 -19 14 -2 15 1
17 11 9 7 -6 16 -8 19 -4z m265 -29 c-7 -7 -20 -14 -28 -16 -9 -2 -4 7 10 20
14 13 26 20 28 16 2 -4 -2 -13 -10 -20z m142 22 c0 -5 -4 -10 -10 -10 -5 0
-10 5 -10 10 0 6 5 10 10 10 6 0 10 -4 10 -10z m400 0 c0 -5 -4 -10 -10 -10
-5 0 -10 5 -10 10 0 6 5 10 10 10 6 0 10 -4 10 -10z m-1330 -8 c0 -5 -11 -14
-25 -20 -14 -6 -25 -8 -25 -4 0 6 9 12 48 31 1 0 2 -3 2 -7z m268 -15 c18 7
17 5 -10 -16 -16 -12 -18 -11 -17 15 1 16 3 21 6 12 3 -11 10 -15 21 -11z
m124 6 c-10 -4 -10 -8 0 -21 12 -15 11 -16 -4 -4 -9 8 -22 11 -28 7 -5 -3 -10
-2 -10 2 0 10 43 31 50 25 3 -3 -1 -7 -8 -9z m1072 2 c11 -8 15 -15 10 -15 -6
0 -19 7 -30 15 -10 8 -14 14 -9 14 6 0 19 -6 29 -14z m66 0 c0 -8 -2 -15 -4
-15 -2 0 -6 7 -10 15 -3 8 -1 15 4 15 6 0 10 -7 10 -15z m-1680 -12 c0 -10
-15 -26 -33 -36 l-32 -17 28 23 c15 12 27 28 27 35 0 7 2 12 5 12 3 0 5 -8 5
-17z m1510 7 c0 -5 -2 -10 -4 -10 -3 0 -8 5 -11 10 -3 6 -1 10 4 10 6 0 11 -4
11 -10z m-274 -12 c4 -7 3 -8 -5 -4 -6 4 -20 2 -29 -6 -15 -12 -16 -11 -3 5
16 20 27 22 37 5z m494 8 c0 -2 -7 -7 -16 -10 -8 -3 -12 -2 -9 4 6 10 25 14
25 6z m-762 -29 c18 7 17 5 -10 -16 -16 -12 -18 -11 -17 15 1 16 3 21 6 12 3
-11 10 -15 21 -11z m808 -4 c-6 -6 -36 9 -36 18 0 5 9 4 20 -3 10 -7 18 -14
16 -15z m-496 5 c0 -4 -4 -8 -9 -8 -6 0 -12 4 -15 8 -3 5 1 9 9 9 8 0 15 -4
15 -9z m295 -6 c-3 -3 -11 0 -18 7 -9 10 -8 11 6 5 10 -3 15 -9 12 -12z
m-1195 4 c0 -2 -7 -7 -16 -10 -8 -3 -12 -2 -9 4 6 10 25 14 25 6z m-230 -16
c0 -5 -5 -10 -11 -10 -5 0 -7 5 -4 10 3 6 8 10 11 10 2 0 4 -4 4 -10z m400 1
c0 -5 -7 -12 -16 -15 -14 -5 -15 -4 -4 9 14 17 20 19 20 6z m655 -1 c3 -5 1
-10 -4 -10 -6 0 -11 5 -11 10 0 6 2 10 4 10 3 0 8 -4 11 -10z m405 -11 c0 -6
-4 -7 -10 -4 -5 3 -10 11 -10 16 0 6 5 7 10 4 6 -3 10 -11 10 -16z m-1549 -12
c-10 -9 -11 -8 -5 6 3 10 9 15 12 12 3 -3 0 -11 -7 -18z m831 0 c11 -9 14 -18
7 -28 -7 -12 -9 -11 -9 3 0 25 -21 34 -35 15 -7 -9 -15 -14 -18 -10 -6 5 21
32 33 32 3 0 13 -5 22 -12z m393 3 c4 -6 11 -8 16 -5 5 4 9 1 9 -4 0 -14 -13
-14 -28 1 -9 9 -15 9 -24 0 -15 -15 -28 -15 -28 -1 0 5 4 8 9 4 5 -3 12 -1 16
5 3 5 10 10 15 10 5 0 12 -5 15 -10z m385 0 c-40 -27 -50 -31 -44 -15 3 8 10
13 14 10 5 -3 11 -1 15 5 3 5 12 10 18 10 7 0 6 -4 -3 -10z m-1765 -10 c-3 -5
-11 -10 -16 -10 -6 0 -7 5 -4 10 3 6 11 10 16 10 6 0 7 -4 4 -10z m215 -16 c0
-2 -9 0 -20 6 -11 6 -20 13 -20 16 0 2 9 0 20 -6 11 -6 20 -13 20 -16z m176
11 c-11 -8 -24 -15 -30 -15 -5 0 -1 7 10 15 10 8 24 14 29 14 6 0 1 -6 -9 -14z
m218 -2 c4 -11 1 -11 -14 -3 -24 13 -25 17 -5 17 8 0 16 -6 19 -14z m196 13
c0 -7 -72 -47 -77 -43 -2 3 11 14 29 25 33 20 48 26 48 18z m340 -6 c0 -5 -2
-10 -4 -10 -3 0 -8 5 -11 10 -3 6 -1 10 4 10 6 0 11 -4 11 -10z m60 6 c0 -3
-4 -8 -10 -11 -5 -3 -10 -1 -10 4 0 6 5 11 10 11 6 0 10 -2 10 -4z m340 -6 c0
-5 -2 -10 -4 -10 -3 0 -8 5 -11 10 -3 6 -1 10 4 10 6 0 11 -4 11 -10z m260 0
c0 -5 -4 -10 -10 -10 -5 0 -10 5 -10 10 0 6 5 10 10 10 6 0 10 -4 10 -10z
m145 0 c3 -5 1 -10 -4 -10 -6 0 -11 5 -11 10 0 6 2 10 4 10 3 0 8 -4 11 -10z
m-1841 -23 c-3 -8 -12 -14 -21 -14 -13 0 -13 2 3 14 10 7 19 13 21 13 1 0 0
-6 -3 -13z m401 3 c-3 -5 -12 -10 -18 -10 -7 0 -6 4 3 10 19 12 23 12 15 0z
m649 -5 c-10 -8 -23 -14 -29 -14 -5 0 -1 6 9 14 11 8 24 15 30 15 5 0 1 -7
-10 -15z m296 -9 c0 -10 -30 0 -34 11 -4 11 -1 11 14 3 11 -6 20 -12 20 -14z
m104 10 c-10 -8 -21 -12 -24 -10 -5 6 21 24 34 24 6 0 1 -6 -10 -14z m296 -10
c0 -10 -30 0 -34 11 -4 11 -1 11 14 3 11 -6 20 -12 20 -14z m-1605 4 c3 -6 -1
-7 -9 -4 -18 7 -21 14 -7 14 6 0 13 -4 16 -10z m95 0 c0 -5 -5 -10 -11 -10 -5
0 -7 5 -4 10 3 6 8 10 11 10 2 0 4 -4 4 -10z m247 -27 c-3 -10 -5 -4 -5 12 0
17 2 24 5 18 2 -7 2 -21 0 -30z m58 27 c3 -6 -1 -7 -9 -4 -18 7 -21 14 -7 14
6 0 13 -4 16 -10z m155 -5 c11 -13 10 -14 -4 -9 -9 3 -16 10 -16 15 0 13 6 11
20 -6z m245 5 c3 -6 -1 -7 -9 -4 -18 7 -21 14 -7 14 6 0 13 -4 16 -10z m150 0
c3 -5 1 -10 -4 -10 -6 0 -11 5 -11 10 0 6 2 10 4 10 3 0 8 -4 11 -10z m400 0
c3 -5 1 -10 -4 -10 -6 0 -11 5 -11 10 0 6 2 10 4 10 3 0 8 -4 11 -10z m348 -5
c-3 -9 -8 -14 -10 -11 -3 3 -2 9 2 15 9 16 15 13 8 -4z m-1808 -15 c3 -5 1
-10 -4 -10 -6 0 -11 5 -11 10 0 6 2 10 4 10 3 0 8 -4 11 -10z m565 -11 c0 -14
-16 -11 -29 5 -10 12 -8 13 8 9 12 -3 21 -9 21 -14z m550 6 c-14 -17 -30 -20
-30 -6 0 5 8 12 18 14 9 3 19 5 21 6 2 0 -2 -6 -9 -14z m87 -7 c-3 -8 -6 -5
-6 6 -1 11 2 17 5 13 3 -3 4 -12 1 -19z m401 -3 c-3 -3 -9 2 -12 12 -6 14 -5
15 5 6 7 -7 10 -15 7 -18z m62 10 c-7 -9 -15 -13 -19 -10 -3 3 1 10 9 15 21
14 24 12 10 -5z m-1760 1 c0 -3 -4 -8 -10 -11 -5 -3 -10 -1 -10 4 0 6 5 11 10
11 6 0 10 -2 10 -4z m255 -6 c3 -5 1 -10 -4 -10 -6 0 -11 5 -11 10 0 6 2 10 4
10 3 0 8 -4 11 -10z m145 6 c0 -3 -4 -8 -10 -11 -5 -3 -10 -1 -10 4 0 6 5 11
10 11 6 0 10 -2 10 -4z m400 -6 c0 -5 -4 -10 -10 -10 -5 0 -10 5 -10 10 0 6 5
10 10 10 6 0 10 -4 10 -10z m97 -22 c-3 -7 -5 -2 -5 12 0 14 2 19 5 13 2 -7 2
-19 0 -25z m50 0 c-3 -7 -5 -2 -5 12 0 14 2 19 5 13 2 -7 2 -19 0 -25z m113
22 c0 -5 -4 -10 -10 -10 -5 0 -10 5 -10 10 0 6 5 10 10 10 6 0 10 -4 10 -10z
m400 0 c0 -5 -4 -10 -10 -10 -5 0 -10 5 -10 10 0 6 5 10 10 10 6 0 10 -4 10
-10z m145 0 c-3 -5 -10 -10 -16 -10 -5 0 -9 5 -9 10 0 6 7 10 16 10 8 0 12 -4
9 -10z m255 0 c0 -5 -2 -10 -4 -10 -3 0 -8 5 -11 10 -3 6 -1 10 4 10 6 0 11
-4 11 -10z m-1335 -10 c3 -5 1 -10 -4 -10 -6 0 -11 5 -11 10 0 6 2 10 4 10 3
0 8 -4 11 -10z m400 0 c3 -5 1 -10 -4 -10 -6 0 -11 5 -11 10 0 6 2 10 4 10 3
0 8 -4 11 -10z m400 0 c3 -5 1 -10 -4 -10 -6 0 -11 5 -11 10 0 6 2 10 4 10 3
0 8 -4 11 -10z m-1371 -16 c3 -8 2 -12 -4 -9 -6 3 -10 10 -10 16 0 14 7 11 14
-7z m378 -1 c14 13 38 20 38 12 0 -2 -13 -11 -28 -19 -25 -13 -30 -12 -52 6
l-25 20 27 -16 c21 -12 30 -13 40 -3z m384 -14 c3 -6 -5 -3 -20 6 -14 10 -26
19 -26 22 0 7 39 -17 46 -28z m54 26 c0 -2 -10 -9 -22 -15 -22 -11 -22 -10 -4
4 21 17 26 19 26 11z m340 -19 c12 -19 12 -20 -3 -8 -9 8 -20 11 -25 8 -5 -3
-9 1 -9 8 0 20 23 15 37 -8z m57 11 c0 -7 -9 -13 -19 -13 -18 0 -18 1 -2 13
10 7 18 13 19 13 1 0 2 -6 2 -13z m337 -2 c2 -6 -2 -12 -10 -12 -7 0 -15 6
-18 12 -2 6 2 12 10 12 7 0 15 -6 18 -12z m63 8 c-4 -3 -1 -13 6 -22 11 -14
10 -14 -5 -2 -11 8 -23 10 -31 5 -7 -5 -4 -1 6 9 18 16 39 25 24 10z m324 -16
c-10 -9 -11 -8 -5 6 3 10 9 15 12 12 3 -3 0 -11 -7 -18z m-1396 3 c-3 -5 -12
-10 -18 -10 -7 0 -6 4 3 10 19 12 23 12 15 0z m52 -12 c-3 -8 -6 -5 -6 6 -1
11 2 17 5 13 3 -3 4 -12 1 -19z m-277 -3 c0 -2 -6 -5 -13 -8 -8 -3 -14 1 -14
8 0 7 6 11 14 8 7 -3 13 -6 13 -8z m785 6 c3 -5 2 -12 -3 -15 -5 -3 -9 1 -9 9
0 17 3 19 12 6z m-1060 -11 c3 -5 2 -10 -4 -10 -5 0 -13 5 -16 10 -3 6 -2 10
4 10 5 0 13 -4 16 -10z m400 0 c3 -6 -1 -7 -9 -4 -18 7 -21 14 -7 14 6 0 13
-4 16 -10z m802 -52 c-2 -13 -4 -3 -4 22 0 25 2 35 4 23 2 -13 2 -33 0 -45z
m663 52 c0 -5 -5 -10 -11 -10 -5 0 -7 5 -4 10 3 6 8 10 11 10 2 0 4 -4 4 -10z
m-1230 -14 c0 -3 -4 -8 -10 -11 -5 -3 -10 -1 -10 4 0 6 5 11 10 11 6 0 10 -2
10 -4z m317 -18 c-3 -8 -6 -5 -6 6 -1 11 2 17 5 13 3 -3 4 -12 1 -19z m82 19
c-2 -1 -13 -9 -24 -17 -19 -14 -19 -14 -6 3 7 9 18 17 24 17 6 0 8 -1 6 -3z
m-629 -17 c0 -5 -5 -10 -11 -10 -5 0 -7 5 -4 10 3 6 8 10 11 10 2 0 4 -4 4
-10z m1455 0 c3 -5 1 -10 -4 -10 -6 0 -11 5 -11 10 0 6 2 10 4 10 3 0 8 -4 11
-10z m-1863 -7 c-10 -4 -10 -8 -1 -19 15 -18 0 -18 -24 0 -18 14 -18 14 0 19
25 6 41 7 25 0z m1502 -7 c-3 -9 -12 -12 -22 -9 -15 6 -9 11 25 22 1 1 0 -5
-3 -13z m-1214 -6 c0 -5 -2 -10 -4 -10 -3 0 -8 5 -11 10 -3 6 -1 10 4 10 6 0
11 -4 11 -10z m94 2 c3 -5 -1 -9 -9 -9 -8 0 -15 4 -15 9 0 4 4 8 9 8 6 0 12
-4 15 -8z m181 -1 c3 -5 1 -12 -5 -16 -5 -3 -10 1 -10 9 0 18 6 21 15 7z m125
-1 c0 -5 -2 -10 -4 -10 -3 0 -8 5 -11 10 -3 6 -1 10 4 10 6 0 11 -4 11 -10z
m111 -7 c13 -15 12 -15 -7 -5 -12 6 -25 8 -29 4 -5 -4 -5 -1 -1 6 10 16 21 15
37 -5z m311 -3 c18 -11 29 -20 23 -20 -5 0 -23 9 -40 20 -39 26 -25 26 17 0z
m78 16 c0 -3 -4 -8 -10 -11 -5 -3 -10 -1 -10 4 0 6 5 11 10 11 6 0 10 -2 10
-4z m404 -2 c9 -3 16 -14 15 -23 0 -10 -2 -11 -6 -3 -2 6 -11 12 -19 12 -8 0
-14 5 -14 10 0 12 3 12 24 4z m-1444 -24 c-10 -7 -11 -10 -2 -10 6 0 12 -5 12
-11 0 -8 -4 -8 -14 0 -20 17 -60 -7 -45 -25 8 -10 5 -10 -14 -1 l-24 11 36 19
c20 11 40 23 45 28 5 5 12 6 15 3 3 -3 -1 -9 -9 -14z m1160 10 c0 -5 -2 -10
-4 -10 -3 0 -8 5 -11 10 -3 6 -1 10 4 10 6 0 11 -4 11 -10z m480 -43 c13 -5
13 -6 0 -6 -9 -1 -26 6 -38 15 -18 12 -26 13 -37 4 -11 -9 -15 -9 -15 -1 0 6
6 11 13 12 10 0 10 2 0 6 -7 2 -13 9 -13 14 0 5 17 -1 38 -14 20 -13 44 -26
52 -30z m72 31 c-7 -7 -12 -8 -12 -2 0 14 12 26 19 19 2 -3 -1 -11 -7 -17z
m-327 -6 c-3 -3 -11 0 -18 7 -9 10 -8 11 6 5 10 -3 15 -9 12 -12z m-1017 -10
c-23 -15 -25 -21 -15 -32 10 -12 9 -12 -5 -1 -9 7 -22 10 -28 6 -5 -3 -10 -4
-10 -2 0 7 64 47 75 47 6 0 -2 -8 -17 -18z m400 0 c-22 -15 -25 -21 -15 -31
10 -11 8 -11 -10 0 l-22 13 27 18 c15 10 32 18 37 18 6 0 -2 -8 -17 -18z m444
0 l27 -18 -22 -13 c-18 -11 -20 -11 -10 0 10 10 7 16 -15 31 -15 10 -22 18
-17 18 6 0 22 -8 37 -18z m-62 -12 c-24 -15 -36 -11 -14 4 10 8 21 12 24 10 2
-3 -2 -9 -10 -14z m-705 -10 c3 -6 -1 -7 -9 -4 -18 7 -21 14 -7 14 6 0 13 -4
16 -10z m400 0 c3 -6 -1 -7 -9 -4 -18 7 -21 14 -7 14 6 0 13 -4 16 -10z m695
6 c0 -2 -7 -7 -16 -10 -8 -3 -12 -2 -9 4 6 10 25 14 25 6z m-1540 -26 c-10 -7
-11 -10 -2 -10 6 0 12 -5 12 -10 0 -6 -8 -5 -19 2 -18 11 -18 13 -3 24 9 7 19
10 22 8 2 -3 -2 -9 -10 -14z m185 -10 c3 -5 1 -10 -4 -10 -6 0 -11 5 -11 10 0
6 2 10 4 10 3 0 8 -4 11 -10z m215 0 c8 -5 12 -11 10 -14 -3 -2 -14 2 -24 10
-22 15 -10 19 14 4z m185 0 c3 -5 -1 -10 -10 -10 -9 0 -13 5 -10 10 3 6 8 10
10 10 2 0 7 -4 10 -10z m215 0 c8 -5 12 -11 10 -14 -3 -2 -14 2 -24 10 -22 15
-10 19 14 4z m406 -5 c10 -8 14 -15 9 -15 -6 0 -16 5 -22 11 -8 8 -19 6 -39
-6 l-29 -17 24 21 c28 25 31 25 57 6z m184 5 c0 -5 -5 -10 -11 -10 -5 0 -7 5
-4 10 3 6 8 10 11 10 2 0 4 -4 4 -10z m216 -5 c10 -8 14 -15 7 -15 -6 0 -15 5
-18 10 -10 17 -25 11 -35 -12 -9 -23 -9 -23 -9 -1 -1 18 9 29 30 32 3 1 14 -6
25 -14z m-1646 -5 c0 -5 -5 -10 -11 -10 -5 0 -7 5 -4 10 3 6 8 10 11 10 2 0 4
-4 4 -10z m170 -11 l25 -20 -32 16 c-18 8 -33 18 -33 20 0 10 16 4 40 -16z
m122 4 c-10 -4 -10 -8 0 -21 12 -15 11 -16 -4 -4 -9 8 -23 11 -30 7 -7 -4 -2
2 12 13 14 12 27 18 30 15 3 -3 -1 -8 -8 -10z m108 7 c0 -5 -5 -10 -11 -10 -5
0 -7 5 -4 10 3 6 8 10 11 10 2 0 4 -4 4 -10z m160 -2 c18 -12 18 -13 -8 -30
-15 -10 -21 -18 -14 -18 6 0 12 -5 12 -11 0 -8 -4 -8 -15 1 -8 6 -20 9 -27 5
-7 -4 -2 3 12 14 14 11 29 21 34 21 6 0 1 7 -10 15 -23 17 -12 20 16 3z m136
-3 c-11 -8 -14 -15 -8 -15 7 0 12 -5 12 -10 0 -6 -8 -5 -19 2 -18 11 -18 13
-3 25 9 7 22 12 27 12 6 0 1 -6 -9 -14z m104 5 c0 -5 -5 -10 -11 -10 -5 0 -7
5 -4 10 3 6 8 10 11 10 2 0 4 -4 4 -10z m162 -26 c-9 -7 -19 -10 -22 -8 -2 3
2 9 10 14 10 7 11 10 3 10 -7 0 -13 5 -13 10 0 6 8 5 19 -2 18 -11 18 -13 3
-24z m128 16 c-10 -7 -11 -10 -2 -10 6 0 12 -5 12 -11 0 -8 -4 -8 -15 1 -8 6
-20 9 -27 5 -7 -4 -2 2 12 13 14 12 27 18 30 16 2 -3 -2 -9 -10 -14z m287 -5
c1 0 -8 -7 -20 -14 -20 -13 -21 -13 -8 2 9 11 10 17 2 17 -6 0 -11 5 -11 11 0
8 6 7 18 -2 9 -7 18 -14 19 -14z m121 12 c-15 -10 -14 -13 10 -29 15 -10 21
-18 14 -18 -7 0 -17 -10 -22 -22 l-9 -23 0 23 c-1 12 5 22 12 22 6 0 -3 10
-20 21 -35 22 -43 32 -19 23 8 -3 17 -1 21 5 3 6 12 11 18 10 7 0 4 -5 -5 -12z
m298 4 c10 8 15 9 11 2 -4 -6 -21 -19 -38 -27 -26 -13 -29 -13 -19 -1 9 11 9
15 1 15 -6 0 -11 5 -11 10 0 6 8 5 19 -2 15 -9 23 -9 37 3z m-1931 -19 c-3 -3
-11 0 -18 7 -9 10 -8 11 6 5 10 -3 15 -9 12 -12z m276 -21 c-10 -6 -9 -10 5
-15 9 -3 14 -9 11 -12 -3 -3 -14 0 -25 7 -19 12 -19 14 -4 25 9 7 19 10 22 8
2 -3 -1 -9 -9 -13z m-206 -1 c-3 -5 -12 -10 -18 -10 -7 0 -6 4 3 10 19 12 23
12 15 0z m402 -4 c0 -8 -6 -12 -15 -9 -11 5 -11 7 0 14 7 5 13 9 14 9 0 0 1
-6 1 -14z m283 4 c0 -5 -2 -10 -4 -10 -3 0 -8 5 -11 10 -3 6 -1 10 4 10 6 0
11 -4 11 -10z m414 -2 c-3 -4 -9 -8 -15 -8 -5 0 -9 4 -9 8 0 5 7 9 15 9 8 0
12 -4 9 -9z m291 -6 c-3 -3 -11 0 -18 7 -9 10 -8 11 6 5 10 -3 15 -9 12 -12z
m115 14 c0 -11 -19 -15 -25 -6 -3 5 1 10 9 10 9 0 16 -2 16 -4z m-494 -21 c10
-8 14 -15 7 -15 -6 0 -15 5 -18 11 -4 6 -14 8 -22 5 -8 -3 -11 -1 -8 4 8 14
18 13 41 -5z m189 5 c3 -6 -1 -7 -9 -4 -18 7 -21 14 -7 14 6 0 13 -4 16 -10z
m595 6 c0 -2 -7 -7 -16 -10 -8 -3 -12 -2 -9 4 6 10 25 14 25 6z m-1430 -16 c0
-5 -5 -10 -11 -10 -5 0 -7 5 -4 10 3 6 8 10 11 10 2 0 4 -4 4 -10z m400 0 c0
-5 -5 -10 -11 -10 -5 0 -7 5 -4 10 3 6 8 10 11 10 2 0 4 -4 4 -10z m400 0 c0
-5 -5 -10 -11 -10 -5 0 -7 5 -4 10 3 6 8 10 11 10 2 0 4 -4 4 -10z m255 0 c3
-5 1 -10 -4 -10 -6 0 -11 5 -11 10 0 6 2 10 4 10 3 0 8 -4 11 -10z m400 0 c3
-5 1 -10 -4 -10 -6 0 -11 5 -11 10 0 6 2 10 4 10 3 0 8 -4 11 -10z m-1530 -10
c3 -5 1 -10 -4 -10 -6 0 -11 5 -11 10 0 6 2 10 4 10 3 0 8 -4 11 -10z m39 -15
c-7 -16 -24 -21 -24 -6 0 8 7 13 27 20 1 1 0 -6 -3 -14z m396 0 c-7 -9 -15
-13 -19 -10 -3 3 1 10 9 15 21 14 24 12 10 -5z m752 -1 c-22 -17 -29 -17 -35
-1 -3 8 6 12 24 13 26 1 27 0 11 -12z m-1557 -4 c3 -5 2 -10 -4 -10 -5 0 -13
5 -16 10 -3 6 -2 10 4 10 5 0 13 -4 16 -10z m186 -9 c-10 -6 -9 -10 4 -15 9
-3 14 -10 10 -16 -3 -5 -13 -2 -23 8 -16 15 -16 18 -2 29 8 6 17 9 20 7 2 -3
-1 -9 -9 -13z m159 9 c0 -5 -4 -10 -10 -10 -5 0 -10 5 -10 10 0 6 5 10 10 10
6 0 10 -4 10 -10z m241 -9 c-10 -6 -9 -10 5 -15 9 -3 14 -9 11 -12 -3 -3 -14
0 -25 7 -19 12 -19 14 -4 25 9 7 19 10 22 8 2 -3 -1 -9 -9 -13z m159 9 c0 -5
-4 -10 -10 -10 -5 0 -10 5 -10 10 0 6 5 10 10 10 6 0 10 -4 10 -10z m208 -2
c8 -8 15 -8 27 2 8 7 18 10 21 7 3 -3 -4 -10 -15 -17 -19 -10 -61 0 -61 15 0
9 16 5 28 -7z m192 2 c0 -5 -4 -10 -10 -10 -5 0 -10 5 -10 10 0 6 5 10 10 10
6 0 10 -4 10 -10z m60 0 c0 -5 -4 -10 -10 -10 -5 0 -10 5 -10 10 0 6 5 10 10
10 6 0 10 -4 10 -10z m140 0 c0 -5 -2 -10 -4 -10 -3 0 -8 5 -11 10 -3 6 -1 10
4 10 6 0 11 -4 11 -10z m60 6 c0 -3 -4 -8 -10 -11 -5 -3 -10 -1 -10 4 0 6 5
11 10 11 6 0 10 -2 10 -4z m200 -6 c0 -5 -2 -10 -4 -10 -3 0 -8 5 -11 10 -3 6
-1 10 4 10 6 0 11 -4 11 -10z m200 6 c0 -3 -4 -8 -10 -11 -5 -3 -10 -1 -10 4
0 6 5 11 10 11 6 0 10 -2 10 -4z m-1497 -33 c-3 -7 -9 -10 -14 -7 -14 8 -11
21 5 21 8 0 12 -6 9 -14z m404 10 c-4 -3 -1 -13 6 -21 11 -13 9 -14 -10 -1
-16 9 -19 16 -10 21 15 9 23 10 14 1z m133 -4 c0 -4 -6 -9 -13 -12 -8 -3 -14
0 -14 7 0 7 6 13 14 13 7 0 13 -4 13 -8z m264 -1 c-3 -4 -9 -8 -15 -8 -5 0 -9
4 -9 8 0 5 7 9 15 9 8 0 12 -4 9 -9z m136 -3 c0 -2 -6 -5 -13 -8 -8 -3 -14 1
-14 8 0 7 6 11 14 8 7 -3 13 -6 13 -8z m114 0 c-10 -8 -23 -14 -29 -14 -5 0
-1 6 9 14 11 8 24 15 30 15 5 0 1 -7 -10 -15z m153 2 c0 -7 -9 -13 -19 -13
-18 0 -18 1 -2 13 10 7 18 13 19 13 1 0 2 -6 2 -13z m133 1 c0 -4 -4 -8 -9 -8
-6 0 -12 4 -15 8 -3 5 1 9 9 9 8 0 15 -4 15 -9z m114 -2 c-10 -8 -21 -12 -24
-10 -5 6 21 24 34 24 6 0 1 -6 -10 -14z m153 0 c0 -8 -6 -12 -15 -9 -11 5 -11
7 0 14 7 5 13 9 14 9 0 0 1 -6 1 -14z m-967 -6 c0 -5 -5 -10 -11 -10 -5 0 -7
5 -4 10 3 6 8 10 11 10 2 0 4 -4 4 -10z m55 0 c3 -5 1 -10 -4 -10 -6 0 -11 5
-11 10 0 6 2 10 4 10 3 0 8 -4 11 -10z m-1000 -20 c-3 -5 -11 -10 -16 -10 -6
0 -7 5 -4 10 3 6 11 10 16 10 6 0 7 -4 4 -10z m391 -5 c-11 -8 -24 -15 -30
-15 -5 0 -1 7 10 15 10 8 24 14 29 14 6 0 1 -6 -9 -14z m114 0 c-7 -9 -15 -13
-19 -10 -3 3 1 10 9 15 21 14 24 12 10 -5z m119 -16 c-28 -22 -39 -24 -39 -7
0 6 3 8 7 5 9 -9 34 13 27 24 -3 5 2 6 12 2 14 -5 13 -8 -7 -24z m181 27 c0
-3 -4 -8 -10 -11 -5 -3 -10 -1 -10 4 0 6 5 11 10 11 6 0 10 -2 10 -4z m104
-11 c-4 -8 -11 -12 -16 -9 -6 4 -5 10 3 15 19 12 19 11 13 -6z m404 6 c-2 -5
6 -16 16 -24 17 -13 17 -14 2 -20 -9 -4 -14 -3 -11 2 3 5 -4 16 -16 24 -19 14
-17 18 9 26 1 1 1 -3 0 -8z m132 -6 c0 -2 -6 -5 -13 -8 -8 -3 -14 1 -14 8 0 7
6 11 14 8 7 -3 13 -6 13 -8z m-1345 -5 c3 -5 1 -10 -4 -10 -6 0 -11 5 -11 10
0 6 2 10 4 10 3 0 8 -4 11 -10z m145 5 c0 -2 -10 -10 -22 -16 -21 -11 -22 -11
-9 4 13 16 31 23 31 12z m782 -11 c-12 -8 -20 -20 -17 -25 3 -5 -1 -6 -9 -3
-9 3 -16 10 -16 16 0 5 4 7 9 4 5 -3 14 1 21 9 7 8 17 15 23 15 6 0 1 -7 -11
-16z m683 6 c3 -5 2 -10 -4 -10 -5 0 -13 5 -16 10 -3 6 -2 10 4 10 5 0 13 -4
16 -10z m-951 -15 c-10 -8 -23 -14 -29 -14 -5 0 -1 6 9 14 11 8 24 15 30 15 5
0 1 -7 -10 -15z m-620 -4 c3 -5 0 -11 -7 -14 -8 -3 -14 1 -14 9 0 16 13 19 21
5z m401 -1 c3 -5 2 -10 -4 -10 -5 0 -13 5 -16 10 -3 6 -2 10 4 10 5 0 13 -4
16 -10z m252 -12 c-3 -8 -6 -5 -6 6 -1 11 2 17 5 13 3 -3 4 -12 1 -19z m413 7
c11 -13 10 -14 -4 -9 -9 3 -16 10 -16 15 0 13 6 11 20 -6z m203 1 c4 -10 1
-13 -8 -9 -8 3 -12 9 -9 14 7 12 11 11 17 -5z m192 4 c3 -5 1 -10 -4 -10 -6 0
-11 5 -11 10 0 6 2 10 4 10 3 0 8 -4 11 -10z m145 1 c0 -5 -7 -11 -14 -14 -10
-4 -13 -1 -9 9 6 15 23 19 23 5z m50 -10 c-13 -11 -29 -17 -34 -14 -5 3 4 12
20 19 40 17 43 16 14 -5z m-850 5 c0 -2 -7 -7 -16 -10 -8 -3 -12 -2 -9 4 6 10
25 14 25 6z m-770 -10 c0 -3 -4 -8 -10 -11 -5 -3 -10 -1 -10 4 0 6 5 11 10 11
6 0 10 -2 10 -4z m325 -5 c3 -5 1 -12 -5 -16 -5 -3 -10 1 -10 9 0 18 6 21 15
7z m-415 -21 c-10 -7 -11 -10 -2 -10 6 0 12 -5 12 -11 0 -8 -4 -8 -15 1 -8 6
-20 9 -27 5 -7 -4 -2 2 12 13 14 12 27 18 30 16 2 -3 -2 -9 -10 -14z m820 16
c0 -3 -4 -8 -10 -11 -5 -3 -10 -1 -10 4 0 6 5 11 10 11 6 0 10 -2 10 -4z m140
-27 c0 -10 -2 -19 -4 -19 -2 0 -13 -3 -23 -6 -17 -6 -17 -6 1 8 12 10 17 21
13 32 -4 10 -3 15 3 11 6 -3 10 -15 10 -26z m400 6 c0 -14 -2 -25 -4 -25 -2 0
-13 -3 -23 -6 -17 -6 -17 -6 1 8 12 9 17 21 13 32 -4 9 -2 16 3 16 6 0 10 -11
10 -25z m426 -2 c-6 -6 -36 9 -36 18 0 5 9 4 20 -3 10 -7 18 -14 16 -15z
m-1591 7 c-3 -5 -12 -10 -18 -10 -7 0 -6 4 3 10 19 12 23 12 15 0z m1393 -4
c-2 -1 -12 -8 -23 -16 -18 -14 -19 -13 -8 1 7 9 10 19 6 23 -4 4 1 4 10 0 10
-3 17 -7 15 -8z m-1503 -6 c3 -5 -1 -10 -10 -10 -9 0 -13 5 -10 10 3 6 8 10
10 10 2 0 7 -4 10 -10z m305 6 c0 -2 -7 -7 -16 -10 -8 -3 -12 -2 -9 4 6 10 25
14 25 6z m95 -6 c3 -5 1 -10 -4 -10 -6 0 -11 5 -11 10 0 6 2 10 4 10 3 0 8 -4
11 -10z m331 -11 c19 -11 34 -23 34 -25 0 -3 -5 -2 -10 1 -6 4 -17 1 -25 -5
-11 -9 -15 -9 -15 -1 0 6 6 11 13 11 6 0 -1 9 -18 20 -40 26 -22 26 21 -1z
m474 11 c0 -5 -5 -10 -11 -10 -5 0 -7 5 -4 10 3 6 8 10 11 10 2 0 4 -4 4 -10z
m400 0 c0 -5 -5 -10 -11 -10 -5 0 -7 5 -4 10 3 6 8 10 11 10 2 0 4 -4 4 -10z
m-1530 -10 c0 -5 -5 -10 -11 -10 -5 0 -7 5 -4 10 3 6 8 10 11 10 2 0 4 -4 4
-10z m392 -7 c-10 -4 -10 -8 -1 -19 8 -10 4 -10 -20 2 -35 18 -40 24 -12 17
10 -3 22 0 26 7 4 6 10 8 14 4 3 -4 0 -9 -7 -11z m352 8 c4 -5 -3 -7 -14 -4
-23 6 -26 13 -6 13 8 0 17 -4 20 -9z m318 -27 c-9 -7 -19 -10 -22 -8 -2 3 2 9
10 14 10 7 11 10 3 10 -7 0 -13 5 -13 10 0 6 8 5 19 -2 18 -11 18 -13 3 -24z
m415 11 c1 0 -8 -7 -20 -14 -20 -13 -21 -13 -8 2 9 11 10 17 2 17 -6 0 -11 5
-11 11 0 8 6 7 18 -2 9 -7 18 -14 19 -14z m-1477 -21 c0 -2 -13 2 -30 11 -16
9 -30 18 -30 21 0 2 14 -2 30 -11 17 -9 30 -18 30 -21z m-115 16 c3 -6 -1 -7
-9 -4 -18 7 -21 14 -7 14 6 0 13 -4 16 -10z m675 -5 c-7 -9 -15 -13 -19 -10
-3 3 1 10 9 15 21 14 24 12 10 -5z m1020 11 c0 -2 -7 -7 -16 -10 -8 -3 -12 -2
-9 4 6 10 25 14 25 6z m-1830 -16 c0 -5 -5 -10 -11 -10 -5 0 -7 5 -4 10 3 6 8
10 11 10 2 0 4 -4 4 -10z m100 0 c0 -5 -5 -10 -11 -10 -5 0 -7 5 -4 10 3 6 8
10 11 10 2 0 4 -4 4 -10z m286 1 c10 8 14 8 14 0 0 -6 -6 -11 -12 -12 -10 0
-10 -2 0 -6 6 -2 12 -9 12 -13 0 -5 -16 0 -35 11 -37 22 -49 37 -14 19 15 -9
24 -8 35 1z m764 -1 c0 -5 -2 -10 -4 -10 -3 0 -8 5 -11 10 -3 6 -1 10 4 10 6
0 11 -4 11 -10z m60 5 c0 -2 -13 -11 -30 -20 -30 -15 -39 -38 -20 -50 5 -3 20
1 32 9 12 9 17 16 10 16 -6 0 -12 5 -12 11 0 8 4 8 15 -1 8 -6 19 -9 25 -5 5
3 10 4 10 1 0 -2 -16 -14 -35 -26 -34 -21 -35 -21 -65 -4 l-30 18 43 27 c41
27 57 34 57 24z m344 -35 l-24 -17 25 -13 c23 -12 23 -14 7 -26 -9 -7 -19 -10
-22 -8 -2 3 1 9 8 13 9 5 5 11 -13 21 l-25 13 27 19 c16 10 22 18 16 18 -7 0
-13 5 -13 10 0 6 8 5 20 -2 18 -12 18 -13 -6 -28z m56 36 c0 -3 -4 -8 -10 -11
-5 -3 -10 -1 -10 4 0 6 5 11 10 11 6 0 10 -2 10 -4z m245 -6 c3 -5 1 -10 -4
-10 -6 0 -11 5 -11 10 0 6 2 10 4 10 3 0 8 -4 11 -10z m100 0 c3 -5 1 -10 -4
-10 -6 0 -11 5 -11 10 0 6 2 10 4 10 3 0 8 -4 11 -10z m-1780 -10 c3 -5 1 -10
-4 -10 -6 0 -11 5 -11 10 0 6 2 10 4 10 3 0 8 -4 11 -10z m415 6 c0 -2 -7 -6
-15 -10 -8 -3 -15 -1 -15 4 0 6 7 10 15 10 8 0 15 -2 15 -4z m385 -6 c3 -5 2
-10 -4 -10 -5 0 -13 5 -16 10 -3 6 -2 10 4 10 5 0 13 -4 16 -10z m405 0 c0 -5
-4 -10 -9 -10 -6 0 -13 5 -16 10 -3 6 1 10 9 10 9 0 16 -4 16 -10z m410 6 c0
-3 -4 -8 -10 -11 -5 -3 -10 -1 -10 4 0 6 5 11 10 11 6 0 10 -2 10 -4z m-1032
-24 l-28 -18 41 -23 c22 -13 38 -25 36 -27 -3 -3 -25 7 -50 23 l-46 27 27 18
c15 10 32 18 37 18 6 0 -2 -8 -17 -18z m-758 -2 c0 -5 -2 -10 -4 -10 -3 0 -8
5 -11 10 -3 6 -1 10 4 10 6 0 11 -4 11 -10z m812 -26 c-9 -7 -19 -10 -22 -8
-2 3 2 9 10 14 10 7 11 10 3 10 -7 0 -13 5 -13 10 0 6 8 5 19 -2 18 -11 18
-13 3 -24z m800 0 c-9 -7 -19 -10 -22 -7 -3 3 1 8 8 10 10 4 10 8 0 21 -12 14
-11 14 9 2 20 -13 20 -15 5 -26z m348 32 c0 -3 -4 -8 -10 -11 -5 -3 -10 -1
-10 4 0 6 5 11 10 11 6 0 10 -2 10 -4z m-1923 -20 c0 -8 -6 -12 -15 -9 -11 5
-11 7 0 14 7 5 13 9 14 9 0 0 1 -6 1 -14z m398 4 c-3 -5 -12 -10 -18 -10 -7 0
-6 4 3 10 19 12 23 12 15 0z m-116 -3 c-2 -1 -13 -9 -24 -17 -19 -14 -19 -14
-6 3 7 9 18 17 24 17 6 0 8 -1 6 -3z m1627 -12 c10 -8 15 -14 9 -14 -5 0 -19
6 -29 14 -11 8 -15 15 -10 15 6 0 19 -7 30 -15z m-1596 -5 c0 -5 -2 -10 -4
-10 -3 0 -8 5 -11 10 -3 6 -1 10 4 10 6 0 11 -4 11 -10z m40 -10 c-10 -7 -11
-10 -2 -10 6 0 12 -5 12 -10 0 -6 -8 -5 -19 2 -18 11 -18 13 -3 24 9 7 19 10
22 8 2 -3 -2 -9 -10 -14z m190 -4 c0 -3 -4 -8 -10 -11 -5 -3 -10 -1 -10 4 0 6
5 11 10 11 6 0 10 -2 10 -4z m60 -21 c-8 -10 -9 -15 -1 -15 6 0 11 -5 11 -10
0 -6 -7 -6 -19 1 -17 11 -17 13 -2 29 19 20 29 17 11 -5z m340 21 c0 -2 -7 -7
-16 -10 -8 -3 -12 -2 -9 4 6 10 25 14 25 6z m400 -6 c0 -5 -2 -10 -4 -10 -3 0
-8 5 -11 10 -3 6 -1 10 4 10 6 0 11 -4 11 -10z m-1380 -10 c0 -5 -2 -10 -4
-10 -3 0 -8 5 -11 10 -3 6 -1 10 4 10 6 0 11 -4 11 -10z m126 -17 c-6 -6 -36
9 -36 18 0 5 9 4 20 -3 10 -7 18 -14 16 -15z m406 13 c10 5 10 4 2 -5 -12 -13
-44 -5 -44 11 0 6 6 5 15 -2 8 -6 20 -8 27 -4z m218 4 c0 -5 -5 -10 -11 -10
-5 0 -7 5 -4 10 3 6 8 10 11 10 2 0 4 -4 4 -10z m182 -5 c7 4 2 -2 -12 -13
-14 -12 -27 -18 -30 -16 -2 3 2 9 10 14 10 7 11 10 3 10 -7 0 -13 5 -13 11 0
8 4 8 15 -1 8 -6 20 -9 27 -5z m218 5 c0 -5 -5 -10 -11 -10 -5 0 -7 5 -4 10 3
6 8 10 11 10 2 0 4 -4 4 -10z m55 0 c3 -5 1 -10 -4 -10 -6 0 -11 5 -11 10 0 6
2 10 4 10 3 0 8 -4 11 -10z m127 -5 c7 4 2 -2 -12 -13 -14 -12 -27 -18 -30
-16 -2 3 2 9 10 14 10 7 11 10 3 10 -7 0 -13 5 -13 11 0 8 4 8 15 -1 8 -6 20
-9 27 -5z m273 5 c3 -5 1 -10 -4 -10 -6 0 -11 5 -11 10 0 6 2 10 4 10 3 0 8
-4 11 -10z m127 -5 c7 4 2 -2 -12 -13 -14 -12 -27 -18 -30 -15 -3 3 1 8 8 10
10 4 10 8 0 21 -12 15 -11 16 4 4 9 -8 23 -11 30 -7z m118 6 c0 -15 -32 -23
-44 -11 -8 8 -6 9 5 5 10 -4 20 -2 24 4 8 13 15 14 15 2z m100 -1 c0 -5 -5
-10 -11 -10 -5 0 -7 5 -4 10 3 6 8 10 11 10 2 0 4 -4 4 -10z m-525 -18 c-3 -3
-11 0 -18 7 -9 10 -8 11 6 5 10 -3 15 -9 12 -12z m-370 -13 c17 -12 22 -19 13
-15 -12 3 -18 0 -18 -9 0 -8 -4 -15 -10 -15 -5 0 -7 7 -3 16 4 11 -1 22 -12
30 -31 23 -3 16 30 -7z m60 11 c-3 -5 -12 -10 -18 -10 -7 0 -6 4 3 10 19 12
23 12 15 0z m747 -37 c-9 -7 -21 -12 -27 -12 -5 0 -1 6 9 14 11 8 14 15 8 15
-7 0 -12 5 -12 10 0 6 8 5 19 -2 18 -11 18 -13 3 -25z m-1752 -8 c0 -10 -16
-4 -40 16 l-25 20 33 -16 c17 -8 32 -18 32 -20z m70 31 c0 -3 -4 -8 -10 -11
-5 -3 -10 -1 -10 4 0 6 5 11 10 11 6 0 10 -2 10 -4z m507 -10 c0 -8 -6 -12
-15 -9 -11 5 -11 7 0 14 7 5 13 9 14 9 0 0 1 -6 1 -14z m188 -4 c-3 -3 -11 0
-18 7 -9 10 -8 11 6 5 10 -3 15 -9 12 -12z m105 14 c0 -3 -4 -8 -10 -11 -5 -3
-10 -1 -10 4 0 6 5 11 10 11 6 0 10 -2 10 -4z m295 -14 c-3 -3 -11 0 -18 7 -9
10 -8 11 6 5 10 -3 15 -9 12 -12z m210 8 c-3 -5 -12 -10 -18 -10 -7 0 -6 4 3
10 19 12 23 12 15 0z m195 -5 c0 -2 -6 -5 -13 -8 -8 -3 -14 1 -14 8 0 7 6 11
14 8 7 -3 13 -6 13 -8z m106 -7 c-1 -17 4 -23 18 -21 11 1 15 -2 9 -8 -15 -15
-48 4 -49 29 0 12 5 22 11 22 6 0 11 -10 11 -22z m-1281 -8 c3 -5 1 -10 -4
-10 -6 0 -11 5 -11 10 0 6 2 10 4 10 3 0 8 -4 11 -10z m398 -15 c-7 -21 -13
-19 -13 6 0 11 4 18 10 14 5 -3 7 -12 3 -20z m547 15 c0 -5 -5 -10 -11 -10 -5
0 -7 5 -4 10 3 6 8 10 11 10 2 0 4 -4 4 -10z m-1280 -18 c-8 -3 -24 -9 -35
-14 -14 -7 -13 -4 5 11 13 10 29 17 34 13 6 -3 4 -8 -4 -10z m1210 8 c0 -5 -5
-10 -11 -10 -5 0 -7 5 -4 10 3 6 8 10 11 10 2 0 4 -4 4 -10z m-830 -15 c0 -2
-6 -5 -13 -8 -8 -3 -14 1 -14 8 0 7 6 11 14 8 7 -3 13 -6 13 -8z m400 0 c0 -2
-6 -5 -13 -8 -8 -3 -14 1 -14 8 0 7 6 11 14 8 7 -3 13 -6 13 -8z m67 -2 c0 -7
-4 -10 -8 -7 -4 2 -10 -4 -12 -13 -4 -14 -5 -13 -6 4 0 12 -9 24 -18 26 -10 2
-4 4 13 3 17 0 31 -6 31 -13z m400 3 c0 -8 -6 -12 -15 -9 -11 5 -11 7 0 14 7
5 13 9 14 9 0 0 1 -6 1 -14z m-1067 -16 c0 -11 -2 -20 -4 -20 -2 0 -6 9 -9 20
-3 11 -1 20 4 20 5 0 9 -9 9 -20z m264 12 c3 -5 -1 -9 -9 -9 -8 0 -15 4 -15 9
0 4 4 8 9 8 6 0 12 -4 15 -8z m736 4 c0 -2 -7 -7 -16 -10 -8 -3 -12 -2 -9 4 6
10 25 14 25 6z m197 -28 c-3 -7 -5 -2 -5 12 0 14 2 19 5 13 2 -7 2 -19 0 -25z
m63 28 c0 -3 -4 -8 -10 -11 -5 -3 -10 -1 -10 4 0 6 5 11 10 11 6 0 10 -2 10
-4z m117 -16 c-14 -11 -29 -20 -34 -20 -10 1 39 39 51 40 5 0 -3 -9 -17 -20z
m-1481 -18 c-4 -3 -14 2 -24 12 -16 18 -16 18 6 6 13 -6 21 -14 18 -18z m134
18 c0 -5 -5 -10 -11 -10 -5 0 -7 5 -4 10 3 6 8 10 11 10 2 0 4 -4 4 -10z m795
0 c3 -5 1 -10 -4 -10 -6 0 -11 5 -11 10 0 6 2 10 4 10 3 0 8 -4 11 -10z
m-1065 -4 c0 -3 -4 -8 -10 -11 -5 -3 -10 -1 -10 4 0 6 5 11 10 11 6 0 10 -2
10 -4z m394 -5 c3 -5 -3 -11 -15 -14 -16 -4 -18 -3 -8 9 13 16 16 17 23 5z
m141 -1 c3 -5 1 -10 -4 -10 -6 0 -11 5 -11 10 0 6 2 10 4 10 3 0 8 -4 11 -10z
m265 0 c0 -5 -5 -10 -11 -10 -5 0 -7 5 -4 10 3 6 8 10 11 10 2 0 4 -4 4 -10z
m134 1 c3 -5 -1 -11 -9 -14 -9 -4 -12 -1 -8 9 6 16 10 17 17 5z m266 -1 c0 -5
-5 -10 -11 -10 -5 0 -7 5 -4 10 3 6 8 10 11 10 2 0 4 -4 4 -10z m140 0 c0 -5
-5 -10 -11 -10 -5 0 -7 5 -4 10 3 6 8 10 11 10 2 0 4 -4 4 -10z m400 1 c0 -5
-7 -11 -14 -14 -10 -4 -13 -1 -9 9 6 15 23 19 23 5z m-1845 -11 c3 -5 2 -10
-4 -10 -5 0 -13 5 -16 10 -3 6 -2 10 4 10 5 0 13 -4 16 -10z m800 0 c3 -5 1
-10 -4 -10 -6 0 -11 5 -11 10 0 6 2 10 4 10 3 0 8 -4 11 -10z m-750 -20 c-3
-5 -12 -10 -18 -10 -7 0 -6 4 3 10 19 12 23 12 15 0z m135 -10 c-10 -7 -11
-10 -2 -10 6 0 12 -5 12 -10 0 -6 -8 -5 -19 2 -18 11 -18 13 -3 24 9 7 19 10
22 8 2 -3 -2 -9 -10 -14z m360 10 c0 -5 -2 -10 -4 -10 -3 0 -8 5 -11 10 -3 6
-1 10 4 10 6 0 11 -4 11 -10z m46 -5 c-11 -8 -14 -15 -8 -15 7 0 12 -5 12 -10
0 -6 -8 -5 -19 2 -18 11 -18 13 -3 25 9 7 22 12 27 12 6 0 1 -6 -9 -14z m264
8 c0 -1 -8 -7 -18 -12 -13 -7 -19 -6 -19 2 0 7 9 13 19 13 10 0 18 -1 18 -3z
m102 -6 c15 -12 15 -14 -4 -26 -11 -7 -22 -10 -25 -7 -3 3 2 8 11 12 15 6 15
7 -1 20 -10 7 -13 13 -8 13 6 0 18 -5 27 -12z m48 9 c0 -3 -4 -8 -10 -11 -5
-3 -10 -1 -10 4 0 6 5 11 10 11 6 0 10 -2 10 -4z m107 -10 c0 -8 -6 -12 -15
-9 -11 5 -11 7 0 14 7 5 13 9 14 9 0 0 1 -6 1 -14z m233 4 c0 -5 -2 -10 -4
-10 -3 0 -8 5 -11 10 -3 6 -1 10 4 10 6 0 11 -4 11 -10z m60 6 c0 -3 -4 -8
-10 -11 -5 -3 -10 -1 -10 4 0 6 5 11 10 11 6 0 10 -2 10 -4z m107 -13 c0 -8
-6 -9 -19 -2 -10 5 -18 11 -18 12 0 2 8 3 18 3 10 0 19 -6 19 -13z m245 4 c15
-12 15 -14 -3 -25 -11 -7 -19 -8 -19 -2 0 5 5 10 12 10 6 0 3 7 -8 15 -10 8
-14 14 -9 14 6 0 18 -5 27 -12z m152 1 c-3 -4 -1 -8 3 -8 5 0 17 -6 28 -13 17
-13 17 -14 -3 -19 -15 -4 -19 -2 -15 8 3 8 1 14 -4 14 -5 0 -17 6 -27 13 -16
12 -16 13 3 13 11 0 17 -4 15 -8z m-1600 -6 c3 -5 -1 -9 -9 -9 -8 0 -15 4 -15
9 0 10 17 10 24 0z m136 4 c0 -2 -7 -7 -16 -10 -8 -3 -12 -2 -9 4 6 10 25 14
25 6z m265 -6 c3 -6 -1 -7 -9 -4 -18 7 -21 14 -7 14 6 0 13 -4 16 -10z m535 2
c0 -5 -7 -9 -15 -9 -8 0 -12 4 -9 9 3 4 9 8 15 8 5 0 9 -4 9 -8z m399 -14 c-1
-18 -2 -19 -6 -5 -2 9 -9 14 -15 11 -7 -4 -8 -2 -4 4 12 20 26 13 25 -10z
m-285 -2 c-10 -8 -21 -12 -24 -10 -5 6 21 24 34 24 6 0 1 -6 -10 -14z m-1019
-6 c3 -5 1 -10 -4 -10 -6 0 -11 5 -11 10 0 6 2 10 4 10 3 0 8 -4 11 -10z m68
-4 c4 -10 0 -12 -14 -9 -10 3 -16 9 -13 14 8 13 21 11 27 -5z m137 4 c0 -5 -5
-10 -11 -10 -5 0 -7 5 -4 10 3 6 8 10 11 10 2 0 4 -4 4 -10z m200 0 c0 -5 -4
-10 -10 -10 -5 0 -10 5 -10 10 0 6 5 10 10 10 6 0 10 -4 10 -10z m60 0 c0 -5
-4 -10 -10 -10 -5 0 -10 5 -10 10 0 6 5 10 10 10 6 0 10 -4 10 -10z m195 0 c3
-5 1 -10 -4 -10 -6 0 -11 5 -11 10 0 6 2 10 4 10 3 0 8 -4 11 -10z m145 0 c0
-5 -4 -10 -10 -10 -5 0 -10 5 -10 10 0 6 5 10 10 10 6 0 10 -4 10 -10z m60 0
c0 -5 -4 -10 -10 -10 -5 0 -10 5 -10 10 0 6 5 10 10 10 6 0 10 -4 10 -10z
m195 0 c3 -5 1 -10 -4 -10 -6 0 -11 5 -11 10 0 6 2 10 4 10 3 0 8 -4 11 -10z
m157 -4 c16 -12 15 -13 -11 -12 -18 1 -27 5 -24 14 6 15 13 15 35 -2z m48 4
c0 -5 -5 -10 -11 -10 -5 0 -7 5 -4 10 3 6 8 10 11 10 2 0 4 -4 4 -10z m-1318
-37 c-10 -4 -8 -9 7 -20 12 -8 27 -11 34 -7 9 5 9 4 0 -6 -9 -10 -19 -8 -47
10 -37 22 -47 34 -22 24 8 -3 17 0 21 6 4 6 10 8 14 4 3 -4 0 -9 -7 -11z m163
6 c4 -6 14 -8 22 -5 8 3 11 1 8 -4 -8 -14 -18 -13 -41 5 -10 8 -14 15 -7 15 6
0 15 -5 18 -11z m241 -4 c-11 -8 -24 -15 -30 -15 -5 0 -1 7 10 15 10 8 24 14
29 14 6 0 1 -6 -9 -14z m159 4 c4 -6 13 -8 19 -6 7 3 13 -1 13 -8 0 -11 -6
-11 -29 1 -28 15 -36 24 -19 24 6 0 13 -5 16 -11z m255 7 c0 -3 -4 -8 -10 -11
-5 -3 -10 -1 -10 4 0 6 5 11 10 11 6 0 10 -2 10 -4z m140 -6 c0 -5 -2 -10 -4
-10 -3 0 -8 5 -11 10 -3 6 -1 10 4 10 6 0 11 -4 11 -10z m260 6 c0 -3 -4 -8
-10 -11 -5 -3 -10 -1 -10 4 0 6 5 11 10 11 6 0 10 -2 10 -4z m145 -7 c4 -6 14
-8 22 -5 8 3 11 1 8 -4 -8 -14 -18 -13 -41 5 -10 8 -14 15 -7 15 6 0 15 -5 18
-11z m-1570 -19 c3 -6 -1 -7 -9 -4 -18 7 -21 14 -7 14 6 0 13 -4 16 -10z
m1100 0 c3 -5 -3 -10 -15 -10 -12 0 -18 5 -15 10 3 6 10 10 15 10 5 0 12 -4
15 -10z m67 -12 c-27 -17 -36 -18 -45 -8 -9 10 -9 11 0 6 7 -4 23 0 35 8 12 9
27 16 33 16 5 0 -5 -10 -23 -22z m333 12 c3 -5 -1 -10 -10 -10 -9 0 -13 5 -10
10 3 6 8 10 10 10 2 0 7 -4 10 -10z m295 6 c0 -2 -7 -7 -16 -10 -8 -3 -12 -2
-9 4 6 10 25 14 25 6z m-1440 -21 c-7 -8 -17 -15 -23 -15 -6 0 -2 7 9 15 25
19 30 19 14 0z m286 -12 c-6 -6 -36 9 -36 18 0 5 9 4 20 -3 10 -7 18 -14 16
-15z m114 7 c-24 -15 -36 -11 -14 4 10 8 21 12 24 10 2 -3 -2 -9 -10 -14z
m286 -7 c-6 -6 -36 9 -36 18 0 5 9 4 20 -3 10 -7 18 -14 16 -15z m398 -2 c-2
-3 -12 3 -22 13 -16 17 -16 18 5 5 12 -7 20 -15 17 -18z m126 20 c0 -15 -32
-23 -44 -11 -8 8 -6 9 5 5 10 -4 20 -2 24 4 8 13 15 14 15 2z"/>
</g>
</svg>
