<?xml version="1.0" standalone="no"?>
<!DOCTYPE svg PUBLIC "-//W3C//DTD SVG 20010904//EN"
 "http://www.w3.org/TR/2001/REC-SVG-20010904/DTD/svg10.dtd">
<svg version="1.0" xmlns="http://www.w3.org/2000/svg"
 width="200.000000pt" height="200.000000pt" viewBox="0 0 200.000000 200.000000"
 preserveAspectRatio="xMidYMid meet">
<metadata>
Created by potrace 1.16, written by Peter Selinger 2001-2019
</metadata>
<g transform="translate(0.000000,200.000000) scale(0.100000,-0.100000)"
fill="#000000" stroke="none">
<path d="M2 1855 c-1 -81 3 -147 9 -150 6 -4 5 -13 -1 -24 -11 -22 -8 -210 5
-230 5 -10 4 -12 -4 -7 -13 9 -13 -407 1 -436 4 -9 4 -19 0 -22 -12 -7 -13
-648 -2 -666 6 -8 10 -10 10 -4 0 6 12 16 26 23 23 10 22 7 -9 -22 l-35 -33 1
-97 c0 -53 4 -97 9 -97 5 0 4 -9 -2 -19 -5 -11 -10 -31 -10 -45 l0 -26 137 1
c118 1 139 4 156 20 20 18 43 17 31 -2 -3 -5 -9 -7 -14 -4 -5 3 -11 1 -15 -5
-4 -6 282 -10 850 -9 l855 0 0 33 c0 17 -5 37 -12 44 -7 7 -8 12 -2 12 14 0
17 197 4 205 -6 4 -7 12 -1 24 13 23 12 209 0 216 -5 4 -9 11 -9 16 0 6 5 7
10 4 6 -4 10 32 10 100 l0 106 -22 -12 -23 -11 21 20 c19 18 22 32 22 123 l1
102 -32 31 c-29 27 -29 29 -5 13 15 -9 29 -13 31 -9 8 14 7 432 -1 432 -5 0
-9 7 -9 15 0 8 4 15 8 15 5 0 7 46 4 103 -4 123 -4 101 0 225 3 64 1 102 -6
102 -6 0 -6 7 1 19 5 11 10 31 10 44 0 23 -4 25 -50 25 -28 1 -50 -3 -50 -9 0
-5 5 -8 11 -7 6 2 14 -3 16 -9 7 -20 -14 -15 -29 6 -12 17 -26 20 -96 20 -45
0 -82 -3 -82 -7 0 -13 -39 -32 -45 -22 -4 6 4 14 17 19 15 5 -49 9 -173 10
-183 1 -197 0 -214 -19 -17 -19 -41 -18 -29 1 3 5 9 7 14 4 5 -3 11 -1 15 5 4
7 -125 10 -392 9 -381 -1 -398 -2 -411 -20 -13 -19 -38 -17 -26 2 3 5 10 7 15
4 5 -4 9 -2 9 4 0 6 -92 10 -249 10 l-249 0 0 -144z m87 114 c-16 -10 -23 -4
-14 10 3 6 11 8 17 5 6 -4 5 -9 -3 -15z m232 8 c-1 -12 -15 -9 -19 4 -3 6 1
10 8 8 6 -3 11 -8 11 -12z m404 2 c12 -19 -5 -23 -22 -6 -16 16 -16 17 -1 17
9 0 20 -5 23 -11z m171 -8 c-9 -8 -18 -12 -22 -9 -9 10 3 25 21 25 14 0 14 -2
1 -16z m232 0 c3 -8 -1 -12 -9 -9 -7 2 -15 10 -17 17 -3 8 1 12 9 9 7 -2 15
-10 17 -17z m396 -2 c-3 -5 -10 -7 -15 -3 -5 3 -7 10 -3 15 3 5 10 7 15 3 5
-3 7 -10 3 -15z m-927 -11 c-3 -8 -6 -5 -6 6 -1 11 2 17 5 13 3 -3 4 -12 1
-19z m163 -9 c0 -6 -4 -7 -10 -4 -5 3 -10 11 -10 16 0 6 5 7 10 4 6 -3 10 -11
10 -16z m-703 5 c-3 -3 -12 -4 -19 -1 -8 3 -5 6 6 6 11 1 17 -2 13 -5z m403 2
c0 -3 -4 -8 -10 -11 -5 -3 -10 -1 -10 4 0 6 5 11 10 11 6 0 10 -2 10 -4z
m1115 -6 c3 -5 1 -10 -4 -10 -6 0 -11 5 -11 10 0 6 2 10 4 10 3 0 8 -4 11 -10z
m75 0 c-8 -5 -19 -10 -25 -10 -5 0 -3 5 5 10 8 5 20 10 25 10 6 0 3 -5 -5 -10z
m157 -12 c-3 -8 -6 -5 -6 6 -1 11 2 17 5 13 3 -3 4 -12 1 -19z m-1427 2 c0 -5
7 -7 15 -4 10 4 15 0 15 -11 0 -10 -5 -15 -14 -12 -7 3 -20 0 -27 -6 -11 -10
-11 -9 -1 4 9 12 9 18 0 27 -9 9 -9 12 0 12 7 0 12 -4 12 -10z m230 -32 c0 -5
-4 -8 -10 -8 -5 0 -10 10 -10 23 0 18 2 19 10 7 5 -8 10 -18 10 -22z m200 16
c0 -10 -6 -14 -14 -11 -7 3 -20 0 -27 -6 -7 -7 -5 -2 5 11 22 26 36 28 36 6z
m403 -16 c-8 -15 -17 -28 -19 -28 -3 0 -2 5 1 10 12 19 -6 32 -23 18 -15 -11
-15 -11 -5 3 7 9 11 18 8 21 -3 2 8 4 23 4 28 0 28 0 15 -28z m399 17 c0 -5
-5 -11 -11 -13 -6 -2 -11 4 -11 13 0 9 5 15 11 13 6 -2 11 -8 11 -13z m-206
-22 c-10 -10 -19 5 -10 18 6 11 8 11 12 0 2 -7 1 -15 -2 -18z m-1196 7 c0 -5
-4 -10 -9 -10 -6 0 -13 5 -16 10 -3 6 1 10 9 10 9 0 16 -4 16 -10z m800 0 c0
-5 -4 -10 -10 -10 -5 0 -10 5 -10 10 0 6 5 10 10 10 6 0 10 -4 10 -10z m805 0
c-3 -5 -10 -10 -16 -10 -5 0 -9 5 -9 10 0 6 7 10 16 10 8 0 12 -4 9 -10z
m-691 -25 c3 -8 1 -15 -4 -15 -6 0 -10 7 -10 15 0 8 2 15 4 15 2 0 6 -7 10
-15z m-1039 -5 c3 -5 1 -10 -4 -10 -6 0 -11 5 -11 10 0 6 2 10 4 10 3 0 8 -4
11 -10z m112 -12 c-3 -8 -6 -5 -6 6 -1 11 2 17 5 13 3 -3 4 -12 1 -19z m123
12 c0 -5 -5 -10 -11 -10 -5 0 -7 5 -4 10 3 6 8 10 11 10 2 0 4 -4 4 -10z m165
0 c3 -5 1 -10 -4 -10 -6 0 -11 5 -11 10 0 6 2 10 4 10 3 0 8 -4 11 -10z m240
0 c3 -5 1 -10 -4 -10 -6 0 -11 5 -11 10 0 6 2 10 4 10 3 0 8 -4 11 -10z m165
1 c0 -5 -7 -11 -14 -14 -10 -4 -13 -1 -9 9 6 15 23 19 23 5z m400 0 c0 -5 -7
-12 -16 -15 -14 -5 -15 -4 -4 9 14 17 20 19 20 6z m640 -1 c0 -5 -5 -10 -11
-10 -5 0 -7 5 -4 10 3 6 8 10 11 10 2 0 4 -4 4 -10z m-1645 -20 c3 -5 1 -10
-4 -10 -6 0 -11 5 -11 10 0 6 2 10 4 10 3 0 8 -4 11 -10z m410 0 c-3 -5 -12
-10 -18 -10 -7 0 -6 4 3 10 19 12 23 12 15 0z m805 4 c0 -8 -19 -13 -24 -6 -3
5 1 9 9 9 8 0 15 -2 15 -3z m-894 -62 c-4 -3 -14 2 -24 13 -9 10 -11 15 -4 11
8 -5 12 0 13 16 1 21 1 21 11 -5 5 -16 7 -31 4 -35z m-196 22 c0 -8 -4 -12
-10 -9 -5 3 -10 10 -10 16 0 5 5 9 10 9 6 0 10 -7 10 -16z m400 0 c0 -8 -4
-12 -10 -9 -5 3 -10 10 -10 16 0 5 5 9 10 9 6 0 10 -7 10 -16z m211 1 c8 4 6
-1 -3 -11 -18 -18 -18 -18 -35 0 -10 10 -12 16 -5 12 7 -4 12 -2 12 6 0 10 2
10 9 -1 5 -8 14 -10 22 -6z m189 -1 c0 -8 -4 -12 -10 -9 -5 3 -10 10 -10 16 0
5 5 9 10 9 6 0 10 -7 10 -16z m405 6 c-3 -5 -10 -10 -16 -10 -5 0 -9 5 -9 10
0 6 7 10 16 10 8 0 12 -4 9 -10z m207 -4 c7 4 8 2 4 -4 -4 -7 -16 -17 -26 -22
-19 -10 -19 -9 -8 16 7 14 14 21 16 15 2 -6 9 -8 14 -5z m-1612 -15 c0 -6 -4
-13 -10 -16 -5 -3 -10 0 -10 7 0 9 -3 9 -10 -2 -5 -8 -10 -10 -10 -4 0 6 3 14
7 17 10 10 33 8 33 -2z m1205 -1 c-3 -5 -10 -10 -16 -10 -5 0 -9 5 -9 10 0 6
7 10 16 10 8 0 12 -4 9 -10z m-1155 -36 c0 -2 -9 0 -20 6 -11 6 -20 13 -20 16
0 2 9 0 20 -6 11 -6 20 -13 20 -16z m137 4 c-3 -8 -6 -5 -6 6 -1 11 2 17 5 13
3 -3 4 -12 1 -19z m183 18 c0 -3 -4 -8 -10 -11 -5 -3 -10 -1 -10 4 0 6 5 11
10 11 6 0 10 -2 10 -4z m860 -6 c0 -5 -2 -10 -4 -10 -3 0 -8 5 -11 10 -3 6 -1
10 4 10 6 0 11 -4 11 -10z m424 -5 c37 -15 48 -35 21 -35 -8 0 -15 4 -15 10 0
5 -12 16 -27 24 -36 20 -25 20 21 1z m-1726 -9 c-10 -7 -15 -16 -11 -19 3 -4
-1 -7 -10 -7 -25 0 -21 19 6 30 31 12 35 11 15 -4z m800 -6 c-7 -11 -19 -18
-25 -15 -7 2 -13 0 -13 -5 0 -6 -8 -10 -17 -10 -14 0 -12 4 7 17 14 10 28 18
32 18 3 0 10 3 14 8 14 13 14 7 2 -13z m-408 -6 c0 -10 -6 -14 -15 -10 -8 3
-15 0 -15 -6 0 -6 -3 -8 -6 -5 -8 8 14 37 27 37 5 0 9 -7 9 -16z m570 1 c-14
-17 -30 -20 -30 -6 0 5 8 12 18 14 9 3 19 5 21 6 2 0 -2 -6 -9 -14z m233 -2
c-3 -7 -9 -13 -13 -13 -4 0 -12 6 -18 13 -9 10 -6 13 12 13 16 0 22 -5 19 -13z
m400 1 c-6 -17 -17 -18 -31 -1 -8 9 -4 12 13 13 16 1 22 -2 18 -12z m-1438 -4
c-3 -5 -10 -10 -16 -10 -5 0 -9 5 -9 10 0 6 7 10 16 10 8 0 12 -4 9 -10z m400
0 c-3 -5 -10 -10 -16 -10 -5 0 -9 5 -9 10 0 6 7 10 16 10 8 0 12 -4 9 -10z
m805 0 c0 -5 -7 -10 -16 -10 -8 0 -12 5 -9 10 3 6 10 10 16 10 5 0 9 -4 9 -10z
m-760 -31 c0 -6 -4 -7 -10 -4 -5 3 -10 11 -10 16 0 6 5 7 10 4 6 -3 10 -11 10
-16z m385 11 c3 -6 -1 -7 -9 -4 -18 7 -21 14 -7 14 6 0 13 -4 16 -10z m-303
-29 c3 8 8 12 11 9 3 -3 -3 -15 -12 -27 -24 -28 -45 -15 -35 22 l7 28 12 -23
c9 -17 14 -19 17 -9z m-362 15 c0 -2 -7 -7 -16 -10 -8 -3 -12 -2 -9 4 6 10 25
14 25 6z m754 -27 c5 -4 -8 -15 -29 -23 -42 -18 -60 -15 -25 4 21 11 21 12 4
32 -18 19 -18 20 11 7 17 -7 34 -16 39 -20z m419 -22 c8 -6 6 -7 -5 -3 -10 3
-18 0 -18 -6 0 -7 -7 -3 -15 8 -8 10 -15 14 -15 8 0 -7 -8 -15 -17 -18 -15 -6
-16 -5 -1 11 8 10 13 25 11 33 -4 13 -3 13 6 0 8 -12 11 -12 17 4 7 18 8 17
16 -5 5 -13 14 -27 21 -32z m-1212 16 c8 -10 9 -14 2 -10 -7 4 -16 0 -22 -10
-6 -10 -11 -12 -11 -6 0 9 -7 10 -26 3 -16 -7 -23 -7 -19 0 3 6 13 10 21 10 8
0 14 7 14 15 0 20 24 19 41 -2z m-371 -23 c8 -5 12 -11 9 -14 -3 -3 -14 1 -25
9 -21 16 -8 20 16 5z m405 0 c3 -5 1 -10 -4 -10 -6 0 -11 5 -11 10 0 6 2 10 4
10 3 0 8 -4 11 -10z m305 0 c0 -5 -5 -10 -11 -10 -5 0 -7 5 -4 10 3 6 8 10 11
10 2 0 4 -4 4 -10z m487 4 c-3 -3 -12 -4 -19 -1 -8 3 -5 6 6 6 11 1 17 -2 13
-5z m563 2 c0 -2 -7 -7 -16 -10 -8 -3 -12 -2 -9 4 6 10 25 14 25 6z m-1498
-39 c-7 -8 -9 -16 -6 -20 3 -3 -3 -3 -15 0 -12 3 -21 10 -21 15 0 6 6 8 14 5
8 -3 17 1 20 10 4 9 9 13 13 10 3 -4 1 -13 -5 -20z m188 3 c0 -5 6 -7 14 -4
11 4 13 0 9 -16 -3 -11 -6 -19 -7 -18 -1 2 -10 13 -20 26 -11 12 -14 22 -8 22
7 0 12 -4 12 -10z m210 -5 c-15 -17 -40 -20 -40 -4 0 6 7 9 15 5 8 -3 15 -1
15 4 0 6 5 10 11 10 8 0 8 -5 -1 -15z m606 2 c8 3 14 -1 14 -11 0 -22 -14 -20
-36 7 -10 12 -12 17 -5 10 7 -6 20 -9 27 -6z m404 3 c4 0 10 -7 13 -14 7 -18
-20 -10 -43 13 -13 13 -13 14 3 8 10 -4 22 -7 27 -7z m200 3 c-8 -3 -18 -11
-22 -17 -4 -6 -10 -7 -15 -3 -9 10 16 27 37 26 13 -1 13 -1 0 -6z m-1800 -19
c0 -8 -4 -12 -10 -9 -5 3 -10 10 -10 16 0 5 5 9 10 9 6 0 10 -7 10 -16z m808
4 c-2 -6 -11 -12 -20 -14 -11 -1 -15 3 -11 12 6 17 36 19 31 2z m166 4 c2 -4
-7 -12 -20 -19 -27 -12 -30 -9 -11 12 14 16 24 18 31 7z m409 -5 c3 -8 -3 -14
-14 -14 -11 -1 -19 5 -19 13 0 18 26 19 33 1z m-1333 -33 c0 -2 -9 0 -20 6
-11 6 -20 13 -20 16 0 2 9 0 20 -6 11 -6 20 -13 20 -16z m480 12 c0 -2 -7 -7
-16 -10 -8 -3 -12 -2 -9 4 6 10 25 14 25 6z m795 -6 c-3 -5 -12 -10 -18 -10
-7 0 -6 4 3 10 19 12 23 12 15 0z m387 1 c11 6 22 8 25 6 2 -3 -5 -8 -17 -12
-13 -4 -19 -12 -16 -21 3 -9 1 -12 -4 -9 -6 3 -10 0 -10 -7 -1 -8 -4 -7 -10 4
-6 9 -7 24 -3 34 4 11 8 13 11 6 3 -9 9 -9 24 -1z m-1608 -16 c-22 -16 -44
-19 -44 -6 0 9 21 18 49 20 10 1 9 -4 -5 -14z m356 5 c0 -5 6 -7 14 -4 11 4
13 -3 9 -38 -7 -55 -13 -62 -13 -14 0 27 -3 35 -12 30 -7 -4 -10 -4 -6 1 4 4
3 14 -3 22 -9 9 -8 13 0 13 6 0 11 -4 11 -10z m823 -2 c11 -9 14 -18 8 -27 -7
-11 -10 -9 -15 7 -4 11 -15 23 -24 25 -14 4 -14 5 -1 6 8 0 23 -5 32 -11z
m-593 -30 c0 -5 -6 -8 -14 -8 -9 0 -12 7 -9 21 4 16 8 17 14 7 5 -7 9 -16 9
-20z m200 22 c0 -5 -7 -10 -16 -10 -8 0 -12 5 -9 10 3 6 10 10 16 10 5 0 9 -4
9 -10z m-600 -21 c0 -5 -4 -9 -10 -9 -5 0 -10 7 -10 16 0 8 5 12 10 9 6 -3 10
-10 10 -16z m800 1 c0 -5 -4 -10 -10 -10 -5 0 -10 5 -10 10 0 6 5 10 10 10 6
0 10 -4 10 -10z m400 -27 c0 -43 -5 -41 -13 5 -4 18 -2 32 3 32 6 0 10 -16 10
-37z m-1320 3 c0 -3 -4 -8 -10 -11 -5 -3 -10 -1 -10 4 0 6 5 11 10 11 6 0 10
-2 10 -4z m413 -10 c25 -19 21 -26 -8 -13 -14 7 -25 15 -25 20 0 11 13 8 33
-7z m227 10 c0 -2 -7 -7 -16 -10 -8 -3 -12 -2 -9 4 6 10 25 14 25 6z m400 0
c0 -2 -7 -7 -16 -10 -8 -3 -12 -2 -9 4 6 10 25 14 25 6z m165 -6 c3 -6 -1 -7
-9 -4 -18 7 -21 14 -7 14 6 0 13 -4 16 -10z m214 -9 c-13 -11 -26 -17 -28 -15
-5 5 30 33 43 34 4 0 -2 -9 -15 -19z m-175 -6 c-4 -8 -11 -12 -16 -9 -6 4 -5
10 3 15 19 12 19 11 13 -6z m-1444 1 c0 -3 -4 -8 -10 -11 -5 -3 -10 -1 -10 4
0 6 5 11 10 11 6 0 10 -2 10 -4z m230 -6 c0 -5 -2 -10 -4 -10 -3 0 -8 5 -11
10 -3 6 -1 10 4 10 6 0 11 -4 11 -10z m170 6 c0 -3 -4 -8 -10 -11 -5 -3 -10
-1 -10 4 0 6 5 11 10 11 6 0 10 -2 10 -4z m400 -6 c0 -5 -2 -10 -4 -10 -3 0
-8 5 -11 10 -3 6 -1 10 4 10 6 0 11 -4 11 -10z m240 0 c0 -5 -4 -10 -10 -10
-5 0 -10 5 -10 10 0 6 5 10 10 10 6 0 10 -4 10 -10z m800 0 c0 -5 -2 -10 -4
-10 -3 0 -8 5 -11 10 -3 6 -1 10 4 10 6 0 11 -4 11 -10z m-1720 -32 c0 -5 -6
-8 -14 -8 -9 0 -12 7 -9 21 4 16 8 17 14 7 5 -7 9 -16 9 -20z m800 6 c0 -8 -4
-14 -10 -14 -5 0 -10 9 -10 21 0 11 5 17 10 14 6 -3 10 -13 10 -21z m-400 -4
c0 -5 -4 -10 -10 -10 -5 0 -10 5 -10 10 0 6 5 10 10 10 6 0 10 -4 10 -10z
m800 -12 c0 -19 -2 -20 -10 -8 -13 19 -13 30 0 30 6 0 10 -10 10 -22z m400 12
c0 -5 -4 -10 -10 -10 -5 0 -10 5 -10 10 0 6 5 10 10 10 6 0 10 -4 10 -10z
m-1402 -18 c2 -7 -1 -12 -6 -12 -6 0 -19 -3 -29 -6 -14 -4 -15 -4 -4 4 7 5 11
14 7 20 -3 6 1 9 11 8 9 -2 19 -8 21 -14z m402 2 c0 -9 -6 -14 -12 -11 -7 2
-22 -3 -33 -12 -20 -16 -20 -16 -2 5 9 11 15 23 12 25 -2 3 5 5 15 6 12 1 20
-5 20 -13z m402 1 c0 -5 -5 -11 -11 -13 -6 -2 -11 4 -11 13 0 9 5 15 11 13 6
-2 11 -8 11 -13z m404 -4 c-9 -8 -18 -12 -22 -9 -9 10 3 25 21 25 14 0 14 -2
1 -16z m39 -21 c8 -13 -5 -13 -25 0 -13 8 -13 10 2 10 9 0 20 -4 23 -10z m-95
-4 c0 -3 -4 -8 -10 -11 -5 -3 -10 -1 -10 4 0 6 5 11 10 11 6 0 10 -2 10 -4z
m-1445 -32 c21 -18 24 -24 10 -19 -11 4 -28 10 -37 12 -10 3 -18 12 -18 19 0
20 11 17 45 -12z m206 3 c-13 -13 -26 -3 -16 12 3 6 11 8 17 5 6 -4 6 -10 -1
-17z m188 -10 c0 -9 -2 -9 -5 0 -3 7 -12 9 -20 6 -9 -3 -14 1 -14 11 0 14 4
15 20 6 11 -6 20 -16 19 -23z m88 1 c-3 -7 -5 -2 -5 12 0 14 2 19 5 13 2 -7 2
-19 0 -25z m128 16 c0 -5 -7 -10 -16 -12 -9 -1 -16 4 -16 11 0 8 7 14 16 12 9
-1 16 -6 16 -11z m175 -5 c0 -5 -7 -9 -15 -9 -15 0 -20 12 -9 23 8 8 24 -1 24
-14z m226 2 c-9 -8 -18 -12 -22 -9 -9 10 3 25 21 25 14 0 14 -2 1 -16z m170
-9 c-22 -5 -30 3 -21 18 5 8 11 7 22 -2 15 -12 14 -13 -1 -16z m431 -9 c-9 -8
-58 17 -52 27 4 6 16 4 31 -6 13 -9 23 -18 21 -21z m-202 16 c-4 -6 -10 -8
-13 -5 -3 3 -14 -1 -24 -11 -10 -9 -18 -13 -18 -8 0 11 32 34 48 35 7 0 10 -5
7 -11z m282 -21 c-3 -7 -5 -2 -5 12 0 14 2 19 5 13 2 -7 2 -19 0 -25z m123 22
c0 -5 -9 -10 -21 -10 -11 0 -17 5 -14 10 3 6 13 10 21 10 8 0 14 -4 14 -10z
m-1395 -20 c3 -5 1 -10 -4 -10 -6 0 -11 5 -11 10 0 6 2 10 4 10 3 0 8 -4 11
-10z m400 0 c3 -6 -1 -7 -9 -4 -18 7 -21 14 -7 14 6 0 13 -4 16 -10z m429 -19
c4 -5 -5 -4 -19 2 -14 7 -25 16 -25 20 0 9 36 -9 44 -22z m-1153 -25 c0 -3 -5
-14 -10 -24 -7 -11 -10 -13 -11 -3 0 7 -6 11 -15 7 -8 -3 -15 -1 -15 3 0 5 6
11 13 14 8 3 6 10 -8 21 -19 15 -18 15 13 3 18 -8 33 -17 33 -21z m29 24 c0
-5 -5 -10 -11 -10 -5 0 -7 5 -4 10 3 6 8 10 11 10 2 0 4 -4 4 -10z m420 6 c0
-2 -7 -7 -16 -10 -8 -3 -12 -2 -9 4 6 10 25 14 25 6z m545 -14 c-3 -3 -11 0
-18 7 -9 10 -8 11 6 5 10 -3 15 -9 12 -12z m222 -22 c4 0 19 -10 33 -21 l25
-21 -37 21 c-22 11 -38 16 -38 9 0 -7 -5 -6 -15 2 -11 9 -12 16 -2 31 11 18
12 18 19 -1 4 -11 11 -20 15 -20z m411 26 c-10 -7 -18 -18 -18 -24 0 -7 -11
-11 -24 -10 -32 3 -23 22 17 35 44 14 44 14 25 -1z m-1231 -37 c-7 -12 -14
-14 -18 -7 -4 6 -13 7 -20 2 -12 -6 -12 -5 0 9 7 9 10 17 5 18 -5 0 0 4 11 8
25 10 37 -6 22 -30z m412 20 c2 -6 17 -19 35 -30 17 -10 26 -19 20 -19 -6 0
-22 8 -35 19 -13 10 -29 16 -36 14 -6 -2 -16 5 -22 16 -10 17 -8 19 11 16 13
-3 25 -10 27 -16z m-86 -44 c-3 -9 -8 -14 -10 -11 -3 3 -2 9 2 15 9 16 15 13
8 -4z m-619 -11 c9 -3 13 -10 10 -15 -8 -14 -21 -11 -28 6 -6 17 -4 18 18 9z
m194 -7 c-16 -16 -61 -29 -52 -15 6 9 41 26 57 27 5 1 2 -5 -5 -12z m616 -8
c-8 -13 -21 -11 -27 5 -4 10 0 12 14 9 10 -3 16 -9 13 -14z m184 4 c-9 -8 -21
-12 -27 -8 -16 9 -6 20 20 22 20 2 21 1 7 -14z m400 1 c-9 -10 -21 -13 -29 -8
-9 5 -8 9 7 15 31 12 39 10 22 -7z m222 -5 c0 -5 -7 -9 -15 -9 -9 0 -12 6 -9
15 6 15 24 11 24 -6z m-1840 2 c0 -5 -7 -12 -16 -15 -24 -9 -28 -7 -14 9 14
17 30 20 30 6z m635 -1 c-3 -5 -10 -10 -16 -10 -5 0 -9 5 -9 10 0 6 7 10 16
10 8 0 12 -4 9 -10z m170 0 c3 -5 -1 -10 -9 -10 -9 0 -16 5 -16 10 0 6 4 10 9
10 6 0 13 -4 16 -10z m635 0 c0 -5 -7 -10 -16 -10 -8 0 -12 5 -9 10 3 6 10 10
16 10 5 0 9 -4 9 -10z m-1175 -20 c3 -6 -1 -7 -9 -4 -18 7 -21 14 -7 14 6 0
13 -4 16 -10z m425 -16 c0 -2 -9 0 -20 6 -11 6 -20 13 -20 16 0 2 9 0 20 -6
11 -6 20 -13 20 -16z m800 0 c0 -2 -9 0 -20 6 -11 6 -20 13 -20 16 0 2 9 0 20
-6 11 -6 20 -13 20 -16z m-740 6 c0 -5 -7 -10 -15 -10 -8 0 -15 -4 -15 -10 0
-5 -7 -10 -15 -10 -9 0 -12 6 -9 15 4 8 9 13 13 11 4 -3 13 -1 21 5 19 11 20
11 20 -1z m330 0 c0 -5 -2 -10 -4 -10 -3 0 -8 5 -11 10 -3 6 -1 10 4 10 6 0
11 -4 11 -10z m58 -4 c-10 -7 -15 -15 -12 -18 2 -3 -7 -8 -21 -10 -20 -4 -23
-3 -14 8 6 8 8 15 3 15 -5 1 5 5 21 9 42 11 42 11 23 -4z m412 4 c0 -5 -5 -10
-11 -10 -5 0 -7 5 -4 10 3 6 8 10 11 10 2 0 4 -4 4 -10z m-1225 -16 c-8 -9
-15 -21 -15 -27 0 -7 -5 -4 -11 6 -13 22 -6 32 20 34 19 2 20 0 6 -13z m185
-38 c-7 -7 -10 1 -9 25 0 32 1 33 10 10 6 -16 6 -28 -1 -35z m1012 42 c3 -7 1
-24 -3 -38 -4 -14 -8 -18 -8 -10 -1 8 -4 25 -7 38 -7 23 10 32 18 10z m-1402
-30 c0 -5 -6 -8 -14 -8 -9 0 -12 7 -9 21 4 16 8 17 14 7 5 -7 9 -16 9 -20z
m1598 4 c6 -18 -15 -14 -22 4 -4 10 -1 14 6 12 6 -2 14 -10 16 -16z m-798 1
c0 -5 -4 -14 -9 -21 -7 -11 -9 -11 -14 1 -3 8 -3 18 0 21 9 8 23 7 23 -1z
m400 -3 c0 -5 -4 -10 -10 -10 -5 0 -10 5 -10 10 0 6 5 10 10 10 6 0 10 -4 10
-10z m-270 -15 c0 -2 -10 -9 -22 -15 -22 -11 -22 -10 -4 4 21 17 26 19 26 11z
m145 -13 c-3 -3 -11 0 -18 7 -9 10 -8 11 6 5 10 -3 15 -9 12 -12z m250 8 c-3
-5 -12 -10 -18 -10 -7 0 -6 4 3 10 19 12 23 12 15 0z m-1040 -10 c3 -6 -1 -7
-9 -4 -18 7 -21 14 -7 14 6 0 13 -4 16 -10z m400 0 c3 -6 -1 -7 -9 -4 -18 7
-21 14 -7 14 6 0 13 -4 16 -10z m912 -12 c-3 -8 -6 -5 -6 6 -1 11 2 17 5 13 3
-3 4 -12 1 -19z m123 18 c0 -2 -7 -7 -16 -10 -8 -3 -12 -2 -9 4 6 10 25 14 25
6z m-1733 -38 c-3 -7 -5 -2 -5 12 0 14 2 19 5 13 2 -7 2 -19 0 -25z m1140 18
c0 -8 -6 -12 -15 -9 -11 5 -11 7 0 14 7 5 13 9 14 9 0 0 1 -6 1 -14z m398 4
c-3 -5 -12 -10 -18 -10 -7 0 -6 4 3 10 19 12 23 12 15 0z m-1445 -4 c0 -2 -7
-7 -16 -10 -8 -3 -12 -2 -9 4 6 10 25 14 25 6z m400 0 c0 -2 -7 -7 -16 -10 -8
-3 -12 -2 -9 4 6 10 25 14 25 6z m240 0 c0 -3 -4 -8 -10 -11 -5 -3 -10 -1 -10
4 0 6 5 11 10 11 6 0 10 -2 10 -4z m160 0 c0 -2 -7 -7 -16 -10 -8 -3 -12 -2
-9 4 6 10 25 14 25 6z m-680 -36 c0 -5 -4 -10 -10 -10 -5 0 -10 5 -10 10 0 6
5 10 10 10 6 0 10 -4 10 -10z m400 0 c0 -5 -4 -10 -10 -10 -5 0 -10 5 -10 10
0 6 5 10 10 10 6 0 10 -4 10 -10z m207 -15 c0 -17 -23 -20 -32 -5 -3 6 -4 14
0 20 8 13 32 2 32 -15z m192 -2 c0 -25 -1 -26 -9 -8 -12 27 -12 35 0 35 6 0
10 -12 9 -27z m406 17 c3 -5 -1 -10 -9 -10 -9 0 -16 5 -16 10 0 6 4 10 9 10 6
0 13 -4 16 -10z m-1405 -15 c0 -8 -7 -15 -15 -15 -8 0 -15 7 -15 15 0 8 7 15
15 15 8 0 15 -7 15 -15z m404 1 c-3 -8 -16 -16 -29 -18 -20 -4 -22 -3 -12 14
14 21 49 25 41 4z m816 -6 c11 -11 16 -20 11 -20 -6 0 -12 4 -16 10 -3 5 -12
7 -20 3 -9 -3 -15 1 -15 11 0 22 16 20 40 -4z m393 7 c3 -8 -3 -14 -14 -14
-11 -1 -19 5 -19 13 0 18 26 19 33 1z m-1583 -22 c11 -13 10 -14 -4 -9 -9 3
-16 10 -16 15 0 13 6 11 20 -6z m1530 -5 c-24 -15 -37 -11 -16 5 11 8 22 12
25 9 3 -3 -1 -9 -9 -14z m-1615 0 c-3 -5 -12 -10 -18 -10 -7 0 -6 4 3 10 19
12 23 12 15 0z m378 -13 c7 4 6 -1 -2 -11 -17 -21 -35 -7 -24 20 7 17 8 17 11
1 2 -10 8 -14 15 -10z m-136 -9 c-3 -8 -6 -5 -6 6 -1 11 2 17 5 13 3 -3 4 -12
1 -19z m-272 -9 c-8 -12 -35 -12 -35 0 0 11 22 20 33 14 4 -2 5 -9 2 -14z
m169 6 c-4 -8 -10 -12 -15 -9 -14 8 -10 24 6 24 9 0 12 -6 9 -15z m409 1 c7
-17 -18 -15 -35 2 -9 9 -7 12 9 12 11 0 23 -6 26 -14z m230 0 c4 -10 0 -12
-14 -9 -22 6 -26 23 -5 23 8 0 16 -6 19 -14z m167 -6 c0 -5 -9 -8 -19 -7 -15
1 -17 4 -9 14 11 13 28 9 28 -7z m221 6 c-1 -3 -4 -6 -8 -7 -5 0 -14 -5 -20
-11 -7 -6 -13 -7 -13 -3 0 4 8 14 17 21 17 12 26 12 24 0z m179 -1 c0 -8 -4
-15 -9 -15 -5 0 -14 7 -21 15 -10 13 -9 15 9 15 12 0 21 -6 21 -15z m228 4
c-2 -6 -8 -10 -13 -10 -5 0 -11 4 -13 10 -2 6 4 11 13 11 9 0 15 -5 13 -11z
m172 -4 c0 -8 -4 -15 -9 -15 -5 0 -14 7 -21 15 -10 13 -9 15 9 15 12 0 21 -6
21 -15z m-1825 -25 c-3 -5 -12 -10 -18 -10 -7 0 -6 4 3 10 19 12 23 12 15 0z
m345 -52 c0 -5 -15 -8 -32 -8 -18 0 -28 4 -22 8 6 4 15 18 19 31 l7 24 14 -24
c7 -13 13 -27 14 -31z m-210 38 c0 -3 -4 -8 -10 -11 -5 -3 -10 -1 -10 4 0 6 5
11 10 11 6 0 10 -2 10 -4z m400 0 c0 -3 -4 -8 -10 -11 -5 -3 -10 -1 -10 4 0 6
5 11 10 11 6 0 10 -2 10 -4z m165 -14 c-3 -3 -11 0 -18 7 -9 10 -8 11 6 5 10
-3 15 -9 12 -12z m50 -6 c-9 -14 -24 -24 -33 -24 -9 0 -26 -2 -37 -6 -11 -4
-8 0 8 9 15 8 27 20 27 26 0 6 7 9 15 6 8 -4 17 -2 20 3 4 6 8 10 11 10 2 0
-3 -11 -11 -24z m405 9 c-6 -8 -10 -18 -7 -22 3 -4 -1 -14 -9 -21 -8 -7 -14
-9 -14 -4 0 4 -9 18 -20 30 l-20 22 30 -4 c17 -2 33 0 36 5 3 5 8 9 11 9 3 0
0 -7 -7 -15z m180 5 c0 -5 -2 -10 -4 -10 -3 0 -8 5 -11 10 -3 6 -1 10 4 10 6
0 11 -4 11 -10z m223 -8 c-7 -4 -16 -18 -20 -30 -8 -22 -9 -22 -26 7 l-17 29
25 -3 c14 -1 28 2 31 7 3 5 9 7 12 3 4 -3 1 -9 -5 -13z m177 8 c0 -5 -2 -10
-4 -10 -3 0 -8 5 -11 10 -3 6 -1 10 4 10 6 0 11 -4 11 -10z m-1605 -40 c3 -5
1 -10 -4 -10 -6 0 -11 5 -11 10 0 6 2 10 4 10 3 0 8 -4 11 -10z m400 0 c3 -5
1 -10 -4 -10 -6 0 -11 5 -11 10 0 6 2 10 4 10 3 0 8 -4 11 -10z m805 0 c0 -5
-5 -10 -11 -10 -5 0 -7 5 -4 10 3 6 8 10 11 10 2 0 4 -4 4 -10z m400 0 c0 -5
-5 -10 -11 -10 -5 0 -7 5 -4 10 3 6 8 10 11 10 2 0 4 -4 4 -10z m170 5 c0 -2
-10 -9 -22 -15 -22 -11 -22 -10 -4 4 21 17 26 19 26 11z m-1507 -22 c18 -9 35
-17 39 -18 13 0 19 -13 10 -19 -5 -3 -15 1 -22 9 -7 8 -18 15 -24 15 -12 1
-54 30 -42 30 4 0 21 -8 39 -17z m1082 7 c-3 -5 -12 -10 -18 -10 -7 0 -6 4 3
10 19 12 23 12 15 0z m-1247 -30 c-14 -22 -42 -28 -35 -7 2 6 9 12 15 12 5 0
14 3 18 8 13 13 14 7 2 -13z m398 -5 c-16 -16 -41 -12 -30 6 3 5 9 7 14 4 5
-3 12 0 15 6 4 5 9 8 12 5 3 -3 -2 -12 -11 -21z m228 12 c3 4 6 4 6 1 0 -3 -6
-11 -13 -17 -11 -8 -18 -6 -33 10 -18 20 -18 20 8 10 14 -5 29 -7 32 -4z m389
-2 c21 4 21 1 4 -14 -11 -8 -18 -6 -33 11 -10 13 -12 18 -4 12 8 -6 23 -10 33
-9z m183 -11 c-9 -9 -20 -14 -23 -10 -4 3 -15 -1 -25 -11 -10 -9 -18 -12 -18
-7 0 9 39 38 52 39 3 0 10 3 14 8 4 4 9 5 12 2 2 -2 -3 -12 -12 -21z m-1384 1
c0 -5 -5 -11 -11 -13 -6 -2 -11 4 -11 13 0 9 5 15 11 13 6 -2 11 -8 11 -13z
m975 -11 c-9 -9 -28 6 -21 18 4 6 10 6 17 -1 6 -6 8 -13 4 -17z m633 11 c10
-12 10 -15 -4 -15 -9 0 -16 7 -16 15 0 8 2 15 4 15 2 0 9 -7 16 -15z m170 0
c0 -8 -4 -15 -9 -15 -13 0 -22 16 -14 24 11 11 23 6 23 -9z m-293 -37 c-3 -7
-5 -2 -5 12 0 14 2 19 5 13 2 -7 2 -19 0 -25z m-561 7 c-11 -8 -24 -15 -29
-15 -4 0 -5 -4 -2 -10 3 -5 -3 -10 -15 -10 -32 0 -19 21 20 35 47 17 48 17 26
0z m314 5 c0 -5 -7 -7 -15 -4 -8 4 -15 8 -15 10 0 2 7 4 15 4 8 0 15 -4 15
-10z m500 6 c0 -3 -4 -8 -10 -11 -5 -3 -10 -1 -10 4 0 6 5 11 10 11 6 0 10 -2
10 -4z m-75 -16 c3 -5 12 -7 20 -3 9 3 15 -1 15 -11 0 -22 -16 -20 -42 4 -12
11 -17 20 -10 20 6 0 13 -4 17 -10z m-1568 -15 c-19 -18 -33 -19 -40 -2 -3 9
5 14 25 15 27 2 28 1 15 -13z m393 0 c0 -8 -7 -15 -15 -15 -8 0 -15 7 -15 15
0 8 7 15 15 15 8 0 15 -7 15 -15z m808 -3 c2 -7 -5 -12 -17 -12 -14 0 -19 5
-14 15 6 17 25 15 31 -3z m-1008 -18 c0 -8 -4 -12 -10 -9 -5 3 -10 13 -10 21
0 8 5 12 10 9 6 -3 10 -13 10 -21z m400 5 c0 -5 -4 -9 -10 -9 -5 0 -10 7 -10
16 0 8 5 12 10 9 6 -3 10 -10 10 -16z m403 -9 c-3 -12 -6 -19 -7 -18 -1 2 -8
11 -15 21 -12 15 -11 17 7 17 15 0 19 -5 15 -20z m397 8 c0 -4 -4 -8 -9 -8 -6
0 -12 4 -15 8 -3 5 1 9 9 9 8 0 15 -4 15 -9z m-1413 -30 c-3 -8 -6 -5 -6 6 -1
11 2 17 5 13 3 -3 4 -12 1 -19z m320 0 c-3 -8 -6 -5 -6 6 -1 11 2 17 5 13 3
-3 4 -12 1 -19z m-233 3 c3 -5 0 -11 -7 -14 -8 -3 -14 1 -14 9 0 16 13 19 21
5z m1323 -13 c-3 -8 -6 -5 -6 6 -1 11 2 17 5 13 3 -3 4 -12 1 -19z m-1487 8
c0 -2 -7 -7 -16 -10 -8 -3 -12 -2 -9 4 6 10 25 14 25 6z m570 0 c0 -2 -7 -7
-16 -10 -8 -3 -12 -2 -9 4 6 10 25 14 25 6z m112 -21 c3 -13 1 -22 -3 -19 -9
5 -13 44 -5 44 2 0 6 -11 8 -25z m-307 5 c-3 -5 -12 -10 -18 -10 -7 0 -6 4 3
10 19 12 23 12 15 0z m400 0 c-3 -5 -12 -10 -18 -10 -7 0 -6 4 3 10 19 12 23
12 15 0z m1030 -8 c-3 -3 -11 0 -18 7 -9 10 -8 11 6 5 10 -3 15 -9 12 -12z
m-1502 -54 c7 -5 1 -7 -13 -4 -14 1 -35 -4 -47 -12 -15 -9 -23 -10 -23 -3 0 6
7 11 16 11 9 0 21 14 27 30 11 29 12 30 20 8 4 -12 13 -26 20 -30z m988 28
c-6 -7 -9 -16 -6 -20 3 -3 0 -2 -6 3 -14 12 -3 45 11 36 8 -5 8 -11 1 -19z
m-1201 5 c0 -5 -9 -11 -21 -14 -16 -4 -18 -3 -8 9 13 16 29 19 29 5z m400 -3
c0 -7 -5 -20 -10 -28 -8 -12 -10 -9 -10 13 0 15 5 27 10 27 6 0 10 -6 10 -12z
m400 -2 c0 -17 -14 -29 -23 -20 -8 8 3 34 14 34 5 0 9 -6 9 -14z m803 -7 c-4
-16 -8 -17 -14 -7 -13 19 -11 28 5 28 9 0 12 -7 9 -21z m-983 8 c0 -2 -9 -12
-20 -22 -17 -16 -20 -16 -20 -2 0 8 8 18 18 20 9 3 18 5 20 6 1 0 2 -1 2 -2z
m387 -14 c-4 -3 1 -12 10 -19 15 -11 14 -11 -10 -7 -29 6 -38 33 -10 33 9 0
13 -3 10 -7z m397 -6 c-3 -8 -11 -14 -18 -14 -8 0 -12 6 -9 14 3 7 11 13 19
13 7 0 11 -6 8 -13z m-1579 -17 c3 -5 2 -10 -4 -10 -5 0 -13 5 -16 10 -3 6 -2
10 4 10 5 0 13 -4 16 -10z m735 1 c0 -5 -7 -12 -16 -15 -14 -5 -15 -4 -4 9 14
17 20 19 20 6z m881 -8 c13 -15 12 -15 -8 -4 -24 12 -29 21 -14 21 5 0 15 -7
22 -17z m-1151 -24 c0 -14 -27 -10 -33 5 -4 10 0 12 14 9 10 -3 19 -9 19 -14z
m212 -11 c-29 -11 -32 -9 -15 12 13 14 19 16 25 7 4 -7 1 -15 -10 -19z m414 4
c-4 -3 -14 2 -24 12 -16 18 -16 18 6 6 13 -6 21 -14 18 -18z m407 8 c-13 -14
-19 -16 -25 -7 -4 7 -1 15 10 19 29 11 32 9 15 -12z m400 0 c-20 -23 -45 -27
-37 -6 5 13 19 21 46 25 4 0 0 -8 -9 -19z m-1838 0 c-3 -5 -10 -10 -16 -10 -5
0 -9 5 -9 10 0 6 7 10 16 10 8 0 12 -4 9 -10z m229 1 c3 -5 -1 -12 -10 -15
-27 -10 -35 -7 -22 9 15 17 25 19 32 6z m570 -6 c-4 -8 -10 -12 -15 -9 -11 6
-2 24 11 24 5 0 7 -7 4 -15z m406 5 c0 -5 -7 -10 -16 -10 -8 0 -12 5 -9 10 3
6 10 10 16 10 5 0 9 -4 9 -10z m400 0 c0 -5 -7 -10 -16 -10 -8 0 -12 5 -9 10
3 6 10 10 16 10 5 0 9 -4 9 -10z m-1503 -22 c-3 -8 -6 -5 -6 6 -1 11 2 17 5
13 3 -3 4 -12 1 -19z m-77 2 c0 -5 -2 -10 -4 -10 -3 0 -8 5 -11 10 -3 6 -1 10
4 10 6 0 11 -4 11 -10z m1691 -58 c-6 -2 -8 -9 -5 -15 5 -9 3 -8 -6 0 -9 9
-19 9 -34 2 -19 -9 -20 -9 -3 4 9 8 17 19 17 26 0 6 5 11 10 11 6 0 10 10 11
23 1 16 3 13 11 -13 7 -24 6 -36 -1 -38z m-861 48 c8 -5 12 -11 9 -14 -3 -3
-14 1 -25 9 -21 16 -8 20 16 5z m120 0 c0 -5 -5 -10 -11 -10 -5 0 -7 5 -4 10
3 6 8 10 11 10 2 0 4 -4 4 -10z m681 -7 c13 -15 12 -15 -8 -4 -24 12 -29 21
-14 21 5 0 15 -7 22 -17z m-746 -3 c-3 -5 -1 -10 4 -10 6 0 11 -7 11 -15 0 -8
-4 -15 -10 -15 -5 0 -11 -8 -11 -17 -1 -17 -2 -17 -6 -1 -4 15 -8 16 -26 7
-20 -9 -20 -9 -4 4 9 8 17 18 17 24 0 9 20 33 28 33 2 0 0 -4 -3 -10z m-595
-4 c0 -3 -4 -8 -10 -11 -5 -3 -10 -1 -10 4 0 6 5 11 10 11 6 0 10 -2 10 -4z
m1010 -26 c8 -15 6 -17 -10 -13 -11 3 -28 -1 -38 -8 -15 -13 -16 -12 -3 4 10
13 11 20 2 31 -9 11 -6 12 14 8 14 -2 30 -12 35 -22z m-1209 5 c0 -5 -9 -11
-21 -13 -15 -3 -18 1 -14 13 7 17 35 17 35 0z m404 5 c3 -6 -6 -15 -20 -20
-36 -14 -37 -13 -23 10 14 22 33 26 43 10z m-364 -37 c13 -15 12 -15 -8 -4
-24 12 -29 21 -14 21 5 0 15 -7 22 -17z m1036 -5 c-3 -8 -6 -5 -6 6 -1 11 2
17 5 13 3 -3 4 -12 1 -19z m-212 -8 c3 -6 -1 -7 -9 -4 -18 7 -21 14 -7 14 6 0
13 -4 16 -10z m332 -12 c-3 -8 -6 -5 -6 6 -1 11 2 17 5 13 3 -3 4 -12 1 -19z
m-1210 -10 c-3 -8 -6 -5 -6 6 -1 11 2 17 5 13 3 -3 4 -12 1 -19z m150 -14 c20
-13 29 -24 21 -24 -9 0 -21 7 -28 15 -7 8 -15 13 -19 11 -4 -3 -18 4 -31 15
l-25 20 24 -6 c12 -4 39 -18 58 -31z m117 29 c4 -5 12 -8 17 -8 5 0 9 -3 9 -7
0 -11 -12 -8 -35 8 -11 8 -15 14 -9 14 6 0 14 -3 18 -7z m63 1 c-3 -3 -12 -4
-19 -1 -8 3 -5 6 6 6 11 1 17 -2 13 -5z m202 -19 c21 -21 -10 -14 -40 8 l-24
18 25 -7 c14 -3 31 -12 39 -19z m406 5 c-14 -15 -21 -17 -32 -9 -19 16 -16 22
7 16 11 -3 23 -1 26 4 3 5 8 9 11 9 3 0 -2 -9 -12 -20z m381 6 c10 -8 15 -18
11 -22 -4 -4 -17 2 -29 14 -25 25 -13 30 18 8z m-1422 -5 c3 -5 0 -11 -8 -14
-8 -3 -17 1 -20 9 -6 15 19 20 28 5z m804 -8 c-6 -7 -14 -13 -18 -13 -4 0 -10
6 -13 13 -3 8 3 13 19 13 18 0 21 -3 12 -13z m393 4 c-1 -12 -15 -9 -19 4 -3
6 1 10 8 8 6 -3 11 -8 11 -12z m406 -4 c-9 -9 -19 -14 -23 -11 -10 10 6 28 24
28 15 0 15 -1 -1 -17z m233 -4 c0 -5 -4 -9 -10 -9 -5 0 -10 7 -10 16 0 8 5 12
10 9 6 -3 10 -10 10 -16z m-1880 -19 c-24 -15 -36 -11 -14 4 10 8 21 12 24 10
2 -3 -2 -9 -10 -14z m1170 -25 c-13 -15 -30 -12 -30 7 0 5 7 8 15 4 8 -3 15 0
15 6 0 6 3 8 6 5 4 -4 1 -13 -6 -22z m-810 2 c0 -7 -9 -13 -19 -13 -15 0 -17
3 -9 13 6 7 14 13 19 13 5 0 9 -6 9 -13z m400 1 c0 -7 -5 -20 -10 -28 -8 -13
-10 -12 -10 3 0 12 -4 16 -12 11 -9 -5 -9 -2 1 9 16 20 31 22 31 5z m803 5 c2
-5 1 -18 -2 -31 -6 -23 -6 -22 -18 7 -9 25 -9 31 2 31 8 0 16 -3 18 -7z
m-1403 -23 c0 -5 -7 -10 -15 -10 -8 0 -15 5 -15 10 0 6 7 10 15 10 8 0 15 -4
15 -10z m400 0 c0 -5 -4 -10 -10 -10 -5 0 -10 5 -10 10 0 6 5 10 10 10 6 0 10
-4 10 -10z m400 0 c0 -5 -4 -10 -10 -10 -5 0 -10 5 -10 10 0 6 5 10 10 10 6 0
10 -4 10 -10z m400 0 c0 -5 -4 -10 -10 -10 -5 0 -10 5 -10 10 0 6 5 10 10 10
6 0 10 -4 10 -10z m405 0 c-3 -5 -10 -10 -16 -10 -5 0 -9 5 -9 10 0 6 7 10 16
10 8 0 12 -4 9 -10z m-1418 -32 c-3 -8 -6 -5 -6 6 -1 11 2 17 5 13 3 -3 4 -12
1 -19z m88 2 c3 -5 1 -10 -4 -10 -6 0 -11 5 -11 10 0 6 2 10 4 10 3 0 8 -4 11
-10z m112 -12 c-3 -8 -6 -5 -6 6 -1 11 2 17 5 13 3 -3 4 -12 1 -19z m293 13
c0 -5 -7 -12 -16 -15 -14 -5 -15 -4 -4 9 14 17 20 19 20 6z m235 -1 c3 -5 1
-10 -4 -10 -6 0 -11 5 -11 10 0 6 2 10 4 10 3 0 8 -4 11 -10z m405 0 c0 -5 -4
-10 -10 -10 -5 0 -10 5 -10 10 0 6 5 10 10 10 6 0 10 -4 10 -10z m165 0 c3 -5
2 -10 -4 -10 -5 0 -13 5 -16 10 -3 6 -2 10 4 10 5 0 13 -4 16 -10z m235 0 c0
-5 -5 -10 -11 -10 -5 0 -7 5 -4 10 3 6 8 10 11 10 2 0 4 -4 4 -10z m-1733 -22
c-3 -8 -6 -5 -6 6 -1 11 2 17 5 13 3 -3 4 -12 1 -19z m807 7 c-4 -8 -8 -15
-10 -15 -2 0 -4 7 -4 15 0 8 4 15 10 15 5 0 7 -7 4 -15z m-314 -5 c0 -5 -5
-10 -11 -10 -5 0 -7 5 -4 10 3 6 8 10 11 10 2 0 4 -4 4 -10z m395 0 c3 -5 1
-10 -4 -10 -6 0 -11 5 -11 10 0 6 2 10 4 10 3 0 8 -4 11 -10z m245 0 c0 -5 -5
-10 -11 -10 -5 0 -7 5 -4 10 3 6 8 10 11 10 2 0 4 -4 4 -10z m400 0 c0 -5 -4
-10 -10 -10 -5 0 -10 5 -10 10 0 6 5 10 10 10 6 0 10 -4 10 -10z m165 0 c-3
-5 -12 -10 -18 -10 -7 0 -6 4 3 10 19 12 23 12 15 0z m-689 -37 c-11 -11 -17
4 -9 23 7 18 8 18 11 1 2 -10 1 -21 -2 -24z m-796 8 c0 -3 -4 -12 -8 -19 -6
-9 -12 -6 -20 12 -9 21 -8 23 9 19 10 -3 19 -8 19 -12z m400 -5 c0 -23 -16
-27 -17 -5 -1 10 2 19 8 19 5 0 9 -6 9 -14z m800 4 c0 -5 -4 -10 -10 -10 -5 0
-10 5 -10 10 0 6 5 10 10 10 6 0 10 -4 10 -10z m-1382 -28 c12 -8 21 -16 19
-18 -7 -7 -67 20 -71 33 -6 14 16 8 52 -15z m788 10 c-8 -8 -19 -11 -25 -7
-16 9 -4 24 19 22 17 -1 18 -3 6 -15z m408 3 c-4 -8 -1 -15 5 -15 6 0 11 -5
11 -11 0 -8 -4 -8 -12 -1 -7 6 -17 10 -23 10 -18 1 -16 20 2 25 10 3 19 5 20
6 1 0 0 -6 -3 -14z m392 -4 c-9 -8 -18 -12 -22 -9 -9 10 3 25 21 25 14 0 14
-2 1 -16z m-1181 -16 l30 -25 -32 16 c-19 9 -42 13 -54 9 -19 -6 -20 -5 -8 8
19 22 29 21 64 -8z m410 -5 c3 -6 -1 -7 -9 -4 -18 7 -21 14 -7 14 6 0 13 -4
16 -10z m455 -32 c0 -5 -6 -8 -14 -8 -9 0 -12 7 -9 21 4 16 8 17 14 7 5 -7 9
-16 9 -20z m-1370 1 c0 -5 -7 -9 -15 -9 -15 0 -20 12 -9 23 8 8 24 -1 24 -14z
m166 2 c-8 -7 -19 -10 -25 -7 -19 12 -12 24 14 22 20 -1 22 -3 11 -15z m229
-9 c-8 -8 -25 10 -19 20 4 6 9 5 15 -3 4 -7 6 -15 4 -17z m175 13 c-14 -17
-30 -20 -30 -6 0 5 8 12 18 14 9 3 19 5 21 6 2 0 -2 -6 -9 -14z m234 1 c-3 -8
-14 -14 -24 -13 -14 1 -16 4 -8 14 14 18 39 17 32 -1z m164 -4 c5 -17 -25 -15
-31 2 -4 9 0 13 11 12 9 -2 18 -8 20 -14z m232 1 c0 -9 -6 -13 -14 -10 -7 3
-20 0 -27 -6 -11 -10 -11 -9 -1 4 6 9 10 18 7 20 -2 3 5 5 15 6 12 1 20 -5 20
-14z m403 1 c-6 -17 -17 -18 -31 -1 -8 9 -4 12 13 13 16 1 22 -2 18 -12z m184
-20 c-2 -2 -12 -1 -24 2 -14 4 -20 11 -16 20 5 13 8 12 24 -2 11 -10 18 -19
16 -20z m-1583 -10 c3 -8 2 -12 -4 -9 -6 3 -10 10 -10 16 0 14 7 11 14 -7z
m63 -6 c-3 -8 -6 -5 -6 6 -1 11 2 17 5 13 3 -3 4 -12 1 -19z m33 -23 c-27 -29
-50 -33 -50 -9 0 11 6 15 18 12 10 -3 23 1 30 9 7 7 16 13 19 13 4 0 -4 -11
-17 -25z m395 -13 c19 -22 24 -31 12 -27 -9 4 -17 11 -17 15 0 4 -6 7 -12 6
-14 -1 -18 5 -18 31 0 9 1 14 3 12 1 -2 15 -19 32 -37z m750 28 c3 -5 -1 -10
-9 -10 -8 0 -18 5 -21 10 -3 6 1 10 9 10 8 0 18 -4 21 -10z m61 -5 c-19 -14
-19 -15 0 -37 14 -17 15 -19 2 -9 -9 7 -21 10 -26 7 -6 -3 -15 1 -22 9 -10 12
-6 17 22 29 43 19 47 19 24 1z m339 -3 c-3 -3 -11 0 -18 7 -9 10 -8 11 6 5 10
-3 15 -9 12 -12z m-741 0 c-6 -4 -15 -15 -20 -24 -6 -12 -14 -14 -24 -8 -19
12 1 35 32 37 12 1 18 -1 12 -5z m-789 -42 c3 -6 -1 -7 -9 -4 -18 7 -21 14 -7
14 6 0 13 -4 16 -10z m647 -34 c2 -12 -3 -20 -14 -21 -14 -3 -15 1 -6 21 13
27 15 27 20 0z m109 1 c-10 -9 -11 -8 -5 6 3 10 9 15 12 12 3 -3 0 -11 -7 -18z
m-900 -7 c-29 -25 -61 -28 -37 -4 9 8 20 13 25 9 5 -3 12 -1 16 5 3 5 9 10 13
10 4 -1 -4 -10 -17 -20z m410 7 c-6 -8 -8 -16 -5 -20 3 -3 -2 -4 -12 -3 -10 2
-20 9 -22 16 -3 9 1 11 12 7 9 -4 16 -2 16 3 0 6 5 10 11 10 8 0 9 -4 0 -13z
m586 7 c-3 -3 -12 -4 -19 -1 -8 3 -5 6 6 6 11 1 17 -2 13 -5z m-1171 -13 c-4
-5 0 -12 6 -15 7 -3 4 -5 -6 -3 -24 3 -34 27 -11 27 9 0 14 -4 11 -9z m398 -6
c-4 -8 -10 -12 -15 -9 -11 6 -2 24 11 24 5 0 7 -7 4 -15z m406 7 c0 -13 -12
-22 -22 -16 -10 6 -1 24 13 24 5 0 9 -4 9 -8z m400 -2 c0 -5 -7 -10 -16 -10
-8 0 -12 5 -9 10 3 6 10 10 16 10 5 0 9 -4 9 -10z m165 1 c3 -5 1 -12 -4 -15
-5 -3 -11 1 -15 9 -6 16 9 21 19 6z m235 1 c0 -13 -12 -22 -22 -16 -10 6 -1
24 13 24 5 0 9 -4 9 -8z m170 -1 c0 -17 -18 -21 -24 -6 -3 9 0 15 9 15 8 0 15
-4 15 -9z m-1710 -39 c7 2 15 -3 17 -9 8 -21 -23 -14 -43 9 -13 16 -14 19 -3
10 9 -7 22 -11 29 -10z m450 8 c0 -5 -5 -10 -11 -10 -5 0 -7 5 -4 10 3 6 8 10
11 10 2 0 4 -4 4 -10z m157 -12 c-3 -8 -6 -5 -6 6 -1 11 2 17 5 13 3 -3 4 -12
1 -19z m1048 12 c-3 -5 -11 -10 -16 -10 -6 0 -7 5 -4 10 3 6 11 10 16 10 6 0
7 -4 4 -10z m-1235 -17 c0 -5 -5 -15 -10 -23 -7 -11 -10 -11 -10 -2 0 8 -5 10
-12 6 -9 -5 -9 -2 1 9 14 18 31 23 31 10z m410 -8 c11 -13 10 -14 -4 -9 -11 4
-16 0 -17 -12 -1 -17 -2 -17 -6 -1 -3 10 -9 14 -16 10 -7 -4 -6 1 2 10 17 21
25 21 41 2z m398 2 c9 -10 5 -13 -18 -12 -22 0 -26 3 -18 12 13 16 23 16 36 0z
m403 -4 c10 -11 10 -14 2 -9 -8 4 -13 2 -13 -4 0 -6 -4 -8 -10 -5 -12 8 -13
35 -1 35 5 0 15 -8 22 -17z m-1413 -14 c-2 -6 -8 -10 -13 -10 -5 0 -11 4 -13
10 -2 6 4 11 13 11 9 0 15 -5 13 -11z m402 1 c0 -5 -4 -10 -10 -10 -5 0 -10 5
-10 10 0 6 5 10 10 10 6 0 10 -4 10 -10z m400 0 c0 -5 -4 -10 -10 -10 -5 0
-10 5 -10 10 0 6 5 10 10 10 6 0 10 -4 10 -10z m401 -3 c-1 -4 -1 -17 -1 -29
0 -27 -5 -21 -14 15 -5 20 -3 28 4 25 6 -2 11 -7 11 -11z m-921 -27 c0 -5 -2
-10 -4 -10 -3 0 -8 5 -11 10 -3 6 -1 10 4 10 6 0 11 -4 11 -10z m107 -27 c-3
-10 -5 -4 -5 12 0 17 2 24 5 18 2 -7 2 -21 0 -30z m133 33 c0 -2 -7 -7 -16
-10 -8 -3 -12 -2 -9 4 6 10 25 14 25 6z m165 -6 c3 -6 -1 -7 -9 -4 -18 7 -21
14 -7 14 6 0 13 -4 16 -10z m235 6 c0 -2 -7 -7 -16 -10 -8 -3 -12 -2 -9 4 6
10 25 14 25 6z m400 0 c0 -2 -7 -7 -16 -10 -8 -3 -12 -2 -9 4 6 10 25 14 25 6z
m-1240 -21 c0 -12 -19 -12 -23 0 -4 9 -1 12 9 8 7 -3 14 -7 14 -8z m918 -15
c-1 -16 -5 -30 -10 -30 -9 0 -10 7 -2 38 9 30 13 28 12 -8z m-1318 16 c0 -3
-4 -8 -10 -11 -5 -3 -10 -1 -10 4 0 6 5 11 10 11 6 0 10 -2 10 -4z m1040 0 c0
-3 -4 -8 -10 -11 -5 -3 -10 -1 -10 4 0 6 5 11 10 11 6 0 10 -2 10 -4z m-920
-37 c0 -18 -20 -18 -29 0 -9 16 -8 18 9 14 11 -3 20 -9 20 -14z m400 1 c0 -5
-4 -10 -10 -10 -5 0 -10 5 -10 10 0 6 5 10 10 10 6 0 10 -4 10 -10z m400 0 c0
-5 -4 -10 -10 -10 -5 0 -10 5 -10 10 0 6 5 10 10 10 6 0 10 -4 10 -10z m218 1
c10 7 8 3 -3 -8 -11 -12 -30 -24 -42 -28 l-23 -6 23 25 c12 14 24 21 25 15 3
-6 10 -5 20 2z m582 -1 c0 -5 -4 -10 -10 -10 -5 0 -10 5 -10 10 0 6 5 10 10
10 6 0 10 -4 10 -10z m-1382 -25 c31 -29 27 -31 -17 -9 -17 8 -29 20 -26 25 9
13 13 12 43 -16z m382 10 c0 -8 -7 -15 -15 -15 -16 0 -20 12 -8 23 11 12 23 8
23 -8z m817 -2 c0 -7 -9 -13 -19 -13 -10 0 -18 6 -18 14 0 8 8 14 18 13 10 0
19 -7 19 -14z m180 -25 c-3 -8 -6 -5 -6 6 -1 11 2 17 5 13 3 -3 4 -12 1 -19z
m-1042 2 c-3 -5 -12 -10 -18 -10 -7 0 -6 4 3 10 19 12 23 12 15 0z m232 -22
c-3 -8 -6 -5 -6 6 -1 11 2 17 5 13 3 -3 4 -12 1 -19z m700 9 c10 0 10 -4 1
-14 -9 -11 -14 -11 -32 4 -12 10 -23 20 -26 22 -3 2 6 0 20 -4 14 -5 31 -8 37
-8z m270 7 c-3 -3 -12 -4 -19 -1 -8 3 -5 6 6 6 11 1 17 -2 13 -5z m-1873 -25
c-9 -15 -34 -10 -28 5 3 8 12 12 20 9 8 -3 11 -9 8 -14z m401 10 c12 -19 -5
-23 -22 -6 -16 16 -16 17 -1 17 9 0 20 -5 23 -11z m230 -1 c4 -3 2 -9 -3 -12
-5 -3 -15 1 -21 8 -10 11 -9 14 3 12 9 -1 18 -5 21 -8z m173 -7 c3 -8 -1 -12
-9 -9 -7 2 -15 10 -17 17 -3 8 1 12 9 9 7 -2 15 -10 17 -17z m231 2 c-6 -7
-18 -13 -26 -13 -12 0 -13 3 -4 13 6 8 17 14 26 14 11 0 12 -4 4 -14z m162 3
c-1 -16 -28 -15 -28 1 0 7 7 13 14 11 8 -2 14 -7 14 -12z m238 0 c11 -14 6
-15 -27 -7 -4 1 8 21 12 21 2 0 9 -6 15 -14z m396 -6 c-3 -5 -11 -10 -16 -10
-6 0 -7 5 -4 10 3 6 11 10 16 10 6 0 7 -4 4 -10z"/>
</g>
</svg>
