<?xml version="1.0" standalone="no"?>
<!DOCTYPE svg PUBLIC "-//W3C//DTD SVG 20010904//EN"
 "http://www.w3.org/TR/2001/REC-SVG-20010904/DTD/svg10.dtd">
<svg version="1.0" xmlns="http://www.w3.org/2000/svg"
 width="200.000000pt" height="200.000000pt" viewBox="0 0 200.000000 200.000000"
 preserveAspectRatio="xMidYMid meet">
<metadata>
Created by potrace 1.16, written by Peter Selinger 2001-2019
</metadata>
<g transform="translate(0.000000,200.000000) scale(0.100000,-0.100000)"
fill="#000000" stroke="none">
<path d="M20 1979 c0 -11 -4 -17 -10 -14 -25 15 -7 -12 19 -30 19 -12 27 -23
21 -30 -5 -7 3 -10 23 -10 18 0 32 -5 32 -12 0 -6 3 -15 8 -19 4 -4 7 -2 7 6
0 9 3 10 13 1 8 -6 30 -17 50 -26 36 -15 38 -15 59 10 12 14 28 23 36 20 7 -2
10 -1 7 4 -5 8 34 28 43 22 2 -1 10 6 19 16 8 10 12 12 8 6 -3 -7 -1 -13 5
-13 6 0 4 -10 -5 -24 -11 -16 -22 -22 -35 -19 -15 4 -20 0 -20 -13 0 -15 -2
-16 -9 -5 -7 11 -12 8 -26 -13 -9 -14 -21 -24 -25 -21 -12 7 -20 -21 -20 -66
0 -30 -3 -38 -12 -33 -10 6 -10 4 0 -8 8 -10 12 -33 9 -60 -5 -45 12 -78 40
-78 8 0 11 -4 8 -10 -3 -5 2 -10 13 -10 10 0 29 -10 42 -22 14 -13 29 -22 33
-20 5 1 15 -2 22 -8 17 -14 45 -9 66 12 12 11 30 15 55 13 33 -2 36 -1 20 10
-17 13 -17 14 3 25 12 6 21 8 21 5 0 -4 7 1 16 9 21 22 31 63 28 118 -2 33 2
48 12 52 8 3 14 10 14 16 0 6 -4 9 -9 5 -10 -6 -37 34 -33 48 1 4 -1 6 -5 6
-26 -4 -32 2 -15 19 13 14 18 15 22 4 5 -10 22 -5 73 22 37 19 65 29 61 23 -3
-7 4 -1 16 13 12 14 19 20 16 14 -3 -6 3 -10 12 -10 9 1 17 -3 17 -9 0 -5 -3
-9 -7 -7 -5 1 -8 -2 -8 -6 0 -13 -60 -44 -75 -39 -7 3 -15 -3 -18 -15 -3 -11
-10 -17 -15 -14 -16 10 -22 -21 -22 -110 0 -52 -4 -84 -10 -84 -6 0 -3 -11 7
-24 10 -13 21 -22 25 -20 3 2 14 -4 24 -13 9 -9 24 -18 32 -20 19 -2 53 -44
46 -55 -9 -13 -22 -9 -45 15 -12 12 -18 16 -14 9 6 -11 3 -12 -14 -3 -11 7
-21 14 -21 17 0 3 5 2 10 -1 12 -8 13 5 1 23 -6 11 -10 10 -15 -5 -7 -17 -8
-17 -20 -1 -12 17 -16 16 -60 -7 -25 -13 -46 -21 -46 -18 0 4 -7 -2 -16 -13
-8 -10 -12 -12 -8 -4 7 13 5 13 -9 1 -14 -11 -20 -11 -34 0 -17 13 -17 13 -3
-5 13 -17 13 -20 -8 -34 -12 -8 -22 -21 -22 -28 0 -8 -6 -14 -12 -14 -8 0 -9
-3 -3 -8 13 -9 19 -82 7 -82 -7 0 -7 -10 -1 -27 4 -16 11 -41 14 -56 3 -15 10
-25 15 -22 6 4 13 -1 16 -10 4 -9 13 -14 21 -11 8 3 11 2 8 -4 -3 -5 13 -14
35 -20 23 -6 43 -17 46 -25 6 -15 31 -13 64 5 11 6 25 8 30 5 5 -3 12 0 16 6
5 8 2 10 -7 5 -8 -4 -5 -1 5 8 10 8 23 13 27 10 13 -8 88 68 82 82 -5 12 18
44 31 44 3 0 6 -17 6 -37 0 -42 7 -56 30 -61 8 -2 22 -10 31 -18 9 -8 19 -11
24 -7 4 5 5 3 2 -3 -7 -13 19 -29 41 -25 13 2 14 -5 3 -33 -7 -19 -8 -19 -28
1 -12 12 -24 19 -27 16 -3 -4 -6 -1 -6 6 0 7 -4 9 -10 6 -6 -3 -7 1 -4 9 4 11
0 16 -11 16 -10 0 -13 -4 -8 -12 4 -8 -2 -7 -17 2 -36 23 -82 42 -76 32 3 -5
-1 -18 -9 -28 -8 -11 -14 -14 -15 -6 0 6 -5 12 -11 12 -6 0 -8 -7 -5 -16 3 -8
2 -12 -4 -9 -6 3 -10 1 -10 -5 0 -6 -4 -8 -10 -5 -5 3 -10 2 -10 -4 0 -6 -10
-15 -21 -22 -15 -8 -19 -8 -15 0 4 6 3 11 -2 11 -18 0 -34 -57 -33 -123 1 -49
-2 -66 -11 -61 -6 4 -9 3 -6 -2 3 -5 13 -26 23 -46 22 -48 58 -71 117 -77 5
-1 7 -7 5 -13 -1 -9 12 -13 41 -13 43 0 43 0 37 -30 -3 -16 -6 -57 -6 -89 0
-39 -6 -64 -16 -74 -13 -14 -13 -16 1 -24 9 -5 16 -16 16 -24 0 -8 7 -17 15
-20 10 -4 13 -13 10 -25 -5 -14 -2 -17 17 -14 38 7 73 -16 74 -49 1 -25 -1
-27 -11 -13 -7 9 -15 14 -18 10 -4 -3 -7 -1 -7 6 0 7 -4 9 -10 6 -5 -3 -10 -1
-10 5 0 6 -5 8 -12 4 -6 -4 -8 -3 -4 4 3 6 2 13 -4 17 -5 3 -10 0 -10 -7 -1
-10 -4 -9 -13 2 -17 22 -56 24 -77 5 -10 -9 -23 -14 -29 -11 -6 4 -16 -2 -22
-13 -7 -11 -19 -17 -27 -13 -9 3 -13 1 -9 -5 4 -6 -9 -20 -28 -32 -25 -15 -33
-25 -28 -37 5 -13 3 -15 -8 -9 -11 7 -11 5 1 -10 11 -14 12 -19 2 -22 -6 -3
-12 -9 -12 -14 0 -6 5 -7 10 -4 6 3 10 -1 10 -9 0 -9 -4 -16 -8 -16 -5 0 -9
-7 -9 -15 0 -8 4 -12 10 -8 5 3 7 -10 6 -28 -2 -19 2 -43 9 -54 6 -11 12 -16
12 -11 0 6 9 0 21 -12 11 -12 25 -19 31 -16 7 4 8 2 4 -4 -7 -11 6 -17 27 -13
5 1 22 -8 39 -21 l31 -22 39 22 c26 16 38 19 38 10 0 -10 2 -10 8 -1 5 7 20
14 36 15 25 2 25 4 10 15 -18 13 -10 18 23 14 6 -1 15 4 19 10 5 8 2 10 -7 5
-8 -4 -5 0 5 8 17 14 20 28 19 105 -1 92 -9 135 -22 126 -5 -2 -6 7 -3 21 3
17 8 22 16 15 16 -13 88 -2 79 12 -3 5 -1 7 5 3 5 -3 24 6 41 20 17 14 31 22
31 18 0 -4 7 1 16 12 8 10 13 12 9 4 -4 -8 1 -6 9 4 10 13 16 39 16 73 0 32 4
53 11 53 8 0 8 5 -1 15 -7 8 -10 24 -7 34 3 11 -1 28 -9 39 -7 11 -10 23 -6
27 4 5 1 5 -5 1 -8 -4 -13 -2 -13 5 0 7 -3 9 -7 6 -3 -4 -12 1 -20 11 -10 11
-12 12 -8 2 4 -9 1 -8 -8 3 -9 10 -19 18 -24 18 -17 -1 -43 11 -43 20 0 6 5 7
10 4 13 -8 8 18 -5 27 -6 5 -5 8 3 8 7 0 15 -7 19 -16 3 -8 11 -13 18 -11 6 3
17 -4 24 -14 6 -11 16 -17 21 -14 6 3 10 1 10 -5 0 -6 4 -9 9 -6 5 4 11 1 13
-6 5 -13 58 -18 58 -5 0 4 4 6 9 3 5 -3 11 1 15 9 3 9 12 12 22 8 12 -4 15 -3
10 5 -5 8 1 12 18 12 16 0 26 6 26 14 0 20 30 28 49 14 14 -11 14 -11 4 3 -9
11 -9 19 -2 26 6 6 10 30 11 54 0 24 5 50 12 58 8 10 8 13 0 8 -8 -4 -11 6
-11 31 0 21 -10 52 -23 72 -12 19 -20 28 -17 19 5 -15 3 -15 -23 -3 -15 8 -31
22 -34 30 -3 9 -12 14 -20 11 -8 -3 -22 1 -33 9 -10 9 -12 13 -5 9 7 -4 12 -3
11 2 -4 22 2 32 16 27 8 -4 15 -12 15 -19 0 -13 44 -30 67 -26 6 1 18 -7 25
-18 12 -17 33 -21 58 -11 3 1 8 2 13 1 4 0 7 4 7 10 0 6 6 9 13 6 7 -3 23 6
36 19 13 13 27 21 32 18 5 -3 9 1 9 8 0 9 3 9 10 -2 8 -12 10 -12 10 -1 0 8 8
19 17 26 14 11 17 28 15 101 -3 115 -9 142 -30 140 -9 0 -17 6 -17 14 0 9 -9
15 -23 14 -12 0 -22 3 -22 8 0 5 -4 7 -8 4 -5 -3 -22 3 -38 13 -37 22 -67 33
-60 22 3 -5 -2 -11 -12 -15 -9 -3 -32 -15 -50 -26 -18 -11 -31 -15 -27 -8 4 7
-1 4 -10 -7 -9 -11 -20 -19 -25 -18 -4 1 -16 -7 -25 -17 -15 -16 -18 -37 -17
-107 0 -49 4 -96 7 -105 14 -35 -6 -53 -52 -47 -3 0 -10 -6 -15 -15 -5 -9 -14
-14 -19 -10 -6 3 -17 -4 -26 -16 -8 -12 -21 -19 -29 -16 -8 3 -14 1 -14 -4 0
-5 -6 -7 -13 -5 -7 3 -18 -9 -25 -27 -7 -18 -17 -41 -22 -50 -5 -9 -6 -19 -2
-22 4 -2 9 -32 10 -66 2 -34 8 -73 13 -87 13 -35 12 -36 -21 -31 -16 2 -31 0
-33 -5 -3 -9 -12 -11 -60 -16 -5 -1 -6 -4 -3 -9 7 -12 -50 -41 -64 -32 -9 5
-9 9 -1 14 6 4 9 12 6 17 -6 8 8 13 28 10 4 0 7 4 7 10 0 5 5 7 10 4 6 -3 10
-1 10 5 0 6 5 8 10 5 6 -3 13 1 16 10 5 13 9 14 15 4 6 -10 11 -5 20 16 12 32
14 200 2 219 -12 18 -13 45 -4 51 5 3 12 1 16 -5 4 -6 21 -2 47 11 22 11 37
15 33 9 -6 -9 -2 -9 14 -1 11 7 21 16 21 20 0 5 12 17 28 27 26 17 27 17 12
-1 -14 -17 -14 -17 7 -5 12 8 19 18 17 22 -3 5 1 10 8 13 9 4 12 18 10 47 -3
31 0 43 13 51 13 7 14 11 5 17 -7 5 -14 21 -16 37 -6 56 -14 73 -39 79 -14 3
-25 14 -25 23 0 12 -2 13 -9 3 -6 -11 -10 -10 -15 4 -3 9 -9 14 -13 11 -3 -4
-12 1 -20 11 -9 10 -11 11 -7 2 7 -13 5 -13 -16 1 -32 20 -63 31 -56 20 7 -11
-22 -23 -35 -15 -5 3 -9 0 -9 -5 0 -6 -8 -11 -18 -11 -28 0 -22 29 10 46 15 8
28 11 28 7 0 -5 6 1 12 12 7 11 11 55 10 103 -2 54 1 81 8 77 19 -12 10 8 -15
31 -14 13 -25 26 -25 29 1 17 -1 19 -9 6 -7 -11 -13 -9 -29 7 -11 11 -23 17
-27 14 -4 -4 -5 -1 -3 7 2 7 -3 16 -11 19 -9 3 -11 0 -6 -8 6 -9 3 -9 -14 -1
-25 14 -28 23 -3 14 9 -3 14 -3 10 2 -4 4 -20 9 -35 11 -15 1 -37 8 -50 15
-22 12 -22 13 -4 25 12 9 17 21 14 39 l-5 25 -175 0 c-148 0 -177 -2 -191 -16
-15 -15 -14 -18 9 -38 17 -15 25 -31 23 -47 -1 -13 0 -18 2 -11 6 14 34 17 34
3 0 -5 9 -7 20 -4 14 4 20 0 20 -11 0 -10 4 -15 9 -12 5 3 12 -1 15 -10 4 -9
2 -13 -5 -8 -6 4 -15 1 -19 -6 -6 -9 -13 -7 -29 9 -11 11 -23 21 -26 21 -3 0
-9 0 -14 0 -5 0 -17 7 -26 16 -13 14 -21 15 -41 5 -18 -8 -23 -8 -18 0 3 6 8
33 10 60 l4 49 -180 0 c-175 0 -180 -1 -180 -21z m874 -475 c3 -9 -4 -16 -19
-20 -14 -3 -25 -10 -25 -16 0 -5 -4 -7 -9 -4 -12 8 -25 -23 -22 -51 2 -16 -2
-20 -16 -17 -10 3 -20 15 -20 27 -1 12 -11 28 -22 35 -16 11 -18 17 -9 32 9
14 16 16 30 9 12 -6 25 -6 38 1 10 6 25 9 32 8 7 -2 12 2 11 9 -4 17 24 5 31
-13z m-77 -134 c2 -8 -6 -26 -16 -40 l-20 -25 1 43 c0 34 4 42 17 40 8 -2 17
-10 18 -18z"/>
<path d="M820 1976 c0 -35 10 -56 26 -56 8 0 14 -7 14 -16 0 -11 6 -14 21 -9
16 5 19 4 14 -5 -5 -9 -4 -11 3 -6 14 8 55 -18 45 -28 -4 -4 1 -4 11 0 14 6
17 4 11 -6 -5 -8 -3 -11 6 -8 8 3 23 2 35 -3 11 -4 27 -3 35 3 11 8 9 8 -6 4
-20 -6 -20 -6 -1 9 11 8 26 15 33 15 7 0 13 4 13 9 0 7 25 18 47 21 12 1 53
47 53 58 0 8 8 21 18 28 14 11 -14 13 -180 14 l-198 0 0 -24z"/>
<path d="M1220 1976 c0 -36 10 -56 29 -57 10 0 11 -2 4 -6 -7 -2 -13 -9 -13
-14 0 -6 7 -6 19 0 15 8 20 7 25 -5 5 -12 2 -15 -9 -10 -9 3 -13 2 -10 -4 3
-5 19 -7 35 -5 20 2 28 0 24 -7 -5 -8 -1 -9 12 -4 15 6 17 5 7 -5 -7 -7 -13
-17 -13 -22 0 -5 7 -2 15 6 12 12 21 13 44 4 23 -8 32 -8 45 5 8 9 24 14 35
11 10 -3 22 1 26 8 6 8 4 10 -6 4 -12 -8 -12 -6 0 8 7 9 18 17 23 17 5 0 22
10 38 22 21 15 30 30 30 50 l0 28 -180 0 -180 0 0 -24z"/>
<path d="M1606 1985 c-3 -8 -1 -15 4 -15 6 0 10 -7 10 -15 0 -9 6 -18 14 -21
8 -3 12 -12 9 -20 -3 -9 2 -15 13 -16 11 0 26 -2 34 -2 10 -1 14 -9 12 -24 -2
-12 2 -22 8 -22 6 0 8 4 5 10 -4 6 1 7 11 3 12 -5 15 -3 9 6 -6 10 -3 11 14 1
12 -6 19 -15 16 -20 -12 -20 19 -20 60 0 24 12 46 20 49 18 2 -2 15 7 28 19
13 12 30 23 38 25 23 5 39 30 40 61 l0 27 -184 0 c-154 0 -185 -2 -190 -15z"/>
<path d="M1992 1975 c0 -16 2 -22 5 -12 2 9 2 23 0 30 -3 6 -5 -1 -5 -18z"/>
<path d="M1573 1898 c1 -6 -4 -13 -12 -16 -9 -3 -11 0 -6 8 5 9 4 11 -3 6 -7
-4 -12 -14 -12 -22 0 -8 -4 -12 -10 -9 -5 3 -10 1 -10 -5 0 -7 -7 -10 -15 -6
-8 3 -20 -3 -28 -14 -8 -11 -17 -17 -20 -13 -4 3 -7 1 -7 -6 0 -7 -5 -9 -12
-5 -6 4 -8 3 -4 -4 3 -6 -3 -17 -15 -25 -13 -10 -17 -17 -9 -22 7 -4 9 -35 7
-86 -2 -43 0 -79 5 -79 4 0 8 -6 8 -14 0 -8 5 -18 12 -22 7 -5 8 -3 3 7 -5 8
4 2 20 -13 28 -28 52 -38 39 -16 -4 7 -3 8 5 4 6 -4 9 -11 6 -15 -2 -5 7 -13
21 -20 20 -9 24 -9 18 1 -4 7 2 4 14 -6 18 -16 27 -17 46 -8 18 8 27 7 42 -6
10 -9 15 -13 11 -8 -4 5 -1 16 6 24 10 13 9 15 -8 9 -20 -7 -20 -7 -1 8 22 17
25 16 31 -14 3 -15 -4 -25 -24 -36 -16 -8 -31 -12 -34 -9 -6 7 -20 -32 -22
-66 -1 -14 -5 -33 -9 -42 -5 -11 -4 -18 2 -18 6 0 9 -18 8 -41 -3 -35 1 -43
25 -62 21 -15 26 -23 17 -29 -8 -5 -4 -7 12 -6 21 3 25 -1 23 -19 -2 -13 2
-23 8 -23 5 0 8 4 5 9 -3 5 0 11 7 13 14 6 70 -26 61 -35 -6 -5 48 -2 54 3 3
4 20 7 38 9 8 0 13 5 9 10 -7 12 29 33 39 24 3 -3 6 -1 6 6 0 7 4 10 9 6 6 -3
14 3 20 12 6 10 11 14 11 8 1 -30 20 27 21 65 l2 45 7 -40 7 -40 2 43 c0 23
-3 42 -9 42 -5 0 -10 5 -10 11 0 5 5 7 10 4 6 -3 10 1 10 10 0 9 -4 13 -10 10
-6 -4 -10 7 -9 27 1 31 1 32 9 8 7 -23 8 -23 9 -3 1 13 -12 31 -31 47 -18 15
-38 30 -44 35 -6 5 -20 12 -32 15 -12 4 -20 12 -17 17 3 5 -1 6 -9 3 -10 -4
-18 1 -22 10 -9 24 1 29 28 15 12 -7 29 -12 36 -11 7 2 15 -4 18 -12 3 -9 9
-14 14 -11 4 2 16 -4 27 -15 12 -10 24 -16 27 -13 11 11 7 413 -4 413 -5 0
-10 -5 -10 -11 0 -6 -7 -8 -16 -5 -8 3 -13 2 -10 -3 3 -5 -1 -12 -10 -15 -8
-3 -12 -2 -9 3 3 5 0 13 -6 17 -8 5 -9 3 -4 -6 6 -10 4 -12 -10 -6 -15 5 -16
4 -6 -8 9 -11 9 -16 0 -22 -8 -4 -9 -3 -5 4 4 7 3 12 -1 12 -5 0 -14 -9 -21
-20 -7 -12 -17 -18 -22 -15 -6 3 -10 1 -10 -5 0 -6 -5 -8 -10 -5 -6 4 -10 3
-9 -2 1 -4 0 -10 -1 -13 -1 -3 -4 -18 -5 -35 -2 -16 -4 -30 -5 -30 -1 0 -2
-15 -3 -33 -1 -17 1 -32 5 -32 4 0 3 -12 -3 -26 -7 -21 -6 -31 7 -45 9 -10 13
-26 10 -36 -5 -15 -16 -18 -55 -18 -27 0 -47 -4 -44 -8 5 -8 -15 -37 -26 -37
-4 0 -8 11 -9 26 -1 14 2 23 8 19 6 -3 10 -2 10 2 0 5 10 14 23 22 20 13 21
13 8 -2 -8 -10 -9 -17 -3 -17 10 0 25 17 28 33 1 4 3 10 4 15 1 4 1 19 0 35
-1 17 4 27 12 27 10 0 9 3 -2 10 -13 8 -13 10 0 10 11 0 11 3 2 12 -15 15 -16
68 -2 68 6 0 4 10 -5 23 -8 13 -12 27 -8 32 5 4 3 5 -4 2 -16 -10 -44 3 -36
17 3 6 3 8 -2 4 -15 -14 -47 13 -41 35 5 21 5 21 -9 3 -15 -20 -15 -20 -42 0
-33 24 -73 36 -70 22z"/>
<path d="M0 1696 l0 -204 43 21 c23 12 44 25 45 30 2 4 8 5 13 1 5 -3 9 -1 9
5 0 5 9 13 20 16 37 12 70 85 50 110 -9 11 -7 46 5 65 4 6 -1 24 -9 42 -13 25
-14 34 -3 46 11 13 9 14 -10 1 -20 -12 -25 -11 -52 15 -16 15 -33 26 -38 23
-5 -3 -24 3 -41 13 l-32 20 0 -204z"/>
<path d="M1149 1884 c-10 -12 -14 -12 -20 -2 -6 9 -9 6 -9 -9 0 -16 -4 -21
-15 -17 -9 4 -15 0 -15 -10 0 -9 -6 -13 -15 -10 -8 4 -17 -1 -21 -10 -3 -9
-10 -14 -14 -11 -11 7 -23 -25 -21 -52 1 -13 -2 -23 -8 -23 -6 0 -11 -7 -11
-16 0 -8 5 -12 10 -9 6 4 10 -6 10 -24 0 -16 -6 -32 -12 -34 -9 -4 -10 -8 -2
-14 6 -4 14 -25 18 -45 4 -21 9 -38 11 -38 2 0 12 -3 22 -6 16 -6 16 -5 -2 10
-20 17 -20 17 3 6 12 -6 22 -15 22 -21 0 -6 4 -8 9 -4 6 3 13 0 18 -7 11 -17
49 -47 39 -30 -10 16 0 15 29 -4 18 -11 29 -13 43 -5 11 6 22 7 26 4 3 -3 6
-1 6 5 0 6 29 27 65 47 52 29 65 42 65 61 0 13 6 24 13 24 8 0 8 3 2 8 -16 10
-20 96 -5 87 9 -6 9 -2 1 13 -6 12 -12 32 -13 46 -1 15 -8 24 -18 24 -8 -1
-44 16 -79 37 -73 43 -113 52 -132 29z"/>
<path d="M676 1871 c-3 -5 1 -11 9 -14 9 -4 12 -1 8 9 -6 16 -10 17 -17 5z"/>
<path d="M168 1552 c-5 -13 -74 -62 -86 -62 -7 0 -20 -8 -31 -19 -10 -10 -27
-24 -37 -30 -13 -9 -15 -14 -6 -17 17 -8 17 -141 0 -147 -15 -5 44 -63 74 -73
25 -8 23 -21 -5 -26 -35 -7 -50 1 -36 18 10 12 7 14 -12 11 l-24 -4 -3 -201
c-1 -111 1 -202 5 -203 5 0 16 -2 26 -4 9 -2 15 1 11 6 -3 5 -10 7 -15 4 -5
-4 -9 -4 -9 -1 0 11 95 60 115 58 30 -2 47 46 48 139 0 57 -4 85 -14 97 -9 10
-14 23 -11 30 2 7 -7 12 -25 12 -16 0 -38 6 -48 14 -18 13 -18 14 9 9 24 -5
28 -3 23 11 -5 13 0 13 36 -6 23 -12 51 -22 62 -22 20 -1 27 -23 14 -41 -5 -6
-9 -29 -11 -50 -2 -22 -7 -43 -13 -47 -6 -5 -6 -8 1 -8 16 0 17 -80 1 -80 -6
0 -4 -5 6 -11 9 -5 17 -17 17 -26 0 -9 6 -13 15 -9 9 3 15 0 15 -9 0 -8 5 -15
11 -15 5 0 7 6 4 13 -4 6 -1 5 7 -3 7 -8 20 -16 28 -18 8 -2 23 -13 33 -25 10
-12 16 -16 12 -10 -4 9 -1 11 9 7 9 -3 16 -10 16 -14 0 -14 34 -6 53 13 15 15
21 16 35 5 13 -11 15 -11 9 4 -8 21 9 33 27 19 16 -14 26 -4 19 17 -4 10 -3
14 1 10 5 -4 20 4 34 17 21 20 26 33 26 79 0 31 4 56 10 56 6 0 5 5 -2 12 -7
7 -12 24 -12 39 0 15 -5 31 -10 34 -6 4 -8 10 -5 15 3 5 1 11 -5 15 -5 3 -10
2 -10 -4 0 -6 -7 -8 -15 -5 -8 4 -13 10 -10 14 3 4 -1 7 -8 6 -6 0 -14 4 -15
9 -8 24 -26 34 -48 29 -16 -4 -26 -1 -30 9 -4 12 -11 14 -30 6 -17 -6 -23 -6
-19 1 3 6 2 10 -4 10 -5 0 -11 -8 -13 -17 -3 -15 -4 -15 -21 1 -17 18 -17 19
12 37 19 12 31 27 32 41 4 125 3 168 -3 168 -5 0 -8 10 -9 23 0 12 -3 16 -6
10 -7 -18 -43 3 -44 25 0 10 -3 12 -6 5 -3 -10 -11 -9 -34 3 -17 8 -27 20 -23
26 4 6 1 9 -7 6 -8 -3 -28 1 -46 8 -17 8 -33 10 -35 6z m166 -370 c15 -8 -24
-31 -42 -25 -10 4 -13 2 -8 -5 3 -6 -2 -16 -13 -21 -29 -16 -38 -13 -15 4 16
13 16 14 2 9 -12 -4 -18 -1 -18 10 0 10 5 13 17 9 10 -4 14 -2 9 5 -3 6 -2 13
4 17 5 3 10 1 10 -5 0 -6 5 -8 10 -5 6 4 8 11 5 16 -6 8 17 3 39 -9z"/>
<path d="M1296 1532 c-2 -4 7 -9 22 -10 21 -1 24 0 12 8 -18 12 -27 12 -34 2z"/>
<path d="M20 1494 c0 -1 6 -7 14 -13 10 -9 15 -8 19 3 4 10 0 14 -14 13 -10
-1 -19 -2 -19 -3z"/>
<path d="M3 1340 c0 -30 2 -43 4 -27 2 15 2 39 0 55 -2 15 -4 2 -4 -28z"/>
<path d="M1572 1203 c-6 -3 -10 -9 -6 -14 3 -5 -6 -9 -21 -9 -14 0 -28 -7 -31
-15 -4 -8 -10 -12 -15 -9 -5 3 -9 0 -9 -7 0 -7 -3 -9 -7 -6 -3 4 -12 -1 -20
-11 -8 -9 -12 -11 -8 -4 3 6 1 12 -4 12 -6 0 -11 -6 -11 -14 0 -7 -7 -19 -15
-26 -8 -7 -12 -16 -9 -22 3 -5 0 -16 -8 -25 -11 -14 -11 -15 0 -9 11 6 12 -3
9 -45 -5 -59 12 -125 31 -122 11 3 17 -10 13 -31 -1 -5 5 -4 13 3 17 14 36 7
36 -14 0 -8 6 -12 13 -9 19 7 119 -45 113 -59 -3 -7 -9 -20 -12 -29 -11 -30
-41 -22 -48 13 -3 17 -3 36 0 43 3 6 -2 2 -10 -8 -9 -11 -16 -14 -16 -7 0 7
-5 9 -10 6 -6 -3 -13 1 -16 10 -4 9 -13 14 -20 11 -7 -3 -16 0 -20 6 -5 7 -2
8 6 3 9 -6 11 -4 6 4 -5 7 -14 10 -22 7 -8 -3 -23 2 -33 12 -23 22 -40 25 -57
11 -8 -6 -24 -13 -37 -14 -37 -4 -38 -5 -32 -14 3 -6 -4 -15 -15 -21 -15 -8
-20 -8 -20 2 0 8 -5 6 -11 -4 -5 -10 -17 -18 -25 -18 -8 0 -13 -4 -9 -9 3 -5
1 -12 -5 -16 -5 -3 -10 -17 -10 -30 0 -13 -6 -26 -12 -29 -10 -5 -10 -7 0 -12
6 -3 12 -14 12 -24 0 -10 -6 -21 -12 -23 -10 -4 -10 -6 0 -6 6 -1 12 -13 12
-27 0 -20 -4 -25 -16 -20 -11 4 -8 -3 8 -23 13 -15 26 -27 30 -24 4 2 17 -7
29 -21 12 -14 26 -23 31 -20 5 3 27 -6 48 -20 46 -31 57 -32 89 -9 14 9 21 11
16 4 -6 -10 -3 -11 13 -2 11 6 22 17 25 26 4 8 13 12 21 9 19 -7 64 39 68 69
4 29 32 28 36 -1 2 -12 13 -27 25 -33 12 -6 31 -20 42 -30 20 -17 23 -19 46
-19 6 0 8 -7 5 -16 -3 -8 -2 -12 4 -9 14 9 52 -4 45 -16 -7 -11 22 -1 53 19
12 8 22 10 22 5 0 -5 7 -10 15 -10 8 0 15 9 15 19 0 11 5 16 10 13 6 -3 10 -2
10 3 0 13 51 25 62 14 4 -4 -6 -18 -23 -31 -18 -13 -28 -17 -24 -10 4 8 -2 4
-14 -8 -13 -14 -27 -20 -38 -16 -12 5 -14 3 -8 -8 5 -8 -2 -5 -16 6 -13 11
-18 13 -11 5 14 -17 16 -34 2 -25 -11 7 -12 5 -17 -85 -6 -103 -5 -121 6 -134
6 -7 7 -17 3 -21 -4 -5 -2 -5 4 -2 14 8 31 -12 31 -35 0 -24 -14 -23 -27 1 -8
16 -15 18 -39 11 -16 -4 -32 -6 -34 -3 -3 2 -11 -5 -17 -17 -8 -14 -17 -19
-28 -15 -9 3 -13 3 -9 -1 4 -4 -17 -22 -46 -39 -37 -22 -51 -37 -49 -50 2 -10
-2 -22 -10 -26 -7 -5 71 -9 180 -9 176 0 192 1 193 18 0 14 2 14 9 -3 8 -18 9
-17 9 8 1 15 -3 27 -7 27 -4 0 -25 16 -46 35 -21 19 -42 32 -47 30 -4 -3 -13
3 -18 14 -16 28 6 32 52 8 20 -10 37 -21 37 -24 0 -2 -6 -1 -12 3 -7 4 -10 3
-5 -1 4 -5 16 -9 27 -10 19 -2 20 5 20 199 0 191 -1 202 -20 214 -19 11 -19
14 -5 36 9 13 13 31 9 41 -4 11 -3 16 2 13 5 -4 10 7 11 24 0 21 -2 26 -8 17
-6 -10 -9 -3 -8 21 0 29 2 31 9 15 7 -16 8 -12 7 17 -1 20 -4 35 -7 33 -3 -1
-12 12 -21 31 -13 27 -14 34 -2 38 7 3 13 1 13 -5 0 -6 5 -7 10 -4 14 8 13
402 0 410 -6 3 -13 -1 -16 -9 -3 -9 -10 -13 -15 -10 -5 3 -9 0 -9 -6 0 -7 -6
-10 -14 -7 -8 3 -17 -1 -20 -9 -3 -8 -15 -14 -27 -14 -12 0 -19 -3 -16 -7 4
-3 -7 -16 -25 -28 -31 -21 -31 -22 -32 -108 -1 -48 2 -87 7 -87 4 0 7 -8 7
-17 0 -11 15 -24 41 -35 22 -10 38 -22 34 -27 -4 -7 1 -8 11 -4 13 5 15 3 9
-7 -6 -10 -4 -12 8 -7 22 8 28 -4 12 -26 -13 -18 -14 -18 -24 0 -6 10 -11 14
-11 9 0 -6 -7 -1 -16 10 -8 10 -13 13 -9 7 4 -8 1 -11 -9 -7 -8 3 -18 15 -22
26 -5 16 -8 18 -15 7 -5 -8 -9 -9 -9 -3 0 6 -11 12 -25 12 -14 0 -25 -5 -25
-10 0 -5 -4 -6 -10 -3 -12 7 -53 -19 -43 -28 3 -4 0 -8 -8 -8 -34 -3 -39 -4
-38 -13 1 -12 -23 -26 -33 -20 -4 3 -8 13 -8 22 0 19 53 56 64 45 3 -3 6 0 6
8 0 11 2 11 10 -1 9 -13 10 -13 10 1 0 8 13 25 28 36 27 20 28 25 27 90 -1 37
1 78 6 90 6 15 4 23 -7 27 -9 3 -12 11 -8 18 4 7 4 10 -1 6 -4 -4 -14 0 -22
10 -10 11 -12 12 -8 2 4 -8 -1 -6 -9 4 -9 11 -16 17 -16 13 0 -4 -13 -1 -30 8
-16 9 -30 20 -30 26 0 6 -4 7 -10 4 -5 -3 -10 1 -10 9 0 9 -5 16 -11 16 -5 0
-7 -4 -4 -10 4 -6 -2 -7 -17 -1 -13 4 -29 6 -36 4z m45 -509 c3 -9 0 -20 -8
-25 -11 -7 -11 -9 -1 -9 8 0 12 -9 10 -22 -6 -41 -33 -27 -34 17 0 22 1 43 3
48 7 12 23 8 30 -9z"/>
<path d="M615 860 c-3 -5 -12 -7 -20 -3 -8 3 -15 1 -15 -5 0 -5 -7 -13 -16
-16 -10 -4 -13 -2 -8 7 4 6 -3 3 -15 -7 -12 -11 -28 -21 -36 -22 -25 -4 -85
-59 -86 -79 -1 -11 -2 -56 -3 -99 l-1 -79 40 -26 c22 -14 43 -30 47 -36 4 -5
12 -11 18 -11 5 -1 15 -2 20 -3 6 0 10 -7 10 -15 0 -8 7 -17 16 -20 9 -4 13
-2 8 5 -4 8 1 9 17 4 37 -11 44 -11 42 2 -2 8 4 10 14 6 12 -5 14 -3 8 7 -5 8
-4 11 3 6 6 -3 18 2 28 11 10 10 22 18 28 18 6 1 24 13 39 27 26 24 28 33 30
105 3 76 -6 125 -26 151 -7 8 -13 9 -17 3 -3 -7 -18 -3 -38 9 -19 12 -30 25
-26 31 4 7 -1 9 -15 4 -13 -4 -21 -2 -21 5 0 6 -5 8 -12 4 -8 -5 -9 -2 -5 9 7
18 2 23 -8 7z"/>
<path d="M110 850 c-9 -6 -10 -10 -3 -10 6 0 15 5 18 10 8 12 4 12 -15 0z"/>
<path d="M152 837 c-8 -10 -22 -15 -29 -13 -7 3 -13 2 -13 -3 0 -5 -11 -7 -26
-5 -20 2 -23 0 -14 -11 8 -9 6 -15 -7 -20 -10 -5 -22 -7 -26 -6 -5 1 -6 -3 -2
-9 3 -5 1 -10 -4 -10 -6 0 -11 -20 -11 -45 0 -25 -4 -45 -10 -45 -5 0 -9 -21
-8 -47 l1 -48 6 45 c7 44 7 44 12 -25 6 -74 3 -98 -12 -89 -5 3 -9 -82 -9
-202 0 -193 1 -206 17 -193 14 12 16 12 9 0 -6 -9 -5 -12 5 -9 8 3 13 10 12
16 -2 7 4 9 14 5 11 -4 14 -3 9 5 -4 8 -2 10 7 6 8 -3 18 0 23 7 4 8 3 10 -4
5 -7 -4 -12 -5 -12 -2 0 3 10 10 21 17 17 9 20 8 14 -3 -3 -7 0 -5 8 5 19 22
26 22 24 -3 -1 -11 -7 -20 -15 -20 -7 0 -11 -4 -8 -9 3 -5 -1 -12 -10 -15 -10
-4 -13 -2 -9 7 4 6 -3 1 -14 -13 -11 -14 -21 -21 -21 -17 0 5 -7 1 -16 -7 -8
-9 -20 -14 -25 -11 -5 4 -9 -12 -9 -34 l0 -41 179 0 c165 0 179 1 183 18 6 21
-14 66 -24 56 -4 -3 -11 4 -18 15 -6 12 -15 19 -20 16 -12 -8 -112 50 -103 59
4 4 -5 3 -19 -3 -36 -13 -56 14 -31 41 12 13 15 36 14 90 -1 40 -3 80 -4 88
-4 22 -33 61 -40 53 -4 -3 -7 0 -7 7 0 7 -3 10 -6 7 -11 -11 -46 14 -40 28 3
9 -3 12 -19 11 -15 -2 -25 3 -28 15 -4 13 0 16 12 11 14 -5 15 -4 1 14 -10 13
-3 10 21 -8 20 -15 39 -25 41 -22 3 2 11 -2 18 -11 7 -8 18 -15 26 -15 7 0 16
-4 19 -10 3 -6 -1 -7 -12 -4 -17 5 -17 5 -1 -6 13 -8 23 -8 37 0 11 5 29 10
41 10 11 0 23 7 26 15 4 8 10 13 14 10 4 -3 13 2 20 10 7 8 16 12 21 10 4 -3
13 4 19 15 6 11 15 18 20 15 22 -14 32 193 10 219 -5 7 -6 17 -2 21 4 5 0 6
-10 2 -10 -4 -29 6 -52 29 -34 33 -54 45 -41 24 4 -6 -5 -5 -19 2 -14 6 -26
15 -26 19 0 14 -52 4 -68 -14z"/>
<path d="M2 715 c0 -16 2 -22 5 -12 2 9 2 23 0 30 -3 6 -5 -1 -5 -18z"/>
<path d="M432 518 c-15 -15 -65 -20 -56 -6 4 7 2 8 -5 4 -6 -4 -8 -12 -5 -18
5 -8 1 -9 -10 -5 -9 4 -15 3 -12 -2 6 -9 -18 -24 -39 -26 -6 0 -17 -6 -25 -13
-8 -7 -27 -21 -41 -31 -23 -18 -25 -25 -24 -88 1 -39 -3 -71 -9 -75 -8 -5 -7
-8 2 -8 6 0 12 -9 12 -19 0 -28 11 -52 21 -45 13 8 11 -10 -3 -25 -11 -11 -9
-11 9 -2 33 17 41 14 36 -16 -3 -18 -1 -24 4 -16 12 17 52 8 68 -14 7 -10 16
-15 20 -12 3 4 21 3 39 -1 29 -6 33 -5 29 11 -3 11 -1 19 3 20 44 4 56 7 67
19 10 10 9 11 -2 5 -9 -5 -12 -4 -7 3 8 14 36 4 36 -13 0 -19 -47 -48 -53 -32
-3 6 -6 3 -6 -8 -1 -17 -3 -17 -11 -5 -8 13 -10 13 -10 -2 0 -10 -9 -22 -20
-28 -11 -6 -20 -20 -20 -30 0 -11 -4 -20 -10 -20 -5 0 -10 -4 -10 -9 0 -5 81
-10 188 -11 181 -1 187 0 200 21 8 11 9 18 3 14 -6 -3 -11 1 -11 9 0 9 -9 25
-19 35 -11 11 -17 22 -14 24 2 3 -7 4 -21 3 -14 -2 -34 3 -43 11 -10 8 -12 11
-4 7 9 -4 12 -3 7 4 -4 6 -13 9 -21 6 -8 -4 -17 0 -20 8 -6 16 -75 24 -75 8 0
-5 -4 -10 -9 -10 -5 0 -8 11 -8 25 0 13 3 22 7 20 22 -14 32 193 11 219 -6 7
-9 16 -6 19 3 4 2 5 -2 2 -3 -3 -12 3 -20 13 -8 9 -11 11 -8 4 6 -11 3 -11
-13 -1 -12 7 -18 17 -15 22 3 5 0 7 -8 5 -8 -3 -20 2 -27 11 -8 9 -10 10 -7 3
6 -11 3 -12 -14 -3 -24 13 -27 27 -8 34 6 2 9 7 6 10 -3 4 -10 2 -17 -5z"/>
<path d="M1637 509 c5 -19 4 -20 -15 -10 -26 14 -55 14 -47 1 6 -10 -7 -14
-34 -11 -7 2 -10 -2 -7 -7 6 -10 -21 -27 -37 -23 -8 1 -15 -3 -60 -43 -18 -15
-25 -29 -21 -40 9 -24 -4 -68 -19 -61 -7 4 -4 0 5 -8 12 -9 16 -26 15 -56 -2
-28 2 -45 10 -48 7 -3 10 -10 6 -16 -3 -6 -1 -7 5 -3 6 4 19 -2 28 -13 9 -10
23 -17 30 -14 8 3 11 -4 9 -23 -3 -27 -2 -27 12 -9 11 17 15 17 23 6 4 -8 15
-16 24 -17 8 -1 29 -9 45 -17 29 -15 30 -14 40 14 5 16 13 29 16 29 3 0 4 -4
1 -9 -4 -5 3 -7 14 -4 11 3 20 12 20 20 0 8 3 12 8 9 4 -2 27 13 52 34 34 29
42 41 34 51 -6 8 -10 45 -9 84 1 63 -2 72 -24 94 -15 13 -20 21 -14 17 9 -5
11 -2 7 9 -4 9 -9 14 -12 11 -2 -3 -14 -1 -25 5 -15 8 -18 8 -12 -1 6 -9 2 -9
-14 -1 -11 7 -21 16 -21 22 0 6 -4 7 -10 4 -5 -3 -10 -2 -10 4 0 5 8 12 18 14
16 4 16 5 0 6 -10 0 -18 6 -18 11 0 6 -4 10 -9 10 -5 0 -7 -10 -4 -21z"/>
<path d="M1193 505 c-18 -8 -33 -11 -33 -7 0 4 -7 -1 -15 -12 -8 -10 -19 -15
-26 -10 -8 4 -10 3 -5 -4 6 -11 2 -13 -19 -12 -3 1 -13 -6 -21 -15 -9 -8 -21
-15 -28 -15 -19 0 -31 -38 -31 -92 1 -30 -3 -44 -10 -40 -5 3 -4 -2 4 -11 7
-9 11 -30 9 -46 -3 -19 2 -38 15 -53 10 -13 16 -17 12 -11 -4 9 -1 11 9 7 9
-3 13 -10 10 -15 -3 -5 9 -12 26 -15 17 -4 35 -15 40 -25 13 -23 75 -36 95
-19 8 7 15 9 15 4 0 -4 9 2 20 14 28 29 30 28 19 -10 -5 -18 -9 -35 -9 -37 0
-2 -10 4 -21 15 -22 19 -22 19 -11 -2 9 -16 7 -22 -10 -33 -11 -7 -17 -15 -14
-18 3 -4 0 -13 -7 -21 -9 -13 -9 -14 1 -8 6 4 12 2 12 -3 0 -7 60 -11 179 -11
153 0 180 2 185 16 3 8 11 12 17 8 8 -4 9 -3 5 5 -4 6 -11 9 -15 7 -4 -3 -13
9 -20 25 -9 21 -23 32 -51 39 -22 6 -44 18 -49 28 -5 9 -12 16 -15 15 -13 -6
-27 -3 -22 5 7 12 -35 12 -57 1 -15 -9 -18 -8 -12 3 3 7 0 5 -8 -5 -15 -18
-16 -18 -26 2 -9 17 -8 22 10 32 15 8 19 8 15 0 -4 -6 -3 -11 2 -11 12 0 25
38 22 68 -1 12 3 22 9 22 6 0 11 7 11 16 0 9 -5 12 -12 8 -8 -5 -9 3 -5 28 6
41 -6 105 -24 122 -9 8 -10 8 -4 -2 13 -24 -36 7 -69 42 -16 18 -26 23 -23 13
6 -16 5 -16 -18 -1 -14 9 -22 20 -19 25 7 11 6 11 -33 -6z m129 -387 c-16 -16
-35 3 -26 26 6 16 8 16 22 2 13 -12 14 -19 4 -28z"/>
<path d="M460 506 c0 -2 7 -7 16 -10 8 -3 12 -2 9 4 -6 10 -25 14 -25 6z"/>
<path d="M99 473 c-13 -16 -12 -17 4 -4 9 7 17 15 17 17 0 8 -8 3 -21 -13z"/>
<path d="M965 160 c-3 -5 -3 -10 2 -10 4 0 -7 -9 -25 -20 -18 -11 -37 -18 -42
-15 -4 3 -10 -1 -13 -9 -3 -8 -17 -13 -36 -11 -25 2 -29 0 -21 -10 8 -9 8 -15
0 -20 -5 -3 -10 -19 -10 -36 l0 -29 178 0 c98 0 181 3 184 6 12 12 -10 60 -33
71 -13 7 -23 17 -22 23 2 5 -12 17 -30 25 -28 14 -30 14 -13 0 24 -18 8 -20
-16 -1 -10 7 -15 16 -11 20 4 4 -1 4 -11 0 -13 -5 -17 -4 -13 4 5 7 -4 9 -28
7 -19 -2 -32 1 -29 6 3 5 3 9 0 9 -3 0 -8 -4 -11 -10z"/>
<path d="M1480 130 c0 -5 5 -10 11 -10 5 0 7 5 4 10 -3 6 -8 10 -11 10 -2 0
-4 -4 -4 -10z"/>
<path d="M2 20 c0 -14 2 -19 5 -12 2 6 2 18 0 25 -3 6 -5 1 -5 -13z"/>
</g>
</svg>
