<?xml version="1.0" standalone="no"?>
<!DOCTYPE svg PUBLIC "-//W3C//DTD SVG 20010904//EN"
 "http://www.w3.org/TR/2001/REC-SVG-20010904/DTD/svg10.dtd">
<svg version="1.0" xmlns="http://www.w3.org/2000/svg"
 width="200.000000pt" height="200.000000pt" viewBox="0 0 200.000000 200.000000"
 preserveAspectRatio="xMidYMid meet">
<metadata>
Created by potrace 1.16, written by Peter Selinger 2001-2019
</metadata>
<g transform="translate(0.000000,200.000000) scale(0.100000,-0.100000)"
fill="#000000" stroke="none">
<path d="M0 1967 c0 -18 6 -39 13 -46 10 -11 10 -13 0 -7 -10 6 -13 -41 -13
-219 0 -178 3 -225 13 -219 10 6 10 4 0 -7 -9 -9 -13 -49 -13 -124 l0 -110 99
-58 99 -57 93 54 c92 53 94 54 100 97 l6 44 1 -42 2 -42 101 -56 c55 -31 98
-59 95 -62 -5 -5 -120 55 -168 89 l-27 19 -93 -54 -93 -54 0 -114 0 -113 92
-53 93 -52 67 40 c38 23 80 49 95 60 15 10 30 15 33 10 3 -6 -40 -35 -95 -66
-76 -44 -100 -62 -101 -79 -1 -19 -1 -19 -8 3 -4 17 -34 40 -99 78 l-93 53
-100 -56 -99 -56 0 -112 c0 -76 4 -116 13 -125 9 -11 9 -13 0 -7 -10 6 -13
-41 -13 -219 0 -178 3 -225 12 -219 11 6 11 4 0 -7 -6 -7 -12 -28 -12 -46 l0
-33 195 0 195 0 0 38 c-1 36 -3 38 -85 85 -47 27 -85 51 -85 54 0 3 17 -5 38
-17 107 -64 142 -81 154 -74 10 5 11 4 1 -7 -7 -7 -13 -28 -13 -46 l0 -33 198
0 198 0 2 35 c3 34 1 35 -102 92 -58 32 -106 62 -106 66 0 5 15 0 32 -11 18
-11 66 -38 105 -62 l73 -42 96 56 c53 31 100 53 105 50 5 -3 -21 -21 -58 -41
-38 -19 -75 -41 -83 -48 -8 -6 -23 -15 -33 -18 -12 -4 -17 -17 -17 -42 l0 -35
204 0 c186 0 205 2 209 17 4 17 5 17 6 1 1 -17 25 -18 360 -18 278 0 360 3
364 13 4 10 6 10 6 0 1 -7 10 -13 21 -13 18 0 20 7 20 61 0 47 -4 65 -18 75
-16 13 -16 14 1 8 16 -6 17 6 17 161 0 155 -1 167 -17 161 -17 -6 -17 -5 0 8
16 12 17 49 17 520 0 278 -4 506 -8 506 -5 0 -17 7 -28 16 -18 15 -18 15 3 5
12 -6 24 -11 27 -11 3 0 6 84 6 186 0 173 -1 186 -17 180 -17 -6 -17 -5 0 8
12 9 17 28 17 65 l0 51 -175 0 -175 0 0 -24 c0 -13 8 -30 18 -37 15 -13 15
-13 -3 -3 -11 6 -21 23 -23 38 l-3 26 -220 0 -219 0 0 -34 c0 -23 7 -39 23
-50 l22 -17 -23 11 c-19 9 -37 3 -122 -46 l-100 -56 -100 56 c-98 56 -100 57
-130 41 -16 -8 -30 -13 -30 -11 0 3 12 12 27 20 22 11 28 21 29 50 l1 36 -198
0 c-148 0 -199 -3 -202 -12 -4 -10 -6 -10 -6 0 -1 9 -47 12 -196 12 l-195 0 0
-33z m1960 -21 c0 -2 -7 -7 -16 -10 -8 -3 -12 -2 -9 4 6 10 25 14 25 6z
m-1470 -73 c0 -3 -20 7 -45 21 -43 26 -46 26 -77 11 -27 -13 -30 -13 -13 -1
11 8 24 19 30 24 8 7 105 -43 105 -55z m1070 52 c0 -2 -10 -9 -22 -15 -22 -11
-22 -10 -4 4 21 17 26 19 26 11z m360 0 c0 -2 -13 -11 -30 -20 -38 -19 -40
-11 -2 9 31 17 32 18 32 11z m-280 -31 c0 -2 -9 0 -20 6 -11 6 -20 13 -20 16
0 2 9 0 20 -6 11 -6 20 -13 20 -16z m120 -10 c0 -2 -13 2 -30 11 -16 9 -30 18
-30 21 0 2 14 -2 30 -11 17 -9 30 -18 30 -21z m-1670 -10 c0 -2 -13 2 -30 11
-16 9 -30 18 -30 21 0 2 14 -2 30 -11 17 -9 30 -18 30 -21z m1220 -10 c0 -2
-13 2 -30 11 -16 9 -30 18 -30 21 0 2 14 -2 30 -11 17 -9 30 -18 30 -21z m260
31 c0 -2 -10 -9 -22 -15 -22 -11 -22 -10 -4 4 21 17 26 19 26 11z m-1240 -10
c0 -2 -13 -11 -30 -20 -38 -19 -40 -11 -2 9 31 17 32 18 32 11z m400 0 c0 -2
-13 -11 -30 -20 -38 -19 -40 -11 -2 9 31 17 32 18 32 11z m620 -21 c0 -2 -9 0
-20 6 -11 6 -20 13 -20 16 0 2 9 0 20 -6 11 -6 20 -13 20 -16z m140 21 c0 -2
-10 -9 -22 -15 -22 -11 -22 -10 -4 4 21 17 26 19 26 11z m220 -31 c0 -2 -13 2
-30 11 -16 9 -30 18 -30 21 0 2 14 -2 30 -11 17 -9 30 -18 30 -21z m140 31 c0
-2 -10 -9 -22 -15 -22 -11 -22 -10 -4 4 21 17 26 19 26 11z m-55 -23 c-3 -3
-11 0 -18 7 -9 10 -8 11 6 5 10 -3 15 -9 12 -12z m-1655 -18 c0 -2 -9 0 -20 6
-11 6 -20 13 -20 16 0 2 9 0 20 -6 11 -6 20 -13 20 -16z m420 -10 c0 -2 -13 2
-30 11 -16 9 -30 18 -30 21 0 2 14 -2 30 -11 17 -9 30 -18 30 -21z m1400 31
c0 -2 -13 -11 -30 -20 -38 -19 -40 -11 -2 9 31 17 32 18 32 11z m-460 -10 c0
-2 -10 -9 -22 -15 -22 -11 -22 -10 -4 4 21 17 26 19 26 11z m-1240 -9 c0 -2
-15 -13 -34 -24 -30 -18 -36 -19 -47 -6 -10 12 -9 13 4 8 8 -3 28 1 44 10 31
17 33 18 33 12z m400 -1 c0 -2 -10 -9 -22 -15 -22 -11 -22 -10 -4 4 21 17 26
19 26 11z m750 -9 c-7 -7 -13 -7 -20 0 -6 6 -3 10 10 10 13 0 16 -4 10 -10z
m-809 -24 c-7 -2 -18 1 -23 6 -8 8 -4 9 13 5 13 -4 18 -8 10 -11z m832 1 c-21
-14 -23 -23 -23 -117 0 -56 4 -106 10 -112 6 -6 4 -10 -8 -10 -15 0 -17 13
-17 122 0 67 3 120 7 118 5 -3 16 0 25 5 27 16 31 12 6 -6z m364 -170 c-2 -32
-3 -8 -3 52 0 61 1 87 3 58 2 -29 2 -78 0 -110z m-1600 65 c-2 -18 -4 -6 -4
27 0 33 2 48 4 33 2 -15 2 -42 0 -60z m400 40 c-3 -7 -5 -2 -5 12 0 14 2 19 5
13 2 -7 2 -19 0 -25z m-400 -125 c-3 -10 -5 -4 -5 12 0 17 2 24 5 18 2 -7 2
-21 0 -30z m1738 -86 c6 -6 -12 2 -40 18 -27 15 -54 32 -60 38 -5 6 13 -2 40
-18 28 -15 55 -32 60 -38z m-1607 -33 c4 -4 -24 10 -62 31 -65 36 -72 37 -95
24 -160 -91 -195 -104 -54 -20 l78 46 63 -36 c35 -21 66 -41 70 -45z m339 41
c34 -20 63 -38 63 -41 0 -3 -29 11 -65 31 -36 21 -72 34 -81 31 -8 -3 -12 -2
-9 4 10 16 24 12 92 -25z m448 -29 c55 -31 92 -56 83 -56 -9 0 -54 23 -101 50
-47 28 -91 50 -97 50 -7 0 -52 -23 -101 -51 l-89 -51 0 -107 c0 -72 4 -111 13
-120 10 -10 9 -11 -4 -6 -9 3 -33 -4 -53 -15 -20 -12 -36 -20 -36 -17 0 3 15
14 34 25 l34 20 -1 112 0 111 -29 15 c-15 8 -28 17 -28 20 0 2 14 -3 31 -11
30 -16 31 -16 127 39 53 30 102 54 107 52 6 -2 55 -29 110 -60z m265 49 c0 -2
-10 -9 -22 -15 -22 -11 -22 -10 -4 4 21 17 26 19 26 11z m-820 -10 c0 -2 -10
-9 -22 -15 -22 -11 -22 -10 -4 4 21 17 26 19 26 11z m940 -21 c0 -2 -9 0 -20
6 -11 6 -20 13 -20 16 0 2 9 0 20 -6 11 -6 20 -13 20 -16z m-100 12 c0 -2 -7
-7 -16 -10 -8 -3 -12 -2 -9 4 6 10 25 14 25 6z m330 -1 c0 -2 -13 -11 -30 -20
-38 -19 -40 -11 -2 9 31 17 32 18 32 11z m-400 -10 c0 -2 -13 -11 -30 -20 -38
-19 -40 -11 -2 9 31 17 32 18 32 11z m480 -9 c0 -2 -7 -7 -16 -10 -8 -3 -12
-2 -9 4 6 10 25 14 25 6z m-1320 -11 c0 -2 -10 -9 -22 -15 -22 -11 -22 -10 -4
4 21 17 26 19 26 11z m850 0 c0 -2 -10 -9 -22 -15 -22 -11 -22 -10 -4 4 21 17
26 19 26 11z m160 -21 c0 -2 -9 0 -20 6 -11 6 -20 13 -20 16 0 2 9 0 20 -6 11
-6 20 -13 20 -16z m360 0 c0 -2 -9 0 -20 6 -11 6 -20 13 -20 16 0 2 9 0 20 -6
11 -6 20 -13 20 -16z m-1480 -20 c0 -2 -9 0 -20 6 -11 6 -20 13 -20 16 0 2 9
0 20 -6 11 -6 20 -13 20 -16z m880 21 c0 -2 -10 -9 -22 -15 -22 -11 -22 -10
-4 4 21 17 26 19 26 11z m325 -13 c-3 -3 -11 0 -18 7 -9 10 -8 11 6 5 10 -3
15 -9 12 -12z m165 13 c0 -2 -10 -9 -22 -15 -22 -11 -22 -10 -4 4 21 17 26 19
26 11z m-460 -10 c0 -2 -13 -11 -29 -20 -16 -8 -32 -25 -34 -37 l-4 -23 -2 23
c-1 15 9 28 32 42 35 21 37 22 37 15z m620 -21 c0 -2 -9 0 -20 6 -11 6 -20 13
-20 16 0 2 9 0 20 -6 11 -6 20 -13 20 -16z m-1502 -4 c-7 -11 -15 -15 -17 -9
-2 6 3 15 10 20 20 12 21 11 7 -11z m1168 -11 c3 -6 -5 -3 -20 6 -14 10 -26
19 -26 22 0 7 39 -17 46 -28z m99 1 c-3 -5 -12 -10 -18 -10 -7 0 -6 4 3 10 19
12 23 12 15 0z m283 -41 c-3 -20 -5 -19 -9 9 -3 20 -2 29 4 23 5 -5 7 -19 5
-32z m-1561 -31 c-2 -13 -4 -5 -4 17 -1 22 1 32 4 23 2 -10 2 -28 0 -40z
m1180 5 c-3 -10 -5 -2 -5 17 0 19 2 27 5 18 2 -10 2 -26 0 -35z m-380 5 c-3
-8 -6 -5 -6 6 -1 11 2 17 5 13 3 -3 4 -12 1 -19z m30 -50 c-2 -13 -4 -3 -4 22
0 25 2 35 4 23 2 -13 2 -33 0 -45z m-830 -10 c-3 -8 -6 -5 -6 6 -1 11 2 17 5
13 3 -3 4 -12 1 -19z m1180 0 c-3 -8 -6 -5 -6 6 -1 11 2 17 5 13 3 -3 4 -12 1
-19z m-350 -70 c-2 -13 -4 -5 -4 17 -1 22 1 32 4 23 2 -10 2 -28 0 -40z m350
30 c-3 -8 -6 -5 -6 6 -1 11 2 17 5 13 3 -3 4 -12 1 -19z m113 -55 c0 -7 -39
17 -46 28 -3 6 5 3 20 -6 14 -10 26 -19 26 -22z m-110 17 c0 -5 -10 -15 -22
-21 l-23 -12 20 21 c23 24 25 25 25 12z m-300 -36 c0 -2 -9 0 -20 6 -11 6 -20
13 -20 16 0 2 9 0 20 -6 11 -6 20 -13 20 -16z m640 21 c0 -2 -10 -9 -22 -15
-22 -11 -22 -10 -4 4 21 17 26 19 26 11z m-180 -31 c0 -2 -9 0 -20 6 -11 6
-20 13 -20 16 0 2 9 0 20 -6 11 -6 20 -13 20 -16z m-914 -10 c18 -14 18 -15
-3 -4 -17 8 -29 8 -45 0 -22 -11 -22 -10 -4 4 11 9 23 16 26 16 3 0 15 -7 26
-16z m314 11 c0 -2 -10 -9 -22 -15 -22 -11 -22 -10 -4 4 21 17 26 19 26 11z
m210 -31 c0 -2 -13 2 -30 11 -16 9 -30 18 -30 21 0 2 14 -2 30 -11 17 -9 30
-18 30 -21z m160 31 c0 -2 -13 -11 -30 -20 -38 -19 -40 -11 -2 9 31 17 32 18
32 11z m340 -10 c0 -2 -10 -9 -22 -15 -22 -11 -22 -10 -4 4 21 17 26 19 26 11z
m-55 -23 c-3 -3 -11 0 -18 7 -9 10 -8 11 6 5 10 -3 15 -9 12 -12z m-885 -28
c0 -2 -13 2 -30 11 -16 9 -30 18 -30 21 0 2 14 -2 30 -11 17 -9 30 -18 30 -21z
m60 0 c0 -2 -13 2 -30 11 -16 9 -30 18 -30 21 0 2 14 -2 30 -11 17 -9 30 -18
30 -21z m210 31 c0 -2 -10 -9 -22 -15 -22 -11 -22 -10 -4 4 21 17 26 19 26 11z
m-450 -10 c0 -2 -10 -9 -22 -15 -22 -11 -22 -10 -4 4 21 17 26 19 26 11z m340
0 c0 -2 -10 -9 -22 -15 -22 -11 -22 -10 -4 4 21 17 26 19 26 11z m210 -21 c0
-2 -9 0 -20 6 -11 6 -20 13 -20 16 0 2 9 0 20 -6 11 -6 20 -13 20 -16z m132
12 c7 4 8 3 4 -4 -10 -16 -18 -15 -42 4 -18 14 -18 15 4 4 12 -6 28 -8 34 -4z
m197 10 c-2 -2 -15 -9 -29 -15 -24 -11 -24 -11 -6 3 16 13 49 24 35 12z m51
-32 c0 -2 -9 0 -20 6 -11 6 -20 13 -20 16 0 2 9 0 20 -6 11 -6 20 -13 20 -16z
m-1010 11 c0 -2 -10 -9 -22 -15 -22 -11 -22 -10 -4 4 21 17 26 19 26 11z m360
-19 c-7 -7 -13 -7 -20 0 -6 6 -3 10 10 10 13 0 16 -4 10 -10z m100 9 c0 -2
-10 -9 -22 -15 -22 -11 -22 -10 -4 4 21 17 26 19 26 11z m440 0 c0 -2 -13 -11
-30 -20 -38 -19 -40 -11 -2 9 31 17 32 18 32 11z m-890 -10 c0 -2 -10 -9 -22
-15 -22 -11 -22 -10 -4 4 21 17 26 19 26 11z m1050 -16 c17 -13 18 -17 5 -10
-33 17 -51 31 -40 31 6 0 21 -10 35 -21z m-658 -11 c-5 -7 -12 -22 -15 -33 -5
-20 -5 -20 -6 1 0 11 4 25 11 32 16 16 23 15 10 0z m315 -60 c-2 -13 -4 -3 -4
22 0 25 2 35 4 23 2 -13 2 -33 0 -45z m113 58 c0 -2 -8 -10 -17 -17 -16 -13
-17 -12 -4 4 13 16 21 21 21 13z m267 -28 c-3 -8 -6 -5 -6 6 -1 11 2 17 5 13
3 -3 4 -12 1 -19z m-290 -95 c-2 -16 -4 -5 -4 22 0 28 2 40 4 28 2 -13 2 -35
0 -50z m-90 -45 c-2 -18 -4 -6 -4 27 0 33 2 48 4 33 2 -15 2 -42 0 -60z m-330
40 c-3 -7 -5 -2 -5 12 0 14 2 19 5 13 2 -7 2 -19 0 -25z m710 -20 c-3 -8 -6
-5 -6 6 -1 11 2 17 5 13 3 -3 4 -12 1 -19z m-770 -45 c-3 -10 -5 -2 -5 17 0
19 2 27 5 18 2 -10 2 -26 0 -35z m77 -3 c10 -13 9 -13 -6 -1 -10 7 -17 23 -17
35 1 20 2 20 6 1 3 -11 10 -27 17 -35z m886 -6 c0 -2 -13 2 -30 11 -16 9 -30
18 -30 21 0 2 14 -2 30 -11 17 -9 30 -18 30 -21z m-1280 -20 c0 -2 -9 0 -20 6
-11 6 -20 13 -20 16 0 2 9 0 20 -6 11 -6 20 -13 20 -16z m300 11 c0 -2 -10 -9
-22 -15 -22 -11 -22 -10 -4 4 21 17 26 19 26 11z m150 -21 c0 -2 -9 0 -20 6
-11 6 -20 13 -20 16 0 2 9 0 20 -6 11 -6 20 -13 20 -16z m440 0 c0 -2 -9 0
-20 6 -11 6 -20 13 -20 16 0 2 9 0 20 -6 11 -6 20 -13 20 -16z m440 0 c0 -2
-9 0 -20 6 -11 6 -20 13 -20 16 0 2 9 0 20 -6 11 -6 20 -13 20 -16z m-1000 11
c0 -2 -10 -9 -22 -15 -22 -11 -22 -10 -4 4 21 17 26 19 26 11z m60 -21 c0 -2
-9 0 -20 6 -11 6 -20 13 -20 16 0 2 9 0 20 -6 11 -6 20 -13 20 -16z m-380 -10
c0 -2 -9 0 -20 6 -11 6 -20 13 -20 16 0 2 9 0 20 -6 11 -6 20 -13 20 -16z m60
-10 c0 -2 -9 0 -20 6 -11 6 -20 13 -20 16 0 2 9 0 20 -6 11 -6 20 -13 20 -16z
m180 21 c0 -2 -13 -11 -30 -20 -38 -19 -40 -11 -2 9 31 17 32 18 32 11z m370
0 c0 -2 -10 -9 -22 -15 -22 -11 -22 -10 -4 4 21 17 26 19 26 11z m100 0 c0 -2
-10 -9 -22 -15 -22 -11 -22 -10 -4 4 21 17 26 19 26 11z m80 -21 c0 -2 -9 0
-20 6 -11 6 -20 13 -20 16 0 2 9 0 20 -6 11 -6 20 -13 20 -16z m140 0 c0 -2
-9 0 -20 6 -11 6 -20 13 -20 16 0 2 9 0 20 -6 11 -6 20 -13 20 -16z m-500 -10
c0 -2 -9 0 -20 6 -11 6 -20 13 -20 16 0 2 9 0 20 -6 11 -6 20 -13 20 -16z m80
0 c0 -2 -9 0 -20 6 -11 6 -20 13 -20 16 0 2 9 0 20 -6 11 -6 20 -13 20 -16z
m-460 -10 c0 -2 -9 0 -20 6 -11 6 -20 13 -20 16 0 2 9 0 20 -6 11 -6 20 -13
20 -16z m200 21 c0 -2 -10 -9 -22 -15 -22 -11 -22 -10 -4 4 21 17 26 19 26 11z
m410 -10 c0 -2 -10 -9 -22 -15 -22 -11 -22 -10 -4 4 21 17 26 19 26 11z m440
0 c0 -2 -10 -9 -22 -15 -22 -11 -22 -10 -4 4 21 17 26 19 26 11z m-947 -15
c21 11 21 10 3 -4 -11 -9 -23 -16 -26 -16 -3 0 -15 7 -26 16 -18 14 -18 15 4
4 16 -8 28 -8 45 0z m372 -40 c3 -5 -10 -1 -29 11 -20 12 -36 23 -36 25 0 7
58 -25 65 -36z m-367 17 c27 17 27 17 -3 -12 -16 -17 -32 -25 -34 -20 -2 6
-13 18 -25 29 -21 18 -21 18 7 2 25 -15 29 -15 55 1z m892 8 c0 -2 -13 -11
-30 -20 -38 -19 -40 -11 -2 9 31 17 32 18 32 11z m-477 -23 c-20 -15 -23 -27
-26 -127 l-3 -110 -2 112 c-2 105 -1 113 20 127 30 22 39 20 11 -2z m338 -9
c13 -16 12 -17 -3 -4 -17 13 -22 21 -14 21 2 0 10 -8 17 -17z m61 -99 c-2 -68
0 -100 10 -112 12 -15 11 -16 -4 -3 -15 11 -18 30 -18 106 0 75 4 105 14 105
1 0 0 -43 -2 -96z m-845 34 c-3 -7 -5 -2 -5 12 0 14 2 19 5 13 2 -7 2 -19 0
-25z m-400 0 c-3 -8 -6 -5 -6 6 -1 11 2 17 5 13 3 -3 4 -12 1 -19z m1190 -30
c-3 -8 -6 -5 -6 6 -1 11 2 17 5 13 3 -3 4 -12 1 -19z m-787 -82 c-7 -7 -10 9
-9 45 l1 54 9 -45 c5 -28 5 -48 -1 -54z m-403 2 c-3 -7 -5 -2 -5 12 0 14 2 19
5 13 2 -7 2 -19 0 -25z m1190 -15 c-3 -10 -5 -4 -5 12 0 17 2 24 5 18 2 -7 2
-21 0 -30z m380 -15 c-3 -8 -6 -5 -6 6 -1 11 2 17 5 13 3 -3 4 -12 1 -19z
m-1543 -31 c21 -17 21 -17 -6 -6 -18 8 -28 19 -27 33 0 14 2 16 6 6 3 -8 15
-23 27 -33z m1526 18 c0 -2 -10 -9 -22 -15 -22 -11 -22 -10 -4 4 21 17 26 19
26 11z m-1050 -61 c80 -45 102 -53 118 -45 11 6 22 7 26 4 3 -3 6 0 6 7 0 7 3
11 6 8 3 -4 14 2 25 13 11 11 24 17 29 14 6 -4 10 -2 10 3 0 4 17 18 38 29
l37 22 25 -20 c23 -19 23 -20 2 -9 -19 9 -31 6 -76 -19 -29 -17 -56 -28 -59
-24 -4 3 -7 2 -7 -4 0 -6 -16 -20 -35 -32 l-35 -20 0 -104 c0 -68 4 -108 13
-117 10 -12 9 -12 -6 0 -16 12 -18 27 -15 122 2 59 0 108 -4 108 -3 0 -50 25
-103 56 l-96 55 -99 -57 c-55 -32 -100 -63 -102 -71 -2 -7 -8 -3 -14 11 -9 20
-8 23 5 19 9 -2 59 21 111 51 52 31 97 56 98 56 2 0 48 -25 102 -56z m830 20
c0 -2 -13 2 -30 11 -16 9 -30 18 -30 21 0 2 14 -2 30 -11 17 -9 30 -18 30 -21z
m-1350 21 c0 -2 -10 -9 -22 -15 -22 -11 -22 -10 -4 4 21 17 26 19 26 11z
m-290 -41 c0 -2 -13 2 -30 11 -16 9 -30 18 -30 21 0 2 14 -2 30 -11 17 -9 30
-18 30 -21z m1810 31 c0 -2 -10 -9 -22 -15 -22 -11 -22 -10 -4 4 21 17 26 19
26 11z m-1410 -31 c0 -2 -9 0 -20 6 -11 6 -20 13 -20 16 0 2 9 0 20 -6 11 -6
20 -13 20 -16z m830 0 c0 -2 -9 0 -20 6 -11 6 -20 13 -20 16 0 2 9 0 20 -6 11
-6 20 -13 20 -16z m289 22 c-2 -2 -15 -9 -29 -15 -24 -11 -24 -11 -6 3 16 13
49 24 35 12z m-1279 -11 c0 -2 -29 -20 -65 -40 -36 -20 -65 -41 -65 -46 0 -5
-9 0 -19 10 -11 11 -34 27 -50 36 -17 8 -31 18 -31 21 0 3 22 -7 49 -22 l48
-27 64 36 c69 39 69 39 69 32z m1330 -21 c0 -2 -9 0 -20 6 -11 6 -20 13 -20
16 0 2 9 0 20 -6 11 -6 20 -13 20 -16z m146 -12 c-5 -4 -66 26 -66 33 0 3 16
-3 35 -12 19 -9 33 -18 31 -21z m-496 2 c0 -2 -9 0 -20 6 -11 6 -20 13 -20 16
0 2 9 0 20 -6 11 -6 20 -13 20 -16z m160 11 c0 -2 -13 -11 -30 -20 -38 -19
-40 -11 -2 9 31 17 32 18 32 11z m80 0 c0 -2 -13 -11 -30 -20 -38 -19 -40 -11
-2 9 31 17 32 18 32 11z m-990 -31 c0 -2 -9 0 -20 6 -11 6 -20 13 -20 16 0 2
9 0 20 -6 11 -6 20 -13 20 -16z m839 0 c14 -12 -19 -1 -35 12 -18 14 -18 14 6
3 14 -6 27 -13 29 -15z m331 -10 c0 -2 -9 0 -20 6 -11 6 -20 13 -20 16 0 2 9
0 20 -6 11 -6 20 -13 20 -16z m230 21 c0 -2 -13 -11 -30 -20 -38 -19 -40 -11
-2 9 31 17 32 18 32 11z m-580 -31 c0 -2 -9 0 -20 6 -11 6 -20 13 -20 16 0 2
9 0 20 -6 11 -6 20 -13 20 -16z m100 11 c0 -2 -10 -9 -22 -15 -22 -11 -22 -10
-4 4 21 17 26 19 26 11z m410 -20 c0 -2 -10 -9 -22 -15 -22 -11 -22 -10 -4 4
21 17 26 19 26 11z m-463 -37 c-3 -7 -5 -2 -5 12 0 14 2 19 5 13 2 -7 2 -19 0
-25z m-1230 -25 c-3 -10 -5 -4 -5 12 0 17 2 24 5 18 2 -7 2 -21 0 -30z m1580
-5 c-3 -8 -6 -5 -6 6 -1 11 2 17 5 13 3 -3 4 -12 1 -19z m-350 -105 c-2 -21
-4 -4 -4 37 0 41 2 58 4 38 2 -21 2 -55 0 -75z m-1230 45 c-3 -7 -5 -2 -5 12
0 14 2 19 5 13 2 -7 2 -19 0 -25z m1580 -5 c-3 -10 -5 -4 -5 12 0 17 2 24 5
18 2 -7 2 -21 0 -30z m-1580 -35 c-3 -8 -6 -5 -6 6 -1 11 2 17 5 13 3 -3 4
-12 1 -19z m1575 -50 c-8 -8 -9 -4 -5 13 4 13 8 18 11 10 2 -7 -1 -18 -6 -23z
m-386 -6 c-17 -16 -18 -16 -5 5 7 12 15 20 18 17 3 -2 -3 -12 -13 -22z m504 2
c0 -2 -9 0 -20 6 -11 6 -20 13 -20 16 0 2 9 0 20 -6 11 -6 20 -13 20 -16z
m-1693 -13 c-7 -2 -21 -8 -32 -14 -16 -8 -15 -4 5 14 15 15 28 20 32 14 4 -5
2 -12 -5 -14z m1283 -7 c0 -2 -9 0 -20 6 -11 6 -20 13 -20 16 0 2 9 0 20 -6
11 -6 20 -13 20 -16z m-125 -3 c-16 -14 -105 -63 -105 -58 0 5 101 66 110 67
2 0 0 -4 -5 -9z m375 4 c0 -2 -10 -9 -22 -15 -22 -11 -22 -10 -4 4 21 17 26
19 26 11z m230 -21 c0 -2 -9 0 -20 6 -11 6 -20 13 -20 16 0 2 9 0 20 -6 11 -6
20 -13 20 -16z m-1400 11 c0 -2 -13 -11 -30 -20 -38 -19 -40 -11 -2 9 31 17
32 18 32 11z m500 -21 c0 -2 -9 0 -20 6 -11 6 -20 13 -20 16 0 2 9 0 20 -6 11
-6 20 -13 20 -16z m40 0 c0 -2 -9 0 -20 6 -11 6 -20 13 -20 16 0 2 9 0 20 -6
11 -6 20 -13 20 -16z m-960 11 c0 -2 -10 -9 -22 -15 -22 -11 -22 -10 -4 4 21
17 26 19 26 11z m1284 -4 c4 -5 -3 -7 -14 -4 -23 6 -26 13 -6 13 8 0 17 -4 20
-9z m126 -17 c0 -2 -9 0 -20 6 -11 6 -20 13 -20 16 0 2 9 0 20 -6 11 -6 20
-13 20 -16z m-400 -20 c0 -2 -9 0 -20 6 -11 6 -20 13 -20 16 0 2 9 0 20 -6 11
-6 20 -13 20 -16z m210 21 c0 -2 -10 -9 -22 -15 -22 -11 -22 -10 -4 4 21 17
26 19 26 11z m140 -31 c0 -2 -13 2 -30 11 -16 9 -30 18 -30 21 0 2 14 -2 30
-11 17 -9 30 -18 30 -21z m160 31 c0 -2 -10 -9 -22 -15 -22 -11 -22 -10 -4 4
21 17 26 19 26 11z m-1170 -10 c0 -2 -13 -11 -30 -20 -38 -19 -40 -11 -2 9 31
17 32 18 32 11z m1119 -21 c14 -12 -19 -1 -35 12 -18 14 -18 14 6 3 14 -6 27
-13 29 -15z m-1539 11 c0 -2 -10 -9 -22 -15 -22 -11 -22 -10 -4 4 21 17 26 19
26 11z m1700 0 c0 -2 -10 -9 -22 -15 -22 -11 -22 -10 -4 4 21 17 26 19 26 11z
m140 -41 c0 -2 -13 2 -30 11 -16 9 -30 18 -30 21 0 2 14 -2 30 -11 17 -9 30
-18 30 -21z m-700 12 c-7 -7 -13 -7 -20 0 -6 6 -3 10 10 10 13 0 16 -4 10 -10z
m80 9 c0 -2 -10 -9 -22 -15 -22 -11 -22 -10 -4 4 21 17 26 19 26 11z m260 -21
c0 -2 -9 0 -20 6 -11 6 -20 13 -20 16 0 2 9 0 20 -6 11 -6 20 -13 20 -16z
m170 12 c0 -2 -16 -13 -35 -25 -19 -11 -35 -18 -35 -16 0 5 61 45 68 45 1 0 2
-2 2 -4z m-487 -31 c-3 -9 -8 -14 -10 -11 -3 3 -2 9 2 15 9 16 15 13 8 -4z
m345 -16 c-3 -8 -7 -3 -11 10 -4 17 -3 21 5 13 5 -5 8 -16 6 -23z m382 5 c0
-2 -9 0 -20 6 -11 6 -20 13 -20 16 0 2 9 0 20 -6 11 -6 20 -13 20 -16z"/>
<path d="M812 1964 c3 -34 8 -39 95 -90 l92 -53 93 54 c88 50 93 55 96 89 l3
36 -191 0 -191 0 3 -36z"/>
<path d="M0 1000 l0 -222 68 38 c37 21 80 46 97 56 l30 18 0 110 1 110 -91 51
c-49 29 -93 54 -97 56 -5 2 -8 -95 -8 -217z"/>
</g>
</svg>
