<?xml version="1.0" standalone="no"?>
<!DOCTYPE svg PUBLIC "-//W3C//DTD SVG 20010904//EN"
 "http://www.w3.org/TR/2001/REC-SVG-20010904/DTD/svg10.dtd">
<svg version="1.0" xmlns="http://www.w3.org/2000/svg"
 width="200.000000pt" height="200.000000pt" viewBox="0 0 200.000000 200.000000"
 preserveAspectRatio="xMidYMid meet">
<metadata>
Created by potrace 1.16, written by Peter Selinger 2001-2019
</metadata>
<g transform="translate(0.000000,200.000000) scale(0.100000,-0.100000)"
fill="#000000" stroke="none">
<path d="M0 1882 l0 -118 30 -22 c19 -15 30 -31 30 -47 0 -16 -11 -32 -30 -47
l-30 -22 0 -271 0 -272 35 -19 c32 -17 35 -22 35 -64 0 -42 -3 -47 -35 -64
l-35 -19 0 -277 0 -278 25 -16 c14 -9 25 -26 25 -37 0 -11 -11 -30 -25 -43
-24 -22 -25 -28 -25 -145 l0 -121 40 0 c22 0 40 4 40 9 0 5 26 25 58 45 l57
35 45 -26 c25 -14 52 -34 62 -44 12 -15 30 -19 76 -19 57 0 60 1 66 28 4 21
22 36 80 68 l74 41 64 -36 c85 -47 97 -58 91 -81 -4 -17 0 -20 26 -20 29 0 31
3 31 35 0 33 4 37 94 90 l94 55 88 -50 c48 -28 93 -49 100 -46 7 3 41 22 76
43 35 22 84 49 110 61 l46 23 -3 95 c-2 69 1 99 11 108 7 8 49 35 94 60 l80
47 58 -32 c31 -18 71 -41 87 -51 17 -10 36 -18 43 -18 29 0 7 21 -60 59 -119
65 -112 55 -113 165 l-1 96 -45 25 c-24 14 -70 39 -102 56 -33 19 -54 36 -49
41 5 5 46 -12 96 -41 l87 -51 91 53 91 52 -1 118 c0 66 -2 120 -4 121 -78 51
-185 106 -197 101 -9 -3 -51 -27 -94 -52 l-78 -45 2 -126 1 -125 -31 -13 c-17
-7 -62 -31 -100 -53 -38 -23 -74 -41 -80 -41 -6 0 -56 26 -111 58 l-100 57 0
125 0 125 110 63 109 63 3 107 3 106 75 44 c41 23 82 47 90 52 12 7 15 33 15
132 l0 123 70 42 c39 23 87 50 107 60 32 15 38 23 38 51 0 25 -4 32 -19 32
-14 0 -21 -8 -23 -27 -2 -22 -18 -36 -85 -75 l-83 -47 -82 48 c-46 26 -83 54
-84 62 0 7 -2 20 -2 27 -1 7 -18 12 -47 12 -37 0 -45 -3 -45 -18 0 -18 -112
-92 -139 -92 -7 0 -42 16 -77 36 -44 24 -64 42 -64 55 0 17 -8 19 -74 19 -50
0 -75 -4 -79 -12 -2 -7 -29 -26 -59 -42 l-53 -29 -53 33 c-28 17 -52 36 -52
41 0 5 -47 9 -105 9 -87 0 -112 -4 -149 -22 l-44 -21 -37 21 c-26 16 -53 22
-96 22 l-59 0 0 -118z m1273 -19 c34 -20 72 -43 85 -50 21 -13 22 -20 22 -118
l0 -105 -37 -23 c-21 -13 -62 -36 -91 -52 l-52 -28 -43 23 c-23 12 -64 36 -90
53 l-48 30 3 105 3 106 80 47 c44 26 86 48 93 48 8 1 42 -16 75 -36z m-399
-43 l72 -40 3 -79 c2 -91 2 -91 -90 -140 l-64 -34 -55 33 c-91 55 -90 54 -90
141 l0 77 73 41 c39 22 73 40 75 41 2 0 36 -18 76 -40z m-423 -37 l49 -26 0
-61 0 -61 -45 -28 c-25 -15 -51 -27 -58 -27 -7 0 -33 14 -59 30 -48 30 -48 30
-48 85 0 55 0 55 48 85 26 16 51 30 56 30 4 0 30 -12 57 -27z m626 -289 c43
-25 80 -48 82 -50 2 -1 3 -45 2 -96 -1 -106 1 -101 -106 -159 l-60 -32 -82 49
-81 49 1 94 2 95 80 47 c44 26 81 48 82 48 1 1 37 -20 80 -45z m-384 -51 l38
-24 -3 -75 -3 -75 -65 -36 -65 -36 -62 37 -63 37 0 77 0 78 63 36 c69 40 66
40 160 -19z m-448 -16 c38 -22 40 -25 43 -77 l3 -55 -47 -28 -47 -28 -46 28
c-44 27 -46 31 -49 80 -3 50 -2 51 40 76 53 32 53 32 103 4z m617 -257 c26
-16 51 -30 54 -30 3 0 19 -9 35 -21 l30 -21 -3 -101 -3 -101 -80 -48 c-44 -26
-86 -48 -94 -48 -7 0 -51 21 -97 48 l-84 47 0 105 1 105 82 47 c45 26 88 48
96 48 8 0 36 -13 63 -30z m-397 -57 l65 -37 0 -76 0 -76 -66 -37 -65 -38 -65
36 -64 36 0 79 0 79 63 35 c34 20 63 36 65 36 2 0 32 -17 67 -37z m1019 -321
c44 -26 79 -50 78 -54 -1 -5 -2 -47 -2 -95 l0 -88 -75 -42 c-41 -24 -79 -43
-85 -43 -6 0 -44 19 -85 43 l-74 42 -1 97 0 97 78 45 c42 25 79 46 82 46 3 0
41 -21 84 -48z m-413 -23 l69 -41 0 -73 c0 -82 0 -81 -98 -136 l-43 -23 -52
28 c-85 47 -87 50 -87 132 l0 73 68 40 c37 23 68 41 70 41 2 0 35 -19 73 -41z
m-418 -24 c49 -28 56 -47 47 -119 -4 -34 -11 -43 -52 -69 l-48 -29 -55 32 -55
31 0 60 0 59 47 30 c26 17 52 30 59 30 6 0 32 -11 57 -25z m-385 -93 c-3 -42
-6 -49 -39 -66 -36 -20 -36 -20 -72 3 -33 20 -37 27 -37 65 0 38 4 44 37 63
l37 21 39 -19 c37 -19 38 -21 35 -67z m1012 -208 l80 -47 0 -91 0 -92 -80 -46
-79 -47 -81 47 -80 47 0 90 0 90 78 47 c42 25 78 47 80 47 1 1 38 -20 82 -45z
m-424 -27 l59 -33 3 -76 3 -77 -61 -35 -61 -36 -47 27 c-78 44 -80 47 -80 118
0 46 5 68 16 77 11 10 99 64 108 67 1 1 28 -14 60 -32z m-406 -39 c38 -22 40
-26 40 -70 0 -43 -3 -49 -37 -73 -46 -31 -55 -31 -104 -3 -38 21 -39 24 -39
75 0 51 1 53 38 72 48 26 55 26 102 -1z"/>
<path d="M1118 1834 l-78 -45 0 -94 0 -95 77 -45 c43 -25 81 -45 84 -45 4 0
40 19 81 43 l73 44 3 96 3 96 -78 46 c-43 25 -80 45 -83 45 -3 0 -40 -21 -82
-46z"/>
<path d="M727 1803 l-58 -36 3 -75 3 -76 50 -28 c28 -16 56 -31 62 -34 7 -3
42 10 78 31 l65 36 0 74 0 74 -63 36 c-35 19 -68 35 -73 34 -5 0 -35 -17 -67
-36z"/>
<path d="M353 1773 c-42 -24 -43 -26 -43 -78 0 -53 1 -54 44 -78 l44 -24 46
25 c45 25 46 26 46 76 0 50 0 51 -48 77 l-47 26 -42 -24z"/>
<path d="M925 1475 l-70 -41 -3 -85 -3 -85 76 -43 76 -43 72 44 72 43 2 83 1
82 -71 42 c-40 22 -74 42 -77 43 -3 1 -36 -17 -75 -40z"/>
<path d="M540 1446 l-55 -32 -3 -66 -3 -66 58 -32 58 -33 55 30 55 30 3 69 3
69 -53 30 c-29 17 -55 31 -58 32 -3 1 -30 -13 -60 -31z"/>
<path d="M157 1417 c-36 -21 -37 -24 -35 -70 3 -44 6 -50 40 -69 l36 -21 36
22 c33 21 36 26 36 70 0 44 -2 49 -37 68 l-38 21 -38 -21z"/>
<path d="M713 1136 l-73 -41 1 -95 0 -95 74 -42 c41 -24 80 -43 87 -42 7 0 45
19 83 43 l70 42 3 91 3 91 -76 46 c-42 25 -81 46 -88 45 -7 -1 -45 -20 -84
-43z"/>
<path d="M333 1097 l-53 -32 0 -63 0 -62 57 -37 57 -36 56 30 55 31 3 70 3 70
-54 31 c-30 17 -58 31 -63 30 -5 0 -33 -15 -61 -32z"/>
<path d="M1325 777 l-70 -42 -1 -82 -2 -83 70 -40 c38 -22 75 -40 81 -40 6 0
41 18 79 40 l68 41 0 82 0 82 -75 43 c-41 23 -76 42 -77 42 -2 0 -34 -20 -73
-43z"/>
<path d="M938 757 l-58 -32 0 -72 0 -71 55 -31 c30 -17 59 -31 64 -31 5 0 35
15 65 32 l57 33 -3 69 -3 70 -55 32 c-30 18 -57 33 -60 33 -3 0 -31 -14 -62
-32z"/>
<path d="M553 733 c-42 -24 -43 -25 -43 -79 0 -52 1 -54 42 -80 l43 -27 45 25
c44 25 45 26 48 80 l3 54 -48 26 -48 25 -42 -24z"/>
<path d="M162 704 c-34 -24 -31 -84 6 -106 27 -16 30 -16 60 2 26 16 32 26 32
55 0 28 -5 37 -30 50 -36 19 -40 19 -68 -1z"/>
<path d="M1128 428 l-68 -40 0 -82 0 -82 63 -37 c35 -20 69 -37 76 -37 7 0 42
16 77 36 l64 36 0 83 0 83 -67 39 c-38 21 -70 39 -73 39 -3 1 -35 -16 -72 -38z"/>
<path d="M743 399 l-53 -31 0 -63 0 -63 56 -32 56 -31 54 32 54 33 0 62 0 62
-55 31 c-30 17 -56 31 -57 31 -2 0 -27 -14 -55 -31z"/>
<path d="M358 368 c-34 -20 -38 -26 -38 -63 0 -38 3 -43 40 -64 l40 -22 35 21
c31 19 35 26 35 65 0 38 -4 46 -34 64 -40 25 -33 25 -78 -1z"/>
<path d="M173 1984 c24 -13 30 -13 49 1 22 14 20 15 -27 15 l-50 -1 28 -15z"/>
<path d="M510 1992 c0 -4 20 -18 44 -32 l45 -24 36 20 c71 37 66 44 -34 44
-50 0 -91 -3 -91 -8z"/>
<path d="M880 1985 c0 -8 27 -30 60 -49 l60 -35 60 36 c91 54 83 63 -60 63
-98 0 -120 -3 -120 -15z"/>
<path d="M1252 1978 c2 -15 26 -35 75 -64 l73 -43 75 42 c58 33 75 47 75 65 0
22 -1 22 -151 22 -149 0 -150 0 -147 -22z"/>
<path d="M1630 1972 c0 -25 10 -34 85 -76 47 -26 88 -46 93 -44 4 1 42 22 85
46 69 39 77 47 77 73 l0 29 -170 0 -170 0 0 -28z"/>
<path d="M1925 1879 c-38 -21 -80 -44 -92 -51 -22 -11 -23 -17 -23 -124 l0
-112 38 -23 c20 -13 39 -25 42 -28 11 -12 101 -54 105 -49 3 3 4 100 3 216
l-3 211 -70 -40z"/>
<path d="M1505 1856 l-90 -52 0 -109 0 -110 92 -53 93 -52 90 50 90 51 0 114
0 113 -47 28 c-27 16 -60 35 -75 43 -15 7 -26 16 -24 20 3 4 -5 7 -17 8 -12 1
-62 -22 -112 -51z"/>
<path d="M0 1695 c0 -48 0 -48 24 -39 10 4 16 18 16 39 0 21 -6 35 -16 39 -24
9 -24 9 -24 -39z"/>
<path d="M1697 1508 l-88 -51 3 -105 3 -106 93 -53 92 -54 68 37 c125 70 117
57 116 173 -1 56 -3 103 -5 105 -7 6 -187 106 -190 106 -2 0 -44 -24 -92 -52z"/>
<path d="M1318 1500 l-83 -47 -3 -105 -3 -104 86 -48 86 -48 87 50 87 51 0 96
c0 110 5 102 -102 162 l-71 41 -84 -48z"/>
<path d="M1111 1170 c-47 -27 -88 -47 -92 -44 -4 2 -7 -51 -6 -118 l2 -122 93
-53 93 -54 89 51 90 52 0 118 0 118 -89 51 c-48 28 -90 51 -92 50 -2 0 -42
-22 -88 -49z"/>
<path d="M1905 1161 l-80 -47 0 -119 0 -120 79 -47 c44 -27 83 -48 88 -48 4 0
8 97 8 215 0 118 -3 215 -7 214 -5 0 -44 -22 -88 -48z"/>
<path d="M0 1000 l0 -69 30 17 c24 14 30 24 30 52 0 28 -6 38 -30 52 l-30 17
0 -69z"/>
<path d="M1707 793 l-78 -45 3 -96 3 -95 80 -48 c44 -27 83 -48 86 -49 4 0 43
21 88 47 l81 48 0 97 0 98 -77 45 c-43 25 -84 45 -93 45 -8 -1 -50 -21 -93
-47z"/>
<path d="M1963 499 c-17 -11 -41 -21 -52 -22 -11 0 -18 -5 -15 -9 3 -4 -13
-16 -34 -27 -22 -11 -42 -27 -46 -36 -8 -22 -6 -165 3 -188 4 -11 45 -40 91
-67 l85 -48 3 104 c1 57 1 151 0 209 l-3 104 -32 -20z"/>
<path d="M1519 451 l-84 -48 -3 -96 -3 -96 68 -39 c37 -22 77 -44 88 -49 16
-9 36 -2 102 36 l83 46 0 97 0 98 -37 23 c-21 13 -59 35 -84 50 l-46 26 -84
-48z"/>
<path d="M0 305 c0 -25 4 -35 12 -32 17 5 17 59 1 65 -9 2 -13 -8 -13 -33z"/>
<path d="M1307 129 c-57 -33 -92 -60 -98 -76 -20 -54 -24 -53 180 -53 204 0
202 0 192 54 -5 23 -21 37 -91 77 -47 27 -87 49 -90 49 -3 0 -45 -23 -93 -51z"/>
<path d="M1710 135 c-41 -25 -79 -46 -83 -48 -9 -3 -16 -57 -10 -74 4 -10 50
-13 184 -13 l179 0 0 38 c0 37 -2 39 -89 90 -49 29 -93 52 -98 52 -4 0 -42
-20 -83 -45z"/>
<path d="M910 106 c-65 -38 -75 -47 -78 -75 l-3 -31 170 0 171 0 0 29 c0 26
-9 34 -80 75 -43 25 -85 46 -92 45 -7 0 -47 -19 -88 -43z"/>
<path d="M523 74 c-44 -24 -63 -41 -63 -55 0 -18 8 -19 140 -19 127 0 140 2
140 18 0 17 -115 92 -142 92 -7 0 -41 -16 -75 -36z"/>
<path d="M147 42 c-26 -15 -47 -30 -47 -34 0 -5 43 -8 95 -8 52 0 95 4 95 8 0
5 -21 20 -48 35 l-47 26 -48 -27z"/>
<path d="M1992 40 c0 -14 2 -19 5 -12 2 6 2 18 0 25 -3 6 -5 1 -5 -13z"/>
</g>
</svg>
