<?xml version="1.0" standalone="no"?>
<!DOCTYPE svg PUBLIC "-//W3C//DTD SVG 20010904//EN"
 "http://www.w3.org/TR/2001/REC-SVG-20010904/DTD/svg10.dtd">
<svg version="1.0" xmlns="http://www.w3.org/2000/svg"
 width="200.000000pt" height="200.000000pt" viewBox="0 0 200.000000 200.000000"
 preserveAspectRatio="xMidYMid meet">
<metadata>
Created by potrace 1.16, written by Peter Selinger 2001-2019
</metadata>
<g transform="translate(0.000000,200.000000) scale(0.100000,-0.100000)"
fill="#000000" stroke="none">
<path d="M0 1985 c0 -7 10 -20 23 -29 21 -16 21 -16 1 -6 -20 9 -22 7 -22 -25
0 -19 4 -32 9 -29 5 3 7 10 4 15 -9 14 0 11 39 -12 44 -26 48 -35 5 -14 -24
13 -34 14 -45 4 -15 -12 -20 -54 -6 -45 5 3 9 -1 9 -9 0 -8 -4 -12 -9 -9 -4 3
-8 -56 -8 -131 0 -75 4 -134 8 -131 5 3 9 -1 9 -9 0 -8 -4 -12 -9 -9 -4 3 -8
-4 -8 -16 0 -14 4 -19 12 -14 10 6 10 4 2 -7 -6 -8 -12 -29 -12 -46 -1 -30 1
-32 21 -23 22 10 21 10 0 -6 -24 -17 -33 -61 -10 -48 9 6 9 5 1 -7 -17 -20
-17 -868 -1 -888 9 -12 9 -13 0 -7 -9 5 -13 0 -13 -14 0 -12 4 -19 8 -16 5 3
9 -1 9 -9 0 -8 -4 -12 -9 -9 -4 3 -8 -56 -8 -131 0 -75 4 -134 8 -131 5 3 9
-1 9 -9 0 -8 -4 -12 -9 -9 -4 3 -8 -4 -8 -16 0 -14 4 -19 13 -14 9 6 9 4 -1
-7 -6 -7 -12 -36 -12 -65 l0 -51 176 -2 c129 -1 174 1 169 10 -6 8 -2 8 13 0
10 -6 40 -10 66 -9 38 0 46 4 46 19 0 11 4 19 9 19 5 0 7 -9 4 -20 -5 -19 0
-20 131 -20 97 0 135 3 130 11 -5 8 -1 8 13 0 24 -12 473 -15 473 -2 0 4 7 8
15 8 8 0 12 -4 9 -9 -3 -4 64 -8 150 -8 114 0 156 3 159 13 4 9 6 9 6 0 1 -16
45 -17 73 -2 15 8 19 8 14 0 -5 -8 33 -11 130 -11 131 0 136 1 131 20 -3 11
-1 20 4 20 5 0 9 -9 9 -20 0 -22 25 -28 33 -7 4 9 6 9 6 0 1 -7 7 -13 15 -13
17 0 19 97 2 119 -8 11 -8 13 2 7 8 -5 12 0 12 14 0 12 -4 19 -8 16 -5 -3 -9
1 -9 9 0 8 4 12 9 9 4 -3 8 56 8 131 0 75 -4 134 -8 131 -5 -3 -9 1 -9 9 0 8
4 12 9 9 4 -3 8 4 8 16 0 14 -4 19 -12 14 -10 -6 -10 -4 -1 7 15 16 17 43 3
34 -6 -4 -7 -11 -4 -17 4 -7 2 -8 -4 -4 -6 4 -26 0 -44 -9 -29 -14 -31 -14
-14 0 11 8 23 15 28 15 4 0 8 8 8 18 0 13 2 14 9 4 12 -20 28 6 29 51 1 27 -2
36 -11 31 -9 -5 -9 -4 0 7 26 27 14 65 -19 61 -3 -1 -9 5 -12 13 -6 17 9 21
19 5 3 -5 10 -10 14 -10 5 0 9 173 9 385 0 372 0 385 -19 399 -17 12 -18 14
-4 20 9 3 13 2 10 -3 -3 -5 -1 -12 5 -16 14 -9 12 18 -2 34 -10 11 -10 13 0 7
8 -5 12 0 12 14 0 12 -4 19 -8 16 -5 -3 -9 1 -9 9 0 8 4 12 9 9 4 -3 8 56 8
131 0 75 -4 134 -8 131 -5 -3 -9 1 -9 9 0 8 4 12 9 9 4 -3 8 4 8 16 0 14 -4
19 -12 14 -10 -6 -10 -5 -1 7 7 9 12 39 12 67 l-2 50 -173 2 c-156 0 -174 -1
-183 -17 -10 -17 -10 -17 -11 0 0 12 -8 17 -31 17 -28 0 -31 -3 -27 -25 3 -14
1 -28 -3 -31 -5 -3 -9 9 -9 26 l0 31 -157 -3 -158 -3 0 -27 c-1 -15 -4 -30 -8
-34 -8 -8 -10 8 -7 44 1 18 -4 22 -29 22 -20 0 -31 -6 -34 -17 -4 -17 -5 -17
-6 0 -1 16 -14 18 -160 16 -140 -1 -160 -3 -164 -17 -4 -15 -5 -15 -6 1 -1 20
-40 23 -73 6 -15 -8 -19 -8 -14 0 5 8 -33 11 -130 11 -131 0 -136 -1 -131 -20
3 -11 1 -20 -4 -20 -5 0 -9 9 -9 19 0 15 -7 19 -36 19 -30 0 -35 -3 -31 -19 3
-10 1 -19 -4 -19 -5 0 -9 9 -9 20 0 23 -4 24 -32 9 -15 -8 -19 -8 -14 0 5 8
-33 11 -130 11 -131 0 -136 -1 -131 -20 6 -24 -6 -26 -24 -3 -10 11 -10 14 -1
9 6 -4 12 -3 12 2 0 6 -16 10 -35 10 -22 0 -35 -5 -35 -13z m330 -9 c0 -3 -4
-8 -10 -11 -5 -3 -10 -1 -10 4 0 6 5 11 10 11 6 0 10 -2 10 -4z m555 -6 c3 -5
1 -10 -4 -10 -6 0 -11 5 -11 10 0 6 2 10 4 10 3 0 8 -4 11 -10z m645 0 c0 -5
-5 -10 -11 -10 -5 0 -7 5 -4 10 3 6 8 10 11 10 2 0 4 -4 4 -10z m165 -8 c-3
-3 -11 0 -18 7 -9 10 -8 11 6 5 10 -3 15 -9 12 -12z m235 8 c0 -5 -5 -10 -11
-10 -5 0 -7 5 -4 10 3 6 8 10 11 10 2 0 4 -4 4 -10z m-1555 -20 c-3 -5 -11
-10 -16 -10 -6 0 -7 5 -4 10 3 6 11 10 16 10 6 0 7 -4 4 -10z m65 0 c0 -5 -2
-10 -4 -10 -3 0 -8 5 -11 10 -3 6 -1 10 4 10 6 0 11 -4 11 -10z m340 5 c0 -2
-10 -10 -22 -16 -21 -11 -22 -11 -9 4 13 16 31 23 31 12z m60 -5 c0 -5 -2 -10
-4 -10 -3 0 -8 5 -11 10 -3 6 -1 10 4 10 6 0 11 -4 11 -10z m332 -17 c-4 -23
-2 -26 9 -15 7 6 17 12 23 12 5 0 2 -6 -9 -13 -14 -11 -15 -16 -5 -22 8 -5 18
-1 26 10 8 10 17 15 21 11 4 -4 0 -12 -10 -17 -9 -6 -14 -15 -11 -21 4 -6 -7
-3 -25 8 -17 10 -31 27 -31 37 0 12 -4 16 -12 11 -9 -5 -9 -2 1 9 20 25 29 21
23 -10z m470 3 c-2 -10 2 -24 9 -32 10 -12 9 -13 -4 -9 -17 7 -30 68 -13 62 6
-2 10 -12 8 -21z m338 20 c0 -3 -4 -8 -10 -11 -5 -3 -10 -1 -10 4 0 6 5 11 10
11 6 0 10 -2 10 -4z m-1558 -59 c-7 -5 -10 -12 -7 -18 3 -5 -1 -6 -10 -3 -14
6 -14 8 2 19 17 13 17 14 1 20 -10 4 -18 13 -18 21 0 9 8 6 23 -9 17 -17 19
-24 9 -30z m61 11 c3 -35 -16 -50 -27 -21 -3 8 -1 11 4 8 6 -4 10 7 10 26 0
42 10 32 13 -13z m72 22 c3 -6 -1 -7 -9 -4 -18 7 -21 14 -7 14 6 0 13 -4 16
-10z m328 -5 c4 -8 3 -16 -1 -19 -4 -3 -9 4 -9 15 -2 23 3 25 10 4z m413 -12
c-7 -7 -26 7 -26 19 0 6 6 6 15 -2 9 -7 13 -15 11 -17z m-1219 -5 c-3 -8 -6
-5 -6 6 -1 11 2 17 5 13 3 -3 4 -12 1 -19z m248 12 c-3 -5 -11 -10 -16 -10 -6
0 -7 5 -4 10 3 6 11 10 16 10 6 0 7 -4 4 -10z m400 0 c-3 -5 -11 -10 -16 -10
-6 0 -7 5 -4 10 3 6 11 10 16 10 6 0 7 -4 4 -10z m90 0 c4 -6 11 -8 16 -5 5 4
9 3 9 -1 0 -9 -32 -33 -44 -34 -6 0 -2 6 9 13 29 22 1 30 -36 12 -17 -9 -28
-11 -24 -5 6 10 40 28 57 29 4 1 10 -4 13 -9z m315 5 c0 -2 -10 -9 -22 -15
-22 -11 -22 -10 -4 4 21 17 26 19 26 11z m395 -5 c-3 -5 -12 -10 -18 -10 -7 0
-6 4 3 10 19 12 23 12 15 0z m69 -5 c-23 -17 -34 -19 -34 -4 0 5 4 8 9 4 5 -3
12 -1 16 5 3 5 11 10 18 10 6 0 2 -7 -9 -15z m101 5 c3 -5 2 -10 -4 -10 -5 0
-13 5 -16 10 -3 6 -2 10 4 10 5 0 13 -4 16 -10z m235 0 c0 -5 -5 -10 -11 -10
-5 0 -7 5 -4 10 3 6 8 10 11 10 2 0 4 -4 4 -10z m-1550 -5 c0 -2 -10 -10 -22
-16 -21 -11 -22 -11 -9 4 13 16 31 23 31 12z m1607 -9 c0 -8 -6 -12 -12 -9 -7
2 -19 -2 -26 -9 -8 -7 -20 -14 -27 -15 -23 -5 -12 7 26 26 20 11 37 20 38 21
0 0 1 -6 1 -14z m-1765 -13 c14 -13 21 -14 30 -5 7 7 17 12 22 12 6 0 1 -7
-12 -15 -19 -14 -24 -14 -45 0 -13 8 -27 12 -32 8 -4 -5 -5 -2 -1 5 9 16 16
15 38 -5z m398 2 c7 -9 20 -13 29 -10 11 4 13 3 5 -4 -11 -12 -64 7 -64 22 0
12 17 8 30 -8z m406 -4 c20 -16 21 -20 8 -25 -8 -3 -12 -2 -9 3 3 5 -5 17 -17
25 -12 9 -19 16 -14 16 4 0 19 -9 32 -19z m788 11 c3 -5 -1 -9 -9 -9 -8 0 -15
4 -15 9 0 4 4 8 9 8 6 0 12 -4 15 -8z m-270 -17 c-4 -9 0 -15 10 -15 22 0 20
-17 -3 -23 -14 -3 -18 -1 -14 9 3 9 -2 14 -13 14 -18 1 -18 1 0 15 25 19 27
19 20 0z m-1371 -8 c3 -9 -3 -13 -17 -13 -12 1 -20 -4 -18 -12 2 -10 -2 -10
-18 -2 -11 6 -20 13 -20 16 0 3 4 2 10 -1 5 -3 20 1 32 9 27 19 25 19 31 3z
m157 5 c0 -5 -7 -9 -15 -9 -8 0 -12 4 -9 9 3 4 9 8 15 8 5 0 9 -4 9 -8z m250
-18 c0 -2 -9 0 -20 6 -11 6 -20 13 -20 16 0 2 9 0 20 -6 11 -6 20 -13 20 -16z
m150 21 c0 -2 -10 -9 -22 -15 -22 -11 -22 -10 -4 4 21 17 26 19 26 11z m247
-12 c0 -8 -6 -9 -19 -2 -10 5 -18 11 -18 12 0 2 8 3 18 3 10 0 19 -6 19 -13z
m193 -15 c0 -15 -28 -8 -34 8 -3 8 -11 12 -17 8 -7 -4 -9 -3 -6 4 8 11 57 -6
57 -20z m115 22 c3 -5 -1 -10 -10 -10 -9 0 -13 5 -10 10 3 6 8 10 10 10 2 0 7
-4 10 -10z m92 -7 c0 -8 -6 -9 -19 -2 -10 5 -18 11 -18 12 0 2 8 3 18 3 10 0
19 -6 19 -13z m237 9 c2 -4 -4 -8 -14 -8 -10 0 -16 4 -14 8 3 4 9 8 14 8 5 0
11 -4 14 -8z m96 -16 c0 -2 -9 -2 -20 1 -11 3 -20 9 -20 15 0 5 9 4 20 -2 11
-6 20 -12 20 -14z m60 10 c-7 -7 -13 -7 -20 0 -6 6 -3 10 10 10 13 0 16 -4 10
-10z m90 -1 c0 -1 -9 -5 -19 -8 -13 -3 -18 -1 -14 9 4 10 33 10 33 -1z m-410
1 c0 -2 -7 -7 -16 -10 -8 -3 -12 -2 -9 4 6 10 25 14 25 6z m-1400 -16 c0 -5
-4 -10 -10 -10 -5 0 -10 5 -10 10 0 6 5 10 10 10 6 0 10 -4 10 -10z m165 0
c-12 -19 23 -22 52 -4 l28 17 -30 -26 c-35 -31 -41 -32 -49 -11 -4 10 -13 14
-24 10 -14 -5 -14 -3 2 9 23 17 30 19 21 5z m154 -4 c10 -12 8 -13 -8 -9 -12
3 -21 9 -21 14 0 14 16 11 29 -5z m81 4 c0 -5 -4 -10 -10 -10 -5 0 -10 5 -10
10 0 6 5 10 10 10 6 0 10 -4 10 -10z m87 -7 c0 -8 -6 -9 -19 -2 -10 5 -18 11
-18 12 0 2 8 3 18 3 10 0 19 -6 19 -13z m119 -14 c-27 -21 -36 -24 -36 -9 0 6
7 10 15 10 9 0 18 7 21 15 4 8 10 12 15 9 5 -3 -1 -14 -15 -25z m114 21 c0 -5
-7 -10 -15 -10 -8 0 -15 5 -15 10 0 6 7 10 15 10 8 0 15 -4 15 -10z m80 0 c0
-5 -4 -10 -10 -10 -5 0 -10 5 -10 10 0 6 5 10 10 10 6 0 10 -4 10 -10z m80 -4
c-7 -7 -13 -7 -20 0 -6 6 -3 10 10 10 13 0 16 -4 10 -10z m329 0 c10 -12 8
-13 -8 -9 -12 3 -18 9 -15 14 7 12 10 11 23 -5z m231 0 c-7 -7 -13 -7 -20 0
-6 6 -3 10 10 10 13 0 16 -4 10 -10z m315 -4 c-3 -3 -11 0 -18 7 -9 10 -8 11
6 5 10 -3 15 -9 12 -12z m95 13 c0 -2 -10 -9 -22 -15 -22 -11 -22 -10 -4 4 21
17 26 19 26 11z m70 -5 c0 -5 -4 -10 -10 -10 -5 0 -10 5 -10 10 0 6 5 10 10
10 6 0 10 -4 10 -10z m-1360 -4 c0 -2 -7 -7 -16 -10 -8 -3 -12 -2 -9 4 6 10
25 14 25 6z m406 -7 c3 -6 15 -8 27 -5 19 5 19 4 4 -12 -16 -15 -18 -15 -30 2
-8 11 -19 16 -25 12 -17 -10 -15 -24 6 -29 9 -3 5 -4 -9 -4 -15 1 -32 9 -37
18 -9 14 -8 16 7 12 11 -3 22 0 25 6 4 6 11 11 16 11 5 0 12 -5 16 -11z m399
1 c3 -6 -1 -7 -9 -4 -18 7 -21 14 -7 14 6 0 13 -4 16 -10z m348 -6 c9 -4 17
-10 17 -15 0 -14 -16 -11 -30 6 -7 8 -16 12 -21 9 -5 -3 -9 0 -9 6 0 7 6 9 13
6 6 -3 20 -9 30 -12z m-1346 -8 c0 -8 -6 -12 -15 -9 -11 5 -11 7 0 14 7 5 13
9 14 9 0 0 1 -6 1 -14z m400 -3 c0 -8 -6 -9 -19 -2 -10 5 -18 11 -18 12 0 2 8
3 18 3 10 0 19 -6 19 -13z m400 2 c0 -6 -8 -11 -17 -11 -9 0 -17 5 -17 11 0 6
8 11 17 11 9 0 17 -5 17 -11z m163 -6 c0 -14 -16 -11 -29 5 -10 12 -8 13 8 9
12 -3 21 -9 21 -14z m240 14 c0 -1 -8 -7 -18 -12 -13 -7 -19 -6 -19 2 0 7 9
13 19 13 10 0 18 -1 18 -3z m-1450 -13 c0 -5 -2 -10 -4 -10 -3 0 -8 5 -11 10
-3 6 -1 10 4 10 6 0 11 -4 11 -10z m416 -5 c16 -8 22 -15 13 -15 -8 0 -24 7
-35 15 -25 19 -14 19 22 0z m844 -4 c-13 -11 -28 -17 -33 -14 -5 3 2 11 15 18
35 20 46 17 18 -4z m400 0 c-13 -11 -28 -17 -33 -14 -5 3 2 11 15 18 35 20 46
17 18 -4z m-1140 -6 c-7 -9 -15 -13 -19 -10 -3 3 1 10 9 15 21 14 24 12 10 -5z
m395 -4 c-3 -6 -11 -11 -17 -11 -6 0 -6 6 2 15 14 17 26 13 15 -4z m245 -3 c0
-6 -6 -5 -15 2 -8 7 -15 14 -15 16 0 2 7 1 15 -2 8 -4 15 -11 15 -16z m160 7
c-7 -8 -18 -15 -24 -15 -6 0 -2 7 8 15 25 19 32 19 16 0z m400 5 c0 -5 -5 -10
-11 -10 -5 0 -7 5 -4 10 3 6 8 10 11 10 2 0 4 -4 4 -10z m-1755 -10 c3 -5 2
-10 -4 -10 -5 0 -13 5 -16 10 -3 6 -2 10 4 10 5 0 13 -4 16 -10z m69 -5 c-4
-8 -7 -15 -9 -15 -2 0 -5 7 -9 15 -3 9 0 15 9 15 9 0 12 -6 9 -15z m73 -7 c-3
-8 -6 -5 -6 6 -1 11 2 17 5 13 3 -3 4 -12 1 -19z m258 12 c3 -5 2 -10 -4 -10
-5 0 -13 5 -16 10 -3 6 -2 10 4 10 5 0 13 -4 16 -10z m400 0 c3 -5 2 -10 -4
-10 -5 0 -13 5 -16 10 -3 6 -2 10 4 10 5 0 13 -4 16 -10z m797 -25 c-6 -34
-12 -32 -12 6 0 16 4 28 9 25 4 -3 6 -17 3 -31z m-1487 4 c-10 -15 -25 -10
-19 6 4 8 10 12 15 9 5 -3 7 -10 4 -15z m400 0 c-10 -15 -25 -10 -19 6 4 8 10
12 15 9 5 -3 7 -10 4 -15z m-75 1 c0 -5 -2 -10 -4 -10 -3 0 -8 5 -11 10 -3 6
-1 10 4 10 6 0 11 -4 11 -10z m400 0 c0 -5 -2 -10 -4 -10 -3 0 -8 5 -11 10 -3
6 -1 10 4 10 6 0 11 -4 11 -10z m80 6 c0 -3 -4 -8 -10 -11 -5 -3 -10 -1 -10 4
0 6 5 11 10 11 6 0 10 -2 10 -4z m325 -6 c3 -5 2 -10 -4 -10 -5 0 -13 5 -16
10 -3 6 -2 10 4 10 5 0 13 -4 16 -10z m70 0 c-3 -5 -11 -10 -16 -10 -6 0 -7 5
-4 10 3 6 11 10 16 10 6 0 7 -4 4 -10z m330 0 c3 -5 2 -10 -4 -10 -5 0 -13 5
-16 10 -3 6 -2 10 4 10 5 0 13 -4 16 -10z m34 -27 c0 -25 -1 -25 -8 -8 -5 11
-7 23 -4 28 8 14 13 7 12 -20z m-1606 -3 c-3 -11 -7 -20 -9 -20 -2 0 -4 9 -4
20 0 11 4 20 9 20 5 0 7 -9 4 -20z m407 16 c0 -11 -19 -15 -25 -6 -3 5 1 10 9
10 9 0 16 -2 16 -4z m320 -18 c0 -6 -6 -5 -15 2 -8 7 -15 14 -15 16 0 2 7 1
15 -2 8 -4 15 -11 15 -16z m80 18 c0 -3 -4 -8 -10 -11 -5 -3 -10 -1 -10 4 0 6
5 11 10 11 6 0 10 -2 10 -4z m72 -18 c-7 -7 -12 -8 -12 -2 0 14 12 26 19 19 2
-3 -1 -11 -7 -17z m328 12 c0 -5 -2 -10 -4 -10 -3 0 -8 5 -11 10 -3 6 -1 10 4
10 6 0 11 -4 11 -10z m90 5 c0 -2 -10 -9 -22 -15 -22 -11 -22 -10 -4 4 21 17
26 19 26 11z m390 -4 c0 -5 -7 -12 -16 -15 -14 -5 -15 -4 -4 9 14 17 20 19 20
6z m-1755 -11 c3 -5 2 -10 -4 -10 -5 0 -13 5 -16 10 -3 6 -2 10 4 10 5 0 13
-4 16 -10z m400 0 c3 -5 2 -10 -4 -10 -5 0 -13 5 -16 10 -3 6 -2 10 4 10 5 0
13 -4 16 -10z m839 -29 c-8 -9 -22 12 -17 26 6 15 7 14 13 -3 4 -10 6 -21 4
-23z m-724 14 c-7 -8 -18 -15 -24 -15 -6 0 -2 7 8 15 25 19 32 19 16 0z m-410
-4 c0 -5 -9 -11 -20 -14 -11 -3 -20 -13 -21 -24 0 -16 -1 -16 -8 2 -7 18 6 31
47 44 1 1 2 -3 2 -8z m330 -6 c0 -8 -2 -15 -4 -15 -2 0 -6 7 -10 15 -3 8 -1
15 4 15 6 0 10 -7 10 -15z m405 5 c3 -5 2 -10 -4 -10 -5 0 -13 5 -16 10 -3 6
-2 10 4 10 5 0 13 -4 16 -10z m70 0 c-3 -5 -11 -10 -16 -10 -6 0 -7 5 -4 10 3
6 11 10 16 10 6 0 7 -4 4 -10z m400 0 c-3 -5 -11 -10 -16 -10 -6 0 -7 5 -4 10
3 6 11 10 16 10 6 0 7 -4 4 -10z m330 0 c3 -5 2 -10 -4 -10 -5 0 -13 5 -16 10
-3 6 -2 10 4 10 5 0 13 -4 16 -10z m55 -9 c-13 -11 -28 -17 -33 -14 -5 3 2 11
15 18 35 20 46 17 18 -4z m-1220 -5 c0 -11 -19 -15 -25 -6 -3 5 1 10 9 10 9 0
16 -2 16 -4z m800 -6 c0 -5 -2 -10 -4 -10 -3 0 -8 5 -11 10 -3 6 -1 10 4 10 6
0 11 -4 11 -10z m-443 -37 c-3 -10 -5 -4 -5 12 0 17 2 24 5 18 2 -7 2 -21 0
-30z m96 -46 c22 -18 22 -18 -9 -3 -28 13 -30 18 -25 53 l6 38 3 -35 c2 -21
12 -42 25 -53z m374 61 c-3 -8 -6 -5 -6 6 -1 11 2 17 5 13 3 -3 4 -12 1 -19z
m-1232 -28 c3 -5 1 -10 -4 -10 -6 0 -11 5 -11 10 0 6 2 10 4 10 3 0 8 -4 11
-10z m400 0 c3 -5 1 -10 -4 -10 -6 0 -11 5 -11 10 0 6 2 10 4 10 3 0 8 -4 11
-10z m805 0 c0 -5 -5 -10 -11 -10 -5 0 -7 5 -4 10 3 6 8 10 11 10 2 0 4 -4 4
-10z m317 -12 c-3 -8 -6 -5 -6 6 -1 11 2 17 5 13 3 -3 4 -12 1 -19z m83 12 c0
-5 -5 -10 -11 -10 -5 0 -7 5 -4 10 3 6 8 10 11 10 2 0 4 -4 4 -10z m-1640 -20
c0 -5 -5 -10 -11 -10 -5 0 -7 5 -4 10 3 6 8 10 11 10 2 0 4 -4 4 -10z m70 0
c0 -5 -2 -10 -4 -10 -3 0 -8 5 -11 10 -3 6 -1 10 4 10 6 0 11 -4 11 -10z m335
0 c-3 -5 -11 -10 -16 -10 -6 0 -7 5 -4 10 3 6 11 10 16 10 6 0 7 -4 4 -10z
m76 -7 c13 -15 12 -15 -8 -4 -24 12 -29 21 -14 21 5 0 15 -7 22 -17z m342 -26
c17 4 15 1 -7 -11 -15 -9 -29 -16 -30 -16 -2 0 2 64 5 70 1 3 4 -7 6 -21 3
-22 8 -26 26 -22z m382 33 c-3 -5 -11 -10 -16 -10 -6 0 -7 5 -4 10 3 6 11 10
16 10 6 0 7 -4 4 -10z m70 0 c3 -5 1 -10 -4 -10 -6 0 -11 5 -11 10 0 6 2 10 4
10 3 0 8 -4 11 -10z m330 0 c-3 -5 -11 -10 -16 -10 -6 0 -7 5 -4 10 3 6 11 10
16 10 6 0 7 -4 4 -10z m70 0 c3 -5 1 -10 -4 -10 -6 0 -11 5 -11 10 0 6 2 10 4
10 3 0 8 -4 11 -10z m-1568 -32 c-3 -7 -5 -2 -5 12 0 14 2 19 5 13 2 -7 2 -19
0 -25z m1533 -8 c0 -22 -4 -40 -8 -40 -4 0 -7 12 -6 28 1 15 3 33 3 40 1 6 3
12 6 12 3 0 5 -18 5 -40z m-1280 15 c-7 -9 -15 -13 -17 -11 -7 7 7 26 19 26 6
0 6 -6 -2 -15z m1366 -13 c-4 -3 -14 2 -24 12 -16 18 -16 18 6 6 13 -6 21 -14
18 -18z m-1766 14 c0 -3 -4 -8 -10 -11 -5 -3 -10 -1 -10 4 0 6 5 11 10 11 6 0
10 -2 10 -4z m75 -6 c3 -5 -1 -10 -10 -10 -9 0 -13 5 -10 10 3 6 8 10 10 10 2
0 7 -4 10 -10z m380 -16 c-38 -20 -45 -17 -15 5 13 11 28 17 33 14 5 -3 -4
-11 -18 -19z m345 22 c0 -2 -7 -7 -16 -10 -8 -3 -12 -2 -9 4 6 10 25 14 25 6z
m443 -33 c-8 -21 -22 -5 -16 18 4 15 8 17 13 8 5 -7 6 -18 3 -26z m73 0 c-6
-6 -46 20 -46 30 0 4 11 0 25 -9 14 -9 24 -19 21 -21z m49 27 c3 -5 2 -10 -4
-10 -5 0 -13 5 -16 10 -3 6 -2 10 4 10 5 0 13 -4 16 -10z m-1250 -20 c3 -5 2
-10 -4 -10 -5 0 -13 5 -16 10 -3 6 -2 10 4 10 5 0 13 -4 16 -10z m80 0 c3 -6
-1 -7 -9 -4 -18 7 -21 14 -7 14 6 0 13 -4 16 -10z m320 0 c3 -5 2 -10 -4 -10
-5 0 -13 5 -16 10 -3 6 -2 10 4 10 5 0 13 -4 16 -10z m400 1 c3 -5 1 -12 -4
-15 -5 -3 -11 1 -15 9 -6 16 9 21 19 6z m682 -23 c-3 -7 -5 -2 -5 12 0 14 2
19 5 13 2 -7 2 -19 0 -25z m48 22 c-3 -5 -11 -10 -16 -10 -6 0 -7 5 -4 10 3 6
11 10 16 10 6 0 7 -4 4 -10z m70 0 c3 -5 1 -10 -4 -10 -6 0 -11 5 -11 10 0 6
2 10 4 10 3 0 8 -4 11 -10z m-1568 -22 c-3 -8 -6 -5 -6 6 -1 11 2 17 5 13 3
-3 4 -12 1 -19z m-142 2 c-3 -5 -12 -10 -18 -10 -7 0 -6 4 3 10 19 12 23 12
15 0z m50 -16 c-38 -20 -45 -17 -15 5 13 11 28 17 33 14 5 -3 -4 -11 -18 -19z
m355 22 c0 -2 -7 -7 -16 -10 -8 -3 -12 -2 -9 4 6 10 25 14 25 6z m65 -6 c3 -5
-1 -10 -10 -10 -9 0 -13 5 -10 10 3 6 8 10 10 10 2 0 7 -4 10 -10z m90 -19
c-6 -5 -25 10 -25 20 0 5 6 4 14 -3 8 -7 12 -15 11 -17z m240 19 c-3 -5 -11
-10 -16 -10 -6 0 -7 5 -4 10 3 6 11 10 16 10 6 0 7 -4 4 -10z m165 -16 c0 -2
-9 0 -20 6 -11 6 -20 13 -20 16 0 2 9 0 20 -6 11 -6 20 -13 20 -16z m390 4 c0
-6 -6 -5 -15 2 -8 7 -15 14 -15 16 0 2 7 1 15 -2 8 -4 15 -11 15 -16z m400 0
c0 -6 -6 -5 -15 2 -8 7 -15 14 -15 16 0 2 7 1 15 -2 8 -4 15 -11 15 -16z m-79
-23 c11 6 11 5 2 -5 -9 -10 -15 -10 -30 1 -10 8 -19 21 -21 29 -1 8 6 5 16 -9
13 -16 24 -21 33 -16z m-1571 17 c0 -4 -10 -13 -21 -20 -16 -10 -24 -11 -33
-2 -8 8 -7 10 6 5 12 -5 20 -1 24 9 6 16 24 22 24 8z m177 -5 c0 -7 -9 -13
-19 -13 -18 0 -18 1 -2 13 10 7 18 13 19 13 1 0 2 -6 2 -13z m153 4 c0 -5 -9
-13 -20 -16 -25 -8 -15 -29 10 -22 12 3 17 0 14 -7 -7 -17 -32 -16 -39 2 -3 9
-12 12 -22 8 -22 -9 -11 2 24 25 34 21 33 21 33 10z m79 -4 c8 -11 6 -13 -12
-13 -13 1 -21 -4 -19 -12 2 -10 -2 -10 -18 -2 -23 12 -27 22 -5 14 8 -4 17 1
21 10 7 19 18 20 33 3z m168 0 c0 -7 -9 -13 -19 -13 -18 0 -18 1 -2 13 10 7
18 13 19 13 1 0 2 -6 2 -13z m169 -4 c13 -17 15 -17 29 2 15 18 16 18 33 2 16
-17 16 -18 -1 -11 -9 3 -24 1 -32 -6 -12 -10 -18 -10 -30 0 -8 7 -22 9 -31 6
-14 -5 -15 -4 -4 9 16 19 20 19 36 -2z m234 -9 c0 -2 -9 0 -20 6 -11 6 -20 13
-20 16 0 2 9 0 20 -6 11 -6 20 -13 20 -16z m160 17 c0 -5 -9 -11 -21 -14 -16
-4 -18 -3 -8 9 13 16 29 19 29 5z m84 -12 c20 -12 36 -22 36 -23 0 -1 -9 -2
-19 -2 -11 0 -17 4 -15 8 3 4 1 8 -3 8 -11 0 -51 29 -41 30 4 0 23 -9 42 -21z
m156 -2 c0 -2 -8 -3 -18 -3 -10 0 -19 6 -19 13 0 8 6 9 19 2 10 -5 18 -11 18
-12z m225 13 c3 -5 2 -10 -4 -10 -5 0 -13 5 -16 10 -3 6 -2 10 4 10 5 0 13 -4
16 -10z m-1569 -27 c-4 -4 -12 -1 -19 7 -9 10 -9 11 1 6 7 -4 12 -2 13 6 0 11
2 11 6 0 3 -7 2 -16 -1 -19z m1057 7 c3 -11 1 -18 -4 -14 -5 3 -9 12 -9 20 0
20 7 17 13 -6z m237 -15 c0 -10 -16 -4 -40 16 l-25 20 33 -16 c17 -8 32 -18
32 -20z m-1432 13 c-2 -8 7 -13 21 -12 22 1 23 0 6 -12 -15 -11 -20 -11 -30 3
-7 9 -18 13 -26 9 -8 -4 -5 0 5 8 24 19 27 20 24 4z m1032 -9 c0 -14 -16 -11
-29 5 -10 12 -8 13 8 9 12 -3 21 -9 21 -14z m245 11 c-3 -5 -12 -10 -18 -10
-7 0 -6 4 3 10 19 12 23 12 15 0z m329 -5 c-4 -8 -11 -12 -16 -9 -6 4 -5 10 3
15 19 12 19 11 13 -6z m150 -1 c3 -8 2 -12 -4 -9 -5 3 -18 0 -29 -7 -16 -10
-23 -10 -32 -1 -9 9 -7 11 8 7 11 -3 25 1 32 10 16 20 17 20 25 0z m72 -12
c-4 -3 -14 2 -24 12 -16 18 -16 18 6 6 13 -6 21 -14 18 -18z m-1916 8 c0 -5
-4 -10 -10 -10 -5 0 -10 5 -10 10 0 6 5 10 10 10 6 0 10 -4 10 -10z m320 3 c0
-5 -12 -14 -27 -21 -23 -10 -29 -10 -43 5 -14 15 -14 16 2 4 13 -10 19 -9 30
3 14 16 38 21 38 9z m80 -3 c0 -5 -5 -10 -11 -10 -5 0 -7 5 -4 10 3 6 8 10 11
10 2 0 4 -4 4 -10z m314 -2 c-3 -4 -9 -8 -15 -8 -5 0 -9 4 -9 8 0 5 7 9 15 9
8 0 12 -4 9 -9z m86 2 c0 -5 -4 -10 -10 -10 -5 0 -10 5 -10 10 0 6 5 10 10 10
6 0 10 -4 10 -10z m84 2 c2 -4 -4 -8 -14 -8 -10 0 -16 4 -14 8 3 4 9 8 14 8 5
0 11 -4 14 -8z m316 -2 c0 -5 -4 -10 -10 -10 -5 0 -10 5 -10 10 0 6 5 10 10
10 6 0 10 -4 10 -10z m410 0 c0 -5 -7 -10 -15 -10 -8 0 -15 5 -15 10 0 6 7 10
15 10 8 0 15 -4 15 -10z m-680 -5 c0 -2 -10 -9 -22 -15 -22 -11 -22 -10 -4 4
21 17 26 19 26 11z m80 -21 c0 -2 -9 0 -20 6 -11 6 -20 13 -20 16 0 2 9 0 20
-6 11 -6 20 -13 20 -16z m400 0 c0 -2 -9 0 -20 6 -11 6 -20 13 -20 16 0 2 9 0
20 -6 11 -6 20 -13 20 -16z m250 21 c0 -2 -10 -9 -22 -15 -22 -11 -22 -10 -4
4 21 17 26 19 26 11z m-1626 -17 c-3 -4 -9 -8 -15 -8 -5 0 -9 4 -9 8 0 5 7 9
15 9 8 0 12 -4 9 -9z m171 2 c3 -6 -1 -7 -9 -4 -18 7 -21 14 -7 14 6 0 13 -4
16 -10z m160 0 c-3 -6 1 -13 9 -16 20 -8 21 -24 1 -24 -7 0 -19 -8 -24 -17
-10 -17 -10 -17 -11 0 0 9 -6 17 -14 17 -7 0 -20 7 -27 17 -13 14 -11 14 20
-1 23 -12 36 -15 44 -7 7 7 5 12 -7 17 -14 5 -15 9 -4 15 17 11 20 11 13 -1z
m75 4 c0 -2 -9 -8 -20 -14 -15 -8 -18 -8 -14 3 4 11 34 21 34 11z m165 -4 c3
-6 -1 -7 -9 -4 -18 7 -21 14 -7 14 6 0 13 -4 16 -10z m235 4 c0 -8 -19 -13
-24 -6 -3 5 1 9 9 9 8 0 15 -2 15 -3z m350 -47 c0 -10 4 -16 9 -13 5 4 4 -5
-2 -18 -12 -26 -28 -16 -20 13 2 9 -3 25 -12 36 -14 19 -16 19 -29 2 -10 -13
-14 -45 -13 -105 0 -47 -4 -87 -9 -89 -5 -2 -8 28 -6 67 3 49 -1 76 -10 87 -9
12 -9 15 0 9 8 -5 12 -1 12 12 0 11 7 23 16 26 8 3 12 11 8 17 -4 7 7 4 25 -7
17 -10 31 -27 31 -37z m134 45 c2 -4 -4 -8 -14 -8 -10 0 -16 4 -14 8 3 4 9 8
14 8 5 0 11 -4 14 -8z m176 -18 c0 -2 -9 0 -20 6 -11 6 -20 13 -20 16 0 2 9 0
20 -6 11 -6 20 -13 20 -16z m49 5 c-21 -16 -21 -17 -3 -27 16 -9 15 -10 -9 -9
-29 2 -37 21 -11 31 8 3 13 9 10 14 -2 4 4 8 15 8 19 0 19 -1 -2 -17z m175 13
c2 -4 -4 -8 -14 -8 -10 0 -16 4 -14 8 3 4 9 8 14 8 5 0 11 -4 14 -8z m176 -18
c0 -2 -9 0 -20 6 -11 6 -20 13 -20 16 0 2 9 0 20 -6 11 -6 20 -13 20 -16z
m-1916 -15 c-8 -14 -21 -11 -21 5 0 8 6 12 14 9 7 -3 10 -9 7 -14z m186 -5 c0
-2 -9 0 -20 6 -11 6 -20 13 -20 16 0 2 9 0 20 -6 11 -6 20 -13 20 -16z m596 7
c14 12 33 5 21 -8 -14 -13 -68 -6 -85 11 -16 17 -16 17 16 1 26 -13 36 -14 48
-4z m114 14 c0 -2 -10 -9 -22 -15 -22 -11 -22 -10 -4 4 21 17 26 19 26 11z
m80 -9 c-7 -7 -13 -7 -20 0 -6 6 -3 10 10 10 13 0 16 -4 10 -10z m638 -5 c-7
-11 -16 -17 -22 -14 -5 3 -1 12 9 20 25 18 27 17 13 -6z m167 9 c-3 -5 -12
-10 -18 -10 -7 0 -6 4 3 10 19 12 23 12 15 0z m-1738 -42 c-3 -7 -5 -2 -5 12
0 14 2 19 5 13 2 -7 2 -19 0 -25z m248 22 c3 -5 2 -10 -4 -10 -5 0 -13 5 -16
10 -3 6 -2 10 4 10 5 0 13 -4 16 -10z m400 0 c3 -5 2 -10 -4 -10 -5 0 -13 5
-16 10 -3 6 -2 10 4 10 5 0 13 -4 16 -10z m563 -4 c-7 -8 -15 -12 -17 -11 -5
6 10 25 20 25 5 0 4 -6 -3 -14z m407 4 c-3 -5 -11 -10 -16 -10 -6 0 -7 5 -4
10 3 6 11 10 16 10 6 0 7 -4 4 -10z m232 -22 c-3 -7 -5 -2 -5 12 0 14 2 19 5
13 2 -7 2 -19 0 -25z m-1450 0 c-3 -8 -6 -5 -6 6 -1 11 2 17 5 13 3 -3 4 -12
1 -19z m298 -16 c-8 -8 -25 10 -19 20 4 6 9 5 15 -3 4 -7 6 -15 4 -17z m75 13
c-7 -9 -15 -13 -19 -10 -3 3 1 10 9 15 21 14 24 12 10 -5z m-520 -30 c0 -10
-16 -4 -40 16 l-25 20 33 -16 c17 -8 32 -18 32 -20z m45 25 c3 -5 2 -10 -4
-10 -5 0 -13 5 -16 10 -3 6 -2 10 4 10 5 0 13 -4 16 -10z m65 0 c0 -5 -5 -10
-11 -10 -5 0 -7 5 -4 10 3 6 8 10 11 10 2 0 4 -4 4 -10z m1135 0 c3 -5 1 -10
-4 -10 -6 0 -11 5 -11 10 0 6 2 10 4 10 3 0 8 -4 11 -10z m70 0 c-3 -5 -11
-10 -16 -10 -6 0 -7 5 -4 10 3 6 11 10 16 10 6 0 7 -4 4 -10z m330 0 c3 -5 1
-10 -4 -10 -6 0 -11 5 -11 10 0 6 2 10 4 10 3 0 8 -4 11 -10z m-1885 -14 c0
-3 -4 -8 -10 -11 -5 -3 -10 -1 -10 4 0 6 5 11 10 11 6 0 10 -2 10 -4z m314
-11 c-4 -8 -8 -15 -10 -15 -2 0 -4 7 -4 15 0 8 4 15 10 15 5 0 7 -7 4 -15z
m321 5 c3 -6 -1 -7 -9 -4 -18 7 -21 14 -7 14 6 0 13 -4 16 -10z m152 -12 c-3
-8 -6 -5 -6 6 -1 11 2 17 5 13 3 -3 4 -12 1 -19z m248 12 c3 -6 -1 -7 -9 -4
-18 7 -21 14 -7 14 6 0 13 -4 16 -10z m405 0 c0 -5 -2 -10 -4 -10 -3 0 -8 5
-11 10 -3 6 -1 10 4 10 6 0 11 -4 11 -10z m165 0 c-3 -5 -11 -10 -16 -10 -6 0
-7 5 -4 10 3 6 11 10 16 10 6 0 7 -4 4 -10z m235 0 c0 -5 -2 -10 -4 -10 -3 0
-8 5 -11 10 -3 6 -1 10 4 10 6 0 11 -4 11 -10z m-1090 -20 c0 -11 -4 -20 -9
-20 -5 0 -7 9 -4 20 3 11 7 20 9 20 2 0 4 -9 4 -20z m-66 -7 c3 -7 2 -13 -3
-13 -5 0 -14 6 -20 13 -8 10 -7 14 4 14 8 0 16 -6 19 -14z m876 2 c-7 -8 -18
-15 -24 -15 -6 0 -2 7 8 15 25 19 32 19 16 0z m323 0 c4 -8 2 -17 -3 -20 -6
-4 -10 3 -10 14 0 25 6 27 13 6z m-1896 -47 c-2 -13 -4 -5 -4 17 -1 22 1 32 4
23 2 -10 2 -28 0 -40z m298 42 c3 -5 2 -10 -4 -10 -5 0 -13 5 -16 10 -3 6 -2
10 4 10 5 0 13 -4 16 -10z m65 0 c0 -5 -5 -10 -11 -10 -5 0 -7 5 -4 10 3 6 8
10 11 10 2 0 4 -4 4 -10z m800 -6 c0 -8 -5 -12 -10 -9 -6 4 -8 11 -5 16 9 14
15 11 15 -7z m327 -16 c-3 -7 -5 -2 -5 12 0 14 2 19 5 13 2 -7 2 -19 0 -25z
m38 4 c-3 -3 -11 0 -18 7 -9 10 -8 11 6 5 10 -3 15 -9 12 -12z m-363 -47 c2
-19 0 -35 -4 -35 -4 0 -8 16 -8 35 0 19 2 35 4 35 2 0 6 -16 8 -35z m325 3
c-3 -8 -6 -5 -6 6 -1 11 2 17 5 13 3 -3 4 -12 1 -19z m-1127 -32 c0 -6 -5 -5
-12 2 -7 7 -20 12 -31 12 -10 0 -16 4 -12 10 7 12 55 -9 55 -24z m360 24 c0
-5 -5 -10 -11 -10 -5 0 -7 5 -4 10 3 6 8 10 11 10 2 0 4 -4 4 -10z m805 -8
c-11 -2 -26 -9 -32 -14 -8 -7 -13 -7 -13 -1 0 13 42 32 55 24 6 -3 1 -7 -10
-9z m-759 -20 c-4 -3 -14 2 -24 12 -16 18 -16 18 6 6 13 -6 21 -14 18 -18z
m-806 8 c0 -5 -2 -10 -4 -10 -3 0 -8 5 -11 10 -3 6 -1 10 4 10 6 0 11 -4 11
-10z m327 -5 c0 -8 -4 -12 -9 -9 -5 3 -6 10 -3 15 9 13 12 11 12 -6z m403 -1
c0 -8 -5 -12 -10 -9 -6 4 -8 11 -5 16 9 14 15 11 15 -7z m920 -18 c0 -3 -13 1
-30 7 -16 6 -30 15 -30 19 0 5 14 2 30 -7 17 -9 30 -17 30 -19z m243 19 c4 -8
2 -17 -3 -20 -6 -4 -10 3 -10 14 0 25 6 27 13 6z m42 5 c-3 -5 -11 -10 -16
-10 -6 0 -7 5 -4 10 3 6 11 10 16 10 6 0 7 -4 4 -10z m-1895 -20 c0 -5 -2 -10
-4 -10 -3 0 -8 5 -11 10 -3 6 -1 10 4 10 6 0 11 -4 11 -10z m260 6 c0 -2 -7
-7 -16 -10 -8 -3 -12 -2 -9 4 6 10 25 14 25 6z m153 -65 c10 -12 9 -12 -9 -3
-17 9 -20 17 -15 44 l6 33 3 -30 c2 -16 9 -36 15 -44z m237 54 c-7 -9 -15 -13
-17 -11 -7 7 7 26 19 26 6 0 6 -6 -2 -15z m161 -2 c13 -15 12 -15 -8 -4 -24
12 -29 21 -14 21 5 0 15 -7 22 -17z m239 8 c0 -5 -7 -12 -16 -15 -14 -5 -15
-4 -4 9 14 17 20 19 20 6z m155 -1 c3 -5 2 -10 -4 -10 -5 0 -13 5 -16 10 -3 6
-2 10 4 10 5 0 13 -4 16 -10z m250 0 c-3 -5 -12 -10 -18 -10 -7 0 -6 4 3 10
19 12 23 12 15 0z m-1135 -10 c0 -5 -5 -10 -11 -10 -5 0 -7 5 -4 10 3 6 8 10
11 10 2 0 4 -4 4 -10z m420 -6 c0 -2 -9 -4 -21 -4 -11 0 -18 4 -14 10 5 8 35
3 35 -6z m23 -4 c3 -11 1 -20 -4 -20 -5 0 -9 9 -9 20 0 11 2 20 4 20 2 0 6 -9
9 -20z m372 10 c3 -5 -3 -10 -15 -10 -12 0 -18 5 -15 10 3 6 10 10 15 10 5 0
12 -4 15 -10z m395 0 c0 -5 -7 -10 -16 -10 -8 0 -12 5 -9 10 3 6 10 10 16 10
5 0 9 -4 9 -10z m-1564 -28 c-4 -3 -14 2 -24 12 -16 18 -16 18 6 6 13 -6 21
-14 18 -18z m1598 13 c3 -8 1 -15 -4 -15 -6 0 -10 7 -10 15 0 8 2 15 4 15 2 0
6 -7 10 -15z m330 -10 c-4 -8 -10 -13 -15 -10 -4 3 -6 12 -3 20 4 8 10 13 15
10 4 -3 6 -12 3 -20z m-1894 -6 c0 -11 -4 -18 -10 -14 -5 3 -7 12 -3 20 7 21
13 19 13 -6z m365 12 c3 -5 1 -12 -4 -15 -5 -3 -11 1 -15 9 -6 16 9 21 19 6z
m325 -1 c0 -5 -5 -10 -11 -10 -5 0 -7 5 -4 10 3 6 8 10 11 10 2 0 4 -4 4 -10z
m400 -6 c0 -8 -5 -12 -10 -9 -6 4 -8 11 -5 16 9 14 15 11 15 -7z m74 -17 c2
-26 -20 -32 -28 -10 -3 8 -1 11 4 8 6 -3 10 4 10 16 0 29 13 16 14 -14z m-839
3 c4 -6 1 -9 -6 -8 -6 2 -14 -3 -16 -9 -3 -7 2 -13 11 -13 9 0 16 -4 16 -10 0
-13 -6 -13 -30 2 -16 10 -24 10 -41 0 -12 -7 -23 -11 -26 -9 -3 4 44 35 84 56
1 1 5 -4 8 -9z m330 0 c-3 -5 -11 -10 -16 -10 -6 0 -7 5 -4 10 3 6 11 10 16
10 6 0 7 -4 4 -10z m115 -25 c0 -9 -24 0 -39 14 -12 11 -16 11 -25 0 -15 -19
-37 -22 -30 -4 4 8 10 13 14 10 5 -3 11 -1 15 5 6 9 65 -14 65 -25z m35 25 c3
-5 2 -10 -4 -10 -5 0 -13 5 -16 10 -3 6 -2 10 4 10 5 0 13 -4 16 -10z m250 0
c-3 -5 -11 -10 -16 -10 -6 0 -7 5 -4 10 3 6 11 10 16 10 6 0 7 -4 4 -10z m54
-8 c-7 -10 -18 -19 -26 -19 -10 0 -7 7 8 18 30 23 32 23 18 1z m96 8 c3 -5 2
-10 -4 -10 -5 0 -13 5 -16 10 -3 6 -2 10 4 10 5 0 13 -4 16 -10z m255 5 c0 -2
-10 -10 -22 -16 -21 -11 -22 -11 -9 4 13 16 31 23 31 12z m110 -31 c0 -9 -26
2 -36 15 -9 11 -13 11 -25 0 -15 -14 -39 -23 -39 -14 0 2 12 11 27 19 24 12
30 12 50 -1 13 -9 23 -17 23 -19z m35 26 c3 -5 2 -10 -4 -10 -5 0 -13 5 -16
10 -3 6 -2 10 4 10 5 0 13 -4 16 -10z m245 1 c0 -5 -7 -12 -16 -15 -14 -5 -15
-4 -4 9 14 17 20 19 20 6z m-1880 -26 c7 -8 16 -12 21 -9 5 3 9 1 9 -4 0 -6
-7 -13 -16 -16 -8 -3 -12 -11 -8 -17 4 -8 0 -8 -15 0 -11 7 -21 14 -21 17 0 3
5 2 10 -1 17 -11 32 5 19 21 -6 7 -15 11 -20 8 -5 -3 -9 0 -9 5 0 16 16 13 30
-4z m155 -3 c-3 -3 -11 0 -18 7 -9 10 -8 11 6 5 10 -3 15 -9 12 -12z m239 10
c3 -5 -1 -9 -9 -9 -8 0 -15 4 -15 9 0 4 4 8 9 8 6 0 12 -4 15 -8z m173 -9 c0
-8 -6 -9 -19 -2 -10 5 -18 11 -18 12 0 2 8 3 18 3 10 0 19 -6 19 -13z m398 7
c-3 -5 -12 -10 -18 -10 -7 0 -6 4 3 10 19 12 23 12 15 0z m395 -4 c-7 -7 -13
-7 -20 0 -6 6 -3 10 10 10 13 0 16 -4 10 -10z m570 2 c0 -6 -3 -8 -7 -5 -3 4
-13 2 -20 -5 -12 -10 -11 -14 7 -28 20 -15 20 -16 1 -16 -11 0 -17 4 -15 8 3
5 -2 11 -10 14 -22 8 -20 17 7 30 30 16 37 16 37 2z m-170 -2 c0 -2 -7 -7 -16
-10 -8 -3 -12 -2 -9 4 6 10 25 14 25 6z m-1637 -22 c-2 -6 -10 -11 -18 -11 -8
0 -16 5 -18 11 -3 6 6 11 18 11 12 0 21 -5 18 -11z m407 11 c0 -2 -10 -9 -22
-15 -22 -11 -22 -10 -4 4 21 17 26 19 26 11z m160 0 c0 -2 -10 -10 -22 -16
-21 -11 -22 -11 -9 4 13 16 31 23 31 12z m70 -5 c0 -5 -4 -10 -10 -10 -5 0
-10 5 -10 10 0 6 5 10 10 10 6 0 10 -4 10 -10z m81 -7 c13 -15 12 -15 -8 -4
-24 12 -29 21 -14 21 5 0 15 -7 22 -17z m83 2 c-4 -8 -11 -12 -16 -9 -6 4 -5
10 3 15 19 12 19 11 13 -6z m86 -11 c0 -2 -9 0 -20 6 -11 6 -20 13 -20 16 0 2
9 0 20 -6 11 -6 20 -13 20 -16z m80 21 c0 -2 -10 -10 -22 -16 -21 -11 -22 -11
-9 4 13 16 31 23 31 12z m70 -5 c0 -5 -4 -10 -10 -10 -5 0 -10 5 -10 10 0 6 5
10 10 10 6 0 10 -4 10 -10z m81 -7 c13 -15 12 -15 -8 -4 -24 12 -29 21 -14 21
5 0 15 -7 22 -17z m172 1 c-2 -6 -10 -11 -18 -11 -8 0 -16 5 -18 11 -3 6 6 11
18 11 12 0 21 -5 18 -11z m77 11 c0 -2 -10 -9 -22 -15 -22 -11 -22 -10 -4 4
21 17 26 19 26 11z m97 -21 c46 -31 56 -41 25 -25 -12 7 -28 9 -34 5 -7 -5 -8
-3 -4 5 5 8 0 14 -13 18 -12 3 -21 9 -21 14 0 13 6 11 47 -17z m105 5 c25 16
36 14 13 -2 -10 -8 -15 -19 -11 -26 10 -16 -13 -10 -34 9 -9 8 -25 21 -36 28
-10 7 -4 5 15 -4 27 -13 39 -14 53 -5z m128 14 c0 -1 -9 -7 -19 -12 -14 -8
-20 -7 -24 2 -3 7 5 12 19 12 13 0 24 -1 24 -2z m-1614 -14 c3 -6 15 -8 27 -5
18 4 19 4 5 -11 -14 -14 -18 -13 -37 6 -12 12 -17 21 -12 21 6 0 13 -5 17 -11z
m400 -1 c5 -7 3 -8 -5 -4 -7 5 -21 0 -32 -10 -15 -14 -22 -15 -32 -5 -9 10 -9
11 4 6 9 -3 22 1 29 10 15 18 26 19 36 3z m714 8 c0 -2 -7 -7 -16 -10 -8 -3
-12 -2 -9 4 6 10 25 14 25 6z m-913 -21 c0 -6 -8 -11 -17 -11 -9 0 -17 5 -17
11 0 6 8 11 17 11 9 0 17 -5 17 -11z m320 1 c0 -8 -6 -12 -15 -9 -11 5 -11 7
0 14 7 5 13 9 14 9 0 0 1 -6 1 -14z m80 -1 c0 -6 -8 -11 -17 -11 -9 0 -17 5
-17 11 0 6 8 11 17 11 9 0 17 -5 17 -11z m320 1 c0 -8 -6 -12 -15 -9 -11 5
-11 7 0 14 7 5 13 9 14 9 0 0 1 -6 1 -14z m73 -1 c0 -2 -6 -5 -13 -8 -8 -3
-14 1 -14 8 0 7 6 11 14 8 7 -3 13 -6 13 -8z m327 1 c0 -8 -6 -12 -15 -9 -11
5 -11 7 0 14 7 5 13 9 14 9 0 0 1 -6 1 -14z m-1447 -6 c0 -5 -2 -10 -4 -10 -3
0 -8 5 -11 10 -3 6 -1 10 4 10 6 0 11 -4 11 -10z m110 -15 c6 3 10 4 10 1 0
-3 -9 -10 -20 -16 -12 -6 -19 -7 -18 -1 2 5 -6 17 -17 26 -19 16 -18 16 8 1
15 -9 32 -14 37 -11z m120 21 c0 -2 -7 -7 -16 -10 -8 -3 -12 -2 -9 4 6 10 25
14 25 6z m170 -6 c0 -5 -2 -10 -4 -10 -3 0 -8 5 -11 10 -3 6 -1 10 4 10 6 0
11 -4 11 -10z m155 0 c-3 -5 -11 -10 -16 -10 -6 0 -7 5 -4 10 3 6 11 10 16 10
6 0 7 -4 4 -10z m275 -15 l40 -25 41 26 c22 14 43 23 45 21 3 -3 -16 -17 -42
-31 -34 -19 -50 -23 -60 -15 -10 8 -13 4 -16 -17 -3 -26 -4 -26 -18 -9 -9 11
-10 16 -2 11 8 -5 12 0 12 13 0 12 -4 21 -8 21 -11 0 -49 29 -39 30 4 0 25
-11 47 -25z m50 11 c-7 -7 -13 -7 -20 0 -6 6 -3 10 10 10 13 0 16 -4 10 -10z
m320 4 c0 -5 -2 -10 -4 -10 -3 0 -8 5 -11 10 -3 6 -1 10 4 10 6 0 11 -4 11
-10z m69 -11 c-22 -17 -11 -38 13 -23 7 4 8 3 4 -4 -10 -16 -17 -15 -46 7 -22
17 -22 19 -5 18 11 -1 19 3 18 8 -1 6 7 11 18 11 19 0 19 -1 -2 -17z m91 16
c0 -2 -10 -10 -22 -16 -21 -11 -22 -11 -9 4 13 16 31 23 31 12z m400 0 c0 -2
-10 -10 -22 -16 -21 -11 -22 -11 -9 4 13 16 31 23 31 12z m-93 -16 c-9 -6 -15
-14 -13 -18 3 -4 -1 -8 -9 -8 -8 0 -15 2 -15 5 0 8 34 31 45 31 6 0 2 -4 -8
-10z m-1387 -9 c0 -5 -7 -10 -16 -10 -8 0 -12 5 -9 10 3 6 10 10 16 10 5 0 9
-4 9 -10z m163 -5 c-3 -9 -8 -14 -10 -11 -3 3 -2 9 2 15 9 16 15 13 8 -4z m57
-5 c-29 -23 -36 -24 -46 -8 -4 7 -3 8 4 4 7 -4 22 0 34 8 32 23 38 19 8 -4z
m180 12 c0 -5 -7 -9 -15 -9 -8 0 -12 4 -9 9 3 4 9 8 15 8 5 0 9 -4 9 -8z m400
-2 c0 -5 -2 -10 -4 -10 -3 0 -8 5 -11 10 -3 6 -1 10 4 10 6 0 11 -4 11 -10z
m228 -15 c-3 -3 -9 2 -12 12 -6 14 -5 15 5 6 7 -7 10 -15 7 -18z m172 15 c0
-5 -4 -10 -10 -10 -5 0 -10 5 -10 10 0 6 5 10 10 10 6 0 10 -4 10 -10z m-1485
-20 c3 -6 -1 -7 -9 -4 -18 7 -21 14 -7 14 6 0 13 -4 16 -10z m73 -15 c-3 -3
-9 2 -12 12 -6 14 -5 15 5 6 7 -7 10 -15 7 -18z m87 15 c-3 -5 -11 -10 -16
-10 -6 0 -7 5 -4 10 3 6 11 10 16 10 6 0 7 -4 4 -10z m390 -5 c-11 -8 -25 -19
-32 -24 -8 -8 -11 -5 -10 8 0 10 6 17 13 14 7 -2 15 0 19 6 3 6 12 11 18 11 7
0 3 -7 -8 -15z m655 5 c0 -5 -2 -10 -4 -10 -3 0 -8 5 -11 10 -3 6 -1 10 4 10
6 0 11 -4 11 -10z m400 0 c0 -5 -2 -10 -4 -10 -3 0 -8 5 -11 10 -3 6 -1 10 4
10 6 0 11 -4 11 -10z m82 -30 c-4 -35 -6 -39 -17 -24 -6 9 -16 14 -22 11 -5
-3 -10 0 -10 8 0 10 5 11 19 4 14 -8 18 -6 18 9 0 15 8 32 14 32 1 0 0 -18 -2
-40z m78 30 c0 -5 -5 -10 -11 -10 -5 0 -7 5 -4 10 3 6 8 10 11 10 2 0 4 -4 4
-10z m-853 -32 c-3 -7 -5 -2 -5 12 0 14 2 19 5 13 2 -7 2 -19 0 -25z m330 0
c-3 -7 -5 -2 -5 12 0 14 2 19 5 13 2 -7 2 -19 0 -25z m-1191 -6 c-4 -3 -14 2
-24 12 -16 18 -16 18 6 6 13 -6 21 -14 18 -18z m394 6 c0 -6 -6 -5 -15 2 -8 7
-15 14 -15 16 0 2 7 1 15 -2 8 -4 15 -11 15 -16z m873 1 c-3 -12 -1 -24 4 -28
7 -4 5 -11 -5 -21 -14 -13 -15 -13 -10 1 3 9 2 22 -2 30 -5 8 -4 19 2 26 15
18 17 16 11 -8z m417 16 c0 -2 -10 -10 -22 -16 -21 -11 -22 -11 -9 4 13 16 31
23 31 12z m-1576 -37 c-10 -16 -22 -7 -17 13 4 15 8 17 14 8 4 -7 5 -17 3 -21z
m1450 -7 c-8 -9 -22 12 -17 26 6 15 7 14 13 -3 4 -10 6 -21 4 -23z m-1520 17
c-3 -4 -9 -8 -15 -8 -5 0 -9 4 -9 8 0 5 7 9 15 9 8 0 12 -4 9 -9z m396 -2 c-7
-7 -13 -7 -20 0 -6 6 -3 10 10 10 13 0 16 -4 10 -10z m400 4 c0 -5 -5 -10 -11
-10 -5 0 -7 5 -4 10 3 6 8 10 11 10 2 0 4 -4 4 -10z m400 -2 c0 -4 -4 -8 -9
-8 -6 0 -12 4 -15 8 -3 5 1 9 9 9 8 0 15 -4 15 -9z m-1285 -8 c3 -5 1 -10 -4
-10 -6 0 -11 5 -11 10 0 6 2 10 4 10 3 0 8 -4 11 -10z m565 5 c0 -2 -10 -10
-22 -16 -21 -11 -22 -11 -9 4 13 16 31 23 31 12z m400 1 c0 -3 -4 -8 -10 -11
-5 -3 -10 -1 -10 4 0 6 5 11 10 11 6 0 10 -2 10 -4z m240 -6 c0 -5 -2 -10 -4
-10 -3 0 -8 5 -11 10 -3 6 -1 10 4 10 6 0 11 -4 11 -10z m-1165 -21 c11 -17
-1 -21 -15 -4 -8 9 -8 15 -2 15 6 0 14 -5 17 -11z m72 -11 c-3 -8 -6 -5 -6 6
-1 11 2 17 5 13 3 -3 4 -12 1 -19z m333 0 c0 -6 -6 -5 -15 2 -8 7 -15 14 -15
16 0 2 7 1 15 -2 8 -4 15 -11 15 -16z m67 0 c-3 -8 -6 -5 -6 6 -1 11 2 17 5
13 3 -3 4 -12 1 -19z m330 -10 c-3 -7 -5 -2 -5 12 0 14 2 19 5 13 2 -7 2 -19
0 -25z m70 0 c-3 -7 -5 -2 -5 12 0 14 2 19 5 13 2 -7 2 -19 0 -25z m330 0 c-3
-7 -5 -2 -5 12 0 14 2 19 5 13 2 -7 2 -19 0 -25z m488 22 c-3 -5 -11 -10 -16
-10 -6 0 -7 5 -4 10 3 6 11 10 16 10 6 0 7 -4 4 -10z m-1635 -15 c0 -2 -7 -8
-15 -15 -12 -10 -15 -10 -15 2 0 8 7 15 15 15 8 0 15 -1 15 -2z m390 -9 c-7
-7 -14 -6 -21 1 -9 9 -7 12 9 10 14 -1 18 -5 12 -11z m400 2 c0 -4 -4 -8 -9
-8 -6 0 -12 4 -15 8 -3 5 1 9 9 9 8 0 15 -4 15 -9z m401 -1 c-7 -7 -14 -8 -21
-1 -6 6 -2 10 12 11 16 2 18 -1 9 -10z m399 1 c0 -4 -4 -8 -9 -8 -6 0 -12 4
-15 8 -3 5 1 9 9 9 8 0 15 -4 15 -9z m-1533 -20 c-3 -8 -6 -5 -6 6 -1 11 2 17
5 13 3 -3 4 -12 1 -19z m-77 -34 c0 -14 -4 -23 -9 -20 -5 3 -7 15 -4 26 7 28
13 25 13 -6z m414 -2 c2 -4 -4 -9 -15 -9 -11 -1 -17 2 -14 8 7 11 22 12 29 1z
m401 -2 c3 -5 2 -10 -4 -10 -5 0 -13 5 -16 10 -3 6 -2 10 4 10 5 0 13 -4 16
-10z m28 -10 c3 -11 1 -20 -4 -20 -5 0 -9 9 -9 20 0 11 2 20 4 20 2 0 6 -9 9
-20z m372 11 c3 -6 -3 -9 -14 -8 -11 0 -17 5 -15 9 7 11 22 10 29 -1z m352
-23 c-3 -7 -5 -2 -5 12 0 14 2 19 5 13 2 -7 2 -19 0 -25z m43 22 c0 -5 -2 -10
-4 -10 -3 0 -8 5 -11 10 -3 6 -1 10 4 10 6 0 11 -4 11 -10z m-1240 -34 c0 -23
-6 -36 -17 -41 -15 -5 -16 -4 -5 6 6 7 12 26 12 41 0 15 2 28 5 28 3 0 5 -15
5 -34z m67 12 c-3 -8 -6 -5 -6 6 -1 11 2 17 5 13 3 -3 4 -12 1 -19z m330 -10
c-3 -7 -5 -2 -5 12 0 14 2 19 5 13 2 -7 2 -19 0 -25z m400 -5 c-3 -10 -5 -4
-5 12 0 17 2 24 5 18 2 -7 2 -21 0 -30z m488 9 c-3 -3 -11 0 -18 7 -9 10 -8
11 6 5 10 -3 15 -9 12 -12z m-1171 -23 c-3 -6 -7 -9 -8 -7 -1 2 -8 12 -16 22
-14 18 -14 19 8 7 12 -7 20 -17 16 -22z m-475 8 c8 -10 7 -14 -4 -14 -8 0 -15
6 -15 14 0 7 2 13 4 13 2 0 9 -6 15 -13z m76 3 c3 -5 2 -10 -4 -10 -5 0 -13 5
-16 10 -3 6 -2 10 4 10 5 0 13 -4 16 -10z m800 0 c3 -5 2 -10 -4 -10 -5 0 -13
5 -16 10 -3 6 -2 10 4 10 5 0 13 -4 16 -10z m245 0 c0 -5 -5 -10 -11 -10 -5 0
-7 5 -4 10 3 6 8 10 11 10 2 0 4 -4 4 -10z m400 -6 c0 -8 -5 -12 -10 -9 -6 4
-8 11 -5 16 9 14 15 11 15 -7z m-1116 -2 c3 -5 -1 -9 -9 -9 -8 0 -15 4 -15 9
0 4 4 8 9 8 6 0 12 -4 15 -8z m23 -29 c-3 -10 -5 -4 -5 12 0 17 2 24 5 18 2
-7 2 -21 0 -30z m403 15 c0 -18 -2 -20 -9 -8 -6 8 -7 18 -5 22 9 14 14 9 14
-14z m375 13 c3 -6 -3 -9 -14 -8 -11 0 -17 5 -15 9 7 11 22 10 29 -1z m352
-23 c-3 -7 -5 -2 -5 12 0 14 2 19 5 13 2 -7 2 -19 0 -25z m43 24 c0 -5 -7 -9
-15 -9 -8 0 -12 4 -9 9 3 4 9 8 15 8 5 0 9 -4 9 -8z m-1640 -11 c0 -5 -7 -12
-16 -15 -14 -5 -15 -4 -4 9 14 17 20 19 20 6z m802 -18 c-5 -25 -3 -26 11 -15
13 11 20 11 41 -3 14 -10 26 -19 26 -21 0 -9 -26 2 -37 16 -12 13 -15 13 -26
-2 -8 -10 -17 -15 -20 -11 -10 9 -8 63 2 63 4 0 6 -12 3 -27z m878 12 c7 -8 8
-15 2 -15 -5 0 -15 7 -22 15 -7 8 -8 15 -2 15 5 0 15 -7 22 -15z m-1568 -39
c-7 -13 -21 16 -14 32 4 13 7 12 12 -4 4 -10 5 -23 2 -28z m-157 14 c-3 -5
-11 -10 -16 -10 -6 0 -7 5 -4 10 3 6 11 10 16 10 6 0 7 -4 4 -10z m505 -11
l25 -21 -28 16 c-15 9 -33 14 -39 10 -7 -4 -8 -3 -4 4 10 16 17 15 46 -9z m55
11 c3 -5 2 -10 -4 -10 -5 0 -13 5 -16 10 -3 6 -2 10 4 10 5 0 13 -4 16 -10z
m645 0 c0 -5 -5 -10 -11 -10 -5 0 -7 5 -4 10 3 6 8 10 11 10 2 0 4 -4 4 -10z
m86 -2 c4 -7 3 -8 -4 -4 -6 4 -30 -5 -53 -19 -22 -15 -43 -24 -46 -22 -4 5 74
54 89 56 4 1 10 -4 14 -11z m319 2 c-3 -5 -11 -10 -16 -10 -6 0 -7 5 -4 10 3
6 11 10 16 10 6 0 7 -4 4 -10z m-1485 -26 c0 -2 -9 0 -20 6 -11 6 -20 13 -20
16 0 2 9 0 20 -6 11 -6 20 -13 20 -16z m1181 3 c-10 -9 -11 -8 -5 6 3 10 9 15
12 12 3 -3 0 -11 -7 -18z m359 17 c0 -2 -9 -8 -20 -14 -15 -8 -18 -8 -14 3 4
11 34 21 34 11z m-1616 -12 c2 -4 -4 -8 -14 -8 -10 0 -16 4 -14 8 3 4 9 8 14
8 5 0 11 -4 14 -8z m236 -2 c0 -5 -4 -10 -9 -10 -6 0 -13 5 -16 10 -3 6 1 10
9 10 9 0 16 -4 16 -10z m90 6 c0 -2 -7 -7 -16 -10 -8 -3 -12 -2 -9 4 6 10 25
14 25 6z m310 -6 c0 -5 -5 -10 -11 -10 -5 0 -7 5 -4 10 3 6 8 10 11 10 2 0 4
-4 4 -10z m400 0 c0 -5 -5 -10 -11 -10 -5 0 -7 5 -4 10 3 6 8 10 11 10 2 0 4
-4 4 -10z m395 0 c3 -5 1 -10 -4 -10 -6 0 -11 5 -11 10 0 6 2 10 4 10 3 0 8
-4 11 -10z m-665 -15 c-7 -8 -18 -15 -24 -15 -6 0 -2 7 8 15 25 19 32 19 16 0z
m546 -13 c-4 -3 -14 2 -24 12 -16 18 -16 18 6 6 13 -6 21 -14 18 -18z m400 0
c-4 -3 -14 2 -24 12 -16 18 -16 18 6 6 13 -6 21 -14 18 -18z m-1831 8 c-3 -6
1 -13 9 -16 17 -7 23 -64 6 -64 -5 0 -7 6 -4 14 9 23 -15 58 -34 52 -13 -5
-12 -2 2 9 23 17 30 19 21 5z m75 0 c0 -5 -5 -10 -11 -10 -5 0 -7 5 -4 10 3 6
8 10 11 10 2 0 4 -4 4 -10z m80 6 c0 -2 -7 -7 -16 -10 -8 -3 -12 -2 -9 4 6 10
25 14 25 6z m85 -12 c24 -16 51 -11 40 7 -3 5 1 6 9 3 12 -5 12 -8 -2 -23 -15
-16 -19 -16 -40 -2 -20 12 -28 12 -44 2 -15 -9 -23 -10 -32 -1 -8 8 -7 10 6 5
12 -5 20 -1 24 9 8 20 9 20 39 0z m160 6 c-3 -6 1 -13 9 -16 9 -3 16 -10 16
-16 0 -5 -4 -7 -9 -4 -5 3 -14 -1 -21 -9 -14 -17 -30 -20 -30 -4 0 5 4 8 9 5
5 -3 14 1 20 8 14 17 -1 31 -21 21 -7 -4 -4 1 6 9 23 18 30 20 21 6z m75 0 c0
-5 -5 -10 -11 -10 -5 0 -7 5 -4 10 3 6 8 10 11 10 2 0 4 -4 4 -10z m90 -5 c7
-9 20 -13 29 -10 13 5 13 4 4 -6 -10 -10 -17 -9 -32 5 -11 10 -25 15 -32 10
-8 -4 -10 -3 -5 4 10 16 21 15 36 -3z m65 5 c3 -5 2 -10 -4 -10 -5 0 -13 5
-16 10 -3 6 -2 10 4 10 5 0 13 -4 16 -10z m90 0 c-3 -5 -12 -10 -18 -10 -7 0
-6 4 3 10 19 12 23 12 15 0z m82 -5 c0 -6 -8 -11 -17 -11 -9 0 -17 5 -17 11 0
6 8 11 17 11 9 0 17 -5 17 -11z m163 0 c7 -9 20 -13 29 -10 13 5 13 4 4 -6
-10 -10 -17 -9 -32 5 -11 10 -25 15 -32 10 -8 -4 -10 -3 -5 4 10 16 21 15 36
-3z m65 5 c3 -5 2 -10 -4 -10 -5 0 -13 5 -16 10 -3 6 -2 10 4 10 5 0 13 -4 16
-10z m92 -4 c0 -8 -6 -12 -15 -9 -11 5 -11 7 0 14 7 5 13 9 14 9 0 0 1 -6 1
-14z m73 -1 c0 -2 -6 -5 -13 -8 -8 -3 -14 1 -14 8 0 7 6 11 14 8 7 -3 13 -6
13 -8z m164 7 c2 -4 -4 -8 -14 -8 -10 0 -16 4 -14 8 3 4 9 8 14 8 5 0 11 -4
14 -8z m163 -6 c0 -8 -6 -12 -15 -9 -11 5 -11 7 0 14 7 5 13 9 14 9 0 0 1 -6
1 -14z m73 -1 c0 -2 -6 -5 -13 -8 -8 -3 -14 1 -14 8 0 7 6 11 14 8 7 -3 13 -6
13 -8z m94 -1 c4 -9 13 -14 22 -10 8 3 12 2 9 -4 -3 -6 -2 -10 2 -10 5 0 17
-6 27 -13 16 -12 16 -14 2 -14 -9 0 -16 3 -16 6 0 4 -16 15 -35 25 -32 18 -36
18 -59 2 -31 -20 -33 -20 -33 -2 0 8 5 12 11 10 7 -3 20 2 31 10 26 20 32 20
39 0z m216 -4 c-18 -14 -19 -18 -7 -28 7 -7 17 -9 20 -5 4 3 7 1 7 -6 0 -7 -6
-10 -12 -7 -7 3 -21 9 -30 12 -22 8 -23 20 -2 28 8 3 13 9 10 14 -2 4 4 8 15
8 19 0 19 -1 -1 -16z m-1786 -16 c3 -7 -2 -10 -15 -7 -22 6 -26 20 -4 20 8 0
16 -6 19 -13z m229 3 c4 3 7 1 7 -5 0 -17 -16 -15 -31 6 -12 15 -12 16 2 5 9
-7 19 -10 22 -6z m167 4 c0 -5 -10 -11 -22 -14 -22 -6 -22 -6 -4 8 23 17 26
18 26 6z m166 -19 c-4 -3 -14 2 -24 12 -16 18 -16 18 6 6 13 -6 21 -14 18 -18z
m229 10 c-3 -3 -11 0 -18 7 -9 10 -8 11 6 5 10 -3 15 -9 12 -12z m171 -10 c-4
-3 -14 2 -24 12 -16 18 -16 18 6 6 13 -6 21 -14 18 -18z m154 13 c-7 -8 -18
-15 -24 -15 -6 0 -2 7 8 15 25 19 32 19 16 0z m75 -3 c-3 -3 -11 0 -18 7 -9
10 -8 11 6 5 10 -3 15 -9 12 -12z m90 8 c-3 -5 -12 -10 -18 -10 -7 0 -6 4 3
10 19 12 23 12 15 0z m117 -22 c3 1 9 -6 12 -14 5 -12 -3 -10 -32 7 -50 30
-65 46 -22 23 19 -10 38 -17 42 -16z m-762 12 c0 -5 -4 -10 -10 -10 -5 0 -10
5 -10 10 0 6 5 10 10 10 6 0 10 -4 10 -10z m70 0 c0 -5 -5 -10 -11 -10 -5 0
-7 5 -4 10 3 6 8 10 11 10 2 0 4 -4 4 -10z m330 0 c0 -5 -4 -10 -10 -10 -5 0
-10 5 -10 10 0 6 5 10 10 10 6 0 10 -4 10 -10z m400 0 c0 -5 -4 -10 -10 -10
-5 0 -10 5 -10 10 0 6 5 10 10 10 6 0 10 -4 10 -10z m253 3 c3 -5 -5 -8 -18
-8 -13 0 -21 3 -18 8 2 4 10 7 18 7 8 0 16 -3 18 -7z m-1646 -17 c0 -8 -6 -12
-15 -9 -11 5 -11 7 0 14 7 5 13 9 14 9 0 0 1 -6 1 -14z m803 -9 c0 -2 -8 -3
-18 -3 -10 0 -19 6 -19 13 0 8 6 9 19 2 10 -5 18 -11 18 -12z m390 8 c0 -2 -6
-5 -13 -8 -8 -3 -14 1 -14 8 0 7 6 11 14 8 7 -3 13 -6 13 -8z m-1366 -7 c-3
-4 -9 -8 -15 -8 -5 0 -9 4 -9 8 0 5 7 9 15 9 8 0 12 -4 9 -9z m336 6 c0 -8
-19 -13 -24 -6 -3 5 1 9 9 9 8 0 15 -2 15 -3z m241 -11 c13 -16 12 -17 -3 -5
-9 8 -23 10 -29 6 -8 -4 -9 -3 -5 4 10 17 21 15 37 -5z m175 -14 c3 -6 -5 -3
-20 6 -14 10 -26 19 -26 22 0 7 39 -17 46 -28z m54 25 c0 -2 -9 -8 -20 -14
-15 -8 -18 -8 -14 3 4 11 34 21 34 11z m334 -11 c4 -11 1 -11 -14 -3 -24 13
-25 17 -5 17 8 0 16 -6 19 -14z m45 -4 c-13 -10 -25 -16 -27 -14 -7 7 22 32
36 32 9 0 5 -7 -9 -18z m400 -2 c-13 -13 -26 -21 -29 -19 -5 4 38 42 48 42 3
0 -6 -10 -19 -23z m-1139 -2 c-7 -8 -18 -15 -24 -15 -6 0 -2 7 8 15 25 19 32
19 16 0z m1440 -7 c0 -6 -6 -5 -15 2 -8 7 -15 14 -15 16 0 2 7 1 15 -2 8 -4
15 -11 15 -16z m-1560 -24 c0 -2 -13 2 -30 11 -16 9 -30 18 -30 21 0 2 14 -2
30 -11 17 -9 30 -18 30 -21z m40 30 c0 -8 -19 -13 -24 -6 -3 5 1 9 9 9 8 0 15
-2 15 -3z m325 -4 c3 -5 2 -10 -4 -10 -5 0 -13 5 -16 10 -3 6 -2 10 4 10 5 0
13 -4 16 -10z m150 0 c-3 -5 -11 -10 -16 -10 -6 0 -7 5 -4 10 3 6 11 10 16 10
6 0 7 -4 4 -10z m245 0 c0 -5 -2 -10 -4 -10 -3 0 -8 5 -11 10 -3 6 -1 10 4 10
6 0 11 -4 11 -10z m160 6 c0 -3 -4 -8 -10 -11 -5 -3 -10 -1 -10 4 0 6 5 11 10
11 6 0 10 -2 10 -4z m245 -6 c3 -5 2 -10 -4 -10 -5 0 -13 5 -16 10 -3 6 -2 10
4 10 5 0 13 -4 16 -10z m155 5 c0 -2 -13 -11 -30 -20 -16 -9 -30 -12 -30 -7 0
4 12 13 28 19 15 6 28 11 30 12 1 1 2 -1 2 -4z m-845 -15 c3 -5 -8 -16 -24
-25 -19 -9 -32 -11 -36 -5 -3 6 3 10 15 10 11 0 23 7 26 15 7 17 11 19 19 5z
m325 -6 c0 -8 -5 -12 -10 -9 -6 4 -8 11 -5 16 9 14 15 11 15 -7z m-1120 1 c0
-2 -10 -10 -22 -16 -21 -11 -22 -11 -9 4 13 16 31 23 31 12z m400 0 c0 -2 -10
-10 -22 -16 -21 -11 -22 -11 -9 4 13 16 31 23 31 12z m320 -5 c0 -5 -2 -10 -4
-10 -3 0 -8 5 -11 10 -3 6 -1 10 4 10 6 0 11 -4 11 -10z m473 -10 c-3 -11 -7
-20 -9 -20 -2 0 -4 9 -4 20 0 11 4 20 9 20 5 0 7 -9 4 -20z m332 10 c3 -5 15
-10 26 -10 11 0 17 -4 14 -10 -6 -9 -65 14 -65 25 0 9 19 5 25 -5z m406 -7
c13 -15 12 -15 -8 -4 -24 12 -29 21 -14 21 5 0 15 -7 22 -17z m-1581 -13 c0
-5 -2 -10 -4 -10 -3 0 -8 5 -11 10 -3 6 -1 10 4 10 6 0 11 -4 11 -10z m810 0
c0 -5 -4 -10 -9 -10 -6 0 -13 5 -16 10 -3 6 1 10 9 10 9 0 16 -4 16 -10z m320
-12 c0 -6 -6 -5 -15 2 -8 7 -15 14 -15 16 0 2 7 1 15 -2 8 -4 15 -11 15 -16z
m-1450 2 c0 -5 -5 -10 -11 -10 -5 0 -7 5 -4 10 3 6 8 10 11 10 2 0 4 -4 4 -10z
m255 0 c3 -5 2 -10 -4 -10 -5 0 -13 5 -16 10 -3 6 -2 10 4 10 5 0 13 -4 16
-10z m145 0 c0 -5 -5 -10 -11 -10 -5 0 -7 5 -4 10 3 6 8 10 11 10 2 0 4 -4 4
-10z m255 0 c3 -5 2 -10 -4 -10 -5 0 -13 5 -16 10 -3 6 -2 10 4 10 5 0 13 -4
16 -10z m150 0 c-3 -5 -11 -10 -16 -10 -6 0 -7 5 -4 10 3 6 11 10 16 10 6 0 7
-4 4 -10z m245 0 c0 -5 -2 -10 -4 -10 -3 0 -8 5 -11 10 -3 6 -1 10 4 10 6 0
11 -4 11 -10z m155 0 c-3 -5 -11 -10 -16 -10 -6 0 -7 5 -4 10 3 6 11 10 16 10
6 0 7 -4 4 -10z m405 5 c0 -2 -13 -11 -30 -20 -16 -9 -30 -12 -30 -8 0 5 10
13 23 19 25 13 37 16 37 9z m-1245 -26 c-10 -15 -25 -10 -19 6 4 8 10 12 15 9
5 -3 7 -10 4 -15z m400 0 c-10 -15 -25 -10 -19 6 4 8 10 12 15 9 5 -3 7 -10 4
-15z m-795 6 c0 -2 -10 -10 -22 -16 -21 -11 -22 -11 -9 4 13 16 31 23 31 12z
m318 -20 c-3 -3 -9 2 -12 12 -6 14 -5 15 5 6 7 -7 10 -15 7 -18z m402 15 c0
-5 -2 -10 -4 -10 -3 0 -8 5 -11 10 -3 6 -1 10 4 10 6 0 11 -4 11 -10z m423 -6
c9 -4 17 -10 17 -15 0 -14 -13 -10 -40 12 -14 11 -18 18 -10 15 8 -3 23 -9 33
-12z m51 1 c-4 -8 -8 -15 -10 -15 -2 0 -4 7 -4 15 0 8 4 15 10 15 5 0 7 -7 4
-15z m331 5 c3 -5 15 -10 26 -10 11 0 17 -4 14 -10 -6 -9 -65 14 -65 25 0 9
19 5 25 -5z m-1171 -21 c-3 -5 -10 -7 -15 -3 -5 3 -7 10 -3 15 3 5 10 7 15 3
5 -3 7 -10 3 -15z m406 7 c0 -11 -19 -15 -25 -6 -3 5 1 10 9 10 9 0 16 -2 16
-4z m1117 -28 c-3 -8 -6 -5 -6 6 -1 11 2 17 5 13 3 -3 4 -12 1 -19z m-1450
-30 c-3 -8 -6 -5 -6 6 -1 11 2 17 5 13 3 -3 4 -12 1 -19z m777 -27 c9 -12 8
-12 -11 -3 -16 9 -20 18 -15 34 6 22 6 22 10 3 2 -11 9 -26 16 -34z m-81 26
c3 -8 1 -20 -4 -28 -6 -10 -9 -7 -9 14 0 29 5 35 13 14z m-1133 -17 c0 -5 -7
-7 -15 -4 -8 4 -15 8 -15 10 0 2 7 4 15 4 8 0 15 -4 15 -10z m340 5 c0 -2 -10
-10 -22 -16 -21 -11 -22 -11 -9 4 13 16 31 23 31 12z m60 -5 c0 -5 -2 -10 -4
-10 -3 0 -8 5 -11 10 -3 6 -1 10 4 10 6 0 11 -4 11 -10z m340 5 c0 -2 -10 -10
-22 -16 -21 -11 -22 -11 -9 4 13 16 31 23 31 12z m60 -5 c0 -5 -2 -10 -4 -10
-3 0 -8 5 -11 10 -3 6 -1 10 4 10 6 0 11 -4 11 -10z m734 -5 c-4 -8 -8 -15
-10 -15 -2 0 -4 7 -4 15 0 8 4 15 10 15 5 0 7 -7 4 -15z m70 7 c2 -4 1 -14 -3
-21 -6 -9 -10 -7 -14 8 -5 20 7 29 17 13z m-1241 -22 c3 -11 1 -20 -4 -20 -5
0 -9 9 -9 20 0 11 2 20 4 20 2 0 6 -9 9 -20z m74 -22 c-3 -7 -5 -2 -5 12 0 14
2 19 5 13 2 -7 2 -19 0 -25z m327 17 c3 -8 1 -15 -4 -15 -6 0 -10 7 -10 15 0
8 2 15 4 15 2 0 6 -7 10 -15z m1126 0 c0 -8 -4 -15 -10 -15 -5 0 -7 7 -4 15 4
8 8 15 10 15 2 0 4 -7 4 -15z m-1845 -5 c3 -5 1 -10 -4 -10 -6 0 -11 5 -11 10
0 6 2 10 4 10 3 0 8 -4 11 -10z m240 0 c-3 -5 -11 -10 -16 -10 -6 0 -7 5 -4
10 3 6 11 10 16 10 6 0 7 -4 4 -10z m405 6 c0 -3 -4 -8 -10 -11 -5 -3 -10 -1
-10 4 0 6 5 11 10 11 6 0 10 -2 10 -4z m565 -14 c-3 -3 -11 0 -18 7 -9 10 -8
11 6 5 10 -3 15 -9 12 -12z m395 8 c0 -5 -2 -10 -4 -10 -3 0 -8 5 -11 10 -3 6
-1 10 4 10 6 0 11 -4 11 -10z m-915 -9 c3 -6 -4 -15 -15 -21 -19 -10 -20 -10
-8 9 15 24 15 24 23 12z m399 -16 c-4 -8 -10 -13 -15 -10 -4 3 -6 12 -3 20 4
8 10 13 15 10 4 -3 6 -12 3 -20z m401 16 c3 -5 1 -12 -5 -16 -5 -3 -10 1 -10
9 0 18 6 21 15 7z m-1200 -11 c-3 -5 -11 -10 -16 -10 -6 0 -7 5 -4 10 3 6 11
10 16 10 6 0 7 -4 4 -10z m65 0 c0 -5 -2 -10 -4 -10 -3 0 -8 5 -11 10 -3 6 -1
10 4 10 6 0 11 -4 11 -10z m260 6 c0 -2 -7 -7 -16 -10 -8 -3 -12 -2 -9 4 6 10
25 14 25 6z m151 -13 c13 -15 12 -15 -8 -4 -24 12 -29 21 -14 21 5 0 15 -7 22
-17z m394 7 c3 -5 2 -10 -4 -10 -5 0 -13 5 -16 10 -3 6 -2 10 4 10 5 0 13 -4
16 -10z m397 -14 c-2 -10 1 -23 7 -30 7 -8 5 -12 -7 -12 -13 0 -17 9 -17 33 0
18 5 31 10 29 6 -1 9 -11 7 -20z m-1565 -28 c-3 -7 -5 -2 -5 12 0 14 2 19 5
13 2 -7 2 -19 0 -25z m253 17 c-7 -8 -18 -15 -24 -15 -6 0 -2 7 8 15 25 19 32
19 16 0z m152 -19 c3 -31 2 -33 -14 -25 -10 5 -18 12 -18 15 0 3 5 2 10 -1 6
-4 10 5 10 19 0 37 7 32 12 -8z m402 18 c3 -8 2 -12 -4 -9 -6 3 -10 10 -10 16
0 14 7 11 14 -7z m643 -6 c-3 -8 -6 -5 -6 6 -1 11 2 17 5 13 3 -3 4 -12 1 -19z
m-1103 -1 c17 -13 18 -14 2 -20 -10 -4 -14 -11 -11 -17 3 -6 -1 -7 -10 -4 -14
6 -14 8 1 19 16 11 16 13 -2 23 -10 6 -14 12 -8 12 5 0 18 -6 28 -13z m306 8
c0 -2 -10 -10 -22 -16 -21 -11 -22 -11 -9 4 13 16 31 23 31 12z m400 0 c0 -2
-10 -9 -22 -15 -22 -11 -22 -10 -4 4 21 17 26 19 26 11z m65 -8 c-12 -10 -14
-16 -7 -21 7 -4 16 -5 20 -2 5 3 9 -1 9 -9 0 -12 -5 -11 -29 3 -32 19 -35 29
-10 35 32 9 36 7 17 -6z m45 -3 c0 -8 -5 -12 -10 -9 -6 4 -8 11 -5 16 9 14 15
11 15 -7z m356 4 c-18 -10 -18 -11 3 -27 21 -16 21 -17 2 -17 -11 0 -17 4 -15
8 3 5 -2 11 -10 14 -9 3 -16 10 -16 16 0 5 4 7 9 3 5 -3 12 -1 16 5 3 5 12 10
18 10 7 0 3 -6 -7 -12z m94 2 c0 -5 -2 -10 -4 -10 -3 0 -8 5 -11 10 -3 6 -1
10 4 10 6 0 11 -4 11 -10z m240 0 c0 -5 -5 -10 -11 -10 -5 0 -7 5 -4 10 3 6 8
10 11 10 2 0 4 -4 4 -10z m-1876 -21 c44 -26 48 -36 6 -14 -17 9 -34 14 -39
11 -4 -3 -8 1 -8 9 0 19 -1 19 41 -6z m321 13 c-18 -16 -85 -54 -85 -48 0 7
72 55 85 55 6 1 6 -2 0 -7z m402 -5 c0 -7 -8 -13 -18 -13 -13 0 -15 3 -7 13 6
7 14 13 18 13 3 0 7 -6 7 -13z m63 4 c0 -5 -7 -12 -16 -15 -8 -3 -12 -10 -9
-16 3 -5 0 -7 -9 -4 -12 5 -12 8 2 24 19 20 32 25 32 11z m-630 -5 c0 -2 -7
-7 -16 -10 -8 -3 -12 -2 -9 4 6 10 25 14 25 6z m400 0 c0 -2 -7 -7 -16 -10 -8
-3 -12 -2 -9 4 6 10 25 14 25 6z m410 -11 c7 -9 19 -14 27 -11 21 8 15 -2 -8
-15 -13 -7 -19 -7 -15 -1 3 6 -4 18 -16 26 -12 9 -17 16 -11 16 6 0 16 -7 23
-15z m395 5 c3 -6 -1 -7 -9 -4 -18 7 -21 14 -7 14 6 0 13 -4 16 -10z m400 0
c3 -6 -1 -7 -9 -4 -18 7 -21 14 -7 14 6 0 13 -4 16 -10z m-1641 -25 c2 -6 -5
-11 -18 -11 -12 1 -20 -4 -18 -12 2 -10 -2 -10 -18 -2 -23 12 -27 22 -5 14 8
-3 17 0 20 8 7 17 32 19 39 3z m76 1 c-7 -7 -13 -7 -20 0 -6 6 -3 10 10 10 13
0 16 -4 10 -10z m330 -11 c0 -2 -7 -2 -15 1 -8 4 -22 1 -31 -6 -12 -10 -17
-11 -27 -1 -9 10 -8 11 5 6 12 -5 20 -1 24 9 5 12 10 13 25 5 10 -5 19 -12 19
-14z m75 15 c-3 -5 -12 -10 -18 -10 -7 0 -6 4 3 10 19 12 23 12 15 0z m79 2
c3 -5 -1 -9 -9 -9 -8 0 -12 4 -9 9 3 4 7 8 9 8 2 0 6 -4 9 -8z m150 0 c3 -5
-1 -9 -9 -9 -8 0 -12 4 -9 9 3 4 7 8 9 8 2 0 6 -4 9 -8z m96 -18 c0 -2 -9 0
-20 6 -11 6 -20 13 -20 16 0 2 9 0 20 -6 11 -6 20 -13 20 -16z m390 12 c-7 -7
-13 -7 -20 0 -6 6 -3 10 10 10 13 0 16 -4 10 -10z m118 -12 c7 4 12 5 12 2 0
-3 -9 -10 -20 -16 -16 -8 -20 -8 -18 2 2 8 -6 13 -21 12 -22 -1 -23 0 -6 12
15 11 20 11 30 -3 7 -9 17 -13 23 -9z m46 18 c3 -5 -1 -9 -9 -9 -8 0 -12 4 -9
9 3 4 7 8 9 8 2 0 6 -4 9 -8z m229 -10 c-10 -7 -17 -17 -16 -21 1 -4 -5 -8
-13 -8 -19 0 -18 13 2 21 8 3 13 9 10 14 -2 4 4 8 15 8 19 0 20 -1 2 -14z
m127 -7 c6 3 10 4 10 2 0 -9 -100 -65 -104 -59 -2 4 13 16 35 26 38 19 44 42
9 33 -13 -3 -17 0 -13 9 5 13 9 12 29 -1 14 -9 29 -13 34 -10z m-1516 2 c-3
-8 -11 -14 -19 -14 -21 0 -19 15 3 20 9 3 18 5 19 6 1 0 0 -5 -3 -12z m-324
-7 c0 -5 -2 -10 -4 -10 -3 0 -8 5 -11 10 -3 6 -1 10 4 10 6 0 11 -4 11 -10z
m165 1 c-3 -6 3 -14 12 -20 10 -5 15 -12 11 -16 -3 -4 -15 2 -27 14 -13 13
-16 21 -8 25 18 7 19 7 12 -3z m65 -10 c0 -4 -6 -8 -14 -8 -8 0 -12 6 -9 14 5
13 23 9 23 -6z m170 9 c0 -5 -2 -10 -4 -10 -3 0 -8 5 -11 10 -3 6 -1 10 4 10
6 0 11 -4 11 -10z m320 1 c0 -5 -9 -11 -21 -14 -16 -4 -18 -3 -8 9 13 16 29
19 29 5z m80 -1 c0 -5 -4 -10 -10 -10 -5 0 -10 5 -10 10 0 6 5 10 10 10 6 0
10 -4 10 -10z m85 1 c-9 -15 34 -24 50 -11 12 10 18 10 30 0 8 -7 23 -9 32 -6
17 7 17 6 1 -11 -17 -16 -18 -16 -33 2 -14 19 -15 19 -29 2 -14 -18 -16 -18
-40 -2 -22 14 -27 35 -10 35 3 0 3 -4 -1 -9z m235 1 c0 -4 -15 -13 -32 -20
l-33 -12 25 20 c27 21 40 25 40 12z m80 -2 c0 -5 -2 -10 -4 -10 -3 0 -8 5 -11
10 -3 6 -1 10 4 10 6 0 11 -4 11 -10z m84 -2 c-3 -4 -11 -5 -19 -1 -21 7 -19
12 4 10 11 0 18 -5 15 -9z m236 2 c0 -5 -2 -10 -4 -10 -3 0 -8 5 -11 10 -3 6
-1 10 4 10 6 0 11 -4 11 -10z m90 0 c0 -5 -7 -10 -15 -10 -8 0 -15 5 -15 10 0
6 7 10 15 10 8 0 15 -4 15 -10z m160 -16 c0 -3 -5 -2 -12 2 -6 4 -17 -1 -24
-11 -8 -10 -17 -15 -21 -11 -4 4 0 12 10 17 9 6 15 15 11 21 -4 6 2 6 15 -1
11 -7 21 -14 21 -17z m150 16 c0 -5 -4 -10 -10 -10 -5 0 -10 5 -10 10 0 6 5
10 10 10 6 0 10 -4 10 -10z m-1354 -11 c3 -6 15 -8 27 -5 19 5 19 4 4 -12 -16
-15 -18 -15 -30 2 -9 12 -19 16 -27 11 -9 -5 -11 -4 -6 3 9 15 23 15 32 1z
m61 -36 c-3 -10 -5 -2 -5 17 0 19 2 27 5 18 2 -10 2 -26 0 -35z m712 26 c-19
-19 -23 -20 -37 -6 -14 15 -13 15 5 11 12 -3 24 -1 27 5 4 6 11 11 17 11 5 0
0 -9 -12 -21z m-972 -6 c0 -8 -6 -9 -19 -2 -10 5 -18 11 -18 12 0 2 8 3 18 3
10 0 19 -6 19 -13z m159 -11 c-4 -3 -14 2 -24 12 -16 18 -16 18 6 6 13 -6 21
-14 18 -18z m241 11 c0 -8 -6 -9 -19 -2 -10 5 -18 11 -18 12 0 2 8 3 18 3 10
0 19 -6 19 -13z m400 2 c0 -6 -8 -11 -17 -11 -9 0 -17 5 -17 11 0 6 8 11 17
11 9 0 17 -5 17 -11z m393 1 c-7 -7 -13 -7 -20 0 -6 6 -3 10 10 10 13 0 16 -4
10 -10z m-1425 -10 c14 -8 23 -16 18 -19 -5 -3 -20 3 -33 14 -30 22 -23 25 15
5z m1260 4 c-3 -5 -11 -10 -16 -10 -6 0 -7 5 -4 10 3 6 11 10 16 10 6 0 7 -4
4 -10z m-1310 -29 c-6 -5 -25 10 -25 20 0 5 6 4 14 -3 8 -7 12 -15 11 -17z
m142 -3 c-3 -7 -5 -2 -5 12 0 14 2 19 5 13 2 -7 2 -19 0 -25z m659 5 c-7 -7
-26 7 -26 19 0 6 6 6 15 -2 9 -7 13 -15 11 -17z m154 12 c-7 -8 -18 -15 -24
-15 -6 0 -2 7 8 15 25 19 32 19 16 0z m240 -7 c0 -6 -6 -5 -15 2 -8 7 -15 14
-15 16 0 2 7 1 15 -2 8 -4 15 -11 15 -16z m160 12 c0 -5 -5 -10 -11 -10 -5 0
-7 5 -4 10 3 6 8 10 11 10 2 0 4 -4 4 -10z m400 1 c0 -5 -7 -12 -16 -15 -14
-5 -15 -4 -4 9 14 17 20 19 20 6z m-1355 -11 c3 -5 2 -10 -4 -10 -5 0 -13 5
-16 10 -3 6 -2 10 4 10 5 0 13 -4 16 -10z m75 6 c0 -3 -4 -8 -10 -11 -5 -3
-10 -1 -10 4 0 6 5 11 10 11 6 0 10 -2 10 -4z m-360 -21 c-7 -8 -18 -15 -24
-15 -6 0 -2 7 8 15 25 19 32 19 16 0z m750 -19 c8 -3 4 -4 -10 -3 -27 2 -42
16 -33 30 3 4 10 2 16 -6 7 -8 19 -17 27 -21z m376 6 c-4 -3 -14 2 -24 12 -16
18 -16 18 6 6 13 -6 21 -14 18 -18z m-806 8 c0 -5 -2 -10 -4 -10 -3 0 -8 5
-11 10 -3 6 -1 10 4 10 6 0 11 -4 11 -10z m75 0 c-3 -5 -11 -10 -16 -10 -6 0
-7 5 -4 10 3 6 11 10 16 10 6 0 7 -4 4 -10z m399 -5 c-4 -8 -10 -12 -15 -9
-11 6 -2 24 11 24 5 0 7 -7 4 -15z m401 5 c-3 -5 -11 -10 -16 -10 -6 0 -7 5
-4 10 3 6 11 10 16 10 6 0 7 -4 4 -10z m330 0 c3 -5 2 -10 -4 -10 -5 0 -13 5
-16 10 -3 6 -2 10 4 10 5 0 13 -4 16 -10z m-1571 -21 c-3 -5 -10 -7 -15 -3 -5
3 -7 10 -3 15 3 5 10 7 15 3 5 -3 7 -10 3 -15z m473 -11 c-3 -7 -5 -2 -5 12 0
14 2 19 5 13 2 -7 2 -19 0 -25z m1050 0 c-3 -7 -5 -2 -5 12 0 14 2 19 5 13 2
-7 2 -19 0 -25z m-1591 -5 c-7 -7 -26 7 -26 19 0 6 6 6 15 -2 9 -7 13 -15 11
-17z m141 5 c-3 -8 -6 -5 -6 6 -1 11 2 17 5 13 3 -3 4 -12 1 -19z m333 18 c0
-11 -19 -15 -25 -6 -3 5 1 10 9 10 9 0 16 -2 16 -4z m320 -18 c0 -6 -6 -5 -15
2 -8 7 -15 14 -15 16 0 2 7 1 15 -2 8 -4 15 -11 15 -16z m397 0 c-3 -8 -6 -5
-6 6 -1 11 2 17 5 13 3 -3 4 -12 1 -19z m168 12 c-3 -5 -11 -10 -16 -10 -6 0
-7 5 -4 10 3 6 11 10 16 10 6 0 7 -4 4 -10z m315 0 c0 -5 -2 -10 -4 -10 -3 0
-8 5 -11 10 -3 6 -1 10 4 10 6 0 11 -4 11 -10z m90 5 c0 -2 -10 -10 -22 -16
-21 -11 -22 -11 -9 4 13 16 31 23 31 12z m-1365 -15 c3 -6 -1 -7 -9 -4 -18 7
-21 14 -7 14 6 0 13 -4 16 -10z m839 -29 c-8 -9 -22 12 -17 26 6 15 7 14 13
-3 4 -10 6 -21 4 -23z m-1134 14 c0 -8 -4 -15 -10 -15 -5 0 -7 7 -4 15 4 8 8
15 10 15 2 0 4 -7 4 -15z m735 -13 c-8 -8 -25 10 -19 20 4 6 9 5 15 -3 4 -7 6
-15 4 -17z m74 11 c-6 -7 -15 -13 -20 -13 -5 0 -6 6 -3 13 3 8 11 14 19 14 11
0 12 -4 4 -14z m-474 -3 c3 -5 2 -10 -4 -10 -5 0 -13 5 -16 10 -3 6 -2 10 4
10 5 0 13 -4 16 -10z m70 0 c-3 -5 -11 -10 -16 -10 -6 0 -7 5 -4 10 3 6 11 10
16 10 6 0 7 -4 4 -10z m799 -5 c-4 -8 -10 -12 -15 -9 -11 6 -2 24 11 24 5 0 7
-7 4 -15z m331 6 c3 -5 1 -12 -5 -16 -5 -3 -10 1 -10 9 0 18 6 21 15 7z m70
-1 c-3 -5 -11 -10 -16 -10 -6 0 -7 5 -4 10 3 6 11 10 16 10 6 0 7 -4 4 -10z
m-1640 -45 c0 -19 -3 -35 -6 -35 -4 0 -9 16 -11 35 -2 20 0 35 7 35 5 0 10
-16 10 -35z m405 31 c0 -3 -4 -8 -10 -11 -5 -3 -10 -1 -10 4 0 6 5 11 10 11 6
0 10 -2 10 -4z m800 -6 c0 -5 -2 -10 -4 -10 -3 0 -8 5 -11 10 -3 6 -1 10 4 10
6 0 11 -4 11 -10z m400 0 c0 -5 -2 -10 -4 -10 -3 0 -8 5 -11 10 -3 6 -1 10 4
10 6 0 11 -4 11 -10z m-83 -37 c-3 -10 -5 -4 -5 12 0 17 2 24 5 18 2 -7 2 -21
0 -30z m-755 -46 c-8 -31 -19 0 -13 36 4 31 5 31 11 7 3 -14 4 -33 2 -43z
m867 16 c12 -10 8 -10 -16 -1 -19 7 -29 17 -26 25 4 11 8 11 17 1 6 -7 17 -19
25 -25z m-1234 17 c3 -5 1 -10 -4 -10 -6 0 -11 5 -11 10 0 6 2 10 4 10 3 0 8
-4 11 -10z m400 0 c3 -5 1 -10 -4 -10 -6 0 -11 5 -11 10 0 6 2 10 4 10 3 0 8
-4 11 -10z m405 0 c0 -5 -5 -10 -11 -10 -5 0 -7 5 -4 10 3 6 8 10 11 10 2 0 4
-4 4 -10z m-36 -41 c0 -18 -5 -34 -10 -36 -5 -2 -8 12 -7 29 2 49 2 50 11 45
4 -3 7 -20 6 -38z m-1134 16 c0 -8 -2 -15 -4 -15 -2 0 -6 7 -10 15 -3 8 -1 15
4 15 6 0 10 -7 10 -15z m330 5 c0 -5 -5 -10 -11 -10 -5 0 -7 5 -4 10 3 6 8 10
11 10 2 0 4 -4 4 -10z m75 0 c3 -5 2 -10 -4 -10 -5 0 -13 5 -16 10 -3 6 -2 10
4 10 5 0 13 -4 16 -10z m400 0 c3 -5 2 -10 -4 -10 -5 0 -13 5 -16 10 -3 6 -2
10 4 10 5 0 13 -4 16 -10z m400 1 c3 -5 1 -12 -4 -15 -5 -3 -11 1 -15 9 -6 16
9 21 19 6z m335 5 c0 -3 -4 -8 -10 -11 -5 -3 -10 -1 -10 4 0 6 5 11 10 11 6 0
10 -2 10 -4z m-1645 -26 c-3 -5 -11 -10 -16 -10 -6 0 -7 5 -4 10 3 6 11 10 16
10 6 0 7 -4 4 -10z m175 -27 c0 -1 -6 0 -14 3 -9 4 -16 -3 -19 -18 -2 -14 -4
-8 -4 13 0 34 1 35 19 20 10 -8 18 -17 18 -18z m225 27 c-3 -5 -11 -10 -16
-10 -6 0 -7 5 -4 10 3 6 11 10 16 10 6 0 7 -4 4 -10z m405 5 c0 -2 -10 -9 -22
-15 -22 -11 -22 -10 -4 4 21 17 26 19 26 11z m950 -17 c0 -6 -6 -5 -15 2 -8 7
-15 14 -15 16 0 2 7 1 15 -2 8 -4 15 -11 15 -16z m-1685 2 c3 -5 -1 -10 -10
-10 -9 0 -13 5 -10 10 3 6 8 10 10 10 2 0 7 -4 10 -10z m400 0 c3 -5 -1 -10
-10 -10 -9 0 -13 5 -10 10 3 6 8 10 10 10 2 0 7 -4 10 -10z m400 0 c3 -5 1
-10 -4 -10 -6 0 -11 5 -11 10 0 6 2 10 4 10 3 0 8 -4 11 -10z m38 -10 c3 -11
1 -20 -4 -20 -5 0 -9 9 -9 20 0 11 2 20 4 20 2 0 6 -9 9 -20z m47 10 c0 -5 -2
-10 -4 -10 -3 0 -8 5 -11 10 -3 6 -1 10 4 10 6 0 11 -4 11 -10z m320 0 c0 -5
-5 -10 -11 -10 -5 0 -7 5 -4 10 3 6 8 10 11 10 2 0 4 -4 4 -10z m85 0 c3 -5 2
-10 -4 -10 -5 0 -13 5 -16 10 -3 6 -2 10 4 10 5 0 13 -4 16 -10z m232 -12 c-3
-8 -6 -5 -6 6 -1 11 2 17 5 13 3 -3 4 -12 1 -19z m88 12 c3 -5 -1 -10 -10 -10
-9 0 -13 5 -10 10 3 6 8 10 10 10 2 0 7 -4 10 -10z m-1654 -23 c-10 -9 -11 -8
-5 6 3 10 9 15 12 12 3 -3 0 -11 -7 -18z m409 8 c0 -8 -4 -15 -10 -15 -5 0 -7
7 -4 15 4 8 8 15 10 15 2 0 4 -7 4 -15z m-325 -5 c3 -5 2 -10 -4 -10 -5 0 -13
5 -16 10 -3 6 -2 10 4 10 5 0 13 -4 16 -10z m418 -6 c9 -4 17 -13 17 -21 0
-10 -3 -11 -12 -3 -7 6 -22 18 -33 26 -11 8 -13 13 -5 10 8 -3 23 -9 33 -12z
m307 6 c0 -5 -5 -10 -11 -10 -5 0 -7 5 -4 10 3 6 8 10 11 10 2 0 4 -4 4 -10z
m475 1 c3 -5 1 -12 -5 -16 -5 -3 -10 1 -10 9 0 18 6 21 15 7z m330 -1 c-3 -5
-11 -10 -16 -10 -6 0 -7 5 -4 10 3 6 11 10 16 10 6 0 7 -4 4 -10z m39 -15 c3
-9 0 -15 -9 -15 -9 0 -12 6 -9 15 4 8 7 15 9 15 2 0 5 -7 9 -15z m-1686 -9
c-7 -8 -15 -12 -17 -11 -5 6 10 25 20 25 5 0 4 -6 -3 -14z m77 4 c3 -5 -1 -10
-10 -10 -9 0 -13 5 -10 10 3 6 8 10 10 10 2 0 7 -4 10 -10z m335 5 c0 -2 -10
-10 -22 -16 -21 -11 -22 -11 -9 4 13 16 31 23 31 12z m395 -5 c-3 -5 -11 -10
-16 -10 -6 0 -7 5 -4 10 3 6 11 10 16 10 6 0 7 -4 4 -10z m155 -11 c0 -6 -4
-7 -10 -4 -5 3 -10 11 -10 16 0 6 5 7 10 4 6 -3 10 -11 10 -16z m410 -46 c0
-2 -24 9 -54 24 -30 16 -52 31 -50 35 4 6 104 -50 104 -59z m-15 56 c11 -17
-1 -21 -15 -4 -8 9 -8 15 -2 15 6 0 14 -5 17 -11z m411 -17 c-4 -3 -14 2 -24
12 -16 18 -16 18 6 6 13 -6 21 -14 18 -18z m-855 -2 c17 -14 19 -18 6 -14 -9
3 -23 1 -31 -5 -10 -8 -20 -8 -40 3 -18 9 -23 16 -16 21 6 4 17 -1 24 -11 7
-9 18 -14 24 -10 17 10 15 24 -5 29 -15 4 -16 5 -2 6 9 0 27 -8 40 -19z m-871
0 c0 -5 -5 -10 -11 -10 -5 0 -7 5 -4 10 3 6 8 10 11 10 2 0 4 -4 4 -10z m70 0
c0 -5 -4 -10 -10 -10 -5 0 -10 5 -10 10 0 6 5 10 10 10 6 0 10 -4 10 -10z
m177 -4 c0 -8 -6 -12 -15 -9 -11 5 -11 7 0 14 7 5 13 9 14 9 0 0 1 -6 1 -14z
m158 4 c-3 -5 -11 -10 -16 -10 -6 0 -7 5 -4 10 3 6 11 10 16 10 6 0 7 -4 4
-10z m65 0 c0 -5 -4 -10 -10 -10 -5 0 -10 5 -10 10 0 6 5 10 10 10 6 0 10 -4
10 -10z m177 -3 c0 -7 -9 -13 -19 -13 -18 0 -18 1 -2 13 10 7 18 13 19 13 1 0
2 -6 2 -13z m563 3 c0 -5 -7 -10 -16 -10 -8 0 -12 5 -9 10 3 6 10 10 16 10 5
0 9 -4 9 -10z m240 -13 c0 -2 -8 -3 -18 -3 -10 0 -19 6 -19 13 0 8 6 9 19 2
10 -5 18 -11 18 -12z m160 14 c0 -5 -9 -11 -21 -14 -16 -4 -18 -3 -8 9 13 16
29 19 29 5z m65 -1 c3 -5 1 -10 -4 -10 -6 0 -11 5 -11 10 0 6 2 10 4 10 3 0 8
-4 11 -10z m-631 -8 c2 -4 -4 -8 -14 -8 -10 0 -16 4 -14 8 3 4 9 8 14 8 5 0
11 -4 14 -8z m-1076 -14 c-2 -8 6 -13 18 -12 15 0 20 -4 17 -13 -4 -11 -10
-11 -29 2 -14 9 -30 13 -37 8 -8 -4 -7 -1 2 10 16 20 32 22 29 5z m67 -6 c-3
-3 -11 0 -18 7 -9 10 -8 11 6 5 10 -3 15 -9 12 -12z m75 6 c0 -4 -4 -8 -9 -8
-6 0 -12 4 -15 8 -3 5 1 9 9 9 8 0 15 -4 15 -9z m325 -6 c-3 -3 -11 0 -18 7
-9 10 -8 11 6 5 10 -3 15 -9 12 -12z m332 5 c0 -7 -9 -13 -19 -13 -18 0 -18 1
-2 13 10 7 18 13 19 13 1 0 2 -6 2 -13z m233 -2 c0 -1 -11 -10 -24 -18 -20
-14 -26 -14 -42 -2 -17 12 -16 13 10 8 24 -5 28 -3 23 9 -4 12 0 14 14 11 10
-3 19 -7 19 -8z m94 0 c-4 -8 -12 -15 -20 -15 -20 0 -17 18 4 23 9 3 18 5 19
6 1 0 0 -6 -3 -14z m151 5 c-3 -5 -12 -10 -18 -10 -7 0 -6 4 3 10 19 12 23 12
15 0z m245 -5 c-14 -17 -30 -20 -30 -6 0 5 8 12 18 14 9 3 19 5 21 6 2 0 -2
-6 -9 -14z m155 5 c-3 -5 -12 -10 -18 -10 -7 0 -6 4 3 10 19 12 23 12 15 0z
m85 -16 c0 -3 -4 -3 -10 1 -5 3 -18 0 -29 -7 -15 -9 -24 -9 -31 -2 -8 8 -4 10
12 10 14 -1 22 4 20 12 -2 10 2 10 18 2 11 -6 20 -13 20 -16z m-1850 6 c0 -5
-4 -10 -10 -10 -5 0 -10 5 -10 10 0 6 5 10 10 10 6 0 10 -4 10 -10z m320 0 c0
-5 -7 -10 -15 -10 -8 0 -15 5 -15 10 0 6 7 10 15 10 8 0 15 -4 15 -10z m80 0
c0 -5 -4 -10 -10 -10 -5 0 -10 5 -10 10 0 6 5 10 10 10 6 0 10 -4 10 -10z m84
2 c2 -4 -4 -8 -14 -8 -10 0 -16 4 -14 8 3 4 9 8 14 8 5 0 11 -4 14 -8z m236 0
c0 -5 -7 -9 -15 -9 -8 0 -15 4 -15 9 0 4 7 8 15 8 8 0 15 -4 15 -8z m80 -2 c0
-5 -4 -10 -10 -10 -5 0 -10 5 -10 10 0 6 5 10 10 10 6 0 10 -4 10 -10z m720 0
c0 -5 -4 -10 -10 -10 -5 0 -10 5 -10 10 0 6 5 10 10 10 6 0 10 -4 10 -10z
m166 -2 c4 -7 4 -10 -1 -6 -4 4 -20 1 -36 -8 -37 -19 -38 -10 -1 10 15 8 28
15 29 16 1 0 5 -6 9 -12z m234 2 c0 -5 -4 -10 -10 -10 -5 0 -10 5 -10 10 0 6
5 10 10 10 6 0 10 -4 10 -10z m-1647 -13 c4 3 7 1 7 -5 0 -17 -16 -15 -31 6
-12 15 -12 16 2 5 9 -7 19 -10 22 -6z m251 -2 c-4 -8 -11 -12 -16 -9 -6 4 -5
10 3 15 19 12 19 11 13 -6z m156 -11 c0 -2 -9 0 -20 6 -11 6 -20 13 -20 16 0
2 9 0 20 -6 11 -6 20 -13 20 -16z m250 21 c0 -2 -10 -9 -22 -15 -22 -11 -22
-10 -4 4 21 17 26 19 26 11z m65 -13 c-3 -3 -11 0 -18 7 -9 10 -8 11 6 5 10
-3 15 -9 12 -12z m332 5 c0 -7 -9 -13 -19 -13 -18 0 -18 1 -2 13 10 7 18 13
19 13 1 0 2 -6 2 -13z m83 -13 c0 -2 -9 0 -20 6 -11 6 -20 13 -20 16 0 2 9 0
20 -6 11 -6 20 -13 20 -16z m-1370 10 c0 -2 -9 -8 -20 -14 -15 -8 -18 -8 -14
3 4 11 34 21 34 11z m164 -2 c2 -4 -4 -8 -14 -8 -10 0 -16 4 -14 8 7 10 21 10
28 0z m161 -2 c-3 -6 1 -13 11 -17 16 -6 15 -7 -2 -20 -10 -7 -22 -13 -28 -13
-5 0 -1 6 10 14 18 14 18 15 1 22 -15 5 -16 9 -5 15 17 11 20 11 13 -1z m75 4
c0 -2 -9 -8 -20 -14 -15 -8 -18 -8 -14 3 4 11 34 21 34 11z m164 -2 c2 -4 -4
-8 -14 -8 -10 0 -16 4 -14 8 3 4 9 8 14 8 5 0 11 -4 14 -8z m160 -4 c-3 -5 2
-11 10 -14 9 -3 16 -10 16 -16 0 -5 -4 -7 -9 -3 -5 3 -12 1 -16 -5 -3 -5 -12
-10 -18 -10 -7 0 -3 6 7 12 18 10 18 11 -3 27 -21 16 -21 17 -2 17 11 0 17 -4
15 -8z m76 7 c0 -2 -10 -9 -22 -15 -22 -11 -22 -10 -4 4 21 17 26 19 26 11z
m327 -12 c0 -7 -4 -10 -9 -7 -4 3 -13 2 -20 -2 -7 -5 -5 -11 7 -21 11 -7 15
-13 9 -13 -5 0 -17 7 -27 14 -16 12 -16 14 -2 20 9 3 14 9 11 14 -2 4 3 8 13
8 10 0 18 -6 18 -13z m327 0 c4 -11 1 -11 -14 -3 -24 13 -25 17 -5 17 8 0 16
-6 19 -14z m73 0 c0 -8 -6 -9 -19 -2 -10 5 -18 11 -18 12 0 2 8 3 18 3 10 0
19 -6 19 -13z m157 9 c2 -4 -4 -8 -14 -8 -10 0 -16 4 -14 8 3 4 9 8 14 8 5 0
11 -4 14 -8z m170 -9 c4 -11 1 -11 -14 -3 -24 13 -25 17 -5 17 8 0 16 -6 19
-14z m-1904 -18 c0 -2 -6 -5 -13 -8 -8 -3 -14 1 -14 8 0 7 6 11 14 8 7 -3 13
-6 13 -8z m165 -3 c-3 -3 -11 0 -18 7 -9 10 -8 11 6 5 10 -3 15 -9 12 -12z
m168 1 c-4 -10 -9 -11 -19 -2 -18 15 -18 15 5 15 11 0 17 -5 14 -13z m237 7
c0 -5 -5 -10 -11 -10 -5 0 -7 5 -4 10 3 6 8 10 11 10 2 0 4 -4 4 -10z m160
-12 c0 -6 -6 -5 -15 2 -8 7 -15 14 -15 16 0 2 7 1 15 -2 8 -4 15 -11 15 -16z
m240 12 c0 -5 -5 -10 -11 -10 -5 0 -7 5 -4 10 3 6 8 10 11 10 2 0 4 -4 4 -10z
m404 -2 c-3 -4 -9 -8 -15 -8 -5 0 -9 4 -9 8 0 5 7 9 15 9 8 0 12 -4 9 -9z
m401 2 c-3 -5 -11 -10 -16 -10 -6 0 -7 5 -4 10 3 6 11 10 16 10 6 0 7 -4 4
-10z m172 -5 c0 -17 -13 -20 -21 -6 -4 5 0 12 6 14 7 3 13 6 14 6 0 1 1 -6 1
-14z m-1261 -23 c-4 -3 -14 2 -24 12 -16 18 -16 18 6 6 13 -6 21 -14 18 -18z
m157 3 c-7 -21 -13 -19 -13 6 0 11 4 18 10 14 5 -3 7 -12 3 -20z m247 -1 c0
-2 -9 0 -20 6 -11 6 -20 13 -20 16 0 2 9 0 20 -6 11 -6 20 -13 20 -16z m123
-7 c7 4 6 -1 -2 -10 -21 -26 -28 -20 -22 15 4 27 6 29 9 10 2 -14 8 -20 15
-15z m334 22 c8 -8 17 -8 32 0 14 8 21 8 21 1 0 -5 -4 -10 -9 -10 -5 0 -15 -2
-23 -5 -7 -3 -22 1 -33 9 -11 9 -15 16 -9 16 5 0 15 -5 21 -11z m-1505 -29 c3
-17 1 -33 -4 -36 -4 -3 -8 11 -8 30 0 44 6 47 12 6z m243 20 c3 -5 2 -10 -4
-10 -5 0 -13 5 -16 10 -3 6 -2 10 4 10 5 0 13 -4 16 -10z m165 6 c0 -3 -4 -8
-10 -11 -5 -3 -10 -1 -10 4 0 6 5 11 10 11 6 0 10 -2 10 -4z m810 0 c0 -2 -7
-7 -16 -10 -8 -3 -12 -2 -9 4 6 10 25 14 25 6z m230 -6 c0 -5 -2 -10 -4 -10
-3 0 -8 5 -11 10 -3 6 -1 10 4 10 6 0 11 -4 11 -10z m165 0 c-3 -5 -11 -10
-16 -10 -6 0 -7 5 -4 10 3 6 11 10 16 10 6 0 7 -4 4 -10z m235 0 c0 -5 -2 -10
-4 -10 -3 0 -8 5 -11 10 -3 6 -1 10 4 10 6 0 11 -4 11 -10z m-1554 -38 c-4 -3
-14 2 -24 12 -16 18 -16 18 6 6 13 -6 21 -14 18 -18z m400 0 c-4 -3 -14 2 -24
12 -16 18 -16 18 6 6 13 -6 21 -14 18 -18z m400 0 c-4 -3 -14 2 -24 12 -16 18
-16 18 6 6 13 -6 21 -14 18 -18z m391 6 c-3 -8 -6 -5 -6 6 -1 11 2 17 5 13 3
-3 4 -12 1 -19z m82 5 c-15 -17 -30 -17 -23 0 3 8 11 14 19 14 11 0 12 -4 4
-14z m-1209 -3 c0 -5 -5 -10 -11 -10 -5 0 -7 5 -4 10 3 6 8 10 11 10 2 0 4 -4
4 -10z m400 0 c0 -5 -5 -10 -11 -10 -5 0 -7 5 -4 10 3 6 8 10 11 10 2 0 4 -4
4 -10z m885 0 c-3 -5 -12 -10 -18 -10 -7 0 -6 4 3 10 19 12 23 12 15 0z m250
0 c3 -5 1 -10 -4 -10 -6 0 -11 5 -11 10 0 6 2 10 4 10 3 0 8 -4 11 -10z
m-1650 -20 c3 -5 2 -10 -4 -10 -5 0 -13 5 -16 10 -3 6 -2 10 4 10 5 0 13 -4
16 -10z m400 0 c3 -5 1 -10 -4 -10 -6 0 -11 5 -11 10 0 6 2 10 4 10 3 0 8 -4
11 -10z m158 -5 c-3 -9 -8 -14 -10 -11 -3 3 -2 9 2 15 9 16 15 13 8 -4z m247
5 c0 -5 -2 -10 -4 -10 -3 0 -8 5 -11 10 -3 6 -1 10 4 10 6 0 11 -4 11 -10z
m400 0 c0 -5 -2 -10 -4 -10 -3 0 -8 5 -11 10 -3 6 -1 10 4 10 6 0 11 -4 11
-10z"/>
</g>
</svg>
