<?xml version="1.0" standalone="no"?>
<!DOCTYPE svg PUBLIC "-//W3C//DTD SVG 20010904//EN"
 "http://www.w3.org/TR/2001/REC-SVG-20010904/DTD/svg10.dtd">
<svg version="1.0" xmlns="http://www.w3.org/2000/svg"
 width="200.000000pt" height="200.000000pt" viewBox="0 0 200.000000 200.000000"
 preserveAspectRatio="xMidYMid meet">
<metadata>
Created by potrace 1.16, written by Peter Selinger 2001-2019
</metadata>
<g transform="translate(0.000000,200.000000) scale(0.100000,-0.100000)"
fill="#000000" stroke="none">
<path d="M0 1989 c0 -6 4 -8 8 -5 5 3 9 -1 9 -9 0 -8 -4 -12 -9 -9 -4 3 -8 -4
-8 -16 0 -11 8 -24 17 -27 10 -4 36 -20 58 -36 22 -16 36 -28 30 -25 -33 13
-72 34 -83 45 -7 7 -15 13 -18 13 -2 0 -4 -39 -4 -86 0 -65 3 -83 13 -78 9 6
9 5 0 -7 -16 -20 -15 -159 0 -178 9 -11 9 -13 0 -8 -9 6 -11 -89 -12 -388 0
-223 4 -395 9 -395 5 0 12 5 15 10 8 12 25 13 25 1 0 -5 -11 -11 -24 -15 -23
-6 -23 -9 -25 -120 l-2 -114 58 -32 c32 -18 76 -43 98 -55 l40 -23 43 22 c24
12 40 24 37 27 -3 3 1 6 8 6 7 0 34 12 60 27 l47 28 0 85 c0 64 -3 83 -13 77
-9 -6 -9 -4 1 7 25 27 14 53 -38 82 -28 16 -55 25 -60 22 -6 -4 -9 -2 -8 4 2
6 -14 21 -34 33 -41 24 -45 23 -130 -29 -40 -25 -48 -27 -48 -15 0 4 18 16 40
26 22 11 40 23 40 28 0 4 6 8 14 8 8 0 21 7 29 15 13 13 16 13 27 0 7 -8 19
-15 26 -15 8 0 14 -4 14 -9 0 -5 12 -14 28 -21 42 -17 94 -48 110 -64 12 -11
15 -37 14 -101 -1 -63 2 -84 11 -79 8 5 8 3 0 -7 -7 -7 -13 -22 -13 -32 0 -18
-36 -56 -54 -57 -12 0 -130 -72 -138 -84 -4 -6 -7 -60 -5 -121 2 -107 1 -110
-22 -122 -28 -15 -31 -16 -31 -4 0 5 9 11 20 14 19 5 20 13 19 121 -2 120 -10
145 -44 132 -9 -3 -14 -2 -11 3 8 12 -63 53 -76 45 -6 -4 -8 -3 -5 3 3 5 -7
17 -24 27 -26 15 -29 16 -29 1 0 -9 4 -13 10 -10 5 3 10 1 10 -4 0 -6 -4 -11
-10 -11 -5 0 -10 -7 -10 -16 0 -9 5 -12 12 -8 9 5 9 2 -1 -9 -11 -14 -11 -20
0 -34 10 -11 10 -14 2 -9 -9 5 -13 -2 -13 -24 0 -17 4 -29 8 -26 5 3 9 -1 9
-9 0 -8 -4 -15 -9 -15 -13 0 -10 -64 4 -78 9 -9 9 -12 0 -12 -7 0 -12 -11 -12
-25 0 -14 4 -25 8 -25 5 0 9 -7 9 -15 0 -8 -4 -12 -9 -9 -4 3 -8 -15 -8 -40 0
-25 5 -46 10 -46 7 0 7 -6 0 -19 -5 -11 -10 -31 -10 -45 l0 -25 495 0 c336 0
493 4 489 11 -4 7 0 7 12 0 26 -14 381 -14 407 -1 14 8 18 8 13 0 -5 -8 77
-11 288 -10 l294 1 0 209 c0 115 -3 207 -7 205 -4 -3 -8 1 -8 9 0 8 4 12 9 9
4 -3 8 27 8 67 0 54 -4 78 -17 93 -14 16 -15 18 -2 8 15 -11 16 22 17 395 1
303 -2 411 -11 422 -9 12 -9 13 1 7 16 -10 16 25 0 43 -10 11 -10 12 -1 7 10
-5 12 14 12 79 0 62 -4 83 -12 78 -8 -5 -8 -2 0 8 16 20 15 159 0 178 -9 11
-9 13 0 8 9 -6 12 14 11 82 l-1 89 -798 0 c-511 0 -799 -3 -799 -9 0 -6 4 -8
8 -5 5 3 9 -1 9 -9 0 -8 -4 -12 -8 -9 -4 2 -9 -7 -11 -22 -3 -27 -21 -40 -135
-100 -29 -15 -55 -34 -58 -42 -5 -13 -8 -12 -21 6 -8 12 -21 22 -28 22 -8 0
-19 7 -26 15 -11 13 -10 14 6 9 10 -4 27 -14 37 -22 16 -14 21 -14 50 1 68 35
112 65 110 76 -2 5 4 8 12 5 24 -9 45 15 45 51 l0 33 -91 1 c-61 1 -89 -2 -84
-9 3 -5 2 -10 -4 -10 -5 0 -13 4 -16 10 -8 13 -195 12 -195 -1z m815 -9 c-3
-5 -12 -10 -18 -10 -7 0 -6 4 3 10 19 12 23 12 15 0z m695 0 c0 -5 -5 -10 -11
-10 -5 0 -7 5 -4 10 3 6 8 10 11 10 2 0 4 -4 4 -10z m95 -8 c-3 -3 -11 0 -18
7 -9 10 -8 11 6 5 10 -3 15 -9 12 -12z m305 8 c0 -5 -5 -10 -11 -10 -5 0 -7 5
-4 10 3 6 8 10 11 10 2 0 4 -4 4 -10z m-1747 -19 c-3 -11 -11 -17 -19 -14 -10
4 -11 8 -1 19 17 19 26 17 20 -5z m400 0 c-3 -13 -10 -18 -20 -14 -14 5 -13 8
3 20 23 17 23 17 17 -6z m403 -1 c0 -13 -5 -19 -14 -15 -7 3 -16 5 -20 5 -3 0
3 7 14 15 10 8 19 15 19 15 1 0 1 -9 1 -20z m91 -12 c-18 -12 -23 -10 -23 11
0 15 3 17 18 8 13 -8 14 -13 5 -19z m309 12 c0 -13 -5 -19 -14 -15 -7 3 -16 5
-20 5 -3 0 3 7 14 15 10 8 19 15 19 15 1 0 1 -9 1 -20z m89 6 c12 -12 12 -15
-1 -20 -9 -3 -17 -6 -18 -6 -1 0 -2 9 -2 20 0 24 3 24 21 6z m311 -5 c0 -12
-6 -17 -18 -13 -18 4 -18 5 -1 18 10 7 18 14 18 14 1 0 1 -8 1 -19z m89 5 c12
-12 12 -15 1 -19 -8 -3 -16 2 -19 14 -6 23 -1 24 18 5z m-1590 -14 c-3 -3 -11
0 -18 7 -9 10 -8 11 6 5 10 -3 15 -9 12 -12z m840 -20 c-3 -3 -11 0 -18 7 -9
10 -8 11 6 5 10 -3 15 -9 12 -12z m-888 -6 c0 -8 -9 -14 -19 -13 -18 1 -18 2
-2 14 22 16 21 16 21 -1z m93 4 c0 -5 -2 -10 -4 -10 -3 0 -8 5 -11 10 -3 6 -1
10 4 10 6 0 11 -4 11 -10z m400 0 c0 -5 -2 -10 -4 -10 -3 0 -8 5 -11 10 -3 6
-1 10 4 10 6 0 11 -4 11 -10z m600 6 c0 -3 -4 -8 -10 -11 -5 -3 -10 -1 -10 4
0 6 5 11 10 11 6 0 10 -2 10 -4z m400 0 c0 -3 -4 -8 -10 -11 -5 -3 -10 -1 -10
4 0 6 5 11 10 11 6 0 10 -2 10 -4z m95 -14 c-3 -3 -11 0 -18 7 -9 10 -8 11 6
5 10 -3 15 -9 12 -12z m-1725 -2 c0 -5 -5 -10 -11 -10 -5 0 -7 5 -4 10 3 6 8
10 11 10 2 0 4 -4 4 -10z m530 6 c0 -2 -7 -7 -16 -10 -8 -3 -12 -2 -9 4 6 10
25 14 25 6z m205 -6 c3 -6 -1 -7 -9 -4 -18 7 -21 14 -7 14 6 0 13 -4 16 -10z
m795 6 c0 -2 -7 -7 -16 -10 -8 -3 -12 -2 -9 4 6 10 25 14 25 6z m-1445 -27
c-10 -15 -25 -10 -19 6 4 8 10 12 15 9 5 -3 7 -10 4 -15z m1485 -1 c0 -6 -6
-5 -15 2 -8 7 -15 14 -15 16 0 2 7 1 15 -2 8 -4 15 -11 15 -16z m-1200 2 c0
-5 -4 -10 -10 -10 -5 0 -10 5 -10 10 0 6 5 10 10 10 6 0 10 -4 10 -10z m320 0
c0 -5 -4 -10 -10 -10 -5 0 -10 5 -10 10 0 6 5 10 10 10 6 0 10 -4 10 -10z m80
0 c0 -5 -4 -10 -10 -10 -5 0 -10 5 -10 10 0 6 5 10 10 10 6 0 10 -4 10 -10z
m320 0 c0 -5 -7 -10 -16 -10 -8 0 -12 5 -9 10 3 6 10 10 16 10 5 0 9 -4 9 -10z
m85 0 c3 -5 -1 -10 -9 -10 -9 0 -16 5 -16 10 0 6 4 10 9 10 6 0 13 -4 16 -10z
m195 0 c0 -5 -2 -10 -4 -10 -3 0 -8 5 -11 10 -3 6 -1 10 4 10 6 0 11 -4 11
-10z m120 0 c0 -5 -4 -10 -10 -10 -5 0 -10 5 -10 10 0 6 5 10 10 10 6 0 10 -4
10 -10z m280 0 c0 -5 -2 -10 -4 -10 -3 0 -8 5 -11 10 -3 6 -1 10 4 10 6 0 11
-4 11 -10z m120 0 c0 -5 -4 -10 -10 -10 -5 0 -10 5 -10 10 0 6 5 10 10 10 6 0
10 -4 10 -10z m-850 -25 c-7 -8 -18 -15 -24 -15 -6 0 -2 7 8 15 25 19 32 19
16 0z m-615 -5 c3 -6 -1 -7 -9 -4 -18 7 -21 14 -7 14 6 0 13 -4 16 -10z m205
1 c0 -5 -10 -11 -22 -14 -22 -6 -22 -6 -4 8 23 17 26 18 26 6z m195 -1 c3 -5
1 -10 -4 -10 -6 0 -11 5 -11 10 0 6 2 10 4 10 3 0 8 -4 11 -10z m425 -14 c0
-2 -9 -2 -20 1 -11 3 -20 9 -20 15 0 5 9 4 20 -2 11 -6 20 -12 20 -14z m181
11 c-7 -7 -14 -8 -21 -1 -6 6 -2 10 12 11 16 2 18 -1 9 -10z m205 -3 c18 -14
18 -14 -6 -3 -31 14 -36 19 -24 19 6 0 19 -7 30 -16z m204 6 c0 -5 -7 -10 -16
-10 -8 0 -12 5 -9 10 3 6 10 10 16 10 5 0 9 -4 9 -10z m-1875 -10 c-3 -5 -11
-10 -16 -10 -6 0 -7 5 -4 10 3 6 11 10 16 10 6 0 7 -4 4 -10z m170 -10 c3 -6
-1 -7 -9 -4 -18 7 -21 14 -7 14 6 0 13 -4 16 -10z m1355 -16 c0 -2 -9 0 -20 6
-11 6 -20 13 -20 16 0 2 9 0 20 -6 11 -6 20 -13 20 -16z m-1000 1 c11 -13 10
-14 -4 -9 -9 3 -16 10 -16 15 0 13 6 11 20 -6z m79 -2 c-6 -7 -15 -13 -20 -13
-5 0 -6 6 -3 13 3 8 11 14 19 14 11 0 12 -4 4 -14z m116 7 c3 -5 1 -10 -4 -10
-6 0 -11 5 -11 10 0 6 2 10 4 10 3 0 8 -4 11 -10z m85 0 c0 -5 -5 -10 -11 -10
-5 0 -7 5 -4 10 3 6 8 10 11 10 2 0 4 -4 4 -10z m119 -3 c8 -10 7 -14 -4 -14
-8 0 -15 6 -15 14 0 7 2 13 4 13 2 0 9 -6 15 -13z m196 3 c3 -5 1 -10 -4 -10
-6 0 -11 5 -11 10 0 6 2 10 4 10 3 0 8 -4 11 -10z m285 -9 c0 -4 -6 -8 -13 -8
-8 0 -14 6 -14 13 0 7 6 10 14 7 7 -3 13 -8 13 -12z m205 9 c-3 -5 -11 -10
-16 -10 -6 0 -7 5 -4 10 3 6 11 10 16 10 6 0 7 -4 4 -10z m122 -4 c0 -8 -6
-12 -15 -9 -11 5 -11 7 0 14 7 5 13 9 14 9 0 0 1 -6 1 -14z m70 -8 c-3 -8 -6
-5 -6 6 -1 11 2 17 5 13 3 -3 4 -12 1 -19z m-797 8 c0 -2 -7 -7 -16 -10 -8 -3
-12 -2 -9 4 6 10 25 14 25 6z m-233 -20 c0 -8 -6 -12 -15 -9 -11 5 -11 7 0 14
7 5 13 9 14 9 0 0 1 -6 1 -14z m400 0 c0 -8 -6 -12 -15 -9 -11 5 -11 7 0 14 7
5 13 9 14 9 0 0 1 -6 1 -14z m593 -6 c0 -5 -2 -10 -4 -10 -3 0 -8 5 -11 10 -3
6 -1 10 4 10 6 0 11 -4 11 -10z m-1513 -22 c-3 -8 -6 -5 -6 6 -1 11 2 17 5 13
3 -3 4 -12 1 -19z m1218 4 c-3 -3 -11 0 -18 7 -9 10 -8 11 6 5 10 -3 15 -9 12
-12z m195 8 c0 -5 -5 -10 -11 -10 -5 0 -7 5 -4 10 3 6 8 10 11 10 2 0 4 -4 4
-10z m205 0 c3 -5 2 -10 -4 -10 -5 0 -13 5 -16 10 -3 6 -2 10 4 10 5 0 13 -4
16 -10z m-1447 -26 c1 -1 -5 -4 -15 -6 -13 -4 -19 0 -19 13 0 14 3 16 16 6 8
-6 16 -12 18 -13z m295 7 c-3 -12 -11 -17 -19 -14 -12 4 -11 8 3 19 10 7 19
14 20 14 0 0 -1 -9 -4 -19z m94 -13 c-18 -12 -23 -10 -23 11 0 15 3 17 18 8
13 -8 14 -13 5 -19z m309 12 c0 -13 -5 -19 -14 -15 -7 3 -16 5 -20 5 -3 0 3 7
14 15 10 8 19 15 19 15 1 0 1 -9 1 -20z m89 6 c12 -12 12 -15 -1 -20 -9 -3
-17 -6 -18 -6 -1 0 -2 9 -2 20 0 24 3 24 21 6z m311 -5 c0 -12 -6 -17 -18 -13
-18 4 -18 5 -1 18 10 7 18 14 18 14 1 0 1 -8 1 -19z m89 5 c12 -12 12 -15 1
-19 -8 -3 -16 2 -19 14 -6 23 -1 24 18 5z m311 -5 c0 -12 -6 -17 -18 -13 -18
4 -18 5 -1 18 10 7 18 14 18 14 1 0 1 -8 1 -19z m-1896 -1 c0 -5 -2 -10 -4
-10 -3 0 -8 5 -11 10 -3 6 -1 10 4 10 6 0 11 -4 11 -10z m537 -14 c0 -8 -6
-12 -15 -9 -11 5 -11 7 0 14 7 5 13 9 14 9 0 0 1 -6 1 -14z m-502 -6 c4 -6 11
-8 16 -5 5 4 9 4 9 1 0 -3 -10 -10 -21 -17 -17 -8 -20 -8 -14 1 4 7 1 16 -6
21 -9 6 -10 9 -2 9 6 0 15 -5 18 -10z m100 0 c3 -5 1 -10 -4 -10 -6 0 -11 5
-11 10 0 6 2 10 4 10 3 0 8 -4 11 -10z m100 0 c-3 -5 -11 -10 -16 -10 -6 0 -7
5 -4 10 3 6 11 10 16 10 6 0 7 -4 4 -10z m705 0 c0 -5 -4 -10 -10 -10 -5 0
-10 5 -10 10 0 6 5 10 10 10 6 0 10 -4 10 -10z m400 1 c0 -5 -9 -11 -21 -14
-16 -4 -18 -3 -8 9 13 16 29 19 29 5z m400 -1 c0 -5 -2 -10 -4 -10 -3 0 -8 5
-11 10 -3 6 -1 10 4 10 6 0 11 -4 11 -10z m-1395 -10 c-3 -5 -12 -10 -18 -10
-7 0 -6 4 3 10 19 12 23 12 15 0z m95 0 c0 -5 -2 -10 -4 -10 -3 0 -8 5 -11 10
-3 6 -1 10 4 10 6 0 11 -4 11 -10z m400 0 c0 -5 -2 -10 -4 -10 -3 0 -8 5 -11
10 -3 6 -1 10 4 10 6 0 11 -4 11 -10z m600 6 c0 -2 -7 -7 -16 -10 -8 -3 -12
-2 -9 4 6 10 25 14 25 6z m-950 -11 c0 -2 -10 -9 -22 -15 -22 -11 -22 -10 -4
4 21 17 26 19 26 11z m100 -15 c0 -5 -5 -10 -11 -10 -5 0 -7 5 -4 10 3 6 8 10
11 10 2 0 4 -4 4 -10z m395 0 c3 -5 1 -10 -4 -10 -6 0 -11 5 -11 10 0 6 2 10
4 10 3 0 8 -4 11 -10z m305 0 c0 -5 -7 -10 -15 -10 -8 0 -15 5 -15 10 0 6 7
10 15 10 8 0 15 -4 15 -10z m510 0 c0 -5 -4 -10 -10 -10 -5 0 -10 5 -10 10 0
6 5 10 10 10 6 0 10 -4 10 -10z m-1817 -19 c-4 -3 -11 -10 -15 -15 -5 -5 -8 0
-8 12 0 15 4 20 16 15 9 -3 12 -9 7 -12z m307 9 c0 -5 -5 -10 -11 -10 -5 0 -7
5 -4 10 3 6 8 10 11 10 2 0 4 -4 4 -10z m410 6 c0 -3 -4 -8 -10 -11 -5 -3 -10
-1 -10 4 0 6 5 11 10 11 6 0 10 -2 10 -4z m480 -6 c0 -5 -2 -10 -4 -10 -3 0
-8 5 -11 10 -3 6 -1 10 4 10 6 0 11 -4 11 -10z m730 6 c0 -2 -7 -7 -16 -10 -8
-3 -12 -2 -9 4 6 10 25 14 25 6z m-1479 -20 c-9 -11 -9 -15 1 -19 7 -2 11 -7
8 -10 -3 -3 -16 3 -30 14 -14 11 -18 17 -9 13 10 -3 20 -1 24 5 3 6 9 11 12
11 3 0 0 -6 -6 -14z m407 -12 c0 -16 -3 -22 -8 -14 -4 7 -14 10 -22 7 -8 -3
-15 1 -15 8 0 7 8 10 19 7 10 -2 18 1 18 7 0 6 2 11 4 11 2 0 4 -12 4 -26z
m209 5 c7 -2 0 -10 -14 -17 -17 -7 -23 -8 -16 -1 6 6 9 19 6 28 -3 10 -2 12 4
5 4 -6 13 -13 20 -15z m191 -5 c0 -14 -3 -22 -7 -17 -3 6 -13 13 -21 16 -12 4
-11 6 3 6 9 1 17 6 17 11 0 6 2 10 4 10 2 0 4 -12 4 -26z m-1104 1 c3 -8 1
-15 -4 -15 -6 0 -10 7 -10 15 0 8 2 15 4 15 2 0 6 -7 10 -15z m116 0 c0 -2 -7
-5 -15 -9 -9 -3 -15 0 -15 9 0 9 6 12 15 9 8 -4 15 -7 15 -9z m287 0 c0 -8 -6
-15 -13 -15 -8 0 -11 6 -8 15 4 8 9 15 13 15 4 0 8 -7 8 -15z m106 -4 c-4 -3
-11 -10 -15 -15 -4 -4 -6 1 -5 12 1 12 6 18 15 15 7 -3 10 -9 5 -12z m301 4
c-4 -8 -10 -15 -15 -15 -5 0 -9 7 -9 15 0 8 7 15 15 15 9 0 12 -6 9 -15z m396
0 c0 -8 -4 -15 -10 -15 -5 0 -10 7 -10 15 0 8 5 15 10 15 6 0 10 -7 10 -15z
m123 3 c-2 -5 -10 -8 -18 -8 -7 0 -15 -6 -18 -12 -3 -7 -5 -4 -4 7 1 14 8 20
23 20 12 0 20 -3 17 -7z m174 -15 c0 -16 -1 -20 -4 -10 -2 9 -10 17 -16 17 -9
0 2 12 18 20 0 0 1 -12 2 -27z m107 12 c3 -8 1 -15 -4 -15 -6 0 -10 7 -10 15
0 8 2 15 4 15 2 0 6 -7 10 -15z m112 -1 c18 -14 18 -14 -6 -3 -31 14 -36 19
-24 19 6 0 19 -7 30 -16z m-1476 -14 c0 -5 -5 -10 -11 -10 -5 0 -7 5 -4 10 3
6 8 10 11 10 2 0 4 -4 4 -10z m-90 -10 c0 -5 -2 -10 -4 -10 -3 0 -8 5 -11 10
-3 6 -1 10 4 10 6 0 11 -4 11 -10z m405 0 c3 -5 1 -10 -4 -10 -6 0 -11 5 -11
10 0 6 2 10 4 10 3 0 8 -4 11 -10z m485 0 c0 -5 -5 -10 -11 -10 -5 0 -7 5 -4
10 3 6 8 10 11 10 2 0 4 -4 4 -10z m-1105 -10 c3 -5 1 -10 -4 -10 -6 0 -11 5
-11 10 0 6 2 10 4 10 3 0 8 -4 11 -10z m414 -4 c10 -12 8 -13 -8 -9 -12 3 -18
9 -15 14 7 12 10 11 23 -5z m101 4 c0 -5 -4 -10 -10 -10 -5 0 -10 5 -10 10 0
6 5 10 10 10 6 0 10 -4 10 -10z m695 0 c-3 -5 -10 -10 -16 -10 -5 0 -9 5 -9
10 0 6 7 10 16 10 8 0 12 -4 9 -10z m515 0 c0 -5 -4 -10 -10 -10 -5 0 -10 5
-10 10 0 6 5 10 10 10 6 0 10 -4 10 -10z m-1760 -20 c0 -5 -5 -10 -11 -10 -5
0 -7 5 -4 10 3 6 8 10 11 10 2 0 4 -4 4 -10z m400 0 c0 -5 -5 -10 -11 -10 -5
0 -7 5 -4 10 3 6 8 10 11 10 2 0 4 -4 4 -10z m400 1 c0 -5 -7 -12 -16 -15 -14
-5 -15 -4 -4 9 14 17 20 19 20 6z m995 -9 c-3 -3 -11 0 -18 7 -9 10 -8 11 6 5
10 -3 15 -9 12 -12z m-1695 -2 c0 -5 -4 -10 -10 -10 -5 0 -10 5 -10 10 0 6 5
10 10 10 6 0 10 -4 10 -10z m395 0 c3 -5 2 -10 -4 -10 -5 0 -13 5 -16 10 -3 6
-2 10 4 10 5 0 13 -4 16 -10z m405 0 c0 -5 -4 -10 -10 -10 -5 0 -10 5 -10 10
0 6 5 10 10 10 6 0 10 -4 10 -10z m400 0 c0 -5 -4 -10 -10 -10 -5 0 -10 5 -10
10 0 6 5 10 10 10 6 0 10 -4 10 -10z m100 0 c0 -5 -2 -10 -4 -10 -3 0 -8 5
-11 10 -3 6 -1 10 4 10 6 0 11 -4 11 -10z m300 0 c0 -5 -4 -10 -10 -10 -5 0
-10 5 -10 10 0 6 5 10 10 10 6 0 10 -4 10 -10z m-1342 -14 c-2 -1 -10 -7 -18
-13 -13 -10 -16 -8 -16 6 0 13 6 17 19 13 10 -2 16 -5 15 -6z m298 -5 c0 -15
-3 -17 -18 -8 -13 8 -14 13 -5 19 18 12 23 10 23 -11z m88 13 c13 -5 14 -9 5
-20 -16 -20 -25 -17 -25 6 0 11 1 20 2 20 1 0 10 -3 18 -6z m312 -13 c0 -15
-3 -17 -18 -8 -13 8 -14 13 -5 19 18 12 23 10 23 -11z m88 13 c13 -5 13 -8 1
-20 -18 -18 -21 -18 -21 6 0 11 1 20 2 20 1 0 9 -3 18 -6z m312 -13 c0 -15 -3
-17 -18 -7 -17 10 -17 11 0 18 9 3 17 7 17 7 1 1 1 -7 1 -18z m89 -7 c-19 -19
-24 -18 -18 5 3 12 11 17 19 14 11 -4 11 -7 -1 -19z m311 7 c0 -14 -4 -17 -12
-11 -6 6 -14 7 -17 3 -4 -3 -7 -1 -7 5 0 6 8 13 18 15 9 3 17 5 17 6 1 0 1 -8
1 -18z m-1912 -6 c-10 -8 -23 -15 -28 -15 -6 0 -1 7 10 15 10 8 23 15 28 15 6
0 1 -7 -10 -15z m302 0 c10 -8 15 -14 9 -14 -5 0 -19 6 -29 14 -11 8 -15 15
-10 15 6 0 19 -7 30 -15z m149 -15 c3 -6 -1 -7 -9 -4 -18 7 -21 14 -7 14 6 0
13 -4 16 -10z m215 6 c0 -2 -7 -6 -15 -10 -8 -3 -15 -1 -15 4 0 6 7 10 15 10
8 0 15 -2 15 -4z m400 0 c0 -2 -7 -7 -16 -10 -8 -3 -12 -2 -9 4 6 10 25 14 25
6z m590 -6 c0 -5 -2 -10 -4 -10 -3 0 -8 5 -11 10 -3 6 -1 10 4 10 6 0 11 -4
11 -10z m200 0 c0 -5 -5 -10 -11 -10 -5 0 -7 5 -4 10 3 6 8 10 11 10 2 0 4 -4
4 -10z m-1705 -10 c3 -5 1 -10 -4 -10 -6 0 -11 5 -11 10 0 6 2 10 4 10 3 0 8
-4 11 -10z m610 0 c-3 -5 -12 -10 -18 -10 -7 0 -6 4 3 10 19 12 23 12 15 0z
m-400 -10 c3 -6 -1 -7 -9 -4 -18 7 -21 14 -7 14 6 0 13 -4 16 -10z m-250 -10
c3 -5 2 -10 -4 -10 -5 0 -13 5 -16 10 -3 6 -2 10 4 10 5 0 13 -4 16 -10z m85
0 c0 -5 -8 -10 -17 -10 -15 0 -16 2 -3 10 19 12 20 12 20 0z m324 -5 c-4 -8
-10 -12 -15 -9 -6 3 -17 0 -26 -8 -14 -11 -15 -11 -9 0 6 11 31 25 53 31 1 1
0 -6 -3 -14z m396 0 c-7 -9 -15 -13 -19 -10 -3 3 1 10 9 15 21 14 24 12 10 -5z
m75 -3 c-3 -3 -11 0 -18 7 -9 10 -8 11 6 5 10 -3 15 -9 12 -12z m405 0 c0 -12
-3 -12 -15 -2 -8 7 -15 13 -15 15 0 1 7 2 15 2 8 0 15 -7 15 -15z m330 13 c0
-2 -10 -9 -22 -15 -22 -11 -22 -10 -4 4 21 17 26 19 26 11z m87 -19 c14 -15
14 -18 2 -8 -9 6 -18 10 -21 7 -3 -3 -10 1 -16 8 -9 10 -8 14 3 14 8 0 23 -10
32 -21z m-1212 4 c3 -6 -1 -7 -9 -4 -18 7 -21 14 -7 14 6 0 13 -4 16 -10z
m110 0 c-3 -5 -11 -10 -16 -10 -6 0 -7 5 -4 10 3 6 11 10 16 10 6 0 7 -4 4
-10z m85 0 c0 -5 -2 -10 -4 -10 -3 0 -8 5 -11 10 -3 6 -1 10 4 10 6 0 11 -4
11 -10z m320 6 c0 -3 -4 -8 -10 -11 -5 -3 -10 -1 -10 4 0 6 5 11 10 11 6 0 10
-2 10 -4z m80 -6 c0 -5 -2 -10 -4 -10 -3 0 -8 5 -11 10 -3 6 -1 10 4 10 6 0
11 -4 11 -10z m124 2 c3 -5 -1 -9 -9 -9 -8 0 -15 4 -15 9 0 4 4 8 9 8 6 0 12
-4 15 -8z m276 -2 c0 -5 -2 -10 -4 -10 -3 0 -8 5 -11 10 -3 6 -1 10 4 10 6 0
11 -4 11 -10z m-1342 -29 c3 -10 0 -10 -17 -2 -25 14 -27 20 -4 17 9 -2 19 -8
21 -15z m1422 14 c0 -2 -9 -9 -20 -15 -12 -6 -20 -7 -20 -1 0 5 8 12 18 14 9
3 18 5 20 6 1 0 2 -1 2 -4z m-1625 -15 c-3 -5 -10 -10 -16 -10 -5 0 -9 5 -9
10 0 6 7 10 16 10 8 0 12 -4 9 -10z m400 0 c-3 -5 -10 -10 -16 -10 -5 0 -9 5
-9 10 0 6 7 10 16 10 8 0 12 -4 9 -10z m205 0 c0 -5 -2 -10 -4 -10 -3 0 -8 5
-11 10 -3 6 -1 10 4 10 6 0 11 -4 11 -10z m200 5 c0 -2 -9 -9 -20 -15 -16 -9
-18 -8 -14 5 5 13 34 22 34 10z m200 -5 c0 -5 -2 -10 -4 -10 -3 0 -8 5 -11 10
-3 6 -1 10 4 10 6 0 11 -4 11 -10z m200 4 c0 -2 -9 -8 -20 -14 -15 -8 -18 -8
-14 3 4 11 34 21 34 11z m211 -11 c13 -15 12 -15 -7 -5 -12 6 -25 8 -29 4 -5
-4 -5 -1 -1 6 10 16 21 15 37 -5z m394 8 c3 -5 1 -12 -4 -15 -5 -3 -11 1 -15
9 -6 16 9 21 19 6z m-1870 -31 c3 -5 1 -10 -4 -10 -6 0 -11 5 -11 10 0 6 2 10
4 10 3 0 8 -4 11 -10z m115 0 c0 -5 -2 -10 -4 -10 -3 0 -8 5 -11 10 -3 6 -1
10 4 10 6 0 11 -4 11 -10z m204 1 c3 -5 -3 -11 -15 -14 -16 -4 -18 -3 -8 9 13
16 16 17 23 5z m91 -1 c-3 -5 -10 -10 -16 -10 -5 0 -9 5 -9 10 0 6 7 10 16 10
8 0 12 -4 9 -10z m110 0 c3 -5 1 -10 -4 -10 -6 0 -11 5 -11 10 0 6 2 10 4 10
3 0 8 -4 11 -10z m206 -7 c13 -15 12 -15 -8 -4 -24 12 -29 21 -14 21 5 0 15
-7 22 -17z m84 7 c-3 -5 -10 -10 -16 -10 -5 0 -9 5 -9 10 0 6 7 10 16 10 8 0
12 -4 9 -10z m315 0 c0 -5 -4 -10 -9 -10 -6 0 -13 5 -16 10 -3 6 1 10 9 10 9
0 16 -4 16 -10z m85 0 c-3 -5 -11 -10 -16 -10 -6 0 -7 5 -4 10 3 6 11 10 16
10 6 0 7 -4 4 -10z m195 0 c0 -5 -5 -10 -11 -10 -5 0 -7 5 -4 10 3 6 8 10 11
10 2 0 4 -4 4 -10z m120 0 c0 -5 -4 -10 -9 -10 -6 0 -13 5 -16 10 -3 6 1 10 9
10 9 0 16 -4 16 -10z m89 -4 c10 -12 8 -13 -8 -9 -12 3 -18 9 -15 14 7 12 10
11 23 -5z m311 4 c0 -5 -4 -10 -9 -10 -6 0 -13 5 -16 10 -3 6 1 10 9 10 9 0
16 -4 16 -10z m-1353 -24 c0 -8 -6 -12 -15 -9 -11 5 -11 7 0 14 7 5 13 9 14 9
0 0 1 -6 1 -14z m388 -4 c-3 -3 -11 0 -18 7 -9 10 -8 11 6 5 10 -3 15 -9 12
-12z m200 0 c-3 -3 -11 0 -18 7 -9 10 -8 11 6 5 10 -3 15 -9 12 -12z m210 8
c-3 -5 -12 -10 -18 -10 -7 0 -6 4 3 10 19 12 23 12 15 0z m190 -8 c-3 -3 -11
0 -18 7 -9 10 -8 11 6 5 10 -3 15 -9 12 -12z m-1290 -2 c-3 -5 -12 -10 -18
-10 -7 0 -6 4 3 10 19 12 23 12 15 0z m395 0 c0 -5 -5 -10 -11 -10 -5 0 -7 5
-4 10 3 6 8 10 11 10 2 0 4 -4 4 -10z m600 -5 c11 -13 10 -14 -4 -9 -9 3 -16
10 -16 15 0 13 6 11 20 -6z m395 5 c3 -5 1 -10 -4 -10 -6 0 -11 5 -11 10 0 6
2 10 4 10 3 0 8 -4 11 -10z m105 6 c0 -2 -7 -7 -16 -10 -8 -3 -12 -2 -9 4 6
10 25 14 25 6z m-1646 -55 c-2 -2 -11 2 -19 9 -13 11 -13 15 -3 21 8 5 15 2
19 -9 4 -9 5 -19 3 -21z m106 23 c0 -2 -8 -8 -18 -13 -14 -7 -18 -6 -18 8 0
12 6 17 18 13 10 -2 18 -6 18 -8z m296 -4 c0 -24 -3 -24 -22 -6 -11 11 -11 16
-1 19 21 9 23 8 23 -13z m102 6 c-2 -1 -10 -7 -18 -13 -13 -10 -16 -8 -16 6 0
13 6 17 19 13 10 -2 16 -5 15 -6z m298 -5 c0 -15 -4 -17 -13 -10 -7 6 -18 8
-25 4 -7 -4 -4 1 6 9 26 21 32 20 32 -3z m91 11 c9 -6 8 -11 -5 -19 -15 -9
-18 -7 -18 8 0 21 5 23 23 11z m309 -11 c0 -15 -3 -17 -18 -7 -17 10 -17 11 0
18 9 3 17 7 17 7 1 1 1 -7 1 -18z m97 0 c-4 -3 -11 -10 -15 -15 -5 -5 -8 0 -8
12 0 15 4 20 16 15 9 -3 12 -9 7 -12z m303 0 c0 -15 -3 -17 -18 -7 -17 10 -17
11 0 18 9 3 17 7 17 7 1 1 1 -7 1 -18z m89 -7 c-19 -19 -24 -18 -18 5 3 12 11
17 19 14 11 -4 11 -7 -1 -19z m-1438 -10 c0 -7 -6 -10 -14 -7 -7 3 -13 8 -13
12 0 4 6 8 13 8 8 0 14 -6 14 -13z m288 -4 c3 -6 -1 -7 -9 -4 -18 7 -21 14 -7
14 6 0 13 -4 16 -10z m505 6 c0 -2 -7 -7 -16 -10 -8 -3 -12 -2 -9 4 6 10 25
14 25 6z m400 -4 c0 -5 -7 -9 -15 -9 -8 0 -12 4 -9 9 3 4 9 8 15 8 5 0 9 -4 9
-8z m-200 -16 c-7 -7 -13 -7 -20 0 -6 6 -3 10 10 10 13 0 16 -4 10 -10z
m-1195 -6 c3 -6 -1 -7 -9 -4 -18 7 -21 14 -7 14 6 0 13 -4 16 -10z m548 -2
c-2 -5 -10 -8 -18 -8 -8 0 -16 3 -18 8 -3 4 5 7 18 7 13 0 21 -3 18 -7z m92
-6 c-3 -3 -11 0 -18 7 -9 10 -8 11 6 5 10 -3 15 -9 12 -12z m420 8 c-3 -5 -12
-10 -18 -10 -7 0 -6 4 3 10 19 12 23 12 15 0z m290 0 c-3 -5 -12 -10 -18 -10
-7 0 -6 4 3 10 19 12 23 12 15 0z m-1500 -10 c3 -6 -1 -7 -9 -4 -18 7 -21 14
-7 14 6 0 13 -4 16 -10z m400 0 c3 -6 -1 -7 -9 -4 -18 7 -21 14 -7 14 6 0 13
-4 16 -10z m-305 -10 c0 -5 -5 -10 -11 -10 -5 0 -7 5 -4 10 3 6 8 10 11 10 2
0 4 -4 4 -10z m400 0 c0 -5 -5 -10 -11 -10 -5 0 -7 5 -4 10 3 6 8 10 11 10 2
0 4 -4 4 -10z m90 0 c0 -5 -2 -10 -4 -10 -3 0 -8 5 -11 10 -3 6 -1 10 4 10 6
0 11 -4 11 -10z m315 0 c-3 -5 -11 -10 -16 -10 -6 0 -7 5 -4 10 3 6 11 10 16
10 6 0 7 -4 4 -10z m85 0 c0 -5 -2 -10 -4 -10 -3 0 -8 5 -11 10 -3 6 -1 10 4
10 6 0 11 -4 11 -10z m320 6 c0 -3 -4 -8 -10 -11 -5 -3 -10 -1 -10 4 0 6 5 11
10 11 6 0 10 -2 10 -4z m80 -6 c0 -5 -2 -10 -4 -10 -3 0 -8 5 -11 10 -3 6 -1
10 4 10 6 0 11 -4 11 -10z m61 -14 c-6 -7 -8 -16 -4 -20 4 -4 -1 -4 -12 0 -11
5 -14 9 -7 12 7 2 12 10 12 18 0 9 5 12 10 9 8 -5 8 -11 1 -19z m402 -5 c-3
-13 -10 -18 -21 -13 -10 4 -12 7 -4 10 7 2 12 10 12 18 0 9 4 13 9 10 5 -3 7
-15 4 -25z m-1808 5 c12 -12 12 -15 1 -19 -8 -3 -16 2 -19 14 -6 23 -1 24 18
5z m201 -6 c0 -13 -5 -19 -14 -15 -7 3 -16 5 -20 5 -3 0 3 7 14 15 10 8 19 15
19 15 1 0 1 -9 1 -20z m207 -1 c5 -3 2 -9 -5 -12 -9 -3 -14 3 -15 15 -1 11 1
16 5 12 4 -5 11 -12 15 -15z m193 2 c0 -12 -6 -17 -18 -13 -18 4 -18 5 -1 18
10 7 18 14 18 14 1 0 1 -8 1 -19z m194 9 c0 -5 6 -10 14 -10 8 0 17 -3 19 -7
3 -5 -5 -8 -18 -8 -13 0 -21 2 -19 4 2 2 -1 10 -7 18 -9 9 -8 13 0 13 6 0 11
-4 11 -10z m208 -14 c0 -19 -3 -22 -13 -13 -9 8 -10 16 -3 25 14 17 16 16 16
-12z m205 10 c16 -13 16 -14 -4 -19 -11 -3 -18 -3 -15 0 3 4 1 12 -5 20 -15
17 1 16 24 -1z m415 -12 c1 -1 -5 -4 -15 -6 -13 -4 -19 0 -19 13 0 14 3 16 16
6 8 -6 16 -12 18 -13z m-1324 1 c-4 -8 -10 -15 -15 -15 -4 0 -6 7 -3 15 4 8
10 15 15 15 4 0 6 -7 3 -15z m406 6 c0 -6 -4 -13 -10 -16 -5 -3 -10 1 -10 9 0
9 5 16 10 16 6 0 10 -4 10 -9z m400 0 c0 -5 -7 -11 -14 -14 -10 -4 -13 -1 -9
9 6 15 23 19 23 5z m400 -1 c0 -5 -2 -10 -4 -10 -3 0 -8 5 -11 10 -3 6 -1 10
4 10 6 0 11 -4 11 -10z m240 -25 c0 -8 -4 -15 -10 -15 -5 0 -7 7 -4 15 4 8 8
15 10 15 2 0 4 -7 4 -15z m-1605 -5 c-3 -5 -11 -10 -16 -10 -6 0 -7 5 -4 10 3
6 11 10 16 10 6 0 7 -4 4 -10z m520 0 c-3 -5 -14 -10 -23 -9 -14 0 -13 2 3 9
27 11 27 11 20 0z m400 0 c-3 -5 -12 -10 -18 -10 -7 0 -6 4 3 10 19 12 23 12
15 0z m605 0 c0 -5 -2 -10 -4 -10 -3 0 -8 5 -11 10 -3 6 -1 10 4 10 6 0 11 -4
11 -10z m-1670 -30 c0 -5 -2 -10 -4 -10 -3 0 -8 5 -11 10 -3 6 -1 10 4 10 6 0
11 -4 11 -10z m610 0 c0 -5 -5 -10 -11 -10 -5 0 -7 5 -4 10 3 6 8 10 11 10 2
0 4 -4 4 -10z m195 0 c3 -5 2 -10 -4 -10 -5 0 -13 5 -16 10 -3 6 -2 10 4 10 5
0 13 -4 16 -10z m210 0 c-3 -5 -11 -10 -16 -10 -6 0 -7 5 -4 10 3 6 11 10 16
10 6 0 7 -4 4 -10z m190 0 c3 -5 1 -10 -4 -10 -6 0 -11 5 -11 10 0 6 2 10 4
10 3 0 8 -4 11 -10z m209 -5 c-4 -8 -8 -15 -10 -15 -2 0 -4 7 -4 15 0 8 4 15
10 15 5 0 7 -7 4 -15z m191 5 c3 -5 1 -10 -4 -10 -6 0 -11 5 -11 10 0 6 2 10
4 10 3 0 8 -4 11 -10z m-1295 -10 c0 -5 -4 -10 -10 -10 -5 0 -10 5 -10 10 0 6
5 10 10 10 6 0 10 -4 10 -10z m400 0 c0 -5 -4 -10 -10 -10 -5 0 -10 5 -10 10
0 6 5 10 10 10 6 0 10 -4 10 -10z m400 0 c0 -5 -4 -10 -10 -10 -5 0 -10 5 -10
10 0 6 5 10 10 10 6 0 10 -4 10 -10z m400 0 c0 -5 -4 -10 -10 -10 -5 0 -10 5
-10 10 0 6 5 10 10 10 6 0 10 -4 10 -10z m251 -20 c-3 -3 -9 -9 -12 -13 -4 -4
-6 3 -6 17 0 19 2 22 12 13 7 -7 10 -14 6 -17z m-1701 0 c0 -17 -2 -19 -14 -8
-10 9 -11 15 -2 20 16 11 16 10 16 -12z m108 6 c-2 -1 -10 -7 -18 -13 -13 -10
-16 -8 -16 6 0 13 6 17 19 13 10 -2 16 -5 15 -6z m295 -7 c4 -16 3 -18 -8 -9
-8 7 -20 9 -27 5 -7 -4 -4 1 6 9 24 20 23 20 29 -5z m94 13 c9 -5 6 -12 -10
-21 -20 -13 -21 -13 -9 1 10 13 10 17 0 21 -7 3 -8 6 -3 6 6 0 15 -3 22 -7z
m303 -5 c0 -7 -9 -13 -21 -13 -19 0 -19 1 -3 13 10 7 19 13 21 13 2 0 3 -6 3
-13z m97 5 c9 -6 8 -11 -5 -19 -15 -9 -18 -7 -18 8 0 21 5 23 23 11z m307 -6
c-3 -8 -12 -12 -21 -9 -12 5 -12 7 -1 14 20 13 28 11 22 -5z m116 -12 c0 -3
-5 -2 -10 1 -6 4 -17 2 -25 -5 -11 -9 -12 -7 -8 9 4 17 9 19 24 10 10 -5 19
-12 19 -15z m287 19 c-4 -3 -2 -12 4 -20 14 -16 -2 -18 -19 -1 -7 7 -16 8 -25
2 -7 -5 -4 -1 6 9 18 15 49 26 34 10z m-1270 -35 c-3 -8 -6 -5 -6 6 -1 11 2
17 5 13 3 -3 4 -12 1 -19z m-387 8 c0 -3 -4 -8 -10 -11 -5 -3 -10 -1 -10 4 0
6 5 11 10 11 6 0 10 -2 10 -4z m800 0 c0 -3 -4 -8 -10 -11 -5 -3 -10 -1 -10 4
0 6 5 11 10 11 6 0 10 -2 10 -4z m1010 -11 c11 -13 10 -14 -4 -9 -9 3 -16 10
-16 15 0 13 6 11 20 -6z m-915 -13 c-3 -3 -11 0 -18 7 -9 10 -8 11 6 5 10 -3
15 -9 12 -12z m655 -17 c9 -11 7 -12 -9 -8 -11 3 -25 11 -31 18 -9 11 -7 12 9
8 11 -3 25 -11 31 -18z m-1615 5 c3 -5 1 -10 -4 -10 -6 0 -11 5 -11 10 0 6 2
10 4 10 3 0 8 -4 11 -10z m325 1 c0 -5 -9 -11 -21 -14 -16 -4 -18 -3 -8 9 13
16 29 19 29 5z m80 -1 c0 -5 -4 -10 -9 -10 -6 0 -13 5 -16 10 -3 6 1 10 9 10
9 0 16 -4 16 -10z m323 -4 c4 -10 1 -13 -9 -9 -7 3 -14 9 -14 14 0 14 17 10
23 -5z m77 4 c0 -5 -4 -10 -10 -10 -5 0 -10 5 -10 10 0 6 5 10 10 10 6 0 10
-4 10 -10z m320 0 c0 -5 -4 -10 -10 -10 -5 0 -10 5 -10 10 0 6 5 10 10 10 6 0
10 -4 10 -10z m80 0 c0 -5 -4 -10 -10 -10 -5 0 -10 5 -10 10 0 6 5 10 10 10 6
0 10 -4 10 -10z m325 0 c-3 -5 -10 -10 -16 -10 -5 0 -9 5 -9 10 0 6 7 10 16
10 8 0 12 -4 9 -10z m395 0 c0 -5 -5 -10 -11 -10 -5 0 -7 5 -4 10 3 6 8 10 11
10 2 0 4 -4 4 -10z m-920 -10 c0 -5 -2 -10 -4 -10 -3 0 -8 5 -11 10 -3 6 -1
10 4 10 6 0 11 -4 11 -10z m320 6 c0 -3 -4 -8 -10 -11 -5 -3 -10 -1 -10 4 0 6
5 11 10 11 6 0 10 -2 10 -4z m400 0 c0 -3 -4 -8 -10 -11 -5 -3 -10 -1 -10 4 0
6 5 11 10 11 6 0 10 -2 10 -4z m165 -16 c-3 -5 -15 -15 -27 -21 -16 -9 -19 -8
-16 3 3 7 10 13 16 13 5 0 14 3 18 8 11 10 16 9 9 -3z m-1626 -16 c-14 -17
-25 -18 -32 -1 -3 7 5 13 20 13 19 2 22 -1 12 -12z m607 -11 c-7 -7 -26 7 -26
19 0 6 6 6 15 -2 9 -7 13 -15 11 -17z m186 5 c-7 -7 -12 -8 -12 -2 0 14 12 26
19 19 2 -3 -1 -11 -7 -17z m208 1 c0 -6 -4 -7 -10 -4 -5 3 -10 11 -10 16 0 6
5 7 10 4 6 -3 10 -11 10 -16z m200 12 c0 -8 -64 -51 -76 -51 -2 0 -4 5 -4 10
0 6 6 10 14 10 8 0 24 9 37 20 28 22 29 23 29 11z m217 2 c-4 -3 -1 -13 6 -22
11 -14 10 -14 -5 -2 -10 7 -18 10 -18 7 0 -4 -5 -4 -12 0 -8 5 -6 10 8 15 25
10 29 10 21 2z m-1617 -11 c0 -4 -9 -8 -19 -8 -11 0 -17 4 -15 8 3 4 12 8 20
8 8 0 14 -4 14 -8z m400 0 c0 -4 -9 -8 -19 -8 -11 0 -17 4 -15 8 3 4 12 8 20
8 8 0 14 -4 14 -8z m204 0 c3 -5 -1 -9 -9 -9 -8 0 -15 4 -15 9 0 4 4 8 9 8 6
0 12 -4 15 -8z m-664 -26 c0 -2 -7 -7 -16 -10 -8 -3 -12 -2 -9 4 6 10 25 14
25 6z m115 -5 c3 -5 1 -12 -4 -15 -5 -3 -11 1 -15 9 -6 16 9 21 19 6z m82 -6
c0 -6 -8 -11 -17 -11 -9 0 -17 5 -17 11 0 6 8 11 17 11 9 0 17 -5 17 -11z
m118 5 c3 -5 1 -10 -4 -10 -6 0 -11 5 -11 10 0 6 2 10 4 10 3 0 8 -4 11 -10z
m80 0 c-3 -5 -11 -10 -16 -10 -6 0 -7 5 -4 10 3 6 11 10 16 10 6 0 7 -4 4 -10z
m125 0 c0 -5 -4 -10 -9 -10 -6 0 -13 5 -16 10 -3 6 1 10 9 10 9 0 16 -4 16
-10z m80 0 c0 -5 -4 -10 -10 -10 -5 0 -10 5 -10 10 0 6 5 10 10 10 6 0 10 -4
10 -10z m320 0 c0 -5 -4 -10 -10 -10 -5 0 -10 5 -10 10 0 6 5 10 10 10 6 0 10
-4 10 -10z m80 0 c0 -5 -4 -10 -10 -10 -5 0 -10 5 -10 10 0 6 5 10 10 10 6 0
10 -4 10 -10z m125 -8 c-3 -3 -11 0 -18 7 -9 10 -8 11 6 5 10 -3 15 -9 12 -12z
m195 8 c0 -5 -4 -10 -10 -10 -5 0 -10 5 -10 10 0 6 5 10 10 10 6 0 10 -4 10
-10z m280 -6 c0 -8 -5 -12 -10 -9 -6 4 -8 11 -5 16 9 14 15 11 15 -7z m120 6
c0 -5 -4 -10 -10 -10 -5 0 -10 5 -10 10 0 6 5 10 10 10 6 0 10 -4 10 -10z m90
0 c0 -5 -7 -10 -16 -10 -8 0 -12 5 -9 10 3 6 10 10 16 10 5 0 9 -4 9 -10z
m110 0 c0 -5 -2 -10 -4 -10 -3 0 -8 5 -11 10 -3 6 -1 10 4 10 6 0 11 -4 11
-10z m-1565 -28 c-3 -3 -11 0 -18 7 -9 10 -8 11 6 5 10 -3 15 -9 12 -12z m119
3 c-10 -8 -23 -14 -29 -14 -5 0 -1 6 9 14 11 8 24 15 30 15 5 0 1 -7 -10 -15z
m491 5 c-3 -5 -12 -10 -18 -10 -7 0 -6 4 3 10 19 12 23 12 15 0z m395 -4 c-7
-7 -13 -7 -20 0 -6 6 -3 10 10 10 13 0 16 -4 10 -10z m-705 -6 c3 -5 1 -10 -4
-10 -6 0 -11 5 -11 10 0 6 2 10 4 10 3 0 8 -4 11 -10z m205 0 c0 -5 -5 -10
-11 -10 -5 0 -7 5 -4 10 3 6 8 10 11 10 2 0 4 -4 4 -10z m195 0 c3 -5 1 -10
-4 -10 -6 0 -11 5 -11 10 0 6 2 10 4 10 3 0 8 -4 11 -10z m205 0 c0 -5 -5 -10
-11 -10 -5 0 -7 5 -4 10 3 6 8 10 11 10 2 0 4 -4 4 -10z m195 0 c3 -5 1 -10
-4 -10 -6 0 -11 5 -11 10 0 6 2 10 4 10 3 0 8 -4 11 -10z m215 6 c0 -3 -4 -8
-10 -11 -5 -3 -10 -1 -10 4 0 6 5 11 10 11 6 0 10 -2 10 -4z m-1420 -16 c0 -5
-2 -10 -4 -10 -3 0 -8 5 -11 10 -3 6 -1 10 4 10 6 0 11 -4 11 -10z m168 -15
c-2 -1 -14 -8 -28 -15 -22 -12 -24 -11 -13 2 7 8 10 17 7 21 -3 3 4 3 15 0 12
-3 20 -7 19 -8z m292 0 c0 -9 -6 -12 -16 -8 -13 5 -13 7 -2 14 17 11 18 11 18
-6z m104 2 c16 -12 16 -13 -3 -13 -11 0 -23 6 -25 13 -3 7 -2 13 2 13 5 0 16
-6 26 -13z m293 6 c-4 -3 -1 -13 6 -21 11 -13 9 -14 -10 -1 -16 9 -19 16 -10
21 15 9 23 10 14 1z m111 -7 c-2 -1 -11 -7 -20 -14 -14 -11 -16 -10 -11 7 3
12 11 17 19 14 8 -3 14 -6 12 -7z m298 -5 c0 -15 -4 -17 -13 -10 -7 6 -18 8
-25 4 -7 -4 -4 1 6 9 26 21 32 20 32 -3z m97 0 c-4 -3 -11 -10 -15 -15 -5 -5
-8 0 -8 12 0 15 4 20 16 15 9 -3 12 -9 7 -12z m304 12 c-4 -3 -2 -12 4 -20 15
-17 -1 -16 -24 1 -14 11 -15 15 -5 19 19 8 32 8 25 0z m-1897 -13 c0 -5 -4
-10 -10 -10 -5 0 -10 5 -10 10 0 6 5 10 10 10 6 0 10 -4 10 -10z m270 0 c0 -5
-5 -10 -11 -10 -5 0 -7 5 -4 10 3 6 8 10 11 10 2 0 4 -4 4 -10z m-130 -10 c0
-5 -4 -10 -10 -10 -5 0 -10 5 -10 10 0 6 5 10 10 10 6 0 10 -4 10 -10z m403
-4 c4 -10 1 -13 -9 -9 -7 3 -14 9 -14 14 0 14 17 10 23 -5z m397 4 c0 -5 -5
-10 -11 -10 -5 0 -7 5 -4 10 3 6 8 10 11 10 2 0 4 -4 4 -10z m400 0 c0 -5 -4
-10 -10 -10 -5 0 -10 5 -10 10 0 6 5 10 10 10 6 0 10 -4 10 -10z m400 -6 c0
-8 -5 -12 -10 -9 -6 4 -8 11 -5 16 9 14 15 11 15 -7z m-1505 -4 c-3 -5 -11
-10 -16 -10 -6 0 -7 5 -4 10 3 6 11 10 16 10 6 0 7 -4 4 -10z m405 6 c0 -3 -4
-8 -10 -11 -5 -3 -10 -1 -10 4 0 6 5 11 10 11 6 0 10 -2 10 -4z m400 0 c0 -3
-4 -8 -10 -11 -5 -3 -10 -1 -10 4 0 6 5 11 10 11 6 0 10 -2 10 -4z m605 -6 c3
-5 1 -10 -4 -10 -6 0 -11 5 -11 10 0 6 2 10 4 10 3 0 8 -4 11 -10z m195 0 c0
-5 -5 -10 -11 -10 -5 0 -7 5 -4 10 3 6 8 10 11 10 2 0 4 -4 4 -10z m-1511 -14
c-2 -2 -15 -9 -29 -15 -24 -11 -24 -11 -6 3 16 13 49 24 35 12z m151 -11 c0
-2 -6 -5 -13 -8 -8 -3 -14 1 -14 8 0 7 6 11 14 8 7 -3 13 -6 13 -8z m395 -3
c-3 -3 -11 0 -18 7 -9 10 -8 11 6 5 10 -3 15 -9 12 -12z m115 3 c0 -2 -6 -5
-13 -8 -8 -3 -14 1 -14 8 0 7 6 11 14 8 7 -3 13 -6 13 -8z m305 5 c-3 -5 -14
-10 -23 -9 -14 0 -13 2 3 9 27 11 27 11 20 0z m112 -4 c0 -8 -6 -12 -15 -9
-11 5 -11 7 0 14 7 5 13 9 14 9 0 0 1 -6 1 -14z m290 0 c0 -8 -6 -12 -15 -9
-11 5 -11 7 0 14 7 5 13 9 14 9 0 0 1 -6 1 -14z m-1107 0 c0 -2 -7 -7 -16 -10
-8 -3 -12 -2 -9 4 6 10 25 14 25 6z m190 -18 c0 -6 -6 -5 -15 2 -8 7 -15 14
-15 16 0 2 7 1 15 -2 8 -4 15 -11 15 -16z m725 12 c-3 -5 -12 -10 -18 -10 -7
0 -6 4 3 10 19 12 23 12 15 0z m300 0 c3 -6 -1 -7 -9 -4 -18 7 -21 14 -7 14 6
0 13 -4 16 -10z m-1562 -29 c-4 -3 -11 -10 -15 -15 -5 -5 -8 0 -8 12 0 15 4
20 16 15 9 -3 12 -9 7 -12z m417 -5 c0 -2 -9 -6 -20 -9 -15 -4 -20 0 -20 14 0
17 3 18 20 9 11 -6 20 -12 20 -14z m176 5 c0 -16 -3 -18 -20 -9 -20 11 -20 11
-1 19 11 4 20 8 20 8 1 1 1 -8 1 -18z m214 -1 c0 -4 -6 -10 -14 -13 -10 -4
-14 0 -13 12 1 18 27 18 27 1z m188 -10 c-2 -6 -11 -4 -23 5 -11 9 -15 14 -8
11 6 -4 15 -1 19 6 6 9 9 9 12 0 2 -7 2 -17 0 -22z m215 17 c4 3 7 2 7 -4 0
-6 -8 -13 -18 -15 -12 -4 -18 1 -18 13 0 12 4 15 12 9 6 -6 14 -7 17 -3z m185
-17 c-2 -6 -8 -6 -18 0 -13 9 -13 11 0 20 15 10 25 0 18 -20z m222 7 c0 -6 -3
-7 -7 -4 -3 4 -11 3 -17 -3 -8 -6 -12 -3 -12 9 0 12 6 17 18 13 10 -2 18 -9
18 -15z m-1733 -9 c-3 -8 -6 -5 -6 6 -1 11 2 17 5 13 3 -3 4 -12 1 -19z m413
12 c0 -5 -4 -10 -10 -10 -5 0 -10 5 -10 10 0 6 5 10 10 10 6 0 10 -4 10 -10z
m400 0 c0 -5 -4 -10 -10 -10 -5 0 -10 5 -10 10 0 6 5 10 10 10 6 0 10 -4 10
-10z m400 0 c0 -5 -4 -10 -10 -10 -5 0 -10 5 -10 10 0 6 5 10 10 10 6 0 10 -4
10 -10z m400 0 c0 -5 -4 -10 -10 -10 -5 0 -10 5 -10 10 0 6 5 10 10 10 6 0 10
-4 10 -10z m-1750 -15 c0 -2 -7 -5 -15 -9 -9 -3 -15 0 -15 9 0 9 6 12 15 9 8
-4 15 -7 15 -9z m390 -5 c0 -5 -5 -10 -11 -10 -5 0 -7 5 -4 10 3 6 8 10 11 10
2 0 4 -4 4 -10z m400 0 c0 -5 -5 -10 -11 -10 -5 0 -7 5 -4 10 3 6 8 10 11 10
2 0 4 -4 4 -10z m-195 -18 c-3 -3 -11 0 -18 7 -9 10 -8 11 6 5 10 -3 15 -9 12
-12z m405 3 c0 -2 -6 -5 -13 -8 -8 -3 -14 1 -14 8 0 7 6 11 14 8 7 -3 13 -6
13 -8z m815 5 c-3 -5 -12 -10 -18 -10 -7 0 -6 4 3 10 19 12 23 12 15 0z m95 0
c0 -5 -2 -10 -4 -10 -3 0 -8 5 -11 10 -3 6 -1 10 4 10 6 0 11 -4 11 -10z
m-599 -17 c13 -17 13 -17 -6 -3 -11 8 -22 16 -24 17 -2 2 0 3 6 3 6 0 17 -8
24 -17z m-1251 -8 c0 -2 -6 -5 -13 -8 -8 -3 -14 1 -14 8 0 7 6 11 14 8 7 -3
13 -6 13 -8z m290 5 c0 -5 -2 -10 -4 -10 -3 0 -8 5 -11 10 -3 6 -1 10 4 10 6
0 11 -4 11 -10z m196 -19 c0 -11 -5 -17 -13 -14 -10 4 -11 9 -2 19 15 18 15
18 15 -5z m99 9 c3 -5 1 -10 -4 -10 -6 0 -11 5 -11 10 0 6 2 10 4 10 3 0 8 -4
11 -10z m205 0 c0 -5 -5 -10 -11 -10 -5 0 -7 5 -4 10 3 6 8 10 11 10 2 0 4 -4
4 -10z m195 0 c3 -5 1 -10 -4 -10 -6 0 -11 5 -11 10 0 6 2 10 4 10 3 0 8 -4
11 -10z m205 0 c0 -5 -5 -10 -11 -10 -5 0 -7 5 -4 10 3 6 8 10 11 10 2 0 4 -4
4 -10z m-1243 -25 c1 0 -8 -7 -20 -14 -20 -13 -21 -13 -8 2 9 11 10 17 2 17
-6 0 -11 5 -11 11 0 8 6 7 18 -2 9 -7 18 -14 19 -14z m230 3 c-3 -8 -6 -5 -6
6 -1 11 2 17 5 13 3 -3 4 -12 1 -19z m560 -10 c-18 -12 -23 -10 -23 11 0 15 3
17 18 8 13 -8 14 -13 5 -19z m153 22 c0 -5 -4 -10 -10 -10 -5 0 -10 5 -10 10
0 6 5 10 10 10 6 0 10 -4 10 -10z m153 -10 c-4 -16 -9 -18 -24 -9 -22 11 -26
21 -5 13 8 -3 17 -1 21 5 10 17 14 13 8 -9z m247 12 c0 -5 -7 -9 -15 -9 -8 0
-12 4 -9 9 3 4 9 8 15 8 5 0 9 -4 9 -8z m156 -12 c0 -24 -6 -25 -32 -5 -14 11
-15 14 -3 9 10 -3 20 -1 24 5 9 15 11 14 11 -9z m97 -1 c5 -3 2 -9 -7 -12 -12
-5 -16 0 -16 15 0 12 3 17 8 12 4 -5 11 -12 15 -15z m147 11 c0 -5 -2 -10 -4
-10 -3 0 -8 5 -11 10 -3 6 -1 10 4 10 6 0 11 -4 11 -10z m157 -9 c-1 -12 -7
-17 -19 -13 -18 4 -18 5 -1 18 23 17 22 17 20 -5z m-1512 3 c13 -5 14 -8 3
-15 -19 -12 -25 -11 -25 6 0 17 0 17 22 9z m305 -9 c0 -9 -6 -12 -16 -8 -13 5
-13 7 -2 14 17 11 18 11 18 -6z m520 8 c0 -1 -9 -7 -20 -13 -15 -8 -20 -8 -20
3 0 7 9 13 20 13 11 0 20 -1 20 -3z m-915 -23 c3 -5 1 -10 -4 -10 -6 0 -11 5
-11 10 0 6 2 10 4 10 3 0 8 -4 11 -10z m-60 -10 c-3 -5 -11 -10 -16 -10 -6 0
-7 5 -4 10 3 6 11 10 16 10 6 0 7 -4 4 -10z m205 0 c0 -5 -2 -10 -4 -10 -3 0
-8 5 -11 10 -3 6 -1 10 4 10 6 0 11 -4 11 -10z m405 0 c3 -5 2 -10 -4 -10 -5
0 -13 5 -16 10 -3 6 -2 10 4 10 5 0 13 -4 16 -10z m195 6 c0 -3 -4 -8 -10 -11
-5 -3 -10 -1 -10 4 0 6 5 11 10 11 6 0 10 -2 10 -4z m-753 -38 c-3 -8 -6 -5
-6 6 -1 11 2 17 5 13 3 -3 4 -12 1 -19z m213 1 c0 -5 -7 -9 -15 -9 -9 0 -12 6
-9 15 6 15 24 11 24 -6z m75 1 c3 -5 2 -10 -4 -10 -5 0 -13 5 -16 10 -3 6 -2
10 4 10 5 0 13 -4 16 -10z m325 1 c0 -5 -9 -11 -19 -14 -14 -3 -18 -1 -14 9 6
15 33 19 33 5z m89 -5 c10 -12 8 -13 -8 -9 -12 3 -21 9 -21 14 0 14 16 11 29
-5z m311 4 c0 -5 -4 -10 -10 -10 -5 0 -10 5 -10 10 0 6 5 10 10 10 6 0 10 -4
10 -10z m85 0 c3 -5 -1 -10 -9 -10 -9 0 -16 5 -16 10 0 6 4 10 9 10 6 0 13 -4
16 -10z m315 0 c0 -5 -4 -10 -10 -10 -5 0 -10 5 -10 10 0 6 5 10 10 10 6 0 10
-4 10 -10z m89 -4 c10 -12 8 -13 -8 -9 -12 3 -21 9 -21 14 0 14 16 11 29 -5z
m-1639 -10 c0 -3 -4 -8 -10 -11 -5 -3 -10 -1 -10 4 0 6 5 11 10 11 6 0 10 -2
10 -4z m491 -11 c5 4 6 -1 3 -9 -8 -20 -24 -11 -23 12 0 11 2 12 6 4 2 -6 9
-10 14 -7z m814 -5 c-17 -19 -35 -19 -35 0 0 5 6 7 14 4 8 -3 17 -1 21 5 3 6
9 11 12 11 3 0 -2 -9 -12 -20z m-1025 -10 c-8 -5 -17 -7 -19 -4 -3 3 1 9 9 14
8 5 17 7 19 4 3 -3 -1 -9 -9 -14z m415 10 c-3 -5 -11 -10 -16 -10 -6 0 -7 5
-4 10 3 6 11 10 16 10 6 0 7 -4 4 -10z m190 0 c3 -5 2 -10 -4 -10 -5 0 -13 5
-16 10 -3 6 -2 10 4 10 5 0 13 -4 16 -10z m200 -9 c-3 -6 -11 -11 -17 -11 -6
0 -6 6 2 15 14 17 26 13 15 -4z m418 5 c4 -10 0 -12 -14 -9 -10 3 -16 9 -13
14 8 13 21 11 27 -5z m211 -15 c4 -5 -5 -4 -19 2 -14 7 -25 16 -25 20 0 9 36
-9 44 -22z m-87 -13 c-3 -7 -5 -2 -5 12 0 14 2 19 5 13 2 -7 2 -19 0 -25z
m-997 -10 c0 -6 -6 -5 -15 2 -8 7 -15 14 -15 16 0 2 7 1 15 -2 8 -4 15 -11 15
-16z m810 7 c-7 -8 -17 -12 -23 -8 -6 4 -3 9 9 14 27 11 28 11 14 -6z m105 5
c3 -5 1 -10 -4 -10 -6 0 -11 5 -11 10 0 6 2 10 4 10 3 0 8 -4 11 -10z m-1320
-10 c-3 -5 -11 -10 -16 -10 -6 0 -7 5 -4 10 3 6 11 10 16 10 6 0 7 -4 4 -10z
m325 0 c0 -5 -4 -10 -10 -10 -5 0 -10 5 -10 10 0 6 5 10 10 10 6 0 10 -4 10
-10z m400 0 c0 -5 -2 -10 -4 -10 -3 0 -8 5 -11 10 -3 6 -1 10 4 10 6 0 11 -4
11 -10z m80 -2 c0 -6 -3 -8 -7 -5 -3 4 -13 1 -22 -6 -14 -11 -14 -10 -2 6 15
20 31 22 31 5z m320 2 c0 -5 -4 -10 -10 -10 -5 0 -10 5 -10 10 0 6 5 10 10 10
6 0 10 -4 10 -10z m405 0 c3 -5 2 -10 -4 -10 -5 0 -13 5 -16 10 -3 6 -2 10 4
10 5 0 13 -4 16 -10z m-1761 -15 c-4 -8 -11 -12 -16 -9 -6 4 -5 10 3 15 19 12
19 11 13 -6z m-134 -5 c0 -5 -2 -10 -4 -10 -3 0 -8 5 -11 10 -3 6 -1 10 4 10
6 0 11 -4 11 -10z m825 -10 c3 -5 1 -10 -4 -10 -6 0 -11 5 -11 10 0 6 2 10 4
10 3 0 8 -4 11 -10z m400 0 c3 -5 1 -10 -4 -10 -6 0 -11 5 -11 10 0 6 2 10 4
10 3 0 8 -4 11 -10z m205 0 c0 -5 -5 -10 -11 -10 -5 0 -7 5 -4 10 3 6 8 10 11
10 2 0 4 -4 4 -10z m-1352 -24 c0 -19 -3 -22 -13 -13 -8 8 -9 15 -1 24 6 7 12
12 12 13 1 0 2 -11 2 -24z m482 14 c0 -5 -2 -10 -4 -10 -3 0 -8 5 -11 10 -3 6
-1 10 4 10 6 0 11 -4 11 -10z m432 -5 c7 4 4 -1 -6 -9 -26 -21 -32 -20 -32 3
0 15 4 17 13 10 7 -6 18 -8 25 -4z m299 6 c-8 -5 -10 -14 -6 -22 6 -9 3 -11
-9 -6 -10 4 -20 7 -24 7 -3 0 3 7 14 15 10 8 24 14 29 15 6 0 4 -4 -4 -9z m99
-6 c5 3 10 4 10 1 0 -3 -9 -10 -19 -15 -15 -9 -20 -7 -24 10 -4 16 -3 18 8 9
8 -7 19 -9 25 -5z m297 -5 c-1 -13 -6 -19 -15 -15 -7 3 -16 5 -20 5 -5 0 29
29 35 30 1 0 1 -9 0 -20z m87 7 c11 -10 10 -15 -2 -27 -14 -13 -15 -12 -10 2
4 8 1 21 -5 27 -6 6 -8 11 -3 11 4 0 13 -6 20 -13z m-1577 -11 c0 -8 -6 -12
-15 -9 -11 5 -11 7 0 14 7 5 13 9 14 9 0 0 1 -6 1 -14z m283 -1 c0 -9 -6 -12
-16 -8 -13 5 -13 7 -2 14 17 11 18 11 18 -6z m400 -2 c0 -11 -5 -11 -20 -3
-11 6 -20 12 -20 13 0 2 9 3 20 3 11 0 20 -6 20 -13z m-320 -13 c0 -5 -5 -10
-11 -10 -5 0 -7 5 -4 10 3 6 8 10 11 10 2 0 4 -4 4 -10z m170 0 c0 -5 -4 -10
-10 -10 -5 0 -10 5 -10 10 0 6 5 10 10 10 6 0 10 -4 10 -10z m400 0 c0 -5 -4
-10 -10 -10 -5 0 -10 5 -10 10 0 6 5 10 10 10 6 0 10 -4 10 -10z m400 0 c0 -5
-4 -10 -10 -10 -5 0 -10 5 -10 10 0 6 5 10 10 10 6 0 10 -4 10 -10z m-1397
-21 c-4 -15 -8 -17 -14 -8 -8 14 -3 29 11 29 4 0 6 -9 3 -21z m102 3 c-3 -3
-11 0 -18 7 -9 10 -8 11 6 5 10 -3 15 -9 12 -12z m595 14 c0 -3 -4 -8 -10 -11
-5 -3 -10 -1 -10 4 0 6 5 11 10 11 6 0 10 -2 10 -4z m200 -6 c0 -5 -2 -10 -4
-10 -3 0 -8 5 -11 10 -3 6 -1 10 4 10 6 0 11 -4 11 -10z m195 0 c-3 -5 -11
-10 -16 -10 -6 0 -7 5 -4 10 3 6 11 10 16 10 6 0 7 -4 4 -10z m205 0 c0 -5 -2
-10 -4 -10 -3 0 -8 5 -11 10 -3 6 -1 10 4 10 6 0 11 -4 11 -10z m195 0 c-3 -5
-12 -10 -18 -10 -7 0 -6 4 3 10 19 12 23 12 15 0z m210 0 c3 -5 1 -10 -4 -10
-6 0 -11 5 -11 10 0 6 2 10 4 10 3 0 8 -4 11 -10z m-1839 -19 c0 -12 -6 -17
-18 -13 -18 4 -18 5 -1 18 10 7 18 14 18 14 1 0 1 -8 1 -19z m1734 15 c0 -3
-4 -8 -10 -11 -5 -3 -10 -1 -10 4 0 6 5 11 10 11 6 0 10 -2 10 -4z m-945 -16
c-3 -5 -12 -10 -18 -10 -7 0 -6 4 3 10 19 12 23 12 15 0z m1090 -8 c-3 -3 -11
0 -18 7 -9 10 -8 11 6 5 10 -3 15 -9 12 -12z m-1315 -2 c0 -5 -2 -10 -4 -10
-3 0 -8 5 -11 10 -3 6 -1 10 4 10 6 0 11 -4 11 -10z m117 4 c-3 -3 -12 -4 -19
-1 -8 3 -5 6 6 6 11 1 17 -2 13 -5z m510 0 c-3 -3 -12 -4 -19 -1 -8 3 -5 6 6
6 11 1 17 -2 13 -5z m298 -4 c3 -6 -1 -7 -9 -4 -18 7 -21 14 -7 14 6 0 13 -4
16 -10z m205 0 c0 -5 -5 -10 -11 -10 -5 0 -7 5 -4 10 3 6 8 10 11 10 2 0 4 -4
4 -10z m-1268 -13 c15 -12 15 -14 -5 -26 -17 -10 -19 -11 -10 -1 10 11 9 16
-5 26 -9 8 -12 13 -7 13 6 0 18 -5 27 -12z m-372 -23 c0 -2 -9 0 -20 6 -11 6
-20 13 -20 16 0 2 9 0 20 -6 11 -6 20 -13 20 -16z m176 7 c0 -15 -3 -17 -18
-8 -13 8 -14 13 -5 19 18 12 23 10 23 -11z m401 -3 c0 -13 -1 -17 -4 -10 -3 6
-12 12 -21 13 -14 0 -13 2 3 9 11 5 20 9 20 9 1 1 1 -9 2 -21z m221 8 c-2 -1
-11 -7 -20 -15 -15 -11 -17 -10 -15 7 1 13 7 18 19 14 11 -2 17 -5 16 -6z
m179 -8 c0 -13 -1 -17 -4 -10 -3 6 -12 12 -21 13 -14 0 -13 2 3 9 11 5 20 9
20 9 1 1 1 -9 2 -21z m400 1 c2 -17 -1 -18 -13 -8 -13 11 -10 20 11 29 1 0 1
-9 2 -21z m229 0 c3 -5 -1 -6 -9 -3 -8 3 -18 1 -22 -5 -3 -6 -11 -11 -17 -11
-7 0 -7 4 1 13 6 8 8 16 5 20 -3 3 4 3 15 0 12 -3 24 -9 27 -14z m178 -18 c-2
-2 -10 4 -18 12 -12 11 -13 16 -3 20 11 4 29 -23 21 -32z m-1104 19 c0 -5 -4
-10 -10 -10 -5 0 -10 5 -10 10 0 6 5 10 10 10 6 0 10 -4 10 -10z m400 0 c0 -5
-4 -10 -10 -10 -5 0 -10 5 -10 10 0 6 5 10 10 10 6 0 10 -4 10 -10z m104 -4
c-10 -8 -21 -12 -24 -10 -5 6 21 24 34 24 6 0 1 -6 -10 -14z m296 4 c0 -5 -5
-10 -11 -10 -5 0 -7 5 -4 10 3 6 8 10 11 10 2 0 4 -4 4 -10z m-1540 -25 c-10
-12 -10 -15 0 -15 8 0 11 -2 8 -5 -3 -3 -13 -3 -22 1 -15 6 -15 7 1 20 24 18
28 17 13 -1z m895 5 c3 -5 2 -10 -4 -10 -5 0 -13 5 -16 10 -3 6 -2 10 4 10 5
0 13 -4 16 -10z m85 0 c0 -5 -5 -10 -11 -10 -5 0 -7 5 -4 10 3 6 8 10 11 10 2
0 4 -4 4 -10z m315 0 c3 -5 2 -10 -4 -10 -5 0 -13 5 -16 10 -3 6 -2 10 4 10 5
0 13 -4 16 -10z m495 6 c0 -3 -4 -8 -10 -11 -5 -3 -10 -1 -10 4 0 6 5 11 10
11 6 0 10 -2 10 -4z m-1100 -16 c0 -5 -8 -10 -17 -10 -15 0 -16 2 -3 10 19 12
20 12 20 0z m-543 -14 c0 -8 -8 -14 -18 -13 -14 1 -15 4 -7 14 14 17 25 16 25
-1z m1203 -12 c0 -2 -9 0 -20 6 -11 6 -20 13 -20 16 0 2 9 0 20 -6 11 -6 20
-13 20 -16z m385 8 c-3 -3 -11 0 -18 7 -9 10 -8 11 6 5 10 -3 15 -9 12 -12z
m-1190 -2 c3 -6 -1 -7 -9 -4 -18 7 -21 14 -7 14 6 0 13 -4 16 -10z m-305 -4
c0 -3 -4 -8 -10 -11 -5 -3 -10 -1 -10 4 0 6 5 11 10 11 6 0 10 -2 10 -4z m495
-6 c3 -5 1 -10 -4 -10 -6 0 -11 5 -11 10 0 6 2 10 4 10 3 0 8 -4 11 -10z m110
-8 c-3 -3 -11 0 -18 7 -9 10 -8 11 6 5 10 -3 15 -9 12 -12z m195 8 c0 -5 -5
-10 -11 -10 -5 0 -7 5 -4 10 3 6 8 10 11 10 2 0 4 -4 4 -10z m500 0 c0 -5 -5
-10 -11 -10 -5 0 -7 5 -4 10 3 6 8 10 11 10 2 0 4 -4 4 -10z m-1449 -13 c-6
-8 -8 -16 -5 -20 3 -3 -4 -3 -15 0 -20 5 -20 6 -4 19 23 17 39 18 24 1z m405
-7 c0 -11 -1 -20 -2 -20 -1 0 -9 3 -18 6 -12 5 -13 9 -3 20 17 19 23 17 23 -6z
m400 0 c0 -13 -5 -19 -14 -15 -7 3 -16 5 -20 5 -3 0 3 7 14 15 10 8 19 15 19
15 1 0 1 -9 1 -20z m91 -12 c-18 -12 -23 -10 -23 11 0 15 3 17 18 8 13 -8 14
-13 5 -19z m309 12 c0 -13 -5 -19 -14 -15 -7 3 -16 5 -20 5 -3 0 3 7 14 15 10
8 19 15 19 15 1 0 1 -9 1 -20z m89 6 c12 -12 12 -15 -1 -20 -9 -3 -17 -6 -18
-6 -1 0 -2 9 -2 20 0 24 3 24 21 6z m311 -5 c0 -12 -6 -17 -18 -13 -18 4 -18
5 -1 18 10 7 18 14 18 14 1 0 1 -8 1 -19z m103 3 c6 4 11 3 11 -2 0 -5 -9 -12
-20 -15 -15 -4 -20 0 -20 16 0 17 2 19 9 8 5 -7 14 -10 20 -7z m-1655 -38 c-3
-8 -12 -12 -21 -9 -12 5 -12 7 -1 14 20 13 28 11 22 -5z m401 4 c-3 -5 -12
-10 -18 -10 -7 0 -6 4 3 10 19 12 23 12 15 0z m695 6 c0 -3 -4 -8 -10 -11 -5
-3 -10 -1 -10 4 0 6 5 11 10 11 6 0 10 -2 10 -4z m95 -14 c-3 -3 -11 0 -18 7
-9 10 -8 11 6 5 10 -3 15 -9 12 -12z m305 14 c0 -3 -4 -8 -10 -11 -5 -3 -10
-1 -10 4 0 6 5 11 10 11 6 0 10 -2 10 -4z m-895 -16 c3 -6 -1 -7 -9 -4 -18 7
-21 14 -7 14 6 0 13 -4 16 -10z m795 6 c0 -2 -7 -7 -16 -10 -8 -3 -12 -2 -9 4
6 10 25 14 25 6z m-436 -21 c-4 -8 -14 -15 -23 -15 -14 1 -13 3 3 15 25 19 27
19 20 0z m490 0 c-7 -17 -20 -20 -29 -6 -3 5 3 12 12 14 10 3 19 5 20 6 1 0 0
-6 -3 -14z m-1504 -5 c0 -5 -5 -10 -11 -10 -5 0 -7 5 -4 10 3 6 8 10 11 10 2
0 4 -4 4 -10z m294 2 c3 -5 -1 -9 -9 -9 -8 0 -15 4 -15 9 0 4 4 8 9 8 6 0 12
-4 15 -8z m316 -2 c0 -5 -4 -10 -10 -10 -5 0 -10 5 -10 10 0 6 5 10 10 10 6 0
10 -4 10 -10z m85 0 c3 -5 2 -10 -4 -10 -5 0 -13 5 -16 10 -3 6 -2 10 4 10 5
0 13 -4 16 -10z m115 6 c0 -3 -4 -8 -10 -11 -5 -3 -10 -1 -10 4 0 6 5 11 10
11 6 0 10 -2 10 -4z m285 -5 c3 -5 1 -12 -4 -15 -5 -3 -11 1 -15 9 -6 16 9 21
19 6z m195 -1 c0 -5 -2 -10 -4 -10 -3 0 -8 5 -11 10 -3 6 -1 10 4 10 6 0 11
-4 11 -10z m120 0 c0 -5 -4 -10 -10 -10 -5 0 -10 5 -10 10 0 6 5 10 10 10 6 0
10 -4 10 -10z m285 0 c3 -5 1 -10 -4 -10 -6 0 -11 5 -11 10 0 6 2 10 4 10 3 0
8 -4 11 -10z m115 0 c0 -5 -4 -10 -10 -10 -5 0 -10 5 -10 10 0 6 5 10 10 10 6
0 10 -4 10 -10z m-1262 -32 c-2 -6 -13 -12 -24 -14 -19 -3 -19 -3 0 12 24 17
29 18 24 2z m196 4 c3 -5 -1 -9 -9 -9 -8 0 -15 4 -15 9 0 4 4 8 9 8 6 0 12 -4
15 -8z m206 -4 c0 -4 -4 -8 -9 -8 -6 0 -12 4 -15 8 -3 5 1 9 9 9 8 0 15 -4 15
-9z m194 4 c3 -5 -1 -9 -9 -9 -8 0 -12 4 -9 9 3 4 7 8 9 8 2 0 6 -4 9 -8z
m207 -5 c-7 -7 -14 -8 -21 -1 -6 6 -2 10 12 11 16 2 18 -1 9 -10z m204 -5 c-3
-3 -11 0 -18 7 -9 10 -8 11 6 5 10 -3 15 -9 12 -12z m205 8 c0 -5 -7 -10 -16
-10 -8 0 -12 5 -9 10 3 6 10 10 16 10 5 0 9 -4 9 -10z m-1361 -39 c-6 -2 -18
4 -27 13 -15 15 -15 15 10 4 15 -7 23 -15 17 -17z m-199 9 c0 -5 -2 -10 -4
-10 -3 0 -8 5 -11 10 -3 6 -1 10 4 10 6 0 11 -4 11 -10z m85 0 c-3 -5 -11 -10
-16 -10 -6 0 -7 5 -4 10 3 6 11 10 16 10 6 0 7 -4 4 -10z m204 -7 c-6 -7 -15
-13 -20 -13 -5 0 -6 6 -3 13 3 8 11 14 19 14 11 0 12 -4 4 -14z m201 7 c0 -5
-5 -10 -11 -10 -5 0 -7 5 -4 10 3 6 8 10 11 10 2 0 4 -4 4 -10z m115 0 c3 -5
1 -10 -4 -10 -6 0 -11 5 -11 10 0 6 2 10 4 10 3 0 8 -4 11 -10z m85 -5 c0 -2
-6 -5 -13 -8 -8 -3 -14 1 -14 8 0 7 6 11 14 8 7 -3 13 -6 13 -8z m115 5 c3 -5
1 -10 -4 -10 -6 0 -11 5 -11 10 0 6 2 10 4 10 3 0 8 -4 11 -10z m85 0 c0 -5
-5 -10 -11 -10 -5 0 -7 5 -4 10 3 6 8 10 11 10 2 0 4 -4 4 -10z m124 -5 c4
-13 2 -14 -14 -5 -23 13 -26 20 -6 20 8 0 16 -7 20 -15z m76 -4 c0 -4 -6 -8
-13 -8 -8 0 -14 6 -14 13 0 7 6 10 14 7 7 -3 13 -8 13 -12z m115 9 c3 -6 -1
-7 -9 -4 -18 7 -21 14 -7 14 6 0 13 -4 16 -10z m95 6 c0 -3 -4 -8 -10 -11 -5
-3 -10 -1 -10 4 0 6 5 11 10 11 6 0 10 -2 10 -4z m110 -11 c11 -13 10 -14 -4
-9 -9 3 -16 10 -16 15 0 13 6 11 20 -6z m59 -14 c-13 -10 -28 -17 -33 -13 -5
3 0 9 11 13 12 4 24 13 28 19 4 6 9 9 12 6 3 -3 -5 -14 -18 -25z m-1424 -1
c-3 -5 -12 -10 -18 -10 -7 0 -6 4 3 10 19 12 23 12 15 0z m412 -4 c0 -8 -6
-12 -15 -9 -11 5 -11 7 0 14 7 5 13 9 14 9 0 0 1 -6 1 -14z m788 -4 c-3 -3
-11 0 -18 7 -9 10 -8 11 6 5 10 -3 15 -9 12 -12z m-1495 -6 c0 -2 -7 -7 -16
-10 -8 -3 -12 -2 -9 4 6 10 25 14 25 6z m795 -6 c-3 -5 -12 -10 -18 -10 -7 0
-6 4 3 10 19 12 23 12 15 0z m1005 0 c0 -5 -2 -10 -4 -10 -3 0 -8 5 -11 10 -3
6 -1 10 4 10 6 0 11 -4 11 -10z m-1447 -13 c4 3 7 2 7 -4 0 -6 -8 -13 -18 -15
-12 -4 -18 1 -18 13 0 12 4 15 12 9 6 -6 14 -7 17 -3z m303 -7 c0 -24 -6 -25
-32 -5 -16 13 -16 14 -1 9 9 -3 17 -1 17 5 0 6 4 11 8 11 4 0 8 -9 8 -20z m84
-6 c0 -8 -4 -14 -8 -14 -4 0 -8 9 -8 19 0 11 4 17 8 15 4 -3 8 -12 8 -20z
m316 6 c0 -13 -5 -19 -14 -15 -7 3 -16 5 -20 5 -3 0 3 7 14 15 10 8 19 15 19
15 1 0 1 -9 1 -20z m89 6 c12 -12 12 -15 -1 -20 -9 -3 -17 -6 -18 -6 -1 0 -2
9 -2 20 0 24 3 24 21 6z m311 -5 c0 -12 -6 -17 -18 -13 -18 4 -18 5 -1 18 10
7 18 14 18 14 1 0 1 -8 1 -19z m89 5 c12 -12 12 -15 1 -19 -8 -3 -16 2 -19 14
-6 23 -1 24 18 5z m311 -5 c0 -12 -6 -17 -18 -13 -18 4 -18 5 -1 18 10 7 18
14 18 14 1 0 1 -8 1 -19z m-1666 -16 c0 -8 -4 -15 -10 -15 -5 0 -7 7 -4 15 4
8 8 15 10 15 2 0 4 -7 4 -15z m65 5 c3 -5 1 -10 -4 -10 -6 0 -11 5 -11 10 0 6
2 10 4 10 3 0 8 -4 11 -10z m242 -4 c0 -8 -6 -12 -15 -9 -11 5 -11 7 0 14 7 5
13 9 14 9 0 0 1 -6 1 -14z m-487 -12 c0 -2 -10 -9 -22 -15 -20 -11 -21 -10
-11 3 7 8 10 18 6 22 -4 4 0 4 10 0 9 -3 17 -8 17 -10z m890 6 c0 -5 -7 -10
-16 -10 -8 0 -12 5 -9 10 3 6 10 10 16 10 5 0 9 -4 9 -10z m400 0 c0 -5 -4
-10 -10 -10 -5 0 -10 5 -10 10 0 6 5 10 10 10 6 0 10 -4 10 -10z m400 0 c0 -5
-2 -10 -4 -10 -3 0 -8 5 -11 10 -3 6 -1 10 4 10 6 0 11 -4 11 -10z m100 0 c0
-5 -5 -10 -11 -10 -5 0 -7 5 -4 10 3 6 8 10 11 10 2 0 4 -4 4 -10z m-1000 -10
c0 -5 -2 -10 -4 -10 -3 0 -8 5 -11 10 -3 6 -1 10 4 10 6 0 11 -4 11 -10z m-95
-10 c3 -6 -1 -7 -9 -4 -18 7 -21 14 -7 14 6 0 13 -4 16 -10z m1055 -11 c0 -14
-27 -10 -33 5 -4 10 0 12 14 9 10 -3 19 -9 19 -14z m-1316 2 c4 -5 -3 -7 -14
-4 -23 6 -26 13 -6 13 8 0 17 -4 20 -9z m106 -1 c0 -5 -4 -10 -10 -10 -5 0
-10 5 -10 10 0 6 5 10 10 10 6 0 10 -4 10 -10z m-593 -14 c0 -8 -6 -12 -15 -9
-11 5 -11 7 0 14 7 5 13 9 14 9 0 0 1 -6 1 -14z m298 4 c-3 -5 -11 -10 -16
-10 -6 0 -7 5 -4 10 3 6 11 10 16 10 6 0 7 -4 4 -10z m405 6 c0 -3 -4 -8 -10
-11 -5 -3 -10 -1 -10 4 0 6 5 11 10 11 6 0 10 -2 10 -4z m480 -6 c0 -5 -2 -10
-4 -10 -3 0 -8 5 -11 10 -3 6 -1 10 4 10 6 0 11 -4 11 -10z m-537 -21 c5 -3 2
-9 -5 -12 -9 -3 -14 3 -15 15 -1 11 1 16 5 12 4 -5 11 -12 15 -15z m195 -5 c0
-16 -3 -22 -8 -14 -4 7 -14 10 -22 7 -8 -3 -15 1 -15 8 0 7 8 10 19 7 10 -2
18 1 18 7 0 6 2 11 4 11 2 0 4 -12 4 -26z m212 4 c11 -3 9 -6 -6 -10 -15 -4
-20 0 -22 16 0 11 2 16 6 10 4 -6 14 -13 22 -16z m187 -5 c0 -16 -2 -22 -4
-15 -3 6 -11 12 -18 12 -8 0 -16 4 -19 9 -4 5 3 7 14 4 11 -3 20 0 20 6 0 6 2
11 4 11 2 0 3 -12 3 -27z m213 5 c11 -3 9 -6 -6 -10 -15 -4 -20 0 -22 16 0 11
2 16 6 10 4 -6 14 -13 22 -16z m192 -3 c3 -14 1 -28 -5 -32 -6 -3 -7 -1 -3 6
4 6 1 14 -8 17 -12 5 -13 9 -3 20 7 7 13 13 13 14 1 0 4 -11 6 -25z m-1392 0
c0 -2 -7 -5 -15 -9 -9 -3 -15 0 -15 9 0 9 6 12 15 9 8 -4 15 -7 15 -9z m287 0
c0 -11 -4 -12 -14 -4 -7 6 -13 13 -13 15 0 2 6 4 13 4 8 0 14 -7 14 -15z m403
0 c0 -8 -7 -15 -15 -15 -9 0 -12 6 -9 15 4 8 10 15 15 15 5 0 9 -7 9 -15z
m400 2 c0 -8 -6 -14 -14 -14 -8 0 -12 6 -9 14 7 17 23 17 23 0z m400 -2 c0 -8
-2 -15 -4 -15 -2 0 -6 7 -10 15 -3 8 -1 15 4 15 6 0 10 -7 10 -15z m120 0 c0
-1 -8 -5 -18 -7 -11 -3 -19 0 -19 7 0 7 8 10 19 7 10 -2 18 -6 18 -7z m-1425
-13 c-3 -3 -11 0 -18 7 -9 10 -8 11 6 5 10 -3 15 -9 12 -12z m-140 -12 c3 -5
1 -10 -4 -10 -6 0 -11 5 -11 10 0 6 2 10 4 10 3 0 8 -4 11 -10z m400 0 c3 -5
1 -10 -4 -10 -6 0 -11 5 -11 10 0 6 2 10 4 10 3 0 8 -4 11 -10z m80 0 c-3 -5
-12 -10 -18 -10 -7 0 -6 4 3 10 19 12 23 12 15 0z m405 0 c0 -5 -5 -10 -11
-10 -5 0 -7 5 -4 10 3 6 8 10 11 10 2 0 4 -4 4 -10z m-1100 -4 c0 -3 -4 -8
-10 -11 -5 -3 -10 -1 -10 4 0 6 5 11 10 11 6 0 10 -2 10 -4z m110 -6 c0 -5 -2
-10 -4 -10 -3 0 -8 5 -11 10 -3 6 -1 10 4 10 6 0 11 -4 11 -10z m290 0 c0 -5
-2 -10 -4 -10 -3 0 -8 5 -11 10 -3 6 -1 10 4 10 6 0 11 -4 11 -10z m405 0 c3
-5 1 -10 -4 -10 -6 0 -11 5 -11 10 0 6 2 10 4 10 3 0 8 -4 11 -10z m115 0 c0
-5 -4 -10 -10 -10 -5 0 -10 5 -10 10 0 6 5 10 10 10 6 0 10 -4 10 -10z m400 0
c0 -5 -2 -10 -4 -10 -3 0 -8 5 -11 10 -3 6 -1 10 4 10 6 0 11 -4 11 -10z m290
0 c0 -5 -5 -10 -11 -10 -5 0 -7 5 -4 10 3 6 8 10 11 10 2 0 4 -4 4 -10z
m-1360 -4 c0 -3 -4 -8 -10 -11 -5 -3 -10 -1 -10 4 0 6 5 11 10 11 6 0 10 -2
10 -4z m815 -6 c-3 -5 -12 -10 -18 -10 -7 0 -6 4 3 10 19 12 23 12 15 0z
m-305 -10 c0 -5 -5 -10 -11 -10 -5 0 -7 5 -4 10 3 6 8 10 11 10 2 0 4 -4 4
-10z m100 -11 c0 -14 -16 -11 -29 5 -10 12 -8 13 8 9 12 -3 21 -9 21 -14z
m495 11 c3 -5 1 -10 -4 -10 -6 0 -11 5 -11 10 0 6 2 10 4 10 3 0 8 -4 11 -10z
m-1135 -4 c0 -3 -4 -8 -10 -11 -5 -3 -10 -1 -10 4 0 6 5 11 10 11 6 0 10 -2
10 -4z m240 -6 c0 -5 -4 -10 -10 -10 -5 0 -10 5 -10 10 0 6 5 10 10 10 6 0 10
-4 10 -10z m800 0 c0 -5 -4 -10 -10 -10 -5 0 -10 5 -10 10 0 6 5 10 10 10 6 0
10 -4 10 -10z m400 0 c0 -5 -4 -10 -10 -10 -5 0 -10 5 -10 10 0 6 5 10 10 10
6 0 10 -4 10 -10z m100 0 c0 -5 -2 -10 -4 -10 -3 0 -8 5 -11 10 -3 6 -1 10 4
10 6 0 11 -4 11 -10z m-1144 -20 c0 -24 -3 -24 -22 -6 -11 11 -11 16 -1 19 21
9 23 8 23 -13z m102 6 c-2 -1 -10 -7 -18 -13 -13 -10 -16 -8 -16 6 0 13 6 17
19 13 10 -2 16 -5 15 -6z m298 -5 c0 -15 -3 -17 -18 -8 -13 8 -14 13 -5 19 18
12 23 10 23 -11z m102 5 c-2 -1 -11 -7 -20 -14 -14 -11 -16 -10 -11 7 3 12 11
17 19 14 8 -3 14 -6 12 -7z m298 -5 c0 -15 -3 -17 -18 -7 -17 10 -17 11 0 18
9 3 17 7 17 7 1 1 1 -7 1 -18z m88 13 c13 -5 13 -8 1 -20 -18 -18 -21 -18 -21
6 0 11 1 20 2 20 1 0 9 -3 18 -6z m312 -13 c0 -15 -3 -17 -18 -7 -17 10 -17
11 0 18 9 3 17 7 17 7 1 1 1 -7 1 -18z m-1497 6 c-2 -1 -13 -9 -24 -17 -19
-14 -19 -14 -6 3 7 9 18 17 24 17 6 0 8 -1 6 -3z m-354 -27 c3 -5 2 -10 -4
-10 -5 0 -13 5 -16 10 -3 6 -2 10 4 10 5 0 13 -4 16 -10z m300 -10 c-3 -5 -12
-10 -18 -10 -7 0 -6 4 3 10 19 12 23 12 15 0z m1190 -8 c-3 -3 -11 0 -18 7 -9
10 -8 11 6 5 10 -3 15 -9 12 -12z m-1351 -18 c5 -12 2 -15 -10 -10 -8 3 -18 6
-20 6 -3 0 -2 5 1 10 9 15 22 12 29 -6z m314 -1 c-6 -8 -13 -11 -16 -9 -3 3
-17 -3 -32 -14 -30 -22 -40 -24 -40 -12 0 4 14 13 31 19 17 7 28 16 26 20 -3
5 5 9 18 9 19 0 22 -3 13 -13z m409 2 c0 -6 -6 -12 -14 -12 -7 0 -13 6 -13 12
0 6 6 12 13 12 8 0 14 -6 14 -12z m398 5 c-3 -5 -12 -10 -18 -10 -7 0 -6 4 3
10 19 12 23 12 15 0z m78 -7 c-4 -10 -9 -11 -19 -2 -18 15 -18 15 5 15 11 0
17 -5 14 -13z m397 5 c0 -4 -4 -8 -9 -8 -6 0 -12 4 -15 8 -3 5 1 9 9 9 8 0 15
-4 15 -9z m-1080 -2 c0 -3 -4 -8 -10 -11 -5 -3 -10 -1 -10 4 0 6 5 11 10 11 6
0 10 -2 10 -4z m80 -6 c0 -5 -2 -10 -4 -10 -3 0 -8 5 -11 10 -3 6 -1 10 4 10
6 0 11 -4 11 -10z m205 0 c3 -6 -1 -7 -9 -4 -18 7 -21 14 -7 14 6 0 13 -4 16
-10z m115 6 c0 -3 -4 -8 -10 -11 -5 -3 -10 -1 -10 4 0 6 5 11 10 11 6 0 10 -2
10 -4z m85 -6 c3 -5 2 -10 -4 -10 -5 0 -13 5 -16 10 -3 6 -2 10 4 10 5 0 13
-4 16 -10z m310 0 c-3 -5 -11 -10 -16 -10 -6 0 -7 5 -4 10 3 6 11 10 16 10 6
0 7 -4 4 -10z m90 0 c3 -5 1 -10 -4 -10 -6 0 -11 5 -11 10 0 6 2 10 4 10 3 0
8 -4 11 -10z m115 6 c0 -2 -7 -7 -16 -10 -8 -3 -12 -2 -9 4 6 10 25 14 25 6z
m195 -6 c-3 -5 -12 -10 -18 -10 -7 0 -6 4 3 10 19 12 23 12 15 0z m-1855 -25
c-14 -17 -30 -20 -30 -6 0 5 8 12 18 14 9 3 19 5 21 6 2 0 -2 -6 -9 -14z m200
-7 c0 -5 -5 -6 -10 -3 -6 4 -19 1 -28 -7 -15 -11 -15 -11 -5 3 7 9 10 18 7 22
-3 3 3 3 15 0 12 -3 21 -10 21 -15z m400 3 c0 -13 -29 -8 -34 5 -3 7 2 10 15
7 10 -3 19 -9 19 -12z m620 14 c0 -2 -14 -12 -31 -21 -17 -8 -28 -11 -24 -4 4
6 17 15 29 20 27 11 26 11 26 5z m397 -2 c-4 -3 -1 -13 6 -22 10 -14 10 -14
-5 -3 -9 8 -22 11 -28 7 -5 -3 -10 -2 -10 4 0 5 8 12 18 14 9 3 19 5 21 6 2 0
1 -2 -2 -6z m-811 -15 c4 -7 4 -10 -1 -6 -4 4 -17 2 -29 -4 -19 -10 -20 -10
-7 5 16 20 27 21 37 5z m199 2 c3 -5 2 -10 -4 -10 -5 0 -13 5 -16 10 -3 6 -2
10 4 10 5 0 13 -4 16 -10z m405 0 c0 -5 -4 -10 -9 -10 -6 0 -13 5 -16 10 -3 6
1 10 9 10 9 0 16 -4 16 -10z m395 0 c3 -5 2 -10 -4 -10 -5 0 -13 5 -16 10 -3
6 -2 10 4 10 5 0 13 -4 16 -10z m-1751 -41 c-3 -6 -7 -9 -8 -7 -1 2 -8 12 -16
22 -14 18 -14 19 8 7 12 -7 20 -17 16 -22z m1683 9 c-3 -8 -6 -5 -6 6 -1 11 2
17 5 13 3 -3 4 -12 1 -19z m-1597 8 c0 -3 -4 -8 -10 -11 -5 -3 -10 -1 -10 4 0
6 5 11 10 11 6 0 10 -2 10 -4z m120 -11 c11 -13 10 -14 -4 -9 -9 3 -16 10 -16
15 0 13 6 11 20 -6z m80 5 c0 -5 -4 -10 -10 -10 -5 0 -10 5 -10 10 0 6 5 10
10 10 6 0 10 -4 10 -10z m115 0 c3 -5 1 -10 -4 -10 -6 0 -11 5 -11 10 0 6 2
10 4 10 3 0 8 -4 11 -10z m208 -4 c4 -10 1 -13 -9 -9 -7 3 -14 9 -14 14 0 14
17 10 23 -5z m82 4 c-3 -5 -10 -10 -16 -10 -5 0 -9 5 -9 10 0 6 7 10 16 10 8
0 12 -4 9 -10z m315 0 c0 -5 -4 -10 -9 -10 -6 0 -13 5 -16 10 -3 6 1 10 9 10
9 0 16 -4 16 -10z m85 0 c-3 -5 -11 -10 -16 -10 -6 0 -7 5 -4 10 3 6 11 10 16
10 6 0 7 -4 4 -10z m195 0 c0 -5 -5 -10 -11 -10 -5 0 -7 5 -4 10 3 6 8 10 11
10 2 0 4 -4 4 -10z m120 0 c0 -5 -4 -10 -9 -10 -6 0 -13 5 -16 10 -3 6 1 10 9
10 9 0 16 -4 16 -10z m88 -2 c8 -10 5 -13 -13 -13 -14 0 -21 5 -18 13 3 6 9
12 13 12 4 0 12 -6 18 -12z m312 2 c0 -5 -4 -10 -10 -10 -5 0 -10 5 -10 10 0
6 5 10 10 10 6 0 10 -4 10 -10z m-1155 -20 c-3 -5 -12 -10 -18 -10 -7 0 -6 4
3 10 19 12 23 12 15 0z m390 -8 c-3 -3 -11 0 -18 7 -9 10 -8 11 6 5 10 -3 15
-9 12 -12z m615 13 c0 -2 -10 -9 -22 -15 -22 -11 -22 -10 -4 4 21 17 26 19 26
11z m-1605 -15 c3 -6 -1 -7 -9 -4 -18 7 -21 14 -7 14 6 0 13 -4 16 -10z m895
0 c0 -5 -5 -10 -11 -10 -5 0 -7 5 -4 10 3 6 8 10 11 10 2 0 4 -4 4 -10z m195
0 c3 -5 1 -10 -4 -10 -6 0 -11 5 -11 10 0 6 2 10 4 10 3 0 8 -4 11 -10z m400
0 c3 -5 1 -10 -4 -10 -6 0 -11 5 -11 10 0 6 2 10 4 10 3 0 8 -4 11 -10z
m-1208 -47 c-3 -10 -5 -2 -5 17 0 19 2 27 5 18 2 -10 2 -26 0 -35z m60 5 c-3
-7 -5 -2 -5 12 0 14 2 19 5 13 2 -7 2 -19 0 -25z m111 18 c-2 -1 -10 -7 -18
-13 -13 -10 -16 -8 -16 6 0 13 6 17 19 13 10 -2 16 -5 15 -6z m298 -6 c0 -24
-3 -24 -22 -6 -11 11 -11 16 -1 19 21 9 23 8 23 -13z m91 12 c9 -6 8 -11 -5
-19 -15 -9 -18 -7 -18 8 0 21 5 23 23 11z m309 -11 c0 -15 -3 -17 -18 -8 -13
8 -14 13 -5 19 18 12 23 10 23 -11z m102 5 c-2 -1 -11 -7 -20 -14 -14 -11 -16
-10 -11 7 3 12 11 17 19 14 8 -3 14 -6 12 -7z m298 -5 c0 -15 -3 -17 -18 -7
-17 10 -17 11 0 18 9 3 17 7 17 7 1 1 1 -7 1 -18z m97 0 c-4 -3 -11 -10 -15
-15 -5 -5 -8 0 -8 12 0 15 4 20 16 15 9 -3 12 -9 7 -12z m-1593 -1 c0 -5 -5
-10 -11 -10 -5 0 -7 5 -4 10 3 6 8 10 11 10 2 0 4 -4 4 -10z m-162 -21 c-20
-13 -28 -11 -22 5 3 8 12 12 21 9 12 -5 12 -7 1 -14z m697 12 c3 -5 1 -12 -5
-16 -5 -3 -10 1 -10 9 0 18 6 21 15 7z m-500 -11 c3 -5 2 -10 -4 -10 -5 0 -13
5 -16 10 -3 6 -2 10 4 10 5 0 13 -4 16 -10z m105 6 c0 -2 -9 -6 -20 -9 -11 -3
-18 -1 -14 4 5 9 34 13 34 5z m1100 -6 c0 -5 -2 -10 -4 -10 -3 0 -8 5 -11 10
-3 6 -1 10 4 10 6 0 11 -4 11 -10z m210 6 c0 -2 -7 -7 -16 -10 -8 -3 -12 -2
-9 4 6 10 25 14 25 6z m190 -6 c0 -5 -2 -10 -4 -10 -3 0 -8 5 -11 10 -3 6 -1
10 4 10 6 0 11 -4 11 -10z"/>
</g>
</svg>
