<?xml version="1.0" standalone="no"?>
<!DOCTYPE svg PUBLIC "-//W3C//DTD SVG 20010904//EN"
 "http://www.w3.org/TR/2001/REC-SVG-20010904/DTD/svg10.dtd">
<svg version="1.0" xmlns="http://www.w3.org/2000/svg"
 width="200.000000pt" height="200.000000pt" viewBox="0 0 200.000000 200.000000"
 preserveAspectRatio="xMidYMid meet">
<metadata>
Created by potrace 1.16, written by Peter Selinger 2001-2019
</metadata>
<g transform="translate(0.000000,200.000000) scale(0.100000,-0.100000)"
fill="#000000" stroke="none">
<path d="M2 1917 c0 -45 2 -76 5 -69 8 20 22 14 16 -8 -3 -11 -9 -17 -14 -14
-6 3 -9 -27 -8 -70 1 -42 5 -73 10 -70 5 3 7 9 4 14 -9 15 34 -2 47 -19 10
-13 10 -14 -2 -3 -22 19 -43 15 -37 -8 6 -22 -8 -28 -16 -7 -3 6 -6 -14 -6
-46 -1 -32 3 -56 8 -53 5 3 11 -4 14 -15 4 -15 2 -19 -8 -15 -12 4 -14 -29
-15 -190 0 -154 3 -194 12 -188 10 6 11 4 1 -7 -7 -7 -13 -37 -13 -67 0 -46 2
-53 14 -43 12 10 13 8 9 -8 -4 -15 -1 -21 11 -21 23 0 20 -17 -4 -23 -11 -3
-18 -2 -16 2 3 4 1 13 -5 21 -6 10 -9 -13 -9 -65 0 -51 5 -86 13 -94 10 -11
10 -13 0 -7 -9 5 -13 -3 -13 -28 0 -29 3 -34 18 -30 16 5 16 5 0 -8 -14 -12
-17 -37 -17 -166 -1 -120 1 -150 12 -146 8 3 13 -3 13 -16 0 -13 -5 -19 -13
-16 -10 4 -13 -9 -12 -52 0 -31 3 -51 6 -44 8 20 22 14 16 -8 -4 -14 0 -20 10
-20 9 0 18 -4 21 -9 4 -5 -3 -7 -14 -4 -16 4 -20 0 -20 -18 0 -19 -2 -21 -10
-9 -7 10 -10 -31 -10 -126 l0 -141 117 -1 c78 -1 122 3 132 11 12 9 13 9 7 -1
-5 -8 1 -12 23 -12 36 0 50 18 27 35 -15 12 -15 13 3 18 11 3 20 2 19 -2 -3
-23 4 -33 20 -27 16 6 16 5 -1 -8 -15 -12 9 -14 178 -15 182 -1 196 1 193 17
-2 9 -10 16 -16 14 -21 -4 -13 15 8 21 11 3 18 1 15 -3 -3 -5 2 -15 10 -23 11
-12 12 -16 2 -20 -6 -2 22 -4 63 -4 41 0 67 2 58 4 -10 3 -18 8 -18 13 0 5 7
7 15 4 10 -4 15 0 15 14 0 16 5 19 21 15 18 -5 19 -7 5 -15 -9 -5 -16 -15 -16
-23 0 -11 25 -14 120 -14 116 -1 120 0 120 20 0 16 -4 20 -17 14 -15 -5 -14
-3 2 13 20 19 20 19 26 -2 3 -12 11 -20 17 -18 19 4 14 -16 -5 -21 -10 -3 15
-5 55 -5 63 1 70 2 55 14 -17 13 -17 14 0 8 13 -5 17 -1 17 15 0 14 5 19 16
14 11 -4 12 -9 5 -16 -30 -30 -11 -36 110 -36 107 0 120 2 117 17 -3 9 -11 16
-19 14 -9 -1 -7 3 6 13 18 14 20 14 27 -5 4 -11 13 -20 20 -21 7 0 4 -4 -7 -9
-13 -6 4 -9 55 -8 41 1 69 3 62 5 -9 4 -6 11 9 24 24 21 39 24 39 9 0 -6 -6
-9 -12 -8 -7 2 -13 -4 -13 -12 0 -13 25 -15 157 -17 l158 -2 0 74 c0 60 -3 73
-14 69 -11 -4 -13 0 -9 15 3 11 9 18 14 15 5 -3 9 21 8 53 0 32 -3 52 -6 46
-8 -21 -22 -15 -16 7 3 11 9 17 14 14 5 -3 9 2 9 11 0 9 -4 14 -9 11 -5 -3
-11 3 -14 14 -6 22 8 28 16 8 3 -7 6 13 6 44 1 46 -2 56 -13 52 -11 -4 -13 0
-9 15 3 11 9 18 14 15 5 -3 9 61 8 150 0 129 -3 156 -15 156 -8 0 -14 5 -14
11 0 6 7 9 15 5 12 -4 15 3 15 30 0 25 -4 33 -12 28 -7 -4 -10 -4 -6 1 4 4 2
15 -5 24 -11 14 -10 14 6 2 16 -12 17 -9 17 43 0 43 -3 55 -12 50 -9 -6 -9 -3
0 9 8 9 12 24 9 34 -4 15 -5 14 -6 -4 -1 -16 -6 -20 -21 -16 -23 6 -27 23 -5
23 8 0 15 7 15 16 0 8 5 12 10 9 6 -4 10 15 10 50 0 31 -4 54 -8 51 -5 -3 -9
1 -9 9 0 8 4 12 9 9 4 -3 8 11 8 30 0 27 -3 34 -15 30 -8 -4 -15 -1 -15 5 0 6
7 11 15 11 13 0 15 17 13 118 -3 99 -5 117 -19 116 -9 -1 -16 5 -16 12 0 9 5
10 19 3 16 -9 18 -6 18 25 0 29 -3 34 -17 29 -11 -4 -14 -3 -9 6 4 6 2 19 -6
28 -12 15 -11 15 10 4 22 -12 22 -11 21 46 0 32 -3 52 -6 46 -8 -21 -22 -15
-16 7 3 11 9 17 14 14 5 -3 9 2 9 11 0 9 -4 14 -9 11 -5 -3 -11 3 -14 14 -6
22 8 28 16 8 3 -7 6 13 6 45 1 32 -3 56 -8 53 -5 -3 -11 3 -14 14 -6 22 8 28
16 8 3 -7 6 23 6 68 l1 81 -117 1 c-78 1 -122 -3 -132 -11 -12 -10 -13 -9 -7
1 6 10 0 13 -25 10 -22 -2 -34 -8 -34 -18 0 -8 6 -14 13 -12 20 4 14 -15 -8
-21 -10 -3 -19 -2 -18 2 3 23 -4 33 -19 27 -17 -6 -17 -5 0 8 16 12 10 14 -54
14 -39 0 -67 -3 -62 -7 6 -4 5 -14 -2 -28 -8 -15 -15 -19 -26 -12 -10 6 -10 9
-1 9 6 0 12 9 12 19 0 18 -8 20 -114 20 -118 1 -148 -8 -111 -36 27 -19 4 -16
-24 3 -17 12 -20 19 -11 24 7 4 -20 8 -59 8 -65 0 -70 -2 -54 -15 10 -8 12
-12 5 -8 -7 4 -15 -2 -20 -15 -7 -19 -9 -19 -27 -5 -13 10 -15 14 -6 13 8 -2
17 5 19 15 3 15 -7 17 -117 17 -93 0 -121 -3 -121 -13 0 -7 5 -18 11 -24 7 -7
6 -12 -4 -16 -10 -4 -17 2 -20 15 -3 11 -10 17 -16 13 -6 -3 -11 -2 -11 4 0 5
8 11 18 14 9 2 -17 4 -58 4 -41 0 -69 -2 -63 -4 10 -4 9 -8 -2 -20 -8 -8 -13
-18 -10 -23 3 -4 -4 -6 -15 -3 -21 6 -28 25 -7 21 6 -2 12 4 12 12 0 10 -12
16 -34 18 -25 3 -31 0 -25 -10 6 -10 5 -11 -7 -1 -10 8 -64 11 -169 11 -85 -1
-149 -3 -143 -5 10 -4 9 -8 -2 -20 -8 -8 -13 -18 -10 -23 3 -4 -4 -6 -15 -3
-19 5 -19 6 -4 18 38 27 5 35 -150 34 l-154 -1 0 -81z m80 54 c15 -18 15 -20
1 -25 -9 -4 -18 -4 -21 -1 -3 3 1 5 9 5 9 1 6 8 -10 20 -14 12 -18 20 -9 20 7
0 21 -9 30 -19z m400 0 c13 -15 14 -21 3 -25 -7 -2 -15 4 -18 16 -3 11 -10 17
-16 13 -6 -3 -11 -1 -11 4 0 18 24 13 42 -8z m1463 6 c-11 -9 -15 -19 -10 -27
6 -10 4 -12 -9 -7 -10 4 -19 7 -22 7 -2 0 4 9 13 20 10 11 24 20 32 20 11 0
10 -3 -4 -13z m-1535 -21 c0 -11 -19 -15 -25 -6 -3 5 1 10 9 10 9 0 16 -2 16
-4z m397 -2 c-3 -3 -12 -4 -19 -1 -8 3 -5 6 6 6 11 1 17 -2 13 -5z m803 -4 c0
-5 -2 -10 -4 -10 -3 0 -8 5 -11 10 -3 6 -1 10 4 10 6 0 11 -4 11 -10z m-1573
-34 c0 -8 -6 -12 -15 -9 -11 5 -11 7 0 14 7 5 13 9 14 9 0 0 1 -6 1 -14z m400
0 c0 -8 -6 -12 -15 -9 -11 5 -11 7 0 14 7 5 13 9 14 9 0 0 1 -6 1 -14z m400
-3 c0 -9 -6 -9 -20 -2 -13 8 -22 8 -30 0 -6 -6 -16 -11 -21 -11 -6 0 -3 7 7
14 21 17 64 16 64 -1z m395 -1 c7 -7 8 -12 2 -12 -5 0 -15 5 -21 11 -8 8 -17
8 -30 0 -15 -7 -20 -7 -20 3 0 16 53 14 69 -2z m376 13 c-2 -1 -12 -7 -24 -13
-15 -8 -21 -8 -21 1 0 7 11 13 24 13 14 1 23 1 21 -1z m382 -10 c0 -2 -6 -5
-13 -8 -8 -3 -14 1 -14 8 0 7 6 11 14 8 7 -3 13 -6 13 -8z m-1783 -7 c7 20 22
14 16 -7 -3 -12 -11 -17 -20 -14 -8 3 -19 0 -23 -7 -5 -7 -7 -2 -7 14 0 23 2
25 15 14 12 -10 16 -10 19 0z m419 -8 c0 -13 -5 -19 -14 -15 -7 3 -16 5 -20 5
-3 0 3 7 14 15 10 8 19 15 19 15 1 0 1 -9 1 -20z m387 8 c10 8 13 6 13 -7 0
-12 -8 -18 -26 -18 -18 0 -26 6 -26 18 0 13 3 15 13 7 9 -7 17 -7 26 0z m400
0 c10 8 13 6 13 -7 0 -12 -8 -18 -26 -18 -18 0 -26 6 -26 18 0 13 3 15 13 7 9
-7 17 -7 26 0z m222 2 c3 -5 1 -10 -4 -10 -6 0 -11 5 -11 10 0 6 2 10 4 10 3
0 8 -4 11 -10z m158 -2 c3 -10 7 -10 20 0 14 12 16 11 14 -5 -1 -26 -53 -27
-53 -1 0 20 12 24 19 6z m-903 -34 c0 -2 -9 0 -20 6 -11 6 -20 13 -20 16 0 2
9 0 20 -6 11 -6 20 -13 20 -16z m254 13 c-3 -8 -12 -14 -21 -14 -13 0 -13 2 3
14 10 7 19 13 21 13 1 0 0 -6 -3 -13z m136 -2 c0 -12 -19 -12 -23 0 -4 9 -1
12 9 8 7 -3 14 -7 14 -8z m270 10 c0 -2 -10 -9 -22 -15 -22 -11 -22 -10 -4 4
21 17 26 19 26 11z m400 0 c0 -2 -10 -9 -22 -15 -22 -11 -22 -10 -4 4 21 17
26 19 26 11z m-1865 -15 c3 -6 -1 -7 -9 -4 -18 7 -21 14 -7 14 6 0 13 -4 16
-10z m48 -25 c-3 -9 -8 -14 -10 -11 -3 3 -2 9 2 15 9 16 15 13 8 -4z m157 9
c0 -1 -22 -16 -50 -33 -27 -17 -50 -27 -50 -23 0 5 16 16 36 25 19 10 33 21
30 25 -2 4 4 8 15 8 10 0 19 -1 19 -2z m1057 -8 c0 -8 -6 -12 -15 -9 -11 5
-11 7 0 14 7 5 13 9 14 9 0 0 1 -6 1 -14z m-940 -8 c7 18 19 14 19 -6 0 -26
-52 -25 -53 1 -2 16 0 17 14 5 13 -10 17 -10 20 0z m263 1 c-25 -17 -76 -42
-68 -34 13 14 62 44 73 44 6 0 3 -4 -5 -10z m143 -1 c10 8 13 6 13 -7 0 -13
-8 -18 -26 -17 -17 1 -26 7 -26 18 0 13 4 14 13 6 9 -7 17 -7 26 0z m138 -5
c12 -16 12 -17 -2 -6 -9 7 -19 10 -22 6 -4 -3 -7 -1 -7 5 0 17 16 15 31 -5z
m129 5 c0 -6 -3 -8 -7 -5 -3 4 -13 1 -22 -6 -14 -11 -14 -10 -2 6 15 20 31 22
31 5z m133 0 c10 8 13 6 13 -7 0 -12 -8 -18 -26 -18 -18 0 -26 6 -26 18 0 13
3 15 13 7 9 -7 17 -7 26 0z m400 -2 c7 5 4 1 -6 -8 -25 -23 -33 -23 -33 1 0
15 3 17 13 9 8 -6 18 -7 26 -2z m138 -3 c13 -17 13 -17 -6 -3 -11 8 -22 16
-24 17 -2 2 0 3 6 3 6 0 17 -8 24 -17z m-357 -19 c9 -3 16 -11 16 -16 0 -6 -6
-5 -15 2 -8 6 -20 8 -26 4 -8 -4 -9 -3 -5 4 8 14 9 14 30 6z m400 0 c18 -7 22
-44 5 -44 -5 0 -7 5 -3 12 4 6 -1 17 -11 25 -20 14 -16 17 9 7z m-1668 -41
c-1 -12 6 -17 19 -16 20 1 20 1 1 -13 -25 -18 -37 -18 -30 1 4 10 0 15 -12 15
-17 0 -16 1 2 15 10 8 20 15 20 15 1 0 1 -8 0 -17z m171 -9 c-1 -1 -16 -9 -33
-17 -24 -12 -31 -13 -31 -3 0 7 7 13 16 12 9 -1 15 6 15 16 -1 14 2 15 17 5
10 -6 17 -12 16 -13z m223 6 c-24 -15 -36 -11 -14 4 10 8 21 12 24 10 2 -3 -2
-9 -10 -14z m165 6 c12 -12 12 -15 1 -19 -8 -3 -16 2 -19 14 -6 23 -1 24 18 5z
m257 -27 c5 -3 3 -9 -6 -12 -11 -5 -16 -1 -16 13 0 14 -5 18 -17 13 -15 -5
-14 -3 2 10 18 14 20 14 24 -1 2 -9 8 -20 13 -23z m138 31 c0 -5 6 -10 14 -10
8 0 17 -4 20 -9 4 -5 -3 -7 -14 -4 -16 4 -20 0 -20 -18 0 -19 -2 -21 -10 -9
-8 13 -13 13 -31 2 -13 -8 -18 -9 -14 -2 4 6 18 16 32 21 21 8 23 12 13 24 -9
10 -9 15 -1 15 6 0 11 -4 11 -10z m253 -10 c-4 -13 0 -20 10 -20 8 0 21 -7 28
-17 13 -15 12 -15 -9 -2 -20 12 -24 12 -33 -1 -9 -13 -10 -13 -8 0 3 31 -1 39
-18 33 -15 -5 -14 -3 2 10 27 22 34 21 28 -3z m161 5 c17 -13 18 -15 3 -15 -9
0 -17 -7 -17 -15 0 -9 -6 -12 -16 -8 -15 5 -15 7 0 15 14 8 15 13 5 24 -15 18
0 18 25 -1z m239 -5 c-4 -16 -9 -18 -24 -9 -10 5 -19 12 -19 15 0 3 4 3 9 -1
5 -3 12 -1 16 5 11 17 23 11 18 -10z m170 7 c4 3 7 1 7 -5 0 -7 -7 -12 -16
-12 -11 0 -15 -6 -11 -19 4 -17 2 -18 -13 -8 -17 10 -17 12 -3 22 10 8 13 17
8 26 -7 11 -6 12 7 2 8 -7 18 -10 21 -6z m-1346 -32 c0 -6 -9 -11 -19 -11 -10
0 -18 5 -18 11 0 6 8 11 18 11 10 0 19 -5 19 -11z m1210 1 c0 -8 -6 -12 -15
-9 -11 5 -11 7 0 14 7 5 13 9 14 9 0 0 1 -6 1 -14z m-1107 0 c0 -2 -7 -7 -16
-10 -8 -3 -12 -2 -9 4 6 10 25 14 25 6z m-375 -16 c3 -5 1 -10 -4 -10 -6 0
-11 5 -11 10 0 6 2 10 4 10 3 0 8 -4 11 -10z m1360 0 c-12 -19 -102 -60 -102
-46 0 7 7 13 16 12 10 -1 15 6 15 17 -2 14 1 15 12 6 10 -8 19 -7 36 5 26 19
32 20 23 6z m-1615 -4 c0 -3 -4 -8 -10 -11 -5 -3 -10 -1 -10 4 0 6 5 11 10 11
6 0 10 -2 10 -4z m358 -8 c8 -8 15 -8 27 2 13 11 14 10 9 -4 -4 -10 0 -18 10
-22 15 -6 15 -7 0 -19 -9 -6 -14 -17 -10 -23 4 -7 3 -12 -3 -12 -5 0 -11 6
-14 13 -4 10 -7 10 -18 0 -7 -7 -18 -13 -23 -13 -6 0 -4 5 4 10 13 9 13 12 -3
24 -16 12 -16 14 -2 20 9 3 13 2 10 -4 -9 -14 24 -25 37 -12 7 7 1 15 -21 26
-30 16 -39 26 -23 26 4 0 13 -5 20 -12z m430 3 c15 13 16 12 4 -2 -10 -14 -10
-18 4 -23 9 -3 19 -4 23 -1 4 2 8 -2 8 -9 0 -7 -7 -13 -16 -12 -10 1 -15 -6
-15 -17 2 -14 -1 -15 -11 -7 -10 9 -21 7 -42 -5 -26 -16 -27 -16 -8 0 19 15
19 17 2 29 -16 12 -16 14 -1 20 10 4 14 12 10 22 -5 14 -4 15 9 4 12 -10 18
-10 33 1z m400 0 c15 13 16 12 4 -2 -10 -14 -10 -18 4 -23 9 -3 21 -3 27 0 7
3 1 -3 -12 -14 -16 -13 -21 -24 -16 -33 8 -12 6 -12 -8 0 -14 11 -20 11 -32 1
-13 -11 -14 -10 -9 4 4 10 0 18 -10 22 -15 6 -15 7 0 19 11 8 14 17 9 26 -8
12 -6 12 8 0 14 -11 20 -11 35 0z m442 -28 c0 -1 -9 -7 -20 -13 -15 -8 -20 -8
-20 3 0 7 9 13 20 13 11 0 20 -1 20 -3z m310 -8 c0 -2 -6 -5 -13 -8 -8 -3 -14
1 -14 8 0 7 6 11 14 8 7 -3 13 -6 13 -8z m-344 -38 c5 -9 4 -9 -6 0 -9 8 -19
9 -31 3 -14 -8 -16 -6 -12 10 4 15 9 17 24 10 10 -6 21 -16 25 -23z m-1416 8
c11 -13 10 -14 -4 -9 -9 3 -16 10 -16 15 0 13 6 11 20 -6z m466 -20 c-3 -9 1
-18 9 -21 12 -5 12 -8 0 -20 -19 -19 -24 -18 -18 6 6 23 -15 27 -37 8 -12 -11
-12 -10 -2 3 6 9 9 18 6 22 -3 3 3 3 15 0 12 -3 21 -1 21 6 0 6 3 11 6 11 3 0
3 -7 0 -15z m258 -18 c-7 -4 -10 -15 -7 -25 6 -14 4 -15 -9 -5 -8 7 -18 10
-21 6 -4 -3 -7 -1 -7 5 0 7 7 12 15 12 8 0 15 9 15 20 0 17 2 19 14 8 12 -11
12 -14 0 -21z m164 -7 c13 0 13 -2 -4 -15 -25 -19 -40 -19 -24 0 10 12 9 16
-3 21 -13 5 -14 9 -4 19 10 11 13 9 15 -6 2 -10 11 -19 20 -19z m241 12 c-5
-2 -9 -13 -9 -24 0 -16 -3 -18 -13 -9 -8 6 -17 8 -20 4 -4 -3 -7 -1 -7 5 0 7
7 12 15 12 8 0 15 9 15 20 0 17 2 19 14 8 8 -7 10 -14 5 -16z m548 17 c-9 -6
-15 -13 -13 -17 3 -4 -4 -8 -15 -8 -19 0 -18 1 3 18 13 10 28 18 33 17 6 0 2
-4 -8 -10z m-1743 -12 c16 -12 16 -13 -3 -13 -11 0 -23 6 -25 13 -3 7 -2 13 2
13 5 0 16 -6 26 -13z m416 -11 c0 -2 -8 -3 -17 -2 -12 1 -17 -5 -15 -17 3 -16
1 -16 -18 -5 -16 10 -17 14 -5 16 8 2 15 10 15 18 0 12 4 12 20 4 11 -6 20
-12 20 -14z m938 -6 c13 0 13 -2 -4 -15 -25 -19 -40 -19 -24 0 10 12 9 16 -5
21 -13 5 -14 9 -3 15 8 6 14 3 16 -6 2 -8 11 -15 20 -15z m265 18 c-2 -5 -11
-8 -20 -8 -10 0 -14 -6 -10 -20 5 -21 -7 -28 -18 -10 -4 6 -12 8 -18 4 -7 -3
-3 2 8 11 11 9 19 19 18 23 -1 4 9 7 22 7 13 0 21 -3 18 -7z m-1503 -2 c0 -2
-7 -7 -16 -10 -8 -3 -12 -2 -9 4 6 10 25 14 25 6z m50 -32 c0 -3 -5 -2 -11 2
-6 3 -15 0 -20 -7 -6 -10 -9 -8 -9 9 0 20 3 21 20 12 11 -6 20 -13 20 -16z
m-189 -1 c12 -16 12 -17 -2 -6 -9 7 -19 10 -22 6 -4 -3 -7 -1 -7 5 0 17 16 15
31 -5z m1788 14 c-2 -1 -13 -9 -24 -17 -19 -14 -19 -14 -6 3 7 9 18 17 24 17
6 0 8 -1 6 -3z m-1669 -64 c0 -2 -9 1 -21 7 -11 7 -28 9 -36 6 -13 -5 -14 -4
-3 8 10 14 15 13 36 -1 13 -8 24 -17 24 -20z m401 24 c-6 -8 -7 -17 -3 -22 4
-4 -4 -2 -18 5 -34 17 -40 24 -13 16 12 -4 24 -2 28 4 3 5 9 10 12 10 3 0 0
-6 -6 -13z m744 -15 c-3 -3 -11 0 -18 7 -9 10 -8 11 6 5 10 -3 15 -9 12 -12z
m424 14 c-2 -2 -15 -9 -29 -15 -24 -11 -24 -11 -6 3 16 13 49 24 35 12z
m-1383 -28 c0 -20 -12 -24 -19 -5 -3 9 -7 9 -18 0 -12 -10 -15 -9 -15 5 0 11
9 17 26 18 19 1 26 -4 26 -18z m400 1 c0 -13 -3 -15 -13 -7 -9 7 -17 7 -26 0
-9 -8 -13 -7 -13 6 0 11 9 17 26 18 18 1 26 -4 26 -17z m400 -1 c0 -12 -4 -14
-12 -7 -8 7 -14 6 -19 -1 -10 -16 -21 -12 -21 8 0 14 7 19 26 18 17 -1 26 -7
26 -18z m397 5 c-3 -7 1 -13 8 -13 7 0 9 -3 6 -6 -4 -4 -13 -1 -21 5 -10 8
-16 9 -21 1 -10 -16 -21 -12 -21 8 0 12 8 17 27 17 17 0 25 -4 22 -12z m-1488
-13 c-3 -5 -11 -10 -16 -10 -6 0 -7 5 -4 10 3 6 11 10 16 10 6 0 7 -4 4 -10z
m145 -5 c0 -2 -6 -5 -13 -8 -8 -3 -14 1 -14 8 0 7 6 11 14 8 7 -3 13 -6 13 -8z
m250 6 c0 -5 -7 -12 -16 -15 -14 -5 -15 -4 -4 9 14 17 20 19 20 6z m150 -6 c0
-2 -6 -5 -13 -8 -8 -3 -14 1 -14 8 0 7 6 11 14 8 7 -3 13 -6 13 -8z m265 5
c-3 -5 -12 -10 -18 -10 -7 0 -6 4 3 10 19 12 23 12 15 0z m135 -5 c0 -2 -6 -5
-13 -8 -8 -3 -14 1 -14 8 0 7 6 11 14 8 7 -3 13 -6 13 -8z m267 -1 c0 -7 -6
-10 -14 -7 -7 3 -13 8 -13 12 0 4 6 8 13 8 8 0 14 -6 14 -13z m400 2 c0 -8 -6
-12 -15 -9 -11 5 -11 7 0 14 7 5 13 9 14 9 0 0 1 -6 1 -14z m144 -3 c13 -15
12 -15 -8 -4 -24 12 -29 21 -14 21 5 0 15 -7 22 -17z m-181 -8 c0 -2 -9 -9
-19 -15 -14 -7 -22 -7 -27 2 -4 6 -3 8 2 5 6 -3 16 -2 24 4 17 10 20 11 20 4z
m-1635 -23 c-3 -3 -11 0 -18 7 -9 10 -8 11 6 5 10 -3 15 -9 12 -12z m155 3
c-6 -8 -9 -19 -5 -25 3 -5 2 -10 -4 -10 -5 0 -11 6 -14 13 -3 9 -8 9 -21 -2
-9 -8 -19 -11 -22 -8 -3 3 11 15 33 26 46 24 49 25 33 6z m250 1 c-7 -7 -13
-7 -20 0 -6 6 -3 10 10 10 13 0 16 -4 10 -10z m410 9 c0 -2 -10 -9 -22 -15
-22 -11 -22 -10 -4 4 21 17 26 19 26 11z m393 -15 c-3 -12 -8 -19 -11 -16 -5
6 5 36 12 36 2 0 2 -9 -1 -20z m267 -4 c0 -10 -30 0 -34 11 -4 11 -1 11 14 3
11 -6 20 -12 20 -14z m-924 -8 c0 -20 -12 -24 -19 -5 -3 9 -7 9 -18 0 -12 -10
-15 -9 -15 5 0 11 9 17 26 18 19 1 26 -4 26 -18z m400 0 c0 -11 -4 -14 -10 -8
-5 5 -16 5 -25 0 -12 -6 -17 -4 -17 8 0 12 9 17 26 17 18 0 26 -5 26 -17z
m119 12 c3 -6 -1 -7 -9 -4 -18 7 -21 14 -7 14 6 0 13 -4 16 -10z m281 -12 c0
-11 -4 -14 -10 -8 -5 5 -16 5 -25 0 -13 -6 -17 -4 -17 9 0 13 8 18 26 17 17
-1 26 -7 26 -18z m398 13 c-2 -2 1 -10 7 -18 8 -9 8 -13 1 -13 -6 0 -14 5 -17
10 -4 6 -13 7 -23 1 -14 -7 -18 -5 -18 8 0 13 8 18 27 17 15 -1 25 -3 23 -5z
m121 -1 c3 -6 -1 -7 -9 -4 -18 7 -21 14 -7 14 6 0 13 -4 16 -10z m-1908 -24
c0 -8 -6 -12 -15 -9 -11 5 -11 7 0 14 7 5 13 9 14 9 0 0 1 -6 1 -14z m400 0
c0 -8 -6 -12 -15 -9 -11 5 -11 7 0 14 7 5 13 9 14 9 0 0 1 -6 1 -14z m395 2
c-13 -13 -74 -19 -66 -6 3 5 13 6 22 4 10 -3 24 -1 32 4 20 13 26 12 12 -2z
m381 -2 c8 3 17 2 20 -3 3 -5 -12 -8 -32 -8 -23 0 -38 4 -38 12 0 8 6 9 18 2
10 -5 24 -6 32 -3z m395 -11 c2 -2 -7 -2 -21 -1 -13 0 -24 6 -24 13 0 9 6 9
21 1 12 -6 22 -12 24 -13z m-1524 -42 c-8 -8 -12 -18 -9 -23 3 -4 -4 -6 -15
-3 -19 5 -19 6 -3 18 15 11 15 15 3 29 -12 16 -11 16 13 5 22 -10 24 -13 11
-26z m1456 22 c-10 -11 -10 -18 -1 -29 9 -11 9 -15 -1 -18 -7 -3 -18 5 -24 16
-8 17 -7 23 10 33 28 16 31 16 16 -2z m-1215 -4 c-3 -5 1 -16 10 -24 13 -13
13 -16 -2 -22 -10 -3 -14 -3 -10 1 9 9 -13 35 -24 28 -5 -3 -9 -1 -9 5 0 5 8
12 18 14 9 3 18 5 20 6 2 0 1 -3 -3 -8z m69 -12 c-31 -12 -39 -10 -19 5 11 8
24 12 29 8 5 -3 1 -9 -10 -13z m91 -5 c-8 -8 -13 -20 -11 -27 1 -7 1 -9 -1 -4
-3 4 -11 7 -19 7 -8 0 -14 5 -14 11 0 5 5 7 11 4 6 -4 13 2 16 13 3 12 11 18
19 15 11 -4 11 -7 -1 -19z m244 19 c-3 -21 2 -33 15 -33 8 0 17 -4 20 -8 3 -5
-5 -8 -17 -8 -12 1 -25 9 -29 19 -4 10 -12 15 -18 12 -5 -3 -10 -2 -10 4 0 5
8 12 18 14 9 3 18 5 20 6 1 0 1 -2 1 -6z m76 -3 c3 -5 1 -10 -4 -10 -6 0 -11
5 -11 10 0 6 2 10 4 10 3 0 8 -4 11 -10z m77 -20 c5 -34 0 -37 -28 -15 -13 11
-14 14 -4 13 9 -2 14 4 14 15 -3 30 13 19 18 -13z m263 -6 c7 2 16 -1 18 -8 8
-20 -37 -13 -45 7 -4 10 -12 15 -18 12 -5 -3 -10 -1 -10 5 0 7 7 10 15 6 8 -3
16 0 16 7 1 7 4 2 6 -11 3 -15 10 -22 18 -18z m151 14 c-9 -5 -16 -15 -16 -23
0 -9 -6 -12 -17 -8 -11 4 -12 8 -5 11 7 2 12 12 12 22 0 14 5 17 21 13 18 -5
19 -7 5 -15z m314 12 c0 -5 -5 -10 -11 -10 -5 0 -7 5 -4 10 3 6 8 10 11 10 2
0 4 -4 4 -10z m84 -15 c-10 -6 -14 -17 -10 -23 10 -16 -6 -15 -30 2 -19 14
-19 14 1 13 13 -1 20 4 19 14 -1 11 5 15 18 11 17 -4 17 -5 2 -17z m242 8 c0
-10 5 -17 12 -15 20 4 13 -15 -8 -21 -11 -3 -18 -2 -15 3 3 4 -2 13 -11 20
-12 11 -12 15 -2 21 20 13 26 11 24 -8z m-1026 -3 c0 -5 -2 -10 -4 -10 -3 0
-8 5 -11 10 -3 6 -1 10 4 10 6 0 11 -4 11 -10z m-710 -50 c21 13 33 12 24 -2
-4 -6 1 -17 11 -25 25 -18 5 -17 -21 2 -23 15 -34 11 -34 -13 0 -9 7 -13 20
-9 13 3 20 0 20 -8 0 -7 5 -15 12 -17 7 -3 5 -7 -6 -11 -9 -4 -15 -3 -11 2 8
15 -15 25 -28 12 -16 -16 -32 -13 -18 3 10 11 8 17 -6 25 -10 6 -12 11 -5 11
6 0 12 10 12 23 0 14 3 18 8 10 5 -8 13 -9 22 -3z m423 -3 c-3 -6 2 -16 11
-23 16 -11 16 -13 -4 -19 -18 -6 -19 -9 -8 -23 12 -15 11 -16 -4 -3 -15 11
-21 11 -33 1 -9 -7 -18 -10 -21 -7 -3 3 8 13 25 22 18 9 29 20 26 25 -10 15
-33 12 -37 -6 -3 -13 -5 -13 -23 0 l-20 15 20 -2 c12 -1 20 4 19 13 -1 10 9
15 27 16 17 1 26 -3 22 -9z m388 4 c15 7 17 6 13 -6 -4 -9 1 -18 12 -22 15 -6
15 -7 -6 -15 -19 -7 -21 -10 -9 -26 13 -15 12 -16 -4 -3 -14 11 -21 11 -29 3
-7 -7 -17 -12 -22 -12 -6 0 -2 7 8 15 11 8 15 15 10 15 -6 0 -19 6 -30 14 -19
14 -19 14 1 13 14 -1 20 4 18 17 -1 13 2 15 9 8 8 -8 17 -8 29 -1z m199 -5
c-7 -7 -13 -7 -20 0 -6 6 -3 10 10 10 13 0 16 -4 10 -10z m180 4 c0 -7 6 -7
19 -1 15 9 18 7 17 -7 -1 -11 6 -16 19 -15 18 1 18 0 -3 -15 -18 -14 -20 -20
-10 -30 6 -6 8 -12 2 -12 -5 0 -15 5 -22 12 -8 8 -15 8 -26 -1 -12 -10 -14 -9
-9 8 4 16 1 21 -13 21 -17 0 -17 1 1 13 10 8 15 19 11 25 -4 7 -2 12 3 12 6 0
11 -5 11 -10z m432 -4 c-3 -5 3 -15 12 -21 15 -12 15 -13 0 -19 -13 -5 -14 -9
-4 -21 15 -18 -1 -20 -18 -3 -8 8 -15 8 -26 -1 -12 -10 -14 -9 -9 8 4 16 1 21
-13 21 -17 0 -17 1 1 13 10 8 15 18 12 24 -4 6 5 10 22 9 16 -1 27 -5 23 -10z
m-1417 -56 c3 -5 1 -10 -4 -10 -6 0 -11 5 -11 10 0 6 2 10 4 10 3 0 8 -4 11
-10z m1205 0 c0 -5 -5 -10 -11 -10 -5 0 -7 5 -4 10 3 6 8 10 11 10 2 0 4 -4 4
-10z m-327 -29 c-3 -13 -10 -18 -21 -13 -10 4 -12 7 -4 10 7 2 12 10 12 18 0
9 4 13 9 10 5 -3 7 -15 4 -25z m-1207 4 c-3 -8 1 -18 9 -22 12 -7 10 -11 -8
-22 -20 -13 -21 -13 -8 3 13 15 12 18 -8 23 -20 5 -20 6 -4 19 23 17 26 17 19
-1z m276 0 c7 4 4 -1 -7 -10 -11 -9 -18 -23 -17 -33 3 -13 1 -14 -12 -3 -8 7
-19 10 -24 7 -5 -3 -9 1 -9 8 0 7 7 13 16 12 10 -1 15 6 15 17 -2 14 1 15 12
6 7 -6 19 -8 26 -4z m129 1 c-10 -11 -9 -16 3 -23 13 -7 12 -11 -7 -22 -20
-13 -21 -13 -8 2 11 14 11 18 -2 23 -9 3 -21 2 -28 -2 -8 -4 -9 -3 -5 4 4 7
14 12 22 12 8 0 14 5 14 10 0 6 5 10 11 10 8 0 8 -4 0 -14z m271 -1 c7 4 4 -1
-7 -10 -11 -9 -19 -24 -17 -33 2 -14 1 -14 -7 -3 -5 8 -15 11 -23 8 -8 -3 -15
1 -15 9 0 7 4 11 9 8 5 -3 16 -3 25 0 13 5 13 9 2 24 -13 15 -12 16 3 4 9 -8
23 -11 30 -7z m129 1 c-14 -17 2 -31 25 -22 9 3 12 1 9 -4 -3 -6 -13 -10 -21
-10 -8 0 -14 -4 -14 -10 0 -5 -5 -10 -11 -10 -8 0 -8 5 1 15 10 12 9 16 -3 21
-9 3 -21 2 -28 -2 -8 -4 -9 -3 -5 4 4 7 14 12 22 12 8 0 14 5 14 10 0 6 5 10
11 10 8 0 8 -4 0 -14z m249 4 c0 -5 6 -10 14 -10 8 0 17 -4 20 -8 3 -5 -5 -8
-17 -8 -16 1 -21 -4 -20 -19 1 -11 0 -14 -3 -7 -3 6 -12 12 -19 12 -8 0 -17 5
-21 12 -4 7 -3 8 5 4 7 -4 19 -5 28 -2 12 5 13 9 3 21 -9 10 -9 15 -1 15 6 0
11 -4 11 -10z m400 0 c0 -5 8 -11 18 -11 16 -1 16 -2 0 -6 -10 -2 -18 -13 -18
-24 0 -16 -2 -18 -14 -7 -9 8 -10 15 -3 19 5 4 7 14 4 23 -4 9 -2 16 3 16 6 0
10 -4 10 -10z m153 -10 c-4 -14 0 -20 10 -20 9 0 19 -4 22 -10 3 -5 0 -7 -8
-4 -8 3 -18 1 -22 -5 -3 -6 -11 -11 -18 -11 -8 0 -7 4 1 12 10 10 8 16 -10 30
-13 11 -16 16 -7 12 10 -3 20 -1 24 5 10 17 14 13 8 -9z m287 -15 c0 -2 -10
-1 -22 3 -18 4 -20 2 -16 -16 5 -18 3 -19 -13 -9 -15 9 -16 13 -4 20 8 4 11
15 8 24 -5 13 -3 13 20 -2 15 -9 27 -19 27 -20z m-655 -5 c-3 -5 -12 -10 -18
-10 -7 0 -6 4 3 10 19 12 23 12 15 0z m-510 -10 c3 -5 1 -10 -4 -10 -6 0 -11
5 -11 10 0 6 2 10 4 10 3 0 8 -4 11 -10z m400 -8 c-3 -3 -11 0 -18 7 -9 10 -8
11 6 5 10 -3 15 -9 12 -12z m-777 -27 c3 -3 2 -8 -1 -12 -4 -4 -13 -1 -19 5
-8 8 -15 8 -23 2 -8 -7 -16 -6 -23 3 -9 11 -4 13 25 10 19 -1 38 -5 41 -8z
m362 0 c-7 -9 -15 -13 -19 -10 -3 3 1 10 9 15 21 14 24 12 10 -5z m440 -7 c0
-6 -6 -5 -15 2 -8 7 -15 14 -15 16 0 2 7 1 15 -2 8 -4 15 -11 15 -16z m-1200
2 c0 -5 -4 -10 -10 -10 -5 0 -10 5 -10 10 0 6 5 10 10 10 6 0 10 -4 10 -10z
m173 -7 c9 3 17 -2 20 -14 6 -21 -9 -27 -16 -6 -3 9 -7 9 -19 -1 -13 -11 -15
-9 -15 14 0 16 2 21 7 14 4 -7 15 -10 23 -7z m427 2 c-6 -8 -8 -20 -4 -27 6
-10 3 -9 -9 1 -14 11 -20 11 -32 1 -8 -7 -15 -8 -15 -3 0 5 15 17 33 26 41 20
42 20 27 2z m200 5 c0 -5 -2 -10 -4 -10 -3 0 -8 5 -11 10 -3 6 -1 10 4 10 6 0
11 -4 11 -10z m155 0 c4 -6 16 -8 27 -4 14 4 18 3 13 -6 -4 -6 1 -18 11 -27
14 -11 11 -10 -10 2 -20 12 -31 14 -39 6 -6 -6 -16 -11 -21 -11 -6 0 -3 5 7
11 18 10 18 11 0 25 -10 7 -13 14 -6 14 6 0 15 -5 18 -10z m205 6 c0 -3 -4 -8
-10 -11 -5 -3 -10 -1 -10 4 0 6 5 11 10 11 6 0 10 -2 10 -4z m195 -6 c4 -6 14
-8 24 -5 12 3 17 -1 18 -16 2 -17 -1 -18 -13 -9 -11 10 -18 10 -31 -1 -15 -11
-16 -11 -6 1 10 11 9 16 -5 26 -9 8 -12 14 -5 14 6 0 15 -5 18 -10z m205 0 c0
-5 -4 -10 -10 -10 -5 0 -10 5 -10 10 0 6 5 10 10 10 6 0 10 -4 10 -10z m40 0
c0 -5 -2 -10 -4 -10 -3 0 -8 5 -11 10 -3 6 -1 10 4 10 6 0 11 -4 11 -10z m194
-9 c-2 -2 1 -10 7 -18 14 -16 -2 -18 -19 -1 -8 8 -15 8 -26 -1 -12 -10 -14 -9
-10 6 3 11 14 18 29 18 13 0 21 -2 19 -4z m126 -16 c-14 -17 -30 -20 -30 -6 0
5 8 12 18 14 9 3 19 5 21 6 2 0 -2 -6 -9 -14z m-1875 -5 c3 -5 1 -10 -4 -10
-6 0 -11 5 -11 10 0 6 2 10 4 10 3 0 8 -4 11 -10z m260 0 c-3 -5 -11 -10 -16
-10 -6 0 -7 5 -4 10 3 6 11 10 16 10 6 0 7 -4 4 -10z m145 0 c0 -5 -4 -10 -10
-10 -5 0 -10 5 -10 10 0 6 5 10 10 10 6 0 10 -4 10 -10z m260 5 c0 -2 -10 -10
-22 -16 -21 -11 -22 -11 -9 4 13 16 31 23 31 12z m140 -4 c0 -5 -7 -11 -14
-14 -10 -4 -13 -1 -9 9 6 15 23 19 23 5z m260 -1 c0 -5 -4 -10 -10 -10 -5 0
-10 5 -10 10 0 6 5 10 10 10 6 0 10 -4 10 -10z m140 0 c0 -5 -2 -10 -4 -10 -3
0 -8 5 -11 10 -3 6 -1 10 4 10 6 0 11 -4 11 -10z m263 -4 c4 -10 1 -13 -9 -9
-7 3 -14 9 -14 14 0 14 17 10 23 -5z m197 -27 c0 -14 -16 -11 -29 5 -10 12 -8
13 8 9 12 -3 21 -9 21 -14z m-1455 1 c-3 -5 -10 -10 -16 -10 -5 0 -9 5 -9 10
0 6 7 10 16 10 8 0 12 -4 9 -10z m399 -2 c-3 -4 -9 -8 -15 -8 -5 0 -9 4 -9 8
0 5 7 9 15 9 8 0 12 -4 9 -9z m138 -5 c-6 -3 -9 -10 -6 -15 4 -7 2 -8 -5 -4
-6 4 -17 3 -24 -3 -9 -7 -13 -5 -13 10 0 13 5 17 17 14 10 -3 20 -1 24 5 4 6
10 8 14 4 3 -4 0 -9 -7 -11z m263 7 c-3 -5 -12 -10 -18 -10 -7 0 -6 4 3 10 19
12 23 12 15 0z m138 0 c20 10 20 10 4 -3 -16 -14 -16 -15 -1 -21 9 -4 14 -9
11 -13 -4 -3 -13 0 -22 7 -12 10 -18 10 -32 -1 -15 -11 -16 -11 -6 1 10 11 9
16 -5 27 -15 13 -15 13 6 3 16 -8 28 -8 45 0z m117 0 c0 -5 -4 -10 -10 -10 -5
0 -10 5 -10 10 0 6 5 10 10 10 6 0 10 -4 10 -10z m150 6 c0 -3 -4 -8 -10 -11
-5 -3 -10 -1 -10 4 0 6 5 11 10 11 6 0 10 -2 10 -4z m126 -5 c10 8 14 8 14 0
0 -6 -6 -11 -12 -12 -10 0 -10 -2 0 -6 6 -2 12 -9 12 -15 0 -6 -6 -5 -15 2
-12 10 -19 10 -27 2 -7 -7 -17 -12 -22 -12 -6 0 -5 4 3 9 13 8 13 12 0 27 -13
16 -12 16 9 5 18 -10 27 -10 38 0z m274 5 c0 -3 -4 -8 -10 -11 -5 -3 -10 -1
-10 4 0 6 5 11 10 11 6 0 10 -2 10 -4z m-1473 -13 c-4 -3 -1 -13 6 -22 11 -14
10 -14 -5 -2 -15 11 -21 11 -33 1 -8 -7 -15 -8 -15 -3 0 6 10 15 23 21 26 13
33 14 24 5z m551 -13 c30 -19 34 -19 57 -4 14 9 25 14 25 10 0 -3 -11 -13 -25
-22 -23 -15 -26 -14 -67 10 -24 14 -38 26 -33 26 6 0 25 -9 43 -20z m-728 -5
c-7 -8 -18 -15 -24 -15 -6 0 -2 7 8 15 25 19 32 19 16 0z m-215 -5 c3 -5 1
-10 -4 -10 -6 0 -11 5 -11 10 0 6 2 10 4 10 3 0 8 -4 11 -10z m155 0 c0 -5 -2
-10 -4 -10 -3 0 -8 5 -11 10 -3 6 -1 10 4 10 6 0 11 -4 11 -10z m408 -2 c8 -8
15 -8 27 2 8 7 15 8 15 2 0 -16 -30 -23 -51 -12 -10 6 -19 13 -19 15 0 9 16 5
28 -7z m827 2 c9 7 18 10 21 7 3 -3 -3 -10 -14 -16 -22 -12 -52 -5 -52 11 0 6
6 5 15 -2 12 -10 18 -10 30 0z m370 0 c3 -5 1 -10 -4 -10 -6 0 -11 5 -11 10 0
6 2 10 4 10 3 0 8 -4 11 -10z m55 5 c0 -2 -10 -10 -22 -16 -21 -11 -22 -11 -9
4 13 16 31 23 31 12z m-1713 -39 c-18 -14 -17 -14 2 -21 18 -5 19 -8 7 -21
-19 -18 -24 -18 -22 4 0 10 -6 16 -16 16 -25 -2 -22 3 10 20 34 19 43 20 19 2z
m78 -6 c3 -5 -1 -10 -10 -10 -9 0 -13 5 -10 10 3 6 8 10 10 10 2 0 7 -4 10
-10z m82 -12 c-10 -5 -14 -15 -10 -26 6 -14 4 -15 -9 -5 -8 7 -18 10 -21 6 -4
-3 -7 -1 -7 5 0 7 7 12 15 12 8 0 15 7 15 15 0 9 6 12 16 8 15 -5 15 -7 1 -15z
m318 12 c3 -5 -1 -10 -10 -10 -9 0 -13 5 -10 10 3 6 8 10 10 10 2 0 7 -4 10
-10z m87 -8 c-7 -2 -12 -12 -12 -22 0 -13 -5 -17 -20 -13 -11 3 -20 10 -20 15
0 6 7 8 15 4 13 -5 19 5 16 26 0 4 7 4 16 1 11 -4 13 -8 5 -11z m218 3 c0 -2
-6 -5 -13 -8 -8 -3 -14 1 -14 8 0 7 6 11 14 8 7 -3 13 -6 13 -8z m95 5 c3 -5
-1 -10 -10 -10 -9 0 -13 5 -10 10 3 6 8 10 10 10 2 0 7 -4 10 -10z m108 -2
c-2 -5 -11 -8 -19 -8 -8 0 -14 -9 -14 -19 0 -15 -5 -18 -21 -14 -21 6 -21 7
-3 20 10 8 18 17 17 21 -1 4 9 7 22 7 13 0 21 -3 18 -7z m192 -6 c-3 -3 -11 0
-18 7 -9 10 -8 11 6 5 10 -3 15 -9 12 -12z m105 8 c0 -5 -8 -10 -17 -10 -15 0
-16 2 -3 10 19 12 20 12 20 0z m103 -2 c-2 -5 -11 -8 -20 -8 -10 0 -14 -6 -10
-20 6 -23 -5 -26 -22 -6 -9 11 -8 15 4 20 9 3 14 9 12 13 -3 5 5 8 18 8 13 0
21 -3 18 -7z m210 -1 c-3 -5 4 -11 16 -14 12 -3 21 -10 21 -16 0 -6 -3 -7 -7
-4 -3 4 -13 1 -21 -6 -13 -10 -15 -9 -9 6 5 13 0 20 -18 27 -31 12 -31 15 -1
15 13 0 22 -4 19 -8z m92 3 c3 -6 -4 -10 -17 -10 -18 0 -20 2 -8 10 19 12 18
12 25 0z m79 -15 c-10 -6 -14 -17 -10 -23 9 -15 -4 -15 -24 -2 -13 9 -13 12 3
21 9 6 15 14 12 19 -3 4 4 6 15 3 19 -5 19 -6 4 -18z m-1369 3 c14 -6 25 -15
25 -20 0 -5 -4 -6 -10 -3 -5 3 -10 1 -10 -4 0 -6 -5 -11 -11 -11 -5 0 -7 5 -3
12 4 6 -1 17 -11 25 -23 16 -14 17 20 1z m415 -13 c4 3 14 -3 21 -13 13 -15
12 -16 -3 -4 -11 9 -18 10 -23 2 -11 -18 -23 -10 -17 12 3 12 7 17 10 10 2 -7
7 -10 12 -7z m420 -6 c0 -5 -4 -9 -9 -9 -5 0 -16 -3 -24 -6 -12 -4 -14 0 -10
14 3 14 11 18 24 15 10 -3 19 -9 19 -14z m-528 -21 c-16 -16 -15 -28 3 -28 8
0 15 -4 15 -10 0 -5 -7 -10 -15 -10 -18 0 -19 -11 -2 -29 10 -11 8 -11 -11 -1
-13 6 -30 9 -38 6 -8 -3 -13 -2 -10 3 3 5 -1 14 -9 21 -13 11 -9 16 27 36 49
26 57 29 40 12z m818 -38 c0 -3 -21 -16 -47 -29 -27 -12 -42 -17 -35 -10 16
17 15 29 -3 29 -8 0 -15 5 -15 10 0 6 7 10 15 10 18 0 19 12 3 29 -7 7 8 2 35
-10 26 -13 47 -26 47 -29z m-1440 36 c0 -3 -4 -8 -10 -11 -5 -3 -10 -1 -10 4
0 6 5 11 10 11 6 0 10 -2 10 -4z m204 -8 c-3 -4 6 -12 18 -19 l22 -12 -24 -9
c-18 -7 -21 -11 -11 -17 8 -5 2 -8 -17 -7 -17 1 -30 3 -30 6 1 20 -4 30 -12
25 -5 -3 -10 -2 -10 3 0 6 7 13 16 16 8 3 13 9 11 13 -3 5 5 8 18 8 13 0 21
-3 19 -7z m196 8 c0 -11 -19 -15 -25 -6 -3 5 1 10 9 10 9 0 16 -2 16 -4z m397
-2 c-3 -3 -12 -4 -19 -1 -8 3 -5 6 6 6 11 1 17 -2 13 -5z m211 -6 c-10 -6 -7
-10 10 -14 12 -4 22 -10 22 -14 0 -4 -10 -10 -22 -14 -17 -4 -20 -8 -10 -14 8
-6 3 -9 -17 -9 -20 0 -28 4 -24 14 3 7 -2 13 -11 13 -24 0 -19 17 7 24 16 4
19 8 9 14 -8 6 -2 9 18 9 20 0 26 -3 18 -9z m192 2 c0 -5 -7 -7 -15 -4 -8 4
-15 8 -15 10 0 2 7 4 15 4 8 0 15 -4 15 -10z m410 6 c0 -11 -19 -15 -25 -6 -3
5 1 10 9 10 9 0 16 -2 16 -4z m-1615 -66 c3 -5 1 -10 -4 -10 -6 0 -11 5 -11
10 0 6 2 10 4 10 3 0 8 -4 11 -10z m400 0 c3 -5 -1 -10 -10 -10 -9 0 -13 5
-10 10 3 6 8 10 10 10 2 0 7 -4 10 -10z m405 0 c0 -5 -8 -10 -17 -10 -15 0
-16 2 -3 10 19 12 20 12 20 0z m805 0 c3 -5 -1 -10 -10 -10 -9 0 -13 5 -10 10
3 6 8 10 10 10 2 0 7 -4 10 -10z m-398 -6 c-3 -3 -12 -4 -19 -1 -8 3 -5 6 6 6
11 1 17 -2 13 -5z m-1274 -17 c4 3 7 1 7 -5 0 -6 -10 -14 -21 -17 -17 -6 -19
-9 -8 -16 8 -5 10 -9 4 -9 -5 0 -16 4 -23 9 -11 6 -10 10 3 15 11 4 15 12 11
22 -5 13 -4 14 7 6 8 -7 17 -9 20 -5z m135 -4 c-2 -13 3 -17 17 -16 l20 2 -20
-15 c-18 -13 -20 -13 -23 0 -2 9 -10 16 -18 16 -20 0 -17 18 4 23 9 3 18 5 20
6 2 0 2 -7 0 -16z m247 -21 c-21 -10 -30 -11 -39 -2 -8 8 -6 9 7 4 13 -5 20
-1 24 15 4 17 8 19 20 9 12 -10 10 -14 -12 -26z m165 -2 c4 -3 1 -12 -8 -20
-14 -13 -15 -12 -9 4 5 13 2 19 -13 23 -11 3 -20 9 -20 14 0 5 7 6 15 3 9 -4
15 0 16 7 1 8 4 5 6 -6 3 -11 9 -22 13 -25z m244 34 c20 -8 21 -20 2 -27 -8
-3 -16 2 -19 14 -6 21 -5 22 17 13z m149 -14 c-4 -14 0 -20 10 -20 9 0 19 -4
22 -10 4 -6 -1 -7 -10 -3 -10 3 -21 0 -27 -8 -8 -11 -9 -10 -4 3 3 12 -2 22
-17 29 -21 12 -21 12 -2 20 31 12 34 11 28 -11z m256 6 c9 -10 8 -15 -3 -19
-8 -3 -16 2 -19 14 -6 22 6 25 22 5z m145 2 c-4 -6 1 -17 11 -25 16 -11 16
-13 3 -13 -9 0 -18 -3 -21 -7 -2 -5 -2 -2 -1 5 2 7 -3 15 -11 18 -8 4 -15 10
-15 16 0 5 5 6 10 3 6 -3 10 -1 10 4 0 6 5 11 11 11 5 0 7 -5 3 -12z m276 -8
c0 -4 -9 -10 -21 -13 -12 -3 -19 -9 -16 -14 3 -4 -5 -8 -18 -8 -13 0 -21 3
-18 8 2 4 11 7 19 7 8 0 14 9 14 19 0 14 5 18 20 14 11 -3 20 -9 20 -13z m124
8 c-4 -6 0 -17 10 -23 15 -12 15 -13 -4 -18 -11 -3 -17 -1 -14 4 3 5 -2 12
-11 15 -12 5 -13 9 -4 20 14 17 33 19 23 2z m-1674 -32 c0 -11 -19 -15 -25 -6
-3 5 1 10 9 10 9 0 16 -2 16 -4z m400 0 c0 -3 -4 -8 -10 -11 -5 -3 -10 -1 -10
4 0 6 5 11 10 11 6 0 10 -2 10 -4z m300 0 c0 -2 -7 -7 -16 -10 -8 -3 -12 -2
-9 4 6 10 25 14 25 6z m100 0 c0 -3 -4 -8 -10 -11 -5 -3 -10 -1 -10 4 0 6 5
11 10 11 6 0 10 -2 10 -4z m400 -6 c0 -5 -7 -7 -15 -4 -8 4 -15 8 -15 10 0 2
7 4 15 4 8 0 15 -4 15 -10z m419 -37 c9 -7 11 -13 6 -13 -18 0 -35 23 -34 45
1 19 1 19 6 0 3 -11 13 -25 22 -32z m-502 15 c-3 -8 -6 -5 -6 6 -1 11 2 17 5
13 3 -3 4 -12 1 -19z m-1093 -13 c-4 -8 -11 -12 -16 -9 -6 4 -5 10 3 15 19 12
19 11 13 -6z m386 5 c8 -5 11 -12 8 -16 -4 -3 -14 1 -23 10 -18 17 -9 21 15 6z
m218 -4 c-10 -7 -18 -17 -18 -22 0 -5 -12 -10 -27 -11 -19 -1 -22 1 -12 8 10
6 10 9 2 9 -7 0 -13 5 -13 11 0 8 4 8 15 -1 11 -9 19 -8 37 4 27 19 40 21 16
2z m193 -7 l24 -21 -29 17 c-20 12 -31 14 -39 6 -6 -6 -16 -11 -21 -11 -12 1
23 30 35 30 4 0 17 -9 30 -21z m395 6 c10 -8 14 -15 9 -15 -6 0 -16 5 -23 12
-8 8 -15 8 -27 -2 -9 -7 -15 -8 -15 -2 0 9 14 19 31 21 3 1 14 -6 25 -14z
m364 0 c0 -12 -19 -12 -23 0 -4 9 -1 12 9 8 7 -3 14 -7 14 -8z m-1760 1 c0 -3
-4 -8 -10 -11 -5 -3 -10 -1 -10 4 0 6 5 11 10 11 6 0 10 -2 10 -4z m150 -6 c0
-5 -5 -10 -11 -10 -5 0 -7 5 -4 10 3 6 8 10 11 10 2 0 4 -4 4 -10z m238 1 c15
12 16 12 5 -2 -7 -9 -11 -18 -9 -20 2 -2 -6 -5 -18 -5 -15 -1 -22 4 -23 18 -2
16 1 17 13 8 11 -10 18 -9 32 1z m162 -1 c0 -5 -5 -10 -11 -10 -5 0 -7 5 -4
10 3 6 8 10 11 10 2 0 4 -4 4 -10z m635 0 c10 9 15 9 15 1 0 -6 -5 -11 -12
-11 -6 0 -3 -7 8 -15 10 -8 14 -15 9 -15 -6 0 -16 5 -22 11 -8 8 -17 7 -34 -2
-22 -11 -23 -11 -11 4 8 9 10 22 6 29 -6 10 -3 9 9 -1 14 -11 20 -11 32 -1z
m400 0 c10 9 15 9 15 1 0 -6 -6 -11 -12 -12 -10 0 -10 -2 0 -6 6 -2 12 -9 12
-15 0 -6 -6 -6 -15 2 -12 10 -18 10 -30 0 -9 -7 -18 -10 -22 -6 -3 3 -1 6 6 6
9 0 11 8 8 21 -4 16 -3 18 9 8 11 -9 17 -9 29 1z m-671 -25 c-4 -8 -11 -12
-16 -9 -6 4 -5 10 3 15 19 12 19 11 13 -6z m-659 -5 c3 -5 -1 -10 -9 -10 -9 0
-16 5 -16 10 0 6 4 10 9 10 6 0 13 -4 16 -10z m400 0 c3 -5 -1 -10 -9 -10 -9
0 -16 5 -16 10 0 6 4 10 9 10 6 0 13 -4 16 -10z m400 0 c3 -5 -1 -10 -10 -10
-9 0 -13 5 -10 10 3 6 8 10 10 10 2 0 7 -4 10 -10z m255 0 c0 -5 -4 -10 -10
-10 -5 0 -10 5 -10 10 0 6 5 10 10 10 6 0 10 -4 10 -10z m144 2 c3 -5 -1 -9
-9 -9 -8 0 -12 4 -9 9 3 4 7 8 9 8 2 0 6 -4 9 -8z m256 0 c0 -5 -7 -9 -15 -9
-8 0 -12 4 -9 9 3 4 9 8 15 8 5 0 9 -4 9 -8z m145 -2 c3 -5 1 -10 -4 -10 -6 0
-11 5 -11 10 0 6 2 10 4 10 3 0 8 -4 11 -10z m-1005 -31 c0 -14 -17 -10 -23 5
-4 10 -1 13 9 9 7 -3 14 -9 14 -14z m-800 7 c0 -3 -4 -8 -10 -11 -5 -3 -10 -1
-10 4 0 6 5 11 10 11 6 0 10 -2 10 -4z m108 -8 c8 -8 15 -8 26 1 12 10 14 9 9
-8 -3 -12 -9 -18 -15 -15 -5 3 -15 0 -23 -6 -11 -9 -15 -9 -15 -1 0 6 5 11 12
11 6 0 3 7 -8 15 -10 8 -14 15 -8 15 5 0 15 -5 22 -12z m147 2 c3 -5 1 -10 -4
-10 -6 0 -11 5 -11 10 0 6 2 10 4 10 3 0 8 -4 11 -10z m145 6 c0 -3 -4 -8 -10
-11 -5 -3 -10 -1 -10 4 0 6 5 11 10 11 6 0 10 -2 10 -4z m108 -8 c8 -8 15 -8
28 3 13 10 16 10 10 1 -4 -7 -2 -20 5 -28 11 -13 9 -14 -15 -3 -23 11 -29 10
-38 -2 -8 -12 -9 -11 -5 2 3 9 0 22 -6 28 -6 6 -7 11 -1 11 6 0 15 -5 22 -12z
m147 2 c3 -5 1 -10 -4 -10 -6 0 -11 5 -11 10 0 6 2 10 4 10 3 0 8 -4 11 -10z
m274 -6 c5 3 11 0 14 -7 3 -9 -4 -14 -22 -14 -19 0 -27 5 -27 18 0 13 4 15 13
8 7 -6 16 -8 22 -5z m126 6 c3 -5 1 -10 -4 -10 -6 0 -11 5 -11 10 0 6 2 10 4
10 3 0 8 -4 11 -10z m145 0 c0 -5 -5 -10 -11 -10 -5 0 -7 5 -4 10 3 6 8 10 11
10 2 0 4 -4 4 -10z m134 -1 c11 9 14 6 14 -14 0 -20 -3 -23 -14 -14 -11 9 -18
8 -29 -1 -9 -7 -18 -10 -22 -7 -3 4 2 9 11 13 14 5 14 9 4 23 -12 14 -11 15 5
2 13 -10 20 -11 31 -2z m126 1 c0 -5 -4 -10 -10 -10 -5 0 -10 5 -10 10 0 6 5
10 10 10 6 0 10 -4 10 -10z m140 0 c0 -5 -5 -10 -11 -10 -5 0 -7 5 -4 10 3 6
8 10 11 10 2 0 4 -4 4 -10z m113 -2 c3 -10 7 -10 19 0 13 11 16 9 16 -14 0
-18 -3 -22 -9 -13 -7 11 -12 12 -29 2 -11 -7 -23 -13 -27 -13 -5 0 0 5 10 11
14 8 16 14 6 25 -7 9 -8 14 -1 14 6 0 12 -6 15 -12z m147 2 c0 -5 -4 -10 -10
-10 -5 0 -10 5 -10 10 0 6 5 10 10 10 6 0 10 -4 10 -10z m-1535 -30 c8 12 25
13 25 1 0 -19 -41 -18 -63 1 l-22 20 27 -16 c17 -10 29 -12 33 -6z m407 1 c10
6 18 6 18 1 0 -12 -30 -20 -47 -15 -7 3 -13 10 -13 16 0 8 3 8 12 -1 7 -7 17
-8 30 -1z m373 -1 c3 -5 1 -10 -4 -10 -6 0 -11 5 -11 10 0 6 2 10 4 10 3 0 8
-4 11 -10z m45 0 c0 -5 -5 -10 -11 -10 -5 0 -7 5 -4 10 3 6 8 10 11 10 2 0 4
-4 4 -10z m360 0 c0 -5 -4 -10 -10 -10 -5 0 -10 5 -10 10 0 6 5 10 10 10 6 0
10 -4 10 -10z m40 1 c0 -5 -7 -12 -16 -15 -14 -5 -15 -4 -4 9 14 17 20 19 20
6z m-1555 -32 c4 -6 14 -8 24 -5 11 4 10 2 -4 -10 -11 -8 -19 -22 -17 -30 3
-13 0 -13 -18 -2 -16 10 -17 14 -5 16 18 4 20 28 3 35 -10 4 -10 6 -1 6 6 1
15 -4 18 -10z m251 -4 c-3 -8 1 -18 9 -22 12 -7 11 -10 -4 -20 -15 -10 -18 -9
-17 5 1 11 -6 16 -19 15 -17 -1 -17 1 5 18 30 23 34 23 26 4z m158 -18 c-7 -4
-10 -15 -7 -24 5 -13 3 -13 -20 2 -32 21 -34 25 -7 18 15 -4 20 0 20 16 0 18
2 20 14 9 12 -11 12 -14 0 -21z m248 21 c-10 -10 -8 -16 10 -31 13 -10 17 -16
9 -12 -7 4 -17 1 -23 -6 -7 -11 -8 -9 -6 6 2 15 -3 20 -19 19 -12 0 -20 3 -17
8 3 4 12 8 20 8 8 0 14 5 14 10 0 6 5 10 12 10 9 0 9 -3 0 -12z m148 2 c0 -5
6 -10 14 -10 8 0 17 -4 20 -9 4 -5 -4 -7 -16 -3 -18 4 -20 2 -16 -16 4 -12 2
-22 -3 -22 -5 0 -9 5 -9 10 0 6 -6 10 -14 10 -8 0 -18 5 -22 12 -4 7 -3 8 5 4
7 -4 19 -5 28 -2 12 5 13 9 3 21 -9 10 -9 15 -1 15 6 0 11 -4 11 -10z m251 -4
c-10 -11 -8 -17 6 -25 10 -6 12 -11 6 -11 -7 0 -13 -7 -13 -16 0 -8 -5 -12
-10 -9 -8 5 -7 11 1 21 9 11 8 15 -4 20 -9 3 -21 2 -28 -2 -8 -4 -9 -3 -5 4 4
7 14 12 22 12 8 0 14 5 14 10 0 6 5 10 11 10 8 0 8 -4 0 -14z m149 3 c0 -6 8
-9 18 -7 11 3 19 0 19 -7 0 -7 -8 -10 -20 -7 -17 4 -19 1 -15 -16 4 -12 2 -22
-3 -22 -5 0 -9 5 -9 11 0 6 -8 8 -17 5 -12 -4 -11 0 5 12 18 14 20 20 10 30
-9 9 -9 12 0 12 7 0 12 -5 12 -11z m251 -2 c-6 -8 -8 -17 -4 -21 4 -4 0 -4 -9
-1 -14 5 -15 10 -5 21 16 17 33 18 18 1z m169 -7 l25 -19 -24 6 c-21 5 -23 3
-18 -16 4 -18 3 -20 -8 -11 -8 7 -20 9 -27 5 -7 -4 -3 2 10 12 18 15 20 21 10
31 -19 19 4 14 32 -8z m233 1 c-3 -12 -11 -17 -19 -14 -12 4 -11 8 3 19 10 7
19 14 20 14 0 0 -1 -9 -4 -19z m-1523 5 c0 -3 -4 -8 -10 -11 -5 -3 -10 -1 -10
4 0 6 5 11 10 11 6 0 10 -2 10 -4z m800 0 c0 -3 -4 -8 -10 -11 -5 -3 -10 -1
-10 4 0 6 5 11 10 11 6 0 10 -2 10 -4z m400 0 c0 -2 -7 -7 -16 -10 -8 -3 -12
-2 -9 4 6 10 25 14 25 6z m-45 -26 c-3 -5 -12 -10 -18 -10 -7 0 -6 4 3 10 19
12 23 12 15 0z m395 -2 c-8 -7 -21 -19 -27 -27 -11 -13 -13 -13 -13 1 0 8 10
20 23 26 30 14 34 14 17 0z m-430 -18 c0 -5 -5 -10 -11 -10 -5 0 -7 5 -4 10 3
6 8 10 11 10 2 0 4 -4 4 -10z m-1342 -12 c8 -8 15 -8 26 1 12 10 14 9 9 -8 -5
-19 -7 -19 -34 -5 -28 14 -37 24 -21 24 4 0 13 -5 20 -12z m426 1 c12 10 13 8
9 -8 -4 -16 -1 -21 13 -21 17 0 17 -1 -1 -13 -10 -8 -15 -18 -12 -24 4 -6 -5
-10 -22 -9 -18 1 -27 5 -24 13 3 7 -3 16 -12 19 -15 6 -14 9 6 20 13 7 18 13
12 14 -7 0 -13 5 -13 11 0 8 5 8 15 -1 12 -10 18 -10 29 -1z m402 2 c15 12 16
11 10 -9 -6 -17 -3 -22 10 -22 17 0 17 -1 -1 -13 -10 -8 -15 -19 -11 -25 9
-16 -22 -4 -51 18 l-22 17 22 11 c12 6 16 11 10 11 -7 1 -13 6 -13 12 0 8 5 8
15 -1 12 -10 18 -10 31 1z m396 -3 c17 17 33 15 18 -3 -10 -12 -9 -16 4 -21
15 -6 15 -7 0 -19 -9 -6 -15 -16 -12 -21 4 -5 -6 -9 -22 -10 -19 -1 -27 4 -26
15 1 10 -6 15 -19 14 -18 -1 -17 0 4 16 16 12 21 23 16 32 -7 12 -6 12 9 0 13
-11 20 -11 28 -3z m404 3 c13 11 15 10 12 -3 -1 -10 6 -24 17 -32 l20 -15 -20
2 c-12 1 -20 -4 -19 -13 1 -10 -9 -15 -27 -16 -17 -1 -26 3 -22 9 3 6 -2 16
-12 24 -18 12 -18 13 -1 13 14 0 17 5 13 21 -4 16 -3 18 9 8 11 -9 18 -8 30 2z
m-1406 -5 c0 -3 -4 -8 -10 -11 -5 -3 -10 -1 -10 4 0 6 5 11 10 11 6 0 10 -2
10 -4z m1117 -28 c-3 -8 -6 -5 -6 6 -1 11 2 17 5 13 3 -3 4 -12 1 -19z m-1336
-18 c6 0 24 7 42 16 l32 15 -24 -19 c-13 -11 -21 -24 -18 -29 4 -6 -6 -10 -22
-9 -16 1 -27 4 -25 8 2 3 -3 13 -11 21 -11 12 -12 16 -2 20 6 2 13 -2 15 -10
2 -7 8 -13 13 -13z m206 -22 c-3 -8 -6 -5 -6 6 -1 11 2 17 5 13 3 -3 4 -12 1
-19z m423 -4 c0 -2 -9 -4 -21 -4 -11 0 -18 4 -14 10 5 8 35 3 35 -6z m390 12
c0 -2 -7 -7 -16 -10 -8 -3 -12 -2 -9 4 6 10 25 14 25 6z m-850 -39 c0 -2 -9
-3 -20 -3 -10 0 -17 2 -15 5 3 2 -3 10 -13 18 -12 10 -8 9 16 -2 17 -8 32 -17
32 -18z m938 -9 c21 4 13 -15 -8 -21 -15 -4 -20 0 -20 15 0 15 -4 18 -17 13
-15 -5 -14 -3 2 13 20 19 20 19 26 -2 3 -12 11 -20 17 -18z m394 30 c-16 -16
-15 -28 3 -28 21 0 19 -17 -4 -23 -12 -3 -18 1 -17 12 1 9 -6 15 -16 15 -25
-2 -22 3 10 20 33 19 40 20 24 4z m256 -8 c13 0 13 -2 -3 -13 -10 -8 -15 -19
-11 -25 8 -14 -3 -15 -22 -3 -10 6 -10 10 2 20 8 7 14 18 12 24 -1 7 -1 9 1 5
3 -5 12 -8 21 -8z m-1872 -7 c0 -11 6 -17 17 -17 25 2 21 -3 -15 -22 -30 -16
-32 -16 -19 -1 10 13 11 20 2 31 -9 11 -9 15 1 19 7 3 14 6 14 6 1 1 1 -7 0
-16z m400 8 c-3 -5 1 -14 10 -21 11 -10 12 -15 3 -21 -17 -10 -40 32 -25 43
15 10 18 10 12 -1z m258 3 c14 -5 14 -8 1 -21 -9 -8 -13 -18 -10 -23 3 -4 -4
-6 -15 -3 -21 6 -28 25 -7 21 6 -2 11 5 11 15 -2 19 -2 19 20 11z m146 -11 c0
-7 7 -16 16 -21 14 -8 13 -10 -5 -15 -16 -4 -21 -1 -21 15 0 13 -5 18 -14 15
-8 -3 -16 0 -19 6 -3 7 5 12 19 12 13 0 24 -5 24 -12z m256 -18 c-7 -15 -15
-20 -22 -14 -6 5 -13 8 -15 6 -2 -1 1 3 8 9 7 6 13 16 13 22 0 6 6 9 14 6 11
-4 11 -10 2 -29z m412 13 c-19 -14 -20 -18 -8 -33 12 -15 11 -15 -12 -5 -21
10 -24 15 -15 33 6 13 19 22 34 22 l23 0 -22 -17z m-1224 -27 c4 -5 -3 -7 -14
-4 -23 6 -26 13 -6 13 8 0 17 -4 20 -9z m86 5 c0 -11 -19 -15 -25 -6 -3 5 1
10 9 10 9 0 16 -2 16 -4z m1210 0 c0 -11 -19 -15 -25 -6 -3 5 1 10 9 10 9 0
16 -2 16 -4z m-1583 -41 c0 -17 -13 -20 -21 -6 -4 5 0 12 6 14 7 3 13 6 14 6
0 1 1 -6 1 -14z m393 1 c-4 -4 -16 -4 -26 2 -16 9 -14 10 8 9 15 -1 23 -6 18
-11z m403 1 c-3 -5 -12 -6 -20 -3 -9 4 -21 2 -27 -2 -6 -5 -20 -12 -31 -15
-18 -7 -19 -6 -3 6 10 8 16 16 13 18 -2 2 14 4 35 4 21 0 36 -3 33 -8z m385 5
c8 -6 2 -9 -18 -9 -20 0 -26 3 -18 9 7 4 15 8 18 8 3 0 11 -4 18 -8z m390 3
c-2 -1 -12 -7 -24 -13 -15 -8 -21 -8 -21 1 0 7 11 13 24 13 14 1 23 1 21 -1z
m25 -10 c-3 -9 -8 -14 -10 -11 -3 3 -2 9 2 15 9 16 15 13 8 -4z m357 0 c0 -2
-6 -5 -13 -8 -8 -3 -14 1 -14 8 0 7 6 11 14 8 7 -3 13 -6 13 -8z m-1783 -7 c7
19 19 14 19 -8 0 -22 -4 -24 -26 -10 -9 6 -17 5 -22 -3 -5 -7 -8 -3 -8 12 0
21 2 22 17 10 13 -11 17 -11 20 -1z m406 3 c14 8 18 8 12 0 -4 -7 -1 -19 7
-28 12 -15 10 -15 -19 0 -17 9 -35 23 -39 29 -5 10 -4 10 6 1 9 -9 19 -9 33
-2z m400 -3 c10 8 13 6 13 -7 0 -13 -8 -18 -26 -17 -17 1 -26 7 -26 18 0 13 4
14 13 6 9 -7 17 -7 26 0z m400 0 c9 8 13 7 13 -6 0 -11 -9 -17 -26 -18 -18 -1
-26 4 -26 17 0 13 3 15 13 7 9 -7 17 -7 26 0z m401 2 c12 9 15 8 13 -7 -1 -25
-53 -27 -53 -2 0 13 3 15 13 7 9 -7 17 -7 27 2z m-137 -22 c-3 -8 -6 -5 -6 6
-1 11 2 17 5 13 3 -3 4 -12 1 -19z m-1587 -11 c0 -2 -8 -3 -18 -3 -10 0 -19 6
-19 13 0 8 6 9 19 2 10 -5 18 -11 18 -12z m385 5 c-3 -3 -11 0 -18 7 -9 10 -8
11 6 5 10 -3 15 -9 12 -12z m400 0 c-3 -3 -11 0 -18 7 -9 10 -8 11 6 5 10 -3
15 -9 12 -12z m268 1 c-3 -7 -9 -10 -14 -7 -14 8 -11 21 5 21 8 0 12 -6 9 -14z
m132 -1 c-3 -3 -11 0 -18 7 -9 10 -8 11 6 5 10 -3 15 -9 12 -12z m275 13 c0
-2 -10 -9 -22 -15 -22 -11 -22 -10 -4 4 21 17 26 19 26 11z m400 0 c0 -2 -10
-9 -22 -15 -22 -11 -22 -10 -4 4 21 17 26 19 26 11z m-1817 -40 c-3 -9 -8 -14
-10 -11 -3 3 -2 9 2 15 9 16 15 13 8 -4z m147 0 c0 -2 -6 -5 -13 -8 -8 -3 -14
1 -14 8 0 7 6 11 14 8 7 -3 13 -6 13 -8z m245 -3 c-3 -3 -11 0 -18 7 -9 10 -8
11 6 5 10 -3 15 -9 12 -12z m154 -11 c0 -10 -2 -11 -6 -3 -2 6 -8 10 -12 8 -4
-3 -8 1 -8 8 0 8 6 12 14 9 7 -3 13 -13 12 -22z m401 8 c0 -14 -17 -10 -23 5
-4 10 -1 13 9 9 7 -3 14 -9 14 -14z m267 14 c-4 -3 -1 -13 6 -22 10 -14 10
-14 -5 -3 -13 10 -17 10 -21 0 -4 -9 -6 -7 -6 4 -1 9 5 19 12 21 18 8 21 8 14
0z m400 -7 c0 -8 -6 -12 -15 -9 -11 5 -11 7 0 14 7 5 13 9 14 9 0 0 1 -6 1
-14z m141 -3 c-6 -7 -12 -13 -13 -13 -2 0 -5 6 -8 13 -3 7 3 13 14 13 13 0 15
-3 7 -13z m-1499 -7 c9 -10 8 -15 -2 -19 -8 -3 -13 3 -13 14 0 23 0 23 15 5z
m36 4 c-4 -6 -1 -18 6 -26 10 -12 9 -13 -5 -8 -18 7 -22 44 -5 44 5 0 7 -5 4
-10z m380 0 c10 16 21 12 21 -8 0 -14 -7 -19 -26 -18 -17 1 -26 7 -26 18 0 12
4 14 12 7 8 -7 14 -6 19 1z m411 0 c6 6 10 3 10 -9 0 -13 -7 -18 -26 -17 -17
1 -26 7 -26 18 0 12 5 14 17 8 9 -5 20 -5 25 0z m379 0 c5 -7 11 -8 19 -1 8 7
12 5 12 -7 0 -11 -9 -17 -26 -18 -19 -1 -26 4 -26 18 0 20 11 24 21 8z m-1378
-22 l28 13 -24 -19 c-13 -11 -21 -24 -18 -29 4 -6 -2 -13 -14 -16 -17 -5 -18
-3 -8 9 9 11 9 18 1 26 -7 7 -12 17 -12 23 0 5 4 4 9 -4 8 -12 15 -13 38 -3z
m420 0 c0 -7 -12 -14 -26 -15 l-26 -1 25 14 c14 7 25 13 26 14 0 0 1 -6 1 -12z
m383 -8 c-8 -5 -19 -10 -25 -10 -5 0 -3 5 5 10 8 5 20 10 25 10 6 0 3 -5 -5
-10z m379 1 c10 -7 7 -9 -12 -8 -14 1 -23 5 -20 10 6 9 15 9 32 -2z m401 -1
c8 -5 11 -10 5 -10 -5 0 -17 5 -25 10 -8 5 -10 10 -5 10 6 0 17 -5 25 -10z
m-697 -32 c4 1 7 -2 7 -7 0 -5 -9 -11 -20 -14 -14 -4 -18 -11 -14 -24 3 -11 3
-14 -3 -7 -4 6 -15 14 -23 17 -12 4 -11 6 3 6 20 1 22 21 5 40 -11 11 -8 11
12 0 14 -7 28 -12 33 -11z m386 -20 c-11 -4 -18 -12 -14 -18 4 -6 -1 -7 -11
-3 -15 6 -15 7 1 15 15 9 15 11 -2 31 l-18 20 33 -19 c30 -17 31 -19 11 -26z
m-1371 23 c16 12 16 12 0 -6 -18 -19 -18 -19 -35 0 -17 18 -17 18 0 6 14 -11
20 -11 35 0z m162 -2 c0 -6 7 -9 15 -5 30 11 14 -4 -23 -23 -28 -14 -39 -16
-39 -7 0 7 7 13 16 12 9 -1 15 6 15 17 -1 9 2 17 7 17 5 0 9 -5 9 -11z m246
-6 c-1 -12 6 -17 19 -16 l20 2 -20 -15 c-18 -13 -20 -13 -23 0 -2 9 -11 16
-20 16 -13 0 -13 2 4 15 10 8 20 15 20 15 1 0 1 -8 0 -17z m165 3 c5 3 9 1 9
-4 0 -6 -7 -12 -15 -16 -11 -4 -15 1 -14 17 0 12 3 16 6 9 2 -6 9 -10 14 -6z
m251 -27 c5 -3 2 -9 -7 -12 -9 -4 -13 -3 -10 2 3 6 -3 14 -12 20 -16 9 -16 12
-3 21 11 7 16 5 19 -8 2 -9 8 -20 13 -23z m403 1 c8 0 17 -4 20 -10 4 -6 -1
-7 -10 -3 -10 3 -21 0 -27 -8 -8 -11 -9 -10 -4 4 3 11 0 20 -9 23 -11 5 -12 9
-2 19 10 11 13 9 15 -6 2 -10 10 -19 17 -19z m388 20 c-4 -14 0 -20 10 -20 9
0 19 -5 23 -12 4 -7 3 -8 -5 -4 -6 4 -19 2 -27 -5 -13 -11 -15 -10 -12 3 1 10
-6 24 -17 32 -16 13 -17 15 -2 10 9 -3 17 -1 17 5 0 6 4 11 9 11 5 0 7 -9 4
-20z m162 -8 c-17 -4 -21 -32 -3 -32 6 0 9 -3 5 -6 -3 -3 -15 1 -27 9 -18 13
-19 15 -4 21 9 3 14 12 10 21 -4 12 -2 13 15 2 16 -10 17 -13 4 -15z m-1735
-9 c0 -1 -14 -10 -30 -18 -29 -15 -30 -15 -19 2 9 15 49 28 49 16z m500 -8 c0
-2 -6 -5 -13 -8 -8 -3 -14 1 -14 8 0 7 6 11 14 8 7 -3 13 -6 13 -8z m17 -27
c-3 -8 -6 -5 -6 6 -1 11 2 17 5 13 3 -3 4 -12 1 -19z m-288 0 c11 -10 14 -10
18 0 7 18 21 15 19 -5 0 -11 6 -18 15 -17 9 1 16 -4 16 -11 0 -7 -7 -12 -16
-11 -10 1 -15 -6 -15 -17 2 -14 -1 -15 -12 -6 -11 9 -18 9 -26 1 -7 -7 -16
-12 -22 -12 -5 0 -4 6 2 12 10 10 8 16 -10 30 -13 11 -16 16 -7 12 22 -7 36
15 18 27 -8 5 -9 9 -3 9 5 0 16 -6 23 -12z m425 1 c11 9 14 8 12 -6 0 -11 5
-18 15 -17 9 1 16 -4 16 -11 0 -7 -7 -12 -16 -11 -10 1 -15 -6 -15 -17 2 -14
-1 -15 -12 -6 -11 9 -18 9 -26 1 -7 -7 -17 -12 -22 -12 -6 0 -5 4 3 9 16 10 5
35 -13 28 -7 -3 -13 1 -13 8 0 7 7 12 16 11 10 -1 15 6 15 17 -2 14 1 15 12 6
11 -9 17 -9 28 0z m374 -1 c8 -8 15 -8 29 3 16 13 17 12 5 -3 -11 -14 -10 -17
8 -23 20 -6 20 -8 4 -19 -11 -9 -14 -18 -9 -27 8 -12 6 -12 -8 0 -13 10 -20
11 -31 2 -11 -9 -14 -8 -12 6 0 11 -5 18 -15 17 -9 -1 -16 4 -16 11 0 7 6 11
13 8 18 -7 29 18 13 28 -8 5 -9 9 -3 9 5 0 15 -5 22 -12z m429 3 c11 9 14 10
9 2 -4 -7 -15 -17 -25 -23 -15 -8 -20 -5 -24 11 -4 16 -3 18 9 8 11 -9 18 -8
31 2z m26 -39 c-10 -7 -16 -20 -15 -30 3 -13 1 -14 -12 -3 -12 10 -19 11 -30
2 -11 -9 -14 -8 -12 6 1 12 -5 17 -18 16 -12 -1 -15 2 -8 9 7 7 17 6 30 -1 27
-15 42 -14 42 2 0 7 9 13 21 13 19 0 19 -1 2 -14z m327 4 c0 -2 -7 -7 -16 -10
-8 -3 -12 -2 -9 4 6 10 25 14 25 6z m-560 -36 c0 -5 -2 -10 -4 -10 -3 0 -8 5
-11 10 -3 6 -1 10 4 10 6 0 11 -4 11 -10z m-1130 -15 c-10 -12 -9 -16 4 -21
13 -5 13 -8 1 -20 -19 -20 -24 -18 -17 8 4 17 2 20 -15 16 -12 -3 -20 0 -20 7
0 7 8 10 19 7 10 -2 18 1 18 7 0 6 5 11 11 11 8 0 8 -5 -1 -15z m414 -30 c6
-5 9 -9 7 -8 -2 2 -11 -3 -19 -10 -13 -10 -15 -9 -9 6 5 13 0 20 -18 27 -30
11 -33 20 -5 13 13 -3 20 0 21 8 1 8 4 5 6 -6 3 -11 10 -24 17 -30z m382 30
c-3 -9 1 -18 9 -22 12 -4 13 -9 4 -19 -17 -21 -28 -17 -21 8 4 17 2 20 -15 16
-12 -3 -20 0 -20 7 0 7 8 10 19 7 10 -2 18 1 18 7 0 6 3 11 6 11 3 0 3 -7 0
-15z m257 -18 c-11 -7 -12 -12 -2 -23 8 -10 8 -14 0 -14 -6 0 -11 5 -11 11 0
6 -8 8 -17 5 -15 -5 -14 -3 2 10 11 8 19 22 17 31 -3 13 -1 13 11 2 13 -12 13
-15 0 -22z m150 14 c-3 -12 1 -20 11 -23 14 -2 13 -5 -5 -16 -19 -12 -21 -12
-16 2 4 10 1 19 -8 22 -11 5 -12 9 -2 20 17 19 26 17 20 -5z m-1326 -7 c0 -6
-7 -11 -16 -10 -9 1 -15 -6 -15 -16 1 -13 -2 -15 -16 -6 -16 10 -16 12 -1 27
18 19 48 22 48 5z m378 -6 c-15 -9 -15 -11 2 -30 18 -20 17 -21 -2 -10 -11 6
-29 17 -40 26 -20 15 -20 15 3 9 16 -4 22 -1 22 11 0 10 5 13 16 9 15 -5 15
-7 -1 -15z m404 2 c-6 -5 -9 -15 -6 -24 9 -22 -5 -26 -25 -5 -15 16 -15 17 4
22 11 3 17 10 13 16 -4 7 0 8 10 4 12 -4 13 -8 4 -13z m810 -1 c-12 -9 -19
-21 -15 -28 4 -6 2 -11 -3 -11 -6 0 -11 5 -11 11 0 6 -8 8 -17 5 -15 -5 -14
-3 2 10 11 8 19 18 18 22 -1 4 10 7 23 7 l24 0 -21 -16z m147 -11 c11 -2 10
-6 -5 -15 -17 -11 -19 -10 -15 2 4 9 -1 18 -11 21 -13 5 -14 8 -3 15 8 5 14 3
16 -6 2 -7 10 -15 18 -17z m-1701 -16 c-3 -3 -11 0 -18 7 -9 10 -8 11 6 5 10
-3 15 -9 12 -12z m45 -49 c0 -2 -9 1 -21 7 -11 7 -28 9 -36 6 -13 -5 -14 -4
-3 8 10 14 15 13 36 -1 13 -8 24 -17 24 -20z m386 10 c-6 -6 -36 9 -36 18 0 5
9 4 20 -3 10 -7 18 -14 16 -15z m1210 15 c5 4 6 3 2 -2 -10 -12 -68 -16 -68
-4 0 5 4 7 9 3 5 -3 13 -1 16 5 5 8 11 8 19 1 7 -6 17 -7 22 -3z m-1406 -13
c-6 -8 -9 -19 -5 -25 3 -5 2 -10 -4 -10 -5 0 -13 5 -16 10 -5 7 -11 8 -19 1
-8 -7 -12 -5 -12 8 0 11 6 17 13 14 6 -3 20 0 30 6 25 14 28 14 13 -4z m400 0
c-6 -8 -8 -20 -4 -27 6 -10 5 -10 -8 0 -14 11 -21 11 -45 -3 -21 -13 -23 -13
-9 -2 10 9 15 20 11 26 -3 7 0 8 9 5 8 -3 23 -1 33 5 25 14 28 14 13 -4z m579
11 c-2 -2 -15 -9 -29 -15 -24 -11 -24 -11 -6 3 16 13 49 24 35 12z m-1386 -26
c3 -11 1 -20 -4 -20 -5 0 -9 9 -9 20 0 11 2 20 4 20 2 0 6 -9 9 -20z m1203 -1
c0 -13 -3 -15 -13 -7 -9 7 -17 7 -26 0 -9 -8 -13 -7 -13 6 0 11 9 17 26 18 18
1 26 -4 26 -17z m400 -1 c0 -14 -3 -15 -15 -5 -11 9 -15 9 -18 0 -7 -19 -19
-15 -19 5 0 14 7 19 26 18 17 -1 26 -7 26 -18z m-666 5 c0 -1 -9 -7 -20 -13
-15 -8 -20 -8 -20 3 0 7 9 13 20 13 11 0 20 -1 20 -3z m-820 -7 c0 -3 -4 -8
-10 -11 -5 -3 -10 -1 -10 4 0 6 5 11 10 11 6 0 10 -2 10 -4z m140 -11 c0 -2
-6 -5 -13 -8 -8 -3 -14 1 -14 8 0 7 6 11 14 8 7 -3 13 -6 13 -8z m400 3 c0 -4
-4 -8 -9 -8 -6 0 -12 4 -15 8 -3 5 1 9 9 9 8 0 15 -4 15 -9z m664 0 c-3 -4 -9
-8 -15 -8 -5 0 -9 4 -9 8 0 5 7 9 15 9 8 0 12 -4 9 -9z m403 -4 c0 -7 -6 -10
-14 -7 -7 3 -13 8 -13 12 0 4 6 8 13 8 8 0 14 -6 14 -13z m144 -1 c13 -15 12
-15 -8 -4 -24 12 -29 21 -14 21 5 0 15 -7 22 -17z m-1806 -23 c-3 -5 -12 -10
-18 -10 -7 0 -6 4 3 10 19 12 23 12 15 0z m405 5 c0 -2 -10 -9 -22 -15 -22
-11 -22 -10 -4 4 21 17 26 19 26 11z m400 -1 c0 -2 -9 -8 -20 -14 -15 -8 -18
-8 -14 3 4 11 34 21 34 11z m254 -11 c4 -11 1 -11 -14 -3 -24 13 -25 17 -5 17
8 0 16 -6 19 -14z m406 -9 c0 -2 -9 0 -20 6 -11 6 -20 13 -20 16 0 2 9 0 20
-6 11 -6 20 -13 20 -16z m400 0 c0 -2 -9 0 -20 6 -11 6 -20 13 -20 16 0 2 9 0
20 -6 11 -6 20 -13 20 -16z m-1727 -24 c-2 -2 -8 2 -13 10 -7 11 -11 11 -24 1
-9 -8 -16 -9 -16 -4 0 6 10 15 23 20 17 8 23 7 28 -6 4 -9 5 -18 2 -21z m403
18 c0 -20 -12 -24 -19 -5 -3 9 -7 9 -18 0 -12 -10 -15 -9 -15 5 0 11 9 17 26
18 19 1 26 -4 26 -18z m400 1 c0 -13 -3 -15 -13 -7 -9 7 -17 7 -26 0 -10 -8
-13 -6 -13 7 0 12 8 18 26 18 18 0 26 -6 26 -18z m254 17 c0 -2 -7 -7 -16 -10
-8 -3 -12 -2 -9 4 6 10 25 14 25 6z m146 -17 c0 -13 -3 -15 -13 -7 -9 7 -17 7
-26 0 -10 -8 -13 -6 -13 7 0 12 8 18 26 18 18 0 26 -6 26 -18z m401 -2 c2 -16
0 -17 -14 -5 -13 10 -17 10 -20 1 -7 -19 -19 -15 -19 5 0 26 52 25 53 -1z
m-1790 -11 c0 -8 -6 -12 -15 -9 -11 5 -11 7 0 14 7 5 13 9 14 9 0 0 1 -6 1
-14z m389 -1 c-11 -8 -25 -15 -30 -15 -6 1 0 7 14 15 32 19 40 18 16 0z m361
4 c8 -8 17 -8 34 1 23 11 23 10 5 -4 -11 -9 -23 -16 -26 -16 -11 0 -45 29 -34
30 5 0 15 -5 21 -11z m429 2 c10 8 14 8 14 0 0 -12 -2 -13 -41 -15 -15 -1 -26
3 -26 11 0 9 5 9 19 2 14 -7 24 -7 34 2z m407 -1 c21 11 21 10 3 -4 -11 -9
-23 -16 -26 -16 -3 0 -15 7 -26 16 -18 14 -18 15 4 4 16 -8 28 -8 45 0z m367
-1 c0 -4 -6 -9 -13 -12 -8 -3 -14 0 -14 7 0 7 6 13 14 13 7 0 13 -4 13 -8z
m-1909 -61 c-23 -21 -41 -24 -41 -6 0 6 3 8 7 5 3 -4 12 -2 20 4 11 10 10 14
-4 25 -16 13 -14 13 10 3 27 -12 27 -12 8 -31z m324 22 c3 -5 -1 -10 -10 -10
-9 0 -13 5 -10 10 3 6 8 10 10 10 2 0 7 -4 10 -10z m108 -7 c-3 -7 -9 -11 -13
-8 -4 3 -13 -2 -20 -10 -7 -8 -20 -15 -28 -15 -13 0 -13 2 3 13 10 8 15 18 12
24 -4 6 5 10 22 9 18 -1 27 -5 24 -13z m292 7 c3 -5 -1 -10 -10 -10 -9 0 -13
5 -10 10 3 6 8 10 10 10 2 0 7 -4 10 -10z m810 0 c3 -5 -1 -10 -10 -10 -9 0
-13 5 -10 10 3 6 8 10 10 10 2 0 7 -4 10 -10z m333 -28 c14 -11 14 -12 0 -12
-22 0 -53 37 -36 42 7 3 15 0 17 -6 2 -6 10 -17 19 -24z"/>
<path d="M785 1699 c-10 -15 1 -23 20 -15 9 3 13 10 10 16 -8 13 -22 13 -30
-1z"/>
<path d="M1181 1701 c-11 -7 -9 -10 8 -16 25 -8 36 -2 26 14 -8 13 -15 14 -34
2z"/>
<path d="M990 1360 c-12 -7 -12 -12 -2 -22 9 -9 15 -9 24 0 16 16 -2 34 -22
22z"/>
<path d="M1390 1360 c-22 -13 2 -35 25 -23 13 8 14 11 3 21 -9 7 -19 7 -28 2z"/>
<path d="M1791 1356 c-9 -10 -9 -16 -1 -21 17 -10 37 12 24 25 -8 8 -15 6 -23
-4z"/>
<path d="M784 1009 c-10 -17 13 -36 27 -22 12 12 4 33 -11 33 -5 0 -12 -5 -16
-11z"/>
<path d="M1584 1009 c-10 -17 13 -36 27 -22 12 12 4 33 -11 33 -5 0 -12 -5
-16 -11z"/>
<path d="M384 1009 c-10 -17 13 -36 27 -22 12 12 4 33 -11 33 -5 0 -12 -5 -16
-11z"/>
<path d="M1184 1009 c-10 -17 13 -36 27 -22 12 12 4 33 -11 33 -5 0 -12 -5
-16 -11z"/>
<path d="M585 659 c-10 -15 1 -23 20 -15 9 3 13 10 10 16 -8 13 -22 13 -30 -1z"/>
<path d="M987 664 c-13 -13 -7 -24 14 -24 11 0 19 5 17 12 -5 14 -22 21 -31
12z"/>
<path d="M1387 663 c-13 -12 -7 -23 12 -23 26 0 35 16 15 24 -19 7 -19 7 -27
-1z"/>
<path d="M1785 660 c-8 -13 20 -24 36 -15 8 6 7 10 -2 16 -18 11 -26 11 -34
-1z"/>
<path d="M375 310 c-8 -12 20 -24 35 -15 6 3 8 11 5 16 -8 12 -32 12 -40 -1z"/>
<path d="M775 310 c-8 -12 20 -24 35 -15 6 3 8 11 5 16 -8 12 -32 12 -40 -1z"/>
<path d="M1182 311 c-11 -7 -10 -10 3 -15 20 -7 38 1 30 15 -7 11 -16 11 -33
0z"/>
<path d="M0 304 c0 -8 5 -12 10 -9 6 4 8 11 5 16 -9 14 -15 11 -15 -7z"/>
</g>
</svg>
