<?xml version="1.0" standalone="no"?>
<!DOCTYPE svg PUBLIC "-//W3C//DTD SVG 20010904//EN"
 "http://www.w3.org/TR/2001/REC-SVG-20010904/DTD/svg10.dtd">
<svg version="1.0" xmlns="http://www.w3.org/2000/svg"
 width="200.000000pt" height="200.000000pt" viewBox="0 0 200.000000 200.000000"
 preserveAspectRatio="xMidYMid meet">
<metadata>
Created by potrace 1.16, written by Peter Selinger 2001-2019
</metadata>
<g transform="translate(0.000000,200.000000) scale(0.100000,-0.100000)"
fill="#000000" stroke="none">
<path d="M0 1855 c0 -89 4 -146 10 -150 8 -5 8 -11 0 -20 -7 -8 -10 -274 -10
-849 l1 -836 67 0 c48 0 76 5 98 19 31 19 32 19 60 0 24 -16 48 -19 140 -19
86 0 113 3 117 14 3 7 31 28 61 45 l56 32 55 -33 c30 -18 55 -38 55 -45 0 -9
19 -13 65 -13 62 0 65 1 65 24 0 21 14 33 80 70 l81 45 62 -36 c78 -45 97 -62
97 -85 0 -13 7 -18 25 -18 22 0 25 4 25 34 0 32 5 36 89 85 49 28 95 51 102
51 8 0 52 -22 98 -49 l83 -48 110 63 c96 56 112 63 131 52 19 -10 20 -9 9 4
-9 11 -12 46 -10 119 l3 104 87 50 87 50 1 121 0 122 -99 56 c-54 31 -101 56
-104 56 -3 0 -48 -25 -100 -55 l-94 -55 -107 61 -106 61 0 118 0 118 110 63
110 63 0 106 0 106 88 52 c49 29 95 52 103 52 8 0 28 -8 44 -18 66 -40 150
-85 142 -77 -4 5 -47 32 -95 60 l-87 51 0 119 0 119 95 56 c90 54 95 59 98 93
2 28 -1 37 -12 37 -8 0 -16 -11 -18 -26 -2 -21 -19 -36 -84 -74 l-81 -48 -81
47 c-71 40 -82 50 -82 74 0 26 -2 27 -50 27 -43 0 -50 -3 -50 -19 0 -13 -20
-31 -64 -55 -35 -20 -70 -36 -77 -36 -27 0 -139 74 -139 92 0 16 -10 18 -74
18 -52 0 -75 -4 -79 -13 -3 -8 -29 -26 -59 -42 l-53 -28 -53 33 c-28 17 -52
36 -52 41 0 5 -77 8 -177 8 -171 -1 -177 -2 -145 -17 27 -13 37 -14 54 -3 11
7 22 10 25 7 3 -2 -8 -11 -23 -19 -26 -14 -31 -13 -66 9 -37 24 -41 24 -298
23 l-260 0 0 -144z m1694 -6 l87 -51 -3 -106 -3 -106 -45 -26 c-25 -14 -64
-37 -87 -49 l-41 -24 -91 52 -91 53 0 103 0 103 88 51 c48 28 90 51 94 51 3 0
45 -23 92 -51z m-415 -30 l71 -41 0 -83 0 -83 -71 -41 c-39 -23 -74 -41 -79
-41 -5 0 -40 18 -79 41 l-71 41 0 83 0 83 68 40 c37 22 72 40 79 41 6 1 43
-17 82 -40z m-424 -34 l55 -35 0 -53 c0 -58 -6 -67 -72 -105 l-38 -21 -55 32
-55 31 0 61 0 61 53 31 c28 17 53 32 55 32 2 1 27 -15 57 -34z m-397 -91 c3
-37 0 -41 -31 -56 -32 -15 -35 -15 -65 4 -23 14 -32 28 -32 46 0 32 7 42 40
64 23 15 27 15 55 -1 24 -14 31 -25 33 -57z m1028 -206 c41 -24 74 -50 75 -58
3 -72 1 -168 -4 -177 -4 -7 -41 -30 -82 -53 l-75 -42 -78 45 -77 45 -3 98 -2
99 72 42 c40 24 79 43 87 43 8 0 47 -19 87 -42z m-418 -28 l62 -35 0 -77 0
-77 -61 -36 c-33 -19 -65 -35 -72 -35 -7 1 -37 16 -67 34 l-55 32 -3 80 -3 79
63 37 c35 20 65 36 68 35 3 -1 33 -18 68 -37z m-380 -114 c-3 -58 -3 -59 -48
-84 l-45 -25 -48 29 -48 29 3 54 c3 53 4 56 48 82 l45 26 48 -26 48 -26 -3
-59z m-460 48 c33 -23 31 -79 -5 -97 -62 -33 -118 56 -60 96 28 20 38 20 65 1z
m1068 -241 l84 -48 0 -105 0 -105 -84 -47 c-46 -27 -90 -48 -97 -48 -8 0 -50
22 -94 48 l-80 48 0 104 0 104 80 48 c44 26 86 48 94 48 7 0 51 -21 97 -47z
m-426 -37 l55 -32 3 -81 3 -81 -59 -36 c-33 -20 -65 -36 -72 -36 -13 0 -97 46
-122 68 -25 21 -26 143 -1 163 29 25 108 68 123 68 8 0 40 -15 70 -33z m-430
-46 c39 -20 40 -22 40 -70 0 -49 -1 -51 -44 -72 l-44 -21 -36 22 c-33 21 -36
26 -36 71 0 43 3 50 33 69 40 26 39 26 87 1z m-423 -82 c-3 -7 -5 -2 -5 12 0
14 2 19 5 13 2 -7 2 -19 0 -25z m1865 -194 l78 -46 1 -49 c1 -63 1 -94 0 -121
-1 -18 -20 -33 -78 -67 l-77 -44 -51 27 c-27 14 -65 35 -82 46 l-33 20 0 94 0
94 78 45 c42 25 79 45 81 46 2 1 40 -20 83 -45z m-411 -25 l70 -40 -3 -77 -3
-77 -60 -37 c-33 -20 -67 -37 -75 -37 -8 0 -42 17 -75 37 l-60 37 -3 77 -3 76
68 40 c37 22 69 41 71 41 2 1 35 -17 73 -40z m-408 -29 l47 -30 0 -59 0 -60
-55 -31 -55 -31 -55 31 -55 31 0 62 0 62 48 27 c26 15 54 27 62 28 8 0 36 -14
63 -30z m-421 -25 c38 -26 38 -23 29 -105 -1 -3 -17 -14 -37 -25 -36 -19 -36
-19 -72 0 -33 18 -37 25 -40 65 -3 43 -1 47 35 68 21 12 40 22 43 22 3 0 22
-11 42 -25z m-421 -25 c25 -14 26 -65 2 -75 -15 -5 -16 -4 -5 6 18 19 15 57
-7 64 -45 14 -71 -37 -33 -66 15 -13 15 -13 -3 -3 -27 15 -32 54 -9 71 22 16
30 16 55 3z m1539 -384 l0 -92 -73 -42 c-40 -23 -80 -42 -88 -42 -7 0 -45 20
-84 43 l-70 42 0 90 0 90 78 46 78 47 80 -45 79 -45 0 -92z m-495 107 l65 -37
0 -71 0 -71 -65 -37 -65 -38 -48 27 c-80 46 -82 50 -82 123 l0 67 63 36 c34
21 63 37 65 38 2 0 32 -17 67 -37z m-419 -29 c43 -25 44 -27 44 -79 0 -53 0
-53 -46 -79 l-46 -26 -44 26 c-43 25 -44 27 -44 79 0 52 1 54 43 79 23 14 43
25 45 26 2 0 23 -12 48 -26z m-415 -34 c13 -8 19 -21 19 -46 0 -27 -5 -37 -26
-46 -58 -27 -114 50 -62 86 26 19 42 20 69 6z"/>
<path d="M1513 1837 l-72 -42 -1 -100 0 -100 81 -46 82 -46 81 47 81 48 3 96
3 95 -78 45 c-43 25 -85 45 -93 45 -8 0 -47 -19 -87 -42z"/>
<path d="M1133 1812 l-63 -37 0 -80 0 -80 66 -37 65 -38 65 37 64 37 0 81 0
80 -65 38 c-35 20 -65 37 -67 36 -2 0 -31 -17 -65 -37z"/>
<path d="M742 1773 l-43 -26 3 -54 c3 -54 4 -55 51 -81 l47 -27 48 27 47 27 0
56 c0 56 0 56 -44 81 -53 29 -56 29 -109 -3z"/>
<path d="M362 1734 c-31 -21 -28 -58 6 -82 25 -18 30 -19 55 -6 21 12 27 22
27 49 0 51 -43 70 -88 39z"/>
<path d="M1323 1478 l-73 -42 0 -88 0 -87 69 -41 c38 -22 75 -40 82 -40 7 0
43 18 81 40 l68 41 0 87 0 87 -74 43 c-40 23 -75 42 -77 42 -2 0 -37 -19 -76
-42z"/>
<path d="M932 1448 l-53 -30 3 -71 3 -71 57 -34 57 -34 58 34 58 34 3 70 3 69
-57 33 c-30 17 -61 32 -67 31 -7 0 -36 -14 -65 -31z"/>
<path d="M548 1417 c-35 -20 -38 -25 -38 -69 0 -45 2 -48 43 -73 l44 -25 41
22 c41 22 42 24 42 75 0 51 -1 53 -40 73 -48 24 -46 24 -92 -3z"/>
<path d="M168 1386 c-26 -19 -23 -61 6 -79 21 -14 26 -14 45 -1 27 20 29 69 2
84 -25 13 -32 12 -53 -4z"/>
<path d="M1120 1145 c-45 -27 -77 -52 -80 -65 -3 -11 -4 -56 -2 -100 l3 -79
81 -46 80 -46 81 48 82 49 0 94 0 94 -80 48 c-44 26 -82 48 -85 48 -3 -1 -39
-21 -80 -45z"/>
<path d="M738 1107 l-58 -32 0 -75 0 -75 61 -33 60 -33 57 33 57 34 0 74 0 74
-55 33 c-30 18 -57 33 -60 33 -3 -1 -31 -15 -62 -33z"/>
<path d="M363 1063 c-30 -15 -33 -21 -33 -63 0 -43 2 -47 36 -63 34 -17 38
-17 68 1 26 15 32 25 34 60 3 38 0 43 -30 62 -39 23 -34 23 -75 3z"/>
<path d="M1723 779 l-73 -41 0 -84 0 -84 38 -23 c20 -13 55 -33 77 -44 l40
-21 72 42 72 41 1 87 0 86 -71 41 c-39 23 -74 41 -77 41 -4 0 -40 -19 -79 -41z"/>
<path d="M1332 757 l-53 -32 3 -74 3 -75 58 -33 57 -34 58 34 57 33 3 75 3 74
-55 33 c-30 17 -60 32 -68 31 -7 0 -37 -15 -66 -32z"/>
<path d="M942 733 l-43 -25 3 -56 c3 -55 4 -56 51 -84 l47 -27 45 27 c25 15
45 34 46 42 0 8 2 31 4 50 3 42 -6 55 -56 81 -46 23 -43 23 -97 -8z"/>
<path d="M563 710 c-28 -17 -33 -25 -33 -58 0 -34 4 -41 33 -57 31 -16 35 -16
65 -1 28 15 32 21 32 60 0 37 -4 45 -27 57 -16 7 -30 15 -33 16 -3 2 -20 -6
-37 -17z"/>
<path d="M1528 429 l-68 -40 0 -84 0 -84 71 -41 70 -42 75 43 74 43 0 82 0 83
-74 40 c-40 23 -75 41 -77 41 -2 0 -34 -18 -71 -41z"/>
<path d="M1138 402 l-48 -27 0 -70 0 -70 56 -30 55 -30 54 30 c30 17 54 33 55
38 0 4 0 35 0 70 l0 62 -49 28 c-59 33 -64 33 -123 -1z"/>
<path d="M757 374 c-36 -24 -38 -27 -35 -72 3 -43 6 -49 41 -67 l37 -20 38 20
c35 19 37 23 37 70 0 48 -2 50 -40 71 l-40 22 -38 -24z"/>
<path d="M366 337 c-26 -19 -17 -59 16 -71 34 -12 58 6 58 44 0 39 -39 53 -74
27z"/>
<path d="M900 1993 c0 -5 22 -21 50 -36 l50 -28 45 26 c25 15 48 31 51 36 3 5
-38 9 -95 9 -56 0 -101 -3 -101 -7z"/>
<path d="M1280 1983 c0 -12 23 -30 61 -51 l60 -33 64 36 c99 55 90 65 -60 65
-112 0 -125 -2 -125 -17z"/>
<path d="M1650 1978 c0 -18 17 -33 76 -66 l76 -43 74 42 c59 34 74 47 74 66
l0 23 -150 0 c-149 0 -150 0 -150 -22z"/>
<path d="M1905 1857 l-90 -53 0 -109 0 -109 90 -53 90 -52 3 110 c1 60 1 157
0 214 l-3 104 -90 -52z"/>
<path d="M1715 1501 l-80 -47 -3 -106 -3 -105 82 -47 c45 -25 86 -46 91 -46 6
0 48 21 94 48 l83 47 1 102 0 101 -89 51 c-48 28 -90 51 -92 50 -2 0 -40 -22
-84 -48z"/>
<path d="M1503 1167 l-93 -52 0 -115 0 -115 95 -53 c52 -30 98 -52 102 -50 5
1 48 26 96 53 l87 50 0 115 0 115 -91 53 c-50 28 -93 52 -97 52 -4 -1 -49 -24
-99 -53z"/>
<path d="M1898 1168 l-88 -50 0 -118 0 -118 90 -51 c49 -28 92 -51 95 -51 3 0
5 99 5 220 0 121 -3 220 -7 219 -5 0 -47 -23 -95 -51z"/>
<path d="M1915 452 l-80 -48 0 -99 0 -99 83 -47 82 -48 0 194 c0 107 -1 195
-2 195 -2 -1 -39 -22 -83 -48z"/>
<path d="M1703 127 c-91 -51 -93 -53 -93 -89 l0 -38 190 0 190 0 0 38 c0 36
-2 38 -91 90 -50 28 -93 52 -97 52 -4 -1 -49 -24 -99 -53z"/>
<path d="M1855 173 c6 -6 33 -23 60 -38 28 -16 46 -24 40 -18 -5 6 -32 23 -60
38 -27 16 -45 24 -40 18z"/>
<path d="M1309 108 c-86 -50 -88 -53 -80 -100 0 -5 80 -8 176 -8 l175 0 0 29
c0 26 -9 34 -90 80 -49 28 -91 51 -92 51 -2 -1 -42 -24 -89 -52z"/>
<path d="M923 81 c-47 -27 -63 -42 -63 -58 0 -23 1 -23 141 -23 139 0 140 0
137 22 -2 16 -23 34 -68 60 -36 21 -69 38 -75 37 -5 -1 -38 -17 -72 -38z"/>
<path d="M1977 99 c7 -7 15 -10 18 -7 3 3 -2 9 -12 12 -14 6 -15 5 -6 -5z"/>
<path d="M557 55 c-86 -50 -83 -55 37 -55 72 0 106 4 104 11 -2 5 -26 23 -53
38 l-50 28 -38 -22z"/>
<path d="M170 10 c-11 -7 -5 -10 23 -10 23 0 36 4 32 10 -8 13 -35 13 -55 0z"/>
</g>
</svg>
