<?xml version="1.0" standalone="no"?>
<!DOCTYPE svg PUBLIC "-//W3C//DTD SVG 20010904//EN"
 "http://www.w3.org/TR/2001/REC-SVG-20010904/DTD/svg10.dtd">
<svg version="1.0" xmlns="http://www.w3.org/2000/svg"
 width="200.000000pt" height="200.000000pt" viewBox="0 0 200.000000 200.000000"
 preserveAspectRatio="xMidYMid meet">
<metadata>
Created by potrace 1.16, written by Peter Selinger 2001-2019
</metadata>
<g transform="translate(0.000000,200.000000) scale(0.100000,-0.100000)"
fill="#000000" stroke="none">
<path d="M0 1873 c0 -117 2 -129 20 -141 11 -7 20 -18 20 -25 0 -6 -5 -4 -11
6 -16 28 -29 20 -29 -18 0 -38 13 -46 29 -17 9 15 10 16 11 0 0 -9 -9 -20 -20
-23 -19 -6 -20 -15 -20 -315 0 -264 2 -309 15 -314 19 -7 19 -45 0 -52 -13 -5
-15 -50 -15 -314 0 -294 1 -308 20 -325 25 -23 25 -37 0 -60 -18 -16 -20 -31
-20 -147 l0 -128 455 0 455 0 42 26 42 27 51 -27 c50 -26 52 -26 263 -26 182
0 212 2 212 15 0 8 -4 15 -8 15 -5 0 -17 7 -28 15 -17 14 -15 14 14 0 17 -8
32 -22 32 -30 0 -11 13 -15 55 -15 54 0 55 1 55 28 0 22 7 32 28 40 27 12 27
12 5 -4 -13 -9 -23 -27 -23 -40 l0 -24 175 0 175 0 0 80 c0 44 -4 80 -8 80 -5
0 -17 7 -28 16 -18 15 -18 15 3 5 12 -6 24 -11 27 -11 3 0 6 61 6 135 0 74 -3
135 -6 135 -3 0 -15 -5 -27 -11 -21 -10 -21 -10 -3 5 11 9 23 16 28 16 4 0 8
76 8 169 l0 170 -55 31 c-30 17 -55 34 -55 36 0 3 25 -9 55 -26 l55 -31 0 201
0 201 -57 -32 c-32 -18 -70 -40 -85 -49 -28 -15 -28 -16 -28 -122 0 -60 4
-108 8 -108 5 0 17 -7 28 -15 17 -14 15 -14 -13 0 l-33 16 0 109 0 108 90 52
90 52 0 153 c0 147 -1 153 -22 169 l-23 17 23 -11 22 -11 0 166 0 167 -37 -23
c-21 -12 -53 -31 -70 -41 l-33 -20 0 -83 0 -84 45 -27 c46 -27 63 -44 23 -23
-77 40 -79 43 -76 137 l3 87 73 43 72 44 0 64 0 64 -39 0 c-25 0 -41 -5 -44
-14 -3 -8 -16 -20 -29 -26 l-23 -11 23 17 c12 9 22 20 22 25 0 13 -427 12
-435 -1 -3 -6 -21 -17 -38 -26 -31 -14 -21 -4 20 23 15 10 5 12 -55 12 -56 1
-71 -2 -66 -11 6 -10 4 -10 -8 0 -12 10 -52 12 -165 8 -81 -2 -155 -4 -163 -4
-8 0 -237 2 -507 4 l-493 4 0 -127z m1399 81 c14 -12 -19 -1 -35 12 -18 14
-18 14 6 3 14 -6 27 -13 29 -15z m431 -19 c16 8 30 13 30 11 0 -3 -14 -13 -30
-21 -29 -15 -33 -14 -75 11 -25 14 -45 28 -45 31 0 3 20 -7 45 -21 42 -25 46
-26 75 -11z m-170 -138 l55 -33 0 -69 0 -69 -58 -34 c-47 -28 -60 -32 -70 -22
-9 10 -9 11 1 6 7 -4 37 7 67 24 l55 31 0 64 0 64 -55 31 c-30 17 -60 28 -66
24 -8 -4 -9 -3 -5 4 10 17 15 16 76 -21z m-90 9 c0 -5 -69 -46 -78 -46 -6 1
69 50 76 50 1 0 2 -2 2 -4z m-393 -47 c-21 -11 -42 -30 -47 -42 -5 -13 -9 -16
-9 -7 0 8 3 20 7 26 8 13 62 43 77 43 6 0 -7 -9 -28 -20z m103 -63 c0 -40 -3
-46 -36 -65 -19 -12 -41 -21 -47 -21 -7 0 7 10 31 22 40 21 42 24 42 65 0 24
-4 43 -8 43 -5 0 -17 7 -28 15 -17 14 -15 14 14 0 29 -14 32 -20 32 -59z m207
12 c-3 -7 -5 -2 -5 12 0 14 2 19 5 13 2 -7 2 -19 0 -25z m-677 18 c0 -2 -9 -6
-20 -9 -11 -3 -18 -1 -14 4 5 9 34 13 34 5z m13 -58 c-2 -5 -13 -8 -23 -8 -10
0 -21 3 -23 8 -3 4 8 7 23 7 15 0 26 -3 23 -7z m357 -45 c0 -8 -50 22 -54 33
-3 9 7 5 24 -8 17 -12 30 -23 30 -25z m350 -12 c22 -12 40 -25 40 -28 0 -12
-85 46 -86 59 0 7 1 8 3 2 2 -6 22 -21 43 -33z m269 -115 c-2 -2 -15 -9 -29
-15 -24 -11 -24 -11 -6 3 16 13 49 24 35 12z m136 -146 c0 -72 -3 -84 -20 -94
-18 -10 -18 -10 -3 3 14 11 18 29 18 90 l0 76 -60 33 c-33 19 -60 36 -60 39 0
2 28 -11 63 -30 l62 -35 0 -82z m-195 115 c0 -2 -10 -9 -22 -15 -22 -11 -22
-10 -4 4 21 17 26 19 26 11z m-350 -9 c0 -1 -23 -18 -52 -35 -28 -18 -46 -25
-38 -16 15 19 90 61 90 51z m109 -50 c7 -8 11 -31 8 -53 l-4 -38 -1 43 c-2 37
-6 45 -33 60 -50 28 -67 44 -23 23 22 -11 46 -26 53 -35z m-475 5 c4 -5 -3 -7
-14 -4 -34 9 -70 -23 -70 -62 0 -28 5 -37 30 -50 23 -12 35 -13 53 -5 21 11
21 10 3 -4 -25 -20 -24 -20 -63 4 -28 17 -33 26 -33 58 0 30 5 41 28 54 30 19
58 23 66 9z m643 -48 c-3 -10 -5 -2 -5 17 0 19 2 27 5 18 2 -10 2 -26 0 -35z
m-597 -19 c0 -18 -4 -35 -8 -38 -4 -2 -6 11 -4 30 3 20 -2 42 -9 52 -13 15
-12 16 4 3 10 -8 17 -27 17 -47z m-446 12 c9 -13 7 -20 -8 -31 -24 -18 -46 -3
-45 29 1 20 1 20 7 -2 4 -13 10 -23 15 -23 4 1 12 1 17 1 17 0 11 28 -7 40
-11 7 -12 10 -4 7 8 -2 19 -11 25 -21z m-419 -6 c3 -5 1 -10 -4 -10 -6 0 -11
5 -11 10 0 6 2 10 4 10 3 0 8 -4 11 -10z m1506 -100 c21 -11 39 -23 39 -26 0
-3 -19 5 -42 18 -37 20 -43 28 -44 58 l-1 35 4 -33 c3 -26 12 -36 44 -52z
m-367 19 c20 -12 36 -23 36 -25 0 -5 -44 18 -70 35 -27 19 -2 11 34 -10z m114
-9 c-27 -17 -54 -30 -60 -30 -7 0 5 9 27 21 22 12 44 25 50 30 5 5 14 9 20 9
5 0 -11 -14 -37 -30z m422 -25 c0 -2 -13 -11 -30 -20 -38 -19 -40 -11 -2 9 31
17 32 18 32 11z m-71 -41 c14 -12 -19 -1 -35 12 -18 14 -18 14 6 3 14 -6 27
-13 29 -15z m-86 -96 c26 -18 27 -23 27 -98 0 -75 -1 -80 -27 -98 -43 -29
-123 -73 -123 -68 0 3 32 24 70 46 l70 41 0 79 0 79 -70 41 c-38 22 -70 43
-70 46 0 5 80 -39 123 -68z m-133 57 c0 -2 -13 -11 -30 -20 -38 -19 -40 -11
-2 9 31 17 32 18 32 11z m-84 -50 c-11 -8 -23 -15 -27 -15 -4 0 -10 -8 -12
-17 -4 -17 -5 -17 -6 -1 0 10 11 24 27 32 35 19 42 19 18 1z m-276 -10 c17 -9
30 -18 30 -21 0 -2 -14 3 -31 11 -29 15 -32 15 -75 -10 -43 -25 -44 -27 -44
-75 0 -48 1 -50 44 -75 43 -25 46 -25 75 -10 17 8 31 13 31 11 0 -3 -14 -13
-31 -22 -30 -15 -33 -15 -78 13 -44 28 -46 31 -49 81 l-3 52 47 30 c56 35 48
34 84 15z m70 -95 c0 -46 -4 -59 -17 -65 -15 -5 -16 -4 -5 6 6 7 12 34 12 59
0 25 -6 52 -12 59 -11 10 -10 11 5 6 13 -6 17 -19 17 -65z m-477 36 c10 -8 16
-25 16 -42 l-2 -29 -4 27 c-6 38 -26 52 -55 38 -22 -11 -22 -10 -4 4 24 19 26
19 49 2z m-11 -70 c7 4 8 3 4 -4 -10 -16 -18 -15 -42 4 -18 14 -18 15 4 4 12
-6 28 -8 34 -4z m655 -30 c-4 -10 14 -26 59 -51 66 -37 90 -59 32 -29 -75 38
-107 64 -102 79 4 8 8 15 11 15 3 0 3 -6 0 -14z m398 -189 c43 -28 50 -37 51
-67 l2 -35 -5 33 c-4 33 -15 43 -88 81 -22 12 -33 21 -25 21 8 0 38 -15 65
-33z m-90 15 c-18 -15 -85 -54 -85 -48 0 3 19 16 43 30 43 26 59 33 42 18z
m-349 -28 c18 -14 18 -15 -4 -4 -20 10 -30 8 -63 -14 -21 -15 -39 -23 -39 -19
0 7 68 52 81 53 3 0 14 -7 25 -16z m64 -44 c0 -6 -9 -2 -20 7 -11 10 -20 19
-20 21 0 1 9 -2 20 -8 11 -6 20 -15 20 -20z m-466 11 c4 -5 -3 -7 -13 -4 -10
3 -30 0 -42 -7 -23 -11 -23 -10 -5 4 22 18 52 21 60 7z m688 -118 c8 -10 7
-12 -6 -7 -13 5 -16 19 -14 68 l2 61 3 -55 c3 -30 9 -60 15 -67z m-1098 88 c3
-5 -2 -8 -11 -7 -9 0 -18 -5 -21 -13 -3 -10 1 -12 17 -8 11 3 19 1 15 -4 -7
-12 -31 -11 -39 1 -7 11 12 40 26 40 4 0 10 -4 13 -9z m-404 -15 c0 -3 -4 -8
-10 -11 -5 -3 -10 -1 -10 4 0 6 5 11 10 11 6 0 10 -2 10 -4z m817 -42 l28 17
-24 -20 c-30 -27 -34 -26 -68 5 l-28 25 32 -22 c31 -21 33 -21 60 -5z m437
-21 c-35 -29 -72 -39 -86 -25 -8 8 -5 9 10 5 26 -6 92 32 93 55 0 13 2 14 6 3
4 -9 -6 -24 -23 -38z m453 4 c-3 -7 -20 -20 -38 -30 l-34 -19 25 21 c14 11 28
21 33 21 4 0 8 12 8 28 1 17 3 21 6 9 3 -10 3 -24 0 -30z m-557 -13 c0 -2 -9
0 -20 6 -11 6 -20 13 -20 16 0 2 9 0 20 -6 11 -6 20 -13 20 -16z m430 -50 c0
-2 -13 2 -30 11 -16 9 -30 18 -30 21 0 2 14 -2 30 -11 17 -9 30 -18 30 -21z
m50 11 c0 -2 -10 -9 -22 -15 -22 -11 -22 -10 -4 4 21 17 26 19 26 11z m-189
-152 l50 -28 -3 -60 c-3 -59 -3 -59 -51 -89 -39 -24 -50 -27 -60 -16 -9 10 -9
11 1 6 7 -4 32 4 57 19 45 26 45 26 45 80 0 54 -1 54 -45 80 l-44 26 -46 -26
c-45 -27 -45 -27 -45 -81 0 -49 2 -55 30 -69 17 -9 30 -18 30 -21 0 -3 -15 3
-32 13 -30 17 -33 24 -36 76 l-3 56 48 30 c26 17 50 31 52 31 1 0 25 -12 52
-27z m289 22 c0 -2 -14 -12 -31 -20 l-30 -16 3 -79 c2 -43 0 -76 -4 -73 -5 2
-8 38 -8 79 0 73 1 75 33 94 35 21 37 22 37 15z m-704 -56 c19 -11 34 -23 34
-26 0 -2 -16 5 -35 17 -19 12 -40 18 -46 14 -8 -4 -9 -3 -5 4 10 16 13 15 52
-9z m-76 -14 c-7 -9 -15 -13 -19 -10 -3 3 1 10 9 15 21 14 24 12 10 -5z m-370
-20 c-7 -8 -10 -22 -6 -30 3 -9 2 -13 -4 -10 -14 8 -13 28 2 43 17 17 23 15 8
-3z m40 -20 c0 -8 -3 -16 -7 -18 -5 -3 -8 5 -8 18 0 13 3 21 8 18 4 -2 7 -10
7 -18z m437 -7 c-3 -8 -6 -5 -6 6 -1 11 2 17 5 13 3 -3 4 -12 1 -19z m-107
-33 c11 -13 10 -14 -4 -9 -9 3 -16 10 -16 15 0 13 6 11 20 -6z m66 -20 c-24
-18 -33 -19 -42 -3 -4 7 -3 8 4 4 7 -4 20 -2 29 3 26 15 31 13 9 -4z m714 -51
c0 -2 -9 0 -20 6 -11 6 -20 13 -20 16 0 2 9 0 20 -6 11 -6 20 -13 20 -16z
m-104 -70 c18 -14 18 -15 -5 -4 -12 7 -32 10 -42 7 -10 -3 -17 -1 -13 4 8 14
38 11 60 -7z m-96 -19 c0 -2 -10 -9 -22 -15 -22 -11 -22 -10 -4 4 21 17 26 19
26 11z m226 -66 c0 -8 -1 -9 -3 -3 -2 6 -26 23 -53 38 -28 15 -50 30 -50 33 0
12 105 -55 106 -68z m-557 57 c-10 -9 -69 -36 -69 -32 0 7 52 35 64 36 5 0 7
-2 5 -4z m51 -32 c0 -2 -9 0 -20 6 -11 6 -20 13 -20 16 0 2 9 0 20 -6 11 -6
20 -13 20 -16z m-130 -8 c0 -2 -11 -11 -25 -20 -14 -9 -25 -13 -25 -8 0 5 10
14 23 20 27 13 27 13 27 8z"/>
<path d="M0 1000 c0 -11 5 -20 10 -20 6 0 10 9 10 20 0 11 -4 20 -10 20 -5 0
-10 -9 -10 -20z"/>
<path d="M0 305 c0 -32 2 -36 15 -25 8 7 15 18 15 25 0 7 -7 18 -15 25 -13 11
-15 7 -15 -25z"/>
<path d="M960 20 l-35 -19 75 0 75 0 -35 19 c-19 11 -37 19 -40 19 -3 0 -21
-8 -40 -19z"/>
</g>
</svg>
