<?xml version="1.0" standalone="no"?>
<!DOCTYPE svg PUBLIC "-//W3C//DTD SVG 20010904//EN"
 "http://www.w3.org/TR/2001/REC-SVG-20010904/DTD/svg10.dtd">
<svg version="1.0" xmlns="http://www.w3.org/2000/svg"
 width="200.000000pt" height="200.000000pt" viewBox="0 0 200.000000 200.000000"
 preserveAspectRatio="xMidYMid meet">
<metadata>
Created by potrace 1.16, written by Peter Selinger 2001-2019
</metadata>
<g transform="translate(0.000000,200.000000) scale(0.100000,-0.100000)"
fill="#000000" stroke="none">
<path d="M0 1966 c0 -32 4 -37 96 -90 53 -31 99 -56 103 -56 3 1 46 25 96 53
85 50 90 55 93 90 l3 37 -195 0 -196 0 0 -34z"/>
<path d="M400 1966 c0 -34 4 -37 100 -91 l100 -57 92 54 c89 51 93 55 96 91
l3 37 -195 0 -196 0 0 -34z"/>
<path d="M810 1988 c0 -7 -3 -22 -6 -34 -5 -18 9 -29 95 -78 l101 -57 95 53
c93 52 95 54 95 91 l0 37 -190 0 c-145 0 -190 -3 -190 -12z"/>
<path d="M1212 1963 c3 -36 7 -40 95 -91 l93 -54 95 54 c94 52 95 54 95 91 l0
37 -191 0 -190 0 3 -37z"/>
<path d="M1612 1963 c3 -35 8 -40 93 -90 50 -28 93 -52 96 -53 4 0 50 25 103
56 92 53 96 58 96 90 l0 34 -196 0 -195 0 3 -37z"/>
<path d="M298 1862 l-98 -56 0 -111 0 -111 99 -57 98 -57 97 56 96 56 0 113 0
113 -77 45 c-43 24 -87 49 -98 54 -16 9 -37 1 -117 -45z"/>
<path d="M700 1862 l-95 -57 -1 -100 c-1 -55 3 -107 7 -116 5 -9 49 -39 98
-67 l90 -52 93 54 93 54 3 115 3 115 -93 54 c-51 29 -95 54 -98 55 -3 2 -48
-23 -100 -55z"/>
<path d="M1105 1865 l-90 -53 -3 -115 -3 -115 96 -57 95 -56 98 58 97 58 1
107 c1 69 -2 111 -10 117 -12 10 -187 112 -189 110 -1 0 -42 -25 -92 -54z"/>
<path d="M1502 1863 l-93 -55 3 -115 3 -115 93 -54 94 -54 96 57 97 58 3 110
2 110 -96 55 c-52 30 -99 56 -102 57 -4 1 -49 -24 -100 -54z"/>
<path d="M0 1695 c0 -118 3 -215 6 -215 4 0 47 23 95 51 l89 51 0 113 0 113
-90 51 c-49 28 -92 51 -95 51 -3 0 -5 -97 -5 -215z"/>
<path d="M1898 1859 l-88 -51 0 -113 0 -113 95 -55 95 -56 0 220 c0 120 -3
219 -7 219 -5 0 -47 -23 -95 -51z"/>
<path d="M98 1514 l-98 -55 0 -112 1 -112 97 -56 98 -56 97 56 98 56 -3 114
-3 114 -90 53 c-50 29 -92 53 -95 53 -3 1 -49 -24 -102 -55z"/>
<path d="M497 1513 l-98 -56 3 -111 3 -110 90 -53 c50 -29 96 -53 103 -53 6 0
53 23 102 51 l91 52 -3 115 -3 116 -90 52 c-49 29 -92 53 -95 53 -3 0 -49 -25
-103 -56z"/>
<path d="M900 1514 l-96 -55 1 -112 0 -111 90 -53 c50 -29 96 -53 103 -53 7 0
53 23 102 51 l91 51 -3 116 -3 116 -90 53 c-49 29 -92 53 -95 53 -3 0 -48 -25
-100 -56z"/>
<path d="M1305 1517 l-90 -53 -3 -116 -3 -115 97 -55 97 -55 93 55 c52 30 95
57 95 61 1 3 2 54 3 114 l2 107 -97 55 c-53 30 -99 55 -101 55 -1 0 -43 -24
-93 -53z"/>
<path d="M1703 1514 l-93 -55 0 -112 0 -112 96 -56 97 -57 86 50 c47 27 92 54
99 60 8 7 12 44 12 119 l0 108 -98 55 c-54 31 -100 56 -103 56 -2 -1 -46 -26
-96 -56z"/>
<path d="M0 1000 l0 -221 58 32 c31 18 74 43 95 56 l37 23 0 110 0 110 -37 23
c-21 13 -64 38 -95 56 l-58 32 0 -221z"/>
<path d="M292 1164 l-93 -55 3 -112 3 -111 90 -52 c50 -29 94 -53 98 -54 5 0
51 24 103 53 l94 52 0 115 0 115 -93 53 c-52 28 -98 52 -103 52 -5 -1 -51 -26
-102 -56z"/>
<path d="M695 1165 l-90 -53 -1 -111 0 -112 93 -55 c52 -30 99 -54 106 -52 7
2 51 26 99 53 l88 50 0 115 0 115 -92 53 c-50 28 -96 52 -102 51 -6 0 -51 -25
-101 -54z"/>
<path d="M1098 1167 l-88 -52 0 -115 0 -115 91 -52 c50 -29 94 -53 99 -53 12
0 183 101 191 112 6 10 5 216 -2 222 -20 16 -184 106 -192 105 -7 0 -51 -24
-99 -52z"/>
<path d="M1498 1166 l-88 -51 0 -115 0 -115 88 -50 c48 -27 92 -51 98 -53 6
-2 53 22 105 51 l94 55 3 110 3 110 -95 56 c-52 31 -101 56 -108 55 -7 -1 -52
-24 -100 -53z"/>
<path d="M1903 1167 l-93 -52 0 -115 0 -115 93 -52 92 -53 3 110 c1 61 1 159
0 220 l-3 110 -92 -53z"/>
<path d="M98 821 l-97 -56 -1 -112 0 -112 99 -56 100 -56 95 56 96 56 0 113 0
112 -77 44 c-43 24 -87 49 -98 55 -17 11 -33 5 -117 -44z"/>
<path d="M500 821 l-95 -57 -3 -111 -3 -111 100 -56 100 -57 93 54 93 53 3
115 3 114 -53 31 c-29 17 -73 42 -98 56 l-45 25 -95 -56z"/>
<path d="M1306 822 l-97 -55 3 -115 3 -116 92 -54 93 -54 92 53 c51 29 95 54
97 56 7 5 10 174 5 205 -4 21 -24 38 -98 81 l-93 54 -97 -55z"/>
<path d="M1706 821 l-96 -56 0 -112 0 -112 95 -56 c53 -31 99 -55 103 -53 4 2
49 27 100 56 l92 54 0 108 c0 74 -4 111 -12 118 -7 5 -52 32 -99 60 l-87 49
-96 -56z"/>
<path d="M901 820 c-47 -27 -89 -56 -93 -64 -4 -8 -7 -60 -6 -115 l3 -102 98
-55 98 -56 92 54 92 53 3 116 3 116 -91 52 c-49 28 -96 51 -102 51 -7 0 -51
-23 -97 -50z"/>
<path d="M298 472 l-98 -57 0 -110 0 -111 96 -55 c53 -29 102 -53 108 -51 6 2
50 26 99 54 l87 50 0 113 0 113 -92 54 c-51 29 -95 54 -98 55 -3 1 -49 -23
-102 -55z"/>
<path d="M711 480 c-46 -26 -88 -53 -94 -59 -12 -12 -19 -156 -10 -204 4 -22
22 -38 98 -82 l93 -55 96 56 96 56 0 113 0 113 -96 56 c-52 31 -96 56 -97 55
-1 0 -40 -22 -86 -49z"/>
<path d="M1102 474 l-93 -56 3 -115 3 -115 92 -54 93 -53 87 50 c49 28 93 55
98 59 8 7 12 120 6 207 -1 16 -24 36 -95 77 -52 31 -96 56 -98 56 -2 -1 -45
-26 -96 -56z"/>
<path d="M1505 475 l-90 -53 -3 -115 -3 -114 68 -40 c136 -80 115 -79 223 -14
l95 56 3 110 2 110 -99 58 c-55 31 -101 57 -103 56 -2 0 -43 -25 -93 -54z"/>
<path d="M1903 472 l-93 -54 0 -113 0 -113 91 -52 c49 -29 92 -50 95 -48 2 3
3 101 2 219 l-3 214 -92 -53z"/>
<path d="M0 305 c0 -118 2 -215 5 -215 3 0 46 23 95 51 l90 51 0 113 0 113
-89 51 c-48 28 -91 51 -95 51 -3 0 -6 -97 -6 -215z"/>
<path d="M98 124 c-94 -53 -98 -57 -98 -90 l0 -34 196 0 195 0 -3 37 c-3 35
-8 40 -93 90 -50 28 -92 52 -95 52 -3 1 -49 -24 -102 -55z"/>
<path d="M498 124 c-94 -54 -98 -58 -98 -90 l0 -34 196 0 195 0 -3 37 c-3 36
-7 40 -93 90 -49 29 -92 52 -95 52 -3 1 -49 -24 -102 -55z"/>
<path d="M900 125 c-90 -52 -94 -56 -96 -90 l-1 -35 194 0 194 0 -3 37 c-3 36
-7 40 -93 90 -49 29 -92 53 -95 53 -3 -1 -48 -25 -100 -55z"/>
<path d="M1305 127 c-85 -50 -90 -55 -93 -90 l-3 -37 190 0 c146 0 191 3 191
13 0 6 3 21 6 33 5 18 -8 29 -93 77 -55 32 -101 57 -104 57 -2 0 -44 -24 -94
-53z"/>
<path d="M1705 127 c-85 -50 -90 -55 -93 -90 l-3 -37 195 0 196 0 0 34 c0 32
-4 37 -96 90 -53 31 -99 56 -103 56 -3 -1 -46 -25 -96 -53z"/>
</g>
</svg>
