<?xml version="1.0" standalone="no"?>
<!DOCTYPE svg PUBLIC "-//W3C//DTD SVG 20010904//EN"
 "http://www.w3.org/TR/2001/REC-SVG-20010904/DTD/svg10.dtd">
<svg version="1.0" xmlns="http://www.w3.org/2000/svg"
 width="200.000000pt" height="200.000000pt" viewBox="0 0 200.000000 200.000000"
 preserveAspectRatio="xMidYMid meet">
<metadata>
Created by potrace 1.16, written by Peter Selinger 2001-2019
</metadata>
<g transform="translate(0.000000,200.000000) scale(0.100000,-0.100000)"
fill="#000000" stroke="none">
<path d="M8 1970 c-4 -29 -1 -33 66 -72 39 -22 85 -48 101 -57 17 -9 32 -17
34 -18 2 -2 4 -57 5 -124 1 -94 -2 -123 -13 -132 -12 -9 -13 -9 -7 1 4 7 7 65
7 129 0 113 0 118 -23 128 -13 5 -25 12 -28 15 -7 8 -137 80 -144 80 -3 0 -6
-90 -6 -200 0 -169 2 -200 14 -198 8 2 14 -1 13 -7 -1 -5 -8 -9 -14 -9 -7 1
-13 -9 -13 -23 0 -17 4 -22 12 -17 10 6 10 5 1 -7 -9 -11 -11 -177 -11 -661
l1 -646 36 20 c20 11 51 29 69 40 18 11 35 18 38 15 3 -3 -16 -18 -43 -33 -26
-15 -50 -31 -53 -35 -3 -3 -15 -9 -27 -13 -14 -5 -23 -15 -23 -27 0 -13 4 -18
12 -13 10 6 10 4 1 -7 -7 -7 -13 -24 -13 -37 0 -19 4 -23 17 -18 16 6 16 6 0
-12 -9 -10 -17 -22 -17 -25 0 -4 74 -7 165 -7 122 0 165 3 165 12 0 9 3 9 12
0 7 -7 20 -12 30 -12 22 0 25 48 6 69 -11 11 -10 12 0 7 7 -4 19 -3 27 4 10 9
13 8 11 -4 -1 -9 -5 -19 -9 -22 -4 -4 -7 -17 -7 -30 0 -22 2 -22 126 -23 117
-1 126 0 120 16 -6 17 -5 17 7 1 13 -16 51 -17 471 -17 264 0 468 4 482 9 16
7 23 7 19 0 -4 -6 61 -9 182 -7 l188 2 3 63 c2 42 -2 69 -10 80 -8 9 -8 13 -1
9 8 -5 11 33 12 148 0 86 -4 153 -8 151 -4 -3 -8 1 -8 9 0 8 4 12 9 9 4 -3 8
9 8 26 0 22 -4 29 -12 24 -10 -6 -10 -5 -1 7 15 19 16 151 0 161 -9 6 -9 10
-1 16 17 10 18 225 1 216 -9 -5 -9 -3 0 7 8 7 13 39 13 72 0 44 -3 56 -13 51
-9 -6 -9 -4 -1 7 17 21 18 472 1 462 -9 -5 -9 -3 0 8 13 16 17 323 4 315 -4
-3 -8 1 -8 9 0 8 4 12 9 9 5 -3 8 25 6 63 l-3 68 -185 2 c-162 3 -187 1 -197
-14 -11 -15 -13 -15 -19 0 -5 14 -30 16 -190 16 -102 0 -183 -3 -180 -7 2 -4
-9 -7 -25 -8 -15 -1 -26 3 -23 7 3 5 -76 9 -174 9 l-180 0 2 -41 c0 -26 -4
-45 -14 -52 -12 -8 -13 -8 -5 1 6 7 9 27 7 46 -3 26 -10 36 -27 40 -12 3 -115
6 -228 6 -152 -1 -207 -4 -210 -13 -4 -9 -6 -9 -6 0 -1 8 -47 12 -165 12
l-164 1 -4 -30z m52 10 c0 -5 -2 -10 -4 -10 -3 0 -8 5 -11 10 -3 6 -1 10 4 10
6 0 11 -4 11 -10z m710 -5 c-7 -8 -17 -15 -22 -15 -6 0 -5 7 2 15 7 8 17 15
22 15 6 0 5 -7 -2 -15z m247 1 c0 -8 -6 -12 -15 -9 -11 5 -11 7 0 14 7 5 13 9
14 9 0 0 1 -6 1 -14z m798 4 c-3 -5 -12 -10 -18 -10 -7 0 -6 4 3 10 19 12 23
12 15 0z m-1415 -10 c-20 -13 -33 -13 -25 0 3 6 14 10 23 10 15 0 15 -2 2 -10z
m195 0 c-3 -5 -12 -10 -18 -10 -7 0 -6 4 3 10 19 12 23 12 15 0z m-139 -35 c1
-9 1 -15 -1 -13 -2 1 -3 6 -2 10 1 4 -7 14 -18 23 -18 15 -19 16 -1 7 11 -5
21 -17 22 -27z m689 25 c-3 -5 -11 -10 -16 -10 -6 0 -7 5 -4 10 3 6 11 10 16
10 6 0 7 -4 4 -10z m405 6 c0 -3 -4 -8 -10 -11 -5 -3 -10 -1 -10 4 0 6 5 11
10 11 6 0 10 -2 10 -4z m-655 -16 c3 -5 2 -10 -4 -10 -5 0 -13 5 -16 10 -3 6
-2 10 4 10 5 0 13 -4 16 -10z m988 -6 c9 -4 17 -10 17 -15 0 -16 -20 -10 -43
12 -12 12 -15 19 -7 15 8 -3 23 -9 33 -12z m-1543 1 c0 -4 -124 -75 -132 -75
-2 0 -5 7 -5 15 0 8 4 12 9 9 10 -7 79 26 84 40 4 11 44 20 44 11z m424 -10
c-4 -8 -8 -15 -10 -15 -2 0 -4 7 -4 15 0 8 4 15 10 15 5 0 7 -7 4 -15z m464
-19 c18 -9 38 -14 44 -10 6 4 8 3 5 -3 -9 -14 61 -56 75 -47 6 4 8 3 5 -3 -11
-18 40 -34 68 -21 14 6 25 15 25 20 0 4 3 7 8 6 13 -4 72 32 72 44 0 6 3 9 6
5 4 -3 20 1 36 9 17 9 32 13 35 11 2 -3 -5 -8 -16 -12 -12 -3 -27 -12 -34 -18
-7 -7 -29 -21 -50 -31 -20 -11 -37 -26 -38 -35 0 -11 -2 -12 -6 -3 -4 9 -11 8
-32 -4 -26 -15 -30 -15 -70 5 -23 12 -47 19 -53 15 -6 -4 -8 -3 -4 4 4 6 -20
25 -59 47 -36 20 -65 42 -65 48 0 9 2 9 8 1 4 -6 22 -19 40 -28z m518 15 c0
-12 -6 -17 -18 -13 -23 6 -23 19 0 25 9 3 17 5 17 6 1 0 1 -7 1 -18z m-1601
-13 c-9 -6 -19 -7 -22 -4 -4 3 -1 6 6 6 7 0 9 4 6 10 -4 6 1 7 11 3 15 -6 15
-7 -1 -15z m536 8 c-9 -11 -8 -15 6 -20 15 -6 15 -8 3 -16 -20 -13 -33 -12
-25 1 4 6 -1 17 -11 25 -15 11 -16 13 -3 8 10 -3 20 -1 24 5 3 6 9 11 12 11 3
0 0 -6 -6 -14z m249 4 c0 -5 -4 -10 -10 -10 -5 0 -10 5 -10 10 0 6 5 10 10 10
6 0 10 -4 10 -10z m160 1 c0 -5 -9 -11 -21 -14 -16 -4 -18 -3 -8 9 13 16 29
19 29 5z m240 -1 c0 -5 -4 -10 -10 -10 -5 0 -10 5 -10 10 0 6 5 10 10 10 6 0
10 -4 10 -10z m160 0 c0 -5 -2 -10 -4 -10 -3 0 -8 5 -11 10 -3 6 -1 10 4 10 6
0 11 -4 11 -10z m-1080 -26 c14 -4 31 -7 38 -6 6 2 12 -4 12 -12 0 -8 8 -17
18 -20 10 -4 41 -21 68 -38 27 -18 55 -31 63 -29 7 1 10 -2 6 -8 -7 -13 -32
-14 -37 -2 -3 7 -109 71 -180 108 -16 8 -28 20 -28 26 0 9 2 9 8 1 4 -6 18
-15 32 -20z m100 16 c0 -5 -10 -10 -22 -10 -19 0 -20 2 -8 10 19 13 30 13 30
0z m385 -20 c-1 -11 -8 -26 -15 -33 -12 -10 -12 -9 -2 4 15 20 4 33 -15 18 -9
-8 -13 -8 -13 -1 0 10 27 31 41 32 3 0 5 -9 4 -20z m255 -1 c0 -18 -2 -20 -15
-9 -13 11 -13 15 -3 21 18 12 18 12 18 -12z m307 -1 c-3 -8 -6 -5 -6 6 -1 11
2 17 5 13 3 -3 4 -12 1 -19z m-687 1 c0 -5 5 -7 10 -4 6 3 10 2 10 -3 0 -5 -8
-12 -18 -14 -12 -4 -18 1 -18 13 0 11 4 19 8 19 4 0 8 -5 8 -11z m903 -2 c3
-8 -3 -14 -15 -14 -16 -2 -17 1 -8 13 15 17 17 17 23 1z m275 -8 c3 -8 1 -11
-3 -7 -5 4 -15 2 -24 -5 -14 -10 -14 -10 -4 4 7 9 9 19 5 24 -4 4 -1 6 7 3 8
-2 17 -11 19 -19z m-1619 -15 c6 4 11 5 11 2 0 -3 -10 -10 -21 -17 -15 -8 -19
-8 -15 0 4 6 2 11 -4 11 -6 0 -8 5 -4 11 5 8 9 8 14 -1 4 -7 13 -9 19 -6z
m398 -4 c1 -11 -3 -20 -9 -20 -6 0 -5 -7 3 -17 13 -16 12 -17 -3 -5 -9 8 -23
10 -29 6 -7 -4 -9 -3 -5 4 3 5 1 12 -6 14 -7 3 -5 7 6 11 11 4 15 3 10 -4 -4
-7 -1 -10 7 -7 8 3 13 12 11 22 -2 9 1 16 5 16 5 0 9 -9 10 -20z m287 12 c2
-4 -4 -8 -14 -8 -10 0 -16 4 -14 8 3 4 9 8 14 8 5 0 11 -4 14 -8z m197 -5 c-6
-8 -9 -16 -7 -18 2 -2 -6 -4 -19 -4 -26 0 -25 3 7 21 31 16 32 16 19 1z m-624
-11 c0 -8 -6 -12 -14 -9 -7 3 -10 9 -7 14 8 14 21 11 21 -5z m-313 -7 c-2 -4
2 -9 8 -11 8 -3 3 -10 -12 -18 -23 -12 -24 -12 -11 3 9 11 10 17 2 17 -6 0
-11 4 -11 8 0 5 7 9 15 9 8 0 12 -4 9 -8z m683 -14 c0 -10 -5 -11 -19 -4 -10
6 -16 14 -13 19 8 13 32 2 32 -15z m119 0 c1 -8 -6 -13 -16 -12 -19 1 -22 17
-5 29 11 8 18 3 21 -17z m544 -1 c0 -2 -9 0 -20 6 -11 6 -20 13 -20 16 0 2 9
0 20 -6 11 -6 20 -13 20 -16z m265 18 c20 11 20 10 0 -9 -11 -11 -26 -20 -32
-20 -7 0 -11 3 -8 5 3 3 -1 12 -8 20 -10 13 -9 14 8 4 15 -7 26 -7 40 0z
m-1260 -13 c4 -6 14 -8 24 -4 12 5 13 3 4 -6 -9 -9 -17 -8 -34 5 -13 9 -18 16
-12 16 7 0 15 -5 18 -11z m241 -16 c-2 -2 -11 0 -20 3 -14 5 -15 9 -5 15 12 7
34 -10 25 -18z m887 12 c3 -6 -3 -11 -12 -12 -10 -1 -18 4 -18 11 0 16 25 17
30 1z m-1670 -15 c3 -11 1 -20 -4 -20 -5 0 -9 9 -9 20 0 11 2 20 4 20 2 0 6
-9 9 -20z m292 10 c3 -6 -1 -7 -9 -4 -18 7 -21 14 -7 14 6 0 13 -4 16 -10z
m888 -5 c4 -8 2 -17 -3 -20 -6 -4 -10 3 -10 14 0 25 6 27 13 6z m425 -31 c1
-1 -5 -4 -15 -6 -13 -4 -19 0 -19 13 0 14 3 16 16 6 8 -6 16 -12 18 -13z m132
11 c-7 -8 -17 -12 -23 -8 -6 4 -3 9 9 14 27 11 28 11 14 -6z m140 11 c0 -3 -4
-8 -10 -11 -5 -3 -10 -1 -10 4 0 6 5 11 10 11 6 0 10 -2 10 -4z m-1175 -16
c-3 -5 -12 -10 -18 -10 -7 0 -6 4 3 10 19 12 23 12 15 0z m362 -22 c-3 -7 -5
-2 -5 12 0 14 2 19 5 13 2 -7 2 -19 0 -25z m413 -3 c0 -10 -16 -4 -40 16 l-25
20 33 -16 c17 -8 32 -18 32 -20z m365 17 c-3 -3 -11 0 -18 7 -9 10 -8 11 6 5
10 -3 15 -9 12 -12z m-1765 -119 c0 -64 -3 -114 -6 -110 -4 3 -6 54 -5 112 2
81 -1 105 -10 99 -8 -4 -9 -3 -5 4 19 31 26 3 26 -105z m300 107 c0 -5 -2 -10
-4 -10 -3 0 -8 5 -11 10 -3 6 -1 10 4 10 6 0 11 -4 11 -10z m495 -8 c-3 -3
-11 0 -18 7 -9 10 -8 11 6 5 10 -3 15 -9 12 -12z m520 9 c3 -5 1 -12 -5 -16
-5 -3 -10 1 -10 9 0 18 6 21 15 7z m-745 -11 c0 -5 -5 -10 -11 -10 -5 0 -7 5
-4 10 3 6 8 10 11 10 2 0 4 -4 4 -10z m615 0 c3 -5 1 -10 -4 -10 -6 0 -11 5
-11 10 0 6 2 10 4 10 3 0 8 -4 11 -10z m411 -18 c-4 -3 -14 2 -24 12 -16 18
-16 18 6 6 13 -6 21 -14 18 -18z m-562 10 c2 -4 -4 -8 -14 -8 -10 0 -16 4 -14
8 3 4 9 8 14 8 5 0 11 -4 14 -8z m-337 -24 c-3 -8 -6 -5 -6 6 -1 11 2 17 5 13
3 -3 4 -12 1 -19z m753 18 c0 -2 -7 -7 -16 -10 -8 -3 -12 -2 -9 4 6 10 25 14
25 6z m-1065 -26 c3 -5 1 -10 -4 -10 -6 0 -11 5 -11 10 0 6 2 10 4 10 3 0 8
-4 11 -10z m865 0 c0 -5 -2 -10 -4 -10 -3 0 -8 5 -11 10 -3 6 -1 10 4 10 6 0
11 -4 11 -10z m421 -7 c12 -15 12 -16 -1 -8 -8 5 -21 10 -28 11 -23 4 -27 14
-5 14 11 0 27 -8 34 -17z m-1196 -3 c9 7 15 8 15 2 0 -12 -59 -34 -72 -26 -5
3 -4 12 3 20 9 11 15 11 25 3 11 -9 18 -8 29 1z m630 0 c3 -5 2 -10 -4 -10 -5
0 -13 5 -16 10 -3 6 -2 10 4 10 5 0 13 -4 16 -10z m285 0 c0 -5 -5 -10 -11
-10 -5 0 -7 5 -4 10 3 6 8 10 11 10 2 0 4 -4 4 -10z m121 -7 c13 -15 12 -15
-8 -4 -24 12 -29 21 -14 21 5 0 15 -7 22 -17z m-718 -17 c4 -10 0 -12 -14 -9
-10 3 -16 9 -13 14 8 13 21 11 27 -5z m121 5 c3 -5 -3 -11 -13 -14 -14 -3 -18
-1 -14 9 6 16 19 18 27 5z m396 -11 c0 -11 -2 -20 -4 -20 -2 0 -6 9 -9 20 -3
11 -1 20 4 20 5 0 9 -9 9 -20z m420 -1 c14 -11 19 -18 12 -14 -7 4 -19 1 -27
-5 -11 -9 -15 -9 -15 -1 0 6 5 11 12 11 6 0 3 7 -8 15 -10 8 -14 14 -9 14 6 1
21 -9 35 -20z m-1353 -11 c-3 -8 -6 -5 -6 6 -1 11 2 17 5 13 3 -3 4 -12 1 -19z
m968 2 c3 -6 -1 -7 -9 -4 -18 7 -21 14 -7 14 6 0 13 -4 16 -10z m-150 -18 c-3
-3 -11 0 -18 7 -9 10 -8 11 6 5 10 -3 15 -9 12 -12z m-80 -2 c-3 -5 -12 -10
-18 -10 -7 0 -6 4 3 10 19 12 23 12 15 0z m-550 -10 c3 -6 -1 -7 -9 -4 -18 7
-21 14 -7 14 6 0 13 -4 16 -10z m940 0 c-3 -5 -11 -10 -16 -10 -6 0 -7 5 -4
10 3 6 11 10 16 10 6 0 7 -4 4 -10z m-255 -10 c0 -5 -4 -10 -10 -10 -5 0 -10
5 -10 10 0 6 5 10 10 10 6 0 10 -4 10 -10z m405 -2 c3 -3 -5 -8 -19 -10 -16
-3 -23 -1 -19 8 4 12 27 13 38 2z m-1215 -18 c-20 -13 -33 -13 -25 0 3 6 14
10 23 10 15 0 15 -2 2 -10z m191 -8 c-7 -2 -18 1 -23 6 -8 8 -4 9 13 5 13 -4
18 -8 10 -11z m419 8 c0 -5 -4 -10 -10 -10 -5 0 -10 5 -10 10 0 6 5 10 10 10
6 0 10 -4 10 -10z m400 0 c0 -5 -2 -10 -4 -10 -3 0 -8 5 -11 10 -3 6 -1 10 4
10 6 0 11 -4 11 -10z m-1525 -10 c-3 -5 -11 -10 -16 -10 -6 0 -7 5 -4 10 3 6
11 10 16 10 6 0 7 -4 4 -10z m571 -18 c-4 -3 -14 2 -24 12 -16 18 -16 18 6 6
13 -6 21 -14 18 -18z m699 18 c-3 -5 -11 -10 -16 -10 -6 0 -7 5 -4 10 3 6 11
10 16 10 6 0 7 -4 4 -10z m395 -4 c0 -2 -7 -7 -16 -10 -8 -3 -12 -2 -9 4 6 10
25 14 25 6z m-590 -10 c0 -3 -4 -8 -10 -11 -5 -3 -10 -1 -10 4 0 6 5 11 10 11
6 0 10 -2 10 -4z m100 -6 c0 -5 -2 -10 -4 -10 -3 0 -8 5 -11 10 -3 6 -1 10 4
10 6 0 11 -4 11 -10z m300 6 c0 -3 -4 -8 -10 -11 -5 -3 -10 -1 -10 4 0 6 5 11
10 11 6 0 10 -2 10 -4z m120 -17 l25 -20 -32 16 c-18 8 -33 18 -33 20 0 10 16
4 40 -16z m-1598 -19 c3 -17 1 -33 -4 -36 -4 -3 -8 11 -8 30 0 44 6 47 12 6z
m288 26 c0 -2 -7 -7 -16 -10 -8 -3 -12 -2 -9 4 6 10 25 14 25 6z m357 -15 c-1
-16 -5 -18 -19 -10 -10 5 -18 12 -18 15 0 3 4 3 9 -1 5 -3 12 -1 16 5 9 15 14
12 12 -9z m163 -14 c0 -1 -11 -3 -24 -3 -17 -1 -23 2 -19 12 4 10 10 11 24 3
10 -5 19 -11 19 -12z m248 11 c7 -7 12 -16 12 -22 0 -5 -6 -2 -13 9 -9 11 -19
15 -27 10 -9 -5 -11 -4 -6 3 9 15 19 15 34 0z m136 -2 c-10 -8 -21 -12 -24
-10 -5 6 21 24 34 24 6 0 1 -6 -10 -14z m272 -1 c10 -8 14 -15 7 -15 -6 0 -15
5 -18 11 -4 6 -14 8 -22 5 -8 -3 -11 -1 -8 4 8 14 18 13 41 -5z m-818 -68 c6
-5 12 -7 12 -3 0 3 9 -3 21 -15 13 -13 28 -19 41 -15 16 4 18 2 9 -7 -16 -16
-15 -71 2 -64 8 3 14 -1 14 -8 0 -7 -6 -11 -14 -8 -17 7 -18 -73 0 -81 10 -5
10 -7 0 -12 -19 -8 -16 -55 5 -71 16 -13 15 -13 -4 -4 -15 7 -27 6 -43 -5 -12
-9 -19 -20 -16 -25 4 -5 2 -9 -4 -9 -5 0 -12 4 -16 10 -5 8 -24 -3 -60 -37 -8
-7 -20 -13 -27 -13 -7 0 -21 -7 -31 -14 -16 -12 -23 -12 -50 2 -17 10 -37 23
-45 30 -7 6 -20 12 -28 12 -8 0 -14 3 -14 8 0 10 -58 35 -68 28 -4 -2 -8 4 -8
14 0 20 4 18 134 -59 29 -17 57 -31 61 -31 5 0 20 9 35 21 14 11 26 18 26 14
0 -3 14 3 30 15 17 12 28 25 25 30 -3 4 3 7 12 6 10 -2 28 1 40 7 19 8 21 17
21 85 1 42 -4 82 -10 89 -7 9 -7 13 1 13 6 0 11 11 11 25 0 18 -8 29 -27 38
-16 6 -31 16 -34 21 -4 5 -14 6 -24 3 -9 -4 -13 -3 -10 3 3 5 -12 18 -33 29
-21 11 -45 27 -53 37 -13 16 84 -32 119 -59z m1146 46 c3 -12 -1 -20 -10 -20
-9 0 -13 6 -9 14 3 8 5 20 5 25 0 17 10 3 14 -19z m81 17 c3 -5 1 -10 -4 -10
-6 0 -11 5 -11 10 0 6 2 10 4 10 3 0 8 -4 11 -10z m-1669 -25 c-9 -7 -17 -25
-17 -41 -1 -18 -3 -22 -6 -11 -3 13 -10 16 -25 11 -14 -4 -18 -2 -14 5 4 6 14
11 22 11 8 0 15 5 15 10 1 9 4 19 8 35 0 2 8 2 17 -2 16 -6 16 -7 0 -18z m180
8 c0 -11 6 -17 16 -17 10 1 15 -2 12 -7 -3 -5 0 -9 6 -9 6 0 8 -4 5 -10 -3 -5
-11 -10 -16 -10 -6 0 -8 4 -5 9 3 5 -8 14 -24 21 -17 7 -30 17 -30 22 0 5 5 6
10 3 6 -3 10 -1 10 4 0 6 4 11 9 11 5 0 8 -8 7 -17z m84 13 c0 -3 -4 -8 -10
-11 -5 -3 -10 -1 -10 4 0 6 5 11 10 11 6 0 10 -2 10 -4z m-376 -17 c-2 -4 2
-10 8 -13 7 -3 2 -3 -11 0 -15 4 -21 2 -17 -4 3 -6 2 -13 -3 -16 -5 -4 -8 2
-6 11 2 10 4 21 4 24 1 3 8 6 16 6 8 0 12 -4 9 -8z m783 4 c-4 -3 -1 -13 6
-22 10 -14 10 -14 -5 -3 -9 8 -23 11 -30 7 -7 -4 -4 1 6 9 19 16 36 22 23 9z
m117 -8 c2 -6 -5 -12 -15 -12 -11 -1 -17 2 -14 7 3 4 -1 10 -7 13 -7 3 -3 4 9
4 12 -1 24 -6 27 -12z m276 1 c9 -12 8 -15 -8 -13 -12 0 -18 6 -15 14 6 16 8
16 23 -1z m123 1 c3 -8 -1 -14 -9 -14 -15 0 -18 9 -7 20 9 9 10 9 16 -6z m278
-3 c11 -13 11 -15 -2 -13 -7 2 -25 -3 -39 -10 l-25 -14 25 26 c14 14 26 25 26
26 1 1 7 -6 15 -15z m-1536 -3 c3 -5 2 -12 -3 -15 -5 -3 -9 1 -9 9 0 17 3 19
12 6z m995 -5 c-7 -7 -13 -7 -20 0 -6 6 -3 10 10 10 13 0 16 -4 10 -10z m410
7 c0 -1 -8 -7 -18 -12 -13 -7 -19 -6 -19 2 0 7 9 13 19 13 10 0 18 -1 18 -3z
m-1030 -27 c-7 -7 -13 -7 -20 0 -6 6 -3 10 10 10 13 0 16 -4 10 -10z m699 -9
c-24 -23 -39 -25 -39 -5 0 6 3 8 6 5 4 -3 16 0 28 8 30 22 33 18 5 -8z m-1182
-2 c0 -17 -13 -20 -21 -6 -4 5 0 12 6 14 7 3 13 6 14 6 0 1 1 -6 1 -14z m358
-13 c-8 -8 -25 10 -19 20 4 6 9 5 15 -3 4 -7 6 -15 4 -17z m680 16 c4 4 6 1 3
-7 -2 -8 -11 -17 -19 -19 -8 -3 -11 -1 -7 3 4 5 2 15 -5 24 -10 14 -10 14 4 4
9 -7 19 -9 24 -5z m275 5 c0 -1 -8 -7 -18 -12 -13 -7 -19 -6 -19 2 0 7 9 13
19 13 10 0 18 -1 18 -3z m125 -5 c4 4 6 1 3 -7 -2 -8 -11 -17 -19 -19 -8 -3
-11 -1 -7 3 4 5 2 15 -5 24 -10 14 -10 14 4 4 9 -7 19 -9 24 -5z m270 2 c-3
-5 -12 -10 -18 -10 -7 0 -6 4 3 10 19 12 23 12 15 0z m-1435 -9 c0 -5 11 -8
25 -7 13 2 22 -1 19 -5 -3 -5 0 -9 6 -9 6 0 8 -4 5 -10 -3 -5 -11 -10 -16 -10
-6 0 -7 5 -4 10 3 6 1 11 -4 11 -12 2 -26 5 -38 9 -5 1 -11 2 -15 1 -5 0 -8 4
-8 9 0 6 7 10 15 10 8 0 15 -4 15 -9z m497 -5 c0 -6 -10 -11 -23 -11 -15 0
-19 4 -13 11 5 6 15 11 22 11 8 0 14 -5 14 -11z m796 -7 c-4 -16 -8 -17 -14
-7 -13 19 -11 28 5 28 9 0 12 -7 9 -21z m269 -1 c-7 -7 -12 -8 -12 -2 0 6 3
14 7 17 3 4 9 5 12 2 2 -3 -1 -11 -7 -17z m-1886 -13 c-4 -24 -16 -30 -16 -7
0 12 4 22 9 22 5 0 8 -7 7 -15z m612 2 c8 -10 6 -13 -8 -14 -13 -1 -17 3 -13
13 6 17 8 17 21 1z m1317 -5 c-3 -3 -11 0 -18 7 -9 10 -8 11 6 5 10 -3 15 -9
12 -12z m-1635 -14 c0 -6 8 -17 18 -24 15 -12 15 -12 -5 -7 -13 3 -23 12 -23
20 0 8 -4 12 -8 9 -5 -3 -9 1 -9 8 0 8 6 12 14 9 7 -3 13 -10 13 -15z m160 12
c0 -5 -4 -10 -10 -10 -5 0 -10 5 -10 10 0 6 5 10 10 10 6 0 10 -4 10 -10z
m431 1 c-7 -5 -10 -14 -6 -21 6 -9 3 -9 -14 -1 -11 7 -21 14 -21 17 0 3 4 3 9
-1 5 -3 12 -1 16 5 3 5 12 10 18 10 8 0 7 -3 -2 -9z m806 -23 c-3 -7 -5 -2 -5
12 0 14 2 19 5 13 2 -7 2 -19 0 -25z m-662 12 c3 -5 1 -10 -4 -10 -6 0 -11 5
-11 10 0 6 2 10 4 10 3 0 8 -4 11 -10z m245 0 c0 -5 -5 -10 -11 -10 -5 0 -7 5
-4 10 3 6 8 10 11 10 2 0 4 -4 4 -10z m164 -2 c-3 -4 -9 -8 -15 -8 -5 0 -9 4
-9 8 0 5 7 9 15 9 8 0 12 -4 9 -9z m231 2 c3 -5 1 -10 -4 -10 -6 0 -11 5 -11
10 0 6 2 10 4 10 3 0 8 -4 11 -10z m175 1 c0 -3 -11 -11 -25 -18 -27 -12 -31
-9 -13 11 12 13 38 18 38 7z m-553 -23 c-3 -8 -6 -5 -6 6 -1 11 2 17 5 13 3
-3 4 -12 1 -19z m-927 -48 c4 -3 2 -10 -5 -16 -9 -9 -12 -3 -12 30 0 24 2 31
4 16 3 -14 9 -27 13 -30z m77 28 c-3 -8 -6 -5 -6 6 -1 11 2 17 5 13 3 -3 4
-12 1 -19z m243 12 c0 -5 -2 -10 -4 -10 -3 0 -8 5 -11 10 -3 6 -1 10 4 10 6 0
11 -4 11 -10z m411 -7 c13 -15 12 -15 -8 -4 -24 12 -29 21 -14 21 5 0 15 -7
22 -17z m394 7 c3 -5 1 -10 -4 -10 -6 0 -11 5 -11 10 0 6 2 10 4 10 3 0 8 -4
11 -10z m135 6 c0 -3 -4 -8 -10 -11 -5 -3 -10 -1 -10 4 0 6 5 11 10 11 6 0 10
-2 10 -4z m265 -6 c3 -5 2 -10 -4 -10 -5 0 -13 5 -16 10 -3 6 -2 10 4 10 5 0
13 -4 16 -10z m-1351 -9 c4 -5 -3 -7 -14 -4 -23 6 -26 13 -6 13 8 0 17 -4 20
-9z m-319 -21 c3 -5 2 -10 -4 -10 -5 0 -13 5 -16 10 -3 6 -2 10 4 10 5 0 13
-4 16 -10z m952 -5 c0 -5 -12 -10 -27 -10 -15 0 -27 5 -27 10 0 6 12 10 27 10
15 0 27 -4 27 -10z m400 -1 c0 -6 -11 -9 -24 -6 -33 6 -36 17 -4 17 15 0 28
-5 28 -11z m-1597 -26 c0 -23 -3 -29 -9 -19 -5 7 -7 21 -6 30 5 22 4 21 10 21
3 0 5 -15 5 -32z m1034 17 c3 -8 1 -15 -4 -15 -6 0 -10 7 -10 15 0 8 2 15 4
15 2 0 6 -7 10 -15z m-684 1 c0 -3 -4 -8 -10 -11 -5 -3 -10 -1 -10 4 0 6 5 11
10 11 6 0 10 -2 10 -4z m110 -16 c-8 -6 -22 -10 -30 -10 -8 0 -4 6 10 13 27
15 44 12 20 -3z m175 10 c3 -5 2 -10 -4 -10 -5 0 -13 5 -16 10 -3 6 -2 10 4
10 5 0 13 -4 16 -10z m695 5 c0 -2 -10 -10 -22 -16 -21 -11 -22 -11 -9 4 13
16 31 23 31 12z m105 -5 c3 -5 1 -10 -4 -10 -6 0 -11 5 -11 10 0 6 2 10 4 10
3 0 8 -4 11 -10z m295 6 c0 -3 -4 -8 -10 -11 -5 -3 -10 -1 -10 4 0 6 5 11 10
11 6 0 10 -2 10 -4z m105 -6 c3 -5 1 -10 -4 -10 -6 0 -11 5 -11 10 0 6 2 10 4
10 3 0 8 -4 11 -10z m-1517 -30 c-2 -6 -8 -6 -18 0 -13 9 -13 11 0 20 15 10
25 0 18 -20z m587 20 c-3 -5 -11 -10 -16 -10 -6 0 -7 5 -4 10 3 6 11 10 16 10
6 0 7 -4 4 -10z m335 -12 c0 -6 -6 -5 -15 2 -8 7 -15 14 -15 16 0 2 7 1 15 -2
8 -4 15 -11 15 -16z m-120 8 c0 -3 -4 -8 -10 -11 -5 -3 -10 -1 -10 4 0 6 5 11
10 11 6 0 10 -2 10 -4z m386 -11 c-11 -8 -24 -15 -30 -15 -5 0 -1 7 10 15 10
8 24 14 29 14 6 0 1 -6 -9 -14z m165 1 c8 5 9 3 5 -5 -5 -7 -14 -10 -22 -7 -8
3 -14 -1 -14 -9 0 -8 -4 -15 -9 -15 -4 0 -6 11 -3 25 3 20 7 23 18 14 7 -6 19
-7 25 -3z m249 10 c0 -3 -4 -8 -10 -11 -5 -3 -10 -1 -10 4 0 6 5 11 10 11 6 0
10 -2 10 -4z m-1895 -16 c3 -5 1 -10 -4 -10 -6 0 -11 5 -11 10 0 6 2 10 4 10
3 0 8 -4 11 -10z m442 -22 c-3 -7 -5 -2 -5 12 0 14 2 19 5 13 2 -7 2 -19 0
-25z m398 14 c-3 -3 -11 0 -18 7 -9 10 -8 11 6 5 10 -3 15 -9 12 -12z m220 0
c-3 -3 -11 0 -18 7 -9 10 -8 11 6 5 10 -3 15 -9 12 -12z m-689 -7 c-11 -8 -25
-15 -30 -15 -6 0 -2 7 8 15 11 8 25 15 30 15 6 0 2 -7 -8 -15z m319 -5 c3 -5
1 -10 -4 -10 -6 0 -11 5 -11 10 0 6 2 10 4 10 3 0 8 -4 11 -10z m125 5 c0 -2
-10 -10 -22 -16 -21 -11 -22 -11 -9 4 13 16 31 23 31 12z m70 -10 c11 -13 10
-14 -4 -9 -9 3 -16 10 -16 15 0 13 6 11 20 -6z m117 -7 c-3 -8 -6 -5 -6 6 -1
11 2 17 5 13 3 -3 4 -12 1 -19z m88 12 c3 -5 1 -10 -4 -10 -6 0 -11 5 -11 10
0 6 2 10 4 10 3 0 8 -4 11 -10z m202 -22 c-3 -8 -6 -5 -6 6 -1 11 2 17 5 13 3
-3 4 -12 1 -19z m400 -25 c-3 -10 -5 -4 -5 12 0 17 2 24 5 18 2 -7 2 -21 0
-30z m-1602 9 c-3 -3 -11 0 -18 7 -9 10 -8 11 6 5 10 -3 15 -9 12 -12z m285
-3 c0 -4 -7 -6 -15 -3 -8 4 -15 10 -15 15 0 4 7 6 15 3 8 -4 15 -10 15 -15z
m790 11 c0 -5 -9 -10 -20 -10 -11 0 -20 5 -20 10 0 6 9 10 20 10 11 0 20 -4
20 -10z m400 0 c0 -5 -9 -10 -20 -10 -11 0 -20 5 -20 10 0 6 9 10 20 10 11 0
20 -4 20 -10z m-210 -14 c0 -2 -7 -7 -16 -10 -8 -3 -12 -2 -9 4 6 10 25 14 25
6z m-1350 -31 c0 -2 -9 -3 -20 -2 -11 1 -20 7 -20 14 0 11 5 11 20 3 11 -6 20
-13 20 -15z m677 -7 c-3 -7 -5 -2 -5 12 0 14 2 19 5 13 2 -7 2 -19 0 -25z
m933 22 c0 -5 -2 -10 -4 -10 -3 0 -8 5 -11 10 -3 6 -1 10 4 10 6 0 11 -4 11
-10z m285 0 c-3 -5 -11 -10 -16 -10 -6 0 -7 5 -4 10 3 6 11 10 16 10 6 0 7 -4
4 -10z m-1290 -21 c4 -6 13 -8 19 -6 7 3 13 -1 13 -8 0 -11 -6 -11 -29 1 -28
15 -36 24 -19 24 6 0 13 -5 16 -11z m407 -2 c15 -12 15 -14 -4 -26 -11 -7 -22
-10 -25 -7 -3 3 2 8 11 12 15 6 15 7 -1 20 -10 7 -13 13 -8 13 6 0 18 -5 27
-12z m270 -4 c-10 -4 -8 -9 5 -19 10 -7 14 -13 8 -13 -5 -1 -21 8 -35 19 -14
11 -18 18 -9 14 10 -3 20 0 24 6 4 6 10 8 14 4 3 -4 0 -9 -7 -11z m130 4 c15
-12 15 -14 -3 -25 -11 -7 -19 -8 -19 -2 0 5 5 10 12 10 6 0 3 7 -8 15 -10 8
-14 14 -9 14 6 0 18 -5 27 -12z m288 9 c0 -3 -4 -8 -10 -11 -5 -3 -10 -1 -10
4 0 6 5 11 10 11 6 0 10 -2 10 -4z m112 -33 c-14 -7 -27 -11 -30 -8 -3 2 3 7
12 11 12 5 14 10 6 20 -9 10 -7 11 13 1 l24 -11 -25 -13z m-935 13 c0 -8 -6
-12 -14 -9 -7 3 -10 9 -7 14 8 14 21 11 21 -5z m-817 -1 c0 -2 -13 -11 -30
-20 -18 -10 -30 -23 -30 -36 0 -11 -5 -17 -10 -14 -6 4 -7 11 -4 17 4 6 -2 8
-17 4 -13 -3 -18 -3 -11 0 6 3 10 9 7 14 -2 4 5 7 18 6 13 -1 21 4 19 12 -1 8
2 11 8 7 5 -3 18 -1 27 4 21 12 23 13 23 6z m157 -10 c0 -7 -8 -13 -17 -12 -9
0 -17 6 -17 12 0 6 8 12 17 12 9 1 17 -5 17 -12z m258 5 c3 -6 -1 -7 -9 -4
-18 7 -21 14 -7 14 6 0 13 -4 16 -10z m686 -7 c13 -16 12 -17 -3 -4 -10 7 -18
15 -18 17 0 8 8 3 21 -13z m509 13 c0 -2 -7 -7 -16 -10 -8 -3 -12 -2 -9 4 6
10 25 14 25 6z m-1230 -16 c0 -5 -5 -10 -11 -10 -5 0 -7 5 -4 10 3 6 8 10 11
10 2 0 4 -4 4 -10z m160 0 c0 -5 -5 -10 -11 -10 -5 0 -7 5 -4 10 3 6 8 10 11
10 2 0 4 -4 4 -10z m1095 0 c3 -5 1 -10 -4 -10 -6 0 -11 5 -11 10 0 6 2 10 4
10 3 0 8 -4 11 -10z m-598 -25 c0 -7 -8 -13 -17 -12 -11 1 -15 7 -13 18 6 20
30 15 30 -6z m510 2 c-2 -6 -10 -13 -18 -15 -8 -3 -11 -1 -7 3 4 5 3 14 -3 21
-8 9 -5 11 11 7 11 -3 19 -10 17 -16z m-1301 -2 c9 -8 11 -15 5 -15 -5 0 -13
5 -17 11 -4 8 -9 8 -17 0 -6 -6 -15 -11 -21 -11 -5 0 -1 7 10 15 24 18 22 18
40 0z m505 -2 c13 -15 12 -15 -8 -4 -24 12 -29 21 -14 21 5 0 15 -7 22 -17z
m402 4 c3 -8 -1 -14 -9 -14 -7 0 -15 6 -18 14 -3 7 1 13 8 13 8 0 16 -6 19
-13z m284 0 c0 -7 -8 -13 -18 -13 -9 0 -15 6 -12 13 3 7 11 13 17 13 7 0 13
-6 13 -13z m400 -1 c0 -8 -8 -14 -18 -13 -9 1 -15 7 -12 14 7 18 30 17 30 -1z
m-1757 -11 c-7 -8 -17 -12 -23 -8 -6 4 -3 9 9 14 27 11 28 11 14 -6z m80 11
c0 -3 -4 -8 -10 -11 -5 -3 -10 -1 -10 4 0 6 5 11 10 11 6 0 10 -2 10 -4z
m1529 -10 c-2 -2 -15 -9 -29 -15 -24 -11 -24 -11 -6 3 16 13 49 24 35 12z
m-1519 -21 c-9 -11 -9 -15 -1 -15 7 0 9 -4 6 -10 -4 -6 -11 -5 -19 2 -11 11
-10 15 3 25 22 17 26 16 11 -2z m515 5 c-3 -5 -12 -10 -18 -10 -7 0 -6 4 3 10
19 12 23 12 15 0z m665 -30 c-1 -12 -4 -11 -15 4 -8 10 -12 23 -8 29 7 11 23
-12 23 -33z m-1240 20 c0 -5 -2 -10 -4 -10 -3 0 -8 5 -11 10 -3 6 -1 10 4 10
6 0 11 -4 11 -10z m100 0 c0 -5 -5 -10 -11 -10 -5 0 -7 5 -4 10 3 6 8 10 11
10 2 0 4 -4 4 -10z m610 0 c8 -5 11 -12 7 -16 -4 -4 -15 0 -24 9 -18 18 -8 23
17 7z m136 -28 c-9 -8 -26 10 -26 26 1 15 2 15 15 -2 8 -11 13 -21 11 -24z
m134 28 c0 -5 -5 -10 -11 -10 -5 0 -7 5 -4 10 3 6 8 10 11 10 2 0 4 -4 4 -10z
m657 -5 c9 -25 -4 -29 -17 -6 -7 15 -7 21 0 21 6 0 13 -7 17 -15z m-1763 -6
c-4 -7 0 -9 14 -5 24 8 34 -4 21 -24 -7 -12 -9 -12 -9 3 0 10 -4 15 -10 12
-13 -8 -32 4 -25 16 4 5 8 9 11 9 3 0 2 -5 -2 -11z m356 -4 c0 -6 -8 -11 -18
-11 -10 0 -19 5 -19 11 0 6 9 11 19 11 10 0 18 -5 18 -11z m888 3 c-2 -6 -10
-14 -16 -16 -7 -2 -10 2 -6 12 7 18 28 22 22 4z m406 3 c3 -5 -3 -11 -13 -14
-14 -3 -18 -1 -14 9 6 16 19 18 27 5z m-1004 -11 c0 -5 -5 -10 -11 -10 -5 0
-7 5 -4 10 3 6 8 10 11 10 2 0 4 -4 4 -10z m130 -20 c0 -4 -7 -10 -15 -14 -10
-4 -15 1 -15 14 0 13 5 18 15 14 8 -4 15 -10 15 -14z m280 16 c0 -3 -4 -8 -10
-11 -5 -3 -10 -1 -10 4 0 6 5 11 10 11 6 0 10 -2 10 -4z m100 -6 c0 -5 -2 -10
-4 -10 -3 0 -8 5 -11 10 -3 6 -1 10 4 10 6 0 11 -4 11 -10z m300 6 c0 -3 -4
-8 -10 -11 -5 -3 -10 -1 -10 4 0 6 5 11 10 11 6 0 10 -2 10 -4z m120 -17 l25
-20 -32 16 c-18 8 -33 18 -33 20 0 10 16 4 40 -16z m-550 -3 c0 -2 -7 -7 -16
-10 -8 -3 -12 -2 -9 4 6 10 25 14 25 6z m159 1 c-2 -1 -13 -9 -24 -17 -19 -14
-19 -14 -6 3 7 9 18 17 24 17 6 0 8 -1 6 -3z m641 -1 c0 -2 -7 -7 -16 -10 -8
-3 -12 -2 -9 4 6 10 25 14 25 6z m-1550 -16 c0 -5 -7 -10 -15 -10 -8 0 -15 5
-15 10 0 6 7 10 15 10 8 0 15 -4 15 -10z m370 -5 c0 -8 -2 -15 -4 -15 -2 0 -6
7 -10 15 -3 8 -1 15 4 15 6 0 10 -7 10 -15z m-550 -17 c0 -19 -2 -20 -10 -8
-13 19 -13 30 0 30 6 0 10 -10 10 -22z m345 12 c3 -5 1 -10 -4 -10 -6 0 -11 5
-11 10 0 6 2 10 4 10 3 0 8 -4 11 -10z m120 0 c-3 -5 -12 -10 -18 -10 -7 0 -6
4 3 10 19 12 23 12 15 0z m815 -5 c-7 -9 -15 -13 -19 -10 -3 3 1 10 9 15 21
14 24 12 10 -5z m-1140 1 c0 -3 -4 -8 -10 -11 -5 -3 -10 -1 -10 4 0 6 5 11 10
11 6 0 10 -2 10 -4z m464 -10 c-3 -9 -12 -12 -22 -9 -15 6 -9 11 25 22 1 1 0
-5 -3 -13z m141 4 c3 -5 2 -10 -4 -10 -5 0 -13 5 -16 10 -3 6 -2 10 4 10 5 0
13 -4 16 -10z m125 0 c0 -5 -5 -10 -11 -10 -5 0 -7 5 -4 10 3 6 8 10 11 10 2
0 4 -4 4 -10z m810 6 c0 -3 -4 -8 -10 -11 -5 -3 -10 -1 -10 4 0 6 5 11 10 11
6 0 10 -2 10 -4z m-663 -19 c0 -7 -9 -13 -19 -13 -18 0 -18 1 -2 13 10 7 18
13 19 13 1 0 2 -6 2 -13z m397 -5 c2 -4 -4 -8 -14 -8 -10 0 -16 4 -14 8 3 4 9
8 14 8 5 0 11 -4 14 -8z m208 -6 c6 4 8 2 5 -3 -4 -6 -18 -13 -32 -15 -25 -5
-25 -5 -8 12 10 9 20 13 21 8 2 -4 9 -5 14 -2z m-1362 -6 c0 -5 -2 -10 -4 -10
-3 0 -8 5 -11 10 -3 6 -1 10 4 10 6 0 11 -4 11 -10z m290 0 c0 -5 -5 -10 -11
-10 -5 0 -7 5 -4 10 3 6 8 10 11 10 2 0 4 -4 4 -10z m260 0 c0 -5 -5 -10 -11
-10 -5 0 -7 5 -4 10 3 6 8 10 11 10 2 0 4 -4 4 -10z m-870 -10 c0 -5 -2 -10
-4 -10 -3 0 -8 5 -11 10 -3 6 -1 10 4 10 6 0 11 -4 11 -10z m120 -5 c-7 -9
-15 -13 -19 -10 -3 3 1 10 9 15 21 14 24 12 10 -5z m-64 -32 c-11 -11 -17 4
-9 23 7 18 8 18 11 1 2 -10 1 -21 -2 -24z m669 27 c3 -5 1 -10 -4 -10 -6 0
-11 5 -11 10 0 6 2 10 4 10 3 0 8 -4 11 -10z m685 0 c0 -5 -5 -10 -11 -10 -5
0 -7 5 -4 10 3 6 8 10 11 10 2 0 4 -4 4 -10z m115 0 c3 -5 1 -10 -4 -10 -6 0
-11 5 -11 10 0 6 2 10 4 10 3 0 8 -4 11 -10z m290 0 c-3 -5 -11 -10 -16 -10
-6 0 -7 5 -4 10 3 6 11 10 16 10 6 0 7 -4 4 -10z m-950 -10 c3 -5 1 -10 -4
-10 -6 0 -11 5 -11 10 0 6 2 10 4 10 3 0 8 -4 11 -10z m750 0 c-3 -5 -11 -10
-16 -10 -6 0 -7 5 -4 10 3 6 11 10 16 10 6 0 7 -4 4 -10z m-414 -14 c-10 -11
-8 -17 6 -25 10 -6 14 -10 8 -10 -5 -1 -21 8 -35 19 -14 11 -18 18 -9 14 10
-3 20 -1 24 5 3 6 9 11 12 11 3 0 0 -6 -6 -14z m133 1 c10 -10 10 -15 1 -24
-10 -9 -14 -6 -18 13 -5 27 -1 30 17 11z m-929 -6 c3 -5 1 -12 -5 -16 -5 -3
-10 1 -10 9 0 18 6 21 15 7z m1175 -1 c0 -5 -4 -10 -10 -10 -5 0 -10 5 -10 10
0 6 5 10 10 10 6 0 10 -4 10 -10z m180 0 c0 -5 -4 -10 -10 -10 -5 0 -10 5 -10
10 0 6 5 10 10 10 6 0 10 -4 10 -10z m-943 -7 c-4 -3 -1 -13 6 -21 11 -13 9
-14 -10 -1 -16 9 -19 16 -10 21 15 9 23 10 14 1z m113 -4 c0 -4 -6 -9 -13 -12
-8 -3 -14 0 -14 7 0 7 6 13 14 13 7 0 13 -4 13 -8z m-868 -29 c3 -19 0 -30 -7
-30 -7 0 -10 11 -7 30 2 17 5 30 7 30 2 0 5 -13 7 -30z m428 16 c-5 -5 -24
-10 -41 -11 -28 -2 -30 0 -15 10 19 15 70 15 56 1z m1125 4 c3 -5 2 -10 -4
-10 -5 0 -13 5 -16 10 -3 6 -2 10 4 10 5 0 13 -4 16 -10z m-486 -17 c-15 -17
-30 -17 -23 0 3 8 11 14 19 14 11 0 12 -4 4 -14z m686 7 c3 -5 1 -10 -4 -10
-6 0 -11 5 -11 10 0 6 2 10 4 10 3 0 8 -4 11 -10z m-1410 -21 c-10 -15 -25
-10 -19 6 4 8 10 12 15 9 5 -3 7 -10 4 -15z m1010 11 c3 -5 1 -10 -4 -10 -6 0
-11 5 -11 10 0 6 2 10 4 10 3 0 8 -4 11 -10z m260 -10 c-3 -5 -13 -6 -21 -3
-12 4 -13 8 -3 14 15 9 32 2 24 -11z m-405 0 c0 -5 -7 -10 -16 -10 -8 0 -12 5
-9 10 3 6 10 10 16 10 5 0 9 -4 9 -10z m-540 -4 c0 -3 -4 -8 -10 -11 -5 -3
-10 -1 -10 4 0 6 5 11 10 11 6 0 10 -2 10 -4z m135 -16 c-3 -5 -11 -10 -16
-10 -6 0 -7 5 -4 10 3 6 11 10 16 10 6 0 7 -4 4 -10z m180 -18 c-3 -3 -11 0
-18 7 -9 10 -8 11 6 5 10 -3 15 -9 12 -12z m690 8 c3 -5 2 -10 -4 -10 -5 0
-13 5 -16 10 -3 6 -2 10 4 10 5 0 13 -4 16 -10z m-1620 -10 c3 -5 1 -10 -4
-10 -6 0 -11 5 -11 10 0 6 2 10 4 10 3 0 8 -4 11 -10z m1705 -5 c-7 -9 -15
-13 -19 -10 -3 3 1 10 9 15 21 14 24 12 10 -5z m-1196 -10 c11 -8 15 -15 10
-15 -6 0 -19 7 -30 15 -10 8 -14 14 -9 14 6 0 19 -6 29 -14z m396 11 c0 -3 -4
-8 -10 -11 -5 -3 -10 -1 -10 4 0 6 5 11 10 11 6 0 10 -2 10 -4z m505 -7 c4 -6
13 -8 19 -6 7 3 13 -1 13 -9 0 -7 -4 -11 -9 -8 -5 3 -16 0 -25 -8 -14 -11 -16
-11 -11 3 4 9 1 22 -5 28 -8 8 -8 11 0 11 7 0 15 -5 18 -11z m-1041 -24 c24
-18 40 -19 30 -2 -4 7 -3 9 2 4 19 -18 -2 -56 -30 -57 -6 0 -2 6 8 13 17 13
17 14 -8 31 -15 9 -32 14 -38 10 -7 -4 -8 -3 -4 4 9 15 17 15 40 -3z m376 5
c-12 -8 -12 -10 -1 -10 8 0 12 -3 8 -6 -9 -9 -28 6 -22 17 4 5 12 9 18 9 7 0
6 -4 -3 -10z m105 -8 c-3 -3 -11 0 -18 7 -9 10 -8 11 6 5 10 -3 15 -9 12 -12z
m320 2 c13 -9 29 -13 35 -9 5 3 10 1 10 -5 0 -15 62 -51 78 -45 7 3 10 1 7 -5
-7 -11 49 -42 59 -33 3 4 1 -8 -5 -26 -9 -27 -9 -35 2 -42 10 -7 11 -11 2 -17
-14 -9 -12 -78 3 -75 6 1 11 -4 11 -12 0 -8 -4 -12 -8 -10 -10 7 -18 -20 -13
-43 4 -14 -2 -22 -25 -32 -17 -7 -31 -16 -31 -20 0 -4 -11 -11 -25 -14 -14 -4
-34 -15 -45 -26 -11 -11 -20 -17 -20 -14 0 3 -13 -2 -28 -12 -27 -15 -31 -15
-63 1 -70 36 -169 98 -165 103 3 2 17 -3 31 -12 14 -9 31 -14 37 -10 6 4 8 3
5 -3 -3 -5 23 -26 59 -46 55 -33 67 -36 87 -26 12 7 24 15 27 18 3 3 22 14 43
24 21 9 35 22 32 27 -3 5 0 7 8 4 7 -2 24 3 36 13 22 18 23 26 22 128 -1 91
-4 112 -18 123 -10 7 -23 10 -29 8 -7 -3 -15 1 -18 9 -5 14 -66 51 -66 40 0
-3 -9 4 -20 15 -26 26 -48 25 -92 -5 -20 -14 -39 -25 -42 -25 -6 0 -75 -44
-93 -60 -7 -6 -13 -7 -13 -2 0 5 7 15 15 22 8 7 12 16 9 21 -3 5 1 7 8 4 7 -3
47 15 88 39 41 24 76 44 78 45 1 1 14 -6 27 -15z m115 6 c8 -5 12 -11 10 -14
-3 -2 -14 2 -24 10 -22 15 -10 19 14 4z m-1210 -10 c0 -5 -2 -10 -4 -10 -3 0
-8 5 -11 10 -3 6 -1 10 4 10 6 0 11 -4 11 -10z m217 -10 c1 -11 -2 -20 -7 -20
-10 0 -20 26 -13 34 12 11 19 6 20 -14z m723 10 c0 -5 -4 -10 -10 -10 -5 0
-10 5 -10 10 0 6 5 10 10 10 6 0 10 -4 10 -10z m-1205 -10 c-3 -5 -11 -10 -16
-10 -6 0 -7 5 -4 10 3 6 11 10 16 10 6 0 7 -4 4 -10z m82 -5 c0 -8 -4 -15 -8
-15 -11 0 -20 16 -12 24 11 11 20 7 20 -9z m103 4 c0 -3 10 -11 23 -17 17 -8
18 -11 5 -11 -9 -1 -20 4 -23 9 -4 6 -9 8 -13 6 -4 -2 -13 2 -19 9 -10 11 -9
13 7 12 11 -1 20 -4 20 -8z m115 -17 c-3 -3 -11 0 -18 7 -9 10 -8 11 6 5 10
-3 15 -9 12 -12z m495 5 c0 -7 -9 -13 -21 -13 -19 0 -19 1 -3 13 10 7 19 13
21 13 2 0 3 -6 3 -13z m95 -15 c-8 -8 -25 10 -19 20 4 6 9 5 15 -3 4 -7 6 -15
4 -17z m111 12 c-4 -11 -2 -15 7 -11 8 3 14 -1 14 -8 0 -11 -5 -11 -19 -4 -11
6 -27 8 -36 4 -13 -5 -12 -2 3 14 24 24 39 27 31 5z m89 6 c3 -5 2 -10 -4 -10
-5 0 -13 5 -16 10 -3 6 -2 10 4 10 5 0 13 -4 16 -10z m595 0 c0 -5 -4 -10 -10
-10 -5 0 -10 5 -10 10 0 6 5 10 10 10 6 0 10 -4 10 -10z m118 -2 c-2 -6 -10
-14 -16 -16 -7 -2 -10 2 -6 12 7 18 28 22 22 4z m-1158 -2 c0 -2 -7 -7 -16
-10 -8 -3 -12 -2 -9 4 6 10 25 14 25 6z m-357 -55 c9 -7 21 -10 27 -6 10 6 11
-12 12 -130 0 -22 5 -43 12 -47 8 -6 7 -8 -1 -8 -7 0 -13 -9 -13 -20 0 -11 6
-20 13 -20 6 0 -12 -15 -41 -33 -29 -18 -49 -37 -45 -42 5 -4 2 -5 -4 -1 -13
7 -73 -22 -73 -36 0 -4 -3 -7 -7 -6 -5 0 -16 -2 -26 -7 -11 -5 -23 -3 -30 5
-9 9 -9 11 0 6 6 -3 53 18 105 47 83 47 93 56 96 83 2 21 -2 33 -12 37 -9 4
-16 2 -16 -3 0 -6 -4 -10 -8 -10 -4 0 -8 9 -8 20 0 21 11 26 21 10 14 -23 24
5 23 65 -1 53 -5 68 -24 86 -14 13 -29 19 -41 15 -14 -4 -20 -2 -20 9 0 8 6
15 14 15 7 0 13 6 14 13 0 6 4 3 9 -8 4 -12 15 -27 23 -34z m227 39 c0 -5 -5
-10 -11 -10 -5 0 -7 5 -4 10 3 6 8 10 11 10 2 0 4 -4 4 -10z m187 -26 c13 5
14 4 4 -8 -17 -20 -40 1 -32 29 5 19 6 19 9 -3 3 -17 8 -22 19 -18z m-526 -7
c25 -15 50 -27 56 -27 5 0 20 -12 34 -26 l24 -26 -35 20 c-124 72 -128 74
-163 56 -17 -9 -34 -20 -37 -23 -3 -3 -23 -14 -45 -24 -28 -12 -34 -13 -20 -3
11 9 25 19 30 23 6 4 27 17 48 27 20 11 37 23 37 27 0 12 22 5 71 -24z m962
26 c3 -5 -5 -8 -18 -8 -13 0 -21 3 -18 8 2 4 10 7 18 7 8 0 16 -3 18 -7z m202
-11 c-3 -3 -11 0 -18 7 -9 10 -8 11 6 5 10 -3 15 -9 12 -12z m-1342 -6 c3 -8
0 -17 -8 -19 -11 -5 -13 6 -6 31 2 6 9 0 14 -12z m389 -5 c4 -1 18 -5 29 -10
18 -6 19 -9 6 -14 -9 -3 -18 0 -21 9 -3 9 -10 13 -14 10 -5 -3 -18 1 -28 10
-18 15 -18 15 1 6 11 -6 23 -11 27 -11z m158 15 c0 -2 -7 -7 -16 -10 -8 -3
-12 -2 -9 4 6 10 25 14 25 6z m270 -6 c0 20 14 2 15 -20 2 -22 -11 -27 -18 -7
-3 9 -7 9 -20 -1 -13 -11 -15 -10 -12 5 2 10 4 22 4 27 1 5 8 3 16 -4 12 -10
15 -10 15 0z m135 0 c3 -6 -1 -7 -9 -4 -18 7 -21 14 -7 14 6 0 13 -4 16 -10z
m800 0 c3 -6 -1 -7 -9 -4 -18 7 -21 14 -7 14 6 0 13 -4 16 -10z m142 -5 c0 -8
-7 -15 -15 -15 -12 0 -12 3 -2 15 7 8 13 15 15 15 1 0 2 -7 2 -15z m-807 -16
c0 -18 -2 -20 -15 -9 -13 11 -13 15 -3 21 18 12 18 12 18 -12z m520 12 c0 -5
-9 -11 -21 -14 -16 -4 -18 -3 -8 9 13 16 29 19 29 5z m-847 -42 c-3 -20 0 -35
9 -40 8 -6 9 -9 1 -9 -8 0 -11 -25 -10 -80 0 -44 -3 -83 -6 -87 -6 -5 -9 20
-6 43 0 4 -5 11 -13 15 -8 6 -9 9 -1 9 8 0 12 26 12 81 0 71 5 99 16 99 2 0 1
-14 -2 -31z m264 6 c1 0 -6 -6 -15 -11 -14 -9 -17 -7 -18 13 -2 21 0 22 15 11
9 -7 17 -13 18 -13z m385 -11 c-9 -7 -19 -10 -22 -8 -2 3 2 9 10 14 10 7 11
10 3 10 -7 0 -13 5 -13 10 0 6 8 5 19 -2 18 -11 18 -13 3 -24z m274 21 c-11
-8 -14 -15 -8 -15 7 0 12 -5 12 -11 0 -8 -4 -8 -15 1 -8 6 -20 9 -27 5 -7 -4
-2 3 12 14 14 11 30 21 35 20 6 0 1 -6 -9 -14z m149 -1 c27 10 16 -2 -16 -18
-21 -11 -28 -11 -20 -2 8 9 7 16 -2 26 -10 12 -9 12 5 1 10 -7 25 -11 33 -7z
m-1358 -8 c0 -8 -6 -12 -15 -9 -11 5 -11 7 0 14 7 5 13 9 14 9 0 0 1 -6 1 -14z
m147 -7 c-8 -14 -21 -11 -21 5 0 8 6 12 14 9 7 -3 10 -9 7 -14z m653 8 c0 -7
-9 -13 -19 -13 -18 0 -18 1 -2 13 10 7 18 13 19 13 1 0 2 -6 2 -13z m-883 -12
c-4 -8 -8 -15 -10 -15 -2 0 -4 7 -4 15 0 8 4 15 10 15 5 0 7 -7 4 -15z m310
-1 c3 -8 2 -12 -4 -9 -6 3 -10 10 -10 16 0 14 7 11 14 -7z m171 6 c3 -6 -1 -7
-9 -4 -18 7 -21 14 -7 14 6 0 13 -4 16 -10z m-48 -32 c-3 -8 -6 -5 -6 6 -1 11
2 17 5 13 3 -3 4 -12 1 -19z m-447 -18 c-24 -15 -37 -11 -16 5 11 8 22 12 25
9 3 -3 -1 -9 -9 -14z m180 -6 c0 -2 -9 0 -20 6 -11 6 -20 13 -20 16 0 2 9 0
20 -6 11 -6 20 -13 20 -16z m150 1 c0 -14 -4 -25 -9 -25 -5 0 -8 11 -8 25 0
14 3 25 8 25 5 0 9 -11 9 -25z m480 15 c0 -5 -5 -10 -11 -10 -5 0 -7 5 -4 10
3 6 8 10 11 10 2 0 4 -4 4 -10z m165 0 c-3 -5 -12 -10 -18 -10 -7 0 -6 4 3 10
19 12 23 12 15 0z m405 5 c0 -2 -10 -9 -22 -15 -22 -11 -22 -10 -4 4 21 17 26
19 26 11z m-600 -25 c0 -5 -4 -10 -9 -10 -5 0 -17 -3 -25 -6 -12 -5 -15 -2
-10 10 7 17 44 22 44 6z m655 -29 c-6 -5 -25 10 -25 20 0 5 6 4 14 -3 8 -7 12
-15 11 -17z m-800 1 c-3 -3 -11 0 -18 7 -9 10 -8 11 6 5 10 -3 15 -9 12 -12z
m175 8 c0 -5 -2 -10 -4 -10 -3 0 -8 5 -11 10 -3 6 -1 10 4 10 6 0 11 -4 11
-10z m-100 -10 c0 -5 -5 -10 -11 -10 -5 0 -7 5 -4 10 3 6 8 10 11 10 2 0 4 -4
4 -10z m810 6 c0 -2 -7 -7 -16 -10 -8 -3 -12 -2 -9 4 6 10 25 14 25 6z m-1190
-21 c-7 -9 -15 -13 -17 -11 -7 7 7 26 19 26 6 0 6 -6 -2 -15z m-715 -5 c-3 -5
-12 -10 -18 -10 -7 0 -6 4 3 10 19 12 23 12 15 0z m838 -10 c-3 -11 -9 -17
-14 -15 -10 7 -1 35 11 35 5 0 6 -9 3 -20z m241 5 c11 -8 16 -15 10 -15 -5 0
-18 7 -28 15 -11 8 -16 15 -10 15 5 0 18 -7 28 -15z m166 11 c0 -2 -7 -7 -16
-10 -8 -3 -12 -2 -9 4 6 10 25 14 25 6z m405 -6 c3 -5 0 -7 -8 -4 -8 3 -20 -2
-27 -11 -7 -8 -18 -15 -24 -15 -12 1 31 40 45 40 4 0 11 -4 14 -10z m-965 -10
c0 -5 -4 -10 -10 -10 -5 0 -10 5 -10 10 0 6 5 10 10 10 6 0 10 -4 10 -10z
m805 0 c3 -5 1 -10 -4 -10 -6 0 -11 5 -11 10 0 6 2 10 4 10 3 0 8 -4 11 -10z
m-1089 -20 c0 -13 -5 -19 -14 -15 -7 3 -16 5 -18 5 -12 0 -1 19 14 23 9 3 17
5 17 6 1 0 1 -8 1 -19z m319 0 c3 -5 2 -10 -4 -10 -5 0 -13 5 -16 10 -3 6 -2
10 4 10 5 0 13 -4 16 -10z m440 -7 c9 4 14 3 10 -3 -3 -6 1 -13 9 -16 9 -3 16
-11 16 -17 0 -5 -8 -3 -18 6 -21 19 -42 22 -42 6 0 -5 -4 -8 -9 -5 -5 4 -8 14
-6 24 2 9 4 19 4 22 1 3 5 -1 10 -9 5 -8 16 -11 26 -8z m250 7 c-3 -5 -11 -10
-16 -10 -6 0 -7 5 -4 10 3 6 11 10 16 10 6 0 7 -4 4 -10z m290 0 c3 -5 2 -10
-4 -10 -5 0 -13 5 -16 10 -3 6 -2 10 4 10 5 0 13 -4 16 -10z m115 6 c0 -3 -4
-8 -10 -11 -5 -3 -10 -1 -10 4 0 6 5 11 10 11 6 0 10 -2 10 -4z m-1550 -36 c0
-5 -5 -10 -11 -10 -5 0 -7 5 -4 10 3 6 8 10 11 10 2 0 4 -4 4 -10z m1085 -8
c-3 -3 -11 0 -18 7 -9 10 -8 11 6 5 10 -3 15 -9 12 -12z m-638 -26 c-8 -16
-16 -21 -23 -15 -6 5 -15 5 -19 1 -5 -4 -5 -1 -1 6 4 7 11 10 16 7 5 -3 11 4
15 15 4 11 10 18 15 15 4 -3 3 -16 -3 -29z m898 16 c-3 -3 -11 0 -18 7 -9 10
-8 11 6 5 10 -3 15 -9 12 -12z m-675 4 c0 -2 -7 -7 -16 -10 -8 -3 -12 -2 -9 4
6 10 25 14 25 6z m155 -6 c-3 -5 -12 -10 -18 -10 -7 0 -6 4 3 10 19 12 23 12
15 0z m400 0 c-3 -5 -11 -10 -16 -10 -6 0 -7 5 -4 10 3 6 11 10 16 10 6 0 7
-4 4 -10z m400 0 c-3 -5 -12 -10 -18 -10 -7 0 -6 4 3 10 19 12 23 12 15 0z
m-50 -28 c-6 -7 -45 9 -45 18 0 4 11 3 24 -3 14 -7 23 -13 21 -15z m-1431 -13
c-10 -16 -24 -9 -24 12 0 18 2 19 15 9 8 -7 12 -16 9 -21z m1282 12 c0 -12 -6
-17 -18 -13 -21 5 -24 18 -5 25 20 9 23 8 23 -12z m-1171 -1 c3 -6 -1 -7 -9
-4 -18 7 -21 14 -7 14 6 0 13 -4 16 -10z m322 2 c8 -5 8 -12 -3 -26 -8 -11
-14 -16 -14 -12 0 4 -5 4 -11 0 -8 -4 -4 -13 12 -25 24 -18 24 -18 2 -12 -14
3 -23 1 -23 -6 0 -6 5 -11 12 -11 6 0 8 -3 5 -6 -4 -4 -13 -2 -20 4 -8 7 -16
11 -18 9 -2 -1 2 3 9 10 9 8 10 13 2 18 -7 4 -4 13 10 25 12 11 19 24 15 29
-7 13 5 14 22 3z m433 -2 c0 -5 -4 -10 -10 -10 -5 0 -10 5 -10 10 0 6 5 10 10
10 6 0 10 -4 10 -10z m160 0 c0 -5 -4 -10 -10 -10 -5 0 -10 5 -10 10 0 6 5 10
10 10 6 0 10 -4 10 -10z m-415 -10 c-3 -5 -10 -10 -16 -10 -5 0 -9 5 -9 10 0
6 7 10 16 10 8 0 12 -4 9 -10z m-591 -11 c-4 -8 1 -9 17 -4 19 6 22 5 12 -5
-13 -14 -48 -5 -38 10 3 5 8 10 11 10 3 0 2 -5 -2 -11z m198 -11 c-7 -7 -12
-8 -12 -2 0 14 12 26 19 19 2 -3 -1 -11 -7 -17z m137 9 c-2 -1 -24 -13 -49
-25 -133 -68 -150 -81 -150 -118 0 -34 7 -41 26 -26 5 4 1 -1 -9 -10 -13 -12
-18 -30 -17 -55 4 -81 0 -111 -16 -117 -8 -3 -13 -2 -9 3 3 5 2 11 -2 14 -5 2
-2 2 4 1 9 -2 12 19 11 81 -1 54 -5 85 -12 85 -7 0 -6 3 2 8 14 9 13 60 -2 82
-7 11 -5 11 8 -1 17 -16 20 -16 47 0 17 9 27 22 24 30 -4 9 0 11 10 7 9 -3 41
8 72 24 31 17 58 28 61 25 3 -3 3 -6 1 -8z m327 -2 c-3 -22 -22 -38 -35 -31
-19 12 -12 28 9 21 11 -4 20 -3 19 2 -2 12 0 23 5 23 2 0 3 -7 2 -15z m809
-15 c11 -17 -5 -11 -28 11 l-22 21 22 -11 c12 -6 25 -16 28 -21z m-1777 6
c-10 -7 -14 -17 -10 -21 4 -5 1 -5 -6 -1 -7 4 -20 2 -28 -5 -12 -10 -17 -10
-27 1 -9 10 -9 11 0 6 6 -3 27 3 45 14 37 22 52 26 26 6z m1499 -1 c0 -6 -8
-12 -17 -12 -9 -1 -17 4 -17 11 0 6 8 12 17 12 9 0 17 -5 17 -11z m-1252 -17
c-9 -6 -19 -7 -22 -4 -4 3 -1 6 6 6 7 0 9 4 6 10 -4 6 1 7 11 3 15 -6 15 -7
-1 -15z m232 -5 c-3 -3 -11 -2 -17 2 -9 6 -9 10 1 16 14 8 27 -7 16 -18z
m1163 1 c0 -2 -9 0 -20 6 -11 6 -20 13 -20 16 0 2 9 0 20 -6 11 -6 20 -13 20
-16z m-829 -2 c-7 -2 -18 1 -23 6 -8 8 -4 9 13 5 13 -4 18 -8 10 -11z m425 6
c4 -7 3 -8 -5 -4 -6 4 -20 2 -29 -6 -15 -12 -16 -11 -3 5 16 20 27 22 37 5z
m-231 -8 c3 -5 1 -10 -4 -10 -6 0 -11 5 -11 10 0 6 2 10 4 10 3 0 8 -4 11 -10z
m-699 -26 c3 -18 2 -18 -10 -2 -7 10 -17 14 -21 10 -5 -4 -5 -1 -1 6 11 18 29
10 32 -14z m469 8 c-3 -3 -11 0 -18 7 -9 10 -8 11 6 5 10 -3 15 -9 12 -12z
m112 4 c0 -8 -6 -12 -15 -8 -10 3 -13 1 -8 -6 5 -8 2 -10 -10 -5 -14 5 -13 8
7 19 13 7 24 13 25 14 0 0 1 -6 1 -14z m553 -12 c0 -2 -9 0 -20 6 -11 6 -20
13 -20 16 0 2 9 0 20 -6 11 -6 20 -13 20 -16z m268 12 c-10 -7 -15 -16 -12
-19 4 -3 -3 -5 -14 -4 -12 0 -18 6 -15 14 3 7 8 11 12 9 4 -3 13 -1 21 5 22
13 27 10 8 -5z m-1850 -21 c-3 -3 -9 2 -12 12 -6 14 -5 15 5 6 7 -7 10 -15 7
-18z m328 9 c18 -14 18 -15 -4 -4 -12 6 -28 8 -34 4 -7 -4 -8 -3 -4 4 10 16
18 15 42 -4z m233 12 c-2 -2 -15 -9 -29 -16 -23 -12 -24 -12 -11 3 7 10 20 17
29 17 8 0 13 -2 11 -4z m1152 -9 c-7 -7 -14 -8 -21 -1 -6 6 -2 10 12 11 16 2
18 -1 9 -10z m-1611 -23 c0 -2 -9 0 -20 6 -11 6 -20 13 -20 16 0 2 9 0 20 -6
11 -6 20 -13 20 -16z m175 7 c3 -5 2 -12 -3 -15 -5 -3 -9 1 -9 9 0 17 3 19 12
6z m812 -11 c2 -17 -1 -18 -18 -7 -18 11 -18 12 -1 19 9 3 17 7 17 7 1 1 1 -8
2 -19z m141 7 c8 -10 7 -13 -7 -14 -10 -1 -18 5 -18 13 0 17 11 18 25 1z m292
9 c0 -3 -4 -8 -10 -11 -5 -3 -10 -1 -10 4 0 6 5 11 10 11 6 0 10 -2 10 -4z
m130 -26 c0 -4 -8 -10 -18 -12 -12 -3 -18 1 -18 12 0 11 6 15 18 12 10 -2 18
-8 18 -12z m256 5 c-11 -8 -24 -15 -30 -15 -5 0 -1 7 10 15 10 8 24 14 29 14
6 0 1 -6 -9 -14z m-1387 -22 c0 -25 -1 -25 -8 -8 -5 11 -7 23 -4 28 8 14 13 7
12 -20z m494 12 c4 -8 2 -17 -3 -20 -6 -4 -10 3 -10 14 0 25 6 27 13 6z m477
3 c0 -4 -7 -8 -15 -8 -8 0 -15 4 -15 8 0 5 7 9 15 9 8 0 15 -4 15 -9z m-1410
-14 c0 -8 -4 -12 -10 -9 -5 3 -10 10 -10 16 0 5 5 9 10 9 6 0 10 -7 10 -16z
m665 6 c3 -6 -1 -7 -9 -4 -18 7 -21 14 -7 14 6 0 13 -4 16 -10z m160 0 c3 -5
1 -10 -4 -10 -6 0 -11 5 -11 10 0 6 2 10 4 10 3 0 8 -4 11 -10z m-704 -96 c1
-113 0 -124 -9 -102 -7 18 -4 203 4 196 2 -3 4 -45 5 -94z m1220 73 c-10 -9
-11 -8 -5 6 3 10 9 15 12 12 3 -3 0 -11 -7 -18z m94 14 c3 -5 1 -12 -5 -16 -5
-3 -10 1 -10 9 0 18 6 21 15 7z m400 -1 c3 -5 1 -10 -4 -10 -6 0 -11 5 -11 10
0 6 2 10 4 10 3 0 8 -4 11 -10z m-1470 -10 c3 -5 1 -10 -4 -10 -6 0 -11 5 -11
10 0 6 2 10 4 10 3 0 8 -4 11 -10z m860 0 c3 -5 2 -10 -4 -10 -5 0 -13 5 -16
10 -3 6 -2 10 4 10 5 0 13 -4 16 -10z m522 -12 c-3 -8 -6 -5 -6 6 -1 11 2 17
5 13 3 -3 4 -12 1 -19z m-857 -4 c0 -2 -7 -4 -15 -4 -8 0 -15 4 -15 10 0 5 7
7 15 4 8 -4 15 -8 15 -10z m745 6 c3 -5 2 -10 -4 -10 -5 0 -13 5 -16 10 -3 6
-2 10 4 10 5 0 13 -4 16 -10z m-1560 -10 c3 -5 2 -10 -4 -10 -5 0 -13 5 -16
10 -3 6 -2 10 4 10 5 0 13 -4 16 -10z m505 6 c0 -3 -4 -8 -10 -11 -5 -3 -10
-1 -10 4 0 6 5 11 10 11 6 0 10 -2 10 -4z m300 -26 c-20 -13 -33 -13 -25 0 3
6 14 10 23 10 15 0 15 -2 2 -10z m831 -7 c12 -15 12 -16 -1 -8 -8 5 -21 10
-28 11 -23 4 -27 14 -5 14 11 0 27 -8 34 -17z m-1646 -12 c-3 -6 -11 -11 -17
-11 -6 0 -6 6 2 15 14 17 26 13 15 -4z m393 7 c8 -10 4 -13 -13 -14 -16 -1
-22 2 -18 12 6 17 17 18 31 2z m697 -6 c-3 -3 -11 0 -18 7 -9 10 -8 11 6 5 10
-3 15 -9 12 -12z m396 1 c13 -15 12 -15 -8 -4 -24 12 -29 21 -14 21 5 0 15 -7
22 -17z m-606 -20 c-26 -18 -34 -16 -28 6 3 13 11 17 25 13 20 -5 20 -6 3 -19z
m-115 7 c0 -5 -4 -10 -10 -10 -5 0 -10 5 -10 10 0 6 5 10 10 10 6 0 10 -4 10
-10z m390 -5 c-9 -10 -9 -15 -1 -15 6 0 11 -5 11 -10 0 -6 -7 -6 -19 2 -14 9
-16 14 -7 24 16 19 31 17 16 -1z m150 -5 c14 -11 17 -18 8 -14 -9 3 -27 0 -40
-6 -20 -10 -21 -10 -6 3 13 10 15 16 6 25 -20 20 5 13 32 -8z m385 9 c4 -6 14
-8 24 -5 9 4 5 -3 -9 -14 -14 -11 -29 -19 -35 -19 -5 0 -2 5 7 12 15 10 15 12
0 24 -10 7 -12 12 -5 13 6 0 15 -5 18 -11z m-1725 -3 c0 -3 -4 -8 -10 -11 -5
-3 -10 -1 -10 4 0 6 5 11 10 11 6 0 10 -2 10 -4z m333 -11 c4 -8 2 -17 -3 -20
-6 -4 -10 3 -10 14 0 25 6 27 13 6z m1237 0 c0 -2 -6 -5 -13 -8 -8 -3 -14 1
-14 8 0 7 6 11 14 8 7 -3 13 -6 13 -8z m-1605 -15 c-3 -5 -11 -10 -16 -10 -6
0 -7 5 -4 10 3 6 11 10 16 10 6 0 7 -4 4 -10z m895 -6 c0 -2 -7 -4 -15 -4 -8
0 -15 4 -15 10 0 5 7 7 15 4 8 -4 15 -8 15 -10z m260 -9 c-7 -8 -18 -15 -24
-15 -6 0 -2 7 8 15 25 19 32 19 16 0z m400 0 c-7 -9 -15 -13 -19 -10 -3 3 1
10 9 15 21 14 24 12 10 -5z m-115 -5 c3 -5 1 -10 -4 -10 -6 0 -11 5 -11 10 0
6 2 10 4 10 3 0 8 -4 11 -10z m272 -7 c-9 -9 -26 -17 -38 -18 -21 -2 -21 -1
-4 11 10 7 21 11 26 9 4 -3 10 -1 14 5 3 5 9 10 13 10 3 0 -1 -8 -11 -17z
m-797 -16 c0 -1 -11 -2 -25 -2 -25 0 -31 6 -19 18 6 5 44 -9 44 -16z m380 13
c0 -5 -4 -10 -10 -10 -5 0 -10 5 -10 10 0 6 5 10 10 10 6 0 10 -4 10 -10z
m-1225 -20 c-3 -5 -11 -10 -16 -10 -6 0 -7 5 -4 10 3 6 11 10 16 10 6 0 7 -4
4 -10z m385 0 c0 -5 -4 -10 -10 -10 -5 0 -10 5 -10 10 0 6 5 10 10 10 6 0 10
-4 10 -10z m-165 -10 c3 -6 -1 -7 -9 -4 -18 7 -21 14 -7 14 6 0 13 -4 16 -10z
m955 6 c0 -2 -7 -7 -16 -10 -8 -3 -12 -2 -9 4 6 10 25 14 25 6z m105 -6 c3 -6
-1 -7 -9 -4 -18 7 -21 14 -7 14 6 0 13 -4 16 -10z m290 0 c-3 -5 -11 -10 -16
-10 -6 0 -7 5 -4 10 3 6 11 10 16 10 6 0 7 -4 4 -10z m112 -12 c-3 -8 -6 -5
-6 6 -1 11 2 17 5 13 3 -3 4 -12 1 -19z m-1172 -8 c3 -5 1 -10 -4 -10 -6 0
-11 5 -11 10 0 6 2 10 4 10 3 0 8 -4 11 -10z m205 -27 c0 -2 -5 -1 -10 2 -6 4
-17 1 -25 -5 -11 -9 -15 -9 -15 -1 0 6 6 11 13 12 10 0 10 2 0 6 -7 2 -13 9
-13 14 0 5 11 2 25 -7 14 -9 25 -18 25 -21z m380 16 c14 -11 19 -18 12 -14 -7
4 -19 1 -27 -5 -11 -9 -15 -9 -15 -1 0 6 5 11 12 11 6 0 3 7 -8 15 -10 8 -14
14 -9 14 6 1 21 -9 35 -20z m260 1 c-10 -7 -11 -10 -2 -10 6 0 12 -5 12 -11 0
-8 -4 -8 -15 1 -8 6 -20 9 -27 5 -7 -4 -2 2 12 13 14 12 27 18 30 16 2 -3 -2
-9 -10 -14z m132 6 c15 -11 14 -14 -15 -30 -28 -15 -29 -15 -9 0 21 16 21 17
5 30 -10 7 -13 13 -8 13 6 0 18 -5 27 -13z m288 10 c0 -3 -4 -8 -10 -11 -5 -3
-10 -1 -10 4 0 6 5 11 10 11 6 0 10 -2 10 -4z m-1400 -16 c0 -5 -5 -10 -11
-10 -5 0 -7 5 -4 10 3 6 8 10 11 10 2 0 4 -4 4 -10z m574 -3 c-3 -8 -11 -14
-19 -14 -11 0 -12 4 -4 14 6 7 15 13 20 13 5 0 6 -6 3 -13z m-822 -15 c-7 -2
-9 -8 -6 -14 4 -6 -2 -5 -15 1 -25 14 -28 23 -4 14 11 -4 14 -3 9 5 -5 8 -1
10 10 5 11 -4 13 -8 6 -11z m173 0 c10 -25 -9 -33 -21 -8 -8 17 -8 23 2 23 7
0 16 -7 19 -15z m601 -40 c11 -7 4 -5 -13 3 -18 9 -33 13 -33 10 0 -3 -9 4
-20 15 -40 40 -24 33 66 -28z m324 48 c0 -5 -5 -10 -11 -10 -5 0 -7 5 -4 10 3
6 8 10 11 10 2 0 4 -4 4 -10z m400 0 c0 -5 -5 -10 -11 -10 -5 0 -7 5 -4 10 3
6 8 10 11 10 2 0 4 -4 4 -10z m136 -5 c10 -8 14 -15 7 -15 -6 0 -15 5 -18 11
-4 6 -14 8 -22 5 -8 -3 -11 -1 -8 4 8 14 18 13 41 -5z m-1254 -25 c3 -21 0
-30 -10 -30 -9 0 -12 6 -8 16 4 11 2 15 -8 11 -8 -3 -17 0 -19 7 -4 10 1 12
14 9 10 -3 19 0 19 6 0 22 8 10 12 -19z m-482 12 c0 -5 13 -8 28 -7 26 1 28
-1 23 -29 l-4 -31 -9 28 c-6 15 -14 25 -19 21 -5 -3 -19 2 -31 10 -18 13 -19
16 -5 16 9 0 17 -4 17 -8z m743 -13 c3 -12 -1 -17 -14 -16 -10 1 -16 3 -14 6
3 2 1 9 -5 15 -6 8 -3 12 10 12 10 0 21 -8 23 -17z m-363 -15 c0 -2 -9 0 -20
6 -11 6 -20 13 -20 16 0 2 9 0 20 -6 11 -6 20 -13 20 -16z m760 7 c0 -4 -6 -8
-14 -8 -8 0 -12 6 -9 14 5 13 23 9 23 -6z m123 4 c3 -6 -3 -11 -12 -12 -10 -1
-18 4 -18 11 0 16 25 17 30 1z m277 -4 c0 -4 -6 -8 -14 -8 -8 0 -12 6 -9 14 5
13 23 9 23 -6z m135 -4 c20 -20 20 -20 -1 -9 -12 6 -24 9 -26 6 -3 -3 -8 1
-11 9 -8 20 15 17 38 -6z m-1349 -2 c-1 -8 -6 -18 -11 -22 -4 -5 -5 -2 0 6 6
11 4 13 -10 7 -15 -5 -16 -4 -5 9 16 19 29 19 26 0z m281 -2 c0 -8 -6 -9 -19
-2 -10 5 -18 11 -18 12 0 2 8 3 18 3 10 0 19 -6 19 -13z m400 0 c0 -8 -6 -9
-19 -2 -10 5 -18 11 -18 12 0 2 8 3 18 3 10 0 19 -6 19 -13z m388 -1 c-3 -3
-11 0 -18 7 -9 10 -8 11 6 5 10 -3 15 -9 12 -12z m-1520 -2 c-3 -5 -1 -10 5
-10 6 0 8 -4 5 -10 -4 -6 -11 -5 -19 3 -10 9 -11 14 -2 19 15 10 18 10 11 -2z
m315 0 c0 -5 -2 -10 -4 -10 -3 0 -8 5 -11 10 -3 6 -1 10 4 10 6 0 11 -4 11
-10z m-265 -11 c4 -6 13 -8 21 -5 22 8 17 -2 -7 -15 -13 -7 -19 -7 -15 -1 4 6
-2 15 -11 21 -10 6 -13 11 -6 11 6 0 15 -5 18 -11z m300 2 c-3 -6 2 -14 11
-19 15 -8 15 -10 0 -15 -10 -4 -15 -3 -11 3 3 6 -1 13 -10 16 -13 6 -14 8 -3
15 17 11 20 11 13 0z m58 -15 c3 -8 0 -16 -7 -19 -6 -3 -13 4 -13 14 -2 22 12
25 20 5z m167 1 c0 -7 -9 -13 -21 -13 -19 0 -19 1 -3 13 10 7 19 13 21 13 2 0
3 -6 3 -13z m92 -9 c-12 -12 -35 -1 -27 12 3 5 13 6 21 3 10 -4 12 -9 6 -15z
m121 1 c6 -24 -5 -24 -26 -1 -15 16 -15 18 2 19 11 1 21 -7 24 -18z m117 17
c0 -2 -7 -7 -16 -10 -8 -3 -12 -2 -9 4 6 10 25 14 25 6z m150 -6 c8 -5 12 -12
9 -15 -8 -8 -39 5 -39 16 0 11 11 11 30 -1z m141 -3 c-6 -8 -7 -17 -3 -22 4
-4 1 -6 -7 -3 -22 7 -24 26 -4 31 10 3 20 5 22 6 2 0 -2 -5 -8 -12z m266 -10
c-2 -6 -10 -13 -18 -15 -8 -3 -11 -1 -7 3 4 5 3 14 -3 21 -8 9 -5 11 11 7 11
-3 19 -10 17 -16z m263 9 c-7 -7 -13 -7 -20 0 -6 6 -3 10 10 10 13 0 16 -4 10
-10z m160 11 c0 -2 -9 -12 -21 -23 -15 -14 -20 -15 -17 -4 2 8 10 18 18 22 19
8 20 9 20 5z m-1627 -27 c-3 -11 -9 -17 -15 -14 -5 3 -4 12 3 20 16 19 18 18
12 -6z m1334 5 c0 -18 -19 -15 -25 3 -2 7 3 12 11 12 7 0 14 -7 14 -15z m-854
-10 c-3 -9 -8 -14 -10 -11 -3 3 -2 9 2 15 9 16 15 13 8 -4z m246 -8 c8 -10 7
-14 -4 -14 -8 0 -15 6 -15 14 0 7 2 13 4 13 2 0 9 -6 15 -13z m140 -13 c14
-12 -19 -1 -35 12 -18 14 -18 14 6 3 14 -6 27 -13 29 -15z m138 4 c-3 -8 -6
-5 -6 6 -1 11 2 17 5 13 3 -3 4 -12 1 -19z m-1317 8 c0 -3 -4 -8 -10 -11 -5
-3 -10 -1 -10 4 0 6 5 11 10 11 6 0 10 -2 10 -4z m65 -6 c-3 -5 -12 -10 -18
-10 -7 0 -6 4 3 10 19 12 23 12 15 0z m360 0 c-3 -5 -12 -10 -18 -10 -7 0 -6
4 3 10 19 12 23 12 15 0z m465 6 c0 -2 -7 -6 -15 -10 -8 -3 -15 -1 -15 4 0 6
7 10 15 10 8 0 15 -2 15 -4z m685 -14 c-3 -3 -11 0 -18 7 -9 10 -8 11 6 5 10
-3 15 -9 12 -12z m142 -14 c-3 -7 -5 -2 -5 12 0 14 2 19 5 13 2 -7 2 -19 0
-25z m-417 14 c0 -5 -7 -9 -15 -9 -8 0 -12 4 -9 9 7 10 24 10 24 0z m165 -2
c3 -6 -1 -7 -9 -4 -18 7 -21 14 -7 14 6 0 13 -4 16 -10z m235 0 c0 -5 -4 -10
-10 -10 -5 0 -10 5 -10 10 0 6 5 10 10 10 6 0 10 -4 10 -10z m170 0 c0 -5 -4
-10 -9 -10 -6 0 -13 5 -16 10 -3 6 1 10 9 10 9 0 16 -4 16 -10z m-1030 -10 c0
-5 -5 -10 -11 -10 -5 0 -7 5 -4 10 3 6 8 10 11 10 2 0 4 -4 4 -10z m-330 -10
c0 -5 -5 -10 -11 -10 -5 0 -7 5 -4 10 3 6 8 10 11 10 2 0 4 -4 4 -10z m517
-22 c-3 -7 -5 -2 -5 12 0 14 2 19 5 13 2 -7 2 -19 0 -25z m308 14 c-3 -3 -11
0 -18 7 -9 10 -8 11 6 5 10 -3 15 -9 12 -12z m500 8 c-3 -5 -11 -10 -16 -10
-6 0 -7 5 -4 10 3 6 11 10 16 10 6 0 7 -4 4 -10z m-875 -14 c-7 -7 -13 -7 -20
0 -6 6 -3 10 10 10 13 0 16 -4 10 -10z m155 4 c3 -5 1 -10 -4 -10 -6 0 -11 5
-11 10 0 6 2 10 4 10 3 0 8 -4 11 -10z m130 0 c-3 -5 -11 -10 -16 -10 -6 0 -7
5 -4 10 3 6 11 10 16 10 6 0 7 -4 4 -10z m270 0 c3 -5 1 -10 -4 -10 -6 0 -11
5 -11 10 0 6 2 10 4 10 3 0 8 -4 11 -10z m400 0 c3 -6 -1 -7 -9 -4 -18 7 -21
14 -7 14 6 0 13 -4 16 -10z m-998 -22 c-3 -8 -6 -5 -6 6 -1 11 2 17 5 13 3 -3
4 -12 1 -19z m468 2 c3 -6 -1 -7 -9 -4 -18 7 -21 14 -7 14 6 0 13 -4 16 -10z"/>
</g>
</svg>
