<?xml version="1.0" standalone="no"?>
<!DOCTYPE svg PUBLIC "-//W3C//DTD SVG 20010904//EN"
 "http://www.w3.org/TR/2001/REC-SVG-20010904/DTD/svg10.dtd">
<svg version="1.0" xmlns="http://www.w3.org/2000/svg"
 width="200.000000pt" height="200.000000pt" viewBox="0 0 200.000000 200.000000"
 preserveAspectRatio="xMidYMid meet">
<metadata>
Created by potrace 1.16, written by Peter Selinger 2001-2019
</metadata>
<g transform="translate(0.000000,200.000000) scale(0.100000,-0.100000)"
fill="#000000" stroke="none">
<path d="M0 1989 c0 -6 6 -7 13 -3 10 6 10 4 0 -7 -18 -18 -18 -163 -1 -153
10 6 11 4 1 -7 -7 -7 -13 -26 -13 -42 0 -20 4 -26 13 -21 9 6 9 4 0 -7 -18
-18 -18 -103 0 -93 10 6 10 4 0 -7 -17 -17 -17 -61 0 -78 8 -9 8 -12 0 -7 -8
4 -12 -14 -12 -69 0 -57 3 -74 12 -68 9 5 9 3 0 -8 -16 -20 -16 -832 0 -823 8
4 7 2 0 -7 -18 -19 -18 -233 0 -223 9 6 9 4 -1 -7 -16 -17 -16 -91 1 -108 9
-10 9 -12 0 -7 -9 5 -12 -23 -12 -118 l1 -125 691 0 c458 0 697 4 710 11 14 7
17 7 13 -1 -5 -7 80 -10 289 -10 185 0 295 4 295 10 0 6 -4 8 -8 5 -5 -3 -9 1
-9 9 0 8 4 12 9 9 4 -3 8 29 8 71 0 58 -3 74 -12 69 -10 -6 -10 -4 0 7 16 18
16 73 0 63 -10 -6 -10 -4 0 7 6 7 12 31 12 54 0 23 -6 47 -12 54 -10 11 -10
13 0 7 8 -5 12 2 12 24 0 22 -4 29 -12 24 -10 -6 -10 -5 -1 7 16 20 16 978 0
998 -9 11 -9 13 0 8 8 -5 11 22 12 103 0 83 -3 109 -12 103 -9 -5 -9 -4 0 8 8
10 12 67 11 186 l0 171 -692 0 c-441 0 -698 -4 -710 -10 -13 -7 -16 -7 -12 1
5 7 -84 10 -289 10 -184 -1 -295 -4 -295 -10z m105 -9 c3 -5 1 -10 -4 -10 -6
0 -11 5 -11 10 0 6 2 10 4 10 3 0 8 -4 11 -10z m315 5 c0 -2 -7 -8 -15 -15
-12 -10 -15 -10 -15 2 0 8 7 15 15 15 8 0 15 -1 15 -2z m1090 -5 c0 -5 -5 -10
-11 -10 -5 0 -7 5 -4 10 3 6 8 10 11 10 2 0 4 -4 4 -10z m400 0 c0 -5 -5 -10
-11 -10 -5 0 -7 5 -4 10 3 6 8 10 11 10 2 0 4 -4 4 -10z m-1747 -20 c-4 -16
-9 -18 -24 -9 -10 5 -19 12 -19 15 0 3 4 3 9 -1 5 -3 12 -1 16 5 11 17 23 11
18 -10z m105 -6 c1 -1 -5 -4 -15 -6 -13 -4 -19 0 -19 13 0 14 3 16 16 6 8 -6
16 -12 18 -13z m295 7 c-3 -11 -11 -17 -19 -14 -10 4 -11 8 -1 19 17 19 26 17
20 -5z m105 -7 c1 -1 -5 -4 -15 -6 -13 -4 -19 0 -19 13 0 14 3 16 16 6 8 -6
16 -12 18 -13z m298 6 c0 -11 -1 -20 -2 -20 -1 0 -9 3 -18 6 -12 5 -13 9 -3
20 17 19 23 17 23 -6z m88 -13 c-9 -5 -18 -6 -21 -3 -4 3 -1 6 7 6 10 0 10 3
-1 17 -13 15 -12 15 8 2 19 -11 20 -15 7 -22z m161 23 c3 -6 -1 -7 -9 -4 -18
7 -21 14 -7 14 6 0 13 -4 16 -10z m151 -10 c0 -13 -5 -19 -14 -15 -7 3 -16 5
-20 5 -3 0 3 7 14 15 10 8 19 15 19 15 1 0 1 -9 1 -20z m89 6 c12 -12 12 -15
1 -19 -8 -3 -16 2 -19 14 -6 23 -1 24 18 5z m155 4 c0 -5 -2 -10 -4 -10 -3 0
-8 5 -11 10 -3 6 -1 10 4 10 6 0 11 -4 11 -10z m156 -9 c0 -12 -6 -17 -18 -13
-18 4 -18 5 -1 18 10 7 18 14 18 14 1 0 1 -8 1 -19z m89 5 c12 -12 12 -15 1
-19 -8 -3 -16 2 -19 14 -6 23 -1 24 18 5z m-945 -31 c-7 -9 -15 -13 -19 -10
-3 3 1 10 9 15 21 14 24 12 10 -5z m-695 -5 c-3 -5 -12 -10 -18 -10 -7 0 -6 4
3 10 19 12 23 12 15 0z m95 0 c0 -5 -2 -10 -4 -10 -3 0 -8 5 -11 10 -3 6 -1
10 4 10 6 0 11 -4 11 -10z m805 0 c3 -5 1 -10 -4 -10 -6 0 -11 5 -11 10 0 6 2
10 4 10 3 0 8 -4 11 -10z m195 6 c0 -3 -4 -8 -10 -11 -5 -3 -10 -1 -10 4 0 6
5 11 10 11 6 0 10 -2 10 -4z m395 -6 c-3 -5 -11 -10 -16 -10 -6 0 -7 5 -4 10
3 6 11 10 16 10 6 0 7 -4 4 -10z m-1091 -8 c2 -4 -4 -8 -14 -8 -10 0 -16 4
-14 8 3 4 9 8 14 8 5 0 11 -4 14 -8z m196 4 c0 -2 -7 -7 -16 -10 -8 -3 -12 -2
-9 4 6 10 25 14 25 6z m600 0 c0 -2 -7 -7 -16 -10 -8 -3 -12 -2 -9 4 6 10 25
14 25 6z m200 0 c0 -2 -7 -7 -16 -10 -8 -3 -12 -2 -9 4 6 10 25 14 25 6z
m-1236 -21 c-4 -8 -12 -15 -20 -15 -20 0 -17 18 4 23 9 3 18 5 19 6 1 0 0 -6
-3 -14z m1286 -10 c0 -12 -29 -3 -34 10 -4 13 -2 14 14 5 11 -6 20 -13 20 -15z
m-1610 5 c0 -5 -4 -10 -10 -10 -5 0 -10 5 -10 10 0 6 5 10 10 10 6 0 10 -4 10
-10z m120 6 c0 -3 -4 -8 -10 -11 -5 -3 -10 -1 -10 4 0 6 5 11 10 11 6 0 10 -2
10 -4z m280 -6 c0 -5 -4 -10 -10 -10 -5 0 -10 5 -10 10 0 6 5 10 10 10 6 0 10
-4 10 -10z m115 0 c-3 -5 -11 -10 -16 -10 -6 0 -7 5 -4 10 3 6 11 10 16 10 6
0 7 -4 4 -10z m205 0 c0 -5 -4 -10 -10 -10 -5 0 -10 5 -10 10 0 6 5 10 10 10
6 0 10 -4 10 -10z m85 0 c3 -5 -1 -10 -9 -10 -9 0 -16 5 -16 10 0 6 4 10 9 10
6 0 13 -4 16 -10z m115 6 c0 -3 -4 -8 -10 -11 -5 -3 -10 -1 -10 4 0 6 5 11 10
11 6 0 10 -2 10 -4z m200 -6 c0 -5 -4 -10 -10 -10 -5 0 -10 5 -10 10 0 6 5 10
10 10 6 0 10 -4 10 -10z m85 0 c3 -5 -1 -10 -9 -10 -9 0 -16 5 -16 10 0 6 4
10 9 10 6 0 13 -4 16 -10z m195 0 c0 -5 -2 -10 -4 -10 -3 0 -8 5 -11 10 -3 6
-1 10 4 10 6 0 11 -4 11 -10z m120 0 c0 -5 -4 -10 -10 -10 -5 0 -10 5 -10 10
0 6 5 10 10 10 6 0 10 -4 10 -10z m280 0 c0 -5 -2 -10 -4 -10 -3 0 -8 5 -11
10 -3 6 -1 10 4 10 6 0 11 -4 11 -10z m120 0 c0 -5 -4 -10 -10 -10 -5 0 -10 5
-10 10 0 6 5 10 10 10 6 0 10 -4 10 -10z m-845 -19 c-6 -11 -65 -42 -65 -35 0
4 62 44 68 44 2 0 1 -4 -3 -9z m-1020 -11 c3 -5 2 -10 -4 -10 -5 0 -13 5 -16
10 -3 6 -2 10 4 10 5 0 13 -4 16 -10z m205 1 c0 -5 -10 -11 -22 -14 -22 -6
-22 -6 -4 8 23 17 26 18 26 6z m204 -3 c-7 -11 -34 -10 -34 1 0 6 9 9 19 8 11
0 17 -5 15 -9z m196 2 c0 -5 -5 -10 -11 -10 -5 0 -7 5 -4 10 3 6 8 10 11 10 2
0 4 -4 4 -10z m195 0 c3 -5 1 -10 -4 -10 -6 0 -11 5 -11 10 0 6 2 10 4 10 3 0
8 -4 11 -10z m425 -14 c0 -2 -9 -2 -20 1 -11 3 -20 9 -20 15 0 5 9 4 20 -2 11
-6 20 -12 20 -14z m181 11 c-7 -7 -14 -8 -21 -1 -6 6 -2 10 12 11 16 2 18 -1
9 -10z m219 -13 c0 -2 -9 0 -20 6 -11 6 -20 13 -20 16 0 2 9 0 20 -6 11 -6 20
-13 20 -16z m190 16 c0 -5 -7 -10 -16 -10 -8 0 -12 5 -9 10 3 6 10 10 16 10 5
0 9 -4 9 -10z m-267 -15 c4 -8 2 -17 -3 -20 -6 -4 -10 3 -10 14 0 25 6 27 13
6z m-1493 -17 c0 -4 -4 -8 -9 -8 -6 0 -12 4 -15 8 -3 5 1 9 9 9 8 0 15 -4 15
-9z m100 7 c0 -2 -10 -9 -22 -15 -22 -11 -22 -10 -4 4 21 17 26 19 26 11z
m190 -5 c0 -5 -5 -10 -11 -10 -5 0 -7 5 -4 10 3 6 8 10 11 10 2 0 4 -4 4 -10z
m116 -3 c4 -4 0 -7 -9 -7 -9 0 -18 4 -21 9 -7 10 20 9 30 -2z m84 -2 c-7 -9
-15 -13 -19 -10 -3 3 1 10 9 15 21 14 24 12 10 -5z m200 5 c0 -5 -5 -10 -11
-10 -5 0 -7 5 -4 10 3 6 8 10 11 10 2 0 4 -4 4 -10z m119 -3 c8 -10 7 -14 -4
-14 -8 0 -15 6 -15 14 0 7 2 13 4 13 2 0 9 -6 15 -13z m196 3 c3 -5 1 -10 -4
-10 -6 0 -11 5 -11 10 0 6 2 10 4 10 3 0 8 -4 11 -10z m85 0 c0 -5 -5 -10 -11
-10 -5 0 -7 5 -4 10 3 6 8 10 11 10 2 0 4 -4 4 -10z m115 0 c3 -5 1 -10 -4
-10 -6 0 -11 5 -11 10 0 6 2 10 4 10 3 0 8 -4 11 -10z m85 -5 c0 -2 -6 -5 -13
-8 -8 -3 -14 1 -14 8 0 7 6 11 14 8 7 -3 13 -6 13 -8z m115 5 c3 -5 1 -10 -4
-10 -6 0 -11 5 -11 10 0 6 2 10 4 10 3 0 8 -4 11 -10z m285 -2 c0 -4 -4 -8 -9
-8 -6 0 -12 4 -15 8 -3 5 1 9 9 9 8 0 15 -4 15 -9z m115 2 c3 -6 -1 -7 -9 -4
-18 7 -21 14 -7 14 6 0 13 -4 16 -10z m-915 -4 c0 -2 -7 -7 -16 -10 -8 -3 -12
-2 -9 4 6 10 25 14 25 6z m725 -6 c3 -6 -1 -7 -9 -4 -18 7 -21 14 -7 14 6 0
13 -4 16 -10z m-1360 -10 c-3 -5 -12 -10 -18 -10 -7 0 -6 4 3 10 19 12 23 12
15 0z m-205 -4 c0 -3 -4 -8 -10 -11 -5 -3 -10 -1 -10 4 0 6 5 11 10 11 6 0 10
-2 10 -4z m87 -18 c-3 -8 -6 -5 -6 6 -1 11 2 17 5 13 3 -3 4 -12 1 -19z m518
12 c3 -6 -1 -7 -9 -4 -18 7 -21 14 -7 14 6 0 13 -4 16 -10z m-710 -10 c-3 -5
-11 -10 -16 -10 -6 0 -7 5 -4 10 3 6 11 10 16 10 6 0 7 -4 4 -10z m1810 0 c3
-5 2 -10 -4 -10 -5 0 -13 5 -16 10 -3 6 -2 10 4 10 5 0 13 -4 16 -10z m-1847
-26 c1 -1 -5 -4 -15 -6 -13 -4 -19 0 -19 13 0 14 3 16 16 6 8 -6 16 -12 18
-13z m295 7 c-3 -12 -11 -17 -19 -14 -11 4 -12 9 -3 19 16 20 28 17 22 -5z
m105 -7 c1 -1 -5 -4 -15 -6 -13 -4 -19 0 -19 13 0 14 3 16 16 6 8 -6 16 -12
18 -13z m298 6 c0 -11 -1 -20 -2 -20 -1 0 -9 3 -18 6 -12 5 -13 9 -3 20 17 19
23 17 23 -6z m97 7 c4 3 7 2 7 -4 0 -6 -8 -13 -18 -15 -12 -4 -18 1 -18 13 0
12 4 15 12 9 6 -6 14 -7 17 -3z m303 -7 c0 -13 -5 -19 -14 -15 -7 3 -16 5 -20
5 -3 0 3 7 14 15 10 8 19 15 19 15 1 0 1 -9 1 -20z m89 6 c12 -12 12 -15 -1
-20 -9 -3 -17 -6 -18 -6 -1 0 -2 9 -2 20 0 24 3 24 21 6z m311 -5 c0 -12 -6
-17 -18 -13 -18 4 -18 5 -1 18 10 7 18 14 18 14 1 0 1 -8 1 -19z m97 -2 c5 -3
2 -9 -7 -12 -12 -5 -16 0 -16 15 0 12 3 17 8 12 4 -5 11 -12 15 -15z m303 2
c0 -12 -6 -17 -18 -13 -10 2 -18 9 -18 14 0 5 4 7 9 3 5 -3 12 -1 16 5 9 14
11 13 11 -9z m-1756 -21 c0 -5 -7 -10 -16 -10 -8 0 -12 5 -9 10 3 6 10 10 16
10 5 0 9 -4 9 -10z m400 0 c0 -5 -4 -10 -10 -10 -5 0 -10 5 -10 10 0 6 5 10
10 10 6 0 10 -4 10 -10z m87 -12 c-3 -8 -6 -5 -6 6 -1 11 2 17 5 13 3 -3 4
-12 1 -19z m313 12 c0 -5 -4 -10 -10 -10 -5 0 -10 5 -10 10 0 6 5 10 10 10 6
0 10 -4 10 -10z m400 0 c0 -5 -4 -10 -10 -10 -5 0 -10 5 -10 10 0 6 5 10 10
10 6 0 10 -4 10 -10z m100 -5 c-7 -8 -18 -15 -24 -15 -6 0 -2 7 8 15 25 19 32
19 16 0z m300 5 c0 -5 -4 -10 -10 -10 -5 0 -10 5 -10 10 0 6 5 10 10 10 6 0
10 -4 10 -10z m-1700 -10 c0 -5 -2 -10 -4 -10 -3 0 -8 5 -11 10 -3 6 -1 10 4
10 6 0 11 -4 11 -10z m305 0 c-3 -5 -12 -10 -18 -10 -7 0 -6 4 3 10 19 12 23
12 15 0z m100 0 c3 -6 -1 -7 -9 -4 -18 7 -21 14 -7 14 6 0 13 -4 16 -10z m395
0 c0 -5 -2 -10 -4 -10 -3 0 -8 5 -11 10 -3 6 -1 10 4 10 6 0 11 -4 11 -10z
m695 -8 c-3 -3 -11 0 -18 7 -9 10 -8 11 6 5 10 -3 15 -9 12 -12z m-1460 -12
c3 -5 1 -10 -4 -10 -6 0 -11 5 -11 10 0 6 2 10 4 10 3 0 8 -4 11 -10z m400 0
c3 -5 1 -10 -4 -10 -6 0 -11 5 -11 10 0 6 2 10 4 10 3 0 8 -4 11 -10z m1325 0
c0 -5 -4 -10 -10 -10 -5 0 -10 5 -10 10 0 6 5 10 10 10 6 0 10 -4 10 -10z
m-1500 -4 c0 -3 -4 -8 -10 -11 -5 -3 -10 -1 -10 4 0 6 5 11 10 11 6 0 10 -2
10 -4z m1280 -6 c0 -5 -2 -10 -4 -10 -3 0 -8 5 -11 10 -3 6 -1 10 4 10 6 0 11
-4 11 -10z m-1339 -30 c-3 -3 -9 -9 -13 -14 -5 -5 -8 3 -8 18 0 22 2 25 14 14
8 -7 11 -15 7 -18z m814 13 c9 4 14 3 10 -3 -3 -6 -12 -10 -20 -10 -7 0 -15
-6 -18 -12 -2 -7 -4 0 -4 16 0 17 2 23 7 16 4 -7 15 -10 25 -7z m188 6 c-6 -6
-9 -19 -5 -27 5 -14 4 -15 -10 -2 -14 13 -14 16 1 27 20 16 29 17 14 2z m494
-21 c-3 -7 -5 -2 -5 12 0 14 2 19 5 13 2 -7 2 -19 0 -25z m-1712 12 c-3 -5 -1
-10 6 -10 7 0 10 -2 7 -5 -3 -3 -13 -2 -22 1 -14 5 -15 9 -4 15 17 11 20 11
13 -1z m109 -5 c3 -8 1 -15 -4 -15 -6 0 -10 7 -10 15 0 8 2 15 4 15 2 0 6 -7
10 -15z m302 7 c-3 -3 0 -12 7 -20 10 -12 6 -12 -20 2 -18 9 -33 18 -33 19 0
1 12 3 26 3 14 1 23 -1 20 -4z m101 -7 c0 -11 -4 -12 -14 -4 -7 6 -13 13 -13
15 0 2 6 4 13 4 8 0 14 -7 14 -15z m113 0 c0 -2 -6 -5 -13 -8 -8 -3 -14 1 -14
8 0 7 6 11 14 8 7 -3 13 -6 13 -8z m187 -10 c1 -11 -1 -14 -4 -7 -3 6 -11 12
-18 12 -8 0 -16 3 -18 8 -3 4 5 7 17 7 15 0 22 -6 23 -20z m99 -2 c-10 -10
-19 5 -10 18 6 11 8 11 12 0 2 -7 1 -15 -2 -18z m404 12 c0 -8 -4 -15 -9 -15
-5 0 -11 7 -15 15 -3 9 0 15 9 15 8 0 15 -7 15 -15z m118 1 c-2 -1 -11 -7 -20
-15 -15 -11 -17 -10 -15 7 1 13 7 18 19 14 11 -2 17 -5 16 -6z m179 -6 c1 -16
-1 -17 -12 -7 -11 10 -8 19 10 27 1 0 1 -9 2 -20z m217 7 c16 -12 16 -13 -3
-13 -11 0 -23 6 -25 13 -3 7 -2 13 2 13 5 0 16 -6 26 -13z m-669 -28 c-10 -15
-25 -10 -19 6 4 8 10 12 15 9 5 -3 7 -10 4 -15z m-890 1 c3 -5 2 -10 -4 -10
-5 0 -13 5 -16 10 -3 6 -2 10 4 10 5 0 13 -4 16 -10z m400 0 c3 -5 1 -10 -4
-10 -6 0 -11 5 -11 10 0 6 2 10 4 10 3 0 8 -4 11 -10z m885 0 c0 -5 -5 -10
-11 -10 -5 0 -7 5 -4 10 3 6 8 10 11 10 2 0 4 -4 4 -10z m-1500 -10 c0 -5 -4
-10 -10 -10 -5 0 -10 5 -10 10 0 6 5 10 10 10 6 0 10 -4 10 -10z m110 0 c0 -5
-2 -10 -4 -10 -3 0 -8 5 -11 10 -3 6 -1 10 4 10 6 0 11 -4 11 -10z m290 0 c0
-5 -4 -10 -10 -10 -5 0 -10 5 -10 10 0 6 5 10 10 10 6 0 10 -4 10 -10z m110 0
c0 -5 -4 -10 -10 -10 -5 0 -10 5 -10 10 0 6 5 10 10 10 6 0 10 -4 10 -10z
m800 0 c0 -5 -4 -10 -10 -10 -5 0 -10 5 -10 10 0 6 5 10 10 10 6 0 10 -4 10
-10z m410 0 c0 -5 -4 -10 -10 -10 -5 0 -10 5 -10 10 0 6 5 10 10 10 6 0 10 -4
10 -10z m-960 -15 c0 -8 -4 -15 -10 -15 -5 0 -7 7 -4 15 4 8 8 15 10 15 2 0 4
-7 4 -15z m695 -3 c-3 -3 -11 0 -18 7 -9 10 -8 11 6 5 10 -3 15 -9 12 -12z
m-1190 -2 c3 -6 -1 -7 -9 -4 -18 7 -21 14 -7 14 6 0 13 -4 16 -10z m95 0 c0
-5 -5 -10 -11 -10 -5 0 -7 5 -4 10 3 6 8 10 11 10 2 0 4 -4 4 -10z m590 0 c0
-5 -2 -10 -4 -10 -3 0 -8 5 -11 10 -3 6 -1 10 4 10 6 0 11 -4 11 -10z m115 0
c3 -6 -1 -7 -9 -4 -18 7 -21 14 -7 14 6 0 13 -4 16 -10z m-1005 -10 c0 -5 -4
-10 -9 -10 -6 0 -13 5 -16 10 -3 6 1 10 9 10 9 0 16 -4 16 -10z m400 0 c0 -5
-4 -10 -10 -10 -5 0 -10 5 -10 10 0 6 5 10 10 10 6 0 10 -4 10 -10z m400 0 c0
-5 -4 -10 -10 -10 -5 0 -10 5 -10 10 0 6 5 10 10 10 6 0 10 -4 10 -10z m400 0
c0 -5 -4 -10 -10 -10 -5 0 -10 5 -10 10 0 6 5 10 10 10 6 0 10 -4 10 -10z
m400 0 c0 -5 -4 -10 -10 -10 -5 0 -10 5 -10 10 0 6 5 10 10 10 6 0 10 -4 10
-10z m105 0 c3 -6 -1 -7 -9 -4 -18 7 -21 14 -7 14 6 0 13 -4 16 -10z m-1845
-23 c0 -6 -3 -7 -7 -4 -3 4 -11 3 -17 -3 -8 -6 -12 -3 -12 9 0 12 6 17 18 13
10 -2 18 -9 18 -15z m296 3 c0 -23 -9 -26 -25 -6 -9 11 -9 15 1 19 22 9 24 8
24 -13z m102 6 c-2 -1 -10 -7 -18 -13 -13 -10 -16 -8 -16 6 0 13 6 17 19 13
10 -2 16 -5 15 -6z m298 -6 c0 -24 -3 -24 -22 -6 -11 11 -11 16 -1 19 21 9 23
8 23 -13z m88 14 c9 -3 16 -11 16 -17 0 -6 -3 -7 -7 -4 -3 4 -11 3 -17 -3 -8
-6 -12 -3 -12 11 0 10 1 19 2 19 1 0 9 -3 18 -6z m312 -13 c0 -15 -3 -17 -18
-8 -13 8 -14 13 -5 19 18 12 23 10 23 -11z m88 13 c13 -5 13 -8 1 -20 -18 -18
-21 -18 -21 6 0 11 1 20 2 20 1 0 9 -3 18 -6z m312 -13 c0 -14 -4 -17 -12 -11
-6 6 -14 7 -17 3 -4 -3 -7 -1 -7 5 0 6 8 13 18 15 9 3 17 5 17 6 1 0 1 -8 1
-18z m89 -7 c-19 -19 -24 -18 -18 5 3 12 11 17 19 14 11 -4 11 -7 -1 -19z
m311 7 c0 -14 -4 -17 -12 -11 -6 6 -14 7 -17 3 -4 -3 -7 -1 -7 5 0 6 8 13 18
15 9 3 17 5 17 6 1 0 1 -8 1 -18z m-256 -21 c0 -5 -2 -10 -4 -10 -3 0 -8 5
-11 10 -3 6 -1 10 4 10 6 0 11 -4 11 -10z m-1505 -10 c3 -5 1 -10 -4 -10 -6 0
-11 5 -11 10 0 6 2 10 4 10 3 0 8 -4 11 -10z m610 0 c-3 -5 -12 -10 -18 -10
-7 0 -6 4 3 10 19 12 23 12 15 0z m800 0 c-3 -5 -12 -10 -18 -10 -7 0 -6 4 3
10 19 12 23 12 15 0z m195 0 c0 -5 -5 -10 -11 -10 -5 0 -7 5 -4 10 3 6 8 10
11 10 2 0 4 -4 4 -10z m-1553 -24 c0 -8 -6 -12 -15 -9 -11 5 -11 7 0 14 7 5
13 9 14 9 0 0 1 -6 1 -14z m313 -1 c-7 -9 -15 -13 -18 -10 -3 3 -12 -1 -20 -8
-13 -10 -14 -9 -8 1 4 7 18 17 30 22 29 12 30 12 16 -5z m90 -11 c0 -2 -9 0
-20 6 -11 6 -20 13 -20 16 0 2 9 0 20 -6 11 -6 20 -13 20 -16z m385 8 c-3 -3
-11 0 -18 7 -9 10 -8 11 6 5 10 -3 15 -9 12 -12z m405 6 c0 -4 -4 -8 -9 -8 -6
0 -12 4 -15 8 -3 5 1 9 9 9 8 0 15 -4 15 -9z m330 7 c0 -2 -10 -9 -22 -15 -22
-11 -22 -10 -4 4 21 17 26 19 26 11z m81 -12 c9 -9 7 -11 -5 -9 -9 1 -21 7
-27 13 -9 9 -7 11 5 9 9 -1 21 -7 27 -13z m-1701 -13 c0 -11 -2 -20 -4 -20 -2
0 -6 9 -9 20 -3 11 -1 20 4 20 5 0 9 -9 9 -20z m210 16 c0 -3 -4 -8 -10 -11
-5 -3 -10 -1 -10 4 0 6 5 11 10 11 6 0 10 -2 10 -4z m400 0 c0 -3 -4 -8 -10
-11 -5 -3 -10 -1 -10 4 0 6 5 11 10 11 6 0 10 -2 10 -4z m200 0 c0 -3 -4 -8
-10 -11 -5 -3 -10 -1 -10 4 0 6 5 11 10 11 6 0 10 -2 10 -4z m200 0 c0 -3 -4
-8 -10 -11 -5 -3 -10 -1 -10 4 0 6 5 11 10 11 6 0 10 -2 10 -4z m200 0 c0 -3
-4 -8 -10 -11 -5 -3 -10 -1 -10 4 0 6 5 11 10 11 6 0 10 -2 10 -4z m280 -6 c0
-5 -2 -10 -4 -10 -3 0 -8 5 -11 10 -3 6 -1 10 4 10 6 0 11 -4 11 -10z m-1340
-36 c0 -2 -9 0 -20 6 -11 6 -20 13 -20 16 0 2 9 0 20 -6 11 -6 20 -13 20 -16z
m400 7 c0 -13 -29 -8 -34 5 -3 7 2 10 15 7 10 -3 19 -9 19 -12z m194 -2 c-8
-13 -21 -11 -27 5 -4 10 0 12 14 9 10 -3 16 -9 13 -14z m820 8 c-3 -8 -12 -14
-21 -14 -13 0 -13 2 3 14 10 7 19 13 21 13 1 0 0 -6 -3 -13z m-1619 -7 c-3 -5
-11 -10 -16 -10 -6 0 -7 5 -4 10 3 6 11 10 16 10 6 0 7 -4 4 -10z m400 0 c-3
-5 -11 -10 -16 -10 -6 0 -7 5 -4 10 3 6 11 10 16 10 6 0 7 -4 4 -10z m605 0
c0 -5 -2 -10 -4 -10 -3 0 -8 5 -11 10 -3 6 -1 10 4 10 6 0 11 -4 11 -10z m202
-1 c2 -2 1 -3 -1 -2 -2 1 -12 -2 -22 -8 -14 -7 -17 -6 -13 5 5 13 29 16 36 5z
m198 1 c0 -5 -2 -10 -4 -10 -3 0 -8 5 -11 10 -3 6 -1 10 4 10 6 0 11 -4 11
-10z m410 0 c0 -5 -4 -10 -9 -10 -6 0 -13 5 -16 10 -3 6 1 10 9 10 9 0 16 -4
16 -10z m-1860 -25 c-14 -17 -30 -20 -30 -6 0 5 8 12 18 14 9 3 19 5 21 6 2 0
-2 -6 -9 -14z m100 -5 c0 -5 -2 -10 -4 -10 -3 0 -8 5 -11 10 -3 6 -1 10 4 10
6 0 11 -4 11 -10z m209 -4 c10 -12 8 -13 -8 -9 -12 3 -18 9 -15 14 7 12 10 11
23 -5z m86 4 c-3 -5 -10 -10 -16 -10 -5 0 -9 5 -9 10 0 6 7 10 16 10 8 0 12
-4 9 -10z m110 0 c3 -5 1 -10 -4 -10 -6 0 -11 5 -11 10 0 6 2 10 4 10 3 0 8
-4 11 -10z m209 -5 c4 -13 2 -14 -14 -5 -23 13 -26 20 -6 20 8 0 16 -7 20 -15z
m81 5 c-3 -5 -11 -10 -16 -10 -6 0 -7 5 -4 10 3 6 11 10 16 10 6 0 7 -4 4 -10z
m318 -4 c4 -10 1 -13 -9 -9 -7 3 -14 9 -14 14 0 14 17 10 23 -5z m82 4 c-3 -5
-11 -10 -16 -10 -6 0 -7 5 -4 10 3 6 11 10 16 10 6 0 7 -4 4 -10z m195 0 c0
-5 -5 -10 -11 -10 -5 0 -7 5 -4 10 3 6 8 10 11 10 2 0 4 -4 4 -10z m120 0 c0
-5 -4 -10 -10 -10 -5 0 -10 5 -10 10 0 6 5 10 10 10 6 0 10 -4 10 -10z m84 1
c3 -5 -3 -11 -15 -14 -16 -4 -18 -3 -8 9 13 16 16 17 23 5z m201 -1 c-3 -5
-11 -10 -16 -10 -6 0 -7 5 -4 10 3 6 11 10 16 10 6 0 7 -4 4 -10z m115 0 c0
-5 -4 -10 -10 -10 -5 0 -10 5 -10 10 0 6 5 10 10 10 6 0 10 -4 10 -10z m-1555
-20 c-3 -5 -12 -10 -18 -10 -7 0 -6 4 3 10 19 12 23 12 15 0z m600 0 c-3 -5
-12 -10 -18 -10 -7 0 -6 4 3 10 19 12 23 12 15 0z m400 0 c-3 -5 -12 -10 -18
-10 -7 0 -6 4 3 10 19 12 23 12 15 0z m405 5 c0 -2 -10 -9 -22 -15 -22 -11
-22 -10 -4 4 21 17 26 19 26 11z m-1510 -15 c0 -5 -5 -10 -11 -10 -5 0 -7 5
-4 10 3 6 8 10 11 10 2 0 4 -4 4 -10z m305 0 c3 -6 -1 -7 -9 -4 -18 7 -21 14
-7 14 6 0 13 -4 16 -10z m285 0 c0 -5 -2 -10 -4 -10 -3 0 -8 5 -11 10 -3 6 -1
10 4 10 6 0 11 -4 11 -10z m207 -12 c-3 -8 -6 -5 -6 6 -1 11 2 17 5 13 3 -3 4
-12 1 -19z m198 12 c3 -5 1 -10 -4 -10 -6 0 -11 5 -11 10 0 6 2 10 4 10 3 0 8
-4 11 -10z m400 0 c3 -5 1 -10 -4 -10 -6 0 -11 5 -11 10 0 6 2 10 4 10 3 0 8
-4 11 -10z m-1541 -49 c-2 -2 -11 2 -19 9 -13 11 -13 15 -3 21 8 5 15 2 19 -9
4 -9 5 -19 3 -21z m104 25 c-2 -1 -10 -7 -18 -13 -13 -10 -16 -8 -16 6 0 13 6
17 19 13 10 -2 16 -5 15 -6z m103 -3 c13 -16 12 -17 -3 -4 -10 7 -18 15 -18
17 0 8 8 3 21 -13z m195 -3 c0 -24 -3 -24 -22 -6 -11 11 -11 16 -1 19 21 9 23
8 23 -13z m102 6 c-2 -1 -10 -7 -18 -13 -13 -10 -16 -8 -16 6 0 13 6 17 19 13
10 -2 16 -5 15 -6z m298 -5 c0 -15 -3 -17 -18 -8 -13 8 -14 13 -5 19 18 12 23
10 23 -11z m84 5 c0 -8 -4 -17 -8 -20 -4 -2 -8 4 -8 15 0 10 4 19 8 19 4 0 8
-6 8 -14z m316 -5 c0 -14 -4 -17 -12 -11 -6 6 -14 7 -17 3 -4 -3 -7 -1 -7 5 0
9 14 19 30 21 3 1 6 -8 6 -18z m89 -7 c-19 -19 -24 -18 -18 5 3 12 11 17 19
14 11 -4 11 -7 -1 -19z m311 7 c0 -15 -3 -17 -18 -7 -17 10 -17 11 0 18 9 3
17 7 17 7 1 1 1 -7 1 -18z m114 -7 c0 -3 -5 -2 -11 2 -6 3 -15 0 -20 -7 -6
-10 -9 -8 -9 9 0 20 3 21 20 12 11 -6 20 -13 20 -16z m-1470 -9 c-7 -9 -15
-13 -19 -10 -3 3 1 10 9 15 21 14 24 12 10 -5z m-105 -5 c3 -5 2 -10 -4 -10
-5 0 -13 5 -16 10 -3 6 -2 10 4 10 5 0 13 -4 16 -10z m905 6 c0 -3 -4 -8 -10
-11 -5 -3 -10 -1 -10 4 0 6 5 11 10 11 6 0 10 -2 10 -4z m295 -6 c3 -6 -1 -7
-9 -4 -18 7 -21 14 -7 14 6 0 13 -4 16 -10z m105 0 c0 -5 -2 -10 -4 -10 -3 0
-8 5 -11 10 -3 6 -1 10 4 10 6 0 11 -4 11 -10z m-1395 -20 c3 -6 -1 -7 -9 -4
-18 7 -21 14 -7 14 6 0 13 -4 16 -10z m950 0 c-3 -5 -12 -10 -18 -10 -7 0 -6
4 3 10 19 12 23 12 15 0z m515 5 c0 -2 -10 -9 -22 -15 -22 -11 -22 -10 -4 4
21 17 26 19 26 11z m-925 -15 c3 -6 -1 -7 -9 -4 -18 7 -21 14 -7 14 6 0 13 -4
16 -10z m-595 -10 c0 -5 -5 -10 -11 -10 -5 0 -7 5 -4 10 3 6 8 10 11 10 2 0 4
-4 4 -10z m400 0 c0 -5 -5 -10 -11 -10 -5 0 -7 5 -4 10 3 6 8 10 11 10 2 0 4
-4 4 -10z m405 0 c-3 -5 -11 -10 -16 -10 -6 0 -7 5 -4 10 3 6 11 10 16 10 6 0
7 -4 4 -10z m85 0 c0 -5 -2 -10 -4 -10 -3 0 -8 5 -11 10 -3 6 -1 10 4 10 6 0
11 -4 11 -10z m320 6 c0 -3 -4 -8 -10 -11 -5 -3 -10 -1 -10 4 0 6 5 11 10 11
6 0 10 -2 10 -4z m80 -6 c0 -5 -2 -10 -4 -10 -3 0 -8 5 -11 10 -3 6 -1 10 4
10 6 0 11 -4 11 -10z m-1345 -14 c12 -12 12 -15 -1 -20 -9 -3 -17 -6 -18 -6
-1 0 -2 9 -2 20 0 24 3 24 21 6z m400 0 c12 -12 12 -15 1 -19 -8 -3 -16 2 -19
14 -6 23 -1 24 18 5z m202 -5 c-1 -12 -7 -17 -19 -13 -18 4 -18 5 -1 18 23 17
22 17 20 -5z m198 5 c12 -12 12 -15 -2 -21 -10 -3 -14 -3 -10 1 4 4 2 13 -4
21 -15 17 -1 17 16 -1z m202 -5 c-1 -11 -6 -17 -14 -14 -10 4 -11 9 -2 19 15
19 18 18 16 -5z m221 -7 c1 -1 -5 -4 -16 -6 -12 -4 -18 1 -19 14 -2 17 0 18
15 7 9 -8 18 -14 20 -15z m182 6 c0 -13 -5 -18 -15 -14 -12 5 -13 10 -4 20 15
19 19 18 19 -6z m218 -6 c1 -1 -5 -4 -15 -6 -13 -4 -19 0 -19 13 0 14 3 16 16
6 8 -6 16 -12 18 -13z m182 6 c0 -13 -5 -18 -15 -14 -11 5 -12 9 -2 20 16 18
17 17 17 -6z m-1607 -4 c4 -10 0 -12 -15 -8 -15 4 -17 7 -6 13 17 11 15 11 21
-5z m101 -1 c-4 -8 -8 -15 -10 -15 -2 0 -4 7 -4 15 0 8 4 15 10 15 5 0 7 -7 4
-15z m406 6 c0 -6 -4 -13 -10 -16 -5 -3 -10 1 -10 9 0 9 5 16 10 16 6 0 10 -4
10 -9z m398 -3 c-2 -6 -10 -14 -16 -16 -7 -2 -10 2 -6 12 7 18 28 22 22 4z
m402 2 c0 -5 -2 -10 -4 -10 -3 0 -8 5 -11 10 -3 6 -1 10 4 10 6 0 11 -4 11
-10z m-1360 -24 c0 -3 -4 -8 -10 -11 -5 -3 -10 -1 -10 4 0 6 5 11 10 11 6 0
10 -2 10 -4z m395 -6 c-3 -5 -12 -10 -18 -10 -7 0 -6 4 3 10 19 12 23 12 15 0z
m210 -8 c-3 -3 -11 0 -18 7 -9 10 -8 11 6 5 10 -3 15 -9 12 -12z m920 0 c-3
-3 -11 0 -18 7 -9 10 -8 11 6 5 10 -3 15 -9 12 -12z m-105 4 c0 -2 -7 -7 -16
-10 -8 -3 -12 -2 -9 4 6 10 25 14 25 6z m145 -16 c-3 -5 -12 -10 -18 -10 -7 0
-6 4 3 10 19 12 23 12 15 0z m-1715 -10 c0 -5 -2 -10 -4 -10 -3 0 -8 5 -11 10
-3 6 -1 10 4 10 6 0 11 -4 11 -10z m210 0 c0 -5 -5 -10 -11 -10 -5 0 -7 5 -4
10 3 6 8 10 11 10 2 0 4 -4 4 -10z m195 0 c3 -5 2 -10 -4 -10 -5 0 -13 5 -16
10 -3 6 -2 10 4 10 5 0 13 -4 16 -10z m400 0 c3 -5 2 -10 -4 -10 -5 0 -13 5
-16 10 -3 6 -2 10 4 10 5 0 13 -4 16 -10z m215 6 c0 -3 -4 -8 -10 -11 -5 -3
-10 -1 -10 4 0 6 5 11 10 11 6 0 10 -2 10 -4z m185 -6 c3 -5 1 -10 -4 -10 -6
0 -11 5 -11 10 0 6 2 10 4 10 3 0 8 -4 11 -10z m215 6 c0 -3 -4 -8 -10 -11 -5
-3 -10 -1 -10 4 0 6 5 11 10 11 6 0 10 -2 10 -4z m340 -26 c4 -3 2 -10 -5 -16
-9 -9 -12 -5 -12 20 -1 17 2 24 5 16 3 -8 8 -17 12 -20z m50 20 c0 -5 -5 -10
-11 -10 -5 0 -7 5 -4 10 3 6 8 10 11 10 2 0 4 -4 4 -10z m-1500 -10 c0 -5 -4
-10 -10 -10 -5 0 -10 5 -10 10 0 6 5 10 10 10 6 0 10 -4 10 -10z m400 0 c0 -5
-4 -10 -10 -10 -5 0 -10 5 -10 10 0 6 5 10 10 10 6 0 10 -4 10 -10z m400 0 c0
-5 -4 -10 -10 -10 -5 0 -10 5 -10 10 0 6 5 10 10 10 6 0 10 -4 10 -10z m400 0
c0 -5 -4 -10 -10 -10 -5 0 -10 5 -10 10 0 6 5 10 10 10 6 0 10 -4 10 -10z
m-1453 -27 c0 -16 -1 -20 -4 -10 -2 9 -10 17 -16 17 -9 0 2 12 18 20 0 0 1
-12 2 -27z m123 21 c0 -1 -10 -8 -23 -17 -20 -13 -23 -13 -23 2 0 10 9 16 23
16 13 0 23 -1 23 -1z m283 -34 c-2 -2 -8 2 -12 9 -5 8 -15 10 -22 7 -8 -4 -5
0 6 9 18 14 20 14 26 -2 4 -10 5 -20 2 -23z m103 24 c10 -8 13 -13 6 -9 -7 4
-18 2 -25 -4 -9 -7 -13 -5 -13 10 0 23 6 24 32 3z m298 3 c-2 -7 -14 -13 -25
-13 -19 0 -19 1 -3 13 10 7 21 13 26 13 4 0 5 -6 2 -13z m93 5 c9 -6 8 -11 -5
-19 -15 -9 -18 -7 -18 8 0 21 5 23 23 11z m307 -5 c-2 -7 -14 -13 -25 -13 -19
0 -19 1 -3 13 10 7 21 13 26 13 4 0 5 -6 2 -13z m104 -1 c-2 -1 -11 -7 -20
-14 -14 -11 -16 -10 -11 7 3 12 11 17 19 14 8 -3 14 -6 12 -7z m299 -1 c0 -17
0 -17 -22 -9 -13 5 -14 8 -3 15 19 12 25 11 25 -6z m-1667 -25 c0 -5 -5 -10
-11 -10 -5 0 -7 5 -4 10 3 6 8 10 11 10 2 0 4 -4 4 -10z m1410 0 c0 -5 -2 -10
-4 -10 -3 0 -8 5 -11 10 -3 6 -1 10 4 10 6 0 11 -4 11 -10z m400 0 c0 -5 -2
-10 -4 -10 -3 0 -8 5 -11 10 -3 6 -1 10 4 10 6 0 11 -4 11 -10z m-1865 -30 c3
-5 1 -10 -4 -10 -6 0 -11 5 -11 10 0 6 2 10 4 10 3 0 8 -4 11 -10z m325 1 c0
-5 -9 -11 -21 -14 -16 -4 -18 -3 -8 9 13 16 29 19 29 5z m80 -1 c0 -5 -4 -10
-10 -10 -5 0 -10 5 -10 10 0 6 5 10 10 10 6 0 10 -4 10 -10z m320 0 c0 -5 -4
-10 -10 -10 -5 0 -10 5 -10 10 0 6 5 10 10 10 6 0 10 -4 10 -10z m80 0 c0 -5
-4 -10 -9 -10 -6 0 -13 5 -16 10 -3 6 1 10 9 10 9 0 16 -4 16 -10z m320 0 c0
-5 -5 -10 -11 -10 -5 0 -7 5 -4 10 3 6 8 10 11 10 2 0 4 -4 4 -10z m85 0 c-3
-5 -10 -10 -16 -10 -5 0 -9 5 -9 10 0 6 7 10 16 10 8 0 12 -4 9 -10z m115 -5
c-7 -9 -15 -13 -19 -10 -3 3 1 10 9 15 21 14 24 12 10 -5z m205 5 c-3 -5 -10
-10 -16 -10 -5 0 -9 5 -9 10 0 6 7 10 16 10 8 0 12 -4 9 -10z m84 -4 c10 -12
8 -13 -8 -9 -12 3 -21 9 -21 14 0 14 16 11 29 -5z m316 4 c-3 -5 -10 -10 -16
-10 -5 0 -9 5 -9 10 0 6 7 10 16 10 8 0 12 -4 9 -10z m-205 -4 c0 -2 -7 -7
-16 -10 -8 -3 -12 -2 -9 4 6 10 25 14 25 6z m77 -18 c-3 -8 -6 -5 -6 6 -1 11
2 17 5 13 3 -3 4 -12 1 -19z m88 2 c-3 -5 -15 -15 -27 -21 -16 -9 -19 -8 -16
3 3 7 10 13 16 13 5 0 14 3 18 8 11 10 16 9 9 -3z m-1625 -15 c-7 -8 -17 -12
-23 -8 -6 4 -3 9 9 14 27 11 28 11 14 -6z m400 0 c-7 -8 -18 -15 -24 -15 -6 0
-2 7 8 15 25 19 32 19 16 0z m206 -12 c-7 -7 -26 7 -26 19 0 6 6 6 15 -2 9 -7
13 -15 11 -17z m394 6 c0 -6 -4 -7 -10 -4 -5 3 -10 11 -10 16 0 6 5 7 10 4 6
-3 10 -11 10 -16z m195 2 c-3 -6 -11 -11 -17 -11 -6 0 -6 6 2 15 14 17 26 13
15 -4z m-1384 -8 c13 -15 12 -15 -9 -4 -12 6 -28 9 -34 5 -7 -4 -8 -3 -4 4 10
17 31 15 47 -5z m389 9 c0 -4 -9 -8 -19 -8 -11 0 -17 4 -15 8 3 4 12 8 20 8 8
0 14 -4 14 -8z m595 -2 c-3 -5 -11 -10 -16 -10 -6 0 -7 5 -4 10 3 6 11 10 16
10 6 0 7 -4 4 -10z m605 0 c0 -5 -2 -10 -4 -10 -3 0 -8 5 -11 10 -3 6 -1 10 4
10 6 0 11 -4 11 -10z m-1140 -31 c0 -14 -16 -11 -29 5 -10 12 -8 13 8 9 12 -3
21 -9 21 -14z m890 6 c-14 -17 -30 -20 -30 -6 0 5 8 12 18 14 9 3 19 5 21 6 2
0 -2 -6 -9 -14z m187 -7 c-3 -8 -6 -5 -6 6 -1 11 2 17 5 13 3 -3 4 -12 1 -19z
m-1597 8 c0 -2 -7 -7 -16 -10 -8 -3 -12 -2 -9 4 6 10 25 14 25 6z m115 -6 c3
-5 2 -10 -4 -10 -5 0 -13 5 -16 10 -3 6 -2 10 4 10 5 0 13 -4 16 -10z m85 0
c0 -5 -4 -10 -10 -10 -5 0 -10 5 -10 10 0 6 5 10 10 10 6 0 10 -4 10 -10z
m195 0 c-3 -5 -11 -10 -16 -10 -6 0 -7 5 -4 10 3 6 11 10 16 10 6 0 7 -4 4
-10z m205 0 c0 -5 -4 -10 -10 -10 -5 0 -10 5 -10 10 0 6 5 10 10 10 6 0 10 -4
10 -10z m195 0 c-3 -5 -12 -10 -18 -10 -7 0 -6 4 3 10 19 12 23 12 15 0z m125
0 c0 -5 -4 -10 -10 -10 -5 0 -10 5 -10 10 0 6 5 10 10 10 6 0 10 -4 10 -10z
m80 0 c0 -5 -4 -10 -10 -10 -5 0 -10 5 -10 10 0 6 5 10 10 10 6 0 10 -4 10
-10z m320 0 c0 -5 -4 -10 -10 -10 -5 0 -10 5 -10 10 0 6 5 10 10 10 6 0 10 -4
10 -10z m400 0 c0 -5 -4 -10 -10 -10 -5 0 -10 5 -10 10 0 6 5 10 10 10 6 0 10
-4 10 -10z m90 0 c0 -5 -7 -10 -16 -10 -8 0 -12 5 -9 10 3 6 10 10 16 10 5 0
9 -4 9 -10z m110 0 c0 -5 -2 -10 -4 -10 -3 0 -8 5 -11 10 -3 6 -1 10 4 10 6 0
11 -4 11 -10z m-1355 -20 c-3 -5 -12 -10 -18 -10 -7 0 -6 4 3 10 19 12 23 12
15 0z m400 0 c-3 -5 -12 -10 -18 -10 -7 0 -6 4 3 10 19 12 23 12 15 0z m-715
-10 c0 -5 -2 -10 -4 -10 -3 0 -8 5 -11 10 -3 6 -1 10 4 10 6 0 11 -4 11 -10z
m210 0 c0 -5 -5 -10 -11 -10 -5 0 -7 5 -4 10 3 6 8 10 11 10 2 0 4 -4 4 -10z
m200 -5 c11 -13 10 -14 -4 -9 -9 3 -16 10 -16 15 0 13 6 11 20 -6z m200 5 c0
-5 -5 -10 -11 -10 -5 0 -7 5 -4 10 3 6 8 10 11 10 2 0 4 -4 4 -10z m195 0 c3
-5 1 -10 -4 -10 -6 0 -11 5 -11 10 0 6 2 10 4 10 3 0 8 -4 11 -10z m205 0 c0
-5 -5 -10 -11 -10 -5 0 -7 5 -4 10 3 6 8 10 11 10 2 0 4 -4 4 -10z m410 6 c0
-3 -4 -8 -10 -11 -5 -3 -10 -1 -10 4 0 6 5 11 10 11 6 0 10 -2 10 -4z m-150
-21 c-6 -8 -9 -19 -5 -25 4 -7 -1 -6 -14 2 l-21 13 23 12 c29 16 32 16 17 -2z
m-1502 -9 c-2 -1 -11 -7 -20 -15 -15 -11 -17 -10 -15 7 1 13 7 18 19 14 11 -2
17 -5 16 -6z m289 0 c0 -8 -6 -12 -15 -9 -11 5 -11 7 0 14 7 5 13 9 14 9 0 0
1 -6 1 -14z m101 -7 c-19 -12 -25 -11 -25 5 0 8 8 11 20 8 14 -4 16 -7 5 -13z
m302 6 c0 -9 -6 -12 -16 -8 -13 5 -13 7 -2 14 17 11 18 11 18 -6z m114 -4 c3
-4 -4 -7 -14 -7 -11 0 -22 6 -24 12 -5 12 31 8 38 -5z m286 4 c0 -9 -6 -12
-16 -8 -13 5 -13 7 -2 14 17 11 18 11 18 -6z m98 6 c11 -7 11 -9 -1 -14 -9 -3
-18 1 -21 9 -6 16 2 18 22 5z m422 -17 c0 -3 -5 -2 -11 2 -6 3 -15 0 -20 -7
-6 -10 -9 -8 -9 9 0 20 3 21 20 12 11 -6 20 -13 20 -16z m287 6 c2 -17 -1 -18
-18 -7 -18 11 -18 12 -1 19 9 3 17 7 17 7 1 1 1 -8 2 -19z m-1757 -15 c11 -13
10 -14 -4 -9 -9 3 -16 10 -16 15 0 13 6 11 20 -6z m395 5 c3 -5 1 -10 -4 -10
-6 0 -11 5 -11 10 0 6 2 10 4 10 3 0 8 -4 11 -10z m405 0 c0 -5 -4 -10 -10
-10 -5 0 -10 5 -10 10 0 6 5 10 10 10 6 0 10 -4 10 -10z m400 0 c0 -5 -4 -10
-10 -10 -5 0 -10 5 -10 10 0 6 5 10 10 10 6 0 10 -4 10 -10z m400 -6 c0 -8 -4
-12 -10 -9 -5 3 -10 10 -10 16 0 5 5 9 10 9 6 0 10 -7 10 -16z m-500 -4 c0 -5
-2 -10 -4 -10 -3 0 -8 5 -11 10 -3 6 -1 10 4 10 6 0 11 -4 11 -10z m405 0 c3
-5 2 -10 -4 -10 -5 0 -13 5 -16 10 -3 6 -2 10 4 10 5 0 13 -4 16 -10z m-1310
-18 c-3 -3 -11 0 -18 7 -9 10 -8 11 6 5 10 -3 15 -9 12 -12z m-255 -7 c0 -2
-6 -5 -13 -8 -8 -3 -14 1 -14 8 0 7 6 11 14 8 7 -3 13 -6 13 -8z m400 0 c0 -2
-6 -5 -13 -8 -8 -3 -14 1 -14 8 0 7 6 11 14 8 7 -3 13 -6 13 -8z m395 -3 c-3
-3 -11 0 -18 7 -9 10 -8 11 6 5 10 -3 15 -9 12 -12z m115 3 c0 -2 -6 -5 -13
-8 -8 -3 -14 1 -14 8 0 7 6 11 14 8 7 -3 13 -6 13 -8z m707 1 c0 -8 -6 -12
-15 -9 -11 5 -11 7 0 14 7 5 13 9 14 9 0 0 1 -6 1 -14z m-1107 0 c0 -2 -7 -7
-16 -10 -8 -3 -12 -2 -9 4 6 10 25 14 25 6z m910 -6 c0 -5 -5 -10 -11 -10 -5
0 -7 5 -4 10 3 6 8 10 11 10 2 0 4 -4 4 -10z m305 0 c3 -6 -1 -7 -9 -4 -18 7
-21 14 -7 14 6 0 13 -4 16 -10z m-1820 -18 c-3 -3 -11 0 -18 7 -9 10 -8 11 6
5 10 -3 15 -9 12 -12z m795 8 c0 -5 -2 -10 -4 -10 -3 0 -8 5 -11 10 -3 6 -1
10 4 10 6 0 11 -4 11 -10z m797 -12 c-3 -8 -6 -5 -6 6 -1 11 2 17 5 13 3 -3 4
-12 1 -19z m-1541 -7 c0 -12 -6 -17 -18 -13 -10 2 -18 9 -18 14 0 5 4 7 9 3 5
-3 12 -1 16 5 9 14 11 13 11 -9z m214 4 c0 -1 -7 -8 -15 -15 -13 -10 -15 -9
-15 8 0 15 5 20 15 16 8 -4 15 -7 15 -9z m186 -4 c0 -13 -6 -17 -20 -13 -18 5
-18 6 -1 19 11 7 19 13 20 13 0 0 1 -8 1 -19z m222 -7 c1 -1 -6 -4 -18 -7 -15
-4 -20 0 -20 15 0 18 2 19 18 7 9 -7 18 -14 20 -15z m178 7 c0 -16 -3 -17 -14
-9 -12 10 -7 19 13 28 1 0 1 -9 1 -19z m214 -1 c0 -4 -6 -10 -14 -13 -10 -4
-14 0 -13 12 1 18 27 18 27 1z m190 0 c0 -13 -5 -18 -15 -14 -12 5 -13 10 -4
20 15 19 19 18 19 -6z m220 -7 c0 -3 -3 -3 -7 0 -3 4 -11 3 -17 -3 -8 -6 -12
-3 -12 10 0 15 4 16 18 9 10 -5 18 -13 18 -16z m178 -3 c-2 -6 -8 -6 -18 0
-13 9 -13 11 0 20 15 10 25 0 18 -20z m102 9 c0 -14 -17 -10 -23 5 -4 10 -1
13 9 9 7 -3 14 -9 14 -14z m120 1 c0 -4 -8 -10 -18 -12 -12 -3 -18 1 -18 12 0
11 6 15 18 12 10 -2 18 -8 18 -12z m-1320 0 c0 -5 -4 -10 -10 -10 -5 0 -10 5
-10 10 0 6 5 10 10 10 6 0 10 -4 10 -10z m400 0 c0 -5 -4 -10 -10 -10 -5 0
-10 5 -10 10 0 6 5 10 10 10 6 0 10 -4 10 -10z m400 0 c0 -5 -4 -10 -10 -10
-5 0 -10 5 -10 10 0 6 5 10 10 10 6 0 10 -4 10 -10z m-960 -20 c0 -5 -5 -10
-11 -10 -5 0 -7 5 -4 10 3 6 8 10 11 10 2 0 4 -4 4 -10z m400 0 c0 -5 -5 -10
-11 -10 -5 0 -7 5 -4 10 3 6 8 10 11 10 2 0 4 -4 4 -10z m400 0 c0 -5 -5 -10
-11 -10 -5 0 -7 5 -4 10 3 6 8 10 11 10 2 0 4 -4 4 -10z m315 0 c3 -5 1 -10
-4 -10 -6 0 -11 5 -11 10 0 6 2 10 4 10 3 0 8 -4 11 -10z m-1310 -18 c-3 -3
-11 0 -18 7 -9 10 -8 11 6 5 10 -3 15 -9 12 -12z m405 3 c0 -2 -6 -5 -13 -8
-8 -3 -14 1 -14 8 0 7 6 11 14 8 7 -3 13 -6 13 -8z m1215 5 c-3 -5 -12 -10
-18 -10 -7 0 -6 4 3 10 19 12 23 12 15 0z m-1325 -4 c0 -2 -7 -7 -16 -10 -8
-3 -12 -2 -9 4 6 10 25 14 25 6z m400 0 c0 -2 -7 -7 -16 -10 -8 -3 -12 -2 -9
4 6 10 25 14 25 6z m123 -3 c3 -5 -5 -8 -18 -8 -13 0 -21 3 -18 8 2 4 10 7 18
7 8 0 16 -3 18 -7z m291 -2 c4 -5 -3 -7 -14 -4 -23 6 -26 13 -6 13 8 0 17 -4
20 -9z m-954 -9 c0 -5 -7 -9 -15 -9 -8 0 -12 4 -9 9 3 4 9 8 15 8 5 0 9 -4 9
-8z m-105 -12 c3 -5 1 -10 -4 -10 -6 0 -11 5 -11 10 0 6 2 10 4 10 3 0 8 -4
11 -10z m400 0 c3 -5 1 -10 -4 -10 -6 0 -11 5 -11 10 0 6 2 10 4 10 3 0 8 -4
11 -10z m400 0 c3 -5 1 -10 -4 -10 -6 0 -11 5 -11 10 0 6 2 10 4 10 3 0 8 -4
11 -10z m205 0 c0 -5 -5 -10 -11 -10 -5 0 -7 5 -4 10 3 6 8 10 11 10 2 0 4 -4
4 -10z m100 -13 c0 -6 -3 -7 -7 -4 -3 4 -13 1 -22 -6 -14 -10 -14 -10 -4 4 7
9 10 19 6 23 -4 4 0 4 10 0 9 -3 17 -11 17 -17z m300 13 c0 -5 -5 -10 -11 -10
-5 0 -7 5 -4 10 3 6 8 10 11 10 2 0 4 -4 4 -10z m100 -11 c0 -14 -17 -10 -23
5 -4 10 -1 13 9 9 7 -3 14 -9 14 -14z m-1600 7 c0 -3 -4 -8 -10 -11 -5 -3 -10
-1 -10 4 0 6 5 11 10 11 6 0 10 -2 10 -4z m153 -15 c-3 -12 -11 -17 -19 -14
-12 4 -11 8 3 19 10 7 19 14 20 14 0 0 -1 -9 -4 -19z m247 9 c0 -5 -4 -10 -10
-10 -5 0 -10 5 -10 10 0 6 5 10 10 10 6 0 10 -4 10 -10z m395 0 c-3 -5 -11
-10 -16 -10 -6 0 -7 5 -4 10 3 6 11 10 16 10 6 0 7 -4 4 -10z m566 1 c-7 -5
-10 -14 -7 -20 10 -16 -7 -14 -30 4 -14 11 -15 14 -3 9 10 -3 20 -1 24 5 3 6
12 11 18 11 8 0 7 -3 -2 -9z m396 -10 c-1 -12 -7 -17 -19 -13 -18 4 -18 5 -1
18 23 17 22 17 20 -5z m-1909 0 c11 -6 9 -9 -5 -13 -12 -3 -20 0 -20 8 0 16 6
17 25 5z m122 5 c0 -2 -8 -10 -17 -17 -16 -13 -17 -12 -4 4 13 16 21 21 21 13z
m275 -2 c13 -5 14 -8 3 -15 -19 -12 -25 -11 -25 6 0 17 0 17 22 9z m302 -8 c0
-8 -6 -12 -15 -9 -11 5 -11 7 0 14 7 5 13 9 14 9 0 0 1 -6 1 -14z m107 -3
c-10 -7 -21 -13 -26 -13 -4 0 -5 6 -2 13 2 7 14 13 25 13 19 0 19 -1 3 -13z
m300 0 c3 -7 2 -13 -2 -13 -5 0 -16 6 -26 13 -16 12 -16 13 3 13 11 0 23 -6
25 -13z m94 -4 c-20 -13 -28 -11 -22 5 3 8 12 12 21 9 12 -5 12 -7 1 -14z
m412 6 c0 -2 -7 -5 -15 -9 -9 -3 -15 0 -15 9 0 9 6 12 15 9 8 -4 15 -7 15 -9z
m-1370 -25 c0 -5 -5 -10 -11 -10 -5 0 -7 5 -4 10 3 6 8 10 11 10 2 0 4 -4 4
-10z m210 0 c0 -5 -2 -10 -4 -10 -3 0 -8 5 -11 10 -3 6 -1 10 4 10 6 0 11 -4
11 -10z m200 6 c0 -3 -4 -8 -10 -11 -5 -3 -10 -1 -10 4 0 6 5 11 10 11 6 0 10
-2 10 -4z m200 -6 c0 -5 -2 -10 -4 -10 -3 0 -8 5 -11 10 -3 6 -1 10 4 10 6 0
11 -4 11 -10z m200 6 c0 -3 -4 -8 -10 -11 -5 -3 -10 -1 -10 4 0 6 5 11 10 11
6 0 10 -2 10 -4z m200 -6 c0 -5 -2 -10 -4 -10 -3 0 -8 5 -11 10 -3 6 -1 10 4
10 6 0 11 -4 11 -10z m405 0 c3 -5 2 -10 -4 -10 -5 0 -13 5 -16 10 -3 6 -2 10
4 10 5 0 13 -4 16 -10z m-1305 -4 c0 -2 -7 -7 -16 -10 -8 -3 -12 -2 -9 4 6 10
25 14 25 6z m604 -4 c2 -4 -4 -8 -14 -8 -10 0 -16 4 -14 8 3 4 9 8 14 8 5 0
11 -4 14 -8z m-649 -11 c3 -5 2 -12 -3 -15 -5 -3 -9 1 -9 9 0 17 3 19 12 6z
m-200 -11 c-3 -5 -10 -10 -16 -10 -5 0 -9 5 -9 10 0 6 7 10 16 10 8 0 12 -4 9
-10z m85 0 c0 -5 -4 -10 -10 -10 -5 0 -10 5 -10 10 0 6 5 10 10 10 6 0 10 -4
10 -10z m195 0 c3 -5 1 -10 -4 -10 -6 0 -11 5 -11 10 0 6 2 10 4 10 3 0 8 -4
11 -10z m125 0 c0 -5 -4 -10 -9 -10 -5 0 -18 -3 -28 -6 -16 -6 -16 -5 2 9 23
19 35 21 35 7z m80 0 c0 -5 -4 -10 -10 -10 -5 0 -10 5 -10 10 0 6 5 10 10 10
6 0 10 -4 10 -10z m195 0 c3 -6 -1 -7 -9 -4 -18 7 -21 14 -7 14 6 0 13 -4 16
-10z m125 0 c0 -5 -4 -10 -9 -10 -6 0 -13 5 -16 10 -3 6 1 10 9 10 9 0 16 -4
16 -10z m80 0 c0 -5 -4 -10 -10 -10 -5 0 -10 5 -10 10 0 6 5 10 10 10 6 0 10
-4 10 -10z m320 0 c0 -5 -4 -10 -10 -10 -5 0 -10 5 -10 10 0 6 5 10 10 10 6 0
10 -4 10 -10z m89 -4 c10 -12 8 -13 -8 -9 -12 3 -21 9 -21 14 0 14 16 11 29
-5z m311 4 c0 -5 -4 -10 -10 -10 -5 0 -10 5 -10 10 0 6 5 10 10 10 6 0 10 -4
10 -10z m90 0 c0 -5 -4 -10 -9 -10 -6 0 -13 5 -16 10 -3 6 1 10 9 10 9 0 16
-4 16 -10z m110 0 c0 -5 -5 -10 -11 -10 -5 0 -7 5 -4 10 3 6 8 10 11 10 2 0 4
-4 4 -10z m-1849 -24 c-11 -13 -51 -29 -51 -20 0 3 51 33 59 34 2 0 -2 -6 -8
-14z m184 -6 c3 -4 -5 -10 -16 -13 -12 -3 -18 -3 -15 0 3 4 1 12 -5 19 -8 9
-5 11 11 7 11 -3 22 -9 25 -13z m200 -9 c-3 -6 -11 -8 -17 -5 -6 4 -5 9 3 15
16 10 23 4 14 -10z m203 1 c2 -7 -2 -10 -12 -6 -9 3 -16 11 -16 16 0 13 23 5
28 -10z m194 -4 c-7 -7 -12 -8 -12 -2 0 14 12 26 19 19 2 -3 -1 -11 -7 -17z
m203 12 c3 -5 2 -10 -4 -10 -5 0 -13 5 -16 10 -3 6 -2 10 4 10 5 0 13 -4 16
-10z m205 -5 c-7 -9 -15 -13 -17 -11 -7 7 7 26 19 26 6 0 6 -6 -2 -15z m195 5
c3 -5 2 -10 -4 -10 -5 0 -13 5 -16 10 -3 6 -2 10 4 10 5 0 13 -4 16 -10z m218
-4 c4 -10 0 -12 -14 -9 -10 3 -16 9 -13 14 8 13 21 11 27 -5z m207 -10 c0 -10
-34 2 -38 13 -3 10 0 10 17 2 11 -7 21 -13 21 -15z m-1566 -28 c-3 -5 -12 -4
-20 3 -19 16 -18 18 6 12 11 -3 17 -9 14 -15z m686 13 c0 -5 -7 -12 -16 -15
-14 -5 -15 -4 -4 9 14 17 20 19 20 6z m200 -7 c0 -8 -5 -12 -10 -9 -6 4 -8 11
-5 16 9 14 15 11 15 -7z m115 6 c3 -5 1 -10 -4 -10 -6 0 -11 5 -11 10 0 6 2
10 4 10 3 0 8 -4 11 -10z m295 -5 c-14 -17 -30 -20 -30 -6 0 5 8 12 18 14 9 3
19 5 21 6 2 0 -2 -6 -9 -14z m105 5 c3 -5 1 -10 -4 -10 -6 0 -11 5 -11 10 0 6
2 10 4 10 3 0 8 -4 11 -10z m-1715 -4 c0 -3 -4 -8 -10 -11 -5 -3 -10 -1 -10 4
0 6 5 11 10 11 6 0 10 -2 10 -4z m400 -6 c0 -5 -7 -10 -16 -10 -8 0 -12 5 -9
10 3 6 10 10 16 10 5 0 9 -4 9 -10z m320 0 c0 -5 -7 -10 -15 -10 -8 0 -15 5
-15 10 0 6 7 10 15 10 8 0 15 -4 15 -10z m80 0 c0 -5 -4 -10 -10 -10 -5 0 -10
5 -10 10 0 6 5 10 10 10 6 0 10 -4 10 -10z m320 0 c0 -5 -4 -10 -10 -10 -5 0
-10 5 -10 10 0 6 5 10 10 10 6 0 10 -4 10 -10z m400 0 c0 -5 -4 -10 -10 -10
-5 0 -10 5 -10 10 0 6 5 10 10 10 6 0 10 -4 10 -10z m405 0 c3 -5 -1 -10 -9
-10 -9 0 -16 5 -16 10 0 6 4 10 9 10 6 0 13 -4 16 -10z m-1365 -20 c0 -5 -2
-10 -4 -10 -3 0 -8 5 -11 10 -3 6 -1 10 4 10 6 0 11 -4 11 -10z m1205 0 c3 -6
-1 -7 -9 -4 -18 7 -21 14 -7 14 6 0 13 -4 16 -10z m-1710 -10 c3 -5 2 -10 -4
-10 -5 0 -13 5 -16 10 -3 6 -2 10 4 10 5 0 13 -4 16 -10z m1005 0 c0 -5 -5
-10 -11 -10 -5 0 -7 5 -4 10 3 6 8 10 11 10 2 0 4 -4 4 -10z m195 0 c3 -5 1
-10 -4 -10 -6 0 -11 5 -11 10 0 6 2 10 4 10 3 0 8 -4 11 -10z m205 0 c0 -5 -5
-10 -11 -10 -5 0 -7 5 -4 10 3 6 8 10 11 10 2 0 4 -4 4 -10z m405 0 c-3 -5
-11 -10 -16 -10 -6 0 -7 5 -4 10 3 6 11 10 16 10 6 0 7 -4 4 -10z m-1754 -13
c-6 -8 -8 -17 -4 -21 4 -4 0 -4 -9 -1 -14 5 -15 10 -5 21 16 17 33 18 18 1z
m110 -1 c7 4 9 3 6 -3 -13 -21 -43 -21 -44 -1 -2 16 1 17 12 8 8 -6 20 -8 26
-4z m289 -6 c0 -13 -5 -18 -15 -14 -11 5 -12 9 -2 20 16 18 17 17 17 -6z m92
7 c15 -12 15 -14 -4 -26 -19 -12 -20 -11 -14 5 4 10 1 21 -6 26 -7 4 -8 8 -3
8 6 -1 18 -6 27 -13z m420 -2 c7 4 4 -1 -6 -9 -26 -21 -32 -20 -32 3 0 15 4
17 13 10 7 -6 18 -8 25 -4z m294 -5 c0 -13 -5 -19 -14 -15 -7 3 -16 5 -20 5
-3 0 3 7 14 15 10 8 19 15 19 15 1 0 1 -9 1 -20z m97 -1 c5 -3 2 -9 -7 -12
-12 -5 -16 0 -16 15 0 12 3 17 8 12 4 -5 11 -12 15 -15z m399 -9 c-4 -3 -10
-9 -13 -13 -3 -5 -8 2 -11 16 -4 22 -3 24 13 14 10 -6 15 -14 11 -17z m-902 3
c0 -11 -5 -11 -20 -3 -11 6 -20 12 -20 13 0 2 9 3 20 3 11 0 20 -6 20 -13z
m803 3 c4 -10 0 -12 -15 -8 -15 4 -17 7 -6 13 17 11 15 11 21 -5z m-1353 -16
c0 -5 -4 -10 -10 -10 -5 0 -10 5 -10 10 0 6 5 10 10 10 6 0 10 -4 10 -10z
m400 0 c0 -5 -4 -10 -10 -10 -5 0 -10 5 -10 10 0 6 5 10 10 10 6 0 10 -4 10
-10z m400 0 c0 -5 -4 -10 -10 -10 -5 0 -10 5 -10 10 0 6 5 10 10 10 6 0 10 -4
10 -10z m400 0 c0 -5 -4 -10 -10 -10 -5 0 -10 5 -10 10 0 6 5 10 10 10 6 0 10
-4 10 -10z m-1510 -10 c0 -5 -5 -10 -11 -10 -5 0 -7 5 -4 10 3 6 8 10 11 10 2
0 4 -4 4 -10z m800 0 c0 -5 -5 -10 -11 -10 -5 0 -7 5 -4 10 3 6 8 10 11 10 2
0 4 -4 4 -10z m210 0 c0 -5 -2 -10 -4 -10 -3 0 -8 5 -11 10 -3 6 -1 10 4 10 6
0 11 -4 11 -10z m195 0 c-3 -5 -11 -10 -16 -10 -6 0 -7 5 -4 10 3 6 11 10 16
10 6 0 7 -4 4 -10z m400 0 c-3 -5 -12 -10 -18 -10 -7 0 -6 4 3 10 19 12 23 12
15 0z m-1240 -20 c-3 -5 -12 -10 -18 -10 -7 0 -6 4 3 10 19 12 23 12 15 0z
m-220 -10 c3 -5 2 -10 -4 -10 -5 0 -13 5 -16 10 -3 6 -2 10 4 10 5 0 13 -4 16
-10z m400 0 c3 -6 -1 -7 -9 -4 -18 7 -21 14 -7 14 6 0 13 -4 16 -10z m805 0
c0 -5 -2 -10 -4 -10 -3 0 -8 5 -11 10 -3 6 -1 10 4 10 6 0 11 -4 11 -10z m320
0 c0 -5 -5 -10 -11 -10 -5 0 -7 5 -4 10 3 6 8 10 11 10 2 0 4 -4 4 -10z
m-1640 -36 c0 -3 -5 -2 -11 2 -6 3 -15 0 -20 -7 -6 -10 -9 -8 -9 9 0 20 3 21
20 12 11 -6 20 -13 20 -16z m176 7 c0 -15 -3 -17 -18 -8 -13 8 -14 13 -5 19
18 12 23 10 23 -11z m98 4 c3 -8 1 -15 -4 -15 -6 0 -10 7 -10 15 0 8 2 15 4
15 2 0 6 -7 10 -15z m109 -4 c-4 -3 -11 -10 -15 -15 -5 -5 -8 0 -8 12 0 15 4
20 16 15 9 -3 12 -9 7 -12z m194 -1 c2 -17 -1 -18 -18 -7 -18 11 -18 12 -1 19
9 3 17 7 17 7 1 1 1 -8 2 -19z m206 -6 c-25 -19 -32 -17 -26 5 3 13 11 17 24
14 18 -5 19 -6 2 -19z m191 17 c-2 -2 1 -10 7 -18 16 -19 -2 -16 -28 5 l-23
17 24 0 c13 0 22 -2 20 -4z m224 -5 c-2 -1 -11 -7 -20 -15 -15 -11 -17 -10
-15 7 1 13 7 18 19 14 11 -2 17 -5 16 -6z m182 -7 c0 -18 -2 -20 -15 -9 -13
11 -13 15 -3 21 18 12 18 12 18 -12z m218 7 c-2 -1 -11 -7 -20 -15 -15 -11
-17 -10 -15 7 1 13 7 18 19 14 11 -2 17 -5 16 -6z m182 -6 c0 -17 -2 -19 -14
-8 -10 9 -11 15 -2 20 16 11 16 10 16 -12z m-1100 0 c0 -5 -4 -10 -10 -10 -5
0 -10 5 -10 10 0 6 5 10 10 10 6 0 10 -4 10 -10z m400 0 c0 -5 -4 -10 -10 -10
-5 0 -10 5 -10 10 0 6 5 10 10 10 6 0 10 -4 10 -10z m400 0 c0 -5 -5 -10 -11
-10 -5 0 -7 5 -4 10 3 6 8 10 11 10 2 0 4 -4 4 -10z m-1450 -20 c0 -5 -2 -10
-4 -10 -3 0 -8 5 -11 10 -3 6 -1 10 4 10 6 0 11 -4 11 -10z m405 0 c3 -5 2
-10 -4 -10 -5 0 -13 5 -16 10 -3 6 -2 10 4 10 5 0 13 -4 16 -10z m400 0 c3 -5
2 -10 -4 -10 -5 0 -13 5 -16 10 -3 6 -2 10 4 10 5 0 13 -4 16 -10z m85 0 c0
-5 -5 -10 -11 -10 -5 0 -7 5 -4 10 3 6 8 10 11 10 2 0 4 -4 4 -10z m315 0 c3
-5 2 -10 -4 -10 -5 0 -13 5 -16 10 -3 6 -2 10 4 10 5 0 13 -4 16 -10z m85 0
c0 -5 -5 -10 -11 -10 -5 0 -7 5 -4 10 3 6 8 10 11 10 2 0 4 -4 4 -10z m410 6
c0 -3 -4 -8 -10 -11 -5 -3 -10 -1 -10 4 0 6 5 11 10 11 6 0 10 -2 10 -4z
m-1395 -16 c-3 -5 -12 -10 -18 -10 -7 0 -6 4 3 10 19 12 23 12 15 0z m295 -4
c0 -2 -9 -6 -20 -9 -11 -3 -18 -1 -14 4 5 9 34 13 34 5z m405 -6 c3 -6 -1 -7
-9 -4 -18 7 -21 14 -7 14 6 0 13 -4 16 -10z m640 -8 c-3 -3 -11 0 -18 7 -9 10
-8 11 6 5 10 -3 15 -9 12 -12z m-1190 -2 c3 -6 -1 -7 -9 -4 -18 7 -21 14 -7
14 6 0 13 -4 16 -10z m-305 -4 c0 -3 -4 -8 -10 -11 -5 -3 -10 -1 -10 4 0 6 5
11 10 11 6 0 10 -2 10 -4z m95 -6 c3 -5 1 -10 -4 -10 -6 0 -11 5 -11 10 0 6 2
10 4 10 3 0 8 -4 11 -10z m409 -2 c-3 -4 -9 -8 -15 -8 -5 0 -9 4 -9 8 0 5 7 9
15 9 8 0 12 -4 9 -9z m296 2 c0 -5 -5 -10 -11 -10 -5 0 -7 5 -4 10 3 6 8 10
11 10 2 0 4 -4 4 -10z m500 0 c0 -5 -4 -10 -9 -10 -6 0 -13 5 -16 10 -3 6 1
10 9 10 9 0 16 -4 16 -10z m105 0 c3 -6 -1 -7 -9 -4 -18 7 -21 14 -7 14 6 0
13 -4 16 -10z m205 6 c0 -3 -4 -8 -10 -11 -5 -3 -10 -1 -10 4 0 6 5 11 10 11
6 0 10 -2 10 -4z m-1757 -25 c-3 -11 -11 -17 -19 -14 -10 4 -11 8 -1 19 17 19
26 17 20 -5z m105 -7 c1 -1 -5 -4 -15 -6 -13 -4 -19 0 -19 13 0 14 3 16 16 6
8 -6 16 -12 18 -13z m295 7 c-3 -11 -11 -17 -19 -14 -10 4 -11 8 -1 19 17 19
26 17 20 -5z m105 -7 c1 -1 -5 -4 -15 -6 -13 -4 -19 0 -19 13 0 14 3 16 16 6
8 -6 16 -12 18 -13z m297 -12 c-1 -1 -9 0 -18 4 -13 4 -14 9 -4 19 10 11 13
10 18 -4 4 -9 5 -17 4 -19z m92 6 c-18 -12 -23 -10 -23 11 0 15 3 17 18 8 13
-8 14 -13 5 -19z m153 28 c0 -2 -7 -7 -16 -10 -8 -3 -12 -2 -9 4 6 10 25 14
25 6z m156 -15 c0 -12 -6 -17 -18 -13 -18 4 -18 5 -1 18 10 7 18 14 18 14 1 0
1 -8 1 -19z m89 5 c12 -12 12 -15 -1 -20 -9 -3 -17 -6 -18 -6 -1 0 -2 9 -2 20
0 24 3 24 21 6z m311 -5 c0 -12 -6 -17 -18 -13 -18 4 -18 5 -1 18 10 7 18 14
18 14 1 0 1 -8 1 -19z m92 -12 c-21 -14 -26 -10 -21 11 4 16 8 18 20 9 11 -10
11 -14 1 -20z m-1758 -19 c0 -5 -8 -10 -17 -10 -15 0 -16 2 -3 10 19 12 20 12
20 0z m115 0 c-3 -5 -12 -10 -18 -10 -7 0 -6 4 3 10 19 12 23 12 15 0z m100 0
c3 -6 -1 -7 -9 -4 -18 7 -21 14 -7 14 6 0 13 -4 16 -10z m1090 -8 c-3 -3 -11
0 -18 7 -9 10 -8 11 6 5 10 -3 15 -9 12 -12z m-990 -2 c3 -6 -1 -7 -9 -4 -18
7 -21 14 -7 14 6 0 13 -4 16 -10z m418 -7 c20 -10 27 -18 18 -21 -7 -2 -16 0
-20 5 -3 5 -15 15 -26 21 -31 18 -8 14 28 -5z m182 7 c3 -6 -1 -7 -9 -4 -18 7
-21 14 -7 14 6 0 13 -4 16 -10z m195 6 c0 -2 -7 -7 -16 -10 -8 -3 -12 -2 -9 4
6 10 25 14 25 6z m400 0 c0 -2 -7 -7 -16 -10 -8 -3 -12 -2 -9 4 6 10 25 14 25
6z m200 0 c0 -2 -7 -7 -16 -10 -8 -3 -12 -2 -9 4 6 10 25 14 25 6z m-1442 -24
c-8 -9 -14 -9 -24 -1 -18 15 -18 14 10 14 18 0 22 -3 14 -13z m1295 1 c-3 -7
-11 -13 -18 -13 -7 0 -15 6 -18 13 -3 7 4 12 18 12 14 0 21 -5 18 -12z m-1613
-3 c0 -5 -7 -10 -16 -10 -8 0 -12 5 -9 10 3 6 10 10 16 10 5 0 9 -4 9 -10z
m110 0 c0 -5 -5 -10 -11 -10 -5 0 -7 5 -4 10 3 6 8 10 11 10 2 0 4 -4 4 -10z
m85 0 c3 -5 1 -10 -4 -10 -6 0 -11 5 -11 10 0 6 2 10 4 10 3 0 8 -4 11 -10z
m205 0 c0 -5 -4 -10 -10 -10 -5 0 -10 5 -10 10 0 6 5 10 10 10 6 0 10 -4 10
-10z m120 6 c0 -3 -4 -8 -10 -11 -5 -3 -10 -1 -10 4 0 6 5 11 10 11 6 0 10 -2
10 -4z m195 -6 c-3 -5 -11 -10 -16 -10 -6 0 -7 5 -4 10 3 6 11 10 16 10 6 0 7
-4 4 -10z m205 6 c0 -3 -4 -8 -10 -11 -5 -3 -10 -1 -10 4 0 6 5 11 10 11 6 0
10 -2 10 -4z m195 -6 c-3 -5 -11 -10 -16 -10 -6 0 -7 5 -4 10 3 6 11 10 16 10
6 0 7 -4 4 -10z m90 0 c3 -5 2 -10 -4 -10 -5 0 -13 5 -16 10 -3 6 -2 10 4 10
5 0 13 -4 16 -10z m195 0 c0 -5 -2 -10 -4 -10 -3 0 -8 5 -11 10 -3 6 -1 10 4
10 6 0 11 -4 11 -10z m120 0 c0 -5 -4 -10 -10 -10 -5 0 -10 5 -10 10 0 6 5 10
10 10 6 0 10 -4 10 -10z m280 0 c0 -5 -2 -10 -4 -10 -3 0 -8 5 -11 10 -3 6 -1
10 4 10 6 0 11 -4 11 -10z m120 0 c0 -5 -4 -10 -10 -10 -5 0 -10 5 -10 10 0 6
5 10 10 10 6 0 10 -4 10 -10z m-440 -15 c0 -2 -10 -9 -22 -15 -22 -11 -22 -10
-4 4 21 17 26 19 26 11z m-1425 -15 c3 -5 2 -10 -4 -10 -5 0 -13 5 -16 10 -3
6 -2 10 4 10 5 0 13 -4 16 -10z m200 0 c-3 -5 -10 -10 -16 -10 -5 0 -9 5 -9
10 0 6 7 10 16 10 8 0 12 -4 9 -10z m209 -2 c-7 -11 -34 -10 -34 1 0 6 9 9 19
8 11 0 17 -5 15 -9z m196 7 c0 -2 -10 -10 -22 -16 -21 -11 -22 -11 -9 4 13 16
31 23 31 12z m195 -5 c3 -5 1 -10 -4 -10 -6 0 -11 5 -11 10 0 6 2 10 4 10 3 0
8 -4 11 -10z m205 0 c0 -5 -5 -10 -11 -10 -5 0 -7 5 -4 10 3 6 8 10 11 10 2 0
4 -4 4 -10z m620 -14 c0 -2 -9 -2 -20 1 -11 3 -20 9 -20 15 0 5 9 4 20 -2 11
-6 20 -12 20 -14z m185 14 c-3 -5 -11 -10 -16 -10 -6 0 -7 5 -4 10 3 6 11 10
16 10 6 0 7 -4 4 -10z m-1762 -23 c4 3 7 2 7 -4 0 -6 -8 -14 -17 -17 -10 -4
-14 -4 -10 0 4 4 1 14 -6 23 -10 14 -10 14 4 4 9 -7 19 -10 22 -6z m1718 -1
c-6 -8 -21 -16 -32 -19 -24 -6 -19 1 13 19 31 16 32 16 19 0z m-1616 -6 c-3
-5 -12 -10 -18 -10 -7 0 -6 4 3 10 19 12 23 12 15 0z m105 0 c0 -5 -2 -10 -4
-10 -3 0 -8 5 -11 10 -3 6 -1 10 4 10 6 0 11 -4 11 -10z m209 -4 c11 -14 6
-15 -27 -7 -4 1 8 21 12 21 2 0 9 -6 15 -14z m86 4 c-3 -5 -12 -10 -18 -10 -7
0 -6 4 3 10 19 12 23 12 15 0z m110 0 c3 -5 1 -10 -4 -10 -6 0 -11 5 -11 10 0
6 2 10 4 10 3 0 8 -4 11 -10z m206 -7 c13 -15 12 -15 -8 -4 -24 12 -29 21 -14
21 5 0 15 -7 22 -17z m79 2 c0 -2 -6 -5 -13 -8 -8 -3 -14 1 -14 8 0 7 6 11 14
8 7 -3 13 -6 13 -8z m115 5 c3 -5 2 -10 -4 -10 -5 0 -13 5 -16 10 -3 6 -2 10
4 10 5 0 13 -4 16 -10z m90 0 c-3 -5 -11 -10 -16 -10 -6 0 -7 5 -4 10 3 6 11
10 16 10 6 0 7 -4 4 -10z m115 0 c0 -5 -4 -10 -10 -10 -5 0 -10 5 -10 10 0 6
5 10 10 10 6 0 10 -4 10 -10z m80 -9 c0 -4 -6 -8 -13 -8 -8 0 -14 6 -14 13 0
7 6 10 14 7 7 -3 13 -8 13 -12z m115 9 c3 -5 2 -10 -4 -10 -5 0 -13 5 -16 10
-3 6 -2 10 4 10 5 0 13 -4 16 -10z m90 0 c-3 -5 -11 -10 -16 -10 -6 0 -7 5 -4
10 3 6 11 10 16 10 6 0 7 -4 4 -10z m115 -4 c-7 -7 -13 -7 -20 0 -6 6 -3 10
10 10 13 0 16 -4 10 -10z m-1560 -20 c0 -3 -4 -8 -10 -11 -5 -3 -10 -1 -10 4
0 6 5 11 10 11 6 0 10 -2 10 -4z m605 -6 c3 -6 -1 -7 -9 -4 -18 7 -21 14 -7
14 6 0 13 -4 16 -10z m395 6 c0 -2 -7 -7 -16 -10 -8 -3 -12 -2 -9 4 6 10 25
14 25 6z m600 -6 c0 -5 -2 -10 -4 -10 -3 0 -8 5 -11 10 -3 6 -1 10 4 10 6 0
11 -4 11 -10z m105 -10 c3 -5 2 -10 -4 -10 -5 0 -13 5 -16 10 -3 6 -2 10 4 10
5 0 13 -4 16 -10z m-1847 -26 c1 -1 -5 -4 -15 -6 -13 -4 -19 0 -19 13 0 14 3
16 16 6 8 -6 16 -12 18 -13z m295 6 c-4 -16 -9 -18 -24 -9 -23 12 -25 21 -4
13 8 -4 15 -1 15 5 0 6 4 11 9 11 5 0 7 -9 4 -20z m100 7 c4 3 7 2 7 -4 0 -6
-8 -13 -18 -15 -12 -4 -18 1 -18 13 0 12 4 15 12 9 6 -6 14 -7 17 -3z m303 -7
c0 -11 -1 -20 -2 -20 -1 0 -10 3 -18 6 -13 5 -14 9 -5 20 16 20 25 17 25 -6z
m102 -6 c1 -1 -5 -4 -15 -6 -13 -4 -19 0 -19 13 0 14 3 16 16 6 8 -6 16 -12
18 -13z m298 6 c0 -13 -5 -19 -14 -15 -7 3 -16 5 -20 5 -3 0 3 7 14 15 10 8
19 15 19 15 1 0 1 -9 1 -20z m93 6 c9 -11 8 -15 -5 -20 -8 -3 -17 -6 -18 -6
-1 0 -2 9 -2 20 0 23 9 26 25 6z m307 -5 c0 -12 -6 -17 -18 -13 -10 2 -18 9
-18 14 0 5 4 7 9 3 5 -3 12 -1 16 5 9 14 11 13 11 -9z m90 -13 c-19 -13 -24
-9 -19 11 4 16 8 17 18 8 9 -9 10 -14 1 -19z m310 13 c0 -11 -5 -17 -13 -14
-10 4 -11 9 -2 19 15 18 15 18 15 -5z m-1756 -15 c0 -3 -4 -8 -10 -11 -5 -3
-10 -1 -10 4 0 6 5 11 10 11 6 0 10 -2 10 -4z m400 -6 c0 -5 -4 -10 -10 -10
-5 0 -10 5 -10 10 0 6 5 10 10 10 6 0 10 -4 10 -10z m400 0 c0 -5 -7 -10 -16
-10 -8 0 -12 5 -9 10 3 6 10 10 16 10 5 0 9 -4 9 -10z m400 1 c0 -5 -9 -11
-21 -14 -16 -4 -18 -3 -8 9 13 16 29 19 29 5z m110 5 c0 -2 -7 -7 -16 -10 -8
-3 -12 -2 -9 4 6 10 25 14 25 6z m290 -6 c0 -5 -2 -10 -4 -10 -3 0 -8 5 -11
10 -3 6 -1 10 4 10 6 0 11 -4 11 -10z m-1700 -10 c0 -5 -2 -10 -4 -10 -3 0 -8
5 -11 10 -3 6 -1 10 4 10 6 0 11 -4 11 -10z m305 0 c-3 -5 -12 -10 -18 -10 -7
0 -6 4 3 10 19 12 23 12 15 0z m95 0 c0 -5 -2 -10 -4 -10 -3 0 -8 5 -11 10 -3
6 -1 10 4 10 6 0 11 -4 11 -10z m405 0 c3 -5 2 -10 -4 -10 -5 0 -13 5 -16 10
-3 6 -2 10 4 10 5 0 13 -4 16 -10z m300 0 c-3 -5 -12 -10 -18 -10 -7 0 -6 4 3
10 19 12 23 12 15 0z m492 -22 c-3 -7 -5 -2 -5 12 0 14 2 19 5 13 2 -7 2 -19
0 -25z m-892 12 c3 -6 -1 -7 -9 -4 -18 7 -21 14 -7 14 6 0 13 -4 16 -10z m795
6 c0 -2 -7 -7 -16 -10 -8 -3 -12 -2 -9 4 6 10 25 14 25 6z m-1355 -16 c3 -5 1
-10 -4 -10 -6 0 -11 5 -11 10 0 6 2 10 4 10 3 0 8 -4 11 -10z m405 0 c0 -5 -4
-10 -10 -10 -5 0 -10 5 -10 10 0 6 5 10 10 10 6 0 10 -4 10 -10z m700 0 c0 -5
-2 -10 -4 -10 -3 0 -8 5 -11 10 -3 6 -1 10 4 10 6 0 11 -4 11 -10z m400 0 c0
-5 -2 -10 -4 -10 -3 0 -8 5 -11 10 -3 6 -1 10 4 10 6 0 11 -4 11 -10z m110 0
c0 -5 -7 -10 -16 -10 -8 0 -12 5 -9 10 3 6 10 10 16 10 5 0 9 -4 9 -10z
m-1510 -10 c0 -5 -5 -10 -11 -10 -5 0 -7 5 -4 10 3 6 8 10 11 10 2 0 4 -4 4
-10z m410 6 c0 -3 -4 -8 -10 -11 -5 -3 -10 -1 -10 4 0 6 5 11 10 11 6 0 10 -2
10 -4z m400 0 c0 -3 -4 -8 -10 -11 -5 -3 -10 -1 -10 4 0 6 5 11 10 11 6 0 10
-2 10 -4z m85 -6 c3 -5 2 -10 -4 -10 -5 0 -13 5 -16 10 -3 6 -2 10 4 10 5 0
13 -4 16 -10z m400 0 c3 -5 2 -10 -4 -10 -5 0 -13 5 -16 10 -3 6 -2 10 4 10 5
0 13 -4 16 -10z m-1549 -25 c2 -21 -1 -23 -12 -15 -7 7 -19 9 -26 5 -7 -4 -2
3 12 14 14 11 25 21 25 21 0 0 1 -11 1 -25z m207 4 c5 -3 2 -9 -7 -12 -12 -5
-16 0 -16 15 0 12 3 17 8 12 4 -5 11 -12 15 -15z m194 1 c-1 -13 -6 -19 -15
-15 -7 3 -16 5 -20 5 -5 0 29 29 35 30 1 0 1 -9 0 -20z m206 -1 c5 -3 2 -9 -5
-12 -9 -3 -14 3 -15 15 -1 11 1 16 5 12 4 -5 11 -12 15 -15z m195 -5 c0 -14
-3 -22 -7 -17 -3 6 -13 13 -21 16 -12 4 -11 6 3 6 9 1 17 6 17 11 0 6 2 10 4
10 2 0 4 -12 4 -26z m217 9 c9 4 14 3 11 -2 -3 -5 -14 -11 -24 -13 -13 -4 -18
1 -20 16 -1 15 1 17 7 7 5 -8 16 -11 26 -8z m183 -7 c0 -19 -3 -22 -13 -13 -8
8 -9 15 -1 24 6 7 12 12 12 13 1 0 2 -11 2 -24z m-1101 -1 c0 -8 -6 -15 -13
-15 -8 0 -11 6 -8 15 4 8 9 15 13 15 4 0 8 -7 8 -15z m403 -2 c0 -7 -4 -13 -9
-13 -5 0 -11 6 -14 13 -3 8 1 14 9 14 8 0 14 -6 14 -14z m400 4 c0 -8 -6 -14
-13 -14 -8 0 -14 6 -14 14 0 7 6 13 14 13 7 0 13 -6 13 -13z m400 -2 c0 -8 -4
-15 -10 -15 -5 0 -10 7 -10 15 0 8 5 15 10 15 6 0 10 -7 10 -15z m108 -6 c-19
-12 -25 -11 -25 5 0 8 8 11 20 8 14 -4 16 -7 5 -13z m196 -18 c-2 -2 -10 4
-18 12 -12 11 -13 16 -3 20 11 4 29 -23 21 -32z m96 24 c0 -8 -2 -15 -4 -15
-2 0 -6 7 -10 15 -3 8 -1 15 4 15 6 0 10 -7 10 -15z m105 9 c13 -5 14 -8 3
-15 -19 -12 -25 -11 -25 6 0 17 0 17 22 9z m-1550 -34 c3 -5 1 -10 -4 -10 -6
0 -11 5 -11 10 0 6 2 10 4 10 3 0 8 -4 11 -10z m400 0 c3 -5 1 -10 -4 -10 -6
0 -11 5 -11 10 0 6 2 10 4 10 3 0 8 -4 11 -10z m85 0 c0 -5 -5 -10 -11 -10 -5
0 -7 5 -4 10 3 6 8 10 11 10 2 0 4 -4 4 -10z m400 0 c0 -5 -5 -10 -11 -10 -5
0 -7 5 -4 10 3 6 8 10 11 10 2 0 4 -4 4 -10z m400 0 c0 -5 -5 -10 -11 -10 -5
0 -7 5 -4 10 3 6 8 10 11 10 2 0 4 -4 4 -10z m-1500 -10 c0 -5 -4 -10 -10 -10
-5 0 -10 5 -10 10 0 6 5 10 10 10 6 0 10 -4 10 -10z m110 0 c0 -5 -4 -10 -10
-10 -5 0 -10 5 -10 10 0 6 5 10 10 10 6 0 10 -4 10 -10z m290 6 c0 -3 -4 -8
-10 -11 -5 -3 -10 -1 -10 4 0 6 5 11 10 11 6 0 10 -2 10 -4z m115 -6 c-3 -5
-10 -10 -16 -10 -5 0 -9 5 -9 10 0 6 7 10 16 10 8 0 12 -4 9 -10z m295 6 c0
-3 -4 -8 -10 -11 -5 -3 -10 -1 -10 4 0 6 5 11 10 11 6 0 10 -2 10 -4z m105 -6
c3 -5 2 -10 -4 -10 -5 0 -13 5 -16 10 -3 6 -2 10 4 10 5 0 13 -4 16 -10z m400
0 c3 -5 1 -10 -4 -10 -6 0 -11 5 -11 10 0 6 2 10 4 10 3 0 8 -4 11 -10z m292
4 c-3 -3 -12 -4 -19 -1 -8 3 -5 6 6 6 11 1 17 -2 13 -5z m-1647 -24 c0 -5 -5
-10 -11 -10 -5 0 -7 5 -4 10 3 6 8 10 11 10 2 0 4 -4 4 -10z m400 0 c0 -5 -5
-10 -11 -10 -5 0 -7 5 -4 10 3 6 8 10 11 10 2 0 4 -4 4 -10z m400 0 c0 -5 -5
-10 -11 -10 -5 0 -7 5 -4 10 3 6 8 10 11 10 2 0 4 -4 4 -10z m410 6 c0 -3 -4
-8 -10 -11 -5 -3 -10 -1 -10 4 0 6 5 11 10 11 6 0 10 -2 10 -4z m-1110 -16 c0
-5 -4 -10 -9 -10 -6 0 -13 5 -16 10 -3 6 1 10 9 10 9 0 16 -4 16 -10z m400 0
c0 -5 -4 -10 -9 -10 -6 0 -13 5 -16 10 -3 6 1 10 9 10 9 0 16 -4 16 -10z m400
0 c0 -5 -4 -10 -10 -10 -5 0 -10 5 -10 10 0 6 5 10 10 10 6 0 10 -4 10 -10z
m400 0 c0 -5 -4 -10 -10 -10 -5 0 -10 5 -10 10 0 6 5 10 10 10 6 0 10 -4 10
-10z m405 0 c-3 -5 -10 -10 -16 -10 -5 0 -9 5 -9 10 0 6 7 10 16 10 8 0 12 -4
9 -10z m-1765 -27 c-12 -8 -24 -12 -27 -9 -4 3 -1 6 6 6 7 0 11 6 8 14 -4 10
0 12 14 9 19 -5 19 -6 -1 -20z m314 -12 c-2 -2 -10 4 -18 12 -12 11 -13 16 -3
20 11 4 29 -23 21 -32z m104 25 c-2 -1 -10 -7 -18 -13 -13 -10 -16 -8 -16 6 0
13 6 17 19 13 10 -2 16 -5 15 -6z m296 -25 c-2 -2 -10 4 -18 12 -12 11 -13 16
-3 20 11 4 29 -23 21 -32z m104 25 c-2 -1 -10 -7 -18 -13 -13 -10 -16 -8 -16
6 0 13 6 17 19 13 10 -2 16 -5 15 -6z m298 -5 c0 -15 -3 -17 -18 -8 -13 8 -14
13 -5 19 18 12 23 10 23 -11z m91 11 c9 -6 8 -11 -5 -19 -15 -9 -18 -7 -18 8
0 21 5 23 23 11z m309 -11 c0 -15 -3 -17 -18 -7 -17 10 -17 11 0 18 9 3 17 7
17 7 1 1 1 -7 1 -18z m90 11 c9 -5 8 -10 -1 -19 -10 -9 -14 -8 -18 8 -5 20 0
24 19 11z m310 -11 c0 -15 -3 -17 -18 -7 -17 10 -17 11 0 18 9 3 17 7 17 7 1
1 1 -7 1 -18z m-1861 -21 c3 -5 1 -10 -4 -10 -6 0 -11 5 -11 10 0 6 2 10 4 10
3 0 8 -4 11 -10z m400 0 c3 -6 -1 -7 -9 -4 -18 7 -21 14 -7 14 6 0 13 -4 16
-10z m-295 -15 c11 -13 10 -14 -4 -9 -9 3 -16 10 -16 15 0 13 6 11 20 -6z
m205 5 c-3 -5 -12 -10 -18 -10 -7 0 -6 4 3 10 19 12 23 12 15 0z m1425 -16 c0
4 12 -2 26 -13 15 -12 33 -21 40 -21 8 0 14 -4 14 -10 0 -14 -8 -12 -38 8 -15
11 -41 25 -59 33 -17 7 -29 17 -26 22 3 4 14 1 24 -9 10 -9 19 -14 19 -10z
m-1025 6 c3 -6 -1 -7 -9 -4 -18 7 -21 14 -7 14 6 0 13 -4 16 -10z m-565 -15
c11 -13 10 -14 -4 -9 -9 3 -16 10 -16 15 0 13 6 11 20 -6z m318 -2 c-6 -8 -13
-11 -16 -8 -3 3 -12 -1 -21 -8 -14 -10 -14 -10 -4 4 7 9 11 18 8 20 -2 3 7 5
20 5 19 0 22 -3 13 -13z m202 2 c-7 -9 -15 -13 -19 -10 -3 3 1 10 9 15 21 14
24 12 10 -5z m200 0 c-7 -9 -15 -13 -19 -10 -3 3 1 10 9 15 21 14 24 12 10 -5z
m75 -3 c-3 -3 -11 0 -18 7 -9 10 -8 11 6 5 10 -3 15 -9 12 -12z m262 -4 c-3
-8 -6 -5 -6 6 -1 11 2 17 5 13 3 -3 4 -12 1 -19z m68 12 c-3 -5 -12 -10 -18
-10 -7 0 -6 4 3 10 19 12 23 12 15 0z m89 -19 c-7 -8 -35 9 -29 19 4 6 11 5
20 -3 7 -6 11 -14 9 -16z m311 19 c-3 -5 -12 -10 -18 -10 -7 0 -6 4 3 10 19
12 23 12 15 0z m-1615 -4 c0 -2 -7 -7 -16 -10 -8 -3 -12 -2 -9 4 6 10 25 14
25 6z m690 -6 c0 -5 -2 -10 -4 -10 -3 0 -8 5 -11 10 -3 6 -1 10 4 10 6 0 11
-4 11 -10z m315 0 c-3 -5 -11 -10 -16 -10 -6 0 -7 5 -4 10 3 6 11 10 16 10 6
0 7 -4 4 -10z m90 0 c3 -5 2 -10 -4 -10 -5 0 -13 5 -16 10 -3 6 -2 10 4 10 5
0 13 -4 16 -10z m395 0 c0 -5 -2 -10 -4 -10 -3 0 -8 5 -11 10 -3 6 -1 10 4 10
6 0 11 -4 11 -10z m-315 -10 c-3 -5 -16 -15 -28 -21 -19 -9 -19 -8 3 10 28 23
34 26 25 11z m-1025 -22 c0 -5 -9 -4 -20 2 -11 6 -20 12 -20 14 0 2 9 2 20 -1
11 -3 20 -9 20 -15z m400 0 c0 -5 -9 -4 -20 2 -11 6 -20 12 -20 14 0 2 9 2 20
-1 11 -3 20 -9 20 -15z m1017 15 c-4 -3 -1 -13 6 -22 10 -14 10 -14 -5 -3 -9
8 -23 11 -30 7 -7 -4 -4 1 6 9 19 16 36 22 23 9z m-1622 -13 c-3 -5 -10 -10
-16 -10 -5 0 -9 5 -9 10 0 6 7 10 16 10 8 0 12 -4 9 -10z m409 2 c2 -4 -4 -9
-15 -9 -11 -1 -17 2 -14 8 7 11 22 12 29 1z m396 4 c0 -3 -4 -8 -10 -11 -5 -3
-10 -1 -10 4 0 6 5 11 10 11 6 0 10 -2 10 -4z m200 -6 c0 -5 -2 -10 -4 -10 -3
0 -8 5 -11 10 -3 6 -1 10 4 10 6 0 11 -4 11 -10z m411 -7 c13 -15 12 -15 -7
-5 -12 6 -25 8 -29 4 -5 -4 -5 -1 -1 6 10 16 21 15 37 -5z m449 -24 c0 -14
-16 -11 -29 5 -10 12 -8 13 8 9 12 -3 21 -9 21 -14z m-1920 1 c0 -5 -4 -10
-10 -10 -5 0 -10 5 -10 10 0 6 5 10 10 10 6 0 10 -4 10 -10z m115 0 c3 -5 1
-10 -4 -10 -6 0 -11 5 -11 10 0 6 2 10 4 10 3 0 8 -4 11 -10z m200 0 c3 -5 -1
-10 -10 -10 -9 0 -13 5 -10 10 3 6 8 10 10 10 2 0 7 -4 10 -10z m85 0 c0 -5
-4 -10 -10 -10 -5 0 -10 5 -10 10 0 6 5 10 10 10 6 0 10 -4 10 -10z m115 0 c3
-5 1 -10 -4 -10 -6 0 -11 5 -11 10 0 6 2 10 4 10 3 0 8 -4 11 -10z m200 0 c3
-5 2 -10 -4 -10 -5 0 -13 5 -16 10 -3 6 -2 10 4 10 5 0 13 -4 16 -10z m90 0
c-3 -5 -10 -10 -16 -10 -5 0 -9 5 -9 10 0 6 7 10 16 10 8 0 12 -4 9 -10z m315
0 c0 -5 -4 -10 -9 -10 -6 0 -13 5 -16 10 -3 6 1 10 9 10 9 0 16 -4 16 -10z
m80 0 c0 -5 -4 -10 -10 -10 -5 0 -10 5 -10 10 0 6 5 10 10 10 6 0 10 -4 10
-10z m200 0 c0 -5 -5 -10 -11 -10 -5 0 -7 5 -4 10 3 6 8 10 11 10 2 0 4 -4 4
-10z m120 0 c0 -5 -4 -10 -9 -10 -6 0 -13 5 -16 10 -3 6 1 10 9 10 9 0 16 -4
16 -10z m89 -4 c10 -12 8 -13 -8 -9 -12 3 -18 9 -15 14 7 12 10 11 23 -5z
m248 -28 c-3 -7 -5 -2 -5 12 0 14 2 19 5 13 2 -7 2 -19 0 -25z m-892 12 c-3
-5 -12 -10 -18 -10 -7 0 -6 4 3 10 19 12 23 12 15 0z m190 -8 c-3 -3 -11 0
-18 7 -9 10 -8 11 6 5 10 -3 15 -9 12 -12z m405 4 c-7 -7 -13 -7 -20 0 -6 6
-3 10 10 10 13 0 16 -4 10 -10z m-1395 -6 c3 -6 -1 -7 -9 -4 -18 7 -21 14 -7
14 6 0 13 -4 16 -10z m495 0 c0 -5 -5 -10 -11 -10 -5 0 -7 5 -4 10 3 6 8 10
11 10 2 0 4 -4 4 -10z m400 0 c0 -5 -5 -10 -11 -10 -5 0 -7 5 -4 10 3 6 8 10
11 10 2 0 4 -4 4 -10z m195 0 c3 -5 1 -10 -4 -10 -6 0 -11 5 -11 10 0 6 2 10
4 10 3 0 8 -4 11 -10z m400 0 c3 -5 1 -10 -4 -10 -6 0 -11 5 -11 10 0 6 2 10
4 10 3 0 8 -4 11 -10z m-237 -24 c-2 -1 -12 -8 -22 -16 -14 -10 -17 -11 -12
-2 4 7 2 20 -5 28 -11 13 -9 14 14 3 15 -7 26 -13 25 -13z m-1311 -7 c2 -16
-1 -18 -11 -10 -7 6 -15 10 -17 8 -2 -1 2 4 10 11 8 6 15 12 16 12 0 0 1 -9 2
-21z m111 7 c-2 -1 -10 -7 -18 -13 -13 -10 -16 -8 -16 6 0 13 6 17 19 13 10
-2 16 -5 15 -6z m296 -25 c-2 -2 -10 4 -18 12 -12 11 -13 16 -3 20 11 4 29
-23 21 -32z m104 25 c-2 -1 -10 -7 -18 -13 -13 -10 -16 -8 -16 6 0 13 6 17 19
13 10 -2 16 -5 15 -6z m298 -5 c0 -15 -3 -17 -18 -8 -13 8 -14 13 -5 19 18 12
23 10 23 -11z m91 11 c9 -6 8 -11 -5 -19 -15 -9 -18 -7 -18 8 0 21 5 23 23 11z
m309 -11 c0 -15 -3 -17 -18 -8 -13 8 -14 13 -5 19 18 12 23 10 23 -11z m400 0
c0 -15 -3 -17 -18 -7 -17 10 -17 11 0 18 9 3 17 7 17 7 1 1 1 -7 1 -18z m90
11 c9 -5 8 -10 -1 -19 -10 -9 -14 -8 -18 8 -5 20 0 24 19 11z m-1051 -21 c3
-5 1 -12 -5 -16 -5 -3 -10 1 -10 9 0 18 6 21 15 7z m-500 -11 c3 -6 -1 -7 -9
-4 -18 7 -21 14 -7 14 6 0 13 -4 16 -10z m105 6 c0 -3 -4 -8 -10 -11 -5 -3
-10 -1 -10 4 0 6 5 11 10 11 6 0 10 -2 10 -4z m795 -6 c-3 -5 -11 -10 -16 -10
-6 0 -7 5 -4 10 3 6 11 10 16 10 6 0 7 -4 4 -10z m305 0 c0 -5 -2 -10 -4 -10
-3 0 -8 5 -11 10 -3 6 -1 10 4 10 6 0 11 -4 11 -10z m100 6 c0 -2 -7 -7 -16
-10 -8 -3 -12 -2 -9 4 6 10 25 14 25 6z m300 -6 c0 -5 -2 -10 -4 -10 -3 0 -8
5 -11 10 -3 6 -1 10 4 10 6 0 11 -4 11 -10z"/>
</g>
</svg>
