<?xml version="1.0" standalone="no"?>
<!DOCTYPE svg PUBLIC "-//W3C//DTD SVG 20010904//EN"
 "http://www.w3.org/TR/2001/REC-SVG-20010904/DTD/svg10.dtd">
<svg version="1.0" xmlns="http://www.w3.org/2000/svg"
 width="200.000000pt" height="200.000000pt" viewBox="0 0 200.000000 200.000000"
 preserveAspectRatio="xMidYMid meet">
<metadata>
Created by potrace 1.16, written by Peter Selinger 2001-2019
</metadata>
<g transform="translate(0.000000,200.000000) scale(0.100000,-0.100000)"
fill="#000000" stroke="none">
<path d="M0 1980 c0 -18 3 -19 20 -10 12 7 20 7 20 1 0 -5 -9 -13 -20 -16 -11
-3 -20 -13 -20 -21 0 -17 12 -18 28 -2 9 9 12 7 12 -9 0 -11 -7 -24 -16 -27
-8 -3 -12 -2 -9 4 3 6 1 10 -4 10 -7 0 -11 -73 -11 -215 0 -118 3 -215 6 -215
8 0 68 32 84 45 8 6 24 15 35 19 31 11 5 -11 -46 -39 -24 -13 -43 -28 -42 -33
1 -5 -5 -9 -15 -8 -15 1 -17 -12 -20 -102 -3 -84 -1 -103 10 -97 10 6 11 5 0
-6 -18 -19 -15 -32 7 -26 14 3 18 1 14 -10 -3 -8 -12 -12 -19 -9 -12 4 -14
-35 -14 -230 0 -143 4 -233 9 -229 5 3 8 17 5 31 -3 17 -1 23 6 19 6 -4 9 -14
6 -22 -5 -11 -2 -14 11 -9 16 5 16 5 -1 -8 -10 -8 -15 -19 -12 -25 11 -17 140
-82 153 -76 7 2 13 -1 13 -8 0 -7 23 -27 52 -44 42 -26 55 -30 67 -20 12 10
14 9 8 -5 -5 -13 1 -22 22 -32 16 -9 32 -11 37 -6 5 5 10 -1 10 -16 1 -13 -2
-24 -7 -24 -5 0 -9 4 -9 8 0 13 -81 53 -92 45 -6 -3 -8 -1 -5 4 9 14 -61 56
-79 49 -8 -3 -14 1 -14 8 0 21 -28 27 -40 8 -8 -15 -9 -14 -7 6 2 20 -8 29
-53 53 -30 16 -61 33 -67 39 -10 9 -13 -3 -13 -52 l0 -63 45 -24 c25 -13 43
-26 40 -29 -2 -3 -11 1 -19 7 -12 10 -20 10 -38 0 -20 -11 -22 -10 -10 3 10
13 10 17 -3 22 -12 4 -15 -3 -15 -32 0 -21 5 -43 12 -50 9 -9 9 -12 0 -12 -8
0 -12 -25 -12 -84 l0 -85 100 -56 c98 -55 102 -56 126 -40 13 9 22 20 19 25
-3 6 0 7 8 4 8 -3 36 8 63 24 40 23 50 34 52 60 2 18 8 32 13 32 5 0 9 -6 8
-12 -4 -37 2 -39 44 -13 23 14 41 30 39 36 -1 6 2 8 7 5 11 -7 81 24 81 35 0
4 -36 28 -80 54 -44 26 -80 48 -80 50 0 5 35 0 40 -6 8 -11 114 -79 122 -79
11 0 10 398 -1 419 -6 10 -25 24 -43 32 -18 7 -35 16 -38 19 -14 17 -85 50
-97 46 -8 -3 -12 -2 -8 3 5 9 -154 111 -173 111 -15 0 -34 28 -30 44 2 12 7
13 18 5 12 -9 12 -12 2 -16 -9 -3 2 -14 29 -30 23 -13 49 -21 56 -19 8 3 12 2
8 -3 -7 -12 63 -55 87 -54 10 1 16 -2 13 -7 -9 -15 15 -22 31 -9 12 10 13 9 9
-3 -7 -19 58 -63 80 -54 9 3 12 0 9 -8 -3 -8 8 -19 28 -27 34 -14 40 -16 71
-18 9 0 17 -5 17 -11 0 -5 -10 -9 -22 -7 -22 2 -23 -1 -25 -88 -2 -61 1 -92
10 -97 9 -6 9 -8 0 -8 -16 0 -17 -26 -1 -36 6 -4 17 1 25 11 9 13 16 16 23 9
7 -7 -1 -15 -25 -24 -32 -13 -35 -17 -35 -57 0 -27 5 -43 12 -43 9 0 9 -3 0
-12 -13 -13 -16 -74 -4 -82 4 -3 45 16 90 41 70 40 80 49 69 62 -10 14 -10 14
3 4 29 -22 37 0 38 104 1 82 -2 105 -16 121 -24 27 -81 55 -98 48 -9 -3 -12
-1 -9 5 4 6 -1 17 -11 25 -13 10 -6 9 21 -3 22 -10 46 -24 53 -30 7 -7 24 -16
37 -19 14 -3 27 -15 30 -25 4 -11 11 -16 18 -12 9 5 8 3 0 -8 -8 -10 -12 -45
-10 -105 3 -88 -4 -124 -24 -124 -6 0 -23 -9 -37 -19 -15 -10 -52 -32 -82 -49
-50 -28 -55 -34 -58 -68 -1 -22 3 -41 10 -46 10 -6 10 -8 1 -8 -9 0 -13 -18
-13 -56 0 -35 4 -53 10 -49 6 4 10 3 9 -2 -1 -4 0 -10 1 -13 11 -29 7 -40 -14
-34 -14 3 -35 -4 -59 -20 -21 -15 -40 -26 -43 -26 -3 0 -26 -12 -52 -27 -46
-27 -82 -37 -82 -23 0 3 -38 28 -85 54 -47 27 -84 50 -82 52 2 3 47 -20 100
-50 l96 -54 57 34 c31 19 60 34 64 34 4 0 19 11 33 24 14 13 28 21 31 18 3 -3
6 50 6 117 l0 121 -40 -20 c-23 -12 -38 -25 -35 -30 3 -5 -3 -8 -13 -7 -10 0
-40 -12 -65 -29 -47 -29 -53 -42 -49 -99 2 -18 1 -19 -9 -2 -5 9 -8 21 -5 25
2 4 1 14 -4 22 -6 10 -24 4 -82 -31 -40 -24 -76 -47 -79 -52 -3 -5 -10 -8 -15
-7 -4 1 -12 -7 -16 -17 -6 -14 -7 -12 -5 8 3 20 -3 30 -22 41 -14 9 -32 13
-39 11 -7 -3 -11 0 -10 6 2 6 -20 24 -49 41 l-52 30 0 -154 c0 -122 2 -155 13
-159 8 -3 117 -6 243 -6 l228 0 -55 26 c-30 15 -49 28 -42 31 7 2 28 -6 47
-18 19 -12 39 -19 44 -16 5 3 11 -1 15 -9 4 -12 26 -15 105 -15 55 0 102 4
106 9 3 5 -2 11 -10 13 -13 2 -12 5 4 15 17 11 19 10 15 -2 -4 -8 -1 -15 6
-15 6 0 9 -4 6 -8 -8 -13 120 -15 143 -2 14 7 18 16 14 28 -6 14 -4 15 9 5 8
-7 17 -12 19 -10 2 1 -1 -3 -8 -9 -7 -6 -13 -14 -13 -17 0 -3 83 -6 185 -6
127 0 185 4 185 11 0 6 3 8 7 5 9 -9 34 13 27 24 -3 5 2 6 12 2 15 -5 15 -7 0
-15 -38 -21 -5 -27 167 -27 144 0 187 3 205 15 12 8 20 19 17 24 -3 6 1 7 11
3 15 -5 15 -7 0 -15 -40 -22 -9 -28 138 -26 l153 1 2 84 c0 48 -3 82 -8 79 -5
-3 -11 3 -14 15 -4 16 -3 18 9 8 12 -10 14 -4 14 34 0 37 -3 45 -15 41 -11 -5
-13 -2 -9 10 4 10 0 18 -10 22 -15 6 -15 7 0 19 9 6 14 17 10 23 -4 7 -2 12 3
12 15 0 14 -37 -1 -42 -7 -3 -6 -7 5 -11 15 -6 17 2 17 65 0 66 -1 70 -17 57
-16 -12 -17 -12 -6 2 7 9 9 20 5 24 -4 5 -1 5 6 1 10 -6 13 1 10 30 -2 30 -7
39 -20 38 -10 -1 -15 3 -12 8 3 5 12 7 19 5 9 -4 12 22 14 105 2 106 1 110
-16 97 -16 -12 -17 -12 -6 2 7 9 9 20 5 24 -4 5 -1 5 6 1 9 -5 12 7 12 51 0
33 -5 65 -12 72 -10 11 -10 13 0 7 9 -5 12 5 12 39 0 34 -3 44 -12 39 -10 -6
-10 -4 0 7 13 14 17 53 4 45 -5 -3 -9 1 -9 9 0 8 4 12 9 9 4 -3 8 16 8 41 0
34 -3 44 -12 39 -7 -4 -10 -4 -6 1 4 4 2 15 -5 24 -11 14 -10 14 6 2 16 -12
17 -9 17 48 0 47 -3 60 -12 55 -10 -6 -10 -5 -1 7 14 18 17 313 3 304 -4 -3
-10 4 -13 15 -6 22 8 28 16 8 3 -7 6 8 6 34 1 38 -2 46 -14 42 -11 -5 -13 -2
-9 10 4 10 0 18 -10 22 -15 6 -15 7 0 19 11 7 14 17 9 25 -6 10 -4 12 8 7 14
-5 17 1 16 41 0 26 -3 41 -6 35 -7 -20 -19 -15 -19 7 0 13 5 19 13 16 10 -4
13 13 12 78 l-1 83 -154 1 c-146 1 -176 -5 -138 -26 15 -8 15 -10 0 -15 -10
-4 -15 -3 -12 2 7 11 -18 33 -27 24 -4 -3 -7 -1 -7 5 0 8 -55 11 -185 11 -173
0 -207 -6 -170 -27 13 -7 11 -11 -12 -20 -25 -11 -26 -11 -10 2 18 14 18 15
-5 30 -18 12 -61 15 -210 15 -174 1 -187 0 -181 -17 6 -16 5 -16 -14 1 -11 9
-32 17 -47 17 -25 0 -28 -3 -23 -27 7 -38 -1 -51 -45 -74 -23 -12 -36 -24 -32
-31 4 -6 3 -8 -4 -4 -6 3 -35 -7 -65 -24 -46 -25 -72 -35 -108 -39 -3 -1 -15
-10 -27 -21 -12 -11 -25 -21 -29 -22 -23 -3 -73 -33 -73 -44 0 -6 -8 -11 -17
-10 -10 0 -17 -4 -16 -11 2 -7 -3 -10 -11 -7 -20 8 -88 -36 -82 -53 4 -10 1
-13 -14 -8 -20 6 -80 -19 -80 -35 0 -5 13 -16 30 -25 17 -9 30 -18 30 -21 0
-2 -14 3 -31 12 -26 13 -37 14 -57 4 -22 -10 -24 -9 -13 4 7 8 9 21 5 28 -6
10 -5 11 7 1 14 -11 16 0 18 96 2 89 -1 111 -14 125 -9 9 -11 16 -5 16 6 0 8
5 5 10 -9 14 6 12 35 -6 l25 -15 -24 7 c-20 5 -23 3 -18 -11 4 -9 7 -59 7
-111 l0 -94 25 12 c14 6 24 17 21 24 -3 8 0 11 9 8 15 -6 95 34 95 48 0 4 3 7
8 7 19 -3 23 2 12 16 -8 9 -9 15 -2 15 6 0 13 -4 17 -9 3 -6 24 1 48 14 23 13
64 36 91 50 l49 27 -51 29 c-28 16 -56 29 -61 29 -5 0 -11 4 -13 9 -1 5 -10
11 -18 13 -20 4 -39 21 -33 31 2 4 -1 7 -6 7 -14 0 -14 -13 -1 -26 7 -7 7 -11
-3 -11 -7 0 -18 6 -24 13 -9 9 -8 14 3 18 10 4 14 13 10 22 -5 14 -4 15 9 4 8
-7 15 -9 16 -4 0 5 4 -1 9 -12 7 -17 138 -104 157 -104 3 0 3 14 1 30 -3 17
-2 33 1 35 4 2 5 24 3 49 l-4 46 -42 0 c-23 0 -48 -6 -55 -12 -11 -10 -14 -10
-18 0 -3 8 -27 12 -70 12 -37 0 -63 -3 -60 -7 4 -3 -1 -12 -11 -19 -10 -8 -12
-13 -4 -14 6 0 12 -5 12 -10 0 -6 -8 -5 -20 2 -16 11 -17 14 -5 21 32 17 12
26 -62 26 -45 0 -83 -5 -92 -12 -12 -9 -13 -9 -7 1 5 8 -1 12 -21 12 -16 0
-35 -6 -42 -12 -11 -10 -14 -10 -18 0 -3 6 -16 12 -29 12 -17 0 -24 -5 -24
-20z m1912 -7 c-10 -4 -8 -9 5 -19 14 -12 11 -11 -14 1 -33 15 -46 29 -19 19
8 -3 17 0 21 6 4 6 10 8 14 4 3 -4 0 -9 -7 -11z m-987 -3 c-3 -5 -12 -10 -18
-10 -7 0 -6 4 3 10 19 12 23 12 15 0z m180 0 c-3 -5 -1 -10 6 -10 7 0 10 -2 7
-5 -3 -3 -13 -2 -22 1 -14 5 -15 9 -4 15 17 11 20 11 13 -1z m399 -1 c-2 -4 2
-9 8 -12 7 -2 11 -7 8 -10 -3 -3 -16 2 -28 12 -21 16 -22 17 -3 17 11 0 18 -3
15 -7z m-294 -19 c0 -5 -4 -10 -10 -10 -5 0 -10 5 -10 10 0 6 5 10 10 10 6 0
10 -4 10 -10z m400 0 c0 -5 -4 -10 -10 -10 -5 0 -10 5 -10 10 0 6 5 10 10 10
6 0 10 -4 10 -10z m-1460 -10 c0 -5 -2 -10 -4 -10 -3 0 -8 5 -11 10 -3 6 -1
10 4 10 6 0 11 -4 11 -10z m320 0 c0 -5 -5 -10 -11 -10 -5 0 -7 5 -4 10 3 6 8
10 11 10 2 0 4 -4 4 -10z m538 -16 c5 3 9 -1 9 -9 0 -8 -4 -12 -9 -9 -5 3 -15
0 -23 -6 -11 -9 -15 -9 -15 -1 0 6 6 11 13 12 10 0 10 2 0 6 -7 2 -13 9 -13
15 0 6 6 6 15 -2 8 -6 18 -9 23 -6z m380 4 c8 -8 15 -8 27 2 10 8 15 9 15 1 0
-6 -6 -11 -12 -12 -10 0 -10 -2 0 -6 6 -2 12 -9 12 -15 0 -6 -6 -6 -15 2 -12
10 -18 10 -30 0 -10 -9 -15 -9 -15 -1 0 6 6 11 13 11 7 0 4 7 -7 15 -11 8 -15
15 -10 15 6 0 15 -5 22 -12z m404 -1 c15 -12 15 -14 -3 -25 -26 -16 -37 -15
-14 2 18 13 18 13 -1 24 -10 6 -14 11 -9 11 6 0 18 -5 27 -12z m-1597 -6 c3
-5 1 -12 -4 -15 -5 -3 -11 1 -15 9 -6 16 9 21 19 6z m1031 -6 c10 -8 14 -15 9
-15 -6 0 -16 5 -23 12 -9 9 -15 9 -24 0 -7 -7 -17 -12 -22 -12 -11 1 23 30 34
30 3 0 15 -7 26 -15z m404 -2 c0 -7 -4 -13 -9 -13 -5 0 -11 6 -14 13 -3 8 1
14 9 14 8 0 14 -6 14 -14z m-800 -3 c0 -5 -2 -10 -4 -10 -3 0 -8 5 -11 10 -3
6 -1 10 4 10 6 0 11 -4 11 -10z m760 2 c0 -5 -7 -9 -15 -9 -8 0 -12 4 -9 9 3
4 9 8 15 8 5 0 9 -4 9 -8z m400 -2 c0 -5 -2 -10 -4 -10 -3 0 -8 5 -11 10 -3 6
-1 10 4 10 6 0 11 -4 11 -10z m-1673 -32 c-3 -7 -5 -2 -5 12 0 14 2 19 5 13 2
-7 2 -19 0 -25z m1518 22 c3 -5 1 -10 -4 -10 -6 0 -11 5 -11 10 0 6 2 10 4 10
3 0 8 -4 11 -10z m-1688 -31 c1 -9 -9 -27 -23 -40 -13 -12 -24 -18 -24 -13 0
5 9 15 20 22 12 7 18 17 14 23 -4 7 -10 6 -19 -1 -11 -9 -14 -8 -12 7 1 23 43
25 44 2z m738 11 c3 -5 1 -10 -4 -10 -6 0 -11 5 -11 10 0 6 2 10 4 10 3 0 8
-4 11 -10z m445 -25 c0 -10 -16 -4 -40 16 l-25 20 33 -16 c17 -8 32 -18 32
-20z m365 17 c-3 -3 -11 0 -18 7 -9 10 -8 11 6 5 10 -3 15 -9 12 -12z m-1407
-10 c6 -18 -15 -14 -22 4 -4 10 -1 14 6 12 6 -2 14 -10 16 -16z m142 3 c-7 -8
-18 -15 -24 -15 -6 0 -2 7 8 15 25 19 32 19 16 0z m674 0 c-10 -8 -23 -14 -29
-14 -5 0 -1 6 9 14 11 8 24 15 30 15 5 0 1 -7 -10 -15z m422 3 c4 -7 3 -8 -4
-4 -6 4 -24 -1 -39 -10 l-28 -16 24 21 c26 24 37 26 47 9z m-601 -8 c3 -5 2
-10 -4 -10 -5 0 -13 5 -16 10 -3 6 -2 10 4 10 5 0 13 -4 16 -10z m975 6 c0 -3
-4 -8 -10 -11 -5 -3 -10 -1 -10 4 0 6 5 11 10 11 6 0 10 -2 10 -4z m-1510 -26
c0 -5 -4 -10 -10 -10 -5 0 -10 5 -10 10 0 6 5 10 10 10 6 0 10 -4 10 -10z
m410 -15 c0 -2 -6 -5 -13 -8 -8 -3 -14 1 -14 8 0 7 6 11 14 8 7 -3 13 -6 13
-8z m220 -10 c-12 -14 -50 -9 -50 7 0 5 10 6 21 3 14 -5 19 -4 15 4 -5 7 -1 9
9 5 11 -5 13 -10 5 -19z m202 -4 c12 -14 11 -15 -4 -2 -13 10 -22 10 -31 3
-10 -8 -13 -6 -13 7 0 22 29 17 48 -8z m383 17 c14 -6 25 -16 25 -21 0 -5 -7
-4 -15 3 -11 9 -19 9 -28 2 -10 -8 -13 -6 -13 9 0 22 -2 22 31 7z m238 -5 c-3
-7 -11 -13 -19 -13 -8 0 -14 -8 -14 -18 0 -10 -6 -19 -14 -19 -11 0 -11 5 0
25 7 14 11 28 9 31 -2 3 7 6 20 6 14 0 21 -5 18 -12z m-1423 -3 c0 -5 -2 -10
-4 -10 -3 0 -8 5 -11 10 -3 6 -1 10 4 10 6 0 11 -4 11 -10z m970 0 c0 -5 -4
-10 -10 -10 -5 0 -10 5 -10 10 0 6 5 10 10 10 6 0 10 -4 10 -10z m45 0 c3 -5
-3 -10 -15 -10 -12 0 -18 5 -15 10 3 6 10 10 15 10 5 0 12 -4 15 -10z m355 0
c0 -5 -4 -10 -10 -10 -5 0 -10 5 -10 10 0 6 5 10 10 10 6 0 10 -4 10 -10z
m-1675 -41 c-10 -15 -25 -10 -19 6 4 8 10 12 15 9 5 -3 7 -10 4 -15z m175 5
c0 -8 -4 -13 -9 -9 -5 3 -12 1 -16 -5 -3 -5 -11 -10 -17 -10 -5 0 0 9 13 20
29 24 29 24 29 4z m715 6 c3 -5 2 -10 -4 -10 -5 0 -13 5 -16 10 -3 6 -2 10 4
10 5 0 13 -4 16 -10z m405 0 c0 -5 -5 -10 -11 -10 -5 0 -7 5 -4 10 3 6 8 10
11 10 2 0 4 -4 4 -10z m-700 -15 c0 -2 -6 -5 -13 -8 -8 -3 -14 1 -14 8 0 7 6
11 14 8 7 -3 13 -6 13 -8z m794 9 c14 -5 13 -9 -5 -25 -12 -11 -17 -19 -11
-19 7 0 12 -5 12 -10 0 -6 -8 -5 -19 2 -18 11 -18 13 -4 23 9 7 13 17 9 23 -8
14 -4 15 18 6z m396 -14 c0 -11 -6 -20 -12 -20 -9 0 -8 -3 2 -10 8 -5 12 -11
10 -14 -3 -2 -16 4 -30 14 -22 16 -22 18 -5 17 14 -1 20 4 19 16 -1 9 2 17 7
17 5 0 9 -9 9 -20z m-780 -1 c0 -5 -4 -8 -9 -5 -5 3 -14 0 -20 -8 -9 -11 -8
-15 5 -20 9 -4 14 -9 11 -12 -3 -3 -14 0 -25 7 -20 12 -20 13 2 30 24 21 36
24 36 8z m190 -4 c7 -9 19 -14 27 -11 21 9 15 0 -14 -20 -22 -14 -25 -14 -15
-2 11 14 9 19 -10 32 -12 9 -17 16 -11 16 6 0 16 -7 23 -15z m-380 -10 c0 -1
-6 -8 -14 -15 -12 -9 -15 -8 -13 8 0 12 6 18 14 15 7 -3 13 -6 13 -8z m-260
-5 c0 -5 -5 -10 -11 -10 -5 0 -7 5 -4 10 3 6 8 10 11 10 2 0 4 -4 4 -10z
m1070 -5 c0 -2 -6 -5 -13 -8 -8 -3 -14 1 -14 8 0 7 6 11 14 8 7 -3 13 -6 13
-8z m-1453 -32 c-3 -10 -5 -4 -5 12 0 17 2 24 5 18 2 -7 2 -21 0 -30z m531 18
c16 12 16 12 0 -6 -18 -19 -18 -19 -35 0 -17 18 -17 18 0 6 14 -11 20 -11 35
0z m382 -6 c3 0 15 -7 28 -16 20 -14 21 -17 6 -23 -9 -4 -14 -12 -10 -21 4
-12 2 -13 -13 -6 -12 7 -22 6 -30 -2 -10 -9 -11 -8 -6 5 5 12 1 20 -9 24 -15
6 -15 7 0 19 11 7 14 17 9 25 -6 10 -4 11 6 4 8 -5 16 -9 19 -9z m420 8 c10 9
11 9 5 -1 -4 -7 -18 -18 -33 -23 -19 -7 -22 -13 -14 -21 14 -14 16 -38 2 -38
-5 0 -7 7 -4 15 4 8 -1 17 -10 21 -15 6 -15 7 0 19 10 7 14 17 9 24 -6 10 -3
11 12 2 14 -7 24 -7 33 2z m-1005 -13 c-3 -5 -12 -10 -18 -10 -7 0 -6 4 3 10
19 12 23 12 15 0z m395 -10 c0 -5 -5 -10 -11 -10 -5 0 -7 5 -4 10 3 6 8 10 11
10 2 0 4 -4 4 -10z m-235 -9 c-3 -6 2 -14 11 -19 15 -8 15 -10 0 -15 -10 -4
-15 -3 -11 3 3 6 -1 13 -10 16 -13 6 -14 8 -3 15 17 11 20 11 13 0z m65 0 c0
-5 -7 -11 -14 -14 -10 -4 -13 -1 -9 9 6 15 23 19 23 5z m803 -10 c-4 -3 -11
-10 -15 -15 -5 -5 -8 0 -8 12 0 15 4 20 16 15 9 -3 12 -9 7 -12z m-1033 -11
c0 -5 -4 -10 -10 -10 -5 0 -10 5 -10 10 0 6 5 10 10 10 6 0 10 -4 10 -10z
m-190 -10 c0 -5 -2 -10 -4 -10 -3 0 -8 5 -11 10 -3 6 -1 10 4 10 6 0 11 -4 11
-10z m277 -14 c-17 -13 -17 -15 -2 -24 16 -8 16 -9 1 -15 -10 -4 -15 -3 -11 3
3 6 -1 13 -10 16 -14 6 -14 8 2 20 10 7 23 13 28 13 6 0 2 -6 -8 -13z m394 -5
c-10 -7 -8 -12 8 -23 20 -14 20 -16 5 -22 -9 -4 -19 -4 -22 -1 -3 3 0 5 8 5
10 0 10 3 0 15 -7 9 -20 13 -29 10 -9 -3 -5 3 9 14 14 11 27 17 30 15 2 -3 -2
-9 -9 -13z m224 -22 c-13 -11 -27 -19 -31 -19 -4 0 1 6 11 14 17 12 17 16 5
30 -12 16 -11 16 13 5 l26 -12 -24 -18z m177 24 c-9 -4 -6 -11 9 -24 12 -10
19 -19 16 -19 -3 0 -13 -3 -21 -6 -12 -5 -15 -2 -10 10 4 10 0 18 -10 22 -15
6 -15 8 1 19 10 8 20 11 23 8 3 -3 -1 -8 -8 -10z m-1373 -6 c8 -11 5 -17 -16
-26 -23 -11 -25 -10 -14 3 7 8 10 20 6 26 -9 15 11 12 24 -3z m413 -5 c-18
-14 -20 -20 -10 -31 9 -9 2 -8 -19 3 -18 9 -33 19 -33 22 0 3 4 2 10 -1 5 -3
22 1 37 9 37 20 43 19 15 -2z m393 12 c14 -6 13 -8 -6 -22 -17 -11 -18 -16 -8
-23 8 -5 10 -9 4 -9 -5 0 -16 4 -23 9 -11 6 -10 10 3 15 10 3 15 12 11 21 -6
17 -4 18 19 9z m791 -25 c-13 -10 -28 -19 -33 -19 -4 0 0 5 10 11 9 5 17 16
17 24 0 9 6 12 15 9 12 -5 10 -10 -9 -25z m184 1 c13 -11 20 -20 17 -20 -3 0
-13 -3 -23 -7 -13 -5 -15 -3 -9 7 5 8 1 18 -10 27 -11 7 -14 13 -8 13 5 0 20
-9 33 -20z m-1286 -24 c-3 -8 -13 -17 -22 -19 -12 -3 -11 -5 5 -6 12 0 24 -5
28 -10 7 -13 -48 -9 -57 4 -4 5 5 17 20 27 33 22 33 22 26 4z m800 -1 c-4 -8
-11 -12 -16 -9 -6 4 -5 10 3 15 19 12 19 11 13 -6z m396 -7 c0 -5 10 -18 23
-28 l22 -19 -22 6 c-13 3 -29 18 -37 33 -12 24 -12 28 0 23 8 -3 14 -10 14
-15z m-1399 -17 c7 11 9 9 9 -8 0 -16 -4 -21 -16 -16 -9 3 -20 0 -24 -7 -5 -7
-7 -2 -7 14 0 22 2 24 14 14 11 -9 16 -9 24 3z m407 0 c15 13 16 12 4 -3 -10
-13 -10 -17 0 -21 7 -2 11 -7 8 -10 -3 -3 -17 4 -31 16 -14 12 -19 18 -12 13
8 -5 20 -3 31 5z m395 -5 c7 5 4 1 -6 -8 -25 -23 -33 -23 -33 1 0 15 3 17 13
9 8 -6 18 -7 26 -2z m402 4 c9 7 18 10 21 7 3 -3 -14 -15 -38 -27 -23 -11 -35
-15 -26 -7 14 11 15 16 5 27 -10 12 -9 12 6 1 14 -11 20 -11 32 -1z m-625 -15
c11 -13 10 -14 -4 -9 -9 3 -16 10 -16 15 0 13 6 11 20 -6z m40 3 c0 -4 -4 -8
-9 -8 -6 0 -12 4 -15 8 -3 5 1 9 9 9 8 0 15 -4 15 -9z m400 4 c0 -5 -13 -9
-30 -9 -16 0 -27 4 -24 9 7 11 54 11 54 0z m360 -2 c0 -5 -5 -10 -11 -10 -5 0
-7 5 -4 10 3 6 8 10 11 10 2 0 4 -4 4 -10z m-835 -20 c-3 -5 -12 -10 -18 -10
-7 0 -6 4 3 10 19 12 23 12 15 0z m-645 -30 l25 -20 -32 12 c-18 7 -33 16 -33
20 0 13 13 9 40 -12z m217 6 c0 -8 -6 -12 -14 -9 -7 3 -10 9 -7 14 8 14 21 11
21 -5z m191 -2 c5 3 9 -1 9 -9 0 -8 -3 -15 -6 -15 -10 1 -41 27 -41 35 0 4 7
2 15 -5 8 -6 18 -9 23 -6z m192 -4 c-24 -15 -36 -11 -14 4 10 8 21 12 24 10 2
-3 -2 -9 -10 -14z m206 -7 c-6 -6 -36 9 -36 18 0 5 9 4 20 -3 10 -7 18 -14 16
-15z m200 12 c-11 -8 -24 -15 -30 -15 -5 0 -1 7 10 15 10 8 24 14 29 14 6 0 1
-6 -9 -14z m179 -3 c-3 -3 -11 0 -18 7 -9 10 -8 11 6 5 10 -3 15 -9 12 -12z
m405 8 c0 -5 -4 -10 -10 -10 -5 0 -10 5 -10 10 0 6 5 10 10 10 6 0 10 -4 10
-10z m-200 -14 c0 -3 -4 -8 -10 -11 -5 -3 -10 -1 -10 4 0 6 5 11 10 11 6 0 10
-2 10 -4z m-1500 -36 c0 -17 -26 -17 -27 1 -1 12 3 16 13 12 8 -3 14 -9 14
-13z m203 -30 c3 -13 0 -20 -10 -20 -10 0 -12 6 -8 20 5 16 2 18 -16 15 -12
-2 -19 -2 -15 2 3 3 1 12 -5 19 -8 10 -3 9 19 -1 16 -9 32 -24 35 -35z m177
40 c0 -5 -2 -10 -4 -10 -3 0 -8 5 -11 10 -3 6 -1 10 4 10 6 0 11 -4 11 -10z
m442 -7 c-10 -4 -10 -8 0 -21 12 -15 11 -16 -4 -3 -15 11 -21 11 -33 1 -10 -9
-15 -9 -15 -1 0 6 6 11 13 11 8 0 7 4 -3 11 -12 8 -10 9 7 4 12 -3 24 -1 28 5
4 6 10 8 14 4 3 -4 0 -9 -7 -11z m781 -2 c15 -8 27 -19 27 -24 0 -5 -7 -4 -15
3 -12 10 -18 10 -32 -1 -16 -13 -17 -12 -5 3 11 14 10 18 -5 28 -22 14 -8 9
30 -9z m-1375 -8 c-13 -16 -15 -16 -21 1 -4 10 0 14 13 13 14 -1 16 -4 8 -14z
m192 1 c0 -8 -5 -12 -10 -9 -6 4 -17 1 -25 -5 -8 -7 -15 -8 -15 -3 0 8 29 27
48 32 1 1 2 -6 2 -15z m215 6 c-3 -5 -12 -10 -18 -10 -7 0 -6 4 3 10 19 12 23
12 15 0z m395 1 c0 -15 -31 -22 -48 -11 -14 9 -13 10 5 5 12 -3 24 -1 28 5 8
12 15 13 15 1z m188 -3 c-10 -6 -10 -8 0 -8 6 0 12 -5 12 -11 0 -8 -5 -8 -15
1 -12 10 -18 10 -30 0 -10 -9 -15 -9 -15 -1 0 6 6 11 13 11 9 0 9 2 -1 8 -8 6
-2 9 18 9 20 0 26 -3 18 -9z m172 0 c0 -4 -4 -8 -9 -8 -6 0 -12 4 -15 8 -3 5
1 9 9 9 8 0 15 -4 15 -9z m40 3 c0 -5 -7 -12 -16 -15 -14 -5 -15 -4 -4 9 14
17 20 19 20 6z m360 -4 c0 -8 -7 -14 -15 -14 -11 0 -12 4 -4 14 6 7 13 13 15
13 2 0 4 -6 4 -13z m-1195 -7 c3 -6 -1 -7 -9 -4 -18 7 -21 14 -7 14 6 0 13 -4
16 -10z m-715 -25 c7 -8 18 -15 26 -15 7 0 15 -4 18 -9 4 -5 -2 -7 -11 -5 -23
6 -71 43 -57 44 6 0 17 -7 24 -15z m410 -5 c0 -5 -2 -10 -4 -10 -3 0 -8 5 -11
10 -3 6 -1 10 4 10 6 0 11 -4 11 -10z m320 0 c0 -5 -4 -10 -9 -10 -6 0 -13 5
-16 10 -3 6 1 10 9 10 9 0 16 -4 16 -10z m400 0 c0 -5 -4 -10 -10 -10 -5 0
-10 5 -10 10 0 6 5 10 10 10 6 0 10 -4 10 -10z m85 -32 c-31 -24 -43 -23 -14
2 13 10 18 19 12 20 -7 0 -13 5 -13 10 0 6 7 6 19 -2 18 -11 18 -12 -4 -30z
m315 32 c0 -5 -4 -10 -10 -10 -5 0 -10 5 -10 10 0 6 5 10 10 10 6 0 10 -4 10
-10z m-1305 -10 c-3 -6 3 -14 14 -18 21 -7 21 -7 1 -20 -17 -11 -20 -10 -20 8
0 11 -6 20 -12 20 -9 0 -8 4 2 10 19 12 23 12 15 0z m400 1 c-3 -5 5 -17 17
-25 12 -9 17 -16 11 -16 -6 0 -16 7 -23 15 -7 9 -20 13 -29 10 -11 -3 -10 0 3
10 23 17 30 19 21 6z m211 -5 c19 -14 19 -14 -1 -13 -13 1 -20 -4 -19 -15 2
-22 -6 -23 -32 -2 -10 8 -13 13 -6 9 7 -4 20 -1 28 6 12 10 12 14 2 20 -7 5
-8 9 -2 9 5 0 19 -6 30 -14z m195 5 c-10 -7 -9 -12 8 -23 21 -15 21 -16 2 -21
-14 -3 -18 -1 -14 9 3 8 -3 17 -12 20 -13 5 -14 9 -3 15 7 5 18 9 23 9 6 0 4
-4 -4 -9z m400 0 c-10 -7 -9 -11 8 -23 21 -15 21 -15 -7 -27 -24 -10 -25 -10
-9 3 17 13 17 15 -3 29 -16 11 -18 16 -8 20 21 9 34 7 19 -2z m229 1 c0 -1
-12 -7 -26 -12 -16 -6 -24 -16 -21 -24 4 -10 0 -12 -14 -9 -19 5 -19 6 1 20
11 8 18 17 16 21 -2 4 7 7 20 7 13 0 24 -1 24 -3z m-1235 -16 c-16 -12 -17
-16 -6 -29 11 -14 9 -15 -19 -4 -17 6 -25 14 -18 16 7 2 19 10 26 18 7 7 18
13 25 13 6 0 2 -6 -8 -14z m1412 -6 c14 -11 23 -20 20 -20 -3 0 -12 -3 -20 -6
-10 -4 -15 1 -14 13 1 11 -4 18 -15 17 -10 -1 -15 2 -12 7 8 13 13 11 41 -11z
m-1837 -10 c0 -5 -4 -10 -10 -10 -5 0 -10 5 -10 10 0 6 5 10 10 10 6 0 10 -4
10 -10z m123 -19 c16 7 13 3 -8 -15 -25 -22 -27 -26 -12 -32 9 -3 17 -10 17
-16 0 -5 -4 -7 -9 -4 -5 4 -12 0 -14 -6 -3 -7 -6 -2 -6 11 -1 18 -5 22 -21 18
-11 -3 -18 -1 -14 4 3 5 12 9 20 9 9 0 14 11 15 33 1 23 3 26 6 10 4 -20 7
-21 26 -12z m824 5 c-17 -13 -17 -15 3 -29 l22 -15 -22 -7 c-18 -6 -19 -9 -8
-23 12 -15 11 -16 -4 -3 -15 11 -21 11 -33 1 -8 -7 -15 -10 -15 -6 0 3 14 15
30 25 27 16 29 20 15 31 -12 10 -18 10 -30 0 -8 -7 -12 -16 -9 -21 3 -5 -2 -6
-11 -3 -9 4 -15 8 -13 9 2 2 21 14 42 29 40 27 65 36 33 12z m-403 -8 c-4 -6
1 -17 10 -23 15 -12 15 -13 0 -19 -10 -4 -14 -12 -10 -22 5 -14 4 -15 -9 -4
-12 10 -18 10 -30 0 -8 -7 -15 -8 -15 -2 0 5 14 15 31 23 l32 13 -22 17 c-15
12 -17 19 -9 22 22 9 29 7 22 -5z m1181 0 c14 -6 25 -16 25 -21 0 -5 -7 -4
-16 3 -12 11 -18 11 -30 -2 -14 -13 -12 -16 15 -28 17 -7 31 -17 31 -22 0 -6
-7 -5 -15 2 -12 10 -18 10 -32 -1 -16 -13 -17 -12 -5 3 11 14 10 17 -8 23
l-22 7 22 15 c17 12 19 17 9 24 -20 13 -4 11 26 -3z m-385 -13 c7 -9 19 -14
26 -11 7 3 14 -1 17 -7 3 -7 -5 -12 -18 -12 -13 0 -21 3 -19 6 2 4 -3 12 -11
19 -12 10 -18 10 -30 0 -14 -11 -12 -15 15 -31 16 -10 30 -22 30 -25 0 -4 -7
-1 -15 6 -12 10 -18 10 -32 -1 -16 -13 -17 -12 -4 4 7 9 9 17 4 17 -5 0 -18 7
-29 15 -13 10 -14 13 -3 10 9 -3 22 1 29 10 7 8 16 15 20 15 4 0 13 -7 20 -15z
m-1010 1 c0 -3 -4 -8 -10 -11 -5 -3 -10 -1 -10 4 0 6 5 11 10 11 6 0 10 -2 10
-4z m170 -16 c0 -13 -5 -18 -15 -14 -11 5 -12 9 -2 20 16 18 17 17 17 -6z
m1030 10 c0 -5 -2 -10 -4 -10 -3 0 -8 5 -11 10 -3 6 -1 10 4 10 6 0 11 -4 11
-10z m-1360 -10 c0 -5 -4 -10 -10 -10 -5 0 -10 5 -10 10 0 6 5 10 10 10 6 0
10 -4 10 -10z m74 -45 c11 -8 15 -15 10 -15 -6 0 -19 7 -30 15 -10 8 -14 14
-9 14 6 0 19 -6 29 -14z m169 -4 c-3 -12 1 -20 11 -23 14 -2 14 -5 -3 -15 -17
-11 -19 -10 -15 2 4 8 -1 18 -10 21 -15 6 -15 8 1 20 10 7 19 14 20 14 0 0 -1
-9 -4 -19z m230 -16 c-9 -7 -13 -17 -9 -23 4 -7 2 -12 -3 -12 -6 0 -11 5 -11
11 0 5 -4 7 -10 4 -5 -3 -10 -2 -10 4 0 5 9 13 21 16 17 6 18 9 7 22 -12 15
-11 15 9 3 19 -12 20 -15 6 -25z m168 22 c-6 -8 -8 -17 -4 -21 4 -4 0 -4 -10
0 -17 6 -17 7 0 20 23 17 28 18 14 1z m232 -22 c-10 -8 -13 -17 -8 -26 8 -12
6 -12 -8 -1 -9 8 -21 11 -27 7 -5 -3 -10 -4 -10 -1 0 3 12 12 28 20 15 8 21
15 15 16 -7 0 -13 5 -13 10 0 6 8 5 19 -2 18 -11 18 -13 4 -23z m168 21 c-10
-11 -8 -16 9 -21 17 -6 18 -8 6 -21 -19 -18 -27 -18 -20 1 4 8 -1 17 -10 21
-15 6 -15 8 1 20 23 17 28 17 14 0z m232 -21 c-10 -8 -13 -17 -8 -26 7 -11 6
-12 -7 -2 -8 7 -18 10 -21 6 -4 -3 -7 -2 -7 4 0 6 10 13 22 16 19 5 20 8 7 23
-13 16 -12 16 8 4 19 -12 20 -15 6 -25z m167 15 c-24 -15 -36 -11 -14 4 10 8
21 12 24 10 2 -3 -2 -9 -10 -14z m248 -6 c2 -1 -5 -5 -15 -8 -9 -4 -14 -4 -10
0 4 4 1 14 -6 23 -11 14 -10 15 8 1 11 -8 21 -15 23 -16z m-1858 6 c0 -5 -5
-10 -11 -10 -5 0 -7 5 -4 10 3 6 8 10 11 10 2 0 4 -4 4 -10z m233 -30 c3 -11
1 -20 -4 -20 -5 0 -9 9 -9 20 0 11 2 20 4 20 2 0 6 -9 9 -20z m1420 8 c-2 -5
-11 -8 -19 -8 -8 0 -14 -4 -14 -10 0 -5 -5 -10 -11 -10 -8 0 -9 4 0 13 6 8 9
16 7 18 -2 2 6 4 19 4 13 0 21 -3 18 -7z m-1324 -14 c4 3 8 -1 8 -8 0 -8 -6
-12 -14 -9 -7 3 -13 13 -12 22 0 10 2 11 6 3 2 -6 8 -10 12 -8z m510 13 c-2
-1 -13 -9 -24 -17 -19 -14 -19 -14 -6 3 7 9 18 17 24 17 6 0 8 -1 6 -3z m992
-14 c13 -17 13 -17 -6 -3 -11 8 -22 16 -24 17 -2 2 0 3 6 3 6 0 17 -8 24 -17z
m-1101 -8 c11 -13 10 -14 -4 -9 -9 3 -16 10 -16 15 0 13 6 11 20 -6z m390 -5
c-6 -4 -11 -10 -10 -14 3 -14 -8 -31 -16 -23 -5 4 -3 12 5 16 7 5 12 11 12 15
-3 20 0 26 10 20 8 -5 8 -9 -1 -14z m410 9 c0 -4 -6 -9 -13 -12 -8 -3 -14 0
-14 7 0 7 6 13 14 13 7 0 13 -4 13 -8z m-1530 -3 c0 -3 -4 -8 -10 -11 -5 -3
-10 -1 -10 4 0 6 5 11 10 11 6 0 10 -2 10 -4z m130 -36 c0 -4 -9 -10 -20 -13
-15 -4 -20 0 -20 13 0 13 5 17 20 13 11 -3 20 -9 20 -13z m184 7 c-2 -7 -19
-18 -36 -25 -30 -11 -31 -11 -12 7 17 15 29 22 51 30 1 1 0 -5 -3 -12z m232
-7 c0 -24 -3 -24 -22 -6 -11 11 -11 16 -1 19 21 9 23 8 23 -13z m168 5 c-7
-16 -24 -21 -24 -6 0 8 7 13 27 20 1 1 0 -6 -3 -14z m232 -4 c0 -14 -4 -17
-12 -11 -6 6 -14 7 -17 3 -4 -3 -7 -1 -7 5 0 6 8 13 18 15 9 3 17 5 17 6 1 0
1 -8 1 -18z m374 -1 c0 -4 -6 -10 -13 -13 -7 -3 -13 3 -13 13 0 10 6 16 13 13
7 -3 13 -9 13 -13z m26 0 c0 -12 -4 -16 -9 -11 -5 5 -6 14 -3 20 10 15 12 14
12 -9z m208 -1 c-8 -13 -21 -11 -27 5 -4 10 0 12 14 9 10 -3 16 -9 13 -14z
m156 11 c0 -7 6 -7 18 -1 14 7 17 5 18 -15 2 -22 1 -23 -10 -8 -9 12 -15 14
-20 6 -11 -18 -22 -14 -22 8 0 11 4 20 8 20 4 0 8 -5 8 -10z m-1360 -10 c0 -5
-4 -10 -10 -10 -5 0 -10 5 -10 10 0 6 5 10 10 10 6 0 10 -4 10 -10z m400 0 c0
-5 -4 -10 -10 -10 -5 0 -10 5 -10 10 0 6 5 10 10 10 6 0 10 -4 10 -10z m400 0
c0 -5 -4 -10 -10 -10 -5 0 -10 5 -10 10 0 6 5 10 10 10 6 0 10 -4 10 -10z
m360 0 c0 -5 -4 -10 -10 -10 -5 0 -10 5 -10 10 0 6 5 10 10 10 6 0 10 -4 10
-10z m400 0 c0 -5 -4 -10 -10 -10 -5 0 -10 5 -10 10 0 6 5 10 10 10 6 0 10 -4
10 -10z m-1670 -38 c0 -4 -15 -13 -32 -20 l-33 -12 25 20 c27 21 40 25 40 12z
m190 -13 l25 -20 -32 16 c-18 8 -33 18 -33 20 0 10 16 4 40 -16z m210 11 c0
-5 -5 -10 -11 -10 -5 0 -7 5 -4 10 3 6 8 10 11 10 2 0 4 -4 4 -10z m400 0 c0
-5 -5 -10 -11 -10 -5 0 -7 5 -4 10 3 6 8 10 11 10 2 0 4 -4 4 -10z m390 -10
c-24 -15 -36 -11 -14 4 10 8 21 12 24 10 2 -3 -2 -9 -10 -14z m400 0 c-24 -15
-36 -11 -14 4 10 8 21 12 24 10 2 -3 -2 -9 -10 -14z m-1795 -8 c-3 -3 -11 0
-18 7 -9 10 -8 11 6 5 10 -3 15 -9 12 -12z m135 -17 c0 -2 -10 -9 -22 -15 -22
-11 -22 -10 -4 4 21 17 26 19 26 11z m162 -6 c17 10 20 10 11 0 -10 -10 -10
-16 0 -28 11 -14 10 -14 -5 -2 -10 7 -24 11 -31 8 -8 -3 -14 3 -15 16 -1 17 1
19 8 7 8 -13 13 -13 32 -1z m406 2 c15 13 16 12 3 -3 -11 -14 -11 -18 -1 -18
8 0 11 -2 8 -5 -8 -8 -58 16 -58 28 0 5 7 4 15 -3 12 -10 18 -10 33 1z m400 0
c15 13 16 12 4 -3 -10 -13 -10 -17 0 -20 7 -3 -3 -5 -22 -5 -19 0 -29 2 -22 5
10 3 10 7 0 20 -12 15 -11 16 5 3 14 -11 20 -11 35 0z m390 -17 c1 0 -10 -6
-25 -13 -24 -10 -26 -9 -11 2 14 11 15 16 5 27 -9 11 -8 11 8 0 11 -8 21 -15
23 -16z m-985 -1 c-2 -6 -12 -10 -21 -8 -9 1 -20 -2 -23 -7 -3 -5 -8 -1 -11 9
-4 16 0 19 27 19 20 -1 31 -5 28 -13z m371 5 c5 -10 7 -10 12 0 7 14 24 16 24
3 0 -13 -27 -21 -45 -15 -8 4 -15 10 -15 15 0 13 17 11 24 -3z m400 0 c5 -10
7 -10 12 0 3 6 13 12 22 12 15 -1 14 -3 -2 -15 -11 -8 -23 -15 -26 -15 -3 0
-15 7 -26 15 -16 12 -17 14 -2 15 9 0 19 -6 22 -12z m396 2 c0 -5 -4 -10 -10
-10 -5 0 -10 5 -10 10 0 6 5 10 10 10 6 0 10 -4 10 -10z m40 1 c0 -5 -7 -12
-16 -15 -14 -5 -15 -4 -4 9 14 17 20 19 20 6z m-1220 -41 c0 -5 -4 -10 -10
-10 -5 0 -10 5 -10 10 0 6 5 10 10 10 6 0 10 -4 10 -10z m302 -2 c-10 -10 -8
-15 8 -23 19 -10 19 -11 -3 -24 -20 -13 -21 -13 -9 2 11 13 10 16 -8 22 -20 6
-21 7 -3 21 22 17 31 18 15 2z m98 2 c0 -5 -4 -10 -10 -10 -5 0 -10 5 -10 10
0 6 5 10 10 10 6 0 10 -4 10 -10z m108 -16 c2 -1 -5 -5 -15 -8 -9 -4 -14 -4
-10 0 4 4 1 14 -6 23 -11 14 -10 15 8 1 11 -8 21 -15 23 -16z m194 14 c-10
-10 -8 -15 8 -23 19 -10 19 -11 0 -23 -16 -10 -18 -9 -14 3 4 8 -1 18 -10 21
-15 6 -15 8 1 20 22 17 31 18 15 2z m98 2 c0 -5 -4 -10 -10 -10 -5 0 -10 5
-10 10 0 6 5 10 10 10 6 0 10 -4 10 -10z m108 -16 c2 -1 -5 -5 -15 -8 -9 -4
-14 -4 -10 0 4 4 1 14 -6 23 -11 14 -10 15 8 1 11 -8 21 -15 23 -16z m198 11
c-11 -8 -24 -15 -30 -15 -5 0 -1 7 10 15 10 8 24 14 29 14 6 0 1 -6 -9 -14z
m94 5 c0 -5 -4 -10 -10 -10 -5 0 -10 5 -10 10 0 6 5 10 10 10 6 0 10 -4 10
-10z m88 -24 c-1 -31 -3 -33 -20 -23 -16 11 -17 12 -2 15 10 3 14 11 11 23 -3
10 -1 19 4 19 4 0 8 -15 7 -34z m-1788 1 c0 -5 8 -7 18 -5 11 3 19 0 19 -7 0
-7 -8 -10 -19 -7 -10 2 -18 -1 -18 -7 0 -6 -5 -11 -11 -11 -8 0 -7 6 2 17 12
14 12 16 -2 11 -9 -4 -16 -1 -16 6 0 7 6 13 14 13 7 0 13 -5 13 -10z m418 -7
c13 0 12 -3 -4 -15 -10 -8 -23 -14 -29 -15 -5 0 -3 5 5 11 11 8 12 12 2 16 -6
2 -9 10 -5 16 5 8 8 8 11 -1 2 -7 11 -12 20 -12z m177 10 c3 -5 1 -10 -5 -10
-7 0 -10 -7 -6 -15 4 -12 2 -13 -13 -3 -14 9 -16 14 -7 24 13 16 23 17 31 4z
m1015 -20 c0 -11 -4 -20 -9 -20 -5 0 -7 9 -4 20 3 11 7 20 9 20 2 0 4 -9 4
-20z m-629 -7 c13 -17 13 -17 -6 -3 -11 8 -22 16 -24 17 -2 2 0 3 6 3 6 0 17
-8 24 -17z m400 0 c13 -17 13 -17 -6 -3 -11 8 -22 16 -24 17 -2 2 0 3 6 3 6 0
17 -8 24 -17z m-661 -3 c0 -5 -5 -10 -11 -10 -5 0 -7 5 -4 10 3 6 8 10 11 10
2 0 4 -4 4 -10z m385 0 c9 7 18 10 22 7 3 -4 -1 -9 -10 -13 -13 -4 -14 -9 -4
-19 7 -7 17 -10 22 -7 6 3 3 -2 -4 -12 -14 -17 -15 -17 -23 4 -4 12 -13 20
-20 18 -23 -8 -19 -27 9 -43 15 -9 20 -14 9 -10 -10 3 -25 0 -32 -6 -10 -8
-14 -8 -14 0 0 6 5 11 10 11 6 0 5 6 -2 14 -7 8 -15 14 -18 14 -22 -1 -20 5 5
17 17 7 24 14 18 14 -7 1 -13 6 -13 12 0 8 5 8 15 -1 12 -10 18 -10 30 0z
m374 -2 c18 -11 18 -12 -5 -31 -14 -11 -27 -17 -30 -14 -3 3 4 11 17 18 22 11
22 12 4 25 -23 17 -12 19 14 2z m-1549 -12 c0 -2 -7 -7 -16 -10 -8 -3 -12 -2
-9 4 6 10 25 14 25 6z m752 -14 c-19 -6 -14 -34 6 -30 9 2 16 10 14 17 -2 9 3
9 18 1 11 -6 20 -13 20 -16 0 -3 -4 -3 -8 0 -4 2 -14 1 -22 -5 -10 -6 -11 -9
-2 -9 6 0 12 -5 12 -11 0 -8 -5 -8 -15 1 -12 10 -18 10 -31 -1 -13 -11 -15
-11 -14 2 4 26 0 40 -10 34 -14 -9 -12 3 2 19 7 7 19 11 27 8 10 -4 11 -7 3
-10z m861 -5 c4 3 7 2 7 -4 0 -6 -9 -13 -20 -16 -15 -4 -20 0 -20 15 0 16 3
18 13 9 8 -6 17 -8 20 -4z m326 -11 c10 -12 8 -13 -8 -9 -12 3 -18 9 -15 14 7
12 10 11 23 -5z m-1949 0 c0 -3 -4 -8 -10 -11 -5 -3 -10 -1 -10 4 0 6 5 11 10
11 6 0 10 -2 10 -4z m575 -16 c3 -5 1 -10 -4 -10 -6 0 -11 5 -11 10 0 6 2 10
4 10 3 0 8 -4 11 -10z m1025 -23 c0 -5 -7 -4 -15 3 -8 6 -18 9 -23 6 -5 -3 -9
1 -9 8 0 11 5 12 24 3 13 -5 23 -15 23 -20z m-538 1 c-10 -10 -8 -15 8 -23 19
-10 19 -11 -3 -24 -20 -13 -21 -13 -9 2 11 13 10 16 -8 22 -20 6 -21 7 -3 21
22 17 31 18 15 2z m228 -14 c0 -8 -5 -14 -11 -14 -8 0 -7 -6 2 -17 13 -15 12
-15 -8 -3 -19 12 -20 15 -6 25 10 8 13 17 8 25 -5 9 -4 11 3 6 7 -4 12 -14 12
-22z m404 14 c12 -11 10 -15 -8 -25 -11 -7 -15 -12 -8 -13 6 0 12 -5 12 -11 0
-8 -4 -8 -15 1 -8 6 -20 9 -27 5 -7 -4 -2 2 11 13 13 11 21 24 17 31 -10 15 1
14 18 -1z m166 -8 c-24 -15 -36 -11 -14 4 10 8 21 12 24 10 2 -3 -2 -9 -10
-14z m-1675 0 c3 -6 -1 -7 -9 -4 -18 7 -21 14 -7 14 6 0 13 -4 16 -10z m701
-12 c-14 -8 -15 -12 -4 -25 12 -15 11 -15 -10 -2 -12 8 -18 15 -12 17 5 2 10
10 10 18 0 8 6 11 16 7 15 -5 15 -7 0 -15z m-661 -16 c-3 -3 -11 0 -18 7 -9
10 -8 11 6 5 10 -3 15 -9 12 -12z m455 -2 c0 -17 -26 -17 -27 1 -1 12 3 16 13
12 8 -3 14 -9 14 -13z m808 6 c-2 -1 -12 -8 -23 -16 -18 -14 -19 -13 -8 1 7 9
10 19 6 23 -4 4 1 4 10 0 10 -3 17 -7 15 -8z m395 -5 c-4 -3 -11 -10 -15 -15
-4 -4 -6 1 -5 12 1 12 6 18 15 15 7 -3 10 -9 5 -12z m-1888 -1 c3 -5 1 -10 -4
-10 -6 0 -11 5 -11 10 0 6 2 10 4 10 3 0 8 -4 11 -10z m275 -5 c-7 -8 -18 -15
-24 -15 -6 0 -2 7 8 15 25 19 32 19 16 0z m-180 -4 c0 -6 -4 -13 -10 -16 -5
-3 -10 1 -10 9 0 9 5 16 10 16 6 0 10 -4 10 -9z m885 0 c-3 -6 5 -20 17 -33
13 -13 19 -20 14 -16 -5 3 -15 4 -24 1 -9 -4 -13 -2 -9 4 4 6 0 16 -9 23 -12
11 -12 15 -2 21 17 11 20 11 13 0z m405 -1 c0 -5 -4 -10 -10 -10 -5 0 -10 5
-10 10 0 6 5 10 10 10 6 0 10 -4 10 -10z m400 1 c0 -5 -7 -11 -14 -14 -10 -4
-13 -1 -9 9 6 15 23 19 23 5z m-1700 -45 c0 -4 -9 -1 -19 6 -11 7 -17 16 -15
20 5 8 34 -15 34 -26z m86 18 c-4 -11 -1 -14 13 -9 11 3 24 -1 32 -12 13 -16
12 -17 -3 -5 -13 10 -22 11 -37 2 -15 -8 -21 -8 -21 0 0 6 -6 8 -12 4 -7 -4
-4 2 6 14 23 26 30 28 22 6z m634 6 c0 -5 -5 -10 -11 -10 -5 0 -7 5 -4 10 3 6
8 10 11 10 2 0 4 -4 4 -10z m390 -10 c-10 -7 -11 -10 -2 -10 6 0 12 -5 12 -11
0 -8 -5 -8 -15 1 -11 9 -19 9 -28 2 -10 -8 -13 -6 -13 9 0 13 5 17 17 14 10
-3 20 -1 24 5 4 6 10 9 13 5 4 -3 0 -10 -8 -15z m-780 6 c0 -2 -7 -7 -16 -10
-8 -3 -12 -2 -9 4 6 10 25 14 25 6z m1000 -21 c0 -12 -29 -3 -34 10 -4 13 -2
14 14 5 11 -6 20 -13 20 -15z m165 13 c14 -6 25 -16 25 -21 0 -5 -7 -4 -15 3
-11 9 -19 9 -28 2 -10 -8 -13 -6 -13 9 0 22 -2 22 31 7z m235 -13 c0 -12 -29
-3 -34 10 -4 13 -2 14 14 5 11 -6 20 -13 20 -15z m-1046 6 c3 -5 0 -11 -7 -14
-8 -3 -14 1 -14 9 0 16 13 19 21 5z m196 -1 c0 -5 -7 -10 -16 -10 -8 0 -12 5
-9 10 3 6 10 10 16 10 5 0 9 -4 9 -10z m400 0 c0 -5 -4 -10 -10 -10 -5 0 -10
5 -10 10 0 6 5 10 10 10 6 0 10 -4 10 -10z m400 0 c0 -5 -4 -10 -10 -10 -5 0
-10 5 -10 10 0 6 5 10 10 10 6 0 10 -4 10 -10z m-1400 -15 c-7 -8 -18 -15 -24
-15 -6 0 -2 7 8 15 25 19 32 19 16 0z m1600 5 c0 -5 -5 -10 -11 -10 -5 0 -7 5
-4 10 3 6 8 10 11 10 2 0 4 -4 4 -10z m-1845 -17 c-2 -10 -4 -21 -4 -24 -1 -3
-8 -6 -16 -6 -8 0 -11 5 -8 10 4 6 -1 8 -11 4 -10 -4 -15 -3 -11 4 4 5 15 7
26 4 11 -4 19 -3 18 2 -2 12 0 23 5 23 2 0 3 -8 1 -17z m395 -3 c-14 -11 -28
-20 -33 -20 -12 0 -95 -54 -96 -62 -1 -5 -1 -13 -1 -19 0 -5 -5 -7 -11 -3 -6
3 -15 0 -21 -7 -7 -11 -8 -9 -6 6 2 14 -2 20 -15 18 -18 -1 -18 0 0 17 10 9
25 16 33 15 23 -4 62 14 55 25 -3 5 0 8 7 5 7 -2 31 7 53 20 49 29 69 32 35 5z
m1220 16 c0 -2 -7 -7 -16 -10 -8 -3 -12 -2 -9 4 6 10 25 14 25 6z m-1419 -29
c-6 -8 -8 -17 -4 -21 4 -4 0 -4 -10 0 -17 6 -17 7 0 20 23 17 28 18 14 1z m84
3 c3 -5 2 -10 -4 -10 -5 0 -13 5 -16 10 -3 6 -2 10 4 10 5 0 13 -4 16 -10z
m1085 0 c8 -5 12 -11 10 -14 -3 -2 -14 2 -24 10 -22 15 -10 19 14 4z m394 4
c9 -3 16 -11 16 -16 0 -7 -5 -6 -13 1 -8 6 -17 8 -20 4 -4 -3 -7 -1 -7 5 0 14
2 14 24 6z m-1630 -12 c3 -5 -1 -9 -9 -9 -8 0 -12 4 -9 9 3 4 7 8 9 8 2 0 6
-4 9 -8z m621 -2 c-3 -5 -12 -10 -18 -10 -7 0 -6 4 3 10 19 12 23 12 15 0z
m225 0 c0 -5 -2 -10 -4 -10 -3 0 -8 5 -11 10 -3 6 -1 10 4 10 6 0 11 -4 11
-10z m180 6 c0 -3 -4 -8 -10 -11 -5 -3 -10 -1 -10 4 0 6 5 11 10 11 6 0 10 -2
10 -4z m400 0 c0 -3 -4 -8 -10 -11 -5 -3 -10 -1 -10 4 0 6 5 11 10 11 6 0 10
-2 10 -4z m-1490 -46 c0 -4 -7 -10 -15 -14 -10 -4 -15 1 -15 14 0 13 5 18 15
14 8 -4 15 -10 15 -14z m810 0 c0 -4 -10 -10 -23 -12 -16 -3 -23 0 -23 12 0
12 7 15 23 12 13 -2 23 -8 23 -12z m407 1 c1 -14 -3 -17 -18 -14 -24 7 -25 20
-1 26 9 3 17 5 17 6 1 0 1 -7 2 -18z m363 -1 c0 -11 -4 -20 -8 -20 -4 0 -8 9
-8 20 0 11 4 20 8 20 4 0 8 -9 8 -20z m37 1 c-1 -11 -6 -17 -14 -14 -10 4 -11
9 -2 19 15 19 18 18 16 -5z m-997 -1 c0 -5 -4 -10 -10 -10 -5 0 -10 5 -10 10
0 6 5 10 10 10 6 0 10 -4 10 -10z m360 0 c0 -5 -4 -10 -10 -10 -5 0 -10 5 -10
10 0 6 5 10 10 10 6 0 10 -4 10 -10z m40 0 c0 -5 -4 -10 -10 -10 -5 0 -10 5
-10 10 0 6 5 10 10 10 6 0 10 -4 10 -10z m360 0 c0 -5 -4 -10 -10 -10 -5 0
-10 5 -10 10 0 6 5 10 10 10 6 0 10 -4 10 -10z m40 1 c0 -5 -7 -11 -14 -14
-10 -4 -13 -1 -9 9 6 15 23 19 23 5z m360 -1 c0 -5 -4 -10 -10 -10 -5 0 -10 5
-10 10 0 6 5 10 10 10 6 0 10 -4 10 -10z m-1830 -24 c0 -2 -7 -7 -16 -10 -8
-3 -12 -2 -9 4 6 10 25 14 25 6z m165 -5 c3 -5 1 -12 -5 -16 -5 -3 -10 1 -10
9 0 18 6 21 15 7z m885 -6 c0 -12 -19 -12 -23 0 -4 9 -1 12 9 8 7 -3 14 -7 14
-8z m-496 -7 c-4 -6 0 -16 9 -23 14 -10 14 -12 -4 -23 -11 -7 -19 -8 -19 -2 0
5 6 10 13 11 6 0 2 5 -10 11 -21 10 -22 12 -5 24 21 17 25 17 16 2z m400 0
c-4 -6 0 -16 9 -23 14 -10 13 -13 -6 -25 -20 -12 -21 -12 -9 3 11 13 10 16 -8
22 -20 6 -21 7 -3 21 22 17 26 17 17 2z m186 -23 c-16 -9 -18 -13 -8 -24 11
-11 9 -11 -9 0 -19 11 -20 14 -6 24 9 7 13 17 8 24 -5 9 -2 9 14 -1 20 -12 20
-13 1 -23z m210 20 c-7 -8 -17 -15 -23 -15 -6 0 -2 7 9 15 25 19 30 19 14 0z
m100 5 c0 -5 -7 -10 -16 -10 -8 0 -12 5 -9 10 3 6 10 10 16 10 5 0 9 -4 9 -10z
m94 -2 c12 -11 10 -15 -8 -25 -11 -7 -15 -12 -8 -13 6 0 12 -5 12 -11 0 -8 -4
-8 -15 1 -8 6 -20 9 -27 5 -7 -4 -4 1 6 9 11 9 24 16 29 16 5 0 4 7 -3 15 -15
18 -5 20 14 3z m206 -3 c-7 -8 -17 -15 -23 -15 -6 0 -2 7 9 15 25 19 30 19 14
0z m-1610 -9 c0 -2 -7 -7 -16 -10 -8 -3 -12 -2 -9 4 6 10 25 14 25 6z m50 -29
c0 -2 -9 -3 -20 -3 -11 0 -20 6 -20 13 0 11 5 11 20 3 11 -6 20 -12 20 -13z
m134 4 c3 -4 -4 -7 -14 -7 -11 0 -22 6 -24 12 -5 12 31 8 38 -5z m403 6 c0 -7
-9 -13 -19 -13 -18 0 -18 1 -2 13 10 7 18 13 19 13 1 0 2 -6 2 -13z m663 -13
c0 -3 -5 -2 -10 1 -6 4 -19 1 -28 -7 -15 -11 -15 -11 -5 3 7 9 9 19 5 24 -4 4
3 2 16 -4 12 -6 22 -14 22 -17z m-542 -7 c10 4 13 2 8 -5 -3 -6 3 -13 15 -17
11 -4 18 -9 16 -11 -7 -8 -77 29 -77 40 0 6 4 6 11 -1 6 -6 18 -9 27 -6z m408
4 c14 11 15 10 12 -7 -2 -14 3 -19 20 -18 29 1 28 -4 -4 -16 -14 -6 -24 -16
-21 -23 3 -8 -6 -12 -25 -13 -16 -1 -24 2 -18 6 8 5 6 12 -9 22 -19 14 -20 16
-5 22 10 4 14 12 10 22 -5 14 -4 15 9 4 12 -10 18 -10 31 1z m372 -27 c-13 -7
-17 -14 -9 -18 14 -9 15 -36 0 -36 -5 0 -7 5 -3 12 4 6 -1 17 -10 24 -16 11
-16 13 4 19 18 6 19 9 8 22 -12 15 -11 15 9 2 l23 -14 -22 -11z m52 32 c0 -3
-4 -8 -10 -11 -5 -3 -10 -1 -10 4 0 6 5 11 10 11 6 0 10 -2 10 -4z m-1805 -16
c-3 -5 -11 -10 -16 -10 -6 0 -7 5 -4 10 3 6 11 10 16 10 6 0 7 -4 4 -10z m375
-10 c0 -5 -5 -10 -11 -10 -5 0 -7 5 -4 10 3 6 8 10 11 10 2 0 4 -4 4 -10z
m567 -7 c-10 -10 13 -33 27 -27 7 3 13 -2 13 -11 0 -19 3 -19 -36 9 -21 16
-28 26 -19 29 19 8 22 8 15 0z m888 -3 c-3 -5 -12 -10 -18 -10 -7 0 -6 4 3 10
19 12 23 12 15 0z m-255 -20 c0 -5 -5 -10 -11 -10 -5 0 -7 5 -4 10 3 6 8 10
11 10 2 0 4 -4 4 -10z m217 -9 c-1 -11 -6 -17 -14 -14 -10 4 -11 9 -2 19 15
19 18 18 16 -5z m-1417 -1 c0 -5 -2 -10 -4 -10 -3 0 -8 5 -11 10 -3 6 -1 10 4
10 6 0 11 -4 11 -10z m306 -42 c-9 -5 -14 -14 -10 -20 4 -6 -2 -6 -15 1 -11 7
-21 14 -21 17 0 3 5 2 10 -1 18 -11 32 6 18 23 -12 14 -10 14 11 2 22 -11 22
-13 7 -22z m171 11 c2 -17 -1 -18 -13 -8 -13 11 -10 20 11 29 1 0 1 -9 2 -21z
m232 -7 c-17 -11 -18 -16 -8 -23 8 -5 9 -9 3 -9 -5 0 -19 6 -30 14 -19 14 -19
14 1 13 13 -1 20 4 19 14 -1 11 4 15 18 11 18 -4 18 -5 -3 -20z m177 11 c-1
-12 6 -17 19 -16 20 1 20 1 1 -13 -11 -8 -25 -14 -30 -14 -6 0 -5 4 3 9 10 7
8 12 -9 24 -15 11 -18 16 -8 20 22 9 26 8 24 -10z m229 11 c14 -6 13 -8 -6
-22 -17 -11 -18 -16 -8 -23 8 -5 9 -9 3 -9 -5 0 -19 7 -30 16 -10 8 -13 13 -6
9 7 -4 20 -1 28 6 12 10 12 14 2 20 -15 10 -6 12 17 3z m402 -18 c-7 -7 -24
-18 -37 -25 -23 -11 -23 -11 3 9 15 12 25 26 22 31 -4 5 1 6 9 3 12 -5 13 -8
3 -18z m-1457 4 c0 -5 -4 -10 -10 -10 -5 0 -10 5 -10 10 0 6 5 10 10 10 6 0
10 -4 10 -10z m1221 -7 c13 -17 13 -17 -6 -3 -11 8 -22 16 -24 17 -2 2 0 3 6
3 6 0 17 -8 24 -17z m-1541 3 c0 -3 -4 -8 -10 -11 -5 -3 -10 -1 -10 4 0 6 5
11 10 11 6 0 10 -2 10 -4z m754 -31 c-10 -8 -23 -14 -29 -14 -5 0 -1 6 9 14
11 8 24 15 30 15 5 0 1 -7 -10 -15z m831 5 c3 -6 -1 -7 -9 -4 -18 7 -21 14 -7
14 6 0 13 -4 16 -10z m-520 -10 c3 -5 -1 -10 -9 -10 -9 0 -16 5 -16 10 0 6 4
10 9 10 6 0 13 -4 16 -10z m395 0 c0 -5 -4 -10 -10 -10 -5 0 -10 5 -10 10 0 6
5 10 10 10 6 0 10 -4 10 -10z m-1553 -25 c0 -6 -8 -11 -17 -11 -9 0 -17 5 -17
11 0 6 8 11 17 11 9 0 17 -5 17 -11z m951 -1 c5 3 9 -1 9 -8 0 -8 -6 -12 -13
-9 -6 2 -15 0 -19 -6 -3 -6 -12 -11 -18 -11 -7 0 -3 7 7 15 11 8 14 15 8 15
-7 0 -12 5 -12 11 0 8 4 8 15 -1 8 -6 18 -9 23 -6z m407 6 c10 9 15 9 15 1 0
-6 -6 -11 -12 -12 -10 0 -10 -2 0 -6 6 -2 12 -9 12 -15 0 -6 -6 -6 -15 2 -8 6
-20 8 -27 4 -7 -4 -10 -4 -6 1 4 4 2 15 -5 24 -11 14 -10 14 6 2 14 -11 20
-11 32 -1z m400 0 c8 7 15 9 15 4 0 -5 -14 -17 -32 -27 -19 -11 -27 -13 -20
-4 9 10 8 17 -1 27 -10 12 -9 12 6 1 14 -11 20 -11 32 -1z m-987 -13 c8 -10 6
-13 -8 -14 -13 -1 -17 3 -13 13 6 17 8 17 21 1z m398 -3 c18 -15 18 -15 -3 -5
-27 14 -36 14 -28 1 3 -6 -1 -7 -10 -3 -13 5 -14 7 -3 14 18 12 21 11 44 -7z
m388 10 c20 -8 21 -21 1 -21 -8 0 -12 4 -9 9 3 4 0 8 -5 8 -6 0 -11 -4 -11 -8
0 -5 -7 -9 -16 -9 -14 0 -14 2 2 14 21 15 18 15 38 7z m-1424 -26 c0 -4 -4 -8
-9 -8 -6 0 -12 4 -15 8 -3 5 1 9 9 9 8 0 15 -4 15 -9z m130 2 c0 -5 -5 -10
-11 -10 -5 0 -7 5 -4 10 3 6 8 10 11 10 2 0 4 -4 4 -10z m69 -66 c1 -36 -2
-53 -9 -49 -12 7 -14 105 -2 105 5 0 10 -25 11 -56z m496 46 c3 -5 1 -10 -4
-10 -6 0 -11 5 -11 10 0 6 2 10 4 10 3 0 8 -4 11 -10z m235 2 c0 -5 -10 -14
-23 -19 -18 -9 -24 -8 -24 2 0 7 6 11 13 8 6 -2 15 0 19 6 7 13 15 14 15 3z
m206 -29 c-6 -6 -46 20 -46 30 0 4 11 0 25 -9 14 -9 24 -19 21 -21z m178 13
c-10 -8 -21 -12 -23 -10 -3 2 4 11 15 18 10 8 21 12 23 10 3 -2 -4 -11 -15
-18z m-1359 4 c3 -5 2 -10 -4 -10 -5 0 -13 5 -16 10 -3 6 -2 10 4 10 5 0 13
-4 16 -10z m1559 4 c9 -3 16 -11 16 -16 0 -6 -6 -5 -15 2 -8 6 -20 8 -26 4 -8
-4 -9 -3 -5 4 8 14 9 14 30 6z m191 -12 c-3 -3 -11 0 -18 7 -9 10 -8 11 6 5
10 -3 15 -9 12 -12z m-1645 -2 c0 -5 -4 -10 -10 -10 -5 0 -10 5 -10 10 0 6 5
10 10 10 6 0 10 -4 10 -10z m670 0 c0 -5 -2 -10 -4 -10 -3 0 -8 5 -11 10 -3 6
-1 10 4 10 6 0 11 -4 11 -10z m-780 -17 c0 -1 -8 -7 -18 -12 -13 -7 -19 -6
-19 2 0 7 9 13 19 13 10 0 18 -1 18 -3z m70 -7 l25 -14 -28 1 c-15 1 -29 8
-32 15 -6 15 4 15 35 -2z m590 -11 c0 -2 -7 -5 -15 -9 -9 -3 -15 0 -15 9 0 9
6 12 15 9 8 -4 15 -7 15 -9z m240 -12 c0 -3 -3 -3 -7 0 -8 9 -34 -13 -28 -24
3 -4 -3 -7 -14 -6 -20 1 -20 1 0 20 11 10 17 23 13 29 -4 6 2 6 15 -1 11 -7
21 -15 21 -18z m167 10 c10 -10 13 -14 6 -9 -8 5 -18 4 -26 -2 -10 -8 -13 -6
-13 9 0 24 8 24 33 2z m390 9 c9 -5 6 -12 -10 -21 -20 -13 -21 -13 -9 1 10 13
10 17 0 21 -7 3 -8 6 -3 6 6 0 15 -3 22 -7z m233 -8 c0 -8 -5 -12 -10 -9 -6 4
-8 11 -5 16 9 14 15 11 15 -7z m-840 -4 c0 -5 -4 -10 -10 -10 -5 0 -10 5 -10
10 0 6 5 10 10 10 6 0 10 -4 10 -10z m400 0 c0 -5 -7 -10 -16 -10 -8 0 -12 5
-9 10 3 6 10 10 16 10 5 0 9 -4 9 -10z m40 0 c0 -5 -7 -10 -16 -10 -8 0 -12 5
-9 10 3 6 10 10 16 10 5 0 9 -4 9 -10z m365 1 c3 -6 -3 -9 -14 -8 -11 0 -17 5
-15 9 7 11 22 10 29 -1z m-1675 -34 c0 -5 -6 -6 -12 -3 -7 3 -21 9 -30 12 -10
4 -18 10 -18 14 0 5 14 3 30 -3 17 -6 30 -15 30 -20z m50 29 c0 -2 -7 -7 -16
-10 -8 -3 -12 -2 -9 4 6 10 25 14 25 6z m1465 -6 c3 -5 1 -10 -4 -10 -6 0 -11
5 -11 10 0 6 2 10 4 10 3 0 8 -4 11 -10z m-1359 -15 c9 -8 11 -15 5 -15 -6 0
-11 -7 -11 -15 0 -9 -6 -12 -15 -9 -12 5 -13 10 -4 20 6 7 8 18 4 24 -9 15 4
12 21 -5z m1144 0 c0 -2 -10 -10 -22 -16 -21 -11 -22 -11 -9 4 13 16 31 23 31
12z m390 -5 c0 -5 -5 -10 -11 -10 -5 0 -7 5 -4 10 3 6 8 10 11 10 2 0 4 -4 4
-10z m104 -11 c5 -4 -3 -15 -18 -24 -19 -13 -30 -15 -38 -7 -7 7 -5 10 8 9 13
-1 20 6 22 21 2 13 7 20 10 15 4 -4 11 -11 16 -14z m-1204 -4 c0 -2 -7 -5 -15
-9 -9 -3 -15 0 -15 9 0 9 6 12 15 9 8 -4 15 -7 15 -9z m204 4 c-3 -6 -1 -15 6
-19 9 -5 8 -8 -2 -12 -9 -4 -14 2 -16 18 -1 13 3 24 9 24 5 0 7 -5 3 -11z
m185 -17 c-21 -15 -21 -16 -4 -29 11 -7 15 -13 9 -13 -5 0 -20 9 -34 19 -22
17 -22 19 -5 18 13 -1 20 4 19 14 -1 11 4 15 18 11 18 -4 18 -5 -3 -20z m417
12 c10 -8 13 -13 6 -9 -6 3 -19 -1 -28 -9 -8 -9 -11 -16 -5 -16 6 0 11 -5 11
-10 0 -6 -8 -5 -19 2 -18 11 -18 13 -4 23 9 7 13 17 9 23 -10 17 7 15 30 -4z
m-201 -13 l24 -18 -27 -12 c-24 -10 -25 -10 -9 3 17 13 17 15 -5 30 -12 9 -19
16 -14 16 4 0 18 -8 31 -19z m395 4 c7 -9 19 -14 27 -11 21 8 15 -2 -8 -15
-13 -7 -19 -7 -15 -1 3 6 -4 18 -16 26 -12 9 -17 16 -11 16 6 0 16 -7 23 -15z
m-1500 -21 c0 -2 -9 -4 -20 -4 -11 0 -20 4 -20 9 0 5 9 7 20 4 11 -3 20 -7 20
-9z m460 6 c0 -5 -4 -10 -10 -10 -5 0 -10 5 -10 10 0 6 5 10 10 10 6 0 10 -4
10 -10z m135 -20 c10 16 25 12 19 -5 -4 -8 -1 -15 6 -15 15 0 -6 -22 -37 -38
-29 -16 -34 -15 -27 3 4 9 1 15 -7 15 -8 0 -6 5 6 13 12 9 15 19 10 28 -7 12
-6 12 7 1 11 -9 18 -10 23 -2z m422 -21 c21 -15 21 -18 6 -23 -10 -4 -14 -4
-10 0 9 9 -12 36 -23 29 -4 -3 -13 2 -20 10 -11 13 -10 14 6 9 10 -4 29 -15
41 -25z m363 18 c0 -7 -5 -18 -11 -24 -8 -8 -5 -13 10 -18 27 -8 42 1 34 22
-6 15 -5 16 9 3 14 -13 14 -16 0 -26 -9 -6 -12 -16 -7 -23 6 -10 3 -11 -12 -2
-15 7 -23 7 -32 -2 -10 -9 -11 -8 -6 5 5 12 1 20 -9 24 -15 6 -15 7 0 19 9 6
14 17 10 23 -4 7 -2 12 3 12 6 0 11 -6 11 -13z m-180 -17 c0 -5 -7 -7 -15 -4
-8 4 -15 8 -15 10 0 2 7 4 15 4 8 0 15 -4 15 -10z m-235 -9 c-3 -6 2 -14 10
-19 15 -8 15 -10 0 -22 -13 -11 -15 -10 -9 4 4 10 0 18 -11 22 -13 5 -14 9 -3
15 17 11 20 11 13 0z m-971 -19 c2 -4 -5 -9 -17 -9 -17 -2 -19 0 -7 7 18 12
18 12 24 2z m806 -2 c0 -5 -7 -10 -16 -10 -8 0 -12 5 -9 10 3 6 10 10 16 10 5
0 9 -4 9 -10z m405 0 c3 -5 1 -10 -4 -10 -6 0 -11 5 -11 10 0 6 2 10 4 10 3 0
8 -4 11 -10z m-498 -51 c-15 -12 -17 -18 -8 -19 8 0 12 -2 9 -5 -3 -3 -13 -3
-22 1 -15 6 -15 7 1 19 15 11 15 15 3 29 -12 16 -11 16 13 5 l26 -12 -22 -18z
m180 27 c-17 -13 -17 -15 3 -29 20 -14 20 -15 1 -20 -14 -3 -18 -1 -14 9 3 8
-2 17 -11 20 -15 6 -15 8 1 20 10 7 23 13 28 13 6 0 2 -6 -8 -13z m225 1 c15
-12 15 -14 -2 -25 -16 -10 -18 -9 -13 4 3 9 0 20 -8 25 -8 5 -9 9 -4 9 6 -1
18 -6 27 -13z m170 -4 c-9 -4 -7 -10 8 -23 18 -15 18 -19 5 -24 -9 -3 -14 -2
-11 3 8 13 -21 34 -36 26 -7 -4 -2 2 12 13 14 12 27 18 30 15 3 -3 -1 -8 -8
-10z m222 -25 c-12 -10 -26 -18 -30 -18 -5 0 1 7 13 15 15 10 20 21 16 32 -6
15 -5 16 9 3 13 -13 13 -16 -8 -32z m-1026 20 c-2 -8 6 -12 17 -11 l20 2 -20
-15 c-18 -13 -20 -13 -23 1 -3 10 -10 14 -20 11 -13 -5 -12 -2 2 9 24 18 27
19 24 3z m-161 -9 c-9 -6 -15 -14 -12 -20 3 -5 -1 -6 -11 -2 -16 6 -15 7 2 20
10 7 23 13 28 13 6 0 3 -5 -7 -11z m1372 -8 c17 -15 18 -20 7 -24 -9 -4 -16 2
-19 15 -4 14 -11 19 -22 14 -9 -3 -13 -2 -10 4 9 14 19 12 44 -9z m-893 -38
c-10 -10 -19 5 -10 18 6 11 8 11 12 0 2 -7 1 -15 -2 -18z m409 -1 c-8 -8 -25
10 -19 20 4 6 9 5 15 -3 4 -7 6 -15 4 -17z m413 -18 c13 -9 12 -12 -8 -17 -12
-3 -20 -3 -17 0 3 3 2 15 -3 28 -5 13 -6 26 -2 30 4 4 9 -1 11 -11 2 -10 10
-24 19 -30z m-1438 16 c0 -11 6 -20 13 -21 10 0 10 -2 0 -6 -7 -2 -13 -16 -13
-29 0 -13 -5 -24 -10 -24 -7 0 -10 20 -9 50 2 28 6 50 11 50 4 0 8 -9 8 -20z
m417 -12 c7 20 22 14 16 -7 -4 -17 -9 -18 -29 -9 -13 6 -24 16 -24 21 0 5 7 3
17 -4 13 -11 17 -11 20 -1z m408 2 c8 7 15 8 15 3 0 -5 -16 -16 -35 -25 -26
-12 -33 -12 -24 -2 6 7 7 19 3 26 -6 10 -3 9 9 -1 14 -11 20 -11 32 -1z m393
-16 c1 0 -10 -6 -25 -13 -24 -10 -26 -9 -11 2 14 11 15 16 5 27 -9 11 -8 11 8
0 11 -8 21 -15 23 -16z m-578 8 c0 -5 -13 -9 -30 -9 -16 0 -30 3 -30 7 0 3 14
7 30 8 17 1 30 -2 30 -6z m400 0 c0 -5 -13 -9 -30 -9 -16 0 -30 4 -30 9 0 4
14 8 30 8 17 0 30 -4 30 -8z m360 -2 c0 -5 -4 -10 -10 -10 -5 0 -10 5 -10 10
0 6 5 10 10 10 6 0 10 -4 10 -10z m-1673 -32 c2 -17 0 -19 -7 -8 -5 8 -6 18
-4 22 8 12 10 10 11 -14z m1781 -14 c2 -1 -5 -5 -15 -8 -9 -4 -14 -4 -10 0 4
4 1 14 -6 23 -11 14 -10 15 8 1 11 -8 21 -15 23 -16z m-1811 3 c0 -7 -9 -13
-19 -13 -18 0 -18 1 -2 13 10 7 18 13 19 13 1 0 2 -6 2 -13z m623 -8 l25 -20
-32 16 c-18 8 -33 18 -33 20 0 10 16 4 40 -16z m200 1 c-24 -15 -36 -11 -14 4
10 8 21 12 24 10 2 -3 -2 -9 -10 -14z m194 5 c11 -8 15 -15 10 -15 -6 0 -19 7
-30 15 -10 8 -14 14 -9 14 6 0 19 -6 29 -14z m216 6 c0 -15 -32 -23 -44 -11
-8 8 -6 9 5 5 10 -4 20 -2 24 4 8 13 15 14 15 2z m196 -18 c-6 -6 -36 9 -36
18 0 5 9 4 20 -3 10 -7 18 -14 16 -15z m204 18 c0 -15 -32 -23 -44 -11 -8 8
-6 9 5 5 10 -4 20 -2 24 4 8 13 15 14 15 2z m-1535 -41 c-3 -5 -10 -10 -16
-10 -5 0 -9 5 -9 10 0 6 7 10 16 10 8 0 12 -4 9 -10z m400 -4 c12 -12 12 -15
-2 -21 -10 -3 -14 -3 -10 1 4 4 2 13 -4 21 -15 17 -1 17 16 -1z m400 3 c4 -6
14 -8 22 -5 8 3 11 1 8 -4 -3 -6 -1 -10 4 -10 6 0 11 -5 11 -11 0 -8 -5 -8
-15 1 -12 10 -18 10 -30 0 -10 -9 -15 -9 -15 -1 0 6 5 11 12 11 6 0 3 7 -8 15
-10 8 -14 15 -7 15 6 0 15 -5 18 -11z m441 -4 c-11 -8 -14 -15 -8 -15 7 0 12
-5 12 -11 0 -8 -5 -7 -15 1 -12 10 -19 10 -27 2 -7 -7 -17 -12 -22 -12 -6 0
-3 5 7 11 9 6 15 14 12 20 -3 5 0 6 8 3 8 -3 18 -1 22 5 3 6 12 11 18 11 7 0
3 -7 -7 -15z m366 -22 c-9 -7 -21 -12 -27 -12 -5 0 -2 4 8 10 15 9 16 13 5 26
-12 15 -11 15 9 3 20 -13 20 -15 5 -27z m-974 18 c22 8 23 8 12 -5 -15 -20
-60 -17 -60 3 0 11 3 12 11 4 8 -8 19 -9 37 -2z m385 -11 c4 0 6 4 3 8 -3 5 1
9 9 9 19 0 19 -13 0 -21 -19 -7 -45 3 -45 17 0 7 4 7 12 -1 7 -7 16 -12 21
-12z m392 9 c-9 -13 9 -11 23 3 8 8 12 8 12 1 0 -17 -29 -24 -51 -13 -24 13
-24 15 1 17 11 1 18 -2 15 -8z m395 -1 c0 -4 -4 -8 -9 -8 -6 0 -12 4 -15 8 -3
5 1 9 9 9 8 0 15 -4 15 -9z m-1765 -8 c3 -5 1 -10 -4 -10 -6 0 -11 5 -11 10 0
6 2 10 4 10 3 0 8 -4 11 -10z m405 -10 c0 -5 -2 -10 -4 -10 -3 0 -8 5 -11 10
-3 6 -1 10 4 10 6 0 11 -4 11 -10z m180 -20 c0 -5 -4 -10 -9 -10 -6 0 -13 5
-16 10 -3 6 1 10 9 10 9 0 16 -4 16 -10z m302 -7 c-10 -4 -10 -8 0 -21 12 -14
11 -14 -9 -2 -20 13 -20 15 -5 26 9 7 19 10 22 7 3 -3 -1 -8 -8 -10z m98 7 c0
-5 -4 -10 -10 -10 -5 0 -10 5 -10 10 0 6 5 10 10 10 6 0 10 -4 10 -10z m308
-4 c-14 -10 -15 -15 -5 -26 10 -12 9 -12 -5 -1 -9 7 -23 10 -30 6 -7 -4 -2 3
12 14 14 11 30 21 35 20 6 0 2 -5 -7 -13z m92 4 c0 -5 -4 -10 -10 -10 -5 0
-10 5 -10 10 0 6 5 10 10 10 6 0 10 -4 10 -10z m-1293 -7 c-4 -3 -2 -12 4 -20
7 -8 8 -13 1 -13 -5 0 -15 6 -21 14 -9 11 -9 15 1 19 19 8 22 8 15 0z m1587
-9 c9 -3 16 -11 16 -16 0 -6 -6 -5 -15 2 -8 6 -20 8 -26 4 -8 -4 -9 -3 -5 4 8
14 9 14 30 6z"/>
<path d="M1175 1700 c-8 -13 20 -24 41 -16 20 8 9 26 -16 26 -10 0 -22 -5 -25
-10z"/>
<path d="M386 771 c-4 -7 -5 -15 -2 -18 9 -9 19 4 14 18 -4 11 -6 11 -12 0z"/>
<path d="M1382 661 c-10 -6 -10 -10 3 -21 12 -10 18 -10 30 0 26 22 -3 41 -33
21z"/>
<path d="M786 317 c-14 -10 -16 -16 -7 -22 15 -9 35 8 30 24 -3 8 -10 7 -23
-2z"/>
<path d="M580 1966 c0 -24 7 -38 23 -49 21 -14 21 -15 2 -14 -16 2 -21 -5 -23
-30 -2 -20 1 -33 8 -33 6 0 8 -4 5 -10 -8 -13 23 -1 57 22 14 10 29 18 32 18
3 0 28 14 56 31 44 27 50 35 50 65 0 29 -4 34 -23 34 -27 0 -70 -28 -62 -41 3
-5 -1 -6 -11 -2 -15 5 -15 7 0 15 32 18 15 28 -49 28 l-65 0 0 -34z"/>
<path d="M1982 1701 c-11 -7 -11 -9 2 -14 10 -4 16 -1 16 8 0 17 -1 17 -18 6z"/>
<path d="M600 200 c0 -5 5 -10 11 -10 5 0 7 5 4 10 -3 6 -8 10 -11 10 -2 0 -4
-4 -4 -10z"/>
</g>
</svg>
