<?xml version="1.0" standalone="no"?>
<!DOCTYPE svg PUBLIC "-//W3C//DTD SVG 20010904//EN"
 "http://www.w3.org/TR/2001/REC-SVG-20010904/DTD/svg10.dtd">
<svg version="1.0" xmlns="http://www.w3.org/2000/svg"
 width="200.000000pt" height="200.000000pt" viewBox="0 0 200.000000 200.000000"
 preserveAspectRatio="xMidYMid meet">
<metadata>
Created by potrace 1.16, written by Peter Selinger 2001-2019
</metadata>
<g transform="translate(0.000000,200.000000) scale(0.100000,-0.100000)"
fill="#000000" stroke="none">
<path d="M0 1967 c0 -18 6 -39 13 -46 10 -11 10 -13 0 -7 -10 6 -13 -41 -13
-219 0 -178 3 -225 13 -219 10 6 10 4 0 -7 -9 -9 -13 -49 -13 -122 0 -93 3
-112 18 -123 16 -13 16 -14 -1 -8 -16 6 -17 -9 -17 -216 0 -207 1 -222 18
-216 16 6 16 5 0 -8 -15 -11 -18 -30 -18 -123 0 -73 4 -113 13 -122 9 -11 9
-13 0 -7 -10 6 -13 -41 -13 -219 0 -178 3 -225 12 -219 11 6 11 4 0 -7 -6 -7
-12 -28 -12 -46 l0 -33 194 0 c146 0 196 3 199 13 4 9 6 9 6 0 1 -10 47 -13
196 -13 l195 0 0 38 c0 34 -4 39 -50 65 -28 16 -50 30 -50 33 0 3 25 -9 55
-26 45 -26 58 -29 77 -20 l23 11 -22 -17 c-16 -11 -23 -27 -23 -50 l0 -34 585
0 585 0 0 26 c0 15 -8 33 -17 41 -16 13 -16 13 5 3 15 -7 22 -20 22 -40 0 -17
5 -30 10 -30 6 0 10 25 10 55 0 30 -4 55 -8 55 -5 0 -17 7 -28 16 -18 15 -18
15 3 5 12 -6 24 -11 27 -11 3 0 6 401 6 891 0 844 -1 891 -17 885 -17 -6 -17
-5 0 8 11 9 17 27 17 55 l0 41 -185 0 -185 0 0 -29 c0 -16 8 -35 18 -42 15
-13 15 -13 -3 -3 -12 7 -21 24 -23 43 -4 42 -22 40 -22 -3 0 -23 7 -39 23 -50
l22 -17 -23 11 c-20 10 -36 4 -115 -42 l-92 -53 -3 -120 -2 -120 97 -54 c54
-30 93 -56 87 -58 -6 -2 -50 19 -98 47 -48 27 -92 50 -98 50 -5 0 -50 -24 -98
-52 l-90 -53 0 -106 c0 -99 2 -108 23 -124 21 -16 21 -16 -5 -1 -17 10 -29 12
-33 6 -3 -5 -16 -15 -28 -20 -16 -8 -14 -5 5 10 28 21 28 24 28 130 l0 109
-107 61 c-60 33 -104 60 -99 60 6 0 53 -25 107 -55 53 -30 99 -55 102 -55 3 0
49 25 101 56 l96 56 0 113 0 114 -99 56 c-86 49 -103 55 -123 45 l-23 -11 23
17 c15 11 22 27 22 50 l0 34 -399 0 c-310 0 -400 -3 -404 -12 -4 -10 -6 -10
-6 0 -1 9 -47 12 -196 12 l-195 0 0 -33z m1980 -26 c0 -5 -7 -12 -16 -15 -14
-5 -15 -4 -4 9 14 17 20 19 20 6z m-1490 -68 c0 -2 -22 8 -50 24 -27 15 -50
31 -50 35 0 4 23 -7 50 -24 28 -17 50 -33 50 -35z m336 41 c18 -14 18 -15 -3
-4 -18 8 -30 7 -53 -5 -38 -19 -40 -11 -2 9 34 19 34 19 58 0z m-446 1 c0 -2
-10 -9 -22 -15 -22 -11 -22 -10 -4 4 21 17 26 19 26 11z m1555 -4 c-16 -14
-105 -63 -105 -58 0 5 101 66 110 67 2 0 0 -4 -5 -9z m-1865 -27 c0 -2 -9 0
-20 6 -11 6 -20 13 -20 16 0 2 9 0 20 -6 11 -6 20 -13 20 -16z m1670 -10 c0
-2 -13 2 -30 11 -16 9 -30 18 -30 21 0 2 14 -2 30 -11 17 -9 30 -18 30 -21z
m-590 21 c0 -2 -13 -11 -30 -20 -38 -19 -40 -11 -2 9 31 17 32 18 32 11z
m-820 -10 c0 -2 -13 -11 -30 -20 -38 -19 -40 -11 -2 9 31 17 32 18 32 11z
m395 -4 c-16 -14 -105 -63 -105 -58 0 5 101 66 110 67 2 0 0 -4 -5 -9z m985
-17 c0 -2 -9 0 -20 6 -11 6 -20 13 -20 16 0 2 9 0 20 -6 11 -6 20 -13 20 -16z
m230 11 c0 -2 -10 -9 -22 -15 -22 -11 -22 -10 -4 4 21 17 26 19 26 11z m-1800
-31 c0 -2 -9 0 -20 6 -11 6 -20 13 -20 16 0 2 9 0 20 -6 11 -6 20 -13 20 -16z
m420 -10 c0 -2 -13 2 -30 11 -16 9 -30 18 -30 21 0 2 14 -2 30 -11 17 -9 30
-18 30 -21z m1230 10 c0 -2 -9 0 -20 6 -11 6 -20 13 -20 16 0 2 9 0 20 -6 11
-6 20 -13 20 -16z m-830 -10 c0 -2 -9 0 -20 6 -11 6 -20 13 -20 16 0 2 9 0 20
-6 11 -6 20 -13 20 -16z m120 21 c0 -2 -13 -11 -30 -20 -38 -19 -40 -11 -2 9
31 17 32 18 32 11z m-820 -9 c0 -2 -15 -13 -33 -24 -33 -19 -34 -19 -58 0
l-24 19 26 -12 c21 -9 32 -8 55 5 32 17 34 18 34 12z m1610 -11 c0 -2 -10 -9
-22 -15 -22 -11 -22 -10 -4 4 21 17 26 19 26 11z m-1269 -23 c-7 -2 -18 1 -23
6 -8 8 -4 9 13 5 13 -4 18 -8 10 -11z m400 0 c-7 -2 -18 1 -23 6 -8 8 -4 9 13
5 13 -4 18 -8 10 -11z m816 -22 c2 -25 -13 -18 -20 9 -3 12 0 18 7 15 6 -2 12
-14 13 -24z m-1620 -82 c-2 -18 -4 -6 -4 27 0 33 2 48 4 33 2 -15 2 -42 0 -60z
m400 40 c-3 -7 -5 -2 -5 12 0 14 2 19 5 13 2 -7 2 -19 0 -25z m1219 -38 c1
-22 -3 -37 -7 -34 -5 3 -9 24 -9 46 0 52 14 41 16 -12z m-1619 -87 c-3 -10 -5
-4 -5 12 0 17 2 24 5 18 2 -7 2 -21 0 -30z m1620 -2 c0 -22 -5 -42 -11 -44 -7
-3 -10 10 -7 39 4 55 18 58 18 5z m-1489 -117 c4 -4 -24 10 -62 31 l-70 38
-50 -28 c-60 -33 -57 -26 5 14 l44 27 63 -37 c35 -20 66 -41 70 -45z m402 0
c0 -3 -29 11 -65 31 -38 22 -72 34 -82 31 -13 -5 -14 -4 -4 8 10 12 22 8 82
-26 38 -22 69 -42 69 -44z m1140 50 c0 -2 -9 0 -20 6 -11 6 -20 13 -20 16 0 2
9 0 20 -6 11 -6 20 -13 20 -16z m-890 11 c0 -2 -13 -11 -30 -20 -38 -19 -40
-11 -2 9 31 17 32 18 32 11z m800 0 c0 -2 -10 -9 -22 -15 -22 -11 -22 -10 -4
4 21 17 26 19 26 11z m-1220 -10 c0 -2 -10 -9 -22 -15 -22 -11 -22 -10 -4 4
21 17 26 19 26 11z m1249 -9 c-2 -2 -15 -9 -29 -15 -24 -11 -24 -11 -6 3 16
13 49 24 35 12z m111 -22 c0 -2 -9 0 -20 6 -11 6 -20 13 -20 16 0 2 9 0 20 -6
11 -6 20 -13 20 -16z m-1010 1 c0 -2 -13 -11 -30 -20 -38 -19 -40 -11 -2 9 31
17 32 18 32 11z m800 0 c0 -2 -10 -9 -22 -15 -22 -11 -22 -10 -4 4 21 17 26
19 26 11z m170 -21 c0 -2 -9 0 -20 6 -11 6 -20 13 -20 16 0 2 9 0 20 -6 11 -6
20 -13 20 -16z m-1790 11 c0 -2 -13 -11 -30 -20 -38 -19 -40 -11 -2 9 31 17
32 18 32 11z m400 1 c0 -6 -87 -56 -97 -56 -4 0 15 14 42 30 53 31 55 32 55
26z m1240 -11 c0 -2 -10 -9 -22 -15 -22 -11 -22 -10 -4 4 21 17 26 19 26 11z
m260 -21 c0 -2 -9 0 -20 6 -11 6 -20 13 -20 16 0 2 9 0 20 -6 11 -6 20 -13 20
-16z m-1610 -10 c0 -2 -9 0 -20 6 -11 6 -20 13 -20 16 0 2 9 0 20 -6 11 -6 20
-13 20 -16z m400 0 c0 -2 -9 0 -20 6 -11 6 -20 13 -20 16 0 2 9 0 20 -6 11 -6
20 -13 20 -16z m50 4 c-8 -7 -21 -19 -27 -27 -11 -13 -13 -13 -13 1 0 8 10 20
23 26 30 14 34 14 17 0z m805 2 c-3 -5 -12 -10 -18 -10 -7 0 -6 4 3 10 19 12
23 12 15 0z m315 -16 c0 -2 -9 0 -20 6 -11 6 -20 13 -20 16 0 2 9 0 20 -6 11
-6 20 -13 20 -16z m-295 -4 c-3 -5 -12 -10 -18 -10 -7 0 -6 4 3 10 19 12 23
12 15 0z m323 -41 c-3 -20 -5 -19 -9 9 -3 20 -2 29 4 23 5 -5 7 -19 5 -32z
m-1581 -66 c-2 -16 -4 -5 -4 22 0 28 2 40 4 28 2 -13 2 -35 0 -50z m1230 -25
c-3 -8 -6 -5 -6 6 -1 11 2 17 5 13 3 -3 4 -12 1 -19z m350 -10 c-3 -8 -6 -5
-6 6 -1 11 2 17 5 13 3 -3 4 -12 1 -19z m-1580 -50 c-2 -13 -4 -5 -4 17 -1 22
1 32 4 23 2 -10 2 -28 0 -40z m1583 -12 c0 -8 -7 -16 -15 -20 -12 -4 -13 -2
-2 14 14 24 17 25 17 6z m-339 -13 c13 -16 12 -17 -3 -4 -17 13 -22 21 -14 21
2 0 10 -8 17 -17z m-1114 -82 l72 -42 83 47 c46 26 90 53 98 60 12 10 33 2
118 -48 57 -33 101 -63 98 -66 -3 -2 -46 18 -96 47 -49 28 -95 51 -101 51 -6
0 -49 -22 -96 -50 -47 -27 -89 -50 -93 -50 -5 0 -11 -17 -13 -37 l-4 -38 -1
40 c-2 40 -3 41 -95 93 -52 28 -97 52 -101 52 -4 0 -50 -25 -102 -56 l-94 -55
0 -109 0 -109 94 -55 c52 -31 98 -56 102 -56 4 0 52 25 107 56 114 65 99 65
231 -14 l64 -39 68 39 c38 21 81 48 96 58 15 11 29 16 33 11 3 -5 -41 -36 -98
-68 l-102 -59 -60 37 c-33 21 -66 43 -72 49 -7 6 -13 8 -13 5 0 -3 -11 2 -25
11 -24 15 -27 14 -125 -42 -72 -43 -100 -64 -101 -79 -1 -18 -2 -18 -7 3 -5
15 -38 41 -100 77 -79 46 -97 53 -115 44 -20 -9 -20 -9 -4 4 14 12 17 32 17
127 0 95 -3 115 -17 127 -17 13 -16 13 3 4 17 -8 38 0 120 48 l99 58 30 -17
c17 -10 62 -36 102 -59z m1063 74 c0 -2 -10 -9 -22 -15 -22 -11 -22 -10 -4 4
21 17 26 19 26 11z m350 -10 c0 -2 -10 -9 -22 -15 -22 -11 -22 -10 -4 4 21 17
26 19 26 11z m-220 -31 c0 -2 -9 0 -20 6 -11 6 -20 13 -20 16 0 2 9 0 20 -6
11 -6 20 -13 20 -16z m-1620 -20 c0 -2 -13 2 -30 11 -16 9 -30 18 -30 21 0 2
14 -2 30 -11 17 -9 30 -18 30 -21z m1440 31 c0 -2 -13 -11 -30 -20 -38 -19
-40 -11 -2 9 31 17 32 18 32 11z m-220 -31 c0 -2 -9 0 -20 6 -11 6 -20 13 -20
16 0 2 9 0 20 -6 11 -6 20 -13 20 -16z m570 21 c0 -2 -10 -9 -22 -15 -22 -11
-22 -10 -4 4 21 17 26 19 26 11z m-770 -10 c0 -2 -10 -9 -22 -15 -22 -11 -22
-10 -4 4 21 17 26 19 26 11z m50 0 c0 -2 -13 -11 -30 -20 -38 -19 -40 -11 -2
9 31 17 32 18 32 11z m120 -31 c0 -2 -13 2 -30 11 -16 9 -30 18 -30 21 0 2 14
-2 30 -11 17 -9 30 -18 30 -21z m336 20 c18 -14 18 -15 -4 -4 -12 6 -28 8 -34
4 -7 -4 -8 -3 -4 4 10 16 18 15 42 -4z m164 -20 c0 -2 -9 0 -20 6 -11 6 -20
13 -20 16 0 2 9 0 20 -6 11 -6 20 -13 20 -16z m-1640 -10 c0 -2 -9 0 -20 6
-11 6 -20 13 -20 16 0 2 9 0 20 -6 11 -6 20 -13 20 -16z m1320 21 c0 -2 -10
-9 -22 -15 -22 -11 -22 -10 -4 4 21 17 26 19 26 11z m-80 -31 c0 -2 -9 0 -20
6 -11 6 -20 13 -20 16 0 2 9 0 20 -6 11 -6 20 -13 20 -16z m600 21 c0 -2 -10
-9 -22 -15 -22 -11 -22 -10 -4 4 21 17 26 19 26 11z m-940 -10 c0 -2 -10 -9
-22 -15 -22 -11 -22 -10 -4 4 21 17 26 19 26 11z m50 1 c0 -2 -16 -13 -34 -24
-32 -19 -35 -25 -39 -74 l-3 -53 -2 56 c-2 54 -1 56 36 77 40 23 42 24 42 18z
m260 -32 c0 -2 -9 0 -20 6 -11 6 -20 13 -20 16 0 2 9 0 20 -6 11 -6 20 -13 20
-16z m120 1 c0 -2 -10 -9 -22 -15 -22 -11 -22 -10 -4 4 21 17 26 19 26 11z
m440 0 c0 -2 -10 -9 -22 -15 -22 -11 -22 -10 -4 4 21 17 26 19 26 11z m-151
-44 c-2 -6 -10 2 -17 17 -11 25 -11 25 4 10 9 -9 15 -21 13 -27z m-2 -53 c-3
-7 -5 -2 -5 12 0 14 2 19 5 13 2 -7 2 -19 0 -25z m-1165 -40 c-1 -23 -4 -44
-7 -46 -3 -3 -4 18 -4 47 1 28 4 49 7 46 3 -3 5 -24 4 -47z m775 10 c-3 -8 -6
-5 -6 6 -1 11 2 17 5 13 3 -3 4 -12 1 -19z m390 -20 c-3 -7 -5 -2 -5 12 0 14
2 19 5 13 2 -7 2 -19 0 -25z m0 -40 c-3 -8 -6 -5 -6 6 -1 11 2 17 5 13 3 -3 4
-12 1 -19z m-725 -36 c8 -9 7 -11 -6 -6 -10 4 -16 16 -15 33 1 20 2 22 6 6 3
-11 10 -26 15 -33z m438 -8 c0 -2 -9 0 -20 6 -11 6 -20 13 -20 16 0 2 9 0 20
-6 11 -6 20 -13 20 -16z m440 0 c0 -2 -9 0 -20 6 -11 6 -20 13 -20 16 0 2 9 0
20 -6 11 -6 20 -13 20 -16z m-540 12 c0 -2 -7 -7 -16 -10 -8 -3 -12 -2 -9 4 6
10 25 14 25 6z m-280 -42 c0 -2 -9 0 -20 6 -11 6 -20 13 -20 16 0 2 9 0 20 -6
11 -6 20 -13 20 -16z m240 21 c0 -2 -10 -9 -22 -15 -22 -11 -22 -10 -4 4 21
17 26 19 26 11z m60 1 c0 -2 -7 -7 -16 -10 -8 -3 -12 -2 -9 4 6 10 25 14 25 6z
m-330 -32 c0 -2 -9 0 -20 6 -11 6 -20 13 -20 16 0 2 9 0 20 -6 11 -6 20 -13
20 -16z m480 0 c0 -2 -9 0 -20 6 -11 6 -20 13 -20 16 0 2 9 0 20 -6 11 -6 20
-13 20 -16z m290 0 c0 -2 -9 0 -20 6 -11 6 -20 13 -20 16 0 2 9 0 20 -6 11 -6
20 -13 20 -16z m150 0 c0 -2 -9 0 -20 6 -11 6 -20 13 -20 16 0 2 9 0 20 -6 11
-6 20 -13 20 -16z m-1840 11 c0 -2 -13 -11 -30 -20 -38 -19 -40 -11 -2 9 31
17 32 18 32 11z m1140 -10 c0 -2 -10 -9 -22 -15 -22 -11 -22 -10 -4 4 21 17
26 19 26 11z m50 0 c0 -2 -10 -9 -22 -15 -22 -11 -22 -10 -4 4 21 17 26 19 26
11z m160 -21 c0 -2 -9 0 -20 6 -11 6 -20 13 -20 16 0 2 9 0 20 -6 11 -6 20
-13 20 -16z m160 21 c0 -2 -14 -12 -31 -21 -25 -12 -34 -13 -43 -3 -8 9 -8 10
1 5 7 -4 25 0 40 8 32 17 33 18 33 11z m110 0 c0 -2 -10 -9 -22 -15 -22 -11
-22 -10 -4 4 21 17 26 19 26 11z m-600 -31 c0 -2 -9 0 -20 6 -11 6 -20 13 -20
16 0 2 9 0 20 -6 11 -6 20 -13 20 -16z m740 -10 c0 -2 -9 0 -20 6 -11 6 -20
13 -20 16 0 2 9 0 20 -6 11 -6 20 -13 20 -16z m-1830 11 c0 -2 -10 -9 -22 -15
-22 -11 -22 -10 -4 4 21 17 26 19 26 11z m1210 0 c0 -2 -10 -9 -22 -15 -22
-11 -22 -10 -4 4 21 17 26 19 26 11z m410 -10 c0 -2 -10 -9 -22 -15 -22 -11
-22 -10 -4 4 21 17 26 19 26 11z m-493 -32 c4 3 8 -49 8 -116 l0 -121 93 -53
c73 -43 96 -52 111 -44 19 11 34 4 25 -10 -2 -4 -12 -5 -21 -2 -11 4 -14 3 -9
-5 11 -18 -18 -5 -121 56 l-92 53 -83 -47 c-46 -26 -90 -54 -100 -61 -9 -8
-19 -10 -22 -5 -3 5 7 15 22 21 15 7 62 33 105 58 l78 46 -2 106 c-1 82 -5
111 -18 126 -15 18 -15 19 1 6 9 -7 21 -11 25 -8z m781 -69 l-3 -49 -5 57 c-3
31 -1 53 3 49 5 -5 7 -30 5 -57z m-1591 -6 c-3 -8 -6 -5 -6 6 -1 11 2 17 5 13
3 -3 4 -12 1 -19z m1590 -135 c-2 -16 -4 -5 -4 22 0 28 2 40 4 28 2 -13 2 -35
0 -50z m-1590 25 c-3 -7 -5 -2 -5 12 0 14 2 19 5 13 2 -7 2 -19 0 -25z m27
-61 c21 -17 21 -17 -6 -6 -18 8 -28 19 -27 33 0 14 2 16 6 6 3 -8 15 -23 27
-33z m402 -3 c18 -14 18 -15 -3 -4 -18 8 -30 7 -53 -5 -38 -19 -40 -11 -2 9
34 19 34 19 58 0z m1144 11 c0 -2 -10 -9 -22 -15 -22 -11 -22 -10 -4 4 21 17
26 19 26 11z m-1590 -9 c0 -2 -37 -25 -82 -52 -46 -26 -88 -53 -94 -60 -8 -10
-13 -9 -21 6 -10 15 -9 17 5 14 9 -3 55 18 102 45 89 53 90 53 90 47z m1196
-22 c-10 -7 -25 -10 -34 -7 -11 5 -13 3 -7 -7 6 -9 4 -11 -5 -5 -18 11 16 36
38 28 11 -5 13 -3 7 7 -6 9 -4 11 5 5 10 -6 9 -11 -4 -21z m-1486 -20 c0 -2
-13 2 -30 11 -16 9 -30 18 -30 21 0 2 14 -2 30 -11 17 -9 30 -18 30 -21z
m1620 10 c0 -2 -9 0 -20 6 -11 6 -20 13 -20 16 0 2 9 0 20 -6 11 -6 20 -13 20
-16z m-1220 -10 c0 -2 -9 0 -20 6 -11 6 -20 13 -20 16 0 2 9 0 20 -6 11 -6 20
-13 20 -16z m420 -10 c0 -2 -13 2 -30 11 -16 9 -30 18 -30 21 0 2 14 -2 30
-11 17 -9 30 -18 30 -21z m-180 21 c0 -2 -13 -11 -30 -20 -38 -19 -40 -11 -2
9 31 17 32 18 32 11z m1170 0 c0 -2 -10 -9 -22 -15 -22 -11 -22 -10 -4 4 21
17 26 19 26 11z m90 0 c0 -2 -10 -9 -22 -15 -22 -11 -22 -10 -4 4 21 17 26 19
26 11z m-484 -31 c-10 -7 -25 -10 -34 -7 -11 5 -13 3 -7 -7 6 -9 4 -11 -5 -5
-18 11 16 36 38 28 11 -5 13 -3 7 7 -6 9 -4 11 5 5 10 -6 9 -11 -4 -21z m254
0 c0 -2 -9 0 -20 6 -11 6 -20 13 -20 16 0 2 9 0 20 -6 11 -6 20 -13 20 -16z
m-1600 -20 c0 -2 -13 2 -30 11 -16 9 -30 18 -30 21 0 2 14 -2 30 -11 17 -9 30
-18 30 -21z m400 0 c0 -2 -9 0 -20 6 -11 6 -20 13 -20 16 0 2 9 0 20 -6 11 -6
20 -13 20 -16z m420 -10 c0 -2 -13 2 -30 11 -16 9 -30 18 -30 21 0 2 14 -2 30
-11 17 -9 30 -18 30 -21z m-320 21 c0 -2 -10 -9 -22 -15 -22 -11 -22 -10 -4 4
21 17 26 19 26 11z m1165 -5 c-3 -5 -14 -10 -23 -9 -14 0 -13 2 3 9 27 11 27
11 20 0z m95 5 c0 -2 -10 -9 -22 -15 -22 -11 -22 -10 -4 4 21 17 26 19 26 11z
m-1316 -37 c-3 -5 -12 -4 -20 3 -19 16 -18 18 6 12 11 -3 17 -9 14 -15z m1187
-5 c13 -16 12 -17 -3 -4 -10 7 -18 15 -18 17 0 8 8 3 21 -13z m79 12 c0 -2
-10 -9 -22 -15 -22 -11 -22 -10 -4 4 21 17 26 19 26 11z m-450 -41 c0 -8 -4
-12 -10 -9 -5 3 -10 10 -10 16 0 5 5 9 10 9 6 0 10 -7 10 -16z m-1223 -31 c-3
-10 -5 -4 -5 12 0 17 2 24 5 18 2 -7 2 -21 0 -30z m0 -65 c-3 -7 -5 -2 -5 12
0 14 2 19 5 13 2 -7 2 -19 0 -25z m1216 12 c3 -11 1 -20 -4 -20 -5 0 -9 9 -9
20 0 11 2 20 4 20 2 0 6 -9 9 -20z m384 -12 c-3 -8 -6 -5 -6 6 -1 11 2 17 5
13 3 -3 4 -12 1 -19z m-1600 -40 c-3 -8 -6 -5 -6 6 -1 11 2 17 5 13 3 -3 4
-12 1 -19z m1213 -54 c-6 -6 -7 -13 -4 -16 2 -3 -2 -8 -10 -11 -9 -4 -18 -2
-21 2 -3 5 2 11 10 15 8 3 15 16 15 28 0 18 2 20 10 8 5 -9 5 -19 0 -26z
m-1180 -23 c13 -11 12 -12 -8 -1 -13 6 -30 9 -38 6 -11 -4 -12 -2 -2 14 9 14
15 16 22 7 6 -7 18 -18 26 -26z m1570 35 c0 -2 -8 -10 -17 -17 -16 -13 -17
-12 -4 4 13 16 21 21 21 13z m70 -22 c0 -2 -9 0 -20 6 -11 6 -20 13 -20 16 0
2 9 0 20 -6 11 -6 20 -13 20 -16z m-1266 7 c3 -5 -3 -11 -15 -14 -16 -4 -18
-3 -8 9 13 16 16 17 23 5z m521 -67 c71 -40 105 -50 105 -31 0 6 3 7 7 4 3 -4
12 1 20 11 10 13 13 14 11 2 -2 -8 -16 -23 -31 -33 -15 -9 -25 -22 -22 -27 3
-6 1 -10 -5 -10 -7 0 -10 6 -8 12 3 8 -39 38 -104 74 -59 33 -105 64 -102 67
4 4 19 -2 33 -12 14 -10 58 -36 96 -57z m331 50 c18 -14 18 -14 -6 -3 -31 14
-36 19 -24 19 6 0 19 -7 30 -16z m-776 -30 c0 -2 -13 2 -30 11 -16 9 -30 18
-30 21 0 2 14 -2 30 -11 17 -9 30 -18 30 -21z m300 31 c0 -2 -13 -11 -30 -20
-38 -19 -40 -11 -2 9 31 17 32 18 32 11z m960 -31 c0 -2 -13 2 -30 11 -16 9
-30 18 -30 21 0 2 14 -2 30 -11 17 -9 30 -18 30 -21z m-1380 21 c0 -2 -10 -9
-22 -15 -22 -11 -22 -10 -4 4 21 17 26 19 26 11z m799 -16 c-7 -4 -17 -5 -21
-3 -4 3 -8 1 -8 -5 0 -17 -38 -33 -46 -19 -4 7 -3 8 4 4 7 -4 12 -3 12 3 0 13
52 41 64 34 4 -3 2 -9 -5 -14z m381 16 c0 -2 -10 -9 -22 -15 -22 -11 -22 -10
-4 4 21 17 26 19 26 11z m-1600 -10 c0 -2 -10 -9 -22 -15 -22 -11 -22 -10 -4
4 21 17 26 19 26 11z m186 -35 c38 -22 75 -38 83 -35 10 4 11 2 3 -7 -5 -7
-12 -22 -15 -33 -4 -16 -5 -14 -6 7 -1 16 -8 29 -18 32 -21 7 -131 75 -122 76
4 0 38 -18 75 -40z m1194 14 c0 -2 -9 0 -20 6 -11 6 -20 13 -20 16 0 2 9 0 20
-6 11 -6 20 -13 20 -16z m289 22 c-2 -2 -15 -9 -29 -15 -24 -11 -24 -11 -6 3
16 13 49 24 35 12z m51 -32 c0 -2 -9 0 -20 6 -11 6 -20 13 -20 16 0 2 9 0 20
-6 11 -6 20 -13 20 -16z m-950 11 c0 -2 -13 -11 -30 -20 -38 -19 -40 -11 -2 9
31 17 32 18 32 11z m600 -21 c0 -2 -9 0 -20 6 -11 6 -20 13 -20 16 0 2 9 0 20
-6 11 -6 20 -13 20 -16z m180 21 c0 -2 -13 -11 -30 -20 -38 -19 -40 -11 -2 9
31 17 32 18 32 11z m-1600 -10 c0 -2 -13 -11 -30 -20 -38 -19 -40 -11 -2 9 31
17 32 18 32 11z m400 0 c0 -2 -13 -11 -30 -20 -38 -19 -40 -11 -2 9 31 17 32
18 32 11z m1260 0 c0 -2 -10 -9 -22 -15 -22 -11 -22 -10 -4 4 21 17 26 19 26
11z m-160 -31 c0 -2 -9 0 -20 6 -11 6 -20 13 -20 16 0 2 9 0 20 -6 11 -6 20
-13 20 -16z m340 -10 c0 -2 -9 0 -20 6 -11 6 -20 13 -20 16 0 2 9 0 20 -6 11
-6 20 -13 20 -16z m-344 -15 c3 -6 -5 -3 -20 6 -14 10 -26 19 -26 22 0 7 39
-17 46 -28z m94 18 c0 -2 -15 -13 -32 -26 l-33 -22 28 25 c26 24 37 31 37 23z"/>
<path d="M1210 1966 c0 -33 4 -37 96 -89 l96 -55 94 55 c89 52 94 57 94 89 l0
34 -190 0 -190 0 0 -34z"/>
</g>
</svg>
