<?xml version="1.0" standalone="no"?>
<!DOCTYPE svg PUBLIC "-//W3C//DTD SVG 20010904//EN"
 "http://www.w3.org/TR/2001/REC-SVG-20010904/DTD/svg10.dtd">
<svg version="1.0" xmlns="http://www.w3.org/2000/svg"
 width="200.000000pt" height="200.000000pt" viewBox="0 0 200.000000 200.000000"
 preserveAspectRatio="xMidYMid meet">
<metadata>
Created by potrace 1.16, written by Peter Selinger 2001-2019
</metadata>
<g transform="translate(0.000000,200.000000) scale(0.100000,-0.100000)"
fill="#000000" stroke="none">
<path d="M0 1967 c0 -18 6 -39 13 -46 10 -11 10 -13 0 -7 -10 6 -13 -41 -13
-219 0 -178 3 -225 13 -219 9 6 9 5 0 -7 -9 -11 -13 -102 -13 -352 0 -185 2
-337 5 -337 3 0 18 7 33 16 l27 16 -25 -21 c-14 -11 -28 -21 -32 -21 -14 0 -9
-225 5 -239 9 -11 9 -13 0 -7 -10 6 -13 -41 -13 -219 0 -178 3 -225 12 -219
11 6 11 4 0 -7 -6 -7 -12 -28 -12 -46 l0 -33 194 0 c146 0 196 3 199 13 4 9 6
9 6 0 1 -10 48 -13 200 -13 l199 0 0 35 c0 29 -5 38 -29 51 -16 8 -29 17 -29
20 0 2 14 -3 31 -12 31 -15 32 -15 112 32 45 26 90 52 100 58 15 10 17 25 15
126 l-3 115 35 19 c19 10 65 36 103 58 l67 39 0 109 c0 106 0 109 -27 130 -20
15 -22 18 -6 10 12 -5 25 -15 28 -20 4 -6 17 -4 33 6 27 16 27 16 5 -2 -20
-17 -22 -30 -25 -132 -2 -78 0 -111 8 -108 6 2 11 -2 11 -9 0 -7 -8 -10 -18
-8 -9 3 -58 -19 -108 -48 l-91 -53 0 -111 c0 -108 1 -112 25 -125 13 -7 22
-17 19 -22 -3 -5 -17 -2 -30 6 -22 15 -28 14 -116 -38 -88 -50 -93 -55 -96
-90 l-3 -36 190 0 191 0 0 34 c0 31 -5 37 -55 66 -30 17 -55 36 -55 41 0 6 -5
7 -12 3 -7 -5 -8 -3 -3 6 6 10 11 9 22 -5 7 -11 13 -16 13 -12 0 4 14 1 30 -8
17 -9 30 -20 30 -26 0 -6 4 -7 10 -4 5 3 10 2 10 -4 0 -7 8 -7 26 -1 16 7 23
7 19 0 -3 -6 -12 -10 -18 -10 -9 0 -11 -13 -9 -40 l4 -40 378 0 379 0 4 23 4
22 2 -22 c0 -13 8 -23 16 -23 12 0 14 97 14 742 1 691 -1 742 -17 755 -16 12
-16 13 1 7 16 -6 17 9 17 245 -1 205 -3 251 -15 251 -7 0 -16 -6 -18 -12 -4
-10 -6 -10 -6 -1 -1 10 -87 12 -370 12 l-370 1 -4 -33 -4 -32 -1 33 -2 32
-200 0 -200 0 0 -37 c0 -37 2 -39 96 -91 l95 -53 95 55 c101 60 109 62 120 44
4 -7 3 -8 -5 -4 -6 4 -53 -16 -107 -48 -52 -31 -99 -56 -104 -56 -5 0 -52 25
-104 56 l-95 55 -33 -16 c-28 -14 -30 -14 -14 0 11 8 23 15 28 15 4 0 8 18 8
40 l0 40 -194 0 c-146 0 -196 -3 -199 -12 -4 -10 -6 -10 -6 0 -1 9 -47 12
-196 12 l-195 0 0 -33z m1587 -24 c-3 -10 -5 -4 -5 12 0 17 2 24 5 18 2 -7 2
-21 0 -30z m67 -3 c10 -13 9 -13 -6 -1 -10 7 -18 21 -17 30 0 13 1 14 6 1 3
-8 11 -22 17 -30z m-457 8 c-3 -8 -6 -5 -6 6 -1 11 2 17 5 13 3 -3 4 -12 1
-19z m-707 -75 c0 -2 -22 8 -50 24 -27 15 -50 31 -50 35 0 4 23 -7 50 -24 28
-17 50 -33 50 -35z m1460 62 c0 -2 -10 -9 -22 -15 -22 -11 -22 -10 -4 4 21 17
26 19 26 11z m-380 -10 c0 -2 -10 -9 -22 -15 -22 -11 -22 -10 -4 4 21 17 26
19 26 11z m140 -21 c0 -2 -9 0 -20 6 -11 6 -20 13 -20 16 0 2 9 0 20 -6 11 -6
20 -13 20 -16z m-1330 11 c0 -2 -10 -9 -22 -15 -22 -11 -22 -10 -4 4 21 17 26
19 26 11z m1244 -4 c4 -5 -3 -7 -14 -4 -23 6 -26 13 -6 13 8 0 17 -4 20 -9z
m-1534 -37 c0 -2 -13 2 -30 11 -16 9 -30 18 -30 21 0 2 14 -2 30 -11 17 -9 30
-18 30 -21z m1197 11 c0 -8 -4 -12 -9 -9 -5 3 -6 10 -3 15 9 13 12 11 12 -6z
m413 -21 c0 -2 -13 2 -30 11 -16 9 -30 18 -30 21 0 2 14 -2 30 -11 17 -9 30
-18 30 -21z m180 31 c0 -2 -10 -9 -22 -15 -22 -11 -22 -10 -4 4 21 17 26 19
26 11z m-1550 -10 c0 -2 -13 -11 -30 -20 -38 -19 -40 -11 -2 9 31 17 32 18 32
11z m395 -4 c-16 -14 -105 -63 -105 -58 0 5 101 66 110 67 2 0 0 -4 -5 -9z
m609 -23 c-5 -7 -2 -9 8 -6 8 4 15 0 15 -7 0 -10 -5 -11 -19 -4 -10 6 -15 15
-12 21 5 7 2 9 -8 6 -8 -4 -15 0 -15 7 0 10 5 11 19 4 10 -6 15 -15 12 -21z
m166 27 c0 -2 -10 -9 -22 -15 -22 -11 -22 -10 -4 4 21 17 26 19 26 11z m280
-21 c0 -2 -9 0 -20 6 -11 6 -20 13 -20 16 0 2 9 0 20 -6 11 -6 20 -13 20 -16z
m200 21 c0 -2 -13 -11 -30 -20 -38 -19 -40 -11 -2 9 31 17 32 18 32 11z
m-1840 -41 c0 -2 -9 0 -20 6 -11 6 -20 13 -20 16 0 2 9 0 20 -6 11 -6 20 -13
20 -16z m420 -10 c0 -2 -13 2 -30 11 -16 9 -30 18 -30 21 0 2 14 -2 30 -11 17
-9 30 -18 30 -21z m-300 11 c0 -2 -10 -9 -22 -15 -22 -11 -22 -10 -4 4 21 17
26 19 26 11z m1510 -21 c0 -2 -9 0 -20 6 -11 6 -20 13 -20 16 0 2 9 0 20 -6
11 -6 20 -13 20 -16z m140 21 c0 -2 -13 -11 -30 -20 -38 -19 -40 -11 -2 9 31
17 32 18 32 11z m-1706 -37 c-3 -4 -16 -1 -30 8 -32 21 -30 25 5 11 17 -6 28
-14 25 -19z m397 4 c-7 -2 -18 1 -23 6 -8 8 -4 9 13 5 13 -4 18 -8 10 -11z
m827 4 c-15 -11 -18 -30 -18 -124 0 -61 -3 -113 -7 -115 -5 -3 -8 50 -8 118 0
68 2 122 5 120 3 -2 12 0 20 6 22 13 27 10 8 -5z m405 -21 c-3 -9 -8 -14 -10
-11 -3 3 -2 9 2 15 9 16 15 13 8 -4z m-1636 -87 c-2 -18 -4 -6 -4 27 0 33 2
48 4 33 2 -15 2 -42 0 -60z m400 40 c-3 -7 -5 -2 -5 12 0 14 2 19 5 13 2 -7 2
-19 0 -25z m1235 -100 c2 -36 0 -64 -4 -61 -5 2 -7 46 -6 96 1 95 5 81 10 -35z
m-1635 -25 c-3 -10 -5 -4 -5 12 0 17 2 24 5 18 2 -7 2 -21 0 -30z m131 -119
c4 -4 -24 10 -62 31 l-70 38 -50 -28 c-60 -33 -57 -26 5 14 l44 27 63 -37 c35
-20 66 -41 70 -45z m402 0 c0 -3 -29 11 -65 31 -38 22 -72 34 -82 31 -13 -5
-14 -4 -4 8 10 12 22 8 82 -26 38 -22 69 -42 69 -44z m375 18 l100 -57 -5
-120 -4 -120 -6 118 -5 119 -93 54 -94 53 -95 -55 -94 -56 3 -117 c3 -101 1
-117 -13 -117 -12 0 -14 7 -9 36 9 48 2 204 -9 208 -4 1 -17 10 -27 18 -16 12
-13 12 14 -1 l33 -16 92 54 c51 30 97 55 102 56 6 0 55 -25 110 -57z m269 37
c-4 -8 1 -9 17 -4 28 9 24 3 -10 -15 -19 -10 -22 -10 -16 1 6 9 3 11 -11 6
-18 -7 -18 -7 0 8 23 18 30 19 20 4z m396 6 c0 -2 -10 -9 -22 -15 -22 -11 -22
-10 -4 4 21 17 26 19 26 11z m-1210 -10 c0 -2 -10 -9 -22 -15 -22 -11 -22 -10
-4 4 21 17 26 19 26 11z m900 -31 c0 -2 -9 0 -20 6 -11 6 -20 13 -20 16 0 2 9
0 20 -6 11 -6 20 -13 20 -16z m50 0 c0 -2 -9 0 -20 6 -11 6 -20 13 -20 16 0 2
9 0 20 -6 11 -6 20 -13 20 -16z m-206 -6 c-5 -8 -2 -9 9 -5 24 9 21 0 -4 -14
-17 -9 -20 -8 -14 2 6 9 3 11 -11 6 -18 -7 -18 -7 0 8 24 18 30 19 20 3z m396
7 c0 -2 -10 -9 -22 -15 -22 -11 -22 -10 -4 4 21 17 26 19 26 11z m-1610 -10
c0 -2 -13 -11 -30 -20 -38 -19 -40 -11 -2 9 31 17 32 18 32 11z m1440 -31 c0
-2 -13 2 -30 11 -16 9 -30 18 -30 21 0 2 14 -2 30 -11 17 -9 30 -18 30 -21z
m240 31 c0 -2 -10 -9 -22 -15 -22 -11 -22 -10 -4 4 21 17 26 19 26 11z m-1300
-9 c0 -6 -66 -46 -76 -46 -5 0 9 11 31 25 43 26 45 27 45 21z m1420 -22 c0 -2
-9 0 -20 6 -11 6 -20 13 -20 16 0 2 9 0 20 -6 11 -6 20 -13 20 -16z m-1510
-10 c0 -2 -9 0 -20 6 -11 6 -20 13 -20 16 0 2 9 0 20 -6 11 -6 20 -13 20 -16z
m1270 21 c0 -2 -10 -9 -22 -15 -22 -11 -22 -10 -4 4 21 17 26 19 26 11z m-416
-17 c-5 -8 -2 -9 9 -5 23 9 21 0 -2 -13 -16 -8 -19 -7 -16 8 5 23 4 22 11 22
3 0 2 -5 -2 -12z m486 8 c0 -5 -69 -46 -78 -46 -6 1 69 50 76 50 1 0 2 -2 2
-4z m-135 -37 c13 -20 0 -15 -25 9 -23 22 -23 24 -3 13 12 -6 25 -16 28 -22z
m381 -85 l0 -79 -3 75 c-3 62 -7 78 -26 94 l-22 18 25 -14 c23 -14 25 -21 26
-94z m-1569 -11 c-2 -16 -4 -5 -4 22 0 28 2 40 4 28 2 -13 2 -35 0 -50z m1190
5 c-3 -8 -6 -5 -6 6 -1 11 2 17 5 13 3 -3 4 -12 1 -19z m-1087 -182 c55 -32
100 -62 100 -68 0 -7 -4 -7 -12 0 -7 6 -53 33 -101 61 l-89 51 -94 -52 -94
-53 0 -115 0 -115 94 -53 94 -52 97 56 c53 30 99 54 101 51 3 -3 -40 -31 -96
-63 -73 -42 -100 -63 -101 -78 -1 -19 -2 -18 -8 3 -4 16 -35 40 -100 77 l-94
54 -34 -20 c-46 -27 -57 -25 -13 2 19 12 38 26 41 31 4 5 6 56 5 113 -2 90 -5
106 -22 120 -18 15 -18 15 3 5 18 -9 36 -3 115 43 l93 54 5 48 4 49 4 -46 3
-46 99 -57z m1087 92 c-3 -7 -5 -2 -5 12 0 14 2 19 5 13 2 -7 2 -19 0 -25z
m380 -10 c-3 -8 -6 -5 -6 6 -1 11 2 17 5 13 3 -3 4 -12 1 -19z m-257 -44 c0
-7 -58 25 -65 36 -3 5 10 1 29 -11 20 -12 36 -23 36 -25z m240 31 c0 -2 -10
-9 -22 -15 -22 -11 -22 -10 -4 4 21 17 26 19 26 11z m-371 -9 c-2 -2 -15 -9
-29 -15 -24 -11 -24 -11 -6 3 16 13 49 24 35 12z m-1519 -42 c0 -2 -9 0 -20 6
-11 6 -20 13 -20 16 0 2 9 0 20 -6 11 -6 20 -13 20 -16z m710 21 c0 -2 -10 -9
-22 -15 -22 -11 -22 -10 -4 4 21 17 26 19 26 11z m515 -13 c-3 -3 -11 0 -18 7
-9 10 -8 11 6 5 10 -3 15 -9 12 -12z m-485 4 c0 -2 -7 -7 -16 -10 -8 -3 -12
-2 -9 4 6 10 25 14 25 6z m715 -5 c-16 -14 -105 -63 -105 -58 0 5 101 66 110
67 2 0 0 -4 -5 -9z m365 4 c0 -2 -10 -9 -22 -15 -22 -11 -22 -10 -4 4 21 17
26 19 26 11z m-666 -13 c2 -4 -4 -8 -14 -8 -10 0 -16 4 -14 8 3 4 9 8 14 8 5
0 11 -4 14 -8z m-500 -14 c-5 -8 -2 -9 9 -5 24 9 21 0 -4 -14 -17 -9 -20 -8
-14 2 6 9 3 11 -11 6 -18 -7 -18 -7 0 8 24 18 30 19 20 3z m186 -24 c0 -2 -13
2 -30 11 -16 9 -30 18 -30 21 0 2 14 -2 30 -11 17 -9 30 -18 30 -21z m-750
-10 c0 -2 -13 2 -30 11 -16 9 -30 18 -30 21 0 2 14 -2 30 -11 17 -9 30 -18 30
-21z m1120 10 c0 -2 -9 0 -20 6 -11 6 -20 13 -20 16 0 2 9 0 20 -6 11 -6 20
-13 20 -16z m120 -10 c0 -2 -13 2 -30 11 -16 9 -30 18 -30 21 0 2 14 -2 30
-11 17 -9 30 -18 30 -21z m435 26 c-3 -5 -14 -10 -23 -9 -14 0 -13 2 3 9 27
11 27 11 20 0z m-235 -5 c0 -2 -10 -9 -22 -15 -22 -11 -22 -10 -4 4 21 17 26
19 26 11z m100 -41 c0 -2 -13 2 -30 11 -16 9 -30 18 -30 21 0 2 14 -2 30 -11
17 -9 30 -18 30 -21z m-1046 14 c-5 -8 -2 -9 9 -5 23 9 21 0 -2 -13 -16 -8
-19 -7 -16 8 5 23 4 22 11 22 3 0 2 -5 -2 -12z m336 -34 c8 -9 -3 -4 -25 10
-51 35 -57 42 -19 23 17 -9 37 -23 44 -33z m140 41 c0 -2 -13 -11 -30 -20 -38
-19 -40 -11 -2 9 31 17 32 18 32 11z m420 -10 c0 -2 -13 -11 -30 -20 -38 -19
-40 -11 -2 9 31 17 32 18 32 11z m200 -41 c0 -2 -9 0 -20 6 -11 6 -20 13 -20
16 0 2 9 0 20 -6 11 -6 20 -13 20 -16z m-1123 -31 c-3 -10 -5 -4 -5 12 0 17 2
24 5 18 2 -7 2 -21 0 -30z m1281 23 c-14 -10 -18 -28 -18 -86 0 -57 4 -76 18
-87 15 -13 15 -13 -5 -3 -21 10 -23 18 -23 90 0 65 3 81 18 89 24 15 30 13 10
-3z m-141 -73 c-2 -16 -4 -3 -4 27 0 30 2 43 4 28 2 -16 2 -40 0 -55z m-1140
-10 c-3 -10 -5 -4 -5 12 0 17 2 24 5 18 2 -7 2 -21 0 -30z m0 -90 c-2 -16 -4
-5 -4 22 0 28 2 40 4 28 2 -13 2 -35 0 -50z m1140 20 c-3 -10 -5 -2 -5 17 0
19 2 27 5 18 2 -10 2 -26 0 -35z m-720 5 c-3 -8 -6 -5 -6 6 -1 11 2 17 5 13 3
-3 4 -12 1 -19z m-50 -30 c-3 -8 -6 -5 -6 6 -1 11 2 17 5 13 3 -3 4 -12 1 -19z
m533 -34 c0 -7 -58 25 -65 36 -3 5 10 1 29 -11 20 -12 36 -23 36 -25z m220 31
c0 -2 -10 -9 -22 -15 -22 -11 -22 -10 -4 4 21 17 26 19 26 11z m220 -31 c0 -2
-9 0 -20 6 -11 6 -20 13 -20 16 0 2 9 0 20 -6 11 -6 20 -13 20 -16z m-1290 -9
c0 -2 -7 -1 -17 2 -12 5 -14 3 -8 -8 5 -8 4 -11 0 -6 -5 4 -10 14 -11 22 -2
12 2 12 17 5 10 -6 19 -13 19 -15z m430 -1 c0 -2 -9 0 -20 6 -11 6 -20 13 -20
16 0 2 9 0 20 -6 11 -6 20 -13 20 -16z m-156 4 c-5 -8 -2 -9 9 -5 23 9 21 0
-2 -13 -16 -8 -19 -7 -16 8 5 23 4 22 11 22 3 0 2 -5 -2 -12z m746 7 c0 -2
-10 -9 -22 -15 -22 -11 -22 -10 -4 4 21 17 26 19 26 11z m-135 -23 c-3 -3 -11
0 -18 7 -9 10 -8 11 6 5 10 -3 15 -9 12 -12z m-265 3 c0 -2 -13 -11 -30 -20
-38 -19 -40 -11 -2 9 31 17 32 18 32 11z m180 -21 c0 -2 -9 0 -20 6 -11 6 -20
13 -20 16 0 2 9 0 20 -6 11 -6 20 -13 20 -16z m-730 -9 c0 -2 -7 -1 -17 2 -11
5 -14 3 -8 -6 6 -10 3 -11 -14 -2 -25 14 -28 23 -4 14 11 -5 14 -3 8 6 -6 10
-3 11 14 2 11 -7 21 -14 21 -16z m156 9 c-1 -9 -10 -20 -18 -25 -21 -12 -18
18 3 32 18 11 18 12 15 -7z m189 6 c3 -6 -1 -7 -9 -4 -18 7 -21 14 -7 14 6 0
13 -4 16 -10z m85 -16 c0 -2 -9 0 -20 6 -11 6 -20 13 -20 16 0 2 9 0 20 -6 11
-6 20 -13 20 -16z m425 8 c-3 -3 -11 0 -18 7 -9 10 -8 11 6 5 10 -3 15 -9 12
-12z m205 14 c0 -2 -7 -7 -16 -10 -8 -3 -12 -2 -9 4 6 10 25 14 25 6z m50 -22
c0 -2 -9 0 -20 6 -11 6 -20 13 -20 16 0 2 9 0 20 -6 11 -6 20 -13 20 -16z
m-510 11 c0 -2 -13 -11 -30 -20 -38 -19 -40 -11 -2 9 31 17 32 18 32 11z m400
-20 c0 -2 -10 -9 -22 -15 -22 -11 -22 -10 -4 4 21 17 26 19 26 11z m-914 -22
c-1 -7 -6 -16 -11 -20 -4 -4 -5 -2 -1 5 5 8 0 12 -13 12 -11 0 -22 3 -24 8 -3
4 7 7 23 7 16 0 27 -5 26 -12z m1094 -9 c0 -2 -9 0 -20 6 -11 6 -20 13 -20 16
0 2 9 0 20 -6 11 -6 20 -13 20 -16z m-325 -25 c13 -20 0 -15 -25 9 -23 22 -23
24 -3 13 12 -6 25 -16 28 -22z m-797 -20 c-3 -20 -5 -19 -9 9 -3 20 -2 29 4
23 5 -5 7 -19 5 -32z m872 36 c0 -2 -10 -9 -22 -15 -22 -11 -22 -10 -4 4 21
17 26 19 26 11z m306 -76 l1 -54 -4 50 c-3 36 -10 55 -26 69 l-22 18 25 -14
c21 -13 25 -23 26 -69z m-1579 -1 c-3 -8 -6 -5 -6 6 -1 11 2 17 5 13 3 -3 4
-12 1 -19z m400 -65 c-2 -16 -4 -5 -4 22 0 28 2 40 4 28 2 -13 2 -35 0 -50z
m1183 -38 c0 -36 -4 -46 -22 -55 -21 -10 -21 -10 -5 3 11 9 17 28 17 56 0 22
2 41 5 41 3 0 5 -20 5 -45z m-1583 -7 c-3 -7 -5 -2 -5 12 0 14 2 19 5 13 2 -7
2 -19 0 -25z m1200 0 c-3 -8 -6 -5 -6 6 -1 11 2 17 5 13 3 -3 4 -12 1 -19z
m-1173 -61 c21 -17 21 -17 -6 -6 -18 8 -28 19 -27 33 0 14 2 16 6 6 3 -8 15
-23 27 -33z m1256 -4 c0 -7 -39 17 -46 28 -3 6 5 3 20 -6 14 -10 26 -19 26
-22z m-869 10 c9 -11 10 -14 2 -10 -7 5 -27 1 -45 -8 -27 -13 -29 -13 -13 -1
11 8 25 20 30 25 6 6 11 10 11 11 1 0 8 -8 15 -17z m769 2 c0 -2 -10 -9 -22
-15 -22 -11 -22 -10 -4 4 21 17 26 19 26 11z m-1200 -10 c0 -2 -10 -9 -22 -15
-22 -11 -22 -10 -4 4 21 17 26 19 26 11z m874 -17 c-5 -8 -1 -9 10 -5 11 5 15
3 10 -5 -5 -7 -2 -9 8 -6 8 4 15 0 15 -7 0 -12 -5 -11 -27 0 -15 8 -27 21 -27
29 0 8 4 13 9 10 5 -3 5 -10 2 -16z m-1164 -24 c0 -2 -13 2 -30 11 -16 9 -30
18 -30 21 0 2 14 -2 30 -11 17 -9 30 -18 30 -21z m1820 31 c0 -2 -10 -9 -22
-15 -22 -11 -22 -10 -4 4 21 17 26 19 26 11z m-1420 -31 c0 -2 -9 0 -20 6 -11
6 -20 13 -20 16 0 2 9 0 20 -6 11 -6 20 -13 20 -16z m1040 21 c0 -2 -13 -11
-30 -20 -38 -19 -40 -11 -2 9 31 17 32 18 32 11z m-1200 -9 c0 -5 -69 -46 -78
-46 -6 1 69 50 76 50 1 0 2 -2 2 -4z m400 -1 c0 -2 -13 -11 -30 -20 -38 -19
-40 -11 -2 9 31 17 32 18 32 11z m180 -21 c0 -2 -9 0 -20 6 -11 6 -20 13 -20
16 0 2 9 0 20 -6 11 -6 20 -13 20 -16z m760 0 c0 -2 -9 0 -20 6 -11 6 -20 13
-20 16 0 2 9 0 20 -6 11 -6 20 -13 20 -16z m-346 -6 c-5 -7 -2 -9 8 -6 8 4 15
0 15 -8 0 -19 -30 -1 -33 20 -1 9 2 14 7 10 5 -3 6 -10 3 -16z m450 7 c11 -8
16 -15 10 -15 -5 0 -18 7 -28 15 -11 8 -16 15 -10 15 5 0 18 -7 28 -15z
m-1614 -31 c0 -2 -13 2 -30 11 -16 9 -30 18 -30 21 0 2 14 -2 30 -11 17 -9 30
-18 30 -21z m1820 31 c0 -2 -13 -11 -30 -20 -38 -19 -40 -11 -2 9 31 17 32 18
32 11z m-1420 -31 c0 -2 -9 0 -20 6 -11 6 -20 13 -20 16 0 2 9 0 20 -6 11 -6
20 -13 20 -16z m400 0 c0 -2 -9 0 -20 6 -11 6 -20 13 -20 16 0 2 9 0 20 -6 11
-6 20 -13 20 -16z m500 21 c0 -2 -10 -9 -22 -15 -22 -11 -22 -10 -4 4 21 17
26 19 26 11z m60 0 c0 -2 -10 -9 -22 -15 -22 -11 -22 -10 -4 4 21 17 26 19 26
11z m-860 -10 c0 -2 -10 -9 -22 -15 -22 -11 -22 -10 -4 4 21 17 26 19 26 11z
m715 -4 c3 -5 2 -12 -3 -15 -5 -3 -9 1 -9 9 0 17 3 19 12 6z m365 -17 c0 -2
-9 0 -20 6 -11 6 -20 13 -20 16 0 2 9 0 20 -6 11 -6 20 -13 20 -16z m-1510 4
c-8 -7 -20 -18 -26 -25 -7 -9 -13 -7 -22 7 -10 16 -9 18 3 14 7 -3 22 -1 32 5
25 14 30 14 13 -1z m374 -20 c-3 -5 -12 -4 -20 3 -19 16 -18 18 6 12 11 -3 17
-9 14 -15z m801 16 c-5 -2 -9 -32 -9 -66 l2 -63 -7 60 c-7 66 -5 75 12 74 7 0
8 -2 2 -5z m505 1 c0 -2 -10 -9 -22 -15 -22 -11 -22 -10 -4 4 21 17 26 19 26
11z m-460 -9 c0 -2 -8 -10 -17 -17 -16 -13 -17 -12 -4 4 13 16 21 21 21 13z
m325 -14 c-3 -3 -11 0 -18 7 -9 10 -8 11 6 5 10 -3 15 -9 12 -12z m75 -54 c-4
-49 -5 -50 -8 -14 -3 34 2 66 10 66 2 0 1 -24 -2 -52z m-1653 -5 c-3 -10 -5
-4 -5 12 0 17 2 24 5 18 2 -7 2 -21 0 -30z m1590 -50 c-3 -10 -5 -2 -5 17 0
19 2 27 5 18 2 -10 2 -26 0 -35z m-1590 -15 c-3 -7 -5 -2 -5 12 0 14 2 19 5
13 2 -7 2 -19 0 -25z m1196 -99 c-4 -4 -6 20 -3 54 l5 62 3 -54 c2 -30 0 -58
-5 -62z m-1196 59 c-3 -8 -6 -5 -6 6 -1 11 2 17 5 13 3 -3 4 -12 1 -19z m1655
-12 c2 -19 0 -32 -4 -30 -8 5 -12 64 -4 64 2 0 6 -15 8 -34z m-65 2 c-3 -8 -6
-5 -6 6 -1 11 2 17 5 13 3 -3 4 -12 1 -19z m-1590 -57 c-7 -2 -21 -8 -32 -14
-16 -8 -15 -4 5 14 15 15 28 20 32 14 4 -5 2 -12 -5 -14z m1244 12 c13 -16 12
-17 -3 -4 -17 13 -22 21 -14 21 2 0 10 -8 17 -17z m-837 -2 c3 -5 -3 -11 -15
-14 -16 -4 -18 -3 -8 9 13 16 16 17 23 5z m1361 -46 c11 -9 -2 -4 -30 11 -27
15 -54 32 -60 37 -16 15 68 -29 90 -48z m-1618 -37 c31 -17 58 -26 65 -22 10
6 10 5 2 -7 -7 -8 -14 -23 -17 -34 -4 -17 -5 -16 -6 5 -1 20 -17 34 -86 73
-47 27 -85 51 -85 54 0 3 17 -5 38 -17 20 -12 60 -36 89 -52z m313 46 c0 -2
-9 0 -20 6 -11 6 -20 13 -20 16 0 2 9 0 20 -6 11 -6 20 -13 20 -16z m1080 21
c0 -2 -10 -9 -22 -15 -22 -11 -22 -10 -4 4 21 17 26 19 26 11z m-1180 -10 c0
-2 -10 -9 -22 -15 -22 -11 -22 -10 -4 4 21 17 26 19 26 11z m856 -7 c4 -7 3
-8 -4 -4 -6 4 -22 2 -34 -4 -22 -11 -22 -10 -4 4 24 19 32 20 42 4z m104 -14
c0 -2 -9 0 -20 6 -11 6 -20 13 -20 16 0 2 9 0 20 -6 11 -6 20 -13 20 -16z
m-1380 11 c0 -2 -10 -9 -22 -15 -22 -11 -22 -10 -4 4 21 17 26 19 26 11z m590
-41 c0 -2 -9 0 -20 6 -11 6 -20 13 -20 16 0 2 9 0 20 -6 11 -6 20 -13 20 -16z
m620 21 c0 -2 -10 -9 -22 -15 -22 -11 -22 -10 -4 4 21 17 26 19 26 11z m320 0
c0 -2 -10 -9 -22 -15 -22 -11 -22 -10 -4 4 21 17 26 19 26 11z m120 0 c0 -2
-10 -9 -22 -15 -22 -11 -22 -10 -4 4 21 17 26 19 26 11z m80 -31 c0 -2 -13 2
-30 11 -16 9 -30 18 -30 21 0 2 14 -2 30 -11 17 -9 30 -18 30 -21z m-1780 21
c0 -2 -13 -11 -30 -20 -38 -19 -40 -11 -2 9 31 17 32 18 32 11z m400 0 c0 -2
-13 -11 -30 -20 -38 -19 -40 -11 -2 9 31 17 32 18 32 11z m790 0 c0 -2 -10 -9
-22 -15 -22 -11 -22 -10 -4 4 21 17 26 19 26 11z m230 -21 c0 -2 -9 0 -20 6
-11 6 -20 13 -20 16 0 2 9 0 20 -6 11 -6 20 -13 20 -16z m80 0 c0 -2 -9 0 -20
6 -11 6 -20 13 -20 16 0 2 9 0 20 -6 11 -6 20 -13 20 -16z m-330 -24 c-14 -11
-29 -20 -35 -20 -5 0 4 9 20 20 38 25 48 25 15 0z m460 15 c0 -2 -10 -9 -22
-15 -22 -11 -22 -10 -4 4 21 17 26 19 26 11z m-60 -40 c-7 -9 -15 -13 -19 -10
-3 3 1 10 9 15 21 14 24 12 10 -5z"/>
</g>
</svg>
