<?xml version="1.0" standalone="no"?>
<!DOCTYPE svg PUBLIC "-//W3C//DTD SVG 20010904//EN"
 "http://www.w3.org/TR/2001/REC-SVG-20010904/DTD/svg10.dtd">
<svg version="1.0" xmlns="http://www.w3.org/2000/svg"
 width="200.000000pt" height="200.000000pt" viewBox="0 0 200.000000 200.000000"
 preserveAspectRatio="xMidYMid meet">
<metadata>
Created by potrace 1.16, written by Peter Selinger 2001-2019
</metadata>
<g transform="translate(0.000000,200.000000) scale(0.100000,-0.100000)"
fill="#000000" stroke="none">
<path d="M30 1990 c0 -5 -6 -7 -14 -4 -13 5 -15 -27 -14 -218 0 -152 4 -228
12 -237 8 -12 8 -13 -1 -7 -10 5 -13 -9 -13 -59 0 -54 3 -66 14 -62 8 3 17 0
19 -7 4 -10 -1 -12 -14 -9 -17 5 -19 0 -19 -42 0 -41 2 -46 18 -41 16 6 16 5
0 -7 -20 -16 -24 -123 -5 -146 9 -12 9 -13 0 -7 -18 10 -18 -75 -1 -93 10 -11
10 -13 1 -7 -10 5 -13 -6 -13 -44 0 -28 4 -49 8 -46 5 3 9 -1 9 -9 0 -8 -4
-12 -9 -9 -16 10 -8 -79 9 -100 16 -18 16 -19 1 -8 -16 13 -17 8 -17 -50 1
-37 5 -66 12 -70 9 -6 9 -8 0 -8 -9 0 -13 -16 -13 -46 0 -41 2 -46 20 -41 11
3 18 1 14 -4 -3 -5 -12 -9 -20 -9 -18 0 -19 -51 -2 -69 8 -8 8 -11 2 -8 -9 5
-11 -61 -10 -251 1 -200 4 -256 13 -254 7 1 13 -2 13 -8 0 -6 37 -10 93 -10
54 0 86 4 79 9 -11 7 -11 9 2 14 9 4 15 1 13 -6 -1 -9 21 -12 83 -10 47 1 92
2 100 2 8 0 50 -2 93 -5 53 -4 83 -2 93 6 11 10 17 10 28 0 10 -8 40 -10 93
-6 95 6 91 6 186 0 53 -4 83 -2 93 6 11 10 17 10 28 0 10 -8 40 -10 93 -6 95
6 91 6 186 0 53 -4 83 -2 93 6 11 10 17 10 28 0 21 -17 193 -5 228 16 10 6 10
4 -1 -9 -12 -16 -8 -17 48 -17 42 0 61 4 61 13 0 9 3 8 9 -2 5 -7 14 -10 20
-7 6 4 9 12 6 17 -3 5 1 6 10 2 13 -5 14 -7 3 -14 -15 -10 144 -12 179 -3 22
6 22 7 21 265 0 190 -3 257 -12 252 -6 -3 -6 0 1 8 18 18 17 69 -1 69 -8 0
-17 4 -20 9 -4 5 3 7 14 4 18 -5 20 0 20 42 0 37 -3 46 -14 42 -8 -3 -17 0
-19 7 -4 9 1 12 13 9 17 -5 19 2 19 61 0 37 -4 64 -8 62 -4 -3 -8 1 -8 9 0 8
4 12 9 9 4 -3 8 16 8 41 0 25 -4 44 -8 41 -5 -3 -9 1 -9 9 0 8 4 12 9 9 4 -3
8 18 8 46 0 28 -4 49 -8 46 -5 -3 -9 1 -9 9 0 8 4 12 8 9 5 -2 8 46 8 108 -1
92 -4 115 -18 125 -15 12 -14 13 2 7 15 -5 17 0 17 41 0 42 -2 47 -20 42 -11
-3 -18 -1 -14 4 3 5 11 9 18 9 11 0 14 58 14 296 0 257 -1 295 -14 290 -9 -3
-12 -1 -9 4 11 18 -142 12 -171 -6 -20 -13 -24 -14 -22 -3 2 10 -11 15 -54 17
-52 3 -57 1 -61 -20 l-4 -23 -2 24 c-1 19 -5 22 -23 16 -40 -12 -68 -14 -68
-4 0 16 -138 10 -168 -7 -23 -14 -24 -14 -8 -1 17 15 10 16 -80 12 -55 -2
-106 -4 -114 -4 -8 1 -59 2 -114 4 -90 4 -97 2 -80 -12 16 -12 14 -12 -8 1
-15 9 -49 16 -77 16 -43 0 -50 -3 -54 -22 -4 -23 -4 -23 -6 1 -1 19 -5 22 -23
16 -13 -4 -30 -6 -38 -5 -8 1 -59 3 -114 5 -90 4 -97 2 -80 -12 16 -12 14 -12
-8 1 -32 19 -168 23 -168 5 0 -5 -4 -8 -9 -4 -5 3 -12 1 -16 -5 -4 -6 -12 -4
-22 5 -12 12 -36 15 -104 14 -80 -1 -88 -3 -72 -16 13 -11 11 -11 -9 1 -30 18
-168 23 -168 6z m1107 -32 c-3 -8 -6 -5 -6 6 -1 11 2 17 5 13 3 -3 4 -12 1
-19z m400 0 c-3 -8 -6 -5 -6 6 -1 11 2 17 5 13 3 -3 4 -12 1 -19z m413 7 c-7
-8 -18 -15 -24 -15 -6 0 -2 7 8 15 25 19 32 19 16 0z m-1880 -5 c0 -5 -2 -10
-4 -10 -3 0 -8 5 -11 10 -3 6 -1 10 4 10 6 0 11 -4 11 -10z m184 2 c2 -4 1
-14 -3 -21 -6 -9 -10 -7 -14 8 -5 20 7 29 17 13z m81 -2 c-3 -5 -12 -10 -18
-10 -7 0 -6 4 3 10 19 12 23 12 15 0z m320 0 c3 -5 2 -10 -4 -10 -5 0 -13 5
-16 10 -3 6 -2 10 4 10 5 0 13 -4 16 -10z m70 -6 c-11 -8 -19 -18 -18 -22 1
-4 -9 -7 -22 -7 -14 0 -21 5 -18 12 3 7 9 10 14 7 5 -3 19 2 31 10 29 21 39
20 13 0z m235 6 c0 -5 -5 -10 -11 -10 -5 0 -7 5 -4 10 3 6 8 10 11 10 2 0 4
-4 4 -10z m95 0 c3 -5 2 -10 -4 -10 -5 0 -13 5 -16 10 -3 6 -2 10 4 10 5 0 13
-4 16 -10z m310 0 c-3 -5 -11 -10 -16 -10 -6 0 -7 5 -4 10 3 6 11 10 16 10 6
0 7 -4 4 -10z m90 0 c3 -5 1 -10 -4 -10 -6 0 -11 5 -11 10 0 6 2 10 4 10 3 0
8 -4 11 -10z m305 0 c0 -5 -5 -10 -11 -10 -5 0 -7 5 -4 10 3 6 8 10 11 10 2 0
4 -4 4 -10z m-1240 -15 c5 3 10 4 10 1 0 -3 -10 -11 -22 -17 -13 -6 -20 -8
-16 -4 4 5 2 15 -5 24 -10 14 -10 14 5 3 9 -8 22 -11 28 -7z m820 -18 c0 -1
-11 -2 -24 -2 -13 0 -22 2 -20 4 2 2 -1 10 -7 17 -8 10 -2 9 20 -2 17 -9 31
-16 31 -17z m-1210 17 c0 -1 -16 -11 -36 -23 -19 -12 -33 -24 -31 -29 3 -4 -1
-13 -9 -20 -8 -7 -14 -11 -15 -10 -4 16 -4 47 0 46 11 -3 60 25 56 31 -2 4 5
7 16 7 10 0 19 -1 19 -2z m977 -11 c0 -8 -6 -9 -19 -2 -10 5 -18 11 -18 12 0
2 8 3 18 3 10 0 19 -6 19 -13z m400 0 c0 -8 -6 -9 -19 -2 -10 5 -18 11 -18 12
0 2 8 3 18 3 10 0 19 -6 19 -13z m403 10 c0 -1 -8 -7 -18 -12 -13 -7 -19 -6
-19 2 0 7 9 13 19 13 10 0 18 -1 18 -3z m-1607 -10 c3 -5 -5 -8 -18 -8 -13 0
-21 3 -18 8 2 4 10 7 18 7 8 0 16 -3 18 -7z m617 3 c0 -2 -7 -7 -16 -10 -8 -3
-12 -2 -9 4 6 10 25 14 25 6z m813 -3 c3 -5 -5 -8 -18 -8 -13 0 -21 3 -18 8 2
4 10 7 18 7 8 0 16 -3 18 -7z m-1583 -23 c0 -11 -2 -20 -4 -20 -2 0 -6 9 -9
20 -3 11 -1 20 4 20 5 0 9 -9 9 -20z m265 10 c3 -6 -1 -7 -9 -4 -18 7 -21 14
-7 14 6 0 13 -4 16 -10z m401 -2 c4 -7 3 -8 -5 -4 -15 9 -64 -21 -56 -34 3 -6
-1 -7 -9 -4 -8 3 -25 0 -38 -6 l-23 -11 24 19 c13 11 21 24 17 31 -4 6 -3 11
3 11 5 0 11 -5 13 -12 3 -8 11 -7 28 5 29 20 36 21 46 5z m144 -10 c0 -6 -6
-5 -15 2 -8 7 -15 14 -15 16 0 2 7 1 15 -2 8 -4 15 -11 15 -16z m100 7 c-7 -8
-18 -15 -24 -15 -6 0 -2 7 8 15 25 19 32 19 16 0z m122 -5 c-18 -11 -30 -25
-27 -30 3 -5 -1 -7 -9 -4 -8 3 -25 0 -38 -6 l-23 -11 24 19 c13 11 21 24 17
31 -4 6 -3 11 3 11 5 0 11 -5 13 -12 3 -8 11 -7 28 5 14 9 29 17 35 17 5 0 -5
-9 -23 -20z m278 5 c-7 -9 -15 -13 -19 -10 -3 3 1 10 9 15 21 14 24 12 10 -5z
m150 11 c0 -2 -7 -7 -16 -10 -8 -3 -12 -2 -9 4 6 10 25 14 25 6z m-1363 -28
c-3 -8 -6 -5 -6 6 -1 11 2 17 5 13 3 -3 4 -12 1 -19z m93 12 c0 -7 7 -7 23 0
21 10 21 10 3 -4 -10 -8 -15 -19 -11 -25 3 -6 0 -9 -8 -5 -17 6 -30 44 -16 44
5 0 9 -5 9 -10z m133 -9 c-7 -27 -30 -34 -36 -10 -3 10 -1 17 3 14 5 -3 11 -1
15 5 11 17 23 11 18 -9z m92 9 c3 -5 2 -10 -4 -10 -5 0 -13 5 -16 10 -3 6 -2
10 4 10 5 0 13 -4 16 -10z m310 0 c-4 -6 -2 -16 3 -23 8 -9 4 -12 -13 -12 -13
0 -21 2 -19 4 2 2 -1 10 -8 18 -8 11 -7 12 6 7 9 -3 16 -1 16 5 0 6 5 11 11
11 5 0 7 -5 4 -10z m382 -2 c7 20 22 14 16 -7 -3 -11 -12 -22 -21 -26 -9 -3
-13 -3 -9 1 4 4 -1 17 -10 28 -17 20 -17 20 1 6 15 -12 20 -12 23 -2z m288 2
c4 -6 10 -8 15 -5 4 3 6 -3 4 -12 -3 -11 -15 -18 -29 -18 -17 0 -21 3 -13 12
5 7 7 17 3 23 -3 5 -2 10 4 10 5 0 13 -5 16 -10z m131 -9 c0 -11 -8 -22 -17
-24 -15 -4 -16 -1 -7 19 13 29 24 31 24 5z m179 9 c-3 -5 -12 -10 -18 -10 -7
0 -6 4 3 10 19 12 23 12 15 0z m90 0 c4 -6 10 -8 15 -5 4 3 6 -4 3 -14 -6 -24
-29 -17 -36 10 -5 20 7 26 18 9z m-1728 -24 c0 -8 -6 -12 -15 -9 -11 5 -11 7
0 14 7 5 13 9 14 9 0 0 1 -6 1 -14z m400 0 c0 -8 -6 -12 -15 -9 -11 5 -11 7 0
14 7 5 13 9 14 9 0 0 1 -6 1 -14z m393 0 c-7 -7 -13 -7 -20 0 -6 6 -3 10 10
10 13 0 16 -4 10 -10z m410 7 c0 -1 -8 -7 -18 -12 -13 -7 -19 -6 -19 2 0 7 9
13 19 13 10 0 18 -1 18 -3z m390 -8 c0 -2 -6 -5 -13 -8 -8 -3 -14 1 -14 8 0 7
6 11 14 8 7 -3 13 -6 13 -8z m-739 -27 c4 1 5 -6 2 -16 -2 -10 -14 -17 -28
-17 -17 0 -21 3 -13 13 7 8 6 17 -3 29 -13 15 -12 15 11 3 14 -8 28 -13 31
-12z m677 0 c2 7 8 12 13 12 6 0 7 -5 4 -10 -4 -6 -2 -16 3 -23 8 -9 4 -12
-13 -12 -13 0 -21 3 -19 7 2 3 -8 16 -23 28 l-28 22 29 -17 c21 -13 31 -14 34
-7z m-1592 -5 c-1 -18 -23 -39 -32 -31 -3 4 24 48 30 48 2 0 3 -8 2 -17z m94
6 c0 -6 7 -8 16 -5 13 5 14 4 6 -7 -7 -8 -10 -16 -8 -18 2 -2 -6 -4 -19 -4
-17 0 -21 3 -13 12 5 7 7 17 3 23 -3 5 -1 10 4 10 6 0 11 -5 11 -11z m306 -6
c-1 -17 -14 -32 -26 -33 -3 0 -6 9 -6 19 0 11 4 18 7 15 4 -2 10 0 14 6 9 15
13 12 11 -7z m99 7 c4 -6 10 -8 15 -5 4 3 6 -4 3 -14 -6 -24 -29 -17 -36 10
-5 20 7 26 18 9z m306 -3 c-6 -8 -9 -16 -6 -19 3 -3 -7 -10 -22 -17 -23 -11
-25 -10 -14 3 7 8 9 21 5 27 -4 7 -3 9 4 5 6 -3 13 -2 17 4 3 5 11 10 17 10 7
0 7 -4 -1 -13z m402 -6 c-7 -27 -30 -34 -36 -10 -3 10 -1 17 3 14 5 -3 11 -1
15 5 11 17 23 11 18 -9z m92 9 c4 -6 10 -8 14 -6 3 3 7 -4 7 -15 0 -10 -3 -19
-6 -19 -9 0 -35 20 -26 20 5 0 3 7 -4 15 -8 9 -9 15 -2 15 6 0 14 -5 17 -10z
m429 1 c20 10 20 9 2 -5 -10 -8 -15 -19 -11 -25 3 -6 3 -11 -2 -11 -15 0 -28
15 -30 34 -1 13 2 15 9 8 8 -8 18 -8 32 -1z m-1474 -10 c0 -5 -9 -11 -19 -14
-14 -3 -18 -1 -14 9 6 15 33 19 33 5z m400 -1 c0 -5 -2 -10 -4 -10 -3 0 -8 5
-11 10 -3 6 -1 10 4 10 6 0 11 -4 11 -10z m411 -7 c13 -15 12 -15 -8 -4 -24
12 -29 21 -14 21 5 0 15 -7 22 -17z m389 13 c0 -3 -4 -8 -10 -11 -5 -3 -10 -1
-10 4 0 6 5 11 10 11 6 0 10 -2 10 -4z m-1556 -31 c3 -8 1 -15 -4 -15 -6 0
-10 7 -10 15 0 8 2 15 4 15 2 0 6 -7 10 -15z m1903 -7 c-3 -8 -6 -5 -6 6 -1
11 2 17 5 13 3 -3 4 -12 1 -19z m-1602 2 c-3 -5 -11 -10 -16 -10 -6 0 -7 5 -4
10 3 6 11 10 16 10 6 0 7 -4 4 -10z m246 -8 c-7 -2 -18 1 -23 6 -8 8 -4 9 13
5 13 -4 18 -8 10 -11z m159 14 c0 -3 -4 -8 -10 -11 -5 -3 -10 -1 -10 4 0 6 5
11 10 11 6 0 10 -2 10 -4z m95 -6 c3 -5 1 -10 -4 -10 -6 0 -11 5 -11 10 0 6 2
10 4 10 3 0 8 -4 11 -10z m300 0 c-3 -5 -12 -10 -18 -10 -7 0 -6 4 3 10 19 12
23 12 15 0z m389 -8 c-10 -10 -25 -19 -31 -19 -22 0 -14 13 15 24 38 15 38 15
16 -5z m121 0 c-3 -3 -11 0 -18 7 -9 10 -8 11 6 5 10 -3 15 -9 12 -12z m-1455
4 c0 -3 -4 -8 -10 -11 -5 -3 -10 -1 -10 4 0 6 5 11 10 11 6 0 10 -2 10 -4z
m294 -11 c-4 -8 -12 -15 -20 -15 -20 0 -17 18 4 23 9 3 18 5 19 6 1 0 0 -6 -3
-14z m906 5 c0 -5 -2 -10 -4 -10 -3 0 -8 5 -11 10 -3 6 -1 10 4 10 6 0 11 -4
11 -10z m-1311 -14 c10 -12 8 -13 -8 -9 -12 3 -21 9 -21 14 0 14 16 11 29 -5z
m625 6 c3 -5 -1 -9 -9 -9 -8 0 -15 4 -15 9 0 4 4 8 9 8 6 0 12 -4 15 -8z m176
4 c0 -2 -7 -6 -15 -10 -8 -3 -15 -1 -15 4 0 6 7 10 15 10 8 0 15 -2 15 -4z
m240 -17 l25 -20 -25 12 c-14 7 -28 12 -32 11 -5 -1 -8 3 -8 8 0 15 12 12 40
-11z m160 11 c0 -5 -4 -10 -10 -10 -5 0 -10 5 -10 10 0 6 5 10 10 10 6 0 10
-4 10 -10z m400 0 c0 -5 -4 -10 -10 -10 -5 0 -10 5 -10 10 0 6 5 10 10 10 6 0
10 -4 10 -10z m230 2 c0 -5 -7 -9 -15 -9 -8 0 -15 4 -15 9 0 4 7 8 15 8 8 0
15 -4 15 -8z m-587 -22 c3 -11 1 -20 -4 -20 -5 0 -9 9 -9 20 0 11 2 20 4 20 2
0 6 -9 9 -20z m-1288 0 c-3 -5 -11 -10 -16 -10 -6 0 -7 5 -4 10 3 6 11 10 16
10 6 0 7 -4 4 -10z m399 -5 c-4 -8 -8 -15 -10 -15 -2 0 -4 7 -4 15 0 8 4 15
10 15 5 0 7 -7 4 -15z m816 11 c0 -2 -7 -7 -16 -10 -8 -3 -12 -2 -9 4 6 10 25
14 25 6z m210 -11 c-7 -8 -18 -15 -24 -15 -6 0 -2 7 8 15 25 19 32 19 16 0z
m180 5 c0 -5 -5 -10 -11 -10 -5 0 -7 5 -4 10 3 6 8 10 11 10 2 0 4 -4 4 -10z
m84 -5 c3 -8 1 -15 -4 -15 -6 0 -10 7 -10 15 0 8 2 15 4 15 2 0 6 -7 10 -15z
m216 5 c0 -5 -2 -10 -4 -10 -3 0 -8 5 -11 10 -3 6 -1 10 4 10 6 0 11 -4 11
-10z m-1809 -17 c13 -15 12 -15 -8 -4 -24 12 -29 21 -14 21 5 0 15 -7 22 -17z
m119 7 c0 -5 -8 -10 -17 -10 -15 0 -16 2 -3 10 19 12 20 12 20 0z m275 0 c3
-5 2 -10 -4 -10 -5 0 -13 5 -16 10 -3 6 -2 10 4 10 5 0 13 -4 16 -10z m125 -6
c0 -8 -5 -12 -10 -9 -6 4 -8 11 -5 16 9 14 15 11 15 -7z m275 7 c3 -5 1 -12
-4 -15 -5 -3 -11 1 -15 9 -6 16 9 21 19 6z m930 -1 c-3 -5 -11 -10 -16 -10 -6
0 -7 5 -4 10 3 6 11 10 16 10 6 0 7 -4 4 -10z m-1663 -29 c-5 -3 -12 -15 -15
-26 -4 -17 -5 -17 -6 4 -1 17 -5 22 -18 17 -16 -5 -16 -4 0 8 11 8 26 12 34 9
8 -3 10 -8 5 -12z m198 9 c0 -5 -7 -10 -15 -10 -8 0 -15 5 -15 10 0 6 7 10 15
10 8 0 15 -4 15 -10z m223 -3 c-3 -5 4 -11 16 -14 12 -3 21 -10 21 -15 0 -6
-10 -4 -22 4 -13 9 -37 14 -54 13 -17 -1 -31 3 -31 9 0 6 17 11 38 11 20 0 35
-3 32 -8z m177 3 c0 -5 -2 -10 -4 -10 -3 0 -8 5 -11 10 -3 6 -1 10 4 10 6 0
11 -4 11 -10z m227 -5 c0 -6 -17 -10 -37 -10 -20 0 -37 4 -37 10 0 6 17 10 37
10 20 0 37 -4 37 -10z m173 5 c0 -5 -2 -10 -4 -10 -3 0 -8 5 -11 10 -3 6 -1
10 4 10 6 0 11 -4 11 -10z m227 -5 c0 -6 -17 -10 -37 -10 -20 0 -37 4 -37 10
0 6 17 10 37 10 20 0 37 -4 37 -10z m182 1 c10 -12 8 -13 -8 -9 -12 3 -21 9
-21 14 0 14 16 11 29 -5z m218 -2 c0 -6 -13 -10 -29 -8 -16 2 -40 -3 -54 -12
-13 -9 -24 -12 -24 -6 0 5 9 12 21 15 12 3 19 9 16 14 -3 4 12 8 32 8 21 0 38
-5 38 -11z m-677 -14 c0 -5 -10 -15 -22 -21 l-23 -12 20 21 c23 24 25 25 25
12z m-1105 -10 c3 -5 1 -10 -4 -10 -6 0 -11 5 -11 10 0 6 2 10 4 10 3 0 8 -4
11 -10z m85 0 c0 -5 -5 -10 -11 -10 -5 0 -7 5 -4 10 3 6 8 10 11 10 2 0 4 -4
4 -10z m215 0 c-3 -5 -12 -10 -18 -10 -7 0 -6 4 3 10 19 12 23 12 15 0z m100
1 c3 -5 1 -12 -5 -16 -5 -3 -10 1 -10 9 0 18 6 21 15 7z m90 -1 c-3 -5 -11
-10 -16 -10 -6 0 -7 5 -4 10 3 6 11 10 16 10 6 0 7 -4 4 -10z m310 0 c3 -5 1
-10 -4 -10 -6 0 -11 5 -11 10 0 6 2 10 4 10 3 0 8 -4 11 -10z m95 6 c0 -3 -4
-8 -10 -11 -5 -3 -10 -1 -10 4 0 6 5 11 10 11 6 0 10 -2 10 -4z m400 0 c0 -3
-4 -8 -10 -11 -5 -3 -10 -1 -10 4 0 6 5 11 10 11 6 0 10 -2 10 -4z m125 -6 c3
-5 2 -10 -4 -10 -5 0 -13 5 -16 10 -3 6 -2 10 4 10 5 0 13 -4 16 -10z m190 0
c3 -5 2 -10 -4 -10 -5 0 -13 5 -16 10 -3 6 -2 10 4 10 5 0 13 -4 16 -10z m216
-7 c13 -15 12 -15 -8 -4 -24 12 -29 21 -14 21 5 0 15 -7 22 -17z m79 7 c0 -5
-5 -10 -11 -10 -5 0 -7 5 -4 10 3 6 8 10 11 10 2 0 4 -4 4 -10z m-1850 -17 c0
-1 -8 -7 -18 -12 -13 -7 -19 -6 -19 2 0 7 9 13 19 13 10 0 18 -1 18 -3z m210
2 c0 -2 -10 -9 -22 -15 -22 -11 -22 -10 -4 4 21 17 26 19 26 11z m180 -10 c0
-2 -6 -5 -13 -8 -8 -3 -14 1 -14 8 0 7 6 11 14 8 7 -3 13 -6 13 -8z m220 8 c0
-1 -8 -7 -18 -12 -13 -7 -19 -6 -19 2 0 7 9 13 19 13 10 0 18 -1 18 -3z m193
-5 c-2 -5 -10 -8 -18 -8 -8 0 -16 3 -18 8 -3 4 5 7 18 7 13 0 21 -3 18 -7z
m171 -20 c-14 -11 -27 -18 -30 -15 -3 3 4 10 15 17 12 6 19 15 16 20 -3 6 1 7
9 4 13 -5 11 -10 -10 -26z m233 17 c0 -5 -10 -10 -22 -10 -12 0 -22 5 -22 10
0 6 10 10 22 10 12 0 22 -4 22 -10z m208 5 c-3 -5 -12 -10 -19 -10 -8 0 -19
-7 -26 -15 -7 -8 -17 -15 -23 -15 -15 0 2 16 38 34 35 19 38 19 30 6z m192 -4
c0 -8 -6 -12 -15 -9 -11 5 -11 7 0 14 7 5 13 9 14 9 0 0 1 -6 1 -14z m210 7
c-4 -3 -1 -13 6 -21 11 -13 9 -14 -10 -1 -16 9 -19 16 -10 21 15 9 23 10 14 1z
m-1472 -22 c3 -5 2 -12 -3 -15 -5 -3 -9 1 -9 9 0 17 3 19 12 6z m302 -8 c0 -7
-4 -13 -7 -13 -4 0 -12 6 -18 13 -8 10 -6 13 7 13 10 0 18 -6 18 -13z m1123 2
c-7 -9 -15 -13 -19 -10 -3 3 1 10 9 15 21 14 24 12 10 -5z m-1820 1 c0 -3 -4
-8 -10 -11 -5 -3 -10 -1 -10 4 0 6 5 11 10 11 6 0 10 -2 10 -4z m80 -6 c0 -5
-2 -10 -4 -10 -3 0 -8 5 -11 10 -3 6 -1 10 4 10 6 0 11 -4 11 -10z m130 1 c0
-5 -10 -11 -22 -15 l-23 -6 25 -21 25 -21 -27 16 c-15 9 -40 14 -56 12 -17 -2
-29 2 -29 9 0 7 12 11 30 9 16 -2 38 3 50 11 25 17 27 18 27 6z m85 -1 c3 -5
2 -10 -4 -10 -5 0 -13 5 -16 10 -3 6 -2 10 4 10 5 0 13 -4 16 -10z m190 0 c3
-5 2 -10 -4 -10 -5 0 -13 5 -16 10 -3 6 -2 10 4 10 5 0 13 -4 16 -10z m400 0
c3 -5 1 -10 -4 -10 -6 0 -11 5 -11 10 0 6 2 10 4 10 3 0 8 -4 11 -10z m210 0
c3 -6 -1 -7 -9 -4 -18 7 -21 14 -7 14 6 0 13 -4 16 -10z m190 0 c3 -5 1 -10
-4 -10 -6 0 -11 5 -11 10 0 6 2 10 4 10 3 0 8 -4 11 -10z m215 -5 c0 -8 -2
-15 -4 -15 -2 0 -6 7 -10 15 -3 8 -1 15 4 15 6 0 10 -7 10 -15z m105 5 c-3 -5
-11 -10 -16 -10 -6 0 -7 5 -4 10 3 6 11 10 16 10 6 0 7 -4 4 -10z m80 0 c3 -5
1 -10 -4 -10 -6 0 -11 5 -11 10 0 6 2 10 4 10 3 0 8 -4 11 -10z m-1112 -23
c-3 -5 4 -11 16 -14 12 -3 21 -12 21 -20 0 -10 -6 -8 -22 7 -15 14 -32 19 -53
17 -18 -2 -32 1 -32 7 0 6 17 11 38 11 20 0 35 -4 32 -8z m404 -2 c0 -6 -17
-10 -37 -10 -20 0 -37 4 -37 10 0 6 17 10 37 10 20 0 37 -4 37 -10z m400 0 c0
-6 -17 -10 -37 -10 -20 0 -37 4 -37 10 0 5 17 10 37 10 20 0 37 -5 37 -10z
m400 0 c0 -5 -17 -10 -37 -10 -20 0 -37 5 -37 10 0 6 17 10 37 10 20 0 37 -4
37 -10z m-1427 -7 c0 -4 -4 -8 -9 -8 -6 0 -12 4 -15 8 -3 5 1 9 9 9 8 0 15 -4
15 -9z m400 2 c0 -5 -4 -10 -9 -10 -6 0 -13 5 -16 10 -3 6 1 10 9 10 9 0 16
-4 16 -10z m400 0 c0 -5 -5 -10 -11 -10 -5 0 -7 5 -4 10 3 6 8 10 11 10 2 0 4
-4 4 -10z m405 0 c-3 -5 -10 -10 -16 -10 -5 0 -9 5 -9 10 0 6 7 10 16 10 8 0
12 -4 9 -10z m128 -5 c4 -8 2 -17 -3 -20 -6 -4 -10 3 -10 14 0 25 6 27 13 6z
m-1598 -15 c-3 -5 -11 -10 -16 -10 -6 0 -7 5 -4 10 3 6 11 10 16 10 6 0 7 -4
4 -10z m405 6 c0 -3 -4 -8 -10 -11 -5 -3 -10 -1 -10 4 0 6 5 11 10 11 6 0 10
-2 10 -4z m400 0 c0 -3 -4 -8 -10 -11 -5 -3 -10 -1 -10 4 0 6 5 11 10 11 6 0
10 -2 10 -4z m120 -6 c0 -5 -2 -10 -4 -10 -3 0 -8 5 -11 10 -3 6 -1 10 4 10 6
0 11 -4 11 -10z m280 6 c0 -3 -4 -8 -10 -11 -5 -3 -10 -1 -10 4 0 6 5 11 10
11 6 0 10 -2 10 -4z m120 -6 c0 -5 -2 -10 -4 -10 -3 0 -8 5 -11 10 -3 6 -1 10
4 10 6 0 11 -4 11 -10z m405 0 c3 -5 2 -10 -4 -10 -5 0 -13 5 -16 10 -3 6 -2
10 4 10 5 0 13 -4 16 -10z m95 -5 c-7 -8 -18 -15 -24 -15 -6 0 -2 7 8 15 25
19 32 19 16 0z m-1915 -4 c3 -5 1 -12 -4 -15 -5 -3 -11 1 -15 9 -6 16 9 21 19
6z m300 -1 c-3 -5 -12 -10 -18 -10 -7 0 -6 4 3 10 19 12 23 12 15 0z m100 0
c3 -5 1 -10 -4 -10 -6 0 -11 5 -11 10 0 6 2 10 4 10 3 0 8 -4 11 -10z m800 0
c3 -5 1 -10 -4 -10 -6 0 -11 5 -11 10 0 6 2 10 4 10 3 0 8 -4 11 -10z m305 0
c0 -5 -5 -10 -11 -10 -5 0 -7 5 -4 10 3 6 8 10 11 10 2 0 4 -4 4 -10z m-1475
-20 c3 -5 1 -10 -4 -10 -6 0 -11 5 -11 10 0 6 2 10 4 10 3 0 8 -4 11 -10z
m235 0 c0 -5 -5 -10 -11 -10 -5 0 -7 5 -4 10 3 6 8 10 11 10 2 0 4 -4 4 -10z
m184 -6 c3 -7 -2 -10 -15 -7 -22 6 -26 20 -4 20 8 0 16 -6 19 -13z m216 6 c0
-5 -4 -10 -10 -10 -5 0 -10 5 -10 10 0 6 5 10 10 10 6 0 10 -4 10 -10z m184
-6 c3 -8 0 -11 -9 -8 -7 3 -23 1 -34 -6 -14 -7 -21 -7 -21 0 0 5 7 10 15 10 8
0 15 4 15 8 0 14 29 10 34 -4z m256 -20 c0 -1 -13 3 -30 9 -17 6 -25 14 -18
18 8 5 48 -17 48 -27z m140 24 c0 -4 -4 -8 -9 -8 -6 0 -12 4 -15 8 -3 5 1 9 9
9 8 0 15 -4 15 -9z m230 1 c0 -3 -9 -9 -19 -12 -13 -3 -18 0 -15 7 5 13 34 18
34 5z m400 -1 c0 -4 -7 -8 -15 -8 -8 0 -15 4 -15 8 0 5 7 9 15 9 8 0 15 -4 15
-9z m-1725 -8 c3 -5 1 -10 -4 -10 -6 0 -11 5 -11 10 0 6 2 10 4 10 3 0 8 -4
11 -10z m400 0 c3 -5 1 -10 -4 -10 -6 0 -11 5 -11 10 0 6 2 10 4 10 3 0 8 -4
11 -10z m1205 0 c0 -5 -5 -10 -11 -10 -5 0 -7 5 -4 10 3 6 8 10 11 10 2 0 4
-4 4 -10z m-1750 -5 c0 -2 -10 -10 -22 -16 -21 -11 -22 -11 -9 4 13 16 31 23
31 12z m295 -13 c-3 -3 -11 0 -18 7 -9 10 -8 11 6 5 10 -3 15 -9 12 -12z m99
3 c-4 -8 -8 -15 -10 -15 -2 0 -4 7 -4 15 0 8 4 15 10 15 5 0 7 -7 4 -15z m301
5 c3 -5 2 -10 -4 -10 -5 0 -13 5 -16 10 -3 6 -2 10 4 10 5 0 13 -4 16 -10z
m325 -5 c-6 -8 -8 -20 -4 -26 4 -7 3 -9 -4 -5 -6 3 -13 2 -17 -4 -3 -5 -11
-10 -17 -10 -7 0 -6 6 2 15 7 8 9 15 4 15 -5 1 2 7 16 15 32 18 35 18 20 0z
m190 11 c0 -2 -7 -7 -16 -10 -8 -3 -12 -2 -9 4 6 10 25 14 25 6z m395 -6 c-3
-5 -11 -10 -16 -10 -6 0 -7 5 -4 10 3 6 11 10 16 10 6 0 7 -4 4 -10z m95 -34
c0 -16 -2 -18 -9 -7 -5 8 -14 10 -21 6 -9 -5 -11 -4 -6 4 4 6 2 19 -5 27 -11
13 -9 14 14 3 17 -8 27 -20 27 -33z m197 22 c-3 -8 -6 -5 -6 6 -1 11 2 17 5
13 3 -3 4 -12 1 -19z m-1817 1 c0 -5 4 -8 8 -5 4 2 8 -4 8 -15 0 -12 -4 -15
-10 -9 -6 6 -17 5 -30 -1 -20 -10 -20 -9 -2 5 10 8 15 19 11 25 -3 6 -1 11 4
11 6 0 11 -5 11 -11z m133 -9 c3 -11 1 -18 -3 -15 -5 3 -11 1 -15 -5 -10 -17
-25 -11 -18 8 5 13 21 31 29 32 1 0 4 -9 7 -20z m272 12 c6 -4 11 -15 11 -25
2 -13 -1 -15 -10 -7 -7 5 -15 8 -17 5 -3 -2 -5 5 -5 15 0 21 5 24 21 12z m128
-12 c3 -11 1 -18 -3 -15 -5 3 -11 1 -15 -5 -10 -17 -25 -11 -18 8 5 13 21 31
29 32 1 0 4 -9 7 -20z m277 10 c8 -5 11 -10 6 -10 -5 0 -1 -10 10 -21 l19 -22
-25 14 c-14 7 -27 13 -30 12 -3 -1 -6 7 -6 18 0 21 4 23 26 9z m415 -17 c-6
-14 -14 -18 -21 -12 -6 5 -13 6 -17 3 -3 -3 -3 2 -1 13 3 11 14 18 27 18 20 0
21 -3 12 -22z m111 7 c0 -10 -2 -17 -5 -15 -2 3 -11 -1 -18 -7 -12 -10 -14 -8
-11 8 6 34 34 46 34 14z m394 0 c-6 -11 -20 -24 -33 -30 -21 -10 -21 -10 -3 4
10 8 15 19 12 24 -3 6 0 13 6 15 24 10 29 7 18 -13z m-1460 -15 c0 -1 -9 -5
-19 -8 -13 -3 -18 -1 -14 9 4 10 33 10 33 -1z m400 3 c0 -4 -4 -8 -9 -8 -6 0
-12 4 -15 8 -3 5 1 9 9 9 8 0 15 -4 15 -9z m395 2 c3 -5 1 -10 -4 -10 -6 0
-11 5 -11 10 0 6 2 10 4 10 3 0 8 -4 11 -10z m405 0 c0 -5 -4 -10 -10 -10 -5
0 -10 5 -10 10 0 6 5 10 10 10 6 0 10 -4 10 -10z m-1137 -51 c5 -20 -7 -26
-18 -9 -4 6 -11 7 -17 4 -7 -4 -8 -2 -4 5 4 6 2 19 -5 27 -11 13 -9 14 13 3
15 -6 29 -20 31 -30z m420 24 c-13 -8 -23 -22 -23 -30 0 -12 -3 -13 -13 -4 -8
6 -18 7 -23 3 -4 -4 -3 0 4 9 6 9 9 19 5 23 -4 4 0 4 9 1 9 -4 25 -2 35 4 27
16 31 12 6 -6z m252 1 c7 2 15 -4 18 -15 3 -10 1 -17 -3 -14 -5 3 -11 1 -15
-5 -3 -5 -11 -10 -16 -10 -6 0 -7 5 -3 11 4 7 -4 20 -17 31 l-24 19 23 -11
c13 -6 30 -9 37 -6z m830 3 c-12 -9 -15 -19 -10 -28 5 -8 5 -11 0 -7 -4 4 -13
4 -19 -1 -7 -6 -15 -2 -22 14 -9 18 -9 22 2 18 7 -2 21 0 31 6 26 15 40 13 18
-2z m-1921 -3 c9 -3 13 -10 10 -15 -3 -5 11 -18 30 -30 20 -12 36 -22 36 -23
0 -1 -9 -2 -19 -2 -11 0 -18 3 -16 6 2 3 -10 13 -26 22 -16 10 -31 13 -34 7
-4 -5 -11 -9 -18 -9 -6 0 -3 6 8 13 10 8 15 19 11 25 -8 14 -4 15 18 6z m301
-5 c-4 -6 1 -17 11 -25 18 -14 18 -14 -3 -4 -16 7 -23 7 -23 0 0 -5 -4 -10 -9
-10 -15 0 -7 34 9 42 21 9 22 9 15 -3z m262 -2 c0 -7 -9 -13 -19 -13 -18 0
-18 1 -2 13 10 7 18 13 19 13 1 0 2 -6 2 -13z m140 6 c-4 -3 1 -16 10 -27 17
-20 17 -20 1 -7 -14 10 -21 11 -32 2 -11 -9 -14 -8 -12 6 0 10 8 21 16 25 20
9 25 9 17 1z m519 -24 c0 -21 -11 -25 -21 -9 -4 6 -12 7 -18 3 -8 -5 -8 -2 0
9 7 8 10 17 7 21 -3 3 3 3 13 1 10 -3 19 -14 19 -25z m134 16 c0 -2 -6 -5 -13
-8 -8 -3 -14 1 -14 8 0 7 6 11 14 8 7 -3 13 -6 13 -8z m154 -8 c2 -9 0 -15 -4
-12 -5 3 -11 1 -15 -5 -3 -5 -11 -10 -16 -10 -6 0 -7 5 -4 10 4 6 2 16 -3 23
-8 9 -4 12 13 12 14 0 26 -7 29 -18z m112 -8 c0 -24 -17 -20 -27 8 -6 17 -4
20 10 16 9 -2 17 -13 17 -24z m-1458 9 c10 -10 15 -10 22 2 8 12 10 10 10 -9
0 -23 -1 -23 -25 -7 -14 9 -31 14 -37 10 -7 -4 -8 -3 -4 4 9 15 19 15 34 0z
m796 4 c2 -4 -4 -8 -14 -8 -10 0 -16 4 -14 8 3 4 9 8 14 8 5 0 11 -4 14 -8z
m800 0 c2 -4 -4 -8 -14 -8 -10 0 -16 4 -14 8 3 4 9 8 14 8 5 0 11 -4 14 -8z
m-1654 -27 c-7 -9 -15 -13 -19 -10 -3 3 1 10 9 15 21 14 24 12 10 -5z m795 -4
c-3 -6 -11 -11 -17 -11 -6 0 -6 6 2 15 14 17 26 13 15 -4z m105 4 c11 -13 10
-14 -4 -9 -9 3 -16 10 -16 15 0 13 6 11 20 -6z m410 -11 c0 -2 -9 0 -20 6 -11
6 -20 13 -20 16 0 2 9 0 20 -6 11 -6 20 -13 20 -16z m385 16 c3 -5 2 -10 -4
-10 -5 0 -13 5 -16 10 -3 6 -2 10 4 10 5 0 13 -4 16 -10z m-1300 -10 c-3 -5
-11 -10 -16 -10 -6 0 -7 5 -4 10 3 6 11 10 16 10 6 0 7 -4 4 -10z m660 0 c-3
-5 -12 -10 -18 -10 -7 0 -6 4 3 10 19 12 23 12 15 0z m390 -8 c-3 -3 -11 0
-18 7 -9 10 -8 11 6 5 10 -3 15 -9 12 -12z m-1320 -10 c-3 -3 -11 0 -18 7 -9
10 -8 11 6 5 10 -3 15 -9 12 -12z m245 -8 c0 -3 -5 -2 -10 1 -6 4 -19 1 -28
-7 -15 -11 -15 -11 -5 3 7 9 9 19 5 24 -4 4 3 2 16 -4 12 -6 22 -14 22 -17z
m180 19 c0 -1 -9 -7 -19 -12 -14 -8 -20 -7 -24 2 -3 7 5 12 19 12 13 0 24 -1
24 -2z m400 2 c0 -2 -10 -9 -22 -15 -22 -11 -22 -10 -4 4 21 17 26 19 26 11z
m223 -7 c-2 -5 -10 -8 -18 -8 -8 0 -16 3 -18 8 -3 4 5 7 18 7 13 0 21 -3 18
-7z m407 7 c0 -2 -10 -9 -22 -15 -22 -11 -22 -10 -4 4 21 17 26 19 26 11z
m-815 -15 c3 -6 -1 -7 -9 -4 -18 7 -21 14 -7 14 6 0 13 -4 16 -10z m586 -7
c13 -16 12 -17 -3 -5 -9 8 -23 10 -29 6 -8 -4 -9 -3 -5 4 10 17 21 15 37 -5z
m393 9 c2 -4 -4 -8 -14 -8 -10 0 -16 4 -14 8 3 4 9 8 14 8 5 0 11 -4 14 -8z
m-1749 -21 c3 -5 1 -12 -5 -16 -5 -3 -10 1 -10 9 0 18 6 21 15 7z m100 -1 c-3
-5 -11 -10 -16 -10 -6 0 -7 5 -4 10 3 6 11 10 16 10 6 0 7 -4 4 -10z m325 -16
c0 -2 -9 0 -20 6 -11 6 -20 13 -20 16 0 2 9 0 20 -6 11 -6 20 -13 20 -16z m80
22 c0 -3 -4 -8 -10 -11 -5 -3 -10 -1 -10 4 0 6 5 11 10 11 6 0 10 -2 10 -4z
m400 -1 c0 -2 -10 -10 -22 -16 -21 -11 -22 -11 -9 4 13 16 31 23 31 12z m305
-5 c3 -5 2 -10 -4 -10 -5 0 -13 5 -16 10 -3 6 -2 10 4 10 5 0 13 -4 16 -10z
m95 6 c0 -3 -4 -8 -10 -11 -5 -3 -10 -1 -10 4 0 6 5 11 10 11 6 0 10 -2 10 -4z
m305 -6 c3 -5 1 -10 -4 -10 -6 0 -11 5 -11 10 0 6 2 10 4 10 3 0 8 -4 11 -10z
m-1695 -4 c0 -2 -7 -7 -16 -10 -8 -3 -12 -2 -9 4 6 10 25 14 25 6z m358 -32
c9 -7 4 -10 -19 -8 -17 1 -36 7 -43 14 -8 8 -7 10 7 5 12 -5 17 -2 17 11 0 15
2 16 13 3 6 -8 18 -19 25 -25z m-208 21 c0 -2 -10 -9 -22 -15 -22 -11 -22 -10
-4 4 21 17 26 19 26 11z m1418 -11 c-8 -9 -30 -17 -48 -18 -29 -2 -30 -1 -14
11 10 7 26 11 35 8 10 -3 20 -1 24 5 3 5 9 10 13 10 3 0 -1 -7 -10 -16z
m-1024 -2 c2 -4 -4 -8 -14 -8 -10 0 -16 4 -14 8 3 4 9 8 14 8 5 0 11 -4 14 -8z
m206 -1 c3 -1 -1 -5 -9 -10 -15 -10 -41 -4 -41 9 0 6 30 7 50 1z m194 1 c2 -4
-4 -8 -14 -8 -10 0 -16 4 -14 8 3 4 9 8 14 8 5 0 11 -4 14 -8z m201 2 c23 -9
-1 -23 -27 -16 -15 4 -17 7 -6 13 16 11 13 10 33 3z m185 -4 c-35 -24 -54 -31
-30 -11 14 11 30 21 35 21 6 0 3 -5 -5 -10z m415 0 c3 -6 -1 -7 -9 -4 -18 7
-21 14 -7 14 6 0 13 -4 16 -10z m-1655 -25 c-7 -9 -15 -13 -19 -10 -3 3 1 10
9 15 21 14 24 12 10 -5z m985 -6 c-10 -15 -25 -10 -19 6 4 8 10 12 15 9 5 -3
7 -10 4 -15z m131 -7 c-4 -3 -14 2 -24 12 -16 18 -16 18 6 6 13 -6 21 -14 18
-18z m179 18 c3 -5 2 -10 -4 -10 -5 0 -13 5 -16 10 -3 6 -2 10 4 10 5 0 13 -4
16 -10z m406 -7 c13 -15 12 -15 -8 -4 -24 12 -29 21 -14 21 5 0 15 -7 22 -17z
m84 8 c3 -5 1 -12 -5 -16 -5 -3 -10 1 -10 9 0 18 6 21 15 7z m-1833 -25 c7 4
8 3 4 -4 -10 -16 -17 -15 -46 9 l-25 21 28 -16 c15 -9 33 -14 39 -10z m228 14
c0 -5 -5 -10 -11 -10 -5 0 -7 5 -4 10 3 6 8 10 11 10 2 0 4 -4 4 -10z m130 0
c0 -5 -2 -10 -4 -10 -3 0 -8 5 -11 10 -3 6 -1 10 4 10 6 0 11 -4 11 -10z m275
0 c-3 -5 -11 -10 -16 -10 -6 0 -7 5 -4 10 3 6 11 10 16 10 6 0 7 -4 4 -10z
m125 0 c0 -5 -2 -10 -4 -10 -3 0 -8 5 -11 10 -3 6 -1 10 4 10 6 0 11 -4 11
-10z m90 6 c0 -2 -7 -7 -16 -10 -8 -3 -12 -2 -9 4 6 10 25 14 25 6z m581 -28
c-4 -27 -6 -29 -9 -10 -2 12 -8 20 -13 16 -5 -3 -6 -10 -3 -16 4 -6 -2 -6 -15
1 -23 13 -29 23 -8 15 8 -3 20 2 27 11 20 24 27 18 21 -17z m134 22 c3 -5 1
-10 -4 -10 -6 0 -11 5 -11 10 0 6 2 10 4 10 3 0 8 -4 11 -10z m-1365 -15 c0
-2 -10 -9 -22 -15 -22 -11 -22 -10 -4 4 21 17 26 19 26 11z m210 0 c0 -2 -10
-9 -22 -15 -22 -11 -22 -10 -4 4 21 17 26 19 26 11z m190 0 c0 -2 -10 -9 -22
-15 -22 -11 -22 -10 -4 4 21 17 26 19 26 11z m213 -9 c3 -6 -6 -11 -18 -11
-12 0 -21 5 -18 11 2 6 10 11 18 11 8 0 16 -5 18 -11z m182 -4 c-3 -3 -11 0
-18 7 -9 10 -8 11 6 5 10 -3 15 -9 12 -12z m218 4 c4 -10 1 -13 -8 -9 -8 3
-12 9 -9 14 7 12 11 11 17 -5z m404 -3 c0 -8 -6 -9 -19 -2 -10 5 -18 11 -18
12 0 2 8 3 18 3 10 0 19 -6 19 -13z m183 3 c-7 -7 -13 -7 -20 0 -6 6 -3 10 10
10 13 0 16 -4 10 -10z m-857 -11 c4 -8 2 -17 -3 -20 -6 -4 -10 3 -10 14 0 25
6 27 13 6z m-973 1 c0 -3 -4 -8 -10 -11 -5 -3 -10 -1 -10 4 0 6 5 11 10 11 6
0 10 -2 10 -4z m74 -27 c-3 -6 -7 -9 -8 -7 -1 2 -8 12 -16 22 -14 18 -14 19 8
7 12 -7 20 -17 16 -22z m501 10 c-10 -15 -25 -10 -19 6 4 8 10 12 15 9 5 -3 7
-10 4 -15z m212 -1 c-3 -8 -6 -5 -6 6 -1 11 2 17 5 13 3 -3 4 -12 1 -19z m273
7 c0 -8 -2 -15 -4 -15 -2 0 -6 7 -10 15 -3 8 -1 15 4 15 6 0 10 -7 10 -15z
m797 -17 c-3 -7 -5 -2 -5 12 0 14 2 19 5 13 2 -7 2 -19 0 -25z m-1677 17 c0
-2 -10 -10 -22 -16 -21 -11 -22 -11 -9 4 13 16 31 23 31 12z m1010 -17 c0 -18
-2 -20 -9 -8 -6 8 -7 18 -5 22 9 14 14 9 14 -14z m95 12 c3 -5 2 -10 -4 -10
-5 0 -13 5 -16 10 -3 6 -2 10 4 10 5 0 13 -4 16 -10z m395 -15 c0 -14 -2 -25
-4 -25 -2 0 -6 11 -8 25 -3 14 -1 25 3 25 5 0 9 -11 9 -25z m-1330 -11 c7 -7
-1 -9 -21 -8 -17 1 -35 6 -40 11 -6 6 2 9 21 8 17 -1 35 -6 40 -11z m400 0 c5
-5 -7 -9 -29 -9 -25 0 -37 4 -34 12 5 12 50 10 63 -3z m390 6 c16 -10 13 -12
-33 -14 -26 -2 -27 -1 -11 11 21 15 24 16 44 3z m411 -3 c-5 -5 -23 -10 -41
-11 -27 -2 -30 0 -16 10 19 13 70 14 57 1z m-1421 -5 c0 -5 -7 -9 -15 -9 -8 0
-12 4 -9 9 3 4 9 8 15 8 5 0 9 -4 9 -8z m400 4 c0 -2 -7 -7 -16 -10 -8 -3 -12
-2 -9 4 6 10 25 14 25 6z m400 0 c0 -2 -7 -7 -16 -10 -8 -3 -12 -2 -9 4 6 10
25 14 25 6z m405 -6 c3 -6 -1 -7 -9 -4 -18 7 -21 14 -7 14 6 0 13 -4 16 -10z
m399 2 c3 -5 -1 -9 -9 -9 -8 0 -15 4 -15 9 0 4 4 8 9 8 6 0 12 -4 15 -8z
m-1464 -17 c-7 -8 -18 -15 -24 -15 -6 0 -2 7 8 15 25 19 32 19 16 0z m1326
-13 c-4 -3 -14 2 -24 12 -16 18 -16 18 6 6 13 -6 21 -14 18 -18z m-1516 3 c-7
-9 -15 -13 -19 -10 -3 3 1 10 9 15 21 14 24 12 10 -5z m87 -17 c-3 -7 -5 -2
-5 12 0 14 2 19 5 13 2 -7 2 -19 0 -25z m223 22 c0 -5 -2 -10 -4 -10 -3 0 -8
5 -11 10 -3 6 -1 10 4 10 6 0 11 -4 11 -10z m275 0 c-3 -5 -11 -10 -16 -10 -6
0 -7 5 -4 10 3 6 11 10 16 10 6 0 7 -4 4 -10z m130 0 c3 -5 2 -10 -4 -10 -5 0
-13 5 -16 10 -3 6 -2 10 4 10 5 0 13 -4 16 -10z m190 -19 c-6 -5 -25 10 -25
20 0 5 6 4 14 -3 8 -7 12 -15 11 -17z m80 19 c-3 -5 -11 -10 -16 -10 -6 0 -7
5 -4 10 3 6 11 10 16 10 6 0 7 -4 4 -10z m130 0 c3 -5 2 -10 -4 -10 -5 0 -13
5 -16 10 -3 6 -2 10 4 10 5 0 13 -4 16 -10z m270 0 c-3 -5 -11 -10 -16 -10 -6
0 -7 5 -4 10 3 6 11 10 16 10 6 0 7 -4 4 -10z m399 -5 c-4 -8 -8 -15 -10 -15
-2 0 -4 7 -4 15 0 8 4 15 10 15 5 0 7 -7 4 -15z m-1389 -5 c-3 -5 -11 -10 -16
-10 -6 0 -7 5 -4 10 3 6 11 10 16 10 6 0 7 -4 4 -10z m402 -4 c0 -8 -6 -12
-14 -9 -7 3 -13 0 -13 -6 0 -6 -7 -8 -16 -4 -12 4 -11 8 8 18 31 17 35 17 35
1z m387 -5 c-14 -13 -24 -16 -36 -9 -22 11 -24 20 -4 12 8 -3 23 -1 33 5 27
15 29 13 7 -8z m121 9 c3 -5 2 -10 -4 -10 -5 0 -13 5 -16 10 -3 6 -2 10 4 10
5 0 13 -4 16 -10z m295 0 c0 -5 -5 -10 -11 -10 -5 0 -7 5 -4 10 3 6 8 10 11
10 2 0 4 -4 4 -10z m100 0 c0 -5 -2 -10 -4 -10 -3 0 -8 5 -11 10 -3 6 -1 10 4
10 6 0 11 -4 11 -10z m-1569 -18 c-7 -2 -18 1 -23 6 -8 8 -4 9 13 5 13 -4 18
-8 10 -11z m-172 5 c-2 -1 -13 -9 -24 -17 -19 -14 -19 -14 -6 3 7 9 18 17 24
17 6 0 8 -1 6 -3z m401 -1 c0 -3 -4 -8 -10 -11 -5 -3 -10 -1 -10 4 0 6 5 11
10 11 6 0 10 -2 10 -4z m180 -4 c0 -5 -7 -9 -15 -9 -8 0 -12 4 -9 9 3 4 9 8
15 8 5 0 9 -4 9 -8z m400 0 c0 -5 -7 -9 -15 -9 -8 0 -12 4 -9 9 3 4 9 8 15 8
5 0 9 -4 9 -8z m400 0 c0 -5 -7 -9 -15 -9 -8 0 -12 4 -9 9 3 4 9 8 15 8 5 0 9
-4 9 -8z m230 -2 c0 -5 -2 -10 -4 -10 -3 0 -8 5 -11 10 -3 6 -1 10 4 10 6 0
11 -4 11 -10z m-1326 -8 c3 -5 -1 -9 -9 -9 -8 0 -12 4 -9 9 3 4 7 8 9 8 2 0 6
-4 9 -8z m396 4 c0 -2 -8 -10 -17 -17 -16 -13 -17 -12 -4 4 13 16 21 21 21 13z
m860 -21 c16 10 12 -21 -6 -36 -13 -11 -15 -10 -12 3 1 8 -8 25 -22 37 l-25
22 27 -16 c15 -9 32 -14 38 -10z m-1505 5 c3 -5 2 -10 -4 -10 -5 0 -13 5 -16
10 -3 6 -2 10 4 10 5 0 13 -4 16 -10z m100 0 c-3 -5 -11 -10 -16 -10 -6 0 -7
5 -4 10 3 6 11 10 16 10 6 0 7 -4 4 -10z m405 6 c0 -3 -4 -8 -10 -11 -5 -3
-10 -1 -10 4 0 6 5 11 10 11 6 0 10 -2 10 -4z m599 -12 c5 3 11 -4 14 -15 3
-12 3 -18 0 -15 -4 3 -13 0 -20 -6 -12 -10 -14 -9 -11 4 1 10 -6 24 -17 33
-20 16 -19 16 3 5 12 -6 26 -9 31 -6z m101 6 c0 -5 -2 -10 -4 -10 -3 0 -8 5
-11 10 -3 6 -1 10 4 10 6 0 11 -4 11 -10z m203 -32 c3 -10 2 -18 -2 -18 -5 0
-11 5 -13 11 -3 9 -10 9 -28 0 -24 -12 -24 -11 -5 4 11 9 19 23 17 32 -3 14
-2 14 10 2 8 -8 17 -22 21 -31z m197 27 c0 -8 -2 -15 -4 -15 -2 0 -6 7 -10 15
-3 8 -1 15 4 15 6 0 10 -7 10 -15z m203 -27 c3 -10 2 -18 -3 -18 -6 0 -10 5
-10 11 0 6 -7 8 -17 4 -14 -5 -15 -3 -6 6 6 6 9 19 5 28 -5 14 -4 14 9 1 8 -8
18 -23 22 -32z m-1896 25 c-4 -3 -1 -13 6 -21 10 -13 9 -14 -2 -8 -8 5 -17 3
-22 -5 -7 -11 -9 -9 -9 8 0 12 6 24 13 26 18 8 21 8 14 0z m292 -9 c-5 -6 -4
-16 4 -23 9 -11 9 -13 -2 -9 -8 2 -21 14 -28 25 -13 19 -12 21 11 19 16 -1 21
-5 15 -12z m108 9 c-4 -3 -1 -13 6 -21 10 -13 9 -14 -2 -8 -8 5 -17 3 -23 -5
-7 -11 -8 -9 -6 6 2 11 8 23 13 27 12 10 21 10 12 1z m289 -11 c-3 -3 -1 -11
5 -19 14 -16 -3 -17 -19 -1 -17 17 -15 39 3 31 9 -3 13 -8 11 -11z m117 -2 c3
-12 1 -18 -5 -14 -6 4 -14 0 -20 -7 -7 -11 -8 -9 -6 6 2 16 15 34 24 35 1 0 4
-9 7 -20z m283 2 c-3 -3 -1 -11 5 -19 8 -9 8 -13 1 -13 -6 0 -14 5 -17 10 -4
7 -14 6 -28 -1 -20 -9 -20 -9 -4 4 9 8 17 19 17 25 0 6 7 9 15 5 9 -3 13 -8
11 -11z m-946 -10 c0 -5 -7 -9 -15 -9 -8 0 -12 4 -9 9 3 4 9 8 15 8 5 0 9 -4
9 -8z m400 -4 c0 -6 -3 -8 -7 -5 -3 4 -13 1 -22 -6 -14 -11 -14 -10 -2 6 15
20 31 22 31 5z m400 4 c0 -5 -7 -9 -15 -9 -8 0 -12 4 -9 9 3 4 9 8 15 8 5 0 9
-4 9 -8z m800 4 c0 -3 -4 -8 -10 -11 -5 -3 -10 -1 -10 4 0 6 5 11 10 11 6 0
10 -2 10 -4z m-737 -58 c3 -10 2 -18 -3 -18 -6 0 -10 5 -10 11 0 6 -7 8 -17 4
-14 -5 -15 -3 -6 6 6 6 9 19 5 28 -5 14 -4 14 9 1 8 -8 18 -23 22 -32z m818
23 c-16 -12 -21 -23 -16 -32 8 -12 6 -12 -8 -1 -9 8 -22 10 -29 6 -10 -6 -11
-5 -1 8 7 8 9 18 5 23 -4 4 2 5 13 1 11 -3 27 -1 35 4 26 16 26 11 1 -9z
m-1742 -13 c-6 -11 -12 -18 -13 -16 -1 1 -7 10 -13 18 -9 12 -7 15 13 16 20 2
22 -1 13 -18z m124 -9 c5 -20 -7 -26 -18 -9 -4 7 -14 6 -28 -1 -20 -9 -20 -9
-4 4 9 8 17 19 17 25 0 18 28 2 33 -19z m283 23 c-3 -3 -2 -10 4 -16 6 -8 3
-12 -9 -12 -11 0 -23 7 -28 16 -8 12 -5 15 14 16 13 1 22 -1 19 -4z m116 -43
c2 -22 0 -43 -4 -45 -4 -3 -8 11 -8 31 0 30 -3 36 -16 31 -13 -5 -14 -4 -6 7
7 8 9 17 5 21 -4 4 0 4 9 1 10 -4 17 -21 20 -46z m145 37 c0 -8 -6 -12 -15 -9
-11 5 -11 7 0 14 7 5 13 9 14 9 0 0 1 -6 1 -14z m140 7 c-4 -3 -1 -13 6 -21
10 -13 9 -14 -2 -8 -8 5 -17 3 -22 -5 -7 -11 -9 -9 -9 8 0 12 6 24 13 26 18 8
21 8 14 0z m263 0 c0 -1 -8 -7 -18 -12 -13 -7 -19 -6 -19 2 0 7 9 13 19 13 10
0 18 -1 18 -3z m137 0 c-4 -3 -1 -13 6 -21 10 -13 9 -14 -2 -8 -8 5 -17 3 -22
-5 -7 -11 -9 -9 -9 8 0 12 6 24 13 26 18 8 21 8 14 0z m116 -24 c3 -10 1 -19
-4 -19 -5 0 -9 5 -9 11 0 6 -7 8 -16 5 -13 -5 -14 -4 -6 7 7 8 9 17 5 21 -4 4
0 4 9 1 9 -4 18 -15 21 -26z m132 13 c-3 -3 -11 0 -18 7 -9 10 -8 11 6 5 10
-3 15 -9 12 -12z m158 -2 c3 -12 1 -18 -5 -14 -6 4 -14 0 -19 -7 -7 -11 -9 -9
-9 8 0 12 6 24 13 26 6 3 13 6 13 6 1 1 4 -8 7 -19z m-1348 0 c3 -6 -1 -7 -9
-4 -18 7 -21 14 -7 14 6 0 13 -4 16 -10z m1150 -9 c3 -6 -4 -15 -15 -21 -19
-10 -20 -10 -8 9 15 24 15 24 23 12z m-1515 -16 c0 -8 -2 -15 -4 -15 -2 0 -6
7 -10 15 -3 8 -1 15 4 15 6 0 10 -7 10 -15z m438 -21 c2 -1 -4 -4 -13 -8 -9
-3 -13 -2 -10 4 3 6 -1 13 -9 16 -9 3 -16 11 -16 17 0 5 10 2 23 -9 12 -10 23
-19 25 -20z m272 26 c0 -5 -5 -10 -11 -10 -5 0 -7 5 -4 10 3 6 8 10 11 10 2 0
4 -4 4 -10z m100 -5 c11 -13 10 -14 -4 -9 -9 3 -16 10 -16 15 0 13 6 11 20 -6z
m300 5 c0 -5 -5 -10 -11 -10 -5 0 -7 5 -4 10 3 6 8 10 11 10 2 0 4 -4 4 -10z
m95 0 c3 -5 2 -10 -4 -10 -5 0 -13 5 -16 10 -3 6 -2 10 4 10 5 0 13 -4 16 -10z
m400 0 c3 -6 -1 -7 -9 -4 -18 7 -21 14 -7 14 6 0 13 -4 16 -10z m315 6 c0 -3
-4 -8 -10 -11 -5 -3 -10 -1 -10 4 0 6 5 11 10 11 6 0 10 -2 10 -4z m-1772 -31
c-3 -3 -9 2 -12 12 -6 14 -5 15 5 6 7 -7 10 -15 7 -18z m412 11 c-7 -7 -13 -7
-20 0 -6 6 -3 10 10 10 13 0 16 -4 10 -10z m301 1 c-6 -8 -8 -17 -4 -21 4 -4
0 -4 -10 0 -17 6 -17 7 0 20 23 17 28 18 14 1z m99 -1 c-7 -7 -13 -7 -20 0 -6
6 -3 10 10 10 13 0 16 -4 10 -10z m301 1 c-6 -8 -8 -17 -4 -21 4 -4 0 -4 -10
0 -17 6 -17 7 0 20 23 17 28 18 14 1z m99 -1 c-7 -7 -13 -7 -20 0 -6 6 -3 10
10 10 13 0 16 -4 10 -10z m-1320 -11 c0 -2 -6 -5 -13 -8 -8 -3 -14 1 -14 8 0
7 6 11 14 8 7 -3 13 -6 13 -8z m230 1 c-7 -7 -13 -7 -20 0 -6 6 -3 10 10 10
13 0 16 -4 10 -10z m440 -28 c0 -5 -11 -1 -25 8 -13 8 -28 13 -33 10 -5 -3 -9
1 -9 8 0 11 7 11 34 -2 18 -9 33 -19 33 -24z m360 27 c0 -2 -6 -5 -13 -8 -8
-3 -14 1 -14 8 0 7 6 11 14 8 7 -3 13 -6 13 -8z m400 0 c0 -2 -6 -5 -13 -8 -8
-3 -14 1 -14 8 0 7 6 11 14 8 7 -3 13 -6 13 -8z m187 2 c0 -7 -9 -13 -19 -13
-18 0 -18 1 -2 13 10 7 18 13 19 13 1 0 2 -6 2 -13z m230 1 c0 -7 -11 -13 -24
-13 -29 0 -29 3 0 15 12 5 22 9 23 9 0 1 1 -5 1 -11z m-1400 -30 c-3 -8 -6 -5
-6 6 -1 11 2 17 5 13 3 -3 4 -12 1 -19z m323 7 c-7 -9 -15 -13 -19 -10 -3 3 1
10 9 15 21 14 24 12 10 -5z m615 6 c3 -5 1 -12 -5 -16 -5 -3 -10 1 -10 9 0 18
6 21 15 7z m85 -13 c0 -6 -6 -5 -15 2 -8 7 -15 14 -15 16 0 2 7 1 15 -2 8 -4
15 -11 15 -16z m-1423 -10 c-3 -8 -6 -5 -6 6 -1 11 2 17 5 13 3 -3 4 -12 1
-19z m138 12 c-3 -5 -11 -10 -16 -10 -6 0 -7 5 -4 10 3 6 11 10 16 10 6 0 7
-4 4 -10z m90 -8 c-3 -3 -11 0 -18 7 -9 10 -8 11 6 5 10 -3 15 -9 12 -12z
m575 8 c0 -5 -2 -10 -4 -10 -3 0 -8 5 -11 10 -3 6 -1 10 4 10 6 0 11 -4 11
-10z m225 0 c3 -5 2 -10 -4 -10 -5 0 -13 5 -16 10 -3 6 -2 10 4 10 5 0 13 -4
16 -10z m90 0 c-3 -5 -11 -10 -16 -10 -6 0 -7 5 -4 10 3 6 11 10 16 10 6 0 7
-4 4 -10z m95 -5 c11 -13 10 -14 -4 -9 -9 3 -16 10 -16 15 0 13 6 11 20 -6z
m305 5 c-3 -5 -11 -10 -16 -10 -6 0 -7 5 -4 10 3 6 11 10 16 10 6 0 7 -4 4
-10z m96 -7 c13 -15 12 -15 -8 -4 -24 12 -29 21 -14 21 5 0 15 -7 22 -17z
m214 7 c3 -5 1 -10 -4 -10 -6 0 -11 5 -11 10 0 6 2 10 4 10 3 0 8 -4 11 -10z
m-1733 -28 c-2 -7 -7 -10 -10 -8 -3 3 -10 2 -16 -3 -7 -6 -19 -3 -34 7 -22 17
-21 17 22 17 31 0 42 -4 38 -13z m185 4 c0 -8 -6 -12 -15 -9 -11 5 -11 7 0 14
7 5 13 9 14 9 0 0 1 -6 1 -14z m213 -6 c0 -14 -35 -17 -48 -4 -9 10 -9 13 1
17 16 5 47 -3 47 -13z m190 13 c0 -1 -8 -7 -18 -12 -13 -7 -19 -6 -19 2 0 7 9
13 19 13 10 0 18 -1 18 -3z m397 -8 c0 -6 -8 -11 -17 -11 -9 0 -17 5 -17 11 0
6 8 11 17 11 9 0 17 -5 17 -11z m213 -5 c0 -5 -6 -10 -12 -13 -17 -5 -48 3
-48 13 0 10 30 18 48 12 6 -2 12 -8 12 -12z m400 -1 c0 -5 -13 -9 -30 -9 -32
0 -41 16 -12 22 21 5 42 -1 42 -13z m-800 1 c0 -5 -13 -10 -30 -10 -16 0 -30
5 -30 10 0 6 14 10 30 10 17 0 30 -4 30 -10z m580 6 c0 -2 -7 -7 -16 -10 -8
-3 -12 -2 -9 4 6 10 25 14 25 6z m-1230 -11 c0 -2 -10 -9 -22 -15 -22 -11 -22
-10 -4 4 21 17 26 19 26 11z m-330 -15 c0 -5 -2 -10 -4 -10 -3 0 -8 5 -11 10
-3 6 -1 10 4 10 6 0 11 -4 11 -10z m410 -5 c11 -13 10 -14 -4 -9 -9 3 -16 10
-16 15 0 13 6 11 20 -6z m213 -18 c-3 -5 -9 -3 -14 4 -4 7 -5 17 -2 22 3 5 9
3 14 -4 4 -7 5 -17 2 -22z m182 23 c3 -5 2 -10 -4 -10 -5 0 -13 5 -16 10 -3 6
-2 10 4 10 5 0 13 -4 16 -10z m310 0 c-3 -5 -11 -10 -16 -10 -6 0 -7 5 -4 10
3 6 11 10 16 10 6 0 7 -4 4 -10z m90 0 c3 -5 1 -10 -4 -10 -6 0 -11 5 -11 10
0 6 2 10 4 10 3 0 8 -4 11 -10z m315 6 c0 -8 -73 -47 -78 -41 -3 3 -3 6 -1 8
48 29 79 42 79 33z m85 -6 c3 -6 -1 -7 -9 -4 -18 7 -21 14 -7 14 6 0 13 -4 16
-10z m95 -5 c-7 -9 -15 -13 -19 -10 -3 3 1 10 9 15 21 14 24 12 10 -5z m220
11 c0 -3 -4 -8 -10 -11 -5 -3 -10 -1 -10 4 0 6 5 11 10 11 6 0 10 -2 10 -4z
m-1695 -16 c3 -5 2 -10 -4 -10 -5 0 -13 5 -16 10 -3 6 -2 10 4 10 5 0 13 -4
16 -10z m265 0 c0 -5 -5 -10 -11 -10 -5 0 -7 5 -4 10 3 6 8 10 11 10 2 0 4 -4
4 -10z m535 1 c3 -5 1 -12 -5 -16 -5 -3 -10 1 -10 9 0 18 6 21 15 7z m265 -1
c0 -5 -5 -10 -11 -10 -5 0 -7 5 -4 10 3 6 8 10 11 10 2 0 4 -4 4 -10z m135 0
c3 -5 1 -10 -4 -10 -6 0 -11 5 -11 10 0 6 2 10 4 10 3 0 8 -4 11 -10z m235
-20 c0 -4 -8 -10 -18 -12 -12 -3 -18 1 -18 12 0 11 6 15 18 12 10 -2 18 -8 18
-12z m-1590 -10 l25 -20 -32 12 c-18 7 -33 16 -33 20 0 13 13 9 40 -12z m190
10 c0 -5 -4 -10 -10 -10 -5 0 -10 5 -10 10 0 6 5 10 10 10 6 0 10 -4 10 -10z
m213 -6 c9 -4 17 -10 17 -14 0 -5 -13 -3 -30 3 -16 6 -30 15 -30 20 0 5 6 6
13 3 6 -3 20 -9 30 -12z m187 6 c0 -5 -4 -10 -10 -10 -5 0 -10 5 -10 10 0 6 5
10 10 10 6 0 10 -4 10 -10z m195 0 c-3 -5 -10 -10 -16 -10 -5 0 -9 5 -9 10 0
6 7 10 16 10 8 0 12 -4 9 -10z m215 6 c0 -2 -7 -6 -15 -10 -8 -3 -15 -1 -15 4
0 6 7 10 15 10 8 0 15 -2 15 -4z m190 -6 c0 -5 -4 -10 -10 -10 -5 0 -10 5 -10
10 0 6 5 10 10 10 6 0 10 -4 10 -10z m497 -12 c-3 -8 -6 -5 -6 6 -1 11 2 17 5
13 3 -3 4 -12 1 -19z m113 12 c0 -5 -7 -10 -16 -10 -8 0 -12 5 -9 10 3 6 10
10 16 10 5 0 9 -4 9 -10z m-1645 -20 c-3 -5 -11 -10 -16 -10 -6 0 -7 5 -4 10
3 6 11 10 16 10 6 0 7 -4 4 -10z m405 6 c0 -3 -4 -8 -10 -11 -5 -3 -10 -1 -10
4 0 6 5 11 10 11 6 0 10 -2 10 -4z m400 0 c0 -3 -4 -8 -10 -11 -5 -3 -10 -1
-10 4 0 6 5 11 10 11 6 0 10 -2 10 -4z m184 -11 c-10 -8 -23 -14 -29 -14 -5 0
-1 6 9 14 11 8 24 15 30 15 5 0 1 -7 -10 -15z m216 11 c0 -3 -4 -8 -10 -11 -5
-3 -10 -1 -10 4 0 6 5 11 10 11 6 0 10 -2 10 -4z m271 -13 c13 -15 12 -15 -8
-4 -24 12 -29 21 -14 21 5 0 15 -7 22 -17z m213 -14 c-3 -6 -7 -9 -8 -7 -1 2
-8 12 -16 22 -14 18 -14 19 8 7 12 -7 20 -17 16 -22z m-1914 11 c0 -5 -5 -10
-11 -10 -5 0 -7 5 -4 10 3 6 8 10 11 10 2 0 4 -4 4 -10z m400 0 c0 -5 -5 -10
-11 -10 -5 0 -7 5 -4 10 3 6 8 10 11 10 2 0 4 -4 4 -10z m405 0 c-3 -5 -11
-10 -16 -10 -6 0 -7 5 -4 10 3 6 11 10 16 10 6 0 7 -4 4 -10z m310 0 c3 -5 2
-10 -4 -10 -5 0 -13 5 -16 10 -3 6 -2 10 4 10 5 0 13 -4 16 -10z m400 0 c3 -5
2 -10 -4 -10 -5 0 -13 5 -16 10 -3 6 -2 10 4 10 5 0 13 -4 16 -10z m90 0 c-3
-5 -12 -10 -18 -10 -7 0 -6 4 3 10 19 12 23 12 15 0z m-1432 -13 c4 3 7 3 7 0
0 -14 -36 -25 -51 -16 -12 8 -12 10 1 18 9 6 19 6 26 1 6 -6 14 -7 17 -3z
m407 -8 c0 -5 -13 -9 -30 -9 -30 0 -41 15 -17 23 17 5 47 -3 47 -14z m1200 1
c0 -5 -6 -10 -12 -13 -17 -5 -48 3 -48 13 0 10 30 18 48 12 6 -2 12 -8 12 -12z
m-1413 -4 c0 -8 -6 -12 -15 -9 -11 5 -11 7 0 14 7 5 13 9 14 9 0 0 1 -6 1 -14z
m255 -11 c7 -33 -4 -39 -21 -13 -7 11 -8 17 -2 13 6 -3 11 1 11 9 0 24 7 19
12 -9z m148 -1 c0 -2 -9 0 -20 6 -11 6 -20 13 -20 16 0 2 9 0 20 -6 11 -6 20
-13 20 -16z m210 16 c0 -5 -13 -10 -30 -10 -16 0 -30 5 -30 10 0 6 14 10 30
10 17 0 30 -4 30 -10z m190 3 c0 -1 -8 -7 -18 -12 -13 -7 -19 -6 -19 2 0 7 9
13 19 13 10 0 18 -1 18 -3z m210 -3 c0 -5 -13 -10 -30 -10 -16 0 -30 5 -30 10
0 6 14 10 30 10 17 0 30 -4 30 -10z m180 -5 c0 -2 -6 -5 -13 -8 -8 -3 -14 1
-14 8 0 7 6 11 14 8 7 -3 13 -6 13 -8z m-1070 -20 c0 -8 -4 -15 -10 -15 -5 0
-7 7 -4 15 4 8 8 15 10 15 2 0 4 -7 4 -15z m410 0 c-7 -8 -18 -15 -24 -15 -6
0 -2 7 8 15 25 19 32 19 16 0z m607 -7 c-3 -8 -6 -5 -6 6 -1 11 2 17 5 13 3
-3 4 -12 1 -19z m400 0 c-3 -8 -6 -5 -6 6 -1 11 2 17 5 13 3 -3 4 -12 1 -19z
m-1907 2 c0 -5 -2 -10 -4 -10 -3 0 -8 5 -11 10 -3 6 -1 10 4 10 6 0 11 -4 11
-10z m85 0 c-3 -5 -12 -10 -18 -10 -7 0 -6 4 3 10 19 12 23 12 15 0z m140 0
c3 -5 2 -10 -4 -10 -5 0 -13 5 -16 10 -3 6 -2 10 4 10 5 0 13 -4 16 -10z m77
-12 c-7 -7 -12 -8 -12 -2 0 14 12 26 19 19 2 -3 -1 -11 -7 -17z m413 12 c-3
-5 -11 -10 -16 -10 -6 0 -7 5 -4 10 3 6 11 10 16 10 6 0 7 -4 4 -10z m90 0 c3
-5 2 -10 -4 -10 -5 0 -13 5 -16 10 -3 6 -2 10 4 10 5 0 13 -4 16 -10z m220 0
c3 -5 1 -10 -4 -10 -6 0 -11 5 -11 10 0 6 2 10 4 10 3 0 8 -4 11 -10z m85 1
c0 -5 -7 -12 -16 -15 -14 -5 -15 -4 -4 9 14 17 20 19 20 6z m100 -6 c11 -13
10 -14 -4 -9 -9 3 -16 10 -16 15 0 13 6 11 20 -6z m215 5 c3 -5 1 -10 -4 -10
-6 0 -11 5 -11 10 0 6 2 10 4 10 3 0 8 -4 11 -10z m180 0 c3 -5 2 -10 -4 -10
-5 0 -13 5 -16 10 -3 6 -2 10 4 10 5 0 13 -4 16 -10z m95 6 c0 -3 -4 -8 -10
-11 -5 -3 -10 -1 -10 4 0 6 5 11 10 11 6 0 10 -2 10 -4z m125 -6 c3 -5 1 -10
-4 -10 -6 0 -11 5 -11 10 0 6 2 10 4 10 3 0 8 -4 11 -10z m-1808 -40 c-12 -10
-24 -16 -27 -13 -3 2 3 9 13 14 9 6 15 14 12 20 -3 5 1 6 9 3 13 -5 12 -9 -7
-24z m263 7 c0 -2 -8 -3 -18 -3 -10 0 -19 6 -19 13 0 8 6 9 19 2 10 -5 18 -11
18 -12z m160 8 c0 -2 -6 -5 -13 -8 -8 -3 -14 1 -14 8 0 7 6 11 14 8 7 -3 13
-6 13 -8z m225 -3 c-3 -3 -11 0 -18 7 -9 10 -8 11 6 5 10 -3 15 -9 12 -12z
m405 3 c0 -2 -6 -5 -13 -8 -8 -3 -14 1 -14 8 0 7 6 11 14 8 7 -3 13 -6 13 -8z
m187 1 c0 -8 -6 -12 -15 -9 -11 5 -11 7 0 14 7 5 13 9 14 9 0 0 1 -6 1 -14z
m227 3 c-7 -12 -41 -16 -41 -5 0 6 10 11 23 11 12 0 20 -3 18 -6z m173 -2 c0
-7 -9 -13 -19 -13 -18 0 -18 1 -2 13 10 7 18 13 19 13 1 0 2 -6 2 -13z m228
-7 c3 -5 -4 -6 -15 -3 -11 3 -22 9 -25 13 -3 5 4 6 15 3 11 -3 22 -9 25 -13z
m28 -10 c3 -11 1 -20 -4 -20 -5 0 -9 9 -9 20 0 11 2 20 4 20 2 0 6 -9 9 -20z
m-1293 -14 c0 -13 -8 -27 -17 -30 -10 -4 -14 -4 -10 0 4 4 2 13 -5 21 -8 11
-7 12 6 7 11 -4 16 -1 16 10 0 9 2 16 5 16 3 0 5 -11 5 -24z m270 2 c0 -6 7
-7 16 -4 13 5 14 4 6 -7 -7 -8 -9 -17 -5 -21 4 -4 0 -4 -10 0 -9 3 -17 11 -17
16 0 6 -8 17 -17 24 -16 12 -16 12 5 7 12 -3 22 -10 22 -15z m74 14 c2 -4 -4
-8 -14 -8 -10 0 -16 4 -14 8 3 4 9 8 14 8 5 0 11 -4 14 -8z m400 0 c2 -4 -4
-8 -14 -8 -10 0 -16 4 -14 8 3 4 9 8 14 8 5 0 11 -4 14 -8z m-1266 -28 c10
-19 9 -22 -11 -20 -20 1 -21 4 -12 23 5 12 10 21 11 20 1 -1 6 -12 12 -23z
m110 15 c2 6 8 11 14 11 7 0 7 -5 -1 -13 -6 -8 -8 -16 -5 -19 2 -3 -2 -8 -11
-11 -8 -4 -15 -1 -15 5 0 6 -8 17 -17 25 -16 13 -15 13 7 2 18 -9 25 -9 28 0z
m122 -15 c0 -2 -9 0 -20 6 -11 6 -20 13 -20 16 0 2 9 0 20 -6 11 -6 20 -13 20
-16z m70 16 c0 -5 -5 -10 -11 -10 -5 0 -7 5 -4 10 3 6 8 10 11 10 2 0 4 -4 4
-10z m405 0 c-3 -5 -11 -10 -16 -10 -6 0 -7 5 -4 10 3 6 11 10 16 10 6 0 7 -4
4 -10z m218 -7 c-4 -10 -14 -25 -22 -33 -13 -13 -14 -13 -9 1 4 9 1 22 -5 28
-9 9 -8 11 6 6 10 -4 17 -2 17 4 0 6 4 11 10 11 5 0 6 -8 3 -17z m92 7 c3 -5
2 -10 -4 -10 -5 0 -13 5 -16 10 -3 6 -2 10 4 10 5 0 13 -4 16 -10z m90 0 c-3
-5 -11 -10 -16 -10 -6 0 -7 5 -4 10 3 6 11 10 16 10 6 0 7 -4 4 -10z m220 0
c-4 -6 -2 -16 3 -23 8 -9 4 -12 -15 -13 -13 -1 -22 1 -19 4 3 3 1 11 -6 19 -8
11 -7 12 5 8 8 -4 18 -2 22 4 3 6 8 11 11 11 3 0 2 -5 -1 -10z m90 1 c3 -5 1
-12 -4 -15 -5 -3 -11 1 -15 9 -6 16 9 21 19 6z m90 -1 c-3 -5 -11 -10 -16 -10
-6 0 -7 5 -4 10 3 6 11 10 16 10 6 0 7 -4 4 -10z m105 -5 c10 6 11 4 4 -6 -5
-8 -8 -23 -7 -34 1 -16 1 -16 -3 -2 -3 9 -9 17 -13 17 -4 0 -8 10 -8 22 -2 16
0 19 6 9 5 -8 14 -10 21 -6z m120 5 c-13 -9 -11 -13 10 -31 21 -17 22 -19 3
-10 -12 6 -29 8 -39 4 -13 -5 -15 -3 -9 8 16 27 28 39 39 39 6 0 4 -5 -4 -10z
m-1320 -16 c-6 -6 -6 -14 -2 -19 4 -4 0 -6 -8 -3 -23 7 -24 34 -1 34 14 0 17
-4 11 -12z m801 3 c-5 -5 -7 -17 -3 -26 5 -14 4 -14 -11 1 -22 22 -21 34 3 34
12 0 16 -4 11 -9z m-944 -11 c0 -8 -6 -12 -15 -9 -11 5 -11 7 0 14 7 5 13 9
14 9 0 0 1 -6 1 -14z m400 -3 c0 -8 -6 -9 -19 -2 -10 5 -18 11 -18 12 0 2 8 3
18 3 10 0 19 -6 19 -13z m803 -6 c0 -2 -8 -3 -18 -3 -10 0 -19 6 -19 13 0 8 6
9 19 2 10 -5 18 -11 18 -12z m-406 5 c2 -4 -4 -8 -14 -8 -10 0 -16 4 -14 8 3
4 9 8 14 8 5 0 11 -4 14 -8z m-494 -28 c0 -2 -9 0 -20 6 -11 6 -20 13 -20 16
0 2 9 0 20 -6 11 -6 20 -13 20 -16z m-358 4 c-9 -9 -6 -17 15 -36 l28 -23 -27
16 c-22 13 -31 14 -49 5 l-22 -12 22 31 c12 17 27 31 34 31 8 0 7 -4 -1 -12z
m109 -2 c11 6 12 5 2 -8 -7 -8 -10 -18 -6 -22 4 -4 1 -4 -8 -1 -8 3 -16 15
-16 28 -2 15 0 18 6 8 6 -8 14 -10 22 -5z m291 2 c-9 -9 -6 -17 15 -36 l28
-23 -27 16 c-15 9 -32 14 -38 10 -5 -3 -10 0 -10 7 0 16 20 38 34 38 6 0 5 -5
-2 -12z m119 2 c21 10 22 10 7 -3 -10 -8 -18 -19 -18 -25 0 -21 -26 -2 -27 21
-2 15 0 18 6 8 7 -10 13 -11 32 -1z m280 -3 c-6 -8 -8 -16 -5 -19 2 -3 -2 -8
-10 -11 -8 -3 -13 0 -12 6 3 19 16 37 28 37 7 0 7 -4 -1 -13z m97 1 c17 -17
15 -39 -3 -31 -9 3 -13 8 -11 11 3 3 1 11 -5 19 -14 16 3 17 19 1z m162 -3
c-7 -8 -17 -15 -23 -15 -6 0 -2 7 9 15 25 19 30 19 14 0z m125 -31 c-15 -16
-16 -16 -13 2 4 27 22 46 26 28 2 -8 -4 -21 -13 -30z m130 10 c15 -23 15 -24
-10 -12 -14 6 -23 13 -20 16 3 3 0 11 -7 19 -8 11 -7 12 5 7 9 -3 23 -16 32
-30z m270 -10 c-15 -16 -16 -16 -13 2 4 27 22 46 26 28 2 -8 -4 -21 -13 -30z
m-1875 20 c-6 -6 -7 -14 -3 -18 4 -4 0 -4 -10 0 -23 9 -22 30 2 30 14 0 17 -4
11 -12z m135 -2 c-3 -3 -11 0 -18 7 -9 10 -8 11 6 5 10 -3 15 -9 12 -12z m405
6 c0 -4 -4 -8 -9 -8 -6 0 -12 4 -15 8 -3 5 1 9 9 9 8 0 15 -4 15 -9z m400 0
c0 -4 -4 -8 -9 -8 -6 0 -12 4 -15 8 -3 5 1 9 9 9 8 0 15 -4 15 -9z m795 2 c3
-5 1 -10 -4 -10 -6 0 -11 5 -11 10 0 6 2 10 4 10 3 0 8 -4 11 -10z m-1650 -30
c-3 -5 -11 -10 -16 -10 -6 0 -7 5 -4 10 3 6 11 10 16 10 6 0 7 -4 4 -10z m100
1 c3 -5 1 -12 -5 -16 -5 -3 -10 1 -10 9 0 18 6 21 15 7z m400 -1 c3 -5 1 -10
-4 -10 -6 0 -11 5 -11 10 0 6 2 10 4 10 3 0 8 -4 11 -10z m400 0 c3 -5 1 -10
-4 -10 -6 0 -11 5 -11 10 0 6 2 10 4 10 3 0 8 -4 11 -10z m305 0 c0 -5 -5 -10
-11 -10 -5 0 -7 5 -4 10 3 6 8 10 11 10 2 0 4 -4 4 -10z m260 3 c12 10 12 9 1
-5 -10 -14 -18 -15 -32 -7 -10 5 -19 12 -19 15 0 2 8 0 18 -5 13 -7 23 -6 32
2z m140 -3 c0 -5 -5 -10 -11 -10 -5 0 -7 5 -4 10 3 6 8 10 11 10 2 0 4 -4 4
-10z m150 -15 c-7 -8 -17 -15 -23 -15 -6 0 -2 7 9 15 25 19 30 19 14 0z
m-1600 -19 c0 -2 -9 -2 -20 1 -11 3 -20 9 -20 15 0 5 9 4 20 -2 11 -6 20 -12
20 -14z m215 14 c-3 -5 -12 -10 -18 -10 -7 0 -6 4 3 10 19 12 23 12 15 0z
m175 -1 c0 -3 -9 -9 -19 -12 -13 -3 -18 0 -15 7 5 13 34 18 34 5z m224 -1 c-3
-4 -9 -8 -15 -8 -5 0 -9 4 -9 8 0 5 7 9 15 9 8 0 12 -4 9 -9z m571 -6 c-3 -3
-11 0 -18 7 -9 10 -8 11 6 5 10 -3 15 -9 12 -12z m238 6 c3 -8 -4 -13 -19 -13
-22 0 -23 1 -7 13 9 6 18 12 19 12 1 0 4 -6 7 -12z m-403 -2 c0 -2 -9 -6 -20
-9 -11 -3 -18 -1 -14 4 5 9 34 13 34 5z m427 -18 c-3 -8 -6 -5 -6 6 -1 11 2
17 5 13 3 -3 4 -12 1 -19z m-1596 -5 c13 -15 12 -15 -8 -4 -24 12 -29 21 -14
21 5 0 15 -7 22 -17z m394 7 c3 -5 2 -10 -4 -10 -5 0 -13 5 -16 10 -3 6 -2 10
4 10 5 0 13 -4 16 -10z m92 -12 c-3 -8 -6 -5 -6 6 -1 11 2 17 5 13 3 -3 4 -12
1 -19z m308 12 c3 -5 2 -10 -4 -10 -5 0 -13 5 -16 10 -3 6 -2 10 4 10 5 0 13
-4 16 -10z m103 -10 c-7 -11 -15 -15 -17 -9 -2 6 3 15 10 20 20 12 21 11 7
-11z m88 -8 c-4 -3 -14 2 -24 12 -16 18 -16 18 6 6 13 -6 21 -14 18 -18z m127
-3 c-4 -15 -8 -17 -13 -8 -10 15 -1 41 10 34 5 -3 6 -14 3 -26z m597 26 c0 -2
-10 -10 -22 -16 -21 -11 -22 -11 -9 4 13 16 31 23 31 12z m-1525 -15 c3 -5 2
-10 -4 -10 -5 0 -13 5 -16 10 -3 6 -2 10 4 10 5 0 13 -4 16 -10z m395 0 c0 -5
-2 -10 -4 -10 -3 0 -8 5 -11 10 -3 6 -1 10 4 10 6 0 11 -4 11 -10z m135 0 c-3
-5 -11 -10 -16 -10 -6 0 -7 5 -4 10 3 6 11 10 16 10 6 0 7 -4 4 -10z m585 6
c0 -3 -4 -8 -10 -11 -5 -3 -10 -1 -10 4 0 6 5 11 10 11 6 0 10 -2 10 -4z m85
-6 c3 -5 2 -10 -4 -10 -5 0 -13 5 -16 10 -3 6 -2 10 4 10 5 0 13 -4 16 -10z
m135 6 c0 -3 -4 -8 -10 -11 -5 -3 -10 -1 -10 4 0 6 5 11 10 11 6 0 10 -2 10
-4z m265 -6 c3 -5 1 -10 -4 -10 -6 0 -11 5 -11 10 0 6 2 10 4 10 3 0 8 -4 11
-10z m-533 -14 c10 6 11 4 0 -7 -10 -11 -15 -10 -30 6 -15 17 -15 18 0 6 9 -7
23 -9 30 -5z m-1202 -8 c0 -4 -4 -8 -9 -8 -6 0 -12 4 -15 8 -3 5 1 9 9 9 8 0
15 -4 15 -9z m230 6 c0 -1 -10 -8 -22 -16 -20 -13 -25 -13 -40 1 -15 15 -13
16 23 16 21 0 39 -1 39 -1z m165 -12 c-3 -3 -11 0 -18 7 -9 10 -8 11 6 5 10
-3 15 -9 12 -12z m218 0 c-10 -7 -24 -10 -31 -7 -8 3 -22 0 -31 -7 -14 -11
-14 -11 -4 3 7 9 11 18 9 20 -2 2 13 4 35 4 34 0 37 -2 22 -13z m404 1 c10
-10 13 -14 6 -10 -6 5 -16 6 -22 3 -5 -3 -17 -3 -26 0 -13 5 -14 8 -3 15 18
12 23 11 45 -8z m412 -9 c15 -16 15 -17 0 -6 -9 7 -23 10 -31 7 -7 -3 -22 1
-32 8 -16 12 -15 13 14 11 18 -1 40 -10 49 -20z m-772 -16 c-3 -7 -5 -2 -5 12
0 14 2 19 5 13 2 -7 2 -19 0 -25z m286 11 c5 -3 2 -9 -7 -12 -12 -5 -16 0 -16
15 0 12 3 17 8 12 4 -5 11 -12 15 -15z m-497 -17 c-4 -3 -14 2 -24 12 -16 18
-16 18 6 6 13 -6 21 -14 18 -18z m-591 7 c11 -17 -1 -21 -15 -4 -8 9 -8 15 -2
15 6 0 14 -5 17 -11z m95 7 c0 -3 -4 -8 -10 -11 -5 -3 -10 -1 -10 4 0 6 5 11
10 11 6 0 10 -2 10 -4z m95 -6 c3 -5 2 -10 -4 -10 -5 0 -13 5 -16 10 -3 6 -2
10 4 10 5 0 13 -4 16 -10z m85 1 c0 -5 -7 -12 -16 -15 -14 -5 -15 -4 -4 9 14
17 20 19 20 6z m715 -1 c3 -5 1 -10 -4 -10 -6 0 -11 5 -11 10 0 6 2 10 4 10 3
0 8 -4 11 -10z m310 0 c-3 -5 -11 -10 -16 -10 -6 0 -7 5 -4 10 3 6 11 10 16
10 6 0 7 -4 4 -10z m302 -12 c-3 -8 -6 -5 -6 6 -1 11 2 17 5 13 3 -3 4 -12 1
-19z m98 12 c-3 -5 -11 -10 -16 -10 -6 0 -7 5 -4 10 3 6 11 10 16 10 6 0 7 -4
4 -10z m115 -16 c0 -2 -9 0 -20 6 -11 6 -20 13 -20 16 0 2 9 0 20 -6 11 -6 20
-13 20 -16z m57 4 c-3 -8 -6 -5 -6 6 -1 11 2 17 5 13 3 -3 4 -12 1 -19z
m-1817 -21 c0 -2 -8 -3 -18 -3 -10 0 -19 6 -19 13 0 8 6 9 19 2 10 -5 18 -11
18 -12z m190 -3 c0 -2 -9 0 -20 6 -11 6 -20 13 -20 16 0 2 9 0 20 -6 11 -6 20
-13 20 -16z m403 14 c-2 -5 -10 -8 -18 -8 -8 0 -16 3 -18 8 -3 4 5 7 18 7 13
0 21 -3 18 -7z m207 -12 c0 -10 -30 0 -34 11 -4 11 -1 11 14 3 11 -6 20 -12
20 -14z m195 14 c-3 -5 -12 -10 -18 -10 -7 0 -6 4 3 10 19 12 23 12 15 0z
m210 0 c-3 -5 -12 -10 -18 -10 -7 0 -6 4 3 10 19 12 23 12 15 0z m400 -1 c-4
-6 2 -13 14 -16 12 -3 21 -10 21 -15 0 -6 -11 -3 -25 6 -14 9 -31 14 -38 11
-7 -4 -3 1 7 9 23 19 30 20 21 5z m-215 -3 c0 -2 -7 -7 -16 -10 -8 -3 -12 -2
-9 4 6 10 25 14 25 6z m400 0 c0 -2 -7 -7 -16 -10 -8 -3 -12 -2 -9 4 6 10 25
14 25 6z m-235 -15 c3 -6 -4 -15 -15 -21 -19 -10 -20 -10 -8 9 15 24 15 24 23
12z m-1605 -11 c0 -5 -5 -10 -11 -10 -5 0 -7 5 -4 10 3 6 8 10 11 10 2 0 4 -4
4 -10z m90 -5 c11 -13 10 -14 -4 -9 -9 3 -16 10 -16 15 0 13 6 11 20 -6z m194
0 c13 -9 28 -15 32 -14 21 4 44 -2 44 -10 0 -5 -12 -8 -27 -6 -15 1 -39 -4
-53 -12 l-25 -15 25 21 c14 11 20 21 14 21 -12 0 -53 29 -41 30 4 0 18 -7 31
-15z m121 5 c-3 -5 -11 -10 -16 -10 -6 0 -7 5 -4 10 3 6 11 10 16 10 6 0 7 -4
4 -10z m80 0 c3 -5 2 -10 -4 -10 -5 0 -13 5 -16 10 -3 6 -2 10 4 10 5 0 13 -4
16 -10z m185 0 c0 -5 -2 -10 -4 -10 -3 0 -8 5 -11 10 -3 6 -1 10 4 10 6 0 11
-4 11 -10z m135 0 c-3 -5 -11 -10 -16 -10 -6 0 -7 5 -4 10 3 6 11 10 16 10 6
0 7 -4 4 -10z m80 0 c3 -5 2 -10 -4 -10 -5 0 -13 5 -16 10 -3 6 -2 10 4 10 5
0 13 -4 16 -10z m190 0 c3 -5 2 -10 -4 -10 -5 0 -13 5 -16 10 -3 6 -2 10 4 10
5 0 13 -4 16 -10z m135 5 c0 -2 -18 -14 -40 -25 -31 -16 -45 -18 -60 -10 -27
15 -25 17 13 12 18 -2 40 3 52 12 20 15 35 20 35 11z m265 -5 c3 -5 2 -10 -4
-10 -5 0 -13 5 -16 10 -3 6 -2 10 4 10 5 0 13 -4 16 -10z m320 0 c-3 -5 -12
-10 -18 -10 -7 0 -6 4 3 10 19 12 23 12 15 0z m80 0 c3 -5 2 -10 -4 -10 -5 0
-13 5 -16 10 -3 6 -2 10 4 10 5 0 13 -4 16 -10z m-490 -10 c-3 -5 -11 -10 -16
-10 -6 0 -7 5 -4 10 3 6 11 10 16 10 6 0 7 -4 4 -10z m-632 -17 c-9 -7 -20
-13 -23 -13 -3 0 -14 6 -23 13 -15 10 -12 12 23 12 35 0 38 -2 23 -12z m189 3
c10 6 11 4 0 -7 -10 -11 -15 -10 -30 6 -15 17 -15 18 0 6 9 -7 23 -9 30 -5z
m627 -12 c15 -16 15 -17 0 -6 -9 7 -23 10 -31 7 -7 -3 -22 1 -32 8 -16 12 -15
13 14 11 18 -1 40 -10 49 -20z m173 12 c10 6 11 4 0 -7 -10 -11 -15 -10 -30 6
-15 17 -15 18 0 6 9 -7 23 -9 30 -5z m-945 -33 c-3 -10 -5 -4 -5 12 0 17 2 24
5 18 2 -7 2 -21 0 -30z m-802 -1 c-3 -3 -11 0 -18 7 -9 10 -8 11 6 5 10 -3 15
-9 12 -12z m1072 -4 c-3 -8 -6 -5 -6 6 -1 11 2 17 5 13 3 -3 4 -12 1 -19z
m323 -4 c0 -2 -9 0 -20 6 -11 6 -20 13 -20 16 0 2 9 0 20 -6 11 -6 20 -13 20
-16z m77 4 c-3 -8 -6 -5 -6 6 -1 11 2 17 5 13 3 -3 4 -12 1 -19z m403 7 c0 -8
-4 -15 -10 -15 -5 0 -7 7 -4 15 4 8 8 15 10 15 2 0 4 -7 4 -15z m-1685 -5 c3
-5 2 -10 -4 -10 -5 0 -13 5 -16 10 -3 6 -2 10 4 10 5 0 13 -4 16 -10z m400 0
c3 -5 2 -10 -4 -10 -5 0 -13 5 -16 10 -3 6 -2 10 4 10 5 0 13 -4 16 -10z m400
0 c3 -5 1 -10 -4 -10 -6 0 -11 5 -11 10 0 6 2 10 4 10 3 0 8 -4 11 -10z m305
0 c0 -5 -5 -10 -11 -10 -5 0 -7 5 -4 10 3 6 8 10 11 10 2 0 4 -4 4 -10z m395
-6 c-11 -8 -19 -19 -18 -24 2 -5 -4 -7 -12 -4 -12 5 -10 10 8 25 12 10 27 18
32 18 6 0 1 -7 -10 -15z m-644 -7 c-6 -8 -8 -17 -4 -21 4 -4 0 -4 -10 0 -17 6
-17 7 0 20 23 17 28 18 14 1z m396 -4 c-14 -14 -19 -15 -29 -4 -11 10 -10 11
3 6 10 -4 20 -2 24 4 3 6 9 11 13 11 3 0 -1 -8 -11 -17z m-1387 -7 c-7 -7 -13
-7 -20 0 -6 6 -3 10 10 10 13 0 16 -4 10 -10z m183 2 c3 -8 -4 -13 -19 -13
-22 0 -23 1 -7 13 9 6 18 12 19 12 1 0 4 -6 7 -12z m215 -1 c-9 -7 -25 -17
-35 -23 -15 -10 -16 -13 -4 -28 12 -14 12 -16 -2 -10 -8 3 -26 0 -39 -7 -21
-11 -22 -11 -10 4 8 9 10 22 6 29 -4 7 -4 10 0 6 4 -3 26 5 49 18 45 25 63 31
35 11z m402 -2 c0 -2 -6 -5 -13 -8 -8 -3 -14 1 -14 8 0 7 6 11 14 8 7 -3 13
-6 13 -8z m413 3 c3 -8 -4 -13 -19 -13 -22 0 -23 1 -7 13 9 6 18 12 19 12 1 0
4 -6 7 -12z m341 -26 c2 -23 -1 -32 -15 -35 -15 -4 -17 -2 -9 13 6 10 10 29
10 41 0 31 9 19 14 -19z m236 31 c0 -1 -8 -7 -18 -12 -13 -7 -19 -6 -19 2 0 7
9 13 19 13 10 0 18 -1 18 -3z m-1760 -19 c0 -8 -5 -12 -10 -9 -6 4 -8 11 -5
16 9 14 15 11 15 -7z m97 -6 c-3 -8 -6 -5 -6 6 -1 11 2 17 5 13 3 -3 4 -12 1
-19z m458 12 c3 -6 -1 -7 -10 -4 -9 4 -25 -2 -35 -11 -11 -10 -20 -15 -20 -10
0 11 32 34 47 35 6 0 15 -4 18 -10z m-290 -10 c3 -6 -1 -7 -9 -4 -18 7 -21 14
-7 14 6 0 13 -4 16 -10z m155 -16 c0 -2 -9 0 -20 6 -11 6 -20 13 -20 16 0 2 9
0 20 -6 11 -6 20 -13 20 -16z m245 16 c3 -6 -1 -7 -9 -4 -18 7 -21 14 -7 14 6
0 13 -4 16 -10z m145 -5 c7 -8 9 -15 6 -15 -4 0 -14 7 -22 15 -9 8 -11 15 -6
15 5 0 15 -7 22 -15z m100 0 c-7 -9 -15 -13 -17 -11 -7 7 7 26 19 26 6 0 6 -6
-2 -15z m128 -1 c-16 -8 -28 -20 -28 -27 0 -7 -11 -12 -24 -12 -18 0 -22 3
-14 12 5 7 7 17 3 23 -3 5 -2 10 4 10 5 0 11 -5 13 -12 3 -8 11 -7 28 5 14 9
29 17 35 17 5 -1 -2 -8 -17 -16z m400 0 c-18 -9 -28 -23 -28 -37 0 -17 -2 -19
-9 -8 -5 8 -16 11 -24 8 -12 -4 -12 -1 -3 18 6 14 15 20 21 15 6 -5 18 -2 29
6 11 8 25 14 30 14 6 -1 -1 -8 -16 -16z m-1520 -11 c-3 -17 -16 -33 -28 -33
-3 0 -6 9 -6 19 0 11 4 18 7 15 4 -2 10 0 14 6 10 16 16 12 13 -7z m272 7 c0
-7 7 -7 23 0 21 10 21 10 3 -4 -10 -8 -15 -19 -12 -24 3 -6 -2 -8 -12 -5 -17
4 -26 43 -10 43 4 0 8 -5 8 -10z m424 -11 c-8 -9 -11 -19 -7 -23 4 -4 0 -4 -9
-1 -9 4 -27 2 -40 -5 l-23 -11 23 17 c12 9 22 22 22 28 0 6 11 11 24 11 22 0
23 -2 10 -16z m111 11 c-4 -6 -2 -16 3 -23 8 -9 4 -12 -13 -12 -14 0 -26 7
-29 18 -2 9 0 15 4 12 5 -3 11 -1 15 5 3 5 11 10 16 10 6 0 7 -5 4 -10z m380
0 c10 16 21 12 21 -9 0 -11 -9 -22 -19 -25 -10 -2 -16 -2 -13 1 3 4 -2 16 -11
27 -15 17 -15 19 -1 8 11 -9 18 -10 23 -2z m605 6 c0 -2 -7 -7 -16 -10 -8 -3
-12 -2 -9 4 6 10 25 14 25 6z m85 -6 c4 -6 10 -8 15 -5 4 3 6 -4 3 -14 -6 -24
-29 -17 -36 10 -5 20 7 26 18 9z m-537 -16 c5 3 9 0 9 -7 0 -7 -8 -13 -18 -13
-10 0 -16 2 -14 5 3 2 -1 11 -8 20 -10 14 -10 14 5 3 9 -8 21 -11 26 -8z m400
-10 c2 -1 -5 -5 -15 -8 -9 -4 -14 -4 -10 0 4 4 1 14 -6 23 -11 14 -10 15 8 1
11 -8 21 -15 23 -16z m-1198 2 c-7 -7 -13 -7 -20 0 -6 6 -3 10 10 10 13 0 16
-4 10 -10z m400 -1 c0 -2 -6 -5 -13 -8 -8 -3 -14 1 -14 8 0 7 6 11 14 8 7 -3
13 -6 13 -8z m-797 -2 c3 -5 -5 -8 -18 -8 -13 0 -21 3 -18 8 2 4 10 7 18 7 8
0 16 -3 18 -7z m353 -18 c-10 -7 -15 -18 -11 -24 3 -6 4 -11 1 -11 -2 0 -11
-2 -18 -5 -9 -4 -14 2 -14 14 0 11 2 18 4 16 3 -2 14 2 26 10 26 19 37 19 12
0z m1179 -5 c11 17 23 11 18 -9 -6 -23 -33 -37 -33 -17 0 8 -10 21 -22 31 -22
16 -22 16 4 1 17 -10 29 -12 33 -6z m-1589 -10 c0 -11 -4 -20 -7 -20 -4 0 -9
-10 -11 -22 l-3 -23 -7 22 c-3 12 0 31 9 42 18 26 19 26 19 1z m99 10 c4 -6
12 -7 18 -3 8 5 8 2 0 -9 -7 -8 -11 -17 -9 -19 2 -2 -6 -4 -19 -4 -17 0 -21 3
-13 12 5 7 7 17 3 23 -3 5 -2 10 4 10 5 0 13 -5 16 -10z m155 -5 c0 -11 -29
-11 -33 -1 -4 10 1 12 14 9 10 -3 19 -7 19 -8z m245 5 c4 -6 10 -8 15 -5 4 3
6 -4 3 -14 -6 -24 -29 -17 -36 10 -5 20 7 26 18 9z m305 -5 c-7 -8 -9 -15 -4
-15 9 0 -17 -20 -26 -20 -3 0 -6 9 -6 19 0 11 4 18 7 15 4 -2 10 0 14 6 3 5
11 10 17 10 7 0 6 -6 -2 -15z m95 5 c4 -6 10 -8 15 -5 4 3 6 -4 3 -14 -3 -12
-11 -17 -19 -14 -8 3 -12 8 -10 11 3 3 1 11 -5 19 -8 9 -8 13 -1 13 6 0 14 -5
17 -10z m308 -9 c-7 -27 -30 -34 -36 -10 -3 10 -1 17 3 14 5 -3 11 -1 15 5 11
17 23 11 18 -9z m108 4 c3 2 5 -5 5 -15 0 -11 -3 -20 -6 -20 -12 1 -25 16 -26
33 -2 13 1 15 10 7 7 -5 15 -8 17 -5z m400 0 c3 2 5 -5 5 -15 0 -11 -3 -20 -6
-20 -12 1 -25 16 -26 33 -2 13 1 15 10 7 7 -5 15 -8 17 -5z m-1417 -44 c2 -17
0 -34 -5 -37 -5 -3 -9 14 -9 37 0 48 8 48 14 0z m-407 -3 c-3 -7 -5 -2 -5 12
0 14 2 19 5 13 2 -7 2 -19 0 -25z m847 6 c20 5 20 4 3 -9 -16 -11 -21 -11 -38
3 -10 9 -19 20 -19 25 0 5 7 1 16 -8 10 -10 26 -14 38 -11z m1063 4 c-3 -8 -6
-5 -6 6 -1 11 2 17 5 13 3 -3 4 -12 1 -19z m-1597 8 c0 -3 -4 -8 -10 -11 -5
-3 -10 -1 -10 4 0 6 5 11 10 11 6 0 10 -2 10 -4z m400 0 c0 -2 -7 -7 -16 -10
-8 -3 -12 -2 -9 4 6 10 25 14 25 6z m505 -14 c-3 -3 -11 0 -18 7 -9 10 -8 11
6 5 10 -3 15 -9 12 -12z m400 8 c3 -6 -1 -7 -9 -4 -18 7 -21 14 -7 14 6 0 13
-4 16 -10z m-1560 -10 c-3 -5 -14 -10 -23 -9 -14 0 -13 2 3 9 27 11 27 11 20
0z m105 6 c0 -3 -4 -8 -10 -11 -5 -3 -10 -1 -10 4 0 6 5 11 10 11 6 0 10 -2
10 -4z m295 -6 c-3 -5 -14 -10 -23 -9 -14 0 -13 2 3 9 27 11 27 11 20 0z
m1305 0 c0 -5 -2 -10 -4 -10 -3 0 -8 5 -11 10 -3 6 -1 10 4 10 6 0 11 -4 11
-10z m-1490 -8 c0 -5 -7 -9 -15 -9 -8 0 -12 4 -9 9 3 4 9 8 15 8 5 0 9 -4 9
-8z m420 -12 l25 -20 -32 12 c-18 7 -33 16 -33 20 0 13 13 9 40 -12z m385 10
c3 -6 -1 -7 -9 -4 -18 7 -21 14 -7 14 6 0 13 -4 16 -10z m175 0 c0 -5 -3 -9
-7 -8 -5 1 -19 -4 -33 -11 l-25 -12 25 20 c28 23 40 26 40 11z m224 2 c3 -5
-1 -9 -9 -9 -8 0 -15 4 -15 9 0 4 4 8 9 8 6 0 12 -4 15 -8z m176 0 c0 -5 -7
-9 -15 -9 -8 0 -12 4 -9 9 3 4 9 8 15 8 5 0 9 -4 9 -8z m230 0 c0 -5 -7 -9
-15 -9 -8 0 -12 4 -9 9 3 4 9 8 15 8 5 0 9 -4 9 -8z m-1263 -34 c-3 -7 -5 -2
-5 12 0 14 2 19 5 13 2 -7 2 -19 0 -25z m-607 18 c0 -3 -4 -8 -10 -11 -5 -3
-10 -1 -10 4 0 6 5 11 10 11 6 0 10 -2 10 -4z m295 -6 c3 -6 -1 -7 -9 -4 -18
7 -21 14 -7 14 6 0 13 -4 16 -10z m505 6 c0 -3 -4 -8 -10 -11 -5 -3 -10 -1
-10 4 0 6 5 11 10 11 6 0 10 -2 10 -4z m86 -24 c-4 -3 -14 2 -24 12 -16 18
-16 18 6 6 13 -6 21 -14 18 -18z m398 13 c3 -8 1 -15 -4 -15 -6 0 -10 7 -10
15 0 8 2 15 4 15 2 0 6 -7 10 -15z m213 -7 c-3 -8 -6 -5 -6 6 -1 11 2 17 5 13
3 -3 4 -12 1 -19z m414 5 c13 -15 12 -15 -8 -4 -24 12 -29 21 -14 21 5 0 15
-7 22 -17z m-1826 -3 c3 -5 2 -10 -4 -10 -5 0 -13 5 -16 10 -3 6 -2 10 4 10 5
0 13 -4 16 -10z m125 5 c0 -2 -10 -9 -22 -15 -22 -11 -22 -10 -4 4 21 17 26
19 26 11z m275 -5 c3 -5 2 -10 -4 -10 -5 0 -13 5 -16 10 -3 6 -2 10 4 10 5 0
13 -4 16 -10z m525 0 c0 -5 -5 -10 -11 -10 -5 0 -7 5 -4 10 3 6 8 10 11 10 2
0 4 -4 4 -10z m400 0 c0 -5 -5 -10 -11 -10 -5 0 -7 5 -4 10 3 6 8 10 11 10 2
0 4 -4 4 -10z m405 0 c-3 -5 -11 -10 -16 -10 -6 0 -7 5 -4 10 3 6 11 10 16 10
6 0 7 -4 4 -10z m-1465 -23 c0 -6 -3 -7 -7 -4 -3 4 -11 3 -17 -3 -8 -6 -12 -3
-12 9 0 12 6 17 18 13 10 -2 18 -9 18 -15z m231 10 c-8 -10 -7 -17 2 -27 10
-12 9 -12 -3 -3 -8 6 -30 10 -49 8 -31 -2 -32 -1 -16 12 11 7 27 11 36 8 10
-3 20 -1 24 5 3 5 9 10 12 10 3 0 1 -6 -6 -13z m-425 -10 c12 -12 -26 -14 -42
-2 -16 11 -15 12 10 10 15 -2 30 -5 32 -8z m594 3 c0 -5 -2 -10 -4 -10 -3 0
-8 5 -11 10 -3 6 -1 10 4 10 6 0 11 -4 11 -10z m227 -5 c0 -6 -17 -10 -37 -10
-20 0 -37 4 -37 10 0 6 17 10 37 10 20 0 37 -4 37 -10z m173 5 c0 -5 -2 -10
-4 -10 -3 0 -8 5 -11 10 -3 6 -1 10 4 10 6 0 11 -4 11 -10z m227 -5 c0 -6 -17
-10 -37 -10 -20 0 -37 4 -37 10 0 6 17 10 37 10 20 0 37 -4 37 -10z m173 5 c0
-5 -2 -10 -4 -10 -3 0 -8 5 -11 10 -3 6 -1 10 4 10 6 0 11 -4 11 -10z m227 -5
c0 -5 -17 -10 -37 -10 -20 0 -37 5 -37 10 0 6 17 10 37 10 20 0 37 -4 37 -10z
m-1567 -31 c0 -2 -9 0 -20 6 -11 6 -20 13 -20 16 0 2 9 0 20 -6 11 -6 20 -13
20 -16z m-215 6 c3 -5 1 -10 -4 -10 -6 0 -11 5 -11 10 0 6 2 10 4 10 3 0 8 -4
11 -10z m85 0 c0 -5 -5 -10 -11 -10 -5 0 -7 5 -4 10 3 6 8 10 11 10 2 0 4 -4
4 -10z m215 0 c-3 -5 -11 -10 -16 -10 -6 0 -7 5 -4 10 3 6 11 10 16 10 6 0 7
-4 4 -10z m195 5 c0 -2 -10 -10 -22 -16 -21 -11 -22 -11 -9 4 13 16 31 23 31
12z m117 -27 c-3 -7 -5 -2 -5 12 0 14 2 19 5 13 2 -7 2 -19 0 -25z m88 22 c-3
-5 -12 -10 -18 -10 -7 0 -6 4 3 10 19 12 23 12 15 0z m100 0 c3 -5 1 -10 -4
-10 -6 0 -11 5 -11 10 0 6 2 10 4 10 3 0 8 -4 11 -10z m76 -9 l-24 -19 22 -12
c13 -6 20 -14 17 -17 -3 -4 -15 2 -26 12 -10 9 -25 15 -33 12 -7 -3 -14 1 -14
8 0 7 8 10 17 8 9 -2 22 3 29 11 8 9 19 16 25 16 6 0 0 -9 -13 -19z m340 2
c13 -15 12 -15 -8 -4 -24 12 -29 21 -14 21 5 0 15 -7 22 -17z m72 -3 c-3 -11
-7 -20 -9 -20 -2 0 -4 9 -4 20 0 11 4 20 9 20 5 0 7 -9 4 -20z m132 10 c3 -5
2 -10 -4 -10 -5 0 -13 5 -16 10 -3 6 -2 10 4 10 5 0 13 -4 16 -10z m190 -8
c-3 -3 -11 0 -18 7 -9 10 -8 11 6 5 10 -3 15 -9 12 -12z m85 14 c0 -3 -4 -8
-10 -11 -5 -3 -10 -1 -10 4 0 6 5 11 10 11 6 0 10 -2 10 -4z m130 -11 c11 -13
10 -14 -4 -9 -9 3 -16 10 -16 15 0 13 6 11 20 -6z m83 -5 c-3 -11 -7 -20 -9
-20 -2 0 -4 9 -4 20 0 11 4 20 9 20 5 0 7 -9 4 -20z m-1863 -14 c-7 -7 -13 -7
-20 0 -6 6 -3 10 10 10 13 0 16 -4 10 -10z m220 -9 c0 -2 -8 -3 -18 -3 -10 0
-19 6 -19 13 0 8 6 9 19 2 10 -5 18 -11 18 -12z m180 8 c0 -2 -6 -5 -13 -8 -8
-3 -14 1 -14 8 0 7 6 11 14 8 7 -3 13 -6 13 -8z m210 0 c0 -2 -6 -5 -13 -8 -8
-3 -14 1 -14 8 0 7 6 11 14 8 7 -3 13 -6 13 -8z m400 0 c0 -2 -6 -5 -13 -8 -8
-3 -14 1 -14 8 0 7 6 11 14 8 7 -3 13 -6 13 -8z m207 1 c0 -8 -6 -12 -15 -9
-11 5 -11 7 0 14 7 5 13 9 14 9 0 0 1 -6 1 -14z m210 7 c-4 -3 -1 -13 6 -22
11 -14 10 -14 -5 -2 -10 7 -25 11 -33 7 -8 -3 -15 -3 -15 0 0 2 10 9 23 14 28
11 32 12 24 3z m190 -7 c0 -8 -6 -12 -15 -9 -11 5 -11 7 0 14 7 5 13 9 14 9 0
0 1 -6 1 -14z m210 0 c0 -8 -6 -12 -15 -9 -11 5 -11 7 0 14 7 5 13 9 14 9 0 0
1 -6 1 -14z m-770 -23 c0 -8 -6 -9 -19 -2 -10 5 -18 11 -18 12 0 2 8 3 18 3
10 0 19 -6 19 -13z m523 12 c0 -2 -10 -9 -22 -15 -22 -11 -22 -10 -4 4 21 17
26 19 26 11z m200 -10 c-7 -9 -15 -13 -19 -10 -3 3 1 10 9 15 21 14 24 12 10
-5z m-1820 1 c0 -3 -4 -8 -10 -11 -5 -3 -10 -1 -10 4 0 6 5 11 10 11 6 0 10
-2 10 -4z m85 -6 c3 -5 2 -10 -4 -10 -5 0 -13 5 -16 10 -3 6 -2 10 4 10 5 0
13 -4 16 -10z m125 0 c0 -5 -5 -10 -11 -10 -5 0 -7 5 -4 10 3 6 8 10 11 10 2
0 4 -4 4 -10z m85 0 c3 -5 2 -10 -4 -10 -5 0 -13 5 -16 10 -3 6 -2 10 4 10 5
0 13 -4 16 -10z m105 6 c0 -3 -4 -8 -10 -11 -5 -3 -10 -1 -10 4 0 6 5 11 10
11 6 0 10 -2 10 -4z m85 -6 c3 -5 2 -10 -4 -10 -5 0 -13 5 -16 10 -3 6 -2 10
4 10 5 0 13 -4 16 -10z m800 0 c3 -5 1 -10 -4 -10 -6 0 -11 5 -11 10 0 6 2 10
4 10 3 0 8 -4 11 -10z m125 0 c0 -5 -5 -10 -11 -10 -5 0 -7 5 -4 10 3 6 8 10
11 10 2 0 4 -4 4 -10z m275 0 c3 -5 1 -10 -4 -10 -6 0 -11 5 -11 10 0 6 2 10
4 10 3 0 8 -4 11 -10z m-1530 -28 c-10 -10 -52 -7 -52 4 0 6 6 10 14 7 7 -3
13 0 13 6 0 8 4 8 14 -1 8 -7 13 -14 11 -16z m1342 -24 c-2 -13 -4 -5 -4 17
-1 22 1 32 4 23 2 -10 2 -28 0 -40z m-927 26 c5 -5 -6 -9 -29 -9 -21 0 -38 5
-38 11 0 13 54 11 67 -2z m400 0 c6 -6 -5 -9 -29 -9 -21 0 -38 5 -38 11 0 13
54 11 67 -2z m407 1 c0 -6 -17 -10 -37 -10 -20 0 -37 4 -37 10 0 6 17 10 37
10 20 0 37 -4 37 -10z m400 0 c0 -5 -17 -10 -37 -10 -20 0 -37 5 -37 10 0 6
17 10 37 10 20 0 37 -4 37 -10z m-1427 -4 c0 -5 -9 -11 -19 -14 -14 -3 -18 -1
-14 9 6 15 33 19 33 5z m400 -1 c0 -5 -5 -10 -11 -10 -5 0 -7 5 -4 10 3 6 8
10 11 10 2 0 4 -4 4 -10z m400 0 c0 -5 -4 -10 -10 -10 -5 0 -10 5 -10 10 0 6
5 10 10 10 6 0 10 -4 10 -10z m400 0 c0 -5 -5 -10 -11 -10 -5 0 -7 5 -4 10 3
6 8 10 11 10 2 0 4 -4 4 -10z m-1556 -41 c-3 -6 -7 -9 -8 -7 -1 2 -8 12 -16
22 -14 18 -14 19 8 7 12 -7 20 -17 16 -22z m91 21 c-3 -5 -11 -10 -16 -10 -6
0 -7 5 -4 10 3 6 11 10 16 10 6 0 7 -4 4 -10z m120 0 c3 -6 -1 -7 -9 -4 -18 7
-21 14 -7 14 6 0 13 -4 16 -10z m280 0 c-3 -5 -11 -10 -16 -10 -6 0 -7 5 -4
10 3 6 11 10 16 10 6 0 7 -4 4 -10z m125 0 c0 -5 -2 -10 -4 -10 -3 0 -8 5 -11
10 -3 6 -1 10 4 10 6 0 11 -4 11 -10z m280 6 c0 -3 -4 -8 -10 -11 -5 -3 -10
-1 -10 4 0 6 5 11 10 11 6 0 10 -2 10 -4z m525 -6 c3 -5 2 -10 -4 -10 -5 0
-13 5 -16 10 -3 6 -2 10 4 10 5 0 13 -4 16 -10z m275 6 c0 -3 -4 -8 -10 -11
-5 -3 -10 -1 -10 4 0 6 5 11 10 11 6 0 10 -2 10 -4z m131 -13 c13 -15 12 -15
-8 -4 -24 12 -29 21 -14 21 5 0 15 -7 22 -17z m79 2 c0 -8 -4 -15 -10 -15 -5
0 -7 7 -4 15 4 8 8 15 10 15 2 0 4 -7 4 -15z m-1605 -5 c-3 -5 -11 -10 -16
-10 -6 0 -7 5 -4 10 3 6 11 10 16 10 6 0 7 -4 4 -10z m100 0 c3 -5 1 -10 -4
-10 -6 0 -11 5 -11 10 0 6 2 10 4 10 3 0 8 -4 11 -10z m300 0 c-3 -5 -12 -10
-18 -10 -7 0 -6 4 3 10 19 12 23 12 15 0z m387 -10 c-22 -21 -42 -26 -42 -12
0 5 12 13 28 19 38 15 38 15 14 -7z m394 -7 c0 -12 -8 -18 -22 -18 -25 0 -21
21 4 28 10 3 17 5 17 6 1 0 1 -7 1 -16z m-1451 -3 c3 -5 1 -10 -4 -10 -6 0
-11 5 -11 10 0 6 2 10 4 10 3 0 8 -4 11 -10z m235 0 c0 -5 -5 -10 -11 -10 -5
0 -7 5 -4 10 3 6 8 10 11 10 2 0 4 -4 4 -10z m190 -14 c0 -2 -9 -2 -20 1 -11
3 -20 9 -20 15 0 5 9 4 20 -2 11 -6 20 -12 20 -14z m210 14 c0 -5 -4 -10 -10
-10 -5 0 -10 5 -10 10 0 6 5 10 10 10 6 0 10 -4 10 -10z m180 0 c0 -5 -7 -10
-15 -10 -8 0 -15 5 -15 10 0 6 7 10 15 10 8 0 15 -4 15 -10z m400 -2 c0 -4 -4
-8 -9 -8 -6 0 -12 4 -15 8 -3 5 1 9 9 9 8 0 15 -4 15 -9z m400 4 c0 -4 -14
-13 -31 -19 -31 -12 -31 -12 -13 7 19 19 44 26 44 12z m230 -4 c0 -4 -7 -8
-15 -8 -8 0 -15 4 -15 8 0 5 7 9 15 9 8 0 15 -4 15 -9z m-1726 -6 c3 -5 -1 -9
-9 -9 -8 0 -12 4 -9 9 3 4 7 8 9 8 2 0 6 -4 9 -8z m1206 -2 c0 -5 -5 -10 -11
-10 -5 0 -7 5 -4 10 3 6 8 10 11 10 2 0 4 -4 4 -10z m409 -4 c10 -12 8 -13 -8
-9 -12 3 -18 9 -15 14 7 12 10 11 23 -5z m-1772 -33 c-3 -10 -5 -4 -5 12 0 17
2 24 5 18 2 -7 2 -21 0 -30z m308 27 c3 -5 1 -10 -4 -10 -6 0 -11 5 -11 10 0
6 2 10 4 10 3 0 8 -4 11 -10z m400 0 c3 -5 2 -10 -4 -10 -5 0 -13 5 -16 10 -3
6 -2 10 4 10 5 0 13 -4 16 -10z m515 6 c0 -2 -7 -7 -16 -10 -8 -3 -12 -2 -9 4
6 10 25 14 25 6z m687 -33 c-3 -10 -5 -4 -5 12 0 17 2 24 5 18 2 -7 2 -21 0
-30z m-1813 21 c9 -3 13 -10 10 -16 -3 -5 2 -16 12 -24 18 -14 18 -14 -3 -4
-13 6 -27 19 -33 30 -12 22 -10 23 14 14z m130 -17 c2 -9 0 -15 -4 -12 -5 3
-11 1 -15 -5 -3 -5 -11 -10 -16 -10 -6 0 -7 5 -4 10 4 6 2 16 -3 23 -8 9 -4
12 13 12 14 0 26 -7 29 -18z m276 13 c8 -5 11 -10 6 -10 -5 0 -2 -7 5 -17 12
-14 12 -16 0 -12 -17 6 -48 49 -35 49 5 0 16 -5 24 -10z m110 -25 c-7 -8 -16
-15 -21 -15 -11 0 1 33 15 42 16 11 20 -10 6 -27z m290 25 c8 -5 11 -10 6 -10
-5 0 -3 -7 4 -15 8 -9 9 -15 2 -15 -6 0 -14 5 -17 10 -4 6 -10 8 -14 6 -3 -3
-7 4 -7 15 0 21 4 23 26 9z m123 -10 c3 -11 1 -18 -3 -15 -5 3 -11 1 -15 -5
-3 -5 -11 -10 -17 -10 -7 0 -6 6 2 15 7 8 9 15 4 15 -7 0 15 19 22 20 1 0 4
-9 7 -20z m283 2 c-3 -3 -1 -11 5 -19 8 -9 8 -13 1 -13 -6 0 -14 5 -17 10 -4
6 -10 8 -15 5 -4 -3 -6 4 -3 14 3 12 11 17 19 14 8 -3 12 -8 10 -11z m120 -2
c0 -10 -2 -17 -5 -15 -2 3 -10 0 -17 -5 -9 -8 -12 -6 -10 7 1 17 14 32 26 33
3 0 6 -9 6 -20z m292 3 c-5 -7 -7 -17 -3 -23 3 -5 1 -10 -4 -10 -6 0 -11 5
-11 11 0 6 -6 9 -14 6 -9 -4 -12 0 -9 11 2 10 14 17 28 17 17 0 21 -3 13 -12z
m108 -3 c0 -10 -2 -17 -5 -15 -2 3 -10 0 -17 -5 -9 -8 -12 -6 -10 7 1 17 14
32 26 33 3 0 6 -9 6 -20z m-1466 -11 c0 -14 -16 -11 -29 5 -10 12 -8 13 8 9
12 -3 21 -9 21 -14z m800 1 c0 -5 -4 -10 -10 -10 -5 0 -10 5 -10 10 0 6 5 10
10 10 6 0 10 -4 10 -10z m395 0 c3 -5 1 -10 -4 -10 -6 0 -11 5 -11 10 0 6 2
10 4 10 3 0 8 -4 11 -10z m-859 -26 c16 6 14 -13 -3 -31 -14 -16 -27 -17 -17
-2 4 7 -4 20 -17 31 l-24 19 23 -11 c13 -6 30 -9 38 -6z m149 0 c-11 -8 -21
-20 -21 -27 -1 -7 -2 -19 -3 -27 -2 -9 -6 -6 -12 8 -5 13 -13 21 -18 18 -5 -3
-7 3 -4 13 3 11 11 17 18 14 8 -2 22 0 32 6 26 15 31 13 8 -5z m796 -3 c-13
-10 -21 -23 -17 -30 4 -6 3 -11 -2 -11 -5 0 -14 11 -20 25 -9 20 -9 23 3 19 8
-3 22 -1 32 5 28 16 30 12 4 -8z m-1631 -1 c8 -5 11 -10 6 -10 -5 0 -3 -7 4
-15 8 -9 9 -15 2 -15 -6 0 -14 5 -17 10 -4 6 -10 8 -14 6 -3 -3 -7 4 -7 15 0
21 4 23 26 9z m290 -9 c-14 -27 -28 -34 -26 -13 1 14 15 27 34 31 1 1 -2 -8
-8 -18z m123 -12 c5 -20 -7 -26 -18 -9 -4 6 -10 8 -15 5 -4 -3 -6 4 -3 14 6
24 29 17 36 -10z m547 8 c0 -2 -8 -3 -18 -3 -10 0 -19 6 -19 13 0 8 6 9 19 2
10 -5 18 -11 18 -12z m134 14 c-2 -2 1 -10 8 -18 8 -11 7 -12 -6 -7 -9 3 -16
1 -16 -5 0 -6 -5 -11 -11 -11 -5 0 -7 5 -4 10 4 6 2 16 -3 23 -8 9 -4 12 13
12 13 0 21 -2 19 -4z m124 -8 c-5 -7 -7 -17 -3 -23 3 -5 2 -10 -4 -10 -5 0
-11 5 -13 12 -3 7 -13 5 -32 -7 -22 -15 -29 -16 -39 -5 -9 10 -9 11 1 6 14 -8
65 20 58 32 -2 4 6 7 19 7 17 0 21 -3 13 -12z m286 -6 c2 -9 0 -15 -4 -12 -5
3 -11 1 -15 -5 -3 -5 -11 -10 -16 -10 -6 0 -7 5 -4 10 4 6 2 16 -3 23 -8 9 -4
12 13 12 14 0 26 -7 29 -18z m256 0 c0 -2 -8 -3 -18 -3 -10 0 -19 6 -19 13 0
8 6 9 19 2 10 -5 18 -11 18 -12z m144 0 c2 -9 0 -15 -4 -12 -5 3 -11 1 -15 -5
-3 -5 -11 -10 -16 -10 -6 0 -7 5 -4 10 4 6 2 16 -3 23 -8 9 -4 12 13 12 14 0
26 -7 29 -18z m-1350 5 c2 -4 -4 -8 -14 -8 -10 0 -16 4 -14 8 3 4 9 8 14 8 5
0 11 -4 14 -8z m800 0 c2 -4 -4 -8 -14 -8 -10 0 -16 4 -14 8 3 4 9 8 14 8 5 0
11 -4 14 -8z m-844 -17 c0 -2 -10 -10 -22 -16 -21 -11 -22 -11 -9 4 13 16 31
23 31 12z m90 -10 c11 -13 10 -14 -4 -9 -9 3 -16 10 -16 15 0 13 6 11 20 -6z
m395 5 c3 -5 1 -10 -4 -10 -6 0 -11 5 -11 10 0 6 2 10 4 10 3 0 8 -4 11 -10z
m287 -18 c-18 -18 -23 -19 -39 -7 -17 13 -17 14 3 9 12 -3 26 1 34 11 7 8 15
13 17 11 3 -2 -4 -13 -15 -24z m113 18 c3 -5 2 -10 -4 -10 -5 0 -13 5 -16 10
-3 6 -2 10 4 10 5 0 13 -4 16 -10z m309 -5 c-4 -8 -8 -15 -10 -15 -2 0 -4 7
-4 15 0 8 4 15 10 15 5 0 7 -7 4 -15z m91 5 c3 -5 2 -10 -4 -10 -5 0 -13 5
-16 10 -3 6 -2 10 4 10 5 0 13 -4 16 -10z m-1705 -10 c0 -5 -5 -10 -11 -10 -5
0 -7 5 -4 10 3 6 8 10 11 10 2 0 4 -4 4 -10z m265 0 c-3 -5 -12 -10 -18 -10
-7 0 -6 4 3 10 19 12 23 12 15 0z m400 0 c-3 -5 -12 -10 -18 -10 -7 0 -6 4 3
10 19 12 23 12 15 0z m790 -8 c-3 -3 -11 0 -18 7 -9 10 -8 11 6 5 10 -3 15 -9
12 -12z m-1320 -10 c-3 -3 -11 0 -18 7 -9 10 -8 11 6 5 10 -3 15 -9 12 -12z
m422 11 c-4 -3 -1 -13 6 -21 11 -13 9 -14 -10 -1 -16 9 -19 16 -10 21 15 9 23
10 14 1z m223 -19 c0 -2 -9 0 -20 6 -11 6 -20 13 -20 16 0 2 9 0 20 -6 11 -6
20 -13 20 -16z m577 13 c0 -7 -9 -13 -19 -13 -18 0 -18 1 -2 13 10 7 18 13 19
13 1 0 2 -6 2 -13z m233 6 c0 -1 -15 -10 -32 -19 -27 -14 -31 -14 -21 -2 7 8
11 17 9 19 -2 2 7 4 20 4 13 0 24 -1 24 -2z m170 -16 c0 -2 -8 -3 -18 -3 -10
0 -19 6 -19 13 0 8 6 9 19 2 10 -5 18 -11 18 -12z m-1786 5 c2 -4 -4 -8 -14
-8 -10 0 -16 4 -14 8 3 4 9 8 14 8 5 0 11 -4 14 -8z m129 -7 c4 -8 2 -17 -3
-20 -6 -4 -10 3 -10 14 0 25 6 27 13 6z m271 7 c2 -4 -4 -8 -14 -8 -10 0 -16
4 -14 8 3 4 9 8 14 8 5 0 11 -4 14 -8z m576 4 c0 -2 -7 -7 -16 -10 -8 -3 -12
-2 -9 4 6 10 25 14 25 6z m37 -28 c-3 -8 -6 -5 -6 6 -1 11 2 17 5 13 3 -3 4
-12 1 -19z m400 0 c-3 -8 -6 -5 -6 6 -1 11 2 17 5 13 3 -3 4 -12 1 -19z m403
6 c0 -8 -5 -12 -10 -9 -6 4 -8 11 -5 16 9 14 15 11 15 -7z m-1870 -4 c0 -5 -5
-10 -11 -10 -5 0 -7 5 -4 10 3 6 8 10 11 10 2 0 4 -4 4 -10z m590 6 c0 -3 -4
-8 -10 -11 -5 -3 -10 -1 -10 4 0 6 5 11 10 11 6 0 10 -2 10 -4z m77 -18 c-3
-8 -6 -5 -6 6 -1 11 2 17 5 13 3 -3 4 -12 1 -19z m228 12 c3 -5 2 -10 -4 -10
-5 0 -13 5 -16 10 -3 6 -2 10 4 10 5 0 13 -4 16 -10z m95 6 c0 -3 -4 -8 -10
-11 -5 -3 -10 -1 -10 4 0 6 5 11 10 11 6 0 10 -2 10 -4z m210 -10 c0 -7 -9
-16 -21 -19 -21 -6 -21 -5 -3 13 23 23 24 23 24 6z m90 4 c0 -5 -2 -10 -4 -10
-3 0 -8 5 -11 10 -3 6 -1 10 4 10 6 0 11 -4 11 -10z m405 0 c3 -5 1 -10 -4
-10 -6 0 -11 5 -11 10 0 6 2 10 4 10 3 0 8 -4 11 -10z"/>
</g>
</svg>
