<?xml version="1.0" standalone="no"?>
<!DOCTYPE svg PUBLIC "-//W3C//DTD SVG 20010904//EN"
 "http://www.w3.org/TR/2001/REC-SVG-20010904/DTD/svg10.dtd">
<svg version="1.0" xmlns="http://www.w3.org/2000/svg"
 width="200.000000pt" height="200.000000pt" viewBox="0 0 200.000000 200.000000"
 preserveAspectRatio="xMidYMid meet">
<metadata>
Created by potrace 1.16, written by Peter Selinger 2001-2019
</metadata>
<g transform="translate(0.000000,200.000000) scale(0.100000,-0.100000)"
fill="#000000" stroke="none">
<path d="M0 1967 c0 -18 6 -39 13 -46 10 -11 10 -13 0 -7 -10 6 -13 -41 -13
-219 l0 -227 33 20 c17 10 60 36 94 56 34 20 64 44 66 54 4 15 5 15 6 0 1 -17
170 -121 200 -123 9 0 17 -4 19 -8 1 -4 -1 -7 -4 -6 -4 0 -11 -5 -15 -13 -6
-9 -9 -9 -9 -1 0 13 -186 127 -198 121 -4 -2 -49 -27 -100 -56 l-92 -54 0
-114 c0 -63 4 -114 8 -114 5 0 16 -6 27 -13 14 -11 15 -16 5 -22 -9 -6 -11 -4
-5 5 6 10 4 12 -9 7 -10 -4 -15 -3 -11 3 3 6 1 10 -4 10 -7 0 -11 -180 -11
-570 l0 -569 38 21 c20 12 63 37 94 55 l58 34 0 114 c0 105 -1 114 -22 129
-23 16 -23 16 3 5 24 -10 38 -5 123 42 l96 54 -2 122 c-2 66 0 119 4 117 4 -3
18 0 30 6 21 10 21 10 5 -3 -15 -13 -17 -29 -15 -128 l3 -113 93 -54 c55 -32
92 -60 92 -70 0 -14 -1 -14 -13 0 -6 9 -52 40 -101 68 l-88 50 -97 -57 -96
-58 -1 -105 c-1 -58 2 -110 7 -116 6 -7 50 -35 99 -64 72 -41 90 -56 89 -73
-1 -17 -2 -18 -6 -5 -2 10 -47 43 -99 74 l-94 56 -100 -56 c-96 -55 -100 -58
-100 -92 l0 -34 389 0 390 0 4 38 4 37 1 -37 2 -38 229 0 c227 0 230 0 233 21
2 12 12 27 23 33 18 10 18 10 3 -3 -10 -7 -18 -22 -18 -32 0 -18 10 -19 140
-19 130 0 140 1 140 19 0 10 -8 25 -18 32 -15 13 -15 13 3 3 11 -6 21 -21 23
-32 3 -21 8 -21 227 -22 l224 0 1 216 c0 201 -1 216 -18 210 -16 -6 -16 -5 1
8 15 12 17 36 17 233 0 217 0 221 -22 237 l-23 17 23 -11 22 -11 0 101 0 101
-22 -11 -23 -11 22 18 23 18 0 443 -1 442 -34 0 c-24 0 -35 -5 -35 -14 0 -8
-4 -17 -9 -20 -5 -4 -7 3 -4 14 5 20 1 20 -541 20 l-546 0 0 -26 c0 -15 8 -33
18 -41 15 -13 15 -13 -5 -3 -16 7 -23 20 -23 40 l0 30 -205 0 -205 0 0 -34 c0
-32 4 -36 91 -86 50 -28 100 -52 110 -53 14 -1 15 -4 7 -15 -7 -8 -11 -44 -10
-88 2 -47 -2 -74 -8 -74 -7 0 -10 27 -9 74 1 40 -1 78 -5 84 -3 6 -47 34 -96
62 l-91 52 -99 -57 -100 -56 -2 -42 -1 -42 -4 40 c-3 22 -9 46 -15 53 -8 9 -7
11 5 6 17 -6 203 92 211 112 2 5 2 22 -1 37 l-5 27 -194 0 -194 0 0 -33z
m1705 -7 c3 -6 -1 -7 -9 -4 -18 7 -21 14 -7 14 6 0 13 -4 16 -10z m-415 -26
c0 -2 -9 0 -20 6 -11 6 -20 13 -20 16 0 2 9 0 20 -6 11 -6 20 -13 20 -16z
m260 21 c0 -2 -10 -9 -22 -15 -22 -11 -22 -10 -4 4 21 17 26 19 26 11z m230
-41 c0 -2 -13 2 -30 11 -16 9 -30 18 -30 21 0 2 14 -2 30 -11 17 -9 30 -18 30
-21z m100 31 c0 -2 -10 -9 -22 -15 -22 -11 -22 -10 -4 4 21 17 26 19 26 11z
m-1093 -21 c0 -21 -53 -48 -63 -32 -4 6 -3 8 3 5 6 -4 13 0 17 8 3 8 12 12 21
9 9 -4 15 -3 14 2 -2 12 0 24 4 24 2 0 4 -7 4 -16z m383 12 c0 -2 -7 -7 -16
-10 -8 -3 -12 -2 -9 4 6 10 25 14 25 6z m330 -11 c0 -2 -13 -11 -30 -20 -38
-19 -40 -11 -2 9 31 17 32 18 32 11z m325 -15 c-3 -5 -14 -10 -23 -9 -14 0
-13 2 3 9 27 11 27 11 20 0z m-1735 -36 c0 -2 -13 2 -30 11 -16 9 -30 18 -30
21 0 2 14 -2 30 -11 17 -9 30 -18 30 -21z m780 10 c0 -2 -9 0 -20 6 -11 6 -20
13 -20 16 0 2 9 0 20 -6 11 -6 20 -13 20 -16z m60 0 c0 -2 -9 0 -20 6 -11 6
-20 13 -20 16 0 2 9 0 20 -6 11 -6 20 -13 20 -16z m180 21 c0 -2 -10 -9 -22
-15 -22 -11 -22 -10 -4 4 21 17 26 19 26 11z m65 -13 c-18 -15 -85 -54 -85
-48 0 3 19 16 43 30 43 26 59 33 42 18z m226 -20 c-7 -2 -18 1 -23 6 -8 8 -4
9 13 5 13 -4 18 -8 10 -11z m-706 -1 c3 -6 -3 -15 -14 -21 -14 -7 -22 -7 -27
2 -4 6 -3 8 3 5 6 -4 13 0 17 8 6 17 12 19 21 6z m285 -17 c0 -2 -9 0 -20 6
-11 6 -20 13 -20 16 0 2 9 0 20 -6 11 -6 20 -13 20 -16z m690 -10 c0 -2 -13 2
-30 11 -16 9 -30 18 -30 21 0 2 14 -2 30 -11 17 -9 30 -18 30 -21z m-1530 0
c0 -2 -9 0 -20 6 -11 6 -20 13 -20 16 0 2 9 0 20 -6 11 -6 20 -13 20 -16z
m886 11 c-11 -8 -25 -15 -30 -15 -6 1 0 7 14 15 32 19 40 18 16 0z m514 -10
c0 -2 -10 -9 -22 -15 -22 -11 -22 -10 -4 4 21 17 26 19 26 11z m-544 -36 c3
-6 -5 -3 -20 6 -14 10 -26 19 -26 22 0 7 39 -17 46 -28z m984 26 c0 -2 -10 -9
-22 -15 -22 -11 -22 -10 -4 4 21 17 26 19 26 11z m-937 -23 c-14 -11 -23 -31
-26 -57 l-4 -40 -1 42 c-2 33 3 45 20 57 30 21 38 20 11 -2z m697 -8 c0 -2 -9
0 -20 6 -11 6 -20 13 -20 16 0 2 9 0 20 -6 11 -6 20 -13 20 -16z m-350 -109
c0 -86 -3 -105 -17 -116 -15 -11 -16 -11 -5 1 8 9 12 48 12 115 0 67 -4 106
-12 115 -11 12 -10 12 5 1 14 -11 17 -30 17 -116z m378 59 c-3 -27 -4 -26 -9
8 -3 22 -1 34 4 29 5 -5 7 -21 5 -37z m142 41 c0 -2 -10 -9 -22 -15 -22 -11
-22 -10 -4 4 21 17 26 19 26 11z m-147 -196 c-4 -4 -6 22 -3 59 l5 67 3 -59
c2 -32 -1 -63 -5 -67z m-1566 64 c-3 -10 -5 -4 -5 12 0 17 2 24 5 18 2 -7 2
-21 0 -30z m820 -10 c-3 -10 -5 -2 -5 17 0 19 2 27 5 18 2 -10 2 -26 0 -35z
m-410 -27 c-3 -7 1 -25 8 -39 7 -14 10 -29 7 -33 -4 -4 0 -5 9 -2 9 4 16 1 16
-7 0 -10 -5 -11 -19 -4 -10 6 -16 14 -13 20 8 13 -8 12 -22 -2 -8 -8 -13 -8
-18 0 -3 7 -1 10 6 9 9 -2 12 8 10 35 -2 23 2 37 9 37 7 0 10 -6 7 -14z m390
-28 c-3 -8 -6 -5 -6 6 -1 11 2 17 5 13 3 -3 4 -12 1 -19z m37 -18 c10 -13 9
-13 -6 -1 -10 7 -18 21 -17 30 0 13 1 14 6 1 3 -8 11 -22 17 -30z m876 14 c0
-2 -9 0 -20 6 -11 6 -20 13 -20 16 0 2 9 0 20 -6 11 -6 20 -13 20 -16z m-445
-4 c3 -6 -1 -7 -9 -4 -18 7 -21 14 -7 14 6 0 13 -4 16 -10z m55 -36 c0 -2 -9
0 -20 6 -11 6 -20 13 -20 16 0 2 9 0 20 -6 11 -6 20 -13 20 -16z m200 21 c0
-2 -10 -9 -22 -15 -22 -11 -22 -10 -4 4 21 17 26 19 26 11z m-610 -41 c0 -2
-13 2 -30 11 -16 9 -30 18 -30 21 0 2 14 -2 30 -11 17 -9 30 -18 30 -21z
m-544 14 c4 -6 3 -8 -3 -5 -6 4 -14 0 -17 -9 -3 -8 -10 -12 -16 -9 -5 3 -10 1
-10 -5 0 -6 -5 -8 -11 -4 -7 4 0 14 18 25 33 22 30 22 39 7z m394 7 c0 -2 -13
-11 -30 -20 -38 -19 -40 -11 -2 9 31 17 32 18 32 11z m-266 -37 c-5 -7 -2 -9
8 -6 8 4 15 0 15 -7 0 -10 -5 -11 -19 -4 -10 6 -15 15 -12 21 5 7 2 9 -8 6 -8
-4 -15 0 -15 7 0 10 5 11 19 4 10 -6 15 -15 12 -21z m356 -4 c0 -2 -9 0 -20 6
-11 6 -20 13 -20 16 0 2 9 0 20 -6 11 -6 20 -13 20 -16z m540 0 c0 -2 -9 0
-20 6 -11 6 -20 13 -20 16 0 2 9 0 20 -6 11 -6 20 -13 20 -16z m-430 -10 c0
-2 -9 0 -20 6 -11 6 -20 13 -20 16 0 2 9 0 20 -6 11 -6 20 -13 20 -16z m-664
4 c4 -6 3 -8 -3 -5 -6 4 -14 0 -17 -9 -3 -8 -11 -12 -17 -8 -9 5 -6 11 6 21
23 16 22 16 31 1z m930 -4 c18 -14 18 -15 -3 -4 -17 8 -29 8 -45 0 -22 -11
-22 -10 -4 4 11 9 23 16 26 16 3 0 15 -7 26 -16z m-681 -3 c3 -5 2 -12 -3 -15
-5 -3 -9 1 -9 9 0 17 3 19 12 6z m125 4 c0 -2 -10 -9 -22 -15 -22 -11 -22 -10
-4 4 21 17 26 19 26 11z m250 -31 c0 -2 -13 2 -30 11 -16 9 -30 18 -30 21 0 2
14 -2 30 -11 17 -9 30 -18 30 -21z m-353 1 c0 -8 -4 -12 -9 -9 -5 3 -6 10 -3
15 9 13 12 11 12 -6z m743 -21 c0 -2 -13 2 -30 11 -16 9 -30 18 -30 21 0 2 14
-2 30 -11 17 -9 30 -18 30 -21z m316 20 c18 -14 18 -15 -4 -4 -12 6 -28 8 -34
4 -7 -4 -8 -3 -4 4 10 16 18 15 42 -4z m-1033 -19 c-7 -21 -12 -19 -10 4 0 11
5 18 9 15 4 -3 5 -11 1 -19z m977 10 c0 -2 -10 -9 -22 -15 -22 -11 -22 -10 -4
4 21 17 26 19 26 11z m-605 -15 c3 -6 -1 -7 -9 -4 -18 7 -21 14 -7 14 6 0 13
-4 16 -10z m725 -16 c0 -2 -9 0 -20 6 -11 6 -20 13 -20 16 0 2 9 0 20 -6 11
-6 20 -13 20 -16z m-623 -9 c-7 -13 -14 -20 -15 -14 -2 5 2 16 8 24 18 21 20
18 7 -10z m-870 -27 c-3 -8 -6 -5 -6 6 -1 11 2 17 5 13 3 -3 4 -12 1 -19z
m390 -55 c-2 -16 -4 -3 -4 27 0 30 2 43 4 28 2 -16 2 -40 0 -55z m756 -84 c-4
-4 -6 27 -3 69 l5 77 3 -69 c2 -38 -1 -73 -5 -77z m-1146 79 c-3 -8 -6 -5 -6
6 -1 11 2 17 5 13 3 -3 4 -12 1 -19z m860 -50 c-3 -7 -5 -2 -5 12 0 14 2 19 5
13 2 -7 2 -19 0 -25z m-860 0 c-3 -8 -6 -5 -6 6 -1 11 2 17 5 13 3 -3 4 -12 1
-19z m389 -43 c-3 -8 -15 -19 -28 -25 l-23 -11 23 17 c15 11 22 28 23 53 2 31
3 32 6 8 3 -16 2 -35 -1 -42z m913 32 c12 -15 12 -17 -3 -11 -9 3 -16 13 -16
22 0 8 1 13 3 11 1 -2 9 -12 16 -22z m-1307 -49 c-6 -6 -7 0 -4 19 5 21 7 23
10 9 2 -10 0 -22 -6 -28z m898 16 c0 -2 -9 0 -20 6 -11 6 -20 13 -20 16 0 2 9
0 20 -6 11 -6 20 -13 20 -16z m610 21 c0 -2 -10 -9 -22 -15 -22 -11 -22 -10
-4 4 21 17 26 19 26 11z m-140 -31 c0 -2 -9 0 -20 6 -11 6 -20 13 -20 16 0 2
9 0 20 -6 11 -6 20 -13 20 -16z m-600 11 c0 -2 -10 -9 -22 -15 -22 -11 -22
-10 -4 4 21 17 26 19 26 11z m180 -31 c0 -2 -9 0 -20 6 -11 6 -20 13 -20 16 0
2 9 0 20 -6 11 -6 20 -13 20 -16z m160 21 c0 -2 -10 -9 -22 -15 -22 -11 -22
-10 -4 4 21 17 26 19 26 11z m323 -17 c-2 -5 -13 -8 -23 -8 -10 0 -21 3 -23 8
-3 4 8 7 23 7 15 0 26 -3 23 -7z m-1333 -24 c0 -2 -9 0 -20 6 -11 6 -20 13
-20 16 0 2 9 0 20 -6 11 -6 20 -13 20 -16z m620 21 c0 -2 -10 -9 -22 -15 -22
-11 -22 -10 -4 4 21 17 26 19 26 11z m-760 -10 c0 -2 -10 -9 -22 -15 -22 -11
-22 -10 -4 4 21 17 26 19 26 11z m1040 -21 c0 -2 -9 0 -20 6 -11 6 -20 13 -20
16 0 2 9 0 20 -6 11 -6 20 -13 20 -16z m-1323 1 c0 -8 -4 -12 -9 -9 -5 3 -6
10 -3 15 9 13 12 11 12 -6z m323 10 c0 -2 -10 -9 -22 -15 -22 -11 -22 -10 -4
4 21 17 26 19 26 11z m320 0 c0 -2 -10 -9 -22 -15 -22 -11 -22 -10 -4 4 21 17
26 19 26 11z m-615 -14 c3 -5 2 -12 -3 -15 -5 -3 -9 1 -9 9 0 17 3 19 12 6z
m205 -6 c0 -2 -13 -11 -30 -20 -38 -19 -40 -11 -2 9 31 17 32 18 32 11z m490
0 c0 -2 -10 -9 -22 -15 -22 -11 -22 -10 -4 4 21 17 26 19 26 11z m35 -5 c3 -6
-1 -7 -9 -4 -18 7 -21 14 -7 14 6 0 13 -4 16 -10z m-708 -15 c0 -8 -4 -12 -9
-9 -5 3 -6 10 -3 15 9 13 12 11 12 -6z m543 10 c0 -2 -10 -9 -22 -15 -22 -11
-22 -10 -4 4 21 17 26 19 26 11z m-490 -30 c0 -2 -5 -7 -12 -11 -7 -5 -8 -3
-3 6 6 9 4 12 -7 8 -8 -4 -15 0 -15 7 0 10 5 11 19 4 10 -5 18 -12 18 -14z
m431 -3 c-7 -2 -18 1 -23 6 -8 8 -4 9 13 5 13 -4 18 -8 10 -11z m299 -8 c0 -2
-9 0 -20 6 -11 6 -20 13 -20 16 0 2 9 0 20 -6 11 -6 20 -13 20 -16z m280 21
c0 -2 -10 -9 -22 -15 -22 -11 -22 -10 -4 4 21 17 26 19 26 11z m80 -21 c0 -2
-9 0 -20 6 -11 6 -20 13 -20 16 0 2 9 0 20 -6 11 -6 20 -13 20 -16z m-710 -10
c0 -2 -9 0 -20 6 -11 6 -20 13 -20 16 0 2 9 0 20 -6 11 -6 20 -13 20 -16z
m-363 -21 c1 -36 1 -37 -6 -8 -6 26 -5 45 3 45 1 0 2 -17 3 -37z m83 32 c0 -2
-10 -9 -22 -15 -22 -11 -22 -10 -4 4 21 17 26 19 26 11z m1400 -31 c0 -2 -9 0
-20 6 -11 6 -20 13 -20 16 0 2 9 0 20 -6 11 -6 20 -13 20 -16z m-1008 4 c-6
-7 -12 -26 -15 -43 l-4 -30 -2 31 c0 16 4 35 11 42 16 16 23 15 10 0z m297
-27 c-1 -20 -2 -22 -6 -6 -3 11 -10 26 -15 33 -8 9 -7 11 6 6 10 -4 16 -16 15
-33z m130 16 c-13 -13 -26 -21 -29 -19 -5 4 38 42 48 42 3 0 -6 -10 -19 -23z
m251 -9 c0 -5 -11 -1 -25 8 -14 9 -25 18 -25 20 0 2 11 -2 25 -8 14 -6 25 -15
25 -20z m-1113 -35 c-3 -10 -5 -2 -5 17 0 19 2 27 5 18 2 -10 2 -26 0 -35z
m1293 42 c0 -2 -10 -9 -22 -15 -22 -11 -22 -10 -4 4 21 17 26 19 26 11z m198
-30 c-3 -3 -9 2 -12 12 -6 14 -5 15 5 6 7 -7 10 -15 7 -18z m232 20 c0 -2 -10
-9 -22 -15 -22 -11 -22 -10 -4 4 21 17 26 19 26 11z m-1763 -77 c-2 -13 -4 -5
-4 17 -1 22 1 32 4 23 2 -10 2 -28 0 -40z m390 10 c-3 -8 -6 -5 -6 6 -1 11 2
17 5 13 3 -3 4 -12 1 -19z m-350 -25 c-3 -10 -5 -4 -5 12 0 17 2 24 5 18 2 -7
2 -21 0 -30z m730 -5 c-3 -7 -5 -2 -5 12 0 14 2 19 5 13 2 -7 2 -19 0 -25z
m136 -72 l22 -18 -25 14 c-19 12 -25 24 -26 54 -2 38 -1 38 3 4 2 -19 14 -43
26 -54z m-906 32 c-3 -7 -5 -2 -5 12 0 14 2 19 5 13 2 -7 2 -19 0 -25z m40
-15 c-3 -10 -5 -4 -5 12 0 17 2 24 5 18 2 -7 2 -21 0 -30z m733 7 c0 -16 -4
-30 -8 -30 -5 0 -7 14 -4 30 2 17 6 30 8 30 2 0 4 -13 4 -30z m549 -8 c14 -11
13 -11 -6 -2 -13 6 -23 18 -22 28 0 14 2 14 6 2 4 -8 13 -21 22 -28z m-847
-20 c8 -9 7 -11 -6 -6 -10 4 -16 16 -15 33 1 20 2 22 6 6 3 -11 10 -26 15 -33z
m1288 22 c0 -2 -9 0 -20 6 -11 6 -20 13 -20 16 0 2 9 0 20 -6 11 -6 20 -13 20
-16z m-610 2 c0 -2 -8 -10 -17 -17 -16 -13 -17 -12 -4 4 13 16 21 21 21 13z
m-769 -29 c-10 -9 -11 -8 -5 6 3 10 9 15 12 12 3 -3 0 -11 -7 -18z m1119 18
c0 -2 -10 -9 -22 -15 -22 -11 -22 -10 -4 4 21 17 26 19 26 11z m-1496 -20 c7
-19 -29 -40 -40 -23 -4 6 -3 8 4 4 6 -3 13 3 17 14 8 24 11 25 19 5z m731 -5
c-3 -5 -16 -15 -28 -21 -19 -9 -19 -8 3 10 28 23 34 26 25 11z m665 -16 c0 -2
-9 0 -20 6 -11 6 -20 13 -20 16 0 2 9 0 20 -6 11 -6 20 -13 20 -16z m-870 -10
c0 -2 -9 0 -20 6 -11 6 -20 13 -20 16 0 2 9 0 20 -6 11 -6 20 -13 20 -16z
m425 8 c-3 -3 -11 0 -18 7 -9 10 -8 11 6 5 10 -3 15 -9 12 -12z m-615 3 c0 -2
-10 -9 -22 -15 -22 -11 -22 -10 -4 4 21 17 26 19 26 11z m96 -11 c18 -14 18
-14 -6 -3 -31 14 -36 19 -24 19 6 0 19 -7 30 -16z m-480 -6 c4 -6 3 -8 -3 -5
-6 4 -14 0 -17 -9 -3 -8 -11 -12 -17 -8 -9 5 -6 11 6 21 23 16 22 16 31 1z
m1104 8 c0 -2 -7 -7 -16 -10 -8 -3 -12 -2 -9 4 6 10 25 14 25 6z m-910 -32 c0
-2 -9 0 -20 6 -11 6 -20 13 -20 16 0 2 9 0 20 -6 11 -6 20 -13 20 -16z m220
21 c0 -2 -10 -9 -22 -15 -22 -11 -22 -10 -4 4 21 17 26 19 26 11z m464 -4 c4
-5 -3 -7 -14 -4 -23 6 -26 13 -6 13 8 0 17 -4 20 -9z m176 -1 c8 -5 11 -10 5
-10 -5 0 -17 5 -25 10 -8 5 -10 10 -5 10 6 0 17 -5 25 -10z m-490 -36 c0 -2
-13 2 -30 11 -16 9 -30 18 -30 21 0 2 14 -2 30 -11 17 -9 30 -18 30 -21z m270
32 c0 -2 -7 -7 -16 -10 -8 -3 -12 -2 -9 4 6 10 25 14 25 6z m-885 -16 c3 -5
-8 -16 -24 -25 -22 -11 -32 -12 -37 -3 -4 6 -3 8 3 5 6 -4 13 0 17 8 3 9 12
12 22 8 12 -4 15 -3 10 5 -4 7 -5 12 -2 12 3 0 7 -4 11 -10z m706 -8 c-7 -2
-18 1 -23 6 -8 8 -4 9 13 5 13 -4 18 -8 10 -11z m-411 -18 c0 -2 -9 0 -20 6
-11 6 -20 13 -20 16 0 2 9 0 20 -6 11 -6 20 -13 20 -16z m550 21 c0 -2 -10 -9
-22 -15 -22 -11 -22 -10 -4 4 21 17 26 19 26 11z m530 -31 c0 -2 -13 2 -30 11
-16 9 -30 18 -30 21 0 2 14 -2 30 -11 17 -9 30 -18 30 -21z m-980 21 c0 -2
-10 -9 -22 -15 -22 -11 -22 -10 -4 4 21 17 26 19 26 11z m620 -16 c17 -13 18
-17 5 -10 -33 17 -51 31 -40 31 6 0 21 -10 35 -21z m260 16 c0 -2 -10 -9 -22
-15 -22 -11 -22 -10 -4 4 21 17 26 19 26 11z m-1000 -31 c0 -2 -9 0 -20 6 -11
6 -20 13 -20 16 0 2 9 0 20 -6 11 -6 20 -13 20 -16z m390 0 c0 -2 -9 0 -20 6
-11 6 -20 13 -20 16 0 2 9 0 20 -6 11 -6 20 -13 20 -16z m130 11 c0 -2 -10 -9
-22 -15 -22 -11 -22 -10 -4 4 21 17 26 19 26 11z m910 1 c0 -2 -7 -7 -16 -10
-8 -3 -12 -2 -9 4 6 10 25 14 25 6z m70 -32 c0 -2 -13 2 -30 11 -16 9 -30 18
-30 21 0 2 14 -2 30 -11 17 -9 30 -18 30 -21z m-350 0 c0 -2 -9 0 -20 6 -11 6
-20 13 -20 16 0 2 9 0 20 -6 11 -6 20 -13 20 -16z m-723 -16 c-3 -8 -6 -5 -6
6 -1 11 2 17 5 13 3 -3 4 -12 1 -19z m943 17 c0 -2 -10 -9 -22 -15 -22 -11
-22 -10 -4 4 21 17 26 19 26 11z m-493 -97 c-2 -18 -4 -6 -4 27 0 33 2 48 4
33 2 -15 2 -42 0 -60z m-450 30 c-3 -8 -6 -5 -6 6 -1 11 2 17 5 13 3 -3 4 -12
1 -19z m880 -30 c-3 -7 -5 -2 -5 12 0 14 2 19 5 13 2 -7 2 -19 0 -25z m-120
-10 c-3 -7 -5 -2 -5 12 0 14 2 19 5 13 2 -7 2 -19 0 -25z m-305 -67 c2 -22 0
-37 -4 -35 -8 5 -11 74 -4 74 2 0 6 -18 8 -39z m425 -8 c-3 -10 -5 -2 -5 17 0
19 2 27 5 18 2 -10 2 -26 0 -35z m-880 5 c-3 -8 -6 -5 -6 6 -1 11 2 17 5 13 3
-3 4 -12 1 -19z m756 -29 c-6 -6 -7 3 -4 23 4 28 6 29 9 9 2 -13 0 -27 -5 -32z
m-761 -21 c-8 -8 -9 -4 -5 13 4 13 8 18 11 10 2 -7 -1 -18 -6 -23z m1118 27
c0 -2 -10 -9 -22 -15 -22 -11 -22 -10 -4 4 21 17 26 19 26 11z m-160 -31 c0
-2 -9 0 -20 6 -11 6 -20 13 -20 16 0 2 9 0 20 -6 11 -6 20 -13 20 -16z m-905
6 c3 -6 -1 -7 -9 -4 -18 7 -21 14 -7 14 6 0 13 -4 16 -10z m335 6 c0 -2 -7 -7
-16 -10 -8 -3 -12 -2 -9 4 6 10 25 14 25 6z m150 -32 c0 -2 -9 0 -20 6 -11 6
-20 13 -20 16 0 2 9 0 20 -6 11 -6 20 -13 20 -16z m530 21 c0 -2 -10 -9 -22
-15 -22 -11 -22 -10 -4 4 21 17 26 19 26 11z m-51 -31 c14 -12 -19 -1 -35 12
-18 14 -18 14 6 3 14 -6 27 -13 29 -15z m-1059 11 c0 -2 -10 -9 -22 -15 -22
-11 -22 -10 -4 4 21 17 26 19 26 11z m60 1 c0 -2 -9 -6 -20 -9 -11 -3 -18 -1
-14 4 5 9 34 13 34 5z m-720 -32 c0 -2 -9 0 -20 6 -11 6 -20 13 -20 16 0 2 9
0 20 -6 11 -6 20 -13 20 -16z m860 -10 c0 -2 -13 2 -30 11 -16 9 -30 18 -30
21 0 2 14 -2 30 -11 17 -9 30 -18 30 -21z m430 10 c0 -2 -9 0 -20 6 -11 6 -20
13 -20 16 0 2 9 0 20 -6 11 -6 20 -13 20 -16z m80 21 c0 -2 -10 -9 -22 -15
-22 -11 -22 -10 -4 4 21 17 26 19 26 11z m-200 -41 c0 -2 -9 0 -20 6 -11 6
-20 13 -20 16 0 2 9 0 20 -6 11 -6 20 -13 20 -16z m-1120 -10 c0 -2 -9 0 -20
6 -11 6 -20 13 -20 16 0 2 9 0 20 -6 11 -6 20 -13 20 -16z m920 22 c0 -2 -7
-7 -16 -10 -8 -3 -12 -2 -9 4 6 10 25 14 25 6z m-350 -11 c0 -2 -13 -11 -30
-20 -38 -19 -40 -11 -2 9 31 17 32 18 32 11z m290 -21 c0 -2 -9 0 -20 6 -11 6
-20 13 -20 16 0 2 9 0 20 -6 11 -6 20 -13 20 -16z m590 21 c0 -2 -10 -9 -22
-15 -22 -11 -22 -10 -4 4 21 17 26 19 26 11z m-480 -20 c0 -2 -10 -9 -22 -15
-22 -11 -22 -10 -4 4 21 17 26 19 26 11z m220 -21 c0 -2 -9 0 -20 6 -11 6 -20
13 -20 16 0 2 9 0 20 -6 11 -6 20 -13 20 -16z m210 11 c0 -2 -10 -9 -22 -15
-22 -11 -22 -10 -4 4 21 17 26 19 26 11z m-908 -17 c-5 -7 -12 -24 -15 -38 -4
-22 -4 -21 -6 7 -1 26 6 38 28 42 2 1 -1 -5 -7 -11z m1088 -14 c0 -2 -9 0 -20
6 -11 6 -20 13 -20 16 0 2 9 0 20 -6 11 -6 20 -13 20 -16z m-670 1 c-7 -9 -15
-13 -19 -10 -3 3 1 10 9 15 21 14 24 12 10 -5z m910 10 c0 -2 -10 -9 -22 -15
-22 -11 -22 -10 -4 4 21 17 26 19 26 11z m-499 -52 c-4 -28 -6 -32 -9 -15 -3
22 3 52 11 52 1 0 1 -17 -2 -37z m-474 -10 c-3 -10 -5 -4 -5 12 0 17 2 24 5
18 2 -7 2 -21 0 -30z m910 12 c-7 -13 -14 -20 -15 -14 -2 5 2 16 8 24 18 21
20 18 7 -10z m-860 -62 c-2 -16 -4 -3 -4 27 0 30 2 43 4 28 2 -16 2 -40 0 -55z
m710 15 c-2 -13 -4 -5 -4 17 -1 22 1 32 4 23 2 -10 2 -28 0 -40z m-1130 -25
c-3 -10 -5 -2 -5 17 0 19 2 27 5 18 2 -10 2 -26 0 -35z m370 -65 c-2 -18 -4
-4 -4 32 0 36 2 50 4 33 2 -18 2 -48 0 -65z m380 60 c-3 -7 -5 -2 -5 12 0 14
2 19 5 13 2 -7 2 -19 0 -25z m90 -10 c-3 -8 -6 -5 -6 6 -1 11 2 17 5 13 3 -3
4 -12 1 -19z m-860 -30 c-3 -7 -5 -2 -5 12 0 14 2 19 5 13 2 -7 2 -19 0 -25z
m1146 -29 c-6 -6 -7 3 -4 23 4 28 6 29 9 9 2 -13 0 -27 -5 -32z m-1126 -6 c-3
-10 -5 -2 -5 17 0 19 2 27 5 18 2 -10 2 -26 0 -35z m1303 8 c12 -12 10 -11 -9
0 -14 9 -27 22 -29 30 -3 11 -2 11 9 -1 8 -8 21 -21 29 -29z m-430 -19 c0 -1
-9 2 -20 8 -11 6 -20 15 -20 20 0 6 9 2 20 -7 11 -10 20 -19 20 -21z m-446 13
c3 -8 1 -15 -4 -15 -6 0 -10 7 -10 15 0 8 2 15 4 15 2 0 6 -7 10 -15z m-452
-27 c-8 -8 -9 -4 -5 13 4 13 8 18 11 10 2 -7 -1 -18 -6 -23z m1128 17 c0 -2
-10 -9 -22 -15 -22 -11 -22 -10 -4 4 21 17 26 19 26 11z m-180 -31 c0 -2 -9 0
-20 6 -11 6 -20 13 -20 16 0 2 9 0 20 -6 11 -6 20 -13 20 -16z m-410 -20 c0
-2 -13 2 -30 11 -16 9 -30 18 -30 21 0 2 14 -2 30 -11 17 -9 30 -18 30 -21z
m-564 10 c-3 -21 -33 -39 -33 -20 0 8 7 12 14 9 8 -3 13 -2 12 3 -2 13 0 24 5
24 2 0 3 -7 2 -16z m124 -10 c0 -2 -9 0 -20 6 -11 6 -20 13 -20 16 0 2 9 0 20
-6 11 -6 20 -13 20 -16z m260 21 c0 -2 -10 -9 -22 -15 -22 -11 -22 -10 -4 4
21 17 26 19 26 11z m-325 -15 c3 -6 -1 -7 -9 -4 -18 7 -21 14 -7 14 6 0 13 -4
16 -10z m1025 5 c0 -2 -10 -9 -22 -15 -22 -11 -22 -10 -4 4 21 17 26 19 26 11z
m-55 -23 c-3 -3 -11 0 -18 7 -9 10 -8 11 6 5 10 -3 15 -9 12 -12z m-875 -37
c0 -3 -18 4 -40 15 -22 11 -40 23 -40 25 0 3 18 -4 40 -15 22 -11 40 -23 40
-25z m270 40 c0 -2 -10 -9 -22 -15 -22 -11 -22 -10 -4 4 21 17 26 19 26 11z
m35 -5 c3 -6 -1 -7 -9 -4 -18 7 -21 14 -7 14 6 0 13 -4 16 -10z m155 -16 c0
-2 -9 0 -20 6 -11 6 -20 13 -20 16 0 2 9 0 20 -6 11 -6 20 -13 20 -16z m-684
1 c-1 -8 -5 -17 -8 -21 -5 -4 -4 16 1 34 3 9 9 -1 7 -13z m264 -11 c0 -2 -9 0
-20 6 -11 6 -20 13 -20 16 0 2 9 0 20 -6 11 -6 20 -13 20 -16z m305 -2 c-3 -3
-11 0 -18 7 -9 10 -8 11 6 5 10 -3 15 -9 12 -12z m-125 3 c0 -2 -10 -9 -22
-15 -22 -11 -22 -10 -4 4 21 17 26 19 26 11z m-139 -23 c-7 -2 -18 1 -23 6 -8
8 -4 9 13 5 13 -4 18 -8 10 -11z m-377 -4 c-5 -8 -2 -9 9 -5 23 9 21 0 -2 -13
-16 -8 -19 -7 -16 8 5 23 4 22 11 22 3 0 2 -5 -2 -12z m726 -24 c0 -2 -9 0
-20 6 -11 6 -20 13 -20 16 0 2 9 0 20 -6 11 -6 20 -13 20 -16z m640 21 c0 -2
-13 -11 -30 -20 -38 -19 -40 -11 -2 9 31 17 32 18 32 11z m-920 -10 c0 -2 -10
-9 -22 -15 -22 -11 -22 -10 -4 4 21 17 26 19 26 11z m297 -47 c-3 -7 -5 -2 -5
12 0 14 2 19 5 13 2 -7 2 -19 0 -25z m553 17 c0 -2 -10 -9 -22 -15 -22 -11
-22 -10 -4 4 21 17 26 19 26 11z m191 -12 c13 -17 13 -17 -6 -3 -11 8 -22 16
-24 17 -2 2 0 3 6 3 6 0 17 -8 24 -17z"/>
</g>
</svg>
