<?xml version="1.0" standalone="no"?>
<!DOCTYPE svg PUBLIC "-//W3C//DTD SVG 20010904//EN"
 "http://www.w3.org/TR/2001/REC-SVG-20010904/DTD/svg10.dtd">
<svg version="1.0" xmlns="http://www.w3.org/2000/svg"
 width="200.000000pt" height="200.000000pt" viewBox="0 0 200.000000 200.000000"
 preserveAspectRatio="xMidYMid meet">
<metadata>
Created by potrace 1.16, written by Peter Selinger 2001-2019
</metadata>
<g transform="translate(0.000000,200.000000) scale(0.100000,-0.100000)"
fill="#000000" stroke="none">
<path d="M0 1770 c0 -126 3 -230 8 -230 4 0 16 6 27 13 48 32 117 68 111 59
-4 -6 -37 -28 -74 -48 l-68 -37 1 -96 c0 -53 4 -101 8 -108 4 -6 4 -14 -1 -17
-8 -5 -17 -506 -9 -506 6 0 120 67 134 80 15 13 36 13 28 1 -3 -6 -18 -16 -33
-24 -15 -8 -51 -27 -79 -43 l-53 -29 0 -133 c0 -104 3 -132 12 -126 10 6 10 5
1 -7 -11 -13 -20 -389 -9 -389 2 0 36 18 75 41 l70 40 -2 99 c-1 54 1 96 6 93
4 -2 7 -49 7 -103 l0 -99 -80 -43 -80 -43 0 -57 0 -58 370 0 c281 0 370 3 370
12 0 9 3 9 12 0 16 -16 80 -16 96 0 9 9 12 9 12 0 0 -15 435 -17 445 -2 3 6
11 10 16 10 6 0 7 -4 4 -10 -4 -6 23 -10 74 -10 54 0 81 4 84 13 4 9 6 9 6 0
1 -18 387 -18 394 0 4 9 6 9 6 0 1 -9 19 -13 56 -13 l55 0 0 33 c0 18 -6 39
-12 46 -10 11 -10 13 0 7 8 -5 12 0 12 16 0 13 -6 30 -12 37 -10 10 -10 12 -1
7 9 -5 12 39 12 189 -1 145 -4 193 -12 189 -8 -5 -7 -2 0 7 9 9 13 49 13 124
0 108 -1 112 -25 125 -13 7 -22 17 -18 23 3 5 10 2 15 -7 17 -30 26 -16 27 45
1 56 -1 60 -17 48 -16 -13 -16 -12 1 7 21 25 25 181 5 203 -8 9 -9 12 -1 7 16
-9 17 342 0 363 -9 11 -9 13 0 8 8 -5 11 10 12 52 0 52 -2 59 -17 55 -15 -5
-15 -4 1 6 15 10 17 27 16 138 0 80 -5 132 -12 141 -9 12 -9 13 1 7 9 -5 12 9
12 58 l0 66 -54 0 c-34 0 -56 -5 -59 -12 -4 -10 -6 -10 -6 -1 -1 10 -37 13
-140 12 l-139 0 2 -39 c1 -36 -2 -40 -41 -60 -24 -12 -49 -27 -55 -34 -7 -6
-35 -22 -61 -34 l-48 -23 -55 32 c-30 17 -61 28 -69 25 -9 -3 -12 0 -9 9 5 12
-30 32 -48 27 -3 -1 -9 5 -12 13 -7 19 18 19 34 0 6 -8 21 -17 33 -21 12 -4
34 -16 49 -27 15 -11 34 -17 43 -13 9 3 14 2 11 -3 -3 -5 1 -14 9 -21 11 -9
24 -6 62 16 26 16 50 31 53 34 3 3 23 14 45 25 35 18 40 25 42 58 l1 37 -49 0
c-32 0 -49 -4 -49 -12 0 -10 -2 -10 -8 -1 -11 17 -314 16 -324 -1 -6 -8 -8 -8
-8 0 0 8 -39 12 -121 13 -95 1 -119 -1 -113 -11 6 -10 4 -11 -7 0 -8 8 -44 12
-100 12 -61 0 -89 -4 -92 -12 -4 -9 -6 -9 -6 -2 -1 8 -42 12 -132 13 -96 2
-129 -1 -124 -10 6 -8 2 -8 -13 0 -29 15 -65 14 -88 -4 -25 -19 -35 -19 -28 0
5 13 -16 15 -159 15 l-166 0 -1 -230z m1237 194 c-7 -7 -37 7 -37 17 0 6 9 5
21 -1 11 -7 19 -14 16 -16z m518 8 c-3 -3 -11 0 -18 7 -9 10 -8 11 6 5 10 -3
15 -9 12 -12z m-990 -18 c-11 -8 -28 -21 -37 -29 -10 -8 -18 -12 -18 -10 0 6
-51 -25 -60 -36 -6 -7 -69 -29 -84 -29 -6 0 20 16 57 35 37 19 87 47 110 63
41 28 71 34 32 6z m59 17 c4 -5 -3 -7 -14 -4 -23 6 -26 13 -6 13 8 0 17 -4 20
-9z m352 -6 c-11 -8 -25 -15 -30 -15 -6 0 -2 7 8 15 11 8 25 15 30 15 6 0 2
-7 -8 -15z m384 -5 c0 -5 -5 -10 -11 -10 -5 0 -7 5 -4 10 3 6 8 10 11 10 2 0
4 -4 4 -10z m95 0 c3 -5 1 -10 -4 -10 -6 0 -11 5 -11 10 0 6 2 10 4 10 3 0 8
-4 11 -10z m-1621 -9 c11 -17 117 -72 127 -66 5 4 7 11 4 16 -3 5 1 6 11 2 15
-6 15 -7 -1 -15 -15 -9 -15 -11 4 -24 19 -14 27 -12 86 21 36 20 67 41 71 46
3 5 12 9 20 9 23 0 7 -18 -29 -34 -18 -8 -56 -28 -84 -45 -29 -17 -53 -28 -53
-23 0 4 -23 21 -52 36 -67 36 -128 75 -128 81 0 9 19 5 24 -4z m383 -22 c-1
-10 -5 -19 -10 -19 -4 0 -5 -5 -2 -10 4 -6 3 -9 -2 -8 -5 2 -46 -19 -92 -45
l-83 -48 4 -110 c2 -60 0 -109 -4 -109 -10 0 -13 45 -10 142 l3 86 89 51 c84
49 118 81 84 81 -8 0 -13 4 -9 10 9 15 34 0 32 -21z m443 21 c0 -5 -2 -10 -4
-10 -3 0 -8 5 -11 10 -3 6 -1 10 4 10 6 0 11 -4 11 -10z m550 -5 c0 -2 -6 -5
-13 -8 -8 -3 -14 1 -14 8 0 7 6 11 14 8 7 -3 13 -6 13 -8z m400 0 c0 -2 -6 -5
-13 -8 -8 -3 -14 1 -14 8 0 7 6 11 14 8 7 -3 13 -6 13 -8z m-806 -3 c3 -5 -1
-9 -9 -9 -8 0 -15 4 -15 9 0 4 4 8 9 8 6 0 12 -4 15 -8z m489 -31 c-3 -13 -10
-18 -21 -13 -10 4 -12 7 -4 10 7 2 12 10 12 18 0 9 4 13 9 10 5 -3 7 -15 4
-25z m-913 12 c0 -5 -18 -17 -40 -27 -37 -18 -45 -27 -41 -48 2 -12 -17 -10
-24 2 -3 6 -1 10 5 10 6 0 8 5 5 10 -3 6 -1 10 5 10 6 0 8 4 5 10 -4 6 1 7 11
3 12 -4 15 -3 10 5 -4 7 -2 10 7 6 8 -3 20 2 27 11 13 16 30 20 30 8z m214 -7
c-6 -16 29 -31 46 -21 6 4 18 1 27 -7 13 -10 17 -10 20 0 3 6 11 12 19 12 9 0
12 4 9 10 -3 6 1 7 10 3 12 -4 13 -8 5 -13 -7 -4 -10 -12 -6 -18 4 -6 -2 -8
-14 -5 -12 3 -20 0 -20 -7 0 -9 -7 -7 -21 6 -16 13 -23 15 -26 7 -4 -10 -12
-9 -35 3 -24 12 -36 14 -55 5 -14 -7 -21 -16 -17 -23 4 -7 3 -8 -4 -4 -12 7
-102 -40 -102 -53 0 -4 -6 -8 -14 -8 -8 0 -14 8 -13 18 1 10 5 15 10 12 12 -7
58 18 51 28 -3 5 1 6 9 3 8 -3 21 1 29 8 11 10 86 56 95 58 1 0 0 -6 -3 -14z
m369 0 c3 -8 0 -17 -7 -19 -10 -4 -12 1 -9 14 6 23 9 24 16 5z m733 -6 c0 -13
-5 -19 -14 -15 -7 3 -16 5 -20 5 -3 0 3 7 14 15 10 8 19 15 19 15 1 0 1 -9 1
-20z m-546 -5 c0 -1 -9 -5 -19 -8 -13 -3 -18 -1 -14 9 4 10 33 10 33 -1z
m-280 1 c0 -2 -7 -7 -16 -10 -8 -3 -12 -2 -9 4 6 10 25 14 25 6z m580 0 c0 -2
-7 -9 -15 -16 -13 -11 -14 -10 -9 4 5 14 24 23 24 12z m320 -1 c0 -2 -10 -10
-22 -16 -21 -11 -22 -11 -9 4 13 16 31 23 31 12z m-857 -37 c-2 -5 1 -8 6 -8
19 0 12 -17 -9 -23 -11 -3 -18 -1 -15 3 9 14 -6 40 -19 33 -6 -4 -5 1 2 10 11
13 17 14 27 4 7 -7 11 -15 8 -19z m600 12 c-6 -23 -33 -49 -33 -31 0 6 5 11
12 11 6 0 3 7 -8 15 -16 13 -16 14 -1 9 9 -3 17 -1 17 5 0 6 4 11 9 11 5 0 7
-9 4 -20z m-1268 -8 c-3 -3 -11 0 -18 7 -9 10 -8 11 6 5 10 -3 15 -9 12 -12z
m745 14 c0 -2 -7 -7 -16 -10 -8 -3 -12 -2 -9 4 6 10 25 14 25 6z m-165 -26 c7
0 16 -7 19 -16 6 -15 4 -15 -19 0 -15 10 -35 15 -48 11 -20 -5 -19 -4 3 9 14
8 27 10 28 5 2 -5 10 -9 17 -9z m385 10 c0 -5 -5 -10 -11 -10 -5 0 -7 5 -4 10
3 6 8 10 11 10 2 0 4 -4 4 -10z m200 6 c0 -2 -7 -6 -15 -10 -8 -3 -15 -1 -15
4 0 6 7 10 15 10 8 0 15 -2 15 -4z m200 -6 c0 -5 -5 -10 -11 -10 -5 0 -7 5 -4
10 3 6 8 10 11 10 2 0 4 -4 4 -10z m90 -9 c0 -5 -8 -11 -17 -15 -10 -3 -24 -9
-30 -12 -7 -3 -13 -1 -13 5 0 6 7 11 15 11 9 0 18 7 21 15 6 15 24 11 24 -4z
m-1712 -58 c9 -9 10 -13 2 -13 -8 0 -11 -24 -10 -77 3 -113 1 -157 -7 -150 -3
4 -12 2 -20 -4 -9 -9 -13 -8 -13 0 0 6 6 14 14 17 11 4 14 31 15 118 l1 113
-27 12 c-16 6 -39 21 -53 32 -18 15 -10 13 30 -8 30 -15 60 -34 68 -40z m602
31 c0 -2 -9 0 -20 6 -11 6 -20 13 -20 16 0 2 9 0 20 -6 11 -6 20 -13 20 -16z
m180 -10 c0 -2 -9 0 -20 6 -11 6 -20 13 -20 16 0 2 9 0 20 -6 11 -6 20 -13 20
-16z m570 11 c0 -2 -6 -5 -13 -8 -8 -3 -14 1 -14 8 0 7 6 11 14 8 7 -3 13 -6
13 -8z m220 5 c0 -5 -2 -10 -4 -10 -3 0 -8 5 -11 10 -3 6 -1 10 4 10 6 0 11
-4 11 -10z m188 -16 c1 -1 -5 -4 -15 -6 -13 -4 -19 0 -19 13 0 14 3 16 16 6 8
-6 16 -12 18 -13z m-262 1 c10 -8 15 -14 9 -14 -5 0 -19 6 -29 14 -11 8 -15
15 -10 15 6 0 19 -7 30 -15z m-489 -9 c0 -8 -6 -12 -15 -9 -11 5 -11 7 0 14 7
5 13 9 14 9 0 0 1 -6 1 -14z m623 -1 c-7 -8 -17 -12 -23 -8 -6 4 -3 9 9 14 27
11 28 11 14 -6z m-1250 -10 c19 -23 8 -25 -14 -4 -11 11 -15 19 -9 19 6 0 16
-7 23 -15z m385 5 c3 -5 2 -10 -4 -10 -5 0 -13 5 -16 10 -3 6 -2 10 4 10 5 0
13 -4 16 -10z m47 -120 l-1 -110 47 -24 c26 -14 56 -32 67 -41 11 -9 -11 0
-49 21 -55 30 -72 35 -85 26 -9 -7 -31 -18 -48 -26 -18 -8 -33 -20 -33 -25 0
-6 -6 -11 -14 -11 -8 0 -32 -10 -53 -22 -26 -16 -34 -17 -25 -6 7 9 26 21 42
28 16 7 27 16 24 21 -3 5 2 9 11 9 9 0 37 12 61 26 l45 27 -3 118 c-2 72 1
114 6 109 5 -5 9 -59 8 -120z m493 120 c-3 -5 -12 -10 -18 -10 -7 0 -6 4 3 10
19 12 23 12 15 0z m-795 -4 c0 -2 -7 -7 -16 -10 -8 -3 -12 -2 -9 4 6 10 25 14
25 6z m660 -22 c0 -2 -9 0 -20 6 -11 6 -20 13 -20 16 0 2 9 0 20 -6 11 -6 20
-13 20 -16z m245 16 c-3 -5 -12 -10 -18 -10 -7 0 -6 4 3 10 19 12 23 12 15 0z
m-145 -10 c0 -5 -5 -10 -11 -10 -5 0 -7 5 -4 10 3 6 8 10 11 10 2 0 4 -4 4
-10z m-330 -4 c0 -2 -7 -7 -16 -10 -8 -3 -12 -2 -9 4 6 10 25 14 25 6z m650
-22 c0 -2 -9 0 -20 6 -11 6 -20 13 -20 16 0 2 9 0 20 -6 11 -6 20 -13 20 -16z
m80 16 c0 -5 -5 -10 -11 -10 -5 0 -7 5 -4 10 3 6 8 10 11 10 2 0 4 -4 4 -10z
m-1275 -20 c3 -5 1 -10 -4 -10 -6 0 -11 5 -11 10 0 6 2 10 4 10 3 0 8 -4 11
-10z m35 -5 c-7 -9 -15 -13 -19 -10 -3 3 1 10 9 15 21 14 24 12 10 -5z m910 0
c-7 -8 -18 -15 -24 -15 -6 0 -2 7 8 15 25 19 32 19 16 0z m280 -5 c0 -5 -2
-10 -4 -10 -3 0 -8 5 -11 10 -3 6 -1 10 4 10 6 0 11 -4 11 -10z m-750 -4 c0
-3 -4 -8 -10 -11 -5 -3 -10 -1 -10 4 0 6 5 11 10 11 6 0 10 -2 10 -4z m635 -6
c3 -5 1 -10 -4 -10 -6 0 -11 5 -11 10 0 6 2 10 4 10 3 0 8 -4 11 -10z m235 6
c0 -3 -4 -8 -10 -11 -5 -3 -10 -1 -10 4 0 6 5 11 10 11 6 0 10 -2 10 -4z
m-575 -26 c3 -5 2 -10 -4 -10 -5 0 -13 5 -16 10 -3 6 -2 10 4 10 5 0 13 -4 16
-10z m-778 -47 c-3 -10 -5 -2 -5 17 0 19 2 27 5 18 2 -10 2 -26 0 -35z m854
37 c6 0 7 -5 4 -10 -4 -6 -10 -8 -15 -5 -4 3 -11 -1 -13 -7 -3 -8 -6 -5 -6 6
-1 15 -4 16 -16 6 -9 -8 -15 -8 -15 -2 0 13 21 22 38 16 8 -2 18 -4 23 -4z
m349 -5 c6 3 10 4 10 1 0 -3 -15 -13 -32 -22 -26 -14 -30 -14 -21 -2 10 11 10
17 0 27 -10 11 -8 11 11 2 12 -7 27 -9 32 -6z m63 -2 c8 3 14 -1 14 -8 0 -7
-7 -11 -15 -7 -8 3 -21 -3 -28 -13 -13 -17 -14 -17 -14 -2 0 9 6 17 13 18 10
0 10 2 0 6 -7 2 -13 9 -13 15 0 6 6 6 15 -2 8 -7 21 -10 28 -7z m-1217 -28
c10 -8 14 -15 8 -15 -5 0 -19 7 -30 15 -10 8 -14 15 -8 15 5 0 19 -7 30 -15z
m734 11 c0 -2 -7 -7 -16 -10 -8 -3 -12 -2 -9 4 6 10 25 14 25 6z m100 -6 c0
-5 -2 -10 -4 -10 -3 0 -8 5 -11 10 -3 6 -1 10 4 10 6 0 11 -4 11 -10z m233
-15 c4 -8 2 -17 -3 -20 -6 -4 -10 3 -10 14 0 25 6 27 13 6z m-1133 -5 c0 -5
-5 -10 -11 -10 -5 0 -7 5 -4 10 3 6 8 10 11 10 2 0 4 -4 4 -10z m555 -10 c3
-5 2 -10 -4 -10 -5 0 -13 5 -16 10 -3 6 -2 10 4 10 5 0 13 -4 16 -10z m185 6
c0 -3 -4 -8 -10 -11 -5 -3 -10 -1 -10 4 0 6 5 11 10 11 6 0 10 -2 10 -4z m225
-6 c3 -5 2 -10 -4 -10 -5 0 -13 5 -16 10 -3 6 -2 10 4 10 5 0 13 -4 16 -10z
m400 0 c3 -5 2 -10 -4 -10 -5 0 -13 5 -16 10 -3 6 -2 10 4 10 5 0 13 -4 16
-10z m-1430 -30 c-3 -5 -11 -10 -16 -10 -6 0 -7 5 -4 10 3 6 11 10 16 10 6 0
7 -4 4 -10z m125 -10 c8 -5 12 -11 9 -14 -3 -3 -14 1 -25 9 -21 16 -8 20 16 5z
m435 0 c3 -5 2 -10 -4 -10 -5 0 -13 5 -16 10 -3 6 -2 10 4 10 5 0 13 -4 16
-10z m805 0 c0 -5 -2 -10 -4 -10 -3 0 -8 5 -11 10 -3 6 -1 10 4 10 6 0 11 -4
11 -10z m-1293 -25 c-9 -8 -20 -15 -25 -15 -5 0 -21 -9 -36 -21 -21 -17 -26
-18 -26 -5 0 9 5 16 11 16 5 0 26 11 46 25 39 26 56 26 30 0z m233 10 c0 -2
-10 -9 -22 -15 -22 -11 -22 -10 -4 4 21 17 26 19 26 11z m-174 -39 c1 -9 -5
-12 -17 -9 -10 3 -19 0 -19 -6 0 -6 -6 -11 -14 -11 -7 0 -35 -12 -60 -27 -26
-16 -56 -33 -66 -38 -10 -6 -25 -17 -34 -24 -9 -7 -16 -9 -16 -3 0 14 111 84
183 115 15 6 27 16 27 21 0 13 14 -2 16 -18z m264 14 c0 -5 -5 -10 -11 -10 -5
0 -7 5 -4 10 3 6 8 10 11 10 2 0 4 -4 4 -10z m270 -23 c0 -1 -13 -2 -28 -3
-20 -1 -28 4 -28 17 0 16 3 16 28 3 15 -8 28 -16 28 -17z m140 29 c0 -3 -4 -8
-10 -11 -5 -3 -10 -1 -10 4 0 6 5 11 10 11 6 0 10 -2 10 -4z m250 -19 c0 -6
-3 -7 -7 -4 -3 4 -11 3 -17 -3 -8 -6 -12 -3 -12 9 0 12 6 17 18 13 10 -2 18
-9 18 -15z m146 3 c0 -21 -11 -26 -21 -10 -4 6 -12 8 -18 4 -7 -3 -3 2 7 10
26 21 32 20 32 -4z m128 11 c4 -5 -3 -7 -14 -4 -23 6 -26 13 -6 13 8 0 17 -4
20 -9z m126 -14 c0 -6 -3 -7 -7 -4 -3 4 -12 2 -19 -4 -10 -8 -13 -6 -11 9 1
13 7 18 19 14 10 -2 18 -9 18 -15z m-680 3 c0 -5 -4 -10 -10 -10 -5 0 -10 5
-10 10 0 6 5 10 10 10 6 0 10 -4 10 -10z m-1143 -15 c0 -8 -9 -15 -19 -15 -16
0 -17 2 -6 15 17 19 25 19 25 0z m103 -10 c0 -2 -5 -7 -12 -11 -7 -4 -8 -3 -4
4 11 18 -8 14 -30 -5 -11 -10 -25 -19 -32 -20 -6 -2 -34 -17 -62 -34 -28 -17
-53 -29 -56 -27 -2 3 34 28 81 55 47 27 82 53 77 58 -4 4 3 2 16 -4 12 -6 22
-14 22 -16z m620 10 c0 -2 -6 -5 -13 -8 -8 -3 -14 1 -14 8 0 7 6 11 14 8 7 -3
13 -6 13 -8z m510 5 c0 -5 -5 -10 -11 -10 -5 0 -7 5 -4 10 3 6 8 10 11 10 2 0
4 -4 4 -10z m123 -6 c9 -4 17 -10 17 -15 0 -14 -16 -11 -30 6 -7 8 -16 12 -21
9 -5 -3 -9 0 -9 6 0 7 6 9 13 6 6 -3 20 -9 30 -12z m277 6 c0 -5 -5 -10 -11
-10 -5 0 -7 5 -4 10 3 6 8 10 11 10 2 0 4 -4 4 -10z m123 -6 c9 -4 17 -11 17
-16 0 -5 -6 -7 -12 -4 -7 3 -21 9 -30 12 -10 4 -18 11 -18 16 0 5 6 7 13 4 6
-3 20 -9 30 -12z m-1198 -2 c11 -8 16 -42 6 -42 -3 0 -17 10 -31 21 l-25 20
25 -12 c23 -11 24 -11 11 4 -14 17 -5 23 14 9z m-345 -11 c0 -15 -32 -23 -44
-11 -8 8 -6 9 7 5 10 -4 17 -2 17 4 0 6 5 11 10 11 6 0 10 -4 10 -9z m674 -6
c-4 -8 -11 -12 -16 -9 -6 4 -5 10 3 15 19 12 19 11 13 -6z m298 -5 c-9 -9 -23
-17 -29 -17 -8 0 -7 6 5 17 9 9 23 17 29 17 8 0 7 -6 -5 -17z m418 16 c0 -3
-4 -8 -10 -11 -5 -3 -10 -1 -10 4 0 6 5 11 10 11 6 0 10 -2 10 -4z m-1660 -26
c-8 -5 -17 -7 -19 -4 -3 3 1 9 9 14 8 5 17 7 19 4 3 -3 -1 -9 -9 -14z m370 0
c0 -5 -14 -11 -30 -15 -27 -6 -29 -9 -18 -23 12 -15 11 -16 -5 -3 -17 14 -18
9 -17 -90 1 -57 1 -109 1 -115 -1 -17 -29 -25 -37 -12 -4 6 -3 8 3 5 6 -4 14
0 17 9 10 26 7 64 -5 64 -8 0 -8 4 1 14 6 8 11 23 10 33 -1 10 -2 39 -1 64 1
39 5 48 27 57 14 7 23 16 20 21 -4 5 3 7 14 4 11 -3 20 -9 20 -13z m366 1 c0
-14 -4 -17 -12 -11 -6 6 -14 7 -17 3 -4 -3 -7 -1 -7 5 0 6 8 13 18 15 9 3 17
5 17 6 1 0 1 -8 1 -18z m1004 9 c0 -5 -4 -10 -10 -10 -5 0 -10 5 -10 10 0 6 5
10 10 10 6 0 10 -4 10 -10z m-1170 -15 c0 -2 -6 -5 -13 -8 -8 -3 -14 1 -14 8
0 7 6 11 14 8 7 -3 13 -6 13 -8z m930 -20 c0 -10 -16 -4 -40 16 l-25 20 33
-16 c17 -8 32 -18 32 -20z m130 31 c0 -2 -7 -7 -16 -10 -8 -3 -12 -2 -9 4 6
10 25 14 25 6z m-1384 -40 c1 -9 -2 -16 -7 -16 -5 0 -9 7 -9 16 0 8 -4 13 -8
10 -5 -3 -9 1 -9 9 0 19 30 2 33 -19z m764 14 c-10 -7 -11 -10 -2 -10 6 0 12
-5 12 -10 0 -6 -8 -5 -19 2 -18 11 -18 13 -3 24 9 7 19 10 22 8 2 -3 -2 -9
-10 -14z m580 -1 c0 -14 -17 -10 -23 5 -4 10 -1 13 9 9 7 -3 14 -9 14 -14z
m-896 -14 c-4 -8 -11 -12 -17 -8 -8 5 -7 8 1 11 7 2 9 9 6 14 -4 7 -2 8 4 4 6
-4 9 -13 6 -21z m416 7 c16 -10 27 -21 24 -25 -3 -3 -11 -1 -18 4 -6 5 -20 16
-31 24 -29 21 -11 18 25 -3z m80 14 c0 -3 -4 -8 -10 -11 -5 -3 -10 -1 -10 4 0
6 5 11 10 11 6 0 10 -2 10 -4z m57 -28 c-3 -7 -5 -2 -5 12 0 14 2 19 5 13 2
-7 2 -19 0 -25z m174 -23 c-5 -17 -6 -16 -9 8 -2 15 -9 27 -15 27 -7 0 -6 4 3
10 18 11 30 -14 21 -45z m403 16 c-2 -2 -10 4 -18 12 -12 11 -13 16 -3 20 11
4 29 -23 21 -32z m71 29 c3 -5 2 -10 -4 -10 -5 0 -13 5 -16 10 -3 6 -2 10 4
10 5 0 13 -4 16 -10z m-1021 -8 c2 -4 -4 -8 -14 -8 -10 0 -16 4 -14 8 3 4 9 8
14 8 5 0 11 -4 14 -8z m790 -7 c-10 -8 -23 -14 -29 -14 -5 0 -1 6 9 14 11 8
24 15 30 15 5 0 1 -7 -10 -15z m-129 -13 c-3 -3 -11 0 -18 7 -9 10 -8 11 6 5
10 -3 15 -9 12 -12z m-601 -14 c-3 -4 -9 -8 -15 -8 -5 0 -9 4 -9 8 0 5 7 9 15
9 8 0 12 -4 9 -9z m801 -6 c-3 -3 -11 0 -18 7 -9 10 -8 11 6 5 10 -3 15 -9 12
-12z m-1050 -2 c3 -5 2 -10 -4 -10 -5 0 -13 5 -16 10 -3 6 -2 10 4 10 5 0 13
-4 16 -10z m659 2 c2 -4 -4 -8 -14 -8 -10 0 -16 4 -14 8 3 4 9 8 14 8 5 0 11
-4 14 -8z m552 -20 c-4 -3 -14 2 -24 12 -16 18 -16 18 6 6 13 -6 21 -14 18
-18z m-1121 8 c-3 -5 -11 -10 -16 -10 -6 0 -7 5 -4 10 3 6 11 10 16 10 6 0 7
-4 4 -10z m310 1 c3 -5 2 -12 -3 -15 -5 -3 -9 1 -9 9 0 17 3 19 12 6z m105 5
c0 -3 -4 -8 -10 -11 -5 -3 -10 -1 -10 4 0 6 5 11 10 11 6 0 10 -2 10 -4z m300
-6 c0 -5 -2 -10 -4 -10 -3 0 -8 5 -11 10 -3 6 -1 10 4 10 6 0 11 -4 11 -10z
m-760 -10 c13 -8 13 -10 -2 -10 -9 0 -20 5 -23 10 -8 13 5 13 25 0z m-385 -39
c4 -31 -7 -41 -21 -19 -4 6 -3 13 3 15 6 2 8 14 5 26 -3 12 -2 19 2 16 4 -4 8
-20 11 -38z m790 29 c3 -5 1 -10 -4 -10 -6 0 -11 5 -11 10 0 6 2 10 4 10 3 0
8 -4 11 -10z m112 -22 c-3 -7 -5 -2 -5 12 0 14 2 19 5 13 2 -7 2 -19 0 -25z
m-857 12 c0 -5 -5 -10 -11 -10 -5 0 -7 5 -4 10 3 6 8 10 11 10 2 0 4 -4 4 -10z
m230 0 c0 -5 -2 -10 -4 -10 -3 0 -8 5 -11 10 -3 6 -1 10 4 10 6 0 11 -4 11
-10z m220 -5 c-7 -8 -18 -15 -24 -15 -6 0 -2 7 8 15 25 19 32 19 16 0z m830
11 c0 -2 -7 -7 -16 -10 -8 -3 -12 -2 -9 4 6 10 25 14 25 6z m147 -18 c-3 -8
-6 -5 -6 6 -1 11 2 17 5 13 3 -3 4 -12 1 -19z m-1137 -24 c0 -2 -9 0 -20 6
-11 6 -20 13 -20 16 0 2 9 0 20 -6 11 -6 20 -13 20 -16z m737 -31 c-3 -10 -5
-2 -5 17 0 19 2 27 5 18 2 -10 2 -26 0 -35z m-669 31 c12 -4 22 -11 22 -16 0
-6 -7 -8 -15 -4 -8 3 -15 1 -15 -4 0 -6 -7 -10 -15 -10 -8 0 -15 5 -15 10 0 7
-7 7 -22 0 -23 -11 -23 -11 1 9 26 23 26 23 59 15z m360 -20 c1 -1 -5 -4 -16
-6 -12 -4 -18 1 -19 14 -2 17 0 18 15 7 9 -8 18 -14 20 -15z m32 22 c0 -3 -4
-8 -10 -11 -5 -3 -10 -1 -10 4 0 6 5 11 10 11 6 0 10 -2 10 -4z m51 -9 c-6 -8
-8 -16 -5 -20 3 -3 -4 -3 -15 0 -20 5 -20 6 -4 19 23 17 39 18 24 1z m306 -19
c-18 -12 -23 -10 -24 12 -1 17 1 18 17 8 14 -9 16 -14 7 -20z m43 22 c0 -5 -2
-10 -4 -10 -3 0 -8 5 -11 10 -3 6 -1 10 4 10 6 0 11 -4 11 -10z m53 -1 c-6 -6
-9 -19 -6 -28 4 -14 3 -14 -6 -1 -8 12 -14 13 -30 3 -11 -7 -23 -9 -26 -4 -3
5 8 12 25 16 16 4 30 11 30 16 0 5 5 9 12 9 9 0 9 -3 1 -11z m304 -21 c-18
-12 -23 -10 -23 11 0 15 3 17 18 8 13 -8 14 -13 5 -19z m-1547 -53 c4 -5 2
-16 -5 -22 -17 -15 -23 6 -16 52 5 28 5 29 9 5 2 -14 8 -29 12 -35z m785 25
c0 -16 -5 -30 -11 -30 -6 0 -9 13 -6 30 2 17 7 30 11 30 3 0 6 -13 6 -30z
m-299 -8 c-4 -3 -14 2 -24 12 -16 18 -16 18 6 6 13 -6 21 -14 18 -18z m-596 8
c0 -5 -5 -10 -11 -10 -5 0 -7 5 -4 10 3 6 8 10 11 10 2 0 4 -4 4 -10z m-273
-22 c-3 -8 -6 -5 -6 6 -1 11 2 17 5 13 3 -3 4 -12 1 -19z m658 12 c-3 -5 -11
-10 -16 -10 -6 0 -7 5 -4 10 3 6 11 10 16 10 6 0 7 -4 4 -10z m400 0 c-3 -5
-11 -10 -16 -10 -6 0 -7 5 -4 10 3 6 11 10 16 10 6 0 7 -4 4 -10z m230 0 c3
-5 2 -10 -4 -10 -5 0 -13 5 -16 10 -3 6 -2 10 4 10 5 0 13 -4 16 -10z m170 0
c-3 -5 -11 -10 -16 -10 -6 0 -7 5 -4 10 3 6 11 10 16 10 6 0 7 -4 4 -10z m230
0 c3 -5 1 -10 -4 -10 -6 0 -11 5 -11 10 0 6 2 10 4 10 3 0 8 -4 11 -10z m175
6 c0 -3 -4 -8 -10 -11 -5 -3 -10 -1 -10 4 0 6 5 11 10 11 6 0 10 -2 10 -4z
m-290 -16 c0 -5 -5 -10 -11 -10 -5 0 -7 5 -4 10 3 6 8 10 11 10 2 0 4 -4 4
-10z m-810 -10 c-20 -13 -33 -13 -25 0 3 6 14 10 23 10 15 0 15 -2 2 -10z m45
-10 c3 -5 2 -10 -4 -10 -5 0 -13 5 -16 10 -3 6 -2 10 4 10 5 0 13 -4 16 -10z
m-385 -10 c0 -5 -2 -10 -4 -10 -3 0 -8 5 -11 10 -3 6 -1 10 4 10 6 0 11 -4 11
-10z m300 6 c0 -3 -4 -8 -10 -11 -5 -3 -10 -1 -10 4 0 6 5 11 10 11 6 0 10 -2
10 -4z m400 0 c0 -3 -4 -8 -10 -11 -5 -3 -10 -1 -10 4 0 6 5 11 10 11 6 0 10
-2 10 -4z m59 -41 c13 -16 13 -17 1 -8 -13 9 -24 7 -55 -12 -22 -13 -51 -30
-65 -37 -14 -7 -42 -23 -62 -35 l-37 -23 -36 21 c-19 12 -35 23 -35 26 0 3 16
-5 36 -16 31 -18 38 -19 55 -8 10 8 16 17 11 22 -4 5 -1 5 6 1 7 -4 20 -2 29
6 9 7 39 25 67 39 36 19 52 33 55 50 2 16 5 19 9 9 2 -8 12 -24 21 -35z m41
35 c0 -5 -2 -10 -4 -10 -3 0 -8 5 -11 10 -3 6 -1 10 4 10 6 0 11 -4 11 -10z
m405 0 c3 -5 1 -10 -4 -10 -6 0 -11 5 -11 10 0 6 2 10 4 10 3 0 8 -4 11 -10z
m-1055 -10 c0 -5 -4 -10 -10 -10 -5 0 -10 5 -10 10 0 6 5 10 10 10 6 0 10 -4
10 -10z m400 0 c0 -5 -4 -10 -10 -10 -5 0 -10 5 -10 10 0 6 5 10 10 10 6 0 10
-4 10 -10z m400 0 c0 -5 -4 -10 -10 -10 -5 0 -10 5 -10 10 0 6 5 10 10 10 6 0
10 -4 10 -10z m-1100 -20 c0 -11 -4 -20 -9 -20 -5 0 -7 9 -4 20 3 11 7 20 9
20 2 0 4 -9 4 -20z m377 -2 c-3 -8 -6 -5 -6 6 -1 11 2 17 5 13 3 -3 4 -12 1
-19z m-507 2 c0 -5 -7 -10 -15 -10 -8 0 -15 5 -15 10 0 6 7 10 15 10 8 0 15
-4 15 -10z m650 -12 l25 -20 -28 16 c-15 9 -32 14 -37 11 -5 -3 -11 -2 -14 3
-10 17 31 9 54 -10z m257 -5 c0 -16 -2 -22 -4 -15 -3 6 -11 12 -18 12 -8 0
-16 4 -19 9 -4 5 3 7 14 4 11 -3 20 0 20 6 0 6 2 11 4 11 2 0 3 -12 3 -27z
m219 -25 c-9 -5 -16 -14 -16 -20 0 -7 5 -6 15 2 8 7 15 8 15 4 0 -5 -9 -15
-20 -22 -18 -11 -20 -10 -20 12 0 13 7 26 15 30 8 3 16 16 16 28 2 23 2 23 6
-1 3 -15 -1 -27 -11 -33z m315 35 c12 -16 12 -17 -2 -6 -9 7 -20 9 -24 5 -5
-4 -5 -1 -1 6 9 16 11 15 27 -5z m117 -3 c12 0 10 -5 -8 -17 -14 -9 -30 -24
-37 -33 -11 -13 -12 -13 -13 0 0 8 9 21 20 28 11 6 18 17 16 24 -1 7 -1 10 1
6 3 -5 12 -8 21 -8z m-1338 3 c-8 -3 -17 -9 -20 -12 -3 -4 -18 -12 -33 -19
-15 -7 -25 -17 -22 -22 3 -5 0 -7 -7 -5 -8 3 -39 -10 -71 -29 -31 -19 -57 -32
-57 -30 0 9 24 29 50 41 14 7 52 28 85 47 33 19 67 35 75 35 13 -1 13 -1 0 -6z
m135 -11 c-3 -3 -11 0 -18 7 -9 10 -8 11 6 5 10 -3 15 -9 12 -12z m185 -32 c0
-6 -4 -10 -10 -10 -5 0 -10 5 -10 12 0 6 -3 8 -7 4 -4 -4 2 -15 14 -24 17 -13
20 -21 13 -32 -8 -13 -10 -12 -10 3 0 10 -7 20 -15 23 -8 4 -15 14 -15 24 0
10 -10 25 -22 34 -15 11 -9 10 20 -4 23 -11 42 -25 42 -30z m37 35 c0 -8 -4
-15 -9 -15 -4 0 -8 7 -8 15 0 8 4 15 8 15 5 0 9 -7 9 -15z m196 3 c-2 -5 -10
-8 -18 -8 -8 0 -16 3 -18 8 -3 4 5 7 18 7 13 0 21 -3 18 -7z m402 2 c-3 -5
-12 -10 -18 -10 -7 0 -6 4 3 10 19 12 23 12 15 0z m139 -28 c2 -18 -1 -32 -5
-32 -5 0 -9 11 -9 25 0 14 -6 25 -12 25 -9 0 -8 3 2 10 18 11 19 10 24 -28z
m400 -1 c-2 -2 -10 4 -18 12 -12 11 -13 16 -3 20 11 4 29 -23 21 -32z m-1618
17 c4 -6 3 -8 -3 -5 -6 4 -13 0 -16 -7 -3 -8 -15 -14 -26 -13 -11 0 -17 5 -14
10 3 4 11 6 18 3 7 -2 16 2 19 10 7 17 12 18 22 2z m180 -15 c-10 -10 -19 5
-10 18 6 11 8 11 12 0 2 -7 1 -15 -2 -18z m-329 3 c0 -8 -6 -12 -14 -9 -7 3
-10 9 -7 14 8 14 21 11 21 -5z m1138 4 c3 -6 -1 -7 -9 -4 -18 7 -21 14 -7 14
6 0 13 -4 16 -10z m306 -7 c13 -16 12 -17 -4 -4 -15 12 -20 11 -37 -4 -11 -10
-20 -15 -20 -10 0 8 31 34 41 35 4 0 13 -8 20 -17z m93 9 c3 -5 -1 -9 -9 -9
-8 0 -15 4 -15 9 0 4 4 8 9 8 6 0 12 -4 15 -8z m296 4 c0 -2 -14 -13 -31 -24
-31 -20 -32 -20 -10 -31 12 -7 27 -9 33 -5 7 4 8 3 4 -4 -4 -7 -14 -12 -22
-12 -8 0 -14 -4 -14 -10 0 -5 -5 -10 -11 -10 -8 0 -8 4 1 14 9 12 7 17 -9 28
-20 12 -19 13 17 35 39 24 42 25 42 19z m-1450 -17 c0 -5 -4 -7 -10 -4 -5 3
-10 1 -10 -5 0 -6 -5 -8 -11 -4 -8 4 -7 9 2 15 19 12 29 11 29 -2z m398 -11
c11 -14 10 -16 -7 -11 -12 3 -21 9 -21 12 0 8 12 23 14 19 1 -2 7 -11 14 -20z
m-821 -7 c0 -11 -5 -18 -9 -15 -4 3 -5 11 -1 19 7 21 12 19 10 -4z m343 9 c0
-5 -4 -10 -10 -10 -5 0 -10 5 -10 10 0 6 5 10 10 10 6 0 10 -4 10 -10z m364 2
c2 -4 -4 -8 -14 -8 -10 0 -16 4 -14 8 3 4 9 8 14 8 5 0 11 -4 14 -8z m226 3
c0 -2 -10 -9 -22 -15 -22 -11 -22 -10 -4 4 21 17 26 19 26 11z m400 -2 c0 -1
-8 -7 -18 -12 -13 -7 -19 -6 -19 2 0 7 9 13 19 13 10 0 18 -1 18 -3z m-796
-18 c24 -18 40 -20 30 -3 -4 7 -3 8 5 4 14 -9 -3 -36 -22 -36 -6 0 -7 3 -4 7
4 3 -5 15 -20 25 -16 10 -23 18 -18 18 6 -1 19 -7 29 -15z m586 11 c0 -2 -7
-7 -16 -10 -8 -3 -12 -2 -9 4 6 10 25 14 25 6z m600 0 c0 -2 -7 -7 -16 -10 -8
-3 -12 -2 -9 4 6 10 25 14 25 6z m-1615 -16 c-28 -12 -37 -12 -30 0 3 6 16 10
28 9 21 0 21 -1 2 -9z m380 -20 c-8 -13 -32 -2 -32 15 0 10 5 11 19 4 10 -6
16 -14 13 -19z m-195 -6 c0 -2 -9 0 -20 6 -11 6 -20 13 -20 16 0 2 9 0 20 -6
11 -6 20 -13 20 -16z m110 4 c0 -6 -6 -5 -15 2 -8 7 -15 14 -15 16 0 2 7 1 15
-2 8 -4 15 -11 15 -16z m365 12 c-3 -5 -10 -10 -16 -10 -5 0 -9 5 -9 10 0 6 7
10 16 10 8 0 12 -4 9 -10z m278 -11 c5 -3 2 -9 -5 -12 -9 -3 -14 3 -15 15 -1
11 1 16 5 12 4 -5 11 -12 15 -15z m222 3 c-3 -3 -11 0 -18 7 -9 10 -8 11 6 5
10 -3 15 -9 12 -12z m493 -4 c-7 -5 -22 -13 -33 -19 l-20 -10 20 16 c11 9 19
20 18 25 -2 5 4 7 13 3 13 -5 13 -7 2 -15z m-1692 -13 c1 -8 -2 -15 -7 -15 -5
0 -9 10 -9 22 0 23 12 17 16 -7z m1304 21 c0 -2 -7 -7 -16 -10 -8 -3 -12 -2
-9 4 6 10 25 14 25 6z m77 -18 c-26 -21 -44 -24 -28 -5 6 8 9 16 7 18 -2 2 7
4 20 4 l24 0 -23 -17z m157 -17 c-2 -2 -10 4 -18 12 -12 11 -13 16 -3 20 11 4
29 -23 21 -32z m-1097 14 c0 -8 -4 -12 -9 -9 -5 3 -6 10 -3 15 9 13 12 11 12
-6z m290 -7 c-3 -8 -6 -5 -6 6 -1 11 2 17 5 13 3 -3 4 -12 1 -19z m383 18 c0
-2 -7 -7 -16 -10 -8 -3 -12 -2 -9 4 6 10 25 14 25 6z m-1182 -31 c-3 -3 -9 2
-12 12 -6 14 -5 15 5 6 7 -7 10 -15 7 -18z m1322 11 c-7 -7 -13 -7 -20 0 -6 6
-3 10 10 10 13 0 16 -4 10 -10z m-849 -13 c13 -15 12 -15 -8 -4 -24 12 -29 21
-14 21 5 0 15 -7 22 -17z m644 -11 c-3 -3 -11 0 -18 7 -9 10 -8 11 6 5 10 -3
15 -9 12 -12z m405 3 c0 -2 -6 -5 -13 -8 -8 -3 -14 1 -14 8 0 7 6 11 14 8 7
-3 13 -6 13 -8z m-655 -5 c3 -5 2 -10 -4 -10 -5 0 -13 5 -16 10 -3 6 -2 10 4
10 5 0 13 -4 16 -10z m105 0 c0 -5 -5 -10 -11 -10 -5 0 -7 5 -4 10 3 6 8 10
11 10 2 0 4 -4 4 -10z m295 0 c3 -5 1 -10 -4 -10 -6 0 -11 5 -11 10 0 6 2 10
4 10 3 0 8 -4 11 -10z m105 0 c0 -5 -5 -10 -11 -10 -5 0 -7 5 -4 10 3 6 8 10
11 10 2 0 4 -4 4 -10z m-1305 -10 c3 -5 2 -10 -4 -10 -5 0 -13 5 -16 10 -3 6
-2 10 4 10 5 0 13 -4 16 -10z m333 -15 c-3 -3 -9 2 -12 12 -6 14 -5 15 5 6 7
-7 10 -15 7 -18z m122 21 c0 -11 -19 -15 -25 -6 -3 5 1 10 9 10 9 0 16 -2 16
-4z m114 -11 c-4 -8 -8 -15 -10 -15 -2 0 -4 7 -4 15 0 8 4 15 10 15 5 0 7 -7
4 -15z m-526 -15 c18 0 8 -13 -13 -16 -10 -1 -15 6 -14 19 0 12 3 16 6 10 2
-7 12 -13 21 -13z m812 6 c0 -11 -19 -15 -25 -6 -3 5 1 10 9 10 9 0 16 -2 16
-4z m401 -9 c-7 -7 -14 -8 -21 -1 -6 6 -2 10 12 11 16 2 18 -1 9 -10z m396 -9
c-3 -8 -6 -5 -6 6 -1 11 2 17 5 13 3 -3 4 -12 1 -19z m-912 2 c3 -5 2 -10 -4
-10 -5 0 -13 5 -16 10 -3 6 -2 10 4 10 5 0 13 -4 16 -10z m230 0 c-3 -5 -11
-10 -16 -10 -6 0 -7 5 -4 10 3 6 11 10 16 10 6 0 7 -4 4 -10z m576 -7 c13 -15
12 -15 -8 -4 -24 12 -29 21 -14 21 5 0 15 -7 22 -17z m-1146 -3 c3 -5 2 -10
-4 -10 -5 0 -13 5 -16 10 -3 6 -2 10 4 10 5 0 13 -4 16 -10z m1303 -34 c-2
-17 -7 -22 -20 -18 -22 5 -24 22 -3 22 8 0 15 5 15 10 0 6 2 10 5 10 3 0 4
-11 3 -24z m-1681 -18 c-3 -7 -5 -2 -5 12 0 14 2 19 5 13 2 -7 2 -19 0 -25z
m433 28 c0 -3 -4 -8 -10 -11 -5 -3 -10 -1 -10 4 0 6 5 11 10 11 6 0 10 -2 10
-4z m370 -22 c0 -2 -9 0 -20 6 -11 6 -20 13 -20 16 0 2 9 0 20 -6 11 -6 20
-13 20 -16z m480 16 c0 -5 -5 -10 -11 -10 -5 0 -7 5 -4 10 3 6 8 10 11 10 2 0
4 -4 4 -10z m320 -6 c0 -2 -8 -8 -18 -13 -14 -7 -18 -6 -18 8 0 12 6 17 18 13
10 -2 18 -6 18 -8z m-356 -7 c16 -12 15 -13 -11 -11 -46 2 -49 4 -33 14 20 13
23 12 44 -3z m-414 -17 c0 -5 -4 -10 -10 -10 -5 0 -10 5 -10 10 0 6 5 10 10
10 6 0 10 -4 10 -10z m350 0 c0 -5 -5 -10 -11 -10 -5 0 -7 5 -4 10 3 6 8 10
11 10 2 0 4 -4 4 -10z m450 0 c0 -5 -2 -10 -4 -10 -3 0 -8 5 -11 10 -3 6 -1
10 4 10 6 0 11 -4 11 -10z m-1633 -62 c-2 -13 -4 -5 -4 17 -1 22 1 32 4 23 2
-10 2 -28 0 -40z m1523 37 c-7 -9 -15 -13 -19 -10 -3 3 1 10 9 15 21 14 24 12
10 -5z m-1095 -15 c3 -5 1 -10 -4 -10 -6 0 -11 5 -11 10 0 6 2 10 4 10 3 0 8
-4 11 -10z m690 0 c-3 -5 -11 -10 -16 -10 -6 0 -7 5 -4 10 3 6 11 10 16 10 6
0 7 -4 4 -10z m230 0 c3 -5 2 -10 -4 -10 -5 0 -13 5 -16 10 -3 6 -2 10 4 10 5
0 13 -4 16 -10z m-970 -30 c-3 -5 -11 -10 -16 -10 -6 0 -7 5 -4 10 3 6 11 10
16 10 6 0 7 -4 4 -10z m110 0 c3 -5 2 -10 -4 -10 -5 0 -13 5 -16 10 -3 6 -2
10 4 10 5 0 13 -4 16 -10z m225 0 c0 -5 -5 -10 -11 -10 -5 0 -7 5 -4 10 3 6 8
10 11 10 2 0 4 -4 4 -10z m470 -5 c-7 -8 -18 -15 -24 -15 -6 0 -2 7 8 15 25
19 32 19 16 0z m505 5 c3 -5 1 -10 -4 -10 -6 0 -11 5 -11 10 0 6 2 10 4 10 3
0 8 -4 11 -10z m-858 -6 c-3 -3 -12 -4 -19 -1 -8 3 -5 6 6 6 11 1 17 -2 13 -5z
m458 -4 c3 -5 2 -10 -4 -10 -5 0 -13 5 -16 10 -3 6 -2 10 4 10 5 0 13 -4 16
-10z m140 0 c-3 -5 -12 -10 -18 -10 -7 0 -6 4 3 10 19 12 23 12 15 0z m-1385
-10 c10 -6 12 -12 5 -19 -7 -7 -14 -4 -23 9 -13 21 -6 25 18 10z m1475 1 c3
-5 1 -12 -5 -16 -5 -3 -10 1 -10 9 0 18 6 21 15 7z m-1043 -32 c29 -17 60 -35
68 -40 8 -5 27 -15 42 -21 15 -7 30 -18 33 -26 5 -14 -2 -11 -48 21 -15 10
-35 16 -43 13 -8 -3 -13 -2 -10 3 8 13 -42 43 -57 35 -7 -4 -9 -4 -5 1 11 11
-29 38 -44 29 -7 -4 -8 -3 -4 4 10 16 8 16 68 -19z m65 -1 c-3 -7 -5 -2 -5 12
0 14 2 19 5 13 2 -7 2 -19 0 -25z m238 22 c-3 -5 -11 -10 -16 -10 -6 0 -7 5
-4 10 3 6 11 10 16 10 6 0 7 -4 4 -10z m59 2 c2 -4 -4 -8 -14 -8 -10 0 -16 4
-14 8 3 4 9 8 14 8 5 0 11 -4 14 -8z m46 -2 c0 -5 -2 -10 -4 -10 -3 0 -8 5
-11 10 -3 6 -1 10 4 10 6 0 11 -4 11 -10z m125 -8 c-3 -3 -11 0 -18 7 -9 10
-8 11 6 5 10 -3 15 -9 12 -12z m315 -40 c14 -7 43 -24 65 -37 29 -17 43 -21
52 -13 7 6 10 14 7 19 -3 5 2 6 10 3 9 -3 16 -10 16 -16 0 -5 -4 -7 -9 -4 -4
3 -15 -2 -23 -12 -12 -13 -15 -43 -14 -129 l1 -111 -52 -28 c-29 -15 -53 -31
-53 -35 0 -9 30 -20 39 -14 4 2 8 -2 8 -10 0 -8 -4 -12 -8 -9 -5 3 -19 -1 -31
-7 -21 -11 -22 -11 -9 4 22 28 -15 33 -57 9 -32 -18 -37 -26 -39 -62 -1 -22 4
-46 11 -52 10 -10 10 -15 1 -25 -8 -7 -11 -33 -9 -66 3 -51 2 -55 -21 -61 -14
-4 -25 -11 -25 -16 0 -6 -4 -10 -9 -10 -5 0 -41 -18 -80 -41 l-70 -40 -63 33
c-34 18 -69 39 -77 47 -8 7 -27 17 -41 23 -23 7 -26 13 -22 40 4 27 2 30 -14
24 -17 -7 -17 -6 1 12 20 19 20 18 23 -18 3 -31 9 -40 42 -59 22 -12 45 -19
50 -16 6 4 9 1 8 -5 -2 -7 18 -24 43 -38 52 -30 49 -30 154 33 22 14 50 29 63
35 19 8 22 17 22 70 0 41 -4 60 -12 61 -10 0 -10 2 0 6 16 6 15 93 -1 114 -7
9 -18 14 -24 12 -7 -3 -13 0 -13 5 0 6 -6 12 -12 15 -7 2 -2 2 12 0 14 -2 32
-12 41 -23 15 -18 17 -18 35 -2 11 9 32 23 48 30 24 10 26 15 15 28 -7 8 -18
13 -26 10 -8 -3 -11 -1 -8 4 9 14 21 12 39 -6 14 -14 20 -13 61 11 l45 27 0
111 0 112 -67 38 c-37 21 -75 36 -84 34 -10 -3 -16 1 -15 11 1 22 -28 26 -47
7 -9 -8 -22 -15 -29 -15 -19 -1 -49 -26 -40 -34 4 -4 3 -7 -3 -6 -23 5 -43 -1
-63 -20 -25 -24 -44 -26 -36 -5 4 8 12 15 19 15 7 0 24 9 39 21 14 11 26 18
26 14 0 -3 12 2 26 12 77 50 86 52 124 29 19 -12 46 -27 60 -34z m453 43 c6 4
1 -3 -13 -14 -14 -11 -29 -21 -34 -21 -4 0 2 -9 15 -21 19 -16 20 -18 4 -10
-11 5 -29 17 -40 26 -11 9 -14 14 -7 10 7 -4 19 -1 28 5 11 10 12 16 2 28 -11
13 -10 14 10 3 12 -6 28 -9 35 -6z m-666 -17 c-3 -8 -6 -5 -6 6 -1 11 2 17 5
13 3 -3 4 -12 1 -19z m237 16 c20 -8 21 -20 2 -27 -8 -3 -16 2 -19 14 -6 21
-5 22 17 13z m-954 -9 c0 -2 -15 -12 -32 -20 l-33 -16 25 20 c24 20 40 26 40
16z m396 -4 c-4 -5 -1 -11 6 -13 7 -3 5 -7 -6 -11 -11 -5 -15 -3 -10 5 5 8 1
9 -12 5 -18 -7 -18 -7 0 8 23 17 30 19 22 6z m704 -2 c0 -3 -9 -9 -19 -12 -13
-3 -18 0 -15 7 5 13 34 18 34 5z m190 -4 c0 -2 -6 -5 -13 -8 -8 -3 -14 1 -14
8 0 7 6 11 14 8 7 -3 13 -6 13 -8z m-1686 -27 c-21 -10 -63 -32 -93 -48 -29
-17 -55 -29 -57 -27 -2 2 27 21 64 42 37 22 69 42 72 46 8 10 34 17 44 11 6
-3 -8 -14 -30 -24z m113 6 c-9 -9 -28 6 -21 18 4 6 10 6 17 -1 6 -6 8 -13 4
-17z m500 12 c0 -8 -6 -12 -15 -9 -11 5 -11 7 0 14 7 5 13 9 14 9 0 0 1 -6 1
-14z m103 5 c0 -5 -7 -12 -16 -15 -14 -5 -15 -4 -4 9 14 17 20 19 20 6z m173
2 c3 -5 -6 -9 -20 -10 -19 -1 -22 1 -12 8 17 11 26 11 32 2z m60 -23 c-8 -30
-28 -43 -42 -26 -10 12 -9 13 8 9 16 -4 21 -1 21 16 0 11 4 21 9 21 5 0 7 -9
4 -20z m127 16 c0 -3 -4 -8 -10 -11 -5 -3 -10 -1 -10 4 0 6 5 11 10 11 6 0 10
-2 10 -4z m466 -8 c4 4 3 0 -4 -9 -6 -9 -9 -19 -5 -23 4 -4 0 -4 -10 0 -9 3
-17 15 -17 26 0 16 3 18 13 9 8 -6 18 -7 23 -3z m-1083 -20 c20 -21 15 -23
-13 -6 -16 10 -24 10 -42 -1 -12 -7 -42 -25 -67 -39 -25 -14 -60 -36 -77 -49
-32 -24 -44 -28 -44 -15 0 4 27 23 60 42 39 22 59 39 55 48 -3 7 0 10 6 7 12
-8 69 13 69 26 0 14 34 5 53 -13z m1177 7 c0 -2 -6 -5 -13 -8 -8 -3 -14 1 -14
8 0 7 6 11 14 8 7 -3 13 -6 13 -8z m-1575 -22 c-15 -8 -29 -12 -33 -9 -3 3 0
6 7 6 7 0 9 4 6 10 -4 6 1 7 11 3 12 -4 15 -3 10 5 -5 8 -1 10 10 5 14 -5 12
-8 -11 -20z m265 22 c0 -2 -15 -12 -32 -20 l-33 -16 25 20 c24 20 40 26 40 16z
m330 -10 c0 -12 -19 -12 -23 0 -4 9 -1 12 9 8 7 -3 14 -7 14 -8z m86 -1 c15 6
16 4 7 -5 -14 -14 -43 -5 -43 13 0 10 3 9 9 -1 6 -9 16 -11 27 -7z m98 8 c2
-4 -4 -8 -14 -8 -10 0 -16 4 -14 8 3 4 9 8 14 8 5 0 11 -4 14 -8z m396 4 c0
-2 -7 -7 -16 -10 -8 -3 -12 -2 -9 4 6 10 25 14 25 6z m195 -6 c3 -6 -1 -7 -9
-4 -18 7 -21 14 -7 14 6 0 13 -4 16 -10z m-1228 -22 c0 -13 -1 -18 -4 -11 -2
7 -10 10 -18 7 -7 -3 -16 0 -21 7 -4 7 -3 10 2 6 6 -3 16 -2 24 4 8 5 15 9 15
9 1 0 1 -10 2 -22z m809 7 c-11 -8 -25 -15 -30 -15 -6 1 0 7 14 15 32 19 40
18 16 0z m302 -25 c-2 -7 -11 -5 -23 5 -16 12 -17 14 -2 9 10 -4 17 -1 18 7 0
11 2 11 6 2 2 -7 3 -18 1 -23z m273 17 c-6 -8 -8 -17 -4 -21 4 -4 0 -4 -10 0
-17 6 -17 7 0 20 23 17 28 18 14 1z m127 -17 c-2 -7 -11 -5 -23 5 -16 12 -17
14 -2 9 10 -4 17 -1 18 7 0 11 2 11 6 2 2 -7 3 -18 1 -23z m-1198 5 c6 -8 15
-14 18 -13 14 4 52 -27 52 -42 0 -10 -3 -11 -8 -4 -4 7 -28 23 -54 37 -26 14
-44 28 -41 31 10 10 20 7 33 -9z m-506 -24 c4 -5 -3 -7 -14 -4 -11 3 -20 10
-20 15 0 5 -5 6 -12 2 -7 -4 -8 -3 -4 4 7 12 39 1 50 -17z m234 10 c-7 -11
-16 -17 -22 -14 -5 3 -1 12 9 20 25 18 27 17 13 -6z m535 12 c3 -5 -5 -8 -18
-8 -13 0 -21 3 -18 8 2 4 10 7 18 7 8 0 16 -3 18 -7z m143 -8 c25 -19 14 -19
-22 0 -16 8 -22 15 -13 15 8 0 24 -7 35 -15z m254 11 c0 -2 -9 -6 -20 -9 -11
-3 -18 -1 -14 4 5 9 34 13 34 5z m-1063 -21 c0 -8 -4 -12 -9 -9 -5 3 -6 10 -3
15 9 13 12 11 12 -6z m568 5 c-3 -5 -11 -10 -16 -10 -6 0 -7 5 -4 10 3 6 11
10 16 10 6 0 7 -4 4 -10z m316 -7 c13 -15 12 -15 -8 -4 -24 12 -29 21 -14 21
5 0 15 -7 22 -17z m549 13 c0 -3 -4 -8 -10 -11 -5 -3 -10 -1 -10 4 0 6 5 11
10 11 6 0 10 -2 10 -4z m-1364 -24 c-3 -3 2 -11 12 -18 15 -11 14 -13 -11 -10
-15 1 -30 6 -35 11 -4 4 -1 5 6 1 11 -7 17 5 13 27 -1 5 3 5 9 2 6 -4 9 -9 6
-13z m944 13 c0 -2 -10 -9 -22 -15 -22 -11 -22 -10 -4 4 21 17 26 19 26 11z
m-690 -15 c0 -5 -4 -10 -10 -10 -5 0 -10 5 -10 10 0 6 5 10 10 10 6 0 10 -4
10 -10z m400 0 c0 -5 -5 -10 -11 -10 -5 0 -7 5 -4 10 3 6 8 10 11 10 2 0 4 -4
4 -10z m400 0 c0 -5 -4 -10 -10 -10 -5 0 -10 5 -10 10 0 6 5 10 10 10 6 0 10
-4 10 -10z m395 0 c3 -5 1 -10 -4 -10 -6 0 -11 5 -11 10 0 6 2 10 4 10 3 0 8
-4 11 -10z m-158 -22 c-3 -8 -6 -5 -6 6 -1 11 2 17 5 13 3 -3 4 -12 1 -19z
m-870 -20 c-3 -7 -5 -2 -5 12 0 14 2 19 5 13 2 -7 2 -19 0 -25z m53 17 c0 -2
-9 -9 -20 -15 -12 -6 -20 -7 -20 -1 0 5 8 12 18 14 9 3 18 5 20 6 1 0 2 -1 2
-4z m400 -8 c0 -8 -7 -14 -15 -14 -25 0 -17 17 13 26 1 1 2 -5 2 -12z m-1160
-7 c0 -5 -5 -10 -11 -10 -5 0 -7 5 -4 10 3 6 8 10 11 10 2 0 4 -4 4 -10z
m1027 -32 c-3 -7 -5 -2 -5 12 0 14 2 19 5 13 2 -7 2 -19 0 -25z m398 22 c3 -5
1 -10 -4 -10 -6 0 -11 5 -11 10 0 6 2 10 4 10 3 0 8 -4 11 -10z m400 0 c3 -5
1 -10 -4 -10 -6 0 -11 5 -11 10 0 6 2 10 4 10 3 0 8 -4 11 -10z m-1855 -4 c0
-3 -4 -8 -10 -11 -5 -3 -10 -1 -10 4 0 6 5 11 10 11 6 0 10 -2 10 -4z m685
-16 c3 -5 1 -10 -4 -10 -6 0 -11 5 -11 10 0 6 2 10 4 10 3 0 8 -4 11 -10z
m565 0 c0 -5 -5 -10 -11 -10 -5 0 -7 5 -4 10 3 6 8 10 11 10 2 0 4 -4 4 -10z
m-940 -10 c0 -5 -4 -10 -9 -10 -6 0 -13 5 -16 10 -3 6 1 10 9 10 9 0 16 -4 16
-10z m420 -10 c8 -5 12 -11 9 -14 -3 -3 -14 1 -25 9 -21 16 -8 20 16 5z m90 6
c0 -3 -4 -8 -10 -11 -5 -3 -10 -1 -10 4 0 6 5 11 10 11 6 0 10 -2 10 -4z m330
-16 c0 -4 -9 -10 -20 -13 -15 -4 -20 0 -20 13 0 13 5 17 20 13 11 -3 20 -9 20
-13z m50 0 c0 -4 -8 -10 -18 -12 -12 -3 -18 1 -19 12 -1 13 4 16 18 13 10 -3
19 -9 19 -13z m327 12 c9 -6 7 -11 -7 -20 -16 -10 -18 -9 -17 8 1 22 6 24 24
12z m83 -7 c0 -9 -6 -12 -16 -8 -13 5 -13 7 -2 14 17 11 18 11 18 -6z m317 7
c9 -6 8 -11 -5 -19 -15 -9 -18 -7 -18 8 0 21 5 23 23 11z m-1592 -12 c3 -5 1
-10 -4 -10 -6 0 -11 5 -11 10 0 6 2 10 4 10 3 0 8 -4 11 -10z m445 -10 c-10
-7 -11 -10 -2 -10 6 0 12 -5 12 -11 0 -8 -5 -8 -15 1 -8 7 -15 9 -15 5 0 -5
-3 -5 -7 -2 -3 4 2 14 13 21 10 8 21 12 24 10 2 -3 -2 -9 -10 -14z m667 -2
c-3 -8 -6 -5 -6 6 -1 11 2 17 5 13 3 -3 4 -12 1 -19z m-1072 2 c-3 -5 -10 -10
-16 -10 -5 0 -9 5 -9 10 0 6 7 10 16 10 8 0 12 -4 9 -10z m364 -32 c0 -13 -3
-18 -5 -11 -3 7 -13 10 -22 7 -14 -5 -13 -2 2 10 25 21 26 20 25 -6z m97 -15
c-6 -6 -36 9 -36 18 0 5 9 4 20 -3 10 -7 18 -14 16 -15z m839 17 c3 -5 1 -10
-4 -10 -6 0 -11 5 -11 10 0 6 2 10 4 10 3 0 8 -4 11 -10z m-615 -16 c0 -8 -5
-12 -10 -9 -6 4 -8 11 -5 16 9 14 15 11 15 -7z m-508 -111 c29 -15 58 -26 63
-24 6 1 4 -3 -3 -11 -11 -11 -14 -10 -21 1 -5 8 -14 10 -21 6 -9 -5 -11 -4 -6
3 4 7 1 12 -6 12 -18 0 -209 116 -202 123 3 3 37 -15 74 -39 38 -24 93 -56
122 -71z m125 95 c-3 -8 -6 -5 -6 6 -1 11 2 17 5 13 3 -3 4 -12 1 -19z m512
-7 c-1 -17 -3 -20 -6 -8 -2 9 -9 17 -14 17 -5 0 -9 4 -9 8 0 5 7 9 15 9 10 0
15 -9 14 -26z m-863 -6 c-11 -8 -16 -15 -12 -15 4 0 4 -5 0 -11 -4 -8 -9 -7
-15 2 -9 14 14 39 35 39 6 0 2 -7 -8 -15z m1199 5 c-3 -5 -11 -10 -16 -10 -6
0 -7 5 -4 10 3 6 11 10 16 10 6 0 7 -4 4 -10z m90 0 c3 -5 1 -10 -4 -10 -6 0
-11 5 -11 10 0 6 2 10 4 10 3 0 8 -4 11 -10z m310 0 c-3 -5 -11 -10 -16 -10
-6 0 -7 5 -4 10 3 6 11 10 16 10 6 0 7 -4 4 -10z m-1070 -55 c41 -25 79 -45
84 -45 5 0 13 -6 19 -12 8 -10 4 -13 -18 -13 -15 0 -26 5 -23 11 5 13 -42 38
-56 29 -6 -3 -10 -2 -9 4 2 5 -22 26 -52 46 -75 50 -36 36 55 -20z m268 40 c4
-8 2 -17 -3 -20 -6 -4 -10 3 -10 14 0 25 6 27 13 6z m127 -17 c0 -6 -6 -5 -15
2 -8 7 -15 14 -15 16 0 2 7 1 15 -2 8 -4 15 -11 15 -16z m110 18 c0 -3 -4 -8
-10 -11 -5 -3 -10 -1 -10 4 0 6 5 11 10 11 6 0 10 -2 10 -4z m410 0 c0 -2 -7
-7 -16 -10 -8 -3 -12 -2 -9 4 6 10 25 14 25 6z m-1087 -21 c4 -8 2 -17 -3 -20
-6 -4 -10 3 -10 14 0 25 6 27 13 6z m252 -3 c-3 -3 -11 0 -18 7 -9 10 -8 11 6
5 10 -3 15 -9 12 -12z m125 3 c0 -8 -4 -15 -10 -15 -5 0 -7 7 -4 15 4 8 8 15
10 15 2 0 4 -7 4 -15z m-617 -44 c20 -12 37 -20 37 -16 0 3 10 -4 22 -15 13
-11 33 -23 45 -26 14 -4 20 -11 16 -21 -4 -9 -8 -11 -12 -4 -9 14 -173 111
-188 111 -6 0 -18 -6 -25 -12 -8 -7 -40 -26 -71 -42 -105 -52 -102 -48 -101
-170 1 -59 -3 -109 -7 -112 -5 -3 -9 48 -9 113 l0 118 107 62 c95 55 110 61
128 50 11 -7 37 -23 58 -36z m747 39 c0 -5 -4 -10 -10 -10 -5 0 -10 5 -10 10
0 6 5 10 10 10 6 0 10 -4 10 -10z m270 6 c0 -3 -4 -8 -10 -11 -5 -3 -10 -1
-10 4 0 6 5 11 10 11 6 0 10 -2 10 -4z m393 -38 c-2 -4 -13 0 -23 10 -24 20
-25 23 -5 16 9 -4 15 0 16 7 0 8 4 5 8 -6 5 -11 7 -23 4 -27z m-983 -45 c85
-49 86 -49 102 -29 17 20 17 20 16 -24 -1 -45 -1 -45 -8 -10 -5 25 -8 29 -9
11 -1 -23 -1 -23 -28 -5 -63 41 -192 112 -196 108 -2 -3 -7 2 -10 11 -8 18 1
14 133 -62z m430 62 c0 -2 -6 -5 -13 -8 -8 -3 -14 1 -14 8 0 7 6 11 14 8 7 -3
13 -6 13 -8z m405 -3 c-3 -3 -11 0 -18 7 -9 10 -8 11 6 5 10 -3 15 -9 12 -12z
m-551 -7 c3 3 2 0 -2 -5 -11 -13 -44 -2 -36 12 4 5 11 5 18 -1 7 -6 16 -9 20
-6z m460 7 c3 -5 -1 -9 -9 -9 -8 0 -15 4 -15 9 0 4 4 8 9 8 6 0 12 -4 15 -8z
m316 3 c0 -2 -10 -10 -22 -16 -21 -11 -22 -11 -9 4 13 16 31 23 31 12z m-914
-14 c-6 -9 17 -22 46 -26 26 -2 31 -12 13 -19 -11 -4 -14 -2 -9 6 5 7 2 9 -8
5 -9 -3 -21 0 -27 6 -6 6 -11 8 -11 4 0 -4 -6 -2 -14 5 -10 9 -11 15 -2 20 15
10 18 10 12 -1z m44 -1 c0 -5 -5 -10 -11 -10 -5 0 -7 5 -4 10 3 6 8 10 11 10
2 0 4 -4 4 -10z m198 -12 c-5 -15 -23 -11 -26 6 -2 11 2 14 13 10 9 -4 14 -11
13 -16z m415 5 c-4 -10 -14 -25 -22 -33 -13 -13 -14 -13 -9 1 4 9 1 22 -5 28
-9 9 -8 11 6 6 10 -4 17 -2 17 4 0 6 4 11 10 11 5 0 6 -8 3 -17z m-983 -1 c0
-5 12 -14 26 -21 15 -6 25 -14 22 -16 -2 -3 -21 4 -41 14 -20 10 -33 21 -30
25 9 9 23 7 23 -2z m-272 -37 c37 -20 81 -47 97 -61 l30 -25 -45 24 c-67 36
-165 97 -157 97 4 0 38 -16 75 -35z m947 17 c-3 -3 -11 0 -18 7 -9 10 -8 11 6
5 10 -3 15 -9 12 -12z m200 8 c3 -6 -1 -7 -9 -4 -18 7 -21 14 -7 14 6 0 13 -4
16 -10z m205 6 c0 -3 -4 -8 -10 -11 -5 -3 -10 -1 -10 4 0 6 5 11 10 11 6 0 10
-2 10 -4z m-1625 -24 c-3 -3 -11 0 -18 7 -9 10 -8 11 6 5 10 -3 15 -9 12 -12z
m1695 -2 c-27 -21 -40 -25 -40 -12 0 8 38 29 55 31 6 0 -1 -8 -15 -19z m-630
6 c0 -2 -7 -7 -16 -10 -8 -3 -12 -2 -9 4 6 10 25 14 25 6z m510 -16 c0 -5 -2
-10 -4 -10 -3 0 -8 5 -11 10 -3 6 -1 10 4 10 6 0 11 -4 11 -10z m190 -10 c0
-4 -8 -10 -18 -12 -12 -3 -18 1 -18 12 0 11 6 15 18 12 10 -2 18 -8 18 -12z
m-1777 -4 c9 5 9 4 0 -6 -13 -15 -37 -4 -26 13 5 8 8 8 11 -1 2 -7 9 -9 15 -6z
m1117 -1 c0 -8 -2 -15 -4 -15 -2 0 -6 7 -10 15 -3 8 -1 15 4 15 6 0 10 -7 10
-15z m401 -6 c19 -16 20 -18 4 -10 -34 17 -51 31 -39 31 7 0 22 -9 35 -21z
m-501 -4 c0 -1 -9 -5 -19 -8 -13 -3 -18 -1 -14 9 4 10 33 10 33 -1z m630 0
c-7 -9 -15 -13 -19 -10 -3 3 1 10 9 15 21 14 24 12 10 -5z m-1174 -40 c-11 -8
-24 -15 -30 -15 -5 0 -1 7 10 15 10 8 24 14 29 14 6 0 1 -6 -9 -14z m1214 5
c0 -5 -5 -10 -11 -10 -5 0 -7 5 -4 10 3 6 8 10 11 10 2 0 4 -4 4 -10z m-1263
-22 c-3 -8 -6 -5 -6 6 -1 11 2 17 5 13 3 -3 4 -12 1 -19z m1090 -10 c-3 -7 -5
-2 -5 12 0 14 2 19 5 13 2 -7 2 -19 0 -25z m-172 2 c-3 -5 -12 -10 -18 -10 -7
0 -6 4 3 10 19 12 23 12 15 0z m-515 -25 c0 2 9 -3 20 -12 23 -20 19 -29 -6
-15 -13 7 -24 6 -41 -5 -13 -8 -23 -11 -23 -5 0 5 8 13 18 17 16 6 16 7 0 19
-28 20 -21 30 7 12 14 -9 25 -14 25 -11z m930 21 c0 -3 -4 -8 -10 -11 -5 -3
-10 -1 -10 4 0 6 5 11 10 11 6 0 10 -2 10 -4z m-1330 -43 c0 -9 -3 -13 -6 -10
-4 3 -15 2 -25 -4 -11 -5 -19 -6 -19 -1 0 7 30 27 48 31 1 1 2 -6 2 -16z
m1215 7 c3 -5 1 -10 -4 -10 -6 0 -11 5 -11 10 0 6 2 10 4 10 3 0 8 -4 11 -10z
m42 -4 c-3 -7 0 -19 6 -25 15 -15 0 -14 -17 1 -9 9 -10 16 -2 25 15 16 19 16
13 -1z m-70 -13 c0 -7 -4 -10 -8 -7 -5 3 -18 0 -29 -6 -19 -10 -20 -9 -9 7 13
21 46 25 46 6z m-332 -3 c3 -5 1 -10 -4 -10 -6 0 -11 5 -11 10 0 6 2 10 4 10
3 0 8 -4 11 -10z m-95 -4 c0 -2 -7 -7 -16 -10 -8 -3 -12 -2 -9 4 6 10 25 14
25 6z m-1233 -38 c-3 -8 -6 -5 -6 6 -1 11 2 17 5 13 3 -3 4 -12 1 -19z m123
12 c0 -5 -2 -10 -4 -10 -3 0 -8 5 -11 10 -3 6 -1 10 4 10 6 0 11 -4 11 -10z
m777 -37 c-3 -10 -5 -4 -5 12 0 17 2 24 5 18 2 -7 2 -21 0 -30z m273 33 c0 -3
-4 -8 -10 -11 -5 -3 -10 -1 -10 4 0 6 5 11 10 11 6 0 10 -2 10 -4z m400 0 c0
-3 -4 -8 -10 -11 -5 -3 -10 -1 -10 4 0 6 5 11 10 11 6 0 10 -2 10 -4z m225 -6
c3 -5 2 -10 -4 -10 -5 0 -13 5 -16 10 -3 6 -2 10 4 10 5 0 13 -4 16 -10z
m-1328 -22 c-3 -8 -6 -5 -6 6 -1 11 2 17 5 13 3 -3 4 -12 1 -19z m1213 12 c0
-5 -5 -10 -11 -10 -5 0 -7 5 -4 10 3 6 8 10 11 10 2 0 4 -4 4 -10z m-1154 -37
c-6 -6 -46 20 -46 30 0 4 11 0 25 -9 14 -9 24 -19 21 -21z m-116 -5 c-14 -13
-51 -36 -83 -53 -31 -16 -57 -33 -57 -37 0 -4 -7 -5 -16 -1 -12 4 -8 9 15 21
17 8 28 19 24 25 -3 6 -1 7 6 3 6 -4 28 3 49 16 83 52 98 58 62 26z m420 12
c0 -5 -5 -10 -11 -10 -5 0 -7 5 -4 10 3 6 8 10 11 10 2 0 4 -4 4 -10z m800 5
c0 -2 -10 -9 -22 -15 -22 -11 -22 -10 -4 4 21 17 26 19 26 11z m100 -5 c0 -5
-2 -10 -4 -10 -3 0 -8 5 -11 10 -3 6 -1 10 4 10 6 0 11 -4 11 -10z m-1601 -23
c0 -9 -2 -8 -6 1 -2 6 -10 9 -15 6 -7 -4 -8 -2 -4 5 9 13 26 5 25 -12z m546 5
c-3 -3 -11 0 -18 7 -9 10 -8 11 6 5 10 -3 15 -9 12 -12z m405 8 c0 -5 -5 -10
-11 -10 -5 0 -7 5 -4 10 3 6 8 10 11 10 2 0 4 -4 4 -10z m-829 -18 c-7 -2 -18
1 -23 6 -8 8 -4 9 13 5 13 -4 18 -8 10 -11z m709 8 c0 -5 -2 -10 -4 -10 -3 0
-8 5 -11 10 -3 6 -1 10 4 10 6 0 11 -4 11 -10z m203 -49 c-1 -2 -9 1 -16 7 -8
7 -16 11 -18 9 -2 -1 1 3 8 9 7 6 14 17 14 25 1 8 4 1 8 -16 4 -16 6 -32 4
-34z m-701 32 c-6 -3 -9 -10 -6 -15 4 -6 2 -8 -4 -5 -5 4 -49 -16 -96 -43 -82
-49 -86 -50 -110 -35 -18 12 -25 13 -28 3 -3 -7 -7 -2 -10 10 l-6 23 33 -20
34 -19 46 29 c25 16 48 29 50 29 3 0 26 13 52 29 26 17 50 27 53 24 3 -3 -1
-8 -8 -10z m313 7 c-3 -5 -11 -10 -16 -10 -6 0 -7 5 -4 10 3 6 11 10 16 10 6
0 7 -4 4 -10z m65 6 c0 -3 -4 -8 -10 -11 -5 -3 -10 -1 -10 4 0 6 5 11 10 11 6
0 10 -2 10 -4z m545 -6 c3 -6 -1 -7 -9 -4 -18 7 -21 14 -7 14 6 0 13 -4 16
-10z m181 -20 c0 -13 -5 -19 -14 -15 -7 3 -19 5 -25 5 -12 1 21 30 33 30 3 0
6 -9 6 -20z m128 11 c4 -5 -3 -7 -14 -4 -23 6 -26 13 -6 13 8 0 17 -4 20 -9z
m126 -14 c0 -6 -3 -7 -7 -4 -3 4 -11 3 -17 -3 -8 -6 -12 -3 -12 9 0 12 6 17
18 13 10 -2 18 -9 18 -15z m-1769 -10 c-8 -8 -14 -7 -23 2 -11 10 -9 11 6 5
15 -6 17 -4 11 6 -6 9 -4 11 4 5 9 -5 10 -10 2 -18z m165 -5 c1 -7 0 -8 -3 -2
-2 5 -13 10 -23 10 -10 0 -21 4 -24 9 -4 5 5 6 21 2 15 -4 28 -13 29 -19z
m293 2 c-6 -8 -17 -14 -23 -14 -6 0 -5 4 3 9 7 5 11 14 7 20 -5 7 -1 9 9 5 12
-5 13 -9 4 -20z m101 16 c0 -5 -4 -10 -10 -10 -5 0 -10 5 -10 10 0 6 5 10 10
10 6 0 10 -4 10 -10z m130 6 c0 -3 -4 -8 -10 -11 -5 -3 -10 -1 -10 4 0 6 5 11
10 11 6 0 10 -2 10 -4z m280 -4 c0 -5 -7 -9 -15 -9 -8 0 -15 4 -15 9 0 4 7 8
15 8 8 0 15 -4 15 -8z m-430 -28 c0 -3 -5 -2 -11 2 -6 3 -15 1 -19 -6 -5 -9
-9 -9 -14 -1 -4 6 -2 11 4 11 6 0 8 5 4 11 -4 8 0 8 15 0 11 -7 21 -14 21 -17z
m197 9 c0 -18 -14 -33 -31 -33 -5 0 -2 8 5 17 10 11 10 14 2 9 -7 -4 -13 -3
-13 3 0 5 8 12 18 14 9 3 17 5 18 6 0 0 1 -7 1 -16z m843 7 c0 -5 -5 -10 -11
-10 -5 0 -7 5 -4 10 3 6 8 10 11 10 2 0 4 -4 4 -10z m100 0 c0 -5 -4 -10 -10
-10 -5 0 -10 5 -10 10 0 6 5 10 10 10 6 0 10 -4 10 -10z m-1055 -26 c-11 -8
-19 -19 -18 -24 2 -5 -4 -7 -12 -4 -8 4 -15 1 -15 -6 0 -6 -5 -8 -11 -4 -6 3
5 16 28 30 43 27 58 31 28 8z m596 -2 c-7 -2 -18 1 -23 6 -8 8 -4 9 13 5 13
-4 18 -8 10 -11z m164 -35 c6 -5 -5 -2 -23 7 -28 15 -35 15 -53 2 -15 -10 -17
-15 -7 -19 7 -2 11 -7 8 -10 -3 -3 -16 3 -30 15 -14 11 -19 17 -13 13 7 -3 23
1 35 9 12 9 17 16 10 16 -6 0 -12 5 -12 11 0 10 62 -22 85 -44z m165 49 c0 -3
-4 -8 -10 -11 -5 -3 -10 -1 -10 4 0 6 5 11 10 11 6 0 10 -2 10 -4z m170 -6 c0
-5 -4 -10 -10 -10 -5 0 -10 5 -10 10 0 6 5 10 10 10 6 0 10 -4 10 -10z m-1604
-28 c-4 -3 -14 2 -24 12 -16 18 -16 18 6 6 13 -6 21 -14 18 -18z m918 20 c2
-4 -4 -8 -14 -8 -10 0 -16 4 -14 8 3 4 9 8 14 8 5 0 11 -4 14 -8z m400 0 c2
-4 -4 -8 -14 -8 -10 0 -16 4 -14 8 3 4 9 8 14 8 5 0 11 -4 14 -8z m191 -2 c3
-5 1 -10 -4 -10 -6 0 -11 5 -11 10 0 6 2 10 4 10 3 0 8 -4 11 -10z m-748 -14
c0 -8 -6 -12 -15 -9 -11 5 -11 7 0 14 7 5 13 9 14 9 0 0 1 -6 1 -14z m913 -21
c0 -10 -16 -4 -40 16 l-25 20 33 -16 c17 -8 32 -18 32 -20z m-1396 17 c2 -4
-4 -8 -14 -8 -10 0 -16 4 -14 8 3 4 9 8 14 8 5 0 11 -4 14 -8z m121 -2 c3 -5
2 -10 -4 -10 -5 0 -13 5 -16 10 -3 6 -2 10 4 10 5 0 13 -4 16 -10z m149 4 c16
-6 12 -24 -5 -24 -6 0 -7 5 -3 12 5 8 2 9 -10 5 -10 -4 -15 -3 -11 3 7 12 8
12 29 4z m86 -4 c0 -5 -7 -10 -16 -10 -8 0 -12 5 -9 10 3 6 10 10 16 10 5 0 9
-4 9 -10z m403 -11 c5 -3 2 -9 -7 -12 -12 -5 -16 0 -16 15 0 12 3 17 8 12 4
-5 11 -12 15 -15z m327 5 c0 -2 -10 -9 -22 -15 -20 -11 -21 -10 -11 3 7 8 10
18 6 22 -4 4 0 4 10 0 9 -3 17 -8 17 -10z m-1611 -21 c0 -25 -1 -26 -9 -8 -12
27 -12 35 0 35 6 0 10 -12 9 -27z m1684 1 c-23 -17 -39 -18 -24 -1 6 8 8 16 5
20 -3 3 4 3 15 0 20 -5 20 -6 4 -19z m160 5 c-4 -14 -8 -17 -13 -9 -4 7 -14 9
-21 6 -8 -4 -5 0 5 8 27 22 35 20 29 -5z m-803 1 c0 -5 -2 -10 -4 -10 -3 0 -8
5 -11 10 -3 6 -1 10 4 10 6 0 11 -4 11 -10z m-595 -20 c-3 -5 -12 -10 -18 -10
-7 0 -6 4 3 10 19 12 23 12 15 0z m365 5 c0 -2 -10 -10 -22 -16 -21 -11 -22
-11 -9 4 13 16 31 23 31 12z m120 1 c0 -2 -7 -7 -16 -10 -8 -3 -12 -2 -9 4 6
10 25 14 25 6z m677 -28 c-3 -7 -5 -2 -5 12 0 14 2 19 5 13 2 -7 2 -19 0 -25z
m-247 10 c0 -4 -7 -8 -15 -8 -8 0 -15 4 -15 8 0 5 7 9 15 9 8 0 15 -4 15 -9z
m410 -11 c0 -2 -8 -3 -18 -3 -10 0 -19 6 -19 13 0 8 6 9 19 2 10 -5 18 -11 18
-12z m-1465 3 c3 -5 1 -10 -4 -10 -6 0 -11 5 -11 10 0 6 2 10 4 10 3 0 8 -4
11 -10z m450 0 c3 -5 1 -10 -4 -10 -6 0 -11 5 -11 10 0 6 2 10 4 10 3 0 8 -4
11 -10z m465 6 c0 -2 -7 -7 -16 -10 -8 -3 -12 -2 -9 4 6 10 25 14 25 6z m290
-16 c0 -5 -2 -10 -4 -10 -3 0 -8 5 -11 10 -3 6 -1 10 4 10 6 0 11 -4 11 -10z
m405 0 c3 -5 2 -10 -4 -10 -5 0 -13 5 -16 10 -3 6 -2 10 4 10 5 0 13 -4 16
-10z m-1564 -18 c-7 -2 -18 1 -23 6 -8 8 -4 9 13 5 13 -4 18 -8 10 -11z m1209
-2 c0 -5 -5 -10 -11 -10 -5 0 -7 5 -4 10 3 6 8 10 11 10 2 0 4 -4 4 -10z"/>
<path d="M790 1349 c0 -5 5 -7 10 -4 6 3 10 8 10 11 0 2 -4 4 -10 4 -5 0 -10
-5 -10 -11z"/>
</g>
</svg>
