<?xml version="1.0" standalone="no"?>
<!DOCTYPE svg PUBLIC "-//W3C//DTD SVG 20010904//EN"
 "http://www.w3.org/TR/2001/REC-SVG-20010904/DTD/svg10.dtd">
<svg version="1.0" xmlns="http://www.w3.org/2000/svg"
 width="200.000000pt" height="200.000000pt" viewBox="0 0 200.000000 200.000000"
 preserveAspectRatio="xMidYMid meet">
<metadata>
Created by potrace 1.16, written by Peter Selinger 2001-2019
</metadata>
<g transform="translate(0.000000,200.000000) scale(0.100000,-0.100000)"
fill="#000000" stroke="none">
<path d="M0 1969 c0 -16 3 -29 8 -29 4 0 30 14 57 30 l50 29 -57 0 c-57 -1
-58 -2 -58 -30z"/>
<path d="M65 1961 l-60 -38 -2 -226 -2 -227 30 -20 c16 -12 38 -22 48 -23 11
0 18 -4 16 -7 -2 -4 14 -17 35 -29 56 -31 50 -37 -7 -7 -25 14 -51 22 -57 19
-6 -3 -8 -2 -3 2 7 8 -39 45 -56 45 -12 0 -7 -303 6 -319 9 -11 9 -13 0 -8 -9
6 -12 -24 -12 -123 0 -72 4 -128 8 -126 4 3 8 -1 8 -9 0 -8 -4 -12 -9 -9 -10
6 -11 -67 0 -82 4 -6 28 -23 54 -37 25 -14 65 -37 87 -51 l41 -26 -2 112 -3
113 -40 20 c-21 11 -48 28 -60 39 -20 18 -20 18 5 6 14 -7 41 -23 60 -35 43
-27 47 -27 90 0 49 31 111 61 85 41 -11 -9 -25 -19 -30 -23 -6 -4 -27 -17 -47
-27 -21 -10 -35 -23 -31 -29 3 -6 1 -7 -5 -4 -7 5 -10 -28 -11 -103 l0 -111
47 -30 c25 -16 51 -28 57 -26 5 1 23 -10 39 -25 l29 -28 -35 15 c-20 8 -39 11
-43 7 -5 -4 -5 -2 -2 5 8 13 -78 67 -93 58 -5 -3 -13 2 -18 12 -6 9 -36 32
-68 50 -33 18 -71 40 -87 48 l-27 16 0 -106 c0 -58 3 -105 8 -105 4 0 16 6 27
13 38 26 135 78 135 73 0 -2 -18 -15 -40 -27 -21 -12 -37 -25 -35 -29 2 -3 -5
-7 -16 -7 -10 -1 -32 -11 -48 -23 l-29 -20 0 -225 0 -224 26 -21 c20 -16 22
-18 5 -11 -31 15 -33 14 -33 -18 0 -28 1 -29 57 -29 44 -1 54 1 40 9 -9 6 -21
8 -25 5 -5 -3 -9 1 -9 9 0 20 7 19 37 -5 14 -11 40 -20 58 -20 l32 0 0 91 c0
57 -4 88 -10 84 -5 -3 -7 0 -5 7 3 8 -10 21 -32 33 -52 27 -133 77 -133 82 0
2 28 -13 62 -32 35 -19 79 -43 99 -52 35 -17 36 -18 31 -67 -4 -40 -2 -47 9
-41 11 6 12 5 2 -6 -7 -7 -13 -32 -13 -55 l0 -42 157 0 c108 0 152 3 140 9 -9
6 -22 7 -29 3 -7 -4 -8 -3 -4 4 7 12 -42 42 -68 42 -9 0 -13 6 -10 13 5 14 34
19 31 6 -1 -4 24 -23 55 -42 l57 -35 475 0 c428 0 476 1 493 16 10 10 35 25
56 35 24 10 35 22 31 29 -4 6 -3 8 4 4 5 -3 13 0 15 6 4 8 6 7 6 -3 1 -17 78
-62 91 -54 4 2 7 -2 7 -9 0 -8 -10 -13 -23 -12 -12 0 -20 4 -18 7 5 9 -42 39
-61 39 -27 0 -76 -30 -69 -42 4 -6 3 -9 -2 -6 -5 3 -18 2 -29 -2 -11 -4 67 -8
174 -9 144 0 198 3 212 13 11 7 17 15 14 17 -2 3 4 5 14 5 10 0 18 -6 18 -13
0 -7 -3 -11 -6 -9 -3 2 -15 0 -26 -5 -14 -5 -2 -8 38 -8 57 -1 57 -1 57 29 0
33 -2 35 -33 19 -17 -7 -15 -5 5 11 l26 21 0 224 0 225 -35 24 c-20 14 -43 22
-52 19 -9 -4 -13 -3 -9 2 4 4 0 14 -10 22 -16 12 -15 13 3 6 11 -3 36 -17 55
-30 19 -13 38 -23 42 -23 5 0 8 70 7 155 0 85 -4 153 -8 150 -4 -2 -8 2 -8 10
0 8 4 12 8 9 4 -2 8 54 8 126 0 72 -4 128 -8 126 -4 -3 -8 1 -8 9 0 8 4 12 8
10 4 -3 7 65 8 150 0 85 -2 155 -5 155 -3 0 -15 -5 -27 -11 -17 -7 -15 -5 5
11 25 20 26 24 27 127 0 70 -4 112 -12 122 -9 12 -9 13 0 8 10 -6 12 18 12
103 -1 109 -1 110 -29 130 -15 11 -32 20 -37 20 -4 0 -19 9 -33 20 -14 11 -39
20 -57 20 -29 0 -32 -3 -36 -37 l-4 -38 -1 37 -2 36 -157 0 c-87 0 -152 -3
-144 -5 8 -3 30 -16 49 -29 43 -30 65 -30 105 -2 37 27 54 30 54 12 0 -7 -3
-11 -7 -9 -4 2 -25 -5 -48 -16 -29 -15 -42 -28 -43 -43 0 -21 0 -21 -9 2 -5
12 -26 30 -47 40 -21 9 -46 25 -56 34 -17 15 -58 16 -398 16 -239 0 -379 -3
-379 -9 0 -6 5 -7 12 -3 7 4 8 3 4 -4 -4 -7 7 -19 29 -29 37 -18 38 -17 86 10
27 15 52 27 56 27 14 0 -13 -20 -60 -43 l-47 -24 -43 21 c-65 33 -71 38 -58
45 5 4 -14 8 -44 9 l-54 2 0 -89 c0 -101 -1 -98 92 -150 31 -18 57 -34 57 -37
0 -5 -73 29 -80 37 -3 3 -19 14 -37 24 -27 16 -37 17 -60 7 -27 -12 -28 -12
-5 4 20 15 22 24 22 110 l0 94 -26 0 c-30 0 -150 -64 -164 -88 -8 -14 -9 -15
-10 -2 0 9 -14 24 -31 34 -26 15 -33 16 -40 5 -7 -11 -9 -10 -9 4 0 10 -4 16
-8 13 -5 -3 -9 1 -9 8 0 16 20 11 59 -16 36 -25 55 -23 113 12 l49 29 -157 0
-158 -1 3 -97 3 -97 -35 -17 c-19 -9 -63 -33 -97 -52 -35 -19 -63 -34 -63 -31
0 4 44 32 120 74 25 14 48 30 52 36 4 6 7 50 7 98 l0 88 -32 -1 c-18 0 -58
-17 -92 -38z m1069 17 c-5 -8 28 -28 65 -38 l26 -7 -35 -17 c-26 -12 -30 -13
-16 -2 18 14 17 16 -20 33 -22 10 -45 24 -52 30 -11 11 -9 12 12 11 13 -1 23
-6 20 -10z m173 -3 c0 -8 -2 -13 -5 -10 -2 2 -21 -2 -41 -11 l-36 -15 30 25
c34 29 52 33 52 11z m-297 -70 c-7 -8 -14 -15 -15 -15 -2 0 -5 7 -9 15 -4 10
1 15 16 15 17 0 18 -2 8 -15z m400 5 c0 -5 -4 -10 -9 -10 -6 0 -13 5 -16 10
-3 6 1 10 9 10 9 0 16 -4 16 -10z m400 -44 c0 -52 2 -55 36 -76 20 -11 43 -19
51 -16 8 3 12 2 8 -3 -3 -5 11 -19 30 -31 46 -28 45 -38 -1 -11 -19 12 -41 21
-49 21 -7 0 -15 6 -18 14 -3 8 -21 20 -39 26 -32 12 -33 13 -33 71 0 32 3 59
8 59 4 0 7 -24 7 -54z m-924 6 c-4 -3 -14 2 -24 12 -16 18 -16 18 6 6 13 -6
21 -14 18 -18z m1054 13 c-7 -8 -18 -15 -24 -15 -6 0 -2 7 8 15 25 19 32 19
16 0z m-1855 -5 c3 -5 2 -10 -4 -10 -5 0 -13 5 -16 10 -3 6 -2 10 4 10 5 0 13
-4 16 -10z m245 5 c0 -2 -10 -10 -22 -16 -21 -11 -22 -11 -9 4 13 16 31 23 31
12z m155 -5 c3 -5 1 -10 -4 -10 -6 0 -11 5 -11 10 0 6 2 10 4 10 3 0 8 -4 11
-10z m248 -4 c4 -9 0 -12 -13 -9 -10 3 -21 0 -24 -6 -4 -6 -12 -11 -18 -11
-11 0 32 39 43 40 4 0 9 -6 12 -14z m397 4 c0 -5 -4 -10 -10 -10 -5 0 -10 5
-10 10 0 6 5 10 10 10 6 0 10 -4 10 -10z m160 0 c0 -5 -4 -10 -10 -10 -5 0
-10 5 -10 10 0 6 5 10 10 10 6 0 10 -4 10 -10z m240 0 c0 -5 -5 -10 -11 -10
-5 0 -7 5 -4 10 3 6 8 10 11 10 2 0 4 -4 4 -10z m171 -7 c13 -15 12 -15 -8 -4
-24 12 -29 21 -14 21 5 0 15 -7 22 -17z m-1568 -17 c4 -10 1 -13 -8 -9 -8 3
-12 9 -9 14 7 12 11 11 17 -5z m273 -33 c-11 -11 -24 9 -18 29 l5 22 9 -24 c5
-12 6 -25 4 -27z m534 21 c0 -3 -4 -3 -9 1 -5 3 -11 -3 -13 -12 -3 -13 -6 -10
-10 9 -4 24 -3 26 13 17 11 -5 19 -12 19 -15z m154 14 c-3 -4 -9 -8 -15 -8 -5
0 -9 4 -9 8 0 5 7 9 15 9 8 0 12 -4 9 -9z m231 -6 c-3 -3 -11 0 -18 7 -9 10
-8 11 6 5 10 -3 15 -9 12 -12z m175 13 c0 -2 -10 -9 -22 -15 -22 -11 -22 -10
-4 4 21 17 26 19 26 11z m106 -43 c-11 -10 -15 4 -8 28 l7 25 3 -23 c2 -13 1
-26 -2 -30z m-1071 28 c3 -6 -1 -7 -9 -4 -18 7 -21 14 -7 14 6 0 13 -4 16 -10z
m-275 -5 c0 -2 -10 -9 -22 -15 -22 -11 -22 -10 -4 4 21 17 26 19 26 11z m550
-15 c0 -5 -4 -10 -10 -10 -5 0 -10 5 -10 10 0 6 5 10 10 10 6 0 10 -4 10 -10z
m400 0 c0 -5 -4 -10 -10 -10 -5 0 -10 5 -10 10 0 6 5 10 10 10 6 0 10 -4 10
-10z m-191 -24 c10 -12 8 -13 -9 -9 -12 3 -35 -5 -60 -21 -46 -30 -46 -30 -53
-12 -4 9 0 12 11 9 9 -2 33 7 52 21 42 30 44 30 59 12z m421 -12 c22 -15 46
-24 55 -20 9 3 13 2 10 -4 -3 -6 10 -19 29 -31 20 -12 36 -23 36 -26 0 -4 -62
29 -137 73 -30 18 -32 18 -67 -1 -20 -11 -36 -23 -36 -26 0 -4 -10 -9 -22 -13
-13 -3 -41 -16 -62 -30 l-40 -24 42 -21 c23 -12 42 -24 42 -26 0 -3 -18 4 -40
15 -21 11 -46 20 -54 20 -8 0 -56 -25 -106 -55 -88 -52 -93 -54 -116 -39 -31
21 -31 27 2 12 21 -10 31 -9 59 7 19 10 33 21 30 24 -2 4 5 7 15 8 10 1 39 15
64 31 l47 29 -58 31 c-32 17 -67 38 -78 47 -11 9 7 2 40 -16 33 -17 64 -36 70
-41 20 -18 64 -4 145 47 47 29 86 53 88 54 1 1 20 -11 42 -25z m167 -6 c-3 -8
-6 -5 -6 6 -1 11 2 17 5 13 3 -3 4 -12 1 -19z m-1292 -42 c19 -15 18 -16 -10
-4 -16 7 -34 16 -40 21 -5 4 -19 14 -30 23 -11 8 -2 6 20 -5 22 -11 49 -27 60
-35z m1450 39 c-11 -8 -24 -18 -30 -22 -15 -12 -85 -43 -85 -38 0 4 122 75
130 75 3 -1 -4 -7 -15 -15z m-1236 -21 c-5 -7 -19 -14 -30 -17 -15 -4 -18 -2
-10 7 6 7 9 15 7 17 -2 2 6 4 19 4 16 0 20 -3 14 -11z m-132 -36 c-3 -8 -6 -5
-6 6 -1 11 2 17 5 13 3 -3 4 -12 1 -19z m493 17 c0 -2 -19 -14 -41 -26 -46
-23 -45 -26 29 -64 61 -32 69 -40 37 -40 -13 0 -23 4 -22 9 2 11 -72 56 -94
56 -16 0 -154 -75 -185 -100 -11 -10 -15 -28 -13 -59 3 -73 -1 -155 -6 -149
-4 3 -6 51 -6 106 l0 100 -36 22 c-20 11 -42 19 -50 16 -8 -3 -11 -2 -8 4 3 5
-16 21 -42 36 -34 21 -48 25 -51 15 -3 -10 -6 -11 -12 -1 -6 10 -23 4 -66 -22
-33 -20 -70 -41 -84 -47 -24 -11 -24 -11 -5 3 11 8 25 20 32 26 7 5 15 10 19
10 4 0 27 12 52 26 l45 27 -24 18 -24 19 32 -12 c27 -10 38 -9 68 5 43 21 47
14 4 -9 -35 -18 -33 -22 31 -56 25 -14 61 -34 80 -46 19 -12 40 -22 46 -22 6
0 52 23 102 52 78 45 88 53 74 64 -14 10 -13 11 9 7 16 -3 42 3 65 16 44 23
44 23 44 16z m738 -31 c15 5 15 4 -1 -8 -16 -12 -12 -16 40 -42 31 -16 66 -38
78 -48 18 -17 -82 33 -111 56 -7 5 -16 8 -20 7 -20 -3 -31 2 -31 16 0 8 4 12
9 9 4 -3 9 7 9 23 2 25 2 25 6 5 3 -17 9 -22 21 -18z m-1023 6 c3 -5 1 -10 -4
-10 -6 0 -11 5 -11 10 0 6 2 10 4 10 3 0 8 -4 11 -10z m400 0 c3 -5 1 -10 -4
-10 -6 0 -11 5 -11 10 0 6 2 10 4 10 3 0 8 -4 11 -10z m-834 -117 c35 -17 36
-18 31 -67 -4 -40 -2 -47 9 -41 11 6 12 5 1 -6 -7 -7 -12 -39 -12 -72 0 -51 2
-58 17 -53 16 6 16 6 0 -12 -14 -15 -16 -37 -14 -128 l2 -109 40 -20 c21 -11
44 -24 50 -30 7 -5 35 -21 63 -35 28 -14 51 -27 52 -30 0 -3 -15 -11 -32 -18
-30 -10 -31 -10 -13 4 23 17 28 13 -85 76 -41 23 -82 41 -90 39 -8 -1 -50 -23
-92 -47 -42 -24 -81 -44 -85 -44 -4 0 32 24 82 53 l90 53 3 112 2 111 -37 -20
c-21 -11 -29 -14 -19 -7 53 36 55 42 55 153 0 63 -4 103 -9 100 -6 -3 -7 0 -5
7 3 8 -10 21 -32 33 -52 27 -133 77 -133 82 0 2 28 -13 63 -32 34 -19 78 -43
98 -52z m1819 82 c0 -2 -13 -11 -30 -20 -38 -19 -40 -11 -2 9 31 17 32 18 32
11z m-580 -15 c0 -5 -2 -10 -4 -10 -3 0 -8 5 -11 10 -3 6 -1 10 4 10 6 0 11
-4 11 -10z m160 6 c0 -2 -16 -13 -36 -25 -19 -12 -33 -25 -30 -30 4 -5 -2 -8
-11 -7 -10 2 -35 -8 -55 -20 l-37 -24 -51 32 c-27 17 -48 33 -46 35 2 3 22 -7
43 -21 43 -30 60 -32 89 -12 19 14 126 75 132 76 1 0 2 -2 2 -4z m240 -4 c0
-5 -7 -9 -15 -9 -8 0 -12 4 -9 9 3 4 9 8 15 8 5 0 9 -4 9 -8z m-1408 -74 c3
-27 2 -48 -3 -48 -5 0 -9 23 -9 52 0 62 5 60 12 -4z m1205 30 c-3 -8 -6 -5 -6
6 -1 11 2 17 5 13 3 -3 4 -12 1 -19z m304 9 c-6 -8 -8 -17 -4 -21 4 -4 0 -4
-9 -1 -18 7 -80 -27 -88 -49 -4 -11 -9 -9 -22 9 -17 22 -17 23 1 18 20 -5 81
22 81 37 0 5 10 11 23 13 12 2 24 5 26 6 2 0 -2 -5 -8 -12z m-305 -85 c-11
-10 -15 4 -8 28 l7 25 3 -23 c2 -13 1 -26 -2 -30z m-796 8 c0 -5 -4 -10 -10
-10 -5 0 -10 5 -10 10 0 6 5 10 10 10 6 0 10 -4 10 -10z m400 0 c0 -5 -4 -10
-10 -10 -5 0 -10 5 -10 10 0 6 5 10 10 10 6 0 10 -4 10 -10z m170 5 c0 -2 -10
-9 -22 -15 -22 -11 -22 -10 -4 4 21 17 26 19 26 11z m513 -25 c4 -17 2 -18
-14 -9 -10 5 -19 12 -19 15 0 3 5 2 10 -1 6 -3 10 -1 10 4 0 18 7 12 13 -9z
m-1753 5 c0 -2 -10 -9 -22 -15 -22 -11 -22 -10 -4 4 21 17 26 19 26 11z m257
-52 c-3 -10 -5 -2 -5 17 0 19 2 27 5 18 2 -10 2 -26 0 -35z m133 43 c0 -2 -7
-7 -16 -10 -8 -3 -12 -2 -9 4 6 10 25 14 25 6z m168 -8 c9 -9 18 -9 39 1 l28
13 -23 -22 c-21 -20 -25 -21 -41 -6 -10 9 -21 13 -24 9 -4 -3 -7 -1 -7 5 0 15
13 15 28 0z m232 4 c0 -5 -7 -9 -15 -9 -8 0 -12 4 -9 9 3 4 9 8 15 8 5 0 9 -4
9 -8z m165 -2 c3 -6 -1 -7 -9 -4 -18 7 -21 14 -7 14 6 0 13 -4 16 -10z m235 6
c0 -2 -7 -7 -16 -10 -8 -3 -12 -2 -9 4 6 10 25 14 25 6z m164 -4 c3 -5 -1 -9
-9 -9 -8 0 -15 4 -15 9 0 4 4 8 9 8 6 0 12 -4 15 -8z m113 -29 c-3 -10 -5 -4
-5 12 0 17 2 24 5 18 2 -7 2 -21 0 -30z m200 5 c-3 -7 -5 -2 -5 12 0 14 2 19
5 13 2 -7 2 -19 0 -25z m-1473 7 c-7 -17 -20 -20 -29 -6 -3 5 3 12 12 14 10 3
19 5 20 6 1 0 0 -6 -3 -14z m1366 0 c-14 -17 -30 -20 -30 -6 0 5 8 12 18 14 9
3 19 5 21 6 2 0 -2 -6 -9 -14z m-1610 1 c0 -3 -4 -8 -10 -11 -5 -3 -10 -1 -10
4 0 6 5 11 10 11 6 0 10 -2 10 -4z m400 0 c0 -3 -4 -8 -10 -11 -5 -3 -10 -1
-10 4 0 6 5 11 10 11 6 0 10 -2 10 -4z m400 -6 c0 -5 -4 -10 -10 -10 -5 0 -10
5 -10 10 0 6 5 10 10 10 6 0 10 -4 10 -10z m240 0 c0 -5 -4 -10 -10 -10 -5 0
-10 5 -10 10 0 6 5 10 10 10 6 0 10 -4 10 -10z m160 0 c0 -5 -4 -10 -10 -10
-5 0 -10 5 -10 10 0 6 5 10 10 10 6 0 10 -4 10 -10z m240 0 c0 -5 -2 -10 -4
-10 -3 0 -8 5 -11 10 -3 6 -1 10 4 10 6 0 11 -4 11 -10z m400 0 c0 -5 -2 -10
-4 -10 -3 0 -8 5 -11 10 -3 6 -1 10 4 10 6 0 11 -4 11 -10z m-920 -30 c0 -5
-4 -10 -10 -10 -5 0 -10 5 -10 10 0 6 5 10 10 10 6 0 10 -4 10 -10z m400 0 c0
-5 -7 -10 -16 -10 -8 0 -12 5 -9 10 3 6 10 10 16 10 5 0 9 -4 9 -10z m400 0
c0 -5 -4 -10 -10 -10 -5 0 -10 5 -10 10 0 6 5 10 10 10 6 0 10 -4 10 -10z
m-1394 -9 c-3 -5 35 -32 86 -61 84 -49 93 -52 122 -42 l31 11 -28 -20 c-27
-21 -28 -24 -26 -100 2 -43 0 -82 -4 -85 -4 -4 -7 32 -7 80 l0 87 -56 -36
c-31 -20 -59 -34 -62 -31 -3 3 -3 7 -1 9 2 1 26 14 54 29 27 14 51 30 52 35 3
9 -81 56 -102 56 -8 0 -12 4 -9 9 3 4 -11 15 -30 25 -34 16 -38 16 -72 0 -21
-11 -32 -22 -28 -29 4 -6 3 -8 -2 -5 -6 3 -29 -3 -52 -13 -49 -22 -57 -18 -11
5 27 14 29 18 17 33 -11 15 -11 15 3 4 14 -10 25 -7 70 17 63 34 62 34 55 22z
m442 -35 c17 -9 32 -21 32 -26 0 -5 -16 2 -36 15 -45 31 -62 31 -105 2 -19
-12 -47 -28 -64 -35 l-30 -12 30 22 c16 13 32 23 35 23 16 2 70 37 70 47 0 7
7 5 18 -4 9 -9 32 -23 50 -32z m803 0 c20 -8 40 -12 44 -8 3 4 5 1 3 -6 -1 -7
18 -25 44 -40 l48 -27 55 29 c30 15 53 31 51 35 -3 4 4 7 14 7 28 0 16 -12
-45 -42 -30 -16 -55 -32 -55 -36 0 -4 14 -14 30 -23 17 -9 30 -18 30 -21 0 -3
-16 3 -35 15 -23 13 -35 16 -36 8 0 -9 -2 -9 -6 1 -2 6 -10 9 -15 6 -6 -4 -8
-2 -5 4 9 13 -82 70 -106 66 -9 -1 -15 2 -12 7 4 5 -10 17 -30 26 -35 17 -38
17 -68 -1 -18 -10 -52 -30 -77 -44 -25 -13 -85 -48 -135 -77 -49 -29 -101 -58
-115 -64 -24 -11 -24 -11 -5 3 11 8 25 20 32 26 7 5 16 10 20 10 4 0 30 13 56
29 l49 28 -47 27 c-25 15 -54 28 -65 29 -10 1 -16 5 -14 9 3 4 -11 15 -30 25
-37 17 -52 14 -116 -26 -8 -6 -37 -22 -64 -37 l-48 -27 26 -14 c14 -7 26 -16
26 -19 0 -2 -12 2 -27 10 -31 15 -50 11 -112 -28 -45 -29 -51 -31 -51 -16 0 6
6 10 13 10 6 0 34 13 60 29 l49 28 -46 27 c-62 36 -59 43 4 8 l49 -27 56 30
c30 16 55 34 55 39 0 5 3 7 6 3 3 -3 23 5 44 18 l37 24 44 -23 c24 -12 66 -37
93 -54 28 -18 56 -32 64 -32 18 0 112 53 112 63 0 5 4 6 9 3 5 -3 26 7 47 23
31 22 41 25 49 15 6 -7 26 -20 46 -28z m-681 30 c0 -2 -7 -7 -16 -10 -8 -3
-12 -2 -9 4 6 10 25 14 25 6z m827 -28 c-3 -8 -6 -5 -6 6 -1 11 2 17 5 13 3
-3 4 -12 1 -19z m-1397 -62 c0 -11 -19 -15 -25 -6 -3 5 1 10 9 10 9 0 16 -2
16 -4z m390 -6 c0 -5 -2 -10 -4 -10 -3 0 -8 5 -11 10 -3 6 -1 10 4 10 6 0 11
-4 11 -10z m405 0 c3 -5 1 -10 -4 -10 -6 0 -11 5 -11 10 0 6 2 10 4 10 3 0 8
-4 11 -10z m415 6 c0 -11 -19 -15 -25 -6 -3 5 1 10 9 10 9 0 16 -2 16 -4z
m-1385 -46 c3 -6 -1 -7 -9 -4 -18 7 -21 14 -7 14 6 0 13 -4 16 -10z m437 -17
c29 -16 55 -31 58 -34 3 -3 19 -14 36 -23 29 -17 33 -17 65 -2 26 13 29 13 14
2 -11 -9 -24 -19 -30 -24 -21 -17 -44 -21 -39 -7 4 10 -7 20 -33 32 -21 10
-40 21 -43 24 -3 3 -25 17 -50 32 -59 35 -44 35 22 0z m857 -34 c1 -4 -8 -9
-18 -12 -12 -3 -18 0 -15 7 3 7 -14 22 -36 35 -22 12 -40 24 -40 27 0 6 109
-50 109 -57z m-1212 29 c-3 -8 -6 -5 -6 6 -1 11 2 17 5 13 3 -3 4 -12 1 -19z
m37 -46 c38 -23 40 -24 75 -8 30 14 33 14 17 1 -11 -8 -23 -15 -27 -15 -4 0
-11 -10 -15 -22 -6 -22 -7 -21 -20 4 -7 14 -28 31 -46 39 -18 7 -37 17 -43 21
-5 5 -19 15 -30 24 -28 21 37 -11 89 -44z m1381 43 c-11 -8 -25 -18 -30 -22
-6 -4 -29 -17 -50 -28 -25 -13 -41 -29 -45 -45 l-6 -25 -7 28 c-4 15 -11 27
-15 27 -5 0 -17 7 -28 15 -16 13 -13 13 15 -1 32 -15 36 -15 65 2 17 9 33 20
36 23 5 7 72 40 80 40 3 0 -4 -6 -15 -14z m-605 -27 c0 -13 -13 -9 -40 12
l-25 20 33 -12 c17 -7 32 -16 32 -20z m-1024 13 c-6 -9 -82 -51 -93 -51 -7 0
59 45 78 53 20 8 21 8 15 -2z m1853 -28 c19 -13 31 -23 28 -23 -11 0 -87 42
-93 51 -8 13 26 -2 65 -28z m-749 -34 c0 -4 -9 -9 -20 -12 -12 -3 -18 -1 -14
5 4 6 -4 19 -17 30 -24 19 -24 19 14 1 20 -9 37 -20 37 -24z m600 -26 c-1 -24
-2 -26 -11 -10 -5 9 -7 22 -4 27 10 17 15 11 15 -17z m-800 7 c0 -5 -4 -10
-10 -10 -5 0 -10 5 -10 10 0 6 5 10 10 10 6 0 10 -4 10 -10z m400 0 c0 -5 -4
-10 -10 -10 -5 0 -10 5 -10 10 0 6 5 10 10 10 6 0 10 -4 10 -10z m235 0 c3 -6
-1 -7 -9 -4 -18 7 -21 14 -7 14 6 0 13 -4 16 -10z m-745 -36 c0 -2 -13 2 -30
11 -16 9 -30 18 -30 21 0 2 14 -2 30 -11 17 -9 30 -18 30 -21z m-560 21 c0 -2
-10 -9 -22 -15 -22 -11 -22 -10 -4 4 21 17 26 19 26 11z m395 -5 c-3 -5 -12
-10 -18 -10 -7 0 -6 4 3 10 19 12 23 12 15 0z m405 4 c0 -2 -9 -8 -20 -14 -15
-8 -18 -8 -14 3 4 11 34 21 34 11z m160 -20 c0 -2 -9 0 -20 6 -11 6 -20 13
-20 16 0 2 9 0 20 -6 11 -6 20 -13 20 -16z m237 13 c0 -7 -9 -13 -19 -13 -18
0 -18 1 -2 13 10 7 18 13 19 13 1 0 2 -6 2 -13z m163 -13 c0 -2 -9 0 -20 6
-11 6 -20 13 -20 16 0 2 9 0 20 -6 11 -6 20 -13 20 -16z m-1606 8 c2 -4 -4 -8
-14 -8 -10 0 -16 4 -14 8 3 4 9 8 14 8 5 0 11 -4 14 -8z m400 0 c2 -4 -4 -8
-14 -8 -10 0 -16 4 -14 8 3 4 9 8 14 8 5 0 11 -4 14 -8z m1436 4 c0 -2 -7 -7
-16 -10 -8 -3 -12 -2 -9 4 6 10 25 14 25 6z m-1646 -27 c-8 -14 -21 -11 -21 5
0 8 6 12 14 9 7 -3 10 -9 7 -14z m127 -25 c5 -7 3 -11 -6 -11 -10 0 -15 10
-14 31 1 21 3 25 6 11 3 -11 9 -25 14 -31z m262 20 c-10 -7 -22 -13 -28 -13
-5 0 -2 4 8 10 9 6 15 14 12 20 -3 5 1 6 10 3 14 -6 14 -8 -2 -20z m257 11
c-7 -9 -15 -13 -19 -10 -3 3 1 10 9 15 21 14 24 12 10 -5z m158 1 c-2 -1 -12
-8 -23 -16 -18 -14 -19 -13 -8 1 7 9 10 19 6 23 -4 4 1 4 10 0 10 -3 17 -7 15
-8z m402 -5 c0 -4 -6 -8 -13 -8 -8 0 -14 6 -14 13 0 7 6 10 14 7 7 -3 13 -8
13 -12z m-960 5 c0 -3 -4 -8 -10 -11 -5 -3 -10 -1 -10 4 0 6 5 11 10 11 6 0
10 -2 10 -4z m820 -17 l25 -20 -32 16 c-18 8 -33 18 -33 20 0 10 16 4 40 -16z
m259 -26 c-1 -28 -4 -38 -6 -23 -3 14 -10 31 -16 39 -9 12 -9 13 1 7 7 -4 12
-1 12 8 0 9 2 16 5 16 3 0 4 -21 4 -47z m126 37 c3 -5 2 -10 -4 -10 -5 0 -13
5 -16 10 -3 6 -2 10 4 10 5 0 13 -4 16 -10z m155 -2 c0 -6 -3 -8 -7 -5 -3 4
-13 1 -22 -6 -14 -11 -14 -10 -2 6 15 20 31 22 31 5z m-1278 -32 c6 4 8 3 5
-3 -4 -6 10 -19 31 -29 20 -10 42 -23 48 -29 6 -5 34 -21 62 -35 50 -24 65
-40 40 -40 -7 0 -35 -15 -63 -32 -27 -17 -68 -41 -90 -53 -34 -18 -41 -28 -46
-61 -6 -37 -6 -38 -8 -6 0 17 -1 35 0 38 1 9 -59 44 -76 44 -8 0 -15 4 -15 8
0 5 -18 18 -40 31 -22 12 -40 25 -40 28 0 3 21 -7 46 -22 25 -15 52 -24 60
-21 7 3 13 0 11 -6 -1 -6 12 -19 29 -29 29 -18 31 -18 65 1 19 11 60 34 92 51
31 18 57 35 57 39 0 3 -19 17 -42 29 -24 13 -64 37 -90 53 l-48 30 -32 -20
c-18 -10 -32 -24 -31 -30 2 -6 -4 -9 -11 -6 -8 3 -35 -6 -60 -21 -25 -15 -46
-25 -46 -22 0 3 18 16 40 28 22 13 40 26 40 31 0 4 6 8 14 8 31 0 76 35 77 60
2 24 2 24 6 2 3 -13 9 -19 15 -16z m198 15 c0 -6 -4 -13 -10 -16 -5 -3 -10 1
-10 9 0 9 5 16 10 16 6 0 10 -4 10 -9z m400 -7 c0 -8 -5 -12 -10 -9 -6 4 -8
11 -5 16 9 14 15 11 15 -7z m609 -24 c4 0 16 -7 27 -15 17 -13 15 -13 -17 0
-34 13 -38 13 -73 -12 -25 -16 -41 -22 -48 -15 -6 6 1 11 20 15 16 3 40 17 53
31 18 19 25 22 27 11 2 -8 7 -15 11 -15z m-803 11 c-4 -5 14 -19 39 -31 53
-26 61 -35 30 -35 -13 0 -21 3 -19 7 2 3 -12 16 -31 28 -35 22 -35 22 -68 2
-17 -10 -31 -25 -29 -31 1 -7 -3 -9 -9 -6 -6 4 -33 -5 -60 -20 -27 -14 -49
-24 -49 -22 0 5 79 54 133 82 20 11 37 23 37 27 0 5 7 8 16 8 8 0 13 -4 10 -9z
m401 2 c-4 -3 1 -12 11 -20 15 -13 15 -13 -5 -3 -17 8 -29 8 -45 0 -21 -10
-21 -10 -6 3 10 8 15 17 11 20 -3 4 4 7 17 7 13 0 20 -3 17 -7z m-74 -44 c-5
-5 -34 -23 -64 -39 -30 -16 -54 -35 -53 -42 1 -8 -10 -13 -26 -13 -17 0 -26 5
-23 12 3 6 -9 19 -26 28 -17 8 -31 18 -31 21 0 3 18 -5 40 -17 l40 -23 43 24
c23 12 47 28 52 35 6 7 19 15 30 18 11 2 22 5 25 6 2 0 -1 -4 -7 -10z m157
-14 c8 -7 34 -22 57 -35 37 -20 46 -22 70 -12 26 12 27 11 8 -3 -23 -18 -22
-19 55 -60 25 -13 54 -30 65 -38 18 -14 17 -15 -17 -4 -20 6 -35 14 -33 17 2
3 -19 18 -46 33 l-50 27 3 -112 3 -113 40 -20 c21 -11 44 -24 50 -28 5 -4 19
-14 30 -23 14 -10 8 -9 -20 3 -22 10 -42 20 -45 23 -11 11 -60 40 -68 40 -5 0
-24 -10 -43 -23 -39 -26 -73 -41 -65 -28 3 5 25 19 48 31 24 12 46 27 50 34
11 15 10 88 0 82 -5 -3 -9 1 -9 9 0 8 4 12 9 9 4 -3 8 22 8 55 0 34 -2 61 -4
61 -3 0 -21 -9 -40 -21 -20 -12 -36 -18 -36 -15 0 3 14 12 30 21 17 9 30 20
30 24 0 15 -93 62 -109 56 -8 -3 -12 -3 -8 1 4 4 2 13 -5 21 -9 11 -7 12 8 7
10 -4 26 -12 34 -19z m410 -6 c24 -19 24 -20 2 -9 -13 6 -30 9 -37 6 -9 -3
-12 0 -8 10 7 19 13 18 43 -7z m-210 -4 c0 -2 -10 -9 -22 -15 -22 -11 -22 -10
-4 4 21 17 26 19 26 11z m280 -41 c0 -2 -9 0 -20 6 -11 6 -20 13 -20 16 0 2 9
0 20 -6 11 -6 20 -13 20 -16z m-1770 12 c0 -3 -4 -8 -10 -11 -5 -3 -10 -1 -10
4 0 6 5 11 10 11 6 0 10 -2 10 -4z m400 0 c0 -3 -4 -8 -10 -11 -5 -3 -10 -1
-10 4 0 6 5 11 10 11 6 0 10 -2 10 -4z m1200 -6 c0 -5 -2 -10 -4 -10 -3 0 -8
5 -11 10 -3 6 -1 10 4 10 6 0 11 -4 11 -10z m-1764 -46 c18 -14 18 -14 -6 -3
-31 14 -36 19 -24 19 6 0 19 -7 30 -16z m559 6 c3 -5 1 -10 -4 -10 -6 0 -11 5
-11 10 0 6 2 10 4 10 3 0 8 -4 11 -10z m327 -35 c7 5 10 5 6 0 -4 -4 -3 -14 4
-22 21 -25 -26 -2 -108 55 -11 7 4 1 33 -14 30 -15 57 -23 65 -19z m878 35 c0
-5 -5 -10 -11 -10 -5 0 -7 5 -4 10 3 6 8 10 11 10 2 0 4 -4 4 -10z m129 -22
c-30 -18 -71 -42 -92 -53 -33 -17 -37 -24 -39 -60 -1 -37 -2 -37 -5 -7 -2 17
-8 32 -12 32 -17 0 -6 26 12 27 10 1 31 10 45 19 42 28 126 73 136 73 6 1 -15
-14 -45 -31z m-779 18 c0 -5 -63 -43 -112 -69 -21 -10 -35 -23 -32 -28 3 -5
-5 -9 -17 -9 -12 0 -19 3 -16 7 4 3 -1 12 -11 20 -15 13 -14 13 6 3 20 -10 30
-8 63 14 21 15 40 26 41 25 2 -1 19 8 38 20 37 22 40 23 40 17z m213 -71 c14
-10 26 -11 46 -4 l26 10 -22 -20 c-22 -21 -49 -29 -39 -12 3 5 -11 18 -32 28
-51 27 -112 64 -112 70 0 5 102 -50 133 -72z m51 66 c4 -5 -3 -7 -14 -4 -23 6
-26 13 -6 13 8 0 17 -4 20 -9z m80 -35 c-3 -8 -16 -16 -29 -19 -38 -7 -11 20
32 32 1 1 0 -5 -3 -13z m-1095 -62 c4 3 8 -1 8 -9 0 -8 -4 -12 -9 -9 -4 3 -8
-13 -8 -35 0 -39 4 -46 45 -77 15 -11 12 -11 -14 2 -32 15 -36 15 -65 -2 -17
-10 -36 -25 -43 -33 -7 -9 -13 -13 -13 -8 0 4 -15 0 -32 -8 -29 -14 -31 -14
-14 0 11 8 23 15 28 15 4 0 11 12 14 27 6 21 9 24 13 10 6 -15 9 -15 39 3 31
19 32 22 33 92 1 40 4 63 6 50 2 -12 8 -20 12 -18z m397 -21 c-10 -10 -19 5
-10 18 6 11 8 11 12 0 2 -7 1 -15 -2 -18z m404 10 c0 -7 -6 -13 -13 -13 -8 0
-14 6 -14 13 0 8 6 14 14 14 7 0 13 -6 13 -14z m-132 -21 c11 -8 11 -10 -2
-15 -9 -4 -15 -2 -13 3 1 5 -7 16 -18 25 l-20 16 20 -10 c11 -6 26 -14 33 -19z
m-937 5 c-6 -8 -8 -17 -4 -21 4 -4 0 -4 -10 0 -17 6 -17 7 0 20 23 17 28 18
14 1z m1206 2 c-9 -6 -15 -14 -12 -20 3 -5 -1 -6 -10 -3 -14 6 -14 8 2 20 10
7 23 13 28 13 6 0 2 -4 -8 -10z m536 -2 c4 3 7 2 7 -4 0 -6 -8 -14 -17 -17
-10 -4 -14 -4 -10 0 4 4 1 14 -6 23 -10 14 -10 14 4 4 9 -7 19 -10 22 -6z
m-1599 -6 c3 -5 0 -11 -7 -14 -8 -3 -14 1 -14 9 0 16 13 19 21 5z m246 -6 c11
-13 10 -14 -4 -9 -9 3 -16 10 -16 15 0 13 6 11 20 -6z m174 -6 c44 -26 48 -36
6 -14 -17 9 -34 14 -39 11 -4 -3 -8 1 -8 9 0 19 -1 19 41 -6z m233 7 c0 -8 -6
-12 -14 -9 -7 3 -10 9 -7 14 8 14 21 11 21 -5z m803 9 c0 -2 -10 -10 -22 -16
-21 -11 -22 -11 -9 4 13 16 31 23 31 12z m-533 -27 c-3 -8 -6 -5 -6 6 -1 11 2
17 5 13 3 -3 4 -12 1 -19z m283 18 c0 -2 -7 -7 -16 -10 -8 -3 -12 -2 -9 4 6
10 25 14 25 6z m-995 -16 c-3 -5 -12 -10 -18 -10 -7 0 -6 4 3 10 19 12 23 12
15 0z m405 5 c0 -2 -10 -9 -22 -15 -22 -11 -22 -10 -4 4 21 17 26 19 26 11z
m240 -21 c0 -2 -9 0 -20 6 -11 6 -20 13 -20 16 0 2 9 0 20 -6 11 -6 20 -13 20
-16z m160 21 c0 -2 -10 -9 -22 -15 -22 -11 -22 -10 -4 4 21 17 26 19 26 11z
m240 -21 c0 -2 -9 0 -20 6 -11 6 -20 13 -20 16 0 2 9 0 20 -6 11 -6 20 -13 20
-16z m385 8 c-3 -3 -11 0 -18 7 -9 10 -8 11 6 5 10 -3 15 -9 12 -12z m-1590
-2 c3 -6 -1 -7 -9 -4 -18 7 -21 14 -7 14 6 0 13 -4 16 -10z m1355 6 c0 -2 -7
-7 -16 -10 -8 -3 -12 -2 -9 4 6 10 25 14 25 6z m-1088 -83 c-4 -64 -3 -68 24
-90 l29 -24 -28 12 c-23 10 -34 10 -65 -4 -28 -13 -32 -14 -18 -3 10 9 23 17
29 19 17 5 1 21 -50 47 -26 14 -50 26 -52 28 -2 1 -2 4 1 8 3 3 27 -9 54 -25
26 -17 52 -31 56 -31 4 0 8 29 8 65 0 36 4 65 8 65 4 0 6 -30 4 -67z m408 57
c0 -5 -4 -10 -9 -10 -6 0 -13 5 -16 10 -3 6 1 10 9 10 9 0 16 -4 16 -10z m400
0 c0 -5 -4 -10 -9 -10 -6 0 -13 5 -16 10 -3 6 1 10 9 10 9 0 16 -4 16 -10z
m398 -57 l-1 -68 -6 60 c-4 33 -5 63 -3 68 9 20 12 1 10 -60z m-963 11 c14
-10 9 -9 -17 3 -21 9 -38 23 -38 32 0 12 3 12 18 -3 9 -9 26 -24 37 -32z m365
28 c0 -5 -17 -16 -37 -25 -27 -13 -32 -13 -18 -3 11 9 25 20 30 25 12 12 25
14 25 3z m-430 -16 c0 -6 -157 -96 -167 -96 -4 0 12 12 37 27 25 15 47 29 50
32 4 5 68 38 78 40 1 1 2 -1 2 -3z m520 -37 c3 -3 27 -18 53 -34 l49 -28 41
22 c39 21 35 14 -10 -17 -11 -8 -14 -15 -7 -18 6 -2 20 -11 30 -20 14 -11 10
-10 -18 3 -31 13 -42 14 -65 4 l-28 -12 23 18 22 18 -57 30 c-31 17 -62 34
-68 38 -5 4 -19 14 -30 23 -14 10 -8 9 20 -3 22 -10 42 -21 45 -24z m659 18
c-40 -27 -80 -44 -63 -27 13 13 76 49 88 49 5 1 -6 -9 -25 -22z m-1043 -2
c-20 -15 -20 -15 0 -30 17 -13 16 -13 -13 -3 -40 15 -41 21 -5 35 37 15 40 15
18 -2z m179 -3 c-3 -3 -11 0 -18 7 -9 10 -8 11 6 5 10 -3 15 -9 12 -12z m35
-9 c-1 -5 -28 -21 -61 -38 -50 -25 -58 -32 -44 -40 40 -24 47 -34 13 -18 -36
16 -40 16 -73 0 -44 -21 -46 -13 -3 9 l32 16 -27 15 c-38 19 -34 25 6 8 32
-13 36 -12 88 20 56 35 69 40 69 28z m750 -28 c0 -2 -13 -11 -29 -20 -16 -8
-33 -24 -36 -36 -5 -16 -9 -18 -15 -9 -8 12 -50 -7 -100 -45 -8 -6 -28 -17
-45 -24 l-30 -12 30 25 c17 14 34 25 39 26 5 0 29 12 53 26 42 24 43 27 26 40
-16 13 -15 13 8 3 21 -9 32 -7 60 10 37 22 39 23 39 16z m-1645 -25 c-3 -5
-12 -10 -18 -10 -7 0 -6 4 3 10 19 12 23 12 15 0z m882 -12 c-3 -8 -6 -5 -6 6
-1 11 2 17 5 13 3 -3 4 -12 1 -19z m-717 -23 c0 -8 -4 -15 -10 -15 -5 0 -7 7
-4 15 4 8 8 15 10 15 2 0 4 -7 4 -15z m810 -5 c0 -5 -4 -10 -10 -10 -5 0 -10
5 -10 10 0 6 5 10 10 10 6 0 10 -4 10 -10z m400 0 c0 -5 -5 -10 -11 -10 -5 0
-7 5 -4 10 3 6 8 10 11 10 2 0 4 -4 4 -10z m260 -16 c0 -2 -9 0 -20 6 -11 6
-20 13 -20 16 0 2 9 0 20 -6 11 -6 20 -13 20 -16z m-1269 -85 c1 -68 5 -99 15
-110 13 -15 12 -16 -8 -12 -14 3 -37 -5 -58 -19 -19 -13 -44 -27 -55 -32 -33
-12 -4 12 46 38 49 26 46 17 48 185 1 30 3 52 6 49 4 -3 6 -48 6 -99z m-400
-7 c0 -103 -4 -96 106 -160 79 -47 90 -49 136 -27 18 8 24 10 14 3 -54 -37
-53 -34 -19 -52 18 -9 32 -19 32 -22 0 -2 -13 2 -30 11 -37 19 -40 19 -41 -2
-1 -17 -2 -17 -6 0 -6 23 -6 22 -72 -17 -31 -18 -67 -39 -81 -45 -24 -11 -24
-11 -5 3 37 28 41 31 91 57 27 14 48 30 47 35 -1 5 -24 20 -50 34 -26 14 -50
27 -53 30 -14 14 -61 40 -73 40 -8 0 -29 -10 -48 -23 -19 -12 -47 -28 -64 -35
-28 -12 -29 -11 -10 4 11 8 19 19 18 24 -2 5 4 7 11 4 14 -5 63 20 79 41 4 5
7 30 6 55 -2 83 1 143 6 138 3 -3 6 -46 6 -96z m548 51 c38 -26 53 -28 82 -13
27 15 24 5 -5 -13 -21 -15 -27 -14 -70 8 -25 13 -58 33 -73 44 l-28 21 30 -12
c17 -7 45 -23 64 -35z m570 27 c-28 -21 -137 -80 -148 -80 -3 0 0 4 8 9 11 7
6 13 -20 27 -19 10 -37 17 -40 16 -4 0 -15 8 -25 19 -18 20 -18 20 8 10 14 -5
29 -7 34 -3 4 4 4 1 0 -5 -5 -8 5 -19 28 -30 39 -18 34 -20 140 39 41 23 47
22 15 -2z m-811 -4 c-10 -7 -14 -17 -10 -21 4 -5 2 -6 -3 -2 -6 3 -29 -4 -50
-16 -34 -19 -41 -29 -45 -62 l-6 -40 -5 48 c-3 34 -1 47 9 47 25 0 73 31 66
42 -4 7 -3 8 4 4 7 -4 20 -2 29 3 25 15 31 13 11 -3z m412 9 c0 -2 -14 -12
-31 -21 -17 -8 -28 -11 -24 -4 4 6 17 15 29 20 27 11 26 11 26 5z m629 -32
c19 -13 42 -23 51 -23 13 0 16 -6 12 -27 -5 -26 -5 -26 -13 -5 -8 21 -81 65
-93 57 -3 -3 -4 -2 -1 2 3 3 -3 12 -13 20 -16 12 -15 13 3 6 11 -4 35 -17 54
-30z m259 -75 c-1 -43 -3 -51 -5 -25 -2 20 -8 35 -13 32 -4 -3 -3 8 3 25 6 16
13 30 14 30 2 0 2 -28 1 -62z m-798 22 c0 -5 -4 -10 -9 -10 -6 0 -13 5 -16 10
-3 6 1 10 9 10 9 0 16 -4 16 -10z m400 0 c0 -5 -4 -10 -10 -10 -5 0 -10 5 -10
10 0 6 5 10 10 10 6 0 10 -4 10 -10z m-924 -38 c-4 -3 -14 2 -24 12 -16 18
-16 18 6 6 13 -6 21 -14 18 -18z m721 -4 c-3 -7 -5 -2 -5 12 0 14 2 19 5 13 2
-7 2 -19 0 -25z m-1122 12 c3 -5 1 -10 -4 -10 -6 0 -11 5 -11 10 0 6 2 10 4
10 3 0 8 -4 11 -10z m235 2 c0 -5 -12 -14 -27 -21 l-28 -12 25 21 c29 22 30
23 30 12z m410 -1 c0 -5 -8 -11 -17 -15 -10 -3 -24 -9 -30 -12 -7 -3 -13 -1
-13 6 0 6 4 9 9 6 5 -3 14 1 21 9 14 17 30 20 30 6z m160 -1 c0 -5 -4 -10 -10
-10 -5 0 -10 5 -10 10 0 6 5 10 10 10 6 0 10 -4 10 -10z m243 -4 c4 -10 1 -13
-9 -9 -15 6 -19 23 -5 23 5 0 11 -7 14 -14z m157 4 c0 -5 -5 -10 -11 -10 -5 0
-7 5 -4 10 3 6 8 10 11 10 2 0 4 -4 4 -10z m409 -4 c10 -12 8 -13 -8 -9 -12 3
-21 9 -21 14 0 14 16 11 29 -5z m231 4 c0 -5 -5 -10 -11 -10 -5 0 -7 5 -4 10
3 6 8 10 11 10 2 0 4 -4 4 -10z m-430 -15 c-7 -8 -17 -15 -23 -15 -6 0 -2 7 9
15 25 19 30 19 14 0z m-1360 -21 c0 -2 -9 0 -20 6 -11 6 -20 13 -20 16 0 2 9
0 20 -6 11 -6 20 -13 20 -16z m385 8 c-3 -3 -11 0 -18 7 -9 10 -8 11 6 5 10
-3 15 -9 12 -12z m400 0 c-3 -3 -11 0 -18 7 -9 10 -8 11 6 5 10 -3 15 -9 12
-12z m169 6 c-3 -4 -9 -8 -15 -8 -5 0 -9 4 -9 8 0 5 7 9 15 9 8 0 12 -4 9 -9z
m231 -6 c-3 -3 -11 0 -18 7 -9 10 -8 11 6 5 10 -3 15 -9 12 -12z m281 -30
c-11 -10 -15 4 -8 28 l7 25 3 -23 c2 -13 1 -26 -2 -30z m288 33 c-3 -6 -11
-12 -18 -12 -8 0 -12 6 -10 12 3 6 11 12 18 12 8 0 12 -6 10 -12z m-834 -10
c0 -2 -10 -9 -22 -15 -22 -11 -22 -10 -4 4 21 17 26 19 26 11z m-656 -32 c-10
-40 -14 -41 -14 -5 0 18 5 32 10 32 6 0 8 -11 4 -27z m406 19 c0 -4 -15 -13
-32 -20 l-33 -12 25 20 c27 21 40 25 40 12z m400 -2 c0 -5 -4 -10 -10 -10 -5
0 -10 5 -10 10 0 6 5 10 10 10 6 0 10 -4 10 -10z m-161 -42 c28 -17 49 -33 47
-35 -2 -3 -22 8 -45 22 -44 30 -72 29 -106 -3 -26 -24 -72 -38 -54 -16 6 8 17
14 23 15 6 0 27 11 46 24 19 13 36 24 37 24 1 1 25 -13 52 -31z m392 6 c23
-14 47 -23 55 -20 7 3 13 0 11 -6 -3 -14 57 -50 90 -54 14 -1 47 11 74 27 27
15 64 36 82 44 33 16 33 17 -18 -22 -6 -4 -37 -21 -68 -37 -53 -26 -56 -30
-40 -43 10 -8 12 -11 4 -7 -7 3 -17 0 -22 -7 -7 -11 -9 -10 -9 4 0 10 -5 15
-10 12 -6 -4 -9 -1 -8 5 2 6 -19 23 -47 38 -27 15 -67 38 -88 51 -41 25 -69
24 -103 -6 -11 -10 -46 -31 -77 -47 l-58 -29 28 -18 c15 -10 41 -24 58 -31 16
-7 39 -21 50 -32 19 -18 -87 35 -109 56 -20 17 -58 7 -133 -38 -43 -25 -85
-51 -93 -58 -12 -10 -19 -8 -39 10 l-23 23 28 -10 c26 -10 39 -5 121 42 50 29
90 56 88 60 -3 3 8 9 23 12 15 4 63 28 107 56 44 27 81 49 83 50 1 1 21 -11
43 -25z m400 0 c24 -15 48 -23 57 -19 9 3 13 3 9 -1 -4 -4 -2 -13 5 -21 8 -11
7 -12 -6 -7 -10 4 -16 1 -17 -7 0 -8 -4 -4 -10 9 -5 13 -26 31 -49 40 -22 9
-40 20 -40 25 0 11 8 9 51 -19z m-634 -6 c-3 -8 -6 -5 -6 6 -1 11 2 17 5 13 3
-3 4 -12 1 -19z m400 -40 c-2 -13 -4 -3 -4 22 0 25 2 35 4 23 2 -13 2 -33 0
-45z m-867 47 c0 -2 -10 -9 -22 -15 -22 -11 -22 -10 -4 4 21 17 26 19 26 11z
m5 -67 c15 -16 -67 28 -90 47 -11 9 3 5 30 -10 28 -15 55 -32 60 -37z m425
-14 c0 -2 -13 2 -30 11 -16 9 -30 18 -30 21 0 2 14 -2 30 -11 17 -9 30 -18 30
-21z m-300 21 c0 -2 -14 -12 -32 -21 l-31 -16 46 -29 c26 -16 53 -29 61 -29 8
0 17 -7 20 -15 4 -11 -16 -4 -58 20 -34 19 -71 35 -81 35 -9 0 -43 -15 -74
-34 -71 -43 -101 -58 -101 -52 0 3 38 26 84 52 72 41 82 50 68 60 -14 10 -13
11 10 7 14 -3 39 2 54 11 33 17 34 18 34 11z m1120 -31 c0 -2 -13 2 -30 11
-16 9 -30 18 -30 21 0 2 14 -2 30 -11 17 -9 30 -18 30 -21z m-1940 21 c0 -2
-10 -9 -22 -15 -22 -11 -22 -10 -4 4 21 17 26 19 26 11z m565 -5 c-3 -5 -12
-10 -18 -10 -7 0 -6 4 3 10 19 12 23 12 15 0z m795 0 c0 -5 -5 -10 -11 -10 -5
0 -7 5 -4 10 3 6 8 10 11 10 2 0 4 -4 4 -10z m568 -43 c-9 -7 -31 -20 -48 -29
-17 -10 -29 -21 -26 -26 2 -4 -6 -8 -19 -8 -15 0 -21 5 -18 13 3 7 11 13 18
13 7 0 33 11 56 25 47 26 65 32 37 12z m-568 -1 c0 -2 -7 -7 -16 -10 -8 -3
-12 -2 -9 4 6 10 25 14 25 6z m160 0 c0 -2 -16 -13 -36 -25 -19 -12 -32 -25
-29 -31 3 -6 -1 -7 -10 -4 -9 4 -33 -5 -56 -21 -37 -24 -43 -25 -57 -11 -14
13 -13 14 6 9 22 -5 92 31 92 48 0 6 4 8 9 4 6 -3 25 4 43 15 35 21 38 22 38
16z m165 -49 c6 -4 19 -15 30 -23 11 -9 -7 -1 -40 16 -33 18 -64 37 -70 42
-11 10 63 -22 80 -35z m-1186 -14 c19 -13 39 -23 46 -23 9 0 11 -13 7 -45 -3
-28 0 -50 8 -60 10 -12 10 -15 -4 -15 -13 0 -16 11 -16 54 0 52 -2 55 -36 76
-20 11 -44 18 -53 15 -8 -3 -12 -3 -8 1 4 4 2 13 -5 21 -15 19 16 6 61 -24z
m1058 -15 c-2 -13 -4 -5 -4 17 -1 22 1 32 4 23 2 -10 2 -28 0 -40z m-1207 -75
c-6 -32 -8 -26 -8 32 0 53 2 62 8 38 4 -17 4 -49 0 -70z m1436 72 c-10 -8 -15
-19 -10 -26 4 -8 3 -10 -4 -5 -8 4 -12 0 -13 -11 0 -14 -3 -12 -10 6 -5 13 -8
25 -7 25 10 6 54 25 58 25 3 0 -3 -6 -14 -14z m-1191 -43 c-3 -3 -11 0 -18 7
-9 10 -8 11 6 5 10 -3 15 -9 12 -12z m165 8 c0 -5 -4 -10 -10 -10 -5 0 -10 5
-10 10 0 6 5 10 10 10 6 0 10 -4 10 -10z m400 0 c0 -5 -4 -10 -10 -10 -5 0
-10 5 -10 10 0 6 5 10 10 10 6 0 10 -4 10 -10z m400 -27 c0 -43 -5 -41 -13 5
-4 18 -2 32 3 32 6 0 10 -16 10 -37z m282 14 c5 -26 -17 -34 -26 -10 -3 8 -1
11 4 8 6 -3 10 1 10 9 0 24 7 19 12 -7z m-1752 -2 c0 -2 -10 -9 -22 -15 -22
-11 -22 -10 -4 4 21 17 26 19 26 11z m1360 -19 c0 -10 -30 0 -34 11 -4 11 -1
11 14 3 11 -6 20 -12 20 -14z m-970 10 c0 -2 -7 -7 -16 -10 -8 -3 -12 -2 -9 4
6 10 25 14 25 6z m166 -7 c3 -6 14 -9 24 -6 13 3 17 0 13 -9 -7 -18 -10 -18
-40 6 -14 11 -21 20 -15 20 6 0 14 -5 18 -11z m234 7 c0 -2 -7 -7 -16 -10 -8
-3 -12 -2 -9 4 6 10 25 14 25 6z m164 -4 c3 -5 -1 -9 -9 -9 -8 0 -15 4 -15 9
0 10 17 10 24 0z m236 4 c0 -2 -7 -7 -16 -10 -8 -3 -12 -2 -9 4 6 10 25 14 25
6z m400 0 c0 -2 -11 -11 -24 -19 -20 -14 -26 -14 -36 -2 -9 11 -7 12 8 8 11
-2 23 0 26 6 7 10 26 16 26 7z m-1404 -34 c-4 -3 -14 2 -24 12 -16 18 -16 18
6 6 13 -6 21 -14 18 -18z m-241 8 c-3 -5 -11 -10 -16 -10 -6 0 -7 5 -4 10 3 6
11 10 16 10 6 0 7 -4 4 -10z m405 6 c0 -3 -4 -8 -10 -11 -5 -3 -10 -1 -10 4 0
6 5 11 10 11 6 0 10 -2 10 -4z m400 0 c0 -3 -4 -8 -10 -11 -5 -3 -10 -1 -10 4
0 6 5 11 10 11 6 0 10 -2 10 -4z m240 -6 c0 -5 -4 -10 -10 -10 -5 0 -10 5 -10
10 0 6 5 10 10 10 6 0 10 -4 10 -10z m77 -12 c-3 -8 -6 -5 -6 6 -1 11 2 17 5
13 3 -3 4 -12 1 -19z m83 18 c0 -3 -4 -8 -10 -11 -5 -3 -10 -1 -10 4 0 6 5 11
10 11 6 0 10 -2 10 -4z m240 -6 c0 -5 -2 -10 -4 -10 -3 0 -8 5 -11 10 -3 6 -1
10 4 10 6 0 11 -4 11 -10z m400 0 c0 -5 -2 -10 -4 -10 -3 0 -8 5 -11 10 -3 6
-1 10 4 10 6 0 11 -4 11 -10z m-1470 -14 c0 -2 -7 -7 -16 -10 -8 -3 -12 -2 -9
4 6 10 25 14 25 6z m947 -13 c2 -6 -6 -13 -17 -16 -16 -4 -19 -2 -11 7 6 7 7
16 3 21 -4 4 -1 6 7 3 8 -2 16 -9 18 -15z m-397 -3 c0 -5 -4 -10 -10 -10 -5 0
-10 5 -10 10 0 6 5 10 10 10 6 0 10 -4 10 -10z m800 -22 c0 -36 -4 -35 -14 5
-4 16 -2 27 4 27 5 0 10 -14 10 -32z m-996 11 c-2 -4 19 -20 47 -35 28 -16 47
-30 41 -32 -5 -1 -27 9 -47 23 -21 14 -44 25 -52 25 -21 0 -74 -30 -69 -38 2
-4 -7 -9 -20 -10 -35 -3 -21 14 31 37 25 11 45 24 45 29 0 5 7 9 15 9 8 0 12
-4 9 -8z m438 -27 c26 -13 50 -27 53 -32 7 -11 -9 -5 -67 25 -36 18 -40 18
-74 2 -19 -10 -33 -21 -30 -25 2 -4 -7 -9 -22 -10 -18 -1 -23 1 -16 8 13 13
97 58 104 56 3 -1 26 -12 52 -24z m-655 -29 c-3 -10 -5 -2 -5 17 0 19 2 27 5
18 2 -10 2 -26 0 -35z m-242 21 c-11 -8 -19 -19 -18 -23 1 -4 -9 -8 -21 -9
-14 -1 -23 4 -23 13 0 8 3 13 6 11 3 -2 20 2 36 9 40 18 44 17 20 -1z"/>
<path d="M1913 1985 c15 -7 37 -21 49 -29 32 -22 38 -20 38 13 0 28 -1 29 -57
30 -55 0 -56 0 -30 -14z"/>
</g>
</svg>
