<?xml version="1.0" standalone="no"?>
<!DOCTYPE svg PUBLIC "-//W3C//DTD SVG 20010904//EN"
 "http://www.w3.org/TR/2001/REC-SVG-20010904/DTD/svg10.dtd">
<svg version="1.0" xmlns="http://www.w3.org/2000/svg"
 width="200.000000pt" height="200.000000pt" viewBox="0 0 200.000000 200.000000"
 preserveAspectRatio="xMidYMid meet">
<metadata>
Created by potrace 1.16, written by Peter Selinger 2001-2019
</metadata>
<g transform="translate(0.000000,200.000000) scale(0.100000,-0.100000)"
fill="#000000" stroke="none">
<path d="M0 1987 c0 -4 6 -5 13 -1 10 6 10 4 0 -7 -18 -19 -16 -49 4 -56 10
-4 41 -22 70 -40 29 -18 55 -33 59 -33 4 0 15 -7 25 -16 17 -15 23 -13 91 24
40 22 72 45 71 51 -2 6 5 7 14 4 10 -4 14 -2 10 4 -4 6 1 10 11 9 13 -1 17 8
19 36 l2 36 -90 1 c-57 1 -88 -3 -84 -9 3 -6 2 -10 -4 -10 -5 0 -13 5 -16 10
-8 12 -195 10 -195 -3z m310 -1 c0 -3 -4 -8 -10 -11 -5 -3 -10 -1 -10 4 0 6 5
11 10 11 6 0 10 -2 10 -4z m-147 -25 c-3 -13 -11 -17 -24 -14 -10 3 -19 9 -19
14 0 5 7 6 15 3 8 -4 15 -1 15 5 0 6 4 11 9 11 5 0 7 -8 4 -19z m47 -34 c0 -8
-7 -14 -15 -14 -11 0 -12 4 -4 14 6 7 13 13 15 13 2 0 4 -6 4 -13z m-47 -37
c-3 -11 -7 -20 -9 -20 -2 0 -4 9 -4 20 0 11 4 20 9 20 5 0 7 -9 4 -20z m47
-40 c0 -5 -2 -10 -4 -10 -3 0 -8 5 -11 10 -3 6 -1 10 4 10 6 0 11 -4 11 -10z"/>
<path d="M400 1988 c0 -5 4 -7 8 -4 5 3 9 -1 9 -9 0 -8 -4 -12 -9 -9 -4 3 -8
-5 -8 -18 0 -25 -31 -58 -54 -58 -7 0 -21 -9 -31 -20 -10 -11 -20 -18 -23 -15
-8 8 -43 -16 -37 -25 3 -6 -1 -7 -9 -4 -8 3 -24 -4 -35 -15 -21 -21 -37 -28
-27 -12 3 5 -1 14 -9 21 -12 10 -15 10 -15 -1 -1 -10 -3 -9 -10 3 -13 21 -101
73 -119 70 -7 -2 -10 1 -7 6 3 6 0 12 -8 15 -19 8 -23 -318 -3 -341 9 -12 9
-14 0 -8 -10 5 -12 -60 -12 -299 1 -202 4 -303 11 -299 6 4 5 -3 -1 -15 -12
-21 -13 -171 -2 -171 3 0 17 9 31 20 14 11 28 20 32 20 12 0 112 63 120 74 5
8 8 7 8 -1 0 -6 10 -15 23 -19 12 -4 24 -10 27 -14 5 -7 44 -29 96 -54 52 -25
58 -39 55 -132 -1 -57 2 -83 9 -79 6 4 6 -3 -1 -19 -9 -19 -9 -29 0 -40 10
-12 9 -14 -8 -9 -14 3 -23 0 -27 -11 -3 -9 -13 -16 -21 -16 -24 0 -103 -51
-96 -62 3 -7 1 -8 -5 -4 -6 4 -21 2 -31 -4 -19 -9 -20 -20 -18 -130 1 -90 -1
-120 -10 -120 -7 0 -13 -5 -13 -11 0 -5 -4 -8 -9 -5 -5 4 -12 0 -14 -6 -3 -7
-6 -3 -6 8 -1 15 5 21 17 20 15 -1 17 11 18 117 2 108 -3 130 -26 132 -3 0
-31 17 -63 38 -32 21 -62 35 -68 32 -5 -4 -9 -1 -9 4 0 6 -4 11 -9 11 -5 0 -8
-11 -7 -25 0 -14 5 -25 9 -25 5 0 5 -6 1 -12 -13 -21 -16 -88 -4 -88 7 0 8 -6
0 -19 -13 -26 -13 -44 2 -35 7 5 8 3 2 -7 -5 -8 -10 -36 -11 -62 -1 -39 1 -47
13 -43 13 5 13 2 -1 -16 -14 -21 -22 -98 -10 -98 4 0 20 7 38 15 31 15 24 8
-22 -25 -14 -9 -21 -25 -21 -47 l0 -32 65 0 c48 0 63 3 58 12 -5 9 -3 9 8 0
12 -9 119 -12 437 -12 232 1 420 4 418 8 -3 4 4 7 14 7 10 0 17 -3 14 -7 -2
-4 82 -7 186 -8 132 0 189 3 184 10 -4 8 -1 8 13 0 28 -14 396 -15 387 0 -4 8
0 8 15 0 25 -14 201 -13 201 1 0 5 -6 6 -12 2 -10 -6 -10 -5 -1 7 17 21 16
402 0 392 -9 -5 -9 -3 0 8 13 16 17 163 4 155 -4 -3 -8 1 -8 9 0 8 4 12 7 10
4 -3 8 97 8 220 0 169 -3 223 -11 218 -9 -5 -9 -3 -1 8 17 21 18 373 1 362 -9
-5 -9 -4 0 8 13 16 17 163 4 155 -4 -3 -8 1 -8 9 0 8 4 12 9 9 4 -3 8 9 8 26
0 22 -4 29 -12 24 -10 -6 -10 -5 -1 7 13 16 17 173 4 165 -4 -3 -8 1 -8 9 0 8
4 12 8 9 5 -2 8 35 7 84 l-1 90 -176 0 c-119 0 -181 -3 -190 -11 -11 -9 -13
-9 -8 -1 9 15 -198 18 -226 3 -14 -8 -18 -8 -12 0 9 16 -135 13 -154 -3 -11
-8 -13 -8 -8 0 5 8 -24 12 -104 13 -60 0 -108 -3 -105 -7 2 -4 -4 -8 -14 -8
-10 0 -17 3 -14 7 2 4 -81 7 -186 7 -126 0 -188 -3 -184 -10 4 -6 -2 -6 -14 1
-26 14 -134 15 -112 1 9 -6 10 -10 3 -10 -6 0 -14 4 -17 9 -8 12 -76 12 -76
-1z m905 -7 c3 -5 2 -12 -3 -15 -5 -3 -9 1 -9 9 0 17 3 19 12 6z m205 -1 c0
-5 -5 -10 -11 -10 -5 0 -7 5 -4 10 3 6 8 10 11 10 2 0 4 -4 4 -10z m400 0 c0
-5 -5 -10 -11 -10 -5 0 -7 5 -4 10 3 6 8 10 11 10 2 0 4 -4 4 -10z m-1345 -10
c-4 -6 -1 -18 7 -27 12 -14 9 -14 -19 1 -34 17 -45 30 -18 20 8 -4 15 -1 15 5
0 6 5 11 11 11 5 0 7 -5 4 -10z m245 6 c0 -3 -4 -8 -10 -11 -5 -3 -10 -1 -10
4 0 6 5 11 10 11 6 0 10 -2 10 -4z m156 -16 c0 -11 -1 -20 -2 -20 -1 0 -9 3
-18 6 -12 5 -13 9 -3 20 17 19 23 17 23 -6z m88 -13 c-9 -5 -18 -6 -21 -3 -4
3 -1 6 7 6 10 0 10 3 -1 17 -13 15 -12 15 8 2 19 -11 20 -15 7 -22z m156 29
c0 -3 -4 -8 -10 -11 -5 -3 -10 -1 -10 4 0 6 5 11 10 11 6 0 10 -2 10 -4z m156
-16 c0 -13 -5 -19 -14 -15 -7 3 -16 5 -20 5 -3 0 3 7 14 15 10 8 19 15 19 15
1 0 1 -9 1 -20z m102 -6 c1 0 -10 -6 -25 -13 -23 -11 -25 -10 -14 3 7 8 9 21
5 28 -5 9 -2 8 12 -2 10 -8 20 -15 22 -16z m142 16 c0 -5 -2 -10 -4 -10 -3 0
-8 5 -11 10 -3 6 -1 10 4 10 6 0 11 -4 11 -10z m156 -9 c0 -12 -6 -17 -18 -13
-18 4 -18 5 -1 18 10 7 18 14 18 14 1 0 1 -8 1 -19z m84 9 c0 -5 6 -10 14 -10
8 0 17 -3 19 -7 3 -5 -5 -8 -18 -8 -14 0 -26 7 -29 18 -2 9 0 17 5 17 5 0 9
-4 9 -10z m-1145 -38 c-3 -3 -11 0 -18 7 -9 10 -8 11 6 5 10 -3 15 -9 12 -12z
m1005 4 c0 -3 -4 -8 -10 -11 -5 -3 -10 -1 -10 4 0 6 5 11 10 11 6 0 10 -2 10
-4z m110 -22 c0 -2 -9 0 -20 6 -11 6 -20 13 -20 16 0 2 9 0 20 -6 11 -6 20
-13 20 -16z m-1197 2 c9 -7 17 -17 17 -21 0 -5 -9 0 -19 9 -11 10 -25 15 -32
10 -8 -4 -10 -3 -5 4 9 15 17 15 39 -2z m193 2 c4 -6 3 -8 -4 -5 -14 9 -43 -3
-36 -14 3 -5 -2 -9 -10 -9 -23 0 -19 15 7 28 29 14 34 14 43 0z m199 2 c3 -6
-1 -7 -9 -4 -18 7 -21 14 -7 14 6 0 13 -4 16 -10z m195 6 c0 -2 -7 -7 -16 -10
-8 -3 -12 -2 -9 4 6 10 25 14 25 6z m200 0 c0 -2 -7 -7 -16 -10 -8 -3 -12 -2
-9 4 6 10 25 14 25 6z m200 0 c0 -2 -7 -7 -16 -10 -8 -3 -12 -2 -9 4 6 10 25
14 25 6z m50 -31 c0 -12 -29 -3 -34 10 -4 13 -2 14 14 5 11 -6 20 -13 20 -15z
m-1201 1 c10 -12 8 -13 -8 -9 -12 3 -21 9 -21 14 0 14 16 11 29 -5z m111 10
c0 -3 -4 -8 -10 -11 -5 -3 -10 -1 -10 4 0 6 5 11 10 11 6 0 10 -2 10 -4z m285
-6 c3 -5 2 -10 -4 -10 -5 0 -13 5 -16 10 -3 6 -2 10 4 10 5 0 13 -4 16 -10z
m315 0 c0 -5 -4 -10 -10 -10 -5 0 -10 5 -10 10 0 6 5 10 10 10 6 0 10 -4 10
-10z m85 0 c3 -5 2 -10 -4 -10 -5 0 -13 5 -16 10 -3 6 -2 10 4 10 5 0 13 -4
16 -10z m315 1 c0 -5 -11 -12 -25 -15 -14 -4 -25 -11 -25 -16 0 -14 -27 -13
-36 2 -4 6 -3 8 3 5 5 -3 23 3 39 13 33 21 44 24 44 11z m280 -1 c0 -5 -2 -10
-4 -10 -3 0 -8 5 -11 10 -3 6 -1 10 4 10 6 0 11 -4 11 -10z m120 0 c0 -5 -4
-10 -10 -10 -5 0 -10 5 -10 10 0 6 5 10 10 10 6 0 10 -4 10 -10z m-1055 -22
c5 4 5 1 1 -6 -5 -9 -12 -9 -27 -2 -10 6 -19 13 -19 16 0 2 8 0 19 -5 10 -6
22 -7 26 -3z m202 -5 c-14 -14 -19 -15 -29 -4 -7 8 -8 11 -3 8 6 -3 17 -2 25
4 23 14 26 11 7 -8z m214 4 c-6 -8 -8 -16 -5 -20 3 -3 -3 -3 -15 0 -12 3 -21
9 -21 14 0 5 6 6 14 3 8 -3 17 -1 21 5 3 6 9 11 12 11 3 0 0 -6 -6 -13z m-621
-6 c0 -5 -10 -11 -22 -14 -22 -6 -22 -6 -4 8 23 17 26 18 26 6z m1020 -17 c0
-2 -9 0 -20 6 -11 6 -20 13 -20 16 0 2 9 0 20 -6 11 -6 20 -13 20 -16z m190
16 c0 -5 -7 -10 -16 -10 -8 0 -12 5 -9 10 3 6 10 10 16 10 5 0 9 -4 9 -10z
m-1883 -22 c-3 -8 -6 -5 -6 6 -1 11 2 17 5 13 3 -3 4 -12 1 -19z m328 -8 c3
-5 1 -10 -4 -10 -6 0 -11 5 -11 10 0 6 2 10 4 10 3 0 8 -4 11 -10z m80 0 c-3
-5 -11 -10 -16 -10 -6 0 -7 5 -4 10 3 6 11 10 16 10 6 0 7 -4 4 -10z m124 -3
c8 -10 7 -14 -4 -14 -8 0 -15 6 -15 14 0 7 2 13 4 13 2 0 9 -6 15 -13z m88 -2
c0 -6 -8 -12 -17 -12 -9 -1 -17 4 -17 11 0 6 8 12 17 12 9 0 17 -5 17 -11z
m108 5 c3 -5 1 -10 -4 -10 -6 0 -11 5 -11 10 0 6 2 10 4 10 3 0 8 -4 11 -10z
m490 0 c-3 -5 -11 -10 -16 -10 -6 0 -7 5 -4 10 3 6 11 10 16 10 6 0 7 -4 4
-10z m195 -11 c0 -5 -6 -9 -13 -9 -8 0 -14 6 -14 14 0 8 6 12 14 9 7 -3 13 -9
13 -14z m205 11 c-3 -5 -11 -10 -16 -10 -6 0 -7 5 -4 10 3 6 11 10 16 10 6 0
7 -4 4 -10z m125 -16 c0 -2 -9 0 -20 6 -11 6 -20 13 -20 16 0 2 9 0 20 -6 11
-6 20 -13 20 -16z m70 9 c0 -7 -6 -13 -13 -13 -8 0 -14 6 -14 13 0 8 6 14 14
14 7 0 13 -6 13 -14z m-876 -1 c3 -5 -1 -9 -9 -9 -8 0 -15 4 -15 9 0 4 4 8 9
8 6 0 12 -4 15 -8z m76 -2 c0 -5 -7 -10 -16 -10 -8 0 -12 5 -9 10 3 6 10 10
16 10 5 0 9 -4 9 -10z m325 0 c3 -6 -1 -7 -9 -4 -18 7 -21 14 -7 14 6 0 13 -4
16 -10z m-970 -10 c-3 -5 -12 -10 -18 -10 -7 0 -6 4 3 10 19 12 23 12 15 0z
m412 -4 c0 -8 -6 -12 -15 -9 -11 5 -11 7 0 14 7 5 13 9 14 9 0 0 1 -6 1 -14z
m490 -18 c-3 -7 -5 -2 -5 12 0 14 2 19 5 13 2 -7 2 -19 0 -25z m-697 18 c0 -3
-4 -8 -10 -11 -5 -3 -10 -1 -10 4 0 6 5 11 10 11 6 0 10 -2 10 -4z m291 -19
c-10 -9 -11 -8 -5 6 3 10 9 15 12 12 3 -3 0 -11 -7 -18z m314 13 c3 -6 -1 -7
-9 -4 -18 7 -21 14 -7 14 6 0 13 -4 16 -10z m595 0 c0 -5 -2 -10 -4 -10 -3 0
-8 5 -11 10 -3 6 -1 10 4 10 6 0 11 -4 11 -10z m-1773 -52 c-2 -13 -4 -5 -4
17 -1 22 1 32 4 23 2 -10 2 -28 0 -40z m73 47 c0 -2 -13 -11 -30 -20 -16 -9
-30 -12 -30 -8 0 5 10 13 23 19 25 13 37 16 37 9z m195 -5 c3 -5 1 -10 -4 -10
-6 0 -11 5 -11 10 0 6 2 10 4 10 3 0 8 -4 11 -10z m185 -10 c-36 -27 -56 -30
-56 -9 0 13 4 15 13 8 8 -8 19 -6 35 5 32 22 38 20 8 -4z m215 10 c3 -5 1 -10
-4 -10 -6 0 -11 5 -11 10 0 6 2 10 4 10 3 0 8 -4 11 -10z m1002 -12 c-3 -8 -6
-5 -6 6 -1 11 2 17 5 13 3 -3 4 -12 1 -19z m-1350 -20 c-3 -7 -5 -2 -5 12 0
14 2 19 5 13 2 -7 2 -19 0 -25z m404 19 c-6 -8 -7 -17 -3 -22 4 -4 -3 -2 -15
4 -26 13 -31 23 -8 15 8 -4 15 -1 15 5 0 6 5 11 11 11 8 0 9 -4 0 -13z m107
-13 c1 -1 -5 -4 -15 -6 -13 -4 -19 0 -19 13 0 14 3 16 16 6 8 -6 16 -12 18
-13z m293 12 c-9 -11 -9 -15 1 -19 7 -3 8 -6 2 -6 -5 -1 -19 6 -30 14 -14 11
-15 14 -3 9 10 -3 20 -1 24 5 3 6 9 11 12 11 3 0 0 -6 -6 -14z m96 -18 c-18
-12 -23 -10 -23 11 0 15 3 17 18 8 13 -8 14 -13 5 -19z m303 17 c-7 -8 -17
-15 -23 -15 -6 0 -2 7 9 15 25 19 30 19 14 0z m95 1 c12 -12 12 -15 -1 -20 -9
-3 -17 -6 -18 -6 -1 0 -2 9 -2 20 0 24 3 24 21 6z m-1048 -20 c0 -8 -6 -12
-15 -9 -11 5 -11 7 0 14 7 5 13 9 14 9 0 0 1 -6 1 -14z m1203 1 c0 -8 -7 -14
-15 -14 -11 0 -12 4 -4 14 6 7 13 13 15 13 2 0 4 -6 4 -13z m-1680 -20 c0 -2
-8 -3 -18 -4 -10 -1 -19 5 -19 12 0 10 5 11 19 4 10 -5 18 -11 18 -12z m75 14
c3 -5 2 -12 -3 -15 -5 -3 -9 1 -9 9 0 17 3 19 12 6z m100 -1 c-3 -5 -11 -10
-16 -10 -6 0 -7 5 -4 10 3 6 11 10 16 10 6 0 7 -4 4 -10z m705 0 c0 -5 -4 -10
-10 -10 -5 0 -10 5 -10 10 0 6 5 10 10 10 6 0 10 -4 10 -10z m400 0 c0 -5 -7
-10 -16 -10 -8 0 -12 5 -9 10 3 6 10 10 16 10 5 0 9 -4 9 -10z m100 -5 c-7 -9
-15 -13 -19 -10 -3 3 1 10 9 15 21 14 24 12 10 -5z m-994 -6 c3 -6 15 -9 25
-6 11 3 17 1 13 -4 -3 -5 -11 -9 -18 -9 -16 0 -55 29 -39 30 6 0 15 -5 19 -11z
m1099 -9 c3 -6 -1 -7 -9 -4 -18 7 -21 14 -7 14 6 0 13 -4 16 -10z m-1355 -4
c0 -2 -7 -7 -16 -10 -8 -3 -12 -2 -9 4 6 10 25 14 25 6z m1100 -4 c0 -5 -7 -9
-15 -9 -8 0 -15 4 -15 9 0 4 7 8 15 8 8 0 15 -4 15 -8z m110 4 c0 -3 -4 -8
-10 -11 -5 -3 -10 -1 -10 4 0 6 5 11 10 11 6 0 10 -2 10 -4z m400 -6 c0 -5 -4
-10 -10 -10 -5 0 -10 5 -10 10 0 6 5 10 10 10 6 0 10 -4 10 -10z m-1828 -15
c0 -5 -5 -11 -10 -13 -5 -1 -9 4 -9 13 0 9 4 14 9 13 5 -2 10 -8 10 -13z m328
11 c0 -3 -4 -8 -10 -11 -5 -3 -10 -1 -10 4 0 6 5 11 10 11 6 0 10 -2 10 -4z
m1280 -6 c0 -5 -2 -10 -4 -10 -3 0 -8 5 -11 10 -3 6 -1 10 4 10 6 0 11 -4 11
-10z m320 0 c0 -5 -5 -10 -11 -10 -5 0 -7 5 -4 10 3 6 8 10 11 10 2 0 4 -4 4
-10z m-1666 -37 c-18 -19 -22 -16 -17 11 4 19 8 22 18 13 9 -9 9 -14 -1 -24z
m597 18 c-10 -6 -9 -10 4 -15 9 -3 13 -11 10 -17 -5 -6 -11 -4 -19 7 -7 9 -17
14 -23 11 -5 -3 -10 0 -10 7 0 8 6 12 13 9 6 -2 15 1 19 7 4 6 10 9 13 5 4 -3
1 -10 -7 -14z m227 3 c5 3 9 -1 9 -8 0 -8 -6 -12 -13 -9 -6 2 -15 0 -19 -6 -3
-6 -12 -11 -18 -11 -7 0 -3 7 7 15 11 8 14 15 8 15 -7 0 -12 5 -12 11 0 8 4 8
15 -1 8 -6 18 -9 23 -6z m377 5 c4 -6 13 -8 19 -6 7 3 13 -1 13 -9 0 -7 -4
-11 -9 -8 -5 3 -16 0 -24 -7 -8 -6 -17 -9 -21 -6 -3 4 2 9 11 13 15 6 15 7 -1
20 -10 7 -13 14 -6 14 6 0 15 -5 18 -11z m-1301 -14 c3 -9 0 -15 -9 -15 -9 0
-12 6 -9 15 4 8 7 15 9 15 2 0 5 -7 9 -15z m271 5 c3 -5 1 -10 -4 -10 -6 0
-11 5 -11 10 0 6 2 10 4 10 3 0 8 -4 11 -10z m132 -5 c0 -8 -4 -15 -9 -15 -4
0 -8 7 -8 15 0 8 4 15 8 15 5 0 9 -7 9 -15z m130 -2 c0 -6 -7 -9 -15 -6 -8 3
-18 0 -23 -8 -6 -10 -8 -9 -7 6 2 22 45 30 45 8z m273 2 c0 -8 -6 -15 -13 -15
-8 0 -14 7 -14 15 0 8 6 15 14 15 7 0 13 -7 13 -15z m400 0 c0 -8 -4 -15 -10
-15 -5 0 -10 7 -10 15 0 8 5 15 10 15 6 0 10 -7 10 -15z m280 0 c0 -2 -6 -5
-13 -8 -8 -3 -14 1 -14 8 0 7 6 11 14 8 7 -3 13 -6 13 -8z m124 0 c3 -8 1 -15
-3 -15 -5 0 -11 7 -15 15 -3 8 -1 15 3 15 5 0 11 -7 15 -15z m112 -1 c10 -8
13 -13 6 -9 -7 4 -20 1 -28 -6 -8 -6 -17 -9 -21 -5 -3 3 -1 6 6 6 8 0 11 7 7
15 -7 19 5 19 30 -1z m-636 2 c0 -2 -7 -7 -16 -10 -8 -3 -12 -2 -9 4 6 10 25
14 25 6z m-49 -29 c-10 -9 -11 -8 -5 6 3 10 9 15 12 12 3 -3 0 -11 -7 -18z
m74 13 c3 -5 1 -10 -4 -10 -6 0 -11 5 -11 10 0 6 2 10 4 10 3 0 8 -4 11 -10z
m400 0 c3 -5 1 -10 -4 -10 -6 0 -11 5 -11 10 0 6 2 10 4 10 3 0 8 -4 11 -10z
m-1350 -10 c3 -5 1 -10 -4 -10 -6 0 -11 5 -11 10 0 6 2 10 4 10 3 0 8 -4 11
-10z m400 0 c3 -5 1 -10 -4 -10 -6 0 -11 5 -11 10 0 6 2 10 4 10 3 0 8 -4 11
-10z m1210 0 c3 -5 2 -10 -4 -10 -5 0 -13 5 -16 10 -3 6 -2 10 4 10 5 0 13 -4
16 -10z m-1720 -10 c3 -5 1 -10 -4 -10 -6 0 -11 5 -11 10 0 6 2 10 4 10 3 0 8
-4 11 -10z m300 0 c-3 -5 -12 -10 -18 -10 -7 0 -6 4 3 10 19 12 23 12 15 0z
m115 -2 c0 -4 -7 -8 -15 -8 -8 0 -15 4 -15 8 0 5 7 9 15 9 8 0 15 -4 15 -9z
m795 -6 c-3 -3 -11 0 -18 7 -9 10 -8 11 6 5 10 -3 15 -9 12 -12z m-650 -2 c-3
-5 -12 -10 -18 -10 -7 0 -6 4 3 10 19 12 23 12 15 0z m492 -12 c-3 -8 -6 -5
-6 6 -1 11 2 17 5 13 3 -3 4 -12 1 -19z m57 13 c4 -5 -3 -7 -14 -4 -23 6 -26
13 -6 13 8 0 17 -4 20 -9z m-1254 -11 c0 -5 -5 -10 -11 -10 -5 0 -7 5 -4 10 3
6 8 10 11 10 2 0 4 -4 4 -10z m111 -3 c-6 -8 -8 -17 -4 -21 4 -4 0 -4 -10 0
-22 8 -22 21 1 27 9 3 19 5 21 6 2 0 -2 -5 -8 -12z m289 3 c0 -5 -5 -10 -11
-10 -5 0 -7 5 -4 10 3 6 8 10 11 10 2 0 4 -4 4 -10z m410 6 c0 -3 -4 -8 -10
-11 -5 -3 -10 -1 -10 4 0 6 5 11 10 11 6 0 10 -2 10 -4z m184 -12 c3 -8 2 -12
-4 -9 -6 3 -10 10 -10 16 0 14 7 11 14 -7z m801 6 c3 -5 1 -10 -4 -10 -6 0
-11 5 -11 10 0 6 2 10 4 10 3 0 8 -4 11 -10z m-1547 -13 c-15 -10 -15 -12 0
-24 9 -7 13 -12 7 -12 -5 -1 -21 8 -35 19 -14 11 -18 18 -9 14 10 -3 20 -1 24
5 3 6 12 11 18 10 7 0 5 -5 -5 -12z m255 -1 c4 -10 1 -13 -9 -9 -7 3 -14 9
-14 14 0 14 17 10 23 -5z m157 -1 c-6 -8 -9 -19 -5 -25 9 -14 -3 -13 -19 3
-12 10 -10 14 8 24 28 16 31 16 16 -2z m244 0 c4 -13 2 -14 -14 -5 -23 13 -26
20 -6 20 8 0 16 -7 20 -15z m396 -1 c0 -8 -5 -12 -10 -9 -6 4 -8 11 -5 16 9
14 15 11 15 -7z m400 7 c0 -5 -7 -12 -16 -15 -14 -5 -15 -4 -4 9 14 17 20 19
20 6z m-1342 -15 c-2 -1 -10 -7 -18 -13 -13 -10 -16 -8 -16 6 0 13 6 17 19 13
10 -2 16 -5 15 -6z m391 5 c11 -7 10 -11 -6 -19 -15 -9 -19 -7 -19 9 0 21 4
23 25 10z m307 -10 c0 -15 -4 -17 -13 -10 -7 6 -18 8 -25 4 -7 -4 -4 1 6 9 26
21 32 20 32 -3z m91 11 c9 -6 8 -11 -5 -19 -15 -9 -18 -7 -18 8 0 21 5 23 23
11z m305 1 c-10 -4 -10 -8 0 -21 12 -14 10 -14 -11 -3 -19 10 -21 15 -10 22 8
5 19 8 24 8 6 0 4 -3 -3 -6z m97 -19 c-16 -20 -28 -17 -22 5 3 12 11 17 19 14
11 -4 12 -9 3 -19z m-1599 3 c-14 -8 -27 -12 -30 -10 -7 6 23 23 40 23 8 0 4
-6 -10 -13z m237 -9 c-3 -8 -6 -5 -6 6 -1 11 2 17 5 13 3 -3 4 -12 1 -19z
m1663 12 c8 -5 12 -11 10 -14 -3 -2 -14 2 -24 10 -22 15 -10 19 14 4z m-1397
-15 c-3 -9 -8 -14 -10 -11 -3 3 -2 9 2 15 9 16 15 13 8 -4z m-58 -5 c3 -6 -1
-7 -9 -4 -18 7 -21 14 -7 14 6 0 13 -4 16 -10z m205 6 c0 -3 -4 -8 -10 -11 -5
-3 -10 -1 -10 4 0 6 5 11 10 11 6 0 10 -2 10 -4z m400 0 c0 -3 -4 -8 -10 -11
-5 -3 -10 -1 -10 4 0 6 5 11 10 11 6 0 10 -2 10 -4z m200 -6 c0 -5 -2 -10 -4
-10 -3 0 -8 5 -11 10 -3 6 -1 10 4 10 6 0 11 -4 11 -10z m397 -12 c-3 -8 -6
-5 -6 6 -1 11 2 17 5 13 3 -3 4 -12 1 -19z m-1502 2 c3 -5 1 -10 -4 -10 -6 0
-11 5 -11 10 0 6 2 10 4 10 3 0 8 -4 11 -10z m212 -4 c0 -8 -6 -12 -15 -9 -11
5 -11 7 0 14 7 5 13 9 14 9 0 0 1 -6 1 -14z m398 4 c-3 -5 -12 -10 -18 -10 -7
0 -6 4 3 10 19 12 23 12 15 0z m402 -4 c0 -8 -6 -12 -15 -9 -11 5 -11 7 0 14
7 5 13 9 14 9 0 0 1 -6 1 -14z m393 -1 c0 -2 -6 -5 -13 -8 -8 -3 -14 1 -14 8
0 7 6 11 14 8 7 -3 13 -6 13 -8z m200 5 c0 -5 -5 -10 -11 -10 -5 0 -7 5 -4 10
3 6 8 10 11 10 2 0 4 -4 4 -10z m-1560 -15 c-7 -8 -17 -12 -23 -8 -6 4 -3 9 9
14 27 11 28 11 14 -6z m-87 -20 c-7 -21 -13 -19 -13 6 0 11 4 18 10 14 5 -3 7
-12 3 -20z m207 10 c-7 -9 -15 -13 -19 -10 -3 3 1 10 9 15 21 14 24 12 10 -5z
m207 0 c0 -6 -6 -12 -14 -12 -7 0 -13 6 -13 12 0 6 6 12 13 12 8 0 14 -6 14
-12z m68 5 c3 -5 2 -10 -4 -10 -5 0 -13 5 -16 10 -3 6 -2 10 4 10 5 0 13 -4
16 -10z m330 0 c-3 -5 -12 -10 -18 -10 -7 0 -6 4 3 10 19 12 23 12 15 0z m70
0 c3 -5 2 -10 -4 -10 -5 0 -13 5 -16 10 -3 6 -2 10 4 10 5 0 13 -4 16 -10z
m328 -4 c4 -10 0 -14 -13 -13 -14 1 -16 4 -8 14 13 16 15 16 21 -1z m72 4 c3
-5 2 -10 -4 -10 -5 0 -13 5 -16 10 -3 6 -2 10 4 10 5 0 13 -4 16 -10z m325 -5
c0 -2 -6 -5 -13 -8 -8 -3 -14 1 -14 8 0 7 6 11 14 8 7 -3 13 -6 13 -8z m80 -4
c0 -4 -6 -8 -13 -8 -8 0 -14 6 -14 13 0 7 6 10 14 7 7 -3 13 -8 13 -12z
m-1085 -1 c-3 -5 -11 -10 -16 -10 -6 0 -7 5 -4 10 3 6 11 10 16 10 6 0 7 -4 4
-10z m405 6 c0 -3 -4 -8 -10 -11 -5 -3 -10 -1 -10 4 0 6 5 11 10 11 6 0 10 -2
10 -4z m80 -6 c0 -5 -2 -10 -4 -10 -3 0 -8 5 -11 10 -3 6 -1 10 4 10 6 0 11
-4 11 -10z m400 0 c0 -5 -2 -10 -4 -10 -3 0 -8 5 -11 10 -3 6 -1 10 4 10 6 0
11 -4 11 -10z m-1335 -33 c20 -19 20 -19 -12 -3 -36 18 -40 23 -20 23 6 0 21
-9 32 -20z m395 1 c0 -5 -9 -4 -20 2 -11 6 -20 12 -20 14 0 2 9 2 20 -1 11 -3
20 -9 20 -15z m620 17 c0 -2 -13 -11 -30 -20 -26 -13 -29 -13 -24 0 3 8 9 13
13 11 4 -3 13 -1 21 5 17 10 20 11 20 4z m400 0 c0 -2 -10 -9 -22 -15 -22 -11
-22 -10 -4 4 21 17 26 19 26 11z m-1625 -15 c-3 -5 -10 -10 -16 -10 -5 0 -9 5
-9 10 0 6 7 10 16 10 8 0 12 -4 9 -10z m409 2 c2 -4 -4 -9 -15 -9 -10 -1 -19
2 -19 8 0 11 27 12 34 1z m402 -4 c4 -6 3 -8 -3 -5 -5 3 -24 -3 -41 -14 -36
-21 -42 -23 -42 -10 0 5 11 12 25 15 14 4 25 11 25 16 0 14 27 13 36 -2z m205
-5 c13 -15 12 -15 -8 -4 -24 12 -29 21 -14 21 5 0 15 -7 22 -17z m400 0 c13
-15 12 -15 -7 -5 -12 6 -25 8 -29 4 -5 -4 -5 -1 -1 6 10 16 21 15 37 -5z m399
8 c0 -6 -9 -9 -19 -8 -11 0 -17 5 -15 9 7 11 34 10 34 -1z m-1875 -31 c3 -5 2
-10 -4 -10 -5 0 -13 5 -16 10 -3 6 -2 10 4 10 5 0 13 -4 16 -10z m120 0 c3 -5
1 -10 -4 -10 -6 0 -11 5 -11 10 0 6 2 10 4 10 3 0 8 -4 11 -10z m85 6 c0 -3
-4 -8 -10 -11 -5 -3 -10 -1 -10 4 0 6 5 11 10 11 6 0 10 -2 10 -4z m133 -17
l22 -21 -27 13 c-16 7 -28 16 -28 21 0 13 9 10 33 -13z m69 9 c-9 -9 -15 -9
-24 0 -9 9 -7 12 12 12 19 0 21 -3 12 -12z m113 2 c3 -5 1 -10 -4 -10 -6 0
-11 5 -11 10 0 6 2 10 4 10 3 0 8 -4 11 -10z m212 -6 c9 -8 23 -12 32 -9 12 5
13 3 5 -5 -9 -9 -19 -8 -43 4 -17 9 -31 19 -31 21 0 11 22 4 37 -11z m398 0
c13 -9 30 -12 37 -8 10 5 10 4 2 -5 -9 -10 -18 -9 -43 3 -17 9 -31 19 -31 21
0 9 10 5 35 -11z m80 6 c-3 -5 -10 -10 -16 -10 -5 0 -9 5 -9 10 0 6 7 10 16
10 8 0 12 -4 9 -10z m315 0 c0 -5 -4 -10 -9 -10 -6 0 -13 5 -16 10 -3 6 1 10
9 10 9 0 16 -4 16 -10z m80 1 c0 -5 -7 -12 -16 -15 -14 -5 -15 -4 -4 9 14 17
20 19 20 6z m120 -1 c0 -5 -2 -10 -4 -10 -3 0 -8 5 -11 10 -3 6 -1 10 4 10 6
0 11 -4 11 -10z m80 0 c0 -5 -5 -10 -11 -10 -5 0 -7 5 -4 10 3 6 8 10 11 10 2
0 4 -4 4 -10z m120 -6 c0 -14 -3 -14 -15 -4 -8 7 -15 14 -15 16 0 2 7 4 15 4
8 0 15 -7 15 -16z m-1750 -30 c0 -2 -9 0 -20 6 -11 6 -20 13 -20 16 0 2 9 0
20 -6 11 -6 20 -13 20 -16z m390 12 c-7 -7 -13 -7 -20 0 -6 6 -3 10 10 10 13
0 16 -4 10 -10z m800 0 c-7 -7 -13 -7 -20 0 -6 6 -3 10 10 10 13 0 16 -4 10
-10z m410 9 c0 -2 -10 -9 -22 -15 -22 -11 -22 -10 -4 4 21 17 26 19 26 11z
m-923 -27 c-3 -8 -6 -5 -6 6 -1 11 2 17 5 13 3 -3 4 -12 1 -19z m113 18 c0 -2
-7 -7 -16 -10 -8 -3 -12 -2 -9 4 6 10 25 14 25 6z m-846 -55 c-2 -2 -10 1 -17
7 -8 7 -17 9 -20 5 -4 -3 -7 -1 -7 5 0 17 34 19 41 2 4 -8 5 -17 3 -19z m104
25 c-2 -1 -10 -7 -18 -13 -13 -10 -16 -8 -16 6 0 13 6 17 19 13 10 -2 16 -5
15 -6z m296 -8 c2 -10 0 -18 -5 -18 -5 0 -9 5 -9 11 0 6 -6 9 -14 6 -8 -3 -16
0 -19 6 -3 7 5 12 19 12 13 0 25 -7 28 -17z m402 2 c0 -24 -3 -24 -22 -6 -11
11 -11 16 -1 19 21 9 23 8 23 -13z m93 11 c7 -5 9 -11 5 -14 -5 -3 -15 1 -22
9 -14 16 -5 18 17 5z m307 -11 c0 -12 -4 -16 -9 -11 -5 5 -17 7 -26 4 -12 -3
-11 -1 3 11 26 21 32 20 32 -4z m99 10 c17 -7 17 -9 3 -9 -10 -1 -18 -5 -18
-11 0 -5 -4 -10 -8 -10 -4 0 -8 9 -8 20 0 22 2 23 31 10z m301 -9 c0 -14 -4
-17 -12 -11 -6 6 -14 7 -17 3 -4 -3 -7 -1 -7 5 0 6 8 13 18 15 9 3 17 5 17 6
1 0 1 -8 1 -18z m84 -1 c0 -11 -2 -20 -4 -20 -2 0 -6 9 -9 20 -3 11 -1 20 4
20 5 0 9 -9 9 -20z m-1181 7 c-2 -1 -13 -9 -24 -17 -19 -14 -19 -14 -6 3 7 9
18 17 24 17 6 0 8 -1 6 -3z m-249 -12 c0 -2 -7 -8 -15 -15 -12 -10 -15 -10
-15 2 0 8 7 15 15 15 8 0 15 -1 15 -2z m477 -17 c-3 -8 -6 -5 -6 6 -1 11 2 17
5 13 3 -3 4 -12 1 -19z m308 12 c3 -5 2 -10 -4 -10 -5 0 -13 5 -16 10 -3 6 -2
10 4 10 5 0 13 -4 16 -10z m400 -8 c-3 -3 -11 0 -18 7 -9 10 -8 11 6 5 10 -3
15 -9 12 -12z m-1300 -2 c3 -6 -1 -7 -9 -4 -18 7 -21 14 -7 14 6 0 13 -4 16
-10z m205 6 c0 -3 -4 -8 -10 -11 -5 -3 -10 -1 -10 4 0 6 5 11 10 11 6 0 10 -2
10 -4z m305 -6 c3 -6 -1 -7 -9 -4 -18 7 -21 14 -7 14 6 0 13 -4 16 -10z m905
6 c0 -2 -7 -7 -16 -10 -8 -3 -12 -2 -9 4 6 10 25 14 25 6z m190 -6 c0 -5 -2
-10 -4 -10 -3 0 -8 5 -11 10 -3 6 -1 10 4 10 6 0 11 -4 11 -10z m-1693 -14 c0
-8 -6 -12 -15 -9 -11 5 -11 7 0 14 7 5 13 9 14 9 0 0 1 -6 1 -14z m400 0 c0
-8 -6 -12 -15 -9 -11 5 -11 7 0 14 7 5 13 9 14 9 0 0 1 -6 1 -14z m793 -1 c0
-2 -6 -5 -13 -8 -8 -3 -14 1 -14 8 0 7 6 11 14 8 7 -3 13 -6 13 -8z m395 -3
c-3 -3 -11 0 -18 7 -9 10 -8 11 6 5 10 -3 15 -9 12 -12z m-1350 -10 c-3 -3
-11 0 -18 7 -9 10 -8 11 6 5 10 -3 15 -9 12 -12z m290 0 c-3 -3 -11 0 -18 7
-9 10 -8 11 6 5 10 -3 15 -9 12 -12z m130 8 c-3 -5 -12 -10 -18 -10 -7 0 -6 4
3 10 19 12 23 12 15 0z m270 -8 c-3 -3 -11 0 -18 7 -9 10 -8 11 6 5 10 -3 15
-9 12 -12z m420 8 c-3 -5 -12 -10 -18 -10 -7 0 -6 4 3 10 19 12 23 12 15 0z
m115 5 c0 -2 -10 -9 -22 -15 -22 -11 -22 -10 -4 4 21 17 26 19 26 11z m287 -9
c0 -8 -6 -12 -15 -9 -11 5 -11 7 0 14 7 5 13 9 14 9 0 0 1 -6 1 -14z m-1902
-6 c3 -6 -1 -7 -9 -4 -18 7 -21 14 -7 14 6 0 13 -4 16 -10z m105 -4 c0 -3 -4
-8 -10 -11 -5 -3 -10 -1 -10 4 0 6 5 11 10 11 6 0 10 -2 10 -4z m400 0 c0 -3
-4 -8 -10 -11 -5 -3 -10 -1 -10 4 0 6 5 11 10 11 6 0 10 -2 10 -4z m485 -6 c3
-5 2 -10 -4 -10 -5 0 -13 5 -16 10 -3 6 -2 10 4 10 5 0 13 -4 16 -10z m395 0
c0 -5 -2 -10 -4 -10 -3 0 -8 5 -11 10 -3 6 -1 10 4 10 6 0 11 -4 11 -10z m405
0 c3 -5 2 -10 -4 -10 -5 0 -13 5 -16 10 -3 6 -2 10 4 10 5 0 13 -4 16 -10z
m-1755 -10 c0 -5 6 -10 14 -10 8 0 17 -3 19 -7 3 -5 -5 -8 -18 -8 -14 0 -26 7
-29 18 -2 9 0 17 5 17 5 0 9 -4 9 -10z m201 -4 c-9 -11 -9 -15 1 -19 7 -3 8
-6 2 -6 -5 -1 -19 6 -30 14 -14 11 -15 14 -3 9 10 -3 20 -1 24 5 3 6 9 11 12
11 3 0 0 -6 -6 -14z m199 4 c0 -5 -2 -10 -4 -10 -3 0 -8 5 -11 10 -3 6 -1 10
4 10 6 0 11 -4 11 -10z m200 -10 c-24 -15 -36 -11 -14 4 10 8 21 12 24 10 2
-3 -2 -9 -10 -14z m214 5 c11 -8 15 -15 10 -15 -6 0 -19 7 -30 15 -10 8 -14
14 -9 14 6 0 19 -6 29 -14z m193 -4 c-1 -12 -7 -17 -19 -13 -18 4 -18 5 -1 18
23 17 22 17 20 -5z m219 -8 c-6 -6 -36 9 -36 18 0 5 9 4 20 -3 10 -7 18 -14
16 -15z m185 14 c-6 -8 -8 -16 -5 -20 3 -3 -4 -3 -15 0 -20 5 -20 6 -4 19 23
17 39 18 24 1z m221 -1 c10 6 11 4 0 -7 -10 -11 -15 -10 -30 6 -15 17 -15 18
0 6 9 -7 23 -9 30 -5z m181 -5 c-3 -13 -11 -17 -24 -14 -18 5 -19 6 -2 19 25
19 32 17 26 -5z m-1509 -6 c-4 -8 -8 -15 -10 -15 -2 0 -4 7 -4 15 0 8 4 15 10
15 5 0 7 -7 4 -15z m409 2 c3 -8 -1 -14 -9 -14 -8 0 -14 6 -14 14 0 7 4 13 9
13 5 0 11 -6 14 -13z m397 4 c0 -6 -4 -13 -10 -16 -5 -3 -10 1 -10 9 0 9 5 16
10 16 6 0 10 -4 10 -9z m400 -6 c0 -8 -2 -15 -4 -15 -2 0 -6 7 -10 15 -3 8 -1
15 4 15 6 0 10 -7 10 -15z m-1075 -5 c3 -6 -1 -7 -9 -4 -18 7 -21 14 -7 14 6
0 13 -4 16 -10z m-290 -20 c-3 -5 -11 -10 -16 -10 -6 0 -7 5 -4 10 3 6 11 10
16 10 6 0 7 -4 4 -10z m400 0 c-3 -5 -11 -10 -16 -10 -6 0 -7 5 -4 10 3 6 11
10 16 10 6 0 7 -4 4 -10z m525 5 c0 -2 -10 -9 -22 -15 -22 -11 -22 -10 -4 4
21 17 26 19 26 11z m200 -5 c0 -5 -2 -10 -4 -10 -3 0 -8 5 -11 10 -3 6 -1 10
4 10 6 0 11 -4 11 -10z m75 0 c-3 -5 -12 -10 -18 -10 -7 0 -6 4 3 10 19 12 23
12 15 0z m-1380 -10 c3 -6 -1 -7 -9 -4 -18 7 -21 14 -7 14 6 0 13 -4 16 -10z
m395 6 c0 -3 -4 -8 -10 -11 -5 -3 -10 -1 -10 4 0 6 5 11 10 11 6 0 10 -2 10
-4z m54 -35 c9 -12 8 -12 -11 -2 -15 7 -20 17 -16 28 5 14 8 14 11 2 3 -7 10
-20 16 -28z m236 35 c0 -3 -4 -8 -10 -11 -5 -3 -10 -1 -10 4 0 6 5 11 10 11 6
0 10 -2 10 -4z m810 0 c0 -2 -7 -6 -15 -10 -8 -3 -15 -1 -15 4 0 6 7 10 15 10
8 0 15 -2 15 -4z m-1350 -16 c0 -5 -5 -10 -11 -10 -5 0 -7 5 -4 10 3 6 8 10
11 10 2 0 4 -4 4 -10z m400 0 c0 -5 -5 -10 -11 -10 -5 0 -7 5 -4 10 3 6 8 10
11 10 2 0 4 -4 4 -10z m400 0 c0 -5 -5 -10 -11 -10 -5 0 -7 5 -4 10 3 6 8 10
11 10 2 0 4 -4 4 -10z m400 0 c0 -5 -4 -10 -10 -10 -5 0 -10 5 -10 10 0 6 5
10 10 10 6 0 10 -4 10 -10z m405 0 c-3 -5 -10 -10 -16 -10 -5 0 -9 5 -9 10 0
6 7 10 16 10 8 0 12 -4 9 -10z m-1500 -10 c-3 -5 -11 -10 -16 -10 -6 0 -7 5
-4 10 3 6 11 10 16 10 6 0 7 -4 4 -10z m395 0 c0 -5 -5 -10 -11 -10 -5 0 -7 5
-4 10 3 6 8 10 11 10 2 0 4 -4 4 -10z m195 0 c3 -5 2 -10 -4 -10 -5 0 -13 5
-16 10 -3 6 -2 10 4 10 5 0 13 -4 16 -10z m205 0 c0 -5 -5 -10 -11 -10 -5 0
-7 5 -4 10 3 6 8 10 11 10 2 0 4 -4 4 -10z m195 0 c3 -5 2 -10 -4 -10 -5 0
-13 5 -16 10 -3 6 -2 10 4 10 5 0 13 -4 16 -10z m400 0 c3 -5 1 -10 -4 -10 -6
0 -11 5 -11 10 0 6 2 10 4 10 3 0 8 -4 11 -10z m-1453 -36 c-9 -7 -19 -10 -22
-8 -2 3 2 9 10 14 10 7 11 10 3 10 -7 0 -13 5 -13 10 0 6 8 5 19 -2 18 -11 18
-13 3 -24z m158 26 c0 -5 -4 -10 -10 -10 -5 0 -10 5 -10 10 0 6 5 10 10 10 6
0 10 -4 10 -10z m242 -3 c15 -12 15 -14 -5 -26 -17 -10 -19 -11 -10 -1 10 11
9 16 -5 26 -9 8 -12 13 -7 13 6 0 18 -5 27 -12z m158 3 c0 -5 -4 -10 -10 -10
-5 0 -10 5 -10 10 0 6 5 10 10 10 6 0 10 -4 10 -10z m157 -1 c-15 -9 -16 -13
-5 -27 12 -15 11 -16 -4 -4 -9 8 -23 11 -30 7 -7 -4 -2 3 12 14 14 11 30 21
35 20 6 0 2 -4 -8 -10z m93 -10 c14 -11 19 -18 12 -14 -7 4 -21 1 -30 -7 -15
-12 -16 -11 -4 4 11 14 10 18 -5 27 -10 6 -13 10 -8 10 6 1 21 -9 35 -20z
m150 11 c0 -5 -4 -10 -10 -10 -5 0 -10 5 -10 10 0 6 5 10 10 10 6 0 10 -4 10
-10z m270 -27 c0 -2 -5 -1 -10 2 -6 4 -19 1 -28 -7 -15 -11 -15 -11 -5 3 10
12 10 18 0 29 -6 7 0 5 16 -5 15 -9 27 -19 27 -22z m130 27 c0 -5 -4 -10 -10
-10 -5 0 -10 5 -10 10 0 6 5 10 10 10 6 0 10 -4 10 -10z m162 -2 c-8 -8 -9
-15 -1 -25 8 -9 8 -13 1 -13 -6 0 -14 5 -17 11 -4 6 -13 8 -19 6 -7 -3 -13 1
-13 8 0 7 6 11 13 8 6 -2 15 0 19 6 3 6 11 11 18 11 8 0 8 -3 -1 -12z m-1618
-7 c-2 -2 1 -10 7 -18 9 -9 8 -13 0 -13 -6 0 -11 5 -11 10 0 6 -6 10 -14 10
-8 0 -17 3 -19 8 -3 4 5 7 18 7 13 0 21 -2 19 -4z m409 -12 c4 -16 3 -18 -8
-9 -8 7 -20 9 -27 5 -7 -4 -4 1 6 9 24 20 23 20 29 -5z m799 14 c-10 -4 -10
-8 0 -21 12 -15 11 -16 -4 -4 -9 8 -23 11 -30 7 -7 -4 -4 1 6 9 11 9 25 16 30
15 6 0 5 -3 -2 -6z m523 -3 c-3 -5 -12 -10 -18 -10 -7 0 -6 4 3 10 19 12 23
12 15 0z m-1780 -30 c-3 -5 -11 -10 -16 -10 -6 0 -7 5 -4 10 3 6 11 10 16 10
6 0 7 -4 4 -10z m405 6 c0 -3 -4 -8 -10 -11 -5 -3 -10 -1 -10 4 0 6 5 11 10
11 6 0 10 -2 10 -4z m220 -22 c0 -2 -9 0 -20 6 -11 6 -20 13 -20 16 0 2 9 0
20 -6 11 -6 20 -13 20 -16z m180 22 c0 -3 -4 -8 -10 -11 -5 -3 -10 -1 -10 4 0
6 5 11 10 11 6 0 10 -2 10 -4z m205 -6 c3 -5 2 -10 -4 -10 -5 0 -13 5 -16 10
-3 6 -2 10 4 10 5 0 13 -4 16 -10z m195 6 c0 -3 -4 -8 -10 -11 -5 -3 -10 -1
-10 4 0 6 5 11 10 11 6 0 10 -2 10 -4z m605 -6 c3 -5 1 -10 -4 -10 -6 0 -11 5
-11 10 0 6 2 10 4 10 3 0 8 -4 11 -10z m-1710 -18 c-3 -3 -11 0 -18 7 -9 10
-8 11 6 5 10 -3 15 -9 12 -12z m199 10 c3 -5 -1 -9 -9 -9 -8 0 -12 4 -9 9 3 4
7 8 9 8 2 0 6 -4 9 -8z m201 -10 c-3 -3 -11 0 -18 7 -9 10 -8 11 6 5 10 -3 15
-9 12 -12z m1045 -14 c0 -14 -17 -8 -35 12 -17 19 -17 19 9 7 14 -7 26 -15 26
-19z m-800 1 c0 -14 -16 -11 -29 5 -10 12 -8 13 8 9 12 -3 21 -9 21 -14z m730
6 c-14 -17 -30 -20 -30 -6 0 5 8 12 18 14 9 3 19 5 21 6 2 0 -2 -6 -9 -14z
m-1530 -5 c0 -5 -4 -10 -9 -10 -6 0 -13 5 -16 10 -3 6 1 10 9 10 9 0 16 -4 16
-10z m320 0 c0 -5 -4 -10 -10 -10 -5 0 -10 5 -10 10 0 6 5 10 10 10 6 0 10 -4
10 -10z m75 0 c3 -5 2 -10 -4 -10 -5 0 -13 5 -16 10 -3 6 -2 10 4 10 5 0 13
-4 16 -10z m125 -5 c-7 -9 -15 -13 -19 -10 -3 3 1 10 9 15 21 14 24 12 10 -5z
m200 5 c0 -5 -4 -10 -10 -10 -5 0 -10 5 -10 10 0 6 5 10 10 10 6 0 10 -4 10
-10z m275 -1 c11 -17 -1 -21 -15 -4 -8 9 -8 15 -2 15 6 0 14 -5 17 -11z m125
1 c0 -5 -4 -10 -10 -10 -5 0 -10 5 -10 10 0 6 5 10 10 10 6 0 10 -4 10 -10z
m80 0 c0 -5 -4 -10 -10 -10 -5 0 -10 5 -10 10 0 6 5 10 10 10 6 0 10 -4 10
-10z m725 0 c-3 -5 -10 -10 -16 -10 -5 0 -9 5 -9 10 0 6 7 10 16 10 8 0 12 -4
9 -10z m-1320 -10 c3 -6 -1 -7 -9 -4 -18 7 -21 14 -7 14 6 0 13 -4 16 -10z
m310 0 c-3 -5 -11 -10 -16 -10 -6 0 -7 5 -4 10 3 6 11 10 16 10 6 0 7 -4 4
-10z m400 0 c-3 -5 -11 -10 -16 -10 -6 0 -7 5 -4 10 3 6 11 10 16 10 6 0 7 -4
4 -10z m400 0 c-3 -5 -12 -10 -18 -10 -7 0 -6 4 3 10 19 12 23 12 15 0z
m-1655 -30 c0 -3 -9 -6 -20 -6 -10 0 -17 2 -15 5 3 2 0 10 -6 17 -8 10 -6 11
15 1 14 -7 26 -14 26 -17z m380 21 c0 11 2 11 10 -1 14 -22 12 -26 -10 -26
-10 0 -17 2 -15 5 3 2 -1 11 -8 20 -11 14 -10 14 6 2 14 -11 17 -11 17 0z
m1038 1 c15 11 15 11 5 -3 -7 -9 -11 -18 -9 -20 2 -2 -6 -5 -19 -5 -21 -2 -22
0 -12 17 7 11 14 14 15 9 3 -7 10 -6 20 2z m407 -1 c-8 -14 -97 -62 -103 -56
-3 3 -3 6 -1 8 9 5 104 55 107 56 2 1 1 -3 -3 -8z m-1628 -25 c-8 -16 -14 -21
-19 -13 -12 18 -10 25 10 30 9 3 18 5 19 6 0 0 -4 -10 -10 -23z m609 -3 c-7
-7 -26 7 -26 19 0 6 6 6 15 -2 9 -7 13 -15 11 -17z m407 9 c-6 -14 -25 -12
-30 4 -2 5 5 10 16 10 11 0 17 -5 14 -14z m397 -4 c0 -13 -23 -5 -28 10 -2 7
2 10 12 6 9 -3 16 -11 16 -16z m-1017 -9 c-4 -15 -8 -17 -14 -8 -8 14 -3 29
11 29 4 0 6 -9 3 -21z m402 11 c-3 -5 -11 -10 -16 -10 -6 0 -7 5 -4 10 3 6 11
10 16 10 6 0 7 -4 4 -10z m-1055 -25 c-7 -9 -15 -13 -19 -10 -3 3 1 10 9 15
21 14 24 12 10 -5z m395 -4 c-3 -6 -11 -11 -17 -11 -6 0 -6 6 2 15 14 17 26
13 15 -4z m1015 4 c-14 -17 -30 -20 -30 -6 0 5 8 12 18 14 9 3 19 5 21 6 2 0
-2 -6 -9 -14z m-1276 -4 c-2 -2 2 -11 9 -20 10 -14 10 -14 -4 -3 -9 7 -23 10
-31 7 -9 -4 -15 0 -15 8 0 9 9 14 23 13 12 0 20 -3 18 -5z m63 -6 c0 -8 -4
-15 -8 -15 -11 0 -20 16 -12 24 11 11 20 7 20 -9z m323 5 c0 -5 -4 -10 -9 -10
-6 0 -13 5 -16 10 -3 6 1 10 9 10 9 0 16 -4 16 -10z m80 0 c0 -5 -4 -10 -10
-10 -5 0 -10 5 -10 10 0 6 5 10 10 10 6 0 10 -4 10 -10z m195 0 c-3 -5 -12
-10 -18 -10 -7 0 -6 4 3 10 19 12 23 12 15 0z m125 0 c0 -5 -4 -10 -10 -10 -5
0 -10 5 -10 10 0 6 5 10 10 10 6 0 10 -4 10 -10z m80 0 c0 -5 -4 -10 -10 -10
-5 0 -10 5 -10 10 0 6 5 10 10 10 6 0 10 -4 10 -10z m125 -8 c-3 -3 -11 0 -18
7 -9 10 -8 11 6 5 10 -3 15 -9 12 -12z m70 8 c-3 -5 -12 -10 -18 -10 -7 0 -6
4 3 10 19 12 23 12 15 0z m125 0 c0 -5 -4 -10 -10 -10 -5 0 -10 5 -10 10 0 6
5 10 10 10 6 0 10 -4 10 -10z m200 0 c0 -5 -2 -10 -4 -10 -3 0 -8 5 -11 10 -3
6 -1 10 4 10 6 0 11 -4 11 -10z m80 0 c0 -5 -5 -10 -11 -10 -5 0 -7 5 -4 10 3
6 8 10 11 10 2 0 4 -4 4 -10z m120 0 c0 -5 -4 -10 -10 -10 -5 0 -10 5 -10 10
0 6 5 10 10 10 6 0 10 -4 10 -10z m200 0 c0 -5 -2 -10 -4 -10 -3 0 -8 5 -11
10 -3 6 -1 10 4 10 6 0 11 -4 11 -10z m-1565 -20 c3 -5 2 -10 -4 -10 -5 0 -13
5 -16 10 -3 6 -2 10 4 10 5 0 13 -4 16 -10z m405 0 c0 -5 -5 -10 -11 -10 -5 0
-7 5 -4 10 3 6 8 10 11 10 2 0 4 -4 4 -10z m205 0 c-3 -5 -12 -10 -18 -10 -7
0 -6 4 3 10 19 12 23 12 15 0z m395 -4 c-7 -7 -13 -7 -20 0 -6 6 -3 10 10 10
13 0 16 -4 10 -10z m195 4 c3 -5 1 -10 -4 -10 -6 0 -11 5 -11 10 0 6 2 10 4
10 3 0 8 -4 11 -10z m-1095 -10 c0 -5 -5 -10 -11 -10 -5 0 -7 5 -4 10 3 6 8
10 11 10 2 0 4 -4 4 -10z m200 -5 c11 -13 10 -14 -4 -9 -9 3 -16 10 -16 15 0
13 6 11 20 -6z m210 11 c0 -3 -4 -8 -10 -11 -5 -3 -10 -1 -10 4 0 6 5 11 10
11 6 0 10 -2 10 -4z m185 -6 c3 -5 1 -10 -4 -10 -6 0 -11 5 -11 10 0 6 2 10 4
10 3 0 8 -4 11 -10z m215 6 c0 -3 -4 -8 -10 -11 -5 -3 -10 -1 -10 4 0 6 5 11
10 11 6 0 10 -2 10 -4z m185 -6 c3 -5 2 -10 -4 -10 -5 0 -13 5 -16 10 -3 6 -2
10 4 10 5 0 13 -4 16 -10z m215 6 c0 -3 -4 -8 -10 -11 -5 -3 -10 -1 -10 4 0 6
5 11 10 11 6 0 10 -2 10 -4z m185 -6 c3 -6 -1 -7 -9 -4 -18 7 -21 14 -7 14 6
0 13 -4 16 -10z m-1785 -4 c0 -2 -7 -7 -16 -10 -8 -3 -12 -2 -9 4 6 10 25 14
25 6z m180 -6 c0 -5 -2 -10 -4 -10 -3 0 -8 5 -11 10 -3 6 -1 10 4 10 6 0 11
-4 11 -10z m468 -4 c-14 -10 -15 -15 -5 -26 9 -10 7 -9 -10 1 -20 12 -20 14
-5 26 9 7 22 12 27 12 6 0 2 -5 -7 -13z m400 0 c-14 -10 -15 -15 -5 -26 10
-12 9 -12 -5 -1 -9 7 -22 10 -28 6 -5 -3 -10 -4 -10 -1 0 5 51 35 60 35 3 0
-3 -5 -12 -13z m400 0 c-14 -10 -15 -15 -5 -26 10 -12 9 -12 -5 -1 -9 7 -22
10 -28 6 -5 -3 -10 -4 -10 -1 0 5 51 35 60 35 3 0 -3 -5 -12 -13z m94 -16 c-4
-3 -10 -9 -13 -13 -3 -5 -8 2 -11 16 -4 22 -3 24 13 14 10 -6 15 -14 11 -17z
m298 10 c-10 -7 -11 -10 -2 -10 6 0 12 -5 12 -10 0 -6 -8 -5 -19 2 -18 11 -18
13 -3 24 9 7 19 10 22 8 2 -3 -2 -9 -10 -14z m-1483 -13 c3 -6 1 -7 -6 -3 -6
4 -17 3 -24 -3 -9 -7 -13 -5 -13 8 0 19 31 18 43 -2z m389 7 c10 -8 13 -13 6
-9 -7 4 -21 1 -30 -7 -15 -12 -16 -11 -4 4 10 13 10 17 0 21 -7 3 -8 6 -2 6 5
1 19 -6 30 -15z m402 2 c-2 -1 -11 -7 -20 -14 -14 -11 -16 -10 -11 7 3 12 11
17 19 14 8 -3 14 -6 12 -7z m-1058 -16 c0 -5 -4 -10 -9 -10 -6 0 -13 5 -16 10
-3 6 1 10 9 10 9 0 16 -4 16 -10z m400 0 c0 -5 -4 -10 -10 -10 -5 0 -10 5 -10
10 0 6 5 10 10 10 6 0 10 -4 10 -10z m400 0 c0 -5 -4 -10 -10 -10 -5 0 -10 5
-10 10 0 6 5 10 10 10 6 0 10 -4 10 -10z m400 0 c0 -5 -4 -10 -10 -10 -5 0
-10 5 -10 10 0 6 5 10 10 10 6 0 10 -4 10 -10z m400 0 c0 -5 -4 -10 -10 -10
-5 0 -10 5 -10 10 0 6 5 10 10 10 6 0 10 -4 10 -10z m-1760 -4 c0 -3 -4 -8
-10 -11 -5 -3 -10 -1 -10 4 0 6 5 11 10 11 6 0 10 -2 10 -4z m260 0 c0 -3 -4
-8 -10 -11 -5 -3 -10 -1 -10 4 0 6 5 11 10 11 6 0 10 -2 10 -4z m55 -6 c3 -5
1 -10 -4 -10 -6 0 -11 5 -11 10 0 6 2 10 4 10 3 0 8 -4 11 -10z m345 6 c0 -3
-4 -8 -10 -11 -5 -3 -10 -1 -10 4 0 6 5 11 10 11 6 0 10 -2 10 -4z m200 -6 c0
-5 -2 -10 -4 -10 -3 0 -8 5 -11 10 -3 6 -1 10 4 10 6 0 11 -4 11 -10z m200 6
c0 -3 -4 -8 -10 -11 -5 -3 -10 -1 -10 4 0 6 5 11 10 11 6 0 10 -2 10 -4z m200
-6 c0 -5 -2 -10 -4 -10 -3 0 -8 5 -11 10 -3 6 -1 10 4 10 6 0 11 -4 11 -10z
m405 1 c3 -5 1 -12 -4 -15 -5 -3 -11 1 -15 9 -6 16 9 21 19 6z m-1057 -27 c2
-1 -5 -5 -15 -8 -9 -4 -14 -4 -10 0 4 4 1 14 -6 23 -11 14 -10 15 8 1 11 -8
21 -15 23 -16z m557 16 c-3 -5 -12 -10 -18 -10 -7 0 -6 4 3 10 19 12 23 12 15
0z m400 0 c-3 -5 -12 -10 -18 -10 -7 0 -6 4 3 10 19 12 23 12 15 0z m-1465
-15 c0 -2 -6 -5 -13 -8 -8 -3 -14 1 -14 8 0 7 6 11 14 8 7 -3 13 -6 13 -8z
m395 -3 c-3 -3 -11 0 -18 7 -9 10 -8 11 6 5 10 -3 15 -9 12 -12z m930 8 c-3
-5 -12 -10 -18 -10 -7 0 -6 4 3 10 19 12 23 12 15 0z m402 -4 c0 -8 -6 -12
-15 -9 -11 5 -11 7 0 14 7 5 13 9 14 9 0 0 1 -6 1 -14z m-1617 0 c0 -2 -7 -7
-16 -10 -8 -3 -12 -2 -9 4 6 10 25 14 25 6z m690 0 c0 -2 -7 -7 -16 -10 -8 -3
-12 -2 -9 4 6 10 25 14 25 6z m384 -11 c-10 -8 -23 -15 -28 -15 -6 0 -1 7 10
15 10 8 23 15 28 15 6 0 1 -7 -10 -15z m431 5 c3 -6 -1 -7 -9 -4 -18 7 -21 14
-7 14 6 0 13 -4 16 -10z m-510 -10 c3 -5 2 -10 -4 -10 -5 0 -13 5 -16 10 -3 6
-2 10 4 10 5 0 13 -4 16 -10z m-925 -22 c0 -6 -6 -8 -14 -5 -8 3 -17 1 -20 -6
-2 -7 -5 -2 -5 10 -1 16 3 20 19 16 11 -3 20 -10 20 -15z m180 -24 c0 -2 -9 0
-20 6 -14 8 -27 8 -42 0 -19 -9 -20 -8 -6 2 15 11 15 13 0 25 -9 8 2 5 26 -7
23 -11 42 -23 42 -26z m220 26 c0 -4 -9 -10 -20 -13 -15 -4 -20 0 -20 13 0 13
5 17 20 13 11 -3 20 -9 20 -13z m176 1 c0 -12 -6 -17 -18 -13 -10 2 -18 9 -18
14 0 5 4 7 9 3 5 -3 12 -1 16 5 9 14 11 13 11 -9z m224 3 c0 -2 -8 -8 -18 -13
-14 -7 -18 -6 -18 8 0 12 6 17 18 13 10 -2 18 -6 18 -8z m400 -4 c0 -4 -8 -10
-18 -12 -12 -3 -18 1 -18 12 0 11 6 15 18 12 10 -2 18 -8 18 -12z m180 1 c0
-14 -5 -18 -20 -14 -11 3 -20 10 -20 15 0 6 7 8 15 4 8 -3 15 -1 15 4 0 6 2
10 5 10 3 0 5 -9 5 -19z m213 6 c4 3 7 2 7 -4 0 -9 -21 -23 -34 -23 -1 0 -2 9
-2 19 0 14 4 17 12 11 6 -6 14 -7 17 -3z m-1719 -12 c3 -8 1 -15 -4 -15 -6 0
-10 7 -10 15 0 8 2 15 4 15 2 0 6 -7 10 -15z m409 1 c4 -10 1 -13 -9 -9 -15 6
-19 23 -5 23 5 0 11 -7 14 -14z m397 4 c0 -5 -4 -10 -10 -10 -5 0 -10 5 -10
10 0 6 5 10 10 10 6 0 10 -4 10 -10z m280 0 c0 -5 -4 -10 -10 -10 -5 0 -10 5
-10 10 0 6 5 10 10 10 6 0 10 -4 10 -10z m120 -6 c0 -8 -4 -12 -10 -9 -5 3
-10 10 -10 16 0 5 5 9 10 9 6 0 10 -7 10 -16z m400 0 c0 -8 -4 -12 -10 -9 -5
3 -10 10 -10 16 0 5 5 9 10 9 6 0 10 -7 10 -16z m-1765 -14 c3 -5 1 -10 -4
-10 -6 0 -11 5 -11 10 0 6 2 10 4 10 3 0 8 -4 11 -10z m725 -5 c11 -13 10 -14
-4 -9 -9 3 -16 10 -16 15 0 13 6 11 20 -6z m85 5 c-3 -5 -11 -10 -16 -10 -6 0
-7 5 -4 10 3 6 11 10 16 10 6 0 7 -4 4 -10z m710 0 c3 -6 -1 -7 -9 -4 -18 7
-21 14 -7 14 6 0 13 -4 16 -10z m95 6 c0 -3 -4 -8 -10 -11 -5 -3 -10 -1 -10 4
0 6 5 11 10 11 6 0 10 -2 10 -4z m308 -21 c-3 -3 -9 2 -12 12 -6 14 -5 15 5 6
7 -7 10 -15 7 -18z m-1717 -3 c-7 -2 -18 1 -23 6 -8 8 -4 9 13 5 13 -4 18 -8
10 -11z m404 0 c-3 -3 -11 0 -18 7 -9 10 -8 11 6 5 10 -3 15 -9 12 -12z m295
3 c0 -2 -6 -5 -13 -8 -8 -3 -14 1 -14 8 0 7 6 11 14 8 7 -3 13 -6 13 -8z m111
-3 c-7 -2 -18 1 -23 6 -8 8 -4 9 13 5 13 -4 18 -8 10 -11z m114 8 c3 -6 -1 -7
-9 -4 -18 7 -21 14 -7 14 6 0 13 -4 16 -10z m75 6 c0 -2 -7 -7 -16 -10 -8 -3
-12 -2 -9 4 6 10 25 14 25 6z m95 -14 c-3 -3 -11 0 -18 7 -9 10 -8 11 6 5 10
-3 15 -9 12 -12z m130 8 c-3 -5 -12 -10 -18 -10 -7 0 -6 4 3 10 19 12 23 12
15 0z m400 0 c-3 -5 -12 -10 -18 -10 -7 0 -6 4 3 10 19 12 23 12 15 0z m-270
-18 c-3 -3 -11 0 -18 7 -9 10 -8 11 6 5 10 -3 15 -9 12 -12z m160 8 c3 -6 -1
-7 -9 -4 -18 7 -21 14 -7 14 6 0 13 -4 16 -10z m-1355 -4 c0 -2 -7 -7 -16 -10
-8 -3 -12 -2 -9 4 6 10 25 14 25 6z m400 0 c0 -2 -7 -7 -16 -10 -8 -3 -12 -2
-9 4 6 10 25 14 25 6z m900 -11 c0 -8 -4 -15 -10 -15 -5 0 -7 7 -4 15 4 8 8
15 10 15 2 0 4 -7 4 -15z m-1596 -4 c3 -5 -1 -11 -9 -15 -9 -3 -15 0 -15 9 0
16 16 20 24 6z m591 -1 c3 -5 1 -10 -4 -10 -6 0 -11 5 -11 10 0 6 2 10 4 10 3
0 8 -4 11 -10z m205 0 c0 -5 -5 -10 -11 -10 -5 0 -7 5 -4 10 3 6 8 10 11 10 2
0 4 -4 4 -10z m195 0 c3 -5 1 -10 -4 -10 -6 0 -11 5 -11 10 0 6 2 10 4 10 3 0
8 -4 11 -10z m205 0 c0 -5 -5 -10 -11 -10 -5 0 -7 5 -4 10 3 6 8 10 11 10 2 0
4 -4 4 -10z m-1243 -25 c1 0 -8 -7 -20 -14 -20 -13 -21 -13 -8 2 9 11 10 17 2
17 -6 0 -11 5 -11 11 0 8 6 7 18 -2 9 -7 18 -14 19 -14z m138 15 c-3 -5 -11
-10 -16 -10 -6 0 -7 5 -4 10 3 6 11 10 16 10 6 0 7 -4 4 -10z m165 6 c0 -3 -4
-8 -10 -11 -5 -3 -10 -1 -10 4 0 6 5 11 10 11 6 0 10 -2 10 -4z m102 -10 c10
6 11 4 0 -7 -10 -11 -15 -10 -30 6 -15 17 -15 18 0 6 9 -7 23 -9 30 -5z m135
-1 c0 -10 -5 -11 -19 -4 -10 5 -18 11 -18 12 0 2 8 3 18 4 10 1 19 -5 19 -12z
m154 2 c-6 -8 -8 -17 -4 -21 4 -4 0 -4 -10 0 -17 6 -17 7 0 20 23 17 28 18 14
1z m111 -2 c7 4 2 -2 -12 -13 -14 -12 -27 -18 -30 -15 -3 3 1 8 8 10 10 4 10
8 0 21 -12 15 -11 16 4 4 9 -8 23 -11 30 -7z m138 5 c0 -5 -7 -10 -16 -10 -8
0 -12 5 -9 10 3 6 10 10 16 10 5 0 9 -4 9 -10z m152 -2 c-9 -9 -7 -15 6 -25
12 -10 7 -9 -15 2 -33 15 -46 29 -19 19 8 -3 17 -1 21 5 3 6 9 11 13 11 3 0 1
-5 -6 -12z m106 -14 c2 -1 -5 -5 -15 -8 -9 -4 -14 -4 -10 0 4 4 1 14 -6 23
-11 14 -10 15 8 1 11 -8 21 -15 23 -16z m142 16 c0 -5 -4 -10 -10 -10 -5 0
-10 5 -10 10 0 6 5 10 10 10 6 0 10 -4 10 -10z m150 -5 c-10 -12 -10 -15 0
-15 8 0 11 -2 8 -5 -3 -3 -13 -3 -22 1 -15 6 -15 7 1 20 24 18 28 17 13 -1z
m95 1 c12 -12 12 -15 -2 -21 -10 -3 -14 -3 -10 1 4 4 2 13 -4 21 -15 17 -1 17
16 -1z m155 4 c0 -5 -4 -10 -10 -10 -5 0 -10 5 -10 10 0 6 5 10 10 10 6 0 10
-4 10 -10z m150 -10 c-10 -7 -11 -10 -2 -10 6 0 12 -5 12 -10 0 -6 -8 -5 -19
2 -18 11 -18 13 -3 24 9 7 19 10 22 8 2 -3 -2 -9 -10 -14z m-1790 -10 c0 -5
-4 -10 -10 -10 -5 0 -10 5 -10 10 0 6 5 10 10 10 6 0 10 -4 10 -10z m174 4 c9
-3 16 -11 16 -16 0 -6 -6 -5 -15 2 -8 6 -20 8 -26 4 -8 -4 -9 -3 -5 4 8 14 9
14 30 6z m-44 -19 c0 -8 -4 -15 -10 -15 -5 0 -7 7 -4 15 4 8 8 15 10 15 2 0 4
-7 4 -15z m410 0 c-7 -9 -15 -13 -19 -10 -3 3 1 10 9 15 21 14 24 12 10 -5z
m-200 -5 c0 -5 -2 -10 -4 -10 -3 0 -8 5 -11 10 -3 6 -1 10 4 10 6 0 11 -4 11
-10z m405 0 c3 -5 1 -10 -4 -10 -6 0 -11 5 -11 10 0 6 2 10 4 10 3 0 8 -4 11
-10z m185 0 c0 -5 -5 -10 -11 -10 -5 0 -7 5 -4 10 3 6 8 10 11 10 2 0 4 -4 4
-10z m215 0 c3 -5 1 -10 -4 -10 -6 0 -11 5 -11 10 0 6 2 10 4 10 3 0 8 -4 11
-10z m190 0 c-3 -5 -11 -10 -16 -10 -6 0 -7 5 -4 10 3 6 11 10 16 10 6 0 7 -4
4 -10z m210 0 c3 -5 1 -10 -4 -10 -6 0 -11 5 -11 10 0 6 2 10 4 10 3 0 8 -4
11 -10z m190 0 c-3 -5 -12 -10 -18 -10 -7 0 -6 4 3 10 19 12 23 12 15 0z
m-1095 -10 c0 -5 -4 -10 -10 -10 -5 0 -10 5 -10 10 0 6 5 10 10 10 6 0 10 -4
10 -10z m204 2 c2 -4 -4 -8 -14 -8 -10 0 -16 4 -14 8 3 4 9 8 14 8 5 0 11 -4
14 -8z m196 4 c0 -3 -4 -8 -10 -11 -5 -3 -10 -1 -10 4 0 6 5 11 10 11 6 0 10
-2 10 -4z m400 0 c0 -3 -4 -8 -10 -11 -5 -3 -10 -1 -10 4 0 6 5 11 10 11 6 0
10 -2 10 -4z m37 -33 c-3 -10 -5 -4 -5 12 0 17 2 24 5 18 2 -7 2 -21 0 -30z
m-1077 7 c0 -4 -8 -10 -18 -12 -12 -3 -18 1 -18 12 0 11 6 15 18 12 10 -2 18
-8 18 -12z m64 14 c20 -8 21 -24 2 -24 -8 0 -16 7 -20 15 -6 17 -4 18 18 9z
m-270 -19 c-4 -8 -8 -15 -10 -15 -2 0 -4 7 -4 15 0 8 4 15 10 15 5 0 7 -7 4
-15z m606 5 c0 -5 -4 -10 -10 -10 -5 0 -10 5 -10 10 0 6 5 10 10 10 6 0 10 -4
10 -10z m80 0 c0 -5 -4 -10 -10 -10 -5 0 -10 5 -10 10 0 6 5 10 10 10 6 0 10
-4 10 -10z m195 0 c3 -6 -1 -7 -9 -4 -18 7 -21 14 -7 14 6 0 13 -4 16 -10z
m125 0 c0 -5 -4 -10 -10 -10 -5 0 -10 5 -10 10 0 6 5 10 10 10 6 0 10 -4 10
-10z m85 0 c3 -5 -1 -10 -9 -10 -9 0 -16 5 -16 10 0 6 4 10 9 10 6 0 13 -4 16
-10z m115 0 c0 -5 -5 -10 -11 -10 -5 0 -7 5 -4 10 3 6 8 10 11 10 2 0 4 -4 4
-10z m200 0 c0 -5 -4 -10 -10 -10 -5 0 -10 5 -10 10 0 6 5 10 10 10 6 0 10 -4
10 -10z m104 -11 c20 -12 41 -17 48 -13 9 6 9 3 -1 -9 -13 -16 -15 -16 -32 -1
-9 8 -25 17 -35 18 -10 2 -20 8 -22 14 -5 17 2 15 42 -9z m96 11 c0 -5 -5 -10
-11 -10 -5 0 -7 5 -4 10 3 6 8 10 11 10 2 0 4 -4 4 -10z m-1060 -20 c30 16 33
9 5 -12 -22 -16 -23 -16 -41 5 -15 17 -15 19 -2 9 13 -10 22 -11 38 -2z m-865
-10 c3 -5 2 -10 -4 -10 -5 0 -13 5 -16 10 -3 6 -2 10 4 10 5 0 13 -4 16 -10z
m465 2 c0 -5 -12 -14 -27 -21 l-28 -11 24 20 c26 22 31 24 31 12z m197 -8 c2
-5 -5 -10 -16 -10 -11 0 -17 5 -14 14 6 14 25 12 30 -4z m398 5 c11 -17 -1
-21 -15 -4 -8 9 -8 15 -2 15 6 0 14 -5 17 -11z m205 -4 c-7 -9 -15 -13 -17
-11 -7 7 7 26 19 26 6 0 6 -6 -2 -15z m214 6 c-2 -2 2 -11 9 -20 10 -14 10
-14 -4 -4 -9 7 -18 11 -21 8 -3 -3 -10 1 -17 9 -10 11 -7 14 13 12 13 0 22 -3
20 -5z m196 0 c0 -5 -7 -11 -15 -15 -15 -5 -20 5 -8 17 9 10 23 9 23 -2z
m-755 -31 c3 -5 1 -10 -4 -10 -6 0 -11 5 -11 10 0 6 2 10 4 10 3 0 8 -4 11
-10z m85 -5 c-7 -8 -17 -15 -22 -15 -6 0 -5 7 2 15 7 8 17 15 22 15 6 0 5 -7
-2 -15z m410 11 c0 -3 -4 -8 -10 -11 -5 -3 -10 -1 -10 4 0 6 5 11 10 11 6 0
10 -2 10 -4z m305 -6 c3 -6 -1 -7 -9 -4 -18 7 -21 14 -7 14 6 0 13 -4 16 -10z
m-1320 -10 c-3 -5 -11 -10 -16 -10 -6 0 -7 5 -4 10 3 6 11 10 16 10 6 0 7 -4
4 -10z m325 0 c0 -5 -4 -10 -10 -10 -5 0 -10 5 -10 10 0 6 5 10 10 10 6 0 10
-4 10 -10z m80 1 c0 -5 -9 -11 -21 -14 -16 -4 -18 -3 -8 9 13 16 29 19 29 5z
m320 -1 c0 -5 -4 -10 -10 -10 -5 0 -10 5 -10 10 0 6 5 10 10 10 6 0 10 -4 10
-10z m85 0 c3 -5 -1 -10 -9 -10 -9 0 -16 5 -16 10 0 6 4 10 9 10 6 0 13 -4 16
-10z m315 0 c0 -5 -4 -10 -10 -10 -5 0 -10 5 -10 10 0 6 5 10 10 10 6 0 10 -4
10 -10z m80 0 c0 -5 -4 -10 -10 -10 -5 0 -10 5 -10 10 0 6 5 10 10 10 6 0 10
-4 10 -10z m325 0 c3 -5 2 -10 -4 -10 -5 0 -13 5 -16 10 -3 6 -2 10 4 10 5 0
13 -4 16 -10z m-1175 -20 c0 -5 -2 -10 -4 -10 -3 0 -8 5 -11 10 -3 6 -1 10 4
10 6 0 11 -4 11 -10z m615 0 c3 -6 -1 -7 -9 -4 -18 7 -21 14 -7 14 6 0 13 -4
16 -10z m400 0 c3 -6 -1 -7 -9 -4 -18 7 -21 14 -7 14 6 0 13 -4 16 -10z m-910
-10 c3 -5 1 -10 -4 -10 -6 0 -11 5 -11 10 0 6 2 10 4 10 3 0 8 -4 11 -10z
m205 0 c0 -5 -5 -10 -11 -10 -5 0 -7 5 -4 10 3 6 8 10 11 10 2 0 4 -4 4 -10z
m195 0 c3 -5 1 -10 -4 -10 -6 0 -11 5 -11 10 0 6 2 10 4 10 3 0 8 -4 11 -10z
m610 0 c-3 -5 -11 -10 -16 -10 -6 0 -7 5 -4 10 3 6 11 10 16 10 6 0 7 -4 4
-10z m-1352 -19 c-3 -11 -11 -17 -19 -14 -10 4 -11 8 -1 19 17 19 26 17 20 -5z
m77 9 c0 -5 -2 -10 -4 -10 -3 0 -8 5 -11 10 -3 6 -1 10 4 10 6 0 11 -4 11 -10z
m432 -5 c7 4 2 -3 -12 -14 -14 -11 -29 -21 -35 -20 -5 0 -2 4 8 10 15 9 16 13
5 27 -12 15 -11 16 4 4 9 -8 23 -11 30 -7z m290 3 c-9 -9 -7 -15 6 -25 15 -11
13 -12 -10 -2 -25 11 -26 13 -10 25 21 17 30 18 14 2z m110 -3 c7 4 2 -3 -12
-14 -14 -11 -29 -21 -35 -20 -5 0 -2 4 8 10 15 9 16 13 5 27 -12 15 -11 16 4
4 9 -8 23 -11 30 -7z m289 1 c-9 -11 -9 -15 1 -19 7 -3 8 -6 2 -6 -5 -1 -19 6
-30 14 -14 11 -15 14 -3 9 10 -3 20 -1 24 5 3 6 9 11 12 11 3 0 0 -6 -6 -14z
m104 -6 c8 0 16 -4 19 -9 4 -5 -3 -7 -13 -4 -13 3 -21 -1 -24 -14 -2 -10 -4
-2 -4 17 0 19 2 29 4 23 3 -7 11 -13 18 -13z m-1190 0 c-3 -5 -12 -10 -18 -10
-7 0 -6 4 3 10 19 12 23 12 15 0z m282 -4 c0 -8 -6 -12 -15 -9 -11 5 -11 7 0
14 7 5 13 9 14 9 0 0 1 -6 1 -14z m-147 -16 c0 -5 -4 -10 -10 -10 -5 0 -10 5
-10 10 0 6 5 10 10 10 6 0 10 -4 10 -10z m100 -5 c-7 -9 -15 -13 -19 -10 -3 3
1 10 9 15 21 14 24 12 10 -5z m300 5 c0 -5 -4 -10 -10 -10 -5 0 -10 5 -10 10
0 6 5 10 10 10 6 0 10 -4 10 -10z m400 0 c0 -5 -4 -10 -10 -10 -5 0 -10 5 -10
10 0 6 5 10 10 10 6 0 10 -4 10 -10z m-305 -10 c-3 -5 -11 -10 -16 -10 -6 0
-7 5 -4 10 3 6 11 10 16 10 6 0 7 -4 4 -10z m210 0 c3 -5 1 -10 -4 -10 -6 0
-11 5 -11 10 0 6 2 10 4 10 3 0 8 -4 11 -10z m190 0 c-3 -5 -11 -10 -16 -10
-6 0 -7 5 -4 10 3 6 11 10 16 10 6 0 7 -4 4 -10z m-1095 -10 c0 -5 -4 -10 -10
-10 -5 0 -10 5 -10 10 0 6 5 10 10 10 6 0 10 -4 10 -10z m400 0 c0 -5 -4 -10
-10 -10 -5 0 -10 5 -10 10 0 6 5 10 10 10 6 0 10 -4 10 -10z m400 0 c0 -5 -4
-10 -10 -10 -5 0 -10 5 -10 10 0 6 5 10 10 10 6 0 10 -4 10 -10z m400 6 c0 -3
-4 -8 -10 -11 -5 -3 -10 -1 -10 4 0 6 5 11 10 11 6 0 10 -2 10 -4z m-1056 -18
c-3 -4 -9 -8 -15 -8 -5 0 -9 4 -9 8 0 5 7 9 15 9 8 0 12 -4 9 -9z m391 2 c3
-5 1 -10 -4 -10 -6 0 -11 5 -11 10 0 6 2 10 4 10 3 0 8 -4 11 -10z m410 -8
c-3 -3 -11 0 -18 7 -9 10 -8 11 6 5 10 -3 15 -9 12 -12z m110 0 c-3 -3 -11 0
-18 7 -9 10 -8 11 6 5 10 -3 15 -9 12 -12z m-1020 -10 c-3 -3 -11 0 -18 7 -9
10 -8 11 6 5 10 -3 15 -9 12 -12z m335 14 c0 -2 -7 -7 -16 -10 -8 -3 -12 -2
-9 4 6 10 25 14 25 6z m790 -6 c0 -5 -5 -10 -11 -10 -5 0 -7 5 -4 10 3 6 8 10
11 10 2 0 4 -4 4 -10z m-1275 -10 c3 -5 2 -10 -4 -10 -5 0 -13 5 -16 10 -3 6
-2 10 4 10 5 0 13 -4 16 -10z m206 -9 c-11 -7 -9 -11 5 -20 11 -6 16 -11 11
-11 -4 0 -16 5 -26 12 -18 11 -18 13 -3 24 9 7 19 10 22 8 2 -3 -2 -9 -9 -13z
m199 9 c0 -5 -2 -10 -4 -10 -3 0 -8 5 -11 10 -3 6 -1 10 4 10 6 0 11 -4 11
-10z m840 -27 c0 -2 -5 -1 -10 2 -6 4 -19 1 -28 -7 -15 -12 -16 -11 -3 5 9 11
10 17 2 17 -6 0 -11 5 -11 10 0 6 11 3 25 -6 14 -9 25 -18 25 -21z m-1205 17
c-3 -5 -12 -10 -18 -10 -7 0 -6 4 3 10 19 12 23 12 15 0z m275 -11 c0 -5 -4
-9 -10 -9 -5 0 -10 7 -10 16 0 8 5 12 10 9 6 -3 10 -10 10 -16z m404 6 c-4 -8
-10 -15 -15 -15 -5 0 -9 7 -9 15 0 8 7 15 15 15 9 0 12 -6 9 -15z m103 7 c9
-6 7 -11 -7 -20 -12 -7 -20 -8 -20 -2 0 5 6 10 13 10 8 0 7 4 -3 10 -8 5 -10
10 -5 10 6 0 15 -4 22 -8z m190 -14 c2 -16 0 -16 -23 -2 -29 20 -29 19 -1 19
15 0 24 -6 24 -17z m103 7 c0 -8 -5 -15 -11 -15 -5 0 -8 4 -5 9 4 5 0 12 -6
14 -8 3 -6 6 5 6 9 1 17 -6 17 -14z m304 -7 c2 -10 0 -18 -5 -18 -5 0 -9 5 -9
10 0 6 -6 10 -14 10 -8 0 -17 3 -19 8 -3 4 5 7 18 7 14 0 26 -7 29 -17z
m-1000 -2 c-10 -8 -21 -12 -24 -10 -5 6 21 24 34 24 6 0 1 -6 -10 -14z m192
-1 c10 -8 15 -14 9 -14 -5 0 -19 6 -29 14 -11 8 -15 15 -10 15 6 0 19 -7 30
-15z m-541 -15 c3 -5 1 -10 -4 -10 -6 0 -11 5 -11 10 0 6 2 10 4 10 3 0 8 -4
11 -10z m400 0 c3 -5 1 -10 -4 -10 -6 0 -11 5 -11 10 0 6 2 10 4 10 3 0 8 -4
11 -10z m95 6 c0 -2 -7 -7 -16 -10 -8 -3 -12 -2 -9 4 6 10 25 14 25 6z m390
-6 c0 -5 -5 -10 -11 -10 -5 0 -7 5 -4 10 3 6 8 10 11 10 2 0 4 -4 4 -10z m405
0 c-3 -5 -11 -10 -16 -10 -6 0 -7 5 -4 10 3 6 11 10 16 10 6 0 7 -4 4 -10z
m116 -3 c-6 -8 -8 -17 -4 -21 4 -4 0 -4 -10 0 -17 6 -17 7 0 20 23 17 28 18
14 1z m-1208 -11 c4 -10 0 -12 -15 -8 -15 4 -17 7 -6 13 17 11 15 11 21 -5z
m800 0 c4 -10 1 -13 -8 -9 -8 3 -12 9 -9 14 7 12 11 11 17 -5z m112 4 c-3 -5
-12 -10 -18 -10 -7 0 -6 4 3 10 19 12 23 12 15 0z m-1215 -4 c0 -2 -7 -7 -16
-10 -8 -3 -12 -2 -9 4 6 10 25 14 25 6z m1350 -11 c0 -2 -6 -5 -13 -8 -8 -3
-14 1 -14 8 0 7 6 11 14 8 7 -3 13 -6 13 -8z m-1310 -10 c11 -13 10 -14 -4 -9
-9 3 -16 10 -16 15 0 13 6 11 20 -6z m126 -1 c18 -14 18 -14 -6 -3 -31 14 -36
19 -24 19 6 0 19 -7 30 -16z m784 12 c0 -2 -7 -7 -16 -10 -8 -3 -12 -2 -9 4 6
10 25 14 25 6z m-600 -21 c0 -12 -19 -12 -23 0 -4 9 -1 12 9 8 7 -3 14 -7 14
-8z m95 5 c3 -5 1 -10 -4 -10 -6 0 -11 5 -11 10 0 6 2 10 4 10 3 0 8 -4 11
-10z m205 0 c0 -5 -5 -10 -11 -10 -5 0 -7 5 -4 10 3 6 8 10 11 10 2 0 4 -4 4
-10z m100 -5 c-7 -9 -15 -13 -19 -10 -3 3 1 10 9 15 21 14 24 12 10 -5z m300
5 c0 -5 -5 -10 -11 -10 -5 0 -7 5 -4 10 3 6 8 10 11 10 2 0 4 -4 4 -10z m100
-5 c0 -2 -6 -5 -13 -8 -8 -3 -14 1 -14 8 0 7 6 11 14 8 7 -3 13 -6 13 -8z
m105 5 c3 -5 2 -10 -4 -10 -5 0 -13 5 -16 10 -3 6 -2 10 4 10 5 0 13 -4 16
-10z m205 6 c0 -3 -4 -8 -10 -11 -5 -3 -10 -1 -10 4 0 6 5 11 10 11 6 0 10 -2
10 -4z m-1354 -26 c0 -24 -6 -25 -32 -5 -16 13 -16 14 -1 9 9 -3 17 -1 17 5 0
6 4 11 8 11 4 0 8 -9 8 -20z m400 0 c0 -11 -1 -20 -2 -20 -1 0 -9 3 -18 6 -12
5 -13 9 -3 20 17 19 23 17 23 -6z m104 -4 c0 -2 -8 -6 -18 -8 -12 -4 -18 1
-18 13 0 14 4 15 18 8 10 -5 18 -11 18 -13z m296 4 c0 -13 -5 -19 -14 -15 -7
3 -16 5 -18 5 -2 0 -4 5 -4 11 0 5 4 8 9 4 5 -3 12 -1 16 5 9 14 11 13 11 -10z
m84 10 c0 -5 -2 -10 -4 -10 -3 0 -8 5 -11 10 -3 6 -1 10 4 10 6 0 11 -4 11
-10z m316 -9 c0 -13 -6 -17 -20 -13 -18 5 -18 6 -1 19 11 7 19 13 20 13 0 0 1
-8 1 -19z m97 -2 c5 -3 2 -9 -7 -12 -12 -5 -16 0 -16 15 0 12 3 17 8 12 4 -5
11 -12 15 -15z m-1198 1 c3 -5 1 -10 -4 -10 -6 0 -11 5 -11 10 0 6 2 10 4 10
3 0 8 -4 11 -10z m818 -4 c4 -10 1 -13 -8 -9 -8 3 -12 9 -9 14 7 12 11 11 17
-5z m-983 -20 c0 -3 -4 -8 -10 -11 -5 -3 -10 -1 -10 4 0 6 5 11 10 11 6 0 10
-2 10 -4z m124 -21 c11 -8 18 -17 15 -19 -2 -2 -15 4 -28 15 -27 22 -15 26 13
4z m191 5 c3 -6 -1 -7 -9 -4 -18 7 -21 14 -7 14 6 0 13 -4 16 -10z m599 2 c2
-4 -4 -8 -14 -8 -10 0 -16 4 -14 8 3 4 9 8 14 8 5 0 11 -4 14 -8z m196 4 c0
-2 -7 -7 -16 -10 -8 -3 -12 -2 -9 4 6 10 25 14 25 6z m-1161 -19 c8 -10 7 -14
-4 -14 -8 0 -15 6 -15 14 0 7 2 13 4 13 2 0 9 -6 15 -13z m121 -1 c0 -3 -4 -8
-10 -11 -5 -3 -10 -1 -10 4 0 6 5 11 10 11 6 0 10 -2 10 -4z m200 -6 c0 -5 -7
-10 -16 -10 -8 0 -12 5 -9 10 3 6 10 10 16 10 5 0 9 -4 9 -10z m85 0 c3 -5 -1
-10 -9 -10 -9 0 -16 5 -16 10 0 6 4 10 9 10 6 0 13 -4 16 -10z m319 2 c2 -4
-4 -9 -15 -9 -11 -1 -17 2 -14 8 7 11 22 12 29 1z m82 -4 c5 -7 2 -9 -8 -5 -9
3 -22 0 -29 -6 -11 -10 -11 -9 0 6 16 20 27 22 37 5z m314 2 c0 -5 -7 -10 -16
-10 -8 0 -12 5 -9 10 3 6 10 10 16 10 5 0 9 -4 9 -10z m85 0 c3 -5 -1 -10 -9
-10 -9 0 -16 5 -16 10 0 6 4 10 9 10 6 0 13 -4 16 -10z m115 0 c0 -5 -5 -10
-11 -10 -5 0 -7 5 -4 10 3 6 8 10 11 10 2 0 4 -4 4 -10z m80 0 c0 -5 -2 -10
-4 -10 -3 0 -8 5 -11 10 -3 6 -1 10 4 10 6 0 11 -4 11 -10z m120 0 c0 -5 -6
-10 -14 -10 -8 0 -21 -6 -28 -13 -7 -7 -26 -18 -43 -25 -26 -11 -27 -10 -13 1
10 8 14 18 10 22 -4 5 -2 5 4 2 6 -3 24 3 40 13 34 22 44 24 44 10z m-453 -27
c-14 -14 -19 -15 -29 -4 -7 8 -8 11 -3 8 6 -3 17 -2 25 4 23 14 26 11 7 -8z
m-807 1 c0 -2 -9 -8 -20 -14 -15 -8 -18 -8 -14 3 4 11 34 21 34 11z m204 -6
c-3 -4 -11 -5 -19 -1 -21 7 -19 12 4 10 11 0 18 -5 15 -9z m196 0 c0 -4 -4 -8
-9 -8 -6 0 -12 4 -15 8 -3 5 1 9 9 9 8 0 15 -4 15 -9z m220 -14 c0 -3 -4 -3
-9 0 -5 4 -11 1 -13 -6 -3 -7 -7 -3 -10 10 -5 19 -4 20 13 11 10 -5 19 -12 19
-15z m385 8 c-3 -3 -11 0 -18 7 -9 10 -8 11 6 5 10 -3 15 -9 12 -12z m-743
-30 c11 -13 8 -12 -19 2 -18 9 -33 18 -33 20 0 9 41 -8 52 -22z m-607 8 c3 -5
2 -10 -4 -10 -5 0 -13 5 -16 10 -3 6 -2 10 4 10 5 0 13 -4 16 -10z m75 0 c0
-5 -5 -10 -11 -10 -5 0 -7 5 -4 10 3 6 8 10 11 10 2 0 4 -4 4 -10z m125 1 c3
-5 1 -12 -5 -16 -5 -3 -10 1 -10 9 0 18 6 21 15 7z m92 -6 c0 -6 -8 -11 -17
-11 -9 0 -17 5 -17 11 0 6 8 11 17 11 9 0 17 -5 17 -11z m108 5 c3 -5 1 -10
-4 -10 -6 0 -11 5 -11 10 0 6 2 10 4 10 3 0 8 -4 11 -10z m295 3 c0 -1 -8 -7
-18 -12 -13 -7 -19 -6 -19 2 0 7 9 13 19 13 10 0 18 -1 18 -3z m190 -3 c0 -5
-5 -10 -11 -10 -5 0 -7 5 -4 10 3 6 8 10 11 10 2 0 4 -4 4 -10z m130 -16 c0
-2 -9 0 -20 6 -11 6 -20 13 -20 16 0 2 9 0 20 -6 11 -6 20 -13 20 -16z m70 11
c0 -2 -6 -5 -13 -8 -8 -3 -14 1 -14 8 0 7 6 11 14 8 7 -3 13 -6 13 -8z m115 5
c3 -6 -1 -7 -9 -4 -18 7 -21 14 -7 14 6 0 13 -4 16 -10z m85 0 c0 -5 -5 -10
-11 -10 -5 0 -7 5 -4 10 3 6 8 10 11 10 2 0 4 -4 4 -10z m115 0 c3 -5 2 -10
-4 -10 -5 0 -13 5 -16 10 -3 6 -2 10 4 10 5 0 13 -4 16 -10z m85 -8 c0 -5 -7
-9 -15 -9 -8 0 -12 4 -9 9 3 4 9 8 15 8 5 0 9 -4 9 -8z m-1033 -15 c0 -7 -9
-13 -19 -13 -18 0 -18 1 -2 13 10 7 18 13 19 13 1 0 2 -6 2 -13z m793 -2 c0
-2 -6 -5 -13 -8 -8 -3 -14 1 -14 8 0 7 6 11 14 8 7 -3 13 -6 13 -8z m-1000 1
c0 -3 -4 -8 -10 -11 -5 -3 -10 -1 -10 4 0 6 5 11 10 11 6 0 10 -2 10 -4z m605
-6 c3 -6 -1 -7 -9 -4 -18 7 -21 14 -7 14 6 0 13 -4 16 -10z m595 0 c0 -5 -2
-10 -4 -10 -3 0 -8 5 -11 10 -3 6 -1 10 4 10 6 0 11 -4 11 -10z m-1705 -10
c-3 -5 -12 -10 -18 -10 -7 0 -6 4 3 10 19 12 23 12 15 0z m400 0 c-3 -5 -12
-10 -18 -10 -7 0 -6 4 3 10 19 12 23 12 15 0z m805 0 c0 -5 -5 -10 -11 -10 -5
0 -7 5 -4 10 3 6 8 10 11 10 2 0 4 -4 4 -10z m405 0 c-3 -5 -11 -10 -16 -10
-6 0 -7 5 -4 10 3 6 11 10 16 10 6 0 7 -4 4 -10z m200 -8 c-3 -3 -11 0 -18 7
-9 10 -8 11 6 5 10 -3 15 -9 12 -12z m-1850 -10 c-3 -3 -11 0 -18 7 -9 10 -8
11 6 5 10 -3 15 -9 12 -12z m401 -9 c-6 -6 -36 9 -36 18 0 5 9 4 20 -3 10 -7
18 -14 16 -15z m299 17 c-4 -6 -1 -18 7 -27 12 -14 9 -14 -19 1 -18 9 -33 19
-33 22 0 3 4 3 9 -1 5 -3 12 -1 16 5 3 5 11 10 16 10 6 0 7 -5 4 -10z m92 -22
c-18 -12 -23 -10 -23 11 0 15 3 17 18 8 13 -8 14 -13 5 -19z m304 18 c-9 -11
-9 -15 1 -19 7 -3 8 -6 2 -6 -5 -1 -19 6 -30 14 -14 11 -15 14 -3 9 10 -3 20
-1 24 5 3 6 9 11 12 11 3 0 0 -6 -6 -14z m99 -1 c7 -8 8 -15 2 -15 -5 0 -15 7
-22 15 -7 8 -8 15 -2 15 5 0 15 -7 22 -15z m297 -2 c-14 -14 -19 -15 -29 -4
-11 10 -10 11 3 6 10 -4 20 -2 24 4 3 6 9 11 13 11 3 0 -1 -8 -11 -17z m98 7
c4 -6 12 -8 18 -4 7 3 3 -2 -7 -10 -26 -21 -32 -20 -32 4 0 21 11 26 21 10z
m305 -5 c-7 -8 -17 -15 -23 -15 -6 0 -2 7 9 15 25 19 30 19 14 0z m-1785 -5
c3 -6 -1 -7 -9 -4 -18 7 -21 14 -7 14 6 0 13 -4 16 -10z m155 0 c-35 -24 -54
-31 -30 -11 14 11 30 21 35 21 6 0 3 -5 -5 -10z m275 -10 c-3 -5 -1 -10 6 -10
7 0 10 -2 7 -5 -8 -9 -38 6 -32 16 3 5 10 9 15 9 6 0 7 -4 4 -10z m1208 -23
c-3 -5 -9 -3 -14 4 -4 7 -5 17 -2 22 3 5 9 3 14 -4 4 -7 5 -17 2 -22z m-1693
8 c0 -2 -6 -5 -13 -8 -8 -3 -14 1 -14 8 0 7 6 11 14 8 7 -3 13 -6 13 -8z m385
-3 c-3 -3 -11 0 -18 7 -9 10 -8 11 6 5 10 -3 15 -9 12 -12z m505 8 c0 -5 -2
-10 -4 -10 -3 0 -8 5 -11 10 -3 6 -1 10 4 10 6 0 11 -4 11 -10z m400 0 c0 -5
-4 -10 -10 -10 -5 0 -10 5 -10 10 0 6 5 10 10 10 6 0 10 -4 10 -10z m-995 -10
c-3 -5 -12 -10 -18 -10 -7 0 -6 4 3 10 19 12 23 12 15 0z m1490 0 c-3 -5 -11
-10 -16 -10 -6 0 -7 5 -4 10 3 6 11 10 16 10 6 0 7 -4 4 -10z m-1360 -10 c-3
-5 -12 -10 -18 -10 -7 0 -6 4 3 10 19 12 23 12 15 0z m135 5 c0 -2 -9 -9 -20
-15 -12 -6 -20 -7 -20 -1 0 5 8 12 18 14 9 3 18 5 20 6 1 0 2 -1 2 -4z m535
-5 c3 -6 -1 -7 -9 -4 -18 7 -21 14 -7 14 6 0 13 -4 16 -10z m155 5 c0 -2 -9
-9 -20 -15 -12 -6 -20 -7 -20 -1 0 5 8 12 18 14 9 3 18 5 20 6 1 0 2 -1 2 -4z
m-1105 -15 c3 -6 -1 -7 -9 -4 -18 7 -21 14 -7 14 6 0 13 -4 16 -10z m1495 6
c0 -2 -7 -7 -16 -10 -8 -3 -12 -2 -9 4 6 10 25 14 25 6z m110 -6 c0 -5 -2 -10
-4 -10 -3 0 -8 5 -11 10 -3 6 -1 10 4 10 6 0 11 -4 11 -10z m-1820 -14 c-7 -7
-13 -7 -20 0 -6 6 -3 10 10 10 13 0 16 -4 10 -10z m320 10 c0 -3 -4 -8 -10
-11 -5 -3 -10 -1 -10 4 0 6 5 11 10 11 6 0 10 -2 10 -4z m75 -6 c3 -5 1 -10
-4 -10 -6 0 -11 5 -11 10 0 6 2 10 4 10 3 0 8 -4 11 -10z m65 0 c0 -5 -5 -10
-11 -10 -5 0 -7 5 -4 10 3 6 8 10 11 10 2 0 4 -4 4 -10z m1140 0 c0 -5 -2 -10
-4 -10 -3 0 -8 5 -11 10 -3 6 -1 10 4 10 6 0 11 -4 11 -10z m-1332 -26 c2 -1
-5 -5 -15 -8 -9 -4 -14 -4 -10 0 4 4 1 14 -6 23 -11 14 -10 15 8 1 11 -8 21
-15 23 -16z m589 12 c-16 -13 -16 -14 -1 -20 9 -4 14 -9 11 -13 -4 -3 -13 0
-21 6 -8 7 -21 10 -28 6 -7 -4 -2 3 12 14 14 11 30 21 35 20 6 0 2 -6 -8 -13z
m111 -6 c-15 -24 -24 -25 -31 -6 -4 10 2 16 16 19 12 2 23 5 25 6 1 0 -3 -8
-10 -19z m114 6 c10 5 10 4 2 -5 -12 -13 -44 -5 -44 11 0 6 6 5 15 -2 8 -6 20
-8 27 -4z m188 10 c0 -3 -4 -8 -10 -11 -5 -3 -10 -1 -10 4 0 6 5 11 10 11 6 0
10 -2 10 -4z m185 -7 c4 -6 14 -8 24 -5 9 4 5 -2 -9 -13 -14 -11 -27 -17 -30
-14 -3 3 1 8 8 10 10 4 8 9 -5 19 -10 7 -13 14 -6 14 6 0 15 -5 18 -11z m215
6 c0 -2 -15 -12 -32 -20 l-33 -16 25 20 c24 20 40 26 40 16z m189 -33 c-11 -8
-23 -11 -26 -8 -3 3 2 8 11 12 14 5 14 9 4 22 -12 13 -11 14 9 2 22 -14 22
-14 2 -28z m-1302 13 c0 -8 -4 -15 -9 -15 -4 0 -8 7 -8 15 0 8 4 15 8 15 5 0
9 -7 9 -15z m130 1 c0 -8 -6 -12 -15 -9 -11 5 -11 7 0 14 7 5 13 9 14 9 0 0 1
-6 1 -14z m553 -1 c0 -2 -6 -5 -13 -8 -8 -3 -14 1 -14 8 0 7 6 11 14 8 7 -3
13 -6 13 -8z m120 0 c0 -8 -4 -15 -10 -15 -5 0 -10 7 -10 15 0 8 5 15 10 15 6
0 10 -7 10 -15z m400 0 c0 -8 -4 -15 -8 -15 -5 0 -9 7 -9 15 0 8 4 15 9 15 4
0 8 -7 8 -15z m-1360 -9 c0 -3 -4 -8 -10 -11 -5 -3 -10 -1 -10 4 0 6 5 11 10
11 6 0 10 -2 10 -4z m60 -6 c0 -5 -2 -10 -4 -10 -3 0 -8 5 -11 10 -3 6 -1 10
4 10 6 0 11 -4 11 -10z m805 0 c3 -5 1 -10 -4 -10 -6 0 -11 5 -11 10 0 6 2 10
4 10 3 0 8 -4 11 -10z m400 0 c3 -5 1 -10 -4 -10 -6 0 -11 5 -11 10 0 6 2 10
4 10 3 0 8 -4 11 -10z m-1350 -10 c3 -5 1 -10 -4 -10 -6 0 -11 5 -11 10 0 6 2
10 4 10 3 0 8 -4 11 -10z m1210 -8 c-3 -3 -11 0 -18 7 -9 10 -8 11 6 5 10 -3
15 -9 12 -12z m395 8 c0 -5 -2 -10 -4 -10 -3 0 -8 5 -11 10 -3 6 -1 10 4 10 6
0 11 -4 11 -10z m-1705 -10 c-3 -5 -10 -10 -16 -10 -5 0 -9 5 -9 10 0 6 7 10
16 10 8 0 12 -4 9 -10z m290 0 c-3 -5 -10 -10 -16 -10 -5 0 -9 5 -9 10 0 6 7
10 16 10 8 0 12 -4 9 -10z m115 0 c0 -5 -7 -10 -15 -10 -8 0 -15 5 -15 10 0 6
7 10 15 10 8 0 15 -4 15 -10z m275 0 c3 -5 1 -10 -4 -10 -6 0 -11 5 -11 10 0
6 2 10 4 10 3 0 8 -4 11 -10z m125 -1 c0 -3 -9 -9 -19 -12 -13 -3 -18 0 -15 7
5 13 34 18 34 5z m395 1 c3 -5 1 -10 -4 -10 -6 0 -11 5 -11 10 0 6 2 10 4 10
3 0 8 -4 11 -10z m295 0 c0 -5 -4 -10 -10 -10 -5 0 -10 5 -10 10 0 6 5 10 10
10 6 0 10 -4 10 -10z m-1355 -10 c3 -6 -1 -7 -9 -4 -18 7 -21 14 -7 14 6 0 13
-4 16 -10z m-290 -10 c-3 -5 -11 -10 -16 -10 -6 0 -7 5 -4 10 3 6 11 10 16 10
6 0 7 -4 4 -10z m795 1 c0 -5 -7 -12 -16 -15 -14 -5 -15 -4 -4 9 14 17 20 19
20 6z m410 5 c0 -3 -4 -8 -10 -11 -5 -3 -10 -1 -10 4 0 6 5 11 10 11 6 0 10
-2 10 -4z m290 0 c0 -2 -7 -7 -16 -10 -8 -3 -12 -2 -9 4 6 10 25 14 25 6z
m295 -7 c11 -17 -1 -21 -15 -4 -8 9 -8 15 -2 15 6 0 14 -5 17 -11z m-1465 -9
c0 -5 -2 -10 -4 -10 -3 0 -8 5 -11 10 -3 6 -1 10 4 10 6 0 11 -4 11 -10z m173
-4 c4 -10 1 -13 -9 -9 -15 6 -19 23 -5 23 5 0 11 -7 14 -14z m397 4 c0 -5 -4
-10 -10 -10 -5 0 -10 5 -10 10 0 6 5 10 10 10 6 0 10 -4 10 -10z m400 0 c0 -5
-4 -10 -9 -10 -6 0 -13 5 -16 10 -3 6 1 10 9 10 9 0 16 -4 16 -10z m105 0 c3
-6 -1 -7 -9 -4 -18 7 -21 14 -7 14 6 0 13 -4 16 -10z m300 0 c-3 -5 -11 -10
-16 -10 -6 0 -7 5 -4 10 3 6 11 10 16 10 6 0 7 -4 4 -10z m-1480 -18 c-3 -3
-11 0 -18 7 -9 10 -8 11 6 5 10 -3 15 -9 12 -12z m428 -22 c-2 -2 -8 2 -12 9
-5 8 -15 10 -22 7 -8 -4 -5 0 6 9 18 14 20 14 26 -2 4 -10 5 -20 2 -23z m94
32 c9 -5 6 -12 -10 -21 -20 -13 -21 -13 -9 1 10 13 10 17 0 21 -7 3 -8 6 -3 6
6 0 15 -3 22 -7z m305 1 c-10 -4 -10 -8 0 -21 12 -14 11 -14 -9 -1 -16 9 -19
16 -10 21 7 4 17 7 22 7 6 0 4 -3 -3 -6z m95 -1 c9 -5 6 -12 -10 -21 -20 -13
-21 -13 -9 1 10 13 10 17 0 21 -7 3 -8 6 -3 6 6 0 15 -3 22 -7z m309 -11 c0
-15 -3 -17 -13 -9 -9 7 -18 7 -30 -3 -13 -11 -15 -11 -9 -1 4 7 18 17 30 22
11 5 21 9 21 9 1 1 1 -8 1 -18z m114 -6 c0 -2 -7 -2 -15 1 -8 4 -15 1 -15 -5
0 -6 -4 -11 -9 -11 -5 0 -7 9 -4 20 4 16 9 18 24 9 10 -5 19 -12 19 -14z
m-1226 1 c-10 -8 -21 -12 -24 -10 -5 6 21 24 34 24 6 0 1 -6 -10 -14z m1506 4
c8 -5 12 -11 10 -14 -3 -2 -14 2 -24 10 -22 15 -10 19 14 4z m-1855 -10 c3 -5
1 -10 -4 -10 -6 0 -11 5 -11 10 0 6 2 10 4 10 3 0 8 -4 11 -10z m200 0 c-3 -5
-11 -10 -16 -10 -6 0 -7 5 -4 10 3 6 11 10 16 10 6 0 7 -4 4 -10z m60 0 c3 -5
1 -10 -4 -10 -6 0 -11 5 -11 10 0 6 2 10 4 10 3 0 8 -4 11 -10z m140 -10 c3
-6 -1 -7 -9 -4 -18 7 -21 14 -7 14 6 0 13 -4 16 -10z m205 6 c0 -3 -4 -8 -10
-11 -5 -3 -10 -1 -10 4 0 6 5 11 10 11 6 0 10 -2 10 -4z m195 -6 c3 -6 -1 -7
-9 -4 -18 7 -21 14 -7 14 6 0 13 -4 16 -10z m410 0 c3 -5 1 -10 -4 -10 -6 0
-11 5 -11 10 0 6 2 10 4 10 3 0 8 -4 11 -10z m-898 -14 c0 -8 -6 -12 -15 -9
-11 5 -11 7 0 14 7 5 13 9 14 9 0 0 1 -6 1 -14z m393 0 c-7 -7 -13 -7 -20 0
-6 6 -3 10 10 10 13 0 16 -4 10 -10z m633 -9 c4 3 7 0 7 -9 0 -8 -7 -15 -15
-15 -8 0 -12 4 -9 9 4 5 -3 12 -15 15 -11 3 -18 10 -15 15 3 5 13 3 23 -6 10
-9 21 -13 24 -9z m162 5 c-3 -3 -11 0 -18 7 -9 10 -8 11 6 5 10 -3 15 -9 12
-12z m205 8 c0 -5 -5 -10 -11 -10 -5 0 -7 5 -4 10 3 6 8 10 11 10 2 0 4 -4 4
-10z m-1559 -27 c13 -15 12 -15 -8 -4 -24 12 -29 21 -14 21 5 0 15 -7 22 -17z
m326 1 c0 -6 -7 -11 -16 -9 -18 2 -52 -16 -46 -25 2 -3 -5 -7 -16 -7 -10 -1
-19 3 -19 8 0 6 4 8 8 5 5 -3 21 5 37 18 31 25 52 29 52 10z m80 1 c0 -10 -5
-11 -19 -4 -10 5 -18 11 -18 12 0 2 8 3 18 4 10 1 19 -5 19 -12z m317 3 c-3
-4 -9 -8 -15 -8 -5 0 -9 4 -9 8 0 5 7 9 15 9 8 0 12 -4 9 -9z m391 -6 c-3 -3
-11 0 -18 7 -9 10 -8 11 6 5 10 -3 15 -9 12 -12z m415 11 c0 -1 -8 -7 -18 -12
-13 -7 -19 -6 -19 2 0 7 9 13 19 13 10 0 18 -1 18 -3z m65 -11 c-3 -3 -11 0
-18 7 -9 10 -8 11 6 5 10 -3 15 -9 12 -12z m-1475 4 c0 -3 -4 -8 -10 -11 -5
-3 -10 -1 -10 4 0 6 5 11 10 11 6 0 10 -2 10 -4z m395 -6 c-3 -5 -11 -10 -16
-10 -6 0 -7 5 -4 10 3 6 11 10 16 10 6 0 7 -4 4 -10z m85 0 c0 -5 -2 -10 -4
-10 -3 0 -8 5 -11 10 -3 6 -1 10 4 10 6 0 11 -4 11 -10z m320 6 c0 -3 -4 -8
-10 -11 -5 -3 -10 -1 -10 4 0 6 5 11 10 11 6 0 10 -2 10 -4z m80 -6 c0 -5 -2
-10 -4 -10 -3 0 -8 5 -11 10 -3 6 -1 10 4 10 6 0 11 -4 11 -10z m405 0 c3 -5
2 -10 -4 -10 -5 0 -13 5 -16 10 -3 6 -2 10 4 10 5 0 13 -4 16 -10z m-1535 -20
c-27 -21 -40 -25 -40 -12 0 5 12 13 28 19 39 16 40 15 12 -7z m1808 -17 c7 -7
20 -13 28 -13 8 0 14 -4 14 -10 0 -5 -2 -10 -5 -10 -7 0 -105 61 -105 66 0 6
54 -20 68 -33z m-1618 5 c0 -5 -9 -4 -20 2 -11 6 -20 12 -20 14 0 2 9 2 20 -1
11 -3 20 -9 20 -15z m400 0 c0 -5 -9 -4 -20 2 -11 6 -20 12 -20 14 0 2 9 2 20
-1 11 -3 20 -9 20 -15z m200 13 c0 -8 -64 -51 -76 -51 -2 0 -4 5 -4 10 0 6 6
10 13 10 8 0 24 9 37 20 26 22 30 24 30 11z m420 4 c0 -2 -14 -12 -31 -21 -17
-8 -28 -11 -24 -4 4 6 17 15 29 20 27 11 26 11 26 5z m400 0 c0 -2 -9 -9 -20
-15 -12 -6 -20 -7 -20 -1 0 5 8 12 18 14 9 3 18 5 20 6 1 0 2 -1 2 -4z m-615
-15 c3 -5 2 -10 -4 -10 -5 0 -13 5 -16 10 -3 6 -2 10 4 10 5 0 13 -4 16 -10z
m405 1 c0 -6 -9 -9 -19 -8 -11 0 -17 5 -15 9 7 11 34 10 34 -1z m-1270 -26
c-7 -9 -15 -13 -19 -10 -3 3 1 10 9 15 21 14 24 12 10 -5z m-85 -5 c3 -5 1
-10 -4 -10 -6 0 -11 5 -11 10 0 6 2 10 4 10 3 0 8 -4 11 -10z m203 -3 c8 -10
7 -13 -7 -14 -10 -1 -18 5 -18 13 0 17 11 18 25 1z m75 0 c-2 -4 -3 -13 -4
-19 0 -10 -2 -10 -6 0 -2 6 -8 10 -12 8 -4 -3 -8 1 -8 8 0 8 7 13 16 11 9 -1
15 -5 14 -8z m122 3 c3 -5 1 -10 -4 -10 -6 0 -11 5 -11 10 0 6 2 10 4 10 3 0
8 -4 11 -10z m212 -6 c9 -8 23 -12 32 -9 12 5 13 3 5 -5 -12 -12 -64 6 -64 22
0 12 10 10 27 -8z m393 6 c0 -5 -4 -10 -9 -10 -6 0 -13 5 -16 10 -3 6 1 10 9
10 9 0 16 -4 16 -10z m80 0 c0 -5 -4 -10 -10 -10 -5 0 -10 5 -10 10 0 6 5 10
10 10 6 0 10 -4 10 -10z m320 0 c0 -5 -4 -10 -10 -10 -5 0 -10 5 -10 10 0 6 5
10 10 10 6 0 10 -4 10 -10z m80 -3 c0 -8 -6 -14 -14 -14 -8 0 -12 6 -9 14 3 7
9 13 14 13 5 0 9 -6 9 -13z m125 -5 c-3 -3 -11 0 -18 7 -9 10 -8 11 6 5 10 -3
15 -9 12 -12z m75 8 c0 -5 -5 -10 -11 -10 -5 0 -7 5 -4 10 3 6 8 10 11 10 2 0
4 -4 4 -10z m-1245 -28 c-3 -3 -11 0 -18 7 -9 10 -8 11 6 5 10 -3 15 -9 12
-12z m410 8 c-3 -5 -12 -10 -18 -10 -7 0 -6 4 3 10 19 12 23 12 15 0z m190 -8
c-3 -3 -11 0 -18 7 -9 10 -8 11 6 5 10 -3 15 -9 12 -12z m210 8 c-3 -5 -12
-10 -18 -10 -7 0 -6 4 3 10 19 12 23 12 15 0z m-105 -15 c11 -13 10 -14 -4 -9
-9 3 -16 10 -16 15 0 13 6 11 20 -6z m400 0 c11 -13 10 -14 -4 -9 -9 3 -16 10
-16 15 0 13 6 11 20 -6z m100 11 c0 -2 -7 -7 -16 -10 -8 -3 -12 -2 -9 4 6 10
25 14 25 6z m-1310 -16 c0 -5 -2 -10 -4 -10 -3 0 -8 5 -11 10 -3 6 -1 10 4 10
6 0 11 -4 11 -10z m1410 0 c0 -5 -5 -10 -11 -10 -5 0 -7 5 -4 10 3 6 8 10 11
10 2 0 4 -4 4 -10z m-1347 -20 c-7 -26 -13 -26 -13 0 0 11 4 20 9 20 5 0 7 -9
4 -20z m403 0 c0 -24 -3 -24 -22 -6 -11 11 -11 16 -1 19 21 9 23 8 23 -13z
m93 11 c11 -7 10 -11 -6 -19 -15 -9 -19 -7 -19 9 0 21 4 23 25 10z m307 -10
c0 -15 -3 -17 -18 -8 -13 8 -14 13 -5 19 18 12 23 10 23 -11z m100 3 c10 -8
13 -13 6 -9 -7 4 -21 1 -30 -7 -15 -12 -16 -11 -4 4 10 13 10 17 0 21 -7 3 -8
6 -2 6 5 1 19 -6 30 -15z m300 -3 c0 -15 -3 -17 -18 -7 -17 10 -17 11 0 18 9
3 17 7 17 7 1 1 1 -7 1 -18z m84 -1 c0 -11 -4 -20 -9 -20 -5 0 -7 9 -4 20 3
11 7 20 9 20 2 0 4 -9 4 -20z m-1754 1 c-4 -5 -1 -11 6 -13 8 -3 6 -6 -4 -10
-11 -5 -15 -2 -13 10 5 23 4 22 11 22 3 0 3 -4 0 -9z m214 -28 c0 -1 -11 2
-25 9 -19 8 -28 8 -40 -2 -8 -7 -15 -8 -15 -3 0 6 10 14 22 20 16 7 26 6 40
-6 10 -8 18 -17 18 -18z m359 34 c-2 -1 -13 -9 -24 -17 -19 -14 -19 -14 -6 3
7 9 18 17 24 17 6 0 8 -1 6 -3z m-255 -22 c4 -13 2 -14 -14 -5 -23 13 -26 20
-6 20 8 0 16 -7 20 -15z m395 2 c8 -10 7 -14 -4 -14 -8 0 -16 6 -19 14 -7 17
8 17 23 0z m401 4 c0 -17 -18 -21 -24 -6 -3 9 0 15 9 15 8 0 15 -4 15 -9z
m402 -3 c-9 -9 -15 -9 -24 0 -9 9 -7 12 12 12 19 0 21 -3 12 -12z m-1102 -2
c0 -3 -4 -8 -10 -11 -5 -3 -10 -1 -10 4 0 6 5 11 10 11 6 0 10 -2 10 -4z m195
-6 c3 -6 -1 -7 -9 -4 -18 7 -21 14 -7 14 6 0 13 -4 16 -10z m805 0 c0 -5 -2
-10 -4 -10 -3 0 -8 5 -11 10 -3 6 -1 10 4 10 6 0 11 -4 11 -10z m405 0 c3 -5
2 -10 -4 -10 -5 0 -13 5 -16 10 -3 6 -2 10 4 10 5 0 13 -4 16 -10z"/>
<path d="M165 857 c-11 -7 -43 -25 -70 -42 -28 -16 -59 -34 -70 -40 -15 -8
-20 -22 -22 -55 -1 -25 4 -48 10 -52 7 -5 8 -8 2 -8 -15 0 -17 -52 -3 -62 10
-6 10 -8 1 -8 -7 0 -13 -11 -13 -24 0 -20 13 -32 68 -62 141 -80 121 -75 176
-45 81 43 91 50 88 62 -1 6 2 8 8 4 5 -3 18 -1 29 4 17 9 19 22 19 96 0 62 -3
83 -11 79 -8 -5 -7 -2 1 7 21 23 15 58 -13 65 -14 3 -25 9 -25 13 0 12 -51 32
-62 25 -6 -4 -8 -2 -5 3 7 12 -55 54 -76 52 -7 -1 -21 -6 -32 -12z m-90 -87
c3 -5 1 -10 -4 -10 -6 0 -11 5 -11 10 0 6 2 10 4 10 3 0 8 -4 11 -10z m135 0
c0 -5 -7 -10 -16 -10 -8 0 -12 5 -9 10 3 6 10 10 16 10 5 0 9 -4 9 -10z m-45
-35 c0 -14 -3 -25 -7 -25 -5 0 -8 11 -8 25 0 14 3 25 8 25 4 0 7 -11 7 -25z
m-30 -3 c-3 -3 -11 0 -18 7 -9 10 -8 11 6 5 10 -3 15 -9 12 -12z m142 1 c0 -8
-6 -9 -19 -2 -23 12 -23 15 0 15 10 0 19 -6 19 -13z m38 -23 c3 -5 2 -10 -4
-10 -5 0 -13 5 -16 10 -3 6 -2 10 4 10 5 0 13 -4 16 -10z m-105 -16 c0 -14 -3
-14 -15 -4 -8 7 -15 14 -15 16 0 2 7 4 15 4 8 0 15 -7 15 -16z m-134 -21 c-2
-2 -11 0 -20 3 -14 5 -15 9 -5 15 12 7 34 -10 25 -18z m45 -21 c-7 -2 -18 1
-23 6 -8 8 -4 9 13 5 13 -4 18 -8 10 -11z m181 11 c-10 -4 -10 -8 -1 -19 7 -8
7 -14 1 -14 -5 0 -15 6 -21 14 -12 14 -2 24 24 24 6 0 4 -2 -3 -5z m-137 -33
c3 -5 2 -10 -4 -10 -5 0 -13 5 -16 10 -3 6 -2 10 4 10 5 0 13 -4 16 -10z m-95
-17 c0 -7 5 -13 12 -13 6 0 8 -3 5 -6 -4 -4 -13 -1 -21 5 -8 7 -19 10 -24 7
-5 -3 -9 0 -9 7 0 7 9 13 19 13 10 0 18 -6 18 -13z m140 -9 c0 -8 -5 -12 -10
-9 -6 4 -8 11 -5 16 9 14 15 11 15 -7z m145 6 c3 -6 -1 -7 -9 -4 -18 7 -21 14
-7 14 6 0 13 -4 16 -10z m-185 -24 c0 -3 -4 -8 -10 -11 -5 -3 -10 -1 -10 4 0
6 5 11 10 11 6 0 10 -2 10 -4z m100 -16 c0 -5 -4 -10 -10 -10 -5 0 -10 5 -10
10 0 6 5 10 10 10 6 0 10 -4 10 -10z m-60 -35 c0 -8 -7 -15 -15 -15 -26 0 -18
20 13 29 1 1 2 -6 2 -14z m-130 1 c0 -3 -4 -8 -10 -11 -5 -3 -10 -1 -10 4 0 6
5 11 10 11 6 0 10 -2 10 -4z m90 -21 c0 -2 -10 -10 -22 -16 -21 -11 -22 -11
-9 4 13 16 31 23 31 12z"/>
</g>
</svg>
