<?xml version="1.0" standalone="no"?>
<!DOCTYPE svg PUBLIC "-//W3C//DTD SVG 20010904//EN"
 "http://www.w3.org/TR/2001/REC-SVG-20010904/DTD/svg10.dtd">
<svg version="1.0" xmlns="http://www.w3.org/2000/svg"
 width="200.000000pt" height="200.000000pt" viewBox="0 0 200.000000 200.000000"
 preserveAspectRatio="xMidYMid meet">
<metadata>
Created by potrace 1.16, written by Peter Selinger 2001-2019
</metadata>
<g transform="translate(0.000000,200.000000) scale(0.100000,-0.100000)"
fill="#000000" stroke="none">
<path d="M0 1892 l0 -108 40 -23 c37 -21 40 -25 40 -66 0 -41 -3 -45 -40 -66
l-40 -23 0 -246 0 -247 50 -27 50 -27 0 -59 0 -59 -50 -27 -50 -27 0 -253 0
-253 30 -16 c27 -14 30 -21 30 -60 0 -39 -3 -46 -30 -60 l-30 -16 0 -114 0
-115 29 0 c19 0 30 6 33 18 3 11 34 36 68 57 l64 39 65 -36 c44 -24 67 -44 69
-57 3 -18 11 -21 48 -21 41 0 49 6 45 32 0 5 4 8 9 8 6 0 15 12 20 26 6 14 14
23 19 20 5 -3 11 1 15 9 7 18 26 20 26 3 -1 -7 -15 -22 -33 -33 -18 -11 -33
-30 -35 -43 -3 -22 -3 -22 151 -22 115 0 156 3 159 13 8 20 -2 37 -33 53 -16
8 -27 19 -23 25 3 6 0 9 -7 8 -8 -2 -31 5 -52 15 -31 15 -43 17 -63 7 -14 -6
-30 -8 -36 -5 -6 4 -8 2 -4 -4 3 -6 1 -14 -5 -17 -7 -5 -10 0 -7 11 2 11 13
20 28 22 13 2 30 11 38 20 10 13 15 14 18 4 3 -6 11 -9 16 -6 7 4 8 2 4 -4 -4
-7 -1 -12 10 -12 22 0 94 -41 94 -54 0 -5 3 -6 7 -3 12 13 33 -15 33 -44 0
-22 5 -29 19 -29 11 0 22 8 24 17 4 17 5 17 6 1 1 -16 16 -18 176 -18 96 0
175 3 176 8 0 4 2 17 5 29 2 12 -1 25 -6 28 -6 4 -8 11 -4 16 3 6 -2 17 -12
25 -17 12 -17 13 -2 8 45 -16 -9 25 -84 64 -16 8 -28 21 -28 29 0 8 -4 12 -8
9 -12 -7 -6 174 6 186 6 6 10 -25 10 -89 1 -81 4 -100 18 -108 10 -5 25 -18
35 -27 9 -9 20 -14 23 -11 9 9 57 -27 51 -37 -4 -6 1 -10 9 -10 8 0 18 5 21
10 4 6 11 8 16 5 5 -4 12 0 15 8 3 8 13 17 22 19 9 3 22 6 27 8 6 1 23 13 38
26 16 13 34 21 40 17 9 -5 9 -3 1 8 -7 8 -12 41 -12 74 0 101 1 100 -42 124
-24 13 -37 27 -34 33 5 7 1 9 -9 5 -9 -3 -22 -1 -29 6 -23 22 -43 18 -109 -22
-42 -26 -66 -35 -71 -28 -8 13 -5 18 14 21 35 6 58 18 52 28 -4 6 -2 8 4 4 5
-3 12 -2 14 3 1 5 10 11 18 13 8 2 20 9 25 16 8 10 20 8 58 -13 26 -15 44 -31
41 -37 -3 -5 0 -8 7 -7 8 2 30 -5 49 -14 l35 -17 0 -105 c0 -97 -1 -105 -22
-116 -12 -7 -20 -16 -17 -20 3 -5 -3 -6 -13 -2 -16 6 -17 5 -3 -12 14 -17 14
-18 -6 -7 -17 9 -25 7 -45 -12 -13 -12 -34 -22 -46 -21 -12 1 -19 -3 -16 -8 3
-5 -4 -6 -18 -3 -20 6 -21 5 -6 -4 9 -6 20 -9 25 -6 4 2 5 -18 4 -45 l-4 -49
181 0 181 0 1 28 1 27 7 -30 7 -30 6 30 c5 24 2 34 -18 51 -13 12 -20 24 -16
28 4 4 3 7 -3 6 -19 -4 -31 0 -51 18 -10 10 -22 18 -25 18 -3 -1 -24 8 -47 19
-38 18 -52 41 -36 58 4 4 6 47 5 96 -2 74 1 91 14 99 9 5 16 12 16 15 -1 4 1
7 4 7 3 0 12 0 21 0 8 0 12 -5 9 -10 -4 -6 -11 -8 -16 -5 -5 4 -9 1 -9 -4 0
-6 -7 -11 -15 -11 -11 0 -14 -18 -12 -97 l2 -98 93 -53 92 -54 88 50 87 49 3
98 c2 77 -1 103 -14 122 -13 20 -18 23 -25 12 -7 -12 -9 -11 -9 1 0 8 -11 20
-25 27 -14 6 -22 7 -19 2 3 -5 -6 -4 -20 2 -14 7 -23 16 -20 20 5 8 -2 11 -22
8 -10 -1 -33 35 -28 43 3 5 13 4 23 -2 10 -5 22 -6 26 -2 5 4 4 1 0 -7 -6 -11
-4 -13 9 -8 10 4 15 3 11 -3 -3 -6 -1 -10 6 -10 7 0 21 -8 32 -18 11 -9 17
-11 13 -4 -11 19 1 14 22 -8 34 -36 58 -33 153 23 l89 52 0 96 0 97 -90 51
-89 51 -78 -46 c-43 -25 -85 -52 -94 -60 -9 -8 -24 -12 -33 -8 -18 7 -19 -1
-17 -114 1 -55 -2 -66 -24 -86 -17 -16 -33 -22 -47 -18 -14 3 -19 1 -14 -6 3
-6 -3 -16 -14 -22 -11 -6 -20 -7 -20 -3 0 4 -4 4 -8 -2 -4 -5 -15 -16 -24 -24
-15 -11 -21 -11 -35 0 -15 12 -16 12 -8 -1 5 -9 0 -8 -13 4 -23 20 -32 46 -9
28 18 -15 61 -19 72 -5 21 25 114 72 119 60 2 -7 5 32 5 86 1 99 -9 140 -32
132 -6 -3 -25 6 -41 20 -16 13 -32 22 -37 20 -4 -3 -11 0 -15 6 -5 8 -3 9 6 4
9 -6 11 -4 6 4 -5 7 -14 10 -22 7 -8 -3 -14 -1 -14 4 0 5 -21 -3 -47 -19 -27
-16 -55 -31 -63 -33 -8 -2 -27 -15 -42 -30 -20 -20 -29 -24 -37 -14 -6 7 -6
17 -1 26 5 8 6 18 4 22 -3 4 3 5 12 1 13 -5 15 -3 9 7 -5 8 -4 11 2 7 6 -4 39
7 74 25 35 17 59 33 53 35 -7 2 -9 13 -7 24 5 16 8 18 14 7 5 -7 9 35 9 101 0
131 10 115 -121 191 -89 52 -105 58 -93 38 4 -7 3 -8 -4 -4 -15 9 -73 -24 -65
-37 3 -6 1 -7 -5 -3 -14 8 -55 -18 -45 -28 4 -4 -1 -4 -11 0 -12 5 -17 4 -13
-3 4 -6 -3 -9 -18 -7 -14 1 -23 -2 -19 -7 3 -5 11 -6 17 -2 7 3 4 -3 -5 -14
-18 -20 -24 -38 -10 -29 4 2 8 -6 8 -20 0 -13 -6 -24 -13 -24 -7 0 -13 -4 -13
-10 0 -5 5 -9 11 -7 8 1 12 -22 12 -72 0 -59 -3 -77 -16 -85 -22 -14 -47 8
-29 26 15 15 16 200 1 215 -7 7 -6 14 3 24 21 23 20 39 -2 39 -27 0 -80 27
-80 41 0 6 -6 7 -12 3 -10 -5 -10 -4 -1 6 9 9 25 4 76 -24 l64 -36 26 20 c14
11 30 20 36 20 6 0 11 5 11 10 0 6 5 10 11 10 6 0 24 9 40 21 28 20 29 23 29
110 l0 89 -55 31 c-30 17 -52 35 -49 41 3 5 0 9 -7 7 -25 -3 -39 1 -39 11 0
17 29 11 49 -9 11 -11 22 -17 25 -14 3 3 8 -2 12 -11 3 -9 10 -13 16 -10 5 3
17 -1 26 -9 9 -7 26 -17 37 -21 16 -6 17 -9 5 -17 -10 -6 -12 -11 -4 -16 6 -5
11 -40 12 -83 0 -58 -2 -67 -8 -40 l-7 35 -2 -36 c0 -19 -7 -41 -13 -48 -7 -8
1 -5 17 5 17 10 33 23 37 29 4 5 8 0 8 -12 0 -16 19 -33 75 -67 103 -61 105
-62 163 -26 27 16 52 30 56 30 4 0 14 6 22 14 7 8 19 16 26 18 9 3 14 35 16
104 l4 99 -89 51 c-106 62 -120 67 -127 48 -3 -8 -9 -13 -13 -12 -16 4 -53
-14 -47 -23 3 -5 2 -9 -3 -8 -19 3 -34 -2 -29 -10 3 -5 -1 -12 -10 -15 -10 -4
-13 -2 -9 7 4 6 1 5 -7 -3 -7 -8 -23 -16 -35 -18 -18 -3 -23 2 -23 17 0 12 5
21 11 21 5 0 7 -6 4 -12 -4 -7 0 -5 8 4 8 10 17 15 20 11 4 -3 7 -1 7 6 0 7 5
9 10 6 6 -3 13 1 16 9 3 9 10 14 14 11 4 -3 10 2 14 10 3 8 15 15 26 15 11 0
20 4 20 10 0 5 6 9 13 7 9 -1 13 27 15 110 l3 112 -27 14 c-26 13 -26 14 -5
20 13 3 19 1 14 -6 -4 -7 0 -8 12 -4 36 15 45 -9 45 -127 l1 -111 85 -48 c47
-27 92 -46 100 -43 8 3 12 1 9 -4 -4 -6 2 -6 17 -1 13 5 22 13 21 19 -1 5 5 9
15 8 9 0 16 4 15 11 -2 8 4 10 14 6 11 -4 14 -3 9 5 -5 8 -1 10 10 5 12 -4 15
-3 10 6 -4 6 -4 11 1 10 20 -3 34 2 28 11 -4 6 1 7 11 3 12 -4 15 -3 10 5 -4
7 -1 15 8 18 13 5 16 25 16 108 l0 103 -92 54 c-50 30 -95 53 -100 52 -4 -2
-8 4 -8 13 0 12 -12 9 -55 -16 -30 -17 -59 -28 -65 -25 -6 4 -9 1 -8 -7 2 -7
-5 -12 -15 -12 -13 2 -15 -1 -8 -10 8 -9 7 -13 -2 -13 -6 0 -21 -4 -31 -9 -14
-5 -17 -4 -12 4 4 7 4 12 -1 13 -28 2 -48 11 -97 40 -57 35 -74 56 -34 44 33
-10 68 -34 74 -50 3 -8 12 -11 20 -8 8 3 20 0 28 -6 11 -9 26 -5 67 20 30 17
59 32 65 33 23 3 44 29 44 52 l0 24 -160 0 -160 0 0 -29 c0 -17 -4 -33 -10
-36 -6 -4 -10 8 -10 29 0 34 -2 36 -35 36 -30 0 -35 -3 -35 -24 0 -19 -14 -32
-69 -65 -38 -22 -75 -41 -82 -41 -7 0 -43 18 -81 40 -55 33 -68 46 -68 65 0
24 -3 25 -64 25 -54 0 -64 -3 -69 -19 -2 -10 -30 -32 -62 -49 l-58 -32 -63 36
c-35 20 -64 42 -64 50 0 11 -18 14 -84 14 -78 0 -89 -3 -136 -32 l-51 -32 -45
24 c-24 14 -44 28 -44 32 0 5 -25 8 -55 8 l-55 0 0 -108z m1178 -7 c-3 -3 -9
2 -12 12 -6 14 -5 15 5 6 7 -7 10 -15 7 -18z m56 13 c-5 -8 -2 -9 9 -5 9 3 19
1 23 -5 4 -7 3 -8 -4 -4 -7 4 -12 3 -12 -3 0 -6 11 -13 25 -17 14 -3 25 -10
25 -16 0 -5 -18 1 -40 13 -40 23 -46 30 -33 42 10 11 15 8 7 -5z m-80 -6 c3
-5 -1 -9 -9 -9 -8 0 -12 4 -9 9 3 4 7 8 9 8 2 0 6 -4 9 -8z m-309 -33 c25 -11
58 -32 65 -41 3 -4 17 -11 31 -16 24 -10 25 -14 28 -105 1 -66 -1 -97 -10
-103 -8 -5 -10 -3 -4 7 5 8 -4 2 -19 -13 -16 -15 -37 -30 -49 -34 -12 -4 -27
-13 -35 -20 -7 -8 -18 -12 -23 -9 -5 4 -9 1 -9 -4 0 -6 -9 -11 -20 -11 -11 0
-20 5 -20 10 0 5 -3 9 -7 9 -21 -3 -33 3 -33 17 0 10 -5 14 -15 10 -9 -3 -18
0 -21 7 -2 7 -14 14 -26 14 -36 3 -42 19 -43 119 0 94 0 97 25 108 14 6 31 16
38 23 8 7 17 11 22 8 4 -3 11 2 14 11 3 8 10 12 16 9 5 -3 10 -1 10 5 0 6 5 8
10 5 6 -3 10 -1 10 5 0 11 22 7 65 -11z m284 -5 c-14 -7 -25 -8 -27 -3 -2 5
-9 6 -14 3 -7 -4 -8 -2 -4 4 4 6 14 8 23 5 10 -4 14 -2 10 4 -5 7 1 9 14 6 21
-6 21 -6 -2 -19z m401 22 c0 -2 -7 -7 -16 -10 -8 -3 -12 -2 -9 4 6 10 25 14
25 6z m-1012 -179 l3 -76 -62 -36 -61 -36 -64 38 -64 37 0 71 0 71 63 36 62
36 60 -33 60 -33 3 -75z m513 95 c-6 -10 -8 -22 -6 -26 3 -3 2 -4 -2 -1 -11 8
-12 35 -2 35 4 0 6 8 2 18 -5 13 -3 14 6 6 10 -9 10 -17 2 -32z m-15 -78 c-15
-14 -16 -14 -16 4 0 11 6 22 13 25 19 6 21 -11 3 -29z m14 -63 c0 -10 -7 -18
-15 -18 -8 0 -15 4 -15 9 0 4 5 8 11 8 6 0 8 7 5 16 -3 8 -2 12 4 9 6 -3 10
-14 10 -24z m8 -70 c9 -25 8 -29 -4 -24 -8 3 -13 8 -10 10 3 3 1 16 -5 30 -5
14 -5 22 0 19 5 -3 14 -19 19 -35z m-45 -40 c-5 -20 -76 -65 -87 -54 -3 3 -6
1 -6 -5 0 -15 -51 -40 -70 -35 -10 3 -11 2 -4 -4 7 -5 11 -42 11 -95 -1 -55 4
-92 12 -101 8 -11 9 -17 1 -22 -6 -3 -7 -11 -4 -17 5 -7 2 -8 -6 -3 -8 5 -11
3 -8 -6 3 -8 14 -15 26 -17 12 -2 20 -8 17 -13 -7 -10 -85 31 -85 45 0 4 7 5
16 2 27 -10 37 4 18 26 -11 12 -14 22 -8 26 11 8 12 42 1 59 -4 6 -3 14 3 18
5 3 10 17 10 31 0 14 -3 23 -7 21 -5 -3 -8 8 -7 24 0 19 9 36 24 46 13 9 20
11 16 5 -4 -7 -3 -12 3 -12 6 0 15 9 21 20 6 12 21 20 35 20 17 0 25 6 25 18
0 14 2 15 10 2 8 -13 10 -12 10 3 0 10 4 16 9 13 5 -3 11 1 15 9 8 21 15 19 9
-4z m84 4 c0 -8 -4 -12 -9 -9 -5 3 -6 10 -3 15 9 13 12 11 12 -6z m49 -13 c-4
-3 -14 2 -24 12 -16 18 -16 18 6 6 13 -6 21 -14 18 -18z m46 -30 c-6 -2 -10
-8 -7 -13 4 -5 0 -6 -7 -4 -8 3 -14 14 -14 24 0 16 3 18 21 9 13 -7 15 -13 7
-16z m-500 -25 l73 -44 3 -85 3 -85 -72 -41 c-39 -23 -76 -42 -82 -42 -6 0
-41 19 -79 41 l-68 41 0 87 0 86 73 42 c39 23 73 42 74 42 1 1 34 -18 75 -42z
m-412 -36 l45 -27 3 -66 3 -66 -57 -32 -57 -32 -41 22 c-64 35 -70 44 -72 110
l-1 60 51 30 c28 16 58 29 66 29 8 0 35 -13 60 -28z m513 -253 c-2 -5 -11 -8
-20 -8 -9 0 -22 -8 -30 -17 -10 -13 -13 -14 -11 -3 2 8 7 19 12 25 10 11 57
14 49 3z m-349 -23 c8 -9 17 -15 18 -13 2 1 92 -47 107 -58 6 -5 8 -133 1
-129 -3 2 -5 -11 -5 -28 0 -28 -7 -36 -73 -75 l-72 -44 -65 36 c-92 52 -92 53
-93 143 0 44 2 84 6 90 8 12 141 93 154 93 3 0 13 -7 22 -15z m274 -20 c-3 -3
-9 2 -12 12 -6 14 -5 15 5 6 7 -7 10 -15 7 -18z m199 10 c0 -8 -4 -12 -9 -9
-5 3 -6 10 -3 15 9 13 12 11 12 -6z m-223 -27 c-3 -5 -10 -6 -15 -3 -5 4 -9 1
-9 -6 0 -7 -3 -10 -6 -7 -3 3 0 15 7 27 9 14 16 17 20 9 4 -7 5 -16 3 -20z
m268 3 c-4 -10 -7 -11 -10 -3 -2 7 -9 9 -14 6 -6 -4 -8 -3 -5 3 10 16 36 11
29 -6z m-318 -33 c-9 -15 -22 -8 -19 10 2 9 4 19 4 22 1 3 5 -2 10 -10 6 -8 7
-18 5 -22z m6 -54 c0 -7 -6 -11 -14 -8 -8 3 -14 14 -13 24 1 14 4 16 14 8 7
-6 13 -17 13 -24z m-16 -59 c-4 -8 -8 -15 -10 -15 -2 0 -4 7 -4 15 0 8 4 15
10 15 5 0 7 -7 4 -15z m1 -74 c0 -22 -2 -38 -6 -35 -5 3 -5 61 0 72 4 9 6 -3
6 -37z m35 -26 c11 -13 10 -14 -4 -9 -9 3 -16 10 -16 15 0 13 6 11 20 -6z
m284 -31 c3 -8 2 -12 -4 -9 -6 3 -10 10 -10 16 0 14 7 11 14 -7z m-243 -17
c-10 -9 -11 -8 -5 6 3 10 9 15 12 12 3 -3 0 -11 -7 -18z m69 -17 c12 -9 10
-10 -10 -4 -14 4 -30 7 -37 7 -6 0 -9 6 -6 13 5 14 17 10 53 -16z m106 0 c0
-11 -6 -22 -14 -25 -7 -2 -11 -1 -9 3 2 4 7 15 10 25 8 22 13 22 13 -3z m235
6 c14 8 11 -2 -4 -14 -10 -8 -13 -6 -14 11 0 12 1 16 4 9 3 -6 9 -10 14 -6z
m-22 -41 l71 -40 -2 -94 -3 -94 -76 -39 c-72 -38 -78 -39 -100 -25 -13 8 -44
26 -69 40 l-45 25 -3 93 -2 94 72 41 c40 23 76 41 80 40 3 0 38 -19 77 -41z
m-246 14 c-4 -15 -8 -17 -14 -8 -6 11 4 28 18 29 0 0 -1 -9 -4 -21z m304 -14
c0 -8 -4 -12 -9 -9 -5 3 -6 10 -3 15 9 13 12 11 12 -6z m-476 -27 l59 -33 0
-71 0 -72 -61 -36 -61 -36 -59 36 c-58 35 -63 42 -62 99 2 85 1 82 56 113 28
16 56 30 61 31 5 0 35 -14 67 -31z m519 23 c0 -5 -7 -12 -16 -15 -14 -5 -15
-4 -4 9 14 17 20 19 20 6z m-930 -56 c38 -24 40 -28 40 -74 0 -48 -1 -50 -46
-76 l-46 -27 -44 24 -44 23 0 57 c0 56 1 58 38 77 48 26 55 26 102 -4z m993
-107 c-3 -50 -1 -78 5 -70 7 10 14 9 33 -6 13 -11 30 -21 38 -24 8 -2 15 -12
17 -21 2 -13 -2 -15 -16 -7 -10 5 -20 16 -23 25 -4 8 -12 12 -19 10 -8 -3 -22
1 -32 8 -28 20 -28 152 0 167 0 0 -1 -37 -3 -82z m387 10 c0 -5 -7 -8 -15 -8
-15 0 -20 21 -8 33 7 7 23 -11 23 -25z m-4 -64 c-3 -8 -10 -13 -16 -9 -6 4 -5
13 3 26 13 21 23 8 13 -17z m-59 -74 c-13 -11 -37 -21 -53 -24 -16 -4 -23 -3
-16 0 6 3 10 9 8 13 -3 4 5 7 17 7 12 -1 21 4 20 9 -1 6 10 11 23 11 l24 2
-23 -18z m-695 -60 l68 -41 0 -84 0 -84 -69 -41 -70 -40 -65 36 c-36 20 -68
40 -71 45 -3 4 -7 43 -8 86 l-2 78 70 42 c39 23 72 43 74 43 3 0 35 -18 73
-40z m-370 -122 l3 -62 -44 -28 c-55 -34 -61 -35 -122 -1 l-49 26 0 62 0 62
57 30 56 31 48 -29 c47 -30 47 -30 51 -91z m516 -131 c5 -24 -15 -21 -21 4 -3
13 -1 19 6 16 7 -2 13 -11 15 -20z m-61 -18 c2 -16 -1 -18 -11 -10 -7 6 -15
10 -17 8 -2 -1 2 4 10 11 8 6 15 12 16 12 0 0 1 -9 2 -21z m116 -16 c-4 -11
-3 -14 5 -9 7 4 12 2 12 -4 0 -6 5 -8 10 -5 6 3 10 1 10 -5 0 -6 5 -8 12 -4 7
4 8 3 4 -4 -5 -9 -15 -8 -37 3 -29 15 -35 26 -22 38 11 11 13 8 6 -10z m-169
-8 c-4 -8 -11 -12 -16 -9 -6 4 -5 10 3 15 19 12 19 11 13 -6z m-70 -40 c-5
-11 -2 -13 10 -9 9 3 16 10 16 15 0 5 5 9 10 9 21 0 8 -17 -26 -33 -23 -11
-33 -22 -28 -30 4 -6 3 -8 -1 -4 -13 11 -15 38 -2 30 6 -4 8 0 4 10 -5 13 -1
19 20 26 1 1 0 -6 -3 -14z"/>
<path d="M727 1820 c-38 -22 -74 -37 -79 -34 -7 5 -8 2 -3 -6 5 -8 8 -46 7
-85 -2 -82 -2 -82 91 -134 l57 -33 45 27 c25 14 51 23 58 19 6 -4 9 -4 5 1 -4
4 2 15 14 25 18 14 21 26 19 81 -1 45 2 60 9 49 6 -9 10 -10 10 -3 0 6 -5 15
-11 18 -6 4 -8 13 -6 20 3 7 -24 29 -68 54 -40 22 -74 41 -76 41 -2 0 -35 -18
-72 -40z"/>
<path d="M343 1787 l-53 -31 0 -61 0 -61 54 -31 54 -31 51 30 52 29 -3 65 -3
65 -50 28 -50 28 -52 -30z"/>
<path d="M820 1256 c0 -2 8 -10 18 -17 15 -13 16 -12 3 4 -13 16 -21 21 -21
13z"/>
<path d="M535 1460 l-60 -37 -3 -76 -3 -76 65 -36 64 -36 43 24 c92 49 89 44
89 124 l0 72 -62 37 c-35 20 -65 38 -68 39 -3 1 -32 -14 -65 -35z"/>
<path d="M143 1424 c-42 -24 -43 -26 -43 -78 l0 -53 50 -27 50 -27 45 26 c45
27 45 27 45 83 0 57 0 57 -42 80 -53 27 -54 27 -105 -4z"/>
<path d="M375 1144 c-11 -9 -41 -27 -67 -40 l-48 -24 0 -79 0 -78 61 -36 c34
-21 69 -37 77 -37 8 0 41 16 74 36 l59 36 -3 80 -3 81 -64 38 c-34 22 -64 39
-65 39 0 0 -10 -8 -21 -16z"/>
<path d="M925 762 l-60 -38 2 -55 c1 -30 2 -63 2 -75 1 -14 20 -31 66 -56 l65
-37 65 37 66 36 -3 81 -3 80 -60 32 c-33 18 -64 33 -70 33 -5 0 -37 -17 -70
-38z"/>
<path d="M538 738 l-48 -30 0 -57 0 -57 54 -31 54 -31 51 29 51 29 0 63 0 62
-49 28 c-27 15 -53 27 -57 26 -5 0 -30 -14 -56 -31z"/>
<path d="M158 717 c-34 -20 -38 -26 -38 -64 0 -37 4 -44 37 -64 l36 -23 36 21
c32 18 36 26 39 65 3 42 1 45 -35 65 l-38 21 -37 -21z"/>
<path d="M740 414 c-61 -37 -72 -64 -61 -144 6 -38 11 -44 64 -74 l58 -33 60
35 60 35 -3 75 -3 74 -60 33 -60 33 -55 -34z"/>
<path d="M353 384 c-42 -25 -43 -27 -43 -79 0 -53 1 -54 44 -78 l44 -24 46 26
c45 25 46 27 46 76 0 49 -1 51 -45 78 -25 15 -47 27 -48 27 -1 -1 -21 -12 -44
-26z"/>
<path d="M134 1991 c3 -4 19 -14 35 -20 25 -11 34 -10 67 8 l39 20 -73 1 c-40
0 -71 -4 -68 -9z"/>
<path d="M490 1991 c0 -5 24 -23 54 -40 l54 -31 48 28 c77 45 70 52 -50 52
-58 0 -106 -4 -106 -9z"/>
<path d="M870 1980 c0 -13 20 -30 65 -55 l65 -37 65 38 c42 25 65 45 65 56 0
16 -12 18 -130 18 -122 0 -130 -1 -130 -20z"/>
<path d="M1576 1983 c-4 -9 -2 -21 4 -27 8 -8 17 -4 31 14 l20 25 -5 -32 c-2
-18 1 -36 6 -39 7 -5 8 -2 4 7 -4 8 -1 6 7 -3 8 -10 22 -18 31 -18 10 0 14 -4
11 -10 -3 -5 -1 -10 5 -10 6 0 8 -5 4 -12 -4 -7 -3 -8 5 -4 6 4 8 13 4 19 -7
12 27 -12 38 -26 3 -5 9 -8 13 -8 19 3 27 0 22 -7 -14 -23 37 -3 114 43 69 42
86 56 88 78 l3 27 -199 0 c-177 0 -201 -2 -206 -17z"/>
<path d="M1898 1858 l-88 -52 0 -98 c0 -54 4 -98 9 -98 5 0 11 -10 13 -22 3
-24 83 -71 106 -63 7 3 10 1 7 -5 -7 -11 32 -33 45 -25 12 7 14 415 3 415 -5
0 -47 -23 -95 -52z m-71 -90 c-3 -7 -5 -2 -5 12 0 14 2 19 5 13 2 -7 2 -19 0
-25z m0 -95 c-2 -16 -4 -5 -4 22 0 28 2 40 4 28 2 -13 2 -35 0 -50z"/>
<path d="M0 1695 c0 -36 2 -65 5 -65 2 0 16 5 30 12 34 15 36 79 3 102 -12 9
-26 16 -30 16 -5 0 -8 -29 -8 -65z"/>
<path d="M1746 1535 c-9 -7 -13 -15 -9 -19 4 -4 -1 -4 -11 0 -13 5 -17 4 -13
-3 4 -6 -1 -10 -11 -9 -9 0 -16 -5 -14 -12 1 -8 -2 -11 -7 -7 -6 3 -24 -1 -40
-9 l-30 -16 1 -107 c0 -60 4 -114 10 -120 13 -16 42 -17 32 -1 -4 7 -3 8 4 4
6 -4 9 -13 5 -21 -3 -9 1 -15 10 -15 9 0 22 -6 29 -14 30 -30 77 -47 98 -36
14 8 20 8 20 0 0 -6 5 -8 10 -5 6 4 8 11 5 16 -3 5 1 6 10 3 18 -7 68 23 60
36 -4 6 1 7 11 3 11 -4 15 -3 10 5 -3 6 -1 14 5 18 8 4 9 3 5 -4 -4 -7 -1 -12
9 -12 11 0 15 5 11 16 -3 8 -2 12 4 9 6 -3 10 1 10 9 0 9 7 16 15 16 12 0 15
16 15 85 0 76 -10 106 -23 73 -3 -7 -6 -3 -7 10 -2 12 -3 26 -4 32 -2 16 -46
42 -62 36 -8 -3 -12 -2 -9 4 7 11 -32 33 -45 25 -6 -4 -9 -1 -8 6 4 17 -74 20
-96 4z"/>
<path d="M1554 1193 c-27 -14 -70 -40 -96 -57 l-48 -31 0 -106 c0 -84 3 -109
15 -119 13 -11 13 -15 3 -22 -9 -7 -6 -8 9 -5 14 3 21 0 20 -7 -1 -6 6 -10 15
-10 10 1 15 -3 11 -9 -4 -6 0 -8 11 -4 10 4 15 3 11 -3 -3 -5 8 -16 24 -24 16
-9 36 -23 45 -31 14 -15 16 -15 16 -1 0 9 3 15 8 14 16 -5 164 86 172 106 5
11 9 16 9 9 1 -7 8 -10 16 -7 8 3 26 -3 40 -14 17 -13 21 -22 13 -25 -7 -2 4
-8 24 -12 21 -4 36 -11 33 -15 -5 -8 16 -19 40 -21 6 0 14 -7 18 -15 7 -12 12
-13 23 -3 11 9 14 50 14 204 0 107 -3 200 -6 209 -5 12 -10 13 -25 5 -11 -5
-17 -14 -14 -19 3 -6 -1 -7 -10 -4 -18 7 -68 -23 -60 -36 4 -6 -1 -7 -11 -3
-11 4 -15 2 -11 -4 4 -6 0 -10 -9 -9 -9 0 -18 -7 -20 -18 -4 -31 -19 -39 -43
-24 -11 7 -21 19 -21 26 0 8 -5 10 -12 6 -8 -5 -7 0 2 11 8 10 10 16 3 12 -6
-4 -13 -4 -15 0 -6 14 -99 53 -110 47 -7 -4 -8 -2 -4 4 3 6 -2 16 -12 21 -14
8 -31 4 -68 -16z m273 -159 c-3 -3 -12 -4 -19 -1 -8 3 -5 6 6 6 11 1 17 -2 13
-5z m-44 -34 c-3 -12 -8 -19 -11 -16 -5 6 5 36 12 36 2 0 2 -9 -1 -20z m7 -64
c0 -3 -4 -8 -10 -11 -5 -3 -10 -1 -10 4 0 6 5 11 10 11 6 0 10 -2 10 -4z m35
-6 c4 -6 1 -9 -7 -8 -7 2 -12 -3 -10 -9 1 -7 -2 -13 -8 -13 -12 0 -12 3 -4 24
7 18 20 21 29 6z"/>
<path d="M0 1000 c0 -49 3 -90 8 -90 4 0 22 9 40 20 29 18 32 24 32 69 0 45
-3 51 -34 70 -18 12 -36 21 -40 21 -3 0 -6 -40 -6 -90z"/>
<path d="M980 951 c0 -6 4 -13 10 -16 6 -3 7 1 4 9 -7 18 -14 21 -14 7z"/>
<path d="M1898 467 l-88 -52 0 -95 c0 -63 4 -101 13 -109 10 -11 9 -12 -2 -6
-10 6 -12 4 -7 -4 5 -7 15 -10 23 -7 9 4 11 2 7 -6 -5 -8 -2 -9 9 -5 10 4 16
2 14 -6 -1 -7 6 -11 15 -11 10 1 15 -3 11 -9 -4 -6 0 -8 10 -4 10 4 16 2 14
-5 -1 -6 4 -13 12 -16 9 -3 11 0 6 8 -5 9 -4 11 4 6 6 -4 8 -12 5 -18 -5 -8
-1 -9 10 -5 9 4 15 3 12 -2 -7 -10 19 -23 28 -14 9 9 7 413 -1 412 -5 0 -47
-23 -95 -52z"/>
<path d="M0 305 c0 -58 4 -63 33 -41 22 17 22 65 0 82 -29 22 -33 17 -33 -41z"/>
<path d="M1744 149 c-91 -49 -134 -78 -134 -92 0 -6 -3 -22 -6 -34 l-6 -23
201 0 201 0 0 24 c0 13 -7 26 -15 30 -8 3 -15 12 -15 21 0 8 -6 16 -12 17 -7
0 -18 2 -23 2 -6 1 -21 12 -33 24 -13 13 -30 21 -38 18 -8 -3 -13 -2 -10 2 3
5 -8 16 -23 25 -28 16 -30 16 -87 -14z m-117 -121 c-3 -7 -5 -2 -5 12 0 14 2
19 5 13 2 -7 2 -19 0 -25z"/>
<path d="M138 57 c-88 -48 -78 -57 62 -57 137 0 142 6 56 58 -30 18 -56 32
-58 32 -1 0 -29 -15 -60 -33z"/>
</g>
</svg>
