<?xml version="1.0" standalone="no"?>
<!DOCTYPE svg PUBLIC "-//W3C//DTD SVG 20010904//EN"
 "http://www.w3.org/TR/2001/REC-SVG-20010904/DTD/svg10.dtd">
<svg version="1.0" xmlns="http://www.w3.org/2000/svg"
 width="200.000000pt" height="200.000000pt" viewBox="0 0 200.000000 200.000000"
 preserveAspectRatio="xMidYMid meet">
<metadata>
Created by potrace 1.16, written by Peter Selinger 2001-2019
</metadata>
<g transform="translate(0.000000,200.000000) scale(0.100000,-0.100000)"
fill="#000000" stroke="none">
<path d="M1 1859 c-1 -109 2 -139 12 -133 9 5 9 4 0 -7 -13 -13 -20 -239 -7
-239 17 0 44 23 38 32 -4 7 -3 8 4 4 15 -9 118 49 114 65 -2 6 3 9 12 6 13 -5
15 11 15 105 0 93 -2 113 -17 125 -9 8 -11 11 -3 7 10 -5 13 -3 8 8 -4 12 0
15 17 14 15 -1 22 -8 23 -21 1 -11 -1 -14 -4 -7 -3 6 -9 10 -14 6 -5 -3 -6
-11 -2 -17 4 -6 6 -53 5 -104 l-2 -92 25 11 c14 6 25 15 25 20 0 4 6 8 13 8 6
0 36 15 65 33 43 27 50 35 40 47 -11 12 -10 12 4 1 14 -10 21 -9 43 5 14 9 28
14 31 11 3 -3 -4 -11 -16 -17 -18 -10 -19 -14 -8 -27 12 -15 11 -15 -9 -4 -15
7 -23 8 -23 1 0 -5 -8 -10 -17 -10 -26 0 -83 -37 -83 -55 0 -8 -6 -12 -14 -9
-16 6 -76 -22 -76 -35 0 -5 10 -16 23 -25 22 -16 22 -16 0 -6 -12 5 -24 10
-27 10 -3 0 -5 -45 -5 -100 0 -62 3 -98 9 -95 6 4 10 1 10 -4 0 -6 -4 -11 -8
-11 -14 0 -14 -132 0 -142 10 -6 10 -8 1 -8 -14 0 -18 -57 -7 -96 6 -23 67
-60 83 -49 7 3 10 1 9 -6 -4 -15 72 -61 90 -54 6 2 12 -2 12 -10 0 -8 5 -15
10 -15 6 0 10 5 10 10 0 6 4 10 10 10 5 0 7 -7 4 -15 -4 -9 6 -22 30 -35 19
-12 38 -21 42 -20 4 1 10 -2 13 -7 13 -19 58 -40 83 -40 15 0 33 -7 41 -14 8
-8 46 -30 85 -49 41 -20 74 -43 78 -55 4 -11 6 -60 6 -110 -2 -100 4 -129 22
-122 7 3 13 0 13 -7 0 -6 -8 -12 -18 -12 -10 0 -15 4 -12 9 9 14 -38 -3 -77
-29 -19 -13 -55 -34 -80 -47 l-45 -24 -1 -116 c0 -64 2 -115 5 -113 3 1 15 -6
25 -17 19 -20 19 -20 0 -13 -40 17 -50 16 -84 -6 -19 -12 -53 -31 -75 -43 -23
-12 -50 -28 -60 -34 -17 -11 -32 -5 -105 37 -47 28 -93 57 -102 66 -20 18 -32
21 -23 7 3 -5 1 -12 -4 -15 -5 -4 -8 5 -6 19 2 20 -4 29 -25 40 -15 8 -30 11
-34 8 -3 -4 -6 -1 -6 5 0 5 -24 24 -53 41 -28 17 -48 31 -43 31 5 0 34 -14 63
-30 30 -17 59 -28 65 -24 6 4 8 3 4 -4 -3 -6 7 -17 22 -25 25 -12 33 -12 56 0
15 8 24 19 20 25 -5 7 -2 9 8 6 8 -4 38 7 65 22 l51 29 1 106 c2 87 -1 105
-13 105 -8 0 -18 -4 -21 -10 -3 -5 -11 -10 -18 -10 -6 0 -2 6 8 14 17 12 13
16 -51 55 -39 22 -75 41 -81 41 -6 0 -13 6 -16 13 -3 9 -9 9 -26 -1 -28 -16
-41 -15 -18 2 17 13 13 18 -53 56 -39 23 -69 44 -67 46 3 3 39 -16 81 -41 67
-41 79 -45 94 -33 15 12 16 11 3 -4 -12 -16 -11 -18 3 -18 9 0 16 -3 16 -8 0
-4 21 -18 47 -32 33 -17 48 -21 51 -12 2 6 8 12 14 12 7 0 6 -5 -1 -14 -9 -11
-6 -17 15 -31 22 -14 28 -15 35 -4 9 15 13 -4 9 -48 -1 -12 4 -31 10 -42 7
-14 7 -21 0 -21 -5 0 -10 -22 -10 -50 0 -31 4 -50 12 -50 18 0 166 89 171 103
3 7 5 57 6 110 1 72 -2 97 -11 97 -9 0 -10 2 -2 8 14 9 19 192 5 192 -5 0 -16
-6 -23 -13 -7 -7 -28 -19 -47 -27 -39 -16 -81 -52 -81 -69 0 -7 -4 -10 -10 -6
-5 3 -7 12 -3 20 3 8 0 15 -7 15 -6 0 -9 -4 -5 -9 3 -6 -3 -9 -14 -8 -15 1
-17 4 -8 18 6 9 18 14 28 12 10 -3 40 8 66 24 26 15 60 35 76 42 15 8 27 17
27 21 0 3 -19 16 -42 28 -24 13 -63 34 -86 48 -24 13 -49 21 -54 18 -6 -4 -8
-3 -5 3 5 8 -121 91 -166 109 -9 3 -17 15 -17 26 0 10 -4 17 -9 14 -5 -3 -11
1 -15 9 -3 8 -1 15 4 15 6 0 9 40 7 95 -2 81 -5 96 -22 109 -20 14 -20 15 0
13 19 -2 20 5 22 101 0 56 -1 102 -4 102 -3 0 -17 -8 -31 -17 -43 -29 -65 -41
-100 -59 -42 -22 -48 -32 -26 -50 18 -13 18 -14 1 -8 -16 6 -18 -1 -16 -94 1
-74 4 -99 13 -96 7 3 13 -2 13 -11 0 -9 -6 -14 -14 -11 -10 4 -13 -6 -13 -39
0 -25 5 -45 10 -45 6 0 10 -5 10 -11 0 -5 -4 -7 -10 -4 -6 4 -10 -20 -10 -65
0 -45 4 -69 10 -65 5 3 10 -1 10 -10 0 -9 -4 -13 -10 -10 -6 4 -10 -67 -10
-200 1 -136 4 -204 11 -200 5 4 7 16 3 27 -6 20 -6 20 19 2 25 -19 25 -19 3
-27 -21 -8 -21 -8 4 -28 14 -12 19 -18 12 -14 -8 4 -21 -1 -32 -12 -15 -17
-18 -40 -19 -173 0 -108 3 -158 12 -169 10 -12 9 -13 -1 -7 -10 6 -12 -10 -10
-76 l3 -83 39 -3 c25 -2 36 0 31 7 -3 6 -2 11 4 11 5 0 13 -5 16 -10 4 -6 55
-10 127 -9 l121 2 -33 17 c-20 10 -28 19 -20 22 7 2 25 -7 39 -19 20 -19 34
-23 70 -21 30 2 45 7 44 15 -2 7 4 10 13 6 12 -4 12 -8 4 -13 -7 -4 33 -8 90
-9 70 -1 107 2 118 11 9 8 13 8 9 2 -5 -8 19 -12 84 -13 79 -1 93 1 108 18 12
14 22 17 32 10 10 -6 10 -9 2 -9 -7 0 -13 -4 -13 -9 0 -5 50 -9 110 -10 102 0
136 9 94 26 -13 5 -13 7 -2 14 18 12 30 11 23 -1 -3 -6 1 -13 10 -16 12 -5 13
-9 5 -14 -7 -4 26 -8 72 -9 58 -1 78 2 68 9 -13 8 -12 10 4 10 12 0 16 5 12
15 -7 19 5 19 30 1 18 -14 18 -14 0 -13 -10 1 -21 -4 -23 -11 -4 -9 21 -12
106 -11 106 1 130 7 95 27 -14 8 -13 10 5 15 12 3 18 1 15 -4 -3 -5 2 -12 11
-15 13 -6 14 -8 3 -15 -8 -5 16 -9 60 -9 39 0 72 4 72 9 0 5 10 11 22 15 22 5
23 6 3 21 -18 15 -17 15 13 0 36 -17 40 -23 16 -21 -9 0 -19 -5 -21 -11 -4
-10 22 -13 106 -13 61 0 111 4 111 9 0 5 -9 15 -21 22 -20 14 -20 14 4 14 14
0 23 -3 20 -8 -2 -4 3 -10 11 -13 9 -3 13 -10 10 -15 -3 -5 11 -9 30 -9 32 0
36 3 36 26 0 24 -2 25 -17 13 -17 -13 -17 -13 0 7 18 22 23 39 8 30 -5 -3 -14
1 -21 9 -10 12 -8 13 9 10 18 -3 21 1 21 36 0 29 -3 38 -12 33 -10 -6 -10 -4
0 7 6 7 12 36 12 63 0 37 -3 47 -10 36 -8 -12 -10 -10 -10 9 0 18 -4 22 -20
18 -11 -3 -18 -1 -14 4 3 5 12 9 20 9 8 0 14 10 14 23 0 18 2 19 10 7 7 -11
10 1 10 40 0 38 -3 50 -10 40 -7 -12 -9 -10 -7 7 0 12 5 19 9 17 4 -3 8 14 8
38 0 31 -3 39 -10 28 -7 -11 -10 -11 -10 -2 0 8 -5 10 -12 6 -7 -4 -2 6 9 22
18 25 21 45 22 117 0 67 -2 86 -12 81 -9 -5 -9 -4 1 7 16 18 15 29 -3 29 -8 0
-15 5 -15 10 0 6 7 10 15 10 11 0 15 11 14 43 0 23 -3 36 -6 30 -8 -21 -22
-15 -16 7 3 11 9 17 14 14 5 -3 9 16 9 41 0 28 -4 44 -10 40 -5 -3 -10 3 -10
15 0 12 -4 19 -9 15 -5 -3 -13 0 -17 6 -5 8 -3 9 5 5 8 -5 14 0 18 13 3 11 9
18 14 15 5 -3 9 16 9 41 0 28 -4 44 -10 40 -6 -3 -10 4 -10 17 0 18 2 20 10 8
7 -11 10 -4 10 28 0 31 -4 42 -15 42 -8 0 -15 5 -15 10 0 6 7 10 15 10 18 0
19 11 3 29 -11 11 -10 13 0 7 9 -6 12 15 11 93 -1 55 -5 98 -9 96 -3 -2 -11 5
-18 15 -10 16 -9 18 8 15 17 -3 20 2 20 36 0 22 -4 38 -9 35 -5 -3 -11 3 -14
14 -6 22 8 28 16 8 3 -7 6 11 6 41 1 47 -1 52 -14 41 -13 -11 -14 -10 -9 5 4
10 1 21 -7 26 -10 6 -10 9 -1 9 6 0 12 10 12 23 0 18 2 19 10 7 7 -11 10 -1
10 35 0 28 -6 57 -12 64 -10 11 -10 13 0 7 9 -5 12 4 12 33 0 31 -4 41 -16 41
-8 0 -12 5 -9 10 4 6 10 8 14 6 4 -3 8 13 9 34 l2 40 -40 -2 c-23 -1 -36 -4
-30 -8 8 -5 6 -9 -5 -14 -9 -3 -14 -10 -11 -15 3 -5 -3 -7 -15 -4 -18 5 -19 7
-5 15 35 20 11 26 -95 27 -85 1 -110 -2 -106 -11 2 -7 13 -12 23 -11 18 1 18
1 0 -13 -25 -18 -37 -18 -30 1 4 9 0 15 -10 15 -9 0 -16 5 -16 10 0 6 -31 10
-72 10 -44 0 -68 -4 -60 -9 11 -7 10 -9 -3 -15 -9 -3 -14 -9 -12 -13 3 -5 -6
-8 -20 -8 -24 0 -24 0 -4 14 12 7 21 17 21 21 0 5 -49 9 -110 9 -101 0 -136
-10 -94 -26 13 -5 13 -7 2 -14 -20 -13 -28 -11 -22 6 4 9 0 15 -10 15 -9 0
-16 5 -16 10 0 6 -31 10 -72 10 -51 0 -68 -3 -58 -10 13 -8 12 -10 -4 -10 -11
0 -16 -5 -13 -14 4 -10 0 -12 -15 -8 -18 4 -18 6 -4 14 35 20 11 27 -94 27
-61 0 -110 -5 -110 -10 0 -5 -7 -9 -16 -9 -8 0 -12 5 -9 10 4 6 -9 10 -31 10
-34 0 -36 -2 -31 -27 7 -38 -1 -51 -45 -74 -23 -12 -36 -24 -32 -31 4 -6 3 -8
-4 -5 -10 7 -92 -31 -92 -43 0 -3 -14 -7 -31 -8 -41 -3 -91 -30 -83 -44 4 -7
3 -8 -4 -4 -6 4 -21 2 -33 -5 -15 -8 -19 -8 -14 0 3 6 29 23 57 37 l50 25 -76
45 c-42 25 -81 42 -86 39 -9 -6 -14 8 -11 28 0 4 -4 7 -10 7 -6 0 -9 -7 -5
-15 7 -19 -5 -19 -30 -1 -19 14 -19 14 1 13 11 -1 19 3 18 9 -4 19 31 11 39
-9 5 -11 13 -15 20 -11 7 4 10 4 6 -1 -5 -5 1 -13 11 -19 11 -6 41 -23 67 -38
25 -16 48 -28 50 -28 2 0 4 35 4 78 l0 78 -51 3 c-30 1 -48 -2 -45 -7 3 -6 -1
-13 -10 -16 -22 -9 -24 -8 -18 9 5 12 -5 15 -61 15 -38 0 -64 -4 -60 -9 3 -5
1 -12 -4 -15 -5 -3 -11 1 -15 9 -4 12 -24 15 -86 15 -47 0 -80 -4 -80 -10 0
-5 -5 -10 -11 -10 -5 0 -7 5 -4 10 12 19 -36 10 -75 -15 -22 -14 -40 -22 -40
-17 0 5 14 15 32 23 l32 16 -36 1 -36 1 -1 -140z m524 101 c3 -6 -1 -7 -9 -4
-18 7 -21 14 -7 14 6 0 13 -4 16 -10z m-200 -10 c3 -5 1 -10 -4 -10 -6 0 -11
5 -11 10 0 6 2 10 4 10 3 0 8 -4 11 -10z m885 0 c0 -5 -4 -10 -10 -10 -5 0
-10 5 -10 10 0 6 5 10 10 10 6 0 10 -4 10 -10z m400 0 c0 -5 -4 -10 -10 -10
-5 0 -10 -8 -10 -18 0 -10 -6 -19 -13 -19 -8 0 -14 6 -14 13 0 7 4 11 8 8 4
-2 10 5 14 16 7 20 25 28 25 10z m-1473 -32 c-3 -7 -5 -2 -5 12 0 14 2 19 5
13 2 -7 2 -19 0 -25z m-97 15 c0 -5 -5 -15 -10 -23 -8 -12 -10 -11 -10 8 0 12
5 22 10 22 6 0 10 -3 10 -7z m976 -18 c1 -8 -2 -12 -7 -9 -6 3 -17 0 -25 -7
-8 -6 -17 -9 -21 -5 -3 3 -1 6 5 6 7 0 12 7 12 16 0 8 5 12 10 9 6 -3 10 -1
10 6 0 16 13 3 16 -16z m800 11 c10 4 16 4 12 -1 -4 -4 -2 -15 5 -23 11 -13 9
-14 -13 -2 -17 9 -25 10 -28 1 -2 -6 -9 -11 -15 -11 -8 0 -8 3 0 11 6 6 9 19
6 28 -4 12 -2 13 4 3 6 -7 17 -10 29 -6z m-979 -11 c0 -6 -6 -12 -14 -12 -7 0
-13 6 -13 12 0 6 6 12 13 12 8 0 14 -6 14 -12z m394 -2 c13 -15 12 -15 -8 -4
-16 8 -29 9 -41 2 -14 -7 -19 -6 -19 3 0 19 53 18 68 -1z m195 9 c-3 -3 -1
-11 5 -19 14 -16 -2 -18 -19 -1 -8 8 -15 8 -29 -3 -16 -12 -17 -12 -6 2 7 9
11 18 9 20 -2 2 7 5 20 5 14 1 23 -1 20 -4z m214 3 c0 -2 -8 -9 -18 -14 -14
-7 -19 -6 -19 3 0 6 9 13 19 13 10 1 18 0 18 -2z m-1440 -9 c0 -3 -4 -8 -10
-11 -5 -3 -10 -1 -10 4 0 6 5 11 10 11 6 0 10 -2 10 -4z m127 -26 c1 -11 -2
-20 -8 -20 -5 0 -9 9 -9 20 0 11 4 20 8 20 4 0 8 -9 9 -20z m-184 -23 c-4 -22
-43 -57 -43 -38 0 5 7 12 16 15 9 3 14 12 11 20 -6 14 1 26 13 26 4 0 5 -10 3
-23z m742 13 c3 -5 1 -10 -4 -10 -6 0 -11 5 -11 10 0 6 2 10 4 10 3 0 8 -4 11
-10z m841 -27 c-3 -3 -12 0 -20 6 -8 7 -19 10 -24 7 -5 -3 -9 1 -9 9 0 12 5
11 30 -1 16 -9 26 -18 23 -21z m-1456 23 c0 -3 -4 -8 -10 -11 -5 -3 -10 -1
-10 4 0 6 5 11 10 11 6 0 10 -2 10 -4z m856 -8 c4 -7 3 -8 -4 -4 -6 4 -24 -1
-39 -10 l-28 -16 24 21 c26 24 37 26 47 9z m190 -3 c10 -8 15 -14 9 -14 -5 0
-19 6 -29 14 -11 8 -15 15 -10 15 6 0 19 -7 30 -15z m-1196 -5 c0 -5 -4 -10
-10 -10 -5 0 -10 5 -10 10 0 6 5 10 10 10 6 0 10 -4 10 -10z m175 0 c-3 -5
-12 -10 -18 -10 -7 0 -6 4 3 10 19 12 23 12 15 0z m109 -9 c-10 -10 -23 -16
-28 -13 -5 3 2 11 15 18 33 18 36 17 13 -5z m516 9 c0 -5 -2 -10 -4 -10 -3 0
-8 5 -11 10 -3 6 -1 10 4 10 6 0 11 -4 11 -10z m580 5 c0 -2 -10 -10 -22 -16
-21 -11 -22 -11 -9 4 13 16 31 23 31 12z m400 1 c0 -3 -4 -8 -10 -11 -5 -3
-10 -1 -10 4 0 6 5 11 10 11 6 0 10 -2 10 -4z m-1070 -21 c-7 -9 -15 -13 -19
-10 -3 3 1 10 9 15 21 14 24 12 10 -5z m382 -10 c9 4 14 -2 14 -14 0 -15 -3
-17 -13 -9 -9 7 -18 7 -30 -3 -12 -10 -15 -11 -9 -1 4 7 2 20 -6 29 -12 15
-11 15 9 5 12 -7 28 -10 35 -7z m-418 -4 c3 -5 0 -11 -7 -14 -8 -3 -14 1 -14
9 0 16 13 19 21 5z m221 -21 c-8 -9 -13 -19 -10 -21 2 -3 -5 -5 -15 -5 -17 0
-18 2 -5 16 8 9 15 22 15 28 0 6 7 9 15 5 14 -5 14 -7 0 -23z m609 21 c-2 -2
1 -10 7 -18 14 -17 -2 -17 -20 0 -11 10 -14 10 -18 0 -7 -20 -22 -15 -17 5 3
10 15 17 29 17 13 0 21 -2 19 -4z m-1204 -11 c0 -5 -2 -10 -4 -10 -3 0 -8 5
-11 10 -3 6 -1 10 4 10 6 0 11 -4 11 -10z m570 0 c0 -5 -4 -10 -10 -10 -5 0
-10 5 -10 10 0 6 5 10 10 10 6 0 10 -4 10 -10z m400 0 c0 -5 -4 -10 -10 -10
-5 0 -10 5 -10 10 0 6 5 10 10 10 6 0 10 -4 10 -10z m40 0 c0 -5 -4 -10 -10
-10 -5 0 -10 5 -10 10 0 6 5 10 10 10 6 0 10 -4 10 -10z m360 0 c0 -5 -4 -10
-10 -10 -5 0 -10 5 -10 10 0 6 5 10 10 10 6 0 10 -4 10 -10z m45 0 c3 -5 -1
-10 -10 -10 -9 0 -14 -4 -10 -9 6 -10 -13 -26 -21 -18 -8 7 15 47 26 47 5 0
12 -4 15 -10z m155 -10 c0 -5 -5 -10 -11 -10 -5 0 -7 5 -4 10 3 6 8 10 11 10
2 0 4 -4 4 -10z m-1850 -17 c0 -1 -9 -7 -20 -13 -15 -8 -20 -8 -20 3 0 7 9 13
20 13 11 0 20 -1 20 -3z m150 -11 c0 -7 -5 -10 -11 -6 -6 3 -15 0 -20 -7 -4
-7 -12 -10 -16 -5 -4 5 -2 11 5 13 6 3 10 8 8 12 -3 4 4 7 15 7 10 0 19 -6 19
-14z m315 8 c3 -5 1 -10 -4 -10 -6 0 -11 5 -11 10 0 6 2 10 4 10 3 0 8 -4 11
-10z m805 0 c0 -5 -4 -10 -10 -10 -5 0 -10 5 -10 10 0 6 5 10 10 10 6 0 10 -4
10 -10z m-690 -23 c0 -2 -9 -3 -20 -3 -11 0 -20 6 -20 13 0 11 5 11 20 3 11
-6 20 -12 20 -13z m189 6 c-13 -15 -11 -16 11 -10 23 6 24 5 6 -8 -16 -12 -21
-12 -32 0 -18 18 -18 23 4 28 9 3 19 5 21 6 2 0 -3 -7 -10 -16z m204 4 c4 3 7
1 7 -5 0 -7 -7 -12 -16 -12 -10 0 -14 -6 -10 -15 6 -17 -2 -19 -22 -6 -11 6
-10 10 3 15 11 4 15 12 11 22 -5 13 -4 14 7 6 8 -7 17 -9 20 -5z m203 -4 c-1
-12 6 -17 19 -16 20 1 20 1 1 -13 -26 -19 -34 -18 -32 4 0 9 -5 16 -11 15 -20
-4 -15 15 5 20 9 3 18 5 18 6 1 0 1 -7 0 -16z m191 -11 c-10 -2 -16 -10 -13
-17 3 -9 -2 -11 -15 -8 -18 5 -18 6 -3 18 10 7 14 17 9 24 -6 10 -2 10 16 0
21 -12 22 -14 6 -17z m226 -12 c7 0 6 -4 -3 -10 -22 -14 -30 -12 -24 5 4 10 0
15 -12 15 -16 0 -16 1 2 14 17 13 19 13 22 -5 2 -10 9 -19 15 -19z m177 30
c13 -9 13 -12 -3 -21 -9 -6 -15 -14 -12 -19 3 -4 -4 -6 -15 -3 -19 5 -19 6 -4
18 10 6 14 17 10 23 -9 15 4 15 24 2z m-1620 -30 c0 -5 -2 -10 -4 -10 -3 0 -8
5 -11 10 -3 6 -1 10 4 10 6 0 11 -4 11 -10z m410 -15 c11 -13 10 -14 -4 -9 -9
3 -16 10 -16 15 0 13 6 11 20 -6z m88 -7 c8 -8 15 -8 28 3 13 10 16 10 10 1
-4 -7 -2 -19 4 -27 10 -12 9 -15 -3 -15 -8 0 -17 5 -19 11 -2 5 -11 7 -21 3
-17 -6 -17 -7 0 -20 17 -13 17 -13 1 -14 -10 0 -18 5 -18 11 0 6 -6 9 -13 6
-8 -3 -14 1 -14 8 0 7 6 11 13 8 18 -7 29 18 13 28 -8 5 -9 9 -3 9 5 0 15 -5
22 -12z m424 0 c6 6 17 12 23 12 5 0 4 -4 -4 -9 -18 -12 -4 -34 18 -27 9 4 5
-2 -8 -12 -16 -13 -21 -24 -16 -33 8 -12 6 -12 -8 0 -13 10 -20 11 -31 2 -11
-9 -14 -8 -12 6 0 11 -5 18 -15 17 -9 -1 -16 4 -16 11 0 7 7 11 14 8 9 -4 16
3 20 17 4 16 8 18 14 8 6 -10 11 -10 21 0z m376 0 c8 -8 15 -8 28 3 15 12 16
12 9 0 -5 -9 0 -20 16 -32 21 -16 22 -17 4 -16 -14 1 -20 -4 -18 -17 1 -13 -2
-15 -10 -7 -16 16 -25 14 -30 -6 -3 -11 -5 -7 -6 10 -1 16 -7 27 -15 27 -8 0
-17 4 -20 9 -4 5 3 7 14 4 22 -6 29 22 8 30 -7 3 -8 6 -2 6 5 1 15 -4 22 -11z
m-578 -12 c0 -3 -4 -8 -10 -11 -5 -3 -10 -1 -10 4 0 6 5 11 10 11 6 0 10 -2
10 -4z m-405 -36 c3 -5 -1 -10 -10 -10 -9 0 -13 5 -10 10 3 6 8 10 10 10 2 0
7 -4 10 -10z m405 0 c0 -5 -8 -10 -17 -10 -15 0 -16 2 -3 10 19 12 20 12 20 0z
m405 0 c3 -5 -1 -10 -10 -10 -9 0 -13 5 -10 10 3 6 8 10 10 10 2 0 7 -4 10
-10z m400 0 c3 -5 -1 -10 -10 -10 -9 0 -13 5 -10 10 3 6 8 10 10 10 2 0 7 -4
10 -10z m-1690 -43 c-9 -4 -13 -12 -10 -17 3 -5 -4 -8 -15 -7 -20 1 -20 2 2
19 13 10 17 18 11 18 -7 0 -13 5 -13 10 0 6 8 5 20 -2 16 -11 17 -14 5 -21z
m395 -2 c-5 -6 -6 -15 -2 -20 4 -4 -3 -2 -15 4 -27 14 -31 23 -6 14 12 -5 15
-2 10 10 -4 11 -2 14 9 10 10 -4 12 -9 4 -18z m174 10 c-6 -16 6 -20 22 -7 5
4 1 -1 -9 -10 -24 -23 -38 -23 -30 -1 5 13 2 15 -13 10 -19 -7 -19 -7 0 8 25
19 37 19 30 0z m234 6 c11 -6 10 -10 -3 -15 -9 -3 -15 -12 -12 -20 4 -10 0
-12 -14 -9 -23 6 -25 23 -3 23 10 0 14 6 10 15 -6 17 2 19 22 6z m166 -6 c-4
-9 0 -15 10 -15 22 0 20 -17 -3 -23 -14 -3 -18 -1 -14 9 3 8 -3 17 -12 20 -13
5 -14 9 -3 15 20 13 28 11 22 -6z m234 6 c11 -6 10 -10 -3 -15 -9 -3 -15 -12
-12 -20 4 -10 0 -12 -14 -9 -23 6 -25 23 -3 23 10 0 14 6 10 15 -6 17 2 19 22
6z m168 -8 c0 -10 5 -17 12 -15 20 4 14 -15 -7 -21 -14 -3 -18 -1 -14 9 3 8
-3 17 -13 21 -16 6 -16 7 2 14 10 4 20 8 20 8 1 1 1 -7 0 -16z m234 7 c10 -6
11 -10 3 -10 -7 0 -13 -9 -13 -19 0 -14 -5 -18 -20 -14 -19 5 -19 6 -4 18 10
6 14 17 10 23 -9 14 4 15 24 2z m169 3 c-3 -20 2 -34 11 -28 6 3 10 1 10 -4 0
-6 -2 -11 -4 -11 -2 0 -11 -3 -19 -6 -10 -4 -15 1 -14 13 1 10 -4 17 -10 16
-20 -4 -15 15 5 20 9 3 18 5 20 6 1 0 1 -2 1 -6z m-1289 -53 c0 -5 -4 -10 -9
-10 -6 0 -13 5 -16 10 -3 6 1 10 9 10 9 0 16 -4 16 -10z m400 2 c0 -5 9 -18
20 -30 23 -24 19 -28 -11 -11 -11 5 -17 14 -14 20 4 5 1 9 -4 9 -6 0 -11 5
-11 10 0 6 5 10 10 10 6 0 10 -4 10 -8z m400 -2 c0 -5 -4 -10 -10 -10 -5 0
-10 -7 -10 -15 0 -8 -4 -15 -10 -15 -13 0 -13 6 2 30 14 21 28 26 28 10z m400
0 c0 -5 -4 -10 -10 -10 -5 0 -10 5 -10 10 0 6 5 10 10 10 6 0 10 -4 10 -10z
m-195 -20 c11 9 14 7 12 -8 -1 -14 -8 -19 -24 -18 -13 0 -23 5 -23 10 0 5 -8
15 -17 23 -11 10 -7 9 10 -2 22 -12 32 -14 42 -5z m-1230 0 c5 -8 11 -7 20 0
11 9 14 8 12 -7 0 -11 -9 -19 -25 -19 -13 -1 -21 1 -18 4 3 3 1 11 -5 19 -8 9
-8 13 -1 13 6 0 14 -5 17 -10z m242 -5 c0 -7 -12 -12 -27 -11 -15 1 -27 6 -27
11 0 6 12 10 27 11 15 1 27 -4 27 -11z m204 6 c-7 -5 -11 -13 -8 -18 3 -5 -7
-10 -22 -10 -20 0 -27 5 -24 13 2 7 11 10 18 8 7 -3 16 -1 20 5 3 6 12 11 18
11 8 0 7 -3 -2 -9z m383 -1 c9 7 19 10 23 6 3 -3 1 -6 -6 -6 -8 0 -11 -6 -7
-16 5 -12 2 -15 -10 -10 -8 3 -24 2 -34 -4 -16 -9 -17 -7 -7 14 7 15 14 20 19
13 4 -8 11 -7 22 3z m-224 -10 c0 -5 -4 -10 -10 -10 -5 0 -10 5 -10 10 0 6 5
10 10 10 6 0 10 -4 10 -10z m442 -2 c-9 -9 -15 -9 -24 0 -9 9 -7 12 12 12 19
0 21 -3 12 -12z m358 2 c0 -5 -4 -10 -10 -10 -5 0 -10 5 -10 10 0 6 5 10 10
10 6 0 10 -4 10 -10z m42 -2 c-9 -9 -15 -9 -24 0 -9 9 -7 12 12 12 19 0 21 -3
12 -12z m-1292 -28 c-24 -19 -40 -25 -40 -15 0 5 51 34 60 34 3 0 -6 -8 -20
-19z m420 16 c0 -2 -18 -15 -40 -30 -22 -14 -40 -23 -40 -18 0 4 17 18 38 30
39 23 42 24 42 18z m936 -34 c-4 -3 -14 2 -24 12 -16 18 -16 18 6 6 13 -6 21
-14 18 -18z m-1601 7 c4 -6 14 -8 22 -5 8 3 11 1 8 -4 -3 -5 12 -18 35 -30 22
-11 40 -17 40 -12 0 4 9 8 20 8 18 0 18 -1 1 -17 -14 -13 -18 -35 -19 -114 -2
-62 1 -94 8 -90 5 3 2 -7 -7 -23 -9 -16 -30 -34 -47 -40 l-31 -12 25 20 c14
11 29 20 33 20 4 0 7 51 6 112 -2 125 -3 127 -78 164 -22 10 -41 22 -41 27 0
11 18 9 25 -4z m415 -9 c14 -11 21 -20 15 -20 -5 0 -21 9 -35 20 -14 11 -20
20 -15 20 6 0 21 -9 35 -20z m406 -7 c-6 -6 -36 9 -36 18 0 5 9 4 20 -3 10 -7
18 -14 16 -15z m379 17 c3 -5 1 -10 -4 -10 -6 0 -11 5 -11 10 0 6 2 10 4 10 3
0 8 -4 11 -10z m225 2 c0 -5 -10 -14 -23 -19 -18 -9 -24 -8 -24 2 0 7 6 11 13
8 6 -2 15 0 19 6 7 13 15 14 15 3z m-1230 -24 c0 -6 -6 -5 -15 2 -8 7 -15 14
-15 16 0 2 7 1 15 -2 8 -4 15 -11 15 -16z m805 2 c-3 -5 -11 -10 -16 -10 -6 0
-7 5 -4 10 3 6 11 10 16 10 6 0 7 -4 4 -10z m-684 -19 c7 11 9 9 9 -8 0 -15
-5 -21 -14 -17 -8 3 -17 1 -21 -5 -3 -6 -11 -11 -18 -11 -8 0 -8 3 0 11 6 6 9
19 5 28 -5 14 -4 14 12 2 15 -13 19 -13 27 0z m377 -3 c8 -8 15 -8 26 1 12 10
14 9 10 -6 -3 -11 -15 -19 -29 -19 -15 -1 -22 2 -19 8 4 6 0 14 -7 19 -8 5 -9
9 -3 9 5 0 15 -5 22 -12z m425 0 c9 8 12 4 13 -14 2 -20 -1 -23 -12 -13 -11 9
-18 8 -29 -1 -9 -7 -18 -10 -22 -6 -3 3 -1 6 6 6 9 0 11 8 8 21 -4 16 -3 18 9
8 10 -8 18 -8 27 -1z m380 0 c4 -10 7 -10 18 0 16 15 37 16 22 1 -6 -6 -9 -19
-5 -28 5 -14 3 -14 -11 -3 -9 8 -22 10 -28 6 -7 -4 -9 -3 -5 4 3 6 -2 15 -11
21 -16 9 -16 10 -1 11 9 0 18 -6 21 -12z m-968 -19 c-8 -13 -55 -11 -55 2 0 6
9 8 20 4 12 -4 20 -2 20 5 0 6 5 8 10 5 6 -4 8 -11 5 -16z m398 12 c20 11 21
11 8 -4 -15 -19 -68 -20 -68 -1 0 9 5 10 19 3 12 -7 25 -6 41 2z m390 -5 c8 3
18 1 21 -4 3 -6 -11 -9 -32 -9 -24 0 -39 6 -39 13 0 9 5 10 18 3 10 -5 24 -6
32 -3z m-1538 -35 c3 -5 2 -12 -3 -15 -5 -3 -9 1 -9 9 0 17 3 19 12 6z m735
-1 c0 -5 -4 -10 -10 -10 -5 0 -10 5 -10 10 0 6 5 10 10 10 6 0 10 -4 10 -10z
m400 0 c0 -5 -4 -10 -10 -10 -5 0 -10 5 -10 10 0 6 5 10 10 10 6 0 10 -4 10
-10z m405 0 c-3 -5 -10 -10 -16 -10 -5 0 -9 5 -9 10 0 6 7 10 16 10 8 0 12 -4
9 -10z m-1301 -11 c-3 -6 -1 -15 6 -19 8 -5 7 -9 -5 -13 -9 -4 -14 -3 -10 3 3
6 -1 13 -10 16 -13 6 -14 8 -3 15 19 12 30 11 22 -2z m400 -4 c-4 -9 0 -15 10
-15 9 0 16 -5 16 -12 0 -6 -3 -8 -7 -5 -3 4 -12 2 -20 -5 -11 -8 -12 -7 -7 6
4 10 0 18 -11 22 -13 5 -14 9 -3 15 20 13 28 11 22 -6z m190 -10 c-11 -8 -14
-17 -9 -26 7 -11 6 -12 -7 -2 -8 7 -18 10 -21 6 -4 -3 -7 -2 -7 4 0 6 7 14 16
17 8 3 13 10 10 15 -3 5 3 7 14 4 19 -5 19 -6 4 -18z m211 1 c0 -13 -4 -28 -8
-32 -4 -5 -5 -1 -1 9 4 11 0 19 -12 24 -16 6 -16 7 2 14 10 4 19 8 19 8 1 1 1
-10 0 -23z m201 10 c19 -14 19 -14 -1 -13 -13 1 -20 -4 -19 -15 1 -14 -2 -15
-18 -5 -16 10 -16 12 -3 15 10 2 14 10 11 18 -7 18 5 18 30 0z m199 4 c-3 -6
1 -13 9 -16 9 -3 16 -11 16 -17 0 -6 -3 -7 -7 -4 -3 4 -12 2 -20 -5 -11 -8
-12 -7 -7 6 4 10 0 18 -12 23 -16 6 -16 7 2 14 26 10 26 10 19 -1z m193 1 c11
-6 10 -10 -3 -15 -11 -4 -15 -12 -11 -22 6 -14 4 -15 -9 -4 -12 10 -13 15 -4
20 6 4 8 13 5 19 -8 13 3 14 22 2z m205 -4 c-2 -4 3 -10 11 -13 13 -5 13 -8 1
-20 -18 -18 -23 -18 -21 4 0 9 -4 16 -11 15 -6 -1 -13 3 -16 10 -3 7 5 12 18
12 13 0 21 -3 18 -8z m-1408 -10 c-10 -8 -15 -19 -11 -25 9 -16 -7 -15 -22 0
-10 10 -7 15 10 25 31 17 46 16 23 0z m-435 -19 c0 -6 -6 -5 -15 2 -8 7 -15
14 -15 16 0 2 7 1 15 -2 8 -4 15 -11 15 -16z m535 -18 c13 21 20 9 17 -30 -2
-22 -8 -37 -13 -34 -6 3 -17 0 -26 -8 -15 -11 -16 -11 -10 5 4 11 1 20 -8 24
-14 5 -13 7 1 18 11 8 14 17 9 26 -7 12 -6 12 7 1 11 -9 18 -10 23 -2z m412 1
c14 12 16 12 8 0 -5 -9 0 -20 16 -33 l24 -19 -33 16 c-18 9 -37 13 -42 10 -14
-9 -1 -28 14 -22 7 3 18 -4 25 -15 11 -17 10 -18 -9 -8 -15 8 -26 8 -42 -1
-21 -11 -22 -11 -9 4 11 14 11 18 -3 23 -15 6 -15 7 0 19 11 8 14 17 9 26 -8
12 -6 12 8 0 14 -11 20 -11 34 0z m400 0 c14 12 16 12 8 0 -5 -9 -2 -18 9 -26
15 -11 15 -13 1 -19 -9 -3 -14 -10 -11 -15 3 -5 -5 -8 -19 -7 -14 0 -25 7 -25
15 0 9 -7 11 -22 8 -23 -6 -23 -6 1 12 16 12 21 23 16 32 -8 12 -6 12 8 0 14
-11 20 -11 34 0z m378 -1 c5 -8 12 -7 23 2 13 11 14 11 7 -1 -5 -9 -2 -18 9
-26 15 -11 15 -13 1 -19 -9 -3 -14 -10 -11 -15 3 -5 -5 -8 -19 -7 -14 0 -25 7
-25 15 0 8 -7 11 -20 8 -11 -3 -18 -1 -14 4 3 5 12 9 21 9 10 0 14 6 10 20 -5
21 7 28 18 10z m-185 -50 c0 -5 -2 -10 -4 -10 -3 0 -8 5 -11 10 -3 6 -1 10 4
10 6 0 11 -4 11 -10z m-872 -26 c5 3 9 -1 9 -8 0 -7 -7 -13 -16 -12 -10 1 -15
-6 -15 -17 2 -14 -1 -15 -12 -6 -7 6 -19 8 -26 4 -7 -4 -4 1 7 10 11 9 18 23
17 33 -3 13 -1 14 12 3 8 -7 19 -10 24 -7z m164 4 c-16 -16 -15 -26 4 -30 10
-2 5 -9 -18 -22 l-33 -19 18 20 c18 21 9 41 -13 28 -5 -3 -10 -4 -10 -1 0 5
50 35 60 36 2 0 -1 -5 -8 -12z m221 -23 c-9 -7 -13 -17 -8 -24 5 -9 1 -9 -14
1 -17 10 -18 14 -6 16 18 4 19 14 3 31 -11 10 -8 10 14 0 25 -11 26 -13 11
-24z m400 21 c15 -12 15 -14 2 -19 -9 -4 -12 -13 -8 -24 6 -15 4 -16 -9 -6 -8
7 -18 10 -21 6 -4 -3 -7 -1 -7 5 0 7 7 12 15 12 18 0 20 26 3 33 -7 3 -8 6 -3
6 6 0 18 -6 28 -13z m-1411 -21 c10 6 10 5 1 -5 -9 -10 -15 -10 -26 -2 -8 7
-17 9 -20 5 -4 -3 -7 2 -7 12 0 17 1 17 19 1 12 -11 25 -15 33 -11z m378 10
c0 -9 -6 -12 -16 -8 -13 5 -13 7 -2 14 17 11 18 11 18 -6z m808 6 c-2 -5 6
-17 17 -26 11 -9 14 -14 7 -10 -7 4 -19 2 -26 -4 -11 -9 -14 -8 -12 6 1 12 -5
17 -19 16 -20 -1 -20 -1 -1 13 23 16 37 18 34 5z m399 -1 c-1 -5 7 -16 18 -25
11 -9 14 -14 7 -10 -7 4 -21 1 -30 -7 -15 -12 -16 -11 -3 5 7 9 9 17 4 17 -5
0 -17 6 -26 13 -16 11 -15 12 7 13 14 1 24 -2 23 -6z m229 -12 c-14 -8 -15
-13 -5 -24 16 -20 -1 -17 -30 5 l-23 18 23 -1 c14 -1 23 4 22 11 -2 7 4 10 13
6 15 -5 15 -7 0 -15z m-1601 -1 c-12 -9 -15 -19 -10 -28 8 -12 6 -12 -8 -1 -9
8 -21 11 -27 7 -5 -3 -10 -4 -10 -1 0 7 52 35 64 36 6 0 2 -6 -9 -13z m195
-18 c0 -5 -4 -8 -9 -4 -5 3 -12 1 -16 -5 -3 -5 -12 -10 -18 -10 -7 0 -3 7 7
15 23 18 36 19 36 4z m97 -11 c-3 -8 -6 -5 -6 6 -1 11 2 17 5 13 3 -3 4 -12 1
-19z m185 -18 c-17 -30 -32 -39 -32 -20 0 6 5 10 10 10 6 0 10 6 10 14 0 12 5
17 27 25 1 1 -6 -12 -15 -29z m403 10 c-3 -5 -11 -10 -16 -10 -6 0 -7 5 -4 10
3 6 11 10 16 10 6 0 7 -4 4 -10z m405 -4 c0 -8 6 -16 13 -19 6 -2 9 -8 4 -12
-4 -5 -14 0 -22 11 -17 23 -19 34 -5 34 6 0 10 -6 10 -14z m-1005 -16 c10 16
21 12 21 -8 0 -14 -7 -19 -26 -18 -17 1 -26 7 -26 18 0 12 4 14 12 7 8 -7 14
-6 19 1z m408 -2 c10 8 13 6 13 -7 0 -13 -8 -18 -26 -17 -17 1 -26 7 -26 18 0
13 4 14 13 6 9 -7 17 -7 26 0z m385 0 c9 -9 12 -9 12 0 0 7 4 12 8 12 4 0 8
-8 8 -18 0 -14 -7 -19 -26 -18 -17 1 -26 7 -26 19 0 20 7 22 24 5z m395 0 c3
-10 7 -10 18 -1 12 10 15 9 15 -5 0 -11 -9 -17 -26 -18 -19 -1 -26 4 -26 18 0
20 12 24 19 6z m-1363 -8 c0 -5 -4 -10 -10 -10 -5 0 -10 5 -10 10 0 6 5 10 10
10 6 0 10 -4 10 -10z m400 0 c0 -5 -4 -10 -10 -10 -5 0 -10 5 -10 10 0 6 5 10
10 10 6 0 10 -4 10 -10z m360 1 c0 -5 -9 -11 -21 -14 -16 -4 -18 -3 -8 9 13
16 29 19 29 5z m40 -1 c0 -5 -4 -10 -10 -10 -5 0 -10 5 -10 10 0 6 5 10 10 10
6 0 10 -4 10 -10z m360 0 c0 -5 -4 -10 -10 -10 -5 0 -10 5 -10 10 0 6 5 10 10
10 6 0 10 -4 10 -10z m-1510 -36 c0 -2 -9 0 -20 6 -11 6 -20 13 -20 16 0 2 9
0 20 -6 11 -6 20 -13 20 -16z m435 -22 c-3 -3 -11 0 -18 6 -8 7 -16 9 -19 6
-3 -2 -8 2 -12 11 -5 14 -2 14 24 -1 16 -10 27 -20 25 -22z m1415 23 c-7 -9
-15 -13 -19 -10 -3 3 1 10 9 15 21 14 24 12 10 -5z m-1610 -3 c0 -4 -15 -13
-32 -20 l-33 -12 25 20 c27 21 40 25 40 12z m400 -2 c0 -5 -4 -10 -10 -10 -5
0 -10 5 -10 10 0 6 5 10 10 10 6 0 10 -4 10 -10z m175 0 c3 -5 1 -10 -4 -10
-6 0 -11 5 -11 10 0 6 2 10 4 10 3 0 8 -4 11 -10z m225 0 c0 -5 -5 -10 -11
-10 -5 0 -7 5 -4 10 3 6 8 10 11 10 2 0 4 -4 4 -10z m175 0 c3 -5 1 -10 -4
-10 -6 0 -11 5 -11 10 0 6 2 10 4 10 3 0 8 -4 11 -10z m210 0 c9 7 15 8 15 2
0 -19 -33 -23 -49 -5 -15 16 -15 16 2 4 14 -11 20 -11 32 -1z m-1390 -18 c-3
-3 -11 0 -18 7 -9 10 -8 11 6 5 10 -3 15 -9 12 -12z m950 -12 c-3 -5 -12 -10
-18 -10 -7 0 -6 4 3 10 19 12 23 12 15 0z m-815 -5 c0 -2 -10 -9 -22 -15 -22
-11 -22 -10 -4 4 21 17 26 19 26 11z m157 -7 c7 19 22 14 17 -5 -7 -24 -50
-24 -50 -1 0 14 3 15 15 5 11 -9 15 -9 18 1z m406 0 c10 8 13 6 13 -7 0 -12
-8 -18 -26 -18 -18 0 -26 6 -26 18 0 13 3 15 13 7 9 -7 17 -7 26 0z m400 0
c10 8 13 6 13 -7 0 -12 -8 -18 -26 -18 -18 0 -26 6 -26 18 0 13 3 15 13 7 9
-7 17 -7 26 0z m399 0 c11 8 14 7 14 -6 0 -11 -8 -17 -23 -17 -16 0 -23 6 -23
20 0 16 2 17 9 6 7 -11 13 -12 23 -3z m178 -8 c0 -4 -8 -11 -17 -14 -10 -4
-14 -4 -10 0 4 4 2 13 -4 20 -8 9 -5 11 10 7 12 -3 21 -9 21 -13z m-1201 -2
c11 -10 14 -10 18 0 3 6 9 12 14 12 5 0 5 -10 -1 -24 -5 -13 -6 -27 -3 -30 4
-3 1 -6 -5 -6 -17 0 -24 18 -10 24 7 4 2 4 -10 2 -13 -3 -21 -2 -18 1 3 4 1
12 -5 20 -14 17 2 17 20 1z m406 2 c-3 -5 -1 -10 4 -10 6 0 11 5 11 11 0 5 5
7 11 3 7 -4 7 -9 1 -13 -5 -3 -8 -14 -7 -23 2 -11 -3 -16 -17 -15 -18 1 -18 2
-2 14 10 7 13 13 8 13 -6 0 -19 7 -30 15 -18 14 -18 14 4 15 13 0 20 -4 17
-10z m395 0 c0 -5 -4 -10 -9 -10 -6 0 -13 5 -16 10 -3 6 1 10 9 10 9 0 16 -4
16 -10z m36 -5 c-10 -8 -16 -21 -13 -29 4 -10 0 -14 -12 -13 -10 0 -18 7 -18
14 0 6 4 10 8 7 4 -2 10 5 14 16 3 11 14 20 23 20 15 -1 15 -2 -2 -15z m414
10 c0 -2 -9 -9 -20 -15 -16 -9 -18 -8 -14 5 5 13 34 22 34 10z m-30 -44 c0 -4
-6 -8 -13 -8 -8 0 -14 6 -14 13 0 7 6 10 14 7 7 -3 13 -8 13 -12z m-894 -6
c-11 -8 -15 -15 -10 -15 6 0 19 -7 30 -16 10 -8 13 -13 6 -9 -7 4 -20 1 -29
-7 -14 -11 -16 -11 -8 1 5 9 0 20 -16 33 -13 10 -17 16 -8 12 10 -3 20 -1 24
5 3 6 12 11 18 11 7 0 3 -7 -7 -15z m194 -6 c14 -11 19 -17 11 -13 -8 4 -19 1
-25 -7 -6 -8 -20 -15 -31 -16 -18 -1 -18 0 3 15 18 14 20 20 10 30 -20 20 5
13 32 -9z m200 1 c-8 -6 -10 -10 -4 -10 5 0 19 -7 30 -16 10 -8 14 -13 7 -9
-7 3 -25 -2 -40 -11 -26 -15 -27 -15 -8 0 20 17 20 17 -5 37 -14 10 -18 17 -9
13 10 -3 20 0 24 6 4 6 10 9 13 5 4 -3 0 -10 -8 -15z m220 -14 c0 -2 -8 -3
-17 -2 -13 1 -17 -5 -15 -18 3 -17 1 -18 -12 -7 -8 7 -19 10 -24 7 -5 -3 -9 1
-9 8 0 8 8 11 19 8 12 -3 18 1 18 12 0 14 4 15 20 6 11 -6 20 -12 20 -14z
m376 2 c-14 -8 -15 -13 -5 -24 14 -17 -2 -19 -19 -2 -8 8 -15 8 -29 -3 -16
-13 -17 -12 -4 4 7 9 20 17 27 17 8 0 14 7 14 15 0 9 6 12 16 8 15 -5 15 -7 0
-15z m-1889 -10 c-3 -8 -6 -5 -6 6 -1 11 2 17 5 13 3 -3 4 -12 1 -19z m93 12
c0 -5 -3 -9 -7 -8 -5 1 -19 -4 -33 -11 l-25 -12 25 20 c28 23 40 26 40 11z
m405 0 c-3 -5 -1 -10 5 -10 6 0 8 -4 5 -10 -3 -5 -11 -10 -16 -10 -6 0 -7 5
-3 12 5 8 2 9 -11 4 -15 -5 -16 -4 -5 9 14 17 35 21 25 5z m179 -11 c-3 -6 2
-17 12 -26 15 -12 13 -11 -9 1 -15 9 -33 14 -40 10 -7 -4 -3 2 8 13 20 20 41
21 29 2z m1006 17 c0 -2 -7 -7 -16 -10 -8 -3 -12 -2 -9 4 6 10 25 14 25 6z
m50 -32 c0 -3 -5 -2 -11 2 -6 3 -15 0 -20 -7 -6 -10 -9 -8 -9 9 0 20 3 21 20
12 11 -6 20 -13 20 -16z m-1605 6 c3 -6 -1 -7 -9 -4 -18 7 -21 14 -7 14 6 0
13 -4 16 -10z m680 -20 c-3 -5 -11 -10 -16 -10 -6 0 -7 5 -4 10 3 6 11 10 16
10 6 0 7 -4 4 -10z m401 -9 c0 -9 5 -15 12 -13 6 1 12 -2 12 -8 0 -5 -7 -10
-16 -10 -9 0 -14 -6 -11 -13 3 -9 -4 -14 -23 -14 -19 0 -26 5 -23 14 3 7 -2
13 -11 13 -9 0 -16 5 -16 10 0 6 7 10 16 10 9 0 14 6 11 13 -3 9 4 14 23 14
19 0 27 -5 26 -16z m397 2 c-3 -7 2 -13 11 -13 9 0 16 -4 16 -10 0 -5 -7 -10
-16 -10 -10 0 -14 -6 -11 -14 4 -10 -2 -13 -19 -12 -13 0 -24 7 -24 14 0 6 -7
12 -15 12 -8 0 -15 5 -15 10 0 6 7 10 15 10 8 0 15 6 15 13 0 6 11 12 24 12
15 0 22 -5 19 -12z m-1193 3 c0 -3 -4 -8 -10 -11 -5 -3 -10 -1 -10 4 0 6 5 11
10 11 6 0 10 -2 10 -4z m355 -21 c0 -10 6 -20 13 -22 6 -3 12 0 12 6 0 6 4 11
8 11 4 0 8 -8 8 -18 0 -14 -7 -19 -27 -18 -17 1 -25 6 -22 14 3 6 -2 12 -11
12 -9 0 -16 5 -16 10 0 6 5 10 11 10 5 0 7 5 3 11 -4 7 -1 10 7 7 8 -3 14 -13
14 -23z m-65 -30 c0 -2 -10 -9 -22 -15 -22 -11 -22 -10 -4 4 21 17 26 19 26
11z m381 -14 c-16 -10 -5 -35 13 -28 7 3 13 -1 13 -9 0 -7 -4 -11 -9 -8 -5 3
-16 0 -24 -7 -13 -11 -15 -10 -12 3 1 10 -6 24 -17 32 -14 12 -15 14 -4 10 10
-3 20 -1 24 5 3 6 12 11 18 11 8 0 7 -3 -2 -9z m223 -24 c-12 -7 -13 -12 -3
-23 7 -9 8 -14 1 -14 -6 0 -14 5 -17 11 -4 6 -13 8 -19 6 -7 -3 -13 1 -13 8 0
7 7 12 16 11 9 -1 15 6 15 16 -1 14 2 15 17 5 16 -10 16 -13 3 -20z m174 16
c-2 -11 3 -18 13 -17 9 1 16 -4 16 -11 0 -16 -27 -14 -47 5 -14 13 -14 16 0
27 20 16 21 16 18 -4z m398 2 c-3 -8 2 -18 11 -23 14 -8 14 -10 -1 -15 -11 -4
-16 -1 -16 9 0 12 -6 15 -22 11 -22 -6 -22 -6 2 13 30 24 34 24 26 5z m-1691
-5 c3 -5 1 -10 -4 -10 -6 0 -11 5 -11 10 0 6 2 10 4 10 3 0 8 -4 11 -10z
m1528 -8 c-10 -7 -17 -21 -15 -30 2 -14 1 -14 -7 -3 -5 8 -15 11 -23 8 -8 -3
-15 1 -15 8 0 7 8 10 19 7 11 -3 18 1 18 10 0 7 9 14 21 14 19 0 19 -1 2 -14z
m-1439 -26 c4 -30 -6 -33 -29 -10 -13 13 -18 14 -33 3 -16 -12 -16 -12 0 6 14
15 20 16 32 5 14 -11 16 -9 16 10 0 30 11 19 14 -14z m636 24 c0 -5 -8 -10
-17 -10 -15 0 -14 -2 3 -16 18 -14 18 -15 -4 -4 -12 6 -26 9 -31 6 -4 -3 -8 1
-8 8 0 8 6 12 14 9 7 -3 13 0 13 6 0 6 7 11 15 11 8 0 15 -4 15 -10z m-231
-14 c9 -10 8 -15 -4 -20 -10 -4 -15 1 -15 14 0 24 4 25 19 6z m-581 -27 c-21
-14 -26 -10 -21 11 4 16 8 18 20 9 11 -10 11 -14 1 -20z m-68 -3 c0 -2 -9 -2
-20 1 -11 3 -20 9 -20 15 0 5 9 4 20 -2 11 -6 20 -12 20 -14z m565 14 c-3 -5
-11 -10 -16 -10 -6 0 -7 5 -4 10 3 6 11 10 16 10 6 0 7 -4 4 -10z m397 -2
c-10 -10 -8 -16 8 -28 19 -15 20 -16 2 -16 -10 0 -27 11 -37 25 -10 13 -13 21
-7 17 6 -3 13 -2 17 4 3 5 11 10 18 10 8 0 7 -4 -1 -12z m817 -35 c15 -11 15
-12 -1 -13 -9 0 -20 9 -23 20 -4 12 -11 17 -18 13 -7 -4 -5 1 3 12 15 18 15
18 19 -1 2 -10 11 -24 20 -31z m-419 26 c0 -7 8 -18 18 -25 15 -12 15 -13 1
-14 -9 0 -21 11 -27 25 -7 15 -8 25 -2 25 6 0 10 -5 10 -11z m-1205 -9 c-3 -5
-1 -10 5 -10 7 0 5 -6 -4 -15 -17 -17 -30 -20 -21 -5 3 6 1 10 -5 10 -7 0 -6
5 2 15 15 16 32 20 23 5z m225 -15 c-7 -8 -18 -15 -24 -15 -6 0 -2 7 8 15 25
19 32 19 16 0z m400 11 c0 -3 -4 -8 -10 -11 -5 -3 -10 -1 -10 4 0 6 5 11 10
11 6 0 10 -2 10 -4z m396 -17 c0 -13 -3 -15 -13 -7 -9 7 -17 7 -26 0 -10 -8
-13 -6 -13 7 0 12 8 18 26 18 18 0 26 -6 26 -18z m401 -2 c2 -16 0 -17 -14 -5
-13 10 -17 10 -20 1 -7 -19 -19 -15 -19 5 0 26 52 25 53 -1z m163 1 c0 -6 -6
-5 -15 2 -8 7 -15 14 -15 16 0 2 7 1 15 -2 8 -4 15 -11 15 -16z m-990 -3 c0
-2 -6 -5 -13 -8 -8 -3 -14 1 -14 8 0 7 6 11 14 8 7 -3 13 -6 13 -8z m190 5 c0
-5 -7 -10 -16 -10 -8 0 -12 5 -9 10 3 6 10 10 16 10 5 0 9 -4 9 -10z m400 0
c0 -5 -4 -10 -10 -10 -5 0 -10 5 -10 10 0 6 5 10 10 10 6 0 10 -4 10 -10z
m-1248 -15 c7 4 5 0 -5 -8 -13 -11 -15 -16 -5 -20 7 -2 9 -8 5 -13 -4 -5 -12
-2 -16 5 -5 8 -15 10 -22 7 -8 -4 -5 0 5 8 11 9 14 16 8 16 -7 0 -12 5 -12 11
0 8 4 8 15 -1 8 -6 20 -9 27 -5z m-112 1 c0 -3 -4 -8 -10 -11 -5 -3 -10 -1
-10 4 0 6 5 11 10 11 6 0 10 -2 10 -4z m360 -6 c0 -5 -4 -10 -10 -10 -5 0 -10
5 -10 10 0 6 5 10 10 10 6 0 10 -4 10 -10z m435 0 c3 -5 1 -10 -4 -10 -6 0
-11 5 -11 10 0 6 2 10 4 10 3 0 8 -4 11 -10z m685 -20 c8 -5 12 -11 10 -14 -3
-2 -14 2 -24 10 -22 15 -10 19 14 4z m406 -5 c10 -8 15 -14 9 -14 -5 0 -19 6
-29 14 -11 8 -15 15 -10 15 6 0 19 -7 30 -15z m-1641 -5 c3 -5 -1 -10 -9 -10
-9 0 -16 5 -16 10 0 6 4 10 9 10 6 0 13 -4 16 -10z m62 -4 c0 -8 -6 -12 -15
-9 -11 5 -11 7 0 14 7 5 13 9 14 9 0 0 1 -6 1 -14z m553 -1 c-7 -8 -18 -15
-24 -15 -6 0 -2 7 8 15 25 19 32 19 16 0z m230 5 c0 -5 -2 -10 -4 -10 -3 0 -8
5 -11 10 -3 6 -1 10 4 10 6 0 11 -4 11 -10z m180 6 c0 -3 -4 -8 -10 -11 -5 -3
-10 -1 -10 4 0 6 5 11 10 11 6 0 10 -2 10 -4z m400 0 c0 -3 -4 -8 -10 -11 -5
-3 -10 -1 -10 4 0 6 5 11 10 11 6 0 10 -2 10 -4z m-1675 -47 c-4 -5 -1 -9 5
-9 6 0 8 -4 5 -10 -11 -19 -25 -10 -25 16 0 14 4 23 10 19 6 -4 8 -11 5 -16z
m300 11 c3 -5 1 -10 -4 -10 -6 0 -11 5 -11 10 0 6 2 10 4 10 3 0 8 -4 11 -10z
m669 4 c21 -8 20 -21 -2 -26 -12 -4 -18 1 -18 13 0 22 -1 21 20 13z m432 -16
c0 -14 -3 -15 -15 -5 -11 9 -15 9 -18 0 -7 -19 -19 -15 -19 5 0 14 7 19 26 18
17 -1 26 -7 26 -18z m400 0 c0 -14 -3 -15 -15 -5 -11 9 -15 9 -18 0 -7 -19
-19 -15 -19 5 0 14 7 19 26 18 17 -1 26 -7 26 -18z m-1616 2 c0 -5 -7 -10 -15
-10 -8 0 -15 5 -15 10 0 6 7 10 15 10 8 0 15 -4 15 -10z m620 0 c0 -5 -7 -10
-16 -10 -8 0 -12 5 -9 10 3 6 10 10 16 10 5 0 9 -4 9 -10z m360 0 c0 -5 -4
-10 -10 -10 -5 0 -10 5 -10 10 0 6 5 10 10 10 6 0 10 -4 10 -10z m40 0 c0 -5
-4 -10 -10 -10 -5 0 -10 5 -10 10 0 6 5 10 10 10 6 0 10 -4 10 -10z m360 0 c0
-5 -4 -10 -10 -10 -5 0 -10 5 -10 10 0 6 5 10 10 10 6 0 10 -4 10 -10z m40 0
c0 -5 -4 -10 -10 -10 -5 0 -10 -7 -10 -15 0 -8 -4 -15 -10 -15 -13 0 -13 6 2
30 14 21 28 26 28 10z m-1170 -30 c0 -5 -2 -10 -4 -10 -3 0 -8 5 -11 10 -3 6
-1 10 4 10 6 0 11 -4 11 -10z m750 0 c0 -5 -4 -10 -10 -10 -5 0 -10 5 -10 10
0 6 5 10 10 10 6 0 10 -4 10 -10z m-92 -17 c-2 -12 3 -18 15 -17 25 2 21 -4
-15 -21 -30 -15 -31 -15 -13 0 19 15 19 16 -3 22 -21 5 -21 6 -5 19 23 17 24
17 21 -3z m187 -11 c-9 -2 -14 -10 -11 -17 3 -8 -3 -12 -18 -11 -12 0 -23 6
-23 12 0 6 7 11 16 10 9 -1 15 6 15 16 -1 14 2 15 18 5 16 -10 16 -12 3 -15z
m216 14 c-14 -17 1 -31 22 -21 6 4 3 -1 -8 -10 -18 -14 -20 -14 -23 -1 -2 9
-11 16 -20 16 -13 0 -13 2 4 15 24 18 40 19 25 1z m184 -19 c-8 -4 -12 -15 -8
-25 6 -15 5 -15 -10 -4 -9 8 -20 11 -25 8 -5 -3 -9 1 -9 8 0 7 7 13 16 12 9
-1 15 6 15 16 -1 14 2 15 17 5 15 -10 16 -13 4 -20z m213 16 c-2 -12 3 -18 15
-17 23 2 22 -3 -4 -17 -16 -8 -20 -8 -14 1 4 7 -1 14 -14 17 -20 5 -20 6 -4
19 23 17 24 17 21 -3z m-1584 -20 c7 3 13 0 13 -7 0 -6 -9 -12 -19 -12 -10 0
-18 7 -18 14 0 9 -6 12 -17 8 -15 -5 -14 -3 2 9 18 15 20 15 23 0 2 -9 9 -14
16 -12z m187 0 c13 -16 12 -17 -3 -5 -17 13 -43 8 -34 -7 3 -3 -4 -7 -15 -7
-10 0 -19 6 -19 13 0 7 6 10 14 7 8 -3 17 -1 21 5 9 16 21 14 36 -6z m366 -10
c0 -8 -6 -9 -19 -2 -10 5 -18 11 -18 12 0 2 8 3 18 3 10 0 19 -6 19 -13z
m-857 -27 c-4 -4 -6 -16 -3 -25 4 -14 3 -14 -6 0 -5 8 -7 26 -4 38 4 17 8 19
14 9 4 -7 4 -17 -1 -22z m1796 9 c-3 -9 1 -18 10 -22 15 -5 15 -7 1 -15 -10
-5 -14 -15 -10 -26 6 -15 5 -16 -12 -2 -14 11 -19 12 -22 3 -3 -7 -9 -13 -14
-13 -4 0 -6 7 -3 15 4 9 -1 18 -12 22 -15 6 -15 7 5 15 12 4 20 12 16 18 -3 5
0 7 8 4 8 -3 18 -1 22 5 10 16 18 13 11 -4z m-811 -13 c3 -8 -2 -12 -12 -10
-9 2 -18 -3 -20 -9 -3 -7 2 -13 11 -13 9 0 16 -5 16 -12 0 -6 -3 -8 -7 -5 -3
4 -13 1 -21 -6 -13 -10 -14 -9 -7 2 5 9 2 19 -10 28 -18 12 -18 13 -1 13 12 0
16 5 13 14 -4 10 0 14 13 13 11 -1 22 -7 25 -15z m408 2 c-3 -9 2 -14 13 -14
17 0 17 -1 -1 -13 -11 -9 -15 -19 -10 -28 6 -11 5 -11 -5 -2 -9 8 -19 9 -31 2
-15 -7 -17 -6 -13 6 4 9 -1 18 -12 22 -15 6 -15 7 5 15 12 4 20 11 18 15 -3 5
5 9 18 9 16 1 22 -2 18 -12z m-1013 -4 c0 -5 -5 -10 -11 -10 -5 0 -7 5 -4 10
3 6 8 10 11 10 2 0 4 -4 4 -10z m1200 0 c0 -5 -5 -10 -11 -10 -5 0 -7 5 -4 10
3 6 8 10 11 10 2 0 4 -4 4 -10z m-560 -14 c0 -2 -7 -7 -16 -10 -8 -3 -12 -2
-9 4 6 10 25 14 25 6z m-635 -26 c3 -5 1 -10 -4 -10 -6 0 -11 5 -11 10 0 6 2
10 4 10 3 0 8 -4 11 -10z m-30 -10 c-3 -5 -11 -10 -16 -10 -6 0 -7 5 -4 10 3
6 11 10 16 10 6 0 7 -4 4 -10z m740 -28 c-9 -2 -14 -10 -11 -17 3 -9 -2 -11
-15 -8 -18 5 -18 6 -3 18 10 7 14 17 9 24 -5 9 -1 9 14 -1 18 -11 19 -14 6
-16z m169 13 c-4 -9 1 -18 11 -21 13 -5 14 -9 3 -15 -20 -13 -28 -11 -22 6 4
10 0 15 -12 15 -17 0 -16 1 2 15 24 18 25 18 18 0z m231 5 c4 -6 2 -17 -4 -24
-6 -7 -8 -15 -5 -19 3 -3 -4 -3 -15 0 -20 5 -20 7 -5 18 10 6 14 17 10 23 -4
7 -3 12 3 12 5 0 13 -5 16 -10z m171 -7 c-1 -12 6 -17 19 -16 20 1 20 1 1 -13
-11 -8 -25 -14 -30 -14 -6 0 -4 5 4 10 12 8 11 11 -8 16 -21 6 -21 7 -5 20 10
7 19 14 19 14 1 0 1 -8 0 -17z m229 3 c12 -12 12 -15 -1 -20 -8 -3 -12 -11 -8
-17 4 -8 0 -8 -15 0 -23 13 -28 22 -8 19 6 -2 11 5 11 15 -2 21 3 21 21 3z
m-1460 -17 c-10 -15 -25 -10 -19 6 4 8 10 12 15 9 5 -3 7 -10 4 -15z m425 1
c0 -5 -7 -7 -15 -4 -8 4 -12 10 -9 15 6 11 24 2 24 -11z m-385 -18 c-3 -3 -11
0 -18 7 -9 10 -8 11 6 5 10 -3 15 -9 12 -12z m-410 -2 c-3 -5 -12 -10 -18 -10
-7 0 -6 4 3 10 19 12 23 12 15 0z m315 -10 c0 -5 -5 -10 -11 -10 -5 0 -7 5 -4
10 3 6 8 10 11 10 2 0 4 -4 4 -10z m475 0 c-3 -5 -12 -10 -18 -10 -7 0 -6 4 3
10 19 12 23 12 15 0z m325 0 c0 -5 -4 -10 -10 -10 -5 0 -10 5 -10 10 0 6 5 10
10 10 6 0 10 -4 10 -10z m400 0 c0 -5 -4 -10 -10 -10 -5 0 -10 5 -10 10 0 6 5
10 10 10 6 0 10 -4 10 -10z m-1140 -4 c0 -3 -4 -8 -10 -11 -5 -3 -10 -1 -10 4
0 6 5 11 10 11 6 0 10 -2 10 -4z m538 -19 c8 3 10 -1 6 -12 -4 -9 -9 -13 -12
-11 -3 3 -12 0 -21 -6 -13 -10 -14 -10 -4 2 10 11 9 16 -5 27 -16 13 -15 13 3
5 11 -5 26 -7 33 -5z m424 1 c-8 -8 -9 -15 -1 -25 14 -16 -3 -17 -19 -1 -8 8
-15 8 -29 -3 -16 -12 -17 -12 -6 2 7 9 9 20 5 24 -4 5 -1 5 5 1 7 -4 21 -2 30
3 24 14 30 14 15 -1z m-1292 -8 c0 -5 -2 -10 -4 -10 -3 0 -8 5 -11 10 -3 6 -1
10 4 10 6 0 11 -4 11 -10z m289 -4 c10 -12 8 -13 -8 -9 -12 3 -21 9 -21 14 0
14 16 11 29 -5z m797 2 c5 -8 2 -9 -10 -5 -10 4 -27 2 -39 -5 -20 -10 -21 -10
-8 5 16 20 47 22 57 5z m408 -5 c4 -11 1 -11 -14 -3 -13 7 -26 7 -38 1 -14 -7
-19 -6 -19 3 0 17 65 17 71 -1z m193 -5 c2 -16 -1 -17 -13 -7 -13 10 -17 10
-25 -2 -7 -11 -9 -10 -9 6 0 28 45 31 47 3z m-1630 -13 c0 -5 -10 -10 -22 -10
-12 0 -22 5 -22 10 0 6 10 10 22 10 12 0 22 -4 22 -10z m271 2 c8 -10 6 -13
-7 -13 -11 0 -17 6 -14 13 3 7 6 13 8 13 1 0 7 -6 13 -13z m655 -21 c4 -10 1
-13 -7 -10 -8 3 -17 1 -21 -5 -3 -6 -12 -11 -18 -11 -7 0 -1 9 13 20 30 24 27
23 33 6z m187 -6 c14 -11 21 -20 15 -20 -5 0 -21 9 -35 20 -14 11 -20 20 -15
20 6 0 21 -9 35 -20z m230 16 c0 -2 -7 -6 -15 -10 -8 -3 -15 -1 -15 4 0 6 7
10 15 10 8 0 15 -2 15 -4z m180 -29 c0 -5 -7 -4 -15 3 -8 6 -18 9 -23 6 -5 -3
-9 1 -9 8 0 11 5 12 24 3 13 -5 23 -15 23 -20z m-1580 13 c0 -5 -4 -10 -10
-10 -5 0 -10 5 -10 10 0 6 5 10 10 10 6 0 10 -4 10 -10z m398 -19 c3 -10 0
-10 -16 -2 -30 16 -38 33 -11 22 13 -4 25 -14 27 -20z m-274 -12 c-3 -5 -10
-9 -16 -9 -6 0 -8 3 -5 7 4 3 -1 12 -11 20 -15 12 -13 12 10 2 15 -7 25 -16
22 -20z m656 21 c0 -5 -2 -10 -4 -10 -3 0 -8 5 -11 10 -3 6 -1 10 4 10 6 0 11
-4 11 -10z m580 5 c0 -2 -10 -10 -22 -16 -21 -11 -22 -11 -9 4 13 16 31 23 31
12z m400 1 c0 -3 -4 -8 -10 -11 -5 -3 -10 -1 -10 4 0 6 5 11 10 11 6 0 10 -2
10 -4z m-1780 -26 c0 -5 -4 -10 -10 -10 -5 0 -10 5 -10 10 0 6 5 10 10 10 6 0
10 -4 10 -10z m696 -9 c0 -13 -7 -18 -21 -17 -12 0 -22 7 -22 14 0 7 6 11 13
8 8 -3 16 -1 19 4 9 14 11 12 11 -9z m810 -5 c-1 -18 -4 -22 -13 -14 -9 7 -17
7 -27 -1 -12 -10 -13 -9 -9 8 3 11 11 17 18 15 7 -3 16 -1 20 5 10 17 13 13
11 -13z m-1408 2 c7 -9 6 -17 -3 -25 -9 -8 -16 -9 -20 -3 -3 6 -1 10 4 10 6 0
11 5 11 11 0 6 -7 8 -16 5 -8 -3 -12 -2 -9 4 8 14 20 13 33 -2z m828 -21 c5
-7 1 -6 -10 2 -15 13 -19 13 -26 1 -5 -8 -6 -18 -4 -22 3 -4 -1 -5 -9 -2 -12
4 -12 10 -3 29 8 18 15 21 28 14 9 -5 20 -15 24 -22z m176 25 c-10 -3 -10 -7
0 -20 12 -15 11 -16 -4 -3 -13 10 -22 10 -31 3 -10 -8 -13 -6 -13 7 0 13 8 18
31 18 16 0 24 -2 17 -5z m592 -6 c9 3 16 1 16 -5 0 -17 -57 -13 -64 4 -4 13
-2 13 14 5 10 -5 26 -7 34 -4z m-824 -6 c0 -5 -4 -10 -10 -10 -5 0 -10 5 -10
10 0 6 5 10 10 10 6 0 10 -4 10 -10z m440 -2 c0 -4 -13 -8 -30 -8 -16 0 -30 4
-30 8 0 5 14 9 30 9 17 0 30 -4 30 -9z m-1350 -2 c0 -2 -7 -7 -16 -10 -8 -3
-12 -2 -9 4 6 10 25 14 25 6z m93 -10 c4 -10 0 -12 -14 -9 -10 3 -16 9 -13 14
8 13 21 11 27 -5z m92 -6 c4 -6 10 -8 15 -5 4 3 10 -1 13 -9 4 -10 0 -12 -15
-8 -14 3 -19 1 -14 -6 5 -8 1 -10 -10 -5 -12 4 -14 8 -6 11 10 3 10 7 1 18 -8
9 -8 14 -1 14 6 0 14 -5 17 -10z m-140 -10 c3 -5 2 -10 -4 -10 -5 0 -13 5 -16
10 -3 6 -2 10 4 10 5 0 13 -4 16 -10z m1285 0 c0 -5 -4 -10 -10 -10 -5 0 -10
5 -10 10 0 6 5 10 10 10 6 0 10 -4 10 -10z m405 0 c3 -5 -1 -10 -9 -10 -9 0
-16 5 -16 10 0 6 4 10 9 10 6 0 13 -4 16 -10z m-1098 -17 c0 -7 -4 -10 -9 -7
-4 3 -16 0 -25 -5 -10 -6 -12 -11 -5 -11 6 0 12 -5 12 -11 0 -8 -4 -8 -15 1
-8 6 -20 9 -27 5 -7 -4 -4 1 7 10 11 9 19 20 18 25 -1 4 8 7 21 6 12 0 23 -6
23 -13z m200 -3 c2 -23 -10 -26 -26 -6 -10 11 -8 15 6 19 10 3 18 5 18 6 1 0
1 -8 2 -19z m203 -1 c0 -5 -7 -9 -16 -9 -10 0 -14 -6 -10 -15 6 -17 -2 -19
-22 -6 -11 6 -10 10 3 15 9 3 15 12 12 20 -4 10 0 12 14 9 10 -3 19 -9 19 -14z
m194 9 c-4 -6 1 -17 10 -23 14 -11 15 -13 1 -19 -9 -3 -15 0 -15 9 0 8 -7 15
-15 15 -21 0 -19 18 3 23 9 3 18 5 20 6 2 0 0 -4 -4 -11z m206 -9 c0 -5 -7 -9
-16 -9 -10 0 -14 -6 -11 -14 4 -10 0 -12 -14 -9 -18 5 -18 6 -3 18 10 6 14 17
11 23 -5 6 0 8 13 5 11 -3 20 -9 20 -14z m380 10 c0 -5 5 -7 10 -4 6 3 10 2
10 -3 0 -6 -7 -13 -16 -16 -8 -3 -13 -10 -10 -15 3 -5 -3 -7 -14 -4 -21 6 -28
25 -7 21 6 -2 11 5 11 15 -1 9 2 17 7 17 5 0 9 -5 9 -11z m-181 -18 c18 -16
19 -20 5 -25 -22 -9 -24 -8 -18 9 4 10 0 15 -11 15 -9 0 -13 5 -10 10 8 13 8
13 34 -9z m-1509 -13 c0 -4 -6 -8 -14 -8 -8 0 -17 4 -20 8 -2 4 4 8 15 8 10 0
19 -4 19 -8z m599 -21 c9 4 13 3 9 -2 -4 -4 0 -14 10 -22 9 -7 13 -13 7 -12
-30 4 -37 -1 -25 -16 9 -10 9 -15 1 -15 -6 0 -11 5 -11 11 0 5 -5 7 -10 4 -6
-3 -17 0 -25 8 -13 13 -13 16 1 21 10 4 14 12 9 24 -5 13 -3 14 6 5 6 -6 19
-9 28 -6z m406 3 c13 11 14 10 9 -4 -4 -10 0 -18 10 -22 15 -6 15 -8 -1 -20
-16 -12 -16 -15 -3 -24 9 -6 10 -10 3 -10 -6 0 -15 5 -18 11 -4 6 -13 8 -20 5
-7 -2 -16 2 -19 11 -4 8 -12 13 -19 10 -8 -3 -14 1 -14 8 0 7 7 12 16 11 10
-1 15 6 15 17 -2 14 1 15 12 6 11 -9 18 -8 29 1z m398 -2 c12 10 15 9 13 -5
-1 -12 5 -17 19 -16 18 1 18 0 -3 -15 -18 -14 -20 -20 -10 -31 11 -11 9 -11
-10 -2 -17 9 -27 10 -37 1 -11 -9 -12 -7 -8 11 5 18 3 21 -14 17 -12 -3 -20 0
-20 7 0 7 8 10 19 7 14 -3 18 1 18 19 0 18 2 21 9 10 8 -12 12 -12 24 -3z
m-603 -12 c0 -3 -4 -8 -10 -11 -5 -3 -10 -1 -10 4 0 6 5 11 10 11 6 0 10 -2
10 -4z m400 -6 c0 -5 -7 -7 -15 -4 -8 4 -15 8 -15 10 0 2 7 4 15 4 8 0 15 -4
15 -10z m410 6 c0 -3 -4 -8 -10 -11 -5 -3 -10 -1 -10 4 0 6 5 11 10 11 6 0 10
-2 10 -4z m-815 -36 c3 -5 -1 -10 -10 -10 -9 0 -13 5 -10 10 3 6 8 10 10 10 2
0 7 -4 10 -10z m405 0 c0 -5 -5 -10 -11 -10 -5 0 -7 5 -4 10 3 6 8 10 11 10 2
0 4 -4 4 -10z m-1220 -4 c0 -3 -4 -8 -10 -11 -5 -3 -10 -1 -10 4 0 6 5 11 10
11 6 0 10 -2 10 -4z m503 -35 c3 -11 -1 -22 -9 -25 -8 -3 -13 0 -11 7 1 7 -5
11 -13 9 -10 -1 -9 2 4 13 24 19 23 19 29 -4z m231 -6 c-11 -8 -14 -17 -9 -26
5 -8 4 -11 -1 -6 -5 5 -9 19 -9 31 -1 17 4 22 17 18 17 -4 17 -5 2 -17z m170
10 c-4 -9 0 -15 10 -15 22 0 20 -17 -3 -23 -12 -3 -18 1 -17 12 1 10 -6 15
-19 14 -20 -1 -20 -1 -1 13 25 18 37 18 30 -1z m234 6 c11 -6 10 -10 -3 -15
-10 -3 -15 -12 -11 -21 4 -12 2 -13 -15 -2 -17 10 -17 13 -4 15 10 2 14 10 11
18 -6 16 2 18 22 5z m167 0 c-3 -6 1 -14 10 -18 12 -7 12 -10 -5 -21 -16 -10
-18 -9 -14 3 4 9 -1 18 -12 22 -16 6 -16 7 2 14 26 10 26 10 19 0z m241 -5
c19 -14 19 -14 -1 -13 -14 1 -19 -3 -17 -15 2 -12 -3 -15 -18 -11 -24 6 -27
23 -4 23 10 0 14 6 10 15 -7 19 5 19 30 1z m159 4 c-3 -6 1 -13 9 -16 9 -3 16
-10 16 -16 0 -5 -4 -6 -10 -3 -5 3 -10 1 -10 -4 0 -6 -4 -11 -9 -11 -5 0 -8 8
-7 18 0 9 -5 16 -11 15 -20 -4 -15 15 5 20 9 3 18 5 20 6 2 0 0 -4 -3 -9z
m-879 -57 c16 -22 17 -33 4 -33 -5 0 -10 7 -10 15 0 8 -4 15 -10 15 -5 0 -10
5 -10 10 0 15 11 12 26 -7z m394 7 c0 -5 -4 -10 -10 -10 -5 0 -10 5 -10 10 0
6 5 10 10 10 6 0 10 -4 10 -10z m400 -4 c-1 -5 4 -12 11 -17 8 -4 10 -12 5
-16 -4 -4 -14 1 -22 11 -17 23 -18 39 -3 34 6 -2 10 -7 9 -12z m-595 -16 c9 7
18 10 22 6 3 -3 1 -6 -6 -6 -7 0 -11 -6 -8 -13 3 -9 -3 -14 -22 -14 -19 0 -27
5 -27 18 0 13 3 15 13 7 9 -7 17 -7 28 2z m399 -1 c12 11 15 9 13 -8 -1 -14
-6 -20 -15 -16 -7 3 -22 1 -32 -5 -16 -9 -17 -7 -7 14 7 15 14 20 19 13 5 -8
11 -7 22 2z m376 1 c0 -5 -2 -10 -4 -10 -3 0 -8 5 -11 10 -3 6 -1 10 4 10 6 0
11 -4 11 -10z m-1173 -13 c0 -7 -11 -13 -23 -13 -14 -1 -21 3 -18 10 6 16 41
18 41 3z m178 3 c-3 -5 -10 -10 -16 -10 -5 0 -9 5 -9 10 0 6 7 10 16 10 8 0
12 -4 9 -10z m435 2 c0 -5 -13 -9 -30 -9 -16 0 -30 4 -30 9 0 4 14 8 30 8 17
0 30 -4 30 -8z m360 -1 c0 -5 -7 -11 -14 -14 -10 -4 -13 -1 -9 9 6 15 23 19
23 5z m-1657 -25 c9 5 9 4 0 -6 -13 -15 -37 -4 -26 13 5 8 8 8 11 -1 2 -7 9
-9 15 -6z m797 -11 c-7 -8 -18 -15 -24 -15 -6 0 -2 7 8 15 25 19 32 19 16 0z
m964 -14 c-2 -3 -12 3 -22 13 -16 17 -16 18 5 5 12 -7 20 -15 17 -18z m-1807
-1 c1 -16 -1 -17 -12 -7 -11 10 -8 19 10 27 1 0 1 -9 2 -20z m608 9 c4 -6 13
-8 19 -6 7 3 13 -1 13 -8 0 -10 -5 -11 -16 -5 -35 20 -46 30 -34 30 6 0 15 -5
18 -11z m421 -16 c-6 -6 -36 9 -36 18 0 5 9 4 20 -3 10 -7 18 -14 16 -15z
m379 17 c3 -5 1 -10 -4 -10 -6 0 -11 5 -11 10 0 6 2 10 4 10 3 0 8 -4 11 -10z
m221 -5 c-23 -18 -33 -19 -41 -5 -3 5 0 7 8 4 8 -3 18 -1 22 5 3 6 12 11 18
11 7 0 3 -7 -7 -15z m-416 -10 c0 -12 -19 -12 -23 0 -4 9 -1 12 9 8 7 -3 14
-7 14 -8z m-1104 -14 c-3 -5 -16 -11 -28 -14 -22 -6 -22 -5 -4 8 22 17 40 20
32 6z m393 -15 c9 -10 8 -15 -3 -19 -10 -4 -14 0 -13 14 2 23 1 23 16 5z m28
-18 c-3 -7 -5 -2 -5 12 0 14 2 19 5 13 2 -7 2 -19 0 -25z m191 9 c14 6 16 -13
2 -22 -6 -4 -8 -11 -5 -16 3 -5 -1 -6 -10 -2 -14 5 -14 8 -3 15 9 7 7 8 -10 5
-13 -3 -20 -1 -16 5 3 5 -2 16 -12 24 -17 13 -16 13 11 1 17 -8 36 -12 43 -10z
m180 11 c9 -9 15 -9 24 0 7 7 17 12 23 12 5 0 4 -4 -4 -9 -13 -8 -13 -12 0
-27 13 -16 12 -16 -8 -6 -12 7 -29 9 -39 5 -12 -5 -15 -3 -9 6 4 8 2 17 -6 22
-8 5 -9 9 -3 9 5 0 15 -5 22 -12z m424 0 c7 7 17 12 22 12 6 0 5 -5 -2 -12 -9
-9 -9 -15 1 -26 10 -13 9 -14 -11 -3 -12 6 -28 9 -35 5 -6 -4 -9 -4 -5 1 4 4
2 15 -5 24 -11 14 -10 14 6 2 14 -11 21 -11 29 -3z m-221 -12 c4 -4 17 -2 30
5 22 11 23 11 10 -4 -17 -21 -45 -22 -61 -1 -11 12 -11 15 1 12 8 -2 17 -7 20
-12z m402 -1 c6 -6 10 -6 14 3 5 12 23 7 23 -6 0 -15 -48 -11 -61 4 -10 12
-10 15 2 12 8 -2 18 -7 22 -13z m234 -9 c1 -11 -1 -15 -4 -8 -3 6 -11 12 -18
12 -7 0 -16 -6 -18 -12 -3 -7 -6 -4 -6 7 -1 14 6 20 22 21 17 1 23 -4 24 -20z
m-1397 -40 c0 -2 -9 -2 -20 1 -11 3 -20 9 -20 15 0 5 9 4 20 -2 11 -6 20 -12
20 -14z m780 14 c0 -5 -4 -10 -10 -10 -5 0 -10 5 -10 10 0 6 5 10 10 10 6 0
10 -4 10 -10z m405 0 c3 -5 -1 -10 -9 -10 -9 0 -16 5 -16 10 0 6 4 10 9 10 6
0 13 -4 16 -10z m-901 -22 c-5 -8 -1 -9 10 -5 10 4 15 3 11 -3 -8 -13 -18 -13
-39 3 -16 12 -16 13 4 14 13 1 18 -2 14 -9z"/>
<path d="M1182 1701 c-11 -7 -10 -10 3 -15 20 -7 38 1 30 15 -7 11 -16 11 -33
0z"/>
<path d="M1585 1700 c-3 -6 1 -13 10 -16 19 -8 30 0 20 15 -8 14 -22 14 -30 1z"/>
<path d="M582 1348 c6 -18 28 -21 28 -4 0 9 -7 16 -16 16 -9 0 -14 -5 -12 -12z"/>
<path d="M1385 1351 c-3 -5 -1 -12 4 -15 13 -8 42 4 35 15 -7 12 -31 12 -39 0z"/>
<path d="M1785 1351 c-3 -5 -1 -12 5 -16 12 -7 30 2 30 16 0 12 -27 12 -35 0z"/>
<path d="M1184 1009 c-10 -17 13 -36 27 -22 12 12 4 33 -11 33 -5 0 -12 -5
-16 -11z"/>
<path d="M1590 1000 c0 -13 5 -20 13 -17 6 2 12 10 12 17 0 7 -6 15 -12 18 -8
2 -13 -5 -13 -18z"/>
<path d="M1785 660 c-8 -13 20 -24 36 -15 8 6 7 10 -2 16 -18 11 -26 11 -34
-1z"/>
<path d="M1385 660 c-3 -6 1 -13 10 -16 19 -8 30 0 20 15 -8 14 -22 14 -30 1z"/>
<path d="M785 310 c-3 -5 -2 -10 4 -10 5 0 13 5 16 10 3 6 2 10 -4 10 -5 0
-13 -4 -16 -10z"/>
<path d="M1182 311 c-11 -7 -10 -10 3 -15 20 -7 38 1 30 15 -7 11 -16 11 -33
0z"/>
<path d="M1585 311 c-7 -12 12 -24 25 -16 11 7 4 25 -10 25 -5 0 -11 -4 -15
-9z"/>
<path d="M580 1965 c0 -21 6 -37 16 -43 15 -8 15 -10 0 -15 -16 -6 -23 -66 -9
-80 7 -8 148 67 181 96 13 12 22 32 22 49 0 23 -4 28 -25 28 -14 0 -25 -4 -25
-10 0 -5 -7 -10 -16 -10 -10 0 -14 -6 -10 -15 6 -17 -2 -19 -22 -6 -11 7 -11
9 2 14 35 14 12 26 -49 26 l-65 0 0 -34z"/>
<path d="M1985 1701 c-3 -5 -1 -12 5 -16 5 -3 10 1 10 9 0 18 -6 21 -15 7z"/>
<path d="M1992 1000 c0 -14 2 -19 5 -12 2 6 2 18 0 25 -3 6 -5 1 -5 -13z"/>
<path d="M580 825 c0 -24 5 -35 15 -35 8 0 15 -4 15 -10 0 -5 -6 -9 -12 -7
-17 3 -23 -80 -7 -99 8 -10 8 -14 0 -14 -6 0 -11 -4 -11 -10 0 -5 8 -10 18
-10 16 -1 16 -1 0 -11 -21 -12 -26 -99 -6 -99 9 0 9 -3 0 -12 -7 -7 -12 -27
-12 -45 0 -44 17 -43 104 9 105 62 106 64 104 172 -2 103 -5 119 -24 112 -7
-3 -11 0 -9 7 3 7 -15 21 -40 32 -25 11 -45 22 -45 26 0 9 -48 29 -70 29 -16
0 -20 -7 -20 -35z m136 -92 c0 -11 6 -17 17 -17 25 2 21 -3 -15 -22 -22 -11
-29 -12 -20 -3 10 11 8 17 -10 31 -13 11 -16 16 -7 12 10 -3 20 -1 24 5 9 16
13 13 11 -6z m-81 -91 c-3 -3 -11 0 -18 7 -9 10 -8 11 6 5 10 -3 15 -9 12 -12z
m85 -52 c-7 -4 -9 -13 -6 -19 8 -13 -3 -14 -22 -2 -11 7 -10 9 3 15 9 3 13 10
10 16 -4 6 1 7 10 3 12 -4 13 -8 5 -13z"/>
<path d="M0 534 c0 -8 5 -12 10 -9 6 3 10 10 10 16 0 5 -4 9 -10 9 -5 0 -10
-7 -10 -16z"/>
<path d="M537 404 c-16 -8 -25 -20 -21 -26 4 -6 3 -8 -4 -4 -15 9 -104 -36
-98 -50 3 -7 -2 -10 -13 -7 -15 4 -18 -4 -20 -58 -2 -56 1 -65 21 -81 l23 -17
-22 6 c-21 5 -23 2 -23 -35 0 -23 4 -43 8 -46 9 -5 160 81 185 106 13 13 17
37 16 122 0 114 -2 117 -52 90z m3 -156 c0 -5 -5 -6 -12 -2 -8 5 -9 2 -5 -9 7
-19 -1 -21 -22 -8 -9 6 -10 11 -2 15 6 4 9 11 6 16 -3 4 4 6 15 3 11 -3 20
-10 20 -15z"/>
<path d="M1985 311 c-3 -5 -1 -12 5 -16 5 -3 10 1 10 9 0 18 -6 21 -15 7z"/>
<path d="M288 261 c-43 -25 -78 -50 -78 -57 0 -7 35 -33 78 -58 l77 -45 3 49
c2 27 2 73 0 103 l-3 53 -77 -45z"/>
</g>
</svg>
