<?xml version="1.0" standalone="no"?>
<!DOCTYPE svg PUBLIC "-//W3C//DTD SVG 20010904//EN"
 "http://www.w3.org/TR/2001/REC-SVG-20010904/DTD/svg10.dtd">
<svg version="1.0" xmlns="http://www.w3.org/2000/svg"
 width="200.000000pt" height="200.000000pt" viewBox="0 0 200.000000 200.000000"
 preserveAspectRatio="xMidYMid meet">
<metadata>
Created by potrace 1.16, written by Peter Selinger 2001-2019
</metadata>
<g transform="translate(0.000000,200.000000) scale(0.100000,-0.100000)"
fill="#000000" stroke="none">
<path d="M2 1083 c-1 -594 2 -923 8 -923 5 0 32 13 58 30 27 16 55 30 63 30 8
0 5 -6 -8 -13 -11 -6 -44 -25 -72 -41 l-51 -29 0 -69 0 -68 179 0 180 0 4 27
4 28 2 -27 c2 -38 31 -38 31 0 0 15 -6 34 -12 41 -7 7 -8 11 -3 10 16 -4 55
11 55 22 0 5 -6 9 -14 9 -8 0 -16 4 -18 8 -1 4 -40 29 -86 56 -46 27 -81 50
-79 52 2 3 43 -18 90 -46 l87 -51 47 27 c27 14 66 39 87 55 42 31 56 35 56 19
0 -5 -6 -10 -13 -10 -8 0 -22 -9 -32 -20 -9 -10 -20 -19 -24 -18 -9 3 -101
-56 -101 -64 0 -14 24 -8 60 14 100 61 96 60 135 37 45 -27 45 -34 0 -12 -39
19 -44 17 -140 -42 -27 -17 -58 -34 -67 -38 -13 -4 -18 -17 -18 -42 l0 -35
190 0 190 0 0 35 c0 25 -6 37 -22 46 -20 11 -20 12 -4 21 16 9 16 11 -3 25
-25 17 -48 8 -31 -12 9 -11 7 -12 -9 -8 -11 3 -25 11 -31 18 -9 11 -7 12 8 8
41 -10 29 15 -18 41 -27 15 -53 32 -57 38 -3 7 15 -1 42 -17 27 -15 71 -40 97
-54 43 -23 46 -26 26 -34 -15 -5 -18 -11 -11 -18 8 -8 23 -6 52 7 23 10 41 21
41 26 0 7 -21 12 -41 10 -3 -1 -6 5 -6 12 0 8 8 11 20 8 10 -3 23 1 29 9 7 10
8 8 3 -8 -7 -26 14 -32 37 -10 7 6 30 20 50 29 l37 17 -2 118 c-2 94 -5 118
-16 118 -8 0 -16 6 -19 13 -2 7 0 12 5 11 16 -4 43 13 36 24 -3 5 -1 7 5 3 6
-3 27 3 46 15 20 11 36 18 36 15 0 -3 -14 -13 -31 -22 -22 -11 -28 -19 -21
-26 7 -7 29 0 69 23 32 18 60 36 61 41 2 4 10 8 18 8 12 0 14 22 13 120 -1 92
-4 120 -14 120 -7 0 -15 4 -17 8 -1 4 -40 29 -85 55 l-83 47 -90 -51 c-49 -28
-90 -55 -90 -59 0 -5 -7 -7 -15 -6 -26 4 -27 14 -3 21 13 4 57 28 98 53 41 25
86 45 100 45 14 0 60 -21 102 -47 44 -26 83 -44 89 -40 8 4 9 3 5 -4 -4 -7 -1
-12 7 -12 13 0 15 -19 13 -105 -1 -58 0 -108 3 -111 9 -9 9 -34 0 -28 -5 3 -9
1 -9 -4 0 -5 -14 -15 -30 -22 -17 -7 -30 -16 -30 -20 0 -4 -10 -11 -22 -14
-13 -3 -44 -19 -70 -35 l-46 -30 0 -107 1 -106 45 -29 c25 -16 52 -29 59 -29
7 0 13 -4 13 -10 0 -5 11 -12 25 -16 14 -3 25 -10 25 -15 0 -5 9 -9 20 -9 11
0 20 5 20 10 0 6 6 10 14 10 8 0 21 6 28 13 7 7 30 22 51 32 22 11 47 24 57
30 15 7 18 22 18 85 0 122 2 141 10 136 4 -2 7 -26 6 -53 -2 -38 2 -52 19 -66
l22 -18 -22 6 c-20 5 -21 2 -21 -39 0 -35 4 -46 18 -51 10 -3 24 -13 32 -23
12 -15 11 -16 -4 -4 -9 8 -23 10 -29 6 -8 -4 -9 -3 -5 4 4 7 1 12 -8 12 -17 0
-79 -31 -84 -42 -2 -5 -8 -8 -14 -8 -6 0 -32 -13 -57 -28 -47 -30 -72 -28
-112 4 -49 41 -123 64 -104 33 3 -5 -1 -6 -10 -3 -14 6 -14 8 2 19 15 11 15
13 -6 20 -13 4 -26 3 -30 -3 -3 -5 -16 -12 -29 -16 -12 -4 -20 -11 -17 -16 3
-4 -1 -7 -8 -6 -6 0 -40 -15 -74 -34 -57 -32 -62 -37 -61 -67 l1 -33 179 0
c140 0 178 3 172 13 -6 10 -4 10 7 0 7 -7 25 -13 39 -13 14 0 32 6 39 13 11 9
13 9 7 0 -6 -10 72 -13 373 -13 l381 1 0 32 c0 18 -6 39 -12 46 -7 8 -8 11 -2
8 8 -4 11 46 13 169 1 100 -2 173 -7 170 -5 -3 -9 1 -9 9 0 8 4 12 8 9 5 -3 8
16 7 41 l-1 45 -36 -21 c-20 -12 -60 -35 -88 -51 -29 -17 -55 -34 -58 -38 -5
-8 -32 4 -90 40 -50 31 -103 59 -107 56 -1 -2 -12 6 -23 17 l-20 20 21 -11
c12 -6 24 -8 28 -5 3 3 6 1 6 -5 0 -6 10 -14 23 -18 12 -3 30 -14 40 -22 15
-13 22 -14 37 -4 27 17 38 15 15 -2 -18 -13 -17 -15 15 -35 39 -23 56 -26 65
-10 4 6 -3 13 -15 16 -16 4 -18 8 -9 14 8 4 18 1 25 -8 10 -15 15 -14 50 8 62
38 78 47 101 58 21 9 22 17 22 123 l0 113 -74 43 c-41 23 -79 42 -85 42 -5 0
-10 4 -10 9 0 15 -29 21 -42 8 -7 -7 -33 -22 -58 -34 -25 -12 -65 -34 -90 -48
-32 -19 -38 -20 -20 -6 37 31 40 33 113 70 37 19 67 39 67 44 0 4 8 1 18 -9
16 -17 17 -16 23 12 6 27 9 23 13 -18 1 -18 134 -103 145 -93 3 3 -1 15 -8 27
-7 11 -8 17 -2 14 7 -5 10 51 10 174 -1 99 -4 178 -8 175 -4 -2 -8 2 -8 10 0
8 4 12 7 10 4 -3 8 13 8 35 1 29 -3 38 -11 33 -9 -5 -9 -3 0 8 16 20 16 178 0
198 -7 9 -7 12 -1 8 7 -4 11 9 12 38 0 31 -3 43 -11 39 -8 -5 -7 -2 1 7 8 9
12 52 12 137 0 96 -3 122 -12 116 -10 -6 -10 -4 -2 7 7 8 12 33 11 56 l0 42
-46 -26 c-25 -15 -69 -41 -98 -60 -29 -18 -55 -28 -58 -24 -2 5 5 11 16 14 13
4 18 10 13 18 -4 8 -3 10 5 5 6 -4 28 3 49 16 20 13 55 33 77 44 34 18 40 27
43 57 l3 35 -160 1 c-115 1 -161 -2 -161 -10 0 -8 -4 -8 -13 0 -9 7 -89 10
-235 10 l-222 0 6 -38 c6 -36 4 -39 -31 -57 -20 -10 -52 -27 -71 -37 -19 -9
-34 -21 -34 -25 0 -5 -6 -9 -13 -9 -7 0 -25 -8 -39 -17 -26 -17 -27 -21 -26
-109 0 -115 0 -122 -9 -113 -4 4 -6 52 -6 106 l2 100 -85 50 c-79 47 -124 62
-124 41 0 -5 -10 -11 -22 -15 -13 -3 -51 -24 -85 -47 -44 -28 -63 -47 -64 -62
0 -21 -1 -21 -10 2 -11 28 -4 35 89 83 34 18 62 36 62 40 0 4 7 8 15 8 7 0 18
7 23 15 7 14 11 14 33 -3 35 -28 86 -52 93 -45 3 4 6 2 6 -4 0 -19 70 -54 87
-44 12 6 7 13 -28 30 -24 12 -55 31 -69 42 -15 12 -2 8 34 -11 33 -16 65 -35
73 -41 10 -9 17 -8 28 1 13 11 13 14 -2 26 -22 16 -10 18 16 2 15 -9 29 -5 80
26 56 34 61 40 61 72 0 28 -4 34 -21 34 -11 0 -29 -5 -40 -10 -13 -7 -19 -7
-19 0 0 6 -52 10 -145 10 l-145 0 0 -26 c0 -15 8 -33 18 -41 15 -12 14 -12
-10 -2 -23 10 -26 16 -21 40 l5 28 -401 1 -401 0 -1 -32 -2 -33 -7 35 c-3 19
-7 -380 -8 -887z m758 903 c0 -3 -4 -8 -10 -11 -5 -3 -10 -1 -10 4 0 6 5 11
10 11 6 0 10 -2 10 -4z m765 -6 c-3 -5 -11 -10 -16 -10 -6 0 -7 5 -4 10 3 6
11 10 16 10 6 0 7 -4 4 -10z m395 0 c0 -5 -5 -10 -11 -10 -5 0 -7 5 -4 10 3 6
8 10 11 10 2 0 4 -4 4 -10z m-294 -16 c17 -14 17 -15 1 -10 -10 3 -25 6 -33 6
-9 0 -12 5 -9 10 9 14 18 13 41 -6z m-1241 -4 c-3 -5 -11 -10 -16 -10 -6 0 -7
5 -4 10 3 6 11 10 16 10 6 0 7 -4 4 -10z m33 -3 c-1 -2 4 -12 12 -23 14 -18
14 -18 -2 -5 -10 7 -18 20 -18 29 0 8 3 13 6 10 3 -4 4 -8 2 -11z m753 -14
c-8 -15 -10 -15 -11 -2 0 17 10 32 18 25 2 -3 -1 -13 -7 -23z m-397 7 c9 7 19
11 21 8 8 -7 -11 -21 -85 -64 -117 -67 -141 -77 -154 -63 -8 9 -8 10 1 5 13
-7 43 2 43 14 0 13 -35 21 -54 14 -11 -4 -16 -14 -13 -24 2 -10 1 -24 -4 -31
-7 -11 -9 -10 -9 4 0 10 -4 16 -8 13 -5 -3 -9 1 -9 9 0 8 4 12 9 9 7 -5 12 10
9 28 0 4 6 5 14 2 8 -4 15 -2 15 3 0 5 -25 22 -55 38 -30 17 -51 31 -46 33 5
2 32 -11 60 -28 29 -16 54 -30 57 -30 3 0 12 -7 20 -15 22 -21 32 -19 101 21
44 26 60 41 56 53 -4 13 -3 14 5 2 9 -12 13 -13 26 -1z m481 -1 c11 -17 -1
-21 -15 -4 -8 9 -8 15 -2 15 6 0 14 -5 17 -11z m715 1 c0 -5 -5 -10 -11 -10
-5 0 -7 5 -4 10 3 6 8 10 11 10 2 0 4 -4 4 -10z m-1620 -5 c0 -2 -18 -14 -40
-25 -48 -25 -53 -18 -7 10 32 20 47 25 47 15z m1330 -17 c0 -6 -6 -5 -15 2 -8
7 -15 14 -15 16 0 2 7 1 15 -2 8 -4 15 -11 15 -16z m-546 -3 c-4 -8 -10 -12
-15 -9 -11 6 -2 24 11 24 5 0 7 -7 4 -15z m386 -5 c0 -5 -5 -10 -11 -10 -5 0
-7 5 -4 10 3 6 8 10 11 10 2 0 4 -4 4 -10z m75 3 c-11 -3 -23 -10 -27 -17 -5
-7 -8 -5 -8 7 0 12 7 17 28 16 21 -1 22 -2 7 -6z m215 -8 c0 -2 -6 -5 -13 -8
-8 -3 -14 1 -14 8 0 7 6 11 14 8 7 -3 13 -6 13 -8z m110 5 c0 -5 -5 -10 -11
-10 -5 0 -7 5 -4 10 3 6 8 10 11 10 2 0 4 -4 4 -10z m-1830 -26 c0 -2 -9 0
-20 6 -11 6 -20 13 -20 16 0 2 9 0 20 -6 11 -6 20 -13 20 -16z m300 22 c0 -2
-7 -7 -16 -10 -8 -3 -12 -2 -9 4 6 10 25 14 25 6z m617 -10 c0 -8 -6 -12 -15
-9 -11 5 -11 7 0 14 7 5 13 9 14 9 0 0 1 -6 1 -14z m263 -8 c14 -13 25 -22 25
-20 0 2 8 0 17 -3 10 -4 15 -12 11 -18 -4 -6 -10 -5 -17 5 -11 15 -15 17 -48
26 -17 4 -34 32 -20 32 5 0 19 -10 32 -22z m140 18 c0 -2 -7 -7 -16 -10 -8 -3
-12 -2 -9 4 6 10 25 14 25 6z m260 -21 c0 4 7 -1 16 -9 18 -18 40 -21 49 -6 3
6 10 10 16 10 5 0 0 -9 -11 -20 -20 -20 -20 -20 -70 11 -27 17 -50 33 -50 36
0 3 11 -2 25 -11 14 -9 25 -14 25 -11z m-1410 1 c0 -2 -16 -13 -36 -25 -21
-13 -32 -26 -28 -33 4 -7 3 -8 -5 -4 -6 4 -18 2 -26 -4 -8 -7 -15 -10 -15 -8
0 8 92 78 102 78 4 0 8 -2 8 -4z m1095 -14 c-3 -3 -11 0 -18 7 -9 10 -8 11 6
5 10 -3 15 -9 12 -12z m100 0 c-3 -3 -11 0 -18 7 -9 10 -8 11 6 5 10 -3 15 -9
12 -12z m76 9 c-11 -7 -10 -11 5 -19 10 -6 15 -14 11 -18 -5 -5 -12 -2 -17 5
-5 9 -14 11 -26 6 -11 -5 -23 -9 -27 -9 -5 -1 -14 -8 -20 -16 -17 -21 -37 -23
-37 -4 0 10 6 14 15 10 8 -3 15 -1 15 4 0 5 11 12 24 16 14 3 27 12 30 20 3 8
13 14 23 14 14 0 15 -2 4 -9z m74 -1 c-3 -5 -12 -10 -18 -10 -7 0 -6 4 3 10
19 12 23 12 15 0z m265 3 c0 -1 -8 -7 -18 -12 -13 -7 -19 -6 -19 2 0 7 9 13
19 13 10 0 18 -1 18 -3z m-635 -13 c3 -6 -1 -7 -9 -4 -18 7 -21 14 -7 14 6 0
13 -4 16 -10z m-38 -24 c0 -8 -6 -12 -14 -9 -7 3 -21 -1 -30 -8 -13 -11 -15
-11 -9 -1 4 7 18 17 30 22 11 5 21 9 22 9 0 1 1 -5 1 -13z m218 4 c-3 -5 -12
-10 -18 -10 -7 0 -6 4 3 10 19 12 23 12 15 0z m235 6 c0 -2 -7 -7 -16 -10 -8
-3 -12 -2 -9 4 6 10 25 14 25 6z m165 -6 c-3 -5 -12 -10 -18 -10 -7 0 -6 4 3
10 19 12 23 12 15 0z m-422 -33 c23 -27 22 -34 -3 -12 -11 10 -20 15 -20 11 0
-4 -7 -1 -15 8 -8 8 -15 17 -15 20 0 10 35 -8 53 -27z m572 23 c3 -6 -1 -7 -9
-4 -18 7 -21 14 -7 14 6 0 13 -4 16 -10z m-355 -5 c0 -2 -10 -9 -22 -15 -22
-11 -22 -10 -4 4 21 17 26 19 26 11z m170 -21 c0 -2 -9 0 -20 6 -11 6 -20 13
-20 16 0 2 9 0 20 -6 11 -6 20 -13 20 -16z m-460 6 c0 -5 -2 -10 -4 -10 -3 0
-8 5 -11 10 -3 6 -1 10 4 10 6 0 11 -4 11 -10z m400 -17 c0 -10 -4 -14 -8 -8
-4 6 -11 13 -16 18 -5 4 -2 7 7 7 10 0 17 -8 17 -17z m180 7 c0 -5 -5 -10 -11
-10 -5 0 -7 5 -4 10 3 6 8 10 11 10 2 0 4 -4 4 -10z m-980 -22 c0 -6 -6 -5
-15 2 -8 7 -15 14 -15 16 0 2 7 1 15 -2 8 -4 15 -11 15 -16z m157 0 c-3 -8 -6
-5 -6 6 -1 11 2 17 5 13 3 -3 4 -12 1 -19z m-875 -124 c2 -79 0 -100 -10 -97
-7 3 -19 0 -27 -7 -8 -7 -15 -8 -15 -4 0 5 9 15 20 22 18 11 20 24 21 120 2
126 7 109 11 -34z m372 35 c-1 -55 -5 -105 -10 -109 -5 -5 -8 38 -6 100 2 61
6 110 10 110 4 0 6 -45 6 -101z m801 91 c3 -5 2 -10 -4 -10 -5 0 -13 5 -16 10
-3 6 -2 10 4 10 5 0 13 -4 16 -10z m-1215 -105 c0 -58 -3 -105 -7 -105 -5 0
-8 47 -8 105 0 58 3 105 8 105 4 0 7 -47 7 -105z m1695 95 c-3 -5 -11 -10 -16
-10 -6 0 -7 5 -4 10 3 6 11 10 16 10 6 0 7 -4 4 -10z m-890 -10 c3 -5 2 -10
-4 -10 -5 0 -13 5 -16 10 -3 6 -2 10 4 10 5 0 13 -4 16 -10z m350 0 c3 -6 -1
-7 -9 -4 -18 7 -21 14 -7 14 6 0 13 -4 16 -10z m95 0 c0 -5 -2 -10 -4 -10 -3
0 -8 5 -11 10 -3 6 -1 10 4 10 6 0 11 -4 11 -10z m90 0 c0 -5 -5 -10 -11 -10
-5 0 -7 5 -4 10 3 6 8 10 11 10 2 0 4 -4 4 -10z m-460 -4 c0 -3 -4 -8 -10 -11
-5 -3 -10 -1 -10 4 0 6 5 11 10 11 6 0 10 -2 10 -4z m685 -16 c3 -5 2 -10 -4
-10 -5 0 -13 5 -16 10 -3 6 -2 10 4 10 5 0 13 -4 16 -10z m-275 -10 c0 -5 -5
-10 -11 -10 -5 0 -7 5 -4 10 3 6 8 10 11 10 2 0 4 -4 4 -10z m-40 -22 c0 -4
-4 -8 -9 -8 -6 0 -12 4 -15 8 -3 5 1 9 9 9 8 0 15 -4 15 -9z m365 2 c3 -5 2
-10 -4 -10 -5 0 -13 5 -16 10 -3 6 -2 10 4 10 5 0 13 -4 16 -10z m-1168 -42
c-3 -7 -5 -2 -5 12 0 14 2 19 5 13 2 -7 2 -19 0 -25z m1203 22 c0 -5 -2 -10
-4 -10 -3 0 -8 5 -11 10 -3 6 -1 10 4 10 6 0 11 -4 11 -10z m-395 -30 c3 -5
-1 -10 -10 -10 -9 0 -13 5 -10 10 3 6 8 10 10 10 2 0 7 -4 10 -10z m-375 -25
c11 -13 10 -14 -4 -9 -9 3 -16 10 -16 15 0 13 6 11 20 -6z m730 5 c0 -5 -5
-10 -11 -10 -5 0 -7 5 -4 10 3 6 8 10 11 10 2 0 4 -4 4 -10z m80 0 c0 -5 -2
-10 -4 -10 -3 0 -8 5 -11 10 -3 6 -1 10 4 10 6 0 11 -4 11 -10z m-1241 -29
c-15 -5 -22 6 -14 19 6 9 10 9 16 -1 5 -8 4 -15 -2 -18z m471 -1 c0 -5 -2 -10
-4 -10 -3 0 -8 5 -11 10 -3 6 -1 10 4 10 6 0 11 -4 11 -10z m640 0 c0 -5 -5
-10 -11 -10 -5 0 -7 5 -4 10 3 6 8 10 11 10 2 0 4 -4 4 -10z m180 0 c0 -5 -2
-10 -4 -10 -3 0 -8 5 -11 10 -3 6 -1 10 4 10 6 0 11 -4 11 -10z m-1255 -10 c3
-5 1 -10 -4 -10 -6 0 -11 5 -11 10 0 6 2 10 4 10 3 0 8 -4 11 -10z m770 0 c3
-6 -1 -7 -9 -4 -18 7 -21 14 -7 14 6 0 13 -4 16 -10z m395 2 c0 -5 -7 -9 -15
-9 -8 0 -12 4 -9 9 3 4 9 8 15 8 5 0 9 -4 9 -8z m-1273 -26 c-8 -16 -14 -21
-19 -13 -4 7 0 17 9 25 22 16 23 16 10 -12z m132 -41 c17 -8 31 -18 31 -21 0
-2 -13 2 -30 11 -16 9 -30 12 -30 8 0 -5 -5 0 -11 10 -5 9 -17 17 -24 17 -15
0 -20 12 -9 23 3 3 14 -3 24 -13 11 -11 33 -26 49 -35z m391 29 c0 -2 -9 0
-20 6 -11 6 -20 13 -20 16 0 2 9 0 20 -6 11 -6 20 -13 20 -16z m310 21 c0 -2
-10 -9 -22 -15 -22 -11 -22 -10 -4 4 21 17 26 19 26 11z m80 -5 c0 -5 -2 -10
-4 -10 -3 0 -8 5 -11 10 -3 6 -1 10 4 10 6 0 11 -4 11 -10z m315 0 c-3 -5 -12
-10 -18 -10 -7 0 -6 4 3 10 19 12 23 12 15 0z m90 0 c3 -5 2 -10 -4 -10 -5 0
-13 5 -16 10 -3 6 -2 10 4 10 5 0 13 -4 16 -10z m-778 -32 c-3 -7 -5 -2 -5 12
0 14 2 19 5 13 2 -7 2 -19 0 -25z m-478 -18 c12 0 150 -78 173 -98 10 -8 14
-20 11 -26 -4 -6 -6 -21 -5 -33 2 -11 -1 -24 -6 -27 -5 -3 -10 0 -9 7 2 70 0
74 -81 121 -43 25 -84 46 -90 46 -7 0 -12 5 -12 11 0 6 -7 9 -15 5 -13 -5 -14
-2 -4 16 l12 22 8 -22 c5 -12 13 -22 18 -22z m1116 21 c-3 -6 -11 -11 -16 -11
-5 0 -4 6 3 14 14 16 24 13 13 -3z m133 -17 c2 -1 -4 -4 -13 -8 -10 -3 -14 -2
-10 5 4 6 -2 13 -14 16 -11 3 -18 10 -15 15 3 5 15 1 27 -9 12 -10 23 -18 25
-19z m-923 16 c-3 -5 -11 -10 -16 -10 -6 0 -7 5 -4 10 3 6 11 10 16 10 6 0 7
-4 4 -10z m42 -5 c0 -8 -4 -12 -9 -9 -5 3 -6 10 -3 15 9 13 12 11 12 -6z m99
-14 c4 0 10 -4 13 -9 3 -5 33 -25 66 -43 44 -25 60 -39 57 -51 -2 -10 2 -18 8
-18 9 0 9 -4 2 -12 -5 -7 -10 -50 -10 -96 0 -90 -11 -115 -58 -126 -13 -4 -24
-11 -24 -16 0 -6 -5 -10 -11 -10 -7 0 -33 -13 -60 -30 l-48 -29 -68 39 c-37
22 -71 40 -76 40 -5 0 -15 6 -23 14 -7 8 -19 16 -25 18 -10 3 -15 221 -4 237
2 4 -19 19 -46 34 -27 16 -49 29 -49 30 0 2 9 3 19 3 11 0 18 -3 15 -7 -2 -4
5 -11 17 -14 28 -9 59 -37 53 -47 -3 -4 0 -8 7 -8 8 0 8 -4 1 -12 -5 -7 -10
-56 -9 -109 l0 -96 56 -29 c31 -16 58 -32 61 -35 3 -3 20 -14 38 -24 31 -19
33 -19 65 0 17 10 34 21 37 24 3 3 31 19 62 36 l57 29 0 113 -1 113 -59 36
c-32 19 -64 32 -70 28 -8 -4 -9 -3 -5 4 4 7 -3 14 -18 18 -13 3 -27 12 -30 20
-5 12 -1 12 24 -1 16 -9 33 -15 36 -14z m439 19 c3 -5 2 -10 -4 -10 -5 0 -13
5 -16 10 -3 6 -2 10 4 10 5 0 13 -4 16 -10z m105 -4 c-7 -7 -13 -7 -20 0 -6 6
-3 10 10 10 13 0 16 -4 10 -10z m290 4 c0 -5 -2 -10 -4 -10 -3 0 -8 5 -11 10
-3 6 -1 10 4 10 6 0 11 -4 11 -10z m-1765 -12 c-6 -14 -106 -70 -113 -64 -2 3
99 69 115 75 1 1 0 -5 -2 -11z m1085 -7 c27 -16 29 -19 13 -25 -9 -4 -14 -4
-10 0 4 4 -5 16 -20 26 -37 24 -22 23 17 -1z m157 6 c0 -7 -8 -13 -18 -13 -13
0 -15 3 -7 13 6 7 14 13 18 13 3 0 7 -6 7 -13z m138 -41 c33 -25 8 -18 -35 10
-21 14 -43 23 -48 20 -5 -3 -9 1 -9 9 0 11 8 10 36 -5 20 -10 45 -25 56 -34z
m255 45 c0 -5 -7 -12 -16 -15 -14 -5 -15 -4 -4 9 14 17 20 19 20 6z m-1575
-11 c-3 -5 -12 -10 -18 -10 -7 0 -6 4 3 10 19 12 23 12 15 0z m339 -5 c-4 -8
-10 -12 -15 -9 -11 6 -2 24 11 24 5 0 7 -7 4 -15z m1036 0 c-7 -8 -17 -15 -23
-15 -6 0 -2 7 9 15 25 19 30 19 14 0z m83 2 c4 3 7 1 7 -5 0 -17 -16 -15 -31
6 -12 15 -12 16 2 5 9 -7 19 -10 22 -6z m-721 -11 c7 4 8 2 4 -4 -4 -7 -2 -12
3 -12 6 0 11 -5 11 -10 0 -6 -11 -3 -25 6 -14 9 -22 21 -18 27 5 8 8 7 11 -1
2 -7 9 -9 14 -6z m68 5 c0 -5 -9 -11 -21 -14 -16 -4 -18 -3 -8 9 13 16 29 19
29 5z m145 -9 c-3 -3 -11 0 -18 7 -9 10 -8 11 6 5 10 -3 15 -9 12 -12z m755
-3 c0 -14 -16 -11 -29 5 -10 12 -8 13 8 9 12 -3 21 -9 21 -14z m55 11 c3 -5 1
-10 -4 -10 -6 0 -11 5 -11 10 0 6 2 10 4 10 3 0 8 -4 11 -10z m-1462 -15 c-3
-9 -8 -14 -10 -11 -3 3 -2 9 2 15 9 16 15 13 8 -4z m811 -10 c-10 -8 -23 -14
-29 -14 -5 -1 1 8 15 19 14 10 27 17 29 14 3 -2 -4 -11 -15 -19z m406 5 c-24
-15 -36 -11 -14 4 10 8 21 12 24 10 2 -3 -2 -9 -10 -14z m-1314 1 c-4 -5 -3
-11 1 -14 5 -2 2 -2 -5 0 -7 1 -21 -1 -31 -6 -13 -7 -18 -6 -18 4 0 8 4 12 9
9 4 -3 16 0 25 5 23 13 26 13 19 2z m175 -8 c13 -15 12 -15 -8 -4 -24 12 -29
21 -14 21 5 0 15 -7 22 -17z m263 8 c-2 -3 5 -10 17 -17 l22 -11 -23 -13 c-13
-7 -20 -7 -16 -2 4 6 -2 19 -13 29 -20 18 -20 19 -1 19 10 0 17 -2 14 -5z
m-568 -29 c-7 -7 -46 9 -46 18 0 5 11 4 25 -2 14 -6 23 -13 21 -16z m774 24
c0 -3 -4 -8 -10 -11 -5 -3 -10 -1 -10 4 0 6 5 11 10 11 6 0 10 -2 10 -4z m155
-14 c-3 -3 -11 0 -18 7 -9 10 -8 11 6 5 10 -3 15 -9 12 -12z m175 -8 c0 -2 -9
0 -20 6 -11 6 -20 13 -20 16 0 2 9 0 20 -6 11 -6 20 -13 20 -16z m250 11 c7
-9 19 -14 27 -11 21 9 15 -2 -9 -15 -13 -6 -20 -8 -16 -4 10 10 -11 37 -23 29
-5 -3 -9 0 -9 5 0 16 16 13 30 -4z m135 -3 c-3 -3 -11 0 -18 7 -9 10 -8 11 6
5 10 -3 15 -9 12 -12z m195 -6 c0 -2 -9 -2 -20 1 -11 3 -20 9 -20 15 0 5 9 4
20 -2 11 -6 20 -12 20 -14z m-1507 -1 c-3 -9 -8 -14 -10 -11 -3 3 -2 9 2 15 9
16 15 13 8 -4z m1022 5 c3 -6 -1 -7 -9 -4 -18 7 -21 14 -7 14 6 0 13 -4 16
-10z m399 2 c2 -4 -4 -8 -14 -8 -10 0 -16 4 -14 8 3 4 9 8 14 8 5 0 11 -4 14
-8z m-857 -16 c0 -8 -8 -11 -21 -8 -19 5 -19 6 0 13 10 4 19 8 20 8 0 1 1 -5
1 -13z m233 -7 c0 -14 -17 -10 -23 5 -4 10 -1 13 9 9 7 -3 14 -9 14 -14z
m-824 0 c4 -6 6 -57 6 -113 0 -78 3 -105 15 -118 9 -10 20 -18 26 -18 5 0 36
-16 68 -36 32 -19 64 -32 70 -28 7 4 9 3 5 -4 -3 -6 3 -13 14 -17 11 -3 20
-13 20 -21 0 -17 -20 -19 -20 -1 0 10 -80 55 -88 49 -1 -1 -11 6 -23 16 -11
11 -37 28 -59 38 l-40 19 0 113 c0 73 -4 111 -10 107 -6 -4 -10 -53 -10 -115
0 -87 -3 -109 -15 -114 -12 -4 -13 -2 -6 12 5 10 9 63 8 117 0 55 2 106 7 113
9 15 23 15 32 1z m1004 6 c0 -2 -10 -9 -22 -15 -22 -11 -22 -10 -4 4 21 17 26
19 26 11z m390 -10 c0 -2 -6 -5 -13 -8 -8 -3 -14 1 -14 8 0 7 6 11 14 8 7 -3
13 -6 13 -8z m-1505 -5 c3 -6 -1 -7 -9 -4 -18 7 -21 14 -7 14 6 0 13 -4 16
-10z m50 0 c3 -5 3 -10 -2 -10 -4 0 -7 -52 -5 -116 2 -64 -1 -121 -5 -125 -5
-5 -7 40 -5 101 3 77 0 115 -8 125 -10 11 -10 15 -1 15 7 0 9 5 6 10 -3 6 -2
10 4 10 5 0 13 -4 16 -10z m760 0 c3 -6 -1 -7 -9 -4 -18 7 -21 14 -7 14 6 0
13 -4 16 -10z m490 -8 c-3 -3 -11 0 -18 7 -9 10 -8 11 6 5 10 -3 15 -9 12 -12z
m95 8 c0 -5 -5 -10 -11 -10 -5 0 -7 5 -4 10 3 6 8 10 11 10 2 0 4 -4 4 -10z
m220 0 c0 -5 -2 -10 -4 -10 -3 0 -8 5 -11 10 -3 6 -1 10 4 10 6 0 11 -4 11
-10z m-1880 -4 c0 -2 -8 -10 -17 -17 -16 -13 -17 -12 -4 4 13 16 21 21 21 13z
m820 -12 c0 -8 -5 -12 -10 -9 -6 4 -8 11 -5 16 9 14 15 11 15 -7z m790 -14 c0
-5 -5 -10 -11 -10 -5 0 -7 5 -4 10 3 6 8 10 11 10 2 0 4 -4 4 -10z m325 0 c3
-5 2 -10 -4 -10 -5 0 -13 5 -16 10 -3 6 -2 10 4 10 5 0 13 -4 16 -10z m-365
-20 c0 -5 -7 -7 -15 -4 -8 4 -15 8 -15 10 0 2 7 4 15 4 8 0 15 -4 15 -10z
m-740 -5 c0 -2 -10 -10 -22 -16 -21 -11 -22 -11 -9 4 13 16 31 23 31 12z m430
0 c0 -2 -10 -10 -22 -16 -21 -11 -22 -11 -9 4 13 16 31 23 31 12z m220 -5 c0
-5 -2 -10 -4 -10 -3 0 -8 5 -11 10 -3 6 -1 10 4 10 6 0 11 -4 11 -10z m400 0
c0 -5 -2 -10 -4 -10 -3 0 -8 5 -11 10 -3 6 -1 10 4 10 6 0 11 -4 11 -10z
m-1903 -22 c-3 -8 -6 -5 -6 6 -1 11 2 17 5 13 3 -3 4 -12 1 -19z m1153 -8 c0
-5 -2 -10 -4 -10 -3 0 -8 5 -11 10 -3 6 -1 10 4 10 6 0 11 -4 11 -10z m70 0
c0 -5 -5 -10 -11 -10 -5 0 -7 5 -4 10 3 6 8 10 11 10 2 0 4 -4 4 -10z m330 0
c0 -5 -2 -10 -4 -10 -3 0 -8 5 -11 10 -3 6 -1 10 4 10 6 0 11 -4 11 -10z m75
0 c-3 -5 -12 -10 -18 -10 -7 0 -6 4 3 10 19 12 23 12 15 0z m330 0 c3 -5 1
-10 -4 -10 -6 0 -11 5 -11 10 0 6 2 10 4 10 3 0 8 -4 11 -10z m-365 -20 c0 -5
-2 -10 -4 -10 -3 0 -8 5 -11 10 -3 6 -1 10 4 10 6 0 11 -4 11 -10z m-832 -70
c1 -38 -3 -52 -17 -59 -13 -7 -18 -6 -18 4 0 8 4 12 9 9 9 -6 12 15 9 64 -2
17 2 32 7 32 5 0 9 -22 10 -50z m459 28 c-3 -8 -6 -5 -6 6 -1 11 2 17 5 13 3
-3 4 -12 1 -19z m373 18 c0 -2 -7 -7 -16 -10 -8 -3 -12 -2 -9 4 6 10 25 14 25
6z m40 -26 c0 -5 -2 -10 -4 -10 -3 0 -8 5 -11 10 -3 6 -1 10 4 10 6 0 11 -4
11 -10z m-900 -5 c0 -2 -10 -9 -22 -15 -22 -11 -22 -10 -4 4 21 17 26 19 26
11z m-733 -42 c-3 -10 -5 -4 -5 12 0 17 2 24 5 18 2 -7 2 -21 0 -30z m1503 23
c0 -7 -9 -16 -21 -19 -21 -6 -21 -5 -3 13 23 23 24 23 24 6z m184 -15 c-2 -3
-12 3 -22 13 -16 17 -16 18 5 5 12 -7 20 -15 17 -18z m-589 9 c-3 -5 -11 -10
-16 -10 -6 0 -7 5 -4 10 3 6 11 10 16 10 6 0 7 -4 4 -10z m805 0 c0 -5 -5 -10
-11 -10 -5 0 -7 5 -4 10 3 6 8 10 11 10 2 0 4 -4 4 -10z m-680 -16 c0 -8 -5
-12 -10 -9 -6 4 -8 11 -5 16 9 14 15 11 15 -7z m-70 -9 c-7 -9 -15 -13 -17
-11 -7 7 7 26 19 26 6 0 6 -6 -2 -15z m400 5 c0 -5 -5 -10 -11 -10 -5 0 -7 5
-4 10 3 6 8 10 11 10 2 0 4 -4 4 -10z m-1481 -33 c0 -9 -2 -8 -6 1 -2 6 -10 9
-15 6 -7 -4 -8 -2 -4 5 9 13 26 5 25 -12z m637 -4 c-2 -9 -8 -19 -14 -21 -8
-2 -10 13 -3 36 1 1 5 2 10 2 5 0 8 -8 7 -17z m394 7 c0 -5 -5 -10 -11 -10 -5
0 -7 5 -4 10 3 6 8 10 11 10 2 0 4 -4 4 -10z m170 0 c0 -5 -2 -10 -4 -10 -3 0
-8 5 -11 10 -3 6 -1 10 4 10 6 0 11 -4 11 -10z m230 0 c0 -5 -5 -10 -11 -10
-5 0 -7 5 -4 10 3 6 8 10 11 10 2 0 4 -4 4 -10z m125 -28 c-3 -3 -13 2 -23 11
-17 15 -20 15 -41 1 -12 -9 -25 -14 -28 -11 -2 3 8 12 23 20 25 13 31 13 51 0
13 -9 21 -18 18 -21z m50 28 c3 -6 -1 -7 -9 -4 -18 7 -21 14 -7 14 6 0 13 -4
16 -10z m225 -3 c0 -8 -7 -14 -15 -14 -11 0 -12 4 -4 14 6 7 13 13 15 13 2 0
4 -6 4 -13z m-1427 -54 c56 -32 104 -57 107 -56 3 1 5 -49 5 -110 l0 -112 -53
-32 c-29 -18 -55 -33 -58 -33 -3 0 -18 -9 -34 -20 -37 -26 -80 -42 -80 -30 0
6 5 10 12 10 7 0 54 25 105 55 l93 56 0 102 c0 91 -2 103 -19 112 -11 6 -54
29 -95 53 -42 24 -80 40 -86 37 -5 -3 -10 1 -10 9 0 9 3 16 6 16 3 0 52 -26
107 -57z m114 44 c0 -7 -9 -13 -19 -13 -18 0 -18 1 -2 13 10 7 18 13 19 13 1
0 2 -6 2 -13z m403 3 c0 -5 -5 -10 -11 -10 -5 0 -7 5 -4 10 3 6 8 10 11 10 2
0 4 -4 4 -10z m240 -16 c0 -2 -9 0 -20 6 -11 6 -20 13 -20 16 0 2 9 0 20 -6
11 -6 20 -13 20 -16z m160 16 c0 -5 -4 -10 -10 -10 -5 0 -10 5 -10 10 0 6 5
10 10 10 6 0 10 -4 10 -10z m395 0 c3 -5 1 -10 -4 -10 -6 0 -11 5 -11 10 0 6
2 10 4 10 3 0 8 -4 11 -10z m-1005 -24 c0 -2 -11 -1 -25 2 -14 2 -22 8 -19 13
4 8 44 -6 44 -15z m1180 20 c0 -6 -87 -56 -97 -56 -4 0 12 14 37 30 43 27 60
35 60 26z m-206 -19 c-3 -8 -11 -14 -19 -14 -21 0 -19 15 3 20 9 3 18 5 19 6
1 0 0 -5 -3 -12z m-1609 -13 c-10 -8 -24 -14 -31 -14 -7 0 -11 -12 -9 -30 3
-29 -8 -40 -20 -20 -3 6 -2 10 4 10 6 0 8 7 5 15 -4 8 -11 12 -18 9 -6 -3 -3
1 6 9 10 8 15 17 11 21 -4 4 1 4 11 0 11 -4 17 -3 14 2 -4 5 6 10 20 11 25 1
26 0 7 -13z m205 6 c0 -9 -21 -15 -42 -11 -5 0 -8 -3 -8 -9 0 -5 -5 -10 -12
-10 -6 0 -26 -11 -44 -25 -18 -14 -37 -25 -42 -25 -6 0 -12 -6 -15 -12 -2 -7
-8 -10 -13 -5 -4 4 3 15 16 24 22 16 22 17 4 23 -40 15 -44 3 -44 -120 0 -103
-2 -119 -17 -125 -15 -5 -16 -4 -5 6 17 18 17 180 0 198 -10 11 -10 13 0 7 11
-6 18 19 13 47 -1 5 3 6 9 2 5 -3 18 -1 29 4 14 8 20 7 25 -4 8 -21 26 -19 67
10 20 13 39 21 43 18 3 -4 6 -1 6 5 0 7 7 12 15 12 8 0 15 -4 15 -10z m367 -5
c0 -9 -6 -14 -14 -11 -7 3 -13 0 -13 -6 0 -6 -3 -8 -7 -4 -5 4 1 14 11 22 24
17 23 17 23 -1z m468 5 c-3 -5 -12 -10 -18 -10 -7 0 -6 4 3 10 19 12 23 12 15
0z m95 -13 c0 -2 -8 -3 -18 -3 -10 0 -19 6 -19 13 0 8 6 9 19 2 10 -5 18 -11
18 -12z m64 15 c3 -5 -1 -9 -9 -9 -8 0 -15 4 -15 9 0 4 4 8 9 8 6 0 12 -4 15
-8z m100 0 c3 -5 -1 -9 -9 -9 -8 0 -15 4 -15 9 0 4 4 8 9 8 6 0 12 -4 15 -8z
m57 -12 c-13 -11 -28 -20 -35 -20 -6 0 3 9 19 20 38 25 47 25 16 0z m89 5 c0
-2 -6 -5 -13 -8 -8 -3 -14 1 -14 8 0 7 6 11 14 8 7 -3 13 -6 13 -8z m-945 -7
c26 -12 32 -23 15 -33 -5 -3 -10 1 -10 11 0 11 -6 15 -18 12 -11 -3 -19 0 -19
8 0 17 0 17 32 2z m165 2 c0 -5 -4 -10 -10 -10 -5 0 -10 5 -10 10 0 6 5 10 10
10 6 0 10 -4 10 -10z m865 0 c3 -5 1 -10 -4 -10 -6 0 -11 5 -11 10 0 6 2 10 4
10 3 0 8 -4 11 -10z m-680 -20 c3 -6 -1 -7 -9 -4 -18 7 -21 14 -7 14 6 0 13
-4 16 -10z m145 0 c0 -5 -7 -10 -15 -10 -8 0 -15 5 -15 10 0 6 7 10 15 10 8 0
15 -4 15 -10z m254 2 c2 -4 -4 -8 -14 -8 -10 0 -16 4 -14 8 3 4 9 8 14 8 5 0
11 -4 14 -8z m146 -7 c0 -2 -6 -5 -13 -8 -8 -3 -14 1 -14 8 0 7 6 11 14 8 7
-3 13 -6 13 -8z m95 -3 c-3 -3 -11 0 -18 7 -9 10 -8 11 6 5 10 -3 15 -9 12
-12z m205 -7 c-14 -17 -30 -20 -30 -6 0 5 8 12 18 14 9 3 19 5 21 6 2 0 -2 -6
-9 -14z m-405 -5 c-3 -5 -10 -10 -16 -10 -5 0 -9 5 -9 10 0 6 7 10 16 10 8 0
12 -4 9 -10z m-250 -10 c3 -6 -1 -7 -9 -4 -18 7 -21 14 -7 14 6 0 13 -4 16
-10z m115 -10 c0 -5 -2 -10 -4 -10 -3 0 -8 5 -11 10 -3 6 -1 10 4 10 6 0 11
-4 11 -10z m90 -4 c-7 -7 -13 -7 -20 0 -6 6 -3 10 10 10 13 0 16 -4 10 -10z
m90 9 c0 -2 -10 -9 -22 -15 -22 -11 -22 -10 -4 4 21 17 26 19 26 11z m225 -5
c3 -5 2 -10 -4 -10 -5 0 -13 5 -16 10 -3 6 -2 10 4 10 5 0 13 -4 16 -10z
m-755 -26 c0 -2 -9 0 -20 6 -11 6 -20 13 -20 16 0 2 9 0 20 -6 11 -6 20 -13
20 -16z m-445 -2 c-3 -3 -11 0 -18 7 -9 10 -8 11 6 5 10 -3 15 -9 12 -12z
m1325 3 c0 -8 -4 -15 -10 -15 -5 0 -7 7 -4 15 4 8 8 15 10 15 2 0 4 -7 4 -15z
m-480 -5 c0 -5 -2 -10 -4 -10 -3 0 -8 5 -11 10 -3 6 -1 10 4 10 6 0 11 -4 11
-10z m405 0 c3 -5 2 -10 -4 -10 -5 0 -13 5 -16 10 -3 6 -2 10 4 10 5 0 13 -4
16 -10z m-1205 -21 c0 -6 -4 -7 -10 -4 -5 3 -10 11 -10 16 0 6 5 7 10 4 6 -3
10 -11 10 -16z m442 9 c-9 -9 -15 -9 -24 0 -9 9 -7 12 12 12 19 0 21 -3 12
-12z m88 -3 c-7 -8 -18 -15 -24 -15 -6 0 -2 7 8 15 25 19 32 19 16 0z m-897
-94 c1 -50 -1 -91 -5 -91 -5 0 -8 44 -8 97 0 121 10 117 13 -6z m437 89 c0 -5
-5 -10 -11 -10 -5 0 -7 5 -4 10 3 6 8 10 11 10 2 0 4 -4 4 -10z m280 0 c0 -5
-2 -10 -4 -10 -3 0 -8 5 -11 10 -3 6 -1 10 4 10 6 0 11 -4 11 -10z m400 -12
c0 -6 -6 -5 -15 2 -8 7 -15 14 -15 16 0 2 7 1 15 -2 8 -4 15 -11 15 -16z m90
12 c0 -5 -2 -10 -4 -10 -3 0 -8 5 -11 10 -3 6 -1 10 4 10 6 0 11 -4 11 -10z
m90 1 c0 -5 -7 -12 -16 -15 -14 -5 -15 -4 -4 9 14 17 20 19 20 6z m224 -6 c3
-8 1 -15 -4 -15 -6 0 -10 7 -10 15 0 8 2 15 4 15 2 0 6 -7 10 -15z m86 5 c0
-5 -2 -10 -4 -10 -3 0 -8 5 -11 10 -3 6 -1 10 4 10 6 0 11 -4 11 -10z m-750
-15 c0 -2 -10 -9 -22 -15 -22 -11 -22 -10 -4 4 21 17 26 19 26 11z m-90 -15
c0 -5 -2 -10 -4 -10 -3 0 -8 5 -11 10 -3 6 -1 10 4 10 6 0 11 -4 11 -10z m395
0 c3 -5 2 -10 -4 -10 -5 0 -13 5 -16 10 -3 6 -2 10 4 10 5 0 13 -4 16 -10z
m95 5 c0 -2 -10 -10 -22 -16 -21 -11 -22 -11 -9 4 13 16 31 23 31 12z m390 -4
c0 -5 -7 -12 -16 -15 -14 -5 -15 -4 -4 9 14 17 20 19 20 6z m-40 -59 c0 -5 -7
-9 -15 -9 -8 0 -12 4 -9 9 3 4 9 8 15 8 5 0 9 -4 9 -8z m-400 -22 c0 -5 -2
-10 -4 -10 -3 0 -8 5 -11 10 -3 6 -1 10 4 10 6 0 11 -4 11 -10z m445 1 c3 -5
1 -12 -4 -15 -5 -3 -11 1 -15 9 -6 16 9 21 19 6z m-490 -20 c-3 -6 -11 -11
-17 -11 -6 0 -6 6 2 15 14 17 26 13 15 -4z m85 -1 c0 -5 -2 -10 -4 -10 -3 0
-8 5 -11 10 -3 6 -1 10 4 10 6 0 11 -4 11 -10z m261 -13 c-10 -9 -11 -8 -5 6
3 10 9 15 12 12 3 -3 0 -11 -7 -18z m194 3 c3 -5 2 -10 -4 -10 -5 0 -13 5 -16
10 -3 6 -2 10 4 10 5 0 13 -4 16 -10z m-935 -9 c0 -5 -7 -12 -16 -15 -14 -5
-15 -4 -4 9 14 17 20 19 20 6z m75 -9 c-3 -3 -11 0 -18 7 -9 10 -8 11 6 5 10
-3 15 -9 12 -12z m275 9 c0 -5 -7 -12 -16 -15 -14 -5 -15 -4 -4 9 14 17 20 19
20 6z m175 -9 c-3 -3 -11 0 -18 7 -9 10 -8 11 6 5 10 -3 15 -9 12 -12z m-80
-1 c3 -6 -3 -9 -14 -8 -11 0 -17 5 -15 9 7 11 22 10 29 -1z m355 0 c0 -5 -7
-12 -16 -15 -14 -5 -15 -4 -4 9 14 17 20 19 20 6z m-850 -21 c0 -5 -5 -10 -11
-10 -5 0 -7 5 -4 10 3 6 8 10 11 10 2 0 4 -4 4 -10z m175 0 c3 -5 2 -10 -4
-10 -5 0 -13 5 -16 10 -3 6 -2 10 4 10 5 0 13 -4 16 -10z m355 0 c0 -5 -2 -10
-4 -10 -3 0 -8 5 -11 10 -3 6 -1 10 4 10 6 0 11 -4 11 -10z m-1320 -4 c0 -3
-4 -8 -10 -11 -5 -3 -10 -1 -10 4 0 6 5 11 10 11 6 0 10 -2 10 -4z m510 -11
c0 -8 -5 -15 -11 -15 -5 0 -8 -3 -6 -7 3 -5 -9 -9 -25 -10 -27 -2 -33 10 -7
13 5 1 14 2 19 3 6 0 9 4 9 9 -3 14 1 22 11 22 6 0 10 -7 10 -15z m798 -10 c6
0 12 -3 12 -7 0 -5 -2 -8 -5 -8 -3 0 -9 0 -15 0 -5 0 -14 10 -20 23 -9 18 -9
20 2 7 7 -8 19 -15 26 -15z m292 20 c0 -2 -10 -10 -22 -16 -21 -11 -22 -11 -9
4 13 16 31 23 31 12z m-1529 -25 c18 0 28 4 24 10 -7 11 8 14 18 4 9 -10 -27
-41 -42 -36 -10 4 -12 1 -6 -8 5 -9 4 -11 -4 -6 -6 4 -9 11 -6 16 7 11 -24 22
-38 13 -7 -4 -5 1 3 11 8 11 16 14 18 7 2 -6 17 -11 33 -11z m1203 -29 c-2 -2
-10 2 -18 8 -8 7 -20 10 -25 6 -7 -3 -8 0 -5 9 5 14 9 13 29 -2 13 -9 21 -19
19 -21z m107 22 c13 -15 12 -15 -8 -4 -24 12 -29 21 -14 21 5 0 15 -7 22 -17z
m84 7 c-3 -5 -11 -10 -16 -10 -6 0 -7 5 -4 10 3 6 11 10 16 10 6 0 7 -4 4 -10z
m-915 -20 c-6 -11 -15 -20 -20 -20 -5 0 -7 -6 -4 -14 4 -11 0 -13 -15 -9 -11
3 -22 11 -25 18 -3 9 2 11 16 7 14 -3 19 -1 14 6 -5 8 -2 10 9 6 9 -4 15 -3
14 2 -3 16 1 24 11 24 7 0 7 -6 0 -20z m-555 0 c-3 -5 -11 -10 -16 -10 -6 0
-7 5 -4 10 3 6 11 10 16 10 6 0 7 -4 4 -10z m887 -2 c-9 -9 -15 -9 -24 0 -9 9
-7 12 12 12 19 0 21 -3 12 -12z m-856 -6 c-3 -5 18 -21 46 -36 71 -39 128 -75
128 -82 0 -4 -10 0 -22 8 -69 45 -140 79 -154 74 -8 -3 -12 -2 -9 3 3 5 0 13
-6 17 -8 4 -7 9 2 15 18 11 22 11 15 1z m561 -7 c0 -8 -4 -12 -9 -9 -5 3 -6
10 -3 15 9 13 12 11 12 -6z m478 5 c3 -6 -1 -7 -9 -4 -18 7 -21 14 -7 14 6 0
13 -4 16 -10z m127 -8 c-6 -2 -14 -3 -18 -2 -4 1 -11 -4 -16 -12 -8 -10 -9
-10 -5 2 2 8 10 14 16 13 6 -2 11 2 11 8 0 5 5 7 12 3 9 -6 9 -9 0 -12z m175
4 c0 -8 -6 -12 -14 -9 -7 3 -10 9 -7 14 8 14 21 11 21 -5z m153 6 c0 -5 -7 -9
-15 -9 -8 0 -15 4 -15 9 0 4 7 8 15 8 8 0 15 -4 15 -8z m-1097 -16 c16 -12 16
-14 2 -20 -11 -4 -14 -2 -9 6 5 7 2 9 -8 6 -9 -4 -15 0 -15 8 0 17 7 17 30 0z
m416 -2 c-6 -7 -19 -12 -30 -11 -18 1 -18 3 -5 13 22 16 49 14 35 -2z m105 -3
c3 -4 -4 -7 -14 -8 -10 -1 -21 4 -23 12 -4 9 1 11 14 8 11 -3 21 -8 23 -12z
m169 -9 c16 -18 14 -32 -5 -32 -5 0 -6 5 -3 11 4 6 -1 17 -11 24 -11 8 -14 15
-8 15 6 0 18 -8 27 -18z m293 6 c4 -6 3 -8 -4 -4 -5 3 -13 0 -15 -6 -3 -8 -6
-6 -6 5 -1 19 14 23 25 5z m59 -6 c-3 -3 -11 0 -18 7 -9 10 -8 11 6 5 10 -3
15 -9 12 -12z m160 8 c3 -5 1 -10 -4 -10 -6 0 -11 5 -11 10 0 6 2 10 4 10 3 0
8 -4 11 -10z m105 0 c0 -5 -5 -10 -11 -10 -5 0 -7 5 -4 10 3 6 8 10 11 10 2 0
4 -4 4 -10z m-1076 -8 c2 -4 -4 -8 -14 -8 -10 0 -16 4 -14 8 3 4 9 8 14 8 5 0
11 -4 14 -8z m-441 -25 c4 3 7 1 7 -5 0 -20 -19 -13 -30 11 -10 20 -10 20 3 5
8 -10 17 -15 20 -11z m264 9 c0 -8 -6 -12 -15 -9 -11 5 -11 7 0 14 7 5 13 9
14 9 0 0 1 -6 1 -14z m966 8 c11 -11 -3 -24 -18 -18 -8 4 -12 10 -9 15 6 11
18 12 27 3z m257 1 c0 -2 -9 -9 -20 -15 -12 -6 -20 -7 -20 -1 0 5 8 12 18 14
9 3 18 5 20 6 1 0 2 -1 2 -4z m-947 -20 c-3 -9 -8 -14 -10 -11 -3 3 -2 9 2 15
9 16 15 13 8 -4z m127 5 c0 -5 -2 -10 -4 -10 -3 0 -8 5 -11 10 -3 6 -1 10 4
10 6 0 11 -4 11 -10z m142 -12 c24 -12 27 -18 30 -83 4 -90 -3 -139 -21 -143
-11 -2 -12 0 -4 10 6 7 11 53 11 101 1 82 -1 89 -22 96 -12 5 -28 17 -36 27
-17 20 -12 19 42 -8z m258 12 c0 -5 -2 -10 -4 -10 -3 0 -8 5 -11 10 -3 6 -1
10 4 10 6 0 11 -4 11 -10z m-635 -28 c11 -25 18 -27 48 -10 20 10 21 10 8 -5
-19 -23 -52 -21 -58 3 -12 46 -19 14 -18 -80 l2 -99 -80 -46 c-44 -24 -82 -43
-84 -41 -2 2 30 23 72 47 l76 44 -1 90 c-1 50 0 95 1 100 1 6 1 14 0 18 -3 17
24 0 34 -21z m905 8 c0 -5 -5 -10 -11 -10 -5 0 -7 5 -4 10 3 6 8 10 11 10 2 0
4 -4 4 -10z m-1297 -110 c-3 -66 -1 -100 6 -100 6 0 8 -7 5 -15 -15 -38 -24 6
-24 111 0 63 4 113 9 110 4 -3 6 -51 4 -106z m877 106 c0 -3 -4 -8 -10 -11 -5
-3 -10 -1 -10 4 0 6 5 11 10 11 6 0 10 -2 10 -4z m350 -38 c0 -10 -56 18 -65
32 -4 6 10 3 29 -7 20 -9 36 -20 36 -25z m-1587 17 c-3 -9 -8 -14 -10 -11 -3
3 -2 9 2 15 9 16 15 13 8 -4z m402 5 c-3 -5 -11 -10 -16 -10 -6 0 -7 5 -4 10
3 6 11 10 16 10 6 0 7 -4 4 -10z m36 -34 c-11 -13 -51 -29 -51 -20 0 3 51 33
59 34 2 0 -2 -6 -8 -14z m679 -1 c11 -13 10 -14 -4 -9 -9 3 -16 10 -16 15 0
13 6 11 20 -6z m430 -6 c0 -11 -4 -18 -10 -14 -5 3 -7 12 -3 20 7 21 13 19 13
-6z m-310 -3 c0 -3 -4 -8 -10 -11 -5 -3 -10 -1 -10 4 0 6 5 11 10 11 6 0 10
-2 10 -4z m-913 -28 c-3 -8 -6 -5 -6 6 -1 11 2 17 5 13 3 -3 4 -12 1 -19z
m452 -12 c-1 -16 -2 -17 -6 -3 -2 9 -9 17 -14 17 -5 0 -9 4 -9 10 0 5 7 7 15
4 8 -4 14 -16 14 -28z m36 24 c-3 -5 -10 -10 -16 -10 -5 0 -9 5 -9 10 0 6 7
10 16 10 8 0 12 -4 9 -10z m805 6 c0 -3 -4 -8 -10 -11 -5 -3 -10 -1 -10 4 0 6
5 11 10 11 6 0 10 -2 10 -4z m-30 -18 c0 -4 -4 -8 -9 -8 -6 0 -12 4 -15 8 -3
5 1 9 9 9 8 0 15 -4 15 -9z m20 -38 c0 -5 -8 -6 -19 -3 -10 2 -24 -1 -32 -9
-15 -14 -39 -22 -39 -13 0 3 14 14 31 24 30 18 59 19 59 1z m345 -10 c-3 -5
-11 -10 -16 -10 -6 0 -7 5 -4 10 3 6 11 10 16 10 6 0 7 -4 4 -10z m-1152 -53
c-3 -5 -9 -4 -13 3 -4 7 -15 10 -24 7 -19 -8 -21 -1 -4 17 10 10 15 10 29 -3
10 -8 15 -19 12 -24z m437 28 c11 -13 10 -14 -4 -9 -9 3 -16 10 -16 15 0 13 6
11 20 -6z m420 5 c0 -5 -2 -10 -4 -10 -3 0 -8 5 -11 10 -3 6 -1 10 4 10 6 0
11 -4 11 -10z m-155 -10 c-3 -5 -11 -10 -16 -10 -6 0 -7 5 -4 10 3 6 11 10 16
10 6 0 7 -4 4 -10z m399 -5 c-4 -8 -10 -12 -15 -9 -11 6 -2 24 11 24 5 0 7 -7
4 -15z m-784 1 c0 -3 -4 -8 -10 -11 -5 -3 -10 -1 -10 4 0 6 5 11 10 11 6 0 10
-2 10 -4z m470 -5 c0 -5 -7 -11 -15 -15 -15 -5 -20 5 -8 17 9 10 23 9 23 -2z
m25 -11 c3 -5 1 -10 -4 -10 -6 0 -11 5 -11 10 0 6 2 10 4 10 3 0 8 -4 11 -10z
m-65 -10 c0 -5 -5 -10 -11 -10 -5 0 -7 5 -4 10 3 6 8 10 11 10 2 0 4 -4 4 -10z
m400 0 c0 -5 -5 -10 -11 -10 -5 0 -7 5 -4 10 3 6 8 10 11 10 2 0 4 -4 4 -10z
m-1147 -31 c4 -15 1 -16 -19 -7 -25 12 -25 25 0 25 8 0 17 -8 19 -18z m429 -8
c3 -22 1 -28 -11 -23 -8 3 -12 1 -8 -4 3 -5 -2 -10 -12 -10 -10 0 -18 5 -18
12 0 6 7 11 16 10 9 -1 17 8 19 22 5 30 9 28 14 -7z m428 19 c0 -5 -2 -10 -4
-10 -3 0 -8 5 -11 10 -3 6 -1 10 4 10 6 0 11 -4 11 -10z m-540 -5 c0 -2 -10
-9 -22 -15 -22 -11 -22 -10 -4 4 21 17 26 19 26 11z m430 -11 c0 -8 -4 -12
-10 -9 -5 3 -10 1 -10 -6 0 -7 -3 -9 -6 -6 -4 4 -1 13 6 22 16 19 20 19 20 -1z
m350 6 c0 -5 -5 -10 -11 -10 -5 0 -7 5 -4 10 3 6 8 10 11 10 2 0 4 -4 4 -10z
m-1126 -38 c3 -5 -6 -7 -19 -4 -14 2 -22 9 -18 15 4 6 0 8 -9 5 -8 -4 -15 0
-15 7 0 11 5 11 28 -1 15 -7 30 -18 33 -22z m613 24 c0 -8 -6 -12 -15 -9 -11
5 -11 7 0 14 7 5 13 9 14 9 0 0 1 -6 1 -14z m407 6 c2 -4 -4 -8 -14 -8 -10 0
-16 4 -14 8 3 4 9 8 14 8 5 0 11 -4 14 -8z m-1374 -32 c0 -6 -9 -5 -20 2 -11
7 -20 16 -20 21 0 4 9 3 20 -3 11 -6 20 -15 20 -20z m430 14 c0 -2 -7 -4 -15
-4 -8 0 -15 4 -15 10 0 5 7 7 15 4 8 -4 15 -8 15 -10z m655 -3 c-3 -6 2 -14
11 -19 15 -8 15 -10 0 -15 -10 -4 -15 -3 -12 2 3 5 -1 12 -10 15 -16 6 -11 26
7 26 6 0 8 -4 4 -9z m75 -1 c0 -5 -4 -10 -10 -10 -5 0 -10 5 -10 10 0 6 5 10
10 10 6 0 10 -4 10 -10z m260 -5 c0 -2 -6 -5 -13 -8 -8 -3 -14 1 -14 8 0 7 6
11 14 8 7 -3 13 -6 13 -8z m-1665 -13 c-3 -3 -11 0 -18 7 -9 10 -8 11 6 5 10
-3 15 -9 12 -12z m325 14 c0 -3 -4 -8 -10 -11 -5 -3 -10 -1 -10 4 0 6 5 11 10
11 6 0 10 -2 10 -4z m465 -6 c4 -6 -1 -7 -11 -3 -12 4 -15 3 -10 -6 5 -7 2
-10 -6 -9 -8 2 -12 -5 -10 -17 2 -15 0 -16 -6 -7 -5 8 -13 13 -18 12 -5 -1
-10 4 -13 11 -2 7 1 9 8 5 6 -4 18 0 27 8 18 18 30 20 39 6z m495 -32 c0 -6
-9 -3 -20 7 -10 9 -26 15 -34 12 -10 -4 -13 -1 -10 8 5 12 10 12 35 -1 16 -8
29 -20 29 -26z m-1015 22 c3 -5 1 -10 -4 -10 -6 0 -11 5 -11 10 0 6 2 10 4 10
3 0 8 -4 11 -10z m873 -4 c-10 -7 -18 -21 -18 -30 0 -10 -4 -15 -9 -12 -5 4
-8 14 -6 24 2 9 4 19 4 22 1 3 11 6 24 7 20 2 21 1 5 -11z m-1083 -6 c3 -5 1
-10 -4 -10 -6 0 -11 5 -11 10 0 6 2 10 4 10 3 0 8 -4 11 -10z m392 -5 c0 -8
-4 -12 -9 -9 -5 3 -6 10 -3 15 9 13 12 11 12 -6z m543 6 c0 -5 -10 -11 -22
-14 -22 -6 -22 -6 -4 8 23 17 26 18 26 6z m-617 -18 c-16 -6 -17 -33 -1 -33 6
0 8 -3 5 -7 -8 -7 -77 28 -77 40 0 4 9 3 20 -3 16 -9 24 -7 36 5 9 9 19 13 23
9 3 -4 0 -9 -6 -11z m142 8 c3 -5 2 -12 -3 -15 -5 -3 -9 1 -9 9 0 17 3 19 12
6z m677 2 c-6 -2 -9 -10 -6 -15 4 -6 2 -8 -4 -4 -6 4 -12 -4 -14 -21 -3 -22
-5 -24 -15 -11 -10 12 -9 19 8 36 11 12 25 22 32 21 9 0 9 -2 -1 -6z m573 -3
c3 -6 -1 -7 -9 -4 -18 7 -21 14 -7 14 6 0 13 -4 16 -10z m-523 -22 c-6 -6 -16
-7 -22 -3 -9 6 -9 9 1 16 17 10 34 0 21 -13z m165 8 c0 -8 -6 -12 -15 -9 -11
5 -11 7 0 14 7 5 13 9 14 9 0 0 1 -6 1 -14z m-991 -23 c-2 -9 -9 -19 -17 -21
-11 -3 -11 -1 1 7 13 10 13 11 0 11 -13 0 -13 1 0 10 19 12 19 13 16 -7z m318
-8 c-4 -8 -10 -13 -15 -10 -4 3 -6 12 -3 20 4 8 10 13 15 10 4 -3 6 -12 3 -20z
m786 15 c0 -5 -2 -10 -4 -10 -3 0 -8 5 -11 10 -3 6 -1 10 4 10 6 0 11 -4 11
-10z m185 0 c-3 -5 -11 -10 -16 -10 -6 0 -7 5 -4 10 3 6 11 10 16 10 6 0 7 -4
4 -10z m-924 -42 c9 -16 8 -19 -3 -16 -7 3 -13 9 -13 14 0 5 -4 15 -9 23 -6
10 -5 12 2 7 7 -4 17 -16 23 -28z m469 28 c0 -2 -7 -7 -16 -10 -8 -3 -12 -2
-9 4 6 10 25 14 25 6z m400 -11 c0 -8 -4 -15 -10 -15 -5 0 -7 7 -4 15 4 8 8
15 10 15 2 0 4 -7 4 -15z m-80 -5 c0 -5 -2 -10 -4 -10 -3 0 -8 5 -11 10 -3 6
-1 10 4 10 6 0 11 -4 11 -10z m-1220 -72 c0 -52 2 -59 17 -54 16 6 16 6 0 -12
-9 -10 -17 -24 -17 -30 0 -6 -3 -13 -7 -15 -5 -3 -8 37 -8 88 0 51 3 91 8 88
4 -2 7 -31 7 -65z m500 62 c0 -5 -5 -10 -11 -10 -5 0 -7 5 -4 10 3 6 8 10 11
10 2 0 4 -4 4 -10z m435 -10 c-3 -5 -11 -10 -16 -10 -6 0 -7 5 -4 10 3 6 11
10 16 10 6 0 7 -4 4 -10z m-558 -52 c-2 -13 -4 -5 -4 17 -1 22 1 32 4 23 2
-10 2 -28 0 -40z m798 42 c3 -5 2 -10 -4 -10 -5 0 -13 5 -16 10 -3 6 -2 10 4
10 5 0 13 -4 16 -10z m-1123 -27 c-3 -16 -7 -22 -10 -15 -4 13 4 42 11 42 2 0
2 -12 -1 -27z m838 17 c0 -5 -5 -10 -11 -10 -5 0 -7 5 -4 10 3 6 8 10 11 10 2
0 4 -4 4 -10z m407 -22 c-3 -7 -5 -2 -5 12 0 14 2 19 5 13 2 -7 2 -19 0 -25z
m-77 2 c0 -5 -2 -10 -4 -10 -3 0 -8 5 -11 10 -3 6 -1 10 4 10 6 0 11 -4 11
-10z m40 -20 c0 -5 -2 -10 -4 -10 -3 0 -8 5 -11 10 -3 6 -1 10 4 10 6 0 11 -4
11 -10z m-1583 -22 c-3 -8 -6 -5 -6 6 -1 11 2 17 5 13 3 -3 4 -12 1 -19z m757
-20 c-10 -16 -22 -7 -17 13 4 15 8 17 14 8 4 -7 5 -17 3 -21z m823 0 c-3 -8
-6 -5 -6 6 -1 11 2 17 5 13 3 -3 4 -12 1 -19z m-1181 -4 c17 -14 17 -15 1 -10
-10 3 -23 6 -28 6 -5 0 -9 5 -9 10 0 14 13 12 36 -6z m1154 1 c-7 -8 -18 -15
-24 -15 -6 0 -2 7 8 15 25 19 32 19 16 0z m70 -1 c0 -8 -5 -12 -10 -9 -6 4 -8
11 -5 16 9 14 15 11 15 -7z m-916 -29 c-4 -8 -10 -12 -15 -9 -11 6 -2 24 11
24 5 0 7 -7 4 -15z m551 5 c3 -5 2 -10 -4 -10 -5 0 -13 5 -16 10 -3 6 -2 10 4
10 5 0 13 -4 16 -10z m415 -10 c0 -5 -2 -10 -4 -10 -3 0 -8 5 -11 10 -3 6 -1
10 4 10 6 0 11 -4 11 -10z m-1790 -4 c0 -2 -7 -7 -16 -10 -8 -3 -12 -2 -9 4 6
10 25 14 25 6z m866 -22 c-4 -9 -9 -15 -11 -12 -3 3 -3 13 1 22 4 9 9 15 11
12 3 -3 3 -13 -1 -22z m834 22 c0 -2 -7 -7 -16 -10 -8 -3 -12 -2 -9 4 6 10 25
14 25 6z m-755 -26 c3 -5 1 -10 -4 -10 -6 0 -11 5 -11 10 0 6 2 10 4 10 3 0 8
-4 11 -10z m800 0 c3 -5 2 -10 -4 -10 -5 0 -13 5 -16 10 -3 6 -2 10 4 10 5 0
13 -4 16 -10z m-371 -15 c3 -8 1 -15 -4 -15 -6 0 -10 7 -10 15 0 8 2 15 4 15
2 0 6 -7 10 -15z m233 -7 c-3 -8 -6 -5 -6 6 -1 11 2 17 5 13 3 -3 4 -12 1 -19z
m-787 -3 c0 -8 -4 -15 -10 -15 -5 0 -7 7 -4 15 4 8 8 15 10 15 2 0 4 -7 4 -15z
m390 6 c0 -5 -7 -12 -16 -15 -14 -5 -15 -4 -4 9 14 17 20 19 20 6z m528 -27
c2 -1 -4 -4 -13 -8 -10 -3 -14 -2 -10 5 4 6 -2 13 -14 16 -11 3 -18 10 -15 15
3 5 15 1 27 -9 12 -10 23 -18 25 -19z m52 14 c0 -6 -6 -5 -15 2 -8 7 -15 14
-15 16 0 2 7 1 15 -2 8 -4 15 -11 15 -16z m-1100 -3 c0 -2 -6 -5 -13 -8 -8 -3
-14 1 -14 8 0 7 6 11 14 8 7 -3 13 -6 13 -8z m405 -3 c-3 -3 -11 0 -18 7 -9
10 -8 11 6 5 10 -3 15 -9 12 -12z m400 0 c-3 -3 -11 0 -18 7 -9 10 -8 11 6 5
10 -3 15 -9 12 -12z m-1328 -7 c0 -8 -4 -12 -9 -9 -5 3 -6 10 -3 15 9 13 12
11 12 -6z m1493 6 c0 -5 -7 -12 -16 -15 -14 -5 -15 -4 -4 9 14 17 20 19 20 6z
m-370 -21 c0 -5 -4 -10 -10 -10 -5 0 -10 5 -10 10 0 6 5 10 10 10 6 0 10 -4
10 -10z m260 0 c0 -5 -5 -10 -11 -10 -5 0 -7 5 -4 10 3 6 8 10 11 10 2 0 4 -4
4 -10z m236 -18 c-4 -3 -14 2 -24 12 -16 18 -16 18 6 6 13 -6 21 -14 18 -18z
m77 14 c4 -10 0 -12 -15 -8 -15 4 -17 7 -6 13 17 11 15 11 21 -5z m-158 -6 c3
-6 -1 -7 -9 -4 -18 7 -21 14 -7 14 6 0 13 -4 16 -10z m-1475 -10 c-8 -5 -16
-14 -16 -20 -1 -5 -2 -15 -3 -22 -1 -11 -16 -2 -16 10 0 4 -4 13 -9 21 -6 9
-5 12 0 8 6 -3 16 -2 24 4 8 5 20 9 25 9 6 0 3 -5 -5 -10z m1115 0 c-3 -5 -12
-10 -18 -10 -7 0 -6 4 3 10 19 12 23 12 15 0z m95 -26 c0 -2 -13 2 -30 11 -16
9 -30 18 -30 21 0 2 14 -2 30 -11 17 -9 30 -18 30 -21z m150 21 c0 -2 -6 -5
-13 -8 -8 -3 -14 1 -14 8 0 7 6 11 14 8 7 -3 13 -6 13 -8z m-725 -5 c3 -5 1
-10 -4 -10 -6 0 -11 5 -11 10 0 6 2 10 4 10 3 0 8 -4 11 -10z m235 0 c0 -5 -4
-10 -10 -10 -5 0 -10 5 -10 10 0 6 5 10 10 10 6 0 10 -4 10 -10z m151 -7 c13
-17 13 -17 -6 -3 -11 8 -22 16 -24 17 -2 2 0 3 6 3 6 0 17 -8 24 -17z m249 7
c0 -5 -4 -10 -10 -10 -5 0 -10 5 -10 10 0 6 5 10 10 10 6 0 10 -4 10 -10z
m172 -17 c9 -8 22 -12 27 -8 6 3 11 4 11 1 0 -3 -9 -10 -20 -16 -15 -8 -20 -8
-18 1 2 7 -7 18 -20 24 -31 16 -41 28 -17 19 11 -4 28 -14 37 -21z m159 10
c12 -16 12 -17 -2 -6 -9 7 -19 10 -22 6 -4 -3 -7 -1 -7 5 0 17 16 15 31 -5z
m-1541 -3 c0 -5 -10 -10 -22 -10 -19 0 -20 2 -8 10 19 13 30 13 30 0z m1465 0
c3 -6 -1 -7 -9 -4 -18 7 -21 14 -7 14 6 0 13 -4 16 -10z m-210 -10 c-3 -5 -12
-10 -18 -10 -7 0 -6 4 3 10 19 12 23 12 15 0z m-1295 -20 c-9 -6 -9 -9 -1 -13
8 -4 8 -5 0 -3 -7 1 -13 9 -15 18 -1 11 3 15 13 11 11 -4 12 -8 3 -13z m765
10 c3 -5 2 -10 -4 -10 -5 0 -13 5 -16 10 -3 6 -2 10 4 10 5 0 13 -4 16 -10z
m170 0 c-3 -5 -11 -10 -16 -10 -6 0 -7 5 -4 10 3 6 11 10 16 10 6 0 7 -4 4
-10z m110 0 c3 -6 -1 -7 -9 -4 -18 7 -21 14 -7 14 6 0 13 -4 16 -10z m113 -25
c-3 -3 -9 2 -12 12 -6 14 -5 15 5 6 7 -7 10 -15 7 -18z m87 7 c-3 -3 -11 0
-18 7 -9 10 -8 11 6 5 10 -3 15 -9 12 -12z m100 8 c-3 -5 -11 -10 -16 -10 -6
0 -7 5 -4 10 3 6 11 10 16 10 6 0 7 -4 4 -10z m215 0 c0 -5 -2 -10 -4 -10 -3
0 -8 5 -11 10 -3 6 -1 10 4 10 6 0 11 -4 11 -10z m-1020 -4 c0 -3 -4 -8 -10
-11 -5 -3 -10 -1 -10 4 0 6 5 11 10 11 6 0 10 -2 10 -4z m276 -23 c-7 -7 -26
7 -26 19 0 6 6 6 15 -2 9 -7 13 -15 11 -17z m69 7 c-3 -5 -11 -10 -16 -10 -6
0 -7 5 -4 10 3 6 11 10 16 10 6 0 7 -4 4 -10z m405 -10 c0 -5 -5 -10 -11 -10
-5 0 -7 5 -4 10 3 6 8 10 11 10 2 0 4 -4 4 -10z m325 0 c3 -5 2 -10 -4 -10 -5
0 -13 5 -16 10 -3 6 -2 10 4 10 5 0 13 -4 16 -10z m-1131 -15 c-4 -8 -10 -12
-15 -9 -11 6 -2 24 11 24 5 0 7 -7 4 -15z m771 -5 c-3 -5 -12 -7 -20 -3 -21 7
-19 13 6 13 11 0 18 -4 14 -10z m-90 -10 c3 -5 2 -10 -4 -10 -5 0 -13 5 -16
10 -3 6 -2 10 4 10 5 0 13 -4 16 -10z m400 0 c3 -5 2 -10 -4 -10 -5 0 -13 5
-16 10 -3 6 -2 10 4 10 5 0 13 -4 16 -10z"/>
<path d="M1003 453 c-7 -2 -13 -9 -13 -15 0 -12 41 -6 41 7 1 12 -11 15 -28 8z"/>
</g>
</svg>
