<?xml version="1.0" standalone="no"?>
<!DOCTYPE svg PUBLIC "-//W3C//DTD SVG 20010904//EN"
 "http://www.w3.org/TR/2001/REC-SVG-20010904/DTD/svg10.dtd">
<svg version="1.0" xmlns="http://www.w3.org/2000/svg"
 width="200.000000pt" height="200.000000pt" viewBox="0 0 200.000000 200.000000"
 preserveAspectRatio="xMidYMid meet">
<metadata>
Created by potrace 1.16, written by Peter Selinger 2001-2019
</metadata>
<g transform="translate(0.000000,200.000000) scale(0.100000,-0.100000)"
fill="#000000" stroke="none">
<path d="M0 1966 c0 -33 4 -37 94 -90 52 -31 98 -56 102 -56 4 0 49 24 101 53
91 51 93 53 93 90 l0 37 -195 0 -195 0 0 -34z"/>
<path d="M400 1965 c0 -36 -7 -31 171 -133 26 -14 31 -13 123 39 95 53 96 55
96 92 l0 37 -195 0 -195 0 0 -35z"/>
<path d="M800 1966 c0 -33 4 -37 92 -88 51 -29 96 -55 100 -56 5 -2 53 22 108
53 l100 56 100 -56 c62 -36 106 -55 116 -51 14 5 15 4 5 -8 -8 -9 -11 -51 -9
-127 l3 -113 93 -54 92 -54 100 58 100 58 0 112 0 112 -100 56 -100 57 -72
-42 c-40 -23 -76 -44 -80 -46 -5 -2 -8 -2 -8 1 0 2 36 25 80 50 76 44 80 48
80 81 l0 35 -193 0 c-137 0 -196 -3 -205 -12 -9 -9 -12 -9 -12 0 0 9 -50 12
-195 12 l-195 0 0 -34z"/>
<path d="M1610 1963 c0 -37 2 -39 94 -90 52 -29 97 -53 101 -53 3 0 49 25 101
56 90 53 94 57 94 90 l0 34 -195 0 -195 0 0 -37z"/>
<path d="M0 1695 l0 -224 93 53 92 54 3 115 3 115 -96 55 -95 56 0 -224z"/>
<path d="M298 1864 l-98 -56 0 -113 0 -113 90 -52 c50 -28 90 -54 90 -56 0 -3
-28 11 -62 31 -130 75 -111 74 -218 12 l-95 -55 -3 -113 -2 -114 96 -55 c53
-30 101 -54 108 -52 6 2 50 26 99 54 l87 50 0 116 0 117 100 58 100 58 0 114
0 114 -94 56 c-52 30 -96 55 -98 55 -1 -1 -47 -26 -100 -56z"/>
<path d="M698 1864 l-98 -56 0 -114 0 -113 30 -16 c41 -21 38 -29 -3 -9 -32
15 -33 15 -130 -41 l-97 -57 0 -112 0 -111 100 -57 100 -57 95 56 c95 55 95
55 96 97 l2 41 6 -40 c6 -37 11 -42 103 -97 l97 -57 88 50 c48 28 93 55 99 60
8 6 46 -11 113 -50 l101 -60 100 57 100 57 0 112 0 111 -96 56 c-52 31 -98 56
-101 56 -3 0 -49 -25 -104 -56 l-98 -56 -101 57 -100 57 -100 -57 -99 -57 -4
-71 -3 -72 -2 75 -2 75 -60 33 c-33 19 -60 36 -60 39 0 2 29 -12 65 -32 l65
-36 82 47 c46 26 91 54 101 62 15 13 19 13 35 0 9 -9 54 -37 99 -63 l83 -47
100 58 100 59 0 110 0 111 -101 57 -100 58 -82 -47 c-45 -26 -89 -53 -98 -61
-14 -11 -29 -5 -108 43 -51 30 -98 57 -104 59 -7 3 -56 -21 -109 -51z m312
-140 c0 -8 -5 -12 -10 -9 -6 4 -8 11 -5 16 9 14 15 11 15 -7z m0 -75 c0 -6 -4
-7 -10 -4 -5 3 -10 11 -10 16 0 6 5 7 10 4 6 -3 10 -11 10 -16z m187 -261 c-3
-8 -6 -5 -6 6 -1 11 2 17 5 13 3 -3 4 -12 1 -19z m13 -32 c0 -3 -4 -8 -10 -11
-5 -3 -10 -1 -10 4 0 6 5 11 10 11 6 0 10 -2 10 -4z"/>
<path d="M1903 1864 l-93 -55 0 -114 0 -114 45 -27 c61 -35 57 -42 -4 -9 l-49
27 -96 -53 -96 -54 0 -116 0 -117 88 -50 c48 -28 92 -52 98 -54 6 -2 55 22
108 51 l96 55 0 113 0 112 -45 27 c-25 14 -45 28 -45 31 0 3 20 -7 45 -21 l45
-27 0 226 c0 124 -1 225 -2 225 -2 -1 -45 -26 -95 -56z"/>
<path d="M300 1171 l-95 -57 0 -114 0 -114 90 -53 c50 -29 95 -53 102 -53 6 0
52 24 102 53 l91 52 0 116 0 115 -77 44 c-43 24 -87 49 -98 55 -17 11 -33 5
-115 -44z"/>
<path d="M0 1000 l0 -222 62 35 c35 19 78 43 95 53 l33 19 0 115 0 115 -87 50
c-48 28 -91 52 -95 53 -5 2 -8 -96 -8 -218z"/>
<path d="M695 1167 l-90 -53 0 -114 0 -114 90 -53 c50 -29 95 -53 102 -53 6 0
55 25 107 55 l96 56 94 -56 c52 -30 99 -55 105 -55 24 0 193 105 201 124 9 21
9 21 9 1 1 -15 25 -35 90 -73 49 -29 95 -52 103 -52 7 0 54 24 103 53 l90 53
0 114 0 114 -90 53 c-49 29 -96 53 -103 53 -7 0 -53 -24 -102 -52 l-90 -53 -2
-95 -2 -95 -3 92 -4 93 -93 55 c-52 30 -99 55 -106 55 -6 0 -54 -25 -106 -55
l-95 -55 -95 55 c-53 30 -101 55 -107 55 -7 0 -52 -24 -102 -53z m312 -129
c-3 -8 -6 -5 -6 6 -1 11 2 17 5 13 3 -3 4 -12 1 -19z"/>
<path d="M1898 1167 l-88 -51 0 -116 0 -116 88 -50 c48 -27 90 -50 95 -52 4
-2 7 96 7 217 0 122 -3 221 -7 220 -5 0 -47 -24 -95 -52z"/>
<path d="M98 822 l-98 -56 0 -113 0 -112 97 -57 97 -57 68 37 c37 20 68 35 68
32 0 -2 -29 -21 -65 -41 l-65 -36 0 -113 0 -114 99 -57 100 -56 95 56 96 56 0
114 0 114 -95 56 c-95 55 -95 56 -127 40 -29 -14 -31 -14 -14 0 11 8 23 15 28
15 4 0 8 53 8 119 l0 119 -92 52 c-51 29 -95 54 -98 55 -3 2 -49 -22 -102 -53z"/>
<path d="M500 822 l-95 -57 -3 -112 -3 -111 93 -54 c51 -29 96 -55 100 -56 5
-2 51 20 103 50 l95 53 0 117 0 116 -96 56 c-52 31 -96 56 -97 56 -1 -1 -45
-26 -97 -58z"/>
<path d="M935 843 c-33 -19 -77 -46 -97 -59 l-38 -24 0 -110 0 -109 100 -56
100 -57 100 57 101 57 98 -56 c53 -31 100 -56 104 -56 3 0 49 25 101 56 l96
56 2 61 1 62 6 -65 6 -65 93 -54 c90 -52 95 -54 120 -39 15 8 60 34 100 57
l72 42 0 112 0 112 -96 55 c-53 30 -101 54 -108 52 -6 -2 -50 -26 -98 -53 -85
-49 -87 -51 -91 -92 l-4 -42 -1 40 c-2 40 -3 41 -102 97 l-99 58 -98 -59 c-59
-35 -97 -64 -95 -72 1 -8 -5 -4 -15 8 -14 17 -189 126 -196 122 -1 0 -29 -16
-62 -36z m269 -173 c-6 -6 -10 -3 -10 10 0 13 4 16 10 10 7 -7 7 -13 0 -20z
m6 -100 c0 -5 -5 -10 -11 -10 -5 0 -7 5 -4 10 3 6 8 10 11 10 2 0 4 -4 4 -10z"/>
<path d="M0 305 l0 -224 93 54 92 54 0 116 0 116 -92 54 -93 54 0 -224z"/>
<path d="M698 474 l-98 -56 0 -112 0 -112 100 -58 100 -58 102 61 c88 53 103
59 117 47 9 -7 42 -28 74 -46 31 -17 57 -34 57 -37 0 -4 -83 40 -131 70 -13 8
-39 -2 -118 -47 -97 -55 -101 -58 -101 -91 l0 -35 400 0 400 0 0 35 c0 36 7
31 -172 133 -25 15 -30 13 -127 -42 -84 -48 -104 -55 -121 -46 -11 6 -20 13
-20 16 0 2 9 0 20 -6 18 -9 36 -2 120 47 73 42 100 63 101 78 1 17 2 16 8 -5
5 -17 33 -39 99 -78 l93 -53 99 57 100 56 0 113 0 113 -100 56 -99 57 -83 -47
c-46 -26 -90 -53 -98 -60 -12 -10 -32 -2 -117 48 l-103 60 -91 -52 c-50 -29
-93 -59 -96 -67 -5 -12 -9 -11 -27 5 -18 16 -180 113 -188 112 -2 -1 -47 -26
-100 -56z m310 -149 c-3 -3 -9 2 -12 12 -6 14 -5 15 5 6 7 -7 10 -15 7 -18z
m399 -57 c-2 -13 -4 -5 -4 17 -1 22 1 32 4 23 2 -10 2 -28 0 -40z m-400 0 c-3
-7 -5 -2 -5 12 0 14 2 19 5 13 2 -7 2 -19 0 -25z"/>
<path d="M1903 474 l-93 -55 0 -114 0 -114 45 -27 c60 -35 58 -42 -3 -8 l-48
27 -97 -54 c-95 -53 -97 -55 -97 -91 l0 -38 195 0 195 0 0 35 c0 30 -5 37 -45
61 -25 14 -45 28 -45 31 0 3 20 -7 45 -21 l45 -27 0 226 c0 124 -1 225 -2 225
-2 -1 -45 -26 -95 -56z"/>
<path d="M92 124 c-88 -53 -92 -57 -92 -90 l0 -34 195 0 195 0 0 38 c0 36 -2
38 -93 90 -52 28 -98 52 -103 52 -5 -1 -51 -26 -102 -56z"/>
<path d="M493 123 c-88 -52 -93 -57 -93 -89 l0 -34 195 0 195 0 0 38 c0 36 -1
38 -93 90 -52 28 -98 52 -103 51 -5 0 -51 -25 -101 -56z"/>
</g>
</svg>
