<?xml version="1.0" standalone="no"?>
<!DOCTYPE svg PUBLIC "-//W3C//DTD SVG 20010904//EN"
 "http://www.w3.org/TR/2001/REC-SVG-20010904/DTD/svg10.dtd">
<svg version="1.0" xmlns="http://www.w3.org/2000/svg"
 width="200.000000pt" height="200.000000pt" viewBox="0 0 200.000000 200.000000"
 preserveAspectRatio="xMidYMid meet">
<metadata>
Created by potrace 1.16, written by Peter Selinger 2001-2019
</metadata>
<g transform="translate(0.000000,200.000000) scale(0.100000,-0.100000)"
fill="#000000" stroke="none">
<path d="M7 1968 c-2 -18 -4 -33 -3 -34 87 -52 152 -84 163 -80 8 3 11 11 7
17 -4 8 -3 9 5 5 11 -7 89 32 169 87 42 28 72 30 72 5 0 -8 -3 -9 -11 -1 -7 7
-36 -5 -100 -44 -49 -29 -101 -58 -115 -63 -25 -10 -25 -30 -1 -30 12 0 109
54 172 95 26 18 28 18 22 3 -5 -13 8 -25 56 -53 34 -20 69 -41 77 -46 8 -5 25
-13 37 -18 11 -6 24 -15 29 -22 4 -8 3 -10 -5 -5 -9 6 -12 -18 -10 -100 1
-102 -7 -135 -27 -103 -4 8 -3 9 4 5 9 -5 12 22 12 103 0 103 -1 110 -21 116
-19 6 -75 41 -142 87 l-28 19 -85 -47 -85 -48 2 -123 1 -122 94 -53 95 -53 -2
-117 c-1 -65 0 -117 2 -116 10 4 49 -24 44 -33 -4 -5 -14 -5 -26 2 -11 6 -27
8 -35 5 -10 -4 -13 -2 -7 7 11 17 13 37 3 37 -9 0 -131 -67 -144 -80 -4 -4 2
-11 13 -15 12 -3 18 -11 15 -17 -4 -6 -9 -7 -13 0 -13 20 -93 54 -104 43 -7
-7 2 -16 32 -29 26 -12 37 -21 28 -25 -7 -3 -34 7 -58 22 -121 75 -141 85
-138 66 4 -15 83 -67 147 -95 21 -9 22 -15 22 -114 0 -99 -1 -106 -23 -116
-20 -10 -20 -10 -4 3 14 12 17 31 17 108 l0 94 -77 47 -78 46 -3 -104 c-1 -57
-1 -151 0 -209 l3 -105 57 34 c109 66 152 88 138 71 -7 -9 -27 -23 -43 -32
-19 -9 -26 -18 -20 -24 6 -6 27 -1 57 14 25 13 43 26 39 30 -3 4 -2 7 4 7 21
0 23 -15 2 -25 -20 -11 -18 -14 37 -47 82 -49 125 -69 135 -62 5 3 9 0 9 -5 0
-6 -9 -11 -20 -11 -17 0 -19 -5 -15 -29 3 -17 0 -33 -5 -36 -6 -4 -9 -2 -8 4
2 5 -6 17 -17 26 -20 16 -20 16 1 10 16 -4 20 -1 19 15 -1 19 -40 45 -152 102
-26 13 -66 2 -43 -12 8 -5 11 -13 6 -17 -5 -4 -11 -2 -13 5 -7 19 -19 15 -80
-24 -30 -19 -57 -33 -60 -30 -3 2 20 19 51 36 31 18 53 36 50 41 -8 14 -18 11
-78 -23 -36 -21 -56 -39 -56 -51 0 -12 4 -16 12 -11 11 6 11 4 0 -7 -7 -8 -12
-41 -12 -83 0 -58 4 -74 23 -95 l22 -26 -22 19 -23 19 1 -197 c0 -108 3 -196
6 -196 3 0 37 18 75 40 38 22 66 35 63 30 -3 -5 -37 -28 -75 -50 -39 -23 -70
-47 -70 -55 0 -16 30 -9 42 9 5 8 8 8 8 0 0 -7 -11 -19 -25 -28 -21 -14 -25
-23 -24 -64 2 -33 3 -38 6 -17 6 43 20 52 15 10 l-4 -35 340 0 341 0 4 23 4
22 2 -22 c1 -20 7 -23 41 -23 39 0 40 1 40 33 0 30 -7 36 -91 85 -89 53 -90
53 -116 36 -25 -16 -27 -16 -39 1 -8 10 -11 22 -8 26 5 8 -10 13 -29 10 -5 -1
-6 3 -2 9 3 6 10 8 15 5 15 -9 22 37 18 119 -2 42 1 76 5 76 4 0 8 -46 7 -102
-2 -144 -1 -148 11 -148 6 0 13 9 16 20 3 11 8 20 12 20 3 0 42 -20 85 -45 75
-43 91 -47 91 -23 0 6 12 12 27 12 14 1 25 -1 22 -5 -8 -13 24 -29 42 -22 17
6 17 5 5 -10 -14 -18 -47 -24 -36 -8 11 18 -31 31 -51 16 -18 -13 -18 -14 7
-20 23 -6 26 -11 23 -46 l-2 -39 360 1 c316 0 359 1 342 14 -10 8 -14 15 -8
15 6 0 17 -7 24 -15 10 -11 48 -14 208 -15 174 0 193 2 176 15 -10 8 -14 15
-8 15 6 0 17 -7 24 -15 7 -8 28 -15 46 -15 32 0 34 2 34 33 0 18 -6 39 -12 46
-10 11 -10 13 0 7 8 -5 12 0 12 14 0 12 -4 19 -8 16 -5 -3 -9 1 -9 9 0 8 4 12
9 9 4 -3 8 7 8 21 0 14 -4 24 -8 21 -5 -3 -9 1 -9 9 0 8 4 12 9 9 14 -9 10
220 -4 235 -10 11 -10 13 0 7 20 -12 14 39 -7 59 -19 16 -21 16 -48 -2 -15
-10 -41 -25 -56 -33 -22 -11 -27 -20 -24 -37 2 -13 0 -26 -4 -29 -5 -3 -9 7
-9 21 0 17 -4 24 -12 20 -7 -3 -4 0 6 7 11 7 27 20 36 28 9 8 23 16 30 18 7 2
33 14 56 28 l43 25 0 113 0 112 -46 24 c-26 14 -69 40 -97 57 -44 29 -53 31
-71 20 -11 -8 -28 -16 -37 -20 -32 -11 -19 2 20 22 l38 19 50 -29 c27 -16 55
-27 62 -24 7 3 11 1 8 -4 -7 -10 64 -55 72 -46 4 3 0 15 -7 27 -7 11 -8 17 -2
14 14 -9 12 514 -3 533 -8 11 -8 13 2 7 17 -10 17 85 0 103 -10 11 -10 13 0 7
8 -5 12 0 12 15 0 21 -1 21 -19 5 -18 -16 -21 -16 -52 3 -18 11 -36 18 -41 15
-4 -3 -5 2 -2 10 5 14 34 12 34 -3 0 -3 9 -12 21 -19 18 -11 24 -11 40 4 18
16 28 71 11 60 -5 -3 -9 1 -9 9 0 8 4 12 9 9 14 -9 10 220 -4 235 -10 11 -10
13 0 7 16 -10 16 35 0 53 -10 11 -10 13 0 7 8 -5 12 0 12 14 l0 22 -38 -23
c-20 -13 -39 -25 -42 -28 -13 -14 -121 -63 -127 -57 -3 3 -1 6 5 6 6 0 54 25
106 56 92 53 96 57 96 90 l0 34 -155 0 c-98 0 -155 -4 -155 -10 0 -6 -8 -5
-20 2 -17 11 -22 10 -30 -2 -6 -10 -10 -11 -10 -2 0 6 -7 12 -14 12 -11 0 -14
-11 -13 -39 2 -36 -1 -41 -31 -55 -39 -19 -46 -20 -37 -5 4 5 17 14 30 19 18
7 23 16 23 44 0 33 -3 36 -28 36 -15 0 -33 -7 -40 -15 -7 -8 -18 -15 -24 -15
-6 0 -2 7 9 16 18 14 8 15 -112 13 -89 -1 -134 -5 -137 -13 -3 -7 -5 -7 -5 2
-1 6 -8 12 -16 12 -11 0 -15 -11 -15 -38 0 -36 2 -38 77 -77 43 -22 84 -45 91
-52 7 -7 20 -9 29 -6 15 6 15 5 3 -8 -12 -14 -25 -9 -109 40 -52 31 -98 55
-101 54 -4 -1 -6 18 -4 42 3 35 0 45 -11 45 -10 0 -15 -10 -15 -29 0 -17 -5
-33 -10 -36 -7 -4 -9 6 -7 29 3 28 1 36 -12 36 -10 0 -23 -6 -30 -12 -11 -11
-13 -10 -7 0 6 10 -27 12 -158 11 l-165 0 1 -30 c1 -16 -2 -32 -5 -36 -4 -3
-7 10 -7 30 0 35 -12 48 -25 27 -3 -5 -11 -10 -16 -10 -6 0 -7 5 -4 10 4 6
-45 10 -139 10 -106 0 -146 -3 -149 -12 -4 -10 -6 -10 -6 0 -1 9 -51 12 -215
12 l-214 0 -5 -32z m1908 12 c-3 -5 -11 -10 -16 -10 -6 0 -7 5 -4 10 3 6 11
10 16 10 6 0 7 -4 4 -10z m-1461 -19 c4 -5 51 -35 105 -66 55 -32 98 -64 97
-71 -3 -18 -16 -31 -16 -15 0 7 -5 9 -12 5 -8 -5 -7 0 2 11 14 17 13 18 -3 12
-12 -5 -16 -3 -11 4 4 7 1 10 -7 7 -8 -3 -13 -11 -11 -17 3 -16 -28 -10 -51 9
-10 8 -20 13 -24 12 -3 -2 -9 0 -12 6 -3 5 -27 21 -53 36 -27 15 -48 32 -48
36 0 5 26 -7 57 -26 61 -37 69 -39 78 -24 3 5 -19 23 -50 41 -54 31 -76 49
-56 49 5 0 12 -4 15 -9z m434 -46 c24 -14 50 -24 58 -21 8 3 12 2 9 -4 -7 -12
32 -33 47 -24 7 5 8 3 3 -6 -6 -10 -4 -12 8 -7 10 4 16 2 14 -6 -1 -7 4 -11
11 -9 17 3 11 -20 -6 -26 -7 -2 -12 3 -12 12 0 10 -9 16 -24 16 -13 0 -26 4
-28 8 -4 11 -123 82 -136 82 -12 0 -23 26 -15 34 3 3 11 -1 17 -8 6 -8 31 -26
54 -41z m752 45 c0 -5 -2 -10 -4 -10 -3 0 -8 5 -11 10 -3 6 -1 10 4 10 6 0 11
-4 11 -10z m-893 -21 c-4 -16 -2 -19 10 -15 13 5 14 4 4 -8 -10 -11 -7 -19 11
-36 l23 -22 -27 13 c-16 7 -29 16 -29 21 -7 44 -4 68 8 68 3 0 3 -9 0 -21z
m823 16 c0 -2 -10 -10 -22 -16 -21 -11 -22 -11 -9 4 13 16 31 23 31 12z m-280
-31 c0 -2 -9 0 -20 6 -11 6 -20 13 -20 16 0 2 9 0 20 -6 11 -6 20 -13 20 -16z
m-164 1 c-1 -8 -6 -18 -11 -22 -4 -5 -5 -2 0 6 6 11 4 13 -10 7 -15 -5 -16 -4
-5 9 16 19 29 19 26 0z m564 5 c0 -5 -2 -10 -4 -10 -3 0 -8 5 -11 10 -3 6 -1
10 4 10 6 0 11 -4 11 -10z m-683 -13 c0 -7 -9 -13 -19 -13 -18 0 -18 1 -2 13
10 7 18 13 19 13 1 0 2 -6 2 -13z m508 3 c-3 -5 -11 -10 -16 -10 -6 0 -7 5 -4
10 3 6 11 10 16 10 6 0 7 -4 4 -10z m299 2 c3 -5 -1 -9 -9 -9 -8 0 -15 4 -15
9 0 4 4 8 9 8 6 0 12 -4 15 -8z m99 -13 c-4 -15 -8 -17 -14 -8 -8 14 -3 29 11
29 4 0 6 -9 3 -21z m-1081 -3 c7 -10 132 -83 158 -92 12 -4 15 -23 13 -98 -2
-91 -2 -93 23 -105 15 -6 22 -16 18 -22 -5 -8 -10 -6 -16 5 -11 20 -28 21 -28
1 0 -9 10 -20 23 -25 12 -6 36 -19 52 -29 17 -10 33 -16 38 -14 4 2 7 0 7 -6
0 -15 79 -53 93 -44 9 5 9 3 1 -8 -7 -8 -11 -55 -11 -121 1 -91 -2 -110 -17
-127 -18 -20 -18 -21 4 -29 l24 -9 -22 -5 c-12 -4 -19 -2 -16 3 10 17 -26 22
-44 6 -9 -9 -28 -20 -42 -26 -14 -6 -40 -20 -57 -31 -33 -19 -33 -19 -65 0
-97 56 -108 60 -128 48 -15 -10 -22 -10 -31 -1 -9 9 -7 11 8 7 12 -3 24 -1 27
5 7 11 -28 34 -38 24 -3 -3 -6 1 -6 10 0 21 14 22 30 2 7 -8 16 -15 21 -15 5
0 38 -18 74 -40 36 -22 70 -40 75 -40 20 0 80 43 73 53 -3 6 -1 7 5 3 7 -4 35
5 62 21 l50 28 -2 115 c-3 102 -5 115 -20 114 -10 -1 -18 3 -18 10 0 13 -136
90 -163 92 -10 1 -16 -4 -14 -10 2 -6 11 -10 19 -10 8 1 15 -4 15 -10 0 -7 -8
-12 -18 -12 -10 0 -16 4 -13 7 8 14 -17 21 -31 9 -10 -8 -15 -8 -21 2 -4 7 -4
10 0 6 4 -3 16 2 27 13 11 11 24 17 28 14 5 -2 9 47 9 111 0 98 -2 116 -16
121 -10 3 -25 13 -35 22 -16 13 -19 13 -27 1 -8 -13 -10 -12 -10 2 0 11 -22
30 -55 49 -30 17 -55 33 -55 35 0 8 35 -1 42 -10z m358 -6 c0 -5 -7 -7 -15 -4
-8 4 -15 1 -15 -6 0 -6 -5 -8 -11 -5 -6 5 -4 12 8 20 18 13 33 11 33 -5z m450
10 c0 -5 -4 -10 -10 -10 -5 0 -10 5 -10 10 0 6 5 10 10 10 6 0 10 -4 10 -10z
m-166 -14 c-3 -9 -12 -12 -22 -9 -15 6 -9 11 25 22 1 1 0 -5 -3 -13z m399 -3
c-4 -9 -10 -10 -24 -2 -24 13 -24 14 5 14 14 0 22 -5 19 -12z m-1214 -14 c-15
-9 -32 -2 -24 11 3 5 13 6 21 3 12 -4 13 -8 3 -14z m701 17 c0 -2 -7 -7 -16
-10 -8 -3 -12 -2 -9 4 6 10 25 14 25 6z m404 -4 c3 -5 -1 -9 -9 -9 -8 0 -15 4
-15 9 0 4 4 8 9 8 6 0 12 -4 15 -8z m-687 -17 c-1 -5 3 -9 10 -8 8 2 10 -4 6
-14 -6 -14 -7 -14 -19 2 -7 10 -18 14 -25 9 -8 -5 -10 -3 -4 6 6 10 4 12 -9 7
-9 -4 -15 -3 -12 2 8 12 55 8 53 -4z m69 -6 c10 -11 26 -18 34 -16 9 2 17 -1
17 -7 0 -6 -10 -11 -23 -11 -12 0 -22 4 -21 10 1 5 -8 14 -20 20 -13 5 -23 13
-23 17 0 14 17 8 36 -13z m374 5 c0 -8 -4 -12 -10 -9 -5 3 -10 1 -10 -6 0 -10
-3 -10 -12 -1 -10 10 -10 15 2 22 22 14 30 12 30 -6z m84 8 c2 -4 -4 -8 -14
-8 -10 0 -16 4 -14 8 3 4 9 8 14 8 5 0 11 -4 14 -8z m91 -3 c4 -6 13 -8 19 -6
7 3 13 -1 13 -7 0 -10 -7 -11 -29 -2 -15 6 -28 14 -28 18 0 12 18 10 25 -3z
m-968 -12 c0 -7 -9 -13 -19 -13 -18 0 -18 1 -2 13 10 7 18 13 19 13 1 0 2 -6
2 -13z m524 -4 c13 -17 13 -17 -6 -3 -11 8 -22 16 -24 17 -2 2 0 3 6 3 6 0 17
-8 24 -17z m165 -4 c3 -6 17 -8 32 -4 22 5 24 4 13 -9 -7 -8 -11 -20 -10 -28
1 -7 1 -19 0 -27 -2 -22 -15 -3 -16 22 0 13 -9 26 -22 32 -13 5 -23 13 -23 17
0 12 18 10 26 -3z m141 4 c-4 -3 -1 -13 6 -22 10 -14 10 -14 -5 -3 -9 8 -23
11 -30 7 -7 -4 -4 1 6 9 19 16 36 22 23 9z m100 -8 c0 -6 -8 -11 -17 -11 -9 0
-17 5 -17 11 0 6 8 11 17 11 9 0 17 -5 17 -11z m158 5 c3 -5 -1 -10 -9 -10 -9
0 -16 5 -16 10 0 6 4 10 9 10 6 0 13 -4 16 -10z m145 -14 c-7 -7 -13 -7 -20 0
-6 6 -3 10 10 10 13 0 16 -4 10 -10z m-183 -13 c0 -8 -6 -9 -19 -2 -10 5 -18
11 -18 12 0 2 8 3 18 3 10 0 19 -6 19 -13z m-456 -10 c13 -15 12 -15 -8 -4
-24 12 -29 21 -14 21 5 0 15 -7 22 -17z m189 13 c0 -3 -4 -8 -10 -11 -5 -3
-10 -1 -10 4 0 6 5 11 10 11 6 0 10 -2 10 -4z m208 -17 c9 -13 9 -16 -3 -16
-8 0 -15 9 -15 20 0 11 1 18 3 16 1 -2 8 -11 15 -20z m-114 3 c2 -4 -4 -8 -14
-8 -10 0 -16 4 -14 8 3 4 9 8 14 8 5 0 11 -4 14 -8z m316 4 c0 -2 -7 -7 -16
-10 -8 -3 -12 -2 -9 4 6 10 25 14 25 6z m-1309 -127 l1 -104 54 -33 c30 -19
62 -31 70 -28 8 3 13 2 10 -3 -9 -13 22 -34 39 -27 9 3 13 2 10 -3 -9 -16 15
-24 30 -11 16 13 10 34 -6 25 -5 -4 -9 -4 -9 -1 0 3 9 10 20 16 16 9 19 8 13
-6 -5 -13 -2 -16 13 -12 17 4 19 1 16 -29 -2 -18 -8 -33 -12 -33 -5 0 -6 8 -3
19 7 27 -14 36 -27 12 -9 -18 -14 -19 -38 -8 -15 6 -33 17 -40 24 -7 7 -20 13
-28 13 -8 0 -14 4 -14 9 0 5 -15 15 -32 22 -18 7 -39 19 -46 26 -8 7 -18 11
-23 8 -5 -4 -9 44 -9 116 0 67 2 120 5 117 3 -2 5 -51 6 -109z m299 101 c0 -5
-2 -10 -4 -10 -3 0 -8 5 -11 10 -3 6 -1 10 4 10 6 0 11 -4 11 -10z m455 0 c3
-5 2 -10 -4 -10 -5 0 -13 5 -16 10 -3 6 -2 10 4 10 5 0 13 -4 16 -10z m488
-15 c-7 -21 -13 -19 -13 6 0 11 4 18 10 14 5 -3 7 -12 3 -20z m-763 5 c0 -5
-5 -10 -11 -10 -5 0 -7 5 -4 10 3 6 8 10 11 10 2 0 4 -4 4 -10z m681 -7 c13
-15 12 -15 -8 -4 -24 12 -29 21 -14 21 5 0 15 -7 22 -17z m-361 -5 c0 -4 -4
-8 -9 -8 -6 0 -12 4 -15 8 -3 5 1 9 9 9 8 0 15 -4 15 -9z m-446 -6 c2 -4 1
-14 -3 -21 -6 -9 -10 -7 -14 8 -5 20 7 29 17 13z m351 -2 c3 -5 2 -10 -4 -10
-5 0 -13 5 -16 10 -3 6 -2 10 4 10 5 0 13 -4 16 -10z m190 0 c-3 -5 -11 -10
-16 -10 -6 0 -7 5 -4 10 3 6 11 10 16 10 6 0 7 -4 4 -10z m305 -6 c0 -8 -5
-12 -10 -9 -6 4 -8 11 -5 16 9 14 15 11 15 -7z m98 -8 c-7 -8 -15 -12 -17 -11
-5 6 10 25 20 25 5 0 4 -6 -3 -14z m-458 -16 c0 -5 -5 -10 -11 -10 -5 0 -7 5
-4 10 3 6 8 10 11 10 2 0 4 -4 4 -10z m-40 -22 c0 -4 -4 -8 -9 -8 -6 0 -12 4
-15 8 -3 5 1 9 9 9 8 0 15 -4 15 -9z m365 2 c3 -6 -1 -7 -9 -4 -18 7 -21 14
-7 14 6 0 13 -4 16 -10z m-738 -32 c-3 -7 -5 -2 -5 12 0 14 2 19 5 13 2 -7 2
-19 0 -25z m-75 -3 c3 -14 1 -28 -3 -31 -5 -3 -9 9 -9 25 0 38 6 40 12 6z
m848 10 c0 -8 -4 -15 -8 -15 -5 0 -9 7 -9 15 0 8 4 15 9 15 4 0 8 -7 8 -15z
m-400 -5 c0 -5 -5 -10 -11 -10 -5 0 -7 5 -4 10 3 6 8 10 11 10 2 0 4 -4 4 -10z
m-103 -22 c-3 -8 -6 -5 -6 6 -1 11 2 17 5 13 3 -3 4 -12 1 -19z m68 2 c-3 -5
-11 -10 -16 -10 -6 0 -7 5 -4 10 3 6 11 10 16 10 6 0 7 -4 4 -10z m72 -22 c-3
-7 -5 -2 -5 12 0 14 2 19 5 13 2 -7 2 -19 0 -25z m333 27 c0 -2 -10 -10 -22
-16 -21 -11 -22 -11 -9 4 13 16 31 23 31 12z m67 -17 c-3 -8 -6 -5 -6 6 -1 11
2 17 5 13 3 -3 4 -12 1 -19z m-802 2 c3 -5 2 -10 -4 -10 -5 0 -13 5 -16 10 -3
6 -2 10 4 10 5 0 13 -4 16 -10z m765 -31 c0 -11 -4 -18 -10 -14 -5 3 -7 12 -3
20 7 21 13 19 13 -6z m-1125 -25 c17 -13 15 -12 -12 1 -18 8 -33 20 -33 26 0
6 4 6 13 -1 6 -6 21 -17 32 -26z m230 26 c-3 -5 -11 -10 -16 -10 -6 0 -7 5 -4
10 3 6 11 10 16 10 6 0 7 -4 4 -10z m205 -16 c0 -2 -9 0 -20 6 -11 6 -20 13
-20 16 0 2 9 0 20 -6 11 -6 20 -13 20 -16z m393 7 c-4 -3 -11 -10 -15 -15 -4
-4 -6 1 -5 12 1 12 6 18 15 15 7 -3 10 -9 5 -12z m197 10 c0 -5 -10 -11 -22
-14 -22 -6 -22 -6 -4 8 23 17 26 18 26 6z m205 -1 c3 -5 2 -10 -4 -10 -5 0
-13 5 -16 10 -3 6 -2 10 4 10 5 0 13 -4 16 -10z m-1398 -32 c-3 -8 -6 -5 -6 6
-1 11 2 17 5 13 3 -3 4 -12 1 -19z m448 13 c3 -5 1 -12 -5 -16 -5 -3 -10 1
-10 9 0 18 6 21 15 7z m400 -10 c-3 -6 -11 -11 -17 -11 -6 0 -6 6 2 15 14 17
26 13 15 -4z m482 -13 c-3 -7 -5 -2 -5 12 0 14 2 19 5 13 2 -7 2 -19 0 -25z
m-78 18 c-2 -2 -15 -9 -29 -15 -24 -11 -24 -11 -6 3 16 13 49 24 35 12z
m-1481 -40 c32 -19 64 -36 72 -38 8 -2 26 -14 42 -27 28 -24 28 -25 28 -143 0
-92 3 -118 13 -112 9 5 9 4 0 -6 -7 -8 -16 -11 -19 -7 -4 3 -7 60 -7 127 0 90
-3 120 -13 120 -7 0 -14 4 -16 9 -1 4 -40 30 -85 56 -75 43 -92 55 -79 55 3 0
31 -15 64 -34z m1550 -2 c4 2 16 -5 27 -16 18 -18 15 -17 -26 3 -28 15 -44 29
-41 37 3 9 9 7 19 -8 8 -11 17 -19 21 -16z m-923 5 c-10 -15 -25 -10 -19 6 4
8 10 12 15 9 5 -3 7 -10 4 -15z m615 -15 c0 -1 -9 0 -20 3 -11 3 -20 12 -20
19 0 11 5 10 20 -3 11 -10 20 -18 20 -19z m-1008 0 c-3 -18 -1 -25 6 -20 6 3
15 -1 20 -10 6 -10 16 -15 25 -11 10 4 14 2 11 -7 -5 -14 -34 -18 -34 -5 0 4
-8 10 -18 13 -9 3 -23 15 -30 27 -8 12 -9 18 -3 14 6 -3 11 1 11 9 0 9 4 16 9
16 4 0 6 -12 3 -26z m678 16 c0 -5 -4 -10 -10 -10 -5 0 -10 5 -10 10 0 6 5 10
10 10 6 0 10 -4 10 -10z m414 2 c2 -4 -4 -8 -14 -8 -10 0 -16 4 -14 8 3 4 9 8
14 8 5 0 11 -4 14 -8z m301 -10 c-3 -3 -11 0 -18 7 -9 10 -8 11 6 5 10 -3 15
-9 12 -12z m-1329 -1 c-4 -5 8 -12 25 -16 17 -4 27 -10 24 -13 -11 -11 -29 -8
-43 5 -17 16 -36 17 -26 1 5 -7 3 -8 -6 -3 -10 6 -9 11 5 22 22 15 28 17 21 4z
m791 -4 c0 -7 -9 -13 -19 -13 -18 0 -18 1 -2 13 10 7 18 13 19 13 1 0 2 -6 2
-13z m73 2 c0 -4 -6 -9 -13 -12 -8 -3 -14 0 -14 7 0 7 6 13 14 13 7 0 13 -4
13 -8z m327 -2 c0 -7 -9 -13 -19 -13 -18 0 -18 1 -2 13 10 7 18 13 19 13 1 0
2 -6 2 -13z m-993 -5 c3 -5 -1 -9 -9 -9 -8 0 -15 4 -15 9 0 4 4 8 9 8 6 0 12
-4 15 -8z m783 -6 c0 -8 -6 -12 -15 -9 -11 5 -11 7 0 14 7 5 13 9 14 9 0 0 1
-6 1 -14z m103 -12 c0 -3 -5 -2 -10 1 -6 4 -19 1 -28 -7 -15 -11 -15 -11 -5 3
7 9 9 19 5 24 -4 4 3 2 16 -4 12 -6 22 -14 22 -17z m-520 6 c0 -5 -4 -10 -10
-10 -5 0 -10 5 -10 10 0 6 5 10 10 10 6 0 10 -4 10 -10z m110 0 c0 -5 -4 -10
-10 -10 -5 0 -10 5 -10 10 0 6 5 10 10 10 6 0 10 -4 10 -10z m704 2 c2 -4 -4
-8 -14 -8 -10 0 -16 4 -14 8 3 4 9 8 14 8 5 0 11 -4 14 -8z m-1044 -21 c0 -4
-7 -8 -15 -8 -16 0 -20 9 -9 20 8 8 24 -1 24 -12z m405 10 c-3 -5 5 -17 17
-25 12 -9 18 -16 14 -16 -5 0 -17 7 -27 16 -13 12 -22 13 -37 5 -14 -8 -19 -7
-19 4 0 8 4 12 9 9 4 -3 16 0 25 5 23 13 26 13 18 2z m85 -1 c0 -5 -4 -10 -10
-10 -5 0 -10 5 -10 10 0 6 5 10 10 10 6 0 10 -4 10 -10z m315 1 c-3 -6 4 -15
16 -21 11 -7 18 -14 15 -17 -3 -4 -15 2 -25 11 -11 10 -24 15 -30 12 -5 -4
-13 -1 -17 5 -4 7 -3 9 2 6 6 -3 16 -2 24 4 19 11 23 11 15 0z m80 -1 c3 -5 1
-10 -4 -10 -6 0 -11 5 -11 10 0 6 2 10 4 10 3 0 8 -4 11 -10z m-591 -15 c-4
-8 -14 -15 -23 -15 -14 1 -13 3 3 15 25 19 27 19 20 0z m352 -32 c-4 -4 -76
37 -76 44 0 2 18 -6 40 -18 22 -12 38 -24 36 -26z m54 24 c0 -2 -8 -3 -18 -3
-10 0 -19 6 -19 13 0 8 6 9 19 2 10 -5 18 -11 18 -12z m-1123 -2 c0 -8 -4 -12
-9 -9 -5 3 -6 10 -3 15 9 13 12 11 12 -6z m563 8 c0 -1 -8 -7 -18 -12 -13 -7
-19 -6 -19 2 0 7 9 13 19 13 10 0 18 -1 18 -3z m-340 -34 c0 -6 5 -7 10 -4 6
3 10 1 10 -5 0 -6 4 -9 9 -6 4 3 16 -3 26 -14 10 -11 23 -16 29 -13 6 4 17 8
25 10 11 1 10 -2 -3 -15 -15 -15 -20 -14 -72 13 -31 17 -58 36 -61 42 -3 7
-10 10 -16 6 -6 -3 -7 -1 -3 5 8 14 46 -2 46 -19z m254 10 c20 -12 36 -23 36
-25 0 -5 -44 18 -70 35 -27 19 -2 11 34 -10z m490 9 c-3 -4 -9 -8 -15 -8 -5 0
-9 4 -9 8 0 5 7 9 15 9 8 0 12 -4 9 -9z m410 -5 c4 -11 1 -11 -14 -3 -24 13
-25 17 -5 17 8 0 16 -6 19 -14z m-214 1 c0 -2 -9 -8 -20 -14 -15 -8 -18 -8
-14 3 4 11 34 21 34 11z m-248 -18 c10 6 11 4 0 -7 -10 -11 -15 -10 -30 6 -15
17 -15 18 0 6 9 -7 23 -9 30 -5z m-297 -6 c3 -5 2 -10 -4 -10 -5 0 -13 5 -16
10 -3 6 -2 10 4 10 5 0 13 -4 16 -10z m177 -12 c-7 -7 -12 -8 -12 -2 0 6 3 14
7 17 3 4 9 5 12 2 2 -3 -1 -11 -7 -17z m223 12 c3 -5 2 -10 -4 -10 -5 0 -13 5
-16 10 -3 6 -2 10 4 10 5 0 13 -4 16 -10z m90 -8 c-3 -3 -11 0 -18 7 -9 10 -8
11 6 5 10 -3 15 -9 12 -12z m210 8 c-3 -5 -12 -10 -18 -10 -7 0 -6 4 3 10 19
12 23 12 15 0z m100 0 c3 -5 1 -10 -4 -10 -6 0 -11 5 -11 10 0 6 2 10 4 10 3
0 8 -4 11 -10z m-750 -30 c3 -5 2 -10 -4 -10 -5 0 -13 5 -16 10 -3 6 -2 10 4
10 5 0 13 -4 16 -10z m85 -5 c-7 -8 -18 -15 -24 -15 -6 0 -2 7 8 15 25 19 32
19 16 0z m315 5 c3 -5 1 -10 -4 -10 -6 0 -11 5 -11 10 0 6 2 10 4 10 3 0 8 -4
11 -10z m88 -31 c-2 -57 -13 -62 -13 -6 0 26 3 47 8 47 4 0 6 -18 5 -41z
m-937 3 c-4 -3 -14 2 -24 12 -16 18 -16 18 6 6 13 -6 21 -14 18 -18z m997 7
c5 -3 2 -9 -7 -12 -12 -5 -16 0 -16 15 0 12 3 17 8 12 4 -5 11 -12 15 -15z
m-108 -7 c-3 -3 -11 0 -18 7 -9 10 -8 11 6 5 10 -3 15 -9 12 -12z m-495 -2 c0
-5 -2 -10 -4 -10 -3 0 -8 5 -11 10 -3 6 -1 10 4 10 6 0 11 -4 11 -10z m411 -7
c13 -15 12 -15 -8 -4 -24 12 -29 21 -14 21 5 0 15 -7 22 -17z m398 4 c8 -10 7
-14 -4 -14 -8 0 -16 6 -19 14 -3 7 -2 13 3 13 5 0 14 -6 20 -13z m-1049 -2 c0
-2 -10 -9 -22 -15 -22 -11 -22 -10 -4 4 21 17 26 19 26 11z m430 1 c0 -3 -4
-8 -10 -11 -5 -3 -10 -1 -10 4 0 6 5 11 10 11 6 0 10 -2 10 -4z m-493 -28 c7
2 10 -3 7 -12 -3 -7 5 -23 17 -34 l21 -21 -22 6 c-12 3 -24 13 -27 22 -4 9
-18 26 -32 39 l-26 23 25 -13 c14 -7 31 -11 37 -10z m364 -5 c13 -15 12 -15
-8 -4 -24 12 -29 21 -14 21 5 0 15 -7 22 -17z m394 7 c3 -5 2 -10 -4 -10 -5 0
-13 5 -16 10 -3 6 -2 10 4 10 5 0 13 -4 16 -10z m-320 -10 c-3 -5 -11 -10 -16
-10 -6 0 -7 5 -4 10 3 6 11 10 16 10 6 0 7 -4 4 -10z m369 -25 c3 -9 0 -15 -8
-15 -7 0 -13 7 -13 15 0 8 4 15 8 15 4 0 9 -7 13 -15z m-824 -10 c0 -2 -10
-10 -22 -16 -21 -11 -22 -11 -9 4 13 16 31 23 31 12z m455 -15 c3 -5 1 -10 -4
-10 -6 0 -11 5 -11 10 0 6 2 10 4 10 3 0 8 -4 11 -10z m335 6 c0 -2 -7 -7 -16
-10 -8 -3 -12 -2 -9 4 6 10 25 14 25 6z m70 -6 c0 -5 -2 -10 -4 -10 -3 0 -8 5
-11 10 -3 6 -1 10 4 10 6 0 11 -4 11 -10z m330 6 c0 -2 -7 -7 -16 -10 -8 -3
-12 -2 -9 4 6 10 25 14 25 6z m-465 -25 c3 -5 1 -12 -5 -16 -5 -3 -10 1 -10 9
0 18 6 21 15 7z m-408 -23 c-3 -8 -6 -5 -6 6 -1 11 2 17 5 13 3 -3 4 -12 1
-19z m604 5 c13 -15 12 -15 -8 -4 -24 12 -29 21 -14 21 5 0 15 -7 22 -17z
m202 2 c-3 -9 -8 -14 -10 -11 -3 3 -2 9 2 15 9 16 15 13 8 -4z m-1093 -9 c10
-13 7 -15 -16 -13 -16 1 -29 -2 -29 -8 0 -5 -4 -15 -8 -22 -4 -7 0 -16 10 -22
10 -5 15 -12 12 -15 -9 -10 -40 5 -33 15 3 5 -1 9 -8 9 -8 1 -6 6 6 15 11 8
14 15 7 15 -18 0 -3 20 23 30 11 5 22 9 22 9 1 1 7 -6 14 -13z m795 4 c3 -5
-1 -10 -10 -10 -9 0 -13 5 -10 10 3 6 8 10 10 10 2 0 7 -4 10 -10z m-447 -24
c-7 -8 -15 -12 -17 -11 -5 6 10 25 20 25 5 0 4 -6 -3 -14z m77 4 c3 -5 1 -10
-4 -10 -6 0 -11 5 -11 10 0 6 2 10 4 10 3 0 8 -4 11 -10z m125 -16 c0 -2 -9 0
-20 6 -11 6 -20 13 -20 16 0 2 9 0 20 -6 11 -6 20 -13 20 -16z m210 22 c0 -2
-7 -7 -16 -10 -8 -3 -12 -2 -9 4 6 10 25 14 25 6z m70 -16 c0 -11 -2 -20 -4
-20 -2 0 -6 9 -9 20 -3 11 -1 20 4 20 5 0 9 -9 9 -20z m330 16 c0 -2 -7 -7
-16 -10 -8 -3 -12 -2 -9 4 6 10 25 14 25 6z m-873 -38 c-3 -7 -5 -2 -5 12 0
14 2 19 5 13 2 -7 2 -19 0 -25z m-497 -14 c0 -2 -9 0 -20 6 -11 6 -20 13 -20
16 0 2 9 0 20 -6 11 -6 20 -13 20 -16z m110 21 c0 -2 -10 -9 -22 -15 -22 -11
-22 -10 -4 4 21 17 26 19 26 11z m290 -9 c-7 -7 -13 -7 -20 0 -6 6 -3 10 10
10 13 0 16 -4 10 -10z m400 0 c-7 -7 -13 -7 -20 0 -6 6 -3 10 10 10 13 0 16
-4 10 -10z m97 -8 c-3 -8 -6 -5 -6 6 -1 11 2 17 5 13 3 -3 4 -12 1 -19z m143
-9 c0 -4 -8 -10 -17 -13 -10 -4 -14 -4 -10 0 10 10 -13 35 -26 27 -5 -3 -7 -1
-4 5 7 10 57 -6 57 -19z m55 21 c3 -5 2 -10 -4 -10 -5 0 -13 5 -16 10 -3 6 -2
10 4 10 5 0 13 -4 16 -10z m118 -2 c3 -8 -4 -13 -19 -13 -22 0 -23 1 -7 13 9
6 18 12 19 12 1 0 4 -6 7 -12z m84 -10 c-3 -8 -6 -5 -6 6 -1 11 2 17 5 13 3
-3 4 -12 1 -19z m-1556 -2 c-9 -11 -8 -18 4 -30 9 -9 12 -16 7 -16 -5 0 -17 9
-26 19 -17 18 -17 20 1 30 24 14 28 14 14 -3z m369 -11 c-10 -12 -9 -16 4 -21
20 -8 21 -24 1 -24 -8 0 -15 7 -15 15 0 8 -6 15 -12 15 -8 0 -5 7 6 15 25 19
32 19 16 0z m340 0 c5 3 10 4 10 1 0 -3 -10 -11 -22 -17 -13 -6 -20 -8 -16 -4
4 5 2 15 -5 24 -10 14 -10 14 5 3 9 -8 22 -11 28 -7z m185 5 c3 -5 1 -10 -4
-10 -6 0 -11 5 -11 10 0 6 2 10 4 10 3 0 8 -4 11 -10z m213 -16 c2 -1 -5 -5
-15 -8 -9 -4 -14 -4 -10 0 4 4 1 14 -6 23 -11 14 -10 15 8 1 11 -8 21 -15 23
-16z m119 12 c0 -8 -6 -12 -14 -9 -7 3 -10 9 -7 14 8 14 21 11 21 -5z m403 9
c0 -2 -14 -12 -30 -20 -17 -9 -29 -19 -26 -23 2 -4 -6 -8 -19 -8 -21 -2 -22 1
-12 17 6 10 14 14 17 9 3 -5 17 0 30 10 24 19 40 25 40 15z m-1317 -17 c-2 -5
0 -8 4 -8 16 0 34 -38 21 -46 -7 -5 -8 -3 -4 5 5 8 0 14 -13 18 -11 3 -18 9
-15 14 3 5 -2 9 -10 9 -8 0 -17 3 -19 8 -3 4 5 7 18 7 13 0 21 -3 18 -7z m704
-5 c0 -8 -6 -9 -19 -2 -10 5 -18 11 -18 12 0 2 8 3 18 3 10 0 19 -6 19 -13z
m397 6 c-2 -4 2 -10 8 -12 7 -3 8 -6 2 -6 -5 -1 -18 5 -28 12 -16 12 -16 13 3
13 11 0 18 -3 15 -7z m-1207 -13 c4 -5 3 -6 -4 -3 -6 4 -13 2 -15 -3 -2 -7
-10 -6 -21 3 -17 12 -17 13 6 12 14 0 29 -4 34 -9z m407 6 c2 -4 -4 -8 -14 -8
-10 0 -16 4 -14 8 3 4 9 8 14 8 5 0 11 -4 14 -8z m566 -8 c-6 -6 -6 -15 -2
-19 4 -5 1 -5 -5 -1 -7 4 -22 2 -34 -5 -21 -11 -21 -11 -3 13 9 13 26 24 35
24 12 0 15 -4 9 -12z m340 12 c0 -2 -9 -6 -20 -9 -11 -3 -18 -1 -14 4 5 9 34
13 34 5z m-546 -21 c-7 -16 -24 -21 -24 -6 0 8 7 13 27 20 1 1 0 -6 -3 -14z
m286 11 c0 -3 -4 -8 -10 -11 -5 -3 -10 -1 -10 4 0 6 5 11 10 11 6 0 10 -2 10
-4z m100 -6 c8 -5 11 -12 7 -16 -4 -4 -15 0 -24 9 -18 18 -8 23 17 7z m-1115
-20 c-3 -5 5 -6 17 -3 18 5 20 3 12 -7 -15 -15 -51 -5 -51 14 0 8 6 12 14 9 7
-3 11 -9 8 -13z m415 6 c-7 -7 -13 -7 -20 0 -6 6 -3 10 10 10 13 0 16 -4 10
-10z m410 7 c0 -1 -8 -7 -18 -12 -13 -7 -19 -6 -19 2 0 7 9 13 19 13 10 0 18
-1 18 -3z m-910 -19 c0 -8 -5 -12 -10 -9 -6 4 -8 11 -5 16 9 14 15 11 15 -7z
m757 9 c-4 -3 -1 -13 6 -21 11 -13 9 -14 -10 -1 -16 9 -19 16 -10 21 15 9 23
10 14 1z m543 3 c0 -2 -7 -7 -16 -10 -8 -3 -12 -2 -9 4 6 10 25 14 25 6z
m-1020 -32 c0 -2 -9 0 -20 6 -11 6 -20 13 -20 16 0 2 9 0 20 -6 11 -6 20 -13
20 -16z m364 18 c2 -4 -4 -8 -14 -8 -10 0 -16 4 -14 8 3 4 9 8 14 8 5 0 11 -4
14 -8z m216 -13 c0 -14 -16 -11 -29 5 -10 12 -8 13 8 9 12 -3 21 -9 21 -14z
m190 17 c0 -2 -7 -7 -16 -10 -8 -3 -12 -2 -9 4 6 10 25 14 25 6z m110 0 c0 -2
-7 -6 -15 -10 -8 -3 -15 -1 -15 4 0 6 7 10 15 10 8 0 15 -2 15 -4z m190 -12
c0 -2 -15 -11 -32 -19 -27 -13 -30 -13 -14 -1 10 8 15 19 12 24 -3 6 2 8 14 5
11 -3 20 -7 20 -9z m-405 -4 c-3 -5 -10 -10 -16 -10 -5 0 -9 5 -9 10 0 6 7 10
16 10 8 0 12 -4 9 -10z m315 0 c0 -5 -2 -10 -4 -10 -3 0 -8 5 -11 10 -3 6 -1
10 4 10 6 0 11 -4 11 -10z m-1200 -17 c0 4 8 4 17 -1 16 -9 19 -67 13 -236 0
-5 -3 -7 -6 -3 -4 3 -6 50 -5 105 2 107 -3 134 -25 125 -9 -3 -14 1 -14 13 0
16 2 17 10 4 5 -8 10 -11 10 -7z m75 8 c3 -5 1 -12 -5 -16 -5 -3 -10 1 -10 9
0 18 6 21 15 7z m265 -1 c0 -5 -2 -10 -4 -10 -3 0 -8 5 -11 10 -3 6 -1 10 4
10 6 0 11 -4 11 -10z m200 6 c0 -3 -4 -8 -10 -11 -5 -3 -10 -1 -10 4 0 6 5 11
10 11 6 0 10 -2 10 -4z m85 -14 c-3 -3 -11 0 -18 7 -9 10 -8 11 6 5 10 -3 15
-9 12 -12z m315 3 c-7 -8 -18 -15 -24 -15 -6 0 -2 7 8 15 25 19 32 19 16 0z
m206 -13 c-4 -3 -14 2 -24 12 -16 18 -16 18 6 6 13 -6 21 -14 18 -18z m-401 8
c3 -5 2 -10 -4 -10 -5 0 -13 5 -16 10 -3 6 -2 10 4 10 5 0 13 -4 16 -10z m95
-4 c-7 -7 -13 -7 -20 0 -6 6 -3 10 10 10 13 0 16 -4 10 -10z m200 4 c0 -5 -4
-10 -10 -10 -5 0 -10 5 -10 10 0 6 5 10 10 10 6 0 10 -4 10 -10z m300 6 c0 -3
-4 -8 -10 -11 -5 -3 -10 -1 -10 4 0 6 5 11 10 11 6 0 10 -2 10 -4z m-1696 -38
c-10 -16 -22 -7 -17 13 4 15 8 17 14 8 4 -7 5 -17 3 -21z m36 22 c0 -5 -5 -10
-11 -10 -5 0 -7 5 -4 10 3 6 8 10 11 10 2 0 4 -4 4 -10z m257 -26 c2 -13 1
-15 -4 -4 -3 8 -11 19 -17 23 -7 6 -6 7 4 4 8 -2 16 -12 17 -23z m464 9 c13
-15 12 -15 -8 -4 -24 12 -29 21 -14 21 5 0 15 -7 22 -17z m84 7 c-3 -5 -11
-10 -16 -10 -6 0 -7 5 -4 10 3 6 11 10 16 10 6 0 7 -4 4 -10z m809 -5 c-10 -8
-23 -14 -29 -14 -5 0 -1 6 9 14 11 8 24 15 30 15 5 0 1 -7 -10 -15z m-1169 -5
c-3 -5 -11 -10 -16 -10 -6 0 -7 5 -4 10 3 6 11 10 16 10 6 0 7 -4 4 -10z
m-136 -34 c0 -15 -2 -16 -6 -6 -4 8 -13 20 -22 27 -14 10 -13 11 7 6 14 -3 22
-13 21 -27z m81 9 c0 -8 -4 -15 -10 -15 -5 0 -7 7 -4 15 4 8 8 15 10 15 2 0 4
-7 4 -15z m270 5 c0 -5 -2 -10 -4 -10 -3 0 -8 5 -11 10 -3 6 -1 10 4 10 6 0
11 -4 11 -10z m200 6 c0 -3 -4 -8 -10 -11 -5 -3 -10 -1 -10 4 0 6 5 11 10 11
6 0 10 -2 10 -4z m703 -16 c-3 -11 -7 -20 -9 -20 -2 0 -4 9 -4 20 0 11 4 20 9
20 5 0 7 -9 4 -20z m-499 2 c2 -4 1 -14 -3 -21 -6 -9 -10 -7 -14 8 -5 20 7 29
17 13z m139 -34 c-10 -18 -20 -6 -15 19 5 24 6 25 12 8 4 -11 6 -23 3 -27z
m52 32 c-3 -5 -11 -10 -16 -10 -6 0 -7 5 -4 10 3 6 11 10 16 10 6 0 7 -4 4
-10z m210 0 c3 -5 1 -10 -4 -10 -6 0 -11 5 -11 10 0 6 2 10 4 10 3 0 8 -4 11
-10z m195 6 c0 -3 -4 -8 -10 -11 -5 -3 -10 -1 -10 4 0 6 5 11 10 11 6 0 10 -2
10 -4z m-939 -33 c13 -15 12 -15 -8 -4 -24 12 -29 21 -14 21 5 0 15 -7 22 -17z
m89 12 c0 -2 -10 -10 -22 -16 -21 -11 -22 -11 -9 4 13 16 31 23 31 12z m305
-15 c3 -5 1 -10 -4 -10 -6 0 -11 5 -11 10 0 6 2 10 4 10 3 0 8 -4 11 -10z
m490 0 c-3 -5 -11 -10 -16 -10 -6 0 -7 5 -4 10 3 6 11 10 16 10 6 0 7 -4 4
-10z m-1648 -47 c-3 -10 -5 -2 -5 17 0 19 2 27 5 18 2 -10 2 -26 0 -35z m1609
17 c0 -14 -7 -20 -21 -19 -11 0 -14 3 -7 6 6 2 12 11 12 19 0 8 4 14 8 14 4 0
8 -9 8 -20z m-769 -32 c-3 -7 -5 -2 -5 12 0 14 2 19 5 13 2 -7 2 -19 0 -25z
m363 2 c0 -5 -2 -10 -4 -10 -3 0 -8 5 -11 10 -3 6 -1 10 4 10 6 0 11 -4 11
-10z m451 -7 c13 -15 12 -15 -8 -4 -24 12 -29 21 -14 21 5 0 15 -7 22 -17z
m-405 -21 c-4 -3 -14 2 -24 12 -16 18 -16 18 6 6 13 -6 21 -14 18 -18z m-91 8
c-3 -5 -11 -10 -16 -10 -6 0 -7 5 -4 10 3 6 11 10 16 10 6 0 7 -4 4 -10z m355
-4 c0 -3 -4 -8 -10 -11 -5 -3 -10 -1 -10 4 0 6 5 11 10 11 6 0 10 -2 10 -4z
m185 -6 c3 -5 2 -10 -4 -10 -5 0 -13 5 -16 10 -3 6 -2 10 4 10 5 0 13 -4 16
-10z m-849 -28 c-4 -3 -14 2 -24 12 -16 18 -16 18 6 6 13 -6 21 -14 18 -18z
m754 18 c0 -5 -8 -10 -17 -10 -15 0 -16 2 -3 10 19 12 20 12 20 0z m-850 -10
c0 -5 -5 -10 -11 -10 -5 0 -7 5 -4 10 3 6 8 10 11 10 2 0 4 -4 4 -10z m355 0
c-3 -5 -11 -10 -16 -10 -6 0 -7 5 -4 10 3 6 11 10 16 10 6 0 7 -4 4 -10z m190
0 c3 -5 1 -10 -4 -10 -6 0 -11 5 -11 10 0 6 2 10 4 10 3 0 8 -4 11 -10z m356
-17 c13 -15 12 -15 -8 -4 -24 12 -29 21 -14 21 5 0 15 -7 22 -17z m-491 -8
c-7 -8 -18 -15 -24 -15 -6 0 -2 7 8 15 25 19 32 19 16 0z m-807 -11 c-3 -9 0
-20 8 -24 7 -5 10 -12 6 -17 -10 -9 -27 16 -27 40 0 9 4 17 10 17 5 0 7 -7 3
-16z m82 6 c3 -5 2 -10 -4 -10 -5 0 -13 5 -16 10 -3 6 -2 10 4 10 5 0 13 -4
16 -10z m265 0 c0 -5 -5 -10 -11 -10 -5 0 -7 5 -4 10 3 6 8 10 11 10 2 0 4 -4
4 -10z m113 -2 c12 -7 24 -16 27 -19 3 -3 23 -14 45 -25 22 -10 46 -24 53 -31
7 -7 19 -13 27 -13 7 0 15 -5 17 -12 3 -7 14 -9 31 -4 16 4 25 11 21 17 -3 6
-15 9 -25 6 -11 -3 -16 -1 -13 5 3 5 19 6 36 3 21 -5 35 -2 49 11 10 9 22 15
25 11 3 -3 14 3 25 14 11 11 24 17 29 14 4 -3 11 1 14 7 3 7 4 6 3 -4 -1 -9 6
-23 16 -30 18 -13 17 -14 -2 -14 -11 0 -18 4 -15 7 2 4 0 10 -5 14 -13 7 -121
-53 -121 -68 0 -6 -3 -7 -6 -4 -4 3 -15 2 -25 -3 -13 -8 -27 -5 -51 10 -53 32
-79 41 -99 35 -11 -4 -17 -10 -15 -14 3 -4 -4 -7 -14 -7 -18 0 -21 19 -5 33 4
4 5 2 1 -4 -8 -15 3 -17 24 -3 11 7 12 12 3 21 -12 12 -67 4 -59 -9 2 -4 -4
-8 -14 -8 -10 0 -16 5 -13 10 4 5 -1 7 -11 3 -10 -4 -15 -3 -11 3 8 13 -16 13
-35 -1 -11 -8 -12 -12 -3 -16 7 -2 21 -12 31 -21 10 -9 12 -13 5 -9 -6 5 -18
5 -24 1 -8 -5 -9 -3 -4 6 6 10 4 12 -9 7 -9 -4 -15 -3 -11 2 3 5 -1 11 -7 14
-13 4 -70 -30 -76 -45 -2 -5 -15 -8 -28 -8 -16 0 -23 -4 -18 -11 4 -6 6 -56 6
-110 0 -76 3 -99 13 -99 10 0 13 23 13 100 -1 104 4 123 25 100 9 -10 9 -11 0
-6 -10 6 -13 -19 -13 -108 0 -67 -4 -117 -10 -121 -6 -4 -7 -11 -4 -17 4 -6 2
-8 -4 -5 -5 4 -39 -9 -74 -28 -34 -20 -73 -41 -85 -47 -18 -9 -22 -21 -25 -70
-2 -33 0 -62 3 -64 4 -2 4 -15 1 -29 -2 -14 1 -32 8 -40 7 -9 10 -18 6 -22 -3
-3 -6 -1 -6 6 0 7 -4 10 -9 7 -15 -9 -18 14 -14 107 2 62 0 86 -8 81 -10 -6
-58 13 -69 27 -3 4 -39 25 -82 47 -42 22 -74 43 -71 46 4 3 29 -7 57 -23 28
-16 62 -36 76 -43 14 -7 37 -22 52 -32 l28 -18 109 64 c61 34 110 67 111 72 0
13 -54 -4 -67 -21 -7 -9 -13 -13 -13 -9 0 9 -85 -38 -113 -62 -16 -14 -20 -14
-46 1 -16 9 -31 14 -35 12 -3 -3 -4 -2 -1 1 2 4 -29 26 -70 50 l-74 44 -95
-55 c-114 -66 -126 -71 -126 -54 0 7 3 10 6 7 5 -5 111 52 192 103 17 11 26
11 40 2 37 -26 175 -103 183 -103 5 0 47 21 94 48 l84 47 -2 121 c-2 94 1 120
11 117 6 -3 12 -1 12 4 0 5 9 9 20 10 11 1 34 13 52 26 18 13 40 27 48 31 8 3
29 15 45 25 37 24 31 23 58 9z m82 2 c3 -5 1 -10 -4 -10 -6 0 -11 5 -11 10 0
6 2 10 4 10 3 0 8 -4 11 -10z m332 -23 c6 2 18 -5 26 -17 8 -11 18 -20 23 -19
22 4 34 -2 34 -16 0 -8 -4 -15 -10 -15 -5 0 -10 5 -10 11 0 6 -7 9 -14 6 -9
-4 -17 2 -21 14 -4 10 -15 19 -25 19 -11 0 -24 9 -30 19 -14 27 -12 41 3 15 7
-12 17 -19 24 -17z m18 23 c3 -5 1 -10 -4 -10 -6 0 -11 5 -11 10 0 6 2 10 4
10 3 0 8 -4 11 -10z m-943 -43 c-3 -12 -7 -16 -10 -9 -2 7 -7 10 -12 7 -4 -3
-3 6 3 19 13 28 27 15 19 -17z m1208 39 c0 -3 -4 -8 -10 -11 -5 -3 -10 -1 -10
4 0 6 5 11 10 11 6 0 10 -2 10 -4z m190 -11 c11 -13 10 -14 -4 -9 -9 3 -16 10
-16 15 0 13 6 11 20 -6z m-1790 0 c0 -2 -10 -10 -22 -16 -21 -11 -22 -11 -9 4
13 16 31 23 31 12z m517 -20 c0 -8 -4 -12 -9 -9 -4 3 -13 2 -19 -2 -8 -4 -3
-11 12 -19 19 -11 27 -10 44 1 19 12 22 12 22 0 0 -8 -6 -12 -15 -8 -33 12 -4
-22 37 -44 l44 -23 -1 -93 c-1 -51 -1 -96 -2 -100 0 -5 -6 -8 -12 -8 -7 0 -39
-16 -71 -35 -32 -19 -66 -35 -75 -34 -14 0 -14 2 -2 6 8 3 45 23 83 45 l67 39
-1 87 -1 87 -49 28 c-28 15 -54 25 -60 22 -5 -4 -8 -1 -7 7 2 8 -7 13 -27 13
-18 0 -29 -5 -28 -12 2 -9 -5 -9 -27 -1 -17 5 -27 14 -24 20 4 6 9 5 14 -3 7
-10 18 -6 50 15 22 15 38 31 35 36 -3 5 0 7 8 4 7 -2 14 -11 14 -19z m63 -1
c0 -2 -9 0 -20 6 -11 6 -20 13 -20 16 0 2 9 0 20 -6 11 -6 20 -13 20 -16z
m900 14 c0 -4 -4 -8 -9 -8 -6 0 -12 4 -15 8 -3 5 1 9 9 9 8 0 15 -4 15 -9z
m355 -26 c-3 -3 -11 0 -18 7 -9 10 -8 11 6 5 10 -3 15 -9 12 -12z m-762 1 c3
-5 -5 -8 -18 -8 -13 0 -21 3 -18 8 2 4 10 7 18 7 8 0 16 -3 18 -7z m357 -3 c0
-5 -4 -10 -10 -10 -5 0 -10 5 -10 10 0 6 5 10 10 10 6 0 10 -4 10 -10z m95 -8
c-3 -3 -11 0 -18 7 -9 10 -8 11 6 5 10 -3 15 -9 12 -12z m75 -2 c0 -5 -4 -10
-10 -10 -5 0 -10 5 -10 10 0 6 5 10 10 10 6 0 10 -4 10 -10z m89 7 c-2 -1 -13
-9 -24 -17 -19 -14 -19 -14 -6 3 7 9 18 17 24 17 6 0 8 -1 6 -3z m-1094 -16
c3 -5 2 -12 -3 -15 -5 -3 -9 1 -9 9 0 17 3 19 12 6z m72 -5 c0 -8 -6 -12 -15
-9 -11 5 -11 7 0 14 7 5 13 9 14 9 0 0 1 -6 1 -14z m903 -2 c0 -2 -14 -11 -30
-19 -18 -9 -28 -21 -24 -27 4 -7 3 -8 -5 -4 -6 4 -17 3 -24 -2 -14 -12 -67 22
-54 35 5 4 11 2 15 -4 10 -17 48 -21 44 -5 -1 8 2 11 8 7 13 -8 52 14 45 25
-3 6 1 7 9 4 9 -3 16 -8 16 -10z m-323 -7 c0 -7 -9 -13 -19 -13 -18 0 -18 1
-2 13 10 7 18 13 19 13 1 0 2 -6 2 -13z m91 -1 c-2 -1 -12 -8 -23 -16 -18 -14
-19 -13 -8 1 7 9 10 19 6 23 -4 4 1 4 10 0 10 -3 17 -7 15 -8z m142 4 c0 -5
-4 -10 -10 -10 -5 0 -10 5 -10 10 0 6 5 10 10 10 6 0 10 -4 10 -10z m-844 -23
c1 -9 -1 -17 -6 -17 -12 0 -30 26 -23 34 11 10 26 1 29 -17z m1008 15 c2 -4
-4 -8 -14 -8 -10 0 -16 4 -14 8 3 4 9 8 14 8 5 0 11 -4 14 -8z m-1367 -19 c0
-7 -4 -10 -9 -7 -4 3 -8 0 -8 -7 0 -15 -13 -3 -16 14 -1 7 6 13 16 13 9 0 17
-6 17 -13z m78 7 c-3 -5 -12 -10 -18 -10 -7 0 -6 4 3 10 19 12 23 12 15 0z
m53 -5 c-13 -11 -68 -34 -68 -28 0 11 53 41 63 35 5 -2 7 -5 5 -7z m77 -5 c-3
-5 -12 -10 -18 -10 -7 0 -6 4 3 10 19 12 23 12 15 0z m531 -13 c2 -14 -1 -15
-17 -6 -11 5 -17 15 -13 20 9 14 27 6 30 -14z m404 -15 c0 -1 -9 2 -20 8 -11
6 -20 15 -20 20 0 6 9 2 20 -7 11 -10 20 -19 20 -21z m280 12 c0 -2 -9 0 -20
6 -11 6 -20 13 -20 16 0 2 9 0 20 -6 11 -6 20 -13 20 -16z m90 9 c0 -10 -4
-14 -8 -8 -4 6 -11 13 -16 18 -5 4 -2 7 7 7 10 0 17 -8 17 -17z m-895 -3 c3
-6 -1 -7 -9 -4 -18 7 -21 14 -7 14 6 0 13 -4 16 -10z m401 -2 c4 -7 3 -8 -5
-4 -6 4 -20 2 -29 -6 -15 -12 -16 -11 -3 5 16 20 27 22 37 5z m-1162 -10 c-5
-8 -1 -9 12 -4 14 5 16 4 7 -5 -13 -13 -37 -3 -28 12 4 5 8 9 11 9 3 0 2 -5
-2 -12z m926 -91 c-3 -37 -2 -76 2 -87 8 -21 -17 -41 -102 -85 -19 -10 -37
-21 -40 -24 -3 -4 -20 -13 -38 -20 -28 -12 -30 -16 -20 -29 10 -12 10 -14 1
-8 -16 9 -16 5 -3 -28 5 -14 6 -26 2 -26 -4 0 -5 -23 -3 -51 3 -55 -6 -119
-17 -119 -4 0 -7 21 -5 48 4 81 4 126 0 164 -3 25 1 39 10 42 8 3 12 10 9 15
-3 5 2 8 12 7 9 0 16 4 15 11 -2 7 4 10 11 7 8 -3 46 13 84 36 l70 41 -1 82
c0 45 -2 87 -6 92 -3 6 -6 17 -8 25 -1 10 4 8 16 -6 13 -17 16 -34 11 -87z
m505 93 c-3 -5 -12 -10 -18 -10 -7 0 -6 4 3 10 19 12 23 12 15 0z m-420 -10
c-3 -5 -11 -10 -16 -10 -6 0 -7 5 -4 10 3 6 11 10 16 10 6 0 7 -4 4 -10z m205
-16 c0 -2 -9 0 -20 6 -11 6 -20 13 -20 16 0 2 9 0 20 -6 11 -6 20 -13 20 -16z
m506 -1 c-7 -7 -26 7 -26 19 0 6 6 6 15 -2 9 -7 13 -15 11 -17z m-383 1 c9 -4
17 -10 17 -15 0 -14 -13 -10 -40 12 -14 11 -18 18 -10 15 8 -3 23 -9 33 -12z
m52 6 c-3 -5 -11 -10 -16 -10 -6 0 -7 5 -4 10 3 6 11 10 16 10 6 0 7 -4 4 -10z
m-433 -22 c-7 -7 -12 -8 -12 -2 0 14 12 26 19 19 2 -3 -1 -11 -7 -17z m-882
-4 c0 -8 -5 -12 -10 -9 -6 4 -8 11 -5 16 9 14 15 11 15 -7z m1584 0 c3 -8 2
-12 -4 -9 -6 3 -10 10 -10 16 0 14 7 11 14 -7z m-604 2 c0 -2 -7 -7 -16 -10
-8 -3 -12 -2 -9 4 6 10 25 14 25 6z m-850 -21 c-7 -8 -18 -15 -24 -15 -6 0 -2
7 8 15 25 19 32 19 16 0z m670 5 c0 -5 -2 -10 -4 -10 -3 0 -8 5 -11 10 -3 6
-1 10 4 10 6 0 11 -4 11 -10z m555 0 c-3 -5 -12 -10 -18 -10 -7 0 -6 4 3 10
19 12 23 12 15 0z m-1265 -20 c0 -11 -4 -20 -9 -20 -5 0 -7 9 -4 20 3 11 7 20
9 20 2 0 4 -9 4 -20z m850 16 c0 -3 -4 -8 -10 -11 -5 -3 -10 -1 -10 4 0 6 5
11 10 11 6 0 10 -2 10 -4z m325 -16 c-9 -14 19 -12 33 2 22 22 12 -1 -12 -26
-29 -33 -32 -32 -30 2 2 31 2 32 10 32 3 0 2 -4 -1 -10z m380 0 c3 -5 2 -10
-4 -10 -5 0 -13 5 -16 10 -3 6 -2 10 4 10 5 0 13 -4 16 -10z m-755 -14 c0 -3
-4 -8 -10 -11 -5 -3 -10 -1 -10 4 0 6 5 11 10 11 6 0 10 -2 10 -4z m-893 -38
c-3 -8 -6 -5 -6 6 -1 11 2 17 5 13 3 -3 4 -12 1 -19z m888 2 c3 -5 1 -10 -4
-10 -6 0 -11 5 -11 10 0 6 2 10 4 10 3 0 8 -4 11 -10z m350 -10 c-3 -5 -11
-10 -16 -10 -6 0 -7 5 -4 10 3 6 11 10 16 10 6 0 7 -4 4 -10z m400 0 c-3 -5
-11 -10 -16 -10 -6 0 -7 5 -4 10 3 6 11 10 16 10 6 0 7 -4 4 -10z m-699 -28
c-4 -3 -14 2 -24 12 -16 18 -16 18 6 6 13 -6 21 -14 18 -18z m254 3 c-7 -8
-18 -15 -24 -15 -6 0 -2 7 8 15 25 19 32 19 16 0z m170 5 c0 -5 -2 -10 -4 -10
-3 0 -8 5 -11 10 -3 6 -1 10 4 10 6 0 11 -4 11 -10z m228 -9 c-7 -11 -16 -17
-22 -14 -5 3 -1 12 9 20 25 18 27 17 13 -6z m-778 5 c0 -2 -7 -7 -16 -10 -8
-3 -12 -2 -9 4 6 10 25 14 25 6z m464 -20 c-3 -9 -10 -13 -16 -10 -5 3 -4 12
3 20 15 18 22 13 13 -10z m-389 -6 c3 -5 1 -10 -4 -10 -6 0 -11 5 -11 10 0 6
2 10 4 10 3 0 8 -4 11 -10z m436 -7 c13 -15 12 -15 -8 -4 -24 12 -29 21 -14
21 5 0 15 -7 22 -17z m-86 -3 c-3 -5 -11 -10 -16 -10 -6 0 -7 5 -4 10 3 6 11
10 16 10 6 0 7 -4 4 -10z m405 5 c0 -2 -10 -9 -22 -15 -22 -11 -22 -10 -4 4
21 17 26 19 26 11z m-701 -33 c-6 -2 -4 -11 3 -20 10 -12 10 -14 1 -8 -8 4
-13 2 -13 -4 0 -6 -4 -9 -9 -6 -5 4 -8 14 -6 24 2 9 4 23 4 30 1 10 4 10 15 0
8 -7 10 -15 5 -16z m-1124 8 c3 -6 -1 -7 -9 -4 -18 7 -21 14 -7 14 6 0 13 -4
16 -10z m1550 -8 c-3 -3 -11 0 -18 7 -9 10 -8 11 6 5 10 -3 15 -9 12 -12z
m125 -8 c0 -2 -9 0 -20 6 -11 6 -20 13 -20 16 0 2 9 0 20 -6 11 -6 20 -13 20
-16z m-413 1 c0 -6 -8 -11 -17 -11 -9 0 -17 5 -17 11 0 6 8 11 17 11 9 0 17
-5 17 -11z m108 5 c-3 -5 -11 -10 -16 -10 -6 0 -7 5 -4 10 3 6 11 10 16 10 6
0 7 -4 4 -10z m85 0 c-8 -5 -18 -6 -23 -3 -5 3 -7 0 -5 -8 3 -8 12 -13 20 -13
8 1 15 -5 15 -12 0 -12 -4 -12 -23 1 -12 8 -32 12 -44 10 -13 -2 -21 -3 -19
-1 2 3 8 5 12 5 4 0 14 6 21 13 7 8 24 14 37 15 18 2 20 0 9 -7z m315 0 c-3
-5 -11 -10 -16 -10 -6 0 -7 5 -4 10 3 6 11 10 16 10 6 0 7 -4 4 -10z m-713 -7
c-6 -2 -10 -8 -8 -12 3 -4 -4 -7 -15 -7 -19 0 -19 1 -3 13 10 7 23 13 28 12 6
0 5 -3 -2 -6z m478 -24 c27 -17 50 -32 50 -35 0 -6 -54 20 -68 33 -7 7 -20 13
-28 13 -8 0 -14 5 -14 10 0 15 5 13 60 -21z m194 8 c-3 -8 -12 -14 -21 -14
-13 0 -13 2 3 14 10 7 19 13 21 13 1 0 0 -6 -3 -13z m-894 -1 c0 -3 -4 -8 -10
-11 -5 -3 -10 -1 -10 4 0 6 5 11 10 11 6 0 10 -2 10 -4z m380 -21 c0 -2 -6 -2
-14 1 -7 3 -20 -2 -29 -11 -9 -8 -18 -11 -22 -6 -3 5 4 12 15 16 11 4 17 11
14 17 -4 6 2 6 15 -1 11 -7 21 -14 21 -16z m85 7 c-3 -3 -11 0 -18 7 -9 10 -8
11 6 5 10 -3 15 -9 12 -12z m315 14 c0 -2 -7 -7 -16 -10 -8 -3 -12 -2 -9 4 6
10 25 14 25 6z m-895 -15 c3 -5 2 -12 -3 -15 -5 -3 -9 1 -9 9 0 17 3 19 12 6z
m82 -15 c0 -9 -7 -12 -16 -8 -13 5 -14 3 -4 -10 12 -14 8 -28 -8 -28 -14 0
-17 39 -2 44 8 3 11 10 8 16 -3 5 0 7 8 4 7 -2 14 -11 14 -18z m200 9 c0 -8
-4 -12 -9 -9 -5 3 -27 -6 -48 -20 -22 -14 -43 -26 -46 -26 -4 0 -16 -7 -26
-17 -11 -10 -18 -12 -18 -4 0 6 11 17 25 23 14 6 25 15 25 20 0 5 3 7 8 4 4
-2 25 7 47 20 22 13 40 24 41 24 0 0 1 -7 1 -15z m103 -11 c0 -2 -9 0 -20 6
-11 6 -20 13 -20 16 0 2 9 0 20 -6 11 -6 20 -13 20 -16z m270 6 c0 -5 -7 -7
-15 -4 -8 4 -15 1 -15 -6 0 -7 -7 -10 -16 -6 -8 3 -12 2 -9 -4 3 -6 1 -10 -4
-10 -21 0 -11 19 17 33 28 14 42 13 42 -3z m310 5 c0 -2 -9 -9 -20 -15 -12 -6
-20 -7 -20 -1 0 5 8 12 18 14 9 3 18 5 20 6 1 0 2 -1 2 -4z m-434 -21 c-9 -6
-13 -14 -9 -18 4 -4 -1 -4 -12 0 -11 5 -14 9 -7 12 7 2 10 7 8 11 -3 4 4 7 15
7 18 0 18 -2 5 -12z m161 2 c0 -8 -6 -12 -15 -9 -11 5 -11 7 0 14 7 5 13 9 14
9 0 0 1 -6 1 -14z m93 0 c-7 -7 -13 -7 -20 0 -6 6 -3 10 10 10 13 0 16 -4 10
-10z m-460 -11 c0 -1 -9 -5 -19 -8 -13 -3 -18 -1 -14 9 4 10 33 10 33 -1z
m765 -3 c-3 -3 -11 0 -18 7 -9 10 -8 11 6 5 10 -3 15 -9 12 -12z m-639 -20
c-4 -3 -14 2 -24 12 -16 18 -16 18 6 6 13 -6 21 -14 18 -18z m124 14 c0 -8 -7
-16 -15 -20 -16 -6 -16 14 0 26 14 10 15 10 15 -6z m334 3 c-2 -4 5 -10 16
-14 11 -3 20 -10 20 -15 0 -5 -16 0 -35 11 -41 24 -41 25 -16 25 11 0 18 -3
15 -7z m-394 -25 c0 -2 -9 0 -20 6 -11 6 -20 13 -20 16 0 2 9 0 20 -6 11 -6
20 -13 20 -16z m110 1 c0 -21 -2 -24 -13 -13 -10 9 -11 16 -3 25 15 17 16 16
16 -12z m115 5 c3 -6 -1 -7 -9 -4 -18 7 -21 14 -7 14 6 0 13 -4 16 -10z m116
-7 c13 -15 12 -15 -8 -4 -24 12 -29 21 -14 21 5 0 15 -7 22 -17z m189 13 c0
-3 -4 -8 -10 -11 -5 -3 -10 -1 -10 4 0 6 5 11 10 11 6 0 10 -2 10 -4z m-545
-26 c3 -5 1 -10 -4 -10 -6 0 -11 5 -11 10 0 6 2 10 4 10 3 0 8 -4 11 -10z m44
-24 c-12 -13 -12 -46 0 -46 6 0 13 5 16 10 3 6 12 10 18 10 7 0 0 -10 -14 -23
-23 -19 -26 -30 -27 -83 0 -57 2 -63 26 -74 16 -7 22 -15 15 -17 -7 -3 -20 3
-29 12 -12 12 -19 13 -30 4 -18 -15 -7 -32 15 -24 12 5 13 3 5 -5 -9 -9 -17
-8 -32 1 -17 10 -23 10 -36 0 -17 -15 -11 -35 8 -28 7 3 13 0 13 -7 0 -6 -8
-12 -18 -12 -10 0 -16 4 -13 7 2 4 0 10 -5 13 -10 7 -40 -5 -88 -34 -33 -19
-33 -19 -65 0 -18 10 -51 29 -74 41 l-41 21 -41 -26 c-23 -14 -45 -26 -49 -26
-5 0 14 14 41 31 43 27 48 34 44 60 -3 16 -1 32 4 35 4 3 8 -10 8 -28 0 -30 5
-36 54 -62 47 -25 57 -28 71 -16 11 9 19 10 26 3 8 -8 6 -11 -6 -10 -10 1 -20
-4 -22 -10 -9 -24 25 -13 115 40 l92 52 0 66 c0 38 -5 70 -12 78 -11 11 -10
12 0 6 10 -5 13 0 12 21 -4 51 -2 56 14 42 9 -8 11 -17 5 -22z m-1228 -79 c1
-65 5 -97 13 -97 6 0 4 -5 -4 -10 -12 -7 -16 -4 -20 16 -6 29 -1 198 6 192 2
-2 4 -48 5 -101z m1584 93 c3 -5 2 -10 -4 -10 -5 0 -13 5 -16 10 -3 6 -2 10 4
10 5 0 13 -4 16 -10z m-695 -4 c0 -3 -4 -8 -10 -11 -5 -3 -10 -1 -10 4 0 6 5
11 10 11 6 0 10 -2 10 -4z m740 -23 c0 -21 -3 -24 -9 -14 -5 8 -7 20 -4 28 8
21 13 15 13 -14z m-470 -8 c0 -2 -6 -2 -14 1 -9 4 -16 -3 -19 -18 -3 -17 -5
-15 -6 10 -1 30 1 32 19 22 11 -6 20 -13 20 -15z m147 3 c-3 -8 -6 -5 -6 6 -1
11 2 17 5 13 3 -3 4 -12 1 -19z m-896 -64 c1 -85 -1 -113 -8 -96 -2 6 -10 9
-16 5 -7 -4 -6 0 1 10 8 9 13 26 12 39 -4 41 0 121 5 117 2 -3 5 -36 6 -75z
m421 54 c-7 -7 -12 -8 -12 -2 0 14 12 26 19 19 2 -3 -1 -11 -7 -17z m703 12
c3 -5 2 -10 -4 -10 -5 0 -13 5 -16 10 -3 6 -2 10 4 10 5 0 13 -4 16 -10z m165
-15 c0 -2 -9 -9 -20 -15 -12 -6 -20 -7 -20 -1 0 5 8 12 18 14 9 3 18 5 20 6 1
0 2 -1 2 -4z m-109 -22 c13 -15 12 -15 -8 -4 -24 12 -29 21 -14 21 5 0 15 -7
22 -17z m39 -23 c0 -11 -4 -20 -9 -20 -7 0 -8 17 -2 38 4 10 11 -2 11 -18z
m-784 -27 c-7 -7 -26 7 -26 19 0 6 6 6 15 -2 9 -7 13 -15 11 -17z m338 -8
c-10 -8 -23 -15 -28 -15 -6 0 -1 7 10 15 10 8 23 15 28 15 6 0 1 -7 -10 -15z
m81 5 c3 -5 2 -10 -4 -10 -5 0 -13 5 -16 10 -3 6 -2 10 4 10 5 0 13 -4 16 -10z
m334 7 c-2 -1 -13 -9 -24 -17 -19 -14 -19 -14 -6 3 7 9 18 17 24 17 6 0 8 -1
6 -3z m69 -28 c-3 -8 -7 -3 -11 10 -4 17 -3 21 5 13 5 -5 8 -16 6 -23z m-777
4 c13 -15 12 -15 -8 -4 -24 12 -29 21 -14 21 5 0 15 -7 22 -17z m-141 -8 c-7
-8 -18 -15 -24 -15 -6 0 -2 7 8 15 25 19 32 19 16 0z m-705 -5 c3 -5 1 -10 -4
-10 -6 0 -11 5 -11 10 0 6 2 10 4 10 3 0 8 -4 11 -10z m1270 0 c3 -5 1 -10 -4
-10 -6 0 -11 5 -11 10 0 6 2 10 4 10 3 0 8 -4 11 -10z m-469 -27 c-7 -7 -26 7
-26 19 0 6 6 6 15 -2 9 -7 13 -15 11 -17z m889 17 c3 -6 -1 -7 -9 -4 -18 7
-21 14 -7 14 6 0 13 -4 16 -10z m-1648 -15 c8 -9 13 -18 11 -21 -3 -2 -13 5
-23 16 -21 23 -11 27 12 5z m1108 -5 c-3 -5 -12 -10 -18 -10 -7 0 -6 4 3 10
19 12 23 12 15 0z m70 0 c3 -5 2 -10 -4 -10 -5 0 -13 5 -16 10 -3 6 -2 10 4
10 5 0 13 -4 16 -10z m330 0 c-3 -5 -12 -10 -18 -10 -7 0 -6 4 3 10 19 12 23
12 15 0z m48 -38 c9 -11 12 -11 18 5 7 16 8 15 8 -4 1 -27 1 -27 -31 -10 -16
8 -22 19 -19 32 3 15 5 16 9 5 2 -8 9 -21 15 -28z m-1505 -35 c6 -5 12 -7 12
-3 0 3 8 -1 18 -9 9 -8 19 -14 22 -13 13 7 52 -42 47 -56 -9 -23 -26 -19 -20
4 4 14 -2 23 -18 30 -13 6 -42 22 -64 35 -22 14 -55 33 -72 42 -18 9 -33 21
-33 25 0 8 76 -31 108 -55z m58 27 c8 3 12 2 9 -4 -3 -5 10 -16 30 -26 40 -19
41 -20 19 -28 -10 -4 -13 -2 -8 6 5 7 2 9 -9 5 -9 -3 -18 0 -21 9 -3 8 -10 13
-14 12 -12 -4 -91 45 -92 55 0 5 16 -1 35 -13 20 -12 42 -19 51 -16z m1331 4
c-3 -7 -5 -2 -5 12 0 14 2 19 5 13 2 -7 2 -19 0 -25z m-1548 8 c-18 -15 -99
-54 -99 -46 0 5 10 12 23 16 12 4 33 15 46 26 13 10 26 16 29 13 3 -3 3 -7 1
-9z m656 4 c-3 -5 -14 -10 -23 -9 -14 0 -13 2 3 9 27 11 27 11 20 0z m121 -2
c4 -7 3 -8 -4 -4 -7 4 -12 1 -12 -8 0 -9 -4 -16 -9 -16 -7 0 -8 17 -2 38 2 7
21 0 27 -10z m284 -14 c0 -2 -9 0 -20 6 -11 6 -20 13 -20 16 0 2 9 0 20 -6 11
-6 20 -13 20 -16z m275 16 c3 -5 2 -10 -4 -10 -5 0 -13 5 -16 10 -3 6 -2 10 4
10 5 0 13 -4 16 -10z m125 -13 c0 -2 -8 -3 -18 -3 -10 0 -19 6 -19 13 0 8 6 9
19 2 10 -5 18 -11 18 -12z m-918 -1 c7 4 8 2 4 -5 -9 -13 -26 -5 -25 12 0 9 2
8 6 -1 2 -6 10 -9 15 -6z m333 4 c4 -6 -4 -9 -17 -7 -14 1 -22 -3 -21 -10 2
-7 -4 -10 -12 -7 -18 7 -47 -14 -39 -27 3 -5 -2 -6 -11 -3 -8 4 -22 0 -31 -7
-13 -11 -17 -10 -26 4 -5 10 -13 15 -18 12 -4 -3 -10 1 -13 9 -4 9 2 13 17 12
16 -1 22 -6 18 -15 -3 -7 -1 -12 4 -9 5 2 24 10 42 17 17 7 32 17 32 21 0 17
66 25 75 10z m886 -7 c13 -15 12 -15 -8 -4 -24 12 -29 21 -14 21 5 0 15 -7 22
-17z m-144 -6 c0 -7 -9 -13 -19 -13 -18 0 -18 1 -2 13 10 7 18 13 19 13 1 0 2
-6 2 -13z m-1512 -32 c33 -19 70 -39 82 -44 11 -6 24 -15 28 -20 10 -17 -14
-13 -32 5 -9 8 -22 13 -29 10 -8 -3 -14 -1 -14 4 0 4 -26 24 -57 44 -74 45
-57 46 22 1z m902 22 c0 -7 -9 -13 -19 -13 -18 0 -18 1 -2 13 10 7 18 13 19
13 1 0 2 -6 2 -13z m91 -1 c-2 -1 -12 -8 -23 -16 -18 -14 -19 -13 -8 1 7 9 10
19 6 23 -4 4 1 4 10 0 10 -3 17 -7 15 -8z m309 1 c0 -7 -9 -13 -19 -13 -18 0
-18 1 -2 13 10 7 18 13 19 13 1 0 2 -6 2 -13z m106 1 c-2 -5 -10 -8 -18 -8 -8
0 -16 3 -18 8 -3 4 5 7 18 7 13 0 21 -3 18 -7z m-928 -8 c-3 -5 -11 -10 -16
-10 -6 0 -7 5 -4 10 3 6 11 10 16 10 6 0 7 -4 4 -10z m749 -7 c3 -8 10 -11 16
-8 5 3 10 2 10 -3 0 -5 11 -15 25 -22 14 -7 23 -15 21 -17 -2 -3 -22 7 -44 21
-22 14 -42 23 -45 20 -2 -3 -7 1 -10 9 -3 7 1 14 9 14 7 0 16 -7 18 -14z m470
9 c2 -4 -4 -8 -14 -8 -10 0 -16 4 -14 8 3 4 9 8 14 8 5 0 11 -4 14 -8z m-237
-15 c0 -15 -32 -16 -44 -2 -5 4 -3 6 2 2 6 -3 17 -2 25 4 8 5 15 9 16 9 0 0 1
-6 1 -13z m88 3 c-3 -5 -10 -10 -16 -10 -5 0 -9 5 -9 10 0 6 7 10 16 10 8 0
12 -4 9 -10z m105 -11 c0 -14 -16 -11 -29 5 -10 12 -8 13 8 9 12 -3 21 -9 21
-14z m-1413 -4 c0 -8 -4 -12 -9 -9 -5 3 -6 10 -3 15 9 13 12 11 12 -6z m1113
-8 c0 -2 -8 -3 -18 -3 -10 0 -19 6 -19 13 0 8 6 9 19 2 10 -5 18 -11 18 -12z
m-170 -2 c0 -2 -6 -5 -13 -8 -8 -3 -14 1 -14 8 0 7 6 11 14 8 7 -3 13 -6 13
-8z m395 5 c4 -6 10 -8 15 -5 4 3 10 -2 13 -10 4 -10 1 -12 -11 -8 -22 9 -47
33 -33 33 5 0 13 -5 16 -10z m-1366 -26 c-15 -18 -26 -18 -26 0 0 8 6 12 15 8
11 -4 13 -1 7 8 -5 9 -4 11 4 6 9 -6 9 -11 0 -22z m1276 16 c3 -5 1 -10 -4
-10 -6 0 -11 5 -11 10 0 6 2 10 4 10 3 0 8 -4 11 -10z m209 -19 c-2 -3 -12 3
-22 13 -16 17 -16 18 5 5 12 -7 20 -15 17 -18z m-304 13 c0 -2 -9 -8 -20 -14
-15 -8 -18 -8 -14 3 4 11 34 21 34 11z m-545 -13 c3 -5 1 -12 -4 -15 -5 -3
-11 1 -15 9 -6 16 9 21 19 6z m188 -12 c-4 -15 -8 -17 -14 -8 -8 14 -3 29 11
29 4 0 6 -9 3 -21z m104 7 c0 -8 -6 -12 -15 -9 -11 5 -11 7 0 14 7 5 13 9 14
9 0 0 1 -6 1 -14z m103 -6 c0 -5 -2 -10 -4 -10 -3 0 -8 5 -11 10 -3 6 -1 10 4
10 6 0 11 -4 11 -10z m100 -12 c0 -6 -6 -5 -15 2 -8 7 -15 14 -15 16 0 2 7 1
15 -2 8 -4 15 -11 15 -16z m100 18 c0 -3 -4 -8 -10 -11 -5 -3 -10 -1 -10 4 0
6 5 11 10 11 6 0 10 -2 10 -4z m105 -6 c-3 -5 -12 -10 -18 -10 -7 0 -6 4 3 10
19 12 23 12 15 0z m100 0 c3 -5 2 -10 -4 -10 -5 0 -13 5 -16 10 -3 6 -2 10 4
10 5 0 13 -4 16 -10z m-751 -17 c7 -17 -8 -17 -23 0 -8 10 -7 14 4 14 8 0 16
-6 19 -14z m91 -4 c-10 -15 -25 -10 -19 6 4 8 10 12 15 9 5 -3 7 -10 4 -15z
m-355 6 c0 -2 -10 -9 -22 -15 -22 -11 -22 -10 -4 4 21 17 26 19 26 11z m666
-23 c-4 -3 -14 2 -24 12 -16 18 -16 18 6 6 13 -6 21 -14 18 -18z m400 0 c-4
-3 -14 2 -24 12 -16 18 -16 18 6 6 13 -6 21 -14 18 -18z m-306 14 c0 -3 -4 -8
-10 -11 -5 -3 -10 -1 -10 4 0 6 5 11 10 11 6 0 10 -2 10 -4z m-903 -28 c-3 -8
-6 -5 -6 6 -1 11 2 17 5 13 3 -3 4 -12 1 -19z m453 8 c-7 -7 -14 -6 -21 1 -9
9 -7 12 9 10 14 -1 18 -5 12 -11z m-365 -6 c-3 -5 -11 -10 -16 -10 -6 0 -7 5
-4 10 3 6 11 10 16 10 6 0 7 -4 4 -10z m455 0 c0 -5 -5 -10 -11 -10 -5 0 -7 5
-4 10 3 6 8 10 11 10 2 0 4 -4 4 -10z m410 -4 c0 -3 -4 -8 -10 -11 -5 -3 -10
-1 -10 4 0 6 5 11 10 11 6 0 10 -2 10 -4z"/>
<path d="M545 1871 c-7 -13 32 -34 47 -25 7 5 5 11 -7 21 -22 15 -32 16 -40 4z"/>
<path d="M980 870 c-13 -9 -13 -11 0 -20 8 -5 17 -10 20 -10 3 0 12 5 20 10
13 9 13 11 0 20 -8 5 -17 10 -20 10 -3 0 -12 -5 -20 -10z"/>
<path d="M0 1715 l0 -206 23 12 c12 6 47 27 78 45 62 37 78 42 59 19 -7 -8
-16 -15 -21 -15 -7 0 -126 -66 -139 -77 -2 -2 2 -13 9 -25 7 -11 8 -17 2 -13
-16 9 -15 -157 2 -174 9 -11 9 -13 0 -7 -9 5 -13 0 -13 -12 0 -13 19 -29 60
-51 64 -34 101 -33 59 1 l-24 20 32 -18 c28 -15 34 -16 50 -3 16 13 17 12 4
-3 -37 -48 73 -18 139 37 8 7 24 15 35 17 18 3 20 12 22 75 l1 71 -46 29
c-119 76 -141 86 -160 72 -15 -13 -16 -12 -3 4 13 16 12 19 -7 24 -12 3 -22 9
-22 14 0 12 17 12 25 0 3 -5 42 -30 88 -56 45 -25 90 -51 99 -57 21 -15 35 -3
19 16 -11 13 -92 63 -153 95 -17 9 -28 23 -29 35 0 12 0 69 1 128 1 103 0 107
-22 114 -13 3 -25 10 -28 14 -5 7 -128 80 -136 80 -2 0 -4 -92 -4 -205z m155
85 c3 -5 2 -10 -4 -10 -5 0 -13 5 -16 10 -3 6 -2 10 4 10 5 0 13 -4 16 -10z
m-24 -27 c13 -16 12 -17 -3 -4 -10 7 -18 15 -18 17 0 8 8 3 21 -13z m-26 -262
c-9 -8 -36 -10 -30 -2 2 4 11 8 20 8 8 0 13 -3 10 -6z m255 -201 c0 -4 -11
-12 -25 -18 -23 -11 -24 -10 -14 7 11 17 39 25 39 11z m-286 -63 c21 -18 20
-18 -11 -3 -24 12 -31 21 -26 33 5 14 8 14 11 2 2 -7 14 -22 26 -32z"/>
<path d="M1982 521 c-10 -6 -10 -10 3 -21 13 -11 15 -9 15 9 0 24 0 24 -18 12z"/>
</g>
</svg>
