<?xml version="1.0" standalone="no"?>
<!DOCTYPE svg PUBLIC "-//W3C//DTD SVG 20010904//EN"
 "http://www.w3.org/TR/2001/REC-SVG-20010904/DTD/svg10.dtd">
<svg version="1.0" xmlns="http://www.w3.org/2000/svg"
 width="200.000000pt" height="200.000000pt" viewBox="0 0 200.000000 200.000000"
 preserveAspectRatio="xMidYMid meet">
<metadata>
Created by potrace 1.16, written by Peter Selinger 2001-2019
</metadata>
<g transform="translate(0.000000,200.000000) scale(0.100000,-0.100000)"
fill="#000000" stroke="none">
<path d="M1 1000 l0 -1000 260 0 c248 0 263 1 299 21 l38 22 35 -22 c29 -18
50 -21 141 -21 80 0 106 3 106 13 0 12 102 77 121 77 16 0 119 -69 119 -80 0
-6 26 -10 60 -10 56 0 60 1 60 24 0 19 16 32 80 70 l80 46 80 -46 c65 -37 80
-50 80 -70 0 -19 5 -24 24 -24 21 0 25 6 28 33 3 28 12 38 88 84 47 28 91 52
99 52 7 1 53 -22 102 -49 83 -48 88 -53 92 -88 2 -23 4 -12 5 28 l2 65 -76 45
-76 45 0 70 c0 39 0 80 1 92 1 17 19 33 76 65 l75 43 0 140 0 140 -100 59
-100 58 0 118 0 118 100 58 100 59 0 127 0 127 -77 45 c-43 24 -84 49 -90 56
-9 7 -13 43 -13 108 l0 98 90 52 90 53 0 49 c0 49 -1 50 -30 50 -23 0 -30 -5
-30 -19 0 -13 -22 -32 -69 -59 l-69 -40 -63 37 c-35 20 -68 47 -74 59 -9 20
-17 22 -80 22 -56 0 -72 -4 -81 -17 -7 -10 -32 -29 -57 -43 l-46 -24 -43 23
c-24 13 -50 32 -60 42 -14 16 -31 19 -114 19 -86 0 -102 -3 -141 -25 l-43 -26
-43 25 -42 25 -457 1 -457 0 0 -1000z m1680 819 l70 -40 -3 -87 -3 -86 -65
-38 c-36 -21 -70 -38 -77 -38 -6 0 -43 18 -82 41 l-71 41 0 83 0 83 68 40 c37
22 73 41 80 41 8 1 45 -17 83 -40z m-424 -30 l54 -31 -3 -65 -3 -66 -52 -29
-53 -30 -55 32 -55 31 0 64 0 63 53 31 c28 17 54 31 56 31 2 0 28 -14 58 -31z
m-419 -39 c29 -18 33 -25 30 -58 -2 -31 -9 -40 -39 -56 l-36 -20 -31 23 c-25
18 -32 30 -32 57 0 28 6 38 33 54 39 24 35 24 75 0z m-424 -39 c3 -5 -2 -8
-11 -7 -9 0 -18 -5 -21 -13 -3 -10 1 -12 17 -8 11 3 19 1 15 -4 -15 -24 -51
-1 -40 26 6 16 32 20 40 6z m1479 -227 l77 -45 0 -88 c0 -101 2 -98 -103 -156
l-67 -37 -80 47 -80 47 0 96 0 97 73 42 c39 23 79 42 87 42 8 0 50 -20 93 -45z
m-427 -20 l65 -36 -3 -81 -3 -81 -55 -33 c-30 -18 -62 -33 -70 -33 -9 0 -41
16 -73 36 l-57 36 0 77 0 77 63 36 c34 21 64 37 65 38 2 0 33 -16 68 -36z
m-406 -39 c41 -26 41 -26 38 -81 -3 -55 -3 -55 -51 -82 l-49 -26 -46 26 c-47
26 -47 27 -50 85 l-2 58 47 27 c53 30 55 30 113 -7z m-422 -31 c31 -22 26 -70
-9 -96 -25 -19 -28 -19 -58 -4 -26 14 -31 22 -31 55 0 29 5 40 23 49 31 15 49
14 75 -4z m-420 -45 c3 -19 -24 -33 -33 -18 -4 5 -1 8 6 7 19 -5 22 20 2 26
-15 4 -15 5 2 3 11 -1 21 -9 23 -18z m1562 -349 l0 -106 -89 -51 -89 -51 -89
52 -88 52 0 104 0 104 88 52 89 52 89 -51 89 -51 0 -106z m-511 119 l71 -41 0
-78 0 -78 -69 -41 -69 -41 -71 41 -71 41 0 78 0 78 68 40 c37 22 68 41 69 41
1 1 33 -17 72 -40z m-428 -41 c40 -23 55 -51 46 -85 -3 -10 -5 -4 -6 14 -1 27
-8 37 -41 58 l-40 25 -40 -22 c-37 -21 -40 -26 -40 -68 0 -42 3 -46 40 -68
l41 -23 44 30 c25 17 45 26 45 22 0 -5 -20 -21 -45 -35 l-45 -27 -45 27 c-43
25 -45 28 -45 74 0 46 2 49 43 74 23 14 43 25 45 26 2 0 21 -10 43 -22z m-416
-78 c0 -26 -29 -40 -47 -22 -6 6 0 8 16 5 22 -5 26 -2 26 17 0 18 -4 21 -25
18 -13 -3 -22 -1 -19 4 3 5 16 8 27 6 16 -2 22 -10 22 -28z m1447 -230 l68
-41 0 -77 0 -78 -65 -37 c-35 -20 -70 -37 -77 -36 -24 1 -131 74 -134 90 -1 9
2 23 7 30 6 10 9 5 9 -16 0 -26 7 -34 63 -64 l62 -33 63 36 62 37 0 72 0 72
-63 37 -62 37 -60 -34 c-59 -32 -60 -34 -65 -82 -3 -26 -8 -43 -11 -38 -3 6
-4 28 -2 50 4 38 9 43 66 77 34 20 64 37 66 37 3 1 35 -17 73 -39z m-472 3 c0
-5 -23 -21 -50 -36 l-50 -28 0 -57 0 -57 50 -28 50 -28 50 27 50 27 0 58 0 58
-45 27 c-61 35 -57 42 5 8 l50 -27 0 -63 0 -62 -52 -33 -53 -32 -55 31 -55 30
-3 64 -2 63 52 32 c62 37 58 35 58 26z m-355 -54 c34 -20 36 -24 33 -67 -3
-40 -7 -49 -35 -65 -18 -10 -33 -16 -33 -13 0 3 14 13 31 21 27 15 30 20 27
58 -3 34 -8 44 -36 60 -32 19 -34 19 -68 1 -30 -17 -34 -23 -34 -61 0 -37 4
-44 29 -58 17 -8 33 -20 36 -26 4 -6 -10 0 -31 14 -35 21 -39 29 -42 69 -3 42
0 47 30 66 42 26 50 26 93 1z m-397 -67 c-4 -34 -51 -63 -70 -44 -11 11 -10
12 4 7 48 -18 81 51 34 73 -31 14 -53 -2 -59 -43 l-4 -30 -2 32 c-1 22 5 36
20 47 20 13 25 13 51 0 23 -12 29 -21 26 -42z m-445 11 c-7 -2 -13 -9 -13 -14
0 -6 5 -7 12 -3 7 4 8 3 4 -5 -9 -14 -26 -5 -26 15 0 8 8 14 18 13 10 0 12 -3
5 -6z m1466 -249 l61 -36 0 -73 0 -73 -62 -37 -63 -37 -50 27 c-81 45 -85 51
-85 119 0 34 4 66 8 72 7 11 112 73 124 74 4 0 34 -16 67 -36z m-429 -24 c21
-11 41 -24 45 -29 3 -6 -15 1 -40 15 l-45 25 -40 -22 c-39 -22 -40 -25 -40
-74 0 -49 1 -52 40 -74 l40 -22 40 22 c21 12 41 29 43 38 4 14 5 13 6 -1 1
-10 -17 -28 -44 -44 l-45 -26 -45 27 -46 26 3 57 c3 54 5 57 43 79 22 12 41
23 43 23 1 0 20 -9 42 -20z m-409 -37 c41 -25 41 -72 -1 -96 -29 -17 -31 -17
-60 0 -41 24 -43 75 -2 97 34 19 29 19 63 -1z m468 -58 c0 -5 -4 -3 -9 5 -5 8
-9 22 -9 30 0 16 17 -16 18 -35z m-883 11 c2 -14 1 -14 -3 0 -3 9 -11 13 -19
10 -9 -3 -12 -1 -9 5 10 15 30 5 31 -15z"/>
<path d="M1530 1812 l-65 -38 -3 -77 -3 -76 41 -26 c96 -61 97 -61 173 -18
l67 38 0 80 0 80 -66 38 c-36 20 -69 37 -73 37 -3 0 -35 -17 -71 -38z"/>
<path d="M1148 1780 l-48 -30 0 -58 0 -57 50 -27 50 -28 50 28 50 27 0 60 0
60 -50 28 c-28 15 -51 27 -53 27 -1 0 -23 -14 -49 -30z"/>
<path d="M768 1744 c-22 -12 -28 -22 -28 -49 0 -28 5 -37 30 -50 27 -14 33
-14 60 0 25 13 30 22 30 50 0 28 -5 37 -30 50 -34 18 -28 18 -62 -1z"/>
<path d="M1723 1479 l-73 -41 0 -91 0 -92 76 -42 76 -42 77 44 78 45 -1 87 -1
86 -70 43 c-38 24 -74 43 -80 43 -5 1 -43 -18 -82 -40z"/>
<path d="M1338 1454 l-58 -35 0 -72 0 -73 56 -32 c31 -18 59 -32 64 -32 5 0
33 14 64 32 l56 32 0 73 0 72 -61 36 c-33 19 -61 35 -62 34 -1 0 -28 -16 -59
-35z"/>
<path d="M953 1424 c-42 -25 -43 -28 -43 -78 0 -50 1 -52 43 -74 52 -27 49
-27 97 3 38 24 40 28 40 74 0 48 -1 50 -46 75 -26 14 -47 26 -48 26 0 -1 -20
-12 -43 -26z"/>
<path d="M568 1389 c-12 -6 -18 -22 -18 -43 0 -44 40 -65 76 -41 59 38 2 120
-58 84z"/>
<path d="M1508 1142 l-78 -47 0 -96 0 -95 83 -47 c46 -26 87 -47 91 -47 4 0
43 21 86 46 l80 46 0 98 0 98 -80 46 c-43 25 -85 46 -92 45 -7 0 -48 -22 -90
-47z"/>
<path d="M1138 1111 l-63 -37 0 -74 0 -74 64 -37 63 -37 62 37 61 38 3 74 2
74 -64 36 -65 37 -63 -37z"/>
<path d="M1537 404 l-58 -36 3 -65 2 -64 59 -35 59 -35 57 34 56 33 0 69 0 69
-55 33 c-30 18 -57 33 -60 33 -3 0 -31 -17 -63 -36z"/>
<path d="M773 348 c-32 -16 -31 -62 2 -84 23 -15 27 -15 50 0 32 21 33 59 3
80 -26 18 -25 18 -55 4z"/>
<path d="M967 1979 l31 -20 34 21 33 20 -65 0 -65 0 32 -21z"/>
<path d="M1300 1991 c0 -5 24 -21 53 -36 l52 -27 48 27 c26 15 47 31 47 36 0
5 -45 9 -100 9 -55 0 -100 -4 -100 -9z"/>
<path d="M1670 1985 c0 -14 111 -85 133 -85 23 1 122 67 125 83 3 15 -10 17
-127 17 -108 0 -131 -3 -131 -15z"/>
<path d="M1910 1836 l-75 -44 0 -95 c0 -53 3 -98 5 -100 3 -3 40 -25 83 -50
l77 -46 0 189 c0 105 -3 190 -7 190 -5 0 -42 -20 -83 -44z"/>
<path d="M1905 1167 l-90 -53 0 -114 0 -114 90 -53 90 -52 3 109 c1 61 1 159
0 220 l-3 109 -90 -52z"/>
<path d="M1928 432 l-68 -37 0 -90 0 -90 70 -38 70 -38 0 165 c0 91 -1 166 -2
166 -2 0 -33 -17 -70 -38z"/>
<path d="M1708 109 c-79 -45 -88 -54 -88 -80 l0 -29 181 0 180 0 -3 32 c-3 29
-12 37 -86 80 -46 26 -87 48 -90 48 -4 0 -46 -23 -94 -51z"/>
<path d="M1326 84 c-54 -32 -76 -50 -76 -64 0 -19 7 -20 151 -20 149 0 150 0
147 22 -2 15 -26 35 -75 64 l-72 42 -75 -44z"/>
<path d="M943 49 c-29 -17 -53 -35 -53 -40 0 -5 50 -9 110 -9 65 0 110 4 110
10 0 8 -97 70 -110 70 -3 0 -29 -14 -57 -31z"/>
<path d="M570 15 c-24 -14 -23 -14 25 -14 46 0 48 1 31 14 -24 18 -25 18 -56
0z"/>
</g>
</svg>
