<?xml version="1.0" standalone="no"?>
<!DOCTYPE svg PUBLIC "-//W3C//DTD SVG 20010904//EN"
 "http://www.w3.org/TR/2001/REC-SVG-20010904/DTD/svg10.dtd">
<svg version="1.0" xmlns="http://www.w3.org/2000/svg"
 width="200.000000pt" height="200.000000pt" viewBox="0 0 200.000000 200.000000"
 preserveAspectRatio="xMidYMid meet">
<metadata>
Created by potrace 1.16, written by Peter Selinger 2001-2019
</metadata>
<g transform="translate(0.000000,200.000000) scale(0.100000,-0.100000)"
fill="#000000" stroke="none">
<path d="M0 1950 c0 -45 4 -52 26 -49 4 0 10 -4 13 -9 3 -5 34 -26 69 -46 34
-20 62 -39 62 -41 0 -5 -32 6 -45 15 -5 5 -36 22 -68 39 l-58 31 2 -152 c0
-100 5 -158 12 -167 9 -12 9 -13 0 -7 -10 5 -13 -3 -13 -29 0 -34 1 -35 23
-25 l22 11 -22 -17 c-16 -11 -23 -26 -22 -48 0 -26 2 -28 9 -11 11 26 12 14
10 -107 -1 -84 1 -97 17 -106 16 -9 15 -11 -9 -17 l-28 -7 1 -604 0 -603 285
0 c233 0 284 2 275 13 -8 9 -7 13 4 13 8 0 16 -6 19 -14 4 -10 49 -13 213 -12
126 1 213 5 220 11 9 7 13 7 13 -1 0 -16 117 -15 124 2 5 9 7 9 12 0 7 -17 61
-17 68 0 5 9 7 9 12 0 3 -8 26 -13 60 -13 38 0 53 4 48 11 -4 8 -1 8 12 1 11
-6 143 -10 327 -10 l307 0 0 71 c0 52 -4 75 -17 89 -15 17 -15 18 -1 13 15 -6
17 8 17 129 0 114 -3 139 -17 153 -16 16 -16 16 1 10 14 -5 17 -1 17 30 0 30
-2 34 -15 23 -9 -7 -15 -8 -15 -2 0 5 7 12 15 16 13 4 15 38 14 216 0 191 -2
211 -17 205 -15 -5 -15 -4 0 12 14 15 16 53 17 255 1 230 0 238 -20 249 -11 6
-18 13 -15 16 3 3 12 0 21 -7 13 -11 15 -8 15 20 0 19 -8 42 -17 52 -15 17
-15 18 -1 13 15 -6 17 8 17 130 0 122 -2 136 -17 130 -14 -5 -14 -4 1 13 13
14 17 37 17 89 l0 70 -32 1 c-18 0 -27 -2 -21 -6 8 -5 5 -12 -10 -21 -20 -13
-21 -13 -9 2 7 8 9 17 5 20 -5 3 -73 5 -151 5 l-144 0 36 -22 c35 -21 35 -22
15 -34 -12 -8 -23 -11 -26 -8 -3 3 2 8 11 12 15 6 15 8 -4 21 -11 8 -25 11
-30 8 -6 -4 -9 -1 -8 7 2 10 -25 13 -129 15 -74 0 -133 -3 -133 -8 0 -5 -5 -9
-11 -9 -5 0 -7 5 -4 10 4 6 -12 10 -39 10 -31 0 -46 -4 -46 -13 0 -7 -9 -13
-21 -13 -19 0 -19 1 -3 13 16 12 14 13 -14 13 -26 0 -32 -4 -32 -21 0 -13 4
-18 13 -13 8 6 8 3 -1 -9 -8 -9 -11 -20 -8 -25 3 -5 -24 -24 -59 -42 -36 -18
-65 -37 -65 -41 0 -5 -3 -8 -7 -7 -5 1 -23 -6 -40 -15 -30 -16 -35 -16 -63 -2
-17 9 -35 13 -40 10 -6 -3 -10 0 -10 7 0 18 -77 61 -85 48 -11 -17 -23 -11
-18 9 3 13 -1 21 -14 24 -10 2 -3 4 14 3 18 0 33 -6 33 -11 0 -14 70 -51 89
-47 9 2 13 0 9 -4 -5 -4 5 -15 22 -25 l30 -19 62 38 c35 20 77 44 93 53 23 13
30 24 32 50 l2 34 -76 3 c-53 1 -79 -2 -85 -10 -6 -11 -8 -11 -8 0 0 9 -34 12
-141 11 -78 -1 -136 -5 -129 -9 8 -5 8 -9 -3 -13 -9 -3 -18 0 -21 8 -4 10 -38
14 -158 14 -100 0 -148 -3 -138 -9 10 -7 11 -10 3 -10 -19 0 -16 -37 5 -50 16
-11 16 -11 -1 -6 -10 3 -21 6 -23 6 -2 0 -4 16 -4 35 0 19 -3 35 -7 35 -16 -1
-43 -28 -43 -44 0 -9 -4 -16 -8 -16 -4 0 -8 12 -8 28 l1 27 -147 2 -148 2 0
-30 c0 -16 5 -29 13 -29 6 0 23 -9 37 -20 l25 -21 -30 13 c-36 15 -82 48 -66
48 6 0 11 9 11 20 0 13 -7 20 -20 20 -17 0 -20 -7 -20 -50z m645 30 c3 -5 1
-10 -4 -10 -6 0 -11 5 -11 10 0 6 2 10 4 10 3 0 8 -4 11 -10z m219 2 c2 -4 -4
-9 -15 -9 -11 -1 -17 2 -14 8 7 11 22 12 29 1z m73 -14 c-3 -8 -6 -5 -6 6 -1
11 2 17 5 13 3 -3 4 -12 1 -19z m229 10 c4 -7 3 -8 -5 -4 -6 4 -18 2 -26 -4
-9 -8 -15 -8 -15 -2 0 9 15 19 32 21 4 1 10 -4 14 -11z m378 -2 c-10 -8 -21
-12 -24 -10 -5 6 21 24 34 24 6 0 1 -6 -10 -14z m-759 -6 c3 -5 1 -10 -4 -10
-6 0 -11 5 -11 10 0 6 2 10 4 10 3 0 8 -4 11 -10z m29 -15 c-4 -8 -8 -15 -10
-15 -2 0 -4 7 -4 15 0 8 4 15 10 15 5 0 7 -7 4 -15z m103 2 c0 -7 -9 -13 -19
-13 -18 0 -18 1 -2 13 10 7 18 13 19 13 1 0 2 -6 2 -13z m388 -5 c-3 -3 -11 0
-18 7 -9 10 -8 11 6 5 10 -3 15 -9 12 -12z m600 0 c-3 -3 -11 0 -18 7 -9 10
-8 11 6 5 10 -3 15 -9 12 -12z m-1405 -2 c0 -5 -2 -10 -4 -10 -3 0 -8 5 -11
10 -3 6 -1 10 4 10 6 0 11 -4 11 -10z m200 0 c0 -5 -4 -10 -10 -10 -5 0 -10 5
-10 10 0 6 5 10 10 10 6 0 10 -4 10 -10z m410 6 c0 -2 -7 -7 -16 -10 -8 -3
-12 -2 -9 4 6 10 25 14 25 6z m25 -16 c3 -5 1 -10 -4 -10 -6 0 -11 5 -11 10 0
6 2 10 4 10 3 0 8 -4 11 -10z m-861 -11 c-3 -6 -1 -14 5 -18 7 -5 1 -12 -16
-20 -23 -10 -26 -10 -15 0 6 7 12 17 12 22 0 4 -6 5 -12 1 -9 -5 -9 -2 1 9 15
19 36 24 25 6z m478 -3 c7 4 8 2 4 -4 -4 -7 -1 -12 6 -12 10 0 9 -3 -2 -11
-10 -7 -11 -12 -4 -15 6 -3 20 -12 30 -20 10 -9 13 -12 5 -8 -7 3 -17 0 -22
-7 -7 -11 -9 -11 -9 3 0 9 -8 22 -17 27 -16 9 -16 12 -3 21 10 6 11 10 3 10
-7 0 -13 8 -12 18 0 10 3 12 6 4 2 -6 10 -9 15 -6z m842 -11 c-10 -8 -23 -14
-29 -14 -5 0 -1 6 9 14 11 8 24 15 30 15 5 0 1 -7 -10 -15z m-1170 -3 c2 -4
-4 -8 -15 -8 -10 0 -19 4 -19 8 0 4 6 8 14 8 8 0 17 -4 20 -8z m73 -14 c-3 -8
-6 -5 -6 6 -1 11 2 17 5 13 3 -3 4 -12 1 -19z m529 7 c-23 -18 -33 -19 -41 -5
-3 5 0 7 8 4 8 -3 18 -1 22 5 3 6 12 11 18 11 7 0 3 -7 -7 -15z m214 5 c0 -5
-4 -10 -10 -10 -5 0 -10 5 -10 10 0 6 5 10 10 10 6 0 10 -4 10 -10z m200 6 c0
-3 -4 -8 -10 -11 -5 -3 -10 -1 -10 4 0 6 5 11 10 11 6 0 10 -2 10 -4z m200 -6
c0 -5 -4 -10 -10 -10 -5 0 -10 5 -10 10 0 6 5 10 10 10 6 0 10 -4 10 -10z
m152 -26 c-9 -7 -19 -10 -22 -8 -2 3 2 9 10 14 10 7 11 10 3 10 -7 0 -13 5
-13 10 0 6 8 5 19 -2 18 -11 18 -13 3 -24z m48 32 c0 -3 -4 -8 -10 -11 -5 -3
-10 -1 -10 4 0 6 5 11 10 11 6 0 10 -2 10 -4z m150 -1 c0 -6 -56 -35 -67 -35
-9 0 48 38 60 39 4 1 7 -1 7 -4z m-1610 -21 c0 -2 -7 -4 -15 -4 -8 0 -15 4
-15 10 0 5 7 7 15 4 8 -4 15 -8 15 -10z m1030 1 c0 -2 -6 -5 -13 -8 -8 -3 -14
1 -14 8 0 7 6 11 14 8 7 -3 13 -6 13 -8z m-1205 -40 c11 -9 2 -7 -20 6 -22 12
-44 26 -50 32 -16 15 48 -20 70 -38z m395 41 c0 -3 -4 -8 -10 -11 -5 -3 -10
-1 -10 4 0 6 5 11 10 11 6 0 10 -2 10 -4z m675 -6 c3 -5 -1 -10 -9 -10 -9 0
-16 5 -16 10 0 6 4 10 9 10 6 0 13 -4 16 -10z m275 5 c0 -2 -10 -9 -22 -15
-22 -11 -22 -10 -4 4 21 17 26 19 26 11z m-1216 -20 c-4 -8 -8 -15 -10 -15 -2
0 -4 7 -4 15 0 8 4 15 10 15 5 0 7 -7 4 -15z m701 5 c3 -5 1 -10 -4 -10 -6 0
-11 5 -11 10 0 6 2 10 4 10 3 0 8 -4 11 -10z m400 0 c3 -5 1 -10 -4 -10 -6 0
-11 5 -11 10 0 6 2 10 4 10 3 0 8 -4 11 -10z m400 1 c3 -5 2 -12 -3 -15 -5 -3
-9 1 -9 9 0 17 3 19 12 6z m-1405 -17 c0 -8 -5 -12 -10 -9 -6 4 -8 11 -5 16 9
14 15 11 15 -7z m215 7 c3 -5 1 -12 -5 -16 -5 -3 -10 1 -10 9 0 18 6 21 15 7z
m-80 -11 c3 -6 -1 -7 -9 -4 -18 7 -21 14 -7 14 6 0 13 -4 16 -10z m775 -5 c-7
-9 -15 -13 -19 -10 -3 3 1 10 9 15 21 14 24 12 10 -5z m140 -7 c0 -6 -6 -5
-15 2 -8 7 -15 14 -15 16 0 2 7 1 15 -2 8 -4 15 -11 15 -16z m-287 -7 c-4 -3
-11 -10 -15 -15 -5 -5 -8 0 -8 12 0 15 4 20 16 15 9 -3 12 -9 7 -12z m570 3
c9 -4 17 -10 17 -15 0 -14 -13 -10 -40 12 -14 11 -18 18 -10 15 8 -3 23 -9 33
-12z m-1478 -4 c3 -5 2 -10 -4 -10 -5 0 -13 5 -16 10 -3 6 -2 10 4 10 5 0 13
-4 16 -10z m1325 5 c0 -2 -10 -10 -22 -16 -21 -11 -22 -11 -9 4 13 16 31 23
31 12z m-1370 -26 c0 -15 -5 -19 -15 -15 -8 3 -15 1 -15 -4 0 -6 -5 -10 -11
-10 -8 0 -8 5 1 15 7 8 16 12 21 9 5 -3 9 2 9 10 0 9 2 16 5 16 3 0 5 -9 5
-21z m93 1 c3 -11 1 -20 -4 -20 -5 0 -9 9 -9 20 0 11 2 20 4 20 2 0 6 -9 9
-20z m97 10 c0 -5 -5 -10 -11 -10 -5 0 -7 5 -4 10 3 6 8 10 11 10 2 0 4 -4 4
-10z m220 2 c0 -5 -7 -9 -15 -9 -8 0 -12 4 -9 9 3 4 9 8 15 8 5 0 9 -4 9 -8z
m725 -2 c3 -6 -1 -7 -9 -4 -18 7 -21 14 -7 14 6 0 13 -4 16 -10z m72 -4 c0 -8
-6 -12 -15 -9 -11 5 -11 7 0 14 7 5 13 9 14 9 0 0 1 -6 1 -14z m186 -11 c-7
-21 -13 -19 -13 6 0 11 4 18 10 14 5 -3 7 -12 3 -20z m197 6 c-13 -11 -29 -17
-34 -14 -5 3 4 12 20 19 40 17 43 16 14 -5z m-1147 -12 c5 -3 2 -9 -7 -12 -12
-5 -16 0 -16 15 0 12 3 17 8 12 4 -5 11 -12 15 -15z m-79 -4 c-4 -8 -1 -22 6
-30 8 -10 9 -15 1 -15 -7 0 -10 -31 -10 -90 l0 -89 65 -36 64 -36 27 20 c14
12 33 21 42 21 9 0 3 -7 -14 -16 -49 -25 -50 -32 -12 -50 20 -10 34 -21 31
-26 -3 -5 0 -16 8 -25 7 -10 8 -14 1 -10 -8 5 -11 -17 -11 -86 1 -52 -2 -99
-5 -104 -4 -6 -39 -30 -79 -53 -40 -24 -75 -46 -78 -50 -9 -13 -48 -21 -54
-12 -3 5 1 9 8 9 7 0 54 23 104 53 l92 52 -1 119 0 118 -35 13 c-19 6 -34 15
-34 19 0 11 -58 31 -69 24 -6 -3 -9 0 -6 7 3 8 -7 18 -24 26 -26 11 -33 11
-55 -4 -14 -9 -23 -20 -20 -25 3 -5 -2 -6 -10 -3 -8 3 -33 -6 -56 -21 -36 -23
-40 -28 -28 -43 12 -15 11 -16 -4 -3 -10 7 -25 11 -33 7 -8 -3 -15 -1 -15 3 0
5 7 12 16 15 14 5 14 9 3 23 -13 15 -12 15 6 4 17 -11 26 -10 58 9 20 12 37
29 38 38 0 11 3 12 6 5 3 -10 11 -9 33 2 28 15 29 16 29 102 0 58 -4 90 -12
95 -9 6 -9 8 1 8 6 0 12 8 12 18 0 10 3 22 7 25 10 11 13 8 7 -8z m726 5 c0
-5 -5 -10 -11 -10 -5 0 -7 5 -4 10 3 6 8 10 11 10 2 0 4 -4 4 -10z m-795 -10
c3 -5 2 -10 -4 -10 -5 0 -13 5 -16 10 -3 6 -2 10 4 10 5 0 13 -4 16 -10z
m1345 0 c0 -5 -2 -10 -4 -10 -3 0 -8 5 -11 10 -3 6 -1 10 4 10 6 0 11 -4 11
-10z m-1840 -10 c0 -5 -2 -10 -4 -10 -3 0 -8 5 -11 10 -3 6 -1 10 4 10 6 0 11
-4 11 -10z m895 -18 c-8 -8 -25 10 -19 20 4 6 9 5 15 -3 4 -7 6 -15 4 -17z
m165 13 c0 -2 -7 -5 -15 -9 -9 -3 -15 0 -15 9 0 9 6 12 15 9 8 -4 15 -7 15 -9z
m200 5 c0 -5 -4 -10 -10 -10 -5 0 -10 5 -10 10 0 6 5 10 10 10 6 0 10 -4 10
-10z m110 -10 c0 -5 -5 -10 -11 -10 -5 0 -7 5 -4 10 3 6 8 10 11 10 2 0 4 -4
4 -10z m84 -4 c-10 -8 -21 -12 -24 -10 -5 6 21 24 34 24 6 0 1 -6 -10 -14z
m422 2 c4 -7 3 -8 -5 -4 -6 4 -18 2 -26 -4 -9 -8 -15 -8 -15 -2 0 9 15 19 32
21 4 1 10 -4 14 -11z m-899 -4 c-3 -3 -12 -4 -19 -1 -8 3 -5 6 6 6 11 1 17 -2
13 -5z m353 -31 c0 -2 -5 -1 -10 2 -6 4 -17 1 -25 -5 -11 -9 -15 -9 -15 -1 0
6 6 11 13 12 10 0 10 2 0 6 -7 2 -13 9 -13 14 0 5 11 2 25 -7 14 -9 25 -18 25
-21z m400 0 c0 -2 -5 -1 -10 2 -6 4 -19 1 -28 -7 -15 -12 -16 -11 -3 5 9 11
10 17 2 17 -6 0 -11 5 -11 10 0 6 11 3 25 -6 14 -9 25 -18 25 -21z m-991 14
c8 -10 7 -14 -4 -14 -8 0 -16 6 -19 14 -3 7 -2 13 3 13 5 0 14 -6 20 -13z
m442 -10 c-10 -9 -11 -8 -5 6 3 10 9 15 12 12 3 -3 0 -11 -7 -18z m239 9 c0
-2 -7 -7 -16 -10 -8 -3 -12 -2 -9 4 6 10 25 14 25 6z m416 -11 c10 -8 14 -15
7 -15 -6 0 -15 5 -18 11 -4 6 -14 8 -22 5 -8 -3 -11 -1 -8 4 8 14 18 13 41 -5z
m-1709 -11 c10 4 14 4 10 0 -4 -4 -2 -13 4 -21 14 -16 -3 -17 -19 -1 -9 9 -15
8 -27 -8 -8 -10 -15 -14 -15 -8 0 5 5 15 12 22 9 9 9 12 0 12 -7 0 -12 5 -12
11 0 8 5 8 15 -1 8 -7 23 -9 32 -6z m48 6 c3 -5 2 -10 -4 -10 -5 0 -13 5 -16
10 -3 6 -2 10 4 10 5 0 13 -4 16 -10z m460 0 c3 -5 2 -10 -4 -10 -5 0 -13 5
-16 10 -3 6 -2 10 4 10 5 0 13 -4 16 -10z m265 6 c0 -3 -4 -8 -10 -11 -5 -3
-10 -1 -10 4 0 6 5 11 10 11 6 0 10 -2 10 -4z m71 -9 c-7 -7 -14 -8 -21 -1 -6
6 -2 10 12 11 16 2 18 -1 9 -10z m69 -2 c0 -8 -2 -15 -4 -15 -2 0 -6 7 -10 15
-3 8 -1 15 4 15 6 0 10 -7 10 -15z m104 9 c9 -3 16 -10 16 -16 0 -5 -4 -7 -9
-4 -5 4 -11 1 -13 -6 -3 -7 -7 -2 -10 10 -7 24 -6 25 16 16z m301 -4 c3 -5 1
-10 -4 -10 -6 0 -11 5 -11 10 0 6 2 10 4 10 3 0 8 -4 11 -10z m107 -26 c-9 -7
-19 -10 -22 -8 -2 3 2 9 10 14 10 7 11 10 3 10 -7 0 -13 5 -13 10 0 6 8 5 19
-2 18 -11 18 -13 3 -24z m393 26 c3 -5 2 -10 -4 -10 -5 0 -13 5 -16 10 -3 6
-2 10 4 10 5 0 13 -4 16 -10z m-1735 -21 c0 -5 -4 -9 -10 -9 -5 0 -10 7 -10
16 0 8 5 12 10 9 6 -3 10 -10 10 -16z m277 -16 c-3 -10 -5 -4 -5 12 0 17 2 24
5 18 2 -7 2 -21 0 -30z m-32 9 c-3 -3 -11 0 -18 7 -9 10 -8 11 6 5 10 -3 15
-9 12 -12z m228 1 c3 -5 -5 -8 -18 -8 -13 0 -21 3 -18 8 2 4 10 7 18 7 8 0 16
-3 18 -7z m519 -7 c15 -11 14 -14 -12 -29 -28 -17 -60 -14 -60 5 0 6 6 6 14
-1 11 -9 19 -9 34 0 19 12 19 14 4 26 -9 7 -12 12 -7 12 6 0 18 -5 27 -13z
m400 -22 c-9 -7 -19 -10 -22 -8 -2 3 2 9 10 14 10 7 11 10 3 10 -7 0 -13 5
-13 10 0 6 8 5 19 -2 18 -11 18 -13 3 -24z m-767 16 c3 -6 -1 -7 -9 -4 -18 7
-21 14 -7 14 6 0 13 -4 16 -10z m275 6 c0 -2 -7 -7 -16 -10 -8 -3 -12 -2 -9 4
6 10 25 14 25 6z m410 -11 c0 -2 -6 -5 -13 -8 -8 -3 -14 1 -14 8 0 7 6 11 14
8 7 -3 13 -6 13 -8z m400 0 c0 -2 -6 -5 -13 -8 -8 -3 -14 1 -14 8 0 7 6 11 14
8 7 -3 13 -6 13 -8z m-1133 -17 c-3 -8 -6 -5 -6 6 -1 11 2 17 5 13 3 -3 4 -12
1 -19z m-387 7 c0 -2 -10 -10 -22 -16 -21 -11 -22 -11 -9 4 13 16 31 23 31 12z
m346 -10 c16 -8 22 -15 13 -15 -8 0 -24 7 -35 15 -25 19 -14 19 22 0z m806
-22 c-9 -7 -21 -12 -27 -12 -5 0 -1 6 9 14 11 8 14 15 8 15 -7 0 -12 5 -12 10
0 6 8 5 19 -2 18 -11 18 -13 3 -25z m-1257 17 c3 -5 1 -10 -4 -10 -6 0 -11 5
-11 10 0 6 2 10 4 10 3 0 8 -4 11 -10z m675 -4 c0 -2 -7 -7 -16 -10 -8 -3 -12
-2 -9 4 6 10 25 14 25 6z m400 -4 c0 -5 -7 -9 -15 -9 -8 0 -12 4 -9 9 3 4 9 8
15 8 5 0 9 -4 9 -8z m-1030 -16 c-7 -7 -13 -7 -20 0 -6 6 -3 10 10 10 13 0 16
-4 10 -10z m675 4 c-3 -5 -14 -10 -23 -9 -14 0 -13 2 3 9 27 11 27 11 20 0z
m125 0 c0 -5 -5 -10 -11 -10 -5 0 -7 5 -4 10 3 6 8 10 11 10 2 0 4 -4 4 -10z
m55 1 c3 -5 1 -12 -5 -16 -5 -3 -10 1 -10 9 0 18 6 21 15 7z m107 -27 c-9 -7
-19 -10 -22 -8 -2 3 2 9 10 14 10 7 11 10 3 10 -7 0 -13 5 -13 10 0 6 8 5 19
-2 18 -11 18 -13 3 -24z m134 21 c-23 -18 -33 -19 -41 -5 -3 5 0 7 8 4 8 -3
18 -1 22 5 3 6 12 11 18 11 7 0 3 -7 -7 -15z m159 5 c3 -5 1 -10 -4 -10 -6 0
-11 5 -11 10 0 6 2 10 4 10 3 0 8 -4 11 -10z m107 -26 c-9 -7 -19 -10 -22 -7
-3 3 1 8 8 10 10 4 10 8 0 21 -12 14 -11 14 9 2 20 -13 20 -15 5 -26z m148 32
c0 -3 -4 -8 -10 -11 -5 -3 -10 -1 -10 4 0 6 5 11 10 11 6 0 10 -2 10 -4z m100
0 c0 -3 -4 -8 -10 -11 -5 -3 -10 -1 -10 4 0 6 5 11 10 11 6 0 10 -2 10 -4z
m-1163 -38 c-3 -7 -5 -2 -5 12 0 14 2 19 5 13 2 -7 2 -19 0 -25z m122 13 c-13
-11 -26 -17 -28 -15 -5 5 30 33 43 34 4 0 -2 -9 -15 -19z m906 1 c-3 -3 -11 0
-18 7 -9 10 -8 11 6 5 10 -3 15 -9 12 -12z m-1645 -2 c0 -5 -2 -10 -4 -10 -3
0 -8 5 -11 10 -3 6 -1 10 4 10 6 0 11 -4 11 -10z m325 -11 c-10 -15 -25 -10
-19 6 4 8 10 12 15 9 5 -3 7 -10 4 -15z m-360 1 c-3 -5 -12 -10 -18 -10 -7 0
-6 4 3 10 19 12 23 12 15 0z m165 6 c0 -3 -4 -8 -10 -11 -5 -3 -10 -1 -10 4 0
6 5 11 10 11 6 0 10 -2 10 -4z m365 -12 c30 11 14 -3 -27 -23 -41 -21 -42 -21
-19 -1 13 11 18 20 12 20 -6 0 -11 5 -11 11 0 8 5 8 15 -1 8 -7 22 -10 30 -6z
m389 1 c11 -8 15 -15 10 -15 -6 0 -19 7 -30 15 -10 8 -14 14 -9 14 6 0 19 -6
29 -14z m412 -12 c-6 -6 -36 9 -36 18 0 5 9 4 20 -3 10 -7 18 -14 16 -15z
m406 13 c10 5 10 4 2 -5 -12 -13 -44 -5 -44 11 0 6 6 5 15 -2 8 -6 20 -8 27
-4z m-492 0 c0 -11 -19 -15 -25 -6 -3 5 1 10 9 10 9 0 16 -2 16 -4z m400 0 c0
-3 -4 -8 -10 -11 -5 -3 -10 -1 -10 4 0 6 5 11 10 11 6 0 10 -2 10 -4z m-1345
-34 c-3 -3 -11 0 -18 7 -9 10 -8 11 6 5 10 -3 15 -9 12 -12z m452 -4 c-3 -8
-6 -5 -6 6 -1 11 2 17 5 13 3 -3 4 -12 1 -19z m953 -14 c0 -19 -4 -33 -8 -30
-8 5 -4 66 4 66 2 0 4 -16 4 -36z m-1633 0 c0 -8 -4 -14 -9 -14 -5 0 -6 -5 -2
-11 4 -7 1 -10 -6 -7 -20 6 -19 44 0 45 9 1 17 -5 17 -13z m1133 -6 c0 -6 -6
-5 -15 2 -8 7 -15 14 -15 16 0 2 7 1 15 -2 8 -4 15 -11 15 -16z m67 8 c0 -8
-6 -12 -15 -9 -11 5 -11 7 0 14 7 5 13 9 14 9 0 0 1 -6 1 -14z m-1383 -7 c-3
-6 -1 -15 6 -19 8 -5 8 -9 -4 -13 -9 -4 -15 -3 -15 1 3 19 -2 23 -16 12 -13
-11 -14 -10 -9 3 3 9 13 18 22 20 10 3 18 5 20 6 2 0 0 -4 -4 -10z m916 7 c0
-3 -4 -8 -10 -11 -5 -3 -10 -1 -10 4 0 6 5 11 10 11 6 0 10 -2 10 -4z m60 -6
c0 -5 -2 -10 -4 -10 -3 0 -8 5 -11 10 -3 6 -1 10 4 10 6 0 11 -4 11 -10z m566
-18 c-4 -3 -14 2 -24 12 -16 18 -16 18 6 6 13 -6 21 -14 18 -18z m34 24 c0 -3
-4 -8 -10 -11 -5 -3 -10 -1 -10 4 0 6 5 11 10 11 6 0 10 -2 10 -4z m205 -6 c3
-6 -1 -7 -9 -4 -18 7 -21 14 -7 14 6 0 13 -4 16 -10z m-94 -13 c-6 -8 -8 -17
-4 -21 4 -4 -1 -4 -11 0 -18 7 -18 8 0 21 23 17 30 17 15 0z m-811 -12 c11
-13 10 -14 -4 -9 -9 3 -16 10 -16 15 0 13 6 11 20 -6z m140 4 c0 -4 -6 -9 -13
-12 -8 -3 -14 0 -14 7 0 7 6 13 14 13 7 0 13 -4 13 -8z m263 -3 c4 -10 1 -13
-8 -9 -8 3 -12 9 -9 14 7 12 11 11 17 -5z m137 5 c0 -5 -7 -12 -16 -15 -14 -5
-15 -4 -4 9 14 17 20 19 20 6z m-1314 -16 c9 -8 11 -15 5 -15 -5 0 -13 5 -16
10 -4 6 -11 8 -16 5 -5 -4 -9 -1 -9 4 0 16 19 13 36 -4z m228 7 c2 -4 -4 -8
-14 -8 -10 0 -16 4 -14 8 3 4 9 8 14 8 5 0 11 -4 14 -8z m1596 4 c0 -3 -4 -8
-10 -11 -5 -3 -10 -1 -10 4 0 6 5 11 10 11 6 0 10 -2 10 -4z m-1645 -18 c4 4
2 -3 -5 -15 -8 -13 -20 -19 -29 -15 -10 4 -11 7 -3 10 10 3 10 7 0 20 -11 13
-10 14 8 4 12 -6 25 -8 29 -4z m535 -13 c-7 -8 -18 -15 -24 -15 -6 0 -2 7 8
15 25 19 32 19 16 0z m512 -21 c-9 -7 -19 -10 -22 -8 -2 3 2 9 10 14 10 7 11
10 3 10 -7 0 -13 5 -13 10 0 6 8 5 19 -2 18 -11 18 -13 3 -24z m48 32 c0 -3
-4 -8 -10 -11 -5 -3 -10 -1 -10 4 0 6 5 11 10 11 6 0 10 -2 10 -4z m107 -10
c0 -8 -6 -12 -15 -9 -11 5 -11 7 0 14 7 5 13 9 14 9 0 0 1 -6 1 -14z m245 -22
c-9 -7 -19 -10 -22 -8 -2 3 2 9 10 14 10 7 11 10 3 10 -7 0 -13 5 -13 10 0 6
8 5 19 -2 18 -11 18 -13 3 -24z m58 32 c0 -2 -7 -7 -16 -10 -8 -3 -12 -2 -9 4
6 10 25 14 25 6z m97 -13 c0 -8 -6 -9 -19 -2 -10 5 -18 11 -18 12 0 2 8 3 18
3 10 0 19 -6 19 -13z m-1847 -3 c0 -5 -5 -10 -11 -10 -5 0 -7 5 -4 10 3 6 8
10 11 10 2 0 4 -4 4 -10z m505 0 c-3 -5 -12 -10 -18 -10 -7 0 -6 4 3 10 19 12
23 12 15 0z m540 0 c3 -6 -1 -7 -9 -4 -18 7 -21 14 -7 14 6 0 13 -4 16 -10z
m135 6 c0 -2 -7 -7 -16 -10 -8 -3 -12 -2 -9 4 6 10 25 14 25 6z m397 -18 c-3
-8 -6 -5 -6 6 -1 11 2 17 5 13 3 -3 4 -12 1 -19z m-1450 -10 c-3 -8 -6 -5 -6
6 -1 11 2 17 5 13 3 -3 4 -12 1 -19z m787 16 c9 -3 16 -11 16 -16 0 -6 -7 -5
-15 2 -12 10 -19 10 -27 2 -7 -7 -17 -12 -22 -12 -6 0 -2 7 8 15 23 17 20 17
40 9z m-949 -14 c-3 -5 -12 -10 -18 -10 -7 0 -6 4 3 10 19 12 23 12 15 0z
m565 0 c0 -5 -2 -10 -4 -10 -3 0 -8 5 -11 10 -3 6 -1 10 4 10 6 0 11 -4 11
-10z m210 6 c0 -3 -4 -8 -10 -11 -5 -3 -10 -1 -10 4 0 6 5 11 10 11 6 0 10 -2
10 -4z m340 -5 c0 -5 -7 -11 -14 -14 -10 -4 -13 -1 -9 9 6 15 23 19 23 5z m60
-1 c0 -5 -4 -10 -10 -10 -5 0 -10 5 -10 10 0 6 5 10 10 10 6 0 10 -4 10 -10z
m366 -17 c-6 -6 -36 9 -36 18 0 5 9 4 20 -3 10 -7 18 -14 16 -15z m34 17 c0
-5 -4 -10 -10 -10 -5 0 -10 5 -10 10 0 6 5 10 10 10 6 0 10 -4 10 -10z m195 0
c3 -5 1 -10 -4 -10 -6 0 -11 5 -11 10 0 6 2 10 4 10 3 0 8 -4 11 -10z m-1558
-14 c0 -8 -6 -12 -15 -9 -11 5 -11 7 0 14 7 5 13 9 14 9 0 0 1 -6 1 -14z m278
4 c-3 -5 -11 -10 -16 -10 -6 0 -7 5 -4 10 3 6 11 10 16 10 6 0 7 -4 4 -10z
m180 1 c3 -5 1 -12 -5 -16 -5 -3 -10 1 -10 9 0 18 6 21 15 7z m398 -6 c4 -8 2
-17 -3 -20 -6 -4 -10 3 -10 14 0 25 6 27 13 6z m-1053 -5 c0 -5 -5 -10 -11
-10 -5 0 -7 5 -4 10 3 6 8 10 11 10 2 0 4 -4 4 -10z m160 -4 c0 -3 -4 -8 -10
-11 -5 -3 -10 -1 -10 4 0 6 5 11 10 11 6 0 10 -2 10 -4z m1054 -11 c11 -8 15
-15 10 -15 -6 0 -19 7 -30 15 -10 8 -14 14 -9 14 6 0 19 -6 29 -14z m246 11
c0 -3 -4 -8 -10 -11 -5 -3 -10 -1 -10 4 0 6 5 11 10 11 6 0 10 -2 10 -4z m166
-23 c-6 -6 -36 9 -36 18 0 5 9 4 20 -3 10 -7 18 -14 16 -15z m-1006 7 c0 -5
-4 -10 -10 -10 -5 0 -10 5 -10 10 0 6 5 10 10 10 6 0 10 -4 10 -10z m805 -8
c-3 -3 -11 0 -18 7 -9 10 -8 11 6 5 10 -3 15 -9 12 -12z m-1116 -12 c-24 -19
-18 -26 21 -20 11 1 12 -2 5 -9 -8 -8 -20 -7 -43 1 -39 15 -40 21 -4 35 41 17
47 15 21 -7z m526 10 c3 -6 -1 -7 -9 -4 -18 7 -21 14 -7 14 6 0 13 -4 16 -10z
m290 0 c-3 -5 -11 -10 -16 -10 -6 0 -7 5 -4 10 3 6 11 10 16 10 6 0 7 -4 4
-10z m705 6 c0 -2 -7 -7 -16 -10 -8 -3 -12 -2 -9 4 6 10 25 14 25 6z m-1148
-20 c10 5 10 4 2 -5 -12 -13 -44 -5 -44 11 0 6 6 5 15 -2 8 -6 20 -8 27 -4z
m109 0 c-9 -11 -9 -15 1 -19 7 -2 11 -7 8 -10 -3 -3 -16 3 -30 14 -14 11 -18
17 -9 13 10 -3 20 -1 24 5 3 6 9 11 12 11 3 0 0 -6 -6 -14z m291 0 c10 5 10 4
2 -5 -12 -13 -44 -5 -44 11 0 6 6 5 15 -2 8 -6 20 -8 27 -4z m118 5 c0 -15
-32 -23 -44 -11 -8 8 -6 9 5 5 10 -4 20 -2 24 4 8 13 15 14 15 2z m262 -27
c-9 -7 -19 -10 -22 -7 -3 3 1 8 8 10 10 4 10 8 0 21 -12 14 -11 14 9 2 20 -13
20 -15 5 -26z m438 1 c0 -3 -7 -2 -15 1 -8 4 -22 1 -30 -6 -9 -7 -18 -10 -22
-7 -3 4 2 9 11 13 13 5 14 10 5 20 -8 10 -3 10 20 -2 17 -9 31 -17 31 -19z
m-1517 11 c4 -10 0 -12 -14 -9 -22 6 -26 23 -5 23 8 0 16 -6 19 -14z m1197 -1
c0 -2 -6 -5 -13 -8 -8 -3 -14 1 -14 8 0 7 6 11 14 8 7 -3 13 -6 13 -8z m-1025
-5 c-3 -5 -11 -10 -16 -10 -6 0 -7 5 -4 10 3 6 11 10 16 10 6 0 7 -4 4 -10z
m95 -10 c0 -5 -5 -10 -11 -10 -5 0 -7 5 -4 10 3 6 8 10 11 10 2 0 4 -4 4 -10z
m264 -5 c11 -8 15 -15 10 -15 -6 0 -19 7 -30 15 -10 8 -14 14 -9 14 6 0 19 -6
29 -14z m46 11 c0 -3 -4 -8 -10 -11 -5 -3 -10 -1 -10 4 0 6 5 11 10 11 6 0 10
-2 10 -4z m90 -6 c0 -5 -5 -10 -11 -10 -5 0 -7 5 -4 10 3 6 8 10 11 10 2 0 4
-4 4 -10z m155 1 c3 -5 1 -12 -5 -16 -5 -3 -10 1 -10 9 0 18 6 21 15 7z m110
-24 c-8 -4 -16 -18 -16 -30 -1 -16 -3 -17 -6 -5 -3 10 -11 15 -21 12 -15 -5
-15 -4 1 6 9 6 17 20 17 31 0 17 3 18 20 7 16 -11 17 -14 5 -21z m45 29 c0 -3
-4 -8 -10 -11 -5 -3 -10 -1 -10 4 0 6 5 11 10 11 6 0 10 -2 10 -4z m245 -6 c3
-5 1 -10 -4 -10 -6 0 -11 5 -11 10 0 6 2 10 4 10 3 0 8 -4 11 -10z m127 -2 c7
7 17 12 22 12 15 0 -2 -13 -56 -45 -54 -30 -65 -28 -15 4 17 11 26 21 20 21
-7 0 -13 5 -13 11 0 8 5 7 15 -1 12 -10 19 -10 27 -2z m-1699 -15 c-3 -7 -9
-13 -14 -13 -5 0 -9 6 -9 13 0 8 6 14 14 14 8 0 12 -6 9 -14z m487 7 c0 -5 -2
-10 -4 -10 -3 0 -8 5 -11 10 -3 6 -1 10 4 10 6 0 11 -4 11 -10z m1010 0 c0 -5
-2 -10 -4 -10 -3 0 -8 5 -11 10 -3 6 -1 10 4 10 6 0 11 -4 11 -10z m-1375 -10
c3 -5 1 -10 -4 -10 -6 0 -11 5 -11 10 0 6 2 10 4 10 3 0 8 -4 11 -10z m395
-10 c0 -5 -2 -10 -4 -10 -3 0 -8 5 -11 10 -3 6 -1 10 4 10 6 0 11 -4 11 -10z
m346 -9 c0 -12 -6 -17 -18 -13 -18 4 -18 5 -1 18 10 7 18 14 18 14 1 0 1 -8 1
-19z m80 -8 c-6 -6 -36 9 -36 18 0 5 9 4 20 -3 10 -7 18 -14 16 -15z m389 -7
c-7 -6 -15 -20 -18 -31 -4 -15 -5 -13 -6 8 0 15 4 27 12 28 10 0 10 2 0 6 -7
2 -13 9 -13 14 0 5 9 4 19 -3 16 -10 17 -14 6 -22z m417 19 c7 4 2 -2 -12 -13
-14 -12 -27 -18 -30 -16 -2 3 2 9 10 14 10 7 11 10 3 10 -7 0 -13 5 -13 11 0
8 4 8 15 -1 8 -6 20 -9 27 -5z m-1592 1 c0 -2 -7 -7 -16 -10 -8 -3 -12 -2 -9
4 6 10 25 14 25 6z m280 -4 c0 -5 -7 -9 -15 -9 -8 0 -12 4 -9 9 3 4 9 8 15 8
5 0 9 -4 9 -8z m115 -2 c-3 -5 -12 -10 -18 -10 -7 0 -6 4 3 10 19 12 23 12 15
0z m-48 -27 c-14 -14 -19 -15 -29 -4 -11 10 -10 11 3 6 10 -4 20 -2 24 4 3 6
9 11 13 11 3 0 -1 -8 -11 -17z m1187 -12 c-2 -3 -12 3 -22 13 -16 17 -16 18 5
5 12 -7 20 -15 17 -18z m-1578 -6 c10 -8 15 -14 9 -14 -5 0 -19 6 -29 14 -11
8 -15 15 -10 15 6 0 19 -7 30 -15z m109 5 c3 -5 1 -10 -4 -10 -6 0 -11 5 -11
10 0 6 2 10 4 10 3 0 8 -4 11 -10z m55 -5 l-25 -14 25 -10 c14 -5 19 -10 12
-10 -7 -1 -21 4 -31 11 -18 11 -18 13 -3 25 9 7 24 12 32 12 9 0 4 -6 -10 -14z
m67 -10 c0 -17 -13 -20 -21 -6 -4 5 0 12 6 14 7 3 13 6 14 6 0 1 1 -6 1 -14z
m299 -12 c-6 -6 -36 9 -36 18 0 5 9 4 20 -3 10 -7 18 -14 16 -15z m120 7 c0
-13 -5 -19 -14 -15 -7 3 -16 5 -20 5 -3 0 3 7 14 15 10 8 19 15 19 15 1 0 1
-9 1 -20z m151 -12 c-3 -7 -5 -2 -5 12 0 14 2 19 5 13 2 -7 2 -19 0 -25z m143
17 c-7 -8 -17 -15 -23 -15 -6 0 -2 7 9 15 25 19 30 19 14 0z m100 0 c-14 -17
-30 -20 -30 -4 0 5 4 8 9 4 5 -3 12 -1 16 5 3 5 9 10 12 10 3 0 0 -7 -7 -15z
m407 -17 c-3 -7 -5 -2 -5 12 0 14 2 19 5 13 2 -7 2 -19 0 -25z m284 15 c2 1
-5 -5 -15 -15 -17 -14 -18 -19 -7 -32 12 -14 12 -16 -3 -10 -18 7 -22 44 -5
44 8 0 7 6 -2 17 -13 15 -12 15 7 5 12 -6 23 -10 25 -9z m-396 -3 c-3 -5 -12
-10 -18 -10 -7 0 -6 4 3 10 19 12 23 12 15 0z m90 0 c3 -5 1 -10 -4 -10 -6 0
-11 5 -11 10 0 6 2 10 4 10 3 0 8 -4 11 -10z m-1322 -24 c-6 -28 31 -56 50
-37 7 7 16 7 31 -1 15 -8 21 -8 24 1 2 6 8 11 14 11 7 0 7 -5 -1 -13 -6 -8 -7
-17 -3 -22 4 -4 -6 -1 -23 8 -26 13 -32 13 -54 -2 -18 -11 -23 -12 -17 -2 6 9
5 12 -5 9 -8 -3 -13 -13 -11 -23 2 -10 -1 -14 -7 -10 -15 9 -14 35 2 36 10 0
10 2 0 6 -14 5 -18 45 -6 56 10 11 11 9 6 -17z m1194 -18 c-3 -7 -5 -2 -5 12
0 14 2 19 5 13 2 -7 2 -19 0 -25z m-1422 12 c3 -5 -1 -10 -9 -10 -9 0 -16 5
-16 10 0 6 4 10 9 10 6 0 13 -4 16 -10z m205 -5 c0 -1 -9 -5 -19 -8 -13 -3
-18 -1 -14 9 4 10 33 10 33 -1z m200 6 c0 -5 -9 -11 -21 -14 -16 -4 -18 -3 -8
9 13 16 29 19 29 5z m200 -1 c0 -5 -4 -10 -10 -10 -5 0 -10 5 -10 10 0 6 5 10
10 10 6 0 10 -4 10 -10z m200 0 c0 -5 -2 -10 -4 -10 -3 0 -8 5 -11 10 -3 6 -1
10 4 10 6 0 11 -4 11 -10z m200 0 c0 -5 -4 -10 -10 -10 -5 0 -10 5 -10 10 0 6
5 10 10 10 6 0 10 -4 10 -10z m400 0 c0 -5 -4 -10 -10 -10 -5 0 -10 5 -10 10
0 6 5 10 10 10 6 0 10 -4 10 -10z m100 0 c0 -5 -2 -10 -4 -10 -3 0 -8 5 -11
10 -3 6 -1 10 4 10 6 0 11 -4 11 -10z m100 0 c0 -5 -5 -10 -11 -10 -5 0 -7 5
-4 10 3 6 8 10 11 10 2 0 4 -4 4 -10z m200 0 c0 -5 -4 -10 -10 -10 -5 0 -10 5
-10 10 0 6 5 10 10 10 6 0 10 -4 10 -10z m-1360 -32 c0 -6 -6 -5 -15 2 -8 7
-15 14 -15 16 0 2 7 1 15 -2 8 -4 15 -11 15 -16z m325 12 c-3 -5 -12 -10 -18
-10 -7 0 -6 4 3 10 19 12 23 12 15 0z m802 -12 c-3 -8 -6 -5 -6 6 -1 11 2 17
5 13 3 -3 4 -12 1 -19z m-650 -10 c-3 -8 -6 -5 -6 6 -1 11 2 17 5 13 3 -3 4
-12 1 -19z m607 -7 c-2 -3 -12 3 -22 13 -16 17 -16 18 5 5 12 -7 20 -15 17
-18z m-1394 15 c0 -3 -4 -8 -10 -11 -5 -3 -10 -1 -10 4 0 6 5 11 10 11 6 0 10
-2 10 -4z m950 -1 c0 -2 -10 -9 -22 -15 -22 -11 -22 -10 -4 4 21 17 26 19 26
11z m54 -10 c2 -6 -2 -12 -10 -12 -7 0 -15 6 -18 12 -2 6 2 12 10 12 7 0 15
-6 18 -12z m346 9 c0 -2 -9 -8 -20 -14 -15 -8 -18 -8 -14 3 4 11 34 21 34 11z
m-745 -14 c3 -6 -1 -7 -9 -4 -18 7 -21 14 -7 14 6 0 13 -4 16 -10z m295 -22
c0 -5 -4 -8 -10 -8 -5 0 -10 10 -10 23 0 18 2 19 10 7 5 -8 10 -18 10 -22z
m304 -8 c8 -11 4 -10 -16 3 -24 15 -28 15 -42 1 -14 -13 -16 -13 -16 -1 0 16
27 30 41 21 5 -3 9 1 10 8 0 9 2 8 6 -2 3 -8 11 -22 17 -30z m367 24 c17 -8
29 -18 26 -20 -3 -3 -20 4 -38 15 -40 25 -31 28 12 5z m-1601 -2 c0 -5 -7 -9
-15 -9 -8 0 -15 4 -15 9 0 4 7 8 15 8 8 0 15 -4 15 -8z m404 2 c9 -3 16 -11
16 -16 0 -6 -6 -5 -15 2 -12 10 -18 10 -32 -1 -16 -13 -17 -12 -4 4 15 19 14
19 35 11z m396 -4 c0 -5 -2 -10 -4 -10 -3 0 -8 5 -11 10 -3 6 -1 10 4 10 6 0
11 -4 11 -10z m-909 -23 c-8 -8 -14 -7 -23 2 -11 10 -9 11 6 5 15 -6 17 -4 11
6 -6 9 -4 11 4 5 9 -5 10 -10 2 -18z m329 14 c0 -5 -7 -12 -16 -15 -14 -5 -15
-4 -4 9 14 17 20 19 20 6z m110 -18 c10 9 11 9 8 -3 -3 -8 1 -19 9 -25 10 -8
6 -10 -16 -11 -20 -1 -28 3 -24 12 2 7 -9 20 -26 29 -17 8 -31 18 -31 21 0 3
15 -3 34 -14 26 -15 37 -17 46 -9z m740 17 c0 -5 -4 -10 -10 -10 -5 0 -10 5
-10 10 0 6 5 10 10 10 6 0 10 -4 10 -10z m260 0 c0 -5 -4 -10 -10 -10 -5 0
-10 5 -10 10 0 6 5 10 10 10 6 0 10 -4 10 -10z m140 0 c0 -5 -2 -10 -4 -10 -3
0 -8 5 -11 10 -3 6 -1 10 4 10 6 0 11 -4 11 -10z m260 0 c0 -5 -4 -10 -10 -10
-5 0 -10 5 -10 10 0 6 5 10 10 10 6 0 10 -4 10 -10z m-1699 -45 c5 4 9 4 9 1
0 -3 -9 -10 -19 -16 -16 -8 -19 -7 -16 8 2 9 4 26 6 37 1 14 3 11 6 -8 2 -15
9 -25 14 -22z m-91 20 c0 -2 -6 -5 -13 -8 -8 -3 -14 1 -14 8 0 7 6 11 14 8 7
-3 13 -6 13 -8z m640 -26 c-9 -4 -18 0 -21 10 -10 25 0 32 19 13 16 -15 16
-18 2 -23z m-525 21 c3 -6 -1 -7 -9 -4 -18 7 -21 14 -7 14 6 0 13 -4 16 -10z
m125 0 c0 -5 -7 -10 -15 -10 -8 0 -15 5 -15 10 0 6 7 10 15 10 8 0 15 -4 15
-10z m605 -39 c3 -6 -15 2 -40 15 -25 14 -45 28 -45 30 0 7 78 -35 85 -45z
m95 45 c0 -7 -72 -47 -77 -42 -3 2 12 14 34 25 42 22 43 23 43 17z m116 -23
c-6 -6 -36 9 -36 18 0 5 9 4 20 -3 10 -7 18 -14 16 -15z m34 23 c0 -3 -4 -8
-10 -11 -5 -3 -10 -1 -10 4 0 6 5 11 10 11 6 0 10 -2 10 -4z m95 -14 c-3 -3
-11 0 -18 7 -9 10 -8 11 6 5 10 -3 15 -9 12 -12z m155 12 c0 -2 -9 -8 -20 -14
-15 -8 -18 -8 -14 3 4 11 34 21 34 11z m98 -6 c8 -8 15 -8 27 2 8 7 18 11 21
8 3 -3 -11 -15 -31 -26 -19 -12 -35 -17 -35 -12 0 6 5 10 12 10 6 0 3 7 -8 15
-10 8 -14 15 -8 15 5 0 15 -5 22 -12z m147 -6 c-3 -3 -11 0 -18 7 -9 10 -8 11
6 5 10 -3 15 -9 12 -12z m155 12 c0 -2 -9 -8 -20 -14 -15 -8 -18 -8 -14 3 4
11 34 21 34 11z m-1823 -11 c-4 -3 -1 -13 6 -21 11 -13 9 -14 -10 -1 -16 9
-19 16 -10 21 15 9 23 10 14 1z m1346 -24 c6 6 16 11 21 11 6 0 1 -7 -12 -15
-19 -14 -24 -14 -47 1 -14 9 -25 19 -25 21 0 3 12 -2 26 -12 19 -12 29 -14 37
-6z m-578 1 c3 -5 1 -10 -4 -10 -6 0 -11 5 -11 10 0 6 2 10 4 10 3 0 8 -4 11
-10z m345 0 c0 -5 -5 -10 -11 -10 -5 0 -7 5 -4 10 3 6 8 10 11 10 2 0 4 -4 4
-10z m55 0 c3 -5 1 -10 -4 -10 -6 0 -11 5 -11 10 0 6 2 10 4 10 3 0 8 -4 11
-10z m550 0 c3 -5 -1 -10 -10 -10 -9 0 -13 5 -10 10 3 6 8 10 10 10 2 0 7 -4
10 -10z m55 0 c0 -5 -4 -10 -10 -10 -5 0 -10 5 -10 10 0 6 5 10 10 10 6 0 10
-4 10 -10z m150 6 c0 -3 -4 -8 -10 -11 -5 -3 -10 -1 -10 4 0 6 5 11 10 11 6 0
10 -2 10 -4z m-1777 -148 c9 -6 9 -8 0 -8 -7 0 -11 -16 -10 -42 0 -24 -2 -44
-6 -45 -4 -2 -7 -1 -7 2 0 113 5 216 7 165 2 -35 9 -68 16 -72z m65 123 c11
-7 11 -9 -1 -14 -9 -3 -18 1 -21 9 -6 16 2 18 22 5z m207 -1 c-3 -5 -12 -10
-18 -10 -7 0 -6 4 3 10 19 12 23 12 15 0z m455 6 c0 -3 -4 -8 -10 -11 -5 -3
-10 -1 -10 4 0 6 5 11 10 11 6 0 10 -2 10 -4z m140 -18 c0 -6 -6 -5 -15 2 -8
7 -15 14 -15 16 0 2 7 1 15 -2 8 -4 15 -11 15 -16z m260 7 c-7 -9 -15 -13 -19
-10 -3 3 1 10 9 15 21 14 24 12 10 -5z m-655 -9 c12 -11 10 -15 -12 -25 -23
-11 -25 -10 -14 3 7 8 10 20 6 26 -9 15 4 12 20 -4z m827 0 c10 5 10 4 2 -5
-12 -13 -44 -5 -44 11 0 6 6 5 15 -2 8 -6 20 -8 27 -4z m214 -1 c-11 -8 -24
-15 -30 -15 -5 0 -1 7 10 15 10 8 24 14 29 14 6 0 1 -6 -9 -14z m166 -21 c-9
-7 -19 -10 -22 -7 -3 3 1 8 8 10 10 4 10 8 0 21 -12 14 -11 14 9 2 20 -13 20
-15 5 -26z m-987 16 c3 -5 -1 -10 -9 -10 -9 0 -16 5 -16 10 0 6 4 10 9 10 6 0
13 -4 16 -10z m-475 -10 c0 -5 -5 -10 -11 -10 -5 0 -7 5 -4 10 3 6 8 10 11 10
2 0 4 -4 4 -10z m97 -12 c-3 -8 -6 -5 -6 6 -1 11 2 17 5 13 3 -3 4 -12 1 -19z
m883 12 c0 -5 -2 -10 -4 -10 -3 0 -8 5 -11 10 -3 6 -1 10 4 10 6 0 11 -4 11
-10z m400 0 c0 -5 -2 -10 -4 -10 -3 0 -8 5 -11 10 -3 6 -1 10 4 10 6 0 11 -4
11 -10z m-52 -26 c1 0 -10 -6 -25 -13 -24 -10 -26 -9 -11 2 14 11 15 16 5 27
-9 11 -8 11 8 0 11 -8 21 -15 23 -16z m-784 -6 c-3 -5 -12 -4 -20 3 -19 16
-18 18 6 12 11 -3 17 -9 14 -15z m-594 2 c0 -5 -4 -10 -10 -10 -5 0 -10 5 -10
10 0 6 5 10 10 10 6 0 10 -4 10 -10z m660 0 c0 -5 -2 -10 -4 -10 -3 0 -8 5
-11 10 -3 6 -1 10 4 10 6 0 11 -4 11 -10z m304 -4 c-10 -8 -21 -12 -24 -10 -5
6 21 24 34 24 6 0 1 -6 -10 -14z m260 -25 c-5 -6 -34 20 -34 30 0 5 8 1 18 -8
10 -10 17 -20 16 -22z m41 29 c-3 -5 -12 -10 -18 -10 -7 0 -6 4 3 10 19 12 23
12 15 0z m-835 -25 c0 -2 -7 -2 -15 1 -8 4 -15 1 -15 -5 0 -6 -5 -11 -11 -11
-8 0 -9 4 0 13 6 8 7 17 3 22 -4 4 3 2 16 -4 12 -6 22 -14 22 -16z m438 -24
c16 -13 16 -13 -1 -7 -10 3 -21 6 -23 6 -2 0 -3 12 -3 28 1 20 2 22 6 7 3 -11
12 -26 21 -34z m629 17 c-3 -7 -5 -2 -5 12 0 14 2 19 5 13 2 -7 2 -19 0 -25z
m-1267 18 c0 -2 -9 -6 -20 -9 -11 -3 -18 -1 -14 4 5 9 34 13 34 5z m-180 -16
c0 -5 -2 -10 -4 -10 -3 0 -8 5 -11 10 -3 6 -1 10 4 10 6 0 11 -4 11 -10z m397
-22 c-3 -8 -6 -5 -6 6 -1 11 2 17 5 13 3 -3 4 -12 1 -19z m833 1 c0 -14 -16
-11 -29 5 -10 12 -8 13 8 9 12 -3 21 -9 21 -14z m-980 -11 c0 -6 -6 -5 -15 2
-8 7 -15 14 -15 16 0 2 7 1 15 -2 8 -4 15 -11 15 -16z m880 12 c0 -5 -5 -10
-11 -10 -5 0 -7 5 -4 10 3 6 8 10 11 10 2 0 4 -4 4 -10z m400 0 c0 -5 -4 -10
-10 -10 -5 0 -10 5 -10 10 0 6 5 10 10 10 6 0 10 -4 10 -10z m-1825 -10 c3 -5
2 -10 -4 -10 -5 0 -13 5 -16 10 -3 6 -2 10 4 10 5 0 13 -4 16 -10z m740 0 c3
-6 -1 -7 -9 -4 -18 7 -21 14 -7 14 6 0 13 -4 16 -10z m275 0 c0 -5 -7 -7 -15
-4 -8 4 -15 8 -15 10 0 2 7 4 15 4 8 0 15 -4 15 -10z m456 -17 c-6 -6 -36 9
-36 18 0 5 9 4 20 -3 10 -7 18 -14 16 -15z m379 17 c3 -5 1 -10 -4 -10 -6 0
-11 5 -11 10 0 6 2 10 4 10 3 0 8 -4 11 -10z m-1480 -10 c-3 -5 -12 -10 -18
-10 -7 0 -6 4 3 10 19 12 23 12 15 0z m210 0 c-3 -5 -12 -10 -18 -10 -7 0 -6
4 3 10 19 12 23 12 15 0z m-465 -10 c0 -5 -2 -10 -4 -10 -3 0 -8 5 -11 10 -3
6 -1 10 4 10 6 0 11 -4 11 -10z m585 0 c-3 -5 -11 -10 -16 -10 -6 0 -7 5 -4
10 3 6 11 10 16 10 6 0 7 -4 4 -10z m375 3 c0 -1 -9 -7 -20 -13 -15 -8 -20 -8
-20 3 0 7 9 13 20 13 11 0 20 -1 20 -3z m-675 -12 c3 -5 1 -12 -5 -16 -5 -3
-10 1 -10 9 0 18 6 21 15 7z m145 -1 c0 -5 -5 -10 -11 -10 -5 0 -7 5 -4 10 3
6 8 10 11 10 2 0 4 -4 4 -10z m797 -27 c-3 -10 -5 -4 -5 12 0 17 2 24 5 18 2
-7 2 -21 0 -30z m253 27 c0 -5 -2 -10 -4 -10 -3 0 -8 5 -11 10 -3 6 -1 10 4
10 6 0 11 -4 11 -10z m-636 -47 c7 3 13 -1 13 -9 0 -7 -4 -11 -8 -8 -5 3 -19
0 -31 -7 -19 -9 -21 -9 -10 2 6 7 13 27 13 44 l2 30 4 -28 c3 -18 9 -27 17
-24z m-659 27 c-3 -5 -11 -10 -16 -10 -6 0 -7 5 -4 10 3 6 11 10 16 10 6 0 7
-4 4 -10z m348 -11 c-4 -15 -8 -17 -14 -8 -8 14 -3 29 11 29 4 0 6 -9 3 -21z
m182 3 c-3 -3 -11 0 -18 7 -9 10 -8 11 6 5 10 -3 15 -9 12 -12z m90 8 c-3 -5
-12 -10 -18 -10 -7 0 -6 4 3 10 19 12 23 12 15 0z m180 0 c3 -5 2 -10 -4 -10
-5 0 -13 5 -16 10 -3 6 -2 10 4 10 5 0 13 -4 16 -10z m529 2 c3 -5 -1 -9 -9
-9 -8 0 -15 4 -15 9 0 4 4 8 9 8 6 0 12 -4 15 -8z m96 4 c0 -2 -7 -7 -16 -10
-8 -3 -12 -2 -9 4 6 10 25 14 25 6z m-1246 -15 c17 -2 -2 -13 -26 -15 -14 -2
-25 2 -25 9 0 6 10 10 21 9 12 -1 25 -3 30 -3z m1293 -16 c1 0 -7 -6 -17 -13
-18 -11 -20 -9 -20 14 0 24 2 25 18 13 9 -7 18 -14 19 -14z m-497 5 c0 -5 -5
-10 -11 -10 -5 0 -7 5 -4 10 3 6 8 10 11 10 2 0 4 -4 4 -10z m400 0 c0 -5 -5
-10 -11 -10 -5 0 -7 5 -4 10 3 6 8 10 11 10 2 0 4 -4 4 -10z m-1427 -19 c-3
-12 -11 -17 -19 -14 -11 4 -12 9 -3 19 16 20 28 17 22 -5z m1097 0 c0 -5 -7
-12 -16 -15 -14 -5 -15 -4 -4 9 14 17 20 19 20 6z m255 -1 c3 -5 1 -10 -4 -10
-6 0 -11 5 -11 10 0 6 2 10 4 10 3 0 8 -4 11 -10z m-1205 -22 c0 -18 -2 -20
-9 -8 -6 8 -7 18 -5 22 9 14 14 9 14 -14z m154 13 c3 -5 0 -11 -7 -14 -8 -3
-14 1 -14 9 0 16 13 19 21 5z m546 -32 c0 -22 -4 -38 -8 -35 -5 3 -8 15 -6 28
1 13 3 29 3 36 1 6 3 12 6 12 3 0 5 -18 5 -41z m-200 18 c0 4 5 0 11 -9 5 -10
16 -18 23 -18 8 0 19 -7 26 -15 7 -8 21 -15 30 -15 10 0 20 -4 22 -9 2 -5 10
-11 18 -13 31 -6 43 -40 42 -110 -1 -47 2 -68 11 -68 9 0 9 -2 -1 -8 -7 -5
-11 -23 -9 -43 2 -26 -2 -37 -18 -45 -40 -22 -97 -55 -121 -71 l-25 -16 21
-19 c11 -10 25 -16 30 -13 6 3 10 2 10 -3 0 -5 -9 -12 -20 -15 -11 -3 -18 -2
-15 3 7 12 -33 43 -48 37 -12 -4 -14 -30 -13 -124 1 -117 1 -118 -24 -130 -14
-7 -32 -17 -40 -22 -8 -5 -43 -26 -77 -46 l-62 -36 -33 18 c-18 9 -36 16 -40
15 -5 -1 -8 2 -8 6 0 5 -18 18 -40 31 -37 21 -41 21 -65 5 -13 -9 -23 -20 -20
-24 3 -5 -4 -6 -15 -3 -22 6 -28 25 -7 22 20 -3 47 12 47 27 0 8 -4 14 -10 14
-5 0 -10 5 -10 11 0 8 6 7 17 -2 13 -11 17 -11 20 -1 7 18 21 15 19 -5 0 -11
14 -25 39 -38 22 -11 42 -23 45 -26 9 -11 49 -29 64 -29 11 0 16 9 16 31 0 16
4 28 9 25 5 -3 6 -16 3 -28 -5 -22 -5 -22 19 -7 13 9 50 31 82 49 50 28 58 36
55 59 -2 19 -9 26 -24 25 -11 0 -21 5 -21 11 0 6 10 11 21 11 19 -1 21 5 22
70 1 58 5 77 22 99 12 15 22 25 22 22 0 -4 23 7 50 23 28 17 55 30 60 30 6 0
10 4 10 9 0 5 8 11 18 13 16 5 19 17 20 80 1 70 0 75 -26 91 -15 9 -22 17 -15
17 6 0 15 -4 18 -10 13 -21 25 -9 25 25 0 19 -5 35 -11 35 -6 0 -17 7 -26 15
-8 8 -19 13 -24 10 -5 -4 -9 -2 -9 3 0 13 -56 35 -69 27 -6 -3 -9 0 -6 7 3 8
-7 19 -25 26 -26 12 -33 11 -57 -5 -16 -10 -45 -28 -67 -38 -21 -11 -41 -27
-43 -36 -3 -11 -12 -15 -24 -12 -11 3 -19 0 -19 -8 0 -7 -2 -10 -5 -7 -9 9 20
55 33 50 18 -6 83 38 75 51 -4 6 0 8 9 5 8 -4 28 2 44 11 20 13 34 16 47 9 9
-5 17 -5 17 -1z m305 3 c3 -5 1 -10 -4 -10 -6 0 -11 5 -11 10 0 6 2 10 4 10 3
0 8 -4 11 -10z m104 -6 c12 -11 -11 -15 -23 -5 -8 7 -21 9 -27 5 -8 -4 -9 -3
-5 5 7 10 42 7 55 -5z m394 3 c4 3 7 1 7 -5 0 -17 -16 -15 -31 6 -12 15 -12
16 2 5 9 -7 19 -10 22 -6z m-1525 -11 c-10 -7 -14 -17 -10 -21 4 -5 2 -5 -5
-1 -6 3 -14 2 -18 -4 -11 -18 -23 -11 -18 10 3 11 9 17 14 14 5 -3 17 0 26 5
25 15 31 13 11 -3z m1297 -7 c20 -12 34 -24 31 -27 -3 -3 -13 1 -21 8 -12 10
-19 10 -27 2 -7 -7 -17 -12 -22 -12 -6 0 -3 5 7 11 18 10 18 11 0 25 -28 21
-8 17 32 -7z m35 17 c0 -3 -4 -8 -10 -11 -5 -3 -10 -1 -10 4 0 6 5 11 10 11 6
0 10 -2 10 -4z m145 -6 c-3 -5 -10 -10 -16 -10 -5 0 -9 5 -9 10 0 6 7 10 16
10 8 0 12 -4 9 -10z m200 0 c3 -5 2 -10 -4 -10 -5 0 -13 5 -16 10 -3 6 -2 10
4 10 5 0 13 -4 16 -10z m-1839 -12 c4 -7 3 -8 -4 -4 -7 4 -12 2 -12 -4 0 -6
-5 -8 -10 -5 -11 7 -4 25 10 25 5 0 12 -5 16 -12z m284 2 c0 -5 -2 -10 -4 -10
-3 0 -8 5 -11 10 -3 6 -1 10 4 10 6 0 11 -4 11 -10z m220 0 c0 -5 -2 -10 -4
-10 -3 0 -8 5 -11 10 -3 6 -1 10 4 10 6 0 11 -4 11 -10z m543 -11 c5 -3 2 -9
-7 -12 -12 -5 -16 0 -16 15 0 12 3 17 8 12 4 -5 11 -12 15 -15z m177 17 c0 -3
-4 -8 -10 -11 -5 -3 -10 -1 -10 4 0 6 5 11 10 11 6 0 10 -2 10 -4z m-755 -16
c3 -6 -1 -7 -9 -4 -18 7 -21 14 -7 14 6 0 13 -4 16 -10z m875 -14 c0 -10 -30
0 -34 11 -4 11 -1 11 14 3 11 -6 20 -12 20 -14z m394 9 c2 -6 -2 -12 -10 -12
-7 0 -15 6 -18 12 -2 6 2 12 10 12 7 0 15 -6 18 -12z m-1344 1 c0 -2 -7 -7
-16 -10 -8 -3 -12 -2 -9 4 6 10 25 14 25 6z m145 -6 c3 -6 -1 -7 -9 -4 -18 7
-21 14 -7 14 6 0 13 -4 16 -10z m655 2 c0 -5 -7 -9 -15 -9 -8 0 -12 4 -9 9 3
4 9 8 15 8 5 0 9 -4 9 -8z m-1258 -9 c-6 -2 -9 -10 -6 -15 4 -7 2 -8 -5 -4
-13 9 -5 26 12 25 9 0 8 -2 -1 -6z m578 -8 c0 -2 -7 -5 -15 -9 -9 -3 -15 0
-15 9 0 9 6 12 15 9 8 -4 15 -7 15 -9z m130 5 c0 -5 -7 -10 -15 -10 -8 0 -15
5 -15 10 0 6 7 10 15 10 8 0 15 -4 15 -10z m-540 -26 c0 -2 -9 0 -20 6 -11 6
-20 13 -20 16 0 2 9 0 20 -6 11 -6 20 -13 20 -16z m247 7 c1 -11 -5 -22 -14
-25 -14 -6 -14 -4 -2 11 12 15 12 16 -5 10 -16 -6 -17 -5 -6 8 17 20 25 19 27
-4z m63 15 c0 -2 -9 -6 -20 -9 -11 -3 -18 -1 -14 4 5 9 34 13 34 5z m815 -14
c-3 -3 -11 0 -18 7 -9 10 -8 11 6 5 10 -3 15 -9 12 -12z m165 -3 c0 -14 -16
-11 -29 5 -10 12 -8 13 8 9 12 -3 21 -9 21 -14z m-1497 -16 c-24 -8 -26 -8
-29 9 -2 15 1 16 19 6 13 -7 17 -13 10 -15z m137 23 c0 -2 -9 -6 -20 -9 -11
-3 -18 -1 -14 4 5 9 34 13 34 5z m87 -18 c-3 -8 -6 -5 -6 6 -1 11 2 17 5 13 3
-3 4 -12 1 -19z m760 -15 c-3 -10 -5 -4 -5 12 0 17 2 24 5 18 2 -7 2 -21 0
-30z m658 27 c-3 -5 -10 -10 -16 -10 -5 0 -9 5 -9 10 0 6 7 10 16 10 8 0 12
-4 9 -10z m155 6 c0 -3 -4 -8 -10 -11 -5 -3 -10 -1 -10 4 0 6 5 11 10 11 6 0
10 -2 10 -4z m-1630 -16 c0 -5 -7 -10 -16 -10 -8 0 -12 5 -9 10 3 6 10 10 16
10 5 0 9 -4 9 -10z m170 -4 c0 -8 -7 -16 -15 -20 -15 -5 -21 14 -8 27 11 12
23 8 23 -7z m230 4 c0 -5 -5 -10 -11 -10 -5 0 -7 5 -4 10 3 6 8 10 11 10 2 0
4 -4 4 -10z m146 -1 c5 -8 9 -8 14 1 5 8 9 5 13 -9 4 -17 2 -19 -11 -11 -36
20 -47 30 -35 30 6 0 15 -5 19 -11z m514 0 c0 -5 -4 -8 -9 -4 -5 3 -12 1 -16
-5 -3 -5 -11 -10 -18 -10 -6 0 -2 7 9 15 23 17 34 19 34 4z m360 -12 l25 15
-25 -20 c-17 -14 -29 -18 -41 -12 -9 5 -19 7 -21 4 -3 -3 -8 2 -12 11 -5 14
-3 14 21 1 24 -12 31 -12 53 1z m-1205 -7 c-3 -5 -12 -10 -18 -10 -7 0 -6 4 3
10 19 12 23 12 15 0z m226 -7 c13 -15 12 -15 -8 -4 -24 12 -29 21 -14 21 5 0
15 -7 22 -17z m94 3 c12 -12 12 -15 -1 -20 -9 -3 -17 -6 -18 -6 -1 0 -2 9 -2
20 0 24 3 24 21 6z m625 4 c0 -5 -5 -10 -11 -10 -5 0 -7 5 -4 10 3 6 8 10 11
10 2 0 4 -4 4 -10z m410 0 c0 -5 -5 -10 -11 -10 -5 0 -7 5 -4 10 3 6 8 10 11
10 2 0 4 -4 4 -10z m-1673 -26 c15 5 14 3 -2 -9 -12 -10 -21 -12 -23 -5 -2 5
-10 10 -18 10 -23 0 -20 -128 4 -146 16 -13 16 -14 -2 -7 -16 5 -18 2 -14 -20
3 -15 1 -27 -3 -27 -5 0 -9 7 -9 15 0 8 -5 15 -11 15 -6 0 -7 5 -2 13 4 6 9
37 10 67 6 130 3 120 29 103 13 -8 32 -12 41 -9z m353 16 c0 -5 -4 -10 -10
-10 -5 0 -10 5 -10 10 0 6 5 10 10 10 6 0 10 -4 10 -10z m-185 -10 c3 -5 2
-10 -4 -10 -5 0 -13 5 -16 10 -3 6 -2 10 4 10 5 0 13 -4 16 -10z m65 -2 c0 -4
-4 -8 -9 -8 -6 0 -12 4 -15 8 -3 5 1 9 9 9 8 0 15 -4 15 -9z m935 2 c3 -5 2
-10 -4 -10 -5 0 -13 5 -16 10 -3 6 -2 10 4 10 5 0 13 -4 16 -10z m665 -5 c-14
-16 -6 -35 16 -35 8 0 14 -5 14 -11 0 -5 -5 -7 -10 -4 -6 4 -19 1 -28 -7 -15
-12 -16 -11 -3 5 9 11 10 17 2 17 -15 0 -14 37 2 43 19 8 20 8 7 -8z m-1517
-92 c-2 -123 -2 -121 -14 -101 -5 10 -17 15 -27 12 -9 -2 -7 1 6 7 18 10 22
21 22 56 0 34 -4 43 -17 44 -17 1 -17 2 0 6 12 3 17 15 17 39 0 19 3 34 8 34
4 0 6 -44 5 -97z m704 65 c-3 -7 -5 -2 -5 12 0 14 2 19 5 13 2 -7 2 -19 0 -25z
m-817 12 c0 -5 -2 -10 -4 -10 -3 0 -8 5 -11 10 -3 6 -1 10 4 10 6 0 11 -4 11
-10z m50 -90 c0 -55 -3 -100 -7 -100 -7 0 -7 56 -3 188 0 6 2 12 5 12 3 0 5
-45 5 -100z m150 90 c0 -5 -7 -10 -15 -10 -8 0 -15 5 -15 10 0 6 7 10 15 10 8
0 15 -4 15 -10z m200 0 c0 -5 -5 -10 -11 -10 -5 0 -7 5 -4 10 3 6 8 10 11 10
2 0 4 -4 4 -10z m200 0 c0 -5 -4 -10 -10 -10 -5 0 -10 5 -10 10 0 6 5 10 10
10 6 0 10 -4 10 -10z m200 0 c0 -5 -4 -10 -10 -10 -5 0 -10 5 -10 10 0 6 5 10
10 10 6 0 10 -4 10 -10z m195 0 c3 -5 1 -10 -4 -10 -6 0 -11 5 -11 10 0 6 2
10 4 10 3 0 8 -4 11 -10z m205 0 c0 -5 -4 -10 -10 -10 -5 0 -10 5 -10 10 0 6
5 10 10 10 6 0 10 -4 10 -10z m100 0 c0 -5 -5 -10 -11 -10 -5 0 -7 5 -4 10 3
6 8 10 11 10 2 0 4 -4 4 -10z m100 0 c0 -5 -4 -10 -10 -10 -5 0 -10 5 -10 10
0 6 5 10 10 10 6 0 10 -4 10 -10z m-973 -22 c-3 -8 -6 -5 -6 6 -1 11 2 17 5
13 3 -3 4 -12 1 -19z m940 -25 c-3 -10 -5 -2 -5 17 0 19 2 27 5 18 2 -10 2
-26 0 -35z m-1410 22 c0 -8 -4 -12 -9 -9 -5 3 -6 10 -3 15 9 13 12 11 12 -6z
m513 -5 c0 -13 -5 -18 -15 -14 -11 5 -12 9 -2 20 16 18 17 17 17 -6z m494 -19
c-2 -2 -11 2 -19 9 -13 11 -13 15 -3 21 8 5 15 2 19 -9 4 -9 5 -19 3 -21z
m282 23 c18 -14 18 -14 -6 -3 -31 14 -36 19 -24 19 6 0 19 -7 30 -16z m-699
-10 c0 -17 -11 -18 -25 -1 -8 10 -7 13 7 14 10 1 18 -5 18 -13z m178 7 c3 -5
2 -12 -3 -15 -5 -3 -9 1 -9 9 0 17 3 19 12 6z m345 -17 c0 -2 -9 0 -20 6 -11
6 -20 13 -20 16 0 2 9 0 20 -6 11 -6 20 -13 20 -16z m-730 12 c0 -3 -4 -8 -10
-11 -5 -3 -10 -1 -10 4 0 6 5 11 10 11 6 0 10 -2 10 -4z m90 -28 c0 -18 -2
-20 -9 -8 -6 8 -7 18 -5 22 9 14 14 9 14 -14z m70 12 c0 -5 -5 -10 -11 -10 -5
0 -7 5 -4 10 3 6 8 10 11 10 2 0 4 -4 4 -10z m-603 -6 c-3 -3 -12 -4 -19 -1
-8 3 -5 6 6 6 11 1 17 -2 13 -5z m1229 -15 c19 -11 34 -23 34 -25 0 -3 -4 -3
-10 1 -5 3 -18 0 -29 -7 -17 -11 -18 -13 -4 -23 9 -7 12 -14 7 -17 -5 -2 -20
6 -34 19 -16 16 -18 22 -7 17 25 -9 35 25 12 42 -29 22 -6 16 31 -7z m400 0
c19 -11 34 -23 34 -25 0 -3 -5 -2 -10 1 -6 4 -19 1 -28 -6 -14 -11 -15 -11 -5
1 10 11 8 17 -15 32 -38 25 -17 23 24 -3z m-1191 -10 c4 -6 14 -8 22 -5 8 3
12 2 9 -3 -3 -5 -15 -11 -27 -14 -11 -3 -18 -3 -15 0 3 4 1 12 -5 20 -8 9 -8
13 -1 13 6 0 14 -5 17 -11z m727 4 c-6 -2 -10 -8 -8 -12 3 -4 -4 -7 -15 -7
-19 0 -19 1 -3 13 10 7 23 13 28 12 6 0 5 -3 -2 -6z m420 -49 c-9 -7 -19 -10
-22 -8 -2 3 2 9 10 14 8 6 11 10 5 10 -5 0 -21 10 -35 21 -23 19 -22 19 17 -2
38 -20 41 -24 25 -35z m-832 39 c0 -1 -15 -10 -32 -18 -24 -11 -28 -12 -16 -2
10 8 15 17 12 20 -4 3 3 5 15 4 11 -1 21 -2 21 -4z m105 -3 c3 -5 0 -7 -8 -4
-8 3 -18 1 -22 -5 -3 -6 -12 -11 -18 -11 -7 0 -3 7 7 15 23 18 33 19 41 5z
m-547 -26 c1 -1 -5 -4 -15 -6 -13 -4 -19 0 -19 13 0 14 3 16 16 6 8 -6 16 -12
18 -13z m-218 6 c0 -5 -5 -10 -11 -10 -5 0 -7 5 -4 10 3 6 8 10 11 10 2 0 4
-4 4 -10z m1310 -10 c0 -5 -5 -10 -11 -10 -5 0 -7 5 -4 10 3 6 8 10 11 10 2 0
4 -4 4 -10z m75 1 c3 -5 1 -12 -5 -16 -5 -3 -10 1 -10 9 0 18 6 21 15 7z
m-1418 -23 c-3 -8 -6 -5 -6 6 -1 11 2 17 5 13 3 -3 4 -12 1 -19z m472 -12 c0
-14 -2 -16 -6 -6 -3 8 -10 21 -16 28 -7 9 -6 11 7 6 9 -3 16 -16 15 -28z m76
25 c3 -5 1 -12 -5 -16 -5 -3 -10 1 -10 9 0 18 6 21 15 7z m335 -12 c14 -11 19
-18 12 -14 -7 4 -19 1 -27 -5 -11 -9 -15 -9 -15 -1 0 6 5 11 12 11 6 0 3 7 -8
15 -10 8 -14 14 -9 14 6 1 21 -9 35 -20z m392 8 c15 -12 15 -14 -3 -25 -11 -7
-19 -8 -19 -2 0 5 5 10 12 10 6 0 3 7 -8 15 -10 8 -14 14 -9 14 6 0 18 -5 27
-12z m293 3 c3 -5 1 -10 -4 -10 -6 0 -11 5 -11 10 0 6 2 10 4 10 3 0 8 -4 11
-10z m107 -3 c15 -12 15 -14 -5 -26 -17 -10 -19 -11 -10 -1 10 11 9 16 -5 26
-9 8 -12 13 -7 13 6 0 18 -5 27 -12z m-1355 -11 c0 -8 -6 -12 -15 -9 -11 5
-11 7 0 14 7 5 13 9 14 9 0 0 1 -6 1 -14z m199 -6 c0 -22 -4 -24 -26 -10 -13
9 -13 11 0 20 22 14 26 12 26 -10z m244 10 c0 -5 -2 -10 -4 -10 -3 0 -8 5 -11
10 -3 6 -1 10 4 10 6 0 11 -4 11 -10z m240 -5 c0 -6 -8 -11 -18 -11 -10 0 -19
5 -19 11 0 6 9 11 19 11 10 0 18 -5 18 -11z m410 -17 c0 -5 -11 -1 -25 8 -14
9 -25 18 -25 20 0 2 11 -2 25 -8 14 -6 25 -15 25 -20z m-830 12 c0 -5 -4 -10
-10 -10 -5 0 -10 5 -10 10 0 6 5 10 10 10 6 0 10 -4 10 -10z m-213 -32 c-3 -7
-5 -2 -5 12 0 14 2 19 5 13 2 -7 2 -19 0 -25z m183 18 c0 -3 -4 -8 -10 -11 -5
-3 -10 -1 -10 4 0 6 5 11 10 11 6 0 10 -2 10 -4z m495 -6 c-3 -5 -12 -10 -18
-10 -7 0 -6 4 3 10 19 12 23 12 15 0z m195 -5 c0 -2 -6 -5 -13 -8 -8 -3 -14 1
-14 8 0 7 6 11 14 8 7 -3 13 -6 13 -8z m100 5 c0 -5 -2 -10 -4 -10 -3 0 -8 5
-11 10 -3 6 -1 10 4 10 6 0 11 -4 11 -10z m-710 -4 c0 -3 -4 -8 -10 -11 -5 -3
-10 -1 -10 4 0 6 5 11 10 11 6 0 10 -2 10 -4z m195 -6 c3 -5 1 -10 -4 -10 -6
0 -11 5 -11 10 0 6 2 10 4 10 3 0 8 -4 11 -10z m603 -1 c-11 -6 -18 -22 -18
-39 0 -30 -13 -39 -26 -18 -5 7 -3 8 6 3 10 -6 12 -1 8 19 -5 26 11 45 37 45
6 0 2 -4 -7 -10z m212 7 c0 -2 -7 -7 -16 -10 -8 -3 -12 -2 -9 4 6 10 25 14 25
6z m-1750 -16 c0 -5 -2 -10 -4 -10 -3 0 -8 5 -11 10 -3 6 -1 10 4 10 6 0 11
-4 11 -10z m337 3 c-4 -3 -2 -12 4 -20 9 -10 8 -13 0 -13 -7 0 -9 -5 -5 -12 4
-7 3 -8 -5 -4 -6 4 -9 11 -6 16 3 5 1 11 -5 15 -5 3 -10 1 -10 -4 0 -6 -4 -11
-10 -11 -18 0 -10 17 13 28 26 13 33 14 24 5z m770 -15 c-3 -8 -6 -5 -6 6 -1
11 2 17 5 13 3 -3 4 -12 1 -19z m268 12 c3 -5 1 -10 -4 -10 -6 0 -11 5 -11 10
0 6 2 10 4 10 3 0 8 -4 11 -10z m400 0 c3 -5 1 -10 -4 -10 -6 0 -11 5 -11 10
0 6 2 10 4 10 3 0 8 -4 11 -10z m-800 -10 c3 -5 1 -10 -4 -10 -6 0 -11 5 -11
10 0 6 2 10 4 10 3 0 8 -4 11 -10z m-1065 -31 c13 -9 12 -10 -4 -5 -10 4 -25
1 -32 -5 -10 -8 -14 -8 -14 0 0 6 5 11 11 11 8 0 7 6 -2 17 -13 15 -12 15 6 5
11 -6 27 -16 35 -23z m54 12 c3 -4 -4 -7 -14 -7 -11 0 -22 6 -24 12 -5 12 31
8 38 -5z m561 9 c3 -6 -1 -7 -9 -4 -18 7 -21 14 -7 14 6 0 13 -4 16 -10z m65
6 c0 -3 -4 -8 -10 -11 -5 -3 -10 -1 -10 4 0 6 5 11 10 11 6 0 10 -2 10 -4z
m88 -37 c-9 -6 -14 -3 -16 8 -2 8 2 19 10 24 9 6 14 3 16 -8 2 -8 -2 -19 -10
-24z m754 25 c-22 -17 -29 -17 -35 -1 -3 8 6 12 24 13 26 1 27 0 11 -12z
m-1193 -10 c-10 -13 -10 -17 2 -25 10 -8 8 -9 -10 -4 -29 9 -94 -24 -86 -43 3
-7 0 -10 -6 -6 -6 3 -28 -2 -49 -11 -33 -15 -38 -20 -29 -36 6 -12 6 -19 0
-19 -13 0 -22 16 -26 46 -2 18 1 22 8 15 16 -16 22 -14 56 15 16 14 33 25 36
24 5 0 49 22 90 46 28 17 29 16 14 -2z m246 6 c-3 -5 -12 -10 -18 -10 -7 0 -6
4 3 10 19 12 23 12 15 0z m384 -17 c0 -25 -1 -25 -8 -8 -5 11 -7 23 -4 28 8
14 13 7 12 -20z m211 23 c0 -3 -4 -8 -10 -11 -5 -3 -10 -1 -10 4 0 6 5 11 10
11 6 0 10 -2 10 -4z m200 0 c0 -3 -4 -8 -10 -11 -5 -3 -10 -1 -10 4 0 6 5 11
10 11 6 0 10 -2 10 -4z m200 -6 c0 -5 -4 -10 -10 -10 -5 0 -10 5 -10 10 0 6 5
10 10 10 6 0 10 -4 10 -10z m148 -2 c8 -8 15 -8 27 2 8 7 18 11 21 8 3 -3 -12
-15 -32 -27 -20 -12 -39 -19 -42 -17 -3 3 3 8 12 12 15 6 15 7 -1 20 -10 7
-13 14 -7 14 5 0 15 -5 22 -12z m-1522 -13 c-11 -8 -24 -15 -30 -15 -5 0 -1 7
10 15 10 8 24 14 29 14 6 0 1 -6 -9 -14z m1144 0 c0 -2 -6 -5 -13 -8 -8 -3
-14 1 -14 8 0 7 6 11 14 8 7 -3 13 -6 13 -8z m-656 -7 c-3 -4 -9 -8 -15 -8 -5
0 -9 4 -9 8 0 5 7 9 15 9 8 0 12 -4 9 -9z m251 2 c3 -6 -1 -7 -9 -4 -18 7 -21
14 -7 14 6 0 13 -4 16 -10z m265 6 c0 -3 -4 -8 -10 -11 -5 -3 -10 -1 -10 4 0
6 5 11 10 11 6 0 10 -2 10 -4z m277 -9 c0 -7 -9 -13 -19 -13 -18 0 -18 1 -2
13 10 7 18 13 19 13 1 0 2 -6 2 -13z m403 8 c0 -2 -10 -9 -22 -15 -22 -11 -22
-10 -4 4 21 17 26 19 26 11z m-1510 -15 c0 -5 -2 -10 -4 -10 -3 0 -8 5 -11 10
-3 6 -1 10 4 10 6 0 11 -4 11 -10z m157 -4 c0 -8 -6 -12 -15 -9 -11 5 -11 7 0
14 7 5 13 9 14 9 0 0 1 -6 1 -14z m838 5 c3 -5 1 -12 -5 -16 -5 -3 -10 1 -10
9 0 18 6 21 15 7z m-1360 -11 c3 -5 2 -10 -4 -10 -5 0 -13 5 -16 10 -3 6 -2
10 4 10 5 0 13 -4 16 -10z m485 -5 c0 -1 -6 -7 -13 -13 -10 -8 -13 -6 -13 7 0
11 6 17 13 14 7 -3 13 -6 13 -8z m230 1 c-7 -7 -13 -7 -20 0 -6 6 -3 10 10 10
13 0 16 -4 10 -10z m444 -1 c-4 -8 -10 -12 -15 -9 -11 6 -2 24 11 24 5 0 7 -7
4 -15z m136 11 c0 -3 -4 -8 -10 -11 -5 -3 -10 -1 -10 4 0 6 5 11 10 11 6 0 10
-2 10 -4z m-890 -14 c0 -8 -43 -32 -55 -32 -2 0 -2 6 1 14 3 8 12 12 20 9 8
-3 14 0 14 6 0 6 5 11 10 11 6 0 10 -4 10 -8z m166 -16 c2 -22 0 -23 -17 -13
-22 14 -24 23 -6 30 21 9 22 8 23 -17z m294 9 c0 -8 -4 -15 -10 -15 -5 0 -10
7 -10 15 0 8 5 15 10 15 6 0 10 -7 10 -15z m690 -11 c0 -22 -2 -25 -15 -14
-12 10 -18 10 -32 -1 -16 -13 -17 -12 -4 4 8 10 20 16 28 13 7 -3 13 1 13 9 0
8 2 15 5 15 3 0 5 -12 5 -26z m117 11 c0 -17 -13 -20 -21 -6 -4 5 0 12 6 14 7
3 13 6 14 6 0 1 1 -6 1 -14z m143 0 c-7 -8 -18 -15 -24 -15 -6 0 -2 7 8 15 25
19 32 19 16 0z m-1710 -17 c0 -5 -9 -4 -20 2 -11 6 -20 12 -20 14 0 2 9 2 20
-1 11 -3 20 -9 20 -15z m1300 12 c0 -5 -2 -10 -4 -10 -3 0 -8 5 -11 10 -3 6
-1 10 4 10 6 0 11 -4 11 -10z m-740 -10 c0 -5 -5 -10 -11 -10 -5 0 -7 5 -4 10
3 6 8 10 11 10 2 0 4 -4 4 -10z m95 0 c3 -5 2 -10 -4 -10 -5 0 -13 5 -16 10
-3 6 -2 10 4 10 5 0 13 -4 16 -10z m395 -10 c0 -5 -2 -10 -4 -10 -3 0 -8 5
-11 10 -3 6 -1 10 4 10 6 0 11 -4 11 -10z m140 6 c0 -2 -7 -7 -16 -10 -8 -3
-12 -2 -9 4 6 10 25 14 25 6z m77 -10 c0 -8 -6 -12 -15 -9 -11 5 -11 7 0 14 7
5 13 9 14 9 0 0 1 -6 1 -14z m-1287 -6 c0 -5 -2 -10 -4 -10 -3 0 -8 5 -11 10
-3 6 -1 10 4 10 6 0 11 -4 11 -10z m727 -3 c0 -7 -9 -13 -19 -13 -18 0 -18 1
-2 13 10 7 18 13 19 13 1 0 2 -6 2 -13z m958 3 c3 -5 0 -7 -8 -4 -8 3 -18 0
-22 -5 -3 -6 -11 -8 -18 -4 -7 4 -4 9 9 14 27 11 32 10 39 -1z m-1155 -10 c0
-5 -4 -10 -10 -10 -5 0 -10 5 -10 10 0 6 5 10 10 10 6 0 10 -4 10 -10z m787
-12 c-3 -8 -6 -5 -6 6 -1 11 2 17 5 13 3 -3 4 -12 1 -19z m-1107 -3 c0 -2 -6
-5 -13 -8 -8 -3 -14 1 -14 8 0 7 6 11 14 8 7 -3 13 -6 13 -8z m465 -6 c-10
-15 -25 -10 -19 6 4 8 10 12 15 9 5 -3 7 -10 4 -15z m456 3 c-7 -2 -18 1 -23
6 -8 8 -4 9 13 5 13 -4 18 -8 10 -11z m-649 -9 c-7 -3 -19 -11 -27 -20 -13
-13 -15 -12 -15 6 0 13 5 19 14 15 8 -3 17 0 21 6 4 6 10 8 14 4 3 -4 0 -9 -7
-11z m-480 -65 c4 -93 1 -115 -19 -122 -12 -5 -13 -3 -6 6 6 7 11 39 12 71 2
44 -2 59 -14 63 -14 6 -14 8 1 19 9 6 14 17 10 23 -4 7 -3 12 3 12 5 0 11 -33
13 -72z m578 62 c0 -5 -2 -10 -4 -10 -3 0 -8 5 -11 10 -3 6 -1 10 4 10 6 0 11
-4 11 -10z m195 0 c3 -5 1 -10 -4 -10 -6 0 -11 5 -11 10 0 6 2 10 4 10 3 0 8
-4 11 -10z m298 -5 c4 -8 2 -17 -3 -20 -6 -4 -10 3 -10 14 0 25 6 27 13 6z
m177 5 c0 -5 -5 -10 -11 -10 -5 0 -7 5 -4 10 3 6 8 10 11 10 2 0 4 -4 4 -10z
m84 -4 c-10 -8 -21 -12 -24 -10 -5 6 21 24 34 24 6 0 1 -6 -10 -14z m422 2 c4
-7 3 -8 -5 -4 -6 4 -18 2 -26 -4 -9 -8 -15 -8 -15 -2 0 9 15 19 32 21 4 1 10
-4 14 -11z m-1332 -11 c-3 -8 -11 -14 -19 -14 -11 0 -12 4 -4 14 6 7 15 13 20
13 5 0 6 -6 3 -13z m766 -8 c14 -11 19 -18 12 -14 -7 4 -20 1 -28 -6 -8 -6
-17 -9 -21 -6 -3 4 2 9 11 13 15 6 15 7 -1 20 -10 7 -13 13 -8 13 6 1 21 -9
35 -20z m407 -4 c1 0 -8 -7 -20 -14 -20 -13 -21 -13 -8 2 9 11 10 17 2 17 -6
0 -11 5 -11 11 0 8 6 7 18 -2 9 -7 18 -14 19 -14z m-1311 -13 c-4 -3 -14 2
-24 12 -16 18 -16 18 6 6 13 -6 21 -14 18 -18z m524 18 c0 -5 -2 -10 -4 -10
-3 0 -8 5 -11 10 -3 6 -1 10 4 10 6 0 11 -4 11 -10z m-662 -37 c9 -7 11 -13 5
-13 -7 0 -18 7 -27 15 -8 8 -21 15 -28 16 -7 0 -4 4 7 8 12 5 21 4 24 -3 2 -6
10 -17 19 -23z m1168 22 c10 -8 15 -14 9 -14 -5 0 -19 6 -29 14 -11 8 -15 15
-10 15 6 0 19 -7 30 -15z m400 0 c10 -8 14 -15 7 -15 -6 0 -15 5 -18 11 -4 6
-14 8 -22 5 -8 -3 -11 -1 -8 4 8 14 18 13 41 -5z m-1139 -17 c-3 -8 -6 -5 -6
6 -1 11 2 17 5 13 3 -3 4 -12 1 -19z m203 18 c0 -3 -4 -8 -10 -11 -5 -3 -10
-1 -10 4 0 6 5 11 10 11 6 0 10 -2 10 -4z m241 -22 c-34 -24 -68 -34 -68 -19
0 7 6 11 14 8 15 -6 45 15 38 27 -3 5 4 6 15 3 21 -5 21 -6 1 -19z m399 16 c0
-5 -2 -10 -4 -10 -3 0 -8 5 -11 10 -3 6 -1 10 4 10 6 0 11 -4 11 -10z m60 6
c0 -3 -4 -8 -10 -11 -5 -3 -10 -1 -10 4 0 6 5 11 10 11 6 0 10 -2 10 -4z m166
-23 c-4 -4 -12 -1 -19 7 -9 10 -9 11 1 6 7 -4 12 -2 13 6 0 11 2 11 6 0 3 -7
2 -16 -1 -19z m179 17 c3 -5 2 -10 -4 -10 -5 0 -13 5 -16 10 -3 6 -2 10 4 10
5 0 13 -4 16 -10z m-574 -13 c-7 -7 -14 -8 -21 -1 -6 6 -2 10 12 11 16 2 18
-1 9 -10z m-1181 -12 c-7 -8 -20 -15 -28 -15 -13 0 -12 3 4 15 25 19 40 19 24
0z m490 11 c0 -2 -7 -6 -15 -10 -8 -3 -15 -1 -15 4 0 6 7 10 15 10 8 0 15 -2
15 -4z m912 -14 c26 -17 26 -18 8 -30 -12 -7 -20 -8 -20 -2 0 5 6 10 12 10 7
0 2 7 -10 16 -20 14 -24 14 -44 0 -12 -9 -27 -16 -33 -16 -5 0 4 9 20 20 36
24 34 24 67 2z m-1565 -14 c-3 -8 -6 -5 -6 6 -1 11 2 17 5 13 3 -3 4 -12 1
-19z m1168 11 c4 -6 14 -8 22 -5 8 3 11 1 8 -4 -8 -14 -18 -13 -41 5 -10 8
-14 15 -7 15 6 0 15 -5 18 -11z m755 7 c0 -3 -4 -8 -10 -11 -5 -3 -10 -1 -10
4 0 6 5 11 10 11 6 0 10 -2 10 -4z m-1160 -25 c0 -23 -29 -36 -44 -21 -8 8 -6
9 7 4 13 -5 20 -1 24 15 7 26 13 27 13 2z m45 9 c3 -6 -1 -7 -9 -4 -18 7 -21
14 -7 14 6 0 13 -4 16 -10z m1085 -4 c0 -2 -7 -7 -16 -10 -8 -3 -12 -2 -9 4 6
10 25 14 25 6z m-1743 -21 c-4 -8 -2 -17 4 -20 5 -4 6 -11 3 -17 -10 -15 -25
17 -18 36 3 9 8 16 11 16 3 0 3 -7 0 -15z m1375 -22 c-9 -7 -21 -12 -27 -12
-5 0 -1 6 9 14 11 8 14 15 8 15 -7 0 -12 5 -12 10 0 6 8 5 19 -2 18 -11 18
-13 3 -25z m-991 17 c5 0 8 -10 8 -22 -1 -18 -2 -19 -6 -5 -3 14 -8 15 -18 7
-9 -8 -14 -5 -18 11 -4 15 -2 19 10 15 8 -3 19 -6 24 -6z m604 -8 c-3 -3 -11
0 -18 7 -9 10 -8 11 6 5 10 -3 15 -9 12 -12z m-782 -6 c9 -7 17 -17 17 -21 0
-5 -9 0 -20 10 -10 9 -26 15 -35 11 -9 -3 -13 -2 -10 4 8 14 26 12 48 -4z
m1387 6 c0 -5 -7 -9 -15 -9 -8 0 -12 4 -9 9 3 4 9 8 15 8 5 0 9 -4 9 -8z
m-975 -12 c3 -5 1 -10 -4 -10 -6 0 -11 5 -11 10 0 6 2 10 4 10 3 0 8 -4 11
-10z m400 0 c3 -5 1 -10 -4 -10 -6 0 -11 5 -11 10 0 6 2 10 4 10 3 0 8 -4 11
-10z m100 -1 c4 -6 14 -8 24 -5 9 4 5 -2 -9 -13 -14 -11 -27 -17 -30 -14 -3 3
1 8 8 10 10 4 8 9 -5 19 -10 7 -13 14 -6 14 6 0 15 -5 18 -11z m145 2 c0 -15
-32 -23 -44 -11 -8 8 -6 9 5 5 10 -4 20 -2 24 4 8 13 15 14 15 2z m155 -1 c3
-5 1 -10 -4 -10 -6 0 -11 5 -11 10 0 6 2 10 4 10 3 0 8 -4 11 -10z m107 -26
c-9 -7 -19 -10 -22 -7 -3 3 1 8 8 10 10 4 10 8 0 21 -12 14 -11 14 9 2 20 -13
20 -15 5 -26z m148 32 c0 -3 -4 -8 -10 -11 -5 -3 -10 -1 -10 4 0 6 5 11 10 11
6 0 10 -2 10 -4z m95 -6 c-3 -5 -11 -10 -16 -10 -6 0 -7 5 -4 10 3 6 11 10 16
10 6 0 7 -4 4 -10z m-1335 -10 c0 -5 -2 -10 -4 -10 -3 0 -8 5 -11 10 -3 6 -1
10 4 10 6 0 11 -4 11 -10z m95 -11 c-10 -15 -25 -10 -19 6 4 8 10 12 15 9 5
-3 7 -10 4 -15z m1110 3 c-3 -3 -11 0 -18 7 -9 10 -8 11 6 5 10 -3 15 -9 12
-12z m-1310 -2 c-3 -5 -11 -10 -16 -10 -6 0 -7 5 -4 10 3 6 11 10 16 10 6 0 7
-4 4 -10z m387 -25 c3 -14 1 -25 -3 -25 -5 0 -9 11 -9 25 0 14 2 25 4 25 2 0
6 -11 8 -25z m-612 -8 c0 -1 -11 -3 -24 -3 -17 -1 -23 2 -19 12 4 10 10 11 24
3 10 -5 19 -11 19 -12z m385 5 c-3 -3 -11 0 -18 7 -9 10 -8 11 6 5 10 -3 15
-9 12 -12z m200 0 c-3 -3 -11 0 -18 7 -9 10 -8 11 6 5 10 -3 15 -9 12 -12z
m505 8 c0 -5 -2 -10 -4 -10 -3 0 -8 5 -11 10 -3 6 -1 10 4 10 6 0 11 -4 11
-10z m400 0 c0 -5 -2 -10 -4 -10 -3 0 -8 5 -11 10 -3 6 -1 10 4 10 6 0 11 -4
11 -10z m-1730 -22 c0 -6 9 -8 20 -5 11 3 18 2 15 -3 -3 -4 2 -13 9 -19 11
-10 21 -9 45 3 16 9 37 13 45 10 9 -3 16 -1 16 5 0 6 7 8 15 4 22 -8 14 -13
-29 -18 -21 -3 -44 -12 -52 -20 -9 -8 -21 -15 -28 -15 -7 0 -30 -13 -52 -30
-21 -16 -48 -29 -59 -29 -14 0 -16 2 -5 6 8 3 17 9 20 13 3 4 24 17 48 29 36
18 41 25 32 37 -7 8 -18 14 -25 14 -7 0 -23 9 -36 19 l-24 20 23 -6 c12 -3 22
-10 22 -15z m491 -2 c-9 -11 -9 -15 1 -18 8 -3 6 -7 -6 -11 -11 -5 -15 -3 -10
5 5 8 1 9 -12 4 -10 -4 -15 -4 -11 0 4 4 1 14 -6 23 -11 14 -10 15 7 1 17 -13
20 -13 30 2 5 9 12 15 15 13 2 -3 -1 -11 -8 -19z m1139 20 c0 -2 -7 -7 -16
-10 -8 -3 -12 -2 -9 4 6 10 25 14 25 6z m-970 -16 c0 -5 -2 -10 -4 -10 -3 0
-8 5 -11 10 -3 6 -1 10 4 10 6 0 11 -4 11 -10z m340 6 c0 -3 -4 -8 -10 -11 -5
-3 -10 -1 -10 4 0 6 5 11 10 11 6 0 10 -2 10 -4z m330 -16 c0 -5 -5 -10 -11
-10 -5 0 -7 5 -4 10 3 6 8 10 11 10 2 0 4 -4 4 -10z m428 -6 c5 3 9 -1 9 -9 0
-18 1 -18 -31 -2 -14 8 -23 17 -19 20 3 4 12 2 19 -4 7 -6 17 -8 22 -5z
m-1393 -4 c-3 -5 -11 -10 -16 -10 -6 0 -7 5 -4 10 3 6 11 10 16 10 6 0 7 -4 4
-10z m597 -2 c-5 -7 -12 -24 -15 -38 -4 -22 -4 -21 -6 7 -1 26 6 38 28 42 2 1
-1 -5 -7 -11z m133 2 c3 -5 2 -10 -4 -10 -5 0 -13 5 -16 10 -3 6 -2 10 4 10 5
0 13 -4 16 -10z m272 -4 c0 -8 -6 -12 -15 -9 -11 5 -11 7 0 14 7 5 13 9 14 9
0 0 1 -6 1 -14z m157 -25 c-2 -3 -12 3 -22 13 -16 17 -16 18 5 5 12 -7 20 -15
17 -18z m-1199 1 c-3 -3 -11 0 -18 7 -9 10 -8 11 6 5 10 -3 15 -9 12 -12z
m670 -2 c3 -5 -1 -10 -9 -10 -9 0 -16 5 -16 10 0 6 4 10 9 10 6 0 13 -4 16
-10z m260 0 c3 -5 1 -10 -4 -10 -6 0 -11 5 -11 10 0 6 2 10 4 10 3 0 8 -4 11
-10z m145 0 c0 -5 -4 -10 -10 -10 -5 0 -10 5 -10 10 0 6 5 10 10 10 6 0 10 -4
10 -10z m265 0 c-3 -5 -11 -10 -16 -10 -6 0 -7 5 -4 10 3 6 11 10 16 10 6 0 7
-4 4 -10z m145 -5 c11 -13 10 -14 -4 -9 -9 3 -16 10 -16 15 0 13 6 11 20 -6z
m-1600 -4 c0 -5 -7 -12 -16 -15 -14 -5 -15 -4 -4 9 14 17 20 19 20 6z m157 -7
c9 -8 23 -12 31 -9 9 3 13 3 9 -2 -5 -4 -21 -8 -36 -9 -20 -1 -27 3 -27 17 0
23 3 23 23 3z m728 6 c-3 -5 -11 -10 -16 -10 -6 0 -7 5 -4 10 3 6 11 10 16 10
6 0 7 -4 4 -10z m-915 -36 c0 -3 -5 -2 -10 1 -6 4 -18 1 -27 -7 -13 -10 -15
-10 -9 0 4 7 2 20 -6 29 -12 14 -9 14 20 -1 17 -9 32 -19 32 -22z m100 26 c0
-5 -5 -10 -11 -10 -5 0 -7 5 -4 10 3 6 8 10 11 10 2 0 4 -4 4 -10z m1060 -30
c6 0 10 -5 10 -11 0 -8 -5 -8 -15 1 -12 10 -18 10 -30 0 -10 -9 -15 -9 -15 -1
0 6 6 11 13 11 6 0 4 5 -6 11 -9 6 -15 14 -12 19 3 5 15 0 25 -10 11 -11 25
-20 30 -20z m-435 16 c12 -11 10 -15 -12 -25 -23 -11 -25 -10 -14 3 7 8 10 20
6 26 -9 15 4 12 20 -4z m455 10 c0 -3 -4 -8 -10 -11 -5 -3 -10 -1 -10 4 0 6 5
11 10 11 6 0 10 -2 10 -4z m110 -22 c0 -2 -9 0 -20 6 -11 6 -20 13 -20 16 0 2
9 0 20 -6 11 -6 20 -13 20 -16z m290 22 c0 -3 -4 -8 -10 -11 -5 -3 -10 -1 -10
4 0 6 5 11 10 11 6 0 10 -2 10 -4z m105 -7 c-3 -3 7 -11 22 -18 14 -6 23 -14
21 -17 -5 -4 -78 34 -78 40 0 1 9 2 19 2 11 0 18 -3 16 -7z m-785 -20 l25 -20
-25 12 c-14 7 -28 12 -32 11 -5 -1 -8 3 -8 8 0 15 12 12 40 -11z m80 -11 c0
-5 -4 -8 -10 -8 -5 0 -10 10 -10 23 0 18 2 19 10 7 5 -8 10 -18 10 -22z m40
24 c0 -5 -7 -9 -15 -9 -8 0 -12 4 -9 9 3 4 9 8 15 8 5 0 9 -4 9 -8z m400 4 c0
-2 -7 -7 -16 -10 -8 -3 -12 -2 -9 4 6 10 25 14 25 6z m-1050 -16 c0 -5 -2 -10
-4 -10 -3 0 -8 5 -11 10 -3 6 -1 10 4 10 6 0 11 -4 11 -10z m1164 -4 c-10 -8
-21 -12 -24 -10 -5 6 21 24 34 24 6 0 1 -6 -10 -14z m-1499 -14 c-3 -3 -11 0
-18 7 -9 10 -8 11 6 5 10 -3 15 -9 12 -12z m740 8 c3 -5 1 -10 -4 -10 -6 0
-11 5 -11 10 0 6 2 10 4 10 3 0 8 -4 11 -10z m559 -5 c11 -8 15 -15 10 -15 -6
0 -19 7 -30 15 -10 8 -14 14 -9 14 6 0 19 -6 29 -14z m46 5 c0 -5 -4 -10 -10
-10 -5 0 -10 5 -10 10 0 6 5 10 10 10 6 0 10 -4 10 -10z m195 0 c3 -5 1 -10
-4 -10 -6 0 -11 5 -11 10 0 6 2 10 4 10 3 0 8 -4 11 -10z m-1681 -31 c-8 -14
-21 -11 -21 5 0 8 6 12 14 9 7 -3 10 -9 7 -14z m173 -1 c-3 -8 -6 -5 -6 6 -1
11 2 17 5 13 3 -3 4 -12 1 -19z m163 13 c0 -5 -9 -11 -19 -14 -14 -3 -18 -1
-14 9 6 15 33 19 33 5z m195 -1 c3 -6 -1 -7 -9 -4 -18 7 -21 14 -7 14 6 0 13
-4 16 -10z m450 0 c-3 -5 -11 -10 -16 -10 -6 0 -7 5 -4 10 3 6 11 10 16 10 6
0 7 -4 4 -10z m-255 -20 c0 -11 -4 -20 -8 -20 -4 0 -8 9 -8 20 0 11 4 20 8 20
4 0 8 -9 8 -20z m400 10 c0 -5 -2 -10 -4 -10 -3 0 -8 5 -11 10 -3 6 -1 10 4
10 6 0 11 -4 11 -10z m260 6 c0 -3 -4 -8 -10 -11 -5 -3 -10 -1 -10 4 0 6 5 11
10 11 6 0 10 -2 10 -4z m152 -10 c15 -11 14 -14 -13 -30 -25 -15 -33 -16 -42
-6 -9 10 -9 11 0 6 7 -4 21 -1 32 6 18 11 18 13 3 25 -9 7 -12 12 -7 12 6 0
18 -5 27 -13z m239 0 c-9 -10 -8 -16 3 -26 9 -6 20 -9 26 -5 5 3 10 1 10 -4 0
-16 -26 -13 -41 5 -7 8 -21 13 -31 11 -10 -3 -16 -1 -12 4 3 5 12 9 20 9 8 0
14 5 14 10 0 6 5 10 11 10 8 0 8 -4 0 -14z m-1296 -6 c-3 -5 -11 -10 -16 -10
-6 0 -7 5 -4 10 3 6 11 10 16 10 6 0 7 -4 4 -10z m342 -12 c-3 -8 -6 -5 -6 6
-1 11 2 17 5 13 3 -3 4 -12 1 -19z m533 7 c0 -2 -6 -5 -13 -8 -8 -3 -14 1 -14
8 0 7 6 11 14 8 7 -3 13 -6 13 -8z m-775 -5 c3 -5 2 -10 -4 -10 -5 0 -13 5
-16 10 -3 6 -2 10 4 10 5 0 13 -4 16 -10z m559 -5 c-10 -8 -23 -14 -29 -14 -5
0 -1 6 9 14 11 8 24 15 30 15 5 0 1 -7 -10 -15z m316 11 c0 -2 -7 -7 -16 -10
-8 -3 -12 -2 -9 4 6 10 25 14 25 6z m-1205 -16 c3 -5 1 -10 -4 -10 -6 0 -11 5
-11 10 0 6 2 10 4 10 3 0 8 -4 11 -10z m730 0 c3 -5 1 -10 -4 -10 -6 0 -11 5
-11 10 0 6 2 10 4 10 3 0 8 -4 11 -10z m419 -19 c-2 -3 -12 3 -22 13 -16 17
-16 18 5 5 12 -7 20 -15 17 -18z m-337 13 c-3 -3 -12 -4 -19 -1 -8 3 -5 6 6 6
11 1 17 -2 13 -5z"/>
<path d="M3 1370 c0 -30 2 -43 4 -27 2 15 2 39 0 55 -2 15 -4 2 -4 -28z"/>
<path d="M3 1270 c0 -25 2 -35 4 -22 2 12 2 32 0 45 -2 12 -4 2 -4 -23z"/>
</g>
</svg>
