<?xml version="1.0" standalone="no"?>
<!DOCTYPE svg PUBLIC "-//W3C//DTD SVG 20010904//EN"
 "http://www.w3.org/TR/2001/REC-SVG-20010904/DTD/svg10.dtd">
<svg version="1.0" xmlns="http://www.w3.org/2000/svg"
 width="200.000000pt" height="200.000000pt" viewBox="0 0 200.000000 200.000000"
 preserveAspectRatio="xMidYMid meet">
<metadata>
Created by potrace 1.16, written by Peter Selinger 2001-2019
</metadata>
<g transform="translate(0.000000,200.000000) scale(0.100000,-0.100000)"
fill="#000000" stroke="none">
<path d="M0 1967 c0 -18 6 -39 13 -46 10 -11 10 -13 0 -7 -10 6 -13 -41 -13
-219 0 -178 3 -225 13 -219 10 6 10 4 0 -7 -9 -9 -13 -49 -13 -124 l0 -111
100 -58 c56 -32 99 -60 97 -63 -3 -2 -47 21 -98 51 l-94 55 -3 -109 c-1 -61
-1 -159 0 -220 l3 -109 90 53 90 52 6 60 6 59 1 -62 2 -61 -100 -58 -100 -59
0 -110 c0 -75 4 -115 13 -124 9 -11 9 -13 0 -7 -10 6 -13 -49 -13 -258 l0
-266 195 0 195 0 0 36 c0 23 -7 42 -18 51 -15 13 -15 13 5 3 20 -9 36 -3 115
43 l93 53 3 113 c2 76 -1 118 -9 127 -10 12 -9 13 4 8 10 -4 54 15 112 47 107
61 97 40 96 199 0 75 -3 86 -23 103 l-23 19 28 -16 c15 -9 31 -15 35 -12 4 2
7 -50 7 -117 l0 -121 90 -52 c49 -28 91 -56 93 -62 2 -6 -42 16 -97 50 l-101
60 -97 -59 -97 -58 0 -110 0 -110 97 -58 c77 -46 97 -63 96 -80 l0 -22 -9 21
c-5 12 -49 45 -100 74 l-91 52 -99 -57 c-96 -54 -100 -57 -100 -91 l0 -34 204
0 c154 0 206 3 209 13 4 9 6 9 6 0 1 -10 94 -13 415 -13 l415 0 3 21 c2 12 12
27 23 33 18 10 18 10 3 -3 -10 -7 -18 -22 -18 -32 0 -18 10 -19 170 -19 l170
0 0 66 c0 52 -4 70 -17 80 -17 13 -17 14 0 8 16 -6 17 15 17 348 0 269 -3 357
-12 367 -10 11 -10 13 0 7 9 -6 12 109 12 558 l0 565 -209 1 -210 1 -3 -31
c-2 -23 -12 -36 -38 -52 l-35 -20 25 21 c14 11 28 21 33 21 4 0 7 14 7 30 l0
30 -171 0 -171 0 4 -34 c2 -19 0 -32 -4 -30 -4 3 -8 18 -8 35 l0 29 -205 0
-205 0 0 -34 c0 -32 4 -36 88 -83 105 -60 119 -65 126 -50 3 9 5 9 5 0 1 -6
-4 -15 -9 -18 -6 -3 -11 -27 -11 -53 l-2 -47 -6 47 c-4 26 -9 49 -11 51 -3 3
-47 28 -97 57 l-92 52 -105 -60 c-89 -51 -107 -58 -117 -46 -10 12 -9 13 5 8
10 -4 54 15 116 51 96 54 100 57 100 91 l0 34 -200 0 -200 0 0 -33 c0 -18 6
-39 13 -46 10 -10 9 -11 -5 -6 -13 5 -18 18 -18 46 l0 39 -195 0 -195 0 0 -33z
m1940 -22 c0 -2 -10 -9 -22 -15 -22 -11 -22 -10 -4 4 21 17 26 19 26 11z
m-750 -25 c0 -5 -11 -12 -25 -16 -14 -3 -25 -9 -25 -13 0 -4 -11 -13 -25 -19
-41 -19 -28 5 18 31 48 28 57 31 57 17z m120 -26 c0 -2 -13 2 -30 11 -16 9
-30 18 -30 21 0 2 14 -2 30 -11 17 -9 30 -18 30 -21z m430 10 c0 -2 -9 0 -20
6 -11 6 -20 13 -20 16 0 2 9 0 20 -6 11 -6 20 -13 20 -16z m-1360 11 c0 -2
-10 -9 -22 -15 -22 -11 -22 -10 -4 4 21 17 26 19 26 11z m-310 -31 c0 -2 -9 0
-20 6 -11 6 -20 13 -20 16 0 2 9 0 20 -6 11 -6 20 -13 20 -16z m1220 -10 c0
-2 -13 2 -30 11 -16 9 -30 18 -30 21 0 2 14 -2 30 -11 17 -9 30 -18 30 -21z
m334 27 c4 -5 -3 -7 -14 -4 -23 6 -26 13 -6 13 8 0 17 -4 20 -9z m246 4 c0 -2
-10 -9 -22 -15 -22 -11 -22 -10 -4 4 21 17 26 19 26 11z m-1380 -31 c0 -2 -9
0 -20 6 -11 6 -20 13 -20 16 0 2 9 0 20 -6 11 -6 20 -13 20 -16z m1090 21 c0
-2 -13 -11 -30 -20 -38 -19 -40 -11 -2 9 31 17 32 18 32 11z m210 -21 c0 -2
-9 0 -20 6 -11 6 -20 13 -20 16 0 2 9 0 20 -6 11 -6 20 -13 20 -16z m-1460 11
c0 -2 -13 -11 -30 -20 -38 -19 -40 -11 -2 9 31 17 32 18 32 11z m1150 0 c0 -2
-13 -11 -30 -20 -38 -19 -40 -11 -2 9 31 17 32 18 32 11z m220 -31 c0 -2 -13
2 -30 11 -16 9 -30 18 -30 21 0 2 14 -2 30 -11 17 -9 30 -18 30 -21z m-1560
-10 c0 -2 -13 2 -30 11 -16 9 -30 18 -30 21 0 2 14 -2 30 -11 17 -9 30 -18 30
-21z m1240 10 c0 -2 -9 0 -20 6 -11 6 -20 13 -20 16 0 2 9 0 20 -6 11 -6 20
-13 20 -16z m610 21 c0 -2 -13 -11 -30 -20 -38 -19 -40 -11 -2 9 31 17 32 18
32 11z m-924 -31 c-11 -7 -22 -11 -25 -8 -3 3 3 12 13 20 11 7 22 11 25 8 3
-3 -3 -12 -13 -20z m274 0 c0 -2 -9 0 -20 6 -11 6 -20 13 -20 16 0 2 9 0 20
-6 11 -6 20 -13 20 -16z m-780 -10 c0 -2 -9 0 -20 6 -11 6 -20 13 -20 16 0 2
9 0 20 -6 11 -6 20 -13 20 -16z m-300 11 c0 -2 -13 -11 -30 -20 -29 -15 -30
-17 -32 -98 l-2 -82 -3 80 c-2 43 -9 85 -15 92 -8 10 -7 12 5 7 8 -3 28 1 44
10 32 17 33 18 33 11z m1660 -10 c0 -2 -10 -9 -22 -15 -22 -11 -22 -10 -4 4
21 17 26 19 26 11z m-525 -23 c-3 -3 -11 0 -18 7 -9 10 -8 11 6 5 10 -3 15 -9
12 -12z m37 -4 c-5 -7 -12 -24 -15 -38 l-4 -25 -2 26 c0 14 4 30 11 37 16 16
23 15 10 0z m355 -50 c-3 -8 -6 -5 -6 6 -1 11 2 17 5 13 3 -3 4 -12 1 -19z
m-370 -50 c-3 -7 -5 -2 -5 12 0 14 2 19 5 13 2 -7 2 -19 0 -25z m370 10 c-3
-8 -6 -5 -6 6 -1 11 2 17 5 13 3 -3 4 -12 1 -19z m-780 -65 c-3 -10 -5 -4 -5
12 0 17 2 24 5 18 2 -7 2 -21 0 -30z m780 5 c-3 -8 -6 -5 -6 6 -1 11 2 17 5
13 3 -3 4 -12 1 -19z m-1556 -93 c16 -9 29 -18 29 -21 0 -2 -14 3 -31 11 -17
9 -38 14 -47 10 -14 -5 -15 -4 -4 6 6 7 13 27 14 44 l1 30 4 -33 c3 -23 12
-36 34 -47z m1186 43 c-3 -7 -5 -2 -5 12 0 14 2 19 5 13 2 -7 2 -19 0 -25z
m370 -15 c-3 -10 -5 -2 -5 17 0 19 2 27 5 18 2 -10 2 -26 0 -35z m-745 -47
c-2 -5 4 -6 12 -3 16 6 28 -2 20 -14 -3 -5 -14 -4 -25 1 -11 6 -16 16 -13 22
5 8 1 9 -10 5 -10 -4 -15 -3 -11 3 9 15 0 12 -39 -11 -20 -12 -36 -16 -36 -10
0 12 40 36 41 24 0 -4 4 2 9 15 l10 22 22 -22 c13 -13 22 -27 20 -32z m-341
-21 c98 -56 112 -60 137 -37 8 7 17 10 21 7 7 -8 -39 -43 -53 -41 -6 1 -29 13
-51 27 -22 14 -67 41 -100 59 l-60 33 -97 -57 -97 -57 -3 -120 c-2 -87 0 -118
9 -115 14 6 24 -4 17 -15 -3 -5 -14 -4 -25 1 -14 8 -19 7 -19 -1 0 -7 -3 -9
-7 -6 -3 4 -11 -1 -18 -10 -10 -13 -13 -14 -20 -2 -5 8 -5 11 -1 8 4 -4 18 3
32 16 23 21 24 29 24 136 l1 114 97 57 c53 31 101 57 106 57 5 1 53 -24 107
-54z m699 51 c0 -2 -7 -7 -16 -10 -8 -3 -12 -2 -9 4 6 10 25 14 25 6z m370 -1
c0 -2 -10 -9 -22 -15 -22 -11 -22 -10 -4 4 21 17 26 19 26 11z m-1610 -20 c0
-2 -13 -11 -30 -20 -38 -19 -40 -11 -2 9 31 17 32 18 32 11z m1200 0 c0 -2
-10 -9 -22 -15 -22 -11 -22 -10 -4 4 21 17 26 19 26 11z m150 -21 c0 -2 -9 0
-20 6 -11 6 -20 13 -20 16 0 2 9 0 20 -6 11 -6 20 -13 20 -16z m-96 8 c2 -4
-4 -8 -14 -8 -10 0 -16 4 -14 8 3 4 9 8 14 8 5 0 11 -4 14 -8z m-1084 -38 c0
-2 -13 2 -30 11 -16 9 -30 18 -30 21 0 2 14 -2 30 -11 17 -9 30 -18 30 -21z
m600 26 c0 -5 -13 -16 -30 -25 -16 -9 -30 -11 -30 -6 0 13 35 32 44 24 3 -3 6
-1 6 5 0 7 2 12 5 12 3 0 5 -4 5 -10z m770 5 c0 -2 -10 -9 -22 -15 -22 -11
-22 -10 -4 4 21 17 26 19 26 11z m-330 -10 c0 -2 -10 -9 -22 -15 -22 -11 -22
-10 -4 4 21 17 26 19 26 11z m100 -21 c0 -2 -9 0 -20 6 -11 6 -20 13 -20 16 0
2 9 0 20 -6 11 -6 20 -13 20 -16z m90 0 c0 -2 -9 0 -20 6 -11 6 -20 13 -20 16
0 2 9 0 20 -6 11 -6 20 -13 20 -16z m-446 4 c-5 -7 -2 -9 8 -5 22 8 56 -17 38
-28 -9 -6 -11 -4 -5 5 5 8 3 11 -6 8 -18 -7 -51 10 -44 23 4 5 8 9 11 9 3 0 2
-5 -2 -12z m176 7 c0 -2 -10 -9 -22 -15 -22 -11 -22 -10 -4 4 21 17 26 19 26
11z m519 1 c-2 -2 -15 -9 -29 -15 -24 -11 -24 -11 -6 3 16 13 49 24 35 12z
m-1739 -11 c0 -2 -10 -9 -22 -15 -22 -11 -22 -10 -4 4 21 17 26 19 26 11z
m1810 -31 c0 -2 -13 2 -30 11 -16 9 -30 18 -30 21 0 2 14 -2 30 -11 17 -9 30
-18 30 -21z m-1500 0 c0 -2 -9 0 -20 6 -11 6 -20 13 -20 16 0 2 9 0 20 -6 11
-6 20 -13 20 -16z m1245 16 c-3 -5 -14 -10 -23 -9 -14 0 -13 2 3 9 27 11 27
11 20 0z m-60 -40 c3 -5 -10 -1 -29 11 -20 12 -36 23 -36 25 0 7 58 -25 65
-36z m-363 9 c-11 -10 -19 -12 -24 -6 -9 15 -3 23 21 23 19 0 19 -1 3 -17z
m528 16 c0 -2 -10 -9 -22 -15 -22 -11 -22 -10 -4 4 21 17 26 19 26 11z m-73
-82 c-3 -10 -5 -2 -5 17 0 19 2 27 5 18 2 -10 2 -26 0 -35z m-470 -30 c-3 -10
-5 -4 -5 12 0 17 2 24 5 18 2 -7 2 -21 0 -30z m0 -45 c-3 -8 -6 -5 -6 6 -1 11
2 17 5 13 3 -3 4 -12 1 -19z m-377 -8 c0 -5 -2 -10 -4 -10 -3 0 -8 5 -11 10
-3 6 -1 10 4 10 6 0 11 -4 11 -10z m852 -24 c2 -19 0 -32 -4 -30 -8 5 -12 64
-4 64 2 0 6 -15 8 -34z m278 -31 c0 -2 -10 -9 -22 -15 -22 -11 -22 -10 -4 4
21 17 26 19 26 11z m-750 -13 c0 -4 -15 -16 -32 -26 l-33 -18 30 26 c34 28 35
29 35 18z m550 -28 c0 -2 -13 2 -30 11 -16 9 -30 18 -30 21 0 2 14 -2 30 -11
17 -9 30 -18 30 -21z m-945 16 c-4 -6 -25 -20 -48 -31 -49 -25 -43 -15 11 17
44 27 45 27 37 14z m40 0 c3 -6 -1 -7 -9 -4 -18 7 -21 14 -7 14 6 0 13 -4 16
-10z m455 -16 c0 -2 -9 0 -20 6 -11 6 -20 13 -20 16 0 2 9 0 20 -6 11 -6 20
-13 20 -16z m260 21 c0 -2 -10 -9 -22 -15 -22 -11 -22 -10 -4 4 21 17 26 19
26 11z m320 -20 c0 -2 -10 -9 -22 -15 -22 -11 -22 -10 -4 4 21 17 26 19 26 11z
m-1080 -20 c0 -2 -13 -11 -30 -20 -38 -19 -40 -11 -2 9 31 17 32 18 32 11z
m570 -21 c0 -2 -9 0 -20 6 -11 6 -20 13 -20 16 0 2 9 0 20 -6 11 -6 20 -13 20
-16z m120 21 c0 -2 -10 -9 -22 -15 -22 -11 -22 -10 -4 4 21 17 26 19 26 11z
m-1154 -17 c4 -7 3 -8 -4 -4 -7 4 -12 3 -12 -3 0 -18 -38 -33 -46 -19 -4 7 -4
10 0 6 4 -3 16 2 27 13 22 22 25 23 35 7z m189 -10 c5 4 5 1 1 -6 -5 -9 -12
-9 -27 -2 -11 6 -16 16 -13 22 5 7 11 6 19 -5 7 -9 16 -13 20 -9z m1299 10
c-3 -4 -11 -5 -19 -1 -21 7 -19 12 4 10 11 0 18 -5 15 -9z m-1114 -3 c0 -2
-10 -9 -22 -15 -22 -11 -22 -10 -4 4 21 17 26 19 26 11z m380 0 c0 -2 -10 -9
-22 -15 -22 -11 -22 -10 -4 4 21 17 26 19 26 11z m110 0 c0 -2 -10 -9 -22 -15
-22 -11 -22 -10 -4 4 21 17 26 19 26 11z m-290 -31 c0 -2 -9 0 -20 6 -11 6
-20 13 -20 16 0 2 9 0 20 -6 11 -6 20 -13 20 -16z m370 0 c0 -2 -9 0 -20 6
-11 6 -20 13 -20 16 0 2 9 0 20 -6 11 -6 20 -13 20 -16z m-550 11 c0 -2 -10
-9 -22 -15 -22 -11 -22 -10 -4 4 21 17 26 19 26 11z m280 -18 c13 -5 13 -6 -1
-6 -8 -1 -24 6 -35 15 -19 15 -19 15 1 6 11 -5 27 -12 35 -15z m636 7 c19 -15
19 -15 -1 -6 -11 5 -27 12 -35 15 -13 5 -13 6 1 6 8 1 24 -6 35 -15z m-1380
-6 c4 -7 4 -10 -1 -6 -4 4 -14 0 -21 -10 -7 -9 -16 -13 -21 -9 -4 5 1 15 11
23 24 17 23 17 32 2z m308 -9 c-3 -5 -10 -7 -15 -3 -5 3 -7 10 -3 15 3 5 10 7
15 3 5 -3 7 -10 3 -15z m1011 11 c-3 -5 -12 -10 -18 -10 -7 0 -6 4 3 10 19 12
23 12 15 0z m-950 -10 c-3 -5 -12 -10 -18 -10 -7 0 -6 4 3 10 19 12 23 12 15
0z m495 5 c0 -2 -10 -9 -22 -15 -22 -11 -22 -10 -4 4 21 17 26 19 26 11z m200
-21 c0 -2 -9 0 -20 6 -11 6 -20 13 -20 16 0 2 9 0 20 -6 11 -6 20 -13 20 -16z
m-733 -6 c2 -17 0 -19 -7 -8 -5 8 -6 18 -4 22 8 12 10 10 11 -14z m389 -104
l0 -99 -3 95 c-3 83 -6 97 -26 114 l-22 18 25 -14 c24 -15 25 -20 26 -114z
m724 100 c0 -2 -9 0 -20 6 -11 6 -20 13 -20 16 0 2 9 0 20 -6 11 -6 20 -13 20
-16z m-1058 3 c-6 -7 -13 -40 -15 -72 l-3 -60 -2 61 c-1 36 3 65 10 72 16 16
23 15 10 -1z m1328 8 c0 -2 -10 -9 -22 -15 -22 -11 -22 -10 -4 4 21 17 26 19
26 11z m-481 -28 c-13 -13 -26 -21 -29 -19 -5 4 38 42 48 42 3 0 -6 -10 -19
-23z m246 -5 c-3 -3 -11 0 -18 7 -9 10 -8 11 6 5 10 -3 15 -9 12 -12z m-1538
-24 c-3 -7 -5 -2 -5 12 0 14 2 19 5 13 2 -7 2 -19 0 -25z m390 -10 c-3 -7 -5
-2 -5 12 0 14 2 19 5 13 2 -7 2 -19 0 -25z m460 -20 c-2 -13 -4 -5 -4 17 -1
22 1 32 4 23 2 -10 2 -28 0 -40z m846 32 c-3 -12 -8 -19 -11 -16 -5 6 5 36 12
36 2 0 2 -9 -1 -20z m-1696 -42 c-3 -8 -6 -5 -6 6 -1 11 2 17 5 13 3 -3 4 -12
1 -19z m390 -85 c-2 -21 -4 -6 -4 32 0 39 2 55 4 38 2 -18 2 -50 0 -70z m896
-23 c11 -13 10 -13 -5 -1 -14 10 -18 26 -16 70 l2 56 3 -55 c3 -30 10 -61 16
-70z m409 53 c2 -23 0 -39 -4 -37 -5 3 -7 29 -7 57 1 56 6 48 11 -20z m-845
-25 c-2 -13 -4 -3 -4 22 0 25 2 35 4 23 2 -13 2 -33 0 -45z m-404 -48 c10 -13
10 -13 -5 -1 -12 9 -17 26 -16 50 l1 36 4 -35 c3 -19 10 -42 16 -50z m422 10
c3 -6 -1 -7 -9 -4 -18 7 -21 14 -7 14 6 0 13 -4 16 -10z m905 -16 c0 -2 -9 0
-20 6 -11 6 -20 13 -20 16 0 2 9 0 20 -6 11 -6 20 -13 20 -16z m-270 11 c0 -2
-10 -9 -22 -15 -22 -11 -22 -10 -4 4 21 17 26 19 26 11z m-1445 -27 c5 4 5 1
1 -6 -5 -9 -12 -9 -27 -2 -11 6 -16 16 -13 22 5 7 11 6 19 -5 7 -9 16 -13 20
-9z m324 1 c-16 -10 -23 -4 -14 10 3 6 11 8 17 5 6 -4 5 -9 -3 -15z m561 -15
c0 -2 -13 2 -30 11 -16 9 -30 18 -30 21 0 2 14 -2 30 -11 17 -9 30 -18 30 -21z
m420 10 c0 -2 -9 0 -20 6 -11 6 -20 13 -20 16 0 2 9 0 20 -6 11 -6 20 -13 20
-16z m-910 -10 c0 -2 -9 0 -20 6 -11 6 -20 13 -20 16 0 2 9 0 20 -6 11 -6 20
-13 20 -16z m70 -10 c0 -2 -9 0 -20 6 -11 6 -20 13 -20 16 0 2 9 0 20 -6 11
-6 20 -13 20 -16z m340 0 c0 -2 -9 0 -20 6 -11 6 -20 13 -20 16 0 2 9 0 20 -6
11 -6 20 -13 20 -16z m576 11 c-11 -8 -27 -15 -35 -15 -9 1 -2 7 14 15 39 18
44 18 21 0z m-1326 -26 c0 -6 5 -7 12 -3 7 4 8 3 4 -4 -8 -14 -46 2 -46 19 0
6 -5 7 -12 3 -7 -4 -8 -3 -4 4 8 14 46 -2 46 -19z m213 10 c-8 -8 -13 -7 -18
2 -5 8 -4 10 3 5 7 -4 12 -2 12 5 0 7 3 9 7 6 4 -4 2 -12 -4 -18z m437 16 c0
-2 -10 -9 -22 -15 -22 -11 -22 -10 -4 4 21 17 26 19 26 11z m310 0 c0 -2 -10
-9 -22 -15 -22 -11 -22 -10 -4 4 21 17 26 19 26 11z m130 1 c0 -2 -7 -7 -16
-10 -8 -3 -12 -2 -9 4 6 10 25 14 25 6z m-210 -32 c0 -2 -9 0 -20 6 -11 6 -20
13 -20 16 0 2 9 0 20 -6 11 -6 20 -13 20 -16z m-694 4 c4 -7 3 -8 -4 -4 -7 4
-12 2 -12 -4 0 -6 -4 -9 -9 -6 -5 3 -12 -1 -15 -10 -3 -8 -10 -13 -15 -10 -5
3 -11 -1 -15 -9 -3 -8 -11 -12 -18 -10 -10 4 -13 -7 -12 -42 1 -41 0 -42 -3
-9 -4 40 -44 91 -59 77 -4 -3 -4 0 1 8 7 12 10 11 20 -2 7 -9 15 -14 18 -10 4
3 7 1 7 -6 0 -8 9 -7 30 4 17 9 30 13 30 10 0 -3 9 4 20 15 23 23 26 24 36 8z
m1314 8 c0 -2 -7 -7 -16 -10 -8 -3 -12 -2 -9 4 6 10 25 14 25 6z m-1020 -32
c0 -2 -9 0 -20 6 -11 6 -20 13 -20 16 0 2 9 0 20 -6 11 -6 20 -13 20 -16z
m115 16 c-3 -5 -12 -10 -18 -10 -7 0 -6 4 3 10 19 12 23 12 15 0z m225 -16 c0
-2 -9 0 -20 6 -11 6 -20 13 -20 16 0 2 9 0 20 -6 11 -6 20 -13 20 -16z m370 0
c0 -2 -9 0 -20 6 -11 6 -20 13 -20 16 0 2 9 0 20 -6 11 -6 20 -13 20 -16z
m-675 6 c-3 -5 -12 -10 -18 -10 -7 0 -6 4 3 10 19 12 23 12 15 0z m925 -5 c0
-2 -10 -9 -22 -15 -22 -11 -22 -10 -4 4 21 17 26 19 26 11z m160 -31 c0 -2 -9
0 -20 6 -11 6 -20 13 -20 16 0 2 9 0 20 -6 11 -6 20 -13 20 -16z m-712 -121
c-3 -104 -5 -117 -23 -127 -18 -10 -18 -10 -3 3 15 11 18 30 18 124 0 92 -3
112 -17 124 -16 13 -16 13 5 3 22 -11 23 -15 20 -127z m72 133 c0 -2 -12 -11
-27 -20 l-28 -17 24 20 c23 21 31 25 31 17z m310 -28 c0 -6 -6 -5 -15 2 -8 7
-15 14 -15 16 0 2 7 1 15 -2 8 -4 15 -11 15 -16z m120 17 c0 -2 -10 -9 -22
-15 -22 -11 -22 -10 -4 4 21 17 26 19 26 11z m-53 -72 c-3 -10 -5 -2 -5 17 0
19 2 27 5 18 2 -10 2 -26 0 -35z m26 -157 l22 -18 -25 14 c-22 14 -25 22 -26
79 l-1 64 4 -60 c3 -47 9 -64 26 -79z m-1261 -14 c8 -9 7 -11 -6 -6 -12 5 -16
18 -14 53 l1 46 4 -40 c3 -22 9 -46 15 -53z m868 -18 c0 -2 -9 0 -20 6 -11 6
-20 13 -20 16 0 2 9 0 20 -6 11 -6 20 -13 20 -16z m-900 11 c0 -2 -10 -9 -22
-15 -22 -11 -22 -10 -4 4 21 17 26 19 26 11z m1520 0 c0 -2 -10 -9 -22 -15
-22 -11 -22 -10 -4 4 21 17 26 19 26 11z m-1810 -41 c0 -2 -13 2 -30 11 -16 9
-30 18 -30 21 0 2 14 -2 30 -11 17 -9 30 -18 30 -21z m1160 10 c0 -2 -9 0 -20
6 -11 6 -20 13 -20 16 0 2 9 0 20 -6 11 -6 20 -13 20 -16z m510 0 c0 -2 -9 0
-20 6 -11 6 -20 13 -20 16 0 2 9 0 20 -6 11 -6 20 -13 20 -16z m-1270 -10 c0
-2 -9 0 -20 6 -11 6 -20 13 -20 16 0 2 9 0 20 -6 11 -6 20 -13 20 -16z m840 0
c0 -2 -9 0 -20 6 -11 6 -20 13 -20 16 0 2 9 0 20 -6 11 -6 20 -13 20 -16z
m-1000 11 c0 -2 -13 -11 -30 -20 -38 -19 -40 -11 -2 9 31 17 32 18 32 11z
m830 0 c0 -2 -10 -9 -22 -15 -22 -11 -22 -10 -4 4 21 17 26 19 26 11z m476
-11 c19 -15 19 -15 -1 -6 -11 5 -27 12 -35 15 -13 5 -13 6 1 6 8 1 24 -6 35
-15z m214 11 c0 -2 -10 -9 -22 -15 -22 -11 -22 -10 -4 4 21 17 26 19 26 11z
m-1710 -41 c0 -2 -9 0 -20 6 -11 6 -20 13 -20 16 0 2 9 0 20 -6 11 -6 20 -13
20 -16z m1315 16 c-3 -5 -12 -10 -18 -10 -7 0 -6 4 3 10 19 12 23 12 15 0z
m105 5 c0 -2 -10 -9 -22 -15 -22 -11 -22 -10 -4 4 21 17 26 19 26 11z m-1000
-31 c0 -2 -9 0 -20 6 -11 6 -20 13 -20 16 0 2 9 0 20 -6 11 -6 20 -13 20 -16z
m506 11 c-1 -8 -6 -18 -11 -22 -4 -4 -5 -2 -1 5 9 15 1 15 -25 2 -10 -6 -19
-8 -19 -6 0 4 47 33 57 36 1 0 0 -7 -1 -15z m346 1 c7 4 8 3 4 -4 -10 -16 -18
-15 -42 4 -18 14 -18 15 4 4 12 -6 28 -8 34 -4z m578 9 c0 -2 -10 -9 -22 -15
-22 -11 -22 -10 -4 4 21 17 26 19 26 11z m-1744 -18 c-11 -7 -27 -19 -36 -28
-16 -15 -18 -15 -28 2 -9 15 -9 17 2 13 8 -3 27 1 43 10 33 18 46 20 19 3z
m1124 -23 c0 -2 -9 0 -20 6 -11 6 -20 13 -20 16 0 2 9 0 20 -6 11 -6 20 -13
20 -16z m120 11 c0 -2 -10 -9 -22 -15 -22 -11 -22 -10 -4 4 21 17 26 19 26 11z
m280 -31 c0 -2 -9 0 -20 6 -11 6 -20 13 -20 16 0 2 9 0 20 -6 11 -6 20 -13 20
-16z m150 21 c0 -2 -10 -9 -22 -15 -22 -11 -22 -10 -4 4 21 17 26 19 26 11z
m-903 -37 c-3 -7 -5 -2 -5 12 0 14 2 19 5 13 2 -7 2 -19 0 -25z m420 -25 c-3
-10 -5 -2 -5 17 0 19 2 27 5 18 2 -10 2 -26 0 -35z m-50 15 c-3 -8 -6 -5 -6 6
-1 11 2 17 5 13 3 -3 4 -12 1 -19z m478 -72 c0 -52 -3 -92 -7 -89 -15 9 -9
183 6 183 1 0 1 -42 1 -94z m-1668 -33 c-2 -21 -4 -4 -4 37 0 41 2 58 4 38 2
-21 2 -55 0 -75z m1190 40 c-3 -10 -5 -2 -5 17 0 19 2 27 5 18 2 -10 2 -26 0
-35z m-370 -20 c-3 -10 -5 -2 -5 17 0 19 2 27 5 18 2 -10 2 -26 0 -35z m420
-35 c-2 -18 -4 -6 -4 27 0 33 2 48 4 33 2 -15 2 -42 0 -60z m-420 -50 c-2 -13
-4 -5 -4 17 -1 22 1 32 4 23 2 -10 2 -28 0 -40z m370 -5 c-3 -10 -5 -4 -5 12
0 17 2 24 5 18 2 -7 2 -21 0 -30z m384 4 c-10 -9 -11 -8 -5 6 3 10 9 15 12 12
3 -3 0 -11 -7 -18z m-1553 -27 c4 0 17 -7 28 -15 16 -13 13 -13 -15 0 -27 13
-39 15 -60 6 -26 -11 -26 -11 -3 5 12 9 22 24 23 33 0 11 3 9 9 -6 5 -13 13
-23 18 -23z m1702 4 c0 -2 -9 0 -20 6 -11 6 -20 13 -20 16 0 2 9 0 20 -6 11
-6 20 -13 20 -16z m-929 3 c-6 -8 -8 -17 -4 -21 4 -4 -1 -4 -11 0 -13 5 -17 4
-12 -4 5 -8 1 -10 -10 -5 -11 4 -15 3 -10 -5 3 -6 2 -13 -3 -16 -5 -4 -8 1 -7
9 1 9 16 24 32 35 36 23 40 24 25 7z m519 -23 c0 -2 -13 2 -30 11 -16 9 -30
18 -30 21 0 2 14 -2 30 -11 17 -9 30 -18 30 -21z m-140 21 c0 -2 -10 -9 -22
-15 -22 -11 -22 -10 -4 4 21 17 26 19 26 11z m330 -20 c0 -2 -10 -9 -22 -15
-22 -11 -22 -10 -4 4 21 17 26 19 26 11z m-1560 -10 c0 -2 -10 -9 -22 -15 -22
-11 -22 -10 -4 4 21 17 26 19 26 11z m930 -21 c0 -2 -9 0 -20 6 -11 6 -20 13
-20 16 0 2 9 0 20 -6 11 -6 20 -13 20 -16z m-740 -20 c0 -2 -13 2 -30 11 -16
9 -30 18 -30 21 0 2 14 -2 30 -11 17 -9 30 -18 30 -21z m1060 31 c0 -2 -13
-11 -30 -20 -38 -19 -40 -11 -2 9 31 17 32 18 32 11z m-494 -21 c-3 -21 -33
-39 -33 -20 0 8 7 12 14 9 8 -3 13 -2 12 3 -2 13 0 24 5 24 2 0 3 -7 2 -16z
m574 -10 c0 -2 -9 0 -20 6 -11 6 -20 13 -20 16 0 2 9 0 20 -6 11 -6 20 -13 20
-16z m-1380 11 c0 -2 -13 -11 -30 -20 -38 -19 -40 -11 -2 9 31 17 32 18 32 11z
m1065 -5 c3 -6 -1 -7 -9 -4 -18 7 -21 14 -7 14 6 0 13 -4 16 -10z m654 6 c-2
-2 -15 -9 -29 -15 -24 -11 -24 -11 -6 3 16 13 49 24 35 12z m-962 -31 c0 -8
-4 -12 -9 -9 -5 3 -6 10 -3 15 9 13 12 11 12 -6z m288 5 c3 -6 -1 -7 -9 -4
-18 7 -21 14 -7 14 6 0 13 -4 16 -10z m60 -8 c-3 -3 -11 0 -18 7 -9 10 -8 11
6 5 10 -3 15 -9 12 -12z m125 13 c0 -2 -10 -9 -22 -15 -22 -11 -22 -10 -4 4
21 17 26 19 26 11z m220 -31 c0 -2 -13 2 -30 11 -16 9 -30 18 -30 21 0 2 14
-2 30 -11 17 -9 30 -18 30 -21z m210 21 c0 -2 -10 -9 -22 -15 -22 -11 -22 -10
-4 4 21 17 26 19 26 11z m-927 -30 c-7 -21 -12 -19 -10 4 0 11 5 18 9 15 4 -3
5 -11 1 -19z m366 -18 c-1 -20 -2 -20 -6 -2 -3 11 -13 25 -22 33 -14 11 -13
12 7 2 14 -7 22 -19 21 -33z"/>
</g>
</svg>
