<?xml version="1.0" standalone="no"?>
<!DOCTYPE svg PUBLIC "-//W3C//DTD SVG 20010904//EN"
 "http://www.w3.org/TR/2001/REC-SVG-20010904/DTD/svg10.dtd">
<svg version="1.0" xmlns="http://www.w3.org/2000/svg"
 width="200.000000pt" height="200.000000pt" viewBox="0 0 200.000000 200.000000"
 preserveAspectRatio="xMidYMid meet">
<metadata>
Created by potrace 1.16, written by Peter Selinger 2001-2019
</metadata>
<g transform="translate(0.000000,200.000000) scale(0.100000,-0.100000)"
fill="#000000" stroke="none">
<path d="M0 1967 c0 -31 5 -36 99 -90 l99 -56 96 55 c91 53 96 58 96 90 l0 34
-195 0 -195 0 0 -33z"/>
<path d="M412 1963 c3 -35 7 -40 95 -90 l92 -53 93 54 c88 51 93 56 96 90 l3
36 -191 0 -191 0 3 -37z"/>
<path d="M812 1964 c3 -34 8 -39 96 -90 l93 -54 95 56 c90 53 94 57 94 90 l0
34 -191 0 -190 0 3 -36z"/>
<path d="M1212 1964 c3 -34 8 -39 96 -90 l93 -54 92 53 c88 50 92 55 95 90 l3
37 -191 0 -191 0 3 -36z"/>
<path d="M1610 1966 c0 -32 4 -37 96 -90 l97 -56 91 53 c86 50 91 55 94 90 l3
37 -190 0 -191 0 0 -34z"/>
<path d="M0 1695 c0 -119 4 -215 8 -213 4 2 47 25 95 52 l87 50 0 110 0 111
-87 50 c-47 28 -90 52 -95 53 -4 2 -8 -94 -8 -213z"/>
<path d="M297 1859 l-88 -51 3 -114 3 -115 91 -53 91 -54 97 56 96 57 0 110 0
111 -91 52 c-50 29 -96 52 -103 52 -6 0 -51 -23 -99 -51z"/>
<path d="M698 1858 l-88 -51 0 -113 0 -112 89 -51 c48 -28 93 -51 100 -51 6 0
52 23 101 51 l90 51 0 112 0 111 -90 53 c-49 28 -95 52 -102 52 -7 0 -52 -24
-100 -52z"/>
<path d="M1098 1858 l-88 -50 0 -113 0 -113 90 -51 c49 -28 95 -51 101 -51 6
0 51 23 100 51 l89 51 0 113 0 113 -90 51 c-49 28 -96 51 -102 50 -7 0 -52
-23 -100 -51z"/>
<path d="M1498 1857 l-88 -52 0 -111 0 -112 90 -51 c49 -28 95 -51 101 -51 7
0 52 23 100 51 l89 51 0 113 0 113 -89 51 c-48 28 -95 51 -102 50 -8 0 -53
-23 -101 -52z"/>
<path d="M1898 1857 l-88 -51 0 -111 0 -111 87 -50 c48 -27 91 -50 95 -52 4
-2 8 93 8 212 0 119 -3 216 -7 215 -5 0 -47 -24 -95 -52z"/>
<path d="M98 1512 l-98 -56 0 -108 0 -107 94 -55 c52 -31 98 -56 102 -56 4 0
49 24 101 53 l93 52 0 112 0 111 -77 45 c-43 24 -87 49 -98 54 -16 9 -37 1
-117 -45z"/>
<path d="M503 1514 l-93 -55 0 -113 0 -112 87 -50 c48 -27 91 -51 95 -52 5 -2
51 20 103 50 l95 53 0 112 0 111 -96 56 c-52 31 -96 56 -97 56 -1 -1 -44 -25
-94 -56z"/>
<path d="M905 1515 l-90 -53 -3 -113 -2 -114 91 -52 c49 -29 94 -53 99 -53 4
0 49 24 99 52 l92 53 -3 113 -3 114 -93 54 c-52 30 -94 54 -95 53 -1 0 -42
-25 -92 -54z"/>
<path d="M1303 1513 l-93 -55 0 -111 0 -112 95 -53 c52 -30 98 -52 103 -50 4
1 47 25 95 52 l88 50 -3 115 -3 115 -90 52 c-49 29 -92 53 -95 53 -3 0 -47
-25 -97 -56z"/>
<path d="M1703 1513 l-93 -55 0 -112 0 -111 93 -52 c52 -29 97 -53 101 -53 4
0 48 24 97 52 l90 52 -3 115 -3 115 -90 52 c-49 29 -92 53 -95 53 -3 -1 -47
-26 -97 -56z"/>
<path d="M0 1000 l0 -219 93 53 92 54 0 112 0 112 -92 54 -93 53 0 -219z"/>
<path d="M303 1167 l-93 -52 0 -115 0 -115 95 -53 94 -54 96 57 95 56 0 109 0
109 -94 56 c-52 30 -96 55 -98 55 -1 0 -45 -24 -95 -53z"/>
<path d="M703 1167 l-93 -52 0 -115 0 -115 95 -53 95 -53 92 54 93 53 0 114 0
114 -90 52 c-49 29 -92 53 -95 53 -3 0 -47 -23 -97 -52z"/>
<path d="M1105 1167 l-90 -53 0 -114 0 -115 93 -53 92 -54 93 54 92 53 0 115
0 114 -90 53 c-49 29 -92 53 -95 53 -3 0 -45 -24 -95 -53z"/>
<path d="M1505 1166 l-90 -52 0 -114 0 -114 93 -54 92 -54 95 54 95 53 0 115
0 115 -94 53 c-52 28 -96 52 -98 52 -1 -1 -43 -25 -93 -54z"/>
<path d="M1903 1164 l-93 -55 0 -109 0 -109 93 -55 92 -54 3 109 c1 60 1 158
0 218 l-3 109 -92 -54z"/>
<path d="M93 814 l-93 -55 0 -107 0 -108 96 -55 c53 -29 102 -53 108 -51 6 2
50 26 99 54 l87 50 0 111 0 112 -93 53 c-52 28 -98 52 -103 52 -5 -1 -51 -25
-101 -56z"/>
<path d="M498 817 l-88 -51 0 -113 0 -112 94 -56 94 -55 96 56 96 56 0 112 0
111 -84 48 c-47 27 -93 50 -103 52 -10 2 -57 -19 -105 -48z"/>
<path d="M897 817 l-87 -52 2 -114 3 -113 93 -54 92 -53 93 53 92 54 3 114 3
113 -92 53 c-50 28 -96 52 -103 51 -6 0 -50 -24 -99 -52z"/>
<path d="M1303 817 l-93 -52 0 -111 0 -112 96 -56 96 -56 94 55 94 56 0 112 0
112 -90 53 c-49 28 -93 52 -97 52 -4 0 -50 -24 -100 -53z"/>
<path d="M1703 817 l-93 -52 0 -112 0 -111 78 -45 c42 -24 86 -49 98 -55 17
-9 35 -2 110 42 l89 52 3 115 3 115 -90 52 c-49 28 -93 52 -98 52 -4 0 -50
-24 -100 -53z"/>
<path d="M303 473 l-93 -55 0 -113 0 -113 89 -51 c48 -28 93 -51 99 -51 5 0
51 23 101 52 l91 52 0 111 0 111 -62 36 c-35 19 -79 45 -98 56 l-35 20 -92
-55z"/>
<path d="M703 473 l-93 -55 0 -113 0 -113 89 -51 c49 -28 94 -51 101 -51 6 0
52 23 101 52 l89 52 0 112 0 112 -57 32 c-32 18 -76 43 -98 55 l-40 22 -92
-54z"/>
<path d="M0 305 c0 -119 4 -215 8 -213 4 2 47 25 95 52 l87 50 0 111 0 111
-87 50 c-48 27 -91 51 -95 52 -4 2 -8 -94 -8 -213z"/>
<path d="M1098 468 l-88 -53 0 -111 0 -112 90 -51 c49 -28 95 -51 102 -51 6 0
51 23 100 52 l88 52 0 112 0 112 -89 51 c-48 28 -95 51 -102 51 -8 0 -53 -24
-101 -52z"/>
<path d="M1498 467 l-88 -51 0 -111 0 -111 89 -52 c49 -29 95 -52 101 -52 7 0
52 23 101 51 l89 51 0 113 0 113 -89 51 c-48 28 -95 51 -102 51 -8 -1 -53 -24
-101 -53z"/>
<path d="M1898 467 l-88 -52 0 -111 0 -110 87 -50 c48 -27 91 -50 95 -52 4 -2
8 93 8 212 0 119 -3 216 -7 215 -5 0 -47 -23 -95 -52z"/>
<path d="M98 122 c-93 -53 -98 -58 -98 -89 l0 -33 195 0 195 0 0 34 c0 33 -4
37 -92 88 -51 29 -95 54 -98 55 -3 1 -49 -24 -102 -55z"/>
<path d="M503 124 c-89 -52 -93 -56 -93 -89 l0 -35 191 0 190 0 -3 36 c-3 34
-8 39 -96 90 -52 30 -94 54 -95 54 -1 -1 -44 -25 -94 -56z"/>
<path d="M905 125 c-85 -49 -90 -55 -93 -89 l-3 -36 191 0 191 0 -3 36 c-3 34
-8 39 -96 90 -52 30 -94 54 -95 53 -1 0 -42 -24 -92 -54z"/>
<path d="M1305 125 c-85 -49 -90 -55 -93 -89 l-3 -36 191 0 191 0 -3 37 c-3
35 -8 40 -93 90 -49 28 -92 52 -95 52 -3 -1 -45 -24 -95 -54z"/>
<path d="M1703 123 c-88 -52 -93 -57 -93 -89 l0 -34 191 0 190 0 -3 37 c-3 36
-7 40 -93 90 -49 29 -92 52 -95 52 -3 -1 -47 -26 -97 -56z"/>
</g>
</svg>
