<?xml version="1.0" standalone="no"?>
<!DOCTYPE svg PUBLIC "-//W3C//DTD SVG 20010904//EN"
 "http://www.w3.org/TR/2001/REC-SVG-20010904/DTD/svg10.dtd">
<svg version="1.0" xmlns="http://www.w3.org/2000/svg"
 width="200.000000pt" height="200.000000pt" viewBox="0 0 200.000000 200.000000"
 preserveAspectRatio="xMidYMid meet">
<metadata>
Created by potrace 1.16, written by Peter Selinger 2001-2019
</metadata>
<g transform="translate(0.000000,200.000000) scale(0.100000,-0.100000)"
fill="#000000" stroke="none">
<path d="M0 1980 c0 -11 5 -20 10 -20 6 0 10 9 10 20 0 11 -4 20 -10 20 -5 0
-10 -9 -10 -20z"/>
<path d="M30 1955 c0 -32 3 -44 12 -39 7 4 8 3 4 -4 -4 -7 -14 -12 -21 -12
-23 0 -26 -32 -23 -225 l3 -180 27 0 c15 0 33 -6 40 -13 11 -11 10 -12 -6 -6
-13 5 -17 4 -12 -4 3 -6 2 -13 -3 -17 -6 -3 -8 4 -6 15 2 11 0 18 -6 15 -5 -4
-9 -17 -9 -31 0 -15 -6 -24 -15 -24 -12 0 -15 -15 -15 -79 0 -44 5 -83 10 -86
6 -4 10 7 10 26 0 46 7 33 12 -23 4 -38 1 -51 -14 -64 -16 -16 -18 -35 -18
-204 0 -173 1 -188 20 -205 11 -10 17 -22 14 -26 -3 -5 2 -6 11 -3 13 5 13 9
3 23 -12 14 -11 15 5 2 9 -7 17 -15 17 -16 0 -2 -16 -13 -35 -25 l-35 -22 0
-79 c0 -72 12 -104 23 -61 3 9 5 -3 6 -27 1 -40 2 -42 19 -30 16 13 16 13 0
-6 -9 -11 -17 -24 -16 -28 0 -5 -4 -12 -8 -15 -4 -4 -4 -2 0 5 3 6 2 14 -3 17
-17 11 -21 -27 -21 -210 l0 -184 24 -10 c13 -5 28 -15 32 -22 6 -10 4 -10 -9
1 -15 12 -17 11 -17 -8 0 -12 -7 -24 -15 -27 -8 -4 -15 -15 -15 -25 0 -18 21
-19 784 -19 618 0 785 3 789 13 4 9 6 9 6 0 1 -10 50 -13 211 -13 194 0 210 1
210 18 0 9 -9 23 -20 30 -13 8 -17 18 -13 29 6 16 5 17 -12 3 -13 -10 -16 -11
-11 -2 4 7 19 17 32 22 l24 10 -2 197 c-2 152 -6 197 -15 195 -9 -1 -13 10
-13 33 0 25 4 35 16 35 12 0 15 15 13 89 -1 65 -5 88 -14 85 -6 -3 -17 1 -23
9 -9 11 -6 19 13 37 25 23 25 24 25 211 0 116 -4 190 -10 194 -6 4 -8 11 -4
16 3 5 0 8 -6 7 -21 -5 -19 32 1 42 16 9 19 22 19 90 0 73 -12 105 -23 63 -3
-12 -5 -9 -7 10 -5 64 -4 72 10 72 23 0 27 376 5 398 -20 20 -20 67 0 67 8 0
15 9 15 20 0 19 -7 20 -190 20 l-190 0 0 -24 c0 -13 6 -26 12 -28 7 -3 13 -13
13 -24 0 -11 6 -18 14 -16 11 2 12 0 3 -11 -19 -22 -100 -5 -118 25 -5 9 -2 8
11 -2 17 -14 18 -13 12 2 -4 12 2 23 20 36 49 36 24 42 -178 42 l-189 0 0 -25
c0 -14 4 -25 10 -25 5 0 9 -11 8 -25 -1 -14 -8 -25 -16 -25 -7 0 -11 -4 -8 -9
4 -5 -7 -4 -24 2 -38 14 -41 49 -5 65 14 6 25 18 25 27 0 13 -48 15 -390 15
l-390 0 0 -46 c0 -33 3 -43 13 -38 8 5 8 3 -2 -9 -7 -9 -17 -14 -22 -11 -5 3
-9 1 -9 -4 0 -5 -12 -7 -26 -4 -21 4 -25 2 -19 -9 5 -8 -4 -3 -18 10 -15 13
-24 28 -21 32 6 11 15 12 11 2 -1 -5 3 -9 8 -10 6 -2 10 4 10 12 0 19 35 44
52 38 8 -3 13 3 13 15 0 20 -6 21 -195 22 l-195 1 0 -46z m796 -10 c4 -8 10
-13 14 -10 5 3 7 -2 6 -11 -3 -22 -57 -44 -72 -30 -21 22 -23 45 -6 55 25 15
52 13 58 -4z m48 -24 c3 -5 -2 -15 -12 -22 -15 -12 -16 -12 -5 2 7 9 10 19 6
22 -3 4 -4 7 0 7 3 0 8 -4 11 -9z m400 0 c3 -4 -4 -17 -17 -27 -22 -19 -22
-19 -4 2 9 11 14 24 10 27 -3 4 -4 7 0 7 3 0 8 -4 11 -9z m-1203 -14 c-6 -8
-9 -16 -6 -19 3 -3 -3 -11 -12 -19 -16 -13 -17 -12 -4 4 7 9 10 17 6 17 -4 0
-2 7 5 15 7 8 15 15 17 15 3 0 0 -6 -6 -13z m1075 -9 c10 -12 13 -18 7 -14
-12 7 -18 -5 -14 -27 1 -5 -3 -6 -9 -2 -6 3 -8 11 -5 16 3 5 -1 6 -10 3 -12
-5 -13 -9 -4 -20 19 -23 4 -16 -17 8 -10 12 -13 18 -6 14 11 -7 17 5 13 27 -1
5 3 6 9 2 6 -3 8 -11 5 -16 -3 -5 1 -6 10 -3 12 5 13 9 4 20 -19 23 -4 16 17
-8z m390 -13 c-12 -9 -13 -14 -4 -23 7 -7 10 -12 7 -12 -3 0 -14 9 -25 21 -10
11 -14 20 -9 19 6 -2 16 -2 24 -1 11 1 11 4 0 19 -13 16 -12 16 4 3 17 -13 17
-16 3 -26z m410 8 c-10 -11 -19 -7 -22 10 -2 15 0 16 12 6 8 -6 12 -14 10 -16z
m-1816 -9 c0 -3 -5 -2 -10 1 -6 4 -19 1 -28 -7 -15 -11 -15 -11 -5 3 7 9 9 19
5 24 -4 4 3 2 16 -4 12 -6 22 -14 22 -17z m594 -5 c-3 -5 -11 -9 -17 -8 -8 0
-8 2 1 6 10 4 10 8 0 21 -12 15 -11 16 4 3 10 -7 15 -17 12 -22z m567 18 c-6
-8 -9 -16 -6 -19 3 -3 -1 -11 -9 -17 -11 -10 -14 -9 -12 2 2 16 25 47 33 47 3
0 0 -6 -6 -13z m-978 -17 c4 0 5 5 1 12 -5 7 -3 8 6 3 10 -6 9 -11 -5 -22 -11
-7 -23 -13 -28 -13 -5 0 -4 -6 2 -14 10 -12 8 -17 -11 -26 -20 -10 -21 -9 -6
3 16 13 16 15 0 31 -9 10 -12 16 -7 15 30 -5 38 1 24 19 -11 14 -11 15 1 5 8
-7 18 -13 23 -13z m143 5 c-1 -8 -5 -17 -8 -21 -5 -4 -4 16 1 34 3 9 9 -1 7
-13z m494 -11 c0 -3 -4 -2 -10 1 -19 12 -32 -6 -14 -19 15 -11 15 -13 0 -13
-9 0 -16 4 -16 9 0 5 -5 6 -10 3 -6 -4 -7 -11 -4 -17 4 -6 -2 -6 -15 1 -24 13
-25 17 -9 27 7 4 8 3 4 -4 -11 -19 9 -14 27 6 10 10 14 22 10 27 -5 4 2 2 15
-4 12 -6 22 -14 22 -17z m937 19 c-4 -3 0 -14 8 -23 13 -14 13 -17 0 -17 -8 0
-12 4 -9 8 2 4 0 10 -6 14 -10 6 -5 25 7 25 4 0 3 -3 0 -7z m-1402 -12 c3 -5
2 -12 -3 -15 -5 -3 -9 1 -9 9 0 17 3 19 12 6z m35 -6 c-15 -18 0 -20 20 -2 12
10 12 9 2 -4 -6 -9 -10 -18 -7 -21 3 -3 -2 -11 -12 -19 -14 -12 -16 -12 -8 0
6 11 4 13 -7 8 -10 -3 -15 -1 -14 8 2 14 25 45 33 45 3 0 0 -7 -7 -15z m149 8
c-3 -20 2 -26 12 -13 8 13 9 12 7 -4 -2 -10 3 -21 11 -24 8 -3 11 0 7 7 -4 6
-5 11 -2 11 16 0 13 -21 -5 -30 -12 -7 -19 -8 -15 -2 3 5 -3 17 -14 27 -11 10
-17 22 -14 26 6 11 14 12 13 2z m1045 -6 c3 3 6 1 6 -6 0 -7 5 -9 13 -5 8 5 8
2 -2 -9 -15 -18 -26 -23 -16 -7 3 6 2 10 -2 10 -5 0 -14 -4 -21 -10 -9 -7 -9
-7 -2 2 6 8 4 16 -8 25 -15 13 -15 13 4 4 12 -6 24 -7 28 -4z m207 -4 c13 -16
12 -17 -3 -4 -10 7 -18 15 -18 17 0 8 8 3 21 -13z m-1780 -6 c-6 -8 -9 -16 -6
-19 3 -3 -3 -11 -12 -19 -16 -13 -17 -12 -4 4 15 20 2 23 -19 5 -12 -11 -12
-10 -2 3 6 9 8 20 4 24 -4 5 -2 6 3 2 6 -3 17 -2 25 4 21 12 24 11 11 -4z
m106 6 c-4 -3 -1 -13 6 -21 8 -11 8 -14 0 -9 -6 4 -14 1 -17 -5 -2 -7 -3 -2
-1 12 4 32 4 30 12 30 3 0 3 -3 0 -7z m840 -37 c0 -11 -4 -12 -19 -3 -10 7
-13 14 -8 15 7 3 6 10 -2 20 -10 14 -9 14 8 -1 11 -9 21 -23 21 -31z m396 24
c4 0 5 5 2 10 -10 16 1 11 19 -9 13 -14 14 -21 5 -27 -7 -4 -10 -3 -5 4 3 6 2
13 -4 17 -5 3 -10 2 -10 -3 0 -5 -7 -9 -15 -9 -8 0 -13 3 -10 5 3 3 -1 12 -7
21 -10 13 -10 14 2 4 8 -7 18 -13 23 -13z m352 1 c-3 -5 -1 -12 4 -15 13 -8
-2 -57 -21 -70 -12 -7 -23 -5 -41 7 -25 16 -25 18 -11 46 10 19 20 28 29 24 8
-3 12 -9 9 -14 -3 -5 2 -6 10 -3 9 3 15 9 14 12 -1 13 2 22 8 22 3 0 3 -4 -1
-9z m-1659 -10 c-3 -5 1 -12 10 -15 8 -3 13 -2 10 3 -3 5 2 12 11 15 10 4 14
4 10 0 -4 -4 3 -19 15 -32 13 -14 17 -22 11 -18 -8 4 -13 1 -13 -8 0 -9 -7
-17 -15 -17 -8 -1 -21 -2 -27 -3 -7 -1 -16 -17 -19 -36 -5 -28 -6 -23 -6 23 0
32 -3 60 -7 64 -3 3 -1 12 5 20 13 15 23 18 15 4z m433 -7 c-7 -8 -6 -15 2
-20 8 -4 9 -3 5 4 -4 7 -2 12 3 12 6 0 11 -6 11 -12 0 -9 3 -8 9 2 6 8 7 18 4
24 -3 5 -1 6 5 2 9 -5 9 -13 0 -29 -7 -12 -12 -26 -13 -31 0 -15 -39 -24 -58
-14 -18 9 -18 10 0 31 16 19 16 20 1 8 -14 -10 -18 -11 -18 -1 0 10 -4 9 -17
-1 -16 -12 -16 -11 0 8 11 13 25 19 35 16 8 -4 13 -2 9 3 -3 5 3 10 13 10 14
0 16 -4 9 -12z m405 4 c-3 -4 -1 -8 5 -8 6 0 15 -9 21 -20 14 -27 -28 -57 -59
-41 -21 11 -21 53 -1 59 6 2 8 7 6 11 -3 4 4 7 14 7 10 0 16 -4 14 -8z m320 1
c3 -3 -8 -5 -23 -4 -16 0 -27 3 -25 7 5 8 40 6 48 -3z m71 -9 c-2 -4 6 -6 20
-5 13 2 30 -4 37 -13 12 -15 11 -16 -4 -3 -16 12 -18 11 -18 -7 0 -12 -5 -24
-12 -28 -45 -28 -92 8 -58 44 10 11 16 23 12 26 -3 4 1 4 11 0 9 -3 15 -9 12
-14z m470 0 c10 -11 16 -20 13 -20 -3 0 -13 9 -23 20 -10 11 -16 20 -13 20 3
0 13 -9 23 -20z m-121 1 c3 -5 -2 -15 -12 -22 -15 -12 -16 -12 -5 2 7 9 10 19
6 22 -3 4 -4 7 0 7 3 0 8 -4 11 -9z m-803 -14 c-6 -8 -7 -18 -3 -22 4 -5 1 -5
-6 -1 -10 6 -10 11 -1 22 6 8 14 14 16 14 3 0 0 -6 -6 -13z m409 9 c0 -2 -8
-10 -17 -17 -16 -13 -17 -12 -4 4 13 16 21 21 21 13z m-1133 -103 c-3 -10 -5
-4 -5 12 0 17 2 24 5 18 2 -7 2 -21 0 -30z m403 0 c0 -7 -4 -13 -10 -13 -5 0
-10 12 -10 28 0 21 2 24 10 12 5 -8 10 -21 10 -27z m790 12 c0 -14 -4 -25 -9
-25 -6 0 -8 36 -2 48 5 10 11 -2 11 -23z m-433 -22 c-3 -10 -5 -4 -5 12 0 17
2 24 5 18 2 -7 2 -21 0 -30z m790 -20 c-3 -10 -5 -4 -5 12 0 17 2 24 5 18 2
-7 2 -21 0 -30z m-1190 -9 c-4 -15 -5 -14 -6 4 -1 15 -5 21 -13 16 -7 -5 -8
-3 -3 5 10 18 28 -2 22 -25z m803 29 c0 -5 -5 -15 -10 -23 -8 -12 -10 -11 -10
8 0 12 5 22 10 22 6 0 10 -3 10 -7z m447 -30 c-3 -10 -5 -4 -5 12 0 17 2 24 5
18 2 -7 2 -21 0 -30z m-1217 -20 c-11 -17 -11 -17 -6 0 3 10 6 24 7 30 0 9 2
9 5 0 3 -7 0 -20 -6 -30z m393 -58 c16 -7 21 -18 20 -37 -2 -21 2 -26 18 -23
24 5 24 3 -2 -21 -13 -12 -19 -14 -17 -5 2 7 -3 16 -11 19 -8 2 -11 0 -8 -5 3
-5 -3 -9 -13 -9 -10 0 -17 3 -14 7 2 4 0 9 -6 11 -14 4 -21 46 -9 53 5 4 10
27 11 53 l1 47 4 -40 c3 -30 10 -43 26 -50z m10 65 c-3 -11 -7 -20 -9 -20 -2
0 -4 9 -4 20 0 11 4 20 9 20 5 0 7 -9 4 -20z m789 -22 c-10 -22 -11 -21 -11
12 -1 26 2 31 11 22 8 -8 8 -17 0 -34z m-1612 11 c0 -5 -4 -9 -10 -9 -5 0 -10
7 -10 16 0 8 5 12 10 9 6 -3 10 -10 10 -16z m-33 -11 c-3 -8 -6 -5 -6 6 -1 11
2 17 5 13 3 -3 4 -12 1 -19z m1253 13 c0 -6 -4 -13 -10 -16 -5 -3 -10 1 -10 9
0 9 5 16 10 16 6 0 10 -4 10 -9z m357 -43 c-3 -7 -5 -2 -5 12 0 14 2 19 5 13
2 -7 2 -19 0 -25z m-752 12 c3 -5 1 -10 -4 -10 -6 0 -11 5 -11 10 0 6 2 10 4
10 3 0 8 -4 11 -10z m-429 -9 c-3 -4 5 -13 19 -19 25 -11 27 -30 7 -54 -6 -8
-9 -18 -5 -22 4 -4 0 -4 -10 0 -9 3 -15 9 -12 13 5 9 -26 8 -41 -2 -6 -3 -11
0 -11 8 0 8 4 12 9 9 4 -3 8 0 8 6 0 6 6 8 13 4 9 -5 9 -4 1 5 -12 13 3 61 19
61 5 0 6 -4 3 -9z m803 -11 c23 0 41 -19 41 -43 0 -17 2 -18 18 -6 15 13 16
12 3 -3 -11 -15 -11 -18 0 -19 8 -1 19 -1 24 0 6 1 2 -5 -7 -15 -16 -16 -16
-18 0 -31 15 -12 14 -13 -6 -3 -18 9 -21 15 -12 25 8 9 6 15 -7 20 -25 11 -53
13 -48 4 3 -4 -2 -9 -9 -12 -10 -4 -13 0 -11 13 2 11 -1 19 -7 17 -13 -3 -20
31 -8 38 5 3 8 11 6 18 -1 7 -1 9 1 5 3 -5 12 -8 22 -8z m-1210 -3 c29 7 63
-59 38 -74 -20 -12 -48 -11 -37 2 7 8 4 11 -11 10 -21 -1 -41 -23 -33 -36 2
-4 0 -11 -6 -14 -6 -4 -10 -3 -9 2 1 4 0 10 -1 13 -9 25 -6 38 8 33 11 -5 13
-3 7 7 -5 9 -4 11 3 6 8 -5 12 5 13 31 0 21 3 33 5 27 3 -7 13 -10 23 -7z
m1639 -9 c7 -7 12 -20 12 -31 0 -10 5 -15 10 -12 6 4 7 11 4 17 -5 7 -2 8 5 4
9 -6 8 -13 -5 -27 -9 -10 -20 -16 -25 -13 -5 3 -17 0 -28 -5 -14 -8 -22 -7
-31 4 -7 8 -9 15 -5 15 4 0 1 8 -6 17 -10 11 -10 14 -1 9 7 -4 12 -2 12 8 0
24 38 34 58 14z m-486 -45 c-1 -4 7 -17 16 -28 17 -20 17 -20 -4 -2 -11 9 -21
24 -21 32 0 8 2 13 5 11 2 -2 4 -8 4 -13z m-820 -10 c-1 -4 7 -17 16 -28 17
-20 17 -20 -4 -2 -11 9 -21 24 -21 32 0 8 2 13 5 11 2 -2 4 -8 4 -13z m429 0
c2 1 -1 -3 -8 -9 -7 -6 -9 -15 -6 -20 4 -5 1 -3 -7 3 -7 7 -15 20 -16 28 -2
11 2 12 16 5 9 -5 19 -8 21 -7z m766 10 c-4 -3 1 -15 10 -26 10 -11 12 -17 6
-13 -12 7 -18 -6 -13 -29 1 -5 -7 -1 -18 8 -22 20 -23 44 -1 58 17 10 25 12
16 2z m172 0 c-3 -21 2 -34 11 -28 6 4 7 11 4 17 -4 7 -2 8 5 4 9 -6 9 -11 0
-22 -6 -7 -15 -11 -21 -8 -5 3 -15 1 -23 -6 -18 -15 -15 11 4 34 15 17 22 20
20 9z m-1626 -20 c-4 -10 -2 -14 4 -10 5 4 18 1 27 -6 17 -12 17 -14 -1 -28
-16 -13 -17 -12 -5 2 15 19 3 27 -36 24 -21 -2 -21 -1 -5 17 20 22 24 23 16 1z
m232 8 c-3 -5 -1 -12 5 -16 7 -4 7 -12 0 -24 -5 -10 -7 -21 -5 -25 3 -3 2 -4
-2 -1 -11 9 -12 35 -1 35 7 0 7 5 -1 13 -6 8 -8 17 -4 20 9 10 15 8 8 -2z
m163 -8 c-5 -7 -14 -10 -19 -7 -16 10 -9 23 10 21 15 -1 17 -4 9 -14z m640 6
c-2 -6 3 -14 11 -17 8 -3 11 0 7 7 -11 17 -1 13 18 -8 13 -14 14 -21 5 -27 -7
-4 -10 -3 -5 4 3 6 2 13 -4 17 -5 3 -10 1 -10 -6 0 -8 -7 -5 -20 6 -11 10 -17
22 -14 26 7 13 14 11 12 -2z m216 2 c3 -5 -2 -15 -12 -22 -15 -12 -16 -12 -5
2 7 9 10 19 6 22 -3 4 -4 7 0 7 3 0 8 -4 11 -9z m241 -11 c10 -11 16 -20 13
-20 -3 0 -13 9 -23 20 -10 11 -16 20 -13 20 3 0 13 -9 23 -20z m-1678 3 c-4
-3 -1 -13 6 -22 11 -14 10 -14 -5 -2 -16 12 -16 31 -1 31 4 0 3 -3 0 -7z
m1000 -11 c-10 -10 -14 -22 -10 -27 5 -4 2 -5 -5 -1 -11 6 -10 12 4 27 9 10
19 19 22 19 3 0 -2 -8 -11 -18z m40 3 c0 -8 -3 -13 -5 -10 -3 3 -12 -1 -21 -7
-10 -8 -9 -4 3 10 23 26 23 26 23 7z m-1006 -12 c13 -16 12 -17 -3 -4 -10 7
-18 15 -18 17 0 8 8 3 21 -13z m599 -9 c0 -2 -9 0 -20 6 -18 10 -24 7 -21 -12
0 -4 -6 -5 -14 -1 -13 5 -13 7 2 18 16 12 53 4 53 -11z m201 9 c13 -16 12 -17
-3 -4 -10 7 -18 15 -18 17 0 8 8 3 21 -13z m1029 14 c0 -2 -10 -12 -22 -23
l-23 -19 19 23 c18 21 26 27 26 19z m-293 -22 c0 -8 -4 -12 -9 -9 -5 3 -6 10
-3 15 9 13 12 11 12 -6z m-1307 2 c0 -2 -10 -12 -22 -23 l-23 -19 19 23 c18
21 26 27 26 19z m20 -12 c-10 -12 -10 -15 4 -15 9 0 16 5 16 11 0 5 5 7 10 4
6 -4 19 -1 28 7 15 12 16 11 3 -4 -11 -15 -11 -18 1 -18 10 0 13 -9 10 -34 -3
-25 -8 -33 -18 -29 -8 3 -15 0 -15 -6 -3 -26 -4 -30 -11 -36 -3 -4 -5 5 -4 19
2 15 -1 29 -5 32 -5 3 -10 -5 -11 -18 0 -13 -4 -3 -7 22 -4 33 -10 44 -21 42
-11 -3 -10 2 4 17 22 24 35 29 16 6z m107 1 c-3 -7 0 -20 6 -27 10 -11 9 -11
-5 0 -15 11 -15 41 -1 41 3 0 3 -6 0 -14z m293 -1 c-10 -12 -10 -15 3 -15 8 0
17 4 19 8 2 5 18 3 37 -5 25 -11 31 -17 22 -26 -6 -6 -11 -25 -12 -41 0 -27
-2 -28 -9 -11 -5 11 -9 17 -9 12 -1 -4 -14 -1 -30 7 -17 9 -28 23 -27 33 0 11
-5 17 -14 15 -11 -3 -10 2 4 17 22 24 35 29 16 6z m125 7 c-3 -3 1 -12 7 -21
10 -13 10 -14 -2 -3 -8 6 -18 12 -23 12 -4 0 -5 -6 -1 -12 5 -9 2 -9 -9 1 -18
15 -23 26 -7 16 6 -3 10 -2 10 3 0 5 7 9 15 9 8 0 13 -3 10 -5z m699 -14 c-4
-6 3 -5 16 2 12 7 20 8 16 2 -3 -5 1 -12 9 -16 20 -7 19 -36 -2 -52 -15 -10
-24 -9 -53 8 -52 31 -52 33 -28 54 l23 19 -20 -24 c-18 -22 -18 -24 -2 -18 12
5 16 3 11 -5 -4 -7 -3 -8 5 -4 6 4 9 11 6 16 -3 5 -1 11 5 15 6 4 7 11 4 17
-4 7 -2 8 5 4 6 -4 8 -12 5 -18z m102 0 c13 -16 14 -19 2 -10 -13 10 -17 10
-21 0 -3 -7 -4 -3 -4 10 1 12 2 22 3 22 0 0 9 -10 20 -22z m284 19 c0 -2 -12
-14 -27 -28 l-28 -24 24 28 c23 25 31 32 31 24z m-810 -11 c0 -2 -8 -10 -17
-17 -16 -13 -17 -12 -4 4 13 16 21 21 21 13z m78 -21 c12 -13 13 -16 2 -10
-12 6 -13 5 -3 -5 9 -10 6 -19 -17 -40 -23 -21 -29 -36 -28 -64 1 -20 -2 -39
-6 -43 -4 -4 -6 18 -5 50 2 46 -1 60 -16 71 -13 9 -15 15 -6 20 6 4 9 12 6 17
-4 5 1 9 10 9 9 0 14 4 11 8 -10 17 35 5 52 -13z m26 6 c14 -15 15 -21 4 -27
-7 -4 -10 -3 -5 1 4 5 0 17 -10 27 -9 10 -14 18 -11 18 3 0 13 -9 22 -19z
m356 -102 c0 -6 -4 -7 -10 -4 -5 3 -10 11 -10 16 0 6 5 7 10 4 6 -3 10 -11 10
-16z m-1593 -21 c-3 -7 -5 -2 -5 12 0 14 2 19 5 13 2 -7 2 -19 0 -25z m400 0
c-3 -7 -5 -2 -5 12 0 14 2 19 5 13 2 -7 2 -19 0 -25z m368 13 c3 -5 1 -12 -5
-16 -5 -3 -10 1 -10 9 0 18 6 21 15 7z m-428 -43 c-3 -8 -6 -5 -6 6 -1 11 2
17 5 13 3 -3 4 -12 1 -19z m33 6 c0 -8 -5 -12 -10 -9 -6 4 -8 11 -5 16 9 14
15 11 15 -7z m430 -14 c0 -5 -5 -10 -11 -10 -5 0 -7 5 -4 10 3 6 8 10 11 10 2
0 4 -4 4 -10z m790 -20 c0 -16 -4 -30 -8 -30 -5 0 -8 14 -8 30 0 17 3 30 8 30
4 0 8 -13 8 -30z m357 -17 c-3 -10 -5 -4 -5 12 0 17 2 24 5 18 2 -7 2 -21 0
-30z m-1184 7 c-3 -11 -7 -20 -9 -20 -2 0 -4 9 -4 20 0 11 4 20 9 20 5 0 7 -9
4 -20z m784 -2 c-3 -8 -6 -5 -6 6 -1 11 2 17 5 13 3 -3 4 -12 1 -19z m-1177
-4 c0 -8 -5 -12 -10 -9 -6 4 -8 11 -5 16 9 14 15 11 15 -7z m27 -6 c-3 -8 -6
-5 -6 6 -1 11 2 17 5 13 3 -3 4 -12 1 -19z m808 -50 c2 -5 3 -13 4 -19 0 -5 7
-7 14 -3 6 4 4 -1 -5 -11 -16 -17 -16 -19 0 -32 15 -13 14 -13 -6 -3 -12 6
-20 15 -17 19 3 5 -5 9 -18 9 -30 0 -55 6 -64 17 -4 4 -2 5 5 1 6 -4 13 -2 13
3 1 6 2 17 3 24 0 6 11 16 24 22 12 5 22 14 23 20 0 9 18 -26 24 -47z m-830
23 c-3 -5 0 -13 6 -17 7 -4 9 -3 5 4 -3 6 -2 13 4 17 5 3 11 1 11 -4 1 -6 2
-17 3 -23 3 -15 -23 -48 -36 -48 -5 0 -7 4 -3 9 3 5 0 13 -6 17 -8 5 -9 3 -4
-6 5 -8 3 -11 -6 -8 -19 6 -24 49 -7 59 18 12 41 11 33 0z m401 0 c-3 -5 2 -8
11 -7 10 0 18 -5 19 -11 1 -7 2 -18 3 -24 0 -5 6 -7 11 -4 6 4 7 11 4 17 -5 7
-2 8 5 3 14 -8 1 -27 -21 -31 -7 -1 -22 -6 -32 -10 -13 -5 -17 -4 -12 4 3 6 1
14 -5 18 -8 4 -9 3 -5 -4 4 -7 2 -12 -4 -12 -6 0 -9 -4 -5 -9 3 -5 0 -13 -6
-17 -7 -4 -9 -3 -5 4 3 6 2 13 -3 16 -10 7 -3 44 12 64 11 14 41 17 33 3z
m822 -3 c14 -17 18 -50 9 -65 -12 -19 3 -16 27 5 21 17 21 17 3 -4 -9 -11 -14
-24 -10 -29 5 -4 -2 -2 -15 4 -12 7 -20 16 -17 22 4 5 1 9 -5 9 -6 0 -8 5 -4
12 4 7 3 8 -5 4 -6 -4 -9 -11 -6 -16 3 -5 -7 -7 -22 -5 -18 2 -27 8 -24 16 2
8 4 21 6 29 1 8 10 14 19 14 8 -1 13 2 10 7 -8 14 22 11 34 -3z m-890 -32
c-14 -10 -15 -15 -5 -26 10 -12 9 -12 -5 -1 -9 7 -22 10 -28 6 -5 -3 -10 -4
-10 -1 0 5 51 35 60 35 3 0 -3 -5 -12 -13z m1209 7 c-4 -3 1 -15 10 -25 10
-11 13 -19 8 -18 -6 2 -16 2 -24 1 -11 -1 -11 -4 0 -18 7 -10 0 -7 -16 7 -17
14 -31 26 -33 26 -2 1 4 4 12 7 9 4 15 2 13 -2 -2 -9 3 -11 24 -11 8 0 9 4 0
13 -10 12 -6 27 7 27 3 0 2 -3 -1 -7z m-1477 -7 c0 -2 -8 -10 -17 -17 -16 -13
-17 -12 -4 4 13 16 21 21 21 13z m-383 -21 c0 -8 -10 -23 -21 -32 -21 -18 -21
-18 -2 5 11 12 16 22 12 22 -4 0 -4 5 -1 10 9 14 12 13 12 -5z m1449 -6 c10
-11 14 -20 9 -19 -27 6 -37 0 -26 -14 9 -11 9 -16 0 -22 -7 -4 -9 -3 -6 3 4 6
0 16 -8 23 -12 10 -15 10 -15 0 0 -8 -3 -10 -6 -7 -4 4 -2 13 4 20 7 8 9 17 5
21 -4 4 1 4 11 0 14 -5 17 -4 12 4 -11 19 -1 14 20 -9z m-1481 2 c3 -5 2 -12
-3 -15 -5 -3 -9 1 -9 9 0 17 3 19 12 6z m286 -8 c13 -16 12 -17 -3 -4 -11 8
-18 9 -18 3 0 -6 7 -15 16 -20 15 -8 15 -10 0 -15 -10 -4 -15 -3 -12 2 3 5 -1
14 -10 21 -12 11 -12 15 -2 21 7 5 14 9 14 9 1 0 8 -8 15 -17z m801 -8 c2 3 5
-2 5 -10 0 -11 -4 -12 -11 -5 -17 17 -29 11 -15 -7 7 -10 2 -8 -12 5 -30 26
-47 29 -28 5 11 -15 11 -16 -1 -5 -17 14 -34 16 -25 2 3 -5 4 -10 1 -10 -19 0
-12 22 11 33 23 13 30 13 48 1 12 -8 24 -12 27 -9z m-1038 -6 c-10 -12 -18
-24 -17 -28 1 -3 0 -8 -2 -9 -2 -2 -3 3 -1 11 2 16 25 47 34 47 3 0 -3 -9 -14
-21z m430 12 c3 -5 -1 -14 -9 -21 -8 -7 -13 -16 -10 -20 3 -5 0 -12 -6 -16 -8
-5 -9 -3 -4 6 6 10 4 12 -7 7 -19 -7 -18 14 1 37 15 18 27 20 35 7z m370 0 c3
-4 -4 -17 -17 -27 l-22 -19 19 23 c23 26 11 29 -18 5 -21 -18 -21 -18 -2 5 20
23 32 27 40 13z m30 0 c3 -4 -4 -17 -17 -27 -22 -19 -22 -19 -4 2 9 11 14 24
10 27 -3 4 -4 7 0 7 3 0 8 -4 11 -9z m400 0 c3 -5 -2 -15 -11 -22 -12 -10 -14
-10 -9 -1 10 17 -4 15 -28 -5 -16 -14 -18 -14 -8 -2 6 9 8 20 4 24 -4 5 -2 6
3 2 6 -3 17 -2 25 4 18 11 18 11 24 0z m-1194 -5 c0 -2 -8 -10 -17 -17 -16
-13 -17 -12 -4 4 13 16 21 21 21 13z m340 0 c0 -2 -8 -10 -17 -17 -16 -13 -17
-12 -4 4 13 16 21 21 21 13z m177 -3 c-4 -3 2 -17 14 -29 15 -16 17 -24 8 -29
-7 -5 -10 -4 -5 3 11 19 -8 19 -26 0 -10 -10 -18 -20 -18 -23 1 -3 -3 -12 -7
-19 -7 -12 -13 -12 -40 -1 -25 11 -30 18 -26 35 8 32 41 45 62 26 20 -18 36
-21 26 -6 -3 6 -1 10 6 10 8 0 9 3 0 13 -10 12 -6 27 7 27 3 0 2 -3 -1 -7z
m60 -7 c0 -9 -6 -12 -16 -8 -14 5 -14 3 -2 -11 20 -25 7 -21 -15 5 -10 12 -14
19 -9 15 6 -3 17 -2 25 4 8 5 15 9 16 9 0 0 1 -6 1 -14z m993 1 c0 -5 8 -3 18
4 9 7 7 2 -6 -12 -12 -14 -19 -29 -15 -34 5 -4 2 -5 -5 0 -10 5 -11 10 -3 18
7 7 6 14 -6 22 -14 11 -14 12 1 12 9 0 16 -5 16 -10z m166 -22 c-12 -9 -13
-14 -3 -25 9 -10 7 -10 -10 1 -12 7 -21 21 -20 31 1 12 5 14 11 8 17 -17 29
-11 15 8 -13 16 -12 16 4 3 17 -13 17 -16 3 -26z m-1579 18 c-4 -3 -1 -13 6
-22 11 -14 10 -14 -5 -2 -16 12 -16 31 -1 31 4 0 3 -3 0 -7z m647 -14 c-10
-12 -18 -24 -17 -28 1 -3 0 -8 -2 -9 -2 -2 -3 3 -1 11 2 16 25 47 34 47 3 0
-3 -9 -14 -21z m416 18 c0 -2 -10 -12 -22 -23 l-23 -19 19 23 c18 21 26 27 26
19z m104 -28 c-3 -5 -11 -9 -17 -8 -8 0 -8 2 1 6 10 4 10 8 0 21 -12 15 -11
16 4 3 10 -7 15 -17 12 -22z m296 28 c0 -2 -10 -12 -22 -23 l-23 -19 19 23
c18 21 26 27 26 19z m-1521 -43 c-6 -7 -8 -18 -5 -23 11 -17 -34 -34 -59 -23
-40 18 -18 65 29 65 16 0 23 4 19 11 -4 6 1 5 10 -3 13 -10 14 -17 6 -27z m35
17 c17 -19 17 -20 -6 -31 -20 -10 -21 -9 -6 3 16 13 16 15 0 30 -9 9 -14 17
-11 17 3 0 14 -9 23 -19z m1153 12 c-4 -3 2 -16 13 -28 l20 -21 -23 -21 c-23
-19 -57 -18 -70 4 -9 15 12 53 35 63 29 11 33 12 25 3z m-1267 -14 c0 -4 -7
-10 -16 -13 -8 -3 -12 -11 -8 -17 4 -8 3 -9 -5 -5 -8 6 -9 12 -2 20 6 7 9 15
6 18 -3 2 2 5 10 5 8 0 15 -4 15 -8z m880 -4 c8 -2 16 -4 18 -4 10 -3 -42 -61
-53 -61 -10 0 -15 -16 -18 -52 l-3 -53 -2 58 c-1 40 -6 59 -16 63 -9 3 -12 12
-8 22 9 25 35 42 52 36 8 -3 22 -7 30 -9z m797 -11 c15 -14 22 -23 16 -19 -7
3 -13 1 -13 -5 0 -6 -6 -18 -14 -26 -8 -8 -12 -23 -9 -36 3 -13 2 -19 -2 -15
-5 4 -10 15 -11 24 -2 9 -10 20 -18 25 -19 11 -21 49 -4 66 17 17 23 15 55
-14z m-1287 12 c0 -2 -8 -10 -17 -17 -16 -13 -17 -12 -4 4 13 16 21 21 21 13z
m1287 -123 c-3 -10 -5 -2 -5 17 0 19 2 27 5 18 2 -10 2 -26 0 -35z m-1214 12
c-7 -21 -13 -19 -13 6 0 11 4 18 10 14 5 -3 7 -12 3 -20z m-23 -6 c0 -5 -4 -9
-10 -9 -5 0 -10 7 -10 16 0 8 5 12 10 9 6 -3 10 -10 10 -16z m1177 -21 c-3 -7
-5 -2 -5 12 0 14 2 19 5 13 2 -7 2 -19 0 -25z m-357 -5 c0 -22 -2 -25 -10 -13
-13 20 -13 40 0 40 6 0 10 -12 10 -27z m-1190 -4 c0 -11 -4 -18 -10 -14 -5 3
-7 12 -3 20 7 21 13 19 13 -6z m345 -9 c-3 -5 2 -10 11 -10 14 0 15 -3 6 -12
-10 -10 -15 -10 -22 2 -8 13 -5 30 6 30 3 0 2 -4 -1 -10z m447 -25 c-2 -19 -6
-35 -8 -35 -2 0 -4 16 -4 35 0 19 4 35 8 35 4 0 6 -16 4 -35z m365 3 c-3 -7
-5 -2 -5 12 0 14 2 19 5 13 2 -7 2 -19 0 -25z m-1220 -10 c-3 -8 -6 -5 -6 6
-1 11 2 17 5 13 3 -3 4 -12 1 -19z m33 8 c0 -8 -4 -18 -10 -21 -5 -3 -10 3
-10 14 0 12 5 21 10 21 6 0 10 -6 10 -14z m421 -29 c-10 -9 -11 -8 -5 6 3 10
9 15 12 12 3 -3 0 -11 -7 -18z m383 -17 c8 0 20 -8 27 -17 12 -15 12 -16 -1
-8 -8 4 -3 -3 13 -18 32 -31 32 -31 10 -48 -16 -13 -17 -12 -4 4 9 12 10 17 2
17 -7 0 -9 5 -5 11 3 6 -5 3 -20 -6 -20 -13 -29 -15 -40 -6 -7 6 -20 9 -28 6
-18 -7 -44 20 -28 30 6 4 9 1 8 -6 -2 -6 3 -14 11 -17 8 -2 11 0 8 5 -4 6 0
19 8 29 8 10 15 30 16 44 2 24 2 24 6 3 2 -13 10 -23 17 -23z m833 8 c-3 -7
-5 -2 -5 12 0 14 2 19 5 13 2 -7 2 -19 0 -25z m-437 -8 c5 0 11 6 13 13 5 10
11 -15 9 -34 -1 -4 4 -6 11 -5 23 2 20 -18 -4 -37 -14 -10 -32 -15 -41 -12
-18 7 -30 53 -16 61 5 3 7 12 4 19 -2 7 -2 16 2 20 4 4 8 0 10 -9 2 -9 7 -16
12 -16z m420 20 c0 -5 -5 -10 -11 -10 -5 0 -7 5 -4 10 3 6 8 10 11 10 2 0 4
-4 4 -10z m-1588 -56 c-2 -11 -10 -25 -17 -33 -12 -12 -17 -12 -30 -1 -13 11
-18 11 -24 1 -6 -9 -11 -8 -21 4 -7 9 -19 14 -27 11 -20 -8 -15 2 7 14 15 8
20 8 18 -1 -2 -6 2 -13 9 -16 6 -2 10 3 8 14 -1 10 7 26 19 35 18 15 24 15 41
4 11 -8 19 -22 17 -32z m395 24 c8 -13 9 -19 12 -39 0 -6 8 -9 16 -6 24 10 26
-9 2 -29 -15 -14 -18 -14 -9 -2 16 20 -3 30 -31 16 -19 -10 -41 -2 -32 12 3 4
-3 7 -11 6 -9 0 -18 7 -19 16 -5 31 55 52 72 26z m1199 4 c6 -4 13 -15 17 -24
8 -22 -27 -48 -55 -40 -16 4 -19 2 -13 -9 8 -12 6 -12 -8 0 -10 8 -15 16 -12
19 3 3 -1 12 -8 21 -11 14 -10 15 7 1 18 -14 19 -13 13 2 -9 26 33 48 59 30z
m-1285 -49 c8 -9 9 -14 3 -10 -17 10 -25 -18 -11 -34 10 -10 8 -10 -6 0 -9 8
-15 16 -12 19 3 3 0 11 -7 19 -9 11 -7 12 7 7 13 -5 16 -4 11 4 -11 18 0 14
15 -5z m795 -9 c1 -9 0 -13 -4 -10 -3 4 -7 14 -8 22 -1 9 0 13 4 10 3 -4 7
-14 8 -22z m-206 -8 c0 -2 -10 -11 -22 -22 l-23 -19 19 23 c23 26 11 29 -18 5
-21 -18 -21 -18 -3 3 9 11 14 24 10 29 -5 4 2 2 15 -4 12 -6 22 -13 22 -15z
m577 17 c-4 -3 -1 -13 5 -21 7 -8 13 -21 14 -29 2 -11 -1 -12 -12 -2 -7 6 -12
15 -9 19 3 5 1 11 -5 15 -10 6 -5 25 7 25 4 0 3 -3 0 -7z m190 -8 c0 -8 -10
-23 -21 -32 -21 -18 -21 -18 -2 5 11 12 16 22 12 22 -4 0 -4 5 -1 10 9 14 12
13 12 -5z m-1801 -21 c1 -9 0 -13 -4 -10 -3 4 -7 14 -8 22 -1 9 0 13 4 10 3
-4 7 -14 8 -22z m184 22 c0 -2 -8 -10 -17 -17 -16 -13 -17 -12 -4 4 13 16 21
21 21 13z m22 -8 c-9 -9 -8 -14 4 -23 14 -10 14 -13 -3 -26 -16 -13 -17 -13
-4 4 15 19 2 24 -16 6 -9 -9 -11 -8 -9 4 2 16 25 47 34 47 3 0 1 -5 -6 -12z
m185 5 c-4 -3 -2 -12 4 -20 6 -7 8 -13 4 -13 -4 0 -1 -8 6 -17 13 -16 12 -17
-3 -5 -10 8 -16 19 -15 24 1 6 -4 13 -12 16 -9 3 -11 0 -6 -8 6 -9 4 -11 -5
-5 -10 6 -9 11 5 22 20 13 33 18 22 6z m239 -11 c1 -7 2 -17 3 -23 0 -5 6 -7
11 -4 16 10 11 -1 -7 -16 -11 -10 -14 -10 -9 -1 4 6 3 12 -1 12 -5 0 -15 -6
-23 -12 -12 -11 -12 -10 -3 2 7 10 8 21 3 30 -5 8 -6 18 -3 23 7 11 28 3 29
-11z m768 5 c3 3 6 4 6 1 0 -3 -10 -13 -22 -24 -19 -15 -20 -16 -9 -1 15 20 2
23 -19 5 -12 -11 -12 -10 -2 3 6 9 8 19 4 24 -4 4 3 3 14 -3 12 -6 24 -8 28
-5z m27 -10 c-7 -7 -6 -14 6 -22 14 -11 14 -12 -1 -12 -9 0 -16 4 -16 9 0 5
-5 6 -10 3 -6 -4 -7 -11 -4 -17 5 -7 2 -8 -5 -3 -9 5 -7 13 8 29 12 12 18 26
14 31 -5 4 -2 5 5 0 10 -5 11 -10 3 -18z m224 3 c10 -11 16 -20 13 -20 -3 0
-13 9 -23 20 -10 11 -16 20 -13 20 3 0 13 -9 23 -20z m-1678 3 c-4 -3 0 -14 8
-23 13 -14 13 -17 0 -17 -8 0 -12 4 -9 8 2 4 0 10 -6 14 -10 6 -5 25 7 25 4 0
3 -3 0 -7z m293 -17 c0 -2 -10 -11 -22 -22 -23 -18 -23 -18 -6 1 16 17 16 19
0 32 -15 13 -14 13 6 3 12 -6 22 -12 22 -14z m952 9 c7 4 5 0 -4 -8 -14 -11
-15 -16 -5 -26 9 -10 8 -11 -6 -5 -10 3 -16 12 -13 19 2 7 -1 19 -7 26 -10 11
-9 11 5 0 9 -7 23 -10 30 -6z m370 -2 c-1 -4 6 -16 15 -25 13 -15 12 -18 -9
-29 -13 -6 -20 -8 -15 -4 4 5 -2 19 -14 31 -16 17 -18 24 -7 30 7 4 10 3 5 -1
-4 -5 0 -17 10 -27 20 -22 41 -24 22 -2 -12 15 -24 52 -12 41 2 -3 5 -9 5 -14z
m188 13 c0 -2 -8 -10 -17 -17 -16 -13 -17 -12 -4 4 13 16 21 21 21 13z m-970
-22 c8 -8 9 -14 4 -13 -23 4 -33 -3 -29 -20 2 -11 -3 -22 -11 -25 -11 -4 -12
-2 -5 13 6 10 8 21 4 24 -3 4 2 9 11 13 9 3 13 10 10 15 -9 15 3 10 16 -7z
m29 2 c9 -11 9 -16 -1 -22 -7 -4 -10 -4 -6 1 4 4 3 14 -3 22 -6 7 -9 13 -6 13
2 0 10 -6 16 -14z m991 11 c0 -2 -10 -12 -22 -23 l-23 -19 19 23 c18 21 26 27
26 19z m22 -9 c-9 -9 -8 -14 4 -23 14 -10 14 -13 -3 -26 -16 -13 -17 -13 -4 4
11 14 11 17 0 18 -8 1 -18 1 -24 -1 -5 -1 -1 8 9 19 11 12 22 21 25 21 3 0 0
-5 -7 -12z m-1265 -13 c0 -8 -4 -12 -9 -9 -5 3 -6 10 -3 15 9 13 12 11 12 -6z
m160 8 c-4 -3 -1 -13 5 -22 10 -13 10 -14 -2 -3 -18 16 -27 15 -27 -2 0 -8 5
-14 10 -13 22 5 14 -35 -9 -45 -20 -10 -28 -8 -42 7 -9 10 -11 14 -4 10 11 -6
11 -3 1 13 -7 12 -18 18 -24 14 -5 -3 -4 2 4 11 7 9 17 14 22 11 5 -2 21 2 36
10 31 17 40 20 30 9z m339 -12 c-3 -4 8 -8 24 -8 16 0 27 4 24 8 -2 4 -1 10 4
13 11 7 9 -45 -2 -63 -7 -11 -6 -12 5 -6 12 8 12 6 0 -8 -7 -9 -22 -17 -32
-17 -22 0 -34 16 -38 51 -1 8 -7 7 -18 -2 -10 -7 -8 -2 5 12 12 14 19 29 15
34 -5 4 -2 5 5 1 7 -4 10 -11 8 -15z m-758 -9 c22 -14 23 -51 1 -63 -30 -15
-56 -2 -61 31 -2 16 -2 27 2 25 3 -2 12 0 20 6 18 11 22 11 38 1z m39 -7 c0
-8 -4 -12 -9 -9 -5 3 -6 10 -3 15 9 13 12 11 12 -6z m1177 2 c11 -2 20 -12 22
-21 1 -10 0 -15 -3 -12 -4 3 -12 -3 -20 -14 -16 -23 -45 -26 -61 -7 -10 12
-12 17 -12 38 0 5 -6 7 -12 3 -10 -6 -10 -5 -1 7 12 15 38 16 87 6z m-1207
-99 c2 -17 0 -19 -7 -8 -5 8 -6 18 -4 22 8 12 10 10 11 -14z m403 1 c0 -11 -4
-18 -10 -14 -5 3 -7 12 -3 20 7 21 13 19 13 -6z m393 8 c3 -8 2 -20 -3 -26 -5
-9 -7 -4 -7 13 0 29 2 32 10 13z m371 4 c3 -5 -1 -11 -9 -14 -9 -4 -12 -1 -8
9 6 16 10 17 17 5z m-1567 -38 c-3 -10 -5 -4 -5 12 0 17 2 24 5 18 2 -7 2 -21
0 -30z m340 -5 c-3 -7 -5 -2 -5 12 0 14 2 19 5 13 2 -7 2 -19 0 -25z m433 23
c0 -6 -4 -13 -10 -16 -5 -3 -10 1 -10 9 0 9 5 16 10 16 6 0 10 -4 10 -9z
m-400 -15 c0 -3 -4 -8 -10 -11 -5 -3 -10 -1 -10 4 0 6 5 11 10 11 6 0 10 -2
10 -4z m787 -43 c-3 -10 -5 -2 -5 17 0 19 2 27 5 18 2 -10 2 -26 0 -35z m790
15 c-3 -7 -5 -2 -5 12 0 14 2 19 5 13 2 -7 2 -19 0 -25z m-1183 -24 c3 -8 2
-12 -4 -9 -6 3 -10 10 -10 16 0 14 7 11 14 -7z m34 -15 c-3 -8 -7 -3 -11 10
-4 17 -3 21 5 13 5 -5 8 -16 6 -23z m792 11 c0 -11 -4 -20 -9 -20 -5 0 -7 9
-4 20 3 11 7 20 9 20 2 0 4 -9 4 -20z m-33 -5 c0 -8 -4 -12 -9 -9 -5 3 -6 10
-3 15 9 13 12 11 12 -6z m-1187 -16 c0 -6 -4 -7 -10 -4 -5 3 -10 11 -10 16 0
6 5 7 10 4 6 -3 10 -11 10 -16z m30 -35 c0 -28 4 -43 10 -39 6 3 10 3 10 0 0
-3 -14 -12 -32 -19 -34 -15 -47 -9 -61 26 -7 19 27 45 52 39 10 -2 12 4 7 24
-4 17 -3 24 4 20 5 -3 10 -26 10 -51z m795 36 c3 -5 1 -10 -4 -10 -6 0 -11 5
-11 10 0 6 2 10 4 10 3 0 8 -4 11 -10z m-22 -20 c6 0 18 -7 28 -16 19 -17 14
-54 -8 -54 -8 0 -11 -4 -8 -10 3 -6 -1 -7 -9 -4 -9 3 -14 9 -11 13 2 4 -6 7
-18 7 -17 -1 -21 4 -19 19 2 11 9 25 16 30 7 6 12 16 10 23 -1 7 0 8 3 2 2 -5
10 -10 16 -10z m440 -46 c-2 -7 1 -15 8 -20 7 -4 10 -3 5 4 -3 6 -1 14 6 18 7
4 10 3 5 -1 -4 -5 0 -20 10 -34 15 -24 15 -25 0 -12 -14 11 -20 11 -34 0 -16
-13 -17 -12 -4 4 12 15 11 17 -8 17 -12 0 -20 -4 -17 -8 2 -4 -4 -8 -14 -8
-10 0 -16 4 -14 8 3 4 -2 8 -11 8 -9 0 -14 4 -10 9 3 5 0 13 -6 17 -8 4 -9 3
-5 -4 5 -8 1 -10 -11 -5 -16 6 -16 4 2 -16 11 -12 15 -22 10 -21 -6 2 -16 2
-24 1 -11 -1 -11 -4 0 -18 13 -17 12 -17 -4 -4 -17 13 -17 16 -3 26 11 8 12
15 5 22 -8 8 2 18 30 34 23 12 41 27 41 32 0 5 11 -1 24 -14 13 -13 22 -28 19
-35z m-815 29 c17 -16 18 -21 6 -43 -8 -14 -14 -21 -14 -17 0 4 -9 3 -20 -3
-14 -7 -20 -7 -20 0 0 5 -7 10 -16 10 -14 0 -15 -2 -3 -17 13 -16 12 -17 -4
-4 -12 10 -14 17 -7 26 6 7 9 18 8 23 -3 10 30 41 43 42 4 0 16 -8 27 -17z
m-357 -47 c-6 -7 -7 -17 -3 -21 4 -5 1 -5 -6 -1 -9 6 -10 11 -3 20 6 7 7 17 3
21 -4 5 -1 5 6 1 9 -6 10 -11 3 -20z m1486 -5 c2 -13 -3 -18 -14 -17 -9 2 -17
10 -19 19 -1 10 3 14 14 10 11 -5 13 -3 7 8 -4 8 -4 11 0 6 5 -4 10 -16 12
-26z m-1088 2 c-12 -15 -12 -16 3 -10 26 9 30 -8 7 -29 -11 -10 -20 -14 -19
-9 5 23 -1 36 -12 29 -7 -4 -4 2 6 14 22 26 35 30 15 5z m-739 -18 c0 -2 -6
-7 -12 -11 -7 -4 -10 -4 -6 1 4 4 0 14 -10 22 -15 13 -15 13 6 3 12 -6 22 -13
22 -15z m199 1 c17 -19 20 -26 9 -32 -7 -4 -10 -3 -5 1 4 5 -3 19 -15 32 -12
13 -19 23 -16 23 2 0 15 -11 27 -24z m396 4 c10 -11 16 -20 13 -20 -3 0 -13 9
-23 20 -10 11 -16 20 -13 20 3 0 13 -9 23 -20z m412 -25 c0 -11 -4 -12 -13 -4
-7 6 -17 8 -22 5 -6 -3 -15 1 -21 8 -9 11 -9 16 0 22 7 4 9 3 5 -4 -3 -6 -2
-13 4 -17 9 -6 15 9 10 30 -1 5 7 2 18 -8 10 -9 19 -24 19 -32z m17 26 c14
-15 15 -21 4 -27 -7 -4 -10 -3 -5 1 4 5 0 17 -10 27 -9 10 -14 18 -11 18 3 0
13 -9 22 -19z m103 1 c-10 -10 -14 -22 -10 -27 5 -4 2 -5 -5 -1 -11 6 -10 12
4 27 9 10 19 19 22 19 3 0 -2 -8 -11 -18z m34 4 c-9 -11 -8 -15 5 -20 12 -5
14 -9 5 -20 -6 -7 -9 -16 -6 -19 3 -4 2 -4 -2 -1 -8 5 -9 9 -12 35 0 5 -7 7
-13 3 -7 -4 -4 2 6 14 21 24 36 31 17 8z m-1227 -5 c3 -5 -2 -15 -12 -22 -15
-12 -16 -12 -5 2 7 9 10 19 6 22 -3 4 -4 7 0 7 3 0 8 -4 11 -9z m297 -8 c13
-16 12 -17 -3 -4 -17 13 -22 21 -14 21 2 0 10 -8 17 -17z m158 -9 c-13 -16 1
-19 19 -4 9 7 9 7 2 -2 -6 -8 -4 -15 8 -24 13 -10 22 -9 47 3 16 9 27 12 22 8
-4 -5 2 -19 14 -31 l21 -22 -25 -17 c-21 -13 -30 -14 -47 -5 l-22 12 24 26
c22 26 22 26 1 8 -16 -13 -23 -15 -23 -6 0 10 -4 9 -17 -1 -16 -13 -17 -12 -4
4 15 19 2 23 -18 5 -7 -7 -12 -8 -11 -3 5 22 0 36 -10 30 -6 -4 -7 -11 -4 -17
5 -7 2 -8 -5 -3 -9 5 -7 13 8 29 12 12 18 26 14 31 -5 4 -2 5 5 1 10 -6 10
-11 1 -22z m-234 -2 c-3 -3 -11 0 -18 7 -9 10 -8 11 6 5 10 -3 15 -9 12 -12z
m382 11 c-4 -3 3 -18 15 -32 l23 -26 -26 23 c-28 24 -48 30 -30 8 9 -10 9 -16
1 -21 -6 -4 -14 -4 -17 -1 -4 3 -1 6 7 6 10 0 10 3 1 14 -10 11 -8 17 6 25 21
12 29 14 20 4z m829 -15 c19 -23 19 -23 -2 -5 -26 21 -41 22 -23 1 15 -19 21
-47 8 -38 -5 3 -7 9 -4 14 3 4 -2 13 -10 20 -14 12 -12 30 4 30 4 0 16 -10 27
-22z m397 4 c15 -16 15 -19 2 -19 -8 0 -13 3 -10 5 3 3 0 11 -6 19 -17 20 -5
16 14 -5z m-1646 1 c-4 -3 1 -16 10 -27 l18 -21 -23 19 c-17 15 -25 17 -34 8
-9 -9 -9 -12 0 -12 7 0 12 -13 12 -29 0 -30 -19 -45 -44 -35 -10 4 -16 -3 -19
-23 -2 -16 -5 -5 -6 25 -1 37 -4 51 -13 46 -6 -4 -8 -3 -5 4 4 5 18 9 32 7 14
-1 23 0 20 3 -3 3 7 14 22 24 28 18 42 23 30 11z m69 -19 c1 -9 0 -13 -4 -10
-3 4 -7 14 -8 22 -1 9 0 13 4 10 3 -4 7 -14 8 -22z m174 22 c0 -2 -8 -10 -17
-17 -16 -13 -17 -12 -4 4 13 16 21 21 21 13z m226 -22 c2 -12 -1 -13 -12 -3
-7 6 -11 16 -8 21 7 11 17 3 20 -18z m204 22 c0 -2 -8 -10 -17 -17 -16 -13
-17 -12 -4 4 13 16 21 21 21 13z m20 -11 c-15 -18 1 -20 19 -2 10 10 12 9 9
-2 -2 -7 3 -16 11 -19 8 -2 11 0 8 5 -3 5 3 9 13 9 14 0 16 -4 9 -12 -7 -8 -6
-15 2 -20 8 -4 9 -3 5 4 -4 7 -2 12 3 12 10 0 15 -14 12 -32 0 -4 7 -5 17 -1
11 3 9 0 -6 -11 -12 -10 -20 -21 -17 -26 3 -5 1 -11 -5 -15 -5 -3 -10 -2 -10
3 0 5 -11 14 -24 20 -19 8 -24 17 -21 35 3 16 0 24 -10 25 -8 1 -22 3 -30 4
-13 1 -13 4 2 20 19 22 31 24 13 3z m116 -31 c1 -9 -1 -13 -4 -9 -4 4 -7 10
-7 13 0 4 -4 14 -9 22 -7 12 -6 13 4 3 8 -7 15 -20 16 -29z m25 19 c13 -16 12
-17 -3 -4 -10 7 -18 15 -18 17 0 8 8 3 21 -13z m259 13 c0 -2 -8 -10 -17 -17
-16 -13 -17 -12 -4 4 13 16 21 21 21 13z m28 -7 c-2 -6 3 -14 11 -17 9 -3 11
0 6 8 -5 7 3 6 22 -4 20 -10 34 -12 41 -5 7 5 10 6 7 3 -3 -4 0 -13 6 -20 7
-8 6 -14 -2 -20 -7 -4 -9 -3 -5 4 3 6 2 13 -4 17 -9 6 -14 -7 -11 -27 0 -4 -8
-12 -19 -18 -31 -17 -60 3 -54 37 l5 27 -23 -19 -23 -20 19 23 c11 12 16 22
12 22 -4 0 -4 5 -1 10 8 13 16 13 13 -1z m-1234 -8 c3 -5 -2 -15 -12 -22 -15
-12 -16 -12 -5 2 7 9 10 19 6 22 -3 4 -4 7 0 7 3 0 8 -4 11 -9z m1692 -12 c6
-5 13 -6 16 -4 3 3 3 -6 1 -19 -7 -33 -27 -49 -52 -41 -26 8 -31 35 -12 60 13
16 13 18 1 9 -17 -13 -52 -15 -44 -3 2 5 11 6 18 3 8 -3 17 -1 20 5 7 10 31 5
52 -10z m-1571 -18 c3 -5 2 -12 -3 -15 -5 -3 -9 1 -9 9 0 17 3 19 12 6z m1165
-103 c0 -28 -3 -49 -6 -45 -4 3 -6 23 -6 44 0 48 1 53 7 53 3 0 5 -23 5 -52z
m417 -35 c-2 -16 -4 -3 -4 27 0 30 2 43 4 28 2 -16 2 -40 0 -55z m-1214 44 c3
-8 1 -20 -4 -28 -6 -10 -9 -7 -9 14 0 29 5 35 13 14z m381 -107 c19 0 50 -37
37 -45 -6 -3 -11 -11 -11 -17 0 -6 7 -5 17 3 11 10 14 10 9 2 -7 -12 6 -18 29
-13 5 1 2 -7 -8 -18 -9 -10 -14 -22 -10 -27 5 -4 2 -5 -5 -1 -10 6 -10 11 -1
22 14 17 -2 19 -20 2 -10 -11 -12 -10 -9 2 2 10 -4 14 -20 13 -13 -2 -21 1
-17 7 3 6 -1 7 -9 4 -14 -6 -21 5 -17 28 0 4 -6 5 -14 1 -13 -4 -13 -8 -3 -22
12 -14 11 -15 -5 -2 -18 14 -18 16 7 34 23 17 26 26 28 85 l2 67 3 -62 c3 -43
8 -63 17 -63z m383 98 c2 -17 0 -19 -7 -8 -5 8 -6 18 -4 22 8 12 10 10 11 -14z
m390 -50 c-2 -13 -4 -3 -4 22 0 25 2 35 4 23 2 -13 2 -33 0 -45z m-1610 -10
c-2 -13 -4 -5 -4 17 -1 22 1 32 4 23 2 -10 2 -28 0 -40z m427 37 c-4 -8 -11
-15 -16 -15 -6 0 -5 6 2 15 7 8 14 15 16 15 2 0 1 -7 -2 -15z m-394 -15 c0 -5
-2 -10 -4 -10 -3 0 -8 5 -11 10 -3 6 -1 10 4 10 6 0 11 -4 11 -10z m390 -20
c0 -5 -5 -10 -11 -10 -5 0 -7 5 -4 10 3 6 8 10 11 10 2 0 4 -4 4 -10z m800
-11 c0 -11 -4 -17 -10 -14 -5 3 -10 13 -10 21 0 8 5 14 10 14 6 0 10 -9 10
-21z m-1163 -21 c-3 -8 -6 -5 -6 6 -1 11 2 17 5 13 3 -3 4 -12 1 -19z m1568
-8 c10 16 45 -17 45 -42 0 -11 4 -17 8 -14 4 2 9 -5 9 -17 2 -16 0 -18 -7 -8
-4 8 -18 15 -29 16 -11 1 -18 -2 -16 -6 3 -4 -2 -9 -10 -12 -9 -4 -19 5 -29
24 -8 16 -10 27 -5 24 5 -4 9 6 9 22 0 19 3 24 9 14 6 -10 10 -10 16 -1z
m-1564 -21 c13 -11 19 -18 13 -15 -10 5 -28 -27 -25 -46 0 -4 -6 -5 -14 -2 -8
4 -12 11 -9 16 4 6 -2 6 -14 -1 -16 -8 -23 -7 -33 6 -10 12 -10 15 -1 9 8 -5
12 -1 12 11 0 21 18 43 36 43 6 0 22 -9 35 -21z m398 5 c16 -12 20 -19 12 -27
-13 -13 -15 -30 -2 -22 17 10 21 -12 5 -26 -12 -10 -15 -10 -12 1 2 7 -3 15
-11 18 -8 2 -11 0 -8 -5 3 -5 -3 -9 -13 -9 -14 0 -16 4 -9 12 7 8 6 15 -2 20
-8 4 -9 3 -5 -4 5 -8 0 -11 -14 -9 -29 5 -45 23 -29 32 7 5 10 4 5 -3 -3 -6
-2 -13 4 -17 5 -3 10 3 10 14 0 11 8 25 18 30 23 14 24 14 51 -5z m792 6 c10
-6 19 -20 19 -31 0 -11 5 -17 10 -14 6 4 7 11 4 17 -4 7 -2 8 5 4 9 -6 9 -11
0 -22 -11 -13 -3 -19 23 -16 12 2 17 -27 6 -34 -6 -4 -8 -3 -4 4 6 11 -26 26
-65 31 -8 1 -7 7 2 19 13 15 12 16 -4 3 -11 -9 -14 -17 -8 -25 7 -8 4 -12 -9
-12 -10 0 -17 3 -14 7 2 4 0 9 -6 11 -18 6 -20 47 -2 58 21 12 20 12 43 0z
m-74 -27 c-4 -3 -2 -12 4 -20 6 -7 8 -13 4 -13 -4 0 -1 -8 6 -17 11 -15 11
-16 -1 -5 -8 6 -18 12 -23 12 -4 0 -5 -6 -1 -12 5 -9 2 -9 -9 1 -18 15 -23 26
-7 16 6 -3 11 -1 11 4 1 6 3 16 4 21 1 6 3 12 4 15 0 3 4 5 8 5 3 0 3 -3 0 -7z
m-1220 -10 c-4 -3 3 -17 15 -30 12 -13 18 -23 15 -23 -4 0 -10 0 -14 0 -5 0
-9 5 -9 10 -3 23 -5 24 -14 10 -6 -9 -5 -20 3 -30 10 -13 10 -13 -5 -1 -14 10
-15 18 -7 32 5 10 7 19 4 19 -4 0 -3 5 0 10 3 6 9 10 12 10 4 0 3 -3 0 -7z
m154 -37 c-12 -12 -18 -26 -14 -31 5 -4 2 -5 -5 -1 -11 6 -9 13 7 30 12 12 18
26 14 31 -5 4 -2 5 5 1 11 -6 9 -13 -7 -30z m654 6 c-3 -3 1 -12 7 -21 10 -12
7 -12 -8 2 -11 9 -21 24 -21 32 0 11 4 12 14 3 7 -6 11 -13 8 -16z m-224 -6
c-6 -7 -9 -15 -6 -18 3 -3 -1 -11 -9 -17 -11 -10 -14 -9 -12 2 1 8 7 21 14 29
6 8 8 19 4 23 -4 5 -1 5 6 1 9 -6 10 -11 3 -20z m186 17 c-4 -3 1 -16 10 -27
18 -21 18 -21 -4 -2 -20 16 -23 36 -6 36 4 0 3 -3 0 -7z m860 -8 c0 -8 -4 -12
-9 -9 -5 3 -6 10 -3 15 9 13 12 11 12 -6z m-1680 -2 c-4 -3 -1 -13 5 -22 10
-13 10 -14 -2 -3 -24 21 -34 13 -14 -10 12 -14 13 -18 3 -10 -9 6 -18 9 -22 6
-3 -3 -4 2 -3 11 1 9 9 21 17 26 17 10 25 12 16 2z m183 3 c0 -2 -8 -10 -17
-17 -16 -13 -17 -12 -4 4 13 16 21 21 21 13z m51 -9 c-6 -8 -7 -18 -3 -22 4
-5 1 -5 -6 -1 -10 6 -10 11 -1 22 6 8 14 14 16 14 3 0 0 -6 -6 -13z m235 1 c3
-4 -1 -5 -10 -4 -8 1 -18 5 -22 8 -3 4 1 5 10 4 8 -1 18 -5 22 -8z m144 9 c0
-2 -10 -12 -22 -23 l-23 -19 19 23 c18 21 26 27 26 19z m420 -12 c-15 -18 1
-20 18 -3 8 8 10 4 6 -17 -4 -25 -3 -27 11 -15 23 19 18 6 -7 -16 -12 -10 -18
-13 -14 -7 4 7 -2 20 -13 30 -15 12 -18 20 -9 30 6 7 13 13 15 13 3 0 0 -7 -7
-15z m191 -1 c16 -19 21 -47 7 -38 -5 3 -7 9 -4 12 7 7 -13 32 -26 32 -6 0 -5
-7 2 -15 7 -8 9 -15 5 -15 -4 0 -2 -6 4 -14 9 -11 9 -16 0 -22 -7 -4 -9 -3 -6
3 4 6 1 16 -7 22 -11 10 -14 26 -7 49 3 7 20 0 32 -14z m405 -19 c1 -8 -2 -12
-7 -9 -6 3 -17 0 -25 -7 -12 -10 -18 -9 -30 3 -11 11 -13 18 -5 23 6 3 10 1 9
-6 -2 -6 2 -13 9 -16 8 -3 11 3 8 18 -4 17 -2 20 7 11 19 -19 32 -14 17 6 -11
14 -11 15 1 5 8 -7 15 -20 16 -28z m48 -4 c-3 -3 -15 6 -27 18 l-22 24 27 -19
c14 -10 24 -21 22 -23z m146 14 c-11 -12 -17 -25 -13 -30 5 -4 2 -5 -5 -1 -11
7 -10 11 2 25 9 10 14 20 11 23 -3 2 2 5 10 5 12 0 11 -5 -5 -22z m-1389 -2
c13 -16 12 -17 -3 -4 -10 7 -18 15 -18 17 0 8 8 3 21 -13z m225 3 c-1 -8 -7
-20 -14 -28 -6 -8 -8 -19 -4 -23 4 -5 1 -5 -6 -1 -11 6 -10 12 4 27 9 10 14
19 10 19 -4 0 -4 5 -1 10 9 14 14 12 11 -4z m1191 -3 c-4 -3 0 -11 9 -18 14
-10 14 -12 -2 -26 -15 -12 -16 -12 -9 0 6 11 4 13 -7 8 -9 -3 -15 -1 -14 6 2
16 16 37 23 37 4 0 3 -3 0 -7z m-1500 -10 c-4 -3 1 -15 10 -26 10 -11 13 -17
6 -14 -7 5 -13 -1 -15 -14 -4 -31 -32 -46 -50 -28 -24 24 -27 45 -9 61 13 11
23 12 35 6 9 -5 16 -6 15 -1 -2 14 1 23 8 23 3 0 3 -3 0 -7z m91 -19 c2 -1 -5
-5 -15 -8 -9 -4 -14 -4 -10 0 4 4 1 14 -6 23 -11 14 -10 15 8 1 11 -8 21 -15
23 -16z m307 17 c-3 -5 -1 -12 4 -15 8 -5 8 -63 0 -70 -2 -2 -19 1 -36 6 -25
6 -33 14 -33 31 0 19 19 34 68 56 2 0 1 -3 -3 -8z m62 2 c-4 -3 -1 -13 5 -22
10 -13 10 -14 -2 -3 -20 17 -35 15 -20 -3 20 -24 5 -18 -16 7 -10 12 -14 19
-9 15 6 -3 17 -2 25 4 17 10 26 12 17 2z m653 2 c0 -1 -9 -10 -19 -19 -19 -17
-19 -17 -16 1 2 10 4 18 4 19 2 2 31 1 31 -1z m-1220 -20 c-10 -12 -10 -15 0
-15 8 0 11 -3 7 -6 -3 -3 -11 -3 -17 1 -8 5 -8 11 1 21 6 8 14 14 16 14 3 0 0
-7 -7 -15z m147 8 c-4 -3 -1 -13 6 -22 11 -14 10 -14 -5 -2 -16 12 -16 31 -1
31 4 0 3 -3 0 -7z m773 -40 c0 -28 -20 -38 -56 -29 -33 9 -29 46 6 62 31 14
50 1 50 -33z m400 1 c0 -35 -30 -47 -63 -25 -22 14 -24 20 -14 31 9 10 9 11 0
6 -7 -4 -13 -5 -13 -2 0 3 15 12 33 20 37 16 57 6 57 -30z m-90 32 c0 -2 -8
-10 -17 -17 -16 -13 -17 -12 -4 4 13 16 21 21 21 13z"/>
<path d="M1809 1563 c-13 -16 -12 -17 4 -4 9 7 17 15 17 17 0 8 -8 3 -21 -13z"/>
<path d="M1775 1561 c-3 -5 -2 -12 3 -15 5 -3 9 1 9 9 0 17 -3 19 -12 6z"/>
<path d="M1694 1535 c1 -8 6 -18 11 -22 4 -4 5 -2 1 5 -4 6 -2 12 4 12 6 0 8
5 5 10 -9 15 -24 12 -21 -5z"/>
<path d="M500 1175 c-7 -8 -8 -15 -2 -15 5 0 15 7 22 15 7 8 8 15 2 15 -5 0
-15 -7 -22 -15z"/>
</g>
</svg>
