<?xml version="1.0" standalone="no"?>
<!DOCTYPE svg PUBLIC "-//W3C//DTD SVG 20010904//EN"
 "http://www.w3.org/TR/2001/REC-SVG-20010904/DTD/svg10.dtd">
<svg version="1.0" xmlns="http://www.w3.org/2000/svg"
 width="200.000000pt" height="200.000000pt" viewBox="0 0 200.000000 200.000000"
 preserveAspectRatio="xMidYMid meet">
<metadata>
Created by potrace 1.16, written by Peter Selinger 2001-2019
</metadata>
<g transform="translate(0.000000,200.000000) scale(0.100000,-0.100000)"
fill="#000000" stroke="none">
<path d="M6 1993 c-11 -12 -6 -129 6 -142 9 -10 10 -12 1 -7 -17 9 -16 -293 0
-313 9 -11 9 -13 0 -8 -9 6 -12 -46 -11 -222 0 -127 4 -229 8 -226 4 2 7 -2 7
-10 0 -8 -4 -12 -8 -9 -5 2 -8 -76 -7 -176 0 -131 3 -178 12 -173 7 5 7 2 -1
-8 -16 -20 -17 -217 0 -238 9 -12 9 -13 0 -7 -10 5 -13 -4 -13 -34 0 -39 1
-40 23 -30 l22 11 -22 -18 c-21 -17 -22 -26 -22 -126 0 -59 4 -105 8 -102 4 2
8 -2 8 -10 0 -8 -4 -12 -9 -9 -5 3 -8 -25 -6 -63 l3 -68 188 -2 c114 -1 185 2
182 8 -4 5 4 5 20 -1 33 -12 387 -12 380 1 -4 5 5 5 19 -1 33 -12 378 -13 411
0 17 7 24 7 20 0 -8 -13 345 -13 380 0 16 6 24 6 20 0 -4 -6 63 -9 182 -7
l188 2 3 63 c2 42 -2 69 -10 80 -8 10 -9 13 -1 9 16 -10 16 292 0 312 -9 12
-9 13 1 7 8 -5 12 2 12 24 0 22 -4 29 -12 24 -10 -6 -10 -5 -1 7 6 8 11 47 12
87 0 65 -1 73 -16 68 -16 -6 -16 -5 -1 11 20 23 24 218 5 242 -9 12 -9 13 1 7
9 -5 12 8 12 54 0 46 -3 59 -13 54 -9 -6 -9 -5 -1 7 14 16 19 473 5 465 -4 -3
-8 1 -8 9 0 8 4 12 8 9 4 -2 8 65 8 151 -1 85 -4 153 -8 151 -4 -3 -8 1 -8 9
0 8 4 12 9 9 5 -3 8 25 6 63 l-3 68 -188 3 c-124 1 -186 -1 -182 -8 4 -7 -2
-7 -19 0 -14 5 -107 9 -207 9 -160 1 -180 -1 -169 -14 11 -13 9 -13 -16 0 -40
21 -162 20 -193 -1 -17 -13 -25 -14 -34 -5 -9 9 -8 11 4 6 10 -4 20 -2 23 3 8
14 -184 15 -219 2 -17 -7 -24 -7 -20 0 4 6 -17 10 -54 10 -42 0 -61 -4 -61
-12 0 -10 -2 -10 -8 -1 -9 15 -220 17 -257 3 -16 -6 -24 -6 -20 0 6 10 -358
13 -369 3z m199 -21 c-3 -3 -11 0 -18 7 -9 10 -8 11 6 5 10 -3 15 -9 12 -12z
m410 8 c-3 -5 -12 -10 -18 -10 -7 0 -6 4 3 10 19 12 23 12 15 0z m795 -4 c-7
-7 -13 -7 -20 0 -6 6 -3 10 10 10 13 0 16 -4 10 -10z m405 4 c-3 -5 -12 -10
-18 -10 -7 0 -6 4 3 10 19 12 23 12 15 0z m-1478 -22 c-3 -8 -6 -5 -6 6 -1 11
2 17 5 13 3 -3 4 -12 1 -19z m408 2 c-3 -5 -11 -10 -16 -10 -6 0 -7 5 -4 10 3
6 11 10 16 10 6 0 7 -4 4 -10z m130 0 c3 -5 2 -10 -4 -10 -5 0 -13 5 -16 10
-3 6 -2 10 4 10 5 0 13 -4 16 -10z m270 0 c-3 -5 -11 -10 -16 -10 -6 0 -7 5
-4 10 3 6 11 10 16 10 6 0 7 -4 4 -10z m130 0 c3 -5 2 -10 -4 -10 -5 0 -13 5
-16 10 -3 6 -2 10 4 10 5 0 13 -4 16 -10z m275 6 c0 -3 -4 -8 -10 -11 -5 -3
-10 -1 -10 4 0 6 5 11 10 11 6 0 10 -2 10 -4z m125 -6 c3 -5 1 -10 -4 -10 -6
0 -11 5 -11 10 0 6 2 10 4 10 3 0 8 -4 11 -10z m-1527 -17 c-16 -15 -16 -17 0
-30 15 -12 14 -13 -6 -3 -13 6 -30 9 -37 6 -9 -3 -12 0 -8 10 3 7 13 14 23 14
11 0 22 5 25 10 3 6 9 10 13 10 3 0 -1 -8 -10 -17z m909 -5 c-3 -8 -6 -5 -6 6
-1 11 2 17 5 13 3 -3 4 -12 1 -19z m690 0 c-3 -8 -6 -5 -6 6 -1 11 2 17 5 13
3 -3 4 -12 1 -19z m-1207 -3 c-10 -12 -10 -15 0 -15 8 0 11 -2 9 -5 -7 -7 -49
6 -49 15 0 5 10 11 23 13 12 2 24 5 26 6 2 0 -2 -6 -9 -14z m400 0 c-7 -8 -18
-15 -24 -15 -6 0 -2 7 8 15 25 19 32 19 16 0z m-650 -5 c0 -5 -4 -10 -10 -10
-5 0 -10 5 -10 10 0 6 5 10 10 10 6 0 10 -4 10 -10z m400 0 c0 -5 -4 -10 -10
-10 -5 0 -10 5 -10 10 0 6 5 10 10 10 6 0 10 -4 10 -10z m400 0 c0 -5 -4 -10
-10 -10 -5 0 -10 5 -10 10 0 6 5 10 10 10 6 0 10 -4 10 -10z m240 0 c0 -5 -4
-10 -10 -10 -5 0 -10 5 -10 10 0 6 5 10 10 10 6 0 10 -4 10 -10z m164 -2 c-3
-4 -9 -8 -15 -8 -5 0 -9 4 -9 8 0 5 7 9 15 9 8 0 12 -4 9 -9z m236 2 c0 -5 -2
-10 -4 -10 -3 0 -8 5 -11 10 -3 6 -1 10 4 10 6 0 11 -4 11 -10z m173 -2 c3 -9
-6 -13 -24 -14 -26 -1 -27 0 -11 12 22 17 29 17 35 2z m-694 -2 c-2 -2 -15 -9
-29 -15 -24 -11 -24 -11 -6 3 16 13 49 24 35 12z m-863 -28 c12 -19 -6 -19
-27 0 l-21 21 21 -6 c12 -3 24 -10 27 -15z m711 0 c-3 -8 -6 -5 -6 6 -1 11 2
17 5 13 3 -3 4 -12 1 -19z m-988 -4 c-9 -11 -15 -11 -25 -3 -18 15 -18 14 11
15 21 2 24 -1 14 -12z m405 1 c-6 -16 -24 -21 -24 -7 0 11 11 22 21 22 5 0 6
-7 3 -15z m274 -3 c2 -7 -3 -12 -10 -12 -8 0 -15 7 -15 15 0 18 19 15 25 -3z
m129 5 c0 -8 -6 -14 -14 -14 -14 0 -17 10 -6 20 10 11 20 8 20 -6z m270 -3 c2
-5 -11 -15 -29 -21 -31 -12 -32 -11 -13 3 11 8 19 20 17 26 -3 13 21 5 25 -8z
m131 -6 c11 -14 10 -16 -7 -11 -12 3 -21 9 -21 12 0 8 12 23 14 19 1 -2 7 -11
14 -20z m272 3 c0 -5 -9 -11 -19 -14 -17 -4 -18 -2 -8 13 10 18 27 18 27 1z
m116 -8 c-10 -10 -19 5 -10 18 6 11 8 11 12 0 2 -7 1 -15 -2 -18z m282 9 c6
-18 -15 -14 -22 4 -4 10 -1 14 6 12 6 -2 14 -10 16 -16z m-1738 -6 c0 -2 -7
-7 -16 -10 -8 -3 -12 -2 -9 4 6 10 25 14 25 6z m400 0 c0 -2 -7 -7 -16 -10 -8
-3 -12 -2 -9 4 6 10 25 14 25 6z m405 -6 c3 -6 -1 -7 -9 -4 -18 7 -21 14 -7
14 6 0 13 -4 16 -10z m728 -22 c4 1 7 -5 7 -13 0 -21 -5 -19 -37 11 -27 26
-27 26 -3 13 14 -7 28 -12 33 -11z m-926 -1 c0 -7 -9 -13 -19 -13 -18 0 -18 1
-2 13 10 7 18 13 19 13 1 0 2 -6 2 -13z m257 1 c4 3 4 -1 0 -11 -8 -21 -7 -21
-30 4 -19 22 -19 22 2 11 12 -6 24 -8 28 -4z m146 -11 c0 -2 -8 -3 -18 -3 -10
0 -19 6 -19 13 0 8 6 9 19 2 10 -5 18 -11 18 -12z m264 5 c-22 -22 -44 -25
-37 -5 3 7 8 11 12 9 4 -3 13 -1 21 5 24 14 25 11 4 -9z m136 -8 c0 -2 -9 0
-20 6 -11 6 -20 13 -20 16 0 2 9 0 20 -6 11 -6 20 -13 20 -16z m-1467 3 c3 -8
-1 -14 -9 -14 -15 0 -18 9 -7 20 9 9 10 9 16 -6z m120 -4 c-4 -10 -9 -11 -19
-2 -19 15 -18 18 5 16 11 -1 17 -6 14 -14z m142 7 c3 -6 -1 -7 -9 -4 -18 7
-21 14 -7 14 6 0 13 -4 16 -10z m138 -3 c3 -8 -3 -14 -15 -14 -16 -2 -17 1 -8
13 15 17 17 17 23 1z m120 -4 c-4 -10 -9 -11 -19 -2 -19 15 -18 18 5 16 11 -1
17 -6 14 -14z m277 1 c-15 -18 -27 -18 -27 -1 0 7 9 14 19 14 16 2 17 -1 8
-13z m407 2 c0 -16 -25 -17 -30 -1 -3 6 3 11 12 12 10 1 18 -4 18 -11z m517
-1 c-3 -6 -11 -12 -18 -12 -8 0 -12 6 -10 12 3 6 11 12 18 12 8 0 12 -6 10
-12z m-727 -27 c-3 -8 -6 -5 -6 6 -1 11 2 17 5 13 3 -3 4 -12 1 -19z m-1087
-8 c0 -11 -2 -20 -4 -20 -2 0 -6 9 -9 20 -3 11 -1 20 4 20 5 0 9 -9 9 -20z
m281 6 c-9 -11 -8 -15 5 -20 9 -4 15 -9 12 -11 -6 -6 -58 18 -58 27 0 4 6 5
14 2 8 -3 17 -1 21 5 3 6 9 11 12 11 3 0 0 -6 -6 -14z m400 -5 c-11 -7 -11 -9
0 -13 8 -3 12 -8 9 -11 -3 -3 -16 3 -30 14 -14 11 -18 17 -9 13 10 -3 20 0 24
6 4 6 10 9 13 5 4 -3 0 -10 -7 -14z m150 5 c8 5 9 3 5 -5 -5 -7 -14 -10 -21
-7 -8 3 -16 -3 -18 -12 -3 -9 -5 -4 -6 12 -1 24 1 26 14 16 8 -6 20 -8 26 -4z
m401 0 c10 5 10 4 2 -5 -12 -13 -44 -5 -44 11 0 6 6 5 15 -2 8 -6 20 -8 27 -4z
m249 -5 c-10 -6 -9 -10 5 -15 9 -3 14 -9 11 -12 -3 -3 -14 0 -25 7 -19 12 -19
14 -4 25 9 7 19 10 22 8 2 -3 -1 -9 -9 -13z m128 -19 c-11 -8 -23 -11 -26 -8
-3 3 2 8 11 12 14 5 14 9 4 22 -12 13 -11 14 9 2 22 -14 22 -14 2 -28z m151
23 c-7 -9 -15 -13 -19 -10 -3 3 1 10 9 15 21 14 24 12 10 -5z m140 11 c0 -3
-4 -8 -10 -11 -5 -3 -10 -1 -10 4 0 6 5 11 10 11 6 0 10 -2 10 -4z m-1863 -20
c0 -8 -6 -12 -15 -9 -11 5 -11 7 0 14 7 5 13 9 14 9 0 0 1 -6 1 -14z m113 10
c0 -3 -4 -8 -10 -11 -5 -3 -10 -1 -10 4 0 6 5 11 10 11 6 0 10 -2 10 -4z m285
-6 c-3 -5 -12 -10 -18 -10 -7 0 -6 4 3 10 19 12 23 12 15 0z m915 0 c0 -5 -2
-10 -4 -10 -3 0 -8 5 -11 10 -3 6 -1 10 4 10 6 0 11 -4 11 -10z m515 -8 c-3
-3 -11 0 -18 7 -9 10 -8 11 6 5 10 -3 15 -9 12 -12z m-1465 -12 c0 -5 -5 -10
-11 -10 -5 0 -7 5 -4 10 3 6 8 10 11 10 2 0 4 -4 4 -10z m695 0 c3 -5 1 -10
-4 -10 -6 0 -11 5 -11 10 0 6 2 10 4 10 3 0 8 -4 11 -10z m105 0 c0 -5 -5 -10
-11 -10 -5 0 -7 5 -4 10 3 6 8 10 11 10 2 0 4 -4 4 -10z m-690 -36 c0 -1 -9 0
-20 3 -11 3 -20 12 -20 19 0 11 5 10 20 -3 11 -10 20 -18 20 -19z m100 22 c0
-2 -7 -7 -16 -10 -8 -3 -12 -2 -9 4 6 10 25 14 25 6z m400 0 c0 -2 -7 -7 -16
-10 -8 -3 -12 -2 -9 4 6 10 25 14 25 6z m285 -6 c3 -5 2 -10 -4 -10 -5 0 -13
5 -16 10 -3 6 -2 10 4 10 5 0 13 -4 16 -10z m400 0 c3 -5 2 -10 -4 -10 -5 0
-13 5 -16 10 -3 6 -2 10 4 10 5 0 13 -4 16 -10z m-1345 -10 c0 -5 -4 -10 -10
-10 -5 0 -10 5 -10 10 0 6 5 10 10 10 6 0 10 -4 10 -10z m400 0 c0 -5 -5 -10
-11 -10 -5 0 -7 5 -4 10 3 6 8 10 11 10 2 0 4 -4 4 -10z m800 0 c0 -5 -2 -10
-4 -10 -3 0 -8 5 -11 10 -3 6 -1 10 4 10 6 0 11 -4 11 -10z m-1153 -32 c-3 -7
-5 -2 -5 12 0 14 2 19 5 13 2 -7 2 -19 0 -25z m963 18 c-14 -14 -38 -16 -43
-3 -3 7 7 12 24 12 17 0 24 -4 19 -9z m-1361 -34 c0 -14 -2 -14 -6 -2 -4 8
-13 21 -22 28 -14 11 -13 11 7 2 12 -6 22 -18 21 -28z m151 34 c0 -11 -19 -15
-25 -6 -3 5 1 10 9 10 9 0 16 -2 16 -4z m400 -6 c0 -5 -4 -10 -9 -10 -6 0 -13
5 -16 10 -3 6 1 10 9 10 9 0 16 -4 16 -10z m405 0 c-3 -5 -13 -10 -21 -10 -8
0 -14 5 -14 10 0 6 9 10 21 10 11 0 17 -4 14 -10z m540 1 c3 -5 1 -12 -5 -16
-5 -3 -10 1 -10 9 0 18 6 21 15 7z m265 5 c0 -11 -19 -15 -25 -6 -3 5 1 10 9
10 9 0 16 -2 16 -4z m-1465 -16 c-3 -5 -11 -10 -16 -10 -6 0 -7 5 -4 10 3 6
11 10 16 10 6 0 7 -4 4 -10z m395 0 c0 -5 -5 -10 -11 -10 -5 0 -7 5 -4 10 3 6
8 10 11 10 2 0 4 -4 4 -10z m120 -5 c11 -13 10 -14 -4 -9 -9 3 -16 10 -16 15
0 13 6 11 20 -6z m290 11 c0 -3 -4 -8 -10 -11 -5 -3 -10 -1 -10 4 0 6 5 11 10
11 6 0 10 -2 10 -4z m105 -6 c3 -5 1 -10 -4 -10 -6 0 -11 5 -11 10 0 6 2 10 4
10 3 0 8 -4 11 -10z m400 0 c3 -5 2 -10 -4 -10 -5 0 -13 5 -16 10 -3 6 -2 10
4 10 5 0 13 -4 16 -10z m-1515 -14 c0 -3 -4 -8 -10 -11 -5 -3 -10 -1 -10 4 0
6 5 11 10 11 6 0 10 -2 10 -4z m122 -9 c15 -12 15 -14 -5 -27 -20 -12 -21 -12
-9 3 11 13 10 17 -5 26 -10 6 -13 10 -8 10 6 0 18 -5 27 -12z m278 8 c0 -2
-15 -12 -32 -20 l-33 -16 25 20 c24 20 40 26 40 16z m400 1 c0 -3 -4 -8 -10
-11 -5 -3 -10 -1 -10 4 0 6 5 11 10 11 6 0 10 -2 10 -4z m120 -6 c0 -5 -2 -10
-4 -10 -3 0 -8 5 -11 10 -3 6 -1 10 4 10 6 0 11 -4 11 -10z m414 -5 c11 -8 15
-15 10 -15 -6 0 -19 7 -30 15 -10 8 -14 14 -9 14 6 0 19 -6 29 -14z m258 3
c-8 -8 -8 -15 -1 -24 8 -10 6 -10 -14 -1 l-25 11 22 12 c28 16 32 16 18 2z
m140 -25 c-9 -7 -21 -12 -27 -12 -5 0 -1 6 9 14 11 8 14 15 8 15 -7 0 -12 5
-12 10 0 6 8 5 19 -2 18 -11 18 -13 3 -25z m-1736 -10 c-3 -3 -12 0 -20 6 -8
7 -19 10 -24 7 -5 -3 -9 1 -9 9 0 12 5 11 30 -1 16 -9 26 -18 23 -21z m561 23
c0 -8 -6 -12 -15 -9 -11 5 -11 7 0 14 7 5 13 9 14 9 0 0 1 -6 1 -14z m243 -21
c0 -10 -16 -4 -40 16 l-25 20 33 -16 c17 -8 32 -18 32 -20z m370 20 c0 -2 -6
-5 -13 -8 -8 -3 -14 1 -14 8 0 7 6 11 14 8 7 -3 13 -6 13 -8z m-215 -5 c3 -6
-1 -7 -9 -4 -18 7 -21 14 -7 14 6 0 13 -4 16 -10z m-560 -10 c3 -5 1 -10 -4
-10 -6 0 -11 5 -11 10 0 6 2 10 4 10 3 0 8 -4 11 -10z m525 0 c0 -5 -5 -10
-11 -10 -5 0 -7 5 -4 10 3 6 8 10 11 10 2 0 4 -4 4 -10z m400 0 c0 -5 -5 -10
-11 -10 -5 0 -7 5 -4 10 3 6 8 10 11 10 2 0 4 -4 4 -10z m-600 -15 c-7 -9 -15
-13 -19 -10 -3 3 1 10 9 15 21 14 24 12 10 -5z m684 0 c3 -8 1 -15 -4 -15 -6
0 -10 7 -10 15 0 8 2 15 4 15 2 0 6 -7 10 -15z m-1494 -5 c0 -5 -5 -10 -11
-10 -5 0 -7 5 -4 10 3 6 8 10 11 10 2 0 4 -4 4 -10z m132 -5 c14 0 20 -15 6
-15 -9 0 -22 8 -29 17 -12 15 -12 16 1 8 8 -6 18 -10 22 -10z m268 5 c0 -5 -5
-10 -11 -10 -5 0 -7 5 -4 10 3 6 8 10 11 10 2 0 4 -4 4 -10z m295 0 c3 -5 2
-10 -4 -10 -5 0 -13 5 -16 10 -3 6 -2 10 4 10 5 0 13 -4 16 -10z m400 0 c3 -5
2 -10 -4 -10 -5 0 -13 5 -16 10 -3 6 -2 10 4 10 5 0 13 -4 16 -10z m115 6 c0
-3 -4 -8 -10 -11 -5 -3 -10 -1 -10 4 0 6 5 11 10 11 6 0 10 -2 10 -4z m395 -6
c-3 -5 -11 -10 -16 -10 -6 0 -7 5 -4 10 3 6 11 10 16 10 6 0 7 -4 4 -10z m165
-5 c-14 -17 -45 -21 -35 -5 4 6 10 8 15 5 5 -3 11 -1 15 5 3 5 9 10 12 10 3 0
0 -7 -7 -15z m125 5 c3 -5 1 -10 -4 -10 -6 0 -11 5 -11 10 0 6 2 10 4 10 3 0
8 -4 11 -10z m-940 -10 c3 -5 -1 -10 -10 -10 -9 0 -13 5 -10 10 3 6 8 10 10
10 2 0 7 -4 10 -10z m399 1 c3 -5 -6 -11 -21 -14 -26 -5 -26 -4 -8 9 22 17 22
17 29 5z m-790 -10 c3 -4 -6 -6 -19 -3 -14 2 -25 6 -25 8 0 8 39 4 44 -5z
m996 -6 c-7 -8 -17 -15 -23 -15 -6 0 -2 7 9 15 25 19 30 19 14 0z m-1210 -5
c0 -5 -7 -10 -16 -10 -8 0 -12 5 -9 10 3 6 10 10 16 10 5 0 9 -4 9 -10z m400
0 c0 -5 -5 -10 -11 -10 -5 0 -7 5 -4 10 3 6 8 10 11 10 2 0 4 -4 4 -10z m-673
-22 c-3 -8 -6 -5 -6 6 -1 11 2 17 5 13 3 -3 4 -12 1 -19z m143 -4 c0 -2 -9 0
-20 6 -11 6 -20 13 -20 16 0 2 9 0 20 -6 11 -6 20 -13 20 -16z m396 -2 c-4 -3
-14 2 -24 12 -16 18 -16 18 6 6 13 -6 21 -14 18 -18z m679 18 c-3 -5 -11 -10
-16 -10 -6 0 -7 5 -4 10 3 6 11 10 16 10 6 0 7 -4 4 -10z m405 5 c0 -2 -10
-10 -22 -16 -21 -11 -22 -11 -9 4 13 16 31 23 31 12z m-1412 -29 c-14 -10 -15
-15 -5 -26 9 -10 7 -9 -10 1 -20 12 -20 14 -5 26 9 7 22 12 27 12 6 0 2 -5 -7
-13z m412 9 c0 -2 -15 -12 -32 -20 l-33 -16 25 20 c24 20 40 26 40 16z m400 1
c0 -3 -4 -8 -10 -11 -5 -3 -10 -1 -10 4 0 6 5 11 10 11 6 0 10 -2 10 -4z m100
-6 c0 -5 -2 -10 -4 -10 -3 0 -8 5 -11 10 -3 6 -1 10 4 10 6 0 11 -4 11 -10z
m417 -8 c9 -5 6 -12 -10 -21 -20 -13 -21 -13 -9 1 10 13 10 17 0 21 -7 3 -8 6
-3 6 6 0 15 -3 22 -7z m-1472 -12 c3 -5 1 -10 -4 -10 -6 0 -11 5 -11 10 0 6 2
10 4 10 3 0 8 -4 11 -10z m400 0 c3 -5 1 -10 -4 -10 -6 0 -11 5 -11 10 0 6 2
10 4 10 3 0 8 -4 11 -10z m269 -4 c-10 -8 -21 -12 -24 -10 -5 6 21 24 34 24 6
0 1 -6 -10 -14z m415 11 c-2 -1 -13 -9 -24 -17 -19 -14 -19 -14 -6 3 7 9 18
17 24 17 6 0 8 -1 6 -3z m262 -18 c19 -16 20 -18 4 -10 -34 17 -51 31 -39 31
7 0 22 -9 35 -21z m259 11 c0 -5 -5 -10 -11 -10 -5 0 -7 5 -4 10 3 6 8 10 11
10 2 0 4 -4 4 -10z m-1750 -10 c0 -5 -5 -10 -11 -10 -5 0 -7 5 -4 10 3 6 8 10
11 10 2 0 4 -4 4 -10z m1087 -22 c-3 -7 -5 -2 -5 12 0 14 2 19 5 13 2 -7 2
-19 0 -25z m-994 -5 c-4 -10 -9 -11 -19 -2 -19 15 -18 18 5 16 11 -1 17 -6 14
-14z m120 4 c3 -8 -3 -14 -15 -14 -16 -2 -17 1 -8 13 15 17 17 17 23 1z m274
-3 c2 -6 -3 -11 -10 -11 -8 0 -14 6 -14 14 0 15 19 12 24 -3z m126 3 c3 -8 -3
-14 -15 -14 -16 -2 -17 1 -8 13 15 17 17 17 23 1z m279 -11 c-3 -11 -7 -15
-10 -8 -2 7 -7 10 -11 8 -4 -3 -8 1 -8 9 0 7 8 13 17 12 12 -1 15 -7 12 -21z
m121 9 c3 -6 -3 -11 -12 -12 -10 -1 -18 4 -18 11 0 16 25 17 30 1z m277 -4 c0
-4 -6 -8 -14 -8 -8 0 -12 6 -9 14 5 13 23 9 23 -6z m127 4 c0 -8 -2 -13 -5
-10 -3 2 -14 -1 -26 -7 -21 -11 -21 -11 -2 11 22 25 33 27 33 6z m273 -6 c0
-5 -3 -8 -7 -7 -5 1 -19 -4 -33 -11 l-25 -14 25 25 c24 24 40 27 40 7z m126
14 c-3 -3 2 -12 12 -20 15 -13 15 -13 -4 -4 -12 6 -24 8 -26 5 -3 -3 -8 1 -11
9 -3 8 3 13 15 14 11 1 18 -1 14 -4z m-1459 -17 c0 -8 -6 -12 -15 -9 -11 5
-11 7 0 14 7 5 13 9 14 9 0 0 1 -6 1 -14z m793 0 c-7 -7 -13 -7 -20 0 -6 6 -3
10 10 10 13 0 16 -4 10 -10z m400 -1 c0 -2 -6 -5 -13 -8 -8 -3 -14 1 -14 8 0
7 6 11 14 8 7 -3 13 -6 13 -8z m337 -7 c-3 -8 -6 -5 -6 6 -1 11 2 17 5 13 3
-3 4 -12 1 -19z m-1132 2 c3 -6 -1 -7 -9 -4 -18 7 -21 14 -7 14 6 0 13 -4 16
-10z m-594 -13 c-6 -8 -7 -17 -3 -22 4 -4 -3 -2 -15 4 -25 13 -31 24 -9 15 8
-3 17 -1 21 5 3 6 9 11 12 11 3 0 0 -6 -6 -13z m684 3 c-3 -5 -12 -10 -18 -10
-7 0 -6 4 3 10 19 12 23 12 15 0z m-424 -13 c-6 -8 -7 -17 -3 -22 4 -4 1 -6
-7 -3 -8 2 -17 10 -19 18 -3 7 0 10 6 6 6 -3 13 -2 17 4 3 5 9 10 12 10 3 0 0
-6 -6 -13z m136 -1 c0 -8 -6 -12 -15 -9 -11 5 -11 7 0 14 7 5 13 9 14 9 0 0 1
-6 1 -14z m388 -4 c-3 -3 -11 0 -18 7 -9 10 -8 11 6 5 10 -3 15 -9 12 -12z
m140 6 c4 4 6 1 3 -7 -2 -8 -11 -17 -19 -19 -8 -3 -11 -1 -7 3 4 5 2 15 -5 24
-10 14 -10 14 4 4 9 -7 19 -9 24 -5z m260 -6 c-3 -3 -11 0 -18 7 -9 10 -8 11
6 5 10 -3 15 -9 12 -12z m410 8 c-3 -5 -12 -10 -18 -10 -7 0 -6 4 3 10 19 12
23 12 15 0z m-1752 -13 c3 -7 -3 -13 -14 -13 -13 0 -15 3 -7 13 6 7 12 13 13
13 2 0 5 -6 8 -13z m290 0 c3 -7 -3 -13 -12 -14 -10 -1 -18 5 -18 13 0 18 23
19 30 1z m395 1 c-2 -6 -10 -14 -16 -16 -7 -2 -10 2 -6 12 7 18 28 22 22 4z
m122 -9 c0 -6 -4 -7 -10 -4 -5 3 -10 11 -10 16 0 6 5 7 10 4 6 -3 10 -11 10
-16z m407 4 c0 -7 -5 -12 -11 -10 -15 5 -18 24 -3 24 8 0 14 -6 14 -14z m268
-2 c-3 -6 -11 -11 -17 -11 -6 0 -6 6 2 15 14 17 26 13 15 -4z m132 4 c0 -18
-19 -15 -25 3 -2 7 3 12 11 12 7 0 14 -7 14 -15z m273 6 c0 -6 -4 -13 -10 -16
-5 -3 -10 1 -10 9 0 9 5 16 10 16 6 0 10 -4 10 -9z m-603 -33 c-3 -7 -5 -2 -5
12 0 14 2 19 5 13 2 -7 2 -19 0 -25z m-1200 -15 c1 -22 -1 -24 -8 -11 -5 10
-16 15 -24 12 -8 -4 -15 -1 -15 4 0 9 9 14 40 21 3 0 6 -11 7 -26z m389 12
c-8 -8 -21 -15 -28 -15 -8 1 -6 6 6 15 26 20 42 19 22 0z m679 5 c-3 -5 -12
-10 -18 -10 -7 0 -6 4 3 10 19 12 23 12 15 0z m390 -8 c-3 -3 -11 0 -18 7 -9
10 -8 11 6 5 10 -3 15 -9 12 -12z m142 -14 c-3 -7 -5 -2 -5 12 0 14 2 19 5 13
2 -7 2 -19 0 -25z m152 16 c6 -6 -1 -11 -29 -18 -19 -6 -22 -5 -10 3 13 10 13
12 0 22 -12 8 -9 9 10 3 14 -3 27 -8 29 -10z m-1614 -4 c3 -5 1 -10 -4 -10 -6
0 -11 5 -11 10 0 6 2 10 4 10 3 0 8 -4 11 -10z m414 -4 c10 -12 8 -13 -8 -9
-12 3 -21 9 -21 14 0 14 16 11 29 -5z m231 4 c0 -5 -5 -10 -11 -10 -5 0 -7 5
-4 10 3 6 8 10 11 10 2 0 4 -4 4 -10z m160 0 c0 -5 -4 -10 -10 -10 -5 0 -10 5
-10 10 0 6 5 10 10 10 6 0 10 -4 10 -10z m240 0 c0 -5 -4 -10 -10 -10 -5 0
-10 5 -10 10 0 6 5 10 10 10 6 0 10 -4 10 -10z m165 0 c3 -5 -1 -10 -9 -10 -9
0 -16 5 -16 10 0 6 4 10 9 10 6 0 13 -4 16 -10z m235 6 c0 -3 -4 -8 -10 -11
-5 -3 -10 -1 -10 4 0 6 5 11 10 11 6 0 10 -2 10 -4z m-673 -28 c-3 -8 -6 -5
-6 6 -1 11 2 17 5 13 3 -3 4 -12 1 -19z m403 2 c0 -5 -5 -10 -11 -10 -5 0 -7
5 -4 10 3 6 8 10 11 10 2 0 4 -4 4 -10z m-1392 -14 c-7 -8 -15 -12 -17 -11 -5
6 10 25 20 25 5 0 4 -6 -3 -14z m283 -3 c13 -15 12 -15 -8 -4 -24 12 -29 21
-14 21 5 0 15 -7 22 -17z m124 7 c-3 -5 -11 -10 -16 -10 -6 0 -7 5 -4 10 3 6
11 10 16 10 6 0 7 -4 4 -10z m276 -7 c13 -15 12 -15 -8 -4 -24 12 -29 21 -14
21 5 0 15 -7 22 -17z m119 7 c0 -5 -5 -10 -11 -10 -5 0 -7 5 -4 10 3 6 8 10
11 10 2 0 4 -4 4 -10z m281 -7 c13 -15 12 -15 -8 -4 -24 12 -29 21 -14 21 5 0
15 -7 22 -17z m124 7 c-3 -5 -11 -10 -16 -10 -6 0 -7 5 -4 10 3 6 11 10 16 10
6 0 7 -4 4 -10z m270 0 c3 -5 2 -10 -4 -10 -5 0 -13 5 -16 10 -3 6 -2 10 4 10
5 0 13 -4 16 -10z m400 0 c3 -6 -1 -7 -9 -4 -18 7 -21 14 -7 14 6 0 13 -4 16
-10z m-1735 -14 c0 -2 -7 -7 -16 -10 -8 -3 -12 -2 -9 4 6 10 25 14 25 6z m400
0 c0 -2 -7 -7 -16 -10 -8 -3 -12 -2 -9 4 6 10 25 14 25 6z m221 -9 c-6 -8 -9
-16 -7 -18 2 -2 -8 -4 -23 -4 -15 0 -28 5 -28 11 0 6 10 9 22 6 13 -2 26 1 29
7 4 6 10 11 13 11 3 0 0 -6 -6 -13z m584 3 c3 -6 -1 -7 -9 -4 -18 7 -21 14 -7
14 6 0 13 -4 16 -10z m400 0 c3 -6 -1 -7 -9 -4 -18 7 -21 14 -7 14 6 0 13 -4
16 -10z m-1410 -12 c3 -3 -3 -8 -13 -10 -11 -3 -19 0 -19 7 0 13 21 14 32 3z
m819 3 c-2 -2 2 -11 8 -20 10 -13 10 -14 -2 -3 -8 6 -22 12 -31 12 -10 0 -20
3 -22 8 -3 4 8 7 23 7 16 0 26 -2 24 -4z m403 -5 c0 -8 -8 -11 -21 -8 -19 5
-19 6 0 13 10 4 19 8 20 8 0 1 1 -5 1 -13z m-267 -11 c-7 -8 -18 -15 -24 -15
-6 0 -2 7 8 15 25 19 32 19 16 0z m395 6 c3 -5 1 -12 -5 -16 -5 -3 -10 1 -10
9 0 18 6 21 15 7z m-1495 -11 c0 -5 -2 -10 -4 -10 -3 0 -8 5 -11 10 -3 6 -1
10 4 10 6 0 11 -4 11 -10z m405 0 c3 -5 2 -10 -4 -10 -5 0 -13 5 -16 10 -3 6
-2 10 4 10 5 0 13 -4 16 -10z m285 0 c0 -5 -5 -10 -11 -10 -5 0 -7 5 -4 10 3
6 8 10 11 10 2 0 4 -4 4 -10z m915 0 c3 -5 1 -10 -4 -10 -6 0 -11 5 -11 10 0
6 2 10 4 10 3 0 8 -4 11 -10z m-1115 -15 c-7 -9 -15 -13 -19 -10 -3 3 1 10 9
15 21 14 24 12 10 -5z m-240 -30 c0 -3 -7 -2 -15 1 -8 4 -22 1 -30 -6 -10 -9
-15 -9 -15 -1 0 6 5 11 11 11 8 0 8 4 -1 15 -10 12 -7 12 19 -1 17 -9 31 -17
31 -19z m360 25 c0 -5 -2 -10 -4 -10 -3 0 -8 5 -11 10 -3 6 -1 10 4 10 6 0 11
-4 11 -10z m280 6 c0 -3 -4 -8 -10 -11 -5 -3 -10 -1 -10 4 0 6 5 11 10 11 6 0
10 -2 10 -4z m134 -11 c11 -8 15 -15 10 -15 -6 0 -19 7 -30 15 -10 8 -14 14
-9 14 6 0 19 -6 29 -14z m418 1 c10 5 10 4 2 -5 -12 -13 -44 -5 -44 11 0 6 6
5 15 -2 8 -6 20 -8 27 -4z m238 -1 c-9 -10 -9 -15 -1 -15 6 0 11 -5 11 -10 0
-6 -8 -5 -19 2 -18 11 -18 13 -3 25 23 17 27 16 12 -2z m-820 -10 c0 -2 -6 -5
-13 -8 -8 -3 -14 1 -14 8 0 7 6 11 14 8 7 -3 13 -6 13 -8z m-1046 -9 c-10 -8
-21 -12 -24 -10 -5 6 21 24 34 24 6 0 1 -6 -10 -14z m831 4 c3 -6 -1 -7 -9 -4
-18 7 -21 14 -7 14 6 0 13 -4 16 -10z m615 6 c0 -2 -7 -7 -16 -10 -8 -3 -12
-2 -9 4 6 10 25 14 25 6z m-775 -16 c3 -5 1 -10 -4 -10 -6 0 -11 5 -11 10 0 6
2 10 4 10 3 0 8 -4 11 -10z m810 -8 c-3 -3 -11 0 -18 7 -9 10 -8 11 6 5 10 -3
15 -9 12 -12z m115 9 c0 -5 -10 -11 -22 -14 -22 -6 -22 -6 -4 8 23 17 26 18
26 6z m-1525 -12 c11 -17 -1 -21 -15 -4 -8 9 -8 15 -2 15 6 0 14 -5 17 -11z
m415 -15 c0 -2 -9 0 -20 6 -11 6 -20 13 -20 16 0 2 9 0 20 -6 11 -6 20 -13 20
-16z m-145 -4 c3 -5 -3 -10 -14 -10 -12 0 -21 5 -21 10 0 6 6 10 14 10 8 0 18
-4 21 -10z m405 0 c0 -5 -6 -10 -14 -10 -8 0 -18 5 -21 10 -3 6 3 10 14 10 12
0 21 -4 21 -10z m400 0 c0 -5 -9 -10 -20 -10 -11 0 -20 5 -20 10 0 6 9 10 20
10 11 0 20 -4 20 -10z m400 0 c0 -5 -6 -10 -14 -10 -8 0 -18 5 -21 10 -3 6 3
10 14 10 12 0 21 -4 21 -10z m-1410 -20 c0 -5 -2 -10 -4 -10 -3 0 -8 5 -11 10
-3 6 -1 10 4 10 6 0 11 -4 11 -10z m1199 7 c-2 -1 -13 -9 -24 -17 -19 -14 -19
-14 -6 3 7 9 18 17 24 17 6 0 8 -1 6 -3z m-1344 -17 c3 -5 1 -10 -4 -10 -6 0
-11 5 -11 10 0 6 2 10 4 10 3 0 8 -4 11 -10z m285 6 c0 -3 -4 -8 -10 -11 -5
-3 -10 -1 -10 4 0 6 5 11 10 11 6 0 10 -2 10 -4z m393 -11 c-3 -9 -8 -14 -10
-11 -3 3 -2 9 2 15 9 16 15 13 8 -4z m927 0 c0 -8 -2 -15 -4 -15 -2 0 -6 7
-10 15 -3 8 -1 15 4 15 6 0 10 -7 10 -15z m280 5 c0 -5 -5 -10 -11 -10 -5 0
-7 5 -4 10 3 6 8 10 11 10 2 0 4 -4 4 -10z m-1809 -23 c-8 -10 -7 -17 2 -27
10 -12 9 -12 -6 0 -16 11 -22 12 -40 1 -16 -10 -19 -10 -10 -1 10 11 50 36 62
39 2 1 -1 -5 -8 -12z m119 3 c0 -5 -2 -10 -4 -10 -3 0 -8 5 -11 10 -3 6 -1 10
4 10 6 0 11 -4 11 -10z m280 -5 c-9 -10 -9 -15 -1 -15 6 0 11 -5 11 -10 0 -6
-8 -5 -19 2 -18 11 -18 13 -3 25 23 17 27 16 12 -2z m120 5 c0 -5 -2 -10 -4
-10 -3 0 -8 5 -11 10 -3 6 -1 10 4 10 6 0 11 -4 11 -10z m287 -4 c-16 -13 -16
-14 -1 -20 9 -4 14 -9 11 -12 -3 -3 -14 0 -25 7 -19 12 -19 14 -4 26 9 7 22
12 27 12 6 0 2 -6 -8 -13z m125 1 c15 -12 15 -14 -4 -26 -11 -7 -22 -10 -25
-7 -3 3 2 8 11 12 15 6 15 7 -1 20 -10 7 -13 13 -8 13 6 0 18 -5 27 -12z m269
-6 c-10 -6 -9 -10 5 -15 9 -3 14 -9 11 -12 -3 -3 -14 0 -25 7 -19 12 -19 14
-4 25 9 7 19 10 22 8 2 -3 -1 -9 -9 -13z m131 6 c15 -12 15 -14 -5 -27 -20
-12 -21 -12 -9 3 11 13 10 17 -5 26 -10 6 -13 10 -8 10 6 0 18 -5 27 -12z
m288 9 c0 -3 -4 -8 -10 -11 -5 -3 -10 -1 -10 4 0 6 5 11 10 11 6 0 10 -2 10
-4z m127 -21 c1 0 -8 -7 -20 -14 -19 -13 -20 -12 -10 1 10 11 10 17 0 28 -10
11 -8 11 8 0 11 -8 21 -15 22 -15z m-1592 5 c-3 -5 -12 -10 -18 -10 -7 0 -6 4
3 10 19 12 23 12 15 0z m109 -8 c3 -5 -1 -9 -9 -9 -8 0 -12 4 -9 9 3 4 7 8 9
8 2 0 6 -4 9 -8z m291 -2 c3 -6 -1 -7 -9 -4 -18 7 -21 14 -7 14 6 0 13 -4 16
-10z m526 -7 c13 -16 12 -17 -3 -4 -10 7 -18 15 -18 17 0 8 8 3 21 -13z m444
-15 c4 4 6 1 3 -7 -5 -16 -30 -29 -26 -13 2 5 -8 19 -22 32 l-25 22 31 -21
c17 -11 35 -17 39 -13z m-1405 12 c0 -5 -5 -10 -11 -10 -5 0 -7 5 -4 10 3 6 8
10 11 10 2 0 4 -4 4 -10z m400 0 c0 -5 -5 -10 -11 -10 -5 0 -7 5 -4 10 3 6 8
10 11 10 2 0 4 -4 4 -10z m1095 0 c3 -5 1 -10 -4 -10 -6 0 -11 5 -11 10 0 6 2
10 4 10 3 0 8 -4 11 -10z m-1682 -23 c3 -7 -3 -13 -13 -13 -10 0 -16 6 -13 13
3 7 9 13 13 13 4 0 10 -6 13 -13z m284 -4 c0 -7 -5 -12 -11 -10 -15 5 -18 24
-3 24 8 0 14 -6 14 -14z m116 4 c3 -7 -3 -13 -12 -14 -10 -1 -18 5 -18 13 0
18 23 19 30 1z m284 -4 c0 -7 -5 -12 -11 -10 -15 5 -18 24 -3 24 8 0 14 -6 14
-14z m116 4 c3 -7 -3 -13 -14 -14 -12 -1 -16 3 -12 13 6 18 19 18 26 1z m284
-2 c0 -18 -19 -15 -25 3 -2 7 3 12 11 12 7 0 14 -7 14 -15z m113 4 c0 -15 -18
-19 -23 -6 -3 8 1 14 9 14 8 0 14 -4 14 -8z m287 -4 c0 -9 -5 -14 -11 -12 -6
3 -20 0 -31 -6 l-20 -10 20 21 c24 25 42 28 42 7z m396 1 c4 -10 0 -14 -12
-13 -11 1 -17 7 -14 14 7 17 20 17 26 -1z m-548 -14 c-3 -3 -11 0 -18 7 -9 10
-8 11 6 5 10 -3 15 -9 12 -12z m-336 -40 c1 -7 -3 -10 -9 -7 -5 3 -10 18 -9
33 0 24 1 25 9 7 5 -11 9 -26 9 -33z m-659 18 c0 -5 -4 -10 -10 -10 -5 0 -10
5 -10 10 0 6 5 10 10 10 6 0 10 -4 10 -10z m136 -17 c-10 -10 -19 5 -10 18 6
11 8 11 12 0 2 -7 1 -15 -2 -18z m124 8 c0 -5 -9 -11 -19 -14 -17 -4 -18 -2
-8 13 10 18 27 18 27 1z m535 9 c3 -5 1 -10 -4 -10 -6 0 -11 5 -11 10 0 6 2
10 4 10 3 0 8 -4 11 -10z m271 -28 c-9 -8 -26 10 -26 26 1 15 2 15 15 -2 8
-11 13 -21 11 -24z m134 28 c0 -5 -4 -10 -10 -10 -5 0 -10 5 -10 10 0 6 5 10
10 10 6 0 10 -4 10 -10z m258 -8 c6 -18 -15 -14 -22 4 -4 10 -1 14 6 12 6 -2
14 -10 16 -16z m-1724 -19 c-10 -40 -14 -41 -14 -5 0 18 5 32 10 32 6 0 8 -11
4 -27z m129 13 c4 -10 0 -12 -14 -9 -10 3 -16 9 -13 14 8 13 21 11 27 -5z
m677 5 c0 -6 -4 -13 -10 -16 -5 -3 -10 1 -10 9 0 9 5 16 10 16 6 0 10 -4 10
-9z m400 -1 c0 -5 -4 -10 -10 -10 -5 0 -10 5 -10 10 0 6 5 10 10 10 6 0 10 -4
10 -10z m404 1 c3 -5 -3 -11 -13 -14 -14 -3 -18 -1 -14 9 6 16 19 18 27 5z
m-1406 -25 c-14 -10 -15 -15 -5 -26 9 -10 7 -9 -10 1 -20 12 -20 14 -5 26 9 7
22 12 27 12 6 0 2 -5 -7 -13z m398 -1 c-11 -8 -24 -15 -30 -15 -5 0 -1 7 10
15 10 8 24 14 29 14 6 0 1 -6 -9 -14z m541 -10 c1 0 -8 -7 -20 -14 -20 -13
-21 -13 -8 2 9 11 10 17 2 17 -6 0 -11 5 -11 11 0 8 6 7 18 -2 9 -7 18 -14 19
-14z m263 -7 c0 -29 -1 -30 -13 -13 -9 11 -19 15 -27 10 -9 -6 -11 -4 -6 4 5
7 14 10 22 7 8 -3 14 1 14 9 0 8 2 15 5 15 3 0 5 -14 5 -32z m144 15 c10 4 13
1 9 -8 -3 -8 -9 -12 -14 -9 -6 3 -18 0 -27 -8 -15 -12 -16 -11 -3 5 9 11 10
17 2 17 -6 0 -11 5 -11 11 0 8 5 8 15 -1 8 -7 21 -10 29 -7z m-1496 -18 c-3
-3 -9 2 -12 12 -6 14 -5 15 5 6 7 -7 10 -15 7 -18z m282 5 c-24 -19 -40 -25
-40 -15 0 5 51 34 60 34 3 0 -6 -8 -20 -19z m530 6 c-7 -7 -13 -7 -20 0 -6 6
-3 10 10 10 13 0 16 -4 10 -10z m400 0 c-7 -7 -13 -7 -20 0 -6 6 -3 10 10 10
13 0 16 -4 10 -10z m-514 -8 c4 -7 3 -8 -5 -4 -6 4 -18 2 -26 -4 -9 -8 -15 -8
-15 -2 0 9 15 19 32 21 4 1 10 -4 14 -11z m245 -5 c13 -16 12 -17 -3 -5 -9 8
-23 10 -29 6 -8 -4 -9 -3 -5 4 10 17 21 15 37 -5z m789 13 c0 -2 -7 -7 -16
-10 -8 -3 -12 -2 -9 4 6 10 25 14 25 6z m-1870 -16 c0 -5 -5 -10 -11 -10 -5 0
-7 5 -4 10 3 6 8 10 11 10 2 0 4 -4 4 -10z m485 -28 c-8 -8 -25 10 -19 20 4 6
9 5 15 -3 4 -7 6 -15 4 -17z m400 8 c3 -5 1 -10 -4 -10 -6 0 -11 5 -11 10 0 6
2 10 4 10 3 0 8 -4 11 -10z m525 0 c0 -5 -5 -10 -11 -10 -5 0 -7 5 -4 10 3 6
8 10 11 10 2 0 4 -4 4 -10z m400 0 c0 -5 -5 -10 -11 -10 -5 0 -7 5 -4 10 3 6
8 10 11 10 2 0 4 -4 4 -10z m-1453 -14 c0 -8 -6 -12 -15 -9 -11 5 -11 7 0 14
7 5 13 9 14 9 0 0 1 -6 1 -14z m400 0 c0 -8 -6 -12 -15 -9 -11 5 -11 7 0 14 7
5 13 9 14 9 0 0 1 -6 1 -14z m788 -4 c-3 -3 -11 0 -18 7 -9 10 -8 11 6 5 10
-3 15 -9 12 -12z m-600 -14 c16 -3 15 -5 -8 -10 -15 -3 -25 -3 -22 0 2 3 -1
12 -8 21 -10 14 -10 14 3 5 8 -7 24 -14 35 -16z m209 14 c2 -4 -4 -8 -14 -8
-10 0 -16 4 -14 8 3 4 9 8 14 8 5 0 11 -4 14 -8z m-1009 -12 c3 -5 -1 -10 -10
-10 -9 0 -13 5 -10 10 3 6 8 10 10 10 2 0 7 -4 10 -10z m396 -8 c-7 -2 -18 1
-23 6 -8 8 -4 9 13 5 13 -4 18 -8 10 -11z m819 9 c0 -5 -11 -11 -25 -13 -14
-3 -25 -3 -25 -1 0 3 34 19 48 22 1 1 2 -3 2 -8z m404 -3 c-3 -4 -11 -8 -19
-8 -8 0 -16 4 -19 8 -2 4 6 8 19 8 13 0 21 -4 19 -8z m-1479 -18 c-3 -5 -12
-10 -18 -10 -7 0 -6 4 3 10 19 12 23 12 15 0z m120 0 c3 -5 1 -10 -4 -10 -6 0
-11 5 -11 10 0 6 2 10 4 10 3 0 8 -4 11 -10z m400 1 c3 -5 1 -12 -5 -16 -5 -3
-10 1 -10 9 0 18 6 21 15 7z m1090 -1 c-3 -5 -11 -10 -16 -10 -6 0 -7 5 -4 10
3 6 11 10 16 10 6 0 7 -4 4 -10z m-600 -10 c-3 -5 -12 -10 -18 -10 -7 0 -6 4
3 10 19 12 23 12 15 0z m395 0 c0 -5 -5 -10 -11 -10 -5 0 -7 5 -4 10 3 6 8 10
11 10 2 0 4 -4 4 -10z m-1613 -37 c-3 -10 -5 -4 -5 12 0 17 2 24 5 18 2 -7 2
-21 0 -30z m148 11 c-25 -18 -31 -18 -31 4 0 14 6 17 25 14 23 -5 23 -6 6 -18z
m385 16 c0 -5 7 -7 15 -4 8 4 15 1 15 -5 0 -6 -4 -11 -9 -11 -5 0 -16 -2 -23
-5 -9 -4 -14 2 -14 15 0 11 4 20 8 20 4 0 8 -4 8 -10z m397 -22 c-3 -7 -5 -2
-5 12 0 14 2 19 5 13 2 -7 2 -19 0 -25z m400 0 c-3 -7 -5 -2 -5 12 0 14 2 19
5 13 2 -7 2 -19 0 -25z m-1347 12 c0 -5 -5 -10 -11 -10 -5 0 -7 5 -4 10 3 6 8
10 11 10 2 0 4 -4 4 -10z m400 0 c0 -5 -4 -10 -10 -10 -5 0 -10 5 -10 10 0 6
5 10 10 10 6 0 10 -4 10 -10z m400 0 c0 -5 -4 -10 -10 -10 -5 0 -10 5 -10 10
0 6 5 10 10 10 6 0 10 -4 10 -10z m180 0 c0 -5 -4 -10 -10 -10 -5 0 -10 5 -10
10 0 6 5 10 10 10 6 0 10 -4 10 -10z m220 0 c0 -5 -4 -10 -10 -10 -5 0 -10 5
-10 10 0 6 5 10 10 10 6 0 10 -4 10 -10z m180 0 c0 -5 -2 -10 -4 -10 -3 0 -8
5 -11 10 -3 6 -1 10 4 10 6 0 11 -4 11 -10z m234 -5 c11 -8 18 -17 15 -19 -2
-3 -15 4 -29 14 -14 11 -20 20 -15 19 6 0 19 -6 29 -14z m166 5 c0 -5 -4 -10
-10 -10 -5 0 -10 5 -10 10 0 6 5 10 10 10 6 0 10 -4 10 -10z m-1363 -22 c-3
-8 -6 -5 -6 6 -1 11 2 17 5 13 3 -3 4 -12 1 -19z m418 -7 c-6 -5 -25 10 -25
20 0 5 6 4 14 -3 8 -7 12 -15 11 -17z m-605 -7 c0 -2 -9 0 -20 6 -11 6 -20 13
-20 16 0 2 9 0 20 -6 11 -6 20 -13 20 -16z m940 21 c0 -2 -10 -9 -22 -15 -22
-11 -22 -10 -4 4 21 17 26 19 26 11z m65 -5 c3 -5 2 -10 -4 -10 -5 0 -13 5
-16 10 -3 6 -2 10 4 10 5 0 13 -4 16 -10z m-1290 -10 c-3 -5 -11 -10 -16 -10
-6 0 -7 5 -4 10 3 6 11 10 16 10 6 0 7 -4 4 -10z m405 6 c0 -3 -4 -8 -10 -11
-5 -3 -10 -1 -10 4 0 6 5 11 10 11 6 0 10 -2 10 -4z m400 0 c0 -3 -4 -8 -10
-11 -5 -3 -10 -1 -10 4 0 6 5 11 10 11 6 0 10 -2 10 -4z m944 -28 c-3 -4 -11
-5 -19 -2 -11 5 -12 9 -2 19 12 13 31 -1 21 -17z m-791 10 c-2 -5 -12 -8 -22
-8 -9 0 -23 -6 -31 -12 -12 -11 -12 -10 -2 3 6 9 10 18 8 20 -2 2 8 4 24 4 15
0 26 -3 23 -7z m387 -6 c-8 -3 -24 -9 -35 -15 -17 -9 -18 -8 -8 5 7 8 10 17 8
20 -3 3 7 3 22 0 17 -3 22 -7 13 -10z m-1205 -3 c-4 -6 -10 -8 -13 -5 -3 3
-12 0 -21 -7 -14 -11 -14 -10 -2 6 14 18 47 24 36 6z m405 7 c0 -11 -19 -15
-25 -6 -3 5 1 10 9 10 9 0 16 -2 16 -4z m-193 -20 c0 -8 -6 -12 -15 -9 -11 5
-11 7 0 14 7 5 13 9 14 9 0 0 1 -6 1 -14z m388 -4 c-3 -3 -11 0 -18 7 -9 10
-8 11 6 5 10 -3 15 -9 12 -12z m805 3 c0 -2 -6 -5 -13 -8 -8 -3 -14 1 -14 8 0
7 6 11 14 8 7 -3 13 -6 13 -8z m-1065 -4 c3 -5 1 -12 -5 -16 -5 -3 -10 1 -10
9 0 18 6 21 15 7z m670 -1 c3 -6 -1 -7 -9 -4 -18 7 -21 14 -7 14 6 0 13 -4 16
-10z m-1070 -10 c-3 -5 -11 -10 -16 -10 -6 0 -7 5 -4 10 3 6 11 10 16 10 6 0
7 -4 4 -10z m805 6 c0 -3 -4 -8 -10 -11 -5 -3 -10 -1 -10 4 0 6 5 11 10 11 6
0 10 -2 10 -4z m120 -6 c0 -5 -2 -10 -4 -10 -3 0 -8 5 -11 10 -3 6 -1 10 4 10
6 0 11 -4 11 -10z m400 0 c0 -5 -2 -10 -4 -10 -3 0 -8 5 -11 10 -3 6 -1 10 4
10 6 0 11 -4 11 -10z m405 0 c3 -5 2 -10 -4 -10 -5 0 -13 5 -16 10 -3 6 -2 10
4 10 5 0 13 -4 16 -10z m-1815 -22 c0 -6 -6 -5 -15 2 -8 7 -15 14 -15 16 0 2
7 1 15 -2 8 -4 15 -11 15 -16z m280 -3 c-9 -10 -9 -15 -1 -15 6 0 11 -5 11
-10 0 -6 -8 -5 -19 2 -18 11 -18 13 -3 25 23 17 27 16 12 -2z m135 -2 c15 -12
16 -14 3 -10 -11 4 -18 0 -20 -11 -3 -11 -6 -8 -10 11 -6 31 -1 33 27 10z
m267 5 c-9 -9 -7 -14 6 -24 9 -8 13 -13 7 -13 -5 -1 -21 8 -35 19 -14 11 -18
18 -9 14 10 -3 20 -1 24 5 3 6 9 11 13 11 3 0 1 -5 -6 -12z m150 -2 c10 5 10
4 2 -5 -12 -13 -44 -5 -44 11 0 6 6 5 15 -2 8 -6 20 -8 27 -4z m250 -3 c-10
-4 -8 -9 5 -19 10 -7 14 -13 8 -13 -5 -1 -21 8 -35 19 -14 11 -18 18 -9 14 10
-3 20 0 24 6 4 6 10 8 14 4 3 -4 0 -9 -7 -11z m150 2 c7 4 2 -3 -12 -14 -14
-11 -29 -21 -35 -20 -5 0 -2 5 7 13 14 10 15 15 5 26 -10 12 -9 12 5 1 9 -7
23 -10 30 -6z m258 6 c0 -15 -32 -23 -44 -11 -8 8 -6 9 5 5 10 -4 20 -2 24 4
8 13 15 14 15 2z m142 -6 c7 4 2 -3 -12 -14 -14 -11 -29 -21 -35 -20 -5 0 -2
5 7 13 14 10 15 15 5 26 -10 12 -9 12 5 1 9 -7 23 -10 30 -6z m268 11 c0 -3
-4 -8 -10 -11 -5 -3 -10 -1 -10 4 0 6 5 11 10 11 6 0 10 -2 10 -4z m-946 -24
c2 -4 -4 -8 -14 -8 -10 0 -16 4 -14 8 3 4 9 8 14 8 5 0 11 -4 14 -8z m-779
-20 c-3 -3 -11 0 -18 7 -9 10 -8 11 6 5 10 -3 15 -9 12 -12z m-85 -11 c0 -5
-9 -11 -19 -14 -17 -4 -18 -2 -8 13 10 18 27 18 27 1z m400 -2 c0 -5 -4 -9
-10 -9 -5 0 -10 7 -10 16 0 8 5 12 10 9 6 -3 10 -10 10 -16z m120 1 c-6 -11
-15 -20 -21 -20 -6 0 -6 7 1 20 6 11 15 20 21 20 6 0 6 -7 -1 -20z m280 -1 c0
-5 -4 -9 -10 -9 -5 0 -10 7 -10 16 0 8 5 12 10 9 6 -3 10 -10 10 -16z m800 0
c0 -14 -17 -10 -23 5 -4 10 -1 13 9 9 7 -3 14 -9 14 -14z m-1480 1 c0 -5 -4
-10 -10 -10 -5 0 -10 5 -10 10 0 6 5 10 10 10 6 0 10 -4 10 -10z m794 -17
c-10 -40 -14 -41 -14 -5 0 18 5 32 10 32 6 0 8 -11 4 -27z m286 17 c0 -5 -4
-10 -10 -10 -5 0 -10 5 -10 10 0 6 5 10 10 10 6 0 10 -4 10 -10z m120 1 c0 -6
-4 -13 -10 -16 -5 -3 -10 1 -10 9 0 9 5 16 10 16 6 0 10 -4 10 -9z m398 -3
c-2 -6 -10 -14 -16 -16 -7 -2 -10 2 -6 12 7 18 28 22 22 4z m-1458 -8 c0 -5
-2 -10 -4 -10 -3 0 -8 5 -11 10 -3 6 -1 10 4 10 6 0 11 -4 11 -10z m400 0 c0
-5 -2 -10 -4 -10 -3 0 -8 5 -11 10 -3 6 -1 10 4 10 6 0 11 -4 11 -10z m400 0
c0 -5 -4 -10 -10 -10 -5 0 -10 5 -10 10 0 6 5 10 10 10 6 0 10 -4 10 -10z
m400 0 c0 -5 -4 -10 -10 -10 -5 0 -10 5 -10 10 0 6 5 10 10 10 6 0 10 -4 10
-10z m-741 -42 c1 -5 -5 -8 -13 -8 -9 0 -12 8 -8 27 5 25 6 25 13 8 4 -11 8
-23 8 -27z m277 19 c6 2 11 -3 11 -12 0 -21 -14 -19 -40 6 -20 19 -20 20 -2
12 11 -6 25 -9 31 -6z m674 -13 c0 -2 -9 0 -20 6 -11 6 -20 13 -20 16 0 2 9 0
20 -6 11 -6 20 -13 20 -16z m-1746 1 c-7 -16 -24 -21 -24 -6 0 8 7 13 27 20 1
1 0 -6 -3 -14z m147 -2 c13 -16 12 -17 -3 -5 -9 8 -23 10 -29 6 -8 -4 -9 -3
-5 4 10 17 21 15 37 -5z m136 10 c-4 -3 -1 -13 6 -22 10 -14 10 -14 -4 -4 -9
7 -19 10 -22 6 -4 -3 -7 -2 -7 4 0 12 11 23 23 23 6 0 7 -3 4 -7z m116 -10
c-3 -7 -11 -13 -19 -13 -7 0 -11 6 -8 13 3 8 11 14 18 14 8 0 12 -6 9 -14z
m141 9 c2 -4 -4 -8 -14 -8 -10 0 -16 4 -14 8 3 4 9 8 14 8 5 0 11 -4 14 -8z
m143 1 c-4 -3 -2 -12 4 -19 8 -9 5 -11 -10 -7 -28 7 -26 33 2 33 6 0 7 -3 4
-7z m253 3 c0 -2 -7 -7 -16 -10 -8 -3 -12 -2 -9 4 6 10 25 14 25 6z m255 -7
c11 -17 -1 -21 -15 -4 -8 9 -8 15 -2 15 6 0 14 -5 17 -11z m145 7 c0 -2 -7 -7
-16 -10 -8 -3 -12 -2 -9 4 6 10 25 14 25 6z m147 -11 c0 -8 -6 -15 -14 -15
-14 0 -17 12 -6 23 11 11 20 8 20 -8z m113 -6 c0 -5 -6 -9 -13 -9 -8 0 -14 6
-14 14 0 8 6 12 14 9 7 -3 13 -9 13 -14z m285 1 c3 -5 -1 -10 -9 -10 -9 0 -16
5 -16 10 0 6 4 10 9 10 6 0 13 -4 16 -10z m-1818 -20 c15 12 16 12 6 0 -9 -10
-10 -17 -2 -26 8 -10 2 -9 -20 2 -17 8 -33 20 -37 25 -3 6 3 5 14 -2 17 -10
24 -10 39 1z m137 -5 c11 -8 15 -15 10 -15 -6 0 -19 7 -30 15 -10 8 -14 14 -9
14 6 0 19 -6 29 -14z m266 -5 c-10 -7 -11 -10 -2 -10 6 0 12 -5 12 -10 0 -6
-8 -5 -19 2 -18 11 -18 13 -3 24 9 7 19 10 22 8 2 -3 -2 -9 -10 -14z m120 10
c0 -5 -2 -10 -4 -10 -3 0 -8 5 -11 10 -3 6 -1 10 4 10 6 0 11 -4 11 -10z m280
-10 c-10 -7 -11 -10 -2 -10 6 0 12 -5 12 -10 0 -6 -8 -5 -19 2 -18 11 -18 13
-3 24 9 7 19 10 22 8 2 -3 -2 -9 -10 -14z m146 -7 c-6 -6 -36 9 -36 18 0 5 9
4 20 -3 10 -7 18 -14 16 -15z m262 14 c-15 -10 -15 -12 0 -24 9 -7 13 -12 7
-12 -5 -1 -21 8 -35 19 -14 11 -18 18 -9 14 10 -3 20 -1 24 5 3 6 12 11 18 10
7 0 5 -5 -5 -12z m138 -14 c-6 -6 -36 9 -36 18 0 5 9 4 20 -3 10 -7 18 -14 16
-15z m144 23 c0 -2 -8 -10 -17 -17 -16 -13 -17 -12 -4 4 13 16 21 21 21 13z
m130 0 c0 -3 -4 -8 -10 -11 -5 -3 -10 -1 -10 4 0 6 5 11 10 11 6 0 10 -2 10
-4z m127 -25 c-7 -2 -19 -9 -27 -15 -13 -9 -13 -9 -3 5 10 12 10 18 1 27 -9 9
-4 8 15 0 14 -7 21 -15 14 -17z m-1207 -1 c-24 -19 -40 -25 -40 -15 0 5 51 34
60 34 3 0 -6 -8 -20 -19z m1045 2 c-3 -3 -11 0 -18 7 -9 10 -8 11 6 5 10 -3
15 -9 12 -12z m-1465 -12 c0 -5 -5 -10 -11 -10 -5 0 -7 5 -4 10 3 6 8 10 11
10 2 0 4 -4 4 -10z m800 0 c0 -5 -5 -10 -11 -10 -5 0 -7 5 -4 10 3 6 8 10 11
10 2 0 4 -4 4 -10z m695 0 c3 -5 1 -10 -4 -10 -6 0 -11 5 -11 10 0 6 2 10 4
10 3 0 8 -4 11 -10z m-1690 -20 c-3 -5 -11 -10 -16 -10 -6 0 -7 5 -4 10 3 6
11 10 16 10 6 0 7 -4 4 -10z m280 0 c3 -5 1 -10 -4 -10 -6 0 -11 5 -11 10 0 6
2 10 4 10 3 0 8 -4 11 -10z m120 0 c-3 -5 -11 -10 -16 -10 -6 0 -7 5 -4 10 3
6 11 10 16 10 6 0 7 -4 4 -10z m705 -16 c0 -2 -9 0 -20 6 -11 6 -20 13 -20 16
0 2 9 0 20 -6 11 -6 20 -13 20 -16z m500 16 c0 -5 -5 -10 -11 -10 -5 0 -7 5
-4 10 3 6 8 10 11 10 2 0 4 -4 4 -10z m-1065 -18 c-3 -3 -11 0 -18 7 -9 10 -8
11 6 5 10 -3 15 -9 12 -12z m810 8 c-3 -5 -12 -10 -18 -10 -7 0 -6 4 3 10 19
12 23 12 15 0z m-1005 -20 c0 -5 -7 -10 -15 -10 -8 0 -15 5 -15 10 0 6 7 10
15 10 8 0 15 -4 15 -10z m405 0 c3 -5 -3 -10 -15 -10 -12 0 -18 5 -15 10 3 6
10 10 15 10 5 0 12 -4 15 -10z m405 0 c0 -5 -9 -10 -20 -10 -11 0 -20 5 -20
10 0 6 9 10 20 10 11 0 20 -4 20 -10z m400 0 c0 -5 -7 -10 -15 -10 -8 0 -15 5
-15 10 0 6 7 10 15 10 8 0 15 -4 15 -10z m-945 -29 c-6 -5 -25 10 -25 20 0 5
6 4 14 -3 8 -7 12 -15 11 -17z m1190 19 c3 -5 1 -10 -4 -10 -6 0 -11 5 -11 10
0 6 2 10 4 10 3 0 8 -4 11 -10z m-1720 -10 c-3 -5 -11 -10 -16 -10 -6 0 -7 5
-4 10 3 6 11 10 16 10 6 0 7 -4 4 -10z m135 -5 c0 -2 -6 -5 -13 -8 -8 -3 -14
1 -14 8 0 7 6 11 14 8 7 -3 13 -6 13 -8z m1390 -1 c0 -8 -5 -12 -10 -9 -6 4
-8 11 -5 16 9 14 15 11 15 -7z m-1604 -5 c3 -6 14 -9 24 -6 13 3 17 0 13 -9
-3 -8 -9 -11 -14 -8 -6 3 -18 0 -27 -7 -14 -11 -15 -11 -5 1 10 11 9 16 -5 26
-9 8 -12 14 -5 14 6 0 15 -5 19 -11z m408 -2 l26 -14 -27 -12 c-23 -11 -25
-10 -14 3 10 12 9 16 -6 25 -26 15 -10 13 21 -2z m391 3 c3 -6 -1 -7 -9 -4
-18 7 -21 14 -7 14 6 0 13 -4 16 -10z m295 6 c0 -2 -7 -7 -16 -10 -8 -3 -12
-2 -9 4 6 10 25 14 25 6z m400 0 c0 -2 -7 -7 -16 -10 -8 -3 -12 -2 -9 4 6 10
25 14 25 6z m388 -10 c-14 -10 -15 -15 -5 -26 9 -10 7 -9 -10 1 -20 12 -20 14
-5 26 9 7 22 12 27 12 6 0 2 -5 -7 -13z m-1628 -10 c0 -2 -7 -7 -16 -10 -8 -3
-12 -2 -9 4 6 10 25 14 25 6z m416 -11 c10 -8 14 -15 7 -15 -6 0 -15 5 -18 11
-4 6 -14 8 -22 5 -8 -3 -11 -1 -8 4 8 14 18 13 41 -5z m175 -2 c13 -17 13 -17
-6 -3 -11 8 -22 16 -24 17 -2 2 0 3 6 3 6 0 17 -8 24 -17z m373 2 c-10 -8 -23
-14 -29 -14 -5 0 -1 6 9 14 11 8 24 15 30 15 5 0 1 -7 -10 -15z m427 -2 c13
-17 13 -17 -6 -3 -11 8 -22 16 -24 17 -2 2 0 3 6 3 6 0 17 -8 24 -17z m-1374
-15 c-3 -8 -6 -5 -6 6 -1 11 2 17 5 13 3 -3 4 -12 1 -19z m533 12 c0 -5 -5
-10 -11 -10 -5 0 -7 5 -4 10 3 6 8 10 11 10 2 0 4 -4 4 -10z m80 -11 c0 -11
-4 -18 -10 -14 -5 3 -7 12 -3 20 7 21 13 19 13 -6z m195 11 c3 -5 1 -10 -4
-10 -6 0 -11 5 -11 10 0 6 2 10 4 10 3 0 8 -4 11 -10z m400 0 c3 -5 1 -10 -4
-10 -6 0 -11 5 -11 10 0 6 2 10 4 10 3 0 8 -4 11 -10z m125 0 c0 -5 -5 -10
-11 -10 -5 0 -7 5 -4 10 3 6 8 10 11 10 2 0 4 -4 4 -10z m-605 -21 c-10 -15
-25 -10 -19 6 4 8 10 12 15 9 5 -3 7 -10 4 -15z m-800 1 c-3 -5 -11 -10 -16
-10 -6 0 -7 5 -4 10 3 6 11 10 16 10 6 0 7 -4 4 -10z m285 0 c0 -5 -2 -10 -4
-10 -3 0 -8 5 -11 10 -3 6 -1 10 4 10 6 0 11 -4 11 -10z m114 -5 c-4 -8 -10
-12 -15 -9 -11 6 -2 24 11 24 5 0 7 -7 4 -15z m544 -3 c10 3 19 0 19 -6 0 -6
-13 -11 -28 -11 -15 0 -25 2 -23 4 2 2 -2 11 -9 20 -11 14 -10 14 5 2 10 -7
26 -11 36 -9z m147 8 c3 -5 2 -10 -4 -10 -5 0 -13 5 -16 10 -3 6 -2 10 4 10 5
0 13 -4 16 -10z m115 6 c0 -3 -4 -8 -10 -11 -5 -3 -10 -1 -10 4 0 6 5 11 10
11 6 0 10 -2 10 -4z m285 -6 c3 -5 2 -10 -4 -10 -5 0 -13 5 -16 10 -3 6 -2 10
4 10 5 0 13 -4 16 -10z m-931 -19 c2 -3 -8 -6 -23 -6 -15 0 -28 5 -28 11 0 11
44 7 51 -5z m803 5 c0 -8 -8 -11 -21 -8 -19 5 -19 6 0 13 10 4 19 8 20 8 0 1
1 -5 1 -13z m-1217 0 c0 -2 -9 -6 -20 -9 -11 -3 -18 -1 -14 4 5 9 34 13 34 5z
m595 -24 c-3 -3 -11 0 -18 7 -9 10 -8 11 6 5 10 -3 15 -9 12 -12z m-790 -2 c3
-6 -1 -7 -9 -4 -18 7 -21 14 -7 14 6 0 13 -4 16 -10z m125 -10 c0 -5 -5 -10
-11 -10 -5 0 -7 5 -4 10 3 6 8 10 11 10 2 0 4 -4 4 -10z m130 0 c0 -5 -2 -10
-4 -10 -3 0 -8 5 -11 10 -3 6 -1 10 4 10 6 0 11 -4 11 -10z m275 0 c-3 -5 -11
-10 -16 -10 -6 0 -7 5 -4 10 3 6 11 10 16 10 6 0 7 -4 4 -10z m130 0 c3 -5 2
-10 -4 -10 -5 0 -13 5 -16 10 -3 6 -2 10 4 10 5 0 13 -4 16 -10z m270 0 c-3
-5 -11 -10 -16 -10 -6 0 -7 5 -4 10 3 6 11 10 16 10 6 0 7 -4 4 -10z m130 0
c3 -5 2 -10 -4 -10 -5 0 -13 5 -16 10 -3 6 -2 10 4 10 5 0 13 -4 16 -10z m270
0 c-3 -5 -11 -10 -16 -10 -6 0 -7 5 -4 10 3 6 11 10 16 10 6 0 7 -4 4 -10z
m400 0 c-3 -5 -12 -10 -18 -10 -7 0 -6 4 3 10 19 12 23 12 15 0z m-605 -25
c-14 -17 -30 -20 -30 -5 0 6 7 10 15 10 8 0 15 5 15 12 0 6 3 8 6 5 4 -4 1
-13 -6 -22z m525 15 c3 -5 1 -10 -4 -10 -6 0 -11 5 -11 10 0 6 2 10 4 10 3 0
8 -4 11 -10z m-1719 -20 c0 -11 -4 -20 -8 -20 -4 0 -8 5 -8 11 0 5 -4 8 -9 4
-5 -3 -12 -1 -15 4 -5 8 4 13 34 20 3 0 6 -8 6 -19z m390 5 c-8 -8 -18 -15
-22 -15 -3 0 -1 7 6 15 7 8 17 15 22 15 5 0 3 -7 -6 -15z m-246 -4 c0 -5 -10
-11 -22 -14 -22 -6 -22 -6 -4 8 23 17 26 18 26 6z m400 -1 c0 -5 -4 -10 -10
-10 -5 0 -10 5 -10 10 0 6 5 10 10 10 6 0 10 -4 10 -10z m249 -4 c10 -12 8
-13 -8 -9 -12 3 -21 9 -21 14 0 14 16 11 29 -5z m151 5 c0 -5 -9 -11 -21 -14
-16 -4 -18 -3 -8 9 13 16 29 19 29 5z m410 -1 c0 -5 -7 -10 -15 -10 -8 0 -15
5 -15 10 0 6 7 10 15 10 8 0 15 -4 15 -10z m230 0 c0 -5 -4 -10 -10 -10 -5 0
-10 5 -10 10 0 6 5 10 10 10 6 0 10 -4 10 -10z m173 -4 c4 -10 1 -13 -9 -9
-15 6 -19 23 -5 23 5 0 11 -7 14 -14z m-1488 -6 c3 -6 -1 -7 -9 -4 -18 7 -21
14 -7 14 6 0 13 -4 16 -10z m411 -6 c18 -14 18 -14 -6 -3 -31 14 -36 19 -24
19 6 0 19 -7 30 -16z m374 6 c-8 -5 -19 -10 -25 -10 -5 0 -3 5 5 10 8 5 20 10
25 10 6 0 3 -5 -5 -10z m409 6 c-2 -2 -15 -9 -29 -15 -24 -11 -24 -11 -6 3 16
13 49 24 35 12z m-1539 -20 c0 -9 -32 -36 -42 -36 -6 0 0 9 13 20 25 21 29 23
29 16z m283 -13 c-7 -18 -30 -17 -30 1 0 8 8 14 18 13 9 -1 15 -7 12 -14z
m127 -8 c14 -18 13 -19 -1 -8 -9 7 -19 10 -22 6 -4 -3 -7 -2 -7 4 0 9 12 26
14 21 1 -2 8 -12 16 -23z m268 7 c2 -7 0 -12 -5 -10 -4 1 -19 -3 -33 -10 -24
-13 -24 -12 -5 3 11 9 19 21 17 27 -4 14 21 4 26 -10z m122 3 c-7 -9 -15 -13
-17 -11 -7 7 7 26 19 26 6 0 6 -6 -2 -15z m278 -6 c3 -8 1 -11 -3 -7 -5 4 -15
2 -24 -5 -14 -10 -14 -10 -4 4 7 9 9 19 5 24 -4 4 -1 6 7 3 8 -2 17 -11 19
-19z m125 8 c3 -8 -1 -14 -9 -14 -15 0 -18 9 -7 20 9 9 10 9 16 -6z m277 -8
c0 -6 -4 -7 -10 -4 -5 3 -10 11 -10 16 0 6 5 7 10 4 6 -3 10 -11 10 -16z m124
6 c-6 -16 -24 -21 -24 -7 0 11 11 22 21 22 5 0 6 -7 3 -15z m276 0 c7 -8 8
-15 2 -15 -5 0 -15 7 -22 15 -7 8 -8 15 -2 15 5 0 15 -7 22 -15z m-1740 -9 c0
-2 -7 -7 -16 -10 -8 -3 -12 -2 -9 4 6 10 25 14 25 6z m400 0 c0 -2 -7 -7 -16
-10 -8 -3 -12 -2 -9 4 6 10 25 14 25 6z m400 0 c0 -2 -7 -7 -16 -10 -8 -3 -12
-2 -9 4 6 10 25 14 25 6z m404 -4 c2 -4 -4 -8 -14 -8 -10 0 -16 4 -14 8 3 4 9
8 14 8 5 0 11 -4 14 -8z m-597 -26 c0 -8 -6 -12 -15 -9 -11 5 -11 7 0 14 7 5
13 9 14 9 0 0 1 -6 1 -14z m400 -3 c0 -8 -6 -9 -19 -2 -10 5 -18 11 -18 12 0
2 8 3 18 3 10 0 19 -6 19 -13z m-1063 -9 c3 -8 2 -12 -4 -9 -6 4 -11 -13 -12
-42 l-1 -48 -4 44 c-6 59 7 92 21 55z m119 -1 c-4 -10 -9 -11 -19 -2 -19 15
-18 18 5 16 11 -1 17 -6 14 -14z m142 7 c3 -6 -1 -7 -9 -4 -18 7 -21 14 -7 14
6 0 13 -4 16 -10z m138 -3 c3 -8 -3 -14 -15 -14 -16 -2 -17 1 -8 13 15 17 17
17 23 1z m120 -2 c-5 -16 -30 -15 -30 1 0 7 8 12 18 11 9 -1 15 -6 12 -12z
m281 0 c2 -6 -2 -12 -10 -12 -7 0 -15 6 -18 12 -2 6 2 12 10 12 7 0 15 -6 18
-12z m120 0 c-3 -6 -11 -12 -18 -12 -8 0 -12 6 -10 12 3 6 11 12 18 12 8 0 12
-6 10 -12z m279 0 c3 -6 -3 -11 -12 -12 -10 -1 -18 4 -18 11 0 16 25 17 30 1z
m124 -1 c0 -7 -8 -12 -18 -11 -9 1 -15 6 -12 12 5 16 30 15 30 -1z m133 12 c0
-2 -7 -7 -16 -10 -8 -3 -12 -2 -9 4 6 10 25 14 25 6z m140 -7 c0 -15 -18 -19
-23 -6 -3 8 1 14 9 14 8 0 14 -4 14 -8z m127 -5 c0 -7 -8 -12 -18 -11 -9 1
-15 6 -12 12 5 16 30 15 30 -1z m-1817 -24 c0 -5 -2 -10 -4 -10 -3 0 -8 5 -11
10 -3 6 -1 10 4 10 6 0 11 -4 11 -10z m280 -5 c-9 -10 -9 -15 -1 -15 6 0 11
-5 11 -11 0 -8 -5 -8 -15 1 -8 7 -21 10 -29 7 -10 -4 -13 -1 -10 8 3 8 12 11
19 9 7 -3 16 -1 20 5 3 6 9 11 12 11 3 0 0 -7 -7 -15z m146 -12 c-6 -6 -36 9
-36 18 0 5 9 4 20 -3 10 -7 18 -14 16 -15z m405 13 c8 5 9 3 5 -5 -5 -7 -14
-10 -21 -7 -8 3 -16 -3 -18 -12 -3 -9 -5 -4 -6 12 -1 24 1 26 14 16 8 -6 20
-8 26 -4z m263 -35 c-2 -2 -10 2 -19 9 -8 7 -21 10 -29 7 -10 -4 -13 -1 -9 8
4 11 10 12 24 4 15 -8 19 -6 20 8 1 12 3 10 8 -7 4 -14 6 -27 5 -29z m130 20
c-2 -3 -12 3 -22 13 -16 17 -16 18 5 5 12 -7 20 -15 17 -18z m408 14 c7 4 2
-3 -12 -14 -14 -11 -29 -21 -35 -20 -5 0 -2 5 7 13 14 10 15 15 5 26 -10 12
-9 12 5 1 9 -7 23 -10 30 -6z m254 0 c-11 -8 -24 -15 -30 -15 -5 0 -1 7 10 15
10 8 24 14 29 14 6 0 1 -6 -9 -14z m-1736 1 c0 -3 -4 -8 -10 -11 -5 -3 -10 -1
-10 4 0 6 5 11 10 11 6 0 10 -2 10 -4z m527 -13 c18 -16 16 -28 -2 -13 -8 7
-21 10 -29 7 -10 -4 -13 -1 -10 8 7 16 23 16 41 -2z m788 -1 c-3 -3 -11 0 -18
7 -9 10 -8 11 6 5 10 -3 15 -9 12 -12z m285 8 c0 -5 -2 -10 -4 -10 -3 0 -8 5
-11 10 -3 6 -1 10 4 10 6 0 11 -4 11 -10z m-550 -20 c0 -5 -5 -10 -11 -10 -5
0 -7 5 -4 10 3 6 8 10 11 10 2 0 4 -4 4 -10z m295 0 c3 -5 1 -10 -4 -10 -6 0
-11 5 -11 10 0 6 2 10 4 10 3 0 8 -4 11 -10z m400 0 c3 -5 1 -10 -4 -10 -6 0
-11 5 -11 10 0 6 2 10 4 10 3 0 8 -4 11 -10z m-1285 -9 c0 -5 -7 -12 -16 -15
-14 -5 -15 -4 -4 9 14 17 20 19 20 6z m-260 -21 c0 -5 -4 -10 -10 -10 -5 0
-10 5 -10 10 0 6 5 10 10 10 6 0 10 -4 10 -10z m400 0 c0 -5 -2 -10 -4 -10 -3
0 -8 5 -11 10 -3 6 -1 10 4 10 6 0 11 -4 11 -10z m215 -10 c-3 -5 -16 -10 -28
-9 -20 1 -20 2 3 9 14 4 26 8 28 9 2 1 0 -3 -3 -9z m389 -11 c-3 -5 -14 -5
-25 1 -26 14 -24 18 6 12 14 -2 22 -8 19 -13z m-1200 2 c4 -5 -1 -8 -9 -7 -21
3 -31 16 -12 16 9 0 18 -4 21 -9z m393 3 c-3 -3 -12 -4 -19 -1 -8 3 -5 6 6 6
11 1 17 -2 13 -5z m1217 -2 c2 -4 -6 -8 -19 -8 -13 0 -21 4 -19 8 3 4 11 8 19
8 8 0 16 -4 19 -8z m-1764 -12 c0 -5 -2 -10 -4 -10 -3 0 -8 5 -11 10 -3 6 -1
10 4 10 6 0 11 -4 11 -10z m695 0 c-3 -5 -11 -10 -16 -10 -6 0 -7 5 -4 10 3 6
11 10 16 10 6 0 7 -4 4 -10z m116 -7 c13 -15 12 -15 -8 -4 -24 12 -29 21 -14
21 5 0 15 -7 22 -17z m279 7 c0 -5 -5 -10 -11 -10 -5 0 -7 5 -4 10 3 6 8 10
11 10 2 0 4 -4 4 -10z m110 0 c0 -5 -2 -10 -4 -10 -3 0 -8 5 -11 10 -3 6 -1
10 4 10 6 0 11 -4 11 -10z m300 6 c0 -3 -4 -8 -10 -11 -5 -3 -10 -1 -10 4 0 6
5 11 10 11 6 0 10 -2 10 -4z m105 -6 c3 -5 2 -10 -4 -10 -5 0 -13 5 -16 10 -3
6 -2 10 4 10 5 0 13 -4 16 -10z m295 5 c0 -2 -10 -10 -22 -16 -21 -11 -22 -11
-9 4 13 16 31 23 31 12z m-1823 -29 c-16 -13 -16 -14 -1 -20 9 -4 14 -9 11
-12 -3 -3 -14 0 -25 7 -19 12 -19 14 -4 26 9 7 22 12 27 12 6 0 2 -6 -8 -13z
m135 -23 c-9 -7 -21 -12 -27 -12 -5 0 -2 4 8 10 15 9 16 13 5 26 -12 15 -11
15 9 3 20 -13 20 -15 5 -27z m278 33 c0 -3 -4 -8 -10 -11 -5 -3 -10 -1 -10 4
0 6 5 11 10 11 6 0 10 -2 10 -4z m400 0 c0 -3 -4 -8 -10 -11 -5 -3 -10 -1 -10
4 0 6 5 11 10 11 6 0 10 -2 10 -4z m120 -6 c0 -5 -2 -10 -4 -10 -3 0 -8 5 -11
10 -3 6 -1 10 4 10 6 0 11 -4 11 -10z m41 -3 c-6 -8 -8 -17 -4 -21 4 -4 0 -4
-10 0 -17 6 -17 7 0 20 23 17 28 18 14 1z m225 -2 c-11 -8 -25 -15 -30 -15 -6
1 0 7 14 15 32 19 40 18 16 0z m134 5 c0 -5 -2 -10 -4 -10 -3 0 -8 5 -11 10
-3 6 -1 10 4 10 6 0 11 -4 11 -10z m270 -5 c-9 -10 -9 -15 -1 -15 6 0 11 -5
11 -11 0 -8 -5 -8 -15 1 -8 7 -23 9 -32 6 -22 -9 -10 3 19 20 31 16 32 16 18
-1z m150 -6 c14 -11 19 -18 12 -14 -7 4 -20 1 -28 -6 -8 -6 -17 -9 -21 -6 -3
4 2 9 11 13 15 6 15 7 -1 20 -10 7 -13 13 -8 13 6 1 21 -9 35 -20z m-1375 -7
c-3 -3 -11 0 -18 7 -9 10 -8 11 6 5 10 -3 15 -9 12 -12z m192 4 c0 -8 -6 -12
-15 -9 -11 5 -11 7 0 14 7 5 13 9 14 9 0 0 1 -6 1 -14z m213 -1 c0 -2 -6 -5
-13 -8 -8 -3 -14 1 -14 8 0 7 6 11 14 8 7 -3 13 -6 13 -8z m587 1 c0 -8 -6
-12 -15 -9 -11 5 -11 7 0 14 7 5 13 9 14 9 0 0 1 -6 1 -14z m-962 -15 c3 -5 1
-12 -5 -16 -5 -3 -10 1 -10 9 0 18 6 21 15 7z m400 -1 c3 -5 1 -10 -4 -10 -6
0 -11 5 -11 10 0 6 2 10 4 10 3 0 8 -4 11 -10z m125 0 c0 -5 -5 -10 -11 -10
-5 0 -7 5 -4 10 3 6 8 10 11 10 2 0 4 -4 4 -10z m400 0 c0 -5 -5 -10 -11 -10
-5 0 -7 5 -4 10 3 6 8 10 11 10 2 0 4 -4 4 -10z m-1115 -20 c3 -5 2 -10 -4
-10 -5 0 -13 5 -16 10 -3 6 -2 10 4 10 5 0 13 -4 16 -10z m102 -22 c-3 -7 -5
-2 -5 12 0 14 2 19 5 13 2 -7 2 -19 0 -25z m298 22 c3 -5 2 -10 -4 -10 -5 0
-13 5 -16 10 -3 6 -2 10 4 10 5 0 13 -4 16 -10z m105 0 c0 -5 -5 -10 -11 -10
-5 0 -7 5 -4 10 3 6 8 10 11 10 2 0 4 -4 4 -10z m295 0 c3 -5 1 -10 -4 -10 -6
0 -11 5 -11 10 0 6 2 10 4 10 3 0 8 -4 11 -10z m105 0 c0 -5 -5 -10 -11 -10
-5 0 -7 5 -4 10 3 6 8 10 11 10 2 0 4 -4 4 -10z m295 0 c3 -5 1 -10 -4 -10 -6
0 -11 5 -11 10 0 6 2 10 4 10 3 0 8 -4 11 -10z m110 0 c-3 -5 -11 -10 -16 -10
-6 0 -7 5 -4 10 3 6 11 10 16 10 6 0 7 -4 4 -10z m-1460 -10 c3 -5 -1 -10 -10
-10 -9 0 -13 5 -10 10 3 6 8 10 10 10 2 0 7 -4 10 -10z m405 0 c0 -5 -7 -10
-16 -10 -8 0 -12 5 -9 10 3 6 10 10 16 10 5 0 9 -4 9 -10z m405 0 c3 -5 -3
-10 -15 -10 -12 0 -18 5 -15 10 3 6 10 10 15 10 5 0 12 -4 15 -10z m399 1 c3
-5 -5 -11 -18 -13 -17 -4 -23 -1 -19 9 6 15 29 18 37 4z m401 -1 c3 -5 -1 -10
-10 -10 -9 0 -13 5 -10 10 3 6 8 10 10 10 2 0 7 -4 10 -10z m-1678 -32 c-3 -8
-6 -5 -6 6 -1 11 2 17 5 13 3 -3 4 -12 1 -19z m273 12 c0 -5 -4 -10 -10 -10
-5 0 -10 5 -10 10 0 6 5 10 10 10 6 0 10 -4 10 -10z m395 0 c3 -5 1 -10 -4
-10 -6 0 -11 5 -11 10 0 6 2 10 4 10 3 0 8 -4 11 -10z m405 0 c0 -5 -4 -10
-10 -10 -5 0 -10 5 -10 10 0 6 5 10 10 10 6 0 10 -4 10 -10z m420 -14 c0 -2
-9 -2 -20 1 -11 3 -20 9 -20 15 0 5 9 4 20 -2 11 -6 20 -12 20 -14z m-965 -4
c-3 -3 -11 0 -18 7 -9 10 -8 11 6 5 10 -3 15 -9 12 -12z m283 4 c-7 -8 -15
-12 -17 -11 -5 6 10 25 20 25 5 0 4 -6 -3 -14z m402 4 c0 -5 -5 -10 -11 -10
-5 0 -7 5 -4 10 3 6 8 10 11 10 2 0 4 -4 4 -10z m405 0 c-3 -5 -11 -10 -16
-10 -6 0 -7 5 -4 10 3 6 11 10 16 10 6 0 7 -4 4 -10z m-1407 -24 c-14 -10 -15
-15 -5 -26 9 -10 7 -9 -10 1 -20 12 -20 14 -5 26 9 7 22 12 27 12 6 0 2 -5 -7
-13z m112 4 c0 -5 -2 -10 -4 -10 -3 0 -8 5 -11 10 -3 6 -1 10 4 10 6 0 11 -4
11 -10z m282 -7 c-10 -4 -10 -8 0 -21 12 -14 11 -14 -9 -2 -20 13 -20 15 -5
26 9 7 19 10 22 7 3 -3 -1 -8 -8 -10z m138 -4 l25 -20 -32 16 c-18 8 -33 18
-33 20 0 10 16 4 40 -16z m280 17 c0 -3 -4 -8 -10 -11 -5 -3 -10 -1 -10 4 0 6
5 11 10 11 6 0 10 -2 10 -4z m100 -6 c0 -5 -2 -10 -4 -10 -3 0 -8 5 -11 10 -3
6 -1 10 4 10 6 0 11 -4 11 -10z m428 -14 c-2 -1 -12 -8 -23 -16 -16 -11 -17
-11 -8 0 10 11 9 16 -5 27 -15 11 -13 12 11 2 15 -7 26 -13 25 -13z m272 20
c0 -3 -4 -8 -10 -11 -5 -3 -10 -1 -10 4 0 6 5 11 10 11 6 0 10 -2 10 -4z
m-1756 -24 c3 -5 -1 -9 -9 -9 -8 0 -12 4 -9 9 3 4 7 8 9 8 2 0 6 -4 9 -8z
m291 -2 c3 -5 0 -7 -8 -4 -8 3 -18 1 -22 -5 -3 -6 -12 -11 -18 -11 -7 0 -3 7
7 15 23 18 33 19 41 5z m635 6 c0 -2 -7 -7 -16 -10 -8 -3 -12 -2 -9 4 6 10 25
14 25 6z m171 -13 c13 -16 12 -17 -3 -4 -15 11 -21 11 -35 0 -16 -13 -17 -12
-4 4 7 9 17 17 21 17 4 0 14 -8 21 -17z m233 11 c9 -3 16 -11 16 -16 0 -6 -6
-5 -15 2 -8 6 -20 8 -26 4 -8 -4 -9 -3 -5 4 8 14 9 14 30 6z m286 -9 c11 -13
10 -14 -4 -9 -9 3 -16 10 -16 15 0 13 6 11 20 -6z m140 -10 c11 -13 10 -14 -4
-9 -9 3 -16 10 -16 15 0 13 6 11 20 -6z m-1298 -9 c3 3 8 -1 11 -9 3 -8 -3
-13 -15 -14 -11 -1 -18 1 -14 4 3 3 -2 12 -12 20 -15 13 -15 13 4 4 12 -6 24
-8 26 -5z m-509 -13 c-4 -10 -9 -11 -19 -2 -19 15 -18 18 5 16 11 -1 17 -6 14
-14z m120 4 c3 -8 -3 -14 -15 -14 -16 -2 -17 1 -8 13 15 17 17 17 23 1z m281
-2 c-3 -6 -11 -12 -18 -12 -8 0 -12 6 -10 12 3 6 11 12 18 12 8 0 12 -6 10
-12z m400 0 c-3 -6 -11 -12 -18 -12 -8 0 -12 6 -10 12 3 6 11 12 18 12 8 0 12
-6 10 -12z m120 0 c2 -6 -2 -12 -10 -12 -7 0 -15 6 -18 12 -2 6 2 12 10 12 7
0 15 -6 18 -12z m283 -1 c0 -7 -8 -12 -18 -11 -9 1 -15 6 -12 12 5 16 30 15
30 -1z m117 1 c2 -6 -2 -12 -10 -12 -7 0 -15 6 -18 12 -2 6 2 12 10 12 7 0 15
-6 18 -12z m282 -12 c-7 -7 -26 7 -26 19 0 6 6 6 15 -2 9 -7 13 -15 11 -17z
m121 13 c0 -16 -25 -17 -30 -1 -3 6 3 11 12 12 10 1 18 -4 18 -11z m-1057 -22
c0 -2 -9 0 -20 6 -11 6 -20 13 -20 16 0 2 9 0 20 -6 11 -6 20 -13 20 -16z
m397 9 c0 -8 -6 -9 -19 -2 -10 5 -18 11 -18 12 0 2 8 3 18 3 10 0 19 -6 19
-13z m388 -1 c-3 -3 -11 0 -18 7 -9 10 -8 11 6 5 10 -3 15 -9 12 -12z m-1190
-2 c3 -6 -1 -7 -9 -4 -18 7 -21 14 -7 14 6 0 13 -4 16 -10z m1274 -23 c-23
-22 -39 -25 -39 -8 0 6 36 24 59 30 2 1 -7 -9 -20 -22z m226 13 c3 -6 -1 -7
-9 -4 -18 7 -21 14 -7 14 6 0 13 -4 16 -10z m-1037 -19 c-12 -19 -28 -19 -28
0 0 6 4 8 9 4 5 -3 12 -1 16 5 3 5 8 10 11 10 2 0 -1 -9 -8 -19z m127 1 c-3
-3 -11 0 -18 7 -9 10 -8 11 6 5 10 -3 15 -9 12 -12z m140 6 c4 4 6 1 3 -7 -2
-8 -11 -17 -19 -19 -8 -3 -11 -1 -7 3 4 5 2 15 -5 24 -10 14 -10 14 4 4 9 -7
19 -9 24 -5z m400 0 c4 4 6 1 3 -7 -2 -8 -11 -17 -19 -19 -8 -3 -11 -1 -7 3 4
5 2 15 -5 24 -10 14 -10 14 4 4 9 -7 19 -9 24 -5z m270 2 c-3 -5 -12 -10 -18
-10 -7 0 -6 4 3 10 19 12 23 12 15 0z m-1751 -9 c3 -5 -3 -11 -13 -14 -14 -3
-18 -1 -14 9 6 16 19 18 27 5z m286 0 c0 -17 -18 -21 -24 -6 -3 9 0 15 9 15 8
0 15 -4 15 -9z m120 -6 c11 -13 10 -14 -4 -9 -9 3 -16 10 -16 15 0 13 6 11 20
-6z m278 3 c-6 -18 -25 -21 -25 -3 0 8 7 15 15 15 7 0 12 -5 10 -12z m526 -3
c-4 -8 -10 -12 -15 -9 -14 8 -10 24 6 24 9 0 12 -6 9 -15z m671 -4 c-3 -6 -11
-11 -17 -11 -6 0 -6 6 2 15 14 17 26 13 15 -4z m-1800 -17 c-17 -13 -18 -16
-5 -24 9 -6 10 -10 3 -10 -6 0 -15 5 -18 10 -4 6 -11 8 -16 5 -5 -4 -9 -4 -9
-1 0 5 51 35 60 35 3 0 -4 -6 -15 -15z m1602 -21 c-3 -10 -5 -4 -5 12 0 17 2
24 5 18 2 -7 2 -21 0 -30z m-1205 20 c-9 -4 -10 -8 -2 -18 9 -11 7 -12 -9 -8
-32 8 -21 31 14 31 6 0 4 -2 -3 -5z m273 -3 c-3 -5 -12 -10 -18 -10 -7 0 -6 4
3 10 19 12 23 12 15 0z m790 -8 c-3 -3 -11 0 -18 7 -9 10 -8 11 6 5 10 -3 15
-9 12 -12z m-1315 -2 c0 -5 -2 -10 -4 -10 -3 0 -8 5 -11 10 -3 6 -1 10 4 10 6
0 11 -4 11 -10z m400 0 c0 -5 -4 -10 -10 -10 -5 0 -10 5 -10 10 0 6 5 10 10
10 6 0 10 -4 10 -10z m240 0 c0 -5 -4 -10 -10 -10 -5 0 -10 5 -10 10 0 6 5 10
10 10 6 0 10 -4 10 -10z m160 0 c0 -5 -5 -10 -11 -10 -5 0 -7 5 -4 10 3 6 8
10 11 10 2 0 4 -4 4 -10z m240 0 c0 -5 -4 -10 -10 -10 -5 0 -10 5 -10 10 0 6
5 10 10 10 6 0 10 -4 10 -10z m160 6 c0 -3 -4 -8 -10 -11 -5 -3 -10 -1 -10 4
0 6 5 11 10 11 6 0 10 -2 10 -4z m240 -6 c0 -5 -4 -10 -10 -10 -5 0 -10 5 -10
10 0 6 5 10 10 10 6 0 10 -4 10 -10z m169 -4 c10 -12 8 -13 -8 -9 -12 3 -18 9
-15 14 7 12 10 11 23 -5z m-1559 -26 c0 -5 -2 -10 -4 -10 -3 0 -8 5 -11 10 -3
6 -1 10 4 10 6 0 11 -4 11 -10z m140 6 c0 -2 -7 -7 -16 -10 -8 -3 -12 -2 -9 4
6 10 25 14 25 6z m265 -6 c3 -5 2 -10 -4 -10 -5 0 -13 5 -16 10 -3 6 -2 10 4
10 5 0 13 -4 16 -10z m130 0 c-3 -5 -11 -10 -16 -10 -6 0 -7 5 -4 10 3 6 11
10 16 10 6 0 7 -4 4 -10z m276 -7 c13 -15 12 -15 -8 -4 -24 12 -29 21 -14 21
5 0 15 -7 22 -17z m119 7 c0 -5 -5 -10 -11 -10 -5 0 -7 5 -4 10 3 6 8 10 11
10 2 0 4 -4 4 -10z m275 0 c3 -5 1 -10 -4 -10 -6 0 -11 5 -11 10 0 6 2 10 4
10 3 0 8 -4 11 -10z m125 1 c0 -5 -7 -12 -16 -15 -14 -5 -15 -4 -4 9 14 17 20
19 20 6z m-1453 -15 c0 -8 -6 -12 -15 -9 -11 5 -11 7 0 14 7 5 13 9 14 9 0 0
1 -6 1 -14z m840 -8 c-3 -8 -6 -5 -6 6 -1 11 2 17 5 13 3 -3 4 -12 1 -19z
m763 -4 c0 -2 -9 0 -20 6 -11 6 -20 13 -20 16 0 2 9 0 20 -6 11 -6 20 -13 20
-16z m-1210 12 c0 -2 -7 -7 -16 -10 -8 -3 -12 -2 -9 4 6 10 25 14 25 6z m404
-4 c2 -4 -4 -8 -14 -8 -10 0 -16 4 -14 8 7 10 21 10 28 0z m400 0 c2 -4 -4 -8
-14 -8 -10 0 -16 4 -14 8 3 4 9 8 14 8 5 0 11 -4 14 -8z"/>
</g>
</svg>
