<?xml version="1.0" standalone="no"?>
<!DOCTYPE svg PUBLIC "-//W3C//DTD SVG 20010904//EN"
 "http://www.w3.org/TR/2001/REC-SVG-20010904/DTD/svg10.dtd">
<svg version="1.0" xmlns="http://www.w3.org/2000/svg"
 width="200.000000pt" height="200.000000pt" viewBox="0 0 200.000000 200.000000"
 preserveAspectRatio="xMidYMid meet">
<metadata>
Created by potrace 1.16, written by Peter Selinger 2001-2019
</metadata>
<g transform="translate(0.000000,200.000000) scale(0.100000,-0.100000)"
fill="#000000" stroke="none">
<path d="M2 1975 c0 -16 2 -22 5 -12 2 9 2 23 0 30 -3 6 -5 -1 -5 -18z"/>
<path d="M23 1983 c-9 -23 4 -26 31 -7 15 9 29 15 31 12 3 -3 -15 -18 -40 -33
-32 -21 -41 -31 -32 -38 9 -7 9 -10 -1 -14 -17 -7 -17 -414 0 -431 8 -8 8 -12
1 -12 -16 0 -17 -201 -1 -221 12 -15 85 -59 160 -98 25 -13 32 -12 62 4 19 11
32 23 29 28 -3 6 -1 7 5 3 11 -6 82 32 109 59 7 8 12 50 12 119 l1 106 -31
-15 c-16 -9 -33 -23 -36 -30 -3 -8 -9 -12 -14 -9 -12 7 -119 -57 -113 -68 3
-4 -2 -5 -10 -2 -10 4 -16 1 -16 -7 0 -7 -3 -10 -6 -6 -4 3 -30 -9 -58 -27
-29 -19 -63 -37 -77 -40 -21 -6 -21 -5 4 9 23 13 26 19 16 31 -7 9 -8 14 -1
14 6 0 12 -5 14 -12 5 -14 98 36 98 53 0 6 5 7 10 4 6 -3 10 2 10 12 0 12 3
14 8 6 5 -8 33 4 94 39 48 28 85 54 83 59 -8 13 -158 94 -175 94 -8 1 -18 -3
-21 -8 -3 -4 -12 0 -20 9 -10 13 -10 16 -1 10 29 -18 40 13 40 117 0 56 -4
107 -8 112 -13 16 36 13 52 -2 13 -14 34 -17 41 -5 2 4 2 1 1 -5 -3 -11 88
-73 107 -73 9 0 8 120 -2 126 -5 3 -6 11 -2 17 19 32 -2 78 -28 61 -7 -4 -9
-3 -5 4 3 6 -16 23 -47 41 -52 29 -59 31 -161 29 -82 -1 -109 -4 -113 -15z
m97 -33 c0 -5 -2 -10 -4 -10 -3 0 -8 5 -11 10 -3 6 -1 10 4 10 6 0 11 -4 11
-10z m87 -50 c1 -16 -1 -17 -12 -7 -11 10 -8 19 10 27 1 0 1 -9 2 -20z m67
-51 c-2 -5 -14 -1 -24 9 -26 22 -25 24 5 10 13 -6 22 -15 19 -19z m-154 6 c0
-6 -8 -11 -18 -11 -10 0 -19 5 -19 11 0 6 9 11 19 11 10 0 18 -5 18 -11z m87
-17 c-3 -8 -6 -5 -6 6 -1 11 2 17 5 13 3 -3 4 -12 1 -19z m-92 -78 c-3 -5 -12
-10 -18 -10 -7 0 -6 4 3 10 19 12 23 12 15 0z m55 -112 c0 -4 -7 -8 -15 -8 -8
0 -15 4 -15 8 0 5 7 9 15 9 8 0 15 -4 15 -9z m-42 -120 c11 -14 10 -16 -7 -11
-12 3 -21 9 -21 12 0 8 12 23 14 19 1 -2 7 -11 14 -20z m-61 -32 c-14 -14 -27
-12 -27 5 0 7 32 18 39 13 2 -2 -3 -10 -12 -18z m140 -10 c0 -8 -6 -12 -15 -9
-11 5 -11 7 0 14 7 5 13 9 14 9 0 0 1 -6 1 -14z m-151 -52 c-5 -12 -1 -14 17
-10 12 3 16 3 9 0 -6 -3 -10 -9 -8 -13 3 -4 -4 -7 -14 -8 -12 -1 -17 4 -15 15
2 9 4 20 4 25 1 4 4 7 7 7 3 0 3 -7 0 -16z m114 -54 c0 -5 -2 -10 -4 -10 -3 0
-8 5 -11 10 -3 6 -1 10 4 10 6 0 11 -4 11 -10z m155 -90 c3 -5 1 -10 -5 -10
-6 0 -9 -4 -6 -8 2 -4 -4 -8 -15 -8 -18 0 -18 2 -5 12 9 6 13 14 9 17 -3 4 -1
7 5 7 6 0 14 -4 17 -10z m-105 -86 c0 -3 -5 -2 -11 2 -6 3 -15 0 -20 -7 -6
-10 -9 -8 -9 9 0 20 3 21 20 12 11 -6 20 -13 20 -16z"/>
<path d="M284 1988 c9 -5 24 -7 31 -4 8 3 14 0 12 -6 -3 -16 66 -55 71 -40 3
9 10 5 23 -9 10 -12 19 -18 19 -14 0 4 8 1 18 -7 27 -23 115 -72 135 -75 20
-3 117 47 117 60 0 5 4 6 9 2 5 -3 12 -1 16 5 3 5 12 10 18 10 16 -1 -34 -39
-50 -40 -7 0 -13 -5 -13 -10 0 -6 -3 -9 -7 -8 -17 4 -63 -26 -59 -38 3 -9 -1
-11 -11 -7 -12 5 -14 3 -8 -8 5 -7 -12 4 -38 25 -26 21 -47 35 -47 31 0 -3
-12 3 -26 14 -15 12 -32 21 -39 21 -7 0 -18 7 -25 15 -25 30 -30 13 -30 -91 0
-77 3 -103 12 -98 7 4 8 3 4 -5 -4 -7 5 -18 24 -29 18 -9 57 -32 87 -49 31
-18 61 -33 68 -33 18 0 14 -28 -6 -33 -11 -3 -16 0 -13 8 6 13 -37 45 -61 45
-8 0 -15 4 -15 8 0 5 -22 21 -50 36 l-50 27 0 -111 c0 -72 4 -109 10 -105 5 3
10 1 10 -4 0 -6 -4 -11 -8 -11 -16 0 -14 -201 2 -225 13 -20 13 -22 -8 -18
-21 4 -192 -87 -208 -111 -5 -7 -8 -7 -8 2 0 7 -8 16 -18 19 -9 4 -49 26 -88
50 -39 24 -74 43 -78 43 -11 0 -6 -76 7 -89 9 -11 9 -12 0 -7 -10 5 -12 -33
-12 -168 0 -128 3 -176 12 -179 9 -4 9 -6 0 -6 -8 -1 -13 -13 -12 -28 l1 -28
7 25 c5 17 9 21 15 12 4 -6 4 -17 0 -24 -4 -6 1 -17 10 -23 14 -11 15 -13 1
-19 -10 -3 -16 -20 -17 -48 -1 -38 -2 -37 -8 17 -6 56 -7 54 -7 -30 0 -60 2
-80 7 -60 7 28 11 29 14 6 2 -15 16 -26 16 -13 0 7 5 12 11 12 17 0 130 71
125 78 -2 4 6 8 18 8 22 2 154 78 167 97 3 5 10 9 15 9 5 0 8 3 7 7 -1 4 9 8
22 9 17 1 23 -2 19 -12 -5 -14 152 -110 166 -101 4 3 10 -2 13 -10 6 -14 83
-59 102 -60 5 0 20 -10 34 -22 25 -24 51 -30 51 -12 0 5 5 7 11 4 6 -4 8 -9 5
-12 -3 -3 3 -13 12 -22 10 -9 13 -13 8 -8 -22 16 -26 2 -26 -98 l0 -105 28 16
27 17 -28 -24 -27 -24 2 -119 3 -119 44 -24 c24 -12 49 -28 57 -33 7 -7 49
-10 106 -8 82 3 93 5 90 21 -2 9 2 17 8 17 9 0 14 -14 11 -32 0 -4 86 -6 191
-5 177 2 191 3 194 20 3 25 14 35 14 14 0 -9 6 -17 13 -17 8 0 7 -3 -3 -10
-10 -6 53 -9 177 -9 106 1 196 5 199 10 3 5 -1 9 -8 9 -10 0 -10 2 1 9 9 6 19
5 26 -2 10 -9 10 -14 1 -19 -6 -4 8 -8 32 -8 39 0 42 2 42 28 0 15 -6 34 -12
40 -9 9 -9 15 -2 20 12 9 18 72 6 72 -5 0 -9 7 -9 15 0 8 4 15 9 15 4 0 8 20
8 45 0 25 -5 45 -11 45 -5 0 -8 4 -5 9 4 5 0 12 -6 14 -10 4 -10 6 0 6 7 1 10
5 7 11 -3 5 -1 10 4 10 15 0 14 93 -1 108 -9 9 -9 12 0 12 16 0 16 67 0 73
-10 4 -10 7 0 18 16 18 17 213 0 203 -7 -4 -8 -3 -4 5 4 6 2 19 -5 27 -9 12
-9 13 2 9 12 -4 15 13 17 94 1 86 -1 102 -16 110 -15 9 -15 12 -2 20 20 14 27
216 7 208 -8 -3 -14 1 -14 9 0 7 4 11 8 9 13 -9 19 27 19 125 0 69 -4 100 -12
104 -10 5 -10 7 0 12 6 3 12 22 12 41 0 28 -3 34 -15 29 -14 -5 -14 -4 0 16
23 34 20 103 -7 128 -20 18 -20 20 -4 14 14 -5 17 -4 12 4 -4 7 -3 12 3 12 5
0 9 20 9 45 0 25 -4 45 -9 45 -6 0 -6 8 1 19 14 27 13 78 -2 85 -10 5 -10 7 0
12 6 3 12 21 12 40 0 33 -1 34 -42 34 -24 0 -38 -4 -32 -8 9 -5 8 -11 -2 -20
-14 -13 -15 -12 -18 11 -1 9 -45 12 -177 14 -164 2 -178 0 -198 -18 -11 -11
-22 -17 -22 -14 -1 3 -2 11 -3 17 0 7 -9 14 -20 16 -13 3 -16 0 -11 -10 6 -10
5 -11 -6 0 -16 15 -179 17 -179 2 0 -5 5 -10 12 -10 9 0 8 -3 -1 -12 -11 -11
-14 -10 -18 0 -3 6 -10 9 -16 5 -8 -4 -7 -1 1 9 12 14 5 16 -68 16 -44 0 -78
-3 -76 -7 9 -14 -9 -30 -24 -21 -11 7 -12 10 -2 10 7 0 11 4 8 9 -4 5 -74 10
-157 10 l-151 2 4 -28 c3 -15 9 -36 13 -45 6 -14 2 -18 -18 -18 -14 0 -27 7
-30 14 -4 9 -1 13 6 10 9 -3 14 7 15 30 l2 34 -262 0 c-178 0 -257 -3 -244
-10z m215 -11 c8 -10 7 -14 -2 -14 -7 0 -18 6 -25 14 -10 10 -10 13 1 13 8 0
20 -6 26 -13z m224 -7 c-4 -16 -8 -18 -20 -9 -11 10 -11 14 -1 20 21 14 26 10
21 -11z m171 14 c9 -3 16 -11 16 -16 0 -6 -8 -4 -17 3 -10 9 -14 9 -10 2 5 -7
-2 -17 -15 -24 -18 -9 -21 -9 -11 1 6 7 9 19 6 26 -6 15 6 18 31 8z m800 0
c20 -8 21 -24 2 -24 -8 0 -16 7 -20 15 -6 17 -4 18 18 9z m-1234 -39 c-7 -9
-15 -13 -19 -10 -3 3 1 10 9 15 21 14 24 12 10 -5z m754 -11 c8 -22 9 -21 -23
-26 -29 -4 -29 -4 -13 19 20 27 28 28 36 7z m400 0 c9 -23 8 -24 -14 -24 -11
0 -20 2 -20 4 0 12 13 36 20 36 4 0 11 -7 14 -16z m-1004 -25 c0 -5 -7 -9 -15
-9 -8 0 -15 7 -15 15 0 9 6 12 15 9 8 -4 15 -10 15 -15z m400 6 c0 -1 -7 -8
-15 -15 -13 -10 -15 -9 -15 8 0 15 5 20 15 16 8 -4 15 -7 15 -9z m401 5 c5 0
9 -4 9 -10 0 -15 -20 -12 -38 7 -16 16 -16 16 1 10 10 -4 23 -7 28 -7z m409
-5 c0 -8 -7 -15 -15 -15 -26 0 -18 20 13 29 1 1 2 -6 2 -14z m-940 -30 c0 -2
-6 -5 -13 -8 -8 -3 -14 1 -14 8 0 7 6 11 14 8 7 -3 13 -6 13 -8z m245 6 c3 -5
1 -12 -5 -16 -5 -3 -10 1 -10 9 0 18 6 21 15 7z m400 -11 c3 -5 1 -10 -4 -10
-6 0 -11 5 -11 10 0 6 2 10 4 10 3 0 8 -4 11 -10z m-605 -20 c0 -5 -2 -10 -4
-10 -3 0 -8 5 -11 10 -3 6 -1 10 4 10 6 0 11 -4 11 -10z m175 0 c-3 -5 -10
-10 -16 -10 -5 0 -9 5 -9 10 0 6 7 10 16 10 8 0 12 -4 9 -10z m230 0 c3 -5 2
-10 -4 -10 -5 0 -13 5 -16 10 -3 6 -2 10 4 10 5 0 13 -4 16 -10z m175 5 c0 -2
-10 -10 -22 -16 -21 -11 -22 -11 -9 4 13 16 31 23 31 12z m225 -5 c3 -5 1 -10
-4 -10 -6 0 -11 5 -11 10 0 6 2 10 4 10 3 0 8 -4 11 -10z m-918 -17 c-4 -3 -1
-13 6 -21 11 -13 9 -14 -10 -2 -22 14 -22 30 -1 30 6 0 8 -3 5 -7z m410 -18
c0 -5 -12 -11 -26 -11 -14 -1 -20 1 -13 3 6 3 10 9 7 13 -3 5 3 8 13 7 10 0
19 -6 19 -12z m403 -2 c0 -11 -5 -11 -20 -3 -11 6 -20 13 -20 15 0 2 9 3 20 2
11 -1 20 -7 20 -14z m-1095 -14 c-10 -15 -25 -10 -19 6 4 8 10 12 15 9 5 -3 7
-10 4 -15z m490 5 c-8 -6 -11 -15 -8 -20 4 -5 1 -4 -6 3 -10 9 -20 9 -35 2
-19 -9 -19 -9 -4 4 10 8 15 17 11 20 -3 4 8 5 26 4 25 -2 28 -4 16 -13z m401
-6 c-6 -10 -13 -18 -16 -18 -3 0 -10 8 -16 18 -10 15 -7 17 16 17 23 0 26 -2
16 -17z m397 -4 c-7 -18 -19 -18 -26 0 -7 18 1 26 18 19 8 -2 11 -11 8 -19z
m-1124 -48 c-1 -16 -2 -17 -6 -4 -2 9 -10 15 -18 12 -7 -3 -16 -1 -20 5 -4 7
0 8 11 4 12 -4 15 -3 10 5 -5 8 -2 10 8 6 9 -3 15 -16 15 -28z m240 16 c-6
-10 -20 -18 -30 -18 -25 0 -24 3 9 20 35 19 34 19 21 -2z m804 6 c-4 -7 -8
-16 -9 -20 -1 -5 -2 -11 -3 -15 -1 -5 -6 -1 -11 7 -7 11 -5 19 7 28 9 6 18 12
21 12 2 0 0 -6 -5 -12z m-1213 -8 c0 -5 -2 -10 -4 -10 -3 0 -8 5 -11 10 -3 6
-1 10 4 10 6 0 11 -4 11 -10z m600 -15 c0 -2 -7 -1 -17 2 -11 4 -14 3 -9 -5 4
-7 3 -12 -2 -12 -14 0 -21 11 -15 26 4 10 10 11 24 3 10 -5 19 -12 19 -14z
m204 -7 c-3 -4 -10 -8 -15 -8 -6 0 -7 5 -3 12 5 8 1 9 -12 5 -18 -7 -18 -7 0
8 15 11 22 12 27 3 4 -7 5 -16 3 -20z m182 16 c-9 -6 -13 -14 -9 -17 3 -4 2
-7 -4 -7 -15 0 -22 10 -17 24 2 6 14 12 25 12 18 0 18 -2 5 -12z m400 0 c-9
-6 -13 -14 -9 -18 4 -4 0 -4 -9 -1 -22 9 -13 31 13 31 18 0 18 -2 5 -12z
m-1036 -19 c0 -2 -10 -9 -22 -15 -22 -11 -22 -10 -4 4 21 17 26 19 26 11z
m-54 -52 c0 -24 -10 -30 -21 -12 -4 6 -13 8 -19 6 -7 -3 -13 1 -13 8 0 8 7 11
15 7 9 -3 13 -1 9 4 -3 5 2 10 12 10 11 0 17 -8 17 -23z m398 15 c-3 -4 1 -8
8 -9 10 0 10 -2 0 -6 -6 -2 -10 -8 -8 -12 3 -4 -4 -8 -15 -8 -12 -1 -17 2 -13
9 5 7 2 9 -8 6 -8 -4 -15 -1 -15 7 0 8 7 11 15 7 9 -3 13 -1 9 4 -3 5 3 10 13
10 10 0 16 -4 14 -8z m396 -3 c-6 -7 -6 -15 0 -21 6 -6 3 -10 -10 -11 -13 -1
-18 2 -14 9 5 7 2 9 -8 6 -8 -4 -15 -1 -15 7 0 8 7 11 15 7 10 -3 13 -1 8 6
-4 7 1 10 13 9 14 -1 17 -5 11 -12z m27 -9 c0 -8 -6 -12 -15 -9 -11 5 -11 7 0
14 7 5 13 9 14 9 0 0 1 -6 1 -14z m-901 -29 c-11 -7 -27 -19 -37 -29 -9 -9
-20 -14 -22 -11 -3 2 -18 -3 -34 -12 -26 -16 -27 -16 -8 0 11 9 19 21 17 26
-1 6 2 8 7 4 6 -3 27 3 48 14 42 22 59 27 29 8z m188 -42 c-5 -11 -11 -12 -25
-4 -23 12 -25 21 -4 13 8 -4 15 -1 15 6 0 6 4 9 10 5 5 -3 7 -12 4 -20z m170
13 c-5 -8 -1 -9 12 -5 18 7 18 7 0 -8 -15 -11 -22 -12 -27 -3 -9 14 -2 28 12
28 6 0 7 -5 3 -12z m230 4 c2 -4 1 -13 -3 -20 -5 -9 -12 -8 -27 3 -18 15 -18
15 0 8 13 -4 17 -3 12 5 -4 7 -3 12 3 12 5 0 12 -4 15 -8z m171 -2 c-3 -5 0
-10 7 -10 10 0 9 -3 -2 -10 -9 -6 -17 -5 -22 3 -8 13 -1 27 13 27 6 0 7 -4 4
-10z m237 -10 c-23 -22 -44 -22 -30 0 6 8 18 16 29 16 17 0 17 -1 1 -16z m165
13 c-4 -3 0 -11 9 -17 13 -10 13 -12 -5 -12 -11 0 -17 5 -14 10 4 5 -2 7 -13
3 -18 -7 -18 -7 0 8 20 15 35 21 23 8z m-880 -61 c10 -16 8 -19 -17 -19 -25 0
-27 3 -17 19 7 10 14 18 17 18 3 0 10 -8 17 -18z m400 -1 c10 -16 8 -18 -18
-19 -26 -1 -27 1 -16 19 15 24 19 24 34 0z m401 -2 c11 -18 11 -20 0 -17 -7 3
-23 1 -36 -3 -23 -9 -23 -9 -5 16 22 30 25 30 41 4z m-590 -3 c-10 -7 -16 -15
-13 -17 2 -3 -4 -5 -14 -5 -10 0 -18 6 -18 13 0 7 4 10 9 7 4 -3 16 0 25 5 25
15 31 13 11 -3z m-411 -12 c0 -7 -8 -12 -17 -11 -22 1 -22 23 0 23 9 0 17 -6
17 -12z m800 1 c0 -6 -8 -12 -17 -12 -9 -1 -17 4 -17 11 0 6 8 12 17 12 9 0
17 -5 17 -11z m-1062 -15 c-3 -5 -12 -10 -18 -10 -7 0 -6 4 3 10 19 12 23 12
15 0z m165 -41 c0 -4 -11 -2 -24 4 -13 7 -22 15 -20 19 5 8 44 -13 44 -23z
m205 21 c-3 -5 -11 -10 -16 -10 -6 0 -7 5 -4 10 3 6 11 10 16 10 6 0 7 -4 4
-10z m170 0 c3 -5 2 -10 -4 -10 -5 0 -13 5 -16 10 -3 6 -2 10 4 10 5 0 13 -4
16 -10z m235 0 c0 -5 -4 -10 -10 -10 -5 0 -10 5 -10 10 0 6 5 10 10 10 6 0 10
-4 10 -10z m165 0 c3 -5 2 -10 -4 -10 -5 0 -13 5 -16 10 -3 6 -2 10 4 10 5 0
13 -4 16 -10z m235 3 c0 -5 -11 -13 -25 -20 -29 -13 -33 -6 -7 13 19 15 32 18
32 7z m165 -3 c3 -5 1 -10 -4 -10 -6 0 -11 5 -11 10 0 6 2 10 4 10 3 0 8 -4
11 -10z m-1005 -22 c0 -6 -6 -5 -15 2 -8 7 -15 14 -15 16 0 2 7 1 15 -2 8 -4
15 -11 15 -16z m640 8 c0 -3 -4 -8 -10 -11 -5 -3 -10 -1 -10 4 0 6 5 11 10 11
6 0 10 -2 10 -4z m400 0 c0 -3 -4 -8 -10 -11 -5 -3 -10 -1 -10 4 0 6 5 11 10
11 6 0 10 -2 10 -4z m-910 -32 c0 -2 -10 -9 -22 -15 -13 -6 -20 -8 -16 -4 4 5
3 14 -2 20 -8 9 -4 11 15 7 14 -2 25 -6 25 -8z m635 6 c-3 -5 -12 -10 -18 -10
-7 0 -6 4 3 10 19 12 23 12 15 0z m-1045 -10 c0 -5 -2 -10 -4 -10 -2 0 -12 -3
-20 -6 -12 -5 -15 -2 -10 10 7 17 34 22 34 6z m810 -3 c0 -7 -8 -13 -19 -13
-11 0 -17 5 -14 13 3 7 11 13 19 13 8 0 14 -6 14 -13z m400 3 c0 -5 -7 -10
-15 -10 -8 0 -15 5 -15 10 0 6 7 10 15 10 8 0 15 -4 15 -10z m-1000 -7 c0 -5
-5 -15 -10 -23 -9 -13 -11 -13 -20 0 -15 22 -12 30 10 30 11 0 20 -3 20 -7z
m400 3 c0 -34 -35 -48 -37 -16 -1 14 4 20 18 20 10 0 19 -2 19 -4z m397 -16
c-1 -11 -7 -20 -14 -20 -7 0 -13 2 -13 4 0 2 -3 11 -6 20 -4 11 0 16 14 16 15
0 20 -6 19 -20z m-1123 -51 c-11 -18 -32 -9 -27 11 4 16 8 18 19 9 8 -6 11
-15 8 -20z m407 1 c-3 -3 -9 -9 -12 -13 -3 -4 -12 0 -20 10 -9 11 -10 14 -1 9
7 -4 12 -1 12 9 0 13 2 14 14 3 8 -7 11 -15 7 -18z m-178 6 c3 -8 -1 -17 -9
-20 -9 -3 -12 -1 -9 4 3 6 1 10 -5 10 -6 0 -8 5 -5 10 9 14 22 12 28 -4z m408
0 c5 3 9 3 9 0 0 -3 -9 -10 -19 -16 -16 -8 -19 -7 -16 8 5 27 6 28 12 14 2 -6
9 -10 14 -6z m174 4 c3 -5 1 -10 -5 -10 -6 0 -8 -4 -5 -10 3 -5 0 -7 -9 -4 -8
3 -12 12 -9 20 6 16 19 18 28 4z m227 -9 c15 -15 14 -16 -9 -17 -13 -1 -22 1
-19 4 3 3 1 10 -4 17 -15 18 12 15 32 -4z m170 1 c-7 -2 -10 -8 -7 -13 4 -5
-1 -6 -9 -3 -8 3 -12 12 -10 19 3 8 13 11 22 8 10 -4 12 -8 4 -11z m224 3 c9
-7 9 -12 0 -17 -14 -10 -32 -10 -23 -1 4 3 2 12 -5 20 -9 11 -8 13 2 11 8 -2
20 -7 26 -13z m-915 -58 c-8 -8 -16 -7 -27 5 -14 14 -14 15 11 10 19 -3 23 -8
16 -15z m415 3 c0 -14 -5 -19 -15 -15 -10 4 -11 2 -3 -8 8 -10 6 -13 -8 -13
-10 0 -16 4 -14 8 3 4 -1 8 -8 8 -9 0 -9 3 2 10 8 5 11 10 5 11 -5 0 1 5 15 9
14 4 25 8 25 9 1 1 1 -8 1 -19z m-810 -4 c12 -13 11 -15 -6 -21 -11 -4 -18
-11 -15 -16 14 -22 -4 -6 -20 17 -9 15 -12 23 -6 20 6 -4 11 -2 11 3 0 15 19
14 36 -3z m1206 0 c10 -15 -1 -32 -22 -33 -11 -1 -18 2 -15 8 4 5 1 9 -5 9 -7
0 -6 5 2 14 14 15 29 16 40 2z m-799 -6 c20 10 20 10 5 -3 -10 -8 -16 -16 -13
-18 2 -3 -5 -5 -15 -5 -10 0 -17 2 -15 5 3 2 -3 10 -13 18 -15 13 -15 13 6 3
16 -8 28 -8 45 0z m264 -12 c-3 -8 -6 -5 -6 6 -1 11 2 17 5 13 3 -3 4 -12 1
-19z m323 -8 c0 -5 -5 -10 -11 -10 -5 0 -7 5 -4 10 3 6 8 10 11 10 2 0 4 -4 4
-10z m-886 -55 c-3 -8 -12 -11 -22 -8 -11 5 -12 8 -4 11 10 3 10 7 0 20 -12
13 -10 14 9 3 13 -6 20 -17 17 -26z m-231 11 c3 -8 -1 -17 -9 -20 -10 -4 -12
-2 -8 6 5 8 2 9 -11 4 -15 -5 -16 -4 -5 9 16 19 26 19 33 1z m403 -18 c-22
-15 -26 -7 -17 30 1 1 7 -3 15 -10 10 -9 11 -15 2 -20z m228 7 c-3 -7 -12 -11
-19 -8 -11 4 -12 8 -2 18 15 16 28 10 21 -10z m172 -7 c-22 -15 -26 -7 -17 30
1 1 7 -3 15 -10 10 -9 11 -15 2 -20z m254 7 c0 -2 -7 -2 -15 1 -8 4 -15 1 -15
-6 0 -6 -4 -9 -10 -5 -5 3 -7 12 -4 20 5 11 11 12 25 4 10 -5 19 -12 19 -14z
m145 15 c-3 -4 0 -10 7 -12 8 -3 7 -6 -3 -10 -9 -3 -20 1 -26 11 -9 14 -7 17
8 18 11 1 17 -2 14 -7z m237 -8 c-7 -2 -10 -8 -6 -13 10 -16 -13 -10 -27 8
-10 11 -10 14 -1 9 6 -4 12 -3 12 3 0 6 8 7 17 4 11 -4 13 -8 5 -11z m-1330
-46 c4 -19 -1 -27 -21 -35 -21 -9 -23 -9 -10 1 17 14 19 19 19 43 0 23 7 18
12 -9z m208 3 c0 -5 5 -7 12 -3 7 4 8 3 4 -4 -11 -18 -47 -15 -40 3 7 17 24
20 24 4z m404 -4 c7 -18 -29 -21 -40 -3 -4 7 -3 8 4 4 7 -4 12 -2 12 3 0 16
17 13 24 -4z m399 1 c4 -9 -3 -16 -18 -18 -20 -4 -22 -3 -12 14 14 22 23 23
30 4z m-596 -21 c0 -6 -8 -11 -17 -11 -9 0 -17 5 -17 11 0 6 8 11 17 11 9 0
17 -5 17 -11z m400 0 c0 -6 -8 -11 -17 -11 -9 0 -17 5 -17 11 0 6 8 11 17 11
9 0 17 -5 17 -11z m403 0 c0 -6 -9 -11 -19 -12 -12 -1 -18 3 -15 11 6 16 34
17 34 1z m-709 -38 c-10 -9 -11 -8 -5 6 3 10 9 15 12 12 3 -3 0 -11 -7 -18z
m424 13 c-3 -5 -12 -10 -18 -10 -7 0 -6 4 3 10 19 12 23 12 15 0z m395 -4 c0
-2 -7 -7 -16 -10 -8 -3 -12 -2 -9 4 6 10 25 14 25 6z m-595 -16 c-3 -5 -12
-10 -18 -10 -7 0 -6 4 3 10 19 12 23 12 15 0z m402 -4 c0 -8 -6 -12 -15 -9
-11 5 -11 7 0 14 7 5 13 9 14 9 0 0 1 -6 1 -14z m-1047 0 c0 -2 -7 -7 -16 -10
-8 -3 -12 -2 -9 4 6 10 25 14 25 6z m-280 -31 c0 -6 -9 -11 -19 -12 -12 -1
-18 3 -15 11 6 16 34 17 34 1z m404 6 c-2 -2 1 -10 6 -16 8 -9 4 -11 -15 -7
-14 2 -23 8 -20 12 3 5 -1 10 -7 13 -7 2 -1 4 14 3 14 0 24 -3 22 -5z m403 -8
c0 -7 -2 -11 -5 -8 -3 2 -14 -1 -26 -7 -18 -10 -19 -9 -9 4 7 8 11 17 8 19 -2
3 4 5 14 5 10 0 18 -6 18 -13z m403 1 c0 -14 -23 -14 -37 2 -9 9 -6 11 13 10
13 0 24 -6 24 -12z m-1010 -15 c-10 -7 -11 -12 -4 -15 6 -3 20 -12 30 -20 16
-13 14 -13 -13 1 -30 14 -35 14 -60 -2 -16 -10 -30 -20 -33 -23 -3 -3 -31 -18
-62 -35 -32 -16 -58 -32 -58 -35 0 -3 -27 -19 -60 -34 -33 -16 -60 -33 -60
-38 0 -5 -4 -6 -10 -3 -6 3 -10 1 -10 -4 0 -6 -6 -11 -14 -11 -8 0 -21 -6 -28
-13 -16 -17 -46 -18 -52 -2 -3 8 4 10 18 8 13 -3 29 1 37 9 8 7 28 20 44 28
17 8 48 26 70 40 22 15 62 37 88 49 26 13 53 28 60 35 7 6 31 21 53 33 21 12
38 27 37 32 -2 6 7 11 20 11 18 0 19 -2 7 -11z m408 -1 c-3 -7 -11 -13 -18
-13 -7 0 -15 6 -17 13 -3 7 4 12 17 12 13 0 20 -5 18 -12z m402 5 c-1 -28 -35
-39 -37 -12 -1 13 5 19 18 19 10 0 19 -3 19 -7z m398 -5 c-3 -7 -11 -13 -18
-13 -7 0 -15 6 -17 13 -3 7 4 12 17 12 13 0 20 -5 18 -12z m-1728 -32 c0 -2
-7 -7 -16 -10 -8 -3 -12 -2 -9 4 6 10 25 14 25 6z m107 -18 c-3 -8 -6 -5 -6 6
-1 11 2 17 5 13 3 -3 4 -12 1 -19z m1130 2 c1 -11 -2 -22 -8 -25 -5 -4 -9 1
-9 9 0 9 -6 16 -12 16 -9 0 -8 4 2 10 22 14 26 12 27 -10z m183 -2 c0 -5 -4
-7 -9 -4 -5 4 -11 0 -14 -6 -2 -7 -7 -10 -11 -7 -11 11 5 38 20 32 8 -3 14 -9
14 -15z m215 12 c-3 -5 -1 -10 4 -10 6 0 11 -4 11 -10 0 -15 -27 -12 -33 4 -6
15 1 26 15 26 5 0 6 -4 3 -10z m174 1 c9 -6 10 -11 2 -15 -6 -4 -9 -12 -6 -17
3 -5 0 -6 -7 -4 -8 3 -14 14 -14 25 0 22 4 24 25 11z m-1612 -14 c0 -7 -9 -13
-19 -13 -18 0 -18 1 -2 13 10 7 18 13 19 13 1 0 2 -6 2 -13z m422 -24 c13 -10
10 -11 -16 -2 -18 6 -33 15 -33 19 0 13 25 18 29 6 2 -6 11 -17 20 -23z m216
26 c12 -19 -5 -23 -22 -6 -16 16 -16 17 -1 17 9 0 20 -5 23 -11z m175 3 c0
-15 -11 -21 -27 -15 -12 5 -12 7 -1 14 17 11 28 11 28 1z m-930 -26 c0 -2 -7
-7 -16 -10 -8 -3 -12 -2 -9 4 6 10 25 14 25 6z m-50 -26 c0 -5 -5 -10 -11 -10
-5 0 -7 5 -4 10 3 6 8 10 11 10 2 0 4 -4 4 -10z m480 0 c0 -5 -2 -10 -4 -10
-3 0 -8 5 -11 10 -3 6 -1 10 4 10 6 0 11 -4 11 -10z m191 -7 c17 5 24 -4 20
-25 0 -5 3 -8 7 -8 5 0 17 -7 28 -15 16 -14 14 -14 -14 0 -19 9 -40 14 -48 11
-8 -3 -13 -2 -9 3 3 5 -7 19 -22 31 -24 18 -24 19 -4 10 12 -7 32 -10 42 -7z
m219 7 c0 -5 -5 -10 -11 -10 -5 0 -7 5 -4 10 3 6 8 10 11 10 2 0 4 -4 4 -10z
m212 3 c-10 -4 -10 -8 -1 -19 9 -11 9 -14 0 -14 -7 0 -10 -3 -8 -7 3 -5 -6 -9
-20 -10 -19 -1 -22 1 -12 8 10 6 10 9 2 9 -21 0 -15 20 10 30 12 5 27 9 32 9
6 -1 4 -3 -3 -6z m403 -24 c1 -16 -2 -29 -6 -29 -13 0 -54 39 -41 40 7 0 11 3
9 8 -3 4 5 8 16 8 18 1 22 -4 22 -27z m-210 -19 c3 -5 1 -10 -4 -10 -6 0 -11
5 -11 10 0 6 2 10 4 10 3 0 8 -4 11 -10z m-1365 -4 c0 -2 -7 -7 -16 -10 -8 -3
-12 -2 -9 4 6 10 25 14 25 6z m1846 -58 c-18 -12 -24 -9 -22 10 2 25 20 34 27
14 4 -9 1 -20 -5 -24z m-1691 22 c3 -5 1 -10 -4 -10 -6 0 -11 5 -11 10 0 6 2
10 4 10 3 0 8 -4 11 -10z m482 -22 c-3 -7 -5 -2 -5 12 0 14 2 19 5 13 2 -7 2
-19 0 -25z m225 18 c3 3 8 -2 11 -11 9 -21 -6 -19 -34 6 -22 18 -22 19 -3 10
12 -6 24 -8 26 -5z m208 -22 c0 -1 -8 -1 -17 0 -24 2 -44 19 -31 27 8 5 48
-18 48 -27z m204 11 c-3 -7 -12 -11 -19 -8 -11 4 -12 8 -2 18 15 16 28 10 21
-10z m179 4 c5 -3 2 -9 -7 -12 -12 -5 -16 0 -16 15 0 12 3 17 8 12 4 -5 11
-12 15 -15z m231 12 c9 -14 -26 -23 -38 -10 -8 9 -8 10 2 5 6 -4 12 -2 12 3 0
13 17 14 24 2z m-1204 -21 c0 -5 -7 -10 -16 -10 -8 0 -12 5 -9 10 3 6 10 10
16 10 5 0 9 -4 9 -10z m-40 -20 c0 -5 -2 -10 -4 -10 -3 0 -8 5 -11 10 -3 6 -1
10 4 10 6 0 11 -4 11 -10z m926 -10 c0 -13 -7 -20 -18 -20 -21 0 -23 11 -6 28
17 17 24 15 24 -8z m406 -5 c16 -21 15 -21 -11 -17 -17 2 -27 10 -27 21 0 24
18 22 38 -4z m-1217 5 c-3 -5 0 -10 7 -11 7 0 4 -4 -7 -8 -23 -9 -41 9 -22 21
17 11 29 10 22 -2z m409 -6 c7 -18 -27 -19 -42 -1 -8 9 -4 12 13 13 13 1 26
-4 29 -12z m-489 -4 c3 -5 2 -10 -4 -10 -5 0 -13 5 -16 10 -3 6 -2 10 4 10 5
0 13 -4 16 -10z m286 -14 c-9 -11 -9 -15 1 -19 7 -2 -2 -4 -20 -3 l-33 1 22
18 c26 21 46 23 30 3z m406 0 c0 -11 -5 -13 -19 -5 -10 5 -18 12 -18 14 0 3 8
5 18 5 10 0 19 -7 19 -14z m407 -3 c6 -15 4 -15 -18 -7 -20 8 -21 21 -1 21 8
0 16 -6 19 -14z m-1057 -7 c-5 -16 -27 -19 -27 -3 0 7 7 14 15 14 9 0 14 -5
12 -11z m-352 -6 c3 -5 1 -10 -4 -10 -6 0 -11 5 -11 10 0 6 2 10 4 10 3 0 8
-4 11 -10z m745 6 c0 -2 -7 -7 -16 -10 -8 -3 -12 -2 -9 4 6 10 25 14 25 6z
m-670 -18 c0 -4 -4 -8 -9 -8 -6 0 -12 4 -15 8 -3 5 1 9 9 9 8 0 15 -4 15 -9z
m126 -25 c-2 -2 -15 2 -30 8 -17 8 -22 15 -15 20 10 6 53 -20 45 -28z m724 -8
c0 -3 -18 4 -40 15 -22 11 -40 23 -40 25 0 3 18 -4 40 -15 22 -11 40 -23 40
-25z m195 35 c-3 -5 -12 -10 -18 -10 -7 0 -6 4 3 10 19 12 23 12 15 0z m400 0
c-3 -5 -12 -10 -18 -10 -7 0 -6 4 3 10 19 12 23 12 15 0z m-1620 -10 c-3 -5
-11 -10 -16 -10 -6 0 -7 5 -4 10 3 6 11 10 16 10 6 0 7 -4 4 -10z m415 3 c-1
-10 -90 -55 -90 -45 0 7 68 49 83 51 4 1 7 -2 7 -6z m163 -7 c4 -10 0 -12 -14
-9 -10 3 -16 9 -13 14 8 13 21 11 27 -5z m294 -8 c-3 -8 -6 -5 -6 6 -1 11 2
17 5 13 3 -3 4 -12 1 -19z m-87 7 c0 -2 -9 -9 -20 -15 -12 -6 -20 -7 -20 -1 0
5 8 12 18 14 9 3 18 5 20 6 1 0 2 -1 2 -4z m395 -5 c-3 -5 -12 -10 -18 -10 -7
0 -6 4 3 10 19 12 23 12 15 0z m630 -8 c-3 -3 -11 0 -18 7 -9 10 -8 11 6 5 10
-3 15 -9 12 -12z m-1585 -2 c0 -5 -5 -10 -11 -10 -5 0 -7 5 -4 10 3 6 8 10 11
10 2 0 4 -4 4 -10z m220 0 c0 -5 -2 -10 -4 -10 -3 0 -8 5 -11 10 -3 6 -1 10 4
10 6 0 11 -4 11 -10z m975 0 c3 -6 -1 -7 -9 -4 -18 7 -21 14 -7 14 6 0 13 -4
16 -10z m-1420 -10 c-3 -5 -11 -10 -16 -10 -6 0 -7 5 -4 10 3 6 11 10 16 10 6
0 7 -4 4 -10z m1313 -4 c-10 -7 -16 -15 -13 -17 2 -3 -4 -5 -14 -5 -10 0 -18
6 -18 13 0 7 4 10 9 7 4 -3 16 0 25 5 25 15 31 13 11 -3z m-1211 -11 c0 -8 -4
-15 -8 -15 -11 0 -20 16 -12 24 11 11 20 7 20 -9z m400 0 c0 -6 -8 -11 -17
-11 -9 0 -17 5 -17 11 0 6 8 11 17 11 9 0 17 -5 17 -11z m207 -12 c-20 -19
-29 -36 -27 -53 2 -21 1 -20 -7 5 -5 17 -9 35 -8 40 1 8 34 25 67 34 3 0 -9
-11 -25 -26z m179 8 c-4 -3 -11 -10 -15 -15 -5 -5 -8 0 -8 12 0 15 4 20 16 15
9 -3 12 -9 7 -12z m210 -18 c-6 -16 -23 -17 -23 -2 0 5 -6 7 -12 3 -7 -4 -10
-4 -6 1 4 4 0 14 -10 21 -14 10 -11 10 19 1 23 -7 35 -16 32 -24z m607 22 c0
-6 -8 -11 -18 -11 -10 0 -19 6 -19 12 0 7 9 12 19 11 10 -1 18 -6 18 -12z
m-1490 -5 c0 -5 -2 -10 -4 -10 -3 0 -8 5 -11 10 -3 6 -1 10 4 10 6 0 11 -4 11
-10z m1283 -16 c-7 -18 -19 -18 -26 0 -7 18 1 26 18 19 8 -2 11 -11 8 -19z
m-1493 -28 c0 -2 -7 -7 -16 -10 -8 -3 -12 -2 -9 4 6 10 25 14 25 6z m604 -11
c3 -9 -3 -19 -17 -26 -21 -12 -21 -11 -7 6 14 17 13 18 -5 12 -20 -7 -20 -7
-1 8 24 18 23 18 30 0z m400 0 c3 -9 -3 -19 -17 -26 -20 -11 -21 -11 -8 4 11
14 11 17 0 17 -11 0 -11 2 1 10 19 12 17 13 24 -5z m196 -10 c0 -2 -7 -2 -15
1 -8 4 -15 1 -15 -6 0 -6 -4 -9 -10 -5 -5 3 -7 12 -4 20 5 11 11 12 25 4 10
-5 19 -12 19 -14z m204 13 c-5 -8 -1 -9 12 -5 18 7 18 7 0 -8 -15 -11 -22 -12
-27 -3 -9 14 -2 28 12 28 6 0 7 -5 3 -12z m182 -4 c-9 -6 -13 -14 -10 -17 4
-3 -3 -5 -14 -4 -15 1 -17 5 -10 17 6 9 19 16 30 16 17 0 17 -2 4 -12z m219 6
c-3 -5 0 -10 7 -10 10 0 9 -3 -2 -10 -9 -6 -17 -5 -22 3 -8 13 -1 27 13 27 6
0 7 -4 4 -10z m-1008 -14 c4 -5 3 -6 -4 -2 -7 4 -21 2 -32 -3 -14 -8 -20 -7
-24 2 -5 14 47 17 60 3z m-107 -40 c0 -11 -19 -15 -25 -6 -3 5 1 10 9 10 9 0
16 -2 16 -4z m204 -7 c-2 -4 0 -9 5 -11 5 -1 -2 -11 -15 -21 -21 -16 -24 -16
-24 -2 0 9 -5 13 -11 10 -6 -5 -6 0 1 12 7 10 20 19 30 19 10 0 17 -3 14 -7z
m416 -17 c3 -3 -4 -2 -14 2 -15 5 -17 4 -7 -8 9 -11 7 -15 -14 -18 -22 -5 -23
-3 -13 10 11 13 10 15 -7 9 -18 -7 -19 -6 -3 6 10 8 14 18 10 22 -4 4 4 2 18
-5 14 -7 27 -15 30 -18z m394 12 c2 -6 0 -17 -5 -25 -5 -8 -9 -9 -9 -4 0 6 -5
3 -10 -5 -8 -13 -10 -12 -10 3 0 18 -10 22 -26 10 -5 -5 -2 -1 8 8 9 9 15 18
13 21 -2 2 5 4 15 4 11 0 21 -5 24 -12z m-1699 -22 c-3 -3 -11 0 -18 7 -9 10
-8 11 6 5 10 -3 15 -9 12 -12z m685 -6 c0 -2 -7 -7 -16 -10 -8 -3 -12 -2 -9 4
6 10 25 14 25 6z m314 -50 c-5 -14 -34 -18 -34 -4 0 4 5 8 11 8 5 0 7 4 4 10
-3 5 0 7 9 4 8 -3 13 -11 10 -18z m172 -12 c-8 -9 -12 -9 -14 2 -2 8 -9 11
-15 7 -7 -4 -7 0 1 10 11 12 17 13 26 4 9 -8 10 -15 2 -23z m228 28 c2 -4 2
-12 -2 -17 -10 -14 -32 -17 -32 -5 0 6 5 10 11 10 5 0 7 5 4 10 -3 6 -2 10 4
10 5 0 12 -4 15 -8z m408 -13 c-18 -18 -25 -16 -28 5 -1 9 7 13 21 12 22 -1
22 -2 7 -17z m-1033 2 c10 -7 7 -9 -12 -8 -15 1 -27 5 -27 10 0 10 22 9 39 -2z
m799 0 c10 -6 10 -10 -1 -20 -12 -9 -16 -7 -20 9 -5 21 0 25 21 11z m-484 -47
c9 -23 8 -24 -15 -24 -11 0 -30 -5 -42 -11 -17 -9 -15 -5 8 18 36 36 41 38 49
17z m400 0 c9 -23 8 -24 -14 -24 -11 0 -20 2 -20 4 0 12 13 36 20 36 4 0 11
-7 14 -16z m-618 -41 l-11 -23 -6 28 c-7 34 -2 45 15 30 9 -9 10 -18 2 -35z
m427 20 c-3 -7 -13 -13 -22 -13 -10 0 -18 6 -18 13 0 6 10 12 22 12 14 0 21
-5 18 -12z m400 1 c-6 -17 -29 -18 -36 -1 -3 7 5 13 19 13 15 1 21 -3 17 -12z
m-949 -23 c3 -5 0 -11 -7 -14 -8 -3 -14 1 -14 9 0 16 13 19 21 5z m236 -21
c-27 -21 -40 -25 -40 -12 0 8 38 29 55 31 6 0 -1 -8 -15 -19z m180 10 c0 -5
-5 -10 -11 -10 -5 0 -7 5 -4 10 3 6 8 10 11 10 2 0 4 -4 4 -10z m240 -5 c11
-13 10 -14 -4 -9 -9 3 -16 10 -16 15 0 13 6 11 20 -6z m200 -17 c0 -12 -13 -9
-32 6 -26 19 -22 26 7 13 14 -7 25 -15 25 -19z m-796 7 c-7 -17 -20 -20 -29
-6 -3 5 3 12 12 14 10 3 19 5 20 6 1 0 0 -6 -3 -14z m391 -5 c3 -5 2 -10 -4
-10 -5 0 -13 5 -16 10 -3 6 -2 10 4 10 5 0 13 -4 16 -10z m175 6 c0 -3 -4 -8
-10 -11 -5 -3 -10 -1 -10 4 0 6 5 11 10 11 6 0 10 -2 10 -4z m395 -6 c-3 -5
-11 -10 -16 -10 -6 0 -7 5 -4 10 3 6 11 10 16 10 6 0 7 -4 4 -10z m-855 -30
c-14 -11 -29 -20 -33 -20 -5 0 -5 -4 -2 -10 11 -17 -1 -11 -21 11 -19 22 -19
22 6 16 15 -3 33 0 44 9 30 21 35 16 6 -6z m177 1 c-1 -16 -5 -18 -19 -10 -22
12 -24 23 -3 15 8 -3 15 -1 15 4 0 6 2 10 4 10 3 0 4 -9 3 -19z m403 -6 c0 -6
-8 -11 -18 -11 -10 0 -19 6 -19 12 0 7 9 12 19 11 10 -1 18 -6 18 -12z m-204
-17 c-14 -23 -18 -23 -34 2 -11 19 -10 20 17 18 25 -2 27 -4 17 -20z m401 1
c-15 -24 -19 -24 -34 0 -11 18 -10 20 16 19 26 -1 28 -3 18 -19z m-847 -4 c0
-2 -10 -9 -22 -15 -22 -11 -22 -10 -4 4 21 17 26 19 26 11z m339 -31 c5 3 11
-1 15 -9 3 -8 1 -17 -4 -20 -6 -4 -10 -1 -10 5 0 7 -7 9 -17 6 -10 -4 -14 -4
-10 0 4 4 1 14 -6 23 -10 14 -10 14 5 3 9 -8 21 -11 27 -8z m-389 -10 c0 -8
-4 -12 -10 -9 -5 3 -19 1 -30 -5 -11 -6 -20 -8 -20 -6 0 4 48 34 58 36 1 0 2
-7 2 -16z m176 -8 c1 -9 -7 -13 -21 -12 -22 1 -22 2 -7 17 18 18 25 16 28 -5z
m421 8 c0 -7 -7 -10 -15 -6 -10 3 -13 1 -8 -6 4 -7 3 -12 -2 -12 -14 0 -21 11
-16 24 6 15 41 15 41 0z m224 0 c8 4 5 0 -5 -8 -15 -12 -22 -13 -27 -4 -4 7
-5 16 -2 21 3 5 9 4 13 -3 4 -7 14 -9 21 -6z m165 0 c-9 -6 -12 -15 -8 -19 4
-4 -3 -2 -15 4 -27 14 -31 23 -6 14 9 -4 14 -2 10 3 -3 5 3 10 14 10 18 0 18
-2 5 -12z m-99 -46 c-3 -8 -6 -5 -6 6 -1 11 2 17 5 13 3 -3 4 -12 1 -19z
m-594 -12 c-4 -5 0 -7 9 -4 8 4 15 1 15 -7 0 -8 -7 -11 -15 -7 -9 3 -13 1 -9
-4 3 -5 -3 -10 -13 -10 -10 0 -16 5 -13 10 4 5 -2 7 -13 3 -18 -7 -18 -6 -2 6
10 8 16 16 13 18 -2 3 4 5 15 5 10 0 16 -5 13 -10z m411 -2 c5 -13 -5 -28 -19
-30 -5 -1 -19 7 -30 18 -19 18 -19 19 -1 12 13 -5 17 -4 12 4 -4 7 1 10 14 9
10 -1 21 -6 24 -13z m-700 -77 c-6 -16 -41 -17 -41 -1 0 7 6 10 14 7 7 -3 13
0 13 7 0 6 4 9 10 5 5 -3 7 -11 4 -18z m172 6 c-2 -9 -8 -19 -14 -21 -8 -2
-10 13 -3 36 1 1 5 2 10 2 5 0 8 -8 7 -17z m228 9 c2 -4 1 -14 -5 -22 -5 -8
-9 -13 -10 -10 0 3 -2 13 -4 23 -3 17 10 24 19 9z m170 -4 c-5 -7 -2 -9 8 -6
8 4 15 1 15 -7 0 -14 -29 -15 -39 0 -8 11 -1 25 13 25 6 0 7 -5 3 -12z m230
-13 c-5 -11 -11 -12 -25 -4 -23 12 -25 21 -4 13 8 -4 15 -1 15 6 0 6 4 9 10 5
5 -3 7 -12 4 -20z m173 18 c-4 -3 0 -11 9 -17 13 -10 13 -12 -5 -12 -11 0 -17
4 -15 8 3 4 -1 8 -8 8 -9 0 -9 3 2 10 17 11 26 13 17 3z m-887 -54 c0 -5 4 -8
8 -5 5 3 9 0 9 -7 0 -7 -12 -12 -27 -13 -16 -1 -27 4 -27 12 0 7 4 11 9 8 4
-3 8 0 8 5 0 6 5 11 10 11 6 0 10 -5 10 -11z m408 -10 c11 -18 11 -20 0 -16
-7 2 -28 -2 -47 -9 l-34 -14 29 29 c36 35 36 36 52 10z m399 2 c10 -17 9 -18
-16 -17 -24 1 -27 3 -17 18 14 23 18 22 33 -1z m-608 -7 c4 3 8 0 8 -7 0 -7
-8 -13 -18 -13 -10 0 -16 2 -14 5 3 2 -3 10 -13 18 -15 13 -15 13 6 3 12 -6
26 -9 31 -6z m411 -9 c0 -6 -8 -11 -18 -12 -10 -1 -19 4 -19 11 0 6 9 12 19
12 10 0 18 -5 18 -11z m-690 -35 c0 -5 -4 -10 -10 -10 -5 0 -10 5 -10 10 0 6
5 10 10 10 6 0 10 -4 10 -10z m165 0 c3 -5 1 -10 -4 -10 -6 0 -11 5 -11 10 0
6 2 10 4 10 3 0 8 -4 11 -10z m235 0 c0 -5 -7 -10 -16 -10 -8 0 -12 5 -9 10 3
6 10 10 16 10 5 0 9 -4 9 -10z m165 0 c3 -5 1 -10 -4 -10 -6 0 -11 5 -11 10 0
6 2 10 4 10 3 0 8 -4 11 -10z m235 6 c0 -3 -4 -8 -10 -11 -5 -3 -10 -1 -10 4
0 6 5 11 10 11 6 0 10 -2 10 -4z m165 -6 c3 -5 1 -10 -4 -10 -6 0 -11 5 -11
10 0 6 2 10 4 10 3 0 8 -4 11 -10z m-195 -14 c0 -3 -4 -8 -10 -11 -5 -3 -10
-1 -10 4 0 6 5 11 10 11 6 0 10 -2 10 -4z m241 -13 c13 -17 13 -17 -6 -3 -11
8 -22 16 -24 17 -2 2 0 3 6 3 6 0 17 -8 24 -17z m-932 -22 l22 -19 -25 2 c-15
0 -27 8 -30 19 -5 22 6 22 33 -2z m411 -1 c0 -5 -6 -10 -14 -10 -8 0 -18 5
-21 10 -3 6 3 10 14 10 12 0 21 -4 21 -10z m204 -12 c-10 -13 -20 -25 -22 -28
-4 -5 -22 22 -22 34 0 4 6 6 13 3 8 -3 20 -1 28 4 23 14 23 11 3 -13z m196 7
c0 -9 -6 -12 -15 -9 -19 8 -19 24 0 24 8 0 15 -7 15 -15z m-600 -2 c0 -5 -5
-15 -10 -23 -9 -13 -11 -13 -20 0 -15 22 -12 30 10 30 11 0 20 -3 20 -7z m481
-47 c5 3 9 1 9 -4 0 -16 -32 -24 -44 -11 -8 9 -8 10 2 5 7 -5 12 -1 13 11 0
11 3 13 6 5 2 -6 9 -10 14 -6z m-406 -19 c-12 -6 -21 -5 -28 3 -9 10 -9 11 1
6 6 -4 12 -3 12 3 0 6 7 8 16 4 15 -5 15 -7 -1 -16z"/>
<path d="M201 1695 l1 -115 88 -50 c48 -27 89 -50 92 -50 6 0 4 217 -2 223
-19 19 -134 76 -143 70 -5 -3 -7 -2 -4 3 3 6 -3 15 -13 22 -18 11 -19 7 -19
-103z m79 -25 c0 -5 -5 -10 -11 -10 -5 0 -7 5 -4 10 3 6 8 10 11 10 2 0 4 -4
4 -10z m0 -38 c0 -5 -7 -9 -15 -9 -8 0 -12 4 -9 9 3 4 9 8 15 8 5 0 9 -4 9 -8z"/>
<path d="M360 732 c-14 -9 -28 -20 -31 -25 -3 -5 -9 -8 -13 -7 -13 2 -106 -53
-106 -63 0 -6 -3 -8 -6 -4 -5 5 -122 -58 -134 -72 -3 -4 -17 -12 -32 -18 -16
-7 -29 -21 -29 -30 -1 -10 -2 -129 -4 -266 l-2 -247 84 0 c47 0 94 5 105 11
15 8 19 8 14 0 -5 -8 16 -11 69 -11 53 0 74 3 69 11 -5 8 -1 8 14 0 27 -15 75
-15 66 0 -5 8 -1 8 14 0 26 -14 42 -14 42 -1 0 6 -6 10 -14 10 -8 0 -17 3 -19
8 -3 4 5 7 18 7 13 0 23 -2 23 -5 -2 -29 6 -30 197 -30 124 1 193 4 190 11 -8
12 -87 54 -98 51 -4 -1 -4 6 1 15 10 19 15 223 6 223 -3 0 -15 -5 -27 -11 -18
-10 -17 -7 5 14 26 25 28 30 27 120 0 76 -4 98 -17 110 -31 26 -158 97 -175
97 -9 0 -17 4 -17 9 0 10 -173 111 -187 110 -5 0 -19 -8 -33 -17z m94 -37 c-4
-8 -8 -15 -10 -15 -2 0 -4 7 -4 15 0 8 4 15 10 15 5 0 7 -7 4 -15z m-74 -17
c0 -6 -6 -5 -15 2 -8 7 -15 14 -15 16 0 2 7 1 15 -2 8 -4 15 -11 15 -16z m185
-38 c-3 -5 -11 -10 -16 -10 -6 0 -7 5 -4 10 3 6 11 10 16 10 6 0 7 -4 4 -10z
m-150 -20 c3 -5 1 -10 -4 -10 -6 0 -11 5 -11 10 0 6 2 10 4 10 3 0 8 -4 11
-10z m-200 -20 c3 -5 1 -10 -4 -10 -6 0 -11 5 -11 10 0 6 2 10 4 10 3 0 8 -4
11 -10z m235 2 c0 -5 10 -13 22 -19 19 -8 20 -10 4 -16 -11 -5 -15 -3 -10 5 5
7 2 9 -8 5 -11 -4 -18 1 -21 14 -3 10 -1 19 4 19 5 0 9 -4 9 -8z m-120 -29 c0
-11 -5 -11 -20 -3 -11 6 -20 12 -20 13 0 2 9 3 20 3 11 0 20 -6 20 -13z m-45
-21 c-3 -3 -11 0 -18 7 -9 10 -8 11 6 5 10 -3 15 -9 12 -12z m135 3 c-10 -12
-10 -15 1 -15 8 -1 3 -7 -11 -15 -32 -18 -41 -19 -34 -1 3 9 12 12 21 9 12 -5
14 -3 8 6 -4 8 -2 17 6 22 20 13 23 11 9 -6z m-305 -25 c3 -5 1 -10 -4 -10 -6
0 -11 5 -11 10 0 6 2 10 4 10 3 0 8 -4 11 -10z m220 0 c3 -5 2 -10 -4 -10 -5
0 -13 5 -16 10 -3 6 -2 10 4 10 5 0 13 -4 16 -10z m116 -23 c-8 -8 -14 -7 -23
2 -10 11 -10 13 0 7 6 -4 12 -2 12 4 0 6 5 8 11 4 8 -4 8 -9 0 -17z m149 13
c0 -5 -5 -10 -11 -10 -5 0 -7 5 -4 10 3 6 8 10 11 10 2 0 4 -4 4 -10z m170 6
c0 -2 -7 -7 -16 -10 -8 -3 -12 -2 -9 4 6 10 25 14 25 6z m-410 -38 c0 -21 4
-22 33 -6 19 10 20 9 10 -4 -7 -8 -10 -17 -7 -20 3 -3 -6 -5 -19 -4 -14 0 -23
4 -21 8 3 4 -4 13 -16 20 -25 16 -26 24 0 24 13 0 20 -7 20 -18z m360 7 c0 -8
-4 -15 -10 -15 -5 0 -7 7 -4 15 4 8 8 15 10 15 2 0 4 -7 4 -15z m-565 -15 c3
-5 1 -10 -4 -10 -6 0 -11 5 -11 10 0 6 2 10 4 10 3 0 8 -4 11 -10z m376 -3
c-6 -8 -8 -17 -4 -20 3 -4 1 -7 -5 -7 -20 0 -23 19 -5 29 24 14 27 13 14 -2z
m-278 -39 c-2 -5 -11 -1 -17 8 -7 9 -18 14 -24 10 -7 -4 -12 -1 -12 9 0 15 3
14 29 -1 17 -10 27 -22 24 -26z m431 28 c-3 -8 -12 -12 -20 -9 -21 8 -17 23 6
23 13 0 18 -5 14 -14z m-130 -5 c3 -5 -2 -15 -12 -22 -15 -12 -16 -12 -5 2 7
9 10 19 6 22 -3 4 -4 7 0 7 3 0 8 -4 11 -9z m-465 -5 c-2 -2 -15 -9 -29 -15
-24 -11 -24 -11 -6 3 16 13 49 24 35 12z m551 -6 c0 -5 -5 -10 -11 -10 -5 0
-7 5 -4 10 3 6 8 10 11 10 2 0 4 -4 4 -10z m-28 -29 c-6 -4 -9 -51 -9 -124 2
-109 1 -118 -18 -123 -11 -4 -57 -27 -103 -53 -57 -32 -81 -51 -77 -61 2 -8
-3 -5 -11 8 -9 12 -25 22 -35 22 -11 0 -19 5 -19 10 0 6 -4 10 -10 10 -5 0
-26 11 -46 25 -20 14 -41 22 -47 18 -5 -3 -7 -1 -3 5 7 12 -29 26 -44 17 -15
-9 -12 7 5 29 13 17 15 17 15 3 0 -9 11 -22 24 -29 13 -7 43 -24 67 -38 24
-13 47 -23 52 -22 4 1 7 -2 7 -7 0 -5 11 -12 25 -15 29 -7 88 21 78 37 -4 6
-1 7 6 3 7 -5 20 -2 29 6 9 8 34 23 54 33 31 16 35 22 25 34 -9 11 -9 13 0 8
16 -10 16 195 0 205 -9 6 -8 8 1 8 7 0 10 5 6 11 -4 7 1 7 16 -1 13 -7 18 -15
12 -19z m-382 -2 c0 -4 -7 -6 -15 -3 -8 4 -15 10 -15 15 0 4 7 6 15 3 8 -4 15
-10 15 -15z m-82 -25 c1 -1 -5 -4 -15 -6 -13 -4 -19 0 -19 13 0 14 3 16 16 6
8 -6 16 -12 18 -13z m342 11 c0 -2 -6 -5 -13 -8 -8 -3 -14 1 -14 8 0 7 6 11
14 8 7 -3 13 -6 13 -8z m-210 -16 c21 -17 22 -19 3 -10 -12 6 -29 8 -37 5 -12
-5 -15 -2 -10 10 8 21 14 20 44 -5z m255 1 c-3 -5 -12 -10 -18 -10 -7 0 -6 4
3 10 19 12 23 12 15 0z m149 2 c9 -15 -9 -31 -24 -22 -11 7 -12 10 -2 10 7 0
10 5 7 10 -3 6 -2 10 4 10 5 0 12 -4 15 -8z m-464 -16 c0 -3 -4 -8 -10 -11 -5
-3 -10 -1 -10 4 0 6 5 11 10 11 6 0 10 -2 10 -4z m158 -27 c2 6 8 11 14 11 7
0 6 -5 -1 -14 -10 -12 -7 -18 18 -31 17 -8 31 -18 31 -21 0 -2 -9 0 -19 6 -11
5 -27 7 -35 4 -12 -5 -15 -2 -9 12 5 13 3 16 -8 12 -9 -4 -21 2 -28 14 -11 18
-10 18 11 7 16 -9 23 -9 26 0z m-248 -71 c0 -6 -6 -5 -15 2 -8 7 -15 14 -15
16 0 2 7 1 15 -2 8 -4 15 -11 15 -16z m47 -20 c0 -13 -1 -17 -4 -10 -3 6 -12
12 -21 12 -15 0 -15 2 -2 10 22 14 26 12 27 -12z m78 13 c-3 -6 1 -14 10 -18
12 -7 11 -10 -5 -21 -12 -7 -20 -8 -20 -2 0 5 6 10 13 10 6 0 4 5 -6 11 -17
10 -15 29 4 29 6 0 8 -4 4 -9z m446 -15 c-14 -16 -54 -29 -45 -14 3 5 16 13
28 18 29 12 30 12 17 -4z m-571 -12 c0 -8 -5 -12 -10 -9 -6 4 -8 11 -5 16 9
14 15 11 15 -7z m410 -5 c18 -15 19 -18 5 -11 -11 5 -25 8 -31 5 -6 -2 -11 3
-11 12 0 20 7 19 37 -6z m-360 -28 c0 -5 -7 -11 -14 -14 -10 -4 -13 -1 -9 9 6
15 23 19 23 5z m230 -36 c0 -2 -7 -5 -15 -9 -9 -3 -15 0 -15 9 0 9 6 12 15 9
8 -4 15 -7 15 -9z m-40 -19 c0 -3 -4 -8 -10 -11 -5 -3 -10 -1 -10 4 0 6 5 11
10 11 6 0 10 -2 10 -4z m-170 -26 c-12 -7 -12 -11 1 -26 13 -16 12 -16 -18 -1
-17 9 -35 23 -39 29 -5 9 -2 8 10 -1 15 -12 19 -12 33 2 9 9 19 14 22 11 3 -3
-1 -9 -9 -14z m-121 1 c9 -6 10 -11 2 -15 -6 -4 -11 -2 -11 5 0 6 -8 9 -20 6
-11 -3 -18 -1 -14 4 7 11 25 11 43 0z m636 -9 c-3 -3 -11 0 -18 7 -9 10 -8 11
6 5 10 -3 15 -9 12 -12z m-105 -28 c0 -8 -6 -11 -15 -8 -8 4 -15 9 -15 13 0 4
7 8 15 8 8 0 15 -6 15 -13z m-325 -42 c-3 -3 -11 0 -18 7 -9 10 -8 11 6 5 10
-3 15 -9 12 -12z m436 -35 c-13 -13 -26 -3 -16 12 3 6 11 8 17 5 6 -4 6 -10
-1 -17z"/>
</g>
</svg>
