<?xml version="1.0" standalone="no"?>
<!DOCTYPE svg PUBLIC "-//W3C//DTD SVG 20010904//EN"
 "http://www.w3.org/TR/2001/REC-SVG-20010904/DTD/svg10.dtd">
<svg version="1.0" xmlns="http://www.w3.org/2000/svg"
 width="200.000000pt" height="200.000000pt" viewBox="0 0 200.000000 200.000000"
 preserveAspectRatio="xMidYMid meet">
<metadata>
Created by potrace 1.16, written by Peter Selinger 2001-2019
</metadata>
<g transform="translate(0.000000,200.000000) scale(0.100000,-0.100000)"
fill="#000000" stroke="none">
<path d="M1 1584 c0 -320 3 -413 12 -408 9 5 8 3 -1 -7 -16 -17 -16 -81 1 -98
9 -11 9 -13 0 -7 -10 5 -13 -10 -13 -64 0 -54 3 -69 13 -64 10 6 10 4 0 -7 -7
-7 -13 -29 -13 -49 0 -20 6 -42 13 -49 8 -9 8 -12 0 -7 -9 5 -12 -93 -11 -409
l0 -415 194 0 c145 1 194 4 194 13 0 9 2 9 8 1 9 -15 396 -19 387 -4 -3 6 -2
10 4 10 5 0 13 -4 16 -10 4 -6 80 -10 196 -10 117 1 187 5 184 10 -4 6 1 10 9
10 9 0 16 -4 16 -10 0 -6 27 -10 60 -10 41 0 60 4 60 13 0 8 2 9 8 1 11 -17
253 -18 264 -2 6 10 8 10 8 1 0 -10 46 -13 194 -13 l195 1 -1 264 c0 198 -3
263 -11 258 -8 -5 -8 -2 0 8 14 17 17 393 4 384 -4 -2 -8 2 -8 10 0 8 4 12 9
9 13 -9 9 130 -4 145 -10 11 -10 13 0 7 9 -5 12 4 12 34 0 23 -4 39 -8 36 -5
-3 -9 1 -9 9 0 8 4 12 8 9 4 -2 8 182 8 410 l-1 415 -194 0 c-117 0 -194 -4
-194 -9 0 -6 -8 -10 -17 -10 -15 0 -16 2 -3 10 10 6 -26 9 -108 9 -90 0 -120
-4 -116 -12 5 -8 2 -8 -7 1 -16 15 -145 17 -154 2 -3 -5 -11 -10 -16 -10 -6 0
-7 4 -4 10 4 6 -63 9 -184 9 -106 0 -193 -5 -196 -10 -4 -5 -11 -9 -16 -9 -6
0 -7 5 -4 10 4 7 -62 10 -189 10 -150 0 -196 -3 -196 -12 0 -10 -2 -10 -8 -1
-6 9 -59 12 -199 12 l-191 -1 -1 -414z m1803 377 c-2 -3 -12 3 -22 13 -16 17
-16 18 5 5 12 -7 20 -15 17 -18z m-1738 -9 c-4 -3 -14 2 -24 12 -16 18 -16 18
6 6 13 -6 21 -14 18 -18z m400 0 c-4 -3 -14 2 -24 12 -16 18 -16 18 6 6 13 -6
21 -14 18 -18z m149 18 c-3 -5 -12 -10 -18 -10 -7 0 -6 4 3 10 19 12 23 12 15
0z m390 -8 c-3 -3 -11 0 -18 7 -9 10 -8 11 6 5 10 -3 15 -9 12 -12z m400 0
c-3 -3 -11 0 -18 7 -9 10 -8 11 6 5 10 -3 15 -9 12 -12z m-540 -2 c3 -5 1 -10
-4 -10 -6 0 -11 5 -11 10 0 6 2 10 4 10 3 0 8 -4 11 -10z m1085 0 c0 -5 -5
-10 -11 -10 -5 0 -7 5 -4 10 3 6 8 10 11 10 2 0 4 -4 4 -10z m-1802 -29 c-7
-11 -16 -17 -20 -15 -5 3 -21 -4 -37 -15 -26 -18 -30 -19 -47 -5 -10 9 -14 13
-7 10 7 -4 13 3 16 16 4 20 4 20 6 -4 l1 -28 47 30 c55 35 57 36 41 11z m118
10 c-4 -5 0 -11 6 -13 8 -3 4 -10 -11 -17 -19 -11 -22 -11 -15 1 5 7 9 16 10
21 3 15 4 17 10 17 3 0 3 -4 0 -9z m811 -23 c-6 -4 -15 -2 -19 5 -11 17 1 28
16 14 10 -8 11 -14 3 -19z m667 7 c-4 -8 -10 -13 -15 -10 -4 3 -6 12 -3 20 4
8 10 13 15 10 4 -3 6 -12 3 -20z m-1204 -2 c0 -11 -5 -11 -20 -3 -11 6 -20 12
-20 13 0 2 9 3 20 3 11 0 20 -6 20 -13z m160 10 c0 -1 -9 -7 -19 -12 -14 -8
-20 -7 -24 3 -4 10 2 13 19 12 13 0 24 -2 24 -3z m243 -12 c-4 -16 -8 -17 -18
-8 -9 9 -10 14 -1 19 19 13 24 9 19 -11z m401 5 c-6 -16 -32 -17 -37 -2 -3 6
6 12 19 12 14 1 21 -3 18 -10z m132 6 c9 -5 8 -10 -1 -19 -10 -9 -14 -8 -18 8
-5 20 0 24 19 11z m400 0 c9 -5 8 -10 -1 -19 -10 -9 -14 -8 -18 8 -5 20 0 24
19 11z m-1061 -12 c3 -6 -1 -7 -9 -4 -18 7 -21 14 -7 14 6 0 13 -4 16 -10z
m395 6 c0 -2 -7 -7 -16 -10 -8 -3 -12 -2 -9 4 6 10 25 14 25 6z m400 0 c0 -2
-7 -7 -16 -10 -8 -3 -12 -2 -9 4 6 10 25 14 25 6z m-1242 -20 c-10 -7 -16 -15
-13 -17 2 -3 -5 -5 -15 -6 -29 -2 -24 11 8 24 37 15 40 15 20 -1z m1602 -1 c0
-2 -9 -9 -19 -15 -14 -7 -22 -7 -27 2 -4 6 -3 8 2 5 6 -3 16 -2 24 4 17 10 20
11 20 4z m-1480 -31 c0 -2 -8 0 -19 5 -10 6 -22 7 -26 3 -5 -4 -5 -1 -1 6 5 9
12 9 27 2 10 -6 19 -13 19 -16z m264 18 c2 -4 -4 -9 -15 -9 -10 -1 -19 2 -19
8 0 11 27 12 34 1z m126 -4 c0 -4 -4 -8 -9 -8 -6 0 -12 4 -15 8 -3 5 1 9 9 9
8 0 15 -4 15 -9z m277 -3 c4 -4 2 -5 -4 -1 -9 5 -13 0 -14 -16 -1 -17 -3 -18
-6 -5 -2 9 -9 15 -14 12 -5 -3 -6 1 -3 8 6 16 28 17 41 2z m123 0 c0 -2 -9 -3
-19 -2 -11 0 -18 5 -15 9 4 6 34 0 34 -7z m277 0 c4 -4 2 -5 -4 -1 -7 4 -13 3
-13 -2 0 -5 -6 -9 -14 -9 -8 0 -12 6 -9 13 5 13 28 13 40 -1z m118 5 c3 -5 2
-10 -4 -10 -5 0 -13 5 -16 10 -3 6 -2 10 4 10 5 0 13 -4 16 -10z m62 -12 c-3
-8 -6 -5 -6 6 -1 11 2 17 5 13 3 -3 4 -12 1 -19z m-1517 -14 c0 -2 -9 0 -20 6
-11 6 -20 13 -20 16 0 2 9 0 20 -6 11 -6 20 -13 20 -16z m1585 16 c3 -5 1 -10
-4 -10 -6 0 -11 5 -11 10 0 6 2 10 4 10 3 0 8 -4 11 -10z m-601 -29 c-2 -3
-12 3 -22 13 -16 17 -16 18 5 5 12 -7 20 -15 17 -18z m-794 4 c0 -1 -9 -5 -19
-8 -13 -3 -18 -1 -14 9 4 10 33 10 33 -1z m1195 -3 c-3 -3 -11 0 -18 7 -9 10
-8 11 6 5 10 -3 15 -9 12 -12z m-1448 -9 c0 -15 0 -15 -21 -7 -22 8 -20 20 2
20 10 0 19 -6 19 -13z m113 2 c-7 -9 -15 -13 -17 -11 -7 7 7 26 19 26 6 0 6
-6 -2 -15z m287 -2 c0 -15 0 -15 -21 -7 -22 8 -20 20 2 20 10 0 19 -6 19 -13z
m113 2 c-7 -9 -15 -13 -17 -11 -7 7 7 26 19 26 6 0 6 -6 -2 -15z m145 5 c3 -6
-1 -7 -9 -4 -18 7 -21 14 -7 14 6 0 13 -4 16 -10z m135 -5 c14 -16 10 -18 -14
-9 -9 3 -16 10 -16 15 0 14 16 11 30 -6z m133 2 c3 -8 -3 -13 -14 -13 -19 0
-24 8 -12 19 10 11 20 8 26 -6z m267 -2 c14 -16 10 -18 -14 -9 -9 3 -16 10
-16 15 0 14 16 11 30 -6z m130 6 c0 -5 -7 -12 -16 -15 -24 -9 -28 -7 -14 9 14
17 30 20 30 6z m270 -12 c0 -6 -4 -7 -10 -4 -5 3 -10 11 -10 16 0 6 5 7 10 4
6 -3 10 -11 10 -16z m130 12 c0 -5 -7 -12 -16 -15 -24 -9 -28 -7 -14 9 14 17
30 20 30 6z m52 -26 c9 4 15 0 15 -10 0 -20 -10 -19 -34 3 -10 9 -14 14 -7 9
6 -4 18 -5 26 -2z m-1860 -10 c0 -5 -5 -11 -10 -13 -5 -1 -9 4 -9 13 0 9 4 14
9 13 5 -2 10 -8 10 -13z m268 2 c0 -7 -9 -13 -21 -13 -19 0 -19 1 -3 13 10 7
19 13 21 13 2 0 3 -6 3 -13z m132 -2 c0 -5 -5 -11 -10 -13 -5 -1 -9 4 -9 13 0
9 4 14 9 13 5 -2 10 -8 10 -13z m268 0 c0 -6 -8 -11 -18 -11 -10 0 -19 5 -19
11 0 6 9 11 19 11 10 0 18 -5 18 -11z m138 6 c11 -7 11 -9 -1 -14 -9 -3 -18 1
-21 9 -6 16 2 18 22 5z m265 -7 c-4 -10 -10 -11 -24 -3 -24 13 -24 14 5 15 17
1 23 -2 19 -12z m157 9 c0 -1 -9 -7 -20 -13 -15 -8 -20 -8 -20 3 0 7 9 13 20
13 11 0 20 -1 20 -3z m247 -8 c0 -8 -4 -15 -8 -15 -11 0 -20 16 -12 24 11 11
20 7 20 -9z m153 -8 c0 -2 -9 -3 -20 -3 -11 0 -20 6 -20 13 0 11 5 11 20 3 11
-6 20 -12 20 -13z m120 8 c-7 -8 -17 -12 -23 -8 -6 4 -3 9 9 14 27 11 28 11
14 -6z m-1610 1 c0 -3 -4 -8 -10 -11 -5 -3 -10 -1 -10 4 0 6 5 11 10 11 6 0
10 -2 10 -4z m1200 -6 c0 -5 -2 -10 -4 -10 -3 0 -8 5 -11 10 -3 6 -1 10 4 10
6 0 11 -4 11 -10z m-1265 -30 c3 -5 2 -10 -4 -10 -5 0 -13 5 -16 10 -3 6 -2
10 4 10 5 0 13 -4 16 -10z m400 0 c3 -5 2 -10 -4 -10 -5 0 -13 5 -16 10 -3 6
-2 10 4 10 5 0 13 -4 16 -10z m400 -1 c11 -17 -1 -21 -15 -4 -8 9 -8 15 -2 15
6 0 14 -5 17 -11z m135 7 c0 -2 -7 -7 -16 -10 -8 -3 -12 -2 -9 4 6 10 25 14
25 6z m395 -6 c-3 -5 -11 -10 -16 -10 -6 0 -7 5 -4 10 3 6 11 10 16 10 6 0 7
-4 4 -10z m395 0 c0 -5 -5 -10 -11 -10 -5 0 -7 5 -4 10 3 6 8 10 11 10 2 0 4
-4 4 -10z m-1465 -10 c-3 -5 -11 -10 -16 -10 -6 0 -7 5 -4 10 3 6 11 10 16 10
6 0 7 -4 4 -10z m805 6 c0 -3 -4 -8 -10 -11 -5 -3 -10 -1 -10 4 0 6 5 11 10
11 6 0 10 -2 10 -4z m400 -6 c0 -5 -4 -10 -10 -10 -5 0 -10 5 -10 10 0 6 5 10
10 10 6 0 10 -4 10 -10z m203 -30 c3 -11 1 -20 -4 -20 -5 0 -9 9 -9 20 0 11 2
20 4 20 2 0 6 -9 9 -20z m-1609 -5 c-4 -8 -8 -15 -10 -15 -2 0 -4 7 -4 15 0 8
4 15 10 15 5 0 7 -7 4 -15z m136 0 c0 -8 -7 -15 -15 -15 -13 0 -14 3 -3 15 16
18 18 18 18 0z m270 6 c0 -6 -4 -13 -10 -16 -5 -3 -10 1 -10 9 0 9 5 16 10 16
6 0 10 -4 10 -9z m266 -19 c-4 -3 -14 2 -24 12 -16 18 -16 18 6 6 13 -6 21
-14 18 -18z m137 14 c4 -10 0 -14 -12 -13 -11 1 -17 7 -14 14 7 17 20 17 26
-1z m397 1 c0 -8 -6 -14 -14 -14 -8 0 -12 6 -9 14 3 7 9 13 14 13 5 0 9 -6 9
-13z m135 -8 c-10 -15 -25 -10 -19 6 4 8 10 12 15 9 5 -3 7 -10 4 -15z m405 6
c-7 -8 -18 -15 -24 -15 -6 0 -2 7 8 15 25 19 32 19 16 0z m-1875 -5 c3 -5 2
-10 -4 -10 -5 0 -13 5 -16 10 -3 6 -2 10 4 10 5 0 13 -4 16 -10z m1200 0 c3
-5 1 -10 -4 -10 -6 0 -11 5 -11 10 0 6 2 10 4 10 3 0 8 -4 11 -10z m475 -23
c0 -16 -6 -23 -21 -23 -18 0 -18 2 -5 12 9 6 16 16 16 23 0 6 2 11 5 11 3 0 5
-10 5 -23z m-1603 -11 c0 -8 -6 -12 -14 -9 -7 3 -10 9 -7 14 8 14 21 11 21 -5z
m127 1 c16 -12 16 -13 -3 -13 -11 0 -23 6 -25 13 -3 7 -2 13 2 13 5 0 16 -6
26 -13z m273 0 c0 -7 -9 -13 -19 -13 -18 0 -18 1 -2 13 10 7 18 13 19 13 1 0
2 -6 2 -13z m140 -2 c0 -6 -9 -11 -19 -11 -10 0 -18 5 -18 11 0 6 8 11 18 11
10 0 19 -5 19 -11z m260 1 c0 -8 -6 -12 -15 -9 -11 5 -11 7 0 14 7 5 13 9 14
9 0 0 1 -6 1 -14z m140 -1 c0 -6 -9 -11 -19 -11 -10 0 -18 5 -18 11 0 6 8 11
18 11 10 0 19 -5 19 -11z m263 0 c0 -6 -8 -11 -18 -11 -10 0 -19 5 -19 11 0 6
9 11 19 11 10 0 18 -5 18 -11z m130 0 c0 -2 -6 -5 -13 -8 -8 -3 -14 1 -14 8 0
7 6 11 14 8 7 -3 13 -6 13 -8z m400 0 c0 -2 -6 -5 -13 -8 -8 -3 -14 1 -14 8 0
7 6 11 14 8 7 -3 13 -6 13 -8z m-1805 -35 c-3 -5 -11 -10 -16 -10 -6 0 -7 5
-4 10 3 6 11 10 16 10 6 0 7 -4 4 -10z m122 -12 c-3 -8 -6 -5 -6 6 -1 11 2 17
5 13 3 -3 4 -12 1 -19z m273 12 c0 -5 -5 -10 -11 -10 -5 0 -7 5 -4 10 3 6 8
10 11 10 2 0 4 -4 4 -10z m130 -5 c7 -9 8 -15 2 -15 -5 0 -12 7 -16 15 -3 8
-4 15 -2 15 2 0 9 -7 16 -15z m280 11 c0 -3 -4 -8 -10 -11 -5 -3 -10 -1 -10 4
0 6 5 11 10 11 6 0 10 -2 10 -4z m126 -23 c-10 -10 -19 5 -10 18 6 11 8 11 12
0 2 -7 1 -15 -2 -18z m131 5 c-3 -8 -6 -5 -6 6 -1 11 2 17 5 13 3 -3 4 -12 1
-19z m273 1 c0 -14 -17 -10 -23 5 -4 10 -1 13 9 9 7 -3 14 -9 14 -14z m404 6
c-4 -8 -10 -15 -15 -15 -4 0 -6 7 -3 15 4 8 10 15 15 15 4 0 6 -7 3 -15z m131
5 c3 -5 2 -10 -4 -10 -5 0 -13 5 -16 10 -3 6 -2 10 4 10 5 0 13 -4 16 -10z
m-1797 -49 c-7 -11 -16 -17 -22 -14 -5 3 -1 12 9 20 25 18 27 17 13 -6z m262
9 c0 -5 -5 -10 -11 -10 -5 0 -7 5 -4 10 3 6 8 10 11 10 2 0 4 -4 4 -10z m857
-12 c-3 -8 -6 -5 -6 6 -1 11 2 17 5 13 3 -3 4 -12 1 -19z m483 8 c0 -7 -9 -16
-21 -19 -21 -6 -21 -5 -3 13 23 23 24 23 24 6z m-1205 -6 c-3 -5 -11 -10 -16
-10 -6 0 -7 5 -4 10 3 6 11 10 16 10 6 0 7 -4 4 -10z m118 -15 c-7 -21 -13
-19 -13 6 0 11 4 18 10 14 5 -3 7 -12 3 -20z m282 15 c-3 -5 -12 -10 -18 -10
-7 0 -6 4 3 10 19 12 23 12 15 0z m405 5 c0 -2 -10 -9 -22 -15 -22 -11 -22
-10 -4 4 21 17 26 19 26 11z m525 -5 c3 -5 2 -10 -4 -10 -5 0 -13 5 -16 10 -3
6 -2 10 4 10 5 0 13 -4 16 -10z m-1803 -35 c0 -5 -5 -11 -10 -13 -5 -1 -9 4
-9 13 0 9 4 14 9 13 5 -2 10 -8 10 -13z m133 5 c3 -5 1 -10 -4 -10 -6 0 -11 5
-11 10 0 6 2 10 4 10 3 0 8 -4 11 -10z m135 -5 c0 -9 -6 -12 -16 -8 -13 5 -13
7 -2 14 17 11 18 11 18 -6z m134 -6 c-8 -14 -21 -11 -21 5 0 8 6 12 14 9 7 -3
10 -9 7 -14z m131 11 c3 -5 1 -10 -4 -10 -6 0 -11 5 -11 10 0 6 2 10 4 10 3 0
8 -4 11 -10z m135 -5 c0 -6 -8 -11 -18 -11 -10 0 -19 5 -19 11 0 6 9 11 19 11
10 0 18 -5 18 -11z m160 -11 c0 -3 -4 -2 -10 1 -5 3 -19 1 -30 -5 -19 -10 -20
-10 -8 9 9 15 16 17 30 10 10 -5 18 -12 18 -15z m246 18 c-3 -3 -1 -10 4 -17
7 -8 5 -12 -5 -12 -8 0 -15 5 -15 10 0 5 -6 7 -13 4 -8 -3 -14 0 -14 6 0 7 11
13 24 13 14 1 22 -1 19 -4z m137 -9 c-22 -17 -30 -16 -30 1 0 8 10 13 24 12
21 -1 22 -2 6 -13z m264 2 c0 -8 -4 -15 -8 -15 -11 0 -20 16 -12 24 11 11 20
7 20 -9z m159 -18 c6 -8 3 -8 -9 1 -9 8 -21 11 -27 7 -5 -3 -10 1 -10 10 0 12
4 14 19 5 11 -5 23 -16 27 -23z m104 23 c0 -5 -5 -10 -11 -10 -5 0 -7 5 -4 10
3 6 8 10 11 10 2 0 4 -4 4 -10z m137 -5 c0 -8 -4 -15 -8 -15 -11 0 -20 16 -12
24 11 11 20 7 20 -9z m-1790 -28 c0 -7 -9 -13 -19 -13 -23 0 -24 13 0 19 9 3
17 5 18 6 0 0 1 -5 1 -12z m393 -2 c-14 -17 -30 -20 -30 -6 0 5 8 12 18 14 9
3 19 5 21 6 2 0 -2 -6 -9 -14z m120 0 c7 -8 8 -15 2 -15 -5 0 -15 7 -22 15 -7
8 -8 15 -2 15 5 0 15 -7 22 -15z m272 -7 c-6 -6 -15 -8 -19 -4 -4 4 -1 11 7
16 8 5 17 7 19 4 3 -2 -1 -10 -7 -16z m128 12 c8 -5 11 -12 7 -16 -4 -4 -15 0
-24 9 -18 18 -8 23 17 7z m272 -16 c-7 -12 -11 -13 -17 -4 -4 7 -2 16 6 21 18
11 23 4 11 -17z m138 5 c0 -4 -8 -7 -18 -6 -10 0 -19 6 -19 13 0 6 9 9 19 6
10 -2 18 -8 18 -13z m400 2 c0 -4 -8 -7 -18 -7 -10 0 -19 5 -19 12 0 6 9 9 19
6 10 -2 18 -7 18 -11z m-1605 -1 c3 -5 2 -10 -4 -10 -5 0 -13 5 -16 10 -3 6
-2 10 4 10 5 0 13 -4 16 -10z m1470 0 c-3 -5 -11 -10 -16 -10 -6 0 -7 5 -4 10
3 6 11 10 16 10 6 0 7 -4 4 -10z m-1335 -4 c0 -2 -7 -7 -16 -10 -8 -3 -12 -2
-9 4 6 10 25 14 25 6z m400 0 c0 -2 -7 -7 -16 -10 -8 -3 -12 -2 -9 4 6 10 25
14 25 6z m800 -6 c0 -5 -4 -10 -10 -10 -5 0 -10 5 -10 10 0 6 5 10 10 10 6 0
10 -4 10 -10z m-700 -5 c0 -2 -13 -11 -30 -20 -38 -19 -40 -11 -2 9 31 17 32
18 32 11z m233 -32 c-7 -3 -23 5 -35 17 l-23 22 35 -17 c19 -10 30 -20 23 -22z
m-933 23 c0 -2 -7 -7 -16 -10 -8 -3 -12 -2 -9 4 6 10 25 14 25 6z m147 -13
c-14 -14 -19 -15 -29 -4 -11 11 -10 13 4 8 10 -3 20 -2 23 3 4 6 9 10 13 10 3
0 -1 -8 -11 -17z m127 2 c-4 -8 -10 -12 -15 -9 -5 3 -9 0 -9 -7 0 -7 -3 -9 -7
-5 -5 4 1 14 11 22 25 18 27 18 20 -1z m137 -2 c13 -17 13 -17 -6 -3 -11 8
-22 16 -24 17 -2 2 0 3 6 3 6 0 17 -8 24 -17z m1193 9 c3 -5 -1 -9 -9 -9 -8 0
-15 4 -15 9 0 4 4 8 9 8 6 0 12 -4 15 -8z m138 -6 c3 3 8 -2 11 -11 6 -14 4
-14 -23 0 -17 9 -30 18 -30 21 0 2 8 0 19 -5 10 -6 21 -8 23 -5z m-1885 -21
c-6 -7 -14 -9 -15 -4 -2 5 -9 7 -15 3 -7 -3 -3 1 7 10 22 18 41 11 23 -9z
m687 13 c-7 -11 -34 -10 -34 1 0 6 9 9 19 8 11 0 17 -5 15 -9z m526 2 c0 -5
-7 -10 -16 -10 -8 0 -12 5 -9 10 3 6 10 10 16 10 5 0 9 -4 9 -10z m274 -2 c-3
-4 -11 -5 -19 -1 -21 7 -19 12 4 10 11 0 18 -5 15 -9z m126 2 c0 -5 -7 -10
-16 -10 -8 0 -12 5 -9 10 3 6 10 10 16 10 5 0 9 -4 9 -10z m-737 -29 c3 -15
-1 -18 -18 -17 -22 1 -22 2 -7 18 10 9 18 17 18 17 1 1 4 -7 7 -18z m544 2 c5
3 10 1 10 -6 0 -7 -10 -13 -22 -13 -18 -1 -21 3 -17 18 3 14 7 16 12 8 4 -7
12 -10 17 -7z m-1347 -10 c0 -11 -5 -11 -20 -3 -11 6 -20 12 -20 13 0 2 9 3
20 3 11 0 20 -6 20 -13z m138 0 c-14 -17 -25 -16 -25 1 0 8 8 14 18 13 14 -1
15 -4 7 -14z m265 3 c4 -10 -2 -13 -19 -12 -22 1 -23 2 -7 14 21 15 20 15 26
-2z m157 -9 c0 -1 -11 -3 -24 -3 -17 -1 -23 2 -19 12 4 10 10 11 24 3 10 -5
19 -11 19 -12z m377 -2 c-15 -16 -28 -10 -21 10 3 7 12 11 19 8 11 -4 12 -8 2
-18z m263 12 c0 -7 -9 -13 -21 -13 -19 0 -19 1 -3 13 10 7 19 13 21 13 2 0 3
-6 3 -13z m265 -5 c-3 -3 -11 0 -18 7 -9 10 -8 11 6 5 10 -3 15 -9 12 -12z
m140 1 c-2 -10 -4 -20 -4 -23 -1 -3 -5 2 -10 10 -10 15 -6 30 9 30 4 0 7 -8 5
-17z m143 2 c-2 -1 -13 -8 -26 -14 -21 -11 -22 -11 -11 7 7 11 19 18 26 15 8
-3 13 -7 11 -8z m-1818 -30 c0 -2 -10 -10 -22 -16 -21 -11 -22 -11 -9 4 13 16
31 23 31 12z m275 -5 c3 -5 1 -10 -4 -10 -6 0 -11 5 -11 10 0 6 2 10 4 10 3 0
8 -4 11 -10z m125 6 c0 -3 -4 -8 -10 -11 -5 -3 -10 -1 -10 4 0 6 5 11 10 11 6
0 10 -2 10 -4z m400 0 c0 -3 -4 -8 -10 -11 -5 -3 -10 -1 -10 4 0 6 5 11 10 11
6 0 10 -2 10 -4z m400 0 c0 -3 -4 -8 -10 -11 -5 -3 -10 -1 -10 4 0 6 5 11 10
11 6 0 10 -2 10 -4z m280 -6 c0 -5 -2 -10 -4 -10 -3 0 -8 5 -11 10 -3 6 -1 10
4 10 6 0 11 -4 11 -10z m411 -7 c13 -15 12 -15 -8 -4 -24 12 -29 21 -14 21 5
0 15 -7 22 -17z m-1351 3 c0 -2 -7 -7 -16 -10 -8 -3 -12 -2 -9 4 6 10 25 14
25 6z m405 -6 c3 -6 -1 -7 -9 -4 -18 7 -21 14 -7 14 6 0 13 -4 16 -10z m399 2
c2 -4 -4 -8 -14 -8 -10 0 -16 4 -14 8 3 4 9 8 14 8 5 0 11 -4 14 -8z m-1014
-32 c0 -11 -2 -20 -4 -20 -2 0 -6 9 -9 20 -3 11 -1 20 4 20 5 0 9 -9 9 -20z
m413 3 c-7 -17 -20 -17 -26 1 -4 10 0 14 12 13 11 -1 17 -7 14 -14z m395 -1
c6 -18 -15 -14 -22 4 -4 10 -1 14 6 12 6 -2 14 -10 16 -16z m402 -2 c0 -5 -5
-10 -11 -10 -5 0 -7 5 -4 10 3 6 8 10 11 10 2 0 4 -4 4 -10z m260 0 c0 -5 -2
-10 -4 -10 -3 0 -8 5 -11 10 -3 6 -1 10 4 10 6 0 11 -4 11 -10z m-133 -37 c-3
-10 -5 -4 -5 12 0 17 2 24 5 18 2 -7 2 -21 0 -30z m-1256 1 c8 4 5 0 -5 -8
-27 -22 -35 -20 -29 5 4 14 8 17 13 9 4 -7 14 -9 21 -6z m-394 -9 c0 -6 -9
-11 -19 -11 -10 0 -18 5 -18 11 0 6 8 11 18 11 10 0 19 -5 19 -11z m260 0 c0
-10 -5 -11 -19 -4 -10 5 -18 11 -18 12 0 2 8 3 18 4 10 1 19 -5 19 -12z m320
-7 c-3 -8 -6 -5 -6 6 -1 11 2 17 5 13 3 -3 4 -12 1 -19z m80 8 c0 -8 -6 -12
-14 -9 -7 3 -10 9 -7 14 8 14 21 11 21 -5z m127 -3 c-10 -7 -21 -13 -26 -13
-4 0 -5 6 -2 13 2 7 14 13 25 13 19 0 19 -1 3 -13z m276 0 c0 -11 -5 -11 -20
-3 -11 6 -20 12 -20 13 0 2 9 3 20 3 11 0 20 -6 20 -13z m140 10 c0 -1 -9 -7
-20 -13 -15 -8 -20 -8 -20 3 0 7 9 13 20 13 11 0 20 -1 20 -3z m266 -20 c-2
-2 -11 0 -20 3 -14 5 -15 9 -5 15 12 7 34 -10 25 -18z m118 18 c6 -10 -24 -25
-32 -16 -3 3 0 5 7 5 7 0 9 5 6 10 -3 6 -2 10 4 10 5 0 12 -4 15 -9z m282 -18
c-2 -2 -11 0 -20 3 -14 5 -15 9 -5 15 12 7 34 -10 25 -18z m-346 -29 c0 -8 -5
-14 -12 -14 -6 0 -8 3 -5 7 4 3 -1 12 -11 19 -15 12 -15 12 6 7 12 -3 22 -12
22 -19z m-1335 6 c-3 -5 -11 -10 -16 -10 -6 0 -7 5 -4 10 3 6 11 10 16 10 6 0
7 -4 4 -10z m129 -5 c3 -8 1 -15 -3 -15 -5 0 -11 7 -15 15 -3 8 -1 15 3 15 5
0 11 -7 15 -15z m136 5 c0 -5 -2 -10 -4 -10 -3 0 -8 5 -11 10 -3 6 -1 10 4 10
6 0 11 -4 11 -10z m140 6 c0 -3 -4 -8 -10 -11 -5 -3 -10 -1 -10 4 0 6 5 11 10
11 6 0 10 -2 10 -4z m130 -11 c0 -8 -4 -15 -9 -15 -5 0 -11 7 -15 15 -3 9 0
15 9 15 8 0 15 -7 15 -15z m135 5 c3 -5 2 -10 -4 -10 -5 0 -13 5 -16 10 -3 6
-2 10 4 10 5 0 13 -4 16 -10z m135 6 c0 -3 -4 -8 -10 -11 -5 -3 -10 -1 -10 4
0 6 5 11 10 11 6 0 10 -2 10 -4z m130 -11 c0 -8 -4 -15 -10 -15 -5 0 -10 7
-10 15 0 8 5 15 10 15 6 0 10 -7 10 -15z m135 5 c3 -5 1 -10 -4 -10 -6 0 -11
5 -11 10 0 6 2 10 4 10 3 0 8 -4 11 -10z m130 0 c-3 -5 -11 -10 -16 -10 -6 0
-7 5 -4 10 3 6 11 10 16 10 6 0 7 -4 4 -10z m-1265 -34 c0 -2 -7 -7 -16 -10
-8 -3 -12 -2 -9 4 6 10 25 14 25 6z m140 -11 c-7 -9 -15 -13 -19 -10 -3 3 1
10 9 15 21 14 24 12 10 -5z m520 0 c11 -13 10 -14 -4 -9 -9 3 -16 10 -16 15 0
13 6 11 20 -6z m395 5 c3 -5 1 -10 -4 -10 -6 0 -11 5 -11 10 0 6 2 10 4 10 3
0 8 -4 11 -10z m400 0 c3 -5 2 -10 -4 -10 -5 0 -13 5 -16 10 -3 6 -2 10 4 10
5 0 13 -4 16 -10z m-1608 -22 c-3 -8 -6 -5 -6 6 -1 11 2 17 5 13 3 -3 4 -12 1
-19z m1026 -18 c7 0 6 -4 -3 -10 -24 -15 -27 -12 -21 23 4 26 6 28 9 10 2 -13
9 -23 15 -23z m-943 -5 c0 -9 -6 -12 -16 -8 -13 5 -13 7 -2 14 17 11 18 11 18
-6z m134 6 c3 -5 -1 -11 -9 -14 -9 -4 -12 -1 -8 9 6 16 10 17 17 5z m156 -17
c0 -2 -8 0 -19 5 -10 6 -22 7 -26 3 -5 -4 -5 -1 -1 6 5 9 12 9 27 2 10 -6 19
-13 19 -16z m120 3 c12 -17 12 -17 -14 -6 -18 9 -23 15 -14 20 7 4 13 7 13 6
0 -1 7 -10 15 -20z m150 0 c0 -1 -11 -3 -24 -3 -17 -1 -23 2 -19 12 4 10 10
11 24 3 10 -5 19 -11 19 -12z m130 -3 c0 -2 -8 0 -19 5 -10 6 -22 7 -26 3 -5
-4 -5 -1 -1 6 5 9 12 9 27 2 10 -6 19 -13 19 -16z m116 -1 c-2 -2 -11 0 -20 3
-14 5 -15 9 -5 15 12 7 34 -10 25 -18z m275 10 c13 -16 12 -17 -3 -4 -10 7
-18 15 -18 17 0 8 8 3 21 -13z m119 4 c0 -7 -9 -13 -21 -13 -19 0 -19 1 -3 13
10 7 19 13 21 13 2 0 3 -6 3 -13z m138 -8 c-20 -13 -28 -11 -22 5 3 8 12 12
21 9 12 -5 12 -7 1 -14z m156 -8 c-2 -3 -9 0 -16 7 -8 8 -17 8 -32 1 -20 -10
-20 -9 -2 5 14 12 22 12 37 3 10 -6 16 -13 13 -16z m105 -5 c-1 -25 -3 -26 -6
-8 -3 15 -10 22 -18 18 -9 -3 -12 0 -9 8 10 26 34 13 33 -18z m139 13 c-20
-13 -28 -11 -22 5 3 8 12 12 21 9 12 -5 12 -7 1 -14z m-1808 -24 c14 -16 10
-18 -14 -9 -9 3 -16 10 -16 15 0 14 16 11 30 -6z m280 8 c0 -5 -12 -14 -28
-20 l-27 -13 24 20 c25 22 31 24 31 13z m126 -20 c-7 -7 -26 7 -26 19 0 6 6 6
15 -2 9 -7 13 -15 11 -17z m271 14 c-1 -5 -5 -7 -8 -5 -3 2 -14 -4 -25 -12
-17 -14 -18 -13 -7 1 7 9 11 18 8 20 -2 3 5 5 16 5 10 0 18 -4 16 -9z m138 4
c-3 -2 1 -11 8 -19 10 -13 9 -14 -3 -7 -8 6 -19 10 -24 10 -5 0 -11 5 -13 10
-2 6 6 11 16 11 11 0 18 -2 16 -5z m264 -7 c-14 -17 -25 -18 -32 -1 -3 7 5 13
20 13 19 2 22 -1 12 -12z m129 -1 c-6 -7 -14 -10 -19 -7 -15 9 -10 20 10 20
15 0 17 -3 9 -13z m272 2 c-7 -9 -15 -13 -17 -11 -7 7 7 26 19 26 6 0 6 -6 -2
-15z m130 -6 c0 -4 -7 -6 -15 -3 -8 4 -15 10 -15 15 0 4 7 6 15 3 8 -4 15 -10
15 -15z m283 8 c3 -8 -3 -13 -14 -13 -19 0 -24 8 -12 19 10 11 20 8 26 -6z
m-1746 -10 c0 -7 -9 -13 -19 -13 -18 0 -18 1 -2 13 10 7 18 13 19 13 1 0 2 -6
2 -13z m1203 -10 c0 -2 -8 -3 -18 -3 -10 0 -19 6 -19 13 0 8 6 9 19 2 10 -5
18 -11 18 -12z m400 -3 c0 -2 -9 0 -20 6 -11 6 -20 13 -20 16 0 2 9 0 20 -6
11 -6 20 -13 20 -16z m-1205 6 c3 -6 -1 -7 -9 -4 -18 7 -21 14 -7 14 6 0 13
-4 16 -10z m399 2 c2 -4 -4 -8 -14 -8 -10 0 -16 4 -14 8 3 4 9 8 14 8 5 0 11
-4 14 -8z m-197 -16 c0 -8 -6 -12 -15 -9 -11 5 -11 7 0 14 7 5 13 9 14 9 0 0
1 -6 1 -14z m-267 -18 c0 -5 -5 -6 -10 -3 -6 3 -22 -2 -38 -13 -47 -32 -51
-33 -45 -12 3 11 9 17 14 14 12 -7 51 15 44 26 -3 4 4 6 15 3 11 -3 20 -10 20
-15z m140 17 c0 -2 -13 -11 -30 -20 -25 -13 -29 -13 -24 -1 3 8 15 17 27 19
12 2 23 5 25 6 1 0 2 -1 2 -4z m400 0 c0 -2 -9 -9 -20 -15 -12 -6 -20 -7 -20
-1 0 5 8 12 18 14 9 3 18 5 20 6 1 0 2 -1 2 -4z m124 -3 c2 -4 -4 -8 -14 -8
-10 0 -16 4 -14 8 3 4 9 8 14 8 5 0 11 -4 14 -8z m140 -5 c3 3 6 1 6 -5 0 -16
-12 -15 -36 4 -18 15 -18 15 2 5 12 -6 24 -7 28 -4z m136 8 c0 -2 -13 -11 -30
-20 -25 -13 -29 -13 -24 -1 3 8 15 17 27 19 12 2 23 5 25 6 1 0 2 -1 2 -4z
m120 1 c0 -2 -7 -7 -16 -10 -8 -3 -12 -2 -9 4 6 10 25 14 25 6z m141 -10 c5 3
9 1 9 -5 0 -5 -9 -9 -19 -8 -12 1 -17 6 -13 16 4 10 7 11 10 3 2 -7 8 -10 13
-6z m136 7 c-4 -3 -1 -13 5 -22 10 -13 10 -14 -1 -4 -7 6 -20 9 -27 6 -8 -3
-14 0 -14 5 0 6 8 13 18 15 9 3 19 5 21 6 2 0 1 -2 -2 -6z m-1737 -12 c0 -6
-9 -9 -19 -8 -11 0 -17 5 -15 9 7 11 34 10 34 -1z m124 1 c2 -4 -4 -9 -15 -9
-11 -1 -17 2 -14 8 7 11 22 12 29 1z m676 -2 c0 -5 -7 -7 -15 -4 -8 4 -15 8
-15 10 0 2 7 4 15 4 8 0 15 -4 15 -10z m-610 -30 c0 -26 -2 -29 -14 -18 -10
10 -11 17 -2 30 15 24 16 23 16 -12z m405 -18 c-1 -1 -10 0 -19 4 -13 5 -14 9
-4 21 10 13 13 13 19 -4 3 -10 5 -19 4 -21z m145 18 c0 -4 -7 -10 -15 -14 -10
-4 -15 1 -15 14 0 13 5 18 15 14 8 -4 15 -10 15 -14z m248 -10 c-2 -6 -8 -6
-18 0 -13 9 -13 11 0 20 15 10 25 0 18 -20z m152 10 c0 -4 -7 -10 -15 -14 -10
-4 -15 1 -15 14 0 13 5 18 15 14 8 -4 15 -10 15 -14z m261 11 c-7 -5 -10 -14
-7 -20 9 -14 -4 -14 -24 -1 -13 9 -13 11 0 20 8 5 22 10 30 10 12 0 13 -2 1
-9z m139 -11 c0 -4 -7 -10 -15 -14 -10 -4 -15 1 -15 14 0 13 5 18 15 14 8 -4
15 -10 15 -14z m255 4 c-9 -9 -19 -13 -23 -10 -3 4 0 11 8 16 24 15 33 11 15
-6z m-1865 -4 c0 -5 -4 -10 -10 -10 -5 0 -10 5 -10 10 0 6 5 10 10 10 6 0 10
-4 10 -10z m118 -15 c-3 -3 -9 2 -12 12 -6 14 -5 15 5 6 7 -7 10 -15 7 -18z
m412 11 c-7 -7 -13 -7 -20 0 -6 6 -3 10 10 10 13 0 16 -4 10 -10z m400 0 c-7
-7 -13 -7 -20 0 -6 6 -3 10 10 10 13 0 16 -4 10 -10z m400 0 c-7 -7 -13 -7
-20 0 -6 6 -3 10 10 10 13 0 16 -4 10 -10z m-1140 -31 c-7 -8 -18 -15 -24 -15
-6 0 -2 7 8 15 25 19 32 19 16 0z m395 -6 c-10 -15 -25 -10 -19 6 4 8 10 12
15 9 5 -3 7 -10 4 -15z m-248 -3 c0 -8 -6 -12 -15 -9 -11 5 -11 7 0 14 7 5 13
9 14 9 0 0 1 -6 1 -14z m533 4 c0 -5 -2 -10 -4 -10 -3 0 -8 5 -11 10 -3 6 -1
10 4 10 6 0 11 -4 11 -10z m115 0 c-3 -5 -11 -10 -16 -10 -6 0 -7 5 -4 10 3 6
11 10 16 10 6 0 7 -4 4 -10z m150 0 c-3 -5 -12 -10 -18 -10 -7 0 -6 4 3 10 19
12 23 12 15 0z m140 0 c3 -5 2 -10 -4 -10 -5 0 -13 5 -16 10 -3 6 -2 10 4 10
5 0 13 -4 16 -10z m115 6 c0 -3 -4 -8 -10 -11 -5 -3 -10 -1 -10 4 0 6 5 11 10
11 6 0 10 -2 10 -4z m140 -10 c-7 -7 -13 -7 -20 0 -6 6 -3 10 10 10 13 0 16
-4 10 -10z m-1403 -31 c0 -8 -4 -15 -8 -15 -4 0 -9 7 -13 15 -3 9 0 15 8 15 7
0 13 -7 13 -15z m133 0 c0 -8 -4 -15 -10 -15 -5 0 -7 7 -4 15 4 8 8 15 10 15
2 0 4 -7 4 -15z m272 8 c-6 -2 -10 -9 -6 -14 3 -5 -2 -9 -10 -9 -10 0 -13 6
-10 15 4 8 14 15 23 14 10 0 11 -2 3 -6z m398 -8 c0 -8 -4 -15 -10 -15 -5 0
-10 7 -10 15 0 8 5 15 10 15 6 0 10 -7 10 -15z m135 6 c3 -5 1 -12 -5 -16 -5
-3 -10 1 -10 9 0 18 6 21 15 7z m265 -6 c0 -8 -4 -15 -8 -15 -5 0 -9 7 -9 15
0 8 4 15 9 15 4 0 8 -7 8 -15z m404 0 c-4 -8 -9 -15 -13 -15 -4 0 -8 7 -8 15
0 8 6 15 13 15 8 0 11 -6 8 -15z m-1749 -5 c3 -6 -1 -7 -9 -4 -18 7 -21 14 -7
14 6 0 13 -4 16 -10z m685 6 c0 -3 -4 -8 -10 -11 -5 -3 -10 -1 -10 4 0 6 5 11
10 11 6 0 10 -2 10 -4z m520 -6 c0 -5 -2 -10 -4 -10 -3 0 -8 5 -11 10 -3 6 -1
10 4 10 6 0 11 -4 11 -10z m405 0 c3 -5 1 -10 -4 -10 -6 0 -11 5 -11 10 0 6 2
10 4 10 3 0 8 -4 11 -10z m275 6 c0 -3 -4 -8 -10 -11 -5 -3 -10 -1 -10 4 0 6
5 11 10 11 6 0 10 -2 10 -4z m-1805 -37 c-4 -6 1 -17 11 -25 17 -14 17 -14 -6
-2 -14 7 -29 11 -35 10 -5 -1 -1 5 9 13 23 18 30 19 21 4z m135 -9 c0 -4 -7
-10 -15 -14 -10 -4 -15 1 -15 14 0 13 5 18 15 14 8 -4 15 -10 15 -14z m272 13
c-10 -4 -10 -8 -1 -19 8 -9 8 -14 1 -14 -15 0 -25 18 -17 30 3 6 12 10 18 9 8
0 8 -2 -1 -6z m128 -14 c0 -5 -7 -9 -15 -9 -8 0 -15 7 -15 15 0 9 6 12 15 9 8
-4 15 -10 15 -15z m276 1 c0 -23 -9 -26 -25 -6 -9 11 -9 15 1 19 22 9 24 8 24
-13z m108 14 c20 -8 21 -24 2 -24 -8 0 -16 7 -20 15 -6 17 -4 18 18 9z m291
-32 c-1 -1 -10 0 -19 4 -13 5 -14 9 -4 21 10 13 13 13 19 -4 3 -10 5 -19 4
-21z m109 32 c20 -8 21 -20 2 -27 -8 -3 -16 2 -19 14 -6 21 -5 22 17 13z m292
-14 c0 -22 -4 -24 -26 -10 -13 9 -13 11 0 20 22 14 26 12 26 -10z m124 0 c0
-5 -2 -10 -4 -10 -2 0 -12 -3 -22 -7 -16 -6 -17 -5 -4 10 17 19 30 22 30 7z
m-1819 -43 c-10 -9 -11 -8 -5 6 3 10 9 15 12 12 3 -3 0 -11 -7 -18z m1749 3
c0 -11 -4 -20 -9 -20 -7 0 -8 17 -2 38 4 10 11 -2 11 -18z m-1603 -5 c0 -8 -4
-15 -9 -15 -4 0 -8 7 -8 15 0 8 4 15 8 15 5 0 9 -7 9 -15z m138 6 c3 -5 1 -12
-4 -15 -5 -3 -11 1 -15 9 -6 16 9 21 19 6z m125 -1 c0 -5 -5 -10 -11 -10 -5 0
-7 5 -4 10 3 6 8 10 11 10 2 0 4 -4 4 -10z m137 -5 c0 -8 -6 -15 -13 -15 -8 0
-11 6 -8 15 4 8 9 15 13 15 4 0 8 -7 8 -15z m263 5 c0 -5 -5 -10 -11 -10 -5 0
-7 5 -4 10 3 6 8 10 11 10 2 0 4 -4 4 -10z m140 -3 c0 -8 -6 -14 -14 -14 -8 0
-12 6 -9 14 3 7 9 13 14 13 5 0 9 -6 9 -13z m135 3 c3 -5 1 -10 -4 -10 -6 0
-11 5 -11 10 0 6 2 10 4 10 3 0 8 -4 11 -10z m265 -5 c0 -8 -7 -15 -15 -15 -9
0 -12 6 -9 15 4 8 10 15 15 15 5 0 9 -7 9 -15z m265 5 c-3 -5 -11 -10 -16 -10
-6 0 -7 5 -4 10 3 6 11 10 16 10 6 0 7 -4 4 -10z m-1258 -34 c0 -8 -6 -12 -15
-9 -11 5 -11 7 0 14 7 5 13 9 14 9 0 0 1 -6 1 -14z m1203 -9 c0 -2 -8 -3 -18
-3 -10 0 -19 6 -19 13 0 8 6 9 19 2 10 -5 18 -11 18 -12z m-1357 -12 c-7 -21
-13 -19 -13 6 0 11 4 18 10 14 5 -3 7 -12 3 -20z m402 15 c3 -5 2 -10 -4 -10
-5 0 -13 5 -16 10 -3 6 -2 10 4 10 5 0 13 -4 16 -10z m149 2 c2 -4 -4 -8 -14
-8 -10 0 -16 4 -14 8 3 4 9 8 14 8 5 0 11 -4 14 -8z m136 -2 c0 -5 -5 -10 -11
-10 -5 0 -7 5 -4 10 3 6 8 10 11 10 2 0 4 -4 4 -10z m115 0 c3 -6 -1 -7 -9 -4
-18 7 -21 14 -7 14 6 0 13 -4 16 -10z m285 0 c0 -5 -5 -10 -11 -10 -5 0 -7 5
-4 10 3 6 8 10 11 10 2 0 4 -4 4 -10z m400 0 c0 -5 -5 -10 -11 -10 -5 0 -7 5
-4 10 3 6 8 10 11 10 2 0 4 -4 4 -10z m-1007 -35 c-5 -13 -23 -22 -23 -11 0
15 14 35 21 31 4 -3 6 -12 2 -20z m533 -21 c-15 -14 -16 -13 -16 16 0 29 1 30
16 16 14 -15 14 -17 0 -32z m668 19 c-8 -9 -18 -12 -22 -8 -4 4 -1 10 6 12 6
3 10 9 7 14 -4 5 1 6 9 3 14 -5 14 -8 0 -21z m-1604 -3 c0 -13 -5 -18 -15 -14
-12 5 -13 10 -4 20 15 19 19 18 19 -6z m132 -12 c-9 -9 -12 -7 -12 12 0 19 3
21 12 12 9 -9 9 -15 0 -24z m421 16 c-8 -21 -33 -25 -33 -6 0 11 8 18 19 18
11 0 17 -6 14 -12z m250 -3 c-3 -12 -11 -17 -19 -14 -17 6 -18 20 -1 26 22 9
25 7 20 -12z m395 -11 c-2 -6 -8 -6 -18 0 -13 9 -13 11 0 20 15 10 25 0 18
-20z m152 10 c0 -4 -7 -10 -15 -14 -10 -4 -15 1 -15 14 0 13 5 18 15 14 8 -4
15 -10 15 -14z m-1599 -7 c12 -16 12 -17 -2 -6 -9 7 -19 10 -22 6 -4 -3 -7 -1
-7 5 0 17 16 15 31 -5z m923 9 c2 -4 -4 -8 -14 -8 -10 0 -16 4 -14 8 3 4 9 8
14 8 5 0 11 -4 14 -8z m400 0 c2 -4 -4 -8 -14 -8 -10 0 -16 4 -14 8 3 4 9 8
14 8 5 0 11 -4 14 -8z m-1139 -24 c5 4 5 1 1 -5 -10 -18 -33 -16 -40 2 -4 12
-2 13 13 6 10 -6 22 -7 26 -3z m415 -22 c0 -9 -41 8 -52 22 -11 13 -8 12 20
-2 17 -9 32 -18 32 -20z m800 0 c0 -9 -41 8 -52 22 -11 13 -8 12 20 -2 17 -9
32 -18 32 -20z m274 19 c-4 -8 -10 -12 -15 -9 -5 3 -9 0 -9 -7 0 -7 -3 -9 -7
-5 -5 4 1 14 11 22 25 18 27 18 20 -1z m-1614 -4 c0 -5 -8 -11 -18 -13 -10 -3
-19 0 -19 6 0 7 9 13 19 13 10 1 18 -2 18 -6z m400 -2 c0 -4 -8 -9 -18 -11
-10 -3 -19 0 -19 6 0 7 9 12 19 12 10 0 18 -3 18 -7z m400 6 c0 -2 -10 -9 -22
-15 -22 -11 -22 -10 -4 4 21 17 26 19 26 11z m140 -21 c0 -2 -9 0 -20 6 -11 6
-20 13 -20 16 0 2 9 0 20 -6 11 -6 20 -13 20 -16z m254 13 c-3 -8 -12 -14 -21
-14 -13 0 -13 2 3 14 10 7 19 13 21 13 1 0 0 -6 -3 -13z m543 -4 c0 -8 -6 -9
-19 -2 -10 5 -18 11 -18 12 0 2 8 3 18 3 10 0 19 -6 19 -13z m-1082 -11 c-3
-3 -11 0 -18 7 -9 10 -8 11 6 5 10 -3 15 -9 12 -12z m412 4 c0 -8 -6 -12 -15
-9 -11 5 -11 7 0 14 7 5 13 9 14 9 0 0 1 -6 1 -14z m393 0 c-7 -7 -13 -7 -20
0 -6 6 -3 10 10 10 13 0 16 -4 10 -10z m-1195 -6 c3 -6 -1 -7 -9 -4 -18 7 -21
14 -7 14 6 0 13 -4 16 -10z m-198 -14 c0 -8 -6 -12 -15 -9 -11 5 -11 7 0 14 7
5 13 9 14 9 0 0 1 -6 1 -14z m398 4 c-3 -5 -12 -10 -18 -10 -7 0 -6 4 3 10 19
12 23 12 15 0z m117 -5 c3 3 13 -5 24 -16 19 -22 19 -22 -4 -10 -12 7 -28 9
-35 5 -6 -4 -9 -4 -5 1 4 4 2 15 -5 24 -10 14 -10 14 4 4 9 -7 18 -11 21 -8z
m273 -3 c-3 -3 -11 0 -18 7 -9 10 -8 11 6 5 10 -3 15 -9 12 -12z m78 -32 c7 0
6 -4 -3 -10 -19 -12 -29 4 -21 38 l6 27 3 -27 c2 -16 9 -28 15 -28z m67 25 c8
-10 5 -13 -14 -11 -13 0 -22 3 -20 5 2 2 -1 10 -7 17 -8 9 -5 11 10 7 11 -3
25 -11 31 -18z m260 11 c-7 -7 -13 -7 -20 0 -6 6 -3 10 10 10 13 0 16 -4 10
-10z m400 0 c-7 -7 -13 -7 -20 0 -6 6 -3 10 10 10 13 0 16 -4 10 -10z m-1745
-15 c-3 -6 -11 -8 -17 -5 -6 4 -5 9 3 15 16 10 23 4 14 -10z m299 -9 c2 -4 -4
-8 -14 -8 -10 0 -16 5 -13 10 4 5 -1 7 -10 3 -11 -4 -14 -2 -10 8 4 11 10 12
23 5 11 -6 21 -14 24 -18z m106 13 c-7 -8 -17 -15 -22 -15 -6 0 -5 7 2 15 7 8
17 15 22 15 6 0 5 -7 -2 -15z m399 -6 c-22 -14 -33 -10 -19 6 7 8 17 12 22 9
6 -4 5 -10 -3 -15z m680 7 c10 -11 7 -14 -12 -12 -15 0 -23 6 -20 14 7 16 18
15 32 -2z m134 2 c3 -8 -5 -14 -22 -15 -24 -1 -25 0 -6 13 23 17 22 17 28 2z
m267 -3 c7 -8 8 -15 2 -15 -5 0 -15 7 -22 15 -7 8 -8 15 -2 15 5 0 15 -7 22
-15z m-667 -2 c3 -5 -6 -9 -19 -9 -13 -1 -21 2 -18 7 6 11 31 12 37 2z m-1139
-26 c-2 -7 -14 -13 -25 -13 -19 0 -19 1 -3 13 10 7 21 13 26 13 4 0 5 -6 2
-13z m149 -3 c-2 -6 -10 -11 -18 -11 -8 0 -16 5 -18 11 -3 6 6 11 18 11 12 0
21 -5 18 -11z m251 2 c-3 -8 -12 -12 -21 -9 -12 5 -12 7 -1 14 20 13 28 11 22
-5z m156 7 c0 -1 -15 -10 -32 -19 -27 -14 -31 -14 -21 -2 7 8 10 17 7 20 -3 3
6 5 20 4 14 0 26 -2 26 -3z m244 -7 c-3 -8 -12 -12 -21 -9 -12 5 -12 7 -1 14
20 13 28 11 22 -5z m396 -3 c0 -11 -5 -11 -20 -3 -11 6 -20 12 -20 13 0 2 9 3
20 3 11 0 20 -6 20 -13z m138 8 c11 -7 11 -9 -1 -14 -9 -3 -18 1 -21 9 -6 16
2 18 22 5z m142 2 c12 10 12 9 1 -5 -10 -14 -18 -15 -32 -7 -10 5 -19 12 -19
15 0 2 8 0 18 -5 13 -7 23 -6 32 2z m127 0 c-4 -3 -1 -13 6 -21 10 -13 9 -14
-12 -3 -19 10 -21 15 -10 22 17 10 25 12 16 2z m137 -6 c16 -12 16 -13 -3 -13
-11 0 -23 6 -25 13 -3 7 -2 13 2 13 5 0 16 -6 26 -13z m-1427 -49 c-3 -8 -6
-5 -6 6 -1 11 2 17 5 13 3 -3 4 -12 1 -19z m693 0 c0 -6 -6 -5 -15 2 -8 7 -15
14 -15 16 0 2 7 1 15 -2 8 -4 15 -11 15 -16z m-545 -6 c-3 -3 -11 0 -18 7 -9
10 -8 11 6 5 10 -3 15 -9 12 -12z m145 8 c0 -5 -2 -10 -4 -10 -3 0 -8 5 -11
10 -3 6 -1 10 4 10 6 0 11 -4 11 -10z m255 -8 c-3 -3 -11 0 -18 7 -9 10 -8 11
6 5 10 -3 15 -9 12 -12z m260 8 c-3 -5 -11 -10 -16 -10 -6 0 -7 5 -4 10 3 6
11 10 16 10 6 0 7 -4 4 -10z m400 0 c-3 -5 -11 -10 -16 -10 -6 0 -7 5 -4 10 3
6 11 10 16 10 6 0 7 -4 4 -10z m140 0 c3 -5 1 -10 -4 -10 -6 0 -11 5 -11 10 0
6 2 10 4 10 3 0 8 -4 11 -10z m-1398 -35 c0 -8 -4 -15 -9 -15 -4 0 -8 7 -8 15
0 8 4 15 8 15 5 0 9 -7 9 -15z m407 0 c4 -10 -1 -15 -14 -15 -13 0 -18 5 -14
15 4 8 10 15 14 15 4 0 10 -7 14 -15z m400 0 c4 -10 -1 -15 -14 -15 -13 0 -18
5 -14 15 4 8 10 15 14 15 4 0 10 -7 14 -15z m396 0 c0 -8 -4 -15 -8 -15 -5 0
-9 7 -9 15 0 8 4 15 9 15 4 0 8 -7 8 -15z m-1340 -5 c0 -5 -2 -10 -4 -10 -3 0
-8 5 -11 10 -3 6 -1 10 4 10 6 0 11 -4 11 -10z m270 0 c0 -5 -5 -10 -11 -10
-5 0 -7 5 -4 10 3 6 8 10 11 10 2 0 4 -4 4 -10z m135 0 c3 -5 2 -10 -4 -10 -5
0 -13 5 -16 10 -3 6 -2 10 4 10 5 0 13 -4 16 -10z m400 0 c3 -5 2 -10 -4 -10
-5 0 -13 5 -16 10 -3 6 -2 10 4 10 5 0 13 -4 16 -10z m270 0 c-3 -5 -11 -10
-16 -10 -6 0 -7 5 -4 10 3 6 11 10 16 10 6 0 7 -4 4 -10z m130 0 c3 -5 1 -10
-4 -10 -6 0 -11 5 -11 10 0 6 2 10 4 10 3 0 8 -4 11 -10z m275 6 c0 -3 -4 -8
-10 -11 -5 -3 -10 -1 -10 4 0 6 5 11 10 11 6 0 10 -2 10 -4z m-1660 -33 c0 -1
-9 -7 -19 -12 -14 -8 -20 -7 -24 3 -4 10 2 13 19 12 13 0 24 -2 24 -3z m257 0
c-4 -3 -1 -13 6 -21 10 -13 9 -14 -9 -4 -12 6 -23 10 -25 9 -2 -1 2 4 10 11
15 12 30 17 18 5z m121 -2 c11 -7 11 -9 -1 -14 -9 -3 -18 1 -21 9 -6 16 2 18
22 5z m279 -6 c0 -17 -13 -20 -21 -6 -4 5 0 12 6 14 7 3 13 6 14 6 0 1 1 -6 1
-14z m126 -4 c-4 -3 -11 -10 -15 -15 -5 -5 -8 0 -8 12 0 15 4 20 16 15 9 -3
12 -9 7 -12z m277 4 c0 -9 -6 -12 -16 -8 -13 5 -13 7 -2 14 17 11 18 11 18 -6z
m140 -8 c0 -2 -8 -3 -18 -3 -10 0 -19 6 -19 13 0 8 6 9 19 2 10 -5 18 -11 18
-12z m264 9 c-3 -8 -12 -12 -21 -9 -12 5 -12 7 -1 14 20 13 28 11 22 -5z m136
-9 c0 -2 -8 -3 -18 -4 -10 -1 -19 5 -19 12 0 10 5 11 19 4 10 -5 18 -11 18
-12z m260 8 c0 -9 -6 -12 -16 -8 -13 5 -13 7 -2 14 17 11 18 11 18 -6z m-1810
-47 c0 -6 -6 -5 -15 2 -8 7 -15 14 -15 16 0 2 7 1 15 -2 8 -4 15 -11 15 -16z
m262 -10 c-9 -9 -12 -7 -12 12 0 19 3 21 12 12 9 -9 9 -15 0 -24z m411 9 c3
-8 -1 -14 -9 -14 -8 0 -14 6 -14 14 0 7 4 13 9 13 5 0 11 -6 14 -13z m397 4
c0 -5 -7 -11 -14 -14 -10 -4 -13 -1 -9 9 6 15 23 19 23 5z m400 -6 c0 -8 -2
-15 -4 -15 -2 0 -6 7 -10 15 -3 8 -1 15 4 15 6 0 10 -7 10 -15z m260 5 c0 -5
-5 -10 -11 -10 -5 0 -7 5 -4 10 3 6 8 10 11 10 2 0 4 -4 4 -10z m-462 -36 c2
-1 -5 -5 -15 -8 -9 -4 -14 -4 -10 0 4 4 1 14 -6 23 -11 14 -10 15 8 1 11 -8
21 -15 23 -16z m-1191 -1 c0 -8 -6 -9 -19 -2 -23 12 -23 15 0 15 10 0 19 -6
19 -13z m393 3 c-7 -7 -13 -7 -20 0 -6 6 -3 10 10 10 13 0 16 -4 10 -10z
m-260 0 c0 -3 -4 -8 -10 -11 -5 -3 -10 -1 -10 4 0 6 5 11 10 11 6 0 10 -2 10
-4z m113 -21 c-7 -21 -13 -19 -13 6 0 11 4 18 10 14 5 -3 7 -12 3 -20z m400
-5 c-7 -27 -13 -25 -11 4 1 14 5 23 9 20 4 -2 5 -13 2 -24z m687 20 c0 -5 -5
-10 -11 -10 -5 0 -7 5 -4 10 3 6 8 10 11 10 2 0 4 -4 4 -10z m140 -16 c0 -2
-9 0 -20 6 -11 6 -20 13 -20 16 0 2 9 0 20 -6 11 -6 20 -13 20 -16z m120 22
c0 -2 -7 -7 -16 -10 -8 -3 -12 -2 -9 4 6 10 25 14 25 6z m140 -6 c0 -5 -5 -10
-11 -10 -5 0 -7 5 -4 10 3 6 8 10 11 10 2 0 4 -4 4 -10z m-1659 -26 c8 4 5 0
-5 -8 -15 -12 -22 -13 -27 -4 -4 7 -5 16 -2 21 3 5 9 4 13 -3 4 -7 14 -9 21
-6z m-147 -7 c-2 -7 -14 -13 -25 -13 -19 0 -19 1 -3 13 10 7 21 13 26 13 4 0
5 -6 2 -13z m396 -2 c0 -9 -6 -12 -16 -8 -13 5 -13 7 -2 14 17 11 18 11 18 -6z
m160 8 c0 -1 -9 -7 -19 -12 -14 -8 -20 -7 -24 3 -4 10 2 13 19 12 13 0 24 -2
24 -3z m244 -7 c-3 -8 -12 -12 -21 -9 -12 5 -12 7 -1 14 20 13 28 11 22 -5z
m156 7 c0 -1 -9 -7 -19 -12 -14 -8 -20 -7 -24 3 -4 10 2 13 19 12 13 0 24 -2
24 -3z m243 -9 c-4 -10 -10 -11 -24 -3 -24 13 -24 14 5 15 17 1 23 -2 19 -12z
m157 9 c0 -1 -9 -7 -20 -13 -15 -8 -20 -8 -20 3 0 7 9 13 20 13 11 0 20 -1 20
-3z m247 0 c-4 -3 -1 -13 6 -21 10 -13 9 -14 -11 -3 -22 12 -22 31 0 31 6 0 8
-3 5 -7z m153 -16 c0 -2 -8 -3 -18 -3 -10 0 -19 6 -19 13 0 8 6 9 19 2 10 -5
18 -11 18 -12z m-1485 3 c3 -6 -1 -7 -9 -4 -18 7 -21 14 -7 14 6 0 13 -4 16
-10z m400 0 c3 -6 -1 -7 -9 -4 -18 7 -21 14 -7 14 6 0 13 -4 16 -10z m385 0
c-8 -5 -19 -10 -25 -10 -5 0 -3 5 5 10 8 5 20 10 25 10 6 0 3 -5 -5 -10z m410
6 c0 -2 -7 -7 -16 -10 -8 -3 -12 -2 -9 4 6 10 25 14 25 6z m-1540 -42 c0 -3
-5 -2 -10 1 -6 4 -19 1 -28 -7 -15 -11 -15 -11 -5 3 7 9 9 19 5 24 -4 4 3 2
16 -4 12 -6 22 -14 22 -17z m280 11 c-7 -8 -18 -15 -24 -15 -6 0 -2 7 8 15 25
19 32 19 16 0z m123 2 c7 3 8 2 4 -2 -14 -16 -36 -14 -29 3 4 10 7 12 10 4 2
-7 9 -9 15 -5z m417 -25 c0 -1 -8 2 -19 7 -10 6 -21 7 -25 3 -4 -3 -4 1 -1 10
6 15 8 15 26 0 10 -9 19 -18 19 -20z m-129 11 c11 -15 11 -16 0 -6 -7 6 -20 9
-29 6 -10 -4 -13 -2 -8 5 10 17 21 15 37 -5z m389 12 c0 -2 -9 -9 -20 -15 -16
-9 -18 -8 -14 5 5 13 34 22 34 10z m130 -4 c0 -6 -9 -9 -19 -8 -11 0 -17 5
-15 9 7 11 34 10 34 -1z m270 3 c0 -2 -9 -8 -20 -14 -15 -8 -18 -8 -14 3 4 11
34 21 34 11z m125 -3 c3 -6 -3 -9 -14 -8 -11 0 -17 5 -15 9 7 11 22 10 29 -1z
m281 -3 c3 -4 -1 -5 -10 -4 -8 1 -18 5 -22 8 -3 4 1 5 10 4 8 -1 18 -5 22 -8z
m-1751 -16 c-3 -3 -11 0 -18 7 -9 10 -8 11 6 5 10 -3 15 -9 12 -12z m405 8 c0
-5 -5 -10 -11 -10 -5 0 -7 5 -4 10 3 6 8 10 11 10 2 0 4 -4 4 -10z m1214 -9
c4 -5 -3 -7 -14 -4 -23 6 -26 13 -6 13 8 0 17 -4 20 -9z m-1419 -19 c-3 -3
-11 0 -18 7 -9 10 -8 11 6 5 10 -3 15 -9 12 -12z m732 -4 c-3 -8 -6 -5 -6 6
-1 11 2 17 5 13 3 -3 4 -12 1 -19z m229 7 c-23 -18 -46 -19 -46 -4 0 6 6 9 13
6 8 -3 20 -1 28 4 22 14 26 10 5 -6z m-1209 -11 c0 -6 -9 -9 -19 -6 -23 6 -23
18 0 18 10 0 19 -5 19 -12z m111 -4 c-9 -13 -14 -16 -20 -7 -4 6 -2 15 5 19
21 14 28 9 15 -12z m289 4 c0 -6 -9 -9 -19 -6 -10 2 -18 8 -18 13 0 4 8 7 18
6 10 0 19 -6 19 -13z m126 3 c3 -8 -3 -13 -14 -13 -19 0 -24 8 -12 19 10 11
20 8 26 -6z m267 -2 c7 -8 8 -15 2 -15 -5 0 -15 7 -22 15 -7 8 -8 15 -2 15 5
0 15 -7 22 -15z m130 6 c0 -5 -9 -11 -21 -14 -16 -4 -18 -3 -8 9 13 16 29 19
29 5z m400 -2 c0 -11 -27 -12 -34 -1 -2 4 4 9 15 9 10 1 19 -2 19 -8z m269 2
c8 -5 9 -11 3 -15 -5 -3 -15 1 -22 9 -14 16 -3 20 19 6z m131 0 c0 -5 -10 -11
-22 -14 -22 -6 -22 -6 -4 8 23 17 26 18 26 6z m-992 -36 c2 -1 -3 -5 -11 -8
-7 -3 -19 4 -26 15 -11 18 -10 18 11 7 13 -6 24 -13 26 -14z m413 12 c-6 -8
-9 -16 -6 -18 2 -3 -5 -5 -15 -5 -11 0 -20 6 -20 13 0 7 6 10 14 7 8 -3 17 -1
21 5 3 6 9 11 12 11 3 0 0 -6 -6 -13z m-1227 -6 c3 -5 0 -11 -7 -14 -8 -3 -14
1 -14 9 0 16 13 19 21 5z m266 -6 c0 -6 -8 -11 -18 -11 -10 0 -19 5 -19 11 0
6 9 11 19 11 10 0 18 -5 18 -11z m135 9 c13 -5 14 -8 3 -15 -19 -12 -25 -11
-25 6 0 17 0 17 22 9z m275 -18 c14 -18 14 -19 -8 -7 -12 6 -28 9 -35 6 -6 -4
-3 1 7 9 11 9 20 15 21 13 0 -1 7 -11 15 -21z m396 16 c-3 -3 0 -12 7 -20 10
-13 9 -14 -11 -3 -12 6 -26 10 -31 7 -4 -3 -8 0 -8 7 0 7 11 13 24 13 14 1 22
-1 19 -4z m399 -20 c-8 -8 -25 10 -19 20 4 6 9 5 15 -3 4 -7 6 -15 4 -17z
m152 13 c0 -6 -9 -11 -19 -11 -10 0 -18 5 -18 11 0 6 8 11 18 11 10 0 19 -5
19 -11z m250 0 c0 -8 -4 -15 -8 -15 -11 0 -20 16 -12 24 11 11 20 7 20 -9z
m-1737 1 c0 -3 -4 -8 -10 -11 -5 -3 -10 -1 -10 4 0 6 5 11 10 11 6 0 10 -2 10
-4z m1600 -6 c0 -5 -2 -10 -4 -10 -3 0 -8 5 -11 10 -3 6 -1 10 4 10 6 0 11 -4
11 -10z m-1660 -35 c11 -13 10 -14 -4 -9 -9 3 -16 10 -16 15 0 13 6 11 20 -6z
m120 11 c0 -3 -4 -8 -10 -11 -5 -3 -10 -1 -10 4 0 6 5 11 10 11 6 0 10 -2 10
-4z m275 -6 c3 -5 2 -10 -4 -10 -5 0 -13 5 -16 10 -3 6 -2 10 4 10 5 0 13 -4
16 -10z m800 -1 c11 -16 1 -19 -13 -3 -7 8 -8 14 -3 14 5 0 13 -5 16 -11z
m125 1 c0 -5 -5 -10 -11 -10 -5 0 -7 5 -4 10 3 6 8 10 11 10 2 0 4 -4 4 -10z
m405 0 c-3 -5 -11 -10 -16 -10 -6 0 -7 5 -4 10 3 6 11 10 16 10 6 0 7 -4 4
-10z m-1065 -10 c0 -5 -2 -10 -4 -10 -3 0 -8 5 -11 10 -3 6 -1 10 4 10 6 0 11
-4 11 -10z m1000 -28 c0 -10 -6 -19 -14 -19 -11 0 -12 4 -3 19 7 10 13 18 14
18 2 0 3 -8 3 -18z m-1200 -1 c0 -6 -4 -13 -10 -16 -5 -3 -10 1 -10 9 0 9 5
16 10 16 6 0 10 -4 10 -9z m264 -7 c3 -8 2 -12 -4 -9 -6 3 -10 10 -10 16 0 14
7 11 14 -7z m136 6 c0 -5 -4 -10 -10 -10 -5 0 -10 5 -10 10 0 6 5 10 10 10 6
0 10 -4 10 -10z m400 0 c0 -5 -4 -10 -10 -10 -5 0 -10 5 -10 10 0 6 5 10 10
10 6 0 10 -4 10 -10z m140 -5 c-7 -8 -18 -15 -24 -15 -6 0 -2 7 8 15 25 19 32
19 16 0z m-1480 -5 c0 -5 -2 -10 -4 -10 -3 0 -8 5 -11 10 -3 6 -1 10 4 10 6 0
11 -4 11 -10z m1067 -12 c-3 -8 -6 -5 -6 6 -1 11 2 17 5 13 3 -3 4 -12 1 -19z
m-847 -36 c0 -2 -4 0 -10 3 -5 3 -18 1 -29 -4 -17 -10 -18 -8 -8 12 10 22 12
22 29 8 10 -8 18 -17 18 -19z m1460 20 c0 -11 -7 -18 -18 -18 -10 0 -19 6 -19
12 0 7 6 10 14 7 7 -3 13 0 13 6 0 6 2 11 5 11 3 0 5 -8 5 -18z m-1603 -7 c0
-8 -4 -15 -8 -15 -11 0 -20 16 -12 24 11 11 20 7 20 -9z m400 0 c0 -6 -8 -11
-17 -11 -9 0 -17 5 -17 11 0 6 8 11 17 11 9 0 17 -5 17 -11z m140 0 c0 -6 -9
-11 -19 -11 -10 0 -18 5 -18 11 0 6 8 11 18 11 10 0 19 -5 19 -11z m260 1 c0
-8 -6 -12 -15 -9 -11 5 -11 7 0 14 7 5 13 9 14 9 0 0 1 -6 1 -14z m140 -1 c0
-6 -9 -11 -19 -11 -10 0 -18 5 -18 11 0 6 8 11 18 11 10 0 19 -5 19 -11z m263
2 c0 -7 -9 -13 -21 -13 -19 0 -19 1 -3 13 10 7 19 13 21 13 2 0 3 -6 3 -13z
m140 6 c0 -1 -8 -7 -18 -12 -13 -7 -19 -6 -19 2 0 7 9 13 19 13 10 0 18 -1 18
-3z m382 -8 c0 -5 -5 -11 -10 -13 -5 -1 -9 4 -9 13 0 9 4 14 9 13 5 -2 10 -8
10 -13z m-1402 -30 c0 -8 -4 -15 -10 -15 -5 0 -7 7 -4 15 4 8 8 15 10 15 2 0
4 -7 4 -15z m-395 -5 c-3 -5 -11 -10 -16 -10 -6 0 -7 5 -4 10 3 6 11 10 16 10
6 0 7 -4 4 -10z m134 -13 c12 -15 12 -17 -3 -11 -9 3 -16 13 -16 22 0 8 1 13
3 11 1 -2 9 -12 16 -22z m528 -9 c-3 -7 -5 -2 -5 12 0 14 2 19 5 13 2 -7 2
-19 0 -25z m143 28 c0 -3 -4 -8 -10 -11 -5 -3 -10 -1 -10 4 0 6 5 11 10 11 6
0 10 -2 10 -4z m126 -23 c-10 -10 -19 5 -10 18 6 11 8 11 12 0 2 -7 1 -15 -2
-18z m404 6 c0 -14 -17 -10 -23 5 -4 10 -1 13 9 9 7 -3 14 -9 14 -14z m135 11
c3 -5 2 -10 -4 -10 -5 0 -13 5 -16 10 -3 6 -2 10 4 10 5 0 13 -4 16 -10z m265
-11 c0 -11 -4 -18 -10 -14 -5 3 -7 12 -3 20 7 21 13 19 13 -6z m135 11 c3 -5
1 -10 -4 -10 -6 0 -11 5 -11 10 0 6 2 10 4 10 3 0 8 -4 11 -10z m-1335 -15
c11 -13 10 -14 -4 -9 -9 3 -16 10 -16 15 0 13 6 11 20 -6z m610 -20 c-14 -17
-30 -20 -30 -4 0 5 4 8 9 4 5 -3 12 -1 16 5 3 5 9 10 12 10 3 0 0 -7 -7 -15z
m-810 -5 c0 -5 -5 -10 -11 -10 -5 0 -7 5 -4 10 3 6 8 10 11 10 2 0 4 -4 4 -10z
m400 0 c0 -5 -5 -10 -11 -10 -5 0 -7 5 -4 10 3 6 8 10 11 10 2 0 4 -4 4 -10z
m140 1 c0 -5 -7 -12 -16 -15 -14 -5 -15 -4 -4 9 14 17 20 19 20 6z m395 -10
c-3 -6 -11 -11 -16 -11 -5 0 -4 6 3 14 14 16 24 13 13 -3z m265 9 c0 -5 -2
-10 -4 -10 -3 0 -8 5 -11 10 -3 6 -1 10 4 10 6 0 11 -4 11 -10z m-1460 -4 c0
-3 -4 -8 -10 -11 -5 -3 -10 -1 -10 4 0 6 5 11 10 11 6 0 10 -2 10 -4z m107
-33 c-3 -10 -5 -4 -5 12 0 17 2 24 5 18 2 -7 2 -21 0 -30z m288 27 c-3 -5 -11
-10 -16 -10 -6 0 -7 5 -4 10 3 6 11 10 16 10 6 0 7 -4 4 -10z m120 1 c3 -5 1
-12 -5 -16 -5 -3 -10 1 -10 9 0 18 6 21 15 7z m405 -1 c0 -5 -2 -10 -4 -10 -3
0 -8 5 -11 10 -3 6 -1 10 4 10 6 0 11 -4 11 -10z m405 0 c3 -5 2 -10 -4 -10
-5 0 -13 5 -16 10 -3 6 -2 10 4 10 5 0 13 -4 16 -10z m395 0 c0 -5 -2 -10 -4
-10 -3 0 -8 5 -11 10 -3 6 -1 10 4 10 6 0 11 -4 11 -10z m-995 -41 c-4 -5 -11
-9 -17 -9 -6 0 -8 3 -5 7 4 3 1 13 -6 21 -10 13 -9 14 11 3 12 -7 20 -16 17
-22z m-788 6 c0 -6 -8 -11 -17 -11 -9 0 -17 6 -17 12 0 7 8 12 17 11 9 0 17
-6 17 -12z m117 7 c3 -5 -1 -9 -9 -9 -8 0 -12 4 -9 9 3 4 7 8 9 8 2 0 6 -4 9
-8z m136 -7 c0 -6 -8 -11 -18 -11 -10 0 -19 5 -19 11 0 6 9 11 19 11 10 0 18
-5 18 -11z m132 0 c0 -5 -5 -11 -10 -13 -5 -1 -9 4 -9 13 0 9 4 14 9 13 5 -2
10 -8 10 -13z m268 0 c0 -6 -8 -11 -18 -11 -10 0 -19 5 -19 11 0 6 9 11 19 11
10 0 18 -5 18 -11z m400 -2 c0 -11 -5 -11 -20 -3 -11 6 -20 12 -20 13 0 2 9 3
20 3 11 0 20 -6 20 -13z m157 2 c0 -6 -9 -11 -19 -11 -10 0 -18 5 -18 11 0 6
8 11 18 11 10 0 19 -5 19 -11z m250 1 c0 -8 -10 -13 -24 -12 -21 1 -22 2 -6
14 22 16 30 15 30 -2z m150 -1 c0 -6 -9 -11 -19 -11 -10 0 -18 5 -18 11 0 6 8
11 18 11 10 0 19 -5 19 -11z m123 0 c11 -13 10 -14 -4 -9 -9 3 -16 10 -16 15
0 13 6 11 20 -6z m127 1 c0 -8 -6 -12 -14 -9 -7 3 -10 9 -7 14 8 14 21 11 21
-5z m-1693 -21 c5 0 11 -6 14 -13 3 -11 0 -12 -16 -3 -12 6 -24 16 -28 23 -5
7 -3 8 7 2 8 -5 18 -9 23 -9z m-97 -8 c0 -7 -9 -13 -19 -13 -21 0 -24 12 -5
19 20 9 24 8 24 -6z m390 -4 c-9 -9 -20 -13 -24 -9 -4 4 -1 11 7 16 25 16 35
11 17 -7z m395 -5 c-6 -6 -15 -8 -19 -4 -4 4 -1 11 7 16 19 12 27 3 12 -12z
m136 -4 c-11 -23 -13 -24 -19 -7 -5 16 2 24 28 32 2 1 -3 -11 -9 -25z m264 4
c-6 -6 -15 -8 -19 -4 -4 4 -1 11 7 16 19 12 27 3 12 -12z m122 16 c22 -8 20
-23 -2 -21 -10 0 -19 7 -19 14 0 15 0 15 21 7z m286 -9 c-7 -8 -17 -15 -22
-15 -6 0 -5 7 2 15 7 8 17 15 22 15 6 0 5 -7 -2 -15z m130 -4 c0 -4 -8 -7 -18
-7 -10 0 -19 5 -19 12 0 6 9 9 19 6 10 -2 18 -7 18 -11z m-1205 -1 c3 -5 2
-10 -4 -10 -5 0 -13 5 -16 10 -3 6 -2 10 4 10 5 0 13 -4 16 -10z m592 -12 c-3
-8 -6 -5 -6 6 -1 11 2 17 5 13 3 -3 4 -12 1 -19z m-57 2 c0 -5 -2 -10 -4 -10
-3 0 -8 5 -11 10 -3 6 -1 10 4 10 6 0 11 -4 11 -10z m-1000 -14 c0 -2 -7 -7
-16 -10 -8 -3 -12 -2 -9 4 6 10 25 14 25 6z m400 -6 c0 -5 -2 -10 -4 -10 -3 0
-8 5 -11 10 -3 6 -1 10 4 10 6 0 11 -4 11 -10z m147 -7 c-14 -14 -19 -15 -29
-4 -11 11 -10 13 4 8 10 -3 20 -2 23 3 4 6 9 10 13 10 3 0 -1 -8 -11 -17z
m127 3 c-6 -15 -28 -16 -41 -1 -4 4 -3 6 2 2 6 -3 17 -2 25 4 20 12 20 11 14
-5z m256 2 c0 -5 6 -6 13 -2 9 5 9 4 -1 -7 -10 -11 -15 -11 -28 2 -13 14 -13
16 1 16 8 0 15 -4 15 -9z m150 7 c0 -2 -9 -9 -19 -15 -14 -7 -22 -7 -27 2 -4
6 -3 8 2 5 6 -3 16 -2 24 4 17 10 20 11 20 4z m124 -3 c3 -5 -1 -9 -9 -9 -8 0
-15 4 -15 9 0 10 17 10 24 0z m141 -4 c5 4 5 1 1 -6 -5 -9 -12 -9 -27 -2 -10
6 -19 13 -19 16 0 2 8 0 19 -5 10 -6 22 -7 26 -3z m415 -24 c0 -2 -8 0 -19 5
-10 6 -21 8 -23 5 -3 -3 -8 2 -11 11 -6 14 -4 14 23 0 17 -9 30 -18 30 -21z
m-1900 21 c0 -2 -10 -9 -22 -15 -22 -11 -22 -10 -4 4 21 17 26 19 26 11z m290
-16 l25 -20 -32 16 c-18 8 -33 18 -33 20 0 10 16 4 40 -16z m119 17 c-2 -2
-14 -9 -26 -15 -18 -9 -22 -9 -18 2 3 7 15 13 26 14 12 1 20 1 18 -1z m1196
-6 c-3 -5 -11 -10 -16 -10 -6 0 -7 5 -4 10 3 6 11 10 16 10 6 0 7 -4 4 -10z
m-1135 -30 c0 -13 -5 -18 -15 -14 -11 5 -12 9 -2 20 16 18 17 17 17 -6z m536
-12 c-19 -13 -24 -9 -19 11 4 16 8 17 18 8 9 -9 10 -14 1 -19z m824 -3 c0 0
-11 -1 -24 -1 -18 -1 -22 2 -19 16 5 17 6 17 24 2 10 -9 19 -17 19 -17z
m-1756 9 c5 -12 2 -15 -10 -10 -8 3 -18 6 -20 6 -3 0 -2 5 1 10 9 15 22 12 29
-6z m146 9 c0 -1 -8 -7 -18 -12 -14 -7 -19 -6 -19 4 0 7 9 13 19 12 10 -1 18
-2 18 -4z m410 -16 c0 -2 -9 -3 -20 -3 -11 0 -20 6 -20 13 0 11 5 11 20 3 11
-6 20 -12 20 -13z m115 13 c-3 -5 -12 -10 -18 -10 -7 0 -6 4 3 10 19 12 23 12
15 0z m131 -17 c-2 -2 -11 0 -20 3 -14 5 -15 9 -5 15 12 7 34 -10 25 -18z
m269 17 c-3 -5 -12 -10 -18 -10 -7 0 -6 4 3 10 19 12 23 12 15 0z m125 -5 c0
-9 -6 -12 -16 -8 -13 5 -13 7 -2 14 17 11 18 11 18 -6z m138 -6 c-20 -13 -28
-11 -22 5 3 8 12 12 21 9 12 -5 12 -7 1 -14z m127 3 c-3 -3 -11 0 -18 7 -9 10
-8 11 6 5 10 -3 15 -9 12 -12z m139 3 c9 -24 -9 -33 -20 -11 -8 17 -8 23 2 23
7 0 15 -6 18 -12z m-879 -24 c3 -5 2 -12 -3 -15 -5 -3 -9 1 -9 9 0 17 3 19 12
6z m-795 -5 c0 -3 -4 -8 -10 -11 -5 -3 -10 -1 -10 4 0 6 5 11 10 11 6 0 10 -2
10 -4z m145 -6 c-3 -5 -12 -10 -18 -10 -7 0 -6 4 3 10 19 12 23 12 15 0z m130
0 c3 -5 1 -10 -4 -10 -6 0 -11 5 -11 10 0 6 2 10 4 10 3 0 8 -4 11 -10z m120
0 c-3 -5 -11 -10 -16 -10 -6 0 -7 5 -4 10 3 6 11 10 16 10 6 0 7 -4 4 -10z
m685 0 c0 -5 -2 -10 -4 -10 -3 0 -8 5 -11 10 -3 6 -1 10 4 10 6 0 11 -4 11
-10z m255 -8 c-3 -3 -11 0 -18 7 -9 10 -8 11 6 5 10 -3 15 -9 12 -12z m145 8
c0 -5 -2 -10 -4 -10 -3 0 -8 5 -11 10 -3 6 -1 10 4 10 6 0 11 -4 11 -10z m270
-16 c0 -2 -9 0 -20 6 -11 6 -20 13 -20 16 0 2 9 0 20 -6 11 -6 20 -13 20 -16z
m135 16 c3 -5 2 -10 -4 -10 -5 0 -13 5 -16 10 -3 6 -2 10 4 10 5 0 13 -4 16
-10z m-1340 -10 c3 -6 -1 -7 -9 -4 -18 7 -21 14 -7 14 6 0 13 -4 16 -10z m400
0 c3 -6 -1 -7 -9 -4 -18 7 -21 14 -7 14 6 0 13 -4 16 -10z"/>
</g>
</svg>
