<?xml version="1.0" standalone="no"?>
<!DOCTYPE svg PUBLIC "-//W3C//DTD SVG 20010904//EN"
 "http://www.w3.org/TR/2001/REC-SVG-20010904/DTD/svg10.dtd">
<svg version="1.0" xmlns="http://www.w3.org/2000/svg"
 width="200.000000pt" height="200.000000pt" viewBox="0 0 200.000000 200.000000"
 preserveAspectRatio="xMidYMid meet">
<metadata>
Created by potrace 1.16, written by Peter Selinger 2001-2019
</metadata>
<g transform="translate(0.000000,200.000000) scale(0.100000,-0.100000)"
fill="#000000" stroke="none">
<path d="M9 1995 c-4 -5 -7 -109 -8 -231 -2 -186 0 -223 13 -233 8 -7 20 -10
26 -6 5 3 10 4 10 1 0 -3 -10 -10 -21 -17 -13 -7 -19 -7 -15 -1 3 6 2 13 -3
16 -4 3 -9 -66 -9 -158 -1 -130 2 -167 13 -176 16 -13 39 -4 29 12 -4 6 2 6
15 -1 11 -7 21 -14 21 -17 0 -3 -5 -2 -10 1 -6 4 -17 1 -25 -5 -12 -10 -18
-10 -29 -1 -13 11 -15 -14 -15 -179 0 -165 2 -190 15 -179 11 9 17 9 29 -1 8
-6 20 -8 27 -4 10 6 9 3 -1 -9 -13 -16 -14 -16 -26 0 -11 14 -16 15 -28 4 -24
-19 -23 -327 1 -356 16 -19 16 -19 -1 -6 -16 13 -17 5 -17 -142 0 -123 3 -157
15 -167 8 -6 20 -8 26 -4 8 4 9 3 5 -4 -4 -7 -1 -12 9 -12 9 0 13 -5 10 -10
-4 -6 -17 -3 -34 9 l-27 20 -1 -65 c-1 -35 3 -66 8 -70 5 -3 9 4 9 16 0 12 4
19 10 15 5 -3 7 -12 4 -20 -5 -13 42 -15 344 -15 l351 0 4 28 4 27 2 -27 1
-27 628 2 627 2 2 382 c2 332 0 382 -13 387 -8 3 -12 11 -8 17 5 8 8 8 14 0 4
-7 8 72 9 174 2 152 0 185 -11 179 -10 -6 -10 -5 -2 7 7 8 12 26 12 41 0 20
-5 25 -17 21 -13 -4 -13 -2 2 7 15 10 17 27 16 141 -2 127 -2 130 -28 150 -23
18 -23 19 -3 9 32 -16 39 -5 16 22 -16 20 -17 21 -1 9 17 -14 18 -7 16 157 -1
99 -5 172 -11 172 -5 0 -7 -4 -4 -8 2 -4 -4 -8 -15 -8 -18 0 -18 2 5 19 21 15
25 26 24 63 0 24 -4 47 -9 50 -5 3 -9 -2 -9 -10 0 -9 -4 -16 -10 -16 -5 0 -7
7 -4 15 5 12 -94 14 -765 14 l-770 1 3 -35 c1 -18 -1 -32 -6 -29 -4 3 -8 18
-8 33 l0 29 -196 1 c-174 2 -196 0 -191 -13 4 -9 2 -16 -3 -16 -5 0 -10 8 -12
18 -2 9 -6 13 -9 7z m366 -15 c-3 -5 -11 -10 -16 -10 -6 0 -7 5 -4 10 3 6 11
10 16 10 6 0 7 -4 4 -10z m400 0 c-3 -5 -11 -10 -16 -10 -6 0 -7 5 -4 10 3 6
11 10 16 10 6 0 7 -4 4 -10z m105 -25 c0 -10 -16 -4 -40 16 l-25 20 33 -16
c17 -8 32 -18 32 -20z m280 15 c-24 -19 -40 -25 -40 -15 0 5 51 34 60 34 3 0
-6 -8 -20 -19z m94 5 c10 -7 16 -17 15 -22 -2 -4 -15 2 -28 15 -26 24 -17 30
13 7z m306 -5 c-24 -19 -40 -25 -40 -15 0 5 51 34 60 34 3 0 -6 -8 -20 -19z
m85 10 c3 -5 2 -10 -4 -10 -5 0 -13 5 -16 10 -3 6 -2 10 4 10 5 0 13 -4 16
-10z m-1314 -23 c-10 -9 -11 -8 -5 6 3 10 9 15 12 12 3 -3 0 -11 -7 -18z
m1343 8 c3 -8 1 -15 -4 -15 -6 0 -10 7 -10 15 0 8 2 15 4 15 2 0 6 -7 10 -15z
m-1599 -5 c3 -5 2 -10 -4 -10 -5 0 -13 5 -16 10 -3 6 -2 10 4 10 5 0 13 -4 16
-10z m310 -16 c-38 -20 -45 -17 -15 5 13 11 28 17 33 14 5 -3 -4 -11 -18 -19z
m90 16 c3 -5 2 -10 -4 -10 -5 0 -13 5 -16 10 -3 6 -2 10 4 10 5 0 13 -4 16
-10z m265 0 c0 -5 -5 -10 -11 -10 -5 0 -7 5 -4 10 3 6 8 10 11 10 2 0 4 -4 4
-10z m900 -21 c0 -4 -11 -2 -24 4 -13 7 -22 15 -20 19 5 8 44 -13 44 -23z
m305 21 c-3 -5 -11 -10 -16 -10 -6 0 -7 5 -4 10 3 6 11 10 16 10 6 0 7 -4 4
-10z m-1918 -22 c-3 -8 -6 -5 -6 6 -1 11 2 17 5 13 3 -3 4 -12 1 -19z m1219
-5 c-7 -7 -26 7 -26 19 0 6 6 6 15 -2 9 -7 13 -15 11 -17z m-471 7 c-3 -5 -11
-10 -16 -10 -6 0 -7 5 -4 10 3 6 11 10 16 10 6 0 7 -4 4 -10z m105 -25 c0 -10
-16 -4 -40 16 l-25 20 33 -16 c17 -8 32 -18 32 -20z m295 25 c-3 -5 -11 -10
-16 -10 -6 0 -7 5 -4 10 3 6 11 10 16 10 6 0 7 -4 4 -10z m-435 -15 c0 -8 -4
-15 -10 -15 -5 0 -7 7 -4 15 4 8 8 15 10 15 2 0 4 -7 4 -15z m350 10 c0 -2
-10 -9 -22 -15 -22 -11 -22 -10 -4 4 21 17 26 19 26 11z m584 -10 c3 -8 1 -15
-4 -15 -6 0 -10 7 -10 15 0 8 2 15 4 15 2 0 6 -7 10 -15z m-1599 -5 c3 -5 2
-10 -4 -10 -5 0 -13 5 -16 10 -3 6 -2 10 4 10 5 0 13 -4 16 -10z m265 0 c0 -5
-5 -10 -11 -10 -5 0 -7 5 -4 10 3 6 8 10 11 10 2 0 4 -4 4 -10z m86 -5 c10 -8
14 -15 7 -15 -6 0 -20 -3 -30 -6 -15 -5 -16 -4 -3 5 13 10 13 12 0 21 -8 5
-10 10 -4 10 5 0 19 -7 30 -15z m49 5 c3 -5 2 -10 -4 -10 -5 0 -13 5 -16 10
-3 6 -2 10 4 10 5 0 13 -4 16 -10z m351 -5 c10 -8 15 -14 9 -14 -5 0 -19 6
-29 14 -11 8 -15 15 -10 15 6 0 19 -7 30 -15z m314 5 c0 -5 -5 -10 -11 -10 -5
0 -7 5 -4 10 3 6 8 10 11 10 2 0 4 -4 4 -10z m405 0 c-3 -5 -11 -10 -16 -10
-6 0 -7 5 -4 10 3 6 11 10 16 10 6 0 7 -4 4 -10z m49 -5 c-10 -8 -23 -14 -29
-14 -5 0 -1 6 9 14 11 8 24 15 30 15 5 0 1 -7 -10 -15z m351 5 c-3 -5 -11 -10
-16 -10 -6 0 -7 5 -4 10 3 6 11 10 16 10 6 0 7 -4 4 -10z m-1910 -10 c3 -5 -1
-10 -9 -10 -9 0 -16 5 -16 10 0 6 4 10 9 10 6 0 13 -4 16 -10z m345 0 c0 -5
-7 -10 -15 -10 -8 0 -15 -4 -15 -10 0 -5 5 -10 12 -10 6 0 9 -2 7 -5 -3 -2
-15 -1 -28 2 l-24 6 24 18 c27 21 39 24 39 9z m400 0 c0 -5 -5 -10 -11 -10 -5
0 -7 5 -4 10 3 6 8 10 11 10 2 0 4 -4 4 -10z m400 0 c0 -5 -5 -10 -11 -10 -5
0 -7 5 -4 10 3 6 8 10 11 10 2 0 4 -4 4 -10z m55 0 c3 -5 1 -10 -4 -10 -6 0
-11 5 -11 10 0 6 2 10 4 10 3 0 8 -4 11 -10z m400 0 c3 -5 1 -10 -4 -10 -6 0
-11 5 -11 10 0 6 2 10 4 10 3 0 8 -4 11 -10z m350 0 c-3 -5 -11 -10 -16 -10
-6 0 -7 5 -4 10 3 6 11 10 16 10 6 0 7 -4 4 -10z m-475 -5 c0 -2 -10 -9 -22
-15 -22 -11 -22 -10 -4 4 21 17 26 19 26 11z m-1445 -15 c3 -5 1 -10 -4 -10
-6 0 -11 5 -11 10 0 6 2 10 4 10 3 0 8 -4 11 -10z m151 1 c-7 -11 42 -44 54
-36 6 3 10 4 10 1 0 -3 -18 -15 -41 -26 -26 -14 -39 -26 -35 -35 8 -21 -8 -26
-30 -10 -16 13 -17 14 -1 9 24 -9 21 11 -5 30 -23 16 -23 16 5 4 28 -12 51 -3
28 11 -10 6 -8 10 6 15 17 7 17 8 0 21 -13 10 -15 14 -5 18 19 8 20 8 14 -2z
m274 -15 c0 -2 -9 -2 -20 1 -11 3 -20 9 -20 15 0 5 9 4 20 -2 11 -6 20 -12 20
-14z m125 15 c-3 -6 3 -14 12 -20 10 -6 13 -11 8 -11 -6 0 -16 5 -22 11 -6 6
-17 8 -23 4 -8 -5 -3 -15 16 -32 l29 -25 -32 21 c-34 23 -53 27 -53 11 0 -6
14 -17 31 -24 17 -7 28 -16 23 -19 -5 -2 -24 5 -42 18 -20 14 -29 26 -23 30 6
3 9 11 6 16 -3 5 1 6 9 3 8 -3 25 1 38 10 26 18 32 20 23 7z m138 -3 c3 -10 9
-10 26 0 29 17 34 15 14 -6 -14 -14 -23 -16 -37 -9 -12 6 -28 5 -45 -2 l-26
-12 25 21 c29 23 37 24 43 8z m126 -2 c10 -12 8 -13 -8 -9 -12 3 -21 9 -21 14
0 14 16 11 29 -5z m274 2 c3 -10 9 -10 26 0 17 10 25 10 41 0 17 -11 22 -10
30 2 8 13 11 13 26 -2 16 -16 16 -17 -4 -11 -14 3 -22 1 -22 -7 0 -9 -7 -7
-25 4 -23 15 -27 15 -50 0 -18 -11 -25 -13 -25 -4 0 8 -8 10 -21 7 -16 -4 -18
-3 -8 9 14 17 26 18 32 2z m397 3 c0 -5 -9 -11 -21 -14 -16 -4 -18 -3 -8 9 13
16 29 19 29 5z m70 -3 c17 -11 22 -10 29 1 7 11 13 10 35 -4 33 -22 33 -28 0
-13 -20 9 -27 9 -33 -1 -12 -19 -21 -18 -32 2 -6 9 -14 15 -20 12 -5 -4 -9 -1
-9 4 0 14 6 14 30 -1z m174 -13 c-16 -11 -16 -13 2 -23 10 -6 13 -12 7 -12
-18 0 -16 -20 2 -20 8 0 15 5 15 10 0 6 3 9 8 8 4 -1 17 3 29 10 19 11 22 10
17 -3 -4 -9 -9 -14 -12 -11 -2 3 -17 -3 -31 -13 -22 -16 -29 -17 -44 -6 -13
10 -15 15 -6 21 9 5 8 10 -5 19 -15 11 -15 13 -1 19 9 3 13 10 10 16 -3 6 1 7
10 4 14 -6 14 -8 -1 -19z m156 16 c0 -5 -10 -11 -22 -14 -22 -6 -22 -6 -4 8
23 17 26 18 26 6z m-934 -12 c3 -6 15 -9 25 -6 10 3 17 0 16 -7 -1 -6 4 -10
11 -8 18 3 15 -6 -8 -18 -16 -9 -18 -8 -14 5 8 21 -16 19 -46 -5 -21 -16 -22
-20 -7 -20 10 0 15 -5 12 -10 -5 -8 -11 -7 -21 1 -11 9 -11 15 -3 25 9 11 5
16 -15 24 -30 11 -35 20 -7 13 10 -3 22 0 25 6 4 6 11 11 16 11 5 0 12 -5 16
-11z m400 0 c3 -6 15 -8 27 -5 15 4 17 2 8 -7 -9 -9 -16 -8 -32 2 -32 19 -46
-2 -15 -23 24 -15 28 -15 51 0 14 9 25 14 25 11 0 -2 -12 -12 -26 -22 -20 -13
-28 -14 -40 -4 -11 9 -18 8 -31 -2 -16 -13 -17 -12 -4 3 11 15 11 19 -3 24
-15 6 -15 8 1 20 22 16 30 17 39 3z m-1371 -9 c3 -6 -1 -7 -9 -4 -18 7 -21 14
-7 14 6 0 13 -4 16 -10z m120 -8 c-3 -3 -11 0 -18 7 -9 10 -8 11 6 5 10 -3 15
-9 12 -12z m680 8 c3 -6 -1 -7 -9 -4 -18 7 -21 14 -7 14 6 0 13 -4 16 -10z
m735 6 c0 -2 -7 -7 -16 -10 -8 -3 -12 -2 -9 4 6 10 25 14 25 6z m275 -6 c-3
-5 -12 -10 -18 -10 -7 0 -6 4 3 10 19 12 23 12 15 0z m-1515 -14 c0 -2 -7 -7
-16 -10 -8 -3 -12 -2 -9 4 6 10 25 14 25 6z m74 -4 c2 -4 -4 -8 -14 -8 -10 0
-16 4 -14 8 3 4 9 8 14 8 5 0 11 -4 14 -8z m266 3 c0 -2 -10 -9 -22 -15 -22
-11 -22 -10 -4 4 21 17 26 19 26 11z m135 -5 c3 -6 -1 -7 -9 -4 -18 7 -21 14
-7 14 6 0 13 -4 16 -10z m145 -16 c0 -2 -9 0 -20 6 -11 6 -20 13 -20 16 0 2 9
0 20 -6 11 -6 20 -13 20 -16z m254 18 c2 -4 -4 -8 -14 -8 -10 0 -16 4 -14 8 3
4 9 8 14 8 5 0 11 -4 14 -8z m146 -18 c0 -2 -9 0 -20 6 -11 6 -20 13 -20 16 0
2 9 0 20 -6 11 -6 20 -13 20 -16z m254 18 c2 -4 -4 -8 -14 -8 -10 0 -16 4 -14
8 3 4 9 8 14 8 5 0 11 -4 14 -8z m146 -18 c0 -2 -9 0 -20 6 -11 6 -20 13 -20
16 0 2 9 0 20 -6 11 -6 20 -13 20 -16z m180 21 c0 -2 -10 -9 -22 -15 -22 -11
-22 -10 -4 4 21 17 26 19 26 11z m-1796 -41 c8 -21 -9 -25 -21 -5 -9 14 -8 18
3 18 7 0 15 -6 18 -13z m517 -7 c-10 -9 -11 -8 -5 6 3 10 9 15 12 12 3 -3 0
-11 -7 -18z m409 14 c0 -5 -16 -19 -35 -31 -27 -17 -38 -19 -55 -10 -26 14
-26 23 1 15 22 -7 79 12 79 26 0 5 2 9 5 9 3 0 5 -4 5 -9z m397 -13 c-3 -8 -6
-5 -6 6 -1 11 2 17 5 13 3 -3 4 -12 1 -19z m-1202 2 c-3 -5 -11 -10 -16 -10
-6 0 -7 5 -4 10 3 6 11 10 16 10 6 0 7 -4 4 -10z m277 -20 c3 -16 1 -30 -3
-30 -4 0 -9 14 -11 30 -3 17 -1 30 3 30 4 0 9 -13 11 -30z m403 20 c3 -5 1
-10 -4 -10 -6 0 -11 5 -11 10 0 6 2 10 4 10 3 0 8 -4 11 -10z m465 0 c0 -5 -2
-10 -4 -10 -3 0 -8 5 -11 10 -3 6 -1 10 4 10 6 0 11 -4 11 -10z m396 -20 c10
0 14 -3 10 -7 -14 -14 -42 -8 -66 16 l-25 24 32 -17 c18 -9 40 -16 49 -16z
m69 20 c-3 -5 -11 -10 -16 -10 -6 0 -7 5 -4 10 3 6 11 10 16 10 6 0 7 -4 4
-10z m-435 -10 c0 -19 -39 -31 -61 -20 -11 7 -18 14 -15 17 3 3 12 1 19 -5 10
-9 18 -8 33 3 23 17 24 18 24 5z m-806 -11 c-8 -13 -43 -17 -59 -5 -12 9 -8
11 24 11 22 1 38 -2 35 -6z m-369 -18 c-3 -6 -11 -11 -17 -11 -6 0 -6 6 2 15
14 17 26 13 15 -4z m679 4 c3 -8 1 -15 -4 -15 -6 0 -10 7 -10 15 0 8 2 15 4
15 2 0 6 -7 10 -15z m923 -7 c-3 -8 -6 -5 -6 6 -1 11 2 17 5 13 3 -3 4 -12 1
-19z m-1722 2 c3 -5 1 -10 -4 -10 -6 0 -11 5 -11 10 0 6 2 10 4 10 3 0 8 -4
11 -10z m525 5 c0 -2 -17 -13 -39 -24 -34 -18 -40 -18 -57 -5 -18 13 -17 14 8
8 15 -3 38 1 55 10 32 17 33 18 33 11z m751 -17 c10 7 19 8 19 2 0 -21 -36
-29 -66 -14 -45 23 -54 38 -11 18 31 -15 42 -16 58 -6z m359 -10 c0 -5 -11 -1
-25 8 -14 9 -25 18 -25 20 0 2 11 -2 25 -8 14 -6 25 -15 25 -20z m-749 2 c-28
-24 -32 -24 -57 -5 -18 15 -18 15 8 9 15 -3 35 -1 45 5 28 16 30 12 4 -9z
m808 -5 c-10 -9 -35 -9 -37 0 -1 6 2 10 7 10 5 0 13 4 17 8 5 5 10 3 12 -3 2
-6 2 -13 1 -15z m-1621 2 c-9 -7 -18 -24 -21 -37 -4 -21 -4 -20 -6 7 -1 22 4
33 17 36 27 7 28 7 10 -6z m1249 -19 c-3 -8 -6 -5 -6 6 -1 11 2 17 5 13 3 -3
4 -12 1 -19z m-1264 -68 c3 -11 1 -20 -4 -20 -5 0 -9 9 -9 20 0 11 2 20 4 20
2 0 6 -9 9 -20z m1264 -12 c-3 -7 -5 -2 -5 12 0 14 2 19 5 13 2 -7 2 -19 0
-25z m-867 -6 c-8 -3 -24 -9 -35 -14 -14 -7 -13 -4 5 11 13 10 29 17 34 13 6
-3 4 -8 -4 -10z m421 8 c10 -6 19 -16 19 -22 0 -7 -5 -6 -15 2 -9 7 -26 10
-42 6 -27 -6 -27 -6 -9 9 23 18 22 18 47 5z m389 0 c0 -5 -5 -10 -11 -10 -5 0
-7 5 -4 10 3 6 8 10 11 10 2 0 4 -4 4 -10z m404 1 c3 -5 -5 -11 -19 -13 -28
-6 -35 8 -7 15 9 3 18 5 19 6 1 0 4 -3 7 -8z m-1642 -23 c-7 -7 -12 -8 -12 -2
0 14 12 26 19 19 2 -3 -1 -11 -7 -17z m55 0 c-3 -8 -6 -5 -6 6 -1 11 2 17 5
13 3 -3 4 -12 1 -19z m1153 12 c0 -5 -5 -10 -11 -10 -5 0 -7 5 -4 10 3 6 8 10
11 10 2 0 4 -4 4 -10z m60 -10 c0 -5 -2 -10 -4 -10 -3 0 -8 5 -11 10 -3 6 -1
10 4 10 6 0 11 -4 11 -10z m405 0 c3 -5 1 -10 -4 -10 -6 0 -11 5 -11 10 0 6 2
10 4 10 3 0 8 -4 11 -10z m-1708 -22 c-3 -8 -6 -5 -6 6 -1 11 2 17 5 13 3 -3
4 -12 1 -19z m133 0 c0 -6 -6 -5 -15 2 -8 7 -15 14 -15 16 0 2 7 1 15 -2 8 -4
15 -11 15 -16z m667 0 c-3 -8 -6 -5 -6 6 -1 11 2 17 5 13 3 -3 4 -12 1 -19z
m406 7 c-3 -9 -8 -14 -10 -11 -3 3 -2 9 2 15 9 16 15 13 8 -4z m124 -7 c-3 -8
-6 -5 -6 6 -1 11 2 17 5 13 3 -3 4 -12 1 -19z m293 17 c0 -2 -10 -10 -22 -16
-21 -11 -22 -11 -9 4 13 16 31 23 31 12z m-1556 -14 c3 -5 -6 -11 -21 -14 -26
-5 -26 -4 -8 9 22 17 22 17 29 5z m400 0 c3 -5 -6 -11 -21 -14 -26 -5 -26 -4
-8 9 22 17 22 17 29 5z m406 -1 c0 -5 -4 -10 -9 -10 -5 0 -18 -3 -28 -6 -16
-5 -16 -4 1 10 23 18 36 20 36 6z m399 -3 c-17 -12 -82 -36 -74 -28 15 15 68
41 74 36 2 -3 2 -6 0 -8z m430 -20 c0 -9 -2 -9 -6 1 -7 17 -38 15 -76 -4 -18
-9 -27 -12 -22 -6 6 6 23 18 39 26 31 16 67 7 65 -17z m-1169 -19 c0 -5 -7 -2
-16 6 -8 9 -20 16 -25 16 -5 0 -9 5 -9 10 0 6 11 3 25 -6 14 -9 25 -21 25 -26z
m770 21 c0 -6 -4 -7 -10 -4 -5 3 -10 11 -10 16 0 6 5 7 10 4 6 -3 10 -11 10
-16z m-389 1 c10 -6 19 -16 19 -23 0 -8 -3 -9 -8 -1 -4 6 -16 16 -27 22 -25
14 -11 16 16 2z m816 -12 c-3 -8 -6 -5 -6 6 -1 11 2 17 5 13 3 -3 4 -12 1 -19z
m-1717 7 c0 -2 -10 -10 -22 -16 -21 -11 -22 -11 -9 4 13 16 31 23 31 12z m155
-67 c6 -6 -11 1 -36 16 -48 27 -76 24 -37 -5 21 -16 21 -17 3 -16 -12 1 -19
-3 -17 -11 2 -10 -2 -10 -18 -2 -23 12 -27 22 -6 14 8 -3 17 -1 21 5 3 6 -1
14 -10 17 -13 5 -14 9 -4 15 8 4 10 11 6 16 -5 4 -26 -2 -47 -15 -29 -17 -38
-18 -34 -7 3 8 9 13 13 11 4 -3 17 4 30 14 24 17 25 17 75 -12 28 -16 56 -35
61 -40z m-40 62 c3 -5 2 -10 -4 -10 -5 0 -13 5 -16 10 -3 6 -2 10 4 10 5 0 13
-4 16 -10z m285 6 c0 -3 -4 -8 -10 -11 -5 -3 -10 -1 -10 4 0 6 5 11 10 11 6 0
10 -2 10 -4z m45 -16 c-13 -5 -15 -9 -6 -14 6 -4 20 -2 29 6 15 12 16 11 3 -4
-11 -15 -11 -19 4 -24 16 -6 16 -8 1 -16 -9 -5 -13 -14 -9 -21 4 -7 -5 -4 -21
6 -15 10 -34 16 -42 13 -8 -3 -13 0 -11 7 1 7 -5 11 -13 9 -18 -4 -11 4 32 33
18 13 37 20 42 17 5 -3 1 -8 -9 -12z m349 5 c-4 -8 -8 -15 -10 -15 -2 0 -4 7
-4 15 0 8 4 15 10 15 5 0 7 -7 4 -15z m866 5 c0 -5 -5 -10 -11 -10 -5 0 -7 5
-4 10 3 6 8 10 11 10 2 0 4 -4 4 -10z m-1045 -20 c3 -6 -1 -7 -9 -4 -18 7 -21
14 -7 14 6 0 13 -4 16 -10z m253 1 c15 13 16 12 3 -3 -11 -15 -11 -19 4 -24
16 -6 16 -8 1 -16 -9 -5 -14 -12 -12 -16 3 -4 -4 -8 -15 -8 -19 0 -19 1 2 17
15 11 18 18 10 23 -7 4 -17 4 -24 -2 -15 -12 -47 -23 -47 -16 0 2 12 9 26 14
23 9 25 12 13 28 -13 15 -12 16 4 3 14 -11 20 -11 35 0z m349 -5 c-13 -10 -15
-16 -7 -21 7 -4 17 -2 23 4 6 6 15 11 21 11 5 0 2 -6 -9 -13 -14 -11 -15 -16
-5 -22 8 -5 17 -2 24 7 6 8 17 13 24 11 18 -7 14 15 -5 26 -10 6 -13 10 -8 10
6 1 21 -8 35 -19 14 -11 18 -19 10 -18 -8 2 -14 -2 -13 -9 2 -7 -3 -10 -11 -7
-8 3 -27 -3 -42 -13 -16 -10 -25 -13 -21 -7 8 14 -39 48 -53 39 -6 -3 -10 -4
-10 -1 0 5 51 35 60 35 3 0 -3 -6 -13 -13z m426 -22 c-15 -10 -15 -12 1 -21
17 -9 17 -11 2 -16 -10 -4 -15 -3 -11 3 3 6 -1 13 -10 17 -16 5 -16 7 -1 15 9
5 14 14 10 19 -3 6 -24 -1 -50 -16 -24 -14 -44 -24 -44 -21 0 3 19 16 41 30
33 19 46 22 60 13 16 -10 16 -12 2 -23z m67 16 c14 -11 18 -19 10 -18 -8 2
-14 -2 -13 -7 1 -6 -7 -11 -18 -11 -19 0 -19 1 -4 12 17 13 12 39 -6 29 -5 -4
-9 -1 -9 4 0 16 12 13 40 -9z m-1439 -4 c-10 -11 -8 -17 6 -25 10 -6 14 -10 8
-10 -5 -1 -21 8 -35 19 -14 11 -18 18 -9 14 10 -3 20 -1 24 5 3 6 9 11 12 11
3 0 0 -6 -6 -14z m259 -12 c0 -2 -9 0 -20 6 -11 6 -20 13 -20 16 0 2 9 0 20
-6 11 -6 20 -13 20 -16z m220 21 c0 -2 -10 -9 -22 -15 -22 -11 -22 -10 -4 4
21 17 26 19 26 11z m60 0 c0 -2 -10 -9 -22 -15 -22 -11 -22 -10 -4 4 21 17 26
19 26 11z m140 -31 c0 -2 -13 2 -30 11 -16 9 -30 18 -30 21 0 2 14 -2 30 -11
17 -9 30 -18 30 -21z m-286 14 c-3 -5 2 -11 11 -14 14 -6 13 -8 -4 -21 -17
-11 -24 -11 -41 -1 -17 11 -22 11 -30 -2 -7 -12 -12 -12 -22 -2 -9 9 -9 12 5
12 9 0 17 5 17 10 0 14 23 8 36 -9 6 -8 16 -11 24 -6 10 6 7 12 -9 24 -21 16
-21 17 -2 17 11 0 17 -4 15 -8z m396 -2 c-7 -7 -13 -7 -20 0 -6 6 -3 10 10 10
13 0 16 -4 10 -10z m388 -8 c-21 -16 -22 -17 -5 -24 15 -5 16 -9 5 -15 -11 -7
-10 -11 2 -19 8 -5 10 -10 4 -10 -5 0 -19 7 -30 15 -19 14 -19 14 1 15 19 1
19 1 2 14 -16 12 -16 14 -2 20 9 3 14 9 11 14 -2 4 4 8 15 8 19 0 18 -1 -3
-18z m-1428 -2 c0 -2 -7 -7 -16 -10 -8 -3 -12 -2 -9 4 6 10 25 14 25 6z m198
-10 c-22 -16 -23 -26 -3 -26 8 0 15 -4 15 -10 0 -14 -7 -13 -36 7 l-26 16 29
13 c37 16 42 16 21 0z m845 -7 c6 6 16 11 21 11 6 0 1 -7 -11 -15 -19 -13 -26
-13 -43 -3 -17 11 -22 11 -30 -2 -8 -13 -11 -13 -26 2 -16 16 -16 17 4 11 14
-3 22 -1 22 7 0 9 8 7 26 -5 19 -12 29 -14 37 -6z m82 5 c-38 -29 -55 -36 -49
-19 4 9 9 14 12 11 2 -3 14 1 26 9 27 20 37 19 11 -1z m355 5 c0 -4 8 -9 18
-11 13 -3 9 -8 -15 -21 -18 -10 -33 -13 -33 -7 0 5 7 10 15 10 8 0 15 5 15 10
0 6 -7 10 -15 10 -8 0 -15 4 -15 8 0 5 7 9 15 9 8 0 15 -4 15 -8z m-1170 -14
c-7 -8 -18 -15 -24 -15 -6 0 -2 7 8 15 25 19 32 19 16 0z m400 0 c-14 -17 -30
-20 -30 -6 0 5 8 12 18 14 9 3 19 5 21 6 2 0 -2 -6 -9 -14z m670 -6 c0 -14
-16 -11 -29 5 -10 12 -8 13 8 9 12 -3 21 -9 21 -14z m-1127 -26 c-9 -7 -22
-13 -27 -13 -6 0 -4 5 4 10 13 8 12 11 -5 24 -18 14 -17 14 13 3 30 -11 31
-13 15 -24z m1527 27 c0 -5 -2 -10 -4 -10 -3 0 -8 5 -11 10 -3 6 -1 10 4 10 6
0 11 -4 11 -10z m-45 -10 c3 -6 -1 -7 -9 -4 -18 7 -21 14 -7 14 6 0 13 -4 16
-10z m-1870 -10 c-3 -5 -10 -10 -16 -10 -5 0 -9 5 -9 10 0 6 7 10 16 10 8 0
12 -4 9 -10z m745 0 c0 -5 -4 -10 -10 -10 -5 0 -10 5 -10 10 0 6 5 10 10 10 6
0 10 -4 10 -10z m60 6 c0 -3 -4 -8 -10 -11 -5 -3 -10 -1 -10 4 0 6 5 11 10 11
6 0 10 -2 10 -4z m340 -6 c0 -5 -2 -10 -4 -10 -3 0 -8 5 -11 10 -3 6 -1 10 4
10 6 0 11 -4 11 -10z m810 0 c0 -5 -4 -10 -9 -10 -6 0 -13 5 -16 10 -3 6 1 10
9 10 9 0 16 -4 16 -10z m-1920 -15 c-7 -9 -15 -13 -17 -11 -7 7 7 26 19 26 6
0 6 -6 -2 -15z m400 6 c0 -5 -7 -12 -16 -15 -14 -5 -15 -4 -4 9 14 17 20 19
20 6z m379 -20 c-13 -11 -26 -17 -29 -14 -3 2 6 13 20 23 32 24 40 16 9 -9z
m711 8 l25 -20 -32 16 c-18 8 -33 18 -33 20 0 10 16 4 40 -16z m107 -1 c-3 -8
-6 -5 -6 6 -1 11 2 17 5 13 3 -3 4 -12 1 -19z m278 12 c3 -5 2 -10 -4 -10 -5
0 -13 5 -16 10 -3 6 -2 10 4 10 5 0 13 -4 16 -10z m-1918 -57 c-3 -10 -5 -2
-5 17 0 19 2 27 5 18 2 -10 2 -26 0 -35z m348 37 c3 -5 2 -10 -4 -10 -5 0 -13
5 -16 10 -3 6 -2 10 4 10 5 0 13 -4 16 -10z m64 -30 c4 0 12 5 19 12 6 6 14 9
18 6 3 -4 -5 -12 -18 -19 -12 -6 -26 -17 -30 -23 -4 -6 -7 7 -6 29 0 23 3 30
5 18 2 -13 8 -23 12 -23z m336 30 c3 -5 2 -10 -4 -10 -5 0 -13 5 -16 10 -3 6
-2 10 4 10 5 0 13 -4 16 -10z m435 -22 c0 -11 -8 -10 -31 2 -28 16 -23 30 6
17 14 -7 25 -15 25 -19z m30 17 c-7 -9 -15 -13 -19 -10 -3 3 1 10 9 15 21 14
24 12 10 -5z m390 -4 c-13 -11 -28 -17 -33 -14 -5 3 2 11 15 18 35 20 46 17
18 -4z m-1555 -11 c-3 -5 -11 -10 -16 -10 -6 0 -7 5 -4 10 3 6 11 10 16 10 6
0 7 -4 4 -10z m265 -10 c0 -11 -2 -20 -4 -20 -2 0 -6 9 -9 20 -3 11 -1 20 4
20 5 0 9 -9 9 -20z m64 5 c-4 -8 -8 -15 -10 -15 -2 0 -4 7 -4 15 0 8 4 15 10
15 5 0 7 -7 4 -15z m336 -25 c0 -22 -2 -40 -4 -40 -2 0 -6 18 -8 40 -2 22 0
40 4 40 5 0 8 -18 8 -40z m70 36 c0 -3 -4 -8 -10 -11 -5 -3 -10 -1 -10 4 0 6
5 11 10 11 6 0 10 -2 10 -4z m60 -4 c0 -5 -12 -14 -27 -21 l-28 -12 25 21 c29
22 30 23 30 12z m275 -2 c3 -5 2 -10 -4 -10 -5 0 -13 5 -16 10 -3 6 -2 10 4
10 5 0 13 -4 16 -10z m135 6 c0 -3 -4 -8 -10 -11 -5 -3 -10 -1 -10 4 0 6 5 11
10 11 6 0 10 -2 10 -4z m280 -17 l25 -20 -32 16 c-18 8 -33 18 -33 20 0 10 16
4 40 -16z m385 11 c3 -5 2 -10 -4 -10 -5 0 -13 5 -16 10 -3 6 -2 10 4 10 5 0
13 -4 16 -10z m-1541 -42 c-5 -8 -44 13 -44 23 0 4 11 2 24 -4 13 -7 22 -15
20 -19z m371 22 c3 -5 2 -10 -4 -10 -5 0 -13 5 -16 10 -3 6 -2 10 4 10 5 0 13
-4 16 -10z m465 0 c0 -5 -5 -10 -11 -10 -5 0 -7 5 -4 10 3 6 8 10 11 10 2 0 4
-4 4 -10z m405 0 c-3 -5 -11 -10 -16 -10 -6 0 -7 5 -4 10 3 6 11 10 16 10 6 0
7 -4 4 -10z m-35 -20 c0 -5 -2 -10 -4 -10 -3 0 -8 5 -11 10 -3 6 -1 10 4 10 6
0 11 -4 11 -10z m-1273 -52 c-3 -7 -5 -2 -5 12 0 14 2 19 5 13 2 -7 2 -19 0
-25z m60 -10 c-3 -8 -6 -5 -6 6 -1 11 2 17 5 13 3 -3 4 -12 1 -19z m30 -10
c-3 -8 -6 -5 -6 6 -1 11 2 17 5 13 3 -3 4 -12 1 -19z m1243 -29 c0 -16 -4 -28
-9 -25 -8 5 -3 56 5 56 2 0 4 -14 4 -31z m-1286 2 c-10 -10 -21 -16 -24 -14
-3 3 4 11 14 19 28 20 33 17 10 -5z m442 4 c10 -8 14 -15 7 -15 -6 0 -15 5
-18 10 -4 7 -12 7 -25 0 -10 -5 -22 -10 -27 -10 -9 1 27 30 37 30 3 0 15 -7
26 -15z m384 11 c0 -3 -4 -8 -10 -11 -5 -3 -10 -1 -10 4 0 6 5 11 10 11 6 0
10 -2 10 -4z m400 -7 c0 -5 -4 -8 -9 -4 -5 3 -12 1 -16 -5 -3 -5 -12 -10 -18
-10 -7 0 -3 7 7 15 23 18 36 19 36 4z m-1175 -9 c3 -5 2 -10 -4 -10 -5 0 -13
5 -16 10 -3 6 -2 10 4 10 5 0 13 -4 16 -10z m745 0 c0 -5 -5 -10 -11 -10 -5 0
-7 5 -4 10 3 6 8 10 11 10 2 0 4 -4 4 -10z m55 0 c3 -5 1 -10 -4 -10 -6 0 -11
5 -11 10 0 6 2 10 4 10 3 0 8 -4 11 -10z m755 5 c0 -2 -15 -12 -32 -20 l-33
-16 25 20 c24 20 40 26 40 16z m-1248 -36 c4 -23 0 -32 -16 -41 -17 -9 -19 -8
-8 3 6 7 12 26 12 41 0 37 7 36 12 -3z m-677 11 c3 -5 1 -10 -4 -10 -6 0 -11
5 -11 10 0 6 2 10 4 10 3 0 8 -4 11 -10z m275 1 c0 -5 -7 -12 -16 -15 -14 -5
-15 -4 -4 9 14 17 20 19 20 6z m530 -1 c0 -5 -2 -10 -4 -10 -3 0 -8 5 -11 10
-3 6 -1 10 4 10 6 0 11 -4 11 -10z m280 6 c0 -3 -4 -8 -10 -11 -5 -3 -10 -1
-10 4 0 6 5 11 10 11 6 0 10 -2 10 -4z m120 -6 c0 -5 -2 -10 -4 -10 -3 0 -8 5
-11 10 -3 6 -1 10 4 10 6 0 11 -4 11 -10z m-1237 -41 c-8 -29 -19 -23 -17 9 3
38 3 39 13 23 5 -7 6 -22 4 -32z m377 37 c0 -3 -4 -8 -10 -11 -5 -3 -10 -1
-10 4 0 6 5 11 10 11 6 0 10 -2 10 -4z m400 0 c0 -3 -4 -8 -10 -11 -5 -3 -10
-1 -10 4 0 6 5 11 10 11 6 0 10 -2 10 -4z m400 -7 c0 -5 -4 -8 -9 -4 -5 3 -12
1 -16 -5 -3 -5 -12 -10 -18 -10 -7 0 -3 7 7 15 23 18 36 19 36 4z m400 1 c0
-5 -2 -10 -4 -10 -3 0 -8 5 -11 10 -3 6 -1 10 4 10 6 0 11 -4 11 -10z m370 -3
c0 -8 -12 -19 -27 -26 l-28 -13 25 25 c30 30 30 30 30 14z m-1600 -1 c0 -3 -4
-8 -10 -11 -5 -3 -10 -1 -10 4 0 6 5 11 10 11 6 0 10 -2 10 -4z m55 -6 c3 -5
1 -10 -4 -10 -6 0 -11 5 -11 10 0 6 2 10 4 10 3 0 8 -4 11 -10z m400 0 c3 -5
1 -10 -4 -10 -6 0 -11 5 -11 10 0 6 2 10 4 10 3 0 8 -4 11 -10z m400 0 c3 -5
1 -10 -4 -10 -6 0 -11 5 -11 10 0 6 2 10 4 10 3 0 8 -4 11 -10z m345 0 c0 -5
-5 -10 -11 -10 -5 0 -7 5 -4 10 3 6 8 10 11 10 2 0 4 -4 4 -10z m-305 -28 c-8
-8 -25 10 -19 20 4 6 9 5 15 -3 4 -7 6 -15 4 -17z m-925 13 c0 -2 -10 -10 -22
-16 -21 -11 -22 -11 -9 4 13 16 31 23 31 12z m56 -7 c4 -6 3 -8 -4 -4 -6 3
-13 2 -17 -4 -8 -13 -25 -13 -25 1 0 5 4 8 9 4 5 -3 12 -1 16 5 8 13 12 13 21
-2z m449 -24 c17 -14 23 -22 14 -19 -10 4 -20 2 -24 -4 -3 -6 -11 -11 -18 -11
-6 0 -3 6 8 13 13 11 15 16 6 22 -7 4 -18 2 -24 -4 -14 -14 -27 -14 -27 0 0 5
4 8 9 4 5 -3 12 -1 15 4 12 18 -21 18 -45 0 -13 -10 -28 -19 -34 -19 -5 0 6
11 25 24 39 26 53 25 95 -10z m15 26 c0 -5 -2 -10 -4 -10 -3 0 -8 5 -11 10 -3
6 -1 10 4 10 6 0 11 -4 11 -10z m280 5 c0 -2 -10 -10 -22 -16 -21 -11 -22 -11
-9 4 13 16 31 23 31 12z m80 -17 c0 -6 -6 -5 -15 2 -8 7 -15 14 -15 16 0 2 7
1 15 -2 8 -4 15 -11 15 -16z m320 18 c0 -3 -4 -8 -10 -11 -5 -3 -10 -1 -10 4
0 6 5 11 10 11 6 0 10 -2 10 -4z m114 -29 c3 3 6 1 6 -5 0 -7 -5 -12 -11 -12
-6 0 -9 -6 -6 -14 4 -9 0 -12 -13 -9 -10 3 -21 0 -24 -6 -4 -6 -11 -11 -17
-11 -5 0 -1 8 9 18 9 11 20 17 24 15 4 -2 9 1 12 6 9 15 -14 25 -27 12 -6 -6
-15 -11 -21 -11 -5 0 -1 7 10 15 11 8 14 15 7 15 -7 0 -13 5 -13 11 0 6 13 1
29 -10 15 -11 31 -18 35 -14z m17 16 c13 -15 12 -15 -8 -4 -24 12 -29 21 -14
21 5 0 15 -7 22 -17z m-1261 -18 c-7 -8 -16 -15 -21 -15 -5 0 -1 8 9 18 20 22
31 19 12 -3z m765 16 c-3 -6 3 -14 12 -20 10 -6 13 -11 8 -11 -6 0 -16 5 -22
11 -6 6 -17 8 -24 4 -9 -6 -8 -11 5 -20 15 -12 15 -13 -3 -18 -14 -3 -18 -1
-14 9 6 17 -1 18 -30 3 l-22 -12 20 20 c11 11 22 19 24 17 2 -2 13 3 25 11 24
17 29 19 21 6z m386 -10 c-23 -18 -23 -19 -5 -29 10 -6 14 -12 9 -12 -6 0 -16
5 -22 11 -8 8 -17 7 -34 -1 -30 -16 -20 -5 23 26 39 27 64 32 29 5z m-1221
-11 c0 -5 -4 -10 -10 -10 -5 0 -10 5 -10 10 0 6 5 10 10 10 6 0 10 -4 10 -10z
m120 -5 c11 -13 10 -14 -3 -10 -8 4 -18 2 -22 -4 -3 -6 -12 -11 -18 -11 -7 0
-4 5 6 11 9 6 15 14 12 20 -10 15 12 10 25 -6z m800 6 c0 -7 -67 -51 -77 -51
-5 0 7 10 24 21 18 12 31 24 28 28 -2 4 2 8 10 8 8 0 15 -3 15 -6z m150 -6
c-14 -17 -30 -20 -30 -4 0 5 4 8 9 4 5 -3 12 -1 16 5 3 5 9 10 12 10 3 0 0 -7
-7 -15z m535 6 c-3 -6 3 -14 12 -20 10 -6 13 -11 6 -11 -6 0 -15 5 -18 11 -4
6 -14 8 -24 5 -12 -5 -11 -2 3 9 23 17 30 19 21 6z m-1745 -11 c0 -5 -5 -10
-11 -10 -5 0 -7 5 -4 10 3 6 8 10 11 10 2 0 4 -4 4 -10z m400 -2 c0 -4 -4 -8
-9 -8 -6 0 -12 4 -15 8 -3 5 1 9 9 9 8 0 15 -4 15 -9z m395 2 c3 -5 2 -10 -4
-10 -5 0 -13 5 -16 10 -3 6 -2 10 4 10 5 0 13 -4 16 -10z m809 -2 c-3 -4 -9
-8 -15 -8 -5 0 -9 4 -9 8 0 5 7 9 15 9 8 0 12 -4 9 -9z m-1494 -3 c0 -2 -10
-9 -22 -15 -22 -11 -22 -10 -4 4 21 17 26 19 26 11z m484 -34 c-2 -2 -10 2
-19 9 -8 7 -23 9 -32 6 -16 -6 -16 -5 0 8 16 13 21 12 36 -2 10 -9 16 -19 15
-21z m916 13 c0 -2 -9 0 -20 6 -11 6 -20 13 -20 16 0 2 9 0 20 -6 11 -6 20
-13 20 -16z m53 13 c4 3 7 1 7 -5 0 -17 -16 -15 -31 6 -12 15 -12 16 2 5 9 -7
19 -10 22 -6z m-1563 -29 c0 -4 -7 -8 -15 -8 -8 0 -15 -5 -15 -11 0 -5 -5 -7
-12 -3 -9 6 -9 9 0 12 17 5 15 22 -3 22 -8 0 -15 4 -15 9 0 5 14 4 30 -2 17
-6 30 -15 30 -19z m30 22 c0 -5 -4 -10 -10 -10 -5 0 -10 5 -10 10 0 6 5 10 10
10 6 0 10 -4 10 -10z m130 6 c0 -2 -7 -7 -16 -10 -8 -3 -12 -2 -9 4 6 10 25
14 25 6z m210 -8 c0 -4 7 -8 15 -8 8 0 15 -4 15 -10 0 -13 -6 -13 -30 3 -17
10 -22 9 -30 -3 -8 -13 -11 -13 -26 2 -16 16 -16 17 4 11 12 -3 22 -1 22 4 0
5 7 10 15 10 8 0 15 -4 15 -9z m73 -2 c12 -9 14 -16 8 -21 -6 -3 -11 -1 -11 4
0 6 -7 11 -15 11 -8 0 -15 5 -15 10 0 14 11 12 33 -4z m327 4 c0 -5 -6 -10
-14 -10 -8 0 -16 -6 -19 -12 -2 -7 -8 -10 -12 -6 -9 8 16 37 33 38 6 0 12 -4
12 -10z m74 -5 c11 -8 16 -18 11 -22 -4 -5 -10 -2 -12 5 -3 6 -11 12 -19 12
-8 0 -14 5 -14 10 0 14 11 12 34 -5z m326 5 c0 -5 -4 -10 -10 -10 -5 0 -10 5
-10 10 0 6 5 10 10 10 6 0 10 -4 10 -10z m74 -2 c25 -26 25 -46 1 -62 -33 -22
-46 -20 -17 2 24 19 22 52 -4 52 -8 0 -14 5 -14 10 0 14 19 13 34 -2z m396 1
c0 -7 9 -9 22 -6 19 5 20 5 6 -10 -15 -14 -18 -14 -39 6 -19 17 -20 21 -6 21
9 0 17 -5 17 -11z m-1704 -27 c-4 -3 -14 2 -24 12 -16 18 -16 18 6 6 13 -6 21
-14 18 -18z m264 16 c0 -4 -4 -8 -9 -8 -6 0 -12 4 -15 8 -3 5 1 9 9 9 8 0 15
-4 15 -9z m-160 -18 c-14 -11 -29 -20 -35 -20 -5 0 1 9 15 20 14 11 30 20 35
20 6 0 -1 -9 -15 -20z m760 10 c0 -5 -4 -10 -10 -10 -5 0 -10 5 -10 10 0 6 5
10 10 10 6 0 10 -4 10 -10z m340 0 c0 -5 -2 -10 -4 -10 -3 0 -8 5 -11 10 -3 6
-1 10 4 10 6 0 11 -4 11 -10z m60 0 c0 -5 -4 -10 -10 -10 -5 0 -10 5 -10 10 0
6 5 10 10 10 6 0 10 -4 10 -10z m360 -10 c14 -11 21 -20 15 -20 -5 0 -21 9
-35 20 -14 11 -20 20 -15 20 6 0 21 -9 35 -20z m40 10 c0 -5 -4 -10 -10 -10
-5 0 -10 5 -10 10 0 6 5 10 10 10 6 0 10 -4 10 -10z m-1520 -15 c0 -2 -10 -9
-22 -15 -22 -11 -22 -10 -4 4 21 17 26 19 26 11z m290 -5 c0 -5 -2 -10 -4 -10
-3 0 -8 5 -11 10 -3 6 -1 10 4 10 6 0 11 -4 11 -10z m46 -5 c-11 -8 -24 -15
-30 -15 -5 0 -1 7 10 15 10 8 24 14 29 14 6 0 1 -6 -9 -14z m362 3 c8 -8 15
-8 27 2 8 7 18 10 21 7 3 -3 -4 -10 -15 -17 -19 -10 -61 0 -61 15 0 9 16 5 28
-7z m400 0 c8 -8 15 -8 27 2 8 7 17 11 20 8 2 -2 -4 -11 -14 -20 -16 -14 -20
-14 -42 3 -13 10 -19 19 -13 19 5 0 15 -5 22 -12z m436 -7 c-10 -10 -21 -17
-23 -15 -6 6 20 34 32 34 6 0 2 -8 -9 -19z m-1684 -1 c0 -5 -2 -10 -4 -10 -3
0 -8 5 -11 10 -3 6 -1 10 4 10 6 0 11 -4 11 -10z m400 -5 c0 -8 -2 -15 -4 -15
-2 0 -6 7 -10 15 -3 8 -1 15 4 15 6 0 10 -7 10 -15z m130 5 c0 -5 -5 -10 -11
-10 -5 0 -7 5 -4 10 3 6 8 10 11 10 2 0 4 -4 4 -10z m275 1 c3 -5 1 -12 -4
-15 -5 -3 -11 1 -15 9 -6 16 9 21 19 6z m130 -1 c-3 -5 -11 -10 -16 -10 -6 0
-7 5 -4 10 3 6 11 10 16 10 6 0 7 -4 4 -10z m270 0 c3 -5 2 -10 -4 -10 -5 0
-13 5 -16 10 -3 6 -2 10 4 10 5 0 13 -4 16 -10z m400 0 c3 -6 -1 -7 -9 -4 -18
7 -21 14 -7 14 6 0 13 -4 16 -10z m135 6 c0 -3 -4 -8 -10 -11 -5 -3 -10 -1
-10 4 0 6 5 11 10 11 6 0 10 -2 10 -4z m-1666 -28 c4 7 13 12 19 12 7 0 1 -9
-12 -19 -13 -10 -22 -25 -19 -32 3 -8 2 -23 -3 -34 -5 -13 -8 0 -8 40 0 38 3
53 8 41 5 -14 10 -16 15 -8z m-39 2 c3 -5 2 -10 -4 -10 -5 0 -13 5 -16 10 -3
6 -2 10 4 10 5 0 13 -4 16 -10z m400 0 c3 -5 1 -10 -4 -10 -6 0 -11 5 -11 10
0 6 2 10 4 10 3 0 8 -4 11 -10z m65 6 c0 -3 -4 -8 -10 -11 -5 -3 -10 -1 -10 4
0 6 5 11 10 11 6 0 10 -2 10 -4z m1140 -6 c0 -5 -2 -10 -4 -10 -3 0 -8 5 -11
10 -3 6 -1 10 4 10 6 0 11 -4 11 -10z m65 0 c-3 -5 -11 -10 -16 -10 -6 0 -7 5
-4 10 3 6 11 10 16 10 6 0 7 -4 4 -10z m-95 -26 c0 -2 -9 0 -20 6 -11 6 -20
13 -20 16 0 2 9 0 20 -6 11 -6 20 -13 20 -16z m-1610 6 c0 -5 -2 -10 -4 -10
-3 0 -8 5 -11 10 -3 6 -1 10 4 10 6 0 11 -4 11 -10z m420 -10 c14 -11 20 -20
13 -20 -6 0 -15 5 -18 10 -4 6 -10 8 -15 5 -4 -3 -10 2 -14 10 -7 20 4 19 34
-5z m115 10 c-3 -5 -11 -10 -16 -10 -6 0 -7 5 -4 10 3 6 11 10 16 10 6 0 7 -4
4 -10z m270 0 c3 -5 2 -10 -4 -10 -5 0 -13 5 -16 10 -3 6 -2 10 4 10 5 0 13
-4 16 -10z m129 -5 c-4 -8 -10 -12 -15 -9 -11 6 -2 24 11 24 5 0 7 -7 4 -15z
m271 5 c3 -5 2 -10 -4 -10 -5 0 -13 5 -16 10 -3 6 -2 10 4 10 5 0 13 -4 16
-10z m130 0 c-3 -5 -11 -10 -16 -10 -6 0 -7 5 -4 10 3 6 11 10 16 10 6 0 7 -4
4 -10z m335 0 c0 -5 -2 -10 -4 -10 -3 0 -8 5 -11 10 -3 6 -1 10 4 10 6 0 11
-4 11 -10z m64 -5 c-4 -8 -10 -13 -14 -10 -5 3 -11 1 -15 -5 -3 -5 -12 -10
-18 -10 -7 0 -1 9 13 20 30 24 41 25 34 5z m-1699 -15 c3 -5 1 -10 -4 -10 -6
0 -11 5 -11 10 0 6 2 10 4 10 3 0 8 -4 11 -10z m60 0 c-3 -5 -11 -10 -16 -10
-6 0 -7 5 -4 10 3 6 11 10 16 10 6 0 7 -4 4 -10z m405 6 c0 -3 -4 -8 -10 -11
-5 -3 -10 -1 -10 4 0 6 5 11 10 11 6 0 10 -2 10 -4z m740 -6 c0 -5 -2 -10 -4
-10 -3 0 -8 5 -11 10 -3 6 -1 10 4 10 6 0 11 -4 11 -10z m400 0 c0 -5 -2 -10
-4 -10 -3 0 -8 5 -11 10 -3 6 -1 10 4 10 6 0 11 -4 11 -10z m-1170 -14 c0 -3
-4 -8 -10 -11 -5 -3 -10 -1 -10 4 0 6 5 11 10 11 6 0 10 -2 10 -4z m1200 -6
c0 -5 -2 -10 -4 -10 -3 0 -8 5 -11 10 -3 6 -1 10 4 10 6 0 11 -4 11 -10z
m-343 -32 c-3 -8 -6 -5 -6 6 -1 11 2 17 5 13 3 -3 4 -12 1 -19z m-1232 -76
c-6 -7 -45 23 -45 35 0 6 11 2 24 -10 14 -12 23 -23 21 -25z m1575 27 c0 -11
-4 -18 -10 -14 -5 3 -7 12 -3 20 7 21 13 19 13 -6z m-1670 -29 c0 -11 -4 -20
-9 -20 -5 0 -7 9 -4 20 3 11 7 20 9 20 2 0 4 -9 4 -20z m35 10 c-3 -5 -11 -10
-16 -10 -6 0 -7 5 -4 10 3 6 11 10 16 10 6 0 7 -4 4 -10z m385 -10 c-24 -19
-40 -25 -40 -15 0 5 51 34 60 34 3 0 -6 -8 -20 -19z m75 10 c3 -5 1 -10 -4
-10 -6 0 -11 5 -11 10 0 6 2 10 4 10 3 0 8 -4 11 -10z m400 0 c3 -5 1 -10 -4
-10 -6 0 -11 5 -11 10 0 6 2 10 4 10 3 0 8 -4 11 -10z m345 0 c0 -5 -5 -10
-11 -10 -5 0 -7 5 -4 10 3 6 8 10 11 10 2 0 4 -4 4 -10z m400 0 c0 -5 -5 -10
-11 -10 -5 0 -7 5 -4 10 3 6 8 10 11 10 2 0 4 -4 4 -10z m60 -5 c0 -8 -2 -15
-4 -15 -2 0 -6 7 -10 15 -3 8 -1 15 4 15 6 0 10 -7 10 -15z m-1635 -15 c3 -5
1 -10 -4 -10 -6 0 -11 5 -11 10 0 6 2 10 4 10 3 0 8 -4 11 -10z m400 0 c3 -5
1 -10 -4 -10 -6 0 -11 5 -11 10 0 6 2 10 4 10 3 0 8 -4 11 -10z m65 0 c0 -5
-2 -10 -4 -10 -3 0 -8 5 -11 10 -3 6 -1 10 4 10 6 0 11 -4 11 -10z m274 -5
c-4 -8 -10 -12 -15 -9 -11 6 -2 24 11 24 5 0 7 -7 4 -15z m131 5 c3 -5 2 -10
-4 -10 -5 0 -13 5 -16 10 -3 6 -2 10 4 10 5 0 13 -4 16 -10z m270 0 c-3 -5
-11 -10 -16 -10 -6 0 -7 5 -4 10 3 6 11 10 16 10 6 0 7 -4 4 -10z m130 0 c3
-5 2 -10 -4 -10 -5 0 -13 5 -16 10 -3 6 -2 10 4 10 5 0 13 -4 16 -10z m335 0
c0 -5 -5 -10 -11 -10 -5 0 -7 5 -4 10 3 6 8 10 11 10 2 0 4 -4 4 -10z m65 0
c3 -5 2 -10 -4 -10 -5 0 -13 5 -16 10 -3 6 -2 10 4 10 5 0 13 -4 16 -10z
m-1695 -14 c0 -3 -4 -8 -10 -11 -5 -3 -10 -1 -10 4 0 6 5 11 10 11 6 0 10 -2
10 -4z m55 -6 c3 -5 1 -10 -4 -10 -6 0 -11 5 -11 10 0 6 2 10 4 10 3 0 8 -4
11 -10z m345 6 c0 -3 -4 -8 -10 -11 -5 -3 -10 -1 -10 4 0 6 5 11 10 11 6 0 10
-2 10 -4z m55 -6 c3 -5 1 -10 -4 -10 -6 0 -11 5 -11 10 0 6 2 10 4 10 3 0 8
-4 11 -10z m725 -10 c-24 -19 -40 -25 -40 -15 0 5 51 34 60 34 3 0 -6 -8 -20
-19z m80 10 c0 -5 -2 -10 -4 -10 -3 0 -8 5 -11 10 -3 6 -1 10 4 10 6 0 11 -4
11 -10z m340 0 c0 -5 -5 -10 -11 -10 -5 0 -7 5 -4 10 3 6 8 10 11 10 2 0 4 -4
4 -10z m65 0 c3 -5 2 -10 -4 -10 -5 0 -13 5 -16 10 -3 6 -2 10 4 10 5 0 13 -4
16 -10z m-1305 -15 c0 -8 -4 -15 -10 -15 -5 0 -7 7 -4 15 4 8 8 15 10 15 2 0
4 -7 4 -15z m1334 0 c3 -8 1 -15 -4 -15 -6 0 -10 7 -10 15 0 8 2 15 4 15 2 0
6 -7 10 -15z m-1734 -5 c0 -5 -5 -10 -11 -10 -5 0 -7 5 -4 10 3 6 8 10 11 10
2 0 4 -4 4 -10z m50 -5 c-14 -17 -30 -20 -30 -6 0 5 8 12 18 14 9 3 19 5 21 6
2 0 -2 -6 -9 -14z m447 -6 c19 -12 32 -24 29 -26 -3 -3 -19 5 -36 17 -23 17
-34 20 -43 11 -6 -6 -16 -11 -21 -11 -10 1 22 30 32 30 3 0 20 -10 39 -21z
m38 11 c3 -5 2 -10 -4 -10 -5 0 -13 5 -16 10 -3 6 -2 10 4 10 5 0 13 -4 16
-10z m270 0 c-3 -5 -11 -10 -16 -10 -6 0 -7 5 -4 10 3 6 11 10 16 10 6 0 7 -4
4 -10z m81 -5 c10 -8 14 -15 9 -15 -6 0 -16 5 -23 12 -9 9 -15 9 -24 0 -7 -7
-17 -12 -22 -12 -11 1 23 30 34 30 3 0 15 -7 26 -15z m44 5 c0 -5 -2 -10 -4
-10 -3 0 -8 5 -11 10 -3 6 -1 10 4 10 6 0 11 -4 11 -10z m356 -5 c10 -8 14
-15 9 -15 -6 0 -16 5 -23 12 -9 9 -15 9 -24 0 -7 -7 -17 -12 -22 -12 -11 1 23
30 34 30 3 0 15 -7 26 -15z m49 5 c3 -5 2 -10 -4 -10 -5 0 -13 5 -16 10 -3 6
-2 10 4 10 5 0 13 -4 16 -10z m275 6 c0 -3 -4 -8 -10 -11 -5 -3 -10 -1 -10 4
0 6 5 11 10 11 6 0 10 -2 10 -4z m-1500 -26 c14 -11 21 -20 15 -20 -5 0 -21 9
-35 20 -14 11 -20 20 -15 20 6 0 21 -9 35 -20z m1520 0 c-14 -11 -29 -20 -35
-20 -5 0 1 9 15 20 14 11 30 20 35 20 6 0 -1 -9 -15 -20z m70 10 c0 -5 -4 -10
-10 -10 -5 0 -10 5 -10 10 0 6 5 10 10 10 6 0 10 -4 10 -10z m-1690 -15 c0 -2
-10 -10 -22 -16 -21 -11 -22 -11 -9 4 13 16 31 23 31 12z m60 -5 c0 -5 -7 -10
-16 -10 -8 0 -12 5 -9 10 3 6 10 10 16 10 5 0 9 -4 9 -10z m340 0 c0 -5 7 -10
15 -10 8 0 15 -4 15 -10 0 -15 -19 -12 -36 4 -16 17 -18 26 -4 26 6 0 10 -4
10 -10z m60 0 c0 -5 -2 -10 -4 -10 -3 0 -8 5 -11 10 -3 6 -1 10 4 10 6 0 11
-4 11 -10z m340 0 c0 -5 7 -10 15 -10 8 0 15 -4 15 -10 0 -15 -19 -12 -36 4
-16 17 -18 26 -4 26 6 0 10 -4 10 -10z m120 4 c0 -10 -28 -34 -39 -34 -6 0
-11 5 -11 10 0 6 7 10 15 10 8 0 15 5 15 10 0 6 5 10 10 10 6 0 10 -3 10 -6z
m280 -4 c0 -5 -5 -10 -11 -10 -5 0 -7 5 -4 10 3 6 8 10 11 10 2 0 4 -4 4 -10z
m60 0 c0 -5 -4 -10 -10 -10 -5 0 -10 5 -10 10 0 6 5 10 10 10 6 0 10 -4 10
-10z m60 4 c0 -8 -24 -29 -38 -31 -6 -2 -12 2 -12 7 0 6 7 10 15 10 8 0 15 5
15 10 0 6 5 10 10 10 6 0 10 -3 10 -6z m340 -4 c0 -5 -4 -10 -10 -10 -5 0 -10
5 -10 10 0 6 5 10 10 10 6 0 10 -4 10 -10z m60 4 c0 -3 -7 -12 -16 -21 -11
-12 -18 -13 -27 -4 -8 8 -7 11 6 11 9 0 17 5 17 10 0 6 5 10 10 10 6 0 10 -3
10 -6z m-1460 -8 c0 -2 -7 -7 -16 -10 -8 -3 -12 -2 -9 4 6 10 25 14 25 6z
m825 -18 c19 -13 35 -27 35 -31 0 -5 -4 -6 -9 -3 -5 3 -14 -1 -21 -9 -13 -16
-35 -21 -25 -6 7 12 -12 24 -25 16 -8 -5 -7 -11 1 -21 16 -20 -47 14 -75 40
l-21 18 23 -11 c19 -10 27 -9 50 8 15 11 28 21 30 21 1 0 18 -10 37 -22z
m-1065 2 c0 -5 -4 -10 -10 -10 -5 0 -10 5 -10 10 0 6 5 10 10 10 6 0 10 -4 10
-10z m79 -4 c10 -12 8 -13 -8 -9 -12 3 -21 9 -21 14 0 14 16 11 29 -5z m131
-12 c0 -3 -4 -3 -9 1 -5 3 -12 1 -16 -4 -5 -9 33 -37 46 -34 3 1 4 -10 1 -25
-5 -26 -6 -26 -11 -4 -3 12 -19 31 -36 42 -16 11 -24 20 -16 20 8 0 11 6 7 15
-4 13 -2 14 14 5 11 -6 20 -13 20 -16z m269 12 c10 -12 8 -13 -8 -9 -12 3 -21
9 -21 14 0 14 16 11 29 -5z m131 -8 c0 -5 -4 -7 -9 -3 -5 3 -12 1 -15 -4 -10
-15 38 -40 57 -29 11 6 17 5 17 -1 0 -18 -35 -18 -61 1 -14 9 -29 15 -33 11
-3 -3 -6 -1 -6 5 0 7 5 12 11 12 6 0 9 6 6 14 -4 10 0 12 14 9 10 -3 19 -10
19 -15z m600 13 c0 -5 -9 -11 -21 -14 -16 -4 -18 -3 -8 9 13 16 29 19 29 5z
m280 4 c0 -2 -9 -9 -20 -15 -12 -6 -20 -7 -20 -1 0 5 8 12 18 14 9 3 18 5 20
6 1 0 2 -1 2 -4z m120 -5 c0 -5 -4 -10 -10 -10 -5 0 -10 5 -10 10 0 6 5 10 10
10 6 0 10 -4 10 -10z m-1335 -11 c4 -6 14 -8 22 -4 13 4 14 3 3 -10 -13 -16
-35 -21 -25 -6 3 6 -3 14 -12 20 -10 6 -13 11 -6 11 6 0 15 -5 18 -11z m400 0
c4 -6 13 -8 21 -5 22 8 17 -2 -7 -15 -13 -7 -19 -7 -15 -1 4 6 -2 15 -11 21
-10 6 -13 11 -6 11 6 0 15 -5 18 -11z m757 -10 c22 -16 32 -19 41 -10 6 6 14
11 18 11 11 0 18 -39 8 -46 -5 -3 -9 4 -9 16 0 21 0 21 -27 3 -40 -27 -82 -16
-52 14 8 8 8 13 0 17 -15 9 -33 -3 -25 -16 4 -6 -2 -6 -15 1 -24 13 -29 23 -7
15 8 -3 17 -1 21 5 9 15 13 14 47 -10z m-1392 3 c0 -5 -7 -9 -15 -9 -8 0 -12
4 -9 9 3 4 9 8 15 8 5 0 9 -4 9 -8z m400 -2 c0 -5 -2 -10 -4 -10 -3 0 -8 5
-11 10 -3 6 -1 10 4 10 6 0 11 -4 11 -10z m411 -7 c13 -15 12 -15 -8 -4 -24
12 -29 21 -14 21 5 0 15 -7 22 -17z m389 7 c0 -5 -4 -10 -10 -10 -5 0 -10 5
-10 10 0 6 5 10 10 10 6 0 10 -4 10 -10z m404 2 c3 -5 -1 -9 -9 -9 -8 0 -15 4
-15 9 0 4 4 8 9 8 6 0 12 -4 15 -8z m146 -18 c0 -2 -9 0 -20 6 -11 6 -20 13
-20 16 0 2 9 0 20 -6 11 -6 20 -13 20 -16z m-1930 -14 c0 -5 -2 -10 -4 -10 -3
0 -8 5 -11 10 -3 6 -1 10 4 10 6 0 11 -4 11 -10z m423 -9 c20 10 20 9 -1 -9
-13 -10 -22 -26 -20 -37 1 -10 -2 -20 -7 -22 -10 -3 -11 12 -5 72 2 17 3 17 7
3 4 -15 8 -16 26 -7z m293 -9 c-4 -3 -14 2 -24 12 -16 18 -16 18 6 6 13 -6 21
-14 18 -18z m144 23 c0 -2 -10 -9 -22 -15 -22 -11 -22 -10 -4 4 21 17 26 19
26 11z m256 -23 c-4 -3 -14 2 -24 12 -16 18 -16 18 6 6 13 -6 21 -14 18 -18z
m214 23 c0 -2 -10 -9 -22 -15 -22 -11 -22 -10 -4 4 21 17 26 19 26 11z m-1311
-28 c-13 -13 -28 -21 -33 -19 -5 3 2 13 15 23 34 26 47 23 18 -4z m296 13 c3
-5 2 -10 -4 -10 -5 0 -13 5 -16 10 -3 6 -2 10 4 10 5 0 13 -4 16 -10z m930 0
c-3 -5 -11 -10 -16 -10 -6 0 -7 5 -4 10 3 6 11 10 16 10 6 0 7 -4 4 -10z m270
0 c3 -5 1 -10 -4 -10 -6 0 -11 5 -11 10 0 6 2 10 4 10 3 0 8 -4 11 -10z m-705
-14 c0 -3 -4 -8 -10 -11 -5 -3 -10 -1 -10 4 0 6 5 11 10 11 6 0 10 -2 10 -4z
m356 -11 c10 -8 14 -15 8 -15 -5 0 -19 7 -30 15 -10 8 -14 15 -8 15 5 0 19 -7
30 -15z m44 11 c0 -3 -4 -8 -10 -11 -5 -3 -10 -1 -10 4 0 6 5 11 10 11 6 0 10
-2 10 -4z m345 -6 c4 -6 11 -8 16 -5 5 4 9 -1 9 -10 0 -14 -2 -14 -25 1 -14 9
-25 18 -25 20 0 8 19 3 25 -6z m400 0 c3 -5 2 -10 -4 -10 -5 0 -13 5 -16 10
-3 6 -2 10 4 10 5 0 13 -4 16 -10z m-1641 -17 c3 -7 2 -13 -3 -13 -5 0 -14 6
-20 13 -8 10 -7 14 4 14 8 0 16 -6 19 -14z m400 0 c7 -17 -8 -17 -23 0 -8 10
-7 14 4 14 8 0 16 -6 19 -14z m61 7 c3 -5 1 -10 -4 -10 -6 0 -11 5 -11 10 0 6
2 10 4 10 3 0 8 -4 11 -10z m-735 -4 c0 -3 -4 -8 -10 -11 -5 -3 -10 -1 -10 4
0 6 5 11 10 11 6 0 10 -2 10 -4z m800 -6 c0 -5 -5 -10 -11 -10 -5 0 -7 5 -4
10 3 6 8 10 11 10 2 0 4 -4 4 -10z m400 0 c0 -5 -5 -10 -11 -10 -5 0 -7 5 -4
10 3 6 8 10 11 10 2 0 4 -4 4 -10z m348 -19 c27 10 29 3 3 -11 -15 -8 -29 -6
-55 7 -20 10 -36 22 -36 26 0 5 15 0 33 -10 23 -14 40 -17 55 -12z m53 -8 l-5
-38 -6 30 c-7 31 -4 45 9 45 4 0 5 -17 2 -37z m-897 11 c3 -8 2 -12 -4 -9 -6
3 -10 10 -10 16 0 14 7 11 14 -7z m-744 -4 c0 -5 -5 -10 -11 -10 -5 0 -7 5 -4
10 3 6 8 10 11 10 2 0 4 -4 4 -10z m345 0 c3 -5 1 -10 -4 -10 -6 0 -11 5 -11
10 0 6 2 10 4 10 3 0 8 -4 11 -10z m451 -5 c-23 -17 -36 -19 -36 -6 0 5 8 12
18 14 32 9 37 6 18 -8z m354 5 c0 -5 -2 -10 -4 -10 -3 0 -8 5 -11 10 -3 6 -1
10 4 10 6 0 11 -4 11 -10z m60 6 c0 -3 -4 -8 -10 -11 -5 -3 -10 -1 -10 4 0 6
5 11 10 11 6 0 10 -2 10 -4z m745 -6 c3 -5 2 -10 -4 -10 -5 0 -13 5 -16 10 -3
6 -2 10 4 10 5 0 13 -4 16 -10z m-780 -10 c3 -5 1 -10 -4 -10 -6 0 -11 5 -11
10 0 6 2 10 4 10 3 0 8 -4 11 -10z m-1178 -57 c-3 -10 -5 -4 -5 12 0 17 2 24
5 18 2 -7 2 -21 0 -30z m310 15 c-3 -8 -6 -5 -6 6 -1 11 2 17 5 13 3 -3 4 -12
1 -19z m60 -15 c-3 -10 -5 -4 -5 12 0 17 2 24 5 18 2 -7 2 -21 0 -30z m35 -33
c3 -16 1 -30 -4 -30 -4 0 -8 14 -8 30 0 17 2 30 4 30 2 0 6 -13 8 -30z m305
-2 c-3 -7 -5 -2 -5 12 0 14 2 19 5 13 2 -7 2 -19 0 -25z m-710 -50 c-2 -13 -4
-3 -4 22 0 25 2 35 4 23 2 -13 2 -33 0 -45z m378 52 c3 -5 1 -10 -4 -10 -6 0
-11 5 -11 10 0 6 2 10 4 10 3 0 8 -4 11 -10z m400 0 c3 -5 1 -10 -4 -10 -6 0
-11 5 -11 10 0 6 2 10 4 10 3 0 8 -4 11 -10z m805 0 c0 -5 -5 -10 -11 -10 -5
0 -7 5 -4 10 3 6 8 10 11 10 2 0 4 -4 4 -10z m57 -12 c-3 -8 -6 -5 -6 6 -1 11
2 17 5 13 3 -3 4 -12 1 -19z m-809 -17 c13 -7 21 -15 19 -18 -8 -7 -57 28 -57
41 0 8 2 8 8 0 4 -6 18 -17 30 -23z m412 -14 c0 -4 -11 0 -25 9 -14 9 -25 20
-25 26 0 11 49 -23 50 -35z m-895 23 c-3 -5 -11 -10 -16 -10 -6 0 -7 5 -4 10
3 6 11 10 16 10 6 0 7 -4 4 -10z m405 6 c0 -3 -4 -8 -10 -11 -5 -3 -10 -1 -10
4 0 6 5 11 10 11 6 0 10 -2 10 -4z m379 -19 c-26 -25 -42 -26 -33 -2 4 8 10
13 14 10 5 -3 11 -1 15 5 3 5 11 10 17 10 6 0 0 -10 -13 -23z m411 11 c-8 -7
-21 -19 -27 -27 -11 -13 -13 -13 -13 1 0 8 10 20 23 26 30 14 34 14 17 0z m75
2 c3 -5 2 -10 -4 -10 -5 0 -13 5 -16 10 -3 6 -2 10 4 10 5 0 13 -4 16 -10z
m-1308 -22 c-3 -8 -6 -5 -6 6 -1 11 2 17 5 13 3 -3 4 -12 1 -19z m46 -15 c-36
-19 -40 -16 -12 10 14 13 27 18 31 13 3 -5 -5 -16 -19 -23z m-313 17 c0 -5 -2
-10 -4 -10 -3 0 -8 5 -11 10 -3 6 -1 10 4 10 6 0 11 -4 11 -10z m670 5 c0 -2
-10 -9 -22 -15 -22 -11 -22 -10 -4 4 21 17 26 19 26 11z m65 -5 c3 -5 1 -10
-4 -10 -6 0 -11 5 -11 10 0 6 2 10 4 10 3 0 8 -4 11 -10z m835 -21 c0 -4 -11
-2 -24 4 -13 7 -22 15 -20 19 5 8 44 -13 44 -23z m27 -16 c-3 -10 -5 -2 -5 17
0 19 2 27 5 18 2 -10 2 -26 0 -35z m278 37 c-3 -5 -11 -10 -16 -10 -6 0 -7 5
-4 10 3 6 11 10 16 10 6 0 7 -4 4 -10z m-1487 -29 c32 -17 22 -24 -11 -8 -15
6 -27 19 -27 27 0 10 3 11 8 4 4 -6 18 -17 30 -23z m412 -14 c0 -4 -11 0 -25
9 -14 9 -25 20 -25 26 0 11 49 -23 50 -35z m376 16 c-7 -7 -26 7 -26 19 0 6 6
6 15 -2 9 -7 13 -15 11 -17z m314 -3 c-14 -10 -27 -16 -30 -13 -3 3 1 8 8 10
7 3 18 11 25 18 7 7 14 11 17 8 3 -2 -6 -13 -20 -23z m-785 10 c-3 -5 -11 -10
-16 -10 -6 0 -7 5 -4 10 3 6 11 10 16 10 6 0 7 -4 4 -10z m405 6 c0 -3 -4 -8
-10 -11 -5 -3 -10 -1 -10 4 0 6 5 11 10 11 6 0 10 -2 10 -4z m-1109 -23 c13
-15 12 -15 -8 -4 -24 12 -29 21 -14 21 5 0 15 -7 22 -17z m669 2 c0 -8 -4 -15
-10 -15 -5 0 -7 7 -4 15 4 8 8 15 10 15 2 0 4 -7 4 -15z m854 -10 c-10 -8 -23
-14 -29 -14 -5 -1 1 8 15 19 14 10 27 17 29 14 3 -2 -4 -11 -15 -19z m-445
-27 c1 -5 -5 -8 -13 -8 -9 0 -12 8 -8 27 5 25 6 25 13 8 4 -11 8 -23 8 -27z
m796 32 c-3 -5 -11 -10 -16 -10 -6 0 -7 5 -4 10 3 6 11 10 16 10 6 0 7 -4 4
-10z m-1910 -10 c3 -5 -1 -10 -9 -10 -9 0 -16 5 -16 10 0 6 4 10 9 10 6 0 13
-4 16 -10z m345 0 c0 -5 -7 -10 -15 -10 -20 0 -19 -10 3 -27 15 -12 14 -13 -8
-1 -14 7 -29 11 -35 10 -5 -1 1 7 15 18 28 22 40 25 40 10z m55 0 c3 -5 2 -10
-4 -10 -5 0 -13 5 -16 10 -3 6 -2 10 4 10 5 0 13 -4 16 -10z m345 0 c0 -5 -5
-10 -11 -10 -5 0 -7 5 -4 10 3 6 8 10 11 10 2 0 4 -4 4 -10z m400 0 c0 -5 -5
-10 -11 -10 -5 0 -7 5 -4 10 3 6 8 10 11 10 2 0 4 -4 4 -10z m55 0 c3 -5 1
-10 -4 -10 -6 0 -11 5 -11 10 0 6 2 10 4 10 3 0 8 -4 11 -10z m405 0 c0 -5 -4
-10 -10 -10 -5 0 -10 5 -10 10 0 6 5 10 10 10 6 0 10 -4 10 -10z m350 0 c0 -5
-7 -10 -16 -10 -8 0 -12 5 -9 10 3 6 10 10 16 10 5 0 9 -4 9 -10z m-1580 -14
c0 -2 -7 -7 -16 -10 -8 -3 -12 -2 -9 4 6 10 25 14 25 6z m55 -6 c3 -5 1 -10
-4 -10 -6 0 -11 5 -11 10 0 6 2 10 4 10 3 0 8 -4 11 -10z m149 -2 c-2 -4 3
-11 12 -16 15 -8 15 -10 -1 -16 -15 -5 -15 -9 -4 -24 13 -15 12 -16 -3 -3 -14
10 -21 11 -32 2 -12 -10 -20 -9 -40 4 -14 10 -26 20 -26 22 0 3 12 -2 26 -12
18 -12 29 -14 37 -6 7 7 3 13 -15 20 -15 5 -29 15 -33 21 -3 6 10 1 30 -10 42
-23 70 -16 36 9 -21 16 -21 17 -2 17 11 0 18 -4 15 -8z m136 3 c0 -5 8 -11 17
-13 12 -2 9 -6 -12 -16 -26 -12 -27 -12 -14 4 13 16 12 17 -9 12 -19 -5 -21
-4 -11 8 13 16 29 19 29 5z m80 -10 c22 -17 22 -19 5 -18 -11 1 -19 -3 -18 -8
1 -6 -7 -11 -18 -11 -19 0 -19 1 2 17 21 16 21 17 3 27 -10 6 -14 11 -9 11 6
1 21 -8 35 -18z m49 5 c10 -12 8 -13 -8 -9 -12 3 -21 9 -21 14 0 14 16 11 29
-5z m177 -5 c13 10 16 10 10 1 -4 -7 -19 -18 -34 -23 -19 -7 -22 -13 -14 -21
24 -24 11 -26 -14 -3 -15 14 -32 25 -38 25 -6 0 -3 5 7 11 9 6 14 15 11 21 -4
6 7 3 24 -7 27 -16 33 -17 48 -4z m164 7 c17 -11 22 -10 29 0 6 10 21 5 66
-22 32 -19 63 -32 68 -29 6 3 3 11 -7 18 -15 11 -15 13 -1 19 9 3 13 11 9 17
-4 7 7 4 24 -6 27 -16 33 -17 49 -4 16 13 17 12 4 -3 -7 -10 -18 -18 -23 -18
-6 0 -22 -9 -37 -19 l-28 -20 -57 34 c-47 29 -58 32 -63 20 -5 -14 -8 -14 -30
1 -18 11 -28 13 -36 5 -6 -6 -15 -11 -21 -11 -5 0 -1 7 10 15 23 18 20 18 44
3z m330 2 c0 -5 -7 -10 -16 -10 -8 0 -12 5 -9 10 3 6 10 10 16 10 5 0 9 -4 9
-10z m50 0 c-35 -24 -54 -31 -30 -11 14 11 30 21 35 21 6 0 3 -5 -5 -10z m80
-5 c11 -13 10 -14 -3 -9 -8 3 -25 1 -36 -6 -14 -7 -21 -7 -21 0 0 5 7 10 15
10 8 0 15 5 15 10 0 15 16 12 30 -5z m113 -10 c-17 -13 -17 -14 0 -21 15 -5
16 -9 5 -16 -10 -7 -10 -11 0 -15 6 -2 12 -12 12 -20 0 -10 6 -13 18 -9 14 5
13 3 -3 -10 -19 -14 -20 -14 -23 6 -2 12 -10 24 -18 27 -11 4 -12 9 -4 18 15
19 -6 30 -26 14 -12 -10 -17 -10 -27 1 -9 10 -9 11 0 6 15 -8 65 22 57 35 -3
5 2 6 11 3 14 -6 14 -8 -2 -19z m157 15 c0 -5 -5 -10 -11 -10 -5 0 -7 5 -4 10
3 6 8 10 11 10 2 0 4 -4 4 -10z m-1735 -11 c4 -6 14 -8 24 -5 9 4 5 -3 -9 -14
-23 -18 -21 -24 5 -21 6 0 0 -6 -12 -15 -26 -18 -31 -39 -8 -30 8 3 15 2 15
-3 0 -5 -9 -11 -20 -14 -16 -4 -20 0 -20 18 0 13 6 26 13 28 9 4 9 8 -1 15
-11 7 -10 11 5 16 17 7 17 8 -1 22 -11 8 -15 14 -9 14 7 0 15 -5 18 -11z
m-175 -3 c0 -2 -7 -7 -16 -10 -8 -3 -12 -2 -9 4 6 10 25 14 25 6z m137 -12 c0
-7 -6 -10 -14 -7 -19 8 -16 -14 5 -26 9 -6 14 -11 10 -11 -9 0 -78 41 -78 46
0 3 9 0 20 -6 18 -10 23 -7 22 10 0 3 7 6 17 6 10 0 18 -6 18 -12z m268 6 c3
-6 -1 -7 -9 -4 -18 7 -21 14 -7 14 6 0 13 -4 16 -10z m1413 -2 c-2 -7 4 -12
12 -10 8 1 4 -7 -10 -18 -28 -22 -40 -25 -40 -10 0 6 5 9 11 8 6 -2 14 3 16
10 3 6 -1 12 -9 12 -10 0 -9 3 2 10 19 13 20 12 18 -2z m126 4 c2 -4 -4 -8
-14 -8 -10 0 -16 4 -14 8 3 4 9 8 14 8 5 0 11 -4 14 -8z m-1294 -12 c-35 -24
-54 -31 -30 -11 14 11 30 21 35 21 6 0 3 -5 -5 -10z m-415 -10 c-3 -5 -12 -10
-18 -10 -7 0 -6 4 3 10 19 12 23 12 15 0z m135 6 c0 -2 -7 -7 -16 -10 -8 -3
-12 -2 -9 4 6 10 25 14 25 6z m90 -22 c0 -2 -9 0 -20 6 -11 6 -20 13 -20 16 0
2 9 0 20 -6 11 -6 20 -13 20 -16z m460 2 c0 -10 -30 0 -34 11 -4 11 -1 11 14
3 11 -6 20 -12 20 -14z m120 19 c0 -2 -10 -9 -22 -15 -22 -11 -22 -10 -4 4 21
17 26 19 26 11z m134 -3 c2 -4 -4 -8 -14 -8 -10 0 -16 4 -14 8 3 4 9 8 14 8 5
0 11 -4 14 -8z m246 -12 c-14 -11 -29 -20 -35 -20 -5 0 4 9 20 20 38 25 48 25
15 0z m155 10 c3 -6 -1 -7 -9 -4 -18 7 -21 14 -7 14 6 0 13 -4 16 -10z m-895
-4 c0 -2 -16 -13 -35 -25 -19 -11 -35 -18 -35 -16 0 5 61 45 68 45 1 0 2 -2 2
-4z m1270 -1 c0 -2 -10 -9 -22 -15 -22 -11 -22 -10 -4 4 21 17 26 19 26 11z
m-320 -31 c0 -2 -9 0 -20 6 -11 6 -20 13 -20 16 0 2 9 0 20 -6 11 -6 20 -13
20 -16z m-1530 -6 c0 -6 -6 -5 -15 2 -8 7 -15 14 -15 16 0 2 7 1 15 -2 8 -4
15 -11 15 -16z m121 -1 c-10 -9 -11 -8 -5 6 3 10 9 15 12 12 3 -3 0 -11 -7
-18z m282 8 c4 -8 2 -17 -3 -20 -6 -4 -10 3 -10 14 0 25 6 27 13 6z m927 0 c0
-8 -4 -15 -10 -15 -5 0 -7 7 -4 15 4 8 8 15 10 15 2 0 4 -7 4 -15z m-860 1 c0
-3 -4 -8 -10 -11 -5 -3 -10 -1 -10 4 0 6 5 11 10 11 6 0 10 -2 10 -4z m370
-27 c0 -4 -11 -2 -25 4 -14 7 -25 15 -25 19 0 4 11 2 25 -4 14 -6 25 -15 25
-19z m800 -1 c0 -5 -11 -1 -25 8 -14 9 -25 18 -25 20 0 2 11 -2 25 -8 14 -6
25 -15 25 -20z m93 12 c3 -11 2 -22 -2 -24 -4 -3 -8 6 -9 20 -2 29 4 31 11 4z
m-1699 -6 c3 -8 2 -12 -4 -9 -6 3 -10 10 -10 16 0 14 7 11 14 -7z m1258 -6
c-7 -7 -12 -8 -12 -2 0 14 12 26 19 19 2 -3 -1 -11 -7 -17z m-852 2 c0 -5 -2
-10 -4 -10 -3 0 -8 5 -11 10 -3 6 -1 10 4 10 6 0 11 -4 11 -10z m46 -5 c-23
-17 -36 -19 -36 -6 0 5 8 12 18 14 32 9 37 6 18 -8z m414 11 c0 -3 -4 -8 -10
-11 -5 -3 -10 -1 -10 4 0 6 5 11 10 11 6 0 10 -2 10 -4z m340 -6 c0 -5 -2 -10
-4 -10 -3 0 -8 5 -11 10 -3 6 -1 10 4 10 6 0 11 -4 11 -10z m-731 -29 c-13
-11 -26 -17 -29 -14 -3 2 6 13 20 23 32 24 40 16 9 -9z m361 19 c0 -5 -4 -10
-10 -10 -5 0 -10 5 -10 10 0 6 5 10 10 10 6 0 10 -4 10 -10z m400 0 c0 -5 -4
-10 -10 -10 -5 0 -10 5 -10 10 0 6 5 10 10 10 6 0 10 -4 10 -10z m346 -17 c-7
-7 -26 7 -26 19 0 6 6 6 15 -2 9 -7 13 -15 11 -17z m-1491 7 c-3 -5 -11 -10
-16 -10 -6 0 -7 5 -4 10 3 6 11 10 16 10 6 0 7 -4 4 -10z m1156 -12 c10 7 19
8 19 2 0 -21 -36 -29 -66 -14 -45 23 -54 38 -11 18 31 -15 42 -16 58 -6z
m-841 -10 c0 -6 -6 -5 -15 2 -8 7 -15 14 -15 16 0 2 7 1 15 -2 8 -4 15 -11 15
-16z m1260 12 c0 -5 -5 -10 -11 -10 -5 0 -7 5 -4 10 3 6 8 10 11 10 2 0 4 -4
4 -10z m-1637 -26 c-4 -12 -8 -13 -14 -3 -9 15 -2 32 11 24 5 -3 6 -13 3 -21z
m777 16 c0 -5 -2 -10 -4 -10 -3 0 -8 5 -11 10 -3 6 -1 10 4 10 6 0 11 -4 11
-10z m46 -5 c-23 -17 -36 -19 -36 -6 0 5 8 12 18 14 32 9 37 6 18 -8z m784 -4
c0 -4 -9 -7 -20 -7 -11 0 -20 6 -20 12 0 7 8 10 20 7 11 -3 20 -8 20 -12z
m-1200 5 c0 -3 -4 -8 -10 -11 -5 -3 -10 -1 -10 4 0 6 5 11 10 11 6 0 10 -2 10
-4z m857 -28 c-3 -7 -5 -2 -5 12 0 14 2 19 5 13 2 -7 2 -19 0 -25z m340 -35
c-3 -10 -5 -4 -5 12 0 17 2 24 5 18 2 -7 2 -21 0 -30z m-1610 -5 c-3 -7 -5 -2
-5 12 0 14 2 19 5 13 2 -7 2 -19 0 -25z m-54 -33 c3 -19 -1 -29 -17 -37 -17
-9 -19 -8 -8 3 6 7 12 23 12 36 0 30 6 29 13 -2z m62 5 c3 -5 1 -10 -4 -10 -6
0 -11 5 -11 10 0 6 2 10 4 10 3 0 8 -4 11 -10z m336 -32 c2 -20 0 -40 -4 -44
-4 -4 -7 14 -7 41 0 56 7 57 11 3z m99 17 c10 -11 6 -12 -19 -2 -17 6 -31 14
-31 18 0 11 38 -2 50 -16z m386 9 c17 -14 17 -15 1 -10 -10 3 -23 6 -28 6 -5
0 -9 5 -9 10 0 14 13 12 36 -6z m399 0 c19 -15 19 -15 -6 -9 -17 4 -39 0 -58
-9 -41 -21 -40 -14 2 13 38 25 37 24 62 5z m389 7 c3 -5 -5 -11 -19 -13 -28
-6 -35 8 -7 15 9 3 18 5 19 6 1 0 4 -3 7 -8z m-1234 -11 c0 -5 -5 -10 -11 -10
-5 0 -7 5 -4 10 3 6 8 10 11 10 2 0 4 -4 4 -10z m400 0 c0 -5 -5 -10 -11 -10
-5 0 -7 5 -4 10 3 6 8 10 11 10 2 0 4 -4 4 -10z m-715 -20 c3 -6 -1 -7 -9 -4
-18 7 -21 14 -7 14 6 0 13 -4 16 -10z m679 -5 c-4 -8 -8 -15 -10 -15 -2 0 -4
7 -4 15 0 8 4 15 10 15 5 0 7 -7 4 -15z m123 -7 c-3 -8 -6 -5 -6 6 -1 11 2 17
5 13 3 -3 4 -12 1 -19z m688 12 c-3 -5 -11 -10 -16 -10 -6 0 -7 5 -4 10 3 6
11 10 16 10 6 0 7 -4 4 -10z m43 -51 c-11 -8 -11 -10 0 -18 11 -7 10 -9 -3
-15 -9 -3 -13 -11 -10 -17 4 -6 13 -8 21 -5 22 8 17 -2 -7 -15 -15 -8 -19 -8
-15 0 4 6 0 14 -9 17 -14 6 -14 8 1 19 12 8 14 14 6 19 -16 10 -15 27 1 24 7
-2 14 10 16 27 l5 30 4 -29 c2 -17 -2 -32 -10 -37z m76 2 c-9 -12 -20 13 -16
36 l6 28 6 -30 c4 -16 5 -32 4 -34z m-1670 24 c-4 -9 9 -21 35 -35 23 -11 41
-23 41 -26 0 -3 -4 -2 -10 1 -12 8 -61 -25 -54 -36 3 -5 -2 -6 -11 -3 -14 6
-14 8 2 19 17 13 17 14 0 21 -14 5 -16 9 -6 15 25 15 -1 22 -28 8 -16 -7 -31
-15 -35 -17 -5 -2 -8 1 -8 7 0 6 3 10 8 9 12 -4 52 22 52 33 0 6 -8 8 -17 5
-16 -5 -15 -4 1 9 22 16 38 11 30 -10z m446 -6 l25 -20 -32 15 c-38 19 -73 21
-73 4 0 -6 -3 -8 -7 -4 -11 11 25 35 45 29 9 -2 28 -13 42 -24z m50 7 c0 -2
-9 -2 -20 1 -11 3 -20 9 -20 15 0 5 9 4 20 -2 11 -6 20 -12 20 -14z m324 11
c15 -11 12 -12 -24 -12 -36 0 -39 1 -24 12 10 7 21 13 24 13 3 0 14 -6 24 -13z
m399 -1 c9 -7 17 -17 17 -21 0 -4 -7 -2 -15 5 -9 7 -26 10 -42 6 -27 -6 -27
-6 -9 9 24 18 26 18 49 1z m-1123 -53 c0 -2 -18 6 -40 18 -22 13 -40 26 -40
31 0 5 18 -4 40 -18 22 -15 40 -29 40 -31z m1480 49 c0 -5 -12 -14 -27 -21
l-28 -12 25 21 c29 22 30 23 30 12z m58 -17 c-3 -3 -9 2 -12 12 -6 14 -5 15 5
6 7 -7 10 -15 7 -18z m-1688 0 c0 -2 -10 -10 -22 -16 -21 -11 -22 -11 -9 4 13
16 31 23 31 12z m450 -13 c-8 -3 -35 -16 -60 -30 -55 -31 -48 -21 11 17 24 16
48 26 54 23 5 -3 2 -8 -5 -10z m350 14 c0 -3 -4 -8 -10 -11 -5 -3 -10 -1 -10
4 0 6 5 11 10 11 6 0 10 -2 10 -4z m460 -6 c0 -5 -5 -10 -11 -10 -5 0 -7 5 -4
10 3 6 8 10 11 10 2 0 4 -4 4 -10z m60 0 c0 -5 -2 -10 -4 -10 -3 0 -8 5 -11
10 -3 6 -1 10 4 10 6 0 11 -4 11 -10z m-790 -46 c0 -2 -13 2 -29 11 -32 16
-54 3 -24 -14 10 -6 13 -11 8 -11 -6 0 -16 5 -22 11 -6 6 -17 8 -23 4 -9 -6
-6 -13 11 -28 l24 -19 -28 17 c-16 9 -35 14 -43 11 -9 -3 -12 -1 -9 4 3 6 12
10 18 10 7 0 23 9 37 19 22 17 27 18 52 5 15 -8 28 -17 28 -20z m400 0 c0 -2
-13 2 -29 11 -19 9 -32 11 -36 5 -3 -6 5 -14 19 -20 14 -5 26 -12 26 -14 0 -3
-7 -3 -15 0 -8 4 -22 1 -29 -5 -11 -9 -19 -9 -35 0 -19 13 -19 14 12 35 29 20
35 20 60 8 15 -8 27 -17 27 -20z m358 -4 c6 0 14 -4 17 -10 3 -6 -1 -7 -10 -4
-8 4 -22 1 -30 -6 -12 -10 -18 -10 -30 0 -8 6 -20 9 -27 5 -7 -4 -3 2 10 12
18 15 20 21 10 32 -7 8 1 5 19 -7 17 -12 36 -22 41 -22z m22 19 c17 -13 18
-17 5 -10 -33 17 -51 31 -40 31 6 0 21 -10 35 -21z m400 1 c14 -11 18 -19 10
-18 -8 2 -14 -2 -13 -9 2 -7 -4 -10 -13 -6 -13 5 -13 7 -2 15 10 7 9 11 -6 23
-11 8 -16 15 -10 15 5 0 20 -9 34 -20z m-1439 -4 c-14 -17 2 -31 22 -20 9 5 9
4 1 -5 -9 -10 -16 -10 -32 0 -19 12 -19 14 -4 26 22 16 27 16 13 -1z m539 9
c0 -2 -10 -9 -22 -15 -22 -11 -22 -10 -4 4 21 17 26 19 26 11z m400 0 c0 -2
-10 -9 -22 -15 -22 -11 -22 -10 -4 4 21 17 26 19 26 11z m252 -9 c10 6 11 4 0
-7 -10 -11 -15 -10 -30 6 -15 17 -15 18 0 6 9 -7 23 -9 30 -5z m-790 -41 c-16
-12 -24 -12 -46 -2 -14 7 -26 15 -26 20 0 11 24 4 36 -12 6 -8 16 -11 24 -6
10 6 7 13 -11 27 l-24 19 34 -16 c32 -16 32 -17 13 -30z m388 31 c-7 -7 -13
-7 -20 0 -6 6 -3 10 10 10 13 0 16 -4 10 -10z m540 10 c0 -2 -7 -7 -16 -10 -8
-3 -12 -2 -9 4 6 10 25 14 25 6z m-1378 -21 c7 4 5 0 -4 -8 -22 -17 -23 -27
-3 -27 8 0 15 -4 15 -10 0 -15 -6 -13 -50 16 -42 28 -54 42 -21 24 31 -16 46
-13 30 8 -13 15 -12 16 3 4 9 -8 23 -11 30 -7z m-202 1 c0 -2 -7 -7 -16 -10
-8 -3 -12 -2 -9 4 6 10 25 14 25 6z m720 -16 c-27 -21 -40 -25 -40 -12 0 5 12
13 28 19 39 16 40 15 12 -7z m285 2 c-3 -3 -11 0 -18 7 -9 10 -8 11 6 5 10 -3
15 -9 12 -12z m60 8 c3 -5 1 -10 -4 -10 -6 0 -11 5 -11 10 0 6 2 10 4 10 3 0
8 -4 11 -10z m352 -10 c12 -13 14 -13 26 1 10 13 17 14 41 4 20 -8 25 -15 16
-20 -7 -4 -16 -2 -21 6 -7 11 -12 12 -29 1 -17 -10 -24 -10 -45 4 -14 9 -25
18 -25 20 0 9 26 -2 37 -16z m400 3 c0 -8 -6 -9 -19 -2 -10 5 -18 11 -18 12 0
2 8 3 18 3 10 0 19 -6 19 -13z m-1497 2 c0 -2 -9 -9 -20 -15 -12 -6 -20 -7
-20 -1 0 5 8 12 18 14 9 3 18 5 20 6 1 0 2 -1 2 -4z m660 -16 c0 -5 7 -9 15
-9 8 0 15 -5 15 -10 0 -6 -13 -4 -29 5 -36 18 -48 35 -21 28 11 -3 20 -9 20
-14z m400 0 c0 -14 -16 -11 -29 5 -10 12 -8 13 8 9 12 -3 21 -9 21 -14z
m-1140 -1 c0 -4 6 -8 14 -8 9 0 12 -10 9 -35 -4 -36 4 -44 25 -23 6 6 14 9 18
6 3 -4 -8 -14 -25 -23 l-31 -16 0 35 c0 22 -7 42 -20 54 -16 14 -17 19 -5 19
8 0 15 -4 15 -9z m335 2 c3 -5 2 -10 -4 -10 -5 0 -13 5 -16 10 -3 6 -2 10 4
10 5 0 13 -4 16 -10z m530 0 c-3 -5 -10 -10 -16 -10 -5 0 -9 5 -9 10 0 6 7 10
16 10 8 0 12 -4 9 -10z m675 0 c0 -5 -2 -10 -4 -10 -3 0 -8 5 -11 10 -3 6 -1
10 4 10 6 0 11 -4 11 -10z m-1915 -20 c-3 -5 -11 -10 -16 -10 -6 0 -7 5 -4 10
3 6 11 10 16 10 6 0 7 -4 4 -10z m745 0 c0 -5 -2 -10 -4 -10 -3 0 -8 5 -11 10
-3 6 -1 10 4 10 6 0 11 -4 11 -10z m60 6 c0 -3 -4 -8 -10 -11 -5 -3 -10 -1
-10 4 0 6 5 11 10 11 6 0 10 -2 10 -4z m386 -11 c-11 -8 -24 -15 -30 -15 -5 0
-1 7 10 15 10 8 24 14 29 14 6 0 1 -6 -9 -14z m368 0 c11 -8 15 -15 10 -15 -6
0 -19 7 -30 15 -10 8 -14 14 -9 14 6 0 19 -6 29 -14z m46 11 c0 -3 -4 -8 -10
-11 -5 -3 -10 -1 -10 4 0 6 5 11 10 11 6 0 10 -2 10 -4z m350 -6 c0 -5 -4 -10
-9 -10 -6 0 -13 5 -16 10 -3 6 1 10 9 10 9 0 16 -4 16 -10z m-1910 -5 c0 -2
-10 -10 -22 -16 -21 -11 -22 -11 -9 4 13 16 31 23 31 12z m260 -5 c0 -5 -2
-10 -4 -10 -3 0 -8 5 -11 10 -3 6 -1 10 4 10 6 0 11 -4 11 -10z m130 0 c0 -5
-5 -10 -11 -10 -5 0 -7 5 -4 10 3 6 8 10 11 10 2 0 4 -4 4 -10z m400 2 c0 -5
-12 -14 -27 -21 l-28 -12 25 21 c29 22 30 23 30 12z m270 -2 c0 -5 -2 -10 -4
-10 -3 0 -8 5 -11 10 -3 6 -1 10 4 10 6 0 11 -4 11 -10z m127 -12 c-3 -8 -6
-5 -6 6 -1 11 2 17 5 13 3 -3 4 -12 1 -19z m278 12 c3 -5 2 -10 -4 -10 -5 0
-13 5 -16 10 -3 6 -2 10 4 10 5 0 13 -4 16 -10z m127 -13 c3 -13 1 -32 -3 -43
-5 -13 -8 -7 -8 24 -1 46 4 55 11 19z m273 13 c3 -5 2 -10 -4 -10 -5 0 -13 5
-16 10 -3 6 -2 10 4 10 5 0 13 -4 16 -10z m-1535 -4 c0 -3 -4 -8 -10 -11 -5
-3 -10 -1 -10 4 0 6 5 11 10 11 6 0 10 -2 10 -4z m-35 -16 c3 -5 1 -10 -4 -10
-6 0 -11 5 -11 10 0 6 2 10 4 10 3 0 8 -4 11 -10z m400 0 c3 -5 2 -10 -4 -10
-5 0 -13 5 -16 10 -3 6 -2 10 4 10 5 0 13 -4 16 -10z m400 0 c3 -6 -1 -7 -9
-4 -18 7 -21 14 -7 14 6 0 13 -4 16 -10z m65 -5 c-7 -8 -22 -15 -34 -15 -20 0
-19 1 4 14 34 19 45 19 30 1z m400 5 c0 -5 -5 -10 -11 -10 -5 0 -7 5 -4 10 3
6 8 10 11 10 2 0 4 -4 4 -10z m-465 -49 c-3 -2 -11 1 -18 7 -8 7 -17 9 -20 5
-4 -3 -7 3 -7 15 l0 20 24 -21 c14 -12 23 -24 21 -26z m-1095 35 c0 -2 -7 -7
-16 -10 -8 -3 -12 -2 -9 4 6 10 25 14 25 6z m257 -28 c-3 -7 -5 -2 -5 12 0 14
2 19 5 13 2 -7 2 -19 0 -25z m73 28 c0 -3 -4 -8 -10 -11 -5 -3 -10 -1 -10 4 0
6 5 11 10 11 6 0 10 -2 10 -4z m470 -1 c0 -2 -15 -12 -32 -20 l-33 -16 25 20
c24 20 40 26 40 16z m380 -15 c-14 -11 -29 -20 -35 -20 -5 0 1 9 15 20 14 11
30 20 35 20 6 0 -1 -9 -15 -20z m285 10 c3 -5 2 -10 -4 -10 -5 0 -13 5 -16 10
-3 6 -2 10 4 10 5 0 13 -4 16 -10z m65 0 c0 -5 -2 -10 -4 -10 -3 0 -8 5 -11
10 -3 6 -1 10 4 10 6 0 11 -4 11 -10z m335 0 c3 -5 1 -10 -4 -10 -6 0 -11 5
-11 10 0 6 2 10 4 10 3 0 8 -4 11 -10z m-1570 -20 c3 -5 2 -10 -4 -10 -5 0
-13 5 -16 10 -3 6 -2 10 4 10 5 0 13 -4 16 -10z m400 0 c3 -5 2 -10 -4 -10 -5
0 -13 5 -16 10 -3 6 -2 10 4 10 5 0 13 -4 16 -10z m865 0 c0 -5 -5 -10 -11
-10 -5 0 -7 5 -4 10 3 6 8 10 11 10 2 0 4 -4 4 -10z m340 0 c0 -5 -2 -10 -4
-10 -3 0 -8 5 -11 10 -3 6 -1 10 4 10 6 0 11 -4 11 -10z"/>
<path d="M217 1854 c-11 -11 3 -24 18 -18 8 4 12 10 9 15 -6 11 -18 12 -27 3z"/>
<path d="M985 1871 c-7 -12 12 -24 25 -16 11 7 4 25 -10 25 -5 0 -11 -4 -15
-9z"/>
<path d="M555 1549 c-10 -15 1 -23 20 -15 9 3 13 10 10 16 -8 13 -22 13 -30
-1z"/>
<path d="M585 1531 c-7 -12 12 -24 25 -16 11 7 4 25 -10 25 -5 0 -11 -4 -15
-9z"/>
<path d="M1171 821 c-16 -12 -20 -20 -12 -25 7 -4 18 -2 26 4 12 10 18 10 30
0 15 -13 39 -5 29 11 -3 5 -9 7 -14 4 -4 -3 -10 2 -14 10 -7 19 -16 19 -45 -4z"/>
<path d="M1586 791 c-3 -5 1 -11 9 -15 15 -6 29 7 18 18 -9 9 -21 8 -27 -3z"/>
<path d="M985 481 c-7 -12 12 -24 25 -16 11 7 4 25 -10 25 -5 0 -11 -4 -15 -9z"/>
<path d="M1385 481 c-7 -12 12 -24 25 -16 11 7 4 25 -10 25 -5 0 -11 -4 -15
-9z"/>
<path d="M215 160 c-8 -13 15 -24 27 -12 6 6 4 11 -6 15 -8 3 -18 2 -21 -3z"/>
<path d="M985 141 c-7 -12 12 -24 25 -16 11 7 4 25 -10 25 -5 0 -11 -4 -15 -9z"/>
<path d="M1385 141 c-7 -12 12 -24 25 -16 11 7 4 25 -10 25 -5 0 -11 -4 -15
-9z"/>
</g>
</svg>
