<?xml version="1.0" standalone="no"?>
<!DOCTYPE svg PUBLIC "-//W3C//DTD SVG 20010904//EN"
 "http://www.w3.org/TR/2001/REC-SVG-20010904/DTD/svg10.dtd">
<svg version="1.0" xmlns="http://www.w3.org/2000/svg"
 width="200.000000pt" height="200.000000pt" viewBox="0 0 200.000000 200.000000"
 preserveAspectRatio="xMidYMid meet">
<metadata>
Created by potrace 1.16, written by Peter Selinger 2001-2019
</metadata>
<g transform="translate(0.000000,200.000000) scale(0.100000,-0.100000)"
fill="#000000" stroke="none">
<path d="M0 1862 c0 -96 4 -142 12 -150 10 -10 10 -17 0 -32 -17 -28 -17
-1332 0 -1360 10 -15 10 -22 0 -32 -8 -8 -12 -54 -12 -150 l0 -138 270 0 c226
0 276 3 301 16 28 14 33 14 54 0 19 -12 52 -16 141 -16 101 0 118 2 132 19 10
10 35 29 58 41 l41 22 52 -26 c29 -15 54 -33 58 -41 4 -11 23 -15 74 -15 65 0
69 1 69 23 0 17 17 32 76 65 l75 43 74 -43 c58 -33 75 -48 75 -65 0 -20 5 -23
35 -23 33 0 35 2 35 33 0 30 6 35 91 85 l91 52 94 -56 c92 -53 95 -56 89 -85
-4 -19 -3 -29 5 -29 7 0 10 22 8 67 l-3 67 -70 41 -70 42 0 88 0 89 70 41 70
42 3 145 3 146 -101 58 -100 59 0 115 0 115 100 59 100 58 0 133 0 133 -85 48
-85 49 0 101 0 100 85 48 85 48 0 54 0 54 -35 0 c-28 0 -35 -4 -35 -19 0 -13
-20 -31 -65 -56 l-65 -36 -65 38 c-40 24 -65 45 -65 56 0 15 -10 17 -74 17
-70 0 -78 -2 -132 -39 l-59 -40 -49 27 c-26 15 -51 32 -53 39 -4 10 -36 13
-118 13 -97 0 -119 -3 -149 -21 l-35 -20 -40 20 c-39 20 -56 21 -501 21 l-460
0 0 -138z m1676 -48 l64 -36 0 -83 0 -83 -69 -40 -68 -39 -72 40 -71 41 0 81
0 80 63 37 c34 20 68 37 75 38 8 0 43 -16 78 -36z m-425 -31 l49 -28 0 -61 0
-61 -50 -27 -50 -27 -50 28 -50 28 0 60 0 60 48 27 c26 15 49 28 51 28 1 0 25
-12 52 -27z m-420 -39 c26 -13 30 -20 27 -50 -2 -26 -10 -40 -30 -52 -26 -16
-30 -16 -55 0 -21 12 -29 26 -31 52 -3 29 1 37 25 50 35 19 29 19 64 0z m-431
-44 c-12 -8 -12 -10 -1 -10 8 0 12 -3 8 -6 -9 -9 -28 6 -22 17 4 5 12 9 18 9
7 0 6 -4 -3 -10z m1480 -216 l80 -46 0 -91 0 -92 -75 -42 c-41 -24 -80 -43
-87 -42 -7 0 -44 19 -83 43 l-70 42 -3 86 c-2 61 1 90 10 98 11 10 137 87 146
89 2 1 39 -20 82 -45z m-413 -30 l64 -35 -3 -72 -3 -72 -60 -36 -60 -37 -55
30 c-30 17 -62 37 -70 45 -8 8 12 -1 45 -21 33 -20 66 -36 74 -36 7 0 38 14
68 31 l54 31 -3 66 -3 66 -57 34 -58 34 -47 -27 c-27 -15 -56 -35 -65 -43 -10
-8 -18 -10 -18 -4 0 8 114 80 129 82 2 0 33 -16 68 -36z m-420 -29 c42 -25 43
-27 43 -79 0 -53 0 -53 -45 -77 l-45 -24 -45 24 c-45 24 -45 24 -45 77 0 52 1
53 43 78 23 14 44 26 46 26 2 0 24 -11 48 -25z m-397 -75 c0 -42 -41 -68 -75
-50 -14 7 -23 15 -20 18 2 3 12 -1 20 -8 25 -21 65 2 65 38 0 39 -34 55 -70
34 l-25 -14 25 20 c22 18 27 19 52 6 21 -11 28 -22 28 -44z m627 -27 c-2 -16
-4 -5 -4 22 0 28 2 40 4 28 2 -13 2 -35 0 -50z m-1069 26 c-2 -6 -8 -10 -13
-10 -5 0 -11 4 -13 10 -2 6 4 11 13 11 9 0 15 -5 13 -11z m1550 -241 c8 -7 12
-42 12 -109 l0 -99 -37 -23 c-21 -13 -59 -35 -84 -49 l-46 -27 -84 48 -84 48
0 103 0 103 83 47 84 48 71 -40 c40 -22 78 -45 85 -50z m-440 -31 c9 -7 12
-32 10 -80 l-3 -70 -61 -38 -62 -37 -63 36 -64 37 -1 50 -2 50 7 -48 c6 -46 8
-49 64 -80 l58 -32 57 32 57 31 0 72 0 72 -57 31 -57 32 -56 -30 c-31 -16 -61
-39 -66 -50 -9 -20 -9 -20 -6 0 1 12 26 33 66 56 l63 37 51 -30 c29 -17 58
-35 65 -41z m-470 -17 c46 -28 40 -35 -7 -8 -38 22 -40 22 -75 5 -33 -15 -36
-21 -36 -57 0 -36 3 -42 36 -57 34 -17 37 -17 66 0 17 10 33 15 36 13 2 -3
-12 -13 -32 -23 -36 -17 -39 -17 -74 2 -33 18 -37 25 -40 62 -3 39 0 44 30 63
41 25 55 25 96 0z m-433 -60 c0 -22 -29 -18 -33 3 -3 14 1 18 15 15 10 -2 18
-10 18 -18z m462 -12 c-3 -7 -5 -2 -5 12 0 14 2 19 5 13 2 -7 2 -19 0 -25z
m992 -223 l61 -36 0 -77 0 -77 -63 -36 c-69 -41 -66 -41 -159 18 l-38 23 0 74
0 74 63 36 c34 19 65 35 69 36 4 0 34 -16 67 -35z m-418 -22 l49 -28 -2 -50
-2 -50 -3 47 c-4 43 -7 49 -49 73 l-44 26 -45 -27 c-45 -26 -45 -26 -45 -82
l0 -57 46 -24 46 -25 36 20 c19 10 42 26 50 34 12 12 14 12 11 1 -3 -8 -26
-26 -52 -40 l-46 -26 -48 27 -48 27 -3 63 -3 63 48 27 c26 15 50 28 52 28 1 0
25 -12 52 -27z m-427 -22 c4 -5 -3 -7 -13 -4 -10 3 -30 0 -42 -7 -23 -11 -23
-10 -5 4 22 18 52 21 60 7z m44 -69 c-3 -40 -7 -49 -35 -65 -32 -18 -34 -18
-65 0 -29 17 -33 24 -34 63 l-1 45 4 -43 c3 -35 9 -45 34 -57 27 -14 32 -14
59 2 24 14 30 24 30 53 0 20 -6 42 -12 49 -11 10 -9 11 5 5 14 -5 17 -16 15
-52z m-447 38 c23 -13 25 -52 4 -70 -16 -13 -65 -6 -65 10 0 6 8 5 19 -1 26
-17 51 -4 51 25 0 29 -23 40 -53 25 -21 -10 -21 -10 -3 5 23 19 22 19 47 6z
m-411 -40 c0 -5 -4 -10 -9 -10 -6 0 -13 5 -16 10 -3 6 1 10 9 10 9 0 16 -4 16
-10z m1455 -241 l55 -31 0 -72 0 -71 -57 -34 -56 -34 -64 34 -63 34 0 70 0 70
53 32 c28 17 58 32 65 32 7 1 37 -13 67 -30z m-412 -34 c33 -23 37 -30 37 -70
0 -41 -3 -47 -40 -70 -49 -31 -51 -31 -100 0 -34 22 -40 30 -38 58 l1 32 4
-33 c4 -27 12 -37 47 -53 l42 -21 37 22 c36 21 38 25 35 67 -3 39 -7 47 -41
66 -37 21 -38 21 -70 3 -17 -10 -38 -26 -44 -34 -8 -9 -13 -11 -13 -4 0 14 68
61 90 61 9 1 32 -10 53 -24z m-428 -27 c34 -15 35 -61 1 -83 -36 -24 -76 -3
-76 40 0 28 13 43 47 54 1 1 14 -4 28 -11z m-415 -43 c0 -8 -4 -15 -9 -15 -13
0 -22 16 -14 24 11 11 23 6 23 -9z"/>
<path d="M1528 1804 l-58 -35 0 -74 0 -74 62 -36 c69 -41 79 -40 151 5 l48 31
-3 76 -3 77 -55 32 c-30 18 -62 33 -70 33 -8 0 -41 -16 -72 -35z"/>
<path d="M1153 1774 c-42 -25 -43 -27 -43 -80 0 -53 1 -53 45 -80 l45 -26 45
26 c45 27 45 27 45 81 0 53 -1 55 -43 80 -24 14 -46 25 -48 25 -2 -1 -23 -12
-46 -26z"/>
<path d="M773 1738 c-31 -15 -32 -68 -2 -86 17 -11 27 -11 50 -2 24 10 29 19
29 45 0 24 -6 34 -25 43 -14 7 -27 12 -28 11 -1 0 -12 -5 -24 -11z"/>
<path d="M1726 1474 l-76 -44 0 -83 0 -83 74 -42 c40 -23 76 -42 79 -42 3 0
37 18 76 41 l72 41 -3 86 -3 86 -72 42 -71 42 -76 -44z"/>
<path d="M957 1418 c-37 -22 -38 -24 -35 -73 3 -47 6 -51 41 -70 l37 -20 38
21 c34 20 37 26 40 70 2 48 1 50 -37 72 -22 12 -41 22 -43 22 -2 0 -20 -10
-41 -22z"/>
<path d="M1513 1137 l-72 -42 -1 -95 0 -95 75 -42 c41 -24 80 -43 87 -43 6 0
45 19 85 42 l73 42 0 97 0 97 -75 41 c-41 23 -80 41 -87 40 -7 0 -45 -19 -85
-42z"/>
<path d="M390 1000 c0 -5 5 -10 10 -10 6 0 10 5 10 10 0 6 -4 10 -10 10 -5 0
-10 -4 -10 -10z"/>
<path d="M1740 757 l-55 -33 0 -73 0 -73 60 -33 60 -33 58 35 57 34 0 72 0 72
-59 33 c-32 17 -60 32 -62 32 -2 0 -29 -15 -59 -33z"/>
<path d="M1542 399 l-53 -30 3 -65 3 -66 55 -30 55 -31 53 33 53 32 -3 66 -3
66 -45 27 c-25 15 -49 28 -55 28 -5 1 -34 -13 -63 -30z"/>
<path d="M778 339 c-44 -25 -3 -93 42 -69 26 14 26 56 1 70 -23 12 -22 12 -43
-1z"/>
<path d="M973 1984 c24 -13 30 -13 55 0 27 15 26 15 -28 15 -54 0 -55 0 -27
-15z"/>
<path d="M1310 1991 c0 -4 20 -19 44 -31 47 -26 72 -22 126 20 l25 20 -97 0
c-54 0 -98 -4 -98 -9z"/>
<path d="M1680 1985 c0 -8 27 -30 61 -50 l60 -35 57 33 c31 18 58 41 60 50 3
15 -9 17 -117 17 -99 0 -121 -3 -121 -15z"/>
<path d="M1918 1834 l-78 -46 0 -94 0 -93 78 -45 77 -45 3 95 c1 52 1 135 0
184 l-3 89 -77 -45z"/>
<path d="M1 1694 c0 -11 3 -14 6 -6 3 7 2 16 -1 19 -3 4 -6 -2 -5 -13z"/>
<path d="M1903 1163 l-93 -55 0 -108 0 -108 95 -55 95 -56 0 220 c0 120 -1
219 -2 218 -2 -1 -45 -26 -95 -56z"/>
<path d="M1923 423 l-63 -37 0 -81 0 -80 65 -37 c35 -21 66 -38 69 -38 3 0 6
70 6 155 0 85 -3 155 -7 155 -5 0 -36 -17 -70 -37z"/>
<path d="M1 304 c0 -11 3 -14 6 -6 3 7 2 16 -1 19 -3 4 -6 -2 -5 -13z"/>
<path d="M1716 108 c-77 -44 -86 -53 -86 -79 l0 -29 171 0 170 0 -3 31 c-3 27
-13 37 -84 79 l-81 47 -87 -49z"/>
<path d="M1328 78 c-46 -27 -68 -46 -68 -59 0 -18 9 -19 140 -19 132 0 140 1
140 20 0 13 -21 31 -69 60 -38 22 -71 40 -73 39 -2 0 -33 -19 -70 -41z"/>
<path d="M948 44 c-27 -13 -48 -29 -48 -34 0 -6 41 -10 100 -10 55 0 100 4
100 8 0 8 -91 63 -101 62 -2 -1 -25 -12 -51 -26z"/>
<path d="M580 10 c-11 -7 -6 -10 20 -10 26 0 31 3 20 10 -8 5 -17 10 -20 10
-3 0 -12 -5 -20 -10z"/>
</g>
</svg>
