<?xml version="1.0" standalone="no"?>
<!DOCTYPE svg PUBLIC "-//W3C//DTD SVG 20010904//EN"
 "http://www.w3.org/TR/2001/REC-SVG-20010904/DTD/svg10.dtd">
<svg version="1.0" xmlns="http://www.w3.org/2000/svg"
 width="200.000000pt" height="200.000000pt" viewBox="0 0 200.000000 200.000000"
 preserveAspectRatio="xMidYMid meet">
<metadata>
Created by potrace 1.16, written by Peter Selinger 2001-2019
</metadata>
<g transform="translate(0.000000,200.000000) scale(0.100000,-0.100000)"
fill="#000000" stroke="none">
<path d="M0 1109 c0 -622 4 -897 11 -911 8 -15 8 -19 0 -14 -8 5 -11 -12 -11
-54 0 -46 3 -59 13 -54 9 6 9 4 2 -7 -6 -8 -10 -25 -10 -39 l0 -25 179 -3 178
-3 -4 35 c-2 20 0 36 4 36 4 0 8 -15 8 -34 l0 -35 184 -1 c141 0 185 2 189 12
4 10 6 10 6 1 1 -7 6 -13 11 -13 6 0 10 22 9 50 -1 27 -6 50 -11 50 -4 0 -8
-8 -9 -17 -1 -13 -3 -11 -7 5 -5 14 -35 40 -82 68 -99 60 -68 50 45 -15 74
-42 123 -64 104 -47 -9 9 -188 113 -204 120 -10 3 -15 9 -12 13 4 3 18 -2 31
-11 30 -19 40 -21 30 -4 -4 7 -3 8 5 4 6 -4 9 -11 6 -16 -8 -12 53 -43 67 -34
7 4 8 3 4 -4 -3 -6 2 -16 13 -21 25 -14 34 -14 26 -1 -3 6 1 7 9 4 14 -6 47
10 145 69 19 12 31 16 28 10 -4 -6 -37 -28 -73 -48 -36 -20 -63 -39 -60 -42 3
-3 36 12 73 34 l68 39 3 93 c2 61 -1 98 -9 107 -10 12 -9 13 4 8 13 -4 17 -24
20 -87 l3 -82 2 85 2 86 -88 52 c-49 29 -94 52 -100 52 -6 0 -9 7 -6 15 5 12
8 12 20 1 7 -8 47 -32 88 -55 l74 -41 96 57 96 56 0 104 c0 67 4 102 10 98 5
-3 10 -2 10 2 0 9 -11 17 -90 61 -46 25 -57 28 -67 17 -10 -11 0 -21 54 -52
36 -21 68 -45 70 -53 3 -10 2 -11 -4 -4 -4 6 -41 30 -81 53 l-73 42 -57 -32
c-31 -17 -68 -39 -82 -48 -13 -9 -21 -11 -17 -5 8 14 141 94 155 94 5 0 14 6
20 13 8 10 6 16 -9 25 -12 8 -19 22 -18 40 2 23 2 24 6 5 3 -15 31 -39 90 -74
76 -46 87 -50 111 -40 23 9 24 9 11 -2 -25 -19 -2 -49 26 -35 11 5 7 -3 -10
-17 -29 -26 -29 -27 -5 -20 23 5 23 5 8 -8 -14 -11 -18 -29 -18 -82 0 -53 4
-71 18 -81 16 -13 16 -14 0 -8 -10 3 -18 2 -18 -2 0 -8 181 -114 194 -114 3 0
5 5 4 11 -3 11 165 119 183 119 5 0 9 5 9 10 0 7 -6 7 -19 0 -25 -13 -42 -13
-19 0 22 13 24 138 2 147 -8 3 -14 9 -14 14 0 4 7 6 15 3 22 -9 18 5 -7 27
-27 22 -12 25 16 4 11 -8 27 -15 35 -15 10 0 6 5 -9 13 -14 7 -58 32 -97 55
-39 23 -77 42 -85 41 -9 0 -9 -2 2 -7 26 -13 90 -54 90 -59 0 -2 -25 10 -56
27 -35 19 -61 27 -68 22 -27 -21 -129 -72 -106 -53 14 11 37 26 53 32 15 6 27
15 27 20 0 13 -5 12 -44 -12 -60 -35 -40 -14 24 25 l59 37 78 -46 c75 -43 100
-54 89 -37 -2 4 4 8 15 8 18 0 19 -1 4 -12 -15 -11 -15 -13 4 -23 17 -10 20
-9 14 5 -5 13 -2 15 17 9 17 -5 21 -4 15 5 -5 9 -4 11 3 6 16 -10 74 22 66 36
-5 7 -2 8 6 3 8 -5 19 -1 29 11 9 11 15 17 14 15 -3 -5 21 -29 27 -26 3 1 14
-6 25 -17 19 -19 19 -19 -18 -3 -34 14 -40 14 -67 0 -17 -9 -28 -20 -25 -25 3
-5 0 -12 -6 -16 -8 -4 -9 -3 -5 4 9 15 3 15 -29 0 -14 -6 -25 -19 -25 -30 0
-16 -11 -23 -32 -19 -5 0 -8 -4 -8 -10 0 -7 10 -9 28 -5 24 6 25 5 10 -7 -10
-8 -18 -23 -19 -33 0 -18 -1 -18 -9 1 -6 14 -8 2 -8 -40 1 -56 1 -57 8 -20 l7
40 2 -37 c0 -21 5 -38 10 -38 5 0 11 -12 13 -26 2 -20 17 -33 71 -62 41 -23
70 -33 75 -27 10 13 32 17 32 6 0 -18 65 -8 103 16 20 13 37 26 37 29 0 3 -5
2 -12 -2 -7 -5 -8 -3 -4 5 5 7 15 10 23 7 8 -3 11 -2 8 3 -3 6 2 14 12 19 23
13 26 129 4 155 -14 16 -13 17 5 11 18 -7 18 -7 2 13 -10 11 -18 25 -18 31 0
7 -5 12 -11 12 -5 0 -7 -5 -3 -11 4 -8 0 -8 -15 0 -24 13 -28 23 -6 15 27 -11
16 5 -15 21 -35 18 -44 19 -34 3 4 -7 3 -8 -5 -4 -6 4 -8 12 -5 18 5 8 1 9
-10 5 -11 -4 -15 -3 -10 4 4 8 -1 9 -17 4 -17 -4 -20 -3 -10 3 11 8 9 12 -9
22 -18 10 -21 9 -15 -1 6 -9 3 -11 -9 -6 -10 4 -20 7 -22 7 -2 0 -4 9 -4 20 0
11 5 20 11 20 5 0 7 -4 4 -10 -3 -5 -1 -10 4 -10 6 0 11 9 11 21 0 15 -5 19
-15 15 -8 -3 -15 -2 -15 3 0 16 39 19 57 4 17 -14 17 -14 1 -9 -14 4 -18 0
-18 -17 0 -18 2 -19 10 -7 9 14 11 13 14 -9 2 -15 16 -25 16 -12 0 7 5 9 10 6
6 -4 8 -10 5 -15 -8 -12 33 -33 47 -24 7 4 8 3 4 -4 -10 -16 26 -32 47 -21 10
6 15 14 12 20 -3 5 1 6 10 3 15 -6 16 12 14 189 -2 158 -5 194 -16 190 -9 -3
-13 3 -12 18 0 13 3 18 6 12 12 -32 21 -6 22 72 1 69 -1 86 -14 91 -8 3 -15
11 -15 16 0 6 6 5 15 -2 13 -11 15 -5 13 41 -1 30 -7 60 -12 68 -8 11 -8 13 2
7 9 -6 12 28 12 155 0 153 -1 163 -22 180 -23 21 -43 25 -32 7 4 -7 3 -8 -4
-4 -13 8 -77 -22 -68 -31 3 -4 1 -12 -5 -19 -8 -10 -14 -11 -24 -1 -7 7 -11
15 -8 20 2 4 0 7 -6 7 -6 0 -8 -14 -5 -32 4 -28 3 -30 -5 -10 -14 30 -19 28
-13 -4 3 -19 1 -25 -7 -20 -6 4 -9 11 -6 16 3 5 1 11 -5 15 -5 3 -10 1 -10 -5
0 -8 -6 -8 -20 0 -11 6 -18 15 -15 20 3 5 -3 14 -14 19 -26 14 -34 14 -25 -1
4 -7 3 -8 -5 -4 -6 4 -9 11 -6 16 3 4 -11 17 -31 29 -42 25 -51 26 -34 6 10
-13 6 -12 -18 2 -31 18 -41 33 -22 33 6 0 10 4 10 9 0 5 -36 -11 -80 -37 -44
-26 -80 -50 -80 -55 0 -4 10 -3 23 3 20 10 21 10 4 -4 -11 -8 -25 -12 -32 -9
-8 2 -22 0 -32 -7 -15 -9 -14 -10 7 -4 l25 7 -19 -22 c-20 -22 -20 -22 0 -16
18 6 18 6 2 -8 -26 -20 -26 -134 0 -153 16 -13 16 -14 0 -8 -30 10 -20 -15 13
-31 17 -9 29 -19 26 -22 -3 -2 -15 1 -27 7 -12 6 -24 10 -26 8 -4 -5 137 -88
150 -88 4 0 4 5 0 12 -4 7 -3 8 4 4 6 -4 24 1 39 10 l28 16 -25 -21 c-14 -11
-29 -21 -35 -21 -5 0 -3 -6 3 -12 10 -10 15 -10 22 1 7 12 11 12 25 -2 9 -10
12 -17 6 -17 -6 0 -11 -15 -11 -32 0 -25 3 -29 10 -18 8 13 10 12 10 -2 0 -10
-5 -18 -10 -18 -6 0 -15 -10 -20 -22 -8 -20 -9 -18 -8 14 2 27 -3 42 -17 53
-19 16 -19 16 5 10 24 -6 24 -5 6 9 -24 19 -36 20 -37 4 0 -7 -4 -4 -9 8 -11
27 -113 86 -137 78 -15 -5 -16 -4 -3 5 8 6 10 11 4 11 -5 0 -19 -6 -29 -14
-18 -13 -18 -14 2 -20 11 -4 29 -3 39 1 16 6 17 5 4 -8 -16 -17 -40 -21 -40
-6 0 5 -9 7 -20 4 -11 -3 -18 -1 -14 4 9 15 -6 10 -42 -12 -19 -11 -32 -25
-29 -30 4 -5 -1 -6 -10 -3 -11 5 -18 0 -22 -15 -3 -11 -10 -21 -15 -21 -5 0
-6 5 -3 10 3 6 1 10 -4 10 -6 0 -11 -12 -11 -26 0 -23 2 -25 15 -14 9 7 18 10
21 7 3 -3 -4 -10 -15 -17 -19 -10 -21 -19 -20 -100 0 -51 5 -90 11 -90 5 0 6
5 3 10 -3 6 -2 10 4 10 15 0 23 -18 10 -22 -14 -5 123 -88 143 -88 8 1 6 6 -6
15 -19 14 -19 15 -2 15 16 0 17 2 5 18 -13 15 -12 16 3 4 9 -8 23 -11 30 -7 7
4 4 -1 -7 -10 -17 -14 -18 -17 -5 -25 22 -14 26 -13 101 30 41 24 69 48 70 58
0 9 3 12 5 5 3 -7 13 -9 22 -6 15 6 15 5 3 -10 -7 -9 -9 -17 -3 -17 5 0 13 7
16 16 9 22 8 24 -9 24 -8 0 -15 8 -15 18 0 14 -2 15 -10 2 -8 -13 -10 -12 -10
3 0 9 5 17 10 17 6 0 10 14 10 32 0 34 12 31 16 -5 1 -12 3 -24 3 -27 1 -3 6
2 11 10 8 13 10 13 10 -2 0 -9 8 -22 17 -28 18 -11 14 -11 -32 5 -19 6 -19 6
-2 -8 20 -16 23 -53 5 -60 -7 -2 2 -11 20 -21 37 -19 44 -31 8 -15 -17 8 -30
8 -47 -1 -23 -11 -23 -11 -4 5 17 14 18 17 5 25 -19 12 -40 13 -40 1 0 -5 6
-12 13 -15 6 -3 2 -3 -11 0 -16 4 -44 -7 -93 -36 -38 -22 -73 -38 -78 -35 -5
3 -12 -3 -14 -12 -4 -14 -5 -13 -6 4 -1 16 -19 33 -70 63 -39 22 -76 43 -85
46 -16 6 -216 -104 -216 -119 0 -5 8 -6 18 -3 16 6 16 5 0 -7 -10 -8 -18 -32
-21 -58 -3 -37 -4 -34 -6 21 -2 45 -5 59 -10 45 -8 -19 -9 -19 -12 4 -3 17
-26 37 -84 72 -78 47 -113 61 -99 37 4 -6 3 -8 -4 -4 -10 6 -62 -21 -149 -78
l-33 -21 -2 -115 -2 -115 -6 120 -6 120 -2 -121 c-1 -66 1 -124 5 -127 3 -4
12 -2 20 5 11 8 17 8 26 -2 9 -10 9 -11 -2 -5 -8 4 -17 2 -22 -6 -7 -12 -11
-11 -24 2 -15 15 -20 101 -15 258 0 8 6 11 15 7 9 -3 56 18 108 48 l92 53 1
109 0 109 -3 -102 c-3 -94 -6 -104 -26 -114 l-22 -12 20 23 c18 21 14 20 -35
-7 -131 -74 -144 -83 -127 -83 9 0 17 -5 17 -10 0 -7 -6 -7 -19 0 -23 12 -34
13 -28 3 3 -5 -1 -13 -8 -20 -10 -9 -14 -8 -18 6 -2 10 -36 36 -76 57 -54 29
-71 43 -70 59 1 16 2 17 6 3 4 -18 150 -104 160 -95 2 3 -9 13 -26 22 -17 8
-31 18 -31 21 0 3 16 -4 36 -15 l36 -22 96 58 96 58 2 50 c1 28 -2 58 -7 67
-6 10 -5 19 1 23 5 3 10 12 10 20 0 17 -168 117 -182 108 -7 -3 -8 -1 -4 5 4
7 3 12 -2 12 -5 0 -9 7 -9 15 0 12 5 11 19 -5 10 -11 24 -20 31 -20 7 1 5 6
-5 14 -44 33 -10 20 68 -26 48 -28 89 -47 93 -42 3 5 13 10 21 12 8 2 50 24
93 50 l77 46 0 92 c0 51 3 99 6 108 4 11 1 16 -11 16 -10 0 -14 -5 -9 -12 4
-8 3 -10 -2 -5 -5 5 -9 14 -9 20 0 6 -33 30 -72 52 -40 22 -73 43 -73 47 0 4
7 4 17 1 11 -4 14 -3 9 5 -4 7 -15 12 -24 13 -9 0 -12 3 -5 5 6 3 49 -16 93
-42 l82 -47 42 21 c22 11 66 35 96 53 35 21 50 26 40 14 -13 -16 -13 -18 0
-13 8 2 16 19 18 36 l3 32 -200 0 c-144 -1 -201 -5 -205 -13 -3 -9 -5 -9 -5 1
-1 17 -287 17 -294 0 -4 -10 -6 -10 -6 0 -1 9 -54 12 -231 12 l-230 0 0 -891z
m129 835 c-9 -11 -9 -14 1 -14 8 0 11 -3 7 -6 -12 -12 -28 7 -18 20 6 7 7 17
3 21 -4 5 -1 5 6 1 10 -6 10 -11 1 -22z m162 9 c13 -16 12 -17 -3 -4 -10 7
-18 15 -18 17 0 8 8 3 21 -13z m-22 -7 c9 -11 9 -16 -1 -22 -7 -4 -10 -4 -6 1
4 4 3 14 -3 22 -6 7 -9 13 -6 13 2 0 10 -6 16 -14z m592 -3 c13 -16 12 -17 -3
-4 -10 7 -18 15 -18 17 0 8 8 3 21 -13z m-85 -5 c4 -7 3 -8 -4 -4 -7 4 -12 2
-12 -5 0 -7 -3 -10 -6 -6 -6 5 3 27 11 27 2 0 7 -5 11 -12z m-555 -25 c13 -16
12 -17 -3 -4 -10 7 -18 15 -18 17 0 8 8 3 21 -13z m459 0 c0 -1 -8 -7 -18 -12
-13 -7 -19 -6 -19 2 0 7 9 13 19 13 10 0 18 -1 18 -3z m895 -17 c12 -12 12
-15 -1 -20 -8 -3 -12 -2 -9 4 8 13 -11 13 -38 -1 -19 -9 -18 -7 3 10 30 25 28
24 45 7z m-939 -38 c4 -7 4 -10 -1 -6 -4 4 -14 0 -22 -10 -13 -15 -13 -15 -3
6 12 25 16 27 26 10z m-579 -60 c0 -13 -1 -17 -4 -10 -3 6 -10 9 -16 5 -7 -4
-6 1 2 10 17 21 17 21 18 -5z m1403 18 c0 -3 -4 -8 -10 -11 -5 -3 -10 -1 -10
4 0 6 5 11 10 11 6 0 10 -2 10 -4z m420 -10 c0 -3 -13 -14 -30 -26 -16 -12
-30 -18 -30 -13 0 5 12 16 28 25 30 19 32 20 32 14z m-125 -16 c3 -5 1 -10 -4
-10 -6 0 -11 5 -11 10 0 6 2 10 4 10 3 0 8 -4 11 -10z m-1654 -13 c-6 -8 -7
-18 -3 -22 4 -5 1 -5 -6 -1 -10 6 -10 11 -1 22 6 8 14 14 16 14 3 0 0 -6 -6
-13z m1707 -66 l-2 -56 -3 49 c-3 31 -10 54 -21 62 -15 12 -14 12 6 7 20 -5
22 -11 20 -62z m-1551 37 c-3 -8 -6 -5 -6 6 -1 11 2 17 5 13 3 -3 4 -12 1 -19z
m700 0 c-3 -8 -6 -5 -6 6 -1 11 2 17 5 13 3 -3 4 -12 1 -19z m-330 -10 c-3 -8
-6 -5 -6 6 -1 11 2 17 5 13 3 -3 4 -12 1 -19z m-20 -10 c-3 -8 -6 -5 -6 6 -1
11 2 17 5 13 3 -3 4 -12 1 -19z m-500 -20 c-3 -8 -6 -5 -6 6 -1 11 2 17 5 13
3 -3 4 -12 1 -19z m520 -10 c-3 -8 -6 -5 -6 6 -1 11 2 17 5 13 3 -3 4 -12 1
-19z m-370 -40 c-3 -8 -6 -5 -6 6 -1 11 2 17 5 13 3 -3 4 -12 1 -19z m1190
-10 c-3 -7 -5 -2 -5 12 0 14 2 19 5 13 2 -7 2 -19 0 -25z m363 -7 c0 -5 -10
-11 -22 -14 -22 -6 -22 -6 -4 8 23 17 26 18 26 6z m-1203 -23 c-3 -8 -6 -5 -6
6 -1 11 2 17 5 13 3 -3 4 -12 1 -19z m1259 -15 c-6 -6 -46 20 -46 30 0 4 11 0
25 -9 14 -9 24 -19 21 -21z m-1239 5 c-3 -8 -6 -5 -6 6 -1 11 2 17 5 13 3 -3
4 -12 1 -19z m828 2 c3 -5 1 -10 -4 -10 -6 0 -11 5 -11 10 0 6 2 10 4 10 3 0
8 -4 11 -10z m339 -14 c-19 -15 -61 -30 -50 -19 13 13 61 40 65 37 3 -3 -4
-11 -15 -18z m6 -27 c-12 -9 -10 -10 7 -6 15 3 20 1 16 -9 -3 -8 -1 -14 5 -14
6 0 12 6 15 13 3 9 9 8 22 -5 17 -16 17 -17 -5 -11 -16 4 -21 3 -16 -5 4 -8 2
-10 -7 -6 -8 3 -18 1 -22 -5 -3 -6 -11 -11 -18 -11 -6 0 -2 7 9 15 16 12 17
14 2 15 -9 0 -18 5 -20 12 -3 7 -10 8 -17 4 -9 -6 -10 -11 -2 -15 6 -4 2 -12
-12 -20 -20 -13 -21 -13 -9 1 10 12 10 17 1 20 -7 2 3 13 22 25 34 20 57 21
29 2z m-225 -29 c3 -6 -1 -7 -9 -4 -18 7 -21 14 -7 14 6 0 13 -4 16 -10z m75
-25 c-9 -11 -9 -15 -1 -15 7 0 9 -4 6 -10 -4 -6 -11 -5 -19 2 -11 11 -10 15 3
25 22 17 26 16 11 -2z m60 10 c0 -2 -10 -9 -22 -15 -22 -11 -22 -10 -4 4 21
17 26 19 26 11z m249 -19 c9 13 31 16 31 4 0 -5 -8 -10 -17 -10 -16 -1 -16 -2
2 -16 19 -16 19 -16 -5 -9 l-25 6 25 -20 c32 -26 13 -27 -20 -1 -17 13 -20 20
-10 20 10 0 7 7 -10 21 -25 20 -25 20 -1 9 13 -7 26 -8 30 -4z m-1734 -5 c3
-5 2 -12 -3 -15 -5 -3 -9 1 -9 9 0 17 3 19 12 6z m-115 -16 c0 -2 -10 -9 -22
-15 -22 -11 -22 -10 -4 4 21 17 26 19 26 11z m137 -10 c0 -8 -4 -12 -9 -9 -5
3 -6 10 -3 15 9 13 12 11 12 -6z m1503 10 c0 -2 -10 -9 -22 -15 -22 -11 -22
-10 -4 4 21 17 26 19 26 11z m-1455 -24 c3 -5 2 -12 -3 -15 -5 -3 -9 1 -9 9 0
17 3 19 12 6z m1365 4 c0 -2 -9 -9 -20 -15 -12 -6 -20 -7 -20 -1 0 5 8 12 18
14 9 3 18 5 20 6 1 0 2 -1 2 -4z m-1555 -14 c3 -5 2 -12 -3 -15 -5 -3 -9 1 -9
9 0 17 3 19 12 6z m-29 -18 c-2 -9 -8 -19 -14 -21 -16 -5 -15 25 1 31 6 3 13
6 14 6 1 1 0 -7 -1 -16z m1479 -3 c3 -5 1 -10 -4 -10 -6 0 -11 5 -11 10 0 6 2
10 4 10 3 0 8 -4 11 -10z m110 0 c-3 -5 -11 -10 -16 -10 -6 0 -7 5 -4 10 3 6
11 10 16 10 6 0 7 -4 4 -10z m-1334 -93 c1 -42 0 -80 -3 -82 -3 -3 -6 34 -7
82 -1 48 0 85 3 83 2 -3 6 -40 7 -83z m1246 11 c-3 -8 -6 -5 -6 6 -1 11 2 17
5 13 3 -3 4 -12 1 -19z m-1540 -20 c-3 -7 -5 -2 -5 12 0 14 2 19 5 13 2 -7 2
-19 0 -25z m1953 -42 c0 -3 -4 -8 -10 -11 -5 -3 -10 -1 -10 4 0 6 5 11 10 11
6 0 10 -2 10 -4z m-1683 -31 c0 -8 -4 -12 -9 -9 -5 3 -6 10 -3 15 9 13 12 11
12 -6z m1248 5 c-3 -5 -11 -10 -16 -10 -6 0 -7 5 -4 10 3 6 11 10 16 10 6 0 7
-4 4 -10z m400 0 c-3 -5 -11 -10 -16 -10 -6 0 -7 5 -4 10 3 6 11 10 16 10 6 0
7 -4 4 -10z m-1840 -9 c3 -5 2 -12 -3 -15 -5 -3 -9 1 -9 9 0 17 3 19 12 6z
m375 -48 c3 -3 -14 4 -37 17 -24 13 -43 27 -43 32 0 7 66 -34 80 -49z m1430
42 c0 -2 -10 -9 -22 -15 -22 -11 -22 -10 -4 4 21 17 26 19 26 11z m-1663 -20
c0 -8 -4 -12 -9 -9 -5 3 -6 10 -3 15 9 13 12 11 12 -6z m1303 10 c0 -2 -10
-10 -22 -16 -21 -11 -22 -11 -9 4 13 16 31 23 31 12z m105 -5 c3 -5 2 -10 -4
-10 -5 0 -13 5 -16 10 -3 6 -2 10 4 10 5 0 13 -4 16 -10z m-1480 -19 c3 -5 2
-12 -3 -15 -5 -3 -9 1 -9 9 0 17 3 19 12 6z m545 4 c0 -2 -13 -11 -30 -20 -38
-19 -40 -11 -2 9 31 17 32 18 32 11z m-410 -9 c0 -2 -7 -7 -16 -10 -8 -3 -12
-2 -9 4 6 10 25 14 25 6z m900 -6 c0 -5 -4 -10 -10 -10 -5 0 -10 5 -10 10 0 6
5 10 10 10 6 0 10 -4 10 -10z m445 0 c3 -6 -1 -7 -9 -4 -18 7 -21 14 -7 14 6
0 13 -4 16 -10z m315 -12 c10 -3 8 -6 -8 -10 -14 -4 -20 -2 -15 5 4 6 -2 8
-18 4 -23 -6 -23 -5 -5 8 11 8 22 11 25 6 3 -4 13 -10 21 -13z m-790 -2 c0 -2
-7 -7 -16 -10 -8 -3 -12 -2 -9 4 6 10 25 14 25 6z m530 -22 c0 -2 -9 0 -20 6
-11 6 -20 13 -20 16 0 2 9 0 20 -6 11 -6 20 -13 20 -16z m-1060 11 c0 -2 -10
-9 -22 -15 -22 -11 -22 -10 -4 4 21 17 26 19 26 11z m890 0 c0 -2 -10 -9 -22
-15 -22 -11 -22 -10 -4 4 21 17 26 19 26 11z m250 -6 c-11 -8 -12 -12 -3 -16
10 -3 9 -8 -2 -19 -13 -13 -18 -13 -40 2 -28 18 -33 26 -10 18 8 -4 15 -1 15
4 0 6 8 13 18 15 30 8 37 7 22 -4z m-360 -3 c0 -3 -4 -8 -10 -11 -5 -3 -10 -1
-10 4 0 6 5 11 10 11 6 0 10 -2 10 -4z m405 -9 c11 -12 8 -17 -18 -31 -32 -17
-32 -17 -10 2 16 14 19 22 10 31 -6 6 -8 11 -3 11 4 0 13 -6 21 -13z m-1798
-22 c0 -8 -4 -12 -9 -9 -5 3 -6 10 -3 15 9 13 12 11 12 -6z m1423 -10 c-7 -8
-18 -15 -24 -15 -6 0 -2 7 8 15 25 19 32 19 16 0z m420 10 c0 -2 -9 -9 -20
-15 -12 -6 -20 -7 -20 -1 0 5 8 12 18 14 9 3 18 5 20 6 1 0 2 -1 2 -4z m-934
-33 c-4 -3 -14 2 -24 12 -16 18 -16 18 6 6 13 -6 21 -14 18 -18z m114 13 c-7
-8 -18 -15 -24 -15 -6 0 -2 7 8 15 25 19 32 19 16 0z m285 5 c3 -5 1 -10 -4
-10 -6 0 -11 5 -11 10 0 6 2 10 4 10 3 0 8 -4 11 -10z m400 0 c3 -5 2 -10 -4
-10 -5 0 -13 5 -16 10 -3 6 -2 10 4 10 5 0 13 -4 16 -10z m-1522 -25 c-3 -9
-8 -14 -10 -11 -3 3 -2 9 2 15 9 16 15 13 8 -4z m1552 5 c3 -5 1 -10 -4 -10
-6 0 -11 5 -11 10 0 6 2 10 4 10 3 0 8 -4 11 -10z m41 -5 c-11 -8 -22 -12 -25
-9 -6 6 19 24 34 24 6 -1 1 -7 -9 -15z m-471 -5 c3 -5 2 -10 -4 -10 -5 0 -13
5 -16 10 -3 6 -2 10 4 10 5 0 13 -4 16 -10z m98 -7 c-13 -8 -23 -23 -23 -32 0
-14 -2 -14 -10 -1 -5 8 -10 11 -10 7 0 -5 -5 -5 -11 -2 -6 4 4 15 23 25 41 22
61 24 31 3z m350 -15 c4 1 7 -2 7 -8 0 -5 -3 -10 -7 -10 -11 0 -73 39 -73 45
0 3 15 -2 33 -12 17 -9 35 -16 40 -15z m54 -15 c-3 -10 -5 -2 -5 17 0 19 2 27
5 18 2 -10 2 -26 0 -35z m-1677 -15 c0 -23 -3 -38 -7 -35 -10 11 -11 77 -2 77
5 0 9 -19 9 -42z m1660 38 c0 -3 -4 -8 -10 -11 -5 -3 -10 -1 -10 4 0 6 5 11
10 11 6 0 10 -2 10 -4z m-463 -68 c-3 -8 -6 -5 -6 6 -1 11 2 17 5 13 3 -3 4
-12 1 -19z m-1150 -40 c-2 -13 -4 -5 -4 17 -1 22 1 32 4 23 2 -10 2 -28 0 -40z
m750 30 c-3 -8 -6 -5 -6 6 -1 11 2 17 5 13 3 -3 4 -12 1 -19z m450 -30 c-2
-13 -4 -5 -4 17 -1 22 1 32 4 23 2 -10 2 -28 0 -40z m400 30 c-3 -8 -6 -5 -6
6 -1 11 2 17 5 13 3 -3 4 -12 1 -19z m-800 -45 c-3 -10 -5 -2 -5 17 0 19 2 27
5 18 2 -10 2 -26 0 -35z m-847 -7 c0 -33 -5 -46 -17 -51 -15 -5 -16 -4 -5 6 6
7 12 30 12 51 0 21 2 38 5 38 3 0 5 -20 5 -44z m797 2 c-3 -7 -5 -2 -5 12 0
14 2 19 5 13 2 -7 2 -19 0 -25z m400 -10 c-3 -7 -5 -2 -5 12 0 14 2 19 5 13 2
-7 2 -19 0 -25z m-1150 -30 c-3 -7 -5 -2 -5 12 0 14 2 19 5 13 2 -7 2 -19 0
-25z m1200 -5 c-3 -10 -5 -4 -5 12 0 17 2 24 5 18 2 -7 2 -21 0 -30z m30 5
c-3 -7 -5 -2 -5 12 0 14 2 19 5 13 2 -7 2 -19 0 -25z m-80 -10 c-3 -8 -6 -5
-6 6 -1 11 2 17 5 13 3 -3 4 -12 1 -19z m33 12 c0 -5 -5 -10 -11 -10 -5 0 -7
5 -4 10 3 6 8 10 11 10 2 0 4 -4 4 -10z m345 -10 c-3 -5 -11 -10 -16 -10 -6 0
-7 5 -4 10 3 6 11 10 16 10 6 0 7 -4 4 -10z m110 0 c3 -5 1 -10 -4 -10 -6 0
-11 5 -11 10 0 6 2 10 4 10 3 0 8 -4 11 -10z m-862 -40 c12 0 -23 -29 -35 -30
-5 0 -8 5 -8 10 0 6 8 10 18 11 9 0 12 3 5 5 -17 7 -173 -85 -173 -102 0 -8
-4 -14 -8 -14 -4 0 -8 9 -8 20 0 11 4 20 9 20 13 0 131 72 135 82 2 4 10 8 18
8 8 0 14 8 15 18 0 13 3 12 11 -5 6 -13 16 -23 21 -23z m-424 -17 c9 -7 22
-10 29 -8 7 3 10 1 7 -5 -3 -5 3 -14 14 -19 27 -15 34 -14 27 4 -5 13 -2 14
22 1 30 -15 69 -55 64 -64 -2 -4 2 -8 9 -11 6 -2 9 1 6 6 -3 5 0 10 7 10 8 0
12 -7 9 -14 -4 -9 3 -16 16 -20 11 -3 21 -10 21 -15 0 -6 -26 5 -57 22 -56 31
-101 64 -56 41 32 -16 39 -13 17 8 -10 10 -22 17 -26 14 -5 -2 -8 1 -8 7 0 6
-5 8 -10 5 -6 -4 -8 -11 -5 -16 3 -5 -2 -6 -11 -2 -13 5 -15 3 -9 -7 5 -9 4
-11 -4 -6 -6 4 -8 12 -5 18 5 7 1 9 -9 5 -10 -4 -16 -2 -14 6 1 7 -6 11 -15
11 -10 -1 -15 3 -12 8 3 5 -2 8 -12 6 -12 -2 -18 2 -16 11 2 9 -4 12 -16 9
-17 -5 -18 -2 -8 18 10 20 12 21 20 6 5 -9 17 -22 25 -29z m781 43 c0 -3 -4
-8 -10 -11 -5 -3 -10 -1 -10 4 0 6 5 11 10 11 6 0 10 -2 10 -4z m100 -6 c0 -5
-2 -10 -4 -10 -3 0 -8 5 -11 10 -3 6 -1 10 4 10 6 0 11 -4 11 -10z m260 5 c0
-2 -10 -9 -22 -15 -22 -11 -22 -10 -4 4 21 17 26 19 26 11z m-770 -59 c0 -2
-26 -19 -57 -36 -32 -18 -61 -38 -65 -44 -6 -8 -8 -8 -8 1 0 6 28 28 63 47 65
38 67 38 67 32z m140 -22 c0 -2 -9 0 -20 6 -11 6 -20 13 -20 16 0 2 9 0 20 -6
11 -6 20 -13 20 -16z m325 16 c3 -6 -1 -7 -9 -4 -18 7 -21 14 -7 14 6 0 13 -4
16 -10z m-1085 -36 c0 -2 -9 0 -20 6 -11 6 -20 13 -20 16 0 2 9 0 20 -6 11 -6
20 -13 20 -16z m200 20 c0 -8 -19 -13 -24 -6 -3 5 1 9 9 9 8 0 15 -2 15 -3z
m740 1 c0 -2 -13 -11 -30 -20 -38 -19 -40 -11 -2 9 31 17 32 18 32 11z m-1053
-25 c1 -16 -1 -17 -12 -7 -11 10 -8 19 10 27 1 0 1 -9 2 -20z m330 5 c0 -8 -4
-12 -9 -9 -5 3 -6 10 -3 15 9 13 12 11 12 -6z m-132 -5 c-3 -5 -12 -10 -18
-10 -7 0 -6 4 3 10 19 12 23 12 15 0z m59 2 c3 -5 -1 -9 -9 -9 -8 0 -12 4 -9
9 3 4 7 8 9 8 2 0 6 -4 9 -8z m-313 -19 c13 -16 12 -17 -3 -4 -10 7 -18 15
-18 17 0 8 8 3 21 -13z m103 -5 c-5 -8 -1 -9 12 -4 18 7 18 6 2 -10 -20 -20
-45 -10 -27 12 14 17 23 19 13 2z m181 3 c3 -5 2 -12 -3 -15 -5 -3 -9 1 -9 9
0 17 3 19 12 6z m-338 -8 c-4 -3 -1 -13 6 -21 9 -13 9 -14 0 -8 -8 4 -13 2
-13 -5 0 -9 -3 -9 -14 0 -12 10 -15 8 -19 -14 -4 -24 -4 -24 -3 2 1 21 6 27
19 25 9 -2 17 1 16 5 -2 14 1 23 8 23 3 0 3 -3 0 -7z m1849 -21 c-4 -3 -14 2
-24 12 -16 18 -16 18 6 6 13 -6 21 -14 18 -18z m-1483 -12 c-3 -12 -8 -19 -11
-16 -5 6 5 36 12 36 2 0 2 -9 -1 -20z m-153 -23 c0 -11 -1 -18 -3 -16 -1 2 -8
11 -15 20 -9 13 -9 16 3 16 8 0 15 -9 15 -20z m837 -9 c-3 -8 -6 -5 -6 6 -1
11 2 17 5 13 3 -3 4 -12 1 -19z m-690 -35 c-3 -10 -5 -4 -5 12 0 17 2 24 5 18
2 -7 2 -21 0 -30z m300 -5 c-3 -7 -5 -2 -5 12 0 14 2 19 5 13 2 -7 2 -19 0
-25z m390 -30 c-3 -8 -6 -5 -6 6 -1 11 2 17 5 13 3 -3 4 -12 1 -19z m470 -10
c-3 -8 -6 -5 -6 6 -1 11 2 17 5 13 3 -3 4 -12 1 -19z m-1307 -4 c0 -8 -4 -12
-10 -9 -5 3 -10 10 -10 16 0 5 5 9 10 9 6 0 10 -7 10 -16z m447 -31 c-3 -10
-5 -2 -5 17 0 19 2 27 5 18 2 -10 2 -26 0 -35z m-663 18 c3 -5 -1 -14 -8 -20
-12 -10 -14 -9 -11 6 2 10 4 19 4 21 2 5 10 2 15 -7z m376 -16 c14 -19 14 -19
-2 -6 -10 7 -18 18 -18 24 0 6 1 8 3 6 1 -2 9 -13 17 -24z m267 -7 c-3 -7 -5
-2 -5 12 0 14 2 19 5 13 2 -7 2 -19 0 -25z m80 -5 c-3 -10 -5 -4 -5 12 0 17 2
24 5 18 2 -7 2 -21 0 -30z m1163 23 c0 -3 -4 -8 -10 -11 -5 -3 -10 -1 -10 4 0
6 5 11 10 11 6 0 10 -2 10 -4z m-30 -16 c0 -5 -5 -10 -11 -10 -5 0 -7 5 -4 10
3 6 8 10 11 10 2 0 4 -4 4 -10z m-1253 -15 c0 -8 -4 -12 -9 -9 -5 3 -6 10 -3
15 9 13 12 11 12 -6z m-547 1 c0 -2 -8 -10 -17 -17 -16 -13 -17 -12 -4 4 13
16 21 21 21 13z m20 -10 c0 -2 -8 -10 -17 -17 -16 -13 -17 -12 -4 4 13 16 21
21 21 13z m1210 -86 c0 -5 -2 -10 -4 -10 -3 0 -8 5 -11 10 -3 6 -1 10 4 10 6
0 11 -4 11 -10z m-1015 -19 c3 -5 2 -12 -3 -15 -5 -3 -9 1 -9 9 0 17 3 19 12
6z m112 -36 c0 -8 -4 -12 -9 -9 -5 3 -6 10 -3 15 9 13 12 11 12 -6z m-442 -15
c3 -5 2 -10 -4 -10 -5 0 -13 5 -16 10 -3 6 -2 10 4 10 5 0 13 -4 16 -10z m232
-12 c2 -17 0 -19 -7 -8 -5 8 -6 18 -4 22 8 12 10 10 11 -14z m-179 -50 c11
-43 9 -58 -10 -58 -6 0 -8 10 -4 24 3 14 2 36 -4 50 -5 14 -6 26 -1 26 5 0 13
-19 19 -42z m459 -40 c-2 -18 -4 -6 -4 27 0 33 2 48 4 33 2 -15 2 -42 0 -60z
m-280 40 c-3 -8 -6 -5 -6 6 -1 11 2 17 5 13 3 -3 4 -12 1 -19z m0 -60 c-3 -7
-5 -2 -5 12 0 14 2 19 5 13 2 -7 2 -19 0 -25z m330 0 c-3 -7 -5 -2 -5 12 0 14
2 19 5 13 2 -7 2 -19 0 -25z m-556 -51 c-10 -9 -11 -8 -5 6 3 10 9 15 12 12 3
-3 0 -11 -7 -18z m49 17 c0 -8 -19 -13 -24 -6 -3 5 1 9 9 9 8 0 15 -2 15 -3z
m417 -9 c0 -8 -4 -12 -9 -9 -5 3 -6 10 -3 15 9 13 12 11 12 -6z m-212 -4 c3
-5 2 -12 -3 -15 -5 -3 -9 1 -9 9 0 17 3 19 12 6z m240 -21 c3 -5 1 -10 -4 -10
-6 0 -11 5 -11 10 0 6 2 10 4 10 3 0 8 -4 11 -10z m-170 -19 c3 -5 2 -12 -3
-15 -5 -3 -9 1 -9 9 0 17 3 19 12 6z m101 -23 c4 -7 3 -8 -4 -4 -7 4 -12 2
-12 -5 0 -7 -3 -10 -6 -6 -6 5 3 27 11 27 2 0 7 -5 11 -12z m-91 -26 c-3 -3
-11 0 -18 7 -9 10 -8 11 6 5 10 -3 15 -9 12 -12z m-295 -16 c0 -2 -7 -7 -16
-10 -8 -3 -12 -2 -9 4 6 10 25 14 25 6z m311 -58 c-4 -32 -5 -32 -11 -8 -5 19
2 37 16 40 0 0 -2 -15 -5 -32z m16 -30 c-3 -7 -5 -2 -5 12 0 14 2 19 5 13 2
-7 2 -19 0 -25z"/>
<path d="M1765 1150 c-3 -5 1 -10 10 -10 9 0 13 5 10 10 -3 6 -8 10 -10 10 -2
0 -7 -4 -10 -10z"/>
<path d="M1182 1952 c5 -47 4 -48 -34 -67 -22 -10 -62 -34 -90 -52 -27 -18
-56 -33 -64 -33 -11 0 -14 -19 -14 -90 0 -49 4 -90 9 -90 5 0 12 10 14 23 4
22 4 22 6 -2 0 -13 9 -30 19 -38 15 -12 14 -13 -10 -7 -21 5 -47 -6 -120 -49
-51 -30 -100 -57 -108 -61 -8 -3 -2 -4 15 -2 27 4 28 3 11 -10 -11 -8 -17 -16
-14 -19 3 -3 42 17 86 44 44 27 90 52 101 56 12 3 21 11 21 16 0 14 -7 11 -56
-17 -24 -14 -44 -23 -44 -20 0 3 20 17 44 31 37 21 49 24 65 15 12 -6 21 -13
21 -16 0 -3 -4 -3 -8 0 -5 3 -18 -4 -30 -14 -12 -11 -26 -20 -31 -20 -5 0 -46
-21 -90 -47 l-81 -47 0 -69 c0 -54 4 -73 18 -84 16 -14 16 -14 0 -9 -10 3 -18
2 -18 -2 0 -10 151 -102 168 -102 16 0 16 -17 0 -22 -9 -3 -9 -6 0 -12 7 -4
12 -2 12 3 0 6 7 11 15 11 18 0 20 17 3 22 -7 3 -5 7 6 11 10 4 15 3 11 -3
-13 -21 25 -9 88 27 l66 38 3 119 3 118 -37 19 c-21 11 -38 22 -38 24 0 3 14
-2 31 -11 26 -13 33 -13 40 -3 4 8 12 10 16 5 4 -5 2 -11 -5 -13 -10 -4 -8 -9
5 -19 12 -9 13 -13 5 -14 -7 0 -10 -5 -7 -11 5 -6 12 -4 20 8 8 11 10 20 3 24
-5 4 -3 9 7 12 9 4 13 3 10 -3 -8 -13 1 -13 26 1 11 5 17 14 14 19 -3 5 0 12
6 16 8 4 9 3 5 -4 -9 -16 3 -15 34 3 14 7 25 19 25 26 0 7 6 14 14 17 9 3 11
0 6 -8 -5 -9 -4 -11 4 -6 6 4 9 12 6 17 -4 5 1 12 9 15 9 3 16 10 16 16 0 5
-4 6 -10 3 -5 -3 -10 -1 -10 4 0 6 5 11 10 11 6 0 10 37 10 93 0 50 -4 88 -8
82 -10 -15 -39 -14 -39 0 0 8 7 11 15 7 10 -3 13 -1 8 6 -4 7 -2 12 4 12 6 0
8 5 4 11 -5 8 -9 8 -14 -1 -9 -15 -170 76 -170 96 0 8 5 14 10 14 6 0 9 -5 8
-11 -2 -6 3 -14 10 -16 8 -3 10 1 5 14 -6 17 -5 17 13 2 37 -31 136 -82 143
-73 9 13 31 16 31 4 0 -5 -7 -10 -16 -10 -8 0 -13 -4 -10 -9 7 -11 47 8 134
62 66 41 76 52 40 42 l-23 -6 23 17 c12 9 22 20 22 25 0 5 -91 9 -201 9 l-202
0 5 -48z m48 14 c0 -2 -9 -2 -20 1 -11 3 -20 9 -20 15 0 5 9 4 20 -2 11 -6 20
-12 20 -14z m10 -92 c0 -2 -9 0 -20 6 -11 6 -20 13 -20 16 0 2 9 0 20 -6 11
-6 20 -13 20 -16z m-230 -184 c0 -11 -2 -20 -4 -20 -2 0 -6 9 -9 20 -3 11 -1
20 4 20 5 0 9 -9 9 -20z m343 -85 c-3 -9 -8 -14 -10 -11 -3 3 -2 9 2 15 9 16
15 13 8 -4z m-263 -41 c0 -2 -9 0 -20 6 -11 6 -20 13 -20 16 0 2 9 0 20 -6 11
-6 20 -13 20 -16z m0 -30 c0 -2 -9 0 -20 6 -11 6 -20 13 -20 16 0 2 9 0 20 -6
11 -6 20 -13 20 -16z m-30 -10 c0 -2 -9 0 -20 6 -11 6 -20 13 -20 16 0 2 9 0
20 -6 11 -6 20 -13 20 -16z m-180 -9 c0 -2 -10 -9 -22 -15 -22 -11 -22 -10 -4
4 21 17 26 19 26 11z m230 -21 c0 -2 -9 0 -20 6 -11 6 -20 13 -20 16 0 2 9 0
20 -6 11 -6 20 -13 20 -16z m-293 -86 c-3 -8 -6 -5 -6 6 -1 11 2 17 5 13 3 -3
4 -12 1 -19z m343 -142 c0 -2 -7 -7 -16 -10 -8 -3 -12 -2 -9 4 6 10 25 14 25
6z"/>
<path d="M1610 1976 c0 -13 7 -27 16 -30 8 -3 13 -10 9 -15 -3 -6 22 -26 55
-45 64 -38 75 -42 65 -26 -4 7 3 7 20 0 42 -16 52 -11 25 11 -24 20 -23 20 13
-1 l37 -22 45 26 c25 15 44 32 42 38 -1 6 4 13 12 16 8 3 11 0 7 -7 -4 -6 -2
-11 4 -11 6 0 9 -4 6 -9 -3 -5 1 -12 10 -15 21 -8 24 -8 24 5 0 5 -4 7 -10 4
-5 -3 -12 6 -16 20 -5 19 -1 30 12 40 23 17 15 19 -23 5 -26 -9 -27 -9 -9 5
11 8 23 15 28 15 4 0 8 5 8 10 0 6 -70 10 -190 10 l-190 0 0 -24z"/>
<path d="M1067 1895 c-32 -19 -60 -35 -63 -35 -3 0 -12 -6 -19 -14 -12 -12
-12 -15 1 -20 17 -7 190 81 180 91 -3 3 -42 -16 -86 -42 -44 -26 -83 -45 -85
-43 -3 2 29 23 70 47 41 23 75 44 75 47 0 10 -18 2 -73 -31z"/>
<path d="M836 1912 c20 -19 124 -73 124 -65 0 4 -27 23 -59 41 -58 31 -85 41
-65 24z"/>
<path d="M1230 1916 c0 -8 111 -68 116 -63 3 3 -19 19 -49 36 -53 30 -67 36
-67 27z"/>
<path d="M1775 1840 c3 -5 8 -10 11 -10 2 0 4 5 4 10 0 6 -5 10 -11 10 -5 0
-7 -4 -4 -10z"/>
<path d="M636 1541 c18 -17 154 -90 154 -82 0 4 -33 26 -74 49 -70 40 -102 53
-80 33z"/>
<path d="M1188 1405 c-6 -6 2 -138 8 -144 2 -2 4 30 4 72 0 75 -1 82 -12 72z"/>
<path d="M800 1242 c0 -9 141 -94 147 -88 3 2 -6 11 -19 19 -90 55 -128 76
-128 69z"/>
<path d="M1184 1241 c-5 -5 -27 -19 -49 -31 -101 -55 -115 -64 -115 -71 0 -5
39 15 88 42 96 56 97 57 91 64 -3 2 -10 1 -15 -4z"/>
<path d="M1395 1130 c3 -5 8 -10 11 -10 2 0 4 5 4 10 0 6 -5 10 -11 10 -5 0
-7 -4 -4 -10z"/>
<path d="M1390 870 c0 -5 -7 -10 -17 -10 -9 0 -14 -3 -10 -6 8 -8 47 5 47 17
0 5 -4 9 -10 9 -5 0 -10 -4 -10 -10z"/>
<path d="M1970 803 c-13 -15 -12 -16 4 -10 10 4 20 7 22 7 2 0 4 5 4 10 0 15
-13 12 -30 -7z"/>
<path d="M1183 635 c0 -44 2 -61 4 -37 2 23 2 59 0 80 -2 20 -4 1 -4 -43z"/>
<path d="M1087 494 c-54 -31 -96 -58 -93 -61 5 -6 184 95 192 108 8 14 5 12
-99 -47z"/>
<path d="M1600 540 c0 -5 5 -10 11 -10 5 0 7 5 4 10 -3 6 -8 10 -11 10 -2 0
-4 -4 -4 -10z"/>
<path d="M1098 473 l-98 -57 0 -83 c0 -76 12 -109 23 -65 3 10 5 7 6 -10 1
-19 -3 -26 -13 -22 -9 3 -13 -3 -13 -19 0 -20 13 -32 73 -66 81 -45 102 -52
64 -20 l-25 21 28 -16 c26 -16 53 -14 43 3 -3 3 4 7 15 7 19 0 18 -1 -3 -18
-13 -10 -27 -18 -31 -18 -5 0 -6 -4 -2 -9 3 -6 49 15 102 45 53 30 98 52 101
50 2 -3 -18 -16 -45 -30 -52 -26 -93 -55 -80 -56 5 0 18 5 30 11 20 9 20 8 -2
-9 -17 -14 -20 -21 -11 -24 8 -2 -1 -13 -23 -27 -20 -12 -41 -20 -47 -16 -6 3
-10 -4 -10 -16 0 -37 -10 -15 -12 25 -1 20 -5 36 -10 36 -4 0 -8 -5 -8 -11 0
-5 -4 -8 -10 -4 -5 3 -7 11 -4 18 3 8 -23 27 -64 50 -72 38 -87 44 -77 27 3
-5 0 -7 -8 -4 -8 3 -51 -16 -96 -43 -79 -46 -81 -48 -81 -85 l0 -38 204 0
c204 0 205 0 209 22 l4 23 2 -22 c1 -23 2 -23 170 -23 126 0 171 3 174 13 4 9
6 9 6 0 1 -17 68 -17 74 0 4 9 6 9 6 0 1 -10 42 -13 169 -13 l169 0 2 241 c1
132 -2 239 -6 236 -4 -3 -14 2 -22 10 -12 13 -11 14 8 8 12 -3 21 -2 21 3 0 6
-5 12 -12 14 -17 6 -69 -22 -63 -33 4 -5 -2 -6 -11 -2 -11 4 -15 3 -10 -5 3
-6 1 -14 -5 -18 -8 -4 -9 -3 -5 4 4 7 4 12 -1 12 -14 0 -38 -19 -39 -30 -3
-23 -5 -24 -14 -10 -8 13 -10 12 -10 -4 0 -18 -1 -18 -20 -1 -11 10 -20 13
-20 7 0 -7 5 -12 10 -12 6 0 10 -10 10 -22 0 -19 2 -20 10 -8 6 9 10 10 10 3
0 -6 -4 -15 -10 -18 -5 -3 -10 -33 -10 -66 0 -54 2 -60 24 -69 13 -5 27 -14
31 -20 4 -7 -7 -4 -24 4 -32 17 -41 10 -18 -13 6 -8 7 -11 2 -8 -6 3 -16 -3
-23 -14 -7 -10 -8 -19 -3 -19 5 0 11 5 13 12 3 9 6 9 12 0 4 -7 -3 -14 -19
-18 -14 -3 -25 -10 -25 -15 0 -14 23 -10 49 8 14 9 21 11 17 5 -10 -17 -66
-45 -66 -33 0 5 -9 12 -20 16 -25 8 -100 -34 -100 -57 0 -10 -7 -18 -15 -18
-9 0 -16 -10 -16 -27 -2 -27 -2 -27 -6 -4 -3 17 1 30 14 39 17 13 17 14 0 27
-10 7 -14 16 -8 19 5 3 11 1 13 -5 2 -7 25 2 57 21 38 22 56 28 61 20 5 -9 9
-9 14 -1 4 6 3 11 -2 11 -6 0 -8 9 -5 21 4 16 8 17 14 7 6 -9 9 -4 9 15 0 20
-4 26 -12 21 -10 -6 -10 -4 0 7 7 8 12 40 12 79 0 45 -3 61 -10 50 -8 -12 -10
-10 -10 8 0 13 4 20 10 17 6 -3 10 -3 10 2 0 9 -32 30 -129 85 -73 42 -86 45
-77 22 5 -12 1 -14 -15 -9 -14 5 -19 3 -15 -3 3 -6 1 -14 -5 -18 -8 -4 -9 -3
-5 4 10 16 1 15 -35 -3 -16 -9 -27 -20 -24 -25 4 -6 -1 -7 -11 -3 -11 4 -15 3
-10 -5 3 -6 1 -14 -5 -18 -8 -5 -9 -3 -4 6 5 8 3 11 -6 8 -8 -3 -13 -11 -11
-17 1 -6 -5 -14 -13 -17 -11 -5 -15 -23 -15 -80 0 -43 4 -74 10 -74 6 0 10 -5
10 -11 0 -5 -4 -7 -10 -4 -6 4 -10 -6 -9 -22 0 -25 1 -26 9 -8 8 19 9 19 9 -2
1 -15 18 -31 63 -56 37 -21 65 -31 69 -25 3 5 10 10 15 11 5 1 8 5 7 9 -2 4 4
5 13 1 12 -4 11 -8 -7 -21 -16 -11 -18 -16 -8 -23 8 -4 25 -6 39 -3 24 5 24 5
5 -11 -11 -8 -26 -13 -35 -10 -9 3 -7 -1 5 -11 18 -15 18 -16 2 -10 -10 3 -21
6 -23 6 -2 0 -4 7 -4 15 0 8 -5 15 -11 15 -5 0 -7 -6 -3 -12 4 -8 3 -10 -2 -5
-5 5 -9 14 -9 20 0 11 -102 76 -120 76 -5 0 1 -9 15 -20 l25 -21 -32 18 c-18
10 -29 22 -26 28 4 5 -1 7 -11 3 -10 -4 -20 -7 -23 -7 -3 0 0 -7 7 -15 16 -19
3 -20 -15 -1 -12 11 -10 15 11 26 25 14 34 33 10 24 -11 -4 -14 13 -12 95 1
89 -1 102 -19 115 -27 21 -11 20 20 0 14 -9 25 -12 25 -7 0 8 -189 123 -201
123 -2 0 -48 -26 -101 -57z m107 37 c3 -5 1 -10 -4 -10 -6 0 -11 5 -11 10 0 6
2 10 4 10 3 0 8 -4 11 -10z m-45 -25 c0 -2 -10 -9 -22 -15 -22 -11 -22 -10 -4
4 21 17 26 19 26 11z m135 -25 c3 -6 -1 -7 -9 -4 -18 7 -21 14 -7 14 6 0 13
-4 16 -10z m-268 -112 c-3 -7 -5 -2 -5 12 0 14 2 19 5 13 2 -7 2 -19 0 -25z
m400 0 c-3 -7 -5 -2 -5 12 0 14 2 19 5 13 2 -7 2 -19 0 -25z m-70 -125 c-3
-10 -5 -2 -5 17 0 19 2 27 5 18 2 -10 2 -26 0 -35z m-277 -19 c0 -2 -9 0 -20
6 -11 6 -20 13 -20 16 0 2 9 0 20 -6 11 -6 20 -13 20 -16z m680 22 c0 -3 -4
-8 -10 -11 -5 -3 -10 -1 -10 4 0 6 5 11 10 11 6 0 10 -2 10 -4z m-700 -42 c0
-2 -9 0 -20 6 -11 6 -20 13 -20 16 0 2 9 0 20 -6 11 -6 20 -13 20 -16z m50
-30 c0 -2 -9 0 -20 6 -11 6 -20 13 -20 16 0 2 9 0 20 -6 11 -6 20 -13 20 -16z
m790 -20 c0 -2 -9 0 -20 6 -11 6 -20 13 -20 16 0 2 9 0 20 -6 11 -6 20 -13 20
-16z m90 -16 c0 -4 -8 -8 -17 -8 -16 -1 -16 -2 2 -16 19 -16 19 -16 -5 -9
l-25 6 25 -20 c32 -26 13 -27 -20 -1 -14 11 -19 20 -11 20 11 0 11 3 1 15 -11
13 -10 14 4 9 9 -3 16 -2 16 3 0 5 7 10 15 10 8 0 15 -4 15 -9z m-322 -67 c-7
-11 -16 -17 -22 -14 -5 3 -1 12 9 20 25 18 27 17 13 -6z m-113 -1 c3 -5 1 -10
-4 -10 -6 0 -11 5 -11 10 0 6 2 10 4 10 3 0 8 -4 11 -10z m430 -20 c3 -5 1
-10 -4 -10 -6 0 -11 5 -11 10 0 6 2 10 4 10 3 0 8 -4 11 -10z"/>
<path d="M1630 521 c0 -8 111 -73 117 -68 2 3 -9 13 -24 23 -43 28 -93 53 -93
45z"/>
<path d="M1487 491 c-72 -43 -81 -59 -12 -22 63 35 86 51 70 50 -6 0 -32 -13
-58 -28z"/>
<path d="M1780 461 c0 -12 39 -21 45 -11 3 4 -2 11 -11 14 -22 8 -34 7 -34 -3z"/>
<path d="M1393 320 c0 -41 2 -58 4 -37 2 20 2 54 0 75 -2 20 -4 3 -4 -38z"/>
<path d="M982 215 c0 -16 2 -22 5 -12 2 9 2 23 0 30 -3 6 -5 -1 -5 -18z"/>
<path d="M887 149 c-38 -23 -66 -43 -64 -45 4 -5 147 75 147 82 0 10 -19 1
-83 -37z"/>
<path d="M790 120 c0 -5 4 -10 9 -10 6 0 13 5 16 10 3 6 -1 10 -9 10 -9 0 -16
-4 -16 -10z"/>
<path d="M1196 94 c-9 -8 -16 -20 -16 -25 0 -15 34 -10 56 7 12 10 13 14 4 11
-8 -3 -24 -8 -35 -12 -11 -3 -8 1 8 10 15 8 27 18 27 20 0 11 -30 4 -44 -11z"/>
<path d="M780 40 c0 -22 5 -40 10 -40 6 0 10 18 10 40 0 22 -4 40 -10 40 -5 0
-10 -18 -10 -40z"/>
</g>
</svg>
