<?xml version="1.0" standalone="no"?>
<!DOCTYPE svg PUBLIC "-//W3C//DTD SVG 20010904//EN"
 "http://www.w3.org/TR/2001/REC-SVG-20010904/DTD/svg10.dtd">
<svg version="1.0" xmlns="http://www.w3.org/2000/svg"
 width="200.000000pt" height="200.000000pt" viewBox="0 0 200.000000 200.000000"
 preserveAspectRatio="xMidYMid meet">
<metadata>
Created by potrace 1.16, written by Peter Selinger 2001-2019
</metadata>
<g transform="translate(0.000000,200.000000) scale(0.100000,-0.100000)"
fill="#000000" stroke="none">
<path d="M0 1861 c0 -95 4 -141 12 -149 10 -10 10 -17 0 -32 -9 -15 -12 -106
-12 -363 1 -300 3 -340 16 -323 8 11 14 15 14 9 0 -6 -7 -16 -15 -23 -13 -11
-15 -60 -15 -334 0 -219 3 -325 11 -333 8 -8 8 -13 0 -17 -7 -5 -11 -58 -11
-152 l0 -144 61 0 c44 0 72 6 99 21 l38 22 35 -22 c29 -18 50 -21 141 -21 85
0 106 3 106 14 0 15 97 76 120 76 20 0 120 -64 120 -77 0 -9 18 -13 59 -13 57
0 60 1 63 27 2 21 18 35 78 71 l75 44 50 -26 c98 -51 115 -64 115 -91 0 -20 5
-25 24 -25 21 0 25 5 28 37 3 35 7 40 96 90 l92 54 93 -53 92 -54 105 63 c58
35 111 63 118 63 9 0 12 28 12 108 l0 107 90 53 90 52 0 118 0 117 -100 59
-100 58 -97 -56 c-53 -31 -103 -54 -111 -51 -8 3 -57 30 -108 61 l-94 55 -2
107 -2 107 -3 -102 -4 -102 -89 -51 -90 -52 -90 52 -90 52 0 108 0 108 90 52
91 52 94 -55 c57 -34 95 -50 98 -43 3 6 52 38 110 71 l106 60 3 109 3 108 90
52 90 52 3 125 3 125 97 56 c92 53 97 57 100 92 2 27 -1 36 -12 36 -11 0 -16
-9 -16 -27 0 -25 -11 -34 -85 -76 l-85 -48 -82 49 c-67 39 -84 54 -86 75 -3
25 -7 27 -48 27 -37 0 -44 -3 -44 -20 0 -13 -21 -32 -69 -60 l-70 -42 -70 42
c-50 28 -71 47 -71 60 0 18 -7 20 -75 20 -54 0 -75 -4 -75 -13 0 -7 -25 -26
-55 -42 l-55 -30 -55 30 c-30 16 -55 35 -55 42 0 10 -26 13 -102 13 -91 0
-106 -3 -145 -26 l-44 -25 -45 25 -46 26 -254 -1 -254 0 0 -138z m1694 -8 c45
-25 84 -50 87 -55 3 -4 6 -53 8 -107 l2 -99 -88 -51 c-48 -28 -95 -51 -103
-51 -8 1 -51 22 -95 48 l-80 48 0 109 0 108 80 48 c44 27 86 48 94 49 8 0 50
-21 95 -47z m-415 -28 l71 -40 0 -90 0 -90 -75 -43 -75 -42 -75 42 -75 43 3
90 2 89 70 42 c39 23 73 42 77 41 3 -1 38 -20 77 -42z m-421 -35 l52 -30 0
-64 0 -64 -50 -31 c-28 -17 -56 -31 -63 -30 -6 0 -32 13 -57 28 l-45 27 -3 66
-3 66 48 30 c26 17 53 31 58 31 6 1 34 -13 63 -29z m-420 -40 c29 -18 33 -25
30 -57 -2 -30 -10 -41 -37 -57 -33 -19 -34 -19 -67 -1 -30 16 -34 23 -34 59 0
34 5 44 28 58 36 22 41 21 80 -2z m1047 -258 l80 -47 3 -96 3 -97 -79 -46
c-43 -25 -84 -46 -91 -46 -6 0 -48 21 -92 46 l-80 46 3 96 3 96 80 48 c44 26
82 47 85 48 3 0 41 -21 85 -48z m-415 -30 l65 -38 0 -72 c0 -40 -2 -77 -5 -81
-3 -4 -33 -24 -68 -44 l-63 -37 -70 40 -69 41 0 75 0 75 63 39 c34 22 67 40
72 40 6 0 39 -17 75 -38z m-411 -37 c40 -24 41 -27 41 -79 l0 -54 -51 -30 -52
-30 -46 27 c-46 27 -46 28 -49 87 l-3 60 48 27 c53 29 54 29 112 -8z m-401
-78 c3 -29 -1 -36 -31 -52 -32 -17 -35 -17 -60 0 -39 25 -38 83 1 106 25 15
29 15 57 -2 22 -13 31 -27 33 -52z m612 -225 l65 -38 0 -84 0 -84 -68 -39 -68
-39 -67 39 -67 38 0 85 0 84 65 38 c36 21 67 38 70 38 3 0 34 -17 70 -38z
m-424 -48 c42 -25 44 -28 44 -74 0 -47 -2 -49 -45 -75 l-46 -26 -44 26 c-44
25 -45 27 -45 75 0 47 2 50 43 74 23 14 43 26 45 26 2 0 23 -12 48 -26z m1443
-280 l82 -47 -3 -95 -3 -96 -82 -47 -81 -47 -81 47 -81 46 0 97 0 98 77 45
c43 25 80 45 84 45 4 0 43 -21 88 -46z m-414 -22 l60 -37 3 -82 3 -81 -71 -40
-70 -41 -70 41 -71 40 3 81 3 80 60 38 c33 21 67 38 75 38 8 0 42 -17 75 -37z
m-419 -23 l55 -31 -3 -66 -3 -66 -45 -27 c-25 -15 -52 -28 -60 -28 -8 0 -36
13 -62 29 l-48 30 0 64 0 64 53 31 c28 17 53 31 55 31 1 0 27 -14 58 -31z
m-412 -30 c33 -19 36 -25 36 -65 0 -40 -3 -46 -40 -69 l-41 -26 -39 22 c-38
21 -40 25 -40 70 0 42 3 49 33 68 40 26 48 26 91 0z m-404 -41 c0 -5 -10 -2
-22 6 -29 21 -56 5 -61 -37 l-4 -32 -1 32 c-3 42 29 67 64 51 13 -6 24 -15 24
-20z m-10 -60 c-25 -20 -46 -23 -55 -8 -3 5 0 7 9 4 20 -8 56 13 57 34 0 13 2
14 6 3 3 -8 -4 -23 -17 -33z m1450 -171 l75 -43 0 -98 0 -98 -77 -45 -77 -44
-80 46 -81 47 0 93 0 93 78 46 c42 25 79 45 82 45 3 1 39 -18 80 -42z m-410
-31 l55 -32 3 -76 3 -77 -61 -35 c-34 -20 -65 -36 -70 -36 -5 0 -36 16 -69 35
l-61 36 0 74 0 74 58 35 c31 19 64 35 72 35 8 0 40 -15 70 -33z m-421 -30 c36
-23 39 -29 43 -76 1 -29 1 -55 -2 -59 -3 -4 -24 -18 -47 -31 l-43 -24 -42 24
c-53 29 -58 36 -58 85 0 47 4 54 50 83 44 28 52 27 99 -2z m-415 -37 c34 -27
32 -64 -5 -91 -25 -19 -28 -19 -58 -4 -26 14 -31 22 -31 51 0 27 6 37 28 49
35 20 35 20 66 -5z"/>
<path d="M1515 1841 l-80 -48 0 -98 0 -99 84 -48 83 -48 84 47 84 48 0 100 0
100 -84 48 c-46 26 -85 47 -87 47 -2 -1 -40 -22 -84 -49z"/>
<path d="M1130 1812 l-65 -38 0 -78 0 -79 60 -38 c33 -21 65 -38 71 -38 7 -1
42 16 78 37 l66 37 0 80 0 80 -63 35 c-34 19 -66 36 -72 38 -5 1 -39 -15 -75
-36z"/>
<path d="M748 1782 l-48 -27 0 -60 0 -60 50 -28 50 -28 48 29 c46 28 47 30 50
85 3 56 3 56 -38 82 -58 37 -60 37 -112 7z"/>
<path d="M368 1744 c-39 -21 -39 -74 -2 -99 25 -16 29 -16 60 -1 29 13 34 21
34 49 0 26 -6 36 -29 50 -34 20 -29 20 -63 1z"/>
<path d="M1318 1478 l-68 -40 0 -91 0 -92 75 -43 75 -42 74 42 75 43 3 88 c2
51 -1 92 -7 97 -22 18 -138 80 -148 79 -7 0 -42 -19 -79 -41z"/>
<path d="M940 1456 l-55 -32 -3 -75 -3 -74 55 -32 c30 -18 59 -33 64 -33 6 0
35 14 66 32 l56 32 0 73 0 72 -61 36 c-33 19 -61 35 -62 35 -1 -1 -27 -16 -57
-34z"/>
<path d="M553 1424 c-42 -24 -43 -27 -43 -77 0 -52 1 -53 44 -76 l43 -24 44
24 c42 23 44 27 47 74 3 50 2 50 -43 78 -25 15 -47 27 -48 27 -1 0 -21 -12
-44 -26z"/>
<path d="M168 1389 c-28 -16 -24 -73 7 -89 20 -11 28 -10 50 4 60 39 5 121
-57 85z"/>
<path d="M735 1111 l-60 -38 -3 -71 -3 -72 48 -30 c71 -46 84 -46 150 -8 l58
34 3 71 c3 78 6 74 -78 120 l-55 31 -60 -37z"/>
<path d="M358 1067 c-35 -20 -38 -26 -38 -67 0 -42 3 -47 38 -66 37 -22 37
-22 75 -3 23 12 37 27 38 39 4 75 4 74 -36 97 l-40 21 -37 -21z"/>
<path d="M1726 783 l-76 -44 0 -87 0 -87 75 -43 75 -44 75 42 75 41 0 92 -1
92 -74 41 -74 41 -75 -44z"/>
<path d="M1335 762 l-60 -37 -3 -71 -3 -71 61 -36 c34 -21 65 -37 70 -37 5 0
36 16 69 36 l61 36 0 72 0 71 -62 35 c-35 19 -65 36 -68 37 -3 1 -32 -15 -65
-35z"/>
<path d="M943 734 c-43 -25 -43 -26 -43 -83 l0 -58 50 -27 50 -27 50 28 50 28
0 57 c0 56 0 56 -44 82 -55 32 -61 32 -113 0z"/>
<path d="M558 712 c-23 -14 -28 -24 -28 -59 0 -36 4 -43 34 -61 l33 -20 37 21
c31 18 36 26 36 59 0 32 -5 41 -32 58 -39 23 -44 23 -80 2z"/>
<path d="M1519 429 l-66 -39 -2 -84 -1 -84 71 -41 c40 -22 76 -41 81 -41 5 0
41 18 79 40 l69 41 0 84 0 84 -69 41 c-38 22 -75 40 -83 39 -7 0 -43 -18 -79
-40z"/>
<path d="M1140 406 l-55 -32 0 -69 0 -69 58 -33 57 -34 58 34 57 33 0 69 0 69
-55 33 c-30 18 -57 33 -60 33 -3 -1 -30 -16 -60 -34z"/>
<path d="M755 377 c-22 -12 -40 -28 -39 -35 1 -7 2 -30 3 -52 1 -36 5 -42 41
-60 l41 -21 39 22 c38 22 40 25 40 74 0 49 -2 52 -39 73 -21 12 -40 22 -42 22
-2 0 -22 -11 -44 -23z"/>
<path d="M373 348 c-34 -16 -32 -71 2 -86 56 -26 102 48 53 82 -26 18 -25 18
-55 4z"/>
<path d="M540 1995 c0 -2 13 -11 30 -20 27 -14 32 -14 62 5 l33 20 -62 0 c-35
0 -63 -2 -63 -5z"/>
<path d="M900 1991 c0 -5 21 -21 48 -36 l47 -27 53 27 c28 15 52 31 52 36 0 5
-45 9 -100 9 -55 0 -100 -4 -100 -9z"/>
<path d="M1272 1983 c3 -18 103 -82 128 -82 25 0 125 64 128 82 3 15 -10 17
-128 17 -118 0 -131 -2 -128 -17z"/>
<path d="M1652 1974 c2 -21 18 -34 78 -67 l76 -40 72 42 c58 34 72 47 72 66
l0 25 -151 0 -150 0 3 -26z"/>
<path d="M1898 1856 l-88 -51 0 -110 0 -110 87 -50 c47 -27 90 -51 95 -53 4
-2 8 93 8 212 0 119 -3 216 -7 215 -5 -1 -47 -24 -95 -53z"/>
<path d="M1 1694 c0 -11 3 -14 6 -6 3 7 2 16 -1 19 -3 4 -6 -2 -5 -13z"/>
<path d="M1708 1499 l-88 -51 0 -101 0 -102 91 -52 90 -53 90 51 90 52 -3 105
-3 106 -83 48 c-46 26 -87 48 -90 48 -4 0 -46 -23 -94 -51z"/>
<path d="M1498 1166 l-88 -51 0 -115 0 -116 91 -52 c50 -29 95 -52 100 -52 5
0 50 23 99 51 l90 51 0 118 0 118 -89 51 c-49 28 -95 51 -102 50 -8 -1 -53
-24 -101 -53z"/>
<path d="M1898 1168 l-88 -51 0 -117 0 -118 90 -51 c49 -28 92 -51 95 -51 3 0
5 99 5 220 0 121 -3 220 -7 220 -5 0 -47 -24 -95 -52z"/>
<path d="M1108 1143 l-78 -46 0 -97 0 -98 80 -46 c43 -25 84 -46 90 -46 6 0
47 21 90 46 l80 46 0 98 0 98 -80 46 c-43 25 -85 46 -92 45 -7 0 -48 -21 -90
-46z"/>
<path d="M1913 453 l-83 -47 0 -101 0 -101 83 -47 82 -46 3 94 c1 52 1 139 0
194 l-3 100 -82 -46z"/>
<path d="M1705 130 c-44 -27 -84 -51 -88 -52 -5 -2 -11 -20 -14 -41 l-5 -37
196 0 196 0 0 39 c0 38 -1 39 -90 90 -49 28 -96 51 -102 50 -7 0 -49 -23 -93
-49z"/>
<path d="M1303 109 c-74 -45 -83 -53 -83 -80 l0 -29 181 0 180 0 -3 32 c-3 29
-12 37 -86 80 -46 26 -89 48 -95 47 -7 0 -49 -23 -94 -50z"/>
<path d="M925 85 c-47 -28 -71 -48 -73 -63 -3 -22 -2 -22 147 -22 141 0 151 1
151 19 0 23 -7 29 -90 73 l-65 35 -70 -42z"/>
<path d="M538 48 c-27 -16 -48 -34 -48 -39 0 -5 50 -9 110 -9 61 0 110 4 110
9 0 10 -102 71 -116 70 -5 0 -30 -14 -56 -31z"/>
<path d="M170 15 c-24 -14 -23 -14 25 -14 46 0 48 1 31 14 -24 18 -25 18 -56
0z"/>
</g>
</svg>
