<?xml version="1.0" standalone="no"?>
<!DOCTYPE svg PUBLIC "-//W3C//DTD SVG 20010904//EN"
 "http://www.w3.org/TR/2001/REC-SVG-20010904/DTD/svg10.dtd">
<svg version="1.0" xmlns="http://www.w3.org/2000/svg"
 width="200.000000pt" height="200.000000pt" viewBox="0 0 200.000000 200.000000"
 preserveAspectRatio="xMidYMid meet">
<metadata>
Created by potrace 1.16, written by Peter Selinger 2001-2019
</metadata>
<g transform="translate(0.000000,200.000000) scale(0.100000,-0.100000)"
fill="#000000" stroke="none">
<path d="M10 1966 c0 -33 4 -37 89 -85 48 -28 95 -51 102 -50 8 0 52 24 99 52
76 46 85 56 88 85 l3 32 -190 0 -191 0 0 -34z"/>
<path d="M410 1966 c0 -32 4 -36 90 -85 49 -28 95 -51 100 -51 6 0 51 24 100
52 84 49 90 55 90 85 l0 33 -190 0 -190 0 0 -34z"/>
<path d="M810 1967 c0 -31 6 -36 89 -85 49 -29 94 -52 100 -52 6 0 52 23 101
51 86 49 90 53 90 85 l0 34 -190 0 -190 0 0 -33z"/>
<path d="M1210 1967 c0 -31 5 -36 91 -85 50 -29 95 -52 100 -52 5 0 50 23 99
51 86 49 90 53 90 85 l0 34 -190 0 -190 0 0 -33z"/>
<path d="M1610 1968 c0 -31 6 -36 91 -85 50 -29 95 -53 101 -53 6 0 51 23 99
51 85 48 89 52 89 85 l0 34 -190 0 -190 0 0 -32z"/>
<path d="M0 1695 l0 -216 48 28 c26 15 67 39 92 53 l45 26 0 109 0 109 -45 26
c-25 14 -66 38 -92 53 l-48 28 0 -216z"/>
<path d="M298 1856 l-88 -51 0 -110 0 -111 91 -52 c50 -29 94 -52 98 -52 3 0
47 24 96 53 l90 53 0 110 0 109 -90 52 c-49 29 -94 52 -100 52 -5 -1 -49 -24
-97 -53z"/>
<path d="M703 1857 l-93 -52 0 -110 0 -110 93 -54 92 -53 60 33 c33 18 77 43
98 56 l38 24 -3 107 -3 106 -90 53 c-49 29 -92 53 -95 53 -3 0 -47 -24 -97
-53z"/>
<path d="M1105 1857 l-90 -53 -3 -109 -2 -110 95 -53 95 -54 95 54 95 53 0
110 0 110 -94 53 c-52 28 -96 52 -98 52 -1 0 -43 -24 -93 -53z"/>
<path d="M1505 1857 l-90 -53 -3 -106 -3 -106 28 -20 c15 -10 60 -36 98 -56
l70 -38 93 53 92 54 0 110 0 110 -88 50 c-48 28 -91 51 -97 53 -5 1 -50 -22
-100 -51z"/>
<path d="M1905 1857 l-90 -53 0 -109 0 -109 90 -52 90 -53 3 110 c1 61 1 157
0 214 l-3 104 -90 -52z"/>
<path d="M98 1509 l-88 -51 0 -111 0 -112 94 -53 94 -53 96 57 96 56 -2 106
-3 107 -85 52 c-47 28 -92 52 -100 52 -8 0 -54 -22 -102 -50z"/>
<path d="M497 1508 l-88 -51 3 -111 3 -111 92 -53 92 -53 95 56 96 56 0 107 0
107 -92 53 c-50 28 -96 52 -102 51 -6 0 -51 -23 -99 -51z"/>
<path d="M897 1507 l-88 -52 3 -109 3 -110 93 -54 94 -53 94 56 94 56 0 107 0
107 -90 53 c-49 28 -95 52 -102 51 -7 0 -52 -23 -101 -52z"/>
<path d="M1298 1507 l-88 -51 0 -108 0 -107 95 -56 96 -57 92 54 92 54 3 111
3 110 -91 52 c-49 28 -96 51 -102 50 -7 0 -52 -24 -100 -52z"/>
<path d="M1697 1506 l-87 -51 2 -109 3 -108 93 -54 94 -54 94 52 94 53 0 112
0 111 -89 51 c-48 28 -95 51 -102 50 -8 -1 -53 -24 -102 -53z"/>
<path d="M305 1166 l-90 -52 -3 -111 -3 -112 88 -52 c48 -29 93 -52 98 -52 6
0 52 24 103 53 l92 54 0 107 0 107 -57 32 c-32 18 -76 43 -98 55 l-40 23 -90
-52z"/>
<path d="M705 1165 l-90 -53 0 -112 0 -112 91 -53 92 -53 96 55 96 54 0 108 0
109 -92 52 c-51 29 -95 54 -98 55 -3 1 -45 -22 -95 -50z"/>
<path d="M1103 1163 l-93 -55 0 -108 0 -108 95 -56 95 -55 95 55 95 56 0 108
0 108 -92 54 c-51 29 -95 54 -98 54 -3 1 -47 -23 -97 -53z"/>
<path d="M1506 1163 l-96 -54 0 -109 0 -109 96 -54 96 -55 92 54 91 53 0 111
0 111 -91 53 -92 54 -96 -55z"/>
<path d="M0 1000 c0 -116 2 -210 5 -210 2 0 45 23 95 51 l90 52 0 102 c0 85
-3 104 -17 117 -21 17 -159 98 -167 98 -3 0 -6 -94 -6 -210z"/>
<path d="M1898 1158 l-88 -50 0 -103 c0 -85 3 -104 18 -117 19 -17 157 -98
166 -98 3 0 6 94 6 210 0 116 -3 210 -7 209 -5 0 -47 -23 -95 -51z"/>
<path d="M103 817 l-93 -52 0 -111 0 -112 89 -51 c49 -28 95 -51 102 -50 8 0
52 24 99 52 l85 52 0 109 0 108 -93 54 c-52 30 -94 54 -95 54 -1 -1 -44 -24
-94 -53z"/>
<path d="M505 817 l-90 -53 -3 -111 -3 -110 91 -52 c49 -28 94 -51 99 -51 5 0
50 23 100 52 l91 52 0 108 0 107 -94 55 c-52 31 -96 56 -98 56 -2 0 -43 -24
-93 -53z"/>
<path d="M905 816 l-90 -52 -3 -110 -3 -109 90 -53 c50 -28 94 -52 100 -52 5
0 50 23 100 52 l91 52 0 108 0 107 -94 56 c-52 30 -96 55 -98 55 -1 -1 -43
-25 -93 -54z"/>
<path d="M1303 814 l-93 -55 0 -107 0 -107 91 -52 c50 -29 95 -53 100 -53 5 0
50 23 99 51 l91 52 -3 111 -3 111 -90 52 c-49 29 -92 52 -95 52 -3 0 -47 -25
-97 -55z"/>
<path d="M1705 815 l-90 -53 -3 -108 -2 -109 87 -50 c49 -27 94 -51 100 -53 7
-2 53 20 103 49 l90 51 0 112 0 111 -94 53 c-52 28 -96 52 -98 51 -1 0 -43
-25 -93 -54z"/>
<path d="M0 305 l0 -217 47 28 c27 15 68 40 93 54 l45 26 0 109 0 109 -45 26
c-25 14 -66 39 -92 54 l-48 28 0 -217z"/>
<path d="M298 467 l-88 -52 0 -110 1 -110 89 -53 c50 -28 93 -52 97 -52 5 0
49 24 98 53 l90 53 0 109 0 109 -90 53 c-49 29 -94 52 -100 52 -5 0 -49 -24
-97 -52z"/>
<path d="M698 466 l-88 -51 0 -110 0 -110 93 -54 92 -53 60 33 c33 18 77 43
98 56 l38 24 -3 107 -3 106 -90 53 c-49 29 -94 52 -100 52 -5 -1 -49 -24 -97
-53z"/>
<path d="M1103 467 l-93 -52 0 -107 c0 -122 -8 -110 122 -182 l67 -37 95 53
96 53 0 110 0 110 -93 53 c-52 28 -96 52 -98 52 -2 0 -46 -24 -96 -53z"/>
<path d="M1505 467 l-90 -53 -3 -107 -3 -107 48 -30 c26 -16 71 -41 98 -56
l50 -26 92 54 93 53 0 110 0 110 -91 53 c-50 28 -93 52 -97 52 -4 0 -47 -24
-97 -53z"/>
<path d="M1905 467 l-90 -53 0 -109 0 -109 90 -52 90 -53 3 110 c1 61 1 157 0
214 l-3 104 -90 -52z"/>
<path d="M98 118 c-83 -48 -88 -52 -88 -84 l0 -34 190 0 190 0 0 28 c0 16 -8
36 -17 44 -27 22 -163 98 -176 98 -7 0 -51 -24 -99 -52z"/>
<path d="M498 118 c-83 -48 -88 -52 -88 -84 l0 -34 190 0 190 0 0 33 c0 30 -6
36 -90 85 -49 28 -95 52 -102 52 -7 0 -52 -24 -100 -52z"/>
<path d="M898 117 c-82 -48 -88 -53 -88 -84 l0 -33 190 0 190 0 0 34 c0 32 -4
36 -90 85 -49 28 -96 51 -102 51 -7 -1 -52 -24 -100 -53z"/>
<path d="M1298 117 c-82 -48 -88 -53 -88 -84 l0 -33 190 0 190 0 0 34 c0 33
-4 37 -89 85 -48 28 -95 51 -102 50 -8 0 -53 -24 -101 -52z"/>
<path d="M1700 117 c-76 -46 -85 -56 -88 -84 l-3 -33 190 0 191 0 0 34 c0 32
-5 36 -89 85 -49 28 -95 51 -102 50 -8 0 -52 -24 -99 -52z"/>
</g>
</svg>
