<?xml version="1.0" standalone="no"?>
<!DOCTYPE svg PUBLIC "-//W3C//DTD SVG 20010904//EN"
 "http://www.w3.org/TR/2001/REC-SVG-20010904/DTD/svg10.dtd">
<svg version="1.0" xmlns="http://www.w3.org/2000/svg"
 width="200.000000pt" height="200.000000pt" viewBox="0 0 200.000000 200.000000"
 preserveAspectRatio="xMidYMid meet">
<metadata>
Created by potrace 1.16, written by Peter Selinger 2001-2019
</metadata>
<g transform="translate(0.000000,200.000000) scale(0.100000,-0.100000)"
fill="#000000" stroke="none">
<path d="M1 1978 l-1 -28 46 23 c44 21 45 22 20 25 -15 2 -33 -2 -41 -8 -10
-8 -14 -8 -18 2 -3 7 -6 1 -6 -14z"/>
<path d="M66 1969 c-26 -16 -51 -29 -56 -29 -14 0 -12 -13 3 -29 8 -9 8 -12 0
-7 -8 5 -12 -49 -12 -214 -1 -146 2 -220 9 -220 7 0 7 -6 1 -17 -8 -17 -14
-193 -6 -193 2 0 15 5 29 12 22 9 24 14 13 27 -10 14 -10 14 4 3 13 -10 24 -8
63 14 32 18 45 31 42 41 -3 8 -6 17 -6 19 0 3 -6 2 -12 -2 -10 -5 -10 -4 -1 6
13 14 37 4 27 -11 -13 -22 107 27 126 52 3 3 22 14 44 24 38 18 38 18 17 34
-37 28 -158 90 -164 85 -3 -3 -4 2 -2 13 2 10 4 24 4 31 1 10 4 10 15 0 8 -8
10 -16 4 -19 -8 -5 32 -39 47 -39 3 0 31 -16 61 -35 30 -19 56 -35 59 -35 2 0
4 32 4 71 -1 70 10 113 12 48 1 -19 2 -54 3 -79 1 -33 5 -44 15 -42 12 3 12 0
2 -12 -10 -11 -12 -47 -10 -131 3 -66 0 -115 -5 -115 -18 0 -195 -104 -190
-112 3 -4 0 -8 -5 -8 -6 0 -11 4 -11 10 0 5 -17 17 -37 27 -21 9 -40 20 -43
23 -6 7 -97 60 -103 60 -3 0 -5 -102 -6 -227 0 -201 2 -228 17 -241 16 -13 16
-13 -1 -8 -12 4 -17 0 -17 -14 0 -10 9 -22 20 -25 26 -8 26 -22 0 -30 -17 -5
-20 -15 -19 -70 1 -63 2 -64 23 -53 99 51 336 191 336 199 0 5 6 8 13 6 6 -1
11 4 10 11 -2 6 4 12 12 12 8 0 15 -5 15 -10 0 -15 63 -51 78 -45 7 3 10 1 7
-5 -6 -10 83 -66 92 -56 3 3 12 -2 19 -12 6 -9 34 -28 61 -42 26 -14 50 -28
53 -31 9 -11 49 -29 64 -29 15 0 106 -57 106 -66 0 -3 -20 7 -45 22 l-45 26
-1 -24 c-2 -67 1 -180 5 -186 3 -5 0 -14 -5 -22 -7 -12 -11 -13 -18 -2 -7 11
-9 11 -14 -2 -4 -9 -11 -16 -17 -16 -6 0 -4 7 4 16 9 8 14 20 10 25 -3 5 0 8
7 7 10 -2 14 13 15 55 1 32 -3 57 -9 57 -6 0 -6 5 -1 13 13 17 10 63 -5 81 -7
8 -28 20 -47 26 -19 6 -34 15 -34 19 0 4 -27 21 -60 37 -33 16 -60 32 -60 37
0 4 -4 7 -9 7 -5 0 -43 20 -84 46 -75 44 -76 45 -106 29 -17 -8 -31 -20 -31
-25 0 -6 -7 -10 -17 -10 -23 0 -103 -48 -103 -62 0 -6 -3 -9 -6 -5 -4 3 -36
-10 -73 -30 -80 -44 -92 -53 -85 -64 3 -5 -2 -6 -11 -3 -19 8 -47 -14 -38 -30
11 -17 12 -36 2 -36 -5 0 -9 -9 -9 -20 0 -11 5 -20 10 -20 6 0 5 -8 -2 -20
-10 -16 -10 -24 0 -40 7 -12 8 -20 2 -20 -5 0 -10 -7 -10 -16 0 -8 4 -13 8
-10 4 2 8 -4 8 -15 0 -10 -4 -19 -8 -19 -4 0 -8 -25 -8 -56 0 -30 4 -53 8 -50
4 2 8 -4 8 -14 0 -10 -4 -16 -8 -14 -4 3 -8 -4 -8 -15 0 -12 5 -21 11 -21 8 0
8 -4 0 -14 -9 -11 -9 -15 1 -19 10 -4 10 -6 1 -6 -8 -1 -13 -16 -13 -41 l0
-41 93 3 92 3 3 50 c3 38 -1 52 -15 64 -17 13 -17 13 1 7 17 -6 18 -2 13 33
-4 29 -1 41 10 45 21 8 25 7 18 -5 -4 -6 2 -13 14 -16 12 -3 21 -9 21 -14 0
-12 -17 -11 -25 1 -17 27 -25 2 -25 -80 l0 -90 81 0 c56 0 78 3 73 11 -4 8 -1
8 12 1 21 -11 318 -17 335 -7 7 5 6 11 -1 20 -8 9 -6 14 5 19 9 3 15 0 15 -9
0 -8 6 -15 13 -15 8 0 7 -4 -3 -10 -10 -7 11 -10 69 -10 l84 0 -23 20 c-13 11
-34 23 -47 26 -13 4 -23 11 -24 18 0 6 -2 27 -4 46 -4 34 -3 34 12 -8 12 -33
24 -47 52 -60 20 -9 42 -23 50 -30 10 -9 60 -12 197 -12 181 2 185 2 178 22
-4 15 -2 19 7 16 8 -3 13 -13 11 -22 -3 -15 16 -16 200 -15 138 0 208 5 217
12 12 9 13 9 7 0 -5 -10 26 -13 139 -12 l145 0 0 25 c0 14 -5 34 -10 45 -6 10
-7 19 -2 19 6 0 8 72 4 210 -1 8 1 164 2 345 3 219 0 334 -7 343 -7 9 -7 16 1
24 14 14 16 97 2 118 -6 9 -5 17 3 22 8 5 9 17 1 47 -6 23 -7 41 -3 41 13 0
11 197 -1 221 -6 11 -7 19 -2 19 8 0 9 73 3 215 0 6 1 56 3 113 2 57 0 102 -6
102 -5 0 -4 9 2 19 5 11 10 31 10 45 0 24 -2 25 -60 24 -39 -1 -57 -5 -53 -12
4 -6 0 -6 -8 1 -11 9 -111 12 -371 12 -338 0 -357 -1 -373 -19 -19 -21 -37
-18 -29 5 5 13 -17 15 -150 14 -114 0 -156 -3 -156 -12 0 -9 -2 -9 -8 0 -5 8
-101 11 -344 11 l-336 1 -46 -30z m264 5 c0 -7 12 -20 27 -29 21 -14 30 -15
46 -6 13 9 17 9 12 1 -4 -7 2 -14 14 -17 12 -3 21 -12 21 -20 0 -12 -2 -12
-16 1 -8 9 -20 16 -25 16 -17 0 -23 -32 -8 -41 9 -5 9 -9 2 -9 -19 0 -14 -149
6 -160 9 -6 11 -10 4 -10 -7 0 -17 -15 -22 -32 l-9 -33 -1 42 c-1 28 -7 46
-18 53 -17 11 -17 11 0 6 15 -5 17 2 17 54 0 41 -4 60 -12 61 -10 0 -10 2 0 6
30 12 2 83 -34 83 -8 0 -14 5 -14 10 0 6 -5 10 -11 10 -6 0 -17 6 -24 14 -11
11 -9 13 16 12 16 -1 29 -6 29 -12z m166 3 c4 -4 0 -7 -9 -7 -9 0 -18 4 -21 9
-7 10 20 9 30 -2z m234 5 c0 -13 -12 -22 -22 -16 -10 6 -1 24 13 24 5 0 9 -4
9 -8z m157 0 c9 -6 7 -11 -7 -20 -17 -11 -20 -10 -20 8 0 21 7 25 27 12z m412
-6 c11 -14 6 -15 -27 -7 -4 1 8 21 12 21 2 0 9 -6 15 -14z m229 2 c-3 -7 -10
-13 -15 -13 -6 0 -15 -3 -19 -7 -4 -5 -12 -8 -17 -8 -11 0 34 39 46 40 5 0 7
-6 5 -12z m172 4 c0 -13 -12 -22 -22 -16 -10 6 -1 24 13 24 5 0 9 -4 9 -8z
m230 -7 c0 -8 -4 -15 -9 -15 -13 0 -22 16 -14 24 11 11 23 6 23 -9z m-943 -27
c-3 -7 -5 -2 -5 12 0 14 2 19 5 13 2 -7 2 -19 0 -25z m-537 6 c0 -8 -5 -12
-10 -9 -6 4 -8 11 -5 16 9 14 15 11 15 -7z m370 -36 c0 -4 -13 -6 -29 -5 -28
2 -29 7 -8 35 8 9 13 8 23 -5 7 -10 14 -21 14 -25z m588 17 c-3 -3 -9 2 -12
12 -6 14 -5 15 5 6 7 -7 10 -15 7 -18z m-853 5 c3 -5 2 -10 -4 -10 -5 0 -13 5
-16 10 -3 6 -2 10 4 10 5 0 13 -4 16 -10z m669 -3 c4 4 4 0 1 -9 -4 -9 -19
-18 -35 -20 -27 -4 -28 -4 -12 18 11 14 21 19 28 13 6 -5 14 -6 18 -2z m394
-15 c2 -7 -5 -12 -17 -12 -14 0 -19 5 -14 15 6 17 25 15 31 -3z m-619 -6 c9
-10 8 -15 -3 -19 -8 -3 -16 2 -19 14 -6 22 6 25 22 5z m-394 -6 c3 -5 1 -10
-4 -10 -6 0 -11 5 -11 10 0 6 2 10 4 10 3 0 8 -4 11 -10z m810 0 c-3 -5 -10
-10 -16 -10 -5 0 -9 5 -9 10 0 6 7 10 16 10 8 0 12 -4 9 -10z m405 0 c0 -5 -7
-10 -15 -10 -8 0 -15 5 -15 10 0 6 7 10 15 10 8 0 15 -4 15 -10z m-1630 -4 c0
-3 -4 -8 -10 -11 -5 -3 -10 -1 -10 4 0 6 5 11 10 11 6 0 10 -2 10 -4z m532
-28 c-9 -9 -12 -7 -12 12 0 19 3 21 12 12 9 -9 9 -15 0 -24z m153 12 c3 -5 1
-10 -4 -10 -6 0 -11 5 -11 10 0 6 2 10 4 10 3 0 8 -4 11 -10z m326 -13 c-10
-9 -11 -8 -5 6 3 10 9 15 12 12 3 -3 0 -11 -7 -18z m739 8 c-7 -8 -18 -15 -24
-15 -6 0 -2 7 8 15 25 19 32 19 16 0z m-807 -9 c4 -9 0 -12 -13 -9 -10 3 -21
0 -24 -6 -4 -6 -13 -11 -19 -11 -12 0 32 39 44 40 4 0 9 -6 12 -14z m157 4 c0
-5 -2 -10 -4 -10 -3 0 -8 5 -11 10 -3 6 -1 10 4 10 6 0 11 -4 11 -10z m115 1
c3 -5 2 -12 -3 -15 -5 -3 -9 1 -9 9 0 17 3 19 12 6z m125 -1 c0 -5 -4 -10 -10
-10 -5 0 -10 5 -10 10 0 6 5 10 10 10 6 0 10 -4 10 -10z m-1389 -9 c-7 -5 -16
-14 -20 -20 -5 -8 -13 -7 -27 4 -18 14 -18 14 3 10 13 -2 25 0 28 6 4 5 12 9
18 9 8 0 7 -3 -2 -9z m860 -51 c5 0 22 8 37 17 27 17 27 17 -3 -13 -17 -16
-35 -26 -41 -22 -12 8 -74 -27 -74 -42 0 -6 -4 -8 -10 -5 -14 9 -100 -44 -100
-62 0 -10 -6 -13 -16 -9 -17 6 -104 -40 -104 -56 0 -5 -4 -7 -9 -3 -5 3 -25
-4 -45 -16 l-35 -20 0 -112 c0 -65 4 -116 11 -124 8 -9 7 -13 -1 -13 -9 0 -12
-20 -11 -62 3 -112 0 -168 -7 -168 -5 0 -7 56 -7 125 1 91 -1 123 -10 118 -6
-3 -6 0 2 8 6 7 12 36 12 64 0 28 -6 57 -12 64 -11 11 -10 12 0 6 11 -5 13 3
12 36 -3 69 -1 79 15 79 16 0 155 75 165 89 3 4 31 20 63 36 31 15 57 32 57
36 0 4 16 13 35 19 37 12 54 34 57 72 1 15 3 12 5 -9 2 -18 9 -33 14 -33z
m-477 35 c-4 -8 -8 -15 -10 -15 -2 0 -4 7 -4 15 0 8 4 15 10 15 5 0 7 -7 4
-15z m166 6 c0 -6 -9 -9 -19 -8 -11 0 -17 5 -15 9 7 11 34 10 34 -1z m635 -9
c-3 -3 -11 0 -18 7 -9 10 -8 11 6 5 10 -3 15 -9 12 -12z m175 13 c0 -2 -10 -9
-22 -15 -22 -11 -22 -10 -4 4 21 17 26 19 26 11z m-1220 -9 c0 -3 -4 -8 -10
-11 -5 -3 -10 -1 -10 4 0 6 5 11 10 11 6 0 10 -2 10 -4z m340 -47 c0 -16 -26
-10 -45 11 -10 11 -22 17 -26 14 -5 -3 -9 1 -9 9 0 12 8 11 40 -5 22 -11 40
-24 40 -29z m191 38 c-6 -8 -8 -16 -5 -19 3 -3 -6 -5 -20 -4 l-26 1 23 17 c26
21 44 24 28 5z m819 -7 c-27 -21 -40 -25 -40 -12 0 5 12 13 28 19 39 16 40 15
12 -7z m-1555 0 c-3 -5 -12 -10 -18 -10 -7 0 -6 4 3 10 19 12 23 12 15 0z
m1135 -11 c0 -5 -4 -9 -10 -9 -5 0 -10 7 -10 16 0 8 5 12 10 9 6 -3 10 -10 10
-16z m-998 -22 c-6 -7 -10 -43 -9 -80 2 -51 -1 -67 -12 -67 -11 0 -11 -3 -1
-15 9 -10 9 -15 1 -15 -6 0 -11 5 -11 11 0 6 -8 8 -17 5 -12 -4 -11 0 5 12 19
15 22 26 21 75 -1 33 -7 57 -13 57 -6 0 0 9 14 20 27 20 40 19 22 -3z m1212
11 c-2 -4 0 -9 6 -13 5 -3 10 -12 10 -18 0 -7 -5 -4 -11 5 -5 9 -15 15 -23 12
-7 -3 -18 1 -24 8 -8 10 -4 13 18 13 15 0 26 -3 24 -7z m403 -3 c0 -8 -4 -12
-9 -9 -4 3 -8 0 -8 -7 0 -8 -5 -8 -16 2 -15 12 -14 14 7 20 13 4 24 7 25 8 0
1 1 -6 1 -14z m-1550 -19 c0 -8 -11 -13 -25 -13 l-25 0 24 13 c13 7 24 13 25
14 0 0 1 -6 1 -14z m218 4 c-3 -5 -12 -10 -18 -10 -7 0 -6 4 3 10 19 12 23 12
15 0z m45 -36 c0 -3 -4 -3 -9 0 -5 4 -11 1 -13 -6 -3 -7 -7 -3 -10 10 -5 19
-4 20 13 11 10 -5 19 -12 19 -15z m150 9 c0 -13 -8 -18 -26 -18 l-25 0 22 18
c11 9 23 17 25 17 2 0 4 -8 4 -17z m404 -18 c-4 -8 -10 -13 -15 -10 -4 3 -6
12 -3 20 4 8 10 13 15 10 4 -3 6 -12 3 -20z m234 8 c-2 -9 -11 -17 -20 -19
-15 -2 -16 1 -8 17 13 23 33 25 28 2z m167 -4 c-10 -15 -25 -10 -19 6 4 8 10
12 15 9 5 -3 7 -10 4 -15z m232 6 c0 -7 -8 -13 -17 -12 -9 0 -17 6 -17 12 0 6
8 12 17 12 9 1 17 -5 17 -12z m168 -6 c-10 -15 -25 -10 -19 6 4 8 10 12 15 9
5 -3 7 -10 4 -15z m-1775 1 c0 -5 -5 -10 -11 -10 -5 0 -7 5 -4 10 3 6 8 10 11
10 2 0 4 -4 4 -10z m640 -43 c0 -4 -9 -3 -20 3 -11 6 -20 15 -20 20 0 6 9 5
20 -2 11 -7 20 -16 20 -21z m-700 3 c0 -5 -2 -10 -4 -10 -3 0 -8 5 -11 10 -3
6 -1 10 4 10 6 0 11 -4 11 -10z m297 -6 c-3 -3 -12 -4 -19 -1 -8 3 -5 6 6 6
11 1 17 -2 13 -5z m865 -10 c-10 -17 -72 -48 -72 -36 0 7 33 32 60 44 22 10
22 10 12 -8z m377 1 c8 0 15 -7 16 -16 2 -9 -4 -16 -11 -16 -8 0 -14 4 -14 9
0 5 -4 7 -8 4 -4 -2 -9 5 -9 17 -1 12 1 17 5 12 4 -6 13 -10 21 -10z m-1479
-25 c0 -5 -2 -10 -4 -10 -3 0 -8 5 -11 10 -3 6 -1 10 4 10 6 0 11 -4 11 -10z
m412 -51 c-19 -18 -34 -16 -26 4 2 7 13 13 24 13 18 0 18 -1 2 -17z m384 8 c8
3 14 0 14 -5 0 -21 -18 -21 -36 1 -10 12 -12 17 -5 10 7 -6 20 -9 27 -6z m410
-12 c1 -8 -6 -13 -16 -12 -14 1 -16 4 -7 19 12 18 20 16 23 -7z m-1046 3 c0
-4 -4 -8 -9 -8 -6 0 -12 4 -15 8 -3 5 1 9 9 9 8 0 15 -4 15 -9z m811 -3 c0 -5
-13 -10 -28 -11 -16 -1 -20 0 -10 3 9 2 17 9 17 15 0 5 5 8 11 6 6 -2 10 -8
10 -13z m404 6 c7 -12 -12 -24 -25 -16 -11 7 -4 25 10 25 5 0 11 -4 15 -9z
m232 -4 c0 -7 -8 -13 -18 -13 -13 0 -15 3 -7 13 6 7 14 13 18 13 3 0 7 -6 7
-13z m80 -9 c-3 -8 -6 -5 -6 6 -1 11 2 17 5 13 3 -3 4 -12 1 -19z m88 13 c3
-5 1 -12 -4 -15 -5 -3 -11 1 -15 9 -6 16 9 21 19 6z m-478 -50 c8 -13 5 -16
-17 -16 -19 0 -27 5 -25 15 4 18 2 17 19 17 7 0 18 -7 23 -16z m393 7 c0 -5 4
-7 8 -4 5 3 9 0 9 -7 0 -19 -35 -15 -40 3 -2 10 2 17 9 17 8 0 14 -4 14 -9z
m-1690 -8 c0 -5 -2 -10 -4 -10 -3 0 -8 5 -11 10 -3 6 -1 10 4 10 6 0 11 -4 11
-10z m890 1 c0 -5 -9 -11 -21 -14 -16 -4 -18 -3 -8 9 13 16 29 19 29 5z m-850
-26 c0 -8 -2 -15 -4 -15 -2 0 -6 7 -10 15 -3 8 -1 15 4 15 6 0 10 -7 10 -15z
m650 7 c0 -13 -12 -22 -22 -16 -10 6 -1 24 13 24 5 0 9 -4 9 -8z m405 -2 c3
-5 -1 -10 -9 -10 -9 0 -16 5 -16 10 0 6 4 10 9 10 6 0 13 -4 16 -10z m400 0
c3 -5 -1 -10 -9 -10 -9 0 -16 5 -16 10 0 6 4 10 9 10 6 0 13 -4 16 -10z
m-1490 -38 c-8 -8 -25 10 -19 20 4 6 9 5 15 -3 4 -7 6 -15 4 -17z m395 8 c0
-5 -5 -10 -11 -10 -5 0 -7 5 -4 10 3 6 8 10 11 10 2 0 4 -4 4 -10z m183 -4
c25 -19 21 -26 -8 -13 -14 7 -25 15 -25 20 0 11 13 8 33 -7z m227 10 c0 -2 -7
-7 -16 -10 -8 -3 -12 -2 -9 4 6 10 25 14 25 6z m160 -6 c0 -5 -4 -10 -10 -10
-5 0 -10 5 -10 10 0 6 5 10 10 10 6 0 10 -4 10 -10z m240 2 c0 -5 -7 -9 -15
-9 -8 0 -12 4 -9 9 3 4 9 8 15 8 5 0 9 -4 9 -8z m379 -11 c-13 -11 -26 -17
-28 -15 -5 5 30 33 43 34 4 0 -2 -9 -15 -19z m186 9 c3 -5 1 -10 -4 -10 -6 0
-11 5 -11 10 0 6 2 10 4 10 3 0 8 -4 11 -10z m-1005 -20 c0 -5 -4 -10 -10 -10
-5 0 -10 5 -10 10 0 6 5 10 10 10 6 0 10 -4 10 -10z m234 -5 c-4 -8 -8 -15
-10 -15 -2 0 -4 7 -4 15 0 8 4 15 10 15 5 0 7 -7 4 -15z m166 5 c0 -5 -2 -10
-4 -10 -3 0 -8 5 -11 10 -3 6 -1 10 4 10 6 0 11 -4 11 -10z m240 0 c0 -5 -2
-10 -4 -10 -3 0 -8 5 -11 10 -3 6 -1 10 4 10 6 0 11 -4 11 -10z m400 0 c0 -5
-2 -10 -4 -10 -3 0 -8 5 -11 10 -3 6 -1 10 4 10 6 0 11 -4 11 -10z m-1870 -14
c0 -11 -19 -15 -25 -6 -3 5 1 10 9 10 9 0 16 -2 16 -4z m140 -3 c0 -5 -11 -13
-25 -20 -29 -13 -33 -6 -7 13 19 15 32 18 32 7z m1411 -36 c-18 -18 -37 7 -20
26 12 13 15 13 23 0 5 -9 4 -19 -3 -26z m209 22 c0 -5 -7 -9 -15 -9 -8 0 -15
7 -15 15 0 9 6 12 15 9 8 -4 15 -10 15 -15z m-810 1 c0 -5 -4 -10 -10 -10 -5
0 -10 5 -10 10 0 6 5 10 10 10 6 0 10 -4 10 -10z m400 0 c0 -5 -4 -10 -10 -10
-5 0 -10 5 -10 10 0 6 5 10 10 10 6 0 10 -4 10 -10z m-590 -9 c0 -14 -18 -23
-30 -16 -6 4 -8 11 -5 16 8 12 35 12 35 0z m395 0 c7 -12 -12 -24 -25 -16 -11
7 -4 25 10 25 5 0 11 -4 15 -9z m-1130 -37 c27 10 16 -3 -16 -20 -17 -8 -28
-11 -25 -6 4 6 2 13 -4 17 -6 4 -8 11 -4 16 4 6 11 6 20 -2 7 -6 21 -9 29 -5z
m406 -14 c6 0 7 -4 4 -10 -12 -19 -25 -10 -24 18 1 16 3 20 6 10 2 -10 9 -18
14 -18z m812 6 c7 4 4 -1 -5 -11 -20 -22 -32 -16 -21 11 4 11 8 13 11 6 2 -7
9 -9 15 -6z m616 -1 c19 0 27 -25 8 -25 -7 0 -22 10 -33 22 -12 13 -13 18 -4
12 8 -4 21 -9 29 -9z m-1194 -7 c4 -3 2 -9 -3 -12 -5 -3 -15 1 -21 8 -10 11
-9 14 3 12 9 -1 18 -5 21 -8z m166 -11 c-13 -13 -26 -3 -16 12 3 6 11 8 17 5
6 -4 6 -10 -1 -17z m233 2 c-3 -5 -10 -7 -15 -3 -5 3 -7 10 -3 15 3 5 10 7 15
3 5 -3 7 -10 3 -15z m400 0 c-3 -5 -10 -7 -15 -3 -5 3 -7 10 -3 15 3 5 10 7
15 3 5 -3 7 -10 3 -15z m171 12 c3 -5 1 -12 -5 -16 -5 -3 -10 1 -10 9 0 18 6
21 15 7z m-279 -66 c3 -18 -12 -29 -26 -20 -6 4 -5 13 2 25 13 20 21 19 24 -5z
m407 -2 c-16 -24 -25 -28 -36 -17 -11 12 11 40 31 40 18 0 19 -2 5 -23z m-813
5 c0 -5 6 -6 13 -2 6 4 5 -1 -5 -11 -9 -9 -21 -14 -27 -11 -16 10 -13 33 4 33
8 0 15 -4 15 -9z m293 -72 c7 4 5 -1 -5 -11 -23 -24 -39 -12 -25 20 11 23 12
23 15 5 2 -12 8 -18 15 -14z m-815 3 c10 -14 10 -18 -3 -23 -11 -4 -15 1 -15
21 0 14 1 24 3 22 1 -2 8 -11 15 -20z m234 -4 c0 -5 -5 -11 -10 -13 -5 -1 -9
4 -9 13 0 9 4 14 9 13 5 -2 10 -8 10 -13z m171 -19 c-4 -6 -8 -5 -11 2 -2 7
-9 9 -15 5 -7 -4 -6 1 2 11 11 13 16 14 22 4 4 -6 5 -17 2 -22z m233 9 c1 -8
-1 -15 -5 -15 -14 0 -20 12 -14 26 6 17 16 11 19 -11z m399 4 c-10 -15 -25
-10 -19 6 4 8 10 12 15 9 5 -3 7 -10 4 -15z m170 4 c-2 -10 -4 -20 -4 -23 -1
-3 -5 2 -10 10 -10 15 -6 30 9 30 4 0 7 -8 5 -17z m230 -4 c-10 -15 -25 -10
-19 6 4 8 10 12 15 9 5 -3 7 -10 4 -15z m-1108 -49 c11 -16 10 -18 -2 -14 -9
4 -15 0 -15 -7 -1 -9 -4 -8 -11 4 -10 17 -5 37 9 37 4 0 13 -9 19 -20z m396 7
c3 -8 -8 -17 -29 -23 l-34 -11 23 22 c26 27 33 29 40 12z m406 -6 c18 -18 17
-18 -14 -17 -28 1 -31 3 -21 19 13 21 12 21 35 -2z m-599 -26 c0 -3 -8 -5 -18
-5 -10 0 -19 7 -19 14 0 11 5 13 19 5 10 -5 18 -12 18 -14z m397 10 c0 -8 -8
-15 -17 -15 -9 0 -17 7 -17 15 0 8 8 15 17 15 9 0 17 -7 17 -15z m391 2 c8
-10 7 -13 -7 -14 -10 -1 -18 5 -18 13 0 17 11 18 25 1z m-908 -43 c0 -2 -9 0
-20 6 -11 6 -20 13 -20 16 0 2 9 0 20 -6 11 -6 20 -13 20 -16z m240 21 c0 -2
-10 -9 -22 -15 -22 -11 -22 -10 -4 4 21 17 26 19 26 11z m145 -13 c-3 -3 -11
0 -18 7 -9 10 -8 11 6 5 10 -3 15 -9 12 -12z m255 13 c0 -2 -10 -9 -22 -15
-22 -11 -22 -10 -4 4 21 17 26 19 26 11z m390 -9 c0 -2 -7 -7 -16 -10 -8 -3
-12 -2 -9 4 6 10 25 14 25 6z m-593 -20 c0 -8 -6 -12 -15 -9 -11 5 -11 7 0 14
7 5 13 9 14 9 0 0 1 -6 1 -14z m-647 0 c0 -2 -7 -7 -16 -10 -8 -3 -12 -2 -9 4
6 10 25 14 25 6z m399 1 c-2 -1 -13 -9 -24 -17 -19 -14 -19 -14 -6 3 7 9 18
17 24 17 6 0 8 -1 6 -3z m-679 -32 c0 -9 -6 -12 -15 -9 -8 4 -12 10 -9 15 8
14 24 10 24 -6z m1200 0 c10 -12 10 -15 -4 -15 -9 0 -16 7 -16 15 0 8 2 15 4
15 2 0 9 -7 16 -15z m-800 -4 c0 -6 -4 -13 -10 -16 -5 -3 -10 1 -10 9 0 9 5
16 10 16 6 0 10 -4 10 -9z m405 -1 c3 -5 -1 -10 -9 -10 -9 0 -16 5 -16 10 0 6
4 10 9 10 6 0 13 -4 16 -10z m-199 -8 c-5 -8 53 -48 65 -45 4 1 15 -7 25 -18
18 -20 18 -20 -8 -10 -14 5 -29 7 -34 3 -4 -4 -4 -2 -1 4 4 6 -9 19 -28 30
-32 17 -36 17 -67 1 -115 -60 -153 -85 -151 -101 1 -14 -4 -16 -20 -12 -22 5
-107 -37 -107 -53 0 -5 -13 -11 -30 -14 -16 -4 -39 -16 -50 -27 -23 -23 -42
-26 -34 -6 3 8 18 20 32 26 45 18 85 40 141 78 29 20 59 37 67 38 7 1 32 15
56 31 24 16 60 37 80 48 20 10 35 23 32 27 -3 4 4 8 16 8 12 0 19 -4 16 -8z
m402 -4 c-3 -7 -11 -13 -18 -13 -7 0 -15 6 -17 13 -3 7 4 12 17 12 13 0 20 -5
18 -12z m402 3 c0 -14 -18 -23 -30 -16 -6 4 -8 11 -5 16 8 12 35 12 35 0z
m-1205 -21 c3 -5 -1 -10 -10 -10 -9 0 -13 5 -10 10 3 6 8 10 10 10 2 0 7 -4
10 -10z m708 -43 c-9 -16 -24 9 -17 28 7 18 8 18 14 -1 4 -10 5 -23 3 -27z
m406 12 c-9 -17 -13 -19 -20 -8 -7 12 3 22 29 28 1 1 -2 -9 -9 -20z m-1609 1
c0 -5 -2 -10 -4 -10 -3 0 -8 5 -11 10 -3 6 -1 10 4 10 6 0 11 -4 11 -10z m167
-4 c0 -8 -6 -12 -15 -9 -11 5 -11 7 0 14 7 5 13 9 14 9 0 0 1 -6 1 -14z m239
-18 c-22 -15 -26 -7 -17 30 1 1 7 -3 15 -10 10 -9 11 -15 2 -20z m167 13 c-3
-12 -11 -17 -19 -14 -17 6 -18 20 -1 26 22 9 25 7 20 -12z m804 5 c0 -8 -8
-14 -18 -13 -14 1 -15 4 -7 14 14 17 25 16 25 -1z m413 4 c0 -5 -3 -10 -7 -11
-5 0 -16 -2 -26 -4 -15 -3 -16 -1 -6 11 13 16 39 19 39 4z m-1180 -40 c0 -5
-7 -7 -15 -4 -8 4 -15 8 -15 10 0 2 7 4 15 4 8 0 15 -4 15 -10z m435 -4 c10
-7 27 -11 38 -8 13 3 18 1 13 -6 -9 -14 63 -63 98 -66 5 -1 11 -7 14 -13 4
-14 -24 -18 -30 -5 -5 13 -74 52 -91 52 -9 0 -20 6 -24 13 -4 7 -19 21 -33 30
-13 9 -20 17 -14 17 6 0 19 -6 29 -14z m645 -6 c0 -5 -2 -10 -4 -10 -3 0 -8 5
-11 10 -3 6 -1 10 4 10 6 0 11 -4 11 -10z m-1397 -17 c-5 -12 -3 -14 8 -9 8 4
5 0 -5 -8 -11 -9 -23 -16 -27 -16 -9 0 -6 20 4 38 12 18 27 15 20 -5z m347 7
c0 -5 -2 -10 -4 -10 -3 0 -8 5 -11 10 -3 6 -1 10 4 10 6 0 11 -4 11 -10z m860
-10 c0 -11 -6 -20 -14 -20 -7 0 -16 9 -19 20 -4 15 0 20 14 20 12 0 19 -7 19
-20z m-1251 -36 c14 -12 -19 -1 -35 12 -18 14 -18 14 6 3 14 -6 27 -13 29 -15z
m1046 16 c3 -5 1 -10 -4 -10 -6 0 -11 5 -11 10 0 6 2 10 4 10 3 0 8 -4 11 -10z
m-800 -28 c-3 -3 -11 0 -18 7 -9 10 -8 11 6 5 10 -3 15 -9 12 -12z m235 8 c0
-5 -2 -10 -4 -10 -3 0 -8 5 -11 10 -3 6 -1 10 4 10 6 0 11 -4 11 -10z m-560
-20 c0 -5 -5 -10 -11 -10 -5 0 -7 5 -4 10 3 6 8 10 11 10 2 0 4 -4 4 -10z
m115 0 c3 -5 2 -10 -4 -10 -5 0 -13 5 -16 10 -3 6 -2 10 4 10 5 0 13 -4 16
-10z m690 -18 c-8 -8 -25 10 -19 20 4 6 9 5 15 -3 4 -7 6 -15 4 -17z m405 13
c0 -8 -4 -15 -9 -15 -13 0 -22 16 -14 24 11 11 23 6 23 -9z m225 -6 c-10 -15
-25 -10 -19 6 4 8 10 12 15 9 5 -3 7 -10 4 -15z m176 6 c1 -16 -17 -17 -30 -2
-9 12 -7 14 9 13 11 0 21 -5 21 -11z m-977 -27 c-3 -4 -11 -2 -18 5 -10 8 -11
14 -3 19 13 8 29 -11 21 -24z m-751 10 c-2 -5 -10 -8 -18 -8 -8 0 -16 3 -18 8
-3 4 5 7 18 7 13 0 21 -3 18 -7z m361 4 c3 -5 -1 -9 -9 -9 -8 0 -15 4 -15 9 0
4 4 8 9 8 6 0 12 -4 15 -8z m-280 -8 c21 -8 21 -24 0 -24 -8 0 -13 4 -10 9 4
5 0 12 -6 14 -7 3 -10 6 -6 6 3 1 13 -2 22 -5z m1164 -33 c2 -6 -6 -11 -18
-11 -12 0 -18 5 -15 10 3 6 2 10 -2 10 -5 0 -18 7 -29 14 -17 13 -14 13 21 2
21 -8 41 -19 43 -25z m-921 15 c0 -8 -6 -12 -15 -9 -11 5 -11 7 0 14 7 5 13 9
14 9 0 0 1 -6 1 -14z m-287 0 c0 -3 -4 -8 -10 -11 -5 -3 -10 -1 -10 4 0 6 5
11 10 11 6 0 10 -2 10 -4z m831 -31 c16 -9 32 -15 35 -14 4 0 10 -3 13 -9 13
-20 103 -64 121 -59 16 4 17 2 7 -14 -12 -20 -27 -25 -27 -10 0 12 -172 111
-191 111 -8 0 -29 -9 -47 -20 -52 -32 -50 -23 4 15 27 19 51 30 52 25 2 -6 17
-17 33 -25z m777 17 c2 -7 -5 -12 -17 -12 -14 0 -19 5 -14 15 6 17 25 15 31
-3z m-1005 -13 c-6 -6 -9 -19 -5 -28 5 -14 3 -14 -11 -3 -9 8 -22 11 -29 7 -7
-4 -2 3 12 14 26 21 52 29 33 10z m404 -4 c0 -8 -4 -15 -7 -15 -4 0 -13 7 -20
15 -10 12 -9 15 7 15 11 0 20 -7 20 -15z m400 2 c0 -8 -6 -14 -14 -14 -7 0
-13 6 -13 14 0 7 6 13 13 13 8 0 14 -6 14 -13z m-1202 -17 c-3 -5 -10 -10 -16
-10 -5 0 -9 5 -9 10 0 6 7 10 16 10 8 0 12 -4 9 -10z m138 -19 c-3 -13 -11
-17 -24 -14 -10 3 -19 10 -19 15 0 6 7 8 15 4 9 -3 15 0 15 10 0 8 4 13 9 10
5 -3 7 -14 4 -25z m-268 1 c-3 -3 -11 0 -18 7 -9 10 -8 11 6 5 10 -3 15 -9 12
-12z m125 -13 c0 -14 -13 -10 -40 11 l-25 20 33 -11 c17 -6 32 -15 32 -20z
m925 21 c-3 -5 -12 -10 -18 -10 -7 0 -6 4 3 10 19 12 23 12 15 0z m-1221 -12
c-3 -4 -9 -8 -15 -8 -5 0 -9 4 -9 8 0 5 7 9 15 9 8 0 12 -4 9 -9z m571 2 c-3
-5 -11 -10 -16 -10 -6 0 -7 5 -4 10 3 6 11 10 16 10 6 0 7 -4 4 -10z m215 -5
c0 -2 -10 -9 -22 -15 -22 -11 -22 -10 -4 4 21 17 26 19 26 11z m395 -5 c-3 -5
-12 -10 -18 -10 -7 0 -6 4 3 10 19 12 23 12 15 0z m245 -16 c0 -2 -9 0 -20 6
-11 6 -20 13 -20 16 0 2 9 0 20 -6 11 -6 20 -13 20 -16z m385 8 c-3 -3 -11 0
-18 7 -9 10 -8 11 6 5 10 -3 15 -9 12 -12z m-1655 4 c0 -2 -9 -6 -20 -9 -11
-3 -18 -1 -14 4 5 9 34 13 34 5z m460 0 c0 -3 -4 -8 -10 -11 -5 -3 -10 -1 -10
4 0 6 5 11 10 11 6 0 10 -2 10 -4z m676 -42 c-11 -24 -26 -13 -21 15 2 9 4 20
4 24 1 4 7 2 14 -5 10 -9 11 -17 3 -34z m-1291 26 c-3 -5 -11 -10 -16 -10 -6
0 -7 5 -4 10 3 6 11 10 16 10 6 0 7 -4 4 -10z m888 -19 c-4 -4 -11 -10 -15
-15 -5 -5 -8 3 -8 19 0 24 2 26 15 15 9 -7 12 -16 8 -19z m-783 -1 c0 -17 -2
-19 -14 -8 -10 9 -11 15 -2 20 16 11 16 10 16 -12z m230 11 c0 -6 -4 -13 -10
-16 -5 -3 -10 1 -10 9 0 9 5 16 10 16 6 0 10 -4 10 -9z m160 -5 c-7 -7 -14 -6
-21 1 -9 9 -7 12 9 10 14 -1 18 -5 12 -11z m209 -16 c-18 -17 -35 -26 -37 -20
-2 5 -7 8 -11 6 -4 -3 -8 1 -8 7 0 7 11 14 24 15 14 1 32 6 41 12 29 16 27 11
-9 -20z m998 17 c0 -8 -6 -14 -13 -14 -7 0 -15 6 -18 14 -3 8 2 13 13 13 10 0
18 -6 18 -13z m-1477 -12 c11 -13 10 -14 -4 -9 -9 3 -16 10 -16 15 0 13 6 11
20 -6z m1273 -11 c-7 -19 -16 -18 -30 4 -10 17 -8 18 12 14 15 -2 22 -9 18
-18z m-1511 -36 c-8 -8 -8 -15 -1 -24 8 -10 6 -10 -14 -1 l-25 11 22 12 c28
16 32 16 18 2z m628 -12 c14 -18 14 -19 -8 -7 -12 7 -20 17 -16 22 3 6 7 9 8
7 1 -2 8 -12 16 -22z m156 11 c21 8 17 -5 -6 -17 -17 -9 -20 -8 -19 12 0 13 3
18 5 11 3 -7 12 -9 20 -6z m236 -29 c-6 -24 -22 -4 -17 21 2 9 4 18 4 21 1 3
5 -1 10 -9 5 -7 6 -22 3 -33z m172 17 c-4 -8 -10 -13 -15 -10 -4 3 -6 12 -3
20 4 8 10 13 15 10 4 -3 6 -12 3 -20z m234 -1 c-14 -14 -16 -14 -22 1 -4 13
-2 16 9 11 8 -3 15 0 15 6 0 6 3 8 7 4 4 -3 0 -13 -9 -22z m166 3 c-3 -8 -11
-14 -19 -14 -11 0 -12 4 -4 14 6 7 15 13 20 13 5 0 6 -6 3 -13z m228 -2 c0 -5
-5 -11 -10 -13 -5 -1 -9 4 -9 13 0 9 4 14 9 13 5 -2 10 -8 10 -13z m-935 -17
c-3 -8 -6 -5 -6 6 -1 11 2 17 5 13 3 -3 4 -12 1 -19z m-612 -8 c3 -5 2 -10 -4
-10 -5 0 -13 5 -16 10 -3 6 -2 10 4 10 5 0 13 -4 16 -10z m1379 2 c3 -5 -1 -9
-9 -9 -8 0 -12 4 -9 9 3 4 7 8 9 8 2 0 6 -4 9 -8z m-1324 -6 c0 -2 -7 -7 -16
-10 -8 -3 -12 -2 -9 4 6 10 25 14 25 6z m380 -12 c0 -2 -7 -4 -15 -4 -8 0 -15
4 -15 10 0 5 7 7 15 4 8 -4 15 -8 15 -10z m597 -45 c-11 -27 -11 -27 -22 -6
-7 15 -8 29 -1 43 9 19 12 20 22 6 8 -11 8 -23 1 -43z m-402 37 c18 -13 18
-14 -3 -25 -12 -6 -22 -10 -23 -9 -12 49 -6 58 26 34z m205 10 c0 -3 -4 -8
-10 -11 -5 -3 -10 -1 -10 4 0 6 5 11 10 11 6 0 10 -2 10 -4z m617 -27 c-12
-19 -27 -20 -39 -4 -11 15 1 25 26 23 20 -2 22 -5 13 -19z m-1274 -24 c-3 -9
-8 -14 -10 -11 -3 3 -2 9 2 15 9 16 15 13 8 -4z m657 11 c0 -3 -4 -8 -10 -11
-5 -3 -10 -1 -10 4 0 6 5 11 10 11 6 0 10 -2 10 -4z m-835 -36 c-3 -5 -11 -10
-16 -10 -6 0 -7 5 -4 10 3 6 11 10 16 10 6 0 7 -4 4 -10z m513 -19 c-7 -2 -16
-9 -20 -15 -4 -6 -8 1 -8 17 0 25 2 26 20 15 13 -9 16 -14 8 -17z m247 9 c-8
-9 -21 -17 -29 -17 -10 0 -11 4 -4 17 6 8 18 16 29 16 16 0 17 -2 4 -16z
m-148 -12 c-3 -8 -6 -5 -6 6 -1 11 2 17 5 13 3 -3 4 -12 1 -19z m306 16 c3 -3
3 -13 0 -21 -5 -12 -7 -12 -14 -1 -15 23 -4 40 14 22z m235 -6 c-2 -6 -12 -12
-22 -14 -14 -2 -15 0 -5 12 14 17 32 19 27 2z m167 3 c3 -5 1 -12 -4 -15 -5
-3 -11 1 -15 9 -6 16 9 21 19 6z m239 -5 c-3 -8 -14 -14 -24 -13 -14 1 -16 4
-8 14 14 18 39 17 32 -1z m-1904 -12 c0 -8 -5 -12 -10 -9 -6 4 -8 11 -5 16 9
14 15 11 15 -7z m307 2 c0 -8 -6 -12 -15 -9 -11 5 -11 7 0 14 7 5 13 9 14 9 0
0 1 -6 1 -14z m163 -12 c0 -2 -9 0 -20 6 -11 6 -20 13 -20 16 0 2 9 0 20 -6
11 -6 20 -13 20 -16z m-50 0 c0 -8 -5 -12 -10 -9 -6 4 -8 11 -5 16 9 14 15 11
15 -7z m947 -16 c-3 -8 -6 -5 -6 6 -1 11 2 17 5 13 3 -3 4 -12 1 -19z m-1027
2 c0 -5 -2 -10 -4 -10 -3 0 -8 5 -11 10 -3 6 -1 10 4 10 6 0 11 -4 11 -10z
m48 -21 c-6 -4 -3 -11 8 -18 11 -6 15 -11 11 -11 -4 0 -19 7 -33 16 -23 15
-23 17 -7 29 13 10 20 10 25 2 4 -6 2 -14 -4 -18z m797 3 c-3 -3 -21 -11 -40
-18 l-35 -12 28 27 c18 18 31 24 40 17 7 -5 10 -11 7 -14z m405 -2 c0 -19 -28
-10 -33 10 -4 17 -2 18 14 9 10 -5 19 -14 19 -19z m-1514 -16 c1 -9 0 -13 -4
-10 -3 4 -7 14 -8 22 -1 9 0 13 4 10 3 -4 7 -14 8 -22z m229 16 c-3 -6 0 -13
9 -16 8 -3 12 -12 9 -20 -3 -8 -9 -11 -14 -8 -5 3 -7 10 -4 15 6 8 -8 13 -30
10 -5 -1 -1 6 9 14 23 17 30 19 21 5z m664 -4 c9 -11 8 -15 -5 -20 -8 -3 -17
-6 -18 -6 -1 0 -2 9 -2 20 0 23 9 26 25 6z m827 -5 c0 -12 -6 -17 -18 -13 -23
6 -23 19 0 25 9 3 17 5 17 6 1 0 1 -7 1 -18z m-1226 -7 c0 -8 -5 -12 -10 -9
-6 4 -8 11 -5 16 9 14 15 11 15 -7z m810 6 c0 -5 -4 -10 -10 -10 -5 0 -10 5
-10 10 0 6 5 10 10 10 6 0 10 -4 10 -10z m-686 -25 c3 -8 1 -15 -4 -15 -6 0
-10 7 -10 15 0 8 2 15 4 15 2 0 6 -7 10 -15z m-173 -8 c-6 -8 -7 -18 -3 -22 4
-5 1 -5 -7 0 -8 4 -16 2 -21 -5 -5 -8 -10 -9 -14 -2 -3 6 3 13 14 17 11 3 20
11 20 16 0 5 5 9 11 9 8 0 9 -4 0 -13z m579 4 c0 -5 -8 -11 -17 -15 -10 -3
-25 -9 -33 -12 -8 -3 -4 4 10 15 27 22 40 26 40 12z m160 5 c0 -3 -4 -8 -10
-11 -5 -3 -10 -1 -10 4 0 6 5 11 10 11 6 0 10 -2 10 -4z m107 -33 c-3 -10 -5
-4 -5 12 0 17 2 24 5 18 2 -7 2 -21 0 -30z m133 27 c0 -5 -4 -10 -10 -10 -5 0
-10 5 -10 10 0 6 5 10 10 10 6 0 10 -4 10 -10z m165 0 c3 -5 2 -10 -4 -10 -5
0 -13 5 -16 10 -3 6 -2 10 4 10 5 0 13 -4 16 -10z m235 0 c0 -5 -5 -10 -11
-10 -5 0 -7 5 -4 10 3 6 8 10 11 10 2 0 4 -4 4 -10z m-1760 -10 c-8 -5 -19
-10 -25 -10 -5 0 -3 5 5 10 8 5 20 10 25 10 6 0 3 -5 -5 -10z m227 -10 c2 -17
-1 -18 -18 -7 -18 11 -18 12 -1 19 9 3 17 7 17 7 1 1 1 -8 2 -19z m-177 -21
c0 -22 10 -24 30 -6 12 10 12 9 1 -5 -11 -15 -11 -19 3 -24 18 -7 12 -24 -10
-24 -8 0 -13 6 -11 13 1 6 -4 11 -10 10 -8 -2 -13 7 -13 20 0 13 -6 29 -12 36
-11 10 -10 11 5 6 9 -4 17 -16 17 -26z m451 18 c-1 -12 -15 -9 -19 4 -3 6 1
10 8 8 6 -3 11 -8 11 -12z m254 3 c3 -5 2 -10 -4 -10 -5 0 -13 5 -16 10 -3 6
-2 10 4 10 5 0 13 -4 16 -10z m405 0 c0 -5 -4 -10 -10 -10 -5 0 -10 5 -10 10
0 6 5 10 10 10 6 0 10 -4 10 -10z m160 0 c0 -5 -5 -10 -11 -10 -5 0 -7 5 -4
10 3 6 8 10 11 10 2 0 4 -4 4 -10z m240 0 c0 -5 -4 -10 -10 -10 -5 0 -10 5
-10 10 0 6 5 10 10 10 6 0 10 -4 10 -10z m165 0 c-3 -5 -11 -10 -16 -10 -6 0
-7 5 -4 10 3 6 11 10 16 10 6 0 7 -4 4 -10z m-1815 -9 c0 -6 -4 -13 -10 -16
-5 -3 -10 1 -10 9 0 9 5 16 10 16 6 0 10 -4 10 -9z m954 -15 l31 17 -30 -29
c-16 -16 -34 -27 -39 -23 -5 4 -15 5 -24 2 -10 -5 -13 -2 -8 6 5 7 0 18 -10
27 -14 11 -10 11 15 -2 32 -15 36 -15 65 2z m176 -6 c0 -5 -4 -10 -9 -10 -6 0
-13 5 -16 10 -3 6 1 10 9 10 9 0 16 -4 16 -10z m405 0 c-3 -5 -10 -10 -16 -10
-5 0 -9 5 -9 10 0 6 7 10 16 10 8 0 12 -4 9 -10z m214 -13 c-13 -12 -30 -23
-36 -23 -7 0 -11 2 -8 4 3 3 0 11 -6 18 -8 9 -5 11 10 7 10 -3 28 0 38 6 28
16 28 13 2 -12z m-1696 -13 c-5 -13 -1 -15 17 -9 14 5 20 3 16 -3 -3 -6 0 -12
6 -15 7 -2 -1 -4 -19 -3 -17 1 -29 4 -27 8 2 4 0 9 -5 13 -6 3 -8 12 -5 20 4
8 10 13 15 10 4 -3 5 -13 2 -21z m387 16 c0 -5 -5 -10 -11 -10 -5 0 -7 5 -4
10 3 6 8 10 11 10 2 0 4 -4 4 -10z m178 -60 c28 -18 52 -34 52 -36 0 -5 -83
38 -90 47 -6 7 -47 29 -54 29 -4 0 -5 -20 -4 -45 0 -25 -2 -48 -5 -52 -4 -3
-7 17 -7 45 0 29 -5 52 -10 52 -6 0 -5 6 2 14 11 11 17 10 38 -4 14 -10 49
-32 78 -50z m719 49 c-6 -9 -17 -15 -24 -12 -25 10 -12 32 17 30 14 -1 15 -5
7 -18z m-927 -9 c0 -5 -2 -10 -4 -10 -3 0 -8 5 -11 10 -3 6 -1 10 4 10 6 0 11
-4 11 -10z m443 -24 c-13 -18 -21 -21 -31 -13 -10 8 -10 12 0 18 6 4 15 6 19
3 4 -2 10 0 14 6 3 5 8 10 11 10 3 0 -3 -11 -13 -24z m416 0 c-14 -13 -42 -29
-62 -35 -20 -7 -47 -25 -60 -40 -12 -15 -28 -26 -34 -24 -7 3 -23 -3 -37 -13
-14 -9 -26 -12 -26 -8 1 9 82 64 94 64 4 0 25 12 49 27 38 25 85 50 97 52 3 1
-7 -10 -21 -23z m-824 5 c3 -5 1 -12 -5 -16 -5 -3 -10 1 -10 9 0 18 6 21 15 7z
m581 -10 c-10 -10 -26 -21 -38 -24 -19 -5 -19 -5 -3 13 10 11 21 17 26 15 4
-3 10 -1 14 5 3 5 9 10 12 10 3 0 -2 -9 -11 -19z m632 -1 c-16 -24 -22 -25
-39 -3 -8 9 -9 14 -4 11 6 -3 19 -2 30 3 11 4 21 8 23 8 1 1 -3 -8 -10 -19z
m-242 -8 c-8 -8 -19 -11 -25 -7 -16 9 -4 24 19 22 17 -1 18 -3 6 -15z m404 -3
c0 -5 -7 -9 -15 -9 -9 0 -12 6 -9 15 6 15 24 11 24 -6z m-1530 -29 c0 -4 -7
-10 -15 -14 -10 -4 -15 1 -15 14 0 13 5 18 15 14 8 -4 15 -10 15 -14z m475 0
c-3 -5 -12 -10 -18 -10 -7 0 -6 4 3 10 19 12 23 12 15 0z m-415 -44 c0 -7 -3
-6 -8 2 -5 7 -15 10 -23 7 -10 -4 -15 1 -16 15 -2 19 0 19 23 4 13 -9 24 -21
24 -28z m1175 34 c-3 -6 0 -13 8 -16 7 -2 14 -11 14 -18 0 -10 -6 -12 -21 -6
-22 8 -28 30 -11 42 14 11 17 10 10 -2z m-1470 -40 c3 -5 1 -10 -4 -10 -6 0
-11 5 -11 10 0 6 2 10 4 10 3 0 8 -4 11 -10z m466 -36 c-2 -27 1 -34 16 -35
10 0 13 -3 6 -6 -7 -2 -13 -11 -13 -19 0 -8 -6 -14 -13 -14 -16 0 -191 -99
-195 -111 -2 -4 -12 1 -23 12 -11 11 -27 18 -35 15 -7 -3 -13 0 -11 6 1 7 -3
12 -8 13 -15 0 -72 44 -58 45 6 0 14 -4 18 -9 5 -10 108 -61 121 -61 4 0 30
15 58 33 28 18 64 39 80 47 30 15 48 49 45 84 -2 35 1 50 8 42 4 -4 6 -23 4
-42z m245 31 c18 -13 18 -14 -4 -8 -12 3 -25 9 -28 14 -8 14 10 11 32 -6z
m-605 -4 c7 11 9 9 9 -8 0 -20 -2 -21 -25 -11 -14 6 -25 16 -25 21 0 5 7 4 16
-4 13 -10 17 -10 25 2z m-66 -11 c-3 -5 -11 -10 -16 -10 -6 0 -7 5 -4 10 3 6
11 10 16 10 6 0 7 -4 4 -10z m623 -34 c0 -24 2 -48 6 -54 3 -5 -1 -15 -9 -22
-13 -10 -14 -3 -12 54 1 36 5 66 9 66 4 0 7 -20 6 -44z m132 4 c3 -3 17 -13
32 -23 25 -16 30 -16 67 -1 24 9 43 25 47 37 7 21 7 21 14 2 5 -15 -1 -23 -34
-39 -23 -11 -43 -23 -46 -26 -3 -4 -13 -9 -22 -13 -12 -4 -15 -2 -11 9 3 10
-9 20 -40 34 -24 11 -50 27 -57 35 -12 14 -10 15 16 3 16 -7 31 -15 34 -18z
m-800 0 c0 -13 -5 -18 -15 -14 -11 5 -12 9 -2 20 16 18 17 17 17 -6z m420 -3
c0 -2 -9 -3 -20 -3 -11 0 -20 6 -20 13 0 11 5 11 20 3 11 -6 20 -12 20 -13z
m133 7 c-3 -15 -20 -15 -26 0 -4 9 0 13 11 12 9 -2 16 -7 15 -12z m1055 2
c-10 -7 -15 -16 -11 -20 4 -4 0 -4 -10 0 -23 8 -22 13 6 24 31 12 35 11 15 -4z
m157 -3 c-2 -10 -4 -20 -4 -23 -1 -3 -5 2 -11 10 -6 9 -5 17 3 22 16 10 16 10
12 -9z m-1605 3 c0 -2 -7 -7 -16 -10 -8 -3 -12 -2 -9 4 6 10 25 14 25 6z
m1034 -9 c-3 -8 -11 -14 -19 -14 -11 0 -12 4 -4 14 6 7 15 13 20 13 5 0 6 -6
3 -13z m175 0 c8 -10 7 -14 -4 -14 -8 0 -16 6 -19 14 -7 17 8 17 23 0z m-1144
-37 c3 -5 1 -10 -4 -10 -6 0 -11 5 -11 10 0 6 2 10 4 10 3 0 8 -4 11 -10z
m1061 2 c-3 -3 -2 -10 3 -16 6 -8 0 -11 -19 -11 -16 0 -26 2 -24 4 2 2 0 9 -5
15 -7 8 0 12 20 12 17 1 28 -1 25 -4z m407 -5 c7 3 9 3 5 -2 -4 -4 0 -14 10
-22 15 -13 14 -13 -7 -3 -12 7 -32 9 -43 7 -19 -5 -19 -5 -2 14 11 12 20 16
22 10 2 -6 9 -8 15 -4z m-1688 -17 c-3 -5 -11 -10 -16 -10 -6 0 -7 5 -4 10 3
6 11 10 16 10 6 0 7 -4 4 -10z m270 -10 c-3 -5 -11 -10 -16 -10 -6 0 -7 5 -4
10 3 6 11 10 16 10 6 0 7 -4 4 -10z m810 0 c3 -5 -1 -10 -9 -10 -9 0 -16 5
-16 10 0 6 4 10 9 10 6 0 13 -4 16 -10z m400 0 c3 -5 -1 -10 -9 -10 -9 0 -16
5 -16 10 0 6 4 10 9 10 6 0 13 -4 16 -10z m-1480 -20 c3 -5 1 -10 -4 -10 -6 0
-11 5 -11 10 0 6 2 10 4 10 3 0 8 -4 11 -10z m540 0 c3 -5 1 -10 -4 -10 -6 0
-11 5 -11 10 0 6 2 10 4 10 3 0 8 -4 11 -10z m-615 -14 c-7 -7 -13 -7 -20 0
-6 6 -3 10 10 10 13 0 16 -4 10 -10z m300 10 c0 -3 -4 -8 -10 -11 -5 -3 -10
-1 -10 4 0 6 5 11 10 11 6 0 10 -2 10 -4z m570 -4 c0 -5 -7 -9 -15 -9 -8 0
-12 4 -9 9 3 4 9 8 15 8 5 0 9 -4 9 -8z m165 -2 c3 -5 2 -10 -4 -10 -5 0 -13
5 -16 10 -3 6 -2 10 4 10 5 0 13 -4 16 -10z m235 2 c0 -5 -7 -9 -15 -9 -8 0
-12 4 -9 9 3 4 9 8 15 8 5 0 9 -4 9 -8z m400 -2 c0 -5 -2 -10 -4 -10 -3 0 -8
5 -11 10 -3 6 -1 10 4 10 6 0 11 -4 11 -10z m-1005 -20 c3 -5 1 -10 -4 -10 -6
0 -11 5 -11 10 0 6 2 10 4 10 3 0 8 -4 11 -10z m165 0 c0 -5 -4 -10 -10 -10
-5 0 -10 5 -10 10 0 6 5 10 10 10 6 0 10 -4 10 -10z m240 0 c0 -5 -4 -10 -10
-10 -5 0 -10 5 -10 10 0 6 5 10 10 10 6 0 10 -4 10 -10z m400 0 c0 -5 -2 -10
-4 -10 -3 0 -8 5 -11 10 -3 6 -1 10 4 10 6 0 11 -4 11 -10z m411 -7 c13 -17
13 -17 -6 -3 -11 8 -22 16 -24 17 -2 2 0 3 6 3 6 0 17 -8 24 -17z m-1330 -6
c-6 -8 -8 -17 -4 -21 4 -4 0 -4 -10 0 -14 5 -15 9 -6 20 6 8 16 14 21 14 7 0
6 -5 -1 -13z m399 -17 c0 -5 -4 -10 -10 -10 -5 0 -10 5 -10 10 0 6 5 10 10 10
6 0 10 -4 10 -10z m210 -15 c-18 -19 -26 -22 -32 -13 -13 21 -9 26 20 31 15 2
29 5 31 6 3 0 -6 -10 -19 -24z m195 15 c3 -5 -1 -10 -9 -10 -9 0 -16 5 -16 10
0 6 4 10 9 10 6 0 13 -4 16 -10z m400 0 c3 -5 -1 -10 -9 -10 -9 0 -16 5 -16
10 0 6 4 10 9 10 6 0 13 -4 16 -10z m-195 -9 c0 -14 -18 -23 -30 -16 -6 4 -8
11 -5 16 8 12 35 12 35 0z m-1333 -17 c-3 -3 -12 -4 -19 -1 -8 3 -5 6 6 6 11
1 17 -2 13 -5z m836 -47 c-9 -15 -21 4 -15 25 5 21 6 21 12 2 4 -10 5 -22 3
-27z m-1038 23 c3 -5 1 -10 -4 -10 -6 0 -11 5 -11 10 0 6 2 10 4 10 3 0 8 -4
11 -10z m402 -9 c-1 -12 -7 -17 -19 -13 -18 4 -18 5 -1 18 23 17 22 17 20 -5z
m1037 -12 c-3 -5 -10 -7 -15 -3 -5 3 -7 10 -3 15 3 5 10 7 15 3 5 -3 7 -10 3
-15z m172 2 c-9 -8 -18 -12 -22 -9 -9 10 3 25 21 25 14 0 14 -2 1 -16z m234 4
c0 -8 -4 -15 -9 -15 -13 0 -22 16 -14 24 11 11 23 6 23 -9z m-1525 -5 c3 -5 1
-10 -4 -10 -6 0 -11 5 -11 10 0 6 2 10 4 10 3 0 8 -4 11 -10z"/>
<path d="M1120 1989 c0 -5 5 -7 10 -4 6 3 10 8 10 11 0 2 -4 4 -10 4 -5 0 -10
-5 -10 -11z"/>
<path d="M353 1442 c-18 -9 -33 -19 -33 -24 0 -4 -6 -8 -12 -8 -7 0 -35 -15
-63 -32 -27 -18 -71 -44 -97 -58 -26 -14 -68 -36 -93 -49 -25 -14 -45 -28 -45
-32 0 -4 11 -14 24 -21 14 -7 54 -30 89 -50 36 -21 71 -38 79 -37 7 0 33 13
58 29 25 16 60 37 78 46 18 9 37 25 43 35 5 11 8 63 7 118 l-3 98 -32 -15z
m-29 -163 c-8 -14 -21 -11 -21 5 0 8 6 12 14 9 7 -3 10 -9 7 -14z m-159 -39
c3 -5 1 -10 -4 -10 -6 0 -11 5 -11 10 0 6 2 10 4 10 3 0 8 -4 11 -10z m45 -25
c0 -2 -7 -5 -15 -9 -9 -3 -15 0 -15 9 0 9 6 12 15 9 8 -4 15 -7 15 -9z m-40
-19 c0 -3 -4 -8 -10 -11 -5 -3 -10 -1 -10 4 0 6 5 11 10 11 6 0 10 -2 10 -4z"/>
</g>
</svg>
