<?xml version="1.0" standalone="no"?>
<!DOCTYPE svg PUBLIC "-//W3C//DTD SVG 20010904//EN"
 "http://www.w3.org/TR/2001/REC-SVG-20010904/DTD/svg10.dtd">
<svg version="1.0" xmlns="http://www.w3.org/2000/svg"
 width="200.000000pt" height="200.000000pt" viewBox="0 0 200.000000 200.000000"
 preserveAspectRatio="xMidYMid meet">
<metadata>
Created by potrace 1.16, written by Peter Selinger 2001-2019
</metadata>
<g transform="translate(0.000000,200.000000) scale(0.100000,-0.100000)"
fill="#000000" stroke="none">
<path d="M1 1984 c-1 -12 6 -27 14 -34 8 -7 15 -20 15 -29 0 -14 2 -14 10 -1
7 11 10 11 10 2 0 -7 4 -10 10 -7 6 3 10 1 10 -4 0 -6 8 -11 18 -12 11 0 12
-2 4 -6 -10 -4 -9 -8 5 -19 17 -13 17 -13 -2 -14 -16 0 -17 -2 -5 -10 9 -6 17
-5 21 2 11 18 49 21 43 4 -6 -16 15 -33 25 -20 3 5 20 9 36 9 34 0 84 24 81
40 -2 5 -1 7 1 3 8 -14 25 -8 20 6 -4 11 -1 13 10 9 10 -4 14 -2 10 4 -5 7 0
9 13 6 12 -3 20 0 20 6 0 7 -6 9 -12 5 -10 -6 -10 -4 0 7 6 7 12 26 12 41 l0
28 -175 0 c-175 0 -175 0 -176 -22 -1 -22 -1 -22 -9 2 -7 22 -8 23 -9 4z m259
-119 c-7 -9 -15 -13 -19 -10 -3 3 1 10 9 15 21 14 24 12 10 -5z"/>
<path d="M380 1972 c1 -26 1 -26 15 -8 17 23 21 21 29 -20 5 -22 2 -35 -9 -44
-8 -7 -15 -10 -15 -6 0 4 -12 -1 -27 -11 -28 -17 -28 -17 -13 2 14 19 14 19
-5 5 -11 -8 -28 -23 -38 -35 -10 -11 -16 -14 -12 -8 4 9 1 11 -9 7 -9 -3 -14
-10 -11 -14 7 -11 -22 -20 -42 -13 -12 5 -15 2 -10 -10 4 -10 -3 -21 -20 -32
-20 -13 -23 -19 -12 -26 8 -5 16 -3 21 4 4 7 6 3 5 -10 -1 -18 -4 -20 -16 -10
-12 10 -14 9 -8 -5 4 -12 1 -16 -14 -15 -14 1 -19 9 -19 33 0 57 -16 85 -48
82 -31 -2 -55 9 -47 22 3 5 1 11 -5 15 -6 4 -7 11 -4 17 5 7 2 8 -5 4 -7 -5
-10 -15 -7 -25 4 -9 -2 -5 -12 8 -36 46 -42 21 -42 -181 0 -165 2 -194 17
-210 15 -17 15 -21 0 -54 -18 -38 -24 -129 -7 -119 6 3 10 -3 10 -15 0 -12 -4
-18 -10 -15 -5 3 -10 0 -10 -7 0 -7 9 -19 20 -26 12 -7 18 -16 16 -21 -6 -9
53 -38 66 -33 5 1 7 -4 5 -10 -1 -8 7 -12 20 -11 11 1 26 -4 32 -11 9 -11 6
-12 -15 -8 -19 3 -25 1 -20 -7 4 -6 12 -9 17 -6 5 4 6 -2 2 -11 -4 -11 -8 -13
-11 -6 -2 7 -7 10 -11 7 -5 -2 -17 3 -27 11 -10 9 -12 12 -4 8 12 -7 13 -5 3
8 -7 8 -9 19 -5 23 4 5 2 5 -4 2 -7 -4 -24 0 -40 8 -15 7 -31 12 -36 9 -9 -6
-11 -397 -2 -406 10 -11 45 5 40 17 -3 8 2 16 10 19 9 3 12 1 9 -4 -3 -6 -1
-10 4 -10 6 0 11 7 11 16 0 13 3 14 14 5 15 -12 32 1 22 17 -2 4 4 14 16 21
11 7 18 8 14 3 -3 -5 1 -9 8 -9 7 0 13 5 13 11 0 6 1 25 2 41 3 30 3 30 11 5
8 -25 11 -20 14 30 0 11 5 20 11 21 13 1 26 -39 15 -46 -6 -4 -10 -10 -10 -14
0 -15 61 -72 70 -66 6 3 17 2 27 -3 14 -9 14 -10 -5 -16 -12 -4 -22 -12 -22
-18 0 -6 6 -6 15 2 8 7 15 9 15 5 0 -4 6 -2 14 4 11 9 16 9 22 0 4 -8 3 -9 -4
-5 -7 4 -12 2 -12 -3 0 -6 6 -12 13 -12 25 -3 52 -7 62 -9 22 -5 35 1 35 15 0
13 4 14 20 5 17 -9 20 -8 20 9 0 11 6 23 13 27 6 4 9 4 5 -1 -4 -4 0 -14 10
-22 9 -8 12 -12 5 -9 -6 4 -15 1 -18 -4 -4 -6 -18 -15 -31 -20 -13 -5 -24 -16
-24 -24 0 -7 -7 -19 -15 -26 -9 -8 -12 -22 -8 -42 5 -24 3 -30 -8 -26 -8 3
-15 11 -15 19 -1 8 -2 20 -3 27 0 7 -6 10 -11 7 -6 -4 -10 7 -10 26 0 18 -3
29 -6 26 -4 -4 -19 2 -34 13 -20 14 -30 16 -38 8 -8 -8 -19 -3 -41 21 -26 27
-32 30 -56 21 -17 -7 -24 -7 -20 0 8 13 2 13 -30 -2 -14 -6 -24 -17 -21 -24 3
-9 -1 -11 -11 -7 -10 4 -14 2 -9 -5 3 -6 1 -14 -5 -18 -8 -4 -9 -3 -5 4 4 7 1
12 -8 12 -18 0 -57 -35 -49 -43 3 -3 -4 -12 -16 -19 -21 -13 -29 -48 -11 -48
6 0 10 -9 10 -21 0 -11 -4 -17 -10 -14 -6 4 -10 -10 -10 -35 0 -23 4 -39 9
-36 16 10 22 -67 6 -84 -12 -13 -15 -53 -15 -205 0 -164 2 -191 17 -207 17
-19 17 -21 0 -50 -9 -16 -17 -34 -17 -39 0 -5 79 -9 185 -9 169 0 185 1 186
18 0 14 2 14 9 -3 8 -20 9 -19 9 1 1 12 -6 27 -14 34 -8 7 -12 17 -8 23 4 6 0
8 -9 4 -10 -3 -18 1 -21 12 -3 12 -14 19 -32 19 -17 0 -35 8 -45 22 -10 13
-22 20 -28 16 -6 -3 -13 -2 -16 2 -8 14 -65 12 -62 -1 1 -7 1 -9 -1 -4 -3 4
-9 4 -14 1 -6 -3 -18 0 -27 8 -15 12 -16 11 -3 -4 12 -17 8 -23 -13 -19 -5 1
-6 -5 -3 -13 7 -19 -19 -35 -44 -29 -26 7 -13 24 14 19 12 -1 16 -1 9 1 -10 4
-9 8 5 18 10 7 18 19 18 27 0 8 9 12 22 10 30 -4 53 33 53 86 0 24 4 41 9 38
5 -3 11 3 14 14 3 11 1 22 -3 25 -5 3 -11 -3 -13 -12 -3 -10 -4 -4 -3 14 2 17
7 38 12 45 7 9 3 20 -14 38 -14 14 -21 19 -17 11 5 -10 4 -12 -4 -7 -6 4 -8
12 -5 18 4 6 0 14 -7 19 -11 7 -11 9 -1 9 7 0 10 5 7 10 -3 6 -1 10 4 10 6 0
11 -7 11 -15 0 -8 5 -15 11 -15 5 0 8 4 4 10 -3 5 7 3 21 -5 30 -15 44 -12 44
10 0 9 6 12 17 8 10 -4 14 -2 9 5 -3 6 -1 14 5 18 8 4 9 3 5 -4 -4 -7 -1 -12
8 -12 10 0 13 6 9 18 -6 15 -5 15 10 3 22 -18 22 -39 0 -37 -11 0 -17 -5 -15
-13 2 -11 0 -12 -11 -3 -11 10 -17 9 -26 -1 -6 -8 -7 -18 -3 -22 4 -5 2 -5 -4
-2 -8 4 -16 -10 -23 -38 -6 -25 -16 -45 -22 -45 -8 0 -7 -5 1 -15 7 -8 9 -15
6 -15 -4 0 0 -8 9 -17 16 -15 16 -18 1 -28 -20 -15 -21 -44 -1 -51 8 -4 15
-15 15 -26 0 -15 5 -19 20 -15 13 3 18 1 13 -6 -4 -6 -1 -8 8 -5 10 4 15 -1
15 -13 0 -11 -5 -19 -10 -19 -5 0 -6 -3 -3 -6 10 -10 38 17 30 29 -3 6 -1 7 6
3 6 -4 9 -11 6 -16 -6 -10 24 -22 36 -14 5 3 8 0 7 -8 -4 -18 54 -17 70 2 10
13 11 13 6 -3 -6 -16 -3 -16 29 3 49 29 82 11 36 -19 -19 -11 -21 -11 -16 3 5
13 3 14 -13 3 -11 -6 -20 -15 -20 -20 0 -4 -4 -6 -9 -3 -9 6 -22 -25 -24 -59
-1 -19 5 -20 190 -22 165 -2 192 0 197 14 5 11 2 14 -10 9 -11 -4 -15 -2 -11
8 3 8 -1 17 -9 20 -9 3 -12 11 -8 18 4 7 4 10 0 7 -4 -4 -22 6 -39 23 -19 16
-39 27 -50 24 -9 -2 -15 0 -11 5 3 5 0 9 -7 9 -6 0 -18 8 -25 18 -8 10 -13 12
-14 5 0 -7 -7 -10 -15 -7 -8 4 -23 0 -32 -7 -12 -10 -15 -10 -9 -2 4 7 2 13
-4 13 -6 0 -14 -9 -18 -21 -7 -18 -10 -19 -20 -6 -10 12 -7 17 15 28 29 15 36
28 35 64 0 11 2 14 5 8 5 -15 33 -18 33 -4 0 5 -9 13 -20 16 -11 3 -20 13 -20
21 0 8 5 12 10 9 6 -4 10 5 10 19 0 16 6 26 15 26 18 0 19 -11 3 -29 -11 -11
-10 -12 0 -6 11 6 12 3 3 -14 -8 -14 -8 -21 -1 -21 5 0 10 -9 10 -19 0 -11 5
-23 10 -26 6 -4 8 -10 5 -15 -3 -5 0 -12 6 -16 8 -4 9 -3 5 4 -4 7 -2 12 3 12
6 0 11 -7 11 -16 0 -8 4 -13 8 -10 5 3 16 -6 27 -20 15 -20 20 -22 33 -12 11
9 14 9 9 1 -10 -16 3 -22 63 -28 46 -5 52 -3 46 11 -5 14 -4 15 9 4 14 -12 17
-8 14 16 -1 10 24 23 33 18 4 -3 12 -13 18 -23 8 -15 6 -17 -14 -14 -18 4 -25
-1 -30 -19 -5 -19 -8 -20 -16 -8 -7 11 -10 11 -10 2 0 -7 -4 -10 -10 -7 -5 3
-10 -3 -10 -14 0 -12 -4 -21 -8 -21 -5 0 -8 -10 -7 -23 l2 -22 384 0 384 0 3
23 c2 12 -1 22 -7 22 -6 0 -11 7 -11 16 0 9 -5 12 -12 8 -7 -4 -10 -4 -6 1 4
4 3 14 -3 22 -9 10 -8 13 5 13 9 0 16 -6 16 -12 0 -9 3 -10 8 -2 10 15 52 24
52 11 0 -6 3 -7 7 -3 5 4 8 13 8 19 0 7 7 12 15 13 30 1 80 16 80 23 0 5 11
20 25 35 29 31 61 34 70 6 4 -11 11 -18 16 -15 5 4 9 -1 9 -9 0 -9 6 -17 13
-17 6 -1 17 -2 22 -4 6 -1 16 -3 23 -3 7 -1 24 -14 37 -28 13 -14 29 -23 34
-19 7 4 11 75 11 198 l0 191 -27 24 c-16 13 -22 21 -15 17 7 -4 12 0 12 9 0 9
7 16 15 16 12 0 15 16 14 93 -1 50 -4 83 -7 72 -4 -16 -7 -11 -16 19 -6 22
-17 41 -25 44 -9 3 -11 0 -6 -9 4 -8 -6 1 -22 19 -21 23 -32 29 -40 21 -7 -7
-10 -3 -8 15 2 15 -1 24 -6 20 -5 -3 -9 -12 -9 -20 0 -8 -5 -12 -10 -9 -6 4
-8 11 -5 16 4 5 3 9 -2 10 -4 0 -23 2 -42 4 -22 2 -29 0 -20 -6 10 -6 7 -9
-12 -9 -15 0 -32 6 -38 14 -10 12 -8 17 8 26 16 8 21 8 21 -2 0 -7 7 0 15 15
9 18 13 44 10 68 -3 25 -1 39 6 39 7 0 9 9 6 23 -3 12 -8 32 -11 45 -2 12 -7
26 -11 31 -3 5 -7 23 -9 39 -2 22 0 29 10 25 8 -3 11 -9 8 -14 -3 -5 7 -4 21
1 15 6 24 6 20 1 -3 -5 -1 -12 5 -16 5 -3 10 1 10 9 0 9 3 15 8 15 22 -4 34 3
29 15 -3 8 0 17 8 20 8 3 15 1 17 -5 2 -5 24 11 51 36 l47 46 -1 82 c0 55 -3
75 -9 62 -8 -19 -9 -19 -9 3 -1 34 -20 64 -36 58 -8 -3 -17 0 -21 6 -4 7 -3 8
4 4 7 -4 12 -2 12 3 0 9 -28 16 -52 12 -4 0 -5 6 -2 14 4 10 0 13 -15 10 -12
-2 -19 0 -16 5 3 5 1 11 -5 15 -5 3 -10 0 -10 -7 0 -9 -3 -9 -8 -2 -4 6 -17
10 -30 9 -16 -1 -24 5 -29 24 -3 14 -2 26 4 28 6 2 9 13 6 23 -3 11 0 20 6 20
6 0 11 11 11 25 0 14 -4 25 -9 25 -6 0 -9 9 -8 20 1 13 6 19 15 15 7 -3 18 -5
23 -5 6 0 7 -5 4 -10 -4 -6 -11 -7 -17 -4 -7 4 -8 2 -4 -5 4 -6 12 -9 17 -6 5
4 9 -8 9 -25 0 -18 -4 -29 -10 -25 -9 6 -12 -1 -9 -22 1 -5 5 -7 10 -6 5 2 9
0 8 -5 -1 -4 2 -18 6 -30 6 -18 10 -20 16 -10 7 10 10 8 15 -9 3 -12 13 -24
21 -27 11 -5 14 -2 9 11 -5 15 -3 14 10 -2 8 -11 20 -19 25 -17 6 1 7 -3 3 -9
-5 -9 -2 -10 10 -6 11 5 15 3 10 -5 -5 -8 -2 -9 10 -5 11 5 15 3 10 -4 -4 -7
-1 -10 7 -7 11 4 14 43 14 204 l0 199 -25 -1 c-14 -1 -28 4 -32 10 -4 6 -6 -1
-5 -16 1 -15 -1 -27 -5 -27 -5 -1 -17 -10 -27 -20 -12 -12 -28 -17 -39 -14
-16 4 -21 -2 -27 -26 -4 -17 -11 -29 -16 -25 -5 3 -9 0 -9 -5 0 -6 5 -11 10
-11 6 0 10 -5 10 -11 0 -5 -4 -7 -10 -4 -5 3 -10 2 -10 -4 0 -6 -7 -8 -15 -5
-13 5 -13 9 -3 21 10 12 9 18 -5 28 -9 7 -17 21 -18 31 0 11 -3 13 -6 7 -7
-18 -23 -16 -23 3 0 10 -6 14 -15 10 -8 -3 -15 -1 -15 5 0 6 -5 7 -11 3 -8 -5
-8 -1 0 14 8 15 7 23 -3 31 -7 6 -17 7 -21 3 -5 -4 -5 -2 -1 5 4 7 13 10 21 7
15 -6 28 -32 21 -43 -3 -4 4 -7 15 -7 10 0 19 4 19 9 0 4 5 5 10 2 6 -4 8 -11
5 -16 -6 -8 8 -13 28 -10 25 4 33 8 45 21 8 9 11 9 7 2 -5 -9 -1 -12 11 -10
11 2 18 -2 17 -9 -2 -7 4 -10 13 -6 9 3 11 9 6 12 -14 9 -11 40 4 34 7 -2 18
5 24 17 10 18 14 19 28 8 14 -11 15 -11 9 5 -4 10 -3 16 2 12 5 -3 12 4 16 15
3 11 11 20 16 20 5 0 9 9 9 20 0 19 -7 20 -185 20 -117 0 -185 -4 -185 -10 0
-5 -7 -10 -16 -10 -9 0 -14 -6 -11 -12 2 -7 9 -12 14 -11 5 1 21 -23 35 -52
l26 -55 -29 17 c-16 10 -29 20 -29 23 0 3 -14 5 -31 5 -20 0 -37 -9 -48 -24
-15 -20 -21 -22 -39 -12 -12 7 -22 16 -22 20 0 11 25 21 51 21 11 0 19 7 19
17 0 9 3 13 7 10 9 -10 32 25 33 51 l0 22 -191 0 c-173 0 -190 -2 -178 -16 10
-13 10 -17 -2 -25 -10 -6 -10 -9 -1 -9 6 0 12 -9 12 -19 0 -14 6 -19 19 -16
14 3 18 -1 14 -11 -3 -8 -8 -12 -11 -10 -3 3 -11 1 -19 -5 -7 -6 -13 -7 -13
-2 0 5 -15 9 -32 8 -22 0 -32 -5 -30 -13 1 -7 -3 -12 -10 -11 -26 3 -57 -14
-74 -38 -13 -20 -18 -23 -25 -12 -7 11 -9 11 -9 -3 0 -9 -9 -23 -20 -31 -19
-13 -19 -16 -5 -43 17 -34 19 -48 5 -39 -5 3 -10 1 -10 -6 0 -10 -3 -10 -12
-1 -6 6 -11 27 -10 46 1 19 -5 39 -13 46 -8 7 -12 16 -9 21 3 5 -2 6 -10 3
-17 -7 -21 12 -7 34 7 11 9 11 14 -2 5 -13 11 -14 34 -5 15 6 29 10 31 10 12
-4 22 1 18 8 -4 5 2 7 13 4 10 -3 22 0 25 6 5 7 1 9 -11 5 -16 -6 -15 -5 2 9
10 8 26 12 34 9 9 -3 12 -1 7 6 -5 8 -1 10 10 5 12 -4 15 -3 10 5 -5 8 -2 10
8 6 10 -4 18 1 23 12 3 11 11 22 17 26 7 5 6 8 -2 8 -10 0 -8 5 4 18 17 16 9
17 -171 20 -187 2 -216 -2 -198 -32 4 -5 0 -6 -8 -2 -8 4 -6 1 4 -7 21 -17 22
-53 2 -61 -8 -3 -29 -3 -45 1 -20 3 -30 1 -30 -6 0 -18 -29 -45 -52 -48 -10
-2 -30 -15 -43 -31 -24 -26 -29 -54 -27 -130 0 -18 -3 -30 -9 -27 -9 6 4 -37
19 -59 4 -6 7 -15 7 -20 0 -11 37 -25 49 -18 5 3 6 1 3 -5 -4 -5 6 -16 21 -24
15 -8 32 -20 38 -28 8 -10 20 -11 45 -5 19 4 42 7 52 5 9 -1 17 3 17 9 0 6 8
10 18 8 10 -2 17 3 16 13 -1 11 8 15 32 14 18 0 30 3 28 7 -3 4 3 5 13 2 11
-3 14 -2 8 3 -29 23 11 67 43 46 9 -6 16 -17 14 -23 -2 -8 3 -10 13 -6 9 3 13
2 10 -3 -3 -6 8 -18 25 -27 30 -18 38 -38 21 -49 -5 -3 -13 0 -17 6 -4 8 -3 9
4 5 7 -4 12 -2 12 5 0 6 -8 9 -19 6 -12 -3 -22 1 -25 10 -3 8 -11 11 -17 7 -8
-5 -9 -3 -4 6 6 10 1 11 -21 7 -16 -3 -38 -7 -49 -9 -11 -2 -23 -11 -27 -21
-4 -10 -13 -17 -20 -16 -24 3 -39 -1 -34 -9 5 -9 -35 -9 -50 0 -5 3 -9 -11 -9
-32 -1 -21 -7 -51 -15 -66 -12 -21 -12 -28 -2 -31 16 -6 15 -33 -3 -57 -11
-14 -15 -16 -15 -5 0 12 -2 12 -10 -1 -7 -11 -10 3 -10 47 0 50 3 61 14 57 10
-4 13 0 11 13 -2 10 -4 20 -4 23 -1 3 -6 -2 -11 -10 -8 -13 -10 -12 -11 5 -1
11 -1 23 -1 26 1 4 -6 6 -16 5 -9 0 -17 6 -17 14 0 8 -9 16 -20 16 -11 1 -26
2 -33 3 -7 1 -16 11 -21 24 -12 30 -51 32 -95 6 -22 -13 -37 -16 -41 -9 -3 5
2 10 12 11 16 0 16 1 -2 9 -28 12 -37 12 -29 -2 4 -7 3 -8 -4 -4 -16 10 -15
14 9 27 17 9 20 8 14 -1 -6 -10 -1 -11 19 -6 18 4 25 3 21 -4 -3 -5 -2 -10 4
-10 6 0 8 12 5 30 -5 20 -2 31 7 35 12 5 15 42 10 118 -1 5 -5 5 -11 2 -6 -4
-10 7 -9 27 1 20 3 26 6 14 3 -11 11 -26 19 -34 12 -11 14 -10 14 7 0 12 -4
21 -8 21 -10 0 -45 60 -35 61 4 0 -2 4 -14 9 -15 6 -21 15 -17 25 7 18 30 14
26 -5 -2 -10 25 -11 86 -1 2 1 0 7 -4 14 -6 9 -5 9 8 -1 12 -10 17 -10 27 1 6
8 8 17 4 21 -4 4 0 4 10 0 20 -7 50 13 40 29 -3 6 -1 7 5 3 7 -4 12 -2 12 4 0
6 5 8 10 5 6 -4 10 -3 9 2 -1 4 -1 19 0 33 1 18 4 21 10 12 7 -11 10 -10 15 3
3 9 6 19 6 21 0 3 -94 4 -210 4 l-210 -1 0 -27z m94 -76 c-3 -8 -14 -16 -24
-19 -14 -3 -17 -1 -13 11 5 10 2 13 -6 8 -10 -6 -10 -4 0 12 10 16 17 18 31
11 9 -5 15 -16 12 -23z m424 -13 c-6 -7 -13 -11 -16 -8 -3 3 -10 0 -17 -5 -8
-6 -18 -5 -31 5 -14 11 -15 14 -3 9 13 -4 15 0 11 21 l-4 26 36 -17 c28 -14
33 -20 24 -31z m393 -2 c-7 -5 -10 -14 -6 -20 5 -9 13 -8 31 4 19 12 24 13 24
2 0 -31 -22 -36 -61 -16 -22 11 -39 25 -39 32 0 9 2 9 8 0 6 -9 12 -7 22 7 10
14 17 17 25 9 7 -7 6 -12 -4 -18z m-796 10 c-3 -5 1 -15 8 -23 7 -7 16 -21 20
-31 6 -17 6 -17 -23 0 -17 10 -26 19 -20 21 5 2 8 8 4 13 -5 9 3 29 12 29 3 0
3 -4 -1 -9z m991 -46 c-1 -8 -6 -18 -11 -22 -4 -4 -5 -2 0 6 5 9 3 12 -6 9 -8
-3 -13 -10 -12 -16 2 -7 -4 -9 -14 -5 -10 4 -14 2 -9 -5 3 -6 2 -14 -4 -17 -6
-4 -8 -23 -5 -43 3 -20 2 -31 -1 -24 -3 6 -11 9 -17 5 -7 -4 -6 1 2 11 11 13
11 16 2 14 -7 -2 -21 12 -30 29 -9 18 -21 31 -26 29 -6 -2 -12 5 -12 15 -1 15
2 17 15 10 9 -5 26 -5 39 0 13 5 23 5 23 1 0 -4 5 1 11 10 6 11 16 15 26 11
12 -5 14 -3 8 8 -7 12 -6 12 7 1 9 -7 15 -19 14 -27z m-596 10 c11 -13 10 -14
-4 -9 -9 3 -16 10 -16 15 0 13 6 11 20 -6z m47 2 c0 -8 -6 -14 -14 -14 -9 0
-10 4 -2 14 6 7 12 13 14 13 1 0 2 -6 2 -13z m434 -4 c13 -16 12 -17 -3 -4
-10 7 -18 15 -18 17 0 8 8 3 21 -13z m-1226 -33 c3 -6 -1 -7 -9 -4 -18 7 -21
14 -7 14 6 0 13 -4 16 -10z m1265 -126 c0 -14 4 -23 10 -19 6 3 10 2 10 -4 0
-5 -4 -13 -10 -16 -17 -10 -11 -37 13 -63 12 -14 16 -22 8 -17 -10 6 -12 4 -7
-4 4 -7 17 -11 29 -9 18 3 21 -2 22 -29 1 -30 0 -31 -16 -15 -9 9 -14 22 -11
27 3 6 -2 4 -11 -4 -15 -12 -17 -11 -18 5 0 11 -3 14 -6 6 -2 -6 -8 -10 -12
-8 -4 3 -19 7 -34 10 -19 3 -27 0 -27 -9 0 -9 7 -12 18 -9 16 5 16 5 -1 -6 -9
-6 -22 -8 -27 -5 -6 4 -9 1 -8 -7 2 -7 -4 -13 -12 -13 -9 0 -29 -11 -45 -23
-22 -18 -30 -20 -37 -10 -7 10 -8 10 -7 -2 3 -29 -1 -40 -13 -37 -8 1 -11 -10
-9 -35 3 -40 2 -42 -23 -32 -15 6 -15 8 0 19 16 11 16 14 -3 41 -11 16 -18 36
-16 44 4 12 3 13 -5 1 -8 -11 -14 -11 -33 3 -13 9 -18 16 -12 16 7 0 10 7 7
15 -5 11 -2 13 12 8 13 -5 15 -3 9 7 -5 9 -4 11 4 6 6 -4 9 -11 6 -16 -3 -4 2
-11 11 -14 9 -4 13 -2 8 5 -4 8 -1 8 13 0 14 -7 24 -7 33 2 10 9 11 9 5 -2 -5
-9 -3 -12 6 -9 8 3 13 10 12 15 -1 5 4 10 12 10 8 0 12 -4 9 -8 -2 -4 0 -10 6
-14 5 -3 11 -1 11 4 1 6 3 16 4 21 1 6 3 15 4 21 1 8 5 8 15 0 11 -9 18 -8 30
4 9 9 14 21 11 26 -4 5 2 6 11 2 10 -4 15 -2 11 4 -3 5 3 24 14 41 23 39 24
55 4 72 -17 14 -11 30 11 30 8 0 14 -10 14 -26z m-1212 -79 c14 -5 15 -4 5 6
-7 7 -12 29 -11 49 l1 35 4 -35 c3 -19 13 -46 23 -61 11 -14 17 -28 14 -31 -2
-3 2 -11 10 -17 18 -15 10 -42 -9 -35 -8 3 -11 12 -9 19 4 10 -1 12 -16 8 -12
-3 -28 1 -39 11 -10 9 -21 13 -26 9 -4 -5 -5 -2 -1 5 4 7 12 10 17 7 9 -6 10
1 11 70 l1 40 4 -37 c3 -22 11 -39 21 -43z m809 45 c-3 -13 0 -20 9 -20 8 0
14 -4 14 -10 0 -14 -22 -12 -44 5 -16 12 -17 17 -6 30 18 21 33 19 27 -5z
m-430 -32 c-3 -7 -5 -2 -5 12 0 14 2 19 5 13 2 -7 2 -19 0 -25z m-425 -73 c26
10 30 -12 6 -29 -30 -21 -60 -22 -32 -1 11 8 14 15 7 15 -7 0 -13 8 -13 18 0
12 2 14 8 4 5 -7 16 -10 24 -7z m133 -5 c-3 -5 3 -10 14 -10 12 0 21 -7 21
-16 0 -11 6 -14 20 -9 14 4 20 2 20 -9 0 -12 10 -15 45 -13 35 1 45 5 45 19 0
12 5 15 17 11 12 -5 14 -3 9 8 -4 8 0 5 8 -6 18 -22 16 -39 -5 -41 -35 -2 -42
-4 -36 -10 3 -3 -6 -16 -21 -29 -20 -17 -24 -26 -16 -36 12 -16 12 -29 1 -46
-4 -6 -2 -23 4 -37 15 -32 3 -48 -16 -23 -13 18 -14 17 -17 -10 -3 -15 -5 -3
-5 27 0 40 2 48 8 30 5 -19 7 -13 8 26 1 34 -4 56 -14 64 -8 7 -12 17 -8 23 4
6 0 8 -10 4 -12 -4 -17 -1 -17 9 0 11 -6 14 -16 10 -10 -4 -13 -2 -8 6 5 8 2
9 -9 5 -9 -3 -16 -3 -16 1 3 20 -2 32 -11 27 -6 -4 -7 -11 -4 -17 4 -7 2 -8
-4 -4 -15 9 -15 29 0 44 15 15 21 16 13 2z m1468 -12 c-18 -18 -24 -19 -37 -9
-22 18 -11 31 27 31 l31 0 -21 -22z m-1653 -14 c0 -8 -4 -13 -9 -10 -5 3 -8
-2 -7 -10 1 -19 -30 -28 -40 -12 -4 6 0 14 7 19 8 5 10 9 5 9 -6 0 -1 6 9 14
22 16 35 12 35 -10z m1410 -4 c0 -5 7 -7 15 -4 8 4 15 1 15 -6 0 -7 8 -10 20
-7 12 3 18 1 14 -5 -4 -6 2 -8 17 -3 13 4 29 8 34 9 13 1 8 -41 -8 -73 -9 -19
-9 -25 1 -28 6 -3 12 -9 12 -14 0 -6 -4 -8 -9 -5 -5 4 -11 2 -13 -4 -2 -6 -9
-6 -18 1 -10 7 -11 12 -4 15 19 8 5 38 -26 59 -16 11 -26 24 -23 29 4 6 -1 6
-13 2 -10 -4 -15 -4 -11 0 4 4 0 16 -10 26 -9 11 -11 18 -5 18 7 0 12 -4 12
-10z m190 -15 c11 -13 2 -21 -15 -12 -2 1 -10 -7 -18 -17 -11 -15 -16 -16 -22
-6 -6 9 -4 11 4 6 8 -5 12 -3 10 5 -5 41 17 53 41 24z m-1323 -107 c-3 -7 -5
-2 -5 12 0 14 2 19 5 13 2 -7 2 -19 0 -25z m851 7 c-3 -3 -9 2 -12 12 -6 14
-5 15 5 6 7 -7 10 -15 7 -18z m-1211 -37 c-3 -8 -6 -5 -6 6 -1 11 2 17 5 13 3
-3 4 -12 1 -19z m1593 -18 c0 -5 -2 -10 -4 -10 -3 0 -8 5 -11 10 -3 6 -1 10 4
10 6 0 11 -4 11 -10z m20 -20 c0 -16 -4 -30 -9 -30 -5 0 -8 8 -6 18 2 9 4 23
4 30 2 26 11 11 11 -18z m-421 0 c-4 -34 23 -108 42 -113 10 -3 19 -10 19 -17
0 -6 -4 -9 -9 -5 -5 3 -12 1 -15 -4 -3 -5 1 -11 9 -15 8 -3 15 -1 15 3 0 15
33 22 44 10 8 -9 7 -10 -4 -5 -8 4 -6 0 5 -9 20 -17 19 -17 -7 -13 -16 3 -25
1 -22 -4 4 -5 -8 -2 -25 7 -18 9 -29 20 -26 24 3 5 -2 12 -11 15 -8 3 -12 2
-9 -4 3 -6 -1 -7 -10 -4 -20 8 -67 -4 -61 -15 3 -5 0 -8 -7 -8 -6 1 -29 -7
-50 -18 -33 -17 -40 -17 -48 -5 -9 13 -10 13 -8 0 4 -36 -2 -58 -17 -64 -20
-7 -54 10 -54 28 0 8 -8 20 -17 27 -15 12 -16 12 -10 -6 7 -18 6 -19 -6 -3 -8
10 -17 14 -21 10 -4 -4 -6 0 -4 8 2 8 -3 14 -10 12 -8 -1 -11 2 -8 7 3 5 -1
12 -10 15 -29 11 -38 6 -18 -10 18 -14 18 -15 -3 -4 -13 6 -22 16 -20 22 1 6
-4 13 -12 16 -8 3 -11 0 -7 -7 5 -7 1 -9 -9 -5 -8 4 -23 0 -32 -7 -9 -8 -14
-9 -10 -2 5 8 1 8 -18 0 -14 -7 -25 -16 -25 -20 0 -5 -4 -6 -10 -2 -5 3 -16
-5 -25 -19 -17 -26 -51 -46 -40 -23 3 6 -2 1 -12 -12 -9 -13 -17 -33 -18 -44
0 -11 -6 -22 -12 -24 -8 -3 -13 4 -13 16 0 12 -4 21 -10 21 -5 0 -10 9 -10 21
0 12 -4 17 -11 13 -8 -5 -8 -1 0 13 6 12 20 20 33 19 13 -1 29 5 36 14 8 8 11
9 7 3 -4 -9 -1 -11 9 -7 9 3 14 10 11 14 -3 5 3 6 14 3 13 -3 20 2 24 18 5 18
9 20 21 10 11 -10 17 -8 28 8 8 12 18 18 21 14 4 -3 7 9 8 28 0 19 3 28 6 22
2 -7 9 -13 14 -13 6 0 7 6 2 13 -4 6 7 1 24 -13 17 -14 36 -35 42 -48 6 -13
15 -21 20 -17 5 3 13 0 16 -6 4 -5 14 -8 22 -5 8 4 11 1 8 -5 -4 -6 1 -9 11
-7 11 2 18 -2 16 -10 -4 -23 25 -24 67 -2 23 11 41 16 41 10 0 -18 18 -11 25
10 3 11 13 20 21 20 8 0 14 4 14 9 0 5 7 12 16 15 15 6 15 4 3 -10 -13 -16
-12 -16 8 -5 13 6 22 15 22 19 -1 4 -1 18 0 32 1 20 3 22 11 10 13 -21 18 -10
13 27 -3 18 -9 30 -14 27 -5 -3 -9 1 -9 8 0 8 9 14 20 14 13 0 20 -6 19 -16z
m778 -22 c-3 -7 -5 -2 -5 12 0 14 2 19 5 13 2 -7 2 -19 0 -25z m-382 -9 c-3
-13 7 -32 29 -54 19 -19 36 -31 39 -28 3 3 3 -5 0 -16 -7 -29 -23 -37 -16 -9
5 22 5 22 -9 4 -12 -15 -17 -16 -23 -6 -5 9 -4 11 3 6 7 -4 12 -5 12 -2 0 2 3
12 6 21 5 13 -1 11 -32 -7 -21 -12 -35 -17 -31 -11 5 7 0 9 -13 6 -11 -3 -20
-10 -20 -15 0 -5 5 -6 12 -2 7 4 8 3 4 -4 -5 -9 -13 -9 -29 0 -19 9 -20 9 -10
-3 9 -11 7 -14 -10 -15 -12 0 -31 -5 -42 -9 -17 -8 -18 -7 -8 7 7 8 10 18 6
21 -3 4 -2 7 3 8 48 4 76 17 68 31 -4 7 -4 10 1 6 14 -13 47 41 41 67 -5 18
-2 25 8 25 10 0 13 -7 11 -21z m-1180 -56 c6 -11 16 -18 23 -15 6 2 12 -5 12
-15 0 -14 2 -15 9 -5 7 11 9 10 15 -3 3 -9 10 -13 16 -10 5 3 10 1 10 -5 0 -6
5 -8 10 -5 6 4 10 3 9 -2 -1 -4 -1 -16 0 -27 1 -16 3 -17 18 -5 15 13 15 12 4
-8 -10 -20 -42 -23 -39 -5 3 24 -4 32 -25 28 -27 -5 -52 7 -52 25 0 7 -6 14
-14 17 -8 3 -11 0 -7 -7 5 -8 0 -8 -16 -2 -15 5 -34 3 -53 -5 -16 -7 -24 -13
-17 -14 6 0 12 -4 12 -10 0 -5 -6 -7 -14 -4 -8 3 -28 -8 -45 -25 -18 -17 -35
-31 -39 -31 -4 0 2 7 12 15 11 8 16 15 11 15 -16 0 -76 -73 -66 -80 16 -9 18
-52 4 -57 -9 -3 -13 5 -13 24 0 22 -2 25 -11 13 -7 -12 -9 -8 -7 16 1 17 -3
38 -9 46 -15 18 -5 34 30 47 18 7 26 7 22 1 -3 -6 -1 -10 4 -10 6 0 11 4 11
10 0 5 7 7 15 4 8 -4 15 -2 15 3 0 5 7 18 16 29 8 10 13 13 9 7 -8 -16 -3 -16
30 -1 15 7 24 17 21 25 -3 7 -2 13 3 13 4 0 18 9 31 20 27 23 41 22 55 -7z
m1299 -68 c-4 -10 0 -15 11 -15 15 0 15 -1 0 -16 -13 -14 -19 -14 -28 -4 -9
10 -9 11 1 6 6 -4 12 -3 12 3 0 5 -9 13 -20 16 -19 6 -26 25 -14 38 12 11 43
-13 38 -28z m-268 -20 c1 -14 -2 -25 -8 -25 -5 0 -6 -4 -3 -10 3 -5 1 -10 -4
-10 -6 0 -11 -10 -11 -22 0 -19 -2 -20 -10 -8 -8 13 -10 12 -11 -5 -1 -11 -1
-24 0 -28 1 -5 -4 -7 -11 -5 -7 3 -12 14 -10 26 2 13 -5 26 -17 34 -27 17 -11
47 24 44 14 -2 25 1 25 6 0 5 4 7 9 4 5 -3 11 1 15 9 8 21 11 19 12 -10z m-96
-6 c0 -5 -4 -9 -10 -9 -5 0 -10 7 -10 16 0 8 5 12 10 9 6 -3 10 -10 10 -16z
m-26 -16 c4 -11 1 -11 -14 -3 -24 13 -25 17 -5 17 8 0 16 -6 19 -14z m-307
-96 c-2 -18 -8 -31 -14 -30 -5 1 -7 -11 -5 -28 2 -16 8 -26 13 -23 5 3 9 0 9
-5 0 -6 -4 -11 -10 -11 -5 0 -10 -7 -10 -15 0 -8 4 -15 9 -15 5 0 11 -9 14
-21 3 -13 12 -19 24 -17 11 2 17 -2 15 -11 -2 -9 3 -11 13 -7 11 4 14 2 9 -6
-5 -7 -2 -9 7 -6 9 4 19 -4 26 -18 11 -25 7 -29 -21 -18 -9 3 -13 11 -9 18 4
6 -1 5 -11 -3 -9 -8 -16 -10 -15 -5 4 21 -2 28 -12 14 -9 -13 -10 -13 -6 2 3
9 -1 19 -9 22 -8 3 -14 0 -14 -7 0 -7 -3 -8 -8 -2 -10 14 -42 15 -42 1 -1 -6
-7 0 -14 14 -12 22 -12 26 5 41 10 9 16 19 12 22 -3 4 0 13 7 22 7 8 8 15 2
15 -17 0 -19 45 -3 61 9 7 18 13 21 11 3 -1 6 8 7 20 1 15 0 17 -3 6 -3 -10
-10 -18 -15 -18 -6 0 -5 8 1 20 15 29 32 14 27 -23z m-427 -12 c11 0 15 -12
16 -42 0 -24 -3 -43 -8 -43 -4 0 -9 6 -10 13 0 6 -2 17 -3 22 -2 6 -3 16 -4
23 0 7 -5 11 -9 8 -4 -2 -8 12 -9 32 -1 29 0 32 5 12 4 -14 14 -25 22 -25z
m822 -13 c-7 -2 -12 -21 -12 -43 0 -31 -3 -37 -16 -32 -13 5 -13 7 -2 14 9 6
9 9 1 9 -7 0 -11 12 -10 29 1 16 5 27 10 24 4 -2 7 0 7 6 0 6 8 7 17 4 11 -4
12 -8 5 -11z m-1245 -39 c-3 -10 -5 -2 -5 17 0 19 2 27 5 18 2 -10 2 -26 0
-35z m407 -24 c-2 -4 5 -10 16 -14 11 -3 19 -9 18 -13 -5 -16 24 -53 38 -48 8
3 21 -5 30 -19 9 -14 21 -25 28 -25 6 0 4 5 -4 10 -8 5 -10 10 -4 10 5 0 19
-7 30 -16 10 -8 12 -13 4 -9 -8 4 -4 -3 9 -15 13 -11 27 -17 30 -13 3 4 14 9
24 10 10 0 16 -1 13 -5 -3 -3 2 -11 12 -18 16 -11 16 -13 -2 -33 -10 -11 -16
-27 -13 -36 4 -8 2 -15 -4 -15 -6 0 -7 -6 -3 -12 6 -10 5 -10 -8 -1 -8 7 -18
10 -21 6 -13 -12 -7 23 6 36 10 11 10 13 0 7 -9 -5 -13 -1 -13 11 0 11 -7 28
-15 39 -13 16 -16 17 -25 4 -8 -12 -10 -11 -10 8 0 13 -4 20 -10 17 -6 -4 -8
-10 -5 -15 3 -6 -7 -2 -24 7 -16 10 -27 21 -25 25 3 4 -4 12 -15 17 -25 14
-34 14 -25 0 4 -8 0 -8 -15 0 -13 8 -21 8 -21 2 0 -7 -9 -7 -26 -1 -16 7 -23
7 -19 0 3 -6 1 -10 -4 -10 -6 0 -11 7 -11 15 0 16 34 38 44 28 3 -3 6 4 6 16
0 14 4 20 12 15 7 -4 8 -3 4 5 -12 18 -18 69 -7 51 5 -8 8 -17 5 -21z m843
-21 c-3 -7 -5 -2 -5 12 0 14 2 19 5 13 2 -7 2 -19 0 -25z m1 -26 c11 -10 18
-22 14 -28 -11 -16 -61 -34 -76 -28 -8 3 -16 -2 -19 -13 -3 -13 -5 -11 -6 7
l-2 25 -13 -25 c-8 -14 -12 -28 -10 -31 2 -4 -3 -9 -11 -13 -8 -3 -17 0 -21 6
-5 7 -10 3 -16 -11 -7 -19 -11 -21 -23 -11 -8 7 -12 16 -9 21 3 5 -3 6 -12 2
-11 -4 -13 -8 -6 -11 15 -5 16 -38 1 -48 -6 -3 -8 -17 -5 -30 4 -15 2 -24 -5
-24 -8 0 -6 -7 4 -18 19 -20 23 -37 7 -27 -15 9 -12 -48 3 -64 10 -11 9 -12
-3 -6 -9 5 -7 -1 5 -14 11 -13 37 -32 57 -42 36 -19 44 -46 13 -46 -8 0 -12 4
-9 9 3 4 -1 8 -10 8 -8 0 -16 -6 -19 -12 -3 -8 -9 -3 -15 12 -6 17 -6 27 2 32
21 14 -4 8 -27 -6 -12 -7 -32 -13 -44 -12 -12 2 -20 -1 -17 -5 2 -4 -5 -10
-16 -14 -11 -4 -17 -11 -14 -17 5 -8 1 -9 -11 -4 -14 5 -25 0 -38 -16 -10 -13
-16 -17 -12 -10 6 11 3 12 -14 3 -11 -7 -21 -14 -21 -17 0 -3 6 -2 13 2 6 4 2
-4 -10 -17 -18 -20 -20 -28 -11 -44 10 -17 10 -18 -4 -7 -13 10 -15 8 -10 -15
2 -16 9 -34 15 -41 8 -10 7 -12 -3 -10 -21 5 -17 -72 4 -84 9 -5 14 -13 11
-19 -4 -5 2 -9 12 -9 14 0 19 -7 18 -29 0 -18 -4 -27 -12 -24 -7 3 -11 9 -8
13 3 4 -2 13 -10 20 -11 9 -15 9 -15 1 0 -7 -4 -9 -10 -6 -5 3 -20 0 -32 -7
-24 -13 -54 -20 -44 -11 3 3 1 14 -5 24 -5 11 -6 19 -2 18 21 -4 32 3 38 21 4
11 11 18 16 15 12 -8 11 12 -2 37 -8 14 -8 18 0 14 7 -4 10 6 9 28 -1 21 -5
33 -11 29 -6 -3 -7 -1 -3 5 13 22 16 56 4 69 -6 8 -12 28 -13 45 -2 21 0 26 6
17 5 -8 9 -11 9 -7 0 4 12 3 26 -2 16 -7 23 -7 19 0 -3 6 3 10 14 10 11 0 23
5 27 12 5 7 3 8 -6 3 -9 -5 -11 -4 -6 4 6 9 11 9 22 0 11 -9 16 -7 23 12 4 13
14 24 22 25 8 0 22 2 32 2 10 1 16 6 13 11 -4 5 -2 20 3 33 6 13 10 17 11 8 1
-10 4 -9 9 5 5 11 4 33 0 49 -5 16 -6 47 -3 68 6 33 3 42 -19 61 -20 17 -23
27 -16 44 5 15 14 21 24 17 8 -3 12 -10 9 -16 -3 -5 7 -3 23 6 24 12 33 12 43
3 10 -10 12 -9 7 5 -4 12 -2 15 9 11 7 -3 14 0 14 7 0 7 7 10 15 6 11 -4 19 3
25 20 9 24 11 24 32 10 33 -23 44 -19 17 5 -13 11 -19 18 -12 15 6 -4 14 3 18
14 8 25 26 26 53 2z m-483 -59 c-8 -8 -15 -18 -15 -21 0 -4 -10 -13 -22 -21
-21 -13 -22 -13 -9 2 11 15 11 17 -1 17 -8 0 -20 -12 -27 -26 -12 -26 -23 -26
-27 1 -1 7 5 16 13 19 8 3 11 10 8 16 -4 6 4 9 17 7 15 -1 22 3 20 11 -1 8 2
11 7 8 5 -3 12 1 15 10 5 13 9 14 21 4 13 -10 13 -14 0 -27z m544 -11 c-10
-16 -17 -18 -31 -11 -24 13 -23 28 5 38 29 12 42 -2 26 -27z m177 -1 c-3 -5 2
-12 12 -16 16 -7 15 -8 -3 -15 -11 -4 -23 -6 -28 -3 -7 4 9 43 19 43 3 0 3 -4
0 -9z m59 -1 c-3 -5 0 -10 7 -10 9 0 9 -3 -2 -10 -23 -15 -30 -12 -30 10 0 11
7 20 16 20 8 0 12 -4 9 -10z m-189 -13 c12 -12 26 -8 19 6 -4 6 1 3 10 -8 10
-13 25 -19 44 -17 31 4 60 -21 40 -34 -8 -5 -10 -3 -5 7 4 8 -2 3 -13 -11 -24
-29 -26 -41 -8 -59 7 -8 7 -11 1 -8 -7 4 -13 -4 -16 -22 -2 -17 0 -29 5 -28 5
1 12 -4 15 -12 3 -8 0 -11 -7 -7 -7 5 -11 -2 -11 -18 0 -14 5 -26 10 -26 5 0
9 -3 9 -7 -4 -22 3 -33 19 -34 15 -1 15 -2 -1 -6 -16 -4 -17 -6 -3 -16 11 -9
13 -16 6 -27 -8 -13 -10 -12 -10 3 0 9 -5 17 -11 17 -5 0 -8 -4 -4 -10 3 -5
-6 -5 -24 1 -25 9 -35 7 -55 -9 -14 -11 -23 -22 -20 -25 3 -3 -3 -3 -14 0 -11
3 -23 11 -26 18 -3 9 2 11 15 8 11 -3 19 0 19 6 0 7 -5 9 -12 5 -7 -4 -8 -3
-4 4 4 6 13 9 20 6 8 -3 20 2 27 11 8 9 23 25 33 35 11 11 15 20 9 20 -7 0 -9
25 -7 73 4 67 -3 99 -29 135 -8 10 -13 10 -25 0 -13 -10 -14 -10 -8 0 6 10 -3
16 -25 14 -3 -1 -6 5 -6 12 0 13 31 15 43 3z m-1130 -172 c1 -12 -6 -26 -17
-33 -10 -7 -19 -8 -19 -3 0 6 4 12 9 15 5 3 11 15 14 27 4 15 2 19 -9 15 -10
-4 -14 2 -14 22 l0 26 17 -24 c9 -13 18 -33 19 -45z m389 -5 c4 0 4 4 0 9 -3
5 -1 12 4 15 5 3 11 -4 15 -17 3 -12 1 -23 -4 -25 -6 -2 -10 -13 -10 -23 0
-11 4 -18 9 -15 9 6 23 -45 17 -66 -1 -7 -1 -10 1 -6 2 4 24 -2 49 -12 29 -13
44 -15 44 -8 0 9 3 9 12 0 22 -22 17 -39 -12 -38 -15 1 -25 5 -22 10 3 5 -3 6
-14 2 -10 -4 -15 -4 -12 0 10 10 -16 33 -38 33 -11 1 -32 2 -49 3 -21 2 -29
-1 -27 -10 1 -8 -1 -11 -6 -8 -5 3 -17 -5 -28 -17 l-19 -22 -3 25 c-2 13 1 26
7 28 6 2 9 8 6 13 -4 5 2 6 11 2 11 -4 15 -2 11 4 -4 6 1 10 10 9 10 0 18 5
18 12 0 7 7 17 15 22 12 8 13 11 1 19 -8 5 -9 11 -3 15 6 4 9 14 7 24 -17 71
-16 69 -6 45 6 -13 13 -23 16 -23z m1192 8 c-3 -7 -5 -2 -5 12 0 14 2 19 5 13
2 -7 2 -19 0 -25z m-1572 -64 c1 -10 4 -25 9 -32 4 -7 5 -22 1 -35 -6 -21 -5
-21 8 2 12 20 15 21 21 6 3 -10 12 -15 21 -11 8 3 17 0 21 -6 5 -7 2 -8 -6 -3
-10 6 -12 3 -8 -13 4 -12 1 -25 -5 -29 -7 -3 -9 -3 -5 2 4 4 0 14 -10 21 -22
17 -35 18 -26 2 6 -10 4 -10 -7 -2 -23 18 -57 23 -63 9 -6 -17 -43 -8 -50 12
-3 8 -1 11 4 8 6 -3 13 1 16 10 5 12 9 13 20 4 11 -9 14 -6 14 15 0 14 5 26
10 26 6 0 10 9 10 21 0 26 25 20 25 -7z m449 -52 c3 -5 -1 -9 -9 -9 -8 0 -15
4 -15 9 0 4 4 8 9 8 6 0 12 -4 15 -8z m-784 -27 c5 -14 17 -25 27 -25 17 1 16
2 -1 15 -11 8 -15 15 -10 15 12 0 34 -21 34 -32 0 -4 -19 -6 -42 -4 -30 2 -44
9 -46 20 -2 10 2 15 10 14 7 -2 12 3 11 10 -5 21 7 13 17 -13z m1620 -11 c0
-8 -8 -14 -17 -14 -16 0 -16 -2 -3 -11 13 -9 13 -10 0 -6 -22 5 -25 37 -5 37
15 0 16 2 4 18 -13 15 -12 16 4 3 9 -7 17 -20 17 -27z m271 10 c10 -12 9 -13
-6 -8 -11 5 -16 3 -12 -2 3 -5 -6 -11 -20 -12 -14 -1 -34 -14 -45 -28 -16 -19
-23 -22 -29 -13 -4 7 -4 18 1 25 6 6 6 15 2 19 -4 5 1 5 11 2 21 -8 47 1 47
17 0 17 37 17 51 0z m-1431 -31 c0 -8 5 -11 10 -8 6 3 10 2 10 -3 0 -16 69
-12 78 5 7 11 11 12 17 4 5 -9 10 -9 21 0 12 9 13 9 9 -3 -3 -9 -17 -20 -31
-26 -13 -7 -24 -18 -24 -26 0 -7 -6 -18 -13 -24 -19 -16 -58 12 -50 35 5 13 1
15 -20 11 -16 -3 -25 -1 -24 6 1 6 -6 10 -15 10 -10 -1 -14 4 -11 13 3 8 12
12 21 8 12 -4 13 -3 2 10 -11 13 -10 14 4 9 9 -3 16 -13 16 -21z m965 -15 c5
4 5 2 1 -5 -4 -7 -13 -10 -21 -7 -8 4 -17 -1 -21 -9 -3 -10 -12 -13 -22 -10
-9 4 -14 2 -9 -2 4 -5 -1 -17 -10 -28 -10 -11 -12 -17 -5 -13 7 4 12 1 12 -9
0 -12 -4 -14 -19 -5 -13 7 -22 7 -26 0 -3 -5 0 -10 8 -10 8 0 18 -7 21 -16 3
-8 2 -12 -3 -9 -5 3 -13 0 -17 -7 -6 -9 -10 -5 -14 12 -4 14 -3 31 3 37 6 9 2
19 -14 34 -13 11 -18 18 -11 14 6 -3 12 -2 12 3 0 6 18 19 41 30 l41 20 -19
-20 -18 -21 27 18 c15 9 25 22 22 29 -3 6 3 1 14 -11 11 -12 23 -19 27 -15z
m246 2 c6 0 7 6 3 13 -4 7 -3 9 2 4 5 -5 9 -14 9 -20 1 -7 7 -11 15 -9 8 2 23
4 32 5 10 1 18 6 18 12 0 5 4 4 9 -4 10 -16 4 -38 -17 -63 -9 -11 -11 -18 -4
-18 6 0 10 -9 9 -20 -1 -11 -7 -20 -14 -20 -6 0 -14 -4 -17 -9 -3 -5 2 -8 12
-7 11 1 18 -7 19 -24 l2 -25 -8 25 c-6 17 -9 19 -10 8 -1 -20 -20 -25 -22 -5
-1 6 -3 23 -4 37 -2 14 1 30 6 36 7 8 -2 19 -26 34 -29 18 -35 27 -34 53 1 18
3 24 6 15 2 -10 9 -18 14 -18z m-391 9 c0 -5 4 -7 10 -4 6 4 7 -1 3 -11 -4
-11 -8 -13 -11 -6 -2 7 -8 12 -13 12 -6 0 -8 -4 -4 -9 3 -5 0 -13 -6 -17 -8
-5 -9 -3 -4 6 6 10 4 12 -7 7 -12 -4 -14 -1 -11 14 5 20 43 27 43 8z m360 1
c0 -5 -4 -10 -10 -10 -5 0 -10 5 -10 10 0 6 5 10 10 10 6 0 10 -4 10 -10z
m-1131 -103 c1 21 27 4 28 -18 1 -12 -1 -19 -4 -15 -3 3 -14 1 -24 -5 -17 -9
-19 -6 -18 28 0 30 2 34 9 18 5 -11 9 -15 9 -8z m832 -56 c6 9 9 2 8 -21 0
-29 -2 -31 -9 -15 -7 17 -9 14 -9 -13 -1 -18 3 -31 7 -28 5 3 9 0 10 -7 0 -7
3 -21 6 -32 2 -11 5 -22 5 -25 1 -3 6 2 11 10 8 13 10 12 10 -4 0 -12 5 -16
16 -12 10 4 13 2 8 -6 -5 -7 -2 -9 8 -5 16 6 19 -8 5 -29 -4 -7 0 -14 8 -17 9
-4 12 -1 9 7 -6 17 34 28 43 13 3 -7 3 -9 -2 -5 -5 5 -15 -1 -22 -12 -11 -16
-18 -18 -34 -10 -11 6 -17 15 -14 21 7 11 -35 29 -49 21 -5 -3 -6 0 -3 5 12
18 -47 11 -72 -9 -16 -12 -27 -15 -31 -8 -4 6 -13 10 -20 8 -7 -2 -14 2 -17 8
-5 13 30 15 38 1 4 -6 14 -5 25 3 11 6 12 10 4 7 -22 -6 -44 19 -24 27 8 3 13
2 10 -3 -3 -5 3 -11 13 -14 14 -3 17 0 13 16 -3 12 1 23 11 29 9 5 14 15 10
24 -10 26 -9 58 2 71 6 7 11 7 14 1 2 -6 7 -4 12 3z m386 -51 c-1 -11 -5 -20
-9 -20 -11 0 -20 19 -13 30 11 17 24 11 22 -10z m-711 -106 c-5 -12 -1 -14 15
-9 15 5 19 4 14 -5 -4 -7 -1 -10 11 -8 11 2 18 -2 17 -9 -1 -6 4 -14 13 -17 8
-3 12 -1 9 4 -7 11 23 2 42 -12 8 -6 19 1 34 21 16 22 26 28 35 20 19 -15 6
-46 -19 -45 -13 1 -21 -4 -19 -12 1 -8 -2 -11 -8 -7 -6 4 -10 -7 -11 -27 0
-18 -3 -27 -6 -19 -4 11 -7 11 -13 1 -6 -11 -12 -10 -24 3 -9 8 -16 23 -16 32
0 8 -11 21 -25 27 -14 6 -25 16 -25 21 0 5 -7 4 -15 -3 -8 -7 -16 -10 -16 -6
-1 3 -2 10 -3 15 0 5 -4 12 -8 16 -4 4 -1 13 5 21 16 18 20 17 13 -2z m-1036
-19 c0 -2 -10 -9 -22 -15 -22 -11 -22 -10 -4 4 21 17 26 19 26 11z"/>
<path d="M860 1900 c0 -5 5 -10 11 -10 5 0 7 5 4 10 -3 6 -8 10 -11 10 -2 0
-4 -4 -4 -10z"/>
<path d="M1135 1480 c3 -5 8 -10 11 -10 2 0 4 5 4 10 0 6 -5 10 -11 10 -5 0
-7 -4 -4 -10z"/>
<path d="M448 1183 c7 -3 16 -2 19 1 4 3 -2 6 -13 5 -11 0 -14 -3 -6 -6z"/>
<path d="M655 861 c-3 -5 -1 -12 5 -16 5 -3 10 1 10 9 0 18 -6 21 -15 7z"/>
<path d="M670 826 c0 -2 7 -7 16 -10 8 -3 12 -2 9 4 -6 10 -25 14 -25 6z"/>
<path d="M1740 441 c0 -5 7 -12 16 -15 14 -5 15 -4 4 9 -14 17 -20 19 -20 6z"/>
<path d="M670 1516 c0 -2 7 -6 15 -10 8 -3 15 -1 15 4 0 6 -7 10 -15 10 -8 0
-15 -2 -15 -4z"/>
<path d="M780 1351 c0 -18 4 -30 9 -26 6 3 8 15 6 27 -7 34 -15 34 -15 -1z"/>
<path d="M1953 1183 c-14 -15 -23 -22 -19 -15 10 17 -4 15 -41 -8 -31 -19 -47
-38 -20 -25 6 4 3 0 -7 -9 -10 -8 -23 -13 -27 -10 -8 5 -13 -19 -12 -53 1 -7
-3 -10 -8 -7 -5 3 -9 -5 -9 -18 0 -18 2 -20 10 -8 8 12 10 10 10 -8 0 -13 -4
-20 -10 -17 -6 4 -10 -7 -10 -25 0 -18 4 -29 10 -25 6 3 10 -1 10 -9 0 -9 -3
-15 -7 -15 -23 4 -25 -3 -5 -17 12 -8 22 -22 22 -30 0 -8 5 -15 10 -15 6 -1
15 -3 20 -4 6 -1 17 -3 26 -4 8 0 13 -5 10 -10 -7 -10 12 -28 34 -33 8 -2 21
-9 28 -16 8 -7 18 -10 23 -7 13 8 12 402 -1 410 -5 3 -22 -7 -37 -22z"/>
<path d="M182 240 c0 -14 2 -19 5 -12 2 6 2 18 0 25 -3 6 -5 1 -5 -13z"/>
<path d="M1761 144 c-18 -21 -25 -24 -32 -13 -8 13 -10 12 -13 -10 0 -5 -5
-13 -10 -18 -6 -5 -6 -2 -1 6 6 11 4 13 -8 8 -9 -3 -19 -2 -22 3 -4 6 -11 10
-18 10 -6 0 -3 -6 6 -12 12 -9 14 -17 7 -28 -6 -9 -10 -11 -10 -3 0 7 -7 10
-16 6 -8 -3 -13 -11 -10 -18 3 -8 -4 -23 -15 -36 -10 -12 -19 -26 -19 -31 0
-4 86 -8 190 -8 174 0 190 1 191 18 0 14 2 14 9 -3 8 -18 9 -17 9 6 1 15 -6
29 -14 33 -8 3 -15 13 -15 22 0 11 -6 15 -20 11 -11 -3 -23 0 -27 5 -3 6 -1 8
4 5 17 -11 23 20 7 34 -12 9 -13 9 -9 -2 4 -10 -2 -14 -18 -14 -14 0 -24 6
-23 14 1 8 -5 16 -13 19 -10 3 -12 0 -7 -14 5 -16 3 -15 -11 3 -11 13 -26 21
-38 19 -11 -2 -23 1 -26 5 -3 5 -16 -3 -28 -17z"/>
</g>
</svg>
