<?xml version="1.0" standalone="no"?>
<!DOCTYPE svg PUBLIC "-//W3C//DTD SVG 20010904//EN"
 "http://www.w3.org/TR/2001/REC-SVG-20010904/DTD/svg10.dtd">
<svg version="1.0" xmlns="http://www.w3.org/2000/svg"
 width="200.000000pt" height="200.000000pt" viewBox="0 0 200.000000 200.000000"
 preserveAspectRatio="xMidYMid meet">
<metadata>
Created by potrace 1.16, written by Peter Selinger 2001-2019
</metadata>
<g transform="translate(0.000000,200.000000) scale(0.100000,-0.100000)"
fill="#000000" stroke="none">
<path d="M1 1730 c0 -208 3 -269 12 -263 9 5 9 3 1 -8 -8 -10 -12 -221 -13
-703 -2 -634 -1 -689 14 -676 14 12 14 9 -1 -17 -34 -58 -23 -63 155 -63 118
0 161 3 164 13 4 9 6 9 6 0 1 -17 58 -17 64 0 4 9 6 9 6 0 1 -10 46 -13 191
-13 l190 0 0 24 c0 28 -16 43 -23 24 -3 -7 -6 -1 -6 14 -1 15 6 33 14 41 8 8
11 18 7 22 -4 5 -1 5 7 0 7 -4 16 -4 20 1 3 5 22 17 41 26 19 9 54 29 78 43
23 14 42 23 42 18 0 -4 -38 -29 -83 -55 -128 -74 -140 -88 -82 -92 21 -1 23
-3 10 -12 -8 -6 -15 -21 -15 -33 l0 -21 380 0 c297 0 380 3 380 13 0 7 3 8 8
2 13 -18 39 -16 76 6 20 12 36 16 36 10 0 -6 -6 -11 -14 -11 -8 0 -18 -4 -21
-10 -4 -7 52 -10 160 -10 130 0 165 3 159 13 -6 10 -4 10 7 0 25 -24 29 -13
28 62 -1 41 -5 72 -10 69 -5 -3 -6 -10 -3 -16 4 -6 -1 -8 -14 -4 -11 4 -23 2
-26 -3 -4 -5 3 -12 14 -16 11 -3 20 -10 20 -15 0 -10 -57 17 -66 32 -4 6 -2 8
4 4 6 -3 26 2 44 12 l33 19 3 142 c2 105 -1 148 -10 159 -10 12 -10 14 0 8 8
-5 12 0 12 14 0 14 -4 19 -12 14 -10 -6 -10 -4 -1 7 36 38 5 25 -132 -55 l-40
-24 -3 -113 c-3 -106 -2 -114 18 -129 17 -13 18 -17 6 -17 -9 0 -16 4 -16 9 0
4 -9 8 -20 8 -11 0 -20 -3 -20 -7 0 -9 -52 -35 -58 -29 -2 3 14 15 36 27 34
20 40 28 40 56 0 35 -7 40 -26 21 -9 -9 -12 -9 -12 -1 0 7 9 15 20 18 29 9 28
67 -2 89 -23 16 -23 16 -2 11 19 -5 21 -2 20 26 -1 19 -8 35 -16 37 -8 3 -26
13 -40 22 -63 43 -123 70 -142 64 -25 -7 -52 24 -36 43 17 21 29 15 22 -12 -4
-15 -2 -25 5 -25 12 0 13 12 14 161 l1 95 100 56 c73 41 104 53 114 46 6 -6
12 -7 12 -4 0 4 8 0 17 -10 17 -16 18 -16 24 7 7 23 7 23 8 -4 1 -20 8 -31 29
-39 15 -7 38 -20 51 -30 13 -10 27 -18 31 -18 12 0 9 54 -4 69 -8 11 -8 13 1
7 17 -10 17 672 -1 693 -8 12 -8 13 2 7 17 -10 17 274 0 293 -7 8 -8 11 -2 8
7 -4 11 10 11 43 -1 52 -5 58 -25 38 -9 -9 -12 -9 -12 0 0 6 9 16 20 22 11 6
20 17 20 25 0 18 -12 19 -29 3 -11 -10 -13 -10 -7 0 6 9 -29 12 -161 12 -122
0 -173 -4 -182 -12 -11 -10 -14 -10 -18 -1 -3 10 -10 10 -25 2 -15 -8 -19 -8
-14 0 5 8 -42 11 -162 11 -160 0 -170 -1 -175 -19 -3 -11 -2 -23 1 -26 4 -3 7
-17 8 -31 0 -13 -1 -22 -4 -19 -3 2 -20 -4 -38 -15 -24 -15 -33 -17 -37 -8 -3
10 -12 8 -38 -6 -80 -45 -113 -70 -101 -74 6 -2 10 -8 6 -13 -10 -17 -41 -9
-82 21 -23 17 -44 30 -47 30 -2 0 -27 14 -55 31 -27 17 -55 27 -61 23 -8 -4
-9 -3 -5 4 12 20 -7 13 -82 -31 l-74 -42 0 -128 c1 -91 4 -133 14 -144 12 -15
11 -15 -10 -4 -13 7 -31 10 -39 6 -14 -5 -14 -7 1 -18 16 -12 16 -13 -3 -13
-11 0 -17 4 -15 8 10 15 -10 7 -77 -31 -38 -22 -69 -37 -69 -33 0 4 29 23 63
44 l63 36 -1 125 c0 69 4 123 8 120 5 -3 7 -57 6 -122 -2 -67 1 -116 7 -116 5
0 10 59 11 135 l2 135 -86 50 c-48 28 -88 57 -90 65 -3 10 -2 11 4 4 19 -26
151 -94 169 -88 14 4 15 3 6 -4 -11 -7 -10 -10 3 -16 11 -4 39 6 74 26 103 58
108 63 103 102 l-4 36 -198 0 c-149 0 -200 -3 -203 -12 -4 -10 -6 -10 -6 0 -1
9 -43 12 -176 12 l-175 0 1 -270z m1670 243 c13 -15 12 -15 -8 -4 -24 12 -29
21 -14 21 5 0 15 -7 22 -17z m-1201 -18 c14 -19 14 -19 -2 -6 -10 7 -18 18
-18 24 0 6 1 8 3 6 1 -2 9 -13 17 -24z m1075 15 c-3 -5 -11 -10 -16 -10 -6 0
-7 5 -4 10 3 6 11 10 16 10 6 0 7 -4 4 -10z m-1435 -37 c0 -7 -39 17 -46 28
-3 6 5 3 20 -6 14 -10 26 -19 26 -22z m1510 26 c0 -6 -7 -9 -14 -6 -19 8 -31
-29 -16 -48 9 -11 7 -13 -7 -11 -20 3 -26 42 -10 64 12 15 47 16 47 1z m-905
-25 c-22 -13 -39 -29 -37 -35 1 -6 -2 -8 -7 -4 -6 3 -25 -1 -42 -10 -23 -13
-34 -14 -43 -5 -8 8 -7 10 4 6 8 -3 44 12 80 34 36 22 70 39 75 39 6 0 -8 -11
-30 -25z m838 -53 c10 -11 9 -13 -3 -9 -9 3 -16 18 -17 39 -1 24 0 26 4 9 3
-14 10 -31 16 -39z m107 20 c14 -8 51 -29 83 -47 l58 -33 37 20 c20 12 61 34
90 51 29 17 56 28 59 24 3 -3 -6 -11 -20 -17 -28 -13 -26 -35 2 -24 12 5 13 4
4 -6 -10 -10 -16 -9 -28 1 -13 11 -20 10 -45 -8 -16 -12 -33 -22 -37 -22 -4 0
-19 -9 -32 -19 -24 -19 -25 -18 -99 25 -77 46 -98 53 -89 30 4 -10 0 -12 -14
-9 -10 3 -19 10 -19 15 0 5 4 7 9 3 5 -3 13 0 16 6 4 6 -2 13 -14 16 -12 3
-21 12 -21 21 0 13 2 13 18 1 9 -8 28 -20 42 -28z m275 19 c-3 -5 -11 -10 -16
-10 -6 0 -7 5 -4 10 3 6 11 10 16 10 6 0 7 -4 4 -10z m-674 -23 c-6 -8 -7 -18
-3 -22 4 -5 1 -5 -6 -1 -10 6 -10 11 -1 22 6 8 14 14 16 14 3 0 0 -6 -6 -13z
m159 -10 c0 -2 -8 -3 -18 -3 -10 0 -19 6 -19 13 0 8 6 9 19 2 10 -5 18 -11 18
-12z m390 8 c0 -2 -6 -5 -13 -8 -8 -3 -14 1 -14 8 0 7 6 11 14 8 7 -3 13 -6
13 -8z m-45 -23 c-3 -3 -11 0 -18 7 -9 10 -8 11 6 5 10 -3 15 -9 12 -12z
m-418 -17 c-12 -13 -24 -19 -26 -13 -2 6 4 17 15 25 29 21 34 15 11 -12z m114
15 c10 -6 19 -18 19 -28 -1 -15 -2 -16 -13 -1 -7 9 -16 16 -22 17 -11 1 -21
22 -10 22 3 0 15 -5 26 -10z m123 -9 c3 -5 -1 -11 -9 -14 -9 -4 -12 -1 -8 9 6
16 10 17 17 5z m-141 -25 c3 3 3 -3 0 -15 -3 -12 -10 -21 -15 -21 -5 0 -7 4
-4 9 3 5 -1 14 -9 21 -12 10 -18 10 -30 0 -8 -7 -12 -17 -9 -24 3 -6 -1 -3 -9
6 -8 10 -18 14 -22 10 -5 -4 -5 -1 -1 6 4 7 11 10 16 7 4 -3 11 2 14 10 5 14
9 14 35 1 15 -8 31 -13 34 -10z m371 12 c-3 -4 -9 -8 -15 -8 -5 0 -9 4 -9 8 0
5 7 9 15 9 8 0 12 -4 9 -9z m-1254 -34 c0 -2 -9 0 -20 6 -11 6 -20 13 -20 16
0 2 9 0 20 -6 11 -6 20 -13 20 -16z m1175 6 c3 -6 -1 -7 -9 -4 -18 7 -21 14
-7 14 6 0 13 -4 16 -10z m150 0 c-3 -5 -11 -10 -16 -10 -6 0 -7 5 -4 10 3 6
11 10 16 10 6 0 7 -4 4 -10z m-475 -26 c0 -8 -4 -12 -10 -9 -5 3 -10 13 -10
21 0 8 5 12 10 9 6 -3 10 -13 10 -21z m-1187 -4 c-3 -12 -8 -19 -11 -16 -5 6
5 36 12 36 2 0 2 -9 -1 -20z m1557 -2 c0 -6 -6 -5 -15 2 -8 7 -15 14 -15 16 0
2 7 1 15 -2 8 -4 15 -11 15 -16z m63 2 c-3 -12 -8 -19 -11 -16 -5 6 5 36 12
36 2 0 2 -9 -1 -20z m-368 0 c-3 -5 -12 -10 -18 -10 -7 0 -6 4 3 10 19 12 23
12 15 0z m345 -4 c0 -3 -4 -8 -10 -11 -5 -3 -10 -1 -10 4 0 6 5 11 10 11 6 0
10 -2 10 -4z m-380 -22 c0 -8 -5 -12 -10 -9 -6 4 -8 11 -5 16 9 14 15 11 15
-7z m305 6 c3 -5 2 -10 -4 -10 -5 0 -13 5 -16 10 -3 6 -2 10 4 10 5 0 13 -4
16 -10z m132 -27 c-3 -10 -5 -4 -5 12 0 17 2 24 5 18 2 -7 2 -21 0 -30z m-467
11 c0 -8 -5 -12 -10 -9 -6 4 -8 11 -5 16 9 14 15 11 15 -7z m440 1 c-7 -8 -18
-15 -24 -15 -6 0 -2 7 8 15 25 19 32 19 16 0z m-830 -5 c0 -5 -4 -10 -10 -10
-5 0 -10 5 -10 10 0 6 5 10 10 10 6 0 10 -4 10 -10z m789 -16 c14 -12 -19 -1
-35 12 -18 14 -18 14 6 3 14 -6 27 -13 29 -15z m-1592 -26 c-3 -7 -5 -2 -5 12
0 14 2 19 5 13 2 -7 2 -19 0 -25z m-30 -20 c-3 -8 -6 -5 -6 6 -1 11 2 17 5 13
3 -3 4 -12 1 -19z m833 -39 c0 -12 -5 -19 -12 -16 -7 2 -20 1 -29 -4 -10 -5
-16 -4 -16 5 0 6 10 13 21 14 11 0 22 6 24 12 6 17 12 11 12 -11z m410 0 c14
-11 18 -18 10 -15 -8 3 -23 9 -32 12 -10 4 -18 10 -18 15 0 14 13 10 40 -12z
m385 11 c3 -5 -1 -10 -10 -10 -9 0 -13 5 -10 10 3 6 8 10 10 10 2 0 7 -4 10
-10z m-1628 -32 c-3 -7 -5 -2 -5 12 0 14 2 19 5 13 2 -7 2 -19 0 -25z m1657
17 c3 -8 1 -15 -4 -15 -6 0 -10 7 -10 15 0 8 2 15 4 15 2 0 6 -7 10 -15z
m-469 -5 c-3 -5 -11 -10 -16 -10 -6 0 -7 5 -4 10 3 6 11 10 16 10 6 0 7 -4 4
-10z m405 6 c0 -3 -4 -8 -10 -11 -5 -3 -10 -1 -10 4 0 6 5 11 10 11 6 0 10 -2
10 -4z m-725 -26 c3 -5 1 -10 -4 -10 -6 0 -11 5 -11 10 0 6 2 10 4 10 3 0 8
-4 11 -10z m355 0 c0 -5 -5 -10 -11 -10 -5 0 -7 5 -4 10 3 6 8 10 11 10 2 0 4
-4 4 -10z m70 0 c0 -5 -2 -10 -4 -10 -3 0 -8 5 -11 10 -3 6 -1 10 4 10 6 0 11
-4 11 -10z m405 0 c3 -5 2 -10 -4 -10 -5 0 -13 5 -16 10 -3 6 -2 10 4 10 5 0
13 -4 16 -10z m-940 -10 c-3 -5 -11 -10 -16 -10 -6 0 -7 5 -4 10 3 6 11 10 16
10 6 0 7 -4 4 -10z m71 -12 c5 -8 2 -9 -9 -5 -9 3 -19 2 -22 -4 -4 -5 -25 -19
-48 -31 -23 -11 -60 -33 -82 -47 -22 -14 -49 -29 -60 -32 -17 -5 -18 -7 -4
-13 10 -4 53 15 119 55 97 57 105 60 117 43 12 -16 17 -12 14 9 -1 10 17 9 23
-1 6 -10 -33 -46 -55 -50 -10 -2 -9 2 3 11 19 15 14 27 -9 27 -9 0 -11 -5 -7
-12 4 -7 4 -10 -1 -6 -8 7 -121 -51 -164 -84 -14 -10 -32 -16 -43 -13 -14 5
-16 2 -11 -10 4 -13 14 -15 37 -11 29 5 30 5 11 -9 -11 -9 -25 -13 -32 -11
-10 4 -13 -8 -13 -44 0 -36 3 -48 13 -44 7 2 21 -2 32 -10 11 -9 15 -16 8 -16
-6 0 -14 4 -18 10 -8 13 -35 1 -35 -17 0 -8 6 -13 13 -10 7 2 23 -3 35 -13 12
-10 18 -20 12 -22 -15 -5 1 -21 46 -45 42 -23 69 -30 60 -15 -2 4 4 8 15 8 18
0 18 -2 5 -12 -22 -15 -20 -24 5 -24 11 0 18 4 15 8 -2 4 4 8 14 8 10 0 17 -3
14 -7 -2 -4 6 -10 18 -12 l23 -4 -22 -8 c-13 -4 -23 -12 -23 -17 0 -8 -54 18
-142 71 -30 18 -41 20 -60 11 -22 -11 -22 -10 -4 4 11 9 16 16 12 16 -5 0 -3
6 3 13 6 8 8 17 4 20 -10 11 -43 8 -43 -3 0 -5 -6 -10 -12 -11 -27 -2 -191
-105 -194 -121 -3 -24 23 -30 57 -13 16 9 29 12 29 8 0 -5 -14 -14 -31 -22
-40 -18 -73 -4 -74 32 -1 14 1 26 4 25 16 -1 22 3 16 12 -4 7 -13 7 -26 0 -11
-6 -17 -14 -15 -18 3 -5 0 -14 -5 -22 -7 -11 -9 -7 -7 14 2 16 12 34 23 40 11
6 23 15 26 20 4 4 10 3 13 -3 4 -6 2 -11 -4 -11 -6 0 -8 -4 -5 -10 3 -5 13
-10 21 -10 9 0 12 5 8 12 -4 7 -3 8 5 4 7 -4 43 12 86 39 l74 46 -1 102 c0 56
1 108 3 116 2 7 -2 16 -8 18 -12 4 -16 -7 -16 -49 0 -10 -3 -15 -8 -13 -4 3
-6 14 -4 25 2 12 -4 24 -16 30 -10 6 -19 16 -19 22 0 6 6 6 16 -3 12 -10 20
-10 35 -1 22 14 43 7 33 -10 -5 -8 -1 -9 12 -4 30 11 173 97 180 107 7 13 31
11 40 -3z m424 2 c0 -5 -2 -10 -4 -10 -3 0 -8 5 -11 10 -3 6 -1 10 4 10 6 0
11 -4 11 -10z m405 0 c3 -5 2 -10 -4 -10 -5 0 -13 5 -16 10 -3 6 -2 10 4 10 5
0 13 -4 16 -10z m-35 -15 c0 -8 -4 -15 -10 -15 -5 0 -7 7 -4 15 4 8 8 15 10
15 2 0 4 -7 4 -15z m67 -7 c-3 -8 -6 -5 -6 6 -1 11 2 17 5 13 3 -3 4 -12 1
-19z m-537 8 c0 -2 -8 -10 -17 -17 -16 -13 -17 -12 -4 4 13 16 21 21 21 13z
m-1023 -82 c41 -24 79 -44 84 -44 6 0 7 -5 4 -10 -4 -7 -11 -8 -18 -1 -35 28
-192 111 -203 107 -8 -3 -11 0 -8 9 7 17 18 12 141 -61z m1144 19 c-9 -7 -20
-12 -26 -12 -5 0 -1 6 10 15 19 14 19 15 -3 20 -22 6 -27 15 -17 26 3 3 17 -4
29 -15 22 -19 23 -22 7 -34z m-81 38 c0 -5 -8 -11 -17 -15 -10 -3 -25 -9 -33
-12 -8 -3 -4 4 10 15 27 22 40 26 40 12z m400 -1 c0 -5 -5 -10 -11 -10 -5 0
-7 5 -4 10 3 6 8 10 11 10 2 0 4 -4 4 -10z m64 2 c3 -4 -8 -13 -25 -19 -16 -6
-29 -7 -29 -2 0 5 7 9 15 9 8 0 15 5 15 10 0 12 17 13 24 2z m-234 -16 c-7 -7
-13 -7 -20 0 -6 6 -3 10 10 10 13 0 16 -4 10 -10z m-410 -8 c0 -4 -4 -8 -9 -8
-6 0 -12 4 -15 8 -3 5 1 9 9 9 8 0 15 -4 15 -9z m187 -8 c-14 -11 -28 -20 -32
-20 -10 0 38 39 49 40 5 0 -3 -9 -17 -20z m358 10 c-3 -5 -11 -10 -16 -10 -6
0 -7 5 -4 10 3 6 11 10 16 10 6 0 7 -4 4 -10z m135 4 c0 -8 -32 -33 -42 -34
-10 0 24 38 35 39 4 1 7 -2 7 -5z m-1190 -25 c0 -4 -7 -6 -15 -3 -8 4 -15 10
-15 15 0 4 7 6 15 3 8 -4 15 -10 15 -15z m562 9 c-9 -9 -9 -15 1 -26 10 -13 9
-14 -10 -2 -20 13 -20 15 -5 27 21 16 30 17 14 1z m304 -10 c-9 -5 -14 -13
-11 -19 3 -5 -1 -6 -11 -2 -15 5 -15 7 0 15 9 5 14 13 11 19 -3 5 1 6 11 2 15
-5 15 -7 0 -15z m99 12 c-3 -6 1 -13 9 -16 13 -5 12 -9 -8 -25 -27 -21 -36
-24 -36 -10 0 5 9 11 21 14 12 3 18 10 14 17 -4 6 -14 9 -24 6 -12 -5 -11 -2
3 9 23 17 30 19 21 5z m297 -19 c-9 -10 -21 -16 -26 -13 -5 3 -1 9 8 14 9 5
14 13 11 19 -3 5 1 6 9 3 12 -5 12 -8 -2 -23z m-834 1 c7 -1 23 3 35 8 21 10
21 10 3 -4 -28 -23 -10 -39 25 -21 22 12 29 12 27 3 -2 -8 5 -12 17 -11 20 1
20 1 1 -13 -11 -8 -25 -14 -30 -13 -6 0 -5 3 2 6 6 2 10 9 6 14 -10 17 -22 9
-29 -18 -7 -28 -7 -28 -16 -5 -4 12 -13 22 -19 22 -6 0 -8 -4 -5 -10 3 -5 2
-10 -4 -10 -5 0 -13 5 -16 10 -3 6 -2 10 4 10 6 0 8 7 5 15 -3 8 -11 13 -16
12 -6 -1 -13 5 -15 13 -3 9 -1 11 4 5 4 -5 14 -11 21 -13z m192 13 c0 -2 -10
-9 -22 -15 -22 -11 -22 -10 -4 4 21 17 26 19 26 11z m495 -33 c-1 -1 -14 4
-29 12 -16 8 -22 16 -15 18 11 4 49 -22 44 -30z m-200 10 c-3 -3 -11 0 -18 7
-9 10 -8 11 6 5 10 -3 15 -9 12 -12z m-1211 -14 c-3 -5 -12 -4 -20 3 -19 16
-18 18 6 12 11 -3 17 -9 14 -15z m1016 8 c-7 -7 -13 -7 -20 0 -6 6 -3 10 10
10 13 0 16 -4 10 -10z m170 -16 c0 -5 -2 -10 -4 -10 -3 0 -8 5 -11 10 -3 6 -1
10 4 10 6 0 11 -4 11 -10z m405 0 c3 -5 2 -10 -4 -10 -5 0 -13 5 -16 10 -3 6
-2 10 4 10 5 0 13 -4 16 -10z m-450 -10 c3 -5 2 -10 -4 -10 -5 0 -13 5 -16 10
-3 6 -2 10 4 10 5 0 13 -4 16 -10z m400 0 c3 -5 2 -10 -4 -10 -5 0 -13 5 -16
10 -3 6 -2 10 4 10 5 0 13 -4 16 -10z m-665 -4 c0 -3 -4 -8 -10 -11 -5 -3 -10
-1 -10 4 0 6 5 11 10 11 6 0 10 -2 10 -4z m310 -28 c0 -6 -6 -5 -15 2 -8 7
-15 14 -15 16 0 2 7 1 15 -2 8 -4 15 -11 15 -16z m-1210 -94 c0 -88 2 -105 13
-95 8 6 17 8 20 4 4 -3 -42 -34 -102 -69 -99 -58 -111 -62 -135 -51 -14 7 -26
15 -26 20 0 10 18 9 25 -3 3 -5 13 -10 21 -10 25 0 174 91 174 106 0 20 -4 19
-85 -26 -99 -54 -108 -51 -13 5 43 25 82 45 88 45 8 0 10 29 8 90 -2 50 0 90
5 90 4 0 7 -48 7 -106z m846 97 c8 7 17 9 20 6 3 -3 -4 -10 -15 -17 -26 -13
-29 -45 -3 -36 16 6 16 5 0 -8 -25 -19 -23 -63 3 -76 11 -7 18 -14 15 -17 -3
-3 -12 0 -21 7 -12 10 -15 10 -15 0 0 -8 -3 -10 -7 -6 -4 4 -6 27 -4 51 2 35
-1 45 -13 45 -9 0 -16 4 -16 10 0 5 7 7 16 3 11 -4 15 0 14 13 -3 27 1 41 7
26 4 -10 8 -10 19 -1z m769 -1 c3 -6 -1 -7 -9 -4 -18 7 -21 14 -7 14 6 0 13
-4 16 -10z m-840 -29 c-6 -5 -25 10 -25 20 0 5 6 4 14 -3 8 -7 12 -15 11 -17z
m460 19 c3 -5 1 -10 -4 -10 -6 0 -11 5 -11 10 0 6 2 10 4 10 3 0 8 -4 11 -10z
m85 -5 c-7 -8 -18 -15 -24 -15 -6 0 -2 7 8 15 25 19 32 19 16 0z m-415 -5 c-3
-5 -12 -10 -18 -10 -7 0 -6 4 3 10 19 12 23 12 15 0z m670 -8 c-3 -3 -11 0
-18 7 -9 10 -8 11 6 5 10 -3 15 -9 12 -12z m-1548 -79 c-2 -16 -4 -3 -4 27 0
30 2 43 4 28 2 -16 2 -40 0 -55z m1178 67 c3 -5 1 -10 -4 -10 -6 0 -11 5 -11
10 0 6 2 10 4 10 3 0 8 -4 11 -10z m70 0 c-3 -5 -11 -10 -16 -10 -6 0 -7 5 -4
10 3 6 11 10 16 10 6 0 7 -4 4 -10z m330 0 c3 -5 1 -10 -4 -10 -6 0 -11 5 -11
10 0 6 2 10 4 10 3 0 8 -4 11 -10z m-400 -109 c-3 -6 -11 -11 -17 -11 -6 0 -6
6 2 15 14 17 26 13 15 -4z m62 -3 c-3 -8 -6 -5 -6 6 -1 11 2 17 5 13 3 -3 4
-12 1 -19z m353 17 c0 -2 -10 -10 -22 -16 -21 -11 -22 -11 -9 4 13 16 31 23
31 12z m-1580 -15 c0 -5 -7 -10 -16 -10 -8 0 -12 5 -9 10 3 6 10 10 16 10 5 0
9 -4 9 -10z m-353 -22 c-3 -8 -6 -5 -6 6 -1 11 2 17 5 13 3 -3 4 -12 1 -19z
m383 7 c11 -13 10 -14 -4 -9 -9 3 -16 10 -16 15 0 13 6 11 20 -6z m700 0 c-7
-8 -18 -15 -24 -15 -6 0 -2 7 8 15 25 19 32 19 16 0z m150 -11 c0 -2 -9 0 -20
6 -11 6 -20 13 -20 16 0 2 9 0 20 -6 11 -6 20 -13 20 -16z m-60 -9 c0 -2 -7
-2 -15 1 -10 4 -15 0 -15 -12 0 -15 -2 -16 -9 -5 -5 7 -14 10 -20 7 -18 -11
-13 6 6 19 16 12 53 4 53 -10z m305 15 c-3 -5 -11 -10 -16 -10 -6 0 -7 5 -4
10 3 6 11 10 16 10 6 0 7 -4 4 -10z m400 0 c-3 -5 -11 -10 -16 -10 -6 0 -7 5
-4 10 3 6 11 10 16 10 6 0 7 -4 4 -10z m-360 -20 c-3 -5 -11 -10 -16 -10 -6 0
-7 5 -4 10 3 6 11 10 16 10 6 0 7 -4 4 -10z m70 0 c3 -5 2 -10 -4 -10 -5 0
-13 5 -16 10 -3 6 -2 10 4 10 5 0 13 -4 16 -10z m-1205 -4 c0 -2 -8 -10 -17
-17 -16 -13 -17 -12 -4 4 13 16 21 21 21 13z m830 -11 c11 -13 10 -14 -4 -9
-9 3 -16 10 -16 15 0 13 6 11 20 -6z m-475 -8 c-3 -7 -20 -19 -38 -26 -17 -8
-61 -32 -96 -53 -35 -22 -65 -37 -67 -35 -4 3 189 123 203 126 1 1 0 -5 -2
-12z m855 -21 c0 -10 -30 0 -34 11 -3 8 -11 11 -17 7 -8 -4 -9 -3 -5 4 5 9 14
7 32 -4 13 -9 24 -17 24 -18z m30 24 c0 -5 -2 -10 -4 -10 -3 0 -8 5 -11 10 -3
6 -1 10 4 10 6 0 11 -4 11 -10z m260 0 c0 -5 -5 -10 -11 -10 -5 0 -7 5 -4 10
3 6 8 10 11 10 2 0 4 -4 4 -10z m-1905 -10 c3 -6 -1 -7 -9 -4 -18 7 -21 14 -7
14 6 0 13 -4 16 -10z m1151 -4 c18 -19 18 -32 0 -17 -15 13 -62 -4 -98 -36
-15 -13 -19 -13 -38 0 -18 12 -19 15 -5 21 9 3 13 2 10 -4 -10 -16 14 -12 43
8 33 21 66 41 70 41 2 1 10 -5 18 -13z m44 4 c0 -5 -4 -10 -10 -10 -5 0 -10 5
-10 10 0 6 5 10 10 10 6 0 10 -4 10 -10z m-835 -10 c-3 -5 -12 -10 -18 -10 -7
0 -6 4 3 10 19 12 23 12 15 0z m625 -5 c-7 -8 -18 -15 -24 -15 -6 0 -2 7 8 15
25 19 32 19 16 0z m400 0 c-7 -8 -17 -15 -23 -15 -6 0 -2 7 9 15 25 19 30 19
14 0z m160 11 c0 -2 -7 -7 -16 -10 -8 -3 -12 -2 -9 4 6 10 25 14 25 6z m404
-4 c2 -4 -4 -8 -14 -8 -10 0 -16 4 -14 8 3 4 9 8 14 8 5 0 11 -4 14 -8z m-719
-12 c3 -5 2 -10 -4 -10 -5 0 -13 5 -16 10 -3 6 -2 10 4 10 5 0 13 -4 16 -10z
m550 0 c-3 -5 -10 -10 -16 -10 -5 0 -9 5 -9 10 0 6 7 10 16 10 8 0 12 -4 9
-10z m-1685 -36 c0 -2 -13 2 -30 11 -16 9 -30 18 -30 21 0 2 14 -2 30 -11 17
-9 30 -18 30 -21z m1242 22 c10 6 11 4 0 -7 -10 -11 -15 -10 -30 6 -15 17 -15
18 0 6 9 -7 23 -9 30 -5z m168 5 c0 -5 -10 -11 -22 -14 -22 -6 -22 -6 -4 8 23
17 26 18 26 6z m74 1 c2 -4 -4 -8 -14 -8 -10 0 -16 4 -14 8 3 4 9 8 14 8 5 0
11 -4 14 -8z m66 -2 c0 -5 -4 -10 -10 -10 -5 0 -10 5 -10 10 0 6 5 10 10 10 6
0 10 -4 10 -10z m260 0 c0 -5 -5 -10 -11 -10 -5 0 -7 5 -4 10 3 6 8 10 11 10
2 0 4 -4 4 -10z m-1160 -10 c0 -5 -2 -10 -4 -10 -3 0 -8 5 -11 10 -3 6 -1 10
4 10 6 0 11 -4 11 -10z m385 0 c-3 -5 -12 -10 -18 -10 -7 0 -6 4 3 10 19 12
23 12 15 0z m78 -3 c3 -9 -3 -13 -17 -13 -11 1 -20 -4 -19 -11 2 -7 -4 -10
-13 -6 -12 4 -10 10 13 24 33 22 30 22 36 6z m207 -1 c-7 -7 -13 -7 -20 0 -6
6 -3 10 10 10 13 0 16 -4 10 -10z m325 4 c-3 -5 -12 -10 -18 -10 -7 0 -6 4 3
10 19 12 23 12 15 0z m85 3 c0 -1 -8 -7 -18 -12 -13 -7 -19 -6 -19 2 0 7 9 13
19 13 10 0 18 -1 18 -3z m124 -6 c-3 -8 -11 -14 -19 -14 -21 0 -19 15 3 20 9
3 18 5 19 6 1 0 0 -5 -3 -12z m-1799 -15 c-3 -3 -11 0 -18 7 -9 10 -8 11 6 5
10 -3 15 -9 12 -12z m1389 10 c3 -5 -1 -9 -9 -9 -8 0 -15 4 -15 9 0 4 4 8 9 8
6 0 12 -4 15 -8z m141 -2 c3 -6 -1 -7 -9 -4 -18 7 -21 14 -7 14 6 0 13 -4 16
-10z m-1228 -17 c0 -8 -6 -9 -19 -2 -10 5 -18 11 -18 12 0 2 8 3 18 3 10 0 19
-6 19 -13z m848 -1 c-3 -3 -11 0 -18 7 -9 10 -8 11 6 5 10 -3 15 -9 12 -12z
m128 3 c27 13 29 14 12 1 -11 -9 -26 -20 -32 -26 -7 -6 -13 -8 -13 -4 0 3 -8
0 -17 -7 -16 -13 -17 -12 -5 3 9 11 10 18 2 23 -14 8 -32 -4 -24 -17 4 -6 -2
-6 -15 1 -26 14 -27 19 -3 17 10 0 16 5 14 13 -2 11 3 10 23 -3 23 -15 28 -15
58 -1z m333 -7 c-9 -5 -14 -14 -10 -20 4 -6 -2 -6 -15 1 -26 14 -27 19 -3 17
9 0 16 4 15 11 -2 7 4 10 13 6 15 -5 15 -7 0 -15z m94 17 c0 -2 -10 -9 -22
-15 -22 -11 -22 -10 -4 4 21 17 26 19 26 11z m-815 -35 c-3 -5 -12 -10 -18
-10 -7 0 -6 4 3 10 19 12 23 12 15 0z m765 -2 c0 -6 -3 -8 -7 -5 -3 4 -13 1
-22 -6 -14 -11 -14 -10 -2 6 15 20 31 22 31 5z m-1685 -8 c3 -5 2 -10 -4 -10
-5 0 -13 5 -16 10 -3 6 -2 10 4 10 5 0 13 -4 16 -10z m1330 0 c-3 -5 -11 -10
-16 -10 -6 0 -7 5 -4 10 3 6 11 10 16 10 6 0 7 -4 4 -10z m400 0 c-3 -5 -11
-10 -16 -10 -6 0 -7 5 -4 10 3 6 11 10 16 10 6 0 7 -4 4 -10z m-910 -10 c3 -5
1 -10 -4 -10 -6 0 -11 5 -11 10 0 6 2 10 4 10 3 0 8 -4 11 -10z m65 0 c0 -5
-5 -10 -11 -10 -5 0 -7 5 -4 10 3 6 8 10 11 10 2 0 4 -4 4 -10z m-863 -167
c-2 -32 -3 -6 -3 57 0 63 1 89 3 58 2 -32 2 -84 0 -115z m30 0 c-2 -32 -3 -6
-3 57 0 63 1 89 3 58 2 -32 2 -84 0 -115z m1196 147 c10 0 16 -4 12 -10 -7
-12 -55 9 -55 24 0 6 5 5 12 -2 7 -7 20 -12 31 -12z m47 16 c0 -3 -4 -8 -10
-11 -5 -3 -10 -1 -10 4 0 6 5 11 10 11 6 0 10 -2 10 -4z m325 -6 c3 -5 2 -10
-4 -10 -5 0 -13 5 -16 10 -3 6 -2 10 4 10 5 0 13 -4 16 -10z m68 -10 c-3 -11
-7 -20 -9 -20 -2 0 -4 9 -4 20 0 11 4 20 9 20 5 0 7 -9 4 -20z m-1693 -90 c0
-55 -3 -100 -7 -100 -5 0 -8 45 -8 100 0 55 3 100 8 100 4 0 7 -45 7 -100z
m785 90 c3 -5 1 -10 -4 -10 -6 0 -11 5 -11 10 0 6 2 10 4 10 3 0 8 -4 11 -10z
m145 0 c0 -5 -5 -10 -11 -10 -5 0 -7 5 -4 10 3 6 8 10 11 10 2 0 4 -4 4 -10z
m740 -4 c0 -11 -19 -15 -25 -6 -3 5 1 10 9 10 9 0 16 -2 16 -4z m-850 -16 c0
-5 -2 -10 -4 -10 -3 0 -8 5 -11 10 -3 6 -1 10 4 10 6 0 11 -4 11 -10z m73 -11
c-4 -15 -8 -17 -14 -8 -8 14 -3 29 11 29 4 0 6 -9 3 -21z m302 11 c3 -5 2 -10
-4 -10 -5 0 -13 5 -16 10 -3 6 -2 10 4 10 5 0 13 -4 16 -10z m395 0 c0 -5 -2
-10 -4 -10 -3 0 -8 5 -11 10 -3 6 -1 10 4 10 6 0 11 -4 11 -10z m110 -15 c-7
-8 -18 -15 -24 -15 -6 0 -2 7 8 15 25 19 32 19 16 0z m-840 -5 c0 -5 -4 -10
-10 -10 -5 0 -10 5 -10 10 0 6 5 10 10 10 6 0 10 -4 10 -10z m430 0 c0 -5 -5
-10 -11 -10 -5 0 -7 5 -4 10 3 6 8 10 11 10 2 0 4 -4 4 -10z m-873 -22 c-3 -8
-6 -5 -6 6 -1 11 2 17 5 13 3 -3 4 -12 1 -19z m1243 12 c0 -5 -5 -10 -11 -10
-5 0 -7 5 -4 10 3 6 8 10 11 10 2 0 4 -4 4 -10z m-1243 -72 c-3 -8 -6 -5 -6 6
-1 11 2 17 5 13 3 -3 4 -12 1 -19z m1243 -8 c0 -5 -5 -10 -11 -10 -5 0 -7 5
-4 10 3 6 8 10 11 10 2 0 4 -4 4 -10z m33 -15 c4 -8 2 -17 -3 -20 -6 -4 -10 3
-10 14 0 25 6 27 13 6z m-63 1 c0 -3 -4 -8 -10 -11 -5 -3 -10 -1 -10 4 0 6 5
11 10 11 6 0 10 -2 10 -4z m-813 -28 c-3 -8 -6 -5 -6 6 -1 11 2 17 5 13 3 -3
4 -12 1 -19z m408 2 c-3 -5 -11 -10 -16 -10 -6 0 -7 5 -4 10 3 6 11 10 16 10
6 0 7 -4 4 -10z m70 0 c3 -5 2 -10 -4 -10 -5 0 -13 5 -16 10 -3 6 -2 10 4 10
5 0 13 -4 16 -10z m440 0 c3 -5 2 -10 -4 -10 -5 0 -13 5 -16 10 -3 6 -2 10 4
10 5 0 13 -4 16 -10z m-75 -10 c0 -5 -2 -10 -4 -10 -3 0 -8 5 -11 10 -3 6 -1
10 4 10 6 0 11 -4 11 -10z m-774 -15 c25 -19 14 -19 -22 0 -16 8 -22 15 -13
15 8 0 24 -7 35 -15z m374 -1 c0 -8 -5 -12 -10 -9 -6 4 -8 11 -5 16 9 14 15
11 15 -7z m70 6 c0 -5 -2 -10 -4 -10 -3 0 -8 5 -11 10 -3 6 -1 10 4 10 6 0 11
-4 11 -10z m371 -7 c13 -15 12 -15 -8 -4 -24 12 -29 21 -14 21 5 0 15 -7 22
-17z m-1272 -10 c-6 -7 -15 -13 -20 -13 -5 0 -6 6 -3 13 3 8 11 14 19 14 11 0
12 -4 4 -14z m396 7 c-3 -5 -11 -10 -16 -10 -6 0 -7 5 -4 10 3 6 11 10 16 10
6 0 7 -4 4 -10z m465 -26 c-6 -6 -8 -13 -5 -16 3 -3 -10 -4 -27 -3 -43 3 -52
-3 -36 -23 11 -14 9 -14 -15 1 -15 10 -32 15 -37 12 -5 -3 -12 0 -16 7 -4 7
-4 10 1 6 4 -4 14 0 22 10 10 13 13 14 11 2 -2 -8 4 -15 12 -15 10 0 14 8 12
23 -3 23 12 30 24 10 5 -7 2 -9 -7 -4 -8 4 -5 0 5 -8 14 -11 23 -13 32 -5 8 6
13 14 12 17 -2 19 3 25 12 12 5 -9 5 -19 0 -26z m-1290 16 c0 -5 -5 -10 -11
-10 -5 0 -7 5 -4 10 3 6 8 10 11 10 2 0 4 -4 4 -10z m545 -49 c39 -23 77 -40
86 -38 12 3 15 -1 12 -14 -5 -19 -23 -27 -23 -10 0 12 -118 73 -132 69 -12 -4
141 -98 160 -98 7 0 12 -5 12 -11 0 -6 -9 -8 -21 -4 -15 5 -20 3 -17 -6 2 -7
15 -16 29 -19 16 -4 20 -8 11 -14 -6 -4 -17 -4 -23 0 -6 3 -15 0 -21 -7 -6
-10 -8 -2 -6 25 l3 39 -84 48 c-46 27 -89 46 -94 42 -6 -3 -7 -1 -3 6 4 6 16
9 27 6 11 -4 19 -2 19 4 0 6 -7 11 -15 11 -16 0 -20 12 -8 23 4 4 9 3 12 -1 3
-5 38 -28 76 -51z m1050 49 c-3 -5 -11 -10 -16 -10 -6 0 -7 5 -4 10 3 6 11 10
16 10 6 0 7 -4 4 -10z m-1545 -8 c0 -5 -7 -9 -15 -9 -8 0 -12 4 -9 9 3 4 9 8
15 8 5 0 9 -4 9 -8z m735 -2 c-3 -5 -11 -10 -16 -10 -6 0 -7 5 -4 10 3 6 11
10 16 10 6 0 7 -4 4 -10z m120 -15 c84 -51 99 -58 103 -46 6 17 29 13 36 -5 5
-14 4 -15 -8 -5 -9 8 -16 8 -20 2 -4 -5 2 -12 12 -15 16 -5 17 -19 16 -128 -1
-113 1 -125 20 -141 12 -10 15 -16 8 -12 -12 6 -114 -45 -175 -88 l-29 -20 4
-115 c2 -92 0 -116 -11 -120 -8 -3 -11 0 -7 7 4 6 3 11 -3 11 -18 0 -41 -12
-41 -22 0 -6 8 -7 18 -3 13 5 14 4 5 -6 -9 -9 -16 -9 -26 -1 -10 8 -28 2 -75
-28 -35 -22 -67 -40 -72 -40 -21 0 -8 16 23 29 17 8 50 26 72 40 22 15 48 30
58 34 17 6 18 19 16 128 l-3 120 75 40 c88 48 94 53 94 81 0 12 6 23 13 26 11
3 12 0 3 -17 -10 -17 -9 -21 4 -21 13 0 15 16 13 116 l-3 117 -52 29 c-29 16
-58 28 -65 25 -7 -2 13 -18 44 -36 54 -31 79 -51 62 -51 -4 0 -15 6 -23 13 -9
7 -45 30 -81 51 -51 30 -66 35 -75 24 -5 -7 -17 -14 -24 -16 -8 -2 -41 -19
-74 -38 -33 -19 -61 -33 -63 -31 -2 2 27 20 64 42 37 21 61 40 54 43 -6 2 -42
-13 -78 -33 -37 -21 -64 -33 -60 -27 3 5 32 25 64 43 31 18 71 41 87 50 40 23
53 23 100 -6z m25 15 c0 -5 -2 -10 -4 -10 -3 0 -8 5 -11 10 -3 6 -1 10 4 10 6
0 11 -4 11 -10z m-540 -4 c0 -3 -4 -8 -10 -11 -5 -3 -10 -1 -10 4 0 6 5 11 10
11 6 0 10 -2 10 -4z m50 -5 c0 -5 -10 -13 -22 -17 -22 -7 -22 -7 6 -19 16 -7
25 -14 20 -17 -91 -51 -144 -79 -144 -74 0 3 25 20 55 37 54 30 86 59 51 46
-10 -4 -15 -3 -11 3 9 15 -8 12 -33 -6 -12 -8 -22 -11 -22 -7 0 8 78 61 93 62
4 1 7 -3 7 -8z m903 -15 c7 4 8 3 4 -2 -8 -9 -12 -10 -38 -13 -8 -1 -7 -7 2
-18 13 -16 12 -17 -3 -5 -9 8 -23 11 -30 7 -7 -4 -4 1 7 10 11 9 19 21 17 26
-1 6 2 8 8 4 5 -3 11 0 11 7 1 7 3 5 6 -5 3 -10 10 -14 16 -11z m-1338 4 c3
-5 1 -10 -4 -10 -6 0 -11 5 -11 10 0 6 2 10 4 10 3 0 8 -4 11 -10z m1430 -18
c-3 -3 -11 0 -18 7 -9 10 -8 11 6 5 10 -3 15 -9 12 -12z m-1329 -28 c16 -10
31 -19 33 -20 1 -2 0 -8 -4 -14 -5 -8 -12 -5 -22 9 -8 12 -21 21 -29 21 -8 0
-14 5 -14 10 0 6 -9 10 -19 10 -11 0 -22 4 -26 9 -8 14 47 -3 81 -25z m1040 9
c2 -12 0 -13 -9 -4 -14 14 -30 14 -21 -1 5 -7 3 -8 -6 -3 -10 6 -9 11 5 21 20
15 28 12 31 -13z m674 13 c-7 -7 -13 -7 -20 0 -6 6 -3 10 10 10 13 0 16 -4 10
-10z m-412 -21 c-2 -6 -6 -9 -10 -7 -5 1 -8 -5 -8 -14 0 -9 5 -12 13 -8 8 5 7
2 -2 -10 -11 -13 -16 -14 -22 -4 -4 6 -6 15 -5 18 2 3 6 13 9 23 7 19 31 20
25 2z m48 -6 c-21 -17 -26 -27 -22 -45 4 -14 2 -24 -4 -24 -20 0 -11 57 13 73
33 24 44 20 13 -4z m-1134 -6 c-7 -3 -26 -16 -42 -30 -17 -14 -30 -20 -30 -14
0 13 73 61 80 53 3 -2 -1 -7 -8 -9z m538 7 c0 -5 -2 -10 -4 -10 -3 0 -8 5 -11
10 -3 6 -1 10 4 10 6 0 11 -4 11 -10z m400 6 c0 -3 -4 -8 -10 -11 -5 -3 -10
-1 -10 4 0 6 5 11 10 11 6 0 10 -2 10 -4z m-1285 -16 c-3 -5 -12 -10 -18 -10
-7 0 -6 4 3 10 19 12 23 12 15 0z m290 0 c-3 -5 -12 -10 -18 -10 -7 0 -6 4 3
10 19 12 23 12 15 0z m249 -21 c-3 -5 -10 -7 -15 -3 -5 3 -7 10 -3 15 3 5 10
7 15 3 5 -3 7 -10 3 -15z m565 -98 c0 -66 2 -125 6 -132 5 -7 3 -10 -6 -7 -11
4 -14 32 -14 131 -1 70 3 127 7 127 5 0 8 -54 7 -119z m-867 36 c-5 -21 -6
-21 -13 5 -4 14 -10 32 -15 40 -4 7 2 5 13 -5 14 -12 19 -25 15 -40z m59 7
c-18 -13 -25 -14 -34 -4 -7 7 -7 10 -2 7 6 -3 17 -2 25 4 26 16 35 10 11 -7z
m416 -16 c-3 -8 -6 -5 -6 6 -1 11 2 17 5 13 3 -3 4 -12 1 -19z m333 12 c0 -5
-4 -10 -9 -10 -6 0 -13 5 -16 10 -3 6 1 10 9 10 9 0 16 -4 16 -10z m415 -18
c-8 -8 -25 10 -19 20 4 6 9 5 15 -3 4 -7 6 -15 4 -17z m-1178 -34 c-3 -7 -5
-2 -5 12 0 14 2 19 5 13 2 -7 2 -19 0 -25z m1170 -20 c-3 -8 -6 -5 -6 6 -1 11
2 17 5 13 3 -3 4 -12 1 -19z m-1220 -50 c-2 -13 -4 -5 -4 17 -1 22 1 32 4 23
2 -10 2 -28 0 -40z m416 0 c-5 -27 -4 -30 15 -24 11 4 23 2 27 -4 3 -6 -3 -10
-14 -10 -12 0 -21 -7 -21 -15 0 -14 13 -20 35 -15 6 1 7 -2 2 -6 -4 -4 -17 -8
-30 -8 -20 -1 -22 4 -25 62 -2 40 1 61 7 57 6 -3 8 -20 4 -37z m-366 -20 c-2
-13 -4 -5 -4 17 -1 22 1 32 4 23 2 -10 2 -28 0 -40z m1179 36 c-3 -9 -6 -18
-6 -20 0 -3 -4 -3 -10 1 -11 7 -2 35 12 35 6 0 7 -7 4 -16z m-43 -35 c-4 -15
-8 -17 -14 -8 -8 14 -3 29 11 29 4 0 6 -9 3 -21z m-1213 -24 c0 -2 -10 -9 -22
-15 -22 -11 -22 -10 -4 4 21 17 26 19 26 11z m530 1 c0 -2 -8 -10 -17 -17 -16
-13 -17 -12 -4 4 13 16 21 21 21 13z m-180 -11 c0 -2 -10 -9 -22 -15 -22 -11
-22 -10 -4 4 21 17 26 19 26 11z m200 1 c0 -2 -8 -10 -17 -17 -16 -13 -17 -12
-4 4 13 16 21 21 21 13z m663 -21 c-3 -8 0 -15 6 -15 6 0 11 -4 11 -10 0 -17
-27 -11 -32 8 -6 22 1 44 12 37 5 -3 7 -12 3 -20z m-253 -11 c0 -2 -9 0 -20 6
-11 6 -20 13 -20 16 0 2 9 0 20 -6 11 -6 20 -13 20 -16z m-599 -11 c13 -16 12
-17 -3 -4 -10 7 -18 15 -18 17 0 8 8 3 21 -13z m239 13 c0 -2 -8 -10 -17 -17
-16 -13 -17 -12 -4 4 13 16 21 21 21 13z m-254 -41 c-1 -8 -5 -17 -8 -21 -4
-3 -5 2 -4 13 2 10 -2 25 -8 33 -9 13 -9 13 6 2 9 -7 15 -19 14 -27z m274 31
c0 -2 -8 -10 -17 -17 -16 -13 -17 -12 -4 4 13 16 21 21 21 13z m350 -32 c0 -2
-13 2 -30 11 -16 9 -30 18 -30 21 0 2 14 -2 30 -11 17 -9 30 -18 30 -21z m94
28 c3 -5 -1 -9 -9 -9 -8 0 -15 4 -15 9 0 4 4 8 9 8 6 0 12 -4 15 -8z m241 -2
c3 -6 -1 -7 -9 -4 -18 7 -21 14 -7 14 6 0 13 -4 16 -10z m-645 -20 c-14 -11
-28 -20 -32 -20 -4 0 -5 -11 -2 -25 2 -14 0 -25 -6 -25 -5 0 -10 11 -10 23 0
24 22 49 50 60 26 9 26 7 0 -13z m370 -1 c0 -14 -16 -11 -29 5 -10 12 -8 13 8
9 12 -3 21 -9 21 -14z m88 -7 c2 -7 8 -9 14 -6 6 4 9 1 6 -6 -6 -20 -28 -24
-28 -6 0 9 -7 16 -15 16 -8 0 -15 4 -15 9 0 13 33 7 38 -7z m142 8 c0 -5 -4
-10 -10 -10 -5 0 -10 5 -10 10 0 6 5 10 10 10 6 0 10 -4 10 -10z m-1230 -5 c0
-2 -10 -9 -22 -15 -22 -11 -22 -10 -4 4 21 17 26 19 26 11z m986 -33 c-4 -3
-14 2 -24 12 -16 18 -16 18 6 6 13 -6 21 -14 18 -18z m70 3 c6 -5 9 -16 6 -23
-5 -17 -37 -15 -52 3 -8 9 -9 15 -2 15 6 0 14 -5 17 -10 4 -6 11 -7 17 -4 7 4
2 14 -13 26 -20 15 -21 17 -4 11 11 -4 25 -12 31 -18z m144 20 c0 -2 -10 -9
-22 -15 -22 -11 -22 -10 -4 4 21 17 26 19 26 11z m-975 -145 c0 -71 3 -130 7
-130 5 0 8 -5 8 -12 0 -7 -7 -5 -17 5 -17 14 -23 12 -83 -24 -36 -21 -69 -41
-75 -43 -6 -3 -4 -9 4 -14 11 -8 9 -12 -10 -23 -22 -11 -23 -11 -10 4 12 15
11 17 -7 17 -12 0 -24 5 -27 10 -3 6 -13 10 -21 10 -8 0 -12 -4 -9 -10 3 -5 1
-10 -5 -10 -6 0 -9 8 -6 18 5 14 -7 26 -55 52 -61 35 -91 60 -71 60 6 0 14 -4
17 -10 3 -5 35 -26 70 -45 l64 -36 87 51 c47 28 88 49 91 47 2 -3 -30 -24 -71
-48 -41 -23 -73 -46 -70 -51 3 -4 -3 -5 -12 -1 -12 4 -15 3 -10 -5 12 -20 33
-14 116 34 l80 47 1 76 c1 42 0 91 -1 108 -1 27 5 53 13 53 1 0 2 -58 2 -130z
m1295 120 c0 -5 -5 -10 -11 -10 -5 0 -7 5 -4 10 3 6 8 10 11 10 2 0 4 -4 4
-10z m-105 -20 c3 -5 2 -10 -4 -10 -5 0 -13 5 -16 10 -3 6 -2 10 4 10 5 0 13
-4 16 -10z m-1132 -20 c-3 -12 -8 -19 -11 -16 -5 6 5 36 12 36 2 0 2 -9 -1
-20z m702 10 c3 -5 2 -10 -4 -10 -5 0 -13 5 -16 10 -3 6 -2 10 4 10 5 0 13 -4
16 -10z m390 -10 c3 -5 2 -10 -4 -10 -5 0 -13 5 -16 10 -3 6 -2 10 4 10 5 0
13 -4 16 -10z m-345 -10 c0 -6 9 -6 26 1 24 8 25 8 14 -6 -16 -19 -31 -19 -56
0 -17 13 -17 14 -1 15 9 0 17 -4 17 -10z m447 -22 c-3 -8 -6 -5 -6 6 -1 11 2
17 5 13 3 -3 4 -12 1 -19z m-1700 -50 c-3 -8 -6 -5 -6 6 -1 11 2 17 5 13 3 -3
4 -12 1 -19z m1272 -62 c-9 -8 -10 -8 -5 2 9 15 5 15 -29 2 -18 -7 -24 -7 -20
1 4 5 18 14 31 19 15 6 25 18 26 32 1 13 3 9 5 -11 3 -19 -1 -38 -8 -45z
m-852 22 c-3 -8 -6 -5 -6 6 -1 11 2 17 5 13 3 -3 4 -12 1 -19z m1287 -13 c3
-8 1 -15 -4 -15 -6 0 -10 7 -10 15 0 8 2 15 4 15 2 0 6 -7 10 -15z m-1627 -17
c-3 -8 -6 -5 -6 6 -1 11 2 17 5 13 3 -3 4 -12 1 -19z m743 2 c-24 -15 -37 -11
-16 5 11 8 22 12 25 9 3 -3 -1 -9 -9 -14z m-310 -5 c11 -13 10 -14 -4 -9 -9 3
-16 10 -16 15 0 13 6 11 20 -6z m815 5 c3 -5 1 -10 -4 -10 -6 0 -11 5 -11 10
0 6 2 10 4 10 3 0 8 -4 11 -10z m-908 -22 c-3 -8 -6 -5 -6 6 -1 11 2 17 5 13
3 -3 4 -12 1 -19z m1323 12 c0 -5 -2 -10 -4 -10 -3 0 -8 5 -11 10 -3 6 -1 10
4 10 6 0 11 -4 11 -10z m-454 -11 c3 -6 -1 -10 -12 -9 -34 4 -42 0 -40 -17 3
-22 26 -30 26 -9 0 10 30 -3 101 -45 55 -33 105 -56 111 -53 7 5 5 12 -7 21
-11 7 -15 13 -9 13 11 -1 44 -25 44 -32 0 -3 -10 -8 -22 -11 -14 -4 -44 7 -89
34 -37 21 -72 39 -77 39 -6 0 -12 6 -15 13 -3 9 -11 9 -36 0 -17 -6 -29 -8
-26 -3 3 5 1 11 -4 14 -10 7 -9 25 2 44 10 15 43 16 53 1z m-1121 -17 c-3 -3
-11 0 -18 7 -9 10 -8 11 6 5 10 -3 15 -9 12 -12z m315 -2 c6 -11 8 -20 6 -20
-3 0 -10 9 -16 20 -6 11 -8 20 -6 20 3 0 10 -9 16 -20z m1220 10 c0 -5 -2 -10
-4 -10 -3 0 -8 5 -11 10 -3 6 -1 10 4 10 6 0 11 -4 11 -10z m-497 -43 c-3 -5
1 -13 8 -18 7 -4 10 -12 5 -16 -11 -11 -35 24 -31 45 2 9 4 19 4 22 1 3 5 -2
10 -10 6 -8 7 -18 4 -23z m402 23 c-3 -5 -11 -10 -16 -10 -6 0 -7 5 -4 10 3 6
11 10 16 10 6 0 7 -4 4 -10z m-1665 -4 c0 -2 -7 -7 -16 -10 -8 -3 -12 -2 -9 4
6 10 25 14 25 6z m720 -37 c0 -14 -16 -11 -29 5 -10 12 -8 13 8 9 12 -3 21 -9
21 -14z m405 3 c-3 -3 -11 0 -18 7 -9 10 -8 11 6 5 10 -3 15 -9 12 -12z m400
0 c-3 -3 -11 0 -18 7 -9 10 -8 11 6 5 10 -3 15 -9 12 -12z m-865 4 c0 -2 -8
-10 -17 -17 -16 -13 -17 -12 -4 4 13 16 21 21 21 13z m1075 -6 c3 -6 -1 -7 -9
-4 -18 7 -21 14 -7 14 6 0 13 -4 16 -10z m65 0 c0 -5 -4 -10 -10 -10 -5 0 -10
5 -10 10 0 6 5 10 10 10 6 0 10 -4 10 -10z m-779 -13 c-6 -8 -7 -18 -3 -22 4
-5 1 -5 -6 -1 -10 6 -10 11 -1 22 6 8 14 14 16 14 3 0 0 -6 -6 -13z m334 3 c3
-6 -1 -7 -9 -4 -18 7 -21 14 -7 14 6 0 13 -4 16 -10z m145 -16 c0 -2 -9 0 -20
6 -11 6 -20 13 -20 16 0 2 9 0 20 -6 11 -6 20 -13 20 -16z m80 19 c0 -1 -8 -7
-18 -12 -13 -7 -19 -6 -19 2 0 7 9 13 19 13 10 0 18 -1 18 -3z m-900 -18 c-7
-8 -17 -12 -22 -9 -6 4 -5 10 3 15 22 14 33 10 19 -6z m398 4 c-10 -5 -15 -18
-13 -29 3 -17 1 -18 -15 -10 -10 5 -17 18 -15 27 2 10 4 18 4 18 1 0 13 1 28
2 22 1 24 -1 11 -8z m128 -13 c1 -9 -7 -21 -18 -27 -13 -7 -18 -7 -14 -1 3 6
2 13 -4 17 -6 4 -7 11 -4 17 5 8 1 9 -10 5 -9 -4 -14 -3 -11 2 9 16 58 5 61
-13z m424 19 c0 -2 -13 -11 -30 -20 -38 -19 -40 -11 -2 9 31 17 32 18 32 11z
m55 -5 c3 -5 1 -10 -4 -10 -6 0 -11 5 -11 10 0 6 2 10 4 10 3 0 8 -4 11 -10z
m85 0 c0 -5 -4 -10 -10 -10 -5 0 -10 5 -10 10 0 6 5 10 10 10 6 0 10 -4 10
-10z m-450 -10 c0 -5 -7 -10 -15 -10 -8 0 -15 5 -15 10 0 6 7 10 15 10 8 0 15
-4 15 -10z m-659 -27 c2 1 1 -2 -3 -7 -10 -12 -40 13 -31 27 4 6 11 4 18 -6 7
-9 14 -16 16 -14z m480 17 c10 -6 19 -18 19 -27 0 -12 -5 -11 -21 8 l-20 24
-19 -25 c-15 -20 -20 -21 -20 -8 0 9 8 22 18 27 21 13 20 13 43 1z m589 -4
c-7 -7 -13 -7 -20 0 -6 6 -3 10 10 10 13 0 16 -4 10 -10z m-1425 -26 c3 -5 2
-10 -4 -10 -5 0 -13 5 -16 10 -3 6 -2 10 4 10 5 0 13 -4 16 -10z m480 0 c-3
-5 -11 -10 -16 -10 -6 0 -7 5 -4 10 3 6 11 10 16 10 6 0 7 -4 4 -10z m820 0
c-3 -5 -11 -10 -16 -10 -6 0 -7 5 -4 10 3 6 11 10 16 10 6 0 7 -4 4 -10z m250
0 c3 -6 -1 -7 -9 -4 -18 7 -21 14 -7 14 6 0 13 -4 16 -10z m-1590 -10 c3 -5 2
-10 -4 -10 -5 0 -13 5 -16 10 -3 6 -2 10 4 10 5 0 13 -4 16 -10z m865 -5 c0
-8 -4 -15 -10 -15 -5 0 -10 7 -10 15 0 8 5 15 10 15 6 0 10 -7 10 -15z m-70
-10 c11 -13 10 -14 -4 -9 -9 3 -16 10 -16 15 0 13 6 11 20 -6z m435 5 c3 -5 2
-10 -4 -10 -5 0 -13 5 -16 10 -3 6 -2 10 4 10 5 0 13 -4 16 -10z m75 6 c0 -3
-4 -8 -10 -11 -5 -3 -10 -1 -10 4 0 6 5 11 10 11 6 0 10 -2 10 -4z m336 -23
c-7 -7 -26 7 -26 19 0 6 6 6 15 -2 9 -7 13 -15 11 -17z m-706 13 c0 -2 -7 -7
-16 -10 -8 -3 -12 -2 -9 4 6 10 25 14 25 6z m-913 -28 c-3 -8 -6 -5 -6 6 -1
11 2 17 5 13 3 -3 4 -12 1 -19z m807 7 c3 -8 1 -15 -4 -15 -6 0 -10 7 -10 15
0 8 2 15 4 15 2 0 6 -7 10 -15z m66 0 c0 -8 -4 -15 -10 -15 -5 0 -7 7 -4 15 4
8 8 15 10 15 2 0 4 -7 4 -15z m380 11 c0 -11 -19 -15 -25 -6 -3 5 1 10 9 10 9
0 16 -2 16 -4z m-80 -16 c0 -5 -2 -10 -4 -10 -3 0 -8 5 -11 10 -3 6 -1 10 4
10 6 0 11 -4 11 -10z m405 0 c3 -5 2 -10 -4 -10 -5 0 -13 5 -16 10 -3 6 -2 10
4 10 5 0 13 -4 16 -10z"/>
<path d="M985 1140 c-3 -5 1 -10 9 -10 9 0 16 5 16 10 0 6 -4 10 -9 10 -6 0
-13 -4 -16 -10z"/>
<path d="M973 858 c-27 -13 -31 -34 -5 -23 22 10 42 10 65 0 10 -4 17 -3 17 4
0 6 -9 11 -20 11 -11 0 -20 5 -20 10 0 12 -8 12 -37 -2z"/>
<path d="M1090 480 c-46 -27 -87 -50 -91 -50 -4 0 -7 -45 -7 -100 0 -55 4
-100 9 -100 5 0 10 44 11 98 2 56 7 97 13 97 14 0 129 67 133 77 2 4 10 8 18
8 8 0 14 5 14 10 0 17 -14 11 -100 -40z"/>
<path d="M990 206 c0 -8 7 -16 15 -20 17 -6 18 -4 9 18 -8 20 -24 21 -24 2z"/>
<path d="M770 1989 c0 -6 7 -8 16 -5 9 3 21 3 27 -1 7 -4 3 -9 -12 -13 -14 -3
-27 -12 -29 -19 -3 -10 1 -12 13 -7 10 4 25 0 34 -8 28 -25 131 -78 131 -68 0
5 9 12 20 15 28 7 25 -9 -2 -17 -22 -6 -22 -7 -4 -18 15 -8 22 -8 30 3 6 8 17
15 23 16 7 2 42 21 78 43 36 22 68 40 71 40 15 0 -12 -21 -58 -45 -29 -15 -60
-33 -68 -40 -8 -6 -24 -15 -35 -20 -11 -4 -15 -9 -9 -12 7 -2 36 9 65 25 120
65 119 65 119 100 0 31 -1 32 -22 21 -21 -11 -22 -11 -9 4 12 16 -1 17 -183
17 -137 0 -196 -3 -196 -11z"/>
<path d="M1195 1956 c2 -38 -1 -45 -19 -51 -14 -4 -17 -8 -8 -12 24 -10 51 26
48 65 -1 19 -7 37 -12 39 -7 2 -10 -13 -9 -41z"/>
<path d="M787 1923 c-6 -6 157 -103 173 -103 4 0 13 -7 20 -15 18 -22 32 -18
20 5 -6 11 -14 20 -19 20 -4 0 -46 22 -92 50 -88 52 -92 54 -102 43z"/>
<path d="M590 1701 c0 -67 4 -121 8 -121 13 0 15 227 3 235 -8 4 -11 -33 -11
-114z"/>
<path d="M1775 858 c-30 -16 -30 -17 -9 -33 18 -14 17 -14 -8 -4 -23 10 -34 8
-80 -18 -39 -23 -53 -37 -55 -54 -6 -92 -6 -127 1 -137 4 -7 3 -12 -1 -12 -5
0 -7 -15 -5 -33 4 -34 15 -43 111 -94 24 -12 49 -27 56 -33 13 -11 86 23 170
80 l40 28 -2 107 c-2 119 1 113 -82 156 -25 13 -57 32 -70 42 -27 20 -38 21
-66 5z m45 -3 c0 -2 -10 -9 -22 -15 -22 -11 -22 -10 -4 4 21 17 26 19 26 11z
m35 -35 c3 -6 -1 -7 -9 -4 -18 7 -21 14 -7 14 6 0 13 -4 16 -10z m85 -50 c0
-5 -2 -10 -4 -10 -3 0 -8 5 -11 10 -3 6 -1 10 4 10 6 0 11 -4 11 -10z m-275
-10 c-3 -5 -11 -10 -16 -10 -6 0 -7 5 -4 10 3 6 11 10 16 10 6 0 7 -4 4 -10z
m270 -30 c3 -6 -1 -7 -9 -4 -18 7 -21 14 -7 14 6 0 13 -4 16 -10z m-280 -20
c-3 -5 -12 -10 -18 -10 -7 0 -6 4 3 10 19 12 23 12 15 0z m325 -11 c0 -6 -4
-7 -10 -4 -5 3 -10 11 -10 16 0 6 5 7 10 4 6 -3 10 -11 10 -16z m-5 -99 c-3
-5 -12 -10 -18 -10 -7 0 -6 4 3 10 19 12 23 12 15 0z m-35 -20 c0 -5 -5 -10
-11 -10 -5 0 -7 5 -4 10 3 6 8 10 11 10 2 0 4 -4 4 -10z m32 -32 c-7 -7 -12
-8 -12 -2 0 14 12 26 19 19 2 -3 -1 -11 -7 -17z m-312 -8 c0 -5 -2 -10 -4 -10
-3 0 -8 5 -11 10 -3 6 -1 10 4 10 6 0 11 -4 11 -10z m275 -10 c-3 -5 -11 -10
-16 -10 -6 0 -7 5 -4 10 3 6 11 10 16 10 6 0 7 -4 4 -10z m-121 -28 c2 -4 -4
-8 -14 -8 -10 0 -16 4 -14 8 3 4 9 8 14 8 5 0 11 -4 14 -8z m-44 -22 c0 -5 -4
-10 -10 -10 -5 0 -10 5 -10 10 0 6 5 10 10 10 6 0 10 -4 10 -10z m35 -28 c-3
-3 -11 0 -18 7 -9 10 -8 11 6 5 10 -3 15 -9 12 -12z"/>
</g>
</svg>
