<?xml version="1.0" standalone="no"?>
<!DOCTYPE svg PUBLIC "-//W3C//DTD SVG 20010904//EN"
 "http://www.w3.org/TR/2001/REC-SVG-20010904/DTD/svg10.dtd">
<svg version="1.0" xmlns="http://www.w3.org/2000/svg"
 width="200.000000pt" height="200.000000pt" viewBox="0 0 200.000000 200.000000"
 preserveAspectRatio="xMidYMid meet">
<metadata>
Created by potrace 1.16, written by Peter Selinger 2001-2019
</metadata>
<g transform="translate(0.000000,200.000000) scale(0.100000,-0.100000)"
fill="#000000" stroke="none">
<path d="M1 1718 c1 -204 4 -277 12 -260 10 22 37 31 37 12 0 -6 -6 -9 -12 -8
-18 4 -24 -122 -6 -133 7 -5 8 -9 2 -9 -14 0 -18 -77 -4 -85 8 -5 7 -11 -1
-21 -10 -12 -14 -12 -20 -2 -5 7 -8 -84 -8 -202 1 -118 3 -207 6 -198 4 14 8
15 29 6 24 -11 33 -28 14 -28 -5 0 -10 5 -10 10 0 6 -5 10 -11 10 -6 0 -9 -7
-6 -15 4 -8 2 -17 -3 -20 -4 -3 -10 1 -13 7 -3 7 -5 -58 -6 -144 0 -115 3
-158 12 -161 9 -4 9 -6 0 -6 -10 -1 -13 -41 -13 -165 0 -122 3 -166 13 -169
10 -4 10 -6 0 -6 -9 -1 -13 -21 -13 -65 l0 -65 111 0 c85 -1 109 2 103 12 -5
9 -4 9 7 0 16 -16 334 -18 344 -3 3 6 11 10 16 10 6 0 8 -4 4 -9 -3 -6 105
-10 285 -9 l291 1 -38 24 c-21 14 -30 22 -21 19 10 -3 18 2 21 12 4 13 5 12 6
-4 2 -38 88 -74 106 -44 3 6 12 10 18 10 8 0 7 -3 -2 -9 -8 -5 52 -9 150 -9
103 0 156 3 142 9 -13 4 -23 13 -23 20 0 6 -7 9 -15 5 -8 -3 -15 -2 -15 3 0 5
9 11 20 14 12 3 20 0 20 -8 0 -23 46 -44 97 -43 26 0 42 3 35 5 -9 4 -6 11 9
24 24 21 39 24 39 9 0 -6 -6 -9 -12 -8 -7 2 -13 -4 -13 -12 0 -13 25 -15 157
-17 l158 -2 -1 82 c0 45 -3 76 -6 70 -8 -21 -22 -15 -16 7 3 11 9 17 14 14 5
-3 9 21 9 53 0 41 -3 54 -10 43 -8 -12 -10 -10 -10 8 0 13 4 20 10 17 6 -3 10
1 10 10 0 9 -4 14 -9 11 -5 -3 -11 3 -14 14 -6 22 8 28 16 8 3 -7 6 13 6 44 1
46 -2 56 -13 52 -11 -4 -13 0 -9 15 3 11 9 18 14 15 6 -3 8 59 7 153 -2 120
-6 157 -15 155 -7 -1 -13 3 -13 9 0 6 7 9 15 5 12 -4 15 3 15 30 0 19 -4 33
-9 30 -5 -3 -11 3 -14 14 -6 22 8 28 16 8 3 -7 6 13 6 45 1 36 -3 56 -9 52 -5
-3 -10 1 -10 9 0 8 -8 17 -17 19 -17 4 -17 5 0 6 10 1 17 9 17 22 0 11 5 17
10 14 6 -4 10 15 10 50 0 35 -4 54 -10 50 -5 -3 -10 1 -10 10 0 9 5 13 10 10
6 -4 10 8 10 29 0 27 -3 34 -15 30 -8 -4 -15 -1 -15 5 0 6 6 10 13 9 9 -2 12
26 12 117 0 103 -2 120 -16 119 -9 -1 -16 5 -16 12 0 9 5 10 19 3 16 -9 18 -6
18 25 0 27 -4 34 -14 30 -11 -4 -13 0 -9 15 3 11 9 18 14 15 5 -3 9 21 8 53 0
32 -3 52 -6 46 -8 -21 -22 -15 -16 7 3 11 9 17 14 14 5 -3 9 2 9 11 0 9 -4 13
-10 10 -5 -3 -10 -1 -10 6 0 6 -8 18 -17 25 -17 13 -17 14 2 7 11 -3 23 -11
27 -17 4 -6 8 15 8 47 0 32 -4 56 -9 53 -5 -3 -11 3 -14 14 -6 22 8 28 16 8 3
-7 6 24 6 70 l1 82 -37 -1 c-31 0 -34 -2 -18 -9 11 -5 14 -9 7 -9 -7 -1 -16
-10 -20 -21 -5 -14 -11 -17 -22 -10 -10 7 -11 10 -2 10 6 0 12 9 12 20 0 18
-7 19 -117 17 -97 -2 -118 -5 -118 -17 0 -8 6 -14 13 -12 6 1 12 -2 12 -8 0
-15 -16 -12 -34 6 -9 8 -22 12 -28 9 -7 -4 -4 1 6 9 19 15 19 16 -10 14 -16
-1 -32 -7 -36 -13 -5 -6 -8 -6 -8 2 0 9 -52 12 -200 11 l-200 -1 3 -36 c2 -26
7 -36 19 -35 10 1 14 -4 11 -12 -4 -11 -9 -12 -18 -4 -16 13 -75 -13 -75 -32
0 -6 -3 -8 -7 -5 -3 4 -35 -9 -71 -29 -64 -36 -65 -36 -95 -19 -24 15 -31 15
-38 4 -7 -11 -9 -9 -9 6 0 13 -13 27 -37 40 -21 11 -51 28 -68 38 l-30 19 28
-6 c16 -4 27 -2 27 4 0 5 5 10 11 10 8 0 8 -4 0 -14 -9 -11 -3 -19 34 -40 25
-15 50 -24 57 -20 6 4 8 3 5 -3 -3 -5 7 -17 23 -26 28 -17 30 -17 92 20 35 21
77 45 93 54 23 12 31 24 33 51 l3 35 -112 1 c-69 1 -118 -3 -126 -10 -9 -7
-13 -7 -13 1 0 7 -19 11 -47 11 -30 0 -43 -3 -35 -9 11 -7 11 -9 -1 -14 -9 -3
-18 0 -20 7 -6 15 -403 20 -412 5 -3 -5 2 -6 12 -3 16 6 16 5 -1 -8 -24 -19
-15 -53 12 -43 13 5 11 1 -5 -14 -27 -26 -33 -26 -31 -3 1 9 0 32 0 49 -2 28
-6 32 -26 31 -18 -2 -23 -8 -23 -26 0 -13 -5 -28 -11 -34 -7 -7 -10 0 -8 26
l3 37 -151 -2 c-97 -1 -154 -6 -158 -13 -5 -8 -8 -7 -8 2 0 6 -7 12 -15 12
-13 0 -15 -39 -14 -282z m739 257 c-7 -9 -15 -13 -17 -11 -7 7 7 26 19 26 6 0
6 -6 -2 -15z m415 5 c3 -6 -1 -7 -9 -4 -12 5 -16 -1 -17 -22 0 -16 -3 -23 -6
-16 -2 6 -11 12 -19 12 -8 0 -14 5 -14 11 0 5 4 8 9 5 5 -3 14 1 21 9 14 17
26 19 35 5z m120 1 c3 -6 -3 -9 -14 -8 -11 0 -17 5 -15 9 7 11 22 10 29 -1z
m285 -2 c0 -5 -5 -7 -10 -4 -6 3 -14 -3 -18 -15 -7 -19 -9 -19 -27 -5 -14 10
-15 13 -4 9 10 -3 19 1 22 10 7 18 37 22 37 5z m-1443 -67 c39 -23 79 -42 89
-42 13 0 15 -3 7 -11 -7 -7 -20 -4 -44 10 -73 44 -105 58 -118 53 -8 -3 -11 0
-7 6 3 6 2 13 -4 17 -5 3 -10 12 -10 18 0 8 3 9 8 1 4 -6 39 -29 79 -52z m393
43 c0 -9 -6 -12 -16 -8 -13 5 -13 7 -2 14 17 11 18 11 18 -6z m394 3 c-3 -4
-9 -8 -15 -8 -5 0 -9 4 -9 8 0 5 7 9 15 9 8 0 12 -4 9 -9z m406 2 c0 -5 -5
-10 -11 -10 -5 0 -7 5 -4 10 3 6 8 10 11 10 2 0 4 -4 4 -10z m-570 -22 c38
-22 51 -38 30 -38 -5 0 -10 5 -10 11 0 6 -6 9 -12 6 -7 -2 -12 -11 -10 -21 2
-9 -1 -16 -7 -16 -10 0 -9 25 2 36 4 4 -5 16 -20 26 -39 25 -20 22 27 -4z
m-476 6 c20 -8 21 -21 1 -21 -8 0 -16 6 -19 14 -6 15 -4 15 18 7z m1016 2 c0
-3 -4 -8 -10 -11 -5 -3 -10 -1 -10 4 0 6 5 11 10 11 6 0 10 -2 10 -4z m-330
-16 c0 -5 -2 -10 -4 -10 -3 0 -8 5 -11 10 -3 6 -1 10 4 10 6 0 11 -4 11 -10z
m-635 -10 c-3 -5 -12 -10 -18 -10 -7 0 -6 4 3 10 19 12 23 12 15 0z m330 0
c-3 -5 -11 -10 -16 -10 -6 0 -7 5 -4 10 3 6 11 10 16 10 6 0 7 -4 4 -10z m730
0 c3 -5 1 -10 -4 -10 -6 0 -11 5 -11 10 0 6 2 10 4 10 3 0 8 -4 11 -10z m258
-3 c-3 -5 -12 -6 -20 -3 -8 3 -22 2 -32 -3 -12 -7 -18 -6 -18 2 0 8 15 12 38
12 20 0 35 -3 32 -8z m357 -6 c0 -4 -6 -8 -13 -8 -8 0 -14 6 -14 13 0 7 6 10
14 7 7 -3 13 -8 13 -12z m-964 -11 c0 -13 -5 -19 -14 -15 -7 3 -16 5 -20 5 -3
0 3 7 14 15 10 8 19 15 19 15 1 0 1 -9 1 -20z m400 1 c0 -12 -6 -17 -18 -13
-18 4 -18 5 -1 18 10 7 18 14 18 14 1 0 1 -8 1 -19z m367 7 c3 -10 7 -10 20 0
14 12 16 11 14 -5 -1 -24 -44 -25 -51 0 -5 19 10 24 17 5z m-1429 -10 c-5 -8
-2 -9 10 -5 10 4 15 3 11 -4 -4 -5 -15 -7 -26 -4 -14 5 -19 1 -20 -12 0 -13
-2 -14 -6 -4 -3 8 2 20 13 28 22 16 27 17 18 1z m-99 -8 c-3 -5 -11 -10 -16
-10 -6 0 -7 5 -4 10 3 6 11 10 16 10 6 0 7 -4 4 -10z m245 -10 c0 -11 5 -20
11 -20 5 0 7 4 4 10 -3 5 0 7 9 4 12 -5 13 -9 3 -19 -8 -9 -16 -10 -24 -3 -7
5 -18 6 -25 2 -10 -6 -10 -4 0 9 8 9 11 21 7 27 -3 5 -1 10 4 10 6 0 11 -9 11
-20z m100 16 c0 -2 -9 -6 -20 -9 -11 -3 -18 -1 -14 4 5 9 34 13 34 5z m671
-13 c13 -15 12 -15 -8 -4 -24 12 -29 21 -14 21 5 0 15 -7 22 -17z m264 7 c-3
-5 -12 -10 -18 -10 -7 0 -6 4 3 10 19 12 23 12 15 0z m400 0 c-3 -5 -12 -10
-18 -10 -7 0 -6 4 3 10 19 12 23 12 15 0z m-1885 -23 c0 -1 -11 -2 -24 -2 -14
0 -22 5 -19 12 4 9 10 10 24 2 10 -5 19 -11 19 -12z m770 19 c0 -3 -4 -8 -10
-11 -5 -3 -10 -1 -10 4 0 6 5 11 10 11 6 0 10 -2 10 -4z m-171 -20 c15 -8 20
-16 12 -20 -6 -4 -11 -2 -11 4 0 7 -6 10 -12 7 -7 -2 -12 -11 -10 -21 2 -9 -1
-16 -7 -16 -10 0 -9 19 2 37 4 6 1 14 -5 16 -7 3 -8 6 -3 6 6 0 21 -6 34 -13z
m-234 -6 c3 -5 2 -10 -4 -10 -5 0 -13 5 -16 10 -3 6 -2 10 4 10 5 0 13 -4 16
-10z m360 1 c3 -5 1 -12 -5 -16 -5 -3 -10 1 -10 9 0 18 6 21 15 7z m409 -22
c-3 -5 -10 -9 -16 -9 -6 0 -8 3 -5 7 4 3 -1 12 -11 20 -15 12 -13 12 10 2 15
-7 25 -16 22 -20z m553 18 c0 -8 -6 -14 -14 -14 -17 0 -17 14 0 20 6 3 12 6
13 6 0 1 1 -5 1 -12z m143 -2 c-7 -9 -15 -13 -19 -10 -3 3 1 10 9 15 21 14 24
12 10 -5z m-556 -10 c-4 -8 -8 -15 -10 -15 -2 0 -4 7 -4 15 0 8 4 15 10 15 5
0 7 -7 4 -15z m279 3 c9 8 13 7 13 -6 0 -24 -44 -23 -50 1 -4 15 -2 16 10 6
10 -8 18 -8 27 -1z m-1330 -7 c4 0 7 -6 7 -11 0 -7 -6 -7 -20 0 -17 9 -20 8
-20 -10 0 -11 -5 -20 -11 -20 -5 0 -7 5 -4 10 3 6 2 10 -3 10 -5 0 -9 6 -9 13
0 11 24 14 60 8z m54 -13 c-3 -8 -6 -5 -6 6 -1 11 2 17 5 13 3 -3 4 -12 1 -19z
m128 12 c-3 -5 -12 -10 -18 -10 -7 0 -6 4 3 10 19 12 23 12 15 0z m360 0 c3
-5 1 -10 -4 -10 -6 0 -11 5 -11 10 0 6 2 10 4 10 3 0 8 -4 11 -10z m400 -10
c3 -5 1 -10 -4 -10 -6 0 -11 5 -11 10 0 6 2 10 4 10 3 0 8 -4 11 -10z m150 0
c3 -5 1 -10 -4 -10 -6 0 -11 5 -11 10 0 6 2 10 4 10 3 0 8 -4 11 -10z m442 -6
c13 5 14 4 3 -8 -10 -14 -15 -13 -36 1 -29 19 -32 28 -3 13 11 -7 28 -9 36 -6z
m-942 -22 c-3 -3 -11 0 -18 7 -9 10 -8 11 6 5 10 -3 15 -9 12 -12z m-535 -2
c0 -5 -2 -10 -4 -10 -3 0 -8 5 -11 10 -3 6 -1 10 4 10 6 0 11 -4 11 -10z m262
-72 c-3 -68 -2 -70 19 -65 11 3 18 3 15 0 -3 -4 0 -13 6 -22 10 -13 10 -14 -2
-3 -25 22 -40 14 -40 -22 0 -32 5 -37 65 -71 36 -20 65 -38 65 -41 0 -3 -30
11 -67 32 l-68 36 -99 -57 c-77 -44 -101 -54 -110 -44 -8 9 -8 10 1 5 7 -4 23
0 35 8 19 14 19 16 5 22 -9 3 -17 11 -17 17 0 5 8 3 18 -7 18 -15 23 -14 90
25 64 37 72 45 72 72 0 17 -8 36 -17 43 -17 13 -17 14 0 8 15 -6 17 2 17 72 0
42 3 74 7 70 4 -4 6 -39 5 -78z m83 72 c-3 -5 -10 -10 -16 -10 -5 0 -9 5 -9
10 0 6 7 10 16 10 8 0 12 -4 9 -10z m645 1 c0 -5 -13 -13 -28 -19 -22 -7 -29
-7 -29 3 0 7 8 10 18 8 9 -3 20 0 23 6 9 13 16 14 16 2z m-1300 -11 c0 -5 -2
-10 -4 -10 -3 0 -8 5 -11 10 -3 6 -1 10 4 10 6 0 11 -4 11 -10z m180 0 c0 -5
-5 -10 -11 -10 -5 0 -7 5 -4 10 3 6 8 10 11 10 2 0 4 -4 4 -10z m878 1 c11 -7
11 -9 -1 -14 -9 -3 -18 1 -21 9 -6 16 2 18 22 5z m412 -11 c24 -19 24 -19 3
-13 -17 4 -23 1 -23 -11 0 -10 -5 -13 -16 -9 -15 5 -15 7 0 15 14 8 15 13 5
24 -17 20 2 17 31 -6z m233 0 c-6 -23 15 -27 37 -7 12 10 12 9 1 -5 -7 -10
-19 -18 -26 -18 -8 0 -16 -6 -19 -12 -3 -7 -4 -5 -3 4 1 9 -7 24 -18 33 -11 9
-15 14 -8 11 6 -4 14 -2 18 4 11 18 23 11 18 -10z m171 -9 c-2 -3 -12 3 -22
13 -16 17 -16 18 5 5 12 -7 20 -15 17 -18z m-1550 5 c-10 -8 -21 -12 -24 -10
-5 6 21 24 34 24 6 0 1 -6 -10 -14z m1456 4 c0 -5 -2 -10 -4 -10 -3 0 -8 5
-11 10 -3 6 -1 10 4 10 6 0 11 -4 11 -10z m-1230 -10 c0 -5 -5 -10 -11 -10 -5
0 -7 5 -4 10 3 6 8 10 11 10 2 0 4 -4 4 -10z m245 0 c-3 -5 -11 -10 -16 -10
-6 0 -7 5 -4 10 3 6 11 10 16 10 6 0 7 -4 4 -10z m516 -20 c-3 -3 -9 -9 -12
-13 -4 -4 -6 3 -6 17 0 19 2 22 12 13 7 -7 10 -14 6 -17z m-381 10 c0 -5 -4
-10 -10 -10 -5 0 -10 5 -10 10 0 6 5 10 10 10 6 0 10 -4 10 -10z m100 0 c0 -5
-4 -10 -10 -10 -5 0 -10 5 -10 10 0 6 5 10 10 10 6 0 10 -4 10 -10z m823 -9
c4 -17 2 -18 -14 -8 -13 8 -15 13 -6 19 7 4 13 8 13 8 1 0 4 -9 7 -19z m-1668
-1 c3 -5 2 -10 -4 -10 -5 0 -13 5 -16 10 -3 6 -2 10 4 10 5 0 13 -4 16 -10z
m210 0 c3 -5 2 -10 -4 -10 -5 0 -13 5 -16 10 -3 6 -2 10 4 10 5 0 13 -4 16
-10z m261 -18 c-4 -3 -14 2 -24 12 -16 18 -16 18 6 6 13 -6 21 -14 18 -18z
m94 12 c0 -8 -5 -12 -10 -9 -6 4 -8 11 -5 16 9 14 15 11 15 -7z m303 1 c4 -8
3 -16 -1 -19 -4 -3 -9 4 -9 15 -2 23 3 25 10 4z m-906 -17 c-3 -8 -6 -5 -6 6
-1 11 2 17 5 13 3 -3 4 -12 1 -19z m-39 3 c11 -7 11 -9 -1 -14 -9 -3 -18 1
-21 9 -6 16 2 18 22 5z m142 2 c0 -1 -9 -7 -19 -12 -14 -8 -20 -7 -24 3 -4 10
2 13 19 12 13 0 24 -2 24 -3z m920 -8 c0 -2 -6 -5 -13 -8 -8 -3 -14 1 -14 8 0
7 6 11 14 8 7 -3 13 -6 13 -8z m428 1 c-2 -8 5 -21 15 -28 18 -13 17 -14 -2
-14 -11 0 -18 3 -15 7 6 10 -24 19 -42 12 -12 -4 -8 -10 15 -24 17 -10 31 -22
31 -25 0 -4 -7 -1 -15 6 -11 9 -18 10 -29 1 -11 -9 -14 -8 -12 6 0 11 -5 18
-15 17 -9 -1 -16 4 -16 11 0 7 6 11 14 8 7 -3 15 2 19 10 3 9 12 13 19 11 7
-3 16 -1 20 5 9 16 16 14 13 -3z m-891 -9 c0 -7 -9 -13 -19 -13 -18 0 -18 1
-2 13 10 7 18 13 19 13 1 0 2 -6 2 -13z m88 3 c3 -5 2 -10 -4 -10 -5 0 -13 5
-16 10 -3 6 -2 10 4 10 5 0 13 -4 16 -10z m-330 -10 c3 -6 -1 -7 -9 -4 -18 7
-21 14 -7 14 6 0 13 -4 16 -10z m-310 -10 c3 -5 2 -10 -4 -10 -5 0 -13 5 -16
10 -3 6 -2 10 4 10 5 0 13 -4 16 -10z m675 0 c0 -5 -2 -10 -4 -10 -3 0 -8 5
-11 10 -3 6 -1 10 4 10 6 0 11 -4 11 -10z m300 0 c0 -5 -2 -10 -4 -10 -3 0 -8
5 -11 10 -3 6 -1 10 4 10 6 0 11 -4 11 -10z m86 -4 c19 -14 19 -14 -1 -13 -14
1 -20 -4 -19 -16 2 -14 -1 -15 -12 -6 -10 8 -18 8 -27 1 -10 -8 -13 -6 -13 8
0 13 7 18 21 17 11 -1 19 3 18 11 -4 16 9 15 33 -2z m724 -1 c0 -2 -6 -5 -13
-8 -8 -3 -14 1 -14 8 0 7 6 11 14 8 7 -3 13 -6 13 -8z m-1440 -5 c0 -5 -2 -10
-4 -10 -3 0 -8 5 -11 10 -3 6 -1 10 4 10 6 0 11 -4 11 -10z m150 0 c0 -5 -5
-10 -11 -10 -5 0 -7 5 -4 10 3 6 8 10 11 10 2 0 4 -4 4 -10z m-255 -10 c-3 -5
-11 -10 -16 -10 -6 0 -7 5 -4 10 3 6 11 10 16 10 6 0 7 -4 4 -10z m375 0 c22
14 26 12 26 -10 0 -11 -4 -20 -8 -20 -4 0 -8 5 -8 10 0 7 -6 7 -20 0 -17 -9
-20 -8 -20 12 0 14 3 19 8 11 5 -8 13 -9 22 -3z m285 -9 c3 -5 1 -12 -5 -16
-5 -3 -10 1 -10 9 0 18 6 21 15 7z m408 -18 c-18 -7 -16 -31 2 -35 12 -2 11
-6 -6 -16 -19 -12 -21 -12 -16 2 4 10 1 19 -8 23 -13 5 -13 7 2 19 10 7 23 13
28 13 6 0 4 -3 -2 -6z m259 -10 c8 3 15 -1 15 -8 0 -7 -8 -10 -20 -7 -17 4
-19 1 -15 -16 7 -26 2 -28 -17 -8 -12 12 -12 15 0 20 9 3 12 12 9 23 -5 14 -4
15 4 4 6 -8 16 -11 24 -8z m132 3 c-19 -14 -19 -15 4 -23 22 -8 22 -9 -9 -27
-17 -10 -33 -16 -35 -13 -3 3 4 8 15 12 25 8 27 23 6 31 -14 6 -13 8 2 20 10
7 22 14 27 14 6 0 1 -6 -10 -14z m-1678 -8 c4 -6 3 -8 -4 -4 -6 3 -13 2 -17
-4 -3 -5 -12 -10 -18 -10 -7 0 -3 7 7 15 24 18 23 18 32 3z m754 2 c0 -5 -4
-10 -10 -10 -5 0 -10 5 -10 10 0 6 5 10 10 10 6 0 10 -4 10 -10z m100 -2 c0
-6 -3 -8 -7 -5 -3 4 -13 1 -22 -6 -14 -11 -14 -10 -2 6 15 20 31 22 31 5z
m303 0 c-2 -5 -11 -8 -20 -8 -10 0 -14 -6 -10 -20 3 -11 1 -20 -4 -20 -5 0 -9
5 -9 11 0 6 -8 8 -17 5 -17 -6 -17 -5 0 8 9 7 17 17 17 22 0 5 11 9 24 9 13 0
22 -3 19 -7z m-1026 -30 c-3 -7 -5 -2 -5 12 0 14 2 19 5 13 2 -7 2 -19 0 -25z
m88 22 c3 -5 2 -10 -4 -10 -5 0 -13 5 -16 10 -3 6 -2 10 4 10 5 0 13 -4 16
-10z m-180 -10 c3 -6 -1 -7 -9 -4 -18 7 -21 14 -7 14 6 0 13 -4 16 -10z m285
1 c0 -5 -9 -11 -21 -14 -12 -3 -19 -9 -16 -14 3 -5 -3 -9 -14 -9 -25 0 -25 0
14 25 37 24 37 24 37 12z m157 1 c9 -6 8 -11 -5 -19 -15 -9 -18 -7 -18 8 0 21
5 23 23 11z m402 -18 c-16 -20 -28 -17 -22 5 3 12 11 17 19 14 11 -4 12 -9 3
-19z m-939 11 c0 -2 -7 -8 -15 -15 -12 -10 -15 -10 -15 2 0 8 7 15 15 15 8 0
15 -1 15 -2z m134 -17 c-3 -4 -9 -8 -15 -8 -5 0 -9 4 -9 8 0 5 7 9 15 9 8 0
12 -4 9 -9z m-50 -34 c-14 -11 -15 -14 -3 -11 9 3 16 0 16 -7 0 -6 -9 -12 -19
-12 -10 0 -18 5 -18 10 0 13 32 47 38 41 3 -3 -3 -12 -14 -21z m1562 12 c18 5
18 5 0 -6 -15 -10 -21 -9 -35 6 -14 16 -14 17 0 6 9 -7 25 -10 35 -6z m-1766
-6 c0 -5 -2 -10 -4 -10 -3 0 -8 5 -11 10 -3 6 -1 10 4 10 6 0 11 -4 11 -10z
m745 -8 c-3 -3 -11 0 -18 7 -9 10 -8 11 6 5 10 -3 15 -9 12 -12z m245 8 c8 -5
11 -10 5 -10 -5 0 -17 5 -25 10 -8 5 -10 10 -5 10 6 0 17 -5 25 -10z m376 -2
c-10 -6 -22 -6 -26 -2 -5 5 3 10 18 11 22 1 24 0 8 -9z m-966 -2 c0 -3 -4 -8
-10 -11 -5 -3 -10 -1 -10 4 0 6 5 11 10 11 6 0 10 -2 10 -4z m390 -6 c-13 -9
-13 -11 0 -20 8 -5 11 -10 5 -10 -5 0 -17 5 -25 10 -13 9 -13 11 0 20 8 5 20
10 25 10 6 0 3 -5 -5 -10z m406 -12 c0 -13 -4 -14 -13 -6 -9 7 -17 7 -26 0
-10 -8 -13 -6 -13 7 0 13 8 18 26 17 17 -1 26 -7 26 -18z m400 0 c0 -14 -3
-15 -15 -5 -11 9 -15 9 -18 0 -7 -19 -19 -15 -19 5 0 14 7 19 26 18 17 -1 26
-7 26 -18z m-275 -1 c-6 -8 -8 -17 -4 -21 4 -4 0 -4 -10 0 -9 3 -17 10 -17 16
0 5 4 7 9 3 5 -3 12 -1 16 5 3 5 9 10 12 10 3 0 0 -6 -6 -13z m-1257 -9 c-3
-4 -9 -8 -15 -8 -5 0 -9 4 -9 8 0 5 7 9 15 9 8 0 12 -4 9 -9z m296 2 c0 -5 -5
-10 -11 -10 -5 0 -7 5 -4 10 3 6 8 10 11 10 2 0 4 -4 4 -10z m554 -2 c-3 -4
-9 -8 -15 -8 -5 0 -9 4 -9 8 0 5 7 9 15 9 8 0 12 -4 9 -9z m136 -3 c0 -2 -6
-5 -13 -8 -8 -3 -14 1 -14 8 0 7 6 11 14 8 7 -3 13 -6 13 -8z m667 1 c0 -8 -6
-12 -15 -9 -11 5 -11 7 0 14 7 5 13 9 14 9 0 0 1 -6 1 -14z m-1597 -6 c0 -5
-4 -10 -10 -10 -5 0 -10 5 -10 10 0 6 5 10 10 10 6 0 10 -4 10 -10z m186 -25
c-7 -29 -25 -34 -23 -6 0 11 5 17 9 15 4 -3 8 3 8 12 0 10 3 15 6 11 4 -3 4
-18 0 -32z m1559 25 c3 -6 -1 -7 -9 -4 -18 7 -21 14 -7 14 6 0 13 -4 16 -10z
m-1780 -21 c-10 -15 -25 -10 -19 6 4 8 10 12 15 9 5 -3 7 -10 4 -15z m510 12
c3 -5 2 -12 -3 -15 -5 -3 -9 1 -9 9 0 17 3 19 12 6z m255 -16 c0 -2 -6 -5 -13
-8 -8 -3 -14 1 -14 8 0 7 6 11 14 8 7 -3 13 -6 13 -8z m97 -22 c-3 -10 -5 -4
-5 12 0 17 2 24 5 18 2 -7 2 -21 0 -30z m573 11 c0 -2 -9 0 -20 6 -11 6 -20
13 -20 16 0 2 9 0 20 -6 11 -6 20 -13 20 -16z m400 0 c0 -2 -9 0 -20 6 -11 6
-20 13 -20 16 0 2 9 0 20 -6 11 -6 20 -13 20 -16z m-1355 -2 c-3 -3 -11 0 -18
7 -9 10 -8 11 6 5 10 -3 15 -9 12 -12z m431 -1 c0 -15 -3 -17 -18 -8 -13 8
-14 13 -5 19 18 12 23 10 23 -11z m119 9 c3 -6 -1 -7 -9 -4 -18 7 -21 14 -7
14 6 0 13 -4 16 -10z m135 2 c0 -5 -7 -9 -15 -9 -8 0 -12 4 -9 9 3 4 9 8 15 8
5 0 9 -4 9 -8z m146 -14 c0 -13 -4 -14 -13 -6 -9 7 -18 7 -30 -3 -16 -13 -17
-12 -5 3 10 13 10 17 0 21 -7 2 1 4 17 3 22 -1 31 -6 31 -18z m401 -1 c2 -16
0 -17 -14 -5 -13 10 -17 10 -20 1 -7 -19 -19 -15 -19 5 0 26 52 25 53 -1z
m-1039 -10 c8 -6 17 -6 26 2 10 9 15 8 19 -3 3 -8 -1 -13 -11 -12 -10 1 -16
-6 -16 -16 1 -10 -2 -18 -7 -18 -5 0 -9 9 -9 20 0 11 -6 20 -14 20 -7 0 -19 7
-26 15 -11 13 -10 14 6 9 10 -4 25 -11 32 -17z m-553 3 c3 -6 -1 -7 -9 -4 -18
7 -21 14 -7 14 6 0 13 -4 16 -10z m390 0 c3 -5 1 -10 -4 -10 -6 0 -11 5 -11
10 0 6 2 10 4 10 3 0 8 -4 11 -10z m593 -1 c13 7 19 6 19 -2 0 -8 -15 -12 -37
-12 -22 0 -37 4 -37 12 0 8 6 9 19 2 12 -6 24 -6 36 0z m390 -14 c2 -2 -7 -2
-21 -1 -13 0 -24 6 -24 13 0 9 6 9 21 1 12 -6 22 -12 24 -13z m-1325 -9 c3 -6
-6 -11 -18 -11 -12 0 -21 5 -18 11 2 6 10 11 18 11 8 0 16 -5 18 -11z m444
-10 c-17 -13 -17 -14 0 -21 10 -5 23 -7 28 -6 6 1 1 -6 -10 -14 -18 -14 -20
-14 -27 5 -4 11 -13 20 -20 20 -6 0 -3 7 8 15 10 8 24 14 29 14 6 0 2 -6 -8
-13z m813 -1 c-9 -11 -10 -18 -1 -29 9 -10 8 -15 -4 -20 -10 -4 -15 1 -15 14
0 11 -6 20 -12 20 -7 1 -2 7 12 15 32 18 35 18 20 0z m-1425 -23 c-8 -8 -25
10 -19 20 4 6 9 5 15 -3 4 -7 6 -15 4 -17z m781 12 c10 -8 14 -13 8 -10 -14 7
-37 -18 -26 -29 4 -4 -3 -2 -15 4 -25 13 -30 22 -10 19 6 -2 11 5 11 15 -2 21
6 22 32 1z m249 -24 c8 0 16 -3 18 -7 3 -5 -5 -8 -18 -8 -13 0 -21 2 -19 4 7
7 -18 31 -27 25 -5 -3 -9 0 -9 6 0 7 7 10 15 6 8 -3 16 0 16 7 1 7 4 2 6 -10
2 -13 11 -23 18 -23z m165 19 c0 -5 -6 -9 -14 -9 -8 0 -16 -7 -18 -16 -2 -12
-6 -13 -18 -2 -8 7 -13 12 -11 11 8 -5 31 19 26 27 -3 5 4 6 15 3 11 -3 20 -9
20 -14z m305 11 c3 -5 -1 -10 -10 -10 -9 0 -13 5 -10 10 3 6 8 10 10 10 2 0 7
-4 10 -10z m70 -26 c1 -13 0 -24 -1 -24 -1 0 -9 3 -18 6 -14 5 -14 8 -1 21 9
8 12 20 8 26 -3 7 -2 8 3 4 5 -5 9 -20 9 -33z m249 25 c-4 -7 3 -19 15 -28
l21 -16 -24 0 c-13 0 -22 3 -20 6 2 4 -3 12 -12 19 -12 11 -12 15 -2 21 19 12
30 11 22 -2z m-1704 -3 c0 -3 -4 -8 -10 -11 -5 -3 -10 -1 -10 4 0 6 5 11 10
11 6 0 10 -2 10 -4z m170 -6 c-20 -13 -33 -13 -25 0 3 6 14 10 23 10 15 0 15
-2 2 -10z m100 6 c0 -2 -7 -7 -16 -10 -8 -3 -12 -2 -9 4 6 10 25 14 25 6z
m-154 -19 c8 3 14 1 14 -5 0 -5 -9 -12 -20 -15 -16 -4 -20 0 -19 16 0 12 3 17
5 10 3 -7 12 -9 20 -6z m114 -7 c0 -5 -2 -10 -4 -10 -3 0 -8 5 -11 10 -3 6 -1
10 4 10 6 0 11 -4 11 -10z m100 -16 c0 -2 -9 0 -20 6 -11 6 -20 13 -20 16 0 2
9 0 20 -6 11 -6 20 -13 20 -16z m-159 -12 c-7 -2 -18 1 -23 6 -8 8 -4 9 13 5
13 -4 18 -8 10 -11z m229 14 c0 -3 -4 -8 -10 -11 -5 -3 -10 -1 -10 4 0 6 5 11
10 11 6 0 10 -2 10 -4z m-511 -19 c8 -10 7 -14 -4 -14 -8 0 -15 6 -15 14 0 7
2 13 4 13 2 0 9 -6 15 -13z m701 8 c0 -2 -7 -8 -15 -15 -12 -10 -15 -10 -15 2
0 8 7 15 15 15 8 0 15 -1 15 -2z m204 -7 c-4 -6 1 -17 10 -23 15 -12 15 -13 0
-19 -10 -4 -14 -12 -10 -22 5 -14 4 -15 -9 -4 -12 10 -19 10 -27 2 -7 -7 -17
-12 -22 -12 -6 0 -3 7 7 14 18 14 17 15 -4 21 -16 5 -18 9 -8 15 8 6 17 2 25
-8 10 -13 15 -14 24 -5 14 13 4 37 -11 28 -5 -4 -9 -2 -9 4 0 5 6 12 13 14 21
9 28 7 21 -5z m181 -6 c-3 -3 -11 0 -18 7 -9 10 -8 11 6 5 10 -3 15 -9 12 -12z
m217 4 c-3 -5 3 -15 12 -21 15 -12 15 -13 0 -19 -13 -5 -14 -9 -4 -21 15 -18
-1 -20 -18 -3 -8 8 -15 8 -29 -3 -16 -13 -17 -12 -5 3 11 14 10 17 -8 23 -20
6 -20 8 -4 19 9 7 14 17 11 23 -4 6 5 10 22 9 16 -1 27 -5 23 -10z m400 0 c-3
-5 3 -15 12 -21 14 -11 15 -13 1 -18 -9 -4 -12 -13 -8 -24 6 -16 5 -16 -10 -4
-13 10 -20 11 -31 2 -12 -10 -13 -8 -9 8 4 16 1 21 -13 21 -17 0 -17 1 1 13
10 8 15 18 12 24 -4 6 5 10 22 9 16 -1 27 -5 23 -10z m-1222 0 c0 -2 -7 -7
-16 -10 -8 -3 -12 -2 -9 4 6 10 25 14 25 6z m-361 -15 c11 -7 9 -11 -8 -21
-19 -10 -20 -14 -9 -27 12 -15 11 -15 -9 -3 l-22 14 21 14 c16 12 17 16 7 23
-8 5 -9 9 -4 9 6 0 16 -4 24 -9z m396 -19 c-8 -2 -15 -10 -15 -17 0 -9 -6 -12
-16 -8 -15 5 -15 7 -1 15 9 5 14 15 10 24 -5 14 -3 14 16 2 17 -10 18 -14 6
-16z m-75 8 c0 -5 -4 -10 -10 -10 -5 0 -10 5 -10 10 0 6 5 10 10 10 6 0 10 -4
10 -10z m242 -51 c-1 -27 2 -38 9 -33 6 3 4 -5 -6 -19 -21 -33 -204 -142 -216
-130 -6 6 -4 10 5 10 8 0 55 24 105 54 l91 53 0 60 c0 33 3 56 7 53 3 -4 6
-25 5 -48z m-402 11 c-20 -13 -33 -13 -25 0 3 6 14 10 23 10 15 0 15 -2 2 -10z
m883 -19 c-3 -13 -10 -18 -21 -13 -10 4 -12 7 -4 10 7 2 12 10 12 18 0 9 4 13
9 10 5 -3 7 -15 4 -25z m-718 9 c-3 -5 -11 -10 -16 -10 -6 0 -7 5 -4 10 3 6
11 10 16 10 6 0 7 -4 4 -10z m187 -5 c7 4 4 -1 -7 -10 -11 -9 -19 -24 -18 -33
1 -9 0 -11 -3 -4 -3 6 -12 12 -19 12 -8 0 -16 4 -19 9 -4 5 4 7 16 3 18 -4 20
-2 15 17 -4 18 -3 20 8 11 8 -7 20 -9 27 -5z m125 -4 c-1 -11 -6 -17 -14 -14
-10 4 -11 9 -2 19 15 19 18 18 16 -5z m258 5 c12 -12 12 -15 0 -20 -8 -3 -13
-11 -11 -18 1 -7 1 -10 -1 -5 -3 4 -11 7 -18 7 -8 0 -17 5 -21 12 -4 7 -3 8 5
4 7 -4 19 -5 28 -2 12 5 13 9 3 21 -16 19 -3 20 15 1z m395 4 c0 -5 6 -10 14
-10 8 0 17 -4 20 -9 4 -5 -3 -7 -14 -4 -15 4 -20 0 -20 -16 0 -18 -2 -20 -14
-9 -12 11 -12 14 1 21 11 7 12 12 2 23 -8 10 -8 14 0 14 6 0 11 -4 11 -10z
m153 -10 c-4 -16 -9 -18 -24 -9 -22 11 -26 21 -5 13 8 -3 17 -1 21 5 10 17 14
13 8 -9z m287 -15 c0 -2 -10 -1 -22 3 -18 4 -20 2 -16 -16 5 -18 3 -19 -13 -9
-15 9 -16 13 -4 20 8 4 11 15 8 24 -5 13 -3 13 20 -2 15 -9 27 -19 27 -20z
m-1610 15 c0 -5 -4 -10 -10 -10 -5 0 -10 5 -10 10 0 6 5 10 10 10 6 0 10 -4
10 -10z m100 0 c0 -5 -4 -10 -10 -10 -5 0 -10 5 -10 10 0 6 5 10 10 10 6 0 10
-4 10 -10z m-341 -18 c-13 -20 -46 -24 -46 -5 0 7 4 10 9 7 4 -3 16 0 25 5 24
14 25 14 12 -7z m211 -25 c0 -5 -7 -4 -15 3 -8 6 -18 9 -23 6 -5 -3 -9 1 -9 8
0 11 5 12 24 3 13 -5 23 -15 23 -20z m70 23 c13 -8 13 -10 -2 -10 -9 0 -20 5
-23 10 -8 13 5 13 25 0z m100 -5 c0 -2 -6 -5 -13 -8 -8 -3 -14 1 -14 8 0 7 6
11 14 8 7 -3 13 -6 13 -8z m415 5 c-3 -5 -12 -10 -18 -10 -7 0 -6 4 3 10 19
12 23 12 15 0z m385 -10 c-24 -19 -40 -25 -40 -15 0 5 51 34 60 34 3 0 -6 -8
-20 -19z m417 5 c0 -8 -4 -12 -9 -9 -5 3 -16 0 -24 -7 -8 -6 -17 -9 -20 -6 -4
4 20 21 52 37 0 0 1 -7 1 -15z m-837 -15 c0 -5 -5 -10 -11 -10 -5 0 -7 5 -4
10 3 6 8 10 11 10 2 0 4 -4 4 -10z m-420 -10 c0 -5 -5 -10 -11 -10 -5 0 -7 5
-4 10 3 6 8 10 11 10 2 0 4 -4 4 -10z m-30 -21 c0 -12 -17 -11 -25 1 -5 7 -11
8 -19 1 -8 -7 -17 -6 -26 1 -12 8 -12 9 2 4 10 -3 20 -1 23 3 6 11 45 2 45
-10z m141 4 c13 -15 12 -15 -8 -4 -24 12 -29 21 -14 21 5 0 15 -7 22 -17z
m659 -5 c0 -6 -6 -5 -15 2 -8 7 -15 14 -15 16 0 2 7 1 15 -2 8 -4 15 -11 15
-16z m-1008 0 c-8 -8 -8 -15 -1 -24 8 -9 1 -9 -20 2 -35 18 -40 24 -12 17 10
-3 22 0 25 6 4 6 10 11 14 11 3 0 1 -5 -6 -12z m608 2 c0 -5 -2 -10 -4 -10 -3
0 -8 5 -11 10 -3 6 -1 10 4 10 6 0 11 -4 11 -10z m155 0 c4 -6 15 -8 26 -5 14
5 17 3 13 -9 -4 -10 -1 -16 7 -16 7 0 9 -3 6 -6 -4 -4 -13 -1 -22 6 -12 10
-18 10 -30 0 -9 -7 -18 -10 -22 -7 -3 4 2 9 11 13 15 6 15 7 -1 20 -10 7 -13
14 -6 14 6 0 15 -5 18 -10z m205 6 c0 -3 -4 -8 -10 -11 -5 -3 -10 -1 -10 4 0
6 5 11 10 11 6 0 10 -2 10 -4z m224 -7 c11 9 14 6 14 -14 0 -20 -3 -23 -14
-14 -11 9 -18 8 -31 -2 -15 -11 -16 -11 -6 1 10 11 9 16 -5 27 -15 13 -14 13
6 3 17 -8 27 -8 36 -1z m176 1 c0 -5 -4 -10 -10 -10 -5 0 -10 5 -10 10 0 6 5
10 10 10 6 0 10 -4 10 -10z m227 -6 c10 4 14 4 10 0 -4 -4 -2 -13 4 -21 14
-16 -2 -18 -19 -1 -8 8 -15 8 -29 -3 -16 -12 -17 -12 -6 2 10 12 10 18 0 29
-10 12 -9 12 5 1 10 -7 26 -10 35 -7z m-1475 -31 c6 -8 4 -10 -10 -6 -14 3
-18 11 -14 26 4 15 7 17 10 7 3 -8 9 -20 14 -27z m281 16 c4 -16 3 -18 -8 -9
-8 7 -20 9 -27 5 -7 -4 -4 1 6 9 24 20 23 20 29 -5z m-154 -3 c10 -12 8 -13
-8 -9 -12 3 -21 9 -21 14 0 14 16 11 29 -5z m-363 -33 c-11 -11 -17 4 -9 23 7
18 8 18 11 1 2 -10 1 -21 -2 -24z m774 27 c0 -5 -4 -10 -10 -10 -5 0 -10 5
-10 10 0 6 5 10 10 10 6 0 10 -4 10 -10z m260 5 c0 -2 -10 -10 -22 -16 -21
-11 -22 -11 -9 4 13 16 31 23 31 12z m140 -4 c0 -5 -7 -11 -14 -14 -10 -4 -13
-1 -9 9 6 15 23 19 23 5z m263 -5 c4 -10 1 -13 -9 -9 -7 3 -14 9 -14 14 0 14
17 10 23 -5z m142 4 c3 -5 2 -10 -4 -10 -5 0 -13 5 -16 10 -3 6 -2 10 4 10 5
0 13 -4 16 -10z m255 0 c0 -5 -4 -10 -10 -10 -5 0 -10 5 -10 10 0 6 5 10 10
10 6 0 10 -4 10 -10z m-1510 -4 c0 -3 -4 -8 -10 -11 -5 -3 -10 -1 -10 4 0 6 5
11 10 11 6 0 10 -2 10 -4z m130 -6 c0 -5 -5 -10 -11 -10 -5 0 -7 5 -4 10 3 6
8 10 11 10 2 0 4 -4 4 -10z m-410 -4 c0 -2 -8 -10 -17 -17 -16 -13 -17 -12 -4
4 13 16 21 21 21 13z m386 -17 c19 -11 34 -23 34 -25 0 -5 -44 17 -70 35 -28
20 3 11 36 -10z m-261 1 c3 -5 2 -10 -4 -10 -5 0 -13 5 -16 10 -3 6 -2 10 4
10 5 0 13 -4 16 -10z m119 -2 c-3 -4 -9 -8 -15 -8 -5 0 -9 4 -9 8 0 5 7 9 15
9 8 0 12 -4 9 -9z m419 1 c6 6 16 11 22 11 5 0 2 -5 -8 -11 -15 -9 -16 -13 -5
-27 11 -15 11 -15 -3 -4 -9 7 -25 9 -35 6 -11 -4 -16 -4 -12 1 4 4 2 15 -5 23
-10 13 -9 14 12 3 17 -9 26 -10 34 -2z m131 -6 c4 -11 1 -11 -14 -3 -24 13
-25 17 -5 17 8 0 16 -6 19 -14z m141 7 c-3 -5 -12 -10 -18 -10 -7 0 -6 4 3 10
19 12 23 12 15 0z m128 -1 c18 18 28 12 15 -8 -7 -11 -16 -17 -20 -14 -5 2
-16 -1 -25 -9 -13 -10 -15 -10 -9 0 4 7 2 20 -6 29 -12 15 -11 15 11 4 17 -9
26 -10 34 -2z m127 1 c0 -5 -5 -10 -11 -10 -5 0 -7 5 -4 10 3 6 8 10 11 10 2
0 4 -4 4 -10z m150 4 c0 -2 -9 -8 -20 -14 -15 -8 -18 -8 -14 3 4 11 34 21 34
11z m136 -9 c-11 -8 -14 -15 -8 -15 7 0 12 -5 12 -11 0 -8 -5 -8 -15 1 -12 10
-18 10 -30 0 -9 -7 -18 -10 -22 -6 -3 3 -1 6 5 6 7 0 12 7 12 15 0 8 6 12 14
9 8 -3 17 -1 21 5 3 6 12 11 18 11 7 0 3 -7 -7 -15z m105 -12 c-8 -15 -10 -15
-11 -2 0 17 10 32 18 25 2 -3 -1 -13 -7 -23z m-1671 -7 c-7 -7 -13 -7 -20 0
-6 6 -3 10 10 10 13 0 16 -4 10 -10z m170 -7 c0 -5 -4 -9 -10 -9 -5 0 -10 7
-10 16 0 8 5 12 10 9 6 -3 10 -10 10 -16z m820 16 c0 -2 -11 -12 -24 -20 -20
-13 -29 -14 -46 -5 -12 6 -19 14 -16 17 3 3 12 0 20 -6 12 -10 20 -10 38 3 24
17 28 19 28 11z m-853 -20 c0 -8 -4 -12 -9 -9 -5 3 -6 10 -3 15 9 13 12 11 12
-6z m333 5 c0 -5 -5 -10 -11 -10 -5 0 -7 5 -4 10 3 6 8 10 11 10 2 0 4 -4 4
-10z m858 -2 c8 -8 15 -8 27 2 8 7 18 10 21 7 3 -3 -4 -10 -15 -17 -19 -10
-61 0 -61 15 0 9 16 5 28 -7z m397 2 c3 -5 1 -10 -4 -10 -6 0 -11 5 -11 10 0
6 2 10 4 10 3 0 8 -4 11 -10z m55 5 c0 -2 -10 -10 -22 -16 -21 -11 -22 -11 -9
4 13 16 31 23 31 12z m-1552 -37 c8 -10 5 -13 -13 -13 -14 0 -21 5 -18 13 3 6
9 12 13 12 4 0 12 -6 18 -12z m202 2 c0 -5 -7 -10 -15 -10 -8 0 -15 5 -15 10
0 6 7 10 15 10 8 0 15 -4 15 -10z m450 6 c0 -3 -4 -8 -10 -11 -5 -3 -10 -1
-10 4 0 6 5 11 10 11 6 0 10 -2 10 -4z m-805 -16 c3 -5 2 -10 -4 -10 -5 0 -13
5 -16 10 -3 6 -2 10 4 10 5 0 13 -4 16 -10z m575 -13 c0 -2 -9 -3 -20 -3 -11
0 -20 6 -20 13 0 11 5 11 20 3 11 -6 20 -12 20 -13z m200 8 c0 -2 -6 -5 -13
-8 -8 -3 -14 1 -14 8 0 7 6 11 14 8 7 -3 13 -6 13 -8z m203 3 c-2 -5 -11 -8
-19 -8 -8 0 -14 -4 -14 -10 0 -5 -5 -10 -11 -10 -8 0 -9 4 0 13 6 8 9 16 7 18
-2 2 6 4 19 4 13 0 21 -3 18 -7z m217 -5 c0 -7 7 -13 15 -13 8 0 15 -4 15 -10
0 -5 -4 -10 -9 -10 -5 0 -16 -3 -24 -6 -12 -4 -14 0 -10 15 4 15 1 21 -10 21
-9 0 -18 3 -20 8 -3 4 6 7 19 7 13 0 24 -6 24 -12z m80 7 c0 -5 -8 -10 -17
-10 -15 0 -16 2 -3 10 19 12 20 12 20 0z m91 -9 c-13 -10 -21 -23 -17 -30 4
-6 3 -11 -3 -11 -5 0 -13 5 -16 10 -4 6 -11 8 -16 5 -5 -4 -9 -4 -9 -1 0 5 70
45 80 45 3 0 -6 -8 -19 -18z m224 8 c-4 -6 2 -13 14 -16 12 -3 21 -10 21 -16
0 -6 -3 -7 -7 -4 -3 4 -12 2 -20 -4 -10 -9 -13 -7 -13 10 0 11 -6 21 -12 21
-9 0 -8 4 2 10 19 13 23 12 15 -1z m90 1 c3 -5 1 -10 -4 -10 -6 0 -11 5 -11
10 0 6 2 10 4 10 3 0 8 -4 11 -10z m84 -11 c-12 -9 -19 -21 -15 -28 4 -6 2
-11 -3 -11 -6 0 -11 5 -11 11 0 5 -4 7 -10 4 -5 -3 -10 -2 -10 3 0 6 7 13 16
16 8 3 13 9 11 13 -3 5 6 8 19 8 l24 0 -21 -16z m-1696 -8 c2 -10 1 -25 -4
-32 -6 -10 -9 -4 -9 19 0 36 5 42 13 13z m332 -1 c3 -5 2 -10 -4 -10 -5 0 -13
5 -16 10 -3 6 -2 10 4 10 5 0 13 -4 16 -10z m400 0 c3 -5 1 -10 -4 -10 -6 0
-11 5 -11 10 0 6 2 10 4 10 3 0 8 -4 11 -10z m40 -10 c-3 -5 -12 -10 -18 -10
-7 0 -6 4 3 10 19 12 23 12 15 0z m85 -16 c0 -2 -9 0 -20 6 -11 6 -20 13 -20
16 0 2 9 0 20 -6 11 -6 20 -13 20 -16z m-1036 0 c3 -8 2 -12 -4 -9 -6 3 -10
10 -10 16 0 14 7 11 14 -7z m366 -8 c14 -18 14 -19 -8 -7 -12 7 -20 17 -16 22
3 6 7 9 8 7 1 -2 8 -12 16 -22z m231 1 c-5 -5 -21 -10 -37 -12 -25 -2 -26 -1
-10 10 20 15 61 16 47 2z m206 2 c-15 -9 -16 -13 -5 -27 11 -15 11 -15 -3 -4
-9 7 -23 10 -31 7 -9 -4 -15 0 -15 8 0 9 7 12 18 10 9 -3 20 0 23 6 4 6 13 11
19 11 7 0 4 -5 -6 -11z m250 -11 c-3 -8 -6 -5 -6 6 -1 11 2 17 5 13 3 -3 4
-12 1 -19z m137 8 c12 5 15 2 10 -10 -4 -11 -1 -16 10 -16 22 0 20 -17 -3 -23
-13 -3 -18 0 -15 8 8 20 -15 28 -33 13 -13 -10 -15 -10 -9 0 4 7 2 20 -6 29
-12 15 -11 15 9 5 12 -7 29 -9 37 -6z m-207 -2 c-3 -3 -12 -4 -19 -1 -8 3 -5
6 6 6 11 1 17 -2 13 -5z m408 -4 c-3 -5 -12 -7 -20 -3 -21 7 -19 13 6 13 11 0
18 -4 14 -10z m212 -21 c1 -19 -5 -29 -23 -38 -32 -14 -35 -14 -28 4 4 9 0 15
-10 15 -9 0 -16 5 -16 10 0 6 7 10 16 10 9 0 14 6 11 14 -4 9 3 13 21 12 22
-1 27 -6 29 -27z m83 27 c0 -2 -7 -7 -16 -10 -8 -3 -12 -2 -9 4 6 10 25 14 25
6z m110 0 c0 -11 -19 -15 -25 -6 -3 5 1 10 9 10 9 0 16 -2 16 -4z m-1615 -36
c3 -5 1 -10 -4 -10 -6 0 -11 5 -11 10 0 6 2 10 4 10 3 0 8 -4 11 -10z m480 0
c3 -5 1 -10 -4 -10 -6 0 -11 5 -11 10 0 6 2 10 4 10 3 0 8 -4 11 -10z m180
-10 c3 -5 0 -7 -8 -4 -8 3 -20 -2 -27 -11 -7 -8 -18 -15 -24 -15 -11 0 34 39
46 40 4 0 10 -4 13 -10z m-728 -8 c9 -6 8 -11 -5 -19 -15 -9 -18 -7 -18 8 0
21 5 23 23 11z m139 -11 c0 -15 -3 -17 -18 -7 -17 10 -17 11 0 18 9 3 17 7 17
7 1 1 1 -7 1 -18z m-79 -53 c-2 -13 -4 -3 -4 22 0 25 2 35 4 23 2 -13 2 -33 0
-45z m533 58 c0 -2 -9 -6 -20 -9 -11 -3 -18 -1 -14 4 5 9 34 13 34 5z m470 -6
c0 -5 -7 -10 -15 -10 -8 0 -15 5 -15 10 0 6 7 10 15 10 8 0 15 -4 15 -10z
m615 0 c3 -5 1 -10 -4 -10 -6 0 -11 5 -11 10 0 6 2 10 4 10 3 0 8 -4 11 -10z
m-398 -6 c-3 -3 -12 -4 -19 -1 -8 3 -5 6 6 6 11 1 17 -2 13 -5z m-887 -14 c0
-5 -2 -10 -4 -10 -3 0 -8 5 -11 10 -3 6 -1 10 4 10 6 0 11 -4 11 -10z m257 -4
c0 -8 -6 -12 -15 -9 -11 5 -11 7 0 14 7 5 13 9 14 9 0 0 1 -6 1 -14z m220 8
c-3 -3 -12 -4 -19 -1 -8 3 -5 6 6 6 11 1 17 -2 13 -5z m64 -13 c-10 -7 -8 -11
9 -16 17 -5 19 -9 9 -15 -8 -5 -17 -3 -24 7 -7 10 -18 13 -26 9 -8 -4 -3 1 11
12 14 12 27 18 30 16 2 -3 -2 -9 -9 -13z m276 1 l23 -17 -25 0 c-14 0 -26 7
-29 18 -5 21 3 21 31 -1z m120 6 c7 18 21 15 19 -5 0 -11 6 -18 15 -17 9 1 16
-5 16 -12 0 -15 -71 17 -83 38 -5 8 0 7 11 -2 14 -11 19 -12 22 -2z m277 -3
c18 -14 19 -15 2 -15 -13 0 -17 -5 -13 -19 4 -17 2 -18 -14 -8 -12 7 -14 14
-7 18 6 4 8 14 5 23 -8 20 2 20 27 1z m140 3 c-4 -6 1 -17 11 -25 23 -16 14
-17 -19 -1 -20 9 -23 14 -15 25 14 16 33 18 23 1z m-1464 -8 c0 -5 -5 -10 -11
-10 -5 0 -7 5 -4 10 3 6 8 10 11 10 2 0 4 -4 4 -10z m158 -14 c-2 -1 -12 -8
-23 -16 -18 -14 -19 -13 -8 1 7 9 10 19 6 23 -4 4 1 4 10 0 10 -3 17 -7 15 -8z
m39 6 c9 -6 7 -11 -7 -20 -12 -7 -20 -8 -20 -2 0 5 6 10 13 10 8 0 7 4 -3 10
-8 5 -10 10 -5 10 6 0 15 -4 22 -8z m348 -2 c3 -6 -1 -7 -9 -4 -18 7 -21 14
-7 14 6 0 13 -4 16 -10z m-579 -20 c0 -11 -1 -20 -2 -20 -1 0 -9 3 -18 6 -12
5 -13 9 -3 20 17 19 23 17 23 -6z m544 10 c0 -5 -5 -10 -11 -10 -5 0 -7 5 -4
10 3 6 8 10 11 10 2 0 4 -4 4 -10z m-246 -32 c-8 -13 -21 -9 -28 8 -3 8 -2 12
4 9 6 -3 10 0 10 7 0 10 3 9 9 -2 6 -8 7 -18 5 -22z m326 26 c0 -8 -19 -13
-24 -6 -3 5 1 9 9 9 8 0 15 -2 15 -3z m285 -4 c3 -5 1 -10 -4 -10 -6 0 -11 5
-11 10 0 6 2 10 4 10 3 0 8 -4 11 -10z m-1265 -4 c0 -3 -4 -8 -10 -11 -5 -3
-10 -1 -10 4 0 6 5 11 10 11 6 0 10 -2 10 -4z m855 -16 c-3 -5 -12 -10 -18
-10 -7 0 -6 4 3 10 19 12 23 12 15 0z m450 0 c3 -5 2 -10 -4 -10 -5 0 -13 5
-16 10 -3 6 -2 10 4 10 5 0 13 -4 16 -10z m-227 -63 c45 -27 85 -54 89 -60 3
-6 6 -52 5 -104 0 -60 3 -93 10 -93 7 0 6 -5 -1 -14 -13 -16 1 -32 19 -21 5 3
7 0 4 -9 -5 -12 -10 -13 -26 -3 -16 9 -22 9 -25 0 -3 -7 -11 -13 -19 -13 -8 0
-17 -7 -20 -15 -4 -8 -10 -12 -15 -10 -5 3 -20 -2 -35 -11 -14 -10 -40 -25
-57 -34 l-32 -17 0 -119 c0 -90 3 -118 13 -116 6 1 12 -3 12 -9 0 -6 -8 -8
-20 -4 -21 7 -184 -81 -175 -94 7 -13 -53 -5 -70 9 -12 10 -21 10 -42 1 -24
-11 -25 -11 -13 4 16 19 14 21 -62 61 -27 13 -48 29 -48 35 0 7 11 4 27 -6 65
-43 94 -57 108 -51 9 3 15 0 15 -8 0 -8 10 -20 22 -28 20 -14 27 -14 55 0 18
9 33 19 33 24 0 4 5 8 11 8 6 0 35 15 65 32 l54 32 -3 123 c-1 68 -1 119 1
113 2 -5 17 0 33 12 l30 22 -23 19 c-23 19 -23 19 7 2 29 -16 31 -16 93 21
l63 37 -2 115 c-1 105 -2 113 -19 109 -13 -3 -17 0 -13 9 5 12 -8 19 -29 15
-5 0 -8 3 -8 7 0 5 -28 24 -63 42 -63 32 -64 33 -91 15 -21 -14 -24 -20 -14
-27 9 -6 6 -7 -9 -3 -24 7 -108 -39 -98 -54 3 -5 -5 -7 -16 -4 -19 5 -21 3
-17 -20 5 -25 -5 -37 -15 -19 -12 19 16 53 68 82 37 21 54 37 51 46 -3 8 -1
14 4 14 6 0 10 -5 10 -11 0 -6 14 -2 33 9 37 22 38 22 145 -41z m327 43 c17
-11 25 -20 20 -20 -6 0 -21 7 -33 16 -12 8 -27 12 -34 8 -7 -4 -8 -3 -4 4 10
16 16 15 51 -8z m401 -8 c-4 -3 -14 2 -24 12 -16 18 -16 18 6 6 13 -6 21 -14
18 -18z m-1709 -1 c-1 -11 -6 -17 -14 -14 -10 4 -11 9 -2 19 15 19 18 18 16
-5z m1108 9 c-3 -5 -11 -10 -16 -10 -6 0 -7 5 -4 10 3 6 11 10 16 10 6 0 7 -4
4 -10z m386 -8 c-10 -3 -11 -6 -1 -12 8 -5 4 -8 -12 -7 -13 1 -25 7 -25 14 0
6 6 9 13 6 6 -2 15 1 19 7 4 6 10 8 14 4 3 -4 0 -9 -8 -12z m169 9 c0 -5 -9
-11 -21 -14 -16 -4 -18 -3 -8 9 13 16 29 19 29 5z m-1503 -15 c-3 -7 -1 -19 4
-25 6 -7 5 -8 -2 -2 -8 6 -25 1 -50 -15 -21 -13 -42 -24 -46 -24 -5 0 0 5 10
11 9 6 15 14 12 20 -3 5 1 6 9 3 10 -4 20 3 27 20 12 26 46 38 36 12z m553 10
c0 -2 -7 -7 -16 -10 -8 -3 -12 -2 -9 4 6 10 25 14 25 6z m360 -15 c0 -5 -9
-11 -21 -14 -16 -4 -18 -3 -8 9 13 16 29 19 29 5z m-540 -10 c6 9 12 10 17 4
5 -6 7 -9 5 -8 -3 1 -22 -10 -44 -23 -32 -20 -43 -23 -52 -13 -8 9 -8 10 1 5
7 -4 21 -1 32 6 16 10 18 15 8 28 -11 13 -10 13 6 1 16 -13 20 -13 27 0z m680
1 c0 -5 -7 -9 -15 -9 -8 0 -12 4 -9 9 3 4 9 8 15 8 5 0 9 -4 9 -8z m145 -2 c3
-5 1 -10 -4 -10 -6 0 -11 5 -11 10 0 6 2 10 4 10 3 0 8 -4 11 -10z m255 0 c0
-5 -2 -10 -4 -10 -3 0 -8 5 -11 10 -3 6 -1 10 4 10 6 0 11 -4 11 -10z m145 0
c3 -5 1 -10 -4 -10 -6 0 -11 5 -11 10 0 6 2 10 4 10 3 0 8 -4 11 -10z m-1460
-10 c-3 -5 -11 -10 -16 -10 -6 0 -7 5 -4 10 3 6 11 10 16 10 6 0 7 -4 4 -10z
m130 0 c-3 -5 -12 -10 -18 -10 -7 0 -6 4 3 10 19 12 23 12 15 0z m240 1 c3 -6
-3 -9 -14 -8 -11 0 -17 5 -15 9 7 11 22 10 29 -1z m435 -1 c0 -5 -2 -10 -4
-10 -3 0 -8 5 -11 10 -3 6 -1 10 4 10 6 0 11 -4 11 -10z m-1065 -18 c-3 -3
-11 0 -18 7 -9 10 -8 11 6 5 10 -3 15 -9 12 -12z m1525 3 c-7 -8 -18 -15 -24
-15 -6 0 -2 7 8 15 25 19 32 19 16 0z m123 -6 c16 16 32 14 18 -2 -6 -8 -7
-18 -3 -22 4 -5 -1 -5 -12 -1 -10 3 -25 1 -32 -5 -12 -10 -13 -9 -8 5 4 11 -1
23 -12 33 -14 11 -12 11 10 -2 20 -12 31 -14 39 -6z m-1428 1 c-3 -5 5 -12 17
-16 12 -3 29 -13 37 -22 13 -13 12 -14 -9 -7 -14 4 -26 12 -28 16 -2 5 -8 9
-13 9 -6 0 -7 -5 -3 -12 4 -7 3 -8 -5 -4 -6 4 -8 12 -5 18 4 6 -1 8 -14 4 -11
-4 -23 -2 -27 3 -4 7 1 8 11 4 10 -4 15 -2 11 3 -3 6 3 11 14 11 11 1 17 -2
14 -7z m646 1 c-8 -5 -10 -14 -6 -22 6 -9 3 -11 -9 -6 -10 4 -20 7 -24 7 -3 0
3 7 14 15 10 8 24 14 29 15 6 0 4 -4 -4 -9z m395 -11 c0 -24 -6 -25 -32 -5
-14 11 -15 14 -3 9 10 -3 20 -1 24 5 9 15 11 14 11 -9z m114 10 c0 -5 -4 -10
-10 -10 -5 0 -10 5 -10 10 0 6 5 10 10 10 6 0 10 -4 10 -10z m400 6 c0 -3 -4
-8 -10 -11 -5 -3 -10 -1 -10 4 0 6 5 11 10 11 6 0 10 -2 10 -4z m-1675 -16 c3
-5 1 -10 -4 -10 -6 0 -11 5 -11 10 0 6 2 10 4 10 3 0 8 -4 11 -10z m240 0 c-3
-5 -11 -10 -16 -10 -6 0 -7 5 -4 10 3 6 11 10 16 10 6 0 7 -4 4 -10z m243 -22
c10 -10 15 -10 21 1 6 9 11 10 15 2 4 -6 2 -11 -4 -11 -6 0 -8 -5 -4 -11 3 -6
-8 -3 -25 5 -30 16 -39 26 -23 26 4 0 14 -6 20 -12z m842 2 c0 -5 -4 -10 -10
-10 -5 0 -10 5 -10 10 0 6 5 10 10 10 6 0 10 -4 10 -10z m40 1 c0 -5 -7 -12
-16 -15 -14 -5 -15 -4 -4 9 14 17 20 19 20 6z m-1553 -26 c-1 -5 6 -9 16 -9
22 2 22 -3 -3 -16 -12 -6 -19 -7 -18 -1 2 5 -6 16 -17 25 -20 15 -20 15 2 13
12 0 21 -6 20 -12z m188 5 c3 -5 1 -10 -4 -10 -6 0 -11 5 -11 10 0 6 2 10 4
10 3 0 8 -4 11 -10z m94 3 c-1 -5 -1 -48 0 -97 1 -69 4 -87 14 -83 8 3 14 -1
14 -9 0 -7 -4 -11 -8 -8 -10 6 -109 -56 -109 -69 0 -5 -6 -7 -13 -4 -7 3 -21
-1 -32 -9 -10 -8 -26 -14 -34 -14 -10 0 -6 5 9 14 59 31 126 69 136 77 16 13
18 113 2 103 -10 -6 -10 -4 -2 7 14 18 16 79 3 79 -6 0 -7 5 -4 10 7 12 26 14
24 3z m586 -3 c-3 -5 -12 -10 -18 -10 -7 0 -6 4 3 10 19 12 23 12 15 0z m185
-15 c-13 -16 3 -30 26 -21 9 3 12 1 9 -4 -3 -6 -12 -10 -20 -10 -7 0 -15 -3
-18 -7 -2 -5 -2 -2 -1 4 2 7 -5 17 -14 22 -10 6 -12 11 -4 11 6 0 12 7 12 16
0 8 5 12 10 9 8 -5 8 -11 0 -20z m179 0 c11 4 13 3 6 -4 -14 -14 -55 -2 -55
16 0 12 3 12 16 -2 9 -9 24 -13 33 -10z m-888 -80 c-1 -85 3 -96 29 -72 12 10
12 9 2 -4 -6 -9 -9 -19 -5 -23 4 -4 -1 -4 -12 0 -15 6 -17 4 -12 -9 3 -9 2
-17 -3 -17 -6 0 -10 46 -10 112 0 61 3 108 6 105 4 -3 6 -45 5 -92z m79 80 c5
3 10 -1 10 -10 0 -12 -4 -14 -19 -5 -11 5 -23 16 -27 23 -6 8 -3 8 9 -1 9 -8
21 -11 27 -7z m240 5 c0 -5 -5 -10 -11 -10 -5 0 -7 5 -4 10 3 6 8 10 11 10 2
0 4 -4 4 -10z m788 -7 c-2 -13 3 -18 19 -17 12 0 20 -3 17 -8 -3 -4 -12 -8
-20 -8 -8 0 -14 -4 -14 -10 0 -5 -5 -10 -11 -10 -8 0 -8 5 1 15 10 12 9 16 -3
21 -13 5 -14 9 -4 20 16 18 18 17 15 -3z m157 6 c4 -6 13 -8 19 -6 7 3 13 -1
13 -8 0 -11 -6 -11 -29 1 -28 15 -36 24 -19 24 6 0 13 -5 16 -11z m248 -8 c-3
-11 -11 -17 -19 -14 -10 4 -11 8 -1 19 17 19 26 17 20 -5z m-1618 -1 c-3 -5
-12 -10 -18 -10 -7 0 -6 4 3 10 19 12 23 12 15 0z m395 -5 c0 -2 -6 -5 -13 -8
-8 -3 -14 1 -14 8 0 7 6 11 14 8 7 -3 13 -6 13 -8z m900 5 c0 -5 -2 -10 -4
-10 -3 0 -8 5 -11 10 -3 6 -1 10 4 10 6 0 11 -4 11 -10z m-697 -7 c3 -5 -5 -8
-18 -8 -13 0 -21 3 -18 8 2 4 10 7 18 7 8 0 16 -3 18 -7z m-168 -17 c12 -12
12 -15 -1 -20 -9 -3 -17 -6 -18 -6 -1 0 -2 9 -2 20 0 24 3 24 21 6z m528 0 c4
-10 0 -14 -13 -13 -14 1 -16 4 -8 14 13 16 15 16 21 -1z m407 1 c0 -7 -9 -13
-21 -13 -19 0 -19 1 -3 13 10 7 19 13 21 13 2 0 3 -6 3 -13z m-1415 -7 c-3 -5
-11 -10 -16 -10 -6 0 -7 5 -4 10 3 6 11 10 16 10 6 0 7 -4 4 -10z m590 0 c3
-5 2 -10 -4 -10 -5 0 -13 5 -16 10 -3 6 -2 10 4 10 5 0 13 -4 16 -10z m1110 0
c3 -6 -1 -7 -9 -4 -9 4 -18 -1 -22 -10 -3 -9 -11 -13 -17 -9 -6 4 -3 11 8 20
22 16 32 16 40 3z m-1158 -32 c-3 -7 -5 -2 -5 12 0 14 2 19 5 13 2 -7 2 -19 0
-25z m621 8 c-2 -8 6 -22 17 -30 l20 -15 -20 2 c-13 1 -20 -4 -19 -14 1 -11
-5 -15 -17 -12 -11 3 -19 10 -19 15 0 5 4 7 9 3 22 -13 22 19 0 37 -13 10 -17
16 -8 12 10 -3 20 -1 24 5 9 16 16 14 13 -3z m393 4 c8 13 9 13 7 -2 -2 -9 6
-24 17 -32 l20 -15 -20 2 c-12 1 -20 -4 -19 -13 1 -10 -9 -15 -27 -16 -17 -1
-26 3 -22 9 3 6 -2 16 -12 24 -18 12 -18 13 -1 13 13 0 17 5 13 19 -4 17 -2
18 14 8 16 -10 22 -9 30 3z m-1206 -10 c-3 -5 -3 -10 2 -10 4 0 18 -8 30 -18
l23 -17 -24 0 c-14 0 -22 5 -19 12 2 6 -5 14 -18 18 -17 6 -19 9 -8 16 18 11
22 11 14 -1z m423 -19 c7 -4 5 -11 -7 -18 -15 -10 -18 -9 -17 5 1 11 -6 16
-19 15 -20 -1 -20 -1 -1 13 14 10 22 11 27 3 4 -6 11 -14 17 -18z m-823 9 c3
-6 -1 -7 -9 -4 -18 7 -21 14 -7 14 6 0 13 -4 16 -10z m734 -14 c9 -11 8 -15
-6 -20 -10 -4 -14 -4 -10 0 4 4 2 13 -4 21 -7 8 -8 13 -1 13 5 0 15 -6 21 -14z
m426 -6 c3 -5 2 -10 -4 -10 -5 0 -13 5 -16 10 -3 6 -2 10 4 10 5 0 13 -4 16
-10z m-1102 -26 c-23 -17 -39 -18 -24 -1 6 8 8 16 5 20 -3 3 4 3 15 0 20 -5
20 -6 4 -19z m241 20 c21 -8 20 -21 -2 -26 -12 -4 -18 1 -18 13 0 22 -1 21 20
13z m-457 -22 l20 -17 -23 -18 c-13 -10 -24 -14 -24 -9 0 6 8 13 17 17 16 6
15 8 -7 25 -14 11 -20 20 -14 20 6 0 20 -8 31 -18z m943 3 c0 -2 -6 -5 -13 -8
-8 -3 -14 1 -14 8 0 7 6 11 14 8 7 -3 13 -6 13 -8z m142 -25 c6 0 1 -9 -12
-20 -13 -11 -18 -20 -12 -20 7 0 12 -5 12 -10 0 -6 -8 -5 -19 2 -19 12 -19 13
-2 25 10 7 17 22 16 35 -1 13 0 15 2 6 2 -10 9 -18 15 -18z m468 20 c0 -5 -7
-10 -16 -10 -8 0 -12 5 -9 10 3 6 10 10 16 10 5 0 9 -4 9 -10z m-800 -10 c0
-5 -7 -7 -15 -4 -8 4 -15 1 -15 -7 0 -7 -3 -10 -6 -6 -9 9 5 27 22 27 8 0 14
-4 14 -10z m570 6 c0 -3 -4 -8 -10 -11 -5 -3 -10 -1 -10 4 0 6 5 11 10 11 6 0
10 -2 10 -4z m-795 -16 c3 -6 -1 -7 -9 -4 -18 7 -21 14 -7 14 6 0 13 -4 16
-10z m162 -22 c-18 -12 -23 -10 -23 11 0 15 3 17 18 8 13 -8 14 -13 5 -19z
m133 29 c0 -2 -8 -12 -19 -21 -17 -16 -19 -16 -25 0 -4 12 -2 15 9 11 8 -4 17
-2 20 3 6 10 15 13 15 7z m70 -12 c-7 -8 -18 -15 -24 -15 -6 0 -2 7 8 15 25
19 32 19 16 0z m327 1 c0 -8 -8 -14 -18 -13 -14 1 -15 4 -7 14 14 17 25 16 25
-1z m286 -3 c-3 -6 -11 -9 -19 -6 -10 4 -14 -3 -14 -22 0 -23 -2 -25 -15 -11
-17 17 -20 30 -5 21 8 -5 13 5 12 25 0 3 10 5 23 5 13 0 21 -5 18 -12z m117
-37 c-7 -7 -11 -7 -10 -1 5 26 -1 37 -17 31 -15 -5 -14 -3 2 9 18 14 20 14 28
-6 4 -14 3 -27 -3 -33z m263 29 c-14 -10 -15 -16 -5 -27 9 -12 9 -15 -3 -15
-8 0 -15 6 -15 13 0 8 -7 11 -17 7 -12 -3 -10 0 5 11 12 10 20 21 17 26 -3 4
4 6 15 3 19 -5 19 -6 3 -18z m-593 11 c0 -2 -7 -7 -16 -10 -8 -3 -12 -2 -9 4
6 10 25 14 25 6z m-710 -32 c0 -2 -9 0 -20 6 -11 6 -20 13 -20 16 0 2 9 0 20
-6 11 -6 20 -13 20 -16z m-138 -6 c-7 -7 -12 -8 -12 -2 0 6 3 14 7 17 3 4 9 5
12 2 2 -3 -1 -11 -7 -17z m398 7 c0 -2 -6 -5 -13 -8 -8 -3 -14 1 -14 8 0 7 6
11 14 8 7 -3 13 -6 13 -8z m-736 -3 c3 -5 -1 -9 -9 -9 -8 0 -12 4 -9 9 3 4 7
8 9 8 2 0 6 -4 9 -8z m1446 -2 c0 -5 -2 -10 -4 -10 -3 0 -8 5 -11 10 -3 6 -1
10 4 10 6 0 11 -4 11 -10z m-1545 -10 c3 -5 2 -10 -4 -10 -5 0 -13 5 -16 10
-3 6 -2 10 4 10 5 0 13 -4 16 -10z m1205 0 c0 -5 -5 -10 -11 -10 -5 0 -7 5 -4
10 3 6 8 10 11 10 2 0 4 -4 4 -10z m-800 -10 c-8 -5 -19 -10 -25 -10 -5 0 -3
5 5 10 8 5 20 10 25 10 6 0 3 -5 -5 -10z m215 0 c3 -6 -1 -7 -9 -4 -18 7 -21
14 -7 14 6 0 13 -4 16 -10z m167 -2 c-10 -10 -8 -16 10 -30 l23 -17 -23 6
c-12 3 -29 0 -37 -7 -8 -7 -15 -9 -15 -5 0 4 8 14 18 21 16 13 16 13 -2 14
-20 0 -20 0 0 15 23 18 43 20 26 3z m93 2 c3 -5 1 -10 -4 -10 -6 0 -11 5 -11
10 0 6 2 10 4 10 3 0 8 -4 11 -10z m-858 -14 c12 3 24 1 27 -4 4 -6 -3 -8 -16
-4 -16 4 -19 2 -13 -8 5 -9 4 -11 -3 -6 -19 12 -35 -3 -21 -20 15 -18 -1 -17
-25 1 -17 13 -18 15 -3 15 20 0 22 11 5 29 -11 11 -9 12 8 3 11 -6 30 -9 41
-6z m423 4 c0 -5 -2 -10 -4 -10 -3 0 -8 5 -11 10 -3 6 -1 10 4 10 6 0 11 -4
11 -10z m865 0 c3 -5 2 -10 -4 -10 -5 0 -13 5 -16 10 -3 6 -2 10 4 10 5 0 13
-4 16 -10z m233 5 c-2 -1 -12 -7 -24 -13 -15 -8 -21 -8 -21 1 0 7 11 13 24 13
14 1 23 1 21 -1z m-1191 -11 c-3 -4 4 -15 16 -26 l22 -20 -29 17 c-20 12 -31
14 -39 6 -14 -14 -27 -14 -27 1 0 6 3 8 6 5 4 -3 16 0 28 8 21 15 34 20 23 9z
m323 -7 c0 -5 7 -6 16 -3 13 5 14 4 6 -7 -7 -8 -9 -17 -5 -20 3 -4 2 -7 -3 -7
-5 0 -19 11 -30 23 -21 21 -21 23 -3 23 10 0 19 -4 19 -9z m686 -6 c0 -12 -6
-17 -18 -13 -18 4 -18 5 -1 18 10 7 18 14 18 14 1 0 1 -8 1 -19z m388 9 c12 9
15 8 13 -8 0 -11 -6 -18 -13 -15 -7 2 -23 -1 -36 -8 -21 -11 -22 -11 -10 4 8
9 10 22 6 29 -6 10 -3 9 9 -1 13 -10 20 -11 31 -1z m176 6 c0 -2 -7 -7 -16
-10 -8 -3 -12 -2 -9 4 6 10 25 14 25 6z m-990 -21 c0 -2 -6 -5 -13 -8 -8 -3
-14 1 -14 8 0 7 6 11 14 8 7 -3 13 -6 13 -8z m275 -5 c3 -5 1 -10 -4 -10 -6 0
-11 5 -11 10 0 6 2 10 4 10 3 0 8 -4 11 -10z m270 0 c-3 -5 -12 -10 -18 -10
-7 0 -6 4 3 10 19 12 23 12 15 0z m405 5 c0 -2 -10 -9 -22 -15 -22 -11 -22
-10 -4 4 21 17 26 19 26 11z m-1360 -15 c0 -5 -4 -10 -9 -10 -6 0 -13 5 -16
10 -3 6 1 10 9 10 9 0 16 -4 16 -10z m790 6 c0 -3 -4 -8 -10 -11 -5 -3 -10 -1
-10 4 0 6 5 11 10 11 6 0 10 -2 10 -4z m-1080 -48 c0 -22 -3 -29 -9 -19 -7 11
-13 11 -32 0 -22 -11 -23 -11 -10 4 7 10 20 17 27 17 8 0 14 7 14 15 0 8 2 15
5 15 3 0 5 -15 5 -32z m130 22 c0 -5 -2 -10 -4 -10 -3 0 -8 5 -11 10 -3 6 -1
10 4 10 6 0 11 -4 11 -10z m60 -4 c-7 -7 -13 -7 -20 0 -6 6 -3 10 10 10 13 0
16 -4 10 -10z m74 6 c2 -4 -4 -8 -14 -8 -10 0 -16 4 -14 8 3 4 9 8 14 8 5 0
11 -4 14 -8z m76 -10 c0 -9 6 -12 16 -8 13 5 14 4 6 -7 -7 -8 -9 -17 -5 -20 3
-4 2 -7 -3 -7 -6 0 -20 13 -31 28 -19 26 -20 28 -2 28 11 0 19 -7 19 -14z
m307 5 c-3 -19 -21 -27 -29 -14 -12 18 -10 23 12 24 11 1 19 -4 17 -10z m400
-2 c0 -8 -4 -12 -8 -9 -4 2 -10 -4 -12 -13 -4 -14 -5 -13 -6 4 0 12 5 24 12
26 6 3 12 6 13 6 0 1 1 -6 1 -14z m397 0 c-4 -8 -11 -12 -16 -9 -6 4 -5 10 3
15 19 12 19 11 13 -6z m151 5 c-3 -5 -12 -10 -18 -10 -7 0 -6 4 3 10 19 12 23
12 15 0z m-1705 -24 c0 -2 -9 -2 -20 1 -11 3 -20 9 -20 15 0 5 9 4 20 -2 11
-6 20 -12 20 -14z m1040 -12 c0 -2 -9 0 -20 6 -11 6 -25 8 -30 5 -6 -3 -10 1
-10 10 0 14 3 14 30 0 17 -9 30 -18 30 -21z m360 26 c0 -7 6 -7 18 -1 14 7 18
6 18 -7 0 -11 -9 -17 -26 -18 -19 -1 -26 4 -26 18 0 10 4 18 8 18 4 0 8 -5 8
-10z m-1525 -10 c3 -5 1 -10 -4 -10 -6 0 -11 5 -11 10 0 6 2 10 4 10 3 0 8 -4
11 -10z m395 0 c0 -5 -4 -10 -10 -10 -5 0 -10 5 -10 10 0 6 5 10 10 10 6 0 10
-4 10 -10z m290 0 c0 -5 -5 -10 -11 -10 -5 0 -7 5 -4 10 3 6 8 10 11 10 2 0 4
-4 4 -10z m75 0 c3 -6 -1 -7 -9 -4 -18 7 -21 14 -7 14 6 0 13 -4 16 -10z
m-398 -22 c-3 -8 -6 -5 -6 6 -1 11 2 17 5 13 3 -3 4 -12 1 -19z m108 12 c3 -5
2 -10 -4 -10 -5 0 -13 5 -16 10 -3 6 -2 10 4 10 5 0 13 -4 16 -10z m840 0 c3
-5 1 -10 -4 -10 -6 0 -11 5 -11 10 0 6 2 10 4 10 3 0 8 -4 11 -10z m-1220 -18
c-3 -3 -11 0 -18 7 -9 10 -8 11 6 5 10 -3 15 -9 12 -12z m1639 12 c18 -7 22
-44 5 -44 -5 0 -7 5 -3 12 4 6 -1 17 -11 25 -20 14 -16 17 9 7z m-1099 -14
c-3 -5 -12 -10 -18 -10 -7 0 -6 4 3 10 19 12 23 12 15 0z m190 0 c-3 -5 -12
-10 -18 -10 -7 0 -6 4 3 10 19 12 23 12 15 0z m-660 -10 c-4 -6 -1 -18 7 -27
9 -12 9 -15 1 -9 -10 5 -13 -14 -15 -86 0 -51 -3 -77 -5 -58 -3 19 -10 38 -16
42 -8 5 -8 8 -1 8 6 0 12 22 13 51 1 39 -3 55 -16 65 -17 13 -17 14 0 8 9 -3
17 -1 17 5 0 6 5 11 11 11 5 0 7 -5 4 -10z m310 0 c3 -5 2 -10 -4 -10 -5 0
-13 5 -16 10 -3 6 -2 10 4 10 5 0 13 -4 16 -10z m-380 -105 c0 -79 -3 -99 -15
-103 -12 -4 -13 -2 -4 9 13 16 13 167 0 188 -6 9 -5 12 5 9 11 -4 14 -28 14
-103z m215 91 c-7 -7 -13 -7 -20 0 -6 6 -3 10 10 10 13 0 16 -4 10 -10z m723
-3 c-9 -7 -21 -13 -26 -13 -5 0 -3 -8 4 -17 13 -16 12 -17 -3 -5 -9 8 -21 11
-27 8 -5 -3 -11 0 -14 7 -3 9 3 13 17 13 11 -1 20 4 19 9 -1 6 10 10 23 10 22
0 23 -1 7 -12z m207 2 c0 -2 -6 -5 -13 -8 -8 -3 -14 1 -14 8 0 7 6 11 14 8 7
-3 13 -6 13 -8z m194 0 c17 -13 18 -15 3 -15 -9 0 -17 -7 -17 -15 0 -9 -6 -12
-16 -8 -15 5 -15 7 0 15 14 8 15 13 5 24 -15 18 0 18 25 -1z m238 -7 c-4 -18
-2 -20 16 -16 12 4 20 2 16 -3 -3 -5 -11 -9 -19 -9 -7 0 -16 -6 -19 -12 -3 -7
-4 -5 -3 4 1 9 -7 24 -18 33 -11 9 -15 14 -8 11 6 -4 14 -2 18 4 11 18 23 10
17 -12z m163 -6 c-18 -4 -19 -14 -3 -30 19 -19 -4 -13 -32 7 -22 17 -22 19 -5
18 13 -1 20 4 19 15 -1 14 2 15 18 5 15 -10 16 -13 3 -15z m-1251 9 c-2 -2 1
-10 7 -18 9 -9 8 -13 0 -13 -6 0 -11 5 -11 10 0 14 -27 12 -33 -2 -3 -8 -6 -6
-6 5 -1 9 -6 17 -12 17 -5 0 -8 -4 -4 -9 3 -6 -4 -9 -15 -8 -19 1 -20 3 -5 13
15 11 89 15 79 5z m699 -22 c5 -3 2 -9 -7 -12 -12 -5 -16 0 -16 15 0 12 3 17
8 12 4 -5 11 -12 15 -15z m-378 1 c3 -6 -1 -7 -9 -4 -18 7 -21 14 -7 14 6 0
13 -4 16 -10z m-659 -20 c0 -22 -4 -24 -26 -10 -13 9 -13 11 0 20 22 14 26 12
26 -10z m135 3 c13 -15 12 -15 -8 -4 -24 12 -29 21 -14 21 5 0 15 -7 22 -17z
m344 7 c-3 -5 -12 -10 -18 -10 -7 0 -6 4 3 10 19 12 23 12 15 0z m-655 -6 c0
-8 -19 -13 -24 -6 -3 5 1 9 9 9 8 0 15 -2 15 -3z m1067 -18 c-23 -14 -34 -27
-28 -30 17 -11 13 -43 -5 -50 -14 -5 -15 -4 -4 9 17 20 5 49 -17 41 -11 -5 -9
1 7 17 14 13 30 21 36 19 7 -2 15 1 19 7 3 6 12 11 18 11 7 0 -5 -11 -26 -24z
m609 -3 c-4 -4 -12 -1 -19 7 -9 10 -9 11 1 6 7 -4 12 -2 13 6 0 11 2 11 6 0 3
-7 2 -16 -1 -19z m-1066 2 c-9 -10 -9 -15 -1 -15 6 0 11 -5 11 -10 0 -6 -8 -5
-19 2 -18 11 -18 13 -3 25 23 17 27 16 12 -2z m890 7 c0 -5 -12 -14 -26 -20
-14 -7 -22 -17 -19 -22 9 -14 35 -12 35 3 0 7 8 13 18 13 10 0 19 -5 19 -12 0
-6 -7 -11 -16 -10 -11 1 -15 -6 -13 -18 3 -17 2 -18 -12 -7 -12 10 -19 11 -30
2 -11 -9 -14 -8 -12 6 0 12 -5 17 -17 17 -15 -2 -15 1 5 20 13 12 28 20 34 18
7 -2 15 1 19 7 7 13 15 14 15 3z m-1023 -34 c-3 -7 -5 -2 -5 12 0 14 2 19 5
13 2 -7 2 -19 0 -25z m653 -13 c0 -2 -8 -2 -17 -1 -11 0 -18 -6 -17 -16 1 -14
-2 -15 -17 -5 -15 10 -16 13 -4 20 8 4 11 15 8 24 -5 13 -3 13 20 -2 15 -9 27
-19 27 -20z m-418 9 c-14 -10 -21 -22 -17 -31 4 -13 3 -14 -9 -4 -8 7 -21 9
-28 5 -23 -13 1 9 29 27 35 22 56 25 25 3z m-402 2 c0 -3 -4 -8 -10 -11 -5 -3
-10 -1 -10 4 0 6 5 11 10 11 6 0 10 -2 10 -4z m95 -6 c3 -6 -1 -7 -9 -4 -18 7
-21 14 -7 14 6 0 13 -4 16 -10z m1435 6 c0 -2 -7 -7 -16 -10 -8 -3 -12 -2 -9
4 6 10 25 14 25 6z m-1040 -27 c0 -11 -4 -18 -10 -14 -5 3 -7 12 -3 20 7 21
13 19 13 -6z m-520 7 c0 -2 -7 -7 -16 -10 -8 -3 -12 -2 -9 4 6 10 25 14 25 6z
m205 -15 c3 -5 1 -12 -5 -16 -5 -3 -10 -2 -10 4 0 6 -7 8 -15 5 -8 -4 -15 -1
-15 5 0 13 36 15 45 2z m360 -11 c-3 -5 -12 -10 -18 -10 -7 0 -6 4 3 10 19 12
23 12 15 0z m362 -21 c-5 -4 -7 -14 -4 -23 4 -9 2 -16 -3 -16 -6 0 -10 5 -10
10 0 6 -6 10 -14 10 -8 0 -17 4 -20 8 -3 5 5 8 17 8 16 -1 21 4 19 18 -3 15
-1 16 11 5 10 -9 11 -16 4 -20z m419 15 c10 4 15 4 11 0 -4 -4 -1 -14 5 -23
10 -13 10 -14 -2 -3 -22 19 -43 15 -37 -8 6 -24 -8 -36 -17 -14 -3 8 -12 12
-18 9 -7 -4 -4 1 7 10 11 9 19 24 17 33 -2 14 -1 14 7 3 5 -9 16 -11 27 -7z
m127 -4 c-4 -15 0 -20 13 -20 17 0 16 -1 -2 -15 -10 -8 -23 -14 -29 -15 -5 0
-3 5 5 11 13 9 13 11 -2 21 -15 11 -15 13 0 25 9 7 18 13 19 13 0 0 -1 -9 -4
-20z m-1323 5 c0 -2 -10 -9 -22 -15 -22 -11 -22 -10 -4 4 21 17 26 19 26 11z
m95 -5 c3 -5 2 -10 -4 -10 -5 0 -13 5 -16 10 -3 6 -2 10 4 10 5 0 13 -4 16
-10z m841 -22 c10 -2 4 -10 -18 -22 l-33 -19 19 21 c17 20 18 22 2 28 -14 5
-15 9 -4 15 8 5 14 3 16 -6 2 -7 10 -15 18 -17z m-801 -6 c-3 -3 -11 0 -18 7
-9 10 -8 11 6 5 10 -3 15 -9 12 -12z m239 -21 c-1 -1 -13 5 -26 14 -15 11 -17
15 -5 12 10 -4 17 -1 18 6 0 7 4 3 8 -8 5 -11 7 -22 5 -24z m181 29 c-3 -5
-12 -10 -18 -10 -7 0 -6 4 3 10 19 12 23 12 15 0z m707 -48 c8 -9 7 -11 -6 -6
-8 3 -32 -4 -52 -15 -20 -12 -38 -20 -40 -18 -2 2 14 14 36 26 30 17 40 29 41
49 l2 27 4 -25 c3 -14 10 -31 15 -38z m-1762 40 c0 -4 14 -13 31 -21 16 -7 28
-16 25 -19 -3 -2 -12 1 -21 8 -8 7 -21 10 -29 7 -8 -3 -16 2 -19 14 -3 10 -1
19 4 19 5 0 9 -3 9 -8z m240 -2 c0 -5 -2 -10 -4 -10 -3 0 -8 5 -11 10 -3 6 -1
10 4 10 6 0 11 -4 11 -10z m235 -10 c3 -5 1 -10 -4 -10 -6 0 -11 5 -11 10 0 6
2 10 4 10 3 0 8 -4 11 -10z m215 -22 c0 -6 -6 -5 -15 2 -8 7 -15 14 -15 16 0
2 7 1 15 -2 8 -4 15 -11 15 -16z m-500 2 c0 -5 -5 -10 -11 -10 -5 0 -8 -4 -5
-9 4 -5 -3 -7 -14 -4 -11 3 -20 10 -20 15 0 6 7 8 15 4 8 -3 15 -1 15 4 0 6 5
10 10 10 6 0 10 -4 10 -10z m323 -4 c4 -10 1 -13 -8 -9 -8 3 -12 9 -9 14 7 12
11 11 17 -5z m827 -6 c-24 -15 -36 -11 -14 4 10 8 21 12 24 10 2 -3 -2 -9 -10
-14z m-960 6 c0 -3 -4 -8 -10 -11 -5 -3 -10 -1 -10 4 0 6 5 11 10 11 6 0 10
-2 10 -4z m-271 -37 c-13 -10 -28 -19 -34 -19 -5 0 -3 5 5 10 11 7 11 10 2 10
-7 0 -10 5 -7 10 4 6 16 8 27 4 15 -4 18 -3 13 6 -6 9 -4 11 5 5 10 -6 7 -12
-11 -26z m368 12 c1 -12 -7 -21 -20 -25 -21 -5 -21 -5 -3 9 11 8 14 15 7 15
-7 0 -9 5 -6 10 10 16 21 12 22 -9z m289 0 c0 -15 -3 -17 -18 -8 -13 8 -14 13
-5 19 18 12 23 10 23 -11z m400 0 c0 -15 -3 -17 -18 -8 -13 8 -14 13 -5 19 18
12 23 10 23 -11z m401 -4 c2 -15 -1 -16 -13 -7 -10 9 -18 9 -27 2 -10 -8 -13
-6 -13 7 0 25 52 23 53 -2z m-1568 -9 c0 -13 -3 -17 -6 -10 -2 6 -10 9 -16 5
-7 -4 -6 1 2 10 18 22 21 21 20 -5z m241 12 c0 -5 -2 -10 -4 -10 -3 0 -8 5
-11 10 -3 6 -1 10 4 10 6 0 11 -4 11 -10z m110 6 c0 -2 -7 -7 -16 -10 -8 -3
-12 -2 -9 4 6 10 25 14 25 6z m941 -9 c-6 -8 -8 -17 -4 -21 4 -4 0 -4 -10 0
-17 6 -17 7 0 20 23 17 28 18 14 1z m-276 -7 c3 -5 1 -10 -4 -10 -6 0 -11 5
-11 10 0 6 2 10 4 10 3 0 8 -4 11 -10z m-775 -15 c0 -12 -19 -12 -23 0 -4 9
-1 12 9 8 7 -3 14 -7 14 -8z m330 11 c0 -3 -4 -8 -10 -11 -5 -3 -10 -1 -10 4
0 6 5 11 10 11 6 0 10 -2 10 -4z m1265 -6 c3 -6 -1 -7 -9 -4 -18 7 -21 14 -7
14 6 0 13 -4 16 -10z m-1431 -12 c-5 -8 -1 -9 12 -4 14 5 16 4 8 -4 -6 -6 -19
-8 -28 -4 -14 5 -15 9 -4 15 18 12 20 11 12 -3z m1086 -24 c0 -2 -13 2 -30 11
-16 9 -30 18 -30 21 0 2 14 -2 30 -11 17 -9 30 -18 30 -21z m-1327 -4 c-7 -28
-13 -25 -13 6 0 14 4 23 9 20 5 -3 7 -15 4 -26z m367 20 c0 -5 -4 -10 -9 -10
-6 0 -13 5 -16 10 -3 6 1 10 9 10 9 0 16 -4 16 -10z m554 -7 c4 -11 1 -11 -14
-3 -24 13 -25 17 -5 17 8 0 16 -6 19 -14z m263 1 c14 4 19 1 19 -13 0 -15 -3
-17 -13 -9 -9 7 -18 7 -30 -3 -12 -10 -15 -11 -9 -1 4 7 2 20 -6 30 -12 15
-11 16 4 4 9 -8 25 -11 35 -8z m407 -1 c6 3 12 -3 12 -14 0 -14 -3 -16 -15 -6
-11 9 -15 9 -18 0 -3 -7 -10 -13 -16 -13 -8 0 -8 3 1 12 9 9 7 15 -6 25 -15
13 -14 13 6 3 13 -6 29 -9 36 -7z m-1748 -25 c-22 -15 -26 -7 -17 30 1 1 7 -3
15 -10 10 -9 11 -15 2 -20z m199 22 c-3 -5 -12 -10 -18 -10 -7 0 -6 4 3 10 19
12 23 12 15 0z m196 -35 c20 -7 26 -25 9 -25 -5 0 -10 4 -10 10 0 5 -11 12
-24 16 -21 5 -25 14 -16 44 1 3 6 -5 12 -17 6 -13 19 -25 29 -28z m539 30 c0
-1 -6 -8 -14 -15 -12 -9 -15 -8 -13 8 0 12 6 18 14 15 7 -3 13 -6 13 -8z m945
5 c3 -6 -1 -7 -9 -4 -18 7 -21 14 -7 14 6 0 13 -4 16 -10z m-1314 -17 c13 -15
12 -15 -8 -4 -24 12 -29 21 -14 21 5 0 15 -7 22 -17z m556 -4 c8 -8 17 -8 34
1 23 11 23 10 4 -5 -11 -8 -26 -13 -33 -10 -8 3 -18 5 -23 5 -5 0 -9 5 -9 10
0 13 13 13 27 -1z m401 -1 c9 -9 15 -9 24 0 7 7 17 12 22 12 6 0 5 -5 -2 -12
-16 -16 -69 -18 -69 -1 0 16 9 17 25 1z m402 -3 c0 -2 -6 -5 -13 -8 -8 -3 -14
1 -14 8 0 7 6 11 14 8 7 -3 13 -6 13 -8z m-1300 -12 c0 -1 -8 -7 -18 -12 -13
-7 -19 -6 -19 2 0 7 9 13 19 13 10 0 18 -1 18 -3z m-355 -13 c3 -5 2 -10 -4
-10 -5 0 -13 5 -16 10 -3 6 -2 10 4 10 5 0 13 -4 16 -10z m-175 -10 c0 -5 -4
-10 -10 -10 -5 0 -10 5 -10 10 0 6 5 10 10 10 6 0 10 -4 10 -10z m750 -13 c0
-2 -9 -3 -20 -3 -11 0 -20 6 -20 13 0 11 5 11 20 3 11 -6 20 -12 20 -13z m700
13 c0 -5 -5 -10 -11 -10 -5 0 -7 5 -4 10 3 6 8 10 11 10 2 0 4 -4 4 -10z m324
-2 c-4 -6 1 -17 11 -25 16 -11 16 -13 3 -13 -8 0 -21 7 -28 15 -7 8 -17 12
-24 9 -6 -3 -2 2 8 10 23 19 40 21 30 4z m-724 -8 c0 -5 -5 -10 -11 -10 -5 0
-7 5 -4 10 3 6 8 10 11 10 2 0 4 -4 4 -10z m100 -2 c0 -6 -3 -8 -7 -5 -3 4
-12 2 -20 -4 -8 -8 -13 -8 -13 -1 0 10 15 19 33 21 4 1 7 -4 7 -11z m-910 -18
c0 -5 -2 -10 -4 -10 -3 0 -8 5 -11 10 -3 6 -1 10 4 10 6 0 11 -4 11 -10z"/>
<path d="M1386 1355 c-7 -19 10 -28 31 -17 15 9 14 11 -4 21 -17 8 -22 8 -27
-4z"/>
<path d="M1785 1351 c-3 -5 -1 -12 4 -15 13 -8 42 4 35 15 -7 12 -31 12 -39 0z"/>
<path d="M1586 1012 c-2 -4 -1 -14 4 -22 7 -11 12 -12 21 -3 6 6 8 16 5 22 -8
13 -23 14 -30 3z"/>
<path d="M1785 660 c-8 -13 20 -24 36 -15 8 6 7 10 -2 16 -18 11 -26 11 -34
-1z"/>
<path d="M3 1365 c0 -27 2 -38 4 -22 2 15 2 37 0 50 -2 12 -4 0 -4 -28z"/>
<path d="M3 1265 c0 -22 2 -30 4 -17 2 12 2 30 0 40 -3 9 -5 -1 -4 -23z"/>
<path d="M1992 1000 c0 -14 2 -19 5 -12 2 6 2 18 0 25 -3 6 -5 1 -5 -13z"/>
</g>
</svg>
